<?xml version="1.0" encoding="UTF-8"?>
<svg width="180px" height="93px" viewBox="0 0 180 93" version="1.1" xmlns="http://www.w3.org/2000/svg" xmlns:xlink="http://www.w3.org/1999/xlink">
    <title>04 Logo/icon</title>
    <g id="04-Logo/icon" stroke="none" stroke-width="1" fill="none" fill-rule="evenodd">
        <path d="M173.838492,84.2332232 L173.838492,8.76733367 C173.838492,7.27891938 172.62738,6.06780787 171.138966,6.06780787 L95.6992474,6.06780787 C94.2108331,6.06780787 92.9997216,7.27891938 92.9997216,8.76733367 L92.9997216,86.9321921 L171.138966,86.9321921 C172.62738,86.9321921 173.838492,85.7216374 173.838492,84.2332232" id="secondary-blue" fill="#00BFFB"></path>
        <path d="M32.6340261,6.06775219 L8.76705525,6.06775219 C7.27864097,6.06775219 6.06808629,7.2788637 6.06808629,8.76727799 L6.06808629,84.2331675 C6.06808629,85.7215818 7.27864097,86.9326933 8.76705525,86.9326933 L86.9324705,86.9326933 L86.9324705,60.3661967 C86.9324705,30.4258496 62.5743731,6.06775219 32.6340261,6.06775219" id="primary-blue" fill="#006CFB"></path>
        <path d="M6.06780787,84.2332232 L6.06780787,8.76733367 C6.06780787,7.27891938 7.27891938,6.06780787 8.76733367,6.06780787 L32.6337477,6.06780787 C62.5740947,6.06780787 86.9321921,30.4259053 86.9321921,60.3662523 L86.9321921,86.9321921 L8.76733367,86.9321921 C7.27891938,86.9321921 6.06780787,85.7216374 6.06780787,84.2332232 L6.06780787,84.2332232 Z M173.838213,84.2332232 C173.838213,85.7216374 172.627102,86.9321921 171.138687,86.9321921 L93,86.9321921 L93,8.76733367 C93,7.27891938 94.2111115,6.06780787 95.6995258,6.06780787 L171.138687,6.06780787 C172.627102,6.06780787 173.838213,7.27891938 173.838213,8.76733367 L173.838213,84.2332232 Z M171.138687,0 L95.6995258,0 C90.8651027,0 86.9321921,3.93291062 86.9321921,8.76733367 L86.9321921,34.0057839 C77.1280356,13.8924235 56.4739905,0 32.6337477,0 L8.76733367,0 C3.93291062,0 0,3.93291062 0,8.76733367 L0,84.2332232 C0,89.0670894 3.93291062,93 8.76733367,93 L171.138687,93 C175.97311,93 179.906021,89.0670894 179.906021,84.2332232 L179.906021,8.76733367 C179.906021,3.93291062 175.97311,0 171.138687,0 L171.138687,0 Z" id="border" fill="#FFFFFF"></path>
    </g>
</svg>