<svg width="142" height="32" viewBox="0 0 142 32" fill="none" xmlns="http://www.w3.org/2000/svg">
<path d="M82.464 24C82.2293 24 82.0387 23.934 81.892 23.802C81.76 23.6553 81.694 23.4647 81.694 23.23V9.15C81.694 8.90067 81.76 8.71 81.892 8.578C82.0387 8.446 82.2293 8.38 82.464 8.38H91.594C91.8433 8.38 92.034 8.446 92.166 8.578C92.298 8.71 92.364 8.90067 92.364 9.15V9.722C92.364 9.95667 92.298 10.1473 92.166 10.294C92.034 10.426 91.8433 10.492 91.594 10.492H84.202V15.266H91C91.2493 15.266 91.44 15.332 91.572 15.464C91.704 15.596 91.77 15.7867 91.77 16.036V16.586C91.77 16.8207 91.704 17.0113 91.572 17.158C91.44 17.29 91.2493 17.356 91 17.356H84.202V23.23C84.202 23.4647 84.136 23.6553 84.004 23.802C83.872 23.934 83.6813 24 83.432 24H82.464ZM98.5723 12.824C100.039 12.824 101.168 13.1687 101.96 13.858C102.752 14.5327 103.148 15.4347 103.148 16.564V23.23C103.148 23.4647 103.082 23.6553 102.95 23.802C102.818 23.934 102.628 24 102.378 24H101.806C101.572 24 101.381 23.934 101.234 23.802C101.102 23.6553 101.036 23.4647 101.036 23.23V22.746C100.684 23.2593 100.2 23.6553 99.5843 23.934C98.9683 24.2127 98.2496 24.352 97.4283 24.352C96.299 24.352 95.3676 24.1027 94.6343 23.604C93.9156 23.0907 93.5563 22.3207 93.5563 21.294C93.5563 20.15 93.9816 19.3067 94.8323 18.764C95.6976 18.2067 96.893 17.7887 98.4183 17.51L100.904 17.048V16.652C100.904 16.0507 100.692 15.5887 100.266 15.266C99.8556 14.9287 99.3056 14.76 98.6163 14.76C98.0296 14.76 97.5163 14.8627 97.0763 15.068C96.651 15.2587 96.189 15.5813 95.6903 16.036C95.4996 16.1973 95.3163 16.278 95.1403 16.278C94.9643 16.278 94.781 16.1973 94.5903 16.036L94.2383 15.728C94.0476 15.552 93.9523 15.3613 93.9523 15.156C93.9523 14.9653 94.0403 14.782 94.2163 14.606C94.847 14.0047 95.5143 13.5573 96.2183 13.264C96.9223 12.9707 97.707 12.824 98.5723 12.824ZM97.7583 22.482C98.6383 22.482 99.379 22.2473 99.9803 21.778C100.596 21.3087 100.904 20.634 100.904 19.754V18.742L98.9903 19.138C97.9196 19.358 97.1276 19.6073 96.6143 19.886C96.101 20.1647 95.8443 20.59 95.8443 21.162C95.8443 21.5727 96.013 21.8953 96.3503 22.13C96.6876 22.3647 97.157 22.482 97.7583 22.482ZM111.577 12.868C112.501 12.868 113.322 13.1027 114.041 13.572C114.774 14.0413 115.346 14.7087 115.757 15.574C116.167 16.4393 116.373 17.4367 116.373 18.566C116.373 19.71 116.167 20.7147 115.757 21.58C115.346 22.4453 114.774 23.1127 114.041 23.582C113.307 24.0513 112.486 24.286 111.577 24.286C109.949 24.286 108.753 23.6773 107.991 22.46V23.23C107.991 23.4647 107.925 23.6553 107.793 23.802C107.661 23.934 107.47 24 107.221 24H106.583C106.348 24 106.157 23.934 106.011 23.802C105.879 23.6553 105.813 23.4647 105.813 23.23V9.15C105.813 8.90067 105.879 8.71 106.011 8.578C106.157 8.446 106.348 8.38 106.583 8.38H107.375C107.624 8.38 107.815 8.446 107.947 8.578C108.079 8.71 108.145 8.90067 108.145 9.15V14.518C108.922 13.418 110.066 12.868 111.577 12.868ZM111.093 22.262C111.973 22.262 112.677 21.932 113.205 21.272C113.733 20.5973 113.997 19.6953 113.997 18.566C113.997 17.4513 113.733 16.5567 113.205 15.882C112.691 15.2073 111.995 14.87 111.115 14.87C110.22 14.87 109.487 15.2073 108.915 15.882C108.343 16.542 108.057 17.4367 108.057 18.566C108.057 19.7247 108.343 20.634 108.915 21.294C109.487 21.9393 110.213 22.262 111.093 22.262ZM123.372 13.044C123.695 13.044 124.025 13.0807 124.362 13.154C124.758 13.242 124.956 13.4767 124.956 13.858C124.956 13.9607 124.949 14.034 124.934 14.078L124.824 14.606C124.736 15.0167 124.516 15.222 124.164 15.222L123.966 15.2C123.702 15.156 123.468 15.134 123.262 15.134C122.529 15.134 121.935 15.4273 121.48 16.014C121.04 16.586 120.82 17.3853 120.82 18.412V23.23C120.82 23.4647 120.754 23.6553 120.622 23.802C120.49 23.934 120.3 24 120.05 24H119.258C119.024 24 118.833 23.934 118.686 23.802C118.554 23.6553 118.488 23.4647 118.488 23.23V13.924C118.488 13.6747 118.554 13.484 118.686 13.352C118.833 13.22 119.024 13.154 119.258 13.154H119.896C120.146 13.154 120.336 13.22 120.468 13.352C120.6 13.484 120.666 13.6747 120.666 13.924V14.782C120.93 14.2393 121.29 13.814 121.744 13.506C122.199 13.198 122.742 13.044 123.372 13.044ZM127.841 11.042C127.415 11.042 127.056 10.9027 126.763 10.624C126.469 10.3307 126.323 9.986 126.323 9.59C126.323 9.17933 126.469 8.83467 126.763 8.556C127.056 8.27733 127.415 8.138 127.841 8.138C128.266 8.138 128.625 8.27733 128.919 8.556C129.212 8.83467 129.359 9.17933 129.359 9.59C129.359 9.986 129.212 10.3307 128.919 10.624C128.625 10.9027 128.266 11.042 127.841 11.042ZM127.423 24C127.188 24 126.997 23.934 126.851 23.802C126.719 23.6553 126.653 23.4647 126.653 23.23V13.924C126.653 13.6747 126.719 13.484 126.851 13.352C126.997 13.22 127.188 13.154 127.423 13.154H128.215C128.464 13.154 128.655 13.22 128.787 13.352C128.919 13.484 128.985 13.6747 128.985 13.924V23.23C128.985 23.4647 128.919 23.6553 128.787 23.802C128.655 23.934 128.464 24 128.215 24H127.423ZM136.454 24.33C135.383 24.33 134.437 24.0953 133.616 23.626C132.809 23.1567 132.179 22.4893 131.724 21.624C131.284 20.744 131.064 19.7247 131.064 18.566C131.064 17.4073 131.291 16.3953 131.746 15.53C132.201 14.6647 132.839 13.9973 133.66 13.528C134.481 13.0587 135.427 12.824 136.498 12.824C137.275 12.824 137.972 12.9413 138.588 13.176C139.219 13.396 139.82 13.7773 140.392 14.32C140.568 14.496 140.656 14.6793 140.656 14.87C140.656 15.046 140.561 15.2293 140.37 15.42L139.996 15.794C139.835 15.9553 139.659 16.036 139.468 16.036C139.277 16.036 139.079 15.948 138.874 15.772C138.449 15.4053 138.045 15.156 137.664 15.024C137.297 14.8773 136.901 14.804 136.476 14.804C135.508 14.804 134.76 15.1633 134.232 15.882C133.704 16.6007 133.44 17.4953 133.44 18.566C133.44 19.6367 133.704 20.5387 134.232 21.272C134.76 21.9907 135.508 22.35 136.476 22.35C136.945 22.35 137.378 22.262 137.774 22.086C138.17 21.8953 138.595 21.58 139.05 21.14C139.241 20.9493 139.439 20.854 139.644 20.854C139.82 20.854 139.989 20.9273 140.15 21.074L140.524 21.382C140.715 21.5433 140.81 21.7267 140.81 21.932C140.81 22.152 140.7 22.3867 140.48 22.636C139.879 23.252 139.255 23.692 138.61 23.956C137.979 24.2053 137.261 24.33 136.454 24.33Z" fill="white"/>
<path fill-rule="evenodd" clip-rule="evenodd" d="M61.6846 28.9835V3.0167C61.6846 2.50456 61.2548 2.08783 60.7267 2.08783H33.9578C33.4296 2.08783 32.9999 2.50456 32.9999 3.0167V29.9121H60.7267C61.2548 29.9121 61.6846 29.4956 61.6846 28.9835Z" fill="#00BFFB"/>
<path fill-rule="evenodd" clip-rule="evenodd" d="M11.5798 2.08783H3.1109C2.58275 2.08783 2.1532 2.50456 2.1532 3.0167V28.9835C2.1532 29.4956 2.58275 29.9123 3.1109 29.9123H30.847V20.7712C30.847 10.4691 22.2038 2.08783 11.5798 2.08783Z" fill="#006CFB"/>
<path fill-rule="evenodd" clip-rule="evenodd" d="M2.15309 28.9835V3.01672C2.15309 2.50457 2.58284 2.08785 3.11099 2.08785H11.5797C22.2037 2.08785 30.8469 10.4691 30.8469 20.7712V29.9122H3.11099C2.58284 29.9122 2.15309 29.4956 2.15309 28.9835ZM61.6845 28.9835C61.6845 29.4956 61.2548 29.9122 60.7266 29.9122H33V3.01672C33 2.50457 33.4297 2.08785 33.9579 2.08785H60.7266C61.2548 2.08785 61.6845 2.50457 61.6845 3.01672V28.9835ZM60.7266 0H33.9579C32.2425 0 30.8469 1.35326 30.8469 3.01672V11.7009C27.368 4.78019 20.0392 0 11.5797 0H3.11099C1.39555 0 0 1.35326 0 3.01672V28.9835C0 30.6467 1.39555 32 3.11099 32H60.7266C62.4421 32 63.8376 30.6467 63.8376 28.9835V3.01672C63.8376 1.35326 62.4421 0 60.7266 0Z" fill="white"/>
</svg>
