<svg width="1920" height="1079" viewBox="0 0 1920 1079" fill="none" xmlns="http://www.w3.org/2000/svg">
<g clip-path="url(#clip0_989_13174)">
<rect width="1920" height="1079" fill="white"/>
<rect x="8" y="8" width="1904" height="1064" fill="#0063FB" stroke="white" stroke-width="16"/>
<rect x="1737.69" y="897.451" width="166" height="166" fill="#38BDF8"/>
<path d="M1915.69 1075.49H1725.6V885.013H1915.69V1075.49ZM1738.04 1063.03H1903.18V897.555H1738.04V1063.03Z" fill="white"/>
<path d="M1827.59 808.549C1869.26 808.549 1903.18 842.533 1903.18 884.285V885.094H1826.78V808.549H1827.59ZM1827.59 796.007H1814.35V897.474H1915.61V884.204C1915.61 835.493 1876.21 796.007 1827.59 796.007Z" fill="white"/>
<path d="M1649.21 991.659L1720.43 1063.03H1649.21V991.659ZM1649.21 974.02H1636.77V1075.49H1738.04V1063.03L1649.21 974.02Z" fill="white"/>
<path d="M1725.6 986.48V1063.03H1649.21V986.48H1725.6ZM1738.04 974.02H1636.77V1075.49H1738.04V974.02Z" fill="white"/>
<path d="M1559.49 951.121L1505.55 1005.17L1451.6 951.121L1505.55 897.07L1559.49 951.121ZM1577.09 951.121L1505.55 879.43L1434 951.121L1505.55 1022.81L1577.09 951.121Z" fill="white"/>
<path d="M1700.69 849.451H1622.69V771.451H1700.69V849.451Z" fill="#BAE6FD"/>
<path d="M1623.61 772.461H1699.92V848.925H1623.61V772.461ZM1611.09 760V861.386H1712.28V760H1611.09Z" fill="white"/>
<path d="M169.68 247C167.547 247 166.48 245.933 166.48 243.8V193.4C166.48 191.267 167.547 190.2 169.68 190.2H173.76C175.893 190.2 176.96 191.267 176.96 193.4V243.8C176.96 245.933 175.893 247 173.76 247H169.68ZM208.958 206.28C213.491 206.28 216.958 207.533 219.358 210.04C221.811 212.547 223.038 215.853 223.038 219.96V243.8C223.038 245.933 221.971 247 219.838 247H216.478C214.344 247 213.278 245.933 213.278 243.8V222.92C213.278 220.307 212.638 218.28 211.358 216.84C210.078 215.4 208.238 214.68 205.838 214.68C203.491 214.68 201.544 215.48 199.998 217.08C198.451 218.68 197.678 220.707 197.678 223.16V243.8C197.678 245.933 196.611 247 194.478 247H191.118C188.984 247 187.918 245.933 187.918 243.8V210.76C187.918 208.627 188.984 207.56 191.118 207.56H193.838C195.971 207.56 197.038 208.627 197.038 210.76V212.12C198.318 210.253 199.971 208.813 201.998 207.8C204.024 206.787 206.344 206.28 208.958 206.28ZM251.357 239.24C253.064 238.92 254.077 239.827 254.397 241.96L254.637 243.48C254.904 245.507 254.077 246.76 252.157 247.24C250.29 247.72 248.344 247.96 246.317 247.96C242.424 247.96 239.57 247.053 237.757 245.24C235.997 243.373 235.117 240.6 235.117 236.92V215H231.277C229.144 215 228.077 213.933 228.077 211.8V210.76C228.077 208.627 229.144 207.56 231.277 207.56H235.117V198.44C235.117 196.307 236.184 195.24 238.317 195.24H241.677C243.81 195.24 244.877 196.307 244.877 198.44V207.56H251.197C253.33 207.56 254.397 208.627 254.397 210.76V211.8C254.397 213.933 253.33 215 251.197 215H244.877V235.72C244.877 237.107 245.197 238.093 245.837 238.68C246.477 239.213 247.49 239.48 248.877 239.48C249.517 239.48 250.344 239.4 251.357 239.24ZM279.924 207.08C280.938 207.08 282.031 207.213 283.204 207.48C284.858 207.8 285.684 208.76 285.684 210.36C285.684 210.787 285.658 211.107 285.604 211.32L285.124 213.64C284.804 215.4 283.951 216.28 282.564 216.28C282.298 216.28 282.084 216.253 281.924 216.2C280.964 216.04 280.138 215.96 279.444 215.96C276.778 215.96 274.644 216.973 273.044 219C271.498 221.027 270.724 223.827 270.724 227.4V243.8C270.724 245.933 269.658 247 267.524 247H264.164C262.031 247 260.964 245.933 260.964 243.8V210.76C260.964 208.627 262.031 207.56 264.164 207.56H266.884C269.018 207.56 270.084 208.627 270.084 210.76V213.32C272.218 209.16 275.498 207.08 279.924 207.08ZM307.956 248.28C304.01 248.28 300.49 247.4 297.396 245.64C294.303 243.88 291.876 241.4 290.116 238.2C288.41 235 287.556 231.347 287.556 227.24C287.556 223.133 288.41 219.507 290.116 216.36C291.876 213.16 294.303 210.68 297.396 208.92C300.49 207.16 304.01 206.28 307.956 206.28C311.903 206.28 315.423 207.16 318.516 208.92C321.61 210.68 324.01 213.16 325.716 216.36C327.476 219.507 328.356 223.133 328.356 227.24C328.356 231.347 327.476 235 325.716 238.2C324.01 241.4 321.61 243.88 318.516 245.64C315.423 247.4 311.903 248.28 307.956 248.28ZM307.956 240.04C311.103 240.04 313.636 238.893 315.556 236.6C317.476 234.253 318.436 231.133 318.436 227.24C318.436 223.453 317.476 220.413 315.556 218.12C313.636 215.773 311.103 214.6 307.956 214.6C304.81 214.6 302.276 215.773 300.356 218.12C298.436 220.413 297.476 223.453 297.476 227.24C297.476 231.133 298.436 234.253 300.356 236.6C302.276 238.893 304.81 240.04 307.956 240.04ZM363.092 193.32C363.092 191.187 364.159 190.12 366.292 190.12H369.652C371.785 190.12 372.852 191.187 372.852 193.32V243.8C372.852 245.933 371.785 247 369.652 247H367.012C364.879 247 363.812 245.933 363.812 243.8V241.8C360.985 246.067 356.745 248.2 351.092 248.2C347.785 248.2 344.799 247.347 342.132 245.64C339.519 243.933 337.465 241.507 335.972 238.36C334.479 235.16 333.732 231.48 333.732 227.32C333.732 223.16 334.479 219.507 335.972 216.36C337.519 213.213 339.625 210.787 342.292 209.08C344.959 207.373 347.945 206.52 351.252 206.52C356.372 206.52 360.319 208.253 363.092 211.72V193.32ZM353.332 239.8C356.319 239.8 358.745 238.68 360.612 236.44C362.532 234.2 363.492 231.16 363.492 227.32C363.492 223.48 362.532 220.467 360.612 218.28C358.745 216.093 356.345 215 353.412 215C350.479 215 348.105 216.12 346.292 218.36C344.532 220.547 343.652 223.533 343.652 227.32C343.652 231.16 344.505 234.2 346.212 236.44C347.972 238.68 350.345 239.8 353.332 239.8ZM406.622 210.76C406.622 208.627 407.689 207.56 409.822 207.56H413.182C415.315 207.56 416.382 208.627 416.382 210.76V243.8C416.382 245.933 415.315 247 413.182 247H410.702C408.569 247 407.502 245.933 407.502 243.8V242.68C406.435 244.44 404.915 245.827 402.942 246.84C401.022 247.8 398.649 248.28 395.822 248.28C391.129 248.28 387.635 247.133 385.342 244.84C383.049 242.547 381.902 239.507 381.902 235.72V210.76C381.902 208.627 382.969 207.56 385.102 207.56H388.462C390.595 207.56 391.662 208.627 391.662 210.76V233C391.662 235.133 392.222 236.813 393.342 238.04C394.462 239.213 396.142 239.8 398.382 239.8C400.942 239.8 402.942 239.08 404.382 237.64C405.875 236.2 406.622 234.12 406.622 231.4V210.76ZM443.338 248.28C439.391 248.28 435.898 247.427 432.858 245.72C429.871 244.013 427.524 241.587 425.818 238.44C424.164 235.24 423.338 231.507 423.338 227.24C423.338 222.973 424.191 219.267 425.898 216.12C427.604 212.92 429.978 210.493 433.018 208.84C436.111 207.133 439.631 206.28 443.578 206.28C446.351 206.28 448.858 206.68 451.098 207.48C453.391 208.28 455.604 209.613 457.738 211.48C458.538 212.173 458.938 212.92 458.938 213.72C458.938 214.52 458.538 215.293 457.738 216.04L456.138 217.64C455.444 218.333 454.724 218.68 453.978 218.68C453.284 218.68 452.458 218.333 451.498 217.64C450.004 216.467 448.644 215.667 447.418 215.24C446.244 214.813 444.964 214.6 443.578 214.6C440.324 214.6 437.791 215.8 435.978 218.2C434.164 220.6 433.258 223.613 433.258 227.24C433.258 230.867 434.138 233.907 435.898 236.36C437.711 238.76 440.244 239.96 443.498 239.96C445.098 239.96 446.538 239.667 447.818 239.08C449.151 238.44 450.564 237.4 452.058 235.96C452.858 235.16 453.684 234.76 454.538 234.76C455.231 234.76 455.951 235.08 456.698 235.72L458.298 237.08C459.098 237.72 459.498 238.493 459.498 239.4C459.498 240.307 459.018 241.24 458.058 242.2C455.871 244.44 453.604 246.013 451.258 246.92C448.964 247.827 446.324 248.28 443.338 248.28ZM486.357 239.24C488.064 238.92 489.077 239.827 489.397 241.96L489.637 243.48C489.904 245.507 489.077 246.76 487.157 247.24C485.29 247.72 483.344 247.96 481.317 247.96C477.424 247.96 474.57 247.053 472.757 245.24C470.997 243.373 470.117 240.6 470.117 236.92V215H466.277C464.144 215 463.077 213.933 463.077 211.8V210.76C463.077 208.627 464.144 207.56 466.277 207.56H470.117V198.44C470.117 196.307 471.184 195.24 473.317 195.24H476.677C478.81 195.24 479.877 196.307 479.877 198.44V207.56H486.197C488.33 207.56 489.397 208.627 489.397 210.76V211.8C489.397 213.933 488.33 215 486.197 215H479.877V235.72C479.877 237.107 480.197 238.093 480.837 238.68C481.477 239.213 482.49 239.48 483.877 239.48C484.517 239.48 485.344 239.4 486.357 239.24ZM500.924 200.84C499.164 200.84 497.671 200.28 496.444 199.16C495.271 197.987 494.684 196.573 494.684 194.92C494.684 193.267 495.271 191.88 496.444 190.76C497.671 189.587 499.164 189 500.924 189C502.684 189 504.151 189.587 505.324 190.76C506.551 191.88 507.164 193.267 507.164 194.92C507.164 196.573 506.551 197.987 505.324 199.16C504.151 200.28 502.684 200.84 500.924 200.84ZM499.164 247C497.031 247 495.964 245.933 495.964 243.8V210.76C495.964 208.627 497.031 207.56 499.164 207.56H502.524C504.658 207.56 505.724 208.627 505.724 210.76V243.8C505.724 245.933 504.658 247 502.524 247H499.164ZM533.113 248.28C529.166 248.28 525.646 247.4 522.553 245.64C519.459 243.88 517.033 241.4 515.273 238.2C513.566 235 512.713 231.347 512.713 227.24C512.713 223.133 513.566 219.507 515.273 216.36C517.033 213.16 519.459 210.68 522.553 208.92C525.646 207.16 529.166 206.28 533.113 206.28C537.059 206.28 540.579 207.16 543.673 208.92C546.766 210.68 549.166 213.16 550.873 216.36C552.633 219.507 553.513 223.133 553.513 227.24C553.513 231.347 552.633 235 550.873 238.2C549.166 241.4 546.766 243.88 543.673 245.64C540.579 247.4 537.059 248.28 533.113 248.28ZM533.113 240.04C536.259 240.04 538.793 238.893 540.713 236.6C542.633 234.253 543.593 231.133 543.593 227.24C543.593 223.453 542.633 220.413 540.713 218.12C538.793 215.773 536.259 214.6 533.113 214.6C529.966 214.6 527.433 215.773 525.513 218.12C523.593 220.413 522.633 223.453 522.633 227.24C522.633 231.133 523.593 234.253 525.513 236.6C527.433 238.893 529.966 240.04 533.113 240.04ZM581.379 206.28C585.913 206.28 589.379 207.533 591.779 210.04C594.233 212.547 595.459 215.853 595.459 219.96V243.8C595.459 245.933 594.393 247 592.259 247H588.899C586.766 247 585.699 245.933 585.699 243.8V222.92C585.699 220.307 585.059 218.28 583.779 216.84C582.499 215.4 580.659 214.68 578.259 214.68C575.913 214.68 573.966 215.48 572.419 217.08C570.873 218.68 570.099 220.707 570.099 223.16V243.8C570.099 245.933 569.033 247 566.899 247H563.539C561.406 247 560.339 245.933 560.339 243.8V210.76C560.339 208.627 561.406 207.56 563.539 207.56H566.259C568.393 207.56 569.459 208.627 569.459 210.76V212.12C570.739 210.253 572.393 208.813 574.419 207.8C576.446 206.787 578.766 206.28 581.379 206.28ZM642.216 239.24C643.923 238.92 644.936 239.827 645.256 241.96L645.496 243.48C645.763 245.507 644.936 246.76 643.016 247.24C641.15 247.72 639.203 247.96 637.176 247.96C633.283 247.96 630.43 247.053 628.616 245.24C626.856 243.373 625.976 240.6 625.976 236.92V215H622.136C620.003 215 618.936 213.933 618.936 211.8V210.76C618.936 208.627 620.003 207.56 622.136 207.56H625.976V198.44C625.976 196.307 627.043 195.24 629.176 195.24H632.536C634.67 195.24 635.736 196.307 635.736 198.44V207.56H642.056C644.19 207.56 645.256 208.627 645.256 210.76V211.8C645.256 213.933 644.19 215 642.056 215H635.736V235.72C635.736 237.107 636.056 238.093 636.696 238.68C637.336 239.213 638.35 239.48 639.736 239.48C640.376 239.48 641.203 239.4 642.216 239.24ZM669.05 248.28C665.103 248.28 661.583 247.4 658.49 245.64C655.397 243.88 652.97 241.4 651.21 238.2C649.503 235 648.65 231.347 648.65 227.24C648.65 223.133 649.503 219.507 651.21 216.36C652.97 213.16 655.397 210.68 658.49 208.92C661.583 207.16 665.103 206.28 669.05 206.28C672.997 206.28 676.517 207.16 679.61 208.92C682.703 210.68 685.103 213.16 686.81 216.36C688.57 219.507 689.45 223.133 689.45 227.24C689.45 231.347 688.57 235 686.81 238.2C685.103 241.4 682.703 243.88 679.61 245.64C676.517 247.4 672.997 248.28 669.05 248.28ZM669.05 240.04C672.197 240.04 674.73 238.893 676.65 236.6C678.57 234.253 679.53 231.133 679.53 227.24C679.53 223.453 678.57 220.413 676.65 218.12C674.73 215.773 672.197 214.6 669.05 214.6C665.903 214.6 663.37 215.773 661.45 218.12C659.53 220.413 658.57 223.453 658.57 227.24C658.57 231.133 659.53 234.253 661.45 236.6C663.37 238.893 665.903 240.04 669.05 240.04ZM718.573 247C716.44 247 715.373 245.933 715.373 243.8V193.4C715.373 191.267 716.44 190.2 718.573 190.2H751.693C753.826 190.2 754.893 191.267 754.893 193.4V195.88C754.893 198.013 753.826 199.08 751.693 199.08H725.853V214.68H749.773C751.906 214.68 752.973 215.747 752.973 217.88V220.36C752.973 222.493 751.906 223.56 749.773 223.56H725.853V243.8C725.853 245.933 724.786 247 722.653 247H718.573ZM767.571 247C765.437 247 764.371 245.933 764.371 243.8V193.4C764.371 191.267 765.437 190.2 767.571 190.2H771.651C773.784 190.2 774.851 191.267 774.851 193.4V243.8C774.851 245.933 773.784 247 771.651 247H767.571ZM824.528 193.4C824.528 191.267 825.595 190.2 827.728 190.2H831.488C833.621 190.2 834.688 191.267 834.688 193.4V243.8C834.688 245.933 833.621 247 831.488 247H825.968C824.261 247 822.981 246.307 822.128 244.92L808.608 223.48L807.088 221.08C806.448 220.013 804.981 217.667 802.688 214.04C800.448 210.413 798.555 207.107 797.008 204.12C797.275 209.773 797.408 217.16 797.408 226.28V243.8C797.408 245.933 796.341 247 794.208 247H790.448C788.315 247 787.248 245.933 787.248 243.8V193.4C787.248 191.267 788.315 190.2 790.448 190.2H796.208C797.915 190.2 799.195 190.92 800.048 192.36L814.288 215C819.141 222.627 822.661 228.467 824.848 232.52C824.635 227.027 824.528 220.12 824.528 211.8V193.4ZM883.825 193.4C883.825 191.267 884.892 190.2 887.025 190.2H890.785C892.918 190.2 893.985 191.267 893.985 193.4V243.8C893.985 245.933 892.918 247 890.785 247H885.265C883.558 247 882.278 246.307 881.425 244.92L867.905 223.48L866.385 221.08C865.745 220.013 864.278 217.667 861.985 214.04C859.745 210.413 857.852 207.107 856.305 204.12C856.572 209.773 856.705 217.16 856.705 226.28V243.8C856.705 245.933 855.638 247 853.505 247H849.745C847.612 247 846.545 245.933 846.545 243.8V193.4C846.545 191.267 847.612 190.2 849.745 190.2H855.505C857.212 190.2 858.492 190.92 859.345 192.36L873.585 215C878.438 222.627 881.958 228.467 884.145 232.52C883.932 227.027 883.825 220.12 883.825 211.8V193.4ZM207.28 367C205.413 367 204.213 366.147 203.68 364.44L200.48 355.08H175.6L172.4 364.44C171.867 366.147 170.667 367 168.8 367H164.8C163.893 367 163.173 366.787 162.64 366.36C162.16 365.933 161.92 365.347 161.92 364.6C161.92 364.227 162 363.8 162.16 363.32L180.32 312.76C180.96 311.053 182.187 310.2 184 310.2H192.32C194.133 310.2 195.36 311.053 196 312.76L214.16 363.32C214.32 363.8 214.4 364.227 214.4 364.6C214.4 365.347 214.133 365.933 213.6 366.36C213.12 366.787 212.427 367 211.52 367H207.28ZM197.52 346.36L195.2 339.64C191.84 330.093 189.44 322.973 188 318.28C187.093 321.373 185.28 326.893 182.56 334.84L180.88 339.8L178.64 346.36H197.52ZM240.502 367C238.369 367 237.302 365.933 237.302 363.8V313.4C237.302 311.267 238.369 310.2 240.502 310.2H243.862C245.995 310.2 247.062 311.267 247.062 313.4V363.8C247.062 365.933 245.995 367 243.862 367H240.502ZM274.753 368.28C270.806 368.28 267.286 367.4 264.193 365.64C261.1 363.88 258.673 361.4 256.913 358.2C255.206 355 254.353 351.347 254.353 347.24C254.353 343.133 255.206 339.507 256.913 336.36C258.673 333.16 261.1 330.68 264.193 328.92C267.286 327.16 270.806 326.28 274.753 326.28C278.7 326.28 282.22 327.16 285.313 328.92C288.406 330.68 290.806 333.16 292.513 336.36C294.273 339.507 295.153 343.133 295.153 347.24C295.153 351.347 294.273 355 292.513 358.2C290.806 361.4 288.406 363.88 285.313 365.64C282.22 367.4 278.7 368.28 274.753 368.28ZM274.753 360.04C277.9 360.04 280.433 358.893 282.353 356.6C284.273 354.253 285.233 351.133 285.233 347.24C285.233 343.453 284.273 340.413 282.353 338.12C280.433 335.773 277.9 334.6 274.753 334.6C271.606 334.6 269.073 335.773 267.153 338.12C265.233 340.413 264.273 343.453 264.273 347.24C264.273 351.133 265.233 354.253 267.153 356.6C269.073 358.893 271.606 360.04 274.753 360.04ZM320.769 368.28C316.822 368.28 313.302 367.4 310.209 365.64C307.115 363.88 304.689 361.4 302.929 358.2C301.222 355 300.369 351.347 300.369 347.24C300.369 343.133 301.222 339.507 302.929 336.36C304.689 333.16 307.115 330.68 310.209 328.92C313.302 327.16 316.822 326.28 320.769 326.28C324.715 326.28 328.235 327.16 331.329 328.92C334.422 330.68 336.822 333.16 338.529 336.36C340.289 339.507 341.169 343.133 341.169 347.24C341.169 351.347 340.289 355 338.529 358.2C336.822 361.4 334.422 363.88 331.329 365.64C328.235 367.4 324.715 368.28 320.769 368.28ZM320.769 360.04C323.915 360.04 326.449 358.893 328.369 356.6C330.289 354.253 331.249 351.133 331.249 347.24C331.249 343.453 330.289 340.413 328.369 338.12C326.449 335.773 323.915 334.6 320.769 334.6C317.622 334.6 315.089 335.773 313.169 338.12C311.249 340.413 310.289 343.453 310.289 347.24C310.289 351.133 311.249 354.253 313.169 356.6C315.089 358.893 317.622 360.04 320.769 360.04ZM377.436 367C375.782 367 374.502 366.28 373.596 364.84L363.516 348.68L357.756 354.52V363.8C357.756 365.933 356.689 367 354.556 367H351.196C349.062 367 347.996 365.933 347.996 363.8V313.4C347.996 311.267 349.062 310.2 351.196 310.2H354.556C356.689 310.2 357.756 311.267 357.756 313.4V343.72L371.356 329.24C372.422 328.12 373.729 327.56 375.276 327.56H378.876C379.729 327.56 380.396 327.72 380.876 328.04C381.356 328.36 381.596 328.787 381.596 329.32C381.596 330.013 381.249 330.733 380.556 331.48L370.236 342.36L383.276 363.16C383.702 363.907 383.916 364.52 383.916 365C383.916 365.587 383.649 366.067 383.116 366.44C382.636 366.813 381.969 367 381.116 367H377.436ZM425.118 326.28C430.611 326.28 434.824 327.56 437.758 330.12C440.691 332.627 442.158 336.013 442.158 340.28V363.8C442.158 365.933 441.091 367 438.958 367H436.558C434.424 367 433.358 365.933 433.358 363.8V362.84C432.131 364.547 430.424 365.88 428.238 366.84C426.104 367.8 423.544 368.28 420.558 368.28C416.451 368.28 413.064 367.373 410.398 365.56C407.784 363.693 406.478 360.867 406.478 357.08C406.478 352.92 407.998 349.827 411.038 347.8C414.131 345.72 418.318 344.2 423.598 343.24L432.878 341.56V340.52C432.878 338.6 432.184 337.107 430.798 336.04C429.411 334.92 427.571 334.36 425.278 334.36C423.251 334.36 421.464 334.707 419.918 335.4C418.424 336.093 416.851 337.187 415.197 338.68C414.344 339.373 413.571 339.72 412.878 339.72C412.184 339.72 411.438 339.373 410.638 338.68L409.118 337.24C408.318 336.44 407.918 335.64 407.918 334.84C407.918 334.093 408.238 333.4 408.878 332.76C411.171 330.573 413.624 328.947 416.238 327.88C418.904 326.813 421.864 326.28 425.118 326.28ZM422.158 360.52C425.091 360.52 427.598 359.747 429.678 358.2C431.811 356.6 432.878 354.2 432.878 351V348.52L426.078 349.88C422.611 350.627 420.051 351.453 418.398 352.36C416.798 353.267 415.998 354.627 415.998 356.44C415.998 357.667 416.531 358.653 417.598 359.4C418.718 360.147 420.238 360.52 422.158 360.52ZM470.419 359.24C472.126 358.92 473.139 359.827 473.459 361.96L473.699 363.48C473.966 365.507 473.139 366.76 471.219 367.24C469.353 367.72 467.406 367.96 465.379 367.96C461.486 367.96 458.633 367.053 456.819 365.24C455.059 363.373 454.179 360.6 454.179 356.92V335H450.339C448.206 335 447.139 333.933 447.139 331.8V330.76C447.139 328.627 448.206 327.56 450.339 327.56H454.179V318.44C454.179 316.307 455.246 315.24 457.379 315.24H460.739C462.873 315.24 463.939 316.307 463.939 318.44V327.56H470.259C472.393 327.56 473.459 328.627 473.459 330.76V331.8C473.459 333.933 472.393 335 470.259 335H463.939V355.72C463.939 357.107 464.259 358.093 464.899 358.68C465.539 359.213 466.553 359.48 467.939 359.48C468.579 359.48 469.406 359.4 470.419 359.24ZM502.323 367C500.19 367 499.123 365.933 499.123 363.8V313.4C499.123 311.267 500.19 310.2 502.323 310.2H535.443C537.576 310.2 538.643 311.267 538.643 313.4V315.88C538.643 318.013 537.576 319.08 535.443 319.08H509.603V334.68H533.523C535.656 334.68 536.723 335.747 536.723 337.88V340.36C536.723 342.493 535.656 343.56 533.523 343.56H509.603V363.8C509.603 365.933 508.536 367 506.403 367H502.323ZM551.321 367C549.187 367 548.121 365.933 548.121 363.8V313.4C548.121 311.267 549.187 310.2 551.321 310.2H555.401C557.534 310.2 558.601 311.267 558.601 313.4V363.8C558.601 365.933 557.534 367 555.401 367H551.321ZM608.278 313.4C608.278 311.267 609.345 310.2 611.478 310.2H615.238C617.371 310.2 618.438 311.267 618.438 313.4V363.8C618.438 365.933 617.371 367 615.238 367H609.718C608.011 367 606.731 366.307 605.878 364.92L592.358 343.48L590.838 341.08C590.198 340.013 588.731 337.667 586.438 334.04C584.198 330.413 582.305 327.107 580.758 324.12C581.025 329.773 581.158 337.16 581.158 346.28V363.8C581.158 365.933 580.091 367 577.958 367H574.198C572.065 367 570.998 365.933 570.998 363.8V313.4C570.998 311.267 572.065 310.2 574.198 310.2H579.958C581.665 310.2 582.945 310.92 583.798 312.36L598.038 335C602.891 342.627 606.411 348.467 608.598 352.52C608.385 347.027 608.278 340.12 608.278 331.8V313.4ZM667.575 313.4C667.575 311.267 668.642 310.2 670.775 310.2H674.535C676.668 310.2 677.735 311.267 677.735 313.4V363.8C677.735 365.933 676.668 367 674.535 367H669.015C667.308 367 666.028 366.307 665.175 364.92L651.655 343.48L650.135 341.08C649.495 340.013 648.028 337.667 645.735 334.04C643.495 330.413 641.602 327.107 640.055 324.12C640.322 329.773 640.455 337.16 640.455 346.28V363.8C640.455 365.933 639.388 367 637.255 367H633.495C631.362 367 630.295 365.933 630.295 363.8V313.4C630.295 311.267 631.362 310.2 633.495 310.2H639.255C640.962 310.2 642.242 310.92 643.095 312.36L657.335 335C662.188 342.627 665.708 348.467 667.895 352.52C667.682 347.027 667.575 340.12 667.575 331.8V313.4ZM729.408 368.36C722.261 368.36 716.715 366.707 712.768 363.4C708.875 360.04 706.928 354.893 706.928 347.96V313.4C706.928 311.267 707.995 310.2 710.128 310.2H714.208C716.341 310.2 717.408 311.267 717.408 313.4V347.56C717.408 351.24 718.395 354.093 720.368 356.12C722.395 358.093 725.408 359.08 729.408 359.08C733.408 359.08 736.421 358.093 738.448 356.12C740.475 354.093 741.488 351.24 741.488 347.56V313.4C741.488 311.267 742.555 310.2 744.688 310.2H748.768C750.901 310.2 751.968 311.267 751.968 313.4V347.96C751.968 354.893 749.995 360.04 746.048 363.4C742.155 366.707 736.608 368.36 729.408 368.36ZM809.578 363.08C810.058 363.773 810.298 364.413 810.298 365C810.298 365.587 810.031 366.067 809.498 366.44C809.018 366.813 808.351 367 807.498 367H802.938C801.285 367 800.005 366.307 799.098 364.92L785.338 344.52L771.418 364.92C770.511 366.307 769.231 367 767.578 367H763.098C762.245 367 761.551 366.813 761.018 366.44C760.538 366.067 760.298 365.587 760.298 365C760.298 364.413 760.538 363.773 761.018 363.08L779.018 336.92L763.258 314.12C762.778 313.373 762.538 312.707 762.538 312.12C762.538 311.533 762.778 311.08 763.258 310.76C763.738 310.387 764.405 310.2 765.258 310.2H769.898C771.551 310.2 772.831 310.893 773.738 312.28L785.418 329.56L797.098 312.28C798.005 310.893 799.285 310.2 800.938 310.2H805.418C806.271 310.2 806.938 310.387 807.418 310.76C807.951 311.133 808.218 311.613 808.218 312.2C808.218 312.733 807.978 313.373 807.498 314.12L791.658 337L809.578 363.08ZM862.701 313.32C862.701 311.187 863.768 310.12 865.901 310.12H869.261C871.395 310.12 872.461 311.187 872.461 313.32V363.8C872.461 365.933 871.395 367 869.261 367H866.621C864.488 367 863.421 365.933 863.421 363.8V361.8C860.595 366.067 856.355 368.2 850.701 368.2C847.395 368.2 844.408 367.347 841.741 365.64C839.128 363.933 837.075 361.507 835.581 358.36C834.088 355.16 833.341 351.48 833.341 347.32C833.341 343.16 834.088 339.507 835.581 336.36C837.128 333.213 839.235 330.787 841.901 329.08C844.568 327.373 847.555 326.52 850.861 326.52C855.981 326.52 859.928 328.253 862.701 331.72V313.32ZM852.941 359.8C855.928 359.8 858.355 358.68 860.221 356.44C862.141 354.2 863.101 351.16 863.101 347.32C863.101 343.48 862.141 340.467 860.221 338.28C858.355 336.093 855.955 335 853.021 335C850.088 335 847.715 336.12 845.901 338.36C844.141 340.547 843.261 343.533 843.261 347.32C843.261 351.16 844.115 354.2 845.821 356.44C847.581 358.68 849.955 359.8 852.941 359.8ZM909.591 356.52C910.391 355.88 911.138 355.56 911.831 355.56C912.631 355.56 913.378 355.96 914.071 356.76L915.431 358.2C916.125 358.893 916.471 359.613 916.471 360.36C916.471 361.267 916.045 362.067 915.191 362.76C912.791 364.733 910.365 366.147 907.911 367C905.511 367.853 902.871 368.28 899.991 368.28C895.778 368.28 892.125 367.427 889.031 365.72C885.938 364.013 883.565 361.587 881.911 358.44C880.258 355.293 879.431 351.64 879.431 347.48C879.431 343.427 880.205 339.8 881.751 336.6C883.351 333.347 885.645 330.813 888.631 329C891.618 327.187 895.111 326.28 899.111 326.28C905.031 326.28 909.565 328.013 912.711 331.48C915.911 334.947 917.511 339.747 917.511 345.88V346.6C917.458 348.68 916.365 349.72 914.231 349.72H888.951C889.325 352.867 890.445 355.373 892.311 357.24C894.231 359.107 896.845 360.04 900.151 360.04C901.965 360.04 903.565 359.773 904.951 359.24C906.338 358.707 907.885 357.8 909.591 356.52ZM898.871 333.96C896.258 333.96 894.125 334.76 892.471 336.36C890.818 337.907 889.725 340.04 889.191 342.76H907.991C907.778 340.04 906.898 337.907 905.351 336.36C903.805 334.76 901.645 333.96 898.871 333.96ZM946.474 326.44C949.834 326.44 952.821 327.293 955.434 329C958.101 330.707 960.181 333.133 961.674 336.28C963.168 339.427 963.914 343.08 963.914 347.24C963.914 351.4 963.168 355.08 961.674 358.28C960.181 361.427 958.101 363.853 955.434 365.56C952.768 367.267 949.781 368.12 946.474 368.12C941.194 368.12 937.194 366.333 934.474 362.76V377.72C934.474 379.853 933.408 380.92 931.274 380.92H927.914C925.781 380.92 924.714 379.853 924.714 377.72V330.76C924.714 328.627 925.781 327.56 927.914 327.56H930.634C932.768 327.56 933.834 328.627 933.834 330.76V332.84C936.661 328.573 940.874 326.44 946.474 326.44ZM944.234 359.56C947.168 359.56 949.514 358.467 951.274 356.28C953.088 354.04 953.994 351.027 953.994 347.24C953.994 343.453 953.114 340.44 951.354 338.2C949.648 335.96 947.301 334.84 944.314 334.84C941.328 334.84 938.874 335.96 936.954 338.2C935.088 340.387 934.154 343.4 934.154 347.24C934.154 351.08 935.088 354.093 936.954 356.28C938.874 358.467 941.301 359.56 944.234 359.56ZM988.164 326.28C993.658 326.28 997.871 327.56 1000.8 330.12C1003.74 332.627 1005.2 336.013 1005.2 340.28V363.8C1005.2 365.933 1004.14 367 1002 367H999.604C997.471 367 996.404 365.933 996.404 363.8V362.84C995.178 364.547 993.471 365.88 991.284 366.84C989.151 367.8 986.591 368.28 983.604 368.28C979.498 368.28 976.111 367.373 973.444 365.56C970.831 363.693 969.524 360.867 969.524 357.08C969.524 352.92 971.044 349.827 974.084 347.8C977.178 345.72 981.364 344.2 986.644 343.24L995.924 341.56V340.52C995.924 338.6 995.231 337.107 993.844 336.04C992.458 334.92 990.618 334.36 988.324 334.36C986.298 334.36 984.511 334.707 982.964 335.4C981.471 336.093 979.898 337.187 978.244 338.68C977.391 339.373 976.618 339.72 975.924 339.72C975.231 339.72 974.484 339.373 973.684 338.68L972.164 337.24C971.364 336.44 970.964 335.64 970.964 334.84C970.964 334.093 971.284 333.4 971.924 332.76C974.218 330.573 976.671 328.947 979.284 327.88C981.951 326.813 984.911 326.28 988.164 326.28ZM985.204 360.52C988.138 360.52 990.644 359.747 992.724 358.2C994.858 356.6 995.924 354.2 995.924 351V348.52L989.124 349.88C985.658 350.627 983.098 351.453 981.444 352.36C979.844 353.267 979.044 354.627 979.044 356.44C979.044 357.667 979.578 358.653 980.644 359.4C981.764 360.147 983.284 360.52 985.204 360.52ZM1033.13 327.08C1034.14 327.08 1035.23 327.213 1036.41 327.48C1038.06 327.8 1038.89 328.76 1038.89 330.36C1038.89 330.787 1038.86 331.107 1038.81 331.32L1038.33 333.64C1038.01 335.4 1037.15 336.28 1035.77 336.28C1035.5 336.28 1035.29 336.253 1035.13 336.2C1034.17 336.04 1033.34 335.96 1032.65 335.96C1029.98 335.96 1027.85 336.973 1026.25 339C1024.7 341.027 1023.93 343.827 1023.93 347.4V363.8C1023.93 365.933 1022.86 367 1020.73 367H1017.37C1015.23 367 1014.17 365.933 1014.17 363.8V330.76C1014.17 328.627 1015.23 327.56 1017.37 327.56H1020.09C1022.22 327.56 1023.29 328.627 1023.29 330.76V333.32C1025.42 329.16 1028.7 327.08 1033.13 327.08ZM1065.58 359.24C1067.28 358.92 1068.3 359.827 1068.62 361.96L1068.86 363.48C1069.12 365.507 1068.3 366.76 1066.38 367.24C1064.51 367.72 1062.56 367.96 1060.54 367.96C1056.64 367.96 1053.79 367.053 1051.98 365.24C1050.22 363.373 1049.34 360.6 1049.34 356.92V335H1045.5C1043.36 335 1042.3 333.933 1042.3 331.8V330.76C1042.3 328.627 1043.36 327.56 1045.5 327.56H1049.34V318.44C1049.34 316.307 1050.4 315.24 1052.54 315.24H1055.9C1058.03 315.24 1059.1 316.307 1059.1 318.44V327.56H1065.42C1067.55 327.56 1068.62 328.627 1068.62 330.76V331.8C1068.62 333.933 1067.55 335 1065.42 335H1059.1V355.72C1059.1 357.107 1059.42 358.093 1060.06 358.68C1060.7 359.213 1061.71 359.48 1063.1 359.48C1063.74 359.48 1064.56 359.4 1065.58 359.24ZM1118.38 326.28C1122.6 326.28 1125.82 327.48 1128.06 329.88C1130.36 332.227 1131.5 335.427 1131.5 339.48V363.8C1131.5 365.933 1130.44 367 1128.3 367H1124.94C1122.81 367 1121.74 365.933 1121.74 363.8V342.44C1121.74 340.04 1121.24 338.147 1120.22 336.76C1119.21 335.373 1117.58 334.68 1115.34 334.68C1113.1 334.68 1111.37 335.427 1110.14 336.92C1108.92 338.413 1108.3 340.36 1108.3 342.76V363.8C1108.3 365.933 1107.24 367 1105.1 367H1101.74C1099.61 367 1098.54 365.933 1098.54 363.8V342.44C1098.54 340.04 1098.04 338.147 1097.02 336.76C1096.01 335.373 1094.38 334.68 1092.14 334.68C1089.9 334.68 1088.14 335.427 1086.86 336.92C1085.64 338.413 1085 340.333 1084.94 342.68V363.8C1084.94 365.933 1083.88 367 1081.74 367H1078.38C1076.25 367 1075.18 365.933 1075.18 363.8V330.76C1075.18 328.627 1076.25 327.56 1078.38 327.56H1081.1C1083.24 327.56 1084.3 328.627 1084.3 330.76V332.04C1086.76 328.2 1090.52 326.28 1095.58 326.28C1098.14 326.28 1100.36 326.787 1102.22 327.8C1104.09 328.813 1105.53 330.253 1106.54 332.12C1109.21 328.227 1113.16 326.28 1118.38 326.28ZM1168.58 356.52C1169.38 355.88 1170.12 355.56 1170.82 355.56C1171.62 355.56 1172.36 355.96 1173.06 356.76L1174.42 358.2C1175.11 358.893 1175.46 359.613 1175.46 360.36C1175.46 361.267 1175.03 362.067 1174.18 362.76C1171.78 364.733 1169.35 366.147 1166.9 367C1164.5 367.853 1161.86 368.28 1158.98 368.28C1154.76 368.28 1151.11 367.427 1148.02 365.72C1144.92 364.013 1142.55 361.587 1140.9 358.44C1139.24 355.293 1138.42 351.64 1138.42 347.48C1138.42 343.427 1139.19 339.8 1140.74 336.6C1142.34 333.347 1144.63 330.813 1147.62 329C1150.6 327.187 1154.1 326.28 1158.1 326.28C1164.02 326.28 1168.55 328.013 1171.7 331.48C1174.9 334.947 1176.5 339.747 1176.5 345.88V346.6C1176.44 348.68 1175.35 349.72 1173.22 349.72H1147.94C1148.31 352.867 1149.43 355.373 1151.3 357.24C1153.22 359.107 1155.83 360.04 1159.14 360.04C1160.95 360.04 1162.55 359.773 1163.94 359.24C1165.32 358.707 1166.87 357.8 1168.58 356.52ZM1157.86 333.96C1155.24 333.96 1153.11 334.76 1151.46 336.36C1149.8 337.907 1148.71 340.04 1148.18 342.76H1166.98C1166.76 340.04 1165.88 337.907 1164.34 336.36C1162.79 334.76 1160.63 333.96 1157.86 333.96ZM1204.74 326.28C1209.27 326.28 1212.74 327.533 1215.14 330.04C1217.59 332.547 1218.82 335.853 1218.82 339.96V363.8C1218.82 365.933 1217.75 367 1215.62 367H1212.26C1210.13 367 1209.06 365.933 1209.06 363.8V342.92C1209.06 340.307 1208.42 338.28 1207.14 336.84C1205.86 335.4 1204.02 334.68 1201.62 334.68C1199.27 334.68 1197.33 335.48 1195.78 337.08C1194.23 338.68 1193.46 340.707 1193.46 343.16V363.8C1193.46 365.933 1192.39 367 1190.26 367H1186.9C1184.77 367 1183.7 365.933 1183.7 363.8V330.76C1183.7 328.627 1184.77 327.56 1186.9 327.56H1189.62C1191.75 327.56 1192.82 328.627 1192.82 330.76V332.12C1194.1 330.253 1195.75 328.813 1197.78 327.8C1199.81 326.787 1202.13 326.28 1204.74 326.28ZM1247.14 359.24C1248.84 358.92 1249.86 359.827 1250.18 361.96L1250.42 363.48C1250.68 365.507 1249.86 366.76 1247.94 367.24C1246.07 367.72 1244.12 367.96 1242.1 367.96C1238.2 367.96 1235.35 367.053 1233.54 365.24C1231.78 363.373 1230.9 360.6 1230.9 356.92V335H1227.06C1224.92 335 1223.86 333.933 1223.86 331.8V330.76C1223.86 328.627 1224.92 327.56 1227.06 327.56H1230.9V318.44C1230.9 316.307 1231.96 315.24 1234.1 315.24H1237.46C1239.59 315.24 1240.66 316.307 1240.66 318.44V327.56H1246.98C1249.11 327.56 1250.18 328.627 1250.18 330.76V331.8C1250.18 333.933 1249.11 335 1246.98 335H1240.66V355.72C1240.66 357.107 1240.98 358.093 1241.62 358.68C1242.26 359.213 1243.27 359.48 1244.66 359.48C1245.3 359.48 1246.12 359.4 1247.14 359.24ZM169.68 487C167.547 487 166.48 485.933 166.48 483.8V433.4C166.48 431.267 167.547 430.2 169.68 430.2H173.76C175.893 430.2 176.96 431.267 176.96 433.4V483.8C176.96 485.933 175.893 487 173.76 487H169.68ZM208.958 446.28C213.491 446.28 216.958 447.533 219.358 450.04C221.811 452.547 223.038 455.853 223.038 459.96V483.8C223.038 485.933 221.971 487 219.838 487H216.478C214.344 487 213.278 485.933 213.278 483.8V462.92C213.278 460.307 212.638 458.28 211.358 456.84C210.078 455.4 208.238 454.68 205.838 454.68C203.491 454.68 201.544 455.48 199.998 457.08C198.451 458.68 197.678 460.707 197.678 463.16V483.8C197.678 485.933 196.611 487 194.478 487H191.118C188.984 487 187.918 485.933 187.918 483.8V450.76C187.918 448.627 188.984 447.56 191.118 447.56H193.838C195.971 447.56 197.038 448.627 197.038 450.76V452.12C198.318 450.253 199.971 448.813 201.998 447.8C204.024 446.787 206.344 446.28 208.958 446.28ZM247.818 488.28C244.511 488.28 241.578 487.88 239.018 487.08C236.458 486.28 233.898 484.867 231.338 482.84C230.431 482.093 229.978 481.32 229.978 480.52C229.978 479.773 230.298 479.053 230.938 478.36L232.378 476.76C233.125 475.96 233.925 475.56 234.778 475.56C235.471 475.56 236.191 475.827 236.938 476.36C239.071 477.907 240.938 478.973 242.538 479.56C244.191 480.093 246.031 480.36 248.058 480.36C250.138 480.36 251.818 479.987 253.098 479.24C254.378 478.493 255.018 477.427 255.018 476.04C255.018 474.973 254.618 474.147 253.818 473.56C253.018 472.92 252.005 472.44 250.778 472.12C249.605 471.747 247.738 471.293 245.178 470.76C241.391 469.96 238.458 469.08 236.378 468.12C234.351 467.107 232.885 465.853 231.978 464.36C231.125 462.867 230.698 460.947 230.698 458.6C230.698 456.307 231.338 454.227 232.618 452.36C233.951 450.493 235.845 449.027 238.298 447.96C240.751 446.84 243.658 446.28 247.018 446.28C249.951 446.28 252.511 446.6 254.698 447.24C256.938 447.827 259.151 448.893 261.338 450.44C262.298 451.08 262.778 451.853 262.778 452.76C262.778 453.453 262.485 454.173 261.898 454.92L260.698 456.44C260.005 457.293 259.205 457.72 258.298 457.72C257.605 457.72 256.885 457.48 256.138 457C254.485 455.933 252.938 455.187 251.498 454.76C250.111 454.333 248.565 454.12 246.858 454.12C244.831 454.12 243.178 454.52 241.898 455.32C240.671 456.067 240.058 457.053 240.058 458.28C240.058 459.133 240.351 459.8 240.938 460.28C241.525 460.76 242.378 461.16 243.498 461.48C244.671 461.8 246.618 462.28 249.338 462.92C253.071 463.72 256.031 464.627 258.218 465.64C260.405 466.653 262.005 467.933 263.018 469.48C264.031 471.027 264.538 473 264.538 475.4C264.538 479.24 263.045 482.36 260.058 484.76C257.071 487.107 252.991 488.28 247.818 488.28ZM276.237 440.84C274.477 440.84 272.984 440.28 271.757 439.16C270.584 437.987 269.997 436.573 269.997 434.92C269.997 433.267 270.584 431.88 271.757 430.76C272.984 429.587 274.477 429 276.237 429C277.997 429 279.464 429.587 280.637 430.76C281.864 431.88 282.477 433.267 282.477 434.92C282.477 436.573 281.864 437.987 280.637 439.16C279.464 440.28 277.997 440.84 276.237 440.84ZM274.477 487C272.344 487 271.277 485.933 271.277 483.8V450.76C271.277 448.627 272.344 447.56 274.477 447.56H277.837C279.97 447.56 281.037 448.627 281.037 450.76V483.8C281.037 485.933 279.97 487 277.837 487H274.477ZM317.545 433.32C317.545 431.187 318.612 430.12 320.745 430.12H324.105C326.238 430.12 327.305 431.187 327.305 433.32V483.8C327.305 485.933 326.238 487 324.105 487H321.465C319.332 487 318.265 485.933 318.265 483.8V481.8C315.438 486.067 311.198 488.2 305.545 488.2C302.238 488.2 299.252 487.347 296.585 485.64C293.972 483.933 291.918 481.507 290.425 478.36C288.932 475.16 288.185 471.48 288.185 467.32C288.185 463.16 288.932 459.507 290.425 456.36C291.972 453.213 294.078 450.787 296.745 449.08C299.412 447.373 302.398 446.52 305.705 446.52C310.825 446.52 314.772 448.253 317.545 451.72V433.32ZM307.785 479.8C310.772 479.8 313.198 478.68 315.065 476.44C316.985 474.2 317.945 471.16 317.945 467.32C317.945 463.48 316.985 460.467 315.065 458.28C313.198 456.093 310.798 455 307.865 455C304.932 455 302.558 456.12 300.745 458.36C298.985 460.547 298.105 463.533 298.105 467.32C298.105 471.16 298.958 474.2 300.665 476.44C302.425 478.68 304.798 479.8 307.785 479.8ZM364.435 476.52C365.235 475.88 365.982 475.56 366.675 475.56C367.475 475.56 368.222 475.96 368.915 476.76L370.275 478.2C370.968 478.893 371.315 479.613 371.315 480.36C371.315 481.267 370.888 482.067 370.035 482.76C367.635 484.733 365.208 486.147 362.755 487C360.355 487.853 357.715 488.28 354.835 488.28C350.622 488.28 346.968 487.427 343.875 485.72C340.782 484.013 338.408 481.587 336.755 478.44C335.102 475.293 334.275 471.64 334.275 467.48C334.275 463.427 335.048 459.8 336.595 456.6C338.195 453.347 340.488 450.813 343.475 449C346.462 447.187 349.955 446.28 353.955 446.28C359.875 446.28 364.408 448.013 367.555 451.48C370.755 454.947 372.355 459.747 372.355 465.88V466.6C372.302 468.68 371.208 469.72 369.075 469.72H343.795C344.168 472.867 345.288 475.373 347.155 477.24C349.075 479.107 351.688 480.04 354.995 480.04C356.808 480.04 358.408 479.773 359.795 479.24C361.182 478.707 362.728 477.8 364.435 476.52ZM353.715 453.96C351.102 453.96 348.968 454.76 347.315 456.36C345.662 457.907 344.568 460.04 344.035 462.76H362.835C362.622 460.04 361.742 457.907 360.195 456.36C358.648 454.76 356.488 453.96 353.715 453.96ZM401.854 487C399.721 487 398.654 485.933 398.654 483.8V433.4C398.654 431.267 399.721 430.2 401.854 430.2H434.974C437.108 430.2 438.174 431.267 438.174 433.4V435.88C438.174 438.013 437.108 439.08 434.974 439.08H409.134V454.68H433.054C435.188 454.68 436.254 455.747 436.254 457.88V460.36C436.254 462.493 435.188 463.56 433.054 463.56H409.134V483.8C409.134 485.933 408.068 487 405.934 487H401.854ZM450.852 487C448.719 487 447.652 485.933 447.652 483.8V433.4C447.652 431.267 448.719 430.2 450.852 430.2H454.932C457.065 430.2 458.132 431.267 458.132 433.4V483.8C458.132 485.933 457.065 487 454.932 487H450.852ZM507.809 433.4C507.809 431.267 508.876 430.2 511.009 430.2H514.769C516.903 430.2 517.969 431.267 517.969 433.4V483.8C517.969 485.933 516.903 487 514.769 487H509.249C507.543 487 506.263 486.307 505.409 484.92L491.889 463.48L490.369 461.08C489.729 460.013 488.263 457.667 485.969 454.04C483.729 450.413 481.836 447.107 480.289 444.12C480.556 449.773 480.689 457.16 480.689 466.28V483.8C480.689 485.933 479.623 487 477.489 487H473.729C471.596 487 470.529 485.933 470.529 483.8V433.4C470.529 431.267 471.596 430.2 473.729 430.2H479.489C481.196 430.2 482.476 430.92 483.329 432.36L497.569 455C502.423 462.627 505.943 468.467 508.129 472.52C507.916 467.027 507.809 460.12 507.809 451.8V433.4ZM567.106 433.4C567.106 431.267 568.173 430.2 570.306 430.2H574.066C576.2 430.2 577.266 431.267 577.266 433.4V483.8C577.266 485.933 576.2 487 574.066 487H568.546C566.84 487 565.56 486.307 564.706 484.92L551.186 463.48L549.666 461.08C549.026 460.013 547.56 457.667 545.266 454.04C543.026 450.413 541.133 447.107 539.586 444.12C539.853 449.773 539.986 457.16 539.986 466.28V483.8C539.986 485.933 538.92 487 536.786 487H533.026C530.893 487 529.826 485.933 529.826 483.8V433.4C529.826 431.267 530.893 430.2 533.026 430.2H538.786C540.493 430.2 541.773 430.92 542.626 432.36L556.866 455C561.72 462.627 565.24 468.467 567.426 472.52C567.213 467.027 567.106 460.12 567.106 451.8V433.4ZM622.318 487C620.185 487 619.118 485.933 619.118 483.8V439.16H605.438C603.305 439.16 602.238 438.093 602.238 435.96V433.4C602.238 431.267 603.305 430.2 605.438 430.2H643.358C645.491 430.2 646.558 431.267 646.558 433.4V435.96C646.558 438.093 645.491 439.16 643.358 439.16H629.678V483.8C629.678 485.933 628.611 487 626.478 487H622.318ZM671.779 476.52C672.579 475.88 673.325 475.56 674.019 475.56C674.819 475.56 675.565 475.96 676.259 476.76L677.619 478.2C678.312 478.893 678.659 479.613 678.659 480.36C678.659 481.267 678.232 482.067 677.379 482.76C674.979 484.733 672.552 486.147 670.099 487C667.699 487.853 665.059 488.28 662.179 488.28C657.965 488.28 654.312 487.427 651.219 485.72C648.125 484.013 645.752 481.587 644.099 478.44C642.445 475.293 641.619 471.64 641.619 467.48C641.619 463.427 642.392 459.8 643.939 456.6C645.539 453.347 647.832 450.813 650.819 449C653.805 447.187 657.299 446.28 661.299 446.28C667.219 446.28 671.752 448.013 674.899 451.48C678.099 454.947 679.699 459.747 679.699 465.88V466.6C679.645 468.68 678.552 469.72 676.419 469.72H651.139C651.512 472.867 652.632 475.373 654.499 477.24C656.419 479.107 659.032 480.04 662.339 480.04C664.152 480.04 665.752 479.773 667.139 479.24C668.525 478.707 670.072 477.8 671.779 476.52ZM661.059 453.96C658.445 453.96 656.312 454.76 654.659 456.36C653.005 457.907 651.912 460.04 651.379 462.76H670.179C669.965 460.04 669.085 457.907 667.539 456.36C665.992 454.76 663.832 453.96 661.059 453.96ZM705.056 488.28C701.11 488.28 697.616 487.427 694.576 485.72C691.59 484.013 689.243 481.587 687.536 478.44C685.883 475.24 685.056 471.507 685.056 467.24C685.056 462.973 685.91 459.267 687.616 456.12C689.323 452.92 691.696 450.493 694.736 448.84C697.83 447.133 701.35 446.28 705.296 446.28C708.07 446.28 710.576 446.68 712.816 447.48C715.11 448.28 717.323 449.613 719.456 451.48C720.256 452.173 720.656 452.92 720.656 453.72C720.656 454.52 720.256 455.293 719.456 456.04L717.856 457.64C717.163 458.333 716.443 458.68 715.696 458.68C715.003 458.68 714.176 458.333 713.216 457.64C711.723 456.467 710.363 455.667 709.136 455.24C707.963 454.813 706.683 454.6 705.296 454.6C702.043 454.6 699.51 455.8 697.696 458.2C695.883 460.6 694.976 463.613 694.976 467.24C694.976 470.867 695.856 473.907 697.616 476.36C699.43 478.76 701.963 479.96 705.216 479.96C706.816 479.96 708.256 479.667 709.536 479.08C710.87 478.44 712.283 477.4 713.776 475.96C714.576 475.16 715.403 474.76 716.256 474.76C716.95 474.76 717.67 475.08 718.416 475.72L720.016 477.08C720.816 477.72 721.216 478.493 721.216 479.4C721.216 480.307 720.736 481.24 719.776 482.2C717.59 484.44 715.323 486.013 712.976 486.92C710.683 487.827 708.043 488.28 705.056 488.28ZM748.801 446.28C753.281 446.28 756.748 447.533 759.201 450.04C761.655 452.547 762.881 455.853 762.881 459.96V483.8C762.881 485.933 761.815 487 759.681 487H756.321C754.188 487 753.121 485.933 753.121 483.8V462.92C753.121 460.307 752.481 458.28 751.201 456.84C749.921 455.4 748.081 454.68 745.681 454.68C743.335 454.68 741.388 455.48 739.841 457.08C738.295 458.68 737.521 460.707 737.521 463.16V483.8C737.521 485.933 736.455 487 734.321 487H730.961C728.828 487 727.761 485.933 727.761 483.8V433.4C727.761 431.267 728.828 430.2 730.961 430.2H734.321C736.455 430.2 737.521 431.267 737.521 433.4V451.32C738.801 449.72 740.401 448.493 742.321 447.64C744.241 446.733 746.401 446.28 748.801 446.28ZM169.12 607C166.987 607 165.92 605.933 165.92 603.8V553.4C165.92 551.267 166.987 550.2 169.12 550.2H202.24C204.373 550.2 205.44 551.267 205.44 553.4V555.88C205.44 558.013 204.373 559.08 202.24 559.08H176.4V574.68H200.32C202.453 574.68 203.52 575.747 203.52 577.88V580.36C203.52 582.493 202.453 583.56 200.32 583.56H176.4V603.8C176.4 605.933 175.333 607 173.2 607H169.12ZM228.321 566.28C233.814 566.28 238.027 567.56 240.961 570.12C243.894 572.627 245.361 576.013 245.361 580.28V603.8C245.361 605.933 244.294 607 242.161 607H239.761C237.627 607 236.561 605.933 236.561 603.8V602.84C235.334 604.547 233.627 605.88 231.441 606.84C229.307 607.8 226.747 608.28 223.761 608.28C219.654 608.28 216.267 607.373 213.601 605.56C210.987 603.693 209.681 600.867 209.681 597.08C209.681 592.92 211.201 589.827 214.241 587.8C217.334 585.72 221.521 584.2 226.801 583.24L236.081 581.56V580.52C236.081 578.6 235.387 577.107 234.001 576.04C232.614 574.92 230.774 574.36 228.481 574.36C226.454 574.36 224.667 574.707 223.121 575.4C221.627 576.093 220.054 577.187 218.401 578.68C217.547 579.373 216.774 579.72 216.081 579.72C215.387 579.72 214.641 579.373 213.841 578.68L212.321 577.24C211.521 576.44 211.121 575.64 211.121 574.84C211.121 574.093 211.441 573.4 212.081 572.76C214.374 570.573 216.827 568.947 219.441 567.88C222.107 566.813 225.067 566.28 228.321 566.28ZM225.361 600.52C228.294 600.52 230.801 599.747 232.881 598.2C235.014 596.6 236.081 594.2 236.081 591V588.52L229.281 589.88C225.814 590.627 223.254 591.453 221.601 592.36C220.001 593.267 219.201 594.627 219.201 596.44C219.201 597.667 219.734 598.653 220.801 599.4C221.921 600.147 223.441 600.52 225.361 600.52ZM276.084 566.44C279.444 566.44 282.43 567.293 285.044 569C287.71 570.707 289.79 573.133 291.284 576.28C292.777 579.427 293.524 583.08 293.524 587.24C293.524 591.4 292.777 595.08 291.284 598.28C289.79 601.427 287.71 603.853 285.044 605.56C282.377 607.267 279.39 608.12 276.084 608.12C270.484 608.12 266.27 606.04 263.444 601.88V603.8C263.444 605.933 262.377 607 260.244 607H257.524C255.39 607 254.324 605.933 254.324 603.8V553.4C254.324 551.267 255.39 550.2 257.524 550.2H260.884C263.017 550.2 264.084 551.267 264.084 553.4V571.88C266.857 568.253 270.857 566.44 276.084 566.44ZM273.844 599.56C276.777 599.56 279.124 598.467 280.884 596.28C282.697 594.04 283.604 591.027 283.604 587.24C283.604 583.453 282.724 580.44 280.964 578.2C279.257 575.96 276.91 574.84 273.924 574.84C270.937 574.84 268.484 575.96 266.564 578.2C264.697 580.44 263.764 583.453 263.764 587.24C263.764 591.08 264.697 594.093 266.564 596.28C268.484 598.467 270.91 599.56 273.844 599.56ZM319.534 567.08C320.547 567.08 321.64 567.213 322.814 567.48C324.467 567.8 325.294 568.76 325.294 570.36C325.294 570.787 325.267 571.107 325.214 571.32L324.734 573.64C324.414 575.4 323.56 576.28 322.174 576.28C321.907 576.28 321.694 576.253 321.534 576.2C320.574 576.04 319.747 575.96 319.054 575.96C316.387 575.96 314.254 576.973 312.654 579C311.107 581.027 310.334 583.827 310.334 587.4V603.8C310.334 605.933 309.267 607 307.134 607H303.774C301.64 607 300.574 605.933 300.574 603.8V570.76C300.574 568.627 301.64 567.56 303.774 567.56H306.494C308.627 567.56 309.694 568.627 309.694 570.76V573.32C311.827 569.16 315.107 567.08 319.534 567.08ZM335.924 560.84C334.164 560.84 332.671 560.28 331.444 559.16C330.271 557.987 329.684 556.573 329.684 554.92C329.684 553.267 330.271 551.88 331.444 550.76C332.671 549.587 334.164 549 335.924 549C337.684 549 339.151 549.587 340.324 550.76C341.551 551.88 342.164 553.267 342.164 554.92C342.164 556.573 341.551 557.987 340.324 559.16C339.151 560.28 337.684 560.84 335.924 560.84ZM334.164 607C332.031 607 330.964 605.933 330.964 603.8V570.76C330.964 568.627 332.031 567.56 334.164 567.56H337.524C339.658 567.56 340.724 568.627 340.724 570.76V603.8C340.724 605.933 339.658 607 337.524 607H334.164ZM367.713 608.28C363.766 608.28 360.273 607.427 357.233 605.72C354.246 604.013 351.899 601.587 350.193 598.44C348.539 595.24 347.713 591.507 347.713 587.24C347.713 582.973 348.566 579.267 350.273 576.12C351.979 572.92 354.353 570.493 357.393 568.84C360.486 567.133 364.006 566.28 367.953 566.28C370.726 566.28 373.233 566.68 375.473 567.48C377.766 568.28 379.979 569.613 382.113 571.48C382.913 572.173 383.313 572.92 383.313 573.72C383.313 574.52 382.913 575.293 382.113 576.04L380.513 577.64C379.819 578.333 379.099 578.68 378.353 578.68C377.659 578.68 376.833 578.333 375.873 577.64C374.379 576.467 373.019 575.667 371.793 575.24C370.619 574.813 369.339 574.6 367.953 574.6C364.699 574.6 362.166 575.8 360.353 578.2C358.539 580.6 357.633 583.613 357.633 587.24C357.633 590.867 358.513 593.907 360.273 596.36C362.086 598.76 364.619 599.96 367.873 599.96C369.473 599.96 370.913 599.667 372.193 599.08C373.526 598.44 374.939 597.4 376.433 595.96C377.233 595.16 378.059 594.76 378.913 594.76C379.606 594.76 380.326 595.08 381.073 595.72L382.673 597.08C383.473 597.72 383.873 598.493 383.873 599.4C383.873 600.307 383.393 601.24 382.433 602.2C380.246 604.44 377.979 606.013 375.633 606.92C373.339 607.827 370.699 608.28 367.713 608.28ZM412.714 607C410.58 607 409.514 605.933 409.514 603.8V553.4C409.514 551.267 410.58 550.2 412.714 550.2H432.234C437.567 550.2 442.18 551.4 446.074 553.8C449.967 556.2 452.927 559.56 454.954 563.88C456.98 568.147 457.994 573.053 457.994 578.6C457.994 584.147 456.98 589.08 454.954 593.4C452.927 597.667 449.967 601 446.074 603.4C442.18 605.8 437.567 607 432.234 607H412.714ZM430.714 598.12C435.78 598.12 439.78 596.467 442.714 593.16C445.7 589.853 447.194 585 447.194 578.6C447.194 572.2 445.7 567.347 442.714 564.04C439.78 560.733 435.78 559.08 430.714 559.08H419.994V598.12H430.714ZM494.357 596.52C495.157 595.88 495.904 595.56 496.597 595.56C497.397 595.56 498.144 595.96 498.837 596.76L500.197 598.2C500.89 598.893 501.237 599.613 501.237 600.36C501.237 601.267 500.81 602.067 499.957 602.76C497.557 604.733 495.13 606.147 492.677 607C490.277 607.853 487.637 608.28 484.757 608.28C480.544 608.28 476.89 607.427 473.797 605.72C470.704 604.013 468.33 601.587 466.677 598.44C465.024 595.293 464.197 591.64 464.197 587.48C464.197 583.427 464.97 579.8 466.517 576.6C468.117 573.347 470.41 570.813 473.397 569C476.384 567.187 479.877 566.28 483.877 566.28C489.797 566.28 494.33 568.013 497.477 571.48C500.677 574.947 502.277 579.747 502.277 585.88V586.6C502.224 588.68 501.13 589.72 498.997 589.72H473.717C474.09 592.867 475.21 595.373 477.077 597.24C478.997 599.107 481.61 600.04 484.917 600.04C486.73 600.04 488.33 599.773 489.717 599.24C491.104 598.707 492.65 597.8 494.357 596.52ZM483.637 573.96C481.024 573.96 478.89 574.76 477.237 576.36C475.584 577.907 474.49 580.04 473.957 582.76H492.757C492.544 580.04 491.664 577.907 490.117 576.36C488.57 574.76 486.41 573.96 483.637 573.96ZM525.318 608.28C522.011 608.28 519.078 607.88 516.518 607.08C513.958 606.28 511.398 604.867 508.838 602.84C507.931 602.093 507.478 601.32 507.478 600.52C507.478 599.773 507.798 599.053 508.438 598.36L509.878 596.76C510.625 595.96 511.425 595.56 512.278 595.56C512.971 595.56 513.691 595.827 514.438 596.36C516.571 597.907 518.438 598.973 520.038 599.56C521.691 600.093 523.531 600.36 525.558 600.36C527.638 600.36 529.318 599.987 530.598 599.24C531.878 598.493 532.518 597.427 532.518 596.04C532.518 594.973 532.118 594.147 531.318 593.56C530.518 592.92 529.505 592.44 528.278 592.12C527.105 591.747 525.238 591.293 522.678 590.76C518.891 589.96 515.958 589.08 513.878 588.12C511.851 587.107 510.385 585.853 509.478 584.36C508.625 582.867 508.198 580.947 508.198 578.6C508.198 576.307 508.838 574.227 510.118 572.36C511.451 570.493 513.345 569.027 515.798 567.96C518.251 566.84 521.158 566.28 524.518 566.28C527.451 566.28 530.011 566.6 532.198 567.24C534.438 567.827 536.651 568.893 538.838 570.44C539.798 571.08 540.278 571.853 540.278 572.76C540.278 573.453 539.985 574.173 539.398 574.92L538.198 576.44C537.505 577.293 536.705 577.72 535.798 577.72C535.105 577.72 534.385 577.48 533.638 577C531.985 575.933 530.438 575.187 528.998 574.76C527.611 574.333 526.065 574.12 524.358 574.12C522.331 574.12 520.678 574.52 519.398 575.32C518.171 576.067 517.558 577.053 517.558 578.28C517.558 579.133 517.851 579.8 518.438 580.28C519.025 580.76 519.878 581.16 520.998 581.48C522.171 581.8 524.118 582.28 526.838 582.92C530.571 583.72 533.531 584.627 535.718 585.64C537.905 586.653 539.505 587.933 540.518 589.48C541.531 591.027 542.038 593 542.038 595.4C542.038 599.24 540.545 602.36 537.558 604.76C534.571 607.107 530.491 608.28 525.318 608.28ZM553.737 560.84C551.977 560.84 550.484 560.28 549.257 559.16C548.084 557.987 547.497 556.573 547.497 554.92C547.497 553.267 548.084 551.88 549.257 550.76C550.484 549.587 551.977 549 553.737 549C555.497 549 556.964 549.587 558.137 550.76C559.364 551.88 559.977 553.267 559.977 554.92C559.977 556.573 559.364 557.987 558.137 559.16C556.964 560.28 555.497 560.84 553.737 560.84ZM551.977 607C549.844 607 548.777 605.933 548.777 603.8V570.76C548.777 568.627 549.844 567.56 551.977 567.56H555.337C557.47 567.56 558.537 568.627 558.537 570.76V603.8C558.537 605.933 557.47 607 555.337 607H551.977ZM595.125 569.8C595.125 568.307 596.192 567.56 598.325 567.56H600.965C603.098 567.56 604.165 568.627 604.165 570.76V605.16C604.165 610.6 602.378 614.787 598.805 617.72C595.232 620.707 590.618 622.2 584.965 622.2C579.418 622.2 574.138 620.813 569.125 618.04C568.058 617.453 567.525 616.653 567.525 615.64C567.525 614.947 567.738 614.28 568.165 613.64L569.365 611.88C570.058 610.813 570.885 610.28 571.845 610.28C572.432 610.28 573.072 610.467 573.765 610.84C575.845 611.96 577.738 612.76 579.445 613.24C581.152 613.773 582.965 614.04 584.885 614.04C587.818 614.04 590.165 613.24 591.925 611.64C593.685 610.093 594.565 607.64 594.565 604.28V601.08C591.898 604.44 588.058 606.12 583.045 606.12C579.738 606.12 576.752 605.293 574.085 603.64C571.472 601.933 569.418 599.587 567.925 596.6C566.432 593.56 565.685 590.093 565.685 586.2C565.685 582.307 566.432 578.867 567.925 575.88C569.418 572.84 571.472 570.493 574.085 568.84C576.752 567.133 579.738 566.28 583.045 566.28C588.485 566.28 592.512 568.2 595.125 572.04V569.8ZM585.205 597.88C588.032 597.88 590.352 596.813 592.165 594.68C593.978 592.493 594.885 589.667 594.885 586.2C594.885 582.733 593.978 579.96 592.165 577.88C590.352 575.747 588.032 574.68 585.205 574.68C582.272 574.68 579.925 575.747 578.165 577.88C576.405 579.96 575.525 582.733 575.525 586.2C575.525 589.667 576.405 592.493 578.165 594.68C579.925 596.813 582.272 597.88 585.205 597.88ZM634.192 566.28C638.725 566.28 642.192 567.533 644.592 570.04C647.045 572.547 648.272 575.853 648.272 579.96V603.8C648.272 605.933 647.205 607 645.072 607H641.712C639.579 607 638.512 605.933 638.512 603.8V582.92C638.512 580.307 637.872 578.28 636.592 576.84C635.312 575.4 633.472 574.68 631.072 574.68C628.725 574.68 626.779 575.48 625.232 577.08C623.685 578.68 622.912 580.707 622.912 583.16V603.8C622.912 605.933 621.845 607 619.712 607H616.352C614.219 607 613.152 605.933 613.152 603.8V570.76C613.152 568.627 614.219 567.56 616.352 567.56H619.072C621.205 567.56 622.272 568.627 622.272 570.76V572.12C623.552 570.253 625.205 568.813 627.232 567.8C629.259 566.787 631.579 566.28 634.192 566.28ZM696.869 608.36C692.389 608.36 688.415 607.72 684.949 606.44C681.535 605.16 678.015 603.027 674.389 600.04C673.482 599.293 673.029 598.493 673.029 597.64C673.029 596.947 673.349 596.253 673.989 595.56L676.069 593.08C676.762 592.227 677.562 591.8 678.469 591.8C679.215 591.8 679.962 592.093 680.709 592.68C683.802 595.133 686.549 596.84 688.949 597.8C691.349 598.707 694.042 599.16 697.029 599.16C700.495 599.16 703.295 598.44 705.429 597C707.562 595.507 708.629 593.453 708.629 590.84C708.629 589.187 708.149 587.907 707.189 587C706.229 586.04 704.922 585.293 703.269 584.76C701.669 584.227 699.242 583.587 695.989 582.84L693.909 582.36C688.842 581.133 684.922 579.827 682.149 578.44C679.375 577 677.375 575.293 676.149 573.32C674.975 571.293 674.389 568.76 674.389 565.72C674.389 562.52 675.295 559.667 677.109 557.16C678.922 554.6 681.455 552.6 684.709 551.16C687.962 549.667 691.669 548.92 695.829 548.92C699.882 548.92 703.429 549.453 706.469 550.52C709.562 551.533 712.655 553.213 715.749 555.56C716.655 556.253 717.109 557.053 717.109 557.96C717.109 558.76 716.815 559.48 716.229 560.12L714.149 562.6C713.455 563.453 712.709 563.88 711.909 563.88C711.162 563.88 710.389 563.56 709.589 562.92C707.135 561.053 704.869 559.773 702.789 559.08C700.762 558.387 698.389 558.04 695.669 558.04C692.362 558.04 689.722 558.733 687.749 560.12C685.775 561.507 684.789 563.267 684.789 565.4C684.789 566.947 685.269 568.173 686.229 569.08C687.189 569.933 688.575 570.68 690.389 571.32C692.255 571.907 695.109 572.627 698.949 573.48C703.855 574.653 707.722 575.907 710.549 577.24C713.375 578.52 715.482 580.173 716.869 582.2C718.309 584.227 719.029 586.84 719.029 590.04C719.029 593.613 718.122 596.787 716.309 599.56C714.495 602.333 711.909 604.493 708.549 606.04C705.242 607.587 701.349 608.36 696.869 608.36ZM748.793 570.2C749.379 568.44 750.579 567.56 752.393 567.56H755.753C756.606 567.56 757.273 567.773 757.753 568.2C758.286 568.573 758.553 569.133 758.553 569.88C758.553 570.307 758.473 570.76 758.313 571.24L744.313 611.48C743.033 615.267 741.353 617.96 739.273 619.56C737.246 621.213 734.446 622.04 730.872 622.04C729.806 622.04 728.366 621.933 726.553 621.72C725.753 621.667 725.113 621.373 724.633 620.84C724.153 620.36 723.913 619.747 723.913 619C723.913 618.733 723.966 618.387 724.073 617.96L724.313 616.76C724.793 615 725.673 614.12 726.953 614.12C727.433 614.12 727.886 614.147 728.313 614.2C728.739 614.253 729.166 614.28 729.593 614.28C731.086 614.28 732.339 613.907 733.353 613.16C734.419 612.467 735.273 611.16 735.913 609.24V609.16L722.473 571.24C722.313 570.76 722.233 570.333 722.233 569.96C722.233 569.213 722.473 568.627 722.952 568.2C723.486 567.773 724.206 567.56 725.113 567.56H728.633C730.446 567.56 731.646 568.44 732.233 570.2L734.953 578.12C737.459 585.587 739.353 591.507 740.633 595.88L741.913 591.72C743.246 587.187 744.659 582.653 746.153 578.12L748.793 570.2ZM780.943 608.28C777.636 608.28 774.703 607.88 772.143 607.08C769.583 606.28 767.023 604.867 764.463 602.84C763.556 602.093 763.103 601.32 763.103 600.52C763.103 599.773 763.423 599.053 764.063 598.36L765.503 596.76C766.25 595.96 767.05 595.56 767.903 595.56C768.596 595.56 769.316 595.827 770.063 596.36C772.196 597.907 774.063 598.973 775.663 599.56C777.316 600.093 779.156 600.36 781.183 600.36C783.263 600.36 784.943 599.987 786.223 599.24C787.503 598.493 788.143 597.427 788.143 596.04C788.143 594.973 787.743 594.147 786.943 593.56C786.143 592.92 785.13 592.44 783.903 592.12C782.73 591.747 780.863 591.293 778.303 590.76C774.516 589.96 771.583 589.08 769.503 588.12C767.476 587.107 766.01 585.853 765.103 584.36C764.25 582.867 763.823 580.947 763.823 578.6C763.823 576.307 764.463 574.227 765.743 572.36C767.076 570.493 768.97 569.027 771.423 567.96C773.876 566.84 776.783 566.28 780.143 566.28C783.076 566.28 785.636 566.6 787.823 567.24C790.063 567.827 792.276 568.893 794.463 570.44C795.423 571.08 795.903 571.853 795.903 572.76C795.903 573.453 795.61 574.173 795.023 574.92L793.823 576.44C793.13 577.293 792.33 577.72 791.423 577.72C790.73 577.72 790.01 577.48 789.263 577C787.61 575.933 786.063 575.187 784.623 574.76C783.236 574.333 781.69 574.12 779.983 574.12C777.956 574.12 776.303 574.52 775.023 575.32C773.796 576.067 773.183 577.053 773.183 578.28C773.183 579.133 773.476 579.8 774.063 580.28C774.65 580.76 775.503 581.16 776.623 581.48C777.796 581.8 779.743 582.28 782.463 582.92C786.196 583.72 789.156 584.627 791.343 585.64C793.53 586.653 795.13 587.933 796.143 589.48C797.156 591.027 797.663 593 797.663 595.4C797.663 599.24 796.17 602.36 793.183 604.76C790.196 607.107 786.116 608.28 780.943 608.28ZM824.326 599.24C826.032 598.92 827.046 599.827 827.366 601.96L827.606 603.48C827.872 605.507 827.046 606.76 825.126 607.24C823.259 607.72 821.312 607.96 819.286 607.96C815.392 607.96 812.539 607.053 810.726 605.24C808.966 603.373 808.086 600.6 808.086 596.92V575H804.246C802.112 575 801.046 573.933 801.046 571.8V570.76C801.046 568.627 802.112 567.56 804.246 567.56H808.086V558.44C808.086 556.307 809.152 555.24 811.286 555.24H814.646C816.779 555.24 817.846 556.307 817.846 558.44V567.56H824.166C826.299 567.56 827.366 568.627 827.366 570.76V571.8C827.366 573.933 826.299 575 824.166 575H817.846V595.72C817.846 597.107 818.166 598.093 818.806 598.68C819.446 599.213 820.459 599.48 821.846 599.48C822.486 599.48 823.312 599.4 824.326 599.24ZM860.919 596.52C861.719 595.88 862.466 595.56 863.159 595.56C863.959 595.56 864.706 595.96 865.399 596.76L866.759 598.2C867.453 598.893 867.799 599.613 867.799 600.36C867.799 601.267 867.373 602.067 866.519 602.76C864.119 604.733 861.693 606.147 859.239 607C856.839 607.853 854.199 608.28 851.319 608.28C847.106 608.28 843.453 607.427 840.359 605.72C837.266 604.013 834.893 601.587 833.239 598.44C831.586 595.293 830.759 591.64 830.759 587.48C830.759 583.427 831.533 579.8 833.079 576.6C834.679 573.347 836.973 570.813 839.959 569C842.946 567.187 846.439 566.28 850.439 566.28C856.359 566.28 860.893 568.013 864.039 571.48C867.239 574.947 868.839 579.747 868.839 585.88V586.6C868.786 588.68 867.693 589.72 865.559 589.72H840.279C840.653 592.867 841.773 595.373 843.639 597.24C845.559 599.107 848.173 600.04 851.479 600.04C853.293 600.04 854.893 599.773 856.279 599.24C857.666 598.707 859.213 597.8 860.919 596.52ZM850.199 573.96C847.586 573.96 845.453 574.76 843.799 576.36C842.146 577.907 841.053 580.04 840.519 582.76H859.319C859.106 580.04 858.226 577.907 856.679 576.36C855.133 574.76 852.973 573.96 850.199 573.96ZM919.243 566.28C923.456 566.28 926.683 567.48 928.923 569.88C931.216 572.227 932.363 575.427 932.363 579.48V603.8C932.363 605.933 931.296 607 929.163 607H925.803C923.669 607 922.603 605.933 922.603 603.8V582.44C922.603 580.04 922.096 578.147 921.083 576.76C920.069 575.373 918.443 574.68 916.203 574.68C913.963 574.68 912.229 575.427 911.003 576.92C909.776 578.413 909.163 580.36 909.163 582.76V603.8C909.163 605.933 908.096 607 905.963 607H902.603C900.469 607 899.403 605.933 899.403 603.8V582.44C899.403 580.04 898.896 578.147 897.883 576.76C896.869 575.373 895.243 574.68 893.003 574.68C890.763 574.68 889.003 575.427 887.723 576.92C886.496 578.413 885.856 580.333 885.803 582.68V603.8C885.803 605.933 884.736 607 882.603 607H879.243C877.109 607 876.043 605.933 876.043 603.8V570.76C876.043 568.627 877.109 567.56 879.243 567.56H881.963C884.096 567.56 885.163 568.627 885.163 570.76V572.04C887.616 568.2 891.376 566.28 896.443 566.28C899.003 566.28 901.216 566.787 903.083 567.8C904.949 568.813 906.389 570.253 907.403 572.12C910.069 568.227 914.016 566.28 919.243 566.28ZM190.72 728.36C185.067 728.36 180.133 727.08 175.92 724.52C171.707 721.907 168.453 718.36 166.16 713.88C163.92 709.347 162.8 704.253 162.8 698.6C162.8 692.947 163.92 687.88 166.16 683.4C168.453 678.867 171.707 675.32 175.92 672.76C180.133 670.147 185.067 668.84 190.72 668.84C196.373 668.84 201.28 670.147 205.44 672.76C209.653 675.32 212.88 678.867 215.12 683.4C217.413 687.88 218.56 692.947 218.56 698.6C218.56 704.253 217.413 709.347 215.12 713.88C212.88 718.36 209.653 721.907 205.44 724.52C201.28 727.08 196.373 728.36 190.72 728.36ZM190.72 719.08C194.133 719.08 197.12 718.253 199.68 716.6C202.24 714.893 204.213 712.493 205.6 709.4C207.04 706.307 207.76 702.707 207.76 698.6C207.76 694.547 207.04 690.973 205.6 687.88C204.213 684.787 202.24 682.387 199.68 680.68C197.12 678.973 194.133 678.12 190.72 678.12C187.307 678.12 184.293 678.973 181.68 680.68C179.12 682.387 177.12 684.787 175.68 687.88C174.293 690.973 173.6 694.547 173.6 698.6C173.6 702.707 174.293 706.307 175.68 709.4C177.12 712.493 179.12 714.893 181.68 716.6C184.293 718.253 187.307 719.08 190.72 719.08ZM250.528 690.76C250.528 688.627 251.595 687.56 253.728 687.56H257.088C259.221 687.56 260.288 688.627 260.288 690.76V723.8C260.288 725.933 259.221 727 257.088 727H254.608C252.475 727 251.408 725.933 251.408 723.8V722.68C250.341 724.44 248.821 725.827 246.848 726.84C244.928 727.8 242.555 728.28 239.728 728.28C235.035 728.28 231.541 727.133 229.248 724.84C226.955 722.547 225.808 719.507 225.808 715.72V690.76C225.808 688.627 226.875 687.56 229.008 687.56H232.368C234.501 687.56 235.568 688.627 235.568 690.76V713C235.568 715.133 236.128 716.813 237.248 718.04C238.368 719.213 240.048 719.8 242.288 719.8C244.848 719.8 246.848 719.08 248.288 717.64C249.781 716.2 250.528 714.12 250.528 711.4V690.76ZM288.284 687.08C289.297 687.08 290.39 687.213 291.564 687.48C293.217 687.8 294.044 688.76 294.044 690.36C294.044 690.787 294.017 691.107 293.964 691.32L293.484 693.64C293.164 695.4 292.31 696.28 290.924 696.28C290.657 696.28 290.444 696.253 290.284 696.2C289.324 696.04 288.497 695.96 287.804 695.96C285.137 695.96 283.004 696.973 281.404 699C279.857 701.027 279.084 703.827 279.084 707.4V723.8C279.084 725.933 278.017 727 275.884 727H272.524C270.39 727 269.324 725.933 269.324 723.8V690.76C269.324 688.627 270.39 687.56 272.524 687.56H275.244C277.377 687.56 278.444 688.627 278.444 690.76V693.32C280.577 689.16 283.857 687.08 288.284 687.08ZM344.811 673.32C344.811 671.187 345.877 670.12 348.011 670.12H351.371C353.504 670.12 354.571 671.187 354.571 673.32V723.8C354.571 725.933 353.504 727 351.371 727H348.731C346.597 727 345.531 725.933 345.531 723.8V721.8C342.704 726.067 338.464 728.2 332.811 728.2C329.504 728.2 326.517 727.347 323.851 725.64C321.237 723.933 319.184 721.507 317.691 718.36C316.197 715.16 315.451 711.48 315.451 707.32C315.451 703.16 316.197 699.507 317.691 696.36C319.237 693.213 321.344 690.787 324.011 689.08C326.677 687.373 329.664 686.52 332.971 686.52C338.091 686.52 342.037 688.253 344.811 691.72V673.32ZM335.051 719.8C338.037 719.8 340.464 718.68 342.331 716.44C344.251 714.2 345.211 711.16 345.211 707.32C345.211 703.48 344.251 700.467 342.331 698.28C340.464 696.093 338.064 695 335.131 695C332.197 695 329.824 696.12 328.011 698.36C326.251 700.547 325.371 703.533 325.371 707.32C325.371 711.16 326.224 714.2 327.931 716.44C329.691 718.68 332.064 719.8 335.051 719.8ZM391.701 716.52C392.501 715.88 393.247 715.56 393.941 715.56C394.741 715.56 395.487 715.96 396.181 716.76L397.541 718.2C398.234 718.893 398.581 719.613 398.581 720.36C398.581 721.267 398.154 722.067 397.301 722.76C394.901 724.733 392.474 726.147 390.021 727C387.621 727.853 384.981 728.28 382.101 728.28C377.887 728.28 374.234 727.427 371.141 725.72C368.047 724.013 365.674 721.587 364.021 718.44C362.367 715.293 361.541 711.64 361.541 707.48C361.541 703.427 362.314 699.8 363.861 696.6C365.461 693.347 367.754 690.813 370.741 689C373.727 687.187 377.221 686.28 381.221 686.28C387.141 686.28 391.674 688.013 394.821 691.48C398.021 694.947 399.621 699.747 399.621 705.88V706.6C399.567 708.68 398.474 709.72 396.341 709.72H371.061C371.434 712.867 372.554 715.373 374.421 717.24C376.341 719.107 378.954 720.04 382.261 720.04C384.074 720.04 385.674 719.773 387.061 719.24C388.447 718.707 389.994 717.8 391.701 716.52ZM380.981 693.96C378.367 693.96 376.234 694.76 374.581 696.36C372.927 697.907 371.834 700.04 371.301 702.76H390.101C389.887 700.04 389.007 697.907 387.461 696.36C385.914 694.76 383.754 693.96 380.981 693.96ZM422.662 728.28C419.355 728.28 416.422 727.88 413.862 727.08C411.302 726.28 408.742 724.867 406.182 722.84C405.275 722.093 404.822 721.32 404.822 720.52C404.822 719.773 405.142 719.053 405.782 718.36L407.222 716.76C407.969 715.96 408.769 715.56 409.622 715.56C410.315 715.56 411.035 715.827 411.782 716.36C413.915 717.907 415.782 718.973 417.382 719.56C419.035 720.093 420.875 720.36 422.902 720.36C424.982 720.36 426.662 719.987 427.942 719.24C429.222 718.493 429.862 717.427 429.862 716.04C429.862 714.973 429.462 714.147 428.662 713.56C427.862 712.92 426.849 712.44 425.622 712.12C424.449 711.747 422.582 711.293 420.022 710.76C416.235 709.96 413.302 709.08 411.222 708.12C409.195 707.107 407.729 705.853 406.822 704.36C405.969 702.867 405.542 700.947 405.542 698.6C405.542 696.307 406.182 694.227 407.462 692.36C408.795 690.493 410.689 689.027 413.142 687.96C415.595 686.84 418.502 686.28 421.862 686.28C424.795 686.28 427.355 686.6 429.542 687.24C431.782 687.827 433.995 688.893 436.182 690.44C437.142 691.08 437.622 691.853 437.622 692.76C437.622 693.453 437.329 694.173 436.742 694.92L435.542 696.44C434.849 697.293 434.049 697.72 433.142 697.72C432.449 697.72 431.729 697.48 430.982 697C429.329 695.933 427.782 695.187 426.342 694.76C424.955 694.333 423.409 694.12 421.702 694.12C419.675 694.12 418.022 694.52 416.742 695.32C415.515 696.067 414.902 697.053 414.902 698.28C414.902 699.133 415.195 699.8 415.782 700.28C416.369 700.76 417.222 701.16 418.342 701.48C419.515 701.8 421.462 702.28 424.182 702.92C427.915 703.72 430.875 704.627 433.062 705.64C435.249 706.653 436.849 707.933 437.862 709.48C438.875 711.027 439.382 713 439.382 715.4C439.382 719.24 437.889 722.36 434.902 724.76C431.915 727.107 427.835 728.28 422.662 728.28ZM451.081 680.84C449.321 680.84 447.827 680.28 446.601 679.16C445.427 677.987 444.841 676.573 444.841 674.92C444.841 673.267 445.427 671.88 446.601 670.76C447.827 669.587 449.321 669 451.081 669C452.841 669 454.307 669.587 455.481 670.76C456.707 671.88 457.321 673.267 457.321 674.92C457.321 676.573 456.707 677.987 455.481 679.16C454.307 680.28 452.841 680.84 451.081 680.84ZM449.321 727C447.187 727 446.121 725.933 446.121 723.8V690.76C446.121 688.627 447.187 687.56 449.321 687.56H452.681C454.814 687.56 455.881 688.627 455.881 690.76V723.8C455.881 725.933 454.814 727 452.681 727H449.321ZM492.469 689.8C492.469 688.307 493.535 687.56 495.669 687.56H498.309C500.442 687.56 501.509 688.627 501.509 690.76V725.16C501.509 730.6 499.722 734.787 496.149 737.72C492.575 740.707 487.962 742.2 482.309 742.2C476.762 742.2 471.482 740.813 466.469 738.04C465.402 737.453 464.869 736.653 464.869 735.64C464.869 734.947 465.082 734.28 465.509 733.64L466.709 731.88C467.402 730.813 468.229 730.28 469.189 730.28C469.775 730.28 470.415 730.467 471.109 730.84C473.189 731.96 475.082 732.76 476.789 733.24C478.495 733.773 480.309 734.04 482.229 734.04C485.162 734.04 487.509 733.24 489.269 731.64C491.029 730.093 491.909 727.64 491.909 724.28V721.08C489.242 724.44 485.402 726.12 480.389 726.12C477.082 726.12 474.095 725.293 471.429 723.64C468.815 721.933 466.762 719.587 465.269 716.6C463.775 713.56 463.029 710.093 463.029 706.2C463.029 702.307 463.775 698.867 465.269 695.88C466.762 692.84 468.815 690.493 471.429 688.84C474.095 687.133 477.082 686.28 480.389 686.28C485.829 686.28 489.855 688.2 492.469 692.04V689.8ZM482.549 717.88C485.375 717.88 487.695 716.813 489.509 714.68C491.322 712.493 492.229 709.667 492.229 706.2C492.229 702.733 491.322 699.96 489.509 697.88C487.695 695.747 485.375 694.68 482.549 694.68C479.615 694.68 477.269 695.747 475.509 697.88C473.749 699.96 472.869 702.733 472.869 706.2C472.869 709.667 473.749 712.493 475.509 714.68C477.269 716.813 479.615 717.88 482.549 717.88ZM531.536 686.28C536.069 686.28 539.536 687.533 541.936 690.04C544.389 692.547 545.616 695.853 545.616 699.96V723.8C545.616 725.933 544.549 727 542.416 727H539.056C536.922 727 535.856 725.933 535.856 723.8V702.92C535.856 700.307 535.216 698.28 533.936 696.84C532.656 695.4 530.816 694.68 528.416 694.68C526.069 694.68 524.122 695.48 522.576 697.08C521.029 698.68 520.256 700.707 520.256 703.16V723.8C520.256 725.933 519.189 727 517.056 727H513.696C511.562 727 510.496 725.933 510.496 723.8V690.76C510.496 688.627 511.562 687.56 513.696 687.56H516.416C518.549 687.56 519.616 688.627 519.616 690.76V692.12C520.896 690.253 522.549 688.813 524.576 687.8C526.602 686.787 528.922 686.28 531.536 686.28ZM594.053 686.44C597.413 686.44 600.399 687.293 603.013 689C605.679 690.707 607.759 693.133 609.253 696.28C610.746 699.427 611.493 703.08 611.493 707.24C611.493 711.4 610.746 715.08 609.253 718.28C607.759 721.427 605.679 723.853 603.013 725.56C600.346 727.267 597.359 728.12 594.053 728.12C588.773 728.12 584.773 726.333 582.053 722.76V737.72C582.053 739.853 580.986 740.92 578.853 740.92H575.493C573.359 740.92 572.293 739.853 572.293 737.72V690.76C572.293 688.627 573.359 687.56 575.493 687.56H578.213C580.346 687.56 581.413 688.627 581.413 690.76V692.84C584.239 688.573 588.453 686.44 594.053 686.44ZM591.813 719.56C594.746 719.56 597.093 718.467 598.853 716.28C600.666 714.04 601.573 711.027 601.573 707.24C601.573 703.453 600.693 700.44 598.933 698.2C597.226 695.96 594.879 694.84 591.893 694.84C588.906 694.84 586.453 695.96 584.533 698.2C582.666 700.387 581.733 703.4 581.733 707.24C581.733 711.08 582.666 714.093 584.533 716.28C586.453 718.467 588.879 719.56 591.813 719.56ZM637.503 687.08C638.516 687.08 639.609 687.213 640.783 687.48C642.436 687.8 643.263 688.76 643.263 690.36C643.263 690.787 643.236 691.107 643.183 691.32L642.703 693.64C642.383 695.4 641.529 696.28 640.143 696.28C639.876 696.28 639.663 696.253 639.503 696.2C638.543 696.04 637.716 695.96 637.023 695.96C634.356 695.96 632.223 696.973 630.623 699C629.076 701.027 628.303 703.827 628.303 707.4V723.8C628.303 725.933 627.236 727 625.103 727H621.743C619.609 727 618.543 725.933 618.543 723.8V690.76C618.543 688.627 619.609 687.56 621.743 687.56H624.463C626.596 687.56 627.663 688.627 627.663 690.76V693.32C629.796 689.16 633.076 687.08 637.503 687.08ZM665.534 728.28C661.588 728.28 658.068 727.4 654.974 725.64C651.881 723.88 649.454 721.4 647.694 718.2C645.988 715 645.134 711.347 645.134 707.24C645.134 703.133 645.988 699.507 647.694 696.36C649.454 693.16 651.881 690.68 654.974 688.92C658.068 687.16 661.588 686.28 665.534 686.28C669.481 686.28 673.001 687.16 676.094 688.92C679.188 690.68 681.588 693.16 683.294 696.36C685.054 699.507 685.934 703.133 685.934 707.24C685.934 711.347 685.054 715 683.294 718.2C681.588 721.4 679.188 723.88 676.094 725.64C673.001 727.4 669.481 728.28 665.534 728.28ZM665.534 720.04C668.681 720.04 671.214 718.893 673.134 716.6C675.054 714.253 676.014 711.133 676.014 707.24C676.014 703.453 675.054 700.413 673.134 698.12C671.214 695.773 668.681 694.6 665.534 694.6C662.388 694.6 659.854 695.773 657.934 698.12C656.014 700.413 655.054 703.453 655.054 707.24C655.054 711.133 656.014 714.253 657.934 716.6C659.854 718.893 662.388 720.04 665.534 720.04ZM711.15 728.28C707.203 728.28 703.71 727.427 700.67 725.72C697.683 724.013 695.337 721.587 693.63 718.44C691.977 715.24 691.15 711.507 691.15 707.24C691.15 702.973 692.003 699.267 693.71 696.12C695.417 692.92 697.79 690.493 700.83 688.84C703.923 687.133 707.443 686.28 711.39 686.28C714.163 686.28 716.67 686.68 718.91 687.48C721.203 688.28 723.417 689.613 725.55 691.48C726.35 692.173 726.75 692.92 726.75 693.72C726.75 694.52 726.35 695.293 725.55 696.04L723.95 697.64C723.257 698.333 722.537 698.68 721.79 698.68C721.097 698.68 720.27 698.333 719.31 697.64C717.817 696.467 716.457 695.667 715.23 695.24C714.057 694.813 712.777 694.6 711.39 694.6C708.137 694.6 705.603 695.8 703.79 698.2C701.977 700.6 701.07 703.613 701.07 707.24C701.07 710.867 701.95 713.907 703.71 716.36C705.523 718.76 708.057 719.96 711.31 719.96C712.91 719.96 714.35 719.667 715.63 719.08C716.963 718.44 718.377 717.4 719.87 715.96C720.67 715.16 721.497 714.76 722.35 714.76C723.043 714.76 723.763 715.08 724.51 715.72L726.11 717.08C726.91 717.72 727.31 718.493 727.31 719.4C727.31 720.307 726.83 721.24 725.87 722.2C723.683 724.44 721.417 726.013 719.07 726.92C716.777 727.827 714.137 728.28 711.15 728.28ZM761.076 716.52C761.876 715.88 762.622 715.56 763.316 715.56C764.116 715.56 764.862 715.96 765.556 716.76L766.916 718.2C767.609 718.893 767.956 719.613 767.956 720.36C767.956 721.267 767.529 722.067 766.676 722.76C764.276 724.733 761.849 726.147 759.396 727C756.996 727.853 754.356 728.28 751.476 728.28C747.262 728.28 743.609 727.427 740.516 725.72C737.422 724.013 735.049 721.587 733.396 718.44C731.742 715.293 730.916 711.64 730.916 707.48C730.916 703.427 731.689 699.8 733.236 696.6C734.836 693.347 737.129 690.813 740.116 689C743.102 687.187 746.596 686.28 750.596 686.28C756.516 686.28 761.049 688.013 764.196 691.48C767.396 694.947 768.996 699.747 768.996 705.88V706.6C768.942 708.68 767.849 709.72 765.716 709.72H740.436C740.809 712.867 741.929 715.373 743.796 717.24C745.716 719.107 748.329 720.04 751.636 720.04C753.449 720.04 755.049 719.773 756.436 719.24C757.822 718.707 759.369 717.8 761.076 716.52ZM750.356 693.96C747.742 693.96 745.609 694.76 743.956 696.36C742.302 697.907 741.209 700.04 740.676 702.76H759.476C759.262 700.04 758.382 697.907 756.836 696.36C755.289 694.76 753.129 693.96 750.356 693.96ZM792.037 728.28C788.73 728.28 785.797 727.88 783.237 727.08C780.677 726.28 778.117 724.867 775.557 722.84C774.65 722.093 774.197 721.32 774.197 720.52C774.197 719.773 774.517 719.053 775.157 718.36L776.597 716.76C777.344 715.96 778.144 715.56 778.997 715.56C779.69 715.56 780.41 715.827 781.157 716.36C783.29 717.907 785.157 718.973 786.757 719.56C788.41 720.093 790.25 720.36 792.277 720.36C794.357 720.36 796.037 719.987 797.317 719.24C798.597 718.493 799.237 717.427 799.237 716.04C799.237 714.973 798.837 714.147 798.037 713.56C797.237 712.92 796.224 712.44 794.997 712.12C793.824 711.747 791.957 711.293 789.397 710.76C785.61 709.96 782.677 709.08 780.597 708.12C778.57 707.107 777.104 705.853 776.197 704.36C775.344 702.867 774.917 700.947 774.917 698.6C774.917 696.307 775.557 694.227 776.837 692.36C778.17 690.493 780.064 689.027 782.517 687.96C784.97 686.84 787.877 686.28 791.237 686.28C794.17 686.28 796.73 686.6 798.917 687.24C801.157 687.827 803.37 688.893 805.557 690.44C806.517 691.08 806.997 691.853 806.997 692.76C806.997 693.453 806.704 694.173 806.117 694.92L804.917 696.44C804.224 697.293 803.424 697.72 802.517 697.72C801.824 697.72 801.104 697.48 800.357 697C798.704 695.933 797.157 695.187 795.717 694.76C794.33 694.333 792.784 694.12 791.077 694.12C789.05 694.12 787.397 694.52 786.117 695.32C784.89 696.067 784.277 697.053 784.277 698.28C784.277 699.133 784.57 699.8 785.157 700.28C785.744 700.76 786.597 701.16 787.717 701.48C788.89 701.8 790.837 702.28 793.557 702.92C797.29 703.72 800.25 704.627 802.437 705.64C804.624 706.653 806.224 707.933 807.237 709.48C808.25 711.027 808.757 713 808.757 715.4C808.757 719.24 807.264 722.36 804.277 724.76C801.29 727.107 797.21 728.28 792.037 728.28ZM831.256 728.28C827.949 728.28 825.016 727.88 822.456 727.08C819.896 726.28 817.336 724.867 814.776 722.84C813.869 722.093 813.416 721.32 813.416 720.52C813.416 719.773 813.736 719.053 814.376 718.36L815.816 716.76C816.562 715.96 817.362 715.56 818.216 715.56C818.909 715.56 819.629 715.827 820.376 716.36C822.509 717.907 824.376 718.973 825.976 719.56C827.629 720.093 829.469 720.36 831.496 720.36C833.576 720.36 835.256 719.987 836.536 719.24C837.816 718.493 838.456 717.427 838.456 716.04C838.456 714.973 838.056 714.147 837.256 713.56C836.456 712.92 835.442 712.44 834.216 712.12C833.042 711.747 831.176 711.293 828.616 710.76C824.829 709.96 821.896 709.08 819.816 708.12C817.789 707.107 816.322 705.853 815.416 704.36C814.562 702.867 814.136 700.947 814.136 698.6C814.136 696.307 814.776 694.227 816.056 692.36C817.389 690.493 819.282 689.027 821.736 687.96C824.189 686.84 827.096 686.28 830.456 686.28C833.389 686.28 835.949 686.6 838.136 687.24C840.376 687.827 842.589 688.893 844.776 690.44C845.736 691.08 846.216 691.853 846.216 692.76C846.216 693.453 845.922 694.173 845.336 694.92L844.136 696.44C843.442 697.293 842.642 697.72 841.736 697.72C841.042 697.72 840.322 697.48 839.576 697C837.922 695.933 836.376 695.187 834.936 694.76C833.549 694.333 832.002 694.12 830.296 694.12C828.269 694.12 826.616 694.52 825.336 695.32C824.109 696.067 823.496 697.053 823.496 698.28C823.496 699.133 823.789 699.8 824.376 700.28C824.962 700.76 825.816 701.16 826.936 701.48C828.109 701.8 830.056 702.28 832.776 702.92C836.509 703.72 839.469 704.627 841.656 705.64C843.842 706.653 845.442 707.933 846.456 709.48C847.469 711.027 847.976 713 847.976 715.4C847.976 719.24 846.482 722.36 843.496 724.76C840.509 727.107 836.429 728.28 831.256 728.28ZM205.84 809.96C205.413 811.827 204.24 812.76 202.32 812.76H198.4L195.44 826.68H198.72C200.64 826.68 201.6 827.507 201.6 829.16C201.6 829.64 201.573 829.987 201.52 830.2V830.36C201.093 832.227 199.92 833.16 198 833.16H194.08L191.76 844.2C191.333 846.067 190.16 847 188.24 847H187.36C185.387 847 184.4 846.147 184.4 844.44C184.4 844.013 184.427 843.693 184.48 843.48L186.72 833.16H175.92L173.6 844.2C173.173 846.067 172 847 170.08 847H169.2C167.227 847 166.24 846.147 166.24 844.44C166.24 844.013 166.267 843.693 166.32 843.48L168.56 833.16H165.04C163.12 833.16 162.16 832.333 162.16 830.68C162.16 830.2 162.187 829.853 162.24 829.64V829.48C162.667 827.613 163.84 826.68 165.76 826.68H169.92L172.88 812.76H169.36C167.44 812.76 166.48 811.933 166.48 810.28C166.48 809.8 166.507 809.453 166.56 809.24L166.64 809.08C167.12 807.213 168.293 806.28 170.16 806.28H174.24L176.56 795.4C176.987 793.533 178.133 792.6 180 792.6H180.88C182.853 792.6 183.84 793.453 183.84 795.16C183.84 795.587 183.813 795.907 183.76 796.12L181.6 806.28H192.4L194.72 795.4C195.147 793.533 196.293 792.6 198.16 792.6H199.04C201.013 792.6 202 793.453 202 795.16C202 795.587 201.973 795.907 201.92 796.12L199.76 806.28H203.04C204.96 806.28 205.92 807.133 205.92 808.84C205.92 809.267 205.893 809.587 205.84 809.8V809.96ZM191.04 812.76H180.24L177.28 826.68H188.08L191.04 812.76ZM271.268 793C271.694 791.133 272.868 790.2 274.788 790.2H278.628C279.534 790.2 280.254 790.44 280.788 790.92C281.321 791.347 281.588 791.933 281.588 792.68C281.588 792.84 281.534 793.187 281.428 793.72L269.188 844.2C268.708 846.067 267.534 847 265.668 847H259.268C257.348 847 256.148 846.093 255.668 844.28L250.548 824.28C248.788 817.613 247.214 810.973 245.828 804.36C244.334 811.4 242.761 818.04 241.108 824.28L235.988 844.28C235.561 846.093 234.361 847 232.388 847H225.988C224.121 847 222.948 846.067 222.468 844.2L210.148 793.72C210.041 793.187 209.988 792.84 209.988 792.68C209.988 791.933 210.254 791.347 210.788 790.92C211.321 790.44 212.041 790.2 212.948 790.2H217.028C218.948 790.2 220.121 791.133 220.548 793L225.748 815.24C227.028 820.68 228.361 827.107 229.748 834.52C231.348 826.893 232.868 820.467 234.308 815.24L240.228 792.92C240.708 791.107 241.881 790.2 243.748 790.2H248.388C249.348 790.2 250.121 790.413 250.708 790.84C251.294 791.267 251.694 791.96 251.908 792.92L257.668 815.24C259.108 820.52 260.628 827.027 262.228 834.76C262.441 833.48 262.628 832.52 262.788 831.88C263.908 825.32 265.028 819.773 266.148 815.24L271.268 793ZM294.055 847C291.922 847 290.855 845.933 290.855 843.8V793.4C290.855 791.267 291.922 790.2 294.055 790.2H298.135C300.268 790.2 301.335 791.267 301.335 793.4V843.8C301.335 845.933 300.268 847 298.135 847H294.055ZM316.933 847C314.799 847 313.733 845.933 313.733 843.8V793.4C313.733 791.267 314.799 790.2 316.933 790.2H340.533C344.266 790.2 347.546 790.947 350.373 792.44C353.199 793.88 355.359 795.933 356.853 798.6C358.399 801.267 359.173 804.387 359.173 807.96C359.173 813.347 357.493 817.64 354.133 820.84C350.773 824.04 346.239 825.64 340.533 825.64H324.213V843.8C324.213 845.933 323.146 847 321.013 847H316.933ZM338.693 816.92C341.839 816.92 344.293 816.147 346.053 814.6C347.866 813.053 348.773 810.84 348.773 807.96C348.773 805.027 347.866 802.787 346.053 801.24C344.293 799.693 341.839 798.92 338.693 798.92H324.213V816.92H338.693ZM402.253 797.08C400.546 797.08 399.293 797.48 398.493 798.28C397.746 799.08 397.373 800.413 397.373 802.28V807.56H402.973C405.106 807.56 406.173 808.627 406.173 810.76V811.8C406.173 813.933 405.106 815 402.973 815H397.373V843.8C397.373 845.933 396.306 847 394.173 847H390.813C388.68 847 387.613 845.933 387.613 843.8V815H383.933C381.8 815 380.733 813.933 380.733 811.8V810.76C380.733 808.627 381.8 807.56 383.933 807.56H387.613V801.8C387.613 797.587 388.706 794.413 390.893 792.28C393.08 790.093 396.226 789 400.333 789C402.36 789 404.12 789.187 405.613 789.56C406.413 789.72 407.026 790.04 407.453 790.52C407.88 791 408.093 791.613 408.093 792.36C408.093 792.52 408.04 792.867 407.933 793.4L407.613 794.68C407.24 796.493 405.8 797.32 403.293 797.16C403.026 797.107 402.68 797.08 402.253 797.08ZM429.05 848.28C425.103 848.28 421.583 847.4 418.49 845.64C415.397 843.88 412.97 841.4 411.21 838.2C409.503 835 408.65 831.347 408.65 827.24C408.65 823.133 409.503 819.507 411.21 816.36C412.97 813.16 415.397 810.68 418.49 808.92C421.583 807.16 425.103 806.28 429.05 806.28C432.997 806.28 436.517 807.16 439.61 808.92C442.703 810.68 445.103 813.16 446.81 816.36C448.57 819.507 449.45 823.133 449.45 827.24C449.45 831.347 448.57 835 446.81 838.2C445.103 841.4 442.703 843.88 439.61 845.64C436.517 847.4 432.997 848.28 429.05 848.28ZM429.05 840.04C432.197 840.04 434.73 838.893 436.65 836.6C438.57 834.253 439.53 831.133 439.53 827.24C439.53 823.453 438.57 820.413 436.65 818.12C434.73 815.773 432.197 814.6 429.05 814.6C425.903 814.6 423.37 815.773 421.45 818.12C419.53 820.413 418.57 823.453 418.57 827.24C418.57 831.133 419.53 834.253 421.45 836.6C423.37 838.893 425.903 840.04 429.05 840.04ZM475.237 807.08C476.25 807.08 477.344 807.213 478.517 807.48C480.17 807.8 480.997 808.76 480.997 810.36C480.997 810.787 480.97 811.107 480.917 811.32L480.437 813.64C480.117 815.4 479.264 816.28 477.877 816.28C477.61 816.28 477.397 816.253 477.237 816.2C476.277 816.04 475.45 815.96 474.757 815.96C472.09 815.96 469.957 816.973 468.357 819C466.81 821.027 466.037 823.827 466.037 827.4V843.8C466.037 845.933 464.97 847 462.837 847H459.477C457.344 847 456.277 845.933 456.277 843.8V810.76C456.277 808.627 457.344 807.56 459.477 807.56H462.197C464.33 807.56 465.397 808.627 465.397 810.76V813.32C467.53 809.16 470.81 807.08 475.237 807.08ZM507.924 847C505.79 847 504.724 845.933 504.724 843.8V793.4C504.724 791.267 505.79 790.2 507.924 790.2H511.284C513.417 790.2 514.484 791.267 514.484 793.4V843.8C514.484 845.933 513.417 847 511.284 847H507.924ZM528.815 800.84C527.055 800.84 525.562 800.28 524.335 799.16C523.162 797.987 522.575 796.573 522.575 794.92C522.575 793.267 523.162 791.88 524.335 790.76C525.562 789.587 527.055 789 528.815 789C530.575 789 532.042 789.587 533.215 790.76C534.442 791.88 535.055 793.267 535.055 794.92C535.055 796.573 534.442 797.987 533.215 799.16C532.042 800.28 530.575 800.84 528.815 800.84ZM527.055 847C524.922 847 523.855 845.933 523.855 843.8V810.76C523.855 808.627 524.922 807.56 527.055 807.56H530.415C532.548 807.56 533.615 808.627 533.615 810.76V843.8C533.615 845.933 532.548 847 530.415 847H527.055ZM561.003 797.08C559.296 797.08 558.043 797.48 557.243 798.28C556.496 799.08 556.123 800.413 556.123 802.28V807.56H561.723C563.856 807.56 564.923 808.627 564.923 810.76V811.8C564.923 813.933 563.856 815 561.723 815H556.123V843.8C556.123 845.933 555.056 847 552.923 847H549.563C547.43 847 546.363 845.933 546.363 843.8V815H542.683C540.55 815 539.483 813.933 539.483 811.8V810.76C539.483 808.627 540.55 807.56 542.683 807.56H546.363V801.8C546.363 797.587 547.456 794.413 549.643 792.28C551.83 790.093 554.976 789 559.083 789C561.11 789 562.87 789.187 564.363 789.56C565.163 789.72 565.776 790.04 566.203 790.52C566.63 791 566.843 791.613 566.843 792.36C566.843 792.52 566.79 792.867 566.683 793.4L566.363 794.68C565.99 796.493 564.55 797.32 562.043 797.16C561.776 797.107 561.43 797.08 561.003 797.08ZM597.56 836.52C598.36 835.88 599.107 835.56 599.8 835.56C600.6 835.56 601.347 835.96 602.04 836.76L603.4 838.2C604.093 838.893 604.44 839.613 604.44 840.36C604.44 841.267 604.013 842.067 603.16 842.76C600.76 844.733 598.333 846.147 595.88 847C593.48 847.853 590.84 848.28 587.96 848.28C583.747 848.28 580.093 847.427 577 845.72C573.907 844.013 571.533 841.587 569.88 838.44C568.227 835.293 567.4 831.64 567.4 827.48C567.4 823.427 568.173 819.8 569.72 816.6C571.32 813.347 573.613 810.813 576.6 809C579.587 807.187 583.08 806.28 587.08 806.28C593 806.28 597.533 808.013 600.68 811.48C603.88 814.947 605.48 819.747 605.48 825.88V826.6C605.427 828.68 604.333 829.72 602.2 829.72H576.92C577.293 832.867 578.413 835.373 580.28 837.24C582.2 839.107 584.813 840.04 588.12 840.04C589.933 840.04 591.533 839.773 592.92 839.24C594.307 838.707 595.853 837.8 597.56 836.52ZM586.84 813.96C584.227 813.96 582.093 814.76 580.44 816.36C578.787 817.907 577.693 820.04 577.16 822.76H595.96C595.747 820.04 594.867 817.907 593.32 816.36C591.773 814.76 589.613 813.96 586.84 813.96ZM620.203 829.32C618.23 829.32 617.11 828.307 616.843 826.28L614.843 807.4V793.4C614.843 791.267 615.91 790.2 618.043 790.2H622.283C624.416 790.2 625.483 791.267 625.483 793.4V807.4L623.483 826.28C623.216 828.307 622.123 829.32 620.203 829.32ZM620.043 847.88C618.283 847.88 616.763 847.24 615.483 845.96C614.203 844.68 613.563 843.133 613.563 841.32C613.563 839.507 614.203 837.96 615.483 836.68C616.763 835.4 618.283 834.76 620.043 834.76C621.856 834.76 623.403 835.4 624.683 836.68C626.016 837.96 626.683 839.507 626.683 841.32C626.683 843.133 626.016 844.68 624.683 845.96C623.403 847.24 621.856 847.88 620.043 847.88Z" fill="white"/>
</g>
<defs>
<clipPath id="clip0_989_13174">
<rect width="1920" height="1079" fill="white"/>
</clipPath>
</defs>
</svg>
