<svg width="1920" height="1079" viewBox="0 0 1920 1079" fill="none" xmlns="http://www.w3.org/2000/svg">
<g clip-path="url(#clip0_1143_14273)">
<rect width="1920" height="1079" fill="white"/>
<rect width="1920" height="1080" fill="#0063FB"/>
<rect x="1737.69" y="897.451" width="166" height="166" fill="#38BDF8"/>
<path d="M1915.69 1075.49H1725.6V885.013H1915.69V1075.49ZM1738.04 1063.03H1903.18V897.555H1738.04V1063.03Z" fill="white"/>
<path d="M1827.59 808.549C1869.26 808.549 1903.18 842.533 1903.18 884.285V885.094H1826.78V808.549H1827.59ZM1827.59 796.007H1814.35V897.474H1915.61V884.204C1915.61 835.493 1876.21 796.007 1827.59 796.007Z" fill="white"/>
<path d="M1649.21 991.659L1720.43 1063.03H1649.21V991.659ZM1649.21 974.02H1636.77V1075.49H1738.04V1063.03L1649.21 974.02Z" fill="white"/>
<path d="M1725.6 986.48V1063.03H1649.21V986.48H1725.6ZM1738.04 974.02H1636.77V1075.49H1738.04V974.02Z" fill="white"/>
<path d="M1559.49 951.121L1505.55 1005.17L1451.6 951.121L1505.55 897.07L1559.49 951.121ZM1577.09 951.121L1505.55 879.43L1434 951.121L1505.55 1022.81L1577.09 951.121Z" fill="white"/>
<path d="M1700.69 849.451H1622.69V771.451H1700.69V849.451Z" fill="#BAE6FD"/>
<path d="M1623.61 772.461H1699.92V848.925H1623.61V772.461ZM1611.09 760V861.386H1712.28V760H1611.09Z" fill="white"/>
<path fill-rule="evenodd" clip-rule="evenodd" d="M181.281 163.915H165.717C164.746 163.915 163.957 164.696 163.957 165.656V214.344C163.957 215.304 164.746 216.085 165.717 216.085H216.69V198.946C216.69 179.629 200.805 163.915 181.281 163.915Z" fill="#0063FB"/>
<path fill-rule="evenodd" clip-rule="evenodd" d="M328.283 163.915H222.406C221.436 163.915 220.646 164.696 220.646 165.656V216.085H328.283C329.253 216.085 330.043 215.304 330.043 214.344V165.656C330.043 164.696 329.253 163.915 328.283 163.915Z" fill="#06BEFB"/>
<path fill-rule="evenodd" clip-rule="evenodd" d="M163.957 214.344V165.656C163.957 164.696 164.747 163.915 165.717 163.915H181.281C200.805 163.915 216.689 179.63 216.689 198.946V216.085H165.717C164.747 216.085 163.957 215.304 163.957 214.344ZM330.043 214.344C330.043 215.304 329.253 216.085 328.283 216.085H220.646V165.656C220.646 164.696 221.436 163.915 222.407 163.915H328.283C329.253 163.915 330.043 164.696 330.043 165.656V214.344ZM328.283 160H222.407C219.254 160 216.689 162.537 216.689 165.656V181.939C210.296 168.963 196.827 160 181.281 160H165.717C162.565 160 160 162.537 160 165.656V214.344C160 217.463 162.565 220 165.717 220H328.283C331.435 220 334 217.463 334 214.344V165.656C334 162.537 331.435 160 328.283 160Z" fill="white"/>
<path fill-rule="evenodd" clip-rule="evenodd" d="M238.503 179.828H252.76C253.379 179.828 253.881 180.325 253.881 180.938V184.418C253.881 185.031 253.379 185.528 252.76 185.528H243.618V190.12H250.897C251.516 190.12 252.018 190.617 252.018 191.23V194.193C252.018 194.805 251.516 195.302 250.897 195.302H243.618V199.063C243.618 199.675 243.115 200.172 242.496 200.172H238.503C237.883 200.172 237.381 199.675 237.381 199.063V180.938C237.381 180.325 237.883 179.828 238.503 179.828ZM260.092 179.828H264.085C264.704 179.828 265.207 180.325 265.207 180.938V199.063C265.207 199.675 264.704 200.172 264.085 200.172H260.092C259.472 200.172 258.97 199.675 258.97 199.063V180.938C258.97 180.325 259.472 179.828 260.092 179.828ZM312.187 179.828H308.193C307.574 179.828 307.072 180.325 307.072 180.938V189.825L300.828 180.491C300.551 180.077 300.082 179.828 299.58 179.828H296.513C295.893 179.828 295.391 180.325 295.391 180.938V199.063C295.391 199.675 295.893 200.172 296.513 200.172H300.506C301.126 200.172 301.628 199.675 301.628 199.063V190.278L307.735 199.503C308.012 199.92 308.482 200.172 308.986 200.172H312.187C312.806 200.172 313.308 199.675 313.308 199.063V180.938C313.308 180.325 312.806 179.828 312.187 179.828ZM284.142 179.828H288.136C288.755 179.828 289.258 180.325 289.258 180.938V199.063C289.258 199.675 288.755 200.172 288.136 200.172H284.935C284.431 200.172 283.961 199.92 283.685 199.503L277.577 190.278V199.063C277.577 199.675 277.075 200.172 276.456 200.172H272.462C271.843 200.172 271.34 199.675 271.34 199.063V180.938C271.34 180.325 271.843 179.828 272.462 179.828H275.53C276.031 179.828 276.5 180.077 276.777 180.491L283.021 189.825V180.938C283.021 180.325 283.523 179.828 284.142 179.828Z" fill="white"/>
<path d="M171.616 373C169.056 373 167.776 371.72 167.776 369.16V308.68C167.776 306.12 169.056 304.84 171.616 304.84H176.512C179.072 304.84 180.352 306.12 180.352 308.68V369.16C180.352 371.72 179.072 373 176.512 373H171.616ZM218.749 324.136C224.189 324.136 228.349 325.64 231.229 328.648C234.173 331.656 235.645 335.624 235.645 340.552V369.16C235.645 371.72 234.365 373 231.805 373H227.773C225.213 373 223.933 371.72 223.933 369.16V344.104C223.933 340.968 223.165 338.536 221.629 336.808C220.093 335.08 217.885 334.216 215.005 334.216C212.189 334.216 209.853 335.176 207.997 337.096C206.141 339.016 205.213 341.448 205.213 344.392V369.16C205.213 371.72 203.933 373 201.373 373H197.341C194.781 373 193.501 371.72 193.501 369.16V329.512C193.501 326.952 194.781 325.672 197.341 325.672H200.605C203.165 325.672 204.445 326.952 204.445 329.512V331.144C205.981 328.904 207.965 327.176 210.397 325.96C212.829 324.744 215.613 324.136 218.749 324.136ZM269.628 363.688C271.676 363.304 272.892 364.392 273.276 366.952L273.564 368.776C273.884 371.208 272.892 372.712 270.588 373.288C268.348 373.864 266.012 374.152 263.58 374.152C258.908 374.152 255.484 373.064 253.308 370.888C251.196 368.648 250.14 365.32 250.14 360.904V334.6H245.532C242.972 334.6 241.692 333.32 241.692 330.76V329.512C241.692 326.952 242.972 325.672 245.532 325.672H250.14V314.728C250.14 312.168 251.42 310.888 253.98 310.888H258.012C260.572 310.888 261.852 312.168 261.852 314.728V325.672H269.436C271.996 325.672 273.276 326.952 273.276 329.512V330.76C273.276 333.32 271.996 334.6 269.436 334.6H261.852V359.464C261.852 361.128 262.236 362.312 263.004 363.016C263.772 363.656 264.988 363.976 266.652 363.976C267.42 363.976 268.412 363.88 269.628 363.688ZM303.909 325.096C305.125 325.096 306.437 325.256 307.845 325.576C309.829 325.96 310.821 327.112 310.821 329.032C310.821 329.544 310.789 329.928 310.725 330.184L310.149 332.968C309.765 335.08 308.741 336.136 307.077 336.136C306.757 336.136 306.501 336.104 306.309 336.04C305.157 335.848 304.165 335.752 303.333 335.752C300.133 335.752 297.573 336.968 295.653 339.4C293.797 341.832 292.869 345.192 292.869 349.48V369.16C292.869 371.72 291.589 373 289.029 373H284.997C282.437 373 281.157 371.72 281.157 369.16V329.512C281.157 326.952 282.437 325.672 284.997 325.672H288.261C290.821 325.672 292.101 326.952 292.101 329.512V332.584C294.661 327.592 298.597 325.096 303.909 325.096ZM337.548 374.536C332.812 374.536 328.588 373.48 324.876 371.368C321.164 369.256 318.252 366.28 316.14 362.44C314.092 358.6 313.068 354.216 313.068 349.288C313.068 344.36 314.092 340.008 316.14 336.232C318.252 332.392 321.164 329.416 324.876 327.304C328.588 325.192 332.812 324.136 337.548 324.136C342.284 324.136 346.508 325.192 350.22 327.304C353.932 329.416 356.812 332.392 358.86 336.232C360.972 340.008 362.028 344.36 362.028 349.288C362.028 354.216 360.972 358.6 358.86 362.44C356.812 366.28 353.932 369.256 350.22 371.368C346.508 373.48 342.284 374.536 337.548 374.536ZM337.548 364.648C341.324 364.648 344.364 363.272 346.668 360.52C348.972 357.704 350.124 353.96 350.124 349.288C350.124 344.744 348.972 341.096 346.668 338.344C344.364 335.528 341.324 334.12 337.548 334.12C333.772 334.12 330.732 335.528 328.428 338.344C326.124 341.096 324.972 344.744 324.972 349.288C324.972 353.96 326.124 357.704 328.428 360.52C330.732 363.272 333.772 364.648 337.548 364.648ZM403.71 308.584C403.71 306.024 404.99 304.744 407.55 304.744H411.582C414.142 304.744 415.422 306.024 415.422 308.584V369.16C415.422 371.72 414.142 373 411.582 373H408.414C405.854 373 404.574 371.72 404.574 369.16V366.76C401.182 371.88 396.094 374.44 389.31 374.44C385.342 374.44 381.758 373.416 378.558 371.368C375.422 369.32 372.958 366.408 371.166 362.632C369.374 358.792 368.478 354.376 368.478 349.384C368.478 344.392 369.374 340.008 371.166 336.232C373.022 332.456 375.55 329.544 378.75 327.496C381.95 325.448 385.534 324.424 389.502 324.424C395.646 324.424 400.382 326.504 403.71 330.664V308.584ZM391.998 364.36C395.582 364.36 398.494 363.016 400.734 360.328C403.038 357.64 404.19 353.992 404.19 349.384C404.19 344.776 403.038 341.16 400.734 338.536C398.494 335.912 395.614 334.6 392.094 334.6C388.574 334.6 385.726 335.944 383.55 338.632C381.438 341.256 380.382 344.84 380.382 349.384C380.382 353.992 381.406 357.64 383.454 360.328C385.566 363.016 388.414 364.36 391.998 364.36ZM455.946 329.512C455.946 326.952 457.226 325.672 459.786 325.672H463.818C466.378 325.672 467.658 326.952 467.658 329.512V369.16C467.658 371.72 466.378 373 463.818 373H460.842C458.282 373 457.002 371.72 457.002 369.16V367.816C455.722 369.928 453.898 371.592 451.53 372.808C449.226 373.96 446.378 374.536 442.986 374.536C437.354 374.536 433.162 373.16 430.41 370.408C427.658 367.656 426.282 364.008 426.282 359.464V329.512C426.282 326.952 427.562 325.672 430.122 325.672H434.154C436.714 325.672 437.994 326.952 437.994 329.512V356.2C437.994 358.76 438.666 360.776 440.01 362.248C441.354 363.656 443.37 364.36 446.058 364.36C449.13 364.36 451.53 363.496 453.258 361.768C455.05 360.04 455.946 357.544 455.946 354.28V329.512ZM500.005 374.536C495.269 374.536 491.077 373.512 487.429 371.464C483.845 369.416 481.029 366.504 478.981 362.728C476.997 358.888 476.005 354.408 476.005 349.288C476.005 344.168 477.029 339.72 479.077 335.944C481.125 332.104 483.973 329.192 487.621 327.208C491.333 325.16 495.557 324.136 500.293 324.136C503.621 324.136 506.629 324.616 509.317 325.576C512.069 326.536 514.725 328.136 517.285 330.376C518.245 331.208 518.725 332.104 518.725 333.064C518.725 334.024 518.245 334.952 517.285 335.848L515.365 337.768C514.533 338.6 513.669 339.016 512.773 339.016C511.941 339.016 510.949 338.6 509.797 337.768C508.005 336.36 506.373 335.4 504.901 334.888C503.493 334.376 501.957 334.12 500.293 334.12C496.389 334.12 493.349 335.56 491.173 338.44C488.997 341.32 487.909 344.936 487.909 349.288C487.909 353.64 488.965 357.288 491.077 360.232C493.253 363.112 496.293 364.552 500.197 364.552C502.117 364.552 503.845 364.2 505.381 363.496C506.981 362.728 508.677 361.48 510.469 359.752C511.429 358.792 512.421 358.312 513.445 358.312C514.277 358.312 515.141 358.696 516.037 359.464L517.957 361.096C518.917 361.864 519.397 362.792 519.397 363.88C519.397 364.968 518.821 366.088 517.669 367.24C515.045 369.928 512.325 371.816 509.509 372.904C506.757 373.992 503.589 374.536 500.005 374.536ZM551.628 363.688C553.676 363.304 554.892 364.392 555.276 366.952L555.564 368.776C555.884 371.208 554.892 372.712 552.588 373.288C550.348 373.864 548.012 374.152 545.58 374.152C540.908 374.152 537.484 373.064 535.308 370.888C533.196 368.648 532.14 365.32 532.14 360.904V334.6H527.532C524.972 334.6 523.692 333.32 523.692 330.76V329.512C523.692 326.952 524.972 325.672 527.532 325.672H532.14V314.728C532.14 312.168 533.42 310.888 535.98 310.888H540.012C542.572 310.888 543.852 312.168 543.852 314.728V325.672H551.436C553.996 325.672 555.276 326.952 555.276 329.512V330.76C555.276 333.32 553.996 334.6 551.436 334.6H543.852V359.464C543.852 361.128 544.236 362.312 545.004 363.016C545.772 363.656 546.988 363.976 548.652 363.976C549.42 363.976 550.412 363.88 551.628 363.688ZM569.109 317.608C566.997 317.608 565.205 316.936 563.733 315.592C562.325 314.184 561.621 312.488 561.621 310.504C561.621 308.52 562.325 306.856 563.733 305.512C565.205 304.104 566.997 303.4 569.109 303.4C571.221 303.4 572.981 304.104 574.389 305.512C575.861 306.856 576.597 308.52 576.597 310.504C576.597 312.488 575.861 314.184 574.389 315.592C572.981 316.936 571.221 317.608 569.109 317.608ZM566.997 373C564.437 373 563.157 371.72 563.157 369.16V329.512C563.157 326.952 564.437 325.672 566.997 325.672H571.029C573.589 325.672 574.869 326.952 574.869 329.512V369.16C574.869 371.72 573.589 373 571.029 373H566.997ZM607.735 374.536C602.999 374.536 598.775 373.48 595.063 371.368C591.351 369.256 588.439 366.28 586.327 362.44C584.279 358.6 583.255 354.216 583.255 349.288C583.255 344.36 584.279 340.008 586.327 336.232C588.439 332.392 591.351 329.416 595.063 327.304C598.775 325.192 602.999 324.136 607.735 324.136C612.471 324.136 616.695 325.192 620.407 327.304C624.119 329.416 626.999 332.392 629.047 336.232C631.159 340.008 632.215 344.36 632.215 349.288C632.215 354.216 631.159 358.6 629.047 362.44C626.999 366.28 624.119 369.256 620.407 371.368C616.695 373.48 612.471 374.536 607.735 374.536ZM607.735 364.648C611.511 364.648 614.551 363.272 616.855 360.52C619.159 357.704 620.311 353.96 620.311 349.288C620.311 344.744 619.159 341.096 616.855 338.344C614.551 335.528 611.511 334.12 607.735 334.12C603.959 334.12 600.919 335.528 598.615 338.344C596.311 341.096 595.159 344.744 595.159 349.288C595.159 353.96 596.311 357.704 598.615 360.52C600.919 363.272 603.959 364.648 607.735 364.648ZM665.655 324.136C671.095 324.136 675.255 325.64 678.135 328.648C681.079 331.656 682.551 335.624 682.551 340.552V369.16C682.551 371.72 681.271 373 678.711 373H674.679C672.119 373 670.839 371.72 670.839 369.16V344.104C670.839 340.968 670.071 338.536 668.535 336.808C666.999 335.08 664.791 334.216 661.911 334.216C659.095 334.216 656.759 335.176 654.903 337.096C653.047 339.016 652.119 341.448 652.119 344.392V369.16C652.119 371.72 650.839 373 648.279 373H644.247C641.687 373 640.407 371.72 640.407 369.16V329.512C640.407 326.952 641.687 325.672 644.247 325.672H647.511C650.071 325.672 651.351 326.952 651.351 329.512V331.144C652.887 328.904 654.871 327.176 657.303 325.96C659.735 324.744 662.519 324.136 665.655 324.136ZM738.66 363.688C740.708 363.304 741.924 364.392 742.308 366.952L742.596 368.776C742.916 371.208 741.924 372.712 739.62 373.288C737.38 373.864 735.044 374.152 732.612 374.152C727.94 374.152 724.516 373.064 722.34 370.888C720.228 368.648 719.172 365.32 719.172 360.904V334.6H714.564C712.004 334.6 710.724 333.32 710.724 330.76V329.512C710.724 326.952 712.004 325.672 714.564 325.672H719.172V314.728C719.172 312.168 720.452 310.888 723.012 310.888H727.044C729.604 310.888 730.884 312.168 730.884 314.728V325.672H738.468C741.028 325.672 742.308 326.952 742.308 329.512V330.76C742.308 333.32 741.028 334.6 738.468 334.6H730.884V359.464C730.884 361.128 731.268 362.312 732.036 363.016C732.804 363.656 734.02 363.976 735.684 363.976C736.452 363.976 737.444 363.88 738.66 363.688ZM770.86 374.536C766.124 374.536 761.9 373.48 758.188 371.368C754.476 369.256 751.564 366.28 749.452 362.44C747.404 358.6 746.38 354.216 746.38 349.288C746.38 344.36 747.404 340.008 749.452 336.232C751.564 332.392 754.476 329.416 758.188 327.304C761.9 325.192 766.124 324.136 770.86 324.136C775.596 324.136 779.82 325.192 783.532 327.304C787.244 329.416 790.124 332.392 792.172 336.232C794.284 340.008 795.34 344.36 795.34 349.288C795.34 354.216 794.284 358.6 792.172 362.44C790.124 366.28 787.244 369.256 783.532 371.368C779.82 373.48 775.596 374.536 770.86 374.536ZM770.86 364.648C774.636 364.648 777.676 363.272 779.98 360.52C782.284 357.704 783.436 353.96 783.436 349.288C783.436 344.744 782.284 341.096 779.98 338.344C777.676 335.528 774.636 334.12 770.86 334.12C767.084 334.12 764.044 335.528 761.74 338.344C759.436 341.096 758.284 344.744 758.284 349.288C758.284 353.96 759.436 357.704 761.74 360.52C764.044 363.272 767.084 364.648 770.86 364.648ZM830.288 373C827.728 373 826.448 371.72 826.448 369.16V308.68C826.448 306.12 827.728 304.84 830.288 304.84H870.032C872.592 304.84 873.872 306.12 873.872 308.68V311.656C873.872 314.216 872.592 315.496 870.032 315.496H839.024V334.216H867.728C870.288 334.216 871.568 335.496 871.568 338.056V341.032C871.568 343.592 870.288 344.872 867.728 344.872H839.024V369.16C839.024 371.72 837.744 373 835.184 373H830.288ZM889.085 373C886.525 373 885.245 371.72 885.245 369.16V308.68C885.245 306.12 886.525 304.84 889.085 304.84H893.981C896.541 304.84 897.821 306.12 897.821 308.68V369.16C897.821 371.72 896.541 373 893.981 373H889.085ZM957.434 308.68C957.434 306.12 958.714 304.84 961.274 304.84H965.786C968.346 304.84 969.626 306.12 969.626 308.68V369.16C969.626 371.72 968.346 373 965.786 373H959.162C957.114 373 955.578 372.168 954.554 370.504L938.33 344.776L936.506 341.896C935.738 340.616 933.978 337.8 931.226 333.448C928.538 329.096 926.266 325.128 924.41 321.544C924.73 328.328 924.89 337.192 924.89 348.136V369.16C924.89 371.72 923.61 373 921.05 373H916.538C913.978 373 912.698 371.72 912.698 369.16V308.68C912.698 306.12 913.978 304.84 916.538 304.84H923.45C925.498 304.84 927.034 305.704 928.058 307.432L945.146 334.6C950.97 343.752 955.194 350.76 957.818 355.624C957.562 349.032 957.434 340.744 957.434 330.76V308.68ZM1028.59 308.68C1028.59 306.12 1029.87 304.84 1032.43 304.84H1036.94C1039.5 304.84 1040.78 306.12 1040.78 308.68V369.16C1040.78 371.72 1039.5 373 1036.94 373H1030.32C1028.27 373 1026.73 372.168 1025.71 370.504L1009.49 344.776L1007.66 341.896C1006.89 340.616 1005.13 337.8 1002.38 333.448C999.694 329.096 997.422 325.128 995.566 321.544C995.886 328.328 996.046 337.192 996.046 348.136V369.16C996.046 371.72 994.766 373 992.206 373H987.694C985.134 373 983.854 371.72 983.854 369.16V308.68C983.854 306.12 985.134 304.84 987.694 304.84H994.606C996.654 304.84 998.19 305.704 999.214 307.432L1016.3 334.6C1022.13 343.752 1026.35 350.76 1028.97 355.624C1028.72 349.032 1028.59 340.744 1028.59 330.76V308.68Z" fill="white"/>
</g>
<rect x="8" y="8" width="1904" height="1063" stroke="white" stroke-width="16"/>
<defs>
<clipPath id="clip0_1143_14273">
<rect width="1920" height="1079" fill="white"/>
</clipPath>
</defs>
</svg>
