<svg width="1920" height="1079" viewBox="0 0 1920 1079" fill="none" xmlns="http://www.w3.org/2000/svg">
<g clip-path="url(#clip0_974_13106)">
<rect width="1920" height="1079" fill="white"/>
<rect x="8" y="8" width="1904" height="1064" fill="#06BEFB" stroke="white" stroke-width="16"/>
<path fill-rule="evenodd" clip-rule="evenodd" d="M642.858 413.051H567.632C562.941 413.051 559.125 416.854 559.125 421.527V658.474C559.125 663.147 562.941 666.95 567.632 666.95H813.999V583.537C813.999 489.53 737.226 413.051 642.858 413.051Z" fill="#0063FB"/>
<path fill-rule="evenodd" clip-rule="evenodd" d="M1353.37 413.051H841.631C836.94 413.051 833.123 416.854 833.123 421.527V666.948H1353.37C1358.06 666.948 1361.88 663.147 1361.88 658.474V421.527C1361.88 416.854 1358.06 413.051 1353.37 413.051Z" fill="#06BEFB"/>
<path fill-rule="evenodd" clip-rule="evenodd" d="M559.125 658.474V421.528C559.125 416.854 562.942 413.052 567.633 413.052H642.857C737.225 413.052 813.999 489.531 813.999 583.537V666.949H567.633C562.942 666.949 559.125 663.148 559.125 658.474ZM1361.88 658.474C1361.88 663.148 1358.06 666.949 1353.37 666.949H833.124V421.528C833.124 416.854 836.941 413.052 841.632 413.052H1353.37C1358.06 413.052 1361.88 416.854 1361.88 421.528V658.474ZM1353.37 394H841.632C826.395 394 813.999 406.348 813.999 421.528V500.771C783.097 437.619 717.999 394 642.857 394H567.633C552.396 394 540 406.348 540 421.528V658.474C540 673.652 552.396 686 567.633 686H1353.37C1368.6 686 1381 673.652 1381 658.474V421.528C1381 406.348 1368.6 394 1353.37 394Z" fill="white"/>
<path fill-rule="evenodd" clip-rule="evenodd" d="M919.43 490.497H988.339C991.333 490.497 993.761 492.915 993.761 495.897V512.835C993.761 515.818 991.333 518.236 988.339 518.236H944.152V540.583H979.334C982.328 540.583 984.755 543.001 984.755 545.984V560.404C984.755 563.386 982.328 565.804 979.334 565.804H944.152V584.104C944.152 587.087 941.725 589.503 938.731 589.503H919.43C916.436 589.503 914.009 587.087 914.009 584.104V495.897C914.009 492.915 916.436 490.497 919.43 490.497ZM1023.78 490.497H1043.08C1046.07 490.497 1048.5 492.915 1048.5 495.897V584.104C1048.5 587.087 1046.07 589.505 1043.08 589.505H1023.78C1020.78 589.505 1018.36 587.087 1018.36 584.104V495.897C1018.36 492.915 1020.78 490.497 1023.78 490.497ZM1275.57 490.497H1256.27C1253.27 490.497 1250.85 492.915 1250.85 495.897V539.149L1220.67 493.722C1219.33 491.708 1217.06 490.497 1214.64 490.497H1199.81C1196.82 490.497 1194.39 492.915 1194.39 495.897V584.104C1194.39 587.087 1196.82 589.503 1199.81 589.503H1219.11C1222.11 589.503 1224.53 587.087 1224.53 584.104V541.352L1254.05 586.248C1255.39 588.279 1257.66 589.503 1260.1 589.503H1275.57C1278.56 589.503 1280.99 587.087 1280.99 584.104V495.897C1280.99 492.915 1278.56 490.497 1275.57 490.497ZM1140.02 490.497H1159.32C1162.32 490.497 1164.75 492.915 1164.75 495.897V584.104C1164.75 587.087 1162.32 589.503 1159.32 589.503H1143.85C1141.42 589.503 1139.14 588.279 1137.81 586.248L1108.29 541.352V584.104C1108.29 587.087 1105.86 589.503 1102.87 589.503H1083.57C1080.57 589.503 1078.15 587.087 1078.15 584.104V495.897C1078.15 492.915 1080.57 490.497 1083.57 490.497H1098.39C1100.82 490.497 1103.08 491.708 1104.42 493.722L1134.6 539.149V495.897C1134.6 492.915 1137.03 490.497 1140.02 490.497Z" fill="white"/>
</g>
<defs>
<clipPath id="clip0_974_13106">
<rect width="1920" height="1079" fill="white"/>
</clipPath>
</defs>
</svg>
