<svg width="1920" height="1079" viewBox="0 0 1920 1079" fill="none" xmlns="http://www.w3.org/2000/svg">
<g clip-path="url(#clip0_989_13205)">
<rect width="1920" height="1079" fill="white"/>
<rect width="1920" height="1080" fill="#0063FB"/>
<rect x="1737.69" y="897.451" width="166" height="166" fill="#38BDF8"/>
<path d="M1915.69 1075.49H1725.6V885.013H1915.69V1075.49ZM1738.04 1063.03H1903.18V897.555H1738.04V1063.03Z" fill="white"/>
<path d="M1827.59 808.549C1869.26 808.549 1903.18 842.533 1903.18 884.285V885.094H1826.78V808.549H1827.59ZM1827.59 796.007H1814.35V897.474H1915.61V884.204C1915.61 835.493 1876.21 796.007 1827.59 796.007Z" fill="white"/>
<path d="M1649.21 991.659L1720.43 1063.03H1649.21V991.659ZM1649.21 974.02H1636.77V1075.49H1738.04V1063.03L1649.21 974.02Z" fill="white"/>
<path d="M1725.6 986.48V1063.03H1649.21V986.48H1725.6ZM1738.04 974.02H1636.77V1075.49H1738.04V974.02Z" fill="white"/>
<path d="M1559.49 951.121L1505.55 1005.17L1451.6 951.121L1505.55 897.07L1559.49 951.121ZM1577.09 951.121L1505.55 879.43L1434 951.121L1505.55 1022.81L1577.09 951.121Z" fill="white"/>
<path d="M1700.69 849.451H1622.69V771.451H1700.69V849.451Z" fill="#BAE6FD"/>
<path d="M1623.61 772.461H1699.92V848.925H1623.61V772.461ZM1611.09 760V861.386H1712.28V760H1611.09Z" fill="white"/>
<path fill-rule="evenodd" clip-rule="evenodd" d="M181.281 163.915H165.717C164.746 163.915 163.957 164.696 163.957 165.656V214.344C163.957 215.304 164.746 216.085 165.717 216.085H216.69V198.946C216.69 179.629 200.805 163.915 181.281 163.915Z" fill="#0063FB"/>
<path fill-rule="evenodd" clip-rule="evenodd" d="M328.283 163.915H222.406C221.436 163.915 220.646 164.696 220.646 165.656V216.085H328.283C329.253 216.085 330.043 215.304 330.043 214.344V165.656C330.043 164.696 329.253 163.915 328.283 163.915Z" fill="#06BEFB"/>
<path fill-rule="evenodd" clip-rule="evenodd" d="M163.957 214.344V165.656C163.957 164.696 164.747 163.915 165.717 163.915H181.281C200.805 163.915 216.689 179.63 216.689 198.946V216.085H165.717C164.747 216.085 163.957 215.304 163.957 214.344ZM330.043 214.344C330.043 215.304 329.253 216.085 328.283 216.085H220.646V165.656C220.646 164.696 221.436 163.915 222.407 163.915H328.283C329.253 163.915 330.043 164.696 330.043 165.656V214.344ZM328.283 160H222.407C219.254 160 216.689 162.537 216.689 165.656V181.939C210.296 168.963 196.827 160 181.281 160H165.717C162.565 160 160 162.537 160 165.656V214.344C160 217.463 162.565 220 165.717 220H328.283C331.435 220 334 217.463 334 214.344V165.656C334 162.537 331.435 160 328.283 160Z" fill="white"/>
<path fill-rule="evenodd" clip-rule="evenodd" d="M238.503 179.828H252.76C253.379 179.828 253.881 180.325 253.881 180.938V184.418C253.881 185.031 253.379 185.528 252.76 185.528H243.618V190.12H250.897C251.516 190.12 252.018 190.617 252.018 191.23V194.193C252.018 194.805 251.516 195.302 250.897 195.302H243.618V199.063C243.618 199.675 243.115 200.172 242.496 200.172H238.503C237.883 200.172 237.381 199.675 237.381 199.063V180.938C237.381 180.325 237.883 179.828 238.503 179.828ZM260.092 179.828H264.085C264.704 179.828 265.207 180.325 265.207 180.938V199.063C265.207 199.675 264.704 200.172 264.085 200.172H260.092C259.472 200.172 258.97 199.675 258.97 199.063V180.938C258.97 180.325 259.472 179.828 260.092 179.828ZM312.187 179.828H308.193C307.574 179.828 307.072 180.325 307.072 180.938V189.825L300.828 180.491C300.551 180.077 300.082 179.828 299.58 179.828H296.513C295.893 179.828 295.391 180.325 295.391 180.938V199.063C295.391 199.675 295.893 200.172 296.513 200.172H300.506C301.126 200.172 301.628 199.675 301.628 199.063V190.278L307.735 199.503C308.012 199.92 308.482 200.172 308.986 200.172H312.187C312.806 200.172 313.308 199.675 313.308 199.063V180.938C313.308 180.325 312.806 179.828 312.187 179.828ZM284.142 179.828H288.136C288.755 179.828 289.258 180.325 289.258 180.938V199.063C289.258 199.675 288.755 200.172 288.136 200.172H284.935C284.431 200.172 283.961 199.92 283.685 199.503L277.577 190.278V199.063C277.577 199.675 277.075 200.172 276.456 200.172H272.462C271.843 200.172 271.34 199.675 271.34 199.063V180.938C271.34 180.325 271.843 179.828 272.462 179.828H275.53C276.031 179.828 276.5 180.077 276.777 180.491L283.021 189.825V180.938C283.021 180.325 283.523 179.828 284.142 179.828Z" fill="white"/>
<path d="M170.944 373C168.384 373 167.104 371.72 167.104 369.16V308.68C167.104 306.12 168.384 304.84 170.944 304.84H210.688C213.248 304.84 214.528 306.12 214.528 308.68V311.656C214.528 314.216 213.248 315.496 210.688 315.496H179.68V334.216H208.384C210.944 334.216 212.224 335.496 212.224 338.056V341.032C212.224 343.592 210.944 344.872 208.384 344.872H179.68V369.16C179.68 371.72 178.4 373 175.84 373H170.944ZM229.741 373C227.181 373 225.901 371.72 225.901 369.16V308.68C225.901 306.12 227.181 304.84 229.741 304.84H234.637C237.197 304.84 238.477 306.12 238.477 308.68V369.16C238.477 371.72 237.197 373 234.637 373H229.741ZM298.09 308.68C298.09 306.12 299.37 304.84 301.93 304.84H306.442C309.002 304.84 310.282 306.12 310.282 308.68V369.16C310.282 371.72 309.002 373 306.442 373H299.818C297.77 373 296.234 372.168 295.21 370.504L278.986 344.776L277.162 341.896C276.394 340.616 274.634 337.8 271.882 333.448C269.194 329.096 266.922 325.128 265.066 321.544C265.386 328.328 265.546 337.192 265.546 348.136V369.16C265.546 371.72 264.266 373 261.706 373H257.194C254.634 373 253.354 371.72 253.354 369.16V308.68C253.354 306.12 254.634 304.84 257.194 304.84H264.106C266.154 304.84 267.69 305.704 268.714 307.432L285.802 334.6C291.626 343.752 295.85 350.76 298.474 355.624C298.218 349.032 298.09 340.744 298.09 330.76V308.68ZM369.246 308.68C369.246 306.12 370.526 304.84 373.086 304.84H377.598C380.158 304.84 381.438 306.12 381.438 308.68V369.16C381.438 371.72 380.158 373 377.598 373H370.974C368.926 373 367.39 372.168 366.366 370.504L350.142 344.776L348.318 341.896C347.55 340.616 345.79 337.8 343.038 333.448C340.35 329.096 338.078 325.128 336.222 321.544C336.542 328.328 336.702 337.192 336.702 348.136V369.16C336.702 371.72 335.422 373 332.862 373H328.35C325.79 373 324.51 371.72 324.51 369.16V308.68C324.51 306.12 325.79 304.84 328.35 304.84H335.262C337.31 304.84 338.846 305.704 339.87 307.432L356.958 334.6C362.782 343.752 367.006 350.76 369.63 355.624C369.374 349.032 369.246 340.744 369.246 330.76V308.68ZM443.446 374.632C434.87 374.632 428.214 372.648 423.478 368.68C418.806 364.648 416.47 358.472 416.47 350.152V308.68C416.47 306.12 417.75 304.84 420.31 304.84H425.206C427.766 304.84 429.046 306.12 429.046 308.68V349.672C429.046 354.088 430.23 357.512 432.598 359.944C435.03 362.312 438.646 363.496 443.446 363.496C448.246 363.496 451.862 362.312 454.294 359.944C456.726 357.512 457.942 354.088 457.942 349.672V308.68C457.942 306.12 459.222 304.84 461.782 304.84H466.678C469.238 304.84 470.518 306.12 470.518 308.68V350.152C470.518 358.472 468.15 364.648 463.414 368.68C458.742 372.648 452.086 374.632 443.446 374.632ZM539.65 368.296C540.226 369.128 540.514 369.896 540.514 370.6C540.514 371.304 540.194 371.88 539.554 372.328C538.978 372.776 538.178 373 537.154 373H531.682C529.698 373 528.162 372.168 527.074 370.504L510.562 346.024L493.858 370.504C492.77 372.168 491.234 373 489.25 373H483.874C482.85 373 482.018 372.776 481.378 372.328C480.802 371.88 480.514 371.304 480.514 370.6C480.514 369.896 480.802 369.128 481.378 368.296L502.978 336.904L484.066 309.544C483.49 308.648 483.202 307.848 483.202 307.144C483.202 306.44 483.49 305.896 484.066 305.512C484.642 305.064 485.442 304.84 486.466 304.84H492.034C494.018 304.84 495.554 305.672 496.642 307.336L510.658 328.072L524.674 307.336C525.762 305.672 527.298 304.84 529.282 304.84H534.658C535.682 304.84 536.482 305.064 537.058 305.512C537.698 305.96 538.018 306.536 538.018 307.24C538.018 307.88 537.73 308.648 537.154 309.544L518.146 337L539.65 368.296ZM182.56 453.9C178.52 453.9 175 452.96 172 451.08C169 449.16 166.7 446.52 165.1 443.16C163.5 439.8 162.7 435.98 162.7 431.7C162.7 427.42 163.5 423.6 165.1 420.24C166.7 416.88 169 414.26 172 412.38C175 410.46 178.52 409.5 182.56 409.5C186.6 409.5 190.12 410.46 193.12 412.38C196.12 414.26 198.42 416.88 200.02 420.24C201.62 423.6 202.42 427.42 202.42 431.7C202.42 435.98 201.62 439.8 200.02 443.16C198.42 446.52 196.12 449.16 193.12 451.08C190.12 452.96 186.6 453.9 182.56 453.9ZM182.56 450.24C185.64 450.24 188.36 449.46 190.72 447.9C193.08 446.3 194.9 444.1 196.18 441.3C197.5 438.46 198.16 435.26 198.16 431.7C198.16 428.14 197.5 424.96 196.18 422.16C194.9 419.32 193.08 417.12 190.72 415.56C188.36 413.96 185.64 413.16 182.56 413.16C179.48 413.16 176.76 413.96 174.4 415.56C172.04 417.12 170.2 419.32 168.88 422.16C167.6 424.96 166.96 428.14 166.96 431.7C166.96 435.26 167.6 438.46 168.88 441.3C170.2 444.1 172.04 446.3 174.4 447.9C176.76 449.46 179.48 450.24 182.56 450.24ZM228.699 424.62C228.699 423.82 229.099 423.42 229.899 423.42H231.459C232.259 423.42 232.659 423.82 232.659 424.62V451.8C232.659 452.6 232.259 453 231.459 453H230.199C229.399 453 228.999 452.6 228.999 451.8V449.1C228.119 450.66 226.859 451.84 225.219 452.64C223.619 453.4 221.859 453.78 219.939 453.78C216.339 453.78 213.679 452.88 211.959 451.08C210.239 449.24 209.379 446.88 209.379 444V424.62C209.379 423.82 209.779 423.42 210.579 423.42H212.139C212.939 423.42 213.339 423.82 213.339 424.62V443.16C213.339 445.52 213.919 447.32 215.079 448.56C216.279 449.76 217.979 450.36 220.179 450.36C222.659 450.36 224.699 449.6 226.299 448.08C227.899 446.56 228.699 444.4 228.699 441.6V424.62ZM252.589 423.18C253.589 423.18 254.769 423.34 256.129 423.66C256.849 423.9 257.129 424.4 256.969 425.16L256.729 426.12C256.529 426.88 256.029 427.16 255.229 426.96C254.269 426.72 253.389 426.6 252.589 426.6C250.549 426.6 248.849 427.48 247.489 429.24C246.169 431 245.509 433.44 245.509 436.56V451.8C245.509 452.6 245.109 453 244.309 453H242.749C241.949 453 241.549 452.6 241.549 451.8V424.62C241.549 423.82 241.949 423.42 242.749 423.42H244.069C244.869 423.42 245.269 423.82 245.269 424.62V427.92C245.949 426.44 246.909 425.28 248.149 424.44C249.429 423.6 250.909 423.18 252.589 423.18ZM295.378 424.62C295.378 423.82 295.778 423.42 296.578 423.42H298.138C298.938 423.42 299.338 423.82 299.338 424.62V451.8C299.338 452.6 298.938 453 298.138 453H296.878C296.078 453 295.678 452.6 295.678 451.8V449.1C294.798 450.66 293.538 451.84 291.898 452.64C290.298 453.4 288.538 453.78 286.618 453.78C283.018 453.78 280.358 452.88 278.638 451.08C276.918 449.24 276.058 446.88 276.058 444V424.62C276.058 423.82 276.458 423.42 277.258 423.42H278.818C279.618 423.42 280.018 423.82 280.018 424.62V443.16C280.018 445.52 280.598 447.32 281.758 448.56C282.958 449.76 284.658 450.36 286.858 450.36C289.338 450.36 291.378 449.6 292.978 448.08C294.578 446.56 295.378 444.4 295.378 441.6V424.62ZM318.549 453.78C316.109 453.78 313.949 453.44 312.069 452.76C310.229 452.04 308.289 450.84 306.249 449.16C305.889 448.92 305.709 448.64 305.709 448.32C305.709 448.04 305.849 447.76 306.129 447.48L306.909 446.64C307.149 446.32 307.449 446.16 307.809 446.16C308.089 446.16 308.349 446.28 308.589 446.52C310.509 448 312.209 449.04 313.689 449.64C315.169 450.2 316.789 450.48 318.549 450.48C320.749 450.48 322.549 450 323.949 449.04C325.349 448.04 326.049 446.7 326.049 445.02C326.049 443.34 325.329 442.1 323.889 441.3C322.449 440.5 320.229 439.78 317.229 439.14C314.589 438.58 312.509 438 310.989 437.4C309.509 436.76 308.409 435.96 307.689 435C306.969 434.04 306.609 432.78 306.609 431.22C306.609 428.66 307.649 426.6 309.729 425.04C311.809 423.48 314.429 422.7 317.589 422.7C319.749 422.7 321.669 422.98 323.349 423.54C325.069 424.06 326.789 424.94 328.509 426.18C328.869 426.46 329.049 426.76 329.049 427.08C329.049 427.28 328.949 427.54 328.749 427.86L328.029 428.76C327.829 429.08 327.549 429.24 327.189 429.24C326.869 429.24 326.589 429.14 326.349 428.94C324.709 427.78 323.249 427 321.969 426.6C320.729 426.2 319.309 426 317.709 426C315.509 426 313.749 426.48 312.429 427.44C311.109 428.4 310.449 429.62 310.449 431.1C310.449 432.02 310.749 432.76 311.349 433.32C311.949 433.88 312.809 434.36 313.929 434.76C315.049 435.12 316.689 435.54 318.849 436.02C322.849 436.9 325.689 437.98 327.369 439.26C329.089 440.54 329.949 442.4 329.949 444.84C329.949 447.52 328.889 449.68 326.769 451.32C324.649 452.96 321.909 453.78 318.549 453.78ZM358.187 445.98C358.467 445.7 358.767 445.56 359.087 445.56C359.367 445.56 359.627 445.68 359.867 445.92L360.647 446.64C360.927 446.92 361.067 447.22 361.067 447.54C361.067 447.78 360.947 448.06 360.707 448.38C358.747 450.34 356.847 451.74 355.007 452.58C353.167 453.38 351.107 453.78 348.827 453.78C345.947 453.78 343.447 453.14 341.327 451.86C339.207 450.58 337.567 448.8 336.407 446.52C335.247 444.2 334.667 441.52 334.667 438.48C334.667 435.4 335.227 432.68 336.347 430.32C337.507 427.92 339.127 426.06 341.207 424.74C343.287 423.38 345.687 422.7 348.407 422.7C352.447 422.7 355.627 423.96 357.947 426.48C360.267 429 361.427 432.4 361.427 436.68V437.4C361.387 437.76 361.247 438.04 361.007 438.24C360.807 438.44 360.527 438.54 360.167 438.54H338.687C338.807 441.9 339.687 444.74 341.327 447.06C343.007 449.34 345.507 450.48 348.827 450.48C350.627 450.48 352.207 450.16 353.567 449.52C354.967 448.84 356.507 447.66 358.187 445.98ZM348.407 426C345.767 426 343.587 426.82 341.867 428.46C340.187 430.06 339.167 432.42 338.807 435.54H357.467C357.387 432.62 356.547 430.3 354.947 428.58C353.347 426.86 351.167 426 348.407 426ZM379.562 423.18C380.562 423.18 381.742 423.34 383.102 423.66C383.822 423.9 384.102 424.4 383.942 425.16L383.702 426.12C383.502 426.88 383.002 427.16 382.202 426.96C381.242 426.72 380.362 426.6 379.562 426.6C377.522 426.6 375.822 427.48 374.462 429.24C373.142 431 372.482 433.44 372.482 436.56V451.8C372.482 452.6 372.082 453 371.282 453H369.722C368.922 453 368.522 452.6 368.522 451.8V424.62C368.522 423.82 368.922 423.42 369.722 423.42H371.042C371.842 423.42 372.242 423.82 372.242 424.62V427.92C372.922 426.44 373.882 425.28 375.122 424.44C376.402 423.6 377.882 423.18 379.562 423.18ZM424.691 445.98C424.971 445.7 425.271 445.56 425.591 445.56C425.871 445.56 426.131 445.68 426.371 445.92L427.151 446.64C427.431 446.92 427.571 447.22 427.571 447.54C427.571 447.78 427.451 448.06 427.211 448.38C425.251 450.34 423.351 451.74 421.511 452.58C419.671 453.38 417.611 453.78 415.331 453.78C412.451 453.78 409.951 453.14 407.831 451.86C405.711 450.58 404.071 448.8 402.911 446.52C401.751 444.2 401.171 441.52 401.171 438.48C401.171 435.4 401.731 432.68 402.851 430.32C404.011 427.92 405.631 426.06 407.711 424.74C409.791 423.38 412.191 422.7 414.911 422.7C418.951 422.7 422.131 423.96 424.451 426.48C426.771 429 427.931 432.4 427.931 436.68V437.4C427.891 437.76 427.751 438.04 427.511 438.24C427.311 438.44 427.031 438.54 426.671 438.54H405.191C405.311 441.9 406.191 444.74 407.831 447.06C409.511 449.34 412.011 450.48 415.331 450.48C417.131 450.48 418.711 450.16 420.071 449.52C421.471 448.84 423.011 447.66 424.691 445.98ZM414.911 426C412.271 426 410.091 426.82 408.371 428.46C406.691 430.06 405.671 432.42 405.311 435.54H423.971C423.891 432.62 423.051 430.3 421.451 428.58C419.851 426.86 417.671 426 414.911 426ZM455.984 451.56C456.144 451.84 456.224 452.08 456.224 452.28C456.224 452.76 455.904 453 455.264 453H453.464C452.864 453 452.384 452.74 452.024 452.22L443.864 440.22L435.764 452.22C435.404 452.74 434.924 453 434.324 453H432.644C432.324 453 432.064 452.94 431.864 452.82C431.704 452.66 431.624 452.48 431.624 452.28C431.624 452 431.704 451.76 431.864 451.56L441.584 437.58L432.644 424.86C432.484 424.66 432.404 424.44 432.404 424.2C432.404 423.68 432.744 423.42 433.424 423.42H435.164C435.764 423.42 436.244 423.68 436.604 424.2L443.924 434.94L451.184 424.2C451.544 423.68 452.024 423.42 452.624 423.42H454.244C454.564 423.42 454.804 423.5 454.964 423.66C455.164 423.78 455.264 423.94 455.264 424.14C455.264 424.42 455.184 424.66 455.024 424.86L446.264 437.4L455.984 451.56ZM476.491 422.76C478.971 422.76 481.191 423.42 483.151 424.74C485.151 426.02 486.711 427.84 487.831 430.2C488.951 432.52 489.511 435.18 489.511 438.18C489.511 441.22 488.951 443.92 487.831 446.28C486.711 448.64 485.171 450.48 483.211 451.8C481.251 453.08 479.011 453.72 476.491 453.72C471.851 453.72 468.451 452.02 466.291 448.62V462.84C466.291 463.64 465.891 464.04 465.091 464.04H463.531C462.731 464.04 462.331 463.64 462.331 462.84V424.62C462.331 423.82 462.731 423.42 463.531 423.42H464.851C465.651 423.42 466.051 423.82 466.051 424.62V428.4C467.131 426.56 468.551 425.16 470.311 424.2C472.071 423.24 474.131 422.76 476.491 422.76ZM476.191 450.36C478.991 450.36 481.231 449.24 482.911 447C484.591 444.76 485.431 441.82 485.431 438.18C485.431 434.58 484.591 431.68 482.911 429.48C481.231 427.24 478.991 426.12 476.191 426.12C473.191 426.12 470.751 427.2 468.871 429.36C467.031 431.48 466.111 434.42 466.111 438.18C466.111 441.94 467.051 444.92 468.931 447.12C470.811 449.28 473.231 450.36 476.191 450.36ZM518.441 445.98C518.721 445.7 519.021 445.56 519.341 445.56C519.621 445.56 519.881 445.68 520.121 445.92L520.901 446.64C521.181 446.92 521.321 447.22 521.321 447.54C521.321 447.78 521.201 448.06 520.961 448.38C519.001 450.34 517.101 451.74 515.261 452.58C513.421 453.38 511.361 453.78 509.081 453.78C506.201 453.78 503.701 453.14 501.581 451.86C499.461 450.58 497.821 448.8 496.661 446.52C495.501 444.2 494.921 441.52 494.921 438.48C494.921 435.4 495.481 432.68 496.601 430.32C497.761 427.92 499.381 426.06 501.461 424.74C503.541 423.38 505.941 422.7 508.661 422.7C512.701 422.7 515.881 423.96 518.201 426.48C520.521 429 521.681 432.4 521.681 436.68V437.4C521.641 437.76 521.501 438.04 521.261 438.24C521.061 438.44 520.781 438.54 520.421 438.54H498.941C499.061 441.9 499.941 444.74 501.581 447.06C503.261 449.34 505.761 450.48 509.081 450.48C510.881 450.48 512.461 450.16 513.821 449.52C515.221 448.84 516.761 447.66 518.441 445.98ZM508.661 426C506.021 426 503.841 426.82 502.121 428.46C500.441 430.06 499.421 432.42 499.061 435.54H517.721C517.641 432.62 516.801 430.3 515.201 428.58C513.601 426.86 511.421 426 508.661 426ZM539.816 423.18C540.816 423.18 541.996 423.34 543.356 423.66C544.076 423.9 544.356 424.4 544.196 425.16L543.956 426.12C543.756 426.88 543.256 427.16 542.456 426.96C541.496 426.72 540.616 426.6 539.816 426.6C537.776 426.6 536.076 427.48 534.716 429.24C533.396 431 532.736 433.44 532.736 436.56V451.8C532.736 452.6 532.336 453 531.536 453H529.976C529.176 453 528.776 452.6 528.776 451.8V424.62C528.776 423.82 529.176 423.42 529.976 423.42H531.296C532.096 423.42 532.496 423.82 532.496 424.62V427.92C533.176 426.44 534.136 425.28 535.376 424.44C536.656 423.6 538.136 423.18 539.816 423.18ZM551.557 415.92C550.757 415.92 550.077 415.64 549.517 415.08C548.997 414.52 548.737 413.84 548.737 413.04C548.737 412.24 548.997 411.58 549.517 411.06C550.077 410.54 550.757 410.28 551.557 410.28C552.397 410.28 553.077 410.54 553.597 411.06C554.157 411.58 554.437 412.24 554.437 413.04C554.437 413.84 554.157 414.52 553.597 415.08C553.077 415.64 552.397 415.92 551.557 415.92ZM550.777 453C549.977 453 549.577 452.6 549.577 451.8V424.62C549.577 423.82 549.977 423.42 550.777 423.42H552.337C553.137 423.42 553.537 423.82 553.537 424.62V451.8C553.537 452.6 553.137 453 552.337 453H550.777ZM583.89 445.98C584.17 445.7 584.47 445.56 584.79 445.56C585.07 445.56 585.33 445.68 585.57 445.92L586.35 446.64C586.63 446.92 586.77 447.22 586.77 447.54C586.77 447.78 586.65 448.06 586.41 448.38C584.45 450.34 582.55 451.74 580.71 452.58C578.87 453.38 576.81 453.78 574.53 453.78C571.65 453.78 569.15 453.14 567.03 451.86C564.91 450.58 563.27 448.8 562.11 446.52C560.95 444.2 560.37 441.52 560.37 438.48C560.37 435.4 560.93 432.68 562.05 430.32C563.21 427.92 564.83 426.06 566.91 424.74C568.99 423.38 571.39 422.7 574.11 422.7C578.15 422.7 581.33 423.96 583.65 426.48C585.97 429 587.13 432.4 587.13 436.68V437.4C587.09 437.76 586.95 438.04 586.71 438.24C586.51 438.44 586.23 438.54 585.87 438.54H564.39C564.51 441.9 565.39 444.74 567.03 447.06C568.71 449.34 571.21 450.48 574.53 450.48C576.33 450.48 577.91 450.16 579.27 449.52C580.67 448.84 582.21 447.66 583.89 445.98ZM574.11 426C571.47 426 569.29 426.82 567.57 428.46C565.89 430.06 564.87 432.42 564.51 435.54H583.17C583.09 432.62 582.25 430.3 580.65 428.58C579.05 426.86 576.87 426 574.11 426ZM607.425 422.7C610.905 422.7 613.525 423.66 615.285 425.58C617.085 427.5 617.985 429.9 617.985 432.78V451.8C617.985 452.6 617.585 453 616.785 453H615.225C614.425 453 614.025 452.6 614.025 451.8V434.1C614.025 431.46 613.385 429.46 612.105 428.1C610.825 426.74 608.985 426.06 606.585 426.06C605.065 426.06 603.665 426.44 602.385 427.2C601.105 427.92 600.085 428.92 599.325 430.2C598.565 431.48 598.185 432.88 598.185 434.4V451.8C598.185 452.6 597.785 453 596.985 453H595.425C594.625 453 594.225 452.6 594.225 451.8V424.62C594.225 423.82 594.625 423.42 595.425 423.42H596.745C597.545 423.42 597.945 423.82 597.945 424.62V427.5C598.945 425.9 600.265 424.7 601.905 423.9C603.545 423.1 605.385 422.7 607.425 422.7ZM638.745 453.78C635.905 453.78 633.425 453.14 631.305 451.86C629.225 450.54 627.605 448.72 626.445 446.4C625.325 444.04 624.765 441.32 624.765 438.24C624.765 435.2 625.325 432.5 626.445 430.14C627.605 427.78 629.225 425.96 631.305 424.68C633.425 423.36 635.865 422.7 638.625 422.7C640.865 422.7 642.825 423.08 644.505 423.84C646.185 424.56 647.805 425.76 649.365 427.44C649.605 427.68 649.725 427.94 649.725 428.22C649.725 428.58 649.565 428.88 649.245 429.12L648.405 429.9C648.165 430.14 647.885 430.26 647.565 430.26C647.285 430.26 646.985 430.1 646.665 429.78C645.265 428.38 643.925 427.4 642.645 426.84C641.405 426.28 640.025 426 638.505 426C636.425 426 634.645 426.58 633.165 427.74C631.725 428.9 630.645 430.42 629.925 432.3C629.205 434.14 628.845 436.12 628.845 438.24C628.845 440.36 629.205 442.36 629.925 444.24C630.645 446.08 631.745 447.58 633.225 448.74C634.705 449.86 636.525 450.42 638.685 450.42C640.285 450.42 641.685 450.14 642.885 449.58C644.125 448.98 645.505 447.86 647.025 446.22C647.345 445.9 647.645 445.74 647.925 445.74C648.245 445.74 648.525 445.86 648.765 446.1L649.605 446.76C649.885 447 650.025 447.28 650.025 447.6C650.025 447.92 649.845 448.3 649.485 448.74C647.805 450.58 646.125 451.88 644.445 452.64C642.765 453.4 640.865 453.78 638.745 453.78ZM677.406 445.98C677.686 445.7 677.986 445.56 678.306 445.56C678.586 445.56 678.846 445.68 679.086 445.92L679.866 446.64C680.146 446.92 680.286 447.22 680.286 447.54C680.286 447.78 680.166 448.06 679.926 448.38C677.966 450.34 676.066 451.74 674.226 452.58C672.386 453.38 670.326 453.78 668.046 453.78C665.166 453.78 662.666 453.14 660.546 451.86C658.426 450.58 656.786 448.8 655.626 446.52C654.466 444.2 653.886 441.52 653.886 438.48C653.886 435.4 654.446 432.68 655.566 430.32C656.726 427.92 658.346 426.06 660.426 424.74C662.506 423.38 664.906 422.7 667.626 422.7C671.666 422.7 674.846 423.96 677.166 426.48C679.486 429 680.646 432.4 680.646 436.68V437.4C680.606 437.76 680.466 438.04 680.226 438.24C680.026 438.44 679.746 438.54 679.386 438.54H657.906C658.026 441.9 658.906 444.74 660.546 447.06C662.226 449.34 664.726 450.48 668.046 450.48C669.846 450.48 671.426 450.16 672.786 449.52C674.186 448.84 675.726 447.66 677.406 445.98ZM667.626 426C664.986 426 662.806 426.82 661.086 428.46C659.406 430.06 658.386 432.42 658.026 435.54H676.686C676.606 432.62 675.766 430.3 674.166 428.58C672.566 426.86 670.386 426 667.626 426ZM722.929 411.6C722.929 410.8 723.329 410.4 724.129 410.4H725.689C726.489 410.4 726.889 410.8 726.889 411.6V451.8C726.889 452.6 726.489 453 725.689 453H724.429C723.629 453 723.229 452.6 723.229 451.8V447.9C722.149 449.78 720.729 451.22 718.969 452.22C717.209 453.22 715.129 453.72 712.729 453.72C710.209 453.72 707.969 453.08 706.009 451.8C704.049 450.48 702.509 448.66 701.389 446.34C700.269 443.98 699.709 441.28 699.709 438.24C699.709 435.2 700.269 432.52 701.389 430.2C702.549 427.84 704.129 426.02 706.129 424.74C708.129 423.42 710.369 422.76 712.849 422.76C717.409 422.76 720.769 424.46 722.929 427.86V411.6ZM713.029 450.36C716.029 450.36 718.449 449.3 720.289 447.18C722.169 445.02 723.109 442.04 723.109 438.24C723.109 434.48 722.169 431.52 720.289 429.36C718.449 427.2 716.029 426.12 713.029 426.12C710.269 426.12 708.029 427.24 706.309 429.48C704.629 431.72 703.789 434.64 703.789 438.24C703.789 441.88 704.629 444.82 706.309 447.06C707.989 449.26 710.229 450.36 713.029 450.36ZM757.328 445.98C757.608 445.7 757.908 445.56 758.228 445.56C758.508 445.56 758.768 445.68 759.008 445.92L759.788 446.64C760.068 446.92 760.208 447.22 760.208 447.54C760.208 447.78 760.088 448.06 759.848 448.38C757.888 450.34 755.988 451.74 754.148 452.58C752.308 453.38 750.248 453.78 747.968 453.78C745.088 453.78 742.588 453.14 740.468 451.86C738.348 450.58 736.708 448.8 735.548 446.52C734.388 444.2 733.808 441.52 733.808 438.48C733.808 435.4 734.368 432.68 735.488 430.32C736.648 427.92 738.268 426.06 740.348 424.74C742.428 423.38 744.828 422.7 747.548 422.7C751.588 422.7 754.768 423.96 757.088 426.48C759.408 429 760.568 432.4 760.568 436.68V437.4C760.528 437.76 760.388 438.04 760.148 438.24C759.948 438.44 759.668 438.54 759.308 438.54H737.828C737.948 441.9 738.828 444.74 740.468 447.06C742.148 449.34 744.648 450.48 747.968 450.48C749.768 450.48 751.348 450.16 752.708 449.52C754.108 448.84 755.648 447.66 757.328 445.98ZM747.548 426C744.908 426 742.728 426.82 741.008 428.46C739.328 430.06 738.308 432.42 737.948 435.54H756.608C756.528 432.62 755.688 430.3 754.088 428.58C752.488 426.86 750.308 426 747.548 426ZM778.217 453.78C775.777 453.78 773.617 453.44 771.737 452.76C769.897 452.04 767.957 450.84 765.917 449.16C765.557 448.92 765.377 448.64 765.377 448.32C765.377 448.04 765.517 447.76 765.797 447.48L766.577 446.64C766.817 446.32 767.117 446.16 767.477 446.16C767.757 446.16 768.017 446.28 768.257 446.52C770.177 448 771.877 449.04 773.357 449.64C774.837 450.2 776.457 450.48 778.217 450.48C780.417 450.48 782.217 450 783.617 449.04C785.017 448.04 785.717 446.7 785.717 445.02C785.717 443.34 784.997 442.1 783.557 441.3C782.117 440.5 779.897 439.78 776.897 439.14C774.257 438.58 772.177 438 770.657 437.4C769.177 436.76 768.077 435.96 767.357 435C766.637 434.04 766.277 432.78 766.277 431.22C766.277 428.66 767.317 426.6 769.397 425.04C771.477 423.48 774.097 422.7 777.257 422.7C779.417 422.7 781.337 422.98 783.017 423.54C784.737 424.06 786.457 424.94 788.177 426.18C788.537 426.46 788.717 426.76 788.717 427.08C788.717 427.28 788.617 427.54 788.417 427.86L787.697 428.76C787.497 429.08 787.217 429.24 786.857 429.24C786.537 429.24 786.257 429.14 786.017 428.94C784.377 427.78 782.917 427 781.637 426.6C780.397 426.2 778.977 426 777.377 426C775.177 426 773.417 426.48 772.097 427.44C770.777 428.4 770.117 429.62 770.117 431.1C770.117 432.02 770.417 432.76 771.017 433.32C771.617 433.88 772.477 434.36 773.597 434.76C774.717 435.12 776.357 435.54 778.517 436.02C782.517 436.9 785.357 437.98 787.037 439.26C788.757 440.54 789.617 442.4 789.617 444.84C789.617 447.52 788.557 449.68 786.437 451.32C784.317 452.96 781.577 453.78 778.217 453.78ZM798.295 415.92C797.495 415.92 796.815 415.64 796.255 415.08C795.735 414.52 795.475 413.84 795.475 413.04C795.475 412.24 795.735 411.58 796.255 411.06C796.815 410.54 797.495 410.28 798.295 410.28C799.135 410.28 799.815 410.54 800.335 411.06C800.895 411.58 801.175 412.24 801.175 413.04C801.175 413.84 800.895 414.52 800.335 415.08C799.815 415.64 799.135 415.92 798.295 415.92ZM797.515 453C796.715 453 796.315 452.6 796.315 451.8V424.62C796.315 423.82 796.715 423.42 797.515 423.42H799.075C799.875 423.42 800.275 423.82 800.275 424.62V451.8C800.275 452.6 799.875 453 799.075 453H797.515ZM830.328 424.62C830.328 423.82 830.728 423.42 831.528 423.42H832.788C833.588 423.42 833.988 423.82 833.988 424.62V452.7C833.988 456.42 832.868 459.34 830.628 461.46C828.388 463.62 825.248 464.7 821.208 464.7C816.848 464.7 812.828 463.46 809.148 460.98C808.748 460.74 808.548 460.44 808.548 460.08C808.548 459.8 808.628 459.56 808.788 459.36L809.508 458.34C809.748 457.94 810.068 457.74 810.468 457.74C810.628 457.74 810.868 457.82 811.188 457.98C812.948 459.1 814.588 459.94 816.108 460.5C817.668 461.06 819.368 461.34 821.208 461.34C823.848 461.34 825.988 460.6 827.628 459.12C829.268 457.68 830.088 455.44 830.088 452.4V447.6C827.928 451.08 824.648 452.82 820.248 452.82C817.688 452.82 815.428 452.18 813.468 450.9C811.508 449.58 809.988 447.78 808.908 445.5C807.868 443.22 807.348 440.64 807.348 437.76C807.348 434.88 807.868 432.3 808.908 430.02C809.988 427.74 811.508 425.96 813.468 424.68C815.428 423.36 817.688 422.7 820.248 422.7C822.568 422.7 824.568 423.2 826.248 424.2C827.968 425.16 829.328 426.54 830.328 428.34V424.62ZM820.668 449.46C823.548 449.46 825.848 448.38 827.568 446.22C829.288 444.02 830.148 441.2 830.148 437.76C830.148 434.32 829.288 431.52 827.568 429.36C825.848 427.16 823.548 426.06 820.668 426.06C817.748 426.06 815.468 427.14 813.828 429.3C812.228 431.46 811.428 434.28 811.428 437.76C811.428 441.24 812.228 444.06 813.828 446.22C815.468 448.38 817.748 449.46 820.668 449.46ZM856.097 422.7C859.577 422.7 862.197 423.66 863.957 425.58C865.757 427.5 866.657 429.9 866.657 432.78V451.8C866.657 452.6 866.257 453 865.457 453H863.897C863.097 453 862.697 452.6 862.697 451.8V434.1C862.697 431.46 862.057 429.46 860.777 428.1C859.497 426.74 857.657 426.06 855.257 426.06C853.737 426.06 852.337 426.44 851.057 427.2C849.777 427.92 848.757 428.92 847.997 430.2C847.237 431.48 846.857 432.88 846.857 434.4V451.8C846.857 452.6 846.457 453 845.657 453H844.097C843.297 453 842.897 452.6 842.897 451.8V424.62C842.897 423.82 843.297 423.42 844.097 423.42H845.417C846.217 423.42 846.617 423.82 846.617 424.62V427.5C847.617 425.9 848.937 424.7 850.577 423.9C852.217 423.1 854.057 422.7 856.097 422.7ZM910.605 411.6C910.605 410.8 911.005 410.4 911.805 410.4H913.365C914.165 410.4 914.565 410.8 914.565 411.6V451.8C914.565 452.6 914.165 453 913.365 453H912.105C911.305 453 910.905 452.6 910.905 451.8V447.9C909.825 449.78 908.405 451.22 906.645 452.22C904.885 453.22 902.805 453.72 900.405 453.72C897.885 453.72 895.645 453.08 893.685 451.8C891.725 450.48 890.185 448.66 889.065 446.34C887.945 443.98 887.385 441.28 887.385 438.24C887.385 435.2 887.945 432.52 889.065 430.2C890.225 427.84 891.805 426.02 893.805 424.74C895.805 423.42 898.045 422.76 900.525 422.76C905.085 422.76 908.445 424.46 910.605 427.86V411.6ZM900.705 450.36C903.705 450.36 906.125 449.3 907.965 447.18C909.845 445.02 910.785 442.04 910.785 438.24C910.785 434.48 909.845 431.52 907.965 429.36C906.125 427.2 903.705 426.12 900.705 426.12C897.945 426.12 895.705 427.24 893.985 429.48C892.305 431.72 891.465 434.64 891.465 438.24C891.465 441.88 892.305 444.82 893.985 447.06C895.665 449.26 897.905 450.36 900.705 450.36ZM945.003 445.98C945.283 445.7 945.583 445.56 945.903 445.56C946.183 445.56 946.443 445.68 946.683 445.92L947.463 446.64C947.743 446.92 947.883 447.22 947.883 447.54C947.883 447.78 947.763 448.06 947.523 448.38C945.563 450.34 943.663 451.74 941.823 452.58C939.983 453.38 937.923 453.78 935.643 453.78C932.763 453.78 930.263 453.14 928.143 451.86C926.023 450.58 924.383 448.8 923.223 446.52C922.063 444.2 921.483 441.52 921.483 438.48C921.483 435.4 922.043 432.68 923.163 430.32C924.323 427.92 925.943 426.06 928.023 424.74C930.103 423.38 932.503 422.7 935.223 422.7C939.263 422.7 942.443 423.96 944.763 426.48C947.083 429 948.243 432.4 948.243 436.68V437.4C948.203 437.76 948.063 438.04 947.823 438.24C947.623 438.44 947.343 438.54 946.983 438.54H925.503C925.623 441.9 926.503 444.74 928.143 447.06C929.823 449.34 932.323 450.48 935.643 450.48C937.443 450.48 939.023 450.16 940.383 449.52C941.783 448.84 943.323 447.66 945.003 445.98ZM935.223 426C932.583 426 930.403 426.82 928.683 428.46C927.003 430.06 925.983 432.42 925.623 435.54H944.283C944.203 432.62 943.363 430.3 941.763 428.58C940.163 426.86 937.983 426 935.223 426ZM969.498 422.76C971.978 422.76 974.198 423.42 976.158 424.74C978.158 426.02 979.718 427.84 980.838 430.2C981.958 432.52 982.518 435.18 982.518 438.18C982.518 441.22 981.958 443.92 980.838 446.28C979.718 448.64 978.178 450.48 976.218 451.8C974.258 453.08 972.018 453.72 969.498 453.72C964.858 453.72 961.458 452.02 959.298 448.62V462.84C959.298 463.64 958.898 464.04 958.098 464.04H956.538C955.738 464.04 955.338 463.64 955.338 462.84V424.62C955.338 423.82 955.738 423.42 956.538 423.42H957.858C958.658 423.42 959.058 423.82 959.058 424.62V428.4C960.138 426.56 961.558 425.16 963.318 424.2C965.078 423.24 967.138 422.76 969.498 422.76ZM969.198 450.36C971.998 450.36 974.238 449.24 975.918 447C977.598 444.76 978.438 441.82 978.438 438.18C978.438 434.58 977.598 431.68 975.918 429.48C974.238 427.24 971.998 426.12 969.198 426.12C966.198 426.12 963.758 427.2 961.878 429.36C960.038 431.48 959.118 434.42 959.118 438.18C959.118 441.94 960.058 444.92 961.938 447.12C963.818 449.28 966.238 450.36 969.198 450.36ZM1000.96 422.7C1004.6 422.7 1007.44 423.58 1009.48 425.34C1011.52 427.06 1012.54 429.34 1012.54 432.18V451.8C1012.54 452.6 1012.14 453 1011.34 453H1010.14C1009.34 453 1008.94 452.6 1008.94 451.8V449.1C1007.94 450.7 1006.52 451.9 1004.68 452.7C1002.88 453.5 1000.86 453.9 998.617 453.9C995.497 453.9 992.957 453.24 990.997 451.92C989.037 450.6 988.057 448.56 988.057 445.8C988.057 443.6 988.677 441.84 989.917 440.52C991.157 439.16 992.777 438.14 994.777 437.46C996.777 436.74 999.277 436.1 1002.28 435.54L1008.76 434.4V432.48C1008.76 430.44 1008.06 428.86 1006.66 427.74C1005.26 426.58 1003.42 426 1001.14 426C999.417 426 997.857 426.32 996.457 426.96C995.057 427.6 993.557 428.7 991.957 430.26C991.677 430.54 991.377 430.68 991.057 430.68C990.777 430.68 990.517 430.56 990.277 430.32L989.497 429.6C989.217 429.32 989.077 429.02 989.077 428.7C989.077 428.34 989.217 428.02 989.497 427.74C991.177 425.98 992.937 424.7 994.777 423.9C996.657 423.1 998.717 422.7 1000.96 422.7ZM998.797 450.6C1001.68 450.6 1004.06 449.84 1005.94 448.32C1007.82 446.8 1008.76 444.86 1008.76 442.5V437.46L1003.18 438.54C1000.58 439.06 998.517 439.56 996.997 440.04C995.477 440.52 994.257 441.22 993.337 442.14C992.417 443.06 991.957 444.26 991.957 445.74C991.957 447.26 992.557 448.46 993.757 449.34C994.997 450.18 996.677 450.6 998.797 450.6ZM1032.36 423.18C1033.36 423.18 1034.54 423.34 1035.9 423.66C1036.62 423.9 1036.9 424.4 1036.74 425.16L1036.5 426.12C1036.3 426.88 1035.8 427.16 1035 426.96C1034.04 426.72 1033.16 426.6 1032.36 426.6C1030.32 426.6 1028.62 427.48 1027.26 429.24C1025.94 431 1025.28 433.44 1025.28 436.56V451.8C1025.28 452.6 1024.88 453 1024.08 453H1022.52C1021.72 453 1021.32 452.6 1021.32 451.8V424.62C1021.32 423.82 1021.72 423.42 1022.52 423.42H1023.84C1024.64 423.42 1025.04 423.82 1025.04 424.62V427.92C1025.72 426.44 1026.68 425.28 1027.92 424.44C1029.2 423.6 1030.68 423.18 1032.36 423.18ZM1056.02 449.7C1056.14 449.66 1056.3 449.64 1056.5 449.64C1056.74 449.64 1056.96 449.72 1057.16 449.88C1057.36 450.04 1057.48 450.26 1057.52 450.54L1057.7 451.38C1057.74 451.46 1057.76 451.6 1057.76 451.8C1057.76 452.36 1057.46 452.7 1056.86 452.82C1055.42 453.26 1053.88 453.48 1052.24 453.48C1049.64 453.48 1047.78 452.9 1046.66 451.74C1045.58 450.54 1045.04 448.82 1045.04 446.58V426.42H1040.6C1039.8 426.42 1039.4 426.02 1039.4 425.22V424.62C1039.4 423.82 1039.8 423.42 1040.6 423.42H1045.04V414.3C1045.04 413.5 1045.44 413.1 1046.24 413.1H1047.8C1048.6 413.1 1049 413.5 1049 414.3V423.42H1056.2C1057 423.42 1057.4 423.82 1057.4 424.62V425.22C1057.4 426.02 1057 426.42 1056.2 426.42H1049V446.1C1049 447.58 1049.28 448.62 1049.84 449.22C1050.4 449.82 1051.36 450.12 1052.72 450.12C1053.68 450.12 1054.78 449.98 1056.02 449.7ZM1093.5 422.7C1096.7 422.7 1099.14 423.62 1100.82 425.46C1102.54 427.26 1103.4 429.58 1103.4 432.42V451.8C1103.4 452.6 1103 453 1102.2 453H1100.64C1099.84 453 1099.44 452.6 1099.44 451.8V433.5C1099.44 431.1 1098.88 429.26 1097.76 427.98C1096.68 426.7 1095.06 426.06 1092.9 426.06C1090.62 426.06 1088.8 426.82 1087.44 428.34C1086.08 429.86 1085.4 431.82 1085.4 434.22V451.8C1085.4 452.6 1085 453 1084.2 453H1082.64C1081.84 453 1081.44 452.6 1081.44 451.8V433.5C1081.44 431.1 1080.88 429.26 1079.76 427.98C1078.68 426.7 1077.04 426.06 1074.84 426.06C1072.8 426.06 1071.1 426.7 1069.74 427.98C1068.42 429.26 1067.64 430.94 1067.4 433.02V451.8C1067.4 452.6 1067 453 1066.2 453H1064.64C1063.84 453 1063.44 452.6 1063.44 451.8V424.62C1063.44 423.82 1063.84 423.42 1064.64 423.42H1065.96C1066.76 423.42 1067.16 423.82 1067.16 424.62V427.08C1068.96 424.16 1071.82 422.7 1075.74 422.7C1077.78 422.7 1079.52 423.16 1080.96 424.08C1082.44 424.96 1083.54 426.16 1084.26 427.68C1086.38 424.36 1089.46 422.7 1093.5 422.7ZM1133.68 445.98C1133.96 445.7 1134.26 445.56 1134.58 445.56C1134.86 445.56 1135.12 445.68 1135.36 445.92L1136.14 446.64C1136.42 446.92 1136.56 447.22 1136.56 447.54C1136.56 447.78 1136.44 448.06 1136.2 448.38C1134.24 450.34 1132.34 451.74 1130.5 452.58C1128.66 453.38 1126.6 453.78 1124.32 453.78C1121.44 453.78 1118.94 453.14 1116.82 451.86C1114.7 450.58 1113.06 448.8 1111.9 446.52C1110.74 444.2 1110.16 441.52 1110.16 438.48C1110.16 435.4 1110.72 432.68 1111.84 430.32C1113 427.92 1114.62 426.06 1116.7 424.74C1118.78 423.38 1121.18 422.7 1123.9 422.7C1127.94 422.7 1131.12 423.96 1133.44 426.48C1135.76 429 1136.92 432.4 1136.92 436.68V437.4C1136.88 437.76 1136.74 438.04 1136.5 438.24C1136.3 438.44 1136.02 438.54 1135.66 438.54H1114.18C1114.3 441.9 1115.18 444.74 1116.82 447.06C1118.5 449.34 1121 450.48 1124.32 450.48C1126.12 450.48 1127.7 450.16 1129.06 449.52C1130.46 448.84 1132 447.66 1133.68 445.98ZM1123.9 426C1121.26 426 1119.08 426.82 1117.36 428.46C1115.68 430.06 1114.66 432.42 1114.3 435.54H1132.96C1132.88 432.62 1132.04 430.3 1130.44 428.58C1128.84 426.86 1126.66 426 1123.9 426ZM1157.21 422.7C1160.69 422.7 1163.31 423.66 1165.07 425.58C1166.87 427.5 1167.77 429.9 1167.77 432.78V451.8C1167.77 452.6 1167.37 453 1166.57 453H1165.01C1164.21 453 1163.81 452.6 1163.81 451.8V434.1C1163.81 431.46 1163.17 429.46 1161.89 428.1C1160.61 426.74 1158.77 426.06 1156.37 426.06C1154.85 426.06 1153.45 426.44 1152.17 427.2C1150.89 427.92 1149.87 428.92 1149.11 430.2C1148.35 431.48 1147.97 432.88 1147.97 434.4V451.8C1147.97 452.6 1147.57 453 1146.77 453H1145.21C1144.41 453 1144.01 452.6 1144.01 451.8V424.62C1144.01 423.82 1144.41 423.42 1145.21 423.42H1146.53C1147.33 423.42 1147.73 423.82 1147.73 424.62V427.5C1148.73 425.9 1150.05 424.7 1151.69 423.9C1153.33 423.1 1155.17 422.7 1157.21 422.7ZM1189.03 449.7C1189.15 449.66 1189.31 449.64 1189.51 449.64C1189.75 449.64 1189.97 449.72 1190.17 449.88C1190.37 450.04 1190.49 450.26 1190.53 450.54L1190.71 451.38C1190.75 451.46 1190.77 451.6 1190.77 451.8C1190.77 452.36 1190.47 452.7 1189.87 452.82C1188.43 453.26 1186.89 453.48 1185.25 453.48C1182.65 453.48 1180.79 452.9 1179.67 451.74C1178.59 450.54 1178.05 448.82 1178.05 446.58V426.42H1173.61C1172.81 426.42 1172.41 426.02 1172.41 425.22V424.62C1172.41 423.82 1172.81 423.42 1173.61 423.42H1178.05V414.3C1178.05 413.5 1178.45 413.1 1179.25 413.1H1180.81C1181.61 413.1 1182.01 413.5 1182.01 414.3V423.42H1189.21C1190.01 423.42 1190.41 423.82 1190.41 424.62V425.22C1190.41 426.02 1190.01 426.42 1189.21 426.42H1182.01V446.1C1182.01 447.58 1182.29 448.62 1182.85 449.22C1183.41 449.82 1184.37 450.12 1185.73 450.12C1186.69 450.12 1187.79 449.98 1189.03 449.7Z" fill="white"/>
</g>
<rect x="8" y="8" width="1904" height="1063" stroke="white" stroke-width="16"/>
<defs>
<clipPath id="clip0_989_13205">
<rect width="1920" height="1079" fill="white"/>
</clipPath>
</defs>
</svg>
