<svg width="1920" height="1079" viewBox="0 0 1920 1079" fill="none" xmlns="http://www.w3.org/2000/svg">
<g clip-path="url(#clip0_989_13242)">
<rect width="1920" height="1079" fill="white"/>
<rect x="8" y="8" width="1904" height="1064" fill="#0063FB" stroke="white" stroke-width="16"/>
<rect x="1737.69" y="897.451" width="166" height="166" fill="#38BDF8"/>
<path d="M1915.69 1075.49H1725.6V885.013H1915.69V1075.49ZM1738.04 1063.03H1903.18V897.555H1738.04V1063.03Z" fill="white"/>
<path d="M1827.59 808.549C1869.26 808.549 1903.18 842.533 1903.18 884.285V885.094H1826.78V808.549H1827.59ZM1827.59 796.007H1814.35V897.474H1915.61V884.204C1915.61 835.493 1876.21 796.007 1827.59 796.007Z" fill="white"/>
<path d="M1649.21 991.659L1720.43 1063.03H1649.21V991.659ZM1649.21 974.019H1636.77V1075.49H1738.04V1063.03L1649.21 974.019Z" fill="white"/>
<path d="M1725.6 986.48V1063.03H1649.21V986.48H1725.6ZM1738.04 974.019H1636.77V1075.49H1738.04V974.019Z" fill="white"/>
<path d="M1559.49 951.121L1505.55 1005.17L1451.6 951.121L1505.55 897.07L1559.49 951.121ZM1577.09 951.121L1505.55 879.43L1434 951.121L1505.55 1022.81L1577.09 951.121Z" fill="white"/>
<path d="M1700.69 849.451H1622.69V771.451H1700.69V849.451Z" fill="#BAE6FD"/>
<path d="M1623.61 772.461H1699.92V848.925H1623.61V772.461ZM1611.09 760V861.386H1712.28V760H1611.09Z" fill="white"/>
<path fill-rule="evenodd" clip-rule="evenodd" d="M181.281 163.915H165.717C164.746 163.915 163.957 164.696 163.957 165.656V214.344C163.957 215.304 164.746 216.085 165.717 216.085H216.69V198.946C216.69 179.629 200.805 163.915 181.281 163.915Z" fill="#0063FB"/>
<path fill-rule="evenodd" clip-rule="evenodd" d="M328.283 163.915H222.406C221.436 163.915 220.646 164.696 220.646 165.656V216.085H328.283C329.253 216.085 330.043 215.304 330.043 214.344V165.656C330.043 164.696 329.253 163.915 328.283 163.915Z" fill="#06BEFB"/>
<path fill-rule="evenodd" clip-rule="evenodd" d="M163.957 214.344V165.656C163.957 164.696 164.747 163.915 165.717 163.915H181.281C200.805 163.915 216.689 179.63 216.689 198.946V216.085H165.717C164.747 216.085 163.957 215.304 163.957 214.344ZM330.043 214.344C330.043 215.304 329.253 216.085 328.283 216.085H220.646V165.656C220.646 164.696 221.436 163.915 222.407 163.915H328.283C329.253 163.915 330.043 164.696 330.043 165.656V214.344ZM328.283 160H222.407C219.254 160 216.689 162.537 216.689 165.656V181.939C210.296 168.963 196.827 160 181.281 160H165.717C162.565 160 160 162.537 160 165.656V214.344C160 217.463 162.565 220 165.717 220H328.283C331.435 220 334 217.463 334 214.344V165.656C334 162.537 331.435 160 328.283 160Z" fill="white"/>
<path fill-rule="evenodd" clip-rule="evenodd" d="M238.503 179.828H252.76C253.379 179.828 253.881 180.325 253.881 180.938V184.418C253.881 185.031 253.379 185.528 252.76 185.528H243.618V190.12H250.897C251.516 190.12 252.018 190.617 252.018 191.23V194.193C252.018 194.805 251.516 195.302 250.897 195.302H243.618V199.063C243.618 199.675 243.115 200.172 242.496 200.172H238.503C237.883 200.172 237.381 199.675 237.381 199.063V180.938C237.381 180.325 237.883 179.828 238.503 179.828ZM260.092 179.828H264.085C264.704 179.828 265.207 180.325 265.207 180.938V199.063C265.207 199.675 264.704 200.172 264.085 200.172H260.092C259.472 200.172 258.97 199.675 258.97 199.063V180.938C258.97 180.325 259.472 179.828 260.092 179.828ZM312.187 179.828H308.193C307.574 179.828 307.072 180.325 307.072 180.938V189.825L300.828 180.491C300.551 180.077 300.082 179.828 299.58 179.828H296.513C295.893 179.828 295.391 180.325 295.391 180.938V199.063C295.391 199.675 295.893 200.172 296.513 200.172H300.506C301.126 200.172 301.628 199.675 301.628 199.063V190.278L307.735 199.503C308.012 199.92 308.482 200.172 308.986 200.172H312.187C312.806 200.172 313.308 199.675 313.308 199.063V180.938C313.308 180.325 312.806 179.828 312.187 179.828ZM284.142 179.828H288.136C288.755 179.828 289.258 180.325 289.258 180.938V199.063C289.258 199.675 288.755 200.172 288.136 200.172H284.935C284.431 200.172 283.961 199.92 283.685 199.503L277.577 190.278V199.063C277.577 199.675 277.075 200.172 276.456 200.172H272.462C271.843 200.172 271.34 199.675 271.34 199.063V180.938C271.34 180.325 271.843 179.828 272.462 179.828H275.53C276.031 179.828 276.5 180.077 276.777 180.491L283.021 189.825V180.938C283.021 180.325 283.523 179.828 284.142 179.828Z" fill="white"/>
<path d="M170.944 373C168.384 373 167.104 371.72 167.104 369.16V308.68C167.104 306.12 168.384 304.84 170.944 304.84H210.688C213.248 304.84 214.528 306.12 214.528 308.68V311.656C214.528 314.216 213.248 315.496 210.688 315.496H179.68V334.216H208.384C210.944 334.216 212.224 335.496 212.224 338.056V341.032C212.224 343.592 210.944 344.872 208.384 344.872H179.68V369.16C179.68 371.72 178.4 373 175.84 373H170.944ZM229.741 373C227.181 373 225.901 371.72 225.901 369.16V308.68C225.901 306.12 227.181 304.84 229.741 304.84H234.637C237.197 304.84 238.477 306.12 238.477 308.68V369.16C238.477 371.72 237.197 373 234.637 373H229.741ZM298.09 308.68C298.09 306.12 299.37 304.84 301.93 304.84H306.442C309.002 304.84 310.282 306.12 310.282 308.68V369.16C310.282 371.72 309.002 373 306.442 373H299.818C297.77 373 296.234 372.168 295.21 370.504L278.986 344.776L277.162 341.896C276.394 340.616 274.634 337.8 271.882 333.448C269.194 329.096 266.922 325.128 265.066 321.544C265.386 328.328 265.546 337.192 265.546 348.136V369.16C265.546 371.72 264.266 373 261.706 373H257.194C254.634 373 253.354 371.72 253.354 369.16V308.68C253.354 306.12 254.634 304.84 257.194 304.84H264.106C266.154 304.84 267.69 305.704 268.714 307.432L285.802 334.6C291.626 343.752 295.85 350.76 298.474 355.624C298.218 349.032 298.09 340.744 298.09 330.76V308.68ZM369.246 308.68C369.246 306.12 370.526 304.84 373.086 304.84H377.598C380.158 304.84 381.438 306.12 381.438 308.68V369.16C381.438 371.72 380.158 373 377.598 373H370.974C368.926 373 367.39 372.168 366.366 370.504L350.142 344.776L348.318 341.896C347.55 340.616 345.79 337.8 343.038 333.448C340.35 329.096 338.078 325.128 336.222 321.544C336.542 328.328 336.702 337.192 336.702 348.136V369.16C336.702 371.72 335.422 373 332.862 373H328.35C325.79 373 324.51 371.72 324.51 369.16V308.68C324.51 306.12 325.79 304.84 328.35 304.84H335.262C337.31 304.84 338.846 305.704 339.87 307.432L356.958 334.6C362.782 343.752 367.006 350.76 369.63 355.624C369.374 349.032 369.246 340.744 369.246 330.76V308.68ZM435.501 373C432.941 373 431.661 371.72 431.661 369.16V315.592H415.245C412.685 315.592 411.405 314.312 411.405 311.752V308.68C411.405 306.12 412.685 304.84 415.245 304.84H460.749C463.309 304.84 464.589 306.12 464.589 308.68V311.752C464.589 314.312 463.309 315.592 460.749 315.592H444.333V369.16C444.333 371.72 443.053 373 440.493 373H435.501ZM494.853 360.424C495.813 359.656 496.709 359.272 497.541 359.272C498.501 359.272 499.397 359.752 500.229 360.712L501.861 362.44C502.693 363.272 503.109 364.136 503.109 365.032C503.109 366.12 502.597 367.08 501.573 367.912C498.693 370.28 495.781 371.976 492.837 373C489.957 374.024 486.789 374.536 483.333 374.536C478.277 374.536 473.893 373.512 470.181 371.464C466.469 369.416 463.621 366.504 461.637 362.728C459.653 358.952 458.661 354.568 458.661 349.576C458.661 344.712 459.589 340.36 461.445 336.52C463.365 332.616 466.117 329.576 469.701 327.4C473.285 325.224 477.477 324.136 482.277 324.136C489.381 324.136 494.821 326.216 498.597 330.376C502.437 334.536 504.357 340.296 504.357 347.656V348.52C504.293 351.016 502.981 352.264 500.421 352.264H470.085C470.533 356.04 471.877 359.048 474.117 361.288C476.421 363.528 479.557 364.648 483.525 364.648C485.701 364.648 487.621 364.328 489.285 363.688C490.949 363.048 492.805 361.96 494.853 360.424ZM481.989 333.352C478.853 333.352 476.293 334.312 474.309 336.232C472.325 338.088 471.013 340.648 470.373 343.912H492.933C492.677 340.648 491.621 338.088 489.765 336.232C487.909 334.312 485.317 333.352 481.989 333.352ZM534.786 374.536C530.05 374.536 525.858 373.512 522.21 371.464C518.626 369.416 515.81 366.504 513.762 362.728C511.778 358.888 510.786 354.408 510.786 349.288C510.786 344.168 511.81 339.72 513.858 335.944C515.906 332.104 518.754 329.192 522.402 327.208C526.114 325.16 530.338 324.136 535.074 324.136C538.402 324.136 541.41 324.616 544.098 325.576C546.85 326.536 549.506 328.136 552.066 330.376C553.026 331.208 553.506 332.104 553.506 333.064C553.506 334.024 553.026 334.952 552.066 335.848L550.146 337.768C549.314 338.6 548.45 339.016 547.554 339.016C546.722 339.016 545.73 338.6 544.578 337.768C542.786 336.36 541.154 335.4 539.682 334.888C538.274 334.376 536.738 334.12 535.074 334.12C531.17 334.12 528.13 335.56 525.954 338.44C523.778 341.32 522.69 344.936 522.69 349.288C522.69 353.64 523.746 357.288 525.858 360.232C528.034 363.112 531.074 364.552 534.978 364.552C536.898 364.552 538.626 364.2 540.162 363.496C541.762 362.728 543.458 361.48 545.25 359.752C546.21 358.792 547.202 358.312 548.226 358.312C549.058 358.312 549.922 358.696 550.818 359.464L552.738 361.096C553.698 361.864 554.178 362.792 554.178 363.88C554.178 364.968 553.602 366.088 552.45 367.24C549.826 369.928 547.106 371.816 544.29 372.904C541.538 373.992 538.37 374.536 534.786 374.536ZM587.28 324.136C592.656 324.136 596.816 325.64 599.76 328.648C602.704 331.656 604.176 335.624 604.176 340.552V369.16C604.176 371.72 602.896 373 600.336 373H596.304C593.744 373 592.464 371.72 592.464 369.16V344.104C592.464 340.968 591.696 338.536 590.16 336.808C588.624 335.08 586.416 334.216 583.536 334.216C580.72 334.216 578.384 335.176 576.528 337.096C574.672 339.016 573.744 341.448 573.744 344.392V369.16C573.744 371.72 572.464 373 569.904 373H565.872C563.312 373 562.032 371.72 562.032 369.16V308.68C562.032 306.12 563.312 304.84 565.872 304.84H569.904C572.464 304.84 573.744 306.12 573.744 308.68V330.184C575.28 328.264 577.2 326.792 579.504 325.768C581.808 324.68 584.4 324.136 587.28 324.136ZM182.56 453.9C178.52 453.9 175 452.96 172 451.08C169 449.16 166.7 446.52 165.1 443.16C163.5 439.8 162.7 435.98 162.7 431.7C162.7 427.42 163.5 423.6 165.1 420.24C166.7 416.88 169 414.26 172 412.38C175 410.46 178.52 409.5 182.56 409.5C186.6 409.5 190.12 410.46 193.12 412.38C196.12 414.26 198.42 416.88 200.02 420.24C201.62 423.6 202.42 427.42 202.42 431.7C202.42 435.98 201.62 439.8 200.02 443.16C198.42 446.52 196.12 449.16 193.12 451.08C190.12 452.96 186.6 453.9 182.56 453.9ZM182.56 450.24C185.64 450.24 188.36 449.46 190.72 447.9C193.08 446.3 194.9 444.1 196.18 441.3C197.5 438.46 198.16 435.26 198.16 431.7C198.16 428.14 197.5 424.96 196.18 422.16C194.9 419.32 193.08 417.12 190.72 415.56C188.36 413.96 185.64 413.16 182.56 413.16C179.48 413.16 176.76 413.96 174.4 415.56C172.04 417.12 170.2 419.32 168.88 422.16C167.6 424.96 166.96 428.14 166.96 431.7C166.96 435.26 167.6 438.46 168.88 441.3C170.2 444.1 172.04 446.3 174.4 447.9C176.76 449.46 179.48 450.24 182.56 450.24ZM228.699 424.62C228.699 423.82 229.099 423.42 229.899 423.42H231.459C232.259 423.42 232.659 423.82 232.659 424.62V451.8C232.659 452.6 232.259 453 231.459 453H230.199C229.399 453 228.999 452.6 228.999 451.8V449.1C228.119 450.66 226.859 451.84 225.219 452.64C223.619 453.4 221.859 453.78 219.939 453.78C216.339 453.78 213.679 452.88 211.959 451.08C210.239 449.24 209.379 446.88 209.379 444V424.62C209.379 423.82 209.779 423.42 210.579 423.42H212.139C212.939 423.42 213.339 423.82 213.339 424.62V443.16C213.339 445.52 213.919 447.32 215.079 448.56C216.279 449.76 217.979 450.36 220.179 450.36C222.659 450.36 224.699 449.6 226.299 448.08C227.899 446.56 228.699 444.4 228.699 441.6V424.62ZM252.589 423.18C253.589 423.18 254.769 423.34 256.129 423.66C256.849 423.9 257.129 424.4 256.969 425.16L256.729 426.12C256.529 426.88 256.029 427.16 255.229 426.96C254.269 426.72 253.389 426.6 252.589 426.6C250.549 426.6 248.849 427.48 247.489 429.24C246.169 431 245.509 433.44 245.509 436.56V451.8C245.509 452.6 245.109 453 244.309 453H242.749C241.949 453 241.549 452.6 241.549 451.8V424.62C241.549 423.82 241.949 423.42 242.749 423.42H244.069C244.869 423.42 245.269 423.82 245.269 424.62V427.92C245.949 426.44 246.909 425.28 248.149 424.44C249.429 423.6 250.909 423.18 252.589 423.18ZM297.538 411.6C297.538 410.8 297.938 410.4 298.738 410.4H300.298C301.098 410.4 301.498 410.8 301.498 411.6V451.8C301.498 452.6 301.098 453 300.298 453H299.038C298.238 453 297.838 452.6 297.838 451.8V447.9C296.758 449.78 295.338 451.22 293.578 452.22C291.818 453.22 289.738 453.72 287.338 453.72C284.818 453.72 282.578 453.08 280.618 451.8C278.658 450.48 277.118 448.66 275.998 446.34C274.878 443.98 274.318 441.28 274.318 438.24C274.318 435.2 274.878 432.52 275.998 430.2C277.158 427.84 278.738 426.02 280.738 424.74C282.738 423.42 284.978 422.76 287.458 422.76C292.018 422.76 295.378 424.46 297.538 427.86V411.6ZM287.638 450.36C290.638 450.36 293.058 449.3 294.898 447.18C296.778 445.02 297.718 442.04 297.718 438.24C297.718 434.48 296.778 431.52 294.898 429.36C293.058 427.2 290.638 426.12 287.638 426.12C284.878 426.12 282.638 427.24 280.918 429.48C279.238 431.72 278.398 434.64 278.398 438.24C278.398 441.88 279.238 444.82 280.918 447.06C282.598 449.26 284.838 450.36 287.638 450.36ZM331.937 445.98C332.217 445.7 332.517 445.56 332.837 445.56C333.117 445.56 333.377 445.68 333.617 445.92L334.397 446.64C334.677 446.92 334.817 447.22 334.817 447.54C334.817 447.78 334.697 448.06 334.457 448.38C332.497 450.34 330.597 451.74 328.757 452.58C326.917 453.38 324.857 453.78 322.577 453.78C319.697 453.78 317.197 453.14 315.077 451.86C312.957 450.58 311.317 448.8 310.157 446.52C308.997 444.2 308.417 441.52 308.417 438.48C308.417 435.4 308.977 432.68 310.097 430.32C311.257 427.92 312.877 426.06 314.957 424.74C317.037 423.38 319.437 422.7 322.157 422.7C326.197 422.7 329.377 423.96 331.697 426.48C334.017 429 335.177 432.4 335.177 436.68V437.4C335.137 437.76 334.997 438.04 334.757 438.24C334.557 438.44 334.277 438.54 333.917 438.54H312.437C312.557 441.9 313.437 444.74 315.077 447.06C316.757 449.34 319.257 450.48 322.577 450.48C324.377 450.48 325.957 450.16 327.317 449.52C328.717 448.84 330.257 447.66 331.937 445.98ZM322.157 426C319.517 426 317.337 426.82 315.617 428.46C313.937 430.06 312.917 432.42 312.557 435.54H331.217C331.137 432.62 330.297 430.3 328.697 428.58C327.097 426.86 324.917 426 322.157 426ZM360.395 424.38C360.635 423.74 361.095 423.42 361.775 423.42H363.335C363.655 423.42 363.915 423.5 364.115 423.66C364.315 423.82 364.415 424.04 364.415 424.32L364.295 424.8L354.755 452.04C354.515 452.68 354.055 453 353.375 453H350.195C349.515 453 349.055 452.68 348.815 452.04L339.335 424.8L339.215 424.32C339.215 424.04 339.315 423.82 339.515 423.66C339.715 423.5 339.975 423.42 340.295 423.42H341.915C342.595 423.42 343.055 423.74 343.295 424.38L346.955 434.94C348.475 439.34 350.095 444.4 351.815 450.12C351.895 449.88 352.115 449.2 352.475 448.08C354.115 442.68 355.535 438.3 356.735 434.94L360.395 424.38ZM391.468 445.98C391.748 445.7 392.048 445.56 392.368 445.56C392.648 445.56 392.908 445.68 393.148 445.92L393.928 446.64C394.208 446.92 394.348 447.22 394.348 447.54C394.348 447.78 394.228 448.06 393.988 448.38C392.028 450.34 390.128 451.74 388.288 452.58C386.448 453.38 384.388 453.78 382.108 453.78C379.228 453.78 376.728 453.14 374.608 451.86C372.488 450.58 370.848 448.8 369.688 446.52C368.528 444.2 367.948 441.52 367.948 438.48C367.948 435.4 368.508 432.68 369.628 430.32C370.788 427.92 372.408 426.06 374.488 424.74C376.568 423.38 378.968 422.7 381.688 422.7C385.728 422.7 388.908 423.96 391.228 426.48C393.548 429 394.708 432.4 394.708 436.68V437.4C394.668 437.76 394.528 438.04 394.288 438.24C394.088 438.44 393.808 438.54 393.448 438.54H371.968C372.088 441.9 372.968 444.74 374.608 447.06C376.288 449.34 378.788 450.48 382.108 450.48C383.908 450.48 385.488 450.16 386.848 449.52C388.248 448.84 389.788 447.66 391.468 445.98ZM381.688 426C379.048 426 376.868 426.82 375.148 428.46C373.468 430.06 372.448 432.42 372.088 435.54H390.748C390.668 432.62 389.828 430.3 388.228 428.58C386.628 426.86 384.448 426 381.688 426ZM403.063 453C402.263 453 401.863 452.6 401.863 451.8V411.6C401.863 410.8 402.263 410.4 403.063 410.4H404.623C405.423 410.4 405.823 410.8 405.823 411.6V451.8C405.823 452.6 405.423 453 404.623 453H403.063ZM426.993 453.78C424.233 453.78 421.773 453.12 419.613 451.8C417.453 450.48 415.773 448.66 414.573 446.34C413.373 443.98 412.773 441.28 412.773 438.24C412.773 435.2 413.373 432.52 414.573 430.2C415.773 427.84 417.453 426 419.613 424.68C421.773 423.36 424.233 422.7 426.993 422.7C429.753 422.7 432.213 423.36 434.373 424.68C436.533 426 438.213 427.84 439.413 430.2C440.613 432.52 441.213 435.2 441.213 438.24C441.213 441.28 440.613 443.98 439.413 446.34C438.213 448.66 436.533 450.48 434.373 451.8C432.213 453.12 429.753 453.78 426.993 453.78ZM426.993 450.48C430.073 450.48 432.533 449.36 434.373 447.12C436.213 444.84 437.133 441.88 437.133 438.24C437.133 434.6 436.213 431.66 434.373 429.42C432.533 427.14 430.073 426 426.993 426C423.913 426 421.453 427.14 419.613 429.42C417.773 431.66 416.853 434.6 416.853 438.24C416.853 441.88 417.773 444.84 419.613 447.12C421.453 449.36 423.913 450.48 426.993 450.48ZM462.252 422.76C464.732 422.76 466.952 423.42 468.912 424.74C470.912 426.02 472.472 427.84 473.592 430.2C474.712 432.52 475.272 435.18 475.272 438.18C475.272 441.22 474.712 443.92 473.592 446.28C472.472 448.64 470.932 450.48 468.972 451.8C467.012 453.08 464.772 453.72 462.252 453.72C457.612 453.72 454.212 452.02 452.052 448.62V462.84C452.052 463.64 451.652 464.04 450.852 464.04H449.292C448.492 464.04 448.092 463.64 448.092 462.84V424.62C448.092 423.82 448.492 423.42 449.292 423.42H450.612C451.412 423.42 451.812 423.82 451.812 424.62V428.4C452.892 426.56 454.312 425.16 456.072 424.2C457.832 423.24 459.892 422.76 462.252 422.76ZM461.952 450.36C464.752 450.36 466.992 449.24 468.672 447C470.352 444.76 471.192 441.82 471.192 438.18C471.192 434.58 470.352 431.68 468.672 429.48C466.992 427.24 464.752 426.12 461.952 426.12C458.952 426.12 456.512 427.2 454.632 429.36C452.792 431.48 451.872 434.42 451.872 438.18C451.872 441.94 452.812 444.92 454.692 447.12C456.572 449.28 458.992 450.36 461.952 450.36ZM504.203 445.98C504.483 445.7 504.783 445.56 505.103 445.56C505.383 445.56 505.643 445.68 505.883 445.92L506.663 446.64C506.943 446.92 507.083 447.22 507.083 447.54C507.083 447.78 506.963 448.06 506.723 448.38C504.763 450.34 502.863 451.74 501.023 452.58C499.183 453.38 497.123 453.78 494.843 453.78C491.963 453.78 489.463 453.14 487.343 451.86C485.223 450.58 483.583 448.8 482.423 446.52C481.263 444.2 480.683 441.52 480.683 438.48C480.683 435.4 481.243 432.68 482.363 430.32C483.523 427.92 485.143 426.06 487.223 424.74C489.303 423.38 491.703 422.7 494.423 422.7C498.463 422.7 501.643 423.96 503.963 426.48C506.283 429 507.443 432.4 507.443 436.68V437.4C507.403 437.76 507.263 438.04 507.023 438.24C506.823 438.44 506.543 438.54 506.183 438.54H484.703C484.823 441.9 485.703 444.74 487.343 447.06C489.023 449.34 491.523 450.48 494.843 450.48C496.643 450.48 498.223 450.16 499.583 449.52C500.983 448.84 502.523 447.66 504.203 445.98ZM494.423 426C491.783 426 489.603 426.82 487.883 428.46C486.203 430.06 485.183 432.42 484.823 435.54H503.483C503.403 432.62 502.563 430.3 500.963 428.58C499.363 426.86 497.183 426 494.423 426ZM525.578 423.18C526.578 423.18 527.758 423.34 529.118 423.66C529.838 423.9 530.118 424.4 529.958 425.16L529.718 426.12C529.518 426.88 529.018 427.16 528.218 426.96C527.258 426.72 526.378 426.6 525.578 426.6C523.538 426.6 521.838 427.48 520.478 429.24C519.158 431 518.498 433.44 518.498 436.56V451.8C518.498 452.6 518.098 453 517.298 453H515.738C514.938 453 514.538 452.6 514.538 451.8V424.62C514.538 423.82 514.938 423.42 515.738 423.42H517.058C517.858 423.42 518.258 423.82 518.258 424.62V427.92C518.938 426.44 519.898 425.28 521.138 424.44C522.418 423.6 523.898 423.18 525.578 423.18ZM561.167 453.78C558.327 453.78 555.847 453.14 553.727 451.86C551.647 450.54 550.027 448.72 548.867 446.4C547.747 444.04 547.187 441.32 547.187 438.24C547.187 435.2 547.747 432.5 548.867 430.14C550.027 427.78 551.647 425.96 553.727 424.68C555.847 423.36 558.287 422.7 561.047 422.7C563.287 422.7 565.247 423.08 566.927 423.84C568.607 424.56 570.227 425.76 571.787 427.44C572.027 427.68 572.147 427.94 572.147 428.22C572.147 428.58 571.987 428.88 571.667 429.12L570.827 429.9C570.587 430.14 570.307 430.26 569.987 430.26C569.707 430.26 569.407 430.1 569.087 429.78C567.687 428.38 566.347 427.4 565.067 426.84C563.827 426.28 562.447 426 560.927 426C558.847 426 557.067 426.58 555.587 427.74C554.147 428.9 553.067 430.42 552.347 432.3C551.627 434.14 551.267 436.12 551.267 438.24C551.267 440.36 551.627 442.36 552.347 444.24C553.067 446.08 554.167 447.58 555.647 448.74C557.127 449.86 558.947 450.42 561.107 450.42C562.707 450.42 564.107 450.14 565.307 449.58C566.547 448.98 567.927 447.86 569.447 446.22C569.767 445.9 570.067 445.74 570.347 445.74C570.667 445.74 570.947 445.86 571.187 446.1L572.027 446.76C572.307 447 572.447 447.28 572.447 447.6C572.447 447.92 572.267 448.3 571.907 448.74C570.227 450.58 568.547 451.88 566.867 452.64C565.187 453.4 563.287 453.78 561.167 453.78ZM590.528 453.78C587.768 453.78 585.308 453.12 583.148 451.8C580.988 450.48 579.308 448.66 578.108 446.34C576.908 443.98 576.308 441.28 576.308 438.24C576.308 435.2 576.908 432.52 578.108 430.2C579.308 427.84 580.988 426 583.148 424.68C585.308 423.36 587.768 422.7 590.528 422.7C593.288 422.7 595.748 423.36 597.908 424.68C600.068 426 601.748 427.84 602.948 430.2C604.148 432.52 604.748 435.2 604.748 438.24C604.748 441.28 604.148 443.98 602.948 446.34C601.748 448.66 600.068 450.48 597.908 451.8C595.748 453.12 593.288 453.78 590.528 453.78ZM590.528 450.48C593.608 450.48 596.068 449.36 597.908 447.12C599.748 444.84 600.668 441.88 600.668 438.24C600.668 434.6 599.748 431.66 597.908 429.42C596.068 427.14 593.608 426 590.528 426C587.448 426 584.988 427.14 583.148 429.42C581.308 431.66 580.388 434.6 580.388 438.24C580.388 441.88 581.308 444.84 583.148 447.12C584.988 449.36 587.448 450.48 590.528 450.48ZM641.688 422.7C644.888 422.7 647.328 423.62 649.008 425.46C650.728 427.26 651.588 429.58 651.588 432.42V451.8C651.588 452.6 651.188 453 650.388 453H648.828C648.028 453 647.628 452.6 647.628 451.8V433.5C647.628 431.1 647.068 429.26 645.948 427.98C644.868 426.7 643.248 426.06 641.087 426.06C638.808 426.06 636.988 426.82 635.628 428.34C634.268 429.86 633.588 431.82 633.588 434.22V451.8C633.588 452.6 633.188 453 632.388 453H630.828C630.028 453 629.628 452.6 629.628 451.8V433.5C629.628 431.1 629.068 429.26 627.948 427.98C626.868 426.7 625.228 426.06 623.027 426.06C620.988 426.06 619.288 426.7 617.928 427.98C616.608 429.26 615.828 430.94 615.588 433.02V451.8C615.588 452.6 615.188 453 614.388 453H612.828C612.028 453 611.628 452.6 611.628 451.8V424.62C611.628 423.82 612.028 423.42 612.828 423.42H614.148C614.948 423.42 615.348 423.82 615.348 424.62V427.08C617.148 424.16 620.008 422.7 623.928 422.7C625.968 422.7 627.708 423.16 629.148 424.08C630.628 424.96 631.728 426.16 632.448 427.68C634.568 424.36 637.648 422.7 641.688 422.7ZM690.379 422.7C693.579 422.7 696.019 423.62 697.699 425.46C699.419 427.26 700.279 429.58 700.279 432.42V451.8C700.279 452.6 699.879 453 699.079 453H697.519C696.719 453 696.319 452.6 696.319 451.8V433.5C696.319 431.1 695.759 429.26 694.639 427.98C693.559 426.7 691.939 426.06 689.779 426.06C687.499 426.06 685.679 426.82 684.319 428.34C682.959 429.86 682.279 431.82 682.279 434.22V451.8C682.279 452.6 681.879 453 681.079 453H679.519C678.719 453 678.319 452.6 678.319 451.8V433.5C678.319 431.1 677.759 429.26 676.639 427.98C675.559 426.7 673.919 426.06 671.719 426.06C669.679 426.06 667.979 426.7 666.619 427.98C665.299 429.26 664.519 430.94 664.279 433.02V451.8C664.279 452.6 663.879 453 663.079 453H661.519C660.719 453 660.319 452.6 660.319 451.8V424.62C660.319 423.82 660.719 423.42 661.519 423.42H662.839C663.639 423.42 664.039 423.82 664.039 424.62V427.08C665.839 424.16 668.699 422.7 672.619 422.7C674.659 422.7 676.399 423.16 677.839 424.08C679.319 424.96 680.419 426.16 681.139 427.68C683.259 424.36 686.339 422.7 690.379 422.7ZM728.035 424.62C728.035 423.82 728.435 423.42 729.235 423.42H730.795C731.595 423.42 731.995 423.82 731.995 424.62V451.8C731.995 452.6 731.595 453 730.795 453H729.535C728.735 453 728.335 452.6 728.335 451.8V449.1C727.455 450.66 726.195 451.84 724.555 452.64C722.955 453.4 721.195 453.78 719.275 453.78C715.675 453.78 713.015 452.88 711.295 451.08C709.575 449.24 708.715 446.88 708.715 444V424.62C708.715 423.82 709.115 423.42 709.915 423.42H711.475C712.275 423.42 712.675 423.82 712.675 424.62V443.16C712.675 445.52 713.255 447.32 714.415 448.56C715.615 449.76 717.315 450.36 719.515 450.36C721.995 450.36 724.035 449.6 725.635 448.08C727.235 446.56 728.035 444.4 728.035 441.6V424.62ZM754.085 422.7C757.565 422.7 760.185 423.66 761.945 425.58C763.745 427.5 764.645 429.9 764.645 432.78V451.8C764.645 452.6 764.245 453 763.445 453H761.885C761.085 453 760.685 452.6 760.685 451.8V434.1C760.685 431.46 760.045 429.46 758.765 428.1C757.485 426.74 755.645 426.06 753.245 426.06C751.725 426.06 750.325 426.44 749.045 427.2C747.765 427.92 746.745 428.92 745.985 430.2C745.225 431.48 744.845 432.88 744.845 434.4V451.8C744.845 452.6 744.445 453 743.645 453H742.085C741.285 453 740.885 452.6 740.885 451.8V424.62C740.885 423.82 741.285 423.42 742.085 423.42H743.405C744.205 423.42 744.605 423.82 744.605 424.62V427.5C745.605 425.9 746.925 424.7 748.565 423.9C750.205 423.1 752.045 422.7 754.085 422.7ZM775.385 415.92C774.585 415.92 773.905 415.64 773.345 415.08C772.825 414.52 772.565 413.84 772.565 413.04C772.565 412.24 772.825 411.58 773.345 411.06C773.905 410.54 774.585 410.28 775.385 410.28C776.225 410.28 776.905 410.54 777.425 411.06C777.985 411.58 778.265 412.24 778.265 413.04C778.265 413.84 777.985 414.52 777.425 415.08C776.905 415.64 776.225 415.92 775.385 415.92ZM774.605 453C773.805 453 773.405 452.6 773.405 451.8V424.62C773.405 423.82 773.805 423.42 774.605 423.42H776.165C776.965 423.42 777.365 423.82 777.365 424.62V451.8C777.365 452.6 776.965 453 776.165 453H774.605ZM799.498 449.7C799.618 449.66 799.778 449.64 799.978 449.64C800.218 449.64 800.438 449.72 800.638 449.88C800.838 450.04 800.958 450.26 800.998 450.54L801.178 451.38C801.218 451.46 801.238 451.6 801.238 451.8C801.238 452.36 800.938 452.7 800.338 452.82C798.898 453.26 797.358 453.48 795.718 453.48C793.118 453.48 791.258 452.9 790.138 451.74C789.058 450.54 788.518 448.82 788.518 446.58V426.42H784.078C783.278 426.42 782.878 426.02 782.878 425.22V424.62C782.878 423.82 783.278 423.42 784.078 423.42H788.518V414.3C788.518 413.5 788.918 413.1 789.718 413.1H791.278C792.078 413.1 792.478 413.5 792.478 414.3V423.42H799.678C800.478 423.42 800.878 423.82 800.878 424.62V425.22C800.878 426.02 800.478 426.42 799.678 426.42H792.478V446.1C792.478 447.58 792.758 448.62 793.318 449.22C793.878 449.82 794.838 450.12 796.198 450.12C797.158 450.12 798.258 449.98 799.498 449.7ZM825.925 424.38C826.165 423.74 826.625 423.42 827.305 423.42H828.925C829.245 423.42 829.505 423.5 829.705 423.66C829.905 423.82 830.005 424.04 830.005 424.32L829.885 424.8L818.305 457.5C817.665 459.3 817.045 460.7 816.445 461.7C815.845 462.7 815.025 463.46 813.985 463.98C812.985 464.5 811.665 464.76 810.025 464.76C808.985 464.76 808.065 464.68 807.265 464.52C806.865 464.48 806.585 464.32 806.425 464.04C806.305 463.76 806.285 463.44 806.365 463.08L806.545 462.3C806.705 461.58 807.165 461.26 807.925 461.34C808.645 461.46 809.265 461.52 809.785 461.52C811.065 461.52 812.065 461.16 812.785 460.44C813.545 459.72 814.265 458.36 814.945 456.36L815.485 454.68L804.925 424.8L804.805 424.32C804.805 424.04 804.905 423.82 805.105 423.66C805.305 423.5 805.565 423.42 805.885 423.42H807.625C808.265 423.42 808.705 423.74 808.945 424.38L812.305 434.28C812.625 435.28 813.425 437.66 814.705 441.42L817.405 449.52C818.725 445.8 820.465 440.68 822.625 434.16L825.925 424.38Z" fill="white"/>
</g>
<defs>
<clipPath id="clip0_989_13242">
<rect width="1920" height="1079" fill="white"/>
</clipPath>
</defs>
</svg>
