<svg width="1920" height="1079" viewBox="0 0 1920 1079" fill="none" xmlns="http://www.w3.org/2000/svg">
<rect x="8" y="8" width="1904" height="1063" fill="#F6F8FB"/>
<g filter="url(#filter0_dd_1112_15881)">
<rect x="638.245" y="239" width="452" height="601" rx="8" fill="white"/>
</g>
<rect x="662.245" y="264" width="404" height="89" fill="#F1F4F9"/>
<rect x="662.245" y="749" width="404" height="67" fill="#F1F4F9"/>
<rect x="662.245" y="369" width="142" height="364" fill="#F1F4F9"/>
<rect x="820.245" y="369" width="246" height="364" fill="#F1F4F9"/>
<rect x="159" y="239" width="261.245" height="57.5515" fill="#E1EDFE"/>
<rect x="159" y="798.349" width="261.245" height="43.3253" fill="#0063FB"/>
<rect x="328.421" y="306.898" width="91.8238" height="235.379" fill="#B6F0FF"/>
<rect x="261.17" y="552.624" width="159.075" height="235.379" fill="#5C9CFF"/>
<g filter="url(#filter1_dd_1112_15881)">
<rect x="1308.25" y="239" width="452" height="601" rx="8" fill="white"/>
</g>
<rect x="1332.25" y="264" width="404" height="89" fill="#E1EDFE"/>
<rect x="1332.25" y="749" width="404" height="67" fill="#0063FB"/>
<rect x="1332.25" y="369" width="142" height="364" fill="#B6F0FF"/>
<rect x="1490.25" y="369" width="246" height="364" fill="#5C9CFF"/>
<path d="M598.245 458L558.124 435.118L558.368 481.305L598.245 458ZM460.266 462.73L562.267 462.19L562.225 454.191L460.224 454.73L460.266 462.73Z" fill="#767676"/>
<path d="M598.245 643L558.124 620.118L558.368 666.305L598.245 643ZM460.266 647.73L562.267 647.19L562.225 639.191L460.224 639.73L460.266 647.73Z" fill="#767676"/>
<path d="M1268.25 550.27L1228.12 527.388L1228.37 573.575L1268.25 550.27ZM1130.27 555L1232.27 554.46L1232.22 546.46L1130.22 547L1130.27 555Z" fill="#767676"/>
<path d="M65.696 80C65.4827 80 65.376 79.8933 65.376 79.68V68.96C65.376 68.7467 65.4827 68.64 65.696 68.64H72.416C72.6293 68.64 72.736 68.7467 72.736 68.96V69.264C72.736 69.4773 72.6293 69.584 72.416 69.584H66.512V73.904H71.92C72.1333 73.904 72.24 74.0107 72.24 74.224V74.528C72.24 74.7413 72.1333 74.848 71.92 74.848H66.512V79.68C66.512 79.8933 66.4053 80 66.192 80H65.696ZM83.0386 79.616C83.0813 79.6693 83.1026 79.728 83.1026 79.792C83.1026 79.9307 83.012 80 82.8306 80H82.2386C82.0786 80 81.9506 79.9307 81.8546 79.792L78.8146 75.28H75.9026V79.68C75.9026 79.8933 75.796 80 75.5826 80H75.0866C74.8733 80 74.7666 79.8933 74.7666 79.68V68.96C74.7666 68.7467 74.8733 68.64 75.0866 68.64H79.2626C80.3506 68.64 81.2306 68.9333 81.9026 69.52C82.5746 70.096 82.9106 70.9067 82.9106 71.952C82.9106 72.8693 82.6493 73.6107 82.1266 74.176C81.6146 74.7413 80.9213 75.088 80.0466 75.216L83.0386 79.616ZM75.9026 74.336H79.0866C79.9293 74.336 80.5906 74.1333 81.0706 73.728C81.5506 73.3227 81.7906 72.7307 81.7906 71.952C81.7906 71.184 81.5453 70.5973 81.0546 70.192C80.5746 69.7867 79.9133 69.584 79.0706 69.584H75.9026V74.336ZM89.8598 80.24C88.7824 80.24 87.8438 79.9893 87.0438 79.488C86.2438 78.976 85.6304 78.272 85.2038 77.376C84.7771 76.48 84.5638 75.4613 84.5638 74.32C84.5638 73.1787 84.7771 72.16 85.2038 71.264C85.6304 70.368 86.2438 69.6693 87.0438 69.168C87.8438 68.656 88.7824 68.4 89.8598 68.4C90.9371 68.4 91.8758 68.656 92.6758 69.168C93.4758 69.6693 94.0891 70.368 94.5158 71.264C94.9424 72.16 95.1558 73.1787 95.1558 74.32C95.1558 75.4613 94.9424 76.48 94.5158 77.376C94.0891 78.272 93.4758 78.976 92.6758 79.488C91.8758 79.9893 90.9371 80.24 89.8598 80.24ZM89.8598 79.264C90.6811 79.264 91.4064 79.056 92.0358 78.64C92.6651 78.2133 93.1504 77.6267 93.4918 76.88C93.8438 76.1227 94.0198 75.2693 94.0198 74.32C94.0198 73.3707 93.8438 72.5227 93.4918 71.776C93.1504 71.0187 92.6651 70.432 92.0358 70.016C91.4064 69.5893 90.6811 69.376 89.8598 69.376C89.0384 69.376 88.3131 69.5893 87.6838 70.016C87.0544 70.432 86.5638 71.0187 86.2118 71.776C85.8704 72.5227 85.6998 73.3707 85.6998 74.32C85.6998 75.2693 85.8704 76.1227 86.2118 76.88C86.5638 77.6267 87.0544 78.2133 87.6838 78.64C88.3131 79.056 89.0384 79.264 89.8598 79.264ZM104.995 68.96C104.995 68.7467 105.102 68.64 105.315 68.64H105.779C105.993 68.64 106.099 68.7467 106.099 68.96V79.68C106.099 79.8933 105.993 80 105.779 80H105.059C104.889 80 104.755 79.9307 104.659 79.792L101.219 74.576L101.027 74.272C99.7474 72.352 98.83 70.9387 98.2754 70.032C98.318 71.28 98.3394 72.72 98.3394 74.352V79.68C98.3394 79.8933 98.2327 80 98.0194 80H97.5554C97.342 80 97.2354 79.8933 97.2354 79.68V68.96C97.2354 68.7467 97.342 68.64 97.5554 68.64H98.2754C98.446 68.64 98.5794 68.7093 98.6754 68.848L102.099 74.048L102.707 74.992C103.785 76.624 104.569 77.84 105.059 78.64C105.017 77.3707 104.995 75.9253 104.995 74.304V68.96ZM111.965 80C111.751 80 111.645 79.8933 111.645 79.68V69.584H108.301C108.087 69.584 107.981 69.4773 107.981 69.264V68.96C107.981 68.7467 108.087 68.64 108.301 68.64H116.109C116.322 68.64 116.429 68.7467 116.429 68.96V69.264C116.429 69.4773 116.322 69.584 116.109 69.584H112.781V79.68C112.781 79.8933 112.674 80 112.461 80H111.965ZM118.634 80C118.42 80 118.314 79.8933 118.314 79.68V68.96C118.314 68.7467 118.42 68.64 118.634 68.64H125.354C125.567 68.64 125.674 68.7467 125.674 68.96V69.264C125.674 69.4773 125.567 69.584 125.354 69.584H119.45V73.696H124.906C125.119 73.696 125.226 73.8027 125.226 74.016V74.304C125.226 74.5173 125.119 74.624 124.906 74.624H119.45V79.056H125.482C125.695 79.056 125.802 79.1627 125.802 79.376V79.68C125.802 79.8933 125.695 80 125.482 80H118.634ZM135.667 68.96C135.667 68.7467 135.774 68.64 135.987 68.64H136.451C136.665 68.64 136.771 68.7467 136.771 68.96V79.68C136.771 79.8933 136.665 80 136.451 80H135.731C135.561 80 135.427 79.9307 135.331 79.792L131.891 74.576L131.699 74.272C130.419 72.352 129.502 70.9387 128.947 70.032C128.99 71.28 129.011 72.72 129.011 74.352V79.68C129.011 79.8933 128.905 80 128.691 80H128.227C128.014 80 127.907 79.8933 127.907 79.68V68.96C127.907 68.7467 128.014 68.64 128.227 68.64H128.947C129.118 68.64 129.251 68.7093 129.347 68.848L132.771 74.048L133.379 74.992C134.457 76.624 135.241 77.84 135.731 78.64C135.689 77.3707 135.667 75.9253 135.667 74.304V68.96ZM139.837 80C139.623 80 139.517 79.8933 139.517 79.68V68.96C139.517 68.7467 139.623 68.64 139.837 68.64H143.581C144.637 68.64 145.538 68.88 146.285 69.36C147.031 69.84 147.597 70.5067 147.981 71.36C148.365 72.2133 148.557 73.2 148.557 74.32C148.557 75.44 148.365 76.4267 147.981 77.28C147.597 78.1333 147.031 78.8 146.285 79.28C145.538 79.76 144.637 80 143.581 80H139.837ZM143.389 79.056C144.679 79.056 145.671 78.6347 146.365 77.792C147.058 76.9387 147.405 75.7813 147.405 74.32C147.405 72.8693 147.058 71.7173 146.365 70.864C145.671 70.0107 144.679 69.584 143.389 69.584H140.653V79.056H143.389ZM158.074 80.24C157.231 80.24 156.468 80.112 155.786 79.856C155.114 79.5893 154.404 79.1573 153.658 78.56C153.562 78.4747 153.514 78.3947 153.514 78.32C153.514 78.256 153.546 78.1867 153.61 78.112L153.866 77.808C153.919 77.7227 153.999 77.68 154.106 77.68C154.191 77.68 154.26 77.7067 154.314 77.76C155.071 78.3467 155.732 78.7467 156.298 78.96C156.863 79.1627 157.455 79.264 158.074 79.264C158.938 79.264 159.642 79.0507 160.186 78.624C160.73 78.1867 161.002 77.5947 161.002 76.848C161.002 76.368 160.874 75.984 160.618 75.696C160.362 75.408 160.01 75.184 159.562 75.024C159.124 74.864 158.5 74.6933 157.69 74.512C156.719 74.2987 155.962 74.0693 155.418 73.824C154.884 73.5787 154.495 73.2693 154.25 72.896C154.004 72.5227 153.882 72.0427 153.882 71.456C153.882 70.8373 154.058 70.2987 154.41 69.84C154.772 69.3707 155.252 69.0133 155.85 68.768C156.447 68.5227 157.092 68.4 157.786 68.4C158.543 68.4 159.231 68.512 159.85 68.736C160.479 68.96 161.098 69.3173 161.706 69.808C161.802 69.872 161.85 69.9467 161.85 70.032C161.85 70.096 161.818 70.1707 161.753 70.256L161.514 70.544C161.46 70.6293 161.38 70.672 161.274 70.672C161.188 70.672 161.114 70.6453 161.05 70.592C160.506 70.144 159.978 69.8293 159.466 69.648C158.964 69.4667 158.41 69.376 157.802 69.376C157.247 69.376 156.756 69.4667 156.33 69.648C155.903 69.8187 155.567 70.0587 155.322 70.368C155.087 70.6773 154.97 71.0293 154.97 71.424C154.97 71.8507 155.087 72.192 155.322 72.448C155.567 72.704 155.903 72.9067 156.33 73.056C156.767 73.2053 157.402 73.376 158.234 73.568C159.194 73.792 159.951 74.0427 160.506 74.32C161.071 74.5973 161.482 74.9387 161.738 75.344C161.994 75.7387 162.122 76.2293 162.122 76.816C162.122 77.4987 161.946 78.1013 161.594 78.624C161.252 79.136 160.772 79.536 160.154 79.824C159.535 80.1013 158.842 80.24 158.074 80.24ZM167.199 80C166.986 80 166.879 79.8933 166.879 79.68V69.584H163.535C163.322 69.584 163.215 69.4773 163.215 69.264V68.96C163.215 68.7467 163.322 68.64 163.535 68.64H171.343C171.556 68.64 171.663 68.7467 171.663 68.96V69.264C171.663 69.4773 171.556 69.584 171.343 69.584H168.015V79.68C168.015 79.8933 167.908 80 167.695 80H167.199ZM181.82 79.616C181.863 79.6693 181.884 79.728 181.884 79.792C181.884 79.9307 181.793 80 181.612 80H181.02C180.86 80 180.732 79.9307 180.636 79.792L177.596 75.28H174.684V79.68C174.684 79.8933 174.577 80 174.364 80H173.868C173.655 80 173.548 79.8933 173.548 79.68V68.96C173.548 68.7467 173.655 68.64 173.868 68.64H178.044C179.132 68.64 180.012 68.9333 180.684 69.52C181.356 70.096 181.692 70.9067 181.692 71.952C181.692 72.8693 181.431 73.6107 180.908 74.176C180.396 74.7413 179.703 75.088 178.828 75.216L181.82 79.616ZM174.684 74.336H177.868C178.711 74.336 179.372 74.1333 179.852 73.728C180.332 73.3227 180.572 72.7307 180.572 71.952C180.572 71.184 180.327 70.5973 179.836 70.192C179.356 69.7867 178.695 69.584 177.852 69.584H174.684V74.336ZM191.872 80C191.691 80 191.568 79.9147 191.504 79.744L190.448 76.816H185.28L184.24 79.744C184.176 79.9147 184.053 80 183.872 80H183.376C183.291 80 183.221 79.9787 183.168 79.936C183.115 79.8933 183.088 79.8347 183.088 79.76L183.12 79.632L187.04 68.896C187.104 68.7253 187.227 68.64 187.408 68.64H188.336C188.517 68.64 188.64 68.7253 188.704 68.896L192.624 79.632L192.656 79.76C192.656 79.8347 192.629 79.8933 192.576 79.936C192.523 79.9787 192.453 80 192.368 80H191.872ZM190.096 75.856L189.536 74.288L189.408 73.952C189.259 73.5467 189.013 72.8693 188.672 71.92C188.341 70.9707 188.069 70.1653 187.856 69.504C187.568 70.4107 187.115 71.728 186.496 73.456C186.453 73.5733 186.405 73.7013 186.352 73.84C186.299 73.9787 186.245 74.128 186.192 74.288L185.632 75.856H190.096ZM196.309 80C196.095 80 195.989 79.8933 195.989 79.68V69.584H192.645C192.431 69.584 192.325 69.4773 192.325 69.264V68.96C192.325 68.7467 192.431 68.64 192.645 68.64H200.453C200.666 68.64 200.773 68.7467 200.773 68.96V69.264C200.773 69.4773 200.666 69.584 200.453 69.584H197.125V79.68C197.125 79.8933 197.018 80 196.805 80H196.309ZM202.977 80C202.764 80 202.657 79.8933 202.657 79.68V68.96C202.657 68.7467 202.764 68.64 202.977 68.64H209.697C209.911 68.64 210.017 68.7467 210.017 68.96V69.264C210.017 69.4773 209.911 69.584 209.697 69.584H203.793V73.696H209.249C209.463 73.696 209.569 73.8027 209.569 74.016V74.304C209.569 74.5173 209.463 74.624 209.249 74.624H203.793V79.056H209.825C210.039 79.056 210.145 79.1627 210.145 79.376V79.68C210.145 79.8933 210.039 80 209.825 80H202.977ZM216.862 75.152C216.648 75.152 216.542 75.0453 216.542 74.832V74.528C216.542 74.3147 216.648 74.208 216.862 74.208H221.102C221.315 74.208 221.422 74.3147 221.422 74.528V79.68C221.422 79.8933 221.315 80 221.102 80H220.83C220.638 80 220.531 79.8987 220.51 79.696L220.414 78.336C220.062 78.976 219.56 79.4507 218.91 79.76C218.27 80.0693 217.544 80.224 216.734 80.224C215.635 80.224 214.691 79.9787 213.902 79.488C213.112 78.9867 212.51 78.2933 212.094 77.408C211.688 76.512 211.486 75.4827 211.486 74.32C211.486 73.1893 211.699 72.176 212.126 71.28C212.563 70.384 213.187 69.6853 213.998 69.184C214.808 68.672 215.768 68.416 216.878 68.416C217.742 68.416 218.52 68.576 219.214 68.896C219.907 69.2053 220.574 69.6907 221.214 70.352C221.288 70.416 221.326 70.4907 221.326 70.576C221.326 70.6507 221.288 70.7253 221.214 70.8L220.942 71.088C220.878 71.1627 220.803 71.2 220.718 71.2C220.643 71.2 220.568 71.1627 220.494 71.088C219.886 70.4907 219.304 70.0587 218.75 69.792C218.206 69.5253 217.571 69.392 216.846 69.392C216.014 69.392 215.278 69.6 214.638 70.016C213.998 70.432 213.502 71.0187 213.15 71.776C212.798 72.5227 212.622 73.376 212.622 74.336C212.622 75.3067 212.787 76.1653 213.118 76.912C213.459 77.648 213.939 78.224 214.558 78.64C215.187 79.0453 215.923 79.248 216.766 79.248C217.459 79.248 218.072 79.1093 218.606 78.832C219.15 78.5547 219.576 78.1547 219.886 77.632C220.195 77.0987 220.35 76.4693 220.35 75.744V75.152H216.862ZM230.099 68.848C230.174 68.7093 230.302 68.64 230.483 68.64H231.027C231.209 68.64 231.299 68.7093 231.299 68.848C231.299 68.912 231.278 68.9707 231.235 69.024L227.443 75.12V79.68C227.443 79.8933 227.337 80 227.123 80H226.627C226.414 80 226.307 79.8933 226.307 79.68V75.104L222.547 69.024C222.505 68.9707 222.483 68.912 222.483 68.848C222.483 68.7093 222.574 68.64 222.755 68.64H223.315C223.497 68.64 223.625 68.7093 223.699 68.848L226.899 74.112L230.099 68.848Z" fill="#767676"/>
<path d="M76.988 118.544C74.5853 118.544 72.5 118 70.732 116.912C68.9867 115.824 67.638 114.328 66.686 112.424C65.7567 110.497 65.292 108.321 65.292 105.896C65.292 103.471 65.7567 101.317 66.686 99.436C67.6153 97.532 68.964 96.036 70.732 94.948C72.5 93.86 74.6193 93.316 77.09 93.316C78.586 93.316 79.946 93.5313 81.17 93.962C82.394 94.37 83.6293 95.0613 84.876 96.036C85.216 96.308 85.386 96.614 85.386 96.954C85.386 97.1807 85.2727 97.4413 85.046 97.736L84.298 98.62C84.026 98.9373 83.7427 99.096 83.448 99.096C83.2213 99.096 82.938 98.9827 82.598 98.756C81.578 97.9627 80.6373 97.4187 79.776 97.124C78.9373 96.8293 78.0307 96.682 77.056 96.682C75.4693 96.682 74.0867 97.0673 72.908 97.838C71.7293 98.6087 70.8227 99.6967 70.188 101.102C69.5533 102.485 69.236 104.083 69.236 105.896C69.236 107.709 69.5533 109.319 70.188 110.724C70.8227 112.129 71.718 113.229 72.874 114.022C74.03 114.793 75.3787 115.178 76.92 115.178C78.076 115.178 79.1073 114.974 80.014 114.566C80.9207 114.158 81.9067 113.501 82.972 112.594C83.2667 112.345 83.55 112.22 83.822 112.22C84.1167 112.22 84.4 112.379 84.672 112.696L85.42 113.546C85.6467 113.795 85.76 114.056 85.76 114.328C85.76 114.713 85.5787 115.053 85.216 115.348C83.9013 116.481 82.598 117.297 81.306 117.796C80.0367 118.295 78.5973 118.544 76.988 118.544ZM96.5322 118.51C94.8775 118.51 93.4042 118.136 92.1122 117.388C90.8428 116.64 89.8455 115.597 89.1202 114.26C88.3948 112.9 88.0322 111.347 88.0322 109.602C88.0322 107.857 88.3948 106.315 89.1202 104.978C89.8455 103.641 90.8428 102.598 92.1122 101.85C93.4042 101.102 94.8775 100.728 96.5322 100.728C98.1642 100.728 99.6262 101.102 100.918 101.85C102.21 102.598 103.219 103.652 103.944 105.012C104.669 106.349 105.032 107.879 105.032 109.602C105.032 111.347 104.669 112.9 103.944 114.26C103.219 115.597 102.21 116.64 100.918 117.388C99.6262 118.136 98.1642 118.51 96.5322 118.51ZM96.5322 115.484C97.9828 115.484 99.1502 114.951 100.034 113.886C100.918 112.798 101.36 111.37 101.36 109.602C101.36 107.857 100.918 106.451 100.034 105.386C99.1502 104.321 97.9828 103.788 96.5322 103.788C95.0815 103.788 93.9142 104.321 93.0302 105.386C92.1462 106.451 91.7042 107.857 91.7042 109.602C91.7042 111.37 92.1462 112.798 93.0302 113.886C93.9142 114.951 95.0815 115.484 96.5322 115.484ZM126.195 100.728C127.985 100.728 129.368 101.238 130.343 102.258C131.317 103.255 131.805 104.604 131.805 106.304V116.81C131.805 117.173 131.703 117.467 131.499 117.694C131.295 117.898 131 118 130.615 118H129.391C129.028 118 128.733 117.898 128.507 117.694C128.303 117.467 128.201 117.173 128.201 116.81V107.392C128.201 106.281 127.951 105.409 127.453 104.774C126.954 104.139 126.195 103.822 125.175 103.822C124.132 103.822 123.305 104.173 122.693 104.876C122.103 105.579 121.809 106.485 121.809 107.596V116.81C121.809 117.173 121.707 117.467 121.503 117.694C121.299 117.898 121.004 118 120.619 118H119.395C119.032 118 118.737 117.898 118.511 117.694C118.307 117.467 118.205 117.173 118.205 116.81V107.392C118.205 106.281 117.955 105.409 117.457 104.774C116.981 104.139 116.233 103.822 115.213 103.822C114.215 103.822 113.411 104.151 112.799 104.808C112.187 105.465 111.858 106.315 111.813 107.358V116.81C111.813 117.173 111.711 117.467 111.507 117.694C111.303 117.898 111.008 118 110.623 118H109.399C109.036 118 108.741 117.898 108.515 117.694C108.311 117.467 108.209 117.173 108.209 116.81V102.428C108.209 102.043 108.311 101.748 108.515 101.544C108.741 101.34 109.036 101.238 109.399 101.238H110.385C110.77 101.238 111.065 101.34 111.269 101.544C111.473 101.748 111.575 102.043 111.575 102.428V103.176C112.617 101.544 114.227 100.728 116.403 100.728C117.491 100.728 118.443 100.955 119.259 101.408C120.075 101.861 120.698 102.496 121.129 103.312C122.285 101.589 123.973 100.728 126.195 100.728ZM144.841 100.796C146.269 100.796 147.539 101.159 148.649 101.884C149.783 102.609 150.667 103.641 151.301 104.978C151.936 106.315 152.253 107.857 152.253 109.602C152.253 111.37 151.936 112.923 151.301 114.26C150.667 115.597 149.783 116.629 148.649 117.354C147.516 118.079 146.247 118.442 144.841 118.442C142.484 118.442 140.716 117.626 139.537 115.994V122.828C139.537 123.213 139.435 123.508 139.231 123.712C139.027 123.916 138.733 124.018 138.347 124.018H137.123C136.761 124.018 136.466 123.916 136.239 123.712C136.035 123.508 135.933 123.213 135.933 122.828V102.428C135.933 102.043 136.035 101.748 136.239 101.544C136.466 101.34 136.761 101.238 137.123 101.238H138.109C138.495 101.238 138.789 101.34 138.993 101.544C139.197 101.748 139.299 102.043 139.299 102.428V103.686C140.501 101.759 142.348 100.796 144.841 100.796ZM144.093 115.314C145.453 115.314 146.541 114.804 147.357 113.784C148.173 112.741 148.581 111.347 148.581 109.602C148.581 107.879 148.173 106.497 147.357 105.454C146.564 104.411 145.487 103.89 144.127 103.89C142.745 103.89 141.611 104.4 140.727 105.42C139.843 106.44 139.401 107.834 139.401 109.602C139.401 111.37 139.843 112.764 140.727 113.784C141.611 114.804 142.733 115.314 144.093 115.314ZM163.27 118.51C161.616 118.51 160.142 118.136 158.85 117.388C157.581 116.64 156.584 115.597 155.858 114.26C155.133 112.9 154.77 111.347 154.77 109.602C154.77 107.857 155.133 106.315 155.858 104.978C156.584 103.641 157.581 102.598 158.85 101.85C160.142 101.102 161.616 100.728 163.27 100.728C164.902 100.728 166.364 101.102 167.656 101.85C168.948 102.598 169.957 103.652 170.682 105.012C171.408 106.349 171.77 107.879 171.77 109.602C171.77 111.347 171.408 112.9 170.682 114.26C169.957 115.597 168.948 116.64 167.656 117.388C166.364 118.136 164.902 118.51 163.27 118.51ZM163.27 115.484C164.721 115.484 165.888 114.951 166.772 113.886C167.656 112.798 168.098 111.37 168.098 109.602C168.098 107.857 167.656 106.451 166.772 105.386C165.888 104.321 164.721 103.788 163.27 103.788C161.82 103.788 160.652 104.321 159.768 105.386C158.884 106.451 158.442 107.857 158.442 109.602C158.442 111.37 158.884 112.798 159.768 113.886C160.652 114.951 161.82 115.484 163.27 115.484ZM181.407 118.51C180.024 118.51 178.789 118.34 177.701 118C176.636 117.637 175.548 117.014 174.437 116.13C174.097 115.881 173.927 115.597 173.927 115.28C173.927 115.031 174.052 114.759 174.301 114.464L174.811 113.886C175.083 113.569 175.378 113.41 175.695 113.41C175.944 113.41 176.216 113.523 176.511 113.75C177.463 114.453 178.302 114.94 179.027 115.212C179.752 115.461 180.568 115.586 181.475 115.586C182.45 115.586 183.243 115.393 183.855 115.008C184.49 114.6 184.807 114.056 184.807 113.376C184.807 112.855 184.626 112.447 184.263 112.152C183.923 111.835 183.47 111.597 182.903 111.438C182.336 111.257 181.498 111.053 180.387 110.826C178.823 110.486 177.599 110.123 176.715 109.738C175.854 109.33 175.23 108.82 174.845 108.208C174.46 107.596 174.267 106.814 174.267 105.862C174.267 104.887 174.539 104.015 175.083 103.244C175.65 102.473 176.432 101.861 177.429 101.408C178.449 100.955 179.639 100.728 180.999 100.728C182.223 100.728 183.311 100.864 184.263 101.136C185.238 101.408 186.19 101.873 187.119 102.53C187.482 102.802 187.663 103.108 187.663 103.448C187.663 103.675 187.55 103.935 187.323 104.23L186.881 104.774C186.632 105.091 186.326 105.25 185.963 105.25C185.691 105.25 185.43 105.159 185.181 104.978C184.433 104.479 183.742 104.139 183.107 103.958C182.472 103.754 181.758 103.652 180.965 103.652C179.99 103.652 179.208 103.845 178.619 104.23C178.03 104.615 177.735 105.114 177.735 105.726C177.735 106.134 177.871 106.463 178.143 106.712C178.438 106.939 178.846 107.143 179.367 107.324C179.911 107.483 180.761 107.687 181.917 107.936C183.481 108.276 184.716 108.661 185.623 109.092C186.552 109.5 187.232 110.033 187.663 110.69C188.116 111.325 188.343 112.152 188.343 113.172C188.343 114.759 187.708 116.051 186.439 117.048C185.192 118.023 183.515 118.51 181.407 118.51ZM193.285 97.974C192.628 97.974 192.072 97.7587 191.619 97.328C191.166 96.8747 190.939 96.342 190.939 95.73C190.939 95.0953 191.166 94.5627 191.619 94.132C192.072 93.7013 192.628 93.486 193.285 93.486C193.942 93.486 194.498 93.7013 194.951 94.132C195.404 94.5627 195.631 95.0953 195.631 95.73C195.631 96.342 195.404 96.8747 194.951 97.328C194.498 97.7587 193.942 97.974 193.285 97.974ZM192.639 118C192.276 118 191.982 117.898 191.755 117.694C191.551 117.467 191.449 117.173 191.449 116.81V102.428C191.449 102.043 191.551 101.748 191.755 101.544C191.982 101.34 192.276 101.238 192.639 101.238H193.863C194.248 101.238 194.543 101.34 194.747 101.544C194.951 101.748 195.053 102.043 195.053 102.428V116.81C195.053 117.173 194.951 117.467 194.747 117.694C194.543 117.898 194.248 118 193.863 118H192.639ZM207.311 115.144C207.379 115.121 207.481 115.11 207.617 115.11C208.183 115.11 208.523 115.439 208.637 116.096L208.739 116.64C208.761 116.708 208.773 116.821 208.773 116.98C208.773 117.547 208.455 117.909 207.821 118.068C206.914 118.272 206.087 118.374 205.339 118.374C203.729 118.374 202.562 118 201.837 117.252C201.134 116.504 200.783 115.382 200.783 113.886V103.992H198.913C198.55 103.992 198.255 103.89 198.029 103.686C197.825 103.459 197.723 103.165 197.723 102.802V102.428C197.723 102.043 197.825 101.748 198.029 101.544C198.255 101.34 198.55 101.238 198.913 101.238H200.783V97.022C200.783 96.6367 200.885 96.342 201.089 96.138C201.315 95.934 201.61 95.832 201.973 95.832H203.197C203.582 95.832 203.877 95.934 204.081 96.138C204.285 96.342 204.387 96.6367 204.387 97.022V101.238H207.447C207.832 101.238 208.127 101.34 208.331 101.544C208.535 101.748 208.637 102.043 208.637 102.428V102.802C208.637 103.165 208.535 103.459 208.331 103.686C208.127 103.89 207.832 103.992 207.447 103.992H204.387V113.444C204.387 114.101 204.523 114.566 204.795 114.838C205.089 115.11 205.554 115.246 206.189 115.246C206.461 115.246 206.835 115.212 207.311 115.144ZM213.439 97.974C212.782 97.974 212.227 97.7587 211.773 97.328C211.32 96.8747 211.093 96.342 211.093 95.73C211.093 95.0953 211.32 94.5627 211.773 94.132C212.227 93.7013 212.782 93.486 213.439 93.486C214.097 93.486 214.652 93.7013 215.105 94.132C215.559 94.5627 215.785 95.0953 215.785 95.73C215.785 96.342 215.559 96.8747 215.105 97.328C214.652 97.7587 214.097 97.974 213.439 97.974ZM212.793 118C212.431 118 212.136 117.898 211.909 117.694C211.705 117.467 211.603 117.173 211.603 116.81V102.428C211.603 102.043 211.705 101.748 211.909 101.544C212.136 101.34 212.431 101.238 212.793 101.238H214.017C214.403 101.238 214.697 101.34 214.901 101.544C215.105 101.748 215.207 102.043 215.207 102.428V116.81C215.207 117.173 215.105 117.467 214.901 117.694C214.697 117.898 214.403 118 214.017 118H212.793ZM226.921 118.51C225.266 118.51 223.793 118.136 222.501 117.388C221.231 116.64 220.234 115.597 219.509 114.26C218.783 112.9 218.421 111.347 218.421 109.602C218.421 107.857 218.783 106.315 219.509 104.978C220.234 103.641 221.231 102.598 222.501 101.85C223.793 101.102 225.266 100.728 226.921 100.728C228.553 100.728 230.015 101.102 231.307 101.85C232.599 102.598 233.607 103.652 234.333 105.012C235.058 106.349 235.421 107.879 235.421 109.602C235.421 111.347 235.058 112.9 234.333 114.26C233.607 115.597 232.599 116.64 231.307 117.388C230.015 118.136 228.553 118.51 226.921 118.51ZM226.921 115.484C228.371 115.484 229.539 114.951 230.423 113.886C231.307 112.798 231.749 111.37 231.749 109.602C231.749 107.857 231.307 106.451 230.423 105.386C229.539 104.321 228.371 103.788 226.921 103.788C225.47 103.788 224.303 104.321 223.419 105.386C222.535 106.451 222.093 107.857 222.093 109.602C222.093 111.37 222.535 112.798 223.419 113.886C224.303 114.951 225.47 115.484 226.921 115.484ZM247.131 100.728C249.058 100.728 250.531 101.272 251.551 102.36C252.594 103.425 253.115 104.808 253.115 106.508V116.81C253.115 117.173 253.013 117.467 252.809 117.694C252.605 117.898 252.311 118 251.925 118H250.701C250.339 118 250.044 117.898 249.817 117.694C249.613 117.467 249.511 117.173 249.511 116.81V107.63C249.511 106.406 249.205 105.465 248.593 104.808C248.004 104.151 247.154 103.822 246.043 103.822C244.955 103.822 244.037 104.196 243.289 104.944C242.564 105.692 242.201 106.633 242.201 107.766V116.81C242.201 117.173 242.099 117.467 241.895 117.694C241.691 117.898 241.397 118 241.011 118H239.787C239.425 118 239.13 117.898 238.903 117.694C238.699 117.467 238.597 117.173 238.597 116.81V102.428C238.597 102.043 238.699 101.748 238.903 101.544C239.13 101.34 239.425 101.238 239.787 101.238H240.773C241.159 101.238 241.453 101.34 241.657 101.544C241.861 101.748 241.963 102.043 241.963 102.428V103.312C242.507 102.473 243.221 101.839 244.105 101.408C244.989 100.955 245.998 100.728 247.131 100.728Z" fill="#464646"/>
<rect x="8" y="8" width="1904" height="1063" stroke="white" stroke-width="16"/>
<defs>
<filter id="filter0_dd_1112_15881" x="610.245" y="225" width="508" height="657" filterUnits="userSpaceOnUse" color-interpolation-filters="sRGB">
<feFlood flood-opacity="0" result="BackgroundImageFix"/>
<feColorMatrix in="SourceAlpha" type="matrix" values="0 0 0 0 0 0 0 0 0 0 0 0 0 0 0 0 0 0 127 0" result="hardAlpha"/>
<feOffset dy="14"/>
<feGaussianBlur stdDeviation="14"/>
<feColorMatrix type="matrix" values="0 0 0 0 0.272549 0 0 0 0 0.272549 0 0 0 0 0.272549 0 0 0 0.25 0"/>
<feBlend mode="normal" in2="BackgroundImageFix" result="effect1_dropShadow_1112_15881"/>
<feColorMatrix in="SourceAlpha" type="matrix" values="0 0 0 0 0 0 0 0 0 0 0 0 0 0 0 0 0 0 127 0" result="hardAlpha"/>
<feOffset dy="9"/>
<feGaussianBlur stdDeviation="6"/>
<feColorMatrix type="matrix" values="0 0 0 0 0.272549 0 0 0 0 0.272549 0 0 0 0 0.272549 0 0 0 0.22 0"/>
<feBlend mode="normal" in2="effect1_dropShadow_1112_15881" result="effect2_dropShadow_1112_15881"/>
<feBlend mode="normal" in="SourceGraphic" in2="effect2_dropShadow_1112_15881" result="shape"/>
</filter>
<filter id="filter1_dd_1112_15881" x="1280.25" y="225" width="508" height="657" filterUnits="userSpaceOnUse" color-interpolation-filters="sRGB">
<feFlood flood-opacity="0" result="BackgroundImageFix"/>
<feColorMatrix in="SourceAlpha" type="matrix" values="0 0 0 0 0 0 0 0 0 0 0 0 0 0 0 0 0 0 127 0" result="hardAlpha"/>
<feOffset dy="14"/>
<feGaussianBlur stdDeviation="14"/>
<feColorMatrix type="matrix" values="0 0 0 0 0.272549 0 0 0 0 0.272549 0 0 0 0 0.272549 0 0 0 0.25 0"/>
<feBlend mode="normal" in2="BackgroundImageFix" result="effect1_dropShadow_1112_15881"/>
<feColorMatrix in="SourceAlpha" type="matrix" values="0 0 0 0 0 0 0 0 0 0 0 0 0 0 0 0 0 0 127 0" result="hardAlpha"/>
<feOffset dy="9"/>
<feGaussianBlur stdDeviation="6"/>
<feColorMatrix type="matrix" values="0 0 0 0 0.272549 0 0 0 0 0.272549 0 0 0 0 0.272549 0 0 0 0.22 0"/>
<feBlend mode="normal" in2="effect1_dropShadow_1112_15881" result="effect2_dropShadow_1112_15881"/>
<feBlend mode="normal" in="SourceGraphic" in2="effect2_dropShadow_1112_15881" result="shape"/>
</filter>
</defs>
</svg>
