<svg width="1920" height="1079" viewBox="0 0 1920 1079" fill="none" xmlns="http://www.w3.org/2000/svg">
<rect x="8" y="8" width="1904" height="1063" fill="#F6F8FB"/>
<g filter="url(#filter0_dd_1112_15869)">
<rect x="649" y="125.98" width="622" height="827.04" rx="16" fill="white"/>
</g>
<rect x="682.026" y="160.383" width="555.947" height="122.473" fill="#E1EDFE"/>
<rect x="682.026" y="827.794" width="555.947" height="92.1991" fill="#E1EDFE"/>
<rect x="682" y="305" width="195.407" height="500.903" fill="#B6F0FF"/>
<rect x="899" y="305" width="338.522" height="500.903" fill="#5C9CFF"/>
<path d="M926.249 232.572C926.407 232.821 926.487 233.048 926.487 233.252C926.487 233.479 926.396 233.66 926.215 233.796C926.033 233.932 925.784 234 925.467 234H923.767C923.132 234 922.656 233.739 922.339 233.218L916.729 224.65H911.595V232.81C911.595 233.173 911.493 233.467 911.289 233.694C911.085 233.898 910.79 234 910.405 234H908.909C908.546 234 908.251 233.898 908.025 233.694C907.821 233.467 907.719 233.173 907.719 232.81V211.05C907.719 210.665 907.821 210.37 908.025 210.166C908.251 209.962 908.546 209.86 908.909 209.86H918.429C919.947 209.86 921.307 210.166 922.509 210.778C923.71 211.367 924.639 212.229 925.297 213.362C925.977 214.473 926.317 215.776 926.317 217.272C926.317 219.085 925.818 220.627 924.821 221.896C923.823 223.143 922.486 223.97 920.809 224.378L926.249 232.572ZM911.595 221.42H917.783C919.233 221.42 920.378 221.069 921.217 220.366C922.078 219.641 922.509 218.609 922.509 217.272C922.509 215.912 922.078 214.881 921.217 214.178C920.378 213.453 919.233 213.09 917.783 213.09H911.595V221.42ZM931.985 234C931.622 234 931.327 233.898 931.101 233.694C930.897 233.467 930.795 233.173 930.795 232.81V211.05C930.795 210.665 930.897 210.37 931.101 210.166C931.327 209.962 931.622 209.86 931.985 209.86H946.095C946.48 209.86 946.775 209.962 946.979 210.166C947.183 210.37 947.285 210.665 947.285 211.05V211.934C947.285 212.297 947.183 212.591 946.979 212.818C946.775 213.022 946.48 213.124 946.095 213.124H934.671V219.924H945.245C945.63 219.924 945.925 220.026 946.129 220.23C946.333 220.434 946.435 220.729 946.435 221.114V221.998C946.435 222.361 946.333 222.655 946.129 222.882C945.925 223.086 945.63 223.188 945.245 223.188H934.671V230.736H946.435C946.82 230.736 947.115 230.838 947.319 231.042C947.523 231.246 947.625 231.541 947.625 231.926V232.81C947.625 233.173 947.523 233.467 947.319 233.694C947.115 233.898 946.82 234 946.435 234H931.985ZM969.152 234C968.472 234 968.019 233.683 967.792 233.048L966.194 228.458H955.518L953.92 233.048C953.694 233.683 953.24 234 952.56 234H951.132C950.792 234 950.52 233.932 950.316 233.796C950.135 233.637 950.044 233.422 950.044 233.15C950.044 233.014 950.078 232.844 950.146 232.64L958.034 210.812C958.261 210.177 958.714 209.86 959.394 209.86H962.42C963.1 209.86 963.554 210.177 963.78 210.812L971.668 232.64C971.736 232.844 971.77 233.014 971.77 233.15C971.77 233.422 971.668 233.637 971.464 233.796C971.283 233.932 971.022 234 970.682 234H969.152ZM965.106 225.228L964.052 222.236C964.03 222.191 963.78 221.477 963.304 220.094C962.103 216.694 961.287 214.269 960.856 212.818C960.199 214.903 959.326 217.487 958.238 220.57L957.66 222.27L956.64 225.228H965.106ZM984.993 234.544C982.59 234.544 980.505 234 978.737 232.912C976.992 231.824 975.643 230.328 974.691 228.424C973.762 226.497 973.297 224.321 973.297 221.896C973.297 219.471 973.762 217.317 974.691 215.436C975.62 213.532 976.969 212.036 978.737 210.948C980.505 209.86 982.624 209.316 985.095 209.316C986.591 209.316 987.951 209.531 989.175 209.962C990.399 210.37 991.634 211.061 992.881 212.036C993.221 212.308 993.391 212.614 993.391 212.954C993.391 213.181 993.278 213.441 993.051 213.736L992.303 214.62C992.031 214.937 991.748 215.096 991.453 215.096C991.226 215.096 990.943 214.983 990.603 214.756C989.583 213.963 988.642 213.419 987.781 213.124C986.942 212.829 986.036 212.682 985.061 212.682C983.474 212.682 982.092 213.067 980.913 213.838C979.734 214.609 978.828 215.697 978.193 217.102C977.558 218.485 977.241 220.083 977.241 221.896C977.241 223.709 977.558 225.319 978.193 226.724C978.828 228.129 979.723 229.229 980.879 230.022C982.035 230.793 983.384 231.178 984.925 231.178C986.081 231.178 987.112 230.974 988.019 230.566C988.926 230.158 989.912 229.501 990.977 228.594C991.272 228.345 991.555 228.22 991.827 228.22C992.122 228.22 992.405 228.379 992.677 228.696L993.425 229.546C993.652 229.795 993.765 230.056 993.765 230.328C993.765 230.713 993.584 231.053 993.221 231.348C991.906 232.481 990.603 233.297 989.311 233.796C988.042 234.295 986.602 234.544 984.993 234.544ZM1004.93 234C1004.57 234 1004.28 233.898 1004.05 233.694C1003.85 233.467 1003.74 233.173 1003.74 232.81V213.158H997.555C997.192 213.158 996.898 213.056 996.671 212.852C996.467 212.625 996.365 212.331 996.365 211.968V211.05C996.365 210.665 996.467 210.37 996.671 210.166C996.898 209.962 997.192 209.86 997.555 209.86H1013.77C1014.16 209.86 1014.45 209.962 1014.66 210.166C1014.86 210.37 1014.96 210.665 1014.96 211.05V211.968C1014.96 212.331 1014.86 212.625 1014.66 212.852C1014.45 213.056 1014.16 213.158 1013.77 213.158H1007.62V232.81C1007.62 233.173 1007.52 233.467 1007.31 233.694C1007.11 233.898 1006.81 234 1006.43 234H1004.93Z" fill="#464646"/>
<path d="M930.624 861.846C930.828 861.189 931.27 860.86 931.95 860.86H933.48C934.182 860.86 934.534 861.155 934.534 861.744C934.534 861.948 934.511 862.107 934.466 862.22L927.156 884.014C926.952 884.671 926.498 885 925.796 885H922.974C922.271 885 921.818 884.671 921.614 884.014L914.27 862.22C914.224 862.107 914.202 861.948 914.202 861.744C914.202 861.155 914.553 860.86 915.256 860.86H916.854C917.534 860.86 917.976 861.189 918.18 861.846L921.75 872.624C922.702 875.48 923.597 878.393 924.436 881.362C924.957 879.435 925.841 876.545 927.088 872.692L930.624 861.846ZM947.264 885.544C944.249 885.544 941.937 884.841 940.328 883.436C938.718 882.008 937.914 879.889 937.914 877.078V862.05C937.914 861.665 938.016 861.37 938.22 861.166C938.446 860.962 938.741 860.86 939.104 860.86H940.6C940.985 860.86 941.28 860.962 941.484 861.166C941.688 861.37 941.79 861.665 941.79 862.05V876.908C941.79 878.608 942.243 879.911 943.15 880.818C944.079 881.702 945.45 882.144 947.264 882.144C949.077 882.144 950.437 881.702 951.344 880.818C952.273 879.911 952.738 878.608 952.738 876.908V862.05C952.738 861.665 952.84 861.37 953.044 861.166C953.27 860.962 953.565 860.86 953.928 860.86H955.458C955.843 860.86 956.138 860.962 956.342 861.166C956.546 861.37 956.648 861.665 956.648 862.05V877.078C956.648 879.889 955.843 882.008 954.234 883.436C952.624 884.841 950.301 885.544 947.264 885.544ZM962.913 885C962.551 885 962.256 884.898 962.029 884.694C961.825 884.467 961.723 884.173 961.723 883.81V862.05C961.723 861.665 961.825 861.37 962.029 861.166C962.256 860.962 962.551 860.86 962.913 860.86H977.023C977.409 860.86 977.703 860.962 977.907 861.166C978.111 861.37 978.213 861.665 978.213 862.05V862.934C978.213 863.297 978.111 863.591 977.907 863.818C977.703 864.022 977.409 864.124 977.023 864.124H965.599V870.924H976.173C976.559 870.924 976.853 871.026 977.057 871.23C977.261 871.434 977.363 871.729 977.363 872.114V872.998C977.363 873.361 977.261 873.655 977.057 873.882C976.853 874.086 976.559 874.188 976.173 874.188H965.599V881.736H977.363C977.749 881.736 978.043 881.838 978.247 882.042C978.451 882.246 978.553 882.541 978.553 882.926V883.81C978.553 884.173 978.451 884.467 978.247 884.694C978.043 884.898 977.749 885 977.363 885H962.913ZM998.199 870.482C999.717 870.482 1001.08 870.765 1002.28 871.332C1003.48 871.876 1004.42 872.692 1005.1 873.78C1005.78 874.845 1006.12 876.126 1006.12 877.622C1006.12 878.937 1005.79 880.206 1005.13 881.43C1004.48 882.631 1003.49 883.617 1002.18 884.388C1000.86 885.159 999.298 885.544 997.485 885.544C996.057 885.544 994.708 885.363 993.439 885C992.192 884.615 990.889 884.003 989.529 883.164C989.121 882.892 988.917 882.586 988.917 882.246C988.917 882.042 989.007 881.793 989.189 881.498L989.665 880.784C989.891 880.421 990.197 880.24 990.583 880.24C990.809 880.24 991.059 880.308 991.331 880.444C992.487 881.124 993.529 881.623 994.459 881.94C995.388 882.235 996.363 882.382 997.383 882.382C998.901 882.382 1000.11 881.94 1001.02 881.056C1001.93 880.172 1002.38 879.039 1002.38 877.656C1002.38 876.273 1001.92 875.197 1000.99 874.426C1000.06 873.655 998.765 873.27 997.111 873.27C996.408 873.27 995.773 873.327 995.207 873.44C994.98 873.485 994.821 873.508 994.731 873.508C994.277 873.508 993.915 873.304 993.643 872.896L993.235 872.352C993.053 872.103 992.963 871.865 992.963 871.638C992.963 871.321 993.121 871.003 993.439 870.686L1000.88 863.988H990.923C990.56 863.988 990.265 863.886 990.039 863.682C989.835 863.455 989.733 863.161 989.733 862.798V862.05C989.733 861.665 989.835 861.37 990.039 861.166C990.265 860.962 990.56 860.86 990.923 860.86H1004.15C1004.53 860.86 1004.83 860.962 1005.03 861.166C1005.24 861.37 1005.34 861.665 1005.34 862.05V863.036C1005.34 863.603 1005.12 864.09 1004.69 864.498L998.029 870.482H998.199Z" fill="#464646"/>
<path d="M745.249 565.572C745.407 565.821 745.487 566.048 745.487 566.252C745.487 566.479 745.396 566.66 745.215 566.796C745.033 566.932 744.784 567 744.467 567H742.767C742.132 567 741.656 566.739 741.339 566.218L735.729 557.65H730.595V565.81C730.595 566.173 730.493 566.467 730.289 566.694C730.085 566.898 729.79 567 729.405 567H727.909C727.546 567 727.251 566.898 727.025 566.694C726.821 566.467 726.719 566.173 726.719 565.81V544.05C726.719 543.665 726.821 543.37 727.025 543.166C727.251 542.962 727.546 542.86 727.909 542.86H737.429C738.947 542.86 740.307 543.166 741.509 543.778C742.71 544.367 743.639 545.229 744.297 546.362C744.977 547.473 745.317 548.776 745.317 550.272C745.317 552.085 744.818 553.627 743.821 554.896C742.823 556.143 741.486 556.97 739.809 557.378L745.249 565.572ZM730.595 554.42H736.783C738.233 554.42 739.378 554.069 740.217 553.366C741.078 552.641 741.509 551.609 741.509 550.272C741.509 548.912 741.078 547.881 740.217 547.178C739.378 546.453 738.233 546.09 736.783 546.09H730.595V554.42ZM750.985 567C750.622 567 750.327 566.898 750.101 566.694C749.897 566.467 749.795 566.173 749.795 565.81V544.05C749.795 543.665 749.897 543.37 750.101 543.166C750.327 542.962 750.622 542.86 750.985 542.86H765.095C765.48 542.86 765.775 542.962 765.979 543.166C766.183 543.37 766.285 543.665 766.285 544.05V544.934C766.285 545.297 766.183 545.591 765.979 545.818C765.775 546.022 765.48 546.124 765.095 546.124H753.671V552.924H764.245C764.63 552.924 764.925 553.026 765.129 553.23C765.333 553.434 765.435 553.729 765.435 554.114V554.998C765.435 555.361 765.333 555.655 765.129 555.882C764.925 556.086 764.63 556.188 764.245 556.188H753.671V563.736H765.435C765.82 563.736 766.115 563.838 766.319 564.042C766.523 564.246 766.625 564.541 766.625 564.926V565.81C766.625 566.173 766.523 566.467 766.319 566.694C766.115 566.898 765.82 567 765.435 567H750.985ZM788.152 567C787.472 567 787.019 566.683 786.792 566.048L785.194 561.458H774.518L772.92 566.048C772.694 566.683 772.24 567 771.56 567H770.132C769.792 567 769.52 566.932 769.316 566.796C769.135 566.637 769.044 566.422 769.044 566.15C769.044 566.014 769.078 565.844 769.146 565.64L777.034 543.812C777.261 543.177 777.714 542.86 778.394 542.86H781.42C782.1 542.86 782.554 543.177 782.78 543.812L790.668 565.64C790.736 565.844 790.77 566.014 790.77 566.15C790.77 566.422 790.668 566.637 790.464 566.796C790.283 566.932 790.022 567 789.682 567H788.152ZM784.106 558.228L783.052 555.236C783.03 555.191 782.78 554.477 782.304 553.094C781.103 549.694 780.287 547.269 779.856 545.818C779.199 547.903 778.326 550.487 777.238 553.57L776.66 555.27L775.64 558.228H784.106ZM803.993 567.544C801.59 567.544 799.505 567 797.737 565.912C795.992 564.824 794.643 563.328 793.691 561.424C792.762 559.497 792.297 557.321 792.297 554.896C792.297 552.471 792.762 550.317 793.691 548.436C794.62 546.532 795.969 545.036 797.737 543.948C799.505 542.86 801.624 542.316 804.095 542.316C805.591 542.316 806.951 542.531 808.175 542.962C809.399 543.37 810.634 544.061 811.881 545.036C812.221 545.308 812.391 545.614 812.391 545.954C812.391 546.181 812.278 546.441 812.051 546.736L811.303 547.62C811.031 547.937 810.748 548.096 810.453 548.096C810.226 548.096 809.943 547.983 809.603 547.756C808.583 546.963 807.642 546.419 806.781 546.124C805.942 545.829 805.036 545.682 804.061 545.682C802.474 545.682 801.092 546.067 799.913 546.838C798.734 547.609 797.828 548.697 797.193 550.102C796.558 551.485 796.241 553.083 796.241 554.896C796.241 556.709 796.558 558.319 797.193 559.724C797.828 561.129 798.723 562.229 799.879 563.022C801.035 563.793 802.384 564.178 803.925 564.178C805.081 564.178 806.112 563.974 807.019 563.566C807.926 563.158 808.912 562.501 809.977 561.594C810.272 561.345 810.555 561.22 810.827 561.22C811.122 561.22 811.405 561.379 811.677 561.696L812.425 562.546C812.652 562.795 812.765 563.056 812.765 563.328C812.765 563.713 812.584 564.053 812.221 564.348C810.906 565.481 809.603 566.297 808.311 566.796C807.042 567.295 805.602 567.544 803.993 567.544ZM823.933 567C823.57 567 823.276 566.898 823.049 566.694C822.845 566.467 822.743 566.173 822.743 565.81V546.158H816.555C816.192 546.158 815.898 546.056 815.671 545.852C815.467 545.625 815.365 545.331 815.365 544.968V544.05C815.365 543.665 815.467 543.37 815.671 543.166C815.898 542.962 816.192 542.86 816.555 542.86H832.773C833.158 542.86 833.453 542.962 833.657 543.166C833.861 543.37 833.963 543.665 833.963 544.05V544.968C833.963 545.331 833.861 545.625 833.657 545.852C833.453 546.056 833.158 546.158 832.773 546.158H826.619V565.81C826.619 566.173 826.517 566.467 826.313 566.694C826.109 566.898 825.814 567 825.429 567H823.933Z" fill="#464646"/>
<path d="M1038.52 543.846C1038.73 543.189 1039.17 542.86 1039.85 542.86H1041.38C1042.08 542.86 1042.43 543.155 1042.43 543.744C1042.43 543.948 1042.41 544.107 1042.37 544.22L1035.06 566.014C1034.85 566.671 1034.4 567 1033.7 567H1030.87C1030.17 567 1029.72 566.671 1029.51 566.014L1022.17 544.22C1022.12 544.107 1022.1 543.948 1022.1 543.744C1022.1 543.155 1022.45 542.86 1023.16 542.86H1024.75C1025.43 542.86 1025.88 543.189 1026.08 543.846L1029.65 554.624C1030.6 557.48 1031.5 560.393 1032.34 563.362C1032.86 561.435 1033.74 558.545 1034.99 554.692L1038.52 543.846ZM1055.16 567.544C1052.15 567.544 1049.84 566.841 1048.23 565.436C1046.62 564.008 1045.81 561.889 1045.81 559.078V544.05C1045.81 543.665 1045.92 543.37 1046.12 543.166C1046.35 542.962 1046.64 542.86 1047 542.86H1048.5C1048.89 542.86 1049.18 542.962 1049.38 543.166C1049.59 543.37 1049.69 543.665 1049.69 544.05V558.908C1049.69 560.608 1050.14 561.911 1051.05 562.818C1051.98 563.702 1053.35 564.144 1055.16 564.144C1056.98 564.144 1058.34 563.702 1059.24 562.818C1060.17 561.911 1060.64 560.608 1060.64 558.908V544.05C1060.64 543.665 1060.74 543.37 1060.94 543.166C1061.17 542.962 1061.47 542.86 1061.83 542.86H1063.36C1063.74 542.86 1064.04 542.962 1064.24 543.166C1064.45 543.37 1064.55 543.665 1064.55 544.05V559.078C1064.55 561.889 1063.74 564.008 1062.13 565.436C1060.52 566.841 1058.2 567.544 1055.16 567.544ZM1070.81 567C1070.45 567 1070.16 566.898 1069.93 566.694C1069.73 566.467 1069.62 566.173 1069.62 565.81V544.05C1069.62 543.665 1069.73 543.37 1069.93 543.166C1070.16 542.962 1070.45 542.86 1070.81 542.86H1084.92C1085.31 542.86 1085.6 542.962 1085.81 543.166C1086.01 543.37 1086.11 543.665 1086.11 544.05V544.934C1086.11 545.297 1086.01 545.591 1085.81 545.818C1085.6 546.022 1085.31 546.124 1084.92 546.124H1073.5V552.924H1084.07C1084.46 552.924 1084.75 553.026 1084.96 553.23C1085.16 553.434 1085.26 553.729 1085.26 554.114V554.998C1085.26 555.361 1085.16 555.655 1084.96 555.882C1084.75 556.086 1084.46 556.188 1084.07 556.188H1073.5V563.736H1085.26C1085.65 563.736 1085.94 563.838 1086.15 564.042C1086.35 564.246 1086.45 564.541 1086.45 564.926V565.81C1086.45 566.173 1086.35 566.467 1086.15 566.694C1085.94 566.898 1085.65 567 1085.26 567H1070.81ZM1113.1 563.872C1113.49 563.872 1113.78 563.974 1113.99 564.178C1114.19 564.382 1114.29 564.677 1114.29 565.062V565.81C1114.29 566.173 1114.19 566.467 1113.99 566.694C1113.78 566.898 1113.49 567 1113.1 567H1098.21C1097.85 567 1097.55 566.898 1097.33 566.694C1097.12 566.467 1097.02 566.173 1097.02 565.81V565.572C1097.02 563.895 1097.33 562.478 1097.94 561.322C1098.55 560.166 1099.32 559.214 1100.25 558.466C1101.18 557.695 1102.44 556.811 1104.02 555.814L1105.83 554.76C1106.96 554.103 1107.83 553.559 1108.44 553.128C1109.06 552.697 1109.56 552.176 1109.94 551.564C1110.35 550.929 1110.55 550.193 1110.55 549.354C1110.55 548.153 1110.14 547.212 1109.33 546.532C1108.51 545.852 1107.49 545.512 1106.27 545.512C1105.16 545.512 1104.17 545.784 1103.31 546.328C1102.47 546.849 1101.53 547.722 1100.49 548.946C1100.19 549.286 1099.88 549.456 1099.54 549.456C1099.33 549.456 1099.08 549.365 1098.79 549.184L1097.97 548.606C1097.59 548.334 1097.39 548.028 1097.39 547.688C1097.39 547.439 1097.5 547.178 1097.7 546.906C1098.97 545.319 1100.27 544.163 1101.61 543.438C1102.97 542.713 1104.49 542.35 1106.17 542.35C1107.82 542.35 1109.26 542.656 1110.48 543.268C1111.71 543.88 1112.64 544.707 1113.27 545.75C1113.93 546.793 1114.26 547.96 1114.26 549.252C1114.26 550.635 1113.99 551.802 1113.44 552.754C1112.9 553.706 1112.21 554.499 1111.37 555.134C1110.55 555.746 1109.4 556.494 1107.9 557.378C1107.18 557.786 1106.63 558.103 1106.27 558.33C1104.98 559.123 1104.01 559.735 1103.38 560.166C1102.77 560.597 1102.22 561.118 1101.75 561.73C1101.27 562.342 1100.96 563.056 1100.83 563.872H1113.1Z" fill="white"/>
<path d="M65.696 80C65.4827 80 65.376 79.8933 65.376 79.68V68.96C65.376 68.7467 65.4827 68.64 65.696 68.64H72.416C72.6293 68.64 72.736 68.7467 72.736 68.96V69.264C72.736 69.4773 72.6293 69.584 72.416 69.584H66.512V73.904H71.92C72.1333 73.904 72.24 74.0107 72.24 74.224V74.528C72.24 74.7413 72.1333 74.848 71.92 74.848H66.512V79.68C66.512 79.8933 66.4053 80 66.192 80H65.696ZM83.0386 79.616C83.0813 79.6693 83.1026 79.728 83.1026 79.792C83.1026 79.9307 83.012 80 82.8306 80H82.2386C82.0786 80 81.9506 79.9307 81.8546 79.792L78.8146 75.28H75.9026V79.68C75.9026 79.8933 75.796 80 75.5826 80H75.0866C74.8733 80 74.7666 79.8933 74.7666 79.68V68.96C74.7666 68.7467 74.8733 68.64 75.0866 68.64H79.2626C80.3506 68.64 81.2306 68.9333 81.9026 69.52C82.5746 70.096 82.9106 70.9067 82.9106 71.952C82.9106 72.8693 82.6493 73.6107 82.1266 74.176C81.6146 74.7413 80.9213 75.088 80.0466 75.216L83.0386 79.616ZM75.9026 74.336H79.0866C79.9293 74.336 80.5906 74.1333 81.0706 73.728C81.5506 73.3227 81.7906 72.7307 81.7906 71.952C81.7906 71.184 81.5453 70.5973 81.0546 70.192C80.5746 69.7867 79.9133 69.584 79.0706 69.584H75.9026V74.336ZM89.8598 80.24C88.7824 80.24 87.8438 79.9893 87.0438 79.488C86.2438 78.976 85.6304 78.272 85.2038 77.376C84.7771 76.48 84.5638 75.4613 84.5638 74.32C84.5638 73.1787 84.7771 72.16 85.2038 71.264C85.6304 70.368 86.2438 69.6693 87.0438 69.168C87.8438 68.656 88.7824 68.4 89.8598 68.4C90.9371 68.4 91.8758 68.656 92.6758 69.168C93.4758 69.6693 94.0891 70.368 94.5158 71.264C94.9424 72.16 95.1558 73.1787 95.1558 74.32C95.1558 75.4613 94.9424 76.48 94.5158 77.376C94.0891 78.272 93.4758 78.976 92.6758 79.488C91.8758 79.9893 90.9371 80.24 89.8598 80.24ZM89.8598 79.264C90.6811 79.264 91.4064 79.056 92.0358 78.64C92.6651 78.2133 93.1504 77.6267 93.4918 76.88C93.8438 76.1227 94.0198 75.2693 94.0198 74.32C94.0198 73.3707 93.8438 72.5227 93.4918 71.776C93.1504 71.0187 92.6651 70.432 92.0358 70.016C91.4064 69.5893 90.6811 69.376 89.8598 69.376C89.0384 69.376 88.3131 69.5893 87.6838 70.016C87.0544 70.432 86.5638 71.0187 86.2118 71.776C85.8704 72.5227 85.6998 73.3707 85.6998 74.32C85.6998 75.2693 85.8704 76.1227 86.2118 76.88C86.5638 77.6267 87.0544 78.2133 87.6838 78.64C88.3131 79.056 89.0384 79.264 89.8598 79.264ZM104.995 68.96C104.995 68.7467 105.102 68.64 105.315 68.64H105.779C105.993 68.64 106.099 68.7467 106.099 68.96V79.68C106.099 79.8933 105.993 80 105.779 80H105.059C104.889 80 104.755 79.9307 104.659 79.792L101.219 74.576L101.027 74.272C99.7474 72.352 98.83 70.9387 98.2754 70.032C98.318 71.28 98.3394 72.72 98.3394 74.352V79.68C98.3394 79.8933 98.2327 80 98.0194 80H97.5554C97.342 80 97.2354 79.8933 97.2354 79.68V68.96C97.2354 68.7467 97.342 68.64 97.5554 68.64H98.2754C98.446 68.64 98.5794 68.7093 98.6754 68.848L102.099 74.048L102.707 74.992C103.785 76.624 104.569 77.84 105.059 78.64C105.017 77.3707 104.995 75.9253 104.995 74.304V68.96ZM111.965 80C111.751 80 111.645 79.8933 111.645 79.68V69.584H108.301C108.087 69.584 107.981 69.4773 107.981 69.264V68.96C107.981 68.7467 108.087 68.64 108.301 68.64H116.109C116.322 68.64 116.429 68.7467 116.429 68.96V69.264C116.429 69.4773 116.322 69.584 116.109 69.584H112.781V79.68C112.781 79.8933 112.674 80 112.461 80H111.965ZM118.634 80C118.42 80 118.314 79.8933 118.314 79.68V68.96C118.314 68.7467 118.42 68.64 118.634 68.64H125.354C125.567 68.64 125.674 68.7467 125.674 68.96V69.264C125.674 69.4773 125.567 69.584 125.354 69.584H119.45V73.696H124.906C125.119 73.696 125.226 73.8027 125.226 74.016V74.304C125.226 74.5173 125.119 74.624 124.906 74.624H119.45V79.056H125.482C125.695 79.056 125.802 79.1627 125.802 79.376V79.68C125.802 79.8933 125.695 80 125.482 80H118.634ZM135.667 68.96C135.667 68.7467 135.774 68.64 135.987 68.64H136.451C136.665 68.64 136.771 68.7467 136.771 68.96V79.68C136.771 79.8933 136.665 80 136.451 80H135.731C135.561 80 135.427 79.9307 135.331 79.792L131.891 74.576L131.699 74.272C130.419 72.352 129.502 70.9387 128.947 70.032C128.99 71.28 129.011 72.72 129.011 74.352V79.68C129.011 79.8933 128.905 80 128.691 80H128.227C128.014 80 127.907 79.8933 127.907 79.68V68.96C127.907 68.7467 128.014 68.64 128.227 68.64H128.947C129.118 68.64 129.251 68.7093 129.347 68.848L132.771 74.048L133.379 74.992C134.457 76.624 135.241 77.84 135.731 78.64C135.689 77.3707 135.667 75.9253 135.667 74.304V68.96ZM139.837 80C139.623 80 139.517 79.8933 139.517 79.68V68.96C139.517 68.7467 139.623 68.64 139.837 68.64H143.581C144.637 68.64 145.538 68.88 146.285 69.36C147.031 69.84 147.597 70.5067 147.981 71.36C148.365 72.2133 148.557 73.2 148.557 74.32C148.557 75.44 148.365 76.4267 147.981 77.28C147.597 78.1333 147.031 78.8 146.285 79.28C145.538 79.76 144.637 80 143.581 80H139.837ZM143.389 79.056C144.679 79.056 145.671 78.6347 146.365 77.792C147.058 76.9387 147.405 75.7813 147.405 74.32C147.405 72.8693 147.058 71.7173 146.365 70.864C145.671 70.0107 144.679 69.584 143.389 69.584H140.653V79.056H143.389ZM158.074 80.24C157.231 80.24 156.468 80.112 155.786 79.856C155.114 79.5893 154.404 79.1573 153.658 78.56C153.562 78.4747 153.514 78.3947 153.514 78.32C153.514 78.256 153.546 78.1867 153.61 78.112L153.866 77.808C153.919 77.7227 153.999 77.68 154.106 77.68C154.191 77.68 154.26 77.7067 154.314 77.76C155.071 78.3467 155.732 78.7467 156.298 78.96C156.863 79.1627 157.455 79.264 158.074 79.264C158.938 79.264 159.642 79.0507 160.186 78.624C160.73 78.1867 161.002 77.5947 161.002 76.848C161.002 76.368 160.874 75.984 160.618 75.696C160.362 75.408 160.01 75.184 159.562 75.024C159.124 74.864 158.5 74.6933 157.69 74.512C156.719 74.2987 155.962 74.0693 155.418 73.824C154.884 73.5787 154.495 73.2693 154.25 72.896C154.004 72.5227 153.882 72.0427 153.882 71.456C153.882 70.8373 154.058 70.2987 154.41 69.84C154.772 69.3707 155.252 69.0133 155.85 68.768C156.447 68.5227 157.092 68.4 157.786 68.4C158.543 68.4 159.231 68.512 159.85 68.736C160.479 68.96 161.098 69.3173 161.706 69.808C161.802 69.872 161.85 69.9467 161.85 70.032C161.85 70.096 161.818 70.1707 161.753 70.256L161.514 70.544C161.46 70.6293 161.38 70.672 161.274 70.672C161.188 70.672 161.114 70.6453 161.05 70.592C160.506 70.144 159.978 69.8293 159.466 69.648C158.964 69.4667 158.41 69.376 157.802 69.376C157.247 69.376 156.756 69.4667 156.33 69.648C155.903 69.8187 155.567 70.0587 155.322 70.368C155.087 70.6773 154.97 71.0293 154.97 71.424C154.97 71.8507 155.087 72.192 155.322 72.448C155.567 72.704 155.903 72.9067 156.33 73.056C156.767 73.2053 157.402 73.376 158.234 73.568C159.194 73.792 159.951 74.0427 160.506 74.32C161.071 74.5973 161.482 74.9387 161.738 75.344C161.994 75.7387 162.122 76.2293 162.122 76.816C162.122 77.4987 161.946 78.1013 161.594 78.624C161.252 79.136 160.772 79.536 160.154 79.824C159.535 80.1013 158.842 80.24 158.074 80.24ZM167.199 80C166.986 80 166.879 79.8933 166.879 79.68V69.584H163.535C163.322 69.584 163.215 69.4773 163.215 69.264V68.96C163.215 68.7467 163.322 68.64 163.535 68.64H171.343C171.556 68.64 171.663 68.7467 171.663 68.96V69.264C171.663 69.4773 171.556 69.584 171.343 69.584H168.015V79.68C168.015 79.8933 167.908 80 167.695 80H167.199ZM181.82 79.616C181.863 79.6693 181.884 79.728 181.884 79.792C181.884 79.9307 181.793 80 181.612 80H181.02C180.86 80 180.732 79.9307 180.636 79.792L177.596 75.28H174.684V79.68C174.684 79.8933 174.577 80 174.364 80H173.868C173.655 80 173.548 79.8933 173.548 79.68V68.96C173.548 68.7467 173.655 68.64 173.868 68.64H178.044C179.132 68.64 180.012 68.9333 180.684 69.52C181.356 70.096 181.692 70.9067 181.692 71.952C181.692 72.8693 181.431 73.6107 180.908 74.176C180.396 74.7413 179.703 75.088 178.828 75.216L181.82 79.616ZM174.684 74.336H177.868C178.711 74.336 179.372 74.1333 179.852 73.728C180.332 73.3227 180.572 72.7307 180.572 71.952C180.572 71.184 180.327 70.5973 179.836 70.192C179.356 69.7867 178.695 69.584 177.852 69.584H174.684V74.336ZM191.872 80C191.691 80 191.568 79.9147 191.504 79.744L190.448 76.816H185.28L184.24 79.744C184.176 79.9147 184.053 80 183.872 80H183.376C183.291 80 183.221 79.9787 183.168 79.936C183.115 79.8933 183.088 79.8347 183.088 79.76L183.12 79.632L187.04 68.896C187.104 68.7253 187.227 68.64 187.408 68.64H188.336C188.517 68.64 188.64 68.7253 188.704 68.896L192.624 79.632L192.656 79.76C192.656 79.8347 192.629 79.8933 192.576 79.936C192.523 79.9787 192.453 80 192.368 80H191.872ZM190.096 75.856L189.536 74.288L189.408 73.952C189.259 73.5467 189.013 72.8693 188.672 71.92C188.341 70.9707 188.069 70.1653 187.856 69.504C187.568 70.4107 187.115 71.728 186.496 73.456C186.453 73.5733 186.405 73.7013 186.352 73.84C186.299 73.9787 186.245 74.128 186.192 74.288L185.632 75.856H190.096ZM196.309 80C196.095 80 195.989 79.8933 195.989 79.68V69.584H192.645C192.431 69.584 192.325 69.4773 192.325 69.264V68.96C192.325 68.7467 192.431 68.64 192.645 68.64H200.453C200.666 68.64 200.773 68.7467 200.773 68.96V69.264C200.773 69.4773 200.666 69.584 200.453 69.584H197.125V79.68C197.125 79.8933 197.018 80 196.805 80H196.309ZM202.977 80C202.764 80 202.657 79.8933 202.657 79.68V68.96C202.657 68.7467 202.764 68.64 202.977 68.64H209.697C209.911 68.64 210.017 68.7467 210.017 68.96V69.264C210.017 69.4773 209.911 69.584 209.697 69.584H203.793V73.696H209.249C209.463 73.696 209.569 73.8027 209.569 74.016V74.304C209.569 74.5173 209.463 74.624 209.249 74.624H203.793V79.056H209.825C210.039 79.056 210.145 79.1627 210.145 79.376V79.68C210.145 79.8933 210.039 80 209.825 80H202.977ZM216.862 75.152C216.648 75.152 216.542 75.0453 216.542 74.832V74.528C216.542 74.3147 216.648 74.208 216.862 74.208H221.102C221.315 74.208 221.422 74.3147 221.422 74.528V79.68C221.422 79.8933 221.315 80 221.102 80H220.83C220.638 80 220.531 79.8987 220.51 79.696L220.414 78.336C220.062 78.976 219.56 79.4507 218.91 79.76C218.27 80.0693 217.544 80.224 216.734 80.224C215.635 80.224 214.691 79.9787 213.902 79.488C213.112 78.9867 212.51 78.2933 212.094 77.408C211.688 76.512 211.486 75.4827 211.486 74.32C211.486 73.1893 211.699 72.176 212.126 71.28C212.563 70.384 213.187 69.6853 213.998 69.184C214.808 68.672 215.768 68.416 216.878 68.416C217.742 68.416 218.52 68.576 219.214 68.896C219.907 69.2053 220.574 69.6907 221.214 70.352C221.288 70.416 221.326 70.4907 221.326 70.576C221.326 70.6507 221.288 70.7253 221.214 70.8L220.942 71.088C220.878 71.1627 220.803 71.2 220.718 71.2C220.643 71.2 220.568 71.1627 220.494 71.088C219.886 70.4907 219.304 70.0587 218.75 69.792C218.206 69.5253 217.571 69.392 216.846 69.392C216.014 69.392 215.278 69.6 214.638 70.016C213.998 70.432 213.502 71.0187 213.15 71.776C212.798 72.5227 212.622 73.376 212.622 74.336C212.622 75.3067 212.787 76.1653 213.118 76.912C213.459 77.648 213.939 78.224 214.558 78.64C215.187 79.0453 215.923 79.248 216.766 79.248C217.459 79.248 218.072 79.1093 218.606 78.832C219.15 78.5547 219.576 78.1547 219.886 77.632C220.195 77.0987 220.35 76.4693 220.35 75.744V75.152H216.862ZM230.099 68.848C230.174 68.7093 230.302 68.64 230.483 68.64H231.027C231.209 68.64 231.299 68.7093 231.299 68.848C231.299 68.912 231.278 68.9707 231.235 69.024L227.443 75.12V79.68C227.443 79.8933 227.337 80 227.123 80H226.627C226.414 80 226.307 79.8933 226.307 79.68V75.104L222.547 69.024C222.505 68.9707 222.483 68.912 222.483 68.848C222.483 68.7093 222.574 68.64 222.755 68.64H223.315C223.497 68.64 223.625 68.7093 223.699 68.848L226.899 74.112L230.099 68.848Z" fill="#767676"/>
<path d="M67.808 118C67.4453 118 67.1507 117.898 66.924 117.694C66.72 117.467 66.618 117.173 66.618 116.81V95.05C66.618 94.6647 66.72 94.37 66.924 94.166C67.1507 93.962 67.4453 93.86 67.808 93.86H69.304C69.6893 93.86 69.984 93.962 70.188 94.166C70.392 94.37 70.494 94.6647 70.494 95.05V114.702H80.32C80.7053 114.702 81 114.804 81.204 115.008C81.408 115.212 81.51 115.507 81.51 115.892V116.81C81.51 117.173 81.408 117.467 81.204 117.694C81 117.898 80.7053 118 80.32 118H67.808ZM96.3377 113.716C96.6324 113.467 96.9157 113.342 97.1877 113.342C97.4597 113.342 97.7431 113.489 98.0377 113.784L98.5137 114.294C98.7631 114.589 98.8877 114.872 98.8877 115.144C98.8877 115.439 98.7404 115.722 98.4457 115.994C97.4031 116.901 96.3604 117.547 95.3177 117.932C94.2977 118.317 93.1644 118.51 91.9177 118.51C90.1724 118.51 88.6537 118.147 87.3617 117.422C86.0924 116.697 85.1064 115.677 84.4037 114.362C83.7237 113.025 83.3837 111.483 83.3837 109.738C83.3837 108.015 83.7124 106.474 84.3697 105.114C85.0497 103.731 86.0017 102.655 87.2257 101.884C88.4724 101.113 89.9231 100.728 91.5777 100.728C94.0484 100.728 95.9524 101.465 97.2897 102.938C98.6271 104.389 99.2957 106.395 99.2957 108.956V109.262C99.2731 109.625 99.1597 109.908 98.9557 110.112C98.7517 110.316 98.4571 110.418 98.0717 110.418H86.9197C87.0557 111.914 87.5431 113.138 88.3817 114.09C89.2431 115.019 90.4444 115.484 91.9857 115.484C92.8244 115.484 93.5611 115.359 94.1957 115.11C94.8304 114.838 95.5444 114.373 96.3377 113.716ZM91.5097 103.584C90.2631 103.584 89.2544 103.958 88.4837 104.706C87.7357 105.431 87.2484 106.463 87.0217 107.8H95.7597C95.6691 106.485 95.2611 105.454 94.5357 104.706C93.8104 103.958 92.8017 103.584 91.5097 103.584ZM114.462 102.326C114.462 101.986 114.564 101.725 114.768 101.544C114.995 101.34 115.289 101.238 115.652 101.238H116.604C116.989 101.238 117.284 101.34 117.488 101.544C117.692 101.748 117.794 102.043 117.794 102.428V117.388C117.794 119.632 117.069 121.377 115.618 122.624C114.19 123.871 112.286 124.494 109.906 124.494C107.526 124.494 105.282 123.882 103.174 122.658C102.743 122.431 102.528 122.125 102.528 121.74C102.528 121.536 102.619 121.287 102.8 120.992L103.242 120.346C103.491 119.961 103.797 119.768 104.16 119.768C104.409 119.768 104.659 119.847 104.908 120.006C105.815 120.527 106.653 120.901 107.424 121.128C108.195 121.377 109.011 121.502 109.872 121.502C111.187 121.502 112.241 121.139 113.034 120.414C113.85 119.711 114.258 118.601 114.258 117.082V115.28C113.125 116.889 111.425 117.694 109.158 117.694C107.753 117.694 106.483 117.343 105.35 116.64C104.239 115.915 103.367 114.917 102.732 113.648C102.12 112.356 101.814 110.883 101.814 109.228C101.814 107.573 102.12 106.111 102.732 104.842C103.367 103.55 104.239 102.541 105.35 101.816C106.483 101.091 107.753 100.728 109.158 100.728C111.561 100.728 113.329 101.623 114.462 103.414V102.326ZM109.872 114.668C111.187 114.668 112.263 114.169 113.102 113.172C113.941 112.152 114.36 110.837 114.36 109.228C114.36 107.641 113.941 106.349 113.102 105.352C112.286 104.332 111.209 103.822 109.872 103.822C108.512 103.822 107.435 104.321 106.642 105.318C105.849 106.315 105.452 107.619 105.452 109.228C105.452 110.86 105.849 112.175 106.642 113.172C107.435 114.169 108.512 114.668 109.872 114.668ZM129.027 100.728C131.294 100.728 133.039 101.261 134.263 102.326C135.487 103.369 136.099 104.763 136.099 106.508V116.81C136.099 117.173 135.997 117.467 135.793 117.694C135.589 117.898 135.294 118 134.909 118H134.025C133.662 118 133.368 117.898 133.141 117.694C132.937 117.467 132.835 117.173 132.835 116.81V116.062C132.291 116.855 131.543 117.467 130.591 117.898C129.639 118.329 128.528 118.544 127.259 118.544C125.514 118.544 124.074 118.159 122.941 117.388C121.83 116.595 121.275 115.405 121.275 113.818C121.275 112.05 121.932 110.747 123.247 109.908C124.584 109.047 126.432 108.401 128.789 107.97L132.631 107.256V106.644C132.631 105.715 132.302 105.001 131.645 104.502C131.01 103.981 130.16 103.72 129.095 103.72C128.188 103.72 127.395 103.879 126.715 104.196C126.058 104.491 125.344 104.989 124.573 105.692C124.278 105.941 123.995 106.066 123.723 106.066C123.451 106.066 123.168 105.941 122.873 105.692L122.329 105.216C122.034 104.944 121.887 104.649 121.887 104.332C121.887 104.037 122.023 103.754 122.295 103.482C123.27 102.553 124.301 101.861 125.389 101.408C126.477 100.955 127.69 100.728 129.027 100.728ZM127.769 115.654C129.129 115.654 130.274 115.291 131.203 114.566C132.155 113.841 132.631 112.798 132.631 111.438V109.874L129.673 110.486C128.018 110.826 126.794 111.211 126.001 111.642C125.208 112.073 124.811 112.73 124.811 113.614C124.811 114.249 125.072 114.747 125.593 115.11C126.114 115.473 126.84 115.654 127.769 115.654ZM147.595 118.51C145.94 118.51 144.478 118.147 143.209 117.422C141.962 116.697 140.987 115.665 140.285 114.328C139.605 112.968 139.265 111.393 139.265 109.602C139.265 107.811 139.616 106.247 140.319 104.91C141.021 103.573 142.007 102.541 143.277 101.816C144.546 101.091 146.008 100.728 147.663 100.728C148.864 100.728 149.941 100.909 150.893 101.272C151.867 101.612 152.797 102.201 153.681 103.04C153.953 103.312 154.089 103.595 154.089 103.89C154.089 104.162 153.941 104.445 153.647 104.74L153.069 105.318C152.819 105.567 152.547 105.692 152.253 105.692C151.958 105.692 151.652 105.556 151.335 105.284C150.677 104.717 150.054 104.332 149.465 104.128C148.898 103.901 148.286 103.788 147.629 103.788C146.133 103.788 144.977 104.343 144.161 105.454C143.345 106.565 142.937 107.947 142.937 109.602C142.937 111.257 143.345 112.651 144.161 113.784C144.977 114.895 146.133 115.45 147.629 115.45C148.354 115.45 149.023 115.314 149.635 115.042C150.247 114.747 150.904 114.26 151.607 113.58C151.901 113.285 152.207 113.138 152.525 113.138C152.797 113.138 153.057 113.251 153.307 113.478L153.885 113.954C154.179 114.203 154.327 114.487 154.327 114.804C154.327 115.144 154.157 115.507 153.817 115.892C152.887 116.844 151.924 117.524 150.927 117.932C149.952 118.317 148.841 118.51 147.595 118.51ZM167.651 102.224C167.855 101.567 168.297 101.238 168.977 101.238H170.201C170.541 101.238 170.801 101.317 170.983 101.476C171.164 101.635 171.255 101.85 171.255 102.122C171.255 102.258 171.221 102.417 171.153 102.598L165.067 120.074C164.523 121.661 163.843 122.783 163.027 123.44C162.233 124.12 161.1 124.46 159.627 124.46C158.947 124.46 158.369 124.415 157.893 124.324C157.575 124.301 157.337 124.188 157.179 123.984C157.02 123.803 156.941 123.576 156.941 123.304C156.941 123.145 156.952 123.021 156.975 122.93L157.077 122.488C157.235 121.853 157.575 121.536 158.097 121.536C158.301 121.536 158.493 121.547 158.675 121.57C158.856 121.593 159.037 121.604 159.219 121.604C159.876 121.604 160.42 121.434 160.851 121.094C161.304 120.754 161.678 120.131 161.973 119.224L162.075 118.952L156.261 102.598C156.193 102.417 156.159 102.247 156.159 102.088C156.159 101.816 156.249 101.612 156.431 101.476C156.635 101.317 156.907 101.238 157.247 101.238H158.539C159.241 101.238 159.695 101.567 159.899 102.224L161.225 106.202C162.222 109.058 163.072 111.676 163.775 114.056L164.761 111.03C164.919 110.554 165.157 109.806 165.475 108.786C165.792 107.766 166.075 106.893 166.325 106.168L167.651 102.224Z" fill="#464646"/>
<rect x="8" y="8" width="1904" height="1063" stroke="white" stroke-width="16"/>
<defs>
<filter id="filter0_dd_1112_15869" x="621" y="111.98" width="678" height="883.04" filterUnits="userSpaceOnUse" color-interpolation-filters="sRGB">
<feFlood flood-opacity="0" result="BackgroundImageFix"/>
<feColorMatrix in="SourceAlpha" type="matrix" values="0 0 0 0 0 0 0 0 0 0 0 0 0 0 0 0 0 0 127 0" result="hardAlpha"/>
<feOffset dy="14"/>
<feGaussianBlur stdDeviation="14"/>
<feColorMatrix type="matrix" values="0 0 0 0 0.272549 0 0 0 0 0.272549 0 0 0 0 0.272549 0 0 0 0.25 0"/>
<feBlend mode="normal" in2="BackgroundImageFix" result="effect1_dropShadow_1112_15869"/>
<feColorMatrix in="SourceAlpha" type="matrix" values="0 0 0 0 0 0 0 0 0 0 0 0 0 0 0 0 0 0 127 0" result="hardAlpha"/>
<feOffset dy="9"/>
<feGaussianBlur stdDeviation="6"/>
<feColorMatrix type="matrix" values="0 0 0 0 0.272549 0 0 0 0 0.272549 0 0 0 0 0.272549 0 0 0 0.22 0"/>
<feBlend mode="normal" in2="effect1_dropShadow_1112_15869" result="effect2_dropShadow_1112_15869"/>
<feBlend mode="normal" in="SourceGraphic" in2="effect2_dropShadow_1112_15869" result="shape"/>
</filter>
</defs>
</svg>
