<svg width="1920" height="1079" viewBox="0 0 1920 1079" fill="none" xmlns="http://www.w3.org/2000/svg">
<rect width="1920" height="1079" fill="white"/>
<path d="M65.696 80C65.4827 80 65.376 79.8933 65.376 79.68V68.96C65.376 68.7467 65.4827 68.64 65.696 68.64H72.416C72.6293 68.64 72.736 68.7467 72.736 68.96V69.264C72.736 69.4773 72.6293 69.584 72.416 69.584H66.512V73.904H71.92C72.1333 73.904 72.24 74.0107 72.24 74.224V74.528C72.24 74.7413 72.1333 74.848 71.92 74.848H66.512V79.68C66.512 79.8933 66.4053 80 66.192 80H65.696ZM83.0386 79.616C83.0813 79.6693 83.1026 79.728 83.1026 79.792C83.1026 79.9307 83.012 80 82.8306 80H82.2386C82.0786 80 81.9506 79.9307 81.8546 79.792L78.8146 75.28H75.9026V79.68C75.9026 79.8933 75.796 80 75.5826 80H75.0866C74.8733 80 74.7666 79.8933 74.7666 79.68V68.96C74.7666 68.7467 74.8733 68.64 75.0866 68.64H79.2626C80.3506 68.64 81.2306 68.9333 81.9026 69.52C82.5746 70.096 82.9106 70.9067 82.9106 71.952C82.9106 72.8693 82.6493 73.6107 82.1266 74.176C81.6146 74.7413 80.9213 75.088 80.0466 75.216L83.0386 79.616ZM75.9026 74.336H79.0866C79.9293 74.336 80.5906 74.1333 81.0706 73.728C81.5506 73.3227 81.7906 72.7307 81.7906 71.952C81.7906 71.184 81.5453 70.5973 81.0546 70.192C80.5746 69.7867 79.9133 69.584 79.0706 69.584H75.9026V74.336ZM89.8598 80.24C88.7824 80.24 87.8438 79.9893 87.0438 79.488C86.2438 78.976 85.6304 78.272 85.2038 77.376C84.7771 76.48 84.5638 75.4613 84.5638 74.32C84.5638 73.1787 84.7771 72.16 85.2038 71.264C85.6304 70.368 86.2438 69.6693 87.0438 69.168C87.8438 68.656 88.7824 68.4 89.8598 68.4C90.9371 68.4 91.8758 68.656 92.6758 69.168C93.4758 69.6693 94.0891 70.368 94.5158 71.264C94.9424 72.16 95.1558 73.1787 95.1558 74.32C95.1558 75.4613 94.9424 76.48 94.5158 77.376C94.0891 78.272 93.4758 78.976 92.6758 79.488C91.8758 79.9893 90.9371 80.24 89.8598 80.24ZM89.8598 79.264C90.6811 79.264 91.4064 79.056 92.0358 78.64C92.6651 78.2133 93.1504 77.6267 93.4918 76.88C93.8438 76.1227 94.0198 75.2693 94.0198 74.32C94.0198 73.3707 93.8438 72.5227 93.4918 71.776C93.1504 71.0187 92.6651 70.432 92.0358 70.016C91.4064 69.5893 90.6811 69.376 89.8598 69.376C89.0384 69.376 88.3131 69.5893 87.6838 70.016C87.0544 70.432 86.5638 71.0187 86.2118 71.776C85.8704 72.5227 85.6998 73.3707 85.6998 74.32C85.6998 75.2693 85.8704 76.1227 86.2118 76.88C86.5638 77.6267 87.0544 78.2133 87.6838 78.64C88.3131 79.056 89.0384 79.264 89.8598 79.264ZM104.995 68.96C104.995 68.7467 105.102 68.64 105.315 68.64H105.779C105.993 68.64 106.099 68.7467 106.099 68.96V79.68C106.099 79.8933 105.993 80 105.779 80H105.059C104.889 80 104.755 79.9307 104.659 79.792L101.219 74.576L101.027 74.272C99.7474 72.352 98.83 70.9387 98.2754 70.032C98.318 71.28 98.3394 72.72 98.3394 74.352V79.68C98.3394 79.8933 98.2327 80 98.0194 80H97.5554C97.342 80 97.2354 79.8933 97.2354 79.68V68.96C97.2354 68.7467 97.342 68.64 97.5554 68.64H98.2754C98.446 68.64 98.5794 68.7093 98.6754 68.848L102.099 74.048L102.707 74.992C103.785 76.624 104.569 77.84 105.059 78.64C105.017 77.3707 104.995 75.9253 104.995 74.304V68.96ZM111.965 80C111.751 80 111.645 79.8933 111.645 79.68V69.584H108.301C108.087 69.584 107.981 69.4773 107.981 69.264V68.96C107.981 68.7467 108.087 68.64 108.301 68.64H116.109C116.322 68.64 116.429 68.7467 116.429 68.96V69.264C116.429 69.4773 116.322 69.584 116.109 69.584H112.781V79.68C112.781 79.8933 112.674 80 112.461 80H111.965ZM118.634 80C118.42 80 118.314 79.8933 118.314 79.68V68.96C118.314 68.7467 118.42 68.64 118.634 68.64H125.354C125.567 68.64 125.674 68.7467 125.674 68.96V69.264C125.674 69.4773 125.567 69.584 125.354 69.584H119.45V73.696H124.906C125.119 73.696 125.226 73.8027 125.226 74.016V74.304C125.226 74.5173 125.119 74.624 124.906 74.624H119.45V79.056H125.482C125.695 79.056 125.802 79.1627 125.802 79.376V79.68C125.802 79.8933 125.695 80 125.482 80H118.634ZM135.667 68.96C135.667 68.7467 135.774 68.64 135.987 68.64H136.451C136.665 68.64 136.771 68.7467 136.771 68.96V79.68C136.771 79.8933 136.665 80 136.451 80H135.731C135.561 80 135.427 79.9307 135.331 79.792L131.891 74.576L131.699 74.272C130.419 72.352 129.502 70.9387 128.947 70.032C128.99 71.28 129.011 72.72 129.011 74.352V79.68C129.011 79.8933 128.905 80 128.691 80H128.227C128.014 80 127.907 79.8933 127.907 79.68V68.96C127.907 68.7467 128.014 68.64 128.227 68.64H128.947C129.118 68.64 129.251 68.7093 129.347 68.848L132.771 74.048L133.379 74.992C134.457 76.624 135.241 77.84 135.731 78.64C135.689 77.3707 135.667 75.9253 135.667 74.304V68.96ZM139.837 80C139.623 80 139.517 79.8933 139.517 79.68V68.96C139.517 68.7467 139.623 68.64 139.837 68.64H143.581C144.637 68.64 145.538 68.88 146.285 69.36C147.031 69.84 147.597 70.5067 147.981 71.36C148.365 72.2133 148.557 73.2 148.557 74.32C148.557 75.44 148.365 76.4267 147.981 77.28C147.597 78.1333 147.031 78.8 146.285 79.28C145.538 79.76 144.637 80 143.581 80H139.837ZM143.389 79.056C144.679 79.056 145.671 78.6347 146.365 77.792C147.058 76.9387 147.405 75.7813 147.405 74.32C147.405 72.8693 147.058 71.7173 146.365 70.864C145.671 70.0107 144.679 69.584 143.389 69.584H140.653V79.056H143.389ZM158.074 80.24C157.231 80.24 156.468 80.112 155.786 79.856C155.114 79.5893 154.404 79.1573 153.658 78.56C153.562 78.4747 153.514 78.3947 153.514 78.32C153.514 78.256 153.546 78.1867 153.61 78.112L153.866 77.808C153.919 77.7227 153.999 77.68 154.106 77.68C154.191 77.68 154.26 77.7067 154.314 77.76C155.071 78.3467 155.732 78.7467 156.298 78.96C156.863 79.1627 157.455 79.264 158.074 79.264C158.938 79.264 159.642 79.0507 160.186 78.624C160.73 78.1867 161.002 77.5947 161.002 76.848C161.002 76.368 160.874 75.984 160.618 75.696C160.362 75.408 160.01 75.184 159.562 75.024C159.124 74.864 158.5 74.6933 157.69 74.512C156.719 74.2987 155.962 74.0693 155.418 73.824C154.884 73.5787 154.495 73.2693 154.25 72.896C154.004 72.5227 153.882 72.0427 153.882 71.456C153.882 70.8373 154.058 70.2987 154.41 69.84C154.772 69.3707 155.252 69.0133 155.85 68.768C156.447 68.5227 157.092 68.4 157.786 68.4C158.543 68.4 159.231 68.512 159.85 68.736C160.479 68.96 161.098 69.3173 161.706 69.808C161.802 69.872 161.85 69.9467 161.85 70.032C161.85 70.096 161.818 70.1707 161.753 70.256L161.514 70.544C161.46 70.6293 161.38 70.672 161.274 70.672C161.188 70.672 161.114 70.6453 161.05 70.592C160.506 70.144 159.978 69.8293 159.466 69.648C158.964 69.4667 158.41 69.376 157.802 69.376C157.247 69.376 156.756 69.4667 156.33 69.648C155.903 69.8187 155.567 70.0587 155.322 70.368C155.087 70.6773 154.97 71.0293 154.97 71.424C154.97 71.8507 155.087 72.192 155.322 72.448C155.567 72.704 155.903 72.9067 156.33 73.056C156.767 73.2053 157.402 73.376 158.234 73.568C159.194 73.792 159.951 74.0427 160.506 74.32C161.071 74.5973 161.482 74.9387 161.738 75.344C161.994 75.7387 162.122 76.2293 162.122 76.816C162.122 77.4987 161.946 78.1013 161.594 78.624C161.252 79.136 160.772 79.536 160.154 79.824C159.535 80.1013 158.842 80.24 158.074 80.24ZM167.199 80C166.986 80 166.879 79.8933 166.879 79.68V69.584H163.535C163.322 69.584 163.215 69.4773 163.215 69.264V68.96C163.215 68.7467 163.322 68.64 163.535 68.64H171.343C171.556 68.64 171.663 68.7467 171.663 68.96V69.264C171.663 69.4773 171.556 69.584 171.343 69.584H168.015V79.68C168.015 79.8933 167.908 80 167.695 80H167.199ZM181.82 79.616C181.863 79.6693 181.884 79.728 181.884 79.792C181.884 79.9307 181.793 80 181.612 80H181.02C180.86 80 180.732 79.9307 180.636 79.792L177.596 75.28H174.684V79.68C174.684 79.8933 174.577 80 174.364 80H173.868C173.655 80 173.548 79.8933 173.548 79.68V68.96C173.548 68.7467 173.655 68.64 173.868 68.64H178.044C179.132 68.64 180.012 68.9333 180.684 69.52C181.356 70.096 181.692 70.9067 181.692 71.952C181.692 72.8693 181.431 73.6107 180.908 74.176C180.396 74.7413 179.703 75.088 178.828 75.216L181.82 79.616ZM174.684 74.336H177.868C178.711 74.336 179.372 74.1333 179.852 73.728C180.332 73.3227 180.572 72.7307 180.572 71.952C180.572 71.184 180.327 70.5973 179.836 70.192C179.356 69.7867 178.695 69.584 177.852 69.584H174.684V74.336ZM191.872 80C191.691 80 191.568 79.9147 191.504 79.744L190.448 76.816H185.28L184.24 79.744C184.176 79.9147 184.053 80 183.872 80H183.376C183.291 80 183.221 79.9787 183.168 79.936C183.115 79.8933 183.088 79.8347 183.088 79.76L183.12 79.632L187.04 68.896C187.104 68.7253 187.227 68.64 187.408 68.64H188.336C188.517 68.64 188.64 68.7253 188.704 68.896L192.624 79.632L192.656 79.76C192.656 79.8347 192.629 79.8933 192.576 79.936C192.523 79.9787 192.453 80 192.368 80H191.872ZM190.096 75.856L189.536 74.288L189.408 73.952C189.259 73.5467 189.013 72.8693 188.672 71.92C188.341 70.9707 188.069 70.1653 187.856 69.504C187.568 70.4107 187.115 71.728 186.496 73.456C186.453 73.5733 186.405 73.7013 186.352 73.84C186.299 73.9787 186.245 74.128 186.192 74.288L185.632 75.856H190.096ZM196.309 80C196.095 80 195.989 79.8933 195.989 79.68V69.584H192.645C192.431 69.584 192.325 69.4773 192.325 69.264V68.96C192.325 68.7467 192.431 68.64 192.645 68.64H200.453C200.666 68.64 200.773 68.7467 200.773 68.96V69.264C200.773 69.4773 200.666 69.584 200.453 69.584H197.125V79.68C197.125 79.8933 197.018 80 196.805 80H196.309ZM202.977 80C202.764 80 202.657 79.8933 202.657 79.68V68.96C202.657 68.7467 202.764 68.64 202.977 68.64H209.697C209.911 68.64 210.017 68.7467 210.017 68.96V69.264C210.017 69.4773 209.911 69.584 209.697 69.584H203.793V73.696H209.249C209.463 73.696 209.569 73.8027 209.569 74.016V74.304C209.569 74.5173 209.463 74.624 209.249 74.624H203.793V79.056H209.825C210.039 79.056 210.145 79.1627 210.145 79.376V79.68C210.145 79.8933 210.039 80 209.825 80H202.977ZM216.862 75.152C216.648 75.152 216.542 75.0453 216.542 74.832V74.528C216.542 74.3147 216.648 74.208 216.862 74.208H221.102C221.315 74.208 221.422 74.3147 221.422 74.528V79.68C221.422 79.8933 221.315 80 221.102 80H220.83C220.638 80 220.531 79.8987 220.51 79.696L220.414 78.336C220.062 78.976 219.56 79.4507 218.91 79.76C218.27 80.0693 217.544 80.224 216.734 80.224C215.635 80.224 214.691 79.9787 213.902 79.488C213.112 78.9867 212.51 78.2933 212.094 77.408C211.688 76.512 211.486 75.4827 211.486 74.32C211.486 73.1893 211.699 72.176 212.126 71.28C212.563 70.384 213.187 69.6853 213.998 69.184C214.808 68.672 215.768 68.416 216.878 68.416C217.742 68.416 218.52 68.576 219.214 68.896C219.907 69.2053 220.574 69.6907 221.214 70.352C221.288 70.416 221.326 70.4907 221.326 70.576C221.326 70.6507 221.288 70.7253 221.214 70.8L220.942 71.088C220.878 71.1627 220.803 71.2 220.718 71.2C220.643 71.2 220.568 71.1627 220.494 71.088C219.886 70.4907 219.304 70.0587 218.75 69.792C218.206 69.5253 217.571 69.392 216.846 69.392C216.014 69.392 215.278 69.6 214.638 70.016C213.998 70.432 213.502 71.0187 213.15 71.776C212.798 72.5227 212.622 73.376 212.622 74.336C212.622 75.3067 212.787 76.1653 213.118 76.912C213.459 77.648 213.939 78.224 214.558 78.64C215.187 79.0453 215.923 79.248 216.766 79.248C217.459 79.248 218.072 79.1093 218.606 78.832C219.15 78.5547 219.576 78.1547 219.886 77.632C220.195 77.0987 220.35 76.4693 220.35 75.744V75.152H216.862ZM230.099 68.848C230.174 68.7093 230.302 68.64 230.483 68.64H231.027C231.209 68.64 231.299 68.7093 231.299 68.848C231.299 68.912 231.278 68.9707 231.235 69.024L227.443 75.12V79.68C227.443 79.8933 227.337 80 227.123 80H226.627C226.414 80 226.307 79.8933 226.307 79.68V75.104L222.547 69.024C222.505 68.9707 222.483 68.912 222.483 68.848C222.483 68.7093 222.574 68.64 222.755 68.64H223.315C223.497 68.64 223.625 68.7093 223.699 68.848L226.899 74.112L230.099 68.848Z" fill="#767676"/>
<path d="M76.988 118.544C74.5853 118.544 72.5 118 70.732 116.912C68.9867 115.824 67.638 114.328 66.686 112.424C65.7567 110.497 65.292 108.321 65.292 105.896C65.292 103.471 65.7567 101.317 66.686 99.436C67.6153 97.532 68.964 96.036 70.732 94.948C72.5 93.86 74.6193 93.316 77.09 93.316C78.586 93.316 79.946 93.5313 81.17 93.962C82.394 94.37 83.6293 95.0613 84.876 96.036C85.216 96.308 85.386 96.614 85.386 96.954C85.386 97.1807 85.2727 97.4413 85.046 97.736L84.298 98.62C84.026 98.9373 83.7427 99.096 83.448 99.096C83.2213 99.096 82.938 98.9827 82.598 98.756C81.578 97.9627 80.6373 97.4187 79.776 97.124C78.9373 96.8293 78.0307 96.682 77.056 96.682C75.4693 96.682 74.0867 97.0673 72.908 97.838C71.7293 98.6087 70.8227 99.6967 70.188 101.102C69.5533 102.485 69.236 104.083 69.236 105.896C69.236 107.709 69.5533 109.319 70.188 110.724C70.8227 112.129 71.718 113.229 72.874 114.022C74.03 114.793 75.3787 115.178 76.92 115.178C78.076 115.178 79.1073 114.974 80.014 114.566C80.9207 114.158 81.9067 113.501 82.972 112.594C83.2667 112.345 83.55 112.22 83.822 112.22C84.1167 112.22 84.4 112.379 84.672 112.696L85.42 113.546C85.6467 113.795 85.76 114.056 85.76 114.328C85.76 114.713 85.5787 115.053 85.216 115.348C83.9013 116.481 82.598 117.297 81.306 117.796C80.0367 118.295 78.5973 118.544 76.988 118.544ZM96.5322 118.51C94.8775 118.51 93.4042 118.136 92.1122 117.388C90.8428 116.64 89.8455 115.597 89.1202 114.26C88.3948 112.9 88.0322 111.347 88.0322 109.602C88.0322 107.857 88.3948 106.315 89.1202 104.978C89.8455 103.641 90.8428 102.598 92.1122 101.85C93.4042 101.102 94.8775 100.728 96.5322 100.728C98.1642 100.728 99.6262 101.102 100.918 101.85C102.21 102.598 103.219 103.652 103.944 105.012C104.669 106.349 105.032 107.879 105.032 109.602C105.032 111.347 104.669 112.9 103.944 114.26C103.219 115.597 102.21 116.64 100.918 117.388C99.6262 118.136 98.1642 118.51 96.5322 118.51ZM96.5322 115.484C97.9828 115.484 99.1502 114.951 100.034 113.886C100.918 112.798 101.36 111.37 101.36 109.602C101.36 107.857 100.918 106.451 100.034 105.386C99.1502 104.321 97.9828 103.788 96.5322 103.788C95.0815 103.788 93.9142 104.321 93.0302 105.386C92.1462 106.451 91.7042 107.857 91.7042 109.602C91.7042 111.37 92.1462 112.798 93.0302 113.886C93.9142 114.951 95.0815 115.484 96.5322 115.484ZM116.743 100.728C118.669 100.728 120.143 101.272 121.163 102.36C122.205 103.425 122.727 104.808 122.727 106.508V116.81C122.727 117.173 122.625 117.467 122.421 117.694C122.217 117.898 121.922 118 121.537 118H120.313C119.95 118 119.655 117.898 119.429 117.694C119.225 117.467 119.123 117.173 119.123 116.81V107.63C119.123 106.406 118.817 105.465 118.205 104.808C117.615 104.151 116.765 103.822 115.655 103.822C114.567 103.822 113.649 104.196 112.901 104.944C112.175 105.692 111.813 106.633 111.813 107.766V116.81C111.813 117.173 111.711 117.467 111.507 117.694C111.303 117.898 111.008 118 110.623 118H109.399C109.036 118 108.741 117.898 108.515 117.694C108.311 117.467 108.209 117.173 108.209 116.81V102.428C108.209 102.043 108.311 101.748 108.515 101.544C108.741 101.34 109.036 101.238 109.399 101.238H110.385C110.77 101.238 111.065 101.34 111.269 101.544C111.473 101.748 111.575 102.043 111.575 102.428V103.312C112.119 102.473 112.833 101.839 113.717 101.408C114.601 100.955 115.609 100.728 116.743 100.728ZM133.329 118.51C131.946 118.51 130.711 118.34 129.623 118C128.558 117.637 127.47 117.014 126.359 116.13C126.019 115.881 125.849 115.597 125.849 115.28C125.849 115.031 125.974 114.759 126.223 114.464L126.733 113.886C127.005 113.569 127.3 113.41 127.617 113.41C127.866 113.41 128.138 113.523 128.433 113.75C129.385 114.453 130.224 114.94 130.949 115.212C131.674 115.461 132.49 115.586 133.397 115.586C134.372 115.586 135.165 115.393 135.777 115.008C136.412 114.6 136.729 114.056 136.729 113.376C136.729 112.855 136.548 112.447 136.185 112.152C135.845 111.835 135.392 111.597 134.825 111.438C134.258 111.257 133.42 111.053 132.309 110.826C130.745 110.486 129.521 110.123 128.637 109.738C127.776 109.33 127.152 108.82 126.767 108.208C126.382 107.596 126.189 106.814 126.189 105.862C126.189 104.887 126.461 104.015 127.005 103.244C127.572 102.473 128.354 101.861 129.351 101.408C130.371 100.955 131.561 100.728 132.921 100.728C134.145 100.728 135.233 100.864 136.185 101.136C137.16 101.408 138.112 101.873 139.041 102.53C139.404 102.802 139.585 103.108 139.585 103.448C139.585 103.675 139.472 103.935 139.245 104.23L138.803 104.774C138.554 105.091 138.248 105.25 137.885 105.25C137.613 105.25 137.352 105.159 137.103 104.978C136.355 104.479 135.664 104.139 135.029 103.958C134.394 103.754 133.68 103.652 132.887 103.652C131.912 103.652 131.13 103.845 130.541 104.23C129.952 104.615 129.657 105.114 129.657 105.726C129.657 106.134 129.793 106.463 130.065 106.712C130.36 106.939 130.768 107.143 131.289 107.324C131.833 107.483 132.683 107.687 133.839 107.936C135.403 108.276 136.638 108.661 137.545 109.092C138.474 109.5 139.154 110.033 139.585 110.69C140.038 111.325 140.265 112.152 140.265 113.172C140.265 114.759 139.63 116.051 138.361 117.048C137.114 118.023 135.437 118.51 133.329 118.51ZM145.207 97.974C144.55 97.974 143.994 97.7587 143.541 97.328C143.088 96.8747 142.861 96.342 142.861 95.73C142.861 95.0953 143.088 94.5627 143.541 94.132C143.994 93.7013 144.55 93.486 145.207 93.486C145.864 93.486 146.42 93.7013 146.873 94.132C147.326 94.5627 147.553 95.0953 147.553 95.73C147.553 96.342 147.326 96.8747 146.873 97.328C146.42 97.7587 145.864 97.974 145.207 97.974ZM144.561 118C144.198 118 143.904 117.898 143.677 117.694C143.473 117.467 143.371 117.173 143.371 116.81V102.428C143.371 102.043 143.473 101.748 143.677 101.544C143.904 101.34 144.198 101.238 144.561 101.238H145.785C146.17 101.238 146.465 101.34 146.669 101.544C146.873 101.748 146.975 102.043 146.975 102.428V116.81C146.975 117.173 146.873 117.467 146.669 117.694C146.465 117.898 146.17 118 145.785 118H144.561ZM157.6 118.51C156.218 118.51 154.982 118.34 153.894 118C152.829 117.637 151.741 117.014 150.63 116.13C150.29 115.881 150.12 115.597 150.12 115.28C150.12 115.031 150.245 114.759 150.494 114.464L151.004 113.886C151.276 113.569 151.571 113.41 151.888 113.41C152.138 113.41 152.41 113.523 152.704 113.75C153.656 114.453 154.495 114.94 155.22 115.212C155.946 115.461 156.762 115.586 157.668 115.586C158.643 115.586 159.436 115.393 160.048 115.008C160.683 114.6 161 114.056 161 113.376C161 112.855 160.819 112.447 160.456 112.152C160.116 111.835 159.663 111.597 159.096 111.438C158.53 111.257 157.691 111.053 156.58 110.826C155.016 110.486 153.792 110.123 152.908 109.738C152.047 109.33 151.424 108.82 151.038 108.208C150.653 107.596 150.46 106.814 150.46 105.862C150.46 104.887 150.732 104.015 151.276 103.244C151.843 102.473 152.625 101.861 153.622 101.408C154.642 100.955 155.832 100.728 157.192 100.728C158.416 100.728 159.504 100.864 160.456 101.136C161.431 101.408 162.383 101.873 163.312 102.53C163.675 102.802 163.856 103.108 163.856 103.448C163.856 103.675 163.743 103.935 163.516 104.23L163.074 104.774C162.825 105.091 162.519 105.25 162.156 105.25C161.884 105.25 161.624 105.159 161.374 104.978C160.626 104.479 159.935 104.139 159.3 103.958C158.666 103.754 157.952 103.652 157.158 103.652C156.184 103.652 155.402 103.845 154.812 104.23C154.223 104.615 153.928 105.114 153.928 105.726C153.928 106.134 154.064 106.463 154.336 106.712C154.631 106.939 155.039 107.143 155.56 107.324C156.104 107.483 156.954 107.687 158.11 107.936C159.674 108.276 160.91 108.661 161.816 109.092C162.746 109.5 163.426 110.033 163.856 110.69C164.31 111.325 164.536 112.152 164.536 113.172C164.536 114.759 163.902 116.051 162.632 117.048C161.386 118.023 159.708 118.51 157.6 118.51ZM175.668 115.144C175.736 115.121 175.838 115.11 175.974 115.11C176.541 115.11 176.881 115.439 176.994 116.096L177.096 116.64C177.119 116.708 177.13 116.821 177.13 116.98C177.13 117.547 176.813 117.909 176.178 118.068C175.271 118.272 174.444 118.374 173.696 118.374C172.087 118.374 170.919 118 170.194 117.252C169.491 116.504 169.14 115.382 169.14 113.886V103.992H167.27C166.907 103.992 166.613 103.89 166.386 103.686C166.182 103.459 166.08 103.165 166.08 102.802V102.428C166.08 102.043 166.182 101.748 166.386 101.544C166.613 101.34 166.907 101.238 167.27 101.238H169.14V97.022C169.14 96.6367 169.242 96.342 169.446 96.138C169.673 95.934 169.967 95.832 170.33 95.832H171.554C171.939 95.832 172.234 95.934 172.438 96.138C172.642 96.342 172.744 96.6367 172.744 97.022V101.238H175.804C176.189 101.238 176.484 101.34 176.688 101.544C176.892 101.748 176.994 102.043 176.994 102.428V102.802C176.994 103.165 176.892 103.459 176.688 103.686C176.484 103.89 176.189 103.992 175.804 103.992H172.744V113.444C172.744 114.101 172.88 114.566 173.152 114.838C173.447 115.11 173.911 115.246 174.546 115.246C174.818 115.246 175.192 115.212 175.668 115.144ZM191.431 113.716C191.726 113.467 192.009 113.342 192.281 113.342C192.553 113.342 192.837 113.489 193.131 113.784L193.607 114.294C193.857 114.589 193.981 114.872 193.981 115.144C193.981 115.439 193.834 115.722 193.539 115.994C192.497 116.901 191.454 117.547 190.411 117.932C189.391 118.317 188.258 118.51 187.011 118.51C185.266 118.51 183.747 118.147 182.455 117.422C181.186 116.697 180.2 115.677 179.497 114.362C178.817 113.025 178.477 111.483 178.477 109.738C178.477 108.015 178.806 106.474 179.463 105.114C180.143 103.731 181.095 102.655 182.319 101.884C183.566 101.113 185.017 100.728 186.671 100.728C189.142 100.728 191.046 101.465 192.383 102.938C193.721 104.389 194.389 106.395 194.389 108.956V109.262C194.367 109.625 194.253 109.908 194.049 110.112C193.845 110.316 193.551 110.418 193.165 110.418H182.013C182.149 111.914 182.637 113.138 183.475 114.09C184.337 115.019 185.538 115.484 187.079 115.484C187.918 115.484 188.655 115.359 189.289 115.11C189.924 114.838 190.638 114.373 191.431 113.716ZM186.603 103.584C185.357 103.584 184.348 103.958 183.577 104.706C182.829 105.431 182.342 106.463 182.115 107.8H190.853C190.763 106.485 190.355 105.454 189.629 104.706C188.904 103.958 187.895 103.584 186.603 103.584ZM206.225 100.728C208.152 100.728 209.625 101.272 210.645 102.36C211.688 103.425 212.209 104.808 212.209 106.508V116.81C212.209 117.173 212.107 117.467 211.903 117.694C211.699 117.898 211.405 118 211.019 118H209.795C209.433 118 209.138 117.898 208.911 117.694C208.707 117.467 208.605 117.173 208.605 116.81V107.63C208.605 106.406 208.299 105.465 207.687 104.808C207.098 104.151 206.248 103.822 205.137 103.822C204.049 103.822 203.131 104.196 202.383 104.944C201.658 105.692 201.295 106.633 201.295 107.766V116.81C201.295 117.173 201.193 117.467 200.989 117.694C200.785 117.898 200.491 118 200.105 118H198.881C198.519 118 198.224 117.898 197.997 117.694C197.793 117.467 197.691 117.173 197.691 116.81V102.428C197.691 102.043 197.793 101.748 197.997 101.544C198.224 101.34 198.519 101.238 198.881 101.238H199.867C200.253 101.238 200.547 101.34 200.751 101.544C200.955 101.748 201.057 102.043 201.057 102.428V103.312C201.601 102.473 202.315 101.839 203.199 101.408C204.083 100.955 205.092 100.728 206.225 100.728ZM223.729 118.51C222.075 118.51 220.613 118.147 219.343 117.422C218.097 116.697 217.122 115.665 216.419 114.328C215.739 112.968 215.399 111.393 215.399 109.602C215.399 107.811 215.751 106.247 216.453 104.91C217.156 103.573 218.142 102.541 219.411 101.816C220.681 101.091 222.143 100.728 223.797 100.728C224.999 100.728 226.075 100.909 227.027 101.272C228.002 101.612 228.931 102.201 229.815 103.04C230.087 103.312 230.223 103.595 230.223 103.89C230.223 104.162 230.076 104.445 229.781 104.74L229.203 105.318C228.954 105.567 228.682 105.692 228.387 105.692C228.093 105.692 227.787 105.556 227.469 105.284C226.812 104.717 226.189 104.332 225.599 104.128C225.033 103.901 224.421 103.788 223.763 103.788C222.267 103.788 221.111 104.343 220.295 105.454C219.479 106.565 219.071 107.947 219.071 109.602C219.071 111.257 219.479 112.651 220.295 113.784C221.111 114.895 222.267 115.45 223.763 115.45C224.489 115.45 225.157 115.314 225.769 115.042C226.381 114.747 227.039 114.26 227.741 113.58C228.036 113.285 228.342 113.138 228.659 113.138C228.931 113.138 229.192 113.251 229.441 113.478L230.019 113.954C230.314 114.203 230.461 114.487 230.461 114.804C230.461 115.144 230.291 115.507 229.951 115.892C229.022 116.844 228.059 117.524 227.061 117.932C226.087 118.317 224.976 118.51 223.729 118.51ZM243.785 102.224C243.989 101.567 244.431 101.238 245.111 101.238H246.335C246.675 101.238 246.936 101.317 247.117 101.476C247.299 101.635 247.389 101.85 247.389 102.122C247.389 102.258 247.355 102.417 247.287 102.598L241.201 120.074C240.657 121.661 239.977 122.783 239.161 123.44C238.368 124.12 237.235 124.46 235.761 124.46C235.081 124.46 234.503 124.415 234.027 124.324C233.71 124.301 233.472 124.188 233.313 123.984C233.155 123.803 233.075 123.576 233.075 123.304C233.075 123.145 233.087 123.021 233.109 122.93L233.211 122.488C233.37 121.853 233.71 121.536 234.231 121.536C234.435 121.536 234.628 121.547 234.809 121.57C234.991 121.593 235.172 121.604 235.353 121.604C236.011 121.604 236.555 121.434 236.985 121.094C237.439 120.754 237.813 120.131 238.107 119.224L238.209 118.952L232.395 102.598C232.327 102.417 232.293 102.247 232.293 102.088C232.293 101.816 232.384 101.612 232.565 101.476C232.769 101.317 233.041 101.238 233.381 101.238H234.673C235.376 101.238 235.829 101.567 236.033 102.224L237.359 106.202C238.357 109.058 239.207 111.676 239.909 114.056L240.895 111.03C241.054 110.554 241.292 109.806 241.609 108.786C241.927 107.766 242.21 106.893 242.459 106.168L243.785 102.224Z" fill="#464646"/>
<g filter="url(#filter0_dd_991_13625)">
<rect x="241" y="126" width="622" height="827.04" rx="16" fill="white"/>
</g>
<rect x="274.026" y="160.403" width="555.947" height="122.473" fill="url(#paint0_linear_991_13625)"/>
<rect x="274.026" y="827.814" width="555.947" height="92.1991" fill="#171717"/>
<rect x="274" y="305.02" width="195.407" height="500.903" fill="#FFE11F"/>
<rect x="491" y="305.02" width="338.522" height="500.903" rx="32" fill="#D91F0A"/>
<g filter="url(#filter1_dd_991_13625)">
<rect x="1058" y="126" width="622" height="827.04" rx="16" fill="white"/>
</g>
<rect x="1091.03" y="160.403" width="555.947" height="122.473" fill="#E1EDFE"/>
<rect x="1091.03" y="827.814" width="555.947" height="92.1991" fill="#E1EDFE"/>
<rect x="1091" y="305.02" width="195.407" height="500.903" fill="#B6F0FF"/>
<rect x="1308" y="305.02" width="338.522" height="500.903" fill="#5C9CFF"/>
<path d="M1030 540L989.879 517.118L990.123 563.305L1030 540ZM892.021 544.73L994.022 544.19L993.98 536.19L891.979 536.73L892.021 544.73Z" fill="#767676"/>
<defs>
<filter id="filter0_dd_991_13625" x="213" y="112" width="678" height="883.04" filterUnits="userSpaceOnUse" color-interpolation-filters="sRGB">
<feFlood flood-opacity="0" result="BackgroundImageFix"/>
<feColorMatrix in="SourceAlpha" type="matrix" values="0 0 0 0 0 0 0 0 0 0 0 0 0 0 0 0 0 0 127 0" result="hardAlpha"/>
<feOffset dy="14"/>
<feGaussianBlur stdDeviation="14"/>
<feColorMatrix type="matrix" values="0 0 0 0 0.272549 0 0 0 0 0.272549 0 0 0 0 0.272549 0 0 0 0.25 0"/>
<feBlend mode="normal" in2="BackgroundImageFix" result="effect1_dropShadow_991_13625"/>
<feColorMatrix in="SourceAlpha" type="matrix" values="0 0 0 0 0 0 0 0 0 0 0 0 0 0 0 0 0 0 127 0" result="hardAlpha"/>
<feOffset dy="9"/>
<feGaussianBlur stdDeviation="6"/>
<feColorMatrix type="matrix" values="0 0 0 0 0.272549 0 0 0 0 0.272549 0 0 0 0 0.272549 0 0 0 0.22 0"/>
<feBlend mode="normal" in2="effect1_dropShadow_991_13625" result="effect2_dropShadow_991_13625"/>
<feBlend mode="normal" in="SourceGraphic" in2="effect2_dropShadow_991_13625" result="shape"/>
</filter>
<filter id="filter1_dd_991_13625" x="1030" y="112" width="678" height="883.04" filterUnits="userSpaceOnUse" color-interpolation-filters="sRGB">
<feFlood flood-opacity="0" result="BackgroundImageFix"/>
<feColorMatrix in="SourceAlpha" type="matrix" values="0 0 0 0 0 0 0 0 0 0 0 0 0 0 0 0 0 0 127 0" result="hardAlpha"/>
<feOffset dy="14"/>
<feGaussianBlur stdDeviation="14"/>
<feColorMatrix type="matrix" values="0 0 0 0 0.272549 0 0 0 0 0.272549 0 0 0 0 0.272549 0 0 0 0.25 0"/>
<feBlend mode="normal" in2="BackgroundImageFix" result="effect1_dropShadow_991_13625"/>
<feColorMatrix in="SourceAlpha" type="matrix" values="0 0 0 0 0 0 0 0 0 0 0 0 0 0 0 0 0 0 127 0" result="hardAlpha"/>
<feOffset dy="9"/>
<feGaussianBlur stdDeviation="6"/>
<feColorMatrix type="matrix" values="0 0 0 0 0.272549 0 0 0 0 0.272549 0 0 0 0 0.272549 0 0 0 0.22 0"/>
<feBlend mode="normal" in2="effect1_dropShadow_991_13625" result="effect2_dropShadow_991_13625"/>
<feBlend mode="normal" in="SourceGraphic" in2="effect2_dropShadow_991_13625" result="shape"/>
</filter>
<linearGradient id="paint0_linear_991_13625" x1="552" y1="160.403" x2="552" y2="282.876" gradientUnits="userSpaceOnUse">
<stop stop-color="#003280"/>
<stop offset="1" stop-color="#5F9AF5"/>
</linearGradient>
</defs>
</svg>
