<svg width="1920" height="1080" viewBox="0 0 1920 1080" fill="none" xmlns="http://www.w3.org/2000/svg">
<g clip-path="url(#clip0_765_11693)">
<rect width="1920" height="1080" fill="white"/>
<rect x="8" y="8" width="1904" height="1064" fill="#0063FB" stroke="white" stroke-width="16"/>
<rect x="1737.69" y="898.451" width="166" height="166" fill="#38BDF8"/>
<path d="M1915.69 1076.49H1725.6V886.013H1915.69V1076.49ZM1738.04 1064.03H1903.18V898.555H1738.04V1064.03Z" fill="white"/>
<path d="M1827.59 809.549C1869.26 809.549 1903.18 843.533 1903.18 885.285V886.094H1826.78V809.549H1827.59ZM1827.59 797.007H1814.35V898.474H1915.61V885.204C1915.61 836.493 1876.21 797.007 1827.59 797.007Z" fill="white"/>
<path d="M1649.21 992.659L1720.43 1064.03H1649.21V992.659ZM1649.21 975.019H1636.77V1076.49H1738.04V1064.03L1649.21 975.019Z" fill="white"/>
<path d="M1725.6 987.48V1064.03H1649.21V987.48H1725.6ZM1738.04 975.019H1636.77V1076.49H1738.04V975.019Z" fill="white"/>
<path d="M1559.49 952.121L1505.55 1006.17L1451.6 952.121L1505.55 898.07L1559.49 952.121ZM1577.09 952.121L1505.55 880.43L1434 952.121L1505.55 1023.81L1577.09 952.121Z" fill="white"/>
<path d="M1700.69 850.451H1622.69V772.451H1700.69V850.451Z" fill="#BAE6FD"/>
<path d="M1623.61 773.461H1699.92V849.925H1623.61V773.461ZM1611.09 761V862.386H1712.28V761H1611.09Z" fill="white"/>
<path fill-rule="evenodd" clip-rule="evenodd" d="M181.281 163.915H165.717C164.746 163.915 163.957 164.696 163.957 165.656V214.344C163.957 215.304 164.746 216.086 165.717 216.086H216.69V198.946C216.69 179.63 200.805 163.915 181.281 163.915Z" fill="#0063FB"/>
<path fill-rule="evenodd" clip-rule="evenodd" d="M328.283 163.915H222.406C221.436 163.915 220.646 164.696 220.646 165.656V216.085H328.283C329.253 216.085 330.043 215.304 330.043 214.344V165.656C330.043 164.696 329.253 163.915 328.283 163.915Z" fill="#06BEFB"/>
<path fill-rule="evenodd" clip-rule="evenodd" d="M163.957 214.344V165.656C163.957 164.696 164.747 163.915 165.717 163.915H181.281C200.805 163.915 216.689 179.63 216.689 198.946V216.085H165.717C164.747 216.085 163.957 215.304 163.957 214.344ZM330.043 214.344C330.043 215.304 329.253 216.085 328.283 216.085H220.646V165.656C220.646 164.696 221.436 163.915 222.407 163.915H328.283C329.253 163.915 330.043 164.696 330.043 165.656V214.344ZM328.283 160H222.407C219.254 160 216.689 162.537 216.689 165.656V181.939C210.296 168.963 196.827 160 181.281 160H165.717C162.565 160 160 162.537 160 165.656V214.344C160 217.463 162.565 220 165.717 220H328.283C331.435 220 334 217.463 334 214.344V165.656C334 162.537 331.435 160 328.283 160Z" fill="white"/>
<path fill-rule="evenodd" clip-rule="evenodd" d="M238.503 179.828H252.76C253.379 179.828 253.881 180.325 253.881 180.938V184.418C253.881 185.031 253.379 185.528 252.76 185.528H243.618V190.12H250.897C251.516 190.12 252.018 190.617 252.018 191.23V194.193C252.018 194.805 251.516 195.302 250.897 195.302H243.618V199.063C243.618 199.675 243.115 200.172 242.496 200.172H238.503C237.883 200.172 237.381 199.675 237.381 199.063V180.938C237.381 180.325 237.883 179.828 238.503 179.828ZM260.092 179.828H264.085C264.704 179.828 265.207 180.325 265.207 180.938V199.063C265.207 199.675 264.704 200.172 264.085 200.172H260.092C259.472 200.172 258.97 199.675 258.97 199.063V180.938C258.97 180.325 259.472 179.828 260.092 179.828ZM312.187 179.828H308.193C307.574 179.828 307.072 180.325 307.072 180.938V189.825L300.828 180.491C300.551 180.077 300.082 179.828 299.58 179.828H296.513C295.893 179.828 295.391 180.325 295.391 180.938V199.063C295.391 199.675 295.893 200.172 296.513 200.172H300.506C301.126 200.172 301.628 199.675 301.628 199.063V190.278L307.735 199.503C308.012 199.92 308.482 200.172 308.986 200.172H312.187C312.806 200.172 313.308 199.675 313.308 199.063V180.938C313.308 180.325 312.806 179.828 312.187 179.828ZM284.142 179.828H288.136C288.755 179.828 289.258 180.325 289.258 180.938V199.063C289.258 199.675 288.755 200.172 288.136 200.172H284.935C284.431 200.172 283.961 199.92 283.685 199.503L277.577 190.278V199.063C277.577 199.675 277.075 200.172 276.456 200.172H272.462C271.843 200.172 271.34 199.675 271.34 199.063V180.938C271.34 180.325 271.843 179.828 272.462 179.828H275.53C276.031 179.828 276.5 180.077 276.777 180.491L283.021 189.825V180.938C283.021 180.325 283.523 179.828 284.142 179.828Z" fill="white"/>
<path d="M170.944 373C168.384 373 167.104 371.72 167.104 369.16V308.68C167.104 306.12 168.384 304.84 170.944 304.84H210.688C213.248 304.84 214.528 306.12 214.528 308.68V311.656C214.528 314.216 213.248 315.496 210.688 315.496H179.68V334.216H208.384C210.944 334.216 212.224 335.496 212.224 338.056V341.032C212.224 343.592 210.944 344.872 208.384 344.872H179.68V369.16C179.68 371.72 178.4 373 175.84 373H170.944ZM241.985 324.136C248.577 324.136 253.633 325.672 257.153 328.744C260.673 331.752 262.433 335.816 262.433 340.936V369.16C262.433 371.72 261.153 373 258.593 373H255.713C253.153 373 251.873 371.72 251.873 369.16V368.008C250.401 370.056 248.353 371.656 245.729 372.808C243.169 373.96 240.097 374.536 236.513 374.536C231.585 374.536 227.521 373.448 224.321 371.272C221.185 369.032 219.617 365.64 219.617 361.096C219.617 356.104 221.441 352.392 225.089 349.96C228.801 347.464 233.825 345.64 240.161 344.488L251.297 342.472V341.224C251.297 338.92 250.465 337.128 248.801 335.848C247.137 334.504 244.929 333.832 242.177 333.832C239.745 333.832 237.601 334.248 235.745 335.08C233.953 335.912 232.065 337.224 230.081 339.016C229.057 339.848 228.129 340.264 227.297 340.264C226.465 340.264 225.569 339.848 224.609 339.016L222.785 337.288C221.825 336.328 221.345 335.368 221.345 334.408C221.345 333.512 221.729 332.68 222.497 331.912C225.249 329.288 228.193 327.336 231.329 326.056C234.529 324.776 238.081 324.136 241.985 324.136ZM238.433 365.224C241.953 365.224 244.961 364.296 247.457 362.44C250.017 360.52 251.297 357.64 251.297 353.8V350.824L243.137 352.456C238.977 353.352 235.905 354.344 233.921 355.432C232.001 356.52 231.041 358.152 231.041 360.328C231.041 361.8 231.681 362.984 232.961 363.88C234.305 364.776 236.129 365.224 238.433 365.224ZM299.301 324.328C303.333 324.328 306.917 325.352 310.053 327.4C313.253 329.448 315.749 332.36 317.541 336.136C319.333 339.912 320.229 344.296 320.229 349.288C320.229 354.28 319.333 358.696 317.541 362.536C315.749 366.312 313.253 369.224 310.053 371.272C306.853 373.32 303.269 374.344 299.301 374.344C292.581 374.344 287.525 371.848 284.133 366.856V369.16C284.133 371.72 282.853 373 280.293 373H277.029C274.469 373 273.189 371.72 273.189 369.16V308.68C273.189 306.12 274.469 304.84 277.029 304.84H281.061C283.621 304.84 284.901 306.12 284.901 308.68V330.856C288.229 326.504 293.029 324.328 299.301 324.328ZM296.613 364.072C300.133 364.072 302.949 362.76 305.061 360.136C307.237 357.448 308.325 353.832 308.325 349.288C308.325 344.744 307.269 341.128 305.157 338.44C303.109 335.752 300.293 334.408 296.709 334.408C293.125 334.408 290.181 335.752 287.877 338.44C285.637 341.128 284.517 344.744 284.517 349.288C284.517 353.896 285.637 357.512 287.877 360.136C290.181 362.76 293.093 364.072 296.613 364.072ZM351.441 325.096C352.657 325.096 353.969 325.256 355.377 325.576C357.361 325.96 358.353 327.112 358.353 329.032C358.353 329.544 358.321 329.928 358.257 330.184L357.681 332.968C357.297 335.08 356.273 336.136 354.609 336.136C354.289 336.136 354.033 336.104 353.841 336.04C352.689 335.848 351.697 335.752 350.865 335.752C347.665 335.752 345.105 336.968 343.185 339.4C341.329 341.832 340.401 345.192 340.401 349.48V369.16C340.401 371.72 339.121 373 336.561 373H332.529C329.969 373 328.689 371.72 328.689 369.16V329.512C328.689 326.952 329.969 325.672 332.529 325.672H335.793C338.353 325.672 339.633 326.952 339.633 329.512V332.584C342.193 327.592 346.129 325.096 351.441 325.096ZM371.109 317.608C368.997 317.608 367.205 316.936 365.733 315.592C364.325 314.184 363.621 312.488 363.621 310.504C363.621 308.52 364.325 306.856 365.733 305.512C367.205 304.104 368.997 303.4 371.109 303.4C373.221 303.4 374.981 304.104 376.389 305.512C377.861 306.856 378.597 308.52 378.597 310.504C378.597 312.488 377.861 314.184 376.389 315.592C374.981 316.936 373.221 317.608 371.109 317.608ZM368.997 373C366.437 373 365.157 371.72 365.157 369.16V329.512C365.157 326.952 366.437 325.672 368.997 325.672H373.029C375.589 325.672 376.869 326.952 376.869 329.512V369.16C376.869 371.72 375.589 373 373.029 373H368.997ZM409.255 374.536C404.519 374.536 400.327 373.512 396.679 371.464C393.095 369.416 390.279 366.504 388.231 362.728C386.247 358.888 385.255 354.408 385.255 349.288C385.255 344.168 386.279 339.72 388.327 335.944C390.375 332.104 393.223 329.192 396.871 327.208C400.583 325.16 404.807 324.136 409.543 324.136C412.871 324.136 415.879 324.616 418.567 325.576C421.319 326.536 423.975 328.136 426.535 330.376C427.495 331.208 427.975 332.104 427.975 333.064C427.975 334.024 427.495 334.952 426.535 335.848L424.615 337.768C423.783 338.6 422.919 339.016 422.023 339.016C421.191 339.016 420.199 338.6 419.047 337.768C417.255 336.36 415.623 335.4 414.151 334.888C412.743 334.376 411.207 334.12 409.543 334.12C405.639 334.12 402.599 335.56 400.423 338.44C398.247 341.32 397.159 344.936 397.159 349.288C397.159 353.64 398.215 357.288 400.327 360.232C402.503 363.112 405.543 364.552 409.447 364.552C411.367 364.552 413.095 364.2 414.631 363.496C416.231 362.728 417.927 361.48 419.719 359.752C420.679 358.792 421.671 358.312 422.695 358.312C423.527 358.312 424.391 358.696 425.287 359.464L427.207 361.096C428.167 361.864 428.647 362.792 428.647 363.88C428.647 364.968 428.071 366.088 426.919 367.24C424.295 369.928 421.575 371.816 418.759 372.904C416.007 373.992 412.839 374.536 409.255 374.536ZM463.257 373C460.697 373 459.417 371.72 459.417 369.16V308.68C459.417 306.12 460.697 304.84 463.257 304.84H486.681C493.081 304.84 498.617 306.28 503.289 309.16C507.961 312.04 511.513 316.072 513.945 321.256C516.377 326.376 517.593 332.264 517.593 338.92C517.593 345.576 516.377 351.496 513.945 356.68C511.513 361.8 507.961 365.8 503.289 368.68C498.617 371.56 493.081 373 486.681 373H463.257ZM484.857 362.344C490.937 362.344 495.737 360.36 499.257 356.392C502.841 352.424 504.633 346.6 504.633 338.92C504.633 331.24 502.841 325.416 499.257 321.448C495.737 317.48 490.937 315.496 484.857 315.496H471.993V362.344H484.857ZM561.228 360.424C562.188 359.656 563.084 359.272 563.916 359.272C564.876 359.272 565.772 359.752 566.604 360.712L568.236 362.44C569.068 363.272 569.484 364.136 569.484 365.032C569.484 366.12 568.972 367.08 567.948 367.912C565.068 370.28 562.156 371.976 559.212 373C556.332 374.024 553.164 374.536 549.708 374.536C544.652 374.536 540.268 373.512 536.556 371.464C532.844 369.416 529.996 366.504 528.012 362.728C526.028 358.952 525.036 354.568 525.036 349.576C525.036 344.712 525.964 340.36 527.82 336.52C529.74 332.616 532.492 329.576 536.076 327.4C539.66 325.224 543.852 324.136 548.652 324.136C555.756 324.136 561.196 326.216 564.972 330.376C568.812 334.536 570.732 340.296 570.732 347.656V348.52C570.668 351.016 569.356 352.264 566.796 352.264H536.46C536.908 356.04 538.252 359.048 540.492 361.288C542.796 363.528 545.932 364.648 549.9 364.648C552.076 364.648 553.996 364.328 555.66 363.688C557.324 363.048 559.18 361.96 561.228 360.424ZM548.364 333.352C545.228 333.352 542.668 334.312 540.684 336.232C538.7 338.088 537.388 340.648 536.748 343.912H559.308C559.052 340.648 557.996 338.088 556.14 336.232C554.284 334.312 551.692 333.352 548.364 333.352ZM598.382 374.536C594.414 374.536 590.894 374.056 587.822 373.096C584.75 372.136 581.678 370.44 578.606 368.008C577.518 367.112 576.974 366.184 576.974 365.224C576.974 364.328 577.358 363.464 578.126 362.632L579.854 360.712C580.75 359.752 581.71 359.272 582.734 359.272C583.566 359.272 584.43 359.592 585.326 360.232C587.886 362.088 590.126 363.368 592.046 364.072C594.03 364.712 596.238 365.032 598.67 365.032C601.166 365.032 603.182 364.584 604.718 363.688C606.254 362.792 607.022 361.512 607.022 359.848C607.022 358.568 606.542 357.576 605.582 356.872C604.622 356.104 603.406 355.528 601.934 355.144C600.526 354.696 598.286 354.152 595.214 353.512C590.67 352.552 587.15 351.496 584.654 350.344C582.222 349.128 580.462 347.624 579.374 345.832C578.35 344.04 577.838 341.736 577.838 338.92C577.838 336.168 578.606 333.672 580.142 331.432C581.742 329.192 584.014 327.432 586.958 326.152C589.902 324.808 593.39 324.136 597.422 324.136C600.942 324.136 604.014 324.52 606.638 325.288C609.326 325.992 611.982 327.272 614.606 329.128C615.758 329.896 616.334 330.824 616.334 331.912C616.334 332.744 615.982 333.608 615.278 334.504L613.838 336.328C613.006 337.352 612.046 337.864 610.958 337.864C610.126 337.864 609.262 337.576 608.366 337C606.382 335.72 604.526 334.824 602.798 334.312C601.134 333.8 599.278 333.544 597.23 333.544C594.798 333.544 592.814 334.024 591.278 334.984C589.806 335.88 589.07 337.064 589.07 338.536C589.07 339.56 589.422 340.36 590.126 340.936C590.83 341.512 591.854 341.992 593.198 342.376C594.606 342.76 596.942 343.336 600.206 344.104C604.686 345.064 608.238 346.152 610.862 347.368C613.486 348.584 615.406 350.12 616.622 351.976C617.838 353.832 618.446 356.2 618.446 359.08C618.446 363.688 616.654 367.432 613.07 370.312C609.486 373.128 604.59 374.536 598.382 374.536ZM632.484 317.608C630.372 317.608 628.58 316.936 627.108 315.592C625.7 314.184 624.996 312.488 624.996 310.504C624.996 308.52 625.7 306.856 627.108 305.512C628.58 304.104 630.372 303.4 632.484 303.4C634.596 303.4 636.356 304.104 637.764 305.512C639.236 306.856 639.972 308.52 639.972 310.504C639.972 312.488 639.236 314.184 637.764 315.592C636.356 316.936 634.596 317.608 632.484 317.608ZM630.372 373C627.812 373 626.532 371.72 626.532 369.16V329.512C626.532 326.952 627.812 325.672 630.372 325.672H634.404C636.964 325.672 638.244 326.952 638.244 329.512V369.16C638.244 371.72 636.964 373 634.404 373H630.372ZM682.15 328.36C682.15 326.568 683.43 325.672 685.99 325.672H689.158C691.718 325.672 692.998 326.952 692.998 329.512V370.792C692.998 377.32 690.854 382.344 686.566 385.864C682.278 389.448 676.742 391.24 669.958 391.24C663.302 391.24 656.966 389.576 650.95 386.248C649.67 385.544 649.03 384.584 649.03 383.368C649.03 382.536 649.286 381.736 649.798 380.968L651.238 378.856C652.07 377.576 653.062 376.936 654.214 376.936C654.918 376.936 655.686 377.16 656.518 377.608C659.014 378.952 661.286 379.912 663.334 380.488C665.382 381.128 667.558 381.448 669.862 381.448C673.382 381.448 676.198 380.488 678.31 378.568C680.422 376.712 681.478 373.768 681.478 369.736V365.896C678.278 369.928 673.67 371.944 667.654 371.944C663.686 371.944 660.102 370.952 656.902 368.968C653.766 366.92 651.302 364.104 649.51 360.52C647.718 356.872 646.822 352.712 646.822 348.04C646.822 343.368 647.718 339.24 649.51 335.656C651.302 332.008 653.766 329.192 656.902 327.208C660.102 325.16 663.686 324.136 667.654 324.136C674.182 324.136 679.014 326.44 682.15 331.048V328.36ZM670.246 362.056C673.638 362.056 676.422 360.776 678.598 358.216C680.774 355.592 681.862 352.2 681.862 348.04C681.862 343.88 680.774 340.552 678.598 338.056C676.422 335.496 673.638 334.216 670.246 334.216C666.726 334.216 663.91 335.496 661.798 338.056C659.686 340.552 658.63 343.88 658.63 348.04C658.63 352.2 659.686 355.592 661.798 358.216C663.91 360.776 666.726 362.056 670.246 362.056ZM729.03 324.136C734.47 324.136 738.63 325.64 741.51 328.648C744.454 331.656 745.926 335.624 745.926 340.552V369.16C745.926 371.72 744.646 373 742.086 373H738.054C735.494 373 734.214 371.72 734.214 369.16V344.104C734.214 340.968 733.446 338.536 731.91 336.808C730.374 335.08 728.166 334.216 725.286 334.216C722.47 334.216 720.134 335.176 718.278 337.096C716.422 339.016 715.494 341.448 715.494 344.392V369.16C715.494 371.72 714.214 373 711.654 373H707.622C705.062 373 703.782 371.72 703.782 369.16V329.512C703.782 326.952 705.062 325.672 707.622 325.672H710.886C713.446 325.672 714.726 326.952 714.726 329.512V331.144C716.262 328.904 718.246 327.176 720.678 325.96C723.11 324.744 725.894 324.136 729.03 324.136ZM804.243 374.632C798.867 374.632 794.099 373.864 789.939 372.328C785.843 370.792 781.619 368.232 777.267 364.648C776.179 363.752 775.635 362.792 775.635 361.768C775.635 360.936 776.019 360.104 776.787 359.272L779.283 356.296C780.115 355.272 781.075 354.76 782.163 354.76C783.059 354.76 783.955 355.112 784.851 355.816C788.563 358.76 791.859 360.808 794.739 361.96C797.619 363.048 800.851 363.592 804.435 363.592C808.595 363.592 811.955 362.728 814.515 361C817.075 359.208 818.355 356.744 818.355 353.608C818.355 351.624 817.779 350.088 816.627 349C815.475 347.848 813.907 346.952 811.923 346.312C810.003 345.672 807.091 344.904 803.187 344.008L800.691 343.432C794.611 341.96 789.907 340.392 786.579 338.728C783.251 337 780.851 334.952 779.379 332.584C777.971 330.152 777.267 327.112 777.267 323.464C777.267 319.624 778.355 316.2 780.531 313.192C782.707 310.12 785.747 307.72 789.651 305.992C793.555 304.2 798.003 303.304 802.995 303.304C807.859 303.304 812.115 303.944 815.763 305.224C819.475 306.44 823.187 308.456 826.899 311.272C827.987 312.104 828.531 313.064 828.531 314.152C828.531 315.112 828.179 315.976 827.475 316.744L824.979 319.72C824.147 320.744 823.251 321.256 822.291 321.256C821.395 321.256 820.467 320.872 819.507 320.104C816.563 317.864 813.843 316.328 811.347 315.496C808.915 314.664 806.067 314.248 802.803 314.248C798.835 314.248 795.667 315.08 793.299 316.744C790.931 318.408 789.747 320.52 789.747 323.08C789.747 324.936 790.323 326.408 791.475 327.496C792.627 328.52 794.291 329.416 796.467 330.184C798.707 330.888 802.131 331.752 806.739 332.776C812.627 334.184 817.267 335.688 820.659 337.288C824.051 338.824 826.579 340.808 828.243 343.24C829.971 345.672 830.835 348.808 830.835 352.648C830.835 356.936 829.747 360.744 827.571 364.072C825.395 367.4 822.291 369.992 818.259 371.848C814.291 373.704 809.619 374.632 804.243 374.632ZM866.551 328.84C867.255 326.728 868.695 325.672 870.871 325.672H874.903C875.927 325.672 876.727 325.928 877.303 326.44C877.943 326.888 878.263 327.56 878.263 328.456C878.263 328.968 878.167 329.512 877.975 330.088L861.175 378.376C859.639 382.92 857.623 386.152 855.127 388.072C852.695 390.056 849.335 391.048 845.047 391.048C843.767 391.048 842.039 390.92 839.863 390.664C838.903 390.6 838.135 390.248 837.559 389.608C836.983 389.032 836.695 388.296 836.695 387.4C836.695 387.08 836.759 386.664 836.887 386.152L837.175 384.712C837.751 382.6 838.807 381.544 840.343 381.544C840.919 381.544 841.463 381.576 841.975 381.64C842.487 381.704 842.999 381.736 843.511 381.736C845.303 381.736 846.807 381.288 848.023 380.392C849.303 379.56 850.327 377.992 851.095 375.688V375.592L834.967 330.088C834.775 329.512 834.679 329 834.679 328.552C834.679 327.656 834.967 326.952 835.543 326.44C836.183 325.928 837.047 325.672 838.135 325.672H842.359C844.535 325.672 845.975 326.728 846.679 328.84L849.943 338.344C852.951 347.304 855.223 354.408 856.759 359.656L858.295 354.664C859.895 349.224 861.591 343.784 863.383 338.344L866.551 328.84ZM905.132 374.536C901.164 374.536 897.644 374.056 894.572 373.096C891.5 372.136 888.428 370.44 885.356 368.008C884.268 367.112 883.724 366.184 883.724 365.224C883.724 364.328 884.108 363.464 884.876 362.632L886.604 360.712C887.5 359.752 888.46 359.272 889.484 359.272C890.316 359.272 891.18 359.592 892.076 360.232C894.636 362.088 896.876 363.368 898.796 364.072C900.78 364.712 902.988 365.032 905.42 365.032C907.916 365.032 909.932 364.584 911.468 363.688C913.004 362.792 913.772 361.512 913.772 359.848C913.772 358.568 913.292 357.576 912.332 356.872C911.372 356.104 910.156 355.528 908.684 355.144C907.276 354.696 905.036 354.152 901.964 353.512C897.42 352.552 893.9 351.496 891.404 350.344C888.972 349.128 887.212 347.624 886.124 345.832C885.1 344.04 884.588 341.736 884.588 338.92C884.588 336.168 885.356 333.672 886.892 331.432C888.492 329.192 890.764 327.432 893.708 326.152C896.652 324.808 900.14 324.136 904.172 324.136C907.692 324.136 910.764 324.52 913.388 325.288C916.076 325.992 918.732 327.272 921.356 329.128C922.508 329.896 923.084 330.824 923.084 331.912C923.084 332.744 922.732 333.608 922.028 334.504L920.588 336.328C919.756 337.352 918.796 337.864 917.708 337.864C916.876 337.864 916.012 337.576 915.116 337C913.132 335.72 911.276 334.824 909.548 334.312C907.884 333.8 906.028 333.544 903.98 333.544C901.548 333.544 899.564 334.024 898.028 334.984C896.556 335.88 895.82 337.064 895.82 338.536C895.82 339.56 896.172 340.36 896.876 340.936C897.58 341.512 898.604 341.992 899.948 342.376C901.356 342.76 903.692 343.336 906.956 344.104C911.436 345.064 914.988 346.152 917.612 347.368C920.236 348.584 922.156 350.12 923.372 351.976C924.588 353.832 925.196 356.2 925.196 359.08C925.196 363.688 923.404 367.432 919.82 370.312C916.236 373.128 911.34 374.536 905.132 374.536ZM957.191 363.688C959.239 363.304 960.455 364.392 960.839 366.952L961.127 368.776C961.447 371.208 960.455 372.712 958.151 373.288C955.911 373.864 953.575 374.152 951.143 374.152C946.471 374.152 943.047 373.064 940.871 370.888C938.759 368.648 937.703 365.32 937.703 360.904V334.6H933.095C930.535 334.6 929.255 333.32 929.255 330.76V329.512C929.255 326.952 930.535 325.672 933.095 325.672H937.703V314.728C937.703 312.168 938.983 310.888 941.543 310.888H945.575C948.135 310.888 949.415 312.168 949.415 314.728V325.672H956.999C959.559 325.672 960.839 326.952 960.839 329.512V330.76C960.839 333.32 959.559 334.6 956.999 334.6H949.415V359.464C949.415 361.128 949.799 362.312 950.567 363.016C951.335 363.656 952.551 363.976 954.215 363.976C954.983 363.976 955.975 363.88 957.191 363.688ZM1001.1 360.424C1002.06 359.656 1002.96 359.272 1003.79 359.272C1004.75 359.272 1005.65 359.752 1006.48 360.712L1008.11 362.44C1008.94 363.272 1009.36 364.136 1009.36 365.032C1009.36 366.12 1008.85 367.08 1007.82 367.912C1004.94 370.28 1002.03 371.976 999.087 373C996.207 374.024 993.039 374.536 989.583 374.536C984.527 374.536 980.143 373.512 976.431 371.464C972.719 369.416 969.871 366.504 967.887 362.728C965.903 358.952 964.911 354.568 964.911 349.576C964.911 344.712 965.839 340.36 967.695 336.52C969.615 332.616 972.367 329.576 975.951 327.4C979.535 325.224 983.727 324.136 988.527 324.136C995.631 324.136 1001.07 326.216 1004.85 330.376C1008.69 334.536 1010.61 340.296 1010.61 347.656V348.52C1010.54 351.016 1009.23 352.264 1006.67 352.264H976.335C976.783 356.04 978.127 359.048 980.367 361.288C982.671 363.528 985.807 364.648 989.775 364.648C991.951 364.648 993.871 364.328 995.535 363.688C997.199 363.048 999.055 361.96 1001.1 360.424ZM988.239 333.352C985.103 333.352 982.543 334.312 980.559 336.232C978.575 338.088 977.263 340.648 976.623 343.912H999.183C998.927 340.648 997.871 338.088 996.015 336.232C994.159 334.312 991.567 333.352 988.239 333.352ZM1071.09 324.136C1076.15 324.136 1080.02 325.576 1082.71 328.456C1085.46 331.272 1086.84 335.112 1086.84 339.976V369.16C1086.84 371.72 1085.56 373 1083 373H1078.96C1076.4 373 1075.12 371.72 1075.12 369.16V343.528C1075.12 340.648 1074.52 338.376 1073.3 336.712C1072.08 335.048 1070.13 334.216 1067.44 334.216C1064.76 334.216 1062.68 335.112 1061.2 336.904C1059.73 338.696 1059 341.032 1059 343.912V369.16C1059 371.72 1057.72 373 1055.16 373H1051.12C1048.56 373 1047.28 371.72 1047.28 369.16V343.528C1047.28 340.648 1046.68 338.376 1045.46 336.712C1044.24 335.048 1042.29 334.216 1039.6 334.216C1036.92 334.216 1034.8 335.112 1033.27 336.904C1031.8 338.696 1031.03 341 1030.96 343.816V369.16C1030.96 371.72 1029.68 373 1027.12 373H1023.09C1020.53 373 1019.25 371.72 1019.25 369.16V329.512C1019.25 326.952 1020.53 325.672 1023.09 325.672H1026.36C1028.92 325.672 1030.2 326.952 1030.2 329.512V331.048C1033.14 326.44 1037.65 324.136 1043.73 324.136C1046.8 324.136 1049.46 324.744 1051.7 325.96C1053.94 327.176 1055.67 328.904 1056.88 331.144C1060.08 326.472 1064.82 324.136 1071.09 324.136ZM194.5 453C193.82 453 193.36 452.68 193.12 452.04L189.16 441.06H169.78L165.88 452.04C165.64 452.68 165.18 453 164.5 453H162.64C162.32 453 162.06 452.92 161.86 452.76C161.66 452.6 161.56 452.38 161.56 452.1L161.68 451.62L176.38 411.36C176.62 410.72 177.08 410.4 177.76 410.4H181.24C181.92 410.4 182.38 410.72 182.62 411.36L197.32 451.62L197.44 452.1C197.44 452.38 197.34 452.6 197.14 452.76C196.94 452.92 196.68 453 196.36 453H194.5ZM187.84 437.46L185.74 431.58L185.26 430.32C184.7 428.8 183.78 426.26 182.5 422.7C181.26 419.14 180.24 416.12 179.44 413.64C178.36 417.04 176.66 421.98 174.34 428.46C174.18 428.9 174 429.38 173.8 429.9C173.6 430.42 173.4 430.98 173.2 431.58L171.1 437.46H187.84ZM229.32 422.7C232.8 422.7 235.42 423.66 237.18 425.58C238.98 427.5 239.88 429.9 239.88 432.78V451.8C239.88 452.6 239.48 453 238.68 453H237.12C236.32 453 235.92 452.6 235.92 451.8V434.1C235.92 431.46 235.28 429.46 234 428.1C232.72 426.74 230.88 426.06 228.48 426.06C226.96 426.06 225.56 426.44 224.28 427.2C223 427.92 221.98 428.92 221.22 430.2C220.46 431.48 220.08 432.88 220.08 434.4V451.8C220.08 452.6 219.68 453 218.88 453H217.32C216.52 453 216.12 452.6 216.12 451.8V424.62C216.12 423.82 216.52 423.42 217.32 423.42H218.64C219.44 423.42 219.84 423.82 219.84 424.62V427.5C220.84 425.9 222.16 424.7 223.8 423.9C225.44 423.1 227.28 422.7 229.32 422.7ZM270.179 445.98C270.459 445.7 270.759 445.56 271.079 445.56C271.359 445.56 271.619 445.68 271.859 445.92L272.639 446.64C272.919 446.92 273.059 447.22 273.059 447.54C273.059 447.78 272.939 448.06 272.699 448.38C270.739 450.34 268.839 451.74 266.999 452.58C265.159 453.38 263.099 453.78 260.819 453.78C257.939 453.78 255.439 453.14 253.319 451.86C251.199 450.58 249.559 448.8 248.399 446.52C247.239 444.2 246.659 441.52 246.659 438.48C246.659 435.4 247.219 432.68 248.339 430.32C249.499 427.92 251.119 426.06 253.199 424.74C255.279 423.38 257.679 422.7 260.399 422.7C264.439 422.7 267.619 423.96 269.939 426.48C272.259 429 273.419 432.4 273.419 436.68V437.4C273.379 437.76 273.239 438.04 272.999 438.24C272.799 438.44 272.519 438.54 272.159 438.54H250.679C250.799 441.9 251.679 444.74 253.319 447.06C254.999 449.34 257.499 450.48 260.819 450.48C262.619 450.48 264.199 450.16 265.559 449.52C266.959 448.84 268.499 447.66 270.179 445.98ZM260.399 426C257.759 426 255.579 426.82 253.859 428.46C252.179 430.06 251.159 432.42 250.799 435.54H269.459C269.379 432.62 268.539 430.3 266.939 428.58C265.339 426.86 263.159 426 260.399 426ZM313.397 424.44C313.557 423.76 314.017 423.42 314.777 423.42H316.397C316.837 423.42 317.137 423.54 317.297 423.78C317.497 424.02 317.537 424.34 317.417 424.74L309.677 451.98C309.517 452.66 309.057 453 308.297 453H305.597C304.917 453 304.477 452.66 304.277 451.98L301.517 442.8C300.077 438 298.737 433.08 297.497 428.04C296.297 432.92 294.977 437.88 293.537 442.92L290.897 451.98C290.737 452.66 290.277 453 289.517 453H286.937C286.177 453 285.717 452.66 285.557 451.98L277.817 424.74C277.777 424.66 277.757 424.52 277.757 424.32C277.757 424.04 277.857 423.82 278.057 423.66C278.257 423.5 278.517 423.42 278.837 423.42H280.457C281.217 423.42 281.677 423.76 281.837 424.44L284.717 435.06C286.037 439.9 287.257 444.72 288.377 449.52C289.257 445.96 290.557 441.14 292.277 435.06L295.337 424.44C295.497 423.76 295.957 423.42 296.717 423.42H298.517C299.237 423.42 299.677 423.76 299.837 424.44L302.957 435.06C304.317 439.98 305.597 444.82 306.797 449.58C307.717 445.58 308.957 440.74 310.517 435.06L313.397 424.44ZM351.686 422.76C354.206 422.76 356.446 423.42 358.406 424.74C360.406 426.02 361.946 427.84 363.026 430.2C364.146 432.52 364.706 435.2 364.706 438.24C364.706 441.28 364.146 443.98 363.026 446.34C361.906 448.66 360.346 450.48 358.346 451.8C356.386 453.08 354.166 453.72 351.686 453.72C346.926 453.72 343.446 451.88 341.246 448.2V451.8C341.246 452.6 340.846 453 340.046 453H338.726C337.926 453 337.526 452.6 337.526 451.8V411.54C337.526 410.74 337.926 410.34 338.726 410.34H340.286C341.086 410.34 341.486 410.74 341.486 411.54V428.1C343.686 424.54 347.086 422.76 351.686 422.76ZM351.386 450.36C354.146 450.36 356.366 449.24 358.046 447C359.766 444.76 360.626 441.84 360.626 438.24C360.626 434.64 359.766 431.72 358.046 429.48C356.366 427.24 354.146 426.12 351.386 426.12C348.426 426.12 346.006 427.2 344.126 429.36C342.246 431.52 341.306 434.48 341.306 438.24C341.306 442.04 342.226 445.02 344.066 447.18C345.946 449.3 348.386 450.36 351.386 450.36ZM393.636 445.98C393.916 445.7 394.216 445.56 394.536 445.56C394.816 445.56 395.076 445.68 395.316 445.92L396.096 446.64C396.376 446.92 396.516 447.22 396.516 447.54C396.516 447.78 396.396 448.06 396.156 448.38C394.196 450.34 392.296 451.74 390.456 452.58C388.616 453.38 386.556 453.78 384.276 453.78C381.396 453.78 378.896 453.14 376.776 451.86C374.656 450.58 373.016 448.8 371.856 446.52C370.696 444.2 370.116 441.52 370.116 438.48C370.116 435.4 370.676 432.68 371.796 430.32C372.956 427.92 374.576 426.06 376.656 424.74C378.736 423.38 381.136 422.7 383.856 422.7C387.896 422.7 391.076 423.96 393.396 426.48C395.716 429 396.876 432.4 396.876 436.68V437.4C396.836 437.76 396.696 438.04 396.456 438.24C396.256 438.44 395.976 438.54 395.616 438.54H374.136C374.256 441.9 375.136 444.74 376.776 447.06C378.456 449.34 380.956 450.48 384.276 450.48C386.076 450.48 387.656 450.16 389.016 449.52C390.416 448.84 391.956 447.66 393.636 445.98ZM383.856 426C381.216 426 379.036 426.82 377.316 428.46C375.636 430.06 374.616 432.42 374.256 435.54H392.916C392.836 432.62 391.996 430.3 390.396 428.58C388.796 426.86 386.616 426 383.856 426ZM425.27 424.62C425.27 423.82 425.67 423.42 426.47 423.42H427.73C428.53 423.42 428.93 423.82 428.93 424.62V452.7C428.93 456.42 427.81 459.34 425.57 461.46C423.33 463.62 420.19 464.7 416.15 464.7C411.79 464.7 407.77 463.46 404.09 460.98C403.69 460.74 403.49 460.44 403.49 460.08C403.49 459.8 403.57 459.56 403.73 459.36L404.45 458.34C404.69 457.94 405.01 457.74 405.41 457.74C405.57 457.74 405.81 457.82 406.13 457.98C407.89 459.1 409.53 459.94 411.05 460.5C412.61 461.06 414.31 461.34 416.15 461.34C418.79 461.34 420.93 460.6 422.57 459.12C424.21 457.68 425.03 455.44 425.03 452.4V447.6C422.87 451.08 419.59 452.82 415.19 452.82C412.63 452.82 410.37 452.18 408.41 450.9C406.45 449.58 404.93 447.78 403.85 445.5C402.81 443.22 402.29 440.64 402.29 437.76C402.29 434.88 402.81 432.3 403.85 430.02C404.93 427.74 406.45 425.96 408.41 424.68C410.37 423.36 412.63 422.7 415.19 422.7C417.51 422.7 419.51 423.2 421.19 424.2C422.91 425.16 424.27 426.54 425.27 428.34V424.62ZM415.61 449.46C418.49 449.46 420.79 448.38 422.51 446.22C424.23 444.02 425.09 441.2 425.09 437.76C425.09 434.32 424.23 431.52 422.51 429.36C420.79 427.16 418.49 426.06 415.61 426.06C412.69 426.06 410.41 427.14 408.77 429.3C407.17 431.46 406.37 434.28 406.37 437.76C406.37 441.24 407.17 444.06 408.77 446.22C410.41 448.38 412.69 449.46 415.61 449.46ZM439.818 415.92C439.018 415.92 438.338 415.64 437.778 415.08C437.258 414.52 436.998 413.84 436.998 413.04C436.998 412.24 437.258 411.58 437.778 411.06C438.338 410.54 439.018 410.28 439.818 410.28C440.658 410.28 441.338 410.54 441.858 411.06C442.418 411.58 442.698 412.24 442.698 413.04C442.698 413.84 442.418 414.52 441.858 415.08C441.338 415.64 440.658 415.92 439.818 415.92ZM439.038 453C438.238 453 437.838 452.6 437.838 451.8V424.62C437.838 423.82 438.238 423.42 439.038 423.42H440.598C441.398 423.42 441.798 423.82 441.798 424.62V451.8C441.798 452.6 441.398 453 440.598 453H439.038ZM463.812 422.7C467.292 422.7 469.912 423.66 471.672 425.58C473.472 427.5 474.372 429.9 474.372 432.78V451.8C474.372 452.6 473.972 453 473.172 453H471.612C470.812 453 470.412 452.6 470.412 451.8V434.1C470.412 431.46 469.772 429.46 468.492 428.1C467.212 426.74 465.372 426.06 462.972 426.06C461.452 426.06 460.052 426.44 458.772 427.2C457.492 427.92 456.472 428.92 455.712 430.2C454.952 431.48 454.572 432.88 454.572 434.4V451.8C454.572 452.6 454.172 453 453.372 453H451.812C451.012 453 450.612 452.6 450.612 451.8V424.62C450.612 423.82 451.012 423.42 451.812 423.42H453.132C453.932 423.42 454.332 423.82 454.332 424.62V427.5C455.332 425.9 456.652 424.7 458.292 423.9C459.932 423.1 461.772 422.7 463.812 422.7ZM496.331 422.7C499.811 422.7 502.431 423.66 504.191 425.58C505.991 427.5 506.891 429.9 506.891 432.78V451.8C506.891 452.6 506.491 453 505.691 453H504.131C503.331 453 502.931 452.6 502.931 451.8V434.1C502.931 431.46 502.291 429.46 501.011 428.1C499.731 426.74 497.891 426.06 495.491 426.06C493.971 426.06 492.571 426.44 491.291 427.2C490.011 427.92 488.991 428.92 488.231 430.2C487.471 431.48 487.091 432.88 487.091 434.4V451.8C487.091 452.6 486.691 453 485.891 453H484.331C483.531 453 483.131 452.6 483.131 451.8V424.62C483.131 423.82 483.531 423.42 484.331 423.42H485.651C486.451 423.42 486.851 423.82 486.851 424.62V427.5C487.851 425.9 489.171 424.7 490.811 423.9C492.451 423.1 494.291 422.7 496.331 422.7ZM517.631 415.92C516.831 415.92 516.151 415.64 515.591 415.08C515.071 414.52 514.811 413.84 514.811 413.04C514.811 412.24 515.071 411.58 515.591 411.06C516.151 410.54 516.831 410.28 517.631 410.28C518.471 410.28 519.151 410.54 519.671 411.06C520.231 411.58 520.511 412.24 520.511 413.04C520.511 413.84 520.231 414.52 519.671 415.08C519.151 415.64 518.471 415.92 517.631 415.92ZM516.851 453C516.051 453 515.651 452.6 515.651 451.8V424.62C515.651 423.82 516.051 423.42 516.851 423.42H518.411C519.211 423.42 519.611 423.82 519.611 424.62V451.8C519.611 452.6 519.211 453 518.411 453H516.851ZM541.624 422.7C545.104 422.7 547.724 423.66 549.484 425.58C551.284 427.5 552.184 429.9 552.184 432.78V451.8C552.184 452.6 551.784 453 550.984 453H549.424C548.624 453 548.224 452.6 548.224 451.8V434.1C548.224 431.46 547.584 429.46 546.304 428.1C545.024 426.74 543.184 426.06 540.784 426.06C539.264 426.06 537.864 426.44 536.584 427.2C535.304 427.92 534.284 428.92 533.524 430.2C532.764 431.48 532.384 432.88 532.384 434.4V451.8C532.384 452.6 531.984 453 531.184 453H529.624C528.824 453 528.424 452.6 528.424 451.8V424.62C528.424 423.82 528.824 423.42 529.624 423.42H530.944C531.744 423.42 532.144 423.82 532.144 424.62V427.5C533.144 425.9 534.464 424.7 536.104 423.9C537.744 423.1 539.584 422.7 541.624 422.7ZM582.184 424.62C582.184 423.82 582.584 423.42 583.384 423.42H584.644C585.444 423.42 585.844 423.82 585.844 424.62V452.7C585.844 456.42 584.724 459.34 582.484 461.46C580.244 463.62 577.104 464.7 573.064 464.7C568.704 464.7 564.684 463.46 561.004 460.98C560.604 460.74 560.404 460.44 560.404 460.08C560.404 459.8 560.484 459.56 560.644 459.36L561.364 458.34C561.604 457.94 561.924 457.74 562.324 457.74C562.484 457.74 562.724 457.82 563.044 457.98C564.804 459.1 566.444 459.94 567.964 460.5C569.524 461.06 571.224 461.34 573.064 461.34C575.704 461.34 577.844 460.6 579.484 459.12C581.124 457.68 581.944 455.44 581.944 452.4V447.6C579.784 451.08 576.504 452.82 572.104 452.82C569.544 452.82 567.284 452.18 565.324 450.9C563.364 449.58 561.844 447.78 560.764 445.5C559.724 443.22 559.204 440.64 559.204 437.76C559.204 434.88 559.724 432.3 560.764 430.02C561.844 427.74 563.364 425.96 565.324 424.68C567.284 423.36 569.544 422.7 572.104 422.7C574.424 422.7 576.424 423.2 578.104 424.2C579.824 425.16 581.184 426.54 582.184 428.34V424.62ZM572.524 449.46C575.404 449.46 577.704 448.38 579.424 446.22C581.144 444.02 582.004 441.2 582.004 437.76C582.004 434.32 581.144 431.52 579.424 429.36C577.704 427.16 575.404 426.06 572.524 426.06C569.604 426.06 567.324 427.14 565.684 429.3C564.084 431.46 563.284 434.28 563.284 437.76C563.284 441.24 564.084 444.06 565.684 446.22C567.324 448.38 569.604 449.46 572.524 449.46Z" fill="white"/>
</g>
<defs>
<clipPath id="clip0_765_11693">
<rect width="1920" height="1080" fill="white"/>
</clipPath>
</defs>
</svg>
