<svg width="1920" height="1080" viewBox="0 0 1920 1080" fill="none" xmlns="http://www.w3.org/2000/svg">
<g clip-path="url(#clip0_943_16385)">
<rect width="1920" height="1080" fill="white"/>
<rect x="8" y="8" width="1904" height="1064" fill="#0063FB" stroke="white" stroke-width="16"/>
<path fill-rule="evenodd" clip-rule="evenodd" d="M75.7416 985.179H67.1546C66.6191 985.179 66.1836 985.614 66.1836 986.148V1013.24C66.1836 1013.78 66.6191 1014.21 67.1546 1014.21H95.2774V1004.67C95.2774 993.924 86.5137 985.179 75.7416 985.179Z" fill="#0063FB"/>
<path fill-rule="evenodd" clip-rule="evenodd" d="M156.846 985.179H98.4312C97.8957 985.179 97.46 985.614 97.46 986.148V1014.21H156.846C157.381 1014.21 157.817 1013.78 157.817 1013.24V986.148C157.817 985.614 157.381 985.179 156.846 985.179Z" fill="#06BEFB"/>
<path fill-rule="evenodd" clip-rule="evenodd" d="M66.1831 1013.24V986.148C66.1831 985.613 66.6188 985.179 67.1544 985.179H75.7411C86.5132 985.179 95.2769 993.924 95.2769 1004.67V1014.21H67.1544C66.6188 1014.21 66.1831 1013.78 66.1831 1013.24ZM157.817 1013.24C157.817 1013.78 157.381 1014.21 156.846 1014.21H97.46V986.148C97.46 985.613 97.8958 985.179 98.4313 985.179H156.846C157.381 985.179 157.817 985.613 157.817 986.148V1013.24ZM156.846 983H98.4313C96.6919 983 95.2769 984.412 95.2769 986.148V995.21C91.7495 987.988 84.3185 983 75.7411 983H67.1544C65.415 983 64 984.412 64 986.148V1013.24C64 1014.98 65.415 1016.39 67.1544 1016.39H156.846C158.585 1016.39 160 1014.98 160 1013.24V986.148C160 984.412 158.585 983 156.846 983Z" fill="white"/>
<path fill-rule="evenodd" clip-rule="evenodd" d="M107.312 994.035H115.178C115.52 994.035 115.797 994.311 115.797 994.652V996.589C115.797 996.93 115.52 997.207 115.178 997.207H110.134V999.762H114.15C114.492 999.762 114.769 1000.04 114.769 1000.38V1002.03C114.769 1002.37 114.492 1002.65 114.15 1002.65H110.134V1004.74C110.134 1005.08 109.857 1005.36 109.515 1005.36H107.312C106.97 1005.36 106.693 1005.08 106.693 1004.74V994.652C106.693 994.311 106.97 994.035 107.312 994.035ZM119.223 994.035H121.427C121.768 994.035 122.045 994.311 122.045 994.652V1004.74C122.045 1005.08 121.768 1005.36 121.427 1005.36H119.223C118.882 1005.36 118.605 1005.08 118.605 1004.74V994.652C118.605 994.311 118.882 994.035 119.223 994.035ZM147.965 994.035H145.762C145.421 994.035 145.143 994.311 145.143 994.652V999.598L141.698 994.404C141.546 994.173 141.287 994.035 141.01 994.035H139.318C138.976 994.035 138.699 994.311 138.699 994.652V1004.74C138.699 1005.08 138.976 1005.36 139.318 1005.36H141.521C141.863 1005.36 142.14 1005.08 142.14 1004.74V999.85L145.509 1004.98C145.662 1005.22 145.921 1005.36 146.2 1005.36H147.965C148.307 1005.36 148.584 1005.08 148.584 1004.74V994.652C148.584 994.311 148.307 994.035 147.965 994.035ZM132.493 994.035H134.696C135.038 994.035 135.315 994.311 135.315 994.652V1004.74C135.315 1005.08 135.038 1005.36 134.696 1005.36H132.93C132.652 1005.36 132.393 1005.22 132.24 1004.98L128.87 999.85V1004.74C128.87 1005.08 128.593 1005.36 128.252 1005.36H126.048C125.707 1005.36 125.43 1005.08 125.43 1004.74V994.652C125.43 994.311 125.707 994.035 126.048 994.035H127.741C128.018 994.035 128.276 994.173 128.429 994.404L131.874 999.598V994.652C131.874 994.311 132.151 994.035 132.493 994.035Z" fill="white"/>
<path d="M162.464 278C162.229 278 162.039 277.934 161.892 277.802C161.76 277.655 161.694 277.465 161.694 277.23V263.15C161.694 262.901 161.76 262.71 161.892 262.578C162.039 262.446 162.229 262.38 162.464 262.38H167.766C169.233 262.38 170.487 262.71 171.528 263.37C172.584 264.03 173.383 264.954 173.926 266.142C174.483 267.315 174.762 268.665 174.762 270.19C174.762 271.715 174.483 273.072 173.926 274.26C173.383 275.433 172.584 276.35 171.528 277.01C170.487 277.67 169.233 278 167.766 278H162.464ZM167.392 275.888C168.888 275.888 170.061 275.397 170.912 274.414C171.777 273.417 172.21 272.009 172.21 270.19C172.21 268.371 171.777 266.971 170.912 265.988C170.061 264.991 168.888 264.492 167.392 264.492H164.202V275.888H167.392ZM178.062 278C177.827 278 177.636 277.934 177.49 277.802C177.358 277.655 177.292 277.465 177.292 277.23V263.15C177.292 262.901 177.358 262.71 177.49 262.578C177.636 262.446 177.827 262.38 178.062 262.38H187.192C187.441 262.38 187.632 262.446 187.764 262.578C187.896 262.71 187.962 262.901 187.962 263.15V263.722C187.962 263.957 187.896 264.147 187.764 264.294C187.632 264.426 187.441 264.492 187.192 264.492H179.8V268.892H186.642C186.891 268.892 187.082 268.958 187.214 269.09C187.346 269.222 187.412 269.413 187.412 269.662V270.234C187.412 270.469 187.346 270.659 187.214 270.806C187.082 270.938 186.891 271.004 186.642 271.004H179.8V275.888H187.412C187.661 275.888 187.852 275.954 187.984 276.086C188.116 276.218 188.182 276.409 188.182 276.658V277.23C188.182 277.465 188.116 277.655 187.984 277.802C187.852 277.934 187.661 278 187.412 278H178.062ZM191.661 278C191.427 278 191.236 277.934 191.089 277.802C190.957 277.655 190.891 277.465 190.891 277.23V263.15C190.891 262.901 190.957 262.71 191.089 262.578C191.236 262.446 191.427 262.38 191.661 262.38H200.791C201.041 262.38 201.231 262.446 201.363 262.578C201.495 262.71 201.561 262.901 201.561 263.15V263.722C201.561 263.957 201.495 264.147 201.363 264.294C201.231 264.426 201.041 264.492 200.791 264.492H193.399V269.266H200.197C200.447 269.266 200.637 269.332 200.769 269.464C200.901 269.596 200.967 269.787 200.967 270.036V270.586C200.967 270.821 200.901 271.011 200.769 271.158C200.637 271.29 200.447 271.356 200.197 271.356H193.399V277.23C193.399 277.465 193.333 277.655 193.201 277.802C193.069 277.934 192.879 278 192.629 278H191.661ZM205.007 278C204.772 278 204.581 277.934 204.435 277.802C204.303 277.655 204.237 277.465 204.237 277.23V263.15C204.237 262.901 204.303 262.71 204.435 262.578C204.581 262.446 204.772 262.38 205.007 262.38H205.975C206.224 262.38 206.415 262.446 206.547 262.578C206.679 262.71 206.745 262.901 206.745 263.15V277.23C206.745 277.465 206.679 277.655 206.547 277.802C206.415 277.934 206.224 278 205.975 278H205.007ZM220.676 263.15C220.676 262.901 220.742 262.71 220.874 262.578C221.02 262.446 221.211 262.38 221.446 262.38H222.348C222.597 262.38 222.788 262.446 222.92 262.578C223.052 262.71 223.118 262.901 223.118 263.15V277.23C223.118 277.465 223.052 277.655 222.92 277.802C222.788 277.934 222.597 278 222.348 278H220.984C220.573 278 220.265 277.831 220.06 277.494L216.056 271.246C214.53 268.87 213.386 266.993 212.624 265.614C212.697 267.183 212.734 269.215 212.734 271.708V277.23C212.734 277.465 212.668 277.655 212.536 277.802C212.404 277.934 212.213 278 211.964 278H211.062C210.827 278 210.636 277.934 210.49 277.802C210.358 277.655 210.292 277.465 210.292 277.23V263.15C210.292 262.901 210.358 262.71 210.49 262.578C210.636 262.446 210.827 262.38 211.062 262.38H212.47C212.88 262.38 213.188 262.549 213.394 262.886L217.53 269.376C218.996 271.664 220.074 273.424 220.764 274.656C220.705 273.087 220.676 271.151 220.676 268.848V263.15ZM227.436 278C227.202 278 227.011 277.934 226.864 277.802C226.732 277.655 226.666 277.465 226.666 277.23V263.15C226.666 262.901 226.732 262.71 226.864 262.578C227.011 262.446 227.202 262.38 227.436 262.38H228.404C228.654 262.38 228.844 262.446 228.976 262.578C229.108 262.71 229.174 262.901 229.174 263.15V277.23C229.174 277.465 229.108 277.655 228.976 277.802C228.844 277.934 228.654 278 228.404 278H227.436ZM237.187 278C236.953 278 236.762 277.934 236.615 277.802C236.483 277.655 236.417 277.465 236.417 277.23V264.514H232.413C232.179 264.514 231.988 264.448 231.841 264.316C231.709 264.169 231.643 263.979 231.643 263.744V263.15C231.643 262.901 231.709 262.71 231.841 262.578C231.988 262.446 232.179 262.38 232.413 262.38H242.907C243.157 262.38 243.347 262.446 243.479 262.578C243.611 262.71 243.677 262.901 243.677 263.15V263.744C243.677 263.979 243.611 264.169 243.479 264.316C243.347 264.448 243.157 264.514 242.907 264.514H238.925V277.23C238.925 277.465 238.859 277.655 238.727 277.802C238.595 277.934 238.405 278 238.155 278H237.187ZM246.901 278C246.667 278 246.476 277.934 246.329 277.802C246.197 277.655 246.131 277.465 246.131 277.23V263.15C246.131 262.901 246.197 262.71 246.329 262.578C246.476 262.446 246.667 262.38 246.901 262.38H247.869C248.119 262.38 248.309 262.446 248.441 262.578C248.573 262.71 248.639 262.901 248.639 263.15V277.23C248.639 277.465 248.573 277.655 248.441 277.802C248.309 277.934 248.119 278 247.869 278H246.901ZM258.896 278.352C257.356 278.352 256.014 278 254.87 277.296C253.726 276.592 252.846 275.624 252.23 274.392C251.629 273.145 251.328 271.745 251.328 270.19C251.328 268.635 251.629 267.242 252.23 266.01C252.846 264.763 253.726 263.788 254.87 263.084C256.014 262.38 257.356 262.028 258.896 262.028C260.422 262.028 261.756 262.38 262.9 263.084C264.044 263.788 264.917 264.763 265.518 266.01C266.134 267.242 266.442 268.635 266.442 270.19C266.442 271.745 266.134 273.145 265.518 274.392C264.917 275.624 264.044 276.592 262.9 277.296C261.756 278 260.422 278.352 258.896 278.352ZM258.896 276.152C259.879 276.152 260.744 275.903 261.492 275.404C262.255 274.905 262.842 274.209 263.252 273.314C263.663 272.405 263.868 271.363 263.868 270.19C263.868 269.017 263.663 267.983 263.252 267.088C262.842 266.179 262.255 265.475 261.492 264.976C260.744 264.477 259.879 264.228 258.896 264.228C257.899 264.228 257.019 264.477 256.256 264.976C255.508 265.475 254.929 266.179 254.518 267.088C254.108 267.983 253.902 269.017 253.902 270.19C253.902 271.363 254.108 272.405 254.518 273.314C254.929 274.209 255.508 274.905 256.256 275.404C257.019 275.903 257.899 276.152 258.896 276.152ZM279.328 263.15C279.328 262.901 279.394 262.71 279.526 262.578C279.673 262.446 279.863 262.38 280.098 262.38H281C281.249 262.38 281.44 262.446 281.572 262.578C281.704 262.71 281.77 262.901 281.77 263.15V277.23C281.77 277.465 281.704 277.655 281.572 277.802C281.44 277.934 281.249 278 281 278H279.636C279.225 278 278.917 277.831 278.712 277.494L274.708 271.246C273.183 268.87 272.039 266.993 271.276 265.614C271.349 267.183 271.386 269.215 271.386 271.708V277.23C271.386 277.465 271.32 277.655 271.188 277.802C271.056 277.934 270.865 278 270.616 278H269.714C269.479 278 269.289 277.934 269.142 277.802C269.01 277.655 268.944 277.465 268.944 277.23V263.15C268.944 262.901 269.01 262.71 269.142 262.578C269.289 262.446 269.479 262.38 269.714 262.38H271.122C271.533 262.38 271.841 262.549 272.046 262.886L276.182 269.376C277.649 271.664 278.727 273.424 279.416 274.656C279.357 273.087 279.328 271.151 279.328 268.848V263.15ZM290.349 272.698C290.114 272.698 289.923 272.632 289.777 272.5C289.645 272.353 289.579 272.163 289.579 271.928V271.378C289.579 271.129 289.645 270.938 289.777 270.806C289.923 270.674 290.114 270.608 290.349 270.608H295.387C295.636 270.608 295.827 270.674 295.959 270.806C296.091 270.938 296.157 271.129 296.157 271.378V271.928C296.157 272.163 296.091 272.353 295.959 272.5C295.827 272.632 295.636 272.698 295.387 272.698H290.349ZM309.464 278.352C308.261 278.352 307.183 278.183 306.23 277.846C305.291 277.494 304.323 276.907 303.326 276.086C303.12 275.925 303.018 275.734 303.018 275.514C303.018 275.323 303.091 275.147 303.238 274.986L303.744 274.392C303.905 274.187 304.088 274.084 304.294 274.084C304.455 274.084 304.638 274.165 304.844 274.326C305.724 275.03 306.508 275.514 307.198 275.778C307.902 276.042 308.672 276.174 309.508 276.174C310.52 276.174 311.341 275.947 311.972 275.492C312.602 275.023 312.918 274.385 312.918 273.578C312.918 273.05 312.756 272.639 312.434 272.346C312.111 272.038 311.693 271.803 311.18 271.642C310.681 271.481 309.867 271.268 308.738 271.004C307.374 270.681 306.31 270.329 305.548 269.948C304.785 269.567 304.235 269.112 303.898 268.584C303.575 268.041 303.414 267.359 303.414 266.538C303.414 265.673 303.663 264.895 304.162 264.206C304.66 263.517 305.342 262.981 306.208 262.6C307.088 262.219 308.07 262.028 309.156 262.028C310.256 262.028 311.224 262.175 312.06 262.468C312.91 262.761 313.761 263.238 314.612 263.898C314.832 264.074 314.942 264.257 314.942 264.448C314.942 264.609 314.868 264.785 314.722 264.976L314.238 265.548C314.062 265.753 313.878 265.856 313.688 265.856C313.512 265.856 313.328 265.783 313.138 265.636C312.434 265.093 311.781 264.719 311.18 264.514C310.578 264.309 309.896 264.206 309.134 264.206C308.166 264.206 307.381 264.419 306.78 264.844C306.178 265.269 305.878 265.805 305.878 266.45C305.878 266.919 306.017 267.293 306.296 267.572C306.574 267.851 306.978 268.078 307.506 268.254C308.034 268.43 308.848 268.643 309.948 268.892C311.282 269.215 312.338 269.559 313.116 269.926C313.893 270.278 314.472 270.733 314.854 271.29C315.235 271.847 315.426 272.559 315.426 273.424C315.426 274.392 315.176 275.25 314.678 275.998C314.179 276.746 313.482 277.325 312.588 277.736C311.693 278.147 310.652 278.352 309.464 278.352ZM318.874 278C318.639 278 318.449 277.934 318.302 277.802C318.17 277.655 318.104 277.465 318.104 277.23V263.15C318.104 262.901 318.17 262.71 318.302 262.578C318.449 262.446 318.639 262.38 318.874 262.38H319.842C320.091 262.38 320.282 262.446 320.414 262.578C320.546 262.71 320.612 262.901 320.612 263.15V277.23C320.612 277.465 320.546 277.655 320.414 277.802C320.282 277.934 320.091 278 319.842 278H318.874ZM334.543 263.15C334.543 262.901 334.609 262.71 334.741 262.578C334.888 262.446 335.078 262.38 335.313 262.38H336.215C336.464 262.38 336.655 262.446 336.787 262.578C336.919 262.71 336.985 262.901 336.985 263.15V277.23C336.985 277.465 336.919 277.655 336.787 277.802C336.655 277.934 336.464 278 336.215 278H334.851C334.44 278 334.132 277.831 333.927 277.494L329.923 271.246C328.398 268.87 327.254 266.993 326.491 265.614C326.564 267.183 326.601 269.215 326.601 271.708V277.23C326.601 277.465 326.535 277.655 326.403 277.802C326.271 277.934 326.08 278 325.831 278H324.929C324.694 278 324.504 277.934 324.357 277.802C324.225 277.655 324.159 277.465 324.159 277.23V263.15C324.159 262.901 324.225 262.71 324.357 262.578C324.504 262.446 324.694 262.38 324.929 262.38H326.337C326.748 262.38 327.056 262.549 327.261 262.886L331.397 269.376C332.864 271.664 333.942 273.424 334.631 274.656C334.572 273.087 334.543 271.151 334.543 268.848V263.15ZM347.442 271.708C347.207 271.708 347.016 271.642 346.87 271.51C346.738 271.363 346.672 271.173 346.672 270.938V270.366C346.672 270.117 346.738 269.926 346.87 269.794C347.016 269.662 347.207 269.596 347.442 269.596H352.964C353.213 269.596 353.404 269.662 353.536 269.794C353.668 269.926 353.734 270.117 353.734 270.366V277.23C353.734 277.465 353.668 277.655 353.536 277.802C353.404 277.934 353.213 278 352.964 278H352.502C352.018 278 351.754 277.758 351.71 277.274L351.622 276.284C350.683 277.648 349.128 278.33 346.958 278.33C345.403 278.33 344.068 277.985 342.954 277.296C341.839 276.607 340.988 275.646 340.402 274.414C339.815 273.182 339.522 271.767 339.522 270.168C339.522 268.613 339.83 267.22 340.446 265.988C341.062 264.756 341.949 263.795 343.108 263.106C344.266 262.402 345.638 262.05 347.222 262.05C348.41 262.05 349.473 262.241 350.412 262.622C351.35 262.989 352.274 263.59 353.184 264.426C353.374 264.602 353.47 264.785 353.47 264.976C353.47 265.167 353.382 265.35 353.206 265.526L352.678 266.054C352.487 266.245 352.304 266.34 352.128 266.34C351.937 266.34 351.754 266.252 351.578 266.076C350.815 265.416 350.104 264.947 349.444 264.668C348.784 264.375 348.036 264.228 347.2 264.228C346.188 264.228 345.293 264.47 344.516 264.954C343.753 265.438 343.152 266.127 342.712 267.022C342.286 267.917 342.074 268.973 342.074 270.19C342.074 271.422 342.279 272.485 342.69 273.38C343.1 274.275 343.68 274.964 344.428 275.448C345.19 275.917 346.085 276.152 347.112 276.152C348.417 276.152 349.458 275.8 350.236 275.096C351.028 274.377 351.424 273.402 351.424 272.17V271.708H347.442ZM362.777 278.352C360.826 278.352 359.33 277.897 358.289 276.988C357.248 276.064 356.727 274.693 356.727 272.874V263.15C356.727 262.901 356.793 262.71 356.925 262.578C357.072 262.446 357.262 262.38 357.497 262.38H358.465C358.714 262.38 358.905 262.446 359.037 262.578C359.169 262.71 359.235 262.901 359.235 263.15V272.764C359.235 273.864 359.528 274.707 360.115 275.294C360.716 275.866 361.604 276.152 362.777 276.152C363.95 276.152 364.83 275.866 365.417 275.294C366.018 274.707 366.319 273.864 366.319 272.764V263.15C366.319 262.901 366.385 262.71 366.517 262.578C366.664 262.446 366.854 262.38 367.089 262.38H368.079C368.328 262.38 368.519 262.446 368.651 262.578C368.783 262.71 368.849 262.901 368.849 263.15V272.874C368.849 274.693 368.328 276.064 367.287 276.988C366.246 277.897 364.742 278.352 362.777 278.352ZM372.903 278C372.669 278 372.478 277.934 372.331 277.802C372.199 277.655 372.133 277.465 372.133 277.23V263.15C372.133 262.901 372.199 262.71 372.331 262.578C372.478 262.446 372.669 262.38 372.903 262.38H373.871C374.121 262.38 374.311 262.446 374.443 262.578C374.575 262.71 374.641 262.901 374.641 263.15V275.866H380.999C381.249 275.866 381.439 275.932 381.571 276.064C381.703 276.196 381.769 276.387 381.769 276.636V277.23C381.769 277.465 381.703 277.655 381.571 277.802C381.439 277.934 381.249 278 380.999 278H372.903ZM395.814 278C395.374 278 395.081 277.795 394.934 277.384L393.9 274.414H386.992L385.958 277.384C385.812 277.795 385.518 278 385.078 278H384.154C383.934 278 383.758 277.956 383.626 277.868C383.509 277.765 383.45 277.626 383.45 277.45C383.45 277.362 383.472 277.252 383.516 277.12L388.62 262.996C388.767 262.585 389.06 262.38 389.5 262.38H391.458C391.898 262.38 392.192 262.585 392.338 262.996L397.442 277.12C397.486 277.252 397.508 277.362 397.508 277.45C397.508 277.626 397.442 277.765 397.31 277.868C397.193 277.956 397.024 278 396.804 278H395.814ZM393.196 272.324L392.514 270.388C392.5 270.359 392.338 269.897 392.03 269.002C391.253 266.802 390.725 265.233 390.446 264.294C390.021 265.643 389.456 267.315 388.752 269.31L388.378 270.41L387.718 272.324H393.196ZM411.752 277.076C411.855 277.237 411.906 277.384 411.906 277.516C411.906 277.663 411.848 277.78 411.73 277.868C411.613 277.956 411.452 278 411.246 278H410.146C409.736 278 409.428 277.831 409.222 277.494L405.592 271.95H402.27V277.23C402.27 277.465 402.204 277.655 402.072 277.802C401.94 277.934 401.75 278 401.5 278H400.532C400.298 278 400.107 277.934 399.96 277.802C399.828 277.655 399.762 277.465 399.762 277.23V263.15C399.762 262.901 399.828 262.71 399.96 262.578C400.107 262.446 400.298 262.38 400.532 262.38H406.692C407.675 262.38 408.555 262.578 409.332 262.974C410.11 263.355 410.711 263.913 411.136 264.646C411.576 265.365 411.796 266.208 411.796 267.176C411.796 268.349 411.474 269.347 410.828 270.168C410.183 270.975 409.318 271.51 408.232 271.774L411.752 277.076ZM402.27 269.86H406.274C407.213 269.86 407.954 269.633 408.496 269.178C409.054 268.709 409.332 268.041 409.332 267.176C409.332 266.296 409.054 265.629 408.496 265.174C407.954 264.705 407.213 264.47 406.274 264.47H402.27V269.86ZM429.998 263.15C429.998 262.901 430.064 262.71 430.196 262.578C430.343 262.446 430.533 262.38 430.768 262.38H431.67C431.919 262.38 432.11 262.446 432.242 262.578C432.374 262.71 432.44 262.901 432.44 263.15V277.23C432.44 277.465 432.374 277.655 432.242 277.802C432.11 277.934 431.919 278 431.67 278H430.306C429.895 278 429.587 277.831 429.382 277.494L425.378 271.246C423.853 268.87 422.709 266.993 421.946 265.614C422.019 267.183 422.056 269.215 422.056 271.708V277.23C422.056 277.465 421.99 277.655 421.858 277.802C421.726 277.934 421.535 278 421.286 278H420.384C420.149 278 419.959 277.934 419.812 277.802C419.68 277.655 419.614 277.465 419.614 277.23V263.15C419.614 262.901 419.68 262.71 419.812 262.578C419.959 262.446 420.149 262.38 420.384 262.38H421.792C422.203 262.38 422.511 262.549 422.716 262.886L426.852 269.376C428.319 271.664 429.397 273.424 430.086 274.656C430.027 273.087 429.998 271.151 429.998 268.848V263.15ZM442.545 278.352C441.005 278.352 439.663 278 438.519 277.296C437.375 276.592 436.495 275.624 435.879 274.392C435.277 273.145 434.977 271.745 434.977 270.19C434.977 268.635 435.277 267.242 435.879 266.01C436.495 264.763 437.375 263.788 438.519 263.084C439.663 262.38 441.005 262.028 442.545 262.028C444.07 262.028 445.405 262.38 446.549 263.084C447.693 263.788 448.565 264.763 449.167 266.01C449.783 267.242 450.091 268.635 450.091 270.19C450.091 271.745 449.783 273.145 449.167 274.392C448.565 275.624 447.693 276.592 446.549 277.296C445.405 278 444.07 278.352 442.545 278.352ZM442.545 276.152C443.527 276.152 444.393 275.903 445.141 275.404C445.903 274.905 446.49 274.209 446.901 273.314C447.311 272.405 447.517 271.363 447.517 270.19C447.517 269.017 447.311 267.983 446.901 267.088C446.49 266.179 445.903 265.475 445.141 264.976C444.393 264.477 443.527 264.228 442.545 264.228C441.547 264.228 440.667 264.477 439.905 264.976C439.157 265.475 438.577 266.179 438.167 267.088C437.756 267.983 437.551 269.017 437.551 270.19C437.551 271.363 437.756 272.405 438.167 273.314C438.577 274.209 439.157 274.905 439.905 275.404C440.667 275.903 441.547 276.152 442.545 276.152ZM458.554 278.352C456.604 278.352 455.108 277.897 454.066 276.988C453.025 276.064 452.504 274.693 452.504 272.874V263.15C452.504 262.901 452.57 262.71 452.702 262.578C452.849 262.446 453.04 262.38 453.274 262.38H454.242C454.492 262.38 454.682 262.446 454.814 262.578C454.946 262.71 455.012 262.901 455.012 263.15V272.764C455.012 273.864 455.306 274.707 455.892 275.294C456.494 275.866 457.381 276.152 458.554 276.152C459.728 276.152 460.608 275.866 461.194 275.294C461.796 274.707 462.096 273.864 462.096 272.764V263.15C462.096 262.901 462.162 262.71 462.294 262.578C462.441 262.446 462.632 262.38 462.866 262.38H463.856C464.106 262.38 464.296 262.446 464.428 262.578C464.56 262.71 464.626 262.901 464.626 263.15V272.874C464.626 274.693 464.106 276.064 463.064 276.988C462.023 277.897 460.52 278.352 458.554 278.352ZM478.295 263.15C478.295 262.901 478.361 262.71 478.493 262.578C478.639 262.446 478.83 262.38 479.065 262.38H479.967C480.216 262.38 480.407 262.446 480.539 262.578C480.671 262.71 480.737 262.901 480.737 263.15V277.23C480.737 277.465 480.671 277.655 480.539 277.802C480.407 277.934 480.216 278 479.967 278H478.603C478.192 278 477.884 277.831 477.679 277.494L473.675 271.246C472.149 268.87 471.005 266.993 470.243 265.614C470.316 267.183 470.353 269.215 470.353 271.708V277.23C470.353 277.465 470.287 277.655 470.155 277.802C470.023 277.934 469.832 278 469.583 278H468.681C468.446 278 468.255 277.934 468.109 277.802C467.977 277.655 467.911 277.465 467.911 277.23V263.15C467.911 262.901 467.977 262.71 468.109 262.578C468.255 262.446 468.446 262.38 468.681 262.38H470.089C470.499 262.38 470.807 262.549 471.013 262.886L475.149 269.376C476.615 271.664 477.693 273.424 478.383 274.656C478.324 273.087 478.295 271.151 478.295 268.848V263.15Z" fill="white"/>
<path d="M175.68 364C175.083 364 174.597 363.832 174.224 363.496C173.888 363.123 173.72 362.637 173.72 362.04V329.672H163.528C162.931 329.672 162.445 329.504 162.072 329.168C161.736 328.795 161.568 328.309 161.568 327.712V326.2C161.568 325.565 161.736 325.08 162.072 324.744C162.445 324.408 162.931 324.24 163.528 324.24H190.24C190.875 324.24 191.36 324.408 191.696 324.744C192.032 325.08 192.2 325.565 192.2 326.2V327.712C192.2 328.309 192.032 328.795 191.696 329.168C191.36 329.504 190.875 329.672 190.24 329.672H180.104V362.04C180.104 362.637 179.936 363.123 179.6 363.496C179.264 363.832 178.779 364 178.144 364H175.68ZM211.214 335.552C214.388 335.552 216.814 336.448 218.494 338.24C220.212 339.995 221.07 342.272 221.07 345.072V362.04C221.07 362.637 220.902 363.123 220.566 363.496C220.23 363.832 219.745 364 219.11 364H217.094C216.497 364 216.012 363.832 215.638 363.496C215.302 363.123 215.134 362.637 215.134 362.04V346.92C215.134 344.904 214.63 343.355 213.622 342.272C212.652 341.189 211.252 340.648 209.422 340.648C207.63 340.648 206.118 341.264 204.886 342.496C203.692 343.728 203.094 345.277 203.094 347.144V362.04C203.094 362.637 202.926 363.123 202.59 363.496C202.254 363.832 201.769 364 201.134 364H199.118C198.521 364 198.036 363.832 197.662 363.496C197.326 363.123 197.158 362.637 197.158 362.04V326.2C197.158 325.565 197.326 325.08 197.662 324.744C198.036 324.408 198.521 324.24 199.118 324.24H201.134C201.769 324.24 202.254 324.408 202.59 324.744C202.926 325.08 203.094 325.565 203.094 326.2V339.248C203.99 338.053 205.129 337.139 206.51 336.504C207.929 335.869 209.497 335.552 211.214 335.552ZM247.661 356.944C248.146 356.533 248.613 356.328 249.061 356.328C249.509 356.328 249.975 356.571 250.461 357.056L251.245 357.896C251.655 358.381 251.861 358.848 251.861 359.296C251.861 359.781 251.618 360.248 251.133 360.696C249.415 362.189 247.698 363.253 245.981 363.888C244.301 364.523 242.434 364.84 240.381 364.84C237.506 364.84 235.005 364.243 232.877 363.048C230.786 361.853 229.162 360.173 228.005 358.008C226.885 355.805 226.325 353.267 226.325 350.392C226.325 347.555 226.866 345.016 227.949 342.776C229.069 340.499 230.637 338.725 232.653 337.456C234.706 336.187 237.095 335.552 239.821 335.552C243.89 335.552 247.026 336.765 249.229 339.192C251.431 341.581 252.533 344.885 252.533 349.104V349.608C252.495 350.205 252.309 350.672 251.973 351.008C251.637 351.344 251.151 351.512 250.517 351.512H232.149C232.373 353.976 233.175 355.992 234.557 357.56C235.975 359.091 237.954 359.856 240.493 359.856C241.874 359.856 243.087 359.651 244.133 359.24C245.178 358.792 246.354 358.027 247.661 356.944ZM239.709 340.256C237.655 340.256 235.994 340.872 234.725 342.104C233.493 343.299 232.69 344.997 232.317 347.2H246.709C246.559 345.035 245.887 343.336 244.693 342.104C243.498 340.872 241.837 340.256 239.709 340.256ZM282.646 328.384C281.339 328.384 280.387 328.701 279.79 329.336C279.193 329.971 278.894 331.053 278.894 332.584V336.392H283.43C284.065 336.392 284.55 336.56 284.886 336.896C285.222 337.232 285.39 337.717 285.39 338.352V338.968C285.39 339.565 285.222 340.051 284.886 340.424C284.55 340.76 284.065 340.928 283.43 340.928H278.894V362.04C278.894 362.637 278.726 363.123 278.39 363.496C278.054 363.832 277.569 364 276.934 364H274.918C274.321 364 273.835 363.832 273.462 363.496C273.126 363.123 272.958 362.637 272.958 362.04V340.928H269.99C269.393 340.928 268.907 340.76 268.534 340.424C268.198 340.051 268.03 339.565 268.03 338.968V338.352C268.03 337.717 268.198 337.232 268.534 336.896C268.907 336.56 269.393 336.392 269.99 336.392H272.958V332.192C272.958 329.317 273.686 327.152 275.142 325.696C276.635 324.203 278.782 323.456 281.582 323.456C282.851 323.456 284.139 323.587 285.446 323.848C286.417 324.109 286.902 324.707 286.902 325.64C286.902 325.901 286.883 326.107 286.846 326.256L286.678 327.04C286.454 328.011 285.726 328.496 284.494 328.496L283.822 328.44C283.561 328.403 283.169 328.384 282.646 328.384ZM300.955 335.552C304.688 335.552 307.563 336.429 309.579 338.184C311.595 339.901 312.603 342.197 312.603 345.072V362.04C312.603 362.637 312.435 363.123 312.099 363.496C311.763 363.832 311.277 364 310.643 364H309.187C308.589 364 308.104 363.832 307.731 363.496C307.395 363.123 307.227 362.637 307.227 362.04V360.808C306.331 362.115 305.099 363.123 303.531 363.832C301.963 364.541 300.133 364.896 298.043 364.896C295.168 364.896 292.797 364.261 290.931 362.992C289.101 361.685 288.187 359.725 288.187 357.112C288.187 354.2 289.269 352.053 291.435 350.672C293.637 349.253 296.68 348.189 300.563 347.48L306.891 346.304V345.296C306.891 343.765 306.349 342.589 305.267 341.768C304.221 340.909 302.821 340.48 301.067 340.48C299.573 340.48 298.267 340.741 297.147 341.264C296.064 341.749 294.888 342.571 293.619 343.728C293.133 344.139 292.667 344.344 292.219 344.344C291.771 344.344 291.304 344.139 290.819 343.728L289.923 342.944C289.437 342.496 289.195 342.011 289.195 341.488C289.195 341.003 289.419 340.536 289.867 340.088C291.472 338.557 293.171 337.419 294.963 336.672C296.755 335.925 298.752 335.552 300.955 335.552ZM298.883 360.136C301.123 360.136 303.008 359.539 304.539 358.344C306.107 357.149 306.891 355.432 306.891 353.192V350.616L302.019 351.624C299.293 352.184 297.277 352.819 295.971 353.528C294.664 354.237 294.011 355.32 294.011 356.776C294.011 357.821 294.44 358.643 295.299 359.24C296.157 359.837 297.352 360.136 298.883 360.136ZM334.057 335.664C336.409 335.664 338.499 336.261 340.329 337.456C342.195 338.651 343.651 340.349 344.697 342.552C345.742 344.755 346.265 347.293 346.265 350.168C346.265 353.08 345.742 355.637 344.697 357.84C343.651 360.043 342.195 361.741 340.329 362.936C338.462 364.131 336.371 364.728 334.057 364.728C329.913 364.728 326.87 363.179 324.929 360.08V362.04C324.929 362.637 324.761 363.123 324.425 363.496C324.089 363.832 323.603 364 322.969 364H321.345C320.747 364 320.262 363.832 319.889 363.496C319.553 363.123 319.385 362.637 319.385 362.04V326.2C319.385 325.565 319.553 325.08 319.889 324.744C320.262 324.408 320.747 324.24 321.345 324.24H323.361C323.995 324.24 324.481 324.408 324.817 324.744C325.153 325.08 325.321 325.565 325.321 326.2V339.864C327.299 337.064 330.211 335.664 334.057 335.664ZM332.825 359.576C335.065 359.576 336.857 358.736 338.201 357.056C339.545 355.339 340.217 353.043 340.217 350.168C340.217 347.331 339.545 345.053 338.201 343.336C336.894 341.619 335.121 340.76 332.881 340.76C330.603 340.76 328.737 341.619 327.281 343.336C325.825 345.016 325.097 347.293 325.097 350.168C325.097 353.117 325.825 355.432 327.281 357.112C328.737 358.755 330.585 359.576 332.825 359.576ZM364.082 336.112C364.904 336.112 365.744 336.205 366.602 336.392C367.61 336.616 368.114 337.213 368.114 338.184C368.114 338.445 368.096 338.632 368.058 338.744L367.778 340.088C367.554 341.133 366.994 341.656 366.098 341.656L365.594 341.6C364.922 341.488 364.325 341.432 363.802 341.432C361.936 341.432 360.424 342.179 359.266 343.672C358.146 345.128 357.586 347.163 357.586 349.776V362.04C357.586 362.637 357.418 363.123 357.082 363.496C356.746 363.832 356.261 364 355.626 364H353.61C353.013 364 352.528 363.832 352.154 363.496C351.818 363.123 351.65 362.637 351.65 362.04V338.352C351.65 337.717 351.818 337.232 352.154 336.896C352.528 336.56 353.013 336.392 353.61 336.392H355.234C355.869 336.392 356.354 336.56 356.69 336.896C357.026 337.232 357.194 337.717 357.194 338.352V340.536C357.866 339.155 358.781 338.072 359.938 337.288C361.096 336.504 362.477 336.112 364.082 336.112ZM375.456 331.016C374.373 331.016 373.458 330.661 372.712 329.952C371.965 329.205 371.592 328.328 371.592 327.32C371.592 326.275 371.965 325.397 372.712 324.688C373.458 323.979 374.373 323.624 375.456 323.624C376.538 323.624 377.453 323.979 378.2 324.688C378.946 325.397 379.32 326.275 379.32 327.32C379.32 328.328 378.946 329.205 378.2 329.952C377.453 330.661 376.538 331.016 375.456 331.016ZM374.392 364C373.794 364 373.309 363.832 372.936 363.496C372.6 363.123 372.432 362.637 372.432 362.04V338.352C372.432 337.717 372.6 337.232 372.936 336.896C373.309 336.56 373.794 336.392 374.392 336.392H376.408C377.042 336.392 377.528 336.56 377.864 336.896C378.2 337.232 378.368 337.717 378.368 338.352V362.04C378.368 362.637 378.2 363.123 377.864 363.496C377.528 363.832 377.042 364 376.408 364H374.392ZM397.381 364.84C394.655 364.84 392.247 364.243 390.157 363.048C388.103 361.853 386.498 360.155 385.341 357.952C384.221 355.712 383.66 353.117 383.66 350.168C383.66 347.219 384.239 344.643 385.397 342.44C386.554 340.237 388.178 338.539 390.269 337.344C392.359 336.149 394.767 335.552 397.493 335.552C399.471 335.552 401.245 335.851 402.813 336.448C404.418 337.008 405.949 337.979 407.405 339.36C407.853 339.808 408.077 340.275 408.077 340.76C408.077 341.208 407.834 341.675 407.349 342.16L406.397 343.112C405.986 343.523 405.538 343.728 405.053 343.728C404.567 343.728 404.063 343.504 403.541 343.056C402.458 342.123 401.431 341.488 400.461 341.152C399.527 340.779 398.519 340.592 397.437 340.592C394.973 340.592 393.069 341.507 391.725 343.336C390.381 345.165 389.709 347.443 389.709 350.168C389.709 352.893 390.381 355.189 391.725 357.056C393.069 358.885 394.973 359.8 397.437 359.8C398.631 359.8 399.733 359.576 400.741 359.128C401.749 358.643 402.831 357.84 403.989 356.72C404.474 356.235 404.978 355.992 405.501 355.992C405.949 355.992 406.378 356.179 406.789 356.552L407.741 357.336C408.226 357.747 408.469 358.213 408.469 358.736C408.469 359.296 408.189 359.893 407.629 360.528C406.098 362.096 404.511 363.216 402.869 363.888C401.263 364.523 399.434 364.84 397.381 364.84ZM438.403 364.84C435.677 364.84 433.251 364.224 431.123 362.992C429.032 361.76 427.389 360.043 426.195 357.84C425 355.6 424.403 353.043 424.403 350.168C424.403 347.293 425 344.755 426.195 342.552C427.389 340.349 429.032 338.632 431.123 337.4C433.251 336.168 435.677 335.552 438.403 335.552C441.091 335.552 443.499 336.168 445.627 337.4C447.755 338.632 449.416 340.368 450.611 342.608C451.805 344.811 452.403 347.331 452.403 350.168C452.403 353.043 451.805 355.6 450.611 357.84C449.416 360.043 447.755 361.76 445.627 362.992C443.499 364.224 441.091 364.84 438.403 364.84ZM438.403 359.856C440.792 359.856 442.715 358.979 444.171 357.224C445.627 355.432 446.355 353.08 446.355 350.168C446.355 347.293 445.627 344.979 444.171 343.224C442.715 341.469 440.792 340.592 438.403 340.592C436.013 340.592 434.091 341.469 432.635 343.224C431.179 344.979 430.451 347.293 430.451 350.168C430.451 353.08 431.179 355.432 432.635 357.224C434.091 358.979 436.013 359.856 438.403 359.856ZM469.24 328.384C467.933 328.384 466.981 328.701 466.384 329.336C465.787 329.971 465.488 331.053 465.488 332.584V336.392H470.024C470.659 336.392 471.144 336.56 471.48 336.896C471.816 337.232 471.984 337.717 471.984 338.352V338.968C471.984 339.565 471.816 340.051 471.48 340.424C471.144 340.76 470.659 340.928 470.024 340.928H465.488V362.04C465.488 362.637 465.32 363.123 464.984 363.496C464.648 363.832 464.163 364 463.528 364H461.512C460.915 364 460.429 363.832 460.056 363.496C459.72 363.123 459.552 362.637 459.552 362.04V340.928H456.584C455.987 340.928 455.501 340.76 455.128 340.424C454.792 340.051 454.624 339.565 454.624 338.968V338.352C454.624 337.717 454.792 337.232 455.128 336.896C455.501 336.56 455.987 336.392 456.584 336.392H459.552V332.192C459.552 329.317 460.28 327.152 461.736 325.696C463.229 324.203 465.376 323.456 468.176 323.456C469.445 323.456 470.733 323.587 472.04 323.848C473.011 324.109 473.496 324.707 473.496 325.64C473.496 325.901 473.477 326.107 473.44 326.256L473.272 327.04C473.048 328.011 472.32 328.496 471.088 328.496L470.416 328.44C470.155 328.403 469.763 328.384 469.24 328.384ZM500.619 335.552C504.352 335.552 507.227 336.429 509.243 338.184C511.259 339.901 512.267 342.197 512.267 345.072V362.04C512.267 362.637 512.099 363.123 511.763 363.496C511.427 363.832 510.941 364 510.307 364H508.851C508.253 364 507.768 363.832 507.395 363.496C507.059 363.123 506.891 362.637 506.891 362.04V360.808C505.995 362.115 504.763 363.123 503.195 363.832C501.627 364.541 499.797 364.896 497.707 364.896C494.832 364.896 492.461 364.261 490.595 362.992C488.765 361.685 487.851 359.725 487.851 357.112C487.851 354.2 488.933 352.053 491.099 350.672C493.301 349.253 496.344 348.189 500.227 347.48L506.555 346.304V345.296C506.555 343.765 506.013 342.589 504.931 341.768C503.885 340.909 502.485 340.48 500.731 340.48C499.237 340.48 497.931 340.741 496.811 341.264C495.728 341.749 494.552 342.571 493.283 343.728C492.797 344.139 492.331 344.344 491.883 344.344C491.435 344.344 490.968 344.139 490.483 343.728L489.587 342.944C489.101 342.496 488.859 342.011 488.859 341.488C488.859 341.003 489.083 340.536 489.531 340.088C491.136 338.557 492.835 337.419 494.627 336.672C496.419 335.925 498.416 335.552 500.619 335.552ZM498.547 360.136C500.787 360.136 502.672 359.539 504.203 358.344C505.771 357.149 506.555 355.432 506.555 353.192V350.616L501.683 351.624C498.957 352.184 496.941 352.819 495.635 353.528C494.328 354.237 493.675 355.32 493.675 356.776C493.675 357.821 494.104 358.643 494.963 359.24C495.821 359.837 497.016 360.136 498.547 360.136ZM546.244 335.664C548.596 335.664 550.687 336.261 552.516 337.456C554.383 338.651 555.839 340.349 556.884 342.552C557.93 344.755 558.452 347.293 558.452 350.168C558.452 353.08 557.93 355.637 556.884 357.84C555.839 360.043 554.383 361.741 552.516 362.936C550.65 364.131 548.559 364.728 546.244 364.728C542.1 364.728 539.058 363.179 537.116 360.08V362.04C537.116 362.637 536.948 363.123 536.612 363.496C536.276 363.832 535.791 364 535.156 364H533.532C532.935 364 532.45 363.832 532.076 363.496C531.74 363.123 531.572 362.637 531.572 362.04V326.2C531.572 325.565 531.74 325.08 532.076 324.744C532.45 324.408 532.935 324.24 533.532 324.24H535.548C536.183 324.24 536.668 324.408 537.004 324.744C537.34 325.08 537.508 325.565 537.508 326.2V339.864C539.487 337.064 542.399 335.664 546.244 335.664ZM545.012 359.576C547.252 359.576 549.044 358.736 550.388 357.056C551.732 355.339 552.404 353.043 552.404 350.168C552.404 347.331 551.732 345.053 550.388 343.336C549.082 341.619 547.308 340.76 545.068 340.76C542.791 340.76 540.924 341.619 539.468 343.336C538.012 345.016 537.284 347.293 537.284 350.168C537.284 353.117 538.012 355.432 539.468 357.112C540.924 358.755 542.772 359.576 545.012 359.576ZM581.366 338.352C581.366 337.717 581.534 337.232 581.87 336.896C582.243 336.56 582.729 336.392 583.326 336.392H585.342C585.977 336.392 586.462 336.56 586.798 336.896C587.134 337.232 587.302 337.717 587.302 338.352V362.04C587.302 362.637 587.134 363.123 586.798 363.496C586.462 363.832 585.977 364 585.342 364H583.83C583.233 364 582.747 363.832 582.374 363.496C582.038 363.123 581.87 362.637 581.87 362.04V360.752C581.123 362.021 580.041 363.029 578.622 363.776C577.203 364.485 575.523 364.84 573.582 364.84C570.297 364.84 567.851 364.037 566.246 362.432C564.641 360.789 563.838 358.624 563.838 355.936V338.352C563.838 337.717 564.006 337.232 564.342 336.896C564.715 336.56 565.201 336.392 565.798 336.392H567.814C568.449 336.392 568.934 336.56 569.27 336.896C569.606 337.232 569.774 337.717 569.774 338.352V354.368C569.774 356.085 570.203 357.411 571.062 358.344C571.958 359.24 573.246 359.688 574.926 359.688C576.867 359.688 578.417 359.128 579.574 358.008C580.769 356.888 581.366 355.264 581.366 353.136V338.352ZM597.159 331.016C596.076 331.016 595.161 330.661 594.415 329.952C593.668 329.205 593.295 328.328 593.295 327.32C593.295 326.275 593.668 325.397 594.415 324.688C595.161 323.979 596.076 323.624 597.159 323.624C598.241 323.624 599.156 323.979 599.903 324.688C600.649 325.397 601.023 326.275 601.023 327.32C601.023 328.328 600.649 329.205 599.903 329.952C599.156 330.661 598.241 331.016 597.159 331.016ZM596.095 364C595.497 364 595.012 363.832 594.639 363.496C594.303 363.123 594.135 362.637 594.135 362.04V338.352C594.135 337.717 594.303 337.232 594.639 336.896C595.012 336.56 595.497 336.392 596.095 336.392H598.111C598.745 336.392 599.231 336.56 599.567 336.896C599.903 337.232 600.071 337.717 600.071 338.352V362.04C600.071 362.637 599.903 363.123 599.567 363.496C599.231 363.832 598.745 364 598.111 364H596.095ZM609.116 364C608.518 364 608.033 363.832 607.66 363.496C607.324 363.123 607.156 362.637 607.156 362.04V326.2C607.156 325.565 607.324 325.08 607.66 324.744C608.033 324.408 608.518 324.24 609.116 324.24H611.132C611.766 324.24 612.252 324.408 612.588 324.744C612.924 325.08 613.092 325.565 613.092 326.2V362.04C613.092 362.637 612.924 363.123 612.588 363.496C612.252 363.832 611.766 364 611.132 364H609.116ZM639.598 326.144C639.598 325.509 639.766 325.024 640.102 324.688C640.475 324.352 640.961 324.184 641.558 324.184H643.574C644.209 324.184 644.694 324.352 645.03 324.688C645.366 325.024 645.534 325.509 645.534 326.144V362.04C645.534 362.637 645.366 363.123 645.03 363.496C644.694 363.832 644.209 364 643.574 364H641.95C641.353 364 640.867 363.832 640.494 363.496C640.158 363.123 639.99 362.637 639.99 362.04V360.08C638.049 363.216 635.006 364.784 630.862 364.784C628.547 364.784 626.457 364.187 624.59 362.992C622.761 361.797 621.323 360.099 620.278 357.896C619.233 355.693 618.71 353.136 618.71 350.224C618.71 347.349 619.233 344.811 620.278 342.608C621.361 340.405 622.835 338.707 624.702 337.512C626.569 336.317 628.659 335.72 630.974 335.72C634.782 335.72 637.657 337.045 639.598 339.696V326.144ZM632.094 359.688C634.371 359.688 636.238 358.848 637.694 357.168C639.15 355.451 639.878 353.136 639.878 350.224C639.878 347.312 639.15 345.016 637.694 343.336C636.238 341.656 634.371 340.816 632.094 340.816C629.891 340.816 628.118 341.675 626.774 343.392C625.43 345.109 624.758 347.387 624.758 350.224C624.758 353.099 625.411 355.395 626.718 357.112C628.062 358.829 629.854 359.688 632.094 359.688ZM655.456 331.016C654.373 331.016 653.458 330.661 652.712 329.952C651.965 329.205 651.592 328.328 651.592 327.32C651.592 326.275 651.965 325.397 652.712 324.688C653.458 323.979 654.373 323.624 655.456 323.624C656.538 323.624 657.453 323.979 658.2 324.688C658.946 325.397 659.32 326.275 659.32 327.32C659.32 328.328 658.946 329.205 658.2 329.952C657.453 330.661 656.538 331.016 655.456 331.016ZM654.392 364C653.794 364 653.309 363.832 652.936 363.496C652.6 363.123 652.432 362.637 652.432 362.04V338.352C652.432 337.717 652.6 337.232 652.936 336.896C653.309 336.56 653.794 336.392 654.392 336.392H656.408C657.042 336.392 657.528 336.56 657.864 336.896C658.2 337.232 658.368 337.717 658.368 338.352V362.04C658.368 362.637 658.2 363.123 657.864 363.496C657.528 363.832 657.042 364 656.408 364H654.392ZM679.285 335.552C682.458 335.552 684.885 336.448 686.565 338.24C688.282 339.995 689.141 342.272 689.141 345.072V362.04C689.141 362.637 688.973 363.123 688.637 363.496C688.301 363.832 687.815 364 687.181 364H685.165C684.567 364 684.082 363.832 683.709 363.496C683.373 363.123 683.205 362.637 683.205 362.04V346.92C683.205 344.904 682.701 343.355 681.693 342.272C680.722 341.189 679.322 340.648 677.493 340.648C675.701 340.648 674.189 341.264 672.957 342.496C671.762 343.728 671.165 345.277 671.165 347.144V362.04C671.165 362.637 670.997 363.123 670.661 363.496C670.325 363.832 669.839 364 669.204 364H667.189C666.591 364 666.106 363.832 665.733 363.496C665.397 363.123 665.229 362.637 665.229 362.04V338.352C665.229 337.717 665.397 337.232 665.733 336.896C666.106 336.56 666.591 336.392 667.189 336.392H668.812C669.447 336.392 669.933 336.56 670.269 336.896C670.605 337.232 670.773 337.717 670.773 338.352V339.808C671.669 338.427 672.845 337.381 674.301 336.672C675.757 335.925 677.418 335.552 679.285 335.552ZM715.395 338.184C715.395 337.624 715.563 337.195 715.899 336.896C716.272 336.56 716.758 336.392 717.355 336.392H718.923C719.558 336.392 720.043 336.56 720.379 336.896C720.715 337.232 720.883 337.717 720.883 338.352V362.992C720.883 366.688 719.688 369.563 717.299 371.616C714.947 373.669 711.811 374.696 707.891 374.696C703.971 374.696 700.275 373.688 696.803 371.672C696.094 371.299 695.739 370.795 695.739 370.16C695.739 369.824 695.888 369.413 696.187 368.928L696.915 367.864C697.326 367.229 697.83 366.912 698.427 366.912C698.838 366.912 699.248 367.043 699.659 367.304C701.152 368.163 702.534 368.779 703.803 369.152C705.072 369.563 706.416 369.768 707.835 369.768C710 369.768 711.736 369.171 713.043 367.976C714.387 366.819 715.059 364.989 715.059 362.488V359.52C713.192 362.171 710.392 363.496 706.659 363.496C704.344 363.496 702.254 362.917 700.387 361.76C698.558 360.565 697.12 358.923 696.075 356.832C695.067 354.704 694.563 352.277 694.563 349.552C694.563 346.827 695.067 344.419 696.075 342.328C697.12 340.2 698.558 338.539 700.387 337.344C702.254 336.149 704.344 335.552 706.659 335.552C710.616 335.552 713.528 337.027 715.395 339.976V338.184ZM707.835 358.512C710 358.512 711.774 357.691 713.155 356.048C714.536 354.368 715.227 352.203 715.227 349.552C715.227 346.939 714.536 344.811 713.155 343.168C711.811 341.488 710.038 340.648 707.835 340.648C705.595 340.648 703.822 341.469 702.515 343.112C701.208 344.755 700.555 346.901 700.555 349.552C700.555 352.24 701.208 354.405 702.515 356.048C703.822 357.691 705.595 358.512 707.835 358.512ZM743.284 331.016C742.201 331.016 741.286 330.661 740.54 329.952C739.793 329.205 739.42 328.328 739.42 327.32C739.42 326.275 739.793 325.397 740.54 324.688C741.286 323.979 742.201 323.624 743.284 323.624C744.366 323.624 745.281 323.979 746.028 324.688C746.774 325.397 747.148 326.275 747.148 327.32C747.148 328.328 746.774 329.205 746.028 329.952C745.281 330.661 744.366 331.016 743.284 331.016ZM742.22 364C741.622 364 741.137 363.832 740.764 363.496C740.428 363.123 740.26 362.637 740.26 362.04V338.352C740.26 337.717 740.428 337.232 740.764 336.896C741.137 336.56 741.622 336.392 742.22 336.392H744.236C744.87 336.392 745.356 336.56 745.692 336.896C746.028 337.232 746.196 337.717 746.196 338.352V362.04C746.196 362.637 746.028 363.123 745.692 363.496C745.356 363.832 744.87 364 744.236 364H742.22ZM763.697 364.84C761.419 364.84 759.385 364.56 757.593 364C755.838 363.403 754.046 362.376 752.217 360.92C751.657 360.509 751.377 360.043 751.377 359.52C751.377 359.109 751.582 358.661 751.993 358.176L752.833 357.224C753.281 356.701 753.766 356.44 754.289 356.44C754.699 356.44 755.147 356.627 755.633 357C757.201 358.157 758.582 358.96 759.777 359.408C760.971 359.819 762.315 360.024 763.809 360.024C765.414 360.024 766.721 359.707 767.729 359.072C768.774 358.4 769.297 357.504 769.297 356.384C769.297 355.525 768.998 354.853 768.401 354.368C767.841 353.845 767.094 353.453 766.161 353.192C765.227 352.893 763.846 352.557 762.017 352.184C759.441 351.624 757.425 351.027 755.969 350.392C754.55 349.72 753.523 348.88 752.889 347.872C752.254 346.864 751.937 345.576 751.937 344.008C751.937 342.403 752.385 340.965 753.281 339.696C754.214 338.427 755.502 337.419 757.145 336.672C758.825 335.925 760.785 335.552 763.025 335.552C765.041 335.552 766.833 335.776 768.401 336.224C770.006 336.672 771.574 337.437 773.105 338.52C773.702 338.968 774.001 339.472 774.001 340.032C774.001 340.405 773.814 340.835 773.441 341.32L772.713 342.216C772.302 342.739 771.798 343 771.201 343C770.753 343 770.323 342.851 769.913 342.552C768.681 341.731 767.542 341.171 766.497 340.872C765.451 340.536 764.275 340.368 762.969 340.368C761.363 340.368 760.075 340.685 759.105 341.32C758.134 341.955 757.649 342.776 757.649 343.784C757.649 344.456 757.873 344.997 758.321 345.408C758.806 345.781 759.478 346.117 760.337 346.416C761.233 346.677 762.633 347.013 764.537 347.424C767.113 347.984 769.147 348.619 770.641 349.328C772.171 350 773.291 350.877 774.001 351.96C774.747 353.005 775.121 354.368 775.121 356.048C775.121 358.661 774.075 360.789 771.985 362.432C769.931 364.037 767.169 364.84 763.697 364.84ZM795.784 331.016C794.701 331.016 793.786 330.661 793.04 329.952C792.293 329.205 791.92 328.328 791.92 327.32C791.92 326.275 792.293 325.397 793.04 324.688C793.786 323.979 794.701 323.624 795.784 323.624C796.866 323.624 797.781 323.979 798.528 324.688C799.274 325.397 799.648 326.275 799.648 327.32C799.648 328.328 799.274 329.205 798.528 329.952C797.781 330.661 796.866 331.016 795.784 331.016ZM794.72 364C794.122 364 793.637 363.832 793.264 363.496C792.928 363.123 792.76 362.637 792.76 362.04V338.352C792.76 337.717 792.928 337.232 793.264 336.896C793.637 336.56 794.122 336.392 794.72 336.392H796.736C797.37 336.392 797.856 336.56 798.192 336.896C798.528 337.232 798.696 337.717 798.696 338.352V362.04C798.696 362.637 798.528 363.123 798.192 363.496C797.856 363.832 797.37 364 796.736 364H794.72ZM818.885 359.296C818.997 359.259 819.165 359.24 819.389 359.24C820.322 359.24 820.882 359.781 821.069 360.864L821.237 361.76C821.274 361.872 821.293 362.059 821.293 362.32C821.293 363.253 820.77 363.851 819.725 364.112C818.231 364.448 816.869 364.616 815.637 364.616C812.986 364.616 811.063 364 809.869 362.768C808.711 361.536 808.133 359.688 808.133 357.224V340.928H805.053C804.455 340.928 803.97 340.76 803.597 340.424C803.261 340.051 803.093 339.565 803.093 338.968V338.352C803.093 337.717 803.261 337.232 803.597 336.896C803.97 336.56 804.455 336.392 805.053 336.392H808.133V329.448C808.133 328.813 808.301 328.328 808.637 327.992C809.01 327.656 809.495 327.488 810.093 327.488H812.109C812.743 327.488 813.229 327.656 813.565 327.992C813.901 328.328 814.069 328.813 814.069 329.448V336.392H819.109C819.743 336.392 820.229 336.56 820.565 336.896C820.901 337.232 821.069 337.717 821.069 338.352V338.968C821.069 339.565 820.901 340.051 820.565 340.424C820.229 340.76 819.743 340.928 819.109 340.928H814.069V356.496C814.069 357.579 814.293 358.344 814.741 358.792C815.226 359.24 815.991 359.464 817.037 359.464C817.485 359.464 818.101 359.408 818.885 359.296ZM837.033 364.84C834.755 364.84 832.721 364.56 830.929 364C829.174 363.403 827.382 362.376 825.553 360.92C824.993 360.509 824.713 360.043 824.713 359.52C824.713 359.109 824.918 358.661 825.329 358.176L826.169 357.224C826.617 356.701 827.102 356.44 827.625 356.44C828.035 356.44 828.483 356.627 828.969 357C830.537 358.157 831.918 358.96 833.113 359.408C834.307 359.819 835.651 360.024 837.145 360.024C838.75 360.024 840.057 359.707 841.065 359.072C842.11 358.4 842.633 357.504 842.633 356.384C842.633 355.525 842.334 354.853 841.737 354.368C841.177 353.845 840.43 353.453 839.497 353.192C838.563 352.893 837.182 352.557 835.353 352.184C832.777 351.624 830.761 351.027 829.305 350.392C827.886 349.72 826.859 348.88 826.225 347.872C825.59 346.864 825.273 345.576 825.273 344.008C825.273 342.403 825.721 340.965 826.617 339.696C827.55 338.427 828.838 337.419 830.481 336.672C832.161 335.925 834.121 335.552 836.361 335.552C838.377 335.552 840.169 335.776 841.737 336.224C843.342 336.672 844.91 337.437 846.441 338.52C847.038 338.968 847.337 339.472 847.337 340.032C847.337 340.405 847.15 340.835 846.777 341.32L846.049 342.216C845.638 342.739 845.134 343 844.537 343C844.089 343 843.659 342.851 843.249 342.552C842.017 341.731 840.878 341.171 839.833 340.872C838.787 340.536 837.611 340.368 836.305 340.368C834.699 340.368 833.411 340.685 832.441 341.32C831.47 341.955 830.985 342.776 830.985 343.784C830.985 344.456 831.209 344.997 831.657 345.408C832.142 345.781 832.814 346.117 833.673 346.416C834.569 346.677 835.969 347.013 837.873 347.424C840.449 347.984 842.483 348.619 843.977 349.328C845.507 350 846.627 350.877 847.337 351.96C848.083 353.005 848.457 354.368 848.457 356.048C848.457 358.661 847.411 360.789 845.321 362.432C843.267 364.037 840.505 364.84 837.033 364.84ZM897.176 338.072C897.437 336.952 898.165 336.392 899.36 336.392H901.432C901.992 336.392 902.421 336.523 902.72 336.784C903.056 337.008 903.224 337.363 903.224 337.848C903.224 337.96 903.186 338.203 903.112 338.576L896.448 362.32C896.186 363.44 895.458 364 894.264 364H890.624C889.504 364 888.776 363.44 888.44 362.32L886.592 355.824C885.77 352.949 884.856 349.347 883.848 345.016L883.568 343.784C882.56 348.339 881.589 352.371 880.656 355.88L878.92 362.32C878.658 363.44 877.93 364 876.736 364H873.152C872.032 364 871.304 363.44 870.968 362.32L864.248 338.576C864.173 338.203 864.136 337.96 864.136 337.848C864.136 337.363 864.285 337.008 864.584 336.784C864.92 336.523 865.368 336.392 865.928 336.392H868.112C869.306 336.392 870.034 336.952 870.296 338.072L872.312 346.024C873.096 348.936 874.01 352.819 875.056 357.672L875.28 358.792C876.362 353.789 877.37 349.533 878.304 346.024L880.432 338.072C880.693 336.952 881.421 336.392 882.616 336.392H884.744C885.938 336.392 886.666 336.952 886.928 338.072L889.112 346.024C890.157 349.907 891.202 354.163 892.248 358.792C893.032 354.797 894.002 350.541 895.16 346.024L897.176 338.072ZM919.525 335.552C923.258 335.552 926.133 336.429 928.149 338.184C930.165 339.901 931.173 342.197 931.173 345.072V362.04C931.173 362.637 931.005 363.123 930.669 363.496C930.333 363.832 929.848 364 929.213 364H927.757C927.16 364 926.674 363.832 926.301 363.496C925.965 363.123 925.797 362.637 925.797 362.04V360.808C924.901 362.115 923.669 363.123 922.101 363.832C920.533 364.541 918.704 364.896 916.613 364.896C913.738 364.896 911.368 364.261 909.501 362.992C907.672 361.685 906.757 359.725 906.757 357.112C906.757 354.2 907.84 352.053 910.005 350.672C912.208 349.253 915.25 348.189 919.133 347.48L925.461 346.304V345.296C925.461 343.765 924.92 342.589 923.837 341.768C922.792 340.909 921.392 340.48 919.637 340.48C918.144 340.48 916.837 340.741 915.717 341.264C914.634 341.749 913.458 342.571 912.189 343.728C911.704 344.139 911.237 344.344 910.789 344.344C910.341 344.344 909.874 344.139 909.389 343.728L908.493 342.944C908.008 342.496 907.765 342.011 907.765 341.488C907.765 341.003 907.989 340.536 908.437 340.088C910.042 338.557 911.741 337.419 913.533 336.672C915.325 335.925 917.322 335.552 919.525 335.552ZM917.453 360.136C919.693 360.136 921.578 359.539 923.109 358.344C924.677 357.149 925.461 355.432 925.461 353.192V350.616L920.589 351.624C917.864 352.184 915.848 352.819 914.541 353.528C913.234 354.237 912.581 355.32 912.581 356.776C912.581 357.821 913.01 358.643 913.869 359.24C914.728 359.837 915.922 360.136 917.453 360.136ZM940.139 364C939.542 364 939.056 363.832 938.683 363.496C938.347 363.123 938.179 362.637 938.179 362.04V326.2C938.179 325.565 938.347 325.08 938.683 324.744C939.056 324.408 939.542 324.24 940.139 324.24H942.155C942.79 324.24 943.275 324.408 943.611 324.744C943.947 325.08 944.115 325.565 944.115 326.2V362.04C944.115 362.637 943.947 363.123 943.611 363.496C943.275 363.832 942.79 364 942.155 364H940.139ZM953.373 364C952.776 364 952.291 363.832 951.917 363.496C951.581 363.123 951.413 362.637 951.413 362.04V326.2C951.413 325.565 951.581 325.08 951.917 324.744C952.291 324.408 952.776 324.24 953.373 324.24H955.389C956.024 324.24 956.509 324.408 956.845 324.744C957.181 325.08 957.349 325.565 957.349 326.2V362.04C957.349 362.637 957.181 363.123 956.845 363.496C956.509 363.832 956.024 364 955.389 364H953.373ZM975.064 364.84C972.786 364.84 970.752 364.56 968.96 364C967.205 363.403 965.413 362.376 963.584 360.92C963.024 360.509 962.744 360.043 962.744 359.52C962.744 359.109 962.949 358.661 963.36 358.176L964.2 357.224C964.648 356.701 965.133 356.44 965.656 356.44C966.066 356.44 966.514 356.627 967 357C968.568 358.157 969.949 358.96 971.144 359.408C972.338 359.819 973.682 360.024 975.176 360.024C976.781 360.024 978.088 359.707 979.096 359.072C980.141 358.4 980.664 357.504 980.664 356.384C980.664 355.525 980.365 354.853 979.768 354.368C979.208 353.845 978.461 353.453 977.528 353.192C976.594 352.893 975.213 352.557 973.384 352.184C970.808 351.624 968.792 351.027 967.336 350.392C965.917 349.72 964.89 348.88 964.256 347.872C963.621 346.864 963.304 345.576 963.304 344.008C963.304 342.403 963.752 340.965 964.648 339.696C965.581 338.427 966.869 337.419 968.512 336.672C970.192 335.925 972.152 335.552 974.392 335.552C976.408 335.552 978.2 335.776 979.768 336.224C981.373 336.672 982.941 337.437 984.472 338.52C985.069 338.968 985.368 339.472 985.368 340.032C985.368 340.405 985.181 340.835 984.808 341.32L984.08 342.216C983.669 342.739 983.165 343 982.568 343C982.12 343 981.69 342.851 981.28 342.552C980.048 341.731 978.909 341.171 977.864 340.872C976.818 340.536 975.642 340.368 974.336 340.368C972.73 340.368 971.442 340.685 970.472 341.32C969.501 341.955 969.016 342.776 969.016 343.784C969.016 344.456 969.24 344.997 969.688 345.408C970.173 345.781 970.845 346.117 971.704 346.416C972.6 346.677 974 347.013 975.904 347.424C978.48 347.984 980.514 348.619 982.008 349.328C983.538 350 984.658 350.877 985.368 351.96C986.114 353.005 986.488 354.368 986.488 356.048C986.488 358.661 985.442 360.789 983.352 362.432C981.298 364.037 978.536 364.84 975.064 364.84ZM994.796 356.44C996.14 356.44 997.26 356.944 998.156 357.952C999.052 358.923 999.5 360.323 999.5 362.152C999.5 364.243 998.94 366.184 997.82 367.976C996.737 369.768 995.206 370.963 993.228 371.56C992.929 371.635 992.724 371.672 992.612 371.672C992.126 371.672 991.753 371.485 991.492 371.112C991.23 370.776 991.1 370.328 991.1 369.768C991.1 369.619 991.193 369.469 991.38 369.32C991.566 369.208 991.772 369.077 991.996 368.928C992.257 368.816 992.5 368.704 992.724 368.592C993.47 368.219 994.124 367.659 994.684 366.912C995.281 366.203 995.654 365.344 995.804 364.336C995.468 364.448 995.132 364.504 994.796 364.504C993.601 364.504 992.612 364.131 991.828 363.384C991.044 362.637 990.652 361.667 990.652 360.472C990.652 359.352 991.062 358.4 991.883 357.616C992.705 356.832 993.676 356.44 994.796 356.44ZM1029.14 336.112C1029.96 336.112 1030.8 336.205 1031.66 336.392C1032.67 336.616 1033.17 337.213 1033.17 338.184C1033.17 338.445 1033.15 338.632 1033.11 338.744L1032.83 340.088C1032.61 341.133 1032.05 341.656 1031.15 341.656L1030.65 341.6C1029.98 341.488 1029.38 341.432 1028.86 341.432C1026.99 341.432 1025.48 342.179 1024.32 343.672C1023.2 345.128 1022.64 347.163 1022.64 349.776V362.04C1022.64 362.637 1022.47 363.123 1022.14 363.496C1021.8 363.832 1021.32 364 1020.68 364H1018.67C1018.07 364 1017.58 363.832 1017.21 363.496C1016.87 363.123 1016.71 362.637 1016.71 362.04V338.352C1016.71 337.717 1016.87 337.232 1017.21 336.896C1017.58 336.56 1018.07 336.392 1018.67 336.392H1020.29C1020.92 336.392 1021.41 336.56 1021.75 336.896C1022.08 337.232 1022.25 337.717 1022.25 338.352V340.536C1022.92 339.155 1023.84 338.072 1024.99 337.288C1026.15 336.504 1027.53 336.112 1029.14 336.112ZM1048.61 364.84C1045.88 364.84 1043.45 364.224 1041.33 362.992C1039.24 361.76 1037.59 360.043 1036.4 357.84C1035.2 355.6 1034.61 353.043 1034.61 350.168C1034.61 347.293 1035.2 344.755 1036.4 342.552C1037.59 340.349 1039.24 338.632 1041.33 337.4C1043.45 336.168 1045.88 335.552 1048.61 335.552C1051.29 335.552 1053.7 336.168 1055.83 337.4C1057.96 338.632 1059.62 340.368 1060.81 342.608C1062.01 344.811 1062.61 347.331 1062.61 350.168C1062.61 353.043 1062.01 355.6 1060.81 357.84C1059.62 360.043 1057.96 361.76 1055.83 362.992C1053.7 364.224 1051.29 364.84 1048.61 364.84ZM1048.61 359.856C1051 359.856 1052.92 358.979 1054.37 357.224C1055.83 355.432 1056.56 353.08 1056.56 350.168C1056.56 347.293 1055.83 344.979 1054.37 343.224C1052.92 341.469 1051 340.592 1048.61 340.592C1046.22 340.592 1044.29 341.469 1042.84 343.224C1041.38 344.979 1040.65 347.293 1040.65 350.168C1040.65 353.08 1041.38 355.432 1042.84 357.224C1044.29 358.979 1046.22 359.856 1048.61 359.856ZM1080.6 364.84C1077.87 364.84 1075.45 364.224 1073.32 362.992C1071.23 361.76 1069.58 360.043 1068.39 357.84C1067.2 355.6 1066.6 353.043 1066.6 350.168C1066.6 347.293 1067.2 344.755 1068.39 342.552C1069.58 340.349 1071.23 338.632 1073.32 337.4C1075.45 336.168 1077.87 335.552 1080.6 335.552C1083.29 335.552 1085.69 336.168 1087.82 337.4C1089.95 338.632 1091.61 340.368 1092.81 342.608C1094 344.811 1094.6 347.331 1094.6 350.168C1094.6 353.043 1094 355.6 1092.81 357.84C1091.61 360.043 1089.95 361.76 1087.82 362.992C1085.69 364.224 1083.29 364.84 1080.6 364.84ZM1080.6 359.856C1082.99 359.856 1084.91 358.979 1086.37 357.224C1087.82 355.432 1088.55 353.08 1088.55 350.168C1088.55 347.293 1087.82 344.979 1086.37 343.224C1084.91 341.469 1082.99 340.592 1080.6 340.592C1078.21 340.592 1076.29 341.469 1074.83 343.224C1073.37 344.979 1072.65 347.293 1072.65 350.168C1072.65 353.08 1073.37 355.432 1074.83 357.224C1076.29 358.979 1078.21 359.856 1080.6 359.856ZM1111.44 328.384C1110.13 328.384 1109.18 328.701 1108.58 329.336C1107.98 329.971 1107.68 331.053 1107.68 332.584V336.392H1112.22C1112.85 336.392 1113.34 336.56 1113.68 336.896C1114.01 337.232 1114.18 337.717 1114.18 338.352V338.968C1114.18 339.565 1114.01 340.051 1113.68 340.424C1113.34 340.76 1112.85 340.928 1112.22 340.928H1107.68V362.04C1107.68 362.637 1107.52 363.123 1107.18 363.496C1106.84 363.832 1106.36 364 1105.72 364H1103.71C1103.11 364 1102.62 363.832 1102.25 363.496C1101.92 363.123 1101.75 362.637 1101.75 362.04V340.928H1098.78C1098.18 340.928 1097.7 340.76 1097.32 340.424C1096.99 340.051 1096.82 339.565 1096.82 338.968V338.352C1096.82 337.717 1096.99 337.232 1097.32 336.896C1097.7 336.56 1098.18 336.392 1098.78 336.392H1101.75V332.192C1101.75 329.317 1102.48 327.152 1103.93 325.696C1105.42 324.203 1107.57 323.456 1110.37 323.456C1111.64 323.456 1112.93 323.587 1114.24 323.848C1115.21 324.109 1115.69 324.707 1115.69 325.64C1115.69 325.901 1115.67 326.107 1115.64 326.256L1115.47 327.04C1115.24 328.011 1114.52 328.496 1113.28 328.496L1112.61 328.44C1112.35 328.403 1111.96 328.384 1111.44 328.384ZM1119.59 356.44C1120.94 356.44 1122.06 356.944 1122.95 357.952C1123.85 358.923 1124.3 360.323 1124.3 362.152C1124.3 364.243 1123.74 366.184 1122.62 367.976C1121.53 369.768 1120 370.963 1118.02 371.56C1117.73 371.635 1117.52 371.672 1117.41 371.672C1116.92 371.672 1116.55 371.485 1116.29 371.112C1116.03 370.776 1115.9 370.328 1115.9 369.768C1115.9 369.619 1115.99 369.469 1116.18 369.32C1116.36 369.208 1116.57 369.077 1116.79 368.928C1117.05 368.816 1117.3 368.704 1117.52 368.592C1118.27 368.219 1118.92 367.659 1119.48 366.912C1120.08 366.203 1120.45 365.344 1120.6 364.336C1120.26 364.448 1119.93 364.504 1119.59 364.504C1118.4 364.504 1117.41 364.131 1116.62 363.384C1115.84 362.637 1115.45 361.667 1115.45 360.472C1115.45 359.352 1115.86 358.4 1116.68 357.616C1117.5 356.832 1118.47 356.44 1119.59 356.44ZM1153.15 335.552C1156.88 335.552 1159.76 336.429 1161.77 338.184C1163.79 339.901 1164.8 342.197 1164.8 345.072V362.04C1164.8 362.637 1164.63 363.123 1164.29 363.496C1163.96 363.832 1163.47 364 1162.84 364H1161.38C1160.78 364 1160.3 363.832 1159.93 363.496C1159.59 363.123 1159.42 362.637 1159.42 362.04V360.808C1158.53 362.115 1157.29 363.123 1155.73 363.832C1154.16 364.541 1152.33 364.896 1150.24 364.896C1147.36 364.896 1144.99 364.261 1143.13 362.992C1141.3 361.685 1140.38 359.725 1140.38 357.112C1140.38 354.2 1141.46 352.053 1143.63 350.672C1145.83 349.253 1148.88 348.189 1152.76 347.48L1159.09 346.304V345.296C1159.09 343.765 1158.54 342.589 1157.46 341.768C1156.42 340.909 1155.02 340.48 1153.26 340.48C1151.77 340.48 1150.46 340.741 1149.34 341.264C1148.26 341.749 1147.08 342.571 1145.81 343.728C1145.33 344.139 1144.86 344.344 1144.41 344.344C1143.97 344.344 1143.5 344.139 1143.01 343.728L1142.12 342.944C1141.63 342.496 1141.39 342.011 1141.39 341.488C1141.39 341.003 1141.61 340.536 1142.06 340.088C1143.67 338.557 1145.37 337.419 1147.16 336.672C1148.95 335.925 1150.95 335.552 1153.15 335.552ZM1151.08 360.136C1153.32 360.136 1155.2 359.539 1156.73 358.344C1158.3 357.149 1159.09 355.432 1159.09 353.192V350.616L1154.21 351.624C1151.49 352.184 1149.47 352.819 1148.17 353.528C1146.86 354.237 1146.21 355.32 1146.21 356.776C1146.21 357.821 1146.64 358.643 1147.49 359.24C1148.35 359.837 1149.55 360.136 1151.08 360.136ZM1185.64 335.552C1188.81 335.552 1191.24 336.448 1192.92 338.24C1194.63 339.995 1195.49 342.272 1195.49 345.072V362.04C1195.49 362.637 1195.32 363.123 1194.99 363.496C1194.65 363.832 1194.17 364 1193.53 364H1191.52C1190.92 364 1190.43 363.832 1190.06 363.496C1189.72 363.123 1189.56 362.637 1189.56 362.04V346.92C1189.56 344.904 1189.05 343.355 1188.04 342.272C1187.07 341.189 1185.67 340.648 1183.84 340.648C1182.05 340.648 1180.54 341.264 1179.31 342.496C1178.11 343.728 1177.52 345.277 1177.52 347.144V362.04C1177.52 362.637 1177.35 363.123 1177.01 363.496C1176.68 363.832 1176.19 364 1175.56 364H1173.54C1172.94 364 1172.46 363.832 1172.08 363.496C1171.75 363.123 1171.58 362.637 1171.58 362.04V338.352C1171.58 337.717 1171.75 337.232 1172.08 336.896C1172.46 336.56 1172.94 336.392 1173.54 336.392H1175.16C1175.8 336.392 1176.28 336.56 1176.62 336.896C1176.96 337.232 1177.12 337.717 1177.12 338.352V339.808C1178.02 338.427 1179.2 337.381 1180.65 336.672C1182.11 335.925 1183.77 335.552 1185.64 335.552ZM1221.75 326.144C1221.75 325.509 1221.91 325.024 1222.25 324.688C1222.62 324.352 1223.11 324.184 1223.71 324.184H1225.72C1226.36 324.184 1226.84 324.352 1227.18 324.688C1227.51 325.024 1227.68 325.509 1227.68 326.144V362.04C1227.68 362.637 1227.51 363.123 1227.18 363.496C1226.84 363.832 1226.36 364 1225.72 364H1224.1C1223.5 364 1223.02 363.832 1222.64 363.496C1222.31 363.123 1222.14 362.637 1222.14 362.04V360.08C1220.2 363.216 1217.15 364.784 1213.01 364.784C1210.7 364.784 1208.61 364.187 1206.74 362.992C1204.91 361.797 1203.47 360.099 1202.43 357.896C1201.38 355.693 1200.86 353.136 1200.86 350.224C1200.86 347.349 1201.38 344.811 1202.43 342.608C1203.51 340.405 1204.98 338.707 1206.85 337.512C1208.72 336.317 1210.81 335.72 1213.12 335.72C1216.93 335.72 1219.81 337.045 1221.75 339.696V326.144ZM1214.24 359.688C1216.52 359.688 1218.39 358.848 1219.84 357.168C1221.3 355.451 1222.03 353.136 1222.03 350.224C1222.03 347.312 1221.3 345.016 1219.84 343.336C1218.39 341.656 1216.52 340.816 1214.24 340.816C1212.04 340.816 1210.27 341.675 1208.92 343.392C1207.58 345.109 1206.91 347.387 1206.91 350.224C1206.91 353.099 1207.56 355.395 1208.87 357.112C1210.21 358.829 1212 359.688 1214.24 359.688ZM176.744 431.296C176.856 431.259 177.024 431.24 177.248 431.24C178.181 431.24 178.741 431.781 178.928 432.864L179.096 433.76C179.133 433.872 179.152 434.059 179.152 434.32C179.152 435.253 178.629 435.851 177.584 436.112C176.091 436.448 174.728 436.616 173.496 436.616C170.845 436.616 168.923 436 167.728 434.768C166.571 433.536 165.992 431.688 165.992 429.224V412.928H162.912C162.315 412.928 161.829 412.76 161.456 412.424C161.12 412.051 160.952 411.565 160.952 410.968V410.352C160.952 409.717 161.12 409.232 161.456 408.896C161.829 408.56 162.315 408.392 162.912 408.392H165.992V401.448C165.992 400.813 166.16 400.328 166.496 399.992C166.869 399.656 167.355 399.488 167.952 399.488H169.968C170.603 399.488 171.088 399.656 171.424 399.992C171.76 400.328 171.928 400.813 171.928 401.448V408.392H176.968C177.603 408.392 178.088 408.56 178.424 408.896C178.76 409.232 178.928 409.717 178.928 410.352V410.968C178.928 411.565 178.76 412.051 178.424 412.424C178.088 412.76 177.603 412.928 176.968 412.928H171.928V428.496C171.928 429.579 172.152 430.344 172.6 430.792C173.085 431.24 173.851 431.464 174.896 431.464C175.344 431.464 175.96 431.408 176.744 431.296ZM197.87 407.552C201.044 407.552 203.47 408.448 205.15 410.24C206.868 411.995 207.726 414.272 207.726 417.072V434.04C207.726 434.637 207.558 435.123 207.222 435.496C206.886 435.832 206.401 436 205.766 436H203.75C203.153 436 202.668 435.832 202.294 435.496C201.958 435.123 201.79 434.637 201.79 434.04V418.92C201.79 416.904 201.286 415.355 200.278 414.272C199.308 413.189 197.908 412.648 196.078 412.648C194.286 412.648 192.774 413.264 191.542 414.496C190.348 415.728 189.75 417.277 189.75 419.144V434.04C189.75 434.637 189.582 435.123 189.246 435.496C188.91 435.832 188.425 436 187.79 436H185.774C185.177 436 184.692 435.832 184.318 435.496C183.982 435.123 183.814 434.637 183.814 434.04V398.2C183.814 397.565 183.982 397.08 184.318 396.744C184.692 396.408 185.177 396.24 185.774 396.24H187.79C188.425 396.24 188.91 396.408 189.246 396.744C189.582 397.08 189.75 397.565 189.75 398.2V411.248C190.646 410.053 191.785 409.139 193.166 408.504C194.585 407.869 196.153 407.552 197.87 407.552ZM234.317 428.944C234.802 428.533 235.269 428.328 235.717 428.328C236.165 428.328 236.631 428.571 237.117 429.056L237.901 429.896C238.311 430.381 238.517 430.848 238.517 431.296C238.517 431.781 238.274 432.248 237.789 432.696C236.071 434.189 234.354 435.253 232.637 435.888C230.957 436.523 229.09 436.84 227.037 436.84C224.162 436.84 221.661 436.243 219.533 435.048C217.442 433.853 215.818 432.173 214.661 430.008C213.541 427.805 212.981 425.267 212.981 422.392C212.981 419.555 213.522 417.016 214.605 414.776C215.725 412.499 217.293 410.725 219.309 409.456C221.362 408.187 223.751 407.552 226.477 407.552C230.546 407.552 233.682 408.765 235.885 411.192C238.087 413.581 239.189 416.885 239.189 421.104V421.608C239.151 422.205 238.965 422.672 238.629 423.008C238.293 423.344 237.807 423.512 237.173 423.512H218.805C219.029 425.976 219.831 427.992 221.213 429.56C222.631 431.091 224.61 431.856 227.149 431.856C228.53 431.856 229.743 431.651 230.789 431.24C231.834 430.792 233.01 430.027 234.317 428.944ZM226.365 412.256C224.311 412.256 222.65 412.872 221.381 414.104C220.149 415.299 219.346 416.997 218.973 419.2H233.365C233.215 417.035 232.543 415.336 231.349 414.104C230.154 412.872 228.493 412.256 226.365 412.256ZM286.774 407.552C289.724 407.552 292.001 408.392 293.606 410.072C295.212 411.715 296.014 413.936 296.014 416.736V434.04C296.014 434.637 295.846 435.123 295.51 435.496C295.174 435.832 294.689 436 294.054 436H292.038C291.441 436 290.956 435.832 290.582 435.496C290.246 435.123 290.078 434.637 290.078 434.04V418.528C290.078 416.699 289.668 415.261 288.846 414.216C288.025 413.171 286.774 412.648 285.094 412.648C283.377 412.648 282.014 413.227 281.006 414.384C280.036 415.541 279.55 417.035 279.55 418.864V434.04C279.55 434.637 279.382 435.123 279.046 435.496C278.71 435.832 278.225 436 277.59 436H275.574C274.977 436 274.492 435.832 274.118 435.496C273.782 435.123 273.614 434.637 273.614 434.04V418.528C273.614 416.699 273.204 415.261 272.382 414.216C271.598 413.171 270.366 412.648 268.686 412.648C267.044 412.648 265.718 413.189 264.71 414.272C263.702 415.355 263.161 416.755 263.086 418.472V434.04C263.086 434.637 262.918 435.123 262.582 435.496C262.246 435.832 261.761 436 261.126 436H259.11C258.513 436 258.028 435.832 257.654 435.496C257.318 435.123 257.15 434.637 257.15 434.04V410.352C257.15 409.717 257.318 409.232 257.654 408.896C258.028 408.56 258.513 408.392 259.11 408.392H260.734C261.369 408.392 261.854 408.56 262.19 408.896C262.526 409.232 262.694 409.717 262.694 410.352V411.584C264.412 408.896 267.062 407.552 270.646 407.552C272.438 407.552 274.006 407.925 275.35 408.672C276.694 409.419 277.721 410.464 278.43 411.808C280.334 408.971 283.116 407.552 286.774 407.552ZM314.462 407.552C318.196 407.552 321.07 408.429 323.086 410.184C325.102 411.901 326.11 414.197 326.11 417.072V434.04C326.11 434.637 325.942 435.123 325.606 435.496C325.27 435.832 324.785 436 324.15 436H322.694C322.097 436 321.612 435.832 321.238 435.496C320.902 435.123 320.734 434.637 320.734 434.04V432.808C319.838 434.115 318.606 435.123 317.038 435.832C315.47 436.541 313.641 436.896 311.55 436.896C308.676 436.896 306.305 436.261 304.438 434.992C302.609 433.685 301.694 431.725 301.694 429.112C301.694 426.2 302.777 424.053 304.942 422.672C307.145 421.253 310.188 420.189 314.07 419.48L320.398 418.304V417.296C320.398 415.765 319.857 414.589 318.774 413.768C317.729 412.909 316.329 412.48 314.574 412.48C313.081 412.48 311.774 412.741 310.654 413.264C309.572 413.749 308.396 414.571 307.126 415.728C306.641 416.139 306.174 416.344 305.726 416.344C305.278 416.344 304.812 416.139 304.326 415.728L303.43 414.944C302.945 414.496 302.702 414.011 302.702 413.488C302.702 413.003 302.926 412.536 303.374 412.088C304.98 410.557 306.678 409.419 308.47 408.672C310.262 407.925 312.26 407.552 314.462 407.552ZM312.39 432.136C314.63 432.136 316.516 431.539 318.046 430.344C319.614 429.149 320.398 427.432 320.398 425.192V422.616L315.526 423.624C312.801 424.184 310.785 424.819 309.478 425.528C308.172 426.237 307.518 427.32 307.518 428.776C307.518 429.821 307.948 430.643 308.806 431.24C309.665 431.837 310.86 432.136 312.39 432.136ZM345.619 431.296C345.731 431.259 345.899 431.24 346.123 431.24C347.056 431.24 347.616 431.781 347.803 432.864L347.971 433.76C348.008 433.872 348.027 434.059 348.027 434.32C348.027 435.253 347.504 435.851 346.459 436.112C344.966 436.448 343.603 436.616 342.371 436.616C339.72 436.616 337.798 436 336.603 434.768C335.446 433.536 334.867 431.688 334.867 429.224V412.928H331.787C331.19 412.928 330.704 412.76 330.331 412.424C329.995 412.051 329.827 411.565 329.827 410.968V410.352C329.827 409.717 329.995 409.232 330.331 408.896C330.704 408.56 331.19 408.392 331.787 408.392H334.867V401.448C334.867 400.813 335.035 400.328 335.371 399.992C335.744 399.656 336.23 399.488 336.827 399.488H338.843C339.478 399.488 339.963 399.656 340.299 399.992C340.635 400.328 340.803 400.813 340.803 401.448V408.392H345.843C346.478 408.392 346.963 408.56 347.299 408.896C347.635 409.232 347.803 409.717 347.803 410.352V410.968C347.803 411.565 347.635 412.051 347.299 412.424C346.963 412.76 346.478 412.928 345.843 412.928H340.803V428.496C340.803 429.579 341.027 430.344 341.475 430.792C341.96 431.24 342.726 431.464 343.771 431.464C344.219 431.464 344.835 431.408 345.619 431.296ZM371.582 428.944C372.068 428.533 372.534 428.328 372.982 428.328C373.43 428.328 373.897 428.571 374.382 429.056L375.166 429.896C375.577 430.381 375.782 430.848 375.782 431.296C375.782 431.781 375.54 432.248 375.054 432.696C373.337 434.189 371.62 435.253 369.902 435.888C368.222 436.523 366.356 436.84 364.302 436.84C361.428 436.84 358.926 436.243 356.798 435.048C354.708 433.853 353.084 432.173 351.926 430.008C350.806 427.805 350.246 425.267 350.246 422.392C350.246 419.555 350.788 417.016 351.87 414.776C352.99 412.499 354.558 410.725 356.574 409.456C358.628 408.187 361.017 407.552 363.742 407.552C367.812 407.552 370.948 408.765 373.15 411.192C375.353 413.581 376.454 416.885 376.454 421.104V421.608C376.417 422.205 376.23 422.672 375.894 423.008C375.558 423.344 375.073 423.512 374.438 423.512H356.07C356.294 425.976 357.097 427.992 358.478 429.56C359.897 431.091 361.876 431.856 364.414 431.856C365.796 431.856 367.009 431.651 368.054 431.24C369.1 430.792 370.276 430.027 371.582 428.944ZM363.63 412.256C361.577 412.256 359.916 412.872 358.646 414.104C357.414 415.299 356.612 416.997 356.238 419.2H370.63C370.481 417.035 369.809 415.336 368.614 414.104C367.42 412.872 365.758 412.256 363.63 412.256ZM394.325 408.112C395.146 408.112 395.986 408.205 396.845 408.392C397.853 408.616 398.357 409.213 398.357 410.184C398.357 410.445 398.338 410.632 398.301 410.744L398.021 412.088C397.797 413.133 397.237 413.656 396.341 413.656L395.837 413.6C395.165 413.488 394.567 413.432 394.045 413.432C392.178 413.432 390.666 414.179 389.509 415.672C388.389 417.128 387.829 419.163 387.829 421.776V434.04C387.829 434.637 387.661 435.123 387.325 435.496C386.989 435.832 386.503 436 385.869 436H383.853C383.255 436 382.77 435.832 382.397 435.496C382.061 435.123 381.893 434.637 381.893 434.04V410.352C381.893 409.717 382.061 409.232 382.397 408.896C382.77 408.56 383.255 408.392 383.853 408.392H385.477C386.111 408.392 386.597 408.56 386.933 408.896C387.269 409.232 387.437 409.717 387.437 410.352V412.536C388.109 411.155 389.023 410.072 390.181 409.288C391.338 408.504 392.719 408.112 394.325 408.112ZM405.698 403.016C404.615 403.016 403.7 402.661 402.954 401.952C402.207 401.205 401.834 400.328 401.834 399.32C401.834 398.275 402.207 397.397 402.954 396.688C403.7 395.979 404.615 395.624 405.698 395.624C406.78 395.624 407.695 395.979 408.442 396.688C409.188 397.397 409.562 398.275 409.562 399.32C409.562 400.328 409.188 401.205 408.442 401.952C407.695 402.661 406.78 403.016 405.698 403.016ZM404.634 436C404.036 436 403.551 435.832 403.178 435.496C402.842 435.123 402.674 434.637 402.674 434.04V410.352C402.674 409.717 402.842 409.232 403.178 408.896C403.551 408.56 404.036 408.392 404.634 408.392H406.65C407.284 408.392 407.77 408.56 408.106 408.896C408.442 409.232 408.61 409.717 408.61 410.352V434.04C408.61 434.637 408.442 435.123 408.106 435.496C407.77 435.832 407.284 436 406.65 436H404.634ZM427.119 407.552C430.852 407.552 433.727 408.429 435.743 410.184C437.759 411.901 438.767 414.197 438.767 417.072V434.04C438.767 434.637 438.599 435.123 438.263 435.496C437.927 435.832 437.441 436 436.807 436H435.351C434.753 436 434.268 435.832 433.895 435.496C433.559 435.123 433.391 434.637 433.391 434.04V432.808C432.495 434.115 431.263 435.123 429.695 435.832C428.127 436.541 426.297 436.896 424.207 436.896C421.332 436.896 418.961 436.261 417.095 434.992C415.265 433.685 414.351 431.725 414.351 429.112C414.351 426.2 415.433 424.053 417.599 422.672C419.801 421.253 422.844 420.189 426.727 419.48L433.055 418.304V417.296C433.055 415.765 432.513 414.589 431.431 413.768C430.385 412.909 428.985 412.48 427.231 412.48C425.737 412.48 424.431 412.741 423.311 413.264C422.228 413.749 421.052 414.571 419.783 415.728C419.297 416.139 418.831 416.344 418.383 416.344C417.935 416.344 417.468 416.139 416.983 415.728L416.087 414.944C415.601 414.496 415.359 414.011 415.359 413.488C415.359 413.003 415.583 412.536 416.031 412.088C417.636 410.557 419.335 409.419 421.127 408.672C422.919 407.925 424.916 407.552 427.119 407.552ZM425.047 432.136C427.287 432.136 429.172 431.539 430.703 430.344C432.271 429.149 433.055 427.432 433.055 425.192V422.616L428.183 423.624C425.457 424.184 423.441 424.819 422.135 425.528C420.828 426.237 420.175 427.32 420.175 428.776C420.175 429.821 420.604 430.643 421.463 431.24C422.321 431.837 423.516 432.136 425.047 432.136ZM447.733 436C447.135 436 446.65 435.832 446.277 435.496C445.941 435.123 445.773 434.637 445.773 434.04V398.2C445.773 397.565 445.941 397.08 446.277 396.744C446.65 396.408 447.135 396.24 447.733 396.24H449.749C450.383 396.24 450.869 396.408 451.205 396.744C451.541 397.08 451.709 397.565 451.709 398.2V434.04C451.709 434.637 451.541 435.123 451.205 435.496C450.869 435.832 450.383 436 449.749 436H447.733ZM469.423 436.84C467.146 436.84 465.111 436.56 463.319 436C461.565 435.403 459.773 434.376 457.943 432.92C457.383 432.509 457.103 432.043 457.103 431.52C457.103 431.109 457.309 430.661 457.719 430.176L458.559 429.224C459.007 428.701 459.493 428.44 460.015 428.44C460.426 428.44 460.874 428.627 461.359 429C462.927 430.157 464.309 430.96 465.503 431.408C466.698 431.819 468.042 432.024 469.535 432.024C471.141 432.024 472.447 431.707 473.455 431.072C474.501 430.4 475.023 429.504 475.023 428.384C475.023 427.525 474.725 426.853 474.127 426.368C473.567 425.845 472.821 425.453 471.887 425.192C470.954 424.893 469.573 424.557 467.743 424.184C465.167 423.624 463.151 423.027 461.695 422.392C460.277 421.72 459.25 420.88 458.615 419.872C457.981 418.864 457.663 417.576 457.663 416.008C457.663 414.403 458.111 412.965 459.007 411.696C459.941 410.427 461.229 409.419 462.871 408.672C464.551 407.925 466.511 407.552 468.751 407.552C470.767 407.552 472.559 407.776 474.127 408.224C475.733 408.672 477.301 409.437 478.831 410.52C479.429 410.968 479.727 411.472 479.727 412.032C479.727 412.405 479.541 412.835 479.167 413.32L478.439 414.216C478.029 414.739 477.525 415 476.927 415C476.479 415 476.05 414.851 475.639 414.552C474.407 413.731 473.269 413.171 472.223 412.872C471.178 412.536 470.002 412.368 468.695 412.368C467.09 412.368 465.802 412.685 464.831 413.32C463.861 413.955 463.375 414.776 463.375 415.784C463.375 416.456 463.599 416.997 464.047 417.408C464.533 417.781 465.205 418.117 466.063 418.416C466.959 418.677 468.359 419.013 470.263 419.424C472.839 419.984 474.874 420.619 476.367 421.328C477.898 422 479.018 422.877 479.727 423.96C480.474 425.005 480.847 426.368 480.847 428.048C480.847 430.661 479.802 432.789 477.711 434.432C475.658 436.037 472.895 436.84 469.423 436.84ZM529.566 410.072C529.828 408.952 530.556 408.392 531.75 408.392H533.822C534.382 408.392 534.812 408.523 535.11 408.784C535.446 409.008 535.614 409.363 535.614 409.848C535.614 409.96 535.577 410.203 535.502 410.576L528.838 434.32C528.577 435.44 527.849 436 526.654 436H523.014C521.894 436 521.166 435.44 520.83 434.32L518.982 427.824C518.161 424.949 517.246 421.347 516.238 417.016L515.958 415.784C514.95 420.339 513.98 424.371 513.046 427.88L511.31 434.32C511.049 435.44 510.321 436 509.126 436H505.542C504.422 436 503.694 435.44 503.358 434.32L496.638 410.576C496.564 410.203 496.526 409.96 496.526 409.848C496.526 409.363 496.676 409.008 496.974 408.784C497.31 408.523 497.758 408.392 498.318 408.392H500.502C501.697 408.392 502.425 408.952 502.686 410.072L504.702 418.024C505.486 420.936 506.401 424.819 507.446 429.672L507.67 430.792C508.753 425.789 509.761 421.533 510.694 418.024L512.822 410.072C513.084 408.952 513.812 408.392 515.006 408.392H517.134C518.329 408.392 519.057 408.952 519.318 410.072L521.502 418.024C522.548 421.907 523.593 426.163 524.638 430.792C525.422 426.797 526.393 422.541 527.55 418.024L529.566 410.072ZM543.565 403.016C542.482 403.016 541.568 402.661 540.821 401.952C540.074 401.205 539.701 400.328 539.701 399.32C539.701 398.275 540.074 397.397 540.821 396.688C541.568 395.979 542.482 395.624 543.565 395.624C544.648 395.624 545.562 395.979 546.309 396.688C547.056 397.397 547.429 398.275 547.429 399.32C547.429 400.328 547.056 401.205 546.309 401.952C545.562 402.661 544.648 403.016 543.565 403.016ZM542.501 436C541.904 436 541.418 435.832 541.045 435.496C540.709 435.123 540.541 434.637 540.541 434.04V410.352C540.541 409.717 540.709 409.232 541.045 408.896C541.418 408.56 541.904 408.392 542.501 408.392H544.517C545.152 408.392 545.637 408.56 545.973 408.896C546.309 409.232 546.477 409.717 546.477 410.352V434.04C546.477 434.637 546.309 435.123 545.973 435.496C545.637 435.832 545.152 436 544.517 436H542.501ZM566.666 431.296C566.778 431.259 566.946 431.24 567.17 431.24C568.103 431.24 568.663 431.781 568.85 432.864L569.018 433.76C569.055 433.872 569.074 434.059 569.074 434.32C569.074 435.253 568.551 435.851 567.506 436.112C566.013 436.448 564.65 436.616 563.418 436.616C560.767 436.616 558.845 436 557.65 434.768C556.493 433.536 555.914 431.688 555.914 429.224V412.928H552.834C552.237 412.928 551.751 412.76 551.378 412.424C551.042 412.051 550.874 411.565 550.874 410.968V410.352C550.874 409.717 551.042 409.232 551.378 408.896C551.751 408.56 552.237 408.392 552.834 408.392H555.914V401.448C555.914 400.813 556.082 400.328 556.418 399.992C556.791 399.656 557.277 399.488 557.874 399.488H559.89C560.525 399.488 561.01 399.656 561.346 399.992C561.682 400.328 561.85 400.813 561.85 401.448V408.392H566.89C567.525 408.392 568.01 408.56 568.346 408.896C568.682 409.232 568.85 409.717 568.85 410.352V410.968C568.85 411.565 568.682 412.051 568.346 412.424C568.01 412.76 567.525 412.928 566.89 412.928H561.85V428.496C561.85 429.579 562.074 430.344 562.522 430.792C563.007 431.24 563.773 431.464 564.818 431.464C565.266 431.464 565.882 431.408 566.666 431.296ZM587.792 407.552C590.966 407.552 593.392 408.448 595.072 410.24C596.79 411.995 597.648 414.272 597.648 417.072V434.04C597.648 434.637 597.48 435.123 597.144 435.496C596.808 435.832 596.323 436 595.688 436H593.672C593.075 436 592.59 435.832 592.216 435.496C591.88 435.123 591.712 434.637 591.712 434.04V418.92C591.712 416.904 591.208 415.355 590.2 414.272C589.23 413.189 587.83 412.648 586 412.648C584.208 412.648 582.696 413.264 581.464 414.496C580.27 415.728 579.672 417.277 579.672 419.144V434.04C579.672 434.637 579.504 435.123 579.168 435.496C578.832 435.832 578.347 436 577.712 436H575.696C575.099 436 574.614 435.832 574.24 435.496C573.904 435.123 573.736 434.637 573.736 434.04V398.2C573.736 397.565 573.904 397.08 574.24 396.744C574.614 396.408 575.099 396.24 575.696 396.24H577.712C578.347 396.24 578.832 396.408 579.168 396.744C579.504 397.08 579.672 397.565 579.672 398.2V411.248C580.568 410.053 581.707 409.139 583.088 408.504C584.507 407.869 586.075 407.552 587.792 407.552ZM648.074 410.072C648.335 408.952 649.063 408.392 650.258 408.392H652.33C652.89 408.392 653.319 408.523 653.618 408.784C653.954 409.008 654.122 409.363 654.122 409.848C654.122 409.96 654.085 410.203 654.01 410.576L647.346 434.32C647.085 435.44 646.357 436 645.162 436H641.522C640.402 436 639.674 435.44 639.338 434.32L637.49 427.824C636.669 424.949 635.754 421.347 634.746 417.016L634.466 415.784C633.458 420.339 632.487 424.371 631.554 427.88L629.818 434.32C629.557 435.44 628.829 436 627.634 436H624.05C622.93 436 622.202 435.44 621.866 434.32L615.146 410.576C615.071 410.203 615.034 409.96 615.034 409.848C615.034 409.363 615.183 409.008 615.482 408.784C615.818 408.523 616.266 408.392 616.826 408.392H619.01C620.205 408.392 620.933 408.952 621.194 410.072L623.21 418.024C623.994 420.936 624.909 424.819 625.954 429.672L626.178 430.792C627.261 425.789 628.269 421.533 629.202 418.024L631.33 410.072C631.591 408.952 632.319 408.392 633.514 408.392H635.642C636.837 408.392 637.565 408.952 637.826 410.072L640.01 418.024C641.055 421.907 642.101 426.163 643.146 430.792C643.93 426.797 644.901 422.541 646.058 418.024L648.074 410.072ZM673.105 407.552C676.278 407.552 678.705 408.448 680.385 410.24C682.102 411.995 682.961 414.272 682.961 417.072V434.04C682.961 434.637 682.793 435.123 682.457 435.496C682.121 435.832 681.635 436 681.001 436H678.985C678.387 436 677.902 435.832 677.529 435.496C677.193 435.123 677.025 434.637 677.025 434.04V418.92C677.025 416.904 676.521 415.355 675.513 414.272C674.542 413.189 673.142 412.648 671.313 412.648C669.521 412.648 668.009 413.264 666.777 414.496C665.582 415.728 664.985 417.277 664.985 419.144V434.04C664.985 434.637 664.817 435.123 664.481 435.496C664.145 435.832 663.659 436 663.025 436H661.009C660.411 436 659.926 435.832 659.553 435.496C659.217 435.123 659.049 434.637 659.049 434.04V398.2C659.049 397.565 659.217 397.08 659.553 396.744C659.926 396.408 660.411 396.24 661.009 396.24H663.025C663.659 396.24 664.145 396.408 664.481 396.744C664.817 397.08 664.985 397.565 664.985 398.2V411.248C665.881 410.053 667.019 409.139 668.401 408.504C669.819 407.869 671.387 407.552 673.105 407.552ZM692.807 403.016C691.725 403.016 690.81 402.661 690.063 401.952C689.317 401.205 688.943 400.328 688.943 399.32C688.943 398.275 689.317 397.397 690.063 396.688C690.81 395.979 691.725 395.624 692.807 395.624C693.89 395.624 694.805 395.979 695.551 396.688C696.298 397.397 696.671 398.275 696.671 399.32C696.671 400.328 696.298 401.205 695.551 401.952C694.805 402.661 693.89 403.016 692.807 403.016ZM691.743 436C691.146 436 690.661 435.832 690.287 435.496C689.951 435.123 689.783 434.637 689.783 434.04V410.352C689.783 409.717 689.951 409.232 690.287 408.896C690.661 408.56 691.146 408.392 691.743 408.392H693.759C694.394 408.392 694.879 408.56 695.215 408.896C695.551 409.232 695.719 409.717 695.719 410.352V434.04C695.719 434.637 695.551 435.123 695.215 435.496C694.879 435.832 694.394 436 693.759 436H691.743ZM714.732 436.84C712.007 436.84 709.599 436.243 707.508 435.048C705.455 433.853 703.849 432.155 702.692 429.952C701.572 427.712 701.012 425.117 701.012 422.168C701.012 419.219 701.591 416.643 702.748 414.44C703.905 412.237 705.529 410.539 707.62 409.344C709.711 408.149 712.119 407.552 714.844 407.552C716.823 407.552 718.596 407.851 720.164 408.448C721.769 409.008 723.3 409.979 724.756 411.36C725.204 411.808 725.428 412.275 725.428 412.76C725.428 413.208 725.185 413.675 724.7 414.16L723.748 415.112C723.337 415.523 722.889 415.728 722.404 415.728C721.919 415.728 721.415 415.504 720.892 415.056C719.809 414.123 718.783 413.488 717.812 413.152C716.879 412.779 715.871 412.592 714.788 412.592C712.324 412.592 710.42 413.507 709.076 415.336C707.732 417.165 707.06 419.443 707.06 422.168C707.06 424.893 707.732 427.189 709.076 429.056C710.42 430.885 712.324 431.8 714.788 431.8C715.983 431.8 717.084 431.576 718.092 431.128C719.1 430.643 720.183 429.84 721.34 428.72C721.825 428.235 722.329 427.992 722.852 427.992C723.3 427.992 723.729 428.179 724.14 428.552L725.092 429.336C725.577 429.747 725.82 430.213 725.82 430.736C725.82 431.296 725.54 431.893 724.98 432.528C723.449 434.096 721.863 435.216 720.22 435.888C718.615 436.523 716.785 436.84 714.732 436.84ZM744.855 407.552C748.028 407.552 750.455 408.448 752.135 410.24C753.852 411.995 754.711 414.272 754.711 417.072V434.04C754.711 434.637 754.543 435.123 754.207 435.496C753.871 435.832 753.385 436 752.751 436H750.735C750.137 436 749.652 435.832 749.279 435.496C748.943 435.123 748.775 434.637 748.775 434.04V418.92C748.775 416.904 748.271 415.355 747.263 414.272C746.292 413.189 744.892 412.648 743.063 412.648C741.271 412.648 739.759 413.264 738.527 414.496C737.332 415.728 736.735 417.277 736.735 419.144V434.04C736.735 434.637 736.567 435.123 736.231 435.496C735.895 435.832 735.409 436 734.775 436H732.759C732.161 436 731.676 435.832 731.303 435.496C730.967 435.123 730.799 434.637 730.799 434.04V398.2C730.799 397.565 730.967 397.08 731.303 396.744C731.676 396.408 732.161 396.24 732.759 396.24H734.775C735.409 396.24 735.895 396.408 736.231 396.744C736.567 397.08 736.735 397.565 736.735 398.2V411.248C737.631 410.053 738.769 409.139 740.151 408.504C741.569 407.869 743.137 407.552 744.855 407.552ZM777.081 403.016C775.998 403.016 775.083 402.661 774.337 401.952C773.59 401.205 773.217 400.328 773.217 399.32C773.217 398.275 773.59 397.397 774.337 396.688C775.083 395.979 775.998 395.624 777.081 395.624C778.163 395.624 779.078 395.979 779.825 396.688C780.571 397.397 780.945 398.275 780.945 399.32C780.945 400.328 780.571 401.205 779.825 401.952C779.078 402.661 778.163 403.016 777.081 403.016ZM776.017 436C775.419 436 774.934 435.832 774.561 435.496C774.225 435.123 774.057 434.637 774.057 434.04V410.352C774.057 409.717 774.225 409.232 774.561 408.896C774.934 408.56 775.419 408.392 776.017 408.392H778.033C778.667 408.392 779.153 408.56 779.489 408.896C779.825 409.232 779.993 409.717 779.993 410.352V434.04C779.993 434.637 779.825 435.123 779.489 435.496C779.153 435.832 778.667 436 778.033 436H776.017ZM800.182 431.296C800.294 431.259 800.462 431.24 800.686 431.24C801.619 431.24 802.179 431.781 802.366 432.864L802.534 433.76C802.571 433.872 802.59 434.059 802.59 434.32C802.59 435.253 802.067 435.851 801.022 436.112C799.528 436.448 798.166 436.616 796.934 436.616C794.283 436.616 792.36 436 791.166 434.768C790.008 433.536 789.43 431.688 789.43 429.224V412.928H786.35C785.752 412.928 785.267 412.76 784.894 412.424C784.558 412.051 784.39 411.565 784.39 410.968V410.352C784.39 409.717 784.558 409.232 784.894 408.896C785.267 408.56 785.752 408.392 786.35 408.392H789.43V401.448C789.43 400.813 789.598 400.328 789.934 399.992C790.307 399.656 790.792 399.488 791.39 399.488H793.406C794.04 399.488 794.526 399.656 794.862 399.992C795.198 400.328 795.366 400.813 795.366 401.448V408.392H800.406C801.04 408.392 801.526 408.56 801.862 408.896C802.198 409.232 802.366 409.717 802.366 410.352V410.968C802.366 411.565 802.198 412.051 801.862 412.424C801.526 412.76 801.04 412.928 800.406 412.928H795.366V428.496C795.366 429.579 795.59 430.344 796.038 430.792C796.523 431.24 797.288 431.464 798.334 431.464C798.782 431.464 799.398 431.408 800.182 431.296ZM822.799 403.016C821.717 403.016 820.802 402.661 820.055 401.952C819.309 401.205 818.935 400.328 818.935 399.32C818.935 398.275 819.309 397.397 820.055 396.688C820.802 395.979 821.717 395.624 822.799 395.624C823.882 395.624 824.797 395.979 825.543 396.688C826.29 397.397 826.663 398.275 826.663 399.32C826.663 400.328 826.29 401.205 825.543 401.952C824.797 402.661 823.882 403.016 822.799 403.016ZM821.735 436C821.138 436 820.653 435.832 820.279 435.496C819.943 435.123 819.775 434.637 819.775 434.04V410.352C819.775 409.717 819.943 409.232 820.279 408.896C820.653 408.56 821.138 408.392 821.735 408.392H823.751C824.386 408.392 824.871 408.56 825.207 408.896C825.543 409.232 825.711 409.717 825.711 410.352V434.04C825.711 434.637 825.543 435.123 825.207 435.496C824.871 435.832 824.386 436 823.751 436H821.735ZM843.212 436.84C840.935 436.84 838.9 436.56 837.108 436C835.354 435.403 833.562 434.376 831.732 432.92C831.172 432.509 830.892 432.043 830.892 431.52C830.892 431.109 831.098 430.661 831.508 430.176L832.348 429.224C832.796 428.701 833.282 428.44 833.804 428.44C834.215 428.44 834.663 428.627 835.148 429C836.716 430.157 838.098 430.96 839.292 431.408C840.487 431.819 841.831 432.024 843.324 432.024C844.93 432.024 846.236 431.707 847.244 431.072C848.29 430.4 848.812 429.504 848.812 428.384C848.812 427.525 848.514 426.853 847.916 426.368C847.356 425.845 846.61 425.453 845.676 425.192C844.743 424.893 843.362 424.557 841.532 424.184C838.956 423.624 836.94 423.027 835.484 422.392C834.066 421.72 833.039 420.88 832.404 419.872C831.77 418.864 831.452 417.576 831.452 416.008C831.452 414.403 831.9 412.965 832.796 411.696C833.73 410.427 835.018 409.419 836.66 408.672C838.34 407.925 840.3 407.552 842.54 407.552C844.556 407.552 846.348 407.776 847.916 408.224C849.522 408.672 851.09 409.437 852.62 410.52C853.218 410.968 853.516 411.472 853.516 412.032C853.516 412.405 853.33 412.835 852.956 413.32L852.228 414.216C851.818 414.739 851.314 415 850.716 415C850.268 415 849.839 414.851 849.428 414.552C848.196 413.731 847.058 413.171 846.012 412.872C844.967 412.536 843.791 412.368 842.484 412.368C840.879 412.368 839.591 412.685 838.62 413.32C837.65 413.955 837.164 414.776 837.164 415.784C837.164 416.456 837.388 416.997 837.836 417.408C838.322 417.781 838.994 418.117 839.852 418.416C840.748 418.677 842.148 419.013 844.052 419.424C846.628 419.984 848.663 420.619 850.156 421.328C851.687 422 852.807 422.877 853.516 423.96C854.263 425.005 854.636 426.368 854.636 428.048C854.636 430.661 853.591 432.789 851.5 434.432C849.447 436.037 846.684 436.84 843.212 436.84ZM886.947 407.664C889.299 407.664 891.39 408.261 893.219 409.456C895.086 410.651 896.542 412.349 897.587 414.552C898.633 416.755 899.155 419.293 899.155 422.168C899.155 425.08 898.633 427.637 897.587 429.84C896.542 432.043 895.086 433.741 893.219 434.936C891.353 436.131 889.262 436.728 886.947 436.728C882.803 436.728 879.761 435.179 877.819 432.08V434.04C877.819 434.637 877.651 435.123 877.315 435.496C876.979 435.832 876.494 436 875.859 436H874.235C873.638 436 873.153 435.832 872.779 435.496C872.443 435.123 872.275 434.637 872.275 434.04V398.2C872.275 397.565 872.443 397.08 872.779 396.744C873.153 396.408 873.638 396.24 874.235 396.24H876.251C876.886 396.24 877.371 396.408 877.707 396.744C878.043 397.08 878.211 397.565 878.211 398.2V411.864C880.19 409.064 883.102 407.664 886.947 407.664ZM885.715 431.576C887.955 431.576 889.747 430.736 891.091 429.056C892.435 427.339 893.107 425.043 893.107 422.168C893.107 419.331 892.435 417.053 891.091 415.336C889.785 413.619 888.011 412.76 885.771 412.76C883.494 412.76 881.627 413.619 880.171 415.336C878.715 417.016 877.987 419.293 877.987 422.168C877.987 425.117 878.715 427.432 880.171 429.112C881.627 430.755 883.475 431.576 885.715 431.576ZM922.069 410.352C922.069 409.717 922.237 409.232 922.573 408.896C922.946 408.56 923.432 408.392 924.029 408.392H926.045C926.68 408.392 927.165 408.56 927.501 408.896C927.837 409.232 928.005 409.717 928.005 410.352V434.04C928.005 434.637 927.837 435.123 927.501 435.496C927.165 435.832 926.68 436 926.045 436H924.533C923.936 436 923.45 435.832 923.077 435.496C922.741 435.123 922.573 434.637 922.573 434.04V432.752C921.826 434.021 920.744 435.029 919.325 435.776C917.906 436.485 916.226 436.84 914.285 436.84C911 436.84 908.554 436.037 906.949 434.432C905.344 432.789 904.541 430.624 904.541 427.936V410.352C904.541 409.717 904.709 409.232 905.045 408.896C905.418 408.56 905.904 408.392 906.501 408.392H908.517C909.152 408.392 909.637 408.56 909.973 408.896C910.309 409.232 910.477 409.717 910.477 410.352V426.368C910.477 428.085 910.906 429.411 911.765 430.344C912.661 431.24 913.949 431.688 915.629 431.688C917.57 431.688 919.12 431.128 920.277 430.008C921.472 428.888 922.069 427.264 922.069 425.136V410.352ZM937.862 403.016C936.779 403.016 935.865 402.661 935.118 401.952C934.371 401.205 933.998 400.328 933.998 399.32C933.998 398.275 934.371 397.397 935.118 396.688C935.865 395.979 936.779 395.624 937.862 395.624C938.945 395.624 939.859 395.979 940.606 396.688C941.353 397.397 941.726 398.275 941.726 399.32C941.726 400.328 941.353 401.205 940.606 401.952C939.859 402.661 938.945 403.016 937.862 403.016ZM936.798 436C936.201 436 935.715 435.832 935.342 435.496C935.006 435.123 934.838 434.637 934.838 434.04V410.352C934.838 409.717 935.006 409.232 935.342 408.896C935.715 408.56 936.201 408.392 936.798 408.392H938.814C939.449 408.392 939.934 408.56 940.27 408.896C940.606 409.232 940.774 409.717 940.774 410.352V434.04C940.774 434.637 940.606 435.123 940.27 435.496C939.934 435.832 939.449 436 938.814 436H936.798ZM949.819 436C949.221 436 948.736 435.832 948.363 435.496C948.027 435.123 947.859 434.637 947.859 434.04V398.2C947.859 397.565 948.027 397.08 948.363 396.744C948.736 396.408 949.221 396.24 949.819 396.24H951.835C952.469 396.24 952.955 396.408 953.291 396.744C953.627 397.08 953.795 397.565 953.795 398.2V434.04C953.795 434.637 953.627 435.123 953.291 435.496C952.955 435.832 952.469 436 951.835 436H949.819ZM974.197 431.296C974.309 431.259 974.477 431.24 974.701 431.24C975.634 431.24 976.194 431.781 976.381 432.864L976.549 433.76C976.586 433.872 976.605 434.059 976.605 434.32C976.605 435.253 976.082 435.851 975.037 436.112C973.544 436.448 972.181 436.616 970.949 436.616C968.298 436.616 966.376 436 965.181 434.768C964.024 433.536 963.445 431.688 963.445 429.224V412.928H960.365C959.768 412.928 959.282 412.76 958.909 412.424C958.573 412.051 958.405 411.565 958.405 410.968V410.352C958.405 409.717 958.573 409.232 958.909 408.896C959.282 408.56 959.768 408.392 960.365 408.392H963.445V401.448C963.445 400.813 963.613 400.328 963.949 399.992C964.322 399.656 964.808 399.488 965.405 399.488H967.421C968.056 399.488 968.541 399.656 968.877 399.992C969.213 400.328 969.381 400.813 969.381 401.448V408.392H974.421C975.056 408.392 975.541 408.56 975.877 408.896C976.213 409.232 976.381 409.717 976.381 410.352V410.968C976.381 411.565 976.213 412.051 975.877 412.424C975.541 412.76 975.056 412.928 974.421 412.928H969.381V428.496C969.381 429.579 969.605 430.344 970.053 430.792C970.538 431.24 971.304 431.464 972.349 431.464C972.797 431.464 973.413 431.408 974.197 431.296ZM985.497 436.56C984.377 436.56 983.407 436.168 982.585 435.384C981.801 434.563 981.409 433.573 981.409 432.416C981.409 431.333 981.801 430.4 982.585 429.616C983.407 428.795 984.377 428.384 985.497 428.384C986.617 428.384 987.569 428.795 988.353 429.616C989.175 430.4 989.585 431.333 989.585 432.416C989.585 433.573 989.175 434.563 988.353 435.384C987.569 436.168 986.617 436.56 985.497 436.56Z" fill="white"/>
<rect x="160" y="160" width="57" height="57" rx="28.5" fill="#003280"/>
<path d="M188.972 185.482C190.491 185.482 191.851 185.765 193.052 186.332C194.253 186.876 195.194 187.692 195.874 188.78C196.554 189.845 196.894 191.126 196.894 192.622C196.894 193.937 196.565 195.206 195.908 196.43C195.251 197.631 194.265 198.617 192.95 199.388C191.635 200.159 190.071 200.544 188.258 200.544C186.83 200.544 185.481 200.363 184.212 200C182.965 199.615 181.662 199.003 180.302 198.164C179.894 197.892 179.69 197.586 179.69 197.246C179.69 197.042 179.781 196.793 179.962 196.498L180.438 195.784C180.665 195.421 180.971 195.24 181.356 195.24C181.583 195.24 181.832 195.308 182.104 195.444C183.26 196.124 184.303 196.623 185.232 196.94C186.161 197.235 187.136 197.382 188.156 197.382C189.675 197.382 190.887 196.94 191.794 196.056C192.701 195.172 193.154 194.039 193.154 192.656C193.154 191.273 192.689 190.197 191.76 189.426C190.831 188.655 189.539 188.27 187.884 188.27C187.181 188.27 186.547 188.327 185.98 188.44C185.753 188.485 185.595 188.508 185.504 188.508C185.051 188.508 184.688 188.304 184.416 187.896L184.008 187.352C183.827 187.103 183.736 186.865 183.736 186.638C183.736 186.321 183.895 186.003 184.212 185.686L191.658 178.988H181.696C181.333 178.988 181.039 178.886 180.812 178.682C180.608 178.455 180.506 178.161 180.506 177.798V177.05C180.506 176.665 180.608 176.37 180.812 176.166C181.039 175.962 181.333 175.86 181.696 175.86H194.922C195.307 175.86 195.602 175.962 195.806 176.166C196.01 176.37 196.112 176.665 196.112 177.05V178.036C196.112 178.603 195.897 179.09 195.466 179.498L188.802 185.482H188.972Z" fill="white"/>
<rect x="1737.69" y="898.451" width="166" height="166" fill="#38BDF8"/>
<path d="M1915.69 1076.49H1725.6V886.013H1915.69V1076.49ZM1738.04 1064.03H1903.18V898.555H1738.04V1064.03Z" fill="white"/>
<path d="M1827.59 809.549C1869.26 809.549 1903.18 843.533 1903.18 885.285V886.094H1826.78V809.549H1827.59ZM1827.59 797.007H1814.35V898.474H1915.61V885.204C1915.61 836.493 1876.21 797.007 1827.59 797.007Z" fill="white"/>
<path d="M1649.21 992.659L1720.43 1064.03H1649.21V992.659ZM1649.21 975.019H1636.77V1076.49H1738.04V1064.03L1649.21 975.019Z" fill="white"/>
<path d="M1725.6 987.48V1064.03H1649.21V987.48H1725.6ZM1738.04 975.019H1636.77V1076.49H1738.04V975.019Z" fill="white"/>
<path d="M1559.49 952.121L1505.55 1006.17L1451.6 952.121L1505.55 898.07L1559.49 952.121ZM1577.09 952.121L1505.55 880.43L1434 952.121L1505.55 1023.81L1577.09 952.121Z" fill="white"/>
<path d="M1700.69 850.451H1622.69V772.451H1700.69V850.451Z" fill="#BAE6FD"/>
<path d="M1623.61 773.461H1699.92V849.925H1623.61V773.461ZM1611.09 761V862.386H1712.28V761H1611.09Z" fill="white"/>
</g>
<defs>
<clipPath id="clip0_943_16385">
<rect width="1920" height="1080" fill="white"/>
</clipPath>
</defs>
</svg>
