<svg width="1920" height="1080" viewBox="0 0 1920 1080" fill="none" xmlns="http://www.w3.org/2000/svg">
<rect x="8" y="8" width="1904" height="1064" fill="#003280"/>
<path fill-rule="evenodd" clip-rule="evenodd" d="M620.409 536.745V431.255C620.409 429.175 618.72 427.482 616.644 427.482H511.448C509.372 427.482 507.684 429.175 507.684 431.255V540.518H616.644C618.72 540.518 620.409 538.826 620.409 536.745Z" fill="#00BFFB"/>
<path fill-rule="evenodd" clip-rule="evenodd" d="M423.506 427.482H390.224C388.149 427.482 386.461 429.175 386.461 431.255V536.745C386.461 538.826 388.149 540.519 390.224 540.519H499.222V503.383C499.222 461.531 465.256 427.482 423.506 427.482Z" fill="#006CFB"/>
<path fill-rule="evenodd" clip-rule="evenodd" d="M386.461 536.745V431.256C386.461 429.175 388.15 427.482 390.225 427.482H423.506C465.256 427.482 499.222 461.531 499.222 503.383V540.518H390.225C388.15 540.518 386.461 538.826 386.461 536.745ZM620.408 536.745C620.408 538.826 618.719 540.518 616.643 540.518H507.683V431.256C507.683 429.175 509.372 427.482 511.448 427.482H616.643C618.719 427.482 620.408 429.175 620.408 431.256V536.745ZM616.643 419H511.448C504.706 419 499.222 424.498 499.222 431.255V466.535C485.551 438.42 456.75 419 423.506 419H390.226C383.484 419 378 424.498 378 431.255V536.745C378 543.502 383.484 549 390.226 549H616.643C623.385 549 628.869 543.502 628.869 536.745V431.255C628.869 424.498 623.385 419 616.643 419Z" fill="white"/>
<path d="M707.336 532C705.971 532 704.861 531.616 704.008 530.848C703.24 529.995 702.856 528.885 702.856 527.52V445.6C702.856 444.149 703.24 443.04 704.008 442.272C704.861 441.504 705.971 441.12 707.336 441.12H760.456C761.907 441.12 763.016 441.504 763.784 442.272C764.552 443.04 764.936 444.149 764.936 445.6V448.928C764.936 450.293 764.552 451.403 763.784 452.256C763.016 453.024 761.907 453.408 760.456 453.408H717.448V481.184H757C758.451 481.184 759.56 481.568 760.328 482.336C761.096 483.104 761.48 484.213 761.48 485.664V488.864C761.48 490.229 761.096 491.339 760.328 492.192C759.56 492.96 758.451 493.344 757 493.344H717.448V527.52C717.448 528.885 717.064 529.995 716.296 530.848C715.528 531.616 714.419 532 712.968 532H707.336ZM801.057 466.976C809.59 466.976 816.161 468.981 820.769 472.992C825.377 476.917 827.681 482.165 827.681 488.736V527.52C827.681 528.885 827.297 529.995 826.529 530.848C825.761 531.616 824.652 532 823.201 532H819.873C818.508 532 817.398 531.616 816.545 530.848C815.777 529.995 815.393 528.885 815.393 527.52V524.704C813.345 527.691 810.529 529.995 806.945 531.616C803.361 533.237 799.18 534.048 794.401 534.048C787.83 534.048 782.412 532.597 778.145 529.696C773.964 526.709 771.873 522.229 771.873 516.256C771.873 509.6 774.348 504.693 779.297 501.536C784.332 498.293 791.286 495.861 800.161 494.24L814.625 491.552V489.248C814.625 485.749 813.388 483.061 810.913 481.184C808.524 479.221 805.324 478.24 801.313 478.24C797.9 478.24 794.913 478.837 792.353 480.032C789.878 481.141 787.19 483.019 784.289 485.664C783.18 486.603 782.113 487.072 781.089 487.072C780.065 487.072 778.998 486.603 777.889 485.664L775.841 483.872C774.732 482.848 774.177 481.739 774.177 480.544C774.177 479.435 774.689 478.368 775.713 477.344C779.382 473.845 783.265 471.243 787.361 469.536C791.457 467.829 796.022 466.976 801.057 466.976ZM796.321 523.168C801.441 523.168 805.75 521.803 809.249 519.072C812.833 516.341 814.625 512.416 814.625 507.296V501.408L803.489 503.712C797.26 504.992 792.652 506.443 789.665 508.064C786.678 509.685 785.185 512.16 785.185 515.488C785.185 517.877 786.166 519.755 788.129 521.12C790.092 522.485 792.822 523.168 796.321 523.168ZM876.719 467.232C882.095 467.232 886.874 468.597 891.055 471.328C895.322 474.059 898.65 477.941 901.039 482.976C903.428 488.011 904.623 493.813 904.623 500.384C904.623 507.04 903.428 512.885 901.039 517.92C898.65 522.955 895.322 526.837 891.055 529.568C886.788 532.299 882.01 533.664 876.719 533.664C867.247 533.664 860.292 530.123 855.855 523.04V527.52C855.855 528.885 855.471 529.995 854.703 530.848C853.935 531.616 852.826 532 851.375 532H847.663C846.298 532 845.188 531.616 844.335 530.848C843.567 529.995 843.183 528.885 843.183 527.52V445.6C843.183 444.149 843.567 443.04 844.335 442.272C845.188 441.504 846.298 441.12 847.663 441.12H852.271C853.722 441.12 854.831 441.504 855.599 442.272C856.367 443.04 856.751 444.149 856.751 445.6V476.832C861.274 470.432 867.93 467.232 876.719 467.232ZM873.903 521.888C879.023 521.888 883.119 519.968 886.191 516.128C889.263 512.203 890.799 506.955 890.799 500.384C890.799 493.899 889.263 488.693 886.191 484.768C883.204 480.843 879.151 478.88 874.031 478.88C868.826 478.88 864.559 480.843 861.231 484.768C857.903 488.608 856.239 493.813 856.239 500.384C856.239 507.125 857.903 512.416 861.231 516.256C864.559 520.011 868.783 521.888 873.903 521.888ZM945.349 468.256C947.226 468.256 949.146 468.469 951.109 468.896C953.413 469.408 954.565 470.773 954.565 472.992C954.565 473.589 954.522 474.016 954.437 474.272L953.797 477.344C953.285 479.733 952.005 480.928 949.957 480.928L948.805 480.8C947.269 480.544 945.904 480.416 944.709 480.416C940.442 480.416 936.986 482.123 934.341 485.536C931.781 488.864 930.501 493.515 930.501 499.488V527.52C930.501 528.885 930.117 529.995 929.349 530.848C928.581 531.616 927.472 532 926.021 532H921.413C920.048 532 918.938 531.616 918.085 530.848C917.317 529.995 916.933 528.885 916.933 527.52V473.376C916.933 471.925 917.317 470.816 918.085 470.048C918.938 469.28 920.048 468.896 921.413 468.896H925.125C926.576 468.896 927.685 469.28 928.453 470.048C929.221 470.816 929.605 471.925 929.605 473.376V478.368C931.141 475.211 933.232 472.736 935.877 470.944C938.522 469.152 941.68 468.256 945.349 468.256ZM971.345 456.608C968.87 456.608 966.78 455.797 965.073 454.176C963.366 452.469 962.513 450.464 962.513 448.16C962.513 445.771 963.366 443.765 965.073 442.144C966.78 440.523 968.87 439.712 971.345 439.712C973.82 439.712 975.91 440.523 977.617 442.144C979.324 443.765 980.177 445.771 980.177 448.16C980.177 450.464 979.324 452.469 977.617 454.176C975.91 455.797 973.82 456.608 971.345 456.608ZM968.913 532C967.548 532 966.438 531.616 965.585 530.848C964.817 529.995 964.433 528.885 964.433 527.52V473.376C964.433 471.925 964.817 470.816 965.585 470.048C966.438 469.28 967.548 468.896 968.913 468.896H973.521C974.972 468.896 976.081 469.28 976.849 470.048C977.617 470.816 978.001 471.925 978.001 473.376V527.52C978.001 528.885 977.617 529.995 976.849 530.848C976.081 531.616 974.972 532 973.521 532H968.913ZM1021.46 533.92C1015.23 533.92 1009.73 532.555 1004.95 529.824C1000.25 527.093 996.584 523.211 993.939 518.176C991.379 513.056 990.099 507.125 990.099 500.384C990.099 493.643 991.422 487.755 994.067 482.72C996.712 477.685 1000.42 473.803 1005.2 471.072C1009.98 468.341 1015.49 466.976 1021.72 466.976C1026.24 466.976 1030.29 467.659 1033.88 469.024C1037.54 470.304 1041.04 472.523 1044.37 475.68C1045.4 476.704 1045.91 477.771 1045.91 478.88C1045.91 479.904 1045.35 480.971 1044.24 482.08L1042.07 484.256C1041.13 485.195 1040.1 485.664 1039 485.664C1037.89 485.664 1036.73 485.152 1035.54 484.128C1033.06 481.995 1030.72 480.544 1028.5 479.776C1026.37 478.923 1024.06 478.496 1021.59 478.496C1015.96 478.496 1011.6 480.587 1008.53 484.768C1005.46 488.949 1003.92 494.155 1003.92 500.384C1003.92 506.613 1005.46 511.861 1008.53 516.128C1011.6 520.309 1015.96 522.4 1021.59 522.4C1024.32 522.4 1026.84 521.888 1029.14 520.864C1031.44 519.755 1033.92 517.92 1036.56 515.36C1037.67 514.251 1038.82 513.696 1040.02 513.696C1041.04 513.696 1042.02 514.123 1042.96 514.976L1045.14 516.768C1046.25 517.707 1046.8 518.773 1046.8 519.968C1046.8 521.248 1046.16 522.613 1044.88 524.064C1041.38 527.648 1037.76 530.208 1034 531.744C1030.33 533.195 1026.15 533.92 1021.46 533.92ZM1061.77 501.152C1060.4 501.152 1059.29 500.768 1058.44 500C1057.67 499.147 1057.29 498.037 1057.29 496.672V493.472C1057.29 492.021 1057.67 490.912 1058.44 490.144C1059.29 489.376 1060.4 488.992 1061.77 488.992H1091.08C1092.53 488.992 1093.64 489.376 1094.41 490.144C1095.18 490.912 1095.56 492.021 1095.56 493.472V496.672C1095.56 498.037 1095.18 499.147 1094.41 500C1093.64 500.768 1092.53 501.152 1091.08 501.152H1061.77ZM1155.97 445.472C1155.97 444.021 1156.36 442.912 1157.13 442.144C1157.98 441.376 1159.09 440.992 1160.45 440.992H1165.06C1166.51 440.992 1167.62 441.376 1168.39 442.144C1169.16 442.912 1169.54 444.021 1169.54 445.472V527.52C1169.54 528.885 1169.16 529.995 1168.39 530.848C1167.62 531.616 1166.51 532 1165.06 532H1161.35C1159.98 532 1158.88 531.616 1158.02 530.848C1157.25 529.995 1156.87 528.885 1156.87 527.52V523.04C1152.43 530.208 1145.48 533.792 1136.01 533.792C1130.72 533.792 1125.94 532.427 1121.67 529.696C1117.49 526.965 1114.2 523.083 1111.81 518.048C1109.42 513.013 1108.23 507.168 1108.23 500.512C1108.23 493.941 1109.42 488.139 1111.81 483.104C1114.29 478.069 1117.66 474.187 1121.93 471.456C1126.19 468.725 1130.97 467.36 1136.26 467.36C1144.97 467.36 1151.54 470.389 1155.97 476.448V445.472ZM1138.82 522.144C1144.03 522.144 1148.29 520.224 1151.62 516.384C1154.95 512.459 1156.61 507.168 1156.61 500.512C1156.61 493.856 1154.95 488.608 1151.62 484.768C1148.29 480.928 1144.03 479.008 1138.82 479.008C1133.79 479.008 1129.73 480.971 1126.66 484.896C1123.59 488.821 1122.05 494.027 1122.05 500.512C1122.05 507.083 1123.55 512.331 1126.53 516.256C1129.61 520.181 1133.7 522.144 1138.82 522.144ZM1209.63 533.92C1204.42 533.92 1199.77 533.28 1195.68 532C1191.67 530.635 1187.57 528.288 1183.39 524.96C1182.11 524.021 1181.47 522.955 1181.47 521.76C1181.47 520.821 1181.94 519.797 1182.88 518.688L1184.8 516.512C1185.82 515.317 1186.93 514.72 1188.12 514.72C1189.06 514.72 1190.09 515.147 1191.2 516C1194.78 518.645 1197.94 520.48 1200.67 521.504C1203.4 522.443 1206.47 522.912 1209.88 522.912C1213.55 522.912 1216.54 522.187 1218.84 520.736C1221.23 519.2 1222.43 517.152 1222.43 514.592C1222.43 512.629 1221.75 511.093 1220.38 509.984C1219.1 508.789 1217.39 507.893 1215.26 507.296C1213.13 506.613 1209.97 505.845 1205.79 504.992C1199.9 503.712 1195.29 502.347 1191.96 500.896C1188.72 499.36 1186.37 497.44 1184.92 495.136C1183.47 492.832 1182.75 489.888 1182.75 486.304C1182.75 482.635 1183.77 479.349 1185.82 476.448C1187.95 473.547 1190.9 471.243 1194.65 469.536C1198.49 467.829 1202.97 466.976 1208.09 466.976C1212.7 466.976 1216.8 467.488 1220.38 468.512C1224.05 469.536 1227.63 471.285 1231.13 473.76C1232.5 474.784 1233.18 475.936 1233.18 477.216C1233.18 478.069 1232.75 479.051 1231.9 480.16L1230.24 482.208C1229.3 483.403 1228.15 484 1226.78 484C1225.76 484 1224.77 483.659 1223.84 482.976C1221.02 481.099 1218.42 479.819 1216.03 479.136C1213.64 478.368 1210.95 477.984 1207.96 477.984C1204.29 477.984 1201.35 478.709 1199.13 480.16C1196.91 481.611 1195.8 483.488 1195.8 485.792C1195.8 487.328 1196.32 488.565 1197.34 489.504C1198.45 490.357 1199.99 491.125 1201.95 491.808C1204 492.405 1207.2 493.173 1211.55 494.112C1217.44 495.392 1222.09 496.843 1225.5 498.464C1229 500 1231.56 502.005 1233.18 504.48C1234.89 506.869 1235.74 509.984 1235.74 513.824C1235.74 519.797 1233.35 524.661 1228.57 528.416C1223.88 532.085 1217.56 533.92 1209.63 533.92ZM1254.6 533.28C1252.04 533.28 1249.82 532.384 1247.95 530.592C1246.15 528.715 1245.26 526.453 1245.26 523.808C1245.26 521.333 1246.15 519.2 1247.95 517.408C1249.82 515.531 1252.04 514.592 1254.6 514.592C1257.16 514.592 1259.34 515.531 1261.13 517.408C1263.01 519.2 1263.95 521.333 1263.95 523.808C1263.95 526.453 1263.01 528.715 1261.13 530.592C1259.34 532.384 1257.16 533.28 1254.6 533.28ZM1284.35 456.608C1281.87 456.608 1279.78 455.797 1278.07 454.176C1276.37 452.469 1275.51 450.464 1275.51 448.16C1275.51 445.771 1276.37 443.765 1278.07 442.144C1279.78 440.523 1281.87 439.712 1284.35 439.712C1286.82 439.712 1288.91 440.523 1290.62 442.144C1292.32 443.765 1293.18 445.771 1293.18 448.16C1293.18 450.464 1292.32 452.469 1290.62 454.176C1288.91 455.797 1286.82 456.608 1284.35 456.608ZM1281.91 532C1280.55 532 1279.44 531.616 1278.59 530.848C1277.82 529.995 1277.43 528.885 1277.43 527.52V473.376C1277.43 471.925 1277.82 470.816 1278.59 470.048C1279.44 469.28 1280.55 468.896 1281.91 468.896H1286.52C1287.97 468.896 1289.08 469.28 1289.85 470.048C1290.62 470.816 1291 471.925 1291 473.376V527.52C1291 528.885 1290.62 529.995 1289.85 530.848C1289.08 531.616 1287.97 532 1286.52 532H1281.91ZM1335.1 533.92C1328.87 533.92 1323.32 532.512 1318.46 529.696C1313.68 526.88 1309.93 522.955 1307.2 517.92C1304.46 512.8 1303.1 506.955 1303.1 500.384C1303.1 493.813 1304.46 488.011 1307.2 482.976C1309.93 477.941 1313.68 474.016 1318.46 471.2C1323.32 468.384 1328.87 466.976 1335.1 466.976C1341.24 466.976 1346.75 468.384 1351.61 471.2C1356.48 474.016 1360.27 477.984 1363 483.104C1365.73 488.139 1367.1 493.899 1367.1 500.384C1367.1 506.955 1365.73 512.8 1363 517.92C1360.27 522.955 1356.48 526.88 1351.61 529.696C1346.75 532.512 1341.24 533.92 1335.1 533.92ZM1335.1 522.528C1340.56 522.528 1344.96 520.523 1348.28 516.512C1351.61 512.416 1353.28 507.04 1353.28 500.384C1353.28 493.813 1351.61 488.523 1348.28 484.512C1344.96 480.501 1340.56 478.496 1335.1 478.496C1329.64 478.496 1325.24 480.501 1321.92 484.512C1318.59 488.523 1316.92 493.813 1316.92 500.384C1316.92 507.04 1318.59 512.416 1321.92 516.512C1325.24 520.523 1329.64 522.528 1335.1 522.528Z" fill="white"/>
<path d="M723.816 647.44C718.76 647.44 714.184 646.672 710.088 645.136C706.056 643.536 701.8 640.944 697.32 637.36C696.744 636.848 696.456 636.368 696.456 635.92C696.456 635.536 696.648 635.12 697.032 634.672L698.568 632.848C698.888 632.336 699.368 632.08 700.008 632.08C700.52 632.08 700.936 632.24 701.256 632.56C705.8 636.08 709.768 638.48 713.16 639.76C716.552 640.976 720.104 641.584 723.816 641.584C729 641.584 733.224 640.304 736.488 637.744C739.752 635.12 741.384 631.568 741.384 627.088C741.384 624.208 740.616 621.904 739.08 620.176C737.544 618.448 735.432 617.104 732.744 616.144C730.12 615.184 726.376 614.16 721.512 613.072C715.688 611.792 711.144 610.416 707.88 608.944C704.68 607.472 702.344 605.616 700.872 603.376C699.4 601.136 698.664 598.256 698.664 594.736C698.664 591.024 699.72 587.792 701.832 585.04C704.008 582.224 706.888 580.08 710.472 578.608C714.056 577.136 717.928 576.4 722.088 576.4C726.632 576.4 730.76 577.072 734.472 578.416C738.248 579.76 741.96 581.904 745.608 584.848C746.184 585.232 746.472 585.68 746.472 586.192C746.472 586.576 746.28 587.024 745.896 587.536L744.456 589.264C744.136 589.776 743.656 590.032 743.016 590.032C742.504 590.032 742.056 589.872 741.672 589.552C738.408 586.864 735.24 584.976 732.168 583.888C729.16 582.8 725.832 582.256 722.184 582.256C718.856 582.256 715.912 582.8 713.352 583.888C710.792 584.912 708.776 586.352 707.304 588.208C705.896 590.064 705.192 592.176 705.192 594.544C705.192 597.104 705.896 599.152 707.304 600.688C708.776 602.224 710.792 603.44 713.352 604.336C715.976 605.232 719.784 606.256 724.776 607.408C730.536 608.752 735.08 610.256 738.408 611.92C741.8 613.584 744.264 615.632 745.8 618.064C747.336 620.432 748.104 623.376 748.104 626.896C748.104 630.992 747.048 634.608 744.936 637.744C742.888 640.816 740.008 643.216 736.296 644.944C732.584 646.608 728.424 647.44 723.816 647.44ZM762.897 586.672C761.617 586.672 760.529 586.224 759.633 585.328C758.801 584.432 758.385 583.344 758.385 582.064C758.385 580.784 758.801 579.728 759.633 578.896C760.529 578.064 761.617 577.648 762.897 577.648C764.241 577.648 765.329 578.064 766.161 578.896C767.057 579.728 767.505 580.784 767.505 582.064C767.505 583.344 767.057 584.432 766.161 585.328C765.329 586.224 764.241 586.672 762.897 586.672ZM761.649 646C760.369 646 759.729 645.36 759.729 644.08V600.592C759.729 599.312 760.369 598.672 761.649 598.672H764.145C765.425 598.672 766.065 599.312 766.065 600.592V644.08C766.065 645.36 765.425 646 764.145 646H761.649ZM801.479 640.72C801.671 640.656 801.927 640.624 802.247 640.624C802.631 640.624 802.983 640.752 803.303 641.008C803.623 641.264 803.815 641.616 803.879 642.064L804.167 643.408C804.231 643.536 804.263 643.76 804.263 644.08C804.263 644.976 803.783 645.52 802.823 645.712C800.519 646.416 798.055 646.768 795.431 646.768C791.271 646.768 788.295 645.84 786.503 643.984C784.775 642.064 783.911 639.312 783.911 635.728V603.472H776.807C775.527 603.472 774.887 602.832 774.887 601.552V600.592C774.887 599.312 775.527 598.672 776.807 598.672H783.911V584.08C783.911 582.8 784.551 582.16 785.831 582.16H788.327C789.607 582.16 790.247 582.8 790.247 584.08V598.672H801.767C803.047 598.672 803.687 599.312 803.687 600.592V601.552C803.687 602.832 803.047 603.472 801.767 603.472H790.247V634.96C790.247 637.328 790.695 638.992 791.591 639.952C792.487 640.912 794.023 641.392 796.199 641.392C797.735 641.392 799.495 641.168 801.479 640.72ZM846.037 634.768C846.485 634.32 846.965 634.096 847.477 634.096C847.925 634.096 848.341 634.288 848.725 634.672L849.973 635.824C850.421 636.272 850.645 636.752 850.645 637.264C850.645 637.648 850.453 638.096 850.069 638.608C846.933 641.744 843.893 643.984 840.949 645.328C838.005 646.608 834.709 647.248 831.061 647.248C826.453 647.248 822.453 646.224 819.061 644.176C815.669 642.128 813.045 639.28 811.189 635.632C809.333 631.92 808.405 627.632 808.405 622.768C808.405 617.84 809.301 613.488 811.093 609.712C812.949 605.872 815.541 602.896 818.869 600.784C822.197 598.608 826.037 597.52 830.389 597.52C836.853 597.52 841.941 599.536 845.653 603.568C849.365 607.6 851.221 613.04 851.221 619.888V621.04C851.157 621.616 850.933 622.064 850.549 622.384C850.229 622.704 849.781 622.864 849.205 622.864H814.837C815.029 628.24 816.437 632.784 819.061 636.496C821.749 640.144 825.749 641.968 831.061 641.968C833.941 641.968 836.469 641.456 838.645 640.432C840.885 639.344 843.349 637.456 846.037 634.768ZM830.389 602.8C826.165 602.8 822.677 604.112 819.925 606.736C817.237 609.296 815.605 613.072 815.029 618.064H844.885C844.757 613.392 843.413 609.68 840.853 606.928C838.293 604.176 834.805 602.8 830.389 602.8ZM918.874 579.76C918.874 578.48 919.514 577.84 920.794 577.84H923.29C924.57 577.84 925.21 578.48 925.21 579.76V644.08C925.21 645.36 924.57 646 923.29 646H921.274C919.994 646 919.354 645.36 919.354 644.08V637.84C917.626 640.848 915.354 643.152 912.538 644.752C909.722 646.352 906.394 647.152 902.554 647.152C898.522 647.152 894.938 646.128 891.802 644.08C888.666 641.968 886.202 639.056 884.41 635.344C882.618 631.568 881.722 627.248 881.722 622.384C881.722 617.52 882.618 613.232 884.41 609.52C886.266 605.744 888.794 602.832 891.994 600.784C895.194 598.672 898.778 597.616 902.746 597.616C910.042 597.616 915.418 600.336 918.874 605.776V579.76ZM903.034 641.776C907.834 641.776 911.706 640.08 914.65 636.688C917.658 633.232 919.162 628.464 919.162 622.384C919.162 616.368 917.658 611.632 914.65 608.176C911.706 604.72 907.834 602.992 903.034 602.992C898.618 602.992 895.034 604.784 892.282 608.368C889.594 611.952 888.25 616.624 888.25 622.384C888.25 628.208 889.594 632.912 892.282 636.496C894.97 640.016 898.554 641.776 903.034 641.776ZM959.032 647.248C954.616 647.248 950.68 646.192 947.224 644.08C943.768 641.968 941.08 639.056 939.16 635.344C937.24 631.568 936.28 627.248 936.28 622.384C936.28 617.52 937.24 613.232 939.16 609.52C941.08 605.744 943.768 602.8 947.224 600.688C950.68 598.576 954.616 597.52 959.032 597.52C963.448 597.52 967.384 598.576 970.84 600.688C974.296 602.8 976.984 605.744 978.904 609.52C980.824 613.232 981.784 617.52 981.784 622.384C981.784 627.248 980.824 631.568 978.904 635.344C976.984 639.056 974.296 641.968 970.84 644.08C967.384 646.192 963.448 647.248 959.032 647.248ZM959.032 641.968C963.96 641.968 967.896 640.176 970.84 636.592C973.784 632.944 975.256 628.208 975.256 622.384C975.256 616.56 973.784 611.856 970.84 608.272C967.896 604.624 963.96 602.8 959.032 602.8C954.104 602.8 950.168 604.624 947.224 608.272C944.28 611.856 942.808 616.56 942.808 622.384C942.808 628.208 944.28 632.944 947.224 636.592C950.168 640.176 954.104 641.968 959.032 641.968ZM1012.55 647.248C1008.01 647.248 1004.04 646.224 1000.65 644.176C997.322 642.064 994.73 639.152 992.874 635.44C991.082 631.664 990.186 627.312 990.186 622.384C990.186 617.52 991.082 613.2 992.874 609.424C994.73 605.648 997.322 602.736 1000.65 600.688C1004.04 598.576 1007.95 597.52 1012.36 597.52C1015.95 597.52 1019.08 598.128 1021.77 599.344C1024.46 600.496 1027.05 602.416 1029.55 605.104C1029.93 605.488 1030.12 605.904 1030.12 606.352C1030.12 606.928 1029.87 607.408 1029.35 607.792L1028.01 609.04C1027.63 609.424 1027.18 609.616 1026.67 609.616C1026.22 609.616 1025.74 609.36 1025.23 608.848C1022.99 606.608 1020.84 605.04 1018.79 604.144C1016.81 603.248 1014.6 602.8 1012.17 602.8C1008.84 602.8 1005.99 603.728 1003.63 605.584C1001.32 607.44 999.594 609.872 998.442 612.88C997.29 615.824 996.714 618.992 996.714 622.384C996.714 625.776 997.29 628.976 998.442 631.984C999.594 634.928 1001.35 637.328 1003.72 639.184C1006.09 640.976 1009 641.872 1012.46 641.872C1015.02 641.872 1017.26 641.424 1019.18 640.528C1021.16 639.568 1023.37 637.776 1025.8 635.152C1026.31 634.64 1026.79 634.384 1027.24 634.384C1027.75 634.384 1028.2 634.576 1028.59 634.96L1029.93 636.016C1030.38 636.4 1030.6 636.848 1030.6 637.36C1030.6 637.872 1030.31 638.48 1029.74 639.184C1027.05 642.128 1024.36 644.208 1021.67 645.424C1018.99 646.64 1015.95 647.248 1012.55 647.248ZM1071.32 600.592C1071.32 599.312 1071.96 598.672 1073.24 598.672H1075.74C1077.02 598.672 1077.66 599.312 1077.66 600.592V644.08C1077.66 645.36 1077.02 646 1075.74 646H1073.72C1072.44 646 1071.8 645.36 1071.8 644.08V639.76C1070.4 642.256 1068.38 644.144 1065.76 645.424C1063.2 646.64 1060.38 647.248 1057.31 647.248C1051.55 647.248 1047.29 645.808 1044.54 642.928C1041.79 639.984 1040.41 636.208 1040.41 631.6V600.592C1040.41 599.312 1041.05 598.672 1042.33 598.672H1044.83C1046.11 598.672 1046.75 599.312 1046.75 600.592V630.256C1046.75 634.032 1047.68 636.912 1049.53 638.896C1051.45 640.816 1054.17 641.776 1057.69 641.776C1061.66 641.776 1064.92 640.56 1067.48 638.128C1070.04 635.696 1071.32 632.24 1071.32 627.76V600.592ZM1139.98 597.52C1145.1 597.52 1149.01 598.992 1151.69 601.936C1154.45 604.816 1155.82 608.528 1155.82 613.072V644.08C1155.82 645.36 1155.18 646 1153.9 646H1151.41C1150.13 646 1149.49 645.36 1149.49 644.08V614.8C1149.49 610.96 1148.59 608.016 1146.8 605.968C1145.07 603.92 1142.48 602.896 1139.02 602.896C1135.37 602.896 1132.46 604.112 1130.29 606.544C1128.11 608.976 1127.02 612.112 1127.02 615.952V644.08C1127.02 645.36 1126.38 646 1125.1 646H1122.61C1121.33 646 1120.69 645.36 1120.69 644.08V614.8C1120.69 610.96 1119.79 608.016 1118 605.968C1116.27 603.92 1113.65 602.896 1110.13 602.896C1106.86 602.896 1104.14 603.92 1101.97 605.968C1099.85 608.016 1098.61 610.704 1098.22 614.032V644.08C1098.22 645.36 1097.58 646 1096.3 646H1093.81C1092.53 646 1091.89 645.36 1091.89 644.08V600.592C1091.89 599.312 1092.53 598.672 1093.81 598.672H1095.92C1097.2 598.672 1097.84 599.312 1097.84 600.592V604.528C1100.72 599.856 1105.29 597.52 1111.57 597.52C1114.83 597.52 1117.61 598.256 1119.92 599.728C1122.29 601.136 1124.05 603.056 1125.2 605.488C1128.59 600.176 1133.52 597.52 1139.98 597.52ZM1204.26 634.768C1204.7 634.32 1205.18 634.096 1205.7 634.096C1206.14 634.096 1206.56 634.288 1206.94 634.672L1208.19 635.824C1208.64 636.272 1208.86 636.752 1208.86 637.264C1208.86 637.648 1208.67 638.096 1208.29 638.608C1205.15 641.744 1202.11 643.984 1199.17 645.328C1196.22 646.608 1192.93 647.248 1189.28 647.248C1184.67 647.248 1180.67 646.224 1177.28 644.176C1173.89 642.128 1171.26 639.28 1169.41 635.632C1167.55 631.92 1166.62 627.632 1166.62 622.768C1166.62 617.84 1167.52 613.488 1169.31 609.712C1171.17 605.872 1173.76 602.896 1177.09 600.784C1180.42 598.608 1184.26 597.52 1188.61 597.52C1195.07 597.52 1200.16 599.536 1203.87 603.568C1207.58 607.6 1209.44 613.04 1209.44 619.888V621.04C1209.38 621.616 1209.15 622.064 1208.77 622.384C1208.45 622.704 1208 622.864 1207.42 622.864H1173.06C1173.25 628.24 1174.66 632.784 1177.28 636.496C1179.97 640.144 1183.97 641.968 1189.28 641.968C1192.16 641.968 1194.69 641.456 1196.86 640.432C1199.1 639.344 1201.57 637.456 1204.26 634.768ZM1188.61 602.8C1184.38 602.8 1180.9 604.112 1178.14 606.736C1175.46 609.296 1173.82 613.072 1173.25 618.064H1203.1C1202.98 613.392 1201.63 609.68 1199.07 606.928C1196.51 604.176 1193.02 602.8 1188.61 602.8ZM1241.91 597.52C1247.48 597.52 1251.67 599.056 1254.49 602.128C1257.37 605.2 1258.81 609.04 1258.81 613.648V644.08C1258.81 645.36 1258.17 646 1256.89 646H1254.39C1253.11 646 1252.47 645.36 1252.47 644.08V615.76C1252.47 611.536 1251.45 608.336 1249.4 606.16C1247.35 603.984 1244.41 602.896 1240.57 602.896C1238.14 602.896 1235.9 603.504 1233.85 604.72C1231.8 605.872 1230.17 607.472 1228.95 609.52C1227.74 611.568 1227.13 613.808 1227.13 616.24V644.08C1227.13 645.36 1226.49 646 1225.21 646H1222.71C1221.43 646 1220.79 645.36 1220.79 644.08V600.592C1220.79 599.312 1221.43 598.672 1222.71 598.672H1224.82C1226.1 598.672 1226.74 599.312 1226.74 600.592V605.2C1228.34 602.64 1230.46 600.72 1233.08 599.44C1235.7 598.16 1238.65 597.52 1241.91 597.52ZM1292.82 640.72C1293.01 640.656 1293.27 640.624 1293.59 640.624C1293.97 640.624 1294.33 640.752 1294.65 641.008C1294.97 641.264 1295.16 641.616 1295.22 642.064L1295.51 643.408C1295.57 643.536 1295.61 643.76 1295.61 644.08C1295.61 644.976 1295.13 645.52 1294.17 645.712C1291.86 646.416 1289.4 646.768 1286.77 646.768C1282.61 646.768 1279.64 645.84 1277.85 643.984C1276.12 642.064 1275.25 639.312 1275.25 635.728V603.472H1268.15C1266.87 603.472 1266.23 602.832 1266.23 601.552V600.592C1266.23 599.312 1266.87 598.672 1268.15 598.672H1275.25V584.08C1275.25 582.8 1275.89 582.16 1277.17 582.16H1279.67C1280.95 582.16 1281.59 582.8 1281.59 584.08V598.672H1293.11C1294.39 598.672 1295.03 599.312 1295.03 600.592V601.552C1295.03 602.832 1294.39 603.472 1293.11 603.472H1281.59V634.96C1281.59 637.328 1282.04 638.992 1282.93 639.952C1283.83 640.912 1285.37 641.392 1287.54 641.392C1289.08 641.392 1290.84 641.168 1292.82 640.72ZM1323.03 597.52C1328.86 597.52 1333.4 598.928 1336.66 601.744C1339.93 604.496 1341.56 608.144 1341.56 612.688V644.08C1341.56 645.36 1340.92 646 1339.64 646H1337.72C1336.44 646 1335.8 645.36 1335.8 644.08V639.76C1334.2 642.32 1331.93 644.24 1328.98 645.52C1326.1 646.8 1322.87 647.44 1319.29 647.44C1314.3 647.44 1310.23 646.384 1307.1 644.272C1303.96 642.16 1302.39 638.896 1302.39 634.48C1302.39 630.96 1303.38 628.144 1305.37 626.032C1307.35 623.856 1309.94 622.224 1313.14 621.136C1316.34 619.984 1320.34 618.96 1325.14 618.064L1335.51 616.24V613.168C1335.51 609.904 1334.39 607.376 1332.15 605.584C1329.91 603.728 1326.97 602.8 1323.32 602.8C1320.57 602.8 1318.07 603.312 1315.83 604.336C1313.59 605.36 1311.19 607.12 1308.63 609.616C1308.18 610.064 1307.7 610.288 1307.19 610.288C1306.74 610.288 1306.33 610.096 1305.94 609.712L1304.7 608.56C1304.25 608.112 1304.02 607.632 1304.02 607.12C1304.02 606.544 1304.25 606.032 1304.7 605.584C1307.38 602.768 1310.2 600.72 1313.14 599.44C1316.15 598.16 1319.45 597.52 1323.03 597.52ZM1319.58 642.16C1324.18 642.16 1327.99 640.944 1331 638.512C1334.01 636.08 1335.51 632.976 1335.51 629.2V621.136L1326.58 622.864C1322.42 623.696 1319.13 624.496 1316.7 625.264C1314.26 626.032 1312.31 627.152 1310.84 628.624C1309.37 630.096 1308.63 632.016 1308.63 634.384C1308.63 636.816 1309.59 638.736 1311.51 640.144C1313.5 641.488 1316.18 642.16 1319.58 642.16ZM1375.6 640.72C1375.8 640.656 1376.05 640.624 1376.37 640.624C1376.76 640.624 1377.11 640.752 1377.43 641.008C1377.75 641.264 1377.94 641.616 1378 642.064L1378.29 643.408C1378.36 643.536 1378.39 643.76 1378.39 644.08C1378.39 644.976 1377.91 645.52 1376.95 645.712C1374.64 646.416 1372.18 646.768 1369.56 646.768C1365.4 646.768 1362.42 645.84 1360.63 643.984C1358.9 642.064 1358.04 639.312 1358.04 635.728V603.472H1350.93C1349.65 603.472 1349.01 602.832 1349.01 601.552V600.592C1349.01 599.312 1349.65 598.672 1350.93 598.672H1358.04V584.08C1358.04 582.8 1358.68 582.16 1359.96 582.16H1362.45C1363.73 582.16 1364.37 582.8 1364.37 584.08V598.672H1375.89C1377.17 598.672 1377.81 599.312 1377.81 600.592V601.552C1377.81 602.832 1377.17 603.472 1375.89 603.472H1364.37V634.96C1364.37 637.328 1364.82 638.992 1365.72 639.952C1366.61 640.912 1368.15 641.392 1370.32 641.392C1371.86 641.392 1373.62 641.168 1375.6 640.72ZM1390.65 586.672C1389.37 586.672 1388.28 586.224 1387.38 585.328C1386.55 584.432 1386.14 583.344 1386.14 582.064C1386.14 580.784 1386.55 579.728 1387.38 578.896C1388.28 578.064 1389.37 577.648 1390.65 577.648C1391.99 577.648 1393.08 578.064 1393.91 578.896C1394.81 579.728 1395.26 580.784 1395.26 582.064C1395.26 583.344 1394.81 584.432 1393.91 585.328C1393.08 586.224 1391.99 586.672 1390.65 586.672ZM1389.4 646C1388.12 646 1387.48 645.36 1387.48 644.08V600.592C1387.48 599.312 1388.12 598.672 1389.4 598.672H1391.9C1393.18 598.672 1393.82 599.312 1393.82 600.592V644.08C1393.82 645.36 1393.18 646 1391.9 646H1389.4ZM1427.5 647.248C1423.08 647.248 1419.15 646.192 1415.69 644.08C1412.24 641.968 1409.55 639.056 1407.63 635.344C1405.71 631.568 1404.75 627.248 1404.75 622.384C1404.75 617.52 1405.71 613.232 1407.63 609.52C1409.55 605.744 1412.24 602.8 1415.69 600.688C1419.15 598.576 1423.08 597.52 1427.5 597.52C1431.92 597.52 1435.85 598.576 1439.31 600.688C1442.76 602.8 1445.45 605.744 1447.37 609.52C1449.29 613.232 1450.25 617.52 1450.25 622.384C1450.25 627.248 1449.29 631.568 1447.37 635.344C1445.45 639.056 1442.76 641.968 1439.31 644.08C1435.85 646.192 1431.92 647.248 1427.5 647.248ZM1427.5 641.968C1432.43 641.968 1436.36 640.176 1439.31 636.592C1442.25 632.944 1443.72 628.208 1443.72 622.384C1443.72 616.56 1442.25 611.856 1439.31 608.272C1436.36 604.624 1432.43 602.8 1427.5 602.8C1422.57 602.8 1418.64 604.624 1415.69 608.272C1412.75 611.856 1411.28 616.56 1411.28 622.384C1411.28 628.208 1412.75 632.944 1415.69 636.592C1418.64 640.176 1422.57 641.968 1427.5 641.968ZM1482.38 597.52C1487.95 597.52 1492.14 599.056 1494.96 602.128C1497.84 605.2 1499.28 609.04 1499.28 613.648V644.08C1499.28 645.36 1498.64 646 1497.36 646H1494.86C1493.58 646 1492.94 645.36 1492.94 644.08V615.76C1492.94 611.536 1491.92 608.336 1489.87 606.16C1487.82 603.984 1484.88 602.896 1481.04 602.896C1478.6 602.896 1476.36 603.504 1474.32 604.72C1472.27 605.872 1470.64 607.472 1469.42 609.52C1468.2 611.568 1467.6 613.808 1467.6 616.24V644.08C1467.6 645.36 1466.96 646 1465.68 646H1463.18C1461.9 646 1461.26 645.36 1461.26 644.08V600.592C1461.26 599.312 1461.9 598.672 1463.18 598.672H1465.29C1466.57 598.672 1467.21 599.312 1467.21 600.592V605.2C1468.81 602.64 1470.92 600.72 1473.55 599.44C1476.17 598.16 1479.12 597.52 1482.38 597.52Z" fill="white"/>
<rect x="8" y="8" width="1904" height="1064" stroke="white" stroke-width="16"/>
</svg>
