<svg width="1920" height="1080" viewBox="0 0 1920 1080" fill="none" xmlns="http://www.w3.org/2000/svg">
<g clip-path="url(#clip0_1143_13627)">
<rect width="1920" height="1080" fill="white"/>
<rect x="8" y="8" width="1904" height="1064" fill="#0063FB" stroke="white" stroke-width="16"/>
<rect x="1737.69" y="898.451" width="166" height="166" fill="#38BDF8"/>
<path d="M1915.69 1076.49H1725.6V886.013H1915.69V1076.49ZM1738.04 1064.03H1903.18V898.555H1738.04V1064.03Z" fill="white"/>
<path d="M1827.59 809.549C1869.26 809.549 1903.18 843.533 1903.18 885.285V886.094H1826.78V809.549H1827.59ZM1827.59 797.007H1814.35V898.474H1915.61V885.204C1915.61 836.493 1876.21 797.007 1827.59 797.007Z" fill="white"/>
<path d="M1649.21 992.659L1720.43 1064.03H1649.21V992.659ZM1649.21 975.019H1636.77V1076.49H1738.04V1064.03L1649.21 975.019Z" fill="white"/>
<path d="M1725.6 987.48V1064.03H1649.21V987.48H1725.6ZM1738.04 975.019H1636.77V1076.49H1738.04V975.019Z" fill="white"/>
<path d="M1559.49 952.121L1505.55 1006.17L1451.6 952.121L1505.55 898.07L1559.49 952.121ZM1577.09 952.121L1505.55 880.43L1434 952.121L1505.55 1023.81L1577.09 952.121Z" fill="white"/>
<path d="M1700.69 850.451H1622.69V772.451H1700.69V850.451Z" fill="#BAE6FD"/>
<path d="M1623.61 773.461H1699.92V849.925H1623.61V773.461ZM1611.09 761V862.386H1712.28V761H1611.09Z" fill="white"/>
<path fill-rule="evenodd" clip-rule="evenodd" d="M181.281 163.915H165.717C164.746 163.915 163.957 164.696 163.957 165.656V214.344C163.957 215.304 164.746 216.086 165.717 216.086H216.69V198.946C216.69 179.63 200.805 163.915 181.281 163.915Z" fill="#0063FB"/>
<path fill-rule="evenodd" clip-rule="evenodd" d="M328.283 163.915H222.406C221.436 163.915 220.646 164.696 220.646 165.656V216.085H328.283C329.253 216.085 330.043 215.304 330.043 214.344V165.656C330.043 164.696 329.253 163.915 328.283 163.915Z" fill="#06BEFB"/>
<path fill-rule="evenodd" clip-rule="evenodd" d="M163.957 214.344V165.656C163.957 164.696 164.747 163.915 165.717 163.915H181.281C200.805 163.915 216.689 179.63 216.689 198.946V216.085H165.717C164.747 216.085 163.957 215.304 163.957 214.344ZM330.043 214.344C330.043 215.304 329.253 216.085 328.283 216.085H220.646V165.656C220.646 164.696 221.436 163.915 222.407 163.915H328.283C329.253 163.915 330.043 164.696 330.043 165.656V214.344ZM328.283 160H222.407C219.254 160 216.689 162.537 216.689 165.656V181.939C210.296 168.963 196.827 160 181.281 160H165.717C162.565 160 160 162.537 160 165.656V214.344C160 217.463 162.565 220 165.717 220H328.283C331.435 220 334 217.463 334 214.344V165.656C334 162.537 331.435 160 328.283 160Z" fill="white"/>
<path fill-rule="evenodd" clip-rule="evenodd" d="M238.503 179.828H252.76C253.379 179.828 253.881 180.325 253.881 180.938V184.418C253.881 185.031 253.379 185.528 252.76 185.528H243.618V190.12H250.897C251.516 190.12 252.018 190.617 252.018 191.229V194.193C252.018 194.805 251.516 195.302 250.897 195.302H243.618V199.062C243.618 199.675 243.115 200.172 242.496 200.172H238.503C237.883 200.172 237.381 199.675 237.381 199.062V180.938C237.381 180.325 237.883 179.828 238.503 179.828ZM260.092 179.828H264.085C264.704 179.828 265.207 180.325 265.207 180.938V199.062C265.207 199.675 264.704 200.172 264.085 200.172H260.092C259.472 200.172 258.97 199.675 258.97 199.062V180.938C258.97 180.325 259.472 179.828 260.092 179.828ZM312.187 179.828H308.193C307.574 179.828 307.072 180.325 307.072 180.938V189.825L300.828 180.491C300.551 180.077 300.082 179.828 299.58 179.828H296.513C295.893 179.828 295.391 180.325 295.391 180.938V199.062C295.391 199.675 295.893 200.172 296.513 200.172H300.506C301.126 200.172 301.628 199.675 301.628 199.062V190.278L307.735 199.503C308.012 199.92 308.482 200.172 308.986 200.172H312.187C312.806 200.172 313.308 199.675 313.308 199.062V180.938C313.308 180.325 312.806 179.828 312.187 179.828ZM284.142 179.828H288.136C288.755 179.828 289.258 180.325 289.258 180.938V199.062C289.258 199.675 288.755 200.172 288.136 200.172H284.935C284.431 200.172 283.961 199.92 283.685 199.503L277.577 190.278V199.062C277.577 199.675 277.075 200.172 276.456 200.172H272.462C271.843 200.172 271.34 199.675 271.34 199.062V180.938C271.34 180.325 271.843 179.828 272.462 179.828H275.53C276.031 179.828 276.5 180.077 276.777 180.491L283.021 189.825V180.938C283.021 180.325 283.523 179.828 284.142 179.828Z" fill="white"/>
<path d="M170.944 374C168.384 374 167.104 372.72 167.104 370.16V309.68C167.104 307.12 168.384 305.84 170.944 305.84H210.688C213.248 305.84 214.528 307.12 214.528 309.68V312.656C214.528 315.216 213.248 316.496 210.688 316.496H179.68V335.216H208.384C210.944 335.216 212.224 336.496 212.224 339.056V342.032C212.224 344.592 210.944 345.872 208.384 345.872H179.68V370.16C179.68 372.72 178.4 374 175.84 374H170.944ZM241.985 325.136C248.577 325.136 253.633 326.672 257.153 329.744C260.673 332.752 262.433 336.816 262.433 341.936V370.16C262.433 372.72 261.153 374 258.593 374H255.713C253.153 374 251.873 372.72 251.873 370.16V369.008C250.401 371.056 248.353 372.656 245.729 373.808C243.169 374.96 240.097 375.536 236.513 375.536C231.585 375.536 227.521 374.448 224.321 372.272C221.185 370.032 219.617 366.64 219.617 362.096C219.617 357.104 221.441 353.392 225.089 350.96C228.801 348.464 233.825 346.64 240.161 345.488L251.297 343.472V342.224C251.297 339.92 250.465 338.128 248.801 336.848C247.137 335.504 244.929 334.832 242.177 334.832C239.745 334.832 237.601 335.248 235.745 336.08C233.953 336.912 232.065 338.224 230.081 340.016C229.057 340.848 228.129 341.264 227.297 341.264C226.465 341.264 225.569 340.848 224.609 340.016L222.785 338.288C221.825 337.328 221.345 336.368 221.345 335.408C221.345 334.512 221.729 333.68 222.497 332.912C225.249 330.288 228.193 328.336 231.329 327.056C234.529 325.776 238.081 325.136 241.985 325.136ZM238.433 366.224C241.953 366.224 244.961 365.296 247.457 363.44C250.017 361.52 251.297 358.64 251.297 354.8V351.824L243.137 353.456C238.977 354.352 235.905 355.344 233.921 356.432C232.001 357.52 231.041 359.152 231.041 361.328C231.041 362.8 231.681 363.984 232.961 364.88C234.305 365.776 236.129 366.224 238.433 366.224ZM299.301 325.328C303.333 325.328 306.917 326.352 310.053 328.4C313.253 330.448 315.749 333.36 317.541 337.136C319.333 340.912 320.229 345.296 320.229 350.288C320.229 355.28 319.333 359.696 317.541 363.536C315.749 367.312 313.253 370.224 310.053 372.272C306.853 374.32 303.269 375.344 299.301 375.344C292.581 375.344 287.525 372.848 284.133 367.856V370.16C284.133 372.72 282.853 374 280.293 374H277.029C274.469 374 273.189 372.72 273.189 370.16V309.68C273.189 307.12 274.469 305.84 277.029 305.84H281.061C283.621 305.84 284.901 307.12 284.901 309.68V331.856C288.229 327.504 293.029 325.328 299.301 325.328ZM296.613 365.072C300.133 365.072 302.949 363.76 305.061 361.136C307.237 358.448 308.325 354.832 308.325 350.288C308.325 345.744 307.269 342.128 305.157 339.44C303.109 336.752 300.293 335.408 296.709 335.408C293.125 335.408 290.181 336.752 287.877 339.44C285.637 342.128 284.517 345.744 284.517 350.288C284.517 354.896 285.637 358.512 287.877 361.136C290.181 363.76 293.093 365.072 296.613 365.072ZM351.441 326.096C352.657 326.096 353.969 326.256 355.377 326.576C357.361 326.96 358.353 328.112 358.353 330.032C358.353 330.544 358.321 330.928 358.257 331.184L357.681 333.968C357.297 336.08 356.273 337.136 354.609 337.136C354.289 337.136 354.033 337.104 353.841 337.04C352.689 336.848 351.697 336.752 350.865 336.752C347.665 336.752 345.105 337.968 343.185 340.4C341.329 342.832 340.401 346.192 340.401 350.48V370.16C340.401 372.72 339.121 374 336.561 374H332.529C329.969 374 328.689 372.72 328.689 370.16V330.512C328.689 327.952 329.969 326.672 332.529 326.672H335.793C338.353 326.672 339.633 327.952 339.633 330.512V333.584C342.193 328.592 346.129 326.096 351.441 326.096ZM371.109 318.608C368.997 318.608 367.205 317.936 365.733 316.592C364.325 315.184 363.621 313.488 363.621 311.504C363.621 309.52 364.325 307.856 365.733 306.512C367.205 305.104 368.997 304.4 371.109 304.4C373.221 304.4 374.981 305.104 376.389 306.512C377.861 307.856 378.597 309.52 378.597 311.504C378.597 313.488 377.861 315.184 376.389 316.592C374.981 317.936 373.221 318.608 371.109 318.608ZM368.997 374C366.437 374 365.157 372.72 365.157 370.16V330.512C365.157 327.952 366.437 326.672 368.997 326.672H373.029C375.589 326.672 376.869 327.952 376.869 330.512V370.16C376.869 372.72 375.589 374 373.029 374H368.997ZM409.255 375.536C404.519 375.536 400.327 374.512 396.679 372.464C393.095 370.416 390.279 367.504 388.231 363.728C386.247 359.888 385.255 355.408 385.255 350.288C385.255 345.168 386.279 340.72 388.327 336.944C390.375 333.104 393.223 330.192 396.871 328.208C400.583 326.16 404.807 325.136 409.543 325.136C412.871 325.136 415.879 325.616 418.567 326.576C421.319 327.536 423.975 329.136 426.535 331.376C427.495 332.208 427.975 333.104 427.975 334.064C427.975 335.024 427.495 335.952 426.535 336.848L424.615 338.768C423.783 339.6 422.919 340.016 422.023 340.016C421.191 340.016 420.199 339.6 419.047 338.768C417.255 337.36 415.623 336.4 414.151 335.888C412.743 335.376 411.207 335.12 409.543 335.12C405.639 335.12 402.599 336.56 400.423 339.44C398.247 342.32 397.159 345.936 397.159 350.288C397.159 354.64 398.215 358.288 400.327 361.232C402.503 364.112 405.543 365.552 409.447 365.552C411.367 365.552 413.095 365.2 414.631 364.496C416.231 363.728 417.927 362.48 419.719 360.752C420.679 359.792 421.671 359.312 422.695 359.312C423.527 359.312 424.391 359.696 425.287 360.464L427.207 362.096C428.167 362.864 428.647 363.792 428.647 364.88C428.647 365.968 428.071 367.088 426.919 368.24C424.295 370.928 421.575 372.816 418.759 373.904C416.007 374.992 412.839 375.536 409.255 375.536ZM489.273 375.632C482.425 375.632 476.441 374.096 471.321 371.024C466.265 367.888 462.393 363.6 459.705 358.16C457.017 352.72 455.673 346.576 455.673 339.728C455.673 332.944 456.985 326.864 459.609 321.488C462.297 316.112 466.169 311.888 471.225 308.816C476.345 305.744 482.425 304.208 489.465 304.208C493.881 304.208 497.785 304.816 501.177 306.032C504.633 307.184 508.089 309.104 511.545 311.792C512.569 312.624 513.081 313.552 513.081 314.576C513.081 315.472 512.729 316.368 512.025 317.264L509.625 320.144C508.793 321.168 507.865 321.68 506.841 321.68C506.073 321.68 505.177 321.328 504.153 320.624C501.465 318.576 498.969 317.168 496.665 316.4C494.425 315.632 491.993 315.248 489.369 315.248C485.145 315.248 481.465 316.272 478.329 318.32C475.193 320.368 472.761 323.248 471.033 326.96C469.369 330.672 468.537 334.96 468.537 339.824C468.537 344.752 469.369 349.104 471.033 352.88C472.761 356.592 475.161 359.472 478.233 361.52C481.369 363.568 484.985 364.592 489.081 364.592C492.153 364.592 494.873 364.08 497.241 363.056C499.609 362.032 502.264 360.368 505.208 358.064C506.169 357.296 507.065 356.912 507.897 356.912C508.921 356.912 509.849 357.424 510.681 358.448L513.177 361.232C513.881 362 514.233 362.864 514.233 363.824C514.233 364.848 513.657 365.904 512.505 366.992C508.857 370 505.209 372.208 501.561 373.616C497.913 374.96 493.817 375.632 489.273 375.632ZM548.586 375.632C543.21 375.632 538.442 374.864 534.282 373.328C530.186 371.792 525.962 369.232 521.61 365.648C520.522 364.752 519.978 363.792 519.978 362.768C519.978 361.936 520.362 361.104 521.13 360.272L523.626 357.296C524.458 356.272 525.418 355.76 526.506 355.76C527.402 355.76 528.298 356.112 529.194 356.816C532.906 359.76 536.202 361.808 539.082 362.96C541.962 364.048 545.194 364.592 548.778 364.592C552.938 364.592 556.298 363.728 558.858 362C561.418 360.208 562.698 357.744 562.698 354.608C562.698 352.624 562.122 351.088 560.97 350C559.818 348.848 558.25 347.952 556.266 347.312C554.346 346.672 551.434 345.904 547.53 345.008L545.034 344.432C538.954 342.96 534.25 341.392 530.922 339.728C527.594 338 525.194 335.952 523.722 333.584C522.314 331.152 521.61 328.112 521.61 324.464C521.61 320.624 522.698 317.2 524.874 314.192C527.05 311.12 530.09 308.72 533.994 306.992C537.898 305.2 542.346 304.304 547.338 304.304C552.202 304.304 556.458 304.944 560.106 306.224C563.818 307.44 567.53 309.456 571.242 312.272C572.33 313.104 572.874 314.064 572.874 315.152C572.874 316.112 572.522 316.976 571.818 317.744L569.322 320.72C568.49 321.744 567.594 322.256 566.634 322.256C565.738 322.256 564.81 321.872 563.85 321.104C560.906 318.864 558.186 317.328 555.69 316.496C553.258 315.664 550.41 315.248 547.146 315.248C543.178 315.248 540.01 316.08 537.642 317.744C535.274 319.408 534.09 321.52 534.09 324.08C534.09 325.936 534.666 327.408 535.818 328.496C536.97 329.52 538.634 330.416 540.81 331.184C543.05 331.888 546.474 332.752 551.082 333.776C556.97 335.184 561.61 336.688 565.002 338.288C568.394 339.824 570.922 341.808 572.586 344.24C574.314 346.672 575.178 349.808 575.178 353.648C575.178 357.936 574.09 361.744 571.914 365.072C569.738 368.4 566.634 370.992 562.602 372.848C558.634 374.704 553.962 375.632 548.586 375.632ZM610.18 375.632C604.804 375.632 600.036 374.864 595.876 373.328C591.78 371.792 587.556 369.232 583.204 365.648C582.116 364.752 581.572 363.792 581.572 362.768C581.572 361.936 581.956 361.104 582.724 360.272L585.22 357.296C586.052 356.272 587.012 355.76 588.1 355.76C588.996 355.76 589.892 356.112 590.788 356.816C594.5 359.76 597.796 361.808 600.676 362.96C603.556 364.048 606.788 364.592 610.372 364.592C614.532 364.592 617.892 363.728 620.452 362C623.012 360.208 624.292 357.744 624.292 354.608C624.292 352.624 623.716 351.088 622.564 350C621.412 348.848 619.844 347.952 617.86 347.312C615.94 346.672 613.028 345.904 609.124 345.008L606.628 344.432C600.548 342.96 595.844 341.392 592.516 339.728C589.188 338 586.788 335.952 585.316 333.584C583.908 331.152 583.204 328.112 583.204 324.464C583.204 320.624 584.292 317.2 586.468 314.192C588.644 311.12 591.684 308.72 595.588 306.992C599.492 305.2 603.94 304.304 608.932 304.304C613.796 304.304 618.052 304.944 621.7 306.224C625.412 307.44 629.124 309.456 632.836 312.272C633.924 313.104 634.468 314.064 634.468 315.152C634.468 316.112 634.116 316.976 633.412 317.744L630.916 320.72C630.084 321.744 629.188 322.256 628.228 322.256C627.332 322.256 626.404 321.872 625.444 321.104C622.5 318.864 619.78 317.328 617.284 316.496C614.852 315.664 612.004 315.248 608.74 315.248C604.772 315.248 601.604 316.08 599.236 317.744C596.868 319.408 595.684 321.52 595.684 324.08C595.684 325.936 596.26 327.408 597.412 328.496C598.564 329.52 600.228 330.416 602.404 331.184C604.644 331.888 608.068 332.752 612.676 333.776C618.564 335.184 623.204 336.688 626.596 338.288C629.988 339.824 632.516 341.808 634.18 344.24C635.908 346.672 636.772 349.808 636.772 353.648C636.772 357.936 635.684 361.744 633.508 365.072C631.332 368.4 628.228 370.992 624.196 372.848C620.228 374.704 615.556 375.632 610.18 375.632ZM180.4 446.84C175.16 446.84 171.26 445.62 168.7 443.18C166.14 440.7 164.86 437.24 164.86 432.8V404.6C164.86 403.8 165.26 403.4 166.06 403.4H167.92C168.72 403.4 169.12 403.8 169.12 404.6V432.5C169.12 436.02 170.08 438.68 172 440.48C173.96 442.28 176.76 443.18 180.4 443.18C184.12 443.18 186.94 442.28 188.86 440.48C190.78 438.68 191.74 436.02 191.74 432.5V404.6C191.74 403.8 192.14 403.4 192.94 403.4H194.8C195.6 403.4 196 403.8 196 404.6V432.8C196 437.24 194.72 440.7 192.16 443.18C189.6 445.62 185.68 446.84 180.4 446.84ZM215.541 446.78C213.101 446.78 210.941 446.44 209.061 445.76C207.221 445.04 205.281 443.84 203.241 442.16C202.881 441.92 202.701 441.64 202.701 441.32C202.701 441.04 202.841 440.76 203.121 440.48L203.901 439.64C204.141 439.32 204.441 439.16 204.801 439.16C205.081 439.16 205.341 439.28 205.581 439.52C207.501 441 209.201 442.04 210.681 442.64C212.161 443.2 213.781 443.48 215.541 443.48C217.741 443.48 219.541 443 220.941 442.04C222.341 441.04 223.041 439.7 223.041 438.02C223.041 436.34 222.321 435.1 220.881 434.3C219.441 433.5 217.221 432.78 214.221 432.14C211.581 431.58 209.501 431 207.981 430.4C206.501 429.76 205.401 428.96 204.681 428C203.961 427.04 203.601 425.78 203.601 424.22C203.601 421.66 204.641 419.6 206.721 418.04C208.801 416.48 211.421 415.7 214.581 415.7C216.741 415.7 218.661 415.98 220.341 416.54C222.061 417.06 223.781 417.94 225.501 419.18C225.861 419.46 226.041 419.76 226.041 420.08C226.041 420.28 225.941 420.54 225.741 420.86L225.021 421.76C224.821 422.08 224.541 422.24 224.181 422.24C223.861 422.24 223.581 422.14 223.341 421.94C221.701 420.78 220.241 420 218.961 419.6C217.721 419.2 216.301 419 214.701 419C212.501 419 210.741 419.48 209.421 420.44C208.101 421.4 207.441 422.62 207.441 424.1C207.441 425.02 207.741 425.76 208.341 426.32C208.941 426.88 209.801 427.36 210.921 427.76C212.041 428.12 213.681 428.54 215.841 429.02C219.841 429.9 222.681 430.98 224.361 432.26C226.081 433.54 226.941 435.4 226.941 437.84C226.941 440.52 225.881 442.68 223.761 444.32C221.641 445.96 218.901 446.78 215.541 446.78ZM235.619 408.92C234.819 408.92 234.139 408.64 233.579 408.08C233.059 407.52 232.799 406.84 232.799 406.04C232.799 405.24 233.059 404.58 233.579 404.06C234.139 403.54 234.819 403.28 235.619 403.28C236.459 403.28 237.139 403.54 237.659 404.06C238.219 404.58 238.499 405.24 238.499 406.04C238.499 406.84 238.219 407.52 237.659 408.08C237.139 408.64 236.459 408.92 235.619 408.92ZM234.839 446C234.039 446 233.639 445.6 233.639 444.8V417.62C233.639 416.82 234.039 416.42 234.839 416.42H236.399C237.199 416.42 237.599 416.82 237.599 417.62V444.8C237.599 445.6 237.199 446 236.399 446H234.839ZM259.613 415.7C263.093 415.7 265.713 416.66 267.473 418.58C269.273 420.5 270.173 422.9 270.173 425.78V444.8C270.173 445.6 269.773 446 268.973 446H267.413C266.613 446 266.213 445.6 266.213 444.8V427.1C266.213 424.46 265.573 422.46 264.293 421.1C263.013 419.74 261.173 419.06 258.773 419.06C257.253 419.06 255.853 419.44 254.573 420.2C253.293 420.92 252.273 421.92 251.513 423.2C250.753 424.48 250.373 425.88 250.373 427.4V444.8C250.373 445.6 249.973 446 249.173 446H247.613C246.813 446 246.413 445.6 246.413 444.8V417.62C246.413 416.82 246.813 416.42 247.613 416.42H248.933C249.733 416.42 250.133 416.82 250.133 417.62V420.5C251.133 418.9 252.453 417.7 254.093 416.9C255.733 416.1 257.573 415.7 259.613 415.7ZM300.172 417.62C300.172 416.82 300.572 416.42 301.372 416.42H302.632C303.432 416.42 303.832 416.82 303.832 417.62V445.7C303.832 449.42 302.712 452.34 300.472 454.46C298.232 456.62 295.092 457.7 291.052 457.7C286.692 457.7 282.672 456.46 278.992 453.98C278.592 453.74 278.392 453.44 278.392 453.08C278.392 452.8 278.472 452.56 278.632 452.36L279.352 451.34C279.592 450.94 279.912 450.74 280.312 450.74C280.472 450.74 280.712 450.82 281.032 450.98C282.792 452.1 284.432 452.94 285.952 453.5C287.512 454.06 289.212 454.34 291.052 454.34C293.692 454.34 295.832 453.6 297.472 452.12C299.112 450.68 299.932 448.44 299.932 445.4V440.6C297.772 444.08 294.492 445.82 290.092 445.82C287.532 445.82 285.272 445.18 283.312 443.9C281.352 442.58 279.832 440.78 278.752 438.5C277.712 436.22 277.192 433.64 277.192 430.76C277.192 427.88 277.712 425.3 278.752 423.02C279.832 420.74 281.352 418.96 283.312 417.68C285.272 416.36 287.532 415.7 290.092 415.7C292.412 415.7 294.412 416.2 296.092 417.2C297.812 418.16 299.172 419.54 300.172 421.34V417.62ZM290.512 442.46C293.392 442.46 295.692 441.38 297.412 439.22C299.132 437.02 299.992 434.2 299.992 430.76C299.992 427.32 299.132 424.52 297.412 422.36C295.692 420.16 293.392 419.06 290.512 419.06C287.592 419.06 285.312 420.14 283.672 422.3C282.072 424.46 281.272 427.28 281.272 430.76C281.272 434.24 282.072 437.06 283.672 439.22C285.312 441.38 287.592 442.46 290.512 442.46ZM338.403 446C337.603 446 337.203 445.6 337.203 444.8V406.94H324.663C323.863 406.94 323.463 406.54 323.463 405.74V404.6C323.463 403.8 323.863 403.4 324.663 403.4H353.943C354.743 403.4 355.143 403.8 355.143 404.6V405.74C355.143 406.54 354.743 406.94 353.943 406.94H341.463V444.8C341.463 445.6 341.063 446 340.263 446H338.403ZM367.031 415.7C370.671 415.7 373.511 416.58 375.551 418.34C377.591 420.06 378.611 422.34 378.611 425.18V444.8C378.611 445.6 378.211 446 377.411 446H376.211C375.411 446 375.011 445.6 375.011 444.8V442.1C374.011 443.7 372.591 444.9 370.751 445.7C368.951 446.5 366.931 446.9 364.691 446.9C361.571 446.9 359.031 446.24 357.071 444.92C355.111 443.6 354.131 441.56 354.131 438.8C354.131 436.6 354.751 434.84 355.991 433.52C357.231 432.16 358.851 431.14 360.851 430.46C362.851 429.74 365.351 429.1 368.351 428.54L374.831 427.4V425.48C374.831 423.44 374.131 421.86 372.731 420.74C371.331 419.58 369.491 419 367.211 419C365.491 419 363.931 419.32 362.531 419.96C361.131 420.6 359.631 421.7 358.031 423.26C357.751 423.54 357.451 423.68 357.131 423.68C356.851 423.68 356.591 423.56 356.351 423.32L355.571 422.6C355.291 422.32 355.151 422.02 355.151 421.7C355.151 421.34 355.291 421.02 355.571 420.74C357.251 418.98 359.011 417.7 360.851 416.9C362.731 416.1 364.791 415.7 367.031 415.7ZM364.871 443.6C367.751 443.6 370.131 442.84 372.011 441.32C373.891 439.8 374.831 437.86 374.831 435.5V430.46L369.251 431.54C366.651 432.06 364.591 432.56 363.071 433.04C361.551 433.52 360.331 434.22 359.411 435.14C358.491 436.06 358.031 437.26 358.031 438.74C358.031 440.26 358.631 441.46 359.831 442.34C361.071 443.18 362.751 443.6 364.871 443.6ZM389.369 408.92C388.569 408.92 387.889 408.64 387.329 408.08C386.809 407.52 386.549 406.84 386.549 406.04C386.549 405.24 386.809 404.58 387.329 404.06C387.889 403.54 388.569 403.28 389.369 403.28C390.209 403.28 390.889 403.54 391.409 404.06C391.969 404.58 392.249 405.24 392.249 406.04C392.249 406.84 391.969 407.52 391.409 408.08C390.889 408.64 390.209 408.92 389.369 408.92ZM388.589 446C387.789 446 387.389 445.6 387.389 444.8V417.62C387.389 416.82 387.789 416.42 388.589 416.42H390.149C390.949 416.42 391.349 416.82 391.349 417.62V444.8C391.349 445.6 390.949 446 390.149 446H388.589ZM401.423 446C400.623 446 400.223 445.6 400.223 444.8V404.6C400.223 403.8 400.623 403.4 401.423 403.4H402.983C403.783 403.4 404.183 403.8 404.183 404.6V444.8C404.183 445.6 403.783 446 402.983 446H401.423ZM446.112 417.44C446.272 416.76 446.732 416.42 447.492 416.42H449.112C449.552 416.42 449.852 416.54 450.012 416.78C450.212 417.02 450.252 417.34 450.132 417.74L442.392 444.98C442.232 445.66 441.772 446 441.012 446H438.312C437.632 446 437.192 445.66 436.992 444.98L434.232 435.8C432.792 431 431.452 426.08 430.212 421.04C429.012 425.92 427.692 430.88 426.252 435.92L423.612 444.98C423.452 445.66 422.992 446 422.232 446H419.652C418.892 446 418.432 445.66 418.272 444.98L410.532 417.74C410.492 417.66 410.472 417.52 410.472 417.32C410.472 417.04 410.572 416.82 410.772 416.66C410.972 416.5 411.232 416.42 411.552 416.42H413.172C413.932 416.42 414.392 416.76 414.552 417.44L417.432 428.06C418.752 432.9 419.972 437.72 421.092 442.52C421.972 438.96 423.272 434.14 424.992 428.06L428.052 417.44C428.212 416.76 428.672 416.42 429.432 416.42H431.232C431.952 416.42 432.392 416.76 432.552 417.44L435.672 428.06C437.032 432.98 438.312 437.82 439.512 442.58C440.432 438.58 441.672 433.74 443.232 428.06L446.112 417.44ZM458.393 408.92C457.593 408.92 456.913 408.64 456.353 408.08C455.833 407.52 455.573 406.84 455.573 406.04C455.573 405.24 455.833 404.58 456.353 404.06C456.913 403.54 457.593 403.28 458.393 403.28C459.233 403.28 459.913 403.54 460.433 404.06C460.993 404.58 461.273 405.24 461.273 406.04C461.273 406.84 460.993 407.52 460.433 408.08C459.913 408.64 459.233 408.92 458.393 408.92ZM457.613 446C456.813 446 456.413 445.6 456.413 444.8V417.62C456.413 416.82 456.813 416.42 457.613 416.42H459.173C459.973 416.42 460.373 416.82 460.373 417.62V444.8C460.373 445.6 459.973 446 459.173 446H457.613ZM482.386 415.7C485.866 415.7 488.486 416.66 490.246 418.58C492.046 420.5 492.946 422.9 492.946 425.78V444.8C492.946 445.6 492.546 446 491.746 446H490.186C489.386 446 488.986 445.6 488.986 444.8V427.1C488.986 424.46 488.346 422.46 487.066 421.1C485.786 419.74 483.946 419.06 481.546 419.06C480.026 419.06 478.626 419.44 477.346 420.2C476.066 420.92 475.046 421.92 474.286 423.2C473.526 424.48 473.146 425.88 473.146 427.4V444.8C473.146 445.6 472.746 446 471.946 446H470.386C469.586 446 469.186 445.6 469.186 444.8V417.62C469.186 416.82 469.586 416.42 470.386 416.42H471.706C472.506 416.42 472.906 416.82 472.906 417.62V420.5C473.906 418.9 475.226 417.7 476.866 416.9C478.506 416.1 480.346 415.7 482.386 415.7ZM523.066 404.6C523.066 403.8 523.466 403.4 524.266 403.4H525.826C526.626 403.4 527.026 403.8 527.026 404.6V444.8C527.026 445.6 526.626 446 525.826 446H524.566C523.766 446 523.366 445.6 523.366 444.8V440.9C522.286 442.78 520.866 444.22 519.106 445.22C517.346 446.22 515.266 446.72 512.866 446.72C510.346 446.72 508.106 446.08 506.146 444.8C504.186 443.48 502.646 441.66 501.526 439.34C500.406 436.98 499.846 434.28 499.846 431.24C499.846 428.2 500.406 425.52 501.526 423.2C502.686 420.84 504.266 419.02 506.266 417.74C508.266 416.42 510.506 415.76 512.986 415.76C517.546 415.76 520.906 417.46 523.066 420.86V404.6ZM513.166 443.36C516.166 443.36 518.586 442.3 520.426 440.18C522.306 438.02 523.246 435.04 523.246 431.24C523.246 427.48 522.306 424.52 520.426 422.36C518.586 420.2 516.166 419.12 513.166 419.12C510.406 419.12 508.166 420.24 506.446 422.48C504.766 424.72 503.926 427.64 503.926 431.24C503.926 434.88 504.766 437.82 506.446 440.06C508.126 442.26 510.366 443.36 513.166 443.36ZM563.073 442.7C563.193 442.66 563.353 442.64 563.553 442.64C563.793 442.64 564.013 442.72 564.213 442.88C564.413 443.04 564.533 443.26 564.573 443.54L564.753 444.38C564.793 444.46 564.813 444.6 564.813 444.8C564.813 445.36 564.513 445.7 563.913 445.82C562.473 446.26 560.933 446.48 559.293 446.48C556.693 446.48 554.833 445.9 553.713 444.74C552.633 443.54 552.093 441.82 552.093 439.58V419.42H547.653C546.853 419.42 546.453 419.02 546.453 418.22V417.62C546.453 416.82 546.853 416.42 547.653 416.42H552.093V407.3C552.093 406.5 552.493 406.1 553.293 406.1H554.853C555.653 406.1 556.053 406.5 556.053 407.3V416.42H563.253C564.053 416.42 564.453 416.82 564.453 417.62V418.22C564.453 419.02 564.053 419.42 563.253 419.42H556.053V439.1C556.053 440.58 556.333 441.62 556.893 442.22C557.453 442.82 558.413 443.12 559.773 443.12C560.733 443.12 561.833 442.98 563.073 442.7ZM581.621 446.78C578.861 446.78 576.401 446.12 574.241 444.8C572.081 443.48 570.401 441.66 569.201 439.34C568.001 436.98 567.401 434.28 567.401 431.24C567.401 428.2 568.001 425.52 569.201 423.2C570.401 420.84 572.081 419 574.241 417.68C576.401 416.36 578.861 415.7 581.621 415.7C584.381 415.7 586.841 416.36 589.001 417.68C591.161 419 592.841 420.84 594.041 423.2C595.241 425.52 595.841 428.2 595.841 431.24C595.841 434.28 595.241 436.98 594.041 439.34C592.841 441.66 591.161 443.48 589.001 444.8C586.841 446.12 584.381 446.78 581.621 446.78ZM581.621 443.48C584.701 443.48 587.161 442.36 589.001 440.12C590.841 437.84 591.761 434.88 591.761 431.24C591.761 427.6 590.841 424.66 589.001 422.42C587.161 420.14 584.701 419 581.621 419C578.541 419 576.081 420.14 574.241 422.42C572.401 424.66 571.481 427.6 571.481 431.24C571.481 434.88 572.401 437.84 574.241 440.12C576.081 442.36 578.541 443.48 581.621 443.48ZM628.789 446.78C626.029 446.78 623.569 446.12 621.409 444.8C619.249 443.48 617.569 441.66 616.369 439.34C615.169 436.98 614.569 434.28 614.569 431.24C614.569 428.2 615.169 425.52 616.369 423.2C617.569 420.84 619.249 419 621.409 417.68C623.569 416.36 626.029 415.7 628.789 415.7C631.549 415.7 634.009 416.36 636.169 417.68C638.329 419 640.009 420.84 641.209 423.2C642.409 425.52 643.009 428.2 643.009 431.24C643.009 434.28 642.409 436.98 641.209 439.34C640.009 441.66 638.329 443.48 636.169 444.8C634.009 446.12 631.549 446.78 628.789 446.78ZM628.789 443.48C631.869 443.48 634.329 442.36 636.169 440.12C638.009 437.84 638.929 434.88 638.929 431.24C638.929 427.6 638.009 424.66 636.169 422.42C634.329 420.14 631.869 419 628.789 419C625.709 419 623.249 420.14 621.409 422.42C619.569 424.66 618.649 427.6 618.649 431.24C618.649 434.88 619.569 437.84 621.409 440.12C623.249 442.36 625.709 443.48 628.789 443.48ZM669.089 417.62C669.089 416.82 669.489 416.42 670.289 416.42H671.849C672.649 416.42 673.049 416.82 673.049 417.62V444.8C673.049 445.6 672.649 446 671.849 446H670.589C669.789 446 669.389 445.6 669.389 444.8V442.1C668.509 443.66 667.249 444.84 665.609 445.64C664.009 446.4 662.249 446.78 660.329 446.78C656.729 446.78 654.069 445.88 652.349 444.08C650.629 442.24 649.769 439.88 649.769 437V417.62C649.769 416.82 650.169 416.42 650.969 416.42H652.529C653.329 416.42 653.729 416.82 653.729 417.62V436.16C653.729 438.52 654.309 440.32 655.469 441.56C656.669 442.76 658.369 443.36 660.569 443.36C663.049 443.36 665.089 442.6 666.689 441.08C668.289 439.56 669.089 437.4 669.089 434.6V417.62ZM692.98 416.18C693.98 416.18 695.16 416.34 696.52 416.66C697.24 416.9 697.52 417.4 697.36 418.16L697.12 419.12C696.92 419.88 696.42 420.16 695.62 419.96C694.66 419.72 693.78 419.6 692.98 419.6C690.94 419.6 689.24 420.48 687.88 422.24C686.56 424 685.9 426.44 685.9 429.56V444.8C685.9 445.6 685.5 446 684.7 446H683.14C682.34 446 681.94 445.6 681.94 444.8V417.62C681.94 416.82 682.34 416.42 683.14 416.42H684.46C685.26 416.42 685.66 416.82 685.66 417.62V420.92C686.34 419.44 687.3 418.28 688.54 417.44C689.82 416.6 691.3 416.18 692.98 416.18ZM727.969 415.7C731.609 415.7 734.449 416.58 736.489 418.34C738.529 420.06 739.549 422.34 739.549 425.18V444.8C739.549 445.6 739.149 446 738.349 446H737.149C736.349 446 735.949 445.6 735.949 444.8V442.1C734.949 443.7 733.529 444.9 731.689 445.7C729.889 446.5 727.869 446.9 725.629 446.9C722.509 446.9 719.969 446.24 718.009 444.92C716.049 443.6 715.069 441.56 715.069 438.8C715.069 436.6 715.689 434.84 716.929 433.52C718.169 432.16 719.789 431.14 721.789 430.46C723.789 429.74 726.289 429.1 729.289 428.54L735.769 427.4V425.48C735.769 423.44 735.069 421.86 733.669 420.74C732.269 419.58 730.429 419 728.149 419C726.429 419 724.869 419.32 723.469 419.96C722.069 420.6 720.569 421.7 718.969 423.26C718.689 423.54 718.389 423.68 718.069 423.68C717.789 423.68 717.529 423.56 717.289 423.32L716.509 422.6C716.229 422.32 716.089 422.02 716.089 421.7C716.089 421.34 716.229 421.02 716.509 420.74C718.189 418.98 719.949 417.7 721.789 416.9C723.669 416.1 725.729 415.7 727.969 415.7ZM725.809 443.6C728.689 443.6 731.069 442.84 732.949 441.32C734.829 439.8 735.769 437.86 735.769 435.5V430.46L730.189 431.54C727.589 432.06 725.529 432.56 724.009 433.04C722.489 433.52 721.269 434.22 720.349 435.14C719.429 436.06 718.969 437.26 718.969 438.74C718.969 440.26 719.569 441.46 720.769 442.34C722.009 443.18 723.689 443.6 725.809 443.6ZM769.687 404.6C769.687 403.8 770.087 403.4 770.887 403.4H772.447C773.247 403.4 773.647 403.8 773.647 404.6V444.8C773.647 445.6 773.247 446 772.447 446H771.187C770.387 446 769.987 445.6 769.987 444.8V440.9C768.907 442.78 767.487 444.22 765.727 445.22C763.967 446.22 761.887 446.72 759.487 446.72C756.967 446.72 754.727 446.08 752.767 444.8C750.807 443.48 749.267 441.66 748.147 439.34C747.027 436.98 746.467 434.28 746.467 431.24C746.467 428.2 747.027 425.52 748.147 423.2C749.307 420.84 750.887 419.02 752.887 417.74C754.887 416.42 757.127 415.76 759.607 415.76C764.167 415.76 767.527 417.46 769.687 420.86V404.6ZM759.787 443.36C762.787 443.36 765.207 442.3 767.047 440.18C768.927 438.02 769.867 435.04 769.867 431.24C769.867 427.48 768.927 424.52 767.047 422.36C765.207 420.2 762.787 419.12 759.787 419.12C757.027 419.12 754.787 420.24 753.067 422.48C751.387 424.72 750.547 427.64 750.547 431.24C750.547 434.88 751.387 437.82 753.067 440.06C754.747 442.26 756.987 443.36 759.787 443.36ZM800.785 417.38C801.025 416.74 801.485 416.42 802.165 416.42H803.725C804.045 416.42 804.305 416.5 804.505 416.66C804.705 416.82 804.805 417.04 804.805 417.32L804.685 417.8L795.145 445.04C794.905 445.68 794.445 446 793.765 446H790.585C789.905 446 789.445 445.68 789.205 445.04L779.725 417.8L779.605 417.32C779.605 417.04 779.705 416.82 779.905 416.66C780.105 416.5 780.365 416.42 780.685 416.42H782.305C782.985 416.42 783.445 416.74 783.685 417.38L787.345 427.94C788.865 432.34 790.485 437.4 792.205 443.12C792.285 442.88 792.505 442.2 792.865 441.08C794.505 435.68 795.925 431.3 797.125 427.94L800.785 417.38ZM821.777 415.7C825.418 415.7 828.258 416.58 830.298 418.34C832.338 420.06 833.358 422.34 833.358 425.18V444.8C833.358 445.6 832.958 446 832.158 446H830.958C830.158 446 829.758 445.6 829.758 444.8V442.1C828.758 443.7 827.338 444.9 825.498 445.7C823.698 446.5 821.678 446.9 819.438 446.9C816.318 446.9 813.778 446.24 811.818 444.92C809.858 443.6 808.878 441.56 808.878 438.8C808.878 436.6 809.498 434.84 810.738 433.52C811.978 432.16 813.598 431.14 815.598 430.46C817.598 429.74 820.098 429.1 823.098 428.54L829.578 427.4V425.48C829.578 423.44 828.878 421.86 827.478 420.74C826.078 419.58 824.238 419 821.958 419C820.238 419 818.678 419.32 817.278 419.96C815.878 420.6 814.378 421.7 812.778 423.26C812.498 423.54 812.198 423.68 811.878 423.68C811.598 423.68 811.338 423.56 811.098 423.32L810.318 422.6C810.038 422.32 809.897 422.02 809.897 421.7C809.897 421.34 810.038 421.02 810.318 420.74C811.998 418.98 813.758 417.7 815.598 416.9C817.478 416.1 819.538 415.7 821.777 415.7ZM819.618 443.6C822.498 443.6 824.878 442.84 826.758 441.32C828.638 439.8 829.578 437.86 829.578 435.5V430.46L823.998 431.54C821.398 432.06 819.338 432.56 817.818 433.04C816.298 433.52 815.078 434.22 814.158 435.14C813.238 436.06 812.778 437.26 812.778 438.74C812.778 440.26 813.378 441.46 814.578 442.34C815.818 443.18 817.498 443.6 819.618 443.6ZM855.335 415.7C858.815 415.7 861.435 416.66 863.195 418.58C864.995 420.5 865.895 422.9 865.895 425.78V444.8C865.895 445.6 865.495 446 864.695 446H863.135C862.335 446 861.935 445.6 861.935 444.8V427.1C861.935 424.46 861.295 422.46 860.015 421.1C858.735 419.74 856.895 419.06 854.495 419.06C852.975 419.06 851.575 419.44 850.295 420.2C849.015 420.92 847.995 421.92 847.235 423.2C846.475 424.48 846.095 425.88 846.095 427.4V444.8C846.095 445.6 845.695 446 844.895 446H843.335C842.535 446 842.135 445.6 842.135 444.8V417.62C842.135 416.82 842.535 416.42 843.335 416.42H844.655C845.455 416.42 845.855 416.82 845.855 417.62V420.5C846.855 418.9 848.175 417.7 849.815 416.9C851.455 416.1 853.295 415.7 855.335 415.7ZM887.155 442.7C887.275 442.66 887.435 442.64 887.635 442.64C887.875 442.64 888.095 442.72 888.295 442.88C888.495 443.04 888.615 443.26 888.655 443.54L888.835 444.38C888.875 444.46 888.895 444.6 888.895 444.8C888.895 445.36 888.595 445.7 887.995 445.82C886.555 446.26 885.015 446.48 883.375 446.48C880.775 446.48 878.915 445.9 877.795 444.74C876.715 443.54 876.175 441.82 876.175 439.58V419.42H871.735C870.935 419.42 870.535 419.02 870.535 418.22V417.62C870.535 416.82 870.935 416.42 871.735 416.42H876.175V407.3C876.175 406.5 876.575 406.1 877.375 406.1H878.935C879.735 406.1 880.135 406.5 880.135 407.3V416.42H887.335C888.135 416.42 888.535 416.82 888.535 417.62V418.22C888.535 419.02 888.135 419.42 887.335 419.42H880.135V439.1C880.135 440.58 880.415 441.62 880.975 442.22C881.535 442.82 882.495 443.12 883.855 443.12C884.815 443.12 885.915 442.98 887.155 442.7ZM906.035 415.7C909.675 415.7 912.515 416.58 914.555 418.34C916.595 420.06 917.615 422.34 917.615 425.18V444.8C917.615 445.6 917.215 446 916.415 446H915.215C914.415 446 914.015 445.6 914.015 444.8V442.1C913.015 443.7 911.595 444.9 909.755 445.7C907.955 446.5 905.935 446.9 903.695 446.9C900.575 446.9 898.035 446.24 896.075 444.92C894.115 443.6 893.135 441.56 893.135 438.8C893.135 436.6 893.755 434.84 894.995 433.52C896.235 432.16 897.855 431.14 899.855 430.46C901.855 429.74 904.355 429.1 907.355 428.54L913.835 427.4V425.48C913.835 423.44 913.135 421.86 911.735 420.74C910.335 419.58 908.495 419 906.215 419C904.495 419 902.935 419.32 901.535 419.96C900.135 420.6 898.635 421.7 897.035 423.26C896.755 423.54 896.455 423.68 896.135 423.68C895.855 423.68 895.595 423.56 895.355 423.32L894.575 422.6C894.295 422.32 894.155 422.02 894.155 421.7C894.155 421.34 894.295 421.02 894.575 420.74C896.255 418.98 898.015 417.7 899.855 416.9C901.735 416.1 903.795 415.7 906.035 415.7ZM903.875 443.6C906.755 443.6 909.135 442.84 911.015 441.32C912.895 439.8 913.835 437.86 913.835 435.5V430.46L908.255 431.54C905.655 432.06 903.595 432.56 902.075 433.04C900.555 433.52 899.335 434.22 898.415 435.14C897.495 436.06 897.035 437.26 897.035 438.74C897.035 440.26 897.635 441.46 898.835 442.34C900.075 443.18 901.755 443.6 903.875 443.6ZM947.633 417.62C947.633 416.82 948.033 416.42 948.833 416.42H950.093C950.893 416.42 951.293 416.82 951.293 417.62V445.7C951.293 449.42 950.173 452.34 947.933 454.46C945.693 456.62 942.553 457.7 938.513 457.7C934.153 457.7 930.133 456.46 926.453 453.98C926.053 453.74 925.853 453.44 925.853 453.08C925.853 452.8 925.933 452.56 926.093 452.36L926.813 451.34C927.053 450.94 927.373 450.74 927.773 450.74C927.933 450.74 928.173 450.82 928.493 450.98C930.253 452.1 931.893 452.94 933.413 453.5C934.973 454.06 936.673 454.34 938.513 454.34C941.153 454.34 943.293 453.6 944.933 452.12C946.573 450.68 947.393 448.44 947.393 445.4V440.6C945.233 444.08 941.953 445.82 937.553 445.82C934.993 445.82 932.733 445.18 930.773 443.9C928.813 442.58 927.293 440.78 926.213 438.5C925.173 436.22 924.653 433.64 924.653 430.76C924.653 427.88 925.173 425.3 926.213 423.02C927.293 420.74 928.813 418.96 930.773 417.68C932.733 416.36 934.993 415.7 937.553 415.7C939.873 415.7 941.873 416.2 943.553 417.2C945.273 418.16 946.633 419.54 947.633 421.34V417.62ZM937.973 442.46C940.853 442.46 943.153 441.38 944.873 439.22C946.593 437.02 947.453 434.2 947.453 430.76C947.453 427.32 946.593 424.52 944.873 422.36C943.153 420.16 940.853 419.06 937.973 419.06C935.053 419.06 932.773 420.14 931.133 422.3C929.533 424.46 928.733 427.28 928.733 430.76C928.733 434.24 929.533 437.06 931.133 439.22C932.773 441.38 935.053 442.46 937.973 442.46ZM981.742 438.98C982.022 438.7 982.322 438.56 982.642 438.56C982.922 438.56 983.182 438.68 983.422 438.92L984.202 439.64C984.482 439.92 984.622 440.22 984.622 440.54C984.622 440.78 984.502 441.06 984.262 441.38C982.302 443.34 980.402 444.74 978.562 445.58C976.722 446.38 974.662 446.78 972.382 446.78C969.502 446.78 967.002 446.14 964.882 444.86C962.762 443.58 961.122 441.8 959.962 439.52C958.802 437.2 958.222 434.52 958.222 431.48C958.222 428.4 958.782 425.68 959.902 423.32C961.062 420.92 962.682 419.06 964.762 417.74C966.842 416.38 969.242 415.7 971.962 415.7C976.002 415.7 979.182 416.96 981.502 419.48C983.822 422 984.982 425.4 984.982 429.68V430.4C984.942 430.76 984.802 431.04 984.562 431.24C984.362 431.44 984.082 431.54 983.722 431.54H962.242C962.362 434.9 963.242 437.74 964.882 440.06C966.562 442.34 969.062 443.48 972.382 443.48C974.182 443.48 975.762 443.16 977.122 442.52C978.522 441.84 980.062 440.66 981.742 438.98ZM971.962 419C969.322 419 967.142 419.82 965.422 421.46C963.742 423.06 962.722 425.42 962.362 428.54H981.022C980.942 425.62 980.102 423.3 978.502 421.58C976.902 419.86 974.722 419 971.962 419Z" fill="white"/>
</g>
<defs>
<clipPath id="clip0_1143_13627">
<rect width="1920" height="1080" fill="white"/>
</clipPath>
</defs>
</svg>
