<svg width="1920" height="1080" viewBox="0 0 1920 1080" fill="none" xmlns="http://www.w3.org/2000/svg">
<g clip-path="url(#clip0_1143_13652)">
<rect width="1920" height="1080" fill="white"/>
<rect x="8" y="8" width="1904" height="1064" fill="#0063FB" stroke="white" stroke-width="16"/>
<rect x="1737.69" y="898.451" width="166" height="166" fill="#38BDF8"/>
<path d="M1915.69 1076.49H1725.6V886.013H1915.69V1076.49ZM1738.04 1064.03H1903.18V898.555H1738.04V1064.03Z" fill="white"/>
<path d="M1827.59 809.549C1869.26 809.549 1903.18 843.533 1903.18 885.285V886.094H1826.78V809.549H1827.59ZM1827.59 797.007H1814.35V898.474H1915.61V885.204C1915.61 836.493 1876.21 797.007 1827.59 797.007Z" fill="white"/>
<path d="M1649.21 992.659L1720.43 1064.03H1649.21V992.659ZM1649.21 975.019H1636.77V1076.49H1738.04V1064.03L1649.21 975.019Z" fill="white"/>
<path d="M1725.6 987.48V1064.03H1649.21V987.48H1725.6ZM1738.04 975.019H1636.77V1076.49H1738.04V975.019Z" fill="white"/>
<path d="M1559.49 952.121L1505.55 1006.17L1451.6 952.121L1505.55 898.07L1559.49 952.121ZM1577.09 952.121L1505.55 880.43L1434 952.121L1505.55 1023.81L1577.09 952.121Z" fill="white"/>
<path d="M1700.69 850.451H1622.69V772.451H1700.69V850.451Z" fill="#BAE6FD"/>
<path d="M1623.61 773.461H1699.92V849.925H1623.61V773.461ZM1611.09 761V862.386H1712.28V761H1611.09Z" fill="white"/>
<path fill-rule="evenodd" clip-rule="evenodd" d="M181.281 163.915H165.717C164.746 163.915 163.957 164.696 163.957 165.656V214.344C163.957 215.304 164.746 216.086 165.717 216.086H216.69V198.946C216.69 179.63 200.805 163.915 181.281 163.915Z" fill="#0063FB"/>
<path fill-rule="evenodd" clip-rule="evenodd" d="M328.283 163.915H222.406C221.436 163.915 220.646 164.696 220.646 165.656V216.085H328.283C329.253 216.085 330.043 215.304 330.043 214.344V165.656C330.043 164.696 329.253 163.915 328.283 163.915Z" fill="#06BEFB"/>
<path fill-rule="evenodd" clip-rule="evenodd" d="M163.957 214.344V165.656C163.957 164.696 164.747 163.915 165.717 163.915H181.281C200.805 163.915 216.689 179.63 216.689 198.946V216.085H165.717C164.747 216.085 163.957 215.304 163.957 214.344ZM330.043 214.344C330.043 215.304 329.253 216.085 328.283 216.085H220.646V165.656C220.646 164.696 221.436 163.915 222.407 163.915H328.283C329.253 163.915 330.043 164.696 330.043 165.656V214.344ZM328.283 160H222.407C219.254 160 216.689 162.537 216.689 165.656V181.939C210.296 168.963 196.827 160 181.281 160H165.717C162.565 160 160 162.537 160 165.656V214.344C160 217.463 162.565 220 165.717 220H328.283C331.435 220 334 217.463 334 214.344V165.656C334 162.537 331.435 160 328.283 160Z" fill="white"/>
<path fill-rule="evenodd" clip-rule="evenodd" d="M238.503 179.828H252.76C253.379 179.828 253.881 180.325 253.881 180.938V184.418C253.881 185.031 253.379 185.528 252.76 185.528H243.617V190.12H250.896C251.516 190.12 252.018 190.617 252.018 191.229V194.193C252.018 194.805 251.516 195.302 250.896 195.302H243.617V199.062C243.617 199.675 243.115 200.172 242.496 200.172H238.503C237.883 200.172 237.381 199.675 237.381 199.062V180.938C237.381 180.325 237.883 179.828 238.503 179.828ZM260.092 179.828H264.085C264.704 179.828 265.206 180.325 265.206 180.938V199.062C265.206 199.675 264.704 200.172 264.085 200.172H260.092C259.472 200.172 258.97 199.675 258.97 199.062V180.938C258.97 180.325 259.472 179.828 260.092 179.828ZM312.187 179.828H308.193C307.574 179.828 307.072 180.325 307.072 180.938V189.825L300.828 180.491C300.55 180.077 300.082 179.828 299.58 179.828H296.513C295.893 179.828 295.391 180.325 295.391 180.938V199.062C295.391 199.675 295.893 200.172 296.513 200.172H300.506C301.126 200.172 301.627 199.675 301.627 199.062V190.278L307.735 199.503C308.011 199.92 308.482 200.172 308.986 200.172H312.187C312.806 200.172 313.308 199.675 313.308 199.062V180.938C313.308 180.325 312.806 179.828 312.187 179.828ZM284.142 179.828H288.136C288.755 179.828 289.257 180.325 289.257 180.938V199.062C289.257 199.675 288.755 200.172 288.136 200.172H284.935C284.431 200.172 283.961 199.92 283.684 199.503L277.577 190.278V199.062C277.577 199.675 277.074 200.172 276.455 200.172H272.462C271.842 200.172 271.34 199.675 271.34 199.062V180.938C271.34 180.325 271.842 179.828 272.462 179.828H275.529C276.031 179.828 276.5 180.077 276.777 180.491L283.021 189.825V180.938C283.021 180.325 283.523 179.828 284.142 179.828Z" fill="white"/>
<path d="M170.944 374C168.384 374 167.104 372.72 167.104 370.16V309.68C167.104 307.12 168.384 305.84 170.944 305.84H210.688C213.248 305.84 214.528 307.12 214.528 309.68V312.656C214.528 315.216 213.248 316.496 210.688 316.496H179.68V335.216H208.384C210.944 335.216 212.224 336.496 212.224 339.056V342.032C212.224 344.592 210.944 345.872 208.384 345.872H179.68V370.16C179.68 372.72 178.4 374 175.84 374H170.944ZM241.985 325.136C248.577 325.136 253.633 326.672 257.153 329.744C260.673 332.752 262.433 336.816 262.433 341.936V370.16C262.433 372.72 261.153 374 258.593 374H255.713C253.153 374 251.873 372.72 251.873 370.16V369.008C250.401 371.056 248.353 372.656 245.729 373.808C243.169 374.96 240.097 375.536 236.513 375.536C231.585 375.536 227.521 374.448 224.321 372.272C221.185 370.032 219.617 366.64 219.617 362.096C219.617 357.104 221.441 353.392 225.089 350.96C228.801 348.464 233.825 346.64 240.161 345.488L251.297 343.472V342.224C251.297 339.92 250.465 338.128 248.801 336.848C247.137 335.504 244.929 334.832 242.177 334.832C239.745 334.832 237.601 335.248 235.745 336.08C233.953 336.912 232.065 338.224 230.081 340.016C229.057 340.848 228.129 341.264 227.297 341.264C226.465 341.264 225.569 340.848 224.609 340.016L222.785 338.288C221.825 337.328 221.345 336.368 221.345 335.408C221.345 334.512 221.729 333.68 222.497 332.912C225.249 330.288 228.193 328.336 231.329 327.056C234.529 325.776 238.081 325.136 241.985 325.136ZM238.433 366.224C241.953 366.224 244.961 365.296 247.457 363.44C250.017 361.52 251.297 358.64 251.297 354.8V351.824L243.137 353.456C238.977 354.352 235.905 355.344 233.921 356.432C232.001 357.52 231.041 359.152 231.041 361.328C231.041 362.8 231.681 363.984 232.961 364.88C234.305 365.776 236.129 366.224 238.433 366.224ZM299.301 325.328C303.333 325.328 306.917 326.352 310.053 328.4C313.253 330.448 315.749 333.36 317.541 337.136C319.333 340.912 320.229 345.296 320.229 350.288C320.229 355.28 319.333 359.696 317.541 363.536C315.749 367.312 313.253 370.224 310.053 372.272C306.853 374.32 303.269 375.344 299.301 375.344C292.581 375.344 287.525 372.848 284.133 367.856V370.16C284.133 372.72 282.853 374 280.293 374H277.029C274.469 374 273.189 372.72 273.189 370.16V309.68C273.189 307.12 274.469 305.84 277.029 305.84H281.061C283.621 305.84 284.901 307.12 284.901 309.68V331.856C288.229 327.504 293.029 325.328 299.301 325.328ZM296.613 365.072C300.133 365.072 302.949 363.76 305.061 361.136C307.237 358.448 308.325 354.832 308.325 350.288C308.325 345.744 307.269 342.128 305.157 339.44C303.109 336.752 300.293 335.408 296.709 335.408C293.125 335.408 290.181 336.752 287.877 339.44C285.637 342.128 284.517 345.744 284.517 350.288C284.517 354.896 285.637 358.512 287.877 361.136C290.181 363.76 293.093 365.072 296.613 365.072ZM351.441 326.096C352.657 326.096 353.969 326.256 355.377 326.576C357.361 326.96 358.353 328.112 358.353 330.032C358.353 330.544 358.321 330.928 358.257 331.184L357.681 333.968C357.297 336.08 356.273 337.136 354.609 337.136C354.289 337.136 354.033 337.104 353.841 337.04C352.689 336.848 351.697 336.752 350.865 336.752C347.665 336.752 345.105 337.968 343.185 340.4C341.329 342.832 340.401 346.192 340.401 350.48V370.16C340.401 372.72 339.121 374 336.561 374H332.529C329.969 374 328.689 372.72 328.689 370.16V330.512C328.689 327.952 329.969 326.672 332.529 326.672H335.793C338.353 326.672 339.633 327.952 339.633 330.512V333.584C342.193 328.592 346.129 326.096 351.441 326.096ZM371.109 318.608C368.997 318.608 367.205 317.936 365.733 316.592C364.325 315.184 363.621 313.488 363.621 311.504C363.621 309.52 364.325 307.856 365.733 306.512C367.205 305.104 368.997 304.4 371.109 304.4C373.221 304.4 374.981 305.104 376.389 306.512C377.861 307.856 378.597 309.52 378.597 311.504C378.597 313.488 377.861 315.184 376.389 316.592C374.981 317.936 373.221 318.608 371.109 318.608ZM368.997 374C366.437 374 365.157 372.72 365.157 370.16V330.512C365.157 327.952 366.437 326.672 368.997 326.672H373.029C375.589 326.672 376.869 327.952 376.869 330.512V370.16C376.869 372.72 375.589 374 373.029 374H368.997ZM409.255 375.536C404.519 375.536 400.327 374.512 396.679 372.464C393.095 370.416 390.279 367.504 388.231 363.728C386.247 359.888 385.255 355.408 385.255 350.288C385.255 345.168 386.279 340.72 388.327 336.944C390.375 333.104 393.223 330.192 396.871 328.208C400.583 326.16 404.807 325.136 409.543 325.136C412.871 325.136 415.879 325.616 418.567 326.576C421.319 327.536 423.975 329.136 426.535 331.376C427.495 332.208 427.975 333.104 427.975 334.064C427.975 335.024 427.495 335.952 426.535 336.848L424.615 338.768C423.783 339.6 422.919 340.016 422.023 340.016C421.191 340.016 420.199 339.6 419.047 338.768C417.255 337.36 415.623 336.4 414.151 335.888C412.743 335.376 411.207 335.12 409.543 335.12C405.639 335.12 402.599 336.56 400.423 339.44C398.247 342.32 397.159 345.936 397.159 350.288C397.159 354.64 398.215 358.288 400.327 361.232C402.503 364.112 405.543 365.552 409.447 365.552C411.367 365.552 413.095 365.2 414.631 364.496C416.231 363.728 417.927 362.48 419.719 360.752C420.679 359.792 421.671 359.312 422.695 359.312C423.527 359.312 424.391 359.696 425.287 360.464L427.207 362.096C428.167 362.864 428.647 363.792 428.647 364.88C428.647 365.968 428.071 367.088 426.919 368.24C424.295 370.928 421.575 372.816 418.759 373.904C416.007 374.992 412.839 375.536 409.255 375.536ZM479.193 375.536C474.457 375.536 470.265 374.512 466.617 372.464C463.033 370.416 460.217 367.504 458.169 363.728C456.185 359.888 455.193 355.408 455.193 350.288C455.193 345.168 456.217 340.72 458.265 336.944C460.313 333.104 463.161 330.192 466.809 328.208C470.521 326.16 474.745 325.136 479.481 325.136C482.809 325.136 485.817 325.616 488.505 326.576C491.257 327.536 493.913 329.136 496.473 331.376C497.433 332.208 497.913 333.104 497.913 334.064C497.913 335.024 497.433 335.952 496.473 336.848L494.553 338.768C493.721 339.6 492.857 340.016 491.961 340.016C491.129 340.016 490.137 339.6 488.985 338.768C487.193 337.36 485.561 336.4 484.089 335.888C482.681 335.376 481.145 335.12 479.481 335.12C475.577 335.12 472.537 336.56 470.361 339.44C468.185 342.32 467.097 345.936 467.097 350.288C467.097 354.64 468.153 358.288 470.265 361.232C472.441 364.112 475.481 365.552 479.385 365.552C481.305 365.552 483.033 365.2 484.569 364.496C486.169 363.728 487.865 362.48 489.657 360.752C490.617 359.792 491.609 359.312 492.633 359.312C493.465 359.312 494.329 359.696 495.225 360.464L497.145 362.096C498.105 362.864 498.585 363.792 498.585 364.88C498.585 365.968 498.009 367.088 496.857 368.24C494.233 370.928 491.513 372.816 488.697 373.904C485.945 374.992 482.777 375.536 479.193 375.536ZM527.391 375.536C522.655 375.536 518.431 374.48 514.719 372.368C511.007 370.256 508.095 367.28 505.983 363.44C503.935 359.6 502.911 355.216 502.911 350.288C502.911 345.36 503.935 341.008 505.983 337.232C508.095 333.392 511.007 330.416 514.719 328.304C518.431 326.192 522.655 325.136 527.391 325.136C532.127 325.136 536.351 326.192 540.063 328.304C543.775 330.416 546.655 333.392 548.703 337.232C550.815 341.008 551.871 345.36 551.871 350.288C551.871 355.216 550.815 359.6 548.703 363.44C546.655 367.28 543.775 370.256 540.063 372.368C536.351 374.48 532.127 375.536 527.391 375.536ZM527.391 365.648C531.167 365.648 534.207 364.272 536.511 361.52C538.815 358.704 539.967 354.96 539.967 350.288C539.967 345.744 538.815 342.096 536.511 339.344C534.207 336.528 531.167 335.12 527.391 335.12C523.615 335.12 520.575 336.528 518.271 339.344C515.967 342.096 514.815 345.744 514.815 350.288C514.815 354.96 515.967 358.704 518.271 361.52C520.575 364.272 523.615 365.648 527.391 365.648ZM611.904 325.136C616.96 325.136 620.832 326.576 623.52 329.456C626.272 332.272 627.648 336.112 627.648 340.976V370.16C627.648 372.72 626.368 374 623.808 374H619.776C617.216 374 615.936 372.72 615.936 370.16V344.528C615.936 341.648 615.328 339.376 614.112 337.712C612.896 336.048 610.944 335.216 608.256 335.216C605.568 335.216 603.488 336.112 602.016 337.904C600.544 339.696 599.808 342.032 599.808 344.912V370.16C599.808 372.72 598.528 374 595.968 374H591.936C589.376 374 588.096 372.72 588.096 370.16V344.528C588.096 341.648 587.488 339.376 586.272 337.712C585.056 336.048 583.104 335.216 580.416 335.216C577.728 335.216 575.616 336.112 574.08 337.904C572.608 339.696 571.84 342 571.776 344.816V370.16C571.776 372.72 570.496 374 567.936 374H563.904C561.344 374 560.064 372.72 560.064 370.16V330.512C560.064 327.952 561.344 326.672 563.904 326.672H567.168C569.728 326.672 571.008 327.952 571.008 330.512V332.048C573.952 327.44 578.464 325.136 584.544 325.136C587.616 325.136 590.272 325.744 592.512 326.96C594.752 328.176 596.48 329.904 597.696 332.144C600.896 327.472 605.632 325.136 611.904 325.136ZM664.551 325.328C668.583 325.328 672.167 326.352 675.303 328.4C678.503 330.448 680.999 333.36 682.791 337.136C684.583 340.912 685.479 345.296 685.479 350.288C685.479 355.28 684.583 359.696 682.791 363.536C680.999 367.312 678.503 370.224 675.303 372.272C672.103 374.32 668.519 375.344 664.551 375.344C658.215 375.344 653.415 373.2 650.151 368.912V386.864C650.151 389.424 648.871 390.704 646.311 390.704H642.279C639.719 390.704 638.439 389.424 638.439 386.864V330.512C638.439 327.952 639.719 326.672 642.279 326.672H645.543C648.103 326.672 649.383 327.952 649.383 330.512V333.008C652.775 327.888 657.831 325.328 664.551 325.328ZM661.863 365.072C665.383 365.072 668.199 363.76 670.311 361.136C672.487 358.448 673.575 354.832 673.575 350.288C673.575 345.744 672.519 342.128 670.407 339.44C668.359 336.752 665.543 335.408 661.959 335.408C658.375 335.408 655.431 336.752 653.127 339.44C650.887 342.064 649.767 345.68 649.767 350.288C649.767 354.896 650.887 358.512 653.127 361.136C655.431 363.76 658.343 365.072 661.863 365.072ZM716.485 375.536C711.749 375.536 707.525 374.48 703.813 372.368C700.101 370.256 697.189 367.28 695.077 363.44C693.029 359.6 692.005 355.216 692.005 350.288C692.005 345.36 693.029 341.008 695.077 337.232C697.189 333.392 700.101 330.416 703.813 328.304C707.525 326.192 711.749 325.136 716.485 325.136C721.221 325.136 725.445 326.192 729.157 328.304C732.869 330.416 735.749 333.392 737.797 337.232C739.909 341.008 740.965 345.36 740.965 350.288C740.965 355.216 739.909 359.6 737.797 363.44C735.749 367.28 732.869 370.256 729.157 372.368C725.445 374.48 721.221 375.536 716.485 375.536ZM716.485 365.648C720.261 365.648 723.301 364.272 725.605 361.52C727.909 358.704 729.061 354.96 729.061 350.288C729.061 345.744 727.909 342.096 725.605 339.344C723.301 336.528 720.261 335.12 716.485 335.12C712.709 335.12 709.669 336.528 707.365 339.344C705.061 342.096 703.909 345.744 703.909 350.288C703.909 354.96 705.061 358.704 707.365 361.52C709.669 364.272 712.709 365.648 716.485 365.648ZM774.405 325.136C779.845 325.136 784.005 326.64 786.885 329.648C789.829 332.656 791.301 336.624 791.301 341.552V370.16C791.301 372.72 790.021 374 787.461 374H783.429C780.869 374 779.589 372.72 779.589 370.16V345.104C779.589 341.968 778.821 339.536 777.285 337.808C775.749 336.08 773.541 335.216 770.661 335.216C767.845 335.216 765.509 336.176 763.653 338.096C761.797 340.016 760.869 342.448 760.869 345.392V370.16C760.869 372.72 759.589 374 757.029 374H752.997C750.437 374 749.157 372.72 749.157 370.16V330.512C749.157 327.952 750.437 326.672 752.997 326.672H756.261C758.821 326.672 760.101 327.952 760.101 330.512V332.144C761.637 329.904 763.621 328.176 766.053 326.96C768.485 325.744 771.269 325.136 774.405 325.136ZM835.822 361.424C836.782 360.656 837.678 360.272 838.51 360.272C839.47 360.272 840.366 360.752 841.198 361.712L842.83 363.44C843.662 364.272 844.078 365.136 844.078 366.032C844.078 367.12 843.566 368.08 842.542 368.912C839.662 371.28 836.75 372.976 833.806 374C830.926 375.024 827.758 375.536 824.302 375.536C819.246 375.536 814.862 374.512 811.15 372.464C807.438 370.416 804.59 367.504 802.606 363.728C800.622 359.952 799.63 355.568 799.63 350.576C799.63 345.712 800.558 341.36 802.414 337.52C804.334 333.616 807.086 330.576 810.67 328.4C814.254 326.224 818.446 325.136 823.246 325.136C830.35 325.136 835.79 327.216 839.566 331.376C843.406 335.536 845.326 341.296 845.326 348.656V349.52C845.262 352.016 843.95 353.264 841.39 353.264H811.054C811.502 357.04 812.846 360.048 815.086 362.288C817.39 364.528 820.526 365.648 824.494 365.648C826.67 365.648 828.59 365.328 830.254 364.688C831.918 364.048 833.774 362.96 835.822 361.424ZM822.958 334.352C819.822 334.352 817.262 335.312 815.278 337.232C813.294 339.088 811.982 341.648 811.342 344.912H833.902C833.646 341.648 832.59 339.088 830.734 337.232C828.878 335.312 826.286 334.352 822.958 334.352ZM879.218 325.136C884.658 325.136 888.818 326.64 891.698 329.648C894.642 332.656 896.114 336.624 896.114 341.552V370.16C896.114 372.72 894.834 374 892.274 374H888.242C885.682 374 884.402 372.72 884.402 370.16V345.104C884.402 341.968 883.634 339.536 882.098 337.808C880.562 336.08 878.354 335.216 875.474 335.216C872.658 335.216 870.322 336.176 868.466 338.096C866.61 340.016 865.682 342.448 865.682 345.392V370.16C865.682 372.72 864.402 374 861.842 374H857.81C855.25 374 853.97 372.72 853.97 370.16V330.512C853.97 327.952 855.25 326.672 857.81 326.672H861.074C863.634 326.672 864.914 327.952 864.914 330.512V332.144C866.45 329.904 868.434 328.176 870.866 326.96C873.298 325.744 876.082 325.136 879.218 325.136ZM930.097 364.688C932.145 364.304 933.361 365.392 933.745 367.952L934.033 369.776C934.353 372.208 933.361 373.712 931.057 374.288C928.817 374.864 926.481 375.152 924.049 375.152C919.377 375.152 915.953 374.064 913.777 371.888C911.665 369.648 910.609 366.32 910.609 361.904V335.6H906.001C903.441 335.6 902.161 334.32 902.161 331.76V330.512C902.161 327.952 903.441 326.672 906.001 326.672H910.609V315.728C910.609 313.168 911.889 311.888 914.449 311.888H918.481C921.041 311.888 922.321 313.168 922.321 315.728V326.672H929.905C932.465 326.672 933.745 327.952 933.745 330.512V331.76C933.745 334.32 932.465 335.6 929.905 335.6H922.321V360.464C922.321 362.128 922.705 363.312 923.473 364.016C924.241 364.656 925.457 364.976 927.121 364.976C927.889 364.976 928.881 364.88 930.097 364.688ZM961.288 375.536C957.32 375.536 953.8 375.056 950.728 374.096C947.656 373.136 944.584 371.44 941.512 369.008C940.424 368.112 939.88 367.184 939.88 366.224C939.88 365.328 940.264 364.464 941.032 363.632L942.76 361.712C943.656 360.752 944.616 360.272 945.64 360.272C946.472 360.272 947.336 360.592 948.232 361.232C950.792 363.088 953.032 364.368 954.952 365.072C956.936 365.712 959.144 366.032 961.576 366.032C964.072 366.032 966.088 365.584 967.624 364.688C969.16 363.792 969.928 362.512 969.928 360.848C969.928 359.568 969.448 358.576 968.488 357.872C967.528 357.104 966.312 356.528 964.84 356.144C963.432 355.696 961.192 355.152 958.12 354.512C953.576 353.552 950.056 352.496 947.56 351.344C945.128 350.128 943.368 348.624 942.28 346.832C941.256 345.04 940.744 342.736 940.744 339.92C940.744 337.168 941.512 334.672 943.048 332.432C944.648 330.192 946.92 328.432 949.864 327.152C952.808 325.808 956.296 325.136 960.328 325.136C963.848 325.136 966.92 325.52 969.544 326.288C972.232 326.992 974.888 328.272 977.512 330.128C978.664 330.896 979.24 331.824 979.24 332.912C979.24 333.744 978.888 334.608 978.184 335.504L976.744 337.328C975.912 338.352 974.952 338.864 973.864 338.864C973.032 338.864 972.168 338.576 971.272 338C969.288 336.72 967.432 335.824 965.704 335.312C964.04 334.8 962.184 334.544 960.136 334.544C957.704 334.544 955.72 335.024 954.184 335.984C952.712 336.88 951.976 338.064 951.976 339.536C951.976 340.56 952.328 341.36 953.032 341.936C953.736 342.512 954.76 342.992 956.104 343.376C957.512 343.76 959.848 344.336 963.112 345.104C967.592 346.064 971.144 347.152 973.768 348.368C976.392 349.584 978.312 351.12 979.528 352.976C980.744 354.832 981.352 357.2 981.352 360.08C981.352 364.688 979.56 368.432 975.976 371.312C972.392 374.128 967.496 375.536 961.288 375.536ZM194.5 446C193.82 446 193.36 445.68 193.12 445.04L189.16 434.06H169.78L165.88 445.04C165.64 445.68 165.18 446 164.5 446H162.64C162.32 446 162.06 445.92 161.86 445.76C161.66 445.6 161.56 445.38 161.56 445.1L161.68 444.62L176.38 404.36C176.62 403.72 177.08 403.4 177.76 403.4H181.24C181.92 403.4 182.38 403.72 182.62 404.36L197.32 444.62L197.44 445.1C197.44 445.38 197.34 445.6 197.14 445.76C196.94 445.92 196.68 446 196.36 446H194.5ZM187.84 430.46L185.74 424.58L185.26 423.32C184.7 421.8 183.78 419.26 182.5 415.7C181.26 412.14 180.24 409.12 179.44 406.64C178.36 410.04 176.66 414.98 174.34 421.46C174.18 421.9 174 422.38 173.8 422.9C173.6 423.42 173.4 423.98 173.2 424.58L171.1 430.46H187.84ZM216.663 415.7C220.143 415.7 222.763 416.66 224.523 418.58C226.323 420.5 227.223 422.9 227.223 425.78V444.8C227.223 445.6 226.823 446 226.023 446H224.463C223.663 446 223.263 445.6 223.263 444.8V427.1C223.263 424.46 222.623 422.46 221.343 421.1C220.063 419.74 218.223 419.06 215.823 419.06C214.303 419.06 212.903 419.44 211.623 420.2C210.343 420.92 209.323 421.92 208.563 423.2C207.803 424.48 207.423 425.88 207.423 427.4V444.8C207.423 445.6 207.023 446 206.223 446H204.663C203.863 446 203.463 445.6 203.463 444.8V417.62C203.463 416.82 203.863 416.42 204.663 416.42H205.983C206.783 416.42 207.183 416.82 207.183 417.62V420.5C208.183 418.9 209.503 417.7 211.143 416.9C212.783 416.1 214.623 415.7 216.663 415.7ZM248.483 442.7C248.603 442.66 248.763 442.64 248.963 442.64C249.203 442.64 249.423 442.72 249.623 442.88C249.823 443.04 249.943 443.26 249.983 443.54L250.163 444.38C250.203 444.46 250.223 444.6 250.223 444.8C250.223 445.36 249.923 445.7 249.323 445.82C247.883 446.26 246.343 446.48 244.703 446.48C242.103 446.48 240.243 445.9 239.123 444.74C238.043 443.54 237.503 441.82 237.503 439.58V419.42H233.063C232.263 419.42 231.863 419.02 231.863 418.22V417.62C231.863 416.82 232.263 416.42 233.063 416.42H237.503V407.3C237.503 406.5 237.903 406.1 238.703 406.1H240.263C241.063 406.1 241.463 406.5 241.463 407.3V416.42H248.663C249.463 416.42 249.863 416.82 249.863 417.62V418.22C249.863 419.02 249.463 419.42 248.663 419.42H241.463V439.1C241.463 440.58 241.743 441.62 242.303 442.22C242.863 442.82 243.823 443.12 245.183 443.12C246.143 443.12 247.243 442.98 248.483 442.7ZM257.885 408.92C257.085 408.92 256.405 408.64 255.845 408.08C255.325 407.52 255.065 406.84 255.065 406.04C255.065 405.24 255.325 404.58 255.845 404.06C256.405 403.54 257.085 403.28 257.885 403.28C258.725 403.28 259.405 403.54 259.925 404.06C260.485 404.58 260.765 405.24 260.765 406.04C260.765 406.84 260.485 407.52 259.925 408.08C259.405 408.64 258.725 408.92 257.885 408.92ZM257.105 446C256.305 446 255.905 445.6 255.905 444.8V417.62C255.905 416.82 256.305 416.42 257.105 416.42H258.665C259.465 416.42 259.865 416.82 259.865 417.62V444.8C259.865 445.6 259.465 446 258.665 446H257.105ZM280.678 446.78C277.838 446.78 275.358 446.14 273.238 444.86C271.158 443.54 269.538 441.72 268.378 439.4C267.258 437.04 266.698 434.32 266.698 431.24C266.698 428.2 267.258 425.5 268.378 423.14C269.538 420.78 271.158 418.96 273.238 417.68C275.358 416.36 277.798 415.7 280.558 415.7C282.798 415.7 284.758 416.08 286.438 416.84C288.118 417.56 289.738 418.76 291.298 420.44C291.538 420.68 291.658 420.94 291.658 421.22C291.658 421.58 291.498 421.88 291.178 422.12L290.338 422.9C290.098 423.14 289.818 423.26 289.498 423.26C289.218 423.26 288.918 423.1 288.598 422.78C287.198 421.38 285.858 420.4 284.578 419.84C283.338 419.28 281.958 419 280.438 419C278.358 419 276.578 419.58 275.098 420.74C273.658 421.9 272.578 423.42 271.858 425.3C271.138 427.14 270.778 429.12 270.778 431.24C270.778 433.36 271.138 435.36 271.858 437.24C272.578 439.08 273.678 440.58 275.158 441.74C276.638 442.86 278.458 443.42 280.618 443.42C282.218 443.42 283.618 443.14 284.818 442.58C286.058 441.98 287.438 440.86 288.958 439.22C289.278 438.9 289.578 438.74 289.858 438.74C290.178 438.74 290.458 438.86 290.698 439.1L291.538 439.76C291.818 440 291.958 440.28 291.958 440.6C291.958 440.92 291.778 441.3 291.418 441.74C289.738 443.58 288.058 444.88 286.378 445.64C284.698 446.4 282.798 446.78 280.678 446.78ZM300.365 408.92C299.565 408.92 298.885 408.64 298.325 408.08C297.805 407.52 297.545 406.84 297.545 406.04C297.545 405.24 297.805 404.58 298.325 404.06C298.885 403.54 299.565 403.28 300.365 403.28C301.205 403.28 301.885 403.54 302.405 404.06C302.965 404.58 303.245 405.24 303.245 406.04C303.245 406.84 302.965 407.52 302.405 408.08C301.885 408.64 301.205 408.92 300.365 408.92ZM299.585 446C298.785 446 298.385 445.6 298.385 444.8V417.62C298.385 416.82 298.785 416.42 299.585 416.42H301.145C301.945 416.42 302.345 416.82 302.345 417.62V444.8C302.345 445.6 301.945 446 301.145 446H299.585ZM325.319 415.76C327.799 415.76 330.019 416.42 331.979 417.74C333.979 419.02 335.539 420.84 336.659 423.2C337.779 425.52 338.339 428.18 338.339 431.18C338.339 434.22 337.779 436.92 336.659 439.28C335.539 441.64 333.999 443.48 332.039 444.8C330.079 446.08 327.839 446.72 325.319 446.72C320.679 446.72 317.279 445.02 315.119 441.62V455.84C315.119 456.64 314.719 457.04 313.919 457.04H312.359C311.559 457.04 311.159 456.64 311.159 455.84V417.62C311.159 416.82 311.559 416.42 312.359 416.42H313.679C314.479 416.42 314.879 416.82 314.879 417.62V421.4C315.959 419.56 317.379 418.16 319.139 417.2C320.899 416.24 322.959 415.76 325.319 415.76ZM325.019 443.36C327.819 443.36 330.059 442.24 331.739 440C333.419 437.76 334.259 434.82 334.259 431.18C334.259 427.58 333.419 424.68 331.739 422.48C330.059 420.24 327.819 419.12 325.019 419.12C322.019 419.12 319.579 420.2 317.699 422.36C315.859 424.48 314.939 427.42 314.939 431.18C314.939 434.94 315.879 437.92 317.759 440.12C319.639 442.28 322.059 443.36 325.019 443.36ZM356.777 415.7C360.418 415.7 363.258 416.58 365.298 418.34C367.338 420.06 368.358 422.34 368.358 425.18V444.8C368.358 445.6 367.958 446 367.158 446H365.958C365.158 446 364.758 445.6 364.758 444.8V442.1C363.758 443.7 362.338 444.9 360.498 445.7C358.698 446.5 356.678 446.9 354.438 446.9C351.318 446.9 348.778 446.24 346.818 444.92C344.858 443.6 343.878 441.56 343.878 438.8C343.878 436.6 344.498 434.84 345.738 433.52C346.978 432.16 348.598 431.14 350.598 430.46C352.598 429.74 355.098 429.1 358.098 428.54L364.578 427.4V425.48C364.578 423.44 363.878 421.86 362.478 420.74C361.078 419.58 359.238 419 356.958 419C355.238 419 353.678 419.32 352.278 419.96C350.878 420.6 349.378 421.7 347.778 423.26C347.498 423.54 347.198 423.68 346.878 423.68C346.598 423.68 346.338 423.56 346.098 423.32L345.318 422.6C345.038 422.32 344.897 422.02 344.897 421.7C344.897 421.34 345.038 421.02 345.318 420.74C346.998 418.98 348.758 417.7 350.598 416.9C352.478 416.1 354.538 415.7 356.777 415.7ZM354.618 443.6C357.498 443.6 359.878 442.84 361.758 441.32C363.638 439.8 364.578 437.86 364.578 435.5V430.46L358.998 431.54C356.398 432.06 354.338 432.56 352.818 433.04C351.298 433.52 350.078 434.22 349.158 435.14C348.238 436.06 347.778 437.26 347.778 438.74C347.778 440.26 348.378 441.46 349.578 442.34C350.818 443.18 352.498 443.6 354.618 443.6ZM389.635 442.7C389.755 442.66 389.915 442.64 390.115 442.64C390.355 442.64 390.575 442.72 390.775 442.88C390.975 443.04 391.095 443.26 391.135 443.54L391.315 444.38C391.355 444.46 391.375 444.6 391.375 444.8C391.375 445.36 391.075 445.7 390.475 445.82C389.035 446.26 387.495 446.48 385.855 446.48C383.255 446.48 381.395 445.9 380.275 444.74C379.195 443.54 378.655 441.82 378.655 439.58V419.42H374.215C373.415 419.42 373.015 419.02 373.015 418.22V417.62C373.015 416.82 373.415 416.42 374.215 416.42H378.655V407.3C378.655 406.5 379.055 406.1 379.855 406.1H381.415C382.215 406.1 382.615 406.5 382.615 407.3V416.42H389.815C390.615 416.42 391.015 416.82 391.015 417.62V418.22C391.015 419.02 390.615 419.42 389.815 419.42H382.615V439.1C382.615 440.58 382.895 441.62 383.455 442.22C384.015 442.82 384.975 443.12 386.335 443.12C387.295 443.12 388.395 442.98 389.635 442.7ZM399.037 408.92C398.237 408.92 397.557 408.64 396.997 408.08C396.477 407.52 396.217 406.84 396.217 406.04C396.217 405.24 396.477 404.58 396.997 404.06C397.557 403.54 398.237 403.28 399.037 403.28C399.877 403.28 400.557 403.54 401.077 404.06C401.637 404.58 401.917 405.24 401.917 406.04C401.917 406.84 401.637 407.52 401.077 408.08C400.557 408.64 399.877 408.92 399.037 408.92ZM398.257 446C397.457 446 397.057 445.6 397.057 444.8V417.62C397.057 416.82 397.457 416.42 398.257 416.42H399.817C400.617 416.42 401.017 416.82 401.017 417.62V444.8C401.017 445.6 400.617 446 399.817 446H398.257ZM423.031 415.7C426.511 415.7 429.131 416.66 430.891 418.58C432.691 420.5 433.591 422.9 433.591 425.78V444.8C433.591 445.6 433.191 446 432.391 446H430.831C430.031 446 429.631 445.6 429.631 444.8V427.1C429.631 424.46 428.991 422.46 427.711 421.1C426.431 419.74 424.591 419.06 422.191 419.06C420.671 419.06 419.271 419.44 417.991 420.2C416.711 420.92 415.691 421.92 414.931 423.2C414.171 424.48 413.791 425.88 413.791 427.4V444.8C413.791 445.6 413.391 446 412.591 446H411.031C410.231 446 409.831 445.6 409.831 444.8V417.62C409.831 416.82 410.231 416.42 411.031 416.42H412.351C413.151 416.42 413.551 416.82 413.551 417.62V420.5C414.551 418.9 415.871 417.7 417.511 416.9C419.151 416.1 420.991 415.7 423.031 415.7ZM463.59 417.62C463.59 416.82 463.99 416.42 464.79 416.42H466.05C466.85 416.42 467.25 416.82 467.25 417.62V445.7C467.25 449.42 466.13 452.34 463.89 454.46C461.65 456.62 458.51 457.7 454.47 457.7C450.11 457.7 446.09 456.46 442.41 453.98C442.01 453.74 441.81 453.44 441.81 453.08C441.81 452.8 441.89 452.56 442.05 452.36L442.77 451.34C443.01 450.94 443.33 450.74 443.73 450.74C443.89 450.74 444.13 450.82 444.45 450.98C446.21 452.1 447.85 452.94 449.37 453.5C450.93 454.06 452.63 454.34 454.47 454.34C457.11 454.34 459.25 453.6 460.89 452.12C462.53 450.68 463.35 448.44 463.35 445.4V440.6C461.19 444.08 457.91 445.82 453.51 445.82C450.95 445.82 448.69 445.18 446.73 443.9C444.77 442.58 443.25 440.78 442.17 438.5C441.13 436.22 440.61 433.64 440.61 430.76C440.61 427.88 441.13 425.3 442.17 423.02C443.25 420.74 444.77 418.96 446.73 417.68C448.69 416.36 450.95 415.7 453.51 415.7C455.83 415.7 457.83 416.2 459.51 417.2C461.23 418.16 462.59 419.54 463.59 421.34V417.62ZM453.93 442.46C456.81 442.46 459.11 441.38 460.83 439.22C462.55 437.02 463.41 434.2 463.41 430.76C463.41 427.32 462.55 424.52 460.83 422.36C459.11 420.16 456.81 419.06 453.93 419.06C451.01 419.06 448.73 420.14 447.09 422.3C445.49 424.46 444.69 427.28 444.69 430.76C444.69 434.24 445.49 437.06 447.09 439.22C448.73 441.38 451.01 442.46 453.93 442.46ZM491.247 446C490.447 446 490.047 445.6 490.047 444.8V404.6C490.047 403.8 490.447 403.4 491.247 403.4H492.807C493.607 403.4 494.007 403.8 494.007 404.6V444.8C494.007 445.6 493.607 446 492.807 446H491.247ZM524.476 438.98C524.756 438.7 525.056 438.56 525.376 438.56C525.656 438.56 525.916 438.68 526.156 438.92L526.936 439.64C527.216 439.92 527.356 440.22 527.356 440.54C527.356 440.78 527.236 441.06 526.996 441.38C525.036 443.34 523.136 444.74 521.296 445.58C519.456 446.38 517.396 446.78 515.116 446.78C512.236 446.78 509.736 446.14 507.616 444.86C505.496 443.58 503.856 441.8 502.696 439.52C501.536 437.2 500.956 434.52 500.956 431.48C500.956 428.4 501.516 425.68 502.636 423.32C503.796 420.92 505.416 419.06 507.496 417.74C509.576 416.38 511.976 415.7 514.696 415.7C518.736 415.7 521.916 416.96 524.236 419.48C526.556 422 527.716 425.4 527.716 429.68V430.4C527.676 430.76 527.536 431.04 527.296 431.24C527.096 431.44 526.816 431.54 526.456 431.54H504.976C505.096 434.9 505.976 437.74 507.616 440.06C509.296 442.34 511.796 443.48 515.116 443.48C516.916 443.48 518.496 443.16 519.856 442.52C521.256 441.84 522.796 440.66 524.476 438.98ZM514.696 419C512.056 419 509.876 419.82 508.156 421.46C506.476 423.06 505.456 425.42 505.096 428.54H523.756C523.676 425.62 522.836 423.3 521.236 421.58C519.636 419.86 517.456 419 514.696 419ZM556.11 417.62C556.11 416.82 556.51 416.42 557.31 416.42H558.57C559.37 416.42 559.77 416.82 559.77 417.62V445.7C559.77 449.42 558.65 452.34 556.41 454.46C554.17 456.62 551.03 457.7 546.99 457.7C542.63 457.7 538.61 456.46 534.93 453.98C534.53 453.74 534.33 453.44 534.33 453.08C534.33 452.8 534.41 452.56 534.57 452.36L535.29 451.34C535.53 450.94 535.85 450.74 536.25 450.74C536.41 450.74 536.65 450.82 536.97 450.98C538.73 452.1 540.37 452.94 541.89 453.5C543.45 454.06 545.15 454.34 546.99 454.34C549.63 454.34 551.77 453.6 553.41 452.12C555.05 450.68 555.87 448.44 555.87 445.4V440.6C553.71 444.08 550.43 445.82 546.03 445.82C543.47 445.82 541.21 445.18 539.25 443.9C537.29 442.58 535.77 440.78 534.69 438.5C533.65 436.22 533.13 433.64 533.13 430.76C533.13 427.88 533.65 425.3 534.69 423.02C535.77 420.74 537.29 418.96 539.25 417.68C541.21 416.36 543.47 415.7 546.03 415.7C548.35 415.7 550.35 416.2 552.03 417.2C553.75 418.16 555.11 419.54 556.11 421.34V417.62ZM546.45 442.46C549.33 442.46 551.63 441.38 553.35 439.22C555.07 437.02 555.93 434.2 555.93 430.76C555.93 427.32 555.07 424.52 553.35 422.36C551.63 420.16 549.33 419.06 546.45 419.06C543.53 419.06 541.25 420.14 539.61 422.3C538.01 424.46 537.21 427.28 537.21 430.76C537.21 434.24 538.01 437.06 539.61 439.22C541.25 441.38 543.53 442.46 546.45 442.46ZM580.078 415.7C583.718 415.7 586.558 416.58 588.598 418.34C590.638 420.06 591.658 422.34 591.658 425.18V444.8C591.658 445.6 591.258 446 590.458 446H589.258C588.458 446 588.058 445.6 588.058 444.8V442.1C587.058 443.7 585.638 444.9 583.798 445.7C581.998 446.5 579.978 446.9 577.738 446.9C574.618 446.9 572.078 446.24 570.118 444.92C568.158 443.6 567.178 441.56 567.178 438.8C567.178 436.6 567.798 434.84 569.038 433.52C570.278 432.16 571.898 431.14 573.898 430.46C575.898 429.74 578.398 429.1 581.398 428.54L587.878 427.4V425.48C587.878 423.44 587.178 421.86 585.778 420.74C584.378 419.58 582.538 419 580.258 419C578.538 419 576.978 419.32 575.578 419.96C574.178 420.6 572.678 421.7 571.078 423.26C570.798 423.54 570.498 423.68 570.178 423.68C569.898 423.68 569.638 423.56 569.398 423.32L568.618 422.6C568.338 422.32 568.198 422.02 568.198 421.7C568.198 421.34 568.338 421.02 568.618 420.74C570.298 418.98 572.058 417.7 573.898 416.9C575.778 416.1 577.838 415.7 580.078 415.7ZM577.918 443.6C580.798 443.6 583.178 442.84 585.058 441.32C586.938 439.8 587.878 437.86 587.878 435.5V430.46L582.298 431.54C579.698 432.06 577.638 432.56 576.118 433.04C574.598 433.52 573.378 434.22 572.458 435.14C571.538 436.06 571.078 437.26 571.078 438.74C571.078 440.26 571.678 441.46 572.878 442.34C574.118 443.18 575.798 443.6 577.918 443.6ZM612.436 446.78C609.596 446.78 607.116 446.14 604.996 444.86C602.916 443.54 601.296 441.72 600.136 439.4C599.016 437.04 598.456 434.32 598.456 431.24C598.456 428.2 599.016 425.5 600.136 423.14C601.296 420.78 602.916 418.96 604.996 417.68C607.116 416.36 609.556 415.7 612.316 415.7C614.556 415.7 616.516 416.08 618.196 416.84C619.876 417.56 621.496 418.76 623.056 420.44C623.296 420.68 623.416 420.94 623.416 421.22C623.416 421.58 623.256 421.88 622.936 422.12L622.096 422.9C621.856 423.14 621.576 423.26 621.256 423.26C620.976 423.26 620.676 423.1 620.356 422.78C618.956 421.38 617.616 420.4 616.336 419.84C615.096 419.28 613.716 419 612.196 419C610.116 419 608.336 419.58 606.856 420.74C605.416 421.9 604.336 423.42 603.616 425.3C602.896 427.14 602.536 429.12 602.536 431.24C602.536 433.36 602.896 435.36 603.616 437.24C604.336 439.08 605.436 440.58 606.916 441.74C608.396 442.86 610.216 443.42 612.376 443.42C613.976 443.42 615.376 443.14 616.576 442.58C617.816 441.98 619.196 440.86 620.716 439.22C621.036 438.9 621.336 438.74 621.616 438.74C621.936 438.74 622.216 438.86 622.456 439.1L623.296 439.76C623.576 440 623.716 440.28 623.716 440.6C623.716 440.92 623.536 441.3 623.176 441.74C621.496 443.58 619.816 444.88 618.136 445.64C616.456 446.4 614.556 446.78 612.436 446.78ZM648.562 417.38C648.802 416.74 649.262 416.42 649.942 416.42H651.562C651.882 416.42 652.142 416.5 652.342 416.66C652.542 416.82 652.642 417.04 652.642 417.32L652.522 417.8L640.942 450.5C640.302 452.3 639.682 453.7 639.082 454.7C638.482 455.7 637.662 456.46 636.622 456.98C635.622 457.5 634.302 457.76 632.662 457.76C631.622 457.76 630.702 457.68 629.902 457.52C629.502 457.48 629.222 457.32 629.062 457.04C628.942 456.76 628.922 456.44 629.002 456.08L629.182 455.3C629.342 454.58 629.802 454.26 630.562 454.34C631.282 454.46 631.902 454.52 632.422 454.52C633.702 454.52 634.702 454.16 635.422 453.44C636.182 452.72 636.902 451.36 637.582 449.36L638.122 447.68L627.562 417.8L627.442 417.32C627.442 417.04 627.542 416.82 627.742 416.66C627.942 416.5 628.202 416.42 628.522 416.42H630.262C630.902 416.42 631.342 416.74 631.582 417.38L634.942 427.28C635.262 428.28 636.062 430.66 637.342 434.42L640.042 442.52C641.362 438.8 643.102 433.68 645.262 427.16L648.562 417.38Z" fill="white"/>
</g>
<defs>
<clipPath id="clip0_1143_13652">
<rect width="1920" height="1080" fill="white"/>
</clipPath>
</defs>
</svg>
