<svg width="1920" height="1079" viewBox="0 0 1920 1079" fill="none" xmlns="http://www.w3.org/2000/svg">
<rect x="8" y="8" width="1904" height="1063" fill="#F6F8FB"/>
<g filter="url(#filter0_dd_1134_14281)">
<rect x="649" y="125.98" width="622" height="827.04" rx="16" fill="white"/>
</g>
<rect x="682.026" y="160.383" width="555.947" height="122.473" fill="#E1EDFE"/>
<rect x="682.026" y="827.794" width="555.947" height="92.1991" fill="#E1EDFE"/>
<rect x="682" y="305" width="195.407" height="500.903" fill="#B6F0FF"/>
<rect x="899" y="305" width="338.522" height="500.903" fill="#5C9CFF"/>
<path d="M841.107 234.544C838.704 234.544 836.619 234 834.851 232.912C833.106 231.824 831.757 230.328 830.805 228.424C829.876 226.497 829.411 224.321 829.411 221.896C829.411 219.471 829.876 217.317 830.805 215.436C831.734 213.532 833.083 212.036 834.851 210.948C836.619 209.86 838.738 209.316 841.209 209.316C842.705 209.316 844.065 209.531 845.289 209.962C846.513 210.37 847.748 211.061 848.995 212.036C849.335 212.308 849.505 212.614 849.505 212.954C849.505 213.181 849.392 213.441 849.165 213.736L848.417 214.62C848.145 214.937 847.862 215.096 847.567 215.096C847.34 215.096 847.057 214.983 846.717 214.756C845.697 213.963 844.756 213.419 843.895 213.124C843.056 212.829 842.15 212.682 841.175 212.682C839.588 212.682 838.206 213.067 837.027 213.838C835.848 214.609 834.942 215.697 834.307 217.102C833.672 218.485 833.355 220.083 833.355 221.896C833.355 223.709 833.672 225.319 834.307 226.724C834.942 228.129 835.837 229.229 836.993 230.022C838.149 230.793 839.498 231.178 841.039 231.178C842.195 231.178 843.226 230.974 844.133 230.566C845.04 230.158 846.026 229.501 847.091 228.594C847.386 228.345 847.669 228.22 847.941 228.22C848.236 228.22 848.519 228.379 848.791 228.696L849.539 229.546C849.766 229.795 849.879 230.056 849.879 230.328C849.879 230.713 849.698 231.053 849.335 231.348C848.02 232.481 846.717 233.297 845.425 233.796C844.156 234.295 842.716 234.544 841.107 234.544ZM863.612 218.428C863.612 218.043 863.714 217.748 863.918 217.544C864.145 217.34 864.44 217.238 864.802 217.238H866.026C866.412 217.238 866.706 217.34 866.91 217.544C867.114 217.748 867.216 218.043 867.216 218.428V232.81C867.216 233.173 867.114 233.467 866.91 233.694C866.706 233.898 866.412 234 866.026 234H865.108C864.746 234 864.451 233.898 864.224 233.694C864.02 233.467 863.918 233.173 863.918 232.81V232.028C863.465 232.799 862.808 233.411 861.946 233.864C861.085 234.295 860.065 234.51 858.886 234.51C856.892 234.51 855.407 234.023 854.432 233.048C853.458 232.051 852.97 230.736 852.97 229.104V218.428C852.97 218.043 853.072 217.748 853.276 217.544C853.503 217.34 853.798 217.238 854.16 217.238H855.384C855.77 217.238 856.064 217.34 856.268 217.544C856.472 217.748 856.574 218.043 856.574 218.428V228.152C856.574 229.195 856.835 229.999 857.356 230.566C857.9 231.11 858.682 231.382 859.702 231.382C860.881 231.382 861.822 231.042 862.524 230.362C863.25 229.682 863.612 228.696 863.612 227.404V218.428ZM877.825 234.51C876.442 234.51 875.207 234.34 874.119 234C873.054 233.637 871.966 233.014 870.855 232.13C870.515 231.881 870.345 231.597 870.345 231.28C870.345 231.031 870.47 230.759 870.719 230.464L871.229 229.886C871.501 229.569 871.796 229.41 872.113 229.41C872.362 229.41 872.634 229.523 872.929 229.75C873.881 230.453 874.72 230.94 875.445 231.212C876.17 231.461 876.986 231.586 877.893 231.586C878.868 231.586 879.661 231.393 880.273 231.008C880.908 230.6 881.225 230.056 881.225 229.376C881.225 228.855 881.044 228.447 880.681 228.152C880.341 227.835 879.888 227.597 879.321 227.438C878.754 227.257 877.916 227.053 876.805 226.826C875.241 226.486 874.017 226.123 873.133 225.738C872.272 225.33 871.648 224.82 871.263 224.208C870.878 223.596 870.685 222.814 870.685 221.862C870.685 220.887 870.957 220.015 871.501 219.244C872.068 218.473 872.85 217.861 873.847 217.408C874.867 216.955 876.057 216.728 877.417 216.728C878.641 216.728 879.729 216.864 880.681 217.136C881.656 217.408 882.608 217.873 883.537 218.53C883.9 218.802 884.081 219.108 884.081 219.448C884.081 219.675 883.968 219.935 883.741 220.23L883.299 220.774C883.05 221.091 882.744 221.25 882.381 221.25C882.109 221.25 881.848 221.159 881.599 220.978C880.851 220.479 880.16 220.139 879.525 219.958C878.89 219.754 878.176 219.652 877.383 219.652C876.408 219.652 875.626 219.845 875.037 220.23C874.448 220.615 874.153 221.114 874.153 221.726C874.153 222.134 874.289 222.463 874.561 222.712C874.856 222.939 875.264 223.143 875.785 223.324C876.329 223.483 877.179 223.687 878.335 223.936C879.899 224.276 881.134 224.661 882.041 225.092C882.97 225.5 883.65 226.033 884.081 226.69C884.534 227.325 884.761 228.152 884.761 229.172C884.761 230.759 884.126 232.051 882.857 233.048C881.61 234.023 879.933 234.51 877.825 234.51ZM895.893 231.144C895.961 231.121 896.063 231.11 896.199 231.11C896.765 231.11 897.105 231.439 897.219 232.096L897.321 232.64C897.343 232.708 897.355 232.821 897.355 232.98C897.355 233.547 897.037 233.909 896.403 234.068C895.496 234.272 894.669 234.374 893.921 234.374C892.311 234.374 891.144 234 890.419 233.252C889.716 232.504 889.365 231.382 889.365 229.886V219.992H887.495C887.132 219.992 886.837 219.89 886.611 219.686C886.407 219.459 886.305 219.165 886.305 218.802V218.428C886.305 218.043 886.407 217.748 886.611 217.544C886.837 217.34 887.132 217.238 887.495 217.238H889.365V213.022C889.365 212.637 889.467 212.342 889.671 212.138C889.897 211.934 890.192 211.832 890.555 211.832H891.779C892.164 211.832 892.459 211.934 892.663 212.138C892.867 212.342 892.969 212.637 892.969 213.022V217.238H896.029C896.414 217.238 896.709 217.34 896.913 217.544C897.117 217.748 897.219 218.043 897.219 218.428V218.802C897.219 219.165 897.117 219.459 896.913 219.686C896.709 219.89 896.414 219.992 896.029 219.992H892.969V229.444C892.969 230.101 893.105 230.566 893.377 230.838C893.671 231.11 894.136 231.246 894.771 231.246C895.043 231.246 895.417 231.212 895.893 231.144ZM907.202 234.51C905.547 234.51 904.074 234.136 902.782 233.388C901.513 232.64 900.515 231.597 899.79 230.26C899.065 228.9 898.702 227.347 898.702 225.602C898.702 223.857 899.065 222.315 899.79 220.978C900.515 219.641 901.513 218.598 902.782 217.85C904.074 217.102 905.547 216.728 907.202 216.728C908.834 216.728 910.296 217.102 911.588 217.85C912.88 218.598 913.889 219.652 914.614 221.012C915.339 222.349 915.702 223.879 915.702 225.602C915.702 227.347 915.339 228.9 914.614 230.26C913.889 231.597 912.88 232.64 911.588 233.388C910.296 234.136 908.834 234.51 907.202 234.51ZM907.202 231.484C908.653 231.484 909.82 230.951 910.704 229.886C911.588 228.798 912.03 227.37 912.03 225.602C912.03 223.857 911.588 222.451 910.704 221.386C909.82 220.321 908.653 219.788 907.202 219.788C905.751 219.788 904.584 220.321 903.7 221.386C902.816 222.451 902.374 223.857 902.374 225.602C902.374 227.37 902.816 228.798 903.7 229.886C904.584 230.951 905.751 231.484 907.202 231.484ZM936.865 216.728C938.655 216.728 940.038 217.238 941.013 218.258C941.987 219.255 942.475 220.604 942.475 222.304V232.81C942.475 233.173 942.373 233.467 942.169 233.694C941.965 233.898 941.67 234 941.285 234H940.061C939.698 234 939.403 233.898 939.177 233.694C938.973 233.467 938.871 233.173 938.871 232.81V223.392C938.871 222.281 938.621 221.409 938.123 220.774C937.624 220.139 936.865 219.822 935.845 219.822C934.802 219.822 933.975 220.173 933.363 220.876C932.773 221.579 932.479 222.485 932.479 223.596V232.81C932.479 233.173 932.377 233.467 932.173 233.694C931.969 233.898 931.674 234 931.289 234H930.065C929.702 234 929.407 233.898 929.181 233.694C928.977 233.467 928.875 233.173 928.875 232.81V223.392C928.875 222.281 928.625 221.409 928.127 220.774C927.651 220.139 926.903 219.822 925.883 219.822C924.885 219.822 924.081 220.151 923.469 220.808C922.857 221.465 922.528 222.315 922.483 223.358V232.81C922.483 233.173 922.381 233.467 922.177 233.694C921.973 233.898 921.678 234 921.293 234H920.069C919.706 234 919.411 233.898 919.185 233.694C918.981 233.467 918.879 233.173 918.879 232.81V218.428C918.879 218.043 918.981 217.748 919.185 217.544C919.411 217.34 919.706 217.238 920.069 217.238H921.055C921.44 217.238 921.735 217.34 921.939 217.544C922.143 217.748 922.245 218.043 922.245 218.428V219.176C923.287 217.544 924.897 216.728 927.073 216.728C928.161 216.728 929.113 216.955 929.929 217.408C930.745 217.861 931.368 218.496 931.799 219.312C932.955 217.589 934.643 216.728 936.865 216.728ZM955.941 234C955.578 234 955.283 233.898 955.057 233.694C954.853 233.467 954.751 233.173 954.751 232.81V211.05C954.751 210.665 954.853 210.37 955.057 210.166C955.283 209.962 955.578 209.86 955.941 209.86H970.051C970.436 209.86 970.731 209.962 970.935 210.166C971.139 210.37 971.241 210.665 971.241 211.05V211.934C971.241 212.297 971.139 212.591 970.935 212.818C970.731 213.022 970.436 213.124 970.051 213.124H958.627V219.924H969.201C969.586 219.924 969.881 220.026 970.085 220.23C970.289 220.434 970.391 220.729 970.391 221.114V221.998C970.391 222.361 970.289 222.655 970.085 222.882C969.881 223.086 969.586 223.188 969.201 223.188H958.627V230.736H970.391C970.776 230.736 971.071 230.838 971.275 231.042C971.479 231.246 971.581 231.541 971.581 231.926V232.81C971.581 233.173 971.479 233.467 971.275 233.694C971.071 233.898 970.776 234 970.391 234H955.941ZM976.55 234C976.188 234 975.893 233.898 975.666 233.694C975.462 233.467 975.36 233.173 975.36 232.81V211.05C975.36 210.665 975.462 210.37 975.666 210.166C975.893 209.962 976.188 209.86 976.55 209.86H977.774C978.16 209.86 978.454 209.962 978.658 210.166C978.862 210.37 978.964 210.665 978.964 211.05V232.81C978.964 233.173 978.862 233.467 978.658 233.694C978.454 233.898 978.16 234 977.774 234H976.55ZM995.262 229.716C995.556 229.467 995.84 229.342 996.112 229.342C996.384 229.342 996.667 229.489 996.962 229.784L997.438 230.294C997.687 230.589 997.812 230.872 997.812 231.144C997.812 231.439 997.664 231.722 997.37 231.994C996.327 232.901 995.284 233.547 994.242 233.932C993.222 234.317 992.088 234.51 990.842 234.51C989.096 234.51 987.578 234.147 986.286 233.422C985.016 232.697 984.03 231.677 983.328 230.362C982.648 229.025 982.308 227.483 982.308 225.738C982.308 224.015 982.636 222.474 983.294 221.114C983.974 219.731 984.926 218.655 986.15 217.884C987.396 217.113 988.847 216.728 990.502 216.728C992.972 216.728 994.876 217.465 996.214 218.938C997.551 220.389 998.22 222.395 998.22 224.956V225.262C998.197 225.625 998.084 225.908 997.88 226.112C997.676 226.316 997.381 226.418 996.996 226.418H985.844C985.98 227.914 986.467 229.138 987.306 230.09C988.167 231.019 989.368 231.484 990.91 231.484C991.748 231.484 992.485 231.359 993.12 231.11C993.754 230.838 994.468 230.373 995.262 229.716ZM990.434 219.584C989.187 219.584 988.178 219.958 987.408 220.706C986.66 221.431 986.172 222.463 985.946 223.8H994.684C994.593 222.485 994.185 221.454 993.46 220.706C992.734 219.958 991.726 219.584 990.434 219.584ZM1019.51 216.728C1021.3 216.728 1022.68 217.238 1023.66 218.258C1024.63 219.255 1025.12 220.604 1025.12 222.304V232.81C1025.12 233.173 1025.02 233.467 1024.81 233.694C1024.61 233.898 1024.31 234 1023.93 234H1022.7C1022.34 234 1022.05 233.898 1021.82 233.694C1021.62 233.467 1021.51 233.173 1021.51 232.81V223.392C1021.51 222.281 1021.26 221.409 1020.77 220.774C1020.27 220.139 1019.51 219.822 1018.49 219.822C1017.44 219.822 1016.62 220.173 1016.01 220.876C1015.42 221.579 1015.12 222.485 1015.12 223.596V232.81C1015.12 233.173 1015.02 233.467 1014.82 233.694C1014.61 233.898 1014.32 234 1013.93 234H1012.71C1012.34 234 1012.05 233.898 1011.82 233.694C1011.62 233.467 1011.52 233.173 1011.52 232.81V223.392C1011.52 222.281 1011.27 221.409 1010.77 220.774C1010.29 220.139 1009.55 219.822 1008.53 219.822C1007.53 219.822 1006.72 220.151 1006.11 220.808C1005.5 221.465 1005.17 222.315 1005.13 223.358V232.81C1005.13 233.173 1005.02 233.467 1004.82 233.694C1004.62 233.898 1004.32 234 1003.94 234H1002.71C1002.35 234 1002.05 233.898 1001.83 233.694C1001.62 233.467 1001.52 233.173 1001.52 232.81V218.428C1001.52 218.043 1001.62 217.748 1001.83 217.544C1002.05 217.34 1002.35 217.238 1002.71 217.238H1003.7C1004.08 217.238 1004.38 217.34 1004.58 217.544C1004.79 217.748 1004.89 218.043 1004.89 218.428V219.176C1005.93 217.544 1007.54 216.728 1009.72 216.728C1010.8 216.728 1011.76 216.955 1012.57 217.408C1013.39 217.861 1014.01 218.496 1014.44 219.312C1015.6 217.589 1017.29 216.728 1019.51 216.728ZM1041.25 229.716C1041.54 229.467 1041.83 229.342 1042.1 229.342C1042.37 229.342 1042.65 229.489 1042.95 229.784L1043.42 230.294C1043.67 230.589 1043.8 230.872 1043.8 231.144C1043.8 231.439 1043.65 231.722 1043.36 231.994C1042.31 232.901 1041.27 233.547 1040.23 233.932C1039.21 234.317 1038.07 234.51 1036.83 234.51C1035.08 234.51 1033.56 234.147 1032.27 233.422C1031 232.697 1030.02 231.677 1029.31 230.362C1028.63 229.025 1028.29 227.483 1028.29 225.738C1028.29 224.015 1028.62 222.474 1029.28 221.114C1029.96 219.731 1030.91 218.655 1032.14 217.884C1033.38 217.113 1034.83 216.728 1036.49 216.728C1038.96 216.728 1040.86 217.465 1042.2 218.938C1043.54 220.389 1044.21 222.395 1044.21 224.956V225.262C1044.18 225.625 1044.07 225.908 1043.87 226.112C1043.66 226.316 1043.37 226.418 1042.98 226.418H1031.83C1031.97 227.914 1032.45 229.138 1033.29 230.09C1034.15 231.019 1035.35 231.484 1036.9 231.484C1037.73 231.484 1038.47 231.359 1039.11 231.11C1039.74 230.838 1040.45 230.373 1041.25 229.716ZM1036.42 219.584C1035.17 219.584 1034.16 219.958 1033.39 220.706C1032.65 221.431 1032.16 222.463 1031.93 223.8H1040.67C1040.58 222.485 1040.17 221.454 1039.45 220.706C1038.72 219.958 1037.71 219.584 1036.42 219.584ZM1056.04 216.728C1057.97 216.728 1059.44 217.272 1060.46 218.36C1061.5 219.425 1062.03 220.808 1062.03 222.508V232.81C1062.03 233.173 1061.92 233.467 1061.72 233.694C1061.52 233.898 1061.22 234 1060.84 234H1059.61C1059.25 234 1058.95 233.898 1058.73 233.694C1058.52 233.467 1058.42 233.173 1058.42 232.81V223.63C1058.42 222.406 1058.12 221.465 1057.5 220.808C1056.91 220.151 1056.06 219.822 1054.95 219.822C1053.87 219.822 1052.95 220.196 1052.2 220.944C1051.47 221.692 1051.11 222.633 1051.11 223.766V232.81C1051.11 233.173 1051.01 233.467 1050.81 233.694C1050.6 233.898 1050.31 234 1049.92 234H1048.7C1048.33 234 1048.04 233.898 1047.81 233.694C1047.61 233.467 1047.51 233.173 1047.51 232.81V218.428C1047.51 218.043 1047.61 217.748 1047.81 217.544C1048.04 217.34 1048.33 217.238 1048.7 217.238H1049.68C1050.07 217.238 1050.36 217.34 1050.57 217.544C1050.77 217.748 1050.87 218.043 1050.87 218.428V219.312C1051.42 218.473 1052.13 217.839 1053.02 217.408C1053.9 216.955 1054.91 216.728 1056.04 216.728ZM1073.89 231.144C1073.96 231.121 1074.06 231.11 1074.2 231.11C1074.77 231.11 1075.11 231.439 1075.22 232.096L1075.32 232.64C1075.35 232.708 1075.36 232.821 1075.36 232.98C1075.36 233.547 1075.04 233.909 1074.4 234.068C1073.5 234.272 1072.67 234.374 1071.92 234.374C1070.31 234.374 1069.15 234 1068.42 233.252C1067.72 232.504 1067.37 231.382 1067.37 229.886V219.992H1065.5C1065.13 219.992 1064.84 219.89 1064.61 219.686C1064.41 219.459 1064.31 219.165 1064.31 218.802V218.428C1064.31 218.043 1064.41 217.748 1064.61 217.544C1064.84 217.34 1065.13 217.238 1065.5 217.238H1067.37V213.022C1067.37 212.637 1067.47 212.342 1067.67 212.138C1067.9 211.934 1068.19 211.832 1068.56 211.832H1069.78C1070.17 211.832 1070.46 211.934 1070.66 212.138C1070.87 212.342 1070.97 212.637 1070.97 213.022V217.238H1074.03C1074.42 217.238 1074.71 217.34 1074.91 217.544C1075.12 217.748 1075.22 218.043 1075.22 218.428V218.802C1075.22 219.165 1075.12 219.459 1074.91 219.686C1074.71 219.89 1074.42 219.992 1074.03 219.992H1070.97V229.444C1070.97 230.101 1071.11 230.566 1071.38 230.838C1071.67 231.11 1072.14 231.246 1072.77 231.246C1073.04 231.246 1073.42 231.212 1073.89 231.144ZM1084.91 234.51C1083.53 234.51 1082.29 234.34 1081.21 234C1080.14 233.637 1079.05 233.014 1077.94 232.13C1077.6 231.881 1077.43 231.597 1077.43 231.28C1077.43 231.031 1077.56 230.759 1077.81 230.464L1078.32 229.886C1078.59 229.569 1078.88 229.41 1079.2 229.41C1079.45 229.41 1079.72 229.523 1080.02 229.75C1080.97 230.453 1081.81 230.94 1082.53 231.212C1083.26 231.461 1084.07 231.586 1084.98 231.586C1085.96 231.586 1086.75 231.393 1087.36 231.008C1088 230.6 1088.31 230.056 1088.31 229.376C1088.31 228.855 1088.13 228.447 1087.77 228.152C1087.43 227.835 1086.98 227.597 1086.41 227.438C1085.84 227.257 1085 227.053 1083.89 226.826C1082.33 226.486 1081.1 226.123 1080.22 225.738C1079.36 225.33 1078.74 224.82 1078.35 224.208C1077.97 223.596 1077.77 222.814 1077.77 221.862C1077.77 220.887 1078.04 220.015 1078.59 219.244C1079.16 218.473 1079.94 217.861 1080.93 217.408C1081.95 216.955 1083.14 216.728 1084.5 216.728C1085.73 216.728 1086.82 216.864 1087.77 217.136C1088.74 217.408 1089.7 217.873 1090.62 218.53C1090.99 218.802 1091.17 219.108 1091.17 219.448C1091.17 219.675 1091.06 219.935 1090.83 220.23L1090.39 220.774C1090.14 221.091 1089.83 221.25 1089.47 221.25C1089.2 221.25 1088.94 221.159 1088.69 220.978C1087.94 220.479 1087.25 220.139 1086.61 219.958C1085.98 219.754 1085.26 219.652 1084.47 219.652C1083.5 219.652 1082.71 219.845 1082.12 220.23C1081.54 220.615 1081.24 221.114 1081.24 221.726C1081.24 222.134 1081.38 222.463 1081.65 222.712C1081.94 222.939 1082.35 223.143 1082.87 223.324C1083.42 223.483 1084.27 223.687 1085.42 223.936C1086.99 224.276 1088.22 224.661 1089.13 225.092C1090.06 225.5 1090.74 226.033 1091.17 226.69C1091.62 227.325 1091.85 228.152 1091.85 229.172C1091.85 230.759 1091.21 232.051 1089.94 233.048C1088.7 234.023 1087.02 234.51 1084.91 234.51Z" fill="#464646"/>
<path d="M930.624 861.846C930.828 861.189 931.27 860.86 931.95 860.86H933.48C934.182 860.86 934.534 861.155 934.534 861.744C934.534 861.948 934.511 862.107 934.466 862.22L927.156 884.014C926.952 884.671 926.498 885 925.796 885H922.974C922.271 885 921.818 884.671 921.614 884.014L914.27 862.22C914.224 862.107 914.202 861.948 914.202 861.744C914.202 861.155 914.553 860.86 915.256 860.86H916.854C917.534 860.86 917.976 861.189 918.18 861.846L921.75 872.624C922.702 875.48 923.597 878.393 924.436 881.362C924.957 879.435 925.841 876.545 927.088 872.692L930.624 861.846ZM947.264 885.544C944.249 885.544 941.937 884.841 940.328 883.436C938.718 882.008 937.914 879.889 937.914 877.078V862.05C937.914 861.665 938.016 861.37 938.22 861.166C938.446 860.962 938.741 860.86 939.104 860.86H940.6C940.985 860.86 941.28 860.962 941.484 861.166C941.688 861.37 941.79 861.665 941.79 862.05V876.908C941.79 878.608 942.243 879.911 943.15 880.818C944.079 881.702 945.45 882.144 947.264 882.144C949.077 882.144 950.437 881.702 951.344 880.818C952.273 879.911 952.738 878.608 952.738 876.908V862.05C952.738 861.665 952.84 861.37 953.044 861.166C953.27 860.962 953.565 860.86 953.928 860.86H955.458C955.843 860.86 956.138 860.962 956.342 861.166C956.546 861.37 956.648 861.665 956.648 862.05V877.078C956.648 879.889 955.843 882.008 954.234 883.436C952.624 884.841 950.301 885.544 947.264 885.544ZM962.913 885C962.551 885 962.256 884.898 962.029 884.694C961.825 884.467 961.723 884.173 961.723 883.81V862.05C961.723 861.665 961.825 861.37 962.029 861.166C962.256 860.962 962.551 860.86 962.913 860.86H977.023C977.409 860.86 977.703 860.962 977.907 861.166C978.111 861.37 978.213 861.665 978.213 862.05V862.934C978.213 863.297 978.111 863.591 977.907 863.818C977.703 864.022 977.409 864.124 977.023 864.124H965.599V870.924H976.173C976.559 870.924 976.853 871.026 977.057 871.23C977.261 871.434 977.363 871.729 977.363 872.114V872.998C977.363 873.361 977.261 873.655 977.057 873.882C976.853 874.086 976.559 874.188 976.173 874.188H965.599V881.736H977.363C977.749 881.736 978.043 881.838 978.247 882.042C978.451 882.246 978.553 882.541 978.553 882.926V883.81C978.553 884.173 978.451 884.467 978.247 884.694C978.043 884.898 977.749 885 977.363 885H962.913ZM998.199 870.482C999.717 870.482 1001.08 870.765 1002.28 871.332C1003.48 871.876 1004.42 872.692 1005.1 873.78C1005.78 874.845 1006.12 876.126 1006.12 877.622C1006.12 878.937 1005.79 880.206 1005.13 881.43C1004.48 882.631 1003.49 883.617 1002.18 884.388C1000.86 885.159 999.298 885.544 997.485 885.544C996.057 885.544 994.708 885.363 993.439 885C992.192 884.615 990.889 884.003 989.529 883.164C989.121 882.892 988.917 882.586 988.917 882.246C988.917 882.042 989.007 881.793 989.189 881.498L989.665 880.784C989.891 880.421 990.197 880.24 990.583 880.24C990.809 880.24 991.059 880.308 991.331 880.444C992.487 881.124 993.529 881.623 994.459 881.94C995.388 882.235 996.363 882.382 997.383 882.382C998.901 882.382 1000.11 881.94 1001.02 881.056C1001.93 880.172 1002.38 879.039 1002.38 877.656C1002.38 876.273 1001.92 875.197 1000.99 874.426C1000.06 873.655 998.765 873.27 997.111 873.27C996.408 873.27 995.773 873.327 995.207 873.44C994.98 873.485 994.821 873.508 994.731 873.508C994.277 873.508 993.915 873.304 993.643 872.896L993.235 872.352C993.053 872.103 992.963 871.865 992.963 871.638C992.963 871.321 993.121 871.003 993.439 870.686L1000.88 863.988H990.923C990.56 863.988 990.265 863.886 990.039 863.682C989.835 863.455 989.733 863.161 989.733 862.798V862.05C989.733 861.665 989.835 861.37 990.039 861.166C990.265 860.962 990.56 860.86 990.923 860.86H1004.15C1004.53 860.86 1004.83 860.962 1005.03 861.166C1005.24 861.37 1005.34 861.665 1005.34 862.05V863.036C1005.34 863.603 1005.12 864.09 1004.69 864.498L998.029 870.482H998.199Z" fill="#464646"/>
<path d="M745.249 565.572C745.407 565.821 745.487 566.048 745.487 566.252C745.487 566.479 745.396 566.66 745.215 566.796C745.033 566.932 744.784 567 744.467 567H742.767C742.132 567 741.656 566.739 741.339 566.218L735.729 557.65H730.595V565.81C730.595 566.173 730.493 566.467 730.289 566.694C730.085 566.898 729.79 567 729.405 567H727.909C727.546 567 727.251 566.898 727.025 566.694C726.821 566.467 726.719 566.173 726.719 565.81V544.05C726.719 543.665 726.821 543.37 727.025 543.166C727.251 542.962 727.546 542.86 727.909 542.86H737.429C738.947 542.86 740.307 543.166 741.509 543.778C742.71 544.367 743.639 545.229 744.297 546.362C744.977 547.473 745.317 548.776 745.317 550.272C745.317 552.085 744.818 553.627 743.821 554.896C742.823 556.143 741.486 556.97 739.809 557.378L745.249 565.572ZM730.595 554.42H736.783C738.233 554.42 739.378 554.069 740.217 553.366C741.078 552.641 741.509 551.609 741.509 550.272C741.509 548.912 741.078 547.881 740.217 547.178C739.378 546.453 738.233 546.09 736.783 546.09H730.595V554.42ZM750.985 567C750.622 567 750.327 566.898 750.101 566.694C749.897 566.467 749.795 566.173 749.795 565.81V544.05C749.795 543.665 749.897 543.37 750.101 543.166C750.327 542.962 750.622 542.86 750.985 542.86H765.095C765.48 542.86 765.775 542.962 765.979 543.166C766.183 543.37 766.285 543.665 766.285 544.05V544.934C766.285 545.297 766.183 545.591 765.979 545.818C765.775 546.022 765.48 546.124 765.095 546.124H753.671V552.924H764.245C764.63 552.924 764.925 553.026 765.129 553.23C765.333 553.434 765.435 553.729 765.435 554.114V554.998C765.435 555.361 765.333 555.655 765.129 555.882C764.925 556.086 764.63 556.188 764.245 556.188H753.671V563.736H765.435C765.82 563.736 766.115 563.838 766.319 564.042C766.523 564.246 766.625 564.541 766.625 564.926V565.81C766.625 566.173 766.523 566.467 766.319 566.694C766.115 566.898 765.82 567 765.435 567H750.985ZM788.152 567C787.472 567 787.019 566.683 786.792 566.048L785.194 561.458H774.518L772.92 566.048C772.694 566.683 772.24 567 771.56 567H770.132C769.792 567 769.52 566.932 769.316 566.796C769.135 566.637 769.044 566.422 769.044 566.15C769.044 566.014 769.078 565.844 769.146 565.64L777.034 543.812C777.261 543.177 777.714 542.86 778.394 542.86H781.42C782.1 542.86 782.554 543.177 782.78 543.812L790.668 565.64C790.736 565.844 790.77 566.014 790.77 566.15C790.77 566.422 790.668 566.637 790.464 566.796C790.283 566.932 790.022 567 789.682 567H788.152ZM784.106 558.228L783.052 555.236C783.03 555.191 782.78 554.477 782.304 553.094C781.103 549.694 780.287 547.269 779.856 545.818C779.199 547.903 778.326 550.487 777.238 553.57L776.66 555.27L775.64 558.228H784.106ZM803.993 567.544C801.59 567.544 799.505 567 797.737 565.912C795.992 564.824 794.643 563.328 793.691 561.424C792.762 559.497 792.297 557.321 792.297 554.896C792.297 552.471 792.762 550.317 793.691 548.436C794.62 546.532 795.969 545.036 797.737 543.948C799.505 542.86 801.624 542.316 804.095 542.316C805.591 542.316 806.951 542.531 808.175 542.962C809.399 543.37 810.634 544.061 811.881 545.036C812.221 545.308 812.391 545.614 812.391 545.954C812.391 546.181 812.278 546.441 812.051 546.736L811.303 547.62C811.031 547.937 810.748 548.096 810.453 548.096C810.226 548.096 809.943 547.983 809.603 547.756C808.583 546.963 807.642 546.419 806.781 546.124C805.942 545.829 805.036 545.682 804.061 545.682C802.474 545.682 801.092 546.067 799.913 546.838C798.734 547.609 797.828 548.697 797.193 550.102C796.558 551.485 796.241 553.083 796.241 554.896C796.241 556.709 796.558 558.319 797.193 559.724C797.828 561.129 798.723 562.229 799.879 563.022C801.035 563.793 802.384 564.178 803.925 564.178C805.081 564.178 806.112 563.974 807.019 563.566C807.926 563.158 808.912 562.501 809.977 561.594C810.272 561.345 810.555 561.22 810.827 561.22C811.122 561.22 811.405 561.379 811.677 561.696L812.425 562.546C812.652 562.795 812.765 563.056 812.765 563.328C812.765 563.713 812.584 564.053 812.221 564.348C810.906 565.481 809.603 566.297 808.311 566.796C807.042 567.295 805.602 567.544 803.993 567.544ZM823.933 567C823.57 567 823.276 566.898 823.049 566.694C822.845 566.467 822.743 566.173 822.743 565.81V546.158H816.555C816.192 546.158 815.898 546.056 815.671 545.852C815.467 545.625 815.365 545.331 815.365 544.968V544.05C815.365 543.665 815.467 543.37 815.671 543.166C815.898 542.962 816.192 542.86 816.555 542.86H832.773C833.158 542.86 833.453 542.962 833.657 543.166C833.861 543.37 833.963 543.665 833.963 544.05V544.968C833.963 545.331 833.861 545.625 833.657 545.852C833.453 546.056 833.158 546.158 832.773 546.158H826.619V565.81C826.619 566.173 826.517 566.467 826.313 566.694C826.109 566.898 825.814 567 825.429 567H823.933Z" fill="#464646"/>
<path d="M1038.52 543.846C1038.73 543.189 1039.17 542.86 1039.85 542.86H1041.38C1042.08 542.86 1042.43 543.155 1042.43 543.744C1042.43 543.948 1042.41 544.107 1042.37 544.22L1035.06 566.014C1034.85 566.671 1034.4 567 1033.7 567H1030.87C1030.17 567 1029.72 566.671 1029.51 566.014L1022.17 544.22C1022.12 544.107 1022.1 543.948 1022.1 543.744C1022.1 543.155 1022.45 542.86 1023.16 542.86H1024.75C1025.43 542.86 1025.88 543.189 1026.08 543.846L1029.65 554.624C1030.6 557.48 1031.5 560.393 1032.34 563.362C1032.86 561.435 1033.74 558.545 1034.99 554.692L1038.52 543.846ZM1055.16 567.544C1052.15 567.544 1049.84 566.841 1048.23 565.436C1046.62 564.008 1045.81 561.889 1045.81 559.078V544.05C1045.81 543.665 1045.92 543.37 1046.12 543.166C1046.35 542.962 1046.64 542.86 1047 542.86H1048.5C1048.89 542.86 1049.18 542.962 1049.38 543.166C1049.59 543.37 1049.69 543.665 1049.69 544.05V558.908C1049.69 560.608 1050.14 561.911 1051.05 562.818C1051.98 563.702 1053.35 564.144 1055.16 564.144C1056.98 564.144 1058.34 563.702 1059.24 562.818C1060.17 561.911 1060.64 560.608 1060.64 558.908V544.05C1060.64 543.665 1060.74 543.37 1060.94 543.166C1061.17 542.962 1061.47 542.86 1061.83 542.86H1063.36C1063.74 542.86 1064.04 542.962 1064.24 543.166C1064.45 543.37 1064.55 543.665 1064.55 544.05V559.078C1064.55 561.889 1063.74 564.008 1062.13 565.436C1060.52 566.841 1058.2 567.544 1055.16 567.544ZM1070.81 567C1070.45 567 1070.16 566.898 1069.93 566.694C1069.73 566.467 1069.62 566.173 1069.62 565.81V544.05C1069.62 543.665 1069.73 543.37 1069.93 543.166C1070.16 542.962 1070.45 542.86 1070.81 542.86H1084.92C1085.31 542.86 1085.6 542.962 1085.81 543.166C1086.01 543.37 1086.11 543.665 1086.11 544.05V544.934C1086.11 545.297 1086.01 545.591 1085.81 545.818C1085.6 546.022 1085.31 546.124 1084.92 546.124H1073.5V552.924H1084.07C1084.46 552.924 1084.75 553.026 1084.96 553.23C1085.16 553.434 1085.26 553.729 1085.26 554.114V554.998C1085.26 555.361 1085.16 555.655 1084.96 555.882C1084.75 556.086 1084.46 556.188 1084.07 556.188H1073.5V563.736H1085.26C1085.65 563.736 1085.94 563.838 1086.15 564.042C1086.35 564.246 1086.45 564.541 1086.45 564.926V565.81C1086.45 566.173 1086.35 566.467 1086.15 566.694C1085.94 566.898 1085.65 567 1085.26 567H1070.81ZM1113.1 563.872C1113.49 563.872 1113.78 563.974 1113.99 564.178C1114.19 564.382 1114.29 564.677 1114.29 565.062V565.81C1114.29 566.173 1114.19 566.467 1113.99 566.694C1113.78 566.898 1113.49 567 1113.1 567H1098.21C1097.85 567 1097.55 566.898 1097.33 566.694C1097.12 566.467 1097.02 566.173 1097.02 565.81V565.572C1097.02 563.895 1097.33 562.478 1097.94 561.322C1098.55 560.166 1099.32 559.214 1100.25 558.466C1101.18 557.695 1102.44 556.811 1104.02 555.814L1105.83 554.76C1106.96 554.103 1107.83 553.559 1108.44 553.128C1109.06 552.697 1109.56 552.176 1109.94 551.564C1110.35 550.929 1110.55 550.193 1110.55 549.354C1110.55 548.153 1110.14 547.212 1109.33 546.532C1108.51 545.852 1107.49 545.512 1106.27 545.512C1105.16 545.512 1104.17 545.784 1103.31 546.328C1102.47 546.849 1101.53 547.722 1100.49 548.946C1100.19 549.286 1099.88 549.456 1099.54 549.456C1099.33 549.456 1099.08 549.365 1098.79 549.184L1097.97 548.606C1097.59 548.334 1097.39 548.028 1097.39 547.688C1097.39 547.439 1097.5 547.178 1097.7 546.906C1098.97 545.319 1100.27 544.163 1101.61 543.438C1102.97 542.713 1104.49 542.35 1106.17 542.35C1107.82 542.35 1109.26 542.656 1110.48 543.268C1111.71 543.88 1112.64 544.707 1113.27 545.75C1113.93 546.793 1114.26 547.96 1114.26 549.252C1114.26 550.635 1113.99 551.802 1113.44 552.754C1112.9 553.706 1112.21 554.499 1111.37 555.134C1110.55 555.746 1109.4 556.494 1107.9 557.378C1107.18 557.786 1106.63 558.103 1106.27 558.33C1104.98 559.123 1104.01 559.735 1103.38 560.166C1102.77 560.597 1102.22 561.118 1101.75 561.73C1101.27 562.342 1100.96 563.056 1100.83 563.872H1113.1Z" fill="white"/>
<path d="M73.2 80C73.0187 80 72.896 79.9147 72.832 79.744L71.776 76.816H66.608L65.568 79.744C65.504 79.9147 65.3813 80 65.2 80H64.704C64.6187 80 64.5493 79.9787 64.496 79.936C64.4427 79.8933 64.416 79.8347 64.416 79.76L64.448 79.632L68.368 68.896C68.432 68.7253 68.5547 68.64 68.736 68.64H69.664C69.8453 68.64 69.968 68.7253 70.032 68.896L73.952 79.632L73.984 79.76C73.984 79.8347 73.9573 79.8933 73.904 79.936C73.8507 79.9787 73.7813 80 73.696 80H73.2ZM71.424 75.856L70.864 74.288L70.736 73.952C70.5867 73.5467 70.3413 72.8693 70 71.92C69.6693 70.9707 69.3973 70.1653 69.184 69.504C68.896 70.4107 68.4427 71.728 67.824 73.456C67.7813 73.5733 67.7333 73.7013 67.68 73.84C67.6267 73.9787 67.5733 74.128 67.52 74.288L66.96 75.856H71.424ZM83.5423 68.96C83.5423 68.7467 83.6489 68.64 83.8623 68.64H84.3263C84.5396 68.64 84.6463 68.7467 84.6463 68.96V79.68C84.6463 79.8933 84.5396 80 84.3263 80H83.6063C83.4356 80 83.3023 79.9307 83.2063 79.792L79.7663 74.576L79.5743 74.272C78.2943 72.352 77.3769 70.9387 76.8223 70.032C76.8649 71.28 76.8863 72.72 76.8863 74.352V79.68C76.8863 79.8933 76.7796 80 76.5663 80H76.1023C75.8889 80 75.7823 79.8933 75.7823 79.68V68.96C75.7823 68.7467 75.8889 68.64 76.1023 68.64H76.8223C76.9929 68.64 77.1263 68.7093 77.2223 68.848L80.6463 74.048L81.2543 74.992C82.3316 76.624 83.1156 77.84 83.6063 78.64C83.5636 77.3707 83.5423 75.9253 83.5423 74.304V68.96ZM90.5116 80C90.2983 80 90.1916 79.8933 90.1916 79.68V69.584H86.8476C86.6343 69.584 86.5276 69.4773 86.5276 69.264V68.96C86.5276 68.7467 86.6343 68.64 86.8476 68.64H94.6556C94.869 68.64 94.9756 68.7467 94.9756 68.96V69.264C94.9756 69.4773 94.869 69.584 94.6556 69.584H91.3276V79.68C91.3276 79.8933 91.221 80 91.0076 80H90.5116ZM97.2924 80C97.079 80 96.9724 79.8933 96.9724 79.68V68.96C96.9724 68.7467 97.079 68.64 97.2924 68.64H97.7884C98.0017 68.64 98.1084 68.7467 98.1084 68.96V79.68C98.1084 79.8933 98.0017 80 97.7884 80H97.2924ZM105.562 80.24C104.474 80.24 103.535 79.9893 102.746 79.488C101.956 78.976 101.354 78.272 100.938 77.376C100.522 76.48 100.314 75.4613 100.314 74.32C100.314 73.168 100.522 72.144 100.938 71.248C101.354 70.352 101.962 69.6533 102.762 69.152C103.572 68.6507 104.543 68.4 105.674 68.4C106.324 68.4 106.932 68.5067 107.498 68.72C108.063 68.9227 108.666 69.2747 109.306 69.776C109.402 69.84 109.45 69.9147 109.45 70C109.45 70.064 109.418 70.1387 109.354 70.224L109.13 70.512C109.066 70.5973 108.991 70.64 108.906 70.64C108.82 70.64 108.74 70.608 108.666 70.544C108.09 70.096 107.567 69.792 107.098 69.632C106.639 69.4613 106.164 69.376 105.674 69.376C104.81 69.376 104.058 69.5893 103.418 70.016C102.788 70.432 102.303 71.0133 101.962 71.76C101.62 72.5067 101.45 73.36 101.45 74.32C101.45 75.2693 101.62 76.1227 101.962 76.88C102.303 77.6267 102.783 78.2133 103.402 78.64C104.02 79.056 104.735 79.264 105.546 79.264C106.186 79.264 106.751 79.1413 107.242 78.896C107.743 78.64 108.276 78.2453 108.842 77.712C108.927 77.648 109.002 77.616 109.066 77.616C109.151 77.616 109.231 77.6533 109.306 77.728L109.562 78.016C109.626 78.08 109.658 78.1493 109.658 78.224C109.658 78.32 109.604 78.416 109.498 78.512C108.836 79.1413 108.207 79.5893 107.61 79.856C107.012 80.112 106.33 80.24 105.562 80.24ZM111.98 80C111.767 80 111.66 79.8933 111.66 79.68V68.96C111.66 68.7467 111.767 68.64 111.98 68.64H112.476C112.689 68.64 112.796 68.7467 112.796 68.96V79.68C112.796 79.8933 112.689 80 112.476 80H111.98ZM115.977 80C115.764 80 115.657 79.8933 115.657 79.68V68.96C115.657 68.7467 115.764 68.64 115.977 68.64H120.281C121.38 68.64 122.265 68.928 122.937 69.504C123.609 70.08 123.945 70.896 123.945 71.952C123.945 73.008 123.609 73.8293 122.937 74.416C122.265 74.992 121.38 75.28 120.281 75.28H116.793V79.68C116.793 79.8933 116.687 80 116.473 80H115.977ZM120.137 74.336C120.969 74.336 121.625 74.1333 122.105 73.728C122.585 73.3227 122.825 72.7307 122.825 71.952C122.825 71.184 122.585 70.5973 122.105 70.192C121.625 69.7867 120.969 69.584 120.137 69.584H116.793V74.336H120.137ZM132.872 80C132.691 80 132.568 79.9147 132.504 79.744L131.448 76.816H126.28L125.24 79.744C125.176 79.9147 125.053 80 124.872 80H124.376C124.291 80 124.221 79.9787 124.168 79.936C124.115 79.8933 124.088 79.8347 124.088 79.76L124.12 79.632L128.04 68.896C128.104 68.7253 128.227 68.64 128.408 68.64H129.336C129.517 68.64 129.64 68.7253 129.704 68.896L133.624 79.632L133.656 79.76C133.656 79.8347 133.629 79.8933 133.576 79.936C133.523 79.9787 133.453 80 133.368 80H132.872ZM131.096 75.856L130.536 74.288L130.408 73.952C130.259 73.5467 130.013 72.8693 129.672 71.92C129.341 70.9707 129.069 70.1653 128.856 69.504C128.568 70.4107 128.115 71.728 127.496 73.456C127.453 73.5733 127.405 73.7013 127.352 73.84C127.299 73.9787 127.245 74.128 127.192 74.288L126.632 75.856H131.096ZM137.309 80C137.095 80 136.989 79.8933 136.989 79.68V69.584H133.645C133.431 69.584 133.325 69.4773 133.325 69.264V68.96C133.325 68.7467 133.431 68.64 133.645 68.64H141.453C141.666 68.64 141.773 68.7467 141.773 68.96V69.264C141.773 69.4773 141.666 69.584 141.453 69.584H138.125V79.68C138.125 79.8933 138.018 80 137.805 80H137.309ZM144.089 80C143.876 80 143.769 79.8933 143.769 79.68V68.96C143.769 68.7467 143.876 68.64 144.089 68.64H144.585C144.799 68.64 144.905 68.7467 144.905 68.96V79.68C144.905 79.8933 144.799 80 144.585 80H144.089ZM155.527 68.96C155.527 68.7467 155.633 68.64 155.847 68.64H156.311C156.524 68.64 156.631 68.7467 156.631 68.96V79.68C156.631 79.8933 156.524 80 156.311 80H155.591C155.42 80 155.287 79.9307 155.191 79.792L151.751 74.576L151.559 74.272C150.279 72.352 149.361 70.9387 148.807 70.032C148.849 71.28 148.871 72.72 148.871 74.352V79.68C148.871 79.8933 148.764 80 148.551 80H148.087C147.873 80 147.767 79.8933 147.767 79.68V68.96C147.767 68.7467 147.873 68.64 148.087 68.64H148.807C148.977 68.64 149.111 68.7093 149.207 68.848L152.631 74.048L153.239 74.992C154.316 76.624 155.1 77.84 155.591 78.64C155.548 77.3707 155.527 75.9253 155.527 74.304V68.96ZM164.096 75.152C163.883 75.152 163.776 75.0453 163.776 74.832V74.528C163.776 74.3147 163.883 74.208 164.096 74.208H168.336C168.549 74.208 168.656 74.3147 168.656 74.528V79.68C168.656 79.8933 168.549 80 168.336 80H168.064C167.872 80 167.765 79.8987 167.744 79.696L167.648 78.336C167.296 78.976 166.795 79.4507 166.144 79.76C165.504 80.0693 164.779 80.224 163.968 80.224C162.869 80.224 161.925 79.9787 161.136 79.488C160.347 78.9867 159.744 78.2933 159.328 77.408C158.923 76.512 158.72 75.4827 158.72 74.32C158.72 73.1893 158.933 72.176 159.36 71.28C159.797 70.384 160.421 69.6853 161.232 69.184C162.043 68.672 163.003 68.416 164.112 68.416C164.976 68.416 165.755 68.576 166.448 68.896C167.141 69.2053 167.808 69.6907 168.448 70.352C168.523 70.416 168.56 70.4907 168.56 70.576C168.56 70.6507 168.523 70.7253 168.448 70.8L168.176 71.088C168.112 71.1627 168.037 71.2 167.952 71.2C167.877 71.2 167.803 71.1627 167.728 71.088C167.12 70.4907 166.539 70.0587 165.984 69.792C165.44 69.5253 164.805 69.392 164.08 69.392C163.248 69.392 162.512 69.6 161.872 70.016C161.232 70.432 160.736 71.0187 160.384 71.776C160.032 72.5227 159.856 73.376 159.856 74.336C159.856 75.3067 160.021 76.1653 160.352 76.912C160.693 77.648 161.173 78.224 161.792 78.64C162.421 79.0453 163.157 79.248 164 79.248C164.693 79.248 165.307 79.1093 165.84 78.832C166.384 78.5547 166.811 78.1547 167.12 77.632C167.429 77.0987 167.584 76.4693 167.584 75.744V75.152H164.096Z" fill="#767676"/>
<path d="M67.808 118C67.4453 118 67.1507 117.898 66.924 117.694C66.72 117.467 66.618 117.173 66.618 116.81V95.05C66.618 94.6647 66.72 94.37 66.924 94.166C67.1507 93.962 67.4453 93.86 67.808 93.86H69.304C69.6893 93.86 69.984 93.962 70.188 94.166C70.392 94.37 70.494 94.6647 70.494 95.05V114.702H80.32C80.7053 114.702 81 114.804 81.204 115.008C81.408 115.212 81.51 115.507 81.51 115.892V116.81C81.51 117.173 81.408 117.467 81.204 117.694C81 117.898 80.7053 118 80.32 118H67.808ZM96.3377 113.716C96.6324 113.467 96.9157 113.342 97.1877 113.342C97.4597 113.342 97.7431 113.489 98.0377 113.784L98.5137 114.294C98.7631 114.589 98.8877 114.872 98.8877 115.144C98.8877 115.439 98.7404 115.722 98.4457 115.994C97.4031 116.901 96.3604 117.547 95.3177 117.932C94.2977 118.317 93.1644 118.51 91.9177 118.51C90.1724 118.51 88.6537 118.147 87.3617 117.422C86.0924 116.697 85.1064 115.677 84.4037 114.362C83.7237 113.025 83.3837 111.483 83.3837 109.738C83.3837 108.015 83.7124 106.474 84.3697 105.114C85.0497 103.731 86.0017 102.655 87.2257 101.884C88.4724 101.113 89.9231 100.728 91.5777 100.728C94.0484 100.728 95.9524 101.465 97.2897 102.938C98.6271 104.389 99.2957 106.395 99.2957 108.956V109.262C99.2731 109.625 99.1597 109.908 98.9557 110.112C98.7517 110.316 98.4571 110.418 98.0717 110.418H86.9197C87.0557 111.914 87.5431 113.138 88.3817 114.09C89.2431 115.019 90.4444 115.484 91.9857 115.484C92.8244 115.484 93.5611 115.359 94.1957 115.11C94.8304 114.838 95.5444 114.373 96.3377 113.716ZM91.5097 103.584C90.2631 103.584 89.2544 103.958 88.4837 104.706C87.7357 105.431 87.2484 106.463 87.0217 107.8H95.7597C95.6691 106.485 95.2611 105.454 94.5357 104.706C93.8104 103.958 92.8017 103.584 91.5097 103.584ZM114.462 102.326C114.462 101.986 114.564 101.725 114.768 101.544C114.995 101.34 115.289 101.238 115.652 101.238H116.604C116.989 101.238 117.284 101.34 117.488 101.544C117.692 101.748 117.794 102.043 117.794 102.428V117.388C117.794 119.632 117.069 121.377 115.618 122.624C114.19 123.871 112.286 124.494 109.906 124.494C107.526 124.494 105.282 123.882 103.174 122.658C102.743 122.431 102.528 122.125 102.528 121.74C102.528 121.536 102.619 121.287 102.8 120.992L103.242 120.346C103.491 119.961 103.797 119.768 104.16 119.768C104.409 119.768 104.659 119.847 104.908 120.006C105.815 120.527 106.653 120.901 107.424 121.128C108.195 121.377 109.011 121.502 109.872 121.502C111.187 121.502 112.241 121.139 113.034 120.414C113.85 119.711 114.258 118.601 114.258 117.082V115.28C113.125 116.889 111.425 117.694 109.158 117.694C107.753 117.694 106.483 117.343 105.35 116.64C104.239 115.915 103.367 114.917 102.732 113.648C102.12 112.356 101.814 110.883 101.814 109.228C101.814 107.573 102.12 106.111 102.732 104.842C103.367 103.55 104.239 102.541 105.35 101.816C106.483 101.091 107.753 100.728 109.158 100.728C111.561 100.728 113.329 101.623 114.462 103.414V102.326ZM109.872 114.668C111.187 114.668 112.263 114.169 113.102 113.172C113.941 112.152 114.36 110.837 114.36 109.228C114.36 107.641 113.941 106.349 113.102 105.352C112.286 104.332 111.209 103.822 109.872 103.822C108.512 103.822 107.435 104.321 106.642 105.318C105.849 106.315 105.452 107.619 105.452 109.228C105.452 110.86 105.849 112.175 106.642 113.172C107.435 114.169 108.512 114.668 109.872 114.668ZM129.027 100.728C131.294 100.728 133.039 101.261 134.263 102.326C135.487 103.369 136.099 104.763 136.099 106.508V116.81C136.099 117.173 135.997 117.467 135.793 117.694C135.589 117.898 135.294 118 134.909 118H134.025C133.662 118 133.368 117.898 133.141 117.694C132.937 117.467 132.835 117.173 132.835 116.81V116.062C132.291 116.855 131.543 117.467 130.591 117.898C129.639 118.329 128.528 118.544 127.259 118.544C125.514 118.544 124.074 118.159 122.941 117.388C121.83 116.595 121.275 115.405 121.275 113.818C121.275 112.05 121.932 110.747 123.247 109.908C124.584 109.047 126.432 108.401 128.789 107.97L132.631 107.256V106.644C132.631 105.715 132.302 105.001 131.645 104.502C131.01 103.981 130.16 103.72 129.095 103.72C128.188 103.72 127.395 103.879 126.715 104.196C126.058 104.491 125.344 104.989 124.573 105.692C124.278 105.941 123.995 106.066 123.723 106.066C123.451 106.066 123.168 105.941 122.873 105.692L122.329 105.216C122.034 104.944 121.887 104.649 121.887 104.332C121.887 104.037 122.023 103.754 122.295 103.482C123.27 102.553 124.301 101.861 125.389 101.408C126.477 100.955 127.69 100.728 129.027 100.728ZM127.769 115.654C129.129 115.654 130.274 115.291 131.203 114.566C132.155 113.841 132.631 112.798 132.631 111.438V109.874L129.673 110.486C128.018 110.826 126.794 111.211 126.001 111.642C125.208 112.073 124.811 112.73 124.811 113.614C124.811 114.249 125.072 114.747 125.593 115.11C126.114 115.473 126.84 115.654 127.769 115.654ZM147.595 118.51C145.94 118.51 144.478 118.147 143.209 117.422C141.962 116.697 140.987 115.665 140.285 114.328C139.605 112.968 139.265 111.393 139.265 109.602C139.265 107.811 139.616 106.247 140.319 104.91C141.021 103.573 142.007 102.541 143.277 101.816C144.546 101.091 146.008 100.728 147.663 100.728C148.864 100.728 149.941 100.909 150.893 101.272C151.867 101.612 152.797 102.201 153.681 103.04C153.953 103.312 154.089 103.595 154.089 103.89C154.089 104.162 153.941 104.445 153.647 104.74L153.069 105.318C152.819 105.567 152.547 105.692 152.253 105.692C151.958 105.692 151.652 105.556 151.335 105.284C150.677 104.717 150.054 104.332 149.465 104.128C148.898 103.901 148.286 103.788 147.629 103.788C146.133 103.788 144.977 104.343 144.161 105.454C143.345 106.565 142.937 107.947 142.937 109.602C142.937 111.257 143.345 112.651 144.161 113.784C144.977 114.895 146.133 115.45 147.629 115.45C148.354 115.45 149.023 115.314 149.635 115.042C150.247 114.747 150.904 114.26 151.607 113.58C151.901 113.285 152.207 113.138 152.525 113.138C152.797 113.138 153.057 113.251 153.307 113.478L153.885 113.954C154.179 114.203 154.327 114.487 154.327 114.804C154.327 115.144 154.157 115.507 153.817 115.892C152.887 116.844 151.924 117.524 150.927 117.932C149.952 118.317 148.841 118.51 147.595 118.51ZM167.651 102.224C167.855 101.567 168.297 101.238 168.977 101.238H170.201C170.541 101.238 170.801 101.317 170.983 101.476C171.164 101.635 171.255 101.85 171.255 102.122C171.255 102.258 171.221 102.417 171.153 102.598L165.067 120.074C164.523 121.661 163.843 122.783 163.027 123.44C162.233 124.12 161.1 124.46 159.627 124.46C158.947 124.46 158.369 124.415 157.893 124.324C157.575 124.301 157.337 124.188 157.179 123.984C157.02 123.803 156.941 123.576 156.941 123.304C156.941 123.145 156.952 123.021 156.975 122.93L157.077 122.488C157.235 121.853 157.575 121.536 158.097 121.536C158.301 121.536 158.493 121.547 158.675 121.57C158.856 121.593 159.037 121.604 159.219 121.604C159.876 121.604 160.42 121.434 160.851 121.094C161.304 120.754 161.678 120.131 161.973 119.224L162.075 118.952L156.261 102.598C156.193 102.417 156.159 102.247 156.159 102.088C156.159 101.816 156.249 101.612 156.431 101.476C156.635 101.317 156.907 101.238 157.247 101.238H158.539C159.241 101.238 159.695 101.567 159.899 102.224L161.225 106.202C162.222 109.058 163.072 111.676 163.775 114.056L164.761 111.03C164.919 110.554 165.157 109.806 165.475 108.786C165.792 107.766 166.075 106.893 166.325 106.168L167.651 102.224Z" fill="#464646"/>
<rect x="8" y="8" width="1904" height="1063" stroke="white" stroke-width="16"/>
<defs>
<filter id="filter0_dd_1134_14281" x="621" y="111.98" width="678" height="883.04" filterUnits="userSpaceOnUse" color-interpolation-filters="sRGB">
<feFlood flood-opacity="0" result="BackgroundImageFix"/>
<feColorMatrix in="SourceAlpha" type="matrix" values="0 0 0 0 0 0 0 0 0 0 0 0 0 0 0 0 0 0 127 0" result="hardAlpha"/>
<feOffset dy="14"/>
<feGaussianBlur stdDeviation="14"/>
<feColorMatrix type="matrix" values="0 0 0 0 0.272549 0 0 0 0 0.272549 0 0 0 0 0.272549 0 0 0 0.25 0"/>
<feBlend mode="normal" in2="BackgroundImageFix" result="effect1_dropShadow_1134_14281"/>
<feColorMatrix in="SourceAlpha" type="matrix" values="0 0 0 0 0 0 0 0 0 0 0 0 0 0 0 0 0 0 127 0" result="hardAlpha"/>
<feOffset dy="9"/>
<feGaussianBlur stdDeviation="6"/>
<feColorMatrix type="matrix" values="0 0 0 0 0.272549 0 0 0 0 0.272549 0 0 0 0 0.272549 0 0 0 0.22 0"/>
<feBlend mode="normal" in2="effect1_dropShadow_1134_14281" result="effect2_dropShadow_1134_14281"/>
<feBlend mode="normal" in="SourceGraphic" in2="effect2_dropShadow_1134_14281" result="shape"/>
</filter>
</defs>
</svg>
