<svg width="1920" height="1080" viewBox="0 0 1920 1080" fill="none" xmlns="http://www.w3.org/2000/svg">
<g clip-path="url(#clip0_1131_13901)">
<rect width="1920" height="1080" fill="white"/>
<rect x="8" y="8" width="1904" height="1064" fill="#0063FB" stroke="white" stroke-width="16"/>
<rect x="1737.69" y="898.451" width="166" height="166" fill="#38BDF8"/>
<path d="M1915.69 1076.49H1725.6V886.013H1915.69V1076.49ZM1738.04 1064.03H1903.18V898.555H1738.04V1064.03Z" fill="white"/>
<path d="M1827.59 809.549C1869.26 809.549 1903.18 843.533 1903.18 885.285V886.094H1826.78V809.549H1827.59ZM1827.59 797.007H1814.35V898.474H1915.61V885.204C1915.61 836.493 1876.21 797.007 1827.59 797.007Z" fill="white"/>
<path d="M1649.21 992.659L1720.43 1064.03H1649.21V992.659ZM1649.21 975.019H1636.77V1076.49H1738.04V1064.03L1649.21 975.019Z" fill="white"/>
<path d="M1725.6 987.48V1064.03H1649.21V987.48H1725.6ZM1738.04 975.019H1636.77V1076.49H1738.04V975.019Z" fill="white"/>
<path d="M1559.49 952.121L1505.55 1006.17L1451.6 952.121L1505.55 898.07L1559.49 952.121ZM1577.09 952.121L1505.55 880.43L1434 952.121L1505.55 1023.81L1577.09 952.121Z" fill="white"/>
<path d="M1700.69 850.451H1622.69V772.451H1700.69V850.451Z" fill="#BAE6FD"/>
<path d="M1623.61 773.461H1699.92V849.925H1623.61V773.461ZM1611.09 761V862.386H1712.28V761H1611.09Z" fill="white"/>
<path fill-rule="evenodd" clip-rule="evenodd" d="M181.281 163.915H165.717C164.746 163.915 163.957 164.696 163.957 165.656V214.344C163.957 215.304 164.746 216.086 165.717 216.086H216.69V198.946C216.69 179.63 200.805 163.915 181.281 163.915Z" fill="#0063FB"/>
<path fill-rule="evenodd" clip-rule="evenodd" d="M328.283 163.915H222.406C221.436 163.915 220.646 164.696 220.646 165.656V216.085H328.283C329.253 216.085 330.043 215.304 330.043 214.344V165.656C330.043 164.696 329.253 163.915 328.283 163.915Z" fill="#06BEFB"/>
<path fill-rule="evenodd" clip-rule="evenodd" d="M163.957 214.344V165.656C163.957 164.696 164.747 163.915 165.717 163.915H181.281C200.805 163.915 216.689 179.63 216.689 198.946V216.085H165.717C164.747 216.085 163.957 215.304 163.957 214.344ZM330.043 214.344C330.043 215.304 329.253 216.085 328.283 216.085H220.646V165.656C220.646 164.696 221.436 163.915 222.407 163.915H328.283C329.253 163.915 330.043 164.696 330.043 165.656V214.344ZM328.283 160H222.407C219.254 160 216.689 162.537 216.689 165.656V181.939C210.296 168.963 196.827 160 181.281 160H165.717C162.565 160 160 162.537 160 165.656V214.344C160 217.463 162.565 220 165.717 220H328.283C331.435 220 334 217.463 334 214.344V165.656C334 162.537 331.435 160 328.283 160Z" fill="white"/>
<path fill-rule="evenodd" clip-rule="evenodd" d="M238.503 179.828H252.76C253.379 179.828 253.881 180.325 253.881 180.938V184.418C253.881 185.031 253.379 185.528 252.76 185.528H243.618V190.12H250.897C251.516 190.12 252.018 190.617 252.018 191.229V194.193C252.018 194.805 251.516 195.302 250.897 195.302H243.618V199.063C243.618 199.675 243.115 200.172 242.496 200.172H238.503C237.883 200.172 237.381 199.675 237.381 199.063V180.938C237.381 180.325 237.883 179.828 238.503 179.828ZM260.092 179.828H264.085C264.704 179.828 265.207 180.325 265.207 180.938V199.063C265.207 199.675 264.704 200.172 264.085 200.172H260.092C259.472 200.172 258.97 199.675 258.97 199.063V180.938C258.97 180.325 259.472 179.828 260.092 179.828ZM312.187 179.828H308.193C307.574 179.828 307.072 180.325 307.072 180.938V189.825L300.828 180.491C300.551 180.077 300.082 179.828 299.58 179.828H296.513C295.893 179.828 295.391 180.325 295.391 180.938V199.063C295.391 199.675 295.893 200.172 296.513 200.172H300.506C301.126 200.172 301.628 199.675 301.628 199.063V190.278L307.735 199.503C308.012 199.92 308.482 200.172 308.986 200.172H312.187C312.806 200.172 313.308 199.675 313.308 199.063V180.938C313.308 180.325 312.806 179.828 312.187 179.828ZM284.142 179.828H288.136C288.755 179.828 289.258 180.325 289.258 180.938V199.063C289.258 199.675 288.755 200.172 288.136 200.172H284.935C284.431 200.172 283.961 199.92 283.685 199.503L277.577 190.278V199.063C277.577 199.675 277.075 200.172 276.456 200.172H272.462C271.843 200.172 271.34 199.675 271.34 199.063V180.938C271.34 180.325 271.843 179.828 272.462 179.828H275.53C276.031 179.828 276.5 180.077 276.777 180.491L283.021 189.825V180.938C283.021 180.325 283.523 179.828 284.142 179.828Z" fill="white"/>
<path d="M196.864 375.632C190.08 375.632 184.16 374.096 179.104 371.024C174.048 367.888 170.144 363.632 167.392 358.256C164.704 352.816 163.36 346.704 163.36 339.92C163.36 333.136 164.704 327.056 167.392 321.68C170.144 316.24 174.048 311.984 179.104 308.912C184.16 305.776 190.08 304.208 196.864 304.208C203.648 304.208 209.536 305.776 214.528 308.912C219.584 311.984 223.456 316.24 226.144 321.68C228.896 327.056 230.272 333.136 230.272 339.92C230.272 346.704 228.896 352.816 226.144 358.256C223.456 363.632 219.584 367.888 214.528 371.024C209.536 374.096 203.648 375.632 196.864 375.632ZM196.864 364.496C200.96 364.496 204.544 363.504 207.616 361.52C210.688 359.472 213.056 356.592 214.72 352.88C216.448 349.168 217.312 344.848 217.312 339.92C217.312 335.056 216.448 330.768 214.72 327.056C213.056 323.344 210.688 320.464 207.616 318.416C204.544 316.368 200.96 315.344 196.864 315.344C192.768 315.344 189.152 316.368 186.016 318.416C182.944 320.464 180.544 323.344 178.816 327.056C177.152 330.768 176.32 335.056 176.32 339.92C176.32 344.848 177.152 349.168 178.816 352.88C180.544 356.592 182.944 359.472 186.016 361.52C189.152 363.504 192.768 364.496 196.864 364.496ZM268.634 330.512C268.634 327.952 269.914 326.672 272.474 326.672H276.506C279.066 326.672 280.346 327.952 280.346 330.512V370.16C280.346 372.72 279.066 374 276.506 374H273.53C270.97 374 269.69 372.72 269.69 370.16V368.816C268.41 370.928 266.586 372.592 264.218 373.808C261.914 374.96 259.066 375.536 255.674 375.536C250.042 375.536 245.85 374.16 243.098 371.408C240.346 368.656 238.97 365.008 238.97 360.464V330.512C238.97 327.952 240.25 326.672 242.81 326.672H246.842C249.402 326.672 250.682 327.952 250.682 330.512V357.2C250.682 359.76 251.354 361.776 252.698 363.248C254.042 364.656 256.058 365.36 258.746 365.36C261.818 365.36 264.218 364.496 265.946 362.768C267.738 361.04 268.634 358.544 268.634 355.28V330.512ZM313.941 326.096C315.157 326.096 316.469 326.256 317.877 326.576C319.861 326.96 320.853 328.112 320.853 330.032C320.853 330.544 320.821 330.928 320.757 331.184L320.181 333.968C319.797 336.08 318.773 337.136 317.109 337.136C316.789 337.136 316.533 337.104 316.341 337.04C315.189 336.848 314.197 336.752 313.365 336.752C310.165 336.752 307.605 337.968 305.685 340.4C303.829 342.832 302.901 346.192 302.901 350.48V370.16C302.901 372.72 301.621 374 299.061 374H295.029C292.469 374 291.189 372.72 291.189 370.16V330.512C291.189 327.952 292.469 326.672 295.029 326.672H298.293C300.853 326.672 302.133 327.952 302.133 330.512V333.584C304.693 328.592 308.629 326.096 313.941 326.096ZM381.773 309.584C381.773 307.024 383.053 305.744 385.613 305.744H389.645C392.205 305.744 393.485 307.024 393.485 309.584V370.16C393.485 372.72 392.205 374 389.645 374H386.477C383.917 374 382.637 372.72 382.637 370.16V367.76C379.245 372.88 374.157 375.44 367.373 375.44C363.405 375.44 359.821 374.416 356.621 372.368C353.485 370.32 351.021 367.408 349.229 363.632C347.437 359.792 346.541 355.376 346.541 350.384C346.541 345.392 347.437 341.008 349.229 337.232C351.085 333.456 353.613 330.544 356.813 328.496C360.013 326.448 363.597 325.424 367.565 325.424C373.709 325.424 378.445 327.504 381.773 331.664V309.584ZM370.061 365.36C373.645 365.36 376.557 364.016 378.797 361.328C381.101 358.64 382.253 354.992 382.253 350.384C382.253 345.776 381.101 342.16 378.797 339.536C376.557 336.912 373.677 335.6 370.157 335.6C366.637 335.6 363.789 336.944 361.613 339.632C359.501 342.256 358.445 345.84 358.445 350.384C358.445 354.992 359.469 358.64 361.517 361.328C363.629 364.016 366.477 365.36 370.061 365.36ZM438.041 361.424C439.001 360.656 439.897 360.272 440.729 360.272C441.689 360.272 442.585 360.752 443.417 361.712L445.049 363.44C445.881 364.272 446.297 365.136 446.297 366.032C446.297 367.12 445.785 368.08 444.761 368.912C441.881 371.28 438.969 372.976 436.025 374C433.145 375.024 429.977 375.536 426.521 375.536C421.465 375.536 417.081 374.512 413.369 372.464C409.657 370.416 406.809 367.504 404.825 363.728C402.841 359.952 401.849 355.568 401.849 350.576C401.849 345.712 402.777 341.36 404.633 337.52C406.553 333.616 409.305 330.576 412.889 328.4C416.473 326.224 420.665 325.136 425.465 325.136C432.569 325.136 438.009 327.216 441.785 331.376C445.625 335.536 447.545 341.296 447.545 348.656V349.52C447.481 352.016 446.169 353.264 443.609 353.264H413.273C413.721 357.04 415.065 360.048 417.305 362.288C419.609 364.528 422.745 365.648 426.713 365.648C428.889 365.648 430.809 365.328 432.473 364.688C434.137 364.048 435.993 362.96 438.041 361.424ZM425.177 334.352C422.041 334.352 419.481 335.312 417.497 337.232C415.513 339.088 414.201 341.648 413.561 344.912H436.121C435.865 341.648 434.809 339.088 432.953 337.232C431.097 335.312 428.505 334.352 425.177 334.352ZM475.194 375.536C471.226 375.536 467.706 375.056 464.634 374.096C461.562 373.136 458.49 371.44 455.418 369.008C454.33 368.112 453.786 367.184 453.786 366.224C453.786 365.328 454.17 364.464 454.938 363.632L456.666 361.712C457.562 360.752 458.522 360.272 459.546 360.272C460.378 360.272 461.242 360.592 462.138 361.232C464.698 363.088 466.938 364.368 468.858 365.072C470.842 365.712 473.05 366.032 475.482 366.032C477.978 366.032 479.994 365.584 481.53 364.688C483.066 363.792 483.834 362.512 483.834 360.848C483.834 359.568 483.354 358.576 482.394 357.872C481.434 357.104 480.218 356.528 478.746 356.144C477.338 355.696 475.098 355.152 472.026 354.512C467.482 353.552 463.962 352.496 461.466 351.344C459.034 350.128 457.274 348.624 456.186 346.832C455.162 345.04 454.65 342.736 454.65 339.92C454.65 337.168 455.418 334.672 456.954 332.432C458.554 330.192 460.826 328.432 463.77 327.152C466.714 325.808 470.202 325.136 474.234 325.136C477.754 325.136 480.826 325.52 483.45 326.288C486.138 326.992 488.794 328.272 491.418 330.128C492.57 330.896 493.146 331.824 493.146 332.912C493.146 333.744 492.794 334.608 492.09 335.504L490.65 337.328C489.818 338.352 488.858 338.864 487.77 338.864C486.938 338.864 486.074 338.576 485.178 338C483.194 336.72 481.338 335.824 479.61 335.312C477.946 334.8 476.09 334.544 474.042 334.544C471.61 334.544 469.626 335.024 468.09 335.984C466.618 336.88 465.882 338.064 465.882 339.536C465.882 340.56 466.234 341.36 466.938 341.936C467.642 342.512 468.666 342.992 470.01 343.376C471.418 343.76 473.754 344.336 477.018 345.104C481.498 346.064 485.05 347.152 487.674 348.368C490.298 349.584 492.218 351.12 493.434 352.976C494.65 354.832 495.258 357.2 495.258 360.08C495.258 364.688 493.466 368.432 489.882 371.312C486.298 374.128 481.402 375.536 475.194 375.536ZM509.297 318.608C507.185 318.608 505.393 317.936 503.921 316.592C502.513 315.184 501.809 313.488 501.809 311.504C501.809 309.52 502.513 307.856 503.921 306.512C505.393 305.104 507.185 304.4 509.297 304.4C511.409 304.4 513.169 305.104 514.577 306.512C516.049 307.856 516.785 309.52 516.785 311.504C516.785 313.488 516.049 315.184 514.577 316.592C513.169 317.936 511.409 318.608 509.297 318.608ZM507.185 374C504.625 374 503.345 372.72 503.345 370.16V330.512C503.345 327.952 504.625 326.672 507.185 326.672H511.217C513.777 326.672 515.057 327.952 515.057 330.512V370.16C515.057 372.72 513.777 374 511.217 374H507.185ZM558.963 329.36C558.963 327.568 560.243 326.672 562.803 326.672H565.971C568.531 326.672 569.811 327.952 569.811 330.512V371.792C569.811 378.32 567.667 383.344 563.379 386.864C559.091 390.448 553.555 392.24 546.771 392.24C540.115 392.24 533.779 390.576 527.763 387.248C526.483 386.544 525.843 385.584 525.843 384.368C525.843 383.536 526.099 382.736 526.611 381.968L528.051 379.856C528.883 378.576 529.875 377.936 531.027 377.936C531.731 377.936 532.499 378.16 533.331 378.608C535.827 379.952 538.099 380.912 540.147 381.488C542.195 382.128 544.371 382.448 546.675 382.448C550.195 382.448 553.011 381.488 555.123 379.568C557.235 377.712 558.291 374.768 558.291 370.736V366.896C555.091 370.928 550.483 372.944 544.467 372.944C540.499 372.944 536.915 371.952 533.715 369.968C530.579 367.92 528.115 365.104 526.323 361.52C524.531 357.872 523.635 353.712 523.635 349.04C523.635 344.368 524.531 340.24 526.323 336.656C528.115 333.008 530.579 330.192 533.715 328.208C536.915 326.16 540.499 325.136 544.467 325.136C550.995 325.136 555.827 327.44 558.963 332.048V329.36ZM547.059 363.056C550.451 363.056 553.235 361.776 555.411 359.216C557.587 356.592 558.675 353.2 558.675 349.04C558.675 344.88 557.587 341.552 555.411 339.056C553.235 336.496 550.451 335.216 547.059 335.216C543.539 335.216 540.723 336.496 538.611 339.056C536.499 341.552 535.443 344.88 535.443 349.04C535.443 353.2 536.499 356.592 538.611 359.216C540.723 361.776 543.539 363.056 547.059 363.056ZM605.843 325.136C611.283 325.136 615.443 326.64 618.323 329.648C621.267 332.656 622.739 336.624 622.739 341.552V370.16C622.739 372.72 621.459 374 618.899 374H614.867C612.307 374 611.027 372.72 611.027 370.16V345.104C611.027 341.968 610.259 339.536 608.723 337.808C607.187 336.08 604.979 335.216 602.099 335.216C599.283 335.216 596.947 336.176 595.091 338.096C593.235 340.016 592.307 342.448 592.307 345.392V370.16C592.307 372.72 591.027 374 588.467 374H584.435C581.875 374 580.595 372.72 580.595 370.16V330.512C580.595 327.952 581.875 326.672 584.435 326.672H587.699C590.259 326.672 591.539 327.952 591.539 330.512V332.144C593.075 329.904 595.059 328.176 597.491 326.96C599.923 325.744 602.707 325.136 605.843 325.136ZM680.863 325.328C684.895 325.328 688.479 326.352 691.615 328.4C694.815 330.448 697.311 333.36 699.103 337.136C700.895 340.912 701.791 345.296 701.791 350.288C701.791 355.28 700.895 359.696 699.103 363.536C697.311 367.312 694.815 370.224 691.615 372.272C688.415 374.32 684.831 375.344 680.863 375.344C674.527 375.344 669.727 373.2 666.463 368.912V386.864C666.463 389.424 665.183 390.704 662.623 390.704H658.591C656.031 390.704 654.751 389.424 654.751 386.864V330.512C654.751 327.952 656.031 326.672 658.591 326.672H661.855C664.415 326.672 665.695 327.952 665.695 330.512V333.008C669.087 327.888 674.143 325.328 680.863 325.328ZM678.175 365.072C681.695 365.072 684.511 363.76 686.623 361.136C688.799 358.448 689.887 354.832 689.887 350.288C689.887 345.744 688.831 342.128 686.719 339.44C684.671 336.752 681.855 335.408 678.271 335.408C674.687 335.408 671.743 336.752 669.439 339.44C667.199 342.064 666.079 345.68 666.079 350.288C666.079 354.896 667.199 358.512 669.439 361.136C671.743 363.76 674.655 365.072 678.175 365.072ZM733.003 326.096C734.219 326.096 735.531 326.256 736.939 326.576C738.923 326.96 739.915 328.112 739.915 330.032C739.915 330.544 739.883 330.928 739.819 331.184L739.243 333.968C738.859 336.08 737.835 337.136 736.171 337.136C735.851 337.136 735.595 337.104 735.403 337.04C734.251 336.848 733.259 336.752 732.427 336.752C729.227 336.752 726.667 337.968 724.747 340.4C722.891 342.832 721.963 346.192 721.963 350.48V370.16C721.963 372.72 720.683 374 718.123 374H714.091C711.531 374 710.251 372.72 710.251 370.16V330.512C710.251 327.952 711.531 326.672 714.091 326.672H717.355C719.915 326.672 721.195 327.952 721.195 330.512V333.584C723.755 328.592 727.691 326.096 733.003 326.096ZM766.641 375.536C761.905 375.536 757.681 374.48 753.969 372.368C750.257 370.256 747.345 367.28 745.233 363.44C743.185 359.6 742.161 355.216 742.161 350.288C742.161 345.36 743.185 341.008 745.233 337.232C747.345 333.392 750.257 330.416 753.969 328.304C757.681 326.192 761.905 325.136 766.641 325.136C771.377 325.136 775.601 326.192 779.313 328.304C783.025 330.416 785.905 333.392 787.953 337.232C790.065 341.008 791.121 345.36 791.121 350.288C791.121 355.216 790.065 359.6 787.953 363.44C785.905 367.28 783.025 370.256 779.313 372.368C775.601 374.48 771.377 375.536 766.641 375.536ZM766.641 365.648C770.417 365.648 773.457 364.272 775.761 361.52C778.065 358.704 779.217 354.96 779.217 350.288C779.217 345.744 778.065 342.096 775.761 339.344C773.457 336.528 770.417 335.12 766.641 335.12C762.865 335.12 759.825 336.528 757.521 339.344C755.217 342.096 754.065 345.744 754.065 350.288C754.065 354.96 755.217 358.704 757.521 361.52C759.825 364.272 762.865 365.648 766.641 365.648ZM821.38 375.536C816.644 375.536 812.452 374.512 808.804 372.464C805.22 370.416 802.404 367.504 800.356 363.728C798.372 359.888 797.38 355.408 797.38 350.288C797.38 345.168 798.404 340.72 800.452 336.944C802.5 333.104 805.348 330.192 808.996 328.208C812.708 326.16 816.932 325.136 821.668 325.136C824.996 325.136 828.004 325.616 830.692 326.576C833.444 327.536 836.1 329.136 838.66 331.376C839.62 332.208 840.1 333.104 840.1 334.064C840.1 335.024 839.62 335.952 838.66 336.848L836.74 338.768C835.908 339.6 835.044 340.016 834.148 340.016C833.316 340.016 832.324 339.6 831.172 338.768C829.38 337.36 827.748 336.4 826.276 335.888C824.868 335.376 823.332 335.12 821.668 335.12C817.764 335.12 814.724 336.56 812.548 339.44C810.372 342.32 809.284 345.936 809.284 350.288C809.284 354.64 810.34 358.288 812.452 361.232C814.628 364.112 817.668 365.552 821.572 365.552C823.492 365.552 825.22 365.2 826.756 364.496C828.356 363.728 830.052 362.48 831.844 360.752C832.804 359.792 833.796 359.312 834.82 359.312C835.652 359.312 836.516 359.696 837.412 360.464L839.332 362.096C840.292 362.864 840.772 363.792 840.772 364.88C840.772 365.968 840.196 367.088 839.044 368.24C836.42 370.928 833.7 372.816 830.884 373.904C828.132 374.992 824.964 375.536 821.38 375.536ZM881.291 361.424C882.251 360.656 883.147 360.272 883.979 360.272C884.939 360.272 885.835 360.752 886.667 361.712L888.299 363.44C889.131 364.272 889.547 365.136 889.547 366.032C889.547 367.12 889.035 368.08 888.011 368.912C885.131 371.28 882.219 372.976 879.275 374C876.395 375.024 873.227 375.536 869.771 375.536C864.715 375.536 860.331 374.512 856.619 372.464C852.907 370.416 850.059 367.504 848.075 363.728C846.091 359.952 845.099 355.568 845.099 350.576C845.099 345.712 846.027 341.36 847.883 337.52C849.803 333.616 852.555 330.576 856.139 328.4C859.723 326.224 863.915 325.136 868.715 325.136C875.819 325.136 881.259 327.216 885.035 331.376C888.875 335.536 890.795 341.296 890.795 348.656V349.52C890.731 352.016 889.419 353.264 886.859 353.264H856.523C856.971 357.04 858.315 360.048 860.555 362.288C862.859 364.528 865.995 365.648 869.963 365.648C872.139 365.648 874.059 365.328 875.723 364.688C877.387 364.048 879.243 362.96 881.291 361.424ZM868.427 334.352C865.291 334.352 862.731 335.312 860.747 337.232C858.763 339.088 857.451 341.648 856.811 344.912H879.371C879.115 341.648 878.059 339.088 876.203 337.232C874.347 335.312 871.755 334.352 868.427 334.352ZM918.444 375.536C914.476 375.536 910.956 375.056 907.884 374.096C904.812 373.136 901.74 371.44 898.668 369.008C897.58 368.112 897.036 367.184 897.036 366.224C897.036 365.328 897.42 364.464 898.188 363.632L899.916 361.712C900.812 360.752 901.772 360.272 902.796 360.272C903.628 360.272 904.492 360.592 905.388 361.232C907.948 363.088 910.188 364.368 912.108 365.072C914.092 365.712 916.3 366.032 918.732 366.032C921.228 366.032 923.244 365.584 924.78 364.688C926.316 363.792 927.084 362.512 927.084 360.848C927.084 359.568 926.604 358.576 925.644 357.872C924.684 357.104 923.468 356.528 921.996 356.144C920.588 355.696 918.348 355.152 915.276 354.512C910.732 353.552 907.212 352.496 904.716 351.344C902.284 350.128 900.524 348.624 899.436 346.832C898.412 345.04 897.9 342.736 897.9 339.92C897.9 337.168 898.668 334.672 900.204 332.432C901.804 330.192 904.076 328.432 907.02 327.152C909.964 325.808 913.452 325.136 917.484 325.136C921.004 325.136 924.076 325.52 926.7 326.288C929.388 326.992 932.044 328.272 934.668 330.128C935.82 330.896 936.396 331.824 936.396 332.912C936.396 333.744 936.044 334.608 935.34 335.504L933.9 337.328C933.068 338.352 932.108 338.864 931.02 338.864C930.188 338.864 929.324 338.576 928.428 338C926.444 336.72 924.588 335.824 922.86 335.312C921.196 334.8 919.34 334.544 917.292 334.544C914.86 334.544 912.876 335.024 911.34 335.984C909.868 336.88 909.132 338.064 909.132 339.536C909.132 340.56 909.484 341.36 910.188 341.936C910.892 342.512 911.916 342.992 913.26 343.376C914.668 343.76 917.004 344.336 920.268 345.104C924.748 346.064 928.3 347.152 930.924 348.368C933.548 349.584 935.468 351.12 936.684 352.976C937.9 354.832 938.508 357.2 938.508 360.08C938.508 364.688 936.716 368.432 933.132 371.312C929.548 374.128 924.652 375.536 918.444 375.536ZM965.507 375.536C961.539 375.536 958.019 375.056 954.947 374.096C951.875 373.136 948.803 371.44 945.731 369.008C944.643 368.112 944.099 367.184 944.099 366.224C944.099 365.328 944.483 364.464 945.251 363.632L946.979 361.712C947.875 360.752 948.835 360.272 949.859 360.272C950.691 360.272 951.555 360.592 952.451 361.232C955.011 363.088 957.251 364.368 959.171 365.072C961.155 365.712 963.363 366.032 965.795 366.032C968.291 366.032 970.307 365.584 971.843 364.688C973.379 363.792 974.147 362.512 974.147 360.848C974.147 359.568 973.667 358.576 972.707 357.872C971.747 357.104 970.531 356.528 969.059 356.144C967.651 355.696 965.411 355.152 962.339 354.512C957.795 353.552 954.275 352.496 951.779 351.344C949.347 350.128 947.587 348.624 946.499 346.832C945.475 345.04 944.963 342.736 944.963 339.92C944.963 337.168 945.731 334.672 947.267 332.432C948.867 330.192 951.139 328.432 954.083 327.152C957.027 325.808 960.515 325.136 964.547 325.136C968.067 325.136 971.139 325.52 973.763 326.288C976.451 326.992 979.107 328.272 981.731 330.128C982.883 330.896 983.459 331.824 983.459 332.912C983.459 333.744 983.107 334.608 982.403 335.504L980.963 337.328C980.131 338.352 979.171 338.864 978.083 338.864C977.251 338.864 976.387 338.576 975.491 338C973.507 336.72 971.651 335.824 969.923 335.312C968.259 334.8 966.403 334.544 964.355 334.544C961.923 334.544 959.939 335.024 958.403 335.984C956.931 336.88 956.195 338.064 956.195 339.536C956.195 340.56 956.547 341.36 957.251 341.936C957.955 342.512 958.979 342.992 960.323 343.376C961.731 343.76 964.067 344.336 967.331 345.104C971.811 346.064 975.363 347.152 977.987 348.368C980.611 349.584 982.531 351.12 983.747 352.976C984.963 354.832 985.571 357.2 985.571 360.08C985.571 364.688 983.779 368.432 980.195 371.312C976.611 374.128 971.715 375.536 965.507 375.536ZM166.36 446C165.56 446 165.16 445.6 165.16 444.8V404.6C165.16 403.8 165.56 403.4 166.36 403.4H180.4C184.36 403.4 187.74 404.3 190.54 406.1C193.34 407.9 195.46 410.4 196.9 413.6C198.34 416.8 199.06 420.5 199.06 424.7C199.06 428.9 198.34 432.6 196.9 435.8C195.46 439 193.34 441.5 190.54 443.3C187.74 445.1 184.36 446 180.4 446H166.36ZM179.68 442.46C184.52 442.46 188.24 440.88 190.84 437.72C193.44 434.52 194.74 430.18 194.74 424.7C194.74 419.26 193.44 414.94 190.84 411.74C188.24 408.54 184.52 406.94 179.68 406.94H169.42V442.46H179.68ZM219.219 446.78C216.459 446.78 213.999 446.12 211.839 444.8C209.679 443.48 207.999 441.66 206.799 439.34C205.599 436.98 204.999 434.28 204.999 431.24C204.999 428.2 205.599 425.52 206.799 423.2C207.999 420.84 209.679 419 211.839 417.68C213.999 416.36 216.459 415.7 219.219 415.7C221.979 415.7 224.439 416.36 226.599 417.68C228.759 419 230.439 420.84 231.639 423.2C232.839 425.52 233.439 428.2 233.439 431.24C233.439 434.28 232.839 436.98 231.639 439.34C230.439 441.66 228.759 443.48 226.599 444.8C224.439 446.12 221.979 446.78 219.219 446.78ZM219.219 443.48C222.299 443.48 224.759 442.36 226.599 440.12C228.439 437.84 229.359 434.88 229.359 431.24C229.359 427.6 228.439 424.66 226.599 422.42C224.759 420.14 222.299 419 219.219 419C216.139 419 213.679 420.14 211.839 422.42C209.999 424.66 209.079 427.6 209.079 431.24C209.079 434.88 209.999 437.84 211.839 440.12C213.679 442.36 216.139 443.48 219.219 443.48ZM262.21 438.98C262.49 438.7 262.79 438.56 263.11 438.56C263.39 438.56 263.65 438.68 263.89 438.92L264.67 439.64C264.95 439.92 265.09 440.22 265.09 440.54C265.09 440.78 264.97 441.06 264.73 441.38C262.77 443.34 260.87 444.74 259.03 445.58C257.19 446.38 255.13 446.78 252.85 446.78C249.97 446.78 247.47 446.14 245.35 444.86C243.23 443.58 241.59 441.8 240.43 439.52C239.27 437.2 238.69 434.52 238.69 431.48C238.69 428.4 239.25 425.68 240.37 423.32C241.53 420.92 243.15 419.06 245.23 417.74C247.31 416.38 249.71 415.7 252.43 415.7C256.47 415.7 259.65 416.96 261.97 419.48C264.29 422 265.45 425.4 265.45 429.68V430.4C265.41 430.76 265.27 431.04 265.03 431.24C264.83 431.44 264.55 431.54 264.19 431.54H242.71C242.83 434.9 243.71 437.74 245.35 440.06C247.03 442.34 249.53 443.48 252.85 443.48C254.65 443.48 256.23 443.16 257.59 442.52C258.99 441.84 260.53 440.66 262.21 438.98ZM252.43 419C249.79 419 247.61 419.82 245.89 421.46C244.21 423.06 243.19 425.42 242.83 428.54H261.49C261.41 425.62 260.57 423.3 258.97 421.58C257.37 419.86 255.19 419 252.43 419ZM283.1 446.78C280.66 446.78 278.5 446.44 276.62 445.76C274.78 445.04 272.84 443.84 270.8 442.16C270.44 441.92 270.26 441.64 270.26 441.32C270.26 441.04 270.4 440.76 270.68 440.48L271.46 439.64C271.7 439.32 272 439.16 272.36 439.16C272.64 439.16 272.9 439.28 273.14 439.52C275.06 441 276.76 442.04 278.24 442.64C279.72 443.2 281.34 443.48 283.1 443.48C285.3 443.48 287.1 443 288.5 442.04C289.9 441.04 290.6 439.7 290.6 438.02C290.6 436.34 289.88 435.1 288.44 434.3C287 433.5 284.78 432.78 281.78 432.14C279.14 431.58 277.06 431 275.54 430.4C274.06 429.76 272.96 428.96 272.24 428C271.52 427.04 271.16 425.78 271.16 424.22C271.16 421.66 272.2 419.6 274.28 418.04C276.36 416.48 278.98 415.7 282.14 415.7C284.3 415.7 286.22 415.98 287.9 416.54C289.62 417.06 291.34 417.94 293.06 419.18C293.42 419.46 293.6 419.76 293.6 420.08C293.6 420.28 293.5 420.54 293.3 420.86L292.58 421.76C292.38 422.08 292.1 422.24 291.74 422.24C291.42 422.24 291.14 422.14 290.9 421.94C289.26 420.78 287.8 420 286.52 419.6C285.28 419.2 283.86 419 282.26 419C280.06 419 278.3 419.48 276.98 420.44C275.66 421.4 275 422.62 275 424.1C275 425.02 275.3 425.76 275.9 426.32C276.5 426.88 277.36 427.36 278.48 427.76C279.6 428.12 281.24 428.54 283.4 429.02C287.4 429.9 290.24 430.98 291.92 432.26C293.64 433.54 294.5 435.4 294.5 437.84C294.5 440.52 293.44 442.68 291.32 444.32C289.2 445.96 286.46 446.78 283.1 446.78ZM317.006 408.92C316.206 408.92 315.526 408.64 314.966 408.08C314.446 407.52 314.186 406.84 314.186 406.04C314.186 405.24 314.446 404.58 314.966 404.06C315.526 403.54 316.206 403.28 317.006 403.28C317.846 403.28 318.526 403.54 319.046 404.06C319.606 404.58 319.886 405.24 319.886 406.04C319.886 406.84 319.606 407.52 319.046 408.08C318.526 408.64 317.846 408.92 317.006 408.92ZM316.226 446C315.426 446 315.026 445.6 315.026 444.8V417.62C315.026 416.82 315.426 416.42 316.226 416.42H317.786C318.586 416.42 318.986 416.82 318.986 417.62V444.8C318.986 445.6 318.586 446 317.786 446H316.226ZM341.119 442.7C341.239 442.66 341.399 442.64 341.599 442.64C341.839 442.64 342.059 442.72 342.259 442.88C342.459 443.04 342.579 443.26 342.619 443.54L342.799 444.38C342.839 444.46 342.859 444.6 342.859 444.8C342.859 445.36 342.559 445.7 341.959 445.82C340.519 446.26 338.979 446.48 337.339 446.48C334.739 446.48 332.879 445.9 331.759 444.74C330.679 443.54 330.139 441.82 330.139 439.58V419.42H325.699C324.899 419.42 324.499 419.02 324.499 418.22V417.62C324.499 416.82 324.899 416.42 325.699 416.42H330.139V407.3C330.139 406.5 330.539 406.1 331.339 406.1H332.899C333.699 406.1 334.099 406.5 334.099 407.3V416.42H341.299C342.099 416.42 342.499 416.82 342.499 417.62V418.22C342.499 419.02 342.099 419.42 341.299 419.42H334.099V439.1C334.099 440.58 334.379 441.62 334.939 442.22C335.499 442.82 336.459 443.12 337.819 443.12C338.779 443.12 339.879 442.98 341.119 442.7ZM376.53 415.76C379.05 415.76 381.29 416.42 383.25 417.74C385.25 419.02 386.79 420.84 387.87 423.2C388.99 425.52 389.55 428.2 389.55 431.24C389.55 434.28 388.99 436.98 387.87 439.34C386.75 441.66 385.19 443.48 383.19 444.8C381.23 446.08 379.01 446.72 376.53 446.72C371.77 446.72 368.29 444.88 366.09 441.2V444.8C366.09 445.6 365.69 446 364.89 446H363.57C362.77 446 362.37 445.6 362.37 444.8V404.54C362.37 403.74 362.77 403.34 363.57 403.34H365.13C365.93 403.34 366.33 403.74 366.33 404.54V421.1C368.53 417.54 371.93 415.76 376.53 415.76ZM376.23 443.36C378.99 443.36 381.21 442.24 382.89 440C384.61 437.76 385.47 434.84 385.47 431.24C385.47 427.64 384.61 424.72 382.89 422.48C381.21 420.24 378.99 419.12 376.23 419.12C373.27 419.12 370.85 420.2 368.97 422.36C367.09 424.52 366.15 427.48 366.15 431.24C366.15 435.04 367.07 438.02 368.91 440.18C370.79 442.3 373.23 443.36 376.23 443.36ZM418.48 438.98C418.76 438.7 419.06 438.56 419.38 438.56C419.66 438.56 419.92 438.68 420.16 438.92L420.94 439.64C421.22 439.92 421.36 440.22 421.36 440.54C421.36 440.78 421.24 441.06 421 441.38C419.04 443.34 417.14 444.74 415.3 445.58C413.46 446.38 411.4 446.78 409.12 446.78C406.24 446.78 403.74 446.14 401.62 444.86C399.5 443.58 397.86 441.8 396.7 439.52C395.54 437.2 394.96 434.52 394.96 431.48C394.96 428.4 395.52 425.68 396.64 423.32C397.8 420.92 399.42 419.06 401.5 417.74C403.58 416.38 405.98 415.7 408.7 415.7C412.74 415.7 415.92 416.96 418.24 419.48C420.56 422 421.72 425.4 421.72 429.68V430.4C421.68 430.76 421.54 431.04 421.3 431.24C421.1 431.44 420.82 431.54 420.46 431.54H398.98C399.1 434.9 399.98 437.74 401.62 440.06C403.3 442.34 405.8 443.48 409.12 443.48C410.92 443.48 412.5 443.16 413.86 442.52C415.26 441.84 416.8 440.66 418.48 438.98ZM408.7 419C406.06 419 403.88 419.82 402.16 421.46C400.48 423.06 399.46 425.42 399.1 428.54H417.76C417.68 425.62 416.84 423.3 415.24 421.58C413.64 419.86 411.46 419 408.7 419ZM430.075 446C429.275 446 428.875 445.6 428.875 444.8V404.6C428.875 403.8 429.275 403.4 430.075 403.4H431.635C432.435 403.4 432.835 403.8 432.835 404.6V444.8C432.835 445.6 432.435 446 431.635 446H430.075ZM454.004 446.78C451.244 446.78 448.784 446.12 446.624 444.8C444.464 443.48 442.784 441.66 441.584 439.34C440.384 436.98 439.784 434.28 439.784 431.24C439.784 428.2 440.384 425.52 441.584 423.2C442.784 420.84 444.464 419 446.624 417.68C448.784 416.36 451.244 415.7 454.004 415.7C456.764 415.7 459.224 416.36 461.384 417.68C463.544 419 465.224 420.84 466.424 423.2C467.624 425.52 468.224 428.2 468.224 431.24C468.224 434.28 467.624 436.98 466.424 439.34C465.224 441.66 463.544 443.48 461.384 444.8C459.224 446.12 456.764 446.78 454.004 446.78ZM454.004 443.48C457.084 443.48 459.544 442.36 461.384 440.12C463.224 437.84 464.144 434.88 464.144 431.24C464.144 427.6 463.224 424.66 461.384 422.42C459.544 420.14 457.084 419 454.004 419C450.924 419 448.464 420.14 446.624 422.42C444.784 424.66 443.864 427.6 443.864 431.24C443.864 434.88 444.784 437.84 446.624 440.12C448.464 442.36 450.924 443.48 454.004 443.48ZM488.304 415.7C491.784 415.7 494.404 416.66 496.164 418.58C497.964 420.5 498.864 422.9 498.864 425.78V444.8C498.864 445.6 498.464 446 497.664 446H496.104C495.304 446 494.904 445.6 494.904 444.8V427.1C494.904 424.46 494.264 422.46 492.984 421.1C491.704 419.74 489.864 419.06 487.464 419.06C485.944 419.06 484.544 419.44 483.264 420.2C481.984 420.92 480.964 421.92 480.204 423.2C479.444 424.48 479.064 425.88 479.064 427.4V444.8C479.064 445.6 478.664 446 477.864 446H476.304C475.504 446 475.104 445.6 475.104 444.8V417.62C475.104 416.82 475.504 416.42 476.304 416.42H477.624C478.424 416.42 478.824 416.82 478.824 417.62V420.5C479.824 418.9 481.144 417.7 482.784 416.9C484.424 416.1 486.264 415.7 488.304 415.7ZM528.864 417.62C528.864 416.82 529.264 416.42 530.064 416.42H531.324C532.124 416.42 532.524 416.82 532.524 417.62V445.7C532.524 449.42 531.404 452.34 529.164 454.46C526.924 456.62 523.784 457.7 519.744 457.7C515.384 457.7 511.364 456.46 507.684 453.98C507.284 453.74 507.084 453.44 507.084 453.08C507.084 452.8 507.164 452.56 507.324 452.36L508.044 451.34C508.284 450.94 508.604 450.74 509.004 450.74C509.164 450.74 509.404 450.82 509.724 450.98C511.484 452.1 513.124 452.94 514.644 453.5C516.204 454.06 517.904 454.34 519.744 454.34C522.384 454.34 524.524 453.6 526.164 452.12C527.804 450.68 528.624 448.44 528.624 445.4V440.6C526.464 444.08 523.184 445.82 518.784 445.82C516.224 445.82 513.964 445.18 512.004 443.9C510.044 442.58 508.524 440.78 507.444 438.5C506.404 436.22 505.884 433.64 505.884 430.76C505.884 427.88 506.404 425.3 507.444 423.02C508.524 420.74 510.044 418.96 512.004 417.68C513.964 416.36 516.224 415.7 518.784 415.7C521.104 415.7 523.104 416.2 524.784 417.2C526.504 418.16 527.864 419.54 528.864 421.34V417.62ZM519.204 442.46C522.084 442.46 524.384 441.38 526.104 439.22C527.824 437.02 528.684 434.2 528.684 430.76C528.684 427.32 527.824 424.52 526.104 422.36C524.384 420.16 522.084 419.06 519.204 419.06C516.284 419.06 514.004 420.14 512.364 422.3C510.764 424.46 509.964 427.28 509.964 430.76C509.964 434.24 510.764 437.06 512.364 439.22C514.004 441.38 516.284 442.46 519.204 442.46ZM557.24 408.92C556.44 408.92 555.76 408.64 555.2 408.08C554.68 407.52 554.42 406.84 554.42 406.04C554.42 405.24 554.68 404.58 555.2 404.06C555.76 403.54 556.44 403.28 557.24 403.28C558.08 403.28 558.76 403.54 559.28 404.06C559.84 404.58 560.12 405.24 560.12 406.04C560.12 406.84 559.84 407.52 559.28 408.08C558.76 408.64 558.08 408.92 557.24 408.92ZM556.46 446C555.66 446 555.26 445.6 555.26 444.8V417.62C555.26 416.82 555.66 416.42 556.46 416.42H558.02C558.82 416.42 559.22 416.82 559.22 417.62V444.8C559.22 445.6 558.82 446 558.02 446H556.46ZM581.234 415.7C584.714 415.7 587.334 416.66 589.094 418.58C590.894 420.5 591.794 422.9 591.794 425.78V444.8C591.794 445.6 591.394 446 590.594 446H589.034C588.234 446 587.834 445.6 587.834 444.8V427.1C587.834 424.46 587.194 422.46 585.914 421.1C584.634 419.74 582.794 419.06 580.394 419.06C578.874 419.06 577.474 419.44 576.194 420.2C574.914 420.92 573.894 421.92 573.134 423.2C572.374 424.48 571.994 425.88 571.994 427.4V444.8C571.994 445.6 571.594 446 570.794 446H569.234C568.434 446 568.034 445.6 568.034 444.8V417.62C568.034 416.82 568.434 416.42 569.234 416.42H570.554C571.354 416.42 571.754 416.82 571.754 417.62V420.5C572.754 418.9 574.074 417.7 575.714 416.9C577.354 416.1 579.194 415.7 581.234 415.7ZM616.301 446C615.501 446 615.101 445.6 615.101 444.8V404.6C615.101 403.8 615.501 403.4 616.301 403.4H641.501C642.301 403.4 642.701 403.8 642.701 404.6V405.74C642.701 406.54 642.301 406.94 641.501 406.94H619.361V423.14H639.641C640.441 423.14 640.841 423.54 640.841 424.34V425.48C640.841 426.28 640.441 426.68 639.641 426.68H619.361V444.8C619.361 445.6 618.961 446 618.161 446H616.301ZM659.356 415.7C662.996 415.7 665.836 416.58 667.876 418.34C669.916 420.06 670.936 422.34 670.936 425.18V444.8C670.936 445.6 670.536 446 669.736 446H668.536C667.736 446 667.336 445.6 667.336 444.8V442.1C666.336 443.7 664.916 444.9 663.076 445.7C661.276 446.5 659.256 446.9 657.016 446.9C653.896 446.9 651.356 446.24 649.396 444.92C647.436 443.6 646.456 441.56 646.456 438.8C646.456 436.6 647.076 434.84 648.316 433.52C649.556 432.16 651.176 431.14 653.176 430.46C655.176 429.74 657.676 429.1 660.676 428.54L667.156 427.4V425.48C667.156 423.44 666.456 421.86 665.056 420.74C663.656 419.58 661.816 419 659.536 419C657.816 419 656.256 419.32 654.856 419.96C653.456 420.6 651.956 421.7 650.356 423.26C650.076 423.54 649.776 423.68 649.456 423.68C649.176 423.68 648.916 423.56 648.676 423.32L647.896 422.6C647.616 422.32 647.476 422.02 647.476 421.7C647.476 421.34 647.616 421.02 647.896 420.74C649.576 418.98 651.336 417.7 653.176 416.9C655.056 416.1 657.116 415.7 659.356 415.7ZM657.196 443.6C660.076 443.6 662.456 442.84 664.336 441.32C666.216 439.8 667.156 437.86 667.156 435.5V430.46L661.576 431.54C658.976 432.06 656.916 432.56 655.396 433.04C653.876 433.52 652.656 434.22 651.736 435.14C650.816 436.06 650.356 437.26 650.356 438.74C650.356 440.26 650.956 441.46 652.156 442.34C653.396 443.18 655.076 443.6 657.196 443.6ZM693.873 415.76C696.393 415.76 698.633 416.42 700.593 417.74C702.593 419.02 704.133 420.84 705.213 423.2C706.333 425.52 706.893 428.2 706.893 431.24C706.893 434.28 706.333 436.98 705.213 439.34C704.093 441.66 702.533 443.48 700.533 444.8C698.573 446.08 696.353 446.72 693.873 446.72C689.113 446.72 685.633 444.88 683.433 441.2V444.8C683.433 445.6 683.033 446 682.233 446H680.913C680.113 446 679.713 445.6 679.713 444.8V404.54C679.713 403.74 680.113 403.34 680.913 403.34H682.473C683.273 403.34 683.673 403.74 683.673 404.54V421.1C685.873 417.54 689.273 415.76 693.873 415.76ZM693.573 443.36C696.333 443.36 698.553 442.24 700.233 440C701.953 437.76 702.813 434.84 702.813 431.24C702.813 427.64 701.953 424.72 700.233 422.48C698.553 420.24 696.333 419.12 693.573 419.12C690.613 419.12 688.193 420.2 686.313 422.36C684.433 424.52 683.493 427.48 683.493 431.24C683.493 435.04 684.413 438.02 686.253 440.18C688.133 442.3 690.573 443.36 693.573 443.36ZM724.972 416.18C725.972 416.18 727.152 416.34 728.512 416.66C729.232 416.9 729.512 417.4 729.352 418.16L729.112 419.12C728.912 419.88 728.412 420.16 727.612 419.96C726.652 419.72 725.772 419.6 724.972 419.6C722.932 419.6 721.232 420.48 719.872 422.24C718.552 424 717.892 426.44 717.892 429.56V444.8C717.892 445.6 717.492 446 716.692 446H715.132C714.332 446 713.932 445.6 713.932 444.8V417.62C713.932 416.82 714.332 416.42 715.132 416.42H716.452C717.252 416.42 717.652 416.82 717.652 417.62V420.92C718.332 419.44 719.292 418.28 720.532 417.44C721.812 416.6 723.292 416.18 724.972 416.18ZM736.713 408.92C735.913 408.92 735.233 408.64 734.673 408.08C734.153 407.52 733.893 406.84 733.893 406.04C733.893 405.24 734.153 404.58 734.673 404.06C735.233 403.54 735.913 403.28 736.713 403.28C737.553 403.28 738.233 403.54 738.753 404.06C739.313 404.58 739.593 405.24 739.593 406.04C739.593 406.84 739.313 407.52 738.753 408.08C738.233 408.64 737.553 408.92 736.713 408.92ZM735.933 446C735.133 446 734.733 445.6 734.733 444.8V417.62C734.733 416.82 735.133 416.42 735.933 416.42H737.493C738.293 416.42 738.693 416.82 738.693 417.62V444.8C738.693 445.6 738.293 446 737.493 446H735.933ZM759.506 446.78C756.666 446.78 754.186 446.14 752.066 444.86C749.986 443.54 748.366 441.72 747.206 439.4C746.086 437.04 745.526 434.32 745.526 431.24C745.526 428.2 746.086 425.5 747.206 423.14C748.366 420.78 749.986 418.96 752.066 417.68C754.186 416.36 756.626 415.7 759.386 415.7C761.626 415.7 763.586 416.08 765.266 416.84C766.946 417.56 768.566 418.76 770.126 420.44C770.366 420.68 770.486 420.94 770.486 421.22C770.486 421.58 770.326 421.88 770.006 422.12L769.166 422.9C768.926 423.14 768.646 423.26 768.326 423.26C768.046 423.26 767.746 423.1 767.426 422.78C766.026 421.38 764.686 420.4 763.406 419.84C762.166 419.28 760.786 419 759.266 419C757.186 419 755.406 419.58 753.926 420.74C752.486 421.9 751.406 423.42 750.686 425.3C749.966 427.14 749.606 429.12 749.606 431.24C749.606 433.36 749.966 435.36 750.686 437.24C751.406 439.08 752.506 440.58 753.986 441.74C755.466 442.86 757.286 443.42 759.446 443.42C761.046 443.42 762.446 443.14 763.646 442.58C764.886 441.98 766.266 440.86 767.786 439.22C768.106 438.9 768.406 438.74 768.686 438.74C769.006 438.74 769.286 438.86 769.526 439.1L770.366 439.76C770.646 440 770.786 440.28 770.786 440.6C770.786 440.92 770.606 441.3 770.246 441.74C768.566 443.58 766.886 444.88 765.206 445.64C763.526 446.4 761.626 446.78 759.506 446.78ZM785.613 434.84C784.813 434.84 784.413 434.44 784.413 433.64V432.38C784.413 430.82 784.553 429.54 784.833 428.54C785.153 427.54 785.673 426.6 786.393 425.72C787.153 424.84 788.293 423.74 789.813 422.42C789.853 422.38 790.233 422.06 790.953 421.46C792.833 419.82 794.213 418.42 795.093 417.26C795.973 416.06 796.413 414.64 796.413 413C796.413 410.92 795.653 409.26 794.133 408.02C792.613 406.78 790.593 406.16 788.073 406.16C786.273 406.16 784.613 406.5 783.093 407.18C781.573 407.82 779.853 408.92 777.933 410.48C777.613 410.72 777.333 410.84 777.093 410.84C776.773 410.84 776.493 410.7 776.253 410.42L775.353 409.46C775.113 409.22 774.993 408.94 774.993 408.62C774.993 408.3 775.153 408.02 775.473 407.78C777.513 406.02 779.533 404.7 781.533 403.82C783.533 402.94 785.733 402.5 788.133 402.5C790.333 402.5 792.373 402.9 794.253 403.7C796.173 404.46 797.713 405.64 798.873 407.24C800.033 408.8 800.613 410.7 800.613 412.94C800.613 415.18 800.033 417.1 798.873 418.7C797.713 420.26 796.113 421.92 794.073 423.68C793.473 424.16 792.933 424.64 792.453 425.12C791.213 426.32 790.293 427.24 789.693 427.88C789.133 428.48 788.673 429.18 788.313 429.98C787.953 430.78 787.733 431.74 787.653 432.86L787.593 433.7C787.553 434.06 787.413 434.34 787.173 434.54C786.973 434.74 786.693 434.84 786.333 434.84H785.613ZM785.853 446.42C785.013 446.42 784.293 446.12 783.693 445.52C783.093 444.92 782.793 444.2 782.793 443.36C782.793 442.52 783.093 441.8 783.693 441.2C784.293 440.6 785.013 440.3 785.853 440.3C786.693 440.3 787.413 440.6 788.013 441.2C788.613 441.8 788.913 442.52 788.913 443.36C788.913 444.2 788.613 444.92 788.013 445.52C787.413 446.12 786.693 446.42 785.853 446.42Z" fill="white"/>
</g>
<defs>
<clipPath id="clip0_1131_13901">
<rect width="1920" height="1080" fill="white"/>
</clipPath>
</defs>
</svg>
