<svg width="1920" height="1080" viewBox="0 0 1920 1080" fill="none" xmlns="http://www.w3.org/2000/svg">
<rect x="8" y="8" width="1904" height="1064" fill="#0063FB"/>
<path fill-rule="evenodd" clip-rule="evenodd" d="M181.281 163.915H165.717C164.746 163.915 163.957 164.696 163.957 165.656V214.344C163.957 215.304 164.746 216.086 165.717 216.086H216.69V198.946C216.69 179.63 200.805 163.915 181.281 163.915Z" fill="#0063FB"/>
<path fill-rule="evenodd" clip-rule="evenodd" d="M328.283 163.915H222.406C221.436 163.915 220.646 164.696 220.646 165.656V216.085H328.283C329.253 216.085 330.043 215.304 330.043 214.344V165.656C330.043 164.696 329.253 163.915 328.283 163.915Z" fill="#06BEFB"/>
<path fill-rule="evenodd" clip-rule="evenodd" d="M163.957 214.344V165.656C163.957 164.696 164.747 163.915 165.717 163.915H181.281C200.805 163.915 216.689 179.63 216.689 198.946V216.085H165.717C164.747 216.085 163.957 215.304 163.957 214.344ZM330.043 214.344C330.043 215.304 329.253 216.085 328.283 216.085H220.646V165.656C220.646 164.696 221.436 163.915 222.407 163.915H328.283C329.253 163.915 330.043 164.696 330.043 165.656V214.344ZM328.283 160H222.407C219.254 160 216.689 162.537 216.689 165.656V181.939C210.296 168.963 196.827 160 181.281 160H165.717C162.565 160 160 162.537 160 165.656V214.344C160 217.463 162.565 220 165.717 220H328.283C331.435 220 334 217.463 334 214.344V165.656C334 162.537 331.435 160 328.283 160Z" fill="white"/>
<path fill-rule="evenodd" clip-rule="evenodd" d="M238.503 179.828H252.76C253.379 179.828 253.881 180.325 253.881 180.938V184.418C253.881 185.031 253.379 185.528 252.76 185.528H243.618V190.12H250.897C251.516 190.12 252.018 190.617 252.018 191.23V194.193C252.018 194.805 251.516 195.302 250.897 195.302H243.618V199.063C243.618 199.675 243.115 200.172 242.496 200.172H238.503C237.883 200.172 237.381 199.675 237.381 199.063V180.938C237.381 180.325 237.883 179.828 238.503 179.828ZM260.092 179.828H264.085C264.704 179.828 265.207 180.325 265.207 180.938V199.063C265.207 199.675 264.704 200.172 264.085 200.172H260.092C259.472 200.172 258.97 199.675 258.97 199.063V180.938C258.97 180.325 259.472 179.828 260.092 179.828ZM312.187 179.828H308.193C307.574 179.828 307.072 180.325 307.072 180.938V189.825L300.828 180.491C300.551 180.077 300.082 179.828 299.58 179.828H296.513C295.893 179.828 295.391 180.325 295.391 180.938V199.063C295.391 199.675 295.893 200.172 296.513 200.172H300.506C301.126 200.172 301.628 199.675 301.628 199.063V190.278L307.735 199.503C308.012 199.92 308.482 200.172 308.986 200.172H312.187C312.806 200.172 313.308 199.675 313.308 199.063V180.938C313.308 180.325 312.806 179.828 312.187 179.828ZM284.142 179.828H288.136C288.755 179.828 289.258 180.325 289.258 180.938V199.063C289.258 199.675 288.755 200.172 288.136 200.172H284.935C284.431 200.172 283.961 199.92 283.685 199.503L277.577 190.278V199.063C277.577 199.675 277.075 200.172 276.456 200.172H272.462C271.843 200.172 271.34 199.675 271.34 199.063V180.938C271.34 180.325 271.843 179.828 272.462 179.828H275.53C276.031 179.828 276.5 180.077 276.777 180.491L283.021 189.825V180.938C283.021 180.325 283.523 179.828 284.142 179.828Z" fill="white"/>
<path d="M215.008 329.552C214.496 331.792 213.088 332.912 210.784 332.912H206.08L202.528 349.616H206.464C208.768 349.616 209.92 350.608 209.92 352.592C209.92 353.168 209.888 353.584 209.824 353.84V354.032C209.312 356.272 207.904 357.392 205.6 357.392H200.896L198.112 370.64C197.6 372.88 196.192 374 193.888 374H192.832C190.464 374 189.28 372.976 189.28 370.928C189.28 370.416 189.312 370.032 189.376 369.776L192.064 357.392H179.104L176.32 370.64C175.808 372.88 174.4 374 172.096 374H171.04C168.672 374 167.488 372.976 167.488 370.928C167.488 370.416 167.52 370.032 167.584 369.776L170.272 357.392H166.048C163.744 357.392 162.592 356.4 162.592 354.416C162.592 353.84 162.624 353.424 162.688 353.168V352.976C163.2 350.736 164.608 349.616 166.912 349.616H171.904L175.456 332.912H171.232C168.928 332.912 167.776 331.92 167.776 329.936C167.776 329.36 167.808 328.944 167.872 328.688L167.968 328.496C168.544 326.256 169.952 325.136 172.192 325.136H177.088L179.872 312.08C180.384 309.84 181.76 308.72 184 308.72H185.056C187.424 308.72 188.608 309.744 188.608 311.792C188.608 312.304 188.576 312.688 188.512 312.944L185.92 325.136H198.88L201.664 312.08C202.176 309.84 203.552 308.72 205.792 308.72H206.848C209.216 308.72 210.4 309.744 210.4 311.792C210.4 312.304 210.368 312.688 210.304 312.944L207.712 325.136H211.648C213.952 325.136 215.104 326.16 215.104 328.208C215.104 328.72 215.072 329.104 215.008 329.36V329.552ZM197.248 332.912H184.288L180.736 349.616H193.696L197.248 332.912ZM293.521 309.2C294.033 306.96 295.441 305.84 297.745 305.84H302.353C303.441 305.84 304.305 306.128 304.945 306.704C305.585 307.216 305.905 307.92 305.905 308.816C305.905 309.008 305.841 309.424 305.713 310.064L291.025 370.64C290.449 372.88 289.041 374 286.801 374H279.121C276.817 374 275.377 372.912 274.801 370.736L268.657 346.736C266.545 338.736 264.657 330.768 262.993 322.832C261.201 331.28 259.313 339.248 257.329 346.736L251.185 370.736C250.673 372.912 249.233 374 246.865 374H239.185C236.945 374 235.537 372.88 234.961 370.64L220.177 310.064C220.049 309.424 219.985 309.008 219.985 308.816C219.985 307.92 220.305 307.216 220.945 306.704C221.585 306.128 222.449 305.84 223.537 305.84H228.433C230.737 305.84 232.145 306.96 232.657 309.2L238.897 335.888C240.433 342.416 242.033 350.128 243.697 359.024C245.617 349.872 247.441 342.16 249.169 335.888L256.273 309.104C256.849 306.928 258.257 305.84 260.497 305.84H266.065C267.217 305.84 268.145 306.096 268.849 306.608C269.553 307.12 270.033 307.952 270.289 309.104L277.201 335.888C278.929 342.224 280.753 350.032 282.673 359.312C282.929 357.776 283.153 356.624 283.345 355.856C284.689 347.984 286.033 341.328 287.377 335.888L293.521 309.2ZM320.866 374C318.306 374 317.026 372.72 317.026 370.16V309.68C317.026 307.12 318.306 305.84 320.866 305.84H325.762C328.322 305.84 329.602 307.12 329.602 309.68V370.16C329.602 372.72 328.322 374 325.762 374H320.866ZM348.319 374C345.759 374 344.479 372.72 344.479 370.16V309.68C344.479 307.12 345.759 305.84 348.319 305.84H376.639C381.119 305.84 385.055 306.736 388.447 308.528C391.839 310.256 394.431 312.72 396.223 315.92C398.079 319.12 399.007 322.864 399.007 327.152C399.007 333.616 396.991 338.768 392.959 342.608C388.927 346.448 383.487 348.368 376.639 348.368H357.055V370.16C357.055 372.72 355.775 374 353.215 374H348.319ZM374.431 337.904C378.207 337.904 381.151 336.976 383.263 335.12C385.439 333.264 386.527 330.608 386.527 327.152C386.527 323.632 385.439 320.944 383.263 319.088C381.151 317.232 378.207 316.304 374.431 316.304H357.055V337.904H374.431ZM432.08 351.44C429.52 351.44 428.24 350.16 428.24 347.6V344.72C428.24 342.16 429.52 340.88 432.08 340.88H453.872C456.432 340.88 457.712 342.16 457.712 344.72V347.6C457.712 350.16 456.432 351.44 453.872 351.44H432.08ZM511.173 314.096C509.125 314.096 507.621 314.576 506.661 315.536C505.765 316.496 505.317 318.096 505.317 320.336V326.672H512.036C514.597 326.672 515.877 327.952 515.877 330.512V331.76C515.877 334.32 514.597 335.6 512.036 335.6H505.317V370.16C505.317 372.72 504.037 374 501.477 374H497.445C494.885 374 493.605 372.72 493.605 370.16V335.6H489.189C486.629 335.6 485.349 334.32 485.349 331.76V330.512C485.349 327.952 486.629 326.672 489.189 326.672H493.605V319.76C493.605 314.704 494.917 310.896 497.541 308.336C500.165 305.712 503.941 304.4 508.869 304.4C511.301 304.4 513.413 304.624 515.205 305.072C516.165 305.264 516.901 305.648 517.413 306.224C517.925 306.8 518.181 307.536 518.181 308.432C518.181 308.624 518.117 309.04 517.989 309.68L517.605 311.216C517.157 313.392 515.429 314.384 512.421 314.192C512.101 314.128 511.685 314.096 511.173 314.096ZM543.329 375.536C538.593 375.536 534.369 374.48 530.657 372.368C526.945 370.256 524.033 367.28 521.921 363.44C519.873 359.6 518.849 355.216 518.849 350.288C518.849 345.36 519.873 341.008 521.921 337.232C524.033 333.392 526.945 330.416 530.657 328.304C534.369 326.192 538.593 325.136 543.329 325.136C548.065 325.136 552.289 326.192 556.001 328.304C559.713 330.416 562.593 333.392 564.641 337.232C566.753 341.008 567.809 345.36 567.809 350.288C567.809 355.216 566.753 359.6 564.641 363.44C562.593 367.28 559.713 370.256 556.001 372.368C552.289 374.48 548.065 375.536 543.329 375.536ZM543.329 365.648C547.105 365.648 550.145 364.272 552.449 361.52C554.753 358.704 555.905 354.96 555.905 350.288C555.905 345.744 554.753 342.096 552.449 339.344C550.145 336.528 547.105 335.12 543.329 335.12C539.553 335.12 536.513 336.528 534.209 339.344C531.905 342.096 530.753 345.744 530.753 350.288C530.753 354.96 531.905 358.704 534.209 361.52C536.513 364.272 539.553 365.648 543.329 365.648ZM598.753 326.096C599.969 326.096 601.281 326.256 602.689 326.576C604.673 326.96 605.665 328.112 605.665 330.032C605.665 330.544 605.633 330.928 605.569 331.184L604.993 333.968C604.609 336.08 603.585 337.136 601.921 337.136C601.601 337.136 601.345 337.104 601.153 337.04C600.001 336.848 599.009 336.752 598.177 336.752C594.977 336.752 592.417 337.968 590.497 340.4C588.641 342.832 587.713 346.192 587.713 350.48V370.16C587.713 372.72 586.433 374 583.873 374H579.841C577.281 374 576.001 372.72 576.001 370.16V330.512C576.001 327.952 577.281 326.672 579.841 326.672H583.105C585.665 326.672 586.945 327.952 586.945 330.512V333.584C589.505 328.592 593.441 326.096 598.753 326.096ZM637.977 374C635.417 374 634.137 372.72 634.137 370.16V309.68C634.137 307.12 635.417 305.84 637.977 305.84H642.009C644.569 305.84 645.849 307.12 645.849 309.68V370.16C645.849 372.72 644.569 374 642.009 374H637.977ZM663.047 318.608C660.935 318.608 659.143 317.936 657.671 316.592C656.263 315.184 655.559 313.488 655.559 311.504C655.559 309.52 656.263 307.856 657.671 306.512C659.143 305.104 660.935 304.4 663.047 304.4C665.159 304.4 666.919 305.104 668.327 306.512C669.799 307.856 670.535 309.52 670.535 311.504C670.535 313.488 669.799 315.184 668.327 316.592C666.919 317.936 665.159 318.608 663.047 318.608ZM660.935 374C658.375 374 657.095 372.72 657.095 370.16V330.512C657.095 327.952 658.375 326.672 660.935 326.672H664.967C667.527 326.672 668.807 327.952 668.807 330.512V370.16C668.807 372.72 667.527 374 664.967 374H660.935ZM701.673 314.096C699.625 314.096 698.121 314.576 697.161 315.536C696.265 316.496 695.817 318.096 695.817 320.336V326.672H702.536C705.097 326.672 706.377 327.952 706.377 330.512V331.76C706.377 334.32 705.097 335.6 702.536 335.6H695.817V370.16C695.817 372.72 694.537 374 691.977 374H687.945C685.385 374 684.105 372.72 684.105 370.16V335.6H679.689C677.129 335.6 675.849 334.32 675.849 331.76V330.512C675.849 327.952 677.129 326.672 679.689 326.672H684.105V319.76C684.105 314.704 685.417 310.896 688.041 308.336C690.665 305.712 694.441 304.4 699.369 304.4C701.801 304.4 703.913 304.624 705.705 305.072C706.665 305.264 707.401 305.648 707.913 306.224C708.425 306.8 708.681 307.536 708.681 308.432C708.681 308.624 708.617 309.04 708.489 309.68L708.105 311.216C707.657 313.392 705.929 314.384 702.921 314.192C702.601 314.128 702.185 314.096 701.673 314.096ZM745.541 361.424C746.501 360.656 747.397 360.272 748.229 360.272C749.189 360.272 750.085 360.752 750.917 361.712L752.549 363.44C753.381 364.272 753.797 365.136 753.797 366.032C753.797 367.12 753.285 368.08 752.261 368.912C749.381 371.28 746.469 372.976 743.525 374C740.645 375.024 737.477 375.536 734.021 375.536C728.965 375.536 724.581 374.512 720.869 372.464C717.157 370.416 714.309 367.504 712.325 363.728C710.341 359.952 709.349 355.568 709.349 350.576C709.349 345.712 710.277 341.36 712.133 337.52C714.053 333.616 716.805 330.576 720.389 328.4C723.973 326.224 728.165 325.136 732.965 325.136C740.069 325.136 745.509 327.216 749.285 331.376C753.125 335.536 755.045 341.296 755.045 348.656V349.52C754.981 352.016 753.669 353.264 751.109 353.264H720.773C721.221 357.04 722.565 360.048 724.805 362.288C727.109 364.528 730.245 365.648 734.213 365.648C736.389 365.648 738.309 365.328 739.973 364.688C741.637 364.048 743.493 362.96 745.541 361.424ZM732.677 334.352C729.541 334.352 726.981 335.312 724.997 337.232C723.013 339.088 721.701 341.648 721.061 344.912H743.621C743.365 341.648 742.309 339.088 740.453 337.232C738.597 335.312 736.005 334.352 732.677 334.352ZM772.713 352.784C770.345 352.784 769.001 351.568 768.681 349.136L766.281 326.48V309.68C766.281 307.12 767.561 305.84 770.121 305.84H775.209C777.769 305.84 779.049 307.12 779.049 309.68V326.48L776.649 349.136C776.329 351.568 775.017 352.784 772.713 352.784ZM772.521 375.056C770.409 375.056 768.585 374.288 767.049 372.752C765.513 371.216 764.745 369.36 764.745 367.184C764.745 365.008 765.513 363.152 767.049 361.616C768.585 360.08 770.409 359.312 772.521 359.312C774.697 359.312 776.553 360.08 778.089 361.616C779.689 363.152 780.489 365.008 780.489 367.184C780.489 369.36 779.689 371.216 778.089 372.752C776.553 374.288 774.697 375.056 772.521 375.056Z" fill="white"/>
<path d="M166.24 444.58C167.08 444.58 167.78 444.86 168.34 445.42C168.9 445.98 169.18 446.68 169.18 447.52C169.18 448.32 168.88 449 168.28 449.56C167.68 450.12 166.98 450.4 166.18 450.4C165.18 450.4 164.34 450.02 163.66 449.26C163.02 448.46 162.7 447.3 162.7 445.78C162.7 444.22 163.14 442.72 164.02 441.28C164.9 439.8 166.12 438.84 167.68 438.4C167.76 438.36 167.88 438.34 168.04 438.34C168.32 438.34 168.54 438.46 168.7 438.7C168.9 438.9 169 439.16 169 439.48C169 439.64 168.9 439.8 168.7 439.96C168.54 440.08 168.32 440.2 168.04 440.32C167.28 440.68 166.62 441.26 166.06 442.06C165.54 442.86 165.24 443.76 165.16 444.76C165.52 444.64 165.88 444.58 166.24 444.58ZM176.2 444.58C177.04 444.58 177.74 444.86 178.3 445.42C178.86 445.98 179.14 446.68 179.14 447.52C179.14 448.32 178.84 449 178.24 449.56C177.64 450.12 176.94 450.4 176.14 450.4C175.14 450.4 174.3 450.02 173.62 449.26C172.98 448.46 172.66 447.3 172.66 445.78C172.66 444.22 173.1 442.72 173.98 441.28C174.86 439.8 176.08 438.84 177.64 438.4C177.72 438.36 177.84 438.34 178 438.34C178.28 438.34 178.5 438.46 178.66 438.7C178.86 438.9 178.96 439.16 178.96 439.48C178.96 439.64 178.86 439.8 178.66 439.96C178.5 440.08 178.28 440.2 178 440.32C177.24 440.68 176.58 441.26 176.02 442.06C175.5 442.86 175.2 443.76 175.12 444.76C175.48 444.64 175.84 444.58 176.2 444.58ZM210.379 481C209.699 481 209.239 480.68 208.999 480.04L205.039 469.06H185.659L181.759 480.04C181.519 480.68 181.059 481 180.379 481H178.519C178.199 481 177.939 480.92 177.739 480.76C177.539 480.6 177.439 480.38 177.439 480.1L177.559 479.62L192.259 439.36C192.499 438.72 192.959 438.4 193.639 438.4H197.119C197.799 438.4 198.259 438.72 198.499 439.36L213.199 479.62L213.319 480.1C213.319 480.38 213.219 480.6 213.019 480.76C212.819 480.92 212.559 481 212.239 481H210.379ZM203.719 465.46L201.619 459.58L201.139 458.32C200.579 456.8 199.659 454.26 198.379 450.7C197.139 447.14 196.119 444.12 195.319 441.64C194.239 445.04 192.539 449.98 190.219 456.46C190.059 456.9 189.879 457.38 189.679 457.9C189.479 458.42 189.279 458.98 189.079 459.58L186.979 465.46H203.719ZM229.662 481.78C227.222 481.78 225.062 481.44 223.182 480.76C221.342 480.04 219.402 478.84 217.362 477.16C217.002 476.92 216.822 476.64 216.822 476.32C216.822 476.04 216.962 475.76 217.242 475.48L218.022 474.64C218.262 474.32 218.562 474.16 218.922 474.16C219.202 474.16 219.462 474.28 219.702 474.52C221.622 476 223.322 477.04 224.802 477.64C226.282 478.2 227.902 478.48 229.662 478.48C231.862 478.48 233.662 478 235.062 477.04C236.462 476.04 237.162 474.7 237.162 473.02C237.162 471.34 236.442 470.1 235.002 469.3C233.562 468.5 231.342 467.78 228.342 467.14C225.702 466.58 223.622 466 222.102 465.4C220.622 464.76 219.522 463.96 218.802 463C218.082 462.04 217.722 460.78 217.722 459.22C217.722 456.66 218.762 454.6 220.842 453.04C222.922 451.48 225.542 450.7 228.702 450.7C230.862 450.7 232.782 450.98 234.462 451.54C236.182 452.06 237.902 452.94 239.622 454.18C239.982 454.46 240.162 454.76 240.162 455.08C240.162 455.28 240.062 455.54 239.862 455.86L239.142 456.76C238.942 457.08 238.662 457.24 238.302 457.24C237.982 457.24 237.702 457.14 237.462 456.94C235.822 455.78 234.362 455 233.082 454.6C231.842 454.2 230.422 454 228.822 454C226.622 454 224.862 454.48 223.542 455.44C222.222 456.4 221.562 457.62 221.562 459.1C221.562 460.02 221.862 460.76 222.462 461.32C223.062 461.88 223.922 462.36 225.042 462.76C226.162 463.12 227.802 463.54 229.962 464.02C233.962 464.9 236.802 465.98 238.482 467.26C240.202 468.54 241.062 470.4 241.062 472.84C241.062 475.52 240.002 477.68 237.882 479.32C235.762 480.96 233.022 481.78 229.662 481.78ZM271.908 481.78C269.468 481.78 267.308 481.44 265.428 480.76C263.588 480.04 261.648 478.84 259.608 477.16C259.248 476.92 259.068 476.64 259.068 476.32C259.068 476.04 259.208 475.76 259.488 475.48L260.268 474.64C260.508 474.32 260.808 474.16 261.168 474.16C261.448 474.16 261.708 474.28 261.948 474.52C263.868 476 265.568 477.04 267.048 477.64C268.528 478.2 270.148 478.48 271.908 478.48C274.108 478.48 275.908 478 277.308 477.04C278.708 476.04 279.408 474.7 279.408 473.02C279.408 471.34 278.688 470.1 277.248 469.3C275.808 468.5 273.588 467.78 270.588 467.14C267.948 466.58 265.868 466 264.348 465.4C262.868 464.76 261.768 463.96 261.048 463C260.328 462.04 259.968 460.78 259.968 459.22C259.968 456.66 261.008 454.6 263.088 453.04C265.168 451.48 267.788 450.7 270.948 450.7C273.108 450.7 275.028 450.98 276.708 451.54C278.428 452.06 280.148 452.94 281.868 454.18C282.228 454.46 282.408 454.76 282.408 455.08C282.408 455.28 282.308 455.54 282.108 455.86L281.388 456.76C281.188 457.08 280.908 457.24 280.548 457.24C280.228 457.24 279.948 457.14 279.708 456.94C278.068 455.78 276.608 455 275.328 454.6C274.088 454.2 272.668 454 271.068 454C268.868 454 267.108 454.48 265.788 455.44C264.468 456.4 263.808 457.62 263.808 459.1C263.808 460.02 264.108 460.76 264.708 461.32C265.308 461.88 266.168 462.36 267.288 462.76C268.408 463.12 270.048 463.54 272.208 464.02C276.208 464.9 279.048 465.98 280.728 467.26C282.448 468.54 283.308 470.4 283.308 472.84C283.308 475.52 282.248 477.68 280.128 479.32C278.008 480.96 275.268 481.78 271.908 481.78ZM302.246 481.78C299.486 481.78 297.026 481.12 294.866 479.8C292.706 478.48 291.026 476.66 289.826 474.34C288.626 471.98 288.026 469.28 288.026 466.24C288.026 463.2 288.626 460.52 289.826 458.2C291.026 455.84 292.706 454 294.866 452.68C297.026 451.36 299.486 450.7 302.246 450.7C305.006 450.7 307.466 451.36 309.626 452.68C311.786 454 313.466 455.84 314.666 458.2C315.866 460.52 316.466 463.2 316.466 466.24C316.466 469.28 315.866 471.98 314.666 474.34C313.466 476.66 311.786 478.48 309.626 479.8C307.466 481.12 305.006 481.78 302.246 481.78ZM302.246 478.48C305.326 478.48 307.786 477.36 309.626 475.12C311.466 472.84 312.386 469.88 312.386 466.24C312.386 462.6 311.466 459.66 309.626 457.42C307.786 455.14 305.326 454 302.246 454C299.166 454 296.706 455.14 294.866 457.42C293.026 459.66 292.106 462.6 292.106 466.24C292.106 469.88 293.026 472.84 294.866 475.12C296.706 477.36 299.166 478.48 302.246 478.48ZM335.938 481.78C333.178 481.78 330.718 481.12 328.558 479.8C326.398 478.48 324.718 476.66 323.518 474.34C322.318 471.98 321.718 469.28 321.718 466.24C321.718 463.2 322.318 460.52 323.518 458.2C324.718 455.84 326.398 454 328.558 452.68C330.718 451.36 333.178 450.7 335.938 450.7C338.698 450.7 341.158 451.36 343.318 452.68C345.478 454 347.158 455.84 348.358 458.2C349.558 460.52 350.158 463.2 350.158 466.24C350.158 469.28 349.558 471.98 348.358 474.34C347.158 476.66 345.478 478.48 343.318 479.8C341.158 481.12 338.698 481.78 335.938 481.78ZM335.938 478.48C339.018 478.48 341.478 477.36 343.318 475.12C345.158 472.84 346.078 469.88 346.078 466.24C346.078 462.6 345.158 459.66 343.318 457.42C341.478 455.14 339.018 454 335.938 454C332.858 454 330.398 455.14 328.558 457.42C326.718 459.66 325.798 462.6 325.798 466.24C325.798 469.88 326.718 472.84 328.558 475.12C330.398 477.36 332.858 478.48 335.938 478.48ZM370.238 450.7C373.718 450.7 376.338 451.66 378.098 453.58C379.898 455.5 380.798 457.9 380.798 460.78V479.8C380.798 480.6 380.398 481 379.598 481H378.038C377.238 481 376.838 480.6 376.838 479.8V462.1C376.838 459.46 376.198 457.46 374.918 456.1C373.638 454.74 371.798 454.06 369.398 454.06C367.878 454.06 366.478 454.44 365.198 455.2C363.918 455.92 362.898 456.92 362.138 458.2C361.378 459.48 360.998 460.88 360.998 462.4V479.8C360.998 480.6 360.598 481 359.798 481H358.238C357.438 481 357.038 480.6 357.038 479.8V452.62C357.038 451.82 357.438 451.42 358.238 451.42H359.558C360.358 451.42 360.758 451.82 360.758 452.62V455.5C361.758 453.9 363.078 452.7 364.718 451.9C366.358 451.1 368.198 450.7 370.238 450.7ZM414.785 450.7C418.425 450.7 421.265 451.58 423.305 453.34C425.345 455.06 426.365 457.34 426.365 460.18V479.8C426.365 480.6 425.965 481 425.165 481H423.965C423.165 481 422.765 480.6 422.765 479.8V477.1C421.765 478.7 420.345 479.9 418.505 480.7C416.705 481.5 414.685 481.9 412.445 481.9C409.325 481.9 406.785 481.24 404.825 479.92C402.865 478.6 401.885 476.56 401.885 473.8C401.885 471.6 402.505 469.84 403.745 468.52C404.985 467.16 406.605 466.14 408.605 465.46C410.605 464.74 413.105 464.1 416.105 463.54L422.585 462.4V460.48C422.585 458.44 421.885 456.86 420.485 455.74C419.085 454.58 417.245 454 414.965 454C413.245 454 411.685 454.32 410.285 454.96C408.885 455.6 407.385 456.7 405.785 458.26C405.505 458.54 405.205 458.68 404.885 458.68C404.605 458.68 404.345 458.56 404.105 458.32L403.325 457.6C403.045 457.32 402.905 457.02 402.905 456.7C402.905 456.34 403.045 456.02 403.325 455.74C405.005 453.98 406.765 452.7 408.605 451.9C410.485 451.1 412.545 450.7 414.785 450.7ZM412.625 478.6C415.505 478.6 417.885 477.84 419.765 476.32C421.645 474.8 422.585 472.86 422.585 470.5V465.46L417.005 466.54C414.405 467.06 412.345 467.56 410.825 468.04C409.305 468.52 408.085 469.22 407.165 470.14C406.245 471.06 405.785 472.26 405.785 473.74C405.785 475.26 406.385 476.46 407.585 477.34C408.825 478.18 410.505 478.6 412.625 478.6ZM445.463 481.78C443.023 481.78 440.863 481.44 438.983 480.76C437.143 480.04 435.203 478.84 433.163 477.16C432.803 476.92 432.623 476.64 432.623 476.32C432.623 476.04 432.763 475.76 433.043 475.48L433.823 474.64C434.063 474.32 434.363 474.16 434.723 474.16C435.003 474.16 435.263 474.28 435.503 474.52C437.423 476 439.123 477.04 440.603 477.64C442.083 478.2 443.703 478.48 445.463 478.48C447.663 478.48 449.463 478 450.863 477.04C452.263 476.04 452.963 474.7 452.963 473.02C452.963 471.34 452.243 470.1 450.803 469.3C449.363 468.5 447.143 467.78 444.143 467.14C441.503 466.58 439.423 466 437.903 465.4C436.423 464.76 435.323 463.96 434.603 463C433.883 462.04 433.523 460.78 433.523 459.22C433.523 456.66 434.563 454.6 436.643 453.04C438.723 451.48 441.343 450.7 444.503 450.7C446.663 450.7 448.583 450.98 450.263 451.54C451.983 452.06 453.703 452.94 455.423 454.18C455.783 454.46 455.963 454.76 455.963 455.08C455.963 455.28 455.863 455.54 455.663 455.86L454.943 456.76C454.743 457.08 454.463 457.24 454.103 457.24C453.783 457.24 453.503 457.14 453.263 456.94C451.623 455.78 450.163 455 448.883 454.6C447.643 454.2 446.223 454 444.623 454C442.423 454 440.663 454.48 439.343 455.44C438.023 456.4 437.363 457.62 437.363 459.1C437.363 460.02 437.663 460.76 438.263 461.32C438.863 461.88 439.723 462.36 440.843 462.76C441.963 463.12 443.603 463.54 445.763 464.02C449.763 464.9 452.603 465.98 454.283 467.26C456.003 468.54 456.863 470.4 456.863 472.84C456.863 475.52 455.803 477.68 453.683 479.32C451.563 480.96 448.823 481.78 445.463 481.78ZM479.369 443.92C478.569 443.92 477.889 443.64 477.329 443.08C476.809 442.52 476.549 441.84 476.549 441.04C476.549 440.24 476.809 439.58 477.329 439.06C477.889 438.54 478.569 438.28 479.369 438.28C480.209 438.28 480.889 438.54 481.409 439.06C481.969 439.58 482.249 440.24 482.249 441.04C482.249 441.84 481.969 442.52 481.409 443.08C480.889 443.64 480.209 443.92 479.369 443.92ZM478.589 481C477.789 481 477.389 480.6 477.389 479.8V452.62C477.389 451.82 477.789 451.42 478.589 451.42H480.149C480.949 451.42 481.349 451.82 481.349 452.62V479.8C481.349 480.6 480.949 481 480.149 481H478.589ZM503.483 477.7C503.603 477.66 503.763 477.64 503.963 477.64C504.203 477.64 504.423 477.72 504.623 477.88C504.823 478.04 504.943 478.26 504.983 478.54L505.163 479.38C505.203 479.46 505.223 479.6 505.223 479.8C505.223 480.36 504.923 480.7 504.323 480.82C502.883 481.26 501.343 481.48 499.703 481.48C497.103 481.48 495.243 480.9 494.123 479.74C493.043 478.54 492.503 476.82 492.503 474.58V454.42H488.063C487.263 454.42 486.863 454.02 486.863 453.22V452.62C486.863 451.82 487.263 451.42 488.063 451.42H492.503V442.3C492.503 441.5 492.903 441.1 493.703 441.1H495.263C496.063 441.1 496.463 441.5 496.463 442.3V451.42H503.663C504.463 451.42 504.863 451.82 504.863 452.62V453.22C504.863 454.02 504.463 454.42 503.663 454.42H496.463V474.1C496.463 475.58 496.743 476.62 497.303 477.22C497.863 477.82 498.823 478.12 500.183 478.12C501.143 478.12 502.243 477.98 503.483 477.7ZM526.713 443.92C525.913 443.92 525.233 443.64 524.673 443.08C524.153 442.52 523.893 441.84 523.893 441.04C523.893 440.24 524.153 439.58 524.673 439.06C525.233 438.54 525.913 438.28 526.713 438.28C527.553 438.28 528.233 438.54 528.753 439.06C529.313 439.58 529.593 440.24 529.593 441.04C529.593 441.84 529.313 442.52 528.753 443.08C528.233 443.64 527.553 443.92 526.713 443.92ZM525.933 481C525.133 481 524.733 480.6 524.733 479.8V452.62C524.733 451.82 525.133 451.42 525.933 451.42H527.493C528.293 451.42 528.693 451.82 528.693 452.62V479.8C528.693 480.6 528.293 481 527.493 481H525.933ZM547.826 481.78C545.386 481.78 543.226 481.44 541.346 480.76C539.506 480.04 537.566 478.84 535.526 477.16C535.166 476.92 534.986 476.64 534.986 476.32C534.986 476.04 535.126 475.76 535.406 475.48L536.186 474.64C536.426 474.32 536.726 474.16 537.086 474.16C537.366 474.16 537.626 474.28 537.866 474.52C539.786 476 541.486 477.04 542.966 477.64C544.446 478.2 546.066 478.48 547.826 478.48C550.026 478.48 551.826 478 553.226 477.04C554.626 476.04 555.326 474.7 555.326 473.02C555.326 471.34 554.606 470.1 553.166 469.3C551.726 468.5 549.506 467.78 546.506 467.14C543.866 466.58 541.786 466 540.266 465.4C538.786 464.76 537.686 463.96 536.966 463C536.246 462.04 535.886 460.78 535.886 459.22C535.886 456.66 536.926 454.6 539.006 453.04C541.086 451.48 543.706 450.7 546.866 450.7C549.026 450.7 550.946 450.98 552.626 451.54C554.346 452.06 556.066 452.94 557.786 454.18C558.146 454.46 558.326 454.76 558.326 455.08C558.326 455.28 558.226 455.54 558.026 455.86L557.306 456.76C557.106 457.08 556.826 457.24 556.466 457.24C556.146 457.24 555.866 457.14 555.626 456.94C553.986 455.78 552.526 455 551.246 454.6C550.006 454.2 548.586 454 546.986 454C544.786 454 543.026 454.48 541.706 455.44C540.386 456.4 539.726 457.62 539.726 459.1C539.726 460.02 540.026 460.76 540.626 461.32C541.226 461.88 542.086 462.36 543.206 462.76C544.326 463.12 545.966 463.54 548.126 464.02C552.126 464.9 554.966 465.98 556.646 467.26C558.366 468.54 559.226 470.4 559.226 472.84C559.226 475.52 558.166 477.68 556.046 479.32C553.926 480.96 551.186 481.78 547.826 481.78ZM581.553 444.58C582.393 444.58 583.093 444.86 583.653 445.42C584.213 445.98 584.493 446.68 584.493 447.52C584.493 448.32 584.193 449 583.593 449.56C582.993 450.12 582.293 450.4 581.493 450.4C580.493 450.4 579.653 450.02 578.973 449.26C578.333 448.46 578.013 447.3 578.013 445.78C578.013 444.22 578.453 442.72 579.333 441.28C580.213 439.8 581.433 438.84 582.993 438.4C583.073 438.36 583.193 438.34 583.353 438.34C583.633 438.34 583.853 438.46 584.013 438.7C584.213 438.9 584.313 439.16 584.313 439.48C584.313 439.64 584.213 439.8 584.013 439.96C583.853 440.08 583.633 440.2 583.353 440.32C582.593 440.68 581.933 441.26 581.373 442.06C580.853 442.86 580.553 443.76 580.473 444.76C580.833 444.64 581.193 444.58 581.553 444.58ZM591.513 444.58C592.353 444.58 593.053 444.86 593.613 445.42C594.173 445.98 594.453 446.68 594.453 447.52C594.453 448.32 594.153 449 593.553 449.56C592.953 450.12 592.253 450.4 591.453 450.4C590.453 450.4 589.613 450.02 588.933 449.26C588.293 448.46 587.973 447.3 587.973 445.78C587.973 444.22 588.413 442.72 589.293 441.28C590.173 439.8 591.393 438.84 592.952 438.4C593.033 438.36 593.153 438.34 593.313 438.34C593.593 438.34 593.813 438.46 593.973 438.7C594.173 438.9 594.273 439.16 594.273 439.48C594.273 439.64 594.173 439.8 593.973 439.96C593.813 440.08 593.593 440.2 593.313 440.32C592.553 440.68 591.893 441.26 591.333 442.06C590.813 442.86 590.513 443.76 590.433 444.76C590.793 444.64 591.153 444.58 591.513 444.58ZM612.888 440.98C611.088 440.98 609.808 441.46 609.048 442.42C608.288 443.34 607.908 444.9 607.908 447.1V451.42H614.508C615.308 451.42 615.708 451.82 615.708 452.62V453.22C615.708 454.02 615.308 454.42 614.508 454.42H607.908V479.8C607.908 480.6 607.508 481 606.708 481H605.148C604.348 481 603.948 480.6 603.948 479.8V454.42H599.508C598.708 454.42 598.308 454.02 598.308 453.22V452.62C598.308 451.82 598.708 451.42 599.508 451.42H603.948V446.44C603.948 443.68 604.668 441.52 606.108 439.96C607.588 438.4 609.688 437.62 612.408 437.62C613.928 437.62 615.488 437.84 617.088 438.28C617.848 438.52 618.128 439.02 617.928 439.78L617.688 440.62C617.488 441.18 617.088 441.46 616.488 441.46C616.368 441.46 616.108 441.42 615.708 441.34C614.828 441.1 613.888 440.98 612.888 440.98ZM623.51 443.92C622.71 443.92 622.03 443.64 621.47 443.08C620.95 442.52 620.69 441.84 620.69 441.04C620.69 440.24 620.95 439.58 621.47 439.06C622.03 438.54 622.71 438.28 623.51 438.28C624.35 438.28 625.03 438.54 625.55 439.06C626.11 439.58 626.39 440.24 626.39 441.04C626.39 441.84 626.11 442.52 625.55 443.08C625.03 443.64 624.35 443.92 623.51 443.92ZM622.73 481C621.93 481 621.53 480.6 621.53 479.8V452.62C621.53 451.82 621.93 451.42 622.73 451.42H624.29C625.09 451.42 625.49 451.82 625.49 452.62V479.8C625.49 480.6 625.09 481 624.29 481H622.73ZM647.503 450.7C650.983 450.7 653.603 451.66 655.363 453.58C657.163 455.5 658.063 457.9 658.063 460.78V479.8C658.063 480.6 657.663 481 656.863 481H655.303C654.503 481 654.103 480.6 654.103 479.8V462.1C654.103 459.46 653.463 457.46 652.183 456.1C650.903 454.74 649.063 454.06 646.663 454.06C645.143 454.06 643.743 454.44 642.463 455.2C641.183 455.92 640.163 456.92 639.403 458.2C638.643 459.48 638.263 460.88 638.263 462.4V479.8C638.263 480.6 637.863 481 637.063 481H635.503C634.703 481 634.303 480.6 634.303 479.8V452.62C634.303 451.82 634.703 451.42 635.503 451.42H636.823C637.623 451.42 638.023 451.82 638.023 452.62V455.5C639.023 453.9 640.343 452.7 641.983 451.9C643.623 451.1 645.463 450.7 647.503 450.7ZM668.803 443.92C668.003 443.92 667.323 443.64 666.763 443.08C666.243 442.52 665.983 441.84 665.983 441.04C665.983 440.24 666.243 439.58 666.763 439.06C667.323 438.54 668.003 438.28 668.803 438.28C669.643 438.28 670.323 438.54 670.843 439.06C671.403 439.58 671.683 440.24 671.683 441.04C671.683 441.84 671.403 442.52 670.843 443.08C670.323 443.64 669.643 443.92 668.803 443.92ZM668.023 481C667.223 481 666.823 480.6 666.823 479.8V452.62C666.823 451.82 667.223 451.42 668.023 451.42H669.583C670.383 451.42 670.783 451.82 670.783 452.62V479.8C670.783 480.6 670.383 481 669.583 481H668.023ZM689.916 481.78C687.476 481.78 685.316 481.44 683.436 480.76C681.596 480.04 679.656 478.84 677.616 477.16C677.256 476.92 677.076 476.64 677.076 476.32C677.076 476.04 677.216 475.76 677.496 475.48L678.276 474.64C678.516 474.32 678.816 474.16 679.176 474.16C679.456 474.16 679.716 474.28 679.956 474.52C681.876 476 683.576 477.04 685.056 477.64C686.536 478.2 688.156 478.48 689.916 478.48C692.116 478.48 693.916 478 695.316 477.04C696.716 476.04 697.416 474.7 697.416 473.02C697.416 471.34 696.696 470.1 695.256 469.3C693.816 468.5 691.596 467.78 688.596 467.14C685.956 466.58 683.876 466 682.356 465.4C680.876 464.76 679.776 463.96 679.056 463C678.336 462.04 677.976 460.78 677.976 459.22C677.976 456.66 679.016 454.6 681.096 453.04C683.176 451.48 685.796 450.7 688.956 450.7C691.116 450.7 693.036 450.98 694.716 451.54C696.436 452.06 698.156 452.94 699.876 454.18C700.236 454.46 700.416 454.76 700.416 455.08C700.416 455.28 700.316 455.54 700.116 455.86L699.396 456.76C699.196 457.08 698.916 457.24 698.556 457.24C698.236 457.24 697.956 457.14 697.716 456.94C696.076 455.78 694.616 455 693.336 454.6C692.096 454.2 690.676 454 689.076 454C686.876 454 685.116 454.48 683.796 455.44C682.476 456.4 681.816 457.62 681.816 459.1C681.816 460.02 682.116 460.76 682.716 461.32C683.316 461.88 684.176 462.36 685.296 462.76C686.416 463.12 688.056 463.54 690.216 464.02C694.216 464.9 697.056 465.98 698.736 467.26C700.456 468.54 701.316 470.4 701.316 472.84C701.316 475.52 700.256 477.68 698.136 479.32C696.016 480.96 693.276 481.78 689.916 481.78ZM721.214 450.7C724.654 450.7 727.274 451.68 729.074 453.64C730.874 455.56 731.774 457.94 731.774 460.78V479.8C731.774 480.6 731.374 481 730.574 481H729.014C728.214 481 727.814 480.6 727.814 479.8V462.1C727.814 459.46 727.174 457.46 725.894 456.1C724.614 454.74 722.774 454.06 720.374 454.06C718.854 454.06 717.454 454.44 716.174 455.2C714.894 455.92 713.874 456.92 713.114 458.2C712.354 459.48 711.974 460.88 711.974 462.4V479.8C711.974 480.6 711.574 481 710.774 481H709.214C708.414 481 708.014 480.6 708.014 479.8V439.6C708.014 438.8 708.414 438.4 709.214 438.4H710.774C711.574 438.4 711.974 438.8 711.974 439.6V455.26C712.934 453.74 714.214 452.6 715.814 451.84C717.454 451.08 719.254 450.7 721.214 450.7ZM762.074 473.98C762.354 473.7 762.654 473.56 762.974 473.56C763.254 473.56 763.514 473.68 763.754 473.92L764.534 474.64C764.814 474.92 764.954 475.22 764.954 475.54C764.954 475.78 764.834 476.06 764.594 476.38C762.634 478.34 760.734 479.74 758.894 480.58C757.054 481.38 754.994 481.78 752.714 481.78C749.834 481.78 747.334 481.14 745.214 479.86C743.094 478.58 741.454 476.8 740.294 474.52C739.134 472.2 738.554 469.52 738.554 466.48C738.554 463.4 739.114 460.68 740.234 458.32C741.394 455.92 743.014 454.06 745.094 452.74C747.174 451.38 749.574 450.7 752.294 450.7C756.334 450.7 759.514 451.96 761.834 454.48C764.154 457 765.314 460.4 765.314 464.68V465.4C765.274 465.76 765.134 466.04 764.894 466.24C764.694 466.44 764.414 466.54 764.054 466.54H742.574C742.694 469.9 743.574 472.74 745.214 475.06C746.894 477.34 749.394 478.48 752.714 478.48C754.514 478.48 756.094 478.16 757.454 477.52C758.854 476.84 760.394 475.66 762.074 473.98ZM752.294 454C749.654 454 747.474 454.82 745.754 456.46C744.074 458.06 743.054 460.42 742.694 463.54H761.354C761.274 460.62 760.434 458.3 758.834 456.58C757.234 454.86 755.054 454 752.294 454ZM793.827 439.6C793.827 438.8 794.227 438.4 795.027 438.4H796.587C797.387 438.4 797.787 438.8 797.787 439.6V479.8C797.787 480.6 797.387 481 796.587 481H795.327C794.527 481 794.127 480.6 794.127 479.8V475.9C793.047 477.78 791.627 479.22 789.867 480.22C788.107 481.22 786.027 481.72 783.627 481.72C781.107 481.72 778.867 481.08 776.907 479.8C774.947 478.48 773.407 476.66 772.287 474.34C771.167 471.98 770.607 469.28 770.607 466.24C770.607 463.2 771.167 460.52 772.287 458.2C773.447 455.84 775.027 454.02 777.027 452.74C779.027 451.42 781.267 450.76 783.747 450.76C788.307 450.76 791.667 452.46 793.827 455.86V439.6ZM783.927 478.36C786.927 478.36 789.347 477.3 791.187 475.18C793.067 473.02 794.007 470.04 794.007 466.24C794.007 462.48 793.067 459.52 791.187 457.36C789.347 455.2 786.927 454.12 783.927 454.12C781.167 454.12 778.927 455.24 777.207 457.48C775.527 459.72 774.687 462.64 774.687 466.24C774.687 469.88 775.527 472.82 777.207 475.06C778.887 477.26 781.127 478.36 783.927 478.36ZM807.886 438.16C808.926 438.16 809.766 438.56 810.406 439.36C811.086 440.12 811.426 441.26 811.426 442.78C811.426 444.34 810.986 445.86 810.106 447.34C809.226 448.78 808.006 449.72 806.446 450.16C806.366 450.2 806.246 450.22 806.086 450.22C805.806 450.22 805.566 450.12 805.366 449.92C805.206 449.68 805.126 449.4 805.126 449.08C805.126 448.92 805.206 448.78 805.366 448.66C805.566 448.5 805.806 448.36 806.086 448.24C806.846 447.88 807.486 447.3 808.006 446.5C808.566 445.66 808.886 444.74 808.966 443.74C808.606 443.9 808.226 443.98 807.826 443.98C807.026 443.98 806.346 443.72 805.786 443.2C805.226 442.64 804.946 441.94 804.946 441.1C804.946 440.26 805.226 439.56 805.786 439C806.386 438.44 807.086 438.16 807.886 438.16ZM817.666 438.16C818.706 438.16 819.546 438.56 820.186 439.36C820.866 440.12 821.206 441.26 821.206 442.78C821.206 444.34 820.766 445.86 819.886 447.34C819.006 448.78 817.786 449.72 816.226 450.16C816.146 450.2 816.026 450.22 815.866 450.22C815.586 450.22 815.346 450.12 815.146 449.92C814.986 449.68 814.906 449.4 814.906 449.08C814.906 448.92 814.986 448.78 815.146 448.66C815.346 448.5 815.586 448.36 815.866 448.24C816.586 447.84 817.206 447.24 817.726 446.44C818.286 445.64 818.606 444.74 818.686 443.74C818.366 443.9 818.006 443.98 817.606 443.98C816.806 443.98 816.126 443.72 815.566 443.2C815.006 442.64 814.726 441.94 814.726 441.1C814.726 440.26 815.006 439.56 815.566 439C816.166 438.44 816.866 438.16 817.666 438.16ZM824.009 475.3C825.089 475.3 825.969 475.72 826.649 476.56C827.369 477.36 827.729 478.58 827.729 480.22C827.729 481.86 827.249 483.46 826.289 485.02C825.369 486.62 824.089 487.64 822.449 488.08L822.149 488.14C821.829 488.14 821.569 488.02 821.369 487.78C821.209 487.58 821.129 487.3 821.129 486.94C821.129 486.7 821.209 486.5 821.369 486.34C821.529 486.22 821.769 486.08 822.089 485.92C822.889 485.56 823.569 484.96 824.129 484.12C824.689 483.28 825.009 482.32 825.089 481.24C824.729 481.36 824.349 481.42 823.949 481.42C823.109 481.42 822.389 481.14 821.789 480.58C821.229 480.02 820.949 479.3 820.949 478.42C820.949 477.54 821.249 476.8 821.849 476.2C822.449 475.6 823.169 475.3 824.009 475.3ZM849.74 443.92C848.94 443.92 848.26 443.64 847.7 443.08C847.18 442.52 846.92 441.84 846.92 441.04C846.92 440.24 847.18 439.58 847.7 439.06C848.26 438.54 848.94 438.28 849.74 438.28C850.58 438.28 851.26 438.54 851.78 439.06C852.34 439.58 852.62 440.24 852.62 441.04C852.62 441.84 852.34 442.52 851.78 443.08C851.26 443.64 850.58 443.92 849.74 443.92ZM848.96 481C848.16 481 847.76 480.6 847.76 479.8V452.62C847.76 451.82 848.16 451.42 848.96 451.42H850.52C851.32 451.42 851.72 451.82 851.72 452.62V479.8C851.72 480.6 851.32 481 850.52 481H848.96ZM873.854 477.7C873.974 477.66 874.134 477.64 874.334 477.64C874.574 477.64 874.794 477.72 874.994 477.88C875.194 478.04 875.314 478.26 875.354 478.54L875.534 479.38C875.574 479.46 875.594 479.6 875.594 479.8C875.594 480.36 875.294 480.7 874.694 480.82C873.254 481.26 871.714 481.48 870.074 481.48C867.474 481.48 865.614 480.9 864.494 479.74C863.414 478.54 862.874 476.82 862.874 474.58V454.42H858.434C857.634 454.42 857.234 454.02 857.234 453.22V452.62C857.234 451.82 857.634 451.42 858.434 451.42H862.874V442.3C862.874 441.5 863.274 441.1 864.074 441.1H865.634C866.434 441.1 866.834 441.5 866.834 442.3V451.42H874.034C874.834 451.42 875.234 451.82 875.234 452.62V453.22C875.234 454.02 874.834 454.42 874.034 454.42H866.834V474.1C866.834 475.58 867.114 476.62 867.674 477.22C868.234 477.82 869.194 478.12 870.554 478.12C871.514 478.12 872.614 477.98 873.854 477.7ZM882.476 438.16C883.516 438.16 884.356 438.56 884.996 439.36C885.676 440.12 886.016 441.26 886.016 442.78C886.016 444.34 885.576 445.86 884.696 447.34C883.816 448.78 882.596 449.72 881.036 450.16C880.956 450.2 880.836 450.22 880.676 450.22C880.396 450.22 880.156 450.12 879.956 449.92C879.796 449.68 879.716 449.4 879.716 449.08C879.716 448.92 879.796 448.78 879.956 448.66C880.156 448.5 880.396 448.36 880.676 448.24C881.436 447.88 882.076 447.3 882.596 446.5C883.156 445.66 883.476 444.74 883.556 443.74C883.196 443.9 882.816 443.98 882.416 443.98C881.616 443.98 880.936 443.72 880.376 443.2C879.816 442.64 879.536 441.94 879.536 441.1C879.536 440.26 879.816 439.56 880.376 439C880.976 438.44 881.676 438.16 882.476 438.16ZM900.209 481.78C897.769 481.78 895.609 481.44 893.729 480.76C891.889 480.04 889.949 478.84 887.909 477.16C887.549 476.92 887.369 476.64 887.369 476.32C887.369 476.04 887.509 475.76 887.789 475.48L888.569 474.64C888.809 474.32 889.109 474.16 889.469 474.16C889.749 474.16 890.009 474.28 890.249 474.52C892.169 476 893.869 477.04 895.349 477.64C896.829 478.2 898.449 478.48 900.209 478.48C902.409 478.48 904.209 478 905.609 477.04C907.009 476.04 907.709 474.7 907.709 473.02C907.709 471.34 906.989 470.1 905.549 469.3C904.109 468.5 901.889 467.78 898.889 467.14C896.249 466.58 894.169 466 892.649 465.4C891.169 464.76 890.069 463.96 889.349 463C888.629 462.04 888.269 460.78 888.269 459.22C888.269 456.66 889.309 454.6 891.389 453.04C893.469 451.48 896.089 450.7 899.249 450.7C901.409 450.7 903.329 450.98 905.009 451.54C906.729 452.06 908.449 452.94 910.169 454.18C910.529 454.46 910.709 454.76 910.709 455.08C910.709 455.28 910.609 455.54 910.409 455.86L909.689 456.76C909.489 457.08 909.209 457.24 908.849 457.24C908.529 457.24 908.249 457.14 908.009 456.94C906.369 455.78 904.909 455 903.629 454.6C902.389 454.2 900.969 454 899.369 454C897.169 454 895.409 454.48 894.089 455.44C892.769 456.4 892.109 457.62 892.109 459.1C892.109 460.02 892.409 460.76 893.009 461.32C893.609 461.88 894.469 462.36 895.589 462.76C896.709 463.12 898.349 463.54 900.509 464.02C904.509 464.9 907.349 465.98 909.029 467.26C910.749 468.54 911.609 470.4 911.609 472.84C911.609 475.52 910.549 477.68 908.429 479.32C906.309 480.96 903.569 481.78 900.209 481.78ZM945.335 450.7C948.815 450.7 951.435 451.66 953.195 453.58C954.995 455.5 955.895 457.9 955.895 460.78V479.8C955.895 480.6 955.495 481 954.695 481H953.135C952.335 481 951.935 480.6 951.935 479.8V462.1C951.935 459.46 951.295 457.46 950.015 456.1C948.735 454.74 946.895 454.06 944.495 454.06C942.975 454.06 941.575 454.44 940.295 455.2C939.015 455.92 937.995 456.92 937.235 458.2C936.475 459.48 936.095 460.88 936.095 462.4V479.8C936.095 480.6 935.695 481 934.895 481H933.335C932.535 481 932.135 480.6 932.135 479.8V452.62C932.135 451.82 932.535 451.42 933.335 451.42H934.655C935.455 451.42 935.855 451.82 935.855 452.62V455.5C936.855 453.9 938.175 452.7 939.815 451.9C941.455 451.1 943.295 450.7 945.335 450.7ZM976.895 481.78C974.135 481.78 971.675 481.12 969.515 479.8C967.355 478.48 965.675 476.66 964.475 474.34C963.275 471.98 962.675 469.28 962.675 466.24C962.675 463.2 963.275 460.52 964.475 458.2C965.675 455.84 967.355 454 969.515 452.68C971.675 451.36 974.135 450.7 976.895 450.7C979.655 450.7 982.115 451.36 984.275 452.68C986.435 454 988.115 455.84 989.315 458.2C990.515 460.52 991.115 463.2 991.115 466.24C991.115 469.28 990.515 471.98 989.315 474.34C988.115 476.66 986.435 478.48 984.275 479.8C982.115 481.12 979.655 481.78 976.895 481.78ZM976.895 478.48C979.975 478.48 982.435 477.36 984.275 475.12C986.115 472.84 987.035 469.88 987.035 466.24C987.035 462.6 986.115 459.66 984.275 457.42C982.435 455.14 979.975 454 976.895 454C973.815 454 971.355 455.14 969.515 457.42C967.675 459.66 966.755 462.6 966.755 466.24C966.755 469.88 967.675 472.84 969.515 475.12C971.355 477.36 973.815 478.48 976.895 478.48ZM1013.08 481C1012.28 481 1011.88 480.6 1011.88 479.8V439.6C1011.88 438.8 1012.28 438.4 1013.08 438.4H1014.64C1015.44 438.4 1015.84 438.8 1015.84 439.6V479.8C1015.84 480.6 1015.44 481 1014.64 481H1013.08ZM1037.01 481.78C1034.25 481.78 1031.79 481.12 1029.63 479.8C1027.47 478.48 1025.79 476.66 1024.59 474.34C1023.39 471.98 1022.79 469.28 1022.79 466.24C1022.79 463.2 1023.39 460.52 1024.59 458.2C1025.79 455.84 1027.47 454 1029.63 452.68C1031.79 451.36 1034.25 450.7 1037.01 450.7C1039.77 450.7 1042.23 451.36 1044.39 452.68C1046.55 454 1048.23 455.84 1049.43 458.2C1050.63 460.52 1051.23 463.2 1051.23 466.24C1051.23 469.28 1050.63 471.98 1049.43 474.34C1048.23 476.66 1046.55 478.48 1044.39 479.8C1042.23 481.12 1039.77 481.78 1037.01 481.78ZM1037.01 478.48C1040.09 478.48 1042.55 477.36 1044.39 475.12C1046.23 472.84 1047.15 469.88 1047.15 466.24C1047.15 462.6 1046.23 459.66 1044.39 457.42C1042.55 455.14 1040.09 454 1037.01 454C1033.93 454 1031.47 455.14 1029.63 457.42C1027.79 459.66 1026.87 462.6 1026.87 466.24C1026.87 469.88 1027.79 472.84 1029.63 475.12C1031.47 477.36 1033.93 478.48 1037.01 478.48ZM1071.31 450.7C1074.79 450.7 1077.41 451.66 1079.17 453.58C1080.97 455.5 1081.87 457.9 1081.87 460.78V479.8C1081.87 480.6 1081.47 481 1080.67 481H1079.11C1078.31 481 1077.91 480.6 1077.91 479.8V462.1C1077.91 459.46 1077.27 457.46 1075.99 456.1C1074.71 454.74 1072.87 454.06 1070.47 454.06C1068.95 454.06 1067.55 454.44 1066.27 455.2C1064.99 455.92 1063.97 456.92 1063.21 458.2C1062.45 459.48 1062.07 460.88 1062.07 462.4V479.8C1062.07 480.6 1061.67 481 1060.87 481H1059.31C1058.51 481 1058.11 480.6 1058.11 479.8V452.62C1058.11 451.82 1058.51 451.42 1059.31 451.42H1060.63C1061.43 451.42 1061.83 451.82 1061.83 452.62V455.5C1062.83 453.9 1064.15 452.7 1065.79 451.9C1067.43 451.1 1069.27 450.7 1071.31 450.7ZM1111.87 452.62C1111.87 451.82 1112.27 451.42 1113.07 451.42H1114.33C1115.13 451.42 1115.53 451.82 1115.53 452.62V480.7C1115.53 484.42 1114.41 487.34 1112.17 489.46C1109.93 491.62 1106.79 492.7 1102.75 492.7C1098.39 492.7 1094.37 491.46 1090.69 488.98C1090.29 488.74 1090.09 488.44 1090.09 488.08C1090.09 487.8 1090.17 487.56 1090.33 487.36L1091.05 486.34C1091.29 485.94 1091.61 485.74 1092.01 485.74C1092.17 485.74 1092.41 485.82 1092.73 485.98C1094.49 487.1 1096.13 487.94 1097.65 488.5C1099.21 489.06 1100.91 489.34 1102.75 489.34C1105.39 489.34 1107.53 488.6 1109.17 487.12C1110.81 485.68 1111.63 483.44 1111.63 480.4V475.6C1109.47 479.08 1106.19 480.82 1101.79 480.82C1099.23 480.82 1096.97 480.18 1095.01 478.9C1093.05 477.58 1091.53 475.78 1090.45 473.5C1089.41 471.22 1088.89 468.64 1088.89 465.76C1088.89 462.88 1089.41 460.3 1090.45 458.02C1091.53 455.74 1093.05 453.96 1095.01 452.68C1096.97 451.36 1099.23 450.7 1101.79 450.7C1104.11 450.7 1106.11 451.2 1107.79 452.2C1109.51 453.16 1110.87 454.54 1111.87 456.34V452.62ZM1102.21 477.46C1105.09 477.46 1107.39 476.38 1109.11 474.22C1110.83 472.02 1111.69 469.2 1111.69 465.76C1111.69 462.32 1110.83 459.52 1109.11 457.36C1107.39 455.16 1105.09 454.06 1102.21 454.06C1099.29 454.06 1097.01 455.14 1095.37 457.3C1093.77 459.46 1092.97 462.28 1092.97 465.76C1092.97 469.24 1093.77 472.06 1095.37 474.22C1097.01 476.38 1099.29 477.46 1102.21 477.46ZM1145.98 473.98C1146.26 473.7 1146.56 473.56 1146.88 473.56C1147.16 473.56 1147.42 473.68 1147.66 473.92L1148.44 474.64C1148.72 474.92 1148.86 475.22 1148.86 475.54C1148.86 475.78 1148.74 476.06 1148.5 476.38C1146.54 478.34 1144.64 479.74 1142.8 480.58C1140.96 481.38 1138.9 481.78 1136.62 481.78C1133.74 481.78 1131.24 481.14 1129.12 479.86C1127 478.58 1125.36 476.8 1124.2 474.52C1123.04 472.2 1122.46 469.52 1122.46 466.48C1122.46 463.4 1123.02 460.68 1124.14 458.32C1125.3 455.92 1126.92 454.06 1129 452.74C1131.08 451.38 1133.48 450.7 1136.2 450.7C1140.24 450.7 1143.42 451.96 1145.74 454.48C1148.06 457 1149.22 460.4 1149.22 464.68V465.4C1149.18 465.76 1149.04 466.04 1148.8 466.24C1148.6 466.44 1148.32 466.54 1147.96 466.54H1126.48C1126.6 469.9 1127.48 472.74 1129.12 475.06C1130.8 477.34 1133.3 478.48 1136.62 478.48C1138.42 478.48 1140 478.16 1141.36 477.52C1142.76 476.84 1144.3 475.66 1145.98 473.98ZM1136.2 454C1133.56 454 1131.38 454.82 1129.66 456.46C1127.98 458.06 1126.96 460.42 1126.6 463.54H1145.26C1145.18 460.62 1144.34 458.3 1142.74 456.58C1141.14 454.86 1138.96 454 1136.2 454ZM1167.36 451.18C1168.36 451.18 1169.54 451.34 1170.9 451.66C1171.62 451.9 1171.9 452.4 1171.74 453.16L1171.5 454.12C1171.3 454.88 1170.8 455.16 1170 454.96C1169.04 454.72 1168.16 454.6 1167.36 454.6C1165.32 454.6 1163.62 455.48 1162.26 457.24C1160.94 459 1160.28 461.44 1160.28 464.56V479.8C1160.28 480.6 1159.88 481 1159.08 481H1157.52C1156.72 481 1156.32 480.6 1156.32 479.8V452.62C1156.32 451.82 1156.72 451.42 1157.52 451.42H1158.84C1159.64 451.42 1160.04 451.82 1160.04 452.62V455.92C1160.72 454.44 1161.68 453.28 1162.92 452.44C1164.2 451.6 1165.68 451.18 1167.36 451.18ZM1201.98 451.18C1202.98 451.18 1204.16 451.34 1205.52 451.66C1206.24 451.9 1206.52 452.4 1206.36 453.16L1206.12 454.12C1205.92 454.88 1205.42 455.16 1204.62 454.96C1203.66 454.72 1202.78 454.6 1201.98 454.6C1199.94 454.6 1198.24 455.48 1196.88 457.24C1195.56 459 1194.9 461.44 1194.9 464.56V479.8C1194.9 480.6 1194.5 481 1193.7 481H1192.14C1191.34 481 1190.94 480.6 1190.94 479.8V452.62C1190.94 451.82 1191.34 451.42 1192.14 451.42H1193.46C1194.26 451.42 1194.66 451.82 1194.66 452.62V455.92C1195.34 454.44 1196.3 453.28 1197.54 452.44C1198.82 451.6 1200.3 451.18 1201.98 451.18ZM1231.64 473.98C1231.92 473.7 1232.22 473.56 1232.54 473.56C1232.82 473.56 1233.08 473.68 1233.32 473.92L1234.1 474.64C1234.38 474.92 1234.52 475.22 1234.52 475.54C1234.52 475.78 1234.4 476.06 1234.16 476.38C1232.2 478.34 1230.3 479.74 1228.46 480.58C1226.62 481.38 1224.56 481.78 1222.28 481.78C1219.4 481.78 1216.9 481.14 1214.78 479.86C1212.66 478.58 1211.02 476.8 1209.86 474.52C1208.7 472.2 1208.12 469.52 1208.12 466.48C1208.12 463.4 1208.68 460.68 1209.8 458.32C1210.96 455.92 1212.58 454.06 1214.66 452.74C1216.74 451.38 1219.14 450.7 1221.86 450.7C1225.9 450.7 1229.08 451.96 1231.4 454.48C1233.72 457 1234.88 460.4 1234.88 464.68V465.4C1234.84 465.76 1234.7 466.04 1234.46 466.24C1234.26 466.44 1233.98 466.54 1233.62 466.54H1212.14C1212.26 469.9 1213.14 472.74 1214.78 475.06C1216.46 477.34 1218.96 478.48 1222.28 478.48C1224.08 478.48 1225.66 478.16 1227.02 477.52C1228.42 476.84 1229.96 475.66 1231.64 473.98ZM1221.86 454C1219.22 454 1217.04 454.82 1215.32 456.46C1213.64 458.06 1212.62 460.42 1212.26 463.54H1230.92C1230.84 460.62 1230 458.3 1228.4 456.58C1226.8 454.86 1224.62 454 1221.86 454ZM1243.24 481C1242.44 481 1242.04 480.6 1242.04 479.8V439.6C1242.04 438.8 1242.44 438.4 1243.24 438.4H1244.8C1245.6 438.4 1246 438.8 1246 439.6V479.8C1246 480.6 1245.6 481 1244.8 481H1243.24ZM1276.47 473.98C1276.75 473.7 1277.05 473.56 1277.37 473.56C1277.65 473.56 1277.91 473.68 1278.15 473.92L1278.93 474.64C1279.21 474.92 1279.35 475.22 1279.35 475.54C1279.35 475.78 1279.23 476.06 1278.99 476.38C1277.03 478.34 1275.13 479.74 1273.29 480.58C1271.45 481.38 1269.39 481.78 1267.11 481.78C1264.23 481.78 1261.73 481.14 1259.61 479.86C1257.49 478.58 1255.85 476.8 1254.69 474.52C1253.53 472.2 1252.95 469.52 1252.95 466.48C1252.95 463.4 1253.51 460.68 1254.63 458.32C1255.79 455.92 1257.41 454.06 1259.49 452.74C1261.57 451.38 1263.97 450.7 1266.69 450.7C1270.73 450.7 1273.91 451.96 1276.23 454.48C1278.55 457 1279.71 460.4 1279.71 464.68V465.4C1279.67 465.76 1279.53 466.04 1279.29 466.24C1279.09 466.44 1278.81 466.54 1278.45 466.54H1256.97C1257.09 469.9 1257.97 472.74 1259.61 475.06C1261.29 477.34 1263.79 478.48 1267.11 478.48C1268.91 478.48 1270.49 478.16 1271.85 477.52C1273.25 476.84 1274.79 475.66 1276.47 473.98ZM1266.69 454C1264.05 454 1261.87 454.82 1260.15 456.46C1258.47 458.06 1257.45 460.42 1257.09 463.54H1275.75C1275.67 460.62 1274.83 458.3 1273.23 456.58C1271.63 454.86 1269.45 454 1266.69 454ZM1304.93 452.38C1305.17 451.74 1305.63 451.42 1306.31 451.42H1307.87C1308.19 451.42 1308.45 451.5 1308.65 451.66C1308.85 451.82 1308.95 452.04 1308.95 452.32L1308.83 452.8L1299.29 480.04C1299.05 480.68 1298.59 481 1297.91 481H1294.73C1294.05 481 1293.59 480.68 1293.35 480.04L1283.87 452.8L1283.75 452.32C1283.75 452.04 1283.85 451.82 1284.05 451.66C1284.25 451.5 1284.51 451.42 1284.83 451.42H1286.45C1287.13 451.42 1287.59 451.74 1287.83 452.38L1291.49 462.94C1293.01 467.34 1294.63 472.4 1296.35 478.12C1296.43 477.88 1296.65 477.2 1297.01 476.08C1298.65 470.68 1300.07 466.3 1301.27 462.94L1304.93 452.38ZM1325.92 450.7C1329.56 450.7 1332.4 451.58 1334.44 453.34C1336.48 455.06 1337.5 457.34 1337.5 460.18V479.8C1337.5 480.6 1337.1 481 1336.3 481H1335.1C1334.3 481 1333.9 480.6 1333.9 479.8V477.1C1332.9 478.7 1331.48 479.9 1329.64 480.7C1327.84 481.5 1325.82 481.9 1323.58 481.9C1320.46 481.9 1317.92 481.24 1315.96 479.92C1314 478.6 1313.02 476.56 1313.02 473.8C1313.02 471.6 1313.64 469.84 1314.88 468.52C1316.12 467.16 1317.74 466.14 1319.74 465.46C1321.74 464.74 1324.24 464.1 1327.24 463.54L1333.72 462.4V460.48C1333.72 458.44 1333.02 456.86 1331.62 455.74C1330.22 454.58 1328.38 454 1326.1 454C1324.38 454 1322.82 454.32 1321.42 454.96C1320.02 455.6 1318.52 456.7 1316.92 458.26C1316.64 458.54 1316.34 458.68 1316.02 458.68C1315.74 458.68 1315.48 458.56 1315.24 458.32L1314.46 457.6C1314.18 457.32 1314.04 457.02 1314.04 456.7C1314.04 456.34 1314.18 456.02 1314.46 455.74C1316.14 453.98 1317.9 452.7 1319.74 451.9C1321.62 451.1 1323.68 450.7 1325.92 450.7ZM1323.76 478.6C1326.64 478.6 1329.02 477.84 1330.9 476.32C1332.78 474.8 1333.72 472.86 1333.72 470.5V465.46L1328.14 466.54C1325.54 467.06 1323.48 467.56 1321.96 468.04C1320.44 468.52 1319.22 469.22 1318.3 470.14C1317.38 471.06 1316.92 472.26 1316.92 473.74C1316.92 475.26 1317.52 476.46 1318.72 477.34C1319.96 478.18 1321.64 478.6 1323.76 478.6ZM1359.48 450.7C1362.96 450.7 1365.58 451.66 1367.34 453.58C1369.14 455.5 1370.04 457.9 1370.04 460.78V479.8C1370.04 480.6 1369.64 481 1368.84 481H1367.28C1366.48 481 1366.08 480.6 1366.08 479.8V462.1C1366.08 459.46 1365.44 457.46 1364.16 456.1C1362.88 454.74 1361.04 454.06 1358.64 454.06C1357.12 454.06 1355.72 454.44 1354.44 455.2C1353.16 455.92 1352.14 456.92 1351.38 458.2C1350.62 459.48 1350.24 460.88 1350.24 462.4V479.8C1350.24 480.6 1349.84 481 1349.04 481H1347.48C1346.68 481 1346.28 480.6 1346.28 479.8V452.62C1346.28 451.82 1346.68 451.42 1347.48 451.42H1348.8C1349.6 451.42 1350 451.82 1350 452.62V455.5C1351 453.9 1352.32 452.7 1353.96 451.9C1355.6 451.1 1357.44 450.7 1359.48 450.7ZM1391.3 477.7C1391.42 477.66 1391.58 477.64 1391.78 477.64C1392.02 477.64 1392.24 477.72 1392.44 477.88C1392.64 478.04 1392.76 478.26 1392.8 478.54L1392.98 479.38C1393.02 479.46 1393.04 479.6 1393.04 479.8C1393.04 480.36 1392.74 480.7 1392.14 480.82C1390.7 481.26 1389.16 481.48 1387.52 481.48C1384.92 481.48 1383.06 480.9 1381.94 479.74C1380.86 478.54 1380.32 476.82 1380.32 474.58V454.42H1375.88C1375.08 454.42 1374.68 454.02 1374.68 453.22V452.62C1374.68 451.82 1375.08 451.42 1375.88 451.42H1380.32V442.3C1380.32 441.5 1380.72 441.1 1381.52 441.1H1383.08C1383.88 441.1 1384.28 441.5 1384.28 442.3V451.42H1391.48C1392.28 451.42 1392.68 451.82 1392.68 452.62V453.22C1392.68 454.02 1392.28 454.42 1391.48 454.42H1384.28V474.1C1384.28 475.58 1384.56 476.62 1385.12 477.22C1385.68 477.82 1386.64 478.12 1388 478.12C1388.96 478.12 1390.06 477.98 1391.3 477.7ZM1399.92 438.16C1400.96 438.16 1401.8 438.56 1402.44 439.36C1403.12 440.12 1403.46 441.26 1403.46 442.78C1403.46 444.34 1403.02 445.86 1402.14 447.34C1401.26 448.78 1400.04 449.72 1398.48 450.16C1398.4 450.2 1398.28 450.22 1398.12 450.22C1397.84 450.22 1397.6 450.12 1397.4 449.92C1397.24 449.68 1397.16 449.4 1397.16 449.08C1397.16 448.92 1397.24 448.78 1397.4 448.66C1397.6 448.5 1397.84 448.36 1398.12 448.24C1398.88 447.88 1399.52 447.3 1400.04 446.5C1400.6 445.66 1400.92 444.74 1401 443.74C1400.64 443.9 1400.26 443.98 1399.86 443.98C1399.06 443.98 1398.38 443.72 1397.82 443.2C1397.26 442.64 1396.98 441.94 1396.98 441.1C1396.98 440.26 1397.26 439.56 1397.82 439C1398.42 438.44 1399.12 438.16 1399.92 438.16ZM1409.7 438.16C1410.74 438.16 1411.58 438.56 1412.22 439.36C1412.9 440.12 1413.24 441.26 1413.24 442.78C1413.24 444.34 1412.8 445.86 1411.92 447.34C1411.04 448.78 1409.82 449.72 1408.26 450.16C1408.18 450.2 1408.06 450.22 1407.9 450.22C1407.62 450.22 1407.38 450.12 1407.18 449.92C1407.02 449.68 1406.94 449.4 1406.94 449.08C1406.94 448.92 1407.02 448.78 1407.18 448.66C1407.38 448.5 1407.62 448.36 1407.9 448.24C1408.62 447.84 1409.24 447.24 1409.76 446.44C1410.32 445.64 1410.64 444.74 1410.72 443.74C1410.4 443.9 1410.04 443.98 1409.64 443.98C1408.84 443.98 1408.16 443.72 1407.6 443.2C1407.04 442.64 1406.76 441.94 1406.76 441.1C1406.76 440.26 1407.04 439.56 1407.6 439C1408.2 438.44 1408.9 438.16 1409.7 438.16Z" fill="white"/>
<rect x="1737.69" y="898.451" width="166" height="166" fill="#38BDF8"/>
<path d="M1915.69 1076.49H1725.6V886.013H1915.69V1076.49ZM1738.04 1064.03H1903.18V898.555H1738.04V1064.03Z" fill="white"/>
<path d="M1827.59 809.549C1869.26 809.549 1903.18 843.533 1903.18 885.285V886.094H1826.78V809.549H1827.59ZM1827.59 797.007H1814.35V898.474H1915.61V885.204C1915.61 836.493 1876.21 797.007 1827.59 797.007Z" fill="white"/>
<path d="M1649.21 992.659L1720.43 1064.03H1649.21V992.659ZM1649.21 975.019H1636.77V1076.49H1738.04V1064.03L1649.21 975.019Z" fill="white"/>
<path d="M1725.6 987.48V1064.03H1649.21V987.48H1725.6ZM1738.04 975.019H1636.77V1076.49H1738.04V975.019Z" fill="white"/>
<path d="M1559.49 952.121L1505.55 1006.17L1451.6 952.121L1505.55 898.07L1559.49 952.121ZM1577.09 952.121L1505.55 880.43L1434 952.121L1505.55 1023.81L1577.09 952.121Z" fill="white"/>
<path d="M1700.69 850.451H1622.69V772.451H1700.69V850.451Z" fill="#BAE6FD"/>
<path d="M1623.61 773.461H1699.92V849.925H1623.61V773.461ZM1611.09 761V862.386H1712.28V761H1611.09Z" fill="white"/>
<rect x="8" y="8" width="1904" height="1064" stroke="white" stroke-width="16"/>
</svg>
