<svg width="344" height="182" viewBox="0 0 344 182" fill="none" xmlns="http://www.w3.org/2000/svg">
<rect width="344" height="182" fill="#F5F5F5"/>
<rect x="16.5" y="40.5" width="311" height="101" rx="3.5" fill="#FFF8E6"/>
<path d="M32.2449 72.0095L38.159 61.0841C38.9414 59.6386 41.0586 59.6386 41.841 61.0841L47.7551 72.0095C48.4895 73.3663 47.4838 75 45.9141 75H34.0859C32.5162 75 31.5105 73.3663 32.2449 72.0095Z" fill="#D5840B"/>
<path fill-rule="evenodd" clip-rule="evenodd" d="M40 63.25C40.4142 63.25 40.75 63.5858 40.75 64V69C40.75 69.4142 40.4142 69.75 40 69.75C39.5858 69.75 39.25 69.4142 39.25 69V64C39.25 63.5858 39.5858 63.25 40 63.25Z" fill="white"/>
<path d="M40.8002 71.8C40.8002 72.2418 40.442 72.6 40.0002 72.6C39.5584 72.6 39.2002 72.2418 39.2002 71.8C39.2002 71.3582 39.5584 71 40.0002 71C40.442 71 40.8002 71.3582 40.8002 71.8Z" fill="white"/>
<path d="M64.218 74C63.938 74 63.7513 73.8693 63.658 73.608L63 71.718H58.604L57.946 73.608C57.8527 73.8693 57.666 74 57.386 74H56.798C56.658 74 56.546 73.972 56.462 73.916C56.3873 73.8507 56.35 73.762 56.35 73.65C56.35 73.594 56.364 73.524 56.392 73.44L59.64 64.452C59.7333 64.1907 59.92 64.06 60.2 64.06H61.446C61.726 64.06 61.9127 64.1907 62.006 64.452L65.254 73.44C65.282 73.524 65.296 73.594 65.296 73.65C65.296 73.762 65.254 73.8507 65.17 73.916C65.0953 73.972 64.988 74 64.848 74H64.218ZM62.552 70.388L62.118 69.156C62.1087 69.1373 62.006 68.8433 61.81 68.274C61.3153 66.874 60.9793 65.8753 60.802 65.278C60.5313 66.1367 60.172 67.2007 59.724 68.47L59.486 69.17L59.066 70.388H62.552ZM67.0523 74C66.903 74 66.7817 73.958 66.6883 73.874C66.6043 73.7807 66.5623 73.6593 66.5623 73.51V64.55C66.5623 64.3913 66.6043 64.27 66.6883 64.186C66.7817 64.102 66.903 64.06 67.0523 64.06H67.5563C67.715 64.06 67.8363 64.102 67.9203 64.186C68.0043 64.27 68.0463 64.3913 68.0463 64.55V73.51C68.0463 73.6593 68.0043 73.7807 67.9203 73.874C67.8363 73.958 67.715 74 67.5563 74H67.0523ZM74.7569 72.236C74.8783 72.1333 74.9949 72.082 75.1069 72.082C75.2189 72.082 75.3356 72.1427 75.4569 72.264L75.6529 72.474C75.7556 72.5953 75.8069 72.712 75.8069 72.824C75.8069 72.9453 75.7463 73.062 75.6249 73.174C75.1956 73.5473 74.7663 73.8133 74.3369 73.972C73.9169 74.1307 73.4503 74.21 72.9369 74.21C72.2183 74.21 71.5929 74.0607 71.0609 73.762C70.5383 73.4633 70.1323 73.0433 69.8429 72.502C69.5629 71.9513 69.4229 71.3167 69.4229 70.598C69.4229 69.8887 69.5583 69.254 69.8289 68.694C70.1089 68.1247 70.5009 67.6813 71.0049 67.364C71.5183 67.0467 72.1156 66.888 72.7969 66.888C73.8143 66.888 74.5983 67.1913 75.1489 67.798C75.6996 68.3953 75.9749 69.2213 75.9749 70.276V70.402C75.9656 70.5513 75.9189 70.668 75.8349 70.752C75.7509 70.836 75.6296 70.878 75.4709 70.878H70.8789C70.9349 71.494 71.1356 71.998 71.4809 72.39C71.8356 72.7727 72.3303 72.964 72.9649 72.964C73.3103 72.964 73.6136 72.9127 73.8749 72.81C74.1363 72.698 74.4303 72.5067 74.7569 72.236ZM72.7689 68.064C72.2556 68.064 71.8403 68.218 71.5229 68.526C71.2149 68.8247 71.0143 69.2493 70.9209 69.8H74.5189C74.4816 69.2587 74.3136 68.834 74.0149 68.526C73.7163 68.218 73.3009 68.064 72.7689 68.064ZM80.4425 67.028C80.6478 67.028 80.8578 67.0513 81.0725 67.098C81.3245 67.154 81.4505 67.3033 81.4505 67.546C81.4505 67.6113 81.4458 67.658 81.4365 67.686L81.3665 68.022C81.3105 68.2833 81.1705 68.414 80.9465 68.414L80.8205 68.4C80.6525 68.372 80.5031 68.358 80.3725 68.358C79.9058 68.358 79.5278 68.5447 79.2385 68.918C78.9585 69.282 78.8185 69.7907 78.8185 70.444V73.51C78.8185 73.6593 78.7765 73.7807 78.6925 73.874C78.6085 73.958 78.4871 74 78.3285 74H77.8245C77.6751 74 77.5538 73.958 77.4605 73.874C77.3765 73.7807 77.3345 73.6593 77.3345 73.51V67.588C77.3345 67.4293 77.3765 67.308 77.4605 67.224C77.5538 67.14 77.6751 67.098 77.8245 67.098H78.2305C78.3891 67.098 78.5105 67.14 78.5945 67.224C78.6785 67.308 78.7205 67.4293 78.7205 67.588V68.134C78.8885 67.7887 79.1171 67.518 79.4065 67.322C79.6958 67.126 80.0411 67.028 80.4425 67.028ZM86.0258 72.824C86.0538 72.8147 86.0958 72.81 86.1518 72.81C86.3852 72.81 86.5252 72.9453 86.5718 73.216L86.6138 73.44C86.6232 73.468 86.6278 73.5147 86.6278 73.58C86.6278 73.8133 86.4972 73.9627 86.2358 74.028C85.8625 74.112 85.5218 74.154 85.2138 74.154C84.5512 74.154 84.0705 74 83.7718 73.692C83.4825 73.384 83.3378 72.922 83.3378 72.306V68.232H82.5678C82.4185 68.232 82.2972 68.19 82.2038 68.106C82.1198 68.0127 82.0778 67.8913 82.0778 67.742V67.588C82.0778 67.4293 82.1198 67.308 82.2038 67.224C82.2972 67.14 82.4185 67.098 82.5678 67.098H83.3378V65.362C83.3378 65.2033 83.3798 65.082 83.4638 64.998C83.5572 64.914 83.6785 64.872 83.8278 64.872H84.3318C84.4905 64.872 84.6118 64.914 84.6958 64.998C84.7798 65.082 84.8218 65.2033 84.8218 65.362V67.098H86.0818C86.2405 67.098 86.3618 67.14 86.4458 67.224C86.5298 67.308 86.5718 67.4293 86.5718 67.588V67.742C86.5718 67.8913 86.5298 68.0127 86.4458 68.106C86.3618 68.19 86.2405 68.232 86.0818 68.232H84.8218V72.124C84.8218 72.3947 84.8778 72.586 84.9898 72.698C85.1112 72.81 85.3025 72.866 85.5638 72.866C85.6758 72.866 85.8298 72.852 86.0258 72.824ZM91.3163 70.626C91.167 70.626 91.0456 70.584 90.9523 70.5C90.8683 70.4067 90.8263 70.2853 90.8263 70.136V69.786C90.8263 69.6273 90.8683 69.506 90.9523 69.422C91.0456 69.338 91.167 69.296 91.3163 69.296H94.5223C94.681 69.296 94.8023 69.338 94.8863 69.422C94.9703 69.506 95.0123 69.6273 95.0123 69.786V70.136C95.0123 70.2853 94.9703 70.4067 94.8863 70.5C94.8023 70.584 94.681 70.626 94.5223 70.626H91.3163ZM110.036 64.494C110.11 64.2047 110.288 64.06 110.568 64.06H111.156C111.296 64.06 111.403 64.0973 111.478 64.172C111.562 64.2373 111.604 64.3307 111.604 64.452C111.604 64.5173 111.599 64.5687 111.59 64.606L109.406 73.58C109.34 73.86 109.163 74 108.874 74H107.866C107.567 74 107.385 73.86 107.32 73.58L106.312 69.758L106.186 69.254C106.13 69.0113 106.018 68.5727 105.85 67.938C105.691 67.294 105.556 66.706 105.444 66.174C105.238 67.154 104.949 68.3487 104.576 69.758L103.582 73.58C103.516 73.86 103.334 74 103.036 74H102.014C101.724 74 101.547 73.86 101.482 73.58L99.2836 64.606C99.2743 64.5687 99.2696 64.5173 99.2696 64.452C99.2696 64.3307 99.307 64.2373 99.3816 64.172C99.4656 64.0973 99.5776 64.06 99.7176 64.06H100.348C100.628 64.06 100.805 64.2047 100.88 64.494L101.846 68.624C102.088 69.6133 102.34 70.8127 102.602 72.222C102.947 70.6633 103.236 69.464 103.47 68.624L104.59 64.48C104.664 64.2 104.846 64.06 105.136 64.06H105.836C106.134 64.06 106.316 64.2 106.382 64.48L107.474 68.624C107.698 69.4733 107.982 70.6727 108.328 72.222L108.496 71.368C108.692 70.3133 108.883 69.3987 109.07 68.624L110.036 64.494ZM115.452 66.888C116.385 66.888 117.104 67.1073 117.608 67.546C118.112 67.9753 118.364 68.5493 118.364 69.268V73.51C118.364 73.6593 118.322 73.7807 118.238 73.874C118.154 73.958 118.032 74 117.874 74H117.51C117.36 74 117.239 73.958 117.146 73.874C117.062 73.7807 117.02 73.6593 117.02 73.51V73.202C116.796 73.5287 116.488 73.7807 116.096 73.958C115.704 74.1353 115.246 74.224 114.724 74.224C114.005 74.224 113.412 74.0653 112.946 73.748C112.488 73.4213 112.26 72.9313 112.26 72.278C112.26 71.55 112.53 71.0133 113.072 70.668C113.622 70.3133 114.383 70.0473 115.354 69.87L116.936 69.576V69.324C116.936 68.9413 116.8 68.6473 116.53 68.442C116.268 68.2273 115.918 68.12 115.48 68.12C115.106 68.12 114.78 68.1853 114.5 68.316C114.229 68.4373 113.935 68.6427 113.618 68.932C113.496 69.0347 113.38 69.086 113.268 69.086C113.156 69.086 113.039 69.0347 112.918 68.932L112.694 68.736C112.572 68.624 112.512 68.5027 112.512 68.372C112.512 68.2507 112.568 68.134 112.68 68.022C113.081 67.6393 113.506 67.3547 113.954 67.168C114.402 66.9813 114.901 66.888 115.452 66.888ZM114.934 73.034C115.494 73.034 115.965 72.8847 116.348 72.586C116.74 72.2873 116.936 71.858 116.936 71.298V70.654L115.718 70.906C115.036 71.046 114.532 71.2047 114.206 71.382C113.879 71.5593 113.716 71.83 113.716 72.194C113.716 72.4553 113.823 72.6607 114.038 72.81C114.252 72.9593 114.551 73.034 114.934 73.034ZM123.167 67.028C123.372 67.028 123.582 67.0513 123.797 67.098C124.049 67.154 124.175 67.3033 124.175 67.546C124.175 67.6113 124.17 67.658 124.161 67.686L124.091 68.022C124.035 68.2833 123.895 68.414 123.671 68.414L123.545 68.4C123.377 68.372 123.228 68.358 123.097 68.358C122.63 68.358 122.252 68.5447 121.963 68.918C121.683 69.282 121.543 69.7907 121.543 70.444V73.51C121.543 73.6593 121.501 73.7807 121.417 73.874C121.333 73.958 121.212 74 121.053 74H120.549C120.4 74 120.278 73.958 120.185 73.874C120.101 73.7807 120.059 73.6593 120.059 73.51V67.588C120.059 67.4293 120.101 67.308 120.185 67.224C120.278 67.14 120.4 67.098 120.549 67.098H120.955C121.114 67.098 121.235 67.14 121.319 67.224C121.403 67.308 121.445 67.4293 121.445 67.588V68.134C121.613 67.7887 121.842 67.518 122.131 67.322C122.42 67.126 122.766 67.028 123.167 67.028ZM128.768 66.888C129.562 66.888 130.168 67.112 130.588 67.56C131.018 67.9987 131.232 68.568 131.232 69.268V73.51C131.232 73.6593 131.19 73.7807 131.106 73.874C131.022 73.958 130.901 74 130.742 74H130.238C130.089 74 129.968 73.958 129.874 73.874C129.79 73.7807 129.748 73.6593 129.748 73.51V69.73C129.748 69.226 129.622 68.8387 129.37 68.568C129.128 68.2973 128.778 68.162 128.32 68.162C127.872 68.162 127.494 68.316 127.186 68.624C126.888 68.932 126.738 69.3193 126.738 69.786V73.51C126.738 73.6593 126.696 73.7807 126.612 73.874C126.528 73.958 126.407 74 126.248 74H125.744C125.595 74 125.474 73.958 125.38 73.874C125.296 73.7807 125.254 73.6593 125.254 73.51V67.588C125.254 67.4293 125.296 67.308 125.38 67.224C125.474 67.14 125.595 67.098 125.744 67.098H126.15C126.309 67.098 126.43 67.14 126.514 67.224C126.598 67.308 126.64 67.4293 126.64 67.588V67.952C126.864 67.6067 127.158 67.3453 127.522 67.168C127.886 66.9813 128.302 66.888 128.768 66.888ZM133.694 65.754C133.423 65.754 133.195 65.6653 133.008 65.488C132.821 65.3013 132.728 65.082 132.728 64.83C132.728 64.5687 132.821 64.3493 133.008 64.172C133.195 63.9947 133.423 63.906 133.694 63.906C133.965 63.906 134.193 63.9947 134.38 64.172C134.567 64.3493 134.66 64.5687 134.66 64.83C134.66 65.082 134.567 65.3013 134.38 65.488C134.193 65.6653 133.965 65.754 133.694 65.754ZM133.428 74C133.279 74 133.157 73.958 133.064 73.874C132.98 73.7807 132.938 73.6593 132.938 73.51V67.588C132.938 67.4293 132.98 67.308 133.064 67.224C133.157 67.14 133.279 67.098 133.428 67.098H133.932C134.091 67.098 134.212 67.14 134.296 67.224C134.38 67.308 134.422 67.4293 134.422 67.588V73.51C134.422 73.6593 134.38 73.7807 134.296 73.874C134.212 73.958 134.091 74 133.932 74H133.428ZM139.651 66.888C140.445 66.888 141.051 67.112 141.471 67.56C141.901 67.9987 142.115 68.568 142.115 69.268V73.51C142.115 73.6593 142.073 73.7807 141.989 73.874C141.905 73.958 141.784 74 141.625 74H141.121C140.972 74 140.851 73.958 140.757 73.874C140.673 73.7807 140.631 73.6593 140.631 73.51V69.73C140.631 69.226 140.505 68.8387 140.253 68.568C140.011 68.2973 139.661 68.162 139.203 68.162C138.755 68.162 138.377 68.316 138.069 68.624C137.771 68.932 137.621 69.3193 137.621 69.786V73.51C137.621 73.6593 137.579 73.7807 137.495 73.874C137.411 73.958 137.29 74 137.131 74H136.627C136.478 74 136.357 73.958 136.263 73.874C136.179 73.7807 136.137 73.6593 136.137 73.51V67.588C136.137 67.4293 136.179 67.308 136.263 67.224C136.357 67.14 136.478 67.098 136.627 67.098H137.033C137.192 67.098 137.313 67.14 137.397 67.224C137.481 67.308 137.523 67.4293 137.523 67.588V67.952C137.747 67.6067 138.041 67.3453 138.405 67.168C138.769 66.9813 139.185 66.888 139.651 66.888ZM148.679 67.546C148.679 67.406 148.721 67.2987 148.805 67.224C148.898 67.14 149.019 67.098 149.169 67.098H149.561C149.719 67.098 149.841 67.14 149.925 67.224C150.009 67.308 150.051 67.4293 150.051 67.588V73.748C150.051 74.672 149.752 75.3907 149.155 75.904C148.567 76.4173 147.783 76.674 146.803 76.674C145.823 76.674 144.899 76.422 144.031 75.918C143.853 75.8247 143.765 75.6987 143.765 75.54C143.765 75.456 143.802 75.3533 143.877 75.232L144.059 74.966C144.161 74.8073 144.287 74.728 144.437 74.728C144.539 74.728 144.642 74.7607 144.745 74.826C145.118 75.0407 145.463 75.1947 145.781 75.288C146.098 75.3907 146.434 75.442 146.789 75.442C147.33 75.442 147.764 75.2927 148.091 74.994C148.427 74.7047 148.595 74.2473 148.595 73.622V72.88C148.128 73.5427 147.428 73.874 146.495 73.874C145.916 73.874 145.393 73.7293 144.927 73.44C144.469 73.1413 144.11 72.7307 143.849 72.208C143.597 71.676 143.471 71.0693 143.471 70.388C143.471 69.7067 143.597 69.1047 143.849 68.582C144.11 68.05 144.469 67.6347 144.927 67.336C145.393 67.0373 145.916 66.888 146.495 66.888C147.484 66.888 148.212 67.2567 148.679 67.994V67.546ZM146.789 72.628C147.33 72.628 147.773 72.4227 148.119 72.012C148.464 71.592 148.637 71.0507 148.637 70.388C148.637 69.7347 148.464 69.2027 148.119 68.792C147.783 68.372 147.339 68.162 146.789 68.162C146.229 68.162 145.785 68.3673 145.459 68.778C145.132 69.1887 144.969 69.7253 144.969 70.388C144.969 71.06 145.132 71.6013 145.459 72.012C145.785 72.4227 146.229 72.628 146.789 72.628Z" fill="#464646"/>
<path d="M60.76 100.196C59.5373 100.196 58.6273 99.9113 58.03 99.342C57.4327 98.7633 57.134 97.956 57.134 96.92V90.34C57.134 90.1533 57.2273 90.06 57.414 90.06H57.848C58.0347 90.06 58.128 90.1533 58.128 90.34V96.85C58.128 97.6713 58.352 98.292 58.8 98.712C59.2573 99.132 59.9107 99.342 60.76 99.342C61.628 99.342 62.286 99.132 62.734 98.712C63.182 98.292 63.406 97.6713 63.406 96.85V90.34C63.406 90.1533 63.4993 90.06 63.686 90.06H64.12C64.3067 90.06 64.4 90.1533 64.4 90.34V96.92C64.4 97.956 64.1013 98.7633 63.504 99.342C62.9067 99.9113 61.992 100.196 60.76 100.196ZM68.9596 100.182C68.3903 100.182 67.8863 100.103 67.4476 99.944C67.0183 99.776 66.5656 99.496 66.0896 99.104C66.0056 99.048 65.9636 98.9827 65.9636 98.908C65.9636 98.8427 65.9963 98.7773 66.0616 98.712L66.2436 98.516C66.2996 98.4413 66.3696 98.404 66.4536 98.404C66.519 98.404 66.5796 98.432 66.6356 98.488C67.0836 98.8333 67.4803 99.076 67.8256 99.216C68.171 99.3467 68.549 99.412 68.9596 99.412C69.473 99.412 69.893 99.3 70.2196 99.076C70.5463 98.8427 70.7096 98.53 70.7096 98.138C70.7096 97.746 70.5416 97.4567 70.2056 97.27C69.8696 97.0833 69.3516 96.9153 68.6516 96.766C68.0356 96.6353 67.5503 96.5 67.1956 96.36C66.8503 96.2107 66.5936 96.024 66.4256 95.8C66.2576 95.576 66.1736 95.282 66.1736 94.918C66.1736 94.3207 66.4163 93.84 66.9016 93.476C67.387 93.112 67.9983 92.93 68.7356 92.93C69.2396 92.93 69.6876 92.9953 70.0796 93.126C70.481 93.2473 70.8823 93.4527 71.2836 93.742C71.3676 93.8073 71.4096 93.8773 71.4096 93.952C71.4096 93.9987 71.3863 94.0593 71.3396 94.134L71.1716 94.344C71.125 94.4187 71.0596 94.456 70.9756 94.456C70.901 94.456 70.8356 94.4327 70.7796 94.386C70.397 94.1153 70.0563 93.9333 69.7576 93.84C69.4683 93.7467 69.137 93.7 68.7636 93.7C68.2503 93.7 67.8396 93.812 67.5316 94.036C67.2236 94.26 67.0696 94.5447 67.0696 94.89C67.0696 95.1047 67.1396 95.2773 67.2796 95.408C67.4196 95.5387 67.6203 95.6507 67.8816 95.744C68.143 95.828 68.5256 95.926 69.0296 96.038C69.963 96.2433 70.6256 96.4953 71.0176 96.794C71.419 97.0927 71.6196 97.5267 71.6196 98.096C71.6196 98.7213 71.3723 99.2253 70.8776 99.608C70.383 99.9907 69.7436 100.182 68.9596 100.182ZM78.2085 98.362C78.2738 98.2967 78.3438 98.264 78.4185 98.264C78.4838 98.264 78.5445 98.292 78.6005 98.348L78.7825 98.516C78.8478 98.5813 78.8805 98.6513 78.8805 98.726C78.8805 98.782 78.8525 98.8473 78.7965 98.922C78.3392 99.3793 77.8958 99.706 77.4665 99.902C77.0372 100.089 76.5565 100.182 76.0245 100.182C75.3525 100.182 74.7692 100.033 74.2745 99.734C73.7798 99.4353 73.3972 99.02 73.1265 98.488C72.8558 97.9467 72.7205 97.3213 72.7205 96.612C72.7205 95.8933 72.8512 95.2587 73.1125 94.708C73.3832 94.148 73.7612 93.714 74.2465 93.406C74.7318 93.0887 75.2918 92.93 75.9265 92.93C76.8692 92.93 77.6112 93.224 78.1525 93.812C78.6938 94.4 78.9645 95.1933 78.9645 96.192V96.36C78.9552 96.444 78.9225 96.5093 78.8665 96.556C78.8198 96.6027 78.7545 96.626 78.6705 96.626H73.6585C73.6865 97.41 73.8918 98.0727 74.2745 98.614C74.6665 99.146 75.2498 99.412 76.0245 99.412C76.4445 99.412 76.8132 99.3373 77.1305 99.188C77.4572 99.0293 77.8165 98.754 78.2085 98.362ZM75.9265 93.7C75.3105 93.7 74.8018 93.8913 74.4005 94.274C74.0085 94.6473 73.7705 95.198 73.6865 95.926H78.0405C78.0218 95.2447 77.8258 94.7033 77.4525 94.302C77.0792 93.9007 76.5705 93.7 75.9265 93.7ZM86.9545 99.23C86.9825 99.2207 87.0199 99.216 87.0665 99.216C87.1225 99.216 87.1739 99.2347 87.2205 99.272C87.2672 99.3093 87.2952 99.3607 87.3045 99.426L87.3465 99.622C87.3559 99.6407 87.3605 99.6733 87.3605 99.72C87.3605 99.8507 87.2905 99.93 87.1505 99.958C86.8145 100.061 86.4552 100.112 86.0725 100.112C85.4659 100.112 85.0319 99.9767 84.7705 99.706C84.5185 99.426 84.3925 99.0247 84.3925 98.502V93.798H83.3565C83.1699 93.798 83.0765 93.7047 83.0765 93.518V93.378C83.0765 93.1913 83.1699 93.098 83.3565 93.098H84.3925V90.97C84.3925 90.7833 84.4859 90.69 84.6725 90.69H85.0365C85.2232 90.69 85.3165 90.7833 85.3165 90.97V93.098H86.9965C87.1832 93.098 87.2765 93.1913 87.2765 93.378V93.518C87.2765 93.7047 87.1832 93.798 86.9965 93.798H85.3165V98.39C85.3165 98.7353 85.3819 98.978 85.5125 99.118C85.6432 99.258 85.8672 99.328 86.1845 99.328C86.4085 99.328 86.6652 99.2953 86.9545 99.23ZM91.7664 92.93C92.5691 92.93 93.1804 93.1587 93.6004 93.616C94.0204 94.064 94.2304 94.6193 94.2304 95.282V99.72C94.2304 99.9067 94.1371 100 93.9504 100H93.5864C93.3997 100 93.3064 99.9067 93.3064 99.72V95.59C93.3064 94.974 93.1571 94.5073 92.8584 94.19C92.5597 93.8727 92.1304 93.714 91.5704 93.714C91.2157 93.714 90.8891 93.8027 90.5904 93.98C90.2917 94.148 90.0537 94.3813 89.8764 94.68C89.6991 94.9787 89.6104 95.3053 89.6104 95.66V99.72C89.6104 99.9067 89.5171 100 89.3304 100H88.9664C88.7797 100 88.6864 99.9067 88.6864 99.72V90.34C88.6864 90.1533 88.7797 90.06 88.9664 90.06H89.3304C89.5171 90.06 89.6104 90.1533 89.6104 90.34V93.994C89.8344 93.6393 90.1331 93.3733 90.5064 93.196C90.8891 93.0187 91.3091 92.93 91.7664 92.93ZM96.7363 91.348C96.5496 91.348 96.3909 91.2827 96.2603 91.152C96.1389 91.0213 96.0783 90.8627 96.0783 90.676C96.0783 90.4893 96.1389 90.3353 96.2603 90.214C96.3909 90.0927 96.5496 90.032 96.7363 90.032C96.9323 90.032 97.0909 90.0927 97.2123 90.214C97.3429 90.3353 97.4083 90.4893 97.4083 90.676C97.4083 90.8627 97.3429 91.0213 97.2123 91.152C97.0909 91.2827 96.9323 91.348 96.7363 91.348ZM96.5543 100C96.3676 100 96.2743 99.9067 96.2743 99.72V93.378C96.2743 93.1913 96.3676 93.098 96.5543 93.098H96.9183C97.1049 93.098 97.1983 93.1913 97.1983 93.378V99.72C97.1983 99.9067 97.1049 100 96.9183 100H96.5543ZM101.663 100.182C101.093 100.182 100.589 100.103 100.151 99.944C99.7214 99.776 99.2688 99.496 98.7928 99.104C98.7088 99.048 98.6668 98.9827 98.6668 98.908C98.6668 98.8427 98.6994 98.7773 98.7648 98.712L98.9468 98.516C99.0028 98.4413 99.0728 98.404 99.1568 98.404C99.2221 98.404 99.2828 98.432 99.3388 98.488C99.7868 98.8333 100.183 99.076 100.529 99.216C100.874 99.3467 101.252 99.412 101.663 99.412C102.176 99.412 102.596 99.3 102.923 99.076C103.249 98.8427 103.413 98.53 103.413 98.138C103.413 97.746 103.245 97.4567 102.909 97.27C102.573 97.0833 102.055 96.9153 101.355 96.766C100.739 96.6353 100.253 96.5 99.8988 96.36C99.5534 96.2107 99.2968 96.024 99.1288 95.8C98.9608 95.576 98.8768 95.282 98.8768 94.918C98.8768 94.3207 99.1194 93.84 99.6048 93.476C100.09 93.112 100.701 92.93 101.439 92.93C101.943 92.93 102.391 92.9953 102.783 93.126C103.184 93.2473 103.585 93.4527 103.987 93.742C104.071 93.8073 104.113 93.8773 104.113 93.952C104.113 93.9987 104.089 94.0593 104.043 94.134L103.875 94.344C103.828 94.4187 103.763 94.456 103.679 94.456C103.604 94.456 103.539 94.4327 103.483 94.386C103.1 94.1153 102.759 93.9333 102.461 93.84C102.171 93.7467 101.84 93.7 101.467 93.7C100.953 93.7 100.543 93.812 100.235 94.036C99.9268 94.26 99.7728 94.5447 99.7728 94.89C99.7728 95.1047 99.8428 95.2773 99.9828 95.408C100.123 95.5387 100.323 95.6507 100.585 95.744C100.846 95.828 101.229 95.926 101.733 96.038C102.666 96.2433 103.329 96.4953 103.721 96.794C104.122 97.0927 104.323 97.5267 104.323 98.096C104.323 98.7213 104.075 99.2253 103.581 99.608C103.086 99.9907 102.447 100.182 101.663 100.182ZM113.368 93.322C113.424 93.1727 113.532 93.098 113.69 93.098H114.054C114.129 93.098 114.19 93.1167 114.236 93.154C114.283 93.1913 114.306 93.2427 114.306 93.308L114.278 93.42L112.052 99.776C111.996 99.9253 111.889 100 111.73 100H110.988C110.83 100 110.722 99.9253 110.666 99.776L108.454 93.42L108.426 93.308C108.426 93.2427 108.45 93.1913 108.496 93.154C108.543 93.1167 108.604 93.098 108.678 93.098H109.056C109.215 93.098 109.322 93.1727 109.378 93.322L110.232 95.786C110.587 96.8127 110.965 97.9933 111.366 99.328C111.385 99.272 111.436 99.1133 111.52 98.852C111.903 97.592 112.234 96.57 112.514 95.786L113.368 93.322ZM118.266 92.93C119.116 92.93 119.778 93.1353 120.254 93.546C120.73 93.9473 120.968 94.4793 120.968 95.142V99.72C120.968 99.9067 120.875 100 120.688 100H120.408C120.222 100 120.128 99.9067 120.128 99.72V99.09C119.895 99.4633 119.564 99.7433 119.134 99.93C118.714 100.117 118.243 100.21 117.72 100.21C116.992 100.21 116.4 100.056 115.942 99.748C115.485 99.44 115.256 98.964 115.256 98.32C115.256 97.8067 115.401 97.396 115.69 97.088C115.98 96.7707 116.358 96.5327 116.824 96.374C117.291 96.206 117.874 96.0567 118.574 95.926L120.086 95.66V95.212C120.086 94.736 119.923 94.3673 119.596 94.106C119.27 93.8353 118.84 93.7 118.308 93.7C117.907 93.7 117.543 93.7747 117.216 93.924C116.89 94.0733 116.54 94.33 116.166 94.694C116.101 94.7593 116.031 94.792 115.956 94.792C115.891 94.792 115.83 94.764 115.774 94.708L115.592 94.54C115.527 94.4747 115.494 94.4047 115.494 94.33C115.494 94.246 115.527 94.1713 115.592 94.106C115.984 93.6953 116.395 93.3967 116.824 93.21C117.263 93.0233 117.744 92.93 118.266 92.93ZM117.762 99.44C118.434 99.44 118.99 99.2627 119.428 98.908C119.867 98.5533 120.086 98.1007 120.086 97.55V96.374L118.784 96.626C118.178 96.7473 117.697 96.864 117.342 96.976C116.988 97.088 116.703 97.2513 116.488 97.466C116.274 97.6807 116.166 97.9607 116.166 98.306C116.166 98.6607 116.306 98.9407 116.586 99.146C116.876 99.342 117.268 99.44 117.762 99.44ZM125.592 93.042C125.826 93.042 126.101 93.0793 126.418 93.154C126.586 93.21 126.652 93.3267 126.614 93.504L126.558 93.728C126.512 93.9053 126.395 93.9707 126.208 93.924C125.984 93.868 125.779 93.84 125.592 93.84C125.116 93.84 124.72 94.0453 124.402 94.456C124.094 94.8667 123.94 95.436 123.94 96.164V99.72C123.94 99.9067 123.847 100 123.66 100H123.296C123.11 100 123.016 99.9067 123.016 99.72V93.378C123.016 93.1913 123.11 93.098 123.296 93.098H123.604C123.791 93.098 123.884 93.1913 123.884 93.378V94.148C124.043 93.8027 124.267 93.532 124.556 93.336C124.855 93.14 125.2 93.042 125.592 93.042ZM128.332 91.348C128.145 91.348 127.987 91.2827 127.856 91.152C127.735 91.0213 127.674 90.8627 127.674 90.676C127.674 90.4893 127.735 90.3353 127.856 90.214C127.987 90.0927 128.145 90.032 128.332 90.032C128.528 90.032 128.687 90.0927 128.808 90.214C128.939 90.3353 129.004 90.4893 129.004 90.676C129.004 90.8627 128.939 91.0213 128.808 91.152C128.687 91.2827 128.528 91.348 128.332 91.348ZM128.15 100C127.963 100 127.87 99.9067 127.87 99.72V93.378C127.87 93.1913 127.963 93.098 128.15 93.098H128.514C128.701 93.098 128.794 93.1913 128.794 93.378V99.72C128.794 99.9067 128.701 100 128.514 100H128.15ZM133.51 92.93C134.36 92.93 135.022 93.1353 135.498 93.546C135.974 93.9473 136.212 94.4793 136.212 95.142V99.72C136.212 99.9067 136.119 100 135.932 100H135.652C135.466 100 135.372 99.9067 135.372 99.72V99.09C135.139 99.4633 134.808 99.7433 134.378 99.93C133.958 100.117 133.487 100.21 132.964 100.21C132.236 100.21 131.644 100.056 131.186 99.748C130.729 99.44 130.5 98.964 130.5 98.32C130.5 97.8067 130.645 97.396 130.934 97.088C131.224 96.7707 131.602 96.5327 132.068 96.374C132.535 96.206 133.118 96.0567 133.818 95.926L135.33 95.66V95.212C135.33 94.736 135.167 94.3673 134.84 94.106C134.514 93.8353 134.084 93.7 133.552 93.7C133.151 93.7 132.787 93.7747 132.46 93.924C132.134 94.0733 131.784 94.33 131.41 94.694C131.345 94.7593 131.275 94.792 131.2 94.792C131.135 94.792 131.074 94.764 131.018 94.708L130.836 94.54C130.771 94.4747 130.738 94.4047 130.738 94.33C130.738 94.246 130.771 94.1713 130.836 94.106C131.228 93.6953 131.639 93.3967 132.068 93.21C132.507 93.0233 132.988 92.93 133.51 92.93ZM133.006 99.44C133.678 99.44 134.234 99.2627 134.672 98.908C135.111 98.5533 135.33 98.1007 135.33 97.55V96.374L134.028 96.626C133.422 96.7473 132.941 96.864 132.586 96.976C132.232 97.088 131.947 97.2513 131.732 97.466C131.518 97.6807 131.41 97.9607 131.41 98.306C131.41 98.6607 131.55 98.9407 131.83 99.146C132.12 99.342 132.512 99.44 133.006 99.44ZM141.341 92.93C142.153 92.93 142.764 93.154 143.175 93.602C143.595 94.05 143.805 94.61 143.805 95.282V99.72C143.805 99.9067 143.711 100 143.525 100H143.161C142.974 100 142.881 99.9067 142.881 99.72V95.59C142.881 94.974 142.731 94.5073 142.433 94.19C142.134 93.8727 141.705 93.714 141.145 93.714C140.79 93.714 140.463 93.8027 140.165 93.98C139.866 94.148 139.628 94.3813 139.451 94.68C139.273 94.9787 139.185 95.3053 139.185 95.66V99.72C139.185 99.9067 139.091 100 138.905 100H138.541C138.354 100 138.261 99.9067 138.261 99.72V93.378C138.261 93.1913 138.354 93.098 138.541 93.098H138.849C139.035 93.098 139.129 93.1913 139.129 93.378V94.05C139.362 93.6767 139.67 93.3967 140.053 93.21C140.435 93.0233 140.865 92.93 141.341 92.93ZM148.765 99.23C148.793 99.2207 148.83 99.216 148.877 99.216C148.933 99.216 148.984 99.2347 149.031 99.272C149.078 99.3093 149.106 99.3607 149.115 99.426L149.157 99.622C149.166 99.6407 149.171 99.6733 149.171 99.72C149.171 99.8507 149.101 99.93 148.961 99.958C148.625 100.061 148.266 100.112 147.883 100.112C147.276 100.112 146.842 99.9767 146.581 99.706C146.329 99.426 146.203 99.0247 146.203 98.502V93.798H145.167C144.98 93.798 144.887 93.7047 144.887 93.518V93.378C144.887 93.1913 144.98 93.098 145.167 93.098H146.203V90.97C146.203 90.7833 146.296 90.69 146.483 90.69H146.847C147.034 90.69 147.127 90.7833 147.127 90.97V93.098H148.807C148.994 93.098 149.087 93.1913 149.087 93.378V93.518C149.087 93.7047 148.994 93.798 148.807 93.798H147.127V98.39C147.127 98.7353 147.192 98.978 147.323 99.118C147.454 99.258 147.678 99.328 147.995 99.328C148.219 99.328 148.476 99.2953 148.765 99.23ZM156.832 99.23C156.86 99.2207 156.897 99.216 156.944 99.216C157 99.216 157.051 99.2347 157.098 99.272C157.144 99.3093 157.172 99.3607 157.182 99.426L157.224 99.622C157.233 99.6407 157.238 99.6733 157.238 99.72C157.238 99.8507 157.168 99.93 157.028 99.958C156.692 100.061 156.332 100.112 155.95 100.112C155.343 100.112 154.909 99.9767 154.648 99.706C154.396 99.426 154.27 99.0247 154.27 98.502V93.798H153.234C153.047 93.798 152.954 93.7047 152.954 93.518V93.378C152.954 93.1913 153.047 93.098 153.234 93.098H154.27V90.97C154.27 90.7833 154.363 90.69 154.55 90.69H154.914C155.1 90.69 155.194 90.7833 155.194 90.97V93.098H156.874C157.06 93.098 157.154 93.1913 157.154 93.378V93.518C157.154 93.7047 157.06 93.798 156.874 93.798H155.194V98.39C155.194 98.7353 155.259 98.978 155.39 99.118C155.52 99.258 155.744 99.328 156.062 99.328C156.286 99.328 156.542 99.2953 156.832 99.23ZM161.16 100.182C160.516 100.182 159.942 100.028 159.438 99.72C158.934 99.412 158.542 98.9873 158.262 98.446C157.982 97.8953 157.842 97.2653 157.842 96.556C157.842 95.8467 157.982 95.2213 158.262 94.68C158.542 94.1293 158.934 93.7 159.438 93.392C159.942 93.084 160.516 92.93 161.16 92.93C161.804 92.93 162.378 93.084 162.882 93.392C163.386 93.7 163.778 94.1293 164.058 94.68C164.338 95.2213 164.478 95.8467 164.478 96.556C164.478 97.2653 164.338 97.8953 164.058 98.446C163.778 98.9873 163.386 99.412 162.882 99.72C162.378 100.028 161.804 100.182 161.16 100.182ZM161.16 99.412C161.878 99.412 162.452 99.1507 162.882 98.628C163.311 98.096 163.526 97.4053 163.526 96.556C163.526 95.7067 163.311 95.0207 162.882 94.498C162.452 93.966 161.878 93.7 161.16 93.7C160.441 93.7 159.867 93.966 159.438 94.498C159.008 95.0207 158.794 95.7067 158.794 96.556C158.794 97.4053 159.008 98.096 159.438 98.628C159.867 99.1507 160.441 99.412 161.16 99.412ZM177.009 93.336C177.047 93.1773 177.154 93.098 177.331 93.098H177.709C177.812 93.098 177.882 93.126 177.919 93.182C177.966 93.238 177.975 93.3127 177.947 93.406L176.141 99.762C176.104 99.9207 175.997 100 175.819 100H175.189C175.031 100 174.928 99.9207 174.881 99.762L174.237 97.62C173.901 96.5 173.589 95.352 173.299 94.176C173.019 95.3147 172.711 96.472 172.375 97.648L171.759 99.762C171.722 99.9207 171.615 100 171.437 100H170.835C170.658 100 170.551 99.9207 170.513 99.762L168.707 93.406C168.698 93.3873 168.693 93.3547 168.693 93.308C168.693 93.2427 168.717 93.1913 168.763 93.154C168.81 93.1167 168.871 93.098 168.945 93.098H169.323C169.501 93.098 169.608 93.1773 169.645 93.336L170.317 95.814C170.625 96.9433 170.91 98.068 171.171 99.188C171.377 98.3573 171.68 97.2327 172.081 95.814L172.795 93.336C172.833 93.1773 172.94 93.098 173.117 93.098H173.537C173.705 93.098 173.808 93.1773 173.845 93.336L174.573 95.814C174.891 96.962 175.189 98.0913 175.469 99.202C175.684 98.2687 175.973 97.1393 176.337 95.814L177.009 93.336ZM182.018 92.93C182.868 92.93 183.53 93.1353 184.006 93.546C184.482 93.9473 184.72 94.4793 184.72 95.142V99.72C184.72 99.9067 184.627 100 184.44 100H184.16C183.974 100 183.88 99.9067 183.88 99.72V99.09C183.647 99.4633 183.316 99.7433 182.886 99.93C182.466 100.117 181.995 100.21 181.472 100.21C180.744 100.21 180.152 100.056 179.694 99.748C179.237 99.44 179.008 98.964 179.008 98.32C179.008 97.8067 179.153 97.396 179.442 97.088C179.732 96.7707 180.11 96.5327 180.576 96.374C181.043 96.206 181.626 96.0567 182.326 95.926L183.838 95.66V95.212C183.838 94.736 183.675 94.3673 183.348 94.106C183.022 93.8353 182.592 93.7 182.06 93.7C181.659 93.7 181.295 93.7747 180.968 93.924C180.642 94.0733 180.292 94.33 179.918 94.694C179.853 94.7593 179.783 94.792 179.708 94.792C179.643 94.792 179.582 94.764 179.526 94.708L179.344 94.54C179.279 94.4747 179.246 94.4047 179.246 94.33C179.246 94.246 179.279 94.1713 179.344 94.106C179.736 93.6953 180.147 93.3967 180.576 93.21C181.015 93.0233 181.496 92.93 182.018 92.93ZM181.514 99.44C182.186 99.44 182.742 99.2627 183.18 98.908C183.619 98.5533 183.838 98.1007 183.838 97.55V96.374L182.536 96.626C181.93 96.7473 181.449 96.864 181.094 96.976C180.74 97.088 180.455 97.2513 180.24 97.466C180.026 97.6807 179.918 97.9607 179.918 98.306C179.918 98.6607 180.058 98.9407 180.338 99.146C180.628 99.342 181.02 99.44 181.514 99.44ZM189.344 93.042C189.578 93.042 189.853 93.0793 190.17 93.154C190.338 93.21 190.404 93.3267 190.366 93.504L190.31 93.728C190.264 93.9053 190.147 93.9707 189.96 93.924C189.736 93.868 189.531 93.84 189.344 93.84C188.868 93.84 188.472 94.0453 188.154 94.456C187.846 94.8667 187.692 95.436 187.692 96.164V99.72C187.692 99.9067 187.599 100 187.412 100H187.048C186.862 100 186.768 99.9067 186.768 99.72V93.378C186.768 93.1913 186.862 93.098 187.048 93.098H187.356C187.543 93.098 187.636 93.1913 187.636 93.378V94.148C187.795 93.8027 188.019 93.532 188.308 93.336C188.607 93.14 188.952 93.042 189.344 93.042ZM194.702 92.93C195.514 92.93 196.125 93.154 196.536 93.602C196.956 94.05 197.166 94.61 197.166 95.282V99.72C197.166 99.9067 197.073 100 196.886 100H196.522C196.335 100 196.242 99.9067 196.242 99.72V95.59C196.242 94.974 196.093 94.5073 195.794 94.19C195.495 93.8727 195.066 93.714 194.506 93.714C194.151 93.714 193.825 93.8027 193.526 93.98C193.227 94.148 192.989 94.3813 192.812 94.68C192.635 94.9787 192.546 95.3053 192.546 95.66V99.72C192.546 99.9067 192.453 100 192.266 100H191.902C191.715 100 191.622 99.9067 191.622 99.72V93.378C191.622 93.1913 191.715 93.098 191.902 93.098H192.21C192.397 93.098 192.49 93.1913 192.49 93.378V94.05C192.723 93.6767 193.031 93.3967 193.414 93.21C193.797 93.0233 194.226 92.93 194.702 92.93ZM205.096 92.93C205.946 92.93 206.608 93.1353 207.084 93.546C207.56 93.9473 207.798 94.4793 207.798 95.142V99.72C207.798 99.9067 207.705 100 207.518 100H207.238C207.052 100 206.958 99.9067 206.958 99.72V99.09C206.725 99.4633 206.394 99.7433 205.964 99.93C205.544 100.117 205.073 100.21 204.55 100.21C203.822 100.21 203.23 100.056 202.772 99.748C202.315 99.44 202.086 98.964 202.086 98.32C202.086 97.8067 202.231 97.396 202.52 97.088C202.81 96.7707 203.188 96.5327 203.654 96.374C204.121 96.206 204.704 96.0567 205.404 95.926L206.916 95.66V95.212C206.916 94.736 206.753 94.3673 206.426 94.106C206.1 93.8353 205.67 93.7 205.138 93.7C204.737 93.7 204.373 93.7747 204.046 93.924C203.72 94.0733 203.37 94.33 202.996 94.694C202.931 94.7593 202.861 94.792 202.786 94.792C202.721 94.792 202.66 94.764 202.604 94.708L202.422 94.54C202.357 94.4747 202.324 94.4047 202.324 94.33C202.324 94.246 202.357 94.1713 202.422 94.106C202.814 93.6953 203.225 93.3967 203.654 93.21C204.093 93.0233 204.574 92.93 205.096 92.93ZM204.592 99.44C205.264 99.44 205.82 99.2627 206.258 98.908C206.697 98.5533 206.916 98.1007 206.916 97.55V96.374L205.614 96.626C205.008 96.7473 204.527 96.864 204.172 96.976C203.818 97.088 203.533 97.2513 203.318 97.466C203.104 97.6807 202.996 97.9607 202.996 98.306C202.996 98.6607 203.136 98.9407 203.416 99.146C203.706 99.342 204.098 99.44 204.592 99.44ZM213.151 92.944C213.739 92.944 214.261 93.098 214.719 93.406C215.185 93.7047 215.545 94.1293 215.797 94.68C216.058 95.2213 216.189 95.8467 216.189 96.556C216.189 97.2653 216.058 97.8953 215.797 98.446C215.535 98.9873 215.171 99.412 214.705 99.72C214.247 100.019 213.729 100.168 213.151 100.168C212.04 100.168 211.228 99.7387 210.715 98.88V99.72C210.715 99.9067 210.621 100 210.435 100H210.127C209.94 100 209.847 99.9067 209.847 99.72V90.326C209.847 90.1393 209.94 90.046 210.127 90.046H210.491C210.677 90.046 210.771 90.1393 210.771 90.326V94.19C211.284 93.3593 212.077 92.944 213.151 92.944ZM213.081 99.384C213.725 99.384 214.243 99.1227 214.635 98.6C215.036 98.0773 215.237 97.396 215.237 96.556C215.237 95.716 215.036 95.0347 214.635 94.512C214.243 93.9893 213.725 93.728 213.081 93.728C212.39 93.728 211.825 93.98 211.387 94.484C210.948 94.988 210.729 95.6787 210.729 96.556C210.729 97.4427 210.943 98.138 211.373 98.642C211.811 99.1367 212.381 99.384 213.081 99.384ZM220.769 100.182C220.125 100.182 219.551 100.028 219.047 99.72C218.543 99.412 218.151 98.9873 217.871 98.446C217.591 97.8953 217.451 97.2653 217.451 96.556C217.451 95.8467 217.591 95.2213 217.871 94.68C218.151 94.1293 218.543 93.7 219.047 93.392C219.551 93.084 220.125 92.93 220.769 92.93C221.413 92.93 221.987 93.084 222.491 93.392C222.995 93.7 223.387 94.1293 223.667 94.68C223.947 95.2213 224.087 95.8467 224.087 96.556C224.087 97.2653 223.947 97.8953 223.667 98.446C223.387 98.9873 222.995 99.412 222.491 99.72C221.987 100.028 221.413 100.182 220.769 100.182ZM220.769 99.412C221.488 99.412 222.062 99.1507 222.491 98.628C222.92 98.096 223.135 97.4053 223.135 96.556C223.135 95.7067 222.92 95.0207 222.491 94.498C222.062 93.966 221.488 93.7 220.769 93.7C220.05 93.7 219.476 93.966 219.047 94.498C218.618 95.0207 218.403 95.7067 218.403 96.556C218.403 97.4053 218.618 98.096 219.047 98.628C219.476 99.1507 220.05 99.412 220.769 99.412ZM230.172 93.378C230.172 93.1913 230.266 93.098 230.452 93.098H230.816C231.003 93.098 231.096 93.1913 231.096 93.378V99.72C231.096 99.9067 231.003 100 230.816 100H230.522C230.336 100 230.242 99.9067 230.242 99.72V99.09C230.037 99.454 229.743 99.7293 229.36 99.916C228.987 100.093 228.576 100.182 228.128 100.182C227.288 100.182 226.668 99.972 226.266 99.552C225.865 99.1227 225.664 98.572 225.664 97.9V93.378C225.664 93.1913 225.758 93.098 225.944 93.098H226.308C226.495 93.098 226.588 93.1913 226.588 93.378V97.704C226.588 98.2547 226.724 98.6747 226.994 98.964C227.274 99.244 227.671 99.384 228.184 99.384C228.763 99.384 229.239 99.2067 229.612 98.852C229.986 98.4973 230.172 97.9933 230.172 97.34V93.378ZM236.279 99.23C236.307 99.2207 236.344 99.216 236.391 99.216C236.447 99.216 236.498 99.2347 236.545 99.272C236.591 99.3093 236.619 99.3607 236.629 99.426L236.671 99.622C236.68 99.6407 236.685 99.6733 236.685 99.72C236.685 99.8507 236.615 99.93 236.475 99.958C236.139 100.061 235.779 100.112 235.397 100.112C234.79 100.112 234.356 99.9767 234.095 99.706C233.843 99.426 233.717 99.0247 233.717 98.502V93.798H232.681C232.494 93.798 232.401 93.7047 232.401 93.518V93.378C232.401 93.1913 232.494 93.098 232.681 93.098H233.717V90.97C233.717 90.7833 233.81 90.69 233.997 90.69H234.361C234.547 90.69 234.641 90.7833 234.641 90.97V93.098H236.321C236.507 93.098 236.601 93.1913 236.601 93.378V93.518C236.601 93.7047 236.507 93.798 236.321 93.798H234.641V98.39C234.641 98.7353 234.706 98.978 234.837 99.118C234.967 99.258 235.191 99.328 235.509 99.328C235.733 99.328 235.989 99.2953 236.279 99.23ZM243.897 92.93C244.747 92.93 245.409 93.1353 245.885 93.546C246.361 93.9473 246.599 94.4793 246.599 95.142V99.72C246.599 99.9067 246.506 100 246.319 100H246.039C245.853 100 245.759 99.9067 245.759 99.72V99.09C245.526 99.4633 245.195 99.7433 244.765 99.93C244.345 100.117 243.874 100.21 243.351 100.21C242.623 100.21 242.031 100.056 241.573 99.748C241.116 99.44 240.887 98.964 240.887 98.32C240.887 97.8067 241.032 97.396 241.321 97.088C241.611 96.7707 241.989 96.5327 242.455 96.374C242.922 96.206 243.505 96.0567 244.205 95.926L245.717 95.66V95.212C245.717 94.736 245.554 94.3673 245.227 94.106C244.901 93.8353 244.471 93.7 243.939 93.7C243.538 93.7 243.174 93.7747 242.847 93.924C242.521 94.0733 242.171 94.33 241.797 94.694C241.732 94.7593 241.662 94.792 241.587 94.792C241.522 94.792 241.461 94.764 241.405 94.708L241.223 94.54C241.158 94.4747 241.125 94.4047 241.125 94.33C241.125 94.246 241.158 94.1713 241.223 94.106C241.615 93.6953 242.026 93.3967 242.455 93.21C242.894 93.0233 243.375 92.93 243.897 92.93ZM243.393 99.44C244.065 99.44 244.621 99.2627 245.059 98.908C245.498 98.5533 245.717 98.1007 245.717 97.55V96.374L244.415 96.626C243.809 96.7473 243.328 96.864 242.973 96.976C242.619 97.088 242.334 97.2513 242.119 97.466C241.905 97.6807 241.797 97.9607 241.797 98.306C241.797 98.6607 241.937 98.9407 242.217 99.146C242.507 99.342 242.899 99.44 243.393 99.44ZM254.282 100.182C253.713 100.182 253.209 100.103 252.77 99.944C252.341 99.776 251.888 99.496 251.412 99.104C251.328 99.048 251.286 98.9827 251.286 98.908C251.286 98.8427 251.319 98.7773 251.384 98.712L251.566 98.516C251.622 98.4413 251.692 98.404 251.776 98.404C251.841 98.404 251.902 98.432 251.958 98.488C252.406 98.8333 252.803 99.076 253.148 99.216C253.493 99.3467 253.871 99.412 254.282 99.412C254.795 99.412 255.215 99.3 255.542 99.076C255.869 98.8427 256.032 98.53 256.032 98.138C256.032 97.746 255.864 97.4567 255.528 97.27C255.192 97.0833 254.674 96.9153 253.974 96.766C253.358 96.6353 252.873 96.5 252.518 96.36C252.173 96.2107 251.916 96.024 251.748 95.8C251.58 95.576 251.496 95.282 251.496 94.918C251.496 94.3207 251.739 93.84 252.224 93.476C252.709 93.112 253.321 92.93 254.058 92.93C254.562 92.93 255.01 92.9953 255.402 93.126C255.803 93.2473 256.205 93.4527 256.606 93.742C256.69 93.8073 256.732 93.8773 256.732 93.952C256.732 93.9987 256.709 94.0593 256.662 94.134L256.494 94.344C256.447 94.4187 256.382 94.456 256.298 94.456C256.223 94.456 256.158 94.4327 256.102 94.386C255.719 94.1153 255.379 93.9333 255.08 93.84C254.791 93.7467 254.459 93.7 254.086 93.7C253.573 93.7 253.162 93.812 252.854 94.036C252.546 94.26 252.392 94.5447 252.392 94.89C252.392 95.1047 252.462 95.2773 252.602 95.408C252.742 95.5387 252.943 95.6507 253.204 95.744C253.465 95.828 253.848 95.926 254.352 96.038C255.285 96.2433 255.948 96.4953 256.34 96.794C256.741 97.0927 256.942 97.5267 256.942 98.096C256.942 98.7213 256.695 99.2253 256.2 99.608C255.705 99.9907 255.066 100.182 254.282 100.182ZM258.967 91.348C258.78 91.348 258.621 91.2827 258.491 91.152C258.369 91.0213 258.309 90.8627 258.309 90.676C258.309 90.4893 258.369 90.3353 258.491 90.214C258.621 90.0927 258.78 90.032 258.967 90.032C259.163 90.032 259.321 90.0927 259.443 90.214C259.573 90.3353 259.639 90.4893 259.639 90.676C259.639 90.8627 259.573 91.0213 259.443 91.152C259.321 91.2827 259.163 91.348 258.967 91.348ZM258.785 100C258.598 100 258.505 99.9067 258.505 99.72V93.378C258.505 93.1913 258.598 93.098 258.785 93.098H259.149C259.335 93.098 259.429 93.1913 259.429 93.378V99.72C259.429 99.9067 259.335 100 259.149 100H258.785ZM264.593 99.23C264.621 99.2207 264.659 99.216 264.705 99.216C264.761 99.216 264.813 99.2347 264.859 99.272C264.906 99.3093 264.934 99.3607 264.943 99.426L264.985 99.622C264.995 99.6407 264.999 99.6733 264.999 99.72C264.999 99.8507 264.929 99.93 264.789 99.958C264.453 100.061 264.094 100.112 263.711 100.112C263.105 100.112 262.671 99.9767 262.409 99.706C262.157 99.426 262.031 99.0247 262.031 98.502V93.798H260.995C260.809 93.798 260.715 93.7047 260.715 93.518V93.378C260.715 93.1913 260.809 93.098 260.995 93.098H262.031V90.97C262.031 90.7833 262.125 90.69 262.311 90.69H262.675C262.862 90.69 262.955 90.7833 262.955 90.97V93.098H264.635C264.822 93.098 264.915 93.1913 264.915 93.378V93.518C264.915 93.7047 264.822 93.798 264.635 93.798H262.955V98.39C262.955 98.7353 263.021 98.978 263.151 99.118C263.282 99.258 263.506 99.328 263.823 99.328C264.047 99.328 264.304 99.2953 264.593 99.23ZM270.75 93.378C270.75 93.1913 270.844 93.098 271.03 93.098H271.394C271.581 93.098 271.674 93.1913 271.674 93.378V99.72C271.674 99.9067 271.581 100 271.394 100H271.1C270.914 100 270.82 99.9067 270.82 99.72V99.09C270.615 99.454 270.321 99.7293 269.938 99.916C269.565 100.093 269.154 100.182 268.706 100.182C267.866 100.182 267.246 99.972 266.844 99.552C266.443 99.1227 266.242 98.572 266.242 97.9V93.378C266.242 93.1913 266.336 93.098 266.522 93.098H266.886C267.073 93.098 267.166 93.1913 267.166 93.378V97.704C267.166 98.2547 267.302 98.6747 267.572 98.964C267.852 99.244 268.249 99.384 268.762 99.384C269.341 99.384 269.817 99.2067 270.19 98.852C270.564 98.4973 270.75 97.9933 270.75 97.34V93.378ZM276.409 92.93C277.258 92.93 277.921 93.1353 278.397 93.546C278.873 93.9473 279.111 94.4793 279.111 95.142V99.72C279.111 99.9067 279.018 100 278.831 100H278.551C278.364 100 278.271 99.9067 278.271 99.72V99.09C278.038 99.4633 277.706 99.7433 277.277 99.93C276.857 100.117 276.386 100.21 275.863 100.21C275.135 100.21 274.542 100.056 274.085 99.748C273.628 99.44 273.399 98.964 273.399 98.32C273.399 97.8067 273.544 97.396 273.833 97.088C274.122 96.7707 274.5 96.5327 274.967 96.374C275.434 96.206 276.017 96.0567 276.717 95.926L278.229 95.66V95.212C278.229 94.736 278.066 94.3673 277.739 94.106C277.412 93.8353 276.983 93.7 276.451 93.7C276.05 93.7 275.686 93.7747 275.359 93.924C275.032 94.0733 274.682 94.33 274.309 94.694C274.244 94.7593 274.174 94.792 274.099 94.792C274.034 94.792 273.973 94.764 273.917 94.708L273.735 94.54C273.67 94.4747 273.637 94.4047 273.637 94.33C273.637 94.246 273.67 94.1713 273.735 94.106C274.127 93.6953 274.538 93.3967 274.967 93.21C275.406 93.0233 275.886 92.93 276.409 92.93ZM275.905 99.44C276.577 99.44 277.132 99.2627 277.571 98.908C278.01 98.5533 278.229 98.1007 278.229 97.55V96.374L276.927 96.626C276.32 96.7473 275.84 96.864 275.485 96.976C275.13 97.088 274.846 97.2513 274.631 97.466C274.416 97.6807 274.309 97.9607 274.309 98.306C274.309 98.6607 274.449 98.9407 274.729 99.146C275.018 99.342 275.41 99.44 275.905 99.44ZM284.076 99.23C284.104 99.2207 284.141 99.216 284.188 99.216C284.244 99.216 284.295 99.2347 284.342 99.272C284.388 99.3093 284.416 99.3607 284.426 99.426L284.468 99.622C284.477 99.6407 284.482 99.6733 284.482 99.72C284.482 99.8507 284.412 99.93 284.272 99.958C283.936 100.061 283.576 100.112 283.194 100.112C282.587 100.112 282.153 99.9767 281.892 99.706C281.64 99.426 281.514 99.0247 281.514 98.502V93.798H280.478C280.291 93.798 280.198 93.7047 280.198 93.518V93.378C280.198 93.1913 280.291 93.098 280.478 93.098H281.514V90.97C281.514 90.7833 281.607 90.69 281.794 90.69H282.158C282.344 90.69 282.438 90.7833 282.438 90.97V93.098H284.118C284.304 93.098 284.398 93.1913 284.398 93.378V93.518C284.398 93.7047 284.304 93.798 284.118 93.798H282.438V98.39C282.438 98.7353 282.503 98.978 282.634 99.118C282.764 99.258 282.988 99.328 283.306 99.328C283.53 99.328 283.786 99.2953 284.076 99.23ZM286.269 91.348C286.083 91.348 285.924 91.2827 285.793 91.152C285.672 91.0213 285.611 90.8627 285.611 90.676C285.611 90.4893 285.672 90.3353 285.793 90.214C285.924 90.0927 286.083 90.032 286.269 90.032C286.465 90.032 286.624 90.0927 286.745 90.214C286.876 90.3353 286.941 90.4893 286.941 90.676C286.941 90.8627 286.876 91.0213 286.745 91.152C286.624 91.2827 286.465 91.348 286.269 91.348ZM286.087 100C285.901 100 285.807 99.9067 285.807 99.72V93.378C285.807 93.1913 285.901 93.098 286.087 93.098H286.451C286.638 93.098 286.731 93.1913 286.731 93.378V99.72C286.731 99.9067 286.638 100 286.451 100H286.087ZM291.644 100.182C291 100.182 290.426 100.028 289.922 99.72C289.418 99.412 289.026 98.9873 288.746 98.446C288.466 97.8953 288.326 97.2653 288.326 96.556C288.326 95.8467 288.466 95.2213 288.746 94.68C289.026 94.1293 289.418 93.7 289.922 93.392C290.426 93.084 291 92.93 291.644 92.93C292.288 92.93 292.862 93.084 293.366 93.392C293.87 93.7 294.262 94.1293 294.542 94.68C294.822 95.2213 294.962 95.8467 294.962 96.556C294.962 97.2653 294.822 97.8953 294.542 98.446C294.262 98.9873 293.87 99.412 293.366 99.72C292.862 100.028 292.288 100.182 291.644 100.182ZM291.644 99.412C292.363 99.412 292.937 99.1507 293.366 98.628C293.795 98.096 294.01 97.4053 294.01 96.556C294.01 95.7067 293.795 95.0207 293.366 94.498C292.937 93.966 292.363 93.7 291.644 93.7C290.925 93.7 290.351 93.966 289.922 94.498C289.493 95.0207 289.278 95.7067 289.278 96.556C289.278 97.4053 289.493 98.096 289.922 98.628C290.351 99.1507 290.925 99.412 291.644 99.412ZM299.647 92.93C300.459 92.93 301.071 93.154 301.481 93.602C301.901 94.05 302.111 94.61 302.111 95.282V99.72C302.111 99.9067 302.018 100 301.831 100H301.467C301.281 100 301.187 99.9067 301.187 99.72V95.59C301.187 94.974 301.038 94.5073 300.739 94.19C300.441 93.8727 300.011 93.714 299.451 93.714C299.097 93.714 298.77 93.8027 298.471 93.98C298.173 94.148 297.935 94.3813 297.757 94.68C297.58 94.9787 297.491 95.3053 297.491 95.66V99.72C297.491 99.9067 297.398 100 297.211 100H296.847C296.661 100 296.567 99.9067 296.567 99.72V93.378C296.567 93.1913 296.661 93.098 296.847 93.098H297.155C297.342 93.098 297.435 93.1913 297.435 93.378V94.05C297.669 93.6767 297.977 93.3967 298.359 93.21C298.742 93.0233 299.171 92.93 299.647 92.93ZM60.144 117.23C60.172 117.221 60.2093 117.216 60.256 117.216C60.312 117.216 60.3633 117.235 60.41 117.272C60.4567 117.309 60.4847 117.361 60.494 117.426L60.536 117.622C60.5453 117.641 60.55 117.673 60.55 117.72C60.55 117.851 60.48 117.93 60.34 117.958C60.004 118.061 59.6447 118.112 59.262 118.112C58.6553 118.112 58.2213 117.977 57.96 117.706C57.708 117.426 57.582 117.025 57.582 116.502V111.798H56.546C56.3593 111.798 56.266 111.705 56.266 111.518V111.378C56.266 111.191 56.3593 111.098 56.546 111.098H57.582V108.97C57.582 108.783 57.6753 108.69 57.862 108.69H58.226C58.4127 108.69 58.506 108.783 58.506 108.97V111.098H60.186C60.3727 111.098 60.466 111.191 60.466 111.378V111.518C60.466 111.705 60.3727 111.798 60.186 111.798H58.506V116.39C58.506 116.735 58.5713 116.978 58.702 117.118C58.8327 117.258 59.0567 117.328 59.374 117.328C59.598 117.328 59.8547 117.295 60.144 117.23ZM64.9558 110.93C65.7585 110.93 66.3698 111.159 66.7898 111.616C67.2098 112.064 67.4198 112.619 67.4198 113.282V117.72C67.4198 117.907 67.3265 118 67.1398 118H66.7758C66.5892 118 66.4958 117.907 66.4958 117.72V113.59C66.4958 112.974 66.3465 112.507 66.0478 112.19C65.7492 111.873 65.3198 111.714 64.7598 111.714C64.4052 111.714 64.0785 111.803 63.7798 111.98C63.4812 112.148 63.2432 112.381 63.0658 112.68C62.8885 112.979 62.7998 113.305 62.7998 113.66V117.72C62.7998 117.907 62.7065 118 62.5198 118H62.1558C61.9692 118 61.8758 117.907 61.8758 117.72V108.34C61.8758 108.153 61.9692 108.06 62.1558 108.06H62.5198C62.7065 108.06 62.7998 108.153 62.7998 108.34V111.994C63.0238 111.639 63.3225 111.373 63.6958 111.196C64.0785 111.019 64.4985 110.93 64.9558 110.93ZM72.1237 110.93C72.9731 110.93 73.6357 111.135 74.1117 111.546C74.5877 111.947 74.8257 112.479 74.8257 113.142V117.72C74.8257 117.907 74.7324 118 74.5457 118H74.2657C74.0791 118 73.9857 117.907 73.9857 117.72V117.09C73.7524 117.463 73.4211 117.743 72.9917 117.93C72.5717 118.117 72.1004 118.21 71.5777 118.21C70.8497 118.21 70.2571 118.056 69.7997 117.748C69.3424 117.44 69.1137 116.964 69.1137 116.32C69.1137 115.807 69.2584 115.396 69.5477 115.088C69.8371 114.771 70.2151 114.533 70.6817 114.374C71.1484 114.206 71.7317 114.057 72.4317 113.926L73.9437 113.66V113.212C73.9437 112.736 73.7804 112.367 73.4537 112.106C73.1271 111.835 72.6977 111.7 72.1657 111.7C71.7644 111.7 71.4004 111.775 71.0737 111.924C70.7471 112.073 70.3971 112.33 70.0237 112.694C69.9584 112.759 69.8884 112.792 69.8137 112.792C69.7484 112.792 69.6877 112.764 69.6317 112.708L69.4497 112.54C69.3844 112.475 69.3517 112.405 69.3517 112.33C69.3517 112.246 69.3844 112.171 69.4497 112.106C69.8417 111.695 70.2524 111.397 70.6817 111.21C71.1204 111.023 71.6011 110.93 72.1237 110.93ZM71.6197 117.44C72.2917 117.44 72.8471 117.263 73.2857 116.908C73.7244 116.553 73.9437 116.101 73.9437 115.55V114.374L72.6417 114.626C72.0351 114.747 71.5544 114.864 71.1997 114.976C70.8451 115.088 70.5604 115.251 70.3457 115.466C70.1311 115.681 70.0237 115.961 70.0237 116.306C70.0237 116.661 70.1637 116.941 70.4437 117.146C70.7331 117.342 71.1251 117.44 71.6197 117.44ZM79.7905 117.23C79.8185 117.221 79.8558 117.216 79.9025 117.216C79.9585 117.216 80.0098 117.235 80.0565 117.272C80.1032 117.309 80.1312 117.361 80.1405 117.426L80.1825 117.622C80.1918 117.641 80.1965 117.673 80.1965 117.72C80.1965 117.851 80.1265 117.93 79.9865 117.958C79.6505 118.061 79.2912 118.112 78.9085 118.112C78.3018 118.112 77.8678 117.977 77.6065 117.706C77.3545 117.426 77.2285 117.025 77.2285 116.502V111.798H76.1925C76.0058 111.798 75.9125 111.705 75.9125 111.518V111.378C75.9125 111.191 76.0058 111.098 76.1925 111.098H77.2285V108.97C77.2285 108.783 77.3218 108.69 77.5085 108.69H77.8725C78.0592 108.69 78.1525 108.783 78.1525 108.97V111.098H79.8325C80.0192 111.098 80.1125 111.191 80.1125 111.378V111.518C80.1125 111.705 80.0192 111.798 79.8325 111.798H78.1525V116.39C78.1525 116.735 78.2178 116.978 78.3485 117.118C78.4792 117.258 78.7032 117.328 79.0205 117.328C79.2445 117.328 79.5012 117.295 79.7905 117.23ZM91.7629 110.93C92.5096 110.93 93.0789 111.145 93.4709 111.574C93.8722 111.994 94.0729 112.535 94.0729 113.198V117.72C94.0729 117.907 93.9796 118 93.7929 118H93.4289C93.2422 118 93.1489 117.907 93.1489 117.72V113.45C93.1489 112.89 93.0182 112.461 92.7569 112.162C92.5049 111.863 92.1269 111.714 91.6229 111.714C91.0909 111.714 90.6662 111.891 90.3489 112.246C90.0316 112.601 89.8729 113.058 89.8729 113.618V117.72C89.8729 117.907 89.7796 118 89.5929 118H89.2289C89.0422 118 88.9489 117.907 88.9489 117.72V113.45C88.9489 112.89 88.8182 112.461 88.5569 112.162C88.3049 111.863 87.9222 111.714 87.4089 111.714C86.9329 111.714 86.5362 111.863 86.2189 112.162C85.9109 112.461 85.7289 112.853 85.6729 113.338V117.72C85.6729 117.907 85.5796 118 85.3929 118H85.0289C84.8422 118 84.7489 117.907 84.7489 117.72V111.378C84.7489 111.191 84.8422 111.098 85.0289 111.098H85.3369C85.5236 111.098 85.6169 111.191 85.6169 111.378V111.952C86.0369 111.271 86.7042 110.93 87.6189 110.93C88.0949 110.93 88.5009 111.037 88.8369 111.252C89.1822 111.457 89.4389 111.737 89.6069 112.092C90.1016 111.317 90.8202 110.93 91.7629 110.93ZM98.7702 110.93C99.6196 110.93 100.282 111.135 100.758 111.546C101.234 111.947 101.472 112.479 101.472 113.142V117.72C101.472 117.907 101.379 118 101.192 118H100.912C100.726 118 100.632 117.907 100.632 117.72V117.09C100.399 117.463 100.068 117.743 99.6382 117.93C99.2182 118.117 98.7469 118.21 98.2242 118.21C97.4962 118.21 96.9036 118.056 96.4462 117.748C95.9889 117.44 95.7602 116.964 95.7602 116.32C95.7602 115.807 95.9049 115.396 96.1942 115.088C96.4836 114.771 96.8616 114.533 97.3282 114.374C97.7949 114.206 98.3782 114.057 99.0782 113.926L100.59 113.66V113.212C100.59 112.736 100.427 112.367 100.1 112.106C99.7736 111.835 99.3442 111.7 98.8122 111.7C98.4109 111.7 98.0469 111.775 97.7202 111.924C97.3936 112.073 97.0436 112.33 96.6702 112.694C96.6049 112.759 96.5349 112.792 96.4602 112.792C96.3949 112.792 96.3342 112.764 96.2782 112.708L96.0962 112.54C96.0309 112.475 95.9982 112.405 95.9982 112.33C95.9982 112.246 96.0309 112.171 96.0962 112.106C96.4882 111.695 96.8989 111.397 97.3282 111.21C97.7669 111.023 98.2476 110.93 98.7702 110.93ZM98.2662 117.44C98.9382 117.44 99.4936 117.263 99.9322 116.908C100.371 116.553 100.59 116.101 100.59 115.55V114.374L99.2882 114.626C98.6816 114.747 98.2009 114.864 97.8462 114.976C97.4916 115.088 97.2069 115.251 96.9922 115.466C96.7776 115.681 96.6702 115.961 96.6702 116.306C96.6702 116.661 96.8102 116.941 97.0902 117.146C97.3796 117.342 97.7716 117.44 98.2662 117.44ZM107.613 111.322C107.669 111.173 107.776 111.098 107.935 111.098H108.313C108.388 111.098 108.448 111.117 108.495 111.154C108.542 111.191 108.565 111.243 108.565 111.308L108.537 111.42L105.835 119.05C105.686 119.47 105.541 119.797 105.401 120.03C105.261 120.263 105.07 120.441 104.827 120.562C104.594 120.683 104.286 120.744 103.903 120.744C103.66 120.744 103.446 120.725 103.259 120.688C103.166 120.679 103.1 120.641 103.063 120.576C103.035 120.511 103.03 120.436 103.049 120.352L103.091 120.17C103.128 120.002 103.236 119.927 103.413 119.946C103.581 119.974 103.726 119.988 103.847 119.988C104.146 119.988 104.379 119.904 104.547 119.736C104.724 119.568 104.892 119.251 105.051 118.784L105.177 118.392L102.713 111.42L102.685 111.308C102.685 111.243 102.708 111.191 102.755 111.154C102.802 111.117 102.862 111.098 102.937 111.098H103.343C103.492 111.098 103.595 111.173 103.651 111.322L104.435 113.632C104.51 113.865 104.696 114.421 104.995 115.298L105.625 117.188C105.933 116.32 106.339 115.125 106.843 113.604L107.613 111.322ZM116.13 110.93C116.942 110.93 117.553 111.154 117.964 111.602C118.384 112.05 118.594 112.61 118.594 113.282V117.72C118.594 117.907 118.5 118 118.314 118H117.95C117.763 118 117.67 117.907 117.67 117.72V113.59C117.67 112.974 117.52 112.507 117.222 112.19C116.923 111.873 116.494 111.714 115.934 111.714C115.579 111.714 115.252 111.803 114.954 111.98C114.655 112.148 114.417 112.381 114.24 112.68C114.062 112.979 113.974 113.305 113.974 113.66V117.72C113.974 117.907 113.88 118 113.694 118H113.33C113.143 118 113.05 117.907 113.05 117.72V111.378C113.05 111.191 113.143 111.098 113.33 111.098H113.638C113.824 111.098 113.918 111.191 113.918 111.378V112.05C114.151 111.677 114.459 111.397 114.842 111.21C115.224 111.023 115.654 110.93 116.13 110.93ZM125.664 116.362C125.729 116.297 125.799 116.264 125.874 116.264C125.939 116.264 126 116.292 126.056 116.348L126.238 116.516C126.303 116.581 126.336 116.651 126.336 116.726C126.336 116.782 126.308 116.847 126.252 116.922C125.794 117.379 125.351 117.706 124.922 117.902C124.492 118.089 124.012 118.182 123.48 118.182C122.808 118.182 122.224 118.033 121.73 117.734C121.235 117.435 120.852 117.02 120.582 116.488C120.311 115.947 120.176 115.321 120.176 114.612C120.176 113.893 120.306 113.259 120.568 112.708C120.838 112.148 121.216 111.714 121.702 111.406C122.187 111.089 122.747 110.93 123.382 110.93C124.324 110.93 125.066 111.224 125.608 111.812C126.149 112.4 126.42 113.193 126.42 114.192V114.36C126.41 114.444 126.378 114.509 126.322 114.556C126.275 114.603 126.21 114.626 126.126 114.626H121.114C121.142 115.41 121.347 116.073 121.73 116.614C122.122 117.146 122.705 117.412 123.48 117.412C123.9 117.412 124.268 117.337 124.586 117.188C124.912 117.029 125.272 116.754 125.664 116.362ZM123.382 111.7C122.766 111.7 122.257 111.891 121.856 112.274C121.464 112.647 121.226 113.198 121.142 113.926H125.496C125.477 113.245 125.281 112.703 124.908 112.302C124.534 111.901 124.026 111.7 123.382 111.7ZM133.115 116.362C133.18 116.297 133.25 116.264 133.325 116.264C133.39 116.264 133.451 116.292 133.507 116.348L133.689 116.516C133.754 116.581 133.787 116.651 133.787 116.726C133.787 116.782 133.759 116.847 133.703 116.922C133.245 117.379 132.802 117.706 132.373 117.902C131.943 118.089 131.463 118.182 130.931 118.182C130.259 118.182 129.675 118.033 129.181 117.734C128.686 117.435 128.303 117.02 128.033 116.488C127.762 115.947 127.627 115.321 127.627 114.612C127.627 113.893 127.757 113.259 128.019 112.708C128.289 112.148 128.667 111.714 129.153 111.406C129.638 111.089 130.198 110.93 130.833 110.93C131.775 110.93 132.517 111.224 133.059 111.812C133.6 112.4 133.871 113.193 133.871 114.192V114.36C133.861 114.444 133.829 114.509 133.773 114.556C133.726 114.603 133.661 114.626 133.577 114.626H128.565C128.593 115.41 128.798 116.073 129.181 116.614C129.573 117.146 130.156 117.412 130.931 117.412C131.351 117.412 131.719 117.337 132.037 117.188C132.363 117.029 132.723 116.754 133.115 116.362ZM130.833 111.7C130.217 111.7 129.708 111.891 129.307 112.274C128.915 112.647 128.677 113.198 128.593 113.926H132.947C132.928 113.245 132.732 112.703 132.359 112.302C131.985 111.901 131.477 111.7 130.833 111.7ZM140.524 108.34C140.524 108.153 140.617 108.06 140.804 108.06H141.168C141.355 108.06 141.448 108.153 141.448 108.34V117.72C141.448 117.907 141.355 118 141.168 118H140.874C140.687 118 140.594 117.907 140.594 117.72V116.81C140.342 117.249 140.011 117.585 139.6 117.818C139.189 118.051 138.704 118.168 138.144 118.168C137.556 118.168 137.033 118.019 136.576 117.72C136.119 117.412 135.759 116.987 135.498 116.446C135.237 115.895 135.106 115.265 135.106 114.556C135.106 113.847 135.237 113.221 135.498 112.68C135.769 112.129 136.137 111.705 136.604 111.406C137.071 111.098 137.593 110.944 138.172 110.944C139.236 110.944 140.02 111.341 140.524 112.134V108.34ZM138.214 117.384C138.914 117.384 139.479 117.137 139.908 116.642C140.347 116.138 140.566 115.443 140.566 114.556C140.566 113.679 140.347 112.988 139.908 112.484C139.479 111.98 138.914 111.728 138.214 111.728C137.57 111.728 137.047 111.989 136.646 112.512C136.254 113.035 136.058 113.716 136.058 114.556C136.058 115.405 136.254 116.091 136.646 116.614C137.038 117.127 137.561 117.384 138.214 117.384ZM149.859 117.23C149.887 117.221 149.924 117.216 149.971 117.216C150.027 117.216 150.078 117.235 150.125 117.272C150.172 117.309 150.2 117.361 150.209 117.426L150.251 117.622C150.26 117.641 150.265 117.673 150.265 117.72C150.265 117.851 150.195 117.93 150.055 117.958C149.719 118.061 149.36 118.112 148.977 118.112C148.37 118.112 147.936 117.977 147.675 117.706C147.423 117.426 147.297 117.025 147.297 116.502V111.798H146.261C146.074 111.798 145.981 111.705 145.981 111.518V111.378C145.981 111.191 146.074 111.098 146.261 111.098H147.297V108.97C147.297 108.783 147.39 108.69 147.577 108.69H147.941C148.128 108.69 148.221 108.783 148.221 108.97V111.098H149.901C150.088 111.098 150.181 111.191 150.181 111.378V111.518C150.181 111.705 150.088 111.798 149.901 111.798H148.221V116.39C148.221 116.735 148.286 116.978 148.417 117.118C148.548 117.258 148.772 117.328 149.089 117.328C149.313 117.328 149.57 117.295 149.859 117.23ZM154.187 118.182C153.543 118.182 152.969 118.028 152.465 117.72C151.961 117.412 151.569 116.987 151.289 116.446C151.009 115.895 150.869 115.265 150.869 114.556C150.869 113.847 151.009 113.221 151.289 112.68C151.569 112.129 151.961 111.7 152.465 111.392C152.969 111.084 153.543 110.93 154.187 110.93C154.831 110.93 155.405 111.084 155.909 111.392C156.413 111.7 156.805 112.129 157.085 112.68C157.365 113.221 157.505 113.847 157.505 114.556C157.505 115.265 157.365 115.895 157.085 116.446C156.805 116.987 156.413 117.412 155.909 117.72C155.405 118.028 154.831 118.182 154.187 118.182ZM154.187 117.412C154.906 117.412 155.48 117.151 155.909 116.628C156.338 116.096 156.553 115.405 156.553 114.556C156.553 113.707 156.338 113.021 155.909 112.498C155.48 111.966 154.906 111.7 154.187 111.7C153.468 111.7 152.894 111.966 152.465 112.498C152.036 113.021 151.821 113.707 151.821 114.556C151.821 115.405 152.036 116.096 152.465 116.628C152.894 117.151 153.468 117.412 154.187 117.412ZM165.641 110.944C166.229 110.944 166.751 111.098 167.209 111.406C167.675 111.705 168.035 112.129 168.287 112.68C168.548 113.221 168.679 113.847 168.679 114.556C168.679 115.265 168.548 115.895 168.287 116.446C168.025 116.987 167.661 117.412 167.195 117.72C166.737 118.019 166.219 118.168 165.641 118.168C164.53 118.168 163.718 117.739 163.205 116.88V117.72C163.205 117.907 163.111 118 162.925 118H162.617C162.43 118 162.337 117.907 162.337 117.72V108.326C162.337 108.139 162.43 108.046 162.617 108.046H162.981C163.167 108.046 163.261 108.139 163.261 108.326V112.19C163.774 111.359 164.567 110.944 165.641 110.944ZM165.571 117.384C166.215 117.384 166.733 117.123 167.125 116.6C167.526 116.077 167.727 115.396 167.727 114.556C167.727 113.716 167.526 113.035 167.125 112.512C166.733 111.989 166.215 111.728 165.571 111.728C164.88 111.728 164.315 111.98 163.877 112.484C163.438 112.988 163.219 113.679 163.219 114.556C163.219 115.443 163.433 116.138 163.863 116.642C164.301 117.137 164.871 117.384 165.571 117.384ZM175.429 116.362C175.495 116.297 175.565 116.264 175.639 116.264C175.705 116.264 175.765 116.292 175.821 116.348L176.003 116.516C176.069 116.581 176.101 116.651 176.101 116.726C176.101 116.782 176.073 116.847 176.017 116.922C175.56 117.379 175.117 117.706 174.687 117.902C174.258 118.089 173.777 118.182 173.245 118.182C172.573 118.182 171.99 118.033 171.495 117.734C171.001 117.435 170.618 117.02 170.347 116.488C170.077 115.947 169.941 115.321 169.941 114.612C169.941 113.893 170.072 113.259 170.333 112.708C170.604 112.148 170.982 111.714 171.467 111.406C171.953 111.089 172.513 110.93 173.147 110.93C174.09 110.93 174.832 111.224 175.373 111.812C175.915 112.4 176.185 113.193 176.185 114.192V114.36C176.176 114.444 176.143 114.509 176.087 114.556C176.041 114.603 175.975 114.626 175.891 114.626H170.879C170.907 115.41 171.113 116.073 171.495 116.614C171.887 117.146 172.471 117.412 173.245 117.412C173.665 117.412 174.034 117.337 174.351 117.188C174.678 117.029 175.037 116.754 175.429 116.362ZM173.147 111.7C172.531 111.7 172.023 111.891 171.621 112.274C171.229 112.647 170.991 113.198 170.907 113.926H175.261C175.243 113.245 175.047 112.703 174.673 112.302C174.3 111.901 173.791 111.7 173.147 111.7ZM183.727 110.93C184.577 110.93 185.239 111.135 185.715 111.546C186.191 111.947 186.429 112.479 186.429 113.142V117.72C186.429 117.907 186.336 118 186.149 118H185.869C185.683 118 185.589 117.907 185.589 117.72V117.09C185.356 117.463 185.025 117.743 184.595 117.93C184.175 118.117 183.704 118.21 183.181 118.21C182.453 118.21 181.861 118.056 181.403 117.748C180.946 117.44 180.717 116.964 180.717 116.32C180.717 115.807 180.862 115.396 181.151 115.088C181.441 114.771 181.819 114.533 182.285 114.374C182.752 114.206 183.335 114.057 184.035 113.926L185.547 113.66V113.212C185.547 112.736 185.384 112.367 185.057 112.106C184.731 111.835 184.301 111.7 183.769 111.7C183.368 111.7 183.004 111.775 182.677 111.924C182.351 112.073 182.001 112.33 181.627 112.694C181.562 112.759 181.492 112.792 181.417 112.792C181.352 112.792 181.291 112.764 181.235 112.708L181.053 112.54C180.988 112.475 180.955 112.405 180.955 112.33C180.955 112.246 180.988 112.171 181.053 112.106C181.445 111.695 181.856 111.397 182.285 111.21C182.724 111.023 183.205 110.93 183.727 110.93ZM183.223 117.44C183.895 117.44 184.451 117.263 184.889 116.908C185.328 116.553 185.547 116.101 185.547 115.55V114.374L184.245 114.626C183.639 114.747 183.158 114.864 182.803 114.976C182.449 115.088 182.164 115.251 181.949 115.466C181.735 115.681 181.627 115.961 181.627 116.306C181.627 116.661 181.767 116.941 182.047 117.146C182.337 117.342 182.729 117.44 183.223 117.44ZM193.461 108.34C193.461 108.153 193.555 108.06 193.741 108.06H194.105C194.292 108.06 194.385 108.153 194.385 108.34V117.72C194.385 117.907 194.292 118 194.105 118H193.811C193.625 118 193.531 117.907 193.531 117.72V116.81C193.279 117.249 192.948 117.585 192.537 117.818C192.127 118.051 191.641 118.168 191.081 118.168C190.493 118.168 189.971 118.019 189.513 117.72C189.056 117.412 188.697 116.987 188.435 116.446C188.174 115.895 188.043 115.265 188.043 114.556C188.043 113.847 188.174 113.221 188.435 112.68C188.706 112.129 189.075 111.705 189.541 111.406C190.008 111.098 190.531 110.944 191.109 110.944C192.173 110.944 192.957 111.341 193.461 112.134V108.34ZM191.151 117.384C191.851 117.384 192.416 117.137 192.845 116.642C193.284 116.138 193.503 115.443 193.503 114.556C193.503 113.679 193.284 112.988 192.845 112.484C192.416 111.98 191.851 111.728 191.151 111.728C190.507 111.728 189.985 111.989 189.583 112.512C189.191 113.035 188.995 113.716 188.995 114.556C188.995 115.405 189.191 116.091 189.583 116.614C189.975 117.127 190.498 117.384 191.151 117.384ZM201.446 108.34C201.446 108.153 201.539 108.06 201.726 108.06H202.09C202.276 108.06 202.37 108.153 202.37 108.34V117.72C202.37 117.907 202.276 118 202.09 118H201.796C201.609 118 201.516 117.907 201.516 117.72V116.81C201.264 117.249 200.932 117.585 200.522 117.818C200.111 118.051 199.626 118.168 199.066 118.168C198.478 118.168 197.955 118.019 197.498 117.72C197.04 117.412 196.681 116.987 196.42 116.446C196.158 115.895 196.028 115.265 196.028 114.556C196.028 113.847 196.158 113.221 196.42 112.68C196.69 112.129 197.059 111.705 197.526 111.406C197.992 111.098 198.515 110.944 199.094 110.944C200.158 110.944 200.942 111.341 201.446 112.134V108.34ZM199.136 117.384C199.836 117.384 200.4 117.137 200.83 116.642C201.268 116.138 201.488 115.443 201.488 114.556C201.488 113.679 201.268 112.988 200.83 112.484C200.4 111.98 199.836 111.728 199.136 111.728C198.492 111.728 197.969 111.989 197.568 112.512C197.176 113.035 196.98 113.716 196.98 114.556C196.98 115.405 197.176 116.091 197.568 116.614C197.96 117.127 198.482 117.384 199.136 117.384ZM207.022 111.042C207.255 111.042 207.531 111.079 207.848 111.154C208.016 111.21 208.081 111.327 208.044 111.504L207.988 111.728C207.941 111.905 207.825 111.971 207.638 111.924C207.414 111.868 207.209 111.84 207.022 111.84C206.546 111.84 206.149 112.045 205.832 112.456C205.524 112.867 205.37 113.436 205.37 114.164V117.72C205.37 117.907 205.277 118 205.09 118H204.726C204.539 118 204.446 117.907 204.446 117.72V111.378C204.446 111.191 204.539 111.098 204.726 111.098H205.034C205.221 111.098 205.314 111.191 205.314 111.378V112.148C205.473 111.803 205.697 111.532 205.986 111.336C206.285 111.14 206.63 111.042 207.022 111.042ZM213.943 116.362C214.008 116.297 214.078 116.264 214.153 116.264C214.218 116.264 214.279 116.292 214.335 116.348L214.517 116.516C214.582 116.581 214.615 116.651 214.615 116.726C214.615 116.782 214.587 116.847 214.531 116.922C214.074 117.379 213.63 117.706 213.201 117.902C212.772 118.089 212.291 118.182 211.759 118.182C211.087 118.182 210.504 118.033 210.009 117.734C209.514 117.435 209.132 117.02 208.861 116.488C208.59 115.947 208.455 115.321 208.455 114.612C208.455 113.893 208.586 113.259 208.847 112.708C209.118 112.148 209.496 111.714 209.981 111.406C210.466 111.089 211.026 110.93 211.661 110.93C212.604 110.93 213.346 111.224 213.887 111.812C214.428 112.4 214.699 113.193 214.699 114.192V114.36C214.69 114.444 214.657 114.509 214.601 114.556C214.554 114.603 214.489 114.626 214.405 114.626H209.393C209.421 115.41 209.626 116.073 210.009 116.614C210.401 117.146 210.984 117.412 211.759 117.412C212.179 117.412 212.548 117.337 212.865 117.188C213.192 117.029 213.551 116.754 213.943 116.362ZM211.661 111.7C211.045 111.7 210.536 111.891 210.135 112.274C209.743 112.647 209.505 113.198 209.421 113.926H213.775C213.756 113.245 213.56 112.703 213.187 112.302C212.814 111.901 212.305 111.7 211.661 111.7ZM218.817 118.182C218.248 118.182 217.744 118.103 217.305 117.944C216.876 117.776 216.423 117.496 215.947 117.104C215.863 117.048 215.821 116.983 215.821 116.908C215.821 116.843 215.854 116.777 215.919 116.712L216.101 116.516C216.157 116.441 216.227 116.404 216.311 116.404C216.376 116.404 216.437 116.432 216.493 116.488C216.941 116.833 217.338 117.076 217.683 117.216C218.028 117.347 218.406 117.412 218.817 117.412C219.33 117.412 219.75 117.3 220.077 117.076C220.404 116.843 220.567 116.53 220.567 116.138C220.567 115.746 220.399 115.457 220.063 115.27C219.727 115.083 219.209 114.915 218.509 114.766C217.893 114.635 217.408 114.5 217.053 114.36C216.708 114.211 216.451 114.024 216.283 113.8C216.115 113.576 216.031 113.282 216.031 112.918C216.031 112.321 216.274 111.84 216.759 111.476C217.244 111.112 217.856 110.93 218.593 110.93C219.097 110.93 219.545 110.995 219.937 111.126C220.338 111.247 220.74 111.453 221.141 111.742C221.225 111.807 221.267 111.877 221.267 111.952C221.267 111.999 221.244 112.059 221.197 112.134L221.029 112.344C220.982 112.419 220.917 112.456 220.833 112.456C220.758 112.456 220.693 112.433 220.637 112.386C220.254 112.115 219.914 111.933 219.615 111.84C219.326 111.747 218.994 111.7 218.621 111.7C218.108 111.7 217.697 111.812 217.389 112.036C217.081 112.26 216.927 112.545 216.927 112.89C216.927 113.105 216.997 113.277 217.137 113.408C217.277 113.539 217.478 113.651 217.739 113.744C218 113.828 218.383 113.926 218.887 114.038C219.82 114.243 220.483 114.495 220.875 114.794C221.276 115.093 221.477 115.527 221.477 116.096C221.477 116.721 221.23 117.225 220.735 117.608C220.24 117.991 219.601 118.182 218.817 118.182ZM225.448 118.182C224.879 118.182 224.375 118.103 223.936 117.944C223.507 117.776 223.054 117.496 222.578 117.104C222.494 117.048 222.452 116.983 222.452 116.908C222.452 116.843 222.485 116.777 222.55 116.712L222.732 116.516C222.788 116.441 222.858 116.404 222.942 116.404C223.007 116.404 223.068 116.432 223.124 116.488C223.572 116.833 223.969 117.076 224.314 117.216C224.659 117.347 225.037 117.412 225.448 117.412C225.961 117.412 226.381 117.3 226.708 117.076C227.035 116.843 227.198 116.53 227.198 116.138C227.198 115.746 227.03 115.457 226.694 115.27C226.358 115.083 225.84 114.915 225.14 114.766C224.524 114.635 224.039 114.5 223.684 114.36C223.339 114.211 223.082 114.024 222.914 113.8C222.746 113.576 222.662 113.282 222.662 112.918C222.662 112.321 222.905 111.84 223.39 111.476C223.875 111.112 224.487 110.93 225.224 110.93C225.728 110.93 226.176 110.995 226.568 111.126C226.969 111.247 227.371 111.453 227.772 111.742C227.856 111.807 227.898 111.877 227.898 111.952C227.898 111.999 227.875 112.059 227.828 112.134L227.66 112.344C227.613 112.419 227.548 112.456 227.464 112.456C227.389 112.456 227.324 112.433 227.268 112.386C226.885 112.115 226.545 111.933 226.246 111.84C225.957 111.747 225.625 111.7 225.252 111.7C224.739 111.7 224.328 111.812 224.02 112.036C223.712 112.26 223.558 112.545 223.558 112.89C223.558 113.105 223.628 113.277 223.768 113.408C223.908 113.539 224.109 113.651 224.37 113.744C224.631 113.828 225.014 113.926 225.518 114.038C226.451 114.243 227.114 114.495 227.506 114.794C227.907 115.093 228.108 115.527 228.108 116.096C228.108 116.721 227.861 117.225 227.366 117.608C226.871 117.991 226.232 118.182 225.448 118.182ZM234.697 116.362C234.762 116.297 234.832 116.264 234.907 116.264C234.972 116.264 235.033 116.292 235.089 116.348L235.271 116.516C235.336 116.581 235.369 116.651 235.369 116.726C235.369 116.782 235.341 116.847 235.285 116.922C234.827 117.379 234.384 117.706 233.955 117.902C233.525 118.089 233.045 118.182 232.513 118.182C231.841 118.182 231.257 118.033 230.763 117.734C230.268 117.435 229.885 117.02 229.615 116.488C229.344 115.947 229.209 115.321 229.209 114.612C229.209 113.893 229.339 113.259 229.601 112.708C229.871 112.148 230.249 111.714 230.735 111.406C231.22 111.089 231.78 110.93 232.415 110.93C233.357 110.93 234.099 111.224 234.641 111.812C235.182 112.4 235.453 113.193 235.453 114.192V114.36C235.443 114.444 235.411 114.509 235.355 114.556C235.308 114.603 235.243 114.626 235.159 114.626H230.147C230.175 115.41 230.38 116.073 230.763 116.614C231.155 117.146 231.738 117.412 232.513 117.412C232.933 117.412 233.301 117.337 233.619 117.188C233.945 117.029 234.305 116.754 234.697 116.362ZM232.415 111.7C231.799 111.7 231.29 111.891 230.889 112.274C230.497 112.647 230.259 113.198 230.175 113.926H234.529C234.51 113.245 234.314 112.703 233.941 112.302C233.567 111.901 233.059 111.7 232.415 111.7ZM242.106 108.34C242.106 108.153 242.199 108.06 242.386 108.06H242.75C242.937 108.06 243.03 108.153 243.03 108.34V117.72C243.03 117.907 242.937 118 242.75 118H242.456C242.269 118 242.176 117.907 242.176 117.72V116.81C241.924 117.249 241.593 117.585 241.182 117.818C240.771 118.051 240.286 118.168 239.726 118.168C239.138 118.168 238.615 118.019 238.158 117.72C237.701 117.412 237.341 116.987 237.08 116.446C236.819 115.895 236.688 115.265 236.688 114.556C236.688 113.847 236.819 113.221 237.08 112.68C237.351 112.129 237.719 111.705 238.186 111.406C238.653 111.098 239.175 110.944 239.754 110.944C240.818 110.944 241.602 111.341 242.106 112.134V108.34ZM239.796 117.384C240.496 117.384 241.061 117.137 241.49 116.642C241.929 116.138 242.148 115.443 242.148 114.556C242.148 113.679 241.929 112.988 241.49 112.484C241.061 111.98 240.496 111.728 239.796 111.728C239.152 111.728 238.629 111.989 238.228 112.512C237.836 113.035 237.64 113.716 237.64 114.556C237.64 115.405 237.836 116.091 238.228 116.614C238.62 117.127 239.143 117.384 239.796 117.384ZM250.741 118.182C250.172 118.182 249.668 118.103 249.229 117.944C248.8 117.776 248.347 117.496 247.871 117.104C247.787 117.048 247.745 116.983 247.745 116.908C247.745 116.843 247.778 116.777 247.843 116.712L248.025 116.516C248.081 116.441 248.151 116.404 248.235 116.404C248.3 116.404 248.361 116.432 248.417 116.488C248.865 116.833 249.262 117.076 249.607 117.216C249.952 117.347 250.33 117.412 250.741 117.412C251.254 117.412 251.674 117.3 252.001 117.076C252.328 116.843 252.491 116.53 252.491 116.138C252.491 115.746 252.323 115.457 251.987 115.27C251.651 115.083 251.133 114.915 250.433 114.766C249.817 114.635 249.332 114.5 248.977 114.36C248.632 114.211 248.375 114.024 248.207 113.8C248.039 113.576 247.955 113.282 247.955 112.918C247.955 112.321 248.198 111.84 248.683 111.476C249.168 111.112 249.78 110.93 250.517 110.93C251.021 110.93 251.469 110.995 251.861 111.126C252.262 111.247 252.664 111.453 253.065 111.742C253.149 111.807 253.191 111.877 253.191 111.952C253.191 111.999 253.168 112.059 253.121 112.134L252.953 112.344C252.906 112.419 252.841 112.456 252.757 112.456C252.682 112.456 252.617 112.433 252.561 112.386C252.178 112.115 251.838 111.933 251.539 111.84C251.25 111.747 250.918 111.7 250.545 111.7C250.032 111.7 249.621 111.812 249.313 112.036C249.005 112.26 248.851 112.545 248.851 112.89C248.851 113.105 248.921 113.277 249.061 113.408C249.201 113.539 249.402 113.651 249.663 113.744C249.924 113.828 250.307 113.926 250.811 114.038C251.744 114.243 252.407 114.495 252.799 114.794C253.2 115.093 253.401 115.527 253.401 116.096C253.401 116.721 253.154 117.225 252.659 117.608C252.164 117.991 251.525 118.182 250.741 118.182ZM257.82 118.182C257.176 118.182 256.602 118.028 256.098 117.72C255.594 117.412 255.202 116.987 254.922 116.446C254.642 115.895 254.502 115.265 254.502 114.556C254.502 113.847 254.642 113.221 254.922 112.68C255.202 112.129 255.594 111.7 256.098 111.392C256.602 111.084 257.176 110.93 257.82 110.93C258.464 110.93 259.038 111.084 259.542 111.392C260.046 111.7 260.438 112.129 260.718 112.68C260.998 113.221 261.138 113.847 261.138 114.556C261.138 115.265 260.998 115.895 260.718 116.446C260.438 116.987 260.046 117.412 259.542 117.72C259.038 118.028 258.464 118.182 257.82 118.182ZM257.82 117.412C258.538 117.412 259.112 117.151 259.542 116.628C259.971 116.096 260.186 115.405 260.186 114.556C260.186 113.707 259.971 113.021 259.542 112.498C259.112 111.966 258.538 111.7 257.82 111.7C257.101 111.7 256.527 111.966 256.098 112.498C255.668 113.021 255.454 113.707 255.454 114.556C255.454 115.405 255.668 116.096 256.098 116.628C256.527 117.151 257.101 117.412 257.82 117.412ZM265.681 118.182C265.037 118.182 264.463 118.028 263.959 117.72C263.455 117.412 263.063 116.987 262.783 116.446C262.503 115.895 262.363 115.265 262.363 114.556C262.363 113.847 262.503 113.221 262.783 112.68C263.063 112.129 263.455 111.7 263.959 111.392C264.463 111.084 265.037 110.93 265.681 110.93C266.325 110.93 266.899 111.084 267.403 111.392C267.907 111.7 268.299 112.129 268.579 112.68C268.859 113.221 268.999 113.847 268.999 114.556C268.999 115.265 268.859 115.895 268.579 116.446C268.299 116.987 267.907 117.412 267.403 117.72C266.899 118.028 266.325 118.182 265.681 118.182ZM265.681 117.412C266.4 117.412 266.974 117.151 267.403 116.628C267.832 116.096 268.047 115.405 268.047 114.556C268.047 113.707 267.832 113.021 267.403 112.498C266.974 111.966 266.4 111.7 265.681 111.7C264.962 111.7 264.388 111.966 263.959 112.498C263.53 113.021 263.315 113.707 263.315 114.556C263.315 115.405 263.53 116.096 263.959 116.628C264.388 117.151 264.962 117.412 265.681 117.412ZM273.684 110.93C274.496 110.93 275.108 111.154 275.518 111.602C275.938 112.05 276.148 112.61 276.148 113.282V117.72C276.148 117.907 276.055 118 275.868 118H275.504C275.318 118 275.224 117.907 275.224 117.72V113.59C275.224 112.974 275.075 112.507 274.776 112.19C274.478 111.873 274.048 111.714 273.488 111.714C273.134 111.714 272.807 111.803 272.508 111.98C272.21 112.148 271.972 112.381 271.794 112.68C271.617 112.979 271.528 113.305 271.528 113.66V117.72C271.528 117.907 271.435 118 271.248 118H270.884C270.698 118 270.604 117.907 270.604 117.72V111.378C270.604 111.191 270.698 111.098 270.884 111.098H271.192C271.379 111.098 271.472 111.191 271.472 111.378V112.05C271.706 111.677 272.014 111.397 272.396 111.21C272.779 111.023 273.208 110.93 273.684 110.93ZM278.57 118.098C278.374 118.098 278.206 118.028 278.066 117.888C277.926 117.748 277.856 117.58 277.856 117.384C277.856 117.188 277.926 117.02 278.066 116.88C278.206 116.74 278.374 116.67 278.57 116.67C278.766 116.67 278.934 116.74 279.074 116.88C279.214 117.02 279.284 117.188 279.284 117.384C279.284 117.58 279.214 117.748 279.074 117.888C278.934 118.028 278.766 118.098 278.57 118.098Z" fill="#464646"/>
<path d="M16 44C16 41.7909 17.7909 40 20 40V142C17.7909 142 16 140.209 16 138V44Z" fill="#D5840B"/>
<rect x="16.5" y="40.5" width="311" height="101" rx="3.5" stroke="#FAE76B"/>
</svg>
