<svg width="344" height="200" viewBox="0 0 344 200" fill="none" xmlns="http://www.w3.org/2000/svg">
<rect width="344" height="200" fill="#F5F5F5"/>
<rect x="16.5" y="40.5" width="311" height="119" rx="3.5" fill="#FFF5F5"/>
<g clip-path="url(#clip0_2353_28499)">
<path d="M36.1005 60.5858C36.4756 60.2107 36.9843 60 37.5147 60L42.4853 60C43.0157 60 43.5244 60.2107 43.8995 60.5858L47.4142 64.1005C47.7893 64.4756 48 64.9843 48 65.5147V70.4853C48 71.0157 47.7893 71.5244 47.4142 71.8995L43.8995 75.4142C43.5244 75.7893 43.0157 76 42.4853 76H37.5147C36.9843 76 36.4756 75.7893 36.1005 75.4142L32.5858 71.8995C32.2107 71.5244 32 71.0157 32 70.4853L32 65.5147C32 64.9843 32.2107 64.4756 32.5858 64.1005L36.1005 60.5858Z" fill="#D91F0A"/>
<path fill-rule="evenodd" clip-rule="evenodd" d="M40 63.25C40.4142 63.25 40.75 63.5858 40.75 64V69C40.75 69.4142 40.4142 69.75 40 69.75C39.5858 69.75 39.25 69.4142 39.25 69V64C39.25 63.5858 39.5858 63.25 40 63.25Z" fill="white"/>
<path d="M40.8 71.8C40.8 72.2418 40.4418 72.6 40 72.6C39.5581 72.6 39.2 72.2418 39.2 71.8C39.2 71.3582 39.5581 71 40 71C40.4418 71 40.8 71.3582 40.8 71.8Z" fill="white"/>
</g>
<path d="M64.218 74C63.938 74 63.7513 73.8693 63.658 73.608L63 71.718H58.604L57.946 73.608C57.8527 73.8693 57.666 74 57.386 74H56.798C56.658 74 56.546 73.972 56.462 73.916C56.3873 73.8507 56.35 73.762 56.35 73.65C56.35 73.594 56.364 73.524 56.392 73.44L59.64 64.452C59.7333 64.1907 59.92 64.06 60.2 64.06H61.446C61.726 64.06 61.9127 64.1907 62.006 64.452L65.254 73.44C65.282 73.524 65.296 73.594 65.296 73.65C65.296 73.762 65.254 73.8507 65.17 73.916C65.0953 73.972 64.988 74 64.848 74H64.218ZM62.552 70.388L62.118 69.156C62.1087 69.1373 62.006 68.8433 61.81 68.274C61.3153 66.874 60.9793 65.8753 60.802 65.278C60.5313 66.1367 60.172 67.2007 59.724 68.47L59.486 69.17L59.066 70.388H62.552ZM67.0523 74C66.903 74 66.7817 73.958 66.6883 73.874C66.6043 73.7807 66.5623 73.6593 66.5623 73.51V64.55C66.5623 64.3913 66.6043 64.27 66.6883 64.186C66.7817 64.102 66.903 64.06 67.0523 64.06H67.5563C67.715 64.06 67.8363 64.102 67.9203 64.186C68.0043 64.27 68.0463 64.3913 68.0463 64.55V73.51C68.0463 73.6593 68.0043 73.7807 67.9203 73.874C67.8363 73.958 67.715 74 67.5563 74H67.0523ZM74.7569 72.236C74.8783 72.1333 74.9949 72.082 75.1069 72.082C75.2189 72.082 75.3356 72.1427 75.4569 72.264L75.6529 72.474C75.7556 72.5953 75.8069 72.712 75.8069 72.824C75.8069 72.9453 75.7463 73.062 75.6249 73.174C75.1956 73.5473 74.7663 73.8133 74.3369 73.972C73.9169 74.1307 73.4503 74.21 72.9369 74.21C72.2183 74.21 71.5929 74.0607 71.0609 73.762C70.5383 73.4633 70.1323 73.0433 69.8429 72.502C69.5629 71.9513 69.4229 71.3167 69.4229 70.598C69.4229 69.8887 69.5583 69.254 69.8289 68.694C70.1089 68.1247 70.5009 67.6813 71.0049 67.364C71.5183 67.0467 72.1156 66.888 72.7969 66.888C73.8143 66.888 74.5983 67.1913 75.1489 67.798C75.6996 68.3953 75.9749 69.2213 75.9749 70.276V70.402C75.9656 70.5513 75.9189 70.668 75.8349 70.752C75.7509 70.836 75.6296 70.878 75.4709 70.878H70.8789C70.9349 71.494 71.1356 71.998 71.4809 72.39C71.8356 72.7727 72.3303 72.964 72.9649 72.964C73.3103 72.964 73.6136 72.9127 73.8749 72.81C74.1363 72.698 74.4303 72.5067 74.7569 72.236ZM72.7689 68.064C72.2556 68.064 71.8403 68.218 71.5229 68.526C71.2149 68.8247 71.0143 69.2493 70.9209 69.8H74.5189C74.4816 69.2587 74.3136 68.834 74.0149 68.526C73.7163 68.218 73.3009 68.064 72.7689 68.064ZM80.4425 67.028C80.6478 67.028 80.8578 67.0513 81.0725 67.098C81.3245 67.154 81.4505 67.3033 81.4505 67.546C81.4505 67.6113 81.4458 67.658 81.4365 67.686L81.3665 68.022C81.3105 68.2833 81.1705 68.414 80.9465 68.414L80.8205 68.4C80.6525 68.372 80.5031 68.358 80.3725 68.358C79.9058 68.358 79.5278 68.5447 79.2385 68.918C78.9585 69.282 78.8185 69.7907 78.8185 70.444V73.51C78.8185 73.6593 78.7765 73.7807 78.6925 73.874C78.6085 73.958 78.4871 74 78.3285 74H77.8245C77.6751 74 77.5538 73.958 77.4605 73.874C77.3765 73.7807 77.3345 73.6593 77.3345 73.51V67.588C77.3345 67.4293 77.3765 67.308 77.4605 67.224C77.5538 67.14 77.6751 67.098 77.8245 67.098H78.2305C78.3891 67.098 78.5105 67.14 78.5945 67.224C78.6785 67.308 78.7205 67.4293 78.7205 67.588V68.134C78.8885 67.7887 79.1171 67.518 79.4065 67.322C79.6958 67.126 80.0411 67.028 80.4425 67.028ZM86.0258 72.824C86.0538 72.8147 86.0958 72.81 86.1518 72.81C86.3852 72.81 86.5252 72.9453 86.5718 73.216L86.6138 73.44C86.6232 73.468 86.6278 73.5147 86.6278 73.58C86.6278 73.8133 86.4972 73.9627 86.2358 74.028C85.8625 74.112 85.5218 74.154 85.2138 74.154C84.5512 74.154 84.0705 74 83.7718 73.692C83.4825 73.384 83.3378 72.922 83.3378 72.306V68.232H82.5678C82.4185 68.232 82.2972 68.19 82.2038 68.106C82.1198 68.0127 82.0778 67.8913 82.0778 67.742V67.588C82.0778 67.4293 82.1198 67.308 82.2038 67.224C82.2972 67.14 82.4185 67.098 82.5678 67.098H83.3378V65.362C83.3378 65.2033 83.3798 65.082 83.4638 64.998C83.5572 64.914 83.6785 64.872 83.8278 64.872H84.3318C84.4905 64.872 84.6118 64.914 84.6958 64.998C84.7798 65.082 84.8218 65.2033 84.8218 65.362V67.098H86.0818C86.2405 67.098 86.3618 67.14 86.4458 67.224C86.5298 67.308 86.5718 67.4293 86.5718 67.588V67.742C86.5718 67.8913 86.5298 68.0127 86.4458 68.106C86.3618 68.19 86.2405 68.232 86.0818 68.232H84.8218V72.124C84.8218 72.3947 84.8778 72.586 84.9898 72.698C85.1112 72.81 85.3025 72.866 85.5638 72.866C85.6758 72.866 85.8298 72.852 86.0258 72.824ZM91.3163 70.626C91.167 70.626 91.0456 70.584 90.9523 70.5C90.8683 70.4067 90.8263 70.2853 90.8263 70.136V69.786C90.8263 69.6273 90.8683 69.506 90.9523 69.422C91.0456 69.338 91.167 69.296 91.3163 69.296H94.5223C94.681 69.296 94.8023 69.338 94.8863 69.422C94.9703 69.506 95.0123 69.6273 95.0123 69.786V70.136C95.0123 70.2853 94.9703 70.4067 94.8863 70.5C94.8023 70.584 94.681 70.626 94.5223 70.626H91.3163ZM100.47 74C100.321 74 100.2 73.958 100.106 73.874C100.022 73.7807 99.9803 73.6593 99.9803 73.51V64.55C99.9803 64.3913 100.022 64.27 100.106 64.186C100.2 64.102 100.321 64.06 100.47 64.06H106.28C106.439 64.06 106.56 64.102 106.644 64.186C106.728 64.27 106.77 64.3913 106.77 64.55V64.914C106.77 65.0633 106.728 65.1847 106.644 65.278C106.56 65.362 106.439 65.404 106.28 65.404H101.576V68.204H105.93C106.089 68.204 106.21 68.246 106.294 68.33C106.378 68.414 106.42 68.5353 106.42 68.694V69.058C106.42 69.2073 106.378 69.3287 106.294 69.422C106.21 69.506 106.089 69.548 105.93 69.548H101.576V72.656H106.42C106.579 72.656 106.7 72.698 106.784 72.782C106.868 72.866 106.91 72.9873 106.91 73.146V73.51C106.91 73.6593 106.868 73.7807 106.784 73.874C106.7 73.958 106.579 74 106.42 74H100.47ZM111.519 67.028C111.724 67.028 111.934 67.0513 112.149 67.098C112.401 67.154 112.527 67.3033 112.527 67.546C112.527 67.6113 112.522 67.658 112.513 67.686L112.443 68.022C112.387 68.2833 112.247 68.414 112.023 68.414L111.897 68.4C111.729 68.372 111.579 68.358 111.449 68.358C110.982 68.358 110.604 68.5447 110.315 68.918C110.035 69.282 109.895 69.7907 109.895 70.444V73.51C109.895 73.6593 109.853 73.7807 109.769 73.874C109.685 73.958 109.563 74 109.405 74H108.901C108.751 74 108.63 73.958 108.537 73.874C108.453 73.7807 108.411 73.6593 108.411 73.51V67.588C108.411 67.4293 108.453 67.308 108.537 67.224C108.63 67.14 108.751 67.098 108.901 67.098H109.307C109.465 67.098 109.587 67.14 109.671 67.224C109.755 67.308 109.797 67.4293 109.797 67.588V68.134C109.965 67.7887 110.193 67.518 110.483 67.322C110.772 67.126 111.117 67.028 111.519 67.028ZM116.714 67.028C116.919 67.028 117.129 67.0513 117.344 67.098C117.596 67.154 117.722 67.3033 117.722 67.546C117.722 67.6113 117.717 67.658 117.708 67.686L117.638 68.022C117.582 68.2833 117.442 68.414 117.218 68.414L117.092 68.4C116.924 68.372 116.775 68.358 116.644 68.358C116.177 68.358 115.799 68.5447 115.51 68.918C115.23 69.282 115.09 69.7907 115.09 70.444V73.51C115.09 73.6593 115.048 73.7807 114.964 73.874C114.88 73.958 114.759 74 114.6 74H114.096C113.947 74 113.825 73.958 113.732 73.874C113.648 73.7807 113.606 73.6593 113.606 73.51V67.588C113.606 67.4293 113.648 67.308 113.732 67.224C113.825 67.14 113.947 67.098 114.096 67.098H114.502C114.661 67.098 114.782 67.14 114.866 67.224C114.95 67.308 114.992 67.4293 114.992 67.588V68.134C115.16 67.7887 115.389 67.518 115.678 67.322C115.967 67.126 116.313 67.028 116.714 67.028ZM121.581 74.21C120.9 74.21 120.293 74.056 119.761 73.748C119.238 73.44 118.828 73.0107 118.529 72.46C118.23 71.9 118.081 71.2607 118.081 70.542C118.081 69.8233 118.23 69.1887 118.529 68.638C118.828 68.0873 119.238 67.658 119.761 67.35C120.293 67.042 120.9 66.888 121.581 66.888C122.253 66.888 122.855 67.042 123.387 67.35C123.919 67.658 124.334 68.092 124.633 68.652C124.932 69.2027 125.081 69.8327 125.081 70.542C125.081 71.2607 124.932 71.9 124.633 72.46C124.334 73.0107 123.919 73.44 123.387 73.748C122.855 74.056 122.253 74.21 121.581 74.21ZM121.581 72.964C122.178 72.964 122.659 72.7447 123.023 72.306C123.387 71.858 123.569 71.27 123.569 70.542C123.569 69.8233 123.387 69.2447 123.023 68.806C122.659 68.3673 122.178 68.148 121.581 68.148C120.984 68.148 120.503 68.3673 120.139 68.806C119.775 69.2447 119.593 69.8233 119.593 70.542C119.593 71.27 119.775 71.858 120.139 72.306C120.503 72.7447 120.984 72.964 121.581 72.964ZM129.497 67.028C129.702 67.028 129.912 67.0513 130.127 67.098C130.379 67.154 130.505 67.3033 130.505 67.546C130.505 67.6113 130.5 67.658 130.491 67.686L130.421 68.022C130.365 68.2833 130.225 68.414 130.001 68.414L129.875 68.4C129.707 68.372 129.558 68.358 129.427 68.358C128.96 68.358 128.582 68.5447 128.293 68.918C128.013 69.282 127.873 69.7907 127.873 70.444V73.51C127.873 73.6593 127.831 73.7807 127.747 73.874C127.663 73.958 127.542 74 127.383 74H126.879C126.73 74 126.608 73.958 126.515 73.874C126.431 73.7807 126.389 73.6593 126.389 73.51V67.588C126.389 67.4293 126.431 67.308 126.515 67.224C126.608 67.14 126.73 67.098 126.879 67.098H127.285C127.444 67.098 127.565 67.14 127.649 67.224C127.733 67.308 127.775 67.4293 127.775 67.588V68.134C127.943 67.7887 128.172 67.518 128.461 67.322C128.75 67.126 129.096 67.028 129.497 67.028Z" fill="#464646"/>
<path d="M60.76 100.196C59.5373 100.196 58.6273 99.9113 58.03 99.342C57.4327 98.7633 57.134 97.956 57.134 96.92V90.34C57.134 90.1533 57.2273 90.06 57.414 90.06H57.848C58.0347 90.06 58.128 90.1533 58.128 90.34V96.85C58.128 97.6713 58.352 98.292 58.8 98.712C59.2573 99.132 59.9107 99.342 60.76 99.342C61.628 99.342 62.286 99.132 62.734 98.712C63.182 98.292 63.406 97.6713 63.406 96.85V90.34C63.406 90.1533 63.4993 90.06 63.686 90.06H64.12C64.3067 90.06 64.4 90.1533 64.4 90.34V96.92C64.4 97.956 64.1013 98.7633 63.504 99.342C62.9067 99.9113 61.992 100.196 60.76 100.196ZM68.9596 100.182C68.3903 100.182 67.8863 100.103 67.4476 99.944C67.0183 99.776 66.5656 99.496 66.0896 99.104C66.0056 99.048 65.9636 98.9827 65.9636 98.908C65.9636 98.8427 65.9963 98.7773 66.0616 98.712L66.2436 98.516C66.2996 98.4413 66.3696 98.404 66.4536 98.404C66.519 98.404 66.5796 98.432 66.6356 98.488C67.0836 98.8333 67.4803 99.076 67.8256 99.216C68.171 99.3467 68.549 99.412 68.9596 99.412C69.473 99.412 69.893 99.3 70.2196 99.076C70.5463 98.8427 70.7096 98.53 70.7096 98.138C70.7096 97.746 70.5416 97.4567 70.2056 97.27C69.8696 97.0833 69.3516 96.9153 68.6516 96.766C68.0356 96.6353 67.5503 96.5 67.1956 96.36C66.8503 96.2107 66.5936 96.024 66.4256 95.8C66.2576 95.576 66.1736 95.282 66.1736 94.918C66.1736 94.3207 66.4163 93.84 66.9016 93.476C67.387 93.112 67.9983 92.93 68.7356 92.93C69.2396 92.93 69.6876 92.9953 70.0796 93.126C70.481 93.2473 70.8823 93.4527 71.2836 93.742C71.3676 93.8073 71.4096 93.8773 71.4096 93.952C71.4096 93.9987 71.3863 94.0593 71.3396 94.134L71.1716 94.344C71.125 94.4187 71.0596 94.456 70.9756 94.456C70.901 94.456 70.8356 94.4327 70.7796 94.386C70.397 94.1153 70.0563 93.9333 69.7576 93.84C69.4683 93.7467 69.137 93.7 68.7636 93.7C68.2503 93.7 67.8396 93.812 67.5316 94.036C67.2236 94.26 67.0696 94.5447 67.0696 94.89C67.0696 95.1047 67.1396 95.2773 67.2796 95.408C67.4196 95.5387 67.6203 95.6507 67.8816 95.744C68.143 95.828 68.5256 95.926 69.0296 96.038C69.963 96.2433 70.6256 96.4953 71.0176 96.794C71.419 97.0927 71.6196 97.5267 71.6196 98.096C71.6196 98.7213 71.3723 99.2253 70.8776 99.608C70.383 99.9907 69.7436 100.182 68.9596 100.182ZM78.2085 98.362C78.2738 98.2967 78.3438 98.264 78.4185 98.264C78.4838 98.264 78.5445 98.292 78.6005 98.348L78.7825 98.516C78.8478 98.5813 78.8805 98.6513 78.8805 98.726C78.8805 98.782 78.8525 98.8473 78.7965 98.922C78.3392 99.3793 77.8958 99.706 77.4665 99.902C77.0372 100.089 76.5565 100.182 76.0245 100.182C75.3525 100.182 74.7692 100.033 74.2745 99.734C73.7798 99.4353 73.3972 99.02 73.1265 98.488C72.8558 97.9467 72.7205 97.3213 72.7205 96.612C72.7205 95.8933 72.8512 95.2587 73.1125 94.708C73.3832 94.148 73.7612 93.714 74.2465 93.406C74.7318 93.0887 75.2918 92.93 75.9265 92.93C76.8692 92.93 77.6112 93.224 78.1525 93.812C78.6938 94.4 78.9645 95.1933 78.9645 96.192V96.36C78.9552 96.444 78.9225 96.5093 78.8665 96.556C78.8198 96.6027 78.7545 96.626 78.6705 96.626H73.6585C73.6865 97.41 73.8918 98.0727 74.2745 98.614C74.6665 99.146 75.2498 99.412 76.0245 99.412C76.4445 99.412 76.8132 99.3373 77.1305 99.188C77.4572 99.0293 77.8165 98.754 78.2085 98.362ZM75.9265 93.7C75.3105 93.7 74.8018 93.8913 74.4005 94.274C74.0085 94.6473 73.7705 95.198 73.6865 95.926H78.0405C78.0218 95.2447 77.8258 94.7033 77.4525 94.302C77.0792 93.9007 76.5705 93.7 75.9265 93.7ZM86.9545 99.23C86.9825 99.2207 87.0199 99.216 87.0665 99.216C87.1225 99.216 87.1739 99.2347 87.2205 99.272C87.2672 99.3093 87.2952 99.3607 87.3045 99.426L87.3465 99.622C87.3559 99.6407 87.3605 99.6733 87.3605 99.72C87.3605 99.8507 87.2905 99.93 87.1505 99.958C86.8145 100.061 86.4552 100.112 86.0725 100.112C85.4659 100.112 85.0319 99.9767 84.7705 99.706C84.5185 99.426 84.3925 99.0247 84.3925 98.502V93.798H83.3565C83.1699 93.798 83.0765 93.7047 83.0765 93.518V93.378C83.0765 93.1913 83.1699 93.098 83.3565 93.098H84.3925V90.97C84.3925 90.7833 84.4859 90.69 84.6725 90.69H85.0365C85.2232 90.69 85.3165 90.7833 85.3165 90.97V93.098H86.9965C87.1832 93.098 87.2765 93.1913 87.2765 93.378V93.518C87.2765 93.7047 87.1832 93.798 86.9965 93.798H85.3165V98.39C85.3165 98.7353 85.3819 98.978 85.5125 99.118C85.6432 99.258 85.8672 99.328 86.1845 99.328C86.4085 99.328 86.6652 99.2953 86.9545 99.23ZM91.7664 92.93C92.5691 92.93 93.1804 93.1587 93.6004 93.616C94.0204 94.064 94.2304 94.6193 94.2304 95.282V99.72C94.2304 99.9067 94.1371 100 93.9504 100H93.5864C93.3997 100 93.3064 99.9067 93.3064 99.72V95.59C93.3064 94.974 93.1571 94.5073 92.8584 94.19C92.5597 93.8727 92.1304 93.714 91.5704 93.714C91.2157 93.714 90.8891 93.8027 90.5904 93.98C90.2917 94.148 90.0537 94.3813 89.8764 94.68C89.6991 94.9787 89.6104 95.3053 89.6104 95.66V99.72C89.6104 99.9067 89.5171 100 89.3304 100H88.9664C88.7797 100 88.6864 99.9067 88.6864 99.72V90.34C88.6864 90.1533 88.7797 90.06 88.9664 90.06H89.3304C89.5171 90.06 89.6104 90.1533 89.6104 90.34V93.994C89.8344 93.6393 90.1331 93.3733 90.5064 93.196C90.8891 93.0187 91.3091 92.93 91.7664 92.93ZM96.7363 91.348C96.5496 91.348 96.3909 91.2827 96.2603 91.152C96.1389 91.0213 96.0783 90.8627 96.0783 90.676C96.0783 90.4893 96.1389 90.3353 96.2603 90.214C96.3909 90.0927 96.5496 90.032 96.7363 90.032C96.9323 90.032 97.0909 90.0927 97.2123 90.214C97.3429 90.3353 97.4083 90.4893 97.4083 90.676C97.4083 90.8627 97.3429 91.0213 97.2123 91.152C97.0909 91.2827 96.9323 91.348 96.7363 91.348ZM96.5543 100C96.3676 100 96.2743 99.9067 96.2743 99.72V93.378C96.2743 93.1913 96.3676 93.098 96.5543 93.098H96.9183C97.1049 93.098 97.1983 93.1913 97.1983 93.378V99.72C97.1983 99.9067 97.1049 100 96.9183 100H96.5543ZM101.663 100.182C101.093 100.182 100.589 100.103 100.151 99.944C99.7214 99.776 99.2688 99.496 98.7928 99.104C98.7088 99.048 98.6668 98.9827 98.6668 98.908C98.6668 98.8427 98.6994 98.7773 98.7648 98.712L98.9468 98.516C99.0028 98.4413 99.0728 98.404 99.1568 98.404C99.2221 98.404 99.2828 98.432 99.3388 98.488C99.7868 98.8333 100.183 99.076 100.529 99.216C100.874 99.3467 101.252 99.412 101.663 99.412C102.176 99.412 102.596 99.3 102.923 99.076C103.249 98.8427 103.413 98.53 103.413 98.138C103.413 97.746 103.245 97.4567 102.909 97.27C102.573 97.0833 102.055 96.9153 101.355 96.766C100.739 96.6353 100.253 96.5 99.8988 96.36C99.5534 96.2107 99.2968 96.024 99.1288 95.8C98.9608 95.576 98.8768 95.282 98.8768 94.918C98.8768 94.3207 99.1194 93.84 99.6048 93.476C100.09 93.112 100.701 92.93 101.439 92.93C101.943 92.93 102.391 92.9953 102.783 93.126C103.184 93.2473 103.585 93.4527 103.987 93.742C104.071 93.8073 104.113 93.8773 104.113 93.952C104.113 93.9987 104.089 94.0593 104.043 94.134L103.875 94.344C103.828 94.4187 103.763 94.456 103.679 94.456C103.604 94.456 103.539 94.4327 103.483 94.386C103.1 94.1153 102.759 93.9333 102.461 93.84C102.171 93.7467 101.84 93.7 101.467 93.7C100.953 93.7 100.543 93.812 100.235 94.036C99.9268 94.26 99.7728 94.5447 99.7728 94.89C99.7728 95.1047 99.8428 95.2773 99.9828 95.408C100.123 95.5387 100.323 95.6507 100.585 95.744C100.846 95.828 101.229 95.926 101.733 96.038C102.666 96.2433 103.329 96.4953 103.721 96.794C104.122 97.0927 104.323 97.5267 104.323 98.096C104.323 98.7213 104.075 99.2253 103.581 99.608C103.086 99.9907 102.447 100.182 101.663 100.182ZM113.368 93.322C113.424 93.1727 113.532 93.098 113.69 93.098H114.054C114.129 93.098 114.19 93.1167 114.236 93.154C114.283 93.1913 114.306 93.2427 114.306 93.308L114.278 93.42L112.052 99.776C111.996 99.9253 111.889 100 111.73 100H110.988C110.83 100 110.722 99.9253 110.666 99.776L108.454 93.42L108.426 93.308C108.426 93.2427 108.45 93.1913 108.496 93.154C108.543 93.1167 108.604 93.098 108.678 93.098H109.056C109.215 93.098 109.322 93.1727 109.378 93.322L110.232 95.786C110.587 96.8127 110.965 97.9933 111.366 99.328C111.385 99.272 111.436 99.1133 111.52 98.852C111.903 97.592 112.234 96.57 112.514 95.786L113.368 93.322ZM118.266 92.93C119.116 92.93 119.778 93.1353 120.254 93.546C120.73 93.9473 120.968 94.4793 120.968 95.142V99.72C120.968 99.9067 120.875 100 120.688 100H120.408C120.222 100 120.128 99.9067 120.128 99.72V99.09C119.895 99.4633 119.564 99.7433 119.134 99.93C118.714 100.117 118.243 100.21 117.72 100.21C116.992 100.21 116.4 100.056 115.942 99.748C115.485 99.44 115.256 98.964 115.256 98.32C115.256 97.8067 115.401 97.396 115.69 97.088C115.98 96.7707 116.358 96.5327 116.824 96.374C117.291 96.206 117.874 96.0567 118.574 95.926L120.086 95.66V95.212C120.086 94.736 119.923 94.3673 119.596 94.106C119.27 93.8353 118.84 93.7 118.308 93.7C117.907 93.7 117.543 93.7747 117.216 93.924C116.89 94.0733 116.54 94.33 116.166 94.694C116.101 94.7593 116.031 94.792 115.956 94.792C115.891 94.792 115.83 94.764 115.774 94.708L115.592 94.54C115.527 94.4747 115.494 94.4047 115.494 94.33C115.494 94.246 115.527 94.1713 115.592 94.106C115.984 93.6953 116.395 93.3967 116.824 93.21C117.263 93.0233 117.744 92.93 118.266 92.93ZM117.762 99.44C118.434 99.44 118.99 99.2627 119.428 98.908C119.867 98.5533 120.086 98.1007 120.086 97.55V96.374L118.784 96.626C118.178 96.7473 117.697 96.864 117.342 96.976C116.988 97.088 116.703 97.2513 116.488 97.466C116.274 97.6807 116.166 97.9607 116.166 98.306C116.166 98.6607 116.306 98.9407 116.586 99.146C116.876 99.342 117.268 99.44 117.762 99.44ZM125.592 93.042C125.826 93.042 126.101 93.0793 126.418 93.154C126.586 93.21 126.652 93.3267 126.614 93.504L126.558 93.728C126.512 93.9053 126.395 93.9707 126.208 93.924C125.984 93.868 125.779 93.84 125.592 93.84C125.116 93.84 124.72 94.0453 124.402 94.456C124.094 94.8667 123.94 95.436 123.94 96.164V99.72C123.94 99.9067 123.847 100 123.66 100H123.296C123.11 100 123.016 99.9067 123.016 99.72V93.378C123.016 93.1913 123.11 93.098 123.296 93.098H123.604C123.791 93.098 123.884 93.1913 123.884 93.378V94.148C124.043 93.8027 124.267 93.532 124.556 93.336C124.855 93.14 125.2 93.042 125.592 93.042ZM128.332 91.348C128.145 91.348 127.987 91.2827 127.856 91.152C127.735 91.0213 127.674 90.8627 127.674 90.676C127.674 90.4893 127.735 90.3353 127.856 90.214C127.987 90.0927 128.145 90.032 128.332 90.032C128.528 90.032 128.687 90.0927 128.808 90.214C128.939 90.3353 129.004 90.4893 129.004 90.676C129.004 90.8627 128.939 91.0213 128.808 91.152C128.687 91.2827 128.528 91.348 128.332 91.348ZM128.15 100C127.963 100 127.87 99.9067 127.87 99.72V93.378C127.87 93.1913 127.963 93.098 128.15 93.098H128.514C128.701 93.098 128.794 93.1913 128.794 93.378V99.72C128.794 99.9067 128.701 100 128.514 100H128.15ZM133.51 92.93C134.36 92.93 135.022 93.1353 135.498 93.546C135.974 93.9473 136.212 94.4793 136.212 95.142V99.72C136.212 99.9067 136.119 100 135.932 100H135.652C135.466 100 135.372 99.9067 135.372 99.72V99.09C135.139 99.4633 134.808 99.7433 134.378 99.93C133.958 100.117 133.487 100.21 132.964 100.21C132.236 100.21 131.644 100.056 131.186 99.748C130.729 99.44 130.5 98.964 130.5 98.32C130.5 97.8067 130.645 97.396 130.934 97.088C131.224 96.7707 131.602 96.5327 132.068 96.374C132.535 96.206 133.118 96.0567 133.818 95.926L135.33 95.66V95.212C135.33 94.736 135.167 94.3673 134.84 94.106C134.514 93.8353 134.084 93.7 133.552 93.7C133.151 93.7 132.787 93.7747 132.46 93.924C132.134 94.0733 131.784 94.33 131.41 94.694C131.345 94.7593 131.275 94.792 131.2 94.792C131.135 94.792 131.074 94.764 131.018 94.708L130.836 94.54C130.771 94.4747 130.738 94.4047 130.738 94.33C130.738 94.246 130.771 94.1713 130.836 94.106C131.228 93.6953 131.639 93.3967 132.068 93.21C132.507 93.0233 132.988 92.93 133.51 92.93ZM133.006 99.44C133.678 99.44 134.234 99.2627 134.672 98.908C135.111 98.5533 135.33 98.1007 135.33 97.55V96.374L134.028 96.626C133.422 96.7473 132.941 96.864 132.586 96.976C132.232 97.088 131.947 97.2513 131.732 97.466C131.518 97.6807 131.41 97.9607 131.41 98.306C131.41 98.6607 131.55 98.9407 131.83 99.146C132.12 99.342 132.512 99.44 133.006 99.44ZM141.341 92.93C142.153 92.93 142.764 93.154 143.175 93.602C143.595 94.05 143.805 94.61 143.805 95.282V99.72C143.805 99.9067 143.711 100 143.525 100H143.161C142.974 100 142.881 99.9067 142.881 99.72V95.59C142.881 94.974 142.731 94.5073 142.433 94.19C142.134 93.8727 141.705 93.714 141.145 93.714C140.79 93.714 140.463 93.8027 140.165 93.98C139.866 94.148 139.628 94.3813 139.451 94.68C139.273 94.9787 139.185 95.3053 139.185 95.66V99.72C139.185 99.9067 139.091 100 138.905 100H138.541C138.354 100 138.261 99.9067 138.261 99.72V93.378C138.261 93.1913 138.354 93.098 138.541 93.098H138.849C139.035 93.098 139.129 93.1913 139.129 93.378V94.05C139.362 93.6767 139.67 93.3967 140.053 93.21C140.435 93.0233 140.865 92.93 141.341 92.93ZM148.765 99.23C148.793 99.2207 148.83 99.216 148.877 99.216C148.933 99.216 148.984 99.2347 149.031 99.272C149.078 99.3093 149.106 99.3607 149.115 99.426L149.157 99.622C149.166 99.6407 149.171 99.6733 149.171 99.72C149.171 99.8507 149.101 99.93 148.961 99.958C148.625 100.061 148.266 100.112 147.883 100.112C147.276 100.112 146.842 99.9767 146.581 99.706C146.329 99.426 146.203 99.0247 146.203 98.502V93.798H145.167C144.98 93.798 144.887 93.7047 144.887 93.518V93.378C144.887 93.1913 144.98 93.098 145.167 93.098H146.203V90.97C146.203 90.7833 146.296 90.69 146.483 90.69H146.847C147.034 90.69 147.127 90.7833 147.127 90.97V93.098H148.807C148.994 93.098 149.087 93.1913 149.087 93.378V93.518C149.087 93.7047 148.994 93.798 148.807 93.798H147.127V98.39C147.127 98.7353 147.192 98.978 147.323 99.118C147.454 99.258 147.678 99.328 147.995 99.328C148.219 99.328 148.476 99.2953 148.765 99.23ZM156.832 99.23C156.86 99.2207 156.897 99.216 156.944 99.216C157 99.216 157.051 99.2347 157.098 99.272C157.144 99.3093 157.172 99.3607 157.182 99.426L157.224 99.622C157.233 99.6407 157.238 99.6733 157.238 99.72C157.238 99.8507 157.168 99.93 157.028 99.958C156.692 100.061 156.332 100.112 155.95 100.112C155.343 100.112 154.909 99.9767 154.648 99.706C154.396 99.426 154.27 99.0247 154.27 98.502V93.798H153.234C153.047 93.798 152.954 93.7047 152.954 93.518V93.378C152.954 93.1913 153.047 93.098 153.234 93.098H154.27V90.97C154.27 90.7833 154.363 90.69 154.55 90.69H154.914C155.1 90.69 155.194 90.7833 155.194 90.97V93.098H156.874C157.06 93.098 157.154 93.1913 157.154 93.378V93.518C157.154 93.7047 157.06 93.798 156.874 93.798H155.194V98.39C155.194 98.7353 155.259 98.978 155.39 99.118C155.52 99.258 155.744 99.328 156.062 99.328C156.286 99.328 156.542 99.2953 156.832 99.23ZM161.16 100.182C160.516 100.182 159.942 100.028 159.438 99.72C158.934 99.412 158.542 98.9873 158.262 98.446C157.982 97.8953 157.842 97.2653 157.842 96.556C157.842 95.8467 157.982 95.2213 158.262 94.68C158.542 94.1293 158.934 93.7 159.438 93.392C159.942 93.084 160.516 92.93 161.16 92.93C161.804 92.93 162.378 93.084 162.882 93.392C163.386 93.7 163.778 94.1293 164.058 94.68C164.338 95.2213 164.478 95.8467 164.478 96.556C164.478 97.2653 164.338 97.8953 164.058 98.446C163.778 98.9873 163.386 99.412 162.882 99.72C162.378 100.028 161.804 100.182 161.16 100.182ZM161.16 99.412C161.878 99.412 162.452 99.1507 162.882 98.628C163.311 98.096 163.526 97.4053 163.526 96.556C163.526 95.7067 163.311 95.0207 162.882 94.498C162.452 93.966 161.878 93.7 161.16 93.7C160.441 93.7 159.867 93.966 159.438 94.498C159.008 95.0207 158.794 95.7067 158.794 96.556C158.794 97.4053 159.008 98.096 159.438 98.628C159.867 99.1507 160.441 99.412 161.16 99.412ZM171.717 100.182C171.148 100.182 170.644 100.103 170.205 99.944C169.776 99.776 169.323 99.496 168.847 99.104C168.763 99.048 168.721 98.9827 168.721 98.908C168.721 98.8427 168.754 98.7773 168.819 98.712L169.001 98.516C169.057 98.4413 169.127 98.404 169.211 98.404C169.277 98.404 169.337 98.432 169.393 98.488C169.841 98.8333 170.238 99.076 170.583 99.216C170.929 99.3467 171.307 99.412 171.717 99.412C172.231 99.412 172.651 99.3 172.977 99.076C173.304 98.8427 173.467 98.53 173.467 98.138C173.467 97.746 173.299 97.4567 172.963 97.27C172.627 97.0833 172.109 96.9153 171.409 96.766C170.793 96.6353 170.308 96.5 169.953 96.36C169.608 96.2107 169.351 96.024 169.183 95.8C169.015 95.576 168.931 95.282 168.931 94.918C168.931 94.3207 169.174 93.84 169.659 93.476C170.145 93.112 170.756 92.93 171.493 92.93C171.997 92.93 172.445 92.9953 172.837 93.126C173.239 93.2473 173.64 93.4527 174.041 93.742C174.125 93.8073 174.167 93.8773 174.167 93.952C174.167 93.9987 174.144 94.0593 174.097 94.134L173.929 94.344C173.883 94.4187 173.817 94.456 173.733 94.456C173.659 94.456 173.593 94.4327 173.537 94.386C173.155 94.1153 172.814 93.9333 172.515 93.84C172.226 93.7467 171.895 93.7 171.521 93.7C171.008 93.7 170.597 93.812 170.289 94.036C169.981 94.26 169.827 94.5447 169.827 94.89C169.827 95.1047 169.897 95.2773 170.037 95.408C170.177 95.5387 170.378 95.6507 170.639 95.744C170.901 95.828 171.283 95.926 171.787 96.038C172.721 96.2433 173.383 96.4953 173.775 96.794C174.177 97.0927 174.377 97.5267 174.377 98.096C174.377 98.7213 174.13 99.2253 173.635 99.608C173.141 99.9907 172.501 100.182 171.717 100.182ZM179.02 92.93C179.823 92.93 180.434 93.1587 180.854 93.616C181.274 94.064 181.484 94.6193 181.484 95.282V99.72C181.484 99.9067 181.391 100 181.204 100H180.84C180.654 100 180.56 99.9067 180.56 99.72V95.59C180.56 94.974 180.411 94.5073 180.112 94.19C179.814 93.8727 179.384 93.714 178.824 93.714C178.47 93.714 178.143 93.8027 177.844 93.98C177.546 94.148 177.308 94.3813 177.13 94.68C176.953 94.9787 176.864 95.3053 176.864 95.66V99.72C176.864 99.9067 176.771 100 176.584 100H176.22C176.034 100 175.94 99.9067 175.94 99.72V90.34C175.94 90.1533 176.034 90.06 176.22 90.06H176.584C176.771 90.06 176.864 90.1533 176.864 90.34V93.994C177.088 93.6393 177.387 93.3733 177.76 93.196C178.143 93.0187 178.563 92.93 179.02 92.93ZM186.384 100.182C185.74 100.182 185.166 100.028 184.662 99.72C184.158 99.412 183.766 98.9873 183.486 98.446C183.206 97.8953 183.066 97.2653 183.066 96.556C183.066 95.8467 183.206 95.2213 183.486 94.68C183.766 94.1293 184.158 93.7 184.662 93.392C185.166 93.084 185.74 92.93 186.384 92.93C187.028 92.93 187.602 93.084 188.106 93.392C188.61 93.7 189.002 94.1293 189.282 94.68C189.562 95.2213 189.702 95.8467 189.702 96.556C189.702 97.2653 189.562 97.8953 189.282 98.446C189.002 98.9873 188.61 99.412 188.106 99.72C187.602 100.028 187.028 100.182 186.384 100.182ZM186.384 99.412C187.103 99.412 187.677 99.1507 188.106 98.628C188.536 98.096 188.75 97.4053 188.75 96.556C188.75 95.7067 188.536 95.0207 188.106 94.498C187.677 93.966 187.103 93.7 186.384 93.7C185.666 93.7 185.092 93.966 184.662 94.498C184.233 95.0207 184.018 95.7067 184.018 96.556C184.018 97.4053 184.233 98.096 184.662 98.628C185.092 99.1507 185.666 99.412 186.384 99.412ZM198.898 93.336C198.935 93.1773 199.043 93.098 199.22 93.098H199.598C199.701 93.098 199.771 93.126 199.808 93.182C199.855 93.238 199.864 93.3127 199.836 93.406L198.03 99.762C197.993 99.9207 197.885 100 197.708 100H197.078C196.919 100 196.817 99.9207 196.77 99.762L196.126 97.62C195.79 96.5 195.477 95.352 195.188 94.176C194.908 95.3147 194.6 96.472 194.264 97.648L193.648 99.762C193.611 99.9207 193.503 100 193.326 100H192.724C192.547 100 192.439 99.9207 192.402 99.762L190.596 93.406C190.587 93.3873 190.582 93.3547 190.582 93.308C190.582 93.2427 190.605 93.1913 190.652 93.154C190.699 93.1167 190.759 93.098 190.834 93.098H191.212C191.389 93.098 191.497 93.1773 191.534 93.336L192.206 95.814C192.514 96.9433 192.799 98.068 193.06 99.188C193.265 98.3573 193.569 97.2327 193.97 95.814L194.684 93.336C194.721 93.1773 194.829 93.098 195.006 93.098H195.426C195.594 93.098 195.697 93.1773 195.734 93.336L196.462 95.814C196.779 96.962 197.078 98.0913 197.358 99.202C197.573 98.2687 197.862 97.1393 198.226 95.814L198.898 93.336ZM207.188 92.93C208.038 92.93 208.7 93.1353 209.176 93.546C209.652 93.9473 209.89 94.4793 209.89 95.142V99.72C209.89 99.9067 209.797 100 209.61 100H209.33C209.144 100 209.05 99.9067 209.05 99.72V99.09C208.817 99.4633 208.486 99.7433 208.056 99.93C207.636 100.117 207.165 100.21 206.642 100.21C205.914 100.21 205.322 100.056 204.864 99.748C204.407 99.44 204.178 98.964 204.178 98.32C204.178 97.8067 204.323 97.396 204.612 97.088C204.902 96.7707 205.28 96.5327 205.746 96.374C206.213 96.206 206.796 96.0567 207.496 95.926L209.008 95.66V95.212C209.008 94.736 208.845 94.3673 208.518 94.106C208.192 93.8353 207.762 93.7 207.23 93.7C206.829 93.7 206.465 93.7747 206.138 93.924C205.812 94.0733 205.462 94.33 205.088 94.694C205.023 94.7593 204.953 94.792 204.878 94.792C204.813 94.792 204.752 94.764 204.696 94.708L204.514 94.54C204.449 94.4747 204.416 94.4047 204.416 94.33C204.416 94.246 204.449 94.1713 204.514 94.106C204.906 93.6953 205.317 93.3967 205.746 93.21C206.185 93.0233 206.666 92.93 207.188 92.93ZM206.684 99.44C207.356 99.44 207.912 99.2627 208.35 98.908C208.789 98.5533 209.008 98.1007 209.008 97.55V96.374L207.706 96.626C207.1 96.7473 206.619 96.864 206.264 96.976C205.91 97.088 205.625 97.2513 205.41 97.466C205.196 97.6807 205.088 97.9607 205.088 98.306C205.088 98.6607 205.228 98.9407 205.508 99.146C205.798 99.342 206.19 99.44 206.684 99.44ZM215.018 92.93C215.83 92.93 216.442 93.154 216.852 93.602C217.272 94.05 217.482 94.61 217.482 95.282V99.72C217.482 99.9067 217.389 100 217.202 100H216.838C216.652 100 216.558 99.9067 216.558 99.72V95.59C216.558 94.974 216.409 94.5073 216.11 94.19C215.812 93.8727 215.382 93.714 214.822 93.714C214.468 93.714 214.141 93.8027 213.842 93.98C213.544 94.148 213.306 94.3813 213.128 94.68C212.951 94.9787 212.862 95.3053 212.862 95.66V99.72C212.862 99.9067 212.769 100 212.582 100H212.218C212.032 100 211.938 99.9067 211.938 99.72V93.378C211.938 93.1913 212.032 93.098 212.218 93.098H212.526C212.713 93.098 212.806 93.1913 212.806 93.378V94.05C213.04 93.6767 213.348 93.3967 213.73 93.21C214.113 93.0233 214.542 92.93 215.018 92.93ZM227.779 98.362C227.844 98.2967 227.914 98.264 227.989 98.264C228.054 98.264 228.115 98.292 228.171 98.348L228.353 98.516C228.418 98.5813 228.451 98.6513 228.451 98.726C228.451 98.782 228.423 98.8473 228.367 98.922C227.909 99.3793 227.466 99.706 227.037 99.902C226.607 100.089 226.127 100.182 225.595 100.182C224.923 100.182 224.339 100.033 223.845 99.734C223.35 99.4353 222.967 99.02 222.697 98.488C222.426 97.9467 222.291 97.3213 222.291 96.612C222.291 95.8933 222.421 95.2587 222.683 94.708C222.953 94.148 223.331 93.714 223.817 93.406C224.302 93.0887 224.862 92.93 225.497 92.93C226.439 92.93 227.181 93.224 227.723 93.812C228.264 94.4 228.535 95.1933 228.535 96.192V96.36C228.525 96.444 228.493 96.5093 228.437 96.556C228.39 96.6027 228.325 96.626 228.241 96.626H223.229C223.257 97.41 223.462 98.0727 223.845 98.614C224.237 99.146 224.82 99.412 225.595 99.412C226.015 99.412 226.383 99.3373 226.701 99.188C227.027 99.0293 227.387 98.754 227.779 98.362ZM225.497 93.7C224.881 93.7 224.372 93.8913 223.971 94.274C223.579 94.6473 223.341 95.198 223.257 95.926H227.611C227.592 95.2447 227.396 94.7033 227.023 94.302C226.649 93.9007 226.141 93.7 225.497 93.7ZM232.766 93.042C233 93.042 233.275 93.0793 233.592 93.154C233.76 93.21 233.826 93.3267 233.788 93.504L233.732 93.728C233.686 93.9053 233.569 93.9707 233.382 93.924C233.158 93.868 232.953 93.84 232.766 93.84C232.29 93.84 231.894 94.0453 231.576 94.456C231.268 94.8667 231.114 95.436 231.114 96.164V99.72C231.114 99.9067 231.021 100 230.834 100H230.47C230.284 100 230.19 99.9067 230.19 99.72V93.378C230.19 93.1913 230.284 93.098 230.47 93.098H230.778C230.965 93.098 231.058 93.1913 231.058 93.378V94.148C231.217 93.8027 231.441 93.532 231.73 93.336C232.029 93.14 232.374 93.042 232.766 93.042ZM237.62 93.042C237.853 93.042 238.128 93.0793 238.446 93.154C238.614 93.21 238.679 93.3267 238.642 93.504L238.586 93.728C238.539 93.9053 238.422 93.9707 238.236 93.924C238.012 93.868 237.806 93.84 237.62 93.84C237.144 93.84 236.747 94.0453 236.43 94.456C236.122 94.8667 235.968 95.436 235.968 96.164V99.72C235.968 99.9067 235.874 100 235.688 100H235.324C235.137 100 235.044 99.9067 235.044 99.72V93.378C235.044 93.1913 235.137 93.098 235.324 93.098H235.632C235.818 93.098 235.912 93.1913 235.912 93.378V94.148C236.07 93.8027 236.294 93.532 236.584 93.336C236.882 93.14 237.228 93.042 237.62 93.042ZM242.371 100.182C241.727 100.182 241.153 100.028 240.649 99.72C240.145 99.412 239.753 98.9873 239.473 98.446C239.193 97.8953 239.053 97.2653 239.053 96.556C239.053 95.8467 239.193 95.2213 239.473 94.68C239.753 94.1293 240.145 93.7 240.649 93.392C241.153 93.084 241.727 92.93 242.371 92.93C243.015 92.93 243.589 93.084 244.093 93.392C244.597 93.7 244.989 94.1293 245.269 94.68C245.549 95.2213 245.689 95.8467 245.689 96.556C245.689 97.2653 245.549 97.8953 245.269 98.446C244.989 98.9873 244.597 99.412 244.093 99.72C243.589 100.028 243.015 100.182 242.371 100.182ZM242.371 99.412C243.089 99.412 243.663 99.1507 244.093 98.628C244.522 98.096 244.737 97.4053 244.737 96.556C244.737 95.7067 244.522 95.0207 244.093 94.498C243.663 93.966 243.089 93.7 242.371 93.7C241.652 93.7 241.078 93.966 240.649 94.498C240.219 95.0207 240.005 95.7067 240.005 96.556C240.005 97.4053 240.219 98.096 240.649 98.628C241.078 99.1507 241.652 99.412 242.371 99.412ZM249.87 93.042C250.103 93.042 250.378 93.0793 250.696 93.154C250.864 93.21 250.929 93.3267 250.892 93.504L250.836 93.728C250.789 93.9053 250.672 93.9707 250.486 93.924C250.262 93.868 250.056 93.84 249.87 93.84C249.394 93.84 248.997 94.0453 248.68 94.456C248.372 94.8667 248.218 95.436 248.218 96.164V99.72C248.218 99.9067 248.124 100 247.938 100H247.574C247.387 100 247.294 99.9067 247.294 99.72V93.378C247.294 93.1913 247.387 93.098 247.574 93.098H247.882C248.068 93.098 248.162 93.1913 248.162 93.378V94.148C248.32 93.8027 248.544 93.532 248.834 93.336C249.132 93.14 249.478 93.042 249.87 93.042ZM258.23 100.182C257.586 100.182 257.012 100.028 256.508 99.72C256.004 99.412 255.612 98.9873 255.332 98.446C255.052 97.8953 254.912 97.2653 254.912 96.556C254.912 95.8467 255.052 95.2213 255.332 94.68C255.612 94.1293 256.004 93.7 256.508 93.392C257.012 93.084 257.586 92.93 258.23 92.93C258.874 92.93 259.448 93.084 259.952 93.392C260.456 93.7 260.848 94.1293 261.128 94.68C261.408 95.2213 261.548 95.8467 261.548 96.556C261.548 97.2653 261.408 97.8953 261.128 98.446C260.848 98.9873 260.456 99.412 259.952 99.72C259.448 100.028 258.874 100.182 258.23 100.182ZM258.23 99.412C258.949 99.412 259.523 99.1507 259.952 98.628C260.381 98.096 260.596 97.4053 260.596 96.556C260.596 95.7067 260.381 95.0207 259.952 94.498C259.523 93.966 258.949 93.7 258.23 93.7C257.511 93.7 256.937 93.966 256.508 94.498C256.079 95.0207 255.864 95.7067 255.864 96.556C255.864 97.4053 256.079 98.096 256.508 98.628C256.937 99.1507 257.511 99.412 258.23 99.412ZM265.729 93.042C265.963 93.042 266.238 93.0793 266.555 93.154C266.723 93.21 266.789 93.3267 266.751 93.504L266.695 93.728C266.649 93.9053 266.532 93.9707 266.345 93.924C266.121 93.868 265.916 93.84 265.729 93.84C265.253 93.84 264.857 94.0453 264.539 94.456C264.231 94.8667 264.077 95.436 264.077 96.164V99.72C264.077 99.9067 263.984 100 263.797 100H263.433C263.247 100 263.153 99.9067 263.153 99.72V93.378C263.153 93.1913 263.247 93.098 263.433 93.098H263.741C263.928 93.098 264.021 93.1913 264.021 93.378V94.148C264.18 93.8027 264.404 93.532 264.693 93.336C264.992 93.14 265.337 93.042 265.729 93.042ZM273.893 92.93C274.743 92.93 275.405 93.1353 275.881 93.546C276.357 93.9473 276.595 94.4793 276.595 95.142V99.72C276.595 99.9067 276.502 100 276.315 100H276.035C275.849 100 275.755 99.9067 275.755 99.72V99.09C275.522 99.4633 275.191 99.7433 274.761 99.93C274.341 100.117 273.87 100.21 273.347 100.21C272.619 100.21 272.027 100.056 271.569 99.748C271.112 99.44 270.883 98.964 270.883 98.32C270.883 97.8067 271.028 97.396 271.317 97.088C271.607 96.7707 271.985 96.5327 272.451 96.374C272.918 96.206 273.501 96.0567 274.201 95.926L275.713 95.66V95.212C275.713 94.736 275.55 94.3673 275.223 94.106C274.897 93.8353 274.467 93.7 273.935 93.7C273.534 93.7 273.17 93.7747 272.843 93.924C272.517 94.0733 272.167 94.33 271.793 94.694C271.728 94.7593 271.658 94.792 271.583 94.792C271.518 94.792 271.457 94.764 271.401 94.708L271.219 94.54C271.154 94.4747 271.121 94.4047 271.121 94.33C271.121 94.246 271.154 94.1713 271.219 94.106C271.611 93.6953 272.022 93.3967 272.451 93.21C272.89 93.0233 273.371 92.93 273.893 92.93ZM273.389 99.44C274.061 99.44 274.617 99.2627 275.055 98.908C275.494 98.5533 275.713 98.1007 275.713 97.55V96.374L274.411 96.626C273.805 96.7473 273.324 96.864 272.969 96.976C272.615 97.088 272.33 97.2513 272.115 97.466C271.901 97.6807 271.793 97.9607 271.793 98.306C271.793 98.6607 271.933 98.9407 272.213 99.146C272.503 99.342 272.895 99.44 273.389 99.44ZM59.668 108.662C59.248 108.662 58.9493 108.774 58.772 108.998C58.5947 109.213 58.506 109.577 58.506 110.09V111.098H60.046C60.2327 111.098 60.326 111.191 60.326 111.378V111.518C60.326 111.705 60.2327 111.798 60.046 111.798H58.506V117.72C58.506 117.907 58.4127 118 58.226 118H57.862C57.6753 118 57.582 117.907 57.582 117.72V111.798H56.546C56.3593 111.798 56.266 111.705 56.266 111.518V111.378C56.266 111.191 56.3593 111.098 56.546 111.098H57.582V109.936C57.582 109.292 57.75 108.788 58.086 108.424C58.4313 108.06 58.9213 107.878 59.556 107.878C59.9107 107.878 60.2747 107.929 60.648 108.032C60.8253 108.088 60.8907 108.205 60.844 108.382L60.788 108.578C60.7413 108.709 60.648 108.774 60.508 108.774C60.48 108.774 60.4193 108.765 60.326 108.746C60.1207 108.69 59.9013 108.662 59.668 108.662ZM64.071 110.93C64.9203 110.93 65.583 111.135 66.059 111.546C66.535 111.947 66.773 112.479 66.773 113.142V117.72C66.773 117.907 66.6797 118 66.493 118H66.213C66.0263 118 65.933 117.907 65.933 117.72V117.09C65.6997 117.463 65.3683 117.743 64.939 117.93C64.519 118.117 64.0477 118.21 63.525 118.21C62.797 118.21 62.2043 118.056 61.747 117.748C61.2897 117.44 61.061 116.964 61.061 116.32C61.061 115.807 61.2057 115.396 61.495 115.088C61.7843 114.771 62.1623 114.533 62.629 114.374C63.0957 114.206 63.679 114.057 64.379 113.926L65.891 113.66V113.212C65.891 112.736 65.7277 112.367 65.401 112.106C65.0743 111.835 64.645 111.7 64.113 111.7C63.7117 111.7 63.3477 111.775 63.021 111.924C62.6943 112.073 62.3443 112.33 61.971 112.694C61.9057 112.759 61.8357 112.792 61.761 112.792C61.6957 112.792 61.635 112.764 61.579 112.708L61.397 112.54C61.3317 112.475 61.299 112.405 61.299 112.33C61.299 112.246 61.3317 112.171 61.397 112.106C61.789 111.695 62.1997 111.397 62.629 111.21C63.0677 111.023 63.5483 110.93 64.071 110.93ZM63.567 117.44C64.239 117.44 64.7943 117.263 65.233 116.908C65.6717 116.553 65.891 116.101 65.891 115.55V114.374L64.589 114.626C63.9823 114.747 63.5017 114.864 63.147 114.976C62.7923 115.088 62.5077 115.251 62.293 115.466C62.0783 115.681 61.971 115.961 61.971 116.306C61.971 116.661 62.111 116.941 62.391 117.146C62.6803 117.342 63.0723 117.44 63.567 117.44ZM69.2832 109.348C69.0965 109.348 68.9378 109.283 68.8072 109.152C68.6858 109.021 68.6252 108.863 68.6252 108.676C68.6252 108.489 68.6858 108.335 68.8072 108.214C68.9378 108.093 69.0965 108.032 69.2832 108.032C69.4792 108.032 69.6378 108.093 69.7592 108.214C69.8898 108.335 69.9552 108.489 69.9552 108.676C69.9552 108.863 69.8898 109.021 69.7592 109.152C69.6378 109.283 69.4792 109.348 69.2832 109.348ZM69.1012 118C68.9145 118 68.8212 117.907 68.8212 117.72V111.378C68.8212 111.191 68.9145 111.098 69.1012 111.098H69.4652C69.6518 111.098 69.7452 111.191 69.7452 111.378V117.72C69.7452 117.907 69.6518 118 69.4652 118H69.1012ZM72.0956 118C71.909 118 71.8156 117.907 71.8156 117.72V108.34C71.8156 108.153 71.909 108.06 72.0956 108.06H72.4596C72.6463 108.06 72.7396 108.153 72.7396 108.34V117.72C72.7396 117.907 72.6463 118 72.4596 118H72.0956ZM79.3031 111.378C79.3031 111.191 79.3964 111.098 79.5831 111.098H79.9471C80.1338 111.098 80.2271 111.191 80.2271 111.378V117.72C80.2271 117.907 80.1338 118 79.9471 118H79.6531C79.4664 118 79.3731 117.907 79.3731 117.72V117.09C79.1678 117.454 78.8738 117.729 78.4911 117.916C78.1178 118.093 77.7071 118.182 77.2591 118.182C76.4191 118.182 75.7984 117.972 75.3971 117.552C74.9958 117.123 74.7951 116.572 74.7951 115.9V111.378C74.7951 111.191 74.8884 111.098 75.0751 111.098H75.4391C75.6258 111.098 75.7191 111.191 75.7191 111.378V115.704C75.7191 116.255 75.8544 116.675 76.1251 116.964C76.4051 117.244 76.8018 117.384 77.3151 117.384C77.8938 117.384 78.3698 117.207 78.7431 116.852C79.1164 116.497 79.3031 115.993 79.3031 115.34V111.378ZM84.8776 111.042C85.111 111.042 85.3863 111.079 85.7036 111.154C85.8716 111.21 85.937 111.327 85.8996 111.504L85.8436 111.728C85.797 111.905 85.6803 111.971 85.4936 111.924C85.2696 111.868 85.0643 111.84 84.8776 111.84C84.4016 111.84 84.005 112.045 83.6876 112.456C83.3796 112.867 83.2256 113.436 83.2256 114.164V117.72C83.2256 117.907 83.1323 118 82.9456 118H82.5816C82.395 118 82.3016 117.907 82.3016 117.72V111.378C82.3016 111.191 82.395 111.098 82.5816 111.098H82.8896C83.0763 111.098 83.1696 111.191 83.1696 111.378V112.148C83.3283 111.803 83.5523 111.532 83.8416 111.336C84.1403 111.14 84.4856 111.042 84.8776 111.042ZM91.7983 116.362C91.8637 116.297 91.9337 116.264 92.0083 116.264C92.0737 116.264 92.1343 116.292 92.1903 116.348L92.3723 116.516C92.4377 116.581 92.4703 116.651 92.4703 116.726C92.4703 116.782 92.4423 116.847 92.3863 116.922C91.929 117.379 91.4857 117.706 91.0563 117.902C90.627 118.089 90.1463 118.182 89.6143 118.182C88.9423 118.182 88.359 118.033 87.8643 117.734C87.3697 117.435 86.987 117.02 86.7163 116.488C86.4457 115.947 86.3103 115.321 86.3103 114.612C86.3103 113.893 86.441 113.259 86.7023 112.708C86.973 112.148 87.351 111.714 87.8363 111.406C88.3217 111.089 88.8817 110.93 89.5163 110.93C90.459 110.93 91.201 111.224 91.7423 111.812C92.2837 112.4 92.5543 113.193 92.5543 114.192V114.36C92.545 114.444 92.5123 114.509 92.4563 114.556C92.4097 114.603 92.3443 114.626 92.2603 114.626H87.2483C87.2763 115.41 87.4817 116.073 87.8643 116.614C88.2563 117.146 88.8397 117.412 89.6143 117.412C90.0343 117.412 90.403 117.337 90.7203 117.188C91.047 117.029 91.4063 116.754 91.7983 116.362ZM89.5163 111.7C88.9003 111.7 88.3917 111.891 87.9903 112.274C87.5983 112.647 87.3603 113.198 87.2763 113.926H91.6303C91.6117 113.245 91.4157 112.703 91.0423 112.302C90.669 111.901 90.1603 111.7 89.5163 111.7ZM94.5878 116.67C94.8398 116.67 95.0452 116.768 95.2038 116.964C95.3718 117.151 95.4558 117.435 95.4558 117.818C95.4558 118.201 95.3438 118.574 95.1198 118.938C94.9052 119.311 94.6065 119.549 94.2238 119.652L94.1538 119.666C94.0792 119.666 94.0185 119.638 93.9718 119.582C93.9345 119.535 93.9158 119.47 93.9158 119.386C93.9158 119.33 93.9345 119.283 93.9718 119.246C94.0092 119.218 94.0652 119.185 94.1398 119.148C94.3265 119.064 94.4852 118.924 94.6158 118.728C94.7465 118.532 94.8212 118.308 94.8398 118.056C94.7558 118.084 94.6672 118.098 94.5738 118.098C94.3778 118.098 94.2098 118.033 94.0698 117.902C93.9392 117.771 93.8738 117.603 93.8738 117.398C93.8738 117.193 93.9438 117.02 94.0838 116.88C94.2238 116.74 94.3918 116.67 94.5878 116.67ZM102.986 118.182C102.342 118.182 101.768 118.028 101.264 117.72C100.76 117.412 100.368 116.987 100.088 116.446C99.8078 115.895 99.6678 115.265 99.6678 114.556C99.6678 113.847 99.8078 113.221 100.088 112.68C100.368 112.129 100.76 111.7 101.264 111.392C101.768 111.084 102.342 110.93 102.986 110.93C103.63 110.93 104.204 111.084 104.708 111.392C105.212 111.7 105.604 112.129 105.884 112.68C106.164 113.221 106.304 113.847 106.304 114.556C106.304 115.265 106.164 115.895 105.884 116.446C105.604 116.987 105.212 117.412 104.708 117.72C104.204 118.028 103.63 118.182 102.986 118.182ZM102.986 117.412C103.704 117.412 104.278 117.151 104.708 116.628C105.137 116.096 105.352 115.405 105.352 114.556C105.352 113.707 105.137 113.021 104.708 112.498C104.278 111.966 103.704 111.7 102.986 111.7C102.267 111.7 101.693 111.966 101.264 112.498C100.834 113.021 100.62 113.707 100.62 114.556C100.62 115.405 100.834 116.096 101.264 116.628C101.693 117.151 102.267 117.412 102.986 117.412ZM110.485 111.042C110.718 111.042 110.994 111.079 111.311 111.154C111.479 111.21 111.544 111.327 111.507 111.504L111.451 111.728C111.404 111.905 111.288 111.971 111.101 111.924C110.877 111.868 110.672 111.84 110.485 111.84C110.009 111.84 109.612 112.045 109.295 112.456C108.987 112.867 108.833 113.436 108.833 114.164V117.72C108.833 117.907 108.74 118 108.553 118H108.189C108.002 118 107.909 117.907 107.909 117.72V111.378C107.909 111.191 108.002 111.098 108.189 111.098H108.497C108.684 111.098 108.777 111.191 108.777 111.378V112.148C108.936 111.803 109.16 111.532 109.449 111.336C109.748 111.14 110.093 111.042 110.485 111.042ZM118.397 118.182C117.828 118.182 117.324 118.103 116.885 117.944C116.456 117.776 116.003 117.496 115.527 117.104C115.443 117.048 115.401 116.983 115.401 116.908C115.401 116.843 115.434 116.777 115.499 116.712L115.681 116.516C115.737 116.441 115.807 116.404 115.891 116.404C115.956 116.404 116.017 116.432 116.073 116.488C116.521 116.833 116.918 117.076 117.263 117.216C117.608 117.347 117.986 117.412 118.397 117.412C118.91 117.412 119.33 117.3 119.657 117.076C119.984 116.843 120.147 116.53 120.147 116.138C120.147 115.746 119.979 115.457 119.643 115.27C119.307 115.083 118.789 114.915 118.089 114.766C117.473 114.635 116.988 114.5 116.633 114.36C116.288 114.211 116.031 114.024 115.863 113.8C115.695 113.576 115.611 113.282 115.611 112.918C115.611 112.321 115.854 111.84 116.339 111.476C116.824 111.112 117.436 110.93 118.173 110.93C118.677 110.93 119.125 110.995 119.517 111.126C119.918 111.247 120.32 111.453 120.721 111.742C120.805 111.807 120.847 111.877 120.847 111.952C120.847 111.999 120.824 112.059 120.777 112.134L120.609 112.344C120.562 112.419 120.497 112.456 120.413 112.456C120.338 112.456 120.273 112.433 120.217 112.386C119.834 112.115 119.494 111.933 119.195 111.84C118.906 111.747 118.574 111.7 118.201 111.7C117.688 111.7 117.277 111.812 116.969 112.036C116.661 112.26 116.507 112.545 116.507 112.89C116.507 113.105 116.577 113.277 116.717 113.408C116.857 113.539 117.058 113.651 117.319 113.744C117.58 113.828 117.963 113.926 118.467 114.038C119.4 114.243 120.063 114.495 120.455 114.794C120.856 115.093 121.057 115.527 121.057 116.096C121.057 116.721 120.81 117.225 120.315 117.608C119.82 117.991 119.181 118.182 118.397 118.182ZM125.476 118.182C124.832 118.182 124.258 118.028 123.754 117.72C123.25 117.412 122.858 116.987 122.578 116.446C122.298 115.895 122.158 115.265 122.158 114.556C122.158 113.847 122.298 113.221 122.578 112.68C122.858 112.129 123.25 111.7 123.754 111.392C124.258 111.084 124.832 110.93 125.476 110.93C126.12 110.93 126.694 111.084 127.198 111.392C127.702 111.7 128.094 112.129 128.374 112.68C128.654 113.221 128.794 113.847 128.794 114.556C128.794 115.265 128.654 115.895 128.374 116.446C128.094 116.987 127.702 117.412 127.198 117.72C126.694 118.028 126.12 118.182 125.476 118.182ZM125.476 117.412C126.195 117.412 126.769 117.151 127.198 116.628C127.627 116.096 127.842 115.405 127.842 114.556C127.842 113.707 127.627 113.021 127.198 112.498C126.769 111.966 126.195 111.7 125.476 111.7C124.757 111.7 124.183 111.966 123.754 112.498C123.325 113.021 123.11 113.707 123.11 114.556C123.11 115.405 123.325 116.096 123.754 116.628C124.183 117.151 124.757 117.412 125.476 117.412ZM137.413 110.93C138.16 110.93 138.729 111.145 139.121 111.574C139.523 111.994 139.723 112.535 139.723 113.198V117.72C139.723 117.907 139.63 118 139.443 118H139.079C138.893 118 138.799 117.907 138.799 117.72V113.45C138.799 112.89 138.669 112.461 138.407 112.162C138.155 111.863 137.777 111.714 137.273 111.714C136.741 111.714 136.317 111.891 135.999 112.246C135.682 112.601 135.523 113.058 135.523 113.618V117.72C135.523 117.907 135.43 118 135.243 118H134.879C134.693 118 134.599 117.907 134.599 117.72V113.45C134.599 112.89 134.469 112.461 134.207 112.162C133.955 111.863 133.573 111.714 133.059 111.714C132.583 111.714 132.187 111.863 131.869 112.162C131.561 112.461 131.379 112.853 131.323 113.338V117.72C131.323 117.907 131.23 118 131.043 118H130.679C130.493 118 130.399 117.907 130.399 117.72V111.378C130.399 111.191 130.493 111.098 130.679 111.098H130.987C131.174 111.098 131.267 111.191 131.267 111.378V111.952C131.687 111.271 132.355 110.93 133.269 110.93C133.745 110.93 134.151 111.037 134.487 111.252C134.833 111.457 135.089 111.737 135.257 112.092C135.752 111.317 136.471 110.93 137.413 110.93ZM146.787 116.362C146.852 116.297 146.922 116.264 146.997 116.264C147.062 116.264 147.123 116.292 147.179 116.348L147.361 116.516C147.426 116.581 147.459 116.651 147.459 116.726C147.459 116.782 147.431 116.847 147.375 116.922C146.917 117.379 146.474 117.706 146.045 117.902C145.615 118.089 145.135 118.182 144.603 118.182C143.931 118.182 143.347 118.033 142.853 117.734C142.358 117.435 141.975 117.02 141.705 116.488C141.434 115.947 141.299 115.321 141.299 114.612C141.299 113.893 141.429 113.259 141.691 112.708C141.961 112.148 142.339 111.714 142.825 111.406C143.31 111.089 143.87 110.93 144.505 110.93C145.447 110.93 146.189 111.224 146.731 111.812C147.272 112.4 147.543 113.193 147.543 114.192V114.36C147.533 114.444 147.501 114.509 147.445 114.556C147.398 114.603 147.333 114.626 147.249 114.626H142.237C142.265 115.41 142.47 116.073 142.853 116.614C143.245 117.146 143.828 117.412 144.603 117.412C145.023 117.412 145.391 117.337 145.709 117.188C146.035 117.029 146.395 116.754 146.787 116.362ZM144.505 111.7C143.889 111.7 143.38 111.891 142.979 112.274C142.587 112.647 142.349 113.198 142.265 113.926H146.619C146.6 113.245 146.404 112.703 146.031 112.302C145.657 111.901 145.149 111.7 144.505 111.7ZM152.238 117.23C152.266 117.221 152.303 117.216 152.35 117.216C152.406 117.216 152.457 117.235 152.504 117.272C152.55 117.309 152.578 117.361 152.588 117.426L152.63 117.622C152.639 117.641 152.644 117.673 152.644 117.72C152.644 117.851 152.574 117.93 152.434 117.958C152.098 118.061 151.738 118.112 151.356 118.112C150.749 118.112 150.315 117.977 150.054 117.706C149.802 117.426 149.676 117.025 149.676 116.502V111.798H148.64C148.453 111.798 148.36 111.705 148.36 111.518V111.378C148.36 111.191 148.453 111.098 148.64 111.098H149.676V108.97C149.676 108.783 149.769 108.69 149.956 108.69H150.32C150.506 108.69 150.6 108.783 150.6 108.97V111.098H152.28C152.466 111.098 152.56 111.191 152.56 111.378V111.518C152.56 111.705 152.466 111.798 152.28 111.798H150.6V116.39C150.6 116.735 150.665 116.978 150.796 117.118C150.926 117.258 151.15 117.328 151.468 117.328C151.692 117.328 151.948 117.295 152.238 117.23ZM157.05 110.93C157.852 110.93 158.464 111.159 158.884 111.616C159.304 112.064 159.514 112.619 159.514 113.282V117.72C159.514 117.907 159.42 118 159.234 118H158.87C158.683 118 158.59 117.907 158.59 117.72V113.59C158.59 112.974 158.44 112.507 158.142 112.19C157.843 111.873 157.414 111.714 156.854 111.714C156.499 111.714 156.172 111.803 155.874 111.98C155.575 112.148 155.337 112.381 155.16 112.68C154.982 112.979 154.894 113.305 154.894 113.66V117.72C154.894 117.907 154.8 118 154.614 118H154.25C154.063 118 153.97 117.907 153.97 117.72V108.34C153.97 108.153 154.063 108.06 154.25 108.06H154.614C154.8 108.06 154.894 108.153 154.894 108.34V111.994C155.118 111.639 155.416 111.373 155.79 111.196C156.172 111.019 156.592 110.93 157.05 110.93ZM162.019 109.348C161.833 109.348 161.674 109.283 161.543 109.152C161.422 109.021 161.361 108.863 161.361 108.676C161.361 108.489 161.422 108.335 161.543 108.214C161.674 108.093 161.833 108.032 162.019 108.032C162.215 108.032 162.374 108.093 162.495 108.214C162.626 108.335 162.691 108.489 162.691 108.676C162.691 108.863 162.626 109.021 162.495 109.152C162.374 109.283 162.215 109.348 162.019 109.348ZM161.837 118C161.651 118 161.557 117.907 161.557 117.72V111.378C161.557 111.191 161.651 111.098 161.837 111.098H162.201C162.388 111.098 162.481 111.191 162.481 111.378V117.72C162.481 117.907 162.388 118 162.201 118H161.837ZM167.618 110.93C168.43 110.93 169.041 111.154 169.452 111.602C169.872 112.05 170.082 112.61 170.082 113.282V117.72C170.082 117.907 169.989 118 169.802 118H169.438C169.251 118 169.158 117.907 169.158 117.72V113.59C169.158 112.974 169.009 112.507 168.71 112.19C168.411 111.873 167.982 111.714 167.422 111.714C167.067 111.714 166.741 111.803 166.442 111.98C166.143 112.148 165.905 112.381 165.728 112.68C165.551 112.979 165.462 113.305 165.462 113.66V117.72C165.462 117.907 165.369 118 165.182 118H164.818C164.631 118 164.538 117.907 164.538 117.72V111.378C164.538 111.191 164.631 111.098 164.818 111.098H165.126C165.313 111.098 165.406 111.191 165.406 111.378V112.05C165.639 111.677 165.947 111.397 166.33 111.21C166.713 111.023 167.142 110.93 167.618 110.93ZM177.082 111.378C177.082 111.191 177.175 111.098 177.362 111.098H177.656C177.843 111.098 177.936 111.191 177.936 111.378V117.93C177.936 118.798 177.675 119.479 177.152 119.974C176.629 120.478 175.897 120.73 174.954 120.73C173.937 120.73 172.999 120.441 172.14 119.862C172.047 119.806 172 119.736 172 119.652C172 119.587 172.019 119.531 172.056 119.484L172.224 119.246C172.28 119.153 172.355 119.106 172.448 119.106C172.485 119.106 172.541 119.125 172.616 119.162C173.027 119.423 173.409 119.619 173.764 119.75C174.128 119.881 174.525 119.946 174.954 119.946C175.57 119.946 176.069 119.773 176.452 119.428C176.835 119.092 177.026 118.569 177.026 117.86V116.74C176.522 117.552 175.757 117.958 174.73 117.958C174.133 117.958 173.605 117.809 173.148 117.51C172.691 117.202 172.336 116.782 172.084 116.25C171.841 115.718 171.72 115.116 171.72 114.444C171.72 113.772 171.841 113.17 172.084 112.638C172.336 112.106 172.691 111.691 173.148 111.392C173.605 111.084 174.133 110.93 174.73 110.93C175.271 110.93 175.738 111.047 176.13 111.28C176.531 111.504 176.849 111.826 177.082 112.246V111.378ZM174.828 117.174C175.5 117.174 176.037 116.922 176.438 116.418C176.839 115.905 177.04 115.247 177.04 114.444C177.04 113.641 176.839 112.988 176.438 112.484C176.037 111.971 175.5 111.714 174.828 111.714C174.147 111.714 173.615 111.966 173.232 112.47C172.859 112.974 172.672 113.632 172.672 114.444C172.672 115.256 172.859 115.914 173.232 116.418C173.615 116.922 174.147 117.174 174.828 117.174ZM186.321 110.93C187.133 110.93 187.744 111.154 188.155 111.602C188.575 112.05 188.785 112.61 188.785 113.282V117.72C188.785 117.907 188.692 118 188.505 118H188.141C187.954 118 187.861 117.907 187.861 117.72V113.59C187.861 112.974 187.712 112.507 187.413 112.19C187.114 111.873 186.685 111.714 186.125 111.714C185.77 111.714 185.444 111.803 185.145 111.98C184.846 112.148 184.608 112.381 184.431 112.68C184.254 112.979 184.165 113.305 184.165 113.66V117.72C184.165 117.907 184.072 118 183.885 118H183.521C183.334 118 183.241 117.907 183.241 117.72V111.378C183.241 111.191 183.334 111.098 183.521 111.098H183.829C184.016 111.098 184.109 111.191 184.109 111.378V112.05C184.342 111.677 184.65 111.397 185.033 111.21C185.416 111.023 185.845 110.93 186.321 110.93ZM195.855 116.362C195.92 116.297 195.99 116.264 196.065 116.264C196.13 116.264 196.191 116.292 196.247 116.348L196.429 116.516C196.494 116.581 196.527 116.651 196.527 116.726C196.527 116.782 196.499 116.847 196.443 116.922C195.986 117.379 195.542 117.706 195.113 117.902C194.684 118.089 194.203 118.182 193.671 118.182C192.999 118.182 192.416 118.033 191.921 117.734C191.426 117.435 191.044 117.02 190.773 116.488C190.502 115.947 190.367 115.321 190.367 114.612C190.367 113.893 190.498 113.259 190.759 112.708C191.03 112.148 191.408 111.714 191.893 111.406C192.378 111.089 192.938 110.93 193.573 110.93C194.516 110.93 195.258 111.224 195.799 111.812C196.34 112.4 196.611 113.193 196.611 114.192V114.36C196.602 114.444 196.569 114.509 196.513 114.556C196.466 114.603 196.401 114.626 196.317 114.626H191.305C191.333 115.41 191.538 116.073 191.921 116.614C192.313 117.146 192.896 117.412 193.671 117.412C194.091 117.412 194.46 117.337 194.777 117.188C195.104 117.029 195.463 116.754 195.855 116.362ZM193.573 111.7C192.957 111.7 192.448 111.891 192.047 112.274C191.655 112.647 191.417 113.198 191.333 113.926H195.687C195.668 113.245 195.472 112.703 195.099 112.302C194.726 111.901 194.217 111.7 193.573 111.7ZM203.306 116.362C203.371 116.297 203.441 116.264 203.516 116.264C203.581 116.264 203.642 116.292 203.698 116.348L203.88 116.516C203.945 116.581 203.978 116.651 203.978 116.726C203.978 116.782 203.95 116.847 203.894 116.922C203.437 117.379 202.993 117.706 202.564 117.902C202.135 118.089 201.654 118.182 201.122 118.182C200.45 118.182 199.867 118.033 199.372 117.734C198.877 117.435 198.495 117.02 198.224 116.488C197.953 115.947 197.818 115.321 197.818 114.612C197.818 113.893 197.949 113.259 198.21 112.708C198.481 112.148 198.859 111.714 199.344 111.406C199.829 111.089 200.389 110.93 201.024 110.93C201.967 110.93 202.709 111.224 203.25 111.812C203.791 112.4 204.062 113.193 204.062 114.192V114.36C204.053 114.444 204.02 114.509 203.964 114.556C203.917 114.603 203.852 114.626 203.768 114.626H198.756C198.784 115.41 198.989 116.073 199.372 116.614C199.764 117.146 200.347 117.412 201.122 117.412C201.542 117.412 201.911 117.337 202.228 117.188C202.555 117.029 202.914 116.754 203.306 116.362ZM201.024 111.7C200.408 111.7 199.899 111.891 199.498 112.274C199.106 112.647 198.868 113.198 198.784 113.926H203.138C203.119 113.245 202.923 112.703 202.55 112.302C202.177 111.901 201.668 111.7 201.024 111.7ZM210.715 108.34C210.715 108.153 210.809 108.06 210.995 108.06H211.359C211.546 108.06 211.639 108.153 211.639 108.34V117.72C211.639 117.907 211.546 118 211.359 118H211.065C210.879 118 210.785 117.907 210.785 117.72V116.81C210.533 117.249 210.202 117.585 209.791 117.818C209.381 118.051 208.895 118.168 208.335 118.168C207.747 118.168 207.225 118.019 206.767 117.72C206.31 117.412 205.951 116.987 205.689 116.446C205.428 115.895 205.297 115.265 205.297 114.556C205.297 113.847 205.428 113.221 205.689 112.68C205.96 112.129 206.329 111.705 206.795 111.406C207.262 111.098 207.785 110.944 208.363 110.944C209.427 110.944 210.211 111.341 210.715 112.134V108.34ZM208.405 117.384C209.105 117.384 209.67 117.137 210.099 116.642C210.538 116.138 210.757 115.443 210.757 114.556C210.757 113.679 210.538 112.988 210.099 112.484C209.67 111.98 209.105 111.728 208.405 111.728C207.761 111.728 207.239 111.989 206.837 112.512C206.445 113.035 206.249 113.716 206.249 114.556C206.249 115.405 206.445 116.091 206.837 116.614C207.229 117.127 207.752 117.384 208.405 117.384ZM216.124 118.182C215.554 118.182 215.05 118.103 214.612 117.944C214.182 117.776 213.73 117.496 213.254 117.104C213.17 117.048 213.128 116.983 213.128 116.908C213.128 116.843 213.16 116.777 213.226 116.712L213.408 116.516C213.464 116.441 213.534 116.404 213.618 116.404C213.683 116.404 213.744 116.432 213.8 116.488C214.248 116.833 214.644 117.076 214.99 117.216C215.335 117.347 215.713 117.412 216.124 117.412C216.637 117.412 217.057 117.3 217.384 117.076C217.71 116.843 217.874 116.53 217.874 116.138C217.874 115.746 217.706 115.457 217.37 115.27C217.034 115.083 216.516 114.915 215.816 114.766C215.2 114.635 214.714 114.5 214.36 114.36C214.014 114.211 213.758 114.024 213.59 113.8C213.422 113.576 213.338 113.282 213.338 112.918C213.338 112.321 213.58 111.84 214.066 111.476C214.551 111.112 215.162 110.93 215.9 110.93C216.404 110.93 216.852 110.995 217.244 111.126C217.645 111.247 218.046 111.453 218.448 111.742C218.532 111.807 218.574 111.877 218.574 111.952C218.574 111.999 218.55 112.059 218.504 112.134L218.336 112.344C218.289 112.419 218.224 112.456 218.14 112.456C218.065 112.456 218 112.433 217.944 112.386C217.561 112.115 217.22 111.933 216.922 111.84C216.632 111.747 216.301 111.7 215.928 111.7C215.414 111.7 215.004 111.812 214.696 112.036C214.388 112.26 214.234 112.545 214.234 112.89C214.234 113.105 214.304 113.277 214.444 113.408C214.584 113.539 214.784 113.651 215.046 113.744C215.307 113.828 215.69 113.926 216.194 114.038C217.127 114.243 217.79 114.495 218.182 114.794C218.583 115.093 218.784 115.527 218.784 116.096C218.784 116.721 218.536 117.225 218.042 117.608C217.547 117.991 216.908 118.182 216.124 118.182ZM226.681 117.23C226.709 117.221 226.746 117.216 226.793 117.216C226.849 117.216 226.9 117.235 226.947 117.272C226.994 117.309 227.022 117.361 227.031 117.426L227.073 117.622C227.082 117.641 227.087 117.673 227.087 117.72C227.087 117.851 227.017 117.93 226.877 117.958C226.541 118.061 226.182 118.112 225.799 118.112C225.192 118.112 224.758 117.977 224.497 117.706C224.245 117.426 224.119 117.025 224.119 116.502V111.798H223.083C222.896 111.798 222.803 111.705 222.803 111.518V111.378C222.803 111.191 222.896 111.098 223.083 111.098H224.119V108.97C224.119 108.783 224.212 108.69 224.399 108.69H224.763C224.95 108.69 225.043 108.783 225.043 108.97V111.098H226.723C226.91 111.098 227.003 111.191 227.003 111.378V111.518C227.003 111.705 226.91 111.798 226.723 111.798H225.043V116.39C225.043 116.735 225.108 116.978 225.239 117.118C225.37 117.258 225.594 117.328 225.911 117.328C226.135 117.328 226.392 117.295 226.681 117.23ZM231.009 118.182C230.365 118.182 229.791 118.028 229.287 117.72C228.783 117.412 228.391 116.987 228.111 116.446C227.831 115.895 227.691 115.265 227.691 114.556C227.691 113.847 227.831 113.221 228.111 112.68C228.391 112.129 228.783 111.7 229.287 111.392C229.791 111.084 230.365 110.93 231.009 110.93C231.653 110.93 232.227 111.084 232.731 111.392C233.235 111.7 233.627 112.129 233.907 112.68C234.187 113.221 234.327 113.847 234.327 114.556C234.327 115.265 234.187 115.895 233.907 116.446C233.627 116.987 233.235 117.412 232.731 117.72C232.227 118.028 231.653 118.182 231.009 118.182ZM231.009 117.412C231.728 117.412 232.302 117.151 232.731 116.628C233.161 116.096 233.375 115.405 233.375 114.556C233.375 113.707 233.161 113.021 232.731 112.498C232.302 111.966 231.728 111.7 231.009 111.7C230.291 111.7 229.717 111.966 229.287 112.498C228.858 113.021 228.643 113.707 228.643 114.556C228.643 115.405 228.858 116.096 229.287 116.628C229.717 117.151 230.291 117.412 231.009 117.412ZM242.463 110.944C243.051 110.944 243.574 111.098 244.031 111.406C244.498 111.705 244.857 112.129 245.109 112.68C245.37 113.221 245.501 113.847 245.501 114.556C245.501 115.265 245.37 115.895 245.109 116.446C244.848 116.987 244.484 117.412 244.017 117.72C243.56 118.019 243.042 118.168 242.463 118.168C241.352 118.168 240.54 117.739 240.027 116.88V117.72C240.027 117.907 239.934 118 239.747 118H239.439C239.252 118 239.159 117.907 239.159 117.72V108.326C239.159 108.139 239.252 108.046 239.439 108.046H239.803C239.99 108.046 240.083 108.139 240.083 108.326V112.19C240.596 111.359 241.39 110.944 242.463 110.944ZM242.393 117.384C243.037 117.384 243.555 117.123 243.947 116.6C244.348 116.077 244.549 115.396 244.549 114.556C244.549 113.716 244.348 113.035 243.947 112.512C243.555 111.989 243.037 111.728 242.393 111.728C241.702 111.728 241.138 111.98 240.699 112.484C240.26 112.988 240.041 113.679 240.041 114.556C240.041 115.443 240.256 116.138 240.685 116.642C241.124 117.137 241.693 117.384 242.393 117.384ZM252.251 116.362C252.317 116.297 252.387 116.264 252.461 116.264C252.527 116.264 252.587 116.292 252.643 116.348L252.825 116.516C252.891 116.581 252.923 116.651 252.923 116.726C252.923 116.782 252.895 116.847 252.839 116.922C252.382 117.379 251.939 117.706 251.509 117.902C251.08 118.089 250.599 118.182 250.067 118.182C249.395 118.182 248.812 118.033 248.317 117.734C247.823 117.435 247.44 117.02 247.169 116.488C246.899 115.947 246.763 115.321 246.763 114.612C246.763 113.893 246.894 113.259 247.155 112.708C247.426 112.148 247.804 111.714 248.289 111.406C248.775 111.089 249.335 110.93 249.969 110.93C250.912 110.93 251.654 111.224 252.195 111.812C252.737 112.4 253.007 113.193 253.007 114.192V114.36C252.998 114.444 252.965 114.509 252.909 114.556C252.863 114.603 252.797 114.626 252.713 114.626H247.701C247.729 115.41 247.935 116.073 248.317 116.614C248.709 117.146 249.293 117.412 250.067 117.412C250.487 117.412 250.856 117.337 251.173 117.188C251.5 117.029 251.859 116.754 252.251 116.362ZM249.969 111.7C249.353 111.7 248.845 111.891 248.443 112.274C248.051 112.647 247.813 113.198 247.729 113.926H252.083C252.065 113.245 251.869 112.703 251.495 112.302C251.122 111.901 250.613 111.7 249.969 111.7ZM59.696 128.93C60.5453 128.93 61.208 129.135 61.684 129.546C62.16 129.947 62.398 130.479 62.398 131.142V135.72C62.398 135.907 62.3047 136 62.118 136H61.838C61.6513 136 61.558 135.907 61.558 135.72V135.09C61.3247 135.463 60.9933 135.743 60.564 135.93C60.144 136.117 59.6727 136.21 59.15 136.21C58.422 136.21 57.8293 136.056 57.372 135.748C56.9147 135.44 56.686 134.964 56.686 134.32C56.686 133.807 56.8307 133.396 57.12 133.088C57.4093 132.771 57.7873 132.533 58.254 132.374C58.7207 132.206 59.304 132.057 60.004 131.926L61.516 131.66V131.212C61.516 130.736 61.3527 130.367 61.026 130.106C60.6993 129.835 60.27 129.7 59.738 129.7C59.3367 129.7 58.9727 129.775 58.646 129.924C58.3193 130.073 57.9693 130.33 57.596 130.694C57.5307 130.759 57.4607 130.792 57.386 130.792C57.3207 130.792 57.26 130.764 57.204 130.708L57.022 130.54C56.9567 130.475 56.924 130.405 56.924 130.33C56.924 130.246 56.9567 130.171 57.022 130.106C57.414 129.695 57.8247 129.397 58.254 129.21C58.6927 129.023 59.1733 128.93 59.696 128.93ZM59.192 135.44C59.864 135.44 60.4193 135.263 60.858 134.908C61.2967 134.553 61.516 134.101 61.516 133.55V132.374L60.214 132.626C59.6073 132.747 59.1267 132.864 58.772 132.976C58.4173 133.088 58.1327 133.251 57.918 133.466C57.7033 133.681 57.596 133.961 57.596 134.306C57.596 134.661 57.736 134.941 58.016 135.146C58.3053 135.342 58.6973 135.44 59.192 135.44ZM69.4302 126.34C69.4302 126.153 69.5235 126.06 69.7102 126.06H70.0742C70.2608 126.06 70.3542 126.153 70.3542 126.34V135.72C70.3542 135.907 70.2608 136 70.0742 136H69.7802C69.5935 136 69.5002 135.907 69.5002 135.72V134.81C69.2482 135.249 68.9168 135.585 68.5062 135.818C68.0955 136.051 67.6102 136.168 67.0502 136.168C66.4622 136.168 65.9395 136.019 65.4822 135.72C65.0248 135.412 64.6655 134.987 64.4042 134.446C64.1428 133.895 64.0122 133.265 64.0122 132.556C64.0122 131.847 64.1428 131.221 64.4042 130.68C64.6748 130.129 65.0435 129.705 65.5102 129.406C65.9768 129.098 66.4995 128.944 67.0782 128.944C68.1422 128.944 68.9262 129.341 69.4302 130.134V126.34ZM67.1202 135.384C67.8202 135.384 68.3848 135.137 68.8142 134.642C69.2528 134.138 69.4722 133.443 69.4722 132.556C69.4722 131.679 69.2528 130.988 68.8142 130.484C68.3848 129.98 67.8202 129.728 67.1202 129.728C66.4762 129.728 65.9535 129.989 65.5522 130.512C65.1602 131.035 64.9642 131.716 64.9642 132.556C64.9642 133.405 65.1602 134.091 65.5522 134.614C65.9442 135.127 66.4668 135.384 67.1202 135.384ZM77.4145 126.34C77.4145 126.153 77.5079 126.06 77.6945 126.06H78.0585C78.2452 126.06 78.3385 126.153 78.3385 126.34V135.72C78.3385 135.907 78.2452 136 78.0585 136H77.7645C77.5779 136 77.4845 135.907 77.4845 135.72V134.81C77.2325 135.249 76.9012 135.585 76.4905 135.818C76.0799 136.051 75.5945 136.168 75.0345 136.168C74.4465 136.168 73.9239 136.019 73.4665 135.72C73.0092 135.412 72.6499 134.987 72.3885 134.446C72.1272 133.895 71.9965 133.265 71.9965 132.556C71.9965 131.847 72.1272 131.221 72.3885 130.68C72.6592 130.129 73.0279 129.705 73.4945 129.406C73.9612 129.098 74.4839 128.944 75.0625 128.944C76.1265 128.944 76.9105 129.341 77.4145 130.134V126.34ZM75.1045 135.384C75.8045 135.384 76.3692 135.137 76.7985 134.642C77.2372 134.138 77.4565 133.443 77.4565 132.556C77.4565 131.679 77.2372 130.988 76.7985 130.484C76.3692 129.98 75.8045 129.728 75.1045 129.728C74.4605 129.728 73.9379 129.989 73.5365 130.512C73.1445 131.035 72.9485 131.716 72.9485 132.556C72.9485 133.405 73.1445 134.091 73.5365 134.614C73.9285 135.127 74.4512 135.384 75.1045 135.384ZM82.9909 129.042C83.2242 129.042 83.4996 129.079 83.8169 129.154C83.9849 129.21 84.0502 129.327 84.0129 129.504L83.9569 129.728C83.9102 129.905 83.7936 129.971 83.6069 129.924C83.3829 129.868 83.1776 129.84 82.9909 129.84C82.5149 129.84 82.1182 130.045 81.8009 130.456C81.4929 130.867 81.3389 131.436 81.3389 132.164V135.72C81.3389 135.907 81.2456 136 81.0589 136H80.6949C80.5082 136 80.4149 135.907 80.4149 135.72V129.378C80.4149 129.191 80.5082 129.098 80.6949 129.098H81.0029C81.1896 129.098 81.2829 129.191 81.2829 129.378V130.148C81.4416 129.803 81.6656 129.532 81.9549 129.336C82.2536 129.14 82.5989 129.042 82.9909 129.042ZM89.9116 134.362C89.9769 134.297 90.0469 134.264 90.1216 134.264C90.1869 134.264 90.2476 134.292 90.3036 134.348L90.4856 134.516C90.5509 134.581 90.5836 134.651 90.5836 134.726C90.5836 134.782 90.5556 134.847 90.4996 134.922C90.0423 135.379 89.5989 135.706 89.1696 135.902C88.7403 136.089 88.2596 136.182 87.7276 136.182C87.0556 136.182 86.4723 136.033 85.9776 135.734C85.4829 135.435 85.1003 135.02 84.8296 134.488C84.5589 133.947 84.4236 133.321 84.4236 132.612C84.4236 131.893 84.5543 131.259 84.8156 130.708C85.0863 130.148 85.4643 129.714 85.9496 129.406C86.4349 129.089 86.9949 128.93 87.6296 128.93C88.5723 128.93 89.3143 129.224 89.8556 129.812C90.3969 130.4 90.6676 131.193 90.6676 132.192V132.36C90.6583 132.444 90.6256 132.509 90.5696 132.556C90.5229 132.603 90.4576 132.626 90.3736 132.626H85.3616C85.3896 133.41 85.5949 134.073 85.9776 134.614C86.3696 135.146 86.9529 135.412 87.7276 135.412C88.1476 135.412 88.5163 135.337 88.8336 135.188C89.1603 135.029 89.5196 134.754 89.9116 134.362ZM87.6296 129.7C87.0136 129.7 86.5049 129.891 86.1036 130.274C85.7116 130.647 85.4736 131.198 85.3896 131.926H89.7436C89.7249 131.245 89.5289 130.703 89.1556 130.302C88.7823 129.901 88.2736 129.7 87.6296 129.7ZM94.7858 136.182C94.2165 136.182 93.7125 136.103 93.2738 135.944C92.8445 135.776 92.3918 135.496 91.9158 135.104C91.8318 135.048 91.7898 134.983 91.7898 134.908C91.7898 134.843 91.8225 134.777 91.8878 134.712L92.0698 134.516C92.1258 134.441 92.1958 134.404 92.2798 134.404C92.3451 134.404 92.4058 134.432 92.4618 134.488C92.9098 134.833 93.3065 135.076 93.6518 135.216C93.9971 135.347 94.3751 135.412 94.7858 135.412C95.2991 135.412 95.7191 135.3 96.0458 135.076C96.3725 134.843 96.5358 134.53 96.5358 134.138C96.5358 133.746 96.3678 133.457 96.0318 133.27C95.6958 133.083 95.1778 132.915 94.4778 132.766C93.8618 132.635 93.3765 132.5 93.0218 132.36C92.6765 132.211 92.4198 132.024 92.2518 131.8C92.0838 131.576 91.9998 131.282 91.9998 130.918C91.9998 130.321 92.2425 129.84 92.7278 129.476C93.2131 129.112 93.8245 128.93 94.5618 128.93C95.0658 128.93 95.5138 128.995 95.9058 129.126C96.3071 129.247 96.7085 129.453 97.1098 129.742C97.1938 129.807 97.2358 129.877 97.2358 129.952C97.2358 129.999 97.2125 130.059 97.1658 130.134L96.9978 130.344C96.9511 130.419 96.8858 130.456 96.8018 130.456C96.7271 130.456 96.6618 130.433 96.6058 130.386C96.2231 130.115 95.8825 129.933 95.5838 129.84C95.2945 129.747 94.9631 129.7 94.5898 129.7C94.0765 129.7 93.6658 129.812 93.3578 130.036C93.0498 130.26 92.8958 130.545 92.8958 130.89C92.8958 131.105 92.9658 131.277 93.1058 131.408C93.2458 131.539 93.4465 131.651 93.7078 131.744C93.9691 131.828 94.3518 131.926 94.8558 132.038C95.7891 132.243 96.4518 132.495 96.8438 132.794C97.2451 133.093 97.4458 133.527 97.4458 134.096C97.4458 134.721 97.1985 135.225 96.7038 135.608C96.2091 135.991 95.5698 136.182 94.7858 136.182ZM101.417 136.182C100.847 136.182 100.343 136.103 99.9047 135.944C99.4753 135.776 99.0227 135.496 98.5467 135.104C98.4627 135.048 98.4207 134.983 98.4207 134.908C98.4207 134.843 98.4533 134.777 98.5187 134.712L98.7007 134.516C98.7567 134.441 98.8267 134.404 98.9107 134.404C98.976 134.404 99.0367 134.432 99.0927 134.488C99.5407 134.833 99.9373 135.076 100.283 135.216C100.628 135.347 101.006 135.412 101.417 135.412C101.93 135.412 102.35 135.3 102.677 135.076C103.003 134.843 103.167 134.53 103.167 134.138C103.167 133.746 102.999 133.457 102.663 133.27C102.327 133.083 101.809 132.915 101.109 132.766C100.493 132.635 100.007 132.5 99.6527 132.36C99.3073 132.211 99.0507 132.024 98.8827 131.8C98.7147 131.576 98.6307 131.282 98.6307 130.918C98.6307 130.321 98.8733 129.84 99.3587 129.476C99.844 129.112 100.455 128.93 101.193 128.93C101.697 128.93 102.145 128.995 102.537 129.126C102.938 129.247 103.339 129.453 103.741 129.742C103.825 129.807 103.867 129.877 103.867 129.952C103.867 129.999 103.843 130.059 103.797 130.134L103.629 130.344C103.582 130.419 103.517 130.456 103.433 130.456C103.358 130.456 103.293 130.433 103.237 130.386C102.854 130.115 102.513 129.933 102.215 129.84C101.925 129.747 101.594 129.7 101.221 129.7C100.707 129.7 100.297 129.812 99.9887 130.036C99.6807 130.26 99.5267 130.545 99.5267 130.89C99.5267 131.105 99.5967 131.277 99.7367 131.408C99.8767 131.539 100.077 131.651 100.339 131.744C100.6 131.828 100.983 131.926 101.487 132.038C102.42 132.243 103.083 132.495 103.475 132.794C103.876 133.093 104.077 133.527 104.077 134.096C104.077 134.721 103.829 135.225 103.335 135.608C102.84 135.991 102.201 136.182 101.417 136.182ZM110.666 134.362C110.731 134.297 110.801 134.264 110.876 134.264C110.941 134.264 111.002 134.292 111.058 134.348L111.24 134.516C111.305 134.581 111.338 134.651 111.338 134.726C111.338 134.782 111.31 134.847 111.254 134.922C110.796 135.379 110.353 135.706 109.924 135.902C109.494 136.089 109.014 136.182 108.482 136.182C107.81 136.182 107.226 136.033 106.732 135.734C106.237 135.435 105.854 135.02 105.584 134.488C105.313 133.947 105.178 133.321 105.178 132.612C105.178 131.893 105.308 131.259 105.57 130.708C105.84 130.148 106.218 129.714 106.704 129.406C107.189 129.089 107.749 128.93 108.384 128.93C109.326 128.93 110.068 129.224 110.61 129.812C111.151 130.4 111.422 131.193 111.422 132.192V132.36C111.412 132.444 111.38 132.509 111.324 132.556C111.277 132.603 111.212 132.626 111.128 132.626H106.116C106.144 133.41 106.349 134.073 106.732 134.614C107.124 135.146 107.707 135.412 108.482 135.412C108.902 135.412 109.27 135.337 109.588 135.188C109.914 135.029 110.274 134.754 110.666 134.362ZM108.384 129.7C107.768 129.7 107.259 129.891 106.858 130.274C106.466 130.647 106.228 131.198 106.144 131.926H110.498C110.479 131.245 110.283 130.703 109.91 130.302C109.536 129.901 109.028 129.7 108.384 129.7ZM118.075 126.34C118.075 126.153 118.168 126.06 118.355 126.06H118.719C118.905 126.06 118.999 126.153 118.999 126.34V135.72C118.999 135.907 118.905 136 118.719 136H118.425C118.238 136 118.145 135.907 118.145 135.72V134.81C117.893 135.249 117.561 135.585 117.151 135.818C116.74 136.051 116.255 136.168 115.695 136.168C115.107 136.168 114.584 136.019 114.127 135.72C113.669 135.412 113.31 134.987 113.049 134.446C112.787 133.895 112.657 133.265 112.657 132.556C112.657 131.847 112.787 131.221 113.049 130.68C113.319 130.129 113.688 129.705 114.155 129.406C114.621 129.098 115.144 128.944 115.723 128.944C116.787 128.944 117.571 129.341 118.075 130.134V126.34ZM115.765 135.384C116.465 135.384 117.029 135.137 117.459 134.642C117.897 134.138 118.117 133.443 118.117 132.556C118.117 131.679 117.897 130.988 117.459 130.484C117.029 129.98 116.465 129.728 115.765 129.728C115.121 129.728 114.598 129.989 114.197 130.512C113.805 131.035 113.609 131.716 113.609 132.556C113.609 133.405 113.805 134.091 114.197 134.614C114.589 135.127 115.111 135.384 115.765 135.384ZM124.764 127.348C124.577 127.348 124.418 127.283 124.288 127.152C124.166 127.021 124.106 126.863 124.106 126.676C124.106 126.489 124.166 126.335 124.288 126.214C124.418 126.093 124.577 126.032 124.764 126.032C124.96 126.032 125.118 126.093 125.24 126.214C125.37 126.335 125.436 126.489 125.436 126.676C125.436 126.863 125.37 127.021 125.24 127.152C125.118 127.283 124.96 127.348 124.764 127.348ZM124.582 136C124.395 136 124.302 135.907 124.302 135.72V129.378C124.302 129.191 124.395 129.098 124.582 129.098H124.946C125.132 129.098 125.226 129.191 125.226 129.378V135.72C125.226 135.907 125.132 136 124.946 136H124.582ZM134.296 128.93C135.043 128.93 135.612 129.145 136.004 129.574C136.405 129.994 136.606 130.535 136.606 131.198V135.72C136.606 135.907 136.513 136 136.326 136H135.962C135.775 136 135.682 135.907 135.682 135.72V131.45C135.682 130.89 135.551 130.461 135.29 130.162C135.038 129.863 134.66 129.714 134.156 129.714C133.624 129.714 133.199 129.891 132.882 130.246C132.565 130.601 132.406 131.058 132.406 131.618V135.72C132.406 135.907 132.313 136 132.126 136H131.762C131.575 136 131.482 135.907 131.482 135.72V131.45C131.482 130.89 131.351 130.461 131.09 130.162C130.838 129.863 130.455 129.714 129.942 129.714C129.466 129.714 129.069 129.863 128.752 130.162C128.444 130.461 128.262 130.853 128.206 131.338V135.72C128.206 135.907 128.113 136 127.926 136H127.562C127.375 136 127.282 135.907 127.282 135.72V129.378C127.282 129.191 127.375 129.098 127.562 129.098H127.87C128.057 129.098 128.15 129.191 128.15 129.378V129.952C128.57 129.271 129.237 128.93 130.152 128.93C130.628 128.93 131.034 129.037 131.37 129.252C131.715 129.457 131.972 129.737 132.14 130.092C132.635 129.317 133.353 128.93 134.296 128.93ZM145.657 128.93C146.404 128.93 146.973 129.145 147.365 129.574C147.767 129.994 147.967 130.535 147.967 131.198V135.72C147.967 135.907 147.874 136 147.687 136H147.323C147.137 136 147.043 135.907 147.043 135.72V131.45C147.043 130.89 146.913 130.461 146.651 130.162C146.399 129.863 146.021 129.714 145.517 129.714C144.985 129.714 144.561 129.891 144.243 130.246C143.926 130.601 143.767 131.058 143.767 131.618V135.72C143.767 135.907 143.674 136 143.487 136H143.123C142.937 136 142.843 135.907 142.843 135.72V131.45C142.843 130.89 142.713 130.461 142.451 130.162C142.199 129.863 141.817 129.714 141.303 129.714C140.827 129.714 140.431 129.863 140.113 130.162C139.805 130.461 139.623 130.853 139.567 131.338V135.72C139.567 135.907 139.474 136 139.287 136H138.923C138.737 136 138.643 135.907 138.643 135.72V129.378C138.643 129.191 138.737 129.098 138.923 129.098H139.231C139.418 129.098 139.511 129.191 139.511 129.378V129.952C139.931 129.271 140.599 128.93 141.513 128.93C141.989 128.93 142.395 129.037 142.731 129.252C143.077 129.457 143.333 129.737 143.501 130.092C143.996 129.317 144.715 128.93 145.657 128.93ZM155.031 134.362C155.096 134.297 155.166 134.264 155.241 134.264C155.306 134.264 155.367 134.292 155.423 134.348L155.605 134.516C155.67 134.581 155.703 134.651 155.703 134.726C155.703 134.782 155.675 134.847 155.619 134.922C155.161 135.379 154.718 135.706 154.289 135.902C153.859 136.089 153.379 136.182 152.847 136.182C152.175 136.182 151.591 136.033 151.097 135.734C150.602 135.435 150.219 135.02 149.949 134.488C149.678 133.947 149.543 133.321 149.543 132.612C149.543 131.893 149.673 131.259 149.935 130.708C150.205 130.148 150.583 129.714 151.069 129.406C151.554 129.089 152.114 128.93 152.749 128.93C153.691 128.93 154.433 129.224 154.975 129.812C155.516 130.4 155.787 131.193 155.787 132.192V132.36C155.777 132.444 155.745 132.509 155.689 132.556C155.642 132.603 155.577 132.626 155.493 132.626H150.481C150.509 133.41 150.714 134.073 151.097 134.614C151.489 135.146 152.072 135.412 152.847 135.412C153.267 135.412 153.635 135.337 153.953 135.188C154.279 135.029 154.639 134.754 155.031 134.362ZM152.749 129.7C152.133 129.7 151.624 129.891 151.223 130.274C150.831 130.647 150.593 131.198 150.509 131.926H154.863C154.844 131.245 154.648 130.703 154.275 130.302C153.901 129.901 153.393 129.7 152.749 129.7ZM162.44 126.34C162.44 126.153 162.533 126.06 162.72 126.06H163.084C163.271 126.06 163.364 126.153 163.364 126.34V135.72C163.364 135.907 163.271 136 163.084 136H162.79C162.603 136 162.51 135.907 162.51 135.72V134.81C162.258 135.249 161.927 135.585 161.516 135.818C161.105 136.051 160.62 136.168 160.06 136.168C159.472 136.168 158.949 136.019 158.492 135.72C158.035 135.412 157.675 134.987 157.414 134.446C157.153 133.895 157.022 133.265 157.022 132.556C157.022 131.847 157.153 131.221 157.414 130.68C157.685 130.129 158.053 129.705 158.52 129.406C158.987 129.098 159.509 128.944 160.088 128.944C161.152 128.944 161.936 129.341 162.44 130.134V126.34ZM160.13 135.384C160.83 135.384 161.395 135.137 161.824 134.642C162.263 134.138 162.482 133.443 162.482 132.556C162.482 131.679 162.263 130.988 161.824 130.484C161.395 129.98 160.83 129.728 160.13 129.728C159.486 129.728 158.963 129.989 158.562 130.512C158.17 131.035 157.974 131.716 157.974 132.556C157.974 133.405 158.17 134.091 158.562 134.614C158.954 135.127 159.477 135.384 160.13 135.384ZM165.902 127.348C165.716 127.348 165.557 127.283 165.426 127.152C165.305 127.021 165.244 126.863 165.244 126.676C165.244 126.489 165.305 126.335 165.426 126.214C165.557 126.093 165.716 126.032 165.902 126.032C166.098 126.032 166.257 126.093 166.378 126.214C166.509 126.335 166.574 126.489 166.574 126.676C166.574 126.863 166.509 127.021 166.378 127.152C166.257 127.283 166.098 127.348 165.902 127.348ZM165.72 136C165.534 136 165.44 135.907 165.44 135.72V129.378C165.44 129.191 165.534 129.098 165.72 129.098H166.084C166.271 129.098 166.364 129.191 166.364 129.378V135.72C166.364 135.907 166.271 136 166.084 136H165.72ZM171.081 128.93C171.93 128.93 172.593 129.135 173.069 129.546C173.545 129.947 173.783 130.479 173.783 131.142V135.72C173.783 135.907 173.689 136 173.503 136H173.223C173.036 136 172.943 135.907 172.943 135.72V135.09C172.709 135.463 172.378 135.743 171.949 135.93C171.529 136.117 171.057 136.21 170.535 136.21C169.807 136.21 169.214 136.056 168.757 135.748C168.299 135.44 168.071 134.964 168.071 134.32C168.071 133.807 168.215 133.396 168.505 133.088C168.794 132.771 169.172 132.533 169.639 132.374C170.105 132.206 170.689 132.057 171.389 131.926L172.901 131.66V131.212C172.901 130.736 172.737 130.367 172.411 130.106C172.084 129.835 171.655 129.7 171.123 129.7C170.721 129.7 170.357 129.775 170.031 129.924C169.704 130.073 169.354 130.33 168.981 130.694C168.915 130.759 168.845 130.792 168.771 130.792C168.705 130.792 168.645 130.764 168.589 130.708L168.407 130.54C168.341 130.475 168.309 130.405 168.309 130.33C168.309 130.246 168.341 130.171 168.407 130.106C168.799 129.695 169.209 129.397 169.639 129.21C170.077 129.023 170.558 128.93 171.081 128.93ZM170.577 135.44C171.249 135.44 171.804 135.263 172.243 134.908C172.681 134.553 172.901 134.101 172.901 133.55V132.374L171.599 132.626C170.992 132.747 170.511 132.864 170.157 132.976C169.802 133.088 169.517 133.251 169.303 133.466C169.088 133.681 168.981 133.961 168.981 134.306C168.981 134.661 169.121 134.941 169.401 135.146C169.69 135.342 170.082 135.44 170.577 135.44ZM178.748 135.23C178.776 135.221 178.813 135.216 178.86 135.216C178.916 135.216 178.967 135.235 179.014 135.272C179.06 135.309 179.088 135.361 179.098 135.426L179.14 135.622C179.149 135.641 179.154 135.673 179.154 135.72C179.154 135.851 179.084 135.93 178.944 135.958C178.608 136.061 178.248 136.112 177.866 136.112C177.259 136.112 176.825 135.977 176.564 135.706C176.312 135.426 176.186 135.025 176.186 134.502V129.798H175.15C174.963 129.798 174.87 129.705 174.87 129.518V129.378C174.87 129.191 174.963 129.098 175.15 129.098H176.186V126.97C176.186 126.783 176.279 126.69 176.466 126.69H176.83C177.016 126.69 177.11 126.783 177.11 126.97V129.098H178.79C178.976 129.098 179.07 129.191 179.07 129.378V129.518C179.07 129.705 178.976 129.798 178.79 129.798H177.11V134.39C177.11 134.735 177.175 134.978 177.306 135.118C177.436 135.258 177.66 135.328 177.978 135.328C178.202 135.328 178.458 135.295 178.748 135.23ZM185.246 134.362C185.311 134.297 185.381 134.264 185.456 134.264C185.521 134.264 185.582 134.292 185.638 134.348L185.82 134.516C185.885 134.581 185.918 134.651 185.918 134.726C185.918 134.782 185.89 134.847 185.834 134.922C185.376 135.379 184.933 135.706 184.504 135.902C184.074 136.089 183.594 136.182 183.062 136.182C182.39 136.182 181.806 136.033 181.312 135.734C180.817 135.435 180.434 135.02 180.164 134.488C179.893 133.947 179.758 133.321 179.758 132.612C179.758 131.893 179.888 131.259 180.15 130.708C180.42 130.148 180.798 129.714 181.284 129.406C181.769 129.089 182.329 128.93 182.964 128.93C183.906 128.93 184.648 129.224 185.19 129.812C185.731 130.4 186.002 131.193 186.002 132.192V132.36C185.992 132.444 185.96 132.509 185.904 132.556C185.857 132.603 185.792 132.626 185.708 132.626H180.696C180.724 133.41 180.929 134.073 181.312 134.614C181.704 135.146 182.287 135.412 183.062 135.412C183.482 135.412 183.85 135.337 184.168 135.188C184.494 135.029 184.854 134.754 185.246 134.362ZM182.964 129.7C182.348 129.7 181.839 129.891 181.438 130.274C181.046 130.647 180.808 131.198 180.724 131.926H185.078C185.059 131.245 184.863 130.703 184.49 130.302C184.116 129.901 183.608 129.7 182.964 129.7ZM187.951 136C187.764 136 187.671 135.907 187.671 135.72V126.34C187.671 126.153 187.764 126.06 187.951 126.06H188.315C188.502 126.06 188.595 126.153 188.595 126.34V135.72C188.595 135.907 188.502 136 188.315 136H187.951ZM194.963 129.322C195.019 129.173 195.126 129.098 195.285 129.098H195.663C195.737 129.098 195.798 129.117 195.845 129.154C195.891 129.191 195.915 129.243 195.915 129.308L195.887 129.42L193.185 137.05C193.035 137.47 192.891 137.797 192.751 138.03C192.611 138.263 192.419 138.441 192.177 138.562C191.943 138.683 191.635 138.744 191.253 138.744C191.01 138.744 190.795 138.725 190.609 138.688C190.515 138.679 190.45 138.641 190.413 138.576C190.385 138.511 190.38 138.436 190.399 138.352L190.441 138.17C190.478 138.002 190.585 137.927 190.763 137.946C190.931 137.974 191.075 137.988 191.197 137.988C191.495 137.988 191.729 137.904 191.897 137.736C192.074 137.568 192.242 137.251 192.401 136.784L192.527 136.392L190.063 129.42L190.035 129.308C190.035 129.243 190.058 129.191 190.105 129.154C190.151 129.117 190.212 129.098 190.287 129.098H190.693C190.842 129.098 190.945 129.173 191.001 129.322L191.785 131.632C191.859 131.865 192.046 132.421 192.345 133.298L192.975 135.188C193.283 134.32 193.689 133.125 194.193 131.604L194.963 129.322ZM196.853 136.098C196.657 136.098 196.489 136.028 196.349 135.888C196.209 135.748 196.139 135.58 196.139 135.384C196.139 135.188 196.209 135.02 196.349 134.88C196.489 134.74 196.657 134.67 196.853 134.67C197.049 134.67 197.217 134.74 197.357 134.88C197.497 135.02 197.567 135.188 197.567 135.384C197.567 135.58 197.497 135.748 197.357 135.888C197.217 136.028 197.049 136.098 196.853 136.098Z" fill="#464646"/>
<path d="M16 44C16 41.7909 17.7909 40 20 40V160C17.7909 160 16 158.209 16 156V44Z" fill="#D91F0A"/>
<rect x="16.5" y="40.5" width="311" height="119" rx="3.5" stroke="#FF9999"/>
<defs>
<clipPath id="clip0_2353_28499">
<rect width="16" height="16" fill="white" transform="translate(32 60)"/>
</clipPath>
</defs>
</svg>
