<svg width="344" height="182" viewBox="0 0 344 182" fill="none" xmlns="http://www.w3.org/2000/svg">
<rect width="344" height="182" fill="#F5F5F5"/>
<rect x="16.5" y="40.5" width="311" height="101" rx="3.5" fill="#F1F9FF"/>
<g clip-path="url(#clip0_2016_23761)">
<circle cx="40" cy="68" r="8" fill="#0386BF"/>
<path fill-rule="evenodd" clip-rule="evenodd" d="M40 64C39.4477 64 39 64.4477 39 65C39 65.5523 39.4477 66 40 66C40.5523 66 41 65.5523 41 65C41 64.4477 40.5523 64 40 64Z" fill="white"/>
<path fill-rule="evenodd" clip-rule="evenodd" d="M39.25 72C39.25 72.4142 39.5858 72.75 40 72.75C40.4142 72.75 40.75 72.4142 40.75 72L40.75 68C40.75 67.5858 40.4142 67.25 40 67.25C39.5858 67.25 39.25 67.5858 39.25 68L39.25 72Z" fill="white"/>
</g>
<path d="M64.218 74C63.938 74 63.7513 73.8693 63.658 73.608L63 71.718H58.604L57.946 73.608C57.8527 73.8693 57.666 74 57.386 74H56.798C56.658 74 56.546 73.972 56.462 73.916C56.3873 73.8507 56.35 73.762 56.35 73.65C56.35 73.594 56.364 73.524 56.392 73.44L59.64 64.452C59.7333 64.1907 59.92 64.06 60.2 64.06H61.446C61.726 64.06 61.9127 64.1907 62.006 64.452L65.254 73.44C65.282 73.524 65.296 73.594 65.296 73.65C65.296 73.762 65.254 73.8507 65.17 73.916C65.0953 73.972 64.988 74 64.848 74H64.218ZM62.552 70.388L62.118 69.156C62.1087 69.1373 62.006 68.8433 61.81 68.274C61.3153 66.874 60.9793 65.8753 60.802 65.278C60.5313 66.1367 60.172 67.2007 59.724 68.47L59.486 69.17L59.066 70.388H62.552ZM67.0523 74C66.903 74 66.7817 73.958 66.6883 73.874C66.6043 73.7807 66.5623 73.6593 66.5623 73.51V64.55C66.5623 64.3913 66.6043 64.27 66.6883 64.186C66.7817 64.102 66.903 64.06 67.0523 64.06H67.5563C67.715 64.06 67.8363 64.102 67.9203 64.186C68.0043 64.27 68.0463 64.3913 68.0463 64.55V73.51C68.0463 73.6593 68.0043 73.7807 67.9203 73.874C67.8363 73.958 67.715 74 67.5563 74H67.0523ZM74.7569 72.236C74.8783 72.1333 74.9949 72.082 75.1069 72.082C75.2189 72.082 75.3356 72.1427 75.4569 72.264L75.6529 72.474C75.7556 72.5953 75.8069 72.712 75.8069 72.824C75.8069 72.9453 75.7463 73.062 75.6249 73.174C75.1956 73.5473 74.7663 73.8133 74.3369 73.972C73.9169 74.1307 73.4503 74.21 72.9369 74.21C72.2183 74.21 71.5929 74.0607 71.0609 73.762C70.5383 73.4633 70.1323 73.0433 69.8429 72.502C69.5629 71.9513 69.4229 71.3167 69.4229 70.598C69.4229 69.8887 69.5583 69.254 69.8289 68.694C70.1089 68.1247 70.5009 67.6813 71.0049 67.364C71.5183 67.0467 72.1156 66.888 72.7969 66.888C73.8143 66.888 74.5983 67.1913 75.1489 67.798C75.6996 68.3953 75.9749 69.2213 75.9749 70.276V70.402C75.9656 70.5513 75.9189 70.668 75.8349 70.752C75.7509 70.836 75.6296 70.878 75.4709 70.878H70.8789C70.9349 71.494 71.1356 71.998 71.4809 72.39C71.8356 72.7727 72.3303 72.964 72.9649 72.964C73.3103 72.964 73.6136 72.9127 73.8749 72.81C74.1363 72.698 74.4303 72.5067 74.7569 72.236ZM72.7689 68.064C72.2556 68.064 71.8403 68.218 71.5229 68.526C71.2149 68.8247 71.0143 69.2493 70.9209 69.8H74.5189C74.4816 69.2587 74.3136 68.834 74.0149 68.526C73.7163 68.218 73.3009 68.064 72.7689 68.064ZM80.4425 67.028C80.6478 67.028 80.8578 67.0513 81.0725 67.098C81.3245 67.154 81.4505 67.3033 81.4505 67.546C81.4505 67.6113 81.4458 67.658 81.4365 67.686L81.3665 68.022C81.3105 68.2833 81.1705 68.414 80.9465 68.414L80.8205 68.4C80.6525 68.372 80.5031 68.358 80.3725 68.358C79.9058 68.358 79.5278 68.5447 79.2385 68.918C78.9585 69.282 78.8185 69.7907 78.8185 70.444V73.51C78.8185 73.6593 78.7765 73.7807 78.6925 73.874C78.6085 73.958 78.4871 74 78.3285 74H77.8245C77.6751 74 77.5538 73.958 77.4605 73.874C77.3765 73.7807 77.3345 73.6593 77.3345 73.51V67.588C77.3345 67.4293 77.3765 67.308 77.4605 67.224C77.5538 67.14 77.6751 67.098 77.8245 67.098H78.2305C78.3891 67.098 78.5105 67.14 78.5945 67.224C78.6785 67.308 78.7205 67.4293 78.7205 67.588V68.134C78.8885 67.7887 79.1171 67.518 79.4065 67.322C79.6958 67.126 80.0411 67.028 80.4425 67.028ZM86.0258 72.824C86.0538 72.8147 86.0958 72.81 86.1518 72.81C86.3852 72.81 86.5252 72.9453 86.5718 73.216L86.6138 73.44C86.6232 73.468 86.6278 73.5147 86.6278 73.58C86.6278 73.8133 86.4972 73.9627 86.2358 74.028C85.8625 74.112 85.5218 74.154 85.2138 74.154C84.5512 74.154 84.0705 74 83.7718 73.692C83.4825 73.384 83.3378 72.922 83.3378 72.306V68.232H82.5678C82.4185 68.232 82.2972 68.19 82.2038 68.106C82.1198 68.0127 82.0778 67.8913 82.0778 67.742V67.588C82.0778 67.4293 82.1198 67.308 82.2038 67.224C82.2972 67.14 82.4185 67.098 82.5678 67.098H83.3378V65.362C83.3378 65.2033 83.3798 65.082 83.4638 64.998C83.5572 64.914 83.6785 64.872 83.8278 64.872H84.3318C84.4905 64.872 84.6118 64.914 84.6958 64.998C84.7798 65.082 84.8218 65.2033 84.8218 65.362V67.098H86.0818C86.2405 67.098 86.3618 67.14 86.4458 67.224C86.5298 67.308 86.5718 67.4293 86.5718 67.588V67.742C86.5718 67.8913 86.5298 68.0127 86.4458 68.106C86.3618 68.19 86.2405 68.232 86.0818 68.232H84.8218V72.124C84.8218 72.3947 84.8778 72.586 84.9898 72.698C85.1112 72.81 85.3025 72.866 85.5638 72.866C85.6758 72.866 85.8298 72.852 86.0258 72.824ZM91.3163 70.626C91.167 70.626 91.0456 70.584 90.9523 70.5C90.8683 70.4067 90.8263 70.2853 90.8263 70.136V69.786C90.8263 69.6273 90.8683 69.506 90.9523 69.422C91.0456 69.338 91.167 69.296 91.3163 69.296H94.5223C94.681 69.296 94.8023 69.338 94.8863 69.422C94.9703 69.506 95.0123 69.6273 95.0123 69.786V70.136C95.0123 70.2853 94.9703 70.4067 94.8863 70.5C94.8023 70.584 94.681 70.626 94.5223 70.626H91.3163ZM100.568 74C100.419 74 100.298 73.958 100.204 73.874C100.12 73.7807 100.078 73.6593 100.078 73.51V64.55C100.078 64.3913 100.12 64.27 100.204 64.186C100.298 64.102 100.419 64.06 100.568 64.06H101.184C101.343 64.06 101.464 64.102 101.548 64.186C101.632 64.27 101.674 64.3913 101.674 64.55V73.51C101.674 73.6593 101.632 73.7807 101.548 73.874C101.464 73.958 101.343 74 101.184 74H100.568ZM107.222 66.888C108.015 66.888 108.622 67.112 109.042 67.56C109.471 67.9987 109.686 68.568 109.686 69.268V73.51C109.686 73.6593 109.644 73.7807 109.56 73.874C109.476 73.958 109.354 74 109.196 74H108.692C108.542 74 108.421 73.958 108.328 73.874C108.244 73.7807 108.202 73.6593 108.202 73.51V69.73C108.202 69.226 108.076 68.8387 107.824 68.568C107.581 68.2973 107.231 68.162 106.774 68.162C106.326 68.162 105.948 68.316 105.64 68.624C105.341 68.932 105.192 69.3193 105.192 69.786V73.51C105.192 73.6593 105.15 73.7807 105.066 73.874C104.982 73.958 104.86 74 104.702 74H104.198C104.048 74 103.927 73.958 103.834 73.874C103.75 73.7807 103.708 73.6593 103.708 73.51V67.588C103.708 67.4293 103.75 67.308 103.834 67.224C103.927 67.14 104.048 67.098 104.198 67.098H104.604C104.762 67.098 104.884 67.14 104.968 67.224C105.052 67.308 105.094 67.4293 105.094 67.588V67.952C105.318 67.6067 105.612 67.3453 105.976 67.168C106.34 66.9813 106.755 66.888 107.222 66.888ZM114.265 65.096C113.938 65.096 113.7 65.1753 113.551 65.334C113.402 65.4927 113.327 65.7633 113.327 66.146V67.098H114.461C114.62 67.098 114.741 67.14 114.825 67.224C114.909 67.308 114.951 67.4293 114.951 67.588V67.742C114.951 67.8913 114.909 68.0127 114.825 68.106C114.741 68.19 114.62 68.232 114.461 68.232H113.327V73.51C113.327 73.6593 113.285 73.7807 113.201 73.874C113.117 73.958 112.996 74 112.837 74H112.333C112.184 74 112.062 73.958 111.969 73.874C111.885 73.7807 111.843 73.6593 111.843 73.51V68.232H111.101C110.952 68.232 110.83 68.19 110.737 68.106C110.653 68.0127 110.611 67.8913 110.611 67.742V67.588C110.611 67.4293 110.653 67.308 110.737 67.224C110.83 67.14 110.952 67.098 111.101 67.098H111.843V66.048C111.843 65.3293 112.025 64.788 112.389 64.424C112.762 64.0507 113.299 63.864 113.999 63.864C114.316 63.864 114.638 63.8967 114.965 63.962C115.208 64.0273 115.329 64.1767 115.329 64.41C115.329 64.4753 115.324 64.5267 115.315 64.564L115.273 64.76C115.217 65.0027 115.035 65.124 114.727 65.124L114.559 65.11C114.494 65.1007 114.396 65.096 114.265 65.096ZM118.901 74.21C118.22 74.21 117.613 74.056 117.081 73.748C116.559 73.44 116.148 73.0107 115.849 72.46C115.551 71.9 115.401 71.2607 115.401 70.542C115.401 69.8233 115.551 69.1887 115.849 68.638C116.148 68.0873 116.559 67.658 117.081 67.35C117.613 67.042 118.22 66.888 118.901 66.888C119.573 66.888 120.175 67.042 120.707 67.35C121.239 67.658 121.655 68.092 121.953 68.652C122.252 69.2027 122.401 69.8327 122.401 70.542C122.401 71.2607 122.252 71.9 121.953 72.46C121.655 73.0107 121.239 73.44 120.707 73.748C120.175 74.056 119.573 74.21 118.901 74.21ZM118.901 72.964C119.499 72.964 119.979 72.7447 120.343 72.306C120.707 71.858 120.889 71.27 120.889 70.542C120.889 69.8233 120.707 69.2447 120.343 68.806C119.979 68.3673 119.499 68.148 118.901 68.148C118.304 68.148 117.823 68.3673 117.459 68.806C117.095 69.2447 116.913 69.8233 116.913 70.542C116.913 71.27 117.095 71.858 117.459 72.306C117.823 72.7447 118.304 72.964 118.901 72.964ZM126.817 67.028C127.023 67.028 127.233 67.0513 127.447 67.098C127.699 67.154 127.825 67.3033 127.825 67.546C127.825 67.6113 127.821 67.658 127.811 67.686L127.741 68.022C127.685 68.2833 127.545 68.414 127.321 68.414L127.195 68.4C127.027 68.372 126.878 68.358 126.747 68.358C126.281 68.358 125.903 68.5447 125.613 68.918C125.333 69.282 125.193 69.7907 125.193 70.444V73.51C125.193 73.6593 125.151 73.7807 125.067 73.874C124.983 73.958 124.862 74 124.703 74H124.199C124.05 74 123.929 73.958 123.835 73.874C123.751 73.7807 123.709 73.6593 123.709 73.51V67.588C123.709 67.4293 123.751 67.308 123.835 67.224C123.929 67.14 124.05 67.098 124.199 67.098H124.605C124.764 67.098 124.885 67.14 124.969 67.224C125.053 67.308 125.095 67.4293 125.095 67.588V68.134C125.263 67.7887 125.492 67.518 125.781 67.322C126.071 67.126 126.416 67.028 126.817 67.028ZM136.311 66.888C137.048 66.888 137.617 67.098 138.019 67.518C138.42 67.9287 138.621 68.484 138.621 69.184V73.51C138.621 73.6593 138.579 73.7807 138.495 73.874C138.411 73.958 138.289 74 138.131 74H137.627C137.477 74 137.356 73.958 137.263 73.874C137.179 73.7807 137.137 73.6593 137.137 73.51V69.632C137.137 69.1747 137.034 68.8153 136.829 68.554C136.623 68.2927 136.311 68.162 135.891 68.162C135.461 68.162 135.121 68.3067 134.869 68.596C134.626 68.8853 134.505 69.2587 134.505 69.716V73.51C134.505 73.6593 134.463 73.7807 134.379 73.874C134.295 73.958 134.173 74 134.015 74H133.511C133.361 74 133.24 73.958 133.147 73.874C133.063 73.7807 133.021 73.6593 133.021 73.51V69.632C133.021 69.1747 132.918 68.8153 132.713 68.554C132.517 68.2927 132.209 68.162 131.789 68.162C131.378 68.162 131.047 68.2973 130.795 68.568C130.543 68.8387 130.407 69.1887 130.389 69.618V73.51C130.389 73.6593 130.347 73.7807 130.263 73.874C130.179 73.958 130.057 74 129.899 74H129.395C129.245 74 129.124 73.958 129.031 73.874C128.947 73.7807 128.905 73.6593 128.905 73.51V67.588C128.905 67.4293 128.947 67.308 129.031 67.224C129.124 67.14 129.245 67.098 129.395 67.098H129.801C129.959 67.098 130.081 67.14 130.165 67.224C130.249 67.308 130.291 67.4293 130.291 67.588V67.896C130.72 67.224 131.383 66.888 132.279 66.888C132.727 66.888 133.119 66.9813 133.455 67.168C133.791 67.3547 134.047 67.616 134.225 67.952C134.701 67.2427 135.396 66.888 136.311 66.888ZM143.233 66.888C144.166 66.888 144.885 67.1073 145.389 67.546C145.893 67.9753 146.145 68.5493 146.145 69.268V73.51C146.145 73.6593 146.103 73.7807 146.019 73.874C145.935 73.958 145.813 74 145.655 74H145.291C145.141 74 145.02 73.958 144.927 73.874C144.843 73.7807 144.801 73.6593 144.801 73.51V73.202C144.577 73.5287 144.269 73.7807 143.877 73.958C143.485 74.1353 143.027 74.224 142.505 74.224C141.786 74.224 141.193 74.0653 140.727 73.748C140.269 73.4213 140.041 72.9313 140.041 72.278C140.041 71.55 140.311 71.0133 140.853 70.668C141.403 70.3133 142.164 70.0473 143.135 69.87L144.717 69.576V69.324C144.717 68.9413 144.581 68.6473 144.311 68.442C144.049 68.2273 143.699 68.12 143.261 68.12C142.887 68.12 142.561 68.1853 142.281 68.316C142.01 68.4373 141.716 68.6427 141.399 68.932C141.277 69.0347 141.161 69.086 141.049 69.086C140.937 69.086 140.82 69.0347 140.699 68.932L140.475 68.736C140.353 68.624 140.293 68.5027 140.293 68.372C140.293 68.2507 140.349 68.134 140.461 68.022C140.862 67.6393 141.287 67.3547 141.735 67.168C142.183 66.9813 142.682 66.888 143.233 66.888ZM142.715 73.034C143.275 73.034 143.746 72.8847 144.129 72.586C144.521 72.2873 144.717 71.858 144.717 71.298V70.654L143.499 70.906C142.817 71.046 142.313 71.2047 141.987 71.382C141.66 71.5593 141.497 71.83 141.497 72.194C141.497 72.4553 141.604 72.6607 141.819 72.81C142.033 72.9593 142.332 73.034 142.715 73.034ZM151.022 72.824C151.05 72.8147 151.092 72.81 151.148 72.81C151.381 72.81 151.521 72.9453 151.568 73.216L151.61 73.44C151.619 73.468 151.624 73.5147 151.624 73.58C151.624 73.8133 151.493 73.9627 151.232 74.028C150.859 74.112 150.518 74.154 150.21 74.154C149.547 74.154 149.067 74 148.768 73.692C148.479 73.384 148.334 72.922 148.334 72.306V68.232H147.564C147.415 68.232 147.293 68.19 147.2 68.106C147.116 68.0127 147.074 67.8913 147.074 67.742V67.588C147.074 67.4293 147.116 67.308 147.2 67.224C147.293 67.14 147.415 67.098 147.564 67.098H148.334V65.362C148.334 65.2033 148.376 65.082 148.46 64.998C148.553 64.914 148.675 64.872 148.824 64.872H149.328C149.487 64.872 149.608 64.914 149.692 64.998C149.776 65.082 149.818 65.2033 149.818 65.362V67.098H151.078C151.237 67.098 151.358 67.14 151.442 67.224C151.526 67.308 151.568 67.4293 151.568 67.588V67.742C151.568 67.8913 151.526 68.0127 151.442 68.106C151.358 68.19 151.237 68.232 151.078 68.232H149.818V72.124C149.818 72.3947 149.874 72.586 149.986 72.698C150.107 72.81 150.299 72.866 150.56 72.866C150.672 72.866 150.826 72.852 151.022 72.824ZM153.546 65.754C153.275 65.754 153.046 65.6653 152.86 65.488C152.673 65.3013 152.58 65.082 152.58 64.83C152.58 64.5687 152.673 64.3493 152.86 64.172C153.046 63.9947 153.275 63.906 153.546 63.906C153.816 63.906 154.045 63.9947 154.232 64.172C154.418 64.3493 154.512 64.5687 154.512 64.83C154.512 65.082 154.418 65.3013 154.232 65.488C154.045 65.6653 153.816 65.754 153.546 65.754ZM153.28 74C153.13 74 153.009 73.958 152.916 73.874C152.832 73.7807 152.79 73.6593 152.79 73.51V67.588C152.79 67.4293 152.832 67.308 152.916 67.224C153.009 67.14 153.13 67.098 153.28 67.098H153.784C153.942 67.098 154.064 67.14 154.148 67.224C154.232 67.308 154.274 67.4293 154.274 67.588V73.51C154.274 73.6593 154.232 73.7807 154.148 73.874C154.064 73.958 153.942 74 153.784 74H153.28ZM159.097 74.21C158.415 74.21 157.809 74.056 157.277 73.748C156.754 73.44 156.343 73.0107 156.045 72.46C155.746 71.9 155.597 71.2607 155.597 70.542C155.597 69.8233 155.746 69.1887 156.045 68.638C156.343 68.0873 156.754 67.658 157.277 67.35C157.809 67.042 158.415 66.888 159.097 66.888C159.769 66.888 160.371 67.042 160.903 67.35C161.435 67.658 161.85 68.092 162.149 68.652C162.447 69.2027 162.597 69.8327 162.597 70.542C162.597 71.2607 162.447 71.9 162.149 72.46C161.85 73.0107 161.435 73.44 160.903 73.748C160.371 74.056 159.769 74.21 159.097 74.21ZM159.097 72.964C159.694 72.964 160.175 72.7447 160.539 72.306C160.903 71.858 161.085 71.27 161.085 70.542C161.085 69.8233 160.903 69.2447 160.539 68.806C160.175 68.3673 159.694 68.148 159.097 68.148C158.499 68.148 158.019 68.3673 157.655 68.806C157.291 69.2447 157.109 69.8233 157.109 70.542C157.109 71.27 157.291 71.858 157.655 72.306C158.019 72.7447 158.499 72.964 159.097 72.964ZM167.419 66.888C168.212 66.888 168.819 67.112 169.239 67.56C169.668 67.9987 169.883 68.568 169.883 69.268V73.51C169.883 73.6593 169.841 73.7807 169.757 73.874C169.673 73.958 169.551 74 169.393 74H168.889C168.739 74 168.618 73.958 168.525 73.874C168.441 73.7807 168.399 73.6593 168.399 73.51V69.73C168.399 69.226 168.273 68.8387 168.021 68.568C167.778 68.2973 167.428 68.162 166.971 68.162C166.523 68.162 166.145 68.316 165.837 68.624C165.538 68.932 165.389 69.3193 165.389 69.786V73.51C165.389 73.6593 165.347 73.7807 165.263 73.874C165.179 73.958 165.057 74 164.899 74H164.395C164.245 74 164.124 73.958 164.031 73.874C163.947 73.7807 163.905 73.6593 163.905 73.51V67.588C163.905 67.4293 163.947 67.308 164.031 67.224C164.124 67.14 164.245 67.098 164.395 67.098H164.801C164.959 67.098 165.081 67.14 165.165 67.224C165.249 67.308 165.291 67.4293 165.291 67.588V67.952C165.515 67.6067 165.809 67.3453 166.173 67.168C166.537 66.9813 166.952 66.888 167.419 66.888Z" fill="#464646"/>
<path d="M60.76 100.196C59.5373 100.196 58.6273 99.9113 58.03 99.342C57.4327 98.7633 57.134 97.956 57.134 96.92V90.34C57.134 90.1533 57.2273 90.06 57.414 90.06H57.848C58.0347 90.06 58.128 90.1533 58.128 90.34V96.85C58.128 97.6713 58.352 98.292 58.8 98.712C59.2573 99.132 59.9107 99.342 60.76 99.342C61.628 99.342 62.286 99.132 62.734 98.712C63.182 98.292 63.406 97.6713 63.406 96.85V90.34C63.406 90.1533 63.4993 90.06 63.686 90.06H64.12C64.3067 90.06 64.4 90.1533 64.4 90.34V96.92C64.4 97.956 64.1013 98.7633 63.504 99.342C62.9067 99.9113 61.992 100.196 60.76 100.196ZM68.9596 100.182C68.3903 100.182 67.8863 100.103 67.4476 99.944C67.0183 99.776 66.5656 99.496 66.0896 99.104C66.0056 99.048 65.9636 98.9827 65.9636 98.908C65.9636 98.8427 65.9963 98.7773 66.0616 98.712L66.2436 98.516C66.2996 98.4413 66.3696 98.404 66.4536 98.404C66.519 98.404 66.5796 98.432 66.6356 98.488C67.0836 98.8333 67.4803 99.076 67.8256 99.216C68.171 99.3467 68.549 99.412 68.9596 99.412C69.473 99.412 69.893 99.3 70.2196 99.076C70.5463 98.8427 70.7096 98.53 70.7096 98.138C70.7096 97.746 70.5416 97.4567 70.2056 97.27C69.8696 97.0833 69.3516 96.9153 68.6516 96.766C68.0356 96.6353 67.5503 96.5 67.1956 96.36C66.8503 96.2107 66.5936 96.024 66.4256 95.8C66.2576 95.576 66.1736 95.282 66.1736 94.918C66.1736 94.3207 66.4163 93.84 66.9016 93.476C67.387 93.112 67.9983 92.93 68.7356 92.93C69.2396 92.93 69.6876 92.9953 70.0796 93.126C70.481 93.2473 70.8823 93.4527 71.2836 93.742C71.3676 93.8073 71.4096 93.8773 71.4096 93.952C71.4096 93.9987 71.3863 94.0593 71.3396 94.134L71.1716 94.344C71.125 94.4187 71.0596 94.456 70.9756 94.456C70.901 94.456 70.8356 94.4327 70.7796 94.386C70.397 94.1153 70.0563 93.9333 69.7576 93.84C69.4683 93.7467 69.137 93.7 68.7636 93.7C68.2503 93.7 67.8396 93.812 67.5316 94.036C67.2236 94.26 67.0696 94.5447 67.0696 94.89C67.0696 95.1047 67.1396 95.2773 67.2796 95.408C67.4196 95.5387 67.6203 95.6507 67.8816 95.744C68.143 95.828 68.5256 95.926 69.0296 96.038C69.963 96.2433 70.6256 96.4953 71.0176 96.794C71.419 97.0927 71.6196 97.5267 71.6196 98.096C71.6196 98.7213 71.3723 99.2253 70.8776 99.608C70.383 99.9907 69.7436 100.182 68.9596 100.182ZM78.2085 98.362C78.2738 98.2967 78.3438 98.264 78.4185 98.264C78.4838 98.264 78.5445 98.292 78.6005 98.348L78.7825 98.516C78.8478 98.5813 78.8805 98.6513 78.8805 98.726C78.8805 98.782 78.8525 98.8473 78.7965 98.922C78.3392 99.3793 77.8958 99.706 77.4665 99.902C77.0372 100.089 76.5565 100.182 76.0245 100.182C75.3525 100.182 74.7692 100.033 74.2745 99.734C73.7798 99.4353 73.3972 99.02 73.1265 98.488C72.8558 97.9467 72.7205 97.3213 72.7205 96.612C72.7205 95.8933 72.8512 95.2587 73.1125 94.708C73.3832 94.148 73.7612 93.714 74.2465 93.406C74.7318 93.0887 75.2918 92.93 75.9265 92.93C76.8692 92.93 77.6112 93.224 78.1525 93.812C78.6938 94.4 78.9645 95.1933 78.9645 96.192V96.36C78.9552 96.444 78.9225 96.5093 78.8665 96.556C78.8198 96.6027 78.7545 96.626 78.6705 96.626H73.6585C73.6865 97.41 73.8918 98.0727 74.2745 98.614C74.6665 99.146 75.2498 99.412 76.0245 99.412C76.4445 99.412 76.8132 99.3373 77.1305 99.188C77.4572 99.0293 77.8165 98.754 78.2085 98.362ZM75.9265 93.7C75.3105 93.7 74.8018 93.8913 74.4005 94.274C74.0085 94.6473 73.7705 95.198 73.6865 95.926H78.0405C78.0218 95.2447 77.8258 94.7033 77.4525 94.302C77.0792 93.9007 76.5705 93.7 75.9265 93.7ZM86.9545 99.23C86.9825 99.2207 87.0199 99.216 87.0665 99.216C87.1225 99.216 87.1739 99.2347 87.2205 99.272C87.2672 99.3093 87.2952 99.3607 87.3045 99.426L87.3465 99.622C87.3559 99.6407 87.3605 99.6733 87.3605 99.72C87.3605 99.8507 87.2905 99.93 87.1505 99.958C86.8145 100.061 86.4552 100.112 86.0725 100.112C85.4659 100.112 85.0319 99.9767 84.7705 99.706C84.5185 99.426 84.3925 99.0247 84.3925 98.502V93.798H83.3565C83.1699 93.798 83.0765 93.7047 83.0765 93.518V93.378C83.0765 93.1913 83.1699 93.098 83.3565 93.098H84.3925V90.97C84.3925 90.7833 84.4859 90.69 84.6725 90.69H85.0365C85.2232 90.69 85.3165 90.7833 85.3165 90.97V93.098H86.9965C87.1832 93.098 87.2765 93.1913 87.2765 93.378V93.518C87.2765 93.7047 87.1832 93.798 86.9965 93.798H85.3165V98.39C85.3165 98.7353 85.3819 98.978 85.5125 99.118C85.6432 99.258 85.8672 99.328 86.1845 99.328C86.4085 99.328 86.6652 99.2953 86.9545 99.23ZM91.7664 92.93C92.5691 92.93 93.1804 93.1587 93.6004 93.616C94.0204 94.064 94.2304 94.6193 94.2304 95.282V99.72C94.2304 99.9067 94.1371 100 93.9504 100H93.5864C93.3997 100 93.3064 99.9067 93.3064 99.72V95.59C93.3064 94.974 93.1571 94.5073 92.8584 94.19C92.5597 93.8727 92.1304 93.714 91.5704 93.714C91.2157 93.714 90.8891 93.8027 90.5904 93.98C90.2917 94.148 90.0537 94.3813 89.8764 94.68C89.6991 94.9787 89.6104 95.3053 89.6104 95.66V99.72C89.6104 99.9067 89.5171 100 89.3304 100H88.9664C88.7797 100 88.6864 99.9067 88.6864 99.72V90.34C88.6864 90.1533 88.7797 90.06 88.9664 90.06H89.3304C89.5171 90.06 89.6104 90.1533 89.6104 90.34V93.994C89.8344 93.6393 90.1331 93.3733 90.5064 93.196C90.8891 93.0187 91.3091 92.93 91.7664 92.93ZM96.7363 91.348C96.5496 91.348 96.3909 91.2827 96.2603 91.152C96.1389 91.0213 96.0783 90.8627 96.0783 90.676C96.0783 90.4893 96.1389 90.3353 96.2603 90.214C96.3909 90.0927 96.5496 90.032 96.7363 90.032C96.9323 90.032 97.0909 90.0927 97.2123 90.214C97.3429 90.3353 97.4083 90.4893 97.4083 90.676C97.4083 90.8627 97.3429 91.0213 97.2123 91.152C97.0909 91.2827 96.9323 91.348 96.7363 91.348ZM96.5543 100C96.3676 100 96.2743 99.9067 96.2743 99.72V93.378C96.2743 93.1913 96.3676 93.098 96.5543 93.098H96.9183C97.1049 93.098 97.1983 93.1913 97.1983 93.378V99.72C97.1983 99.9067 97.1049 100 96.9183 100H96.5543ZM101.663 100.182C101.093 100.182 100.589 100.103 100.151 99.944C99.7214 99.776 99.2688 99.496 98.7928 99.104C98.7088 99.048 98.6668 98.9827 98.6668 98.908C98.6668 98.8427 98.6994 98.7773 98.7648 98.712L98.9468 98.516C99.0028 98.4413 99.0728 98.404 99.1568 98.404C99.2221 98.404 99.2828 98.432 99.3388 98.488C99.7868 98.8333 100.183 99.076 100.529 99.216C100.874 99.3467 101.252 99.412 101.663 99.412C102.176 99.412 102.596 99.3 102.923 99.076C103.249 98.8427 103.413 98.53 103.413 98.138C103.413 97.746 103.245 97.4567 102.909 97.27C102.573 97.0833 102.055 96.9153 101.355 96.766C100.739 96.6353 100.253 96.5 99.8988 96.36C99.5534 96.2107 99.2968 96.024 99.1288 95.8C98.9608 95.576 98.8768 95.282 98.8768 94.918C98.8768 94.3207 99.1194 93.84 99.6048 93.476C100.09 93.112 100.701 92.93 101.439 92.93C101.943 92.93 102.391 92.9953 102.783 93.126C103.184 93.2473 103.585 93.4527 103.987 93.742C104.071 93.8073 104.113 93.8773 104.113 93.952C104.113 93.9987 104.089 94.0593 104.043 94.134L103.875 94.344C103.828 94.4187 103.763 94.456 103.679 94.456C103.604 94.456 103.539 94.4327 103.483 94.386C103.1 94.1153 102.759 93.9333 102.461 93.84C102.171 93.7467 101.84 93.7 101.467 93.7C100.953 93.7 100.543 93.812 100.235 94.036C99.9268 94.26 99.7728 94.5447 99.7728 94.89C99.7728 95.1047 99.8428 95.2773 99.9828 95.408C100.123 95.5387 100.323 95.6507 100.585 95.744C100.846 95.828 101.229 95.926 101.733 96.038C102.666 96.2433 103.329 96.4953 103.721 96.794C104.122 97.0927 104.323 97.5267 104.323 98.096C104.323 98.7213 104.075 99.2253 103.581 99.608C103.086 99.9907 102.447 100.182 101.663 100.182ZM113.368 93.322C113.424 93.1727 113.532 93.098 113.69 93.098H114.054C114.129 93.098 114.19 93.1167 114.236 93.154C114.283 93.1913 114.306 93.2427 114.306 93.308L114.278 93.42L112.052 99.776C111.996 99.9253 111.889 100 111.73 100H110.988C110.83 100 110.722 99.9253 110.666 99.776L108.454 93.42L108.426 93.308C108.426 93.2427 108.45 93.1913 108.496 93.154C108.543 93.1167 108.604 93.098 108.678 93.098H109.056C109.215 93.098 109.322 93.1727 109.378 93.322L110.232 95.786C110.587 96.8127 110.965 97.9933 111.366 99.328C111.385 99.272 111.436 99.1133 111.52 98.852C111.903 97.592 112.234 96.57 112.514 95.786L113.368 93.322ZM118.266 92.93C119.116 92.93 119.778 93.1353 120.254 93.546C120.73 93.9473 120.968 94.4793 120.968 95.142V99.72C120.968 99.9067 120.875 100 120.688 100H120.408C120.222 100 120.128 99.9067 120.128 99.72V99.09C119.895 99.4633 119.564 99.7433 119.134 99.93C118.714 100.117 118.243 100.21 117.72 100.21C116.992 100.21 116.4 100.056 115.942 99.748C115.485 99.44 115.256 98.964 115.256 98.32C115.256 97.8067 115.401 97.396 115.69 97.088C115.98 96.7707 116.358 96.5327 116.824 96.374C117.291 96.206 117.874 96.0567 118.574 95.926L120.086 95.66V95.212C120.086 94.736 119.923 94.3673 119.596 94.106C119.27 93.8353 118.84 93.7 118.308 93.7C117.907 93.7 117.543 93.7747 117.216 93.924C116.89 94.0733 116.54 94.33 116.166 94.694C116.101 94.7593 116.031 94.792 115.956 94.792C115.891 94.792 115.83 94.764 115.774 94.708L115.592 94.54C115.527 94.4747 115.494 94.4047 115.494 94.33C115.494 94.246 115.527 94.1713 115.592 94.106C115.984 93.6953 116.395 93.3967 116.824 93.21C117.263 93.0233 117.744 92.93 118.266 92.93ZM117.762 99.44C118.434 99.44 118.99 99.2627 119.428 98.908C119.867 98.5533 120.086 98.1007 120.086 97.55V96.374L118.784 96.626C118.178 96.7473 117.697 96.864 117.342 96.976C116.988 97.088 116.703 97.2513 116.488 97.466C116.274 97.6807 116.166 97.9607 116.166 98.306C116.166 98.6607 116.306 98.9407 116.586 99.146C116.876 99.342 117.268 99.44 117.762 99.44ZM125.592 93.042C125.826 93.042 126.101 93.0793 126.418 93.154C126.586 93.21 126.652 93.3267 126.614 93.504L126.558 93.728C126.512 93.9053 126.395 93.9707 126.208 93.924C125.984 93.868 125.779 93.84 125.592 93.84C125.116 93.84 124.72 94.0453 124.402 94.456C124.094 94.8667 123.94 95.436 123.94 96.164V99.72C123.94 99.9067 123.847 100 123.66 100H123.296C123.11 100 123.016 99.9067 123.016 99.72V93.378C123.016 93.1913 123.11 93.098 123.296 93.098H123.604C123.791 93.098 123.884 93.1913 123.884 93.378V94.148C124.043 93.8027 124.267 93.532 124.556 93.336C124.855 93.14 125.2 93.042 125.592 93.042ZM128.332 91.348C128.145 91.348 127.987 91.2827 127.856 91.152C127.735 91.0213 127.674 90.8627 127.674 90.676C127.674 90.4893 127.735 90.3353 127.856 90.214C127.987 90.0927 128.145 90.032 128.332 90.032C128.528 90.032 128.687 90.0927 128.808 90.214C128.939 90.3353 129.004 90.4893 129.004 90.676C129.004 90.8627 128.939 91.0213 128.808 91.152C128.687 91.2827 128.528 91.348 128.332 91.348ZM128.15 100C127.963 100 127.87 99.9067 127.87 99.72V93.378C127.87 93.1913 127.963 93.098 128.15 93.098H128.514C128.701 93.098 128.794 93.1913 128.794 93.378V99.72C128.794 99.9067 128.701 100 128.514 100H128.15ZM133.51 92.93C134.36 92.93 135.022 93.1353 135.498 93.546C135.974 93.9473 136.212 94.4793 136.212 95.142V99.72C136.212 99.9067 136.119 100 135.932 100H135.652C135.466 100 135.372 99.9067 135.372 99.72V99.09C135.139 99.4633 134.808 99.7433 134.378 99.93C133.958 100.117 133.487 100.21 132.964 100.21C132.236 100.21 131.644 100.056 131.186 99.748C130.729 99.44 130.5 98.964 130.5 98.32C130.5 97.8067 130.645 97.396 130.934 97.088C131.224 96.7707 131.602 96.5327 132.068 96.374C132.535 96.206 133.118 96.0567 133.818 95.926L135.33 95.66V95.212C135.33 94.736 135.167 94.3673 134.84 94.106C134.514 93.8353 134.084 93.7 133.552 93.7C133.151 93.7 132.787 93.7747 132.46 93.924C132.134 94.0733 131.784 94.33 131.41 94.694C131.345 94.7593 131.275 94.792 131.2 94.792C131.135 94.792 131.074 94.764 131.018 94.708L130.836 94.54C130.771 94.4747 130.738 94.4047 130.738 94.33C130.738 94.246 130.771 94.1713 130.836 94.106C131.228 93.6953 131.639 93.3967 132.068 93.21C132.507 93.0233 132.988 92.93 133.51 92.93ZM133.006 99.44C133.678 99.44 134.234 99.2627 134.672 98.908C135.111 98.5533 135.33 98.1007 135.33 97.55V96.374L134.028 96.626C133.422 96.7473 132.941 96.864 132.586 96.976C132.232 97.088 131.947 97.2513 131.732 97.466C131.518 97.6807 131.41 97.9607 131.41 98.306C131.41 98.6607 131.55 98.9407 131.83 99.146C132.12 99.342 132.512 99.44 133.006 99.44ZM141.341 92.93C142.153 92.93 142.764 93.154 143.175 93.602C143.595 94.05 143.805 94.61 143.805 95.282V99.72C143.805 99.9067 143.711 100 143.525 100H143.161C142.974 100 142.881 99.9067 142.881 99.72V95.59C142.881 94.974 142.731 94.5073 142.433 94.19C142.134 93.8727 141.705 93.714 141.145 93.714C140.79 93.714 140.463 93.8027 140.165 93.98C139.866 94.148 139.628 94.3813 139.451 94.68C139.273 94.9787 139.185 95.3053 139.185 95.66V99.72C139.185 99.9067 139.091 100 138.905 100H138.541C138.354 100 138.261 99.9067 138.261 99.72V93.378C138.261 93.1913 138.354 93.098 138.541 93.098H138.849C139.035 93.098 139.129 93.1913 139.129 93.378V94.05C139.362 93.6767 139.67 93.3967 140.053 93.21C140.435 93.0233 140.865 92.93 141.341 92.93ZM148.765 99.23C148.793 99.2207 148.83 99.216 148.877 99.216C148.933 99.216 148.984 99.2347 149.031 99.272C149.078 99.3093 149.106 99.3607 149.115 99.426L149.157 99.622C149.166 99.6407 149.171 99.6733 149.171 99.72C149.171 99.8507 149.101 99.93 148.961 99.958C148.625 100.061 148.266 100.112 147.883 100.112C147.276 100.112 146.842 99.9767 146.581 99.706C146.329 99.426 146.203 99.0247 146.203 98.502V93.798H145.167C144.98 93.798 144.887 93.7047 144.887 93.518V93.378C144.887 93.1913 144.98 93.098 145.167 93.098H146.203V90.97C146.203 90.7833 146.296 90.69 146.483 90.69H146.847C147.034 90.69 147.127 90.7833 147.127 90.97V93.098H148.807C148.994 93.098 149.087 93.1913 149.087 93.378V93.518C149.087 93.7047 148.994 93.798 148.807 93.798H147.127V98.39C147.127 98.7353 147.192 98.978 147.323 99.118C147.454 99.258 147.678 99.328 147.995 99.328C148.219 99.328 148.476 99.2953 148.765 99.23ZM156.832 99.23C156.86 99.2207 156.897 99.216 156.944 99.216C157 99.216 157.051 99.2347 157.098 99.272C157.144 99.3093 157.172 99.3607 157.182 99.426L157.224 99.622C157.233 99.6407 157.238 99.6733 157.238 99.72C157.238 99.8507 157.168 99.93 157.028 99.958C156.692 100.061 156.332 100.112 155.95 100.112C155.343 100.112 154.909 99.9767 154.648 99.706C154.396 99.426 154.27 99.0247 154.27 98.502V93.798H153.234C153.047 93.798 152.954 93.7047 152.954 93.518V93.378C152.954 93.1913 153.047 93.098 153.234 93.098H154.27V90.97C154.27 90.7833 154.363 90.69 154.55 90.69H154.914C155.1 90.69 155.194 90.7833 155.194 90.97V93.098H156.874C157.06 93.098 157.154 93.1913 157.154 93.378V93.518C157.154 93.7047 157.06 93.798 156.874 93.798H155.194V98.39C155.194 98.7353 155.259 98.978 155.39 99.118C155.52 99.258 155.744 99.328 156.062 99.328C156.286 99.328 156.542 99.2953 156.832 99.23ZM161.16 100.182C160.516 100.182 159.942 100.028 159.438 99.72C158.934 99.412 158.542 98.9873 158.262 98.446C157.982 97.8953 157.842 97.2653 157.842 96.556C157.842 95.8467 157.982 95.2213 158.262 94.68C158.542 94.1293 158.934 93.7 159.438 93.392C159.942 93.084 160.516 92.93 161.16 92.93C161.804 92.93 162.378 93.084 162.882 93.392C163.386 93.7 163.778 94.1293 164.058 94.68C164.338 95.2213 164.478 95.8467 164.478 96.556C164.478 97.2653 164.338 97.8953 164.058 98.446C163.778 98.9873 163.386 99.412 162.882 99.72C162.378 100.028 161.804 100.182 161.16 100.182ZM161.16 99.412C161.878 99.412 162.452 99.1507 162.882 98.628C163.311 98.096 163.526 97.4053 163.526 96.556C163.526 95.7067 163.311 95.0207 162.882 94.498C162.452 93.966 161.878 93.7 161.16 93.7C160.441 93.7 159.867 93.966 159.438 94.498C159.008 95.0207 158.794 95.7067 158.794 96.556C158.794 97.4053 159.008 98.096 159.438 98.628C159.867 99.1507 160.441 99.412 161.16 99.412ZM172.109 100.182C171.447 100.182 170.868 100.033 170.373 99.734C169.888 99.426 169.51 99.0013 169.239 98.46C168.978 97.9093 168.847 97.2747 168.847 96.556C168.847 95.8467 168.978 95.2167 169.239 94.666C169.51 94.1153 169.888 93.6907 170.373 93.392C170.868 93.084 171.437 92.93 172.081 92.93C172.604 92.93 173.061 93.0187 173.453 93.196C173.845 93.364 174.223 93.644 174.587 94.036C174.643 94.092 174.671 94.1527 174.671 94.218C174.671 94.302 174.634 94.372 174.559 94.428L174.363 94.61C174.307 94.666 174.242 94.694 174.167 94.694C174.102 94.694 174.032 94.6567 173.957 94.582C173.631 94.2553 173.318 94.0267 173.019 93.896C172.73 93.7653 172.408 93.7 172.053 93.7C171.568 93.7 171.153 93.8353 170.807 94.106C170.471 94.3767 170.219 94.7313 170.051 95.17C169.883 95.5993 169.799 96.0613 169.799 96.556C169.799 97.0507 169.883 97.5173 170.051 97.956C170.219 98.3853 170.476 98.7353 170.821 99.006C171.167 99.2673 171.591 99.398 172.095 99.398C172.469 99.398 172.795 99.3327 173.075 99.202C173.365 99.062 173.687 98.8007 174.041 98.418C174.116 98.3433 174.186 98.306 174.251 98.306C174.326 98.306 174.391 98.334 174.447 98.39L174.643 98.544C174.709 98.6 174.741 98.6653 174.741 98.74C174.741 98.8147 174.699 98.9033 174.615 99.006C174.223 99.4353 173.831 99.7387 173.439 99.916C173.047 100.093 172.604 100.182 172.109 100.182ZM179.024 92.93C179.873 92.93 180.536 93.1353 181.012 93.546C181.488 93.9473 181.726 94.4793 181.726 95.142V99.72C181.726 99.9067 181.633 100 181.446 100H181.166C180.979 100 180.886 99.9067 180.886 99.72V99.09C180.653 99.4633 180.321 99.7433 179.892 99.93C179.472 100.117 179.001 100.21 178.478 100.21C177.75 100.21 177.157 100.056 176.7 99.748C176.243 99.44 176.014 98.964 176.014 98.32C176.014 97.8067 176.159 97.396 176.448 97.088C176.737 96.7707 177.115 96.5327 177.582 96.374C178.049 96.206 178.632 96.0567 179.332 95.926L180.844 95.66V95.212C180.844 94.736 180.681 94.3673 180.354 94.106C180.027 93.8353 179.598 93.7 179.066 93.7C178.665 93.7 178.301 93.7747 177.974 93.924C177.647 94.0733 177.297 94.33 176.924 94.694C176.859 94.7593 176.789 94.792 176.714 94.792C176.649 94.792 176.588 94.764 176.532 94.708L176.35 94.54C176.285 94.4747 176.252 94.4047 176.252 94.33C176.252 94.246 176.285 94.1713 176.35 94.106C176.742 93.6953 177.153 93.3967 177.582 93.21C178.021 93.0233 178.501 92.93 179.024 92.93ZM178.52 99.44C179.192 99.44 179.747 99.2627 180.186 98.908C180.625 98.5533 180.844 98.1007 180.844 97.55V96.374L179.542 96.626C178.935 96.7473 178.455 96.864 178.1 96.976C177.745 97.088 177.461 97.2513 177.246 97.466C177.031 97.6807 176.924 97.9607 176.924 98.306C176.924 98.6607 177.064 98.9407 177.344 99.146C177.633 99.342 178.025 99.44 178.52 99.44ZM184.068 100C183.882 100 183.788 99.9067 183.788 99.72V90.34C183.788 90.1533 183.882 90.06 184.068 90.06H184.432C184.619 90.06 184.712 90.1533 184.712 90.34V99.72C184.712 99.9067 184.619 100 184.432 100H184.068ZM187.09 100C186.903 100 186.81 99.9067 186.81 99.72V90.34C186.81 90.1533 186.903 90.06 187.09 90.06H187.454C187.64 90.06 187.734 90.1533 187.734 90.34V99.72C187.734 99.9067 187.64 100 187.454 100H187.09ZM198.07 98.362C198.135 98.2967 198.205 98.264 198.28 98.264C198.345 98.264 198.406 98.292 198.462 98.348L198.644 98.516C198.709 98.5813 198.742 98.6513 198.742 98.726C198.742 98.782 198.714 98.8473 198.658 98.922C198.2 99.3793 197.757 99.706 197.328 99.902C196.898 100.089 196.418 100.182 195.886 100.182C195.214 100.182 194.63 100.033 194.136 99.734C193.641 99.4353 193.258 99.02 192.988 98.488C192.717 97.9467 192.582 97.3213 192.582 96.612C192.582 95.8933 192.712 95.2587 192.974 94.708C193.244 94.148 193.622 93.714 194.108 93.406C194.593 93.0887 195.153 92.93 195.788 92.93C196.73 92.93 197.472 93.224 198.014 93.812C198.555 94.4 198.826 95.1933 198.826 96.192V96.36C198.816 96.444 198.784 96.5093 198.728 96.556C198.681 96.6027 198.616 96.626 198.532 96.626H193.52C193.548 97.41 193.753 98.0727 194.136 98.614C194.528 99.146 195.111 99.412 195.886 99.412C196.306 99.412 196.674 99.3373 196.992 99.188C197.318 99.0293 197.678 98.754 198.07 98.362ZM195.788 93.7C195.172 93.7 194.663 93.8913 194.262 94.274C193.87 94.6473 193.632 95.198 193.548 95.926H197.902C197.883 95.2447 197.687 94.7033 197.314 94.302C196.94 93.9007 196.432 93.7 195.788 93.7ZM205.372 99.664C205.409 99.7293 205.428 99.7853 205.428 99.832C205.428 99.944 205.353 100 205.204 100H204.784C204.644 100 204.532 99.9393 204.448 99.818L202.544 97.018L200.654 99.818C200.57 99.9393 200.458 100 200.318 100H199.926C199.851 100 199.79 99.986 199.744 99.958C199.706 99.9207 199.688 99.8787 199.688 99.832C199.688 99.7667 199.706 99.7107 199.744 99.664L202.012 96.402L199.926 93.434C199.888 93.3873 199.87 93.336 199.87 93.28C199.87 93.1587 199.949 93.098 200.108 93.098H200.514C200.654 93.098 200.766 93.1587 200.85 93.28L202.558 95.786L204.252 93.28C204.336 93.1587 204.448 93.098 204.588 93.098H204.966C205.04 93.098 205.096 93.1167 205.134 93.154C205.18 93.182 205.204 93.2193 205.204 93.266C205.204 93.3313 205.185 93.3873 205.148 93.434L203.104 96.36L205.372 99.664ZM210.015 99.23C210.043 99.2207 210.08 99.216 210.127 99.216C210.183 99.216 210.234 99.2347 210.281 99.272C210.328 99.3093 210.356 99.3607 210.365 99.426L210.407 99.622C210.416 99.6407 210.421 99.6733 210.421 99.72C210.421 99.8507 210.351 99.93 210.211 99.958C209.875 100.061 209.516 100.112 209.133 100.112C208.526 100.112 208.092 99.9767 207.831 99.706C207.579 99.426 207.453 99.0247 207.453 98.502V93.798H206.417C206.23 93.798 206.137 93.7047 206.137 93.518V93.378C206.137 93.1913 206.23 93.098 206.417 93.098H207.453V90.97C207.453 90.7833 207.546 90.69 207.733 90.69H208.097C208.284 90.69 208.377 90.7833 208.377 90.97V93.098H210.057C210.244 93.098 210.337 93.1913 210.337 93.378V93.518C210.337 93.7047 210.244 93.798 210.057 93.798H208.377V98.39C208.377 98.7353 208.442 98.978 208.573 99.118C208.704 99.258 208.928 99.328 209.245 99.328C209.469 99.328 209.726 99.2953 210.015 99.23ZM214.323 93.042C214.556 93.042 214.832 93.0793 215.149 93.154C215.317 93.21 215.382 93.3267 215.345 93.504L215.289 93.728C215.242 93.9053 215.126 93.9707 214.939 93.924C214.715 93.868 214.51 93.84 214.323 93.84C213.847 93.84 213.45 94.0453 213.133 94.456C212.825 94.8667 212.671 95.436 212.671 96.164V99.72C212.671 99.9067 212.578 100 212.391 100H212.027C211.84 100 211.747 99.9067 211.747 99.72V93.378C211.747 93.1913 211.84 93.098 212.027 93.098H212.335C212.522 93.098 212.615 93.1913 212.615 93.378V94.148C212.774 93.8027 212.998 93.532 213.287 93.336C213.586 93.14 213.931 93.042 214.323 93.042ZM219.083 92.93C219.932 92.93 220.595 93.1353 221.071 93.546C221.547 93.9473 221.785 94.4793 221.785 95.142V99.72C221.785 99.9067 221.691 100 221.505 100H221.225C221.038 100 220.945 99.9067 220.945 99.72V99.09C220.711 99.4633 220.38 99.7433 219.951 99.93C219.531 100.117 219.059 100.21 218.537 100.21C217.809 100.21 217.216 100.056 216.759 99.748C216.301 99.44 216.073 98.964 216.073 98.32C216.073 97.8067 216.217 97.396 216.507 97.088C216.796 96.7707 217.174 96.5327 217.641 96.374C218.107 96.206 218.691 96.0567 219.391 95.926L220.903 95.66V95.212C220.903 94.736 220.739 94.3673 220.413 94.106C220.086 93.8353 219.657 93.7 219.125 93.7C218.723 93.7 218.359 93.7747 218.033 93.924C217.706 94.0733 217.356 94.33 216.983 94.694C216.917 94.7593 216.847 94.792 216.773 94.792C216.707 94.792 216.647 94.764 216.591 94.708L216.409 94.54C216.343 94.4747 216.311 94.4047 216.311 94.33C216.311 94.246 216.343 94.1713 216.409 94.106C216.801 93.6953 217.211 93.3967 217.641 93.21C218.079 93.0233 218.56 92.93 219.083 92.93ZM218.579 99.44C219.251 99.44 219.806 99.2627 220.245 98.908C220.683 98.5533 220.903 98.1007 220.903 97.55V96.374L219.601 96.626C218.994 96.7473 218.513 96.864 218.159 96.976C217.804 97.088 217.519 97.2513 217.305 97.466C217.09 97.6807 216.983 97.9607 216.983 98.306C216.983 98.6607 217.123 98.9407 217.403 99.146C217.692 99.342 218.084 99.44 218.579 99.44ZM229.719 92.93C230.569 92.93 231.231 93.1353 231.707 93.546C232.183 93.9473 232.421 94.4793 232.421 95.142V99.72C232.421 99.9067 232.328 100 232.141 100H231.861C231.675 100 231.581 99.9067 231.581 99.72V99.09C231.348 99.4633 231.017 99.7433 230.587 99.93C230.167 100.117 229.696 100.21 229.173 100.21C228.445 100.21 227.853 100.056 227.395 99.748C226.938 99.44 226.709 98.964 226.709 98.32C226.709 97.8067 226.854 97.396 227.143 97.088C227.433 96.7707 227.811 96.5327 228.277 96.374C228.744 96.206 229.327 96.0567 230.027 95.926L231.539 95.66V95.212C231.539 94.736 231.376 94.3673 231.049 94.106C230.723 93.8353 230.293 93.7 229.761 93.7C229.36 93.7 228.996 93.7747 228.669 93.924C228.343 94.0733 227.993 94.33 227.619 94.694C227.554 94.7593 227.484 94.792 227.409 94.792C227.344 94.792 227.283 94.764 227.227 94.708L227.045 94.54C226.98 94.4747 226.947 94.4047 226.947 94.33C226.947 94.246 226.98 94.1713 227.045 94.106C227.437 93.6953 227.848 93.3967 228.277 93.21C228.716 93.0233 229.197 92.93 229.719 92.93ZM229.215 99.44C229.887 99.44 230.443 99.2627 230.881 98.908C231.32 98.5533 231.539 98.1007 231.539 97.55V96.374L230.237 96.626C229.631 96.7473 229.15 96.864 228.795 96.976C228.441 97.088 228.156 97.2513 227.941 97.466C227.727 97.6807 227.619 97.9607 227.619 98.306C227.619 98.6607 227.759 98.9407 228.039 99.146C228.329 99.342 228.721 99.44 229.215 99.44ZM237.386 99.23C237.414 99.2207 237.452 99.216 237.498 99.216C237.554 99.216 237.606 99.2347 237.652 99.272C237.699 99.3093 237.727 99.3607 237.736 99.426L237.778 99.622C237.788 99.6407 237.792 99.6733 237.792 99.72C237.792 99.8507 237.722 99.93 237.582 99.958C237.246 100.061 236.887 100.112 236.504 100.112C235.898 100.112 235.464 99.9767 235.202 99.706C234.95 99.426 234.824 99.0247 234.824 98.502V93.798H233.788C233.602 93.798 233.508 93.7047 233.508 93.518V93.378C233.508 93.1913 233.602 93.098 233.788 93.098H234.824V90.97C234.824 90.7833 234.918 90.69 235.104 90.69H235.468C235.655 90.69 235.748 90.7833 235.748 90.97V93.098H237.428C237.615 93.098 237.708 93.1913 237.708 93.378V93.518C237.708 93.7047 237.615 93.798 237.428 93.798H235.748V98.39C235.748 98.7353 235.814 98.978 235.944 99.118C236.075 99.258 236.299 99.328 236.616 99.328C236.84 99.328 237.097 99.2953 237.386 99.23ZM242.253 99.23C242.281 99.2207 242.319 99.216 242.365 99.216C242.421 99.216 242.473 99.2347 242.519 99.272C242.566 99.3093 242.594 99.3607 242.603 99.426L242.645 99.622C242.655 99.6407 242.659 99.6733 242.659 99.72C242.659 99.8507 242.589 99.93 242.449 99.958C242.113 100.061 241.754 100.112 241.371 100.112C240.765 100.112 240.331 99.9767 240.069 99.706C239.817 99.426 239.691 99.0247 239.691 98.502V93.798H238.655C238.469 93.798 238.375 93.7047 238.375 93.518V93.378C238.375 93.1913 238.469 93.098 238.655 93.098H239.691V90.97C239.691 90.7833 239.785 90.69 239.971 90.69H240.335C240.522 90.69 240.615 90.7833 240.615 90.97V93.098H242.295C242.482 93.098 242.575 93.1913 242.575 93.378V93.518C242.575 93.7047 242.482 93.798 242.295 93.798H240.615V98.39C240.615 98.7353 240.681 98.978 240.811 99.118C240.942 99.258 241.166 99.328 241.483 99.328C241.707 99.328 241.964 99.2953 242.253 99.23ZM248.751 98.362C248.817 98.2967 248.887 98.264 248.961 98.264C249.027 98.264 249.087 98.292 249.143 98.348L249.325 98.516C249.391 98.5813 249.423 98.6513 249.423 98.726C249.423 98.782 249.395 98.8473 249.339 98.922C248.882 99.3793 248.439 99.706 248.009 99.902C247.58 100.089 247.099 100.182 246.567 100.182C245.895 100.182 245.312 100.033 244.817 99.734C244.323 99.4353 243.94 99.02 243.669 98.488C243.399 97.9467 243.263 97.3213 243.263 96.612C243.263 95.8933 243.394 95.2587 243.655 94.708C243.926 94.148 244.304 93.714 244.789 93.406C245.275 93.0887 245.835 92.93 246.469 92.93C247.412 92.93 248.154 93.224 248.695 93.812C249.237 94.4 249.507 95.1933 249.507 96.192V96.36C249.498 96.444 249.465 96.5093 249.409 96.556C249.363 96.6027 249.297 96.626 249.213 96.626H244.201C244.229 97.41 244.435 98.0727 244.817 98.614C245.209 99.146 245.793 99.412 246.567 99.412C246.987 99.412 247.356 99.3373 247.673 99.188C248 99.0293 248.359 98.754 248.751 98.362ZM246.469 93.7C245.853 93.7 245.345 93.8913 244.943 94.274C244.551 94.6473 244.313 95.198 244.229 95.926H248.583C248.565 95.2447 248.369 94.7033 247.995 94.302C247.622 93.9007 247.113 93.7 246.469 93.7ZM254.243 92.93C255.055 92.93 255.666 93.154 256.077 93.602C256.497 94.05 256.707 94.61 256.707 95.282V99.72C256.707 99.9067 256.614 100 256.427 100H256.063C255.876 100 255.783 99.9067 255.783 99.72V95.59C255.783 94.974 255.634 94.5073 255.335 94.19C255.036 93.8727 254.607 93.714 254.047 93.714C253.692 93.714 253.366 93.8027 253.067 93.98C252.768 94.148 252.53 94.3813 252.353 94.68C252.176 94.9787 252.087 95.3053 252.087 95.66V99.72C252.087 99.9067 251.994 100 251.807 100H251.443C251.256 100 251.163 99.9067 251.163 99.72V93.378C251.163 93.1913 251.256 93.098 251.443 93.098H251.751C251.938 93.098 252.031 93.1913 252.031 93.378V94.05C252.264 93.6767 252.572 93.3967 252.955 93.21C253.338 93.0233 253.767 92.93 254.243 92.93ZM261.667 99.23C261.695 99.2207 261.733 99.216 261.779 99.216C261.835 99.216 261.887 99.2347 261.933 99.272C261.98 99.3093 262.008 99.3607 262.017 99.426L262.059 99.622C262.069 99.6407 262.073 99.6733 262.073 99.72C262.073 99.8507 262.003 99.93 261.863 99.958C261.527 100.061 261.168 100.112 260.785 100.112C260.179 100.112 259.745 99.9767 259.483 99.706C259.231 99.426 259.105 99.0247 259.105 98.502V93.798H258.069C257.883 93.798 257.789 93.7047 257.789 93.518V93.378C257.789 93.1913 257.883 93.098 258.069 93.098H259.105V90.97C259.105 90.7833 259.199 90.69 259.385 90.69H259.749C259.936 90.69 260.029 90.7833 260.029 90.97V93.098H261.709C261.896 93.098 261.989 93.1913 261.989 93.378V93.518C261.989 93.7047 261.896 93.798 261.709 93.798H260.029V98.39C260.029 98.7353 260.095 98.978 260.225 99.118C260.356 99.258 260.58 99.328 260.897 99.328C261.121 99.328 261.378 99.2953 261.667 99.23ZM263.861 91.348C263.675 91.348 263.516 91.2827 263.385 91.152C263.264 91.0213 263.203 90.8627 263.203 90.676C263.203 90.4893 263.264 90.3353 263.385 90.214C263.516 90.0927 263.675 90.032 263.861 90.032C264.057 90.032 264.216 90.0927 264.337 90.214C264.468 90.3353 264.533 90.4893 264.533 90.676C264.533 90.8627 264.468 91.0213 264.337 91.152C264.216 91.2827 264.057 91.348 263.861 91.348ZM263.679 100C263.493 100 263.399 99.9067 263.399 99.72V93.378C263.399 93.1913 263.493 93.098 263.679 93.098H264.043C264.23 93.098 264.323 93.1913 264.323 93.378V99.72C264.323 99.9067 264.23 100 264.043 100H263.679ZM269.236 100.182C268.592 100.182 268.018 100.028 267.514 99.72C267.01 99.412 266.618 98.9873 266.338 98.446C266.058 97.8953 265.918 97.2653 265.918 96.556C265.918 95.8467 266.058 95.2213 266.338 94.68C266.618 94.1293 267.01 93.7 267.514 93.392C268.018 93.084 268.592 92.93 269.236 92.93C269.88 92.93 270.454 93.084 270.958 93.392C271.462 93.7 271.854 94.1293 272.134 94.68C272.414 95.2213 272.554 95.8467 272.554 96.556C272.554 97.2653 272.414 97.8953 272.134 98.446C271.854 98.9873 271.462 99.412 270.958 99.72C270.454 100.028 269.88 100.182 269.236 100.182ZM269.236 99.412C269.954 99.412 270.528 99.1507 270.958 98.628C271.387 98.096 271.602 97.4053 271.602 96.556C271.602 95.7067 271.387 95.0207 270.958 94.498C270.528 93.966 269.954 93.7 269.236 93.7C268.517 93.7 267.943 93.966 267.514 94.498C267.084 95.0207 266.87 95.7067 266.87 96.556C266.87 97.4053 267.084 98.096 267.514 98.628C267.943 99.1507 268.517 99.412 269.236 99.412ZM277.239 92.93C278.051 92.93 278.662 93.154 279.073 93.602C279.493 94.05 279.703 94.61 279.703 95.282V99.72C279.703 99.9067 279.61 100 279.423 100H279.059C278.872 100 278.779 99.9067 278.779 99.72V95.59C278.779 94.974 278.63 94.5073 278.331 94.19C278.032 93.8727 277.603 93.714 277.043 93.714C276.688 93.714 276.362 93.8027 276.063 93.98C275.764 94.148 275.526 94.3813 275.349 94.68C275.172 94.9787 275.083 95.3053 275.083 95.66V99.72C275.083 99.9067 274.99 100 274.803 100H274.439C274.252 100 274.159 99.9067 274.159 99.72V93.378C274.159 93.1913 274.252 93.098 274.439 93.098H274.747C274.934 93.098 275.027 93.1913 275.027 93.378V94.05C275.26 93.6767 275.568 93.3967 275.951 93.21C276.334 93.0233 276.763 92.93 277.239 92.93ZM288.082 99.23C288.11 99.2207 288.147 99.216 288.194 99.216C288.25 99.216 288.301 99.2347 288.348 99.272C288.394 99.3093 288.422 99.3607 288.432 99.426L288.474 99.622C288.483 99.6407 288.488 99.6733 288.488 99.72C288.488 99.8507 288.418 99.93 288.278 99.958C287.942 100.061 287.582 100.112 287.2 100.112C286.593 100.112 286.159 99.9767 285.898 99.706C285.646 99.426 285.52 99.0247 285.52 98.502V93.798H284.484C284.297 93.798 284.204 93.7047 284.204 93.518V93.378C284.204 93.1913 284.297 93.098 284.484 93.098H285.52V90.97C285.52 90.7833 285.613 90.69 285.8 90.69H286.164C286.35 90.69 286.444 90.7833 286.444 90.97V93.098H288.124C288.31 93.098 288.404 93.1913 288.404 93.378V93.518C288.404 93.7047 288.31 93.798 288.124 93.798H286.444V98.39C286.444 98.7353 286.509 98.978 286.64 99.118C286.77 99.258 286.994 99.328 287.312 99.328C287.536 99.328 287.792 99.2953 288.082 99.23ZM292.41 100.182C291.766 100.182 291.192 100.028 290.688 99.72C290.184 99.412 289.792 98.9873 289.512 98.446C289.232 97.8953 289.092 97.2653 289.092 96.556C289.092 95.8467 289.232 95.2213 289.512 94.68C289.792 94.1293 290.184 93.7 290.688 93.392C291.192 93.084 291.766 92.93 292.41 92.93C293.054 92.93 293.628 93.084 294.132 93.392C294.636 93.7 295.028 94.1293 295.308 94.68C295.588 95.2213 295.728 95.8467 295.728 96.556C295.728 97.2653 295.588 97.8953 295.308 98.446C295.028 98.9873 294.636 99.412 294.132 99.72C293.628 100.028 293.054 100.182 292.41 100.182ZM292.41 99.412C293.128 99.412 293.702 99.1507 294.132 98.628C294.561 98.096 294.776 97.4053 294.776 96.556C294.776 95.7067 294.561 95.0207 294.132 94.498C293.702 93.966 293.128 93.7 292.41 93.7C291.691 93.7 291.117 93.966 290.688 94.498C290.258 95.0207 290.044 95.7067 290.044 96.556C290.044 97.4053 290.258 98.096 290.688 98.628C291.117 99.1507 291.691 99.412 292.41 99.412ZM61.516 111.378C61.516 111.191 61.6093 111.098 61.796 111.098H62.16C62.3467 111.098 62.44 111.191 62.44 111.378V117.72C62.44 117.907 62.3467 118 62.16 118H61.866C61.6793 118 61.586 117.907 61.586 117.72V117.09C61.3807 117.454 61.0867 117.729 60.704 117.916C60.3307 118.093 59.92 118.182 59.472 118.182C58.632 118.182 58.0113 117.972 57.61 117.552C57.2087 117.123 57.008 116.572 57.008 115.9V111.378C57.008 111.191 57.1013 111.098 57.288 111.098H57.652C57.8387 111.098 57.932 111.191 57.932 111.378V115.704C57.932 116.255 58.0673 116.675 58.338 116.964C58.618 117.244 59.0147 117.384 59.528 117.384C60.1067 117.384 60.5827 117.207 60.956 116.852C61.3293 116.497 61.516 115.993 61.516 115.34V111.378ZM66.9225 118.182C66.3532 118.182 65.8492 118.103 65.4105 117.944C64.9812 117.776 64.5285 117.496 64.0525 117.104C63.9685 117.048 63.9265 116.983 63.9265 116.908C63.9265 116.843 63.9592 116.777 64.0245 116.712L64.2065 116.516C64.2625 116.441 64.3325 116.404 64.4165 116.404C64.4818 116.404 64.5425 116.432 64.5985 116.488C65.0465 116.833 65.4432 117.076 65.7885 117.216C66.1338 117.347 66.5118 117.412 66.9225 117.412C67.4358 117.412 67.8558 117.3 68.1825 117.076C68.5092 116.843 68.6725 116.53 68.6725 116.138C68.6725 115.746 68.5045 115.457 68.1685 115.27C67.8325 115.083 67.3145 114.915 66.6145 114.766C65.9985 114.635 65.5132 114.5 65.1585 114.36C64.8132 114.211 64.5565 114.024 64.3885 113.8C64.2205 113.576 64.1365 113.282 64.1365 112.918C64.1365 112.321 64.3792 111.84 64.8645 111.476C65.3498 111.112 65.9612 110.93 66.6985 110.93C67.2025 110.93 67.6505 110.995 68.0425 111.126C68.4438 111.247 68.8452 111.453 69.2465 111.742C69.3305 111.807 69.3725 111.877 69.3725 111.952C69.3725 111.999 69.3492 112.059 69.3025 112.134L69.1345 112.344C69.0878 112.419 69.0225 112.456 68.9385 112.456C68.8638 112.456 68.7985 112.433 68.7425 112.386C68.3598 112.115 68.0192 111.933 67.7205 111.84C67.4312 111.747 67.0998 111.7 66.7265 111.7C66.2132 111.7 65.8025 111.812 65.4945 112.036C65.1865 112.26 65.0325 112.545 65.0325 112.89C65.0325 113.105 65.1025 113.277 65.2425 113.408C65.3825 113.539 65.5832 113.651 65.8445 113.744C66.1058 113.828 66.4885 113.926 66.9925 114.038C67.9258 114.243 68.5885 114.495 68.9805 114.794C69.3818 115.093 69.5825 115.527 69.5825 116.096C69.5825 116.721 69.3352 117.225 68.8405 117.608C68.3458 117.991 67.7065 118.182 66.9225 118.182ZM76.1714 116.362C76.2367 116.297 76.3067 116.264 76.3814 116.264C76.4467 116.264 76.5074 116.292 76.5634 116.348L76.7454 116.516C76.8107 116.581 76.8434 116.651 76.8434 116.726C76.8434 116.782 76.8154 116.847 76.7594 116.922C76.302 117.379 75.8587 117.706 75.4294 117.902C75 118.089 74.5194 118.182 73.9874 118.182C73.3154 118.182 72.732 118.033 72.2374 117.734C71.7427 117.435 71.36 117.02 71.0894 116.488C70.8187 115.947 70.6834 115.321 70.6834 114.612C70.6834 113.893 70.814 113.259 71.0754 112.708C71.346 112.148 71.724 111.714 72.2094 111.406C72.6947 111.089 73.2547 110.93 73.8894 110.93C74.832 110.93 75.574 111.224 76.1154 111.812C76.6567 112.4 76.9274 113.193 76.9274 114.192V114.36C76.918 114.444 76.8854 114.509 76.8294 114.556C76.7827 114.603 76.7174 114.626 76.6334 114.626H71.6214C71.6494 115.41 71.8547 116.073 72.2374 116.614C72.6294 117.146 73.2127 117.412 73.9874 117.412C74.4074 117.412 74.776 117.337 75.0934 117.188C75.42 117.029 75.7794 116.754 76.1714 116.362ZM73.8894 111.7C73.2734 111.7 72.7647 111.891 72.3634 112.274C71.9714 112.647 71.7334 113.198 71.6494 113.926H76.0034C75.9847 113.245 75.7887 112.703 75.4154 112.302C75.042 111.901 74.5334 111.7 73.8894 111.7ZM81.2012 108.662C80.7812 108.662 80.4825 108.774 80.3052 108.998C80.1279 109.213 80.0392 109.577 80.0392 110.09V111.098H81.5792C81.7659 111.098 81.8592 111.191 81.8592 111.378V111.518C81.8592 111.705 81.7659 111.798 81.5792 111.798H80.0392V117.72C80.0392 117.907 79.9459 118 79.7592 118H79.3952C79.2085 118 79.1152 117.907 79.1152 117.72V111.798H78.0792C77.8925 111.798 77.7992 111.705 77.7992 111.518V111.378C77.7992 111.191 77.8925 111.098 78.0792 111.098H79.1152V109.936C79.1152 109.292 79.2832 108.788 79.6192 108.424C79.9645 108.06 80.4545 107.878 81.0892 107.878C81.4439 107.878 81.8079 107.929 82.1812 108.032C82.3585 108.088 82.4239 108.205 82.3772 108.382L82.3212 108.578C82.2745 108.709 82.1812 108.774 82.0412 108.774C82.0132 108.774 81.9525 108.765 81.8592 108.746C81.6539 108.69 81.4345 108.662 81.2012 108.662ZM87.6976 111.378C87.6976 111.191 87.791 111.098 87.9776 111.098H88.3416C88.5283 111.098 88.6216 111.191 88.6216 111.378V117.72C88.6216 117.907 88.5283 118 88.3416 118H88.0476C87.861 118 87.7676 117.907 87.7676 117.72V117.09C87.5623 117.454 87.2683 117.729 86.8856 117.916C86.5123 118.093 86.1016 118.182 85.6536 118.182C84.8136 118.182 84.193 117.972 83.7916 117.552C83.3903 117.123 83.1896 116.572 83.1896 115.9V111.378C83.1896 111.191 83.283 111.098 83.4696 111.098H83.8336C84.0203 111.098 84.1136 111.191 84.1136 111.378V115.704C84.1136 116.255 84.249 116.675 84.5196 116.964C84.7996 117.244 85.1963 117.384 85.7096 117.384C86.2883 117.384 86.7643 117.207 87.1376 116.852C87.511 116.497 87.6976 115.993 87.6976 115.34V111.378ZM90.9902 118C90.8035 118 90.7102 117.907 90.7102 117.72V108.34C90.7102 108.153 90.8035 108.06 90.9902 108.06H91.3542C91.5408 108.06 91.6342 108.153 91.6342 108.34V117.72C91.6342 117.907 91.5408 118 91.3542 118H90.9902ZM94.0956 116.67C94.3476 116.67 94.553 116.768 94.7116 116.964C94.8796 117.151 94.9636 117.435 94.9636 117.818C94.9636 118.201 94.8516 118.574 94.6276 118.938C94.413 119.311 94.1143 119.549 93.7316 119.652L93.6616 119.666C93.587 119.666 93.5263 119.638 93.4796 119.582C93.4423 119.535 93.4236 119.47 93.4236 119.386C93.4236 119.33 93.4423 119.283 93.4796 119.246C93.517 119.218 93.573 119.185 93.6476 119.148C93.8343 119.064 93.993 118.924 94.1236 118.728C94.2543 118.532 94.329 118.308 94.3476 118.056C94.2636 118.084 94.175 118.098 94.0816 118.098C93.8856 118.098 93.7176 118.033 93.5776 117.902C93.447 117.771 93.3816 117.603 93.3816 117.398C93.3816 117.193 93.4516 117.02 93.5916 116.88C93.7316 116.74 93.8996 116.67 94.0956 116.67ZM102.438 118.182C101.775 118.182 101.196 118.033 100.702 117.734C100.216 117.426 99.8382 117.001 99.5676 116.46C99.3062 115.909 99.1756 115.275 99.1756 114.556C99.1756 113.847 99.3062 113.217 99.5676 112.666C99.8382 112.115 100.216 111.691 100.702 111.392C101.196 111.084 101.766 110.93 102.41 110.93C102.932 110.93 103.39 111.019 103.782 111.196C104.174 111.364 104.552 111.644 104.916 112.036C104.972 112.092 105 112.153 105 112.218C105 112.302 104.962 112.372 104.888 112.428L104.692 112.61C104.636 112.666 104.57 112.694 104.496 112.694C104.43 112.694 104.36 112.657 104.286 112.582C103.959 112.255 103.646 112.027 103.348 111.896C103.058 111.765 102.736 111.7 102.382 111.7C101.896 111.7 101.481 111.835 101.136 112.106C100.8 112.377 100.548 112.731 100.38 113.17C100.212 113.599 100.128 114.061 100.128 114.556C100.128 115.051 100.212 115.517 100.38 115.956C100.548 116.385 100.804 116.735 101.15 117.006C101.495 117.267 101.92 117.398 102.424 117.398C102.797 117.398 103.124 117.333 103.404 117.202C103.693 117.062 104.015 116.801 104.37 116.418C104.444 116.343 104.514 116.306 104.58 116.306C104.654 116.306 104.72 116.334 104.776 116.39L104.972 116.544C105.037 116.6 105.07 116.665 105.07 116.74C105.07 116.815 105.028 116.903 104.944 117.006C104.552 117.435 104.16 117.739 103.768 117.916C103.376 118.093 102.932 118.182 102.438 118.182ZM109.288 118.182C108.644 118.182 108.07 118.028 107.566 117.72C107.062 117.412 106.67 116.987 106.39 116.446C106.11 115.895 105.97 115.265 105.97 114.556C105.97 113.847 106.11 113.221 106.39 112.68C106.67 112.129 107.062 111.7 107.566 111.392C108.07 111.084 108.644 110.93 109.288 110.93C109.932 110.93 110.506 111.084 111.01 111.392C111.514 111.7 111.906 112.129 112.186 112.68C112.466 113.221 112.606 113.847 112.606 114.556C112.606 115.265 112.466 115.895 112.186 116.446C111.906 116.987 111.514 117.412 111.01 117.72C110.506 118.028 109.932 118.182 109.288 118.182ZM109.288 117.412C110.007 117.412 110.581 117.151 111.01 116.628C111.44 116.096 111.654 115.405 111.654 114.556C111.654 113.707 111.44 113.021 111.01 112.498C110.581 111.966 110.007 111.7 109.288 111.7C108.57 111.7 107.996 111.966 107.566 112.498C107.137 113.021 106.922 113.707 106.922 114.556C106.922 115.405 107.137 116.096 107.566 116.628C107.996 117.151 108.57 117.412 109.288 117.412ZM117.292 110.93C118.104 110.93 118.715 111.154 119.126 111.602C119.546 112.05 119.756 112.61 119.756 113.282V117.72C119.756 117.907 119.662 118 119.476 118H119.112C118.925 118 118.832 117.907 118.832 117.72V113.59C118.832 112.974 118.682 112.507 118.384 112.19C118.085 111.873 117.656 111.714 117.096 111.714C116.741 111.714 116.414 111.803 116.116 111.98C115.817 112.148 115.579 112.381 115.402 112.68C115.224 112.979 115.136 113.305 115.136 113.66V117.72C115.136 117.907 115.042 118 114.856 118H114.492C114.305 118 114.212 117.907 114.212 117.72V111.378C114.212 111.191 114.305 111.098 114.492 111.098H114.8C114.986 111.098 115.08 111.191 115.08 111.378V112.05C115.313 111.677 115.621 111.397 116.004 111.21C116.386 111.023 116.816 110.93 117.292 110.93ZM124.716 117.23C124.744 117.221 124.782 117.216 124.828 117.216C124.884 117.216 124.936 117.235 124.982 117.272C125.029 117.309 125.057 117.361 125.066 117.426L125.108 117.622C125.118 117.641 125.122 117.673 125.122 117.72C125.122 117.851 125.052 117.93 124.912 117.958C124.576 118.061 124.217 118.112 123.834 118.112C123.228 118.112 122.794 117.977 122.532 117.706C122.28 117.426 122.154 117.025 122.154 116.502V111.798H121.118C120.932 111.798 120.838 111.705 120.838 111.518V111.378C120.838 111.191 120.932 111.098 121.118 111.098H122.154V108.97C122.154 108.783 122.248 108.69 122.434 108.69H122.798C122.985 108.69 123.078 108.783 123.078 108.97V111.098H124.758C124.945 111.098 125.038 111.191 125.038 111.378V111.518C125.038 111.705 124.945 111.798 124.758 111.798H123.078V116.39C123.078 116.735 123.144 116.978 123.274 117.118C123.405 117.258 123.629 117.328 123.946 117.328C124.17 117.328 124.427 117.295 124.716 117.23ZM131.214 116.362C131.28 116.297 131.35 116.264 131.424 116.264C131.49 116.264 131.55 116.292 131.606 116.348L131.788 116.516C131.854 116.581 131.886 116.651 131.886 116.726C131.886 116.782 131.858 116.847 131.802 116.922C131.345 117.379 130.902 117.706 130.472 117.902C130.043 118.089 129.562 118.182 129.03 118.182C128.358 118.182 127.775 118.033 127.28 117.734C126.786 117.435 126.403 117.02 126.132 116.488C125.862 115.947 125.726 115.321 125.726 114.612C125.726 113.893 125.857 113.259 126.118 112.708C126.389 112.148 126.767 111.714 127.252 111.406C127.738 111.089 128.298 110.93 128.932 110.93C129.875 110.93 130.617 111.224 131.158 111.812C131.7 112.4 131.97 113.193 131.97 114.192V114.36C131.961 114.444 131.928 114.509 131.872 114.556C131.826 114.603 131.76 114.626 131.676 114.626H126.664C126.692 115.41 126.898 116.073 127.28 116.614C127.672 117.146 128.256 117.412 129.03 117.412C129.45 117.412 129.819 117.337 130.136 117.188C130.463 117.029 130.822 116.754 131.214 116.362ZM128.932 111.7C128.316 111.7 127.808 111.891 127.406 112.274C127.014 112.647 126.776 113.198 126.692 113.926H131.046C131.028 113.245 130.832 112.703 130.458 112.302C130.085 111.901 129.576 111.7 128.932 111.7ZM138.516 117.664C138.553 117.729 138.572 117.785 138.572 117.832C138.572 117.944 138.497 118 138.348 118H137.928C137.788 118 137.676 117.939 137.592 117.818L135.688 115.018L133.798 117.818C133.714 117.939 133.602 118 133.462 118H133.07C132.995 118 132.935 117.986 132.888 117.958C132.851 117.921 132.832 117.879 132.832 117.832C132.832 117.767 132.851 117.711 132.888 117.664L135.156 114.402L133.07 111.434C133.033 111.387 133.014 111.336 133.014 111.28C133.014 111.159 133.093 111.098 133.252 111.098H133.658C133.798 111.098 133.91 111.159 133.994 111.28L135.702 113.786L137.396 111.28C137.48 111.159 137.592 111.098 137.732 111.098H138.11C138.185 111.098 138.241 111.117 138.278 111.154C138.325 111.182 138.348 111.219 138.348 111.266C138.348 111.331 138.329 111.387 138.292 111.434L136.248 114.36L138.516 117.664ZM143.16 117.23C143.188 117.221 143.225 117.216 143.272 117.216C143.328 117.216 143.379 117.235 143.426 117.272C143.472 117.309 143.5 117.361 143.51 117.426L143.552 117.622C143.561 117.641 143.566 117.673 143.566 117.72C143.566 117.851 143.496 117.93 143.356 117.958C143.02 118.061 142.66 118.112 142.278 118.112C141.671 118.112 141.237 117.977 140.976 117.706C140.724 117.426 140.598 117.025 140.598 116.502V111.798H139.562C139.375 111.798 139.282 111.705 139.282 111.518V111.378C139.282 111.191 139.375 111.098 139.562 111.098H140.598V108.97C140.598 108.783 140.691 108.69 140.878 108.69H141.242C141.428 108.69 141.522 108.783 141.522 108.97V111.098H143.202C143.388 111.098 143.482 111.191 143.482 111.378V111.518C143.482 111.705 143.388 111.798 143.202 111.798H141.522V116.39C141.522 116.735 141.587 116.978 141.718 117.118C141.848 117.258 142.072 117.328 142.39 117.328C142.614 117.328 142.87 117.295 143.16 117.23ZM149.317 111.378C149.317 111.191 149.41 111.098 149.597 111.098H149.961C150.147 111.098 150.241 111.191 150.241 111.378V117.72C150.241 117.907 150.147 118 149.961 118H149.667C149.48 118 149.387 117.907 149.387 117.72V117.09C149.181 117.454 148.887 117.729 148.505 117.916C148.131 118.093 147.721 118.182 147.273 118.182C146.433 118.182 145.812 117.972 145.411 117.552C145.009 117.123 144.809 116.572 144.809 115.9V111.378C144.809 111.191 144.902 111.098 145.089 111.098H145.453C145.639 111.098 145.733 111.191 145.733 111.378V115.704C145.733 116.255 145.868 116.675 146.139 116.964C146.419 117.244 146.815 117.384 147.329 117.384C147.907 117.384 148.383 117.207 148.757 116.852C149.13 116.497 149.317 115.993 149.317 115.34V111.378ZM154.975 110.93C155.825 110.93 156.487 111.135 156.963 111.546C157.439 111.947 157.677 112.479 157.677 113.142V117.72C157.677 117.907 157.584 118 157.397 118H157.117C156.931 118 156.837 117.907 156.837 117.72V117.09C156.604 117.463 156.273 117.743 155.843 117.93C155.423 118.117 154.952 118.21 154.429 118.21C153.701 118.21 153.109 118.056 152.651 117.748C152.194 117.44 151.965 116.964 151.965 116.32C151.965 115.807 152.11 115.396 152.399 115.088C152.689 114.771 153.067 114.533 153.533 114.374C154 114.206 154.583 114.057 155.283 113.926L156.795 113.66V113.212C156.795 112.736 156.632 112.367 156.305 112.106C155.979 111.835 155.549 111.7 155.017 111.7C154.616 111.7 154.252 111.775 153.925 111.924C153.599 112.073 153.249 112.33 152.875 112.694C152.81 112.759 152.74 112.792 152.665 112.792C152.6 112.792 152.539 112.764 152.483 112.708L152.301 112.54C152.236 112.475 152.203 112.405 152.203 112.33C152.203 112.246 152.236 112.171 152.301 112.106C152.693 111.695 153.104 111.397 153.533 111.21C153.972 111.023 154.453 110.93 154.975 110.93ZM154.471 117.44C155.143 117.44 155.699 117.263 156.137 116.908C156.576 116.553 156.795 116.101 156.795 115.55V114.374L155.493 114.626C154.887 114.747 154.406 114.864 154.051 114.976C153.697 115.088 153.412 115.251 153.197 115.466C152.983 115.681 152.875 115.961 152.875 116.306C152.875 116.661 153.015 116.941 153.295 117.146C153.585 117.342 153.977 117.44 154.471 117.44ZM160.019 118C159.833 118 159.739 117.907 159.739 117.72V108.34C159.739 108.153 159.833 108.06 160.019 108.06H160.383C160.57 108.06 160.663 108.153 160.663 108.34V117.72C160.663 117.907 160.57 118 160.383 118H160.019ZM166.436 109.348C166.249 109.348 166.09 109.283 165.96 109.152C165.838 109.021 165.778 108.863 165.778 108.676C165.778 108.489 165.838 108.335 165.96 108.214C166.09 108.093 166.249 108.032 166.436 108.032C166.632 108.032 166.79 108.093 166.912 108.214C167.042 108.335 167.108 108.489 167.108 108.676C167.108 108.863 167.042 109.021 166.912 109.152C166.79 109.283 166.632 109.348 166.436 109.348ZM166.254 118C166.067 118 165.974 117.907 165.974 117.72V111.378C165.974 111.191 166.067 111.098 166.254 111.098H166.618C166.804 111.098 166.898 111.191 166.898 111.378V117.72C166.898 117.907 166.804 118 166.618 118H166.254ZM172.034 110.93C172.846 110.93 173.457 111.154 173.868 111.602C174.288 112.05 174.498 112.61 174.498 113.282V117.72C174.498 117.907 174.405 118 174.218 118H173.854C173.667 118 173.574 117.907 173.574 117.72V113.59C173.574 112.974 173.425 112.507 173.126 112.19C172.827 111.873 172.398 111.714 171.838 111.714C171.483 111.714 171.157 111.803 170.858 111.98C170.559 112.148 170.321 112.381 170.144 112.68C169.967 112.979 169.878 113.305 169.878 113.66V117.72C169.878 117.907 169.785 118 169.598 118H169.234C169.047 118 168.954 117.907 168.954 117.72V111.378C168.954 111.191 169.047 111.098 169.234 111.098H169.542C169.729 111.098 169.822 111.191 169.822 111.378V112.05C170.055 111.677 170.363 111.397 170.746 111.21C171.129 111.023 171.558 110.93 172.034 110.93ZM179.01 108.662C178.59 108.662 178.291 108.774 178.114 108.998C177.936 109.213 177.848 109.577 177.848 110.09V111.098H179.388C179.574 111.098 179.668 111.191 179.668 111.378V111.518C179.668 111.705 179.574 111.798 179.388 111.798H177.848V117.72C177.848 117.907 177.754 118 177.568 118H177.204C177.017 118 176.924 117.907 176.924 117.72V111.798H175.888C175.701 111.798 175.608 111.705 175.608 111.518V111.378C175.608 111.191 175.701 111.098 175.888 111.098H176.924V109.936C176.924 109.292 177.092 108.788 177.428 108.424C177.773 108.06 178.263 107.878 178.898 107.878C179.252 107.878 179.616 107.929 179.99 108.032C180.167 108.088 180.232 108.205 180.186 108.382L180.13 108.578C180.083 108.709 179.99 108.774 179.85 108.774C179.822 108.774 179.761 108.765 179.668 108.746C179.462 108.69 179.243 108.662 179.01 108.662ZM183.472 118.182C182.828 118.182 182.254 118.028 181.75 117.72C181.246 117.412 180.854 116.987 180.574 116.446C180.294 115.895 180.154 115.265 180.154 114.556C180.154 113.847 180.294 113.221 180.574 112.68C180.854 112.129 181.246 111.7 181.75 111.392C182.254 111.084 182.828 110.93 183.472 110.93C184.116 110.93 184.69 111.084 185.194 111.392C185.698 111.7 186.09 112.129 186.37 112.68C186.65 113.221 186.79 113.847 186.79 114.556C186.79 115.265 186.65 115.895 186.37 116.446C186.09 116.987 185.698 117.412 185.194 117.72C184.69 118.028 184.116 118.182 183.472 118.182ZM183.472 117.412C184.191 117.412 184.765 117.151 185.194 116.628C185.623 116.096 185.838 115.405 185.838 114.556C185.838 113.707 185.623 113.021 185.194 112.498C184.765 111.966 184.191 111.7 183.472 111.7C182.753 111.7 182.179 111.966 181.75 112.498C181.321 113.021 181.106 113.707 181.106 114.556C181.106 115.405 181.321 116.096 181.75 116.628C182.179 117.151 182.753 117.412 183.472 117.412ZM190.971 111.042C191.205 111.042 191.48 111.079 191.797 111.154C191.965 111.21 192.031 111.327 191.993 111.504L191.937 111.728C191.891 111.905 191.774 111.971 191.587 111.924C191.363 111.868 191.158 111.84 190.971 111.84C190.495 111.84 190.099 112.045 189.781 112.456C189.473 112.867 189.319 113.436 189.319 114.164V117.72C189.319 117.907 189.226 118 189.039 118H188.675C188.489 118 188.395 117.907 188.395 117.72V111.378C188.395 111.191 188.489 111.098 188.675 111.098H188.983C189.17 111.098 189.263 111.191 189.263 111.378V112.148C189.422 111.803 189.646 111.532 189.935 111.336C190.234 111.14 190.579 111.042 190.971 111.042ZM200.263 110.93C201.01 110.93 201.579 111.145 201.971 111.574C202.372 111.994 202.573 112.535 202.573 113.198V117.72C202.573 117.907 202.48 118 202.293 118H201.929C201.742 118 201.649 117.907 201.649 117.72V113.45C201.649 112.89 201.518 112.461 201.257 112.162C201.005 111.863 200.627 111.714 200.123 111.714C199.591 111.714 199.166 111.891 198.849 112.246C198.532 112.601 198.373 113.058 198.373 113.618V117.72C198.373 117.907 198.28 118 198.093 118H197.729C197.542 118 197.449 117.907 197.449 117.72V113.45C197.449 112.89 197.318 112.461 197.057 112.162C196.805 111.863 196.422 111.714 195.909 111.714C195.433 111.714 195.036 111.863 194.719 112.162C194.411 112.461 194.229 112.853 194.173 113.338V117.72C194.173 117.907 194.08 118 193.893 118H193.529C193.342 118 193.249 117.907 193.249 117.72V111.378C193.249 111.191 193.342 111.098 193.529 111.098H193.837C194.024 111.098 194.117 111.191 194.117 111.378V111.952C194.537 111.271 195.204 110.93 196.119 110.93C196.595 110.93 197.001 111.037 197.337 111.252C197.682 111.457 197.939 111.737 198.107 112.092C198.602 111.317 199.32 110.93 200.263 110.93ZM207.27 110.93C208.12 110.93 208.782 111.135 209.258 111.546C209.734 111.947 209.972 112.479 209.972 113.142V117.72C209.972 117.907 209.879 118 209.692 118H209.412C209.226 118 209.132 117.907 209.132 117.72V117.09C208.899 117.463 208.568 117.743 208.138 117.93C207.718 118.117 207.247 118.21 206.724 118.21C205.996 118.21 205.404 118.056 204.946 117.748C204.489 117.44 204.26 116.964 204.26 116.32C204.26 115.807 204.405 115.396 204.694 115.088C204.984 114.771 205.362 114.533 205.828 114.374C206.295 114.206 206.878 114.057 207.578 113.926L209.09 113.66V113.212C209.09 112.736 208.927 112.367 208.6 112.106C208.274 111.835 207.844 111.7 207.312 111.7C206.911 111.7 206.547 111.775 206.22 111.924C205.894 112.073 205.544 112.33 205.17 112.694C205.105 112.759 205.035 112.792 204.96 112.792C204.895 112.792 204.834 112.764 204.778 112.708L204.596 112.54C204.531 112.475 204.498 112.405 204.498 112.33C204.498 112.246 204.531 112.171 204.596 112.106C204.988 111.695 205.399 111.397 205.828 111.21C206.267 111.023 206.748 110.93 207.27 110.93ZM206.766 117.44C207.438 117.44 207.994 117.263 208.432 116.908C208.871 116.553 209.09 116.101 209.09 115.55V114.374L207.788 114.626C207.182 114.747 206.701 114.864 206.346 114.976C205.992 115.088 205.707 115.251 205.492 115.466C205.278 115.681 205.17 115.961 205.17 116.306C205.17 116.661 205.31 116.941 205.59 117.146C205.88 117.342 206.272 117.44 206.766 117.44ZM214.937 117.23C214.965 117.221 215.002 117.216 215.049 117.216C215.105 117.216 215.156 117.235 215.203 117.272C215.25 117.309 215.278 117.361 215.287 117.426L215.329 117.622C215.338 117.641 215.343 117.673 215.343 117.72C215.343 117.851 215.273 117.93 215.133 117.958C214.797 118.061 214.438 118.112 214.055 118.112C213.448 118.112 213.014 117.977 212.753 117.706C212.501 117.426 212.375 117.025 212.375 116.502V111.798H211.339C211.152 111.798 211.059 111.705 211.059 111.518V111.378C211.059 111.191 211.152 111.098 211.339 111.098H212.375V108.97C212.375 108.783 212.468 108.69 212.655 108.69H213.019C213.206 108.69 213.299 108.783 213.299 108.97V111.098H214.979C215.166 111.098 215.259 111.191 215.259 111.378V111.518C215.259 111.705 215.166 111.798 214.979 111.798H213.299V116.39C213.299 116.735 213.364 116.978 213.495 117.118C213.626 117.258 213.85 117.328 214.167 117.328C214.391 117.328 214.648 117.295 214.937 117.23ZM217.131 109.348C216.944 109.348 216.785 109.283 216.655 109.152C216.533 109.021 216.473 108.863 216.473 108.676C216.473 108.489 216.533 108.335 216.655 108.214C216.785 108.093 216.944 108.032 217.131 108.032C217.327 108.032 217.485 108.093 217.607 108.214C217.737 108.335 217.803 108.489 217.803 108.676C217.803 108.863 217.737 109.021 217.607 109.152C217.485 109.283 217.327 109.348 217.131 109.348ZM216.949 118C216.762 118 216.669 117.907 216.669 117.72V111.378C216.669 111.191 216.762 111.098 216.949 111.098H217.313C217.499 111.098 217.593 111.191 217.593 111.378V117.72C217.593 117.907 217.499 118 217.313 118H216.949ZM222.505 118.182C221.861 118.182 221.287 118.028 220.783 117.72C220.279 117.412 219.887 116.987 219.607 116.446C219.327 115.895 219.187 115.265 219.187 114.556C219.187 113.847 219.327 113.221 219.607 112.68C219.887 112.129 220.279 111.7 220.783 111.392C221.287 111.084 221.861 110.93 222.505 110.93C223.149 110.93 223.723 111.084 224.227 111.392C224.731 111.7 225.123 112.129 225.403 112.68C225.683 113.221 225.823 113.847 225.823 114.556C225.823 115.265 225.683 115.895 225.403 116.446C225.123 116.987 224.731 117.412 224.227 117.72C223.723 118.028 223.149 118.182 222.505 118.182ZM222.505 117.412C223.224 117.412 223.798 117.151 224.227 116.628C224.657 116.096 224.871 115.405 224.871 114.556C224.871 113.707 224.657 113.021 224.227 112.498C223.798 111.966 223.224 111.7 222.505 111.7C221.787 111.7 221.213 111.966 220.783 112.498C220.354 113.021 220.139 113.707 220.139 114.556C220.139 115.405 220.354 116.096 220.783 116.628C221.213 117.151 221.787 117.412 222.505 117.412ZM230.509 110.93C231.321 110.93 231.932 111.154 232.343 111.602C232.763 112.05 232.973 112.61 232.973 113.282V117.72C232.973 117.907 232.879 118 232.693 118H232.329C232.142 118 232.049 117.907 232.049 117.72V113.59C232.049 112.974 231.899 112.507 231.601 112.19C231.302 111.873 230.873 111.714 230.313 111.714C229.958 111.714 229.631 111.803 229.333 111.98C229.034 112.148 228.796 112.381 228.619 112.68C228.441 112.979 228.353 113.305 228.353 113.66V117.72C228.353 117.907 228.259 118 228.073 118H227.709C227.522 118 227.429 117.907 227.429 117.72V111.378C227.429 111.191 227.522 111.098 227.709 111.098H228.017C228.203 111.098 228.297 111.191 228.297 111.378V112.05C228.53 111.677 228.838 111.397 229.221 111.21C229.603 111.023 230.033 110.93 230.509 110.93ZM235.394 118.098C235.198 118.098 235.03 118.028 234.89 117.888C234.75 117.748 234.68 117.58 234.68 117.384C234.68 117.188 234.75 117.02 234.89 116.88C235.03 116.74 235.198 116.67 235.394 116.67C235.59 116.67 235.758 116.74 235.898 116.88C236.038 117.02 236.108 117.188 236.108 117.384C236.108 117.58 236.038 117.748 235.898 117.888C235.758 118.028 235.59 118.098 235.394 118.098Z" fill="#464646"/>
<path d="M16 44C16 41.7909 17.7909 40 20 40V142C17.7909 142 16 140.209 16 138V44Z" fill="#0386BF"/>
<rect x="16.5" y="40.5" width="311" height="101" rx="3.5" stroke="#66E0FF"/>
<defs>
<clipPath id="clip0_2016_23761">
<rect width="16" height="16" fill="white" transform="translate(32 60)"/>
</clipPath>
</defs>
</svg>
