<svg width="344" height="200" viewBox="0 0 344 200" fill="none" xmlns="http://www.w3.org/2000/svg">
<rect width="344" height="200" fill="#F5F5F5"/>
<rect x="16.5" y="40.5" width="311" height="119" rx="3.5" fill="#EBFFF6"/>
<g clip-path="url(#clip0_2353_28445)">
<circle cx="40" cy="68" r="8" transform="rotate(180 40 68)" fill="#059E6F"/>
<path fill-rule="evenodd" clip-rule="evenodd" d="M43.4983 64.9395C43.8079 65.2146 43.8357 65.6887 43.5606 65.9983L39.5606 70.4983C39.4233 70.6527 39.2285 70.7436 39.022 70.7497C38.8156 70.7558 38.6157 70.6764 38.4697 70.5303L36.4697 68.5303C36.1768 68.2374 36.1768 67.7626 36.4697 67.4697C36.7626 67.1768 37.2374 67.1768 37.5303 67.4697L38.9679 68.9072L42.4394 65.0017C42.7146 64.6921 43.1887 64.6643 43.4983 64.9395Z" fill="white"/>
</g>
<path d="M64.218 74C63.938 74 63.7513 73.8693 63.658 73.608L63 71.718H58.604L57.946 73.608C57.8527 73.8693 57.666 74 57.386 74H56.798C56.658 74 56.546 73.972 56.462 73.916C56.3873 73.8507 56.35 73.762 56.35 73.65C56.35 73.594 56.364 73.524 56.392 73.44L59.64 64.452C59.7333 64.1907 59.92 64.06 60.2 64.06H61.446C61.726 64.06 61.9127 64.1907 62.006 64.452L65.254 73.44C65.282 73.524 65.296 73.594 65.296 73.65C65.296 73.762 65.254 73.8507 65.17 73.916C65.0953 73.972 64.988 74 64.848 74H64.218ZM62.552 70.388L62.118 69.156C62.1087 69.1373 62.006 68.8433 61.81 68.274C61.3153 66.874 60.9793 65.8753 60.802 65.278C60.5313 66.1367 60.172 67.2007 59.724 68.47L59.486 69.17L59.066 70.388H62.552ZM67.0523 74C66.903 74 66.7817 73.958 66.6883 73.874C66.6043 73.7807 66.5623 73.6593 66.5623 73.51V64.55C66.5623 64.3913 66.6043 64.27 66.6883 64.186C66.7817 64.102 66.903 64.06 67.0523 64.06H67.5563C67.715 64.06 67.8363 64.102 67.9203 64.186C68.0043 64.27 68.0463 64.3913 68.0463 64.55V73.51C68.0463 73.6593 68.0043 73.7807 67.9203 73.874C67.8363 73.958 67.715 74 67.5563 74H67.0523ZM74.7569 72.236C74.8783 72.1333 74.9949 72.082 75.1069 72.082C75.2189 72.082 75.3356 72.1427 75.4569 72.264L75.6529 72.474C75.7556 72.5953 75.8069 72.712 75.8069 72.824C75.8069 72.9453 75.7463 73.062 75.6249 73.174C75.1956 73.5473 74.7663 73.8133 74.3369 73.972C73.9169 74.1307 73.4503 74.21 72.9369 74.21C72.2183 74.21 71.5929 74.0607 71.0609 73.762C70.5383 73.4633 70.1323 73.0433 69.8429 72.502C69.5629 71.9513 69.4229 71.3167 69.4229 70.598C69.4229 69.8887 69.5583 69.254 69.8289 68.694C70.1089 68.1247 70.5009 67.6813 71.0049 67.364C71.5183 67.0467 72.1156 66.888 72.7969 66.888C73.8143 66.888 74.5983 67.1913 75.1489 67.798C75.6996 68.3953 75.9749 69.2213 75.9749 70.276V70.402C75.9656 70.5513 75.9189 70.668 75.8349 70.752C75.7509 70.836 75.6296 70.878 75.4709 70.878H70.8789C70.9349 71.494 71.1356 71.998 71.4809 72.39C71.8356 72.7727 72.3303 72.964 72.9649 72.964C73.3103 72.964 73.6136 72.9127 73.8749 72.81C74.1363 72.698 74.4303 72.5067 74.7569 72.236ZM72.7689 68.064C72.2556 68.064 71.8403 68.218 71.5229 68.526C71.2149 68.8247 71.0143 69.2493 70.9209 69.8H74.5189C74.4816 69.2587 74.3136 68.834 74.0149 68.526C73.7163 68.218 73.3009 68.064 72.7689 68.064ZM80.4425 67.028C80.6478 67.028 80.8578 67.0513 81.0725 67.098C81.3245 67.154 81.4505 67.3033 81.4505 67.546C81.4505 67.6113 81.4458 67.658 81.4365 67.686L81.3665 68.022C81.3105 68.2833 81.1705 68.414 80.9465 68.414L80.8205 68.4C80.6525 68.372 80.5031 68.358 80.3725 68.358C79.9058 68.358 79.5278 68.5447 79.2385 68.918C78.9585 69.282 78.8185 69.7907 78.8185 70.444V73.51C78.8185 73.6593 78.7765 73.7807 78.6925 73.874C78.6085 73.958 78.4871 74 78.3285 74H77.8245C77.6751 74 77.5538 73.958 77.4605 73.874C77.3765 73.7807 77.3345 73.6593 77.3345 73.51V67.588C77.3345 67.4293 77.3765 67.308 77.4605 67.224C77.5538 67.14 77.6751 67.098 77.8245 67.098H78.2305C78.3891 67.098 78.5105 67.14 78.5945 67.224C78.6785 67.308 78.7205 67.4293 78.7205 67.588V68.134C78.8885 67.7887 79.1171 67.518 79.4065 67.322C79.6958 67.126 80.0411 67.028 80.4425 67.028ZM86.0258 72.824C86.0538 72.8147 86.0958 72.81 86.1518 72.81C86.3852 72.81 86.5252 72.9453 86.5718 73.216L86.6138 73.44C86.6232 73.468 86.6278 73.5147 86.6278 73.58C86.6278 73.8133 86.4972 73.9627 86.2358 74.028C85.8625 74.112 85.5218 74.154 85.2138 74.154C84.5512 74.154 84.0705 74 83.7718 73.692C83.4825 73.384 83.3378 72.922 83.3378 72.306V68.232H82.5678C82.4185 68.232 82.2972 68.19 82.2038 68.106C82.1198 68.0127 82.0778 67.8913 82.0778 67.742V67.588C82.0778 67.4293 82.1198 67.308 82.2038 67.224C82.2972 67.14 82.4185 67.098 82.5678 67.098H83.3378V65.362C83.3378 65.2033 83.3798 65.082 83.4638 64.998C83.5572 64.914 83.6785 64.872 83.8278 64.872H84.3318C84.4905 64.872 84.6118 64.914 84.6958 64.998C84.7798 65.082 84.8218 65.2033 84.8218 65.362V67.098H86.0818C86.2405 67.098 86.3618 67.14 86.4458 67.224C86.5298 67.308 86.5718 67.4293 86.5718 67.588V67.742C86.5718 67.8913 86.5298 68.0127 86.4458 68.106C86.3618 68.19 86.2405 68.232 86.0818 68.232H84.8218V72.124C84.8218 72.3947 84.8778 72.586 84.9898 72.698C85.1112 72.81 85.3025 72.866 85.5638 72.866C85.6758 72.866 85.8298 72.852 86.0258 72.824ZM91.3163 70.626C91.167 70.626 91.0456 70.584 90.9523 70.5C90.8683 70.4067 90.8263 70.2853 90.8263 70.136V69.786C90.8263 69.6273 90.8683 69.506 90.9523 69.422C91.0456 69.338 91.167 69.296 91.3163 69.296H94.5223C94.681 69.296 94.8023 69.338 94.8863 69.422C94.9703 69.506 95.0123 69.6273 95.0123 69.786V70.136C95.0123 70.2853 94.9703 70.4067 94.8863 70.5C94.8023 70.584 94.681 70.626 94.5223 70.626H91.3163ZM103.48 74.224C102.715 74.224 102.029 74.1167 101.422 73.902C100.825 73.678 100.209 73.3047 99.5743 72.782C99.4437 72.6793 99.3783 72.558 99.3783 72.418C99.3783 72.2967 99.425 72.1847 99.5183 72.082L99.8403 71.704C99.943 71.5733 100.06 71.508 100.19 71.508C100.293 71.508 100.41 71.5593 100.54 71.662C101.1 72.11 101.6 72.418 102.038 72.586C102.486 72.754 102.976 72.838 103.508 72.838C104.152 72.838 104.675 72.6933 105.076 72.404C105.478 72.1053 105.678 71.6993 105.678 71.186C105.678 70.85 105.576 70.5887 105.37 70.402C105.165 70.206 104.899 70.0567 104.572 69.954C104.255 69.8513 103.737 69.716 103.018 69.548C102.15 69.3427 101.474 69.1187 100.988 68.876C100.503 68.6333 100.153 68.344 99.9383 68.008C99.733 67.6627 99.6303 67.2287 99.6303 66.706C99.6303 66.1553 99.789 65.6607 100.106 65.222C100.424 64.7833 100.858 64.4427 101.408 64.2C101.968 63.9573 102.594 63.836 103.284 63.836C103.984 63.836 104.6 63.9293 105.132 64.116C105.674 64.3027 106.215 64.606 106.756 65.026C106.896 65.138 106.966 65.2547 106.966 65.376C106.966 65.4787 106.92 65.5907 106.826 65.712L106.518 66.076C106.406 66.2067 106.29 66.272 106.168 66.272C106.056 66.272 105.94 66.2253 105.818 66.132C105.37 65.7867 104.955 65.5487 104.572 65.418C104.19 65.2873 103.756 65.222 103.27 65.222C102.654 65.222 102.155 65.3573 101.772 65.628C101.39 65.8987 101.198 66.2393 101.198 66.65C101.198 66.9487 101.287 67.1867 101.464 67.364C101.642 67.5413 101.898 67.686 102.234 67.798C102.57 67.91 103.088 68.0453 103.788 68.204C104.638 68.4093 105.31 68.6287 105.804 68.862C106.299 69.086 106.668 69.3753 106.91 69.73C107.153 70.0847 107.274 70.5373 107.274 71.088C107.274 71.704 107.116 72.25 106.798 72.726C106.481 73.202 106.038 73.5707 105.468 73.832C104.899 74.0933 104.236 74.224 103.48 74.224ZM113.052 67.588C113.052 67.4293 113.094 67.308 113.178 67.224C113.272 67.14 113.393 67.098 113.542 67.098H114.046C114.205 67.098 114.326 67.14 114.41 67.224C114.494 67.308 114.536 67.4293 114.536 67.588V73.51C114.536 73.6593 114.494 73.7807 114.41 73.874C114.326 73.958 114.205 74 114.046 74H113.668C113.519 74 113.398 73.958 113.304 73.874C113.22 73.7807 113.178 73.6593 113.178 73.51V73.188C112.992 73.5053 112.721 73.7573 112.366 73.944C112.012 74.1213 111.592 74.21 111.106 74.21C110.285 74.21 109.674 74.0093 109.272 73.608C108.871 73.1973 108.67 72.656 108.67 71.984V67.588C108.67 67.4293 108.712 67.308 108.796 67.224C108.89 67.14 109.011 67.098 109.16 67.098H109.664C109.823 67.098 109.944 67.14 110.028 67.224C110.112 67.308 110.154 67.4293 110.154 67.588V71.592C110.154 72.0213 110.262 72.3527 110.476 72.586C110.7 72.81 111.022 72.922 111.442 72.922C111.928 72.922 112.315 72.782 112.604 72.502C112.903 72.222 113.052 71.816 113.052 71.284V67.588ZM119.283 74.21C118.601 74.21 117.999 74.0607 117.477 73.762C116.963 73.4633 116.562 73.0387 116.273 72.488C115.993 71.928 115.853 71.2793 115.853 70.542C115.853 69.8047 115.997 69.1607 116.287 68.61C116.576 68.0593 116.982 67.6347 117.505 67.336C118.027 67.0373 118.629 66.888 119.311 66.888C119.805 66.888 120.249 66.9627 120.641 67.112C121.042 67.252 121.425 67.4947 121.789 67.84C121.901 67.952 121.957 68.0687 121.957 68.19C121.957 68.302 121.896 68.4187 121.775 68.54L121.537 68.778C121.434 68.8807 121.322 68.932 121.201 68.932C121.079 68.932 120.953 68.876 120.823 68.764C120.552 68.5307 120.295 68.372 120.053 68.288C119.819 68.1947 119.567 68.148 119.297 68.148C118.681 68.148 118.205 68.3767 117.869 68.834C117.533 69.2913 117.365 69.8607 117.365 70.542C117.365 71.2233 117.533 71.7973 117.869 72.264C118.205 72.7213 118.681 72.95 119.297 72.95C119.595 72.95 119.871 72.894 120.123 72.782C120.375 72.6607 120.645 72.46 120.935 72.18C121.056 72.0587 121.182 71.998 121.313 71.998C121.425 71.998 121.532 72.0447 121.635 72.138L121.873 72.334C121.994 72.4367 122.055 72.5533 122.055 72.684C122.055 72.824 121.985 72.9733 121.845 73.132C121.462 73.524 121.065 73.804 120.655 73.972C120.253 74.1307 119.796 74.21 119.283 74.21ZM126.187 74.21C125.506 74.21 124.904 74.0607 124.381 73.762C123.868 73.4633 123.466 73.0387 123.177 72.488C122.897 71.928 122.757 71.2793 122.757 70.542C122.757 69.8047 122.902 69.1607 123.191 68.61C123.48 68.0593 123.886 67.6347 124.409 67.336C124.932 67.0373 125.534 66.888 126.215 66.888C126.71 66.888 127.153 66.9627 127.545 67.112C127.946 67.252 128.329 67.4947 128.693 67.84C128.805 67.952 128.861 68.0687 128.861 68.19C128.861 68.302 128.8 68.4187 128.679 68.54L128.441 68.778C128.338 68.8807 128.226 68.932 128.105 68.932C127.984 68.932 127.858 68.876 127.727 68.764C127.456 68.5307 127.2 68.372 126.957 68.288C126.724 68.1947 126.472 68.148 126.201 68.148C125.585 68.148 125.109 68.3767 124.773 68.834C124.437 69.2913 124.269 69.8607 124.269 70.542C124.269 71.2233 124.437 71.7973 124.773 72.264C125.109 72.7213 125.585 72.95 126.201 72.95C126.5 72.95 126.775 72.894 127.027 72.782C127.279 72.6607 127.55 72.46 127.839 72.18C127.96 72.0587 128.086 71.998 128.217 71.998C128.329 71.998 128.436 72.0447 128.539 72.138L128.777 72.334C128.898 72.4367 128.959 72.5533 128.959 72.684C128.959 72.824 128.889 72.9733 128.749 73.132C128.366 73.524 127.97 73.804 127.559 73.972C127.158 74.1307 126.7 74.21 126.187 74.21ZM134.995 72.236C135.117 72.1333 135.233 72.082 135.345 72.082C135.457 72.082 135.574 72.1427 135.695 72.264L135.891 72.474C135.994 72.5953 136.045 72.712 136.045 72.824C136.045 72.9453 135.985 73.062 135.863 73.174C135.434 73.5473 135.005 73.8133 134.575 73.972C134.155 74.1307 133.689 74.21 133.175 74.21C132.457 74.21 131.831 74.0607 131.299 73.762C130.777 73.4633 130.371 73.0433 130.081 72.502C129.801 71.9513 129.661 71.3167 129.661 70.598C129.661 69.8887 129.797 69.254 130.067 68.694C130.347 68.1247 130.739 67.6813 131.243 67.364C131.757 67.0467 132.354 66.888 133.035 66.888C134.053 66.888 134.837 67.1913 135.387 67.798C135.938 68.3953 136.213 69.2213 136.213 70.276V70.402C136.204 70.5513 136.157 70.668 136.073 70.752C135.989 70.836 135.868 70.878 135.709 70.878H131.117C131.173 71.494 131.374 71.998 131.719 72.39C132.074 72.7727 132.569 72.964 133.203 72.964C133.549 72.964 133.852 72.9127 134.113 72.81C134.375 72.698 134.669 72.5067 134.995 72.236ZM133.007 68.064C132.494 68.064 132.079 68.218 131.761 68.526C131.453 68.8247 131.253 69.2493 131.159 69.8H134.757C134.72 69.2587 134.552 68.834 134.253 68.526C133.955 68.218 133.539 68.064 133.007 68.064ZM140.26 74.21C139.691 74.21 139.182 74.14 138.734 74C138.295 73.8507 137.847 73.594 137.39 73.23C137.25 73.1273 137.18 73.0107 137.18 72.88C137.18 72.7773 137.231 72.6653 137.334 72.544L137.544 72.306C137.656 72.1753 137.777 72.11 137.908 72.11C138.011 72.11 138.123 72.1567 138.244 72.25C138.636 72.5393 138.981 72.74 139.28 72.852C139.579 72.9547 139.915 73.006 140.288 73.006C140.689 73.006 141.016 72.9267 141.268 72.768C141.529 72.6 141.66 72.376 141.66 72.096C141.66 71.8813 141.585 71.7133 141.436 71.592C141.296 71.4613 141.109 71.3633 140.876 71.298C140.643 71.2233 140.297 71.1393 139.84 71.046C139.196 70.906 138.692 70.7567 138.328 70.598C137.973 70.43 137.717 70.22 137.558 69.968C137.399 69.716 137.32 69.394 137.32 69.002C137.32 68.6007 137.432 68.2413 137.656 67.924C137.889 67.6067 138.211 67.3547 138.622 67.168C139.042 66.9813 139.532 66.888 140.092 66.888C140.596 66.888 141.044 66.944 141.436 67.056C141.837 67.168 142.229 67.3593 142.612 67.63C142.761 67.742 142.836 67.868 142.836 68.008C142.836 68.1013 142.789 68.2087 142.696 68.33L142.514 68.554C142.411 68.6847 142.285 68.75 142.136 68.75C142.024 68.75 141.917 68.7127 141.814 68.638C141.506 68.4327 141.221 68.2927 140.96 68.218C140.699 68.134 140.405 68.092 140.078 68.092C139.677 68.092 139.355 68.1713 139.112 68.33C138.869 68.4887 138.748 68.694 138.748 68.946C138.748 69.114 138.804 69.2493 138.916 69.352C139.037 69.4453 139.205 69.5293 139.42 69.604C139.644 69.6693 139.994 69.7533 140.47 69.856C141.114 69.996 141.623 70.1547 141.996 70.332C142.379 70.5 142.659 70.7193 142.836 70.99C143.023 71.2513 143.116 71.592 143.116 72.012C143.116 72.6653 142.855 73.1973 142.332 73.608C141.819 74.0093 141.128 74.21 140.26 74.21ZM147.055 74.21C146.486 74.21 145.977 74.14 145.529 74C145.09 73.8507 144.642 73.594 144.185 73.23C144.045 73.1273 143.975 73.0107 143.975 72.88C143.975 72.7773 144.026 72.6653 144.129 72.544L144.339 72.306C144.451 72.1753 144.572 72.11 144.703 72.11C144.806 72.11 144.918 72.1567 145.039 72.25C145.431 72.5393 145.776 72.74 146.075 72.852C146.374 72.9547 146.71 73.006 147.083 73.006C147.484 73.006 147.811 72.9267 148.063 72.768C148.324 72.6 148.455 72.376 148.455 72.096C148.455 71.8813 148.38 71.7133 148.231 71.592C148.091 71.4613 147.904 71.3633 147.671 71.298C147.438 71.2233 147.092 71.1393 146.635 71.046C145.991 70.906 145.487 70.7567 145.123 70.598C144.768 70.43 144.512 70.22 144.353 69.968C144.194 69.716 144.115 69.394 144.115 69.002C144.115 68.6007 144.227 68.2413 144.451 67.924C144.684 67.6067 145.006 67.3547 145.417 67.168C145.837 66.9813 146.327 66.888 146.887 66.888C147.391 66.888 147.839 66.944 148.231 67.056C148.632 67.168 149.024 67.3593 149.407 67.63C149.556 67.742 149.631 67.868 149.631 68.008C149.631 68.1013 149.584 68.2087 149.491 68.33L149.309 68.554C149.206 68.6847 149.08 68.75 148.931 68.75C148.819 68.75 148.712 68.7127 148.609 68.638C148.301 68.4327 148.016 68.2927 147.755 68.218C147.494 68.134 147.2 68.092 146.873 68.092C146.472 68.092 146.15 68.1713 145.907 68.33C145.664 68.4887 145.543 68.694 145.543 68.946C145.543 69.114 145.599 69.2493 145.711 69.352C145.832 69.4453 146 69.5293 146.215 69.604C146.439 69.6693 146.789 69.7533 147.265 69.856C147.909 69.996 148.418 70.1547 148.791 70.332C149.174 70.5 149.454 70.7193 149.631 70.99C149.818 71.2513 149.911 71.592 149.911 72.012C149.911 72.6653 149.65 73.1973 149.127 73.608C148.614 74.0093 147.923 74.21 147.055 74.21Z" fill="#464646"/>
<path d="M60.76 100.196C59.5373 100.196 58.6273 99.9113 58.03 99.342C57.4327 98.7633 57.134 97.956 57.134 96.92V90.34C57.134 90.1533 57.2273 90.06 57.414 90.06H57.848C58.0347 90.06 58.128 90.1533 58.128 90.34V96.85C58.128 97.6713 58.352 98.292 58.8 98.712C59.2573 99.132 59.9107 99.342 60.76 99.342C61.628 99.342 62.286 99.132 62.734 98.712C63.182 98.292 63.406 97.6713 63.406 96.85V90.34C63.406 90.1533 63.4993 90.06 63.686 90.06H64.12C64.3067 90.06 64.4 90.1533 64.4 90.34V96.92C64.4 97.956 64.1013 98.7633 63.504 99.342C62.9067 99.9113 61.992 100.196 60.76 100.196ZM68.9596 100.182C68.3903 100.182 67.8863 100.103 67.4476 99.944C67.0183 99.776 66.5656 99.496 66.0896 99.104C66.0056 99.048 65.9636 98.9827 65.9636 98.908C65.9636 98.8427 65.9963 98.7773 66.0616 98.712L66.2436 98.516C66.2996 98.4413 66.3696 98.404 66.4536 98.404C66.519 98.404 66.5796 98.432 66.6356 98.488C67.0836 98.8333 67.4803 99.076 67.8256 99.216C68.171 99.3467 68.549 99.412 68.9596 99.412C69.473 99.412 69.893 99.3 70.2196 99.076C70.5463 98.8427 70.7096 98.53 70.7096 98.138C70.7096 97.746 70.5416 97.4567 70.2056 97.27C69.8696 97.0833 69.3516 96.9153 68.6516 96.766C68.0356 96.6353 67.5503 96.5 67.1956 96.36C66.8503 96.2107 66.5936 96.024 66.4256 95.8C66.2576 95.576 66.1736 95.282 66.1736 94.918C66.1736 94.3207 66.4163 93.84 66.9016 93.476C67.387 93.112 67.9983 92.93 68.7356 92.93C69.2396 92.93 69.6876 92.9953 70.0796 93.126C70.481 93.2473 70.8823 93.4527 71.2836 93.742C71.3676 93.8073 71.4096 93.8773 71.4096 93.952C71.4096 93.9987 71.3863 94.0593 71.3396 94.134L71.1716 94.344C71.125 94.4187 71.0596 94.456 70.9756 94.456C70.901 94.456 70.8356 94.4327 70.7796 94.386C70.397 94.1153 70.0563 93.9333 69.7576 93.84C69.4683 93.7467 69.137 93.7 68.7636 93.7C68.2503 93.7 67.8396 93.812 67.5316 94.036C67.2236 94.26 67.0696 94.5447 67.0696 94.89C67.0696 95.1047 67.1396 95.2773 67.2796 95.408C67.4196 95.5387 67.6203 95.6507 67.8816 95.744C68.143 95.828 68.5256 95.926 69.0296 96.038C69.963 96.2433 70.6256 96.4953 71.0176 96.794C71.419 97.0927 71.6196 97.5267 71.6196 98.096C71.6196 98.7213 71.3723 99.2253 70.8776 99.608C70.383 99.9907 69.7436 100.182 68.9596 100.182ZM78.2085 98.362C78.2738 98.2967 78.3438 98.264 78.4185 98.264C78.4838 98.264 78.5445 98.292 78.6005 98.348L78.7825 98.516C78.8478 98.5813 78.8805 98.6513 78.8805 98.726C78.8805 98.782 78.8525 98.8473 78.7965 98.922C78.3392 99.3793 77.8958 99.706 77.4665 99.902C77.0372 100.089 76.5565 100.182 76.0245 100.182C75.3525 100.182 74.7692 100.033 74.2745 99.734C73.7798 99.4353 73.3972 99.02 73.1265 98.488C72.8558 97.9467 72.7205 97.3213 72.7205 96.612C72.7205 95.8933 72.8512 95.2587 73.1125 94.708C73.3832 94.148 73.7612 93.714 74.2465 93.406C74.7318 93.0887 75.2918 92.93 75.9265 92.93C76.8692 92.93 77.6112 93.224 78.1525 93.812C78.6938 94.4 78.9645 95.1933 78.9645 96.192V96.36C78.9552 96.444 78.9225 96.5093 78.8665 96.556C78.8198 96.6027 78.7545 96.626 78.6705 96.626H73.6585C73.6865 97.41 73.8918 98.0727 74.2745 98.614C74.6665 99.146 75.2498 99.412 76.0245 99.412C76.4445 99.412 76.8132 99.3373 77.1305 99.188C77.4572 99.0293 77.8165 98.754 78.2085 98.362ZM75.9265 93.7C75.3105 93.7 74.8018 93.8913 74.4005 94.274C74.0085 94.6473 73.7705 95.198 73.6865 95.926H78.0405C78.0218 95.2447 77.8258 94.7033 77.4525 94.302C77.0792 93.9007 76.5705 93.7 75.9265 93.7ZM86.9545 99.23C86.9825 99.2207 87.0199 99.216 87.0665 99.216C87.1225 99.216 87.1739 99.2347 87.2205 99.272C87.2672 99.3093 87.2952 99.3607 87.3045 99.426L87.3465 99.622C87.3559 99.6407 87.3605 99.6733 87.3605 99.72C87.3605 99.8507 87.2905 99.93 87.1505 99.958C86.8145 100.061 86.4552 100.112 86.0725 100.112C85.4659 100.112 85.0319 99.9767 84.7705 99.706C84.5185 99.426 84.3925 99.0247 84.3925 98.502V93.798H83.3565C83.1699 93.798 83.0765 93.7047 83.0765 93.518V93.378C83.0765 93.1913 83.1699 93.098 83.3565 93.098H84.3925V90.97C84.3925 90.7833 84.4859 90.69 84.6725 90.69H85.0365C85.2232 90.69 85.3165 90.7833 85.3165 90.97V93.098H86.9965C87.1832 93.098 87.2765 93.1913 87.2765 93.378V93.518C87.2765 93.7047 87.1832 93.798 86.9965 93.798H85.3165V98.39C85.3165 98.7353 85.3819 98.978 85.5125 99.118C85.6432 99.258 85.8672 99.328 86.1845 99.328C86.4085 99.328 86.6652 99.2953 86.9545 99.23ZM91.7664 92.93C92.5691 92.93 93.1804 93.1587 93.6004 93.616C94.0204 94.064 94.2304 94.6193 94.2304 95.282V99.72C94.2304 99.9067 94.1371 100 93.9504 100H93.5864C93.3997 100 93.3064 99.9067 93.3064 99.72V95.59C93.3064 94.974 93.1571 94.5073 92.8584 94.19C92.5597 93.8727 92.1304 93.714 91.5704 93.714C91.2157 93.714 90.8891 93.8027 90.5904 93.98C90.2917 94.148 90.0537 94.3813 89.8764 94.68C89.6991 94.9787 89.6104 95.3053 89.6104 95.66V99.72C89.6104 99.9067 89.5171 100 89.3304 100H88.9664C88.7797 100 88.6864 99.9067 88.6864 99.72V90.34C88.6864 90.1533 88.7797 90.06 88.9664 90.06H89.3304C89.5171 90.06 89.6104 90.1533 89.6104 90.34V93.994C89.8344 93.6393 90.1331 93.3733 90.5064 93.196C90.8891 93.0187 91.3091 92.93 91.7664 92.93ZM96.7363 91.348C96.5496 91.348 96.3909 91.2827 96.2603 91.152C96.1389 91.0213 96.0783 90.8627 96.0783 90.676C96.0783 90.4893 96.1389 90.3353 96.2603 90.214C96.3909 90.0927 96.5496 90.032 96.7363 90.032C96.9323 90.032 97.0909 90.0927 97.2123 90.214C97.3429 90.3353 97.4083 90.4893 97.4083 90.676C97.4083 90.8627 97.3429 91.0213 97.2123 91.152C97.0909 91.2827 96.9323 91.348 96.7363 91.348ZM96.5543 100C96.3676 100 96.2743 99.9067 96.2743 99.72V93.378C96.2743 93.1913 96.3676 93.098 96.5543 93.098H96.9183C97.1049 93.098 97.1983 93.1913 97.1983 93.378V99.72C97.1983 99.9067 97.1049 100 96.9183 100H96.5543ZM101.663 100.182C101.093 100.182 100.589 100.103 100.151 99.944C99.7214 99.776 99.2688 99.496 98.7928 99.104C98.7088 99.048 98.6668 98.9827 98.6668 98.908C98.6668 98.8427 98.6994 98.7773 98.7648 98.712L98.9468 98.516C99.0028 98.4413 99.0728 98.404 99.1568 98.404C99.2221 98.404 99.2828 98.432 99.3388 98.488C99.7868 98.8333 100.183 99.076 100.529 99.216C100.874 99.3467 101.252 99.412 101.663 99.412C102.176 99.412 102.596 99.3 102.923 99.076C103.249 98.8427 103.413 98.53 103.413 98.138C103.413 97.746 103.245 97.4567 102.909 97.27C102.573 97.0833 102.055 96.9153 101.355 96.766C100.739 96.6353 100.253 96.5 99.8988 96.36C99.5534 96.2107 99.2968 96.024 99.1288 95.8C98.9608 95.576 98.8768 95.282 98.8768 94.918C98.8768 94.3207 99.1194 93.84 99.6048 93.476C100.09 93.112 100.701 92.93 101.439 92.93C101.943 92.93 102.391 92.9953 102.783 93.126C103.184 93.2473 103.585 93.4527 103.987 93.742C104.071 93.8073 104.113 93.8773 104.113 93.952C104.113 93.9987 104.089 94.0593 104.043 94.134L103.875 94.344C103.828 94.4187 103.763 94.456 103.679 94.456C103.604 94.456 103.539 94.4327 103.483 94.386C103.1 94.1153 102.759 93.9333 102.461 93.84C102.171 93.7467 101.84 93.7 101.467 93.7C100.953 93.7 100.543 93.812 100.235 94.036C99.9268 94.26 99.7728 94.5447 99.7728 94.89C99.7728 95.1047 99.8428 95.2773 99.9828 95.408C100.123 95.5387 100.323 95.6507 100.585 95.744C100.846 95.828 101.229 95.926 101.733 96.038C102.666 96.2433 103.329 96.4953 103.721 96.794C104.122 97.0927 104.323 97.5267 104.323 98.096C104.323 98.7213 104.075 99.2253 103.581 99.608C103.086 99.9907 102.447 100.182 101.663 100.182ZM113.368 93.322C113.424 93.1727 113.532 93.098 113.69 93.098H114.054C114.129 93.098 114.19 93.1167 114.236 93.154C114.283 93.1913 114.306 93.2427 114.306 93.308L114.278 93.42L112.052 99.776C111.996 99.9253 111.889 100 111.73 100H110.988C110.83 100 110.722 99.9253 110.666 99.776L108.454 93.42L108.426 93.308C108.426 93.2427 108.45 93.1913 108.496 93.154C108.543 93.1167 108.604 93.098 108.678 93.098H109.056C109.215 93.098 109.322 93.1727 109.378 93.322L110.232 95.786C110.587 96.8127 110.965 97.9933 111.366 99.328C111.385 99.272 111.436 99.1133 111.52 98.852C111.903 97.592 112.234 96.57 112.514 95.786L113.368 93.322ZM118.266 92.93C119.116 92.93 119.778 93.1353 120.254 93.546C120.73 93.9473 120.968 94.4793 120.968 95.142V99.72C120.968 99.9067 120.875 100 120.688 100H120.408C120.222 100 120.128 99.9067 120.128 99.72V99.09C119.895 99.4633 119.564 99.7433 119.134 99.93C118.714 100.117 118.243 100.21 117.72 100.21C116.992 100.21 116.4 100.056 115.942 99.748C115.485 99.44 115.256 98.964 115.256 98.32C115.256 97.8067 115.401 97.396 115.69 97.088C115.98 96.7707 116.358 96.5327 116.824 96.374C117.291 96.206 117.874 96.0567 118.574 95.926L120.086 95.66V95.212C120.086 94.736 119.923 94.3673 119.596 94.106C119.27 93.8353 118.84 93.7 118.308 93.7C117.907 93.7 117.543 93.7747 117.216 93.924C116.89 94.0733 116.54 94.33 116.166 94.694C116.101 94.7593 116.031 94.792 115.956 94.792C115.891 94.792 115.83 94.764 115.774 94.708L115.592 94.54C115.527 94.4747 115.494 94.4047 115.494 94.33C115.494 94.246 115.527 94.1713 115.592 94.106C115.984 93.6953 116.395 93.3967 116.824 93.21C117.263 93.0233 117.744 92.93 118.266 92.93ZM117.762 99.44C118.434 99.44 118.99 99.2627 119.428 98.908C119.867 98.5533 120.086 98.1007 120.086 97.55V96.374L118.784 96.626C118.178 96.7473 117.697 96.864 117.342 96.976C116.988 97.088 116.703 97.2513 116.488 97.466C116.274 97.6807 116.166 97.9607 116.166 98.306C116.166 98.6607 116.306 98.9407 116.586 99.146C116.876 99.342 117.268 99.44 117.762 99.44ZM125.592 93.042C125.826 93.042 126.101 93.0793 126.418 93.154C126.586 93.21 126.652 93.3267 126.614 93.504L126.558 93.728C126.512 93.9053 126.395 93.9707 126.208 93.924C125.984 93.868 125.779 93.84 125.592 93.84C125.116 93.84 124.72 94.0453 124.402 94.456C124.094 94.8667 123.94 95.436 123.94 96.164V99.72C123.94 99.9067 123.847 100 123.66 100H123.296C123.11 100 123.016 99.9067 123.016 99.72V93.378C123.016 93.1913 123.11 93.098 123.296 93.098H123.604C123.791 93.098 123.884 93.1913 123.884 93.378V94.148C124.043 93.8027 124.267 93.532 124.556 93.336C124.855 93.14 125.2 93.042 125.592 93.042ZM128.332 91.348C128.145 91.348 127.987 91.2827 127.856 91.152C127.735 91.0213 127.674 90.8627 127.674 90.676C127.674 90.4893 127.735 90.3353 127.856 90.214C127.987 90.0927 128.145 90.032 128.332 90.032C128.528 90.032 128.687 90.0927 128.808 90.214C128.939 90.3353 129.004 90.4893 129.004 90.676C129.004 90.8627 128.939 91.0213 128.808 91.152C128.687 91.2827 128.528 91.348 128.332 91.348ZM128.15 100C127.963 100 127.87 99.9067 127.87 99.72V93.378C127.87 93.1913 127.963 93.098 128.15 93.098H128.514C128.701 93.098 128.794 93.1913 128.794 93.378V99.72C128.794 99.9067 128.701 100 128.514 100H128.15ZM133.51 92.93C134.36 92.93 135.022 93.1353 135.498 93.546C135.974 93.9473 136.212 94.4793 136.212 95.142V99.72C136.212 99.9067 136.119 100 135.932 100H135.652C135.466 100 135.372 99.9067 135.372 99.72V99.09C135.139 99.4633 134.808 99.7433 134.378 99.93C133.958 100.117 133.487 100.21 132.964 100.21C132.236 100.21 131.644 100.056 131.186 99.748C130.729 99.44 130.5 98.964 130.5 98.32C130.5 97.8067 130.645 97.396 130.934 97.088C131.224 96.7707 131.602 96.5327 132.068 96.374C132.535 96.206 133.118 96.0567 133.818 95.926L135.33 95.66V95.212C135.33 94.736 135.167 94.3673 134.84 94.106C134.514 93.8353 134.084 93.7 133.552 93.7C133.151 93.7 132.787 93.7747 132.46 93.924C132.134 94.0733 131.784 94.33 131.41 94.694C131.345 94.7593 131.275 94.792 131.2 94.792C131.135 94.792 131.074 94.764 131.018 94.708L130.836 94.54C130.771 94.4747 130.738 94.4047 130.738 94.33C130.738 94.246 130.771 94.1713 130.836 94.106C131.228 93.6953 131.639 93.3967 132.068 93.21C132.507 93.0233 132.988 92.93 133.51 92.93ZM133.006 99.44C133.678 99.44 134.234 99.2627 134.672 98.908C135.111 98.5533 135.33 98.1007 135.33 97.55V96.374L134.028 96.626C133.422 96.7473 132.941 96.864 132.586 96.976C132.232 97.088 131.947 97.2513 131.732 97.466C131.518 97.6807 131.41 97.9607 131.41 98.306C131.41 98.6607 131.55 98.9407 131.83 99.146C132.12 99.342 132.512 99.44 133.006 99.44ZM141.341 92.93C142.153 92.93 142.764 93.154 143.175 93.602C143.595 94.05 143.805 94.61 143.805 95.282V99.72C143.805 99.9067 143.711 100 143.525 100H143.161C142.974 100 142.881 99.9067 142.881 99.72V95.59C142.881 94.974 142.731 94.5073 142.433 94.19C142.134 93.8727 141.705 93.714 141.145 93.714C140.79 93.714 140.463 93.8027 140.165 93.98C139.866 94.148 139.628 94.3813 139.451 94.68C139.273 94.9787 139.185 95.3053 139.185 95.66V99.72C139.185 99.9067 139.091 100 138.905 100H138.541C138.354 100 138.261 99.9067 138.261 99.72V93.378C138.261 93.1913 138.354 93.098 138.541 93.098H138.849C139.035 93.098 139.129 93.1913 139.129 93.378V94.05C139.362 93.6767 139.67 93.3967 140.053 93.21C140.435 93.0233 140.865 92.93 141.341 92.93ZM148.765 99.23C148.793 99.2207 148.83 99.216 148.877 99.216C148.933 99.216 148.984 99.2347 149.031 99.272C149.078 99.3093 149.106 99.3607 149.115 99.426L149.157 99.622C149.166 99.6407 149.171 99.6733 149.171 99.72C149.171 99.8507 149.101 99.93 148.961 99.958C148.625 100.061 148.266 100.112 147.883 100.112C147.276 100.112 146.842 99.9767 146.581 99.706C146.329 99.426 146.203 99.0247 146.203 98.502V93.798H145.167C144.98 93.798 144.887 93.7047 144.887 93.518V93.378C144.887 93.1913 144.98 93.098 145.167 93.098H146.203V90.97C146.203 90.7833 146.296 90.69 146.483 90.69H146.847C147.034 90.69 147.127 90.7833 147.127 90.97V93.098H148.807C148.994 93.098 149.087 93.1913 149.087 93.378V93.518C149.087 93.7047 148.994 93.798 148.807 93.798H147.127V98.39C147.127 98.7353 147.192 98.978 147.323 99.118C147.454 99.258 147.678 99.328 147.995 99.328C148.219 99.328 148.476 99.2953 148.765 99.23ZM156.832 99.23C156.86 99.2207 156.897 99.216 156.944 99.216C157 99.216 157.051 99.2347 157.098 99.272C157.144 99.3093 157.172 99.3607 157.182 99.426L157.224 99.622C157.233 99.6407 157.238 99.6733 157.238 99.72C157.238 99.8507 157.168 99.93 157.028 99.958C156.692 100.061 156.332 100.112 155.95 100.112C155.343 100.112 154.909 99.9767 154.648 99.706C154.396 99.426 154.27 99.0247 154.27 98.502V93.798H153.234C153.047 93.798 152.954 93.7047 152.954 93.518V93.378C152.954 93.1913 153.047 93.098 153.234 93.098H154.27V90.97C154.27 90.7833 154.363 90.69 154.55 90.69H154.914C155.1 90.69 155.194 90.7833 155.194 90.97V93.098H156.874C157.06 93.098 157.154 93.1913 157.154 93.378V93.518C157.154 93.7047 157.06 93.798 156.874 93.798H155.194V98.39C155.194 98.7353 155.259 98.978 155.39 99.118C155.52 99.258 155.744 99.328 156.062 99.328C156.286 99.328 156.542 99.2953 156.832 99.23ZM161.16 100.182C160.516 100.182 159.942 100.028 159.438 99.72C158.934 99.412 158.542 98.9873 158.262 98.446C157.982 97.8953 157.842 97.2653 157.842 96.556C157.842 95.8467 157.982 95.2213 158.262 94.68C158.542 94.1293 158.934 93.7 159.438 93.392C159.942 93.084 160.516 92.93 161.16 92.93C161.804 92.93 162.378 93.084 162.882 93.392C163.386 93.7 163.778 94.1293 164.058 94.68C164.338 95.2213 164.478 95.8467 164.478 96.556C164.478 97.2653 164.338 97.8953 164.058 98.446C163.778 98.9873 163.386 99.412 162.882 99.72C162.378 100.028 161.804 100.182 161.16 100.182ZM161.16 99.412C161.878 99.412 162.452 99.1507 162.882 98.628C163.311 98.096 163.526 97.4053 163.526 96.556C163.526 95.7067 163.311 95.0207 162.882 94.498C162.452 93.966 161.878 93.7 161.16 93.7C160.441 93.7 159.867 93.966 159.438 94.498C159.008 95.0207 158.794 95.7067 158.794 96.556C158.794 97.4053 159.008 98.096 159.438 98.628C159.867 99.1507 160.441 99.412 161.16 99.412ZM169.771 91.348C169.585 91.348 169.426 91.2827 169.295 91.152C169.174 91.0213 169.113 90.8627 169.113 90.676C169.113 90.4893 169.174 90.3353 169.295 90.214C169.426 90.0927 169.585 90.032 169.771 90.032C169.967 90.032 170.126 90.0927 170.247 90.214C170.378 90.3353 170.443 90.4893 170.443 90.676C170.443 90.8627 170.378 91.0213 170.247 91.152C170.126 91.2827 169.967 91.348 169.771 91.348ZM169.589 100C169.403 100 169.309 99.9067 169.309 99.72V93.378C169.309 93.1913 169.403 93.098 169.589 93.098H169.953C170.14 93.098 170.233 93.1913 170.233 93.378V99.72C170.233 99.9067 170.14 100 169.953 100H169.589ZM175.37 92.93C176.182 92.93 176.793 93.154 177.204 93.602C177.624 94.05 177.834 94.61 177.834 95.282V99.72C177.834 99.9067 177.741 100 177.554 100H177.19C177.003 100 176.91 99.9067 176.91 99.72V95.59C176.91 94.974 176.761 94.5073 176.462 94.19C176.163 93.8727 175.734 93.714 175.174 93.714C174.819 93.714 174.493 93.8027 174.194 93.98C173.895 94.148 173.657 94.3813 173.48 94.68C173.303 94.9787 173.214 95.3053 173.214 95.66V99.72C173.214 99.9067 173.121 100 172.934 100H172.57C172.383 100 172.29 99.9067 172.29 99.72V93.378C172.29 93.1913 172.383 93.098 172.57 93.098H172.878C173.065 93.098 173.158 93.1913 173.158 93.378V94.05C173.391 93.6767 173.699 93.3967 174.082 93.21C174.465 93.0233 174.894 92.93 175.37 92.93ZM182.346 90.662C181.926 90.662 181.627 90.774 181.45 90.998C181.272 91.2127 181.184 91.5767 181.184 92.09V93.098H182.724C182.91 93.098 183.004 93.1913 183.004 93.378V93.518C183.004 93.7047 182.91 93.798 182.724 93.798H181.184V99.72C181.184 99.9067 181.09 100 180.904 100H180.54C180.353 100 180.26 99.9067 180.26 99.72V93.798H179.224C179.037 93.798 178.944 93.7047 178.944 93.518V93.378C178.944 93.1913 179.037 93.098 179.224 93.098H180.26V91.936C180.26 91.292 180.428 90.788 180.764 90.424C181.109 90.06 181.599 89.878 182.234 89.878C182.588 89.878 182.952 89.9293 183.326 90.032C183.503 90.088 183.568 90.2047 183.522 90.382L183.466 90.578C183.419 90.7087 183.326 90.774 183.186 90.774C183.158 90.774 183.097 90.7647 183.004 90.746C182.798 90.69 182.579 90.662 182.346 90.662ZM186.808 100.182C186.164 100.182 185.59 100.028 185.086 99.72C184.582 99.412 184.19 98.9873 183.91 98.446C183.63 97.8953 183.49 97.2653 183.49 96.556C183.49 95.8467 183.63 95.2213 183.91 94.68C184.19 94.1293 184.582 93.7 185.086 93.392C185.59 93.084 186.164 92.93 186.808 92.93C187.452 92.93 188.026 93.084 188.53 93.392C189.034 93.7 189.426 94.1293 189.706 94.68C189.986 95.2213 190.126 95.8467 190.126 96.556C190.126 97.2653 189.986 97.8953 189.706 98.446C189.426 98.9873 189.034 99.412 188.53 99.72C188.026 100.028 187.452 100.182 186.808 100.182ZM186.808 99.412C187.527 99.412 188.101 99.1507 188.53 98.628C188.959 98.096 189.174 97.4053 189.174 96.556C189.174 95.7067 188.959 95.0207 188.53 94.498C188.101 93.966 187.527 93.7 186.808 93.7C186.089 93.7 185.515 93.966 185.086 94.498C184.657 95.0207 184.442 95.7067 184.442 96.556C184.442 97.4053 184.657 98.096 185.086 98.628C185.515 99.1507 186.089 99.412 186.808 99.412ZM194.307 93.042C194.541 93.042 194.816 93.0793 195.133 93.154C195.301 93.21 195.367 93.3267 195.329 93.504L195.273 93.728C195.227 93.9053 195.11 93.9707 194.923 93.924C194.699 93.868 194.494 93.84 194.307 93.84C193.831 93.84 193.435 94.0453 193.117 94.456C192.809 94.8667 192.655 95.436 192.655 96.164V99.72C192.655 99.9067 192.562 100 192.375 100H192.011C191.825 100 191.731 99.9067 191.731 99.72V93.378C191.731 93.1913 191.825 93.098 192.011 93.098H192.319C192.506 93.098 192.599 93.1913 192.599 93.378V94.148C192.758 93.8027 192.982 93.532 193.271 93.336C193.57 93.14 193.915 93.042 194.307 93.042ZM203.599 92.93C204.345 92.93 204.915 93.1447 205.307 93.574C205.708 93.994 205.909 94.5353 205.909 95.198V99.72C205.909 99.9067 205.815 100 205.629 100H205.265C205.078 100 204.985 99.9067 204.985 99.72V95.45C204.985 94.89 204.854 94.4607 204.593 94.162C204.341 93.8633 203.963 93.714 203.459 93.714C202.927 93.714 202.502 93.8913 202.185 94.246C201.867 94.6007 201.709 95.058 201.709 95.618V99.72C201.709 99.9067 201.615 100 201.429 100H201.065C200.878 100 200.785 99.9067 200.785 99.72V95.45C200.785 94.89 200.654 94.4607 200.393 94.162C200.141 93.8633 199.758 93.714 199.245 93.714C198.769 93.714 198.372 93.8633 198.055 94.162C197.747 94.4607 197.565 94.8527 197.509 95.338V99.72C197.509 99.9067 197.415 100 197.229 100H196.865C196.678 100 196.585 99.9067 196.585 99.72V93.378C196.585 93.1913 196.678 93.098 196.865 93.098H197.173C197.359 93.098 197.453 93.1913 197.453 93.378V93.952C197.873 93.2707 198.54 92.93 199.455 92.93C199.931 92.93 200.337 93.0373 200.673 93.252C201.018 93.4573 201.275 93.7373 201.443 94.092C201.937 93.3173 202.656 92.93 203.599 92.93ZM215.653 93.378C215.653 93.1913 215.746 93.098 215.933 93.098H216.297C216.483 93.098 216.577 93.1913 216.577 93.378V99.72C216.577 99.9067 216.483 100 216.297 100H216.003C215.816 100 215.723 99.9067 215.723 99.72V99.09C215.517 99.454 215.223 99.7293 214.841 99.916C214.467 100.093 214.057 100.182 213.609 100.182C212.769 100.182 212.148 99.972 211.747 99.552C211.345 99.1227 211.145 98.572 211.145 97.9V93.378C211.145 93.1913 211.238 93.098 211.425 93.098H211.789C211.975 93.098 212.069 93.1913 212.069 93.378V97.704C212.069 98.2547 212.204 98.6747 212.475 98.964C212.755 99.244 213.151 99.384 213.665 99.384C214.243 99.384 214.719 99.2067 215.093 98.852C215.466 98.4973 215.653 97.9933 215.653 97.34V93.378ZM221.059 100.182C220.49 100.182 219.986 100.103 219.547 99.944C219.118 99.776 218.665 99.496 218.189 99.104C218.105 99.048 218.063 98.9827 218.063 98.908C218.063 98.8427 218.096 98.7773 218.161 98.712L218.343 98.516C218.399 98.4413 218.469 98.404 218.553 98.404C218.619 98.404 218.679 98.432 218.735 98.488C219.183 98.8333 219.58 99.076 219.925 99.216C220.271 99.3467 220.649 99.412 221.059 99.412C221.573 99.412 221.993 99.3 222.319 99.076C222.646 98.8427 222.809 98.53 222.809 98.138C222.809 97.746 222.641 97.4567 222.305 97.27C221.969 97.0833 221.451 96.9153 220.751 96.766C220.135 96.6353 219.65 96.5 219.295 96.36C218.95 96.2107 218.693 96.024 218.525 95.8C218.357 95.576 218.273 95.282 218.273 94.918C218.273 94.3207 218.516 93.84 219.001 93.476C219.487 93.112 220.098 92.93 220.835 92.93C221.339 92.93 221.787 92.9953 222.179 93.126C222.581 93.2473 222.982 93.4527 223.383 93.742C223.467 93.8073 223.509 93.8773 223.509 93.952C223.509 93.9987 223.486 94.0593 223.439 94.134L223.271 94.344C223.225 94.4187 223.159 94.456 223.075 94.456C223.001 94.456 222.935 94.4327 222.879 94.386C222.497 94.1153 222.156 93.9333 221.857 93.84C221.568 93.7467 221.237 93.7 220.863 93.7C220.35 93.7 219.939 93.812 219.631 94.036C219.323 94.26 219.169 94.5447 219.169 94.89C219.169 95.1047 219.239 95.2773 219.379 95.408C219.519 95.5387 219.72 95.6507 219.981 95.744C220.243 95.828 220.625 95.926 221.129 96.038C222.063 96.2433 222.725 96.4953 223.117 96.794C223.519 97.0927 223.719 97.5267 223.719 98.096C223.719 98.7213 223.472 99.2253 222.977 99.608C222.483 99.9907 221.843 100.182 221.059 100.182ZM230.308 98.362C230.373 98.2967 230.443 98.264 230.518 98.264C230.583 98.264 230.644 98.292 230.7 98.348L230.882 98.516C230.947 98.5813 230.98 98.6513 230.98 98.726C230.98 98.782 230.952 98.8473 230.896 98.922C230.439 99.3793 229.995 99.706 229.566 99.902C229.137 100.089 228.656 100.182 228.124 100.182C227.452 100.182 226.869 100.033 226.374 99.734C225.879 99.4353 225.497 99.02 225.226 98.488C224.955 97.9467 224.82 97.3213 224.82 96.612C224.82 95.8933 224.951 95.2587 225.212 94.708C225.483 94.148 225.861 93.714 226.346 93.406C226.831 93.0887 227.391 92.93 228.026 92.93C228.969 92.93 229.711 93.224 230.252 93.812C230.793 94.4 231.064 95.1933 231.064 96.192V96.36C231.055 96.444 231.022 96.5093 230.966 96.556C230.919 96.6027 230.854 96.626 230.77 96.626H225.758C225.786 97.41 225.991 98.0727 226.374 98.614C226.766 99.146 227.349 99.412 228.124 99.412C228.544 99.412 228.913 99.3373 229.23 99.188C229.557 99.0293 229.916 98.754 230.308 98.362ZM228.026 93.7C227.41 93.7 226.901 93.8913 226.5 94.274C226.108 94.6473 225.87 95.198 225.786 95.926H230.14C230.121 95.2447 229.925 94.7033 229.552 94.302C229.179 93.9007 228.67 93.7 228.026 93.7ZM235.296 93.042C235.529 93.042 235.804 93.0793 236.122 93.154C236.29 93.21 236.355 93.3267 236.318 93.504L236.262 93.728C236.215 93.9053 236.098 93.9707 235.912 93.924C235.688 93.868 235.482 93.84 235.296 93.84C234.82 93.84 234.423 94.0453 234.106 94.456C233.798 94.8667 233.644 95.436 233.644 96.164V99.72C233.644 99.9067 233.55 100 233.364 100H233C232.813 100 232.72 99.9067 232.72 99.72V93.378C232.72 93.1913 232.813 93.098 233 93.098H233.308C233.494 93.098 233.588 93.1913 233.588 93.378V94.148C233.746 93.8027 233.97 93.532 234.26 93.336C234.558 93.14 234.904 93.042 235.296 93.042ZM239.776 100.182C239.207 100.182 238.703 100.103 238.264 99.944C237.835 99.776 237.382 99.496 236.906 99.104C236.822 99.048 236.78 98.9827 236.78 98.908C236.78 98.8427 236.813 98.7773 236.878 98.712L237.06 98.516C237.116 98.4413 237.186 98.404 237.27 98.404C237.335 98.404 237.396 98.432 237.452 98.488C237.9 98.8333 238.297 99.076 238.642 99.216C238.987 99.3467 239.365 99.412 239.776 99.412C240.289 99.412 240.709 99.3 241.036 99.076C241.363 98.8427 241.526 98.53 241.526 98.138C241.526 97.746 241.358 97.4567 241.022 97.27C240.686 97.0833 240.168 96.9153 239.468 96.766C238.852 96.6353 238.367 96.5 238.012 96.36C237.667 96.2107 237.41 96.024 237.242 95.8C237.074 95.576 236.99 95.282 236.99 94.918C236.99 94.3207 237.233 93.84 237.718 93.476C238.203 93.112 238.815 92.93 239.552 92.93C240.056 92.93 240.504 92.9953 240.896 93.126C241.297 93.2473 241.699 93.4527 242.1 93.742C242.184 93.8073 242.226 93.8773 242.226 93.952C242.226 93.9987 242.203 94.0593 242.156 94.134L241.988 94.344C241.941 94.4187 241.876 94.456 241.792 94.456C241.717 94.456 241.652 94.4327 241.596 94.386C241.213 94.1153 240.873 93.9333 240.574 93.84C240.285 93.7467 239.953 93.7 239.58 93.7C239.067 93.7 238.656 93.812 238.348 94.036C238.04 94.26 237.886 94.5447 237.886 94.89C237.886 95.1047 237.956 95.2773 238.096 95.408C238.236 95.5387 238.437 95.6507 238.698 95.744C238.959 95.828 239.342 95.926 239.846 96.038C240.779 96.2433 241.442 96.4953 241.834 96.794C242.235 97.0927 242.436 97.5267 242.436 98.096C242.436 98.7213 242.189 99.2253 241.694 99.608C241.199 99.9907 240.56 100.182 239.776 100.182ZM250.081 100.182C249.437 100.182 248.863 100.028 248.359 99.72C247.855 99.412 247.463 98.9873 247.183 98.446C246.903 97.8953 246.763 97.2653 246.763 96.556C246.763 95.8467 246.903 95.2213 247.183 94.68C247.463 94.1293 247.855 93.7 248.359 93.392C248.863 93.084 249.437 92.93 250.081 92.93C250.725 92.93 251.299 93.084 251.803 93.392C252.307 93.7 252.699 94.1293 252.979 94.68C253.259 95.2213 253.399 95.8467 253.399 96.556C253.399 97.2653 253.259 97.8953 252.979 98.446C252.699 98.9873 252.307 99.412 251.803 99.72C251.299 100.028 250.725 100.182 250.081 100.182ZM250.081 99.412C250.8 99.412 251.374 99.1507 251.803 98.628C252.233 98.096 252.447 97.4053 252.447 96.556C252.447 95.7067 252.233 95.0207 251.803 94.498C251.374 93.966 250.8 93.7 250.081 93.7C249.363 93.7 248.789 93.966 248.359 94.498C247.93 95.0207 247.715 95.7067 247.715 96.556C247.715 97.4053 247.93 98.096 248.359 98.628C248.789 99.1507 249.363 99.412 250.081 99.412ZM257.5 90.662C257.08 90.662 256.781 90.774 256.604 90.998C256.427 91.2127 256.338 91.5767 256.338 92.09V93.098H257.878C258.065 93.098 258.158 93.1913 258.158 93.378V93.518C258.158 93.7047 258.065 93.798 257.878 93.798H256.338V99.72C256.338 99.9067 256.245 100 256.058 100H255.694C255.507 100 255.414 99.9067 255.414 99.72V93.798H254.378C254.191 93.798 254.098 93.7047 254.098 93.518V93.378C254.098 93.1913 254.191 93.098 254.378 93.098H255.414V91.936C255.414 91.292 255.582 90.788 255.918 90.424C256.263 90.06 256.753 89.878 257.388 89.878C257.743 89.878 258.107 89.9293 258.48 90.032C258.657 90.088 258.723 90.2047 258.676 90.382L258.62 90.578C258.573 90.7087 258.48 90.774 258.34 90.774C258.312 90.774 258.251 90.7647 258.158 90.746C257.953 90.69 257.733 90.662 257.5 90.662ZM265.403 92.93C266.252 92.93 266.915 93.1353 267.391 93.546C267.867 93.9473 268.105 94.4793 268.105 95.142V99.72C268.105 99.9067 268.012 100 267.825 100H267.545C267.358 100 267.265 99.9067 267.265 99.72V99.09C267.032 99.4633 266.7 99.7433 266.271 99.93C265.851 100.117 265.38 100.21 264.857 100.21C264.129 100.21 263.536 100.056 263.079 99.748C262.622 99.44 262.393 98.964 262.393 98.32C262.393 97.8067 262.538 97.396 262.827 97.088C263.116 96.7707 263.494 96.5327 263.961 96.374C264.428 96.206 265.011 96.0567 265.711 95.926L267.223 95.66V95.212C267.223 94.736 267.06 94.3673 266.733 94.106C266.406 93.8353 265.977 93.7 265.445 93.7C265.044 93.7 264.68 93.7747 264.353 93.924C264.026 94.0733 263.676 94.33 263.303 94.694C263.238 94.7593 263.168 94.792 263.093 94.792C263.028 94.792 262.967 94.764 262.911 94.708L262.729 94.54C262.664 94.4747 262.631 94.4047 262.631 94.33C262.631 94.246 262.664 94.1713 262.729 94.106C263.121 93.6953 263.532 93.3967 263.961 93.21C264.4 93.0233 264.88 92.93 265.403 92.93ZM264.899 99.44C265.571 99.44 266.126 99.2627 266.565 98.908C267.004 98.5533 267.223 98.1007 267.223 97.55V96.374L265.921 96.626C265.314 96.7473 264.834 96.864 264.479 96.976C264.124 97.088 263.84 97.2513 263.625 97.466C263.41 97.6807 263.303 97.9607 263.303 98.306C263.303 98.6607 263.443 98.9407 263.723 99.146C264.012 99.342 264.404 99.44 264.899 99.44ZM59.444 118.182C58.8747 118.182 58.3707 118.103 57.932 117.944C57.5027 117.776 57.05 117.496 56.574 117.104C56.49 117.048 56.448 116.983 56.448 116.908C56.448 116.843 56.4807 116.777 56.546 116.712L56.728 116.516C56.784 116.441 56.854 116.404 56.938 116.404C57.0033 116.404 57.064 116.432 57.12 116.488C57.568 116.833 57.9647 117.076 58.31 117.216C58.6553 117.347 59.0333 117.412 59.444 117.412C59.9573 117.412 60.3773 117.3 60.704 117.076C61.0307 116.843 61.194 116.53 61.194 116.138C61.194 115.746 61.026 115.457 60.69 115.27C60.354 115.083 59.836 114.915 59.136 114.766C58.52 114.635 58.0347 114.5 57.68 114.36C57.3347 114.211 57.078 114.024 56.91 113.8C56.742 113.576 56.658 113.282 56.658 112.918C56.658 112.321 56.9007 111.84 57.386 111.476C57.8713 111.112 58.4827 110.93 59.22 110.93C59.724 110.93 60.172 110.995 60.564 111.126C60.9653 111.247 61.3667 111.453 61.768 111.742C61.852 111.807 61.894 111.877 61.894 111.952C61.894 111.999 61.8707 112.059 61.824 112.134L61.656 112.344C61.6093 112.419 61.544 112.456 61.46 112.456C61.3853 112.456 61.32 112.433 61.264 112.386C60.8813 112.115 60.5407 111.933 60.242 111.84C59.9527 111.747 59.6213 111.7 59.248 111.7C58.7347 111.7 58.324 111.812 58.016 112.036C57.708 112.26 57.554 112.545 57.554 112.89C57.554 113.105 57.624 113.277 57.764 113.408C57.904 113.539 58.1047 113.651 58.366 113.744C58.6273 113.828 59.01 113.926 59.514 114.038C60.4473 114.243 61.11 114.495 61.502 114.794C61.9033 115.093 62.104 115.527 62.104 116.096C62.104 116.721 61.8567 117.225 61.362 117.608C60.8673 117.991 60.228 118.182 59.444 118.182ZM68.1469 111.378C68.1469 111.191 68.2402 111.098 68.4269 111.098H68.7909C68.9775 111.098 69.0709 111.191 69.0709 111.378V117.72C69.0709 117.907 68.9775 118 68.7909 118H68.4969C68.3102 118 68.2169 117.907 68.2169 117.72V117.09C68.0115 117.454 67.7175 117.729 67.3349 117.916C66.9615 118.093 66.5509 118.182 66.1029 118.182C65.2629 118.182 64.6422 117.972 64.2409 117.552C63.8395 117.123 63.6389 116.572 63.6389 115.9V111.378C63.6389 111.191 63.7322 111.098 63.9189 111.098H64.2829C64.4695 111.098 64.5629 111.191 64.5629 111.378V115.704C64.5629 116.255 64.6982 116.675 64.9689 116.964C65.2489 117.244 65.6455 117.384 66.1589 117.384C66.7375 117.384 67.2135 117.207 67.5869 116.852C67.9602 116.497 68.1469 115.993 68.1469 115.34V111.378ZM73.9454 118.182C73.2827 118.182 72.704 118.033 72.2094 117.734C71.724 117.426 71.346 117.001 71.0754 116.46C70.814 115.909 70.6834 115.275 70.6834 114.556C70.6834 113.847 70.814 113.217 71.0754 112.666C71.346 112.115 71.724 111.691 72.2094 111.392C72.704 111.084 73.2734 110.93 73.9174 110.93C74.44 110.93 74.8974 111.019 75.2894 111.196C75.6814 111.364 76.0594 111.644 76.4234 112.036C76.4794 112.092 76.5074 112.153 76.5074 112.218C76.5074 112.302 76.47 112.372 76.3954 112.428L76.1994 112.61C76.1434 112.666 76.078 112.694 76.0034 112.694C75.938 112.694 75.868 112.657 75.7934 112.582C75.4667 112.255 75.154 112.027 74.8554 111.896C74.566 111.765 74.244 111.7 73.8894 111.7C73.404 111.7 72.9887 111.835 72.6434 112.106C72.3074 112.377 72.0554 112.731 71.8874 113.17C71.7194 113.599 71.6354 114.061 71.6354 114.556C71.6354 115.051 71.7194 115.517 71.8874 115.956C72.0554 116.385 72.312 116.735 72.6574 117.006C73.0027 117.267 73.4274 117.398 73.9314 117.398C74.3047 117.398 74.6314 117.333 74.9114 117.202C75.2007 117.062 75.5227 116.801 75.8774 116.418C75.952 116.343 76.022 116.306 76.0874 116.306C76.162 116.306 76.2274 116.334 76.2834 116.39L76.4794 116.544C76.5447 116.6 76.5774 116.665 76.5774 116.74C76.5774 116.815 76.5354 116.903 76.4514 117.006C76.0594 117.435 75.6674 117.739 75.2754 117.916C74.8834 118.093 74.44 118.182 73.9454 118.182ZM80.7403 118.182C80.0776 118.182 79.499 118.033 79.0043 117.734C78.519 117.426 78.141 117.001 77.8703 116.46C77.609 115.909 77.4783 115.275 77.4783 114.556C77.4783 113.847 77.609 113.217 77.8703 112.666C78.141 112.115 78.519 111.691 79.0043 111.392C79.499 111.084 80.0683 110.93 80.7123 110.93C81.235 110.93 81.6923 111.019 82.0843 111.196C82.4763 111.364 82.8543 111.644 83.2183 112.036C83.2743 112.092 83.3023 112.153 83.3023 112.218C83.3023 112.302 83.265 112.372 83.1903 112.428L82.9943 112.61C82.9383 112.666 82.873 112.694 82.7983 112.694C82.733 112.694 82.663 112.657 82.5883 112.582C82.2616 112.255 81.949 112.027 81.6503 111.896C81.361 111.765 81.039 111.7 80.6843 111.7C80.199 111.7 79.7836 111.835 79.4383 112.106C79.1023 112.377 78.8503 112.731 78.6823 113.17C78.5143 113.599 78.4303 114.061 78.4303 114.556C78.4303 115.051 78.5143 115.517 78.6823 115.956C78.8503 116.385 79.107 116.735 79.4523 117.006C79.7976 117.267 80.2223 117.398 80.7263 117.398C81.0996 117.398 81.4263 117.333 81.7063 117.202C81.9956 117.062 82.3176 116.801 82.6723 116.418C82.747 116.343 82.817 116.306 82.8823 116.306C82.957 116.306 83.0223 116.334 83.0783 116.39L83.2743 116.544C83.3396 116.6 83.3723 116.665 83.3723 116.74C83.3723 116.815 83.3303 116.903 83.2463 117.006C82.8543 117.435 82.4623 117.739 82.0703 117.916C81.6783 118.093 81.235 118.182 80.7403 118.182ZM89.7612 116.362C89.8266 116.297 89.8966 116.264 89.9712 116.264C90.0366 116.264 90.0972 116.292 90.1532 116.348L90.3352 116.516C90.4006 116.581 90.4332 116.651 90.4332 116.726C90.4332 116.782 90.4052 116.847 90.3492 116.922C89.8919 117.379 89.4486 117.706 89.0192 117.902C88.5899 118.089 88.1092 118.182 87.5772 118.182C86.9052 118.182 86.3219 118.033 85.8272 117.734C85.3326 117.435 84.9499 117.02 84.6792 116.488C84.4086 115.947 84.2732 115.321 84.2732 114.612C84.2732 113.893 84.4039 113.259 84.6652 112.708C84.9359 112.148 85.3139 111.714 85.7992 111.406C86.2846 111.089 86.8446 110.93 87.4792 110.93C88.4219 110.93 89.1639 111.224 89.7052 111.812C90.2466 112.4 90.5172 113.193 90.5172 114.192V114.36C90.5079 114.444 90.4752 114.509 90.4192 114.556C90.3726 114.603 90.3072 114.626 90.2232 114.626H85.2112C85.2392 115.41 85.4446 116.073 85.8272 116.614C86.2192 117.146 86.8026 117.412 87.5772 117.412C87.9972 117.412 88.3659 117.337 88.6832 117.188C89.0099 117.029 89.3692 116.754 89.7612 116.362ZM87.4792 111.7C86.8632 111.7 86.3546 111.891 85.9532 112.274C85.5612 112.647 85.3232 113.198 85.2392 113.926H89.5932C89.5746 113.245 89.3786 112.703 89.0052 112.302C88.6319 111.901 88.1232 111.7 87.4792 111.7ZM94.6354 118.182C94.0661 118.182 93.5621 118.103 93.1234 117.944C92.6941 117.776 92.2414 117.496 91.7654 117.104C91.6814 117.048 91.6394 116.983 91.6394 116.908C91.6394 116.843 91.6721 116.777 91.7374 116.712L91.9194 116.516C91.9754 116.441 92.0454 116.404 92.1294 116.404C92.1947 116.404 92.2554 116.432 92.3114 116.488C92.7594 116.833 93.1561 117.076 93.5014 117.216C93.8467 117.347 94.2247 117.412 94.6354 117.412C95.1487 117.412 95.5687 117.3 95.8954 117.076C96.2221 116.843 96.3854 116.53 96.3854 116.138C96.3854 115.746 96.2174 115.457 95.8814 115.27C95.5454 115.083 95.0274 114.915 94.3274 114.766C93.7114 114.635 93.2261 114.5 92.8714 114.36C92.5261 114.211 92.2694 114.024 92.1014 113.8C91.9334 113.576 91.8494 113.282 91.8494 112.918C91.8494 112.321 92.0921 111.84 92.5774 111.476C93.0627 111.112 93.6741 110.93 94.4114 110.93C94.9154 110.93 95.3634 110.995 95.7554 111.126C96.1567 111.247 96.5581 111.453 96.9594 111.742C97.0434 111.807 97.0854 111.877 97.0854 111.952C97.0854 111.999 97.0621 112.059 97.0154 112.134L96.8474 112.344C96.8007 112.419 96.7354 112.456 96.6514 112.456C96.5767 112.456 96.5114 112.433 96.4554 112.386C96.0727 112.115 95.7321 111.933 95.4334 111.84C95.1441 111.747 94.8127 111.7 94.4394 111.7C93.9261 111.7 93.5154 111.812 93.2074 112.036C92.8994 112.26 92.7454 112.545 92.7454 112.89C92.7454 113.105 92.8154 113.277 92.9554 113.408C93.0954 113.539 93.2961 113.651 93.5574 113.744C93.8187 113.828 94.2014 113.926 94.7054 114.038C95.6387 114.243 96.3014 114.495 96.6934 114.794C97.0947 115.093 97.2954 115.527 97.2954 116.096C97.2954 116.721 97.0481 117.225 96.5534 117.608C96.0587 117.991 95.4194 118.182 94.6354 118.182ZM101.266 118.182C100.697 118.182 100.193 118.103 99.7543 117.944C99.3249 117.776 98.8723 117.496 98.3963 117.104C98.3123 117.048 98.2703 116.983 98.2703 116.908C98.2703 116.843 98.3029 116.777 98.3683 116.712L98.5503 116.516C98.6063 116.441 98.6763 116.404 98.7603 116.404C98.8256 116.404 98.8863 116.432 98.9423 116.488C99.3903 116.833 99.7869 117.076 100.132 117.216C100.478 117.347 100.856 117.412 101.266 117.412C101.78 117.412 102.2 117.3 102.526 117.076C102.853 116.843 103.016 116.53 103.016 116.138C103.016 115.746 102.848 115.457 102.512 115.27C102.176 115.083 101.658 114.915 100.958 114.766C100.342 114.635 99.8569 114.5 99.5023 114.36C99.1569 114.211 98.9003 114.024 98.7323 113.8C98.5643 113.576 98.4803 113.282 98.4803 112.918C98.4803 112.321 98.7229 111.84 99.2083 111.476C99.6936 111.112 100.305 110.93 101.042 110.93C101.546 110.93 101.994 110.995 102.386 111.126C102.788 111.247 103.189 111.453 103.59 111.742C103.674 111.807 103.716 111.877 103.716 111.952C103.716 111.999 103.693 112.059 103.646 112.134L103.478 112.344C103.432 112.419 103.366 112.456 103.282 112.456C103.208 112.456 103.142 112.433 103.086 112.386C102.704 112.115 102.363 111.933 102.064 111.84C101.775 111.747 101.444 111.7 101.07 111.7C100.557 111.7 100.146 111.812 99.8383 112.036C99.5303 112.26 99.3763 112.545 99.3763 112.89C99.3763 113.105 99.4463 113.277 99.5863 113.408C99.7263 113.539 99.9269 113.651 100.188 113.744C100.45 113.828 100.832 113.926 101.336 114.038C102.27 114.243 102.932 114.495 103.324 114.794C103.726 115.093 103.926 115.527 103.926 116.096C103.926 116.721 103.679 117.225 103.184 117.608C102.69 117.991 102.05 118.182 101.266 118.182ZM108.08 108.662C107.66 108.662 107.361 108.774 107.184 108.998C107.007 109.213 106.918 109.577 106.918 110.09V111.098H108.458C108.645 111.098 108.738 111.191 108.738 111.378V111.518C108.738 111.705 108.645 111.798 108.458 111.798H106.918V117.72C106.918 117.907 106.825 118 106.638 118H106.274C106.087 118 105.994 117.907 105.994 117.72V111.798H104.958C104.771 111.798 104.678 111.705 104.678 111.518V111.378C104.678 111.191 104.771 111.098 104.958 111.098H105.994V109.936C105.994 109.292 106.162 108.788 106.498 108.424C106.843 108.06 107.333 107.878 107.968 107.878C108.323 107.878 108.687 107.929 109.06 108.032C109.237 108.088 109.303 108.205 109.256 108.382L109.2 108.578C109.153 108.709 109.06 108.774 108.92 108.774C108.892 108.774 108.831 108.765 108.738 108.746C108.533 108.69 108.313 108.662 108.08 108.662ZM114.577 111.378C114.577 111.191 114.67 111.098 114.857 111.098H115.221C115.407 111.098 115.501 111.191 115.501 111.378V117.72C115.501 117.907 115.407 118 115.221 118H114.927C114.74 118 114.647 117.907 114.647 117.72V117.09C114.441 117.454 114.147 117.729 113.765 117.916C113.391 118.093 112.981 118.182 112.533 118.182C111.693 118.182 111.072 117.972 110.671 117.552C110.269 117.123 110.069 116.572 110.069 115.9V111.378C110.069 111.191 110.162 111.098 110.349 111.098H110.713C110.899 111.098 110.993 111.191 110.993 111.378V115.704C110.993 116.255 111.128 116.675 111.399 116.964C111.679 117.244 112.075 117.384 112.589 117.384C113.167 117.384 113.643 117.207 114.017 116.852C114.39 116.497 114.577 115.993 114.577 115.34V111.378ZM117.869 118C117.682 118 117.589 117.907 117.589 117.72V108.34C117.589 108.153 117.682 108.06 117.869 108.06H118.233C118.42 108.06 118.513 108.153 118.513 108.34V117.72C118.513 117.907 118.42 118 118.233 118H117.869ZM126.455 108.662C126.035 108.662 125.736 108.774 125.559 108.998C125.382 109.213 125.293 109.577 125.293 110.09V111.098H126.833C127.02 111.098 127.113 111.191 127.113 111.378V111.518C127.113 111.705 127.02 111.798 126.833 111.798H125.293V117.72C125.293 117.907 125.2 118 125.013 118H124.649C124.462 118 124.369 117.907 124.369 117.72V111.798H123.333C123.146 111.798 123.053 111.705 123.053 111.518V111.378C123.053 111.191 123.146 111.098 123.333 111.098H124.369V109.936C124.369 109.292 124.537 108.788 124.873 108.424C125.218 108.06 125.708 107.878 126.343 107.878C126.698 107.878 127.062 107.929 127.435 108.032C127.612 108.088 127.678 108.205 127.631 108.382L127.575 108.578C127.528 108.709 127.435 108.774 127.295 108.774C127.267 108.774 127.206 108.765 127.113 108.746C126.908 108.69 126.688 108.662 126.455 108.662ZM132.952 111.378C132.952 111.191 133.045 111.098 133.232 111.098H133.596C133.782 111.098 133.876 111.191 133.876 111.378V117.72C133.876 117.907 133.782 118 133.596 118H133.302C133.115 118 133.022 117.907 133.022 117.72V117.09C132.816 117.454 132.522 117.729 132.14 117.916C131.766 118.093 131.356 118.182 130.908 118.182C130.068 118.182 129.447 117.972 129.046 117.552C128.644 117.123 128.444 116.572 128.444 115.9V111.378C128.444 111.191 128.537 111.098 128.724 111.098H129.088C129.274 111.098 129.368 111.191 129.368 111.378V115.704C129.368 116.255 129.503 116.675 129.774 116.964C130.054 117.244 130.45 117.384 130.964 117.384C131.542 117.384 132.018 117.207 132.392 116.852C132.765 116.497 132.952 115.993 132.952 115.34V111.378ZM139.03 110.93C139.842 110.93 140.453 111.154 140.864 111.602C141.284 112.05 141.494 112.61 141.494 113.282V117.72C141.494 117.907 141.401 118 141.214 118H140.85C140.663 118 140.57 117.907 140.57 117.72V113.59C140.57 112.974 140.421 112.507 140.122 112.19C139.823 111.873 139.394 111.714 138.834 111.714C138.479 111.714 138.153 111.803 137.854 111.98C137.555 112.148 137.317 112.381 137.14 112.68C136.963 112.979 136.874 113.305 136.874 113.66V117.72C136.874 117.907 136.781 118 136.594 118H136.23C136.043 118 135.95 117.907 135.95 117.72V111.378C135.95 111.191 136.043 111.098 136.23 111.098H136.538C136.725 111.098 136.818 111.191 136.818 111.378V112.05C137.051 111.677 137.359 111.397 137.742 111.21C138.125 111.023 138.554 110.93 139.03 110.93ZM146.338 118.182C145.675 118.182 145.097 118.033 144.602 117.734C144.117 117.426 143.739 117.001 143.468 116.46C143.207 115.909 143.076 115.275 143.076 114.556C143.076 113.847 143.207 113.217 143.468 112.666C143.739 112.115 144.117 111.691 144.602 111.392C145.097 111.084 145.666 110.93 146.31 110.93C146.833 110.93 147.29 111.019 147.682 111.196C148.074 111.364 148.452 111.644 148.816 112.036C148.872 112.092 148.9 112.153 148.9 112.218C148.9 112.302 148.863 112.372 148.788 112.428L148.592 112.61C148.536 112.666 148.471 112.694 148.396 112.694C148.331 112.694 148.261 112.657 148.186 112.582C147.859 112.255 147.547 112.027 147.248 111.896C146.959 111.765 146.637 111.7 146.282 111.7C145.797 111.7 145.381 111.835 145.036 112.106C144.7 112.377 144.448 112.731 144.28 113.17C144.112 113.599 144.028 114.061 144.028 114.556C144.028 115.051 144.112 115.517 144.28 115.956C144.448 116.385 144.705 116.735 145.05 117.006C145.395 117.267 145.82 117.398 146.324 117.398C146.697 117.398 147.024 117.333 147.304 117.202C147.593 117.062 147.915 116.801 148.27 116.418C148.345 116.343 148.415 116.306 148.48 116.306C148.555 116.306 148.62 116.334 148.676 116.39L148.872 116.544C148.937 116.6 148.97 116.665 148.97 116.74C148.97 116.815 148.928 116.903 148.844 117.006C148.452 117.435 148.06 117.739 147.668 117.916C147.276 118.093 146.833 118.182 146.338 118.182ZM153.619 117.23C153.647 117.221 153.684 117.216 153.731 117.216C153.787 117.216 153.838 117.235 153.885 117.272C153.931 117.309 153.959 117.361 153.969 117.426L154.011 117.622C154.02 117.641 154.025 117.673 154.025 117.72C154.025 117.851 153.955 117.93 153.815 117.958C153.479 118.061 153.119 118.112 152.737 118.112C152.13 118.112 151.696 117.977 151.435 117.706C151.183 117.426 151.057 117.025 151.057 116.502V111.798H150.021C149.834 111.798 149.741 111.705 149.741 111.518V111.378C149.741 111.191 149.834 111.098 150.021 111.098H151.057V108.97C151.057 108.783 151.15 108.69 151.337 108.69H151.701C151.887 108.69 151.981 108.783 151.981 108.97V111.098H153.661C153.847 111.098 153.941 111.191 153.941 111.378V111.518C153.941 111.705 153.847 111.798 153.661 111.798H151.981V116.39C151.981 116.735 152.046 116.978 152.177 117.118C152.307 117.258 152.531 117.328 152.849 117.328C153.073 117.328 153.329 117.295 153.619 117.23ZM155.812 109.348C155.626 109.348 155.467 109.283 155.336 109.152C155.215 109.021 155.154 108.863 155.154 108.676C155.154 108.489 155.215 108.335 155.336 108.214C155.467 108.093 155.626 108.032 155.812 108.032C156.008 108.032 156.167 108.093 156.288 108.214C156.419 108.335 156.484 108.489 156.484 108.676C156.484 108.863 156.419 109.021 156.288 109.152C156.167 109.283 156.008 109.348 155.812 109.348ZM155.63 118C155.444 118 155.35 117.907 155.35 117.72V111.378C155.35 111.191 155.444 111.098 155.63 111.098H155.994C156.181 111.098 156.274 111.191 156.274 111.378V117.72C156.274 117.907 156.181 118 155.994 118H155.63ZM161.187 118.182C160.543 118.182 159.969 118.028 159.465 117.72C158.961 117.412 158.569 116.987 158.289 116.446C158.009 115.895 157.869 115.265 157.869 114.556C157.869 113.847 158.009 113.221 158.289 112.68C158.569 112.129 158.961 111.7 159.465 111.392C159.969 111.084 160.543 110.93 161.187 110.93C161.831 110.93 162.405 111.084 162.909 111.392C163.413 111.7 163.805 112.129 164.085 112.68C164.365 113.221 164.505 113.847 164.505 114.556C164.505 115.265 164.365 115.895 164.085 116.446C163.805 116.987 163.413 117.412 162.909 117.72C162.405 118.028 161.831 118.182 161.187 118.182ZM161.187 117.412C161.906 117.412 162.48 117.151 162.909 116.628C163.338 116.096 163.553 115.405 163.553 114.556C163.553 113.707 163.338 113.021 162.909 112.498C162.48 111.966 161.906 111.7 161.187 111.7C160.468 111.7 159.894 111.966 159.465 112.498C159.036 113.021 158.821 113.707 158.821 114.556C158.821 115.405 159.036 116.096 159.465 116.628C159.894 117.151 160.468 117.412 161.187 117.412ZM169.19 110.93C170.002 110.93 170.614 111.154 171.024 111.602C171.444 112.05 171.654 112.61 171.654 113.282V117.72C171.654 117.907 171.561 118 171.374 118H171.01C170.824 118 170.73 117.907 170.73 117.72V113.59C170.73 112.974 170.581 112.507 170.282 112.19C169.984 111.873 169.554 111.714 168.994 111.714C168.64 111.714 168.313 111.803 168.014 111.98C167.716 112.148 167.478 112.381 167.3 112.68C167.123 112.979 167.034 113.305 167.034 113.66V117.72C167.034 117.907 166.941 118 166.754 118H166.39C166.204 118 166.11 117.907 166.11 117.72V111.378C166.11 111.191 166.204 111.098 166.39 111.098H166.698C166.885 111.098 166.978 111.191 166.978 111.378V112.05C167.212 111.677 167.52 111.397 167.902 111.21C168.285 111.023 168.714 110.93 169.19 110.93ZM179.781 118.182C179.137 118.182 178.563 118.028 178.059 117.72C177.555 117.412 177.163 116.987 176.883 116.446C176.603 115.895 176.463 115.265 176.463 114.556C176.463 113.847 176.603 113.221 176.883 112.68C177.163 112.129 177.555 111.7 178.059 111.392C178.563 111.084 179.137 110.93 179.781 110.93C180.425 110.93 180.999 111.084 181.503 111.392C182.007 111.7 182.399 112.129 182.679 112.68C182.959 113.221 183.099 113.847 183.099 114.556C183.099 115.265 182.959 115.895 182.679 116.446C182.399 116.987 182.007 117.412 181.503 117.72C180.999 118.028 180.425 118.182 179.781 118.182ZM179.781 117.412C180.499 117.412 181.073 117.151 181.503 116.628C181.932 116.096 182.147 115.405 182.147 114.556C182.147 113.707 181.932 113.021 181.503 112.498C181.073 111.966 180.499 111.7 179.781 111.7C179.062 111.7 178.488 111.966 178.059 112.498C177.629 113.021 177.415 113.707 177.415 114.556C177.415 115.405 177.629 116.096 178.059 116.628C178.488 117.151 179.062 117.412 179.781 117.412ZM187.28 111.042C187.513 111.042 187.789 111.079 188.106 111.154C188.274 111.21 188.339 111.327 188.302 111.504L188.246 111.728C188.199 111.905 188.083 111.971 187.896 111.924C187.672 111.868 187.467 111.84 187.28 111.84C186.804 111.84 186.407 112.045 186.09 112.456C185.782 112.867 185.628 113.436 185.628 114.164V117.72C185.628 117.907 185.535 118 185.348 118H184.984C184.797 118 184.704 117.907 184.704 117.72V111.378C184.704 111.191 184.797 111.098 184.984 111.098H185.292C185.479 111.098 185.572 111.191 185.572 111.378V112.148C185.731 111.803 185.955 111.532 186.244 111.336C186.543 111.14 186.888 111.042 187.28 111.042ZM195.36 111.042C195.593 111.042 195.869 111.079 196.186 111.154C196.354 111.21 196.419 111.327 196.382 111.504L196.326 111.728C196.279 111.905 196.163 111.971 195.976 111.924C195.752 111.868 195.547 111.84 195.36 111.84C194.884 111.84 194.487 112.045 194.17 112.456C193.862 112.867 193.708 113.436 193.708 114.164V117.72C193.708 117.907 193.615 118 193.428 118H193.064C192.877 118 192.784 117.907 192.784 117.72V111.378C192.784 111.191 192.877 111.098 193.064 111.098H193.372C193.559 111.098 193.652 111.191 193.652 111.378V112.148C193.811 111.803 194.035 111.532 194.324 111.336C194.623 111.14 194.968 111.042 195.36 111.042ZM202.281 116.362C202.346 116.297 202.416 116.264 202.491 116.264C202.556 116.264 202.617 116.292 202.673 116.348L202.855 116.516C202.92 116.581 202.953 116.651 202.953 116.726C202.953 116.782 202.925 116.847 202.869 116.922C202.411 117.379 201.968 117.706 201.539 117.902C201.109 118.089 200.629 118.182 200.097 118.182C199.425 118.182 198.841 118.033 198.347 117.734C197.852 117.435 197.469 117.02 197.199 116.488C196.928 115.947 196.793 115.321 196.793 114.612C196.793 113.893 196.923 113.259 197.185 112.708C197.455 112.148 197.833 111.714 198.319 111.406C198.804 111.089 199.364 110.93 199.999 110.93C200.941 110.93 201.683 111.224 202.225 111.812C202.766 112.4 203.037 113.193 203.037 114.192V114.36C203.027 114.444 202.995 114.509 202.939 114.556C202.892 114.603 202.827 114.626 202.743 114.626H197.731C197.759 115.41 197.964 116.073 198.347 116.614C198.739 117.146 199.322 117.412 200.097 117.412C200.517 117.412 200.885 117.337 201.203 117.188C201.529 117.029 201.889 116.754 202.281 116.362ZM199.999 111.7C199.383 111.7 198.874 111.891 198.473 112.274C198.081 112.647 197.843 113.198 197.759 113.926H202.113C202.094 113.245 201.898 112.703 201.525 112.302C201.151 111.901 200.643 111.7 199.999 111.7ZM207.155 118.182C206.586 118.182 206.082 118.103 205.643 117.944C205.214 117.776 204.761 117.496 204.285 117.104C204.201 117.048 204.159 116.983 204.159 116.908C204.159 116.843 204.192 116.777 204.257 116.712L204.439 116.516C204.495 116.441 204.565 116.404 204.649 116.404C204.714 116.404 204.775 116.432 204.831 116.488C205.279 116.833 205.676 117.076 206.021 117.216C206.366 117.347 206.744 117.412 207.155 117.412C207.668 117.412 208.088 117.3 208.415 117.076C208.742 116.843 208.905 116.53 208.905 116.138C208.905 115.746 208.737 115.457 208.401 115.27C208.065 115.083 207.547 114.915 206.847 114.766C206.231 114.635 205.746 114.5 205.391 114.36C205.046 114.211 204.789 114.024 204.621 113.8C204.453 113.576 204.369 113.282 204.369 112.918C204.369 112.321 204.612 111.84 205.097 111.476C205.582 111.112 206.194 110.93 206.931 110.93C207.435 110.93 207.883 110.995 208.275 111.126C208.676 111.247 209.078 111.453 209.479 111.742C209.563 111.807 209.605 111.877 209.605 111.952C209.605 111.999 209.582 112.059 209.535 112.134L209.367 112.344C209.32 112.419 209.255 112.456 209.171 112.456C209.096 112.456 209.031 112.433 208.975 112.386C208.592 112.115 208.252 111.933 207.953 111.84C207.664 111.747 207.332 111.7 206.959 111.7C206.446 111.7 206.035 111.812 205.727 112.036C205.419 112.26 205.265 112.545 205.265 112.89C205.265 113.105 205.335 113.277 205.475 113.408C205.615 113.539 205.816 113.651 206.077 113.744C206.338 113.828 206.721 113.926 207.225 114.038C208.158 114.243 208.821 114.495 209.213 114.794C209.614 115.093 209.815 115.527 209.815 116.096C209.815 116.721 209.568 117.225 209.073 117.608C208.578 117.991 207.939 118.182 207.155 118.182ZM215.858 111.378C215.858 111.191 215.951 111.098 216.138 111.098H216.502C216.688 111.098 216.782 111.191 216.782 111.378V117.72C216.782 117.907 216.688 118 216.502 118H216.208C216.021 118 215.928 117.907 215.928 117.72V117.09C215.722 117.454 215.428 117.729 215.046 117.916C214.672 118.093 214.262 118.182 213.814 118.182C212.974 118.182 212.353 117.972 211.952 117.552C211.55 117.123 211.35 116.572 211.35 115.9V111.378C211.35 111.191 211.443 111.098 211.63 111.098H211.994C212.18 111.098 212.274 111.191 212.274 111.378V115.704C212.274 116.255 212.409 116.675 212.68 116.964C212.96 117.244 213.356 117.384 213.87 117.384C214.448 117.384 214.924 117.207 215.298 116.852C215.671 116.497 215.858 115.993 215.858 115.34V111.378ZM219.15 118C218.964 118 218.87 117.907 218.87 117.72V108.34C218.87 108.153 218.964 108.06 219.15 108.06H219.514C219.701 108.06 219.794 108.153 219.794 108.34V117.72C219.794 117.907 219.701 118 219.514 118H219.15ZM224.986 117.23C225.014 117.221 225.051 117.216 225.098 117.216C225.154 117.216 225.205 117.235 225.252 117.272C225.298 117.309 225.326 117.361 225.336 117.426L225.378 117.622C225.387 117.641 225.392 117.673 225.392 117.72C225.392 117.851 225.322 117.93 225.182 117.958C224.846 118.061 224.486 118.112 224.104 118.112C223.497 118.112 223.063 117.977 222.802 117.706C222.55 117.426 222.424 117.025 222.424 116.502V111.798H221.388C221.201 111.798 221.108 111.705 221.108 111.518V111.378C221.108 111.191 221.201 111.098 221.388 111.098H222.424V108.97C222.424 108.783 222.517 108.69 222.704 108.69H223.068C223.254 108.69 223.348 108.783 223.348 108.97V111.098H225.028C225.214 111.098 225.308 111.191 225.308 111.378V111.518C225.308 111.705 225.214 111.798 225.028 111.798H223.348V116.39C223.348 116.735 223.413 116.978 223.544 117.118C223.674 117.258 223.898 117.328 224.216 117.328C224.44 117.328 224.696 117.295 224.986 117.23ZM232.8 118.182C232.156 118.182 231.582 118.028 231.078 117.72C230.574 117.412 230.182 116.987 229.902 116.446C229.622 115.895 229.482 115.265 229.482 114.556C229.482 113.847 229.622 113.221 229.902 112.68C230.182 112.129 230.574 111.7 231.078 111.392C231.582 111.084 232.156 110.93 232.8 110.93C233.444 110.93 234.018 111.084 234.522 111.392C235.026 111.7 235.418 112.129 235.698 112.68C235.978 113.221 236.118 113.847 236.118 114.556C236.118 115.265 235.978 115.895 235.698 116.446C235.418 116.987 235.026 117.412 234.522 117.72C234.018 118.028 233.444 118.182 232.8 118.182ZM232.8 117.412C233.519 117.412 234.093 117.151 234.522 116.628C234.952 116.096 235.166 115.405 235.166 114.556C235.166 113.707 234.952 113.021 234.522 112.498C234.093 111.966 233.519 111.7 232.8 111.7C232.082 111.7 231.508 111.966 231.078 112.498C230.649 113.021 230.434 113.707 230.434 114.556C230.434 115.405 230.649 116.096 231.078 116.628C231.508 117.151 232.082 117.412 232.8 117.412ZM240.219 108.662C239.799 108.662 239.5 108.774 239.323 108.998C239.145 109.213 239.057 109.577 239.057 110.09V111.098H240.597C240.783 111.098 240.877 111.191 240.877 111.378V111.518C240.877 111.705 240.783 111.798 240.597 111.798H239.057V117.72C239.057 117.907 238.963 118 238.777 118H238.413C238.226 118 238.133 117.907 238.133 117.72V111.798H237.097C236.91 111.798 236.817 111.705 236.817 111.518V111.378C236.817 111.191 236.91 111.098 237.097 111.098H238.133V109.936C238.133 109.292 238.301 108.788 238.637 108.424C238.982 108.06 239.472 107.878 240.107 107.878C240.461 107.878 240.825 107.929 241.199 108.032C241.376 108.088 241.441 108.205 241.395 108.382L241.339 108.578C241.292 108.709 241.199 108.774 241.059 108.774C241.031 108.774 240.97 108.765 240.877 108.746C240.671 108.69 240.452 108.662 240.219 108.662ZM248.122 110.93C248.971 110.93 249.634 111.135 250.11 111.546C250.586 111.947 250.824 112.479 250.824 113.142V117.72C250.824 117.907 250.73 118 250.544 118H250.264C250.077 118 249.984 117.907 249.984 117.72V117.09C249.75 117.463 249.419 117.743 248.99 117.93C248.57 118.117 248.098 118.21 247.576 118.21C246.848 118.21 246.255 118.056 245.798 117.748C245.34 117.44 245.112 116.964 245.112 116.32C245.112 115.807 245.256 115.396 245.546 115.088C245.835 114.771 246.213 114.533 246.68 114.374C247.146 114.206 247.73 114.057 248.43 113.926L249.942 113.66V113.212C249.942 112.736 249.778 112.367 249.452 112.106C249.125 111.835 248.696 111.7 248.164 111.7C247.762 111.7 247.398 111.775 247.072 111.924C246.745 112.073 246.395 112.33 246.022 112.694C245.956 112.759 245.886 112.792 245.812 112.792C245.746 112.792 245.686 112.764 245.63 112.708L245.448 112.54C245.382 112.475 245.35 112.405 245.35 112.33C245.35 112.246 245.382 112.171 245.448 112.106C245.84 111.695 246.25 111.397 246.68 111.21C247.118 111.023 247.599 110.93 248.122 110.93ZM247.618 117.44C248.29 117.44 248.845 117.263 249.284 116.908C249.722 116.553 249.942 116.101 249.942 115.55V114.374L248.64 114.626C248.033 114.747 247.552 114.864 247.198 114.976C246.843 115.088 246.558 115.251 246.344 115.466C246.129 115.681 246.022 115.961 246.022 116.306C246.022 116.661 246.162 116.941 246.442 117.146C246.731 117.342 247.123 117.44 247.618 117.44ZM255.952 110.93C256.764 110.93 257.375 111.154 257.786 111.602C258.206 112.05 258.416 112.61 258.416 113.282V117.72C258.416 117.907 258.323 118 258.136 118H257.772C257.585 118 257.492 117.907 257.492 117.72V113.59C257.492 112.974 257.343 112.507 257.044 112.19C256.745 111.873 256.316 111.714 255.756 111.714C255.401 111.714 255.075 111.803 254.776 111.98C254.477 112.148 254.239 112.381 254.062 112.68C253.885 112.979 253.796 113.305 253.796 113.66V117.72C253.796 117.907 253.703 118 253.516 118H253.152C252.965 118 252.872 117.907 252.872 117.72V111.378C252.872 111.191 252.965 111.098 253.152 111.098H253.46C253.647 111.098 253.74 111.191 253.74 111.378V112.05C253.973 111.677 254.281 111.397 254.664 111.21C255.047 111.023 255.476 110.93 255.952 110.93ZM266.346 110.93C267.196 110.93 267.858 111.135 268.334 111.546C268.81 111.947 269.048 112.479 269.048 113.142V117.72C269.048 117.907 268.955 118 268.768 118H268.488C268.302 118 268.208 117.907 268.208 117.72V117.09C267.975 117.463 267.644 117.743 267.214 117.93C266.794 118.117 266.323 118.21 265.8 118.21C265.072 118.21 264.48 118.056 264.022 117.748C263.565 117.44 263.336 116.964 263.336 116.32C263.336 115.807 263.481 115.396 263.77 115.088C264.06 114.771 264.438 114.533 264.904 114.374C265.371 114.206 265.954 114.057 266.654 113.926L268.166 113.66V113.212C268.166 112.736 268.003 112.367 267.676 112.106C267.35 111.835 266.92 111.7 266.388 111.7C265.987 111.7 265.623 111.775 265.296 111.924C264.97 112.073 264.62 112.33 264.246 112.694C264.181 112.759 264.111 112.792 264.036 112.792C263.971 112.792 263.91 112.764 263.854 112.708L263.672 112.54C263.607 112.475 263.574 112.405 263.574 112.33C263.574 112.246 263.607 112.171 263.672 112.106C264.064 111.695 264.475 111.397 264.904 111.21C265.343 111.023 265.824 110.93 266.346 110.93ZM265.842 117.44C266.514 117.44 267.07 117.263 267.508 116.908C267.947 116.553 268.166 116.101 268.166 115.55V114.374L266.864 114.626C266.258 114.747 265.777 114.864 265.422 114.976C265.068 115.088 264.783 115.251 264.568 115.466C264.354 115.681 264.246 115.961 264.246 116.306C264.246 116.661 264.386 116.941 264.666 117.146C264.956 117.342 265.348 117.44 265.842 117.44ZM273.897 118.182C273.234 118.182 272.655 118.033 272.161 117.734C271.675 117.426 271.297 117.001 271.027 116.46C270.765 115.909 270.635 115.275 270.635 114.556C270.635 113.847 270.765 113.217 271.027 112.666C271.297 112.115 271.675 111.691 272.161 111.392C272.655 111.084 273.225 110.93 273.869 110.93C274.391 110.93 274.849 111.019 275.241 111.196C275.633 111.364 276.011 111.644 276.375 112.036C276.431 112.092 276.459 112.153 276.459 112.218C276.459 112.302 276.421 112.372 276.347 112.428L276.151 112.61C276.095 112.666 276.029 112.694 275.955 112.694C275.889 112.694 275.819 112.657 275.745 112.582C275.418 112.255 275.105 112.027 274.807 111.896C274.517 111.765 274.195 111.7 273.841 111.7C273.355 111.7 272.94 111.835 272.595 112.106C272.259 112.377 272.007 112.731 271.839 113.17C271.671 113.599 271.587 114.061 271.587 114.556C271.587 115.051 271.671 115.517 271.839 115.956C272.007 116.385 272.263 116.735 272.609 117.006C272.954 117.267 273.379 117.398 273.883 117.398C274.256 117.398 274.583 117.333 274.863 117.202C275.152 117.062 275.474 116.801 275.829 116.418C275.903 116.343 275.973 116.306 276.039 116.306C276.113 116.306 276.179 116.334 276.235 116.39L276.431 116.544C276.496 116.6 276.529 116.665 276.529 116.74C276.529 116.815 276.487 116.903 276.403 117.006C276.011 117.435 275.619 117.739 275.227 117.916C274.835 118.093 274.391 118.182 273.897 118.182ZM281.177 117.23C281.205 117.221 281.243 117.216 281.289 117.216C281.345 117.216 281.397 117.235 281.443 117.272C281.49 117.309 281.518 117.361 281.527 117.426L281.569 117.622C281.579 117.641 281.583 117.673 281.583 117.72C281.583 117.851 281.513 117.93 281.373 117.958C281.037 118.061 280.678 118.112 280.295 118.112C279.689 118.112 279.255 117.977 278.993 117.706C278.741 117.426 278.615 117.025 278.615 116.502V111.798H277.579C277.393 111.798 277.299 111.705 277.299 111.518V111.378C277.299 111.191 277.393 111.098 277.579 111.098H278.615V108.97C278.615 108.783 278.709 108.69 278.895 108.69H279.259C279.446 108.69 279.539 108.783 279.539 108.97V111.098H281.219C281.406 111.098 281.499 111.191 281.499 111.378V111.518C281.499 111.705 281.406 111.798 281.219 111.798H279.539V116.39C279.539 116.735 279.605 116.978 279.735 117.118C279.866 117.258 280.09 117.328 280.407 117.328C280.631 117.328 280.888 117.295 281.177 117.23ZM283.371 109.348C283.184 109.348 283.026 109.283 282.895 109.152C282.774 109.021 282.713 108.863 282.713 108.676C282.713 108.489 282.774 108.335 282.895 108.214C283.026 108.093 283.184 108.032 283.371 108.032C283.567 108.032 283.726 108.093 283.847 108.214C283.978 108.335 284.043 108.489 284.043 108.676C284.043 108.863 283.978 109.021 283.847 109.152C283.726 109.283 283.567 109.348 283.371 109.348ZM283.189 118C283.002 118 282.909 117.907 282.909 117.72V111.378C282.909 111.191 283.002 111.098 283.189 111.098H283.553C283.74 111.098 283.833 111.191 283.833 111.378V117.72C283.833 117.907 283.74 118 283.553 118H283.189ZM288.746 118.182C288.102 118.182 287.528 118.028 287.024 117.72C286.52 117.412 286.128 116.987 285.848 116.446C285.568 115.895 285.428 115.265 285.428 114.556C285.428 113.847 285.568 113.221 285.848 112.68C286.128 112.129 286.52 111.7 287.024 111.392C287.528 111.084 288.102 110.93 288.746 110.93C289.39 110.93 289.964 111.084 290.468 111.392C290.972 111.7 291.364 112.129 291.644 112.68C291.924 113.221 292.064 113.847 292.064 114.556C292.064 115.265 291.924 115.895 291.644 116.446C291.364 116.987 290.972 117.412 290.468 117.72C289.964 118.028 289.39 118.182 288.746 118.182ZM288.746 117.412C289.464 117.412 290.038 117.151 290.468 116.628C290.897 116.096 291.112 115.405 291.112 114.556C291.112 113.707 290.897 113.021 290.468 112.498C290.038 111.966 289.464 111.7 288.746 111.7C288.027 111.7 287.453 111.966 287.024 112.498C286.594 113.021 286.38 113.707 286.38 114.556C286.38 115.405 286.594 116.096 287.024 116.628C287.453 117.151 288.027 117.412 288.746 117.412ZM296.749 110.93C297.561 110.93 298.172 111.154 298.583 111.602C299.003 112.05 299.213 112.61 299.213 113.282V117.72C299.213 117.907 299.119 118 298.933 118H298.569C298.382 118 298.289 117.907 298.289 117.72V113.59C298.289 112.974 298.139 112.507 297.841 112.19C297.542 111.873 297.113 111.714 296.553 111.714C296.198 111.714 295.871 111.803 295.573 111.98C295.274 112.148 295.036 112.381 294.859 112.68C294.681 112.979 294.593 113.305 294.593 113.66V117.72C294.593 117.907 294.499 118 294.313 118H293.949C293.762 118 293.669 117.907 293.669 117.72V111.378C293.669 111.191 293.762 111.098 293.949 111.098H294.257C294.443 111.098 294.537 111.191 294.537 111.378V112.05C294.77 111.677 295.078 111.397 295.461 111.21C295.843 111.023 296.273 110.93 296.749 110.93ZM60.144 135.23C60.172 135.221 60.2093 135.216 60.256 135.216C60.312 135.216 60.3633 135.235 60.41 135.272C60.4567 135.309 60.4847 135.361 60.494 135.426L60.536 135.622C60.5453 135.641 60.55 135.673 60.55 135.72C60.55 135.851 60.48 135.93 60.34 135.958C60.004 136.061 59.6447 136.112 59.262 136.112C58.6553 136.112 58.2213 135.977 57.96 135.706C57.708 135.426 57.582 135.025 57.582 134.502V129.798H56.546C56.3593 129.798 56.266 129.705 56.266 129.518V129.378C56.266 129.191 56.3593 129.098 56.546 129.098H57.582V126.97C57.582 126.783 57.6753 126.69 57.862 126.69H58.226C58.4127 126.69 58.506 126.783 58.506 126.97V129.098H60.186C60.3727 129.098 60.466 129.191 60.466 129.378V129.518C60.466 129.705 60.3727 129.798 60.186 129.798H58.506V134.39C58.506 134.735 58.5713 134.978 58.702 135.118C58.8327 135.258 59.0567 135.328 59.374 135.328C59.598 135.328 59.8547 135.295 60.144 135.23ZM64.9558 128.93C65.7585 128.93 66.3698 129.159 66.7898 129.616C67.2098 130.064 67.4198 130.619 67.4198 131.282V135.72C67.4198 135.907 67.3265 136 67.1398 136H66.7758C66.5892 136 66.4958 135.907 66.4958 135.72V131.59C66.4958 130.974 66.3465 130.507 66.0478 130.19C65.7492 129.873 65.3198 129.714 64.7598 129.714C64.4052 129.714 64.0785 129.803 63.7798 129.98C63.4812 130.148 63.2432 130.381 63.0658 130.68C62.8885 130.979 62.7998 131.305 62.7998 131.66V135.72C62.7998 135.907 62.7065 136 62.5198 136H62.1558C61.9692 136 61.8758 135.907 61.8758 135.72V126.34C61.8758 126.153 61.9692 126.06 62.1558 126.06H62.5198C62.7065 126.06 62.7998 126.153 62.7998 126.34V129.994C63.0238 129.639 63.3225 129.373 63.6958 129.196C64.0785 129.019 64.4985 128.93 64.9558 128.93ZM74.4897 134.362C74.5551 134.297 74.6251 134.264 74.6997 134.264C74.7651 134.264 74.8257 134.292 74.8817 134.348L75.0637 134.516C75.1291 134.581 75.1617 134.651 75.1617 134.726C75.1617 134.782 75.1337 134.847 75.0777 134.922C74.6204 135.379 74.1771 135.706 73.7477 135.902C73.3184 136.089 72.8377 136.182 72.3057 136.182C71.6337 136.182 71.0504 136.033 70.5557 135.734C70.0611 135.435 69.6784 135.02 69.4077 134.488C69.1371 133.947 69.0017 133.321 69.0017 132.612C69.0017 131.893 69.1324 131.259 69.3937 130.708C69.6644 130.148 70.0424 129.714 70.5277 129.406C71.0131 129.089 71.5731 128.93 72.2077 128.93C73.1504 128.93 73.8924 129.224 74.4337 129.812C74.9751 130.4 75.2457 131.193 75.2457 132.192V132.36C75.2364 132.444 75.2037 132.509 75.1477 132.556C75.1011 132.603 75.0357 132.626 74.9517 132.626H69.9397C69.9677 133.41 70.1731 134.073 70.5557 134.614C70.9477 135.146 71.5311 135.412 72.3057 135.412C72.7257 135.412 73.0944 135.337 73.4117 135.188C73.7384 135.029 74.0977 134.754 74.4897 134.362ZM72.2077 129.7C71.5917 129.7 71.0831 129.891 70.6817 130.274C70.2897 130.647 70.0517 131.198 69.9677 131.926H74.3217C74.3031 131.245 74.1071 130.703 73.7337 130.302C73.3604 129.901 72.8517 129.7 72.2077 129.7ZM81.1852 129.322C81.2412 129.173 81.3486 129.098 81.5072 129.098H81.8852C81.9599 129.098 82.0206 129.117 82.0672 129.154C82.1139 129.191 82.1372 129.243 82.1372 129.308L82.1092 129.42L79.4072 137.05C79.2579 137.47 79.1132 137.797 78.9732 138.03C78.8332 138.263 78.6419 138.441 78.3992 138.562C78.1659 138.683 77.8579 138.744 77.4752 138.744C77.2326 138.744 77.0179 138.725 76.8312 138.688C76.7379 138.679 76.6726 138.641 76.6352 138.576C76.6072 138.511 76.6026 138.436 76.6212 138.352L76.6632 138.17C76.7006 138.002 76.8079 137.927 76.9852 137.946C77.1532 137.974 77.2979 137.988 77.4192 137.988C77.7179 137.988 77.9512 137.904 78.1192 137.736C78.2966 137.568 78.4646 137.251 78.6232 136.784L78.7492 136.392L76.2852 129.42L76.2572 129.308C76.2572 129.243 76.2806 129.191 76.3272 129.154C76.3739 129.117 76.4346 129.098 76.5092 129.098H76.9152C77.0646 129.098 77.1672 129.173 77.2232 129.322L78.0072 131.632C78.0819 131.865 78.2686 132.421 78.5672 133.298L79.1972 135.188C79.5052 134.32 79.9112 133.125 80.4152 131.604L81.1852 129.322ZM89.7299 135.23C89.7579 135.221 89.7953 135.216 89.8419 135.216C89.8979 135.216 89.9493 135.235 89.9959 135.272C90.0426 135.309 90.0706 135.361 90.0799 135.426L90.1219 135.622C90.1313 135.641 90.1359 135.673 90.1359 135.72C90.1359 135.851 90.0659 135.93 89.9259 135.958C89.5899 136.061 89.2306 136.112 88.8479 136.112C88.2413 136.112 87.8073 135.977 87.5459 135.706C87.2939 135.426 87.1679 135.025 87.1679 134.502V129.798H86.1319C85.9453 129.798 85.8519 129.705 85.8519 129.518V129.378C85.8519 129.191 85.9453 129.098 86.1319 129.098H87.1679V126.97C87.1679 126.783 87.2613 126.69 87.4479 126.69H87.8119C87.9986 126.69 88.0919 126.783 88.0919 126.97V129.098H89.7719C89.9586 129.098 90.0519 129.191 90.0519 129.378V129.518C90.0519 129.705 89.9586 129.798 89.7719 129.798H88.0919V134.39C88.0919 134.735 88.1573 134.978 88.2879 135.118C88.4186 135.258 88.6426 135.328 88.9599 135.328C89.1839 135.328 89.4406 135.295 89.7299 135.23ZM94.058 136.182C93.414 136.182 92.84 136.028 92.336 135.72C91.832 135.412 91.44 134.987 91.16 134.446C90.88 133.895 90.74 133.265 90.74 132.556C90.74 131.847 90.88 131.221 91.16 130.68C91.44 130.129 91.832 129.7 92.336 129.392C92.84 129.084 93.414 128.93 94.058 128.93C94.702 128.93 95.276 129.084 95.78 129.392C96.284 129.7 96.676 130.129 96.956 130.68C97.236 131.221 97.376 131.847 97.376 132.556C97.376 133.265 97.236 133.895 96.956 134.446C96.676 134.987 96.284 135.412 95.78 135.72C95.276 136.028 94.702 136.182 94.058 136.182ZM94.058 135.412C94.7767 135.412 95.3507 135.151 95.78 134.628C96.2093 134.096 96.424 133.405 96.424 132.556C96.424 131.707 96.2093 131.021 95.78 130.498C95.3507 129.966 94.7767 129.7 94.058 129.7C93.3393 129.7 92.7653 129.966 92.336 130.498C91.9067 131.021 91.692 131.707 91.692 132.556C91.692 133.405 91.9067 134.096 92.336 134.628C92.7653 135.151 93.3393 135.412 94.058 135.412ZM101.919 136.182C101.275 136.182 100.701 136.028 100.197 135.72C99.6933 135.412 99.3013 134.987 99.0213 134.446C98.7413 133.895 98.6013 133.265 98.6013 132.556C98.6013 131.847 98.7413 131.221 99.0213 130.68C99.3013 130.129 99.6933 129.7 100.197 129.392C100.701 129.084 101.275 128.93 101.919 128.93C102.563 128.93 103.137 129.084 103.641 129.392C104.145 129.7 104.537 130.129 104.817 130.68C105.097 131.221 105.237 131.847 105.237 132.556C105.237 133.265 105.097 133.895 104.817 134.446C104.537 134.987 104.145 135.412 103.641 135.72C103.137 136.028 102.563 136.182 101.919 136.182ZM101.919 135.412C102.638 135.412 103.212 135.151 103.641 134.628C104.071 134.096 104.285 133.405 104.285 132.556C104.285 131.707 104.071 131.021 103.641 130.498C103.212 129.966 102.638 129.7 101.919 129.7C101.201 129.7 100.627 129.966 100.197 130.498C99.768 131.021 99.5533 131.707 99.5533 132.556C99.5533 133.405 99.768 134.096 100.197 134.628C100.627 135.151 101.201 135.412 101.919 135.412ZM111.827 136C111.687 136 111.575 135.939 111.491 135.818L109.125 132.374L107.767 133.76V135.72C107.767 135.907 107.673 136 107.487 136H107.123C106.936 136 106.843 135.907 106.843 135.72V126.34C106.843 126.153 106.936 126.06 107.123 126.06H107.487C107.673 126.06 107.767 126.153 107.767 126.34V132.71L111.127 129.224C111.211 129.131 111.327 129.084 111.477 129.084H111.869C111.943 129.084 111.999 129.103 112.037 129.14C112.083 129.168 112.107 129.205 112.107 129.252C112.107 129.299 112.079 129.359 112.023 129.434L109.769 131.786L112.415 135.664C112.452 135.729 112.471 135.785 112.471 135.832C112.471 135.944 112.396 136 112.247 136H111.827ZM114.33 136.098C114.134 136.098 113.966 136.028 113.826 135.888C113.686 135.748 113.616 135.58 113.616 135.384C113.616 135.188 113.686 135.02 113.826 134.88C113.966 134.74 114.134 134.67 114.33 134.67C114.526 134.67 114.694 134.74 114.834 134.88C114.974 135.02 115.044 135.188 115.044 135.384C115.044 135.58 114.974 135.748 114.834 135.888C114.694 136.028 114.526 136.098 114.33 136.098Z" fill="#464646"/>
<path d="M16 44C16 41.7909 17.7909 40 20 40V160C17.7909 160 16 158.209 16 156V44Z" fill="#059E6F"/>
<rect x="16.5" y="40.5" width="311" height="119" rx="3.5" stroke="#67EEB8"/>
<defs>
<clipPath id="clip0_2353_28445">
<rect width="16" height="16" fill="white" transform="translate(32 60)"/>
</clipPath>
</defs>
</svg>
