<svg width="344" height="168" viewBox="0 0 344 168" fill="none" xmlns="http://www.w3.org/2000/svg">
<rect width="344" height="168" fill="#F5F5F5"/>
<path d="M79.696 89C79.4827 89 79.376 88.8933 79.376 88.68V77.96C79.376 77.7467 79.4827 77.64 79.696 77.64H83.44C84.496 77.64 85.3973 77.88 86.144 78.36C86.8907 78.84 87.456 79.5067 87.84 80.36C88.224 81.2133 88.416 82.2 88.416 83.32C88.416 84.44 88.224 85.4267 87.84 86.28C87.456 87.1333 86.8907 87.8 86.144 88.28C85.3973 88.76 84.496 89 83.44 89H79.696ZM83.248 88.056C84.5387 88.056 85.5307 87.6347 86.224 86.792C86.9173 85.9387 87.264 84.7813 87.264 83.32C87.264 81.8693 86.9173 80.7173 86.224 79.864C85.5307 79.0107 84.5387 78.584 83.248 78.584H80.512V88.056H83.248ZM96.2718 87.128C96.3464 87.0533 96.4264 87.016 96.5118 87.016C96.5864 87.016 96.6558 87.048 96.7198 87.112L96.9278 87.304C97.0024 87.3787 97.0398 87.4587 97.0398 87.544C97.0398 87.608 97.0078 87.6827 96.9438 87.768C96.4211 88.2907 95.9144 88.664 95.4238 88.888C94.9331 89.1013 94.3838 89.208 93.7758 89.208C93.0078 89.208 92.3411 89.0373 91.7758 88.696C91.2104 88.3547 90.7731 87.88 90.4638 87.272C90.1544 86.6533 89.9998 85.9387 89.9998 85.128C89.9998 84.3067 90.1491 83.5813 90.4478 82.952C90.7571 82.312 91.1891 81.816 91.7438 81.464C92.2984 81.1013 92.9384 80.92 93.6638 80.92C94.7411 80.92 95.5891 81.256 96.2078 81.928C96.8264 82.6 97.1358 83.5067 97.1358 84.648V84.84C97.1251 84.936 97.0878 85.0107 97.0238 85.064C96.9704 85.1173 96.8958 85.144 96.7998 85.144H91.0718C91.1038 86.04 91.3384 86.7973 91.7758 87.416C92.2238 88.024 92.8904 88.328 93.7758 88.328C94.2558 88.328 94.6771 88.2427 95.0398 88.072C95.4131 87.8907 95.8238 87.576 96.2718 87.128ZM93.6638 81.8C92.9598 81.8 92.3784 82.0187 91.9198 82.456C91.4718 82.8827 91.1998 83.512 91.1038 84.344H96.0798C96.0584 83.5653 95.8344 82.9467 95.4078 82.488C94.9811 82.0293 94.3998 81.8 93.6638 81.8ZM102.243 89.208C101.486 89.208 100.825 89.0373 100.259 88.696C99.7047 88.344 99.2727 87.8587 98.9634 87.24C98.6647 86.6107 98.5154 85.8853 98.5154 85.064C98.5154 84.2533 98.6647 83.5333 98.9634 82.904C99.2727 82.2747 99.7047 81.7893 100.259 81.448C100.825 81.096 101.475 80.92 102.211 80.92C102.809 80.92 103.331 81.0213 103.779 81.224C104.227 81.416 104.659 81.736 105.075 82.184C105.139 82.248 105.171 82.3173 105.171 82.392C105.171 82.488 105.129 82.568 105.043 82.632L104.819 82.84C104.755 82.904 104.681 82.936 104.595 82.936C104.521 82.936 104.441 82.8933 104.355 82.808C103.982 82.4347 103.625 82.1733 103.283 82.024C102.953 81.8747 102.585 81.8 102.179 81.8C101.625 81.8 101.15 81.9547 100.755 82.264C100.371 82.5733 100.083 82.9787 99.8914 83.48C99.6994 83.9707 99.6034 84.4987 99.6034 85.064C99.6034 85.6293 99.6994 86.1627 99.8914 86.664C100.083 87.1547 100.377 87.5547 100.771 87.864C101.166 88.1627 101.651 88.312 102.227 88.312C102.654 88.312 103.027 88.2373 103.347 88.088C103.678 87.928 104.046 87.6293 104.451 87.192C104.537 87.1067 104.617 87.064 104.691 87.064C104.777 87.064 104.851 87.096 104.915 87.16L105.139 87.336C105.214 87.4 105.251 87.4747 105.251 87.56C105.251 87.6453 105.203 87.7467 105.107 87.864C104.659 88.3547 104.211 88.7013 103.763 88.904C103.315 89.1067 102.809 89.208 102.243 89.208ZM110.073 89.208C109.337 89.208 108.681 89.032 108.105 88.68C107.529 88.328 107.081 87.8427 106.761 87.224C106.441 86.5947 106.281 85.8747 106.281 85.064C106.281 84.2533 106.441 83.5387 106.761 82.92C107.081 82.2907 107.529 81.8 108.105 81.448C108.681 81.096 109.337 80.92 110.073 80.92C110.809 80.92 111.465 81.096 112.041 81.448C112.617 81.8 113.065 82.2907 113.385 82.92C113.705 83.5387 113.865 84.2533 113.865 85.064C113.865 85.8747 113.705 86.5947 113.385 87.224C113.065 87.8427 112.617 88.328 112.041 88.68C111.465 89.032 110.809 89.208 110.073 89.208ZM110.073 88.328C110.894 88.328 111.55 88.0293 112.041 87.432C112.532 86.824 112.777 86.0347 112.777 85.064C112.777 84.0933 112.532 83.3093 112.041 82.712C111.55 82.104 110.894 81.8 110.073 81.8C109.252 81.8 108.596 82.104 108.105 82.712C107.614 83.3093 107.369 84.0933 107.369 85.064C107.369 86.0347 107.614 86.824 108.105 87.432C108.596 88.0293 109.252 88.328 110.073 88.328ZM118.644 81.048C118.91 81.048 119.225 81.0907 119.588 81.176C119.78 81.24 119.854 81.3733 119.812 81.576L119.748 81.832C119.694 82.0347 119.561 82.1093 119.348 82.056C119.092 81.992 118.857 81.96 118.644 81.96C118.1 81.96 117.646 82.1947 117.284 82.664C116.932 83.1333 116.756 83.784 116.756 84.616V88.68C116.756 88.8933 116.649 89 116.436 89H116.02C115.806 89 115.7 88.8933 115.7 88.68V81.432C115.7 81.2187 115.806 81.112 116.02 81.112H116.372C116.585 81.112 116.692 81.2187 116.692 81.432V82.312C116.873 81.9173 117.129 81.608 117.46 81.384C117.801 81.16 118.196 81.048 118.644 81.048ZM124.083 80.92C125.054 80.92 125.811 81.1547 126.355 81.624C126.899 82.0827 127.171 82.6907 127.171 83.448V88.68C127.171 88.8933 127.065 89 126.851 89H126.531C126.318 89 126.211 88.8933 126.211 88.68V87.96C125.945 88.3867 125.566 88.7067 125.075 88.92C124.595 89.1333 124.057 89.24 123.459 89.24C122.627 89.24 121.95 89.064 121.427 88.712C120.905 88.36 120.643 87.816 120.643 87.08C120.643 86.4933 120.809 86.024 121.139 85.672C121.47 85.3093 121.902 85.0373 122.435 84.856C122.969 84.664 123.635 84.4933 124.435 84.344L126.163 84.04V83.528C126.163 82.984 125.977 82.5627 125.603 82.264C125.23 81.9547 124.739 81.8 124.131 81.8C123.673 81.8 123.257 81.8853 122.883 82.056C122.51 82.2267 122.11 82.52 121.683 82.936C121.609 83.0107 121.529 83.048 121.443 83.048C121.369 83.048 121.299 83.016 121.235 82.952L121.027 82.76C120.953 82.6853 120.915 82.6053 120.915 82.52C120.915 82.424 120.953 82.3387 121.027 82.264C121.475 81.7947 121.945 81.4533 122.435 81.24C122.937 81.0267 123.486 80.92 124.083 80.92ZM123.507 88.36C124.275 88.36 124.91 88.1573 125.411 87.752C125.913 87.3467 126.163 86.8293 126.163 86.2V84.856L124.675 85.144C123.982 85.2827 123.433 85.416 123.027 85.544C122.622 85.672 122.297 85.8587 122.051 86.104C121.806 86.3493 121.683 86.6693 121.683 87.064C121.683 87.4693 121.843 87.7893 122.163 88.024C122.494 88.248 122.942 88.36 123.507 88.36ZM132.845 88.12C132.877 88.1093 132.92 88.104 132.973 88.104C133.037 88.104 133.096 88.1253 133.149 88.168C133.203 88.2107 133.235 88.2693 133.245 88.344L133.293 88.568C133.304 88.5893 133.309 88.6267 133.309 88.68C133.309 88.8293 133.229 88.92 133.069 88.952C132.685 89.0693 132.275 89.128 131.837 89.128C131.144 89.128 130.648 88.9733 130.349 88.664C130.061 88.344 129.917 87.8853 129.917 87.288V81.912H128.733C128.52 81.912 128.413 81.8053 128.413 81.592V81.432C128.413 81.2187 128.52 81.112 128.733 81.112H129.917V78.68C129.917 78.4667 130.024 78.36 130.237 78.36H130.653C130.867 78.36 130.973 78.4667 130.973 78.68V81.112H132.893C133.107 81.112 133.213 81.2187 133.213 81.432V81.592C133.213 81.8053 133.107 81.912 132.893 81.912H130.973V87.16C130.973 87.5547 131.048 87.832 131.197 87.992C131.347 88.152 131.603 88.232 131.965 88.232C132.221 88.232 132.515 88.1947 132.845 88.12ZM135.353 79.112C135.139 79.112 134.958 79.0373 134.809 78.888C134.67 78.7387 134.601 78.5573 134.601 78.344C134.601 78.1307 134.67 77.9547 134.809 77.816C134.958 77.6773 135.139 77.608 135.353 77.608C135.577 77.608 135.758 77.6773 135.897 77.816C136.046 77.9547 136.121 78.1307 136.121 78.344C136.121 78.5573 136.046 78.7387 135.897 78.888C135.758 79.0373 135.577 79.112 135.353 79.112ZM135.145 89C134.931 89 134.825 88.8933 134.825 88.68V81.432C134.825 81.2187 134.931 81.112 135.145 81.112H135.561C135.774 81.112 135.881 81.2187 135.881 81.432V88.68C135.881 88.8933 135.774 89 135.561 89H135.145ZM141.495 89.208C140.759 89.208 140.103 89.032 139.527 88.68C138.951 88.328 138.503 87.8427 138.183 87.224C137.863 86.5947 137.703 85.8747 137.703 85.064C137.703 84.2533 137.863 83.5387 138.183 82.92C138.503 82.2907 138.951 81.8 139.527 81.448C140.103 81.096 140.759 80.92 141.495 80.92C142.231 80.92 142.887 81.096 143.463 81.448C144.039 81.8 144.487 82.2907 144.807 82.92C145.127 83.5387 145.287 84.2533 145.287 85.064C145.287 85.8747 145.127 86.5947 144.807 87.224C144.487 87.8427 144.039 88.328 143.463 88.68C142.887 89.032 142.231 89.208 141.495 89.208ZM141.495 88.328C142.316 88.328 142.972 88.0293 143.463 87.432C143.954 86.824 144.199 86.0347 144.199 85.064C144.199 84.0933 143.954 83.3093 143.463 82.712C142.972 82.104 142.316 81.8 141.495 81.8C140.674 81.8 140.018 82.104 139.527 82.712C139.036 83.3093 138.791 84.0933 138.791 85.064C138.791 86.0347 139.036 86.824 139.527 87.432C140.018 88.0293 140.674 88.328 141.495 88.328ZM150.641 80.92C151.57 80.92 152.268 81.176 152.738 81.688C153.218 82.2 153.458 82.84 153.458 83.608V88.68C153.458 88.8933 153.351 89 153.138 89H152.722C152.508 89 152.402 88.8933 152.402 88.68V83.96C152.402 83.256 152.231 82.7227 151.89 82.36C151.548 81.9973 151.058 81.816 150.418 81.816C150.012 81.816 149.639 81.9173 149.298 82.12C148.956 82.312 148.684 82.5787 148.482 82.92C148.279 83.2613 148.178 83.6347 148.178 84.04V88.68C148.178 88.8933 148.071 89 147.858 89H147.442C147.228 89 147.122 88.8933 147.122 88.68V81.432C147.122 81.2187 147.228 81.112 147.442 81.112H147.794C148.007 81.112 148.114 81.2187 148.114 81.432V82.2C148.38 81.7733 148.732 81.4533 149.17 81.24C149.607 81.0267 150.098 80.92 150.641 80.92Z" fill="#0063FB"/>
<path d="M161.816 89C161.624 89 161.528 88.9253 161.528 88.776C161.528 88.744 161.539 88.696 161.56 88.632L166.248 77.88C166.312 77.72 166.44 77.64 166.632 77.64H166.968C167.16 77.64 167.256 77.7147 167.256 77.864C167.256 77.896 167.245 77.944 167.224 78.008L162.536 88.76C162.472 88.92 162.344 89 162.152 89H161.816Z" fill="#767676"/>
<path d="M183.656 89.24C182.568 89.24 181.629 88.9893 180.84 88.488C180.05 87.976 179.448 87.272 179.032 86.376C178.616 85.48 178.408 84.4613 178.408 83.32C178.408 82.168 178.616 81.144 179.032 80.248C179.448 79.352 180.056 78.6533 180.856 78.152C181.666 77.6507 182.637 77.4 183.768 77.4C184.418 77.4 185.026 77.5067 185.592 77.72C186.157 77.9227 186.76 78.2747 187.4 78.776C187.496 78.84 187.544 78.9147 187.544 79C187.544 79.064 187.512 79.1387 187.448 79.224L187.224 79.512C187.16 79.5973 187.085 79.64 187 79.64C186.914 79.64 186.834 79.608 186.76 79.544C186.184 79.096 185.661 78.792 185.192 78.632C184.733 78.4613 184.258 78.376 183.768 78.376C182.904 78.376 182.152 78.5893 181.512 79.016C180.882 79.432 180.397 80.0133 180.056 80.76C179.714 81.5067 179.544 82.36 179.544 83.32C179.544 84.2693 179.714 85.1227 180.056 85.88C180.397 86.6267 180.877 87.2133 181.496 87.64C182.114 88.056 182.829 88.264 183.64 88.264C184.28 88.264 184.845 88.1413 185.336 87.896C185.837 87.64 186.37 87.2453 186.936 86.712C187.021 86.648 187.096 86.616 187.16 86.616C187.245 86.616 187.325 86.6533 187.4 86.728L187.656 87.016C187.72 87.08 187.752 87.1493 187.752 87.224C187.752 87.32 187.698 87.416 187.592 87.512C186.93 88.1413 186.301 88.5893 185.704 88.856C185.106 89.112 184.424 89.24 183.656 89.24ZM192.599 80.92C193.57 80.92 194.327 81.1547 194.871 81.624C195.415 82.0827 195.687 82.6907 195.687 83.448V88.68C195.687 88.8933 195.58 89 195.367 89H195.047C194.834 89 194.727 88.8933 194.727 88.68V87.96C194.46 88.3867 194.082 88.7067 193.591 88.92C193.111 89.1333 192.572 89.24 191.975 89.24C191.143 89.24 190.466 89.064 189.943 88.712C189.42 88.36 189.159 87.816 189.159 87.08C189.159 86.4933 189.324 86.024 189.655 85.672C189.986 85.3093 190.418 85.0373 190.951 84.856C191.484 84.664 192.151 84.4933 192.951 84.344L194.679 84.04V83.528C194.679 82.984 194.492 82.5627 194.119 82.264C193.746 81.9547 193.255 81.8 192.647 81.8C192.188 81.8 191.772 81.8853 191.399 82.056C191.026 82.2267 190.626 82.52 190.199 82.936C190.124 83.0107 190.044 83.048 189.959 83.048C189.884 83.048 189.815 83.016 189.751 82.952L189.543 82.76C189.468 82.6853 189.431 82.6053 189.431 82.52C189.431 82.424 189.468 82.3387 189.543 82.264C189.991 81.7947 190.46 81.4533 190.951 81.24C191.452 81.0267 192.002 80.92 192.599 80.92ZM192.023 88.36C192.791 88.36 193.426 88.1573 193.927 87.752C194.428 87.3467 194.679 86.8293 194.679 86.2V84.856L193.191 85.144C192.498 85.2827 191.948 85.416 191.543 85.544C191.138 85.672 190.812 85.8587 190.567 86.104C190.322 86.3493 190.199 86.6693 190.199 87.064C190.199 87.4693 190.359 87.7893 190.679 88.024C191.01 88.248 191.458 88.36 192.023 88.36ZM201.548 80.92C202.476 80.92 203.174 81.176 203.644 81.688C204.124 82.2 204.364 82.84 204.364 83.608V88.68C204.364 88.8933 204.257 89 204.044 89H203.628C203.414 89 203.308 88.8933 203.308 88.68V83.96C203.308 83.256 203.137 82.7227 202.796 82.36C202.454 81.9973 201.964 81.816 201.324 81.816C200.918 81.816 200.545 81.9173 200.204 82.12C199.862 82.312 199.59 82.5787 199.388 82.92C199.185 83.2613 199.084 83.6347 199.084 84.04V88.68C199.084 88.8933 198.977 89 198.764 89H198.348C198.134 89 198.028 88.8933 198.028 88.68V81.432C198.028 81.2187 198.134 81.112 198.348 81.112H198.7C198.913 81.112 199.02 81.2187 199.02 81.432V82.2C199.286 81.7733 199.638 81.4533 200.076 81.24C200.513 81.0267 201.004 80.92 201.548 80.92ZM212.396 77.96C212.396 77.7467 212.502 77.64 212.716 77.64H213.132C213.345 77.64 213.452 77.7467 213.452 77.96V88.68C213.452 88.8933 213.345 89 213.132 89H212.796C212.582 89 212.476 88.8933 212.476 88.68V87.64C212.188 88.1413 211.809 88.5253 211.34 88.792C210.87 89.0587 210.316 89.192 209.676 89.192C209.004 89.192 208.406 89.0213 207.884 88.68C207.361 88.328 206.95 87.8427 206.652 87.224C206.353 86.5947 206.204 85.8747 206.204 85.064C206.204 84.2533 206.353 83.5387 206.652 82.92C206.961 82.2907 207.382 81.8053 207.916 81.464C208.449 81.112 209.046 80.936 209.708 80.936C210.924 80.936 211.82 81.3893 212.396 82.296V77.96ZM209.756 88.296C210.556 88.296 211.201 88.0133 211.692 87.448C212.193 86.872 212.444 86.0773 212.444 85.064C212.444 84.0613 212.193 83.272 211.692 82.696C211.201 82.12 210.556 81.832 209.756 81.832C209.02 81.832 208.422 82.1307 207.964 82.728C207.516 83.3253 207.292 84.104 207.292 85.064C207.292 86.0347 207.516 86.8187 207.964 87.416C208.412 88.0027 209.009 88.296 209.756 88.296ZM216.161 89C215.947 89 215.841 88.8933 215.841 88.68V77.96C215.841 77.7467 215.947 77.64 216.161 77.64H216.577C216.79 77.64 216.897 77.7467 216.897 77.96V88.68C216.897 88.8933 216.79 89 216.577 89H216.161ZM225.022 87.128C225.096 87.0533 225.176 87.016 225.262 87.016C225.336 87.016 225.406 87.048 225.47 87.112L225.678 87.304C225.752 87.3787 225.79 87.4587 225.79 87.544C225.79 87.608 225.758 87.6827 225.694 87.768C225.171 88.2907 224.664 88.664 224.174 88.888C223.683 89.1013 223.134 89.208 222.526 89.208C221.758 89.208 221.091 89.0373 220.526 88.696C219.96 88.3547 219.523 87.88 219.214 87.272C218.904 86.6533 218.75 85.9387 218.75 85.128C218.75 84.3067 218.899 83.5813 219.198 82.952C219.507 82.312 219.939 81.816 220.494 81.464C221.048 81.1013 221.688 80.92 222.414 80.92C223.491 80.92 224.339 81.256 224.958 81.928C225.576 82.6 225.886 83.5067 225.886 84.648V84.84C225.875 84.936 225.838 85.0107 225.774 85.064C225.72 85.1173 225.646 85.144 225.55 85.144H219.822C219.854 86.04 220.088 86.7973 220.526 87.416C220.974 88.024 221.64 88.328 222.526 88.328C223.006 88.328 223.427 88.2427 223.79 88.072C224.163 87.8907 224.574 87.576 225.022 87.128ZM222.414 81.8C221.71 81.8 221.128 82.0187 220.67 82.456C220.222 82.8827 219.95 83.512 219.854 84.344H224.83C224.808 83.5653 224.584 82.9467 224.158 82.488C223.731 82.0293 223.15 81.8 222.414 81.8ZM230.592 89.208C229.942 89.208 229.366 89.1173 228.864 88.936C228.374 88.744 227.856 88.424 227.312 87.976C227.216 87.912 227.168 87.8373 227.168 87.752C227.168 87.6773 227.206 87.6027 227.28 87.528L227.488 87.304C227.552 87.2187 227.632 87.176 227.728 87.176C227.803 87.176 227.872 87.208 227.936 87.272C228.448 87.6667 228.902 87.944 229.296 88.104C229.691 88.2533 230.123 88.328 230.592 88.328C231.179 88.328 231.659 88.2 232.032 87.944C232.406 87.6773 232.592 87.32 232.592 86.872C232.592 86.424 232.4 86.0933 232.016 85.88C231.632 85.6667 231.04 85.4747 230.24 85.304C229.536 85.1547 228.982 85 228.576 84.84C228.182 84.6693 227.888 84.456 227.696 84.2C227.504 83.944 227.408 83.608 227.408 83.192C227.408 82.5093 227.686 81.96 228.24 81.544C228.795 81.128 229.494 80.92 230.336 80.92C230.912 80.92 231.424 80.9947 231.872 81.144C232.331 81.2827 232.79 81.5173 233.248 81.848C233.344 81.9227 233.392 82.0027 233.392 82.088C233.392 82.1413 233.366 82.2107 233.312 82.296L233.12 82.536C233.067 82.6213 232.992 82.664 232.896 82.664C232.811 82.664 232.736 82.6373 232.672 82.584C232.235 82.2747 231.846 82.0667 231.504 81.96C231.174 81.8533 230.795 81.8 230.368 81.8C229.782 81.8 229.312 81.928 228.96 82.184C228.608 82.44 228.432 82.7653 228.432 83.16C228.432 83.4053 228.512 83.6027 228.672 83.752C228.832 83.9013 229.062 84.0293 229.36 84.136C229.659 84.232 230.096 84.344 230.672 84.472C231.739 84.7067 232.496 84.9947 232.944 85.336C233.403 85.6773 233.632 86.1733 233.632 86.824C233.632 87.5387 233.35 88.1147 232.784 88.552C232.219 88.9893 231.488 89.208 230.592 89.208ZM238.939 88.12C238.971 88.1093 239.014 88.104 239.067 88.104C239.131 88.104 239.19 88.1253 239.243 88.168C239.296 88.2107 239.328 88.2693 239.339 88.344L239.387 88.568C239.398 88.5893 239.403 88.6267 239.403 88.68C239.403 88.8293 239.323 88.92 239.163 88.952C238.779 89.0693 238.368 89.128 237.931 89.128C237.238 89.128 236.742 88.9733 236.443 88.664C236.155 88.344 236.011 87.8853 236.011 87.288V81.912H234.827C234.614 81.912 234.507 81.8053 234.507 81.592V81.432C234.507 81.2187 234.614 81.112 234.827 81.112H236.011V78.68C236.011 78.4667 236.118 78.36 236.331 78.36H236.747C236.96 78.36 237.067 78.4667 237.067 78.68V81.112H238.987C239.2 81.112 239.307 81.2187 239.307 81.432V81.592C239.307 81.8053 239.2 81.912 238.987 81.912H237.067V87.16C237.067 87.5547 237.142 87.832 237.291 87.992C237.44 88.152 237.696 88.232 238.059 88.232C238.315 88.232 238.608 88.1947 238.939 88.12ZM241.446 79.112C241.233 79.112 241.052 79.0373 240.902 78.888C240.764 78.7387 240.694 78.5573 240.694 78.344C240.694 78.1307 240.764 77.9547 240.902 77.816C241.052 77.6773 241.233 77.608 241.446 77.608C241.67 77.608 241.852 77.6773 241.99 77.816C242.14 77.9547 242.214 78.1307 242.214 78.344C242.214 78.5573 242.14 78.7387 241.99 78.888C241.852 79.0373 241.67 79.112 241.446 79.112ZM241.238 89C241.025 89 240.918 88.8933 240.918 88.68V81.432C240.918 81.2187 241.025 81.112 241.238 81.112H241.654C241.868 81.112 241.974 81.2187 241.974 81.432V88.68C241.974 88.8933 241.868 89 241.654 89H241.238ZM247.525 89.208C246.767 89.208 246.106 89.0373 245.541 88.696C244.986 88.344 244.554 87.8587 244.245 87.24C243.946 86.6107 243.797 85.8853 243.797 85.064C243.797 84.2533 243.946 83.5333 244.245 82.904C244.554 82.2747 244.986 81.7893 245.541 81.448C246.106 81.096 246.757 80.92 247.493 80.92C248.09 80.92 248.613 81.0213 249.061 81.224C249.509 81.416 249.941 81.736 250.357 82.184C250.421 82.248 250.453 82.3173 250.453 82.392C250.453 82.488 250.41 82.568 250.325 82.632L250.101 82.84C250.037 82.904 249.962 82.936 249.877 82.936C249.802 82.936 249.722 82.8933 249.637 82.808C249.263 82.4347 248.906 82.1733 248.565 82.024C248.234 81.8747 247.866 81.8 247.461 81.8C246.906 81.8 246.431 81.9547 246.037 82.264C245.653 82.5733 245.365 82.9787 245.173 83.48C244.981 83.9707 244.885 84.4987 244.885 85.064C244.885 85.6293 244.981 86.1627 245.173 86.664C245.365 87.1547 245.658 87.5547 246.053 87.864C246.447 88.1627 246.933 88.312 247.509 88.312C247.935 88.312 248.309 88.2373 248.629 88.088C248.959 87.928 249.327 87.6293 249.733 87.192C249.818 87.1067 249.898 87.064 249.973 87.064C250.058 87.064 250.133 87.096 250.197 87.16L250.421 87.336C250.495 87.4 250.533 87.4747 250.533 87.56C250.533 87.6453 250.485 87.7467 250.389 87.864C249.941 88.3547 249.493 88.7013 249.045 88.904C248.597 89.1067 248.09 89.208 247.525 89.208ZM257.943 89C257.783 89 257.655 88.9307 257.559 88.792L254.855 84.856L253.303 86.44V88.68C253.303 88.8933 253.196 89 252.983 89H252.567C252.353 89 252.247 88.8933 252.247 88.68V77.96C252.247 77.7467 252.353 77.64 252.567 77.64H252.983C253.196 77.64 253.303 77.7467 253.303 77.96V85.24L257.143 81.256C257.239 81.1493 257.372 81.096 257.543 81.096H257.991C258.076 81.096 258.14 81.1173 258.183 81.16C258.236 81.192 258.263 81.2347 258.263 81.288C258.263 81.3413 258.231 81.4107 258.167 81.496L255.591 84.184L258.615 88.616C258.657 88.6907 258.679 88.7547 258.679 88.808C258.679 88.936 258.593 89 258.423 89H257.943ZM262.889 89.208C262.238 89.208 261.662 89.1173 261.161 88.936C260.67 88.744 260.153 88.424 259.609 87.976C259.513 87.912 259.465 87.8373 259.465 87.752C259.465 87.6773 259.502 87.6027 259.577 87.528L259.785 87.304C259.849 87.2187 259.929 87.176 260.025 87.176C260.1 87.176 260.169 87.208 260.233 87.272C260.745 87.6667 261.198 87.944 261.593 88.104C261.988 88.2533 262.42 88.328 262.889 88.328C263.476 88.328 263.956 88.2 264.329 87.944C264.702 87.6773 264.889 87.32 264.889 86.872C264.889 86.424 264.697 86.0933 264.313 85.88C263.929 85.6667 263.337 85.4747 262.537 85.304C261.833 85.1547 261.278 85 260.873 84.84C260.478 84.6693 260.185 84.456 259.993 84.2C259.801 83.944 259.705 83.608 259.705 83.192C259.705 82.5093 259.982 81.96 260.537 81.544C261.092 81.128 261.79 80.92 262.633 80.92C263.209 80.92 263.721 80.9947 264.169 81.144C264.628 81.2827 265.086 81.5173 265.545 81.848C265.641 81.9227 265.689 82.0027 265.689 82.088C265.689 82.1413 265.662 82.2107 265.609 82.296L265.417 82.536C265.364 82.6213 265.289 82.664 265.193 82.664C265.108 82.664 265.033 82.6373 264.969 82.584C264.532 82.2747 264.142 82.0667 263.801 81.96C263.47 81.8533 263.092 81.8 262.665 81.8C262.078 81.8 261.609 81.928 261.257 82.184C260.905 82.44 260.729 82.7653 260.729 83.16C260.729 83.4053 260.809 83.6027 260.969 83.752C261.129 83.9013 261.358 84.0293 261.657 84.136C261.956 84.232 262.393 84.344 262.969 84.472C264.036 84.7067 264.793 84.9947 265.241 85.336C265.7 85.6773 265.929 86.1733 265.929 86.824C265.929 87.5387 265.646 88.1147 265.081 88.552C264.516 88.9893 263.785 89.208 262.889 89.208Z" fill="#464646"/>
</svg>
