<svg width="344" height="168" viewBox="0 0 344 168" fill="none" xmlns="http://www.w3.org/2000/svg">
<rect width="344" height="168" fill="#F5F5F5"/>
<path d="M69.696 90C69.4827 90 69.376 89.8933 69.376 89.68V78.96C69.376 78.7467 69.4827 78.64 69.696 78.64H76.416C76.6293 78.64 76.736 78.7467 76.736 78.96V79.264C76.736 79.4773 76.6293 79.584 76.416 79.584H70.512V83.904H75.92C76.1333 83.904 76.24 84.0107 76.24 84.224V84.528C76.24 84.7413 76.1333 84.848 75.92 84.848H70.512V89.68C70.512 89.8933 70.4053 90 70.192 90H69.696ZM81.1771 81.92C82.1478 81.92 82.9051 82.1547 83.4491 82.624C83.9931 83.0827 84.2651 83.6907 84.2651 84.448V89.68C84.2651 89.8933 84.1585 90 83.9451 90H83.6251C83.4118 90 83.3051 89.8933 83.3051 89.68V88.96C83.0385 89.3867 82.6598 89.7067 82.1691 89.92C81.6891 90.1333 81.1505 90.24 80.5531 90.24C79.7211 90.24 79.0438 90.064 78.5211 89.712C77.9985 89.36 77.7371 88.816 77.7371 88.08C77.7371 87.4933 77.9025 87.024 78.2331 86.672C78.5638 86.3093 78.9958 86.0373 79.5291 85.856C80.0625 85.664 80.7291 85.4933 81.5291 85.344L83.2571 85.04V84.528C83.2571 83.984 83.0705 83.5627 82.6971 83.264C82.3238 82.9547 81.8331 82.8 81.2251 82.8C80.7665 82.8 80.3505 82.8853 79.9771 83.056C79.6038 83.2267 79.2038 83.52 78.7771 83.936C78.7025 84.0107 78.6225 84.048 78.5371 84.048C78.4625 84.048 78.3931 84.016 78.3291 83.952L78.1211 83.76C78.0465 83.6853 78.0091 83.6053 78.0091 83.52C78.0091 83.424 78.0465 83.3387 78.1211 83.264C78.5691 82.7947 79.0385 82.4533 79.5291 82.24C80.0305 82.0267 80.5798 81.92 81.1771 81.92ZM80.6011 89.36C81.3691 89.36 82.0038 89.1573 82.5051 88.752C83.0065 88.3467 83.2571 87.8293 83.2571 87.2V85.856L81.7691 86.144C81.0758 86.2827 80.5265 86.416 80.1211 86.544C79.7158 86.672 79.3905 86.8587 79.1451 87.104C78.8998 87.3493 78.7771 87.6693 78.7771 88.064C78.7771 88.4693 78.9371 88.7893 79.2571 89.024C79.5878 89.248 80.0358 89.36 80.6011 89.36ZM91.298 82.368C91.362 82.1973 91.4847 82.112 91.666 82.112H92.082C92.1673 82.112 92.2367 82.1333 92.29 82.176C92.3433 82.2187 92.37 82.2773 92.37 82.352L92.338 82.48L89.794 89.744C89.73 89.9147 89.6073 90 89.426 90H88.578C88.3967 90 88.274 89.9147 88.21 89.744L85.682 82.48L85.65 82.352C85.65 82.2773 85.6767 82.2187 85.73 82.176C85.7833 82.1333 85.8527 82.112 85.938 82.112H86.37C86.5513 82.112 86.674 82.1973 86.738 82.368L87.714 85.184C88.1193 86.3573 88.5513 87.7067 89.01 89.232C89.0313 89.168 89.09 88.9867 89.186 88.688C89.6233 87.248 90.002 86.08 90.322 85.184L91.298 82.368ZM97.1043 90.208C96.3683 90.208 95.7123 90.032 95.1363 89.68C94.5603 89.328 94.1123 88.8427 93.7923 88.224C93.4723 87.5947 93.3123 86.8747 93.3123 86.064C93.3123 85.2533 93.4723 84.5387 93.7923 83.92C94.1123 83.2907 94.5603 82.8 95.1363 82.448C95.7123 82.096 96.3683 81.92 97.1043 81.92C97.8403 81.92 98.4963 82.096 99.0723 82.448C99.6483 82.8 100.096 83.2907 100.416 83.92C100.736 84.5387 100.896 85.2533 100.896 86.064C100.896 86.8747 100.736 87.5947 100.416 88.224C100.096 88.8427 99.6483 89.328 99.0723 89.68C98.4963 90.032 97.8403 90.208 97.1043 90.208ZM97.1043 89.328C97.9256 89.328 98.5816 89.0293 99.0723 88.432C99.5629 87.824 99.8083 87.0347 99.8083 86.064C99.8083 85.0933 99.5629 84.3093 99.0723 83.712C98.5816 83.104 97.9256 82.8 97.1043 82.8C96.2829 82.8 95.6269 83.104 95.1363 83.712C94.6456 84.3093 94.4003 85.0933 94.4003 86.064C94.4003 87.0347 94.6456 87.824 95.1363 88.432C95.6269 89.0293 96.2829 89.328 97.1043 89.328ZM105.675 82.048C105.942 82.048 106.256 82.0907 106.619 82.176C106.811 82.24 106.886 82.3733 106.843 82.576L106.779 82.832C106.726 83.0347 106.592 83.1093 106.379 83.056C106.123 82.992 105.888 82.96 105.675 82.96C105.131 82.96 104.678 83.1947 104.315 83.664C103.963 84.1333 103.787 84.784 103.787 85.616V89.68C103.787 89.8933 103.68 90 103.467 90H103.051C102.838 90 102.731 89.8933 102.731 89.68V82.432C102.731 82.2187 102.838 82.112 103.051 82.112H103.403C103.616 82.112 103.723 82.2187 103.723 82.432V83.312C103.904 82.9173 104.16 82.608 104.491 82.384C104.832 82.16 105.227 82.048 105.675 82.048ZM108.806 80.112C108.592 80.112 108.411 80.0373 108.262 79.888C108.123 79.7387 108.054 79.5573 108.054 79.344C108.054 79.1307 108.123 78.9547 108.262 78.816C108.411 78.6773 108.592 78.608 108.806 78.608C109.03 78.608 109.211 78.6773 109.35 78.816C109.499 78.9547 109.574 79.1307 109.574 79.344C109.574 79.5573 109.499 79.7387 109.35 79.888C109.211 80.0373 109.03 80.112 108.806 80.112ZM108.598 90C108.384 90 108.278 89.8933 108.278 89.68V82.432C108.278 82.2187 108.384 82.112 108.598 82.112H109.014C109.227 82.112 109.334 82.2187 109.334 82.432V89.68C109.334 89.8933 109.227 90 109.014 90H108.598ZM115.236 89.12C115.268 89.1093 115.311 89.104 115.364 89.104C115.428 89.104 115.487 89.1253 115.54 89.168C115.593 89.2107 115.625 89.2693 115.636 89.344L115.684 89.568C115.695 89.5893 115.7 89.6267 115.7 89.68C115.7 89.8293 115.62 89.92 115.46 89.952C115.076 90.0693 114.665 90.128 114.228 90.128C113.535 90.128 113.039 89.9733 112.74 89.664C112.452 89.344 112.308 88.8853 112.308 88.288V82.912H111.124C110.911 82.912 110.804 82.8053 110.804 82.592V82.432C110.804 82.2187 110.911 82.112 111.124 82.112H112.308V79.68C112.308 79.4667 112.415 79.36 112.628 79.36H113.044C113.257 79.36 113.364 79.4667 113.364 79.68V82.112H115.284C115.497 82.112 115.604 82.2187 115.604 82.432V82.592C115.604 82.8053 115.497 82.912 115.284 82.912H113.364V88.16C113.364 88.5547 113.439 88.832 113.588 88.992C113.737 89.152 113.993 89.232 114.356 89.232C114.612 89.232 114.905 89.1947 115.236 89.12ZM122.662 88.128C122.737 88.0533 122.817 88.016 122.902 88.016C122.977 88.016 123.046 88.048 123.11 88.112L123.318 88.304C123.393 88.3787 123.43 88.4587 123.43 88.544C123.43 88.608 123.398 88.6827 123.334 88.768C122.812 89.2907 122.305 89.664 121.814 89.888C121.324 90.1013 120.774 90.208 120.166 90.208C119.398 90.208 118.732 90.0373 118.166 89.696C117.601 89.3547 117.164 88.88 116.854 88.272C116.545 87.6533 116.39 86.9387 116.39 86.128C116.39 85.3067 116.54 84.5813 116.838 83.952C117.148 83.312 117.58 82.816 118.134 82.464C118.689 82.1013 119.329 81.92 120.054 81.92C121.132 81.92 121.98 82.256 122.598 82.928C123.217 83.6 123.526 84.5067 123.526 85.648V85.84C123.516 85.936 123.478 86.0107 123.414 86.064C123.361 86.1173 123.286 86.144 123.19 86.144H117.462C117.494 87.04 117.729 87.7973 118.166 88.416C118.614 89.024 119.281 89.328 120.166 89.328C120.646 89.328 121.068 89.2427 121.43 89.072C121.804 88.8907 122.214 88.576 122.662 88.128ZM120.054 82.8C119.35 82.8 118.769 83.0187 118.31 83.456C117.862 83.8827 117.59 84.512 117.494 85.344H122.47C122.449 84.5653 122.225 83.9467 121.798 83.488C121.372 83.0293 120.79 82.8 120.054 82.8ZM128.233 90.208C127.582 90.208 127.006 90.1173 126.505 89.936C126.014 89.744 125.497 89.424 124.953 88.976C124.857 88.912 124.809 88.8373 124.809 88.752C124.809 88.6773 124.846 88.6027 124.921 88.528L125.129 88.304C125.193 88.2187 125.273 88.176 125.369 88.176C125.444 88.176 125.513 88.208 125.577 88.272C126.089 88.6667 126.542 88.944 126.937 89.104C127.332 89.2533 127.764 89.328 128.233 89.328C128.82 89.328 129.3 89.2 129.673 88.944C130.046 88.6773 130.233 88.32 130.233 87.872C130.233 87.424 130.041 87.0933 129.657 86.88C129.273 86.6667 128.681 86.4747 127.881 86.304C127.177 86.1547 126.622 86 126.217 85.84C125.822 85.6693 125.529 85.456 125.337 85.2C125.145 84.944 125.049 84.608 125.049 84.192C125.049 83.5093 125.326 82.96 125.881 82.544C126.436 82.128 127.134 81.92 127.977 81.92C128.553 81.92 129.065 81.9947 129.513 82.144C129.972 82.2827 130.43 82.5173 130.889 82.848C130.985 82.9227 131.033 83.0027 131.033 83.088C131.033 83.1413 131.006 83.2107 130.953 83.296L130.761 83.536C130.708 83.6213 130.633 83.664 130.537 83.664C130.452 83.664 130.377 83.6373 130.313 83.584C129.876 83.2747 129.486 83.0667 129.145 82.96C128.814 82.8533 128.436 82.8 128.009 82.8C127.422 82.8 126.953 82.928 126.601 83.184C126.249 83.44 126.073 83.7653 126.073 84.16C126.073 84.4053 126.153 84.6027 126.313 84.752C126.473 84.9013 126.702 85.0293 127.001 85.136C127.3 85.232 127.737 85.344 128.313 85.472C129.38 85.7067 130.137 85.9947 130.585 86.336C131.044 86.6773 131.273 87.1733 131.273 87.824C131.273 88.5387 130.99 89.1147 130.425 89.552C129.86 89.9893 129.129 90.208 128.233 90.208Z" fill="#0063FB"/>
<path d="M138.816 90C138.624 90 138.528 89.9253 138.528 89.776C138.528 89.744 138.539 89.696 138.56 89.632L143.248 78.88C143.312 78.72 143.44 78.64 143.632 78.64H143.968C144.16 78.64 144.256 78.7147 144.256 78.864C144.256 78.896 144.245 78.944 144.224 79.008L139.536 89.76C139.472 89.92 139.344 90 139.152 90H138.816Z" fill="#767676"/>
<path d="M175.496 90C175.283 90 175.176 89.8933 175.176 89.68V79.584H171.832C171.619 79.584 171.512 79.4773 171.512 79.264V78.96C171.512 78.7467 171.619 78.64 171.832 78.64H179.64C179.853 78.64 179.96 78.7467 179.96 78.96V79.264C179.96 79.4773 179.853 79.584 179.64 79.584H176.312V89.68C176.312 89.8933 176.205 90 175.992 90H175.496ZM183.316 82.048C183.582 82.048 183.897 82.0907 184.26 82.176C184.452 82.24 184.526 82.3733 184.484 82.576L184.42 82.832C184.366 83.0347 184.233 83.1093 184.02 83.056C183.764 82.992 183.529 82.96 183.316 82.96C182.772 82.96 182.318 83.1947 181.956 83.664C181.604 84.1333 181.428 84.784 181.428 85.616V89.68C181.428 89.8933 181.321 90 181.108 90H180.692C180.478 90 180.372 89.8933 180.372 89.68V82.432C180.372 82.2187 180.478 82.112 180.692 82.112H181.044C181.257 82.112 181.364 82.2187 181.364 82.432V83.312C181.545 82.9173 181.801 82.608 182.132 82.384C182.473 82.16 182.868 82.048 183.316 82.048ZM188.755 81.92C189.726 81.92 190.483 82.1547 191.027 82.624C191.571 83.0827 191.843 83.6907 191.843 84.448V89.68C191.843 89.8933 191.737 90 191.523 90H191.203C190.99 90 190.883 89.8933 190.883 89.68V88.96C190.617 89.3867 190.238 89.7067 189.747 89.92C189.267 90.1333 188.729 90.24 188.131 90.24C187.299 90.24 186.622 90.064 186.099 89.712C185.577 89.36 185.315 88.816 185.315 88.08C185.315 87.4933 185.481 87.024 185.811 86.672C186.142 86.3093 186.574 86.0373 187.107 85.856C187.641 85.664 188.307 85.4933 189.107 85.344L190.835 85.04V84.528C190.835 83.984 190.649 83.5627 190.275 83.264C189.902 82.9547 189.411 82.8 188.803 82.8C188.345 82.8 187.929 82.8853 187.555 83.056C187.182 83.2267 186.782 83.52 186.355 83.936C186.281 84.0107 186.201 84.048 186.115 84.048C186.041 84.048 185.971 84.016 185.907 83.952L185.699 83.76C185.625 83.6853 185.587 83.6053 185.587 83.52C185.587 83.424 185.625 83.3387 185.699 83.264C186.147 82.7947 186.617 82.4533 187.107 82.24C187.609 82.0267 188.158 81.92 188.755 81.92ZM188.179 89.36C188.947 89.36 189.582 89.1573 190.083 88.752C190.585 88.3467 190.835 87.8293 190.835 87.2V85.856L189.347 86.144C188.654 86.2827 188.105 86.416 187.699 86.544C187.294 86.672 186.969 86.8587 186.723 87.104C186.478 87.3493 186.355 87.6693 186.355 88.064C186.355 88.4693 186.515 88.7893 186.835 89.024C187.166 89.248 187.614 89.36 188.179 89.36ZM198.876 82.368C198.94 82.1973 199.063 82.112 199.244 82.112H199.66C199.745 82.112 199.815 82.1333 199.868 82.176C199.921 82.2187 199.948 82.2773 199.948 82.352L199.916 82.48L197.372 89.744C197.308 89.9147 197.185 90 197.004 90H196.156C195.975 90 195.852 89.9147 195.788 89.744L193.26 82.48L193.228 82.352C193.228 82.2773 193.255 82.2187 193.308 82.176C193.361 82.1333 193.431 82.112 193.516 82.112H193.948C194.129 82.112 194.252 82.1973 194.316 82.368L195.292 85.184C195.697 86.3573 196.129 87.7067 196.588 89.232C196.609 89.168 196.668 88.9867 196.764 88.688C197.201 87.248 197.58 86.08 197.9 85.184L198.876 82.368ZM207.162 88.128C207.237 88.0533 207.317 88.016 207.402 88.016C207.477 88.016 207.546 88.048 207.61 88.112L207.818 88.304C207.893 88.3787 207.93 88.4587 207.93 88.544C207.93 88.608 207.898 88.6827 207.834 88.768C207.312 89.2907 206.805 89.664 206.314 89.888C205.824 90.1013 205.274 90.208 204.666 90.208C203.898 90.208 203.232 90.0373 202.666 89.696C202.101 89.3547 201.664 88.88 201.354 88.272C201.045 87.6533 200.89 86.9387 200.89 86.128C200.89 85.3067 201.04 84.5813 201.338 83.952C201.648 83.312 202.08 82.816 202.634 82.464C203.189 82.1013 203.829 81.92 204.554 81.92C205.632 81.92 206.48 82.256 207.098 82.928C207.717 83.6 208.026 84.5067 208.026 85.648V85.84C208.016 85.936 207.978 86.0107 207.914 86.064C207.861 86.1173 207.786 86.144 207.69 86.144H201.962C201.994 87.04 202.229 87.7973 202.666 88.416C203.114 89.024 203.781 89.328 204.666 89.328C205.146 89.328 205.568 89.2427 205.93 89.072C206.304 88.8907 206.714 88.576 207.162 88.128ZM204.554 82.8C203.85 82.8 203.269 83.0187 202.81 83.456C202.362 83.8827 202.09 84.512 201.994 85.344H206.97C206.949 84.5653 206.725 83.9467 206.298 83.488C205.872 83.0293 205.29 82.8 204.554 82.8ZM210.254 90C210.041 90 209.934 89.8933 209.934 89.68V78.96C209.934 78.7467 210.041 78.64 210.254 78.64H210.67C210.884 78.64 210.99 78.7467 210.99 78.96V89.68C210.99 89.8933 210.884 90 210.67 90H210.254Z" fill="#0063FB"/>
<path d="M219.816 90C219.624 90 219.528 89.9253 219.528 89.776C219.528 89.744 219.539 89.696 219.56 89.632L224.248 78.88C224.312 78.72 224.44 78.64 224.632 78.64H224.968C225.16 78.64 225.256 78.7147 225.256 78.864C225.256 78.896 225.245 78.944 225.224 79.008L220.536 89.76C220.472 89.92 220.344 90 220.152 90H219.816Z" fill="#767676"/>
<path d="M253.696 90C253.483 90 253.376 89.8933 253.376 89.68V78.96C253.376 78.7467 253.483 78.64 253.696 78.64H257.44C258.496 78.64 259.397 78.88 260.144 79.36C260.891 79.84 261.456 80.5067 261.84 81.36C262.224 82.2133 262.416 83.2 262.416 84.32C262.416 85.44 262.224 86.4267 261.84 87.28C261.456 88.1333 260.891 88.8 260.144 89.28C259.397 89.76 258.496 90 257.44 90H253.696ZM257.248 89.056C258.539 89.056 259.531 88.6347 260.224 87.792C260.917 86.9387 261.264 85.7813 261.264 84.32C261.264 82.8693 260.917 81.7173 260.224 80.864C259.531 80.0107 258.539 79.584 257.248 79.584H254.512V89.056H257.248ZM267.333 81.92C268.304 81.92 269.061 82.1547 269.605 82.624C270.149 83.0827 270.421 83.6907 270.421 84.448V89.68C270.421 89.8933 270.315 90 270.101 90H269.781C269.568 90 269.461 89.8933 269.461 89.68V88.96C269.195 89.3867 268.816 89.7067 268.325 89.92C267.845 90.1333 267.307 90.24 266.709 90.24C265.877 90.24 265.2 90.064 264.677 89.712C264.155 89.36 263.893 88.816 263.893 88.08C263.893 87.4933 264.059 87.024 264.389 86.672C264.72 86.3093 265.152 86.0373 265.685 85.856C266.219 85.664 266.885 85.4933 267.685 85.344L269.413 85.04V84.528C269.413 83.984 269.227 83.5627 268.853 83.264C268.48 82.9547 267.989 82.8 267.381 82.8C266.923 82.8 266.507 82.8853 266.133 83.056C265.76 83.2267 265.36 83.52 264.933 83.936C264.859 84.0107 264.779 84.048 264.693 84.048C264.619 84.048 264.549 84.016 264.485 83.952L264.277 83.76C264.203 83.6853 264.165 83.6053 264.165 83.52C264.165 83.424 264.203 83.3387 264.277 83.264C264.725 82.7947 265.195 82.4533 265.685 82.24C266.187 82.0267 266.736 81.92 267.333 81.92ZM266.757 89.36C267.525 89.36 268.16 89.1573 268.661 88.752C269.163 88.3467 269.413 87.8293 269.413 87.2V85.856L267.925 86.144C267.232 86.2827 266.683 86.416 266.277 86.544C265.872 86.672 265.547 86.8587 265.301 87.104C265.056 87.3493 264.933 87.6693 264.933 88.064C264.933 88.4693 265.093 88.7893 265.413 89.024C265.744 89.248 266.192 89.36 266.757 89.36ZM276.095 89.12C276.127 89.1093 276.17 89.104 276.223 89.104C276.287 89.104 276.346 89.1253 276.399 89.168C276.453 89.2107 276.485 89.2693 276.495 89.344L276.543 89.568C276.554 89.5893 276.559 89.6267 276.559 89.68C276.559 89.8293 276.479 89.92 276.319 89.952C275.935 90.0693 275.525 90.128 275.087 90.128C274.394 90.128 273.898 89.9733 273.599 89.664C273.311 89.344 273.167 88.8853 273.167 88.288V82.912H271.983C271.77 82.912 271.663 82.8053 271.663 82.592V82.432C271.663 82.2187 271.77 82.112 271.983 82.112H273.167V79.68C273.167 79.4667 273.274 79.36 273.487 79.36H273.903C274.117 79.36 274.223 79.4667 274.223 79.68V82.112H276.143C276.357 82.112 276.463 82.2187 276.463 82.432V82.592C276.463 82.8053 276.357 82.912 276.143 82.912H274.223V88.16C274.223 88.5547 274.298 88.832 274.447 88.992C274.597 89.152 274.853 89.232 275.215 89.232C275.471 89.232 275.765 89.1947 276.095 89.12ZM283.522 88.128C283.596 88.0533 283.676 88.016 283.762 88.016C283.836 88.016 283.906 88.048 283.97 88.112L284.178 88.304C284.252 88.3787 284.29 88.4587 284.29 88.544C284.29 88.608 284.258 88.6827 284.194 88.768C283.671 89.2907 283.164 89.664 282.674 89.888C282.183 90.1013 281.634 90.208 281.026 90.208C280.258 90.208 279.591 90.0373 279.026 89.696C278.46 89.3547 278.023 88.88 277.714 88.272C277.404 87.6533 277.25 86.9387 277.25 86.128C277.25 85.3067 277.399 84.5813 277.698 83.952C278.007 83.312 278.439 82.816 278.994 82.464C279.548 82.1013 280.188 81.92 280.914 81.92C281.991 81.92 282.839 82.256 283.458 82.928C284.076 83.6 284.386 84.5067 284.386 85.648V85.84C284.375 85.936 284.338 86.0107 284.274 86.064C284.22 86.1173 284.146 86.144 284.05 86.144H278.322C278.354 87.04 278.588 87.7973 279.026 88.416C279.474 89.024 280.14 89.328 281.026 89.328C281.506 89.328 281.927 89.2427 282.29 89.072C282.663 88.8907 283.074 88.576 283.522 88.128ZM280.914 82.8C280.21 82.8 279.628 83.0187 279.17 83.456C278.722 83.8827 278.45 84.512 278.354 85.344H283.33C283.308 84.5653 283.084 83.9467 282.658 83.488C282.231 83.0293 281.65 82.8 280.914 82.8ZM289.092 90.208C288.442 90.208 287.866 90.1173 287.364 89.936C286.874 89.744 286.356 89.424 285.812 88.976C285.716 88.912 285.668 88.8373 285.668 88.752C285.668 88.6773 285.706 88.6027 285.78 88.528L285.988 88.304C286.052 88.2187 286.132 88.176 286.228 88.176C286.303 88.176 286.372 88.208 286.436 88.272C286.948 88.6667 287.402 88.944 287.796 89.104C288.191 89.2533 288.623 89.328 289.092 89.328C289.679 89.328 290.159 89.2 290.532 88.944C290.906 88.6773 291.092 88.32 291.092 87.872C291.092 87.424 290.9 87.0933 290.516 86.88C290.132 86.6667 289.54 86.4747 288.74 86.304C288.036 86.1547 287.482 86 287.076 85.84C286.682 85.6693 286.388 85.456 286.196 85.2C286.004 84.944 285.908 84.608 285.908 84.192C285.908 83.5093 286.186 82.96 286.74 82.544C287.295 82.128 287.994 81.92 288.836 81.92C289.412 81.92 289.924 81.9947 290.372 82.144C290.831 82.2827 291.29 82.5173 291.748 82.848C291.844 82.9227 291.892 83.0027 291.892 83.088C291.892 83.1413 291.866 83.2107 291.812 83.296L291.62 83.536C291.567 83.6213 291.492 83.664 291.396 83.664C291.311 83.664 291.236 83.6373 291.172 83.584C290.735 83.2747 290.346 83.0667 290.004 82.96C289.674 82.8533 289.295 82.8 288.868 82.8C288.282 82.8 287.812 82.928 287.46 83.184C287.108 83.44 286.932 83.7653 286.932 84.16C286.932 84.4053 287.012 84.6027 287.172 84.752C287.332 84.9013 287.562 85.0293 287.86 85.136C288.159 85.232 288.596 85.344 289.172 85.472C290.239 85.7067 290.996 85.9947 291.444 86.336C291.903 86.6773 292.132 87.1733 292.132 87.824C292.132 88.5387 291.85 89.1147 291.284 89.552C290.719 89.9893 289.988 90.208 289.092 90.208Z" fill="#464646"/>
<path d="M156 91.5V80C156 78.8954 156.895 78 158 78H160C161.105 78 162 78.8954 162 80V91.5" stroke="#767676" stroke-width="1.5" stroke-linecap="round" stroke-linejoin="round"/>
<path d="M163.222 83H154.778C153.764 83 152.911 83.7591 152.792 84.7663L152.263 89.2663C152.123 90.4553 153.052 91.5 154.249 91.5H163.751C164.948 91.5 165.877 90.4553 165.737 89.2663L165.208 84.7663C165.089 83.7591 164.236 83 163.222 83Z" stroke="#767676" stroke-width="1.5" stroke-linecap="round" stroke-linejoin="round"/>
<path fill-rule="evenodd" clip-rule="evenodd" d="M236 77.25C236.414 77.25 236.75 77.5858 236.75 78V78.25H243.25V78C243.25 77.5858 243.586 77.25 244 77.25C244.414 77.25 244.75 77.5858 244.75 78V78.25H246.067C247.044 78.25 247.75 79.0831 247.75 80L247.75 83L247.75 91C247.75 91.9169 247.044 92.75 246.067 92.75H233.933C232.956 92.75 232.25 91.9169 232.25 91V83V80C232.25 79.0831 232.956 78.25 233.933 78.25H235.25V78C235.25 77.5858 235.586 77.25 236 77.25ZM243.25 79.75V80.5C243.25 80.9142 243.586 81.25 244 81.25C244.414 81.25 244.75 80.9142 244.75 80.5V79.75H246.067C246.1 79.75 246.14 79.763 246.178 79.8046C246.218 79.8471 246.25 79.9144 246.25 80V82.25H233.75V80C233.75 79.9144 233.782 79.8471 233.822 79.8046C233.86 79.763 233.9 79.75 233.933 79.75H235.25V80.5C235.25 80.9142 235.586 81.25 236 81.25C236.414 81.25 236.75 80.9142 236.75 80.5V79.75H243.25ZM246.25 83.75V91C246.25 91.0856 246.218 91.1529 246.178 91.1954C246.14 91.237 246.1 91.25 246.067 91.25H233.933C233.9 91.25 233.86 91.237 233.822 91.1954C233.782 91.1529 233.75 91.0856 233.75 91V83.75H246.25Z" fill="#767676"/>
<path d="M240 89V86" stroke="#767676" stroke-width="1.5" stroke-linecap="round" stroke-linejoin="round"/>
<path d="M241 89H239" stroke="#767676" stroke-width="1.5" stroke-linecap="round" stroke-linejoin="round"/>
<path d="M240 86H239" stroke="#767676" stroke-width="1.5" stroke-linecap="round" stroke-linejoin="round"/>
<path fill-rule="evenodd" clip-rule="evenodd" d="M51.8808 92.4126C51.3224 92.7005 50.6699 92.2355 50.7765 91.6256L51.5632 87.1262L48.2307 83.9397C47.779 83.5078 48.0282 82.7553 48.6525 82.6663L53.2579 82.0098L55.3175 77.9162C55.5967 77.3613 56.4033 77.3613 56.6825 77.9162L58.7421 82.0098L63.3475 82.6663C63.9718 82.7553 64.221 83.5078 63.7693 83.9397L60.4368 87.1262L61.2235 91.6256C61.3301 92.2355 60.6776 92.7005 60.1192 92.4126L56 90.2883L51.8808 92.4126ZM56 88.6005L59.4862 90.3984L58.8213 86.5956L61.6057 83.9332L57.7544 83.3842L56 79.8971L54.2456 83.3842L50.3943 83.9332L53.1787 86.5956L52.5138 90.3984L56 88.6005Z" fill="#767676"/>
</svg>
