<svg width="344" height="320" viewBox="0 0 344 320" fill="none" xmlns="http://www.w3.org/2000/svg">
<rect width="344" height="320" fill="#F5F5F5"/>
<path d="M66.304 153.896C66.368 153.725 66.4907 153.64 66.672 153.64H67.92C68.1333 153.64 68.24 153.747 68.24 153.96V164.68C68.24 164.893 68.1333 165 67.92 165H67.456C67.2427 165 67.136 164.893 67.136 164.68V159.368C67.136 158.227 67.1467 156.579 67.168 154.424C66.7307 155.672 66.1333 157.32 65.376 159.368L63.408 164.744C63.344 164.915 63.2213 165 63.04 165H62.576C62.3947 165 62.272 164.915 62.208 164.744L60.192 159.352C59.7653 158.243 59.1733 156.6 58.416 154.424C58.4373 156.579 58.448 158.232 58.448 159.384V164.68C58.448 164.893 58.3413 165 58.128 165H57.696C57.4827 165 57.376 164.893 57.376 164.68V153.96C57.376 153.747 57.4827 153.64 57.696 153.64H58.928C59.1093 153.64 59.232 153.725 59.296 153.896L61.12 158.808C61.9627 161.101 62.528 162.717 62.816 163.656C63.0827 162.76 63.5413 161.421 64.192 159.64C64.2347 159.523 64.2827 159.395 64.336 159.256C64.3893 159.117 64.4427 158.968 64.496 158.808L66.304 153.896ZM75.5331 157.368C75.5971 157.197 75.7198 157.112 75.9011 157.112H76.3331C76.4185 157.112 76.4878 157.133 76.5411 157.176C76.5945 157.219 76.6211 157.277 76.6211 157.352L76.5891 157.48L73.5011 166.2C73.3305 166.68 73.1651 167.053 73.0051 167.32C72.8451 167.587 72.6265 167.789 72.3491 167.928C72.0825 168.067 71.7305 168.136 71.2931 168.136C71.0158 168.136 70.7705 168.115 70.5571 168.072C70.4505 168.061 70.3758 168.019 70.3331 167.944C70.3011 167.869 70.2958 167.784 70.3171 167.688L70.3651 167.48C70.4078 167.288 70.5305 167.203 70.7331 167.224C70.9251 167.256 71.0905 167.272 71.2291 167.272C71.5705 167.272 71.8371 167.176 72.0291 166.984C72.2318 166.792 72.4238 166.429 72.6051 165.896L72.7491 165.448L69.9331 157.48L69.9011 157.352C69.9011 157.277 69.9278 157.219 69.9811 157.176C70.0345 157.133 70.1038 157.112 70.1891 157.112H70.6531C70.8238 157.112 70.9411 157.197 71.0051 157.368L71.9011 160.008C71.9865 160.275 72.1998 160.909 72.5411 161.912L73.2611 164.072C73.6131 163.08 74.0771 161.715 74.6531 159.976L75.5331 157.368ZM82.2585 165C82.0452 165 81.9385 164.893 81.9385 164.68V153.96C81.9385 153.747 82.0452 153.64 82.2585 153.64H88.9785C89.1918 153.64 89.2985 153.747 89.2985 153.96V154.264C89.2985 154.477 89.1918 154.584 88.9785 154.584H83.0745V158.904H88.4825C88.6958 158.904 88.8025 159.011 88.8025 159.224V159.528C88.8025 159.741 88.6958 159.848 88.4825 159.848H83.0745V164.68C83.0745 164.893 82.9678 165 82.7545 165H82.2585ZM91.7611 165C91.5478 165 91.4411 164.893 91.4411 164.68V153.96C91.4411 153.747 91.5478 153.64 91.7611 153.64H92.2571C92.4705 153.64 92.5771 153.747 92.5771 153.96V164.68C92.5771 164.893 92.4705 165 92.2571 165H91.7611ZM103.199 153.96C103.199 153.747 103.305 153.64 103.519 153.64H103.983C104.196 153.64 104.303 153.747 104.303 153.96V164.68C104.303 164.893 104.196 165 103.983 165H103.263C103.092 165 102.959 164.931 102.863 164.792L99.4225 159.576L99.2305 159.272C97.9505 157.352 97.0332 155.939 96.4785 155.032C96.5212 156.28 96.5425 157.72 96.5425 159.352V164.68C96.5425 164.893 96.4358 165 96.2225 165H95.7585C95.5452 165 95.4385 164.893 95.4385 164.68V153.96C95.4385 153.747 95.5452 153.64 95.7585 153.64H96.4785C96.6492 153.64 96.7825 153.709 96.8785 153.848L100.303 159.048L100.911 159.992C101.988 161.624 102.772 162.84 103.263 163.64C103.22 162.371 103.199 160.925 103.199 159.304V153.96ZM114.808 153.96C114.808 153.747 114.915 153.64 115.128 153.64H115.592C115.805 153.64 115.912 153.747 115.912 153.96V164.68C115.912 164.893 115.805 165 115.592 165H114.872C114.701 165 114.568 164.931 114.472 164.792L111.032 159.576L110.84 159.272C109.56 157.352 108.643 155.939 108.088 155.032C108.131 156.28 108.152 157.72 108.152 159.352V164.68C108.152 164.893 108.045 165 107.832 165H107.368C107.155 165 107.048 164.893 107.048 164.68V153.96C107.048 153.747 107.155 153.64 107.368 153.64H108.088C108.259 153.64 108.392 153.709 108.488 153.848L111.912 159.048L112.52 159.992C113.597 161.624 114.381 162.84 114.872 163.64C114.829 162.371 114.808 160.925 114.808 159.304V153.96Z" fill="#0063FB"/>
<path d="M124.816 165C124.624 165 124.528 164.925 124.528 164.776C124.528 164.744 124.539 164.696 124.56 164.632L129.248 153.88C129.312 153.72 129.44 153.64 129.632 153.64H129.968C130.16 153.64 130.256 153.715 130.256 153.864C130.256 153.896 130.245 153.944 130.224 154.008L125.536 164.76C125.472 164.92 125.344 165 125.152 165H124.816Z" fill="#767676"/>
<path d="M138.696 165C138.483 165 138.376 164.893 138.376 164.68V153.96C138.376 153.747 138.483 153.64 138.696 153.64H145.416C145.629 153.64 145.736 153.747 145.736 153.96V154.264C145.736 154.477 145.629 154.584 145.416 154.584H139.512V158.904H144.92C145.133 158.904 145.24 159.011 145.24 159.224V159.528C145.24 159.741 145.133 159.848 144.92 159.848H139.512V164.68C139.512 164.893 139.405 165 139.192 165H138.696ZM150.177 156.92C151.148 156.92 151.905 157.155 152.449 157.624C152.993 158.083 153.265 158.691 153.265 159.448V164.68C153.265 164.893 153.158 165 152.945 165H152.625C152.412 165 152.305 164.893 152.305 164.68V163.96C152.038 164.387 151.66 164.707 151.169 164.92C150.689 165.133 150.15 165.24 149.553 165.24C148.721 165.24 148.044 165.064 147.521 164.712C146.998 164.36 146.737 163.816 146.737 163.08C146.737 162.493 146.902 162.024 147.233 161.672C147.564 161.309 147.996 161.037 148.529 160.856C149.062 160.664 149.729 160.493 150.529 160.344L152.257 160.04V159.528C152.257 158.984 152.07 158.563 151.697 158.264C151.324 157.955 150.833 157.8 150.225 157.8C149.766 157.8 149.35 157.885 148.977 158.056C148.604 158.227 148.204 158.52 147.777 158.936C147.702 159.011 147.622 159.048 147.537 159.048C147.462 159.048 147.393 159.016 147.329 158.952L147.121 158.76C147.046 158.685 147.009 158.605 147.009 158.52C147.009 158.424 147.046 158.339 147.121 158.264C147.569 157.795 148.038 157.453 148.529 157.24C149.03 157.027 149.58 156.92 150.177 156.92ZM149.601 164.36C150.369 164.36 151.004 164.157 151.505 163.752C152.006 163.347 152.257 162.829 152.257 162.2V160.856L150.769 161.144C150.076 161.283 149.526 161.416 149.121 161.544C148.716 161.672 148.39 161.859 148.145 162.104C147.9 162.349 147.777 162.669 147.777 163.064C147.777 163.469 147.937 163.789 148.257 164.024C148.588 164.248 149.036 164.36 149.601 164.36ZM160.298 157.368C160.362 157.197 160.485 157.112 160.666 157.112H161.082C161.167 157.112 161.237 157.133 161.29 157.176C161.343 157.219 161.37 157.277 161.37 157.352L161.338 157.48L158.794 164.744C158.73 164.915 158.607 165 158.426 165H157.578C157.397 165 157.274 164.915 157.21 164.744L154.682 157.48L154.65 157.352C154.65 157.277 154.677 157.219 154.73 157.176C154.783 157.133 154.853 157.112 154.938 157.112H155.37C155.551 157.112 155.674 157.197 155.738 157.368L156.714 160.184C157.119 161.357 157.551 162.707 158.01 164.232C158.031 164.168 158.09 163.987 158.186 163.688C158.623 162.248 159.002 161.08 159.322 160.184L160.298 157.368ZM166.104 165.208C165.368 165.208 164.712 165.032 164.136 164.68C163.56 164.328 163.112 163.843 162.792 163.224C162.472 162.595 162.312 161.875 162.312 161.064C162.312 160.253 162.472 159.539 162.792 158.92C163.112 158.291 163.56 157.8 164.136 157.448C164.712 157.096 165.368 156.92 166.104 156.92C166.84 156.92 167.496 157.096 168.072 157.448C168.648 157.8 169.096 158.291 169.416 158.92C169.736 159.539 169.896 160.253 169.896 161.064C169.896 161.875 169.736 162.595 169.416 163.224C169.096 163.843 168.648 164.328 168.072 164.68C167.496 165.032 166.84 165.208 166.104 165.208ZM166.104 164.328C166.926 164.328 167.582 164.029 168.072 163.432C168.563 162.824 168.808 162.035 168.808 161.064C168.808 160.093 168.563 159.309 168.072 158.712C167.582 158.104 166.926 157.8 166.104 157.8C165.283 157.8 164.627 158.104 164.136 158.712C163.646 159.309 163.4 160.093 163.4 161.064C163.4 162.035 163.646 162.824 164.136 163.432C164.627 164.029 165.283 164.328 166.104 164.328ZM176.851 157.432C176.851 157.219 176.958 157.112 177.171 157.112H177.587C177.8 157.112 177.907 157.219 177.907 157.432V164.68C177.907 164.893 177.8 165 177.587 165H177.251C177.038 165 176.931 164.893 176.931 164.68V163.96C176.696 164.376 176.36 164.691 175.923 164.904C175.496 165.107 175.027 165.208 174.515 165.208C173.555 165.208 172.846 164.968 172.387 164.488C171.928 163.997 171.699 163.368 171.699 162.6V157.432C171.699 157.219 171.806 157.112 172.019 157.112H172.435C172.648 157.112 172.755 157.219 172.755 157.432V162.376C172.755 163.005 172.91 163.485 173.219 163.816C173.539 164.136 173.992 164.296 174.579 164.296C175.24 164.296 175.784 164.093 176.211 163.688C176.638 163.283 176.851 162.707 176.851 161.96V157.432ZM183.222 157.048C183.488 157.048 183.803 157.091 184.166 157.176C184.358 157.24 184.432 157.373 184.39 157.576L184.326 157.832C184.272 158.035 184.139 158.109 183.926 158.056C183.67 157.992 183.435 157.96 183.222 157.96C182.678 157.96 182.224 158.195 181.862 158.664C181.51 159.133 181.334 159.784 181.334 160.616V164.68C181.334 164.893 181.227 165 181.014 165H180.598C180.384 165 180.278 164.893 180.278 164.68V157.432C180.278 157.219 180.384 157.112 180.598 157.112H180.95C181.163 157.112 181.27 157.219 181.27 157.432V158.312C181.451 157.917 181.707 157.608 182.038 157.384C182.379 157.16 182.774 157.048 183.222 157.048ZM186.353 155.112C186.139 155.112 185.958 155.037 185.809 154.888C185.67 154.739 185.601 154.557 185.601 154.344C185.601 154.131 185.67 153.955 185.809 153.816C185.958 153.677 186.139 153.608 186.353 153.608C186.577 153.608 186.758 153.677 186.897 153.816C187.046 153.955 187.121 154.131 187.121 154.344C187.121 154.557 187.046 154.739 186.897 154.888C186.758 155.037 186.577 155.112 186.353 155.112ZM186.145 165C185.931 165 185.825 164.893 185.825 164.68V157.432C185.825 157.219 185.931 157.112 186.145 157.112H186.561C186.774 157.112 186.881 157.219 186.881 157.432V164.68C186.881 164.893 186.774 165 186.561 165H186.145ZM192.783 164.12C192.815 164.109 192.858 164.104 192.911 164.104C192.975 164.104 193.034 164.125 193.087 164.168C193.14 164.211 193.172 164.269 193.183 164.344L193.231 164.568C193.242 164.589 193.247 164.627 193.247 164.68C193.247 164.829 193.167 164.92 193.007 164.952C192.623 165.069 192.212 165.128 191.775 165.128C191.082 165.128 190.586 164.973 190.287 164.664C189.999 164.344 189.855 163.885 189.855 163.288V157.912H188.671C188.458 157.912 188.351 157.805 188.351 157.592V157.432C188.351 157.219 188.458 157.112 188.671 157.112H189.855V154.68C189.855 154.467 189.962 154.36 190.175 154.36H190.591C190.804 154.36 190.911 154.467 190.911 154.68V157.112H192.831C193.044 157.112 193.151 157.219 193.151 157.432V157.592C193.151 157.805 193.044 157.912 192.831 157.912H190.911V163.16C190.911 163.555 190.986 163.832 191.135 163.992C191.284 164.152 191.54 164.232 191.903 164.232C192.159 164.232 192.452 164.195 192.783 164.12ZM200.209 163.128C200.284 163.053 200.364 163.016 200.449 163.016C200.524 163.016 200.593 163.048 200.657 163.112L200.865 163.304C200.94 163.379 200.977 163.459 200.977 163.544C200.977 163.608 200.945 163.683 200.881 163.768C200.359 164.291 199.852 164.664 199.361 164.888C198.871 165.101 198.321 165.208 197.713 165.208C196.945 165.208 196.279 165.037 195.713 164.696C195.148 164.355 194.711 163.88 194.401 163.272C194.092 162.653 193.937 161.939 193.937 161.128C193.937 160.307 194.087 159.581 194.385 158.952C194.695 158.312 195.127 157.816 195.681 157.464C196.236 157.101 196.876 156.92 197.601 156.92C198.679 156.92 199.527 157.256 200.145 157.928C200.764 158.6 201.073 159.507 201.073 160.648V160.84C201.063 160.936 201.025 161.011 200.961 161.064C200.908 161.117 200.833 161.144 200.737 161.144H195.009C195.041 162.04 195.276 162.797 195.713 163.416C196.161 164.024 196.828 164.328 197.713 164.328C198.193 164.328 198.615 164.243 198.977 164.072C199.351 163.891 199.761 163.576 200.209 163.128ZM197.601 157.8C196.897 157.8 196.316 158.019 195.857 158.456C195.409 158.883 195.137 159.512 195.041 160.344H200.017C199.996 159.565 199.772 158.947 199.345 158.488C198.919 158.029 198.337 157.8 197.601 157.8ZM205.78 165.208C205.129 165.208 204.553 165.117 204.052 164.936C203.561 164.744 203.044 164.424 202.5 163.976C202.404 163.912 202.356 163.837 202.356 163.752C202.356 163.677 202.393 163.603 202.468 163.528L202.676 163.304C202.74 163.219 202.82 163.176 202.916 163.176C202.99 163.176 203.06 163.208 203.124 163.272C203.636 163.667 204.089 163.944 204.484 164.104C204.878 164.253 205.31 164.328 205.78 164.328C206.366 164.328 206.846 164.2 207.22 163.944C207.593 163.677 207.78 163.32 207.78 162.872C207.78 162.424 207.588 162.093 207.204 161.88C206.82 161.667 206.228 161.475 205.428 161.304C204.724 161.155 204.169 161 203.764 160.84C203.369 160.669 203.076 160.456 202.884 160.2C202.692 159.944 202.596 159.608 202.596 159.192C202.596 158.509 202.873 157.96 203.428 157.544C203.982 157.128 204.681 156.92 205.524 156.92C206.1 156.92 206.612 156.995 207.06 157.144C207.518 157.283 207.977 157.517 208.436 157.848C208.532 157.923 208.58 158.003 208.58 158.088C208.58 158.141 208.553 158.211 208.5 158.296L208.308 158.536C208.254 158.621 208.18 158.664 208.084 158.664C207.998 158.664 207.924 158.637 207.86 158.584C207.422 158.275 207.033 158.067 206.692 157.96C206.361 157.853 205.982 157.8 205.556 157.8C204.969 157.8 204.5 157.928 204.148 158.184C203.796 158.44 203.62 158.765 203.62 159.16C203.62 159.405 203.7 159.603 203.86 159.752C204.02 159.901 204.249 160.029 204.548 160.136C204.846 160.232 205.284 160.344 205.86 160.472C206.926 160.707 207.684 160.995 208.132 161.336C208.59 161.677 208.82 162.173 208.82 162.824C208.82 163.539 208.537 164.115 207.972 164.552C207.406 164.989 206.676 165.208 205.78 165.208Z" fill="#0063FB"/>
<path d="M216.816 165C216.624 165 216.528 164.925 216.528 164.776C216.528 164.744 216.539 164.696 216.56 164.632L221.248 153.88C221.312 153.72 221.44 153.64 221.632 153.64H221.968C222.16 153.64 222.256 153.715 222.256 153.864C222.256 153.896 222.245 153.944 222.224 154.008L217.536 164.76C217.472 164.92 217.344 165 217.152 165H216.816Z" fill="#767676"/>
<path d="M239.304 153.896C239.368 153.725 239.491 153.64 239.672 153.64H240.92C241.133 153.64 241.24 153.747 241.24 153.96V164.68C241.24 164.893 241.133 165 240.92 165H240.456C240.243 165 240.136 164.893 240.136 164.68V159.368C240.136 158.227 240.147 156.579 240.168 154.424C239.731 155.672 239.133 157.32 238.376 159.368L236.408 164.744C236.344 164.915 236.221 165 236.04 165H235.576C235.395 165 235.272 164.915 235.208 164.744L233.192 159.352C232.765 158.243 232.173 156.6 231.416 154.424C231.437 156.579 231.448 158.232 231.448 159.384V164.68C231.448 164.893 231.341 165 231.128 165H230.696C230.483 165 230.376 164.893 230.376 164.68V153.96C230.376 153.747 230.483 153.64 230.696 153.64H231.928C232.109 153.64 232.232 153.725 232.296 153.896L234.12 158.808C234.963 161.101 235.528 162.717 235.816 163.656C236.083 162.76 236.541 161.421 237.192 159.64C237.235 159.523 237.283 159.395 237.336 159.256C237.389 159.117 237.443 158.968 237.496 158.808L239.304 153.896ZM248.533 157.368C248.597 157.197 248.72 157.112 248.901 157.112H249.333C249.418 157.112 249.488 157.133 249.541 157.176C249.594 157.219 249.621 157.277 249.621 157.352L249.589 157.48L246.501 166.2C246.33 166.68 246.165 167.053 246.005 167.32C245.845 167.587 245.626 167.789 245.349 167.928C245.082 168.067 244.73 168.136 244.293 168.136C244.016 168.136 243.77 168.115 243.557 168.072C243.45 168.061 243.376 168.019 243.333 167.944C243.301 167.869 243.296 167.784 243.317 167.688L243.365 167.48C243.408 167.288 243.53 167.203 243.733 167.224C243.925 167.256 244.09 167.272 244.229 167.272C244.57 167.272 244.837 167.176 245.029 166.984C245.232 166.792 245.424 166.429 245.605 165.896L245.749 165.448L242.933 157.48L242.901 157.352C242.901 157.277 242.928 157.219 242.981 157.176C243.034 157.133 243.104 157.112 243.189 157.112H243.653C243.824 157.112 243.941 157.197 244.005 157.368L244.901 160.008C244.986 160.275 245.2 160.909 245.541 161.912L246.261 164.072C246.613 163.08 247.077 161.715 247.653 159.976L248.533 157.368ZM257.755 154.328C257.275 154.328 256.933 154.456 256.731 154.712C256.528 154.957 256.427 155.373 256.427 155.96V157.112H258.187C258.4 157.112 258.507 157.219 258.507 157.432V157.592C258.507 157.805 258.4 157.912 258.187 157.912H256.427V164.68C256.427 164.893 256.32 165 256.107 165H255.691C255.477 165 255.371 164.893 255.371 164.68V157.912H254.187C253.973 157.912 253.867 157.805 253.867 157.592V157.432C253.867 157.219 253.973 157.112 254.187 157.112H255.371V155.784C255.371 155.048 255.563 154.472 255.947 154.056C256.341 153.64 256.901 153.432 257.627 153.432C258.032 153.432 258.448 153.491 258.875 153.608C259.077 153.672 259.152 153.805 259.099 154.008L259.035 154.232C258.981 154.381 258.875 154.456 258.715 154.456C258.683 154.456 258.613 154.445 258.507 154.424C258.272 154.36 258.021 154.328 257.755 154.328ZM260.587 155.112C260.374 155.112 260.192 155.037 260.043 154.888C259.904 154.739 259.835 154.557 259.835 154.344C259.835 154.131 259.904 153.955 260.043 153.816C260.192 153.677 260.374 153.608 260.587 153.608C260.811 153.608 260.992 153.677 261.131 153.816C261.28 153.955 261.355 154.131 261.355 154.344C261.355 154.557 261.28 154.739 261.131 154.888C260.992 155.037 260.811 155.112 260.587 155.112ZM260.379 165C260.166 165 260.059 164.893 260.059 164.68V157.432C260.059 157.219 260.166 157.112 260.379 157.112H260.795C261.008 157.112 261.115 157.219 261.115 157.432V164.68C261.115 164.893 261.008 165 260.795 165H260.379ZM266.985 156.92C267.913 156.92 268.612 157.176 269.081 157.688C269.561 158.2 269.801 158.84 269.801 159.608V164.68C269.801 164.893 269.695 165 269.481 165H269.065C268.852 165 268.745 164.893 268.745 164.68V159.96C268.745 159.256 268.575 158.723 268.233 158.36C267.892 157.997 267.401 157.816 266.761 157.816C266.356 157.816 265.983 157.917 265.641 158.12C265.3 158.312 265.028 158.579 264.825 158.92C264.623 159.261 264.521 159.635 264.521 160.04V164.68C264.521 164.893 264.415 165 264.201 165H263.785C263.572 165 263.465 164.893 263.465 164.68V157.432C263.465 157.219 263.572 157.112 263.785 157.112H264.137C264.351 157.112 264.457 157.219 264.457 157.432V158.2C264.724 157.773 265.076 157.453 265.513 157.24C265.951 157.027 266.441 156.92 266.985 156.92ZM277.833 153.96C277.833 153.747 277.94 153.64 278.153 153.64H278.569C278.782 153.64 278.889 153.747 278.889 153.96V164.68C278.889 164.893 278.782 165 278.569 165H278.233C278.02 165 277.913 164.893 277.913 164.68V163.64C277.625 164.141 277.246 164.525 276.777 164.792C276.308 165.059 275.753 165.192 275.113 165.192C274.441 165.192 273.844 165.021 273.321 164.68C272.798 164.328 272.388 163.843 272.089 163.224C271.79 162.595 271.641 161.875 271.641 161.064C271.641 160.253 271.79 159.539 272.089 158.92C272.398 158.291 272.82 157.805 273.353 157.464C273.886 157.112 274.484 156.936 275.145 156.936C276.361 156.936 277.257 157.389 277.833 158.296V153.96ZM275.193 164.296C275.993 164.296 276.638 164.013 277.129 163.448C277.63 162.872 277.881 162.077 277.881 161.064C277.881 160.061 277.63 159.272 277.129 158.696C276.638 158.12 275.993 157.832 275.193 157.832C274.457 157.832 273.86 158.131 273.401 158.728C272.953 159.325 272.729 160.104 272.729 161.064C272.729 162.035 272.953 162.819 273.401 163.416C273.849 164.003 274.446 164.296 275.193 164.296ZM284.014 165.208C283.363 165.208 282.787 165.117 282.286 164.936C281.795 164.744 281.278 164.424 280.734 163.976C280.638 163.912 280.59 163.837 280.59 163.752C280.59 163.677 280.627 163.603 280.702 163.528L280.91 163.304C280.974 163.219 281.054 163.176 281.15 163.176C281.225 163.176 281.294 163.208 281.358 163.272C281.87 163.667 282.323 163.944 282.718 164.104C283.113 164.253 283.545 164.328 284.014 164.328C284.601 164.328 285.081 164.2 285.454 163.944C285.827 163.677 286.014 163.32 286.014 162.872C286.014 162.424 285.822 162.093 285.438 161.88C285.054 161.667 284.462 161.475 283.662 161.304C282.958 161.155 282.403 161 281.998 160.84C281.603 160.669 281.31 160.456 281.118 160.2C280.926 159.944 280.83 159.608 280.83 159.192C280.83 158.509 281.107 157.96 281.662 157.544C282.217 157.128 282.915 156.92 283.758 156.92C284.334 156.92 284.846 156.995 285.294 157.144C285.753 157.283 286.211 157.517 286.67 157.848C286.766 157.923 286.814 158.003 286.814 158.088C286.814 158.141 286.787 158.211 286.734 158.296L286.542 158.536C286.489 158.621 286.414 158.664 286.318 158.664C286.233 158.664 286.158 158.637 286.094 158.584C285.657 158.275 285.267 158.067 284.926 157.96C284.595 157.853 284.217 157.8 283.79 157.8C283.203 157.8 282.734 157.928 282.382 158.184C282.03 158.44 281.854 158.765 281.854 159.16C281.854 159.405 281.934 159.603 282.094 159.752C282.254 159.901 282.483 160.029 282.782 160.136C283.081 160.232 283.518 160.344 284.094 160.472C285.161 160.707 285.918 160.995 286.366 161.336C286.825 161.677 287.054 162.173 287.054 162.824C287.054 163.539 286.771 164.115 286.206 164.552C285.641 164.989 284.91 165.208 284.014 165.208Z" fill="#464646"/>
</svg>
