<svg width="344" height="168" viewBox="0 0 344 168" fill="none" xmlns="http://www.w3.org/2000/svg">
<rect width="344" height="168" fill="#F5F5F5"/>
<path d="M42.696 89C42.4827 89 42.376 88.8933 42.376 88.68V77.96C42.376 77.7467 42.4827 77.64 42.696 77.64H43.192C43.4053 77.64 43.512 77.7467 43.512 77.96V82.664H50.072V77.96C50.072 77.7467 50.1787 77.64 50.392 77.64H50.888C51.1013 77.64 51.208 77.7467 51.208 77.96V88.68C51.208 88.8933 51.1013 89 50.888 89H50.392C50.1787 89 50.072 88.8933 50.072 88.68V83.608H43.512V88.68C43.512 88.8933 43.4053 89 43.192 89H42.696ZM57.0261 89.208C56.2901 89.208 55.6341 89.032 55.0581 88.68C54.4821 88.328 54.0341 87.8427 53.7141 87.224C53.3941 86.5947 53.2341 85.8747 53.2341 85.064C53.2341 84.2533 53.3941 83.5387 53.7141 82.92C54.0341 82.2907 54.4821 81.8 55.0581 81.448C55.6341 81.096 56.2901 80.92 57.0261 80.92C57.7621 80.92 58.4181 81.096 58.9941 81.448C59.5701 81.8 60.0181 82.2907 60.3381 82.92C60.6581 83.5387 60.8181 84.2533 60.8181 85.064C60.8181 85.8747 60.6581 86.5947 60.3381 87.224C60.0181 87.8427 59.5701 88.328 58.9941 88.68C58.4181 89.032 57.7621 89.208 57.0261 89.208ZM57.0261 88.328C57.8475 88.328 58.5035 88.0293 58.9941 87.432C59.4848 86.824 59.7301 86.0347 59.7301 85.064C59.7301 84.0933 59.4848 83.3093 58.9941 82.712C58.5035 82.104 57.8475 81.8 57.0261 81.8C56.2048 81.8 55.5488 82.104 55.0581 82.712C54.5675 83.3093 54.3221 84.0933 54.3221 85.064C54.3221 86.0347 54.5675 86.824 55.0581 87.432C55.5488 88.0293 56.2048 88.328 57.0261 88.328ZM70.6688 80.92C71.5221 80.92 72.1728 81.1653 72.6208 81.656C73.0794 82.136 73.3088 82.7547 73.3088 83.512V88.68C73.3088 88.8933 73.2021 89 72.9888 89H72.5728C72.3594 89 72.2528 88.8933 72.2528 88.68V83.8C72.2528 83.16 72.1034 82.6693 71.8048 82.328C71.5168 81.9867 71.0848 81.816 70.5087 81.816C69.9008 81.816 69.4154 82.0187 69.0528 82.424C68.6901 82.8293 68.5088 83.352 68.5088 83.992V88.68C68.5088 88.8933 68.4021 89 68.1888 89H67.7728C67.5594 89 67.4528 88.8933 67.4528 88.68V83.8C67.4528 83.16 67.3034 82.6693 67.0048 82.328C66.7168 81.9867 66.2794 81.816 65.6927 81.816C65.1488 81.816 64.6954 81.9867 64.3328 82.328C63.9808 82.6693 63.7728 83.1173 63.7088 83.672V88.68C63.7088 88.8933 63.6021 89 63.3888 89H62.9728C62.7594 89 62.6528 88.8933 62.6528 88.68V81.432C62.6528 81.2187 62.7594 81.112 62.9728 81.112H63.3248C63.5381 81.112 63.6448 81.2187 63.6448 81.432V82.088C64.1248 81.3093 64.8874 80.92 65.9328 80.92C66.4768 80.92 66.9408 81.0427 67.3248 81.288C67.7194 81.5227 68.0128 81.8427 68.2048 82.248C68.7701 81.3627 69.5914 80.92 70.6688 80.92ZM81.3811 87.128C81.4558 87.0533 81.5358 87.016 81.6211 87.016C81.6958 87.016 81.7651 87.048 81.8291 87.112L82.0371 87.304C82.1118 87.3787 82.1491 87.4587 82.1491 87.544C82.1491 87.608 82.1171 87.6827 82.0531 87.768C81.5305 88.2907 81.0238 88.664 80.5331 88.888C80.0425 89.1013 79.4931 89.208 78.8851 89.208C78.1171 89.208 77.4505 89.0373 76.8851 88.696C76.3198 88.3547 75.8825 87.88 75.5731 87.272C75.2638 86.6533 75.1091 85.9387 75.1091 85.128C75.1091 84.3067 75.2585 83.5813 75.5571 82.952C75.8665 82.312 76.2985 81.816 76.8531 81.464C77.4078 81.1013 78.0478 80.92 78.7731 80.92C79.8505 80.92 80.6985 81.256 81.3171 81.928C81.9358 82.6 82.2451 83.5067 82.2451 84.648V84.84C82.2345 84.936 82.1971 85.0107 82.1331 85.064C82.0798 85.1173 82.0051 85.144 81.9091 85.144H76.1811C76.2131 86.04 76.4478 86.7973 76.8851 87.416C77.3331 88.024 77.9998 88.328 78.8851 88.328C79.3651 88.328 79.7865 88.2427 80.1491 88.072C80.5225 87.8907 80.9331 87.576 81.3811 87.128ZM78.7731 81.8C78.0691 81.8 77.4878 82.0187 77.0291 82.456C76.5811 82.8827 76.3091 83.512 76.2131 84.344H81.1891C81.1678 83.5653 80.9438 82.9467 80.5171 82.488C80.0905 82.0293 79.5091 81.8 78.7731 81.8Z" fill="#0063FB"/>
<path d="M89.816 89C89.624 89 89.528 88.9253 89.528 88.776C89.528 88.744 89.5387 88.696 89.56 88.632L94.248 77.88C94.312 77.72 94.44 77.64 94.632 77.64H94.968C95.16 77.64 95.256 77.7147 95.256 77.864C95.256 77.896 95.2453 77.944 95.224 78.008L90.536 88.76C90.472 88.92 90.344 89 90.152 89H89.816Z" fill="#767676"/>
<path d="M106.496 89C106.283 89 106.176 88.8933 106.176 88.68V78.584H102.832C102.619 78.584 102.512 78.4773 102.512 78.264V77.96C102.512 77.7467 102.619 77.64 102.832 77.64H110.64C110.853 77.64 110.96 77.7467 110.96 77.96V78.264C110.96 78.4773 110.853 78.584 110.64 78.584H107.312V88.68C107.312 88.8933 107.205 89 106.992 89H106.496ZM114.316 81.048C114.582 81.048 114.897 81.0907 115.26 81.176C115.452 81.24 115.526 81.3733 115.484 81.576L115.42 81.832C115.366 82.0347 115.233 82.1093 115.02 82.056C114.764 81.992 114.529 81.96 114.316 81.96C113.772 81.96 113.318 82.1947 112.956 82.664C112.604 83.1333 112.428 83.784 112.428 84.616V88.68C112.428 88.8933 112.321 89 112.108 89H111.692C111.478 89 111.372 88.8933 111.372 88.68V81.432C111.372 81.2187 111.478 81.112 111.692 81.112H112.044C112.257 81.112 112.364 81.2187 112.364 81.432V82.312C112.545 81.9173 112.801 81.608 113.132 81.384C113.473 81.16 113.868 81.048 114.316 81.048ZM122.225 87.128C122.3 87.0533 122.38 87.016 122.465 87.016C122.54 87.016 122.609 87.048 122.673 87.112L122.881 87.304C122.956 87.3787 122.993 87.4587 122.993 87.544C122.993 87.608 122.961 87.6827 122.897 87.768C122.374 88.2907 121.868 88.664 121.377 88.888C120.886 89.1013 120.337 89.208 119.729 89.208C118.961 89.208 118.294 89.0373 117.729 88.696C117.164 88.3547 116.726 87.88 116.417 87.272C116.108 86.6533 115.953 85.9387 115.953 85.128C115.953 84.3067 116.102 83.5813 116.401 82.952C116.71 82.312 117.142 81.816 117.697 81.464C118.252 81.1013 118.892 80.92 119.617 80.92C120.694 80.92 121.542 81.256 122.161 81.928C122.78 82.6 123.089 83.5067 123.089 84.648V84.84C123.078 84.936 123.041 85.0107 122.977 85.064C122.924 85.1173 122.849 85.144 122.753 85.144H117.025C117.057 86.04 117.292 86.7973 117.729 87.416C118.177 88.024 118.844 88.328 119.729 88.328C120.209 88.328 120.63 88.2427 120.993 88.072C121.366 87.8907 121.777 87.576 122.225 87.128ZM119.617 81.8C118.913 81.8 118.332 82.0187 117.873 82.456C117.425 82.8827 117.153 83.512 117.057 84.344H122.033C122.012 83.5653 121.788 82.9467 121.361 82.488C120.934 82.0293 120.353 81.8 119.617 81.8ZM128.501 80.92C129.429 80.92 130.128 81.176 130.597 81.688C131.077 82.2 131.317 82.84 131.317 83.608V88.68C131.317 88.8933 131.21 89 130.997 89H130.581C130.368 89 130.261 88.8933 130.261 88.68V83.96C130.261 83.256 130.09 82.7227 129.749 82.36C129.408 81.9973 128.917 81.816 128.277 81.816C127.872 81.816 127.498 81.9173 127.157 82.12C126.816 82.312 126.544 82.5787 126.341 82.92C126.138 83.2613 126.037 83.6347 126.037 84.04V88.68C126.037 88.8933 125.93 89 125.717 89H125.301C125.088 89 124.981 88.8933 124.981 88.68V81.432C124.981 81.2187 125.088 81.112 125.301 81.112H125.653C125.866 81.112 125.973 81.2187 125.973 81.432V82.2C126.24 81.7733 126.592 81.4533 127.029 81.24C127.466 81.0267 127.957 80.92 128.501 80.92ZM139.349 77.96C139.349 77.7467 139.455 77.64 139.669 77.64H140.085C140.298 77.64 140.405 77.7467 140.405 77.96V88.68C140.405 88.8933 140.298 89 140.085 89H139.749C139.535 89 139.429 88.8933 139.429 88.68V87.64C139.141 88.1413 138.762 88.5253 138.293 88.792C137.823 89.0587 137.269 89.192 136.629 89.192C135.957 89.192 135.359 89.0213 134.837 88.68C134.314 88.328 133.903 87.8427 133.605 87.224C133.306 86.5947 133.157 85.8747 133.157 85.064C133.157 84.2533 133.306 83.5387 133.605 82.92C133.914 82.2907 134.335 81.8053 134.869 81.464C135.402 81.112 135.999 80.936 136.661 80.936C137.877 80.936 138.773 81.3893 139.349 82.296V77.96ZM136.709 88.296C137.509 88.296 138.154 88.0133 138.645 87.448C139.146 86.872 139.397 86.0773 139.397 85.064C139.397 84.0613 139.146 83.272 138.645 82.696C138.154 82.12 137.509 81.832 136.709 81.832C135.973 81.832 135.375 82.1307 134.917 82.728C134.469 83.3253 134.245 84.104 134.245 85.064C134.245 86.0347 134.469 86.8187 134.917 87.416C135.365 88.0027 135.962 88.296 136.709 88.296ZM145.53 89.208C144.879 89.208 144.303 89.1173 143.802 88.936C143.311 88.744 142.794 88.424 142.25 87.976C142.154 87.912 142.106 87.8373 142.106 87.752C142.106 87.6773 142.143 87.6027 142.218 87.528L142.426 87.304C142.49 87.2187 142.57 87.176 142.666 87.176C142.74 87.176 142.81 87.208 142.874 87.272C143.386 87.6667 143.839 87.944 144.234 88.104C144.628 88.2533 145.06 88.328 145.53 88.328C146.116 88.328 146.596 88.2 146.97 87.944C147.343 87.6773 147.53 87.32 147.53 86.872C147.53 86.424 147.338 86.0933 146.954 85.88C146.57 85.6667 145.978 85.4747 145.178 85.304C144.474 85.1547 143.919 85 143.514 84.84C143.119 84.6693 142.826 84.456 142.634 84.2C142.442 83.944 142.346 83.608 142.346 83.192C142.346 82.5093 142.623 81.96 143.178 81.544C143.732 81.128 144.431 80.92 145.274 80.92C145.85 80.92 146.362 80.9947 146.81 81.144C147.268 81.2827 147.727 81.5173 148.186 81.848C148.282 81.9227 148.33 82.0027 148.33 82.088C148.33 82.1413 148.303 82.2107 148.25 82.296L148.058 82.536C148.004 82.6213 147.93 82.664 147.834 82.664C147.748 82.664 147.674 82.6373 147.61 82.584C147.172 82.2747 146.783 82.0667 146.442 81.96C146.111 81.8533 145.732 81.8 145.306 81.8C144.719 81.8 144.25 81.928 143.898 82.184C143.546 82.44 143.37 82.7653 143.37 83.16C143.37 83.4053 143.45 83.6027 143.61 83.752C143.77 83.9013 143.999 84.0293 144.298 84.136C144.596 84.232 145.034 84.344 145.61 84.472C146.676 84.7067 147.434 84.9947 147.882 85.336C148.34 85.6773 148.57 86.1733 148.57 86.824C148.57 87.5387 148.287 88.1147 147.722 88.552C147.156 88.9893 146.426 89.208 145.53 89.208Z" fill="#0063FB"/>
<path d="M156.816 89C156.624 89 156.528 88.9253 156.528 88.776C156.528 88.744 156.539 88.696 156.56 88.632L161.248 77.88C161.312 77.72 161.44 77.64 161.632 77.64H161.968C162.16 77.64 162.256 77.7147 162.256 77.864C162.256 77.896 162.245 77.944 162.224 78.008L157.536 88.76C157.472 88.92 157.344 89 157.152 89H156.816Z" fill="#767676"/>
<path d="M179.304 77.896C179.368 77.7253 179.491 77.64 179.672 77.64H180.92C181.133 77.64 181.24 77.7467 181.24 77.96V88.68C181.24 88.8933 181.133 89 180.92 89H180.456C180.243 89 180.136 88.8933 180.136 88.68V83.368C180.136 82.2267 180.147 80.5787 180.168 78.424C179.731 79.672 179.133 81.32 178.376 83.368L176.408 88.744C176.344 88.9147 176.221 89 176.04 89H175.576C175.395 89 175.272 88.9147 175.208 88.744L173.192 83.352C172.765 82.2427 172.173 80.6 171.416 78.424C171.437 80.5787 171.448 82.232 171.448 83.384V88.68C171.448 88.8933 171.341 89 171.128 89H170.696C170.483 89 170.376 88.8933 170.376 88.68V77.96C170.376 77.7467 170.483 77.64 170.696 77.64H171.928C172.109 77.64 172.232 77.7253 172.296 77.896L174.12 82.808C174.963 85.1013 175.528 86.7173 175.816 87.656C176.083 86.76 176.541 85.4213 177.192 83.64C177.235 83.5227 177.283 83.3947 177.336 83.256C177.389 83.1173 177.443 82.968 177.496 82.808L179.304 77.896ZM186.833 80.92C187.804 80.92 188.561 81.1547 189.105 81.624C189.649 82.0827 189.921 82.6907 189.921 83.448V88.68C189.921 88.8933 189.815 89 189.601 89H189.281C189.068 89 188.961 88.8933 188.961 88.68V87.96C188.695 88.3867 188.316 88.7067 187.825 88.92C187.345 89.1333 186.807 89.24 186.209 89.24C185.377 89.24 184.7 89.064 184.177 88.712C183.655 88.36 183.393 87.816 183.393 87.08C183.393 86.4933 183.559 86.024 183.889 85.672C184.22 85.3093 184.652 85.0373 185.185 84.856C185.719 84.664 186.385 84.4933 187.185 84.344L188.913 84.04V83.528C188.913 82.984 188.727 82.5627 188.353 82.264C187.98 81.9547 187.489 81.8 186.881 81.8C186.423 81.8 186.007 81.8853 185.633 82.056C185.26 82.2267 184.86 82.52 184.433 82.936C184.359 83.0107 184.279 83.048 184.193 83.048C184.119 83.048 184.049 83.016 183.985 82.952L183.777 82.76C183.703 82.6853 183.665 82.6053 183.665 82.52C183.665 82.424 183.703 82.3387 183.777 82.264C184.225 81.7947 184.695 81.4533 185.185 81.24C185.687 81.0267 186.236 80.92 186.833 80.92ZM186.257 88.36C187.025 88.36 187.66 88.1573 188.161 87.752C188.663 87.3467 188.913 86.8293 188.913 86.2V84.856L187.425 85.144C186.732 85.2827 186.183 85.416 185.777 85.544C185.372 85.672 185.047 85.8587 184.801 86.104C184.556 86.3493 184.433 86.6693 184.433 87.064C184.433 87.4693 184.593 87.7893 184.913 88.024C185.244 88.248 185.692 88.36 186.257 88.36ZM195.206 81.048C195.473 81.048 195.787 81.0907 196.15 81.176C196.342 81.24 196.417 81.3733 196.374 81.576L196.31 81.832C196.257 82.0347 196.123 82.1093 195.91 82.056C195.654 81.992 195.419 81.96 195.206 81.96C194.662 81.96 194.209 82.1947 193.846 82.664C193.494 83.1333 193.318 83.784 193.318 84.616V88.68C193.318 88.8933 193.211 89 192.998 89H192.582C192.369 89 192.262 88.8933 192.262 88.68V81.432C192.262 81.2187 192.369 81.112 192.582 81.112H192.934C193.147 81.112 193.254 81.2187 193.254 81.432V82.312C193.435 81.9173 193.691 81.608 194.022 81.384C194.363 81.16 194.758 81.048 195.206 81.048ZM200.572 89.208C199.814 89.208 199.153 89.0373 198.588 88.696C198.033 88.344 197.601 87.8587 197.292 87.24C196.993 86.6107 196.844 85.8853 196.844 85.064C196.844 84.2533 196.993 83.5333 197.292 82.904C197.601 82.2747 198.033 81.7893 198.588 81.448C199.153 81.096 199.804 80.92 200.54 80.92C201.137 80.92 201.66 81.0213 202.108 81.224C202.556 81.416 202.988 81.736 203.404 82.184C203.468 82.248 203.5 82.3173 203.5 82.392C203.5 82.488 203.457 82.568 203.372 82.632L203.148 82.84C203.084 82.904 203.009 82.936 202.924 82.936C202.849 82.936 202.769 82.8933 202.684 82.808C202.31 82.4347 201.953 82.1733 201.612 82.024C201.281 81.8747 200.913 81.8 200.508 81.8C199.953 81.8 199.478 81.9547 199.084 82.264C198.7 82.5733 198.412 82.9787 198.22 83.48C198.028 83.9707 197.932 84.4987 197.932 85.064C197.932 85.6293 198.028 86.1627 198.22 86.664C198.412 87.1547 198.705 87.5547 199.1 87.864C199.494 88.1627 199.98 88.312 200.556 88.312C200.982 88.312 201.356 88.2373 201.676 88.088C202.006 87.928 202.374 87.6293 202.78 87.192C202.865 87.1067 202.945 87.064 203.02 87.064C203.105 87.064 203.18 87.096 203.244 87.16L203.468 87.336C203.542 87.4 203.58 87.4747 203.58 87.56C203.58 87.6453 203.532 87.7467 203.436 87.864C202.988 88.3547 202.54 88.7013 202.092 88.904C201.644 89.1067 201.137 89.208 200.572 89.208ZM208.813 80.92C209.731 80.92 210.429 81.1813 210.909 81.704C211.389 82.216 211.629 82.8507 211.629 83.608V88.68C211.629 88.8933 211.523 89 211.309 89H210.893C210.68 89 210.573 88.8933 210.573 88.68V83.96C210.573 83.256 210.403 82.7227 210.061 82.36C209.72 81.9973 209.229 81.816 208.589 81.816C208.184 81.816 207.811 81.9173 207.469 82.12C207.128 82.312 206.856 82.5787 206.653 82.92C206.451 83.2613 206.349 83.6347 206.349 84.04V88.68C206.349 88.8933 206.243 89 206.029 89H205.613C205.4 89 205.293 88.8933 205.293 88.68V77.96C205.293 77.7467 205.4 77.64 205.613 77.64H206.029C206.243 77.64 206.349 77.7467 206.349 77.96V82.136C206.605 81.7307 206.947 81.4267 207.373 81.224C207.811 81.0213 208.291 80.92 208.813 80.92ZM224.613 88.072C224.826 88.072 224.933 88.1787 224.933 88.392V88.68C224.933 88.8933 224.826 89 224.613 89H217.509C217.295 89 217.189 88.8933 217.189 88.68V88.616C217.189 87.8373 217.322 87.1813 217.589 86.648C217.866 86.104 218.223 85.6453 218.661 85.272C219.109 84.8987 219.722 84.472 220.501 83.992C220.575 83.9387 220.853 83.7733 221.333 83.496C221.898 83.176 222.341 82.8987 222.661 82.664C222.981 82.4293 223.247 82.1413 223.461 81.8C223.674 81.448 223.781 81.0373 223.781 80.568C223.781 79.8533 223.541 79.304 223.061 78.92C222.581 78.536 221.999 78.344 221.317 78.344C220.655 78.344 220.106 78.4827 219.669 78.76C219.231 79.0373 218.725 79.5173 218.149 80.2C218.074 80.296 217.983 80.344 217.877 80.344C217.823 80.344 217.759 80.3173 217.685 80.264L217.413 80.056C217.317 79.9707 217.269 79.8853 217.269 79.8C217.269 79.7467 217.295 79.6827 217.349 79.608C217.914 78.8933 218.501 78.3493 219.109 77.976C219.727 77.6027 220.453 77.416 221.285 77.416C221.978 77.416 222.597 77.5493 223.141 77.816C223.685 78.072 224.106 78.44 224.405 78.92C224.714 79.3893 224.869 79.9227 224.869 80.52C224.869 81.1493 224.735 81.6933 224.469 82.152C224.213 82.6 223.887 82.9733 223.493 83.272C223.098 83.56 222.565 83.9013 221.893 84.296L221.093 84.776C220.421 85.192 219.909 85.5333 219.557 85.8C219.205 86.056 218.911 86.3707 218.677 86.744C218.442 87.1067 218.303 87.5493 218.261 88.072H224.613ZM230.534 89.24C229.788 89.24 229.132 89.0587 228.566 88.696C228.012 88.3333 227.569 87.8267 227.238 87.176C226.716 86.1413 226.454 84.856 226.454 83.32C226.454 81.7733 226.716 80.4827 227.238 79.448C227.569 78.7973 228.012 78.296 228.566 77.944C229.132 77.5813 229.788 77.4 230.534 77.4C231.281 77.4 231.932 77.5813 232.486 77.944C233.052 78.296 233.5 78.7973 233.83 79.448C234.353 80.4827 234.614 81.7733 234.614 83.32C234.614 84.856 234.353 86.1413 233.83 87.176C233.5 87.8267 233.052 88.3333 232.486 88.696C231.932 89.0587 231.281 89.24 230.534 89.24ZM230.534 88.312C231.58 88.312 232.364 87.768 232.886 86.68C233.302 85.7947 233.51 84.6747 233.51 83.32C233.51 81.944 233.302 80.8187 232.886 79.944C232.374 78.8667 231.59 78.328 230.534 78.328C229.478 78.328 228.694 78.8667 228.182 79.944C227.766 80.8187 227.558 81.944 227.558 83.32C227.558 84.6853 227.766 85.8053 228.182 86.68C228.705 87.768 229.489 88.312 230.534 88.312ZM239.265 77.768C239.382 77.6827 239.516 77.64 239.665 77.64H239.921C240.134 77.64 240.241 77.7467 240.241 77.96V88.68C240.241 88.8933 240.134 89 239.921 89H239.489C239.276 89 239.169 88.8933 239.169 88.68V79.016L236.753 80.744C236.678 80.7973 236.609 80.824 236.545 80.824C236.449 80.824 236.369 80.776 236.305 80.68L236.145 80.44C236.102 80.3867 236.081 80.3227 236.081 80.248C236.081 80.152 236.129 80.0667 236.225 79.992L239.265 77.768ZM247.343 77.4C248.196 77.4 248.927 77.592 249.535 77.976C250.143 78.3493 250.602 78.8613 250.911 79.512C251.22 80.1627 251.375 80.8933 251.375 81.704C251.375 82.5573 251.226 83.352 250.927 84.088C250.628 84.824 250.228 85.5067 249.727 86.136C249.236 86.7653 248.618 87.4373 247.871 88.152L247.151 88.84C247.044 88.9467 246.916 89 246.767 89H246.127C245.946 89 245.855 88.9413 245.855 88.824C245.855 88.76 245.898 88.6853 245.983 88.6L246.991 87.672C248.612 86.1893 249.647 84.8507 250.095 83.656C249.786 84.0827 249.38 84.424 248.879 84.68C248.378 84.9253 247.807 85.048 247.167 85.048C246.388 85.048 245.711 84.8773 245.135 84.536C244.559 84.184 244.116 83.72 243.807 83.144C243.508 82.5573 243.359 81.9227 243.359 81.24C243.359 80.5573 243.519 79.9227 243.839 79.336C244.159 78.7493 244.618 78.28 245.215 77.928C245.823 77.576 246.532 77.4 247.343 77.4ZM247.247 84.12C247.855 84.12 248.383 83.992 248.831 83.736C249.29 83.48 249.636 83.1333 249.871 82.696C250.116 82.2587 250.239 81.768 250.239 81.224C250.239 80.68 250.122 80.1893 249.887 79.752C249.652 79.304 249.316 78.9573 248.879 78.712C248.442 78.456 247.93 78.328 247.343 78.328C246.458 78.328 245.754 78.6 245.231 79.144C244.719 79.688 244.463 80.3813 244.463 81.224C244.463 82.0667 244.708 82.76 245.199 83.304C245.69 83.848 246.372 84.12 247.247 84.12ZM264.856 89C264.675 89 264.552 88.9147 264.488 88.744L263.432 85.816H258.264L257.224 88.744C257.16 88.9147 257.038 89 256.856 89H256.36C256.275 89 256.206 88.9787 256.152 88.936C256.099 88.8933 256.072 88.8347 256.072 88.76L256.104 88.632L260.024 77.896C260.088 77.7253 260.211 77.64 260.392 77.64H261.32C261.502 77.64 261.624 77.7253 261.688 77.896L265.608 88.632L265.64 88.76C265.64 88.8347 265.614 88.8933 265.56 88.936C265.507 88.9787 265.438 89 265.352 89H264.856ZM263.08 84.856L262.52 83.288L262.392 82.952C262.243 82.5467 261.998 81.8693 261.656 80.92C261.326 79.9707 261.054 79.1653 260.84 78.504C260.552 79.4107 260.099 80.728 259.48 82.456C259.438 82.5733 259.39 82.7013 259.336 82.84C259.283 82.9787 259.23 83.128 259.176 83.288L258.616 84.856H263.08ZM269.999 89.208C269.348 89.208 268.772 89.1173 268.271 88.936C267.78 88.744 267.263 88.424 266.719 87.976C266.623 87.912 266.575 87.8373 266.575 87.752C266.575 87.6773 266.612 87.6027 266.687 87.528L266.895 87.304C266.959 87.2187 267.039 87.176 267.135 87.176C267.209 87.176 267.279 87.208 267.343 87.272C267.855 87.6667 268.308 87.944 268.703 88.104C269.097 88.2533 269.529 88.328 269.999 88.328C270.585 88.328 271.065 88.2 271.439 87.944C271.812 87.6773 271.999 87.32 271.999 86.872C271.999 86.424 271.807 86.0933 271.423 85.88C271.039 85.6667 270.447 85.4747 269.647 85.304C268.943 85.1547 268.388 85 267.983 84.84C267.588 84.6693 267.295 84.456 267.103 84.2C266.911 83.944 266.815 83.608 266.815 83.192C266.815 82.5093 267.092 81.96 267.647 81.544C268.201 81.128 268.9 80.92 269.743 80.92C270.319 80.92 270.831 80.9947 271.279 81.144C271.737 81.2827 272.196 81.5173 272.655 81.848C272.751 81.9227 272.799 82.0027 272.799 82.088C272.799 82.1413 272.772 82.2107 272.719 82.296L272.527 82.536C272.473 82.6213 272.399 82.664 272.303 82.664C272.217 82.664 272.143 82.6373 272.079 82.584C271.641 82.2747 271.252 82.0667 270.911 81.96C270.58 81.8533 270.201 81.8 269.775 81.8C269.188 81.8 268.719 81.928 268.367 82.184C268.015 82.44 267.839 82.7653 267.839 83.16C267.839 83.4053 267.919 83.6027 268.079 83.752C268.239 83.9013 268.468 84.0293 268.767 84.136C269.065 84.232 269.503 84.344 270.079 84.472C271.145 84.7067 271.903 84.9947 272.351 85.336C272.809 85.6773 273.039 86.1733 273.039 86.824C273.039 87.5387 272.756 88.1147 272.191 88.552C271.625 88.9893 270.895 89.208 269.999 89.208ZM277.577 89.208C276.926 89.208 276.35 89.1173 275.849 88.936C275.358 88.744 274.841 88.424 274.297 87.976C274.201 87.912 274.153 87.8373 274.153 87.752C274.153 87.6773 274.19 87.6027 274.265 87.528L274.473 87.304C274.537 87.2187 274.617 87.176 274.713 87.176C274.787 87.176 274.857 87.208 274.921 87.272C275.433 87.6667 275.886 87.944 276.281 88.104C276.675 88.2533 277.107 88.328 277.577 88.328C278.163 88.328 278.643 88.2 279.017 87.944C279.39 87.6773 279.577 87.32 279.577 86.872C279.577 86.424 279.385 86.0933 279.001 85.88C278.617 85.6667 278.025 85.4747 277.225 85.304C276.521 85.1547 275.966 85 275.561 84.84C275.166 84.6693 274.873 84.456 274.681 84.2C274.489 83.944 274.393 83.608 274.393 83.192C274.393 82.5093 274.67 81.96 275.225 81.544C275.779 81.128 276.478 80.92 277.321 80.92C277.897 80.92 278.409 80.9947 278.857 81.144C279.315 81.2827 279.774 81.5173 280.233 81.848C280.329 81.9227 280.377 82.0027 280.377 82.088C280.377 82.1413 280.35 82.2107 280.297 82.296L280.105 82.536C280.051 82.6213 279.977 82.664 279.881 82.664C279.795 82.664 279.721 82.6373 279.657 82.584C279.219 82.2747 278.83 82.0667 278.489 81.96C278.158 81.8533 277.779 81.8 277.353 81.8C276.766 81.8 276.297 81.928 275.945 82.184C275.593 82.44 275.417 82.7653 275.417 83.16C275.417 83.4053 275.497 83.6027 275.657 83.752C275.817 83.9013 276.046 84.0293 276.345 84.136C276.643 84.232 277.081 84.344 277.657 84.472C278.723 84.7067 279.481 84.9947 279.929 85.336C280.387 85.6773 280.617 86.1733 280.617 86.824C280.617 87.5387 280.334 88.1147 279.769 88.552C279.203 88.9893 278.473 89.208 277.577 89.208ZM288.147 87.128C288.221 87.0533 288.301 87.016 288.387 87.016C288.461 87.016 288.531 87.048 288.595 87.112L288.803 87.304C288.877 87.3787 288.915 87.4587 288.915 87.544C288.915 87.608 288.883 87.6827 288.819 87.768C288.296 88.2907 287.789 88.664 287.299 88.888C286.808 89.1013 286.259 89.208 285.651 89.208C284.883 89.208 284.216 89.0373 283.651 88.696C283.085 88.3547 282.648 87.88 282.339 87.272C282.029 86.6533 281.875 85.9387 281.875 85.128C281.875 84.3067 282.024 83.5813 282.323 82.952C282.632 82.312 283.064 81.816 283.619 81.464C284.173 81.1013 284.813 80.92 285.539 80.92C286.616 80.92 287.464 81.256 288.083 81.928C288.701 82.6 289.011 83.5067 289.011 84.648V84.84C289 84.936 288.963 85.0107 288.899 85.064C288.845 85.1173 288.771 85.144 288.675 85.144H282.947C282.979 86.04 283.213 86.7973 283.651 87.416C284.099 88.024 284.765 88.328 285.651 88.328C286.131 88.328 286.552 88.2427 286.915 88.072C287.288 87.8907 287.699 87.576 288.147 87.128ZM285.539 81.8C284.835 81.8 284.253 82.0187 283.795 82.456C283.347 82.8827 283.075 83.512 282.979 84.344H287.955C287.933 83.5653 287.709 82.9467 287.283 82.488C286.856 82.0293 286.275 81.8 285.539 81.8ZM294.377 88.12C294.409 88.1093 294.451 88.104 294.505 88.104C294.569 88.104 294.627 88.1253 294.681 88.168C294.734 88.2107 294.766 88.2693 294.777 88.344L294.825 88.568C294.835 88.5893 294.841 88.6267 294.841 88.68C294.841 88.8293 294.761 88.92 294.601 88.952C294.217 89.0693 293.806 89.128 293.369 89.128C292.675 89.128 292.179 88.9733 291.881 88.664C291.593 88.344 291.449 87.8853 291.449 87.288V81.912H290.265C290.051 81.912 289.945 81.8053 289.945 81.592V81.432C289.945 81.2187 290.051 81.112 290.265 81.112H291.449V78.68C291.449 78.4667 291.555 78.36 291.769 78.36H292.185C292.398 78.36 292.505 78.4667 292.505 78.68V81.112H294.425C294.638 81.112 294.745 81.2187 294.745 81.432V81.592C294.745 81.8053 294.638 81.912 294.425 81.912H292.505V87.16C292.505 87.5547 292.579 87.832 292.729 87.992C292.878 88.152 293.134 88.232 293.497 88.232C293.753 88.232 294.046 88.1947 294.377 88.12ZM299.217 89.208C298.567 89.208 297.991 89.1173 297.489 88.936C296.999 88.744 296.481 88.424 295.937 87.976C295.841 87.912 295.793 87.8373 295.793 87.752C295.793 87.6773 295.831 87.6027 295.905 87.528L296.113 87.304C296.177 87.2187 296.257 87.176 296.353 87.176C296.428 87.176 296.497 87.208 296.561 87.272C297.073 87.6667 297.527 87.944 297.921 88.104C298.316 88.2533 298.748 88.328 299.217 88.328C299.804 88.328 300.284 88.2 300.657 87.944C301.031 87.6773 301.217 87.32 301.217 86.872C301.217 86.424 301.025 86.0933 300.641 85.88C300.257 85.6667 299.665 85.4747 298.865 85.304C298.161 85.1547 297.607 85 297.201 84.84C296.807 84.6693 296.513 84.456 296.321 84.2C296.129 83.944 296.033 83.608 296.033 83.192C296.033 82.5093 296.311 81.96 296.865 81.544C297.42 81.128 298.119 80.92 298.961 80.92C299.537 80.92 300.049 80.9947 300.497 81.144C300.956 81.2827 301.415 81.5173 301.873 81.848C301.969 81.9227 302.017 82.0027 302.017 82.088C302.017 82.1413 301.991 82.2107 301.937 82.296L301.745 82.536C301.692 82.6213 301.617 82.664 301.521 82.664C301.436 82.664 301.361 82.6373 301.297 82.584C300.86 82.2747 300.471 82.0667 300.129 81.96C299.799 81.8533 299.42 81.8 298.993 81.8C298.407 81.8 297.937 81.928 297.585 82.184C297.233 82.44 297.057 82.7653 297.057 83.16C297.057 83.4053 297.137 83.6027 297.297 83.752C297.457 83.9013 297.687 84.0293 297.985 84.136C298.284 84.232 298.721 84.344 299.297 84.472C300.364 84.7067 301.121 84.9947 301.569 85.336C302.028 85.6773 302.257 86.1733 302.257 86.824C302.257 87.5387 301.975 88.1147 301.409 88.552C300.844 88.9893 300.113 89.208 299.217 89.208Z" fill="#464646"/>
</svg>
