<svg width="344" height="320" viewBox="0 0 344 320" fill="none" xmlns="http://www.w3.org/2000/svg">
<rect width="344" height="320" fill="#F5F5F5"/>
<path d="M66.304 153.896C66.368 153.725 66.4907 153.64 66.672 153.64H67.92C68.1333 153.64 68.24 153.747 68.24 153.96V164.68C68.24 164.893 68.1333 165 67.92 165H67.456C67.2427 165 67.136 164.893 67.136 164.68V159.368C67.136 158.227 67.1467 156.579 67.168 154.424C66.7307 155.672 66.1333 157.32 65.376 159.368L63.408 164.744C63.344 164.915 63.2213 165 63.04 165H62.576C62.3947 165 62.272 164.915 62.208 164.744L60.192 159.352C59.7653 158.243 59.1733 156.6 58.416 154.424C58.4373 156.579 58.448 158.232 58.448 159.384V164.68C58.448 164.893 58.3413 165 58.128 165H57.696C57.4827 165 57.376 164.893 57.376 164.68V153.96C57.376 153.747 57.4827 153.64 57.696 153.64H58.928C59.1093 153.64 59.232 153.725 59.296 153.896L61.12 158.808C61.9627 161.101 62.528 162.717 62.816 163.656C63.0827 162.76 63.5413 161.421 64.192 159.64C64.2347 159.523 64.2827 159.395 64.336 159.256C64.3893 159.117 64.4427 158.968 64.496 158.808L66.304 153.896ZM75.5331 157.368C75.5971 157.197 75.7198 157.112 75.9011 157.112H76.3331C76.4185 157.112 76.4878 157.133 76.5411 157.176C76.5945 157.219 76.6211 157.277 76.6211 157.352L76.5891 157.48L73.5011 166.2C73.3305 166.68 73.1651 167.053 73.0051 167.32C72.8451 167.587 72.6265 167.789 72.3491 167.928C72.0825 168.067 71.7305 168.136 71.2931 168.136C71.0158 168.136 70.7705 168.115 70.5571 168.072C70.4505 168.061 70.3758 168.019 70.3331 167.944C70.3011 167.869 70.2958 167.784 70.3171 167.688L70.3651 167.48C70.4078 167.288 70.5305 167.203 70.7331 167.224C70.9251 167.256 71.0905 167.272 71.2291 167.272C71.5705 167.272 71.8371 167.176 72.0291 166.984C72.2318 166.792 72.4238 166.429 72.6051 165.896L72.7491 165.448L69.9331 157.48L69.9011 157.352C69.9011 157.277 69.9278 157.219 69.9811 157.176C70.0345 157.133 70.1038 157.112 70.1891 157.112H70.6531C70.8238 157.112 70.9411 157.197 71.0051 157.368L71.9011 160.008C71.9865 160.275 72.1998 160.909 72.5411 161.912L73.2611 164.072C73.6131 163.08 74.0771 161.715 74.6531 159.976L75.5331 157.368ZM82.2585 165C82.0452 165 81.9385 164.893 81.9385 164.68V153.96C81.9385 153.747 82.0452 153.64 82.2585 153.64H88.9785C89.1918 153.64 89.2985 153.747 89.2985 153.96V154.264C89.2985 154.477 89.1918 154.584 88.9785 154.584H83.0745V158.904H88.4825C88.6958 158.904 88.8025 159.011 88.8025 159.224V159.528C88.8025 159.741 88.6958 159.848 88.4825 159.848H83.0745V164.68C83.0745 164.893 82.9678 165 82.7545 165H82.2585ZM91.7611 165C91.5478 165 91.4411 164.893 91.4411 164.68V153.96C91.4411 153.747 91.5478 153.64 91.7611 153.64H92.2571C92.4705 153.64 92.5771 153.747 92.5771 153.96V164.68C92.5771 164.893 92.4705 165 92.2571 165H91.7611ZM103.199 153.96C103.199 153.747 103.305 153.64 103.519 153.64H103.983C104.196 153.64 104.303 153.747 104.303 153.96V164.68C104.303 164.893 104.196 165 103.983 165H103.263C103.092 165 102.959 164.931 102.863 164.792L99.4225 159.576L99.2305 159.272C97.9505 157.352 97.0332 155.939 96.4785 155.032C96.5212 156.28 96.5425 157.72 96.5425 159.352V164.68C96.5425 164.893 96.4358 165 96.2225 165H95.7585C95.5452 165 95.4385 164.893 95.4385 164.68V153.96C95.4385 153.747 95.5452 153.64 95.7585 153.64H96.4785C96.6492 153.64 96.7825 153.709 96.8785 153.848L100.303 159.048L100.911 159.992C101.988 161.624 102.772 162.84 103.263 163.64C103.22 162.371 103.199 160.925 103.199 159.304V153.96ZM114.808 153.96C114.808 153.747 114.915 153.64 115.128 153.64H115.592C115.805 153.64 115.912 153.747 115.912 153.96V164.68C115.912 164.893 115.805 165 115.592 165H114.872C114.701 165 114.568 164.931 114.472 164.792L111.032 159.576L110.84 159.272C109.56 157.352 108.643 155.939 108.088 155.032C108.131 156.28 108.152 157.72 108.152 159.352V164.68C108.152 164.893 108.045 165 107.832 165H107.368C107.155 165 107.048 164.893 107.048 164.68V153.96C107.048 153.747 107.155 153.64 107.368 153.64H108.088C108.259 153.64 108.392 153.709 108.488 153.848L111.912 159.048L112.52 159.992C113.597 161.624 114.381 162.84 114.872 163.64C114.829 162.371 114.808 160.925 114.808 159.304V153.96Z" fill="#0063FB"/>
<path d="M124.816 165C124.624 165 124.528 164.925 124.528 164.776C124.528 164.744 124.539 164.696 124.56 164.632L129.248 153.88C129.312 153.72 129.44 153.64 129.632 153.64H129.968C130.16 153.64 130.256 153.715 130.256 153.864C130.256 153.896 130.245 153.944 130.224 154.008L125.536 164.76C125.472 164.92 125.344 165 125.152 165H124.816Z" fill="#767676"/>
<path d="M138.696 165C138.483 165 138.376 164.893 138.376 164.68V153.96C138.376 153.747 138.483 153.64 138.696 153.64H145.416C145.629 153.64 145.736 153.747 145.736 153.96V154.264C145.736 154.477 145.629 154.584 145.416 154.584H139.512V158.904H144.92C145.133 158.904 145.24 159.011 145.24 159.224V159.528C145.24 159.741 145.133 159.848 144.92 159.848H139.512V164.68C139.512 164.893 139.405 165 139.192 165H138.696ZM150.177 156.92C151.148 156.92 151.905 157.155 152.449 157.624C152.993 158.083 153.265 158.691 153.265 159.448V164.68C153.265 164.893 153.158 165 152.945 165H152.625C152.412 165 152.305 164.893 152.305 164.68V163.96C152.038 164.387 151.66 164.707 151.169 164.92C150.689 165.133 150.15 165.24 149.553 165.24C148.721 165.24 148.044 165.064 147.521 164.712C146.998 164.36 146.737 163.816 146.737 163.08C146.737 162.493 146.902 162.024 147.233 161.672C147.564 161.309 147.996 161.037 148.529 160.856C149.062 160.664 149.729 160.493 150.529 160.344L152.257 160.04V159.528C152.257 158.984 152.07 158.563 151.697 158.264C151.324 157.955 150.833 157.8 150.225 157.8C149.766 157.8 149.35 157.885 148.977 158.056C148.604 158.227 148.204 158.52 147.777 158.936C147.702 159.011 147.622 159.048 147.537 159.048C147.462 159.048 147.393 159.016 147.329 158.952L147.121 158.76C147.046 158.685 147.009 158.605 147.009 158.52C147.009 158.424 147.046 158.339 147.121 158.264C147.569 157.795 148.038 157.453 148.529 157.24C149.03 157.027 149.58 156.92 150.177 156.92ZM149.601 164.36C150.369 164.36 151.004 164.157 151.505 163.752C152.006 163.347 152.257 162.829 152.257 162.2V160.856L150.769 161.144C150.076 161.283 149.526 161.416 149.121 161.544C148.716 161.672 148.39 161.859 148.145 162.104C147.9 162.349 147.777 162.669 147.777 163.064C147.777 163.469 147.937 163.789 148.257 164.024C148.588 164.248 149.036 164.36 149.601 164.36ZM160.298 157.368C160.362 157.197 160.485 157.112 160.666 157.112H161.082C161.167 157.112 161.237 157.133 161.29 157.176C161.343 157.219 161.37 157.277 161.37 157.352L161.338 157.48L158.794 164.744C158.73 164.915 158.607 165 158.426 165H157.578C157.397 165 157.274 164.915 157.21 164.744L154.682 157.48L154.65 157.352C154.65 157.277 154.677 157.219 154.73 157.176C154.783 157.133 154.853 157.112 154.938 157.112H155.37C155.551 157.112 155.674 157.197 155.738 157.368L156.714 160.184C157.119 161.357 157.551 162.707 158.01 164.232C158.031 164.168 158.09 163.987 158.186 163.688C158.623 162.248 159.002 161.08 159.322 160.184L160.298 157.368ZM166.104 165.208C165.368 165.208 164.712 165.032 164.136 164.68C163.56 164.328 163.112 163.843 162.792 163.224C162.472 162.595 162.312 161.875 162.312 161.064C162.312 160.253 162.472 159.539 162.792 158.92C163.112 158.291 163.56 157.8 164.136 157.448C164.712 157.096 165.368 156.92 166.104 156.92C166.84 156.92 167.496 157.096 168.072 157.448C168.648 157.8 169.096 158.291 169.416 158.92C169.736 159.539 169.896 160.253 169.896 161.064C169.896 161.875 169.736 162.595 169.416 163.224C169.096 163.843 168.648 164.328 168.072 164.68C167.496 165.032 166.84 165.208 166.104 165.208ZM166.104 164.328C166.926 164.328 167.582 164.029 168.072 163.432C168.563 162.824 168.808 162.035 168.808 161.064C168.808 160.093 168.563 159.309 168.072 158.712C167.582 158.104 166.926 157.8 166.104 157.8C165.283 157.8 164.627 158.104 164.136 158.712C163.646 159.309 163.4 160.093 163.4 161.064C163.4 162.035 163.646 162.824 164.136 163.432C164.627 164.029 165.283 164.328 166.104 164.328ZM176.851 157.432C176.851 157.219 176.958 157.112 177.171 157.112H177.587C177.8 157.112 177.907 157.219 177.907 157.432V164.68C177.907 164.893 177.8 165 177.587 165H177.251C177.038 165 176.931 164.893 176.931 164.68V163.96C176.696 164.376 176.36 164.691 175.923 164.904C175.496 165.107 175.027 165.208 174.515 165.208C173.555 165.208 172.846 164.968 172.387 164.488C171.928 163.997 171.699 163.368 171.699 162.6V157.432C171.699 157.219 171.806 157.112 172.019 157.112H172.435C172.648 157.112 172.755 157.219 172.755 157.432V162.376C172.755 163.005 172.91 163.485 173.219 163.816C173.539 164.136 173.992 164.296 174.579 164.296C175.24 164.296 175.784 164.093 176.211 163.688C176.638 163.283 176.851 162.707 176.851 161.96V157.432ZM183.222 157.048C183.488 157.048 183.803 157.091 184.166 157.176C184.358 157.24 184.432 157.373 184.39 157.576L184.326 157.832C184.272 158.035 184.139 158.109 183.926 158.056C183.67 157.992 183.435 157.96 183.222 157.96C182.678 157.96 182.224 158.195 181.862 158.664C181.51 159.133 181.334 159.784 181.334 160.616V164.68C181.334 164.893 181.227 165 181.014 165H180.598C180.384 165 180.278 164.893 180.278 164.68V157.432C180.278 157.219 180.384 157.112 180.598 157.112H180.95C181.163 157.112 181.27 157.219 181.27 157.432V158.312C181.451 157.917 181.707 157.608 182.038 157.384C182.379 157.16 182.774 157.048 183.222 157.048ZM186.353 155.112C186.139 155.112 185.958 155.037 185.809 154.888C185.67 154.739 185.601 154.557 185.601 154.344C185.601 154.131 185.67 153.955 185.809 153.816C185.958 153.677 186.139 153.608 186.353 153.608C186.577 153.608 186.758 153.677 186.897 153.816C187.046 153.955 187.121 154.131 187.121 154.344C187.121 154.557 187.046 154.739 186.897 154.888C186.758 155.037 186.577 155.112 186.353 155.112ZM186.145 165C185.931 165 185.825 164.893 185.825 164.68V157.432C185.825 157.219 185.931 157.112 186.145 157.112H186.561C186.774 157.112 186.881 157.219 186.881 157.432V164.68C186.881 164.893 186.774 165 186.561 165H186.145ZM192.783 164.12C192.815 164.109 192.858 164.104 192.911 164.104C192.975 164.104 193.034 164.125 193.087 164.168C193.14 164.211 193.172 164.269 193.183 164.344L193.231 164.568C193.242 164.589 193.247 164.627 193.247 164.68C193.247 164.829 193.167 164.92 193.007 164.952C192.623 165.069 192.212 165.128 191.775 165.128C191.082 165.128 190.586 164.973 190.287 164.664C189.999 164.344 189.855 163.885 189.855 163.288V157.912H188.671C188.458 157.912 188.351 157.805 188.351 157.592V157.432C188.351 157.219 188.458 157.112 188.671 157.112H189.855V154.68C189.855 154.467 189.962 154.36 190.175 154.36H190.591C190.804 154.36 190.911 154.467 190.911 154.68V157.112H192.831C193.044 157.112 193.151 157.219 193.151 157.432V157.592C193.151 157.805 193.044 157.912 192.831 157.912H190.911V163.16C190.911 163.555 190.986 163.832 191.135 163.992C191.284 164.152 191.54 164.232 191.903 164.232C192.159 164.232 192.452 164.195 192.783 164.12ZM200.209 163.128C200.284 163.053 200.364 163.016 200.449 163.016C200.524 163.016 200.593 163.048 200.657 163.112L200.865 163.304C200.94 163.379 200.977 163.459 200.977 163.544C200.977 163.608 200.945 163.683 200.881 163.768C200.359 164.291 199.852 164.664 199.361 164.888C198.871 165.101 198.321 165.208 197.713 165.208C196.945 165.208 196.279 165.037 195.713 164.696C195.148 164.355 194.711 163.88 194.401 163.272C194.092 162.653 193.937 161.939 193.937 161.128C193.937 160.307 194.087 159.581 194.385 158.952C194.695 158.312 195.127 157.816 195.681 157.464C196.236 157.101 196.876 156.92 197.601 156.92C198.679 156.92 199.527 157.256 200.145 157.928C200.764 158.6 201.073 159.507 201.073 160.648V160.84C201.063 160.936 201.025 161.011 200.961 161.064C200.908 161.117 200.833 161.144 200.737 161.144H195.009C195.041 162.04 195.276 162.797 195.713 163.416C196.161 164.024 196.828 164.328 197.713 164.328C198.193 164.328 198.615 164.243 198.977 164.072C199.351 163.891 199.761 163.576 200.209 163.128ZM197.601 157.8C196.897 157.8 196.316 158.019 195.857 158.456C195.409 158.883 195.137 159.512 195.041 160.344H200.017C199.996 159.565 199.772 158.947 199.345 158.488C198.919 158.029 198.337 157.8 197.601 157.8ZM205.78 165.208C205.129 165.208 204.553 165.117 204.052 164.936C203.561 164.744 203.044 164.424 202.5 163.976C202.404 163.912 202.356 163.837 202.356 163.752C202.356 163.677 202.393 163.603 202.468 163.528L202.676 163.304C202.74 163.219 202.82 163.176 202.916 163.176C202.99 163.176 203.06 163.208 203.124 163.272C203.636 163.667 204.089 163.944 204.484 164.104C204.878 164.253 205.31 164.328 205.78 164.328C206.366 164.328 206.846 164.2 207.22 163.944C207.593 163.677 207.78 163.32 207.78 162.872C207.78 162.424 207.588 162.093 207.204 161.88C206.82 161.667 206.228 161.475 205.428 161.304C204.724 161.155 204.169 161 203.764 160.84C203.369 160.669 203.076 160.456 202.884 160.2C202.692 159.944 202.596 159.608 202.596 159.192C202.596 158.509 202.873 157.96 203.428 157.544C203.982 157.128 204.681 156.92 205.524 156.92C206.1 156.92 206.612 156.995 207.06 157.144C207.518 157.283 207.977 157.517 208.436 157.848C208.532 157.923 208.58 158.003 208.58 158.088C208.58 158.141 208.553 158.211 208.5 158.296L208.308 158.536C208.254 158.621 208.18 158.664 208.084 158.664C207.998 158.664 207.924 158.637 207.86 158.584C207.422 158.275 207.033 158.067 206.692 157.96C206.361 157.853 205.982 157.8 205.556 157.8C204.969 157.8 204.5 157.928 204.148 158.184C203.796 158.44 203.62 158.765 203.62 159.16C203.62 159.405 203.7 159.603 203.86 159.752C204.02 159.901 204.249 160.029 204.548 160.136C204.846 160.232 205.284 160.344 205.86 160.472C206.926 160.707 207.684 160.995 208.132 161.336C208.59 161.677 208.82 162.173 208.82 162.824C208.82 163.539 208.537 164.115 207.972 164.552C207.406 164.989 206.676 165.208 205.78 165.208Z" fill="#0063FB"/>
<path d="M216.816 165C216.624 165 216.528 164.925 216.528 164.776C216.528 164.744 216.539 164.696 216.56 164.632L221.248 153.88C221.312 153.72 221.44 153.64 221.632 153.64H221.968C222.16 153.64 222.256 153.715 222.256 153.864C222.256 153.896 222.245 153.944 222.224 154.008L217.536 164.76C217.472 164.92 217.344 165 217.152 165H216.816Z" fill="#767676"/>
<path d="M239.304 153.896C239.368 153.725 239.491 153.64 239.672 153.64H240.92C241.133 153.64 241.24 153.747 241.24 153.96V164.68C241.24 164.893 241.133 165 240.92 165H240.456C240.243 165 240.136 164.893 240.136 164.68V159.368C240.136 158.227 240.147 156.579 240.168 154.424C239.731 155.672 239.133 157.32 238.376 159.368L236.408 164.744C236.344 164.915 236.221 165 236.04 165H235.576C235.395 165 235.272 164.915 235.208 164.744L233.192 159.352C232.765 158.243 232.173 156.6 231.416 154.424C231.437 156.579 231.448 158.232 231.448 159.384V164.68C231.448 164.893 231.341 165 231.128 165H230.696C230.483 165 230.376 164.893 230.376 164.68V153.96C230.376 153.747 230.483 153.64 230.696 153.64H231.928C232.109 153.64 232.232 153.725 232.296 153.896L234.12 158.808C234.963 161.101 235.528 162.717 235.816 163.656C236.083 162.76 236.541 161.421 237.192 159.64C237.235 159.523 237.283 159.395 237.336 159.256C237.389 159.117 237.443 158.968 237.496 158.808L239.304 153.896ZM248.533 157.368C248.597 157.197 248.72 157.112 248.901 157.112H249.333C249.418 157.112 249.488 157.133 249.541 157.176C249.594 157.219 249.621 157.277 249.621 157.352L249.589 157.48L246.501 166.2C246.33 166.68 246.165 167.053 246.005 167.32C245.845 167.587 245.626 167.789 245.349 167.928C245.082 168.067 244.73 168.136 244.293 168.136C244.016 168.136 243.77 168.115 243.557 168.072C243.45 168.061 243.376 168.019 243.333 167.944C243.301 167.869 243.296 167.784 243.317 167.688L243.365 167.48C243.408 167.288 243.53 167.203 243.733 167.224C243.925 167.256 244.09 167.272 244.229 167.272C244.57 167.272 244.837 167.176 245.029 166.984C245.232 166.792 245.424 166.429 245.605 165.896L245.749 165.448L242.933 157.48L242.901 157.352C242.901 157.277 242.928 157.219 242.981 157.176C243.034 157.133 243.104 157.112 243.189 157.112H243.653C243.824 157.112 243.941 157.197 244.005 157.368L244.901 160.008C244.986 160.275 245.2 160.909 245.541 161.912L246.261 164.072C246.613 163.08 247.077 161.715 247.653 159.976L248.533 157.368ZM257.755 154.328C257.275 154.328 256.933 154.456 256.731 154.712C256.528 154.957 256.427 155.373 256.427 155.96V157.112H258.187C258.4 157.112 258.507 157.219 258.507 157.432V157.592C258.507 157.805 258.4 157.912 258.187 157.912H256.427V164.68C256.427 164.893 256.32 165 256.107 165H255.691C255.477 165 255.371 164.893 255.371 164.68V157.912H254.187C253.973 157.912 253.867 157.805 253.867 157.592V157.432C253.867 157.219 253.973 157.112 254.187 157.112H255.371V155.784C255.371 155.048 255.563 154.472 255.947 154.056C256.341 153.64 256.901 153.432 257.627 153.432C258.032 153.432 258.448 153.491 258.875 153.608C259.077 153.672 259.152 153.805 259.099 154.008L259.035 154.232C258.981 154.381 258.875 154.456 258.715 154.456C258.683 154.456 258.613 154.445 258.507 154.424C258.272 154.36 258.021 154.328 257.755 154.328ZM260.587 155.112C260.374 155.112 260.192 155.037 260.043 154.888C259.904 154.739 259.835 154.557 259.835 154.344C259.835 154.131 259.904 153.955 260.043 153.816C260.192 153.677 260.374 153.608 260.587 153.608C260.811 153.608 260.992 153.677 261.131 153.816C261.28 153.955 261.355 154.131 261.355 154.344C261.355 154.557 261.28 154.739 261.131 154.888C260.992 155.037 260.811 155.112 260.587 155.112ZM260.379 165C260.166 165 260.059 164.893 260.059 164.68V157.432C260.059 157.219 260.166 157.112 260.379 157.112H260.795C261.008 157.112 261.115 157.219 261.115 157.432V164.68C261.115 164.893 261.008 165 260.795 165H260.379ZM266.985 156.92C267.913 156.92 268.612 157.176 269.081 157.688C269.561 158.2 269.801 158.84 269.801 159.608V164.68C269.801 164.893 269.695 165 269.481 165H269.065C268.852 165 268.745 164.893 268.745 164.68V159.96C268.745 159.256 268.575 158.723 268.233 158.36C267.892 157.997 267.401 157.816 266.761 157.816C266.356 157.816 265.983 157.917 265.641 158.12C265.3 158.312 265.028 158.579 264.825 158.92C264.623 159.261 264.521 159.635 264.521 160.04V164.68C264.521 164.893 264.415 165 264.201 165H263.785C263.572 165 263.465 164.893 263.465 164.68V157.432C263.465 157.219 263.572 157.112 263.785 157.112H264.137C264.351 157.112 264.457 157.219 264.457 157.432V158.2C264.724 157.773 265.076 157.453 265.513 157.24C265.951 157.027 266.441 156.92 266.985 156.92ZM277.833 153.96C277.833 153.747 277.94 153.64 278.153 153.64H278.569C278.782 153.64 278.889 153.747 278.889 153.96V164.68C278.889 164.893 278.782 165 278.569 165H278.233C278.02 165 277.913 164.893 277.913 164.68V163.64C277.625 164.141 277.246 164.525 276.777 164.792C276.308 165.059 275.753 165.192 275.113 165.192C274.441 165.192 273.844 165.021 273.321 164.68C272.798 164.328 272.388 163.843 272.089 163.224C271.79 162.595 271.641 161.875 271.641 161.064C271.641 160.253 271.79 159.539 272.089 158.92C272.398 158.291 272.82 157.805 273.353 157.464C273.886 157.112 274.484 156.936 275.145 156.936C276.361 156.936 277.257 157.389 277.833 158.296V153.96ZM275.193 164.296C275.993 164.296 276.638 164.013 277.129 163.448C277.63 162.872 277.881 162.077 277.881 161.064C277.881 160.061 277.63 159.272 277.129 158.696C276.638 158.12 275.993 157.832 275.193 157.832C274.457 157.832 273.86 158.131 273.401 158.728C272.953 159.325 272.729 160.104 272.729 161.064C272.729 162.035 272.953 162.819 273.401 163.416C273.849 164.003 274.446 164.296 275.193 164.296ZM284.014 165.208C283.363 165.208 282.787 165.117 282.286 164.936C281.795 164.744 281.278 164.424 280.734 163.976C280.638 163.912 280.59 163.837 280.59 163.752C280.59 163.677 280.627 163.603 280.702 163.528L280.91 163.304C280.974 163.219 281.054 163.176 281.15 163.176C281.225 163.176 281.294 163.208 281.358 163.272C281.87 163.667 282.323 163.944 282.718 164.104C283.113 164.253 283.545 164.328 284.014 164.328C284.601 164.328 285.081 164.2 285.454 163.944C285.827 163.677 286.014 163.32 286.014 162.872C286.014 162.424 285.822 162.093 285.438 161.88C285.054 161.667 284.462 161.475 283.662 161.304C282.958 161.155 282.403 161 281.998 160.84C281.603 160.669 281.31 160.456 281.118 160.2C280.926 159.944 280.83 159.608 280.83 159.192C280.83 158.509 281.107 157.96 281.662 157.544C282.217 157.128 282.915 156.92 283.758 156.92C284.334 156.92 284.846 156.995 285.294 157.144C285.753 157.283 286.211 157.517 286.67 157.848C286.766 157.923 286.814 158.003 286.814 158.088C286.814 158.141 286.787 158.211 286.734 158.296L286.542 158.536C286.489 158.621 286.414 158.664 286.318 158.664C286.233 158.664 286.158 158.637 286.094 158.584C285.657 158.275 285.267 158.067 284.926 157.96C284.595 157.853 284.217 157.8 283.79 157.8C283.203 157.8 282.734 157.928 282.382 158.184C282.03 158.44 281.854 158.765 281.854 159.16C281.854 159.405 281.934 159.603 282.094 159.752C282.254 159.901 282.483 160.029 282.782 160.136C283.081 160.232 283.518 160.344 284.094 160.472C285.161 160.707 285.918 160.995 286.366 161.336C286.825 161.677 287.054 162.173 287.054 162.824C287.054 163.539 286.771 164.115 286.206 164.552C285.641 164.989 284.91 165.208 284.014 165.208Z" fill="#464646"/>
<path d="M47.9481 106.488C48.4441 106.64 48.8361 106.896 49.1241 107.256C49.4201 107.616 49.5681 108.068 49.5681 108.612C49.5681 109.34 49.3321 109.92 48.8601 110.352C48.3881 110.784 47.7561 111 46.9641 111H43.4361C43.2761 111 43.1961 110.92 43.1961 110.76V102.72C43.1961 102.56 43.2761 102.48 43.4361 102.48H46.8201C47.5561 102.48 48.1481 102.664 48.5961 103.032C49.0441 103.4 49.2681 103.932 49.2681 104.628C49.2681 105.092 49.1481 105.484 48.9081 105.804C48.6761 106.124 48.3561 106.352 47.9481 106.488ZM44.0481 106.176H46.6761C47.2281 106.176 47.6601 106.044 47.9721 105.78C48.2841 105.508 48.4401 105.128 48.4401 104.64C48.4401 104.176 48.2841 103.82 47.9721 103.572C47.6681 103.316 47.2361 103.188 46.6761 103.188H44.0481V106.176ZM46.7361 110.292C47.3841 110.292 47.8761 110.14 48.2121 109.836C48.5561 109.532 48.7281 109.12 48.7281 108.6C48.7281 108.072 48.5521 107.652 48.2001 107.34C47.8561 107.028 47.3721 106.872 46.7481 106.872H44.0481V110.292H46.7361ZM53.1819 105.036C53.3819 105.036 53.6179 105.068 53.8899 105.132C54.0339 105.18 54.0899 105.28 54.0579 105.432L54.0099 105.624C53.9699 105.776 53.8699 105.832 53.7099 105.792C53.5179 105.744 53.3419 105.72 53.1819 105.72C52.7739 105.72 52.4339 105.896 52.1619 106.248C51.8979 106.6 51.7659 107.088 51.7659 107.712V110.76C51.7659 110.92 51.6859 111 51.5259 111H51.2139C51.0539 111 50.9739 110.92 50.9739 110.76V105.324C50.9739 105.164 51.0539 105.084 51.2139 105.084H51.4779C51.6379 105.084 51.7179 105.164 51.7179 105.324V105.984C51.8539 105.688 52.0459 105.456 52.2939 105.288C52.5499 105.12 52.8459 105.036 53.1819 105.036ZM59.114 109.596C59.17 109.54 59.23 109.512 59.294 109.512C59.35 109.512 59.402 109.536 59.45 109.584L59.606 109.728C59.662 109.784 59.69 109.844 59.69 109.908C59.69 109.956 59.666 110.012 59.618 110.076C59.226 110.468 58.846 110.748 58.478 110.916C58.11 111.076 57.698 111.156 57.242 111.156C56.666 111.156 56.166 111.028 55.742 110.772C55.318 110.516 54.99 110.16 54.758 109.704C54.526 109.24 54.41 108.704 54.41 108.096C54.41 107.48 54.522 106.936 54.746 106.464C54.978 105.984 55.302 105.612 55.718 105.348C56.134 105.076 56.614 104.94 57.158 104.94C57.966 104.94 58.602 105.192 59.066 105.696C59.53 106.2 59.762 106.88 59.762 107.736V107.88C59.754 107.952 59.726 108.008 59.678 108.048C59.638 108.088 59.582 108.108 59.51 108.108H55.214C55.238 108.78 55.414 109.348 55.742 109.812C56.078 110.268 56.578 110.496 57.242 110.496C57.602 110.496 57.918 110.432 58.19 110.304C58.47 110.168 58.778 109.932 59.114 109.596ZM57.158 105.6C56.63 105.6 56.194 105.764 55.85 106.092C55.514 106.412 55.31 106.884 55.238 107.508H58.97C58.954 106.924 58.786 106.46 58.466 106.116C58.146 105.772 57.71 105.6 57.158 105.6ZM63.3555 104.94C64.0835 104.94 64.6515 105.116 65.0595 105.468C65.4675 105.812 65.6715 106.268 65.6715 106.836V110.76C65.6715 110.92 65.5915 111 65.4315 111H65.1915C65.0315 111 64.9515 110.92 64.9515 110.76V110.22C64.7515 110.54 64.4675 110.78 64.0995 110.94C63.7395 111.1 63.3355 111.18 62.8875 111.18C62.2635 111.18 61.7555 111.048 61.3635 110.784C60.9715 110.52 60.7755 110.112 60.7755 109.56C60.7755 109.12 60.8995 108.768 61.1475 108.504C61.3955 108.232 61.7195 108.028 62.1195 107.892C62.5195 107.748 63.0195 107.62 63.6195 107.508L64.9155 107.28V106.896C64.9155 106.488 64.7755 106.172 64.4955 105.948C64.2155 105.716 63.8475 105.6 63.3915 105.6C63.0475 105.6 62.7355 105.664 62.4555 105.792C62.1755 105.92 61.8755 106.14 61.5555 106.452C61.4995 106.508 61.4395 106.536 61.3755 106.536C61.3195 106.536 61.2675 106.512 61.2195 106.464L61.0635 106.32C61.0075 106.264 60.9795 106.204 60.9795 106.14C60.9795 106.068 61.0075 106.004 61.0635 105.948C61.3995 105.596 61.7515 105.34 62.1195 105.18C62.4955 105.02 62.9075 104.94 63.3555 104.94ZM62.9235 110.52C63.4995 110.52 63.9755 110.368 64.3515 110.064C64.7275 109.76 64.9155 109.372 64.9155 108.9V107.892L63.7995 108.108C63.2795 108.212 62.8675 108.312 62.5635 108.408C62.2595 108.504 62.0155 108.644 61.8315 108.828C61.6475 109.012 61.5555 109.252 61.5555 109.548C61.5555 109.852 61.6755 110.092 61.9155 110.268C62.1635 110.436 62.4995 110.52 62.9235 110.52ZM71.6991 102.72C71.6991 102.56 71.7791 102.48 71.9391 102.48H72.2511C72.4111 102.48 72.4911 102.56 72.4911 102.72V110.76C72.4911 110.92 72.4111 111 72.2511 111H71.9991C71.8391 111 71.7591 110.92 71.7591 110.76V109.98C71.5431 110.356 71.2591 110.644 70.9071 110.844C70.5551 111.044 70.1391 111.144 69.6591 111.144C69.1551 111.144 68.7071 111.016 68.3151 110.76C67.9231 110.496 67.6151 110.132 67.3911 109.668C67.1671 109.196 67.0551 108.656 67.0551 108.048C67.0551 107.44 67.1671 106.904 67.3911 106.44C67.6231 105.968 67.9391 105.604 68.3391 105.348C68.7391 105.084 69.1871 104.952 69.6831 104.952C70.5951 104.952 71.2671 105.292 71.6991 105.972V102.72ZM69.7191 110.472C70.3191 110.472 70.8031 110.26 71.1711 109.836C71.5471 109.404 71.7351 108.808 71.7351 108.048C71.7351 107.296 71.5471 106.704 71.1711 106.272C70.8031 105.84 70.3191 105.624 69.7191 105.624C69.1671 105.624 68.7191 105.848 68.3751 106.296C68.0391 106.744 67.8711 107.328 67.8711 108.048C67.8711 108.776 68.0391 109.364 68.3751 109.812C68.7111 110.252 69.1591 110.472 69.7191 110.472ZM76.6708 111.156C76.1028 111.156 75.6068 111.028 75.1828 110.772C74.7668 110.508 74.4428 110.144 74.2108 109.68C73.9868 109.208 73.8748 108.664 73.8748 108.048C73.8748 107.44 73.9868 106.9 74.2108 106.428C74.4428 105.956 74.7668 105.592 75.1828 105.336C75.6068 105.072 76.0948 104.94 76.6468 104.94C77.0948 104.94 77.4868 105.016 77.8228 105.168C78.1588 105.312 78.4828 105.552 78.7948 105.888C78.8428 105.936 78.8668 105.988 78.8668 106.044C78.8668 106.116 78.8348 106.176 78.7708 106.224L78.6028 106.38C78.5548 106.428 78.4988 106.452 78.4348 106.452C78.3788 106.452 78.3188 106.42 78.2548 106.356C77.9748 106.076 77.7068 105.88 77.4508 105.768C77.2028 105.656 76.9268 105.6 76.6228 105.6C76.2068 105.6 75.8508 105.716 75.5548 105.948C75.2668 106.18 75.0508 106.484 74.9068 106.86C74.7628 107.228 74.6908 107.624 74.6908 108.048C74.6908 108.472 74.7628 108.872 74.9068 109.248C75.0508 109.616 75.2708 109.916 75.5668 110.148C75.8628 110.372 76.2268 110.484 76.6588 110.484C76.9788 110.484 77.2588 110.428 77.4988 110.316C77.7468 110.196 78.0228 109.972 78.3268 109.644C78.3908 109.58 78.4508 109.548 78.5068 109.548C78.5708 109.548 78.6268 109.572 78.6748 109.62L78.8428 109.752C78.8988 109.8 78.9268 109.856 78.9268 109.92C78.9268 109.984 78.8908 110.06 78.8188 110.148C78.4828 110.516 78.1468 110.776 77.8108 110.928C77.4748 111.08 77.0948 111.156 76.6708 111.156ZM82.4202 105.036C82.6202 105.036 82.8562 105.068 83.1282 105.132C83.2722 105.18 83.3282 105.28 83.2962 105.432L83.2482 105.624C83.2082 105.776 83.1082 105.832 82.9482 105.792C82.7562 105.744 82.5802 105.72 82.4202 105.72C82.0122 105.72 81.6722 105.896 81.4002 106.248C81.1362 106.6 81.0042 107.088 81.0042 107.712V110.76C81.0042 110.92 80.9242 111 80.7642 111H80.4522C80.2922 111 80.2122 110.92 80.2122 110.76V105.324C80.2122 105.164 80.2922 105.084 80.4522 105.084H80.7162C80.8762 105.084 80.9562 105.164 80.9562 105.324V105.984C81.0922 105.688 81.2842 105.456 81.5322 105.288C81.7882 105.12 82.0842 105.036 82.4202 105.036ZM88.2124 105.324C88.2124 105.164 88.2924 105.084 88.4524 105.084H88.7644C88.9244 105.084 89.0044 105.164 89.0044 105.324V110.76C89.0044 110.92 88.9244 111 88.7644 111H88.5124C88.3524 111 88.2724 110.92 88.2724 110.76V110.22C88.0964 110.532 87.8444 110.768 87.5164 110.928C87.1964 111.08 86.8444 111.156 86.4604 111.156C85.7404 111.156 85.2084 110.976 84.8644 110.616C84.5204 110.248 84.3484 109.776 84.3484 109.2V105.324C84.3484 105.164 84.4284 105.084 84.5884 105.084H84.9004C85.0604 105.084 85.1404 105.164 85.1404 105.324V109.032C85.1404 109.504 85.2564 109.864 85.4884 110.112C85.7284 110.352 86.0684 110.472 86.5084 110.472C87.0044 110.472 87.4124 110.32 87.7324 110.016C88.0524 109.712 88.2124 109.28 88.2124 108.72V105.324ZM96.7945 104.94C97.4345 104.94 97.9225 105.124 98.2585 105.492C98.6025 105.852 98.7745 106.316 98.7745 106.884V110.76C98.7745 110.92 98.6945 111 98.5345 111H98.2225C98.0625 111 97.9825 110.92 97.9825 110.76V107.1C97.9825 106.62 97.8705 106.252 97.6465 105.996C97.4305 105.74 97.1065 105.612 96.6745 105.612C96.2185 105.612 95.8545 105.764 95.5825 106.068C95.3105 106.372 95.1745 106.764 95.1745 107.244V110.76C95.1745 110.92 95.0945 111 94.9345 111H94.6225C94.4625 111 94.3825 110.92 94.3825 110.76V107.1C94.3825 106.62 94.2705 106.252 94.0465 105.996C93.8305 105.74 93.5025 105.612 93.0625 105.612C92.6545 105.612 92.3145 105.74 92.0425 105.996C91.7785 106.252 91.6225 106.588 91.5745 107.004V110.76C91.5745 110.92 91.4945 111 91.3345 111H91.0225C90.8625 111 90.7825 110.92 90.7825 110.76V105.324C90.7825 105.164 90.8625 105.084 91.0225 105.084H91.2865C91.4465 105.084 91.5265 105.164 91.5265 105.324V105.816C91.8865 105.232 92.4585 104.94 93.2425 104.94C93.6505 104.94 93.9985 105.032 94.2865 105.216C94.5825 105.392 94.8025 105.632 94.9465 105.936C95.3705 105.272 95.9865 104.94 96.7945 104.94ZM103.353 104.952C103.857 104.952 104.305 105.084 104.697 105.348C105.097 105.604 105.405 105.968 105.621 106.44C105.845 106.904 105.957 107.44 105.957 108.048C105.957 108.656 105.845 109.196 105.621 109.668C105.397 110.132 105.085 110.496 104.685 110.76C104.293 111.016 103.849 111.144 103.353 111.144C102.401 111.144 101.705 110.776 101.265 110.04V110.76C101.265 110.92 101.185 111 101.025 111H100.761C100.601 111 100.521 110.92 100.521 110.76V102.708C100.521 102.548 100.601 102.468 100.761 102.468H101.073C101.233 102.468 101.313 102.548 101.313 102.708V106.02C101.753 105.308 102.433 104.952 103.353 104.952ZM103.293 110.472C103.845 110.472 104.289 110.248 104.625 109.8C104.969 109.352 105.141 108.768 105.141 108.048C105.141 107.328 104.969 106.744 104.625 106.296C104.289 105.848 103.845 105.624 103.293 105.624C102.701 105.624 102.217 105.84 101.841 106.272C101.465 106.704 101.277 107.296 101.277 108.048C101.277 108.808 101.461 109.404 101.829 109.836C102.205 110.26 102.693 110.472 103.293 110.472ZM110.526 103.584C110.366 103.584 110.23 103.528 110.118 103.416C110.014 103.304 109.962 103.168 109.962 103.008C109.962 102.848 110.014 102.716 110.118 102.612C110.23 102.508 110.366 102.456 110.526 102.456C110.694 102.456 110.83 102.508 110.934 102.612C111.046 102.716 111.102 102.848 111.102 103.008C111.102 103.168 111.046 103.304 110.934 103.416C110.83 103.528 110.694 103.584 110.526 103.584ZM110.37 111C110.21 111 110.13 110.92 110.13 110.76V105.324C110.13 105.164 110.21 105.084 110.37 105.084H110.682C110.842 105.084 110.922 105.164 110.922 105.324V110.76C110.922 110.92 110.842 111 110.682 111H110.37ZM115.349 110.34C115.373 110.332 115.405 110.328 115.445 110.328C115.493 110.328 115.537 110.344 115.577 110.376C115.617 110.408 115.641 110.452 115.649 110.508L115.685 110.676C115.693 110.692 115.697 110.72 115.697 110.76C115.697 110.872 115.637 110.94 115.517 110.964C115.229 111.052 114.921 111.096 114.593 111.096C114.073 111.096 113.701 110.98 113.477 110.748C113.261 110.508 113.153 110.164 113.153 109.716V105.684H112.265C112.105 105.684 112.025 105.604 112.025 105.444V105.324C112.025 105.164 112.105 105.084 112.265 105.084H113.153V103.26C113.153 103.1 113.233 103.02 113.393 103.02H113.705C113.865 103.02 113.945 103.1 113.945 103.26V105.084H115.385C115.545 105.084 115.625 105.164 115.625 105.324V105.444C115.625 105.604 115.545 105.684 115.385 105.684H113.945V109.62C113.945 109.916 114.001 110.124 114.113 110.244C114.225 110.364 114.417 110.424 114.689 110.424C114.881 110.424 115.101 110.396 115.349 110.34ZM120.919 109.596C120.975 109.54 121.035 109.512 121.099 109.512C121.155 109.512 121.207 109.536 121.255 109.584L121.411 109.728C121.467 109.784 121.495 109.844 121.495 109.908C121.495 109.956 121.471 110.012 121.423 110.076C121.031 110.468 120.651 110.748 120.283 110.916C119.915 111.076 119.503 111.156 119.047 111.156C118.471 111.156 117.971 111.028 117.547 110.772C117.123 110.516 116.795 110.16 116.563 109.704C116.331 109.24 116.215 108.704 116.215 108.096C116.215 107.48 116.327 106.936 116.551 106.464C116.783 105.984 117.107 105.612 117.523 105.348C117.939 105.076 118.419 104.94 118.963 104.94C119.771 104.94 120.407 105.192 120.871 105.696C121.335 106.2 121.567 106.88 121.567 107.736V107.88C121.559 107.952 121.531 108.008 121.483 108.048C121.443 108.088 121.387 108.108 121.315 108.108H117.019C117.043 108.78 117.219 109.348 117.547 109.812C117.883 110.268 118.383 110.496 119.047 110.496C119.407 110.496 119.723 110.432 119.995 110.304C120.275 110.168 120.583 109.932 120.919 109.596ZM118.963 105.6C118.435 105.6 117.999 105.764 117.655 106.092C117.319 106.412 117.115 106.884 117.043 107.508H120.775C120.759 106.924 120.591 106.46 120.271 106.116C119.951 105.772 119.515 105.6 118.963 105.6ZM128.998 104.94C129.638 104.94 130.126 105.124 130.462 105.492C130.806 105.852 130.978 106.316 130.978 106.884V110.76C130.978 110.92 130.898 111 130.738 111H130.426C130.266 111 130.186 110.92 130.186 110.76V107.1C130.186 106.62 130.074 106.252 129.85 105.996C129.634 105.74 129.31 105.612 128.878 105.612C128.422 105.612 128.058 105.764 127.786 106.068C127.514 106.372 127.378 106.764 127.378 107.244V110.76C127.378 110.92 127.298 111 127.138 111H126.826C126.666 111 126.586 110.92 126.586 110.76V107.1C126.586 106.62 126.474 106.252 126.25 105.996C126.034 105.74 125.706 105.612 125.266 105.612C124.858 105.612 124.518 105.74 124.246 105.996C123.982 106.252 123.826 106.588 123.778 107.004V110.76C123.778 110.92 123.698 111 123.538 111H123.226C123.066 111 122.986 110.92 122.986 110.76V105.324C122.986 105.164 123.066 105.084 123.226 105.084H123.49C123.65 105.084 123.73 105.164 123.73 105.324V105.816C124.09 105.232 124.662 104.94 125.446 104.94C125.854 104.94 126.202 105.032 126.49 105.216C126.786 105.392 127.006 105.632 127.15 105.936C127.574 105.272 128.19 104.94 128.998 104.94Z" fill="#464646"/>
<path d="M220.837 84.488C221.333 84.64 221.725 84.896 222.013 85.256C222.309 85.616 222.457 86.068 222.457 86.612C222.457 87.34 222.221 87.92 221.749 88.352C221.277 88.784 220.645 89 219.853 89H216.325C216.165 89 216.085 88.92 216.085 88.76V80.72C216.085 80.56 216.165 80.48 216.325 80.48H219.709C220.445 80.48 221.037 80.664 221.485 81.032C221.933 81.4 222.157 81.932 222.157 82.628C222.157 83.092 222.037 83.484 221.797 83.804C221.565 84.124 221.245 84.352 220.837 84.488ZM216.937 84.176H219.565C220.117 84.176 220.549 84.044 220.861 83.78C221.173 83.508 221.329 83.128 221.329 82.64C221.329 82.176 221.173 81.82 220.861 81.572C220.557 81.316 220.125 81.188 219.565 81.188H216.937V84.176ZM219.625 88.292C220.273 88.292 220.765 88.14 221.101 87.836C221.445 87.532 221.617 87.12 221.617 86.6C221.617 86.072 221.441 85.652 221.089 85.34C220.745 85.028 220.261 84.872 219.637 84.872H216.937V88.292H219.625ZM226.071 83.036C226.271 83.036 226.507 83.068 226.779 83.132C226.923 83.18 226.979 83.28 226.947 83.432L226.899 83.624C226.859 83.776 226.759 83.832 226.599 83.792C226.407 83.744 226.231 83.72 226.071 83.72C225.663 83.72 225.323 83.896 225.051 84.248C224.787 84.6 224.655 85.088 224.655 85.712V88.76C224.655 88.92 224.575 89 224.415 89H224.103C223.943 89 223.863 88.92 223.863 88.76V83.324C223.863 83.164 223.943 83.084 224.103 83.084H224.367C224.527 83.084 224.607 83.164 224.607 83.324V83.984C224.743 83.688 224.935 83.456 225.183 83.288C225.439 83.12 225.735 83.036 226.071 83.036ZM232.003 87.596C232.059 87.54 232.119 87.512 232.183 87.512C232.239 87.512 232.291 87.536 232.339 87.584L232.495 87.728C232.551 87.784 232.579 87.844 232.579 87.908C232.579 87.956 232.555 88.012 232.507 88.076C232.115 88.468 231.735 88.748 231.367 88.916C230.999 89.076 230.587 89.156 230.131 89.156C229.555 89.156 229.055 89.028 228.631 88.772C228.207 88.516 227.879 88.16 227.647 87.704C227.415 87.24 227.299 86.704 227.299 86.096C227.299 85.48 227.411 84.936 227.635 84.464C227.867 83.984 228.191 83.612 228.607 83.348C229.023 83.076 229.503 82.94 230.047 82.94C230.855 82.94 231.491 83.192 231.955 83.696C232.419 84.2 232.651 84.88 232.651 85.736V85.88C232.643 85.952 232.615 86.008 232.567 86.048C232.527 86.088 232.471 86.108 232.399 86.108H228.103C228.127 86.78 228.303 87.348 228.631 87.812C228.967 88.268 229.467 88.496 230.131 88.496C230.491 88.496 230.807 88.432 231.079 88.304C231.359 88.168 231.667 87.932 232.003 87.596ZM230.047 83.6C229.519 83.6 229.083 83.764 228.739 84.092C228.403 84.412 228.199 84.884 228.127 85.508H231.859C231.843 84.924 231.675 84.46 231.355 84.116C231.035 83.772 230.599 83.6 230.047 83.6ZM236.244 82.94C236.972 82.94 237.54 83.116 237.948 83.468C238.356 83.812 238.56 84.268 238.56 84.836V88.76C238.56 88.92 238.48 89 238.32 89H238.08C237.92 89 237.84 88.92 237.84 88.76V88.22C237.64 88.54 237.356 88.78 236.988 88.94C236.628 89.1 236.224 89.18 235.776 89.18C235.152 89.18 234.644 89.048 234.252 88.784C233.86 88.52 233.664 88.112 233.664 87.56C233.664 87.12 233.788 86.768 234.036 86.504C234.284 86.232 234.608 86.028 235.008 85.892C235.408 85.748 235.908 85.62 236.508 85.508L237.804 85.28V84.896C237.804 84.488 237.664 84.172 237.384 83.948C237.104 83.716 236.736 83.6 236.28 83.6C235.936 83.6 235.624 83.664 235.344 83.792C235.064 83.92 234.764 84.14 234.444 84.452C234.388 84.508 234.328 84.536 234.264 84.536C234.208 84.536 234.156 84.512 234.108 84.464L233.952 84.32C233.896 84.264 233.868 84.204 233.868 84.14C233.868 84.068 233.896 84.004 233.952 83.948C234.288 83.596 234.64 83.34 235.008 83.18C235.384 83.02 235.796 82.94 236.244 82.94ZM235.812 88.52C236.388 88.52 236.864 88.368 237.24 88.064C237.616 87.76 237.804 87.372 237.804 86.9V85.892L236.688 86.108C236.168 86.212 235.756 86.312 235.452 86.408C235.148 86.504 234.904 86.644 234.72 86.828C234.536 87.012 234.444 87.252 234.444 87.548C234.444 87.852 234.564 88.092 234.804 88.268C235.052 88.436 235.388 88.52 235.812 88.52ZM244.588 80.72C244.588 80.56 244.668 80.48 244.828 80.48H245.14C245.3 80.48 245.38 80.56 245.38 80.72V88.76C245.38 88.92 245.3 89 245.14 89H244.888C244.728 89 244.648 88.92 244.648 88.76V87.98C244.432 88.356 244.148 88.644 243.796 88.844C243.444 89.044 243.028 89.144 242.548 89.144C242.044 89.144 241.596 89.016 241.204 88.76C240.812 88.496 240.504 88.132 240.28 87.668C240.056 87.196 239.944 86.656 239.944 86.048C239.944 85.44 240.056 84.904 240.28 84.44C240.512 83.968 240.828 83.604 241.228 83.348C241.628 83.084 242.076 82.952 242.572 82.952C243.484 82.952 244.156 83.292 244.588 83.972V80.72ZM242.608 88.472C243.208 88.472 243.692 88.26 244.06 87.836C244.436 87.404 244.624 86.808 244.624 86.048C244.624 85.296 244.436 84.704 244.06 84.272C243.692 83.84 243.208 83.624 242.608 83.624C242.056 83.624 241.608 83.848 241.264 84.296C240.928 84.744 240.76 85.328 240.76 86.048C240.76 86.776 240.928 87.364 241.264 87.812C241.6 88.252 242.048 88.472 242.608 88.472ZM249.559 89.156C248.991 89.156 248.495 89.028 248.071 88.772C247.655 88.508 247.331 88.144 247.099 87.68C246.875 87.208 246.763 86.664 246.763 86.048C246.763 85.44 246.875 84.9 247.099 84.428C247.331 83.956 247.655 83.592 248.071 83.336C248.495 83.072 248.983 82.94 249.535 82.94C249.983 82.94 250.375 83.016 250.711 83.168C251.047 83.312 251.371 83.552 251.683 83.888C251.731 83.936 251.755 83.988 251.755 84.044C251.755 84.116 251.723 84.176 251.659 84.224L251.491 84.38C251.443 84.428 251.387 84.452 251.323 84.452C251.267 84.452 251.207 84.42 251.143 84.356C250.863 84.076 250.595 83.88 250.339 83.768C250.091 83.656 249.815 83.6 249.511 83.6C249.095 83.6 248.739 83.716 248.443 83.948C248.155 84.18 247.939 84.484 247.795 84.86C247.651 85.228 247.579 85.624 247.579 86.048C247.579 86.472 247.651 86.872 247.795 87.248C247.939 87.616 248.159 87.916 248.455 88.148C248.751 88.372 249.115 88.484 249.547 88.484C249.867 88.484 250.147 88.428 250.387 88.316C250.635 88.196 250.911 87.972 251.215 87.644C251.279 87.58 251.339 87.548 251.395 87.548C251.459 87.548 251.515 87.572 251.563 87.62L251.731 87.752C251.787 87.8 251.815 87.856 251.815 87.92C251.815 87.984 251.779 88.06 251.707 88.148C251.371 88.516 251.035 88.776 250.699 88.928C250.363 89.08 249.983 89.156 249.559 89.156ZM255.309 83.036C255.509 83.036 255.745 83.068 256.017 83.132C256.161 83.18 256.217 83.28 256.185 83.432L256.137 83.624C256.097 83.776 255.997 83.832 255.837 83.792C255.645 83.744 255.469 83.72 255.309 83.72C254.901 83.72 254.561 83.896 254.289 84.248C254.025 84.6 253.893 85.088 253.893 85.712V88.76C253.893 88.92 253.813 89 253.653 89H253.341C253.181 89 253.101 88.92 253.101 88.76V83.324C253.101 83.164 253.181 83.084 253.341 83.084H253.605C253.765 83.084 253.845 83.164 253.845 83.324V83.984C253.981 83.688 254.173 83.456 254.421 83.288C254.677 83.12 254.973 83.036 255.309 83.036ZM261.101 83.324C261.101 83.164 261.181 83.084 261.341 83.084H261.653C261.813 83.084 261.893 83.164 261.893 83.324V88.76C261.893 88.92 261.813 89 261.653 89H261.401C261.241 89 261.161 88.92 261.161 88.76V88.22C260.985 88.532 260.733 88.768 260.405 88.928C260.085 89.08 259.733 89.156 259.349 89.156C258.629 89.156 258.097 88.976 257.753 88.616C257.409 88.248 257.237 87.776 257.237 87.2V83.324C257.237 83.164 257.317 83.084 257.477 83.084H257.789C257.949 83.084 258.029 83.164 258.029 83.324V87.032C258.029 87.504 258.145 87.864 258.377 88.112C258.617 88.352 258.957 88.472 259.397 88.472C259.893 88.472 260.301 88.32 260.621 88.016C260.941 87.712 261.101 87.28 261.101 86.72V83.324ZM269.683 82.94C270.323 82.94 270.811 83.124 271.147 83.492C271.491 83.852 271.663 84.316 271.663 84.884V88.76C271.663 88.92 271.583 89 271.423 89H271.111C270.951 89 270.871 88.92 270.871 88.76V85.1C270.871 84.62 270.759 84.252 270.535 83.996C270.319 83.74 269.995 83.612 269.563 83.612C269.107 83.612 268.743 83.764 268.471 84.068C268.199 84.372 268.063 84.764 268.063 85.244V88.76C268.063 88.92 267.983 89 267.823 89H267.511C267.351 89 267.271 88.92 267.271 88.76V85.1C267.271 84.62 267.159 84.252 266.935 83.996C266.719 83.74 266.391 83.612 265.951 83.612C265.543 83.612 265.203 83.74 264.931 83.996C264.667 84.252 264.511 84.588 264.463 85.004V88.76C264.463 88.92 264.383 89 264.223 89H263.911C263.751 89 263.671 88.92 263.671 88.76V83.324C263.671 83.164 263.751 83.084 263.911 83.084H264.175C264.335 83.084 264.415 83.164 264.415 83.324V83.816C264.775 83.232 265.347 82.94 266.131 82.94C266.539 82.94 266.887 83.032 267.175 83.216C267.471 83.392 267.691 83.632 267.835 83.936C268.259 83.272 268.875 82.94 269.683 82.94ZM276.241 82.952C276.745 82.952 277.193 83.084 277.585 83.348C277.985 83.604 278.293 83.968 278.509 84.44C278.733 84.904 278.845 85.44 278.845 86.048C278.845 86.656 278.733 87.196 278.509 87.668C278.285 88.132 277.973 88.496 277.573 88.76C277.181 89.016 276.737 89.144 276.241 89.144C275.289 89.144 274.593 88.776 274.153 88.04V88.76C274.153 88.92 274.073 89 273.913 89H273.649C273.489 89 273.409 88.92 273.409 88.76V80.708C273.409 80.548 273.489 80.468 273.649 80.468H273.961C274.121 80.468 274.201 80.548 274.201 80.708V84.02C274.641 83.308 275.321 82.952 276.241 82.952ZM276.181 88.472C276.733 88.472 277.177 88.248 277.513 87.8C277.857 87.352 278.029 86.768 278.029 86.048C278.029 85.328 277.857 84.744 277.513 84.296C277.177 83.848 276.733 83.624 276.181 83.624C275.589 83.624 275.105 83.84 274.729 84.272C274.353 84.704 274.165 85.296 274.165 86.048C274.165 86.808 274.349 87.404 274.717 87.836C275.093 88.26 275.581 88.472 276.181 88.472ZM285.683 88.34C285.707 88.332 285.739 88.328 285.779 88.328C285.827 88.328 285.871 88.344 285.911 88.376C285.951 88.408 285.975 88.452 285.983 88.508L286.019 88.676C286.027 88.692 286.031 88.72 286.031 88.76C286.031 88.872 285.971 88.94 285.851 88.964C285.563 89.052 285.255 89.096 284.927 89.096C284.407 89.096 284.035 88.98 283.811 88.748C283.595 88.508 283.487 88.164 283.487 87.716V83.684H282.599C282.439 83.684 282.359 83.604 282.359 83.444V83.324C282.359 83.164 282.439 83.084 282.599 83.084H283.487V81.26C283.487 81.1 283.567 81.02 283.727 81.02H284.039C284.199 81.02 284.279 81.1 284.279 81.26V83.084H285.719C285.879 83.084 285.959 83.164 285.959 83.324V83.444C285.959 83.604 285.879 83.684 285.719 83.684H284.279V87.62C284.279 87.916 284.335 88.124 284.447 88.244C284.559 88.364 284.751 88.424 285.023 88.424C285.215 88.424 285.435 88.396 285.683 88.34ZM287.563 81.584C287.403 81.584 287.267 81.528 287.155 81.416C287.051 81.304 286.999 81.168 286.999 81.008C286.999 80.848 287.051 80.716 287.155 80.612C287.267 80.508 287.403 80.456 287.563 80.456C287.731 80.456 287.867 80.508 287.971 80.612C288.083 80.716 288.139 80.848 288.139 81.008C288.139 81.168 288.083 81.304 287.971 81.416C287.867 81.528 287.731 81.584 287.563 81.584ZM287.407 89C287.247 89 287.167 88.92 287.167 88.76V83.324C287.167 83.164 287.247 83.084 287.407 83.084H287.719C287.879 83.084 287.959 83.164 287.959 83.324V88.76C287.959 88.92 287.879 89 287.719 89H287.407ZM292.386 88.34C292.41 88.332 292.442 88.328 292.482 88.328C292.53 88.328 292.574 88.344 292.614 88.376C292.654 88.408 292.678 88.452 292.686 88.508L292.722 88.676C292.73 88.692 292.734 88.72 292.734 88.76C292.734 88.872 292.674 88.94 292.554 88.964C292.266 89.052 291.958 89.096 291.63 89.096C291.11 89.096 290.738 88.98 290.514 88.748C290.298 88.508 290.19 88.164 290.19 87.716V83.684H289.302C289.142 83.684 289.062 83.604 289.062 83.444V83.324C289.062 83.164 289.142 83.084 289.302 83.084H290.19V81.26C290.19 81.1 290.27 81.02 290.43 81.02H290.742C290.902 81.02 290.982 81.1 290.982 81.26V83.084H292.422C292.582 83.084 292.662 83.164 292.662 83.324V83.444C292.662 83.604 292.582 83.684 292.422 83.684H290.982V87.62C290.982 87.916 291.038 88.124 291.15 88.244C291.262 88.364 291.454 88.424 291.726 88.424C291.918 88.424 292.138 88.396 292.386 88.34ZM294.122 89C293.962 89 293.882 88.92 293.882 88.76V80.72C293.882 80.56 293.962 80.48 294.122 80.48H294.434C294.594 80.48 294.674 80.56 294.674 80.72V88.76C294.674 88.92 294.594 89 294.434 89H294.122ZM300.768 87.596C300.824 87.54 300.884 87.512 300.948 87.512C301.004 87.512 301.056 87.536 301.104 87.584L301.26 87.728C301.316 87.784 301.344 87.844 301.344 87.908C301.344 87.956 301.32 88.012 301.272 88.076C300.88 88.468 300.5 88.748 300.132 88.916C299.764 89.076 299.352 89.156 298.896 89.156C298.32 89.156 297.82 89.028 297.396 88.772C296.972 88.516 296.644 88.16 296.412 87.704C296.18 87.24 296.064 86.704 296.064 86.096C296.064 85.48 296.176 84.936 296.4 84.464C296.632 83.984 296.956 83.612 297.372 83.348C297.788 83.076 298.268 82.94 298.812 82.94C299.62 82.94 300.256 83.192 300.72 83.696C301.184 84.2 301.416 84.88 301.416 85.736V85.88C301.408 85.952 301.38 86.008 301.332 86.048C301.292 86.088 301.236 86.108 301.164 86.108H296.868C296.892 86.78 297.068 87.348 297.396 87.812C297.732 88.268 298.232 88.496 298.896 88.496C299.256 88.496 299.572 88.432 299.844 88.304C300.124 88.168 300.432 87.932 300.768 87.596ZM298.812 83.6C298.284 83.6 297.848 83.764 297.504 84.092C297.168 84.412 296.964 84.884 296.892 85.508H300.624C300.608 84.924 300.44 84.46 300.12 84.116C299.8 83.772 299.364 83.6 298.812 83.6Z" fill="#464646"/>
<path d="M199.854 111.18C199.222 111.18 198.65 111.084 198.138 110.892C197.634 110.692 197.102 110.368 196.542 109.92C196.47 109.856 196.434 109.796 196.434 109.74C196.434 109.692 196.458 109.64 196.506 109.584L196.698 109.356C196.738 109.292 196.798 109.26 196.878 109.26C196.942 109.26 196.994 109.28 197.034 109.32C197.602 109.76 198.098 110.06 198.522 110.22C198.946 110.372 199.39 110.448 199.854 110.448C200.502 110.448 201.03 110.288 201.438 109.968C201.846 109.64 202.05 109.196 202.05 108.636C202.05 108.276 201.954 107.988 201.762 107.772C201.57 107.556 201.306 107.388 200.97 107.268C200.642 107.148 200.174 107.02 199.566 106.884C198.838 106.724 198.27 106.552 197.862 106.368C197.462 106.184 197.17 105.952 196.986 105.672C196.802 105.392 196.71 105.032 196.71 104.592C196.71 104.128 196.842 103.724 197.106 103.38C197.378 103.028 197.738 102.76 198.186 102.576C198.634 102.392 199.118 102.3 199.638 102.3C200.206 102.3 200.722 102.384 201.186 102.552C201.658 102.72 202.122 102.988 202.578 103.356C202.65 103.404 202.686 103.46 202.686 103.524C202.686 103.572 202.662 103.628 202.614 103.692L202.434 103.908C202.394 103.972 202.334 104.004 202.254 104.004C202.19 104.004 202.134 103.984 202.086 103.944C201.678 103.608 201.282 103.372 200.898 103.236C200.522 103.1 200.106 103.032 199.65 103.032C199.234 103.032 198.866 103.1 198.546 103.236C198.226 103.364 197.974 103.544 197.79 103.776C197.614 104.008 197.526 104.272 197.526 104.568C197.526 104.888 197.614 105.144 197.79 105.336C197.974 105.528 198.226 105.68 198.546 105.792C198.874 105.904 199.35 106.032 199.974 106.176C200.694 106.344 201.262 106.532 201.678 106.74C202.102 106.948 202.41 107.204 202.602 107.508C202.794 107.804 202.89 108.172 202.89 108.612C202.89 109.124 202.758 109.576 202.494 109.968C202.238 110.352 201.878 110.652 201.414 110.868C200.95 111.076 200.43 111.18 199.854 111.18ZM208.675 109.596C208.731 109.54 208.791 109.512 208.855 109.512C208.911 109.512 208.963 109.536 209.011 109.584L209.167 109.728C209.223 109.784 209.251 109.844 209.251 109.908C209.251 109.956 209.227 110.012 209.179 110.076C208.787 110.468 208.407 110.748 208.039 110.916C207.671 111.076 207.259 111.156 206.803 111.156C206.227 111.156 205.727 111.028 205.303 110.772C204.879 110.516 204.551 110.16 204.319 109.704C204.087 109.24 203.971 108.704 203.971 108.096C203.971 107.48 204.083 106.936 204.307 106.464C204.539 105.984 204.863 105.612 205.279 105.348C205.695 105.076 206.175 104.94 206.719 104.94C207.527 104.94 208.163 105.192 208.627 105.696C209.091 106.2 209.323 106.88 209.323 107.736V107.88C209.315 107.952 209.287 108.008 209.239 108.048C209.199 108.088 209.143 108.108 209.071 108.108H204.775C204.799 108.78 204.975 109.348 205.303 109.812C205.639 110.268 206.139 110.496 206.803 110.496C207.163 110.496 207.479 110.432 207.751 110.304C208.031 110.168 208.339 109.932 208.675 109.596ZM206.719 105.6C206.191 105.6 205.755 105.764 205.411 106.092C205.075 106.412 204.871 106.884 204.799 107.508H208.531C208.515 106.924 208.347 106.46 208.027 106.116C207.707 105.772 207.271 105.6 206.719 105.6ZM213.574 104.952C214.07 104.952 214.514 105.084 214.906 105.348C215.306 105.604 215.618 105.968 215.842 106.44C216.066 106.904 216.178 107.436 216.178 108.036C216.178 108.644 216.066 109.184 215.842 109.656C215.618 110.128 215.31 110.496 214.918 110.76C214.526 111.016 214.078 111.144 213.574 111.144C212.646 111.144 211.966 110.804 211.534 110.124V112.968C211.534 113.128 211.454 113.208 211.294 113.208H210.982C210.822 113.208 210.742 113.128 210.742 112.968V105.324C210.742 105.164 210.822 105.084 210.982 105.084H211.246C211.406 105.084 211.486 105.164 211.486 105.324V106.08C211.702 105.712 211.986 105.432 212.338 105.24C212.69 105.048 213.102 104.952 213.574 104.952ZM213.514 110.472C214.074 110.472 214.522 110.248 214.858 109.8C215.194 109.352 215.362 108.764 215.362 108.036C215.362 107.316 215.194 106.736 214.858 106.296C214.522 105.848 214.074 105.624 213.514 105.624C212.914 105.624 212.426 105.84 212.05 106.272C211.682 106.696 211.498 107.284 211.498 108.036C211.498 108.788 211.686 109.384 212.062 109.824C212.438 110.256 212.922 110.472 213.514 110.472ZM219.865 104.94C220.593 104.94 221.161 105.116 221.569 105.468C221.977 105.812 222.181 106.268 222.181 106.836V110.76C222.181 110.92 222.101 111 221.941 111H221.701C221.541 111 221.461 110.92 221.461 110.76V110.22C221.261 110.54 220.977 110.78 220.609 110.94C220.249 111.1 219.845 111.18 219.397 111.18C218.773 111.18 218.265 111.048 217.873 110.784C217.481 110.52 217.285 110.112 217.285 109.56C217.285 109.12 217.409 108.768 217.657 108.504C217.905 108.232 218.229 108.028 218.629 107.892C219.029 107.748 219.529 107.62 220.129 107.508L221.425 107.28V106.896C221.425 106.488 221.285 106.172 221.005 105.948C220.725 105.716 220.357 105.6 219.901 105.6C219.557 105.6 219.245 105.664 218.965 105.792C218.685 105.92 218.385 106.14 218.065 106.452C218.009 106.508 217.949 106.536 217.885 106.536C217.829 106.536 217.777 106.512 217.729 106.464L217.573 106.32C217.517 106.264 217.489 106.204 217.489 106.14C217.489 106.068 217.517 106.004 217.573 105.948C217.909 105.596 218.261 105.34 218.629 105.18C219.005 105.02 219.417 104.94 219.865 104.94ZM219.433 110.52C220.009 110.52 220.485 110.368 220.861 110.064C221.237 109.76 221.425 109.372 221.425 108.9V107.892L220.309 108.108C219.789 108.212 219.377 108.312 219.073 108.408C218.769 108.504 218.525 108.644 218.341 108.828C218.157 109.012 218.065 109.252 218.065 109.548C218.065 109.852 218.185 110.092 218.425 110.268C218.673 110.436 219.009 110.52 219.433 110.52ZM226.145 105.036C226.345 105.036 226.581 105.068 226.853 105.132C226.997 105.18 227.053 105.28 227.021 105.432L226.973 105.624C226.933 105.776 226.833 105.832 226.673 105.792C226.481 105.744 226.305 105.72 226.145 105.72C225.737 105.72 225.397 105.896 225.125 106.248C224.861 106.6 224.729 107.088 224.729 107.712V110.76C224.729 110.92 224.649 111 224.489 111H224.177C224.017 111 223.937 110.92 223.937 110.76V105.324C223.937 105.164 224.017 105.084 224.177 105.084H224.441C224.601 105.084 224.681 105.164 224.681 105.324V105.984C224.817 105.688 225.009 105.456 225.257 105.288C225.513 105.12 225.809 105.036 226.145 105.036ZM230.225 104.94C230.953 104.94 231.521 105.116 231.929 105.468C232.337 105.812 232.541 106.268 232.541 106.836V110.76C232.541 110.92 232.461 111 232.301 111H232.061C231.901 111 231.821 110.92 231.821 110.76V110.22C231.621 110.54 231.337 110.78 230.969 110.94C230.609 111.1 230.205 111.18 229.757 111.18C229.133 111.18 228.625 111.048 228.233 110.784C227.841 110.52 227.645 110.112 227.645 109.56C227.645 109.12 227.769 108.768 228.017 108.504C228.265 108.232 228.589 108.028 228.989 107.892C229.389 107.748 229.889 107.62 230.489 107.508L231.785 107.28V106.896C231.785 106.488 231.645 106.172 231.365 105.948C231.085 105.716 230.717 105.6 230.261 105.6C229.917 105.6 229.605 105.664 229.325 105.792C229.045 105.92 228.745 106.14 228.425 106.452C228.369 106.508 228.309 106.536 228.245 106.536C228.189 106.536 228.137 106.512 228.089 106.464L227.933 106.32C227.877 106.264 227.849 106.204 227.849 106.14C227.849 106.068 227.877 106.004 227.933 105.948C228.269 105.596 228.621 105.34 228.989 105.18C229.365 105.02 229.777 104.94 230.225 104.94ZM229.793 110.52C230.369 110.52 230.845 110.368 231.221 110.064C231.597 109.76 231.785 109.372 231.785 108.9V107.892L230.669 108.108C230.149 108.212 229.737 108.312 229.433 108.408C229.129 108.504 228.885 108.644 228.701 108.828C228.517 109.012 228.425 109.252 228.425 109.548C228.425 109.852 228.545 110.092 228.785 110.268C229.033 110.436 229.369 110.52 229.793 110.52ZM236.796 110.34C236.82 110.332 236.852 110.328 236.892 110.328C236.94 110.328 236.984 110.344 237.024 110.376C237.064 110.408 237.088 110.452 237.096 110.508L237.132 110.676C237.14 110.692 237.144 110.72 237.144 110.76C237.144 110.872 237.084 110.94 236.964 110.964C236.676 111.052 236.368 111.096 236.04 111.096C235.52 111.096 235.148 110.98 234.924 110.748C234.708 110.508 234.6 110.164 234.6 109.716V105.684H233.712C233.552 105.684 233.472 105.604 233.472 105.444V105.324C233.472 105.164 233.552 105.084 233.712 105.084H234.6V103.26C234.6 103.1 234.68 103.02 234.84 103.02H235.152C235.312 103.02 235.392 103.1 235.392 103.26V105.084H236.832C236.992 105.084 237.072 105.164 237.072 105.324V105.444C237.072 105.604 236.992 105.684 236.832 105.684H235.392V109.62C235.392 109.916 235.448 110.124 235.56 110.244C235.672 110.364 235.864 110.424 236.136 110.424C236.328 110.424 236.548 110.396 236.796 110.34ZM240.506 111.156C239.954 111.156 239.462 111.024 239.03 110.76C238.598 110.496 238.262 110.132 238.022 109.668C237.782 109.196 237.662 108.656 237.662 108.048C237.662 107.44 237.782 106.904 238.022 106.44C238.262 105.968 238.598 105.6 239.03 105.336C239.462 105.072 239.954 104.94 240.506 104.94C241.058 104.94 241.55 105.072 241.982 105.336C242.414 105.6 242.75 105.968 242.99 106.44C243.23 106.904 243.35 107.44 243.35 108.048C243.35 108.656 243.23 109.196 242.99 109.668C242.75 110.132 242.414 110.496 241.982 110.76C241.55 111.024 241.058 111.156 240.506 111.156ZM240.506 110.496C241.122 110.496 241.614 110.272 241.982 109.824C242.35 109.368 242.534 108.776 242.534 108.048C242.534 107.32 242.35 106.732 241.982 106.284C241.614 105.828 241.122 105.6 240.506 105.6C239.89 105.6 239.398 105.828 239.03 106.284C238.662 106.732 238.478 107.32 238.478 108.048C238.478 108.776 238.662 109.368 239.03 109.824C239.398 110.272 239.89 110.496 240.506 110.496ZM246.934 105.036C247.134 105.036 247.37 105.068 247.642 105.132C247.786 105.18 247.842 105.28 247.81 105.432L247.762 105.624C247.722 105.776 247.622 105.832 247.462 105.792C247.27 105.744 247.094 105.72 246.934 105.72C246.526 105.72 246.186 105.896 245.914 106.248C245.65 106.6 245.518 107.088 245.518 107.712V110.76C245.518 110.92 245.438 111 245.278 111H244.966C244.806 111 244.726 110.92 244.726 110.76V105.324C244.726 105.164 244.806 105.084 244.966 105.084H245.23C245.39 105.084 245.47 105.164 245.47 105.324V105.984C245.606 105.688 245.798 105.456 246.046 105.288C246.302 105.12 246.598 105.036 246.934 105.036Z" fill="#464646"/>
<path d="M137.268 210.488C137.764 210.64 138.156 210.896 138.444 211.256C138.74 211.616 138.888 212.068 138.888 212.612C138.888 213.34 138.652 213.92 138.18 214.352C137.708 214.784 137.076 215 136.284 215H132.756C132.596 215 132.516 214.92 132.516 214.76V206.72C132.516 206.56 132.596 206.48 132.756 206.48H136.14C136.876 206.48 137.468 206.664 137.916 207.032C138.364 207.4 138.588 207.932 138.588 208.628C138.588 209.092 138.468 209.484 138.228 209.804C137.996 210.124 137.676 210.352 137.268 210.488ZM133.368 210.176H135.996C136.548 210.176 136.98 210.044 137.292 209.78C137.604 209.508 137.76 209.128 137.76 208.64C137.76 208.176 137.604 207.82 137.292 207.572C136.988 207.316 136.556 207.188 135.996 207.188H133.368V210.176ZM136.056 214.292C136.704 214.292 137.196 214.14 137.532 213.836C137.876 213.532 138.048 213.12 138.048 212.6C138.048 212.072 137.872 211.652 137.52 211.34C137.176 211.028 136.692 210.872 136.068 210.872H133.368V214.292H136.056ZM142.502 209.036C142.702 209.036 142.938 209.068 143.21 209.132C143.354 209.18 143.41 209.28 143.378 209.432L143.33 209.624C143.29 209.776 143.19 209.832 143.03 209.792C142.838 209.744 142.662 209.72 142.502 209.72C142.094 209.72 141.754 209.896 141.482 210.248C141.218 210.6 141.086 211.088 141.086 211.712V214.76C141.086 214.92 141.006 215 140.846 215H140.534C140.374 215 140.294 214.92 140.294 214.76V209.324C140.294 209.164 140.374 209.084 140.534 209.084H140.798C140.958 209.084 141.038 209.164 141.038 209.324V209.984C141.174 209.688 141.366 209.456 141.614 209.288C141.87 209.12 142.166 209.036 142.502 209.036ZM148.434 213.596C148.49 213.54 148.55 213.512 148.614 213.512C148.67 213.512 148.722 213.536 148.77 213.584L148.926 213.728C148.982 213.784 149.01 213.844 149.01 213.908C149.01 213.956 148.986 214.012 148.938 214.076C148.546 214.468 148.166 214.748 147.798 214.916C147.43 215.076 147.018 215.156 146.562 215.156C145.986 215.156 145.486 215.028 145.062 214.772C144.638 214.516 144.31 214.16 144.078 213.704C143.846 213.24 143.73 212.704 143.73 212.096C143.73 211.48 143.842 210.936 144.066 210.464C144.298 209.984 144.622 209.612 145.038 209.348C145.454 209.076 145.934 208.94 146.478 208.94C147.286 208.94 147.922 209.192 148.386 209.696C148.85 210.2 149.082 210.88 149.082 211.736V211.88C149.074 211.952 149.046 212.008 148.998 212.048C148.958 212.088 148.902 212.108 148.83 212.108H144.534C144.558 212.78 144.734 213.348 145.062 213.812C145.398 214.268 145.898 214.496 146.562 214.496C146.922 214.496 147.238 214.432 147.51 214.304C147.79 214.168 148.098 213.932 148.434 213.596ZM146.478 209.6C145.95 209.6 145.514 209.764 145.17 210.092C144.834 210.412 144.63 210.884 144.558 211.508H148.29C148.274 210.924 148.106 210.46 147.786 210.116C147.466 209.772 147.03 209.6 146.478 209.6ZM152.676 208.94C153.404 208.94 153.972 209.116 154.38 209.468C154.788 209.812 154.992 210.268 154.992 210.836V214.76C154.992 214.92 154.912 215 154.752 215H154.512C154.352 215 154.272 214.92 154.272 214.76V214.22C154.072 214.54 153.788 214.78 153.42 214.94C153.06 215.1 152.656 215.18 152.208 215.18C151.584 215.18 151.076 215.048 150.684 214.784C150.292 214.52 150.096 214.112 150.096 213.56C150.096 213.12 150.22 212.768 150.468 212.504C150.716 212.232 151.04 212.028 151.44 211.892C151.84 211.748 152.34 211.62 152.94 211.508L154.236 211.28V210.896C154.236 210.488 154.096 210.172 153.816 209.948C153.536 209.716 153.168 209.6 152.712 209.6C152.368 209.6 152.056 209.664 151.776 209.792C151.496 209.92 151.196 210.14 150.876 210.452C150.82 210.508 150.76 210.536 150.696 210.536C150.64 210.536 150.588 210.512 150.54 210.464L150.384 210.32C150.328 210.264 150.3 210.204 150.3 210.14C150.3 210.068 150.328 210.004 150.384 209.948C150.72 209.596 151.072 209.34 151.44 209.18C151.816 209.02 152.228 208.94 152.676 208.94ZM152.244 214.52C152.82 214.52 153.296 214.368 153.672 214.064C154.048 213.76 154.236 213.372 154.236 212.9V211.892L153.12 212.108C152.6 212.212 152.188 212.312 151.884 212.408C151.58 212.504 151.336 212.644 151.152 212.828C150.968 213.012 150.876 213.252 150.876 213.548C150.876 213.852 150.996 214.092 151.236 214.268C151.484 214.436 151.82 214.52 152.244 214.52ZM161.019 206.72C161.019 206.56 161.099 206.48 161.259 206.48H161.571C161.731 206.48 161.811 206.56 161.811 206.72V214.76C161.811 214.92 161.731 215 161.571 215H161.319C161.159 215 161.079 214.92 161.079 214.76V213.98C160.863 214.356 160.579 214.644 160.227 214.844C159.875 215.044 159.459 215.144 158.979 215.144C158.475 215.144 158.027 215.016 157.635 214.76C157.243 214.496 156.935 214.132 156.711 213.668C156.487 213.196 156.375 212.656 156.375 212.048C156.375 211.44 156.487 210.904 156.711 210.44C156.943 209.968 157.259 209.604 157.659 209.348C158.059 209.084 158.507 208.952 159.003 208.952C159.915 208.952 160.587 209.292 161.019 209.972V206.72ZM159.039 214.472C159.639 214.472 160.123 214.26 160.491 213.836C160.867 213.404 161.055 212.808 161.055 212.048C161.055 211.296 160.867 210.704 160.491 210.272C160.123 209.84 159.639 209.624 159.039 209.624C158.487 209.624 158.039 209.848 157.695 210.296C157.359 210.744 157.191 211.328 157.191 212.048C157.191 212.776 157.359 213.364 157.695 213.812C158.031 214.252 158.479 214.472 159.039 214.472ZM165.991 215.156C165.423 215.156 164.927 215.028 164.503 214.772C164.087 214.508 163.763 214.144 163.531 213.68C163.307 213.208 163.195 212.664 163.195 212.048C163.195 211.44 163.307 210.9 163.531 210.428C163.763 209.956 164.087 209.592 164.503 209.336C164.927 209.072 165.415 208.94 165.967 208.94C166.415 208.94 166.807 209.016 167.143 209.168C167.479 209.312 167.803 209.552 168.115 209.888C168.163 209.936 168.187 209.988 168.187 210.044C168.187 210.116 168.155 210.176 168.091 210.224L167.923 210.38C167.875 210.428 167.819 210.452 167.755 210.452C167.699 210.452 167.639 210.42 167.575 210.356C167.295 210.076 167.027 209.88 166.771 209.768C166.523 209.656 166.247 209.6 165.943 209.6C165.527 209.6 165.171 209.716 164.875 209.948C164.587 210.18 164.371 210.484 164.227 210.86C164.083 211.228 164.011 211.624 164.011 212.048C164.011 212.472 164.083 212.872 164.227 213.248C164.371 213.616 164.591 213.916 164.887 214.148C165.183 214.372 165.547 214.484 165.979 214.484C166.299 214.484 166.579 214.428 166.819 214.316C167.067 214.196 167.343 213.972 167.647 213.644C167.711 213.58 167.771 213.548 167.827 213.548C167.891 213.548 167.947 213.572 167.995 213.62L168.163 213.752C168.219 213.8 168.247 213.856 168.247 213.92C168.247 213.984 168.211 214.06 168.139 214.148C167.803 214.516 167.467 214.776 167.131 214.928C166.795 215.08 166.415 215.156 165.991 215.156ZM171.741 209.036C171.941 209.036 172.177 209.068 172.449 209.132C172.593 209.18 172.649 209.28 172.617 209.432L172.569 209.624C172.529 209.776 172.429 209.832 172.269 209.792C172.077 209.744 171.901 209.72 171.741 209.72C171.333 209.72 170.993 209.896 170.721 210.248C170.457 210.6 170.325 211.088 170.325 211.712V214.76C170.325 214.92 170.245 215 170.085 215H169.773C169.613 215 169.533 214.92 169.533 214.76V209.324C169.533 209.164 169.613 209.084 169.773 209.084H170.037C170.197 209.084 170.277 209.164 170.277 209.324V209.984C170.413 209.688 170.605 209.456 170.853 209.288C171.109 209.12 171.405 209.036 171.741 209.036ZM177.533 209.324C177.533 209.164 177.613 209.084 177.773 209.084H178.085C178.245 209.084 178.325 209.164 178.325 209.324V214.76C178.325 214.92 178.245 215 178.085 215H177.833C177.673 215 177.593 214.92 177.593 214.76V214.22C177.417 214.532 177.165 214.768 176.837 214.928C176.517 215.08 176.165 215.156 175.781 215.156C175.061 215.156 174.529 214.976 174.185 214.616C173.841 214.248 173.669 213.776 173.669 213.2V209.324C173.669 209.164 173.749 209.084 173.909 209.084H174.221C174.381 209.084 174.461 209.164 174.461 209.324V213.032C174.461 213.504 174.577 213.864 174.809 214.112C175.049 214.352 175.389 214.472 175.829 214.472C176.325 214.472 176.733 214.32 177.053 214.016C177.373 213.712 177.533 213.28 177.533 212.72V209.324ZM186.115 208.94C186.755 208.94 187.243 209.124 187.579 209.492C187.923 209.852 188.095 210.316 188.095 210.884V214.76C188.095 214.92 188.015 215 187.855 215H187.543C187.383 215 187.303 214.92 187.303 214.76V211.1C187.303 210.62 187.191 210.252 186.967 209.996C186.751 209.74 186.427 209.612 185.995 209.612C185.539 209.612 185.175 209.764 184.903 210.068C184.631 210.372 184.495 210.764 184.495 211.244V214.76C184.495 214.92 184.415 215 184.255 215H183.943C183.783 215 183.703 214.92 183.703 214.76V211.1C183.703 210.62 183.591 210.252 183.367 209.996C183.151 209.74 182.823 209.612 182.383 209.612C181.975 209.612 181.635 209.74 181.363 209.996C181.099 210.252 180.943 210.588 180.895 211.004V214.76C180.895 214.92 180.815 215 180.655 215H180.343C180.183 215 180.103 214.92 180.103 214.76V209.324C180.103 209.164 180.183 209.084 180.343 209.084H180.607C180.767 209.084 180.847 209.164 180.847 209.324V209.816C181.207 209.232 181.779 208.94 182.563 208.94C182.971 208.94 183.319 209.032 183.607 209.216C183.903 209.392 184.123 209.632 184.267 209.936C184.691 209.272 185.307 208.94 186.115 208.94ZM192.673 208.952C193.177 208.952 193.625 209.084 194.017 209.348C194.417 209.604 194.725 209.968 194.941 210.44C195.165 210.904 195.277 211.44 195.277 212.048C195.277 212.656 195.165 213.196 194.941 213.668C194.717 214.132 194.405 214.496 194.005 214.76C193.613 215.016 193.169 215.144 192.673 215.144C191.721 215.144 191.025 214.776 190.585 214.04V214.76C190.585 214.92 190.505 215 190.345 215H190.081C189.921 215 189.841 214.92 189.841 214.76V206.708C189.841 206.548 189.921 206.468 190.081 206.468H190.393C190.553 206.468 190.633 206.548 190.633 206.708V210.02C191.073 209.308 191.753 208.952 192.673 208.952ZM192.613 214.472C193.165 214.472 193.609 214.248 193.945 213.8C194.289 213.352 194.461 212.768 194.461 212.048C194.461 211.328 194.289 210.744 193.945 210.296C193.609 209.848 193.165 209.624 192.613 209.624C192.021 209.624 191.537 209.84 191.161 210.272C190.785 210.704 190.597 211.296 190.597 212.048C190.597 212.808 190.781 213.404 191.149 213.836C191.525 214.26 192.013 214.472 192.613 214.472ZM199.703 215C199.543 215 199.463 214.92 199.463 214.76V206.72C199.463 206.56 199.543 206.48 199.703 206.48H200.015C200.175 206.48 200.255 206.56 200.255 206.72V214.76C200.255 214.92 200.175 215 200.015 215H199.703ZM202.436 207.584C202.276 207.584 202.14 207.528 202.028 207.416C201.924 207.304 201.872 207.168 201.872 207.008C201.872 206.848 201.924 206.716 202.028 206.612C202.14 206.508 202.276 206.456 202.436 206.456C202.604 206.456 202.74 206.508 202.844 206.612C202.956 206.716 203.012 206.848 203.012 207.008C203.012 207.168 202.956 207.304 202.844 207.416C202.74 207.528 202.604 207.584 202.436 207.584ZM202.28 215C202.12 215 202.04 214.92 202.04 214.76V209.324C202.04 209.164 202.12 209.084 202.28 209.084H202.592C202.752 209.084 202.832 209.164 202.832 209.324V214.76C202.832 214.92 202.752 215 202.592 215H202.28ZM206.659 215.156C206.171 215.156 205.739 215.088 205.363 214.952C204.995 214.808 204.607 214.568 204.199 214.232C204.127 214.184 204.091 214.128 204.091 214.064C204.091 214.008 204.119 213.952 204.175 213.896L204.331 213.728C204.379 213.664 204.439 213.632 204.511 213.632C204.567 213.632 204.619 213.656 204.667 213.704C205.051 214 205.391 214.208 205.687 214.328C205.983 214.44 206.307 214.496 206.659 214.496C207.099 214.496 207.459 214.4 207.739 214.208C208.019 214.008 208.159 213.74 208.159 213.404C208.159 213.068 208.015 212.82 207.727 212.66C207.439 212.5 206.995 212.356 206.395 212.228C205.867 212.116 205.451 212 205.147 211.88C204.851 211.752 204.631 211.592 204.487 211.4C204.343 211.208 204.271 210.956 204.271 210.644C204.271 210.132 204.479 209.72 204.895 209.408C205.311 209.096 205.835 208.94 206.467 208.94C206.899 208.94 207.283 208.996 207.619 209.108C207.963 209.212 208.307 209.388 208.651 209.636C208.723 209.692 208.759 209.752 208.759 209.816C208.759 209.856 208.739 209.908 208.699 209.972L208.555 210.152C208.515 210.216 208.459 210.248 208.387 210.248C208.323 210.248 208.267 210.228 208.219 210.188C207.891 209.956 207.599 209.8 207.343 209.72C207.095 209.64 206.811 209.6 206.491 209.6C206.051 209.6 205.699 209.696 205.435 209.888C205.171 210.08 205.039 210.324 205.039 210.62C205.039 210.804 205.099 210.952 205.219 211.064C205.339 211.176 205.511 211.272 205.735 211.352C205.959 211.424 206.287 211.508 206.719 211.604C207.519 211.78 208.087 211.996 208.423 212.252C208.767 212.508 208.939 212.88 208.939 213.368C208.939 213.904 208.727 214.336 208.303 214.664C207.879 214.992 207.331 215.156 206.659 215.156ZM212.919 214.34C212.943 214.332 212.975 214.328 213.015 214.328C213.063 214.328 213.107 214.344 213.147 214.376C213.187 214.408 213.211 214.452 213.219 214.508L213.255 214.676C213.263 214.692 213.267 214.72 213.267 214.76C213.267 214.872 213.207 214.94 213.087 214.964C212.799 215.052 212.491 215.096 212.163 215.096C211.643 215.096 211.271 214.98 211.047 214.748C210.831 214.508 210.723 214.164 210.723 213.716V209.684H209.835C209.675 209.684 209.595 209.604 209.595 209.444V209.324C209.595 209.164 209.675 209.084 209.835 209.084H210.723V207.26C210.723 207.1 210.803 207.02 210.963 207.02H211.275C211.435 207.02 211.515 207.1 211.515 207.26V209.084H212.955C213.115 209.084 213.195 209.164 213.195 209.324V209.444C213.195 209.604 213.115 209.684 212.955 209.684H211.515V213.62C211.515 213.916 211.571 214.124 211.683 214.244C211.795 214.364 211.987 214.424 212.259 214.424C212.451 214.424 212.671 214.396 212.919 214.34Z" fill="#464646"/>
<path d="M86 139C86 139.552 86.4477 140 87 140C87.5523 140 88 139.552 88 139L86 139ZM86 119L86 139L88 139L88 119L86 119Z" fill="#06BEFB"/>
<circle cx="87" cy="142" r="3" fill="#06BEFB"/>
<path d="M257 139C257 139.552 257.448 140 258 140C258.552 140 259 139.552 259 139L257 139ZM257 97L257 139L259 139L259 97L257 97Z" fill="#06BEFB"/>
<circle cx="258" cy="142" r="3" fill="#06BEFB"/>
<path d="M221 139C221 139.552 221.448 140 222 140C222.552 140 223 139.552 223 139L221 139ZM221 119L221 139L223 139L223 119L221 119Z" fill="#06BEFB"/>
<circle cx="222" cy="142" r="3" fill="#06BEFB"/>
<path d="M49 159C49 158.448 48.5523 158 48 158C47.4477 158 47 158.448 47 159L49 159ZM47 159L47 173L49 173L49 159L47 159Z" fill="#06BEFB"/>
<path d="M297 159C297 158.448 296.552 158 296 158C295.448 158 295 158.448 295 159L297 159ZM295 159L295 173L297 173L297 159L295 159Z" fill="#06BEFB"/>
<path d="M172 173L172 199" stroke="#06BEFB" stroke-width="2"/>
<path d="M297 173L47 173" stroke="#06BEFB" stroke-width="2"/>
</svg>
