<svg width="344" height="168" viewBox="0 0 344 168" fill="none" xmlns="http://www.w3.org/2000/svg">
<rect width="344" height="168" fill="#F5F5F5"/>
<path d="M39.696 89C39.4827 89 39.376 88.8933 39.376 88.68V77.96C39.376 77.7467 39.4827 77.64 39.696 77.64H46.416C46.6293 77.64 46.736 77.7467 46.736 77.96V78.264C46.736 78.4773 46.6293 78.584 46.416 78.584H40.512V82.904H45.92C46.1333 82.904 46.24 83.0107 46.24 83.224V83.528C46.24 83.7413 46.1333 83.848 45.92 83.848H40.512V88.68C40.512 88.8933 40.4053 89 40.192 89H39.696ZM53.5384 81.432C53.5384 81.2187 53.645 81.112 53.8584 81.112H54.2744C54.4877 81.112 54.5944 81.2187 54.5944 81.432V88.68C54.5944 88.8933 54.4877 89 54.2744 89H53.9384C53.725 89 53.6184 88.8933 53.6184 88.68V87.96C53.3837 88.376 53.0477 88.6907 52.6104 88.904C52.1837 89.1067 51.7144 89.208 51.2024 89.208C50.2424 89.208 49.533 88.968 49.0744 88.488C48.6157 87.9973 48.3864 87.368 48.3864 86.6V81.432C48.3864 81.2187 48.493 81.112 48.7064 81.112H49.1224C49.3357 81.112 49.4424 81.2187 49.4424 81.432V86.376C49.4424 87.0053 49.597 87.4853 49.9064 87.816C50.2264 88.136 50.6797 88.296 51.2664 88.296C51.9277 88.296 52.4717 88.0933 52.8984 87.688C53.325 87.2827 53.5384 86.7067 53.5384 85.96V81.432ZM59.9093 81.048C60.1759 81.048 60.4906 81.0907 60.8533 81.176C61.0453 81.24 61.1199 81.3733 61.0773 81.576L61.0133 81.832C60.9599 82.0347 60.8266 82.1093 60.6133 82.056C60.3573 81.992 60.1226 81.96 59.9093 81.96C59.3653 81.96 58.9119 82.1947 58.5493 82.664C58.1973 83.1333 58.0213 83.784 58.0213 84.616V88.68C58.0213 88.8933 57.9146 89 57.7013 89H57.2853C57.0719 89 56.9653 88.8933 56.9653 88.68V81.432C56.9653 81.2187 57.0719 81.112 57.2853 81.112H57.6373C57.8506 81.112 57.9573 81.2187 57.9573 81.432V82.312C58.1386 81.9173 58.3946 81.608 58.7253 81.384C59.0666 81.16 59.4613 81.048 59.9093 81.048ZM66.0321 80.92C66.9601 80.92 67.6588 81.176 68.1281 81.688C68.6081 82.2 68.8481 82.84 68.8481 83.608V88.68C68.8481 88.8933 68.7415 89 68.5281 89H68.1121C67.8988 89 67.7921 88.8933 67.7921 88.68V83.96C67.7921 83.256 67.6215 82.7227 67.2801 82.36C66.9388 81.9973 66.4481 81.816 65.8081 81.816C65.4028 81.816 65.0295 81.9173 64.6881 82.12C64.3468 82.312 64.0748 82.5787 63.8721 82.92C63.6695 83.2613 63.5681 83.6347 63.5681 84.04V88.68C63.5681 88.8933 63.4615 89 63.2481 89H62.8321C62.6188 89 62.5121 88.8933 62.5121 88.68V81.432C62.5121 81.2187 62.6188 81.112 62.8321 81.112H63.1841C63.3975 81.112 63.5041 81.2187 63.5041 81.432V82.2C63.7708 81.7733 64.1228 81.4533 64.5601 81.24C64.9975 81.0267 65.4881 80.92 66.0321 80.92ZM71.712 79.112C71.4987 79.112 71.3173 79.0373 71.168 78.888C71.0293 78.7387 70.96 78.5573 70.96 78.344C70.96 78.1307 71.0293 77.9547 71.168 77.816C71.3173 77.6773 71.4987 77.608 71.712 77.608C71.936 77.608 72.1173 77.6773 72.256 77.816C72.4053 77.9547 72.48 78.1307 72.48 78.344C72.48 78.5573 72.4053 78.7387 72.256 78.888C72.1173 79.0373 71.936 79.112 71.712 79.112ZM71.504 89C71.2907 89 71.184 88.8933 71.184 88.68V81.432C71.184 81.2187 71.2907 81.112 71.504 81.112H71.92C72.1333 81.112 72.24 81.2187 72.24 81.432V88.68C72.24 88.8933 72.1333 89 71.92 89H71.504ZM78.1423 88.12C78.1743 88.1093 78.2169 88.104 78.2703 88.104C78.3343 88.104 78.3929 88.1253 78.4463 88.168C78.4996 88.2107 78.5316 88.2693 78.5423 88.344L78.5903 88.568C78.6009 88.5893 78.6063 88.6267 78.6063 88.68C78.6063 88.8293 78.5263 88.92 78.3663 88.952C77.9823 89.0693 77.5716 89.128 77.1343 89.128C76.4409 89.128 75.9449 88.9733 75.6463 88.664C75.3583 88.344 75.2143 87.8853 75.2143 87.288V81.912H74.0303C73.8169 81.912 73.7103 81.8053 73.7103 81.592V81.432C73.7103 81.2187 73.8169 81.112 74.0303 81.112H75.2143V78.68C75.2143 78.4667 75.3209 78.36 75.5343 78.36H75.9503C76.1636 78.36 76.2703 78.4667 76.2703 78.68V81.112H78.1903C78.4036 81.112 78.5103 81.2187 78.5103 81.432V81.592C78.5103 81.8053 78.4036 81.912 78.1903 81.912H76.2703V87.16C76.2703 87.5547 76.3449 87.832 76.4943 87.992C76.6436 88.152 76.8996 88.232 77.2623 88.232C77.5183 88.232 77.8116 88.1947 78.1423 88.12ZM85.179 81.432C85.179 81.2187 85.2857 81.112 85.499 81.112H85.915C86.1283 81.112 86.235 81.2187 86.235 81.432V88.68C86.235 88.8933 86.1283 89 85.915 89H85.579C85.3657 89 85.259 88.8933 85.259 88.68V87.96C85.0243 88.376 84.6883 88.6907 84.251 88.904C83.8243 89.1067 83.355 89.208 82.843 89.208C81.883 89.208 81.1737 88.968 80.715 88.488C80.2563 87.9973 80.027 87.368 80.027 86.6V81.432C80.027 81.2187 80.1337 81.112 80.347 81.112H80.763C80.9763 81.112 81.083 81.2187 81.083 81.432V86.376C81.083 87.0053 81.2377 87.4853 81.547 87.816C81.867 88.136 82.3203 88.296 82.907 88.296C83.5683 88.296 84.1123 88.0933 84.539 87.688C84.9657 87.2827 85.179 86.7067 85.179 85.96V81.432ZM91.5499 81.048C91.8165 81.048 92.1312 81.0907 92.4939 81.176C92.6859 81.24 92.7605 81.3733 92.7179 81.576L92.6539 81.832C92.6005 82.0347 92.4672 82.1093 92.2539 82.056C91.9979 81.992 91.7632 81.96 91.5499 81.96C91.0059 81.96 90.5525 82.1947 90.1899 82.664C89.8379 83.1333 89.6619 83.784 89.6619 84.616V88.68C89.6619 88.8933 89.5552 89 89.3419 89H88.9259C88.7125 89 88.6059 88.8933 88.6059 88.68V81.432C88.6059 81.2187 88.7125 81.112 88.9259 81.112H89.2779C89.4912 81.112 89.5979 81.2187 89.5979 81.432V82.312C89.7792 81.9173 90.0352 81.608 90.3659 81.384C90.7072 81.16 91.1019 81.048 91.5499 81.048ZM99.4593 87.128C99.5339 87.0533 99.6139 87.016 99.6993 87.016C99.7739 87.016 99.8433 87.048 99.9073 87.112L100.115 87.304C100.19 87.3787 100.227 87.4587 100.227 87.544C100.227 87.608 100.195 87.6827 100.131 87.768C99.6086 88.2907 99.1019 88.664 98.6113 88.888C98.1206 89.1013 97.5713 89.208 96.9633 89.208C96.1953 89.208 95.5286 89.0373 94.9633 88.696C94.3979 88.3547 93.9606 87.88 93.6513 87.272C93.3419 86.6533 93.1873 85.9387 93.1873 85.128C93.1873 84.3067 93.3366 83.5813 93.6353 82.952C93.9446 82.312 94.3766 81.816 94.9313 81.464C95.4859 81.1013 96.1259 80.92 96.8513 80.92C97.9286 80.92 98.7766 81.256 99.3953 81.928C100.014 82.6 100.323 83.5067 100.323 84.648V84.84C100.313 84.936 100.275 85.0107 100.211 85.064C100.158 85.1173 100.083 85.144 99.9873 85.144H94.2593C94.2913 86.04 94.5259 86.7973 94.9633 87.416C95.4113 88.024 96.0779 88.328 96.9633 88.328C97.4433 88.328 97.8646 88.2427 98.2273 88.072C98.6006 87.8907 99.0113 87.576 99.4593 87.128ZM96.8513 81.8C96.1473 81.8 95.5659 82.0187 95.1073 82.456C94.6593 82.8827 94.3873 83.512 94.2913 84.344H99.2673C99.2459 83.5653 99.0219 82.9467 98.5953 82.488C98.1686 82.0293 97.5873 81.8 96.8513 81.8Z" fill="#0063FB"/>
<path d="M108.816 89C108.624 89 108.528 88.9253 108.528 88.776C108.528 88.744 108.539 88.696 108.56 88.632L113.248 77.88C113.312 77.72 113.44 77.64 113.632 77.64H113.968C114.16 77.64 114.256 77.7147 114.256 77.864C114.256 77.896 114.245 77.944 114.224 78.008L109.536 88.76C109.472 88.92 109.344 89 109.152 89H108.816Z" fill="#767676"/>
<path d="M122.696 89C122.483 89 122.376 88.8933 122.376 88.68V77.96C122.376 77.7467 122.483 77.64 122.696 77.64H126.44C127.496 77.64 128.397 77.88 129.144 78.36C129.891 78.84 130.456 79.5067 130.84 80.36C131.224 81.2133 131.416 82.2 131.416 83.32C131.416 84.44 131.224 85.4267 130.84 86.28C130.456 87.1333 129.891 87.8 129.144 88.28C128.397 88.76 127.496 89 126.44 89H122.696ZM126.248 88.056C127.539 88.056 128.531 87.6347 129.224 86.792C129.917 85.9387 130.264 84.7813 130.264 83.32C130.264 81.8693 129.917 80.7173 129.224 79.864C128.531 79.0107 127.539 78.584 126.248 78.584H123.512V88.056H126.248ZM139.272 87.128C139.346 87.0533 139.426 87.016 139.512 87.016C139.586 87.016 139.656 87.048 139.72 87.112L139.928 87.304C140.002 87.3787 140.04 87.4587 140.04 87.544C140.04 87.608 140.008 87.6827 139.944 87.768C139.421 88.2907 138.914 88.664 138.424 88.888C137.933 89.1013 137.384 89.208 136.776 89.208C136.008 89.208 135.341 89.0373 134.776 88.696C134.21 88.3547 133.773 87.88 133.464 87.272C133.154 86.6533 133 85.9387 133 85.128C133 84.3067 133.149 83.5813 133.448 82.952C133.757 82.312 134.189 81.816 134.744 81.464C135.298 81.1013 135.938 80.92 136.664 80.92C137.741 80.92 138.589 81.256 139.208 81.928C139.826 82.6 140.136 83.5067 140.136 84.648V84.84C140.125 84.936 140.088 85.0107 140.024 85.064C139.97 85.1173 139.896 85.144 139.8 85.144H134.072C134.104 86.04 134.338 86.7973 134.776 87.416C135.224 88.024 135.89 88.328 136.776 88.328C137.256 88.328 137.677 88.2427 138.04 88.072C138.413 87.8907 138.824 87.576 139.272 87.128ZM136.664 81.8C135.96 81.8 135.378 82.0187 134.92 82.456C134.472 82.8827 134.2 83.512 134.104 84.344H139.08C139.058 83.5653 138.834 82.9467 138.408 82.488C137.981 82.0293 137.4 81.8 136.664 81.8ZM145.243 89.208C144.486 89.208 143.825 89.0373 143.259 88.696C142.705 88.344 142.273 87.8587 141.963 87.24C141.665 86.6107 141.515 85.8853 141.515 85.064C141.515 84.2533 141.665 83.5333 141.963 82.904C142.273 82.2747 142.705 81.7893 143.259 81.448C143.825 81.096 144.475 80.92 145.211 80.92C145.809 80.92 146.331 81.0213 146.779 81.224C147.227 81.416 147.659 81.736 148.075 82.184C148.139 82.248 148.171 82.3173 148.171 82.392C148.171 82.488 148.129 82.568 148.043 82.632L147.819 82.84C147.755 82.904 147.681 82.936 147.595 82.936C147.521 82.936 147.441 82.8933 147.355 82.808C146.982 82.4347 146.625 82.1733 146.283 82.024C145.953 81.8747 145.585 81.8 145.179 81.8C144.625 81.8 144.15 81.9547 143.755 82.264C143.371 82.5733 143.083 82.9787 142.891 83.48C142.699 83.9707 142.603 84.4987 142.603 85.064C142.603 85.6293 142.699 86.1627 142.891 86.664C143.083 87.1547 143.377 87.5547 143.771 87.864C144.166 88.1627 144.651 88.312 145.227 88.312C145.654 88.312 146.027 88.2373 146.347 88.088C146.678 87.928 147.046 87.6293 147.451 87.192C147.537 87.1067 147.617 87.064 147.691 87.064C147.777 87.064 147.851 87.096 147.915 87.16L148.139 87.336C148.214 87.4 148.251 87.4747 148.251 87.56C148.251 87.6453 148.203 87.7467 148.107 87.864C147.659 88.3547 147.211 88.7013 146.763 88.904C146.315 89.1067 145.809 89.208 145.243 89.208ZM153.073 89.208C152.337 89.208 151.681 89.032 151.105 88.68C150.529 88.328 150.081 87.8427 149.761 87.224C149.441 86.5947 149.281 85.8747 149.281 85.064C149.281 84.2533 149.441 83.5387 149.761 82.92C150.081 82.2907 150.529 81.8 151.105 81.448C151.681 81.096 152.337 80.92 153.073 80.92C153.809 80.92 154.465 81.096 155.041 81.448C155.617 81.8 156.065 82.2907 156.385 82.92C156.705 83.5387 156.865 84.2533 156.865 85.064C156.865 85.8747 156.705 86.5947 156.385 87.224C156.065 87.8427 155.617 88.328 155.041 88.68C154.465 89.032 153.809 89.208 153.073 89.208ZM153.073 88.328C153.894 88.328 154.55 88.0293 155.041 87.432C155.532 86.824 155.777 86.0347 155.777 85.064C155.777 84.0933 155.532 83.3093 155.041 82.712C154.55 82.104 153.894 81.8 153.073 81.8C152.252 81.8 151.596 82.104 151.105 82.712C150.614 83.3093 150.369 84.0933 150.369 85.064C150.369 86.0347 150.614 86.824 151.105 87.432C151.596 88.0293 152.252 88.328 153.073 88.328ZM161.644 81.048C161.91 81.048 162.225 81.0907 162.588 81.176C162.78 81.24 162.854 81.3733 162.812 81.576L162.748 81.832C162.694 82.0347 162.561 82.1093 162.348 82.056C162.092 81.992 161.857 81.96 161.644 81.96C161.1 81.96 160.646 82.1947 160.284 82.664C159.932 83.1333 159.756 83.784 159.756 84.616V88.68C159.756 88.8933 159.649 89 159.436 89H159.02C158.806 89 158.7 88.8933 158.7 88.68V81.432C158.7 81.2187 158.806 81.112 159.02 81.112H159.372C159.585 81.112 159.692 81.2187 159.692 81.432V82.312C159.873 81.9173 160.129 81.608 160.46 81.384C160.801 81.16 161.196 81.048 161.644 81.048ZM167.083 80.92C168.054 80.92 168.811 81.1547 169.355 81.624C169.899 82.0827 170.171 82.6907 170.171 83.448V88.68C170.171 88.8933 170.065 89 169.851 89H169.531C169.318 89 169.211 88.8933 169.211 88.68V87.96C168.945 88.3867 168.566 88.7067 168.075 88.92C167.595 89.1333 167.057 89.24 166.459 89.24C165.627 89.24 164.95 89.064 164.427 88.712C163.905 88.36 163.643 87.816 163.643 87.08C163.643 86.4933 163.809 86.024 164.139 85.672C164.47 85.3093 164.902 85.0373 165.435 84.856C165.969 84.664 166.635 84.4933 167.435 84.344L169.163 84.04V83.528C169.163 82.984 168.977 82.5627 168.603 82.264C168.23 81.9547 167.739 81.8 167.131 81.8C166.673 81.8 166.257 81.8853 165.883 82.056C165.51 82.2267 165.11 82.52 164.683 82.936C164.609 83.0107 164.529 83.048 164.443 83.048C164.369 83.048 164.299 83.016 164.235 82.952L164.027 82.76C163.953 82.6853 163.915 82.6053 163.915 82.52C163.915 82.424 163.953 82.3387 164.027 82.264C164.475 81.7947 164.945 81.4533 165.435 81.24C165.937 81.0267 166.486 80.92 167.083 80.92ZM166.507 88.36C167.275 88.36 167.91 88.1573 168.411 87.752C168.913 87.3467 169.163 86.8293 169.163 86.2V84.856L167.675 85.144C166.982 85.2827 166.433 85.416 166.027 85.544C165.622 85.672 165.297 85.8587 165.051 86.104C164.806 86.3493 164.683 86.6693 164.683 87.064C164.683 87.4693 164.843 87.7893 165.163 88.024C165.494 88.248 165.942 88.36 166.507 88.36ZM175.845 88.12C175.877 88.1093 175.92 88.104 175.973 88.104C176.037 88.104 176.096 88.1253 176.149 88.168C176.203 88.2107 176.235 88.2693 176.245 88.344L176.293 88.568C176.304 88.5893 176.309 88.6267 176.309 88.68C176.309 88.8293 176.229 88.92 176.069 88.952C175.685 89.0693 175.275 89.128 174.837 89.128C174.144 89.128 173.648 88.9733 173.349 88.664C173.061 88.344 172.917 87.8853 172.917 87.288V81.912H171.733C171.52 81.912 171.413 81.8053 171.413 81.592V81.432C171.413 81.2187 171.52 81.112 171.733 81.112H172.917V78.68C172.917 78.4667 173.024 78.36 173.237 78.36H173.653C173.867 78.36 173.973 78.4667 173.973 78.68V81.112H175.893C176.107 81.112 176.213 81.2187 176.213 81.432V81.592C176.213 81.8053 176.107 81.912 175.893 81.912H173.973V87.16C173.973 87.5547 174.048 87.832 174.197 87.992C174.347 88.152 174.603 88.232 174.965 88.232C175.221 88.232 175.515 88.1947 175.845 88.12ZM178.353 79.112C178.139 79.112 177.958 79.0373 177.809 78.888C177.67 78.7387 177.601 78.5573 177.601 78.344C177.601 78.1307 177.67 77.9547 177.809 77.816C177.958 77.6773 178.139 77.608 178.353 77.608C178.577 77.608 178.758 77.6773 178.897 77.816C179.046 77.9547 179.121 78.1307 179.121 78.344C179.121 78.5573 179.046 78.7387 178.897 78.888C178.758 79.0373 178.577 79.112 178.353 79.112ZM178.145 89C177.931 89 177.825 88.8933 177.825 88.68V81.432C177.825 81.2187 177.931 81.112 178.145 81.112H178.561C178.774 81.112 178.881 81.2187 178.881 81.432V88.68C178.881 88.8933 178.774 89 178.561 89H178.145ZM184.495 89.208C183.759 89.208 183.103 89.032 182.527 88.68C181.951 88.328 181.503 87.8427 181.183 87.224C180.863 86.5947 180.703 85.8747 180.703 85.064C180.703 84.2533 180.863 83.5387 181.183 82.92C181.503 82.2907 181.951 81.8 182.527 81.448C183.103 81.096 183.759 80.92 184.495 80.92C185.231 80.92 185.887 81.096 186.463 81.448C187.039 81.8 187.487 82.2907 187.807 82.92C188.127 83.5387 188.287 84.2533 188.287 85.064C188.287 85.8747 188.127 86.5947 187.807 87.224C187.487 87.8427 187.039 88.328 186.463 88.68C185.887 89.032 185.231 89.208 184.495 89.208ZM184.495 88.328C185.316 88.328 185.972 88.0293 186.463 87.432C186.954 86.824 187.199 86.0347 187.199 85.064C187.199 84.0933 186.954 83.3093 186.463 82.712C185.972 82.104 185.316 81.8 184.495 81.8C183.674 81.8 183.018 82.104 182.527 82.712C182.036 83.3093 181.791 84.0933 181.791 85.064C181.791 86.0347 182.036 86.824 182.527 87.432C183.018 88.0293 183.674 88.328 184.495 88.328ZM193.641 80.92C194.57 80.92 195.268 81.176 195.738 81.688C196.218 82.2 196.458 82.84 196.458 83.608V88.68C196.458 88.8933 196.351 89 196.138 89H195.722C195.508 89 195.402 88.8933 195.402 88.68V83.96C195.402 83.256 195.231 82.7227 194.89 82.36C194.548 81.9973 194.058 81.816 193.418 81.816C193.012 81.816 192.639 81.9173 192.298 82.12C191.956 82.312 191.684 82.5787 191.482 82.92C191.279 83.2613 191.178 83.6347 191.178 84.04V88.68C191.178 88.8933 191.071 89 190.858 89H190.442C190.228 89 190.122 88.8933 190.122 88.68V81.432C190.122 81.2187 190.228 81.112 190.442 81.112H190.794C191.007 81.112 191.114 81.2187 191.114 81.432V82.2C191.38 81.7733 191.732 81.4533 192.17 81.24C192.607 81.0267 193.098 80.92 193.641 80.92Z" fill="#0063FB"/>
<path d="M204.816 89C204.624 89 204.528 88.9253 204.528 88.776C204.528 88.744 204.539 88.696 204.56 88.632L209.248 77.88C209.312 77.72 209.44 77.64 209.632 77.64H209.968C210.16 77.64 210.256 77.7147 210.256 77.864C210.256 77.896 210.245 77.944 210.224 78.008L205.536 88.76C205.472 88.92 205.344 89 205.152 89H204.816Z" fill="#767676"/>
<path d="M222.968 89.24C221.88 89.24 220.941 88.9893 220.152 88.488C219.363 87.976 218.76 87.272 218.344 86.376C217.928 85.48 217.72 84.4613 217.72 83.32C217.72 82.168 217.928 81.144 218.344 80.248C218.76 79.352 219.368 78.6533 220.168 78.152C220.979 77.6507 221.949 77.4 223.08 77.4C223.731 77.4 224.339 77.5067 224.904 77.72C225.469 77.9227 226.072 78.2747 226.712 78.776C226.808 78.84 226.856 78.9147 226.856 79C226.856 79.064 226.824 79.1387 226.76 79.224L226.536 79.512C226.472 79.5973 226.397 79.64 226.312 79.64C226.227 79.64 226.147 79.608 226.072 79.544C225.496 79.096 224.973 78.792 224.504 78.632C224.045 78.4613 223.571 78.376 223.08 78.376C222.216 78.376 221.464 78.5893 220.824 79.016C220.195 79.432 219.709 80.0133 219.368 80.76C219.027 81.5067 218.856 82.36 218.856 83.32C218.856 84.2693 219.027 85.1227 219.368 85.88C219.709 86.6267 220.189 87.2133 220.808 87.64C221.427 88.056 222.141 88.264 222.952 88.264C223.592 88.264 224.157 88.1413 224.648 87.896C225.149 87.64 225.683 87.2453 226.248 86.712C226.333 86.648 226.408 86.616 226.472 86.616C226.557 86.616 226.637 86.6533 226.712 86.728L226.968 87.016C227.032 87.08 227.064 87.1493 227.064 87.224C227.064 87.32 227.011 87.416 226.904 87.512C226.243 88.1413 225.613 88.5893 225.016 88.856C224.419 89.112 223.736 89.24 222.968 89.24ZM231.911 80.92C232.882 80.92 233.64 81.1547 234.184 81.624C234.728 82.0827 235 82.6907 235 83.448V88.68C235 88.8933 234.893 89 234.68 89H234.36C234.146 89 234.04 88.8933 234.04 88.68V87.96C233.773 88.3867 233.394 88.7067 232.904 88.92C232.424 89.1333 231.885 89.24 231.288 89.24C230.456 89.24 229.778 89.064 229.256 88.712C228.733 88.36 228.472 87.816 228.472 87.08C228.472 86.4933 228.637 86.024 228.968 85.672C229.298 85.3093 229.73 85.0373 230.264 84.856C230.797 84.664 231.464 84.4933 232.264 84.344L233.992 84.04V83.528C233.992 82.984 233.805 82.5627 233.432 82.264C233.058 81.9547 232.568 81.8 231.96 81.8C231.501 81.8 231.085 81.8853 230.712 82.056C230.338 82.2267 229.938 82.52 229.512 82.936C229.437 83.0107 229.357 83.048 229.272 83.048C229.197 83.048 229.128 83.016 229.064 82.952L228.856 82.76C228.781 82.6853 228.743 82.6053 228.743 82.52C228.743 82.424 228.781 82.3387 228.856 82.264C229.304 81.7947 229.773 81.4533 230.264 81.24C230.765 81.0267 231.314 80.92 231.911 80.92ZM231.336 88.36C232.104 88.36 232.738 88.1573 233.24 87.752C233.741 87.3467 233.992 86.8293 233.992 86.2V84.856L232.504 85.144C231.81 85.2827 231.261 85.416 230.856 85.544C230.45 85.672 230.125 85.8587 229.88 86.104C229.634 86.3493 229.512 86.6693 229.512 87.064C229.512 87.4693 229.672 87.7893 229.992 88.024C230.322 88.248 230.77 88.36 231.336 88.36ZM240.86 80.92C241.788 80.92 242.487 81.176 242.956 81.688C243.436 82.2 243.676 82.84 243.676 83.608V88.68C243.676 88.8933 243.57 89 243.356 89H242.94C242.727 89 242.62 88.8933 242.62 88.68V83.96C242.62 83.256 242.45 82.7227 242.108 82.36C241.767 81.9973 241.276 81.816 240.636 81.816C240.231 81.816 239.858 81.9173 239.516 82.12C239.175 82.312 238.903 82.5787 238.7 82.92C238.498 83.2613 238.396 83.6347 238.396 84.04V88.68C238.396 88.8933 238.29 89 238.076 89H237.66C237.447 89 237.34 88.8933 237.34 88.68V81.432C237.34 81.2187 237.447 81.112 237.66 81.112H238.012C238.226 81.112 238.332 81.2187 238.332 81.432V82.2C238.599 81.7733 238.951 81.4533 239.388 81.24C239.826 81.0267 240.316 80.92 240.86 80.92ZM251.708 77.96C251.708 77.7467 251.815 77.64 252.028 77.64H252.444C252.657 77.64 252.764 77.7467 252.764 77.96V88.68C252.764 88.8933 252.657 89 252.444 89H252.108C251.895 89 251.788 88.8933 251.788 88.68V87.64C251.5 88.1413 251.121 88.5253 250.652 88.792C250.183 89.0587 249.628 89.192 248.988 89.192C248.316 89.192 247.719 89.0213 247.196 88.68C246.673 88.328 246.263 87.8427 245.964 87.224C245.665 86.5947 245.516 85.8747 245.516 85.064C245.516 84.2533 245.665 83.5387 245.964 82.92C246.273 82.2907 246.695 81.8053 247.228 81.464C247.761 81.112 248.359 80.936 249.02 80.936C250.236 80.936 251.132 81.3893 251.708 82.296V77.96ZM249.068 88.296C249.868 88.296 250.513 88.0133 251.004 87.448C251.505 86.872 251.756 86.0773 251.756 85.064C251.756 84.0613 251.505 83.272 251.004 82.696C250.513 82.12 249.868 81.832 249.068 81.832C248.332 81.832 247.735 82.1307 247.276 82.728C246.828 83.3253 246.604 84.104 246.604 85.064C246.604 86.0347 246.828 86.8187 247.276 87.416C247.724 88.0027 248.321 88.296 249.068 88.296ZM255.473 89C255.26 89 255.153 88.8933 255.153 88.68V77.96C255.153 77.7467 255.26 77.64 255.473 77.64H255.889C256.102 77.64 256.209 77.7467 256.209 77.96V88.68C256.209 88.8933 256.102 89 255.889 89H255.473ZM264.334 87.128C264.409 87.0533 264.489 87.016 264.574 87.016C264.649 87.016 264.718 87.048 264.782 87.112L264.99 87.304C265.065 87.3787 265.102 87.4587 265.102 87.544C265.102 87.608 265.07 87.6827 265.006 87.768C264.484 88.2907 263.977 88.664 263.486 88.888C262.996 89.1013 262.446 89.208 261.838 89.208C261.07 89.208 260.404 89.0373 259.838 88.696C259.273 88.3547 258.836 87.88 258.526 87.272C258.217 86.6533 258.062 85.9387 258.062 85.128C258.062 84.3067 258.212 83.5813 258.51 82.952C258.82 82.312 259.252 81.816 259.806 81.464C260.361 81.1013 261.001 80.92 261.726 80.92C262.804 80.92 263.652 81.256 264.27 81.928C264.889 82.6 265.198 83.5067 265.198 84.648V84.84C265.188 84.936 265.15 85.0107 265.086 85.064C265.033 85.1173 264.958 85.144 264.862 85.144H259.134C259.166 86.04 259.401 86.7973 259.838 87.416C260.286 88.024 260.953 88.328 261.838 88.328C262.318 88.328 262.74 88.2427 263.102 88.072C263.476 87.8907 263.886 87.576 264.334 87.128ZM261.726 81.8C261.022 81.8 260.441 82.0187 259.982 82.456C259.534 82.8827 259.262 83.512 259.166 84.344H264.142C264.121 83.5653 263.897 82.9467 263.47 82.488C263.044 82.0293 262.462 81.8 261.726 81.8ZM269.905 89.208C269.254 89.208 268.678 89.1173 268.177 88.936C267.686 88.744 267.169 88.424 266.625 87.976C266.529 87.912 266.481 87.8373 266.481 87.752C266.481 87.6773 266.518 87.6027 266.593 87.528L266.801 87.304C266.865 87.2187 266.945 87.176 267.041 87.176C267.115 87.176 267.185 87.208 267.249 87.272C267.761 87.6667 268.214 87.944 268.609 88.104C269.003 88.2533 269.435 88.328 269.905 88.328C270.491 88.328 270.971 88.2 271.345 87.944C271.718 87.6773 271.905 87.32 271.905 86.872C271.905 86.424 271.713 86.0933 271.329 85.88C270.945 85.6667 270.353 85.4747 269.553 85.304C268.849 85.1547 268.294 85 267.889 84.84C267.494 84.6693 267.201 84.456 267.009 84.2C266.817 83.944 266.721 83.608 266.721 83.192C266.721 82.5093 266.998 81.96 267.553 81.544C268.107 81.128 268.806 80.92 269.649 80.92C270.225 80.92 270.737 80.9947 271.185 81.144C271.643 81.2827 272.102 81.5173 272.561 81.848C272.657 81.9227 272.705 82.0027 272.705 82.088C272.705 82.1413 272.678 82.2107 272.625 82.296L272.433 82.536C272.379 82.6213 272.305 82.664 272.209 82.664C272.123 82.664 272.049 82.6373 271.985 82.584C271.547 82.2747 271.158 82.0667 270.817 81.96C270.486 81.8533 270.107 81.8 269.681 81.8C269.094 81.8 268.625 81.928 268.273 82.184C267.921 82.44 267.745 82.7653 267.745 83.16C267.745 83.4053 267.825 83.6027 267.985 83.752C268.145 83.9013 268.374 84.0293 268.673 84.136C268.971 84.232 269.409 84.344 269.985 84.472C271.051 84.7067 271.809 84.9947 272.257 85.336C272.715 85.6773 272.945 86.1733 272.945 86.824C272.945 87.5387 272.662 88.1147 272.097 88.552C271.531 88.9893 270.801 89.208 269.905 89.208ZM278.252 88.12C278.284 88.1093 278.326 88.104 278.38 88.104C278.444 88.104 278.502 88.1253 278.556 88.168C278.609 88.2107 278.641 88.2693 278.652 88.344L278.7 88.568C278.71 88.5893 278.716 88.6267 278.716 88.68C278.716 88.8293 278.636 88.92 278.476 88.952C278.092 89.0693 277.681 89.128 277.244 89.128C276.55 89.128 276.054 88.9733 275.756 88.664C275.468 88.344 275.324 87.8853 275.324 87.288V81.912H274.14C273.926 81.912 273.82 81.8053 273.82 81.592V81.432C273.82 81.2187 273.926 81.112 274.14 81.112H275.324V78.68C275.324 78.4667 275.43 78.36 275.644 78.36H276.06C276.273 78.36 276.38 78.4667 276.38 78.68V81.112H278.3C278.513 81.112 278.62 81.2187 278.62 81.432V81.592C278.62 81.8053 278.513 81.912 278.3 81.912H276.38V87.16C276.38 87.5547 276.454 87.832 276.604 87.992C276.753 88.152 277.009 88.232 277.372 88.232C277.628 88.232 277.921 88.1947 278.252 88.12ZM280.759 79.112C280.546 79.112 280.364 79.0373 280.215 78.888C280.076 78.7387 280.007 78.5573 280.007 78.344C280.007 78.1307 280.076 77.9547 280.215 77.816C280.364 77.6773 280.546 77.608 280.759 77.608C280.983 77.608 281.164 77.6773 281.303 77.816C281.452 77.9547 281.527 78.1307 281.527 78.344C281.527 78.5573 281.452 78.7387 281.303 78.888C281.164 79.0373 280.983 79.112 280.759 79.112ZM280.551 89C280.338 89 280.231 88.8933 280.231 88.68V81.432C280.231 81.2187 280.338 81.112 280.551 81.112H280.967C281.18 81.112 281.287 81.2187 281.287 81.432V88.68C281.287 88.8933 281.18 89 280.967 89H280.551ZM286.837 89.208C286.08 89.208 285.418 89.0373 284.853 88.696C284.298 88.344 283.866 87.8587 283.557 87.24C283.258 86.6107 283.109 85.8853 283.109 85.064C283.109 84.2533 283.258 83.5333 283.557 82.904C283.866 82.2747 284.298 81.7893 284.853 81.448C285.418 81.096 286.069 80.92 286.805 80.92C287.402 80.92 287.925 81.0213 288.373 81.224C288.821 81.416 289.253 81.736 289.669 82.184C289.733 82.248 289.765 82.3173 289.765 82.392C289.765 82.488 289.722 82.568 289.637 82.632L289.413 82.84C289.349 82.904 289.274 82.936 289.189 82.936C289.114 82.936 289.034 82.8933 288.949 82.808C288.576 82.4347 288.218 82.1733 287.877 82.024C287.546 81.8747 287.178 81.8 286.773 81.8C286.218 81.8 285.744 81.9547 285.349 82.264C284.965 82.5733 284.677 82.9787 284.485 83.48C284.293 83.9707 284.197 84.4987 284.197 85.064C284.197 85.6293 284.293 86.1627 284.485 86.664C284.677 87.1547 284.97 87.5547 285.365 87.864C285.76 88.1627 286.245 88.312 286.821 88.312C287.248 88.312 287.621 88.2373 287.941 88.088C288.272 87.928 288.64 87.6293 289.045 87.192C289.13 87.1067 289.21 87.064 289.285 87.064C289.37 87.064 289.445 87.096 289.509 87.16L289.733 87.336C289.808 87.4 289.845 87.4747 289.845 87.56C289.845 87.6453 289.797 87.7467 289.701 87.864C289.253 88.3547 288.805 88.7013 288.357 88.904C287.909 89.1067 287.402 89.208 286.837 89.208ZM297.255 89C297.095 89 296.967 88.9307 296.871 88.792L294.167 84.856L292.615 86.44V88.68C292.615 88.8933 292.508 89 292.295 89H291.879C291.666 89 291.559 88.8933 291.559 88.68V77.96C291.559 77.7467 291.666 77.64 291.879 77.64H292.295C292.508 77.64 292.615 77.7467 292.615 77.96V85.24L296.455 81.256C296.551 81.1493 296.684 81.096 296.855 81.096H297.303C297.388 81.096 297.452 81.1173 297.495 81.16C297.548 81.192 297.575 81.2347 297.575 81.288C297.575 81.3413 297.543 81.4107 297.479 81.496L294.903 84.184L297.927 88.616C297.97 88.6907 297.991 88.7547 297.991 88.808C297.991 88.936 297.906 89 297.735 89H297.255ZM302.202 89.208C301.551 89.208 300.975 89.1173 300.474 88.936C299.983 88.744 299.466 88.424 298.922 87.976C298.826 87.912 298.778 87.8373 298.778 87.752C298.778 87.6773 298.815 87.6027 298.89 87.528L299.098 87.304C299.162 87.2187 299.242 87.176 299.338 87.176C299.412 87.176 299.482 87.208 299.546 87.272C300.058 87.6667 300.511 87.944 300.906 88.104C301.3 88.2533 301.732 88.328 302.202 88.328C302.788 88.328 303.268 88.2 303.642 87.944C304.015 87.6773 304.202 87.32 304.202 86.872C304.202 86.424 304.01 86.0933 303.626 85.88C303.242 85.6667 302.65 85.4747 301.85 85.304C301.146 85.1547 300.591 85 300.186 84.84C299.791 84.6693 299.498 84.456 299.306 84.2C299.114 83.944 299.018 83.608 299.018 83.192C299.018 82.5093 299.295 81.96 299.85 81.544C300.404 81.128 301.103 80.92 301.946 80.92C302.522 80.92 303.034 80.9947 303.482 81.144C303.94 81.2827 304.399 81.5173 304.858 81.848C304.954 81.9227 305.002 82.0027 305.002 82.088C305.002 82.1413 304.975 82.2107 304.922 82.296L304.73 82.536C304.676 82.6213 304.602 82.664 304.506 82.664C304.42 82.664 304.346 82.6373 304.282 82.584C303.844 82.2747 303.455 82.0667 303.114 81.96C302.783 81.8533 302.404 81.8 301.978 81.8C301.391 81.8 300.922 81.928 300.57 82.184C300.218 82.44 300.042 82.7653 300.042 83.16C300.042 83.4053 300.122 83.6027 300.282 83.752C300.442 83.9013 300.671 84.0293 300.97 84.136C301.268 84.232 301.706 84.344 302.282 84.472C303.348 84.7067 304.106 84.9947 304.554 85.336C305.012 85.6773 305.242 86.1733 305.242 86.824C305.242 87.5387 304.959 88.1147 304.394 88.552C303.828 88.9893 303.098 89.208 302.202 89.208Z" fill="#464646"/>
</svg>
