<svg width="344" height="320" viewBox="0 0 344 320" fill="none" xmlns="http://www.w3.org/2000/svg">
<rect width="344" height="320" fill="#F5F5F5"/>
<rect x="125.5" y="141.5" width="93" height="31" rx="3.5" fill="white"/>
<g clip-path="url(#clip0_669_11698)">
<path fill-rule="evenodd" clip-rule="evenodd" d="M141.75 150C141.75 149.586 141.414 149.25 141 149.25C140.586 149.25 140.25 149.586 140.25 150V159.44L138.969 158.414C138.645 158.156 138.173 158.208 137.914 158.531C137.656 158.855 137.708 159.327 138.031 159.586L140.531 161.586C140.805 161.805 141.195 161.805 141.469 161.586L143.969 159.586C144.292 159.327 144.344 158.855 144.086 158.531C143.827 158.208 143.355 158.156 143.031 158.414L141.75 159.44V150ZM134 163.25C133.586 163.25 133.25 163.586 133.25 164C133.25 164.414 133.586 164.75 134 164.75H148C148.414 164.75 148.75 164.414 148.75 164C148.75 163.586 148.414 163.25 148 163.25H134Z" fill="#767676"/>
</g>
<path d="M158.344 161C158.216 161 158.112 160.964 158.032 160.892C157.96 160.812 157.924 160.708 157.924 160.58V152.9C157.924 152.764 157.96 152.66 158.032 152.588C158.112 152.516 158.216 152.48 158.344 152.48H161.236C162.036 152.48 162.72 152.66 163.288 153.02C163.864 153.38 164.3 153.884 164.596 154.532C164.9 155.172 165.052 155.908 165.052 156.74C165.052 157.572 164.9 158.312 164.596 158.96C164.3 159.6 163.864 160.1 163.288 160.46C162.72 160.82 162.036 161 161.236 161H158.344ZM161.032 159.848C161.848 159.848 162.488 159.58 162.952 159.044C163.424 158.5 163.66 157.732 163.66 156.74C163.66 155.748 163.424 154.984 162.952 154.448C162.488 153.904 161.848 153.632 161.032 153.632H159.292V159.848H161.032ZM169.068 161.18C168.484 161.18 167.964 161.048 167.508 160.784C167.06 160.52 166.708 160.152 166.452 159.68C166.196 159.2 166.068 158.652 166.068 158.036C166.068 157.42 166.196 156.876 166.452 156.404C166.708 155.932 167.06 155.564 167.508 155.3C167.964 155.036 168.484 154.904 169.068 154.904C169.644 154.904 170.16 155.036 170.616 155.3C171.072 155.564 171.428 155.936 171.684 156.416C171.94 156.888 172.068 157.428 172.068 158.036C172.068 158.652 171.94 159.2 171.684 159.68C171.428 160.152 171.072 160.52 170.616 160.784C170.16 161.048 169.644 161.18 169.068 161.18ZM169.068 160.112C169.58 160.112 169.992 159.924 170.304 159.548C170.616 159.164 170.772 158.66 170.772 158.036C170.772 157.42 170.616 156.924 170.304 156.548C169.992 156.172 169.58 155.984 169.068 155.984C168.556 155.984 168.144 156.172 167.832 156.548C167.52 156.924 167.364 157.42 167.364 158.036C167.364 158.66 167.52 159.164 167.832 159.548C168.144 159.924 168.556 160.112 169.068 160.112ZM179.767 155.444C179.823 155.204 179.979 155.084 180.235 155.084H180.679C180.799 155.084 180.891 155.112 180.955 155.168C181.027 155.216 181.063 155.292 181.063 155.396C181.063 155.42 181.055 155.472 181.039 155.552L179.611 160.64C179.555 160.88 179.399 161 179.143 161H178.363C178.123 161 177.967 160.88 177.895 160.64L177.499 159.248C177.323 158.632 177.127 157.86 176.911 156.932L176.851 156.668C176.635 157.644 176.427 158.508 176.227 159.26L175.855 160.64C175.799 160.88 175.643 161 175.387 161H174.619C174.379 161 174.223 160.88 174.151 160.64L172.711 155.552C172.695 155.472 172.687 155.42 172.687 155.396C172.687 155.292 172.719 155.216 172.783 155.168C172.855 155.112 172.951 155.084 173.071 155.084H173.539C173.795 155.084 173.951 155.204 174.007 155.444L174.439 157.148C174.607 157.772 174.803 158.604 175.027 159.644L175.075 159.884C175.307 158.812 175.523 157.9 175.723 157.148L176.179 155.444C176.235 155.204 176.391 155.084 176.647 155.084H177.103C177.359 155.084 177.515 155.204 177.571 155.444L178.039 157.148C178.263 157.98 178.487 158.892 178.711 159.884C178.879 159.028 179.087 158.116 179.335 157.148L179.767 155.444ZM185.131 154.904C185.811 154.904 186.331 155.096 186.691 155.48C187.059 155.856 187.243 156.344 187.243 156.944V160.58C187.243 160.708 187.207 160.812 187.135 160.892C187.063 160.964 186.959 161 186.823 161H186.391C186.263 161 186.159 160.964 186.079 160.892C186.007 160.812 185.971 160.708 185.971 160.58V157.34C185.971 156.908 185.863 156.576 185.647 156.344C185.439 156.112 185.139 155.996 184.747 155.996C184.363 155.996 184.039 156.128 183.775 156.392C183.519 156.656 183.391 156.988 183.391 157.388V160.58C183.391 160.708 183.355 160.812 183.283 160.892C183.211 160.964 183.107 161 182.971 161H182.539C182.411 161 182.307 160.964 182.227 160.892C182.155 160.812 182.119 160.708 182.119 160.58V155.504C182.119 155.368 182.155 155.264 182.227 155.192C182.307 155.12 182.411 155.084 182.539 155.084H182.887C183.023 155.084 183.127 155.12 183.199 155.192C183.271 155.264 183.307 155.368 183.307 155.504V155.816C183.499 155.52 183.751 155.296 184.063 155.144C184.375 154.984 184.731 154.904 185.131 154.904ZM189.173 161C189.045 161 188.941 160.964 188.861 160.892C188.789 160.812 188.753 160.708 188.753 160.58V152.9C188.753 152.764 188.789 152.66 188.861 152.588C188.941 152.516 189.045 152.48 189.173 152.48H189.605C189.741 152.48 189.845 152.516 189.917 152.588C189.989 152.66 190.025 152.764 190.025 152.9V160.58C190.025 160.708 189.989 160.812 189.917 160.892C189.845 160.964 189.741 161 189.605 161H189.173ZM194.205 161.18C193.621 161.18 193.101 161.048 192.645 160.784C192.197 160.52 191.845 160.152 191.589 159.68C191.333 159.2 191.205 158.652 191.205 158.036C191.205 157.42 191.333 156.876 191.589 156.404C191.845 155.932 192.197 155.564 192.645 155.3C193.101 155.036 193.621 154.904 194.205 154.904C194.781 154.904 195.297 155.036 195.753 155.3C196.209 155.564 196.565 155.936 196.821 156.416C197.077 156.888 197.205 157.428 197.205 158.036C197.205 158.652 197.077 159.2 196.821 159.68C196.565 160.152 196.209 160.52 195.753 160.784C195.297 161.048 194.781 161.18 194.205 161.18ZM194.205 160.112C194.717 160.112 195.129 159.924 195.441 159.548C195.753 159.164 195.909 158.66 195.909 158.036C195.909 157.42 195.753 156.924 195.441 156.548C195.129 156.172 194.717 155.984 194.205 155.984C193.693 155.984 193.281 156.172 192.969 156.548C192.657 156.924 192.501 157.42 192.501 158.036C192.501 158.66 192.657 159.164 192.969 159.548C193.281 159.924 193.693 160.112 194.205 160.112ZM200.822 154.904C201.622 154.904 202.238 155.092 202.67 155.468C203.102 155.836 203.318 156.328 203.318 156.944V160.58C203.318 160.708 203.282 160.812 203.21 160.892C203.138 160.964 203.034 161 202.898 161H202.586C202.458 161 202.354 160.964 202.274 160.892C202.202 160.812 202.166 160.708 202.166 160.58V160.316C201.974 160.596 201.71 160.812 201.374 160.964C201.038 161.116 200.646 161.192 200.198 161.192C199.582 161.192 199.074 161.056 198.674 160.784C198.282 160.504 198.086 160.084 198.086 159.524C198.086 158.9 198.318 158.44 198.782 158.144C199.254 157.84 199.906 157.612 200.738 157.46L202.094 157.208V156.992C202.094 156.664 201.978 156.412 201.746 156.236C201.522 156.052 201.222 155.96 200.846 155.96C200.526 155.96 200.246 156.016 200.006 156.128C199.774 156.232 199.522 156.408 199.25 156.656C199.146 156.744 199.046 156.788 198.95 156.788C198.854 156.788 198.754 156.744 198.65 156.656L198.458 156.488C198.354 156.392 198.302 156.288 198.302 156.176C198.302 156.072 198.35 155.972 198.446 155.876C198.79 155.548 199.154 155.304 199.538 155.144C199.922 154.984 200.35 154.904 200.822 154.904ZM200.378 160.172C200.858 160.172 201.262 160.044 201.59 159.788C201.926 159.532 202.094 159.164 202.094 158.684V158.132L201.05 158.348C200.466 158.468 200.034 158.604 199.754 158.756C199.474 158.908 199.334 159.14 199.334 159.452C199.334 159.676 199.426 159.852 199.61 159.98C199.794 160.108 200.05 160.172 200.378 160.172ZM208.935 152.888C208.935 152.752 208.971 152.648 209.043 152.576C209.123 152.504 209.227 152.468 209.355 152.468H209.787C209.923 152.468 210.027 152.504 210.099 152.576C210.171 152.648 210.207 152.752 210.207 152.888V160.58C210.207 160.708 210.171 160.812 210.099 160.892C210.027 160.964 209.923 161 209.787 161H209.439C209.311 161 209.207 160.964 209.127 160.892C209.055 160.812 209.019 160.708 209.019 160.58V160.16C208.603 160.832 207.951 161.168 207.063 161.168C206.567 161.168 206.119 161.04 205.719 160.784C205.327 160.528 205.019 160.164 204.795 159.692C204.571 159.22 204.459 158.672 204.459 158.048C204.459 157.432 204.571 156.888 204.795 156.416C205.027 155.944 205.343 155.58 205.743 155.324C206.143 155.068 206.591 154.94 207.087 154.94C207.903 154.94 208.519 155.224 208.935 155.792V152.888ZM207.327 160.076C207.815 160.076 208.215 159.896 208.527 159.536C208.839 159.168 208.995 158.672 208.995 158.048C208.995 157.424 208.839 156.932 208.527 156.572C208.215 156.212 207.815 156.032 207.327 156.032C206.855 156.032 206.475 156.216 206.187 156.584C205.899 156.952 205.755 157.44 205.755 158.048C205.755 158.664 205.895 159.156 206.175 159.524C206.463 159.892 206.847 160.076 207.327 160.076Z" fill="#474445"/>
<rect x="125.5" y="141.5" width="93" height="31" rx="3.5" stroke="#C3CCD9"/>
<path d="M138.817 92C138.657 92 138.577 91.92 138.577 91.76V83.72C138.577 83.56 138.657 83.48 138.817 83.48H139.189C139.349 83.48 139.429 83.56 139.429 83.72V91.76C139.429 91.92 139.349 92 139.189 92H138.817ZM143.831 92.156C143.263 92.156 142.767 92.028 142.343 91.772C141.927 91.508 141.603 91.144 141.371 90.68C141.147 90.208 141.035 89.664 141.035 89.048C141.035 88.44 141.147 87.9 141.371 87.428C141.603 86.956 141.927 86.592 142.343 86.336C142.767 86.072 143.255 85.94 143.807 85.94C144.255 85.94 144.647 86.016 144.983 86.168C145.319 86.312 145.643 86.552 145.955 86.888C146.003 86.936 146.027 86.988 146.027 87.044C146.027 87.116 145.995 87.176 145.931 87.224L145.763 87.38C145.715 87.428 145.659 87.452 145.595 87.452C145.539 87.452 145.479 87.42 145.415 87.356C145.135 87.076 144.867 86.88 144.611 86.768C144.363 86.656 144.087 86.6 143.783 86.6C143.367 86.6 143.011 86.716 142.715 86.948C142.427 87.18 142.211 87.484 142.067 87.86C141.923 88.228 141.851 88.624 141.851 89.048C141.851 89.472 141.923 89.872 142.067 90.248C142.211 90.616 142.431 90.916 142.727 91.148C143.023 91.372 143.387 91.484 143.819 91.484C144.139 91.484 144.419 91.428 144.659 91.316C144.907 91.196 145.183 90.972 145.487 90.644C145.551 90.58 145.611 90.548 145.667 90.548C145.731 90.548 145.787 90.572 145.835 90.62L146.003 90.752C146.059 90.8 146.087 90.856 146.087 90.92C146.087 90.984 146.051 91.06 145.979 91.148C145.643 91.516 145.307 91.776 144.971 91.928C144.635 92.08 144.255 92.156 143.831 92.156ZM149.703 92.156C149.151 92.156 148.659 92.024 148.227 91.76C147.795 91.496 147.459 91.132 147.219 90.668C146.979 90.196 146.859 89.656 146.859 89.048C146.859 88.44 146.979 87.904 147.219 87.44C147.459 86.968 147.795 86.6 148.227 86.336C148.659 86.072 149.151 85.94 149.703 85.94C150.255 85.94 150.747 86.072 151.179 86.336C151.611 86.6 151.947 86.968 152.187 87.44C152.427 87.904 152.547 88.44 152.547 89.048C152.547 89.656 152.427 90.196 152.187 90.668C151.947 91.132 151.611 91.496 151.179 91.76C150.747 92.024 150.255 92.156 149.703 92.156ZM149.703 91.496C150.319 91.496 150.811 91.272 151.179 90.824C151.547 90.368 151.731 89.776 151.731 89.048C151.731 88.32 151.547 87.732 151.179 87.284C150.811 86.828 150.319 86.6 149.703 86.6C149.087 86.6 148.595 86.828 148.227 87.284C147.859 87.732 147.675 88.32 147.675 89.048C147.675 89.776 147.859 90.368 148.227 90.824C148.595 91.272 149.087 91.496 149.703 91.496ZM156.563 85.94C157.259 85.94 157.783 86.132 158.135 86.516C158.495 86.9 158.675 87.38 158.675 87.956V91.76C158.675 91.92 158.595 92 158.435 92H158.123C157.963 92 157.883 91.92 157.883 91.76V88.22C157.883 87.692 157.755 87.292 157.499 87.02C157.243 86.748 156.875 86.612 156.395 86.612C156.091 86.612 155.811 86.688 155.555 86.84C155.299 86.984 155.095 87.184 154.943 87.44C154.791 87.696 154.715 87.976 154.715 88.28V91.76C154.715 91.92 154.635 92 154.475 92H154.163C154.003 92 153.923 91.92 153.923 91.76V86.324C153.923 86.164 154.003 86.084 154.163 86.084H154.427C154.587 86.084 154.667 86.164 154.667 86.324V86.9C154.867 86.58 155.131 86.34 155.459 86.18C155.787 86.02 156.155 85.94 156.563 85.94Z" fill="#464646"/>
<path d="M181.463 230C181.303 230 181.223 229.92 181.223 229.76V221.72C181.223 221.56 181.303 221.48 181.463 221.48H181.835C181.995 221.48 182.075 221.56 182.075 221.72V229.292H185.903C186.063 229.292 186.143 229.372 186.143 229.532V229.76C186.143 229.92 186.063 230 185.903 230H181.463ZM189.746 223.94C190.474 223.94 191.042 224.116 191.45 224.468C191.858 224.812 192.062 225.268 192.062 225.836V229.76C192.062 229.92 191.982 230 191.822 230H191.582C191.422 230 191.342 229.92 191.342 229.76V229.22C191.142 229.54 190.858 229.78 190.49 229.94C190.13 230.1 189.726 230.18 189.278 230.18C188.654 230.18 188.146 230.048 187.754 229.784C187.362 229.52 187.166 229.112 187.166 228.56C187.166 228.12 187.29 227.768 187.538 227.504C187.786 227.232 188.11 227.028 188.51 226.892C188.91 226.748 189.41 226.62 190.01 226.508L191.306 226.28V225.896C191.306 225.488 191.166 225.172 190.886 224.948C190.606 224.716 190.238 224.6 189.782 224.6C189.438 224.6 189.126 224.664 188.846 224.792C188.566 224.92 188.266 225.14 187.946 225.452C187.89 225.508 187.83 225.536 187.766 225.536C187.71 225.536 187.658 225.512 187.61 225.464L187.454 225.32C187.398 225.264 187.37 225.204 187.37 225.14C187.37 225.068 187.398 225.004 187.454 224.948C187.79 224.596 188.142 224.34 188.51 224.18C188.886 224.02 189.298 223.94 189.746 223.94ZM189.314 229.52C189.89 229.52 190.366 229.368 190.742 229.064C191.118 228.76 191.306 228.372 191.306 227.9V226.892L190.19 227.108C189.67 227.212 189.258 227.312 188.954 227.408C188.65 227.504 188.406 227.644 188.222 227.828C188.038 228.012 187.946 228.252 187.946 228.548C187.946 228.852 188.066 229.092 188.306 229.268C188.554 229.436 188.89 229.52 189.314 229.52ZM196.65 223.952C197.154 223.952 197.602 224.084 197.994 224.348C198.394 224.604 198.702 224.968 198.918 225.44C199.142 225.904 199.254 226.44 199.254 227.048C199.254 227.656 199.142 228.196 198.918 228.668C198.694 229.132 198.382 229.496 197.982 229.76C197.59 230.016 197.146 230.144 196.65 230.144C195.698 230.144 195.002 229.776 194.562 229.04V229.76C194.562 229.92 194.482 230 194.322 230H194.058C193.898 230 193.818 229.92 193.818 229.76V221.708C193.818 221.548 193.898 221.468 194.058 221.468H194.37C194.53 221.468 194.61 221.548 194.61 221.708V225.02C195.05 224.308 195.73 223.952 196.65 223.952ZM196.59 229.472C197.142 229.472 197.586 229.248 197.922 228.8C198.266 228.352 198.438 227.768 198.438 227.048C198.438 226.328 198.266 225.744 197.922 225.296C197.586 224.848 197.142 224.624 196.59 224.624C195.998 224.624 195.514 224.84 195.138 225.272C194.762 225.704 194.574 226.296 194.574 227.048C194.574 227.808 194.758 228.404 195.126 228.836C195.502 229.26 195.99 229.472 196.59 229.472ZM205.04 228.596C205.096 228.54 205.156 228.512 205.22 228.512C205.276 228.512 205.328 228.536 205.376 228.584L205.532 228.728C205.588 228.784 205.616 228.844 205.616 228.908C205.616 228.956 205.592 229.012 205.544 229.076C205.152 229.468 204.772 229.748 204.404 229.916C204.036 230.076 203.624 230.156 203.168 230.156C202.592 230.156 202.092 230.028 201.668 229.772C201.244 229.516 200.916 229.16 200.684 228.704C200.452 228.24 200.336 227.704 200.336 227.096C200.336 226.48 200.448 225.936 200.672 225.464C200.904 224.984 201.228 224.612 201.644 224.348C202.06 224.076 202.54 223.94 203.084 223.94C203.892 223.94 204.528 224.192 204.992 224.696C205.456 225.2 205.688 225.88 205.688 226.736V226.88C205.68 226.952 205.652 227.008 205.604 227.048C205.564 227.088 205.508 227.108 205.436 227.108H201.14C201.164 227.78 201.34 228.348 201.668 228.812C202.004 229.268 202.504 229.496 203.168 229.496C203.528 229.496 203.844 229.432 204.116 229.304C204.396 229.168 204.704 228.932 205.04 228.596ZM203.084 224.6C202.556 224.6 202.12 224.764 201.776 225.092C201.44 225.412 201.236 225.884 201.164 226.508H204.896C204.88 225.924 204.712 225.46 204.392 225.116C204.072 224.772 203.636 224.6 203.084 224.6ZM207.359 230C207.199 230 207.119 229.92 207.119 229.76V221.72C207.119 221.56 207.199 221.48 207.359 221.48H207.671C207.831 221.48 207.911 221.56 207.911 221.72V229.76C207.911 229.92 207.831 230 207.671 230H207.359Z" fill="#464646"/>
<path d="M148 142C148 142.552 148.448 143 149 143C149.552 143 150 142.552 150 142L148 142ZM148 100L148 142L150 142L150 100L148 100Z" fill="#06BEFB"/>
<circle cx="149" cy="145" r="3" fill="#06BEFB"/>
<path d="M195 172C195 171.448 194.552 171 194 171C193.448 171 193 171.448 193 172L195 172ZM195 214L195 172L193 172L193 214L195 214Z" fill="#06BEFB"/>
<circle cx="194" cy="169" r="3" transform="rotate(-180 194 169)" fill="#06BEFB"/>
<defs>
<clipPath id="clip0_669_11698">
<rect width="16" height="16" fill="white" transform="translate(133 149)"/>
</clipPath>
</defs>
</svg>
