<svg width="344" height="128" viewBox="0 0 344 128" fill="none" xmlns="http://www.w3.org/2000/svg">
<rect x="116" y="41" width="112" height="46" rx="7" fill="#0063FB"/>
<path d="M137.368 64.424C137.197 64.424 137.059 64.376 136.952 64.28C136.856 64.1733 136.808 64.0347 136.808 63.864V63.448C136.808 63.2667 136.856 63.128 136.952 63.032C137.059 62.936 137.197 62.888 137.368 62.888H141.384C141.565 62.888 141.704 62.936 141.8 63.032C141.896 63.128 141.944 63.2667 141.944 63.448V68.44C141.944 68.6107 141.896 68.7493 141.8 68.856C141.704 68.952 141.565 69 141.384 69H141.048C140.696 69 140.504 68.824 140.472 68.472L140.408 67.752C139.725 68.744 138.595 69.24 137.016 69.24C135.885 69.24 134.915 68.9893 134.104 68.488C133.293 67.9867 132.675 67.288 132.248 66.392C131.821 65.496 131.608 64.4667 131.608 63.304C131.608 62.1733 131.832 61.16 132.28 60.264C132.728 59.368 133.373 58.6693 134.216 58.168C135.059 57.656 136.056 57.4 137.208 57.4C138.072 57.4 138.845 57.5387 139.528 57.816C140.211 58.0827 140.883 58.52 141.544 59.128C141.683 59.256 141.752 59.3893 141.752 59.528C141.752 59.6667 141.688 59.8 141.56 59.928L141.176 60.312C141.037 60.4507 140.904 60.52 140.776 60.52C140.637 60.52 140.504 60.456 140.376 60.328C139.821 59.848 139.304 59.5067 138.824 59.304C138.344 59.0907 137.8 58.984 137.192 58.984C136.456 58.984 135.805 59.16 135.24 59.512C134.685 59.864 134.248 60.3653 133.928 61.016C133.619 61.6667 133.464 62.4347 133.464 63.32C133.464 64.216 133.613 64.9893 133.912 65.64C134.211 66.2907 134.632 66.792 135.176 67.144C135.731 67.4853 136.381 67.656 137.128 67.656C138.077 67.656 138.835 67.4 139.4 66.888C139.976 66.3653 140.264 65.656 140.264 64.76V64.424H137.368ZM149.577 66.984C149.716 66.8667 149.849 66.808 149.977 66.808C150.105 66.808 150.238 66.8773 150.377 67.016L150.601 67.256C150.718 67.3947 150.777 67.528 150.777 67.656C150.777 67.7947 150.708 67.928 150.569 68.056C150.078 68.4827 149.588 68.7867 149.097 68.968C148.617 69.1493 148.084 69.24 147.497 69.24C146.676 69.24 145.961 69.0693 145.353 68.728C144.756 68.3867 144.292 67.9067 143.961 67.288C143.641 66.6587 143.481 65.9333 143.481 65.112C143.481 64.3013 143.636 63.576 143.945 62.936C144.265 62.2853 144.713 61.7787 145.289 61.416C145.876 61.0533 146.558 60.872 147.337 60.872C148.5 60.872 149.396 61.2187 150.025 61.912C150.654 62.5947 150.969 63.5387 150.969 64.744V64.888C150.958 65.0587 150.905 65.192 150.809 65.288C150.713 65.384 150.574 65.432 150.393 65.432H145.145C145.209 66.136 145.438 66.712 145.833 67.16C146.238 67.5973 146.804 67.816 147.529 67.816C147.924 67.816 148.27 67.7573 148.569 67.64C148.868 67.512 149.204 67.2933 149.577 66.984ZM147.305 62.216C146.718 62.216 146.244 62.392 145.881 62.744C145.529 63.0853 145.3 63.5707 145.193 64.2H149.305C149.262 63.5813 149.07 63.096 148.729 62.744C148.388 62.392 147.913 62.216 147.305 62.216ZM156.237 67.656C156.269 67.6453 156.317 67.64 156.381 67.64C156.648 67.64 156.808 67.7947 156.861 68.104L156.909 68.36C156.92 68.392 156.925 68.4453 156.925 68.52C156.925 68.7867 156.776 68.9573 156.477 69.032C156.05 69.128 155.661 69.176 155.309 69.176C154.552 69.176 154.002 69 153.661 68.648C153.33 68.296 153.165 67.768 153.165 67.064V62.408H152.285C152.114 62.408 151.976 62.36 151.869 62.264C151.773 62.1573 151.725 62.0187 151.725 61.848V61.672C151.725 61.4907 151.773 61.352 151.869 61.256C151.976 61.16 152.114 61.112 152.285 61.112H153.165V59.128C153.165 58.9467 153.213 58.808 153.309 58.712C153.416 58.616 153.554 58.568 153.725 58.568H154.301C154.482 58.568 154.621 58.616 154.717 58.712C154.813 58.808 154.861 58.9467 154.861 59.128V61.112H156.301C156.482 61.112 156.621 61.16 156.717 61.256C156.813 61.352 156.861 61.4907 156.861 61.672V61.848C156.861 62.0187 156.813 62.1573 156.717 62.264C156.621 62.36 156.482 62.408 156.301 62.408H154.861V66.856C154.861 67.1653 154.925 67.384 155.053 67.512C155.192 67.64 155.41 67.704 155.709 67.704C155.837 67.704 156.013 67.688 156.237 67.656ZM164.875 69.24C164.225 69.24 163.643 69.16 163.131 69C162.63 68.8293 162.118 68.536 161.595 68.12C161.435 68.0027 161.355 67.8693 161.355 67.72C161.355 67.6027 161.414 67.4747 161.531 67.336L161.771 67.064C161.899 66.9147 162.038 66.84 162.187 66.84C162.305 66.84 162.433 66.8933 162.571 67C163.019 67.3307 163.414 67.56 163.755 67.688C164.097 67.8053 164.481 67.864 164.907 67.864C165.366 67.864 165.739 67.7733 166.027 67.592C166.326 67.4 166.475 67.144 166.475 66.824C166.475 66.5787 166.39 66.3867 166.219 66.248C166.059 66.0987 165.846 65.9867 165.579 65.912C165.313 65.8267 164.918 65.7307 164.395 65.624C163.659 65.464 163.083 65.2933 162.667 65.112C162.262 64.92 161.969 64.68 161.787 64.392C161.606 64.104 161.515 63.736 161.515 63.288C161.515 62.8293 161.643 62.4187 161.899 62.056C162.166 61.6933 162.534 61.4053 163.003 61.192C163.483 60.9787 164.043 60.872 164.683 60.872C165.259 60.872 165.771 60.936 166.219 61.064C166.678 61.192 167.126 61.4107 167.563 61.72C167.734 61.848 167.819 61.992 167.819 62.152C167.819 62.2587 167.766 62.3813 167.659 62.52L167.451 62.776C167.334 62.9253 167.19 63 167.019 63C166.891 63 166.769 62.9573 166.651 62.872C166.299 62.6373 165.974 62.4773 165.675 62.392C165.377 62.296 165.041 62.248 164.667 62.248C164.209 62.248 163.841 62.3387 163.563 62.52C163.286 62.7013 163.147 62.936 163.147 63.224C163.147 63.416 163.211 63.5707 163.339 63.688C163.478 63.7947 163.67 63.8907 163.915 63.976C164.171 64.0507 164.571 64.1467 165.115 64.264C165.851 64.424 166.433 64.6053 166.859 64.808C167.297 65 167.617 65.2507 167.819 65.56C168.033 65.8587 168.139 66.248 168.139 66.728C168.139 67.4747 167.841 68.0827 167.243 68.552C166.657 69.0107 165.867 69.24 164.875 69.24ZM173.378 67.656C173.41 67.6453 173.458 67.64 173.522 67.64C173.788 67.64 173.948 67.7947 174.002 68.104L174.05 68.36C174.06 68.392 174.066 68.4453 174.066 68.52C174.066 68.7867 173.916 68.9573 173.618 69.032C173.191 69.128 172.802 69.176 172.45 69.176C171.692 69.176 171.143 69 170.802 68.648C170.471 68.296 170.306 67.768 170.306 67.064V62.408H169.426C169.255 62.408 169.116 62.36 169.01 62.264C168.914 62.1573 168.866 62.0187 168.866 61.848V61.672C168.866 61.4907 168.914 61.352 169.01 61.256C169.116 61.16 169.255 61.112 169.426 61.112H170.306V59.128C170.306 58.9467 170.354 58.808 170.45 58.712C170.556 58.616 170.695 58.568 170.866 58.568H171.442C171.623 58.568 171.762 58.616 171.858 58.712C171.954 58.808 172.002 58.9467 172.002 59.128V61.112H173.442C173.623 61.112 173.762 61.16 173.858 61.256C173.954 61.352 174.002 61.4907 174.002 61.672V61.848C174.002 62.0187 173.954 62.1573 173.858 62.264C173.762 62.36 173.623 62.408 173.442 62.408H172.002V66.856C172.002 67.1653 172.066 67.384 172.194 67.512C172.332 67.64 172.551 67.704 172.85 67.704C172.978 67.704 173.154 67.688 173.378 67.656ZM178.742 60.872C179.808 60.872 180.63 61.1227 181.206 61.624C181.782 62.1147 182.07 62.7707 182.07 63.592V68.44C182.07 68.6107 182.022 68.7493 181.926 68.856C181.83 68.952 181.691 69 181.51 69H181.094C180.923 69 180.784 68.952 180.678 68.856C180.582 68.7493 180.534 68.6107 180.534 68.44V68.088C180.278 68.4613 179.926 68.7493 179.478 68.952C179.03 69.1547 178.507 69.256 177.91 69.256C177.088 69.256 176.411 69.0747 175.878 68.712C175.355 68.3387 175.094 67.7787 175.094 67.032C175.094 66.2 175.403 65.5867 176.022 65.192C176.651 64.7867 177.52 64.4827 178.63 64.28L180.438 63.944V63.656C180.438 63.2187 180.283 62.8827 179.974 62.648C179.675 62.4027 179.275 62.28 178.774 62.28C178.347 62.28 177.974 62.3547 177.654 62.504C177.344 62.6427 177.008 62.8773 176.646 63.208C176.507 63.3253 176.374 63.384 176.246 63.384C176.118 63.384 175.984 63.3253 175.846 63.208L175.59 62.984C175.451 62.856 175.382 62.7173 175.382 62.568C175.382 62.4293 175.446 62.296 175.574 62.168C176.032 61.7307 176.518 61.4053 177.03 61.192C177.542 60.9787 178.112 60.872 178.742 60.872ZM178.15 67.896C178.79 67.896 179.328 67.7253 179.766 67.384C180.214 67.0427 180.438 66.552 180.438 65.912V65.176L179.046 65.464C178.267 65.624 177.691 65.8053 177.318 66.008C176.944 66.2107 176.758 66.52 176.758 66.936C176.758 67.2347 176.88 67.4693 177.126 67.64C177.371 67.8107 177.712 67.896 178.15 67.896ZM187.559 61.032C187.794 61.032 188.034 61.0587 188.279 61.112C188.567 61.176 188.711 61.3467 188.711 61.624C188.711 61.6987 188.706 61.752 188.695 61.784L188.615 62.168C188.551 62.4667 188.391 62.616 188.135 62.616L187.991 62.6C187.799 62.568 187.629 62.552 187.479 62.552C186.946 62.552 186.514 62.7653 186.183 63.192C185.863 63.608 185.703 64.1893 185.703 64.936V68.44C185.703 68.6107 185.655 68.7493 185.559 68.856C185.463 68.952 185.325 69 185.143 69H184.567C184.397 69 184.258 68.952 184.151 68.856C184.055 68.7493 184.007 68.6107 184.007 68.44V61.672C184.007 61.4907 184.055 61.352 184.151 61.256C184.258 61.16 184.397 61.112 184.567 61.112H185.031C185.213 61.112 185.351 61.16 185.447 61.256C185.543 61.352 185.591 61.4907 185.591 61.672V62.296C185.783 61.9013 186.045 61.592 186.375 61.368C186.706 61.144 187.101 61.032 187.559 61.032ZM193.94 67.656C193.972 67.6453 194.02 67.64 194.084 67.64C194.351 67.64 194.511 67.7947 194.564 68.104L194.612 68.36C194.623 68.392 194.628 68.4453 194.628 68.52C194.628 68.7867 194.479 68.9573 194.18 69.032C193.754 69.128 193.364 69.176 193.012 69.176C192.255 69.176 191.706 69 191.364 68.648C191.034 68.296 190.868 67.768 190.868 67.064V62.408H189.988C189.818 62.408 189.679 62.36 189.572 62.264C189.476 62.1573 189.428 62.0187 189.428 61.848V61.672C189.428 61.4907 189.476 61.352 189.572 61.256C189.679 61.16 189.818 61.112 189.988 61.112H190.868V59.128C190.868 58.9467 190.916 58.808 191.012 58.712C191.119 58.616 191.258 58.568 191.428 58.568H192.004C192.186 58.568 192.324 58.616 192.42 58.712C192.516 58.808 192.564 58.9467 192.564 59.128V61.112H194.004C194.186 61.112 194.324 61.16 194.42 61.256C194.516 61.352 194.564 61.4907 194.564 61.672V61.848C194.564 62.0187 194.516 62.1573 194.42 62.264C194.324 62.36 194.186 62.408 194.004 62.408H192.564V66.856C192.564 67.1653 192.628 67.384 192.756 67.512C192.895 67.64 193.114 67.704 193.412 67.704C193.54 67.704 193.716 67.688 193.94 67.656ZM201.358 66.984C201.497 66.8667 201.63 66.808 201.758 66.808C201.886 66.808 202.02 66.8773 202.158 67.016L202.382 67.256C202.5 67.3947 202.558 67.528 202.558 67.656C202.558 67.7947 202.489 67.928 202.35 68.056C201.86 68.4827 201.369 68.7867 200.878 68.968C200.398 69.1493 199.865 69.24 199.278 69.24C198.457 69.24 197.742 69.0693 197.134 68.728C196.537 68.3867 196.073 67.9067 195.742 67.288C195.422 66.6587 195.262 65.9333 195.262 65.112C195.262 64.3013 195.417 63.576 195.726 62.936C196.046 62.2853 196.494 61.7787 197.07 61.416C197.657 61.0533 198.34 60.872 199.118 60.872C200.281 60.872 201.177 61.2187 201.806 61.912C202.436 62.5947 202.75 63.5387 202.75 64.744V64.888C202.74 65.0587 202.686 65.192 202.59 65.288C202.494 65.384 202.356 65.432 202.174 65.432H196.926C196.99 66.136 197.22 66.712 197.614 67.16C198.02 67.5973 198.585 67.816 199.31 67.816C199.705 67.816 200.052 67.7573 200.35 67.64C200.649 67.512 200.985 67.2933 201.358 66.984ZM199.086 62.216C198.5 62.216 198.025 62.392 197.662 62.744C197.31 63.0853 197.081 63.5707 196.974 64.2H201.086C201.044 63.5813 200.852 63.096 200.51 62.744C200.169 62.392 199.694 62.216 199.086 62.216ZM209.887 58.184C209.887 58.0027 209.935 57.864 210.031 57.768C210.138 57.672 210.277 57.624 210.447 57.624H211.023C211.205 57.624 211.343 57.672 211.439 57.768C211.535 57.864 211.583 58.0027 211.583 58.184V68.44C211.583 68.6107 211.535 68.7493 211.439 68.856C211.343 68.952 211.205 69 211.023 69H210.559C210.389 69 210.25 68.952 210.143 68.856C210.047 68.7493 209.999 68.6107 209.999 68.44V67.88C209.445 68.776 208.575 69.224 207.391 69.224C206.73 69.224 206.133 69.0533 205.599 68.712C205.077 68.3707 204.666 67.8853 204.367 67.256C204.069 66.6267 203.919 65.896 203.919 65.064C203.919 64.2427 204.069 63.5173 204.367 62.888C204.677 62.2587 205.098 61.7733 205.631 61.432C206.165 61.0907 206.762 60.92 207.423 60.92C208.511 60.92 209.333 61.2987 209.887 62.056V58.184ZM207.743 67.768C208.394 67.768 208.927 67.528 209.343 67.048C209.759 66.5573 209.967 65.896 209.967 65.064C209.967 64.232 209.759 63.576 209.343 63.096C208.927 62.616 208.394 62.376 207.743 62.376C207.114 62.376 206.607 62.6213 206.223 63.112C205.839 63.6027 205.647 64.2533 205.647 65.064C205.647 65.8853 205.834 66.5413 206.207 67.032C206.591 67.5227 207.103 67.768 207.743 67.768Z" fill="white"/>
<rect x="116" y="41" width="112" height="46" rx="7" stroke="#0063FB" stroke-width="2"/>
</svg>
