<svg width="344" height="342" viewBox="0 0 344 342" fill="none" xmlns="http://www.w3.org/2000/svg">
<rect width="344" height="342" fill="#F5F5F5"/>
<rect x="32.5" y="72.5" width="90" height="31" rx="3.5" fill="white"/>
<path d="M42.5 88H53.5" stroke="#767676" stroke-width="1.5" stroke-linecap="round" stroke-linejoin="round"/>
<path d="M48 82.5V93.5" stroke="#767676" stroke-width="1.5" stroke-linecap="round" stroke-linejoin="round"/>
<path d="M71.044 92C70.804 92 70.644 91.888 70.564 91.664L70 90.044H66.232L65.668 91.664C65.588 91.888 65.428 92 65.188 92H64.684C64.564 92 64.468 91.976 64.396 91.928C64.332 91.872 64.3 91.796 64.3 91.7C64.3 91.652 64.312 91.592 64.336 91.52L67.12 83.816C67.2 83.592 67.36 83.48 67.6 83.48H68.668C68.908 83.48 69.068 83.592 69.148 83.816L71.932 91.52C71.956 91.592 71.968 91.652 71.968 91.7C71.968 91.796 71.932 91.872 71.86 91.928C71.796 91.976 71.704 92 71.584 92H71.044ZM69.616 88.904L69.244 87.848C69.236 87.832 69.148 87.58 68.98 87.092C68.556 85.892 68.268 85.036 68.116 84.524C67.884 85.26 67.576 86.172 67.192 87.26L66.988 87.86L66.628 88.904H69.616ZM77.1108 83.888C77.1108 83.752 77.1468 83.648 77.2188 83.576C77.2988 83.504 77.4028 83.468 77.5308 83.468H77.9628C78.0988 83.468 78.2028 83.504 78.2748 83.576C78.3468 83.648 78.3828 83.752 78.3828 83.888V91.58C78.3828 91.708 78.3468 91.812 78.2748 91.892C78.2028 91.964 78.0988 92 77.9628 92H77.6148C77.4868 92 77.3828 91.964 77.3028 91.892C77.2308 91.812 77.1948 91.708 77.1948 91.58V91.16C76.7788 91.832 76.1268 92.168 75.2388 92.168C74.7428 92.168 74.2948 92.04 73.8948 91.784C73.5028 91.528 73.1948 91.164 72.9708 90.692C72.7468 90.22 72.6348 89.672 72.6348 89.048C72.6348 88.432 72.7468 87.888 72.9708 87.416C73.2028 86.944 73.5188 86.58 73.9188 86.324C74.3188 86.068 74.7668 85.94 75.2628 85.94C76.0788 85.94 76.6948 86.224 77.1108 86.792V83.888ZM75.5028 91.076C75.9908 91.076 76.3908 90.896 76.7028 90.536C77.0148 90.168 77.1708 89.672 77.1708 89.048C77.1708 88.424 77.0148 87.932 76.7028 87.572C76.3908 87.212 75.9908 87.032 75.5028 87.032C75.0308 87.032 74.6508 87.216 74.3628 87.584C74.0748 87.952 73.9308 88.44 73.9308 89.048C73.9308 89.664 74.0708 90.156 74.3508 90.524C74.6388 90.892 75.0228 91.076 75.5028 91.076ZM84.0249 83.888C84.0249 83.752 84.0609 83.648 84.1329 83.576C84.2129 83.504 84.3169 83.468 84.4449 83.468H84.8769C85.0129 83.468 85.1169 83.504 85.1889 83.576C85.2609 83.648 85.2969 83.752 85.2969 83.888V91.58C85.2969 91.708 85.2609 91.812 85.1889 91.892C85.1169 91.964 85.0129 92 84.8769 92H84.5289C84.4009 92 84.2969 91.964 84.2169 91.892C84.1449 91.812 84.1089 91.708 84.1089 91.58V91.16C83.6929 91.832 83.0409 92.168 82.1529 92.168C81.6569 92.168 81.2089 92.04 80.8089 91.784C80.4169 91.528 80.1089 91.164 79.8849 90.692C79.6609 90.22 79.5489 89.672 79.5489 89.048C79.5489 88.432 79.6609 87.888 79.8849 87.416C80.1169 86.944 80.4329 86.58 80.8329 86.324C81.2329 86.068 81.6809 85.94 82.1769 85.94C82.9929 85.94 83.6089 86.224 84.0249 86.792V83.888ZM82.4169 91.076C82.9049 91.076 83.3049 90.896 83.6169 90.536C83.9289 90.168 84.0849 89.672 84.0849 89.048C84.0849 88.424 83.9289 87.932 83.6169 87.572C83.3049 87.212 82.9049 87.032 82.4169 87.032C81.9449 87.032 81.5649 87.216 81.2769 87.584C80.9889 87.952 80.8449 88.44 80.8449 89.048C80.8449 89.664 80.9849 90.156 81.2649 90.524C81.5529 90.892 81.9369 91.076 82.4169 91.076ZM92.7902 84.932C92.5582 84.932 92.3622 84.856 92.2022 84.704C92.0422 84.544 91.9622 84.356 91.9622 84.14C91.9622 83.916 92.0422 83.728 92.2022 83.576C92.3622 83.424 92.5582 83.348 92.7902 83.348C93.0222 83.348 93.2182 83.424 93.3782 83.576C93.5382 83.728 93.6182 83.916 93.6182 84.14C93.6182 84.356 93.5382 84.544 93.3782 84.704C93.2182 84.856 93.0222 84.932 92.7902 84.932ZM92.5622 92C92.4342 92 92.3302 91.964 92.2502 91.892C92.1782 91.812 92.1422 91.708 92.1422 91.58V86.504C92.1422 86.368 92.1782 86.264 92.2502 86.192C92.3302 86.12 92.4342 86.084 92.5622 86.084H92.9942C93.1302 86.084 93.2342 86.12 93.3062 86.192C93.3782 86.264 93.4142 86.368 93.4142 86.504V91.58C93.4142 91.708 93.3782 91.812 93.3062 91.892C93.2342 91.964 93.1302 92 92.9942 92H92.5622ZM97.7403 90.992C97.7643 90.984 97.8003 90.98 97.8483 90.98C98.0483 90.98 98.1683 91.096 98.2083 91.328L98.2443 91.52C98.2523 91.544 98.2563 91.584 98.2563 91.64C98.2563 91.84 98.1443 91.968 97.9203 92.024C97.6003 92.096 97.3083 92.132 97.0443 92.132C96.4763 92.132 96.0643 92 95.8083 91.736C95.5603 91.472 95.4363 91.076 95.4363 90.548V87.056H94.7763C94.6483 87.056 94.5443 87.02 94.4643 86.948C94.3923 86.868 94.3563 86.764 94.3563 86.636V86.504C94.3563 86.368 94.3923 86.264 94.4643 86.192C94.5443 86.12 94.6483 86.084 94.7763 86.084H95.4363V84.596C95.4363 84.46 95.4723 84.356 95.5443 84.284C95.6243 84.212 95.7283 84.176 95.8563 84.176H96.2883C96.4243 84.176 96.5283 84.212 96.6003 84.284C96.6723 84.356 96.7083 84.46 96.7083 84.596V86.084H97.7883C97.9243 86.084 98.0283 86.12 98.1003 86.192C98.1723 86.264 98.2083 86.368 98.2083 86.504V86.636C98.2083 86.764 98.1723 86.868 98.1003 86.948C98.0283 87.02 97.9243 87.056 97.7883 87.056H96.7083V90.392C96.7083 90.624 96.7563 90.788 96.8523 90.884C96.9563 90.98 97.1203 91.028 97.3443 91.028C97.4403 91.028 97.5723 91.016 97.7403 90.992ZM103.304 90.488C103.408 90.4 103.508 90.356 103.604 90.356C103.7 90.356 103.8 90.408 103.904 90.512L104.072 90.692C104.16 90.796 104.204 90.896 104.204 90.992C104.204 91.096 104.152 91.196 104.048 91.292C103.68 91.612 103.312 91.84 102.944 91.976C102.584 92.112 102.184 92.18 101.744 92.18C101.128 92.18 100.592 92.052 100.136 91.796C99.6879 91.54 99.3399 91.18 99.0919 90.716C98.8519 90.244 98.7319 89.7 98.7319 89.084C98.7319 88.476 98.8479 87.932 99.0799 87.452C99.3199 86.964 99.6559 86.584 100.088 86.312C100.528 86.04 101.04 85.904 101.624 85.904C102.496 85.904 103.168 86.164 103.64 86.684C104.112 87.196 104.348 87.904 104.348 88.808V88.916C104.34 89.044 104.3 89.144 104.228 89.216C104.156 89.288 104.052 89.324 103.916 89.324H99.9799C100.028 89.852 100.2 90.284 100.496 90.62C100.8 90.948 101.224 91.112 101.768 91.112C102.064 91.112 102.324 91.068 102.548 90.98C102.772 90.884 103.024 90.72 103.304 90.488ZM101.6 86.912C101.16 86.912 100.804 87.044 100.532 87.308C100.268 87.564 100.096 87.928 100.016 88.4H103.1C103.068 87.936 102.924 87.572 102.668 87.308C102.412 87.044 102.056 86.912 101.6 86.912ZM111.861 85.904C112.493 85.904 112.981 86.084 113.325 86.444C113.669 86.796 113.841 87.272 113.841 87.872V91.58C113.841 91.708 113.805 91.812 113.733 91.892C113.661 91.964 113.557 92 113.421 92H112.989C112.861 92 112.757 91.964 112.677 91.892C112.605 91.812 112.569 91.708 112.569 91.58V88.256C112.569 87.864 112.481 87.556 112.305 87.332C112.129 87.108 111.861 86.996 111.501 86.996C111.133 86.996 110.841 87.12 110.625 87.368C110.417 87.616 110.313 87.936 110.313 88.328V91.58C110.313 91.708 110.277 91.812 110.205 91.892C110.133 91.964 110.029 92 109.893 92H109.461C109.333 92 109.229 91.964 109.149 91.892C109.077 91.812 109.041 91.708 109.041 91.58V88.256C109.041 87.864 108.953 87.556 108.777 87.332C108.609 87.108 108.345 86.996 107.985 86.996C107.633 86.996 107.349 87.112 107.133 87.344C106.917 87.576 106.801 87.876 106.785 88.244V91.58C106.785 91.708 106.749 91.812 106.677 91.892C106.605 91.964 106.501 92 106.365 92H105.933C105.805 92 105.701 91.964 105.621 91.892C105.549 91.812 105.513 91.708 105.513 91.58V86.504C105.513 86.368 105.549 86.264 105.621 86.192C105.701 86.12 105.805 86.084 105.933 86.084H106.281C106.417 86.084 106.521 86.12 106.593 86.192C106.665 86.264 106.701 86.368 106.701 86.504V86.768C107.069 86.192 107.637 85.904 108.405 85.904C108.789 85.904 109.125 85.984 109.413 86.144C109.701 86.304 109.921 86.528 110.073 86.816C110.481 86.208 111.077 85.904 111.861 85.904Z" fill="#474445"/>
<rect x="32.5" y="72.5" width="90" height="31" rx="3.5" stroke="#C3CCD9"/>
<rect x="32.5" y="222.5" width="90" height="31" rx="3.5" fill="white"/>
<path d="M42.5 238H53.5" stroke="#767676" stroke-width="1.5" stroke-linecap="round" stroke-linejoin="round"/>
<path d="M48 232.5V243.5" stroke="#767676" stroke-width="1.5" stroke-linecap="round" stroke-linejoin="round"/>
<path d="M71.044 242C70.804 242 70.644 241.888 70.564 241.664L70 240.044H66.232L65.668 241.664C65.588 241.888 65.428 242 65.188 242H64.684C64.564 242 64.468 241.976 64.396 241.928C64.332 241.872 64.3 241.796 64.3 241.7C64.3 241.652 64.312 241.592 64.336 241.52L67.12 233.816C67.2 233.592 67.36 233.48 67.6 233.48H68.668C68.908 233.48 69.068 233.592 69.148 233.816L71.932 241.52C71.956 241.592 71.968 241.652 71.968 241.7C71.968 241.796 71.932 241.872 71.86 241.928C71.796 241.976 71.704 242 71.584 242H71.044ZM69.616 238.904L69.244 237.848C69.236 237.832 69.148 237.58 68.98 237.092C68.556 235.892 68.268 235.036 68.116 234.524C67.884 235.26 67.576 236.172 67.192 237.26L66.988 237.86L66.628 238.904H69.616ZM77.1108 233.888C77.1108 233.752 77.1468 233.648 77.2188 233.576C77.2988 233.504 77.4028 233.468 77.5308 233.468H77.9628C78.0988 233.468 78.2028 233.504 78.2748 233.576C78.3468 233.648 78.3828 233.752 78.3828 233.888V241.58C78.3828 241.708 78.3468 241.812 78.2748 241.892C78.2028 241.964 78.0988 242 77.9628 242H77.6148C77.4868 242 77.3828 241.964 77.3028 241.892C77.2308 241.812 77.1948 241.708 77.1948 241.58V241.16C76.7788 241.832 76.1268 242.168 75.2388 242.168C74.7428 242.168 74.2948 242.04 73.8948 241.784C73.5028 241.528 73.1948 241.164 72.9708 240.692C72.7468 240.22 72.6348 239.672 72.6348 239.048C72.6348 238.432 72.7468 237.888 72.9708 237.416C73.2028 236.944 73.5188 236.58 73.9188 236.324C74.3188 236.068 74.7668 235.94 75.2628 235.94C76.0788 235.94 76.6948 236.224 77.1108 236.792V233.888ZM75.5028 241.076C75.9908 241.076 76.3908 240.896 76.7028 240.536C77.0148 240.168 77.1708 239.672 77.1708 239.048C77.1708 238.424 77.0148 237.932 76.7028 237.572C76.3908 237.212 75.9908 237.032 75.5028 237.032C75.0308 237.032 74.6508 237.216 74.3628 237.584C74.0748 237.952 73.9308 238.44 73.9308 239.048C73.9308 239.664 74.0708 240.156 74.3508 240.524C74.6388 240.892 75.0228 241.076 75.5028 241.076ZM84.0249 233.888C84.0249 233.752 84.0609 233.648 84.1329 233.576C84.2129 233.504 84.3169 233.468 84.4449 233.468H84.8769C85.0129 233.468 85.1169 233.504 85.1889 233.576C85.2609 233.648 85.2969 233.752 85.2969 233.888V241.58C85.2969 241.708 85.2609 241.812 85.1889 241.892C85.1169 241.964 85.0129 242 84.8769 242H84.5289C84.4009 242 84.2969 241.964 84.2169 241.892C84.1449 241.812 84.1089 241.708 84.1089 241.58V241.16C83.6929 241.832 83.0409 242.168 82.1529 242.168C81.6569 242.168 81.2089 242.04 80.8089 241.784C80.4169 241.528 80.1089 241.164 79.8849 240.692C79.6609 240.22 79.5489 239.672 79.5489 239.048C79.5489 238.432 79.6609 237.888 79.8849 237.416C80.1169 236.944 80.4329 236.58 80.8329 236.324C81.2329 236.068 81.6809 235.94 82.1769 235.94C82.9929 235.94 83.6089 236.224 84.0249 236.792V233.888ZM82.4169 241.076C82.9049 241.076 83.3049 240.896 83.6169 240.536C83.9289 240.168 84.0849 239.672 84.0849 239.048C84.0849 238.424 83.9289 237.932 83.6169 237.572C83.3049 237.212 82.9049 237.032 82.4169 237.032C81.9449 237.032 81.5649 237.216 81.2769 237.584C80.9889 237.952 80.8449 238.44 80.8449 239.048C80.8449 239.664 80.9849 240.156 81.2649 240.524C81.5529 240.892 81.9369 241.076 82.4169 241.076ZM92.7902 234.932C92.5582 234.932 92.3622 234.856 92.2022 234.704C92.0422 234.544 91.9622 234.356 91.9622 234.14C91.9622 233.916 92.0422 233.728 92.2022 233.576C92.3622 233.424 92.5582 233.348 92.7902 233.348C93.0222 233.348 93.2182 233.424 93.3782 233.576C93.5382 233.728 93.6182 233.916 93.6182 234.14C93.6182 234.356 93.5382 234.544 93.3782 234.704C93.2182 234.856 93.0222 234.932 92.7902 234.932ZM92.5622 242C92.4342 242 92.3302 241.964 92.2502 241.892C92.1782 241.812 92.1422 241.708 92.1422 241.58V236.504C92.1422 236.368 92.1782 236.264 92.2502 236.192C92.3302 236.12 92.4342 236.084 92.5622 236.084H92.9942C93.1302 236.084 93.2342 236.12 93.3062 236.192C93.3782 236.264 93.4142 236.368 93.4142 236.504V241.58C93.4142 241.708 93.3782 241.812 93.3062 241.892C93.2342 241.964 93.1302 242 92.9942 242H92.5622ZM97.7403 240.992C97.7643 240.984 97.8003 240.98 97.8483 240.98C98.0483 240.98 98.1683 241.096 98.2083 241.328L98.2443 241.52C98.2523 241.544 98.2563 241.584 98.2563 241.64C98.2563 241.84 98.1443 241.968 97.9203 242.024C97.6003 242.096 97.3083 242.132 97.0443 242.132C96.4763 242.132 96.0643 242 95.8083 241.736C95.5603 241.472 95.4363 241.076 95.4363 240.548V237.056H94.7763C94.6483 237.056 94.5443 237.02 94.4643 236.948C94.3923 236.868 94.3563 236.764 94.3563 236.636V236.504C94.3563 236.368 94.3923 236.264 94.4643 236.192C94.5443 236.12 94.6483 236.084 94.7763 236.084H95.4363V234.596C95.4363 234.46 95.4723 234.356 95.5443 234.284C95.6243 234.212 95.7283 234.176 95.8563 234.176H96.2883C96.4243 234.176 96.5283 234.212 96.6003 234.284C96.6723 234.356 96.7083 234.46 96.7083 234.596V236.084H97.7883C97.9243 236.084 98.0283 236.12 98.1003 236.192C98.1723 236.264 98.2083 236.368 98.2083 236.504V236.636C98.2083 236.764 98.1723 236.868 98.1003 236.948C98.0283 237.02 97.9243 237.056 97.7883 237.056H96.7083V240.392C96.7083 240.624 96.7563 240.788 96.8523 240.884C96.9563 240.98 97.1203 241.028 97.3443 241.028C97.4403 241.028 97.5723 241.016 97.7403 240.992ZM103.304 240.488C103.408 240.4 103.508 240.356 103.604 240.356C103.7 240.356 103.8 240.408 103.904 240.512L104.072 240.692C104.16 240.796 104.204 240.896 104.204 240.992C104.204 241.096 104.152 241.196 104.048 241.292C103.68 241.612 103.312 241.84 102.944 241.976C102.584 242.112 102.184 242.18 101.744 242.18C101.128 242.18 100.592 242.052 100.136 241.796C99.6879 241.54 99.3399 241.18 99.0919 240.716C98.8519 240.244 98.7319 239.7 98.7319 239.084C98.7319 238.476 98.8479 237.932 99.0799 237.452C99.3199 236.964 99.6559 236.584 100.088 236.312C100.528 236.04 101.04 235.904 101.624 235.904C102.496 235.904 103.168 236.164 103.64 236.684C104.112 237.196 104.348 237.904 104.348 238.808V238.916C104.34 239.044 104.3 239.144 104.228 239.216C104.156 239.288 104.052 239.324 103.916 239.324H99.9799C100.028 239.852 100.2 240.284 100.496 240.62C100.8 240.948 101.224 241.112 101.768 241.112C102.064 241.112 102.324 241.068 102.548 240.98C102.772 240.884 103.024 240.72 103.304 240.488ZM101.6 236.912C101.16 236.912 100.804 237.044 100.532 237.308C100.268 237.564 100.096 237.928 100.016 238.4H103.1C103.068 237.936 102.924 237.572 102.668 237.308C102.412 237.044 102.056 236.912 101.6 236.912ZM111.861 235.904C112.493 235.904 112.981 236.084 113.325 236.444C113.669 236.796 113.841 237.272 113.841 237.872V241.58C113.841 241.708 113.805 241.812 113.733 241.892C113.661 241.964 113.557 242 113.421 242H112.989C112.861 242 112.757 241.964 112.677 241.892C112.605 241.812 112.569 241.708 112.569 241.58V238.256C112.569 237.864 112.481 237.556 112.305 237.332C112.129 237.108 111.861 236.996 111.501 236.996C111.133 236.996 110.841 237.12 110.625 237.368C110.417 237.616 110.313 237.936 110.313 238.328V241.58C110.313 241.708 110.277 241.812 110.205 241.892C110.133 241.964 110.029 242 109.893 242H109.461C109.333 242 109.229 241.964 109.149 241.892C109.077 241.812 109.041 241.708 109.041 241.58V238.256C109.041 237.864 108.953 237.556 108.777 237.332C108.609 237.108 108.345 236.996 107.985 236.996C107.633 236.996 107.349 237.112 107.133 237.344C106.917 237.576 106.801 237.876 106.785 238.244V241.58C106.785 241.708 106.749 241.812 106.677 241.892C106.605 241.964 106.501 242 106.365 242H105.933C105.805 242 105.701 241.964 105.621 241.892C105.549 241.812 105.513 241.708 105.513 241.58V236.504C105.513 236.368 105.549 236.264 105.621 236.192C105.701 236.12 105.805 236.084 105.933 236.084H106.281C106.417 236.084 106.521 236.12 106.593 236.192C106.665 236.264 106.701 236.368 106.701 236.504V236.768C107.069 236.192 107.637 235.904 108.405 235.904C108.789 235.904 109.125 235.984 109.413 236.144C109.701 236.304 109.921 236.528 110.073 236.816C110.481 236.208 111.077 235.904 111.861 235.904Z" fill="#474445"/>
<rect x="32.5" y="222.5" width="90" height="31" rx="3.5" stroke="#C3CCD9"/>
<rect x="155.5" y="72.5" width="84" height="31" rx="3.5" fill="white"/>
<circle cx="170.953" cy="87.9531" r="2" stroke="#767676" stroke-width="1.5"/>
<path d="M170.035 81.5335C170.303 80.5513 171.697 80.5513 171.965 81.5335L172.306 82.7823C172.478 83.4129 173.199 83.7115 173.766 83.3873L174.89 82.7454C175.774 82.2405 176.76 83.2255 176.255 84.1096L175.613 85.2338C175.289 85.8014 175.587 86.5222 176.218 86.6944L177.466 87.0353C178.449 87.3035 178.449 88.6965 177.466 88.9647L176.218 89.3056C175.587 89.4778 175.289 90.1986 175.613 90.7662L176.255 91.8904C176.76 92.7745 175.774 93.7595 174.89 93.2546L173.766 92.6127C173.199 92.2885 172.478 92.5871 172.306 93.2177L171.965 94.4665C171.697 95.4487 170.303 95.4487 170.035 94.4665L169.694 93.2177C169.522 92.5871 168.801 92.2885 168.234 92.6127L167.11 93.2546C166.226 93.7595 165.24 92.7745 165.745 91.8904L166.387 90.7662C166.711 90.1986 166.413 89.4778 165.782 89.3056L164.534 88.9647C163.551 88.6965 163.551 87.3035 164.534 87.0353L165.782 86.6944C166.413 86.5222 166.711 85.8014 166.387 85.2338L165.745 84.1096C165.24 83.2255 166.226 82.2405 167.11 82.7454L168.234 83.3873C168.801 83.7115 169.522 83.4129 169.694 82.7823L170.035 81.5335Z" stroke="#767676" stroke-width="1.5"/>
<path d="M190.924 92.192C190.268 92.192 189.68 92.1 189.16 91.916C188.648 91.724 188.12 91.404 187.576 90.956C187.464 90.868 187.408 90.764 187.408 90.644C187.408 90.54 187.448 90.444 187.528 90.356L187.804 90.032C187.892 89.92 187.992 89.864 188.104 89.864C188.192 89.864 188.292 89.908 188.404 89.996C188.884 90.38 189.312 90.644 189.688 90.788C190.072 90.932 190.492 91.004 190.948 91.004C191.5 91.004 191.948 90.88 192.292 90.632C192.636 90.376 192.808 90.028 192.808 89.588C192.808 89.3 192.72 89.076 192.544 88.916C192.368 88.748 192.14 88.62 191.86 88.532C191.588 88.444 191.144 88.328 190.528 88.184C189.784 88.008 189.204 87.816 188.788 87.608C188.372 87.4 188.072 87.152 187.888 86.864C187.712 86.568 187.624 86.196 187.624 85.748C187.624 85.276 187.76 84.852 188.032 84.476C188.304 84.1 188.676 83.808 189.148 83.6C189.628 83.392 190.164 83.288 190.756 83.288C191.356 83.288 191.884 83.368 192.34 83.528C192.804 83.688 193.268 83.948 193.732 84.308C193.852 84.404 193.912 84.504 193.912 84.608C193.912 84.696 193.872 84.792 193.792 84.896L193.528 85.208C193.432 85.32 193.332 85.376 193.228 85.376C193.132 85.376 193.032 85.336 192.928 85.256C192.544 84.96 192.188 84.756 191.86 84.644C191.532 84.532 191.16 84.476 190.744 84.476C190.216 84.476 189.788 84.592 189.46 84.824C189.132 85.056 188.968 85.348 188.968 85.7C188.968 85.956 189.044 86.16 189.196 86.312C189.348 86.464 189.568 86.588 189.856 86.684C190.144 86.78 190.588 86.896 191.188 87.032C191.916 87.208 192.492 87.396 192.916 87.596C193.34 87.788 193.656 88.036 193.864 88.34C194.072 88.644 194.176 89.032 194.176 89.504C194.176 90.032 194.04 90.5 193.768 90.908C193.496 91.316 193.116 91.632 192.628 91.856C192.14 92.08 191.572 92.192 190.924 92.192ZM199.644 90.488C199.748 90.4 199.848 90.356 199.944 90.356C200.04 90.356 200.14 90.408 200.244 90.512L200.412 90.692C200.5 90.796 200.544 90.896 200.544 90.992C200.544 91.096 200.492 91.196 200.388 91.292C200.02 91.612 199.652 91.84 199.284 91.976C198.924 92.112 198.524 92.18 198.084 92.18C197.468 92.18 196.932 92.052 196.476 91.796C196.028 91.54 195.68 91.18 195.432 90.716C195.192 90.244 195.072 89.7 195.072 89.084C195.072 88.476 195.188 87.932 195.42 87.452C195.66 86.964 195.996 86.584 196.428 86.312C196.868 86.04 197.38 85.904 197.964 85.904C198.836 85.904 199.508 86.164 199.98 86.684C200.452 87.196 200.688 87.904 200.688 88.808V88.916C200.68 89.044 200.64 89.144 200.568 89.216C200.496 89.288 200.392 89.324 200.256 89.324H196.32C196.368 89.852 196.54 90.284 196.836 90.62C197.14 90.948 197.564 91.112 198.108 91.112C198.404 91.112 198.664 91.068 198.888 90.98C199.112 90.884 199.364 90.72 199.644 90.488ZM197.94 86.912C197.5 86.912 197.144 87.044 196.872 87.308C196.608 87.564 196.436 87.928 196.356 88.4H199.44C199.408 87.936 199.264 87.572 199.008 87.308C198.752 87.044 198.396 86.912 197.94 86.912ZM204.639 90.992C204.663 90.984 204.699 90.98 204.747 90.98C204.947 90.98 205.067 91.096 205.107 91.328L205.143 91.52C205.151 91.544 205.155 91.584 205.155 91.64C205.155 91.84 205.043 91.968 204.819 92.024C204.499 92.096 204.207 92.132 203.943 92.132C203.375 92.132 202.963 92 202.707 91.736C202.459 91.472 202.335 91.076 202.335 90.548V87.056H201.675C201.547 87.056 201.443 87.02 201.363 86.948C201.291 86.868 201.255 86.764 201.255 86.636V86.504C201.255 86.368 201.291 86.264 201.363 86.192C201.443 86.12 201.547 86.084 201.675 86.084H202.335V84.596C202.335 84.46 202.371 84.356 202.443 84.284C202.523 84.212 202.627 84.176 202.755 84.176H203.187C203.323 84.176 203.427 84.212 203.499 84.284C203.571 84.356 203.607 84.46 203.607 84.596V86.084H204.687C204.823 86.084 204.927 86.12 204.999 86.192C205.071 86.264 205.107 86.368 205.107 86.504V86.636C205.107 86.764 205.071 86.868 204.999 86.948C204.927 87.02 204.823 87.056 204.687 87.056H203.607V90.392C203.607 90.624 203.655 90.788 203.751 90.884C203.855 90.98 204.019 91.028 204.243 91.028C204.339 91.028 204.471 91.016 204.639 90.992ZM209.033 90.992C209.057 90.984 209.093 90.98 209.141 90.98C209.341 90.98 209.461 91.096 209.501 91.328L209.537 91.52C209.545 91.544 209.549 91.584 209.549 91.64C209.549 91.84 209.437 91.968 209.213 92.024C208.893 92.096 208.601 92.132 208.337 92.132C207.769 92.132 207.357 92 207.101 91.736C206.853 91.472 206.729 91.076 206.729 90.548V87.056H206.069C205.941 87.056 205.837 87.02 205.757 86.948C205.685 86.868 205.649 86.764 205.649 86.636V86.504C205.649 86.368 205.685 86.264 205.757 86.192C205.837 86.12 205.941 86.084 206.069 86.084H206.729V84.596C206.729 84.46 206.765 84.356 206.837 84.284C206.917 84.212 207.021 84.176 207.149 84.176H207.581C207.717 84.176 207.821 84.212 207.893 84.284C207.965 84.356 208.001 84.46 208.001 84.596V86.084H209.081C209.217 86.084 209.321 86.12 209.393 86.192C209.465 86.264 209.501 86.368 209.501 86.504V86.636C209.501 86.764 209.465 86.868 209.393 86.948C209.321 87.02 209.217 87.056 209.081 87.056H208.001V90.392C208.001 90.624 208.049 90.788 208.145 90.884C208.249 90.98 208.413 91.028 208.637 91.028C208.733 91.028 208.865 91.016 209.033 90.992ZM211.196 84.932C210.964 84.932 210.768 84.856 210.608 84.704C210.448 84.544 210.368 84.356 210.368 84.14C210.368 83.916 210.448 83.728 210.608 83.576C210.768 83.424 210.964 83.348 211.196 83.348C211.428 83.348 211.624 83.424 211.784 83.576C211.944 83.728 212.024 83.916 212.024 84.14C212.024 84.356 211.944 84.544 211.784 84.704C211.624 84.856 211.428 84.932 211.196 84.932ZM210.968 92C210.84 92 210.736 91.964 210.656 91.892C210.584 91.812 210.548 91.708 210.548 91.58V86.504C210.548 86.368 210.584 86.264 210.656 86.192C210.736 86.12 210.84 86.084 210.968 86.084H211.4C211.536 86.084 211.64 86.12 211.712 86.192C211.784 86.264 211.82 86.368 211.82 86.504V91.58C211.82 91.708 211.784 91.812 211.712 91.892C211.64 91.964 211.536 92 211.4 92H210.968ZM216.303 85.904C216.983 85.904 217.503 86.096 217.863 86.48C218.231 86.856 218.415 87.344 218.415 87.944V91.58C218.415 91.708 218.379 91.812 218.307 91.892C218.235 91.964 218.131 92 217.995 92H217.563C217.435 92 217.331 91.964 217.251 91.892C217.179 91.812 217.143 91.708 217.143 91.58V88.34C217.143 87.908 217.035 87.576 216.819 87.344C216.611 87.112 216.311 86.996 215.919 86.996C215.535 86.996 215.211 87.128 214.947 87.392C214.691 87.656 214.563 87.988 214.563 88.388V91.58C214.563 91.708 214.527 91.812 214.455 91.892C214.383 91.964 214.279 92 214.143 92H213.711C213.583 92 213.479 91.964 213.399 91.892C213.327 91.812 213.291 91.708 213.291 91.58V86.504C213.291 86.368 213.327 86.264 213.399 86.192C213.479 86.12 213.583 86.084 213.711 86.084H214.059C214.195 86.084 214.299 86.12 214.371 86.192C214.443 86.264 214.479 86.368 214.479 86.504V86.816C214.671 86.52 214.923 86.296 215.235 86.144C215.547 85.984 215.903 85.904 216.303 85.904ZM224.041 86.468C224.041 86.348 224.077 86.256 224.149 86.192C224.229 86.12 224.333 86.084 224.461 86.084H224.797C224.933 86.084 225.037 86.12 225.109 86.192C225.181 86.264 225.217 86.368 225.217 86.504V91.784C225.217 92.576 224.961 93.192 224.449 93.632C223.945 94.072 223.273 94.292 222.433 94.292C221.593 94.292 220.801 94.076 220.057 93.644C219.905 93.564 219.829 93.456 219.829 93.32C219.829 93.248 219.861 93.16 219.925 93.056L220.081 92.828C220.169 92.692 220.277 92.624 220.405 92.624C220.493 92.624 220.581 92.652 220.669 92.708C220.989 92.892 221.285 93.024 221.557 93.104C221.829 93.192 222.117 93.236 222.421 93.236C222.885 93.236 223.257 93.108 223.537 92.852C223.825 92.604 223.969 92.212 223.969 91.676V91.04C223.569 91.608 222.969 91.892 222.169 91.892C221.673 91.892 221.225 91.768 220.825 91.52C220.433 91.264 220.125 90.912 219.901 90.464C219.685 90.008 219.577 89.488 219.577 88.904C219.577 88.32 219.685 87.804 219.901 87.356C220.125 86.9 220.433 86.544 220.825 86.288C221.225 86.032 221.673 85.904 222.169 85.904C223.017 85.904 223.641 86.22 224.041 86.852V86.468ZM222.421 90.824C222.885 90.824 223.265 90.648 223.561 90.296C223.857 89.936 224.005 89.472 224.005 88.904C224.005 88.344 223.857 87.888 223.561 87.536C223.273 87.176 222.893 86.996 222.421 86.996C221.941 86.996 221.561 87.172 221.281 87.524C221.001 87.876 220.861 88.336 220.861 88.904C220.861 89.48 221.001 89.944 221.281 90.296C221.561 90.648 221.941 90.824 222.421 90.824ZM228.965 92.18C228.477 92.18 228.041 92.12 227.657 92C227.281 91.872 226.897 91.652 226.505 91.34C226.385 91.252 226.325 91.152 226.325 91.04C226.325 90.952 226.369 90.856 226.457 90.752L226.637 90.548C226.733 90.436 226.837 90.38 226.949 90.38C227.037 90.38 227.133 90.42 227.237 90.5C227.573 90.748 227.869 90.92 228.125 91.016C228.381 91.104 228.669 91.148 228.989 91.148C229.333 91.148 229.613 91.08 229.829 90.944C230.053 90.8 230.165 90.608 230.165 90.368C230.165 90.184 230.101 90.04 229.973 89.936C229.853 89.824 229.693 89.74 229.493 89.684C229.293 89.62 228.997 89.548 228.605 89.468C228.053 89.348 227.621 89.22 227.309 89.084C227.005 88.94 226.785 88.76 226.649 88.544C226.513 88.328 226.445 88.052 226.445 87.716C226.445 87.372 226.541 87.064 226.733 86.792C226.933 86.52 227.209 86.304 227.561 86.144C227.921 85.984 228.341 85.904 228.821 85.904C229.253 85.904 229.637 85.952 229.973 86.048C230.317 86.144 230.653 86.308 230.981 86.54C231.109 86.636 231.173 86.744 231.173 86.864C231.173 86.944 231.133 87.036 231.053 87.14L230.897 87.332C230.809 87.444 230.701 87.5 230.573 87.5C230.477 87.5 230.385 87.468 230.297 87.404C230.033 87.228 229.789 87.108 229.565 87.044C229.341 86.972 229.089 86.936 228.809 86.936C228.465 86.936 228.189 87.004 227.981 87.14C227.773 87.276 227.669 87.452 227.669 87.668C227.669 87.812 227.717 87.928 227.813 88.016C227.917 88.096 228.061 88.168 228.245 88.232C228.437 88.288 228.737 88.36 229.145 88.448C229.697 88.568 230.133 88.704 230.453 88.856C230.781 89 231.021 89.188 231.173 89.42C231.333 89.644 231.413 89.936 231.413 90.296C231.413 90.856 231.189 91.312 230.741 91.664C230.301 92.008 229.709 92.18 228.965 92.18Z" fill="#474445"/>
<rect x="155.5" y="72.5" width="84" height="31" rx="3.5" stroke="#C3CCD9"/>
<rect x="32.5" y="270.5" width="84" height="31" rx="3.5" fill="white"/>
<circle cx="47.9531" cy="285.953" r="2" stroke="#767676" stroke-width="1.5"/>
<path d="M47.0353 279.534C47.3035 278.551 48.6965 278.551 48.9647 279.534L49.3056 280.782C49.4778 281.413 50.1986 281.711 50.7662 281.387L51.8904 280.745C52.7745 280.24 53.7595 281.226 53.2546 282.11L52.6127 283.234C52.2885 283.801 52.5871 284.522 53.2177 284.694L54.4665 285.035C55.4487 285.303 55.4487 286.697 54.4665 286.965L53.2177 287.306C52.5871 287.478 52.2885 288.199 52.6127 288.766L53.2546 289.89C53.7595 290.774 52.7745 291.76 51.8904 291.255L50.7662 290.613C50.1986 290.289 49.4778 290.587 49.3056 291.218L48.9647 292.466C48.6965 293.449 47.3035 293.449 47.0353 292.466L46.6944 291.218C46.5222 290.587 45.8014 290.289 45.2338 290.613L44.1096 291.255C43.2255 291.76 42.2405 290.774 42.7454 289.89L43.3873 288.766C43.7115 288.199 43.4129 287.478 42.7823 287.306L41.5335 286.965C40.5513 286.697 40.5513 285.303 41.5335 285.035L42.7823 284.694C43.4129 284.522 43.7115 283.801 43.3873 283.234L42.7454 282.11C42.2405 281.226 43.2255 280.24 44.1096 280.745L45.2338 281.387C45.8014 281.711 46.5222 281.413 46.6944 280.782L47.0353 279.534Z" stroke="#767676" stroke-width="1.5"/>
<path d="M67.924 290.192C67.268 290.192 66.68 290.1 66.16 289.916C65.648 289.724 65.12 289.404 64.576 288.956C64.464 288.868 64.408 288.764 64.408 288.644C64.408 288.54 64.448 288.444 64.528 288.356L64.804 288.032C64.892 287.92 64.992 287.864 65.104 287.864C65.192 287.864 65.292 287.908 65.404 287.996C65.884 288.38 66.312 288.644 66.688 288.788C67.072 288.932 67.492 289.004 67.948 289.004C68.5 289.004 68.948 288.88 69.292 288.632C69.636 288.376 69.808 288.028 69.808 287.588C69.808 287.3 69.72 287.076 69.544 286.916C69.368 286.748 69.14 286.62 68.86 286.532C68.588 286.444 68.144 286.328 67.528 286.184C66.784 286.008 66.204 285.816 65.788 285.608C65.372 285.4 65.072 285.152 64.888 284.864C64.712 284.568 64.624 284.196 64.624 283.748C64.624 283.276 64.76 282.852 65.032 282.476C65.304 282.1 65.676 281.808 66.148 281.6C66.628 281.392 67.164 281.288 67.756 281.288C68.356 281.288 68.884 281.368 69.34 281.528C69.804 281.688 70.268 281.948 70.732 282.308C70.852 282.404 70.912 282.504 70.912 282.608C70.912 282.696 70.872 282.792 70.792 282.896L70.528 283.208C70.432 283.32 70.332 283.376 70.228 283.376C70.132 283.376 70.032 283.336 69.928 283.256C69.544 282.96 69.188 282.756 68.86 282.644C68.532 282.532 68.16 282.476 67.744 282.476C67.216 282.476 66.788 282.592 66.46 282.824C66.132 283.056 65.968 283.348 65.968 283.7C65.968 283.956 66.044 284.16 66.196 284.312C66.348 284.464 66.568 284.588 66.856 284.684C67.144 284.78 67.588 284.896 68.188 285.032C68.916 285.208 69.492 285.396 69.916 285.596C70.34 285.788 70.656 286.036 70.864 286.34C71.072 286.644 71.176 287.032 71.176 287.504C71.176 288.032 71.04 288.5 70.768 288.908C70.496 289.316 70.116 289.632 69.628 289.856C69.14 290.08 68.572 290.192 67.924 290.192ZM76.6438 288.488C76.7478 288.4 76.8478 288.356 76.9438 288.356C77.0398 288.356 77.1398 288.408 77.2438 288.512L77.4118 288.692C77.4998 288.796 77.5438 288.896 77.5438 288.992C77.5438 289.096 77.4918 289.196 77.3878 289.292C77.0198 289.612 76.6518 289.84 76.2838 289.976C75.9238 290.112 75.5238 290.18 75.0838 290.18C74.4678 290.18 73.9318 290.052 73.4758 289.796C73.0278 289.54 72.6798 289.18 72.4318 288.716C72.1918 288.244 72.0718 287.7 72.0718 287.084C72.0718 286.476 72.1878 285.932 72.4198 285.452C72.6598 284.964 72.9958 284.584 73.4278 284.312C73.8678 284.04 74.3798 283.904 74.9638 283.904C75.8358 283.904 76.5078 284.164 76.9798 284.684C77.4518 285.196 77.6878 285.904 77.6878 286.808V286.916C77.6798 287.044 77.6398 287.144 77.5678 287.216C77.4958 287.288 77.3918 287.324 77.2558 287.324H73.3198C73.3678 287.852 73.5398 288.284 73.8358 288.62C74.1398 288.948 74.5638 289.112 75.1078 289.112C75.4038 289.112 75.6638 289.068 75.8878 288.98C76.1118 288.884 76.3638 288.72 76.6438 288.488ZM74.9398 284.912C74.4998 284.912 74.1438 285.044 73.8718 285.308C73.6078 285.564 73.4358 285.928 73.3558 286.4H76.4398C76.4078 285.936 76.2638 285.572 76.0078 285.308C75.7518 285.044 75.3958 284.912 74.9398 284.912ZM81.6388 288.992C81.6628 288.984 81.6988 288.98 81.7468 288.98C81.9468 288.98 82.0668 289.096 82.1068 289.328L82.1428 289.52C82.1508 289.544 82.1548 289.584 82.1548 289.64C82.1548 289.84 82.0428 289.968 81.8188 290.024C81.4988 290.096 81.2068 290.132 80.9428 290.132C80.3748 290.132 79.9628 290 79.7068 289.736C79.4588 289.472 79.3348 289.076 79.3348 288.548V285.056H78.6748C78.5468 285.056 78.4428 285.02 78.3628 284.948C78.2908 284.868 78.2548 284.764 78.2548 284.636V284.504C78.2548 284.368 78.2908 284.264 78.3628 284.192C78.4428 284.12 78.5468 284.084 78.6748 284.084H79.3348V282.596C79.3348 282.46 79.3708 282.356 79.4428 282.284C79.5228 282.212 79.6268 282.176 79.7548 282.176H80.1868C80.3228 282.176 80.4268 282.212 80.4988 282.284C80.5708 282.356 80.6068 282.46 80.6068 282.596V284.084H81.6868C81.8228 284.084 81.9268 284.12 81.9988 284.192C82.0708 284.264 82.1068 284.368 82.1068 284.504V284.636C82.1068 284.764 82.0708 284.868 81.9988 284.948C81.9268 285.02 81.8228 285.056 81.6868 285.056H80.6068V288.392C80.6068 288.624 80.6548 288.788 80.7508 288.884C80.8548 288.98 81.0188 289.028 81.2428 289.028C81.3388 289.028 81.4708 289.016 81.6388 288.992ZM86.0333 288.992C86.0573 288.984 86.0933 288.98 86.1413 288.98C86.3413 288.98 86.4613 289.096 86.5013 289.328L86.5373 289.52C86.5453 289.544 86.5493 289.584 86.5493 289.64C86.5493 289.84 86.4373 289.968 86.2133 290.024C85.8933 290.096 85.6013 290.132 85.3373 290.132C84.7693 290.132 84.3573 290 84.1013 289.736C83.8533 289.472 83.7293 289.076 83.7293 288.548V285.056H83.0693C82.9413 285.056 82.8373 285.02 82.7573 284.948C82.6853 284.868 82.6493 284.764 82.6493 284.636V284.504C82.6493 284.368 82.6853 284.264 82.7573 284.192C82.8373 284.12 82.9413 284.084 83.0693 284.084H83.7293V282.596C83.7293 282.46 83.7653 282.356 83.8373 282.284C83.9173 282.212 84.0213 282.176 84.1493 282.176H84.5813C84.7173 282.176 84.8213 282.212 84.8933 282.284C84.9653 282.356 85.0013 282.46 85.0013 282.596V284.084H86.0813C86.2173 284.084 86.3213 284.12 86.3933 284.192C86.4653 284.264 86.5013 284.368 86.5013 284.504V284.636C86.5013 284.764 86.4653 284.868 86.3933 284.948C86.3213 285.02 86.2173 285.056 86.0813 285.056H85.0013V288.392C85.0013 288.624 85.0493 288.788 85.1453 288.884C85.2493 288.98 85.4133 289.028 85.6373 289.028C85.7333 289.028 85.8653 289.016 86.0333 288.992ZM88.1964 282.932C87.9644 282.932 87.7684 282.856 87.6084 282.704C87.4484 282.544 87.3684 282.356 87.3684 282.14C87.3684 281.916 87.4484 281.728 87.6084 281.576C87.7684 281.424 87.9644 281.348 88.1964 281.348C88.4284 281.348 88.6244 281.424 88.7844 281.576C88.9444 281.728 89.0244 281.916 89.0244 282.14C89.0244 282.356 88.9444 282.544 88.7844 282.704C88.6244 282.856 88.4284 282.932 88.1964 282.932ZM87.9684 290C87.8404 290 87.7364 289.964 87.6564 289.892C87.5844 289.812 87.5484 289.708 87.5484 289.58V284.504C87.5484 284.368 87.5844 284.264 87.6564 284.192C87.7364 284.12 87.8404 284.084 87.9684 284.084H88.4004C88.5364 284.084 88.6404 284.12 88.7124 284.192C88.7844 284.264 88.8204 284.368 88.8204 284.504V289.58C88.8204 289.708 88.7844 289.812 88.7124 289.892C88.6404 289.964 88.5364 290 88.4004 290H87.9684ZM93.3026 283.904C93.9826 283.904 94.5026 284.096 94.8626 284.48C95.2306 284.856 95.4146 285.344 95.4146 285.944V289.58C95.4146 289.708 95.3786 289.812 95.3066 289.892C95.2346 289.964 95.1306 290 94.9946 290H94.5626C94.4346 290 94.3306 289.964 94.2506 289.892C94.1786 289.812 94.1426 289.708 94.1426 289.58V286.34C94.1426 285.908 94.0346 285.576 93.8186 285.344C93.6106 285.112 93.3106 284.996 92.9186 284.996C92.5346 284.996 92.2106 285.128 91.9466 285.392C91.6906 285.656 91.5626 285.988 91.5626 286.388V289.58C91.5626 289.708 91.5266 289.812 91.4546 289.892C91.3826 289.964 91.2786 290 91.1426 290H90.7106C90.5826 290 90.4786 289.964 90.3986 289.892C90.3266 289.812 90.2906 289.708 90.2906 289.58V284.504C90.2906 284.368 90.3266 284.264 90.3986 284.192C90.4786 284.12 90.5826 284.084 90.7106 284.084H91.0586C91.1946 284.084 91.2986 284.12 91.3706 284.192C91.4426 284.264 91.4786 284.368 91.4786 284.504V284.816C91.6706 284.52 91.9226 284.296 92.2346 284.144C92.5466 283.984 92.9026 283.904 93.3026 283.904ZM101.041 284.468C101.041 284.348 101.077 284.256 101.149 284.192C101.229 284.12 101.333 284.084 101.461 284.084H101.797C101.933 284.084 102.037 284.12 102.109 284.192C102.181 284.264 102.217 284.368 102.217 284.504V289.784C102.217 290.576 101.961 291.192 101.449 291.632C100.945 292.072 100.273 292.292 99.4325 292.292C98.5925 292.292 97.8005 292.076 97.0565 291.644C96.9045 291.564 96.8285 291.456 96.8285 291.32C96.8285 291.248 96.8605 291.16 96.9245 291.056L97.0805 290.828C97.1685 290.692 97.2765 290.624 97.4045 290.624C97.4925 290.624 97.5805 290.652 97.6685 290.708C97.9885 290.892 98.2845 291.024 98.5565 291.104C98.8285 291.192 99.1165 291.236 99.4205 291.236C99.8845 291.236 100.257 291.108 100.537 290.852C100.825 290.604 100.969 290.212 100.969 289.676V289.04C100.569 289.608 99.9685 289.892 99.1685 289.892C98.6725 289.892 98.2245 289.768 97.8245 289.52C97.4325 289.264 97.1245 288.912 96.9005 288.464C96.6845 288.008 96.5765 287.488 96.5765 286.904C96.5765 286.32 96.6845 285.804 96.9005 285.356C97.1245 284.9 97.4325 284.544 97.8245 284.288C98.2245 284.032 98.6725 283.904 99.1685 283.904C100.017 283.904 100.641 284.22 101.041 284.852V284.468ZM99.4205 288.824C99.8845 288.824 100.265 288.648 100.561 288.296C100.857 287.936 101.005 287.472 101.005 286.904C101.005 286.344 100.857 285.888 100.561 285.536C100.273 285.176 99.8925 284.996 99.4205 284.996C98.9405 284.996 98.5605 285.172 98.2805 285.524C98.0005 285.876 97.8605 286.336 97.8605 286.904C97.8605 287.48 98.0005 287.944 98.2805 288.296C98.5605 288.648 98.9405 288.824 99.4205 288.824ZM105.965 290.18C105.477 290.18 105.041 290.12 104.657 290C104.281 289.872 103.897 289.652 103.505 289.34C103.385 289.252 103.325 289.152 103.325 289.04C103.325 288.952 103.369 288.856 103.457 288.752L103.637 288.548C103.733 288.436 103.837 288.38 103.949 288.38C104.037 288.38 104.133 288.42 104.237 288.5C104.573 288.748 104.869 288.92 105.125 289.016C105.381 289.104 105.669 289.148 105.989 289.148C106.333 289.148 106.613 289.08 106.829 288.944C107.053 288.8 107.165 288.608 107.165 288.368C107.165 288.184 107.101 288.04 106.973 287.936C106.853 287.824 106.693 287.74 106.493 287.684C106.293 287.62 105.997 287.548 105.605 287.468C105.053 287.348 104.621 287.22 104.309 287.084C104.005 286.94 103.785 286.76 103.649 286.544C103.513 286.328 103.445 286.052 103.445 285.716C103.445 285.372 103.541 285.064 103.733 284.792C103.933 284.52 104.209 284.304 104.561 284.144C104.921 283.984 105.341 283.904 105.821 283.904C106.253 283.904 106.637 283.952 106.973 284.048C107.317 284.144 107.653 284.308 107.981 284.54C108.109 284.636 108.173 284.744 108.173 284.864C108.173 284.944 108.133 285.036 108.053 285.14L107.897 285.332C107.809 285.444 107.701 285.5 107.573 285.5C107.477 285.5 107.385 285.468 107.297 285.404C107.033 285.228 106.789 285.108 106.565 285.044C106.341 284.972 106.089 284.936 105.809 284.936C105.465 284.936 105.189 285.004 104.981 285.14C104.773 285.276 104.669 285.452 104.669 285.668C104.669 285.812 104.717 285.928 104.813 286.016C104.917 286.096 105.061 286.168 105.245 286.232C105.437 286.288 105.737 286.36 106.145 286.448C106.697 286.568 107.133 286.704 107.453 286.856C107.781 287 108.021 287.188 108.173 287.42C108.333 287.644 108.413 287.936 108.413 288.296C108.413 288.856 108.189 289.312 107.741 289.664C107.301 290.008 106.709 290.18 105.965 290.18Z" fill="#474445"/>
<rect x="32.5" y="270.5" width="84" height="31" rx="3.5" stroke="#C3CCD9"/>
<path d="M53.34 129.66C53.1281 129.449 52.8764 129.282 52.5996 129.169C52.3227 129.055 52.0262 128.998 51.7271 129C51.428 129.002 51.1323 129.063 50.857 129.18C50.5817 129.297 50.3323 129.468 50.1232 129.682L41.1013 138.704L40 143L44.2963 141.898L53.3183 132.876C53.5322 132.667 53.7026 132.418 53.8196 132.142C53.9366 131.867 53.9979 131.571 53.9999 131.272C54.002 130.973 53.9447 130.677 53.8314 130.4C53.7182 130.123 53.5511 129.872 53.34 129.66V129.66Z" stroke="#767676" stroke-width="1.5" stroke-linecap="round" stroke-linejoin="round"/>
<path d="M266.34 231.66C266.128 231.449 265.876 231.282 265.6 231.169C265.323 231.055 265.026 230.998 264.727 231C264.428 231.002 264.132 231.063 263.857 231.18C263.582 231.297 263.332 231.468 263.123 231.682L254.101 240.704L253 245L257.296 243.898L266.318 234.876C266.532 234.667 266.703 234.418 266.82 234.142C266.937 233.867 266.998 233.571 267 233.272C267.002 232.973 266.945 232.677 266.831 232.4C266.718 232.123 266.551 231.872 266.34 231.66V231.66Z" stroke="#767676" stroke-width="1.5" stroke-linecap="round" stroke-linejoin="round"/>
<circle cx="84.9531" cy="135.953" r="2" stroke="#767676" stroke-width="1.5"/>
<path d="M84.0353 129.534C84.3035 128.551 85.6965 128.551 85.9647 129.534L86.3056 130.782C86.4778 131.413 87.1986 131.711 87.7662 131.387L88.8904 130.745C89.7745 130.24 90.7595 131.226 90.2546 132.11L89.6127 133.234C89.2885 133.801 89.5871 134.522 90.2177 134.694L91.4665 135.035C92.4487 135.303 92.4487 136.697 91.4665 136.965L90.2177 137.306C89.5871 137.478 89.2885 138.199 89.6127 138.766L90.2546 139.89C90.7595 140.774 89.7745 141.76 88.8904 141.255L87.7662 140.613C87.1986 140.289 86.4778 140.587 86.3056 141.218L85.9647 142.466C85.6965 143.449 84.3035 143.449 84.0353 142.466L83.6944 141.218C83.5222 140.587 82.8014 140.289 82.2338 140.613L81.1096 141.255C80.2255 141.76 79.2405 140.774 79.7454 139.89L80.3873 138.766C80.7115 138.199 80.4129 137.478 79.7823 137.306L78.5335 136.965C77.5513 136.697 77.5513 135.303 78.5335 135.035L79.7823 134.694C80.4129 134.522 80.7115 133.801 80.3873 133.234L79.7454 132.11C79.2405 131.226 80.2255 130.24 81.1096 130.745L82.2338 131.387C82.8014 131.711 83.5222 131.413 83.6944 130.782L84.0353 129.534Z" stroke="#767676" stroke-width="1.5"/>
<circle cx="259.953" cy="285.953" r="2" stroke="#767676" stroke-width="1.5"/>
<path d="M259.035 279.534C259.303 278.551 260.697 278.551 260.965 279.534L261.306 280.782C261.478 281.413 262.199 281.711 262.766 281.387L263.89 280.745C264.774 280.24 265.76 281.226 265.255 282.11L264.613 283.234C264.289 283.801 264.587 284.522 265.218 284.694L266.466 285.035C267.449 285.303 267.449 286.697 266.466 286.965L265.218 287.306C264.587 287.478 264.289 288.199 264.613 288.766L265.255 289.89C265.76 290.774 264.774 291.76 263.89 291.255L262.766 290.613C262.199 290.289 261.478 290.587 261.306 291.218L260.965 292.466C260.697 293.449 259.303 293.449 259.035 292.466L258.694 291.218C258.522 290.587 257.801 290.289 257.234 290.613L256.11 291.255C255.226 291.76 254.24 290.774 254.745 289.89L255.387 288.766C255.711 288.199 255.413 287.478 254.782 287.306L253.534 286.965C252.551 286.697 252.551 285.303 253.534 285.035L254.782 284.694C255.413 284.522 255.711 283.801 255.387 283.234L254.745 282.11C254.24 281.226 255.226 280.24 256.11 280.745L257.234 281.387C257.801 281.711 258.522 281.413 258.694 280.782L259.035 279.534Z" stroke="#767676" stroke-width="1.5"/>
<path d="M33.272 52C33.112 52 33.032 51.92 33.032 51.76V43.72C33.032 43.56 33.112 43.48 33.272 43.48H33.644C33.804 43.48 33.884 43.56 33.884 43.72V47.248H38.804V43.72C38.804 43.56 38.884 43.48 39.044 43.48H39.416C39.576 43.48 39.656 43.56 39.656 43.72V51.76C39.656 51.92 39.576 52 39.416 52H39.044C38.884 52 38.804 51.92 38.804 51.76V47.956H33.884V51.76C33.884 51.92 33.804 52 33.644 52H33.272ZM44.0196 52.156C43.4676 52.156 42.9756 52.024 42.5436 51.76C42.1116 51.496 41.7756 51.132 41.5356 50.668C41.2956 50.196 41.1756 49.656 41.1756 49.048C41.1756 48.44 41.2956 47.904 41.5356 47.44C41.7756 46.968 42.1116 46.6 42.5436 46.336C42.9756 46.072 43.4676 45.94 44.0196 45.94C44.5716 45.94 45.0636 46.072 45.4956 46.336C45.9276 46.6 46.2636 46.968 46.5036 47.44C46.7436 47.904 46.8636 48.44 46.8636 49.048C46.8636 49.656 46.7436 50.196 46.5036 50.668C46.2636 51.132 45.9276 51.496 45.4956 51.76C45.0636 52.024 44.5716 52.156 44.0196 52.156ZM44.0196 51.496C44.6356 51.496 45.1276 51.272 45.4956 50.824C45.8636 50.368 46.0476 49.776 46.0476 49.048C46.0476 48.32 45.8636 47.732 45.4956 47.284C45.1276 46.828 44.6356 46.6 44.0196 46.6C43.4036 46.6 42.9116 46.828 42.5436 47.284C42.1756 47.732 41.9916 48.32 41.9916 49.048C41.9916 49.776 42.1756 50.368 42.5436 50.824C42.9116 51.272 43.4036 51.496 44.0196 51.496ZM50.4476 46.036C50.6476 46.036 50.8836 46.068 51.1556 46.132C51.2996 46.18 51.3556 46.28 51.3236 46.432L51.2756 46.624C51.2356 46.776 51.1356 46.832 50.9756 46.792C50.7836 46.744 50.6076 46.72 50.4476 46.72C50.0396 46.72 49.6996 46.896 49.4276 47.248C49.1636 47.6 49.0316 48.088 49.0316 48.712V51.76C49.0316 51.92 48.9516 52 48.7916 52H48.4796C48.3196 52 48.2396 51.92 48.2396 51.76V46.324C48.2396 46.164 48.3196 46.084 48.4796 46.084H48.7436C48.9036 46.084 48.9836 46.164 48.9836 46.324V46.984C49.1196 46.688 49.3116 46.456 49.5596 46.288C49.8156 46.12 50.1116 46.036 50.4476 46.036ZM52.7957 44.584C52.6357 44.584 52.4997 44.528 52.3877 44.416C52.2837 44.304 52.2317 44.168 52.2317 44.008C52.2317 43.848 52.2837 43.716 52.3877 43.612C52.4997 43.508 52.6357 43.456 52.7957 43.456C52.9637 43.456 53.0997 43.508 53.2037 43.612C53.3157 43.716 53.3717 43.848 53.3717 44.008C53.3717 44.168 53.3157 44.304 53.2037 44.416C53.0997 44.528 52.9637 44.584 52.7957 44.584ZM52.6397 52C52.4797 52 52.3997 51.92 52.3997 51.76V46.324C52.3997 46.164 52.4797 46.084 52.6397 46.084H52.9517C53.1117 46.084 53.1917 46.164 53.1917 46.324V51.76C53.1917 51.92 53.1117 52 52.9517 52H52.6397ZM58.9984 46.084C59.1584 46.084 59.2384 46.164 59.2384 46.324V46.492C59.2384 46.596 59.2024 46.696 59.1304 46.792L55.5544 51.34H58.9984C59.1584 51.34 59.2384 51.42 59.2384 51.58V51.76C59.2384 51.92 59.1584 52 58.9984 52H54.7984C54.6384 52 54.5584 51.92 54.5584 51.76V51.58C54.5584 51.476 54.5944 51.376 54.6664 51.28L58.2424 46.744H55.0264C54.8664 46.744 54.7864 46.664 54.7864 46.504V46.324C54.7864 46.164 54.8664 46.084 55.0264 46.084H58.9984ZM62.8399 52.156C62.2879 52.156 61.7959 52.024 61.3639 51.76C60.9319 51.496 60.5959 51.132 60.3559 50.668C60.1159 50.196 59.9959 49.656 59.9959 49.048C59.9959 48.44 60.1159 47.904 60.3559 47.44C60.5959 46.968 60.9319 46.6 61.3639 46.336C61.7959 46.072 62.2879 45.94 62.8399 45.94C63.3919 45.94 63.8839 46.072 64.3159 46.336C64.7479 46.6 65.0839 46.968 65.3239 47.44C65.5639 47.904 65.6839 48.44 65.6839 49.048C65.6839 49.656 65.5639 50.196 65.3239 50.668C65.0839 51.132 64.7479 51.496 64.3159 51.76C63.8839 52.024 63.3919 52.156 62.8399 52.156ZM62.8399 51.496C63.4559 51.496 63.9479 51.272 64.3159 50.824C64.6839 50.368 64.8679 49.776 64.8679 49.048C64.8679 48.32 64.6839 47.732 64.3159 47.284C63.9479 46.828 63.4559 46.6 62.8399 46.6C62.2239 46.6 61.7319 46.828 61.3639 47.284C60.9959 47.732 60.8119 48.32 60.8119 49.048C60.8119 49.776 60.9959 50.368 61.3639 50.824C61.7319 51.272 62.2239 51.496 62.8399 51.496ZM69.6999 45.94C70.3959 45.94 70.9199 46.132 71.2719 46.516C71.6319 46.9 71.8119 47.38 71.8119 47.956V51.76C71.8119 51.92 71.7319 52 71.5719 52H71.2599C71.0999 52 71.0199 51.92 71.0199 51.76V48.22C71.0199 47.692 70.8919 47.292 70.6359 47.02C70.3799 46.748 70.0119 46.612 69.5319 46.612C69.2279 46.612 68.9479 46.688 68.6919 46.84C68.4359 46.984 68.2319 47.184 68.0799 47.44C67.9279 47.696 67.8519 47.976 67.8519 48.28V51.76C67.8519 51.92 67.7719 52 67.6119 52H67.2999C67.1399 52 67.0599 51.92 67.0599 51.76V46.324C67.0599 46.164 67.1399 46.084 67.2999 46.084H67.5639C67.7239 46.084 67.8039 46.164 67.8039 46.324V46.9C68.0039 46.58 68.2679 46.34 68.5959 46.18C68.9239 46.02 69.2919 45.94 69.6999 45.94ZM76.0637 51.34C76.0877 51.332 76.1197 51.328 76.1597 51.328C76.2077 51.328 76.2517 51.344 76.2917 51.376C76.3317 51.408 76.3557 51.452 76.3637 51.508L76.3997 51.676C76.4077 51.692 76.4117 51.72 76.4117 51.76C76.4117 51.872 76.3517 51.94 76.2317 51.964C75.9437 52.052 75.6357 52.096 75.3077 52.096C74.7877 52.096 74.4157 51.98 74.1917 51.748C73.9757 51.508 73.8677 51.164 73.8677 50.716V46.684H72.9797C72.8197 46.684 72.7397 46.604 72.7397 46.444V46.324C72.7397 46.164 72.8197 46.084 72.9797 46.084H73.8677V44.26C73.8677 44.1 73.9477 44.02 74.1077 44.02H74.4197C74.5797 44.02 74.6597 44.1 74.6597 44.26V46.084H76.0997C76.2597 46.084 76.3397 46.164 76.3397 46.324V46.444C76.3397 46.604 76.2597 46.684 76.0997 46.684H74.6597V50.62C74.6597 50.916 74.7157 51.124 74.8277 51.244C74.9397 51.364 75.1317 51.424 75.4037 51.424C75.5957 51.424 75.8157 51.396 76.0637 51.34ZM79.8399 45.94C80.5679 45.94 81.1359 46.116 81.5439 46.468C81.9519 46.812 82.1559 47.268 82.1559 47.836V51.76C82.1559 51.92 82.0759 52 81.9159 52H81.6759C81.5159 52 81.4359 51.92 81.4359 51.76V51.22C81.2359 51.54 80.9519 51.78 80.5839 51.94C80.2239 52.1 79.8199 52.18 79.3719 52.18C78.7479 52.18 78.2399 52.048 77.8479 51.784C77.4559 51.52 77.2599 51.112 77.2599 50.56C77.2599 50.12 77.3839 49.768 77.6319 49.504C77.8799 49.232 78.2039 49.028 78.6039 48.892C79.0039 48.748 79.5039 48.62 80.1039 48.508L81.3999 48.28V47.896C81.3999 47.488 81.2599 47.172 80.9799 46.948C80.6999 46.716 80.3319 46.6 79.8759 46.6C79.5319 46.6 79.2199 46.664 78.9399 46.792C78.6599 46.92 78.3599 47.14 78.0399 47.452C77.9839 47.508 77.9239 47.536 77.8599 47.536C77.8039 47.536 77.7519 47.512 77.7039 47.464L77.5479 47.32C77.4919 47.264 77.4639 47.204 77.4639 47.14C77.4639 47.068 77.4919 47.004 77.5479 46.948C77.8839 46.596 78.2359 46.34 78.6039 46.18C78.9799 46.02 79.3919 45.94 79.8399 45.94ZM79.4079 51.52C79.9839 51.52 80.4599 51.368 80.8359 51.064C81.2119 50.76 81.3999 50.372 81.3999 49.9V48.892L80.2839 49.108C79.7639 49.212 79.3519 49.312 79.0479 49.408C78.7439 49.504 78.4999 49.644 78.3159 49.828C78.1319 50.012 78.0399 50.252 78.0399 50.548C78.0399 50.852 78.1599 51.092 78.3999 51.268C78.6479 51.436 78.9839 51.52 79.4079 51.52ZM84.1634 52C84.0034 52 83.9234 51.92 83.9234 51.76V43.72C83.9234 43.56 84.0034 43.48 84.1634 43.48H84.4754C84.6354 43.48 84.7154 43.56 84.7154 43.72V51.76C84.7154 51.92 84.6354 52 84.4754 52H84.1634Z" fill="#767676"/>
<path d="M38.24 193.672C38.288 193.544 38.38 193.48 38.516 193.48H38.888C38.952 193.48 39.004 193.496 39.044 193.528C39.084 193.56 39.104 193.604 39.104 193.66L39.08 193.756L36.32 201.808C36.272 201.936 36.18 202 36.044 202H35.372C35.236 202 35.144 201.936 35.096 201.808L32.336 193.756L32.312 193.66C32.312 193.604 32.332 193.56 32.372 193.528C32.412 193.496 32.464 193.48 32.528 193.48H32.9C33.036 193.48 33.128 193.544 33.176 193.672L34.568 197.764C35.104 199.316 35.488 200.504 35.72 201.328C35.944 200.52 36.324 199.336 36.86 197.776L38.24 193.672ZM44.0515 200.596C44.1075 200.54 44.1675 200.512 44.2315 200.512C44.2875 200.512 44.3395 200.536 44.3875 200.584L44.5435 200.728C44.5995 200.784 44.6275 200.844 44.6275 200.908C44.6275 200.956 44.6035 201.012 44.5555 201.076C44.1635 201.468 43.7835 201.748 43.4155 201.916C43.0475 202.076 42.6355 202.156 42.1795 202.156C41.6035 202.156 41.1035 202.028 40.6795 201.772C40.2555 201.516 39.9275 201.16 39.6955 200.704C39.4635 200.24 39.3475 199.704 39.3475 199.096C39.3475 198.48 39.4595 197.936 39.6835 197.464C39.9155 196.984 40.2395 196.612 40.6555 196.348C41.0715 196.076 41.5515 195.94 42.0955 195.94C42.9035 195.94 43.5395 196.192 44.0035 196.696C44.4675 197.2 44.6995 197.88 44.6995 198.736V198.88C44.6915 198.952 44.6635 199.008 44.6155 199.048C44.5755 199.088 44.5195 199.108 44.4475 199.108H40.1515C40.1755 199.78 40.3515 200.348 40.6795 200.812C41.0155 201.268 41.5155 201.496 42.1795 201.496C42.5395 201.496 42.8555 201.432 43.1275 201.304C43.4075 201.168 43.7155 200.932 44.0515 200.596ZM42.0955 196.6C41.5675 196.6 41.1315 196.764 40.7875 197.092C40.4515 197.412 40.2475 197.884 40.1755 198.508H43.9075C43.8915 197.924 43.7235 197.46 43.4035 197.116C43.0835 196.772 42.6475 196.6 42.0955 196.6ZM48.3265 196.036C48.5265 196.036 48.7625 196.068 49.0345 196.132C49.1785 196.18 49.2345 196.28 49.2025 196.432L49.1545 196.624C49.1145 196.776 49.0145 196.832 48.8545 196.792C48.6625 196.744 48.4865 196.72 48.3265 196.72C47.9185 196.72 47.5785 196.896 47.3065 197.248C47.0425 197.6 46.9105 198.088 46.9105 198.712V201.76C46.9105 201.92 46.8305 202 46.6705 202H46.3585C46.1985 202 46.1185 201.92 46.1185 201.76V196.324C46.1185 196.164 46.1985 196.084 46.3585 196.084H46.6225C46.7825 196.084 46.8625 196.164 46.8625 196.324V196.984C46.9985 196.688 47.1905 196.456 47.4385 196.288C47.6945 196.12 47.9905 196.036 48.3265 196.036ZM53.0598 201.34C53.0838 201.332 53.1158 201.328 53.1558 201.328C53.2038 201.328 53.2478 201.344 53.2878 201.376C53.3278 201.408 53.3518 201.452 53.3598 201.508L53.3958 201.676C53.4038 201.692 53.4078 201.72 53.4078 201.76C53.4078 201.872 53.3478 201.94 53.2278 201.964C52.9398 202.052 52.6318 202.096 52.3038 202.096C51.7838 202.096 51.4118 201.98 51.1878 201.748C50.9718 201.508 50.8638 201.164 50.8638 200.716V196.684H49.9758C49.8158 196.684 49.7358 196.604 49.7358 196.444V196.324C49.7358 196.164 49.8158 196.084 49.9758 196.084H50.8638V194.26C50.8638 194.1 50.9438 194.02 51.1038 194.02H51.4158C51.5758 194.02 51.6558 194.1 51.6558 194.26V196.084H53.0958C53.2558 196.084 53.3358 196.164 53.3358 196.324V196.444C53.3358 196.604 53.2558 196.684 53.0958 196.684H51.6558V200.62C51.6558 200.916 51.7118 201.124 51.8238 201.244C51.9358 201.364 52.1278 201.424 52.3998 201.424C52.5918 201.424 52.8118 201.396 53.0598 201.34ZM54.9403 194.584C54.7803 194.584 54.6443 194.528 54.5323 194.416C54.4283 194.304 54.3763 194.168 54.3763 194.008C54.3763 193.848 54.4283 193.716 54.5323 193.612C54.6443 193.508 54.7803 193.456 54.9403 193.456C55.1083 193.456 55.2443 193.508 55.3483 193.612C55.4603 193.716 55.5163 193.848 55.5163 194.008C55.5163 194.168 55.4603 194.304 55.3483 194.416C55.2443 194.528 55.1083 194.584 54.9403 194.584ZM54.7843 202C54.6243 202 54.5443 201.92 54.5443 201.76V196.324C54.5443 196.164 54.6243 196.084 54.7843 196.084H55.0963C55.2563 196.084 55.3363 196.164 55.3363 196.324V201.76C55.3363 201.92 55.2563 202 55.0963 202H54.7843ZM59.4989 202.156C58.9309 202.156 58.4349 202.028 58.0109 201.772C57.5949 201.508 57.2709 201.144 57.0389 200.68C56.8149 200.208 56.7029 199.664 56.7029 199.048C56.7029 198.44 56.8149 197.9 57.0389 197.428C57.2709 196.956 57.5949 196.592 58.0109 196.336C58.4349 196.072 58.9229 195.94 59.4749 195.94C59.9229 195.94 60.3149 196.016 60.6509 196.168C60.9869 196.312 61.3109 196.552 61.6229 196.888C61.6709 196.936 61.6949 196.988 61.6949 197.044C61.6949 197.116 61.6629 197.176 61.5989 197.224L61.4309 197.38C61.3829 197.428 61.3269 197.452 61.2629 197.452C61.2069 197.452 61.1469 197.42 61.0829 197.356C60.8029 197.076 60.5349 196.88 60.2789 196.768C60.0309 196.656 59.7549 196.6 59.4509 196.6C59.0349 196.6 58.6789 196.716 58.3829 196.948C58.0949 197.18 57.8789 197.484 57.7349 197.86C57.5909 198.228 57.5189 198.624 57.5189 199.048C57.5189 199.472 57.5909 199.872 57.7349 200.248C57.8789 200.616 58.0989 200.916 58.3949 201.148C58.6909 201.372 59.0549 201.484 59.4869 201.484C59.8069 201.484 60.0869 201.428 60.3269 201.316C60.5749 201.196 60.8509 200.972 61.1549 200.644C61.2189 200.58 61.2789 200.548 61.3349 200.548C61.3989 200.548 61.4549 200.572 61.5029 200.62L61.6709 200.752C61.7269 200.8 61.7549 200.856 61.7549 200.92C61.7549 200.984 61.7189 201.06 61.6469 201.148C61.3109 201.516 60.9749 201.776 60.6389 201.928C60.3029 202.08 59.9229 202.156 59.4989 202.156ZM65.4258 195.94C66.1538 195.94 66.7218 196.116 67.1298 196.468C67.5378 196.812 67.7418 197.268 67.7418 197.836V201.76C67.7418 201.92 67.6618 202 67.5018 202H67.2618C67.1018 202 67.0218 201.92 67.0218 201.76V201.22C66.8218 201.54 66.5378 201.78 66.1698 201.94C65.8098 202.1 65.4058 202.18 64.9578 202.18C64.3338 202.18 63.8258 202.048 63.4338 201.784C63.0418 201.52 62.8458 201.112 62.8458 200.56C62.8458 200.12 62.9698 199.768 63.2178 199.504C63.4658 199.232 63.7898 199.028 64.1898 198.892C64.5898 198.748 65.0898 198.62 65.6898 198.508L66.9858 198.28V197.896C66.9858 197.488 66.8458 197.172 66.5658 196.948C66.2858 196.716 65.9178 196.6 65.4618 196.6C65.1178 196.6 64.8058 196.664 64.5258 196.792C64.2458 196.92 63.9458 197.14 63.6258 197.452C63.5698 197.508 63.5098 197.536 63.4458 197.536C63.3898 197.536 63.3378 197.512 63.2898 197.464L63.1338 197.32C63.0778 197.264 63.0498 197.204 63.0498 197.14C63.0498 197.068 63.0778 197.004 63.1338 196.948C63.4698 196.596 63.8218 196.34 64.1898 196.18C64.5658 196.02 64.9778 195.94 65.4258 195.94ZM64.9938 201.52C65.5698 201.52 66.0458 201.368 66.4218 201.064C66.7978 200.76 66.9858 200.372 66.9858 199.9V198.892L65.8698 199.108C65.3498 199.212 64.9378 199.312 64.6338 199.408C64.3298 199.504 64.0858 199.644 63.9018 199.828C63.7178 200.012 63.6258 200.252 63.6258 200.548C63.6258 200.852 63.7458 201.092 63.9858 201.268C64.2338 201.436 64.5698 201.52 64.9938 201.52ZM69.7494 202C69.5894 202 69.5094 201.92 69.5094 201.76V193.72C69.5094 193.56 69.5894 193.48 69.7494 193.48H70.0614C70.2214 193.48 70.3014 193.56 70.3014 193.72V201.76C70.3014 201.92 70.2214 202 70.0614 202H69.7494Z" fill="#767676"/>
</svg>
