<svg width="344" height="320" viewBox="0 0 344 320" fill="none" xmlns="http://www.w3.org/2000/svg">
<rect x="116" y="137" width="112" height="46" rx="7" fill="#0063FB"/>
<path d="M137.368 160.424C137.197 160.424 137.059 160.376 136.952 160.28C136.856 160.173 136.808 160.035 136.808 159.864V159.448C136.808 159.267 136.856 159.128 136.952 159.032C137.059 158.936 137.197 158.888 137.368 158.888H141.384C141.565 158.888 141.704 158.936 141.8 159.032C141.896 159.128 141.944 159.267 141.944 159.448V164.44C141.944 164.611 141.896 164.749 141.8 164.856C141.704 164.952 141.565 165 141.384 165H141.048C140.696 165 140.504 164.824 140.472 164.472L140.408 163.752C139.725 164.744 138.595 165.24 137.016 165.24C135.885 165.24 134.915 164.989 134.104 164.488C133.293 163.987 132.675 163.288 132.248 162.392C131.821 161.496 131.608 160.467 131.608 159.304C131.608 158.173 131.832 157.16 132.28 156.264C132.728 155.368 133.373 154.669 134.216 154.168C135.059 153.656 136.056 153.4 137.208 153.4C138.072 153.4 138.845 153.539 139.528 153.816C140.211 154.083 140.883 154.52 141.544 155.128C141.683 155.256 141.752 155.389 141.752 155.528C141.752 155.667 141.688 155.8 141.56 155.928L141.176 156.312C141.037 156.451 140.904 156.52 140.776 156.52C140.637 156.52 140.504 156.456 140.376 156.328C139.821 155.848 139.304 155.507 138.824 155.304C138.344 155.091 137.8 154.984 137.192 154.984C136.456 154.984 135.805 155.16 135.24 155.512C134.685 155.864 134.248 156.365 133.928 157.016C133.619 157.667 133.464 158.435 133.464 159.32C133.464 160.216 133.613 160.989 133.912 161.64C134.211 162.291 134.632 162.792 135.176 163.144C135.731 163.485 136.381 163.656 137.128 163.656C138.077 163.656 138.835 163.4 139.4 162.888C139.976 162.365 140.264 161.656 140.264 160.76V160.424H137.368ZM149.577 162.984C149.716 162.867 149.849 162.808 149.977 162.808C150.105 162.808 150.238 162.877 150.377 163.016L150.601 163.256C150.718 163.395 150.777 163.528 150.777 163.656C150.777 163.795 150.708 163.928 150.569 164.056C150.078 164.483 149.588 164.787 149.097 164.968C148.617 165.149 148.084 165.24 147.497 165.24C146.676 165.24 145.961 165.069 145.353 164.728C144.756 164.387 144.292 163.907 143.961 163.288C143.641 162.659 143.481 161.933 143.481 161.112C143.481 160.301 143.636 159.576 143.945 158.936C144.265 158.285 144.713 157.779 145.289 157.416C145.876 157.053 146.558 156.872 147.337 156.872C148.5 156.872 149.396 157.219 150.025 157.912C150.654 158.595 150.969 159.539 150.969 160.744V160.888C150.958 161.059 150.905 161.192 150.809 161.288C150.713 161.384 150.574 161.432 150.393 161.432H145.145C145.209 162.136 145.438 162.712 145.833 163.16C146.238 163.597 146.804 163.816 147.529 163.816C147.924 163.816 148.27 163.757 148.569 163.64C148.868 163.512 149.204 163.293 149.577 162.984ZM147.305 158.216C146.718 158.216 146.244 158.392 145.881 158.744C145.529 159.085 145.3 159.571 145.193 160.2H149.305C149.262 159.581 149.07 159.096 148.729 158.744C148.388 158.392 147.913 158.216 147.305 158.216ZM156.237 163.656C156.269 163.645 156.317 163.64 156.381 163.64C156.648 163.64 156.808 163.795 156.861 164.104L156.909 164.36C156.92 164.392 156.925 164.445 156.925 164.52C156.925 164.787 156.776 164.957 156.477 165.032C156.05 165.128 155.661 165.176 155.309 165.176C154.552 165.176 154.002 165 153.661 164.648C153.33 164.296 153.165 163.768 153.165 163.064V158.408H152.285C152.114 158.408 151.976 158.36 151.869 158.264C151.773 158.157 151.725 158.019 151.725 157.848V157.672C151.725 157.491 151.773 157.352 151.869 157.256C151.976 157.16 152.114 157.112 152.285 157.112H153.165V155.128C153.165 154.947 153.213 154.808 153.309 154.712C153.416 154.616 153.554 154.568 153.725 154.568H154.301C154.482 154.568 154.621 154.616 154.717 154.712C154.813 154.808 154.861 154.947 154.861 155.128V157.112H156.301C156.482 157.112 156.621 157.16 156.717 157.256C156.813 157.352 156.861 157.491 156.861 157.672V157.848C156.861 158.019 156.813 158.157 156.717 158.264C156.621 158.36 156.482 158.408 156.301 158.408H154.861V162.856C154.861 163.165 154.925 163.384 155.053 163.512C155.192 163.64 155.41 163.704 155.709 163.704C155.837 163.704 156.013 163.688 156.237 163.656ZM164.875 165.24C164.225 165.24 163.643 165.16 163.131 165C162.63 164.829 162.118 164.536 161.595 164.12C161.435 164.003 161.355 163.869 161.355 163.72C161.355 163.603 161.414 163.475 161.531 163.336L161.771 163.064C161.899 162.915 162.038 162.84 162.187 162.84C162.305 162.84 162.433 162.893 162.571 163C163.019 163.331 163.414 163.56 163.755 163.688C164.097 163.805 164.481 163.864 164.907 163.864C165.366 163.864 165.739 163.773 166.027 163.592C166.326 163.4 166.475 163.144 166.475 162.824C166.475 162.579 166.39 162.387 166.219 162.248C166.059 162.099 165.846 161.987 165.579 161.912C165.313 161.827 164.918 161.731 164.395 161.624C163.659 161.464 163.083 161.293 162.667 161.112C162.262 160.92 161.969 160.68 161.787 160.392C161.606 160.104 161.515 159.736 161.515 159.288C161.515 158.829 161.643 158.419 161.899 158.056C162.166 157.693 162.534 157.405 163.003 157.192C163.483 156.979 164.043 156.872 164.683 156.872C165.259 156.872 165.771 156.936 166.219 157.064C166.678 157.192 167.126 157.411 167.563 157.72C167.734 157.848 167.819 157.992 167.819 158.152C167.819 158.259 167.766 158.381 167.659 158.52L167.451 158.776C167.334 158.925 167.19 159 167.019 159C166.891 159 166.769 158.957 166.651 158.872C166.299 158.637 165.974 158.477 165.675 158.392C165.377 158.296 165.041 158.248 164.667 158.248C164.209 158.248 163.841 158.339 163.563 158.52C163.286 158.701 163.147 158.936 163.147 159.224C163.147 159.416 163.211 159.571 163.339 159.688C163.478 159.795 163.67 159.891 163.915 159.976C164.171 160.051 164.571 160.147 165.115 160.264C165.851 160.424 166.433 160.605 166.859 160.808C167.297 161 167.617 161.251 167.819 161.56C168.033 161.859 168.139 162.248 168.139 162.728C168.139 163.475 167.841 164.083 167.243 164.552C166.657 165.011 165.867 165.24 164.875 165.24ZM173.378 163.656C173.41 163.645 173.458 163.64 173.522 163.64C173.788 163.64 173.948 163.795 174.002 164.104L174.05 164.36C174.06 164.392 174.066 164.445 174.066 164.52C174.066 164.787 173.916 164.957 173.618 165.032C173.191 165.128 172.802 165.176 172.45 165.176C171.692 165.176 171.143 165 170.802 164.648C170.471 164.296 170.306 163.768 170.306 163.064V158.408H169.426C169.255 158.408 169.116 158.36 169.01 158.264C168.914 158.157 168.866 158.019 168.866 157.848V157.672C168.866 157.491 168.914 157.352 169.01 157.256C169.116 157.16 169.255 157.112 169.426 157.112H170.306V155.128C170.306 154.947 170.354 154.808 170.45 154.712C170.556 154.616 170.695 154.568 170.866 154.568H171.442C171.623 154.568 171.762 154.616 171.858 154.712C171.954 154.808 172.002 154.947 172.002 155.128V157.112H173.442C173.623 157.112 173.762 157.16 173.858 157.256C173.954 157.352 174.002 157.491 174.002 157.672V157.848C174.002 158.019 173.954 158.157 173.858 158.264C173.762 158.36 173.623 158.408 173.442 158.408H172.002V162.856C172.002 163.165 172.066 163.384 172.194 163.512C172.332 163.64 172.551 163.704 172.85 163.704C172.978 163.704 173.154 163.688 173.378 163.656ZM178.742 156.872C179.808 156.872 180.63 157.123 181.206 157.624C181.782 158.115 182.07 158.771 182.07 159.592V164.44C182.07 164.611 182.022 164.749 181.926 164.856C181.83 164.952 181.691 165 181.51 165H181.094C180.923 165 180.784 164.952 180.678 164.856C180.582 164.749 180.534 164.611 180.534 164.44V164.088C180.278 164.461 179.926 164.749 179.478 164.952C179.03 165.155 178.507 165.256 177.91 165.256C177.088 165.256 176.411 165.075 175.878 164.712C175.355 164.339 175.094 163.779 175.094 163.032C175.094 162.2 175.403 161.587 176.022 161.192C176.651 160.787 177.52 160.483 178.63 160.28L180.438 159.944V159.656C180.438 159.219 180.283 158.883 179.974 158.648C179.675 158.403 179.275 158.28 178.774 158.28C178.347 158.28 177.974 158.355 177.654 158.504C177.344 158.643 177.008 158.877 176.646 159.208C176.507 159.325 176.374 159.384 176.246 159.384C176.118 159.384 175.984 159.325 175.846 159.208L175.59 158.984C175.451 158.856 175.382 158.717 175.382 158.568C175.382 158.429 175.446 158.296 175.574 158.168C176.032 157.731 176.518 157.405 177.03 157.192C177.542 156.979 178.112 156.872 178.742 156.872ZM178.15 163.896C178.79 163.896 179.328 163.725 179.766 163.384C180.214 163.043 180.438 162.552 180.438 161.912V161.176L179.046 161.464C178.267 161.624 177.691 161.805 177.318 162.008C176.944 162.211 176.758 162.52 176.758 162.936C176.758 163.235 176.88 163.469 177.126 163.64C177.371 163.811 177.712 163.896 178.15 163.896ZM187.559 157.032C187.794 157.032 188.034 157.059 188.279 157.112C188.567 157.176 188.711 157.347 188.711 157.624C188.711 157.699 188.706 157.752 188.695 157.784L188.615 158.168C188.551 158.467 188.391 158.616 188.135 158.616L187.991 158.6C187.799 158.568 187.629 158.552 187.479 158.552C186.946 158.552 186.514 158.765 186.183 159.192C185.863 159.608 185.703 160.189 185.703 160.936V164.44C185.703 164.611 185.655 164.749 185.559 164.856C185.463 164.952 185.325 165 185.143 165H184.567C184.397 165 184.258 164.952 184.151 164.856C184.055 164.749 184.007 164.611 184.007 164.44V157.672C184.007 157.491 184.055 157.352 184.151 157.256C184.258 157.16 184.397 157.112 184.567 157.112H185.031C185.213 157.112 185.351 157.16 185.447 157.256C185.543 157.352 185.591 157.491 185.591 157.672V158.296C185.783 157.901 186.045 157.592 186.375 157.368C186.706 157.144 187.101 157.032 187.559 157.032ZM193.94 163.656C193.972 163.645 194.02 163.64 194.084 163.64C194.351 163.64 194.511 163.795 194.564 164.104L194.612 164.36C194.623 164.392 194.628 164.445 194.628 164.52C194.628 164.787 194.479 164.957 194.18 165.032C193.754 165.128 193.364 165.176 193.012 165.176C192.255 165.176 191.706 165 191.364 164.648C191.034 164.296 190.868 163.768 190.868 163.064V158.408H189.988C189.818 158.408 189.679 158.36 189.572 158.264C189.476 158.157 189.428 158.019 189.428 157.848V157.672C189.428 157.491 189.476 157.352 189.572 157.256C189.679 157.16 189.818 157.112 189.988 157.112H190.868V155.128C190.868 154.947 190.916 154.808 191.012 154.712C191.119 154.616 191.258 154.568 191.428 154.568H192.004C192.186 154.568 192.324 154.616 192.42 154.712C192.516 154.808 192.564 154.947 192.564 155.128V157.112H194.004C194.186 157.112 194.324 157.16 194.42 157.256C194.516 157.352 194.564 157.491 194.564 157.672V157.848C194.564 158.019 194.516 158.157 194.42 158.264C194.324 158.36 194.186 158.408 194.004 158.408H192.564V162.856C192.564 163.165 192.628 163.384 192.756 163.512C192.895 163.64 193.114 163.704 193.412 163.704C193.54 163.704 193.716 163.688 193.94 163.656ZM201.358 162.984C201.497 162.867 201.63 162.808 201.758 162.808C201.886 162.808 202.02 162.877 202.158 163.016L202.382 163.256C202.5 163.395 202.558 163.528 202.558 163.656C202.558 163.795 202.489 163.928 202.35 164.056C201.86 164.483 201.369 164.787 200.878 164.968C200.398 165.149 199.865 165.24 199.278 165.24C198.457 165.24 197.742 165.069 197.134 164.728C196.537 164.387 196.073 163.907 195.742 163.288C195.422 162.659 195.262 161.933 195.262 161.112C195.262 160.301 195.417 159.576 195.726 158.936C196.046 158.285 196.494 157.779 197.07 157.416C197.657 157.053 198.34 156.872 199.118 156.872C200.281 156.872 201.177 157.219 201.806 157.912C202.436 158.595 202.75 159.539 202.75 160.744V160.888C202.74 161.059 202.686 161.192 202.59 161.288C202.494 161.384 202.356 161.432 202.174 161.432H196.926C196.99 162.136 197.22 162.712 197.614 163.16C198.02 163.597 198.585 163.816 199.31 163.816C199.705 163.816 200.052 163.757 200.35 163.64C200.649 163.512 200.985 163.293 201.358 162.984ZM199.086 158.216C198.5 158.216 198.025 158.392 197.662 158.744C197.31 159.085 197.081 159.571 196.974 160.2H201.086C201.044 159.581 200.852 159.096 200.51 158.744C200.169 158.392 199.694 158.216 199.086 158.216ZM209.887 154.184C209.887 154.003 209.935 153.864 210.031 153.768C210.138 153.672 210.277 153.624 210.447 153.624H211.023C211.205 153.624 211.343 153.672 211.439 153.768C211.535 153.864 211.583 154.003 211.583 154.184V164.44C211.583 164.611 211.535 164.749 211.439 164.856C211.343 164.952 211.205 165 211.023 165H210.559C210.389 165 210.25 164.952 210.143 164.856C210.047 164.749 209.999 164.611 209.999 164.44V163.88C209.445 164.776 208.575 165.224 207.391 165.224C206.73 165.224 206.133 165.053 205.599 164.712C205.077 164.371 204.666 163.885 204.367 163.256C204.069 162.627 203.919 161.896 203.919 161.064C203.919 160.243 204.069 159.517 204.367 158.888C204.677 158.259 205.098 157.773 205.631 157.432C206.165 157.091 206.762 156.92 207.423 156.92C208.511 156.92 209.333 157.299 209.887 158.056V154.184ZM207.743 163.768C208.394 163.768 208.927 163.528 209.343 163.048C209.759 162.557 209.967 161.896 209.967 161.064C209.967 160.232 209.759 159.576 209.343 159.096C208.927 158.616 208.394 158.376 207.743 158.376C207.114 158.376 206.607 158.621 206.223 159.112C205.839 159.603 205.647 160.253 205.647 161.064C205.647 161.885 205.834 162.541 206.207 163.032C206.591 163.523 207.103 163.768 207.743 163.768Z" fill="white"/>
<rect x="116" y="137" width="112" height="46" rx="7" stroke="#0063FB" stroke-width="2"/>
</svg>
