<svg width="344" height="244" viewBox="0 0 344 244" fill="none" xmlns="http://www.w3.org/2000/svg">
<rect width="344" height="244" fill="#F5F5F5"/>
<g filter="url(#filter0_i_665_10537)">
<rect x="32" y="72" width="97" height="32" rx="4" fill="#E5E5E5"/>
<path d="M41 83H49" stroke="#767676" stroke-width="1.5" stroke-linecap="round" stroke-linejoin="round"/>
<path d="M47 93H55" stroke="#767676" stroke-width="1.5" stroke-linecap="round" stroke-linejoin="round"/>
<path d="M53 83H55" stroke="#767676" stroke-width="1.5" stroke-linecap="round" stroke-linejoin="round"/>
<path d="M41 93H43" stroke="#767676" stroke-width="1.5" stroke-linecap="round" stroke-linejoin="round"/>
<circle cx="51" cy="83" r="2" stroke="#767676" stroke-width="1.5"/>
<circle cx="45" cy="93" r="2" stroke="#767676" stroke-width="1.5"/>
<path d="M65.344 92C65.216 92 65.112 91.964 65.032 91.892C64.96 91.812 64.924 91.708 64.924 91.58V83.9C64.924 83.764 64.96 83.66 65.032 83.588C65.112 83.516 65.216 83.48 65.344 83.48H68.788C69.636 83.48 70.312 83.716 70.816 84.188C71.32 84.652 71.572 85.288 71.572 86.096C71.572 86.904 71.32 87.54 70.816 88.004C70.312 88.468 69.636 88.7 68.788 88.7H66.292V91.58C66.292 91.708 66.256 91.812 66.184 91.892C66.112 91.964 66.008 92 65.872 92H65.344ZM68.572 87.56C69.084 87.56 69.484 87.436 69.772 87.188C70.068 86.932 70.216 86.568 70.216 86.096C70.216 85.616 70.068 85.252 69.772 85.004C69.484 84.748 69.084 84.62 68.572 84.62H66.292V87.56H68.572ZM75.3648 86.024C75.5408 86.024 75.7208 86.044 75.9048 86.084C76.1208 86.132 76.2288 86.26 76.2288 86.468C76.2288 86.524 76.2248 86.564 76.2168 86.588L76.1568 86.876C76.1088 87.1 75.9888 87.212 75.7968 87.212L75.6888 87.2C75.5448 87.176 75.4168 87.164 75.3048 87.164C74.9048 87.164 74.5808 87.324 74.3328 87.644C74.0928 87.956 73.9728 88.392 73.9728 88.952V91.58C73.9728 91.708 73.9368 91.812 73.8648 91.892C73.7928 91.964 73.6888 92 73.5527 92H73.1208C72.9928 92 72.8888 91.964 72.8088 91.892C72.7368 91.812 72.7008 91.708 72.7008 91.58V86.504C72.7008 86.368 72.7368 86.264 72.8088 86.192C72.8888 86.12 72.9928 86.084 73.1208 86.084H73.4688C73.6048 86.084 73.7088 86.12 73.7808 86.192C73.8528 86.264 73.8888 86.368 73.8888 86.504V86.972C74.0328 86.676 74.2288 86.444 74.4768 86.276C74.7248 86.108 75.0208 86.024 75.3648 86.024ZM79.5366 92.18C78.9526 92.18 78.4326 92.048 77.9766 91.784C77.5286 91.52 77.1766 91.152 76.9206 90.68C76.6646 90.2 76.5366 89.652 76.5366 89.036C76.5366 88.42 76.6646 87.876 76.9206 87.404C77.1766 86.932 77.5286 86.564 77.9766 86.3C78.4326 86.036 78.9526 85.904 79.5366 85.904C80.1126 85.904 80.6286 86.036 81.0846 86.3C81.5406 86.564 81.8966 86.936 82.1526 87.416C82.4086 87.888 82.5366 88.428 82.5366 89.036C82.5366 89.652 82.4086 90.2 82.1526 90.68C81.8966 91.152 81.5406 91.52 81.0846 91.784C80.6286 92.048 80.1126 92.18 79.5366 92.18ZM79.5366 91.112C80.0486 91.112 80.4606 90.924 80.7726 90.548C81.0846 90.164 81.2406 89.66 81.2406 89.036C81.2406 88.42 81.0846 87.924 80.7726 87.548C80.4606 87.172 80.0486 86.984 79.5366 86.984C79.0246 86.984 78.6126 87.172 78.3006 87.548C77.9886 87.924 77.8326 88.42 77.8326 89.036C77.8326 89.66 77.9886 90.164 78.3006 90.548C78.6126 90.924 79.0246 91.112 79.5366 91.112ZM86.8018 85.928C87.3058 85.928 87.7538 86.056 88.1458 86.312C88.5458 86.568 88.8578 86.932 89.0818 87.404C89.3058 87.876 89.4178 88.42 89.4178 89.036C89.4178 89.66 89.3058 90.208 89.0818 90.68C88.8578 91.152 88.5458 91.516 88.1458 91.772C87.7458 92.028 87.2978 92.156 86.8018 92.156C85.9698 92.156 85.3458 91.868 84.9298 91.292V93.704C84.9298 93.84 84.8938 93.944 84.8218 94.016C84.7498 94.088 84.6458 94.124 84.5098 94.124H84.0778C83.9498 94.124 83.8458 94.088 83.7658 94.016C83.6938 93.944 83.6578 93.84 83.6578 93.704V86.504C83.6578 86.368 83.6938 86.264 83.7658 86.192C83.8458 86.12 83.9498 86.084 84.0778 86.084H84.4258C84.5618 86.084 84.6658 86.12 84.7378 86.192C84.8098 86.264 84.8458 86.368 84.8458 86.504V86.948C85.2698 86.268 85.9218 85.928 86.8018 85.928ZM86.5378 91.052C87.0178 91.052 87.4018 90.872 87.6898 90.512C87.9778 90.144 88.1218 89.652 88.1218 89.036C88.1218 88.428 87.9778 87.94 87.6898 87.572C87.4098 87.204 87.0298 87.02 86.5498 87.02C86.0618 87.02 85.6618 87.2 85.3498 87.56C85.0378 87.92 84.8818 88.412 84.8818 89.036C84.8818 89.66 85.0378 90.152 85.3498 90.512C85.6618 90.872 86.0578 91.052 86.5378 91.052ZM94.8782 90.488C94.9822 90.4 95.0822 90.356 95.1782 90.356C95.2742 90.356 95.3742 90.408 95.4782 90.512L95.6462 90.692C95.7342 90.796 95.7782 90.896 95.7782 90.992C95.7782 91.096 95.7262 91.196 95.6222 91.292C95.2542 91.612 94.8862 91.84 94.5182 91.976C94.1582 92.112 93.7582 92.18 93.3182 92.18C92.7022 92.18 92.1662 92.052 91.7102 91.796C91.2622 91.54 90.9142 91.18 90.6662 90.716C90.4262 90.244 90.3062 89.7 90.3062 89.084C90.3062 88.476 90.4222 87.932 90.6542 87.452C90.8942 86.964 91.2302 86.584 91.6622 86.312C92.1022 86.04 92.6142 85.904 93.1982 85.904C94.0702 85.904 94.7422 86.164 95.2142 86.684C95.6862 87.196 95.9222 87.904 95.9222 88.808V88.916C95.9142 89.044 95.8742 89.144 95.8022 89.216C95.7302 89.288 95.6262 89.324 95.4902 89.324H91.5542C91.6022 89.852 91.7742 90.284 92.0702 90.62C92.3742 90.948 92.7982 91.112 93.3422 91.112C93.6382 91.112 93.8982 91.068 94.1222 90.98C94.3462 90.884 94.5982 90.72 94.8782 90.488ZM93.1742 86.912C92.7342 86.912 92.3782 87.044 92.1062 87.308C91.8422 87.564 91.6702 87.928 91.5902 88.4H94.6742C94.6422 87.936 94.4982 87.572 94.2422 87.308C93.9862 87.044 93.6302 86.912 93.1742 86.912ZM99.7515 86.024C99.9275 86.024 100.107 86.044 100.291 86.084C100.507 86.132 100.615 86.26 100.615 86.468C100.615 86.524 100.611 86.564 100.603 86.588L100.543 86.876C100.495 87.1 100.375 87.212 100.183 87.212L100.075 87.2C99.9315 87.176 99.8035 87.164 99.6915 87.164C99.2915 87.164 98.9675 87.324 98.7195 87.644C98.4795 87.956 98.3595 88.392 98.3595 88.952V91.58C98.3595 91.708 98.3235 91.812 98.2515 91.892C98.1795 91.964 98.0755 92 97.9395 92H97.5075C97.3795 92 97.2755 91.964 97.1955 91.892C97.1235 91.812 97.0875 91.708 97.0875 91.58V86.504C97.0875 86.368 97.1235 86.264 97.1955 86.192C97.2755 86.12 97.3795 86.084 97.5075 86.084H97.8555C97.9915 86.084 98.0955 86.12 98.1675 86.192C98.2395 86.264 98.2755 86.368 98.2755 86.504V86.972C98.4195 86.676 98.6155 86.444 98.8635 86.276C99.1115 86.108 99.4075 86.024 99.7515 86.024ZM104.537 90.992C104.561 90.984 104.597 90.98 104.645 90.98C104.845 90.98 104.965 91.096 105.005 91.328L105.041 91.52C105.049 91.544 105.053 91.584 105.053 91.64C105.053 91.84 104.941 91.968 104.717 92.024C104.397 92.096 104.105 92.132 103.841 92.132C103.273 92.132 102.861 92 102.605 91.736C102.357 91.472 102.233 91.076 102.233 90.548V87.056H101.573C101.445 87.056 101.341 87.02 101.261 86.948C101.189 86.868 101.153 86.764 101.153 86.636V86.504C101.153 86.368 101.189 86.264 101.261 86.192C101.341 86.12 101.445 86.084 101.573 86.084H102.233V84.596C102.233 84.46 102.269 84.356 102.341 84.284C102.421 84.212 102.525 84.176 102.653 84.176H103.085C103.221 84.176 103.325 84.212 103.397 84.284C103.469 84.356 103.505 84.46 103.505 84.596V86.084H104.585C104.721 86.084 104.825 86.12 104.897 86.192C104.969 86.264 105.005 86.368 105.005 86.504V86.636C105.005 86.764 104.969 86.868 104.897 86.948C104.825 87.02 104.721 87.056 104.585 87.056H103.505V90.392C103.505 90.624 103.553 90.788 103.649 90.884C103.753 90.98 103.917 91.028 104.141 91.028C104.237 91.028 104.369 91.016 104.537 90.992ZM106.7 84.932C106.468 84.932 106.272 84.856 106.112 84.704C105.952 84.544 105.872 84.356 105.872 84.14C105.872 83.916 105.952 83.728 106.112 83.576C106.272 83.424 106.468 83.348 106.7 83.348C106.932 83.348 107.128 83.424 107.288 83.576C107.448 83.728 107.528 83.916 107.528 84.14C107.528 84.356 107.448 84.544 107.288 84.704C107.128 84.856 106.932 84.932 106.7 84.932ZM106.472 92C106.344 92 106.24 91.964 106.16 91.892C106.088 91.812 106.052 91.708 106.052 91.58V86.504C106.052 86.368 106.088 86.264 106.16 86.192C106.24 86.12 106.344 86.084 106.472 86.084H106.904C107.04 86.084 107.144 86.12 107.216 86.192C107.288 86.264 107.324 86.368 107.324 86.504V91.58C107.324 91.708 107.288 91.812 107.216 91.892C107.144 91.964 107.04 92 106.904 92H106.472ZM113.031 90.488C113.135 90.4 113.235 90.356 113.331 90.356C113.427 90.356 113.527 90.408 113.631 90.512L113.799 90.692C113.887 90.796 113.931 90.896 113.931 90.992C113.931 91.096 113.879 91.196 113.775 91.292C113.407 91.612 113.039 91.84 112.671 91.976C112.311 92.112 111.911 92.18 111.471 92.18C110.855 92.18 110.319 92.052 109.863 91.796C109.415 91.54 109.067 91.18 108.819 90.716C108.579 90.244 108.458 89.7 108.458 89.084C108.458 88.476 108.575 87.932 108.807 87.452C109.047 86.964 109.383 86.584 109.815 86.312C110.255 86.04 110.767 85.904 111.351 85.904C112.223 85.904 112.895 86.164 113.367 86.684C113.839 87.196 114.075 87.904 114.075 88.808V88.916C114.067 89.044 114.027 89.144 113.955 89.216C113.883 89.288 113.779 89.324 113.643 89.324H109.707C109.755 89.852 109.927 90.284 110.223 90.62C110.527 90.948 110.951 91.112 111.495 91.112C111.791 91.112 112.051 91.068 112.275 90.98C112.499 90.884 112.751 90.72 113.031 90.488ZM111.327 86.912C110.887 86.912 110.531 87.044 110.259 87.308C109.995 87.564 109.823 87.928 109.743 88.4H112.827C112.795 87.936 112.651 87.572 112.395 87.308C112.139 87.044 111.783 86.912 111.327 86.912ZM117.543 92.18C117.055 92.18 116.619 92.12 116.235 92C115.859 91.872 115.475 91.652 115.083 91.34C114.963 91.252 114.903 91.152 114.903 91.04C114.903 90.952 114.947 90.856 115.035 90.752L115.215 90.548C115.311 90.436 115.415 90.38 115.527 90.38C115.615 90.38 115.711 90.42 115.815 90.5C116.151 90.748 116.447 90.92 116.703 91.016C116.959 91.104 117.247 91.148 117.567 91.148C117.911 91.148 118.191 91.08 118.407 90.944C118.631 90.8 118.743 90.608 118.743 90.368C118.743 90.184 118.679 90.04 118.551 89.936C118.431 89.824 118.271 89.74 118.071 89.684C117.871 89.62 117.575 89.548 117.183 89.468C116.631 89.348 116.199 89.22 115.887 89.084C115.583 88.94 115.363 88.76 115.227 88.544C115.091 88.328 115.023 88.052 115.023 87.716C115.023 87.372 115.119 87.064 115.311 86.792C115.511 86.52 115.787 86.304 116.139 86.144C116.499 85.984 116.919 85.904 117.399 85.904C117.831 85.904 118.215 85.952 118.551 86.048C118.895 86.144 119.231 86.308 119.559 86.54C119.687 86.636 119.751 86.744 119.751 86.864C119.751 86.944 119.711 87.036 119.631 87.14L119.475 87.332C119.387 87.444 119.279 87.5 119.151 87.5C119.055 87.5 118.963 87.468 118.875 87.404C118.611 87.228 118.367 87.108 118.143 87.044C117.919 86.972 117.667 86.936 117.387 86.936C117.043 86.936 116.767 87.004 116.559 87.14C116.351 87.276 116.247 87.452 116.247 87.668C116.247 87.812 116.295 87.928 116.391 88.016C116.495 88.096 116.639 88.168 116.823 88.232C117.015 88.288 117.315 88.36 117.723 88.448C118.275 88.568 118.711 88.704 119.031 88.856C119.359 89 119.599 89.188 119.751 89.42C119.911 89.644 119.991 89.936 119.991 90.296C119.991 90.856 119.767 91.312 119.319 91.664C118.879 92.008 118.287 92.18 117.543 92.18Z" fill="#474445"/>
<rect x="32.5" y="72.5" width="96" height="31" rx="3.5" stroke="#C3CCD9"/>
</g>
<g filter="url(#filter1_i_665_10537)">
<rect x="32" y="174" width="97" height="32" rx="4" fill="#E5E5E5"/>
<path d="M41 185H49" stroke="#767676" stroke-width="1.5" stroke-linecap="round" stroke-linejoin="round"/>
<path d="M47 195H55" stroke="#767676" stroke-width="1.5" stroke-linecap="round" stroke-linejoin="round"/>
<path d="M53 185H55" stroke="#767676" stroke-width="1.5" stroke-linecap="round" stroke-linejoin="round"/>
<path d="M41 195H43" stroke="#767676" stroke-width="1.5" stroke-linecap="round" stroke-linejoin="round"/>
<circle cx="51" cy="185" r="2" stroke="#767676" stroke-width="1.5"/>
<circle cx="45" cy="195" r="2" stroke="#767676" stroke-width="1.5"/>
<path d="M65.344 194C65.216 194 65.112 193.964 65.032 193.892C64.96 193.812 64.924 193.708 64.924 193.58V185.9C64.924 185.764 64.96 185.66 65.032 185.588C65.112 185.516 65.216 185.48 65.344 185.48H68.788C69.636 185.48 70.312 185.716 70.816 186.188C71.32 186.652 71.572 187.288 71.572 188.096C71.572 188.904 71.32 189.54 70.816 190.004C70.312 190.468 69.636 190.7 68.788 190.7H66.292V193.58C66.292 193.708 66.256 193.812 66.184 193.892C66.112 193.964 66.008 194 65.872 194H65.344ZM68.572 189.56C69.084 189.56 69.484 189.436 69.772 189.188C70.068 188.932 70.216 188.568 70.216 188.096C70.216 187.616 70.068 187.252 69.772 187.004C69.484 186.748 69.084 186.62 68.572 186.62H66.292V189.56H68.572ZM75.3648 188.024C75.5408 188.024 75.7208 188.044 75.9048 188.084C76.1208 188.132 76.2288 188.26 76.2288 188.468C76.2288 188.524 76.2248 188.564 76.2168 188.588L76.1568 188.876C76.1088 189.1 75.9888 189.212 75.7968 189.212L75.6888 189.2C75.5448 189.176 75.4168 189.164 75.3048 189.164C74.9048 189.164 74.5808 189.324 74.3328 189.644C74.0928 189.956 73.9728 190.392 73.9728 190.952V193.58C73.9728 193.708 73.9368 193.812 73.8648 193.892C73.7928 193.964 73.6888 194 73.5527 194H73.1208C72.9928 194 72.8888 193.964 72.8088 193.892C72.7368 193.812 72.7008 193.708 72.7008 193.58V188.504C72.7008 188.368 72.7368 188.264 72.8088 188.192C72.8888 188.12 72.9928 188.084 73.1208 188.084H73.4688C73.6048 188.084 73.7088 188.12 73.7808 188.192C73.8528 188.264 73.8888 188.368 73.8888 188.504V188.972C74.0328 188.676 74.2288 188.444 74.4768 188.276C74.7248 188.108 75.0208 188.024 75.3648 188.024ZM79.5366 194.18C78.9526 194.18 78.4326 194.048 77.9766 193.784C77.5286 193.52 77.1766 193.152 76.9206 192.68C76.6646 192.2 76.5366 191.652 76.5366 191.036C76.5366 190.42 76.6646 189.876 76.9206 189.404C77.1766 188.932 77.5286 188.564 77.9766 188.3C78.4326 188.036 78.9526 187.904 79.5366 187.904C80.1126 187.904 80.6286 188.036 81.0846 188.3C81.5406 188.564 81.8966 188.936 82.1526 189.416C82.4086 189.888 82.5366 190.428 82.5366 191.036C82.5366 191.652 82.4086 192.2 82.1526 192.68C81.8966 193.152 81.5406 193.52 81.0846 193.784C80.6286 194.048 80.1126 194.18 79.5366 194.18ZM79.5366 193.112C80.0486 193.112 80.4606 192.924 80.7726 192.548C81.0846 192.164 81.2406 191.66 81.2406 191.036C81.2406 190.42 81.0846 189.924 80.7726 189.548C80.4606 189.172 80.0486 188.984 79.5366 188.984C79.0246 188.984 78.6126 189.172 78.3006 189.548C77.9886 189.924 77.8326 190.42 77.8326 191.036C77.8326 191.66 77.9886 192.164 78.3006 192.548C78.6126 192.924 79.0246 193.112 79.5366 193.112ZM86.8018 187.928C87.3058 187.928 87.7538 188.056 88.1458 188.312C88.5458 188.568 88.8578 188.932 89.0818 189.404C89.3058 189.876 89.4178 190.42 89.4178 191.036C89.4178 191.66 89.3058 192.208 89.0818 192.68C88.8578 193.152 88.5458 193.516 88.1458 193.772C87.7458 194.028 87.2978 194.156 86.8018 194.156C85.9698 194.156 85.3458 193.868 84.9298 193.292V195.704C84.9298 195.84 84.8938 195.944 84.8218 196.016C84.7498 196.088 84.6458 196.124 84.5098 196.124H84.0778C83.9498 196.124 83.8458 196.088 83.7658 196.016C83.6938 195.944 83.6578 195.84 83.6578 195.704V188.504C83.6578 188.368 83.6938 188.264 83.7658 188.192C83.8458 188.12 83.9498 188.084 84.0778 188.084H84.4258C84.5618 188.084 84.6658 188.12 84.7378 188.192C84.8098 188.264 84.8458 188.368 84.8458 188.504V188.948C85.2698 188.268 85.9218 187.928 86.8018 187.928ZM86.5378 193.052C87.0178 193.052 87.4018 192.872 87.6898 192.512C87.9778 192.144 88.1218 191.652 88.1218 191.036C88.1218 190.428 87.9778 189.94 87.6898 189.572C87.4098 189.204 87.0298 189.02 86.5498 189.02C86.0618 189.02 85.6618 189.2 85.3498 189.56C85.0378 189.92 84.8818 190.412 84.8818 191.036C84.8818 191.66 85.0378 192.152 85.3498 192.512C85.6618 192.872 86.0578 193.052 86.5378 193.052ZM94.8782 192.488C94.9822 192.4 95.0822 192.356 95.1782 192.356C95.2742 192.356 95.3742 192.408 95.4782 192.512L95.6462 192.692C95.7342 192.796 95.7782 192.896 95.7782 192.992C95.7782 193.096 95.7262 193.196 95.6222 193.292C95.2542 193.612 94.8862 193.84 94.5182 193.976C94.1582 194.112 93.7582 194.18 93.3182 194.18C92.7022 194.18 92.1662 194.052 91.7102 193.796C91.2622 193.54 90.9142 193.18 90.6662 192.716C90.4262 192.244 90.3062 191.7 90.3062 191.084C90.3062 190.476 90.4222 189.932 90.6542 189.452C90.8942 188.964 91.2302 188.584 91.6622 188.312C92.1022 188.04 92.6142 187.904 93.1982 187.904C94.0702 187.904 94.7422 188.164 95.2142 188.684C95.6862 189.196 95.9222 189.904 95.9222 190.808V190.916C95.9142 191.044 95.8742 191.144 95.8022 191.216C95.7302 191.288 95.6262 191.324 95.4902 191.324H91.5542C91.6022 191.852 91.7742 192.284 92.0702 192.62C92.3742 192.948 92.7982 193.112 93.3422 193.112C93.6382 193.112 93.8982 193.068 94.1222 192.98C94.3462 192.884 94.5982 192.72 94.8782 192.488ZM93.1742 188.912C92.7342 188.912 92.3782 189.044 92.1062 189.308C91.8422 189.564 91.6702 189.928 91.5902 190.4H94.6742C94.6422 189.936 94.4982 189.572 94.2422 189.308C93.9862 189.044 93.6302 188.912 93.1742 188.912ZM99.7515 188.024C99.9275 188.024 100.107 188.044 100.291 188.084C100.507 188.132 100.615 188.26 100.615 188.468C100.615 188.524 100.611 188.564 100.603 188.588L100.543 188.876C100.495 189.1 100.375 189.212 100.183 189.212L100.075 189.2C99.9315 189.176 99.8035 189.164 99.6915 189.164C99.2915 189.164 98.9675 189.324 98.7195 189.644C98.4795 189.956 98.3595 190.392 98.3595 190.952V193.58C98.3595 193.708 98.3235 193.812 98.2515 193.892C98.1795 193.964 98.0755 194 97.9395 194H97.5075C97.3795 194 97.2755 193.964 97.1955 193.892C97.1235 193.812 97.0875 193.708 97.0875 193.58V188.504C97.0875 188.368 97.1235 188.264 97.1955 188.192C97.2755 188.12 97.3795 188.084 97.5075 188.084H97.8555C97.9915 188.084 98.0955 188.12 98.1675 188.192C98.2395 188.264 98.2755 188.368 98.2755 188.504V188.972C98.4195 188.676 98.6155 188.444 98.8635 188.276C99.1115 188.108 99.4075 188.024 99.7515 188.024ZM104.537 192.992C104.561 192.984 104.597 192.98 104.645 192.98C104.845 192.98 104.965 193.096 105.005 193.328L105.041 193.52C105.049 193.544 105.053 193.584 105.053 193.64C105.053 193.84 104.941 193.968 104.717 194.024C104.397 194.096 104.105 194.132 103.841 194.132C103.273 194.132 102.861 194 102.605 193.736C102.357 193.472 102.233 193.076 102.233 192.548V189.056H101.573C101.445 189.056 101.341 189.02 101.261 188.948C101.189 188.868 101.153 188.764 101.153 188.636V188.504C101.153 188.368 101.189 188.264 101.261 188.192C101.341 188.12 101.445 188.084 101.573 188.084H102.233V186.596C102.233 186.46 102.269 186.356 102.341 186.284C102.421 186.212 102.525 186.176 102.653 186.176H103.085C103.221 186.176 103.325 186.212 103.397 186.284C103.469 186.356 103.505 186.46 103.505 186.596V188.084H104.585C104.721 188.084 104.825 188.12 104.897 188.192C104.969 188.264 105.005 188.368 105.005 188.504V188.636C105.005 188.764 104.969 188.868 104.897 188.948C104.825 189.02 104.721 189.056 104.585 189.056H103.505V192.392C103.505 192.624 103.553 192.788 103.649 192.884C103.753 192.98 103.917 193.028 104.141 193.028C104.237 193.028 104.369 193.016 104.537 192.992ZM106.7 186.932C106.468 186.932 106.272 186.856 106.112 186.704C105.952 186.544 105.872 186.356 105.872 186.14C105.872 185.916 105.952 185.728 106.112 185.576C106.272 185.424 106.468 185.348 106.7 185.348C106.932 185.348 107.128 185.424 107.288 185.576C107.448 185.728 107.528 185.916 107.528 186.14C107.528 186.356 107.448 186.544 107.288 186.704C107.128 186.856 106.932 186.932 106.7 186.932ZM106.472 194C106.344 194 106.24 193.964 106.16 193.892C106.088 193.812 106.052 193.708 106.052 193.58V188.504C106.052 188.368 106.088 188.264 106.16 188.192C106.24 188.12 106.344 188.084 106.472 188.084H106.904C107.04 188.084 107.144 188.12 107.216 188.192C107.288 188.264 107.324 188.368 107.324 188.504V193.58C107.324 193.708 107.288 193.812 107.216 193.892C107.144 193.964 107.04 194 106.904 194H106.472ZM113.031 192.488C113.135 192.4 113.235 192.356 113.331 192.356C113.427 192.356 113.527 192.408 113.631 192.512L113.799 192.692C113.887 192.796 113.931 192.896 113.931 192.992C113.931 193.096 113.879 193.196 113.775 193.292C113.407 193.612 113.039 193.84 112.671 193.976C112.311 194.112 111.911 194.18 111.471 194.18C110.855 194.18 110.319 194.052 109.863 193.796C109.415 193.54 109.067 193.18 108.819 192.716C108.579 192.244 108.458 191.7 108.458 191.084C108.458 190.476 108.575 189.932 108.807 189.452C109.047 188.964 109.383 188.584 109.815 188.312C110.255 188.04 110.767 187.904 111.351 187.904C112.223 187.904 112.895 188.164 113.367 188.684C113.839 189.196 114.075 189.904 114.075 190.808V190.916C114.067 191.044 114.027 191.144 113.955 191.216C113.883 191.288 113.779 191.324 113.643 191.324H109.707C109.755 191.852 109.927 192.284 110.223 192.62C110.527 192.948 110.951 193.112 111.495 193.112C111.791 193.112 112.051 193.068 112.275 192.98C112.499 192.884 112.751 192.72 113.031 192.488ZM111.327 188.912C110.887 188.912 110.531 189.044 110.259 189.308C109.995 189.564 109.823 189.928 109.743 190.4H112.827C112.795 189.936 112.651 189.572 112.395 189.308C112.139 189.044 111.783 188.912 111.327 188.912ZM117.543 194.18C117.055 194.18 116.619 194.12 116.235 194C115.859 193.872 115.475 193.652 115.083 193.34C114.963 193.252 114.903 193.152 114.903 193.04C114.903 192.952 114.947 192.856 115.035 192.752L115.215 192.548C115.311 192.436 115.415 192.38 115.527 192.38C115.615 192.38 115.711 192.42 115.815 192.5C116.151 192.748 116.447 192.92 116.703 193.016C116.959 193.104 117.247 193.148 117.567 193.148C117.911 193.148 118.191 193.08 118.407 192.944C118.631 192.8 118.743 192.608 118.743 192.368C118.743 192.184 118.679 192.04 118.551 191.936C118.431 191.824 118.271 191.74 118.071 191.684C117.871 191.62 117.575 191.548 117.183 191.468C116.631 191.348 116.199 191.22 115.887 191.084C115.583 190.94 115.363 190.76 115.227 190.544C115.091 190.328 115.023 190.052 115.023 189.716C115.023 189.372 115.119 189.064 115.311 188.792C115.511 188.52 115.787 188.304 116.139 188.144C116.499 187.984 116.919 187.904 117.399 187.904C117.831 187.904 118.215 187.952 118.551 188.048C118.895 188.144 119.231 188.308 119.559 188.54C119.687 188.636 119.751 188.744 119.751 188.864C119.751 188.944 119.711 189.036 119.631 189.14L119.475 189.332C119.387 189.444 119.279 189.5 119.151 189.5C119.055 189.5 118.963 189.468 118.875 189.404C118.611 189.228 118.367 189.108 118.143 189.044C117.919 188.972 117.667 188.936 117.387 188.936C117.043 188.936 116.767 189.004 116.559 189.14C116.351 189.276 116.247 189.452 116.247 189.668C116.247 189.812 116.295 189.928 116.391 190.016C116.495 190.096 116.639 190.168 116.823 190.232C117.015 190.288 117.315 190.36 117.723 190.448C118.275 190.568 118.711 190.704 119.031 190.856C119.359 191 119.599 191.188 119.751 191.42C119.911 191.644 119.991 191.936 119.991 192.296C119.991 192.856 119.767 193.312 119.319 193.664C118.879 194.008 118.287 194.18 117.543 194.18Z" fill="#474445"/>
<rect x="32.5" y="174.5" width="96" height="31" rx="3.5" stroke="#C3CCD9"/>
</g>
<rect x="239.5" y="72.5" width="60" height="31" rx="3.5" fill="white"/>
<path d="M255 88.5L255 84.5" stroke="#767676" stroke-width="1.5" stroke-miterlimit="10" stroke-linecap="round"/>
<path d="M255 92L255 91.4999" stroke="#767676" stroke-width="1.5" stroke-linecap="round" stroke-linejoin="round"/>
<path d="M255 95C258.866 95 262 91.866 262 88C262 84.134 258.866 81 255 81C251.134 81 248 84.134 248 88C248 91.866 251.134 95 255 95Z" stroke="#767676" stroke-width="1.5" stroke-miterlimit="10"/>
<path d="M272.428 92C272.3 92 272.196 91.964 272.116 91.892C272.044 91.812 272.008 91.708 272.008 91.58V83.9C272.008 83.764 272.044 83.66 272.116 83.588C272.196 83.516 272.3 83.48 272.428 83.48H272.956C273.092 83.48 273.196 83.516 273.268 83.588C273.34 83.66 273.376 83.764 273.376 83.9V91.58C273.376 91.708 273.34 91.812 273.268 91.892C273.196 91.964 273.092 92 272.956 92H272.428ZM278.131 85.904C278.811 85.904 279.331 86.096 279.691 86.48C280.059 86.856 280.243 87.344 280.243 87.944V91.58C280.243 91.708 280.207 91.812 280.135 91.892C280.063 91.964 279.959 92 279.823 92H279.391C279.263 92 279.159 91.964 279.079 91.892C279.007 91.812 278.971 91.708 278.971 91.58V88.34C278.971 87.908 278.863 87.576 278.647 87.344C278.439 87.112 278.139 86.996 277.747 86.996C277.363 86.996 277.039 87.128 276.775 87.392C276.519 87.656 276.391 87.988 276.391 88.388V91.58C276.391 91.708 276.355 91.812 276.283 91.892C276.211 91.964 276.107 92 275.971 92H275.539C275.411 92 275.307 91.964 275.227 91.892C275.155 91.812 275.119 91.708 275.119 91.58V86.504C275.119 86.368 275.155 86.264 275.227 86.192C275.307 86.12 275.411 86.084 275.539 86.084H275.887C276.023 86.084 276.127 86.12 276.199 86.192C276.271 86.264 276.307 86.368 276.307 86.504V86.816C276.499 86.52 276.751 86.296 277.063 86.144C277.375 85.984 277.731 85.904 278.131 85.904ZM284.168 84.368C283.888 84.368 283.684 84.436 283.556 84.572C283.428 84.708 283.364 84.94 283.364 85.268V86.084H284.336C284.472 86.084 284.576 86.12 284.648 86.192C284.72 86.264 284.756 86.368 284.756 86.504V86.636C284.756 86.764 284.72 86.868 284.648 86.948C284.576 87.02 284.472 87.056 284.336 87.056H283.364V91.58C283.364 91.708 283.328 91.812 283.256 91.892C283.184 91.964 283.08 92 282.944 92H282.512C282.384 92 282.28 91.964 282.2 91.892C282.128 91.812 282.092 91.708 282.092 91.58V87.056H281.456C281.328 87.056 281.224 87.02 281.144 86.948C281.072 86.868 281.036 86.764 281.036 86.636V86.504C281.036 86.368 281.072 86.264 281.144 86.192C281.224 86.12 281.328 86.084 281.456 86.084H282.092V85.184C282.092 84.568 282.248 84.104 282.56 83.792C282.88 83.472 283.34 83.312 283.94 83.312C284.212 83.312 284.488 83.34 284.768 83.396C284.976 83.452 285.08 83.58 285.08 83.78C285.08 83.836 285.076 83.88 285.068 83.912L285.032 84.08C284.984 84.288 284.828 84.392 284.564 84.392L284.42 84.38C284.364 84.372 284.28 84.368 284.168 84.368ZM288.142 92.18C287.558 92.18 287.038 92.048 286.582 91.784C286.134 91.52 285.782 91.152 285.526 90.68C285.27 90.2 285.142 89.652 285.142 89.036C285.142 88.42 285.27 87.876 285.526 87.404C285.782 86.932 286.134 86.564 286.582 86.3C287.038 86.036 287.558 85.904 288.142 85.904C288.718 85.904 289.234 86.036 289.69 86.3C290.146 86.564 290.502 86.936 290.758 87.416C291.014 87.888 291.142 88.428 291.142 89.036C291.142 89.652 291.014 90.2 290.758 90.68C290.502 91.152 290.146 91.52 289.69 91.784C289.234 92.048 288.718 92.18 288.142 92.18ZM288.142 91.112C288.654 91.112 289.066 90.924 289.378 90.548C289.69 90.164 289.846 89.66 289.846 89.036C289.846 88.42 289.69 87.924 289.378 87.548C289.066 87.172 288.654 86.984 288.142 86.984C287.63 86.984 287.218 87.172 286.906 87.548C286.594 87.924 286.438 88.42 286.438 89.036C286.438 89.66 286.594 90.164 286.906 90.548C287.218 90.924 287.63 91.112 288.142 91.112Z" fill="#474445"/>
<rect x="239.5" y="72.5" width="60" height="31" rx="3.5" stroke="#C3CCD9"/>
<rect x="239.5" y="174.5" width="60" height="31" rx="3.5" fill="white"/>
<path d="M255 190.5L255 186.5" stroke="#767676" stroke-width="1.5" stroke-miterlimit="10" stroke-linecap="round"/>
<path d="M255 194L255 193.5" stroke="#767676" stroke-width="1.5" stroke-linecap="round" stroke-linejoin="round"/>
<path d="M255 197C258.866 197 262 193.866 262 190C262 186.134 258.866 183 255 183C251.134 183 248 186.134 248 190C248 193.866 251.134 197 255 197Z" stroke="#767676" stroke-width="1.5" stroke-miterlimit="10"/>
<path d="M272.428 194C272.3 194 272.196 193.964 272.116 193.892C272.044 193.812 272.008 193.708 272.008 193.58V185.9C272.008 185.764 272.044 185.66 272.116 185.588C272.196 185.516 272.3 185.48 272.428 185.48H272.956C273.092 185.48 273.196 185.516 273.268 185.588C273.34 185.66 273.376 185.764 273.376 185.9V193.58C273.376 193.708 273.34 193.812 273.268 193.892C273.196 193.964 273.092 194 272.956 194H272.428ZM278.131 187.904C278.811 187.904 279.331 188.096 279.691 188.48C280.059 188.856 280.243 189.344 280.243 189.944V193.58C280.243 193.708 280.207 193.812 280.135 193.892C280.063 193.964 279.959 194 279.823 194H279.391C279.263 194 279.159 193.964 279.079 193.892C279.007 193.812 278.971 193.708 278.971 193.58V190.34C278.971 189.908 278.863 189.576 278.647 189.344C278.439 189.112 278.139 188.996 277.747 188.996C277.363 188.996 277.039 189.128 276.775 189.392C276.519 189.656 276.391 189.988 276.391 190.388V193.58C276.391 193.708 276.355 193.812 276.283 193.892C276.211 193.964 276.107 194 275.971 194H275.539C275.411 194 275.307 193.964 275.227 193.892C275.155 193.812 275.119 193.708 275.119 193.58V188.504C275.119 188.368 275.155 188.264 275.227 188.192C275.307 188.12 275.411 188.084 275.539 188.084H275.887C276.023 188.084 276.127 188.12 276.199 188.192C276.271 188.264 276.307 188.368 276.307 188.504V188.816C276.499 188.52 276.751 188.296 277.063 188.144C277.375 187.984 277.731 187.904 278.131 187.904ZM284.168 186.368C283.888 186.368 283.684 186.436 283.556 186.572C283.428 186.708 283.364 186.94 283.364 187.268V188.084H284.336C284.472 188.084 284.576 188.12 284.648 188.192C284.72 188.264 284.756 188.368 284.756 188.504V188.636C284.756 188.764 284.72 188.868 284.648 188.948C284.576 189.02 284.472 189.056 284.336 189.056H283.364V193.58C283.364 193.708 283.328 193.812 283.256 193.892C283.184 193.964 283.08 194 282.944 194H282.512C282.384 194 282.28 193.964 282.2 193.892C282.128 193.812 282.092 193.708 282.092 193.58V189.056H281.456C281.328 189.056 281.224 189.02 281.144 188.948C281.072 188.868 281.036 188.764 281.036 188.636V188.504C281.036 188.368 281.072 188.264 281.144 188.192C281.224 188.12 281.328 188.084 281.456 188.084H282.092V187.184C282.092 186.568 282.248 186.104 282.56 185.792C282.88 185.472 283.34 185.312 283.94 185.312C284.212 185.312 284.488 185.34 284.768 185.396C284.976 185.452 285.08 185.58 285.08 185.78C285.08 185.836 285.076 185.88 285.068 185.912L285.032 186.08C284.984 186.288 284.828 186.392 284.564 186.392L284.42 186.38C284.364 186.372 284.28 186.368 284.168 186.368ZM288.142 194.18C287.558 194.18 287.038 194.048 286.582 193.784C286.134 193.52 285.782 193.152 285.526 192.68C285.27 192.2 285.142 191.652 285.142 191.036C285.142 190.42 285.27 189.876 285.526 189.404C285.782 188.932 286.134 188.564 286.582 188.3C287.038 188.036 287.558 187.904 288.142 187.904C288.718 187.904 289.234 188.036 289.69 188.3C290.146 188.564 290.502 188.936 290.758 189.416C291.014 189.888 291.142 190.428 291.142 191.036C291.142 191.652 291.014 192.2 290.758 192.68C290.502 193.152 290.146 193.52 289.69 193.784C289.234 194.048 288.718 194.18 288.142 194.18ZM288.142 193.112C288.654 193.112 289.066 192.924 289.378 192.548C289.69 192.164 289.846 191.66 289.846 191.036C289.846 190.42 289.69 189.924 289.378 189.548C289.066 189.172 288.654 188.984 288.142 188.984C287.63 188.984 287.218 189.172 286.906 189.548C286.594 189.924 286.438 190.42 286.438 191.036C286.438 191.66 286.594 192.164 286.906 192.548C287.218 192.924 287.63 193.112 288.142 193.112Z" fill="#474445"/>
<rect x="239.5" y="174.5" width="60" height="31" rx="3.5" stroke="#C3CCD9"/>
<rect x="153.5" y="72.5" width="61" height="31" rx="3.5" fill="white"/>
<path d="M175.34 81.6598C175.128 81.4487 174.876 81.2817 174.6 81.1685C174.323 81.0553 174.026 80.998 173.727 81.0001C173.428 81.0021 173.132 81.0633 172.857 81.1803C172.582 81.2973 172.332 81.4676 172.123 81.6815L163.101 90.7036L162 95L166.296 93.8981L175.318 84.876C175.532 84.667 175.703 84.4177 175.82 84.1424C175.937 83.8672 175.998 83.5715 176 83.2724C176.002 82.9733 175.945 82.6768 175.831 82.4C175.718 82.1232 175.551 81.8716 175.34 81.6598V81.6598Z" stroke="#767676" stroke-width="1.5" stroke-linecap="round" stroke-linejoin="round"/>
<path d="M186.344 92C186.216 92 186.112 91.964 186.032 91.892C185.96 91.812 185.924 91.708 185.924 91.58V83.9C185.924 83.764 185.96 83.66 186.032 83.588C186.112 83.516 186.216 83.48 186.344 83.48H191.324C191.46 83.48 191.564 83.516 191.636 83.588C191.708 83.66 191.744 83.764 191.744 83.9V84.212C191.744 84.34 191.708 84.444 191.636 84.524C191.564 84.596 191.46 84.632 191.324 84.632H187.292V87.032H191.024C191.16 87.032 191.264 87.068 191.336 87.14C191.408 87.212 191.444 87.316 191.444 87.452V87.764C191.444 87.892 191.408 87.996 191.336 88.076C191.264 88.148 191.16 88.184 191.024 88.184H187.292V90.848H191.444C191.58 90.848 191.684 90.884 191.756 90.956C191.828 91.028 191.864 91.132 191.864 91.268V91.58C191.864 91.708 191.828 91.812 191.756 91.892C191.684 91.964 191.58 92 191.444 92H186.344ZM197.115 83.888C197.115 83.752 197.151 83.648 197.223 83.576C197.303 83.504 197.407 83.468 197.535 83.468H197.967C198.103 83.468 198.207 83.504 198.279 83.576C198.351 83.648 198.387 83.752 198.387 83.888V91.58C198.387 91.708 198.351 91.812 198.279 91.892C198.207 91.964 198.103 92 197.967 92H197.619C197.491 92 197.387 91.964 197.307 91.892C197.235 91.812 197.199 91.708 197.199 91.58V91.16C196.783 91.832 196.131 92.168 195.243 92.168C194.747 92.168 194.299 92.04 193.899 91.784C193.507 91.528 193.199 91.164 192.975 90.692C192.751 90.22 192.639 89.672 192.639 89.048C192.639 88.432 192.751 87.888 192.975 87.416C193.207 86.944 193.523 86.58 193.923 86.324C194.323 86.068 194.771 85.94 195.267 85.94C196.083 85.94 196.699 86.224 197.115 86.792V83.888ZM195.507 91.076C195.995 91.076 196.395 90.896 196.707 90.536C197.019 90.168 197.175 89.672 197.175 89.048C197.175 88.424 197.019 87.932 196.707 87.572C196.395 87.212 195.995 87.032 195.507 87.032C195.035 87.032 194.655 87.216 194.367 87.584C194.079 87.952 193.935 88.44 193.935 89.048C193.935 89.664 194.075 90.156 194.355 90.524C194.643 90.892 195.027 91.076 195.507 91.076ZM200.513 84.932C200.281 84.932 200.085 84.856 199.925 84.704C199.765 84.544 199.685 84.356 199.685 84.14C199.685 83.916 199.765 83.728 199.925 83.576C200.085 83.424 200.281 83.348 200.513 83.348C200.745 83.348 200.941 83.424 201.101 83.576C201.261 83.728 201.341 83.916 201.341 84.14C201.341 84.356 201.261 84.544 201.101 84.704C200.941 84.856 200.745 84.932 200.513 84.932ZM200.285 92C200.157 92 200.053 91.964 199.973 91.892C199.901 91.812 199.865 91.708 199.865 91.58V86.504C199.865 86.368 199.901 86.264 199.973 86.192C200.053 86.12 200.157 86.084 200.285 86.084H200.717C200.853 86.084 200.957 86.12 201.029 86.192C201.101 86.264 201.137 86.368 201.137 86.504V91.58C201.137 91.708 201.101 91.812 201.029 91.892C200.957 91.964 200.853 92 200.717 92H200.285ZM205.463 90.992C205.487 90.984 205.523 90.98 205.571 90.98C205.771 90.98 205.891 91.096 205.931 91.328L205.967 91.52C205.975 91.544 205.979 91.584 205.979 91.64C205.979 91.84 205.867 91.968 205.643 92.024C205.323 92.096 205.031 92.132 204.767 92.132C204.199 92.132 203.787 92 203.531 91.736C203.283 91.472 203.159 91.076 203.159 90.548V87.056H202.499C202.371 87.056 202.267 87.02 202.187 86.948C202.115 86.868 202.079 86.764 202.079 86.636V86.504C202.079 86.368 202.115 86.264 202.187 86.192C202.267 86.12 202.371 86.084 202.499 86.084H203.159V84.596C203.159 84.46 203.195 84.356 203.267 84.284C203.347 84.212 203.451 84.176 203.579 84.176H204.011C204.147 84.176 204.251 84.212 204.323 84.284C204.395 84.356 204.431 84.46 204.431 84.596V86.084H205.511C205.647 86.084 205.751 86.12 205.823 86.192C205.895 86.264 205.931 86.368 205.931 86.504V86.636C205.931 86.764 205.895 86.868 205.823 86.948C205.751 87.02 205.647 87.056 205.511 87.056H204.431V90.392C204.431 90.624 204.479 90.788 204.575 90.884C204.679 90.98 204.843 91.028 205.067 91.028C205.163 91.028 205.295 91.016 205.463 90.992Z" fill="#474445"/>
<rect x="153.5" y="72.5" width="61" height="31" rx="3.5" stroke="#C3CCD9"/>
<g filter="url(#filter2_i_665_10537)">
<rect x="153" y="174" width="62" height="32" rx="4" fill="#E5E5E5"/>
<path d="M175.34 183.66C175.128 183.449 174.876 183.282 174.6 183.169C174.323 183.055 174.026 182.998 173.727 183C173.428 183.002 173.132 183.063 172.857 183.18C172.582 183.297 172.332 183.468 172.123 183.682L163.101 192.704L162 197L166.296 195.898L175.318 186.876C175.532 186.667 175.703 186.418 175.82 186.142C175.937 185.867 175.998 185.571 176 185.272C176.002 184.973 175.945 184.677 175.831 184.4C175.718 184.123 175.551 183.872 175.34 183.66V183.66Z" stroke="#767676" stroke-width="1.5" stroke-linecap="round" stroke-linejoin="round"/>
<path d="M186.344 194C186.216 194 186.112 193.964 186.032 193.892C185.96 193.812 185.924 193.708 185.924 193.58V185.9C185.924 185.764 185.96 185.66 186.032 185.588C186.112 185.516 186.216 185.48 186.344 185.48H191.324C191.46 185.48 191.564 185.516 191.636 185.588C191.708 185.66 191.744 185.764 191.744 185.9V186.212C191.744 186.34 191.708 186.444 191.636 186.524C191.564 186.596 191.46 186.632 191.324 186.632H187.292V189.032H191.024C191.16 189.032 191.264 189.068 191.336 189.14C191.408 189.212 191.444 189.316 191.444 189.452V189.764C191.444 189.892 191.408 189.996 191.336 190.076C191.264 190.148 191.16 190.184 191.024 190.184H187.292V192.848H191.444C191.58 192.848 191.684 192.884 191.756 192.956C191.828 193.028 191.864 193.132 191.864 193.268V193.58C191.864 193.708 191.828 193.812 191.756 193.892C191.684 193.964 191.58 194 191.444 194H186.344ZM197.115 185.888C197.115 185.752 197.151 185.648 197.223 185.576C197.303 185.504 197.407 185.468 197.535 185.468H197.967C198.103 185.468 198.207 185.504 198.279 185.576C198.351 185.648 198.387 185.752 198.387 185.888V193.58C198.387 193.708 198.351 193.812 198.279 193.892C198.207 193.964 198.103 194 197.967 194H197.619C197.491 194 197.387 193.964 197.307 193.892C197.235 193.812 197.199 193.708 197.199 193.58V193.16C196.783 193.832 196.131 194.168 195.243 194.168C194.747 194.168 194.299 194.04 193.899 193.784C193.507 193.528 193.199 193.164 192.975 192.692C192.751 192.22 192.639 191.672 192.639 191.048C192.639 190.432 192.751 189.888 192.975 189.416C193.207 188.944 193.523 188.58 193.923 188.324C194.323 188.068 194.771 187.94 195.267 187.94C196.083 187.94 196.699 188.224 197.115 188.792V185.888ZM195.507 193.076C195.995 193.076 196.395 192.896 196.707 192.536C197.019 192.168 197.175 191.672 197.175 191.048C197.175 190.424 197.019 189.932 196.707 189.572C196.395 189.212 195.995 189.032 195.507 189.032C195.035 189.032 194.655 189.216 194.367 189.584C194.079 189.952 193.935 190.44 193.935 191.048C193.935 191.664 194.075 192.156 194.355 192.524C194.643 192.892 195.027 193.076 195.507 193.076ZM200.513 186.932C200.281 186.932 200.085 186.856 199.925 186.704C199.765 186.544 199.685 186.356 199.685 186.14C199.685 185.916 199.765 185.728 199.925 185.576C200.085 185.424 200.281 185.348 200.513 185.348C200.745 185.348 200.941 185.424 201.101 185.576C201.261 185.728 201.341 185.916 201.341 186.14C201.341 186.356 201.261 186.544 201.101 186.704C200.941 186.856 200.745 186.932 200.513 186.932ZM200.285 194C200.157 194 200.053 193.964 199.973 193.892C199.901 193.812 199.865 193.708 199.865 193.58V188.504C199.865 188.368 199.901 188.264 199.973 188.192C200.053 188.12 200.157 188.084 200.285 188.084H200.717C200.853 188.084 200.957 188.12 201.029 188.192C201.101 188.264 201.137 188.368 201.137 188.504V193.58C201.137 193.708 201.101 193.812 201.029 193.892C200.957 193.964 200.853 194 200.717 194H200.285ZM205.463 192.992C205.487 192.984 205.523 192.98 205.571 192.98C205.771 192.98 205.891 193.096 205.931 193.328L205.967 193.52C205.975 193.544 205.979 193.584 205.979 193.64C205.979 193.84 205.867 193.968 205.643 194.024C205.323 194.096 205.031 194.132 204.767 194.132C204.199 194.132 203.787 194 203.531 193.736C203.283 193.472 203.159 193.076 203.159 192.548V189.056H202.499C202.371 189.056 202.267 189.02 202.187 188.948C202.115 188.868 202.079 188.764 202.079 188.636V188.504C202.079 188.368 202.115 188.264 202.187 188.192C202.267 188.12 202.371 188.084 202.499 188.084H203.159V186.596C203.159 186.46 203.195 186.356 203.267 186.284C203.347 186.212 203.451 186.176 203.579 186.176H204.011C204.147 186.176 204.251 186.212 204.323 186.284C204.395 186.356 204.431 186.46 204.431 186.596V188.084H205.511C205.647 188.084 205.751 188.12 205.823 188.192C205.895 188.264 205.931 188.368 205.931 188.504V188.636C205.931 188.764 205.895 188.868 205.823 188.948C205.751 189.02 205.647 189.056 205.511 189.056H204.431V192.392C204.431 192.624 204.479 192.788 204.575 192.884C204.679 192.98 204.843 193.028 205.067 193.028C205.163 193.028 205.295 193.016 205.463 192.992Z" fill="#474445"/>
<rect x="153.5" y="174.5" width="61" height="31" rx="3.5" stroke="#C3CCD9"/>
</g>
<path d="M35.852 52.18C35.22 52.18 34.648 52.084 34.136 51.892C33.632 51.692 33.1 51.368 32.54 50.92C32.468 50.856 32.432 50.796 32.432 50.74C32.432 50.692 32.456 50.64 32.504 50.584L32.696 50.356C32.736 50.292 32.796 50.26 32.876 50.26C32.94 50.26 32.992 50.28 33.032 50.32C33.6 50.76 34.096 51.06 34.52 51.22C34.944 51.372 35.388 51.448 35.852 51.448C36.5 51.448 37.028 51.288 37.436 50.968C37.844 50.64 38.048 50.196 38.048 49.636C38.048 49.276 37.952 48.988 37.76 48.772C37.568 48.556 37.304 48.388 36.968 48.268C36.64 48.148 36.172 48.02 35.564 47.884C34.836 47.724 34.268 47.552 33.86 47.368C33.46 47.184 33.168 46.952 32.984 46.672C32.8 46.392 32.708 46.032 32.708 45.592C32.708 45.128 32.84 44.724 33.104 44.38C33.376 44.028 33.736 43.76 34.184 43.576C34.632 43.392 35.116 43.3 35.636 43.3C36.204 43.3 36.72 43.384 37.184 43.552C37.656 43.72 38.12 43.988 38.576 44.356C38.648 44.404 38.684 44.46 38.684 44.524C38.684 44.572 38.66 44.628 38.612 44.692L38.432 44.908C38.392 44.972 38.332 45.004 38.252 45.004C38.188 45.004 38.132 44.984 38.084 44.944C37.676 44.608 37.28 44.372 36.896 44.236C36.52 44.1 36.104 44.032 35.648 44.032C35.232 44.032 34.864 44.1 34.544 44.236C34.224 44.364 33.972 44.544 33.788 44.776C33.612 45.008 33.524 45.272 33.524 45.568C33.524 45.888 33.612 46.144 33.788 46.336C33.972 46.528 34.224 46.68 34.544 46.792C34.872 46.904 35.348 47.032 35.972 47.176C36.692 47.344 37.26 47.532 37.676 47.74C38.1 47.948 38.408 48.204 38.6 48.508C38.792 48.804 38.888 49.172 38.888 49.612C38.888 50.124 38.756 50.576 38.492 50.968C38.236 51.352 37.876 51.652 37.412 51.868C36.948 52.076 36.428 52.18 35.852 52.18ZM44.6726 50.596C44.7286 50.54 44.7886 50.512 44.8526 50.512C44.9086 50.512 44.9606 50.536 45.0086 50.584L45.1646 50.728C45.2206 50.784 45.2486 50.844 45.2486 50.908C45.2486 50.956 45.2246 51.012 45.1766 51.076C44.7846 51.468 44.4046 51.748 44.0366 51.916C43.6686 52.076 43.2566 52.156 42.8006 52.156C42.2246 52.156 41.7246 52.028 41.3006 51.772C40.8766 51.516 40.5486 51.16 40.3166 50.704C40.0846 50.24 39.9686 49.704 39.9686 49.096C39.9686 48.48 40.0806 47.936 40.3046 47.464C40.5366 46.984 40.8606 46.612 41.2766 46.348C41.6926 46.076 42.1726 45.94 42.7166 45.94C43.5246 45.94 44.1606 46.192 44.6246 46.696C45.0886 47.2 45.3206 47.88 45.3206 48.736V48.88C45.3126 48.952 45.2846 49.008 45.2366 49.048C45.1966 49.088 45.1406 49.108 45.0686 49.108H40.7726C40.7966 49.78 40.9726 50.348 41.3006 50.812C41.6366 51.268 42.1366 51.496 42.8006 51.496C43.1606 51.496 43.4766 51.432 43.7486 51.304C44.0286 51.168 44.3366 50.932 44.6726 50.596ZM42.7166 46.6C42.1886 46.6 41.7526 46.764 41.4086 47.092C41.0726 47.412 40.8686 47.884 40.7966 48.508H44.5286C44.5126 47.924 44.3446 47.46 44.0246 47.116C43.7046 46.772 43.2686 46.6 42.7166 46.6ZM46.9916 52C46.8316 52 46.7516 51.92 46.7516 51.76V43.72C46.7516 43.56 46.8316 43.48 46.9916 43.48H47.3036C47.4636 43.48 47.5436 43.56 47.5436 43.72V51.76C47.5436 51.92 47.4636 52 47.3036 52H46.9916ZM53.6374 50.596C53.6934 50.54 53.7534 50.512 53.8174 50.512C53.8734 50.512 53.9254 50.536 53.9734 50.584L54.1294 50.728C54.1854 50.784 54.2134 50.844 54.2134 50.908C54.2134 50.956 54.1894 51.012 54.1414 51.076C53.7494 51.468 53.3694 51.748 53.0014 51.916C52.6334 52.076 52.2214 52.156 51.7654 52.156C51.1894 52.156 50.6894 52.028 50.2654 51.772C49.8414 51.516 49.5134 51.16 49.2814 50.704C49.0494 50.24 48.9334 49.704 48.9334 49.096C48.9334 48.48 49.0454 47.936 49.2694 47.464C49.5014 46.984 49.8254 46.612 50.2414 46.348C50.6574 46.076 51.1374 45.94 51.6814 45.94C52.4894 45.94 53.1254 46.192 53.5894 46.696C54.0534 47.2 54.2854 47.88 54.2854 48.736V48.88C54.2774 48.952 54.2494 49.008 54.2014 49.048C54.1614 49.088 54.1054 49.108 54.0334 49.108H49.7374C49.7614 49.78 49.9374 50.348 50.2654 50.812C50.6014 51.268 51.1014 51.496 51.7654 51.496C52.1254 51.496 52.4414 51.432 52.7134 51.304C52.9934 51.168 53.3014 50.932 53.6374 50.596ZM51.6814 46.6C51.1534 46.6 50.7174 46.764 50.3734 47.092C50.0374 47.412 49.8334 47.884 49.7614 48.508H53.4934C53.4774 47.924 53.3094 47.46 52.9894 47.116C52.6694 46.772 52.2334 46.6 51.6814 46.6ZM58.1161 52.156C57.5481 52.156 57.0521 52.028 56.6281 51.772C56.2121 51.508 55.8881 51.144 55.6561 50.68C55.4321 50.208 55.3201 49.664 55.3201 49.048C55.3201 48.44 55.4321 47.9 55.6561 47.428C55.8881 46.956 56.2121 46.592 56.6281 46.336C57.0521 46.072 57.5401 45.94 58.0921 45.94C58.5401 45.94 58.9321 46.016 59.2681 46.168C59.6041 46.312 59.9281 46.552 60.2401 46.888C60.2881 46.936 60.3121 46.988 60.3121 47.044C60.3121 47.116 60.2801 47.176 60.2161 47.224L60.0481 47.38C60.0001 47.428 59.9441 47.452 59.8801 47.452C59.8241 47.452 59.7641 47.42 59.7001 47.356C59.4201 47.076 59.1521 46.88 58.8961 46.768C58.6481 46.656 58.3721 46.6 58.0681 46.6C57.6521 46.6 57.2961 46.716 57.0001 46.948C56.7121 47.18 56.4961 47.484 56.3521 47.86C56.2081 48.228 56.1361 48.624 56.1361 49.048C56.1361 49.472 56.2081 49.872 56.3521 50.248C56.4961 50.616 56.7161 50.916 57.0121 51.148C57.3081 51.372 57.6721 51.484 58.1041 51.484C58.4241 51.484 58.7041 51.428 58.9441 51.316C59.1921 51.196 59.4681 50.972 59.7721 50.644C59.8361 50.58 59.8961 50.548 59.9521 50.548C60.0161 50.548 60.0721 50.572 60.1201 50.62L60.2881 50.752C60.3441 50.8 60.3721 50.856 60.3721 50.92C60.3721 50.984 60.3361 51.06 60.2641 51.148C59.9281 51.516 59.5921 51.776 59.2561 51.928C58.9201 52.08 58.5401 52.156 58.1161 52.156ZM64.3567 51.34C64.3807 51.332 64.4127 51.328 64.4527 51.328C64.5007 51.328 64.5447 51.344 64.5847 51.376C64.6247 51.408 64.6487 51.452 64.6567 51.508L64.6927 51.676C64.7007 51.692 64.7047 51.72 64.7047 51.76C64.7047 51.872 64.6447 51.94 64.5247 51.964C64.2367 52.052 63.9287 52.096 63.6007 52.096C63.0807 52.096 62.7087 51.98 62.4847 51.748C62.2687 51.508 62.1607 51.164 62.1607 50.716V46.684H61.2727C61.1127 46.684 61.0327 46.604 61.0327 46.444V46.324C61.0327 46.164 61.1127 46.084 61.2727 46.084H62.1607V44.26C62.1607 44.1 62.2407 44.02 62.4007 44.02H62.7127C62.8727 44.02 62.9527 44.1 62.9527 44.26V46.084H64.3927C64.5527 46.084 64.6327 46.164 64.6327 46.324V46.444C64.6327 46.604 64.5527 46.684 64.3927 46.684H62.9527V50.62C62.9527 50.916 63.0087 51.124 63.1207 51.244C63.2327 51.364 63.4247 51.424 63.6967 51.424C63.8887 51.424 64.1087 51.396 64.3567 51.34ZM66.2371 44.584C66.0771 44.584 65.9411 44.528 65.8291 44.416C65.7251 44.304 65.6731 44.168 65.6731 44.008C65.6731 43.848 65.7251 43.716 65.8291 43.612C65.9411 43.508 66.0771 43.456 66.2371 43.456C66.4051 43.456 66.5411 43.508 66.6451 43.612C66.7571 43.716 66.8131 43.848 66.8131 44.008C66.8131 44.168 66.7571 44.304 66.6451 44.416C66.5411 44.528 66.4051 44.584 66.2371 44.584ZM66.0811 52C65.9211 52 65.8411 51.92 65.8411 51.76V46.324C65.8411 46.164 65.9211 46.084 66.0811 46.084H66.3931C66.5531 46.084 66.6331 46.164 66.6331 46.324V51.76C66.6331 51.92 66.5531 52 66.3931 52H66.0811ZM70.8438 52.156C70.2918 52.156 69.7998 52.024 69.3678 51.76C68.9358 51.496 68.5998 51.132 68.3598 50.668C68.1198 50.196 67.9998 49.656 67.9998 49.048C67.9998 48.44 68.1198 47.904 68.3598 47.44C68.5998 46.968 68.9358 46.6 69.3678 46.336C69.7998 46.072 70.2918 45.94 70.8438 45.94C71.3958 45.94 71.8878 46.072 72.3198 46.336C72.7518 46.6 73.0878 46.968 73.3278 47.44C73.5678 47.904 73.6878 48.44 73.6878 49.048C73.6878 49.656 73.5678 50.196 73.3278 50.668C73.0878 51.132 72.7518 51.496 72.3198 51.76C71.8878 52.024 71.3958 52.156 70.8438 52.156ZM70.8438 51.496C71.4598 51.496 71.9518 51.272 72.3198 50.824C72.6878 50.368 72.8718 49.776 72.8718 49.048C72.8718 48.32 72.6878 47.732 72.3198 47.284C71.9518 46.828 71.4598 46.6 70.8438 46.6C70.2278 46.6 69.7358 46.828 69.3678 47.284C68.9998 47.732 68.8158 48.32 68.8158 49.048C68.8158 49.776 68.9998 50.368 69.3678 50.824C69.7358 51.272 70.2278 51.496 70.8438 51.496ZM77.7038 45.94C78.3998 45.94 78.9238 46.132 79.2758 46.516C79.6358 46.9 79.8158 47.38 79.8158 47.956V51.76C79.8158 51.92 79.7358 52 79.5758 52H79.2638C79.1038 52 79.0238 51.92 79.0238 51.76V48.22C79.0238 47.692 78.8958 47.292 78.6398 47.02C78.3838 46.748 78.0158 46.612 77.5358 46.612C77.2318 46.612 76.9518 46.688 76.6958 46.84C76.4398 46.984 76.2358 47.184 76.0838 47.44C75.9318 47.696 75.8558 47.976 75.8558 48.28V51.76C75.8558 51.92 75.7758 52 75.6158 52H75.3038C75.1438 52 75.0638 51.92 75.0638 51.76V46.324C75.0638 46.164 75.1438 46.084 75.3038 46.084H75.5678C75.7278 46.084 75.8078 46.164 75.8078 46.324V46.9C76.0078 46.58 76.2718 46.34 76.5998 46.18C76.9278 46.02 77.2958 45.94 77.7038 45.94ZM86.9733 45.94C87.6693 45.94 88.1933 46.132 88.5453 46.516C88.9053 46.9 89.0853 47.38 89.0853 47.956V51.76C89.0853 51.92 89.0053 52 88.8453 52H88.5333C88.3733 52 88.2933 51.92 88.2933 51.76V48.22C88.2933 47.692 88.1653 47.292 87.9093 47.02C87.6533 46.748 87.2853 46.612 86.8053 46.612C86.5013 46.612 86.2213 46.688 85.9653 46.84C85.7093 46.984 85.5053 47.184 85.3533 47.44C85.2013 47.696 85.1253 47.976 85.1253 48.28V51.76C85.1253 51.92 85.0453 52 84.8853 52H84.5733C84.4133 52 84.3333 51.92 84.3333 51.76V46.324C84.3333 46.164 84.4133 46.084 84.5733 46.084H84.8373C84.9973 46.084 85.0773 46.164 85.0773 46.324V46.9C85.2773 46.58 85.5413 46.34 85.8693 46.18C86.1973 46.02 86.5653 45.94 86.9733 45.94ZM93.2852 52.156C92.7332 52.156 92.2412 52.024 91.8092 51.76C91.3772 51.496 91.0412 51.132 90.8012 50.668C90.5612 50.196 90.4412 49.656 90.4412 49.048C90.4412 48.44 90.5612 47.904 90.8012 47.44C91.0412 46.968 91.3772 46.6 91.8092 46.336C92.2412 46.072 92.7332 45.94 93.2852 45.94C93.8372 45.94 94.3292 46.072 94.7612 46.336C95.1932 46.6 95.5292 46.968 95.7692 47.44C96.0092 47.904 96.1292 48.44 96.1292 49.048C96.1292 49.656 96.0092 50.196 95.7692 50.668C95.5292 51.132 95.1932 51.496 94.7612 51.76C94.3292 52.024 93.8372 52.156 93.2852 52.156ZM93.2852 51.496C93.9012 51.496 94.3932 51.272 94.7612 50.824C95.1292 50.368 95.3132 49.776 95.3132 49.048C95.3132 48.32 95.1292 47.732 94.7612 47.284C94.3932 46.828 93.9012 46.6 93.2852 46.6C92.6692 46.6 92.1772 46.828 91.8092 47.284C91.4412 47.732 91.2572 48.32 91.2572 49.048C91.2572 49.776 91.4412 50.368 91.8092 50.824C92.1772 51.272 92.6692 51.496 93.2852 51.496ZM99.9934 51.34C100.017 51.332 100.049 51.328 100.089 51.328C100.137 51.328 100.181 51.344 100.221 51.376C100.261 51.408 100.285 51.452 100.293 51.508L100.329 51.676C100.337 51.692 100.341 51.72 100.341 51.76C100.341 51.872 100.281 51.94 100.161 51.964C99.8734 52.052 99.5654 52.096 99.2374 52.096C98.7174 52.096 98.3454 51.98 98.1214 51.748C97.9054 51.508 97.7974 51.164 97.7974 50.716V46.684H96.9094C96.7494 46.684 96.6694 46.604 96.6694 46.444V46.324C96.6694 46.164 96.7494 46.084 96.9094 46.084H97.7974V44.26C97.7974 44.1 97.8774 44.02 98.0374 44.02H98.3494C98.5094 44.02 98.5894 44.1 98.5894 44.26V46.084H100.029C100.189 46.084 100.269 46.164 100.269 46.324V46.444C100.269 46.604 100.189 46.684 100.029 46.684H98.5894V50.62C98.5894 50.916 98.6454 51.124 98.7574 51.244C98.8694 51.364 99.0614 51.424 99.3334 51.424C99.5254 51.424 99.7454 51.396 99.9934 51.34ZM108.551 50.596C108.607 50.54 108.667 50.512 108.731 50.512C108.787 50.512 108.839 50.536 108.887 50.584L109.043 50.728C109.099 50.784 109.127 50.844 109.127 50.908C109.127 50.956 109.103 51.012 109.055 51.076C108.663 51.468 108.283 51.748 107.915 51.916C107.547 52.076 107.135 52.156 106.679 52.156C106.103 52.156 105.603 52.028 105.179 51.772C104.755 51.516 104.427 51.16 104.195 50.704C103.963 50.24 103.847 49.704 103.847 49.096C103.847 48.48 103.959 47.936 104.183 47.464C104.415 46.984 104.739 46.612 105.155 46.348C105.571 46.076 106.051 45.94 106.595 45.94C107.403 45.94 108.039 46.192 108.503 46.696C108.967 47.2 109.199 47.88 109.199 48.736V48.88C109.191 48.952 109.163 49.008 109.115 49.048C109.075 49.088 109.019 49.108 108.947 49.108H104.651C104.675 49.78 104.851 50.348 105.179 50.812C105.515 51.268 106.015 51.496 106.679 51.496C107.039 51.496 107.355 51.432 107.627 51.304C107.907 51.168 108.215 50.932 108.551 50.596ZM106.595 46.6C106.067 46.6 105.631 46.764 105.287 47.092C104.951 47.412 104.747 47.884 104.675 48.508H108.407C108.391 47.924 108.223 47.46 107.903 47.116C107.583 46.772 107.147 46.6 106.595 46.6ZM113.258 45.94C113.954 45.94 114.478 46.132 114.83 46.516C115.19 46.9 115.37 47.38 115.37 47.956V51.76C115.37 51.92 115.29 52 115.13 52H114.818C114.658 52 114.578 51.92 114.578 51.76V48.22C114.578 47.692 114.45 47.292 114.194 47.02C113.938 46.748 113.57 46.612 113.09 46.612C112.786 46.612 112.506 46.688 112.25 46.84C111.994 46.984 111.79 47.184 111.638 47.44C111.486 47.696 111.41 47.976 111.41 48.28V51.76C111.41 51.92 111.33 52 111.17 52H110.858C110.698 52 110.618 51.92 110.618 51.76V46.324C110.618 46.164 110.698 46.084 110.858 46.084H111.122C111.282 46.084 111.362 46.164 111.362 46.324V46.9C111.562 46.58 111.826 46.34 112.154 46.18C112.482 46.02 112.85 45.94 113.258 45.94ZM119.402 45.94C120.13 45.94 120.698 46.116 121.106 46.468C121.514 46.812 121.718 47.268 121.718 47.836V51.76C121.718 51.92 121.638 52 121.478 52H121.238C121.078 52 120.998 51.92 120.998 51.76V51.22C120.798 51.54 120.514 51.78 120.146 51.94C119.786 52.1 119.382 52.18 118.934 52.18C118.31 52.18 117.802 52.048 117.41 51.784C117.018 51.52 116.822 51.112 116.822 50.56C116.822 50.12 116.946 49.768 117.194 49.504C117.442 49.232 117.766 49.028 118.166 48.892C118.566 48.748 119.066 48.62 119.666 48.508L120.962 48.28V47.896C120.962 47.488 120.822 47.172 120.542 46.948C120.262 46.716 119.894 46.6 119.438 46.6C119.094 46.6 118.782 46.664 118.502 46.792C118.222 46.92 117.922 47.14 117.602 47.452C117.546 47.508 117.486 47.536 117.422 47.536C117.366 47.536 117.314 47.512 117.266 47.464L117.11 47.32C117.054 47.264 117.026 47.204 117.026 47.14C117.026 47.068 117.054 47.004 117.11 46.948C117.446 46.596 117.798 46.34 118.166 46.18C118.542 46.02 118.954 45.94 119.402 45.94ZM118.97 51.52C119.546 51.52 120.022 51.368 120.398 51.064C120.774 50.76 120.962 50.372 120.962 49.9V48.892L119.846 49.108C119.326 49.212 118.914 49.312 118.61 49.408C118.306 49.504 118.062 49.644 117.878 49.828C117.694 50.012 117.602 50.252 117.602 50.548C117.602 50.852 117.722 51.092 117.962 51.268C118.21 51.436 118.546 51.52 118.97 51.52ZM126.306 45.952C126.81 45.952 127.258 46.084 127.65 46.348C128.05 46.604 128.358 46.968 128.574 47.44C128.798 47.904 128.91 48.44 128.91 49.048C128.91 49.656 128.798 50.196 128.574 50.668C128.35 51.132 128.038 51.496 127.638 51.76C127.246 52.016 126.802 52.144 126.306 52.144C125.354 52.144 124.658 51.776 124.218 51.04V51.76C124.218 51.92 124.138 52 123.978 52H123.714C123.554 52 123.474 51.92 123.474 51.76V43.708C123.474 43.548 123.554 43.468 123.714 43.468H124.026C124.186 43.468 124.266 43.548 124.266 43.708V47.02C124.706 46.308 125.386 45.952 126.306 45.952ZM126.246 51.472C126.798 51.472 127.242 51.248 127.578 50.8C127.922 50.352 128.094 49.768 128.094 49.048C128.094 48.328 127.922 47.744 127.578 47.296C127.242 46.848 126.798 46.624 126.246 46.624C125.654 46.624 125.17 46.84 124.794 47.272C124.418 47.704 124.23 48.296 124.23 49.048C124.23 49.808 124.414 50.404 124.782 50.836C125.158 51.26 125.646 51.472 126.246 51.472ZM130.57 52C130.41 52 130.33 51.92 130.33 51.76V43.72C130.33 43.56 130.41 43.48 130.57 43.48H130.882C131.042 43.48 131.122 43.56 131.122 43.72V51.76C131.122 51.92 131.042 52 130.882 52H130.57ZM137.216 50.596C137.272 50.54 137.332 50.512 137.396 50.512C137.452 50.512 137.504 50.536 137.552 50.584L137.708 50.728C137.764 50.784 137.792 50.844 137.792 50.908C137.792 50.956 137.768 51.012 137.72 51.076C137.328 51.468 136.948 51.748 136.58 51.916C136.212 52.076 135.8 52.156 135.344 52.156C134.768 52.156 134.268 52.028 133.844 51.772C133.42 51.516 133.092 51.16 132.86 50.704C132.628 50.24 132.512 49.704 132.512 49.096C132.512 48.48 132.624 47.936 132.848 47.464C133.08 46.984 133.404 46.612 133.82 46.348C134.236 46.076 134.716 45.94 135.26 45.94C136.068 45.94 136.704 46.192 137.168 46.696C137.632 47.2 137.864 47.88 137.864 48.736V48.88C137.856 48.952 137.828 49.008 137.78 49.048C137.74 49.088 137.684 49.108 137.612 49.108H133.316C133.34 49.78 133.516 50.348 133.844 50.812C134.18 51.268 134.68 51.496 135.344 51.496C135.704 51.496 136.02 51.432 136.292 51.304C136.572 51.168 136.88 50.932 137.216 50.596ZM135.26 46.6C134.732 46.6 134.296 46.764 133.952 47.092C133.616 47.412 133.412 47.884 133.34 48.508H137.072C137.056 47.924 136.888 47.46 136.568 47.116C136.248 46.772 135.812 46.6 135.26 46.6ZM143.566 43.72C143.566 43.56 143.646 43.48 143.806 43.48H144.118C144.278 43.48 144.358 43.56 144.358 43.72V51.76C144.358 51.92 144.278 52 144.118 52H143.866C143.706 52 143.626 51.92 143.626 51.76V50.98C143.41 51.356 143.126 51.644 142.774 51.844C142.422 52.044 142.006 52.144 141.526 52.144C141.022 52.144 140.574 52.016 140.182 51.76C139.79 51.496 139.482 51.132 139.258 50.668C139.034 50.196 138.922 49.656 138.922 49.048C138.922 48.44 139.034 47.904 139.258 47.44C139.49 46.968 139.806 46.604 140.206 46.348C140.606 46.084 141.054 45.952 141.55 45.952C142.462 45.952 143.134 46.292 143.566 46.972V43.72ZM141.586 51.472C142.186 51.472 142.67 51.26 143.038 50.836C143.414 50.404 143.602 49.808 143.602 49.048C143.602 48.296 143.414 47.704 143.038 47.272C142.67 46.84 142.186 46.624 141.586 46.624C141.034 46.624 140.586 46.848 140.242 47.296C139.906 47.744 139.738 48.328 139.738 49.048C139.738 49.776 139.906 50.364 140.242 50.812C140.578 51.252 141.026 51.472 141.586 51.472Z" fill="#767676"/>
<path d="M39.728 145.672C39.776 145.544 39.868 145.48 40.004 145.48H40.94C41.1 145.48 41.18 145.56 41.18 145.72V153.76C41.18 153.92 41.1 154 40.94 154H40.592C40.432 154 40.352 153.92 40.352 153.76V149.776C40.352 148.92 40.36 147.684 40.376 146.068C40.048 147.004 39.6 148.24 39.032 149.776L37.556 153.808C37.508 153.936 37.416 154 37.28 154H36.932C36.796 154 36.704 153.936 36.656 153.808L35.144 149.764C34.824 148.932 34.38 147.7 33.812 146.068C33.828 147.684 33.836 148.924 33.836 149.788V153.76C33.836 153.92 33.756 154 33.596 154H33.272C33.112 154 33.032 153.92 33.032 153.76V145.72C33.032 145.56 33.112 145.48 33.272 145.48H34.196C34.332 145.48 34.424 145.544 34.472 145.672L35.84 149.356C36.472 151.076 36.896 152.288 37.112 152.992C37.312 152.32 37.656 151.316 38.144 149.98C38.176 149.892 38.212 149.796 38.252 149.692C38.292 149.588 38.332 149.476 38.372 149.356L39.728 145.672ZM46.935 148.324C46.935 148.164 47.015 148.084 47.175 148.084H47.487C47.647 148.084 47.727 148.164 47.727 148.324V153.76C47.727 153.92 47.647 154 47.487 154H47.235C47.075 154 46.995 153.92 46.995 153.76V153.22C46.819 153.532 46.567 153.768 46.239 153.928C45.919 154.08 45.567 154.156 45.183 154.156C44.463 154.156 43.931 153.976 43.587 153.616C43.243 153.248 43.071 152.776 43.071 152.2V148.324C43.071 148.164 43.151 148.084 43.311 148.084H43.623C43.783 148.084 43.863 148.164 43.863 148.324V152.032C43.863 152.504 43.979 152.864 44.211 153.112C44.451 153.352 44.791 153.472 45.231 153.472C45.727 153.472 46.135 153.32 46.455 153.016C46.775 152.712 46.935 152.28 46.935 151.72V148.324ZM49.7572 154C49.5972 154 49.5172 153.92 49.5172 153.76V145.72C49.5172 145.56 49.5972 145.48 49.7572 145.48H50.0692C50.2292 145.48 50.3092 145.56 50.3092 145.72V153.76C50.3092 153.92 50.2292 154 50.0692 154H49.7572ZM54.759 153.34C54.783 153.332 54.815 153.328 54.855 153.328C54.903 153.328 54.947 153.344 54.987 153.376C55.027 153.408 55.051 153.452 55.059 153.508L55.095 153.676C55.103 153.692 55.107 153.72 55.107 153.76C55.107 153.872 55.047 153.94 54.927 153.964C54.639 154.052 54.331 154.096 54.003 154.096C53.483 154.096 53.111 153.98 52.887 153.748C52.671 153.508 52.563 153.164 52.563 152.716V148.684H51.675C51.515 148.684 51.435 148.604 51.435 148.444V148.324C51.435 148.164 51.515 148.084 51.675 148.084H52.563V146.26C52.563 146.1 52.643 146.02 52.803 146.02H53.115C53.275 146.02 53.355 146.1 53.355 146.26V148.084H54.795C54.955 148.084 55.035 148.164 55.035 148.324V148.444C55.035 148.604 54.955 148.684 54.795 148.684H53.355V152.62C53.355 152.916 53.411 153.124 53.523 153.244C53.635 153.364 53.827 153.424 54.099 153.424C54.291 153.424 54.511 153.396 54.759 153.34ZM56.6395 146.584C56.4795 146.584 56.3435 146.528 56.2315 146.416C56.1275 146.304 56.0755 146.168 56.0755 146.008C56.0755 145.848 56.1275 145.716 56.2315 145.612C56.3435 145.508 56.4795 145.456 56.6395 145.456C56.8075 145.456 56.9435 145.508 57.0475 145.612C57.1595 145.716 57.2155 145.848 57.2155 146.008C57.2155 146.168 57.1595 146.304 57.0475 146.416C56.9435 146.528 56.8075 146.584 56.6395 146.584ZM56.4835 154C56.3235 154 56.2435 153.92 56.2435 153.76V148.324C56.2435 148.164 56.3235 148.084 56.4835 148.084H56.7955C56.9555 148.084 57.0355 148.164 57.0355 148.324V153.76C57.0355 153.92 56.9555 154 56.7955 154H56.4835ZM61.6302 147.952C62.1262 147.952 62.5702 148.084 62.9622 148.348C63.3622 148.604 63.6742 148.968 63.8982 149.44C64.1222 149.904 64.2342 150.436 64.2342 151.036C64.2342 151.644 64.1222 152.184 63.8982 152.656C63.6742 153.128 63.3662 153.496 62.9742 153.76C62.5822 154.016 62.1342 154.144 61.6302 154.144C60.7022 154.144 60.0222 153.804 59.5902 153.124V155.968C59.5902 156.128 59.5102 156.208 59.3502 156.208H59.0382C58.8782 156.208 58.7982 156.128 58.7982 155.968V148.324C58.7982 148.164 58.8782 148.084 59.0382 148.084H59.3022C59.4622 148.084 59.5422 148.164 59.5422 148.324V149.08C59.7582 148.712 60.0422 148.432 60.3942 148.24C60.7462 148.048 61.1582 147.952 61.6302 147.952ZM61.5702 153.472C62.1302 153.472 62.5782 153.248 62.9142 152.8C63.2502 152.352 63.4182 151.764 63.4182 151.036C63.4182 150.316 63.2502 149.736 62.9142 149.296C62.5782 148.848 62.1302 148.624 61.5702 148.624C60.9702 148.624 60.4822 148.84 60.1062 149.272C59.7382 149.696 59.5542 150.284 59.5542 151.036C59.5542 151.788 59.7422 152.384 60.1182 152.824C60.4942 153.256 60.9782 153.472 61.5702 153.472ZM65.8939 154C65.7339 154 65.6539 153.92 65.6539 153.76V145.72C65.6539 145.56 65.7339 145.48 65.8939 145.48H66.2059C66.3659 145.48 66.4459 145.56 66.4459 145.72V153.76C66.4459 153.92 66.3659 154 66.2059 154H65.8939ZM72.5398 152.596C72.5958 152.54 72.6558 152.512 72.7198 152.512C72.7758 152.512 72.8278 152.536 72.8758 152.584L73.0318 152.728C73.0878 152.784 73.1158 152.844 73.1158 152.908C73.1158 152.956 73.0918 153.012 73.0438 153.076C72.6518 153.468 72.2718 153.748 71.9038 153.916C71.5358 154.076 71.1238 154.156 70.6678 154.156C70.0918 154.156 69.5918 154.028 69.1678 153.772C68.7438 153.516 68.4158 153.16 68.1838 152.704C67.9518 152.24 67.8358 151.704 67.8358 151.096C67.8358 150.48 67.9478 149.936 68.1718 149.464C68.4038 148.984 68.7278 148.612 69.1438 148.348C69.5598 148.076 70.0398 147.94 70.5838 147.94C71.3918 147.94 72.0278 148.192 72.4918 148.696C72.9558 149.2 73.1878 149.88 73.1878 150.736V150.88C73.1798 150.952 73.1518 151.008 73.1038 151.048C73.0638 151.088 73.0078 151.108 72.9358 151.108H68.6398C68.6638 151.78 68.8398 152.348 69.1678 152.812C69.5038 153.268 70.0038 153.496 70.6678 153.496C71.0278 153.496 71.3438 153.432 71.6158 153.304C71.8958 153.168 72.2038 152.932 72.5398 152.596ZM70.5838 148.6C70.0558 148.6 69.6198 148.764 69.2758 149.092C68.9398 149.412 68.7358 149.884 68.6638 150.508H72.3958C72.3798 149.924 72.2118 149.46 71.8918 149.116C71.5718 148.772 71.1358 148.6 70.5838 148.6ZM79.4364 154.156C78.9484 154.156 78.5164 154.088 78.1404 153.952C77.7724 153.808 77.3844 153.568 76.9764 153.232C76.9044 153.184 76.8684 153.128 76.8684 153.064C76.8684 153.008 76.8964 152.952 76.9524 152.896L77.1084 152.728C77.1564 152.664 77.2164 152.632 77.2884 152.632C77.3444 152.632 77.3964 152.656 77.4444 152.704C77.8284 153 78.1684 153.208 78.4644 153.328C78.7604 153.44 79.0844 153.496 79.4364 153.496C79.8764 153.496 80.2364 153.4 80.5164 153.208C80.7964 153.008 80.9364 152.74 80.9364 152.404C80.9364 152.068 80.7924 151.82 80.5044 151.66C80.2164 151.5 79.7724 151.356 79.1724 151.228C78.6444 151.116 78.2284 151 77.9244 150.88C77.6284 150.752 77.4084 150.592 77.2644 150.4C77.1204 150.208 77.0484 149.956 77.0484 149.644C77.0484 149.132 77.2564 148.72 77.6724 148.408C78.0884 148.096 78.6124 147.94 79.2444 147.94C79.6764 147.94 80.0604 147.996 80.3964 148.108C80.7404 148.212 81.0844 148.388 81.4284 148.636C81.5004 148.692 81.5364 148.752 81.5364 148.816C81.5364 148.856 81.5164 148.908 81.4764 148.972L81.3324 149.152C81.2924 149.216 81.2364 149.248 81.1644 149.248C81.1004 149.248 81.0444 149.228 80.9964 149.188C80.6684 148.956 80.3764 148.8 80.1204 148.72C79.8724 148.64 79.5884 148.6 79.2684 148.6C78.8284 148.6 78.4764 148.696 78.2124 148.888C77.9484 149.08 77.8164 149.324 77.8164 149.62C77.8164 149.804 77.8764 149.952 77.9964 150.064C78.1164 150.176 78.2884 150.272 78.5124 150.352C78.7364 150.424 79.0644 150.508 79.4964 150.604C80.2964 150.78 80.8644 150.996 81.2004 151.252C81.5444 151.508 81.7164 151.88 81.7164 152.368C81.7164 152.904 81.5044 153.336 81.0804 153.664C80.6564 153.992 80.1084 154.156 79.4364 154.156ZM87.364 152.596C87.42 152.54 87.48 152.512 87.544 152.512C87.6 152.512 87.652 152.536 87.7 152.584L87.856 152.728C87.912 152.784 87.94 152.844 87.94 152.908C87.94 152.956 87.916 153.012 87.868 153.076C87.476 153.468 87.096 153.748 86.728 153.916C86.36 154.076 85.948 154.156 85.492 154.156C84.916 154.156 84.416 154.028 83.992 153.772C83.568 153.516 83.24 153.16 83.008 152.704C82.776 152.24 82.66 151.704 82.66 151.096C82.66 150.48 82.772 149.936 82.996 149.464C83.228 148.984 83.552 148.612 83.968 148.348C84.384 148.076 84.864 147.94 85.408 147.94C86.216 147.94 86.852 148.192 87.316 148.696C87.78 149.2 88.012 149.88 88.012 150.736V150.88C88.004 150.952 87.976 151.008 87.928 151.048C87.888 151.088 87.832 151.108 87.76 151.108H83.464C83.488 151.78 83.664 152.348 83.992 152.812C84.328 153.268 84.828 153.496 85.492 153.496C85.852 153.496 86.168 153.432 86.44 153.304C86.72 153.168 87.028 152.932 87.364 152.596ZM85.408 148.6C84.88 148.6 84.444 148.764 84.1 149.092C83.764 149.412 83.56 149.884 83.488 150.508H87.22C87.204 149.924 87.036 149.46 86.716 149.116C86.396 148.772 85.96 148.6 85.408 148.6ZM89.683 154C89.523 154 89.443 153.92 89.443 153.76V145.72C89.443 145.56 89.523 145.48 89.683 145.48H89.995C90.155 145.48 90.235 145.56 90.235 145.72V153.76C90.235 153.92 90.155 154 89.995 154H89.683ZM96.3288 152.596C96.3848 152.54 96.4448 152.512 96.5088 152.512C96.5648 152.512 96.6168 152.536 96.6648 152.584L96.8208 152.728C96.8768 152.784 96.9048 152.844 96.9048 152.908C96.9048 152.956 96.8808 153.012 96.8328 153.076C96.4408 153.468 96.0608 153.748 95.6928 153.916C95.3248 154.076 94.9128 154.156 94.4568 154.156C93.8808 154.156 93.3808 154.028 92.9568 153.772C92.5328 153.516 92.2048 153.16 91.9728 152.704C91.7408 152.24 91.6248 151.704 91.6248 151.096C91.6248 150.48 91.7368 149.936 91.9608 149.464C92.1928 148.984 92.5168 148.612 92.9328 148.348C93.3488 148.076 93.8288 147.94 94.3728 147.94C95.1808 147.94 95.8168 148.192 96.2808 148.696C96.7448 149.2 96.9768 149.88 96.9768 150.736V150.88C96.9688 150.952 96.9408 151.008 96.8928 151.048C96.8528 151.088 96.7968 151.108 96.7248 151.108H92.4288C92.4528 151.78 92.6288 152.348 92.9568 152.812C93.2928 153.268 93.7928 153.496 94.4568 153.496C94.8168 153.496 95.1328 153.432 95.4048 153.304C95.6848 153.168 95.9928 152.932 96.3288 152.596ZM94.3728 148.6C93.8448 148.6 93.4088 148.764 93.0648 149.092C92.7288 149.412 92.5248 149.884 92.4528 150.508H96.1848C96.1688 149.924 96.0008 149.46 95.6808 149.116C95.3608 148.772 94.9248 148.6 94.3728 148.6ZM100.808 154.156C100.24 154.156 99.7435 154.028 99.3195 153.772C98.9035 153.508 98.5795 153.144 98.3475 152.68C98.1235 152.208 98.0115 151.664 98.0115 151.048C98.0115 150.44 98.1235 149.9 98.3475 149.428C98.5795 148.956 98.9035 148.592 99.3195 148.336C99.7435 148.072 100.232 147.94 100.784 147.94C101.232 147.94 101.624 148.016 101.96 148.168C102.296 148.312 102.62 148.552 102.932 148.888C102.98 148.936 103.004 148.988 103.004 149.044C103.004 149.116 102.972 149.176 102.908 149.224L102.74 149.38C102.692 149.428 102.636 149.452 102.572 149.452C102.516 149.452 102.456 149.42 102.392 149.356C102.112 149.076 101.844 148.88 101.588 148.768C101.34 148.656 101.064 148.6 100.76 148.6C100.344 148.6 99.9875 148.716 99.6915 148.948C99.4035 149.18 99.1875 149.484 99.0435 149.86C98.8995 150.228 98.8275 150.624 98.8275 151.048C98.8275 151.472 98.8995 151.872 99.0435 152.248C99.1875 152.616 99.4075 152.916 99.7035 153.148C99.9995 153.372 100.364 153.484 100.796 153.484C101.116 153.484 101.396 153.428 101.636 153.316C101.884 153.196 102.16 152.972 102.464 152.644C102.528 152.58 102.588 152.548 102.644 152.548C102.708 152.548 102.764 152.572 102.812 152.62L102.98 152.752C103.036 152.8 103.064 152.856 103.064 152.92C103.064 152.984 103.028 153.06 102.956 153.148C102.62 153.516 102.284 153.776 101.948 153.928C101.612 154.08 101.232 154.156 100.808 154.156ZM107.048 153.34C107.072 153.332 107.104 153.328 107.144 153.328C107.192 153.328 107.236 153.344 107.276 153.376C107.316 153.408 107.34 153.452 107.348 153.508L107.384 153.676C107.392 153.692 107.396 153.72 107.396 153.76C107.396 153.872 107.336 153.94 107.216 153.964C106.928 154.052 106.62 154.096 106.292 154.096C105.772 154.096 105.4 153.98 105.176 153.748C104.96 153.508 104.852 153.164 104.852 152.716V148.684H103.964C103.804 148.684 103.724 148.604 103.724 148.444V148.324C103.724 148.164 103.804 148.084 103.964 148.084H104.852V146.26C104.852 146.1 104.932 146.02 105.092 146.02H105.404C105.564 146.02 105.644 146.1 105.644 146.26V148.084H107.084C107.244 148.084 107.324 148.164 107.324 148.324V148.444C107.324 148.604 107.244 148.684 107.084 148.684H105.644V152.62C105.644 152.916 105.7 153.124 105.812 153.244C105.924 153.364 106.116 153.424 106.388 153.424C106.58 153.424 106.8 153.396 107.048 153.34ZM108.929 146.584C108.769 146.584 108.633 146.528 108.521 146.416C108.417 146.304 108.365 146.168 108.365 146.008C108.365 145.848 108.417 145.716 108.521 145.612C108.633 145.508 108.769 145.456 108.929 145.456C109.097 145.456 109.233 145.508 109.337 145.612C109.449 145.716 109.505 145.848 109.505 146.008C109.505 146.168 109.449 146.304 109.337 146.416C109.233 146.528 109.097 146.584 108.929 146.584ZM108.773 154C108.613 154 108.533 153.92 108.533 153.76V148.324C108.533 148.164 108.613 148.084 108.773 148.084H109.085C109.245 148.084 109.325 148.164 109.325 148.324V153.76C109.325 153.92 109.245 154 109.085 154H108.773ZM113.535 154.156C112.983 154.156 112.491 154.024 112.059 153.76C111.627 153.496 111.291 153.132 111.051 152.668C110.811 152.196 110.691 151.656 110.691 151.048C110.691 150.44 110.811 149.904 111.051 149.44C111.291 148.968 111.627 148.6 112.059 148.336C112.491 148.072 112.983 147.94 113.535 147.94C114.087 147.94 114.579 148.072 115.011 148.336C115.443 148.6 115.779 148.968 116.019 149.44C116.259 149.904 116.379 150.44 116.379 151.048C116.379 151.656 116.259 152.196 116.019 152.668C115.779 153.132 115.443 153.496 115.011 153.76C114.579 154.024 114.087 154.156 113.535 154.156ZM113.535 153.496C114.151 153.496 114.643 153.272 115.011 152.824C115.379 152.368 115.563 151.776 115.563 151.048C115.563 150.32 115.379 149.732 115.011 149.284C114.643 148.828 114.151 148.6 113.535 148.6C112.919 148.6 112.427 148.828 112.059 149.284C111.691 149.732 111.507 150.32 111.507 151.048C111.507 151.776 111.691 152.368 112.059 152.824C112.427 153.272 112.919 153.496 113.535 153.496ZM120.395 147.94C121.091 147.94 121.615 148.132 121.967 148.516C122.327 148.9 122.507 149.38 122.507 149.956V153.76C122.507 153.92 122.427 154 122.267 154H121.955C121.795 154 121.715 153.92 121.715 153.76V150.22C121.715 149.692 121.587 149.292 121.331 149.02C121.075 148.748 120.707 148.612 120.227 148.612C119.923 148.612 119.643 148.688 119.387 148.84C119.131 148.984 118.927 149.184 118.775 149.44C118.623 149.696 118.547 149.976 118.547 150.28V153.76C118.547 153.92 118.467 154 118.307 154H117.995C117.835 154 117.755 153.92 117.755 153.76V148.324C117.755 148.164 117.835 148.084 117.995 148.084H118.259C118.419 148.084 118.499 148.164 118.499 148.324V148.9C118.699 148.58 118.963 148.34 119.291 148.18C119.619 148.02 119.987 147.94 120.395 147.94Z" fill="#767676"/>
<defs>
<filter id="filter0_i_665_10537" x="32" y="72" width="97" height="32" filterUnits="userSpaceOnUse" color-interpolation-filters="sRGB">
<feFlood flood-opacity="0" result="BackgroundImageFix"/>
<feBlend mode="normal" in="SourceGraphic" in2="BackgroundImageFix" result="shape"/>
<feColorMatrix in="SourceAlpha" type="matrix" values="0 0 0 0 0 0 0 0 0 0 0 0 0 0 0 0 0 0 127 0" result="hardAlpha"/>
<feOffset dx="-1"/>
<feComposite in2="hardAlpha" operator="arithmetic" k2="-1" k3="1"/>
<feColorMatrix type="matrix" values="0 0 0 0 0.764706 0 0 0 0 0.8 0 0 0 0 0.85098 0 0 0 1 0"/>
<feBlend mode="normal" in2="shape" result="effect1_innerShadow_665_10537"/>
</filter>
<filter id="filter1_i_665_10537" x="32" y="174" width="97" height="32" filterUnits="userSpaceOnUse" color-interpolation-filters="sRGB">
<feFlood flood-opacity="0" result="BackgroundImageFix"/>
<feBlend mode="normal" in="SourceGraphic" in2="BackgroundImageFix" result="shape"/>
<feColorMatrix in="SourceAlpha" type="matrix" values="0 0 0 0 0 0 0 0 0 0 0 0 0 0 0 0 0 0 127 0" result="hardAlpha"/>
<feOffset dx="-1"/>
<feComposite in2="hardAlpha" operator="arithmetic" k2="-1" k3="1"/>
<feColorMatrix type="matrix" values="0 0 0 0 0.764706 0 0 0 0 0.8 0 0 0 0 0.85098 0 0 0 1 0"/>
<feBlend mode="normal" in2="shape" result="effect1_innerShadow_665_10537"/>
</filter>
<filter id="filter2_i_665_10537" x="153" y="174" width="62" height="32" filterUnits="userSpaceOnUse" color-interpolation-filters="sRGB">
<feFlood flood-opacity="0" result="BackgroundImageFix"/>
<feBlend mode="normal" in="SourceGraphic" in2="BackgroundImageFix" result="shape"/>
<feColorMatrix in="SourceAlpha" type="matrix" values="0 0 0 0 0 0 0 0 0 0 0 0 0 0 0 0 0 0 127 0" result="hardAlpha"/>
<feOffset dx="-1"/>
<feComposite in2="hardAlpha" operator="arithmetic" k2="-1" k3="1"/>
<feColorMatrix type="matrix" values="0 0 0 0 0.764706 0 0 0 0 0.8 0 0 0 0 0.85098 0 0 0 1 0"/>
<feBlend mode="normal" in2="shape" result="effect1_innerShadow_665_10537"/>
</filter>
</defs>
</svg>
