<svg width="344" height="320" viewBox="0 0 344 320" fill="none" xmlns="http://www.w3.org/2000/svg">
<rect x="109" y="137" width="126" height="46" rx="7" fill="#0063FB"/>
<path fill-rule="evenodd" clip-rule="evenodd" d="M132.75 153C132.75 152.586 132.414 152.25 132 152.25C131.586 152.25 131.25 152.586 131.25 153V162.44L129.969 161.414C129.645 161.156 129.173 161.208 128.914 161.531C128.656 161.855 128.708 162.327 129.031 162.586L131.531 164.586C131.805 164.805 132.195 164.805 132.469 164.586L134.969 162.586C135.292 162.327 135.344 161.855 135.086 161.531C134.827 161.208 134.355 161.156 134.031 161.414L132.75 162.44V153ZM125 166.25C124.586 166.25 124.25 166.586 124.25 167C124.25 167.414 124.586 167.75 125 167.75H139C139.414 167.75 139.75 167.414 139.75 167C139.75 166.586 139.414 166.25 139 166.25H125Z" fill="white"/>
<path d="M149.792 165C149.621 165 149.483 164.952 149.376 164.856C149.28 164.749 149.232 164.611 149.232 164.44V154.2C149.232 154.019 149.28 153.88 149.376 153.784C149.483 153.688 149.621 153.64 149.792 153.64H153.648C154.715 153.64 155.627 153.88 156.384 154.36C157.152 154.84 157.733 155.512 158.128 156.376C158.533 157.229 158.736 158.211 158.736 159.32C158.736 160.429 158.533 161.416 158.128 162.28C157.733 163.133 157.152 163.8 156.384 164.28C155.627 164.76 154.715 165 153.648 165H149.792ZM153.376 163.464C154.464 163.464 155.317 163.107 155.936 162.392C156.565 161.667 156.88 160.643 156.88 159.32C156.88 157.997 156.565 156.979 155.936 156.264C155.317 155.539 154.464 155.176 153.376 155.176H151.056V163.464H153.376ZM164.091 165.24C163.312 165.24 162.619 165.064 162.011 164.712C161.413 164.36 160.944 163.869 160.603 163.24C160.261 162.6 160.09 161.869 160.09 161.048C160.09 160.227 160.261 159.501 160.603 158.872C160.944 158.243 161.413 157.752 162.011 157.4C162.619 157.048 163.312 156.872 164.091 156.872C164.859 156.872 165.547 157.048 166.155 157.4C166.763 157.752 167.237 158.248 167.579 158.888C167.92 159.517 168.091 160.237 168.091 161.048C168.091 161.869 167.92 162.6 167.579 163.24C167.237 163.869 166.763 164.36 166.155 164.712C165.547 165.064 164.859 165.24 164.091 165.24ZM164.091 163.816C164.773 163.816 165.323 163.565 165.739 163.064C166.155 162.552 166.363 161.88 166.363 161.048C166.363 160.227 166.155 159.565 165.739 159.064C165.323 158.563 164.773 158.312 164.091 158.312C163.408 158.312 162.859 158.563 162.443 159.064C162.027 159.565 161.819 160.227 161.819 161.048C161.819 161.88 162.027 162.552 162.443 163.064C162.859 163.565 163.408 163.816 164.091 163.816ZM178.356 157.592C178.431 157.272 178.639 157.112 178.98 157.112H179.572C179.732 157.112 179.855 157.149 179.94 157.224C180.036 157.288 180.084 157.389 180.084 157.528C180.084 157.56 180.073 157.629 180.052 157.736L178.148 164.52C178.073 164.84 177.865 165 177.524 165H176.484C176.164 165 175.956 164.84 175.86 164.52L175.332 162.664C175.097 161.843 174.836 160.813 174.548 159.576L174.468 159.224C174.18 160.525 173.903 161.677 173.636 162.68L173.14 164.52C173.065 164.84 172.857 165 172.516 165H171.492C171.172 165 170.964 164.84 170.868 164.52L168.948 157.736C168.927 157.629 168.916 157.56 168.916 157.528C168.916 157.389 168.959 157.288 169.044 157.224C169.14 157.149 169.268 157.112 169.428 157.112H170.052C170.393 157.112 170.601 157.272 170.676 157.592L171.252 159.864C171.476 160.696 171.737 161.805 172.036 163.192L172.1 163.512C172.409 162.083 172.697 160.867 172.964 159.864L173.572 157.592C173.647 157.272 173.855 157.112 174.196 157.112H174.804C175.145 157.112 175.353 157.272 175.428 157.592L176.052 159.864C176.351 160.973 176.649 162.189 176.948 163.512C177.172 162.371 177.449 161.155 177.78 159.864L178.356 157.592ZM185.508 156.872C186.414 156.872 187.108 157.128 187.588 157.64C188.078 158.141 188.324 158.792 188.324 159.592V164.44C188.324 164.611 188.276 164.749 188.18 164.856C188.084 164.952 187.945 165 187.764 165H187.188C187.017 165 186.878 164.952 186.772 164.856C186.676 164.749 186.628 164.611 186.628 164.44V160.12C186.628 159.544 186.484 159.101 186.196 158.792C185.918 158.483 185.518 158.328 184.996 158.328C184.484 158.328 184.052 158.504 183.7 158.856C183.358 159.208 183.188 159.651 183.188 160.184V164.44C183.188 164.611 183.14 164.749 183.044 164.856C182.948 164.952 182.809 165 182.628 165H182.052C181.881 165 181.742 164.952 181.636 164.856C181.54 164.749 181.492 164.611 181.492 164.44V157.672C181.492 157.491 181.54 157.352 181.636 157.256C181.742 157.16 181.881 157.112 182.052 157.112H182.516C182.697 157.112 182.836 157.16 182.932 157.256C183.028 157.352 183.076 157.491 183.076 157.672V158.088C183.332 157.693 183.668 157.395 184.084 157.192C184.5 156.979 184.974 156.872 185.508 156.872ZM190.897 165C190.726 165 190.588 164.952 190.481 164.856C190.385 164.749 190.337 164.611 190.337 164.44V154.2C190.337 154.019 190.385 153.88 190.481 153.784C190.588 153.688 190.726 153.64 190.897 153.64H191.473C191.654 153.64 191.793 153.688 191.889 153.784C191.985 153.88 192.033 154.019 192.033 154.2V164.44C192.033 164.611 191.985 164.749 191.889 164.856C191.793 164.952 191.654 165 191.473 165H190.897ZM197.606 165.24C196.827 165.24 196.134 165.064 195.526 164.712C194.929 164.36 194.459 163.869 194.118 163.24C193.777 162.6 193.606 161.869 193.606 161.048C193.606 160.227 193.777 159.501 194.118 158.872C194.459 158.243 194.929 157.752 195.526 157.4C196.134 157.048 196.827 156.872 197.606 156.872C198.374 156.872 199.062 157.048 199.67 157.4C200.278 157.752 200.753 158.248 201.094 158.888C201.435 159.517 201.606 160.237 201.606 161.048C201.606 161.869 201.435 162.6 201.094 163.24C200.753 163.869 200.278 164.36 199.67 164.712C199.062 165.064 198.374 165.24 197.606 165.24ZM197.606 163.816C198.289 163.816 198.838 163.565 199.254 163.064C199.67 162.552 199.878 161.88 199.878 161.048C199.878 160.227 199.67 159.565 199.254 159.064C198.838 158.563 198.289 158.312 197.606 158.312C196.923 158.312 196.374 158.563 195.958 159.064C195.542 159.565 195.334 160.227 195.334 161.048C195.334 161.88 195.542 162.552 195.958 163.064C196.374 163.565 196.923 163.816 197.606 163.816ZM206.429 156.872C207.496 156.872 208.317 157.123 208.893 157.624C209.469 158.115 209.757 158.771 209.757 159.592V164.44C209.757 164.611 209.709 164.749 209.613 164.856C209.517 164.952 209.378 165 209.197 165H208.781C208.61 165 208.472 164.952 208.365 164.856C208.269 164.749 208.221 164.611 208.221 164.44V164.088C207.965 164.461 207.613 164.749 207.165 164.952C206.717 165.155 206.194 165.256 205.597 165.256C204.776 165.256 204.098 165.075 203.565 164.712C203.042 164.339 202.781 163.779 202.781 163.032C202.781 162.2 203.09 161.587 203.709 161.192C204.338 160.787 205.208 160.483 206.317 160.28L208.125 159.944V159.656C208.125 159.219 207.97 158.883 207.661 158.648C207.362 158.403 206.962 158.28 206.461 158.28C206.034 158.28 205.661 158.355 205.341 158.504C205.032 158.643 204.696 158.877 204.333 159.208C204.194 159.325 204.061 159.384 203.933 159.384C203.805 159.384 203.672 159.325 203.533 159.208L203.277 158.984C203.138 158.856 203.069 158.717 203.069 158.568C203.069 158.429 203.133 158.296 203.261 158.168C203.72 157.731 204.205 157.405 204.717 157.192C205.229 156.979 205.8 156.872 206.429 156.872ZM205.837 163.896C206.477 163.896 207.016 163.725 207.453 163.384C207.901 163.043 208.125 162.552 208.125 161.912V161.176L206.733 161.464C205.954 161.624 205.378 161.805 205.005 162.008C204.632 162.211 204.445 162.52 204.445 162.936C204.445 163.235 204.568 163.469 204.813 163.64C205.058 163.811 205.4 163.896 205.837 163.896ZM217.247 154.184C217.247 154.003 217.295 153.864 217.391 153.768C217.497 153.672 217.636 153.624 217.807 153.624H218.383C218.564 153.624 218.703 153.672 218.799 153.768C218.895 153.864 218.943 154.003 218.943 154.184V164.44C218.943 164.611 218.895 164.749 218.799 164.856C218.703 164.952 218.564 165 218.383 165H217.919C217.748 165 217.609 164.952 217.503 164.856C217.407 164.749 217.359 164.611 217.359 164.44V163.88C216.804 164.776 215.935 165.224 214.751 165.224C214.089 165.224 213.492 165.053 212.959 164.712C212.436 164.371 212.025 163.885 211.727 163.256C211.428 162.627 211.279 161.896 211.279 161.064C211.279 160.243 211.428 159.517 211.727 158.888C212.036 158.259 212.457 157.773 212.991 157.432C213.524 157.091 214.121 156.92 214.783 156.92C215.871 156.92 216.692 157.299 217.247 158.056V154.184ZM215.103 163.768C215.753 163.768 216.287 163.528 216.703 163.048C217.119 162.557 217.327 161.896 217.327 161.064C217.327 160.232 217.119 159.576 216.703 159.096C216.287 158.616 215.753 158.376 215.103 158.376C214.473 158.376 213.967 158.621 213.583 159.112C213.199 159.603 213.007 160.253 213.007 161.064C213.007 161.885 213.193 162.541 213.567 163.032C213.951 163.523 214.463 163.768 215.103 163.768Z" fill="white"/>
<rect x="109" y="137" width="126" height="46" rx="7" stroke="#0063FB" stroke-width="2"/>
<path d="M121.817 89C121.657 89 121.577 88.92 121.577 88.76V80.72C121.577 80.56 121.657 80.48 121.817 80.48H122.189C122.349 80.48 122.429 80.56 122.429 80.72V88.76C122.429 88.92 122.349 89 122.189 89H121.817ZM126.831 89.156C126.263 89.156 125.767 89.028 125.343 88.772C124.927 88.508 124.603 88.144 124.371 87.68C124.147 87.208 124.035 86.664 124.035 86.048C124.035 85.44 124.147 84.9 124.371 84.428C124.603 83.956 124.927 83.592 125.343 83.336C125.767 83.072 126.255 82.94 126.807 82.94C127.255 82.94 127.647 83.016 127.983 83.168C128.319 83.312 128.643 83.552 128.955 83.888C129.003 83.936 129.027 83.988 129.027 84.044C129.027 84.116 128.995 84.176 128.931 84.224L128.763 84.38C128.715 84.428 128.659 84.452 128.595 84.452C128.539 84.452 128.479 84.42 128.415 84.356C128.135 84.076 127.867 83.88 127.611 83.768C127.363 83.656 127.087 83.6 126.783 83.6C126.367 83.6 126.011 83.716 125.715 83.948C125.427 84.18 125.211 84.484 125.067 84.86C124.923 85.228 124.851 85.624 124.851 86.048C124.851 86.472 124.923 86.872 125.067 87.248C125.211 87.616 125.431 87.916 125.727 88.148C126.023 88.372 126.387 88.484 126.819 88.484C127.139 88.484 127.419 88.428 127.659 88.316C127.907 88.196 128.183 87.972 128.487 87.644C128.551 87.58 128.611 87.548 128.667 87.548C128.731 87.548 128.787 87.572 128.835 87.62L129.003 87.752C129.059 87.8 129.087 87.856 129.087 87.92C129.087 87.984 129.051 88.06 128.979 88.148C128.643 88.516 128.307 88.776 127.971 88.928C127.635 89.08 127.255 89.156 126.831 89.156ZM132.703 89.156C132.151 89.156 131.659 89.024 131.227 88.76C130.795 88.496 130.459 88.132 130.219 87.668C129.979 87.196 129.859 86.656 129.859 86.048C129.859 85.44 129.979 84.904 130.219 84.44C130.459 83.968 130.795 83.6 131.227 83.336C131.659 83.072 132.151 82.94 132.703 82.94C133.255 82.94 133.747 83.072 134.179 83.336C134.611 83.6 134.947 83.968 135.187 84.44C135.427 84.904 135.547 85.44 135.547 86.048C135.547 86.656 135.427 87.196 135.187 87.668C134.947 88.132 134.611 88.496 134.179 88.76C133.747 89.024 133.255 89.156 132.703 89.156ZM132.703 88.496C133.319 88.496 133.811 88.272 134.179 87.824C134.547 87.368 134.731 86.776 134.731 86.048C134.731 85.32 134.547 84.732 134.179 84.284C133.811 83.828 133.319 83.6 132.703 83.6C132.087 83.6 131.595 83.828 131.227 84.284C130.859 84.732 130.675 85.32 130.675 86.048C130.675 86.776 130.859 87.368 131.227 87.824C131.595 88.272 132.087 88.496 132.703 88.496ZM139.563 82.94C140.259 82.94 140.783 83.132 141.135 83.516C141.495 83.9 141.675 84.38 141.675 84.956V88.76C141.675 88.92 141.595 89 141.435 89H141.123C140.963 89 140.883 88.92 140.883 88.76V85.22C140.883 84.692 140.755 84.292 140.499 84.02C140.243 83.748 139.875 83.612 139.395 83.612C139.091 83.612 138.811 83.688 138.555 83.84C138.299 83.984 138.095 84.184 137.943 84.44C137.791 84.696 137.715 84.976 137.715 85.28V88.76C137.715 88.92 137.635 89 137.475 89H137.163C137.003 89 136.923 88.92 136.923 88.76V83.324C136.923 83.164 137.003 83.084 137.163 83.084H137.427C137.587 83.084 137.667 83.164 137.667 83.324V83.9C137.867 83.58 138.131 83.34 138.459 83.18C138.787 83.02 139.155 82.94 139.563 82.94Z" fill="#464646"/>
<path d="M175.463 236C175.303 236 175.223 235.92 175.223 235.76V227.72C175.223 227.56 175.303 227.48 175.463 227.48H175.835C175.995 227.48 176.075 227.56 176.075 227.72V235.292H179.903C180.063 235.292 180.143 235.372 180.143 235.532V235.76C180.143 235.92 180.063 236 179.903 236H175.463ZM183.746 229.94C184.474 229.94 185.042 230.116 185.45 230.468C185.858 230.812 186.062 231.268 186.062 231.836V235.76C186.062 235.92 185.982 236 185.822 236H185.582C185.422 236 185.342 235.92 185.342 235.76V235.22C185.142 235.54 184.858 235.78 184.49 235.94C184.13 236.1 183.726 236.18 183.278 236.18C182.654 236.18 182.146 236.048 181.754 235.784C181.362 235.52 181.166 235.112 181.166 234.56C181.166 234.12 181.29 233.768 181.538 233.504C181.786 233.232 182.11 233.028 182.51 232.892C182.91 232.748 183.41 232.62 184.01 232.508L185.306 232.28V231.896C185.306 231.488 185.166 231.172 184.886 230.948C184.606 230.716 184.238 230.6 183.782 230.6C183.438 230.6 183.126 230.664 182.846 230.792C182.566 230.92 182.266 231.14 181.946 231.452C181.89 231.508 181.83 231.536 181.766 231.536C181.71 231.536 181.658 231.512 181.61 231.464L181.454 231.32C181.398 231.264 181.37 231.204 181.37 231.14C181.37 231.068 181.398 231.004 181.454 230.948C181.79 230.596 182.142 230.34 182.51 230.18C182.886 230.02 183.298 229.94 183.746 229.94ZM183.314 235.52C183.89 235.52 184.366 235.368 184.742 235.064C185.118 234.76 185.306 234.372 185.306 233.9V232.892L184.19 233.108C183.67 233.212 183.258 233.312 182.954 233.408C182.65 233.504 182.406 233.644 182.222 233.828C182.038 234.012 181.946 234.252 181.946 234.548C181.946 234.852 182.066 235.092 182.306 235.268C182.554 235.436 182.89 235.52 183.314 235.52ZM190.65 229.952C191.154 229.952 191.602 230.084 191.994 230.348C192.394 230.604 192.702 230.968 192.918 231.44C193.142 231.904 193.254 232.44 193.254 233.048C193.254 233.656 193.142 234.196 192.918 234.668C192.694 235.132 192.382 235.496 191.982 235.76C191.59 236.016 191.146 236.144 190.65 236.144C189.698 236.144 189.002 235.776 188.562 235.04V235.76C188.562 235.92 188.482 236 188.322 236H188.058C187.898 236 187.818 235.92 187.818 235.76V227.708C187.818 227.548 187.898 227.468 188.058 227.468H188.37C188.53 227.468 188.61 227.548 188.61 227.708V231.02C189.05 230.308 189.73 229.952 190.65 229.952ZM190.59 235.472C191.142 235.472 191.586 235.248 191.922 234.8C192.266 234.352 192.438 233.768 192.438 233.048C192.438 232.328 192.266 231.744 191.922 231.296C191.586 230.848 191.142 230.624 190.59 230.624C189.998 230.624 189.514 230.84 189.138 231.272C188.762 231.704 188.574 232.296 188.574 233.048C188.574 233.808 188.758 234.404 189.126 234.836C189.502 235.26 189.99 235.472 190.59 235.472ZM199.04 234.596C199.096 234.54 199.156 234.512 199.22 234.512C199.276 234.512 199.328 234.536 199.376 234.584L199.532 234.728C199.588 234.784 199.616 234.844 199.616 234.908C199.616 234.956 199.592 235.012 199.544 235.076C199.152 235.468 198.772 235.748 198.404 235.916C198.036 236.076 197.624 236.156 197.168 236.156C196.592 236.156 196.092 236.028 195.668 235.772C195.244 235.516 194.916 235.16 194.684 234.704C194.452 234.24 194.336 233.704 194.336 233.096C194.336 232.48 194.448 231.936 194.672 231.464C194.904 230.984 195.228 230.612 195.644 230.348C196.06 230.076 196.54 229.94 197.084 229.94C197.892 229.94 198.528 230.192 198.992 230.696C199.456 231.2 199.688 231.88 199.688 232.736V232.88C199.68 232.952 199.652 233.008 199.604 233.048C199.564 233.088 199.508 233.108 199.436 233.108H195.14C195.164 233.78 195.34 234.348 195.668 234.812C196.004 235.268 196.504 235.496 197.168 235.496C197.528 235.496 197.844 235.432 198.116 235.304C198.396 235.168 198.704 234.932 199.04 234.596ZM197.084 230.6C196.556 230.6 196.12 230.764 195.776 231.092C195.44 231.412 195.236 231.884 195.164 232.508H198.896C198.88 231.924 198.712 231.46 198.392 231.116C198.072 230.772 197.636 230.6 197.084 230.6ZM201.359 236C201.199 236 201.119 235.92 201.119 235.76V227.72C201.119 227.56 201.199 227.48 201.359 227.48H201.671C201.831 227.48 201.911 227.56 201.911 227.72V235.76C201.911 235.92 201.831 236 201.671 236H201.359Z" fill="#464646"/>
<path d="M131 139C131 139.552 131.448 140 132 140C132.552 140 133 139.552 133 139L131 139ZM131 97L131 139L133 139L133 97L131 97Z" fill="#06BEFB"/>
<circle cx="132" cy="142" r="3" fill="#06BEFB"/>
<path d="M186 178C186 177.448 185.552 177 185 177C184.448 177 184 177.448 184 178L186 178ZM186 220L186 178L184 178L184 220L186 220Z" fill="#06BEFB"/>
<circle cx="185" cy="175" r="3" transform="rotate(-180 185 175)" fill="#06BEFB"/>
</svg>
