<svg width="344" height="320" viewBox="0 0 344 320" fill="none" xmlns="http://www.w3.org/2000/svg">
<rect width="344" height="320" fill="#F5F5F5"/>
<rect x="133.5" y="48.5" width="77" height="31" rx="3.5" fill="white"/>
<path d="M145.776 64.568C145.648 64.568 145.544 64.532 145.464 64.46C145.392 64.38 145.356 64.276 145.356 64.148V63.836C145.356 63.7 145.392 63.596 145.464 63.524C145.544 63.452 145.648 63.416 145.776 63.416H148.788C148.924 63.416 149.028 63.452 149.1 63.524C149.172 63.596 149.208 63.7 149.208 63.836V67.58C149.208 67.708 149.172 67.812 149.1 67.892C149.028 67.964 148.924 68 148.788 68H148.536C148.272 68 148.128 67.868 148.104 67.604L148.056 67.064C147.544 67.808 146.696 68.18 145.512 68.18C144.664 68.18 143.936 67.992 143.328 67.616C142.72 67.24 142.256 66.716 141.936 66.044C141.616 65.372 141.456 64.6 141.456 63.728C141.456 62.88 141.624 62.12 141.96 61.448C142.296 60.776 142.78 60.252 143.412 59.876C144.044 59.492 144.792 59.3 145.656 59.3C146.304 59.3 146.884 59.404 147.396 59.612C147.908 59.812 148.412 60.14 148.908 60.596C149.012 60.692 149.064 60.792 149.064 60.896C149.064 61 149.016 61.1 148.92 61.196L148.632 61.484C148.528 61.588 148.428 61.64 148.332 61.64C148.228 61.64 148.128 61.592 148.032 61.496C147.616 61.136 147.228 60.88 146.868 60.728C146.508 60.568 146.1 60.488 145.644 60.488C145.092 60.488 144.604 60.62 144.18 60.884C143.764 61.148 143.436 61.524 143.196 62.012C142.964 62.5 142.848 63.076 142.848 63.74C142.848 64.412 142.96 64.992 143.184 65.48C143.408 65.968 143.724 66.344 144.132 66.608C144.548 66.864 145.036 66.992 145.596 66.992C146.308 66.992 146.876 66.8 147.3 66.416C147.732 66.024 147.948 65.492 147.948 64.82V64.568H145.776ZM154.933 66.488C155.037 66.4 155.137 66.356 155.233 66.356C155.329 66.356 155.429 66.408 155.533 66.512L155.701 66.692C155.789 66.796 155.833 66.896 155.833 66.992C155.833 67.096 155.781 67.196 155.677 67.292C155.309 67.612 154.941 67.84 154.573 67.976C154.213 68.112 153.813 68.18 153.373 68.18C152.757 68.18 152.221 68.052 151.765 67.796C151.317 67.54 150.969 67.18 150.721 66.716C150.481 66.244 150.361 65.7 150.361 65.084C150.361 64.476 150.477 63.932 150.709 63.452C150.949 62.964 151.285 62.584 151.717 62.312C152.157 62.04 152.669 61.904 153.253 61.904C154.125 61.904 154.797 62.164 155.269 62.684C155.741 63.196 155.977 63.904 155.977 64.808V64.916C155.969 65.044 155.929 65.144 155.857 65.216C155.785 65.288 155.681 65.324 155.545 65.324H151.609C151.657 65.852 151.829 66.284 152.125 66.62C152.429 66.948 152.853 67.112 153.397 67.112C153.693 67.112 153.953 67.068 154.177 66.98C154.401 66.884 154.653 66.72 154.933 66.488ZM153.229 62.912C152.789 62.912 152.433 63.044 152.161 63.308C151.897 63.564 151.725 63.928 151.645 64.4H154.729C154.697 63.936 154.553 63.572 154.297 63.308C154.041 63.044 153.685 62.912 153.229 62.912ZM159.928 66.992C159.952 66.984 159.988 66.98 160.036 66.98C160.236 66.98 160.356 67.096 160.396 67.328L160.432 67.52C160.44 67.544 160.444 67.584 160.444 67.64C160.444 67.84 160.332 67.968 160.108 68.024C159.788 68.096 159.496 68.132 159.232 68.132C158.664 68.132 158.252 68 157.996 67.736C157.748 67.472 157.624 67.076 157.624 66.548V63.056H156.964C156.836 63.056 156.732 63.02 156.652 62.948C156.58 62.868 156.544 62.764 156.544 62.636V62.504C156.544 62.368 156.58 62.264 156.652 62.192C156.732 62.12 156.836 62.084 156.964 62.084H157.624V60.596C157.624 60.46 157.66 60.356 157.732 60.284C157.812 60.212 157.916 60.176 158.044 60.176H158.476C158.612 60.176 158.716 60.212 158.788 60.284C158.86 60.356 158.896 60.46 158.896 60.596V62.084H159.976C160.112 62.084 160.216 62.12 160.288 62.192C160.36 62.264 160.396 62.368 160.396 62.504V62.636C160.396 62.764 160.36 62.868 160.288 62.948C160.216 63.02 160.112 63.056 159.976 63.056H158.896V66.392C158.896 66.624 158.944 66.788 159.04 66.884C159.144 66.98 159.308 67.028 159.532 67.028C159.628 67.028 159.76 67.016 159.928 66.992ZM166.407 68.18C165.919 68.18 165.483 68.12 165.099 68C164.723 67.872 164.339 67.652 163.947 67.34C163.827 67.252 163.767 67.152 163.767 67.04C163.767 66.952 163.811 66.856 163.899 66.752L164.079 66.548C164.175 66.436 164.279 66.38 164.391 66.38C164.479 66.38 164.575 66.42 164.679 66.5C165.015 66.748 165.311 66.92 165.567 67.016C165.823 67.104 166.111 67.148 166.431 67.148C166.775 67.148 167.055 67.08 167.271 66.944C167.495 66.8 167.607 66.608 167.607 66.368C167.607 66.184 167.543 66.04 167.415 65.936C167.295 65.824 167.135 65.74 166.935 65.684C166.735 65.62 166.439 65.548 166.047 65.468C165.495 65.348 165.063 65.22 164.751 65.084C164.447 64.94 164.227 64.76 164.091 64.544C163.955 64.328 163.887 64.052 163.887 63.716C163.887 63.372 163.983 63.064 164.175 62.792C164.375 62.52 164.651 62.304 165.003 62.144C165.363 61.984 165.783 61.904 166.263 61.904C166.695 61.904 167.079 61.952 167.415 62.048C167.759 62.144 168.095 62.308 168.423 62.54C168.551 62.636 168.615 62.744 168.615 62.864C168.615 62.944 168.575 63.036 168.495 63.14L168.339 63.332C168.251 63.444 168.143 63.5 168.015 63.5C167.919 63.5 167.827 63.468 167.739 63.404C167.475 63.228 167.231 63.108 167.007 63.044C166.783 62.972 166.531 62.936 166.251 62.936C165.907 62.936 165.631 63.004 165.423 63.14C165.215 63.276 165.111 63.452 165.111 63.668C165.111 63.812 165.159 63.928 165.255 64.016C165.359 64.096 165.503 64.168 165.687 64.232C165.879 64.288 166.179 64.36 166.587 64.448C167.139 64.568 167.575 64.704 167.895 64.856C168.223 65 168.463 65.188 168.615 65.42C168.775 65.644 168.855 65.936 168.855 66.296C168.855 66.856 168.631 67.312 168.183 67.664C167.743 68.008 167.151 68.18 166.407 68.18ZM172.783 66.992C172.807 66.984 172.843 66.98 172.891 66.98C173.091 66.98 173.211 67.096 173.251 67.328L173.287 67.52C173.295 67.544 173.299 67.584 173.299 67.64C173.299 67.84 173.187 67.968 172.963 68.024C172.643 68.096 172.351 68.132 172.087 68.132C171.519 68.132 171.107 68 170.851 67.736C170.603 67.472 170.479 67.076 170.479 66.548V63.056H169.819C169.691 63.056 169.587 63.02 169.507 62.948C169.435 62.868 169.399 62.764 169.399 62.636V62.504C169.399 62.368 169.435 62.264 169.507 62.192C169.587 62.12 169.691 62.084 169.819 62.084H170.479V60.596C170.479 60.46 170.515 60.356 170.587 60.284C170.667 60.212 170.771 60.176 170.899 60.176H171.331C171.467 60.176 171.571 60.212 171.643 60.284C171.715 60.356 171.751 60.46 171.751 60.596V62.084H172.831C172.967 62.084 173.071 62.12 173.143 62.192C173.215 62.264 173.251 62.368 173.251 62.504V62.636C173.251 62.764 173.215 62.868 173.143 62.948C173.071 63.02 172.967 63.056 172.831 63.056H171.751V66.392C171.751 66.624 171.799 66.788 171.895 66.884C171.999 66.98 172.163 67.028 172.387 67.028C172.483 67.028 172.615 67.016 172.783 66.992ZM176.806 61.904C177.606 61.904 178.222 62.092 178.654 62.468C179.086 62.836 179.302 63.328 179.302 63.944V67.58C179.302 67.708 179.266 67.812 179.194 67.892C179.122 67.964 179.018 68 178.882 68H178.57C178.442 68 178.338 67.964 178.258 67.892C178.186 67.812 178.15 67.708 178.15 67.58V67.316C177.958 67.596 177.694 67.812 177.358 67.964C177.022 68.116 176.63 68.192 176.182 68.192C175.566 68.192 175.058 68.056 174.658 67.784C174.266 67.504 174.07 67.084 174.07 66.524C174.07 65.9 174.302 65.44 174.766 65.144C175.238 64.84 175.89 64.612 176.722 64.46L178.078 64.208V63.992C178.078 63.664 177.962 63.412 177.73 63.236C177.506 63.052 177.206 62.96 176.83 62.96C176.51 62.96 176.23 63.016 175.99 63.128C175.758 63.232 175.506 63.408 175.234 63.656C175.13 63.744 175.03 63.788 174.934 63.788C174.838 63.788 174.738 63.744 174.634 63.656L174.442 63.488C174.338 63.392 174.286 63.288 174.286 63.176C174.286 63.072 174.334 62.972 174.43 62.876C174.774 62.548 175.138 62.304 175.522 62.144C175.906 61.984 176.334 61.904 176.806 61.904ZM176.362 67.172C176.842 67.172 177.246 67.044 177.574 66.788C177.91 66.532 178.078 66.164 178.078 65.684V65.132L177.034 65.348C176.45 65.468 176.018 65.604 175.738 65.756C175.458 65.908 175.318 66.14 175.318 66.452C175.318 66.676 175.41 66.852 175.594 66.98C175.778 67.108 176.034 67.172 176.362 67.172ZM183.419 62.024C183.595 62.024 183.775 62.044 183.959 62.084C184.175 62.132 184.283 62.26 184.283 62.468C184.283 62.524 184.279 62.564 184.271 62.588L184.211 62.876C184.163 63.1 184.043 63.212 183.851 63.212L183.743 63.2C183.599 63.176 183.471 63.164 183.359 63.164C182.959 63.164 182.635 63.324 182.387 63.644C182.147 63.956 182.027 64.392 182.027 64.952V67.58C182.027 67.708 181.991 67.812 181.919 67.892C181.847 67.964 181.743 68 181.607 68H181.175C181.047 68 180.943 67.964 180.863 67.892C180.791 67.812 180.755 67.708 180.755 67.58V62.504C180.755 62.368 180.791 62.264 180.863 62.192C180.943 62.12 181.047 62.084 181.175 62.084H181.523C181.659 62.084 181.763 62.12 181.835 62.192C181.907 62.264 181.943 62.368 181.943 62.504V62.972C182.087 62.676 182.283 62.444 182.531 62.276C182.779 62.108 183.075 62.024 183.419 62.024ZM188.205 66.992C188.229 66.984 188.265 66.98 188.313 66.98C188.513 66.98 188.633 67.096 188.673 67.328L188.709 67.52C188.717 67.544 188.721 67.584 188.721 67.64C188.721 67.84 188.609 67.968 188.385 68.024C188.065 68.096 187.773 68.132 187.509 68.132C186.941 68.132 186.529 68 186.273 67.736C186.025 67.472 185.901 67.076 185.901 66.548V63.056H185.241C185.113 63.056 185.009 63.02 184.929 62.948C184.857 62.868 184.821 62.764 184.821 62.636V62.504C184.821 62.368 184.857 62.264 184.929 62.192C185.009 62.12 185.113 62.084 185.241 62.084H185.901V60.596C185.901 60.46 185.937 60.356 186.009 60.284C186.089 60.212 186.193 60.176 186.321 60.176H186.753C186.889 60.176 186.993 60.212 187.065 60.284C187.137 60.356 187.173 60.46 187.173 60.596V62.084H188.253C188.389 62.084 188.493 62.12 188.565 62.192C188.637 62.264 188.673 62.368 188.673 62.504V62.636C188.673 62.764 188.637 62.868 188.565 62.948C188.493 63.02 188.389 63.056 188.253 63.056H187.173V66.392C187.173 66.624 187.221 66.788 187.317 66.884C187.421 66.98 187.585 67.028 187.809 67.028C187.905 67.028 188.037 67.016 188.205 66.992ZM193.769 66.488C193.873 66.4 193.973 66.356 194.069 66.356C194.165 66.356 194.265 66.408 194.369 66.512L194.537 66.692C194.625 66.796 194.669 66.896 194.669 66.992C194.669 67.096 194.617 67.196 194.513 67.292C194.145 67.612 193.777 67.84 193.409 67.976C193.049 68.112 192.649 68.18 192.209 68.18C191.593 68.18 191.057 68.052 190.601 67.796C190.153 67.54 189.805 67.18 189.557 66.716C189.317 66.244 189.197 65.7 189.197 65.084C189.197 64.476 189.313 63.932 189.545 63.452C189.785 62.964 190.121 62.584 190.553 62.312C190.993 62.04 191.505 61.904 192.089 61.904C192.961 61.904 193.633 62.164 194.105 62.684C194.577 63.196 194.813 63.904 194.813 64.808V64.916C194.805 65.044 194.765 65.144 194.693 65.216C194.621 65.288 194.517 65.324 194.381 65.324H190.445C190.493 65.852 190.665 66.284 190.961 66.62C191.265 66.948 191.689 67.112 192.233 67.112C192.529 67.112 192.789 67.068 193.013 66.98C193.237 66.884 193.489 66.72 193.769 66.488ZM192.065 62.912C191.625 62.912 191.269 63.044 190.997 63.308C190.733 63.564 190.561 63.928 190.481 64.4H193.565C193.533 63.936 193.389 63.572 193.133 63.308C192.877 63.044 192.521 62.912 192.065 62.912ZM200.166 59.888C200.166 59.752 200.202 59.648 200.274 59.576C200.354 59.504 200.458 59.468 200.586 59.468H201.018C201.154 59.468 201.258 59.504 201.33 59.576C201.402 59.648 201.438 59.752 201.438 59.888V67.58C201.438 67.708 201.402 67.812 201.33 67.892C201.258 67.964 201.154 68 201.018 68H200.67C200.542 68 200.438 67.964 200.358 67.892C200.286 67.812 200.25 67.708 200.25 67.58V67.16C199.834 67.832 199.182 68.168 198.294 68.168C197.798 68.168 197.35 68.04 196.95 67.784C196.558 67.528 196.25 67.164 196.026 66.692C195.802 66.22 195.69 65.672 195.69 65.048C195.69 64.432 195.802 63.888 196.026 63.416C196.258 62.944 196.574 62.58 196.974 62.324C197.374 62.068 197.822 61.94 198.318 61.94C199.134 61.94 199.75 62.224 200.166 62.792V59.888ZM198.558 67.076C199.046 67.076 199.446 66.896 199.758 66.536C200.07 66.168 200.226 65.672 200.226 65.048C200.226 64.424 200.07 63.932 199.758 63.572C199.446 63.212 199.046 63.032 198.558 63.032C198.086 63.032 197.706 63.216 197.418 63.584C197.13 63.952 196.986 64.44 196.986 65.048C196.986 65.664 197.126 66.156 197.406 66.524C197.694 66.892 198.078 67.076 198.558 67.076Z" fill="#474445"/>
<rect x="133.5" y="48.5" width="77" height="31" rx="3.5" stroke="#C3CCD9"/>
<rect x="195.5" y="96.5" width="29" height="31" rx="3.5" fill="white"/>
<circle cx="209.953" cy="111.953" r="2" stroke="#767676" stroke-width="1.5"/>
<path d="M209.035 105.534C209.303 104.551 210.697 104.551 210.965 105.534L211.306 106.782C211.478 107.413 212.199 107.711 212.766 107.387L213.89 106.745C214.774 106.24 215.76 107.226 215.255 108.11L214.613 109.234C214.289 109.801 214.587 110.522 215.218 110.694L216.466 111.035C217.449 111.303 217.449 112.697 216.466 112.965L215.218 113.306C214.587 113.478 214.289 114.199 214.613 114.766L215.255 115.89C215.76 116.774 214.774 117.76 213.89 117.255L212.766 116.613C212.199 116.289 211.478 116.587 211.306 117.218L210.965 118.466C210.697 119.449 209.303 119.449 209.035 118.466L208.694 117.218C208.522 116.587 207.801 116.289 207.234 116.613L206.11 117.255C205.226 117.76 204.24 116.774 204.745 115.89L205.387 114.766C205.711 114.199 205.413 113.478 204.782 113.306L203.534 112.965C202.551 112.697 202.551 111.303 203.534 111.035L204.782 110.694C205.413 110.522 205.711 109.801 205.387 109.234L204.745 108.11C204.24 107.226 205.226 106.24 206.11 106.745L207.234 107.387C207.801 107.711 208.522 107.413 208.694 106.782L209.035 105.534Z" stroke="#767676" stroke-width="1.5"/>
<rect x="195.5" y="96.5" width="29" height="31" rx="3.5" stroke="#C3CCD9"/>
<rect x="119.5" y="96.5" width="29" height="31" rx="3.5" fill="white"/>
<circle cx="128.4" cy="112" r="1.4" fill="#464646"/>
<circle cx="134" cy="112" r="1.4" fill="#464646"/>
<circle cx="139.6" cy="112" r="1.4" fill="#464646"/>
<rect x="119.5" y="96.5" width="29" height="31" rx="3.5" stroke="#C3CCD9"/>
<rect x="157.5" y="96.5" width="29" height="31" rx="3.5" fill="white"/>
<path d="M166.5 107.5L167 113.25L167.46 118.543C167.483 118.802 167.699 119 167.958 119H176.042C176.301 119 176.517 118.802 176.54 118.543L177.5 107.5" stroke="#767676" stroke-width="1.5" stroke-linecap="round" stroke-linejoin="round"/>
<path d="M173.5 111V115.5" stroke="#767676" stroke-width="1.5" stroke-linecap="round" stroke-linejoin="round"/>
<path d="M170.5 111V115.5" stroke="#767676" stroke-width="1.5" stroke-linecap="round" stroke-linejoin="round"/>
<path d="M169 107.5V106C169 105.448 169.448 105 170 105H174C174.552 105 175 105.448 175 106V107.5" stroke="#767676" stroke-width="1.5" stroke-linecap="round" stroke-linejoin="round"/>
<path d="M165 107.5H179" stroke="#767676" stroke-width="1.5" stroke-linecap="round" stroke-linejoin="round"/>
<rect x="157.5" y="96.5" width="29" height="31" rx="3.5" stroke="#C3CCD9"/>
<rect x="125.5" y="144.5" width="93" height="31" rx="3.5" fill="white"/>
<g clip-path="url(#clip0_665_10408)">
<path fill-rule="evenodd" clip-rule="evenodd" d="M141.75 153C141.75 152.586 141.414 152.25 141 152.25C140.586 152.25 140.25 152.586 140.25 153V162.44L138.969 161.414C138.645 161.156 138.173 161.208 137.914 161.531C137.656 161.855 137.708 162.327 138.031 162.586L140.531 164.586C140.805 164.805 141.195 164.805 141.469 164.586L143.969 162.586C144.292 162.327 144.344 161.855 144.086 161.531C143.827 161.208 143.355 161.156 143.031 161.414L141.75 162.44V153ZM134 166.25C133.586 166.25 133.25 166.586 133.25 167C133.25 167.414 133.586 167.75 134 167.75H148C148.414 167.75 148.75 167.414 148.75 167C148.75 166.586 148.414 166.25 148 166.25H134Z" fill="#767676"/>
</g>
<path d="M158.344 164C158.216 164 158.112 163.964 158.032 163.892C157.96 163.812 157.924 163.708 157.924 163.58V155.9C157.924 155.764 157.96 155.66 158.032 155.588C158.112 155.516 158.216 155.48 158.344 155.48H161.236C162.036 155.48 162.72 155.66 163.288 156.02C163.864 156.38 164.3 156.884 164.596 157.532C164.9 158.172 165.052 158.908 165.052 159.74C165.052 160.572 164.9 161.312 164.596 161.96C164.3 162.6 163.864 163.1 163.288 163.46C162.72 163.82 162.036 164 161.236 164H158.344ZM161.032 162.848C161.848 162.848 162.488 162.58 162.952 162.044C163.424 161.5 163.66 160.732 163.66 159.74C163.66 158.748 163.424 157.984 162.952 157.448C162.488 156.904 161.848 156.632 161.032 156.632H159.292V162.848H161.032ZM169.068 164.18C168.484 164.18 167.964 164.048 167.508 163.784C167.06 163.52 166.708 163.152 166.452 162.68C166.196 162.2 166.068 161.652 166.068 161.036C166.068 160.42 166.196 159.876 166.452 159.404C166.708 158.932 167.06 158.564 167.508 158.3C167.964 158.036 168.484 157.904 169.068 157.904C169.644 157.904 170.16 158.036 170.616 158.3C171.072 158.564 171.428 158.936 171.684 159.416C171.94 159.888 172.068 160.428 172.068 161.036C172.068 161.652 171.94 162.2 171.684 162.68C171.428 163.152 171.072 163.52 170.616 163.784C170.16 164.048 169.644 164.18 169.068 164.18ZM169.068 163.112C169.58 163.112 169.992 162.924 170.304 162.548C170.616 162.164 170.772 161.66 170.772 161.036C170.772 160.42 170.616 159.924 170.304 159.548C169.992 159.172 169.58 158.984 169.068 158.984C168.556 158.984 168.144 159.172 167.832 159.548C167.52 159.924 167.364 160.42 167.364 161.036C167.364 161.66 167.52 162.164 167.832 162.548C168.144 162.924 168.556 163.112 169.068 163.112ZM179.767 158.444C179.823 158.204 179.979 158.084 180.235 158.084H180.679C180.799 158.084 180.891 158.112 180.955 158.168C181.027 158.216 181.063 158.292 181.063 158.396C181.063 158.42 181.055 158.472 181.039 158.552L179.611 163.64C179.555 163.88 179.399 164 179.143 164H178.363C178.123 164 177.967 163.88 177.895 163.64L177.499 162.248C177.323 161.632 177.127 160.86 176.911 159.932L176.851 159.668C176.635 160.644 176.427 161.508 176.227 162.26L175.855 163.64C175.799 163.88 175.643 164 175.387 164H174.619C174.379 164 174.223 163.88 174.151 163.64L172.711 158.552C172.695 158.472 172.687 158.42 172.687 158.396C172.687 158.292 172.719 158.216 172.783 158.168C172.855 158.112 172.951 158.084 173.071 158.084H173.539C173.795 158.084 173.951 158.204 174.007 158.444L174.439 160.148C174.607 160.772 174.803 161.604 175.027 162.644L175.075 162.884C175.307 161.812 175.523 160.9 175.723 160.148L176.179 158.444C176.235 158.204 176.391 158.084 176.647 158.084H177.103C177.359 158.084 177.515 158.204 177.571 158.444L178.039 160.148C178.263 160.98 178.487 161.892 178.711 162.884C178.879 162.028 179.087 161.116 179.335 160.148L179.767 158.444ZM185.131 157.904C185.811 157.904 186.331 158.096 186.691 158.48C187.059 158.856 187.243 159.344 187.243 159.944V163.58C187.243 163.708 187.207 163.812 187.135 163.892C187.063 163.964 186.959 164 186.823 164H186.391C186.263 164 186.159 163.964 186.079 163.892C186.007 163.812 185.971 163.708 185.971 163.58V160.34C185.971 159.908 185.863 159.576 185.647 159.344C185.439 159.112 185.139 158.996 184.747 158.996C184.363 158.996 184.039 159.128 183.775 159.392C183.519 159.656 183.391 159.988 183.391 160.388V163.58C183.391 163.708 183.355 163.812 183.283 163.892C183.211 163.964 183.107 164 182.971 164H182.539C182.411 164 182.307 163.964 182.227 163.892C182.155 163.812 182.119 163.708 182.119 163.58V158.504C182.119 158.368 182.155 158.264 182.227 158.192C182.307 158.12 182.411 158.084 182.539 158.084H182.887C183.023 158.084 183.127 158.12 183.199 158.192C183.271 158.264 183.307 158.368 183.307 158.504V158.816C183.499 158.52 183.751 158.296 184.063 158.144C184.375 157.984 184.731 157.904 185.131 157.904ZM189.173 164C189.045 164 188.941 163.964 188.861 163.892C188.789 163.812 188.753 163.708 188.753 163.58V155.9C188.753 155.764 188.789 155.66 188.861 155.588C188.941 155.516 189.045 155.48 189.173 155.48H189.605C189.741 155.48 189.845 155.516 189.917 155.588C189.989 155.66 190.025 155.764 190.025 155.9V163.58C190.025 163.708 189.989 163.812 189.917 163.892C189.845 163.964 189.741 164 189.605 164H189.173ZM194.205 164.18C193.621 164.18 193.101 164.048 192.645 163.784C192.197 163.52 191.845 163.152 191.589 162.68C191.333 162.2 191.205 161.652 191.205 161.036C191.205 160.42 191.333 159.876 191.589 159.404C191.845 158.932 192.197 158.564 192.645 158.3C193.101 158.036 193.621 157.904 194.205 157.904C194.781 157.904 195.297 158.036 195.753 158.3C196.209 158.564 196.565 158.936 196.821 159.416C197.077 159.888 197.205 160.428 197.205 161.036C197.205 161.652 197.077 162.2 196.821 162.68C196.565 163.152 196.209 163.52 195.753 163.784C195.297 164.048 194.781 164.18 194.205 164.18ZM194.205 163.112C194.717 163.112 195.129 162.924 195.441 162.548C195.753 162.164 195.909 161.66 195.909 161.036C195.909 160.42 195.753 159.924 195.441 159.548C195.129 159.172 194.717 158.984 194.205 158.984C193.693 158.984 193.281 159.172 192.969 159.548C192.657 159.924 192.501 160.42 192.501 161.036C192.501 161.66 192.657 162.164 192.969 162.548C193.281 162.924 193.693 163.112 194.205 163.112ZM200.822 157.904C201.622 157.904 202.238 158.092 202.67 158.468C203.102 158.836 203.318 159.328 203.318 159.944V163.58C203.318 163.708 203.282 163.812 203.21 163.892C203.138 163.964 203.034 164 202.898 164H202.586C202.458 164 202.354 163.964 202.274 163.892C202.202 163.812 202.166 163.708 202.166 163.58V163.316C201.974 163.596 201.71 163.812 201.374 163.964C201.038 164.116 200.646 164.192 200.198 164.192C199.582 164.192 199.074 164.056 198.674 163.784C198.282 163.504 198.086 163.084 198.086 162.524C198.086 161.9 198.318 161.44 198.782 161.144C199.254 160.84 199.906 160.612 200.738 160.46L202.094 160.208V159.992C202.094 159.664 201.978 159.412 201.746 159.236C201.522 159.052 201.222 158.96 200.846 158.96C200.526 158.96 200.246 159.016 200.006 159.128C199.774 159.232 199.522 159.408 199.25 159.656C199.146 159.744 199.046 159.788 198.95 159.788C198.854 159.788 198.754 159.744 198.65 159.656L198.458 159.488C198.354 159.392 198.302 159.288 198.302 159.176C198.302 159.072 198.35 158.972 198.446 158.876C198.79 158.548 199.154 158.304 199.538 158.144C199.922 157.984 200.35 157.904 200.822 157.904ZM200.378 163.172C200.858 163.172 201.262 163.044 201.59 162.788C201.926 162.532 202.094 162.164 202.094 161.684V161.132L201.05 161.348C200.466 161.468 200.034 161.604 199.754 161.756C199.474 161.908 199.334 162.14 199.334 162.452C199.334 162.676 199.426 162.852 199.61 162.98C199.794 163.108 200.05 163.172 200.378 163.172ZM208.935 155.888C208.935 155.752 208.971 155.648 209.043 155.576C209.123 155.504 209.227 155.468 209.355 155.468H209.787C209.923 155.468 210.027 155.504 210.099 155.576C210.171 155.648 210.207 155.752 210.207 155.888V163.58C210.207 163.708 210.171 163.812 210.099 163.892C210.027 163.964 209.923 164 209.787 164H209.439C209.311 164 209.207 163.964 209.127 163.892C209.055 163.812 209.019 163.708 209.019 163.58V163.16C208.603 163.832 207.951 164.168 207.063 164.168C206.567 164.168 206.119 164.04 205.719 163.784C205.327 163.528 205.019 163.164 204.795 162.692C204.571 162.22 204.459 161.672 204.459 161.048C204.459 160.432 204.571 159.888 204.795 159.416C205.027 158.944 205.343 158.58 205.743 158.324C206.143 158.068 206.591 157.94 207.087 157.94C207.903 157.94 208.519 158.224 208.935 158.792V155.888ZM207.327 163.076C207.815 163.076 208.215 162.896 208.527 162.536C208.839 162.168 208.995 161.672 208.995 161.048C208.995 160.424 208.839 159.932 208.527 159.572C208.215 159.212 207.815 159.032 207.327 159.032C206.855 159.032 206.475 159.216 206.187 159.584C205.899 159.952 205.755 160.44 205.755 161.048C205.755 161.664 205.895 162.156 206.175 162.524C206.463 162.892 206.847 163.076 207.327 163.076Z" fill="#474445"/>
<rect x="125.5" y="144.5" width="93" height="31" rx="3.5" stroke="#C3CCD9"/>
<rect x="141.5" y="192.5" width="61" height="31" rx="3.5" fill="white"/>
<path d="M163.34 201.66C163.128 201.449 162.876 201.282 162.6 201.169C162.323 201.055 162.026 200.998 161.727 201C161.428 201.002 161.132 201.063 160.857 201.18C160.582 201.297 160.332 201.468 160.123 201.682L151.101 210.704L150 215L154.296 213.898L163.318 204.876C163.532 204.667 163.703 204.418 163.82 204.142C163.937 203.867 163.998 203.571 164 203.272C164.002 202.973 163.945 202.677 163.831 202.4C163.718 202.123 163.551 201.872 163.34 201.66V201.66Z" stroke="#767676" stroke-width="1.5" stroke-linecap="round" stroke-linejoin="round"/>
<path d="M174.344 212C174.216 212 174.112 211.964 174.032 211.892C173.96 211.812 173.924 211.708 173.924 211.58V203.9C173.924 203.764 173.96 203.66 174.032 203.588C174.112 203.516 174.216 203.48 174.344 203.48H179.324C179.46 203.48 179.564 203.516 179.636 203.588C179.708 203.66 179.744 203.764 179.744 203.9V204.212C179.744 204.34 179.708 204.444 179.636 204.524C179.564 204.596 179.46 204.632 179.324 204.632H175.292V207.032H179.024C179.16 207.032 179.264 207.068 179.336 207.14C179.408 207.212 179.444 207.316 179.444 207.452V207.764C179.444 207.892 179.408 207.996 179.336 208.076C179.264 208.148 179.16 208.184 179.024 208.184H175.292V210.848H179.444C179.58 210.848 179.684 210.884 179.756 210.956C179.828 211.028 179.864 211.132 179.864 211.268V211.58C179.864 211.708 179.828 211.812 179.756 211.892C179.684 211.964 179.58 212 179.444 212H174.344ZM185.115 203.888C185.115 203.752 185.151 203.648 185.223 203.576C185.303 203.504 185.407 203.468 185.535 203.468H185.967C186.103 203.468 186.207 203.504 186.279 203.576C186.351 203.648 186.387 203.752 186.387 203.888V211.58C186.387 211.708 186.351 211.812 186.279 211.892C186.207 211.964 186.103 212 185.967 212H185.619C185.491 212 185.387 211.964 185.307 211.892C185.235 211.812 185.199 211.708 185.199 211.58V211.16C184.783 211.832 184.131 212.168 183.243 212.168C182.747 212.168 182.299 212.04 181.899 211.784C181.507 211.528 181.199 211.164 180.975 210.692C180.751 210.22 180.639 209.672 180.639 209.048C180.639 208.432 180.751 207.888 180.975 207.416C181.207 206.944 181.523 206.58 181.923 206.324C182.323 206.068 182.771 205.94 183.267 205.94C184.083 205.94 184.699 206.224 185.115 206.792V203.888ZM183.507 211.076C183.995 211.076 184.395 210.896 184.707 210.536C185.019 210.168 185.175 209.672 185.175 209.048C185.175 208.424 185.019 207.932 184.707 207.572C184.395 207.212 183.995 207.032 183.507 207.032C183.035 207.032 182.655 207.216 182.367 207.584C182.079 207.952 181.935 208.44 181.935 209.048C181.935 209.664 182.075 210.156 182.355 210.524C182.643 210.892 183.027 211.076 183.507 211.076ZM188.513 204.932C188.281 204.932 188.085 204.856 187.925 204.704C187.765 204.544 187.685 204.356 187.685 204.14C187.685 203.916 187.765 203.728 187.925 203.576C188.085 203.424 188.281 203.348 188.513 203.348C188.745 203.348 188.941 203.424 189.101 203.576C189.261 203.728 189.341 203.916 189.341 204.14C189.341 204.356 189.261 204.544 189.101 204.704C188.941 204.856 188.745 204.932 188.513 204.932ZM188.285 212C188.157 212 188.053 211.964 187.973 211.892C187.901 211.812 187.865 211.708 187.865 211.58V206.504C187.865 206.368 187.901 206.264 187.973 206.192C188.053 206.12 188.157 206.084 188.285 206.084H188.717C188.853 206.084 188.957 206.12 189.029 206.192C189.101 206.264 189.137 206.368 189.137 206.504V211.58C189.137 211.708 189.101 211.812 189.029 211.892C188.957 211.964 188.853 212 188.717 212H188.285ZM193.463 210.992C193.487 210.984 193.523 210.98 193.571 210.98C193.771 210.98 193.891 211.096 193.931 211.328L193.967 211.52C193.975 211.544 193.979 211.584 193.979 211.64C193.979 211.84 193.867 211.968 193.643 212.024C193.323 212.096 193.031 212.132 192.767 212.132C192.199 212.132 191.787 212 191.531 211.736C191.283 211.472 191.159 211.076 191.159 210.548V207.056H190.499C190.371 207.056 190.267 207.02 190.187 206.948C190.115 206.868 190.079 206.764 190.079 206.636V206.504C190.079 206.368 190.115 206.264 190.187 206.192C190.267 206.12 190.371 206.084 190.499 206.084H191.159V204.596C191.159 204.46 191.195 204.356 191.267 204.284C191.347 204.212 191.451 204.176 191.579 204.176H192.011C192.147 204.176 192.251 204.212 192.323 204.284C192.395 204.356 192.431 204.46 192.431 204.596V206.084H193.511C193.647 206.084 193.751 206.12 193.823 206.192C193.895 206.264 193.931 206.368 193.931 206.504V206.636C193.931 206.764 193.895 206.868 193.823 206.948C193.751 207.02 193.647 207.056 193.511 207.056H192.431V210.392C192.431 210.624 192.479 210.788 192.575 210.884C192.679 210.98 192.843 211.028 193.067 211.028C193.163 211.028 193.295 211.016 193.463 210.992Z" fill="#474445"/>
<rect x="141.5" y="192.5" width="61" height="31" rx="3.5" stroke="#C3CCD9"/>
<rect x="136.5" y="240.5" width="71" height="31" rx="3.5" fill="white"/>
<path d="M147.924 260.192C147.268 260.192 146.68 260.1 146.16 259.916C145.648 259.724 145.12 259.404 144.576 258.956C144.464 258.868 144.408 258.764 144.408 258.644C144.408 258.54 144.448 258.444 144.528 258.356L144.804 258.032C144.892 257.92 144.992 257.864 145.104 257.864C145.192 257.864 145.292 257.908 145.404 257.996C145.884 258.38 146.312 258.644 146.688 258.788C147.072 258.932 147.492 259.004 147.948 259.004C148.5 259.004 148.948 258.88 149.292 258.632C149.636 258.376 149.808 258.028 149.808 257.588C149.808 257.3 149.72 257.076 149.544 256.916C149.368 256.748 149.14 256.62 148.86 256.532C148.588 256.444 148.144 256.328 147.528 256.184C146.784 256.008 146.204 255.816 145.788 255.608C145.372 255.4 145.072 255.152 144.888 254.864C144.712 254.568 144.624 254.196 144.624 253.748C144.624 253.276 144.76 252.852 145.032 252.476C145.304 252.1 145.676 251.808 146.148 251.6C146.628 251.392 147.164 251.288 147.756 251.288C148.356 251.288 148.884 251.368 149.34 251.528C149.804 251.688 150.268 251.948 150.732 252.308C150.852 252.404 150.912 252.504 150.912 252.608C150.912 252.696 150.872 252.792 150.792 252.896L150.528 253.208C150.432 253.32 150.332 253.376 150.228 253.376C150.132 253.376 150.032 253.336 149.928 253.256C149.544 252.96 149.188 252.756 148.86 252.644C148.532 252.532 148.16 252.476 147.744 252.476C147.216 252.476 146.788 252.592 146.46 252.824C146.132 253.056 145.968 253.348 145.968 253.7C145.968 253.956 146.044 254.16 146.196 254.312C146.348 254.464 146.568 254.588 146.856 254.684C147.144 254.78 147.588 254.896 148.188 255.032C148.916 255.208 149.492 255.396 149.916 255.596C150.34 255.788 150.656 256.036 150.864 256.34C151.072 256.644 151.176 257.032 151.176 257.504C151.176 258.032 151.04 258.5 150.768 258.908C150.496 259.316 150.116 259.632 149.628 259.856C149.14 260.08 148.572 260.192 147.924 260.192ZM155.373 253.904C156.053 253.904 156.573 254.096 156.933 254.48C157.301 254.856 157.485 255.344 157.485 255.944V259.58C157.485 259.708 157.449 259.812 157.377 259.892C157.305 259.964 157.201 260 157.065 260H156.633C156.505 260 156.401 259.964 156.321 259.892C156.249 259.812 156.213 259.708 156.213 259.58V256.34C156.213 255.908 156.105 255.576 155.889 255.344C155.681 255.112 155.381 254.996 154.989 254.996C154.605 254.996 154.281 255.128 154.017 255.392C153.761 255.656 153.633 255.988 153.633 256.388V259.58C153.633 259.708 153.597 259.812 153.525 259.892C153.453 259.964 153.349 260 153.213 260H152.781C152.653 260 152.549 259.964 152.469 259.892C152.397 259.812 152.361 259.708 152.361 259.58V251.9C152.361 251.764 152.397 251.66 152.469 251.588C152.549 251.516 152.653 251.48 152.781 251.48H153.213C153.349 251.48 153.453 251.516 153.525 251.588C153.597 251.66 153.633 251.764 153.633 251.9V254.696C153.825 254.44 154.069 254.244 154.365 254.108C154.669 253.972 155.005 253.904 155.373 253.904ZM161.443 253.904C162.243 253.904 162.859 254.092 163.291 254.468C163.723 254.836 163.939 255.328 163.939 255.944V259.58C163.939 259.708 163.903 259.812 163.831 259.892C163.759 259.964 163.655 260 163.519 260H163.207C163.079 260 162.975 259.964 162.895 259.892C162.823 259.812 162.787 259.708 162.787 259.58V259.316C162.595 259.596 162.331 259.812 161.995 259.964C161.659 260.116 161.267 260.192 160.819 260.192C160.203 260.192 159.695 260.056 159.295 259.784C158.903 259.504 158.707 259.084 158.707 258.524C158.707 257.9 158.939 257.44 159.403 257.144C159.875 256.84 160.527 256.612 161.359 256.46L162.715 256.208V255.992C162.715 255.664 162.599 255.412 162.367 255.236C162.143 255.052 161.843 254.96 161.467 254.96C161.147 254.96 160.867 255.016 160.627 255.128C160.395 255.232 160.143 255.408 159.871 255.656C159.767 255.744 159.667 255.788 159.571 255.788C159.475 255.788 159.375 255.744 159.271 255.656L159.079 255.488C158.975 255.392 158.923 255.288 158.923 255.176C158.923 255.072 158.971 254.972 159.067 254.876C159.411 254.548 159.775 254.304 160.159 254.144C160.543 253.984 160.971 253.904 161.443 253.904ZM160.999 259.172C161.479 259.172 161.883 259.044 162.211 258.788C162.547 258.532 162.715 258.164 162.715 257.684V257.132L161.671 257.348C161.087 257.468 160.655 257.604 160.375 257.756C160.095 257.908 159.955 258.14 159.955 258.452C159.955 258.676 160.047 258.852 160.231 258.98C160.415 259.108 160.671 259.172 160.999 259.172ZM168.056 254.024C168.232 254.024 168.412 254.044 168.596 254.084C168.812 254.132 168.92 254.26 168.92 254.468C168.92 254.524 168.916 254.564 168.908 254.588L168.848 254.876C168.8 255.1 168.68 255.212 168.488 255.212L168.38 255.2C168.236 255.176 168.108 255.164 167.996 255.164C167.596 255.164 167.272 255.324 167.024 255.644C166.784 255.956 166.664 256.392 166.664 256.952V259.58C166.664 259.708 166.628 259.812 166.556 259.892C166.484 259.964 166.38 260 166.244 260H165.812C165.684 260 165.58 259.964 165.5 259.892C165.428 259.812 165.392 259.708 165.392 259.58V254.504C165.392 254.368 165.428 254.264 165.5 254.192C165.58 254.12 165.684 254.084 165.812 254.084H166.16C166.296 254.084 166.4 254.12 166.472 254.192C166.544 254.264 166.58 254.368 166.58 254.504V254.972C166.724 254.676 166.92 254.444 167.168 254.276C167.416 254.108 167.712 254.024 168.056 254.024ZM173.8 258.488C173.904 258.4 174.004 258.356 174.1 258.356C174.196 258.356 174.296 258.408 174.4 258.512L174.568 258.692C174.656 258.796 174.7 258.896 174.7 258.992C174.7 259.096 174.648 259.196 174.544 259.292C174.176 259.612 173.808 259.84 173.44 259.976C173.08 260.112 172.68 260.18 172.24 260.18C171.624 260.18 171.088 260.052 170.632 259.796C170.184 259.54 169.836 259.18 169.588 258.716C169.348 258.244 169.228 257.7 169.228 257.084C169.228 256.476 169.344 255.932 169.576 255.452C169.816 254.964 170.152 254.584 170.584 254.312C171.024 254.04 171.536 253.904 172.12 253.904C172.992 253.904 173.664 254.164 174.136 254.684C174.608 255.196 174.844 255.904 174.844 256.808V256.916C174.836 257.044 174.796 257.144 174.724 257.216C174.652 257.288 174.548 257.324 174.412 257.324H170.476C170.524 257.852 170.696 258.284 170.992 258.62C171.296 258.948 171.72 259.112 172.264 259.112C172.56 259.112 172.82 259.068 173.044 258.98C173.268 258.884 173.52 258.72 173.8 258.488ZM172.096 254.912C171.656 254.912 171.3 255.044 171.028 255.308C170.764 255.564 170.592 255.928 170.512 256.4H173.596C173.564 255.936 173.42 255.572 173.164 255.308C172.908 255.044 172.552 254.912 172.096 254.912Z" fill="#474445"/>
<path d="M186.5 256H197.5" stroke="#767676" stroke-width="1.5" stroke-linecap="round" stroke-linejoin="round"/>
<path d="M192 250.5V261.5" stroke="#767676" stroke-width="1.5" stroke-linecap="round" stroke-linejoin="round"/>
<rect x="136.5" y="240.5" width="71" height="31" rx="3.5" stroke="#C3CCD9"/>
<defs>
<clipPath id="clip0_665_10408">
<rect width="16" height="16" fill="white" transform="translate(133 152)"/>
</clipPath>
</defs>
</svg>
