<svg width="344" height="244" viewBox="0 0 344 244" fill="none" xmlns="http://www.w3.org/2000/svg">
<rect width="344" height="244" fill="#F5F5F5"/>
<rect x="32.5" y="72.5" width="90" height="31" rx="3.5" fill="white"/>
<path d="M42.5 88H53.5" stroke="#767676" stroke-width="1.5" stroke-linecap="round" stroke-linejoin="round"/>
<path d="M48 82.5V93.5" stroke="#767676" stroke-width="1.5" stroke-linecap="round" stroke-linejoin="round"/>
<path d="M71.044 92C70.804 92 70.644 91.888 70.564 91.664L70 90.044H66.232L65.668 91.664C65.588 91.888 65.428 92 65.188 92H64.684C64.564 92 64.468 91.976 64.396 91.928C64.332 91.872 64.3 91.796 64.3 91.7C64.3 91.652 64.312 91.592 64.336 91.52L67.12 83.816C67.2 83.592 67.36 83.48 67.6 83.48H68.668C68.908 83.48 69.068 83.592 69.148 83.816L71.932 91.52C71.956 91.592 71.968 91.652 71.968 91.7C71.968 91.796 71.932 91.872 71.86 91.928C71.796 91.976 71.704 92 71.584 92H71.044ZM69.616 88.904L69.244 87.848C69.236 87.832 69.148 87.58 68.98 87.092C68.556 85.892 68.268 85.036 68.116 84.524C67.884 85.26 67.576 86.172 67.192 87.26L66.988 87.86L66.628 88.904H69.616ZM77.1108 83.888C77.1108 83.752 77.1468 83.648 77.2188 83.576C77.2988 83.504 77.4028 83.468 77.5308 83.468H77.9628C78.0988 83.468 78.2028 83.504 78.2748 83.576C78.3468 83.648 78.3828 83.752 78.3828 83.888V91.58C78.3828 91.708 78.3468 91.812 78.2748 91.892C78.2028 91.964 78.0988 92 77.9628 92H77.6148C77.4868 92 77.3828 91.964 77.3028 91.892C77.2308 91.812 77.1948 91.708 77.1948 91.58V91.16C76.7788 91.832 76.1268 92.168 75.2388 92.168C74.7428 92.168 74.2948 92.04 73.8948 91.784C73.5028 91.528 73.1948 91.164 72.9708 90.692C72.7468 90.22 72.6348 89.672 72.6348 89.048C72.6348 88.432 72.7468 87.888 72.9708 87.416C73.2028 86.944 73.5188 86.58 73.9188 86.324C74.3188 86.068 74.7668 85.94 75.2628 85.94C76.0788 85.94 76.6948 86.224 77.1108 86.792V83.888ZM75.5028 91.076C75.9908 91.076 76.3908 90.896 76.7028 90.536C77.0148 90.168 77.1708 89.672 77.1708 89.048C77.1708 88.424 77.0148 87.932 76.7028 87.572C76.3908 87.212 75.9908 87.032 75.5028 87.032C75.0308 87.032 74.6508 87.216 74.3628 87.584C74.0748 87.952 73.9308 88.44 73.9308 89.048C73.9308 89.664 74.0708 90.156 74.3508 90.524C74.6388 90.892 75.0228 91.076 75.5028 91.076ZM84.0249 83.888C84.0249 83.752 84.0609 83.648 84.1329 83.576C84.2129 83.504 84.3169 83.468 84.4449 83.468H84.8769C85.0129 83.468 85.1169 83.504 85.1889 83.576C85.2609 83.648 85.2969 83.752 85.2969 83.888V91.58C85.2969 91.708 85.2609 91.812 85.1889 91.892C85.1169 91.964 85.0129 92 84.8769 92H84.5289C84.4009 92 84.2969 91.964 84.2169 91.892C84.1449 91.812 84.1089 91.708 84.1089 91.58V91.16C83.6929 91.832 83.0409 92.168 82.1529 92.168C81.6569 92.168 81.2089 92.04 80.8089 91.784C80.4169 91.528 80.1089 91.164 79.8849 90.692C79.6609 90.22 79.5489 89.672 79.5489 89.048C79.5489 88.432 79.6609 87.888 79.8849 87.416C80.1169 86.944 80.4329 86.58 80.8329 86.324C81.2329 86.068 81.6809 85.94 82.1769 85.94C82.9929 85.94 83.6089 86.224 84.0249 86.792V83.888ZM82.4169 91.076C82.9049 91.076 83.3049 90.896 83.6169 90.536C83.9289 90.168 84.0849 89.672 84.0849 89.048C84.0849 88.424 83.9289 87.932 83.6169 87.572C83.3049 87.212 82.9049 87.032 82.4169 87.032C81.9449 87.032 81.5649 87.216 81.2769 87.584C80.9889 87.952 80.8449 88.44 80.8449 89.048C80.8449 89.664 80.9849 90.156 81.2649 90.524C81.5529 90.892 81.9369 91.076 82.4169 91.076ZM92.7902 84.932C92.5582 84.932 92.3622 84.856 92.2022 84.704C92.0422 84.544 91.9622 84.356 91.9622 84.14C91.9622 83.916 92.0422 83.728 92.2022 83.576C92.3622 83.424 92.5582 83.348 92.7902 83.348C93.0222 83.348 93.2182 83.424 93.3782 83.576C93.5382 83.728 93.6182 83.916 93.6182 84.14C93.6182 84.356 93.5382 84.544 93.3782 84.704C93.2182 84.856 93.0222 84.932 92.7902 84.932ZM92.5622 92C92.4342 92 92.3302 91.964 92.2502 91.892C92.1782 91.812 92.1422 91.708 92.1422 91.58V86.504C92.1422 86.368 92.1782 86.264 92.2502 86.192C92.3302 86.12 92.4342 86.084 92.5622 86.084H92.9942C93.1302 86.084 93.2342 86.12 93.3062 86.192C93.3782 86.264 93.4142 86.368 93.4142 86.504V91.58C93.4142 91.708 93.3782 91.812 93.3062 91.892C93.2342 91.964 93.1302 92 92.9942 92H92.5622ZM97.7403 90.992C97.7643 90.984 97.8003 90.98 97.8483 90.98C98.0483 90.98 98.1683 91.096 98.2083 91.328L98.2443 91.52C98.2523 91.544 98.2563 91.584 98.2563 91.64C98.2563 91.84 98.1443 91.968 97.9203 92.024C97.6003 92.096 97.3083 92.132 97.0443 92.132C96.4763 92.132 96.0643 92 95.8083 91.736C95.5603 91.472 95.4363 91.076 95.4363 90.548V87.056H94.7763C94.6483 87.056 94.5443 87.02 94.4643 86.948C94.3923 86.868 94.3563 86.764 94.3563 86.636V86.504C94.3563 86.368 94.3923 86.264 94.4643 86.192C94.5443 86.12 94.6483 86.084 94.7763 86.084H95.4363V84.596C95.4363 84.46 95.4723 84.356 95.5443 84.284C95.6243 84.212 95.7283 84.176 95.8563 84.176H96.2883C96.4243 84.176 96.5283 84.212 96.6003 84.284C96.6723 84.356 96.7083 84.46 96.7083 84.596V86.084H97.7883C97.9243 86.084 98.0283 86.12 98.1003 86.192C98.1723 86.264 98.2083 86.368 98.2083 86.504V86.636C98.2083 86.764 98.1723 86.868 98.1003 86.948C98.0283 87.02 97.9243 87.056 97.7883 87.056H96.7083V90.392C96.7083 90.624 96.7563 90.788 96.8523 90.884C96.9563 90.98 97.1203 91.028 97.3443 91.028C97.4403 91.028 97.5723 91.016 97.7403 90.992ZM103.304 90.488C103.408 90.4 103.508 90.356 103.604 90.356C103.7 90.356 103.8 90.408 103.904 90.512L104.072 90.692C104.16 90.796 104.204 90.896 104.204 90.992C104.204 91.096 104.152 91.196 104.048 91.292C103.68 91.612 103.312 91.84 102.944 91.976C102.584 92.112 102.184 92.18 101.744 92.18C101.128 92.18 100.592 92.052 100.136 91.796C99.6879 91.54 99.3399 91.18 99.0919 90.716C98.8519 90.244 98.7319 89.7 98.7319 89.084C98.7319 88.476 98.8479 87.932 99.0799 87.452C99.3199 86.964 99.6559 86.584 100.088 86.312C100.528 86.04 101.04 85.904 101.624 85.904C102.496 85.904 103.168 86.164 103.64 86.684C104.112 87.196 104.348 87.904 104.348 88.808V88.916C104.34 89.044 104.3 89.144 104.228 89.216C104.156 89.288 104.052 89.324 103.916 89.324H99.9799C100.028 89.852 100.2 90.284 100.496 90.62C100.8 90.948 101.224 91.112 101.768 91.112C102.064 91.112 102.324 91.068 102.548 90.98C102.772 90.884 103.024 90.72 103.304 90.488ZM101.6 86.912C101.16 86.912 100.804 87.044 100.532 87.308C100.268 87.564 100.096 87.928 100.016 88.4H103.1C103.068 87.936 102.924 87.572 102.668 87.308C102.412 87.044 102.056 86.912 101.6 86.912ZM111.861 85.904C112.493 85.904 112.981 86.084 113.325 86.444C113.669 86.796 113.841 87.272 113.841 87.872V91.58C113.841 91.708 113.805 91.812 113.733 91.892C113.661 91.964 113.557 92 113.421 92H112.989C112.861 92 112.757 91.964 112.677 91.892C112.605 91.812 112.569 91.708 112.569 91.58V88.256C112.569 87.864 112.481 87.556 112.305 87.332C112.129 87.108 111.861 86.996 111.501 86.996C111.133 86.996 110.841 87.12 110.625 87.368C110.417 87.616 110.313 87.936 110.313 88.328V91.58C110.313 91.708 110.277 91.812 110.205 91.892C110.133 91.964 110.029 92 109.893 92H109.461C109.333 92 109.229 91.964 109.149 91.892C109.077 91.812 109.041 91.708 109.041 91.58V88.256C109.041 87.864 108.953 87.556 108.777 87.332C108.609 87.108 108.345 86.996 107.985 86.996C107.633 86.996 107.349 87.112 107.133 87.344C106.917 87.576 106.801 87.876 106.785 88.244V91.58C106.785 91.708 106.749 91.812 106.677 91.892C106.605 91.964 106.501 92 106.365 92H105.933C105.805 92 105.701 91.964 105.621 91.892C105.549 91.812 105.513 91.708 105.513 91.58V86.504C105.513 86.368 105.549 86.264 105.621 86.192C105.701 86.12 105.805 86.084 105.933 86.084H106.281C106.417 86.084 106.521 86.12 106.593 86.192C106.665 86.264 106.701 86.368 106.701 86.504V86.768C107.069 86.192 107.637 85.904 108.405 85.904C108.789 85.904 109.125 85.984 109.413 86.144C109.701 86.304 109.921 86.528 110.073 86.816C110.481 86.208 111.077 85.904 111.861 85.904Z" fill="#474445"/>
<rect x="32.5" y="72.5" width="90" height="31" rx="3.5" stroke="#C3CCD9"/>
<g filter="url(#filter0_i_665_10547)">
<rect x="32" y="174" width="90" height="32" rx="4" fill="#E5E5E5"/>
<path d="M46 183H41V188H46V183Z" stroke="#767676" stroke-width="1.5" stroke-linecap="round" stroke-linejoin="round"/>
<path d="M46 192H41V197H46V192Z" stroke="#767676" stroke-width="1.5" stroke-linecap="round" stroke-linejoin="round"/>
<path d="M55 183H50V188H55V183Z" stroke="#767676" stroke-width="1.5" stroke-linecap="round" stroke-linejoin="round"/>
<path d="M55 192H50V197H55V192Z" stroke="#767676" stroke-width="1.5" stroke-linecap="round" stroke-linejoin="round"/>
<path d="M68.776 190.568C68.648 190.568 68.544 190.532 68.464 190.46C68.392 190.38 68.356 190.276 68.356 190.148V189.836C68.356 189.7 68.392 189.596 68.464 189.524C68.544 189.452 68.648 189.416 68.776 189.416H71.788C71.924 189.416 72.028 189.452 72.1 189.524C72.172 189.596 72.208 189.7 72.208 189.836V193.58C72.208 193.708 72.172 193.812 72.1 193.892C72.028 193.964 71.924 194 71.788 194H71.536C71.272 194 71.128 193.868 71.104 193.604L71.056 193.064C70.544 193.808 69.696 194.18 68.512 194.18C67.664 194.18 66.936 193.992 66.328 193.616C65.72 193.24 65.256 192.716 64.936 192.044C64.616 191.372 64.456 190.6 64.456 189.728C64.456 188.88 64.624 188.12 64.96 187.448C65.296 186.776 65.78 186.252 66.412 185.876C67.044 185.492 67.792 185.3 68.656 185.3C69.304 185.3 69.884 185.404 70.396 185.612C70.908 185.812 71.412 186.14 71.908 186.596C72.012 186.692 72.064 186.792 72.064 186.896C72.064 187 72.016 187.1 71.92 187.196L71.632 187.484C71.528 187.588 71.428 187.64 71.332 187.64C71.228 187.64 71.128 187.592 71.032 187.496C70.616 187.136 70.228 186.88 69.868 186.728C69.508 186.568 69.1 186.488 68.644 186.488C68.092 186.488 67.604 186.62 67.18 186.884C66.764 187.148 66.436 187.524 66.196 188.012C65.964 188.5 65.848 189.076 65.848 189.74C65.848 190.412 65.96 190.992 66.184 191.48C66.408 191.968 66.724 192.344 67.132 192.608C67.548 192.864 68.036 192.992 68.596 192.992C69.308 192.992 69.876 192.8 70.3 192.416C70.732 192.024 70.948 191.492 70.948 190.82V190.568H68.776ZM76.3608 188.024C76.5368 188.024 76.7168 188.044 76.9008 188.084C77.1168 188.132 77.2248 188.26 77.2248 188.468C77.2248 188.524 77.2208 188.564 77.2128 188.588L77.1528 188.876C77.1048 189.1 76.9848 189.212 76.7928 189.212L76.6848 189.2C76.5408 189.176 76.4128 189.164 76.3008 189.164C75.9008 189.164 75.5768 189.324 75.3288 189.644C75.0888 189.956 74.9688 190.392 74.9688 190.952V193.58C74.9688 193.708 74.9328 193.812 74.8608 193.892C74.7888 193.964 74.6848 194 74.5488 194H74.1168C73.9888 194 73.8848 193.964 73.8048 193.892C73.7328 193.812 73.6968 193.708 73.6968 193.58V188.504C73.6968 188.368 73.7328 188.264 73.8048 188.192C73.8848 188.12 73.9888 188.084 74.1168 188.084H74.4648C74.6008 188.084 74.7048 188.12 74.7768 188.192C74.8488 188.264 74.8848 188.368 74.8848 188.504V188.972C75.0288 188.676 75.2248 188.444 75.4728 188.276C75.7208 188.108 76.0168 188.024 76.3608 188.024ZM78.798 186.932C78.566 186.932 78.37 186.856 78.21 186.704C78.05 186.544 77.97 186.356 77.97 186.14C77.97 185.916 78.05 185.728 78.21 185.576C78.37 185.424 78.566 185.348 78.798 185.348C79.03 185.348 79.226 185.424 79.386 185.576C79.546 185.728 79.626 185.916 79.626 186.14C79.626 186.356 79.546 186.544 79.386 186.704C79.226 186.856 79.03 186.932 78.798 186.932ZM78.57 194C78.442 194 78.338 193.964 78.258 193.892C78.186 193.812 78.15 193.708 78.15 193.58V188.504C78.15 188.368 78.186 188.264 78.258 188.192C78.338 188.12 78.442 188.084 78.57 188.084H79.002C79.138 188.084 79.242 188.12 79.314 188.192C79.386 188.264 79.422 188.368 79.422 188.504V193.58C79.422 193.708 79.386 193.812 79.314 193.892C79.242 193.964 79.138 194 79.002 194H78.57ZM85.0562 185.888C85.0562 185.752 85.0922 185.648 85.1642 185.576C85.2442 185.504 85.3482 185.468 85.4762 185.468H85.9082C86.0442 185.468 86.1482 185.504 86.2202 185.576C86.2922 185.648 86.3282 185.752 86.3282 185.888V193.58C86.3282 193.708 86.2922 193.812 86.2202 193.892C86.1482 193.964 86.0442 194 85.9082 194H85.5602C85.4322 194 85.3282 193.964 85.2482 193.892C85.1762 193.812 85.1402 193.708 85.1402 193.58V193.16C84.7242 193.832 84.0722 194.168 83.1842 194.168C82.6882 194.168 82.2402 194.04 81.8402 193.784C81.4482 193.528 81.1402 193.164 80.9162 192.692C80.6922 192.22 80.5802 191.672 80.5802 191.048C80.5802 190.432 80.6922 189.888 80.9162 189.416C81.1482 188.944 81.4642 188.58 81.8642 188.324C82.2642 188.068 82.7122 187.94 83.2082 187.94C84.0242 187.94 84.6402 188.224 85.0562 188.792V185.888ZM83.4482 193.076C83.9362 193.076 84.3362 192.896 84.6482 192.536C84.9602 192.168 85.1162 191.672 85.1162 191.048C85.1162 190.424 84.9602 189.932 84.6482 189.572C84.3362 189.212 83.9362 189.032 83.4482 189.032C82.9762 189.032 82.5962 189.216 82.3082 189.584C82.0202 189.952 81.8762 190.44 81.8762 191.048C81.8762 191.664 82.0162 192.156 82.2962 192.524C82.5842 192.892 82.9682 193.076 83.4482 193.076ZM94.1018 188.432C94.1738 188.2 94.3298 188.084 94.5698 188.084H95.0138C95.2618 188.084 95.3858 188.184 95.3858 188.384C95.3858 188.44 95.3738 188.5 95.3498 188.564L93.6098 193.664C93.5378 193.888 93.3778 194 93.1298 194H92.2778C92.0298 194 91.8698 193.888 91.7978 193.664L90.0578 188.564C90.0338 188.5 90.0218 188.44 90.0218 188.384C90.0218 188.184 90.1458 188.084 90.3938 188.084H90.8738C91.1138 188.084 91.2698 188.2 91.3418 188.432L91.8938 190.148C92.2538 191.3 92.5298 192.236 92.7218 192.956C92.9778 192.004 93.2538 191.068 93.5498 190.148L94.1018 188.432ZM97.0441 186.932C96.8121 186.932 96.6161 186.856 96.4561 186.704C96.2961 186.544 96.2161 186.356 96.2161 186.14C96.2161 185.916 96.2961 185.728 96.4561 185.576C96.6161 185.424 96.8121 185.348 97.0441 185.348C97.2761 185.348 97.4721 185.424 97.6321 185.576C97.7921 185.728 97.8721 185.916 97.8721 186.14C97.8721 186.356 97.7921 186.544 97.6321 186.704C97.4721 186.856 97.2761 186.932 97.0441 186.932ZM96.8161 194C96.6881 194 96.5841 193.964 96.5041 193.892C96.4321 193.812 96.3961 193.708 96.3961 193.58V188.504C96.3961 188.368 96.4321 188.264 96.5041 188.192C96.5841 188.12 96.6881 188.084 96.8161 188.084H97.2481C97.3841 188.084 97.4881 188.12 97.5601 188.192C97.6321 188.264 97.6681 188.368 97.6681 188.504V193.58C97.6681 193.708 97.6321 193.812 97.5601 193.892C97.4881 193.964 97.3841 194 97.2481 194H96.8161ZM103.374 192.488C103.478 192.4 103.578 192.356 103.674 192.356C103.77 192.356 103.87 192.408 103.974 192.512L104.142 192.692C104.23 192.796 104.274 192.896 104.274 192.992C104.274 193.096 104.222 193.196 104.118 193.292C103.75 193.612 103.382 193.84 103.014 193.976C102.654 194.112 102.254 194.18 101.814 194.18C101.198 194.18 100.662 194.052 100.206 193.796C99.7583 193.54 99.4103 193.18 99.1623 192.716C98.9223 192.244 98.8022 191.7 98.8022 191.084C98.8022 190.476 98.9183 189.932 99.1503 189.452C99.3903 188.964 99.7263 188.584 100.158 188.312C100.598 188.04 101.11 187.904 101.694 187.904C102.566 187.904 103.238 188.164 103.71 188.684C104.182 189.196 104.418 189.904 104.418 190.808V190.916C104.41 191.044 104.37 191.144 104.298 191.216C104.226 191.288 104.122 191.324 103.986 191.324H100.05C100.098 191.852 100.27 192.284 100.566 192.62C100.87 192.948 101.294 193.112 101.838 193.112C102.134 193.112 102.394 193.068 102.618 192.98C102.842 192.884 103.094 192.72 103.374 192.488ZM101.67 188.912C101.23 188.912 100.874 189.044 100.602 189.308C100.338 189.564 100.166 189.928 100.086 190.4H103.17C103.138 189.936 102.994 189.572 102.738 189.308C102.482 189.044 102.126 188.912 101.67 188.912ZM112.185 188.444C112.241 188.204 112.397 188.084 112.653 188.084H113.097C113.217 188.084 113.309 188.112 113.373 188.168C113.445 188.216 113.481 188.292 113.481 188.396C113.481 188.42 113.473 188.472 113.457 188.552L112.029 193.64C111.973 193.88 111.817 194 111.561 194H110.781C110.541 194 110.385 193.88 110.313 193.64L109.917 192.248C109.741 191.632 109.545 190.86 109.329 189.932L109.269 189.668C109.053 190.644 108.845 191.508 108.645 192.26L108.273 193.64C108.217 193.88 108.061 194 107.805 194H107.037C106.797 194 106.641 193.88 106.569 193.64L105.129 188.552C105.113 188.472 105.105 188.42 105.105 188.396C105.105 188.292 105.137 188.216 105.201 188.168C105.273 188.112 105.369 188.084 105.489 188.084H105.957C106.213 188.084 106.369 188.204 106.425 188.444L106.857 190.148C107.025 190.772 107.221 191.604 107.445 192.644L107.493 192.884C107.725 191.812 107.941 190.9 108.141 190.148L108.597 188.444C108.653 188.204 108.809 188.084 109.065 188.084H109.521C109.777 188.084 109.933 188.204 109.989 188.444L110.457 190.148C110.681 190.98 110.905 191.892 111.129 192.884C111.297 192.028 111.505 191.116 111.753 190.148L112.185 188.444Z" fill="#474445"/>
<rect x="32.5" y="174.5" width="89" height="31" rx="3.5" stroke="#C3CCD9"/>
</g>
<rect x="147.5" y="72.5" width="84" height="31" rx="3.5" fill="white"/>
<circle cx="162.953" cy="87.9531" r="2" stroke="#767676" stroke-width="1.5"/>
<path d="M162.035 81.5335C162.303 80.5513 163.697 80.5513 163.965 81.5335L164.306 82.7823C164.478 83.4129 165.199 83.7115 165.766 83.3873L166.89 82.7454C167.774 82.2405 168.76 83.2255 168.255 84.1096L167.613 85.2338C167.289 85.8014 167.587 86.5222 168.218 86.6944L169.466 87.0353C170.449 87.3035 170.449 88.6965 169.466 88.9647L168.218 89.3056C167.587 89.4778 167.289 90.1986 167.613 90.7662L168.255 91.8904C168.76 92.7745 167.774 93.7595 166.89 93.2546L165.766 92.6127C165.199 92.2885 164.478 92.5871 164.306 93.2177L163.965 94.4665C163.697 95.4487 162.303 95.4487 162.035 94.4665L161.694 93.2177C161.522 92.5871 160.801 92.2885 160.234 92.6127L159.11 93.2546C158.226 93.7595 157.24 92.7745 157.745 91.8904L158.387 90.7662C158.711 90.1986 158.413 89.4778 157.782 89.3056L156.534 88.9647C155.551 88.6965 155.551 87.3035 156.534 87.0353L157.782 86.6944C158.413 86.5222 158.711 85.8014 158.387 85.2338L157.745 84.1096C157.24 83.2255 158.226 82.2405 159.11 82.7454L160.234 83.3873C160.801 83.7115 161.522 83.4129 161.694 82.7823L162.035 81.5335Z" stroke="#767676" stroke-width="1.5"/>
<path d="M182.924 92.192C182.268 92.192 181.68 92.1 181.16 91.916C180.648 91.724 180.12 91.404 179.576 90.956C179.464 90.868 179.408 90.764 179.408 90.644C179.408 90.54 179.448 90.444 179.528 90.356L179.804 90.032C179.892 89.92 179.992 89.864 180.104 89.864C180.192 89.864 180.292 89.908 180.404 89.996C180.884 90.38 181.312 90.644 181.688 90.788C182.072 90.932 182.492 91.004 182.948 91.004C183.5 91.004 183.948 90.88 184.292 90.632C184.636 90.376 184.808 90.028 184.808 89.588C184.808 89.3 184.72 89.076 184.544 88.916C184.368 88.748 184.14 88.62 183.86 88.532C183.588 88.444 183.144 88.328 182.528 88.184C181.784 88.008 181.204 87.816 180.788 87.608C180.372 87.4 180.072 87.152 179.888 86.864C179.712 86.568 179.624 86.196 179.624 85.748C179.624 85.276 179.76 84.852 180.032 84.476C180.304 84.1 180.676 83.808 181.148 83.6C181.628 83.392 182.164 83.288 182.756 83.288C183.356 83.288 183.884 83.368 184.34 83.528C184.804 83.688 185.268 83.948 185.732 84.308C185.852 84.404 185.912 84.504 185.912 84.608C185.912 84.696 185.872 84.792 185.792 84.896L185.528 85.208C185.432 85.32 185.332 85.376 185.228 85.376C185.132 85.376 185.032 85.336 184.928 85.256C184.544 84.96 184.188 84.756 183.86 84.644C183.532 84.532 183.16 84.476 182.744 84.476C182.216 84.476 181.788 84.592 181.46 84.824C181.132 85.056 180.968 85.348 180.968 85.7C180.968 85.956 181.044 86.16 181.196 86.312C181.348 86.464 181.568 86.588 181.856 86.684C182.144 86.78 182.588 86.896 183.188 87.032C183.916 87.208 184.492 87.396 184.916 87.596C185.34 87.788 185.656 88.036 185.864 88.34C186.072 88.644 186.176 89.032 186.176 89.504C186.176 90.032 186.04 90.5 185.768 90.908C185.496 91.316 185.116 91.632 184.628 91.856C184.14 92.08 183.572 92.192 182.924 92.192ZM191.644 90.488C191.748 90.4 191.848 90.356 191.944 90.356C192.04 90.356 192.14 90.408 192.244 90.512L192.412 90.692C192.5 90.796 192.544 90.896 192.544 90.992C192.544 91.096 192.492 91.196 192.388 91.292C192.02 91.612 191.652 91.84 191.284 91.976C190.924 92.112 190.524 92.18 190.084 92.18C189.468 92.18 188.932 92.052 188.476 91.796C188.028 91.54 187.68 91.18 187.432 90.716C187.192 90.244 187.072 89.7 187.072 89.084C187.072 88.476 187.188 87.932 187.42 87.452C187.66 86.964 187.996 86.584 188.428 86.312C188.868 86.04 189.38 85.904 189.964 85.904C190.836 85.904 191.508 86.164 191.98 86.684C192.452 87.196 192.688 87.904 192.688 88.808V88.916C192.68 89.044 192.64 89.144 192.568 89.216C192.496 89.288 192.392 89.324 192.256 89.324H188.32C188.368 89.852 188.54 90.284 188.836 90.62C189.14 90.948 189.564 91.112 190.108 91.112C190.404 91.112 190.664 91.068 190.888 90.98C191.112 90.884 191.364 90.72 191.644 90.488ZM189.94 86.912C189.5 86.912 189.144 87.044 188.872 87.308C188.608 87.564 188.436 87.928 188.356 88.4H191.44C191.408 87.936 191.264 87.572 191.008 87.308C190.752 87.044 190.396 86.912 189.94 86.912ZM196.639 90.992C196.663 90.984 196.699 90.98 196.747 90.98C196.947 90.98 197.067 91.096 197.107 91.328L197.143 91.52C197.151 91.544 197.155 91.584 197.155 91.64C197.155 91.84 197.043 91.968 196.819 92.024C196.499 92.096 196.207 92.132 195.943 92.132C195.375 92.132 194.963 92 194.707 91.736C194.459 91.472 194.335 91.076 194.335 90.548V87.056H193.675C193.547 87.056 193.443 87.02 193.363 86.948C193.291 86.868 193.255 86.764 193.255 86.636V86.504C193.255 86.368 193.291 86.264 193.363 86.192C193.443 86.12 193.547 86.084 193.675 86.084H194.335V84.596C194.335 84.46 194.371 84.356 194.443 84.284C194.523 84.212 194.627 84.176 194.755 84.176H195.187C195.323 84.176 195.427 84.212 195.499 84.284C195.571 84.356 195.607 84.46 195.607 84.596V86.084H196.687C196.823 86.084 196.927 86.12 196.999 86.192C197.071 86.264 197.107 86.368 197.107 86.504V86.636C197.107 86.764 197.071 86.868 196.999 86.948C196.927 87.02 196.823 87.056 196.687 87.056H195.607V90.392C195.607 90.624 195.655 90.788 195.751 90.884C195.855 90.98 196.019 91.028 196.243 91.028C196.339 91.028 196.471 91.016 196.639 90.992ZM201.033 90.992C201.057 90.984 201.093 90.98 201.141 90.98C201.341 90.98 201.461 91.096 201.501 91.328L201.537 91.52C201.545 91.544 201.549 91.584 201.549 91.64C201.549 91.84 201.437 91.968 201.213 92.024C200.893 92.096 200.601 92.132 200.337 92.132C199.769 92.132 199.357 92 199.101 91.736C198.853 91.472 198.729 91.076 198.729 90.548V87.056H198.069C197.941 87.056 197.837 87.02 197.757 86.948C197.685 86.868 197.649 86.764 197.649 86.636V86.504C197.649 86.368 197.685 86.264 197.757 86.192C197.837 86.12 197.941 86.084 198.069 86.084H198.729V84.596C198.729 84.46 198.765 84.356 198.837 84.284C198.917 84.212 199.021 84.176 199.149 84.176H199.581C199.717 84.176 199.821 84.212 199.893 84.284C199.965 84.356 200.001 84.46 200.001 84.596V86.084H201.081C201.217 86.084 201.321 86.12 201.393 86.192C201.465 86.264 201.501 86.368 201.501 86.504V86.636C201.501 86.764 201.465 86.868 201.393 86.948C201.321 87.02 201.217 87.056 201.081 87.056H200.001V90.392C200.001 90.624 200.049 90.788 200.145 90.884C200.249 90.98 200.413 91.028 200.637 91.028C200.733 91.028 200.865 91.016 201.033 90.992ZM203.196 84.932C202.964 84.932 202.768 84.856 202.608 84.704C202.448 84.544 202.368 84.356 202.368 84.14C202.368 83.916 202.448 83.728 202.608 83.576C202.768 83.424 202.964 83.348 203.196 83.348C203.428 83.348 203.624 83.424 203.784 83.576C203.944 83.728 204.024 83.916 204.024 84.14C204.024 84.356 203.944 84.544 203.784 84.704C203.624 84.856 203.428 84.932 203.196 84.932ZM202.968 92C202.84 92 202.736 91.964 202.656 91.892C202.584 91.812 202.548 91.708 202.548 91.58V86.504C202.548 86.368 202.584 86.264 202.656 86.192C202.736 86.12 202.84 86.084 202.968 86.084H203.4C203.536 86.084 203.64 86.12 203.712 86.192C203.784 86.264 203.82 86.368 203.82 86.504V91.58C203.82 91.708 203.784 91.812 203.712 91.892C203.64 91.964 203.536 92 203.4 92H202.968ZM208.303 85.904C208.983 85.904 209.503 86.096 209.863 86.48C210.231 86.856 210.415 87.344 210.415 87.944V91.58C210.415 91.708 210.379 91.812 210.307 91.892C210.235 91.964 210.131 92 209.995 92H209.563C209.435 92 209.331 91.964 209.251 91.892C209.179 91.812 209.143 91.708 209.143 91.58V88.34C209.143 87.908 209.035 87.576 208.819 87.344C208.611 87.112 208.311 86.996 207.919 86.996C207.535 86.996 207.211 87.128 206.947 87.392C206.691 87.656 206.563 87.988 206.563 88.388V91.58C206.563 91.708 206.527 91.812 206.455 91.892C206.383 91.964 206.279 92 206.143 92H205.711C205.583 92 205.479 91.964 205.399 91.892C205.327 91.812 205.291 91.708 205.291 91.58V86.504C205.291 86.368 205.327 86.264 205.399 86.192C205.479 86.12 205.583 86.084 205.711 86.084H206.059C206.195 86.084 206.299 86.12 206.371 86.192C206.443 86.264 206.479 86.368 206.479 86.504V86.816C206.671 86.52 206.923 86.296 207.235 86.144C207.547 85.984 207.903 85.904 208.303 85.904ZM216.041 86.468C216.041 86.348 216.077 86.256 216.149 86.192C216.229 86.12 216.333 86.084 216.461 86.084H216.797C216.933 86.084 217.037 86.12 217.109 86.192C217.181 86.264 217.217 86.368 217.217 86.504V91.784C217.217 92.576 216.961 93.192 216.449 93.632C215.945 94.072 215.273 94.292 214.433 94.292C213.593 94.292 212.801 94.076 212.057 93.644C211.905 93.564 211.829 93.456 211.829 93.32C211.829 93.248 211.861 93.16 211.925 93.056L212.081 92.828C212.169 92.692 212.277 92.624 212.405 92.624C212.493 92.624 212.581 92.652 212.669 92.708C212.989 92.892 213.285 93.024 213.557 93.104C213.829 93.192 214.117 93.236 214.421 93.236C214.885 93.236 215.257 93.108 215.537 92.852C215.825 92.604 215.969 92.212 215.969 91.676V91.04C215.569 91.608 214.969 91.892 214.169 91.892C213.673 91.892 213.225 91.768 212.825 91.52C212.433 91.264 212.125 90.912 211.901 90.464C211.685 90.008 211.577 89.488 211.577 88.904C211.577 88.32 211.685 87.804 211.901 87.356C212.125 86.9 212.433 86.544 212.825 86.288C213.225 86.032 213.673 85.904 214.169 85.904C215.017 85.904 215.641 86.22 216.041 86.852V86.468ZM214.421 90.824C214.885 90.824 215.265 90.648 215.561 90.296C215.857 89.936 216.005 89.472 216.005 88.904C216.005 88.344 215.857 87.888 215.561 87.536C215.273 87.176 214.893 86.996 214.421 86.996C213.941 86.996 213.561 87.172 213.281 87.524C213.001 87.876 212.861 88.336 212.861 88.904C212.861 89.48 213.001 89.944 213.281 90.296C213.561 90.648 213.941 90.824 214.421 90.824ZM220.965 92.18C220.477 92.18 220.041 92.12 219.657 92C219.281 91.872 218.897 91.652 218.505 91.34C218.385 91.252 218.325 91.152 218.325 91.04C218.325 90.952 218.369 90.856 218.457 90.752L218.637 90.548C218.733 90.436 218.837 90.38 218.949 90.38C219.037 90.38 219.133 90.42 219.237 90.5C219.573 90.748 219.869 90.92 220.125 91.016C220.381 91.104 220.669 91.148 220.989 91.148C221.333 91.148 221.613 91.08 221.829 90.944C222.053 90.8 222.165 90.608 222.165 90.368C222.165 90.184 222.101 90.04 221.973 89.936C221.853 89.824 221.693 89.74 221.493 89.684C221.293 89.62 220.997 89.548 220.605 89.468C220.053 89.348 219.621 89.22 219.309 89.084C219.005 88.94 218.785 88.76 218.649 88.544C218.513 88.328 218.445 88.052 218.445 87.716C218.445 87.372 218.541 87.064 218.733 86.792C218.933 86.52 219.209 86.304 219.561 86.144C219.921 85.984 220.341 85.904 220.821 85.904C221.253 85.904 221.637 85.952 221.973 86.048C222.317 86.144 222.653 86.308 222.981 86.54C223.109 86.636 223.173 86.744 223.173 86.864C223.173 86.944 223.133 87.036 223.053 87.14L222.897 87.332C222.809 87.444 222.701 87.5 222.573 87.5C222.477 87.5 222.385 87.468 222.297 87.404C222.033 87.228 221.789 87.108 221.565 87.044C221.341 86.972 221.089 86.936 220.809 86.936C220.465 86.936 220.189 87.004 219.981 87.14C219.773 87.276 219.669 87.452 219.669 87.668C219.669 87.812 219.717 87.928 219.813 88.016C219.917 88.096 220.061 88.168 220.245 88.232C220.437 88.288 220.737 88.36 221.145 88.448C221.697 88.568 222.133 88.704 222.453 88.856C222.781 89 223.021 89.188 223.173 89.42C223.333 89.644 223.413 89.936 223.413 90.296C223.413 90.856 223.189 91.312 222.741 91.664C222.301 92.008 221.709 92.18 220.965 92.18Z" fill="#474445"/>
<rect x="147.5" y="72.5" width="84" height="31" rx="3.5" stroke="#C3CCD9"/>
<rect x="147.5" y="174.5" width="86" height="31" rx="3.5" fill="white"/>
<path d="M160.5 184H170" stroke="#767676" stroke-width="1.5" stroke-linecap="round" stroke-linejoin="round"/>
<path d="M160.5 190H170" stroke="#767676" stroke-width="1.5" stroke-linecap="round" stroke-linejoin="round"/>
<path d="M160.5 196H170" stroke="#767676" stroke-width="1.5" stroke-linecap="round" stroke-linejoin="round"/>
<path d="M156 184H156.5" stroke="#767676" stroke-width="1.5" stroke-linecap="round" stroke-linejoin="round"/>
<path d="M156 190H156.5" stroke="#767676" stroke-width="1.5" stroke-linecap="round" stroke-linejoin="round"/>
<path d="M156 196H156.5" stroke="#767676" stroke-width="1.5" stroke-linecap="round" stroke-linejoin="round"/>
<path d="M180.344 194C180.216 194 180.112 193.964 180.032 193.892C179.96 193.812 179.924 193.708 179.924 193.58V185.9C179.924 185.764 179.96 185.66 180.032 185.588C180.112 185.516 180.216 185.48 180.344 185.48H180.872C181.008 185.48 181.112 185.516 181.184 185.588C181.256 185.66 181.292 185.764 181.292 185.9V192.836H184.76C184.896 192.836 185 192.872 185.072 192.944C185.144 193.016 185.18 193.12 185.18 193.256V193.58C185.18 193.708 185.144 193.812 185.072 193.892C185 193.964 184.896 194 184.76 194H180.344ZM186.896 186.932C186.664 186.932 186.468 186.856 186.308 186.704C186.148 186.544 186.068 186.356 186.068 186.14C186.068 185.916 186.148 185.728 186.308 185.576C186.468 185.424 186.664 185.348 186.896 185.348C187.128 185.348 187.324 185.424 187.484 185.576C187.644 185.728 187.724 185.916 187.724 186.14C187.724 186.356 187.644 186.544 187.484 186.704C187.324 186.856 187.128 186.932 186.896 186.932ZM186.668 194C186.54 194 186.436 193.964 186.356 193.892C186.284 193.812 186.248 193.708 186.248 193.58V188.504C186.248 188.368 186.284 188.264 186.356 188.192C186.436 188.12 186.54 188.084 186.668 188.084H187.1C187.236 188.084 187.34 188.12 187.412 188.192C187.484 188.264 187.52 188.368 187.52 188.504V193.58C187.52 193.708 187.484 193.812 187.412 193.892C187.34 193.964 187.236 194 187.1 194H186.668ZM191.27 194.18C190.782 194.18 190.346 194.12 189.962 194C189.586 193.872 189.202 193.652 188.81 193.34C188.69 193.252 188.63 193.152 188.63 193.04C188.63 192.952 188.674 192.856 188.762 192.752L188.942 192.548C189.038 192.436 189.142 192.38 189.254 192.38C189.342 192.38 189.438 192.42 189.542 192.5C189.878 192.748 190.174 192.92 190.43 193.016C190.686 193.104 190.974 193.148 191.294 193.148C191.638 193.148 191.918 193.08 192.134 192.944C192.358 192.8 192.47 192.608 192.47 192.368C192.47 192.184 192.406 192.04 192.278 191.936C192.158 191.824 191.998 191.74 191.798 191.684C191.598 191.62 191.302 191.548 190.91 191.468C190.358 191.348 189.926 191.22 189.614 191.084C189.31 190.94 189.09 190.76 188.954 190.544C188.818 190.328 188.75 190.052 188.75 189.716C188.75 189.372 188.846 189.064 189.038 188.792C189.238 188.52 189.514 188.304 189.866 188.144C190.226 187.984 190.646 187.904 191.126 187.904C191.558 187.904 191.942 187.952 192.278 188.048C192.622 188.144 192.958 188.308 193.286 188.54C193.414 188.636 193.478 188.744 193.478 188.864C193.478 188.944 193.438 189.036 193.358 189.14L193.202 189.332C193.114 189.444 193.006 189.5 192.878 189.5C192.782 189.5 192.69 189.468 192.602 189.404C192.338 189.228 192.094 189.108 191.87 189.044C191.646 188.972 191.394 188.936 191.114 188.936C190.77 188.936 190.494 189.004 190.286 189.14C190.078 189.276 189.974 189.452 189.974 189.668C189.974 189.812 190.022 189.928 190.118 190.016C190.222 190.096 190.366 190.168 190.55 190.232C190.742 190.288 191.042 190.36 191.45 190.448C192.002 190.568 192.438 190.704 192.758 190.856C193.086 191 193.326 191.188 193.478 191.42C193.638 191.644 193.718 191.936 193.718 192.296C193.718 192.856 193.494 193.312 193.046 193.664C192.606 194.008 192.014 194.18 191.27 194.18ZM197.647 192.992C197.671 192.984 197.707 192.98 197.755 192.98C197.955 192.98 198.075 193.096 198.115 193.328L198.151 193.52C198.159 193.544 198.163 193.584 198.163 193.64C198.163 193.84 198.051 193.968 197.827 194.024C197.507 194.096 197.215 194.132 196.951 194.132C196.383 194.132 195.971 194 195.715 193.736C195.467 193.472 195.343 193.076 195.343 192.548V189.056H194.683C194.555 189.056 194.451 189.02 194.371 188.948C194.299 188.868 194.263 188.764 194.263 188.636V188.504C194.263 188.368 194.299 188.264 194.371 188.192C194.451 188.12 194.555 188.084 194.683 188.084H195.343V186.596C195.343 186.46 195.379 186.356 195.451 186.284C195.531 186.212 195.635 186.176 195.763 186.176H196.195C196.331 186.176 196.435 186.212 196.507 186.284C196.579 186.356 196.615 186.46 196.615 186.596V188.084H197.695C197.831 188.084 197.935 188.12 198.007 188.192C198.079 188.264 198.115 188.368 198.115 188.504V188.636C198.115 188.764 198.079 188.868 198.007 188.948C197.935 189.02 197.831 189.056 197.695 189.056H196.615V192.392C196.615 192.624 196.663 192.788 196.759 192.884C196.863 192.98 197.027 193.028 197.251 193.028C197.347 193.028 197.479 193.016 197.647 192.992ZM205.457 188.432C205.529 188.2 205.685 188.084 205.925 188.084H206.369C206.617 188.084 206.741 188.184 206.741 188.384C206.741 188.44 206.729 188.5 206.705 188.564L204.965 193.664C204.893 193.888 204.733 194 204.485 194H203.633C203.385 194 203.225 193.888 203.153 193.664L201.413 188.564C201.389 188.5 201.377 188.44 201.377 188.384C201.377 188.184 201.501 188.084 201.749 188.084H202.229C202.469 188.084 202.625 188.2 202.697 188.432L203.249 190.148C203.609 191.3 203.885 192.236 204.077 192.956C204.333 192.004 204.609 191.068 204.905 190.148L205.457 188.432ZM208.4 186.932C208.168 186.932 207.972 186.856 207.812 186.704C207.652 186.544 207.572 186.356 207.572 186.14C207.572 185.916 207.652 185.728 207.812 185.576C207.972 185.424 208.168 185.348 208.4 185.348C208.632 185.348 208.828 185.424 208.988 185.576C209.148 185.728 209.228 185.916 209.228 186.14C209.228 186.356 209.148 186.544 208.988 186.704C208.828 186.856 208.632 186.932 208.4 186.932ZM208.172 194C208.044 194 207.94 193.964 207.86 193.892C207.788 193.812 207.752 193.708 207.752 193.58V188.504C207.752 188.368 207.788 188.264 207.86 188.192C207.94 188.12 208.044 188.084 208.172 188.084H208.604C208.74 188.084 208.844 188.12 208.916 188.192C208.988 188.264 209.024 188.368 209.024 188.504V193.58C209.024 193.708 208.988 193.812 208.916 193.892C208.844 193.964 208.74 194 208.604 194H208.172ZM214.73 192.488C214.834 192.4 214.934 192.356 215.03 192.356C215.126 192.356 215.226 192.408 215.33 192.512L215.498 192.692C215.586 192.796 215.63 192.896 215.63 192.992C215.63 193.096 215.578 193.196 215.474 193.292C215.106 193.612 214.738 193.84 214.37 193.976C214.01 194.112 213.61 194.18 213.17 194.18C212.554 194.18 212.018 194.052 211.562 193.796C211.114 193.54 210.766 193.18 210.518 192.716C210.278 192.244 210.158 191.7 210.158 191.084C210.158 190.476 210.274 189.932 210.506 189.452C210.746 188.964 211.082 188.584 211.514 188.312C211.954 188.04 212.466 187.904 213.05 187.904C213.922 187.904 214.594 188.164 215.066 188.684C215.538 189.196 215.774 189.904 215.774 190.808V190.916C215.766 191.044 215.726 191.144 215.654 191.216C215.582 191.288 215.478 191.324 215.342 191.324H211.406C211.454 191.852 211.626 192.284 211.922 192.62C212.226 192.948 212.65 193.112 213.194 193.112C213.49 193.112 213.75 193.068 213.974 192.98C214.198 192.884 214.45 192.72 214.73 192.488ZM213.026 188.912C212.586 188.912 212.23 189.044 211.958 189.308C211.694 189.564 211.522 189.928 211.442 190.4H214.526C214.494 189.936 214.35 189.572 214.094 189.308C213.838 189.044 213.482 188.912 213.026 188.912ZM223.54 188.444C223.596 188.204 223.752 188.084 224.008 188.084H224.452C224.572 188.084 224.664 188.112 224.728 188.168C224.8 188.216 224.836 188.292 224.836 188.396C224.836 188.42 224.828 188.472 224.812 188.552L223.384 193.64C223.328 193.88 223.172 194 222.916 194H222.136C221.896 194 221.74 193.88 221.668 193.64L221.272 192.248C221.096 191.632 220.9 190.86 220.684 189.932L220.624 189.668C220.408 190.644 220.2 191.508 220 192.26L219.628 193.64C219.572 193.88 219.416 194 219.16 194H218.392C218.152 194 217.996 193.88 217.924 193.64L216.484 188.552C216.468 188.472 216.46 188.42 216.46 188.396C216.46 188.292 216.492 188.216 216.556 188.168C216.628 188.112 216.724 188.084 216.844 188.084H217.312C217.568 188.084 217.724 188.204 217.78 188.444L218.212 190.148C218.38 190.772 218.576 191.604 218.8 192.644L218.848 192.884C219.08 191.812 219.296 190.9 219.496 190.148L219.952 188.444C220.008 188.204 220.164 188.084 220.42 188.084H220.876C221.132 188.084 221.288 188.204 221.344 188.444L221.812 190.148C222.036 190.98 222.26 191.892 222.484 192.884C222.652 192.028 222.86 191.116 223.108 190.148L223.54 188.444Z" fill="#474445"/>
<rect x="147.5" y="174.5" width="86" height="31" rx="3.5" stroke="#C3CCD9"/>
<path d="M38.9 52C38.764 52 38.672 51.936 38.624 51.808L37.832 49.612H33.956L33.176 51.808C33.128 51.936 33.036 52 32.9 52H32.528C32.464 52 32.412 51.984 32.372 51.952C32.332 51.92 32.312 51.876 32.312 51.82L32.336 51.724L35.276 43.672C35.324 43.544 35.416 43.48 35.552 43.48H36.248C36.384 43.48 36.476 43.544 36.524 43.672L39.464 51.724L39.488 51.82C39.488 51.876 39.468 51.92 39.428 51.952C39.388 51.984 39.336 52 39.272 52H38.9ZM37.568 48.892L37.148 47.716L37.052 47.464C36.94 47.16 36.756 46.652 36.5 45.94C36.252 45.228 36.048 44.624 35.888 44.128C35.672 44.808 35.332 45.796 34.868 47.092C34.836 47.18 34.8 47.276 34.76 47.38C34.72 47.484 34.68 47.596 34.64 47.716L34.22 48.892H37.568ZM40.9447 52C40.7847 52 40.7047 51.92 40.7047 51.76V43.72C40.7047 43.56 40.7847 43.48 40.9447 43.48H41.2567C41.4167 43.48 41.4967 43.56 41.4967 43.72V51.76C41.4967 51.92 41.4167 52 41.2567 52H40.9447ZM43.5345 52C43.3745 52 43.2945 51.92 43.2945 51.76V43.72C43.2945 43.56 43.3745 43.48 43.5345 43.48H43.8465C44.0065 43.48 44.0865 43.56 44.0865 43.72V51.76C44.0865 51.92 44.0065 52 43.8465 52H43.5345ZM48.3204 52.156C47.7684 52.156 47.2764 52.024 46.8444 51.76C46.4124 51.496 46.0764 51.132 45.8364 50.668C45.5964 50.196 45.4764 49.656 45.4764 49.048C45.4764 48.44 45.5964 47.904 45.8364 47.44C46.0764 46.968 46.4124 46.6 46.8444 46.336C47.2764 46.072 47.7684 45.94 48.3204 45.94C48.8724 45.94 49.3644 46.072 49.7964 46.336C50.2284 46.6 50.5644 46.968 50.8044 47.44C51.0444 47.904 51.1644 48.44 51.1644 49.048C51.1644 49.656 51.0444 50.196 50.8044 50.668C50.5644 51.132 50.2284 51.496 49.7964 51.76C49.3644 52.024 48.8724 52.156 48.3204 52.156ZM48.3204 51.496C48.9364 51.496 49.4284 51.272 49.7964 50.824C50.1644 50.368 50.3484 49.776 50.3484 49.048C50.3484 48.32 50.1644 47.732 49.7964 47.284C49.4284 46.828 48.9364 46.6 48.3204 46.6C47.7044 46.6 47.2124 46.828 46.8444 47.284C46.4764 47.732 46.2924 48.32 46.2924 49.048C46.2924 49.776 46.4764 50.368 46.8444 50.824C47.2124 51.272 47.7044 51.496 48.3204 51.496ZM59.0466 46.288C59.0786 46.152 59.1706 46.084 59.3226 46.084H59.6466C59.7346 46.084 59.7946 46.108 59.8266 46.156C59.8666 46.204 59.8746 46.268 59.8506 46.348L58.3026 51.796C58.2706 51.932 58.1786 52 58.0266 52H57.4866C57.3506 52 57.2626 51.932 57.2226 51.796L56.6706 49.96C56.3826 49 56.1146 48.016 55.8666 47.008C55.6266 47.984 55.3626 48.976 55.0746 49.984L54.5466 51.796C54.5146 51.932 54.4226 52 54.2706 52H53.7546C53.6026 52 53.5106 51.932 53.4786 51.796L51.9306 46.348C51.9226 46.332 51.9186 46.304 51.9186 46.264C51.9186 46.208 51.9386 46.164 51.9786 46.132C52.0186 46.1 52.0706 46.084 52.1346 46.084H52.4586C52.6106 46.084 52.7026 46.152 52.7346 46.288L53.3106 48.412C53.5746 49.38 53.8186 50.344 54.0426 51.304C54.2186 50.592 54.4786 49.628 54.8226 48.412L55.4346 46.288C55.4666 46.152 55.5586 46.084 55.7106 46.084H56.0706C56.2146 46.084 56.3026 46.152 56.3346 46.288L56.9586 48.412C57.2306 49.396 57.4866 50.364 57.7266 51.316C57.9106 50.516 58.1586 49.548 58.4706 48.412L59.0466 46.288ZM63.1708 52.156C62.6828 52.156 62.2508 52.088 61.8748 51.952C61.5068 51.808 61.1188 51.568 60.7108 51.232C60.6388 51.184 60.6028 51.128 60.6028 51.064C60.6028 51.008 60.6308 50.952 60.6868 50.896L60.8428 50.728C60.8908 50.664 60.9508 50.632 61.0228 50.632C61.0788 50.632 61.1308 50.656 61.1788 50.704C61.5628 51 61.9028 51.208 62.1988 51.328C62.4948 51.44 62.8188 51.496 63.1708 51.496C63.6108 51.496 63.9708 51.4 64.2508 51.208C64.5308 51.008 64.6708 50.74 64.6708 50.404C64.6708 50.068 64.5268 49.82 64.2388 49.66C63.9508 49.5 63.5068 49.356 62.9068 49.228C62.3788 49.116 61.9628 49 61.6588 48.88C61.3628 48.752 61.1428 48.592 60.9988 48.4C60.8548 48.208 60.7828 47.956 60.7828 47.644C60.7828 47.132 60.9908 46.72 61.4068 46.408C61.8228 46.096 62.3468 45.94 62.9788 45.94C63.4108 45.94 63.7948 45.996 64.1308 46.108C64.4748 46.212 64.8188 46.388 65.1628 46.636C65.2348 46.692 65.2708 46.752 65.2708 46.816C65.2708 46.856 65.2508 46.908 65.2108 46.972L65.0668 47.152C65.0268 47.216 64.9708 47.248 64.8988 47.248C64.8348 47.248 64.7788 47.228 64.7308 47.188C64.4028 46.956 64.1108 46.8 63.8548 46.72C63.6068 46.64 63.3228 46.6 63.0028 46.6C62.5628 46.6 62.2108 46.696 61.9468 46.888C61.6828 47.08 61.5508 47.324 61.5508 47.62C61.5508 47.804 61.6108 47.952 61.7308 48.064C61.8508 48.176 62.0228 48.272 62.2468 48.352C62.4708 48.424 62.7988 48.508 63.2308 48.604C64.0308 48.78 64.5988 48.996 64.9348 49.252C65.2788 49.508 65.4508 49.88 65.4508 50.368C65.4508 50.904 65.2388 51.336 64.8148 51.664C64.3908 51.992 63.8428 52.156 63.1708 52.156ZM73.864 50.596C73.92 50.54 73.98 50.512 74.044 50.512C74.1 50.512 74.152 50.536 74.2 50.584L74.356 50.728C74.412 50.784 74.44 50.844 74.44 50.908C74.44 50.956 74.416 51.012 74.368 51.076C73.976 51.468 73.596 51.748 73.228 51.916C72.86 52.076 72.448 52.156 71.992 52.156C71.416 52.156 70.916 52.028 70.492 51.772C70.068 51.516 69.74 51.16 69.508 50.704C69.276 50.24 69.16 49.704 69.16 49.096C69.16 48.48 69.272 47.936 69.496 47.464C69.728 46.984 70.052 46.612 70.468 46.348C70.884 46.076 71.364 45.94 71.908 45.94C72.716 45.94 73.352 46.192 73.816 46.696C74.28 47.2 74.512 47.88 74.512 48.736V48.88C74.504 48.952 74.476 49.008 74.428 49.048C74.388 49.088 74.332 49.108 74.26 49.108H69.964C69.988 49.78 70.164 50.348 70.492 50.812C70.828 51.268 71.328 51.496 71.992 51.496C72.352 51.496 72.668 51.432 72.94 51.304C73.22 51.168 73.528 50.932 73.864 50.596ZM71.908 46.6C71.38 46.6 70.944 46.764 70.6 47.092C70.264 47.412 70.06 47.884 69.988 48.508H73.72C73.704 47.924 73.536 47.46 73.216 47.116C72.896 46.772 72.46 46.6 71.908 46.6ZM81.943 45.94C82.583 45.94 83.071 46.124 83.407 46.492C83.751 46.852 83.923 47.316 83.923 47.884V51.76C83.923 51.92 83.843 52 83.683 52H83.371C83.211 52 83.131 51.92 83.131 51.76V48.1C83.131 47.62 83.019 47.252 82.795 46.996C82.579 46.74 82.255 46.612 81.823 46.612C81.367 46.612 81.003 46.764 80.731 47.068C80.459 47.372 80.323 47.764 80.323 48.244V51.76C80.323 51.92 80.243 52 80.083 52H79.771C79.611 52 79.531 51.92 79.531 51.76V48.1C79.531 47.62 79.419 47.252 79.195 46.996C78.979 46.74 78.651 46.612 78.211 46.612C77.803 46.612 77.463 46.74 77.191 46.996C76.927 47.252 76.771 47.588 76.723 48.004V51.76C76.723 51.92 76.643 52 76.483 52H76.171C76.011 52 75.931 51.92 75.931 51.76V46.324C75.931 46.164 76.011 46.084 76.171 46.084H76.435C76.595 46.084 76.675 46.164 76.675 46.324V46.816C77.035 46.232 77.607 45.94 78.391 45.94C78.799 45.94 79.147 46.032 79.435 46.216C79.731 46.392 79.951 46.632 80.095 46.936C80.519 46.272 81.135 45.94 81.943 45.94ZM88.5013 45.952C88.9973 45.952 89.4413 46.084 89.8333 46.348C90.2333 46.604 90.5453 46.968 90.7693 47.44C90.9933 47.904 91.1053 48.436 91.1053 49.036C91.1053 49.644 90.9933 50.184 90.7693 50.656C90.5453 51.128 90.2373 51.496 89.8453 51.76C89.4533 52.016 89.0053 52.144 88.5013 52.144C87.5733 52.144 86.8933 51.804 86.4613 51.124V53.968C86.4613 54.128 86.3813 54.208 86.2213 54.208H85.9093C85.7493 54.208 85.6693 54.128 85.6693 53.968V46.324C85.6693 46.164 85.7493 46.084 85.9093 46.084H86.1733C86.3333 46.084 86.4133 46.164 86.4133 46.324V47.08C86.6293 46.712 86.9133 46.432 87.2653 46.24C87.6173 46.048 88.0293 45.952 88.5013 45.952ZM88.4413 51.472C89.0013 51.472 89.4493 51.248 89.7853 50.8C90.1213 50.352 90.2893 49.764 90.2893 49.036C90.2893 48.316 90.1213 47.736 89.7853 47.296C89.4493 46.848 89.0013 46.624 88.4413 46.624C87.8413 46.624 87.3533 46.84 86.9773 47.272C86.6093 47.696 86.4253 48.284 86.4253 49.036C86.4253 49.788 86.6133 50.384 86.9893 50.824C87.3653 51.256 87.8493 51.472 88.4413 51.472ZM95.0012 51.34C95.0252 51.332 95.0572 51.328 95.0972 51.328C95.1452 51.328 95.1892 51.344 95.2292 51.376C95.2692 51.408 95.2932 51.452 95.3012 51.508L95.3372 51.676C95.3452 51.692 95.3492 51.72 95.3492 51.76C95.3492 51.872 95.2892 51.94 95.1692 51.964C94.8812 52.052 94.5732 52.096 94.2452 52.096C93.7252 52.096 93.3532 51.98 93.1292 51.748C92.9132 51.508 92.8052 51.164 92.8052 50.716V46.684H91.9172C91.7572 46.684 91.6772 46.604 91.6772 46.444V46.324C91.6772 46.164 91.7572 46.084 91.9172 46.084H92.8052V44.26C92.8052 44.1 92.8852 44.02 93.0452 44.02H93.3572C93.5172 44.02 93.5972 44.1 93.5972 44.26V46.084H95.0372C95.1972 46.084 95.2772 46.164 95.2772 46.324V46.444C95.2772 46.604 95.1972 46.684 95.0372 46.684H93.5972V50.62C93.5972 50.916 93.6532 51.124 93.7652 51.244C93.8772 51.364 94.0692 51.424 94.3412 51.424C94.5332 51.424 94.7532 51.396 95.0012 51.34ZM100.287 46.276C100.335 46.148 100.427 46.084 100.563 46.084H100.887C100.951 46.084 101.003 46.1 101.043 46.132C101.083 46.164 101.103 46.208 101.103 46.264L101.079 46.36L98.7626 52.9C98.6346 53.26 98.5106 53.54 98.3906 53.74C98.2706 53.94 98.1066 54.092 97.8986 54.196C97.6986 54.3 97.4346 54.352 97.1066 54.352C96.8986 54.352 96.7146 54.336 96.5546 54.304C96.4746 54.296 96.4186 54.264 96.3866 54.208C96.3626 54.152 96.3586 54.088 96.3746 54.016L96.4106 53.86C96.4426 53.716 96.5346 53.652 96.6866 53.668C96.8306 53.692 96.9546 53.704 97.0586 53.704C97.3146 53.704 97.5146 53.632 97.6586 53.488C97.8106 53.344 97.9546 53.072 98.0906 52.672L98.1986 52.336L96.0866 46.36L96.0626 46.264C96.0626 46.208 96.0826 46.164 96.1226 46.132C96.1626 46.1 96.2146 46.084 96.2786 46.084H96.6266C96.7546 46.084 96.8426 46.148 96.8906 46.276L97.5626 48.256C97.6266 48.456 97.7866 48.932 98.0426 49.684L98.5826 51.304C98.8466 50.56 99.1946 49.536 99.6266 48.232L100.287 46.276ZM107.011 52.156C106.523 52.156 106.091 52.088 105.715 51.952C105.347 51.808 104.959 51.568 104.551 51.232C104.479 51.184 104.443 51.128 104.443 51.064C104.443 51.008 104.471 50.952 104.527 50.896L104.683 50.728C104.731 50.664 104.791 50.632 104.863 50.632C104.919 50.632 104.971 50.656 105.019 50.704C105.403 51 105.743 51.208 106.039 51.328C106.335 51.44 106.659 51.496 107.011 51.496C107.451 51.496 107.811 51.4 108.091 51.208C108.371 51.008 108.511 50.74 108.511 50.404C108.511 50.068 108.367 49.82 108.079 49.66C107.791 49.5 107.347 49.356 106.747 49.228C106.219 49.116 105.803 49 105.499 48.88C105.203 48.752 104.983 48.592 104.839 48.4C104.695 48.208 104.623 47.956 104.623 47.644C104.623 47.132 104.831 46.72 105.247 46.408C105.663 46.096 106.187 45.94 106.819 45.94C107.251 45.94 107.635 45.996 107.971 46.108C108.315 46.212 108.659 46.388 109.003 46.636C109.075 46.692 109.111 46.752 109.111 46.816C109.111 46.856 109.091 46.908 109.051 46.972L108.907 47.152C108.867 47.216 108.811 47.248 108.739 47.248C108.675 47.248 108.619 47.228 108.571 47.188C108.243 46.956 107.951 46.8 107.695 46.72C107.447 46.64 107.163 46.6 106.843 46.6C106.403 46.6 106.051 46.696 105.787 46.888C105.523 47.08 105.391 47.324 105.391 47.62C105.391 47.804 105.451 47.952 105.571 48.064C105.691 48.176 105.863 48.272 106.087 48.352C106.311 48.424 106.639 48.508 107.071 48.604C107.871 48.78 108.439 48.996 108.775 49.252C109.119 49.508 109.291 49.88 109.291 50.368C109.291 50.904 109.079 51.336 108.655 51.664C108.231 51.992 107.683 52.156 107.011 52.156ZM114.938 50.596C114.994 50.54 115.054 50.512 115.118 50.512C115.174 50.512 115.226 50.536 115.274 50.584L115.43 50.728C115.486 50.784 115.514 50.844 115.514 50.908C115.514 50.956 115.49 51.012 115.442 51.076C115.05 51.468 114.67 51.748 114.302 51.916C113.934 52.076 113.522 52.156 113.066 52.156C112.49 52.156 111.99 52.028 111.566 51.772C111.142 51.516 110.814 51.16 110.582 50.704C110.35 50.24 110.234 49.704 110.234 49.096C110.234 48.48 110.346 47.936 110.57 47.464C110.802 46.984 111.126 46.612 111.542 46.348C111.958 46.076 112.438 45.94 112.982 45.94C113.79 45.94 114.426 46.192 114.89 46.696C115.354 47.2 115.586 47.88 115.586 48.736V48.88C115.578 48.952 115.55 49.008 115.502 49.048C115.462 49.088 115.406 49.108 115.334 49.108H111.038C111.062 49.78 111.238 50.348 111.566 50.812C111.902 51.268 112.402 51.496 113.066 51.496C113.426 51.496 113.742 51.432 114.014 51.304C114.294 51.168 114.602 50.932 114.938 50.596ZM112.982 46.6C112.454 46.6 112.018 46.764 111.674 47.092C111.338 47.412 111.134 47.884 111.062 48.508H114.794C114.778 47.924 114.61 47.46 114.29 47.116C113.97 46.772 113.534 46.6 112.982 46.6ZM117.257 52C117.097 52 117.017 51.92 117.017 51.76V43.72C117.017 43.56 117.097 43.48 117.257 43.48H117.569C117.729 43.48 117.809 43.56 117.809 43.72V51.76C117.809 51.92 117.729 52 117.569 52H117.257ZM123.903 50.596C123.959 50.54 124.019 50.512 124.083 50.512C124.139 50.512 124.191 50.536 124.239 50.584L124.395 50.728C124.451 50.784 124.479 50.844 124.479 50.908C124.479 50.956 124.455 51.012 124.407 51.076C124.015 51.468 123.635 51.748 123.267 51.916C122.899 52.076 122.487 52.156 122.031 52.156C121.455 52.156 120.955 52.028 120.531 51.772C120.107 51.516 119.779 51.16 119.547 50.704C119.315 50.24 119.199 49.704 119.199 49.096C119.199 48.48 119.311 47.936 119.535 47.464C119.767 46.984 120.091 46.612 120.507 46.348C120.923 46.076 121.403 45.94 121.947 45.94C122.755 45.94 123.391 46.192 123.855 46.696C124.319 47.2 124.551 47.88 124.551 48.736V48.88C124.543 48.952 124.515 49.008 124.467 49.048C124.427 49.088 124.371 49.108 124.299 49.108H120.003C120.027 49.78 120.203 50.348 120.531 50.812C120.867 51.268 121.367 51.496 122.031 51.496C122.391 51.496 122.707 51.432 122.979 51.304C123.259 51.168 123.567 50.932 123.903 50.596ZM121.947 46.6C121.419 46.6 120.983 46.764 120.639 47.092C120.303 47.412 120.099 47.884 120.027 48.508H123.759C123.743 47.924 123.575 47.46 123.255 47.116C122.935 46.772 122.499 46.6 121.947 46.6ZM128.382 52.156C127.814 52.156 127.318 52.028 126.894 51.772C126.478 51.508 126.154 51.144 125.922 50.68C125.698 50.208 125.586 49.664 125.586 49.048C125.586 48.44 125.698 47.9 125.922 47.428C126.154 46.956 126.478 46.592 126.894 46.336C127.318 46.072 127.806 45.94 128.358 45.94C128.806 45.94 129.198 46.016 129.534 46.168C129.87 46.312 130.194 46.552 130.506 46.888C130.554 46.936 130.578 46.988 130.578 47.044C130.578 47.116 130.546 47.176 130.482 47.224L130.314 47.38C130.266 47.428 130.21 47.452 130.146 47.452C130.09 47.452 130.03 47.42 129.966 47.356C129.686 47.076 129.418 46.88 129.162 46.768C128.914 46.656 128.638 46.6 128.334 46.6C127.918 46.6 127.562 46.716 127.266 46.948C126.978 47.18 126.762 47.484 126.618 47.86C126.474 48.228 126.402 48.624 126.402 49.048C126.402 49.472 126.474 49.872 126.618 50.248C126.762 50.616 126.982 50.916 127.278 51.148C127.574 51.372 127.938 51.484 128.37 51.484C128.69 51.484 128.97 51.428 129.21 51.316C129.458 51.196 129.734 50.972 130.038 50.644C130.102 50.58 130.162 50.548 130.218 50.548C130.282 50.548 130.338 50.572 130.386 50.62L130.554 50.752C130.61 50.8 130.638 50.856 130.638 50.92C130.638 50.984 130.602 51.06 130.53 51.148C130.194 51.516 129.858 51.776 129.522 51.928C129.186 52.08 128.806 52.156 128.382 52.156ZM134.622 51.34C134.646 51.332 134.678 51.328 134.718 51.328C134.766 51.328 134.81 51.344 134.85 51.376C134.89 51.408 134.914 51.452 134.922 51.508L134.958 51.676C134.966 51.692 134.97 51.72 134.97 51.76C134.97 51.872 134.91 51.94 134.79 51.964C134.502 52.052 134.194 52.096 133.866 52.096C133.346 52.096 132.974 51.98 132.75 51.748C132.534 51.508 132.426 51.164 132.426 50.716V46.684H131.538C131.378 46.684 131.298 46.604 131.298 46.444V46.324C131.298 46.164 131.378 46.084 131.538 46.084H132.426V44.26C132.426 44.1 132.506 44.02 132.666 44.02H132.978C133.138 44.02 133.218 44.1 133.218 44.26V46.084H134.658C134.818 46.084 134.898 46.164 134.898 46.324V46.444C134.898 46.604 134.818 46.684 134.658 46.684H133.218V50.62C133.218 50.916 133.274 51.124 133.386 51.244C133.498 51.364 133.69 51.424 133.962 51.424C134.154 51.424 134.374 51.396 134.622 51.34ZM136.503 44.584C136.343 44.584 136.207 44.528 136.095 44.416C135.991 44.304 135.939 44.168 135.939 44.008C135.939 43.848 135.991 43.716 136.095 43.612C136.207 43.508 136.343 43.456 136.503 43.456C136.671 43.456 136.807 43.508 136.911 43.612C137.023 43.716 137.079 43.848 137.079 44.008C137.079 44.168 137.023 44.304 136.911 44.416C136.807 44.528 136.671 44.584 136.503 44.584ZM136.347 52C136.187 52 136.107 51.92 136.107 51.76V46.324C136.107 46.164 136.187 46.084 136.347 46.084H136.659C136.819 46.084 136.899 46.164 136.899 46.324V51.76C136.899 51.92 136.819 52 136.659 52H136.347ZM141.109 52.156C140.557 52.156 140.065 52.024 139.633 51.76C139.201 51.496 138.865 51.132 138.625 50.668C138.385 50.196 138.265 49.656 138.265 49.048C138.265 48.44 138.385 47.904 138.625 47.44C138.865 46.968 139.201 46.6 139.633 46.336C140.065 46.072 140.557 45.94 141.109 45.94C141.661 45.94 142.153 46.072 142.585 46.336C143.017 46.6 143.353 46.968 143.593 47.44C143.833 47.904 143.953 48.44 143.953 49.048C143.953 49.656 143.833 50.196 143.593 50.668C143.353 51.132 143.017 51.496 142.585 51.76C142.153 52.024 141.661 52.156 141.109 52.156ZM141.109 51.496C141.725 51.496 142.217 51.272 142.585 50.824C142.953 50.368 143.137 49.776 143.137 49.048C143.137 48.32 142.953 47.732 142.585 47.284C142.217 46.828 141.725 46.6 141.109 46.6C140.493 46.6 140.001 46.828 139.633 47.284C139.265 47.732 139.081 48.32 139.081 49.048C139.081 49.776 139.265 50.368 139.633 50.824C140.001 51.272 140.493 51.496 141.109 51.496ZM147.969 45.94C148.665 45.94 149.189 46.132 149.541 46.516C149.901 46.9 150.081 47.38 150.081 47.956V51.76C150.081 51.92 150.001 52 149.841 52H149.529C149.369 52 149.289 51.92 149.289 51.76V48.22C149.289 47.692 149.161 47.292 148.905 47.02C148.649 46.748 148.281 46.612 147.801 46.612C147.497 46.612 147.217 46.688 146.961 46.84C146.705 46.984 146.501 47.184 146.349 47.44C146.197 47.696 146.121 47.976 146.121 48.28V51.76C146.121 51.92 146.041 52 145.881 52H145.569C145.409 52 145.329 51.92 145.329 51.76V46.324C145.329 46.164 145.409 46.084 145.569 46.084H145.833C145.993 46.084 146.073 46.164 146.073 46.324V46.9C146.273 46.58 146.537 46.34 146.865 46.18C147.193 46.02 147.561 45.94 147.969 45.94Z" fill="#767676"/>
<path d="M38.852 145.72C38.852 145.56 38.932 145.48 39.092 145.48H39.44C39.6 145.48 39.68 145.56 39.68 145.72V153.76C39.68 153.92 39.6 154 39.44 154H38.9C38.772 154 38.672 153.948 38.6 153.844L36.02 149.932L35.876 149.704C34.916 148.264 34.228 147.204 33.812 146.524C33.844 147.46 33.86 148.54 33.86 149.764V153.76C33.86 153.92 33.78 154 33.62 154H33.272C33.112 154 33.032 153.92 33.032 153.76V145.72C33.032 145.56 33.112 145.48 33.272 145.48H33.812C33.94 145.48 34.04 145.532 34.112 145.636L36.68 149.536L37.136 150.244C37.944 151.468 38.532 152.38 38.9 152.98C38.868 152.028 38.852 150.944 38.852 149.728V145.72ZM44.043 154.156C43.491 154.156 42.999 154.024 42.567 153.76C42.135 153.496 41.799 153.132 41.559 152.668C41.319 152.196 41.199 151.656 41.199 151.048C41.199 150.44 41.319 149.904 41.559 149.44C41.799 148.968 42.135 148.6 42.567 148.336C42.999 148.072 43.491 147.94 44.043 147.94C44.595 147.94 45.087 148.072 45.519 148.336C45.951 148.6 46.287 148.968 46.527 149.44C46.767 149.904 46.887 150.44 46.887 151.048C46.887 151.656 46.767 152.196 46.527 152.668C46.287 153.132 45.951 153.496 45.519 153.76C45.087 154.024 44.595 154.156 44.043 154.156ZM44.043 153.496C44.659 153.496 45.151 153.272 45.519 152.824C45.887 152.368 46.071 151.776 46.071 151.048C46.071 150.32 45.887 149.732 45.519 149.284C45.151 148.828 44.659 148.6 44.043 148.6C43.427 148.6 42.935 148.828 42.567 149.284C42.199 149.732 42.015 150.32 42.015 151.048C42.015 151.776 42.199 152.368 42.567 152.824C42.935 153.272 43.427 153.496 44.043 153.496ZM55.3366 152.596C55.3926 152.54 55.4526 152.512 55.5166 152.512C55.5726 152.512 55.6246 152.536 55.6726 152.584L55.8286 152.728C55.8846 152.784 55.9126 152.844 55.9126 152.908C55.9126 152.956 55.8886 153.012 55.8406 153.076C55.4486 153.468 55.0686 153.748 54.7006 153.916C54.3326 154.076 53.9206 154.156 53.4646 154.156C52.8886 154.156 52.3886 154.028 51.9646 153.772C51.5406 153.516 51.2126 153.16 50.9806 152.704C50.7486 152.24 50.6326 151.704 50.6326 151.096C50.6326 150.48 50.7446 149.936 50.9686 149.464C51.2006 148.984 51.5246 148.612 51.9406 148.348C52.3566 148.076 52.8366 147.94 53.3806 147.94C54.1886 147.94 54.8246 148.192 55.2886 148.696C55.7526 149.2 55.9846 149.88 55.9846 150.736V150.88C55.9766 150.952 55.9486 151.008 55.9006 151.048C55.8606 151.088 55.8046 151.108 55.7326 151.108H51.4366C51.4606 151.78 51.6366 152.348 51.9646 152.812C52.3006 153.268 52.8006 153.496 53.4646 153.496C53.8246 153.496 54.1406 153.432 54.4126 153.304C54.6926 153.168 55.0006 152.932 55.3366 152.596ZM53.3806 148.6C52.8526 148.6 52.4166 148.764 52.0726 149.092C51.7366 149.412 51.5326 149.884 51.4606 150.508H55.1926C55.1766 149.924 55.0086 149.46 54.6886 149.116C54.3686 148.772 53.9326 148.6 53.3806 148.6ZM63.4156 147.94C64.0556 147.94 64.5436 148.124 64.8796 148.492C65.2236 148.852 65.3956 149.316 65.3956 149.884V153.76C65.3956 153.92 65.3156 154 65.1556 154H64.8436C64.6836 154 64.6036 153.92 64.6036 153.76V150.1C64.6036 149.62 64.4916 149.252 64.2676 148.996C64.0516 148.74 63.7276 148.612 63.2956 148.612C62.8396 148.612 62.4756 148.764 62.2036 149.068C61.9316 149.372 61.7956 149.764 61.7956 150.244V153.76C61.7956 153.92 61.7156 154 61.5556 154H61.2436C61.0836 154 61.0036 153.92 61.0036 153.76V150.1C61.0036 149.62 60.8916 149.252 60.6676 148.996C60.4516 148.74 60.1236 148.612 59.6836 148.612C59.2756 148.612 58.9356 148.74 58.6636 148.996C58.3996 149.252 58.2436 149.588 58.1956 150.004V153.76C58.1956 153.92 58.1156 154 57.9556 154H57.6436C57.4836 154 57.4036 153.92 57.4036 153.76V148.324C57.4036 148.164 57.4836 148.084 57.6436 148.084H57.9076C58.0676 148.084 58.1476 148.164 58.1476 148.324V148.816C58.5076 148.232 59.0796 147.94 59.8636 147.94C60.2716 147.94 60.6196 148.032 60.9076 148.216C61.2036 148.392 61.4236 148.632 61.5676 148.936C61.9916 148.272 62.6076 147.94 63.4156 147.94ZM69.9739 147.952C70.4699 147.952 70.9139 148.084 71.3059 148.348C71.7059 148.604 72.0179 148.968 72.2419 149.44C72.4659 149.904 72.5779 150.436 72.5779 151.036C72.5779 151.644 72.4659 152.184 72.2419 152.656C72.0179 153.128 71.7099 153.496 71.3179 153.76C70.9259 154.016 70.4779 154.144 69.9739 154.144C69.0459 154.144 68.3659 153.804 67.9339 153.124V155.968C67.9339 156.128 67.8539 156.208 67.6939 156.208H67.3819C67.2219 156.208 67.1419 156.128 67.1419 155.968V148.324C67.1419 148.164 67.2219 148.084 67.3819 148.084H67.6459C67.8059 148.084 67.8859 148.164 67.8859 148.324V149.08C68.1019 148.712 68.3859 148.432 68.7379 148.24C69.0899 148.048 69.5019 147.952 69.9739 147.952ZM69.9139 153.472C70.4739 153.472 70.9219 153.248 71.2579 152.8C71.5939 152.352 71.7619 151.764 71.7619 151.036C71.7619 150.316 71.5939 149.736 71.2579 149.296C70.9219 148.848 70.4739 148.624 69.9139 148.624C69.3139 148.624 68.8259 148.84 68.4499 149.272C68.0819 149.696 67.8979 150.284 67.8979 151.036C67.8979 151.788 68.0859 152.384 68.4619 152.824C68.8379 153.256 69.3219 153.472 69.9139 153.472ZM76.4739 153.34C76.4979 153.332 76.5299 153.328 76.5699 153.328C76.6179 153.328 76.6619 153.344 76.7019 153.376C76.7419 153.408 76.7659 153.452 76.7739 153.508L76.8099 153.676C76.8179 153.692 76.8219 153.72 76.8219 153.76C76.8219 153.872 76.7619 153.94 76.6419 153.964C76.3539 154.052 76.0459 154.096 75.7179 154.096C75.1979 154.096 74.8259 153.98 74.6019 153.748C74.3859 153.508 74.2779 153.164 74.2779 152.716V148.684H73.3899C73.2299 148.684 73.1499 148.604 73.1499 148.444V148.324C73.1499 148.164 73.2299 148.084 73.3899 148.084H74.2779V146.26C74.2779 146.1 74.3579 146.02 74.5179 146.02H74.8299C74.9899 146.02 75.0699 146.1 75.0699 146.26V148.084H76.5099C76.6699 148.084 76.7499 148.164 76.7499 148.324V148.444C76.7499 148.604 76.6699 148.684 76.5099 148.684H75.0699V152.62C75.0699 152.916 75.1259 153.124 75.2379 153.244C75.3499 153.364 75.5419 153.424 75.8139 153.424C76.0059 153.424 76.2259 153.396 76.4739 153.34ZM81.7592 148.276C81.8072 148.148 81.8992 148.084 82.0352 148.084H82.3592C82.4232 148.084 82.4752 148.1 82.5152 148.132C82.5552 148.164 82.5752 148.208 82.5752 148.264L82.5512 148.36L80.2352 154.9C80.1072 155.26 79.9832 155.54 79.8632 155.74C79.7432 155.94 79.5792 156.092 79.3712 156.196C79.1712 156.3 78.9072 156.352 78.5792 156.352C78.3712 156.352 78.1872 156.336 78.0272 156.304C77.9472 156.296 77.8912 156.264 77.8592 156.208C77.8352 156.152 77.8312 156.088 77.8472 156.016L77.8832 155.86C77.9152 155.716 78.0072 155.652 78.1592 155.668C78.3032 155.692 78.4272 155.704 78.5312 155.704C78.7872 155.704 78.9872 155.632 79.1312 155.488C79.2832 155.344 79.4272 155.072 79.5632 154.672L79.6712 154.336L77.5592 148.36L77.5352 148.264C77.5352 148.208 77.5552 148.164 77.5952 148.132C77.6352 148.1 77.6872 148.084 77.7512 148.084H78.0992C78.2272 148.084 78.3152 148.148 78.3632 148.276L79.0352 150.256C79.0992 150.456 79.2592 150.932 79.5152 151.684L80.0552 153.304C80.3192 152.56 80.6672 151.536 81.0992 150.232L81.7592 148.276ZM88.4833 154.156C87.9953 154.156 87.5633 154.088 87.1873 153.952C86.8193 153.808 86.4313 153.568 86.0233 153.232C85.9513 153.184 85.9153 153.128 85.9153 153.064C85.9153 153.008 85.9433 152.952 85.9993 152.896L86.1553 152.728C86.2033 152.664 86.2633 152.632 86.3353 152.632C86.3913 152.632 86.4433 152.656 86.4913 152.704C86.8753 153 87.2153 153.208 87.5113 153.328C87.8073 153.44 88.1313 153.496 88.4833 153.496C88.9233 153.496 89.2833 153.4 89.5633 153.208C89.8433 153.008 89.9833 152.74 89.9833 152.404C89.9833 152.068 89.8393 151.82 89.5513 151.66C89.2633 151.5 88.8193 151.356 88.2193 151.228C87.6913 151.116 87.2753 151 86.9713 150.88C86.6753 150.752 86.4553 150.592 86.3113 150.4C86.1673 150.208 86.0953 149.956 86.0953 149.644C86.0953 149.132 86.3033 148.72 86.7193 148.408C87.1353 148.096 87.6593 147.94 88.2913 147.94C88.7233 147.94 89.1073 147.996 89.4433 148.108C89.7873 148.212 90.1313 148.388 90.4753 148.636C90.5473 148.692 90.5833 148.752 90.5833 148.816C90.5833 148.856 90.5633 148.908 90.5233 148.972L90.3793 149.152C90.3393 149.216 90.2833 149.248 90.2113 149.248C90.1473 149.248 90.0913 149.228 90.0433 149.188C89.7153 148.956 89.4233 148.8 89.1673 148.72C88.9193 148.64 88.6353 148.6 88.3153 148.6C87.8753 148.6 87.5233 148.696 87.2593 148.888C86.9953 149.08 86.8633 149.324 86.8633 149.62C86.8633 149.804 86.9233 149.952 87.0433 150.064C87.1633 150.176 87.3353 150.272 87.5593 150.352C87.7833 150.424 88.1113 150.508 88.5433 150.604C89.3433 150.78 89.9113 150.996 90.2473 151.252C90.5913 151.508 90.7633 151.88 90.7633 152.368C90.7633 152.904 90.5513 153.336 90.1273 153.664C89.7033 153.992 89.1553 154.156 88.4833 154.156ZM96.4108 152.596C96.4668 152.54 96.5268 152.512 96.5908 152.512C96.6468 152.512 96.6988 152.536 96.7468 152.584L96.9028 152.728C96.9588 152.784 96.9868 152.844 96.9868 152.908C96.9868 152.956 96.9628 153.012 96.9148 153.076C96.5228 153.468 96.1428 153.748 95.7748 153.916C95.4068 154.076 94.9948 154.156 94.5388 154.156C93.9628 154.156 93.4628 154.028 93.0388 153.772C92.6148 153.516 92.2868 153.16 92.0548 152.704C91.8228 152.24 91.7068 151.704 91.7068 151.096C91.7068 150.48 91.8188 149.936 92.0428 149.464C92.2748 148.984 92.5988 148.612 93.0148 148.348C93.4308 148.076 93.9108 147.94 94.4548 147.94C95.2628 147.94 95.8988 148.192 96.3628 148.696C96.8268 149.2 97.0588 149.88 97.0588 150.736V150.88C97.0508 150.952 97.0228 151.008 96.9748 151.048C96.9348 151.088 96.8788 151.108 96.8068 151.108H92.5108C92.5348 151.78 92.7108 152.348 93.0388 152.812C93.3748 153.268 93.8748 153.496 94.5388 153.496C94.8988 153.496 95.2148 153.432 95.4868 153.304C95.7668 153.168 96.0748 152.932 96.4108 152.596ZM94.4548 148.6C93.9268 148.6 93.4908 148.764 93.1468 149.092C92.8108 149.412 92.6068 149.884 92.5348 150.508H96.2668C96.2508 149.924 96.0828 149.46 95.7628 149.116C95.4428 148.772 95.0068 148.6 94.4548 148.6ZM98.7298 154C98.5698 154 98.4898 153.92 98.4898 153.76V145.72C98.4898 145.56 98.5698 145.48 98.7298 145.48H99.0418C99.2018 145.48 99.2818 145.56 99.2818 145.72V153.76C99.2818 153.92 99.2018 154 99.0418 154H98.7298ZM105.376 152.596C105.432 152.54 105.492 152.512 105.556 152.512C105.612 152.512 105.664 152.536 105.712 152.584L105.868 152.728C105.924 152.784 105.952 152.844 105.952 152.908C105.952 152.956 105.928 153.012 105.88 153.076C105.488 153.468 105.108 153.748 104.74 153.916C104.372 154.076 103.96 154.156 103.504 154.156C102.928 154.156 102.428 154.028 102.004 153.772C101.58 153.516 101.252 153.16 101.02 152.704C100.788 152.24 100.672 151.704 100.672 151.096C100.672 150.48 100.784 149.936 101.008 149.464C101.24 148.984 101.564 148.612 101.98 148.348C102.396 148.076 102.876 147.94 103.42 147.94C104.228 147.94 104.864 148.192 105.328 148.696C105.792 149.2 106.024 149.88 106.024 150.736V150.88C106.016 150.952 105.988 151.008 105.94 151.048C105.9 151.088 105.844 151.108 105.772 151.108H101.476C101.5 151.78 101.676 152.348 102.004 152.812C102.34 153.268 102.84 153.496 103.504 153.496C103.864 153.496 104.18 153.432 104.452 153.304C104.732 153.168 105.04 152.932 105.376 152.596ZM103.42 148.6C102.892 148.6 102.456 148.764 102.112 149.092C101.776 149.412 101.572 149.884 101.5 150.508H105.232C105.216 149.924 105.048 149.46 104.728 149.116C104.408 148.772 103.972 148.6 103.42 148.6ZM109.854 154.156C109.286 154.156 108.79 154.028 108.366 153.772C107.95 153.508 107.626 153.144 107.394 152.68C107.17 152.208 107.058 151.664 107.058 151.048C107.058 150.44 107.17 149.9 107.394 149.428C107.626 148.956 107.95 148.592 108.366 148.336C108.79 148.072 109.278 147.94 109.83 147.94C110.278 147.94 110.67 148.016 111.006 148.168C111.342 148.312 111.666 148.552 111.978 148.888C112.026 148.936 112.05 148.988 112.05 149.044C112.05 149.116 112.018 149.176 111.954 149.224L111.786 149.38C111.738 149.428 111.682 149.452 111.618 149.452C111.562 149.452 111.502 149.42 111.438 149.356C111.158 149.076 110.89 148.88 110.634 148.768C110.386 148.656 110.11 148.6 109.806 148.6C109.39 148.6 109.034 148.716 108.738 148.948C108.45 149.18 108.234 149.484 108.09 149.86C107.946 150.228 107.874 150.624 107.874 151.048C107.874 151.472 107.946 151.872 108.09 152.248C108.234 152.616 108.454 152.916 108.75 153.148C109.046 153.372 109.41 153.484 109.842 153.484C110.162 153.484 110.442 153.428 110.682 153.316C110.93 153.196 111.206 152.972 111.51 152.644C111.574 152.58 111.634 152.548 111.69 152.548C111.754 152.548 111.81 152.572 111.858 152.62L112.026 152.752C112.082 152.8 112.11 152.856 112.11 152.92C112.11 152.984 112.074 153.06 112.002 153.148C111.666 153.516 111.33 153.776 110.994 153.928C110.658 154.08 110.278 154.156 109.854 154.156ZM116.095 153.34C116.119 153.332 116.151 153.328 116.191 153.328C116.239 153.328 116.283 153.344 116.323 153.376C116.363 153.408 116.387 153.452 116.395 153.508L116.431 153.676C116.439 153.692 116.443 153.72 116.443 153.76C116.443 153.872 116.383 153.94 116.263 153.964C115.975 154.052 115.667 154.096 115.339 154.096C114.819 154.096 114.447 153.98 114.223 153.748C114.007 153.508 113.899 153.164 113.899 152.716V148.684H113.011C112.851 148.684 112.771 148.604 112.771 148.444V148.324C112.771 148.164 112.851 148.084 113.011 148.084H113.899V146.26C113.899 146.1 113.979 146.02 114.139 146.02H114.451C114.611 146.02 114.691 146.1 114.691 146.26V148.084H116.131C116.291 148.084 116.371 148.164 116.371 148.324V148.444C116.371 148.604 116.291 148.684 116.131 148.684H114.691V152.62C114.691 152.916 114.747 153.124 114.859 153.244C114.971 153.364 115.163 153.424 115.435 153.424C115.627 153.424 115.847 153.396 116.095 153.34ZM117.975 146.584C117.815 146.584 117.679 146.528 117.567 146.416C117.463 146.304 117.411 146.168 117.411 146.008C117.411 145.848 117.463 145.716 117.567 145.612C117.679 145.508 117.815 145.456 117.975 145.456C118.143 145.456 118.279 145.508 118.383 145.612C118.495 145.716 118.551 145.848 118.551 146.008C118.551 146.168 118.495 146.304 118.383 146.416C118.279 146.528 118.143 146.584 117.975 146.584ZM117.819 154C117.659 154 117.579 153.92 117.579 153.76V148.324C117.579 148.164 117.659 148.084 117.819 148.084H118.131C118.291 148.084 118.371 148.164 118.371 148.324V153.76C118.371 153.92 118.291 154 118.131 154H117.819ZM122.582 154.156C122.03 154.156 121.538 154.024 121.106 153.76C120.674 153.496 120.338 153.132 120.098 152.668C119.858 152.196 119.738 151.656 119.738 151.048C119.738 150.44 119.858 149.904 120.098 149.44C120.338 148.968 120.674 148.6 121.106 148.336C121.538 148.072 122.03 147.94 122.582 147.94C123.134 147.94 123.626 148.072 124.058 148.336C124.49 148.6 124.826 148.968 125.066 149.44C125.306 149.904 125.426 150.44 125.426 151.048C125.426 151.656 125.306 152.196 125.066 152.668C124.826 153.132 124.49 153.496 124.058 153.76C123.626 154.024 123.134 154.156 122.582 154.156ZM122.582 153.496C123.198 153.496 123.69 153.272 124.058 152.824C124.426 152.368 124.61 151.776 124.61 151.048C124.61 150.32 124.426 149.732 124.058 149.284C123.69 148.828 123.198 148.6 122.582 148.6C121.966 148.6 121.474 148.828 121.106 149.284C120.738 149.732 120.554 150.32 120.554 151.048C120.554 151.776 120.738 152.368 121.106 152.824C121.474 153.272 121.966 153.496 122.582 153.496ZM129.442 147.94C130.138 147.94 130.662 148.132 131.014 148.516C131.374 148.9 131.554 149.38 131.554 149.956V153.76C131.554 153.92 131.474 154 131.314 154H131.002C130.842 154 130.762 153.92 130.762 153.76V150.22C130.762 149.692 130.634 149.292 130.378 149.02C130.122 148.748 129.754 148.612 129.274 148.612C128.97 148.612 128.69 148.688 128.434 148.84C128.178 148.984 127.974 149.184 127.822 149.44C127.67 149.696 127.594 149.976 127.594 150.28V153.76C127.594 153.92 127.514 154 127.354 154H127.042C126.882 154 126.802 153.92 126.802 153.76V148.324C126.802 148.164 126.882 148.084 127.042 148.084H127.306C127.466 148.084 127.546 148.164 127.546 148.324V148.9C127.746 148.58 128.01 148.34 128.338 148.18C128.666 148.02 129.034 147.94 129.442 147.94Z" fill="#767676"/>
<defs>
<filter id="filter0_i_665_10547" x="32" y="174" width="90" height="32" filterUnits="userSpaceOnUse" color-interpolation-filters="sRGB">
<feFlood flood-opacity="0" result="BackgroundImageFix"/>
<feBlend mode="normal" in="SourceGraphic" in2="BackgroundImageFix" result="shape"/>
<feColorMatrix in="SourceAlpha" type="matrix" values="0 0 0 0 0 0 0 0 0 0 0 0 0 0 0 0 0 0 127 0" result="hardAlpha"/>
<feOffset dx="-1"/>
<feComposite in2="hardAlpha" operator="arithmetic" k2="-1" k3="1"/>
<feColorMatrix type="matrix" values="0 0 0 0 0.764706 0 0 0 0 0.8 0 0 0 0 0.85098 0 0 0 1 0"/>
<feBlend mode="normal" in2="shape" result="effect1_innerShadow_665_10547"/>
</filter>
</defs>
</svg>
