<svg width="344" height="128" viewBox="0 0 344 128" fill="none" xmlns="http://www.w3.org/2000/svg">
<rect x="81" y="41" width="181" height="46" rx="7" fill="#0063FB"/>
<path d="M102.112 69.256C100.981 69.256 100 69 99.168 68.488C98.3467 67.976 97.712 67.272 97.264 66.376C96.8267 65.4693 96.608 64.4453 96.608 63.304C96.608 62.1627 96.8267 61.1493 97.264 60.264C97.7013 59.368 98.336 58.664 99.168 58.152C100 57.64 100.997 57.384 102.16 57.384C102.864 57.384 103.504 57.4853 104.08 57.688C104.656 57.88 105.237 58.2053 105.824 58.664C105.984 58.792 106.064 58.936 106.064 59.096C106.064 59.2027 106.011 59.3253 105.904 59.464L105.552 59.88C105.424 60.0293 105.291 60.104 105.152 60.104C105.045 60.104 104.912 60.0507 104.752 59.944C104.272 59.5707 103.829 59.3147 103.424 59.176C103.029 59.0373 102.603 58.968 102.144 58.968C101.397 58.968 100.747 59.1493 100.192 59.512C99.6373 59.8747 99.2107 60.3867 98.912 61.048C98.6133 61.6987 98.464 62.4507 98.464 63.304C98.464 64.1573 98.6133 64.9147 98.912 65.576C99.2107 66.2373 99.632 66.7547 100.176 67.128C100.72 67.4907 101.355 67.672 102.08 67.672C102.624 67.672 103.109 67.576 103.536 67.384C103.963 67.192 104.427 66.8827 104.928 66.456C105.067 66.3387 105.2 66.28 105.328 66.28C105.467 66.28 105.6 66.3547 105.728 66.504L106.08 66.904C106.187 67.0213 106.24 67.144 106.24 67.272C106.24 67.4533 106.155 67.6133 105.984 67.752C105.365 68.2853 104.752 68.6693 104.144 68.904C103.547 69.1387 102.869 69.256 102.112 69.256ZM108.319 69C108.148 69 108.009 68.952 107.903 68.856C107.807 68.7493 107.759 68.6107 107.759 68.44V58.2C107.759 58.0187 107.807 57.88 107.903 57.784C108.009 57.688 108.148 57.64 108.319 57.64H108.895C109.076 57.64 109.215 57.688 109.311 57.784C109.407 57.88 109.455 58.0187 109.455 58.2V68.44C109.455 68.6107 109.407 68.7493 109.311 68.856C109.215 68.952 109.076 69 108.895 69H108.319ZM114.948 69.24C114.169 69.24 113.481 69.0693 112.884 68.728C112.297 68.3867 111.839 67.9013 111.508 67.272C111.188 66.632 111.028 65.8907 111.028 65.048C111.028 64.2053 111.193 63.4693 111.524 62.84C111.855 62.2107 112.319 61.7253 112.916 61.384C113.513 61.0427 114.201 60.872 114.98 60.872C115.545 60.872 116.052 60.9573 116.5 61.128C116.959 61.288 117.396 61.5653 117.812 61.96C117.94 62.088 118.004 62.2213 118.004 62.36C118.004 62.488 117.935 62.6213 117.796 62.76L117.524 63.032C117.407 63.1493 117.279 63.208 117.14 63.208C117.001 63.208 116.857 63.144 116.708 63.016C116.399 62.7493 116.105 62.568 115.828 62.472C115.561 62.3653 115.273 62.312 114.964 62.312C114.26 62.312 113.716 62.5733 113.332 63.096C112.948 63.6187 112.756 64.2693 112.756 65.048C112.756 65.8267 112.948 66.4827 113.332 67.016C113.716 67.5387 114.26 67.8 114.964 67.8C115.305 67.8 115.62 67.736 115.908 67.608C116.196 67.4693 116.505 67.24 116.836 66.92C116.975 66.7813 117.119 66.712 117.268 66.712C117.396 66.712 117.519 66.7653 117.636 66.872L117.908 67.096C118.047 67.2133 118.116 67.3467 118.116 67.496C118.116 67.656 118.036 67.8267 117.876 68.008C117.439 68.456 116.985 68.776 116.516 68.968C116.057 69.1493 115.535 69.24 114.948 69.24ZM120.403 59.576C120.093 59.576 119.832 59.4747 119.618 59.272C119.405 59.0587 119.299 58.808 119.299 58.52C119.299 58.2213 119.405 57.9707 119.618 57.768C119.832 57.5653 120.093 57.464 120.403 57.464C120.712 57.464 120.973 57.5653 121.187 57.768C121.4 57.9707 121.507 58.2213 121.507 58.52C121.507 58.808 121.4 59.0587 121.187 59.272C120.973 59.4747 120.712 59.576 120.403 59.576ZM120.099 69C119.928 69 119.789 68.952 119.683 68.856C119.587 68.7493 119.539 68.6107 119.539 68.44V61.672C119.539 61.4907 119.587 61.352 119.683 61.256C119.789 61.16 119.928 61.112 120.099 61.112H120.674C120.856 61.112 120.995 61.16 121.091 61.256C121.187 61.352 121.235 61.4907 121.235 61.672V68.44C121.235 68.6107 121.187 68.7493 121.091 68.856C120.995 68.952 120.856 69 120.674 69H120.099ZM129.035 69C128.736 69 128.512 68.8773 128.363 68.632L126.155 65.208L124.891 66.488V68.44C124.891 68.6107 124.843 68.7493 124.747 68.856C124.651 68.952 124.512 69 124.331 69H123.755C123.584 69 123.445 68.952 123.339 68.856C123.243 68.7493 123.195 68.6107 123.195 68.44V58.2C123.195 58.0187 123.243 57.88 123.339 57.784C123.445 57.688 123.584 57.64 123.755 57.64H124.331C124.512 57.64 124.651 57.688 124.747 57.784C124.843 57.88 124.891 58.0187 124.891 58.2V64.616L127.915 61.416C128.107 61.2133 128.341 61.112 128.619 61.112H129.227C129.387 61.112 129.504 61.144 129.579 61.208C129.664 61.2613 129.707 61.336 129.707 61.432C129.707 61.56 129.648 61.6827 129.531 61.8L127.323 64.104L130.043 68.328C130.117 68.4453 130.155 68.552 130.155 68.648C130.155 68.7547 130.112 68.84 130.027 68.904C129.941 68.968 129.824 69 129.675 69H129.035ZM139.086 60.872C139.992 60.872 140.686 61.128 141.166 61.64C141.656 62.1413 141.902 62.792 141.902 63.592V68.44C141.902 68.6107 141.854 68.7493 141.758 68.856C141.662 68.952 141.523 69 141.342 69H140.766C140.595 69 140.456 68.952 140.35 68.856C140.254 68.7493 140.206 68.6107 140.206 68.44V64.12C140.206 63.544 140.062 63.1013 139.774 62.792C139.496 62.4827 139.096 62.328 138.574 62.328C138.062 62.328 137.63 62.504 137.278 62.856C136.936 63.208 136.766 63.6507 136.766 64.184V68.44C136.766 68.6107 136.718 68.7493 136.622 68.856C136.526 68.952 136.387 69 136.206 69H135.63C135.459 69 135.32 68.952 135.214 68.856C135.118 68.7493 135.07 68.6107 135.07 68.44V58.2C135.07 58.0187 135.118 57.88 135.214 57.784C135.32 57.688 135.459 57.64 135.63 57.64H136.206C136.387 57.64 136.526 57.688 136.622 57.784C136.718 57.88 136.766 58.0187 136.766 58.2V61.928C137.022 61.5867 137.347 61.3253 137.742 61.144C138.147 60.9627 138.595 60.872 139.086 60.872ZM149.499 66.984C149.638 66.8667 149.771 66.808 149.899 66.808C150.027 66.808 150.16 66.8773 150.299 67.016L150.523 67.256C150.64 67.3947 150.699 67.528 150.699 67.656C150.699 67.7947 150.63 67.928 150.491 68.056C150 68.4827 149.51 68.7867 149.019 68.968C148.539 69.1493 148.006 69.24 147.419 69.24C146.598 69.24 145.883 69.0693 145.275 68.728C144.678 68.3867 144.214 67.9067 143.883 67.288C143.563 66.6587 143.403 65.9333 143.403 65.112C143.403 64.3013 143.558 63.576 143.867 62.936C144.187 62.2853 144.635 61.7787 145.211 61.416C145.798 61.0533 146.48 60.872 147.259 60.872C148.422 60.872 149.318 61.2187 149.947 61.912C150.576 62.5947 150.891 63.5387 150.891 64.744V64.888C150.88 65.0587 150.827 65.192 150.731 65.288C150.635 65.384 150.496 65.432 150.315 65.432H145.067C145.131 66.136 145.36 66.712 145.755 67.16C146.16 67.5973 146.726 67.816 147.451 67.816C147.846 67.816 148.192 67.7573 148.491 67.64C148.79 67.512 149.126 67.2933 149.499 66.984ZM147.227 62.216C146.64 62.216 146.166 62.392 145.803 62.744C145.451 63.0853 145.222 63.5707 145.115 64.2H149.227C149.184 63.5813 148.992 63.096 148.651 62.744C148.31 62.392 147.835 62.216 147.227 62.216ZM155.997 61.032C156.231 61.032 156.471 61.0587 156.717 61.112C157.005 61.176 157.149 61.3467 157.149 61.624C157.149 61.6987 157.143 61.752 157.133 61.784L157.053 62.168C156.989 62.4667 156.829 62.616 156.573 62.616L156.429 62.6C156.237 62.568 156.066 62.552 155.917 62.552C155.383 62.552 154.951 62.7653 154.621 63.192C154.301 63.608 154.141 64.1893 154.141 64.936V68.44C154.141 68.6107 154.093 68.7493 153.997 68.856C153.901 68.952 153.762 69 153.581 69H153.005C152.834 69 152.695 68.952 152.589 68.856C152.493 68.7493 152.445 68.6107 152.445 68.44V61.672C152.445 61.4907 152.493 61.352 152.589 61.256C152.695 61.16 152.834 61.112 153.005 61.112H153.469C153.65 61.112 153.789 61.16 153.885 61.256C153.981 61.352 154.029 61.4907 154.029 61.672V62.296C154.221 61.9013 154.482 61.592 154.813 61.368C155.143 61.144 155.538 61.032 155.997 61.032ZM163.655 66.984C163.794 66.8667 163.927 66.808 164.055 66.808C164.183 66.808 164.317 66.8773 164.455 67.016L164.679 67.256C164.797 67.3947 164.855 67.528 164.855 67.656C164.855 67.7947 164.786 67.928 164.647 68.056C164.157 68.4827 163.666 68.7867 163.175 68.968C162.695 69.1493 162.162 69.24 161.575 69.24C160.754 69.24 160.039 69.0693 159.431 68.728C158.834 68.3867 158.37 67.9067 158.039 67.288C157.719 66.6587 157.559 65.9333 157.559 65.112C157.559 64.3013 157.714 63.576 158.023 62.936C158.343 62.2853 158.791 61.7787 159.367 61.416C159.954 61.0533 160.637 60.872 161.415 60.872C162.578 60.872 163.474 61.2187 164.103 61.912C164.733 62.5947 165.047 63.5387 165.047 64.744V64.888C165.037 65.0587 164.983 65.192 164.887 65.288C164.791 65.384 164.653 65.432 164.471 65.432H159.223C159.287 66.136 159.517 66.712 159.911 67.16C160.317 67.5973 160.882 67.816 161.607 67.816C162.002 67.816 162.349 67.7573 162.647 67.64C162.946 67.512 163.282 67.2933 163.655 66.984ZM161.383 62.216C160.797 62.216 160.322 62.392 159.959 62.744C159.607 63.0853 159.378 63.5707 159.271 64.2H163.383C163.341 63.5813 163.149 63.096 162.807 62.744C162.466 62.392 161.991 62.216 161.383 62.216ZM173.987 67.656C174.019 67.6453 174.067 67.64 174.131 67.64C174.398 67.64 174.558 67.7947 174.611 68.104L174.659 68.36C174.67 68.392 174.675 68.4453 174.675 68.52C174.675 68.7867 174.526 68.9573 174.227 69.032C173.8 69.128 173.411 69.176 173.059 69.176C172.302 69.176 171.752 69 171.411 68.648C171.08 68.296 170.915 67.768 170.915 67.064V62.408H170.035C169.864 62.408 169.726 62.36 169.619 62.264C169.523 62.1573 169.475 62.0187 169.475 61.848V61.672C169.475 61.4907 169.523 61.352 169.619 61.256C169.726 61.16 169.864 61.112 170.035 61.112H170.915V59.128C170.915 58.9467 170.963 58.808 171.059 58.712C171.166 58.616 171.304 58.568 171.475 58.568H172.051C172.232 58.568 172.371 58.616 172.467 58.712C172.563 58.808 172.611 58.9467 172.611 59.128V61.112H174.051C174.232 61.112 174.371 61.16 174.467 61.256C174.563 61.352 174.611 61.4907 174.611 61.672V61.848C174.611 62.0187 174.563 62.1573 174.467 62.264C174.371 62.36 174.232 62.408 174.051 62.408H172.611V66.856C172.611 67.1653 172.675 67.384 172.803 67.512C172.942 67.64 173.16 67.704 173.459 67.704C173.587 67.704 173.763 67.688 173.987 67.656ZM179.309 69.24C178.531 69.24 177.837 69.064 177.229 68.712C176.632 68.36 176.163 67.8693 175.821 67.24C175.48 66.6 175.309 65.8693 175.309 65.048C175.309 64.2267 175.48 63.5013 175.821 62.872C176.163 62.2427 176.632 61.752 177.229 61.4C177.837 61.048 178.531 60.872 179.309 60.872C180.077 60.872 180.765 61.048 181.373 61.4C181.981 61.752 182.456 62.248 182.797 62.888C183.139 63.5173 183.309 64.2373 183.309 65.048C183.309 65.8693 183.139 66.6 182.797 67.24C182.456 67.8693 181.981 68.36 181.373 68.712C180.765 69.064 180.077 69.24 179.309 69.24ZM179.309 67.816C179.992 67.816 180.541 67.5653 180.957 67.064C181.373 66.552 181.581 65.88 181.581 65.048C181.581 64.2267 181.373 63.5653 180.957 63.064C180.541 62.5627 179.992 62.312 179.309 62.312C178.627 62.312 178.077 62.5627 177.661 63.064C177.245 63.5653 177.037 64.2267 177.037 65.048C177.037 65.88 177.245 66.552 177.661 67.064C178.077 67.5653 178.627 67.816 179.309 67.816ZM192.574 60.904C193.246 60.904 193.844 61.0747 194.366 61.416C194.9 61.7573 195.316 62.2427 195.614 62.872C195.913 63.5013 196.062 64.2267 196.062 65.048C196.062 65.88 195.913 66.6107 195.614 67.24C195.316 67.8693 194.9 68.3547 194.366 68.696C193.833 69.0373 193.236 69.208 192.574 69.208C191.39 69.208 190.521 68.7653 189.966 67.88V68.44C189.966 68.6107 189.918 68.7493 189.822 68.856C189.726 68.952 189.588 69 189.406 69H188.942C188.772 69 188.633 68.952 188.526 68.856C188.43 68.7493 188.382 68.6107 188.382 68.44V58.2C188.382 58.0187 188.43 57.88 188.526 57.784C188.633 57.688 188.772 57.64 188.942 57.64H189.518C189.7 57.64 189.838 57.688 189.934 57.784C190.03 57.88 190.078 58.0187 190.078 58.2V62.104C190.644 61.304 191.476 60.904 192.574 60.904ZM192.222 67.736C192.862 67.736 193.374 67.496 193.758 67.016C194.142 66.5253 194.334 65.8693 194.334 65.048C194.334 64.2373 194.142 63.5867 193.758 63.096C193.385 62.6053 192.878 62.36 192.238 62.36C191.588 62.36 191.054 62.6053 190.638 63.096C190.222 63.576 190.014 64.2267 190.014 65.048C190.014 65.8907 190.222 66.552 190.638 67.032C191.054 67.5013 191.582 67.736 192.222 67.736ZM202.609 61.672C202.609 61.4907 202.657 61.352 202.753 61.256C202.86 61.16 202.998 61.112 203.169 61.112H203.745C203.926 61.112 204.065 61.16 204.161 61.256C204.257 61.352 204.305 61.4907 204.305 61.672V68.44C204.305 68.6107 204.257 68.7493 204.161 68.856C204.065 68.952 203.926 69 203.745 69H203.313C203.142 69 203.004 68.952 202.897 68.856C202.801 68.7493 202.753 68.6107 202.753 68.44V68.072C202.54 68.4347 202.23 68.7227 201.825 68.936C201.42 69.1387 200.94 69.24 200.385 69.24C199.446 69.24 198.748 69.0107 198.289 68.552C197.83 68.0827 197.601 67.464 197.601 66.696V61.672C197.601 61.4907 197.649 61.352 197.745 61.256C197.852 61.16 197.99 61.112 198.161 61.112H198.737C198.918 61.112 199.057 61.16 199.153 61.256C199.249 61.352 199.297 61.4907 199.297 61.672V66.248C199.297 66.7387 199.42 67.1173 199.665 67.384C199.921 67.64 200.289 67.768 200.769 67.768C201.324 67.768 201.766 67.608 202.097 67.288C202.438 66.968 202.609 66.504 202.609 65.896V61.672ZM211.089 61.576C211.185 61.2667 211.393 61.112 211.713 61.112H212.289C212.449 61.112 212.572 61.1493 212.657 61.224C212.743 61.2987 212.785 61.4 212.785 61.528C212.785 61.592 212.769 61.6667 212.737 61.752L209.873 69.976C209.617 70.7227 209.297 71.2507 208.913 71.56C208.54 71.88 208.007 72.04 207.313 72.04C206.993 72.04 206.721 72.0187 206.497 71.976C206.348 71.9653 206.236 71.912 206.161 71.816C206.087 71.7307 206.049 71.624 206.049 71.496C206.049 71.4213 206.055 71.3627 206.065 71.32L206.113 71.112C206.188 70.8133 206.348 70.664 206.593 70.664C206.689 70.664 206.78 70.6693 206.865 70.68C206.951 70.6907 207.036 70.696 207.121 70.696C207.431 70.696 207.687 70.616 207.889 70.456C208.103 70.296 208.279 70.0027 208.417 69.576L208.465 69.448L205.729 61.752C205.697 61.6667 205.681 61.5867 205.681 61.512C205.681 61.384 205.724 61.288 205.809 61.224C205.905 61.1493 206.033 61.112 206.193 61.112H206.801C207.132 61.112 207.345 61.2667 207.441 61.576L208.065 63.448C208.535 64.792 208.935 66.024 209.265 67.144L209.729 65.72C209.804 65.496 209.916 65.144 210.065 64.664C210.215 64.184 210.348 63.7733 210.465 63.432L211.089 61.576ZM221.601 60.872C222.508 60.872 223.201 61.128 223.681 61.64C224.172 62.1413 224.417 62.792 224.417 63.592V68.44C224.417 68.6107 224.369 68.7493 224.273 68.856C224.177 68.952 224.039 69 223.857 69H223.281C223.111 69 222.972 68.952 222.865 68.856C222.769 68.7493 222.721 68.6107 222.721 68.44V64.12C222.721 63.544 222.577 63.1013 222.289 62.792C222.012 62.4827 221.612 62.328 221.089 62.328C220.577 62.328 220.145 62.504 219.793 62.856C219.452 63.208 219.281 63.6507 219.281 64.184V68.44C219.281 68.6107 219.233 68.7493 219.137 68.856C219.041 68.952 218.903 69 218.721 69H218.145C217.975 69 217.836 68.952 217.729 68.856C217.633 68.7493 217.585 68.6107 217.585 68.44V61.672C217.585 61.4907 217.633 61.352 217.729 61.256C217.836 61.16 217.975 61.112 218.145 61.112H218.609C218.791 61.112 218.929 61.16 219.025 61.256C219.121 61.352 219.169 61.4907 219.169 61.672V62.088C219.425 61.6933 219.761 61.3947 220.177 61.192C220.593 60.9787 221.068 60.872 221.601 60.872ZM229.919 69.24C229.14 69.24 228.447 69.064 227.839 68.712C227.241 68.36 226.772 67.8693 226.431 67.24C226.089 66.6 225.919 65.8693 225.919 65.048C225.919 64.2267 226.089 63.5013 226.431 62.872C226.772 62.2427 227.241 61.752 227.839 61.4C228.447 61.048 229.14 60.872 229.919 60.872C230.687 60.872 231.375 61.048 231.983 61.4C232.591 61.752 233.065 62.248 233.407 62.888C233.748 63.5173 233.919 64.2373 233.919 65.048C233.919 65.8693 233.748 66.6 233.407 67.24C233.065 67.8693 232.591 68.36 231.983 68.712C231.375 69.064 230.687 69.24 229.919 69.24ZM229.919 67.816C230.601 67.816 231.151 67.5653 231.567 67.064C231.983 66.552 232.191 65.88 232.191 65.048C232.191 64.2267 231.983 63.5653 231.567 63.064C231.151 62.5627 230.601 62.312 229.919 62.312C229.236 62.312 228.687 62.5627 228.271 63.064C227.855 63.5653 227.647 64.2267 227.647 65.048C227.647 65.88 227.855 66.552 228.271 67.064C228.687 67.5653 229.236 67.816 229.919 67.816ZM244.184 61.592C244.259 61.272 244.467 61.112 244.808 61.112H245.4C245.56 61.112 245.683 61.1493 245.768 61.224C245.864 61.288 245.912 61.3893 245.912 61.528C245.912 61.56 245.901 61.6293 245.88 61.736L243.976 68.52C243.901 68.84 243.693 69 243.352 69H242.312C241.992 69 241.784 68.84 241.688 68.52L241.16 66.664C240.925 65.8427 240.664 64.8133 240.376 63.576L240.296 63.224C240.008 64.5253 239.731 65.6773 239.464 66.68L238.968 68.52C238.893 68.84 238.685 69 238.344 69H237.32C237 69 236.792 68.84 236.696 68.52L234.776 61.736C234.755 61.6293 234.744 61.56 234.744 61.528C234.744 61.3893 234.787 61.288 234.872 61.224C234.968 61.1493 235.096 61.112 235.256 61.112H235.88C236.221 61.112 236.429 61.272 236.504 61.592L237.08 63.864C237.304 64.696 237.565 65.8053 237.864 67.192L237.928 67.512C238.237 66.0827 238.525 64.8667 238.792 63.864L239.4 61.592C239.475 61.272 239.683 61.112 240.024 61.112H240.632C240.973 61.112 241.181 61.272 241.256 61.592L241.88 63.864C242.179 64.9733 242.477 66.1893 242.776 67.512C243 66.3707 243.277 65.1547 243.608 63.864L244.184 61.592Z" fill="white"/>
<rect x="81" y="41" width="181" height="46" rx="7" stroke="#0063FB" stroke-width="2"/>
</svg>
