<svg width="344" height="290" viewBox="0 0 344 290" fill="none" xmlns="http://www.w3.org/2000/svg">
<rect width="344" height="290" fill="#F5F5F5"/>
<rect x="32.5" y="72.5" width="90" height="31" rx="3.5" fill="white"/>
<path d="M42.5 88H53.5" stroke="#767676" stroke-width="1.5" stroke-linecap="round" stroke-linejoin="round"/>
<path d="M48 82.5V93.5" stroke="#767676" stroke-width="1.5" stroke-linecap="round" stroke-linejoin="round"/>
<path d="M71.044 92C70.804 92 70.644 91.888 70.564 91.664L70 90.044H66.232L65.668 91.664C65.588 91.888 65.428 92 65.188 92H64.684C64.564 92 64.468 91.976 64.396 91.928C64.332 91.872 64.3 91.796 64.3 91.7C64.3 91.652 64.312 91.592 64.336 91.52L67.12 83.816C67.2 83.592 67.36 83.48 67.6 83.48H68.668C68.908 83.48 69.068 83.592 69.148 83.816L71.932 91.52C71.956 91.592 71.968 91.652 71.968 91.7C71.968 91.796 71.932 91.872 71.86 91.928C71.796 91.976 71.704 92 71.584 92H71.044ZM69.616 88.904L69.244 87.848C69.236 87.832 69.148 87.58 68.98 87.092C68.556 85.892 68.268 85.036 68.116 84.524C67.884 85.26 67.576 86.172 67.192 87.26L66.988 87.86L66.628 88.904H69.616ZM77.1108 83.888C77.1108 83.752 77.1468 83.648 77.2188 83.576C77.2988 83.504 77.4028 83.468 77.5308 83.468H77.9628C78.0988 83.468 78.2028 83.504 78.2748 83.576C78.3468 83.648 78.3828 83.752 78.3828 83.888V91.58C78.3828 91.708 78.3468 91.812 78.2748 91.892C78.2028 91.964 78.0988 92 77.9628 92H77.6148C77.4868 92 77.3828 91.964 77.3028 91.892C77.2308 91.812 77.1948 91.708 77.1948 91.58V91.16C76.7788 91.832 76.1268 92.168 75.2388 92.168C74.7428 92.168 74.2948 92.04 73.8948 91.784C73.5028 91.528 73.1948 91.164 72.9708 90.692C72.7468 90.22 72.6348 89.672 72.6348 89.048C72.6348 88.432 72.7468 87.888 72.9708 87.416C73.2028 86.944 73.5188 86.58 73.9188 86.324C74.3188 86.068 74.7668 85.94 75.2628 85.94C76.0788 85.94 76.6948 86.224 77.1108 86.792V83.888ZM75.5028 91.076C75.9908 91.076 76.3908 90.896 76.7028 90.536C77.0148 90.168 77.1708 89.672 77.1708 89.048C77.1708 88.424 77.0148 87.932 76.7028 87.572C76.3908 87.212 75.9908 87.032 75.5028 87.032C75.0308 87.032 74.6508 87.216 74.3628 87.584C74.0748 87.952 73.9308 88.44 73.9308 89.048C73.9308 89.664 74.0708 90.156 74.3508 90.524C74.6388 90.892 75.0228 91.076 75.5028 91.076ZM84.0249 83.888C84.0249 83.752 84.0609 83.648 84.1329 83.576C84.2129 83.504 84.3169 83.468 84.4449 83.468H84.8769C85.0129 83.468 85.1169 83.504 85.1889 83.576C85.2609 83.648 85.2969 83.752 85.2969 83.888V91.58C85.2969 91.708 85.2609 91.812 85.1889 91.892C85.1169 91.964 85.0129 92 84.8769 92H84.5289C84.4009 92 84.2969 91.964 84.2169 91.892C84.1449 91.812 84.1089 91.708 84.1089 91.58V91.16C83.6929 91.832 83.0409 92.168 82.1529 92.168C81.6569 92.168 81.2089 92.04 80.8089 91.784C80.4169 91.528 80.1089 91.164 79.8849 90.692C79.6609 90.22 79.5489 89.672 79.5489 89.048C79.5489 88.432 79.6609 87.888 79.8849 87.416C80.1169 86.944 80.4329 86.58 80.8329 86.324C81.2329 86.068 81.6809 85.94 82.1769 85.94C82.9929 85.94 83.6089 86.224 84.0249 86.792V83.888ZM82.4169 91.076C82.9049 91.076 83.3049 90.896 83.6169 90.536C83.9289 90.168 84.0849 89.672 84.0849 89.048C84.0849 88.424 83.9289 87.932 83.6169 87.572C83.3049 87.212 82.9049 87.032 82.4169 87.032C81.9449 87.032 81.5649 87.216 81.2769 87.584C80.9889 87.952 80.8449 88.44 80.8449 89.048C80.8449 89.664 80.9849 90.156 81.2649 90.524C81.5529 90.892 81.9369 91.076 82.4169 91.076ZM92.7902 84.932C92.5582 84.932 92.3622 84.856 92.2022 84.704C92.0422 84.544 91.9622 84.356 91.9622 84.14C91.9622 83.916 92.0422 83.728 92.2022 83.576C92.3622 83.424 92.5582 83.348 92.7902 83.348C93.0222 83.348 93.2182 83.424 93.3782 83.576C93.5382 83.728 93.6182 83.916 93.6182 84.14C93.6182 84.356 93.5382 84.544 93.3782 84.704C93.2182 84.856 93.0222 84.932 92.7902 84.932ZM92.5622 92C92.4342 92 92.3302 91.964 92.2502 91.892C92.1782 91.812 92.1422 91.708 92.1422 91.58V86.504C92.1422 86.368 92.1782 86.264 92.2502 86.192C92.3302 86.12 92.4342 86.084 92.5622 86.084H92.9942C93.1302 86.084 93.2342 86.12 93.3062 86.192C93.3782 86.264 93.4142 86.368 93.4142 86.504V91.58C93.4142 91.708 93.3782 91.812 93.3062 91.892C93.2342 91.964 93.1302 92 92.9942 92H92.5622ZM97.7403 90.992C97.7643 90.984 97.8003 90.98 97.8483 90.98C98.0483 90.98 98.1683 91.096 98.2083 91.328L98.2443 91.52C98.2523 91.544 98.2563 91.584 98.2563 91.64C98.2563 91.84 98.1443 91.968 97.9203 92.024C97.6003 92.096 97.3083 92.132 97.0443 92.132C96.4763 92.132 96.0643 92 95.8083 91.736C95.5603 91.472 95.4363 91.076 95.4363 90.548V87.056H94.7763C94.6483 87.056 94.5443 87.02 94.4643 86.948C94.3923 86.868 94.3563 86.764 94.3563 86.636V86.504C94.3563 86.368 94.3923 86.264 94.4643 86.192C94.5443 86.12 94.6483 86.084 94.7763 86.084H95.4363V84.596C95.4363 84.46 95.4723 84.356 95.5443 84.284C95.6243 84.212 95.7283 84.176 95.8563 84.176H96.2883C96.4243 84.176 96.5283 84.212 96.6003 84.284C96.6723 84.356 96.7083 84.46 96.7083 84.596V86.084H97.7883C97.9243 86.084 98.0283 86.12 98.1003 86.192C98.1723 86.264 98.2083 86.368 98.2083 86.504V86.636C98.2083 86.764 98.1723 86.868 98.1003 86.948C98.0283 87.02 97.9243 87.056 97.7883 87.056H96.7083V90.392C96.7083 90.624 96.7563 90.788 96.8523 90.884C96.9563 90.98 97.1203 91.028 97.3443 91.028C97.4403 91.028 97.5723 91.016 97.7403 90.992ZM103.304 90.488C103.408 90.4 103.508 90.356 103.604 90.356C103.7 90.356 103.8 90.408 103.904 90.512L104.072 90.692C104.16 90.796 104.204 90.896 104.204 90.992C104.204 91.096 104.152 91.196 104.048 91.292C103.68 91.612 103.312 91.84 102.944 91.976C102.584 92.112 102.184 92.18 101.744 92.18C101.128 92.18 100.592 92.052 100.136 91.796C99.6879 91.54 99.3399 91.18 99.0919 90.716C98.8519 90.244 98.7319 89.7 98.7319 89.084C98.7319 88.476 98.8479 87.932 99.0799 87.452C99.3199 86.964 99.6559 86.584 100.088 86.312C100.528 86.04 101.04 85.904 101.624 85.904C102.496 85.904 103.168 86.164 103.64 86.684C104.112 87.196 104.348 87.904 104.348 88.808V88.916C104.34 89.044 104.3 89.144 104.228 89.216C104.156 89.288 104.052 89.324 103.916 89.324H99.9799C100.028 89.852 100.2 90.284 100.496 90.62C100.8 90.948 101.224 91.112 101.768 91.112C102.064 91.112 102.324 91.068 102.548 90.98C102.772 90.884 103.024 90.72 103.304 90.488ZM101.6 86.912C101.16 86.912 100.804 87.044 100.532 87.308C100.268 87.564 100.096 87.928 100.016 88.4H103.1C103.068 87.936 102.924 87.572 102.668 87.308C102.412 87.044 102.056 86.912 101.6 86.912ZM111.861 85.904C112.493 85.904 112.981 86.084 113.325 86.444C113.669 86.796 113.841 87.272 113.841 87.872V91.58C113.841 91.708 113.805 91.812 113.733 91.892C113.661 91.964 113.557 92 113.421 92H112.989C112.861 92 112.757 91.964 112.677 91.892C112.605 91.812 112.569 91.708 112.569 91.58V88.256C112.569 87.864 112.481 87.556 112.305 87.332C112.129 87.108 111.861 86.996 111.501 86.996C111.133 86.996 110.841 87.12 110.625 87.368C110.417 87.616 110.313 87.936 110.313 88.328V91.58C110.313 91.708 110.277 91.812 110.205 91.892C110.133 91.964 110.029 92 109.893 92H109.461C109.333 92 109.229 91.964 109.149 91.892C109.077 91.812 109.041 91.708 109.041 91.58V88.256C109.041 87.864 108.953 87.556 108.777 87.332C108.609 87.108 108.345 86.996 107.985 86.996C107.633 86.996 107.349 87.112 107.133 87.344C106.917 87.576 106.801 87.876 106.785 88.244V91.58C106.785 91.708 106.749 91.812 106.677 91.892C106.605 91.964 106.501 92 106.365 92H105.933C105.805 92 105.701 91.964 105.621 91.892C105.549 91.812 105.513 91.708 105.513 91.58V86.504C105.513 86.368 105.549 86.264 105.621 86.192C105.701 86.12 105.805 86.084 105.933 86.084H106.281C106.417 86.084 106.521 86.12 106.593 86.192C106.665 86.264 106.701 86.368 106.701 86.504V86.768C107.069 86.192 107.637 85.904 108.405 85.904C108.789 85.904 109.125 85.984 109.413 86.144C109.701 86.304 109.921 86.528 110.073 86.816C110.481 86.208 111.077 85.904 111.861 85.904Z" fill="#474445"/>
<rect x="32.5" y="72.5" width="90" height="31" rx="3.5" stroke="#C3CCD9"/>
<rect x="32.5" y="174.5" width="106" height="31" rx="3.5" fill="#E5E5E5"/>
<path d="M50.5 190H61.5" stroke="#767676" stroke-width="1.5" stroke-linecap="round" stroke-linejoin="round"/>
<path d="M56 184.5V195.5" stroke="#767676" stroke-width="1.5" stroke-linecap="round" stroke-linejoin="round"/>
<path d="M79.044 194C78.804 194 78.644 193.888 78.564 193.664L78 192.044H74.232L73.668 193.664C73.588 193.888 73.428 194 73.188 194H72.684C72.564 194 72.468 193.976 72.396 193.928C72.332 193.872 72.3 193.796 72.3 193.7C72.3 193.652 72.312 193.592 72.336 193.52L75.12 185.816C75.2 185.592 75.36 185.48 75.6 185.48H76.668C76.908 185.48 77.068 185.592 77.148 185.816L79.932 193.52C79.956 193.592 79.968 193.652 79.968 193.7C79.968 193.796 79.932 193.872 79.86 193.928C79.796 193.976 79.704 194 79.584 194H79.044ZM77.616 190.904L77.244 189.848C77.236 189.832 77.148 189.58 76.98 189.092C76.556 187.892 76.268 187.036 76.116 186.524C75.884 187.26 75.576 188.172 75.192 189.26L74.988 189.86L74.628 190.904H77.616ZM85.1108 185.888C85.1108 185.752 85.1468 185.648 85.2188 185.576C85.2988 185.504 85.4028 185.468 85.5308 185.468H85.9628C86.0988 185.468 86.2028 185.504 86.2748 185.576C86.3468 185.648 86.3828 185.752 86.3828 185.888V193.58C86.3828 193.708 86.3468 193.812 86.2748 193.892C86.2028 193.964 86.0988 194 85.9628 194H85.6148C85.4868 194 85.3828 193.964 85.3028 193.892C85.2308 193.812 85.1948 193.708 85.1948 193.58V193.16C84.7788 193.832 84.1268 194.168 83.2388 194.168C82.7428 194.168 82.2948 194.04 81.8948 193.784C81.5028 193.528 81.1948 193.164 80.9708 192.692C80.7468 192.22 80.6348 191.672 80.6348 191.048C80.6348 190.432 80.7468 189.888 80.9708 189.416C81.2028 188.944 81.5188 188.58 81.9188 188.324C82.3188 188.068 82.7668 187.94 83.2628 187.94C84.0788 187.94 84.6948 188.224 85.1108 188.792V185.888ZM83.5028 193.076C83.9908 193.076 84.3908 192.896 84.7028 192.536C85.0148 192.168 85.1708 191.672 85.1708 191.048C85.1708 190.424 85.0148 189.932 84.7028 189.572C84.3908 189.212 83.9908 189.032 83.5028 189.032C83.0308 189.032 82.6508 189.216 82.3628 189.584C82.0748 189.952 81.9308 190.44 81.9308 191.048C81.9308 191.664 82.0708 192.156 82.3508 192.524C82.6388 192.892 83.0228 193.076 83.5028 193.076ZM92.0249 185.888C92.0249 185.752 92.0609 185.648 92.1329 185.576C92.2129 185.504 92.3169 185.468 92.4449 185.468H92.8769C93.0129 185.468 93.1169 185.504 93.1889 185.576C93.2609 185.648 93.2969 185.752 93.2969 185.888V193.58C93.2969 193.708 93.2609 193.812 93.1889 193.892C93.1169 193.964 93.0129 194 92.8769 194H92.5289C92.4009 194 92.2969 193.964 92.2169 193.892C92.1449 193.812 92.1089 193.708 92.1089 193.58V193.16C91.6929 193.832 91.0409 194.168 90.1529 194.168C89.6569 194.168 89.2089 194.04 88.8089 193.784C88.4169 193.528 88.1089 193.164 87.8849 192.692C87.6609 192.22 87.5489 191.672 87.5489 191.048C87.5489 190.432 87.6609 189.888 87.8849 189.416C88.1169 188.944 88.4329 188.58 88.8329 188.324C89.2329 188.068 89.6809 187.94 90.1769 187.94C90.9929 187.94 91.6089 188.224 92.0249 188.792V185.888ZM90.4169 193.076C90.9049 193.076 91.3049 192.896 91.6169 192.536C91.9289 192.168 92.0849 191.672 92.0849 191.048C92.0849 190.424 91.9289 189.932 91.6169 189.572C91.3049 189.212 90.9049 189.032 90.4169 189.032C89.9449 189.032 89.5649 189.216 89.2769 189.584C88.9889 189.952 88.8449 190.44 88.8449 191.048C88.8449 191.664 88.9849 192.156 89.2649 192.524C89.5529 192.892 89.9369 193.076 90.4169 193.076ZM100.79 186.932C100.558 186.932 100.362 186.856 100.202 186.704C100.042 186.544 99.9622 186.356 99.9622 186.14C99.9622 185.916 100.042 185.728 100.202 185.576C100.362 185.424 100.558 185.348 100.79 185.348C101.022 185.348 101.218 185.424 101.378 185.576C101.538 185.728 101.618 185.916 101.618 186.14C101.618 186.356 101.538 186.544 101.378 186.704C101.218 186.856 101.022 186.932 100.79 186.932ZM100.562 194C100.434 194 100.33 193.964 100.25 193.892C100.178 193.812 100.142 193.708 100.142 193.58V188.504C100.142 188.368 100.178 188.264 100.25 188.192C100.33 188.12 100.434 188.084 100.562 188.084H100.994C101.13 188.084 101.234 188.12 101.306 188.192C101.378 188.264 101.414 188.368 101.414 188.504V193.58C101.414 193.708 101.378 193.812 101.306 193.892C101.234 193.964 101.13 194 100.994 194H100.562ZM105.74 192.992C105.764 192.984 105.8 192.98 105.848 192.98C106.048 192.98 106.168 193.096 106.208 193.328L106.244 193.52C106.252 193.544 106.256 193.584 106.256 193.64C106.256 193.84 106.144 193.968 105.92 194.024C105.6 194.096 105.308 194.132 105.044 194.132C104.476 194.132 104.064 194 103.808 193.736C103.56 193.472 103.436 193.076 103.436 192.548V189.056H102.776C102.648 189.056 102.544 189.02 102.464 188.948C102.392 188.868 102.356 188.764 102.356 188.636V188.504C102.356 188.368 102.392 188.264 102.464 188.192C102.544 188.12 102.648 188.084 102.776 188.084H103.436V186.596C103.436 186.46 103.472 186.356 103.544 186.284C103.624 186.212 103.728 186.176 103.856 186.176H104.288C104.424 186.176 104.528 186.212 104.6 186.284C104.672 186.356 104.708 186.46 104.708 186.596V188.084H105.788C105.924 188.084 106.028 188.12 106.1 188.192C106.172 188.264 106.208 188.368 106.208 188.504V188.636C106.208 188.764 106.172 188.868 106.1 188.948C106.028 189.02 105.924 189.056 105.788 189.056H104.708V192.392C104.708 192.624 104.756 192.788 104.852 192.884C104.956 192.98 105.12 193.028 105.344 193.028C105.44 193.028 105.572 193.016 105.74 192.992ZM111.304 192.488C111.408 192.4 111.508 192.356 111.604 192.356C111.7 192.356 111.8 192.408 111.904 192.512L112.072 192.692C112.16 192.796 112.204 192.896 112.204 192.992C112.204 193.096 112.152 193.196 112.048 193.292C111.68 193.612 111.312 193.84 110.944 193.976C110.584 194.112 110.184 194.18 109.744 194.18C109.128 194.18 108.592 194.052 108.136 193.796C107.688 193.54 107.34 193.18 107.092 192.716C106.852 192.244 106.732 191.7 106.732 191.084C106.732 190.476 106.848 189.932 107.08 189.452C107.32 188.964 107.656 188.584 108.088 188.312C108.528 188.04 109.04 187.904 109.624 187.904C110.496 187.904 111.168 188.164 111.64 188.684C112.112 189.196 112.348 189.904 112.348 190.808V190.916C112.34 191.044 112.3 191.144 112.228 191.216C112.156 191.288 112.052 191.324 111.916 191.324H107.98C108.028 191.852 108.2 192.284 108.496 192.62C108.8 192.948 109.224 193.112 109.768 193.112C110.064 193.112 110.324 193.068 110.548 192.98C110.772 192.884 111.024 192.72 111.304 192.488ZM109.6 188.912C109.16 188.912 108.804 189.044 108.532 189.308C108.268 189.564 108.096 189.928 108.016 190.4H111.1C111.068 189.936 110.924 189.572 110.668 189.308C110.412 189.044 110.056 188.912 109.6 188.912ZM119.861 187.904C120.493 187.904 120.981 188.084 121.325 188.444C121.669 188.796 121.841 189.272 121.841 189.872V193.58C121.841 193.708 121.805 193.812 121.733 193.892C121.661 193.964 121.557 194 121.421 194H120.989C120.861 194 120.757 193.964 120.677 193.892C120.605 193.812 120.569 193.708 120.569 193.58V190.256C120.569 189.864 120.481 189.556 120.305 189.332C120.129 189.108 119.861 188.996 119.501 188.996C119.133 188.996 118.841 189.12 118.625 189.368C118.417 189.616 118.313 189.936 118.313 190.328V193.58C118.313 193.708 118.277 193.812 118.205 193.892C118.133 193.964 118.029 194 117.893 194H117.461C117.333 194 117.229 193.964 117.149 193.892C117.077 193.812 117.041 193.708 117.041 193.58V190.256C117.041 189.864 116.953 189.556 116.777 189.332C116.609 189.108 116.345 188.996 115.985 188.996C115.633 188.996 115.349 189.112 115.133 189.344C114.917 189.576 114.801 189.876 114.785 190.244V193.58C114.785 193.708 114.749 193.812 114.677 193.892C114.605 193.964 114.501 194 114.365 194H113.933C113.805 194 113.701 193.964 113.621 193.892C113.549 193.812 113.513 193.708 113.513 193.58V188.504C113.513 188.368 113.549 188.264 113.621 188.192C113.701 188.12 113.805 188.084 113.933 188.084H114.281C114.417 188.084 114.521 188.12 114.593 188.192C114.665 188.264 114.701 188.368 114.701 188.504V188.768C115.069 188.192 115.637 187.904 116.405 187.904C116.789 187.904 117.125 187.984 117.413 188.144C117.701 188.304 117.921 188.528 118.073 188.816C118.481 188.208 119.077 187.904 119.861 187.904Z" fill="#474445"/>
<rect x="32.5" y="174.5" width="106" height="31" rx="3.5" stroke="#C3CCD9"/>
<rect x="32.5" y="220.5" width="63" height="31" rx="3.5" fill="white"/>
<g filter="url(#filter0_i_665_10528)">
<path d="M32 224C32 221.791 33.7909 220 36 220H64V252H36C33.7909 252 32 250.209 32 248V224Z" fill="#E5E5E5"/>
<path d="M46 229H41V234H46V229Z" stroke="#767676" stroke-width="1.5" stroke-linecap="round" stroke-linejoin="round"/>
<path d="M46 238H41V243H46V238Z" stroke="#767676" stroke-width="1.5" stroke-linecap="round" stroke-linejoin="round"/>
<path d="M55 229H50V234H55V229Z" stroke="#767676" stroke-width="1.5" stroke-linecap="round" stroke-linejoin="round"/>
<path d="M55 238H50V243H55V238Z" stroke="#767676" stroke-width="1.5" stroke-linecap="round" stroke-linejoin="round"/>
<path d="M32.5 224C32.5 222.067 34.067 220.5 36 220.5H63.5V251.5H36C34.067 251.5 32.5 249.933 32.5 248V224Z" stroke="#D4D4D4"/>
</g>
<path fill-rule="evenodd" clip-rule="evenodd" d="M77.3333 229.444H87.1111C87.3469 229.444 87.573 229.538 87.7397 229.705C87.9064 229.871 88 230.098 88 230.333C88 230.569 87.9064 230.795 87.7397 230.962C87.573 231.129 87.3469 231.222 87.1111 231.222H77.3333C77.0976 231.222 76.8715 231.129 76.7048 230.962C76.5381 230.795 76.4444 230.569 76.4444 230.333C76.4444 230.098 76.5381 229.871 76.7048 229.705C76.8715 229.538 77.0976 229.444 77.3333 229.444ZM77.3333 234.778H87.1111C87.3469 234.778 87.573 234.871 87.7397 235.038C87.9064 235.205 88 235.431 88 235.667C88 235.902 87.9064 236.129 87.7397 236.295C87.573 236.462 87.3469 236.556 87.1111 236.556H77.3333C77.0976 236.556 76.8715 236.462 76.7048 236.295C76.5381 236.129 76.4444 235.902 76.4444 235.667C76.4444 235.431 76.5381 235.205 76.7048 235.038C76.8715 234.871 77.0976 234.778 77.3333 234.778ZM77.3333 240.111H87.1111C87.3469 240.111 87.573 240.205 87.7397 240.371C87.9064 240.538 88 240.764 88 241C88 241.236 87.9064 241.462 87.7397 241.629C87.573 241.795 87.3469 241.889 87.1111 241.889H77.3333C77.0976 241.889 76.8715 241.795 76.7048 241.629C76.5381 241.462 76.4444 241.236 76.4444 241C76.4444 240.764 76.5381 240.538 76.7048 240.371C76.8715 240.205 77.0976 240.111 77.3333 240.111ZM73.3333 234.333C73.687 234.333 74.0261 234.474 74.2761 234.724C74.5262 234.974 74.6667 235.313 74.6667 235.667C74.6667 236.02 74.5262 236.359 74.2761 236.609C74.0261 236.86 73.687 237 73.3333 237C72.9797 237 72.6406 236.86 72.3905 236.609C72.1405 236.359 72 236.02 72 235.667C72 235.313 72.1405 234.974 72.3905 234.724C72.6406 234.474 72.9797 234.333 73.3333 234.333ZM73.3333 239.667C73.687 239.667 74.0261 239.807 74.2761 240.057C74.5262 240.307 74.6667 240.646 74.6667 241C74.6667 241.354 74.5262 241.693 74.2761 241.943C74.0261 242.193 73.687 242.333 73.3333 242.333C72.9797 242.333 72.6406 242.193 72.3905 241.943C72.1405 241.693 72 241.354 72 241C72 240.646 72.1405 240.307 72.3905 240.057C72.6406 239.807 72.9797 239.667 73.3333 239.667ZM73.3333 229C73.687 229 74.0261 229.14 74.2761 229.391C74.5262 229.641 74.6667 229.98 74.6667 230.333C74.6667 230.687 74.5262 231.026 74.2761 231.276C74.0261 231.526 73.687 231.667 73.3333 231.667C72.9797 231.667 72.6406 231.526 72.3905 231.276C72.1405 231.026 72 230.687 72 230.333C72 229.98 72.1405 229.641 72.3905 229.391C72.6406 229.14 72.9797 229 73.3333 229Z" fill="#767676"/>
<rect x="32.5" y="220.5" width="63" height="31" rx="3.5" stroke="#D4D4D4"/>
<rect x="147.5" y="72.5" width="84" height="31" rx="3.5" fill="white"/>
<circle cx="162.953" cy="87.9531" r="2" stroke="#767676" stroke-width="1.5"/>
<path d="M162.035 81.5335C162.303 80.5513 163.697 80.5513 163.965 81.5335L164.306 82.7823C164.478 83.4129 165.199 83.7115 165.766 83.3873L166.89 82.7454C167.774 82.2405 168.76 83.2255 168.255 84.1096L167.613 85.2338C167.289 85.8014 167.587 86.5222 168.218 86.6944L169.466 87.0353C170.449 87.3035 170.449 88.6965 169.466 88.9647L168.218 89.3056C167.587 89.4778 167.289 90.1986 167.613 90.7662L168.255 91.8904C168.76 92.7745 167.774 93.7595 166.89 93.2546L165.766 92.6127C165.199 92.2885 164.478 92.5871 164.306 93.2177L163.965 94.4665C163.697 95.4487 162.303 95.4487 162.035 94.4665L161.694 93.2177C161.522 92.5871 160.801 92.2885 160.234 92.6127L159.11 93.2546C158.226 93.7595 157.24 92.7745 157.745 91.8904L158.387 90.7662C158.711 90.1986 158.413 89.4778 157.782 89.3056L156.534 88.9647C155.551 88.6965 155.551 87.3035 156.534 87.0353L157.782 86.6944C158.413 86.5222 158.711 85.8014 158.387 85.2338L157.745 84.1096C157.24 83.2255 158.226 82.2405 159.11 82.7454L160.234 83.3873C160.801 83.7115 161.522 83.4129 161.694 82.7823L162.035 81.5335Z" stroke="#767676" stroke-width="1.5"/>
<path d="M182.924 92.192C182.268 92.192 181.68 92.1 181.16 91.916C180.648 91.724 180.12 91.404 179.576 90.956C179.464 90.868 179.408 90.764 179.408 90.644C179.408 90.54 179.448 90.444 179.528 90.356L179.804 90.032C179.892 89.92 179.992 89.864 180.104 89.864C180.192 89.864 180.292 89.908 180.404 89.996C180.884 90.38 181.312 90.644 181.688 90.788C182.072 90.932 182.492 91.004 182.948 91.004C183.5 91.004 183.948 90.88 184.292 90.632C184.636 90.376 184.808 90.028 184.808 89.588C184.808 89.3 184.72 89.076 184.544 88.916C184.368 88.748 184.14 88.62 183.86 88.532C183.588 88.444 183.144 88.328 182.528 88.184C181.784 88.008 181.204 87.816 180.788 87.608C180.372 87.4 180.072 87.152 179.888 86.864C179.712 86.568 179.624 86.196 179.624 85.748C179.624 85.276 179.76 84.852 180.032 84.476C180.304 84.1 180.676 83.808 181.148 83.6C181.628 83.392 182.164 83.288 182.756 83.288C183.356 83.288 183.884 83.368 184.34 83.528C184.804 83.688 185.268 83.948 185.732 84.308C185.852 84.404 185.912 84.504 185.912 84.608C185.912 84.696 185.872 84.792 185.792 84.896L185.528 85.208C185.432 85.32 185.332 85.376 185.228 85.376C185.132 85.376 185.032 85.336 184.928 85.256C184.544 84.96 184.188 84.756 183.86 84.644C183.532 84.532 183.16 84.476 182.744 84.476C182.216 84.476 181.788 84.592 181.46 84.824C181.132 85.056 180.968 85.348 180.968 85.7C180.968 85.956 181.044 86.16 181.196 86.312C181.348 86.464 181.568 86.588 181.856 86.684C182.144 86.78 182.588 86.896 183.188 87.032C183.916 87.208 184.492 87.396 184.916 87.596C185.34 87.788 185.656 88.036 185.864 88.34C186.072 88.644 186.176 89.032 186.176 89.504C186.176 90.032 186.04 90.5 185.768 90.908C185.496 91.316 185.116 91.632 184.628 91.856C184.14 92.08 183.572 92.192 182.924 92.192ZM191.644 90.488C191.748 90.4 191.848 90.356 191.944 90.356C192.04 90.356 192.14 90.408 192.244 90.512L192.412 90.692C192.5 90.796 192.544 90.896 192.544 90.992C192.544 91.096 192.492 91.196 192.388 91.292C192.02 91.612 191.652 91.84 191.284 91.976C190.924 92.112 190.524 92.18 190.084 92.18C189.468 92.18 188.932 92.052 188.476 91.796C188.028 91.54 187.68 91.18 187.432 90.716C187.192 90.244 187.072 89.7 187.072 89.084C187.072 88.476 187.188 87.932 187.42 87.452C187.66 86.964 187.996 86.584 188.428 86.312C188.868 86.04 189.38 85.904 189.964 85.904C190.836 85.904 191.508 86.164 191.98 86.684C192.452 87.196 192.688 87.904 192.688 88.808V88.916C192.68 89.044 192.64 89.144 192.568 89.216C192.496 89.288 192.392 89.324 192.256 89.324H188.32C188.368 89.852 188.54 90.284 188.836 90.62C189.14 90.948 189.564 91.112 190.108 91.112C190.404 91.112 190.664 91.068 190.888 90.98C191.112 90.884 191.364 90.72 191.644 90.488ZM189.94 86.912C189.5 86.912 189.144 87.044 188.872 87.308C188.608 87.564 188.436 87.928 188.356 88.4H191.44C191.408 87.936 191.264 87.572 191.008 87.308C190.752 87.044 190.396 86.912 189.94 86.912ZM196.639 90.992C196.663 90.984 196.699 90.98 196.747 90.98C196.947 90.98 197.067 91.096 197.107 91.328L197.143 91.52C197.151 91.544 197.155 91.584 197.155 91.64C197.155 91.84 197.043 91.968 196.819 92.024C196.499 92.096 196.207 92.132 195.943 92.132C195.375 92.132 194.963 92 194.707 91.736C194.459 91.472 194.335 91.076 194.335 90.548V87.056H193.675C193.547 87.056 193.443 87.02 193.363 86.948C193.291 86.868 193.255 86.764 193.255 86.636V86.504C193.255 86.368 193.291 86.264 193.363 86.192C193.443 86.12 193.547 86.084 193.675 86.084H194.335V84.596C194.335 84.46 194.371 84.356 194.443 84.284C194.523 84.212 194.627 84.176 194.755 84.176H195.187C195.323 84.176 195.427 84.212 195.499 84.284C195.571 84.356 195.607 84.46 195.607 84.596V86.084H196.687C196.823 86.084 196.927 86.12 196.999 86.192C197.071 86.264 197.107 86.368 197.107 86.504V86.636C197.107 86.764 197.071 86.868 196.999 86.948C196.927 87.02 196.823 87.056 196.687 87.056H195.607V90.392C195.607 90.624 195.655 90.788 195.751 90.884C195.855 90.98 196.019 91.028 196.243 91.028C196.339 91.028 196.471 91.016 196.639 90.992ZM201.033 90.992C201.057 90.984 201.093 90.98 201.141 90.98C201.341 90.98 201.461 91.096 201.501 91.328L201.537 91.52C201.545 91.544 201.549 91.584 201.549 91.64C201.549 91.84 201.437 91.968 201.213 92.024C200.893 92.096 200.601 92.132 200.337 92.132C199.769 92.132 199.357 92 199.101 91.736C198.853 91.472 198.729 91.076 198.729 90.548V87.056H198.069C197.941 87.056 197.837 87.02 197.757 86.948C197.685 86.868 197.649 86.764 197.649 86.636V86.504C197.649 86.368 197.685 86.264 197.757 86.192C197.837 86.12 197.941 86.084 198.069 86.084H198.729V84.596C198.729 84.46 198.765 84.356 198.837 84.284C198.917 84.212 199.021 84.176 199.149 84.176H199.581C199.717 84.176 199.821 84.212 199.893 84.284C199.965 84.356 200.001 84.46 200.001 84.596V86.084H201.081C201.217 86.084 201.321 86.12 201.393 86.192C201.465 86.264 201.501 86.368 201.501 86.504V86.636C201.501 86.764 201.465 86.868 201.393 86.948C201.321 87.02 201.217 87.056 201.081 87.056H200.001V90.392C200.001 90.624 200.049 90.788 200.145 90.884C200.249 90.98 200.413 91.028 200.637 91.028C200.733 91.028 200.865 91.016 201.033 90.992ZM203.196 84.932C202.964 84.932 202.768 84.856 202.608 84.704C202.448 84.544 202.368 84.356 202.368 84.14C202.368 83.916 202.448 83.728 202.608 83.576C202.768 83.424 202.964 83.348 203.196 83.348C203.428 83.348 203.624 83.424 203.784 83.576C203.944 83.728 204.024 83.916 204.024 84.14C204.024 84.356 203.944 84.544 203.784 84.704C203.624 84.856 203.428 84.932 203.196 84.932ZM202.968 92C202.84 92 202.736 91.964 202.656 91.892C202.584 91.812 202.548 91.708 202.548 91.58V86.504C202.548 86.368 202.584 86.264 202.656 86.192C202.736 86.12 202.84 86.084 202.968 86.084H203.4C203.536 86.084 203.64 86.12 203.712 86.192C203.784 86.264 203.82 86.368 203.82 86.504V91.58C203.82 91.708 203.784 91.812 203.712 91.892C203.64 91.964 203.536 92 203.4 92H202.968ZM208.303 85.904C208.983 85.904 209.503 86.096 209.863 86.48C210.231 86.856 210.415 87.344 210.415 87.944V91.58C210.415 91.708 210.379 91.812 210.307 91.892C210.235 91.964 210.131 92 209.995 92H209.563C209.435 92 209.331 91.964 209.251 91.892C209.179 91.812 209.143 91.708 209.143 91.58V88.34C209.143 87.908 209.035 87.576 208.819 87.344C208.611 87.112 208.311 86.996 207.919 86.996C207.535 86.996 207.211 87.128 206.947 87.392C206.691 87.656 206.563 87.988 206.563 88.388V91.58C206.563 91.708 206.527 91.812 206.455 91.892C206.383 91.964 206.279 92 206.143 92H205.711C205.583 92 205.479 91.964 205.399 91.892C205.327 91.812 205.291 91.708 205.291 91.58V86.504C205.291 86.368 205.327 86.264 205.399 86.192C205.479 86.12 205.583 86.084 205.711 86.084H206.059C206.195 86.084 206.299 86.12 206.371 86.192C206.443 86.264 206.479 86.368 206.479 86.504V86.816C206.671 86.52 206.923 86.296 207.235 86.144C207.547 85.984 207.903 85.904 208.303 85.904ZM216.041 86.468C216.041 86.348 216.077 86.256 216.149 86.192C216.229 86.12 216.333 86.084 216.461 86.084H216.797C216.933 86.084 217.037 86.12 217.109 86.192C217.181 86.264 217.217 86.368 217.217 86.504V91.784C217.217 92.576 216.961 93.192 216.449 93.632C215.945 94.072 215.273 94.292 214.433 94.292C213.593 94.292 212.801 94.076 212.057 93.644C211.905 93.564 211.829 93.456 211.829 93.32C211.829 93.248 211.861 93.16 211.925 93.056L212.081 92.828C212.169 92.692 212.277 92.624 212.405 92.624C212.493 92.624 212.581 92.652 212.669 92.708C212.989 92.892 213.285 93.024 213.557 93.104C213.829 93.192 214.117 93.236 214.421 93.236C214.885 93.236 215.257 93.108 215.537 92.852C215.825 92.604 215.969 92.212 215.969 91.676V91.04C215.569 91.608 214.969 91.892 214.169 91.892C213.673 91.892 213.225 91.768 212.825 91.52C212.433 91.264 212.125 90.912 211.901 90.464C211.685 90.008 211.577 89.488 211.577 88.904C211.577 88.32 211.685 87.804 211.901 87.356C212.125 86.9 212.433 86.544 212.825 86.288C213.225 86.032 213.673 85.904 214.169 85.904C215.017 85.904 215.641 86.22 216.041 86.852V86.468ZM214.421 90.824C214.885 90.824 215.265 90.648 215.561 90.296C215.857 89.936 216.005 89.472 216.005 88.904C216.005 88.344 215.857 87.888 215.561 87.536C215.273 87.176 214.893 86.996 214.421 86.996C213.941 86.996 213.561 87.172 213.281 87.524C213.001 87.876 212.861 88.336 212.861 88.904C212.861 89.48 213.001 89.944 213.281 90.296C213.561 90.648 213.941 90.824 214.421 90.824ZM220.965 92.18C220.477 92.18 220.041 92.12 219.657 92C219.281 91.872 218.897 91.652 218.505 91.34C218.385 91.252 218.325 91.152 218.325 91.04C218.325 90.952 218.369 90.856 218.457 90.752L218.637 90.548C218.733 90.436 218.837 90.38 218.949 90.38C219.037 90.38 219.133 90.42 219.237 90.5C219.573 90.748 219.869 90.92 220.125 91.016C220.381 91.104 220.669 91.148 220.989 91.148C221.333 91.148 221.613 91.08 221.829 90.944C222.053 90.8 222.165 90.608 222.165 90.368C222.165 90.184 222.101 90.04 221.973 89.936C221.853 89.824 221.693 89.74 221.493 89.684C221.293 89.62 220.997 89.548 220.605 89.468C220.053 89.348 219.621 89.22 219.309 89.084C219.005 88.94 218.785 88.76 218.649 88.544C218.513 88.328 218.445 88.052 218.445 87.716C218.445 87.372 218.541 87.064 218.733 86.792C218.933 86.52 219.209 86.304 219.561 86.144C219.921 85.984 220.341 85.904 220.821 85.904C221.253 85.904 221.637 85.952 221.973 86.048C222.317 86.144 222.653 86.308 222.981 86.54C223.109 86.636 223.173 86.744 223.173 86.864C223.173 86.944 223.133 87.036 223.053 87.14L222.897 87.332C222.809 87.444 222.701 87.5 222.573 87.5C222.477 87.5 222.385 87.468 222.297 87.404C222.033 87.228 221.789 87.108 221.565 87.044C221.341 86.972 221.089 86.936 220.809 86.936C220.465 86.936 220.189 87.004 219.981 87.14C219.773 87.276 219.669 87.452 219.669 87.668C219.669 87.812 219.717 87.928 219.813 88.016C219.917 88.096 220.061 88.168 220.245 88.232C220.437 88.288 220.737 88.36 221.145 88.448C221.697 88.568 222.133 88.704 222.453 88.856C222.781 89 223.021 89.188 223.173 89.42C223.333 89.644 223.413 89.936 223.413 90.296C223.413 90.856 223.189 91.312 222.741 91.664C222.301 92.008 221.709 92.18 220.965 92.18Z" fill="#474445"/>
<rect x="147.5" y="72.5" width="84" height="31" rx="3.5" stroke="#C3CCD9"/>
<rect x="147.5" y="174.5" width="84" height="31" rx="3.5" fill="white"/>
<circle cx="162.953" cy="189.953" r="2" stroke="#767676" stroke-width="1.5"/>
<path d="M162.035 183.534C162.303 182.551 163.697 182.551 163.965 183.534L164.306 184.782C164.478 185.413 165.199 185.711 165.766 185.387L166.89 184.745C167.774 184.24 168.76 185.226 168.255 186.11L167.613 187.234C167.289 187.801 167.587 188.522 168.218 188.694L169.466 189.035C170.449 189.303 170.449 190.697 169.466 190.965L168.218 191.306C167.587 191.478 167.289 192.199 167.613 192.766L168.255 193.89C168.76 194.774 167.774 195.76 166.89 195.255L165.766 194.613C165.199 194.289 164.478 194.587 164.306 195.218L163.965 196.466C163.697 197.449 162.303 197.449 162.035 196.466L161.694 195.218C161.522 194.587 160.801 194.289 160.234 194.613L159.11 195.255C158.226 195.76 157.24 194.774 157.745 193.89L158.387 192.766C158.711 192.199 158.413 191.478 157.782 191.306L156.534 190.965C155.551 190.697 155.551 189.303 156.534 189.035L157.782 188.694C158.413 188.522 158.711 187.801 158.387 187.234L157.745 186.11C157.24 185.226 158.226 184.24 159.11 184.745L160.234 185.387C160.801 185.711 161.522 185.413 161.694 184.782L162.035 183.534Z" stroke="#767676" stroke-width="1.5"/>
<path d="M182.924 194.192C182.268 194.192 181.68 194.1 181.16 193.916C180.648 193.724 180.12 193.404 179.576 192.956C179.464 192.868 179.408 192.764 179.408 192.644C179.408 192.54 179.448 192.444 179.528 192.356L179.804 192.032C179.892 191.92 179.992 191.864 180.104 191.864C180.192 191.864 180.292 191.908 180.404 191.996C180.884 192.38 181.312 192.644 181.688 192.788C182.072 192.932 182.492 193.004 182.948 193.004C183.5 193.004 183.948 192.88 184.292 192.632C184.636 192.376 184.808 192.028 184.808 191.588C184.808 191.3 184.72 191.076 184.544 190.916C184.368 190.748 184.14 190.62 183.86 190.532C183.588 190.444 183.144 190.328 182.528 190.184C181.784 190.008 181.204 189.816 180.788 189.608C180.372 189.4 180.072 189.152 179.888 188.864C179.712 188.568 179.624 188.196 179.624 187.748C179.624 187.276 179.76 186.852 180.032 186.476C180.304 186.1 180.676 185.808 181.148 185.6C181.628 185.392 182.164 185.288 182.756 185.288C183.356 185.288 183.884 185.368 184.34 185.528C184.804 185.688 185.268 185.948 185.732 186.308C185.852 186.404 185.912 186.504 185.912 186.608C185.912 186.696 185.872 186.792 185.792 186.896L185.528 187.208C185.432 187.32 185.332 187.376 185.228 187.376C185.132 187.376 185.032 187.336 184.928 187.256C184.544 186.96 184.188 186.756 183.86 186.644C183.532 186.532 183.16 186.476 182.744 186.476C182.216 186.476 181.788 186.592 181.46 186.824C181.132 187.056 180.968 187.348 180.968 187.7C180.968 187.956 181.044 188.16 181.196 188.312C181.348 188.464 181.568 188.588 181.856 188.684C182.144 188.78 182.588 188.896 183.188 189.032C183.916 189.208 184.492 189.396 184.916 189.596C185.34 189.788 185.656 190.036 185.864 190.34C186.072 190.644 186.176 191.032 186.176 191.504C186.176 192.032 186.04 192.5 185.768 192.908C185.496 193.316 185.116 193.632 184.628 193.856C184.14 194.08 183.572 194.192 182.924 194.192ZM191.644 192.488C191.748 192.4 191.848 192.356 191.944 192.356C192.04 192.356 192.14 192.408 192.244 192.512L192.412 192.692C192.5 192.796 192.544 192.896 192.544 192.992C192.544 193.096 192.492 193.196 192.388 193.292C192.02 193.612 191.652 193.84 191.284 193.976C190.924 194.112 190.524 194.18 190.084 194.18C189.468 194.18 188.932 194.052 188.476 193.796C188.028 193.54 187.68 193.18 187.432 192.716C187.192 192.244 187.072 191.7 187.072 191.084C187.072 190.476 187.188 189.932 187.42 189.452C187.66 188.964 187.996 188.584 188.428 188.312C188.868 188.04 189.38 187.904 189.964 187.904C190.836 187.904 191.508 188.164 191.98 188.684C192.452 189.196 192.688 189.904 192.688 190.808V190.916C192.68 191.044 192.64 191.144 192.568 191.216C192.496 191.288 192.392 191.324 192.256 191.324H188.32C188.368 191.852 188.54 192.284 188.836 192.62C189.14 192.948 189.564 193.112 190.108 193.112C190.404 193.112 190.664 193.068 190.888 192.98C191.112 192.884 191.364 192.72 191.644 192.488ZM189.94 188.912C189.5 188.912 189.144 189.044 188.872 189.308C188.608 189.564 188.436 189.928 188.356 190.4H191.44C191.408 189.936 191.264 189.572 191.008 189.308C190.752 189.044 190.396 188.912 189.94 188.912ZM196.639 192.992C196.663 192.984 196.699 192.98 196.747 192.98C196.947 192.98 197.067 193.096 197.107 193.328L197.143 193.52C197.151 193.544 197.155 193.584 197.155 193.64C197.155 193.84 197.043 193.968 196.819 194.024C196.499 194.096 196.207 194.132 195.943 194.132C195.375 194.132 194.963 194 194.707 193.736C194.459 193.472 194.335 193.076 194.335 192.548V189.056H193.675C193.547 189.056 193.443 189.02 193.363 188.948C193.291 188.868 193.255 188.764 193.255 188.636V188.504C193.255 188.368 193.291 188.264 193.363 188.192C193.443 188.12 193.547 188.084 193.675 188.084H194.335V186.596C194.335 186.46 194.371 186.356 194.443 186.284C194.523 186.212 194.627 186.176 194.755 186.176H195.187C195.323 186.176 195.427 186.212 195.499 186.284C195.571 186.356 195.607 186.46 195.607 186.596V188.084H196.687C196.823 188.084 196.927 188.12 196.999 188.192C197.071 188.264 197.107 188.368 197.107 188.504V188.636C197.107 188.764 197.071 188.868 196.999 188.948C196.927 189.02 196.823 189.056 196.687 189.056H195.607V192.392C195.607 192.624 195.655 192.788 195.751 192.884C195.855 192.98 196.019 193.028 196.243 193.028C196.339 193.028 196.471 193.016 196.639 192.992ZM201.033 192.992C201.057 192.984 201.093 192.98 201.141 192.98C201.341 192.98 201.461 193.096 201.501 193.328L201.537 193.52C201.545 193.544 201.549 193.584 201.549 193.64C201.549 193.84 201.437 193.968 201.213 194.024C200.893 194.096 200.601 194.132 200.337 194.132C199.769 194.132 199.357 194 199.101 193.736C198.853 193.472 198.729 193.076 198.729 192.548V189.056H198.069C197.941 189.056 197.837 189.02 197.757 188.948C197.685 188.868 197.649 188.764 197.649 188.636V188.504C197.649 188.368 197.685 188.264 197.757 188.192C197.837 188.12 197.941 188.084 198.069 188.084H198.729V186.596C198.729 186.46 198.765 186.356 198.837 186.284C198.917 186.212 199.021 186.176 199.149 186.176H199.581C199.717 186.176 199.821 186.212 199.893 186.284C199.965 186.356 200.001 186.46 200.001 186.596V188.084H201.081C201.217 188.084 201.321 188.12 201.393 188.192C201.465 188.264 201.501 188.368 201.501 188.504V188.636C201.501 188.764 201.465 188.868 201.393 188.948C201.321 189.02 201.217 189.056 201.081 189.056H200.001V192.392C200.001 192.624 200.049 192.788 200.145 192.884C200.249 192.98 200.413 193.028 200.637 193.028C200.733 193.028 200.865 193.016 201.033 192.992ZM203.196 186.932C202.964 186.932 202.768 186.856 202.608 186.704C202.448 186.544 202.368 186.356 202.368 186.14C202.368 185.916 202.448 185.728 202.608 185.576C202.768 185.424 202.964 185.348 203.196 185.348C203.428 185.348 203.624 185.424 203.784 185.576C203.944 185.728 204.024 185.916 204.024 186.14C204.024 186.356 203.944 186.544 203.784 186.704C203.624 186.856 203.428 186.932 203.196 186.932ZM202.968 194C202.84 194 202.736 193.964 202.656 193.892C202.584 193.812 202.548 193.708 202.548 193.58V188.504C202.548 188.368 202.584 188.264 202.656 188.192C202.736 188.12 202.84 188.084 202.968 188.084H203.4C203.536 188.084 203.64 188.12 203.712 188.192C203.784 188.264 203.82 188.368 203.82 188.504V193.58C203.82 193.708 203.784 193.812 203.712 193.892C203.64 193.964 203.536 194 203.4 194H202.968ZM208.303 187.904C208.983 187.904 209.503 188.096 209.863 188.48C210.231 188.856 210.415 189.344 210.415 189.944V193.58C210.415 193.708 210.379 193.812 210.307 193.892C210.235 193.964 210.131 194 209.995 194H209.563C209.435 194 209.331 193.964 209.251 193.892C209.179 193.812 209.143 193.708 209.143 193.58V190.34C209.143 189.908 209.035 189.576 208.819 189.344C208.611 189.112 208.311 188.996 207.919 188.996C207.535 188.996 207.211 189.128 206.947 189.392C206.691 189.656 206.563 189.988 206.563 190.388V193.58C206.563 193.708 206.527 193.812 206.455 193.892C206.383 193.964 206.279 194 206.143 194H205.711C205.583 194 205.479 193.964 205.399 193.892C205.327 193.812 205.291 193.708 205.291 193.58V188.504C205.291 188.368 205.327 188.264 205.399 188.192C205.479 188.12 205.583 188.084 205.711 188.084H206.059C206.195 188.084 206.299 188.12 206.371 188.192C206.443 188.264 206.479 188.368 206.479 188.504V188.816C206.671 188.52 206.923 188.296 207.235 188.144C207.547 187.984 207.903 187.904 208.303 187.904ZM216.041 188.468C216.041 188.348 216.077 188.256 216.149 188.192C216.229 188.12 216.333 188.084 216.461 188.084H216.797C216.933 188.084 217.037 188.12 217.109 188.192C217.181 188.264 217.217 188.368 217.217 188.504V193.784C217.217 194.576 216.961 195.192 216.449 195.632C215.945 196.072 215.273 196.292 214.433 196.292C213.593 196.292 212.801 196.076 212.057 195.644C211.905 195.564 211.829 195.456 211.829 195.32C211.829 195.248 211.861 195.16 211.925 195.056L212.081 194.828C212.169 194.692 212.277 194.624 212.405 194.624C212.493 194.624 212.581 194.652 212.669 194.708C212.989 194.892 213.285 195.024 213.557 195.104C213.829 195.192 214.117 195.236 214.421 195.236C214.885 195.236 215.257 195.108 215.537 194.852C215.825 194.604 215.969 194.212 215.969 193.676V193.04C215.569 193.608 214.969 193.892 214.169 193.892C213.673 193.892 213.225 193.768 212.825 193.52C212.433 193.264 212.125 192.912 211.901 192.464C211.685 192.008 211.577 191.488 211.577 190.904C211.577 190.32 211.685 189.804 211.901 189.356C212.125 188.9 212.433 188.544 212.825 188.288C213.225 188.032 213.673 187.904 214.169 187.904C215.017 187.904 215.641 188.22 216.041 188.852V188.468ZM214.421 192.824C214.885 192.824 215.265 192.648 215.561 192.296C215.857 191.936 216.005 191.472 216.005 190.904C216.005 190.344 215.857 189.888 215.561 189.536C215.273 189.176 214.893 188.996 214.421 188.996C213.941 188.996 213.561 189.172 213.281 189.524C213.001 189.876 212.861 190.336 212.861 190.904C212.861 191.48 213.001 191.944 213.281 192.296C213.561 192.648 213.941 192.824 214.421 192.824ZM220.965 194.18C220.477 194.18 220.041 194.12 219.657 194C219.281 193.872 218.897 193.652 218.505 193.34C218.385 193.252 218.325 193.152 218.325 193.04C218.325 192.952 218.369 192.856 218.457 192.752L218.637 192.548C218.733 192.436 218.837 192.38 218.949 192.38C219.037 192.38 219.133 192.42 219.237 192.5C219.573 192.748 219.869 192.92 220.125 193.016C220.381 193.104 220.669 193.148 220.989 193.148C221.333 193.148 221.613 193.08 221.829 192.944C222.053 192.8 222.165 192.608 222.165 192.368C222.165 192.184 222.101 192.04 221.973 191.936C221.853 191.824 221.693 191.74 221.493 191.684C221.293 191.62 220.997 191.548 220.605 191.468C220.053 191.348 219.621 191.22 219.309 191.084C219.005 190.94 218.785 190.76 218.649 190.544C218.513 190.328 218.445 190.052 218.445 189.716C218.445 189.372 218.541 189.064 218.733 188.792C218.933 188.52 219.209 188.304 219.561 188.144C219.921 187.984 220.341 187.904 220.821 187.904C221.253 187.904 221.637 187.952 221.973 188.048C222.317 188.144 222.653 188.308 222.981 188.54C223.109 188.636 223.173 188.744 223.173 188.864C223.173 188.944 223.133 189.036 223.053 189.14L222.897 189.332C222.809 189.444 222.701 189.5 222.573 189.5C222.477 189.5 222.385 189.468 222.297 189.404C222.033 189.228 221.789 189.108 221.565 189.044C221.341 188.972 221.089 188.936 220.809 188.936C220.465 188.936 220.189 189.004 219.981 189.14C219.773 189.276 219.669 189.452 219.669 189.668C219.669 189.812 219.717 189.928 219.813 190.016C219.917 190.096 220.061 190.168 220.245 190.232C220.437 190.288 220.737 190.36 221.145 190.448C221.697 190.568 222.133 190.704 222.453 190.856C222.781 191 223.021 191.188 223.173 191.42C223.333 191.644 223.413 191.936 223.413 192.296C223.413 192.856 223.189 193.312 222.741 193.664C222.301 194.008 221.709 194.18 220.965 194.18Z" fill="#474445"/>
<rect x="147.5" y="174.5" width="84" height="31" rx="3.5" stroke="#C3CCD9"/>
<path d="M35.852 52.18C35.22 52.18 34.648 52.084 34.136 51.892C33.632 51.692 33.1 51.368 32.54 50.92C32.468 50.856 32.432 50.796 32.432 50.74C32.432 50.692 32.456 50.64 32.504 50.584L32.696 50.356C32.736 50.292 32.796 50.26 32.876 50.26C32.94 50.26 32.992 50.28 33.032 50.32C33.6 50.76 34.096 51.06 34.52 51.22C34.944 51.372 35.388 51.448 35.852 51.448C36.5 51.448 37.028 51.288 37.436 50.968C37.844 50.64 38.048 50.196 38.048 49.636C38.048 49.276 37.952 48.988 37.76 48.772C37.568 48.556 37.304 48.388 36.968 48.268C36.64 48.148 36.172 48.02 35.564 47.884C34.836 47.724 34.268 47.552 33.86 47.368C33.46 47.184 33.168 46.952 32.984 46.672C32.8 46.392 32.708 46.032 32.708 45.592C32.708 45.128 32.84 44.724 33.104 44.38C33.376 44.028 33.736 43.76 34.184 43.576C34.632 43.392 35.116 43.3 35.636 43.3C36.204 43.3 36.72 43.384 37.184 43.552C37.656 43.72 38.12 43.988 38.576 44.356C38.648 44.404 38.684 44.46 38.684 44.524C38.684 44.572 38.66 44.628 38.612 44.692L38.432 44.908C38.392 44.972 38.332 45.004 38.252 45.004C38.188 45.004 38.132 44.984 38.084 44.944C37.676 44.608 37.28 44.372 36.896 44.236C36.52 44.1 36.104 44.032 35.648 44.032C35.232 44.032 34.864 44.1 34.544 44.236C34.224 44.364 33.972 44.544 33.788 44.776C33.612 45.008 33.524 45.272 33.524 45.568C33.524 45.888 33.612 46.144 33.788 46.336C33.972 46.528 34.224 46.68 34.544 46.792C34.872 46.904 35.348 47.032 35.972 47.176C36.692 47.344 37.26 47.532 37.676 47.74C38.1 47.948 38.408 48.204 38.6 48.508C38.792 48.804 38.888 49.172 38.888 49.612C38.888 50.124 38.756 50.576 38.492 50.968C38.236 51.352 37.876 51.652 37.412 51.868C36.948 52.076 36.428 52.18 35.852 52.18ZM44.6726 50.596C44.7286 50.54 44.7886 50.512 44.8526 50.512C44.9086 50.512 44.9606 50.536 45.0086 50.584L45.1646 50.728C45.2206 50.784 45.2486 50.844 45.2486 50.908C45.2486 50.956 45.2246 51.012 45.1766 51.076C44.7846 51.468 44.4046 51.748 44.0366 51.916C43.6686 52.076 43.2566 52.156 42.8006 52.156C42.2246 52.156 41.7246 52.028 41.3006 51.772C40.8766 51.516 40.5486 51.16 40.3166 50.704C40.0846 50.24 39.9686 49.704 39.9686 49.096C39.9686 48.48 40.0806 47.936 40.3046 47.464C40.5366 46.984 40.8606 46.612 41.2766 46.348C41.6926 46.076 42.1726 45.94 42.7166 45.94C43.5246 45.94 44.1606 46.192 44.6246 46.696C45.0886 47.2 45.3206 47.88 45.3206 48.736V48.88C45.3126 48.952 45.2846 49.008 45.2366 49.048C45.1966 49.088 45.1406 49.108 45.0686 49.108H40.7726C40.7966 49.78 40.9726 50.348 41.3006 50.812C41.6366 51.268 42.1366 51.496 42.8006 51.496C43.1606 51.496 43.4766 51.432 43.7486 51.304C44.0286 51.168 44.3366 50.932 44.6726 50.596ZM42.7166 46.6C42.1886 46.6 41.7526 46.764 41.4086 47.092C41.0726 47.412 40.8686 47.884 40.7966 48.508H44.5286C44.5126 47.924 44.3446 47.46 44.0246 47.116C43.7046 46.772 43.2686 46.6 42.7166 46.6ZM46.9916 52C46.8316 52 46.7516 51.92 46.7516 51.76V43.72C46.7516 43.56 46.8316 43.48 46.9916 43.48H47.3036C47.4636 43.48 47.5436 43.56 47.5436 43.72V51.76C47.5436 51.92 47.4636 52 47.3036 52H46.9916ZM53.6374 50.596C53.6934 50.54 53.7534 50.512 53.8174 50.512C53.8734 50.512 53.9254 50.536 53.9734 50.584L54.1294 50.728C54.1854 50.784 54.2134 50.844 54.2134 50.908C54.2134 50.956 54.1894 51.012 54.1414 51.076C53.7494 51.468 53.3694 51.748 53.0014 51.916C52.6334 52.076 52.2214 52.156 51.7654 52.156C51.1894 52.156 50.6894 52.028 50.2654 51.772C49.8414 51.516 49.5134 51.16 49.2814 50.704C49.0494 50.24 48.9334 49.704 48.9334 49.096C48.9334 48.48 49.0454 47.936 49.2694 47.464C49.5014 46.984 49.8254 46.612 50.2414 46.348C50.6574 46.076 51.1374 45.94 51.6814 45.94C52.4894 45.94 53.1254 46.192 53.5894 46.696C54.0534 47.2 54.2854 47.88 54.2854 48.736V48.88C54.2774 48.952 54.2494 49.008 54.2014 49.048C54.1614 49.088 54.1054 49.108 54.0334 49.108H49.7374C49.7614 49.78 49.9374 50.348 50.2654 50.812C50.6014 51.268 51.1014 51.496 51.7654 51.496C52.1254 51.496 52.4414 51.432 52.7134 51.304C52.9934 51.168 53.3014 50.932 53.6374 50.596ZM51.6814 46.6C51.1534 46.6 50.7174 46.764 50.3734 47.092C50.0374 47.412 49.8334 47.884 49.7614 48.508H53.4934C53.4774 47.924 53.3094 47.46 52.9894 47.116C52.6694 46.772 52.2334 46.6 51.6814 46.6ZM58.1161 52.156C57.5481 52.156 57.0521 52.028 56.6281 51.772C56.2121 51.508 55.8881 51.144 55.6561 50.68C55.4321 50.208 55.3201 49.664 55.3201 49.048C55.3201 48.44 55.4321 47.9 55.6561 47.428C55.8881 46.956 56.2121 46.592 56.6281 46.336C57.0521 46.072 57.5401 45.94 58.0921 45.94C58.5401 45.94 58.9321 46.016 59.2681 46.168C59.6041 46.312 59.9281 46.552 60.2401 46.888C60.2881 46.936 60.3121 46.988 60.3121 47.044C60.3121 47.116 60.2801 47.176 60.2161 47.224L60.0481 47.38C60.0001 47.428 59.9441 47.452 59.8801 47.452C59.8241 47.452 59.7641 47.42 59.7001 47.356C59.4201 47.076 59.1521 46.88 58.8961 46.768C58.6481 46.656 58.3721 46.6 58.0681 46.6C57.6521 46.6 57.2961 46.716 57.0001 46.948C56.7121 47.18 56.4961 47.484 56.3521 47.86C56.2081 48.228 56.1361 48.624 56.1361 49.048C56.1361 49.472 56.2081 49.872 56.3521 50.248C56.4961 50.616 56.7161 50.916 57.0121 51.148C57.3081 51.372 57.6721 51.484 58.1041 51.484C58.4241 51.484 58.7041 51.428 58.9441 51.316C59.1921 51.196 59.4681 50.972 59.7721 50.644C59.8361 50.58 59.8961 50.548 59.9521 50.548C60.0161 50.548 60.0721 50.572 60.1201 50.62L60.2881 50.752C60.3441 50.8 60.3721 50.856 60.3721 50.92C60.3721 50.984 60.3361 51.06 60.2641 51.148C59.9281 51.516 59.5921 51.776 59.2561 51.928C58.9201 52.08 58.5401 52.156 58.1161 52.156ZM64.3567 51.34C64.3807 51.332 64.4127 51.328 64.4527 51.328C64.5007 51.328 64.5447 51.344 64.5847 51.376C64.6247 51.408 64.6487 51.452 64.6567 51.508L64.6927 51.676C64.7007 51.692 64.7047 51.72 64.7047 51.76C64.7047 51.872 64.6447 51.94 64.5247 51.964C64.2367 52.052 63.9287 52.096 63.6007 52.096C63.0807 52.096 62.7087 51.98 62.4847 51.748C62.2687 51.508 62.1607 51.164 62.1607 50.716V46.684H61.2727C61.1127 46.684 61.0327 46.604 61.0327 46.444V46.324C61.0327 46.164 61.1127 46.084 61.2727 46.084H62.1607V44.26C62.1607 44.1 62.2407 44.02 62.4007 44.02H62.7127C62.8727 44.02 62.9527 44.1 62.9527 44.26V46.084H64.3927C64.5527 46.084 64.6327 46.164 64.6327 46.324V46.444C64.6327 46.604 64.5527 46.684 64.3927 46.684H62.9527V50.62C62.9527 50.916 63.0087 51.124 63.1207 51.244C63.2327 51.364 63.4247 51.424 63.6967 51.424C63.8887 51.424 64.1087 51.396 64.3567 51.34ZM66.2371 44.584C66.0771 44.584 65.9411 44.528 65.8291 44.416C65.7251 44.304 65.6731 44.168 65.6731 44.008C65.6731 43.848 65.7251 43.716 65.8291 43.612C65.9411 43.508 66.0771 43.456 66.2371 43.456C66.4051 43.456 66.5411 43.508 66.6451 43.612C66.7571 43.716 66.8131 43.848 66.8131 44.008C66.8131 44.168 66.7571 44.304 66.6451 44.416C66.5411 44.528 66.4051 44.584 66.2371 44.584ZM66.0811 52C65.9211 52 65.8411 51.92 65.8411 51.76V46.324C65.8411 46.164 65.9211 46.084 66.0811 46.084H66.3931C66.5531 46.084 66.6331 46.164 66.6331 46.324V51.76C66.6331 51.92 66.5531 52 66.3931 52H66.0811ZM70.8438 52.156C70.2918 52.156 69.7998 52.024 69.3678 51.76C68.9358 51.496 68.5998 51.132 68.3598 50.668C68.1198 50.196 67.9998 49.656 67.9998 49.048C67.9998 48.44 68.1198 47.904 68.3598 47.44C68.5998 46.968 68.9358 46.6 69.3678 46.336C69.7998 46.072 70.2918 45.94 70.8438 45.94C71.3958 45.94 71.8878 46.072 72.3198 46.336C72.7518 46.6 73.0878 46.968 73.3278 47.44C73.5678 47.904 73.6878 48.44 73.6878 49.048C73.6878 49.656 73.5678 50.196 73.3278 50.668C73.0878 51.132 72.7518 51.496 72.3198 51.76C71.8878 52.024 71.3958 52.156 70.8438 52.156ZM70.8438 51.496C71.4598 51.496 71.9518 51.272 72.3198 50.824C72.6878 50.368 72.8718 49.776 72.8718 49.048C72.8718 48.32 72.6878 47.732 72.3198 47.284C71.9518 46.828 71.4598 46.6 70.8438 46.6C70.2278 46.6 69.7358 46.828 69.3678 47.284C68.9998 47.732 68.8158 48.32 68.8158 49.048C68.8158 49.776 68.9998 50.368 69.3678 50.824C69.7358 51.272 70.2278 51.496 70.8438 51.496ZM77.7038 45.94C78.3998 45.94 78.9238 46.132 79.2758 46.516C79.6358 46.9 79.8158 47.38 79.8158 47.956V51.76C79.8158 51.92 79.7358 52 79.5758 52H79.2638C79.1038 52 79.0238 51.92 79.0238 51.76V48.22C79.0238 47.692 78.8958 47.292 78.6398 47.02C78.3838 46.748 78.0158 46.612 77.5358 46.612C77.2318 46.612 76.9518 46.688 76.6958 46.84C76.4398 46.984 76.2358 47.184 76.0838 47.44C75.9318 47.696 75.8558 47.976 75.8558 48.28V51.76C75.8558 51.92 75.7758 52 75.6158 52H75.3038C75.1438 52 75.0638 51.92 75.0638 51.76V46.324C75.0638 46.164 75.1438 46.084 75.3038 46.084H75.5678C75.7278 46.084 75.8078 46.164 75.8078 46.324V46.9C76.0078 46.58 76.2718 46.34 76.5998 46.18C76.9278 46.02 77.2958 45.94 77.7038 45.94ZM86.9733 45.94C87.6693 45.94 88.1933 46.132 88.5453 46.516C88.9053 46.9 89.0853 47.38 89.0853 47.956V51.76C89.0853 51.92 89.0053 52 88.8453 52H88.5333C88.3733 52 88.2933 51.92 88.2933 51.76V48.22C88.2933 47.692 88.1653 47.292 87.9093 47.02C87.6533 46.748 87.2853 46.612 86.8053 46.612C86.5013 46.612 86.2213 46.688 85.9653 46.84C85.7093 46.984 85.5053 47.184 85.3533 47.44C85.2013 47.696 85.1253 47.976 85.1253 48.28V51.76C85.1253 51.92 85.0453 52 84.8853 52H84.5733C84.4133 52 84.3333 51.92 84.3333 51.76V46.324C84.3333 46.164 84.4133 46.084 84.5733 46.084H84.8373C84.9973 46.084 85.0773 46.164 85.0773 46.324V46.9C85.2773 46.58 85.5413 46.34 85.8693 46.18C86.1973 46.02 86.5653 45.94 86.9733 45.94ZM93.2852 52.156C92.7332 52.156 92.2412 52.024 91.8092 51.76C91.3772 51.496 91.0412 51.132 90.8012 50.668C90.5612 50.196 90.4412 49.656 90.4412 49.048C90.4412 48.44 90.5612 47.904 90.8012 47.44C91.0412 46.968 91.3772 46.6 91.8092 46.336C92.2412 46.072 92.7332 45.94 93.2852 45.94C93.8372 45.94 94.3292 46.072 94.7612 46.336C95.1932 46.6 95.5292 46.968 95.7692 47.44C96.0092 47.904 96.1292 48.44 96.1292 49.048C96.1292 49.656 96.0092 50.196 95.7692 50.668C95.5292 51.132 95.1932 51.496 94.7612 51.76C94.3292 52.024 93.8372 52.156 93.2852 52.156ZM93.2852 51.496C93.9012 51.496 94.3932 51.272 94.7612 50.824C95.1292 50.368 95.3132 49.776 95.3132 49.048C95.3132 48.32 95.1292 47.732 94.7612 47.284C94.3932 46.828 93.9012 46.6 93.2852 46.6C92.6692 46.6 92.1772 46.828 91.8092 47.284C91.4412 47.732 91.2572 48.32 91.2572 49.048C91.2572 49.776 91.4412 50.368 91.8092 50.824C92.1772 51.272 92.6692 51.496 93.2852 51.496ZM99.9934 51.34C100.017 51.332 100.049 51.328 100.089 51.328C100.137 51.328 100.181 51.344 100.221 51.376C100.261 51.408 100.285 51.452 100.293 51.508L100.329 51.676C100.337 51.692 100.341 51.72 100.341 51.76C100.341 51.872 100.281 51.94 100.161 51.964C99.8734 52.052 99.5654 52.096 99.2374 52.096C98.7174 52.096 98.3454 51.98 98.1214 51.748C97.9054 51.508 97.7974 51.164 97.7974 50.716V46.684H96.9094C96.7494 46.684 96.6694 46.604 96.6694 46.444V46.324C96.6694 46.164 96.7494 46.084 96.9094 46.084H97.7974V44.26C97.7974 44.1 97.8774 44.02 98.0374 44.02H98.3494C98.5094 44.02 98.5894 44.1 98.5894 44.26V46.084H100.029C100.189 46.084 100.269 46.164 100.269 46.324V46.444C100.269 46.604 100.189 46.684 100.029 46.684H98.5894V50.62C98.5894 50.916 98.6454 51.124 98.7574 51.244C98.8694 51.364 99.0614 51.424 99.3334 51.424C99.5254 51.424 99.7454 51.396 99.9934 51.34ZM108.551 50.596C108.607 50.54 108.667 50.512 108.731 50.512C108.787 50.512 108.839 50.536 108.887 50.584L109.043 50.728C109.099 50.784 109.127 50.844 109.127 50.908C109.127 50.956 109.103 51.012 109.055 51.076C108.663 51.468 108.283 51.748 107.915 51.916C107.547 52.076 107.135 52.156 106.679 52.156C106.103 52.156 105.603 52.028 105.179 51.772C104.755 51.516 104.427 51.16 104.195 50.704C103.963 50.24 103.847 49.704 103.847 49.096C103.847 48.48 103.959 47.936 104.183 47.464C104.415 46.984 104.739 46.612 105.155 46.348C105.571 46.076 106.051 45.94 106.595 45.94C107.403 45.94 108.039 46.192 108.503 46.696C108.967 47.2 109.199 47.88 109.199 48.736V48.88C109.191 48.952 109.163 49.008 109.115 49.048C109.075 49.088 109.019 49.108 108.947 49.108H104.651C104.675 49.78 104.851 50.348 105.179 50.812C105.515 51.268 106.015 51.496 106.679 51.496C107.039 51.496 107.355 51.432 107.627 51.304C107.907 51.168 108.215 50.932 108.551 50.596ZM106.595 46.6C106.067 46.6 105.631 46.764 105.287 47.092C104.951 47.412 104.747 47.884 104.675 48.508H108.407C108.391 47.924 108.223 47.46 107.903 47.116C107.583 46.772 107.147 46.6 106.595 46.6ZM113.258 45.94C113.954 45.94 114.478 46.132 114.83 46.516C115.19 46.9 115.37 47.38 115.37 47.956V51.76C115.37 51.92 115.29 52 115.13 52H114.818C114.658 52 114.578 51.92 114.578 51.76V48.22C114.578 47.692 114.45 47.292 114.194 47.02C113.938 46.748 113.57 46.612 113.09 46.612C112.786 46.612 112.506 46.688 112.25 46.84C111.994 46.984 111.79 47.184 111.638 47.44C111.486 47.696 111.41 47.976 111.41 48.28V51.76C111.41 51.92 111.33 52 111.17 52H110.858C110.698 52 110.618 51.92 110.618 51.76V46.324C110.618 46.164 110.698 46.084 110.858 46.084H111.122C111.282 46.084 111.362 46.164 111.362 46.324V46.9C111.562 46.58 111.826 46.34 112.154 46.18C112.482 46.02 112.85 45.94 113.258 45.94ZM119.402 45.94C120.13 45.94 120.698 46.116 121.106 46.468C121.514 46.812 121.718 47.268 121.718 47.836V51.76C121.718 51.92 121.638 52 121.478 52H121.238C121.078 52 120.998 51.92 120.998 51.76V51.22C120.798 51.54 120.514 51.78 120.146 51.94C119.786 52.1 119.382 52.18 118.934 52.18C118.31 52.18 117.802 52.048 117.41 51.784C117.018 51.52 116.822 51.112 116.822 50.56C116.822 50.12 116.946 49.768 117.194 49.504C117.442 49.232 117.766 49.028 118.166 48.892C118.566 48.748 119.066 48.62 119.666 48.508L120.962 48.28V47.896C120.962 47.488 120.822 47.172 120.542 46.948C120.262 46.716 119.894 46.6 119.438 46.6C119.094 46.6 118.782 46.664 118.502 46.792C118.222 46.92 117.922 47.14 117.602 47.452C117.546 47.508 117.486 47.536 117.422 47.536C117.366 47.536 117.314 47.512 117.266 47.464L117.11 47.32C117.054 47.264 117.026 47.204 117.026 47.14C117.026 47.068 117.054 47.004 117.11 46.948C117.446 46.596 117.798 46.34 118.166 46.18C118.542 46.02 118.954 45.94 119.402 45.94ZM118.97 51.52C119.546 51.52 120.022 51.368 120.398 51.064C120.774 50.76 120.962 50.372 120.962 49.9V48.892L119.846 49.108C119.326 49.212 118.914 49.312 118.61 49.408C118.306 49.504 118.062 49.644 117.878 49.828C117.694 50.012 117.602 50.252 117.602 50.548C117.602 50.852 117.722 51.092 117.962 51.268C118.21 51.436 118.546 51.52 118.97 51.52ZM126.306 45.952C126.81 45.952 127.258 46.084 127.65 46.348C128.05 46.604 128.358 46.968 128.574 47.44C128.798 47.904 128.91 48.44 128.91 49.048C128.91 49.656 128.798 50.196 128.574 50.668C128.35 51.132 128.038 51.496 127.638 51.76C127.246 52.016 126.802 52.144 126.306 52.144C125.354 52.144 124.658 51.776 124.218 51.04V51.76C124.218 51.92 124.138 52 123.978 52H123.714C123.554 52 123.474 51.92 123.474 51.76V43.708C123.474 43.548 123.554 43.468 123.714 43.468H124.026C124.186 43.468 124.266 43.548 124.266 43.708V47.02C124.706 46.308 125.386 45.952 126.306 45.952ZM126.246 51.472C126.798 51.472 127.242 51.248 127.578 50.8C127.922 50.352 128.094 49.768 128.094 49.048C128.094 48.328 127.922 47.744 127.578 47.296C127.242 46.848 126.798 46.624 126.246 46.624C125.654 46.624 125.17 46.84 124.794 47.272C124.418 47.704 124.23 48.296 124.23 49.048C124.23 49.808 124.414 50.404 124.782 50.836C125.158 51.26 125.646 51.472 126.246 51.472ZM130.57 52C130.41 52 130.33 51.92 130.33 51.76V43.72C130.33 43.56 130.41 43.48 130.57 43.48H130.882C131.042 43.48 131.122 43.56 131.122 43.72V51.76C131.122 51.92 131.042 52 130.882 52H130.57ZM137.216 50.596C137.272 50.54 137.332 50.512 137.396 50.512C137.452 50.512 137.504 50.536 137.552 50.584L137.708 50.728C137.764 50.784 137.792 50.844 137.792 50.908C137.792 50.956 137.768 51.012 137.72 51.076C137.328 51.468 136.948 51.748 136.58 51.916C136.212 52.076 135.8 52.156 135.344 52.156C134.768 52.156 134.268 52.028 133.844 51.772C133.42 51.516 133.092 51.16 132.86 50.704C132.628 50.24 132.512 49.704 132.512 49.096C132.512 48.48 132.624 47.936 132.848 47.464C133.08 46.984 133.404 46.612 133.82 46.348C134.236 46.076 134.716 45.94 135.26 45.94C136.068 45.94 136.704 46.192 137.168 46.696C137.632 47.2 137.864 47.88 137.864 48.736V48.88C137.856 48.952 137.828 49.008 137.78 49.048C137.74 49.088 137.684 49.108 137.612 49.108H133.316C133.34 49.78 133.516 50.348 133.844 50.812C134.18 51.268 134.68 51.496 135.344 51.496C135.704 51.496 136.02 51.432 136.292 51.304C136.572 51.168 136.88 50.932 137.216 50.596ZM135.26 46.6C134.732 46.6 134.296 46.764 133.952 47.092C133.616 47.412 133.412 47.884 133.34 48.508H137.072C137.056 47.924 136.888 47.46 136.568 47.116C136.248 46.772 135.812 46.6 135.26 46.6ZM143.566 43.72C143.566 43.56 143.646 43.48 143.806 43.48H144.118C144.278 43.48 144.358 43.56 144.358 43.72V51.76C144.358 51.92 144.278 52 144.118 52H143.866C143.706 52 143.626 51.92 143.626 51.76V50.98C143.41 51.356 143.126 51.644 142.774 51.844C142.422 52.044 142.006 52.144 141.526 52.144C141.022 52.144 140.574 52.016 140.182 51.76C139.79 51.496 139.482 51.132 139.258 50.668C139.034 50.196 138.922 49.656 138.922 49.048C138.922 48.44 139.034 47.904 139.258 47.44C139.49 46.968 139.806 46.604 140.206 46.348C140.606 46.084 141.054 45.952 141.55 45.952C142.462 45.952 143.134 46.292 143.566 46.972V43.72ZM141.586 51.472C142.186 51.472 142.67 51.26 143.038 50.836C143.414 50.404 143.602 49.808 143.602 49.048C143.602 48.296 143.414 47.704 143.038 47.272C142.67 46.84 142.186 46.624 141.586 46.624C141.034 46.624 140.586 46.848 140.242 47.296C139.906 47.744 139.738 48.328 139.738 49.048C139.738 49.776 139.906 50.364 140.242 50.812C140.578 51.252 141.026 51.472 141.586 51.472Z" fill="#767676"/>
<path d="M35.852 154.18C35.22 154.18 34.648 154.084 34.136 153.892C33.632 153.692 33.1 153.368 32.54 152.92C32.468 152.856 32.432 152.796 32.432 152.74C32.432 152.692 32.456 152.64 32.504 152.584L32.696 152.356C32.736 152.292 32.796 152.26 32.876 152.26C32.94 152.26 32.992 152.28 33.032 152.32C33.6 152.76 34.096 153.06 34.52 153.22C34.944 153.372 35.388 153.448 35.852 153.448C36.5 153.448 37.028 153.288 37.436 152.968C37.844 152.64 38.048 152.196 38.048 151.636C38.048 151.276 37.952 150.988 37.76 150.772C37.568 150.556 37.304 150.388 36.968 150.268C36.64 150.148 36.172 150.02 35.564 149.884C34.836 149.724 34.268 149.552 33.86 149.368C33.46 149.184 33.168 148.952 32.984 148.672C32.8 148.392 32.708 148.032 32.708 147.592C32.708 147.128 32.84 146.724 33.104 146.38C33.376 146.028 33.736 145.76 34.184 145.576C34.632 145.392 35.116 145.3 35.636 145.3C36.204 145.3 36.72 145.384 37.184 145.552C37.656 145.72 38.12 145.988 38.576 146.356C38.648 146.404 38.684 146.46 38.684 146.524C38.684 146.572 38.66 146.628 38.612 146.692L38.432 146.908C38.392 146.972 38.332 147.004 38.252 147.004C38.188 147.004 38.132 146.984 38.084 146.944C37.676 146.608 37.28 146.372 36.896 146.236C36.52 146.1 36.104 146.032 35.648 146.032C35.232 146.032 34.864 146.1 34.544 146.236C34.224 146.364 33.972 146.544 33.788 146.776C33.612 147.008 33.524 147.272 33.524 147.568C33.524 147.888 33.612 148.144 33.788 148.336C33.972 148.528 34.224 148.68 34.544 148.792C34.872 148.904 35.348 149.032 35.972 149.176C36.692 149.344 37.26 149.532 37.676 149.74C38.1 149.948 38.408 150.204 38.6 150.508C38.792 150.804 38.888 151.172 38.888 151.612C38.888 152.124 38.756 152.576 38.492 152.968C38.236 153.352 37.876 153.652 37.412 153.868C36.948 154.076 36.428 154.18 35.852 154.18ZM44.6726 152.596C44.7286 152.54 44.7886 152.512 44.8526 152.512C44.9086 152.512 44.9606 152.536 45.0086 152.584L45.1646 152.728C45.2206 152.784 45.2486 152.844 45.2486 152.908C45.2486 152.956 45.2246 153.012 45.1766 153.076C44.7846 153.468 44.4046 153.748 44.0366 153.916C43.6686 154.076 43.2566 154.156 42.8006 154.156C42.2246 154.156 41.7246 154.028 41.3006 153.772C40.8766 153.516 40.5486 153.16 40.3166 152.704C40.0846 152.24 39.9686 151.704 39.9686 151.096C39.9686 150.48 40.0806 149.936 40.3046 149.464C40.5366 148.984 40.8606 148.612 41.2766 148.348C41.6926 148.076 42.1726 147.94 42.7166 147.94C43.5246 147.94 44.1606 148.192 44.6246 148.696C45.0886 149.2 45.3206 149.88 45.3206 150.736V150.88C45.3126 150.952 45.2846 151.008 45.2366 151.048C45.1966 151.088 45.1406 151.108 45.0686 151.108H40.7726C40.7966 151.78 40.9726 152.348 41.3006 152.812C41.6366 153.268 42.1366 153.496 42.8006 153.496C43.1606 153.496 43.4766 153.432 43.7486 153.304C44.0286 153.168 44.3366 152.932 44.6726 152.596ZM42.7166 148.6C42.1886 148.6 41.7526 148.764 41.4086 149.092C41.0726 149.412 40.8686 149.884 40.7966 150.508H44.5286C44.5126 149.924 44.3446 149.46 44.0246 149.116C43.7046 148.772 43.2686 148.6 42.7166 148.6ZM46.9916 154C46.8316 154 46.7516 153.92 46.7516 153.76V145.72C46.7516 145.56 46.8316 145.48 46.9916 145.48H47.3036C47.4636 145.48 47.5436 145.56 47.5436 145.72V153.76C47.5436 153.92 47.4636 154 47.3036 154H46.9916ZM53.6374 152.596C53.6934 152.54 53.7534 152.512 53.8174 152.512C53.8734 152.512 53.9254 152.536 53.9734 152.584L54.1294 152.728C54.1854 152.784 54.2134 152.844 54.2134 152.908C54.2134 152.956 54.1894 153.012 54.1414 153.076C53.7494 153.468 53.3694 153.748 53.0014 153.916C52.6334 154.076 52.2214 154.156 51.7654 154.156C51.1894 154.156 50.6894 154.028 50.2654 153.772C49.8414 153.516 49.5134 153.16 49.2814 152.704C49.0494 152.24 48.9334 151.704 48.9334 151.096C48.9334 150.48 49.0454 149.936 49.2694 149.464C49.5014 148.984 49.8254 148.612 50.2414 148.348C50.6574 148.076 51.1374 147.94 51.6814 147.94C52.4894 147.94 53.1254 148.192 53.5894 148.696C54.0534 149.2 54.2854 149.88 54.2854 150.736V150.88C54.2774 150.952 54.2494 151.008 54.2014 151.048C54.1614 151.088 54.1054 151.108 54.0334 151.108H49.7374C49.7614 151.78 49.9374 152.348 50.2654 152.812C50.6014 153.268 51.1014 153.496 51.7654 153.496C52.1254 153.496 52.4414 153.432 52.7134 153.304C52.9934 153.168 53.3014 152.932 53.6374 152.596ZM51.6814 148.6C51.1534 148.6 50.7174 148.764 50.3734 149.092C50.0374 149.412 49.8334 149.884 49.7614 150.508H53.4934C53.4774 149.924 53.3094 149.46 52.9894 149.116C52.6694 148.772 52.2334 148.6 51.6814 148.6ZM58.1161 154.156C57.5481 154.156 57.0521 154.028 56.6281 153.772C56.2121 153.508 55.8881 153.144 55.6561 152.68C55.4321 152.208 55.3201 151.664 55.3201 151.048C55.3201 150.44 55.4321 149.9 55.6561 149.428C55.8881 148.956 56.2121 148.592 56.6281 148.336C57.0521 148.072 57.5401 147.94 58.0921 147.94C58.5401 147.94 58.9321 148.016 59.2681 148.168C59.6041 148.312 59.9281 148.552 60.2401 148.888C60.2881 148.936 60.3121 148.988 60.3121 149.044C60.3121 149.116 60.2801 149.176 60.2161 149.224L60.0481 149.38C60.0001 149.428 59.9441 149.452 59.8801 149.452C59.8241 149.452 59.7641 149.42 59.7001 149.356C59.4201 149.076 59.1521 148.88 58.8961 148.768C58.6481 148.656 58.3721 148.6 58.0681 148.6C57.6521 148.6 57.2961 148.716 57.0001 148.948C56.7121 149.18 56.4961 149.484 56.3521 149.86C56.2081 150.228 56.1361 150.624 56.1361 151.048C56.1361 151.472 56.2081 151.872 56.3521 152.248C56.4961 152.616 56.7161 152.916 57.0121 153.148C57.3081 153.372 57.6721 153.484 58.1041 153.484C58.4241 153.484 58.7041 153.428 58.9441 153.316C59.1921 153.196 59.4681 152.972 59.7721 152.644C59.8361 152.58 59.8961 152.548 59.9521 152.548C60.0161 152.548 60.0721 152.572 60.1201 152.62L60.2881 152.752C60.3441 152.8 60.3721 152.856 60.3721 152.92C60.3721 152.984 60.3361 153.06 60.2641 153.148C59.9281 153.516 59.5921 153.776 59.2561 153.928C58.9201 154.08 58.5401 154.156 58.1161 154.156ZM64.3567 153.34C64.3807 153.332 64.4127 153.328 64.4527 153.328C64.5007 153.328 64.5447 153.344 64.5847 153.376C64.6247 153.408 64.6487 153.452 64.6567 153.508L64.6927 153.676C64.7007 153.692 64.7047 153.72 64.7047 153.76C64.7047 153.872 64.6447 153.94 64.5247 153.964C64.2367 154.052 63.9287 154.096 63.6007 154.096C63.0807 154.096 62.7087 153.98 62.4847 153.748C62.2687 153.508 62.1607 153.164 62.1607 152.716V148.684H61.2727C61.1127 148.684 61.0327 148.604 61.0327 148.444V148.324C61.0327 148.164 61.1127 148.084 61.2727 148.084H62.1607V146.26C62.1607 146.1 62.2407 146.02 62.4007 146.02H62.7127C62.8727 146.02 62.9527 146.1 62.9527 146.26V148.084H64.3927C64.5527 148.084 64.6327 148.164 64.6327 148.324V148.444C64.6327 148.604 64.5527 148.684 64.3927 148.684H62.9527V152.62C62.9527 152.916 63.0087 153.124 63.1207 153.244C63.2327 153.364 63.4247 153.424 63.6967 153.424C63.8887 153.424 64.1087 153.396 64.3567 153.34ZM66.2371 146.584C66.0771 146.584 65.9411 146.528 65.8291 146.416C65.7251 146.304 65.6731 146.168 65.6731 146.008C65.6731 145.848 65.7251 145.716 65.8291 145.612C65.9411 145.508 66.0771 145.456 66.2371 145.456C66.4051 145.456 66.5411 145.508 66.6451 145.612C66.7571 145.716 66.8131 145.848 66.8131 146.008C66.8131 146.168 66.7571 146.304 66.6451 146.416C66.5411 146.528 66.4051 146.584 66.2371 146.584ZM66.0811 154C65.9211 154 65.8411 153.92 65.8411 153.76V148.324C65.8411 148.164 65.9211 148.084 66.0811 148.084H66.3931C66.5531 148.084 66.6331 148.164 66.6331 148.324V153.76C66.6331 153.92 66.5531 154 66.3931 154H66.0811ZM70.8438 154.156C70.2918 154.156 69.7998 154.024 69.3678 153.76C68.9358 153.496 68.5998 153.132 68.3598 152.668C68.1198 152.196 67.9998 151.656 67.9998 151.048C67.9998 150.44 68.1198 149.904 68.3598 149.44C68.5998 148.968 68.9358 148.6 69.3678 148.336C69.7998 148.072 70.2918 147.94 70.8438 147.94C71.3958 147.94 71.8878 148.072 72.3198 148.336C72.7518 148.6 73.0878 148.968 73.3278 149.44C73.5678 149.904 73.6878 150.44 73.6878 151.048C73.6878 151.656 73.5678 152.196 73.3278 152.668C73.0878 153.132 72.7518 153.496 72.3198 153.76C71.8878 154.024 71.3958 154.156 70.8438 154.156ZM70.8438 153.496C71.4598 153.496 71.9518 153.272 72.3198 152.824C72.6878 152.368 72.8718 151.776 72.8718 151.048C72.8718 150.32 72.6878 149.732 72.3198 149.284C71.9518 148.828 71.4598 148.6 70.8438 148.6C70.2278 148.6 69.7358 148.828 69.3678 149.284C68.9998 149.732 68.8158 150.32 68.8158 151.048C68.8158 151.776 68.9998 152.368 69.3678 152.824C69.7358 153.272 70.2278 153.496 70.8438 153.496ZM77.7038 147.94C78.3998 147.94 78.9238 148.132 79.2758 148.516C79.6358 148.9 79.8158 149.38 79.8158 149.956V153.76C79.8158 153.92 79.7358 154 79.5758 154H79.2638C79.1038 154 79.0238 153.92 79.0238 153.76V150.22C79.0238 149.692 78.8958 149.292 78.6398 149.02C78.3838 148.748 78.0158 148.612 77.5358 148.612C77.2318 148.612 76.9518 148.688 76.6958 148.84C76.4398 148.984 76.2358 149.184 76.0838 149.44C75.9318 149.696 75.8558 149.976 75.8558 150.28V153.76C75.8558 153.92 75.7758 154 75.6158 154H75.3038C75.1438 154 75.0638 153.92 75.0638 153.76V148.324C75.0638 148.164 75.1438 148.084 75.3038 148.084H75.5678C75.7278 148.084 75.8078 148.164 75.8078 148.324V148.9C76.0078 148.58 76.2718 148.34 76.5998 148.18C76.9278 148.02 77.2958 147.94 77.7038 147.94ZM88.6413 152.596C88.6973 152.54 88.7573 152.512 88.8213 152.512C88.8773 152.512 88.9293 152.536 88.9773 152.584L89.1333 152.728C89.1893 152.784 89.2173 152.844 89.2173 152.908C89.2173 152.956 89.1933 153.012 89.1453 153.076C88.7533 153.468 88.3733 153.748 88.0053 153.916C87.6373 154.076 87.2253 154.156 86.7693 154.156C86.1933 154.156 85.6933 154.028 85.2693 153.772C84.8453 153.516 84.5173 153.16 84.2853 152.704C84.0533 152.24 83.9373 151.704 83.9373 151.096C83.9373 150.48 84.0493 149.936 84.2733 149.464C84.5053 148.984 84.8293 148.612 85.2453 148.348C85.6613 148.076 86.1413 147.94 86.6853 147.94C87.4933 147.94 88.1293 148.192 88.5933 148.696C89.0573 149.2 89.2893 149.88 89.2893 150.736V150.88C89.2813 150.952 89.2533 151.008 89.2053 151.048C89.1653 151.088 89.1093 151.108 89.0373 151.108H84.7413C84.7653 151.78 84.9413 152.348 85.2693 152.812C85.6053 153.268 86.1053 153.496 86.7693 153.496C87.1293 153.496 87.4453 153.432 87.7173 153.304C87.9973 153.168 88.3053 152.932 88.6413 152.596ZM86.6853 148.6C86.1573 148.6 85.7213 148.764 85.3773 149.092C85.0413 149.412 84.8373 149.884 84.7653 150.508H88.4973C88.4813 149.924 88.3133 149.46 87.9933 149.116C87.6733 148.772 87.2373 148.6 86.6853 148.6ZM93.3483 147.94C94.0443 147.94 94.5683 148.132 94.9203 148.516C95.2803 148.9 95.4603 149.38 95.4603 149.956V153.76C95.4603 153.92 95.3803 154 95.2203 154H94.9083C94.7483 154 94.6683 153.92 94.6683 153.76V150.22C94.6683 149.692 94.5403 149.292 94.2843 149.02C94.0283 148.748 93.6603 148.612 93.1803 148.612C92.8763 148.612 92.5963 148.688 92.3403 148.84C92.0843 148.984 91.8803 149.184 91.7283 149.44C91.5763 149.696 91.5003 149.976 91.5003 150.28V153.76C91.5003 153.92 91.4203 154 91.2603 154H90.9483C90.7883 154 90.7083 153.92 90.7083 153.76V148.324C90.7083 148.164 90.7883 148.084 90.9483 148.084H91.2123C91.3723 148.084 91.4523 148.164 91.4523 148.324V148.9C91.6523 148.58 91.9163 148.34 92.2443 148.18C92.5723 148.02 92.9403 147.94 93.3483 147.94ZM99.4922 147.94C100.22 147.94 100.788 148.116 101.196 148.468C101.604 148.812 101.808 149.268 101.808 149.836V153.76C101.808 153.92 101.728 154 101.568 154H101.328C101.168 154 101.088 153.92 101.088 153.76V153.22C100.888 153.54 100.604 153.78 100.236 153.94C99.8762 154.1 99.4722 154.18 99.0242 154.18C98.4002 154.18 97.8922 154.048 97.5002 153.784C97.1082 153.52 96.9122 153.112 96.9122 152.56C96.9122 152.12 97.0362 151.768 97.2842 151.504C97.5322 151.232 97.8562 151.028 98.2562 150.892C98.6562 150.748 99.1562 150.62 99.7562 150.508L101.052 150.28V149.896C101.052 149.488 100.912 149.172 100.632 148.948C100.352 148.716 99.9842 148.6 99.5282 148.6C99.1842 148.6 98.8722 148.664 98.5922 148.792C98.3122 148.92 98.0122 149.14 97.6922 149.452C97.6362 149.508 97.5762 149.536 97.5122 149.536C97.4562 149.536 97.4042 149.512 97.3562 149.464L97.2002 149.32C97.1442 149.264 97.1162 149.204 97.1162 149.14C97.1162 149.068 97.1442 149.004 97.2002 148.948C97.5362 148.596 97.8882 148.34 98.2562 148.18C98.6322 148.02 99.0442 147.94 99.4922 147.94ZM99.0602 153.52C99.6362 153.52 100.112 153.368 100.488 153.064C100.864 152.76 101.052 152.372 101.052 151.9V150.892L99.9362 151.108C99.4162 151.212 99.0042 151.312 98.7002 151.408C98.3962 151.504 98.1522 151.644 97.9682 151.828C97.7842 152.012 97.6922 152.252 97.6922 152.548C97.6922 152.852 97.8122 153.092 98.0522 153.268C98.3002 153.436 98.6362 153.52 99.0602 153.52ZM106.396 147.952C106.9 147.952 107.348 148.084 107.74 148.348C108.14 148.604 108.448 148.968 108.664 149.44C108.888 149.904 109 150.44 109 151.048C109 151.656 108.888 152.196 108.664 152.668C108.44 153.132 108.128 153.496 107.728 153.76C107.336 154.016 106.892 154.144 106.396 154.144C105.444 154.144 104.748 153.776 104.308 153.04V153.76C104.308 153.92 104.228 154 104.068 154H103.804C103.644 154 103.564 153.92 103.564 153.76V145.708C103.564 145.548 103.644 145.468 103.804 145.468H104.116C104.276 145.468 104.356 145.548 104.356 145.708V149.02C104.796 148.308 105.476 147.952 106.396 147.952ZM106.336 153.472C106.888 153.472 107.332 153.248 107.668 152.8C108.012 152.352 108.184 151.768 108.184 151.048C108.184 150.328 108.012 149.744 107.668 149.296C107.332 148.848 106.888 148.624 106.336 148.624C105.744 148.624 105.26 148.84 104.884 149.272C104.508 149.704 104.32 150.296 104.32 151.048C104.32 151.808 104.504 152.404 104.872 152.836C105.248 153.26 105.736 153.472 106.336 153.472ZM110.66 154C110.5 154 110.42 153.92 110.42 153.76V145.72C110.42 145.56 110.5 145.48 110.66 145.48H110.972C111.132 145.48 111.212 145.56 111.212 145.72V153.76C111.212 153.92 111.132 154 110.972 154H110.66ZM117.305 152.596C117.361 152.54 117.421 152.512 117.485 152.512C117.541 152.512 117.593 152.536 117.641 152.584L117.797 152.728C117.853 152.784 117.881 152.844 117.881 152.908C117.881 152.956 117.857 153.012 117.809 153.076C117.417 153.468 117.037 153.748 116.669 153.916C116.301 154.076 115.889 154.156 115.433 154.156C114.857 154.156 114.357 154.028 113.933 153.772C113.509 153.516 113.181 153.16 112.949 152.704C112.717 152.24 112.601 151.704 112.601 151.096C112.601 150.48 112.713 149.936 112.937 149.464C113.169 148.984 113.493 148.612 113.909 148.348C114.325 148.076 114.805 147.94 115.349 147.94C116.157 147.94 116.793 148.192 117.257 148.696C117.721 149.2 117.953 149.88 117.953 150.736V150.88C117.945 150.952 117.917 151.008 117.869 151.048C117.829 151.088 117.773 151.108 117.701 151.108H113.405C113.429 151.78 113.605 152.348 113.933 152.812C114.269 153.268 114.769 153.496 115.433 153.496C115.793 153.496 116.109 153.432 116.381 153.304C116.661 153.168 116.969 152.932 117.305 152.596ZM115.349 148.6C114.821 148.6 114.385 148.764 114.041 149.092C113.705 149.412 113.501 149.884 113.429 150.508H117.161C117.145 149.924 116.977 149.46 116.657 149.116C116.337 148.772 115.901 148.6 115.349 148.6ZM123.656 145.72C123.656 145.56 123.736 145.48 123.896 145.48H124.208C124.368 145.48 124.448 145.56 124.448 145.72V153.76C124.448 153.92 124.368 154 124.208 154H123.956C123.796 154 123.716 153.92 123.716 153.76V152.98C123.5 153.356 123.216 153.644 122.864 153.844C122.512 154.044 122.096 154.144 121.616 154.144C121.112 154.144 120.664 154.016 120.272 153.76C119.88 153.496 119.572 153.132 119.348 152.668C119.124 152.196 119.012 151.656 119.012 151.048C119.012 150.44 119.124 149.904 119.348 149.44C119.58 148.968 119.896 148.604 120.296 148.348C120.696 148.084 121.144 147.952 121.64 147.952C122.552 147.952 123.224 148.292 123.656 148.972V145.72ZM121.676 153.472C122.276 153.472 122.76 153.26 123.128 152.836C123.504 152.404 123.692 151.808 123.692 151.048C123.692 150.296 123.504 149.704 123.128 149.272C122.76 148.84 122.276 148.624 121.676 148.624C121.124 148.624 120.676 148.848 120.332 149.296C119.996 149.744 119.828 150.328 119.828 151.048C119.828 151.776 119.996 152.364 120.332 152.812C120.668 153.252 121.116 153.472 121.676 153.472Z" fill="#767676"/>
<defs>
<filter id="filter0_i_665_10528" x="32" y="220" width="32" height="32" filterUnits="userSpaceOnUse" color-interpolation-filters="sRGB">
<feFlood flood-opacity="0" result="BackgroundImageFix"/>
<feBlend mode="normal" in="SourceGraphic" in2="BackgroundImageFix" result="shape"/>
<feColorMatrix in="SourceAlpha" type="matrix" values="0 0 0 0 0 0 0 0 0 0 0 0 0 0 0 0 0 0 127 0" result="hardAlpha"/>
<feOffset dx="-1"/>
<feComposite in2="hardAlpha" operator="arithmetic" k2="-1" k3="1"/>
<feColorMatrix type="matrix" values="0 0 0 0 0.764706 0 0 0 0 0.8 0 0 0 0 0.85098 0 0 0 1 0"/>
<feBlend mode="normal" in2="shape" result="effect1_innerShadow_665_10528"/>
</filter>
</defs>
</svg>
