<svg width="344" height="344" viewBox="0 0 344 344" fill="none" xmlns="http://www.w3.org/2000/svg">
<rect width="344" height="344" fill="#F5F5F5"/>
<rect x="32.5" y="72.5" width="90" height="31" rx="3.5" fill="white"/>
<path d="M42.5 88H53.5" stroke="#767676" stroke-width="1.5" stroke-linecap="round" stroke-linejoin="round"/>
<path d="M48 82.5V93.5" stroke="#767676" stroke-width="1.5" stroke-linecap="round" stroke-linejoin="round"/>
<path d="M71.044 92C70.804 92 70.644 91.888 70.564 91.664L70 90.044H66.232L65.668 91.664C65.588 91.888 65.428 92 65.188 92H64.684C64.564 92 64.468 91.976 64.396 91.928C64.332 91.872 64.3 91.796 64.3 91.7C64.3 91.652 64.312 91.592 64.336 91.52L67.12 83.816C67.2 83.592 67.36 83.48 67.6 83.48H68.668C68.908 83.48 69.068 83.592 69.148 83.816L71.932 91.52C71.956 91.592 71.968 91.652 71.968 91.7C71.968 91.796 71.932 91.872 71.86 91.928C71.796 91.976 71.704 92 71.584 92H71.044ZM69.616 88.904L69.244 87.848C69.236 87.832 69.148 87.58 68.98 87.092C68.556 85.892 68.268 85.036 68.116 84.524C67.884 85.26 67.576 86.172 67.192 87.26L66.988 87.86L66.628 88.904H69.616ZM77.1108 83.888C77.1108 83.752 77.1468 83.648 77.2188 83.576C77.2988 83.504 77.4028 83.468 77.5308 83.468H77.9628C78.0988 83.468 78.2028 83.504 78.2748 83.576C78.3468 83.648 78.3828 83.752 78.3828 83.888V91.58C78.3828 91.708 78.3468 91.812 78.2748 91.892C78.2028 91.964 78.0988 92 77.9628 92H77.6148C77.4868 92 77.3828 91.964 77.3028 91.892C77.2308 91.812 77.1948 91.708 77.1948 91.58V91.16C76.7788 91.832 76.1268 92.168 75.2388 92.168C74.7428 92.168 74.2948 92.04 73.8948 91.784C73.5028 91.528 73.1948 91.164 72.9708 90.692C72.7468 90.22 72.6348 89.672 72.6348 89.048C72.6348 88.432 72.7468 87.888 72.9708 87.416C73.2028 86.944 73.5188 86.58 73.9188 86.324C74.3188 86.068 74.7668 85.94 75.2628 85.94C76.0788 85.94 76.6948 86.224 77.1108 86.792V83.888ZM75.5028 91.076C75.9908 91.076 76.3908 90.896 76.7028 90.536C77.0148 90.168 77.1708 89.672 77.1708 89.048C77.1708 88.424 77.0148 87.932 76.7028 87.572C76.3908 87.212 75.9908 87.032 75.5028 87.032C75.0308 87.032 74.6508 87.216 74.3628 87.584C74.0748 87.952 73.9308 88.44 73.9308 89.048C73.9308 89.664 74.0708 90.156 74.3508 90.524C74.6388 90.892 75.0228 91.076 75.5028 91.076ZM84.0249 83.888C84.0249 83.752 84.0609 83.648 84.1329 83.576C84.2129 83.504 84.3169 83.468 84.4449 83.468H84.8769C85.0129 83.468 85.1169 83.504 85.1889 83.576C85.2609 83.648 85.2969 83.752 85.2969 83.888V91.58C85.2969 91.708 85.2609 91.812 85.1889 91.892C85.1169 91.964 85.0129 92 84.8769 92H84.5289C84.4009 92 84.2969 91.964 84.2169 91.892C84.1449 91.812 84.1089 91.708 84.1089 91.58V91.16C83.6929 91.832 83.0409 92.168 82.1529 92.168C81.6569 92.168 81.2089 92.04 80.8089 91.784C80.4169 91.528 80.1089 91.164 79.8849 90.692C79.6609 90.22 79.5489 89.672 79.5489 89.048C79.5489 88.432 79.6609 87.888 79.8849 87.416C80.1169 86.944 80.4329 86.58 80.8329 86.324C81.2329 86.068 81.6809 85.94 82.1769 85.94C82.9929 85.94 83.6089 86.224 84.0249 86.792V83.888ZM82.4169 91.076C82.9049 91.076 83.3049 90.896 83.6169 90.536C83.9289 90.168 84.0849 89.672 84.0849 89.048C84.0849 88.424 83.9289 87.932 83.6169 87.572C83.3049 87.212 82.9049 87.032 82.4169 87.032C81.9449 87.032 81.5649 87.216 81.2769 87.584C80.9889 87.952 80.8449 88.44 80.8449 89.048C80.8449 89.664 80.9849 90.156 81.2649 90.524C81.5529 90.892 81.9369 91.076 82.4169 91.076ZM92.7902 84.932C92.5582 84.932 92.3622 84.856 92.2022 84.704C92.0422 84.544 91.9622 84.356 91.9622 84.14C91.9622 83.916 92.0422 83.728 92.2022 83.576C92.3622 83.424 92.5582 83.348 92.7902 83.348C93.0222 83.348 93.2182 83.424 93.3782 83.576C93.5382 83.728 93.6182 83.916 93.6182 84.14C93.6182 84.356 93.5382 84.544 93.3782 84.704C93.2182 84.856 93.0222 84.932 92.7902 84.932ZM92.5622 92C92.4342 92 92.3302 91.964 92.2502 91.892C92.1782 91.812 92.1422 91.708 92.1422 91.58V86.504C92.1422 86.368 92.1782 86.264 92.2502 86.192C92.3302 86.12 92.4342 86.084 92.5622 86.084H92.9942C93.1302 86.084 93.2342 86.12 93.3062 86.192C93.3782 86.264 93.4142 86.368 93.4142 86.504V91.58C93.4142 91.708 93.3782 91.812 93.3062 91.892C93.2342 91.964 93.1302 92 92.9942 92H92.5622ZM97.7403 90.992C97.7643 90.984 97.8003 90.98 97.8483 90.98C98.0483 90.98 98.1683 91.096 98.2083 91.328L98.2443 91.52C98.2523 91.544 98.2563 91.584 98.2563 91.64C98.2563 91.84 98.1443 91.968 97.9203 92.024C97.6003 92.096 97.3083 92.132 97.0443 92.132C96.4763 92.132 96.0643 92 95.8083 91.736C95.5603 91.472 95.4363 91.076 95.4363 90.548V87.056H94.7763C94.6483 87.056 94.5443 87.02 94.4643 86.948C94.3923 86.868 94.3563 86.764 94.3563 86.636V86.504C94.3563 86.368 94.3923 86.264 94.4643 86.192C94.5443 86.12 94.6483 86.084 94.7763 86.084H95.4363V84.596C95.4363 84.46 95.4723 84.356 95.5443 84.284C95.6243 84.212 95.7283 84.176 95.8563 84.176H96.2883C96.4243 84.176 96.5283 84.212 96.6003 84.284C96.6723 84.356 96.7083 84.46 96.7083 84.596V86.084H97.7883C97.9243 86.084 98.0283 86.12 98.1003 86.192C98.1723 86.264 98.2083 86.368 98.2083 86.504V86.636C98.2083 86.764 98.1723 86.868 98.1003 86.948C98.0283 87.02 97.9243 87.056 97.7883 87.056H96.7083V90.392C96.7083 90.624 96.7563 90.788 96.8523 90.884C96.9563 90.98 97.1203 91.028 97.3443 91.028C97.4403 91.028 97.5723 91.016 97.7403 90.992ZM103.304 90.488C103.408 90.4 103.508 90.356 103.604 90.356C103.7 90.356 103.8 90.408 103.904 90.512L104.072 90.692C104.16 90.796 104.204 90.896 104.204 90.992C104.204 91.096 104.152 91.196 104.048 91.292C103.68 91.612 103.312 91.84 102.944 91.976C102.584 92.112 102.184 92.18 101.744 92.18C101.128 92.18 100.592 92.052 100.136 91.796C99.6879 91.54 99.3399 91.18 99.0919 90.716C98.8519 90.244 98.7319 89.7 98.7319 89.084C98.7319 88.476 98.8479 87.932 99.0799 87.452C99.3199 86.964 99.6559 86.584 100.088 86.312C100.528 86.04 101.04 85.904 101.624 85.904C102.496 85.904 103.168 86.164 103.64 86.684C104.112 87.196 104.348 87.904 104.348 88.808V88.916C104.34 89.044 104.3 89.144 104.228 89.216C104.156 89.288 104.052 89.324 103.916 89.324H99.9799C100.028 89.852 100.2 90.284 100.496 90.62C100.8 90.948 101.224 91.112 101.768 91.112C102.064 91.112 102.324 91.068 102.548 90.98C102.772 90.884 103.024 90.72 103.304 90.488ZM101.6 86.912C101.16 86.912 100.804 87.044 100.532 87.308C100.268 87.564 100.096 87.928 100.016 88.4H103.1C103.068 87.936 102.924 87.572 102.668 87.308C102.412 87.044 102.056 86.912 101.6 86.912ZM111.861 85.904C112.493 85.904 112.981 86.084 113.325 86.444C113.669 86.796 113.841 87.272 113.841 87.872V91.58C113.841 91.708 113.805 91.812 113.733 91.892C113.661 91.964 113.557 92 113.421 92H112.989C112.861 92 112.757 91.964 112.677 91.892C112.605 91.812 112.569 91.708 112.569 91.58V88.256C112.569 87.864 112.481 87.556 112.305 87.332C112.129 87.108 111.861 86.996 111.501 86.996C111.133 86.996 110.841 87.12 110.625 87.368C110.417 87.616 110.313 87.936 110.313 88.328V91.58C110.313 91.708 110.277 91.812 110.205 91.892C110.133 91.964 110.029 92 109.893 92H109.461C109.333 92 109.229 91.964 109.149 91.892C109.077 91.812 109.041 91.708 109.041 91.58V88.256C109.041 87.864 108.953 87.556 108.777 87.332C108.609 87.108 108.345 86.996 107.985 86.996C107.633 86.996 107.349 87.112 107.133 87.344C106.917 87.576 106.801 87.876 106.785 88.244V91.58C106.785 91.708 106.749 91.812 106.677 91.892C106.605 91.964 106.501 92 106.365 92H105.933C105.805 92 105.701 91.964 105.621 91.892C105.549 91.812 105.513 91.708 105.513 91.58V86.504C105.513 86.368 105.549 86.264 105.621 86.192C105.701 86.12 105.805 86.084 105.933 86.084H106.281C106.417 86.084 106.521 86.12 106.593 86.192C106.665 86.264 106.701 86.368 106.701 86.504V86.768C107.069 86.192 107.637 85.904 108.405 85.904C108.789 85.904 109.125 85.984 109.413 86.144C109.701 86.304 109.921 86.528 110.073 86.816C110.481 86.208 111.077 85.904 111.861 85.904Z" fill="#474445"/>
<rect x="32.5" y="72.5" width="90" height="31" rx="3.5" stroke="#C3CCD9"/>
<rect x="32.5" y="118.5" width="193" height="31" rx="3.5" fill="white"/>
<path d="M50 127H45V132H50V127Z" stroke="#767676" stroke-width="1.5" stroke-linecap="round" stroke-linejoin="round"/>
<path d="M50 136H45V141H50V136Z" stroke="#767676" stroke-width="1.5" stroke-linecap="round" stroke-linejoin="round"/>
<path d="M59 127H54V132H59V127Z" stroke="#767676" stroke-width="1.5" stroke-linecap="round" stroke-linejoin="round"/>
<path d="M59 136H54V141H59V136Z" stroke="#767676" stroke-width="1.5" stroke-linecap="round" stroke-linejoin="round"/>
<path d="M72.8737 134.568C72.7457 134.568 72.6417 134.532 72.5617 134.46C72.4897 134.38 72.4537 134.276 72.4537 134.148V133.836C72.4537 133.7 72.4897 133.596 72.5617 133.524C72.6417 133.452 72.7457 133.416 72.8737 133.416H75.8857C76.0217 133.416 76.1257 133.452 76.1977 133.524C76.2697 133.596 76.3057 133.7 76.3057 133.836V137.58C76.3057 137.708 76.2697 137.812 76.1977 137.892C76.1257 137.964 76.0217 138 75.8857 138H75.6337C75.3697 138 75.2257 137.868 75.2017 137.604L75.1537 137.064C74.6417 137.808 73.7937 138.18 72.6097 138.18C71.7617 138.18 71.0337 137.992 70.4257 137.616C69.8177 137.24 69.3537 136.716 69.0337 136.044C68.7137 135.372 68.5537 134.6 68.5537 133.728C68.5537 132.88 68.7217 132.12 69.0577 131.448C69.3937 130.776 69.8777 130.252 70.5097 129.876C71.1417 129.492 71.8897 129.3 72.7537 129.3C73.4017 129.3 73.9817 129.404 74.4937 129.612C75.0057 129.812 75.5097 130.14 76.0057 130.596C76.1097 130.692 76.1617 130.792 76.1617 130.896C76.1617 131 76.1137 131.1 76.0177 131.196L75.7297 131.484C75.6257 131.588 75.5257 131.64 75.4297 131.64C75.3257 131.64 75.2257 131.592 75.1297 131.496C74.7137 131.136 74.3257 130.88 73.9657 130.728C73.6057 130.568 73.1977 130.488 72.7417 130.488C72.1897 130.488 71.7017 130.62 71.2777 130.884C70.8617 131.148 70.5337 131.524 70.2937 132.012C70.0617 132.5 69.9457 133.076 69.9457 133.74C69.9457 134.412 70.0577 134.992 70.2817 135.48C70.5057 135.968 70.8217 136.344 71.2297 136.608C71.6457 136.864 72.1337 136.992 72.6937 136.992C73.4057 136.992 73.9737 136.8 74.3977 136.416C74.8297 136.024 75.0457 135.492 75.0457 134.82V134.568H72.8737ZM80.4585 132.024C80.6345 132.024 80.8145 132.044 80.9985 132.084C81.2145 132.132 81.3225 132.26 81.3225 132.468C81.3225 132.524 81.3185 132.564 81.3105 132.588L81.2505 132.876C81.2025 133.1 81.0825 133.212 80.8905 133.212L80.7825 133.2C80.6385 133.176 80.5105 133.164 80.3985 133.164C79.9985 133.164 79.6745 133.324 79.4265 133.644C79.1865 133.956 79.0665 134.392 79.0665 134.952V137.58C79.0665 137.708 79.0305 137.812 78.9585 137.892C78.8865 137.964 78.7825 138 78.6465 138H78.2145C78.0865 138 77.9825 137.964 77.9025 137.892C77.8305 137.812 77.7945 137.708 77.7945 137.58V132.504C77.7945 132.368 77.8305 132.264 77.9025 132.192C77.9825 132.12 78.0865 132.084 78.2145 132.084H78.5625C78.6985 132.084 78.8025 132.12 78.8745 132.192C78.9465 132.264 78.9825 132.368 78.9825 132.504V132.972C79.1265 132.676 79.3225 132.444 79.5705 132.276C79.8185 132.108 80.1145 132.024 80.4585 132.024ZM82.8956 130.932C82.6636 130.932 82.4676 130.856 82.3076 130.704C82.1476 130.544 82.0676 130.356 82.0676 130.14C82.0676 129.916 82.1476 129.728 82.3076 129.576C82.4676 129.424 82.6636 129.348 82.8956 129.348C83.1276 129.348 83.3236 129.424 83.4836 129.576C83.6436 129.728 83.7236 129.916 83.7236 130.14C83.7236 130.356 83.6436 130.544 83.4836 130.704C83.3236 130.856 83.1276 130.932 82.8956 130.932ZM82.6676 138C82.5396 138 82.4356 137.964 82.3556 137.892C82.2836 137.812 82.2476 137.708 82.2476 137.58V132.504C82.2476 132.368 82.2836 132.264 82.3556 132.192C82.4356 132.12 82.5396 132.084 82.6676 132.084H83.0996C83.2356 132.084 83.3396 132.12 83.4116 132.192C83.4836 132.264 83.5196 132.368 83.5196 132.504V137.58C83.5196 137.708 83.4836 137.812 83.4116 137.892C83.3396 137.964 83.2356 138 83.0996 138H82.6676ZM89.1538 129.888C89.1538 129.752 89.1898 129.648 89.2618 129.576C89.3418 129.504 89.4458 129.468 89.5738 129.468H90.0058C90.1418 129.468 90.2458 129.504 90.3178 129.576C90.3898 129.648 90.4258 129.752 90.4258 129.888V137.58C90.4258 137.708 90.3898 137.812 90.3178 137.892C90.2458 137.964 90.1418 138 90.0058 138H89.6578C89.5298 138 89.4258 137.964 89.3458 137.892C89.2738 137.812 89.2378 137.708 89.2378 137.58V137.16C88.8218 137.832 88.1698 138.168 87.2818 138.168C86.7858 138.168 86.3378 138.04 85.9378 137.784C85.5458 137.528 85.2378 137.164 85.0138 136.692C84.7898 136.22 84.6778 135.672 84.6778 135.048C84.6778 134.432 84.7898 133.888 85.0138 133.416C85.2458 132.944 85.5618 132.58 85.9618 132.324C86.3618 132.068 86.8098 131.94 87.3058 131.94C88.1218 131.94 88.7378 132.224 89.1538 132.792V129.888ZM87.5458 137.076C88.0338 137.076 88.4338 136.896 88.7458 136.536C89.0578 136.168 89.2138 135.672 89.2138 135.048C89.2138 134.424 89.0578 133.932 88.7458 133.572C88.4338 133.212 88.0338 133.032 87.5458 133.032C87.0738 133.032 86.6938 133.216 86.4058 133.584C86.1178 133.952 85.9738 134.44 85.9738 135.048C85.9738 135.664 86.1138 136.156 86.3938 136.524C86.6818 136.892 87.0658 137.076 87.5458 137.076ZM98.1995 132.432C98.2715 132.2 98.4275 132.084 98.6675 132.084H99.1115C99.3595 132.084 99.4835 132.184 99.4835 132.384C99.4835 132.44 99.4715 132.5 99.4475 132.564L97.7075 137.664C97.6355 137.888 97.4755 138 97.2275 138H96.3755C96.1275 138 95.9675 137.888 95.8955 137.664L94.1555 132.564C94.1315 132.5 94.1195 132.44 94.1195 132.384C94.1195 132.184 94.2435 132.084 94.4915 132.084H94.9715C95.2115 132.084 95.3675 132.2 95.4395 132.432L95.9915 134.148C96.3515 135.3 96.6275 136.236 96.8195 136.956C97.0755 136.004 97.3515 135.068 97.6475 134.148L98.1995 132.432ZM101.142 130.932C100.91 130.932 100.714 130.856 100.554 130.704C100.394 130.544 100.314 130.356 100.314 130.14C100.314 129.916 100.394 129.728 100.554 129.576C100.714 129.424 100.91 129.348 101.142 129.348C101.374 129.348 101.57 129.424 101.73 129.576C101.89 129.728 101.97 129.916 101.97 130.14C101.97 130.356 101.89 130.544 101.73 130.704C101.57 130.856 101.374 130.932 101.142 130.932ZM100.914 138C100.786 138 100.682 137.964 100.602 137.892C100.53 137.812 100.494 137.708 100.494 137.58V132.504C100.494 132.368 100.53 132.264 100.602 132.192C100.682 132.12 100.786 132.084 100.914 132.084H101.346C101.482 132.084 101.586 132.12 101.658 132.192C101.73 132.264 101.766 132.368 101.766 132.504V137.58C101.766 137.708 101.73 137.812 101.658 137.892C101.586 137.964 101.482 138 101.346 138H100.914ZM107.472 136.488C107.576 136.4 107.676 136.356 107.772 136.356C107.868 136.356 107.968 136.408 108.072 136.512L108.24 136.692C108.328 136.796 108.372 136.896 108.372 136.992C108.372 137.096 108.32 137.196 108.216 137.292C107.848 137.612 107.48 137.84 107.112 137.976C106.752 138.112 106.352 138.18 105.912 138.18C105.296 138.18 104.76 138.052 104.304 137.796C103.856 137.54 103.508 137.18 103.26 136.716C103.02 136.244 102.9 135.7 102.9 135.084C102.9 134.476 103.016 133.932 103.248 133.452C103.488 132.964 103.824 132.584 104.256 132.312C104.696 132.04 105.208 131.904 105.792 131.904C106.664 131.904 107.336 132.164 107.808 132.684C108.28 133.196 108.516 133.904 108.516 134.808V134.916C108.508 135.044 108.468 135.144 108.396 135.216C108.324 135.288 108.22 135.324 108.084 135.324H104.148C104.196 135.852 104.368 136.284 104.664 136.62C104.968 136.948 105.392 137.112 105.936 137.112C106.232 137.112 106.492 137.068 106.716 136.98C106.94 136.884 107.192 136.72 107.472 136.488ZM105.768 132.912C105.328 132.912 104.972 133.044 104.7 133.308C104.436 133.564 104.264 133.928 104.184 134.4H107.268C107.236 133.936 107.092 133.572 106.836 133.308C106.58 133.044 106.224 132.912 105.768 132.912ZM116.283 132.444C116.339 132.204 116.495 132.084 116.751 132.084H117.195C117.315 132.084 117.407 132.112 117.471 132.168C117.543 132.216 117.579 132.292 117.579 132.396C117.579 132.42 117.571 132.472 117.555 132.552L116.127 137.64C116.071 137.88 115.915 138 115.659 138H114.879C114.639 138 114.483 137.88 114.411 137.64L114.015 136.248C113.839 135.632 113.643 134.86 113.427 133.932L113.367 133.668C113.151 134.644 112.943 135.508 112.743 136.26L112.371 137.64C112.315 137.88 112.159 138 111.903 138H111.135C110.895 138 110.739 137.88 110.667 137.64L109.227 132.552C109.211 132.472 109.203 132.42 109.203 132.396C109.203 132.292 109.235 132.216 109.299 132.168C109.371 132.112 109.467 132.084 109.587 132.084H110.055C110.311 132.084 110.467 132.204 110.523 132.444L110.955 134.148C111.123 134.772 111.319 135.604 111.543 136.644L111.591 136.884C111.823 135.812 112.039 134.9 112.239 134.148L112.695 132.444C112.751 132.204 112.907 132.084 113.163 132.084H113.619C113.875 132.084 114.031 132.204 114.087 132.444L114.555 134.148C114.779 134.98 115.003 135.892 115.227 136.884C115.395 136.028 115.603 135.116 115.851 134.148L116.283 132.444Z" fill="#464646"/>
<rect x="130" y="119" width="1" height="30" fill="#D4D4D4"/>
<path fill-rule="evenodd" clip-rule="evenodd" d="M148.333 127.444H158.111C158.347 127.444 158.573 127.538 158.74 127.705C158.906 127.871 159 128.098 159 128.333C159 128.569 158.906 128.795 158.74 128.962C158.573 129.129 158.347 129.222 158.111 129.222H148.333C148.098 129.222 147.871 129.129 147.705 128.962C147.538 128.795 147.444 128.569 147.444 128.333C147.444 128.098 147.538 127.871 147.705 127.705C147.871 127.538 148.098 127.444 148.333 127.444ZM148.333 132.778H158.111C158.347 132.778 158.573 132.871 158.74 133.038C158.906 133.205 159 133.431 159 133.667C159 133.902 158.906 134.129 158.74 134.295C158.573 134.462 158.347 134.556 158.111 134.556H148.333C148.098 134.556 147.871 134.462 147.705 134.295C147.538 134.129 147.444 133.902 147.444 133.667C147.444 133.431 147.538 133.205 147.705 133.038C147.871 132.871 148.098 132.778 148.333 132.778ZM148.333 138.111H158.111C158.347 138.111 158.573 138.205 158.74 138.371C158.906 138.538 159 138.764 159 139C159 139.236 158.906 139.462 158.74 139.629C158.573 139.795 158.347 139.889 158.111 139.889H148.333C148.098 139.889 147.871 139.795 147.705 139.629C147.538 139.462 147.444 139.236 147.444 139C147.444 138.764 147.538 138.538 147.705 138.371C147.871 138.205 148.098 138.111 148.333 138.111ZM144.333 132.333C144.687 132.333 145.026 132.474 145.276 132.724C145.526 132.974 145.667 133.313 145.667 133.667C145.667 134.02 145.526 134.359 145.276 134.609C145.026 134.86 144.687 135 144.333 135C143.98 135 143.641 134.86 143.391 134.609C143.14 134.359 143 134.02 143 133.667C143 133.313 143.14 132.974 143.391 132.724C143.641 132.474 143.98 132.333 144.333 132.333ZM144.333 137.667C144.687 137.667 145.026 137.807 145.276 138.057C145.526 138.307 145.667 138.646 145.667 139C145.667 139.354 145.526 139.693 145.276 139.943C145.026 140.193 144.687 140.333 144.333 140.333C143.98 140.333 143.641 140.193 143.391 139.943C143.14 139.693 143 139.354 143 139C143 138.646 143.14 138.307 143.391 138.057C143.641 137.807 143.98 137.667 144.333 137.667ZM144.333 127C144.687 127 145.026 127.14 145.276 127.391C145.526 127.641 145.667 127.98 145.667 128.333C145.667 128.687 145.526 129.026 145.276 129.276C145.026 129.526 144.687 129.667 144.333 129.667C143.98 129.667 143.641 129.526 143.391 129.276C143.14 129.026 143 128.687 143 128.333C143 127.98 143.14 127.641 143.391 127.391C143.641 127.14 143.98 127 144.333 127Z" fill="#767676"/>
<path d="M168.764 138C168.636 138 168.532 137.964 168.452 137.892C168.38 137.812 168.344 137.708 168.344 137.58V129.9C168.344 129.764 168.38 129.66 168.452 129.588C168.532 129.516 168.636 129.48 168.764 129.48H169.292C169.428 129.48 169.532 129.516 169.604 129.588C169.676 129.66 169.712 129.764 169.712 129.9V136.836H173.18C173.316 136.836 173.42 136.872 173.492 136.944C173.564 137.016 173.6 137.12 173.6 137.256V137.58C173.6 137.708 173.564 137.812 173.492 137.892C173.42 137.964 173.316 138 173.18 138H168.764ZM175.316 130.932C175.084 130.932 174.888 130.856 174.728 130.704C174.568 130.544 174.488 130.356 174.488 130.14C174.488 129.916 174.568 129.728 174.728 129.576C174.888 129.424 175.084 129.348 175.316 129.348C175.548 129.348 175.744 129.424 175.904 129.576C176.064 129.728 176.144 129.916 176.144 130.14C176.144 130.356 176.064 130.544 175.904 130.704C175.744 130.856 175.548 130.932 175.316 130.932ZM175.088 138C174.96 138 174.856 137.964 174.776 137.892C174.704 137.812 174.668 137.708 174.668 137.58V132.504C174.668 132.368 174.704 132.264 174.776 132.192C174.856 132.12 174.96 132.084 175.088 132.084H175.52C175.656 132.084 175.76 132.12 175.832 132.192C175.904 132.264 175.94 132.368 175.94 132.504V137.58C175.94 137.708 175.904 137.812 175.832 137.892C175.76 137.964 175.656 138 175.52 138H175.088ZM179.69 138.18C179.202 138.18 178.766 138.12 178.382 138C178.006 137.872 177.622 137.652 177.23 137.34C177.11 137.252 177.05 137.152 177.05 137.04C177.05 136.952 177.094 136.856 177.182 136.752L177.362 136.548C177.458 136.436 177.562 136.38 177.674 136.38C177.762 136.38 177.858 136.42 177.962 136.5C178.298 136.748 178.594 136.92 178.85 137.016C179.106 137.104 179.394 137.148 179.714 137.148C180.058 137.148 180.338 137.08 180.554 136.944C180.778 136.8 180.89 136.608 180.89 136.368C180.89 136.184 180.826 136.04 180.698 135.936C180.578 135.824 180.418 135.74 180.218 135.684C180.018 135.62 179.722 135.548 179.33 135.468C178.778 135.348 178.346 135.22 178.034 135.084C177.73 134.94 177.51 134.76 177.374 134.544C177.238 134.328 177.17 134.052 177.17 133.716C177.17 133.372 177.266 133.064 177.458 132.792C177.658 132.52 177.934 132.304 178.286 132.144C178.646 131.984 179.066 131.904 179.546 131.904C179.978 131.904 180.362 131.952 180.698 132.048C181.042 132.144 181.378 132.308 181.706 132.54C181.834 132.636 181.898 132.744 181.898 132.864C181.898 132.944 181.858 133.036 181.778 133.14L181.622 133.332C181.534 133.444 181.426 133.5 181.298 133.5C181.202 133.5 181.11 133.468 181.022 133.404C180.758 133.228 180.514 133.108 180.29 133.044C180.066 132.972 179.814 132.936 179.534 132.936C179.19 132.936 178.914 133.004 178.706 133.14C178.498 133.276 178.394 133.452 178.394 133.668C178.394 133.812 178.442 133.928 178.538 134.016C178.642 134.096 178.786 134.168 178.97 134.232C179.162 134.288 179.462 134.36 179.87 134.448C180.422 134.568 180.858 134.704 181.178 134.856C181.506 135 181.746 135.188 181.898 135.42C182.058 135.644 182.138 135.936 182.138 136.296C182.138 136.856 181.914 137.312 181.466 137.664C181.026 138.008 180.434 138.18 179.69 138.18ZM186.067 136.992C186.091 136.984 186.127 136.98 186.175 136.98C186.375 136.98 186.495 137.096 186.535 137.328L186.571 137.52C186.579 137.544 186.583 137.584 186.583 137.64C186.583 137.84 186.471 137.968 186.247 138.024C185.927 138.096 185.635 138.132 185.371 138.132C184.803 138.132 184.391 138 184.135 137.736C183.887 137.472 183.763 137.076 183.763 136.548V133.056H183.103C182.975 133.056 182.871 133.02 182.791 132.948C182.719 132.868 182.683 132.764 182.683 132.636V132.504C182.683 132.368 182.719 132.264 182.791 132.192C182.871 132.12 182.975 132.084 183.103 132.084H183.763V130.596C183.763 130.46 183.799 130.356 183.871 130.284C183.951 130.212 184.055 130.176 184.183 130.176H184.615C184.751 130.176 184.855 130.212 184.927 130.284C184.999 130.356 185.035 130.46 185.035 130.596V132.084H186.115C186.251 132.084 186.355 132.12 186.427 132.192C186.499 132.264 186.535 132.368 186.535 132.504V132.636C186.535 132.764 186.499 132.868 186.427 132.948C186.355 133.02 186.251 133.056 186.115 133.056H185.035V136.392C185.035 136.624 185.083 136.788 185.179 136.884C185.283 136.98 185.447 137.028 185.671 137.028C185.767 137.028 185.899 137.016 186.067 136.992ZM193.877 132.432C193.949 132.2 194.105 132.084 194.345 132.084H194.789C195.037 132.084 195.161 132.184 195.161 132.384C195.161 132.44 195.149 132.5 195.125 132.564L193.385 137.664C193.313 137.888 193.153 138 192.905 138H192.053C191.805 138 191.645 137.888 191.573 137.664L189.833 132.564C189.809 132.5 189.797 132.44 189.797 132.384C189.797 132.184 189.921 132.084 190.169 132.084H190.649C190.889 132.084 191.045 132.2 191.117 132.432L191.669 134.148C192.029 135.3 192.305 136.236 192.497 136.956C192.753 136.004 193.029 135.068 193.325 134.148L193.877 132.432ZM196.819 130.932C196.587 130.932 196.391 130.856 196.231 130.704C196.071 130.544 195.991 130.356 195.991 130.14C195.991 129.916 196.071 129.728 196.231 129.576C196.391 129.424 196.587 129.348 196.819 129.348C197.051 129.348 197.247 129.424 197.407 129.576C197.567 129.728 197.647 129.916 197.647 130.14C197.647 130.356 197.567 130.544 197.407 130.704C197.247 130.856 197.051 130.932 196.819 130.932ZM196.591 138C196.463 138 196.359 137.964 196.279 137.892C196.207 137.812 196.171 137.708 196.171 137.58V132.504C196.171 132.368 196.207 132.264 196.279 132.192C196.359 132.12 196.463 132.084 196.591 132.084H197.023C197.159 132.084 197.263 132.12 197.335 132.192C197.407 132.264 197.443 132.368 197.443 132.504V137.58C197.443 137.708 197.407 137.812 197.335 137.892C197.263 137.964 197.159 138 197.023 138H196.591ZM203.15 136.488C203.254 136.4 203.354 136.356 203.45 136.356C203.546 136.356 203.646 136.408 203.75 136.512L203.918 136.692C204.006 136.796 204.05 136.896 204.05 136.992C204.05 137.096 203.998 137.196 203.894 137.292C203.526 137.612 203.158 137.84 202.79 137.976C202.43 138.112 202.03 138.18 201.59 138.18C200.974 138.18 200.438 138.052 199.982 137.796C199.534 137.54 199.186 137.18 198.938 136.716C198.698 136.244 198.578 135.7 198.578 135.084C198.578 134.476 198.694 133.932 198.926 133.452C199.166 132.964 199.502 132.584 199.934 132.312C200.374 132.04 200.886 131.904 201.47 131.904C202.342 131.904 203.014 132.164 203.486 132.684C203.958 133.196 204.194 133.904 204.194 134.808V134.916C204.186 135.044 204.146 135.144 204.074 135.216C204.002 135.288 203.898 135.324 203.762 135.324H199.826C199.874 135.852 200.046 136.284 200.342 136.62C200.646 136.948 201.07 137.112 201.614 137.112C201.91 137.112 202.17 137.068 202.394 136.98C202.618 136.884 202.87 136.72 203.15 136.488ZM201.446 132.912C201.006 132.912 200.65 133.044 200.378 133.308C200.114 133.564 199.942 133.928 199.862 134.4H202.946C202.914 133.936 202.77 133.572 202.514 133.308C202.258 133.044 201.902 132.912 201.446 132.912ZM211.96 132.444C212.016 132.204 212.172 132.084 212.428 132.084H212.872C212.992 132.084 213.084 132.112 213.148 132.168C213.22 132.216 213.256 132.292 213.256 132.396C213.256 132.42 213.248 132.472 213.232 132.552L211.804 137.64C211.748 137.88 211.592 138 211.336 138H210.556C210.316 138 210.16 137.88 210.088 137.64L209.692 136.248C209.516 135.632 209.32 134.86 209.104 133.932L209.044 133.668C208.828 134.644 208.62 135.508 208.42 136.26L208.048 137.64C207.992 137.88 207.836 138 207.58 138H206.812C206.572 138 206.416 137.88 206.344 137.64L204.904 132.552C204.888 132.472 204.88 132.42 204.88 132.396C204.88 132.292 204.912 132.216 204.976 132.168C205.048 132.112 205.144 132.084 205.264 132.084H205.732C205.988 132.084 206.144 132.204 206.2 132.444L206.632 134.148C206.8 134.772 206.996 135.604 207.22 136.644L207.268 136.884C207.5 135.812 207.716 134.9 207.916 134.148L208.372 132.444C208.428 132.204 208.584 132.084 208.84 132.084H209.296C209.552 132.084 209.708 132.204 209.764 132.444L210.232 134.148C210.456 134.98 210.68 135.892 210.904 136.884C211.072 136.028 211.28 135.116 211.528 134.148L211.96 132.444Z" fill="#464646"/>
<rect x="32.5" y="118.5" width="193" height="31" rx="3.5" stroke="#D4D4D4"/>
<rect x="32.5" y="220.5" width="279" height="31" rx="3.5" fill="white"/>
<path d="M81.6237 236.568C81.4957 236.568 81.3917 236.532 81.3117 236.46C81.2397 236.38 81.2037 236.276 81.2037 236.148V235.836C81.2037 235.7 81.2397 235.596 81.3117 235.524C81.3917 235.452 81.4957 235.416 81.6237 235.416H84.6357C84.7717 235.416 84.8757 235.452 84.9477 235.524C85.0197 235.596 85.0557 235.7 85.0557 235.836V239.58C85.0557 239.708 85.0197 239.812 84.9477 239.892C84.8757 239.964 84.7717 240 84.6357 240H84.3837C84.1197 240 83.9757 239.868 83.9517 239.604L83.9037 239.064C83.3917 239.808 82.5437 240.18 81.3597 240.18C80.5117 240.18 79.7837 239.992 79.1757 239.616C78.5677 239.24 78.1037 238.716 77.7837 238.044C77.4637 237.372 77.3037 236.6 77.3037 235.728C77.3037 234.88 77.4717 234.12 77.8077 233.448C78.1437 232.776 78.6277 232.252 79.2597 231.876C79.8917 231.492 80.6397 231.3 81.5037 231.3C82.1517 231.3 82.7317 231.404 83.2437 231.612C83.7557 231.812 84.2597 232.14 84.7557 232.596C84.8597 232.692 84.9117 232.792 84.9117 232.896C84.9117 233 84.8637 233.1 84.7677 233.196L84.4797 233.484C84.3757 233.588 84.2757 233.64 84.1797 233.64C84.0757 233.64 83.9757 233.592 83.8797 233.496C83.4637 233.136 83.0757 232.88 82.7157 232.728C82.3557 232.568 81.9477 232.488 81.4917 232.488C80.9397 232.488 80.4517 232.62 80.0277 232.884C79.6117 233.148 79.2837 233.524 79.0437 234.012C78.8117 234.5 78.6957 235.076 78.6957 235.74C78.6957 236.412 78.8077 236.992 79.0317 237.48C79.2557 237.968 79.5717 238.344 79.9797 238.608C80.3957 238.864 80.8837 238.992 81.4437 238.992C82.1557 238.992 82.7237 238.8 83.1477 238.416C83.5797 238.024 83.7957 237.492 83.7957 236.82V236.568H81.6237ZM89.2085 234.024C89.3845 234.024 89.5645 234.044 89.7485 234.084C89.9645 234.132 90.0725 234.26 90.0725 234.468C90.0725 234.524 90.0685 234.564 90.0605 234.588L90.0005 234.876C89.9525 235.1 89.8325 235.212 89.6405 235.212L89.5325 235.2C89.3885 235.176 89.2605 235.164 89.1485 235.164C88.7485 235.164 88.4245 235.324 88.1765 235.644C87.9365 235.956 87.8165 236.392 87.8165 236.952V239.58C87.8165 239.708 87.7805 239.812 87.7085 239.892C87.6365 239.964 87.5325 240 87.3965 240H86.9645C86.8365 240 86.7325 239.964 86.6525 239.892C86.5805 239.812 86.5445 239.708 86.5445 239.58V234.504C86.5445 234.368 86.5805 234.264 86.6525 234.192C86.7325 234.12 86.8365 234.084 86.9645 234.084H87.3125C87.4485 234.084 87.5525 234.12 87.6245 234.192C87.6965 234.264 87.7325 234.368 87.7325 234.504V234.972C87.8765 234.676 88.0725 234.444 88.3205 234.276C88.5685 234.108 88.8645 234.024 89.2085 234.024ZM91.6456 232.932C91.4136 232.932 91.2176 232.856 91.0576 232.704C90.8976 232.544 90.8176 232.356 90.8176 232.14C90.8176 231.916 90.8976 231.728 91.0576 231.576C91.2176 231.424 91.4136 231.348 91.6456 231.348C91.8776 231.348 92.0736 231.424 92.2336 231.576C92.3936 231.728 92.4736 231.916 92.4736 232.14C92.4736 232.356 92.3936 232.544 92.2336 232.704C92.0736 232.856 91.8776 232.932 91.6456 232.932ZM91.4176 240C91.2896 240 91.1856 239.964 91.1056 239.892C91.0336 239.812 90.9976 239.708 90.9976 239.58V234.504C90.9976 234.368 91.0336 234.264 91.1056 234.192C91.1856 234.12 91.2896 234.084 91.4176 234.084H91.8496C91.9856 234.084 92.0896 234.12 92.1616 234.192C92.2336 234.264 92.2696 234.368 92.2696 234.504V239.58C92.2696 239.708 92.2336 239.812 92.1616 239.892C92.0896 239.964 91.9856 240 91.8496 240H91.4176ZM97.9038 231.888C97.9038 231.752 97.9398 231.648 98.0118 231.576C98.0918 231.504 98.1958 231.468 98.3238 231.468H98.7558C98.8918 231.468 98.9958 231.504 99.0678 231.576C99.1398 231.648 99.1758 231.752 99.1758 231.888V239.58C99.1758 239.708 99.1398 239.812 99.0678 239.892C98.9958 239.964 98.8918 240 98.7558 240H98.4078C98.2798 240 98.1758 239.964 98.0958 239.892C98.0238 239.812 97.9878 239.708 97.9878 239.58V239.16C97.5718 239.832 96.9198 240.168 96.0318 240.168C95.5358 240.168 95.0878 240.04 94.6878 239.784C94.2958 239.528 93.9878 239.164 93.7638 238.692C93.5398 238.22 93.4278 237.672 93.4278 237.048C93.4278 236.432 93.5398 235.888 93.7638 235.416C93.9958 234.944 94.3118 234.58 94.7118 234.324C95.1118 234.068 95.5598 233.94 96.0558 233.94C96.8718 233.94 97.4878 234.224 97.9038 234.792V231.888ZM96.2958 239.076C96.7838 239.076 97.1838 238.896 97.4958 238.536C97.8078 238.168 97.9638 237.672 97.9638 237.048C97.9638 236.424 97.8078 235.932 97.4958 235.572C97.1838 235.212 96.7838 235.032 96.2958 235.032C95.8238 235.032 95.4438 235.216 95.1558 235.584C94.8678 235.952 94.7238 236.44 94.7238 237.048C94.7238 237.664 94.8638 238.156 95.1438 238.524C95.4318 238.892 95.8158 239.076 96.2958 239.076ZM106.949 234.432C107.021 234.2 107.177 234.084 107.417 234.084H107.861C108.109 234.084 108.233 234.184 108.233 234.384C108.233 234.44 108.221 234.5 108.197 234.564L106.457 239.664C106.385 239.888 106.225 240 105.977 240H105.125C104.877 240 104.717 239.888 104.645 239.664L102.905 234.564C102.881 234.5 102.869 234.44 102.869 234.384C102.869 234.184 102.993 234.084 103.241 234.084H103.721C103.961 234.084 104.117 234.2 104.189 234.432L104.741 236.148C105.101 237.3 105.377 238.236 105.569 238.956C105.825 238.004 106.101 237.068 106.397 236.148L106.949 234.432ZM109.892 232.932C109.66 232.932 109.464 232.856 109.304 232.704C109.144 232.544 109.064 232.356 109.064 232.14C109.064 231.916 109.144 231.728 109.304 231.576C109.464 231.424 109.66 231.348 109.892 231.348C110.124 231.348 110.32 231.424 110.48 231.576C110.64 231.728 110.72 231.916 110.72 232.14C110.72 232.356 110.64 232.544 110.48 232.704C110.32 232.856 110.124 232.932 109.892 232.932ZM109.664 240C109.536 240 109.432 239.964 109.352 239.892C109.28 239.812 109.244 239.708 109.244 239.58V234.504C109.244 234.368 109.28 234.264 109.352 234.192C109.432 234.12 109.536 234.084 109.664 234.084H110.096C110.232 234.084 110.336 234.12 110.408 234.192C110.48 234.264 110.516 234.368 110.516 234.504V239.58C110.516 239.708 110.48 239.812 110.408 239.892C110.336 239.964 110.232 240 110.096 240H109.664ZM116.222 238.488C116.326 238.4 116.426 238.356 116.522 238.356C116.618 238.356 116.718 238.408 116.822 238.512L116.99 238.692C117.078 238.796 117.122 238.896 117.122 238.992C117.122 239.096 117.07 239.196 116.966 239.292C116.598 239.612 116.23 239.84 115.862 239.976C115.502 240.112 115.102 240.18 114.662 240.18C114.046 240.18 113.51 240.052 113.054 239.796C112.606 239.54 112.258 239.18 112.01 238.716C111.77 238.244 111.65 237.7 111.65 237.084C111.65 236.476 111.766 235.932 111.998 235.452C112.238 234.964 112.574 234.584 113.006 234.312C113.446 234.04 113.958 233.904 114.542 233.904C115.414 233.904 116.086 234.164 116.558 234.684C117.03 235.196 117.266 235.904 117.266 236.808V236.916C117.258 237.044 117.218 237.144 117.146 237.216C117.074 237.288 116.97 237.324 116.834 237.324H112.898C112.946 237.852 113.118 238.284 113.414 238.62C113.718 238.948 114.142 239.112 114.686 239.112C114.982 239.112 115.242 239.068 115.466 238.98C115.69 238.884 115.942 238.72 116.222 238.488ZM114.518 234.912C114.078 234.912 113.722 235.044 113.45 235.308C113.186 235.564 113.014 235.928 112.934 236.4H116.018C115.986 235.936 115.842 235.572 115.586 235.308C115.33 235.044 114.974 234.912 114.518 234.912ZM125.033 234.444C125.089 234.204 125.245 234.084 125.501 234.084H125.945C126.065 234.084 126.157 234.112 126.221 234.168C126.293 234.216 126.329 234.292 126.329 234.396C126.329 234.42 126.321 234.472 126.305 234.552L124.877 239.64C124.821 239.88 124.665 240 124.409 240H123.629C123.389 240 123.233 239.88 123.161 239.64L122.765 238.248C122.589 237.632 122.393 236.86 122.177 235.932L122.117 235.668C121.901 236.644 121.693 237.508 121.493 238.26L121.121 239.64C121.065 239.88 120.909 240 120.653 240H119.885C119.645 240 119.489 239.88 119.417 239.64L117.977 234.552C117.961 234.472 117.953 234.42 117.953 234.396C117.953 234.292 117.985 234.216 118.049 234.168C118.121 234.112 118.217 234.084 118.337 234.084H118.805C119.061 234.084 119.217 234.204 119.273 234.444L119.705 236.148C119.873 236.772 120.069 237.604 120.293 238.644L120.341 238.884C120.573 237.812 120.789 236.9 120.989 236.148L121.445 234.444C121.501 234.204 121.657 234.084 121.913 234.084H122.369C122.625 234.084 122.781 234.204 122.837 234.444L123.305 236.148C123.529 236.98 123.753 237.892 123.977 238.884C124.145 238.028 124.353 237.116 124.601 236.148L125.033 234.444Z" fill="#464646"/>
<rect x="171.5" y="221" width="1" height="30" fill="#D4D4D4"/>
<path d="M220.514 240C220.386 240 220.282 239.964 220.202 239.892C220.13 239.812 220.094 239.708 220.094 239.58V231.9C220.094 231.764 220.13 231.66 220.202 231.588C220.282 231.516 220.386 231.48 220.514 231.48H221.042C221.178 231.48 221.282 231.516 221.354 231.588C221.426 231.66 221.462 231.764 221.462 231.9V238.836H224.93C225.066 238.836 225.17 238.872 225.242 238.944C225.314 239.016 225.35 239.12 225.35 239.256V239.58C225.35 239.708 225.314 239.812 225.242 239.892C225.17 239.964 225.066 240 224.93 240H220.514ZM227.066 232.932C226.834 232.932 226.638 232.856 226.478 232.704C226.318 232.544 226.238 232.356 226.238 232.14C226.238 231.916 226.318 231.728 226.478 231.576C226.638 231.424 226.834 231.348 227.066 231.348C227.298 231.348 227.494 231.424 227.654 231.576C227.814 231.728 227.894 231.916 227.894 232.14C227.894 232.356 227.814 232.544 227.654 232.704C227.494 232.856 227.298 232.932 227.066 232.932ZM226.838 240C226.71 240 226.606 239.964 226.526 239.892C226.454 239.812 226.418 239.708 226.418 239.58V234.504C226.418 234.368 226.454 234.264 226.526 234.192C226.606 234.12 226.71 234.084 226.838 234.084H227.27C227.406 234.084 227.51 234.12 227.582 234.192C227.654 234.264 227.69 234.368 227.69 234.504V239.58C227.69 239.708 227.654 239.812 227.582 239.892C227.51 239.964 227.406 240 227.27 240H226.838ZM231.44 240.18C230.952 240.18 230.516 240.12 230.132 240C229.756 239.872 229.372 239.652 228.98 239.34C228.86 239.252 228.8 239.152 228.8 239.04C228.8 238.952 228.844 238.856 228.932 238.752L229.112 238.548C229.208 238.436 229.312 238.38 229.424 238.38C229.512 238.38 229.608 238.42 229.712 238.5C230.048 238.748 230.344 238.92 230.6 239.016C230.856 239.104 231.144 239.148 231.464 239.148C231.808 239.148 232.088 239.08 232.304 238.944C232.528 238.8 232.64 238.608 232.64 238.368C232.64 238.184 232.576 238.04 232.448 237.936C232.328 237.824 232.168 237.74 231.968 237.684C231.768 237.62 231.472 237.548 231.08 237.468C230.528 237.348 230.096 237.22 229.784 237.084C229.48 236.94 229.26 236.76 229.124 236.544C228.988 236.328 228.92 236.052 228.92 235.716C228.92 235.372 229.016 235.064 229.208 234.792C229.408 234.52 229.684 234.304 230.036 234.144C230.396 233.984 230.816 233.904 231.296 233.904C231.728 233.904 232.112 233.952 232.448 234.048C232.792 234.144 233.128 234.308 233.456 234.54C233.584 234.636 233.648 234.744 233.648 234.864C233.648 234.944 233.608 235.036 233.528 235.14L233.372 235.332C233.284 235.444 233.176 235.5 233.048 235.5C232.952 235.5 232.86 235.468 232.772 235.404C232.508 235.228 232.264 235.108 232.04 235.044C231.816 234.972 231.564 234.936 231.284 234.936C230.94 234.936 230.664 235.004 230.456 235.14C230.248 235.276 230.144 235.452 230.144 235.668C230.144 235.812 230.192 235.928 230.288 236.016C230.392 236.096 230.536 236.168 230.72 236.232C230.912 236.288 231.212 236.36 231.62 236.448C232.172 236.568 232.608 236.704 232.928 236.856C233.256 237 233.496 237.188 233.648 237.42C233.808 237.644 233.888 237.936 233.888 238.296C233.888 238.856 233.664 239.312 233.216 239.664C232.776 240.008 232.184 240.18 231.44 240.18ZM237.817 238.992C237.841 238.984 237.877 238.98 237.925 238.98C238.125 238.98 238.245 239.096 238.285 239.328L238.321 239.52C238.329 239.544 238.333 239.584 238.333 239.64C238.333 239.84 238.221 239.968 237.997 240.024C237.677 240.096 237.385 240.132 237.121 240.132C236.553 240.132 236.141 240 235.885 239.736C235.637 239.472 235.513 239.076 235.513 238.548V235.056H234.853C234.725 235.056 234.621 235.02 234.541 234.948C234.469 234.868 234.433 234.764 234.433 234.636V234.504C234.433 234.368 234.469 234.264 234.541 234.192C234.621 234.12 234.725 234.084 234.853 234.084H235.513V232.596C235.513 232.46 235.549 232.356 235.621 232.284C235.701 232.212 235.805 232.176 235.933 232.176H236.365C236.501 232.176 236.605 232.212 236.677 232.284C236.749 232.356 236.785 232.46 236.785 232.596V234.084H237.865C238.001 234.084 238.105 234.12 238.177 234.192C238.249 234.264 238.285 234.368 238.285 234.504V234.636C238.285 234.764 238.249 234.868 238.177 234.948C238.105 235.02 238.001 235.056 237.865 235.056H236.785V238.392C236.785 238.624 236.833 238.788 236.929 238.884C237.033 238.98 237.197 239.028 237.421 239.028C237.517 239.028 237.649 239.016 237.817 238.992ZM245.627 234.432C245.699 234.2 245.855 234.084 246.095 234.084H246.539C246.787 234.084 246.911 234.184 246.911 234.384C246.911 234.44 246.899 234.5 246.875 234.564L245.135 239.664C245.063 239.888 244.903 240 244.655 240H243.803C243.555 240 243.395 239.888 243.323 239.664L241.583 234.564C241.559 234.5 241.547 234.44 241.547 234.384C241.547 234.184 241.671 234.084 241.919 234.084H242.399C242.639 234.084 242.795 234.2 242.867 234.432L243.419 236.148C243.779 237.3 244.055 238.236 244.247 238.956C244.503 238.004 244.779 237.068 245.075 236.148L245.627 234.432ZM248.569 232.932C248.337 232.932 248.141 232.856 247.981 232.704C247.821 232.544 247.741 232.356 247.741 232.14C247.741 231.916 247.821 231.728 247.981 231.576C248.141 231.424 248.337 231.348 248.569 231.348C248.801 231.348 248.997 231.424 249.157 231.576C249.317 231.728 249.397 231.916 249.397 232.14C249.397 232.356 249.317 232.544 249.157 232.704C248.997 232.856 248.801 232.932 248.569 232.932ZM248.341 240C248.213 240 248.109 239.964 248.029 239.892C247.957 239.812 247.921 239.708 247.921 239.58V234.504C247.921 234.368 247.957 234.264 248.029 234.192C248.109 234.12 248.213 234.084 248.341 234.084H248.773C248.909 234.084 249.013 234.12 249.085 234.192C249.157 234.264 249.193 234.368 249.193 234.504V239.58C249.193 239.708 249.157 239.812 249.085 239.892C249.013 239.964 248.909 240 248.773 240H248.341ZM254.9 238.488C255.004 238.4 255.104 238.356 255.2 238.356C255.296 238.356 255.396 238.408 255.5 238.512L255.668 238.692C255.756 238.796 255.8 238.896 255.8 238.992C255.8 239.096 255.748 239.196 255.644 239.292C255.276 239.612 254.908 239.84 254.54 239.976C254.18 240.112 253.78 240.18 253.34 240.18C252.724 240.18 252.188 240.052 251.732 239.796C251.284 239.54 250.936 239.18 250.688 238.716C250.448 238.244 250.328 237.7 250.328 237.084C250.328 236.476 250.444 235.932 250.676 235.452C250.916 234.964 251.252 234.584 251.684 234.312C252.124 234.04 252.636 233.904 253.22 233.904C254.092 233.904 254.764 234.164 255.236 234.684C255.708 235.196 255.944 235.904 255.944 236.808V236.916C255.936 237.044 255.896 237.144 255.824 237.216C255.752 237.288 255.648 237.324 255.512 237.324H251.576C251.624 237.852 251.796 238.284 252.092 238.62C252.396 238.948 252.82 239.112 253.364 239.112C253.66 239.112 253.92 239.068 254.144 238.98C254.368 238.884 254.62 238.72 254.9 238.488ZM253.196 234.912C252.756 234.912 252.4 235.044 252.128 235.308C251.864 235.564 251.692 235.928 251.612 236.4H254.696C254.664 235.936 254.52 235.572 254.264 235.308C254.008 235.044 253.652 234.912 253.196 234.912ZM263.71 234.444C263.766 234.204 263.922 234.084 264.178 234.084H264.622C264.742 234.084 264.834 234.112 264.898 234.168C264.97 234.216 265.006 234.292 265.006 234.396C265.006 234.42 264.998 234.472 264.982 234.552L263.554 239.64C263.498 239.88 263.342 240 263.086 240H262.306C262.066 240 261.91 239.88 261.838 239.64L261.442 238.248C261.266 237.632 261.07 236.86 260.854 235.932L260.794 235.668C260.578 236.644 260.37 237.508 260.17 238.26L259.798 239.64C259.742 239.88 259.586 240 259.33 240H258.562C258.322 240 258.166 239.88 258.094 239.64L256.654 234.552C256.638 234.472 256.63 234.42 256.63 234.396C256.63 234.292 256.662 234.216 256.726 234.168C256.798 234.112 256.894 234.084 257.014 234.084H257.482C257.738 234.084 257.894 234.204 257.95 234.444L258.382 236.148C258.55 236.772 258.746 237.604 258.97 238.644L259.018 238.884C259.25 237.812 259.466 236.9 259.666 236.148L260.122 234.444C260.178 234.204 260.334 234.084 260.59 234.084H261.046C261.302 234.084 261.458 234.204 261.514 234.444L261.982 236.148C262.206 236.98 262.43 237.892 262.654 238.884C262.822 238.028 263.03 237.116 263.278 236.148L263.71 234.444Z" fill="#464646"/>
<rect x="32.5" y="220.5" width="279" height="31" rx="3.5" stroke="#D4D4D4"/>
<rect x="32.5" y="266.5" width="279" height="31" rx="3.5" fill="white"/>
<g filter="url(#filter0_i_665_10555)">
<path d="M32 270C32 267.791 33.7909 266 36 266H172V298H36C33.7909 298 32 296.209 32 294V270Z" fill="white"/>
<path d="M100 275H95V280H100V275Z" stroke="#464646" stroke-width="1.5" stroke-linecap="round" stroke-linejoin="round"/>
<path d="M100 284H95V289H100V284Z" stroke="#464646" stroke-width="1.5" stroke-linecap="round" stroke-linejoin="round"/>
<path d="M109 275H104V280H109V275Z" stroke="#464646" stroke-width="1.5" stroke-linecap="round" stroke-linejoin="round"/>
<path d="M109 284H104V289H109V284Z" stroke="#464646" stroke-width="1.5" stroke-linecap="round" stroke-linejoin="round"/>
<path d="M32.5 270C32.5 268.067 34.067 266.5 36 266.5H171.5V297.5H36C34.067 297.5 32.5 295.933 32.5 294V270Z" stroke="#D4D4D4"/>
</g>
<path fill-rule="evenodd" clip-rule="evenodd" d="M239.333 275.444H249.111C249.347 275.444 249.573 275.538 249.74 275.705C249.906 275.871 250 276.098 250 276.333C250 276.569 249.906 276.795 249.74 276.962C249.573 277.129 249.347 277.222 249.111 277.222H239.333C239.098 277.222 238.871 277.129 238.705 276.962C238.538 276.795 238.444 276.569 238.444 276.333C238.444 276.098 238.538 275.871 238.705 275.705C238.871 275.538 239.098 275.444 239.333 275.444ZM239.333 280.778H249.111C249.347 280.778 249.573 280.871 249.74 281.038C249.906 281.205 250 281.431 250 281.667C250 281.902 249.906 282.129 249.74 282.295C249.573 282.462 249.347 282.556 249.111 282.556H239.333C239.098 282.556 238.871 282.462 238.705 282.295C238.538 282.129 238.444 281.902 238.444 281.667C238.444 281.431 238.538 281.205 238.705 281.038C238.871 280.871 239.098 280.778 239.333 280.778ZM239.333 286.111H249.111C249.347 286.111 249.573 286.205 249.74 286.371C249.906 286.538 250 286.764 250 287C250 287.236 249.906 287.462 249.74 287.629C249.573 287.795 249.347 287.889 249.111 287.889H239.333C239.098 287.889 238.871 287.795 238.705 287.629C238.538 287.462 238.444 287.236 238.444 287C238.444 286.764 238.538 286.538 238.705 286.371C238.871 286.205 239.098 286.111 239.333 286.111ZM235.333 280.333C235.687 280.333 236.026 280.474 236.276 280.724C236.526 280.974 236.667 281.313 236.667 281.667C236.667 282.02 236.526 282.359 236.276 282.609C236.026 282.86 235.687 283 235.333 283C234.98 283 234.641 282.86 234.391 282.609C234.14 282.359 234 282.02 234 281.667C234 281.313 234.14 280.974 234.391 280.724C234.641 280.474 234.98 280.333 235.333 280.333ZM235.333 285.667C235.687 285.667 236.026 285.807 236.276 286.057C236.526 286.307 236.667 286.646 236.667 287C236.667 287.354 236.526 287.693 236.276 287.943C236.026 288.193 235.687 288.333 235.333 288.333C234.98 288.333 234.641 288.193 234.391 287.943C234.14 287.693 234 287.354 234 287C234 286.646 234.14 286.307 234.391 286.057C234.641 285.807 234.98 285.667 235.333 285.667ZM235.333 275C235.687 275 236.026 275.14 236.276 275.391C236.526 275.641 236.667 275.98 236.667 276.333C236.667 276.687 236.526 277.026 236.276 277.276C236.026 277.526 235.687 277.667 235.333 277.667C234.98 277.667 234.641 277.526 234.391 277.276C234.14 277.026 234 276.687 234 276.333C234 275.98 234.14 275.641 234.391 275.391C234.641 275.14 234.98 275 235.333 275Z" fill="#464646"/>
<rect x="32.5" y="266.5" width="279" height="31" rx="3.5" stroke="#D4D4D4"/>
<rect x="155.5" y="72.5" width="84" height="31" rx="3.5" fill="white"/>
<circle cx="170.953" cy="87.9531" r="2" stroke="#767676" stroke-width="1.5"/>
<path d="M170.035 81.5335C170.303 80.5513 171.697 80.5513 171.965 81.5335L172.306 82.7823C172.478 83.4129 173.199 83.7115 173.766 83.3873L174.89 82.7454C175.774 82.2405 176.76 83.2255 176.255 84.1096L175.613 85.2338C175.289 85.8014 175.587 86.5222 176.218 86.6944L177.466 87.0353C178.449 87.3035 178.449 88.6965 177.466 88.9647L176.218 89.3056C175.587 89.4778 175.289 90.1986 175.613 90.7662L176.255 91.8904C176.76 92.7745 175.774 93.7595 174.89 93.2546L173.766 92.6127C173.199 92.2885 172.478 92.5871 172.306 93.2177L171.965 94.4665C171.697 95.4487 170.303 95.4487 170.035 94.4665L169.694 93.2177C169.522 92.5871 168.801 92.2885 168.234 92.6127L167.11 93.2546C166.226 93.7595 165.24 92.7745 165.745 91.8904L166.387 90.7662C166.711 90.1986 166.413 89.4778 165.782 89.3056L164.534 88.9647C163.551 88.6965 163.551 87.3035 164.534 87.0353L165.782 86.6944C166.413 86.5222 166.711 85.8014 166.387 85.2338L165.745 84.1096C165.24 83.2255 166.226 82.2405 167.11 82.7454L168.234 83.3873C168.801 83.7115 169.522 83.4129 169.694 82.7823L170.035 81.5335Z" stroke="#767676" stroke-width="1.5"/>
<path d="M190.924 92.192C190.268 92.192 189.68 92.1 189.16 91.916C188.648 91.724 188.12 91.404 187.576 90.956C187.464 90.868 187.408 90.764 187.408 90.644C187.408 90.54 187.448 90.444 187.528 90.356L187.804 90.032C187.892 89.92 187.992 89.864 188.104 89.864C188.192 89.864 188.292 89.908 188.404 89.996C188.884 90.38 189.312 90.644 189.688 90.788C190.072 90.932 190.492 91.004 190.948 91.004C191.5 91.004 191.948 90.88 192.292 90.632C192.636 90.376 192.808 90.028 192.808 89.588C192.808 89.3 192.72 89.076 192.544 88.916C192.368 88.748 192.14 88.62 191.86 88.532C191.588 88.444 191.144 88.328 190.528 88.184C189.784 88.008 189.204 87.816 188.788 87.608C188.372 87.4 188.072 87.152 187.888 86.864C187.712 86.568 187.624 86.196 187.624 85.748C187.624 85.276 187.76 84.852 188.032 84.476C188.304 84.1 188.676 83.808 189.148 83.6C189.628 83.392 190.164 83.288 190.756 83.288C191.356 83.288 191.884 83.368 192.34 83.528C192.804 83.688 193.268 83.948 193.732 84.308C193.852 84.404 193.912 84.504 193.912 84.608C193.912 84.696 193.872 84.792 193.792 84.896L193.528 85.208C193.432 85.32 193.332 85.376 193.228 85.376C193.132 85.376 193.032 85.336 192.928 85.256C192.544 84.96 192.188 84.756 191.86 84.644C191.532 84.532 191.16 84.476 190.744 84.476C190.216 84.476 189.788 84.592 189.46 84.824C189.132 85.056 188.968 85.348 188.968 85.7C188.968 85.956 189.044 86.16 189.196 86.312C189.348 86.464 189.568 86.588 189.856 86.684C190.144 86.78 190.588 86.896 191.188 87.032C191.916 87.208 192.492 87.396 192.916 87.596C193.34 87.788 193.656 88.036 193.864 88.34C194.072 88.644 194.176 89.032 194.176 89.504C194.176 90.032 194.04 90.5 193.768 90.908C193.496 91.316 193.116 91.632 192.628 91.856C192.14 92.08 191.572 92.192 190.924 92.192ZM199.644 90.488C199.748 90.4 199.848 90.356 199.944 90.356C200.04 90.356 200.14 90.408 200.244 90.512L200.412 90.692C200.5 90.796 200.544 90.896 200.544 90.992C200.544 91.096 200.492 91.196 200.388 91.292C200.02 91.612 199.652 91.84 199.284 91.976C198.924 92.112 198.524 92.18 198.084 92.18C197.468 92.18 196.932 92.052 196.476 91.796C196.028 91.54 195.68 91.18 195.432 90.716C195.192 90.244 195.072 89.7 195.072 89.084C195.072 88.476 195.188 87.932 195.42 87.452C195.66 86.964 195.996 86.584 196.428 86.312C196.868 86.04 197.38 85.904 197.964 85.904C198.836 85.904 199.508 86.164 199.98 86.684C200.452 87.196 200.688 87.904 200.688 88.808V88.916C200.68 89.044 200.64 89.144 200.568 89.216C200.496 89.288 200.392 89.324 200.256 89.324H196.32C196.368 89.852 196.54 90.284 196.836 90.62C197.14 90.948 197.564 91.112 198.108 91.112C198.404 91.112 198.664 91.068 198.888 90.98C199.112 90.884 199.364 90.72 199.644 90.488ZM197.94 86.912C197.5 86.912 197.144 87.044 196.872 87.308C196.608 87.564 196.436 87.928 196.356 88.4H199.44C199.408 87.936 199.264 87.572 199.008 87.308C198.752 87.044 198.396 86.912 197.94 86.912ZM204.639 90.992C204.663 90.984 204.699 90.98 204.747 90.98C204.947 90.98 205.067 91.096 205.107 91.328L205.143 91.52C205.151 91.544 205.155 91.584 205.155 91.64C205.155 91.84 205.043 91.968 204.819 92.024C204.499 92.096 204.207 92.132 203.943 92.132C203.375 92.132 202.963 92 202.707 91.736C202.459 91.472 202.335 91.076 202.335 90.548V87.056H201.675C201.547 87.056 201.443 87.02 201.363 86.948C201.291 86.868 201.255 86.764 201.255 86.636V86.504C201.255 86.368 201.291 86.264 201.363 86.192C201.443 86.12 201.547 86.084 201.675 86.084H202.335V84.596C202.335 84.46 202.371 84.356 202.443 84.284C202.523 84.212 202.627 84.176 202.755 84.176H203.187C203.323 84.176 203.427 84.212 203.499 84.284C203.571 84.356 203.607 84.46 203.607 84.596V86.084H204.687C204.823 86.084 204.927 86.12 204.999 86.192C205.071 86.264 205.107 86.368 205.107 86.504V86.636C205.107 86.764 205.071 86.868 204.999 86.948C204.927 87.02 204.823 87.056 204.687 87.056H203.607V90.392C203.607 90.624 203.655 90.788 203.751 90.884C203.855 90.98 204.019 91.028 204.243 91.028C204.339 91.028 204.471 91.016 204.639 90.992ZM209.033 90.992C209.057 90.984 209.093 90.98 209.141 90.98C209.341 90.98 209.461 91.096 209.501 91.328L209.537 91.52C209.545 91.544 209.549 91.584 209.549 91.64C209.549 91.84 209.437 91.968 209.213 92.024C208.893 92.096 208.601 92.132 208.337 92.132C207.769 92.132 207.357 92 207.101 91.736C206.853 91.472 206.729 91.076 206.729 90.548V87.056H206.069C205.941 87.056 205.837 87.02 205.757 86.948C205.685 86.868 205.649 86.764 205.649 86.636V86.504C205.649 86.368 205.685 86.264 205.757 86.192C205.837 86.12 205.941 86.084 206.069 86.084H206.729V84.596C206.729 84.46 206.765 84.356 206.837 84.284C206.917 84.212 207.021 84.176 207.149 84.176H207.581C207.717 84.176 207.821 84.212 207.893 84.284C207.965 84.356 208.001 84.46 208.001 84.596V86.084H209.081C209.217 86.084 209.321 86.12 209.393 86.192C209.465 86.264 209.501 86.368 209.501 86.504V86.636C209.501 86.764 209.465 86.868 209.393 86.948C209.321 87.02 209.217 87.056 209.081 87.056H208.001V90.392C208.001 90.624 208.049 90.788 208.145 90.884C208.249 90.98 208.413 91.028 208.637 91.028C208.733 91.028 208.865 91.016 209.033 90.992ZM211.196 84.932C210.964 84.932 210.768 84.856 210.608 84.704C210.448 84.544 210.368 84.356 210.368 84.14C210.368 83.916 210.448 83.728 210.608 83.576C210.768 83.424 210.964 83.348 211.196 83.348C211.428 83.348 211.624 83.424 211.784 83.576C211.944 83.728 212.024 83.916 212.024 84.14C212.024 84.356 211.944 84.544 211.784 84.704C211.624 84.856 211.428 84.932 211.196 84.932ZM210.968 92C210.84 92 210.736 91.964 210.656 91.892C210.584 91.812 210.548 91.708 210.548 91.58V86.504C210.548 86.368 210.584 86.264 210.656 86.192C210.736 86.12 210.84 86.084 210.968 86.084H211.4C211.536 86.084 211.64 86.12 211.712 86.192C211.784 86.264 211.82 86.368 211.82 86.504V91.58C211.82 91.708 211.784 91.812 211.712 91.892C211.64 91.964 211.536 92 211.4 92H210.968ZM216.303 85.904C216.983 85.904 217.503 86.096 217.863 86.48C218.231 86.856 218.415 87.344 218.415 87.944V91.58C218.415 91.708 218.379 91.812 218.307 91.892C218.235 91.964 218.131 92 217.995 92H217.563C217.435 92 217.331 91.964 217.251 91.892C217.179 91.812 217.143 91.708 217.143 91.58V88.34C217.143 87.908 217.035 87.576 216.819 87.344C216.611 87.112 216.311 86.996 215.919 86.996C215.535 86.996 215.211 87.128 214.947 87.392C214.691 87.656 214.563 87.988 214.563 88.388V91.58C214.563 91.708 214.527 91.812 214.455 91.892C214.383 91.964 214.279 92 214.143 92H213.711C213.583 92 213.479 91.964 213.399 91.892C213.327 91.812 213.291 91.708 213.291 91.58V86.504C213.291 86.368 213.327 86.264 213.399 86.192C213.479 86.12 213.583 86.084 213.711 86.084H214.059C214.195 86.084 214.299 86.12 214.371 86.192C214.443 86.264 214.479 86.368 214.479 86.504V86.816C214.671 86.52 214.923 86.296 215.235 86.144C215.547 85.984 215.903 85.904 216.303 85.904ZM224.041 86.468C224.041 86.348 224.077 86.256 224.149 86.192C224.229 86.12 224.333 86.084 224.461 86.084H224.797C224.933 86.084 225.037 86.12 225.109 86.192C225.181 86.264 225.217 86.368 225.217 86.504V91.784C225.217 92.576 224.961 93.192 224.449 93.632C223.945 94.072 223.273 94.292 222.433 94.292C221.593 94.292 220.801 94.076 220.057 93.644C219.905 93.564 219.829 93.456 219.829 93.32C219.829 93.248 219.861 93.16 219.925 93.056L220.081 92.828C220.169 92.692 220.277 92.624 220.405 92.624C220.493 92.624 220.581 92.652 220.669 92.708C220.989 92.892 221.285 93.024 221.557 93.104C221.829 93.192 222.117 93.236 222.421 93.236C222.885 93.236 223.257 93.108 223.537 92.852C223.825 92.604 223.969 92.212 223.969 91.676V91.04C223.569 91.608 222.969 91.892 222.169 91.892C221.673 91.892 221.225 91.768 220.825 91.52C220.433 91.264 220.125 90.912 219.901 90.464C219.685 90.008 219.577 89.488 219.577 88.904C219.577 88.32 219.685 87.804 219.901 87.356C220.125 86.9 220.433 86.544 220.825 86.288C221.225 86.032 221.673 85.904 222.169 85.904C223.017 85.904 223.641 86.22 224.041 86.852V86.468ZM222.421 90.824C222.885 90.824 223.265 90.648 223.561 90.296C223.857 89.936 224.005 89.472 224.005 88.904C224.005 88.344 223.857 87.888 223.561 87.536C223.273 87.176 222.893 86.996 222.421 86.996C221.941 86.996 221.561 87.172 221.281 87.524C221.001 87.876 220.861 88.336 220.861 88.904C220.861 89.48 221.001 89.944 221.281 90.296C221.561 90.648 221.941 90.824 222.421 90.824ZM228.965 92.18C228.477 92.18 228.041 92.12 227.657 92C227.281 91.872 226.897 91.652 226.505 91.34C226.385 91.252 226.325 91.152 226.325 91.04C226.325 90.952 226.369 90.856 226.457 90.752L226.637 90.548C226.733 90.436 226.837 90.38 226.949 90.38C227.037 90.38 227.133 90.42 227.237 90.5C227.573 90.748 227.869 90.92 228.125 91.016C228.381 91.104 228.669 91.148 228.989 91.148C229.333 91.148 229.613 91.08 229.829 90.944C230.053 90.8 230.165 90.608 230.165 90.368C230.165 90.184 230.101 90.04 229.973 89.936C229.853 89.824 229.693 89.74 229.493 89.684C229.293 89.62 228.997 89.548 228.605 89.468C228.053 89.348 227.621 89.22 227.309 89.084C227.005 88.94 226.785 88.76 226.649 88.544C226.513 88.328 226.445 88.052 226.445 87.716C226.445 87.372 226.541 87.064 226.733 86.792C226.933 86.52 227.209 86.304 227.561 86.144C227.921 85.984 228.341 85.904 228.821 85.904C229.253 85.904 229.637 85.952 229.973 86.048C230.317 86.144 230.653 86.308 230.981 86.54C231.109 86.636 231.173 86.744 231.173 86.864C231.173 86.944 231.133 87.036 231.053 87.14L230.897 87.332C230.809 87.444 230.701 87.5 230.573 87.5C230.477 87.5 230.385 87.468 230.297 87.404C230.033 87.228 229.789 87.108 229.565 87.044C229.341 86.972 229.089 86.936 228.809 86.936C228.465 86.936 228.189 87.004 227.981 87.14C227.773 87.276 227.669 87.452 227.669 87.668C227.669 87.812 227.717 87.928 227.813 88.016C227.917 88.096 228.061 88.168 228.245 88.232C228.437 88.288 228.737 88.36 229.145 88.448C229.697 88.568 230.133 88.704 230.453 88.856C230.781 89 231.021 89.188 231.173 89.42C231.333 89.644 231.413 89.936 231.413 90.296C231.413 90.856 231.189 91.312 230.741 91.664C230.301 92.008 229.709 92.18 228.965 92.18Z" fill="#474445"/>
<rect x="155.5" y="72.5" width="84" height="31" rx="3.5" stroke="#C3CCD9"/>
<path d="M38.852 43.72C38.852 43.56 38.932 43.48 39.092 43.48H39.44C39.6 43.48 39.68 43.56 39.68 43.72V51.76C39.68 51.92 39.6 52 39.44 52H38.9C38.772 52 38.672 51.948 38.6 51.844L36.02 47.932L35.876 47.704C34.916 46.264 34.228 45.204 33.812 44.524C33.844 45.46 33.86 46.54 33.86 47.764V51.76C33.86 51.92 33.78 52 33.62 52H33.272C33.112 52 33.032 51.92 33.032 51.76V43.72C33.032 43.56 33.112 43.48 33.272 43.48H33.812C33.94 43.48 34.04 43.532 34.112 43.636L36.68 47.536L37.136 48.244C37.944 49.468 38.532 50.38 38.9 50.98C38.868 50.028 38.852 48.944 38.852 47.728V43.72ZM44.043 52.156C43.491 52.156 42.999 52.024 42.567 51.76C42.135 51.496 41.799 51.132 41.559 50.668C41.319 50.196 41.199 49.656 41.199 49.048C41.199 48.44 41.319 47.904 41.559 47.44C41.799 46.968 42.135 46.6 42.567 46.336C42.999 46.072 43.491 45.94 44.043 45.94C44.595 45.94 45.087 46.072 45.519 46.336C45.951 46.6 46.287 46.968 46.527 47.44C46.767 47.904 46.887 48.44 46.887 49.048C46.887 49.656 46.767 50.196 46.527 50.668C46.287 51.132 45.951 51.496 45.519 51.76C45.087 52.024 44.595 52.156 44.043 52.156ZM44.043 51.496C44.659 51.496 45.151 51.272 45.519 50.824C45.887 50.368 46.071 49.776 46.071 49.048C46.071 48.32 45.887 47.732 45.519 47.284C45.151 46.828 44.659 46.6 44.043 46.6C43.427 46.6 42.935 46.828 42.567 47.284C42.199 47.732 42.015 48.32 42.015 49.048C42.015 49.776 42.199 50.368 42.567 50.824C42.935 51.272 43.427 51.496 44.043 51.496ZM50.7512 51.34C50.7752 51.332 50.8072 51.328 50.8472 51.328C50.8952 51.328 50.9392 51.344 50.9792 51.376C51.0192 51.408 51.0432 51.452 51.0512 51.508L51.0872 51.676C51.0952 51.692 51.0992 51.72 51.0992 51.76C51.0992 51.872 51.0392 51.94 50.9192 51.964C50.6312 52.052 50.3232 52.096 49.9952 52.096C49.4752 52.096 49.1032 51.98 48.8792 51.748C48.6632 51.508 48.5552 51.164 48.5552 50.716V46.684H47.6672C47.5072 46.684 47.4272 46.604 47.4272 46.444V46.324C47.4272 46.164 47.5072 46.084 47.6672 46.084H48.5552V44.26C48.5552 44.1 48.6352 44.02 48.7952 44.02H49.1072C49.2672 44.02 49.3472 44.1 49.3472 44.26V46.084H50.7872C50.9472 46.084 51.0272 46.164 51.0272 46.324V46.444C51.0272 46.604 50.9472 46.684 50.7872 46.684H49.3472V50.62C49.3472 50.916 49.4032 51.124 49.5152 51.244C49.6272 51.364 49.8192 51.424 50.0912 51.424C50.2832 51.424 50.5032 51.396 50.7512 51.34ZM55.4333 44.584C55.2733 44.584 55.1373 44.528 55.0253 44.416C54.9213 44.304 54.8693 44.168 54.8693 44.008C54.8693 43.848 54.9213 43.716 55.0253 43.612C55.1373 43.508 55.2733 43.456 55.4333 43.456C55.6013 43.456 55.7373 43.508 55.8413 43.612C55.9533 43.716 56.0093 43.848 56.0093 44.008C56.0093 44.168 55.9533 44.304 55.8413 44.416C55.7373 44.528 55.6013 44.584 55.4333 44.584ZM54.2333 54.352C53.9693 54.352 53.6733 54.316 53.3453 54.244C53.2013 54.196 53.1493 54.096 53.1893 53.944L53.2373 53.776C53.2533 53.704 53.2893 53.652 53.3453 53.62C53.3933 53.596 53.4533 53.592 53.5253 53.608C53.7573 53.664 53.9813 53.692 54.1973 53.692C54.5093 53.692 54.7253 53.596 54.8453 53.404C54.9733 53.22 55.0373 52.936 55.0373 52.552V46.324C55.0373 46.164 55.1173 46.084 55.2773 46.084H55.5893C55.7493 46.084 55.8293 46.164 55.8293 46.324V52.576C55.8293 53.144 55.6973 53.58 55.4333 53.884C55.1773 54.196 54.7773 54.352 54.2333 54.352ZM61.4311 46.324C61.4311 46.164 61.5111 46.084 61.6711 46.084H61.9831C62.1431 46.084 62.2231 46.164 62.2231 46.324V51.76C62.2231 51.92 62.1431 52 61.9831 52H61.7311C61.5711 52 61.4911 51.92 61.4911 51.76V51.22C61.3151 51.532 61.0631 51.768 60.7351 51.928C60.4151 52.08 60.0631 52.156 59.6791 52.156C58.9591 52.156 58.4271 51.976 58.0831 51.616C57.7391 51.248 57.5671 50.776 57.5671 50.2V46.324C57.5671 46.164 57.6471 46.084 57.8071 46.084H58.1191C58.2791 46.084 58.3591 46.164 58.3591 46.324V50.032C58.3591 50.504 58.4751 50.864 58.7071 51.112C58.9471 51.352 59.2871 51.472 59.7271 51.472C60.2231 51.472 60.6311 51.32 60.9511 51.016C61.2711 50.712 61.4311 50.28 61.4311 49.72V46.324ZM66.0653 52.156C65.5773 52.156 65.1453 52.088 64.7693 51.952C64.4013 51.808 64.0133 51.568 63.6053 51.232C63.5333 51.184 63.4973 51.128 63.4973 51.064C63.4973 51.008 63.5253 50.952 63.5813 50.896L63.7373 50.728C63.7853 50.664 63.8453 50.632 63.9173 50.632C63.9733 50.632 64.0253 50.656 64.0733 50.704C64.4573 51 64.7973 51.208 65.0933 51.328C65.3893 51.44 65.7133 51.496 66.0653 51.496C66.5053 51.496 66.8653 51.4 67.1453 51.208C67.4253 51.008 67.5653 50.74 67.5653 50.404C67.5653 50.068 67.4213 49.82 67.1333 49.66C66.8453 49.5 66.4013 49.356 65.8013 49.228C65.2733 49.116 64.8573 49 64.5533 48.88C64.2573 48.752 64.0373 48.592 63.8933 48.4C63.7493 48.208 63.6773 47.956 63.6773 47.644C63.6773 47.132 63.8853 46.72 64.3013 46.408C64.7173 46.096 65.2413 45.94 65.8733 45.94C66.3053 45.94 66.6893 45.996 67.0253 46.108C67.3693 46.212 67.7133 46.388 68.0573 46.636C68.1293 46.692 68.1653 46.752 68.1653 46.816C68.1653 46.856 68.1453 46.908 68.1053 46.972L67.9613 47.152C67.9213 47.216 67.8653 47.248 67.7933 47.248C67.7293 47.248 67.6733 47.228 67.6253 47.188C67.2973 46.956 67.0053 46.8 66.7493 46.72C66.5013 46.64 66.2173 46.6 65.8973 46.6C65.4573 46.6 65.1053 46.696 64.8413 46.888C64.5773 47.08 64.4453 47.324 64.4453 47.62C64.4453 47.804 64.5053 47.952 64.6253 48.064C64.7453 48.176 64.9173 48.272 65.1413 48.352C65.3653 48.424 65.6933 48.508 66.1253 48.604C66.9253 48.78 67.4933 48.996 67.8293 49.252C68.1733 49.508 68.3453 49.88 68.3453 50.368C68.3453 50.904 68.1333 51.336 67.7093 51.664C67.2853 51.992 66.7373 52.156 66.0653 52.156ZM72.3254 51.34C72.3494 51.332 72.3814 51.328 72.4214 51.328C72.4694 51.328 72.5134 51.344 72.5534 51.376C72.5934 51.408 72.6174 51.452 72.6254 51.508L72.6614 51.676C72.6694 51.692 72.6734 51.72 72.6734 51.76C72.6734 51.872 72.6134 51.94 72.4934 51.964C72.2054 52.052 71.8974 52.096 71.5694 52.096C71.0494 52.096 70.6774 51.98 70.4534 51.748C70.2374 51.508 70.1294 51.164 70.1294 50.716V46.684H69.2414C69.0814 46.684 69.0014 46.604 69.0014 46.444V46.324C69.0014 46.164 69.0814 46.084 69.2414 46.084H70.1294V44.26C70.1294 44.1 70.2094 44.02 70.3694 44.02H70.6814C70.8414 44.02 70.9214 44.1 70.9214 44.26V46.084H72.3614C72.5214 46.084 72.6014 46.164 72.6014 46.324V46.444C72.6014 46.604 72.5214 46.684 72.3614 46.684H70.9214V50.62C70.9214 50.916 70.9774 51.124 71.0894 51.244C71.2014 51.364 71.3934 51.424 71.6654 51.424C71.8574 51.424 72.0774 51.396 72.3254 51.34ZM74.2059 44.584C74.0459 44.584 73.9099 44.528 73.7979 44.416C73.6939 44.304 73.6419 44.168 73.6419 44.008C73.6419 43.848 73.6939 43.716 73.7979 43.612C73.9099 43.508 74.0459 43.456 74.2059 43.456C74.3739 43.456 74.5099 43.508 74.6139 43.612C74.7259 43.716 74.7819 43.848 74.7819 44.008C74.7819 44.168 74.7259 44.304 74.6139 44.416C74.5099 44.528 74.3739 44.584 74.2059 44.584ZM74.0499 52C73.8899 52 73.8099 51.92 73.8099 51.76V46.324C73.8099 46.164 73.8899 46.084 74.0499 46.084H74.3619C74.5219 46.084 74.6019 46.164 74.6019 46.324V51.76C74.6019 51.92 74.5219 52 74.3619 52H74.0499ZM78.6206 43.996C78.2606 43.996 78.0046 44.092 77.8526 44.284C77.7006 44.468 77.6246 44.78 77.6246 45.22V46.084H78.9446C79.1046 46.084 79.1846 46.164 79.1846 46.324V46.444C79.1846 46.604 79.1046 46.684 78.9446 46.684H77.6246V51.76C77.6246 51.92 77.5446 52 77.3846 52H77.0726C76.9126 52 76.8326 51.92 76.8326 51.76V46.684H75.9446C75.7846 46.684 75.7046 46.604 75.7046 46.444V46.324C75.7046 46.164 75.7846 46.084 75.9446 46.084H76.8326V45.088C76.8326 44.536 76.9766 44.104 77.2646 43.792C77.5606 43.48 77.9806 43.324 78.5246 43.324C78.8286 43.324 79.1406 43.368 79.4606 43.456C79.6126 43.504 79.6686 43.604 79.6286 43.756L79.5806 43.924C79.5406 44.036 79.4606 44.092 79.3406 44.092C79.3166 44.092 79.2646 44.084 79.1846 44.068C79.0086 44.02 78.8206 43.996 78.6206 43.996ZM80.7449 44.584C80.5849 44.584 80.4489 44.528 80.3369 44.416C80.2329 44.304 80.1809 44.168 80.1809 44.008C80.1809 43.848 80.2329 43.716 80.3369 43.612C80.4489 43.508 80.5849 43.456 80.7449 43.456C80.9129 43.456 81.0489 43.508 81.1529 43.612C81.2649 43.716 81.3209 43.848 81.3209 44.008C81.3209 44.168 81.2649 44.304 81.1529 44.416C81.0489 44.528 80.9129 44.584 80.7449 44.584ZM80.5889 52C80.4289 52 80.3489 51.92 80.3489 51.76V46.324C80.3489 46.164 80.4289 46.084 80.5889 46.084H80.9009C81.0609 46.084 81.1409 46.164 81.1409 46.324V51.76C81.1409 51.92 81.0609 52 80.9009 52H80.5889ZM87.2116 50.596C87.2676 50.54 87.3276 50.512 87.3916 50.512C87.4476 50.512 87.4996 50.536 87.5476 50.584L87.7036 50.728C87.7596 50.784 87.7876 50.844 87.7876 50.908C87.7876 50.956 87.7636 51.012 87.7156 51.076C87.3236 51.468 86.9436 51.748 86.5756 51.916C86.2076 52.076 85.7956 52.156 85.3396 52.156C84.7636 52.156 84.2636 52.028 83.8396 51.772C83.4156 51.516 83.0876 51.16 82.8556 50.704C82.6236 50.24 82.5076 49.704 82.5076 49.096C82.5076 48.48 82.6196 47.936 82.8436 47.464C83.0756 46.984 83.3996 46.612 83.8156 46.348C84.2316 46.076 84.7116 45.94 85.2556 45.94C86.0636 45.94 86.6996 46.192 87.1636 46.696C87.6276 47.2 87.8596 47.88 87.8596 48.736V48.88C87.8516 48.952 87.8236 49.008 87.7756 49.048C87.7356 49.088 87.6796 49.108 87.6076 49.108H83.3116C83.3356 49.78 83.5116 50.348 83.8396 50.812C84.1756 51.268 84.6756 51.496 85.3396 51.496C85.6996 51.496 86.0156 51.432 86.2876 51.304C86.5676 51.168 86.8756 50.932 87.2116 50.596ZM85.2556 46.6C84.7276 46.6 84.2916 46.764 83.9476 47.092C83.6116 47.412 83.4076 47.884 83.3356 48.508H87.0676C87.0516 47.924 86.8836 47.46 86.5636 47.116C86.2436 46.772 85.8076 46.6 85.2556 46.6ZM93.5623 43.72C93.5623 43.56 93.6423 43.48 93.8023 43.48H94.1143C94.2743 43.48 94.3543 43.56 94.3543 43.72V51.76C94.3543 51.92 94.2743 52 94.1143 52H93.8623C93.7023 52 93.6223 51.92 93.6223 51.76V50.98C93.4063 51.356 93.1223 51.644 92.7703 51.844C92.4183 52.044 92.0023 52.144 91.5223 52.144C91.0183 52.144 90.5703 52.016 90.1783 51.76C89.7863 51.496 89.4783 51.132 89.2543 50.668C89.0303 50.196 88.9183 49.656 88.9183 49.048C88.9183 48.44 89.0303 47.904 89.2543 47.44C89.4863 46.968 89.8023 46.604 90.2023 46.348C90.6023 46.084 91.0503 45.952 91.5463 45.952C92.4583 45.952 93.1303 46.292 93.5623 46.972V43.72ZM91.5823 51.472C92.1823 51.472 92.6663 51.26 93.0343 50.836C93.4103 50.404 93.5983 49.808 93.5983 49.048C93.5983 48.296 93.4103 47.704 93.0343 47.272C92.6663 46.84 92.1823 46.624 91.5823 46.624C91.0303 46.624 90.5823 46.848 90.2383 47.296C89.9023 47.744 89.7343 48.328 89.7343 49.048C89.7343 49.776 89.9023 50.364 90.2383 50.812C90.5743 51.252 91.0223 51.472 91.5823 51.472Z" fill="#767676"/>
<path d="M34.316 200.132C33.692 200.132 33.052 199.968 32.396 199.64C32.3 199.592 32.252 199.528 32.252 199.448C32.252 199.408 32.264 199.364 32.288 199.316L32.408 199.1C32.456 199.004 32.52 198.956 32.6 198.956C32.64 198.956 32.684 198.968 32.732 198.992C33.028 199.12 33.3 199.22 33.548 199.292C33.804 199.364 34.06 199.4 34.316 199.4C34.748 199.4 35.08 199.268 35.312 199.004C35.544 198.74 35.66 198.336 35.66 197.792V191.72C35.66 191.56 35.74 191.48 35.9 191.48H36.272C36.432 191.48 36.512 191.56 36.512 191.72V197.852C36.512 198.612 36.332 199.184 35.972 199.568C35.612 199.944 35.06 200.132 34.316 200.132ZM42.2124 194.324C42.2124 194.164 42.2924 194.084 42.4524 194.084H42.7644C42.9244 194.084 43.0044 194.164 43.0044 194.324V199.76C43.0044 199.92 42.9244 200 42.7644 200H42.5124C42.3524 200 42.2724 199.92 42.2724 199.76V199.22C42.0964 199.532 41.8444 199.768 41.5164 199.928C41.1964 200.08 40.8444 200.156 40.4604 200.156C39.7404 200.156 39.2084 199.976 38.8644 199.616C38.5204 199.248 38.3484 198.776 38.3484 198.2V194.324C38.3484 194.164 38.4284 194.084 38.5884 194.084H38.9004C39.0604 194.084 39.1404 194.164 39.1404 194.324V198.032C39.1404 198.504 39.2564 198.864 39.4884 199.112C39.7284 199.352 40.0684 199.472 40.5084 199.472C41.0044 199.472 41.4124 199.32 41.7324 199.016C42.0524 198.712 42.2124 198.28 42.2124 197.72V194.324ZM46.8465 200.156C46.3585 200.156 45.9265 200.088 45.5505 199.952C45.1825 199.808 44.7945 199.568 44.3865 199.232C44.3145 199.184 44.2785 199.128 44.2785 199.064C44.2785 199.008 44.3065 198.952 44.3625 198.896L44.5185 198.728C44.5665 198.664 44.6265 198.632 44.6985 198.632C44.7545 198.632 44.8065 198.656 44.8545 198.704C45.2385 199 45.5785 199.208 45.8745 199.328C46.1705 199.44 46.4945 199.496 46.8465 199.496C47.2865 199.496 47.6465 199.4 47.9265 199.208C48.2065 199.008 48.3465 198.74 48.3465 198.404C48.3465 198.068 48.2025 197.82 47.9145 197.66C47.6265 197.5 47.1825 197.356 46.5825 197.228C46.0545 197.116 45.6385 197 45.3345 196.88C45.0385 196.752 44.8185 196.592 44.6745 196.4C44.5305 196.208 44.4585 195.956 44.4585 195.644C44.4585 195.132 44.6665 194.72 45.0825 194.408C45.4985 194.096 46.0225 193.94 46.6545 193.94C47.0865 193.94 47.4705 193.996 47.8065 194.108C48.1505 194.212 48.4945 194.388 48.8385 194.636C48.9105 194.692 48.9465 194.752 48.9465 194.816C48.9465 194.856 48.9265 194.908 48.8865 194.972L48.7425 195.152C48.7025 195.216 48.6465 195.248 48.5745 195.248C48.5105 195.248 48.4545 195.228 48.4065 195.188C48.0785 194.956 47.7865 194.8 47.5305 194.72C47.2825 194.64 46.9985 194.6 46.6785 194.6C46.2385 194.6 45.8865 194.696 45.6225 194.888C45.3585 195.08 45.2265 195.324 45.2265 195.62C45.2265 195.804 45.2865 195.952 45.4065 196.064C45.5265 196.176 45.6985 196.272 45.9225 196.352C46.1465 196.424 46.4745 196.508 46.9065 196.604C47.7065 196.78 48.2745 196.996 48.6105 197.252C48.9545 197.508 49.1265 197.88 49.1265 198.368C49.1265 198.904 48.9145 199.336 48.4905 199.664C48.0665 199.992 47.5185 200.156 46.8465 200.156ZM53.1067 199.34C53.1307 199.332 53.1627 199.328 53.2027 199.328C53.2507 199.328 53.2947 199.344 53.3347 199.376C53.3747 199.408 53.3987 199.452 53.4067 199.508L53.4427 199.676C53.4507 199.692 53.4547 199.72 53.4547 199.76C53.4547 199.872 53.3947 199.94 53.2747 199.964C52.9867 200.052 52.6787 200.096 52.3507 200.096C51.8307 200.096 51.4587 199.98 51.2347 199.748C51.0187 199.508 50.9107 199.164 50.9107 198.716V194.684H50.0227C49.8627 194.684 49.7827 194.604 49.7827 194.444V194.324C49.7827 194.164 49.8627 194.084 50.0227 194.084H50.9107V192.26C50.9107 192.1 50.9907 192.02 51.1507 192.02H51.4627C51.6227 192.02 51.7027 192.1 51.7027 192.26V194.084H53.1427C53.3027 194.084 53.3827 194.164 53.3827 194.324V194.444C53.3827 194.604 53.3027 194.684 53.1427 194.684H51.7027V198.62C51.7027 198.916 51.7587 199.124 51.8707 199.244C51.9827 199.364 52.1747 199.424 52.4467 199.424C52.6387 199.424 52.8587 199.396 53.1067 199.34ZM54.9871 192.584C54.8271 192.584 54.6911 192.528 54.5791 192.416C54.4751 192.304 54.4231 192.168 54.4231 192.008C54.4231 191.848 54.4751 191.716 54.5791 191.612C54.6911 191.508 54.8271 191.456 54.9871 191.456C55.1551 191.456 55.2911 191.508 55.3951 191.612C55.5071 191.716 55.5631 191.848 55.5631 192.008C55.5631 192.168 55.5071 192.304 55.3951 192.416C55.2911 192.528 55.1551 192.584 54.9871 192.584ZM54.8311 200C54.6711 200 54.5911 199.92 54.5911 199.76V194.324C54.5911 194.164 54.6711 194.084 54.8311 194.084H55.1431C55.3031 194.084 55.3831 194.164 55.3831 194.324V199.76C55.3831 199.92 55.3031 200 55.1431 200H54.8311ZM59.4018 191.996C59.0418 191.996 58.7858 192.092 58.6338 192.284C58.4818 192.468 58.4058 192.78 58.4058 193.22V194.084H59.7258C59.8858 194.084 59.9658 194.164 59.9658 194.324V194.444C59.9658 194.604 59.8858 194.684 59.7258 194.684H58.4058V199.76C58.4058 199.92 58.3258 200 58.1658 200H57.8538C57.6938 200 57.6138 199.92 57.6138 199.76V194.684H56.7258C56.5658 194.684 56.4858 194.604 56.4858 194.444V194.324C56.4858 194.164 56.5658 194.084 56.7258 194.084H57.6138V193.088C57.6138 192.536 57.7578 192.104 58.0458 191.792C58.3418 191.48 58.7618 191.324 59.3058 191.324C59.6098 191.324 59.9218 191.368 60.2418 191.456C60.3938 191.504 60.4498 191.604 60.4098 191.756L60.3618 191.924C60.3218 192.036 60.2418 192.092 60.1218 192.092C60.0978 192.092 60.0458 192.084 59.9658 192.068C59.7898 192.02 59.6018 191.996 59.4018 191.996ZM61.5262 192.584C61.3662 192.584 61.2302 192.528 61.1182 192.416C61.0142 192.304 60.9622 192.168 60.9622 192.008C60.9622 191.848 61.0142 191.716 61.1182 191.612C61.2302 191.508 61.3662 191.456 61.5262 191.456C61.6942 191.456 61.8302 191.508 61.9342 191.612C62.0462 191.716 62.1022 191.848 62.1022 192.008C62.1022 192.168 62.0462 192.304 61.9342 192.416C61.8302 192.528 61.6942 192.584 61.5262 192.584ZM61.3702 200C61.2102 200 61.1302 199.92 61.1302 199.76V194.324C61.1302 194.164 61.2102 194.084 61.3702 194.084H61.6822C61.8422 194.084 61.9222 194.164 61.9222 194.324V199.76C61.9222 199.92 61.8422 200 61.6822 200H61.3702ZM67.9929 198.596C68.0489 198.54 68.1089 198.512 68.1729 198.512C68.2289 198.512 68.2809 198.536 68.3289 198.584L68.4849 198.728C68.5409 198.784 68.5689 198.844 68.5689 198.908C68.5689 198.956 68.5449 199.012 68.4969 199.076C68.1049 199.468 67.7249 199.748 67.3569 199.916C66.9889 200.076 66.5769 200.156 66.1209 200.156C65.5449 200.156 65.0449 200.028 64.6209 199.772C64.1969 199.516 63.8689 199.16 63.6369 198.704C63.4049 198.24 63.2889 197.704 63.2889 197.096C63.2889 196.48 63.4009 195.936 63.6249 195.464C63.8569 194.984 64.1809 194.612 64.5969 194.348C65.0129 194.076 65.4929 193.94 66.0369 193.94C66.8449 193.94 67.4809 194.192 67.9449 194.696C68.4089 195.2 68.6409 195.88 68.6409 196.736V196.88C68.6329 196.952 68.6049 197.008 68.5569 197.048C68.5169 197.088 68.4609 197.108 68.3889 197.108H64.0929C64.1169 197.78 64.2929 198.348 64.6209 198.812C64.9569 199.268 65.4569 199.496 66.1209 199.496C66.4809 199.496 66.7969 199.432 67.0689 199.304C67.3489 199.168 67.6569 198.932 67.9929 198.596ZM66.0369 194.6C65.5089 194.6 65.0729 194.764 64.7289 195.092C64.3929 195.412 64.1889 195.884 64.1169 196.508H67.8489C67.8329 195.924 67.6649 195.46 67.3449 195.116C67.0249 194.772 66.5889 194.6 66.0369 194.6ZM74.3436 191.72C74.3436 191.56 74.4236 191.48 74.5836 191.48H74.8956C75.0556 191.48 75.1356 191.56 75.1356 191.72V199.76C75.1356 199.92 75.0556 200 74.8956 200H74.6436C74.4836 200 74.4036 199.92 74.4036 199.76V198.98C74.1876 199.356 73.9036 199.644 73.5516 199.844C73.1996 200.044 72.7836 200.144 72.3036 200.144C71.7996 200.144 71.3516 200.016 70.9596 199.76C70.5676 199.496 70.2596 199.132 70.0356 198.668C69.8116 198.196 69.6996 197.656 69.6996 197.048C69.6996 196.44 69.8116 195.904 70.0356 195.44C70.2676 194.968 70.5836 194.604 70.9836 194.348C71.3836 194.084 71.8316 193.952 72.3276 193.952C73.2396 193.952 73.9116 194.292 74.3436 194.972V191.72ZM72.3636 199.472C72.9636 199.472 73.4476 199.26 73.8156 198.836C74.1916 198.404 74.3796 197.808 74.3796 197.048C74.3796 196.296 74.1916 195.704 73.8156 195.272C73.4476 194.84 72.9636 194.624 72.3636 194.624C71.8116 194.624 71.3636 194.848 71.0196 195.296C70.6836 195.744 70.5156 196.328 70.5156 197.048C70.5156 197.776 70.6836 198.364 71.0196 198.812C71.3556 199.252 71.8036 199.472 72.3636 199.472Z" fill="#767676"/>
<defs>
<filter id="filter0_i_665_10555" x="32" y="266" width="140" height="32" filterUnits="userSpaceOnUse" color-interpolation-filters="sRGB">
<feFlood flood-opacity="0" result="BackgroundImageFix"/>
<feBlend mode="normal" in="SourceGraphic" in2="BackgroundImageFix" result="shape"/>
<feColorMatrix in="SourceAlpha" type="matrix" values="0 0 0 0 0 0 0 0 0 0 0 0 0 0 0 0 0 0 127 0" result="hardAlpha"/>
<feOffset dx="-1"/>
<feComposite in2="hardAlpha" operator="arithmetic" k2="-1" k3="1"/>
<feColorMatrix type="matrix" values="0 0 0 0 0.764706 0 0 0 0 0.8 0 0 0 0 0.85098 0 0 0 1 0"/>
<feBlend mode="normal" in2="shape" result="effect1_innerShadow_665_10555"/>
</filter>
</defs>
</svg>
