<svg width="344" height="128" viewBox="0 0 344 128" fill="none" xmlns="http://www.w3.org/2000/svg">
<rect x="124" y="41" width="96" height="46" rx="7" fill="#C3CCD9"/>
<path d="M154 60L149 60C147.895 60 147 60.8954 147 62L147 64.6667" stroke="white" stroke-width="1.5" stroke-linecap="round" stroke-linejoin="round"/>
<path d="M151.54 57.0477L154 60L151.54 62.9522" stroke="white" stroke-width="1.5" stroke-linecap="round" stroke-linejoin="round"/>
<path d="M154 65V69C154 70.1046 153.105 71 152 71H142C140.895 71 140 70.1046 140 69V59C140 57.8954 140.895 57 142 57H145" stroke="white" stroke-width="1.5" stroke-linecap="round" stroke-linejoin="round"/>
<path d="M168.232 69.256C167.357 69.256 166.573 69.1333 165.88 68.888C165.197 68.632 164.493 68.2053 163.768 67.608C163.619 67.4907 163.544 67.352 163.544 67.192C163.544 67.0533 163.597 66.9253 163.704 66.808L164.072 66.376C164.189 66.2267 164.323 66.152 164.472 66.152C164.589 66.152 164.723 66.2107 164.872 66.328C165.512 66.84 166.083 67.192 166.584 67.384C167.096 67.576 167.656 67.672 168.264 67.672C169 67.672 169.597 67.5067 170.056 67.176C170.515 66.8347 170.744 66.3707 170.744 65.784C170.744 65.4 170.627 65.1013 170.392 64.888C170.157 64.664 169.853 64.4933 169.48 64.376C169.117 64.2587 168.525 64.104 167.704 63.912C166.712 63.6773 165.939 63.4213 165.384 63.144C164.829 62.8667 164.429 62.536 164.184 62.152C163.949 61.7573 163.832 61.2613 163.832 60.664C163.832 60.0347 164.013 59.4693 164.376 58.968C164.739 58.4667 165.235 58.0773 165.864 57.8C166.504 57.5227 167.219 57.384 168.008 57.384C168.808 57.384 169.512 57.4907 170.12 57.704C170.739 57.9173 171.357 58.264 171.976 58.744C172.136 58.872 172.216 59.0053 172.216 59.144C172.216 59.2613 172.163 59.3893 172.056 59.528L171.704 59.944C171.576 60.0933 171.443 60.168 171.304 60.168C171.176 60.168 171.043 60.1147 170.904 60.008C170.392 59.6133 169.917 59.3413 169.48 59.192C169.043 59.0427 168.547 58.968 167.992 58.968C167.288 58.968 166.717 59.1227 166.28 59.432C165.843 59.7413 165.624 60.1307 165.624 60.6C165.624 60.9413 165.725 61.2133 165.928 61.416C166.131 61.6187 166.424 61.784 166.808 61.912C167.192 62.04 167.784 62.1947 168.584 62.376C169.555 62.6107 170.323 62.8613 170.888 63.128C171.453 63.384 171.875 63.7147 172.152 64.12C172.429 64.5253 172.568 65.0427 172.568 65.672C172.568 66.376 172.387 67 172.024 67.544C171.661 68.088 171.155 68.5093 170.504 68.808C169.853 69.1067 169.096 69.256 168.232 69.256ZM178.164 60.872C179.071 60.872 179.764 61.128 180.244 61.64C180.735 62.1413 180.98 62.792 180.98 63.592V68.44C180.98 68.6107 180.932 68.7493 180.836 68.856C180.74 68.952 180.601 69 180.42 69H179.844C179.673 69 179.535 68.952 179.428 68.856C179.332 68.7493 179.284 68.6107 179.284 68.44V64.12C179.284 63.544 179.14 63.1013 178.852 62.792C178.575 62.4827 178.175 62.328 177.652 62.328C177.14 62.328 176.708 62.504 176.356 62.856C176.015 63.208 175.844 63.6507 175.844 64.184V68.44C175.844 68.6107 175.796 68.7493 175.7 68.856C175.604 68.952 175.465 69 175.284 69H174.708C174.537 69 174.399 68.952 174.292 68.856C174.196 68.7493 174.148 68.6107 174.148 68.44V58.2C174.148 58.0187 174.196 57.88 174.292 57.784C174.399 57.688 174.537 57.64 174.708 57.64H175.284C175.465 57.64 175.604 57.688 175.7 57.784C175.796 57.88 175.844 58.0187 175.844 58.2V61.928C176.1 61.5867 176.425 61.3253 176.82 61.144C177.225 60.9627 177.673 60.872 178.164 60.872ZM186.257 60.872C187.324 60.872 188.145 61.1227 188.721 61.624C189.297 62.1147 189.585 62.7707 189.585 63.592V68.44C189.585 68.6107 189.537 68.7493 189.441 68.856C189.345 68.952 189.206 69 189.025 69H188.609C188.438 69 188.3 68.952 188.193 68.856C188.097 68.7493 188.049 68.6107 188.049 68.44V68.088C187.793 68.4613 187.441 68.7493 186.993 68.952C186.545 69.1547 186.022 69.256 185.425 69.256C184.604 69.256 183.926 69.0747 183.393 68.712C182.87 68.3387 182.609 67.7787 182.609 67.032C182.609 66.2 182.918 65.5867 183.537 65.192C184.166 64.7867 185.036 64.4827 186.145 64.28L187.953 63.944V63.656C187.953 63.2187 187.798 62.8827 187.489 62.648C187.19 62.4027 186.79 62.28 186.289 62.28C185.862 62.28 185.489 62.3547 185.169 62.504C184.86 62.6427 184.524 62.8773 184.161 63.208C184.022 63.3253 183.889 63.384 183.761 63.384C183.633 63.384 183.5 63.3253 183.361 63.208L183.105 62.984C182.966 62.856 182.897 62.7173 182.897 62.568C182.897 62.4293 182.961 62.296 183.089 62.168C183.548 61.7307 184.033 61.4053 184.545 61.192C185.057 60.9787 185.628 60.872 186.257 60.872ZM185.665 67.896C186.305 67.896 186.844 67.7253 187.281 67.384C187.729 67.0427 187.953 66.552 187.953 65.912V65.176L186.561 65.464C185.782 65.624 185.206 65.8053 184.833 66.008C184.46 66.2107 184.273 66.52 184.273 66.936C184.273 67.2347 184.396 67.4693 184.641 67.64C184.886 67.8107 185.228 67.896 185.665 67.896ZM195.075 61.032C195.31 61.032 195.55 61.0587 195.795 61.112C196.083 61.176 196.227 61.3467 196.227 61.624C196.227 61.6987 196.222 61.752 196.211 61.784L196.131 62.168C196.067 62.4667 195.907 62.616 195.651 62.616L195.507 62.6C195.315 62.568 195.144 62.552 194.995 62.552C194.462 62.552 194.03 62.7653 193.699 63.192C193.379 63.608 193.219 64.1893 193.219 64.936V68.44C193.219 68.6107 193.171 68.7493 193.075 68.856C192.979 68.952 192.84 69 192.659 69H192.083C191.912 69 191.774 68.952 191.667 68.856C191.571 68.7493 191.523 68.6107 191.523 68.44V61.672C191.523 61.4907 191.571 61.352 191.667 61.256C191.774 61.16 191.912 61.112 192.083 61.112H192.547C192.728 61.112 192.867 61.16 192.963 61.256C193.059 61.352 193.107 61.4907 193.107 61.672V62.296C193.299 61.9013 193.56 61.592 193.891 61.368C194.222 61.144 194.616 61.032 195.075 61.032ZM202.733 66.984C202.872 66.8667 203.005 66.808 203.133 66.808C203.261 66.808 203.395 66.8773 203.533 67.016L203.757 67.256C203.875 67.3947 203.933 67.528 203.933 67.656C203.933 67.7947 203.864 67.928 203.725 68.056C203.235 68.4827 202.744 68.7867 202.253 68.968C201.773 69.1493 201.24 69.24 200.653 69.24C199.832 69.24 199.117 69.0693 198.509 68.728C197.912 68.3867 197.448 67.9067 197.117 67.288C196.797 66.6587 196.637 65.9333 196.637 65.112C196.637 64.3013 196.792 63.576 197.101 62.936C197.421 62.2853 197.869 61.7787 198.445 61.416C199.032 61.0533 199.715 60.872 200.493 60.872C201.656 60.872 202.552 61.2187 203.181 61.912C203.811 62.5947 204.125 63.5387 204.125 64.744V64.888C204.115 65.0587 204.061 65.192 203.965 65.288C203.869 65.384 203.731 65.432 203.549 65.432H198.301C198.365 66.136 198.595 66.712 198.989 67.16C199.395 67.5973 199.96 67.816 200.685 67.816C201.08 67.816 201.427 67.7573 201.725 67.64C202.024 67.512 202.36 67.2933 202.733 66.984ZM200.461 62.216C199.875 62.216 199.4 62.392 199.037 62.744C198.685 63.0853 198.456 63.5707 198.349 64.2H202.461C202.419 63.5813 202.227 63.096 201.885 62.744C201.544 62.392 201.069 62.216 200.461 62.216Z" fill="white"/>
<rect x="124" y="41" width="96" height="46" rx="7" stroke="#C3CCD9" stroke-width="2"/>
</svg>
