<svg width="344" height="128" viewBox="0 0 344 128" fill="none" xmlns="http://www.w3.org/2000/svg">
<rect x="109" y="41" width="126" height="46" rx="7" fill="#0063FB"/>
<path fill-rule="evenodd" clip-rule="evenodd" d="M132.75 57C132.75 56.5858 132.414 56.25 132 56.25C131.586 56.25 131.25 56.5858 131.25 57V66.4395L129.969 65.4143C129.645 65.1556 129.173 65.208 128.914 65.5315C128.656 65.8549 128.708 66.3269 129.031 66.5857L131.531 68.5857C131.805 68.8048 132.195 68.8048 132.469 68.5857L134.969 66.5857C135.292 66.3269 135.344 65.8549 135.086 65.5315C134.827 65.208 134.355 65.1556 134.031 65.4143L132.75 66.4395V57ZM125 70.25C124.586 70.25 124.25 70.5858 124.25 71C124.25 71.4142 124.586 71.75 125 71.75H139C139.414 71.75 139.75 71.4142 139.75 71C139.75 70.5858 139.414 70.25 139 70.25H125Z" fill="white"/>
<path d="M149.792 69C149.621 69 149.483 68.952 149.376 68.856C149.28 68.7493 149.232 68.6107 149.232 68.44V58.2C149.232 58.0187 149.28 57.88 149.376 57.784C149.483 57.688 149.621 57.64 149.792 57.64H153.648C154.715 57.64 155.627 57.88 156.384 58.36C157.152 58.84 157.733 59.512 158.128 60.376C158.533 61.2293 158.736 62.2107 158.736 63.32C158.736 64.4293 158.533 65.416 158.128 66.28C157.733 67.1333 157.152 67.8 156.384 68.28C155.627 68.76 154.715 69 153.648 69H149.792ZM153.376 67.464C154.464 67.464 155.317 67.1067 155.936 66.392C156.565 65.6667 156.88 64.6427 156.88 63.32C156.88 61.9973 156.565 60.9787 155.936 60.264C155.317 59.5387 154.464 59.176 153.376 59.176H151.056V67.464H153.376ZM164.091 69.24C163.312 69.24 162.619 69.064 162.011 68.712C161.413 68.36 160.944 67.8693 160.603 67.24C160.261 66.6 160.09 65.8693 160.09 65.048C160.09 64.2267 160.261 63.5013 160.603 62.872C160.944 62.2427 161.413 61.752 162.011 61.4C162.619 61.048 163.312 60.872 164.091 60.872C164.859 60.872 165.547 61.048 166.155 61.4C166.763 61.752 167.237 62.248 167.579 62.888C167.92 63.5173 168.091 64.2373 168.091 65.048C168.091 65.8693 167.92 66.6 167.579 67.24C167.237 67.8693 166.763 68.36 166.155 68.712C165.547 69.064 164.859 69.24 164.091 69.24ZM164.091 67.816C164.773 67.816 165.323 67.5653 165.739 67.064C166.155 66.552 166.363 65.88 166.363 65.048C166.363 64.2267 166.155 63.5653 165.739 63.064C165.323 62.5627 164.773 62.312 164.091 62.312C163.408 62.312 162.859 62.5627 162.443 63.064C162.027 63.5653 161.819 64.2267 161.819 65.048C161.819 65.88 162.027 66.552 162.443 67.064C162.859 67.5653 163.408 67.816 164.091 67.816ZM178.356 61.592C178.431 61.272 178.639 61.112 178.98 61.112H179.572C179.732 61.112 179.855 61.1493 179.94 61.224C180.036 61.288 180.084 61.3893 180.084 61.528C180.084 61.56 180.073 61.6293 180.052 61.736L178.148 68.52C178.073 68.84 177.865 69 177.524 69H176.484C176.164 69 175.956 68.84 175.86 68.52L175.332 66.664C175.097 65.8427 174.836 64.8133 174.548 63.576L174.468 63.224C174.18 64.5253 173.903 65.6773 173.636 66.68L173.14 68.52C173.065 68.84 172.857 69 172.516 69H171.492C171.172 69 170.964 68.84 170.868 68.52L168.948 61.736C168.927 61.6293 168.916 61.56 168.916 61.528C168.916 61.3893 168.959 61.288 169.044 61.224C169.14 61.1493 169.268 61.112 169.428 61.112H170.052C170.393 61.112 170.601 61.272 170.676 61.592L171.252 63.864C171.476 64.696 171.737 65.8053 172.036 67.192L172.1 67.512C172.409 66.0827 172.697 64.8667 172.964 63.864L173.572 61.592C173.647 61.272 173.855 61.112 174.196 61.112H174.804C175.145 61.112 175.353 61.272 175.428 61.592L176.052 63.864C176.351 64.9733 176.649 66.1893 176.948 67.512C177.172 66.3707 177.449 65.1547 177.78 63.864L178.356 61.592ZM185.508 60.872C186.414 60.872 187.108 61.128 187.588 61.64C188.078 62.1413 188.324 62.792 188.324 63.592V68.44C188.324 68.6107 188.276 68.7493 188.18 68.856C188.084 68.952 187.945 69 187.764 69H187.188C187.017 69 186.878 68.952 186.772 68.856C186.676 68.7493 186.628 68.6107 186.628 68.44V64.12C186.628 63.544 186.484 63.1013 186.196 62.792C185.918 62.4827 185.518 62.328 184.996 62.328C184.484 62.328 184.052 62.504 183.7 62.856C183.358 63.208 183.188 63.6507 183.188 64.184V68.44C183.188 68.6107 183.14 68.7493 183.044 68.856C182.948 68.952 182.809 69 182.628 69H182.052C181.881 69 181.742 68.952 181.636 68.856C181.54 68.7493 181.492 68.6107 181.492 68.44V61.672C181.492 61.4907 181.54 61.352 181.636 61.256C181.742 61.16 181.881 61.112 182.052 61.112H182.516C182.697 61.112 182.836 61.16 182.932 61.256C183.028 61.352 183.076 61.4907 183.076 61.672V62.088C183.332 61.6933 183.668 61.3947 184.084 61.192C184.5 60.9787 184.974 60.872 185.508 60.872ZM190.897 69C190.726 69 190.588 68.952 190.481 68.856C190.385 68.7493 190.337 68.6107 190.337 68.44V58.2C190.337 58.0187 190.385 57.88 190.481 57.784C190.588 57.688 190.726 57.64 190.897 57.64H191.473C191.654 57.64 191.793 57.688 191.889 57.784C191.985 57.88 192.033 58.0187 192.033 58.2V68.44C192.033 68.6107 191.985 68.7493 191.889 68.856C191.793 68.952 191.654 69 191.473 69H190.897ZM197.606 69.24C196.827 69.24 196.134 69.064 195.526 68.712C194.929 68.36 194.459 67.8693 194.118 67.24C193.777 66.6 193.606 65.8693 193.606 65.048C193.606 64.2267 193.777 63.5013 194.118 62.872C194.459 62.2427 194.929 61.752 195.526 61.4C196.134 61.048 196.827 60.872 197.606 60.872C198.374 60.872 199.062 61.048 199.67 61.4C200.278 61.752 200.753 62.248 201.094 62.888C201.435 63.5173 201.606 64.2373 201.606 65.048C201.606 65.8693 201.435 66.6 201.094 67.24C200.753 67.8693 200.278 68.36 199.67 68.712C199.062 69.064 198.374 69.24 197.606 69.24ZM197.606 67.816C198.289 67.816 198.838 67.5653 199.254 67.064C199.67 66.552 199.878 65.88 199.878 65.048C199.878 64.2267 199.67 63.5653 199.254 63.064C198.838 62.5627 198.289 62.312 197.606 62.312C196.923 62.312 196.374 62.5627 195.958 63.064C195.542 63.5653 195.334 64.2267 195.334 65.048C195.334 65.88 195.542 66.552 195.958 67.064C196.374 67.5653 196.923 67.816 197.606 67.816ZM206.429 60.872C207.496 60.872 208.317 61.1227 208.893 61.624C209.469 62.1147 209.757 62.7707 209.757 63.592V68.44C209.757 68.6107 209.709 68.7493 209.613 68.856C209.517 68.952 209.378 69 209.197 69H208.781C208.61 69 208.472 68.952 208.365 68.856C208.269 68.7493 208.221 68.6107 208.221 68.44V68.088C207.965 68.4613 207.613 68.7493 207.165 68.952C206.717 69.1547 206.194 69.256 205.597 69.256C204.776 69.256 204.098 69.0747 203.565 68.712C203.042 68.3387 202.781 67.7787 202.781 67.032C202.781 66.2 203.09 65.5867 203.709 65.192C204.338 64.7867 205.208 64.4827 206.317 64.28L208.125 63.944V63.656C208.125 63.2187 207.97 62.8827 207.661 62.648C207.362 62.4027 206.962 62.28 206.461 62.28C206.034 62.28 205.661 62.3547 205.341 62.504C205.032 62.6427 204.696 62.8773 204.333 63.208C204.194 63.3253 204.061 63.384 203.933 63.384C203.805 63.384 203.672 63.3253 203.533 63.208L203.277 62.984C203.138 62.856 203.069 62.7173 203.069 62.568C203.069 62.4293 203.133 62.296 203.261 62.168C203.72 61.7307 204.205 61.4053 204.717 61.192C205.229 60.9787 205.8 60.872 206.429 60.872ZM205.837 67.896C206.477 67.896 207.016 67.7253 207.453 67.384C207.901 67.0427 208.125 66.552 208.125 65.912V65.176L206.733 65.464C205.954 65.624 205.378 65.8053 205.005 66.008C204.632 66.2107 204.445 66.52 204.445 66.936C204.445 67.2347 204.568 67.4693 204.813 67.64C205.058 67.8107 205.4 67.896 205.837 67.896ZM217.247 58.184C217.247 58.0027 217.295 57.864 217.391 57.768C217.497 57.672 217.636 57.624 217.807 57.624H218.383C218.564 57.624 218.703 57.672 218.799 57.768C218.895 57.864 218.943 58.0027 218.943 58.184V68.44C218.943 68.6107 218.895 68.7493 218.799 68.856C218.703 68.952 218.564 69 218.383 69H217.919C217.748 69 217.609 68.952 217.503 68.856C217.407 68.7493 217.359 68.6107 217.359 68.44V67.88C216.804 68.776 215.935 69.224 214.751 69.224C214.089 69.224 213.492 69.0533 212.959 68.712C212.436 68.3707 212.025 67.8853 211.727 67.256C211.428 66.6267 211.279 65.896 211.279 65.064C211.279 64.2427 211.428 63.5173 211.727 62.888C212.036 62.2587 212.457 61.7733 212.991 61.432C213.524 61.0907 214.121 60.92 214.783 60.92C215.871 60.92 216.692 61.2987 217.247 62.056V58.184ZM215.103 67.768C215.753 67.768 216.287 67.528 216.703 67.048C217.119 66.5573 217.327 65.896 217.327 65.064C217.327 64.232 217.119 63.576 216.703 63.096C216.287 62.616 215.753 62.376 215.103 62.376C214.473 62.376 213.967 62.6213 213.583 63.112C213.199 63.6027 213.007 64.2533 213.007 65.064C213.007 65.8853 213.193 66.5413 213.567 67.032C213.951 67.5227 214.463 67.768 215.103 67.768Z" fill="white"/>
<rect x="109" y="41" width="126" height="46" rx="7" stroke="#0063FB" stroke-width="2"/>
</svg>
