<svg width="344" height="244" viewBox="0 0 344 244" fill="none" xmlns="http://www.w3.org/2000/svg">
<rect width="344" height="244" fill="#F5F5F5"/>
<rect x="32.5" y="72.5" width="90" height="31" rx="3.5" fill="white"/>
<path d="M42.5 88H53.5" stroke="#767676" stroke-width="1.5" stroke-linecap="round" stroke-linejoin="round"/>
<path d="M48 82.5V93.5" stroke="#767676" stroke-width="1.5" stroke-linecap="round" stroke-linejoin="round"/>
<path d="M71.044 92C70.804 92 70.644 91.888 70.564 91.664L70 90.044H66.232L65.668 91.664C65.588 91.888 65.428 92 65.188 92H64.684C64.564 92 64.468 91.976 64.396 91.928C64.332 91.872 64.3 91.796 64.3 91.7C64.3 91.652 64.312 91.592 64.336 91.52L67.12 83.816C67.2 83.592 67.36 83.48 67.6 83.48H68.668C68.908 83.48 69.068 83.592 69.148 83.816L71.932 91.52C71.956 91.592 71.968 91.652 71.968 91.7C71.968 91.796 71.932 91.872 71.86 91.928C71.796 91.976 71.704 92 71.584 92H71.044ZM69.616 88.904L69.244 87.848C69.236 87.832 69.148 87.58 68.98 87.092C68.556 85.892 68.268 85.036 68.116 84.524C67.884 85.26 67.576 86.172 67.192 87.26L66.988 87.86L66.628 88.904H69.616ZM77.1108 83.888C77.1108 83.752 77.1468 83.648 77.2188 83.576C77.2988 83.504 77.4028 83.468 77.5308 83.468H77.9628C78.0988 83.468 78.2028 83.504 78.2748 83.576C78.3468 83.648 78.3828 83.752 78.3828 83.888V91.58C78.3828 91.708 78.3468 91.812 78.2748 91.892C78.2028 91.964 78.0988 92 77.9628 92H77.6148C77.4868 92 77.3828 91.964 77.3028 91.892C77.2308 91.812 77.1948 91.708 77.1948 91.58V91.16C76.7788 91.832 76.1268 92.168 75.2388 92.168C74.7428 92.168 74.2948 92.04 73.8948 91.784C73.5028 91.528 73.1948 91.164 72.9708 90.692C72.7468 90.22 72.6348 89.672 72.6348 89.048C72.6348 88.432 72.7468 87.888 72.9708 87.416C73.2028 86.944 73.5188 86.58 73.9188 86.324C74.3188 86.068 74.7668 85.94 75.2628 85.94C76.0788 85.94 76.6948 86.224 77.1108 86.792V83.888ZM75.5028 91.076C75.9908 91.076 76.3908 90.896 76.7028 90.536C77.0148 90.168 77.1708 89.672 77.1708 89.048C77.1708 88.424 77.0148 87.932 76.7028 87.572C76.3908 87.212 75.9908 87.032 75.5028 87.032C75.0308 87.032 74.6508 87.216 74.3628 87.584C74.0748 87.952 73.9308 88.44 73.9308 89.048C73.9308 89.664 74.0708 90.156 74.3508 90.524C74.6388 90.892 75.0228 91.076 75.5028 91.076ZM84.0249 83.888C84.0249 83.752 84.0609 83.648 84.1329 83.576C84.2129 83.504 84.3169 83.468 84.4449 83.468H84.8769C85.0129 83.468 85.1169 83.504 85.1889 83.576C85.2609 83.648 85.2969 83.752 85.2969 83.888V91.58C85.2969 91.708 85.2609 91.812 85.1889 91.892C85.1169 91.964 85.0129 92 84.8769 92H84.5289C84.4009 92 84.2969 91.964 84.2169 91.892C84.1449 91.812 84.1089 91.708 84.1089 91.58V91.16C83.6929 91.832 83.0409 92.168 82.1529 92.168C81.6569 92.168 81.2089 92.04 80.8089 91.784C80.4169 91.528 80.1089 91.164 79.8849 90.692C79.6609 90.22 79.5489 89.672 79.5489 89.048C79.5489 88.432 79.6609 87.888 79.8849 87.416C80.1169 86.944 80.4329 86.58 80.8329 86.324C81.2329 86.068 81.6809 85.94 82.1769 85.94C82.9929 85.94 83.6089 86.224 84.0249 86.792V83.888ZM82.4169 91.076C82.9049 91.076 83.3049 90.896 83.6169 90.536C83.9289 90.168 84.0849 89.672 84.0849 89.048C84.0849 88.424 83.9289 87.932 83.6169 87.572C83.3049 87.212 82.9049 87.032 82.4169 87.032C81.9449 87.032 81.5649 87.216 81.2769 87.584C80.9889 87.952 80.8449 88.44 80.8449 89.048C80.8449 89.664 80.9849 90.156 81.2649 90.524C81.5529 90.892 81.9369 91.076 82.4169 91.076ZM92.7902 84.932C92.5582 84.932 92.3622 84.856 92.2022 84.704C92.0422 84.544 91.9622 84.356 91.9622 84.14C91.9622 83.916 92.0422 83.728 92.2022 83.576C92.3622 83.424 92.5582 83.348 92.7902 83.348C93.0222 83.348 93.2182 83.424 93.3782 83.576C93.5382 83.728 93.6182 83.916 93.6182 84.14C93.6182 84.356 93.5382 84.544 93.3782 84.704C93.2182 84.856 93.0222 84.932 92.7902 84.932ZM92.5622 92C92.4342 92 92.3302 91.964 92.2502 91.892C92.1782 91.812 92.1422 91.708 92.1422 91.58V86.504C92.1422 86.368 92.1782 86.264 92.2502 86.192C92.3302 86.12 92.4342 86.084 92.5622 86.084H92.9942C93.1302 86.084 93.2342 86.12 93.3062 86.192C93.3782 86.264 93.4142 86.368 93.4142 86.504V91.58C93.4142 91.708 93.3782 91.812 93.3062 91.892C93.2342 91.964 93.1302 92 92.9942 92H92.5622ZM97.7403 90.992C97.7643 90.984 97.8003 90.98 97.8483 90.98C98.0483 90.98 98.1683 91.096 98.2083 91.328L98.2443 91.52C98.2523 91.544 98.2563 91.584 98.2563 91.64C98.2563 91.84 98.1443 91.968 97.9203 92.024C97.6003 92.096 97.3083 92.132 97.0443 92.132C96.4763 92.132 96.0643 92 95.8083 91.736C95.5603 91.472 95.4363 91.076 95.4363 90.548V87.056H94.7763C94.6483 87.056 94.5443 87.02 94.4643 86.948C94.3923 86.868 94.3563 86.764 94.3563 86.636V86.504C94.3563 86.368 94.3923 86.264 94.4643 86.192C94.5443 86.12 94.6483 86.084 94.7763 86.084H95.4363V84.596C95.4363 84.46 95.4723 84.356 95.5443 84.284C95.6243 84.212 95.7283 84.176 95.8563 84.176H96.2883C96.4243 84.176 96.5283 84.212 96.6003 84.284C96.6723 84.356 96.7083 84.46 96.7083 84.596V86.084H97.7883C97.9243 86.084 98.0283 86.12 98.1003 86.192C98.1723 86.264 98.2083 86.368 98.2083 86.504V86.636C98.2083 86.764 98.1723 86.868 98.1003 86.948C98.0283 87.02 97.9243 87.056 97.7883 87.056H96.7083V90.392C96.7083 90.624 96.7563 90.788 96.8523 90.884C96.9563 90.98 97.1203 91.028 97.3443 91.028C97.4403 91.028 97.5723 91.016 97.7403 90.992ZM103.304 90.488C103.408 90.4 103.508 90.356 103.604 90.356C103.7 90.356 103.8 90.408 103.904 90.512L104.072 90.692C104.16 90.796 104.204 90.896 104.204 90.992C104.204 91.096 104.152 91.196 104.048 91.292C103.68 91.612 103.312 91.84 102.944 91.976C102.584 92.112 102.184 92.18 101.744 92.18C101.128 92.18 100.592 92.052 100.136 91.796C99.6879 91.54 99.3399 91.18 99.0919 90.716C98.8519 90.244 98.7319 89.7 98.7319 89.084C98.7319 88.476 98.8479 87.932 99.0799 87.452C99.3199 86.964 99.6559 86.584 100.088 86.312C100.528 86.04 101.04 85.904 101.624 85.904C102.496 85.904 103.168 86.164 103.64 86.684C104.112 87.196 104.348 87.904 104.348 88.808V88.916C104.34 89.044 104.3 89.144 104.228 89.216C104.156 89.288 104.052 89.324 103.916 89.324H99.9799C100.028 89.852 100.2 90.284 100.496 90.62C100.8 90.948 101.224 91.112 101.768 91.112C102.064 91.112 102.324 91.068 102.548 90.98C102.772 90.884 103.024 90.72 103.304 90.488ZM101.6 86.912C101.16 86.912 100.804 87.044 100.532 87.308C100.268 87.564 100.096 87.928 100.016 88.4H103.1C103.068 87.936 102.924 87.572 102.668 87.308C102.412 87.044 102.056 86.912 101.6 86.912ZM111.861 85.904C112.493 85.904 112.981 86.084 113.325 86.444C113.669 86.796 113.841 87.272 113.841 87.872V91.58C113.841 91.708 113.805 91.812 113.733 91.892C113.661 91.964 113.557 92 113.421 92H112.989C112.861 92 112.757 91.964 112.677 91.892C112.605 91.812 112.569 91.708 112.569 91.58V88.256C112.569 87.864 112.481 87.556 112.305 87.332C112.129 87.108 111.861 86.996 111.501 86.996C111.133 86.996 110.841 87.12 110.625 87.368C110.417 87.616 110.313 87.936 110.313 88.328V91.58C110.313 91.708 110.277 91.812 110.205 91.892C110.133 91.964 110.029 92 109.893 92H109.461C109.333 92 109.229 91.964 109.149 91.892C109.077 91.812 109.041 91.708 109.041 91.58V88.256C109.041 87.864 108.953 87.556 108.777 87.332C108.609 87.108 108.345 86.996 107.985 86.996C107.633 86.996 107.349 87.112 107.133 87.344C106.917 87.576 106.801 87.876 106.785 88.244V91.58C106.785 91.708 106.749 91.812 106.677 91.892C106.605 91.964 106.501 92 106.365 92H105.933C105.805 92 105.701 91.964 105.621 91.892C105.549 91.812 105.513 91.708 105.513 91.58V86.504C105.513 86.368 105.549 86.264 105.621 86.192C105.701 86.12 105.805 86.084 105.933 86.084H106.281C106.417 86.084 106.521 86.12 106.593 86.192C106.665 86.264 106.701 86.368 106.701 86.504V86.768C107.069 86.192 107.637 85.904 108.405 85.904C108.789 85.904 109.125 85.984 109.413 86.144C109.701 86.304 109.921 86.528 110.073 86.816C110.481 86.208 111.077 85.904 111.861 85.904Z" fill="#474445"/>
<rect x="32.5" y="72.5" width="90" height="31" rx="3.5" stroke="#C3CCD9"/>
<path d="M42.5 190H53.5" stroke="#767676" stroke-width="1.5" stroke-linecap="round" stroke-linejoin="round"/>
<path d="M48 184.5V195.5" stroke="#767676" stroke-width="1.5" stroke-linecap="round" stroke-linejoin="round"/>
<path d="M71.044 194C70.804 194 70.644 193.888 70.564 193.664L70 192.044H66.232L65.668 193.664C65.588 193.888 65.428 194 65.188 194H64.684C64.564 194 64.468 193.976 64.396 193.928C64.332 193.872 64.3 193.796 64.3 193.7C64.3 193.652 64.312 193.592 64.336 193.52L67.12 185.816C67.2 185.592 67.36 185.48 67.6 185.48H68.668C68.908 185.48 69.068 185.592 69.148 185.816L71.932 193.52C71.956 193.592 71.968 193.652 71.968 193.7C71.968 193.796 71.932 193.872 71.86 193.928C71.796 193.976 71.704 194 71.584 194H71.044ZM69.616 190.904L69.244 189.848C69.236 189.832 69.148 189.58 68.98 189.092C68.556 187.892 68.268 187.036 68.116 186.524C67.884 187.26 67.576 188.172 67.192 189.26L66.988 189.86L66.628 190.904H69.616ZM77.1108 185.888C77.1108 185.752 77.1468 185.648 77.2188 185.576C77.2988 185.504 77.4028 185.468 77.5308 185.468H77.9628C78.0988 185.468 78.2028 185.504 78.2748 185.576C78.3468 185.648 78.3828 185.752 78.3828 185.888V193.58C78.3828 193.708 78.3468 193.812 78.2748 193.892C78.2028 193.964 78.0988 194 77.9628 194H77.6148C77.4868 194 77.3828 193.964 77.3028 193.892C77.2308 193.812 77.1948 193.708 77.1948 193.58V193.16C76.7788 193.832 76.1268 194.168 75.2388 194.168C74.7428 194.168 74.2948 194.04 73.8948 193.784C73.5028 193.528 73.1948 193.164 72.9708 192.692C72.7468 192.22 72.6348 191.672 72.6348 191.048C72.6348 190.432 72.7468 189.888 72.9708 189.416C73.2028 188.944 73.5188 188.58 73.9188 188.324C74.3188 188.068 74.7668 187.94 75.2628 187.94C76.0788 187.94 76.6948 188.224 77.1108 188.792V185.888ZM75.5028 193.076C75.9908 193.076 76.3908 192.896 76.7028 192.536C77.0148 192.168 77.1708 191.672 77.1708 191.048C77.1708 190.424 77.0148 189.932 76.7028 189.572C76.3908 189.212 75.9908 189.032 75.5028 189.032C75.0308 189.032 74.6508 189.216 74.3628 189.584C74.0748 189.952 73.9308 190.44 73.9308 191.048C73.9308 191.664 74.0708 192.156 74.3508 192.524C74.6388 192.892 75.0228 193.076 75.5028 193.076ZM84.0249 185.888C84.0249 185.752 84.0609 185.648 84.1329 185.576C84.2129 185.504 84.3169 185.468 84.4449 185.468H84.8769C85.0129 185.468 85.1169 185.504 85.1889 185.576C85.2609 185.648 85.2969 185.752 85.2969 185.888V193.58C85.2969 193.708 85.2609 193.812 85.1889 193.892C85.1169 193.964 85.0129 194 84.8769 194H84.5289C84.4009 194 84.2969 193.964 84.2169 193.892C84.1449 193.812 84.1089 193.708 84.1089 193.58V193.16C83.6929 193.832 83.0409 194.168 82.1529 194.168C81.6569 194.168 81.2089 194.04 80.8089 193.784C80.4169 193.528 80.1089 193.164 79.8849 192.692C79.6609 192.22 79.5489 191.672 79.5489 191.048C79.5489 190.432 79.6609 189.888 79.8849 189.416C80.1169 188.944 80.4329 188.58 80.8329 188.324C81.2329 188.068 81.6809 187.94 82.1769 187.94C82.9929 187.94 83.6089 188.224 84.0249 188.792V185.888ZM82.4169 193.076C82.9049 193.076 83.3049 192.896 83.6169 192.536C83.9289 192.168 84.0849 191.672 84.0849 191.048C84.0849 190.424 83.9289 189.932 83.6169 189.572C83.3049 189.212 82.9049 189.032 82.4169 189.032C81.9449 189.032 81.5649 189.216 81.2769 189.584C80.9889 189.952 80.8449 190.44 80.8449 191.048C80.8449 191.664 80.9849 192.156 81.2649 192.524C81.5529 192.892 81.9369 193.076 82.4169 193.076ZM92.7902 186.932C92.5582 186.932 92.3622 186.856 92.2022 186.704C92.0422 186.544 91.9622 186.356 91.9622 186.14C91.9622 185.916 92.0422 185.728 92.2022 185.576C92.3622 185.424 92.5582 185.348 92.7902 185.348C93.0222 185.348 93.2182 185.424 93.3782 185.576C93.5382 185.728 93.6182 185.916 93.6182 186.14C93.6182 186.356 93.5382 186.544 93.3782 186.704C93.2182 186.856 93.0222 186.932 92.7902 186.932ZM92.5622 194C92.4342 194 92.3302 193.964 92.2502 193.892C92.1782 193.812 92.1422 193.708 92.1422 193.58V188.504C92.1422 188.368 92.1782 188.264 92.2502 188.192C92.3302 188.12 92.4342 188.084 92.5622 188.084H92.9942C93.1302 188.084 93.2342 188.12 93.3062 188.192C93.3782 188.264 93.4142 188.368 93.4142 188.504V193.58C93.4142 193.708 93.3782 193.812 93.3062 193.892C93.2342 193.964 93.1302 194 92.9942 194H92.5622ZM97.7403 192.992C97.7643 192.984 97.8003 192.98 97.8483 192.98C98.0483 192.98 98.1683 193.096 98.2083 193.328L98.2443 193.52C98.2523 193.544 98.2563 193.584 98.2563 193.64C98.2563 193.84 98.1443 193.968 97.9203 194.024C97.6003 194.096 97.3083 194.132 97.0443 194.132C96.4763 194.132 96.0643 194 95.8083 193.736C95.5603 193.472 95.4363 193.076 95.4363 192.548V189.056H94.7763C94.6483 189.056 94.5443 189.02 94.4643 188.948C94.3923 188.868 94.3563 188.764 94.3563 188.636V188.504C94.3563 188.368 94.3923 188.264 94.4643 188.192C94.5443 188.12 94.6483 188.084 94.7763 188.084H95.4363V186.596C95.4363 186.46 95.4723 186.356 95.5443 186.284C95.6243 186.212 95.7283 186.176 95.8563 186.176H96.2883C96.4243 186.176 96.5283 186.212 96.6003 186.284C96.6723 186.356 96.7083 186.46 96.7083 186.596V188.084H97.7883C97.9243 188.084 98.0283 188.12 98.1003 188.192C98.1723 188.264 98.2083 188.368 98.2083 188.504V188.636C98.2083 188.764 98.1723 188.868 98.1003 188.948C98.0283 189.02 97.9243 189.056 97.7883 189.056H96.7083V192.392C96.7083 192.624 96.7563 192.788 96.8523 192.884C96.9563 192.98 97.1203 193.028 97.3443 193.028C97.4403 193.028 97.5723 193.016 97.7403 192.992ZM103.304 192.488C103.408 192.4 103.508 192.356 103.604 192.356C103.7 192.356 103.8 192.408 103.904 192.512L104.072 192.692C104.16 192.796 104.204 192.896 104.204 192.992C104.204 193.096 104.152 193.196 104.048 193.292C103.68 193.612 103.312 193.84 102.944 193.976C102.584 194.112 102.184 194.18 101.744 194.18C101.128 194.18 100.592 194.052 100.136 193.796C99.6879 193.54 99.3399 193.18 99.0919 192.716C98.8519 192.244 98.7319 191.7 98.7319 191.084C98.7319 190.476 98.8479 189.932 99.0799 189.452C99.3199 188.964 99.6559 188.584 100.088 188.312C100.528 188.04 101.04 187.904 101.624 187.904C102.496 187.904 103.168 188.164 103.64 188.684C104.112 189.196 104.348 189.904 104.348 190.808V190.916C104.34 191.044 104.3 191.144 104.228 191.216C104.156 191.288 104.052 191.324 103.916 191.324H99.9799C100.028 191.852 100.2 192.284 100.496 192.62C100.8 192.948 101.224 193.112 101.768 193.112C102.064 193.112 102.324 193.068 102.548 192.98C102.772 192.884 103.024 192.72 103.304 192.488ZM101.6 188.912C101.16 188.912 100.804 189.044 100.532 189.308C100.268 189.564 100.096 189.928 100.016 190.4H103.1C103.068 189.936 102.924 189.572 102.668 189.308C102.412 189.044 102.056 188.912 101.6 188.912ZM111.861 187.904C112.493 187.904 112.981 188.084 113.325 188.444C113.669 188.796 113.841 189.272 113.841 189.872V193.58C113.841 193.708 113.805 193.812 113.733 193.892C113.661 193.964 113.557 194 113.421 194H112.989C112.861 194 112.757 193.964 112.677 193.892C112.605 193.812 112.569 193.708 112.569 193.58V190.256C112.569 189.864 112.481 189.556 112.305 189.332C112.129 189.108 111.861 188.996 111.501 188.996C111.133 188.996 110.841 189.12 110.625 189.368C110.417 189.616 110.313 189.936 110.313 190.328V193.58C110.313 193.708 110.277 193.812 110.205 193.892C110.133 193.964 110.029 194 109.893 194H109.461C109.333 194 109.229 193.964 109.149 193.892C109.077 193.812 109.041 193.708 109.041 193.58V190.256C109.041 189.864 108.953 189.556 108.777 189.332C108.609 189.108 108.345 188.996 107.985 188.996C107.633 188.996 107.349 189.112 107.133 189.344C106.917 189.576 106.801 189.876 106.785 190.244V193.58C106.785 193.708 106.749 193.812 106.677 193.892C106.605 193.964 106.501 194 106.365 194H105.933C105.805 194 105.701 193.964 105.621 193.892C105.549 193.812 105.513 193.708 105.513 193.58V188.504C105.513 188.368 105.549 188.264 105.621 188.192C105.701 188.12 105.805 188.084 105.933 188.084H106.281C106.417 188.084 106.521 188.12 106.593 188.192C106.665 188.264 106.701 188.368 106.701 188.504V188.768C107.069 188.192 107.637 187.904 108.405 187.904C108.789 187.904 109.125 187.984 109.413 188.144C109.701 188.304 109.921 188.528 110.073 188.816C110.481 188.208 111.077 187.904 111.861 187.904Z" fill="#474445"/>
<rect x="155.5" y="72.5" width="84" height="31" rx="3.5" fill="white"/>
<circle cx="170.953" cy="87.9531" r="2" stroke="#767676" stroke-width="1.5"/>
<path d="M170.035 81.5335C170.303 80.5513 171.697 80.5513 171.965 81.5335L172.306 82.7823C172.478 83.4129 173.199 83.7115 173.766 83.3873L174.89 82.7454C175.774 82.2405 176.76 83.2255 176.255 84.1096L175.613 85.2338C175.289 85.8014 175.587 86.5222 176.218 86.6944L177.466 87.0353C178.449 87.3035 178.449 88.6965 177.466 88.9647L176.218 89.3056C175.587 89.4778 175.289 90.1986 175.613 90.7662L176.255 91.8904C176.76 92.7745 175.774 93.7595 174.89 93.2546L173.766 92.6127C173.199 92.2885 172.478 92.5871 172.306 93.2177L171.965 94.4665C171.697 95.4487 170.303 95.4487 170.035 94.4665L169.694 93.2177C169.522 92.5871 168.801 92.2885 168.234 92.6127L167.11 93.2546C166.226 93.7595 165.24 92.7745 165.745 91.8904L166.387 90.7662C166.711 90.1986 166.413 89.4778 165.782 89.3056L164.534 88.9647C163.551 88.6965 163.551 87.3035 164.534 87.0353L165.782 86.6944C166.413 86.5222 166.711 85.8014 166.387 85.2338L165.745 84.1096C165.24 83.2255 166.226 82.2405 167.11 82.7454L168.234 83.3873C168.801 83.7115 169.522 83.4129 169.694 82.7823L170.035 81.5335Z" stroke="#767676" stroke-width="1.5"/>
<path d="M190.924 92.192C190.268 92.192 189.68 92.1 189.16 91.916C188.648 91.724 188.12 91.404 187.576 90.956C187.464 90.868 187.408 90.764 187.408 90.644C187.408 90.54 187.448 90.444 187.528 90.356L187.804 90.032C187.892 89.92 187.992 89.864 188.104 89.864C188.192 89.864 188.292 89.908 188.404 89.996C188.884 90.38 189.312 90.644 189.688 90.788C190.072 90.932 190.492 91.004 190.948 91.004C191.5 91.004 191.948 90.88 192.292 90.632C192.636 90.376 192.808 90.028 192.808 89.588C192.808 89.3 192.72 89.076 192.544 88.916C192.368 88.748 192.14 88.62 191.86 88.532C191.588 88.444 191.144 88.328 190.528 88.184C189.784 88.008 189.204 87.816 188.788 87.608C188.372 87.4 188.072 87.152 187.888 86.864C187.712 86.568 187.624 86.196 187.624 85.748C187.624 85.276 187.76 84.852 188.032 84.476C188.304 84.1 188.676 83.808 189.148 83.6C189.628 83.392 190.164 83.288 190.756 83.288C191.356 83.288 191.884 83.368 192.34 83.528C192.804 83.688 193.268 83.948 193.732 84.308C193.852 84.404 193.912 84.504 193.912 84.608C193.912 84.696 193.872 84.792 193.792 84.896L193.528 85.208C193.432 85.32 193.332 85.376 193.228 85.376C193.132 85.376 193.032 85.336 192.928 85.256C192.544 84.96 192.188 84.756 191.86 84.644C191.532 84.532 191.16 84.476 190.744 84.476C190.216 84.476 189.788 84.592 189.46 84.824C189.132 85.056 188.968 85.348 188.968 85.7C188.968 85.956 189.044 86.16 189.196 86.312C189.348 86.464 189.568 86.588 189.856 86.684C190.144 86.78 190.588 86.896 191.188 87.032C191.916 87.208 192.492 87.396 192.916 87.596C193.34 87.788 193.656 88.036 193.864 88.34C194.072 88.644 194.176 89.032 194.176 89.504C194.176 90.032 194.04 90.5 193.768 90.908C193.496 91.316 193.116 91.632 192.628 91.856C192.14 92.08 191.572 92.192 190.924 92.192ZM199.644 90.488C199.748 90.4 199.848 90.356 199.944 90.356C200.04 90.356 200.14 90.408 200.244 90.512L200.412 90.692C200.5 90.796 200.544 90.896 200.544 90.992C200.544 91.096 200.492 91.196 200.388 91.292C200.02 91.612 199.652 91.84 199.284 91.976C198.924 92.112 198.524 92.18 198.084 92.18C197.468 92.18 196.932 92.052 196.476 91.796C196.028 91.54 195.68 91.18 195.432 90.716C195.192 90.244 195.072 89.7 195.072 89.084C195.072 88.476 195.188 87.932 195.42 87.452C195.66 86.964 195.996 86.584 196.428 86.312C196.868 86.04 197.38 85.904 197.964 85.904C198.836 85.904 199.508 86.164 199.98 86.684C200.452 87.196 200.688 87.904 200.688 88.808V88.916C200.68 89.044 200.64 89.144 200.568 89.216C200.496 89.288 200.392 89.324 200.256 89.324H196.32C196.368 89.852 196.54 90.284 196.836 90.62C197.14 90.948 197.564 91.112 198.108 91.112C198.404 91.112 198.664 91.068 198.888 90.98C199.112 90.884 199.364 90.72 199.644 90.488ZM197.94 86.912C197.5 86.912 197.144 87.044 196.872 87.308C196.608 87.564 196.436 87.928 196.356 88.4H199.44C199.408 87.936 199.264 87.572 199.008 87.308C198.752 87.044 198.396 86.912 197.94 86.912ZM204.639 90.992C204.663 90.984 204.699 90.98 204.747 90.98C204.947 90.98 205.067 91.096 205.107 91.328L205.143 91.52C205.151 91.544 205.155 91.584 205.155 91.64C205.155 91.84 205.043 91.968 204.819 92.024C204.499 92.096 204.207 92.132 203.943 92.132C203.375 92.132 202.963 92 202.707 91.736C202.459 91.472 202.335 91.076 202.335 90.548V87.056H201.675C201.547 87.056 201.443 87.02 201.363 86.948C201.291 86.868 201.255 86.764 201.255 86.636V86.504C201.255 86.368 201.291 86.264 201.363 86.192C201.443 86.12 201.547 86.084 201.675 86.084H202.335V84.596C202.335 84.46 202.371 84.356 202.443 84.284C202.523 84.212 202.627 84.176 202.755 84.176H203.187C203.323 84.176 203.427 84.212 203.499 84.284C203.571 84.356 203.607 84.46 203.607 84.596V86.084H204.687C204.823 86.084 204.927 86.12 204.999 86.192C205.071 86.264 205.107 86.368 205.107 86.504V86.636C205.107 86.764 205.071 86.868 204.999 86.948C204.927 87.02 204.823 87.056 204.687 87.056H203.607V90.392C203.607 90.624 203.655 90.788 203.751 90.884C203.855 90.98 204.019 91.028 204.243 91.028C204.339 91.028 204.471 91.016 204.639 90.992ZM209.033 90.992C209.057 90.984 209.093 90.98 209.141 90.98C209.341 90.98 209.461 91.096 209.501 91.328L209.537 91.52C209.545 91.544 209.549 91.584 209.549 91.64C209.549 91.84 209.437 91.968 209.213 92.024C208.893 92.096 208.601 92.132 208.337 92.132C207.769 92.132 207.357 92 207.101 91.736C206.853 91.472 206.729 91.076 206.729 90.548V87.056H206.069C205.941 87.056 205.837 87.02 205.757 86.948C205.685 86.868 205.649 86.764 205.649 86.636V86.504C205.649 86.368 205.685 86.264 205.757 86.192C205.837 86.12 205.941 86.084 206.069 86.084H206.729V84.596C206.729 84.46 206.765 84.356 206.837 84.284C206.917 84.212 207.021 84.176 207.149 84.176H207.581C207.717 84.176 207.821 84.212 207.893 84.284C207.965 84.356 208.001 84.46 208.001 84.596V86.084H209.081C209.217 86.084 209.321 86.12 209.393 86.192C209.465 86.264 209.501 86.368 209.501 86.504V86.636C209.501 86.764 209.465 86.868 209.393 86.948C209.321 87.02 209.217 87.056 209.081 87.056H208.001V90.392C208.001 90.624 208.049 90.788 208.145 90.884C208.249 90.98 208.413 91.028 208.637 91.028C208.733 91.028 208.865 91.016 209.033 90.992ZM211.196 84.932C210.964 84.932 210.768 84.856 210.608 84.704C210.448 84.544 210.368 84.356 210.368 84.14C210.368 83.916 210.448 83.728 210.608 83.576C210.768 83.424 210.964 83.348 211.196 83.348C211.428 83.348 211.624 83.424 211.784 83.576C211.944 83.728 212.024 83.916 212.024 84.14C212.024 84.356 211.944 84.544 211.784 84.704C211.624 84.856 211.428 84.932 211.196 84.932ZM210.968 92C210.84 92 210.736 91.964 210.656 91.892C210.584 91.812 210.548 91.708 210.548 91.58V86.504C210.548 86.368 210.584 86.264 210.656 86.192C210.736 86.12 210.84 86.084 210.968 86.084H211.4C211.536 86.084 211.64 86.12 211.712 86.192C211.784 86.264 211.82 86.368 211.82 86.504V91.58C211.82 91.708 211.784 91.812 211.712 91.892C211.64 91.964 211.536 92 211.4 92H210.968ZM216.303 85.904C216.983 85.904 217.503 86.096 217.863 86.48C218.231 86.856 218.415 87.344 218.415 87.944V91.58C218.415 91.708 218.379 91.812 218.307 91.892C218.235 91.964 218.131 92 217.995 92H217.563C217.435 92 217.331 91.964 217.251 91.892C217.179 91.812 217.143 91.708 217.143 91.58V88.34C217.143 87.908 217.035 87.576 216.819 87.344C216.611 87.112 216.311 86.996 215.919 86.996C215.535 86.996 215.211 87.128 214.947 87.392C214.691 87.656 214.563 87.988 214.563 88.388V91.58C214.563 91.708 214.527 91.812 214.455 91.892C214.383 91.964 214.279 92 214.143 92H213.711C213.583 92 213.479 91.964 213.399 91.892C213.327 91.812 213.291 91.708 213.291 91.58V86.504C213.291 86.368 213.327 86.264 213.399 86.192C213.479 86.12 213.583 86.084 213.711 86.084H214.059C214.195 86.084 214.299 86.12 214.371 86.192C214.443 86.264 214.479 86.368 214.479 86.504V86.816C214.671 86.52 214.923 86.296 215.235 86.144C215.547 85.984 215.903 85.904 216.303 85.904ZM224.041 86.468C224.041 86.348 224.077 86.256 224.149 86.192C224.229 86.12 224.333 86.084 224.461 86.084H224.797C224.933 86.084 225.037 86.12 225.109 86.192C225.181 86.264 225.217 86.368 225.217 86.504V91.784C225.217 92.576 224.961 93.192 224.449 93.632C223.945 94.072 223.273 94.292 222.433 94.292C221.593 94.292 220.801 94.076 220.057 93.644C219.905 93.564 219.829 93.456 219.829 93.32C219.829 93.248 219.861 93.16 219.925 93.056L220.081 92.828C220.169 92.692 220.277 92.624 220.405 92.624C220.493 92.624 220.581 92.652 220.669 92.708C220.989 92.892 221.285 93.024 221.557 93.104C221.829 93.192 222.117 93.236 222.421 93.236C222.885 93.236 223.257 93.108 223.537 92.852C223.825 92.604 223.969 92.212 223.969 91.676V91.04C223.569 91.608 222.969 91.892 222.169 91.892C221.673 91.892 221.225 91.768 220.825 91.52C220.433 91.264 220.125 90.912 219.901 90.464C219.685 90.008 219.577 89.488 219.577 88.904C219.577 88.32 219.685 87.804 219.901 87.356C220.125 86.9 220.433 86.544 220.825 86.288C221.225 86.032 221.673 85.904 222.169 85.904C223.017 85.904 223.641 86.22 224.041 86.852V86.468ZM222.421 90.824C222.885 90.824 223.265 90.648 223.561 90.296C223.857 89.936 224.005 89.472 224.005 88.904C224.005 88.344 223.857 87.888 223.561 87.536C223.273 87.176 222.893 86.996 222.421 86.996C221.941 86.996 221.561 87.172 221.281 87.524C221.001 87.876 220.861 88.336 220.861 88.904C220.861 89.48 221.001 89.944 221.281 90.296C221.561 90.648 221.941 90.824 222.421 90.824ZM228.965 92.18C228.477 92.18 228.041 92.12 227.657 92C227.281 91.872 226.897 91.652 226.505 91.34C226.385 91.252 226.325 91.152 226.325 91.04C226.325 90.952 226.369 90.856 226.457 90.752L226.637 90.548C226.733 90.436 226.837 90.38 226.949 90.38C227.037 90.38 227.133 90.42 227.237 90.5C227.573 90.748 227.869 90.92 228.125 91.016C228.381 91.104 228.669 91.148 228.989 91.148C229.333 91.148 229.613 91.08 229.829 90.944C230.053 90.8 230.165 90.608 230.165 90.368C230.165 90.184 230.101 90.04 229.973 89.936C229.853 89.824 229.693 89.74 229.493 89.684C229.293 89.62 228.997 89.548 228.605 89.468C228.053 89.348 227.621 89.22 227.309 89.084C227.005 88.94 226.785 88.76 226.649 88.544C226.513 88.328 226.445 88.052 226.445 87.716C226.445 87.372 226.541 87.064 226.733 86.792C226.933 86.52 227.209 86.304 227.561 86.144C227.921 85.984 228.341 85.904 228.821 85.904C229.253 85.904 229.637 85.952 229.973 86.048C230.317 86.144 230.653 86.308 230.981 86.54C231.109 86.636 231.173 86.744 231.173 86.864C231.173 86.944 231.133 87.036 231.053 87.14L230.897 87.332C230.809 87.444 230.701 87.5 230.573 87.5C230.477 87.5 230.385 87.468 230.297 87.404C230.033 87.228 229.789 87.108 229.565 87.044C229.341 86.972 229.089 86.936 228.809 86.936C228.465 86.936 228.189 87.004 227.981 87.14C227.773 87.276 227.669 87.452 227.669 87.668C227.669 87.812 227.717 87.928 227.813 88.016C227.917 88.096 228.061 88.168 228.245 88.232C228.437 88.288 228.737 88.36 229.145 88.448C229.697 88.568 230.133 88.704 230.453 88.856C230.781 89 231.021 89.188 231.173 89.42C231.333 89.644 231.413 89.936 231.413 90.296C231.413 90.856 231.189 91.312 230.741 91.664C230.301 92.008 229.709 92.18 228.965 92.18Z" fill="#474445"/>
<rect x="155.5" y="72.5" width="84" height="31" rx="3.5" stroke="#C3CCD9"/>
<circle cx="170.953" cy="189.953" r="2" stroke="#767676" stroke-width="1.5"/>
<path d="M170.035 183.534C170.303 182.551 171.697 182.551 171.965 183.534L172.306 184.782C172.478 185.413 173.199 185.711 173.766 185.387L174.89 184.745C175.774 184.24 176.76 185.226 176.255 186.11L175.613 187.234C175.289 187.801 175.587 188.522 176.218 188.694L177.466 189.035C178.449 189.303 178.449 190.697 177.466 190.965L176.218 191.306C175.587 191.478 175.289 192.199 175.613 192.766L176.255 193.89C176.76 194.774 175.774 195.76 174.89 195.255L173.766 194.613C173.199 194.289 172.478 194.587 172.306 195.218L171.965 196.466C171.697 197.449 170.303 197.449 170.035 196.466L169.694 195.218C169.522 194.587 168.801 194.289 168.234 194.613L167.11 195.255C166.226 195.76 165.24 194.774 165.745 193.89L166.387 192.766C166.711 192.199 166.413 191.478 165.782 191.306L164.534 190.965C163.551 190.697 163.551 189.303 164.534 189.035L165.782 188.694C166.413 188.522 166.711 187.801 166.387 187.234L165.745 186.11C165.24 185.226 166.226 184.24 167.11 184.745L168.234 185.387C168.801 185.711 169.522 185.413 169.694 184.782L170.035 183.534Z" stroke="#767676" stroke-width="1.5"/>
<path d="M190.924 194.192C190.268 194.192 189.68 194.1 189.16 193.916C188.648 193.724 188.12 193.404 187.576 192.956C187.464 192.868 187.408 192.764 187.408 192.644C187.408 192.54 187.448 192.444 187.528 192.356L187.804 192.032C187.892 191.92 187.992 191.864 188.104 191.864C188.192 191.864 188.292 191.908 188.404 191.996C188.884 192.38 189.312 192.644 189.688 192.788C190.072 192.932 190.492 193.004 190.948 193.004C191.5 193.004 191.948 192.88 192.292 192.632C192.636 192.376 192.808 192.028 192.808 191.588C192.808 191.3 192.72 191.076 192.544 190.916C192.368 190.748 192.14 190.62 191.86 190.532C191.588 190.444 191.144 190.328 190.528 190.184C189.784 190.008 189.204 189.816 188.788 189.608C188.372 189.4 188.072 189.152 187.888 188.864C187.712 188.568 187.624 188.196 187.624 187.748C187.624 187.276 187.76 186.852 188.032 186.476C188.304 186.1 188.676 185.808 189.148 185.6C189.628 185.392 190.164 185.288 190.756 185.288C191.356 185.288 191.884 185.368 192.34 185.528C192.804 185.688 193.268 185.948 193.732 186.308C193.852 186.404 193.912 186.504 193.912 186.608C193.912 186.696 193.872 186.792 193.792 186.896L193.528 187.208C193.432 187.32 193.332 187.376 193.228 187.376C193.132 187.376 193.032 187.336 192.928 187.256C192.544 186.96 192.188 186.756 191.86 186.644C191.532 186.532 191.16 186.476 190.744 186.476C190.216 186.476 189.788 186.592 189.46 186.824C189.132 187.056 188.968 187.348 188.968 187.7C188.968 187.956 189.044 188.16 189.196 188.312C189.348 188.464 189.568 188.588 189.856 188.684C190.144 188.78 190.588 188.896 191.188 189.032C191.916 189.208 192.492 189.396 192.916 189.596C193.34 189.788 193.656 190.036 193.864 190.34C194.072 190.644 194.176 191.032 194.176 191.504C194.176 192.032 194.04 192.5 193.768 192.908C193.496 193.316 193.116 193.632 192.628 193.856C192.14 194.08 191.572 194.192 190.924 194.192ZM199.644 192.488C199.748 192.4 199.848 192.356 199.944 192.356C200.04 192.356 200.14 192.408 200.244 192.512L200.412 192.692C200.5 192.796 200.544 192.896 200.544 192.992C200.544 193.096 200.492 193.196 200.388 193.292C200.02 193.612 199.652 193.84 199.284 193.976C198.924 194.112 198.524 194.18 198.084 194.18C197.468 194.18 196.932 194.052 196.476 193.796C196.028 193.54 195.68 193.18 195.432 192.716C195.192 192.244 195.072 191.7 195.072 191.084C195.072 190.476 195.188 189.932 195.42 189.452C195.66 188.964 195.996 188.584 196.428 188.312C196.868 188.04 197.38 187.904 197.964 187.904C198.836 187.904 199.508 188.164 199.98 188.684C200.452 189.196 200.688 189.904 200.688 190.808V190.916C200.68 191.044 200.64 191.144 200.568 191.216C200.496 191.288 200.392 191.324 200.256 191.324H196.32C196.368 191.852 196.54 192.284 196.836 192.62C197.14 192.948 197.564 193.112 198.108 193.112C198.404 193.112 198.664 193.068 198.888 192.98C199.112 192.884 199.364 192.72 199.644 192.488ZM197.94 188.912C197.5 188.912 197.144 189.044 196.872 189.308C196.608 189.564 196.436 189.928 196.356 190.4H199.44C199.408 189.936 199.264 189.572 199.008 189.308C198.752 189.044 198.396 188.912 197.94 188.912ZM204.639 192.992C204.663 192.984 204.699 192.98 204.747 192.98C204.947 192.98 205.067 193.096 205.107 193.328L205.143 193.52C205.151 193.544 205.155 193.584 205.155 193.64C205.155 193.84 205.043 193.968 204.819 194.024C204.499 194.096 204.207 194.132 203.943 194.132C203.375 194.132 202.963 194 202.707 193.736C202.459 193.472 202.335 193.076 202.335 192.548V189.056H201.675C201.547 189.056 201.443 189.02 201.363 188.948C201.291 188.868 201.255 188.764 201.255 188.636V188.504C201.255 188.368 201.291 188.264 201.363 188.192C201.443 188.12 201.547 188.084 201.675 188.084H202.335V186.596C202.335 186.46 202.371 186.356 202.443 186.284C202.523 186.212 202.627 186.176 202.755 186.176H203.187C203.323 186.176 203.427 186.212 203.499 186.284C203.571 186.356 203.607 186.46 203.607 186.596V188.084H204.687C204.823 188.084 204.927 188.12 204.999 188.192C205.071 188.264 205.107 188.368 205.107 188.504V188.636C205.107 188.764 205.071 188.868 204.999 188.948C204.927 189.02 204.823 189.056 204.687 189.056H203.607V192.392C203.607 192.624 203.655 192.788 203.751 192.884C203.855 192.98 204.019 193.028 204.243 193.028C204.339 193.028 204.471 193.016 204.639 192.992ZM209.033 192.992C209.057 192.984 209.093 192.98 209.141 192.98C209.341 192.98 209.461 193.096 209.501 193.328L209.537 193.52C209.545 193.544 209.549 193.584 209.549 193.64C209.549 193.84 209.437 193.968 209.213 194.024C208.893 194.096 208.601 194.132 208.337 194.132C207.769 194.132 207.357 194 207.101 193.736C206.853 193.472 206.729 193.076 206.729 192.548V189.056H206.069C205.941 189.056 205.837 189.02 205.757 188.948C205.685 188.868 205.649 188.764 205.649 188.636V188.504C205.649 188.368 205.685 188.264 205.757 188.192C205.837 188.12 205.941 188.084 206.069 188.084H206.729V186.596C206.729 186.46 206.765 186.356 206.837 186.284C206.917 186.212 207.021 186.176 207.149 186.176H207.581C207.717 186.176 207.821 186.212 207.893 186.284C207.965 186.356 208.001 186.46 208.001 186.596V188.084H209.081C209.217 188.084 209.321 188.12 209.393 188.192C209.465 188.264 209.501 188.368 209.501 188.504V188.636C209.501 188.764 209.465 188.868 209.393 188.948C209.321 189.02 209.217 189.056 209.081 189.056H208.001V192.392C208.001 192.624 208.049 192.788 208.145 192.884C208.249 192.98 208.413 193.028 208.637 193.028C208.733 193.028 208.865 193.016 209.033 192.992ZM211.196 186.932C210.964 186.932 210.768 186.856 210.608 186.704C210.448 186.544 210.368 186.356 210.368 186.14C210.368 185.916 210.448 185.728 210.608 185.576C210.768 185.424 210.964 185.348 211.196 185.348C211.428 185.348 211.624 185.424 211.784 185.576C211.944 185.728 212.024 185.916 212.024 186.14C212.024 186.356 211.944 186.544 211.784 186.704C211.624 186.856 211.428 186.932 211.196 186.932ZM210.968 194C210.84 194 210.736 193.964 210.656 193.892C210.584 193.812 210.548 193.708 210.548 193.58V188.504C210.548 188.368 210.584 188.264 210.656 188.192C210.736 188.12 210.84 188.084 210.968 188.084H211.4C211.536 188.084 211.64 188.12 211.712 188.192C211.784 188.264 211.82 188.368 211.82 188.504V193.58C211.82 193.708 211.784 193.812 211.712 193.892C211.64 193.964 211.536 194 211.4 194H210.968ZM216.303 187.904C216.983 187.904 217.503 188.096 217.863 188.48C218.231 188.856 218.415 189.344 218.415 189.944V193.58C218.415 193.708 218.379 193.812 218.307 193.892C218.235 193.964 218.131 194 217.995 194H217.563C217.435 194 217.331 193.964 217.251 193.892C217.179 193.812 217.143 193.708 217.143 193.58V190.34C217.143 189.908 217.035 189.576 216.819 189.344C216.611 189.112 216.311 188.996 215.919 188.996C215.535 188.996 215.211 189.128 214.947 189.392C214.691 189.656 214.563 189.988 214.563 190.388V193.58C214.563 193.708 214.527 193.812 214.455 193.892C214.383 193.964 214.279 194 214.143 194H213.711C213.583 194 213.479 193.964 213.399 193.892C213.327 193.812 213.291 193.708 213.291 193.58V188.504C213.291 188.368 213.327 188.264 213.399 188.192C213.479 188.12 213.583 188.084 213.711 188.084H214.059C214.195 188.084 214.299 188.12 214.371 188.192C214.443 188.264 214.479 188.368 214.479 188.504V188.816C214.671 188.52 214.923 188.296 215.235 188.144C215.547 187.984 215.903 187.904 216.303 187.904ZM224.041 188.468C224.041 188.348 224.077 188.256 224.149 188.192C224.229 188.12 224.333 188.084 224.461 188.084H224.797C224.933 188.084 225.037 188.12 225.109 188.192C225.181 188.264 225.217 188.368 225.217 188.504V193.784C225.217 194.576 224.961 195.192 224.449 195.632C223.945 196.072 223.273 196.292 222.433 196.292C221.593 196.292 220.801 196.076 220.057 195.644C219.905 195.564 219.829 195.456 219.829 195.32C219.829 195.248 219.861 195.16 219.925 195.056L220.081 194.828C220.169 194.692 220.277 194.624 220.405 194.624C220.493 194.624 220.581 194.652 220.669 194.708C220.989 194.892 221.285 195.024 221.557 195.104C221.829 195.192 222.117 195.236 222.421 195.236C222.885 195.236 223.257 195.108 223.537 194.852C223.825 194.604 223.969 194.212 223.969 193.676V193.04C223.569 193.608 222.969 193.892 222.169 193.892C221.673 193.892 221.225 193.768 220.825 193.52C220.433 193.264 220.125 192.912 219.901 192.464C219.685 192.008 219.577 191.488 219.577 190.904C219.577 190.32 219.685 189.804 219.901 189.356C220.125 188.9 220.433 188.544 220.825 188.288C221.225 188.032 221.673 187.904 222.169 187.904C223.017 187.904 223.641 188.22 224.041 188.852V188.468ZM222.421 192.824C222.885 192.824 223.265 192.648 223.561 192.296C223.857 191.936 224.005 191.472 224.005 190.904C224.005 190.344 223.857 189.888 223.561 189.536C223.273 189.176 222.893 188.996 222.421 188.996C221.941 188.996 221.561 189.172 221.281 189.524C221.001 189.876 220.861 190.336 220.861 190.904C220.861 191.48 221.001 191.944 221.281 192.296C221.561 192.648 221.941 192.824 222.421 192.824ZM228.965 194.18C228.477 194.18 228.041 194.12 227.657 194C227.281 193.872 226.897 193.652 226.505 193.34C226.385 193.252 226.325 193.152 226.325 193.04C226.325 192.952 226.369 192.856 226.457 192.752L226.637 192.548C226.733 192.436 226.837 192.38 226.949 192.38C227.037 192.38 227.133 192.42 227.237 192.5C227.573 192.748 227.869 192.92 228.125 193.016C228.381 193.104 228.669 193.148 228.989 193.148C229.333 193.148 229.613 193.08 229.829 192.944C230.053 192.8 230.165 192.608 230.165 192.368C230.165 192.184 230.101 192.04 229.973 191.936C229.853 191.824 229.693 191.74 229.493 191.684C229.293 191.62 228.997 191.548 228.605 191.468C228.053 191.348 227.621 191.22 227.309 191.084C227.005 190.94 226.785 190.76 226.649 190.544C226.513 190.328 226.445 190.052 226.445 189.716C226.445 189.372 226.541 189.064 226.733 188.792C226.933 188.52 227.209 188.304 227.561 188.144C227.921 187.984 228.341 187.904 228.821 187.904C229.253 187.904 229.637 187.952 229.973 188.048C230.317 188.144 230.653 188.308 230.981 188.54C231.109 188.636 231.173 188.744 231.173 188.864C231.173 188.944 231.133 189.036 231.053 189.14L230.897 189.332C230.809 189.444 230.701 189.5 230.573 189.5C230.477 189.5 230.385 189.468 230.297 189.404C230.033 189.228 229.789 189.108 229.565 189.044C229.341 188.972 229.089 188.936 228.809 188.936C228.465 188.936 228.189 189.004 227.981 189.14C227.773 189.276 227.669 189.452 227.669 189.668C227.669 189.812 227.717 189.928 227.813 190.016C227.917 190.096 228.061 190.168 228.245 190.232C228.437 190.288 228.737 190.36 229.145 190.448C229.697 190.568 230.133 190.704 230.453 190.856C230.781 191 231.021 191.188 231.173 191.42C231.333 191.644 231.413 191.936 231.413 192.296C231.413 192.856 231.189 193.312 230.741 193.664C230.301 194.008 229.709 194.18 228.965 194.18Z" fill="#474445"/>
<path d="M38.852 43.72C38.852 43.56 38.932 43.48 39.092 43.48H39.44C39.6 43.48 39.68 43.56 39.68 43.72V51.76C39.68 51.92 39.6 52 39.44 52H38.9C38.772 52 38.672 51.948 38.6 51.844L36.02 47.932L35.876 47.704C34.916 46.264 34.228 45.204 33.812 44.524C33.844 45.46 33.86 46.54 33.86 47.764V51.76C33.86 51.92 33.78 52 33.62 52H33.272C33.112 52 33.032 51.92 33.032 51.76V43.72C33.032 43.56 33.112 43.48 33.272 43.48H33.812C33.94 43.48 34.04 43.532 34.112 43.636L36.68 47.536L37.136 48.244C37.944 49.468 38.532 50.38 38.9 50.98C38.868 50.028 38.852 48.944 38.852 47.728V43.72ZM44.043 52.156C43.491 52.156 42.999 52.024 42.567 51.76C42.135 51.496 41.799 51.132 41.559 50.668C41.319 50.196 41.199 49.656 41.199 49.048C41.199 48.44 41.319 47.904 41.559 47.44C41.799 46.968 42.135 46.6 42.567 46.336C42.999 46.072 43.491 45.94 44.043 45.94C44.595 45.94 45.087 46.072 45.519 46.336C45.951 46.6 46.287 46.968 46.527 47.44C46.767 47.904 46.887 48.44 46.887 49.048C46.887 49.656 46.767 50.196 46.527 50.668C46.287 51.132 45.951 51.496 45.519 51.76C45.087 52.024 44.595 52.156 44.043 52.156ZM44.043 51.496C44.659 51.496 45.151 51.272 45.519 50.824C45.887 50.368 46.071 49.776 46.071 49.048C46.071 48.32 45.887 47.732 45.519 47.284C45.151 46.828 44.659 46.6 44.043 46.6C43.427 46.6 42.935 46.828 42.567 47.284C42.199 47.732 42.015 48.32 42.015 49.048C42.015 49.776 42.199 50.368 42.567 50.824C42.935 51.272 43.427 51.496 44.043 51.496ZM50.7512 51.34C50.7752 51.332 50.8072 51.328 50.8472 51.328C50.8952 51.328 50.9392 51.344 50.9792 51.376C51.0192 51.408 51.0432 51.452 51.0512 51.508L51.0872 51.676C51.0952 51.692 51.0992 51.72 51.0992 51.76C51.0992 51.872 51.0392 51.94 50.9192 51.964C50.6312 52.052 50.3232 52.096 49.9952 52.096C49.4752 52.096 49.1032 51.98 48.8792 51.748C48.6632 51.508 48.5552 51.164 48.5552 50.716V46.684H47.6672C47.5072 46.684 47.4272 46.604 47.4272 46.444V46.324C47.4272 46.164 47.5072 46.084 47.6672 46.084H48.5552V44.26C48.5552 44.1 48.6352 44.02 48.7952 44.02H49.1072C49.2672 44.02 49.3472 44.1 49.3472 44.26V46.084H50.7872C50.9472 46.084 51.0272 46.164 51.0272 46.324V46.444C51.0272 46.604 50.9472 46.684 50.7872 46.684H49.3472V50.62C49.3472 50.916 49.4032 51.124 49.5152 51.244C49.6272 51.364 49.8192 51.424 50.0912 51.424C50.2832 51.424 50.5032 51.396 50.7512 51.34ZM52.0264 48.916C51.8664 48.916 51.7864 48.836 51.7864 48.676V48.448C51.7864 48.288 51.8664 48.208 52.0264 48.208H54.9304C55.0904 48.208 55.1704 48.288 55.1704 48.448V48.676C55.1704 48.836 55.0904 48.916 54.9304 48.916H52.0264ZM59.0385 43.996C58.6785 43.996 58.4225 44.092 58.2705 44.284C58.1185 44.468 58.0425 44.78 58.0425 45.22V46.084H59.3625C59.5225 46.084 59.6025 46.164 59.6025 46.324V46.444C59.6025 46.604 59.5225 46.684 59.3625 46.684H58.0425V51.76C58.0425 51.92 57.9625 52 57.8025 52H57.4905C57.3305 52 57.2505 51.92 57.2505 51.76V46.684H56.3625C56.2025 46.684 56.1225 46.604 56.1225 46.444V46.324C56.1225 46.164 56.2025 46.084 56.3625 46.084H57.2505V45.088C57.2505 44.536 57.3945 44.104 57.6825 43.792C57.9785 43.48 58.3985 43.324 58.9425 43.324C59.2465 43.324 59.5585 43.368 59.8785 43.456C60.0305 43.504 60.0865 43.604 60.0465 43.756L59.9985 43.924C59.9585 44.036 59.8785 44.092 59.7585 44.092C59.7345 44.092 59.6825 44.084 59.6025 44.068C59.4265 44.02 59.2385 43.996 59.0385 43.996ZM61.0189 52C60.8589 52 60.7789 51.92 60.7789 51.76V43.72C60.7789 43.56 60.8589 43.48 61.0189 43.48H61.3309C61.4909 43.48 61.5709 43.56 61.5709 43.72V51.76C61.5709 51.92 61.4909 52 61.3309 52H61.0189ZM65.6367 45.94C66.3648 45.94 66.9328 46.116 67.3408 46.468C67.7488 46.812 67.9528 47.268 67.9528 47.836V51.76C67.9528 51.92 67.8728 52 67.7128 52H67.4728C67.3128 52 67.2328 51.92 67.2328 51.76V51.22C67.0328 51.54 66.7488 51.78 66.3808 51.94C66.0208 52.1 65.6168 52.18 65.1688 52.18C64.5448 52.18 64.0368 52.048 63.6448 51.784C63.2528 51.52 63.0568 51.112 63.0568 50.56C63.0568 50.12 63.1808 49.768 63.4288 49.504C63.6768 49.232 64.0008 49.028 64.4008 48.892C64.8008 48.748 65.3008 48.62 65.9008 48.508L67.1968 48.28V47.896C67.1968 47.488 67.0568 47.172 66.7768 46.948C66.4968 46.716 66.1288 46.6 65.6728 46.6C65.3288 46.6 65.0168 46.664 64.7368 46.792C64.4568 46.92 64.1568 47.14 63.8368 47.452C63.7808 47.508 63.7208 47.536 63.6568 47.536C63.6008 47.536 63.5488 47.512 63.5008 47.464L63.3448 47.32C63.2888 47.264 63.2607 47.204 63.2607 47.14C63.2607 47.068 63.2888 47.004 63.3448 46.948C63.6808 46.596 64.0328 46.34 64.4008 46.18C64.7768 46.02 65.1888 45.94 65.6367 45.94ZM65.2048 51.52C65.7808 51.52 66.2568 51.368 66.6328 51.064C67.0088 50.76 67.1968 50.372 67.1968 49.9V48.892L66.0808 49.108C65.5608 49.212 65.1488 49.312 64.8448 49.408C64.5408 49.504 64.2968 49.644 64.1128 49.828C63.9288 50.012 63.8368 50.252 63.8368 50.548C63.8368 50.852 63.9568 51.092 64.1968 51.268C64.4448 51.436 64.7808 51.52 65.2048 51.52ZM72.2083 51.34C72.2323 51.332 72.2643 51.328 72.3043 51.328C72.3523 51.328 72.3963 51.344 72.4363 51.376C72.4763 51.408 72.5003 51.452 72.5083 51.508L72.5443 51.676C72.5523 51.692 72.5563 51.72 72.5563 51.76C72.5563 51.872 72.4963 51.94 72.3763 51.964C72.0883 52.052 71.7803 52.096 71.4523 52.096C70.9323 52.096 70.5603 51.98 70.3363 51.748C70.1203 51.508 70.0123 51.164 70.0123 50.716V46.684H69.1243C68.9643 46.684 68.8843 46.604 68.8843 46.444V46.324C68.8843 46.164 68.9643 46.084 69.1243 46.084H70.0123V44.26C70.0123 44.1 70.0923 44.02 70.2523 44.02H70.5643C70.7243 44.02 70.8043 44.1 70.8043 44.26V46.084H72.2443C72.4043 46.084 72.4843 46.164 72.4843 46.324V46.444C72.4843 46.604 72.4043 46.684 72.2443 46.684H70.8043V50.62C70.8043 50.916 70.8603 51.124 70.9723 51.244C71.0843 51.364 71.2763 51.424 71.5483 51.424C71.7403 51.424 71.9603 51.396 72.2083 51.34Z" fill="#767676"/>
<path d="M33.272 154C33.112 154 33.032 153.92 33.032 153.76V145.72C33.032 145.56 33.112 145.48 33.272 145.48H38.312C38.472 145.48 38.552 145.56 38.552 145.72V145.948C38.552 146.108 38.472 146.188 38.312 146.188H33.884V149.428H37.94C38.1 149.428 38.18 149.508 38.18 149.668V149.896C38.18 150.056 38.1 150.136 37.94 150.136H33.884V153.76C33.884 153.92 33.804 154 33.644 154H33.272ZM40.183 154C40.023 154 39.943 153.92 39.943 153.76V145.72C39.943 145.56 40.023 145.48 40.183 145.48H40.495C40.655 145.48 40.735 145.56 40.735 145.72V153.76C40.735 153.92 40.655 154 40.495 154H40.183ZM44.8008 147.94C45.5288 147.94 46.0968 148.116 46.5048 148.468C46.9128 148.812 47.1168 149.268 47.1168 149.836V153.76C47.1168 153.92 47.0368 154 46.8768 154H46.6368C46.4768 154 46.3968 153.92 46.3968 153.76V153.22C46.1968 153.54 45.9128 153.78 45.5448 153.94C45.1848 154.1 44.7808 154.18 44.3328 154.18C43.7088 154.18 43.2008 154.048 42.8088 153.784C42.4168 153.52 42.2208 153.112 42.2208 152.56C42.2208 152.12 42.3448 151.768 42.5928 151.504C42.8408 151.232 43.1648 151.028 43.5648 150.892C43.9648 150.748 44.4648 150.62 45.0648 150.508L46.3608 150.28V149.896C46.3608 149.488 46.2208 149.172 45.9408 148.948C45.6608 148.716 45.2928 148.6 44.8368 148.6C44.4928 148.6 44.1808 148.664 43.9008 148.792C43.6208 148.92 43.3208 149.14 43.0008 149.452C42.9448 149.508 42.8848 149.536 42.8208 149.536C42.7648 149.536 42.7128 149.512 42.6648 149.464L42.5088 149.32C42.4528 149.264 42.4248 149.204 42.4248 149.14C42.4248 149.068 42.4528 149.004 42.5088 148.948C42.8448 148.596 43.1968 148.34 43.5648 148.18C43.9408 148.02 44.3528 147.94 44.8008 147.94ZM44.3688 153.52C44.9448 153.52 45.4208 153.368 45.7968 153.064C46.1728 152.76 46.3608 152.372 46.3608 151.9V150.892L45.2448 151.108C44.7248 151.212 44.3128 151.312 44.0088 151.408C43.7048 151.504 43.4608 151.644 43.2768 151.828C43.0928 152.012 43.0008 152.252 43.0008 152.548C43.0008 152.852 43.1208 153.092 43.3608 153.268C43.6088 153.436 43.9448 153.52 44.3688 153.52ZM51.3723 153.34C51.3963 153.332 51.4283 153.328 51.4683 153.328C51.5163 153.328 51.5603 153.344 51.6003 153.376C51.6403 153.408 51.6643 153.452 51.6723 153.508L51.7083 153.676C51.7163 153.692 51.7203 153.72 51.7203 153.76C51.7203 153.872 51.6603 153.94 51.5403 153.964C51.2523 154.052 50.9443 154.096 50.6163 154.096C50.0963 154.096 49.7243 153.98 49.5003 153.748C49.2843 153.508 49.1763 153.164 49.1763 152.716V148.684H48.2883C48.1283 148.684 48.0483 148.604 48.0483 148.444V148.324C48.0483 148.164 48.1283 148.084 48.2883 148.084H49.1763V146.26C49.1763 146.1 49.2563 146.02 49.4163 146.02H49.7283C49.8883 146.02 49.9683 146.1 49.9683 146.26V148.084H51.4083C51.5683 148.084 51.6483 148.164 51.6483 148.324V148.444C51.6483 148.604 51.5683 148.684 51.4083 148.684H49.9683V152.62C49.9683 152.916 50.0243 153.124 50.1363 153.244C50.2483 153.364 50.4403 153.424 50.7123 153.424C50.9043 153.424 51.1243 153.396 51.3723 153.34Z" fill="#767676"/>
</svg>
