<svg width="344" height="372" viewBox="0 0 344 372" fill="none" xmlns="http://www.w3.org/2000/svg">
<rect width="344" height="372" fill="#F5F5F5"/>
<rect x="32.5" y="72.5" width="90" height="31" rx="3.5" fill="white"/>
<path d="M42.5 88H53.5" stroke="#767676" stroke-width="1.5" stroke-linecap="round" stroke-linejoin="round"/>
<path d="M48 82.5V93.5" stroke="#767676" stroke-width="1.5" stroke-linecap="round" stroke-linejoin="round"/>
<path d="M71.044 92C70.804 92 70.644 91.888 70.564 91.664L70 90.044H66.232L65.668 91.664C65.588 91.888 65.428 92 65.188 92H64.684C64.564 92 64.468 91.976 64.396 91.928C64.332 91.872 64.3 91.796 64.3 91.7C64.3 91.652 64.312 91.592 64.336 91.52L67.12 83.816C67.2 83.592 67.36 83.48 67.6 83.48H68.668C68.908 83.48 69.068 83.592 69.148 83.816L71.932 91.52C71.956 91.592 71.968 91.652 71.968 91.7C71.968 91.796 71.932 91.872 71.86 91.928C71.796 91.976 71.704 92 71.584 92H71.044ZM69.616 88.904L69.244 87.848C69.236 87.832 69.148 87.58 68.98 87.092C68.556 85.892 68.268 85.036 68.116 84.524C67.884 85.26 67.576 86.172 67.192 87.26L66.988 87.86L66.628 88.904H69.616ZM77.1108 83.888C77.1108 83.752 77.1468 83.648 77.2188 83.576C77.2988 83.504 77.4028 83.468 77.5308 83.468H77.9628C78.0988 83.468 78.2028 83.504 78.2748 83.576C78.3468 83.648 78.3828 83.752 78.3828 83.888V91.58C78.3828 91.708 78.3468 91.812 78.2748 91.892C78.2028 91.964 78.0988 92 77.9628 92H77.6148C77.4868 92 77.3828 91.964 77.3028 91.892C77.2308 91.812 77.1948 91.708 77.1948 91.58V91.16C76.7788 91.832 76.1268 92.168 75.2388 92.168C74.7428 92.168 74.2948 92.04 73.8948 91.784C73.5028 91.528 73.1948 91.164 72.9708 90.692C72.7468 90.22 72.6348 89.672 72.6348 89.048C72.6348 88.432 72.7468 87.888 72.9708 87.416C73.2028 86.944 73.5188 86.58 73.9188 86.324C74.3188 86.068 74.7668 85.94 75.2628 85.94C76.0788 85.94 76.6948 86.224 77.1108 86.792V83.888ZM75.5028 91.076C75.9908 91.076 76.3908 90.896 76.7028 90.536C77.0148 90.168 77.1708 89.672 77.1708 89.048C77.1708 88.424 77.0148 87.932 76.7028 87.572C76.3908 87.212 75.9908 87.032 75.5028 87.032C75.0308 87.032 74.6508 87.216 74.3628 87.584C74.0748 87.952 73.9308 88.44 73.9308 89.048C73.9308 89.664 74.0708 90.156 74.3508 90.524C74.6388 90.892 75.0228 91.076 75.5028 91.076ZM84.0249 83.888C84.0249 83.752 84.0609 83.648 84.1329 83.576C84.2129 83.504 84.3169 83.468 84.4449 83.468H84.8769C85.0129 83.468 85.1169 83.504 85.1889 83.576C85.2609 83.648 85.2969 83.752 85.2969 83.888V91.58C85.2969 91.708 85.2609 91.812 85.1889 91.892C85.1169 91.964 85.0129 92 84.8769 92H84.5289C84.4009 92 84.2969 91.964 84.2169 91.892C84.1449 91.812 84.1089 91.708 84.1089 91.58V91.16C83.6929 91.832 83.0409 92.168 82.1529 92.168C81.6569 92.168 81.2089 92.04 80.8089 91.784C80.4169 91.528 80.1089 91.164 79.8849 90.692C79.6609 90.22 79.5489 89.672 79.5489 89.048C79.5489 88.432 79.6609 87.888 79.8849 87.416C80.1169 86.944 80.4329 86.58 80.8329 86.324C81.2329 86.068 81.6809 85.94 82.1769 85.94C82.9929 85.94 83.6089 86.224 84.0249 86.792V83.888ZM82.4169 91.076C82.9049 91.076 83.3049 90.896 83.6169 90.536C83.9289 90.168 84.0849 89.672 84.0849 89.048C84.0849 88.424 83.9289 87.932 83.6169 87.572C83.3049 87.212 82.9049 87.032 82.4169 87.032C81.9449 87.032 81.5649 87.216 81.2769 87.584C80.9889 87.952 80.8449 88.44 80.8449 89.048C80.8449 89.664 80.9849 90.156 81.2649 90.524C81.5529 90.892 81.9369 91.076 82.4169 91.076ZM92.7902 84.932C92.5582 84.932 92.3622 84.856 92.2022 84.704C92.0422 84.544 91.9622 84.356 91.9622 84.14C91.9622 83.916 92.0422 83.728 92.2022 83.576C92.3622 83.424 92.5582 83.348 92.7902 83.348C93.0222 83.348 93.2182 83.424 93.3782 83.576C93.5382 83.728 93.6182 83.916 93.6182 84.14C93.6182 84.356 93.5382 84.544 93.3782 84.704C93.2182 84.856 93.0222 84.932 92.7902 84.932ZM92.5622 92C92.4342 92 92.3302 91.964 92.2502 91.892C92.1782 91.812 92.1422 91.708 92.1422 91.58V86.504C92.1422 86.368 92.1782 86.264 92.2502 86.192C92.3302 86.12 92.4342 86.084 92.5622 86.084H92.9942C93.1302 86.084 93.2342 86.12 93.3062 86.192C93.3782 86.264 93.4142 86.368 93.4142 86.504V91.58C93.4142 91.708 93.3782 91.812 93.3062 91.892C93.2342 91.964 93.1302 92 92.9942 92H92.5622ZM97.7403 90.992C97.7643 90.984 97.8003 90.98 97.8483 90.98C98.0483 90.98 98.1683 91.096 98.2083 91.328L98.2443 91.52C98.2523 91.544 98.2563 91.584 98.2563 91.64C98.2563 91.84 98.1443 91.968 97.9203 92.024C97.6003 92.096 97.3083 92.132 97.0443 92.132C96.4763 92.132 96.0643 92 95.8083 91.736C95.5603 91.472 95.4363 91.076 95.4363 90.548V87.056H94.7763C94.6483 87.056 94.5443 87.02 94.4643 86.948C94.3923 86.868 94.3563 86.764 94.3563 86.636V86.504C94.3563 86.368 94.3923 86.264 94.4643 86.192C94.5443 86.12 94.6483 86.084 94.7763 86.084H95.4363V84.596C95.4363 84.46 95.4723 84.356 95.5443 84.284C95.6243 84.212 95.7283 84.176 95.8563 84.176H96.2883C96.4243 84.176 96.5283 84.212 96.6003 84.284C96.6723 84.356 96.7083 84.46 96.7083 84.596V86.084H97.7883C97.9243 86.084 98.0283 86.12 98.1003 86.192C98.1723 86.264 98.2083 86.368 98.2083 86.504V86.636C98.2083 86.764 98.1723 86.868 98.1003 86.948C98.0283 87.02 97.9243 87.056 97.7883 87.056H96.7083V90.392C96.7083 90.624 96.7563 90.788 96.8523 90.884C96.9563 90.98 97.1203 91.028 97.3443 91.028C97.4403 91.028 97.5723 91.016 97.7403 90.992ZM103.304 90.488C103.408 90.4 103.508 90.356 103.604 90.356C103.7 90.356 103.8 90.408 103.904 90.512L104.072 90.692C104.16 90.796 104.204 90.896 104.204 90.992C104.204 91.096 104.152 91.196 104.048 91.292C103.68 91.612 103.312 91.84 102.944 91.976C102.584 92.112 102.184 92.18 101.744 92.18C101.128 92.18 100.592 92.052 100.136 91.796C99.6879 91.54 99.3399 91.18 99.0919 90.716C98.8519 90.244 98.7319 89.7 98.7319 89.084C98.7319 88.476 98.8479 87.932 99.0799 87.452C99.3199 86.964 99.6559 86.584 100.088 86.312C100.528 86.04 101.04 85.904 101.624 85.904C102.496 85.904 103.168 86.164 103.64 86.684C104.112 87.196 104.348 87.904 104.348 88.808V88.916C104.34 89.044 104.3 89.144 104.228 89.216C104.156 89.288 104.052 89.324 103.916 89.324H99.9799C100.028 89.852 100.2 90.284 100.496 90.62C100.8 90.948 101.224 91.112 101.768 91.112C102.064 91.112 102.324 91.068 102.548 90.98C102.772 90.884 103.024 90.72 103.304 90.488ZM101.6 86.912C101.16 86.912 100.804 87.044 100.532 87.308C100.268 87.564 100.096 87.928 100.016 88.4H103.1C103.068 87.936 102.924 87.572 102.668 87.308C102.412 87.044 102.056 86.912 101.6 86.912ZM111.861 85.904C112.493 85.904 112.981 86.084 113.325 86.444C113.669 86.796 113.841 87.272 113.841 87.872V91.58C113.841 91.708 113.805 91.812 113.733 91.892C113.661 91.964 113.557 92 113.421 92H112.989C112.861 92 112.757 91.964 112.677 91.892C112.605 91.812 112.569 91.708 112.569 91.58V88.256C112.569 87.864 112.481 87.556 112.305 87.332C112.129 87.108 111.861 86.996 111.501 86.996C111.133 86.996 110.841 87.12 110.625 87.368C110.417 87.616 110.313 87.936 110.313 88.328V91.58C110.313 91.708 110.277 91.812 110.205 91.892C110.133 91.964 110.029 92 109.893 92H109.461C109.333 92 109.229 91.964 109.149 91.892C109.077 91.812 109.041 91.708 109.041 91.58V88.256C109.041 87.864 108.953 87.556 108.777 87.332C108.609 87.108 108.345 86.996 107.985 86.996C107.633 86.996 107.349 87.112 107.133 87.344C106.917 87.576 106.801 87.876 106.785 88.244V91.58C106.785 91.708 106.749 91.812 106.677 91.892C106.605 91.964 106.501 92 106.365 92H105.933C105.805 92 105.701 91.964 105.621 91.892C105.549 91.812 105.513 91.708 105.513 91.58V86.504C105.513 86.368 105.549 86.264 105.621 86.192C105.701 86.12 105.805 86.084 105.933 86.084H106.281C106.417 86.084 106.521 86.12 106.593 86.192C106.665 86.264 106.701 86.368 106.701 86.504V86.768C107.069 86.192 107.637 85.904 108.405 85.904C108.789 85.904 109.125 85.984 109.413 86.144C109.701 86.304 109.921 86.528 110.073 86.816C110.481 86.208 111.077 85.904 111.861 85.904Z" fill="#474445"/>
<rect x="32.5" y="72.5" width="90" height="31" rx="3.5" stroke="#C3CCD9"/>
<rect x="32.5" y="118.5" width="29" height="31" rx="3.5" fill="white"/>
<path d="M41.5 134H52.5" stroke="#767676" stroke-width="1.5" stroke-linecap="round" stroke-linejoin="round"/>
<path d="M47 128.5V139.5" stroke="#767676" stroke-width="1.5" stroke-linecap="round" stroke-linejoin="round"/>
<rect x="32.5" y="118.5" width="29" height="31" rx="3.5" stroke="#C3CCD9"/>
<path d="M53.34 173.66C53.1281 173.449 52.8764 173.282 52.5996 173.169C52.3227 173.055 52.0262 172.998 51.7271 173C51.428 173.002 51.1323 173.063 50.857 173.18C50.5817 173.297 50.3323 173.468 50.1232 173.682L41.1013 182.704L40 187L44.2963 185.898L53.3183 176.876C53.5322 176.667 53.7026 176.418 53.8196 176.142C53.9366 175.867 53.9979 175.571 53.9999 175.272C54.002 174.973 53.9447 174.677 53.8314 174.4C53.7182 174.123 53.5511 173.872 53.34 173.66V173.66Z" stroke="#767676" stroke-width="1.5" stroke-linecap="round" stroke-linejoin="round"/>
<rect x="32.5" y="210.5" width="193" height="31" rx="3.5" fill="white"/>
<path d="M50 219H45V224H50V219Z" stroke="#767676" stroke-width="1.5" stroke-linecap="round" stroke-linejoin="round"/>
<path d="M50 228H45V233H50V228Z" stroke="#767676" stroke-width="1.5" stroke-linecap="round" stroke-linejoin="round"/>
<path d="M59 219H54V224H59V219Z" stroke="#767676" stroke-width="1.5" stroke-linecap="round" stroke-linejoin="round"/>
<path d="M59 228H54V233H59V228Z" stroke="#767676" stroke-width="1.5" stroke-linecap="round" stroke-linejoin="round"/>
<path d="M72.8737 226.568C72.7457 226.568 72.6417 226.532 72.5617 226.46C72.4897 226.38 72.4537 226.276 72.4537 226.148V225.836C72.4537 225.7 72.4897 225.596 72.5617 225.524C72.6417 225.452 72.7457 225.416 72.8737 225.416H75.8857C76.0217 225.416 76.1257 225.452 76.1977 225.524C76.2697 225.596 76.3057 225.7 76.3057 225.836V229.58C76.3057 229.708 76.2697 229.812 76.1977 229.892C76.1257 229.964 76.0217 230 75.8857 230H75.6337C75.3697 230 75.2257 229.868 75.2017 229.604L75.1537 229.064C74.6417 229.808 73.7937 230.18 72.6097 230.18C71.7617 230.18 71.0337 229.992 70.4257 229.616C69.8177 229.24 69.3537 228.716 69.0337 228.044C68.7137 227.372 68.5537 226.6 68.5537 225.728C68.5537 224.88 68.7217 224.12 69.0577 223.448C69.3937 222.776 69.8777 222.252 70.5097 221.876C71.1417 221.492 71.8897 221.3 72.7537 221.3C73.4017 221.3 73.9817 221.404 74.4937 221.612C75.0057 221.812 75.5097 222.14 76.0057 222.596C76.1097 222.692 76.1617 222.792 76.1617 222.896C76.1617 223 76.1137 223.1 76.0177 223.196L75.7297 223.484C75.6257 223.588 75.5257 223.64 75.4297 223.64C75.3257 223.64 75.2257 223.592 75.1297 223.496C74.7137 223.136 74.3257 222.88 73.9657 222.728C73.6057 222.568 73.1977 222.488 72.7417 222.488C72.1897 222.488 71.7017 222.62 71.2777 222.884C70.8617 223.148 70.5337 223.524 70.2937 224.012C70.0617 224.5 69.9457 225.076 69.9457 225.74C69.9457 226.412 70.0577 226.992 70.2817 227.48C70.5057 227.968 70.8217 228.344 71.2297 228.608C71.6457 228.864 72.1337 228.992 72.6937 228.992C73.4057 228.992 73.9737 228.8 74.3977 228.416C74.8297 228.024 75.0457 227.492 75.0457 226.82V226.568H72.8737ZM80.4585 224.024C80.6345 224.024 80.8145 224.044 80.9985 224.084C81.2145 224.132 81.3225 224.26 81.3225 224.468C81.3225 224.524 81.3185 224.564 81.3105 224.588L81.2505 224.876C81.2025 225.1 81.0825 225.212 80.8905 225.212L80.7825 225.2C80.6385 225.176 80.5105 225.164 80.3985 225.164C79.9985 225.164 79.6745 225.324 79.4265 225.644C79.1865 225.956 79.0665 226.392 79.0665 226.952V229.58C79.0665 229.708 79.0305 229.812 78.9585 229.892C78.8865 229.964 78.7825 230 78.6465 230H78.2145C78.0865 230 77.9825 229.964 77.9025 229.892C77.8305 229.812 77.7945 229.708 77.7945 229.58V224.504C77.7945 224.368 77.8305 224.264 77.9025 224.192C77.9825 224.12 78.0865 224.084 78.2145 224.084H78.5625C78.6985 224.084 78.8025 224.12 78.8745 224.192C78.9465 224.264 78.9825 224.368 78.9825 224.504V224.972C79.1265 224.676 79.3225 224.444 79.5705 224.276C79.8185 224.108 80.1145 224.024 80.4585 224.024ZM82.8956 222.932C82.6636 222.932 82.4676 222.856 82.3076 222.704C82.1476 222.544 82.0676 222.356 82.0676 222.14C82.0676 221.916 82.1476 221.728 82.3076 221.576C82.4676 221.424 82.6636 221.348 82.8956 221.348C83.1276 221.348 83.3236 221.424 83.4836 221.576C83.6436 221.728 83.7236 221.916 83.7236 222.14C83.7236 222.356 83.6436 222.544 83.4836 222.704C83.3236 222.856 83.1276 222.932 82.8956 222.932ZM82.6676 230C82.5396 230 82.4356 229.964 82.3556 229.892C82.2836 229.812 82.2476 229.708 82.2476 229.58V224.504C82.2476 224.368 82.2836 224.264 82.3556 224.192C82.4356 224.12 82.5396 224.084 82.6676 224.084H83.0996C83.2356 224.084 83.3396 224.12 83.4116 224.192C83.4836 224.264 83.5196 224.368 83.5196 224.504V229.58C83.5196 229.708 83.4836 229.812 83.4116 229.892C83.3396 229.964 83.2356 230 83.0996 230H82.6676ZM89.1538 221.888C89.1538 221.752 89.1898 221.648 89.2618 221.576C89.3418 221.504 89.4458 221.468 89.5738 221.468H90.0058C90.1418 221.468 90.2458 221.504 90.3178 221.576C90.3898 221.648 90.4258 221.752 90.4258 221.888V229.58C90.4258 229.708 90.3898 229.812 90.3178 229.892C90.2458 229.964 90.1418 230 90.0058 230H89.6578C89.5298 230 89.4258 229.964 89.3458 229.892C89.2738 229.812 89.2378 229.708 89.2378 229.58V229.16C88.8218 229.832 88.1698 230.168 87.2818 230.168C86.7858 230.168 86.3378 230.04 85.9378 229.784C85.5458 229.528 85.2378 229.164 85.0138 228.692C84.7898 228.22 84.6778 227.672 84.6778 227.048C84.6778 226.432 84.7898 225.888 85.0138 225.416C85.2458 224.944 85.5618 224.58 85.9618 224.324C86.3618 224.068 86.8098 223.94 87.3058 223.94C88.1218 223.94 88.7378 224.224 89.1538 224.792V221.888ZM87.5458 229.076C88.0338 229.076 88.4338 228.896 88.7458 228.536C89.0578 228.168 89.2138 227.672 89.2138 227.048C89.2138 226.424 89.0578 225.932 88.7458 225.572C88.4338 225.212 88.0338 225.032 87.5458 225.032C87.0738 225.032 86.6938 225.216 86.4058 225.584C86.1178 225.952 85.9738 226.44 85.9738 227.048C85.9738 227.664 86.1138 228.156 86.3938 228.524C86.6818 228.892 87.0658 229.076 87.5458 229.076ZM98.1995 224.432C98.2715 224.2 98.4275 224.084 98.6675 224.084H99.1115C99.3595 224.084 99.4835 224.184 99.4835 224.384C99.4835 224.44 99.4715 224.5 99.4475 224.564L97.7075 229.664C97.6355 229.888 97.4755 230 97.2275 230H96.3755C96.1275 230 95.9675 229.888 95.8955 229.664L94.1555 224.564C94.1315 224.5 94.1195 224.44 94.1195 224.384C94.1195 224.184 94.2435 224.084 94.4915 224.084H94.9715C95.2115 224.084 95.3675 224.2 95.4395 224.432L95.9915 226.148C96.3515 227.3 96.6275 228.236 96.8195 228.956C97.0755 228.004 97.3515 227.068 97.6475 226.148L98.1995 224.432ZM101.142 222.932C100.91 222.932 100.714 222.856 100.554 222.704C100.394 222.544 100.314 222.356 100.314 222.14C100.314 221.916 100.394 221.728 100.554 221.576C100.714 221.424 100.91 221.348 101.142 221.348C101.374 221.348 101.57 221.424 101.73 221.576C101.89 221.728 101.97 221.916 101.97 222.14C101.97 222.356 101.89 222.544 101.73 222.704C101.57 222.856 101.374 222.932 101.142 222.932ZM100.914 230C100.786 230 100.682 229.964 100.602 229.892C100.53 229.812 100.494 229.708 100.494 229.58V224.504C100.494 224.368 100.53 224.264 100.602 224.192C100.682 224.12 100.786 224.084 100.914 224.084H101.346C101.482 224.084 101.586 224.12 101.658 224.192C101.73 224.264 101.766 224.368 101.766 224.504V229.58C101.766 229.708 101.73 229.812 101.658 229.892C101.586 229.964 101.482 230 101.346 230H100.914ZM107.472 228.488C107.576 228.4 107.676 228.356 107.772 228.356C107.868 228.356 107.968 228.408 108.072 228.512L108.24 228.692C108.328 228.796 108.372 228.896 108.372 228.992C108.372 229.096 108.32 229.196 108.216 229.292C107.848 229.612 107.48 229.84 107.112 229.976C106.752 230.112 106.352 230.18 105.912 230.18C105.296 230.18 104.76 230.052 104.304 229.796C103.856 229.54 103.508 229.18 103.26 228.716C103.02 228.244 102.9 227.7 102.9 227.084C102.9 226.476 103.016 225.932 103.248 225.452C103.488 224.964 103.824 224.584 104.256 224.312C104.696 224.04 105.208 223.904 105.792 223.904C106.664 223.904 107.336 224.164 107.808 224.684C108.28 225.196 108.516 225.904 108.516 226.808V226.916C108.508 227.044 108.468 227.144 108.396 227.216C108.324 227.288 108.22 227.324 108.084 227.324H104.148C104.196 227.852 104.368 228.284 104.664 228.62C104.968 228.948 105.392 229.112 105.936 229.112C106.232 229.112 106.492 229.068 106.716 228.98C106.94 228.884 107.192 228.72 107.472 228.488ZM105.768 224.912C105.328 224.912 104.972 225.044 104.7 225.308C104.436 225.564 104.264 225.928 104.184 226.4H107.268C107.236 225.936 107.092 225.572 106.836 225.308C106.58 225.044 106.224 224.912 105.768 224.912ZM116.283 224.444C116.339 224.204 116.495 224.084 116.751 224.084H117.195C117.315 224.084 117.407 224.112 117.471 224.168C117.543 224.216 117.579 224.292 117.579 224.396C117.579 224.42 117.571 224.472 117.555 224.552L116.127 229.64C116.071 229.88 115.915 230 115.659 230H114.879C114.639 230 114.483 229.88 114.411 229.64L114.015 228.248C113.839 227.632 113.643 226.86 113.427 225.932L113.367 225.668C113.151 226.644 112.943 227.508 112.743 228.26L112.371 229.64C112.315 229.88 112.159 230 111.903 230H111.135C110.895 230 110.739 229.88 110.667 229.64L109.227 224.552C109.211 224.472 109.203 224.42 109.203 224.396C109.203 224.292 109.235 224.216 109.299 224.168C109.371 224.112 109.467 224.084 109.587 224.084H110.055C110.311 224.084 110.467 224.204 110.523 224.444L110.955 226.148C111.123 226.772 111.319 227.604 111.543 228.644L111.591 228.884C111.823 227.812 112.039 226.9 112.239 226.148L112.695 224.444C112.751 224.204 112.907 224.084 113.163 224.084H113.619C113.875 224.084 114.031 224.204 114.087 224.444L114.555 226.148C114.779 226.98 115.003 227.892 115.227 228.884C115.395 228.028 115.603 227.116 115.851 226.148L116.283 224.444Z" fill="#464646"/>
<rect x="130" y="211" width="1" height="30" fill="#D4D4D4"/>
<path fill-rule="evenodd" clip-rule="evenodd" d="M148.333 219.444H158.111C158.347 219.444 158.573 219.538 158.74 219.705C158.906 219.871 159 220.098 159 220.333C159 220.569 158.906 220.795 158.74 220.962C158.573 221.129 158.347 221.222 158.111 221.222H148.333C148.098 221.222 147.871 221.129 147.705 220.962C147.538 220.795 147.444 220.569 147.444 220.333C147.444 220.098 147.538 219.871 147.705 219.705C147.871 219.538 148.098 219.444 148.333 219.444ZM148.333 224.778H158.111C158.347 224.778 158.573 224.871 158.74 225.038C158.906 225.205 159 225.431 159 225.667C159 225.902 158.906 226.129 158.74 226.295C158.573 226.462 158.347 226.556 158.111 226.556H148.333C148.098 226.556 147.871 226.462 147.705 226.295C147.538 226.129 147.444 225.902 147.444 225.667C147.444 225.431 147.538 225.205 147.705 225.038C147.871 224.871 148.098 224.778 148.333 224.778ZM148.333 230.111H158.111C158.347 230.111 158.573 230.205 158.74 230.371C158.906 230.538 159 230.764 159 231C159 231.236 158.906 231.462 158.74 231.629C158.573 231.795 158.347 231.889 158.111 231.889H148.333C148.098 231.889 147.871 231.795 147.705 231.629C147.538 231.462 147.444 231.236 147.444 231C147.444 230.764 147.538 230.538 147.705 230.371C147.871 230.205 148.098 230.111 148.333 230.111ZM144.333 224.333C144.687 224.333 145.026 224.474 145.276 224.724C145.526 224.974 145.667 225.313 145.667 225.667C145.667 226.02 145.526 226.359 145.276 226.609C145.026 226.86 144.687 227 144.333 227C143.98 227 143.641 226.86 143.391 226.609C143.14 226.359 143 226.02 143 225.667C143 225.313 143.14 224.974 143.391 224.724C143.641 224.474 143.98 224.333 144.333 224.333ZM144.333 229.667C144.687 229.667 145.026 229.807 145.276 230.057C145.526 230.307 145.667 230.646 145.667 231C145.667 231.354 145.526 231.693 145.276 231.943C145.026 232.193 144.687 232.333 144.333 232.333C143.98 232.333 143.641 232.193 143.391 231.943C143.14 231.693 143 231.354 143 231C143 230.646 143.14 230.307 143.391 230.057C143.641 229.807 143.98 229.667 144.333 229.667ZM144.333 219C144.687 219 145.026 219.14 145.276 219.391C145.526 219.641 145.667 219.98 145.667 220.333C145.667 220.687 145.526 221.026 145.276 221.276C145.026 221.526 144.687 221.667 144.333 221.667C143.98 221.667 143.641 221.526 143.391 221.276C143.14 221.026 143 220.687 143 220.333C143 219.98 143.14 219.641 143.391 219.391C143.641 219.14 143.98 219 144.333 219Z" fill="#767676"/>
<path d="M168.764 230C168.636 230 168.532 229.964 168.452 229.892C168.38 229.812 168.344 229.708 168.344 229.58V221.9C168.344 221.764 168.38 221.66 168.452 221.588C168.532 221.516 168.636 221.48 168.764 221.48H169.292C169.428 221.48 169.532 221.516 169.604 221.588C169.676 221.66 169.712 221.764 169.712 221.9V228.836H173.18C173.316 228.836 173.42 228.872 173.492 228.944C173.564 229.016 173.6 229.12 173.6 229.256V229.58C173.6 229.708 173.564 229.812 173.492 229.892C173.42 229.964 173.316 230 173.18 230H168.764ZM175.316 222.932C175.084 222.932 174.888 222.856 174.728 222.704C174.568 222.544 174.488 222.356 174.488 222.14C174.488 221.916 174.568 221.728 174.728 221.576C174.888 221.424 175.084 221.348 175.316 221.348C175.548 221.348 175.744 221.424 175.904 221.576C176.064 221.728 176.144 221.916 176.144 222.14C176.144 222.356 176.064 222.544 175.904 222.704C175.744 222.856 175.548 222.932 175.316 222.932ZM175.088 230C174.96 230 174.856 229.964 174.776 229.892C174.704 229.812 174.668 229.708 174.668 229.58V224.504C174.668 224.368 174.704 224.264 174.776 224.192C174.856 224.12 174.96 224.084 175.088 224.084H175.52C175.656 224.084 175.76 224.12 175.832 224.192C175.904 224.264 175.94 224.368 175.94 224.504V229.58C175.94 229.708 175.904 229.812 175.832 229.892C175.76 229.964 175.656 230 175.52 230H175.088ZM179.69 230.18C179.202 230.18 178.766 230.12 178.382 230C178.006 229.872 177.622 229.652 177.23 229.34C177.11 229.252 177.05 229.152 177.05 229.04C177.05 228.952 177.094 228.856 177.182 228.752L177.362 228.548C177.458 228.436 177.562 228.38 177.674 228.38C177.762 228.38 177.858 228.42 177.962 228.5C178.298 228.748 178.594 228.92 178.85 229.016C179.106 229.104 179.394 229.148 179.714 229.148C180.058 229.148 180.338 229.08 180.554 228.944C180.778 228.8 180.89 228.608 180.89 228.368C180.89 228.184 180.826 228.04 180.698 227.936C180.578 227.824 180.418 227.74 180.218 227.684C180.018 227.62 179.722 227.548 179.33 227.468C178.778 227.348 178.346 227.22 178.034 227.084C177.73 226.94 177.51 226.76 177.374 226.544C177.238 226.328 177.17 226.052 177.17 225.716C177.17 225.372 177.266 225.064 177.458 224.792C177.658 224.52 177.934 224.304 178.286 224.144C178.646 223.984 179.066 223.904 179.546 223.904C179.978 223.904 180.362 223.952 180.698 224.048C181.042 224.144 181.378 224.308 181.706 224.54C181.834 224.636 181.898 224.744 181.898 224.864C181.898 224.944 181.858 225.036 181.778 225.14L181.622 225.332C181.534 225.444 181.426 225.5 181.298 225.5C181.202 225.5 181.11 225.468 181.022 225.404C180.758 225.228 180.514 225.108 180.29 225.044C180.066 224.972 179.814 224.936 179.534 224.936C179.19 224.936 178.914 225.004 178.706 225.14C178.498 225.276 178.394 225.452 178.394 225.668C178.394 225.812 178.442 225.928 178.538 226.016C178.642 226.096 178.786 226.168 178.97 226.232C179.162 226.288 179.462 226.36 179.87 226.448C180.422 226.568 180.858 226.704 181.178 226.856C181.506 227 181.746 227.188 181.898 227.42C182.058 227.644 182.138 227.936 182.138 228.296C182.138 228.856 181.914 229.312 181.466 229.664C181.026 230.008 180.434 230.18 179.69 230.18ZM186.067 228.992C186.091 228.984 186.127 228.98 186.175 228.98C186.375 228.98 186.495 229.096 186.535 229.328L186.571 229.52C186.579 229.544 186.583 229.584 186.583 229.64C186.583 229.84 186.471 229.968 186.247 230.024C185.927 230.096 185.635 230.132 185.371 230.132C184.803 230.132 184.391 230 184.135 229.736C183.887 229.472 183.763 229.076 183.763 228.548V225.056H183.103C182.975 225.056 182.871 225.02 182.791 224.948C182.719 224.868 182.683 224.764 182.683 224.636V224.504C182.683 224.368 182.719 224.264 182.791 224.192C182.871 224.12 182.975 224.084 183.103 224.084H183.763V222.596C183.763 222.46 183.799 222.356 183.871 222.284C183.951 222.212 184.055 222.176 184.183 222.176H184.615C184.751 222.176 184.855 222.212 184.927 222.284C184.999 222.356 185.035 222.46 185.035 222.596V224.084H186.115C186.251 224.084 186.355 224.12 186.427 224.192C186.499 224.264 186.535 224.368 186.535 224.504V224.636C186.535 224.764 186.499 224.868 186.427 224.948C186.355 225.02 186.251 225.056 186.115 225.056H185.035V228.392C185.035 228.624 185.083 228.788 185.179 228.884C185.283 228.98 185.447 229.028 185.671 229.028C185.767 229.028 185.899 229.016 186.067 228.992ZM193.877 224.432C193.949 224.2 194.105 224.084 194.345 224.084H194.789C195.037 224.084 195.161 224.184 195.161 224.384C195.161 224.44 195.149 224.5 195.125 224.564L193.385 229.664C193.313 229.888 193.153 230 192.905 230H192.053C191.805 230 191.645 229.888 191.573 229.664L189.833 224.564C189.809 224.5 189.797 224.44 189.797 224.384C189.797 224.184 189.921 224.084 190.169 224.084H190.649C190.889 224.084 191.045 224.2 191.117 224.432L191.669 226.148C192.029 227.3 192.305 228.236 192.497 228.956C192.753 228.004 193.029 227.068 193.325 226.148L193.877 224.432ZM196.819 222.932C196.587 222.932 196.391 222.856 196.231 222.704C196.071 222.544 195.991 222.356 195.991 222.14C195.991 221.916 196.071 221.728 196.231 221.576C196.391 221.424 196.587 221.348 196.819 221.348C197.051 221.348 197.247 221.424 197.407 221.576C197.567 221.728 197.647 221.916 197.647 222.14C197.647 222.356 197.567 222.544 197.407 222.704C197.247 222.856 197.051 222.932 196.819 222.932ZM196.591 230C196.463 230 196.359 229.964 196.279 229.892C196.207 229.812 196.171 229.708 196.171 229.58V224.504C196.171 224.368 196.207 224.264 196.279 224.192C196.359 224.12 196.463 224.084 196.591 224.084H197.023C197.159 224.084 197.263 224.12 197.335 224.192C197.407 224.264 197.443 224.368 197.443 224.504V229.58C197.443 229.708 197.407 229.812 197.335 229.892C197.263 229.964 197.159 230 197.023 230H196.591ZM203.15 228.488C203.254 228.4 203.354 228.356 203.45 228.356C203.546 228.356 203.646 228.408 203.75 228.512L203.918 228.692C204.006 228.796 204.05 228.896 204.05 228.992C204.05 229.096 203.998 229.196 203.894 229.292C203.526 229.612 203.158 229.84 202.79 229.976C202.43 230.112 202.03 230.18 201.59 230.18C200.974 230.18 200.438 230.052 199.982 229.796C199.534 229.54 199.186 229.18 198.938 228.716C198.698 228.244 198.578 227.7 198.578 227.084C198.578 226.476 198.694 225.932 198.926 225.452C199.166 224.964 199.502 224.584 199.934 224.312C200.374 224.04 200.886 223.904 201.47 223.904C202.342 223.904 203.014 224.164 203.486 224.684C203.958 225.196 204.194 225.904 204.194 226.808V226.916C204.186 227.044 204.146 227.144 204.074 227.216C204.002 227.288 203.898 227.324 203.762 227.324H199.826C199.874 227.852 200.046 228.284 200.342 228.62C200.646 228.948 201.07 229.112 201.614 229.112C201.91 229.112 202.17 229.068 202.394 228.98C202.618 228.884 202.87 228.72 203.15 228.488ZM201.446 224.912C201.006 224.912 200.65 225.044 200.378 225.308C200.114 225.564 199.942 225.928 199.862 226.4H202.946C202.914 225.936 202.77 225.572 202.514 225.308C202.258 225.044 201.902 224.912 201.446 224.912ZM211.96 224.444C212.016 224.204 212.172 224.084 212.428 224.084H212.872C212.992 224.084 213.084 224.112 213.148 224.168C213.22 224.216 213.256 224.292 213.256 224.396C213.256 224.42 213.248 224.472 213.232 224.552L211.804 229.64C211.748 229.88 211.592 230 211.336 230H210.556C210.316 230 210.16 229.88 210.088 229.64L209.692 228.248C209.516 227.632 209.32 226.86 209.104 225.932L209.044 225.668C208.828 226.644 208.62 227.508 208.42 228.26L208.048 229.64C207.992 229.88 207.836 230 207.58 230H206.812C206.572 230 206.416 229.88 206.344 229.64L204.904 224.552C204.888 224.472 204.88 224.42 204.88 224.396C204.88 224.292 204.912 224.216 204.976 224.168C205.048 224.112 205.144 224.084 205.264 224.084H205.732C205.988 224.084 206.144 224.204 206.2 224.444L206.632 226.148C206.8 226.772 206.996 227.604 207.22 228.644L207.268 228.884C207.5 227.812 207.716 226.9 207.916 226.148L208.372 224.444C208.428 224.204 208.584 224.084 208.84 224.084H209.296C209.552 224.084 209.708 224.204 209.764 224.444L210.232 226.148C210.456 226.98 210.68 227.892 210.904 228.884C211.072 228.028 211.28 227.116 211.528 226.148L211.96 224.444Z" fill="#464646"/>
<rect x="32.5" y="210.5" width="193" height="31" rx="3.5" stroke="#D4D4D4"/>
<rect x="32.5" y="256.5" width="153" height="31" rx="3.5" fill="white"/>
<path d="M48.8737 272.568C48.7457 272.568 48.6417 272.532 48.5617 272.46C48.4897 272.38 48.4537 272.276 48.4537 272.148V271.836C48.4537 271.7 48.4897 271.596 48.5617 271.524C48.6417 271.452 48.7457 271.416 48.8737 271.416H51.8857C52.0217 271.416 52.1257 271.452 52.1977 271.524C52.2697 271.596 52.3057 271.7 52.3057 271.836V275.58C52.3057 275.708 52.2697 275.812 52.1977 275.892C52.1257 275.964 52.0217 276 51.8857 276H51.6337C51.3697 276 51.2257 275.868 51.2017 275.604L51.1537 275.064C50.6417 275.808 49.7937 276.18 48.6097 276.18C47.7617 276.18 47.0337 275.992 46.4257 275.616C45.8177 275.24 45.3537 274.716 45.0337 274.044C44.7137 273.372 44.5537 272.6 44.5537 271.728C44.5537 270.88 44.7217 270.12 45.0577 269.448C45.3937 268.776 45.8777 268.252 46.5097 267.876C47.1417 267.492 47.8897 267.3 48.7537 267.3C49.4017 267.3 49.9817 267.404 50.4937 267.612C51.0057 267.812 51.5097 268.14 52.0057 268.596C52.1097 268.692 52.1617 268.792 52.1617 268.896C52.1617 269 52.1137 269.1 52.0177 269.196L51.7297 269.484C51.6257 269.588 51.5257 269.64 51.4297 269.64C51.3257 269.64 51.2257 269.592 51.1297 269.496C50.7137 269.136 50.3257 268.88 49.9657 268.728C49.6057 268.568 49.1977 268.488 48.7417 268.488C48.1897 268.488 47.7017 268.62 47.2777 268.884C46.8617 269.148 46.5337 269.524 46.2937 270.012C46.0617 270.5 45.9457 271.076 45.9457 271.74C45.9457 272.412 46.0577 272.992 46.2817 273.48C46.5057 273.968 46.8217 274.344 47.2297 274.608C47.6457 274.864 48.1337 274.992 48.6937 274.992C49.4057 274.992 49.9737 274.8 50.3977 274.416C50.8297 274.024 51.0457 273.492 51.0457 272.82V272.568H48.8737ZM56.4585 270.024C56.6345 270.024 56.8145 270.044 56.9985 270.084C57.2145 270.132 57.3225 270.26 57.3225 270.468C57.3225 270.524 57.3185 270.564 57.3105 270.588L57.2505 270.876C57.2025 271.1 57.0825 271.212 56.8905 271.212L56.7825 271.2C56.6385 271.176 56.5105 271.164 56.3985 271.164C55.9985 271.164 55.6745 271.324 55.4265 271.644C55.1865 271.956 55.0665 272.392 55.0665 272.952V275.58C55.0665 275.708 55.0305 275.812 54.9585 275.892C54.8865 275.964 54.7825 276 54.6465 276H54.2145C54.0865 276 53.9825 275.964 53.9025 275.892C53.8305 275.812 53.7945 275.708 53.7945 275.58V270.504C53.7945 270.368 53.8305 270.264 53.9025 270.192C53.9825 270.12 54.0865 270.084 54.2145 270.084H54.5625C54.6985 270.084 54.8025 270.12 54.8745 270.192C54.9465 270.264 54.9825 270.368 54.9825 270.504V270.972C55.1265 270.676 55.3225 270.444 55.5705 270.276C55.8185 270.108 56.1145 270.024 56.4585 270.024ZM58.8956 268.932C58.6636 268.932 58.4676 268.856 58.3076 268.704C58.1476 268.544 58.0676 268.356 58.0676 268.14C58.0676 267.916 58.1476 267.728 58.3076 267.576C58.4676 267.424 58.6636 267.348 58.8956 267.348C59.1276 267.348 59.3236 267.424 59.4836 267.576C59.6436 267.728 59.7236 267.916 59.7236 268.14C59.7236 268.356 59.6436 268.544 59.4836 268.704C59.3236 268.856 59.1276 268.932 58.8956 268.932ZM58.6676 276C58.5396 276 58.4356 275.964 58.3556 275.892C58.2836 275.812 58.2476 275.708 58.2476 275.58V270.504C58.2476 270.368 58.2836 270.264 58.3556 270.192C58.4356 270.12 58.5396 270.084 58.6676 270.084H59.0996C59.2356 270.084 59.3396 270.12 59.4116 270.192C59.4836 270.264 59.5196 270.368 59.5196 270.504V275.58C59.5196 275.708 59.4836 275.812 59.4116 275.892C59.3396 275.964 59.2356 276 59.0996 276H58.6676ZM65.1538 267.888C65.1538 267.752 65.1898 267.648 65.2618 267.576C65.3418 267.504 65.4458 267.468 65.5738 267.468H66.0058C66.1418 267.468 66.2458 267.504 66.3178 267.576C66.3898 267.648 66.4258 267.752 66.4258 267.888V275.58C66.4258 275.708 66.3898 275.812 66.3178 275.892C66.2458 275.964 66.1418 276 66.0058 276H65.6578C65.5298 276 65.4258 275.964 65.3458 275.892C65.2738 275.812 65.2378 275.708 65.2378 275.58V275.16C64.8218 275.832 64.1698 276.168 63.2818 276.168C62.7858 276.168 62.3378 276.04 61.9378 275.784C61.5458 275.528 61.2378 275.164 61.0138 274.692C60.7898 274.22 60.6778 273.672 60.6778 273.048C60.6778 272.432 60.7898 271.888 61.0138 271.416C61.2458 270.944 61.5618 270.58 61.9618 270.324C62.3618 270.068 62.8098 269.94 63.3058 269.94C64.1218 269.94 64.7378 270.224 65.1538 270.792V267.888ZM63.5458 275.076C64.0338 275.076 64.4338 274.896 64.7458 274.536C65.0578 274.168 65.2138 273.672 65.2138 273.048C65.2138 272.424 65.0578 271.932 64.7458 271.572C64.4338 271.212 64.0338 271.032 63.5458 271.032C63.0738 271.032 62.6938 271.216 62.4058 271.584C62.1178 271.952 61.9738 272.44 61.9738 273.048C61.9738 273.664 62.1138 274.156 62.3938 274.524C62.6818 274.892 63.0658 275.076 63.5458 275.076ZM74.1995 270.432C74.2715 270.2 74.4275 270.084 74.6675 270.084H75.1115C75.3595 270.084 75.4835 270.184 75.4835 270.384C75.4835 270.44 75.4715 270.5 75.4475 270.564L73.7075 275.664C73.6355 275.888 73.4755 276 73.2275 276H72.3755C72.1275 276 71.9675 275.888 71.8955 275.664L70.1555 270.564C70.1315 270.5 70.1195 270.44 70.1195 270.384C70.1195 270.184 70.2435 270.084 70.4915 270.084H70.9715C71.2115 270.084 71.3675 270.2 71.4395 270.432L71.9915 272.148C72.3515 273.3 72.6275 274.236 72.8195 274.956C73.0755 274.004 73.3515 273.068 73.6475 272.148L74.1995 270.432ZM77.1417 268.932C76.9097 268.932 76.7137 268.856 76.5537 268.704C76.3937 268.544 76.3137 268.356 76.3137 268.14C76.3137 267.916 76.3937 267.728 76.5537 267.576C76.7137 267.424 76.9097 267.348 77.1417 267.348C77.3737 267.348 77.5697 267.424 77.7297 267.576C77.8897 267.728 77.9697 267.916 77.9697 268.14C77.9697 268.356 77.8897 268.544 77.7297 268.704C77.5697 268.856 77.3737 268.932 77.1417 268.932ZM76.9137 276C76.7857 276 76.6817 275.964 76.6017 275.892C76.5297 275.812 76.4937 275.708 76.4937 275.58V270.504C76.4937 270.368 76.5297 270.264 76.6017 270.192C76.6817 270.12 76.7857 270.084 76.9137 270.084H77.3457C77.4817 270.084 77.5857 270.12 77.6577 270.192C77.7297 270.264 77.7657 270.368 77.7657 270.504V275.58C77.7657 275.708 77.7297 275.812 77.6577 275.892C77.5857 275.964 77.4817 276 77.3457 276H76.9137ZM83.4719 274.488C83.5759 274.4 83.6759 274.356 83.7719 274.356C83.8679 274.356 83.9679 274.408 84.0719 274.512L84.2399 274.692C84.3279 274.796 84.3719 274.896 84.3719 274.992C84.3719 275.096 84.3199 275.196 84.2159 275.292C83.8479 275.612 83.4799 275.84 83.1119 275.976C82.7519 276.112 82.3519 276.18 81.9119 276.18C81.2959 276.18 80.7599 276.052 80.3039 275.796C79.8559 275.54 79.5079 275.18 79.2599 274.716C79.0199 274.244 78.8999 273.7 78.8999 273.084C78.8999 272.476 79.0159 271.932 79.2479 271.452C79.4879 270.964 79.8239 270.584 80.2559 270.312C80.6959 270.04 81.2079 269.904 81.7919 269.904C82.6639 269.904 83.3359 270.164 83.8079 270.684C84.2799 271.196 84.5159 271.904 84.5159 272.808V272.916C84.5079 273.044 84.4679 273.144 84.3959 273.216C84.3239 273.288 84.2199 273.324 84.0839 273.324H80.1479C80.1959 273.852 80.3679 274.284 80.6639 274.62C80.9679 274.948 81.3919 275.112 81.9359 275.112C82.2319 275.112 82.4919 275.068 82.7159 274.98C82.9399 274.884 83.1919 274.72 83.4719 274.488ZM81.7679 270.912C81.3279 270.912 80.9719 271.044 80.6999 271.308C80.4359 271.564 80.2639 271.928 80.1839 272.4H83.2679C83.2359 271.936 83.0919 271.572 82.8359 271.308C82.5799 271.044 82.2239 270.912 81.7679 270.912ZM92.2826 270.444C92.3386 270.204 92.4946 270.084 92.7506 270.084H93.1946C93.3146 270.084 93.4066 270.112 93.4706 270.168C93.5426 270.216 93.5786 270.292 93.5786 270.396C93.5786 270.42 93.5706 270.472 93.5546 270.552L92.1266 275.64C92.0706 275.88 91.9146 276 91.6586 276H90.8786C90.6386 276 90.4826 275.88 90.4106 275.64L90.0146 274.248C89.8386 273.632 89.6426 272.86 89.4266 271.932L89.3666 271.668C89.1506 272.644 88.9426 273.508 88.7426 274.26L88.3706 275.64C88.3146 275.88 88.1586 276 87.9026 276H87.1346C86.8946 276 86.7386 275.88 86.6666 275.64L85.2266 270.552C85.2106 270.472 85.2026 270.42 85.2026 270.396C85.2026 270.292 85.2346 270.216 85.2986 270.168C85.3706 270.112 85.4666 270.084 85.5866 270.084H86.0546C86.3106 270.084 86.4666 270.204 86.5226 270.444L86.9546 272.148C87.1226 272.772 87.3186 273.604 87.5426 274.644L87.5906 274.884C87.8226 273.812 88.0386 272.9 88.2386 272.148L88.6946 270.444C88.7506 270.204 88.9066 270.084 89.1626 270.084H89.6186C89.8746 270.084 90.0306 270.204 90.0866 270.444L90.5546 272.148C90.7786 272.98 91.0026 273.892 91.2266 274.884C91.3946 274.028 91.6026 273.116 91.8506 272.148L92.2826 270.444Z" fill="#464646"/>
<rect x="106" y="257" width="1" height="30" fill="#D4D4D4"/>
<path d="M124.764 276C124.636 276 124.532 275.964 124.452 275.892C124.38 275.812 124.344 275.708 124.344 275.58V267.9C124.344 267.764 124.38 267.66 124.452 267.588C124.532 267.516 124.636 267.48 124.764 267.48H125.292C125.428 267.48 125.532 267.516 125.604 267.588C125.676 267.66 125.712 267.764 125.712 267.9V274.836H129.18C129.316 274.836 129.42 274.872 129.492 274.944C129.564 275.016 129.6 275.12 129.6 275.256V275.58C129.6 275.708 129.564 275.812 129.492 275.892C129.42 275.964 129.316 276 129.18 276H124.764ZM131.316 268.932C131.084 268.932 130.888 268.856 130.728 268.704C130.568 268.544 130.488 268.356 130.488 268.14C130.488 267.916 130.568 267.728 130.728 267.576C130.888 267.424 131.084 267.348 131.316 267.348C131.548 267.348 131.744 267.424 131.904 267.576C132.064 267.728 132.144 267.916 132.144 268.14C132.144 268.356 132.064 268.544 131.904 268.704C131.744 268.856 131.548 268.932 131.316 268.932ZM131.088 276C130.96 276 130.856 275.964 130.776 275.892C130.704 275.812 130.668 275.708 130.668 275.58V270.504C130.668 270.368 130.704 270.264 130.776 270.192C130.856 270.12 130.96 270.084 131.088 270.084H131.52C131.656 270.084 131.76 270.12 131.832 270.192C131.904 270.264 131.94 270.368 131.94 270.504V275.58C131.94 275.708 131.904 275.812 131.832 275.892C131.76 275.964 131.656 276 131.52 276H131.088ZM135.69 276.18C135.202 276.18 134.766 276.12 134.382 276C134.006 275.872 133.622 275.652 133.23 275.34C133.11 275.252 133.05 275.152 133.05 275.04C133.05 274.952 133.094 274.856 133.182 274.752L133.362 274.548C133.458 274.436 133.562 274.38 133.674 274.38C133.762 274.38 133.858 274.42 133.962 274.5C134.298 274.748 134.594 274.92 134.85 275.016C135.106 275.104 135.394 275.148 135.714 275.148C136.058 275.148 136.338 275.08 136.554 274.944C136.778 274.8 136.89 274.608 136.89 274.368C136.89 274.184 136.826 274.04 136.698 273.936C136.578 273.824 136.418 273.74 136.218 273.684C136.018 273.62 135.722 273.548 135.33 273.468C134.778 273.348 134.346 273.22 134.034 273.084C133.73 272.94 133.51 272.76 133.374 272.544C133.238 272.328 133.17 272.052 133.17 271.716C133.17 271.372 133.266 271.064 133.458 270.792C133.658 270.52 133.934 270.304 134.286 270.144C134.646 269.984 135.066 269.904 135.546 269.904C135.978 269.904 136.362 269.952 136.698 270.048C137.042 270.144 137.378 270.308 137.706 270.54C137.834 270.636 137.898 270.744 137.898 270.864C137.898 270.944 137.858 271.036 137.778 271.14L137.622 271.332C137.534 271.444 137.426 271.5 137.298 271.5C137.202 271.5 137.11 271.468 137.022 271.404C136.758 271.228 136.514 271.108 136.29 271.044C136.066 270.972 135.814 270.936 135.534 270.936C135.19 270.936 134.914 271.004 134.706 271.14C134.498 271.276 134.394 271.452 134.394 271.668C134.394 271.812 134.442 271.928 134.538 272.016C134.642 272.096 134.786 272.168 134.97 272.232C135.162 272.288 135.462 272.36 135.87 272.448C136.422 272.568 136.858 272.704 137.178 272.856C137.506 273 137.746 273.188 137.898 273.42C138.058 273.644 138.138 273.936 138.138 274.296C138.138 274.856 137.914 275.312 137.466 275.664C137.026 276.008 136.434 276.18 135.69 276.18ZM142.067 274.992C142.091 274.984 142.127 274.98 142.175 274.98C142.375 274.98 142.495 275.096 142.535 275.328L142.571 275.52C142.579 275.544 142.583 275.584 142.583 275.64C142.583 275.84 142.471 275.968 142.247 276.024C141.927 276.096 141.635 276.132 141.371 276.132C140.803 276.132 140.391 276 140.135 275.736C139.887 275.472 139.763 275.076 139.763 274.548V271.056H139.103C138.975 271.056 138.871 271.02 138.791 270.948C138.719 270.868 138.683 270.764 138.683 270.636V270.504C138.683 270.368 138.719 270.264 138.791 270.192C138.871 270.12 138.975 270.084 139.103 270.084H139.763V268.596C139.763 268.46 139.799 268.356 139.871 268.284C139.951 268.212 140.055 268.176 140.183 268.176H140.615C140.751 268.176 140.855 268.212 140.927 268.284C140.999 268.356 141.035 268.46 141.035 268.596V270.084H142.115C142.251 270.084 142.355 270.12 142.427 270.192C142.499 270.264 142.535 270.368 142.535 270.504V270.636C142.535 270.764 142.499 270.868 142.427 270.948C142.355 271.02 142.251 271.056 142.115 271.056H141.035V274.392C141.035 274.624 141.083 274.788 141.179 274.884C141.283 274.98 141.447 275.028 141.671 275.028C141.767 275.028 141.899 275.016 142.067 274.992ZM149.877 270.432C149.949 270.2 150.105 270.084 150.345 270.084H150.789C151.037 270.084 151.161 270.184 151.161 270.384C151.161 270.44 151.149 270.5 151.125 270.564L149.385 275.664C149.313 275.888 149.153 276 148.905 276H148.053C147.805 276 147.645 275.888 147.573 275.664L145.833 270.564C145.809 270.5 145.797 270.44 145.797 270.384C145.797 270.184 145.921 270.084 146.169 270.084H146.649C146.889 270.084 147.045 270.2 147.117 270.432L147.669 272.148C148.029 273.3 148.305 274.236 148.497 274.956C148.753 274.004 149.029 273.068 149.325 272.148L149.877 270.432ZM152.819 268.932C152.587 268.932 152.391 268.856 152.231 268.704C152.071 268.544 151.991 268.356 151.991 268.14C151.991 267.916 152.071 267.728 152.231 267.576C152.391 267.424 152.587 267.348 152.819 267.348C153.051 267.348 153.247 267.424 153.407 267.576C153.567 267.728 153.647 267.916 153.647 268.14C153.647 268.356 153.567 268.544 153.407 268.704C153.247 268.856 153.051 268.932 152.819 268.932ZM152.591 276C152.463 276 152.359 275.964 152.279 275.892C152.207 275.812 152.171 275.708 152.171 275.58V270.504C152.171 270.368 152.207 270.264 152.279 270.192C152.359 270.12 152.463 270.084 152.591 270.084H153.023C153.159 270.084 153.263 270.12 153.335 270.192C153.407 270.264 153.443 270.368 153.443 270.504V275.58C153.443 275.708 153.407 275.812 153.335 275.892C153.263 275.964 153.159 276 153.023 276H152.591ZM159.15 274.488C159.254 274.4 159.354 274.356 159.45 274.356C159.546 274.356 159.646 274.408 159.75 274.512L159.918 274.692C160.006 274.796 160.05 274.896 160.05 274.992C160.05 275.096 159.998 275.196 159.894 275.292C159.526 275.612 159.158 275.84 158.79 275.976C158.43 276.112 158.03 276.18 157.59 276.18C156.974 276.18 156.438 276.052 155.982 275.796C155.534 275.54 155.186 275.18 154.938 274.716C154.698 274.244 154.578 273.7 154.578 273.084C154.578 272.476 154.694 271.932 154.926 271.452C155.166 270.964 155.502 270.584 155.934 270.312C156.374 270.04 156.886 269.904 157.47 269.904C158.342 269.904 159.014 270.164 159.486 270.684C159.958 271.196 160.194 271.904 160.194 272.808V272.916C160.186 273.044 160.146 273.144 160.074 273.216C160.002 273.288 159.898 273.324 159.762 273.324H155.826C155.874 273.852 156.046 274.284 156.342 274.62C156.646 274.948 157.07 275.112 157.614 275.112C157.91 275.112 158.17 275.068 158.394 274.98C158.618 274.884 158.87 274.72 159.15 274.488ZM157.446 270.912C157.006 270.912 156.65 271.044 156.378 271.308C156.114 271.564 155.942 271.928 155.862 272.4H158.946C158.914 271.936 158.77 271.572 158.514 271.308C158.258 271.044 157.902 270.912 157.446 270.912ZM167.96 270.444C168.016 270.204 168.172 270.084 168.428 270.084H168.872C168.992 270.084 169.084 270.112 169.148 270.168C169.22 270.216 169.256 270.292 169.256 270.396C169.256 270.42 169.248 270.472 169.232 270.552L167.804 275.64C167.748 275.88 167.592 276 167.336 276H166.556C166.316 276 166.16 275.88 166.088 275.64L165.692 274.248C165.516 273.632 165.32 272.86 165.104 271.932L165.044 271.668C164.828 272.644 164.62 273.508 164.42 274.26L164.048 275.64C163.992 275.88 163.836 276 163.58 276H162.812C162.572 276 162.416 275.88 162.344 275.64L160.904 270.552C160.888 270.472 160.88 270.42 160.88 270.396C160.88 270.292 160.912 270.216 160.976 270.168C161.048 270.112 161.144 270.084 161.264 270.084H161.732C161.988 270.084 162.144 270.204 162.2 270.444L162.632 272.148C162.8 272.772 162.996 273.604 163.22 274.644L163.268 274.884C163.5 273.812 163.716 272.9 163.916 272.148L164.372 270.444C164.428 270.204 164.584 270.084 164.84 270.084H165.296C165.552 270.084 165.708 270.204 165.764 270.444L166.232 272.148C166.456 272.98 166.68 273.892 166.904 274.884C167.072 274.028 167.28 273.116 167.528 272.148L167.96 270.444Z" fill="#464646"/>
<rect x="32.5" y="256.5" width="153" height="31" rx="3.5" stroke="#D4D4D4"/>
<rect x="32.5" y="302.5" width="63" height="31" rx="3.5" fill="white"/>
<g filter="url(#filter0_i_665_10507)">
<path d="M32 306C32 303.791 33.7909 302 36 302H64V334H36C33.7909 334 32 332.209 32 330V306Z" fill="white"/>
<path d="M46 311H41V316H46V311Z" stroke="#767676" stroke-width="1.5" stroke-linecap="round" stroke-linejoin="round"/>
<path d="M46 320H41V325H46V320Z" stroke="#767676" stroke-width="1.5" stroke-linecap="round" stroke-linejoin="round"/>
<path d="M55 311H50V316H55V311Z" stroke="#767676" stroke-width="1.5" stroke-linecap="round" stroke-linejoin="round"/>
<path d="M55 320H50V325H55V320Z" stroke="#767676" stroke-width="1.5" stroke-linecap="round" stroke-linejoin="round"/>
<path d="M32.5 306C32.5 304.067 34.067 302.5 36 302.5H63.5V333.5H36C34.067 333.5 32.5 331.933 32.5 330V306Z" stroke="#D4D4D4"/>
</g>
<path fill-rule="evenodd" clip-rule="evenodd" d="M77.3333 311.444H87.1111C87.3469 311.444 87.573 311.538 87.7397 311.705C87.9064 311.871 88 312.098 88 312.333C88 312.569 87.9064 312.795 87.7397 312.962C87.573 313.129 87.3469 313.222 87.1111 313.222H77.3333C77.0976 313.222 76.8715 313.129 76.7048 312.962C76.5381 312.795 76.4444 312.569 76.4444 312.333C76.4444 312.098 76.5381 311.871 76.7048 311.705C76.8715 311.538 77.0976 311.444 77.3333 311.444ZM77.3333 316.778H87.1111C87.3469 316.778 87.573 316.871 87.7397 317.038C87.9064 317.205 88 317.431 88 317.667C88 317.902 87.9064 318.129 87.7397 318.295C87.573 318.462 87.3469 318.556 87.1111 318.556H77.3333C77.0976 318.556 76.8715 318.462 76.7048 318.295C76.5381 318.129 76.4444 317.902 76.4444 317.667C76.4444 317.431 76.5381 317.205 76.7048 317.038C76.8715 316.871 77.0976 316.778 77.3333 316.778ZM77.3333 322.111H87.1111C87.3469 322.111 87.573 322.205 87.7397 322.371C87.9064 322.538 88 322.764 88 323C88 323.236 87.9064 323.462 87.7397 323.629C87.573 323.795 87.3469 323.889 87.1111 323.889H77.3333C77.0976 323.889 76.8715 323.795 76.7048 323.629C76.5381 323.462 76.4444 323.236 76.4444 323C76.4444 322.764 76.5381 322.538 76.7048 322.371C76.8715 322.205 77.0976 322.111 77.3333 322.111ZM73.3333 316.333C73.687 316.333 74.0261 316.474 74.2761 316.724C74.5262 316.974 74.6667 317.313 74.6667 317.667C74.6667 318.02 74.5262 318.359 74.2761 318.609C74.0261 318.86 73.687 319 73.3333 319C72.9797 319 72.6406 318.86 72.3905 318.609C72.1405 318.359 72 318.02 72 317.667C72 317.313 72.1405 316.974 72.3905 316.724C72.6406 316.474 72.9797 316.333 73.3333 316.333ZM73.3333 321.667C73.687 321.667 74.0261 321.807 74.2761 322.057C74.5262 322.307 74.6667 322.646 74.6667 323C74.6667 323.354 74.5262 323.693 74.2761 323.943C74.0261 324.193 73.687 324.333 73.3333 324.333C72.9797 324.333 72.6406 324.193 72.3905 323.943C72.1405 323.693 72 323.354 72 323C72 322.646 72.1405 322.307 72.3905 322.057C72.6406 321.807 72.9797 321.667 73.3333 321.667ZM73.3333 311C73.687 311 74.0261 311.14 74.2761 311.391C74.5262 311.641 74.6667 311.98 74.6667 312.333C74.6667 312.687 74.5262 313.026 74.2761 313.276C74.0261 313.526 73.687 313.667 73.3333 313.667C72.9797 313.667 72.6406 313.526 72.3905 313.276C72.1405 313.026 72 312.687 72 312.333C72 311.98 72.1405 311.641 72.3905 311.391C72.6406 311.14 72.9797 311 73.3333 311Z" fill="#767676"/>
<rect x="32.5" y="302.5" width="63" height="31" rx="3.5" stroke="#D4D4D4"/>
<rect x="155.5" y="72.5" width="84" height="31" rx="3.5" fill="white"/>
<circle cx="170.953" cy="87.9531" r="2" stroke="#767676" stroke-width="1.5"/>
<path d="M170.035 81.5335C170.303 80.5513 171.697 80.5513 171.965 81.5335L172.306 82.7823C172.478 83.4129 173.199 83.7115 173.766 83.3873L174.89 82.7454C175.774 82.2405 176.76 83.2255 176.255 84.1096L175.613 85.2338C175.289 85.8014 175.587 86.5222 176.218 86.6944L177.466 87.0353C178.449 87.3035 178.449 88.6965 177.466 88.9647L176.218 89.3056C175.587 89.4778 175.289 90.1986 175.613 90.7662L176.255 91.8904C176.76 92.7745 175.774 93.7595 174.89 93.2546L173.766 92.6127C173.199 92.2885 172.478 92.5871 172.306 93.2177L171.965 94.4665C171.697 95.4487 170.303 95.4487 170.035 94.4665L169.694 93.2177C169.522 92.5871 168.801 92.2885 168.234 92.6127L167.11 93.2546C166.226 93.7595 165.24 92.7745 165.745 91.8904L166.387 90.7662C166.711 90.1986 166.413 89.4778 165.782 89.3056L164.534 88.9647C163.551 88.6965 163.551 87.3035 164.534 87.0353L165.782 86.6944C166.413 86.5222 166.711 85.8014 166.387 85.2338L165.745 84.1096C165.24 83.2255 166.226 82.2405 167.11 82.7454L168.234 83.3873C168.801 83.7115 169.522 83.4129 169.694 82.7823L170.035 81.5335Z" stroke="#767676" stroke-width="1.5"/>
<path d="M190.924 92.192C190.268 92.192 189.68 92.1 189.16 91.916C188.648 91.724 188.12 91.404 187.576 90.956C187.464 90.868 187.408 90.764 187.408 90.644C187.408 90.54 187.448 90.444 187.528 90.356L187.804 90.032C187.892 89.92 187.992 89.864 188.104 89.864C188.192 89.864 188.292 89.908 188.404 89.996C188.884 90.38 189.312 90.644 189.688 90.788C190.072 90.932 190.492 91.004 190.948 91.004C191.5 91.004 191.948 90.88 192.292 90.632C192.636 90.376 192.808 90.028 192.808 89.588C192.808 89.3 192.72 89.076 192.544 88.916C192.368 88.748 192.14 88.62 191.86 88.532C191.588 88.444 191.144 88.328 190.528 88.184C189.784 88.008 189.204 87.816 188.788 87.608C188.372 87.4 188.072 87.152 187.888 86.864C187.712 86.568 187.624 86.196 187.624 85.748C187.624 85.276 187.76 84.852 188.032 84.476C188.304 84.1 188.676 83.808 189.148 83.6C189.628 83.392 190.164 83.288 190.756 83.288C191.356 83.288 191.884 83.368 192.34 83.528C192.804 83.688 193.268 83.948 193.732 84.308C193.852 84.404 193.912 84.504 193.912 84.608C193.912 84.696 193.872 84.792 193.792 84.896L193.528 85.208C193.432 85.32 193.332 85.376 193.228 85.376C193.132 85.376 193.032 85.336 192.928 85.256C192.544 84.96 192.188 84.756 191.86 84.644C191.532 84.532 191.16 84.476 190.744 84.476C190.216 84.476 189.788 84.592 189.46 84.824C189.132 85.056 188.968 85.348 188.968 85.7C188.968 85.956 189.044 86.16 189.196 86.312C189.348 86.464 189.568 86.588 189.856 86.684C190.144 86.78 190.588 86.896 191.188 87.032C191.916 87.208 192.492 87.396 192.916 87.596C193.34 87.788 193.656 88.036 193.864 88.34C194.072 88.644 194.176 89.032 194.176 89.504C194.176 90.032 194.04 90.5 193.768 90.908C193.496 91.316 193.116 91.632 192.628 91.856C192.14 92.08 191.572 92.192 190.924 92.192ZM199.644 90.488C199.748 90.4 199.848 90.356 199.944 90.356C200.04 90.356 200.14 90.408 200.244 90.512L200.412 90.692C200.5 90.796 200.544 90.896 200.544 90.992C200.544 91.096 200.492 91.196 200.388 91.292C200.02 91.612 199.652 91.84 199.284 91.976C198.924 92.112 198.524 92.18 198.084 92.18C197.468 92.18 196.932 92.052 196.476 91.796C196.028 91.54 195.68 91.18 195.432 90.716C195.192 90.244 195.072 89.7 195.072 89.084C195.072 88.476 195.188 87.932 195.42 87.452C195.66 86.964 195.996 86.584 196.428 86.312C196.868 86.04 197.38 85.904 197.964 85.904C198.836 85.904 199.508 86.164 199.98 86.684C200.452 87.196 200.688 87.904 200.688 88.808V88.916C200.68 89.044 200.64 89.144 200.568 89.216C200.496 89.288 200.392 89.324 200.256 89.324H196.32C196.368 89.852 196.54 90.284 196.836 90.62C197.14 90.948 197.564 91.112 198.108 91.112C198.404 91.112 198.664 91.068 198.888 90.98C199.112 90.884 199.364 90.72 199.644 90.488ZM197.94 86.912C197.5 86.912 197.144 87.044 196.872 87.308C196.608 87.564 196.436 87.928 196.356 88.4H199.44C199.408 87.936 199.264 87.572 199.008 87.308C198.752 87.044 198.396 86.912 197.94 86.912ZM204.639 90.992C204.663 90.984 204.699 90.98 204.747 90.98C204.947 90.98 205.067 91.096 205.107 91.328L205.143 91.52C205.151 91.544 205.155 91.584 205.155 91.64C205.155 91.84 205.043 91.968 204.819 92.024C204.499 92.096 204.207 92.132 203.943 92.132C203.375 92.132 202.963 92 202.707 91.736C202.459 91.472 202.335 91.076 202.335 90.548V87.056H201.675C201.547 87.056 201.443 87.02 201.363 86.948C201.291 86.868 201.255 86.764 201.255 86.636V86.504C201.255 86.368 201.291 86.264 201.363 86.192C201.443 86.12 201.547 86.084 201.675 86.084H202.335V84.596C202.335 84.46 202.371 84.356 202.443 84.284C202.523 84.212 202.627 84.176 202.755 84.176H203.187C203.323 84.176 203.427 84.212 203.499 84.284C203.571 84.356 203.607 84.46 203.607 84.596V86.084H204.687C204.823 86.084 204.927 86.12 204.999 86.192C205.071 86.264 205.107 86.368 205.107 86.504V86.636C205.107 86.764 205.071 86.868 204.999 86.948C204.927 87.02 204.823 87.056 204.687 87.056H203.607V90.392C203.607 90.624 203.655 90.788 203.751 90.884C203.855 90.98 204.019 91.028 204.243 91.028C204.339 91.028 204.471 91.016 204.639 90.992ZM209.033 90.992C209.057 90.984 209.093 90.98 209.141 90.98C209.341 90.98 209.461 91.096 209.501 91.328L209.537 91.52C209.545 91.544 209.549 91.584 209.549 91.64C209.549 91.84 209.437 91.968 209.213 92.024C208.893 92.096 208.601 92.132 208.337 92.132C207.769 92.132 207.357 92 207.101 91.736C206.853 91.472 206.729 91.076 206.729 90.548V87.056H206.069C205.941 87.056 205.837 87.02 205.757 86.948C205.685 86.868 205.649 86.764 205.649 86.636V86.504C205.649 86.368 205.685 86.264 205.757 86.192C205.837 86.12 205.941 86.084 206.069 86.084H206.729V84.596C206.729 84.46 206.765 84.356 206.837 84.284C206.917 84.212 207.021 84.176 207.149 84.176H207.581C207.717 84.176 207.821 84.212 207.893 84.284C207.965 84.356 208.001 84.46 208.001 84.596V86.084H209.081C209.217 86.084 209.321 86.12 209.393 86.192C209.465 86.264 209.501 86.368 209.501 86.504V86.636C209.501 86.764 209.465 86.868 209.393 86.948C209.321 87.02 209.217 87.056 209.081 87.056H208.001V90.392C208.001 90.624 208.049 90.788 208.145 90.884C208.249 90.98 208.413 91.028 208.637 91.028C208.733 91.028 208.865 91.016 209.033 90.992ZM211.196 84.932C210.964 84.932 210.768 84.856 210.608 84.704C210.448 84.544 210.368 84.356 210.368 84.14C210.368 83.916 210.448 83.728 210.608 83.576C210.768 83.424 210.964 83.348 211.196 83.348C211.428 83.348 211.624 83.424 211.784 83.576C211.944 83.728 212.024 83.916 212.024 84.14C212.024 84.356 211.944 84.544 211.784 84.704C211.624 84.856 211.428 84.932 211.196 84.932ZM210.968 92C210.84 92 210.736 91.964 210.656 91.892C210.584 91.812 210.548 91.708 210.548 91.58V86.504C210.548 86.368 210.584 86.264 210.656 86.192C210.736 86.12 210.84 86.084 210.968 86.084H211.4C211.536 86.084 211.64 86.12 211.712 86.192C211.784 86.264 211.82 86.368 211.82 86.504V91.58C211.82 91.708 211.784 91.812 211.712 91.892C211.64 91.964 211.536 92 211.4 92H210.968ZM216.303 85.904C216.983 85.904 217.503 86.096 217.863 86.48C218.231 86.856 218.415 87.344 218.415 87.944V91.58C218.415 91.708 218.379 91.812 218.307 91.892C218.235 91.964 218.131 92 217.995 92H217.563C217.435 92 217.331 91.964 217.251 91.892C217.179 91.812 217.143 91.708 217.143 91.58V88.34C217.143 87.908 217.035 87.576 216.819 87.344C216.611 87.112 216.311 86.996 215.919 86.996C215.535 86.996 215.211 87.128 214.947 87.392C214.691 87.656 214.563 87.988 214.563 88.388V91.58C214.563 91.708 214.527 91.812 214.455 91.892C214.383 91.964 214.279 92 214.143 92H213.711C213.583 92 213.479 91.964 213.399 91.892C213.327 91.812 213.291 91.708 213.291 91.58V86.504C213.291 86.368 213.327 86.264 213.399 86.192C213.479 86.12 213.583 86.084 213.711 86.084H214.059C214.195 86.084 214.299 86.12 214.371 86.192C214.443 86.264 214.479 86.368 214.479 86.504V86.816C214.671 86.52 214.923 86.296 215.235 86.144C215.547 85.984 215.903 85.904 216.303 85.904ZM224.041 86.468C224.041 86.348 224.077 86.256 224.149 86.192C224.229 86.12 224.333 86.084 224.461 86.084H224.797C224.933 86.084 225.037 86.12 225.109 86.192C225.181 86.264 225.217 86.368 225.217 86.504V91.784C225.217 92.576 224.961 93.192 224.449 93.632C223.945 94.072 223.273 94.292 222.433 94.292C221.593 94.292 220.801 94.076 220.057 93.644C219.905 93.564 219.829 93.456 219.829 93.32C219.829 93.248 219.861 93.16 219.925 93.056L220.081 92.828C220.169 92.692 220.277 92.624 220.405 92.624C220.493 92.624 220.581 92.652 220.669 92.708C220.989 92.892 221.285 93.024 221.557 93.104C221.829 93.192 222.117 93.236 222.421 93.236C222.885 93.236 223.257 93.108 223.537 92.852C223.825 92.604 223.969 92.212 223.969 91.676V91.04C223.569 91.608 222.969 91.892 222.169 91.892C221.673 91.892 221.225 91.768 220.825 91.52C220.433 91.264 220.125 90.912 219.901 90.464C219.685 90.008 219.577 89.488 219.577 88.904C219.577 88.32 219.685 87.804 219.901 87.356C220.125 86.9 220.433 86.544 220.825 86.288C221.225 86.032 221.673 85.904 222.169 85.904C223.017 85.904 223.641 86.22 224.041 86.852V86.468ZM222.421 90.824C222.885 90.824 223.265 90.648 223.561 90.296C223.857 89.936 224.005 89.472 224.005 88.904C224.005 88.344 223.857 87.888 223.561 87.536C223.273 87.176 222.893 86.996 222.421 86.996C221.941 86.996 221.561 87.172 221.281 87.524C221.001 87.876 220.861 88.336 220.861 88.904C220.861 89.48 221.001 89.944 221.281 90.296C221.561 90.648 221.941 90.824 222.421 90.824ZM228.965 92.18C228.477 92.18 228.041 92.12 227.657 92C227.281 91.872 226.897 91.652 226.505 91.34C226.385 91.252 226.325 91.152 226.325 91.04C226.325 90.952 226.369 90.856 226.457 90.752L226.637 90.548C226.733 90.436 226.837 90.38 226.949 90.38C227.037 90.38 227.133 90.42 227.237 90.5C227.573 90.748 227.869 90.92 228.125 91.016C228.381 91.104 228.669 91.148 228.989 91.148C229.333 91.148 229.613 91.08 229.829 90.944C230.053 90.8 230.165 90.608 230.165 90.368C230.165 90.184 230.101 90.04 229.973 89.936C229.853 89.824 229.693 89.74 229.493 89.684C229.293 89.62 228.997 89.548 228.605 89.468C228.053 89.348 227.621 89.22 227.309 89.084C227.005 88.94 226.785 88.76 226.649 88.544C226.513 88.328 226.445 88.052 226.445 87.716C226.445 87.372 226.541 87.064 226.733 86.792C226.933 86.52 227.209 86.304 227.561 86.144C227.921 85.984 228.341 85.904 228.821 85.904C229.253 85.904 229.637 85.952 229.973 86.048C230.317 86.144 230.653 86.308 230.981 86.54C231.109 86.636 231.173 86.744 231.173 86.864C231.173 86.944 231.133 87.036 231.053 87.14L230.897 87.332C230.809 87.444 230.701 87.5 230.573 87.5C230.477 87.5 230.385 87.468 230.297 87.404C230.033 87.228 229.789 87.108 229.565 87.044C229.341 86.972 229.089 86.936 228.809 86.936C228.465 86.936 228.189 87.004 227.981 87.14C227.773 87.276 227.669 87.452 227.669 87.668C227.669 87.812 227.717 87.928 227.813 88.016C227.917 88.096 228.061 88.168 228.245 88.232C228.437 88.288 228.737 88.36 229.145 88.448C229.697 88.568 230.133 88.704 230.453 88.856C230.781 89 231.021 89.188 231.173 89.42C231.333 89.644 231.413 89.936 231.413 90.296C231.413 90.856 231.189 91.312 230.741 91.664C230.301 92.008 229.709 92.18 228.965 92.18Z" fill="#474445"/>
<rect x="155.5" y="72.5" width="84" height="31" rx="3.5" stroke="#C3CCD9"/>
<rect x="70.5" y="118.5" width="29" height="31" rx="3.5" fill="white"/>
<circle cx="84.9531" cy="133.953" r="2" stroke="#767676" stroke-width="1.5"/>
<path d="M84.0353 127.534C84.3035 126.551 85.6965 126.551 85.9647 127.534L86.3056 128.782C86.4778 129.413 87.1986 129.711 87.7662 129.387L88.8904 128.745C89.7745 128.24 90.7595 129.226 90.2546 130.11L89.6127 131.234C89.2885 131.801 89.5871 132.522 90.2177 132.694L91.4665 133.035C92.4487 133.303 92.4487 134.697 91.4665 134.965L90.2177 135.306C89.5871 135.478 89.2885 136.199 89.6127 136.766L90.2546 137.89C90.7595 138.774 89.7745 139.76 88.8904 139.255L87.7662 138.613C87.1986 138.289 86.4778 138.587 86.3056 139.218L85.9647 140.466C85.6965 141.449 84.3035 141.449 84.0353 140.466L83.6944 139.218C83.5222 138.587 82.8014 138.289 82.2338 138.613L81.1096 139.255C80.2255 139.76 79.2405 138.774 79.7454 137.89L80.3873 136.766C80.7115 136.199 80.4129 135.478 79.7823 135.306L78.5335 134.965C77.5513 134.697 77.5513 133.303 78.5335 133.035L79.7823 132.694C80.4129 132.522 80.7115 131.801 80.3873 131.234L79.7454 130.11C79.2405 129.226 80.2255 128.24 81.1096 128.745L82.2338 129.387C82.8014 129.711 83.5222 129.413 83.6944 128.782L84.0353 127.534Z" stroke="#767676" stroke-width="1.5"/>
<rect x="70.5" y="118.5" width="29" height="31" rx="3.5" stroke="#C3CCD9"/>
<circle cx="84.9531" cy="179.953" r="2" stroke="#767676" stroke-width="1.5"/>
<path d="M84.0353 173.534C84.3035 172.551 85.6965 172.551 85.9647 173.534L86.3056 174.782C86.4778 175.413 87.1986 175.711 87.7662 175.387L88.8904 174.745C89.7745 174.24 90.7595 175.226 90.2546 176.11L89.6127 177.234C89.2885 177.801 89.5871 178.522 90.2177 178.694L91.4665 179.035C92.4487 179.303 92.4487 180.697 91.4665 180.965L90.2177 181.306C89.5871 181.478 89.2885 182.199 89.6127 182.766L90.2546 183.89C90.7595 184.774 89.7745 185.76 88.8904 185.255L87.7662 184.613C87.1986 184.289 86.4778 184.587 86.3056 185.218L85.9647 186.466C85.6965 187.449 84.3035 187.449 84.0353 186.466L83.6944 185.218C83.5222 184.587 82.8014 184.289 82.2338 184.613L81.1096 185.255C80.2255 185.76 79.2405 184.774 79.7454 183.89L80.3873 182.766C80.7115 182.199 80.4129 181.478 79.7823 181.306L78.5335 180.965C77.5513 180.697 77.5513 179.303 78.5335 179.035L79.7823 178.694C80.4129 178.522 80.7115 177.801 80.3873 177.234L79.7454 176.11C79.2405 175.226 80.2255 174.24 81.1096 174.745L82.2338 175.387C82.8014 175.711 83.5222 175.413 83.6944 174.782L84.0353 173.534Z" stroke="#767676" stroke-width="1.5"/>
<path d="M116.5 175.5L117 181.25L117.46 186.543C117.483 186.802 117.699 187 117.958 187H126.042C126.301 187 126.517 186.802 126.54 186.543L127.5 175.5" stroke="#767676" stroke-width="1.5" stroke-linecap="round" stroke-linejoin="round"/>
<path d="M123.5 179V183.5" stroke="#767676" stroke-width="1.5" stroke-linecap="round" stroke-linejoin="round"/>
<path d="M120.5 179V183.5" stroke="#767676" stroke-width="1.5" stroke-linecap="round" stroke-linejoin="round"/>
<path d="M119 175.5V174C119 173.448 119.448 173 120 173H124C124.552 173 125 173.448 125 174V175.5" stroke="#767676" stroke-width="1.5" stroke-linecap="round" stroke-linejoin="round"/>
<path d="M115 175.5H129" stroke="#767676" stroke-width="1.5" stroke-linecap="round" stroke-linejoin="round"/>
<path d="M39.236 51.712C39.268 51.752 39.284 51.796 39.284 51.844C39.284 51.948 39.216 52 39.08 52H38.636C38.516 52 38.42 51.948 38.348 51.844L36.068 48.46H33.884V51.76C33.884 51.92 33.804 52 33.644 52H33.272C33.112 52 33.032 51.92 33.032 51.76V43.72C33.032 43.56 33.112 43.48 33.272 43.48H36.404C37.22 43.48 37.88 43.7 38.384 44.14C38.888 44.572 39.14 45.18 39.14 45.964C39.14 46.652 38.944 47.208 38.552 47.632C38.168 48.056 37.648 48.316 36.992 48.412L39.236 51.712ZM33.884 47.752H36.272C36.904 47.752 37.4 47.6 37.76 47.296C38.12 46.992 38.3 46.548 38.3 45.964C38.3 45.388 38.116 44.948 37.748 44.644C37.388 44.34 36.892 44.188 36.26 44.188H33.884V47.752ZM44.8718 50.596C44.9278 50.54 44.9878 50.512 45.0518 50.512C45.1078 50.512 45.1598 50.536 45.2078 50.584L45.3638 50.728C45.4198 50.784 45.4478 50.844 45.4478 50.908C45.4478 50.956 45.4238 51.012 45.3758 51.076C44.9838 51.468 44.6038 51.748 44.2358 51.916C43.8678 52.076 43.4558 52.156 42.9998 52.156C42.4238 52.156 41.9238 52.028 41.4998 51.772C41.0758 51.516 40.7478 51.16 40.5158 50.704C40.2838 50.24 40.1678 49.704 40.1678 49.096C40.1678 48.48 40.2798 47.936 40.5038 47.464C40.7358 46.984 41.0598 46.612 41.4758 46.348C41.8918 46.076 42.3718 45.94 42.9158 45.94C43.7238 45.94 44.3598 46.192 44.8238 46.696C45.2878 47.2 45.5198 47.88 45.5198 48.736V48.88C45.5118 48.952 45.4838 49.008 45.4358 49.048C45.3958 49.088 45.3398 49.108 45.2678 49.108H40.9718C40.9958 49.78 41.1718 50.348 41.4998 50.812C41.8358 51.268 42.3358 51.496 42.9998 51.496C43.3598 51.496 43.6758 51.432 43.9478 51.304C44.2278 51.168 44.5358 50.932 44.8718 50.596ZM42.9158 46.6C42.3878 46.6 41.9518 46.764 41.6078 47.092C41.2718 47.412 41.0678 47.884 40.9958 48.508H44.7278C44.7118 47.924 44.5438 47.46 44.2238 47.116C43.9038 46.772 43.4678 46.6 42.9158 46.6ZM51.1985 46.324C51.1985 46.164 51.2785 46.084 51.4385 46.084H51.6905C51.8505 46.084 51.9305 46.164 51.9305 46.324V51.94C51.9305 52.684 51.7065 53.268 51.2585 53.692C50.8105 54.124 50.1825 54.34 49.3745 54.34C48.5025 54.34 47.6985 54.092 46.9625 53.596C46.8825 53.548 46.8425 53.488 46.8425 53.416C46.8425 53.36 46.8585 53.312 46.8905 53.272L47.0345 53.068C47.0825 52.988 47.1465 52.948 47.2265 52.948C47.2585 52.948 47.3065 52.964 47.3705 52.996C47.7225 53.22 48.0505 53.388 48.3545 53.5C48.6665 53.612 49.0065 53.668 49.3745 53.668C49.9025 53.668 50.3305 53.52 50.6585 53.224C50.9865 52.936 51.1505 52.488 51.1505 51.88V50.92C50.7185 51.616 50.0625 51.964 49.1825 51.964C48.6705 51.964 48.2185 51.836 47.8265 51.58C47.4345 51.316 47.1305 50.956 46.9145 50.5C46.7065 50.044 46.6025 49.528 46.6025 48.952C46.6025 48.376 46.7065 47.86 46.9145 47.404C47.1305 46.948 47.4345 46.592 47.8265 46.336C48.2185 46.072 48.6705 45.94 49.1825 45.94C49.6465 45.94 50.0465 46.04 50.3825 46.24C50.7265 46.432 50.9985 46.708 51.1985 47.068V46.324ZM49.2665 51.292C49.8425 51.292 50.3025 51.076 50.6465 50.644C50.9905 50.204 51.1625 49.64 51.1625 48.952C51.1625 48.264 50.9905 47.704 50.6465 47.272C50.3025 46.832 49.8425 46.612 49.2665 46.612C48.6825 46.612 48.2265 46.828 47.8985 47.26C47.5785 47.692 47.4185 48.256 47.4185 48.952C47.4185 49.648 47.5785 50.212 47.8985 50.644C48.2265 51.076 48.6825 51.292 49.2665 51.292ZM57.5522 46.324C57.5522 46.164 57.6322 46.084 57.7922 46.084H58.1042C58.2642 46.084 58.3442 46.164 58.3442 46.324V51.76C58.3442 51.92 58.2642 52 58.1042 52H57.8522C57.6922 52 57.6122 51.92 57.6122 51.76V51.22C57.4362 51.532 57.1842 51.768 56.8562 51.928C56.5362 52.08 56.1842 52.156 55.8002 52.156C55.0802 52.156 54.5482 51.976 54.2042 51.616C53.8602 51.248 53.6882 50.776 53.6882 50.2V46.324C53.6882 46.164 53.7682 46.084 53.9282 46.084H54.2402C54.4002 46.084 54.4802 46.164 54.4802 46.324V50.032C54.4802 50.504 54.5962 50.864 54.8282 51.112C55.0682 51.352 55.4082 51.472 55.8482 51.472C56.3442 51.472 56.7522 51.32 57.0722 51.016C57.3922 50.712 57.5522 50.28 57.5522 49.72V46.324ZM60.3744 52C60.2144 52 60.1344 51.92 60.1344 51.76V43.72C60.1344 43.56 60.2144 43.48 60.3744 43.48H60.6864C60.8464 43.48 60.9264 43.56 60.9264 43.72V51.76C60.9264 51.92 60.8464 52 60.6864 52H60.3744ZM64.9922 45.94C65.7202 45.94 66.2882 46.116 66.6962 46.468C67.1042 46.812 67.3082 47.268 67.3082 47.836V51.76C67.3082 51.92 67.2282 52 67.0682 52H66.8282C66.6682 52 66.5882 51.92 66.5882 51.76V51.22C66.3882 51.54 66.1042 51.78 65.7362 51.94C65.3762 52.1 64.9722 52.18 64.5242 52.18C63.9002 52.18 63.3922 52.048 63.0002 51.784C62.6082 51.52 62.4122 51.112 62.4122 50.56C62.4122 50.12 62.5362 49.768 62.7842 49.504C63.0322 49.232 63.3562 49.028 63.7562 48.892C64.1562 48.748 64.6562 48.62 65.2562 48.508L66.5522 48.28V47.896C66.5522 47.488 66.4122 47.172 66.1322 46.948C65.8522 46.716 65.4842 46.6 65.0282 46.6C64.6842 46.6 64.3722 46.664 64.0922 46.792C63.8122 46.92 63.5122 47.14 63.1922 47.452C63.1362 47.508 63.0762 47.536 63.0122 47.536C62.9562 47.536 62.9042 47.512 62.8562 47.464L62.7002 47.32C62.6442 47.264 62.6162 47.204 62.6162 47.14C62.6162 47.068 62.6442 47.004 62.7002 46.948C63.0362 46.596 63.3882 46.34 63.7562 46.18C64.1322 46.02 64.5442 45.94 64.9922 45.94ZM64.5602 51.52C65.1362 51.52 65.6122 51.368 65.9882 51.064C66.3642 50.76 66.5522 50.372 66.5522 49.9V48.892L65.4362 49.108C64.9162 49.212 64.5042 49.312 64.2002 49.408C63.8962 49.504 63.6522 49.644 63.4682 49.828C63.2842 50.012 63.1922 50.252 63.1922 50.548C63.1922 50.852 63.3122 51.092 63.5522 51.268C63.8002 51.436 64.1362 51.52 64.5602 51.52ZM71.2718 46.036C71.4718 46.036 71.7078 46.068 71.9798 46.132C72.1238 46.18 72.1798 46.28 72.1478 46.432L72.0998 46.624C72.0598 46.776 71.9598 46.832 71.7998 46.792C71.6078 46.744 71.4318 46.72 71.2718 46.72C70.8638 46.72 70.5238 46.896 70.2518 47.248C69.9878 47.6 69.8558 48.088 69.8558 48.712V51.76C69.8558 51.92 69.7758 52 69.6158 52H69.3038C69.1438 52 69.0638 51.92 69.0638 51.76V46.324C69.0638 46.164 69.1438 46.084 69.3038 46.084H69.5678C69.7278 46.084 69.8078 46.164 69.8078 46.324V46.984C69.9438 46.688 70.1358 46.456 70.3838 46.288C70.6398 46.12 70.9358 46.036 71.2718 46.036Z" fill="#767676"/>
<defs>
<filter id="filter0_i_665_10507" x="32" y="302" width="32" height="32" filterUnits="userSpaceOnUse" color-interpolation-filters="sRGB">
<feFlood flood-opacity="0" result="BackgroundImageFix"/>
<feBlend mode="normal" in="SourceGraphic" in2="BackgroundImageFix" result="shape"/>
<feColorMatrix in="SourceAlpha" type="matrix" values="0 0 0 0 0 0 0 0 0 0 0 0 0 0 0 0 0 0 127 0" result="hardAlpha"/>
<feOffset dx="-1"/>
<feComposite in2="hardAlpha" operator="arithmetic" k2="-1" k3="1"/>
<feColorMatrix type="matrix" values="0 0 0 0 0.764706 0 0 0 0 0.8 0 0 0 0 0.85098 0 0 0 1 0"/>
<feBlend mode="normal" in2="shape" result="effect1_innerShadow_665_10507"/>
</filter>
</defs>
</svg>
