<svg width="344" height="128" viewBox="0 0 344 128" fill="none" xmlns="http://www.w3.org/2000/svg">
<rect x="136" y="41" width="73" height="46" rx="7" fill="#0063FB"/>
<path d="M167.896 58.024C168.056 57.768 168.28 57.64 168.568 57.64H169.304C169.454 57.64 169.571 57.672 169.656 57.736C169.742 57.8 169.784 57.8853 169.784 57.992C169.784 58.088 169.747 58.1947 169.672 58.312L166.072 64.184V68.44C166.072 68.6107 166.024 68.7493 165.928 68.856C165.832 68.952 165.694 69 165.512 69H164.792C164.622 69 164.483 68.952 164.376 68.856C164.28 68.7493 164.232 68.6107 164.232 68.44V64.168L160.648 58.312C160.574 58.1947 160.536 58.088 160.536 57.992C160.536 57.8853 160.579 57.8 160.664 57.736C160.75 57.672 160.867 57.64 161.016 57.64H161.8C162.088 57.64 162.312 57.768 162.472 58.024L165.192 62.584L167.896 58.024ZM175.241 66.984C175.38 66.8667 175.513 66.808 175.641 66.808C175.769 66.808 175.903 66.8773 176.041 67.016L176.265 67.256C176.383 67.3947 176.441 67.528 176.441 67.656C176.441 67.7947 176.372 67.928 176.233 68.056C175.743 68.4827 175.252 68.7867 174.761 68.968C174.281 69.1493 173.748 69.24 173.161 69.24C172.34 69.24 171.625 69.0693 171.017 68.728C170.42 68.3867 169.956 67.9067 169.625 67.288C169.305 66.6587 169.145 65.9333 169.145 65.112C169.145 64.3013 169.3 63.576 169.609 62.936C169.929 62.2853 170.377 61.7787 170.953 61.416C171.54 61.0533 172.223 60.872 173.001 60.872C174.164 60.872 175.06 61.2187 175.689 61.912C176.319 62.5947 176.633 63.5387 176.633 64.744V64.888C176.623 65.0587 176.569 65.192 176.473 65.288C176.377 65.384 176.239 65.432 176.057 65.432H170.809C170.873 66.136 171.103 66.712 171.497 67.16C171.903 67.5973 172.468 67.816 173.193 67.816C173.588 67.816 173.935 67.7573 174.233 67.64C174.532 67.512 174.868 67.2933 175.241 66.984ZM172.969 62.216C172.383 62.216 171.908 62.392 171.545 62.744C171.193 63.0853 170.964 63.5707 170.857 64.2H174.969C174.927 63.5813 174.735 63.096 174.393 62.744C174.052 62.392 173.577 62.216 172.969 62.216ZM181.258 69.24C180.608 69.24 180.026 69.16 179.514 69C179.013 68.8293 178.501 68.536 177.978 68.12C177.818 68.0027 177.738 67.8693 177.738 67.72C177.738 67.6027 177.797 67.4747 177.914 67.336L178.154 67.064C178.282 66.9147 178.421 66.84 178.57 66.84C178.688 66.84 178.816 66.8933 178.954 67C179.402 67.3307 179.797 67.56 180.138 67.688C180.48 67.8053 180.864 67.864 181.29 67.864C181.749 67.864 182.122 67.7733 182.41 67.592C182.709 67.4 182.858 67.144 182.858 66.824C182.858 66.5787 182.773 66.3867 182.602 66.248C182.442 66.0987 182.229 65.9867 181.962 65.912C181.696 65.8267 181.301 65.7307 180.778 65.624C180.042 65.464 179.466 65.2933 179.05 65.112C178.645 64.92 178.352 64.68 178.17 64.392C177.989 64.104 177.898 63.736 177.898 63.288C177.898 62.8293 178.026 62.4187 178.282 62.056C178.549 61.6933 178.917 61.4053 179.386 61.192C179.866 60.9787 180.426 60.872 181.066 60.872C181.642 60.872 182.154 60.936 182.602 61.064C183.061 61.192 183.509 61.4107 183.946 61.72C184.117 61.848 184.202 61.992 184.202 62.152C184.202 62.2587 184.149 62.3813 184.042 62.52L183.834 62.776C183.717 62.9253 183.573 63 183.402 63C183.274 63 183.152 62.9573 183.034 62.872C182.682 62.6373 182.357 62.4773 182.058 62.392C181.76 62.296 181.424 62.248 181.05 62.248C180.592 62.248 180.224 62.3387 179.946 62.52C179.669 62.7013 179.53 62.936 179.53 63.224C179.53 63.416 179.594 63.5707 179.722 63.688C179.861 63.7947 180.053 63.8907 180.298 63.976C180.554 64.0507 180.954 64.1467 181.498 64.264C182.234 64.424 182.816 64.6053 183.242 64.808C183.68 65 184 65.2507 184.202 65.56C184.416 65.8587 184.522 66.248 184.522 66.728C184.522 67.4747 184.224 68.0827 183.626 68.552C183.04 69.0107 182.25 69.24 181.258 69.24Z" fill="white"/>
<rect x="136" y="41" width="73" height="46" rx="7" stroke="#0063FB" stroke-width="2"/>
</svg>
