<svg width="344" height="128" viewBox="0 0 344 128" fill="none" xmlns="http://www.w3.org/2000/svg">
<rect x="127" y="41" width="91" height="46" rx="7" fill="#C026D3"/>
<path d="M150.016 63.016C150.699 63.2187 151.232 63.5547 151.616 64.024C152 64.4933 152.192 65.0853 152.192 65.8C152.192 66.792 151.872 67.576 151.232 68.152C150.603 68.7173 149.755 69 148.688 69H143.792C143.621 69 143.483 68.952 143.376 68.856C143.28 68.7493 143.232 68.6107 143.232 68.44V58.2C143.232 58.0187 143.28 57.88 143.376 57.784C143.483 57.688 143.621 57.64 143.792 57.64H148.432C149.424 57.64 150.229 57.896 150.848 58.408C151.477 58.9093 151.792 59.624 151.792 60.552C151.792 61.1707 151.632 61.6933 151.312 62.12C150.992 62.536 150.56 62.8347 150.016 63.016ZM145.056 62.344H148.016C148.656 62.344 149.147 62.2 149.488 61.912C149.84 61.6133 150.016 61.1973 150.016 60.664C150.016 60.1413 149.845 59.7467 149.504 59.48C149.163 59.2133 148.672 59.08 148.032 59.08H145.056V62.344ZM148.08 67.56C148.827 67.56 149.392 67.3947 149.776 67.064C150.171 66.7333 150.368 66.2747 150.368 65.688C150.368 65.112 150.165 64.6533 149.76 64.312C149.365 63.96 148.805 63.784 148.08 63.784H145.056V67.56H148.08ZM158.765 61.672C158.765 61.4907 158.813 61.352 158.909 61.256C159.016 61.16 159.155 61.112 159.325 61.112H159.901C160.083 61.112 160.221 61.16 160.317 61.256C160.413 61.352 160.461 61.4907 160.461 61.672V68.44C160.461 68.6107 160.413 68.7493 160.317 68.856C160.221 68.952 160.083 69 159.901 69H159.469C159.299 69 159.16 68.952 159.053 68.856C158.957 68.7493 158.909 68.6107 158.909 68.44V68.072C158.696 68.4347 158.387 68.7227 157.981 68.936C157.576 69.1387 157.096 69.24 156.541 69.24C155.603 69.24 154.904 69.0107 154.445 68.552C153.987 68.0827 153.757 67.464 153.757 66.696V61.672C153.757 61.4907 153.805 61.352 153.901 61.256C154.008 61.16 154.147 61.112 154.317 61.112H154.893C155.075 61.112 155.213 61.16 155.309 61.256C155.405 61.352 155.453 61.4907 155.453 61.672V66.248C155.453 66.7387 155.576 67.1173 155.821 67.384C156.077 67.64 156.445 67.768 156.925 67.768C157.48 67.768 157.923 67.608 158.253 67.288C158.595 66.968 158.765 66.504 158.765 65.896V61.672ZM167.246 61.576C167.342 61.2667 167.55 61.112 167.87 61.112H168.446C168.606 61.112 168.728 61.1493 168.814 61.224C168.899 61.2987 168.942 61.4 168.942 61.528C168.942 61.592 168.926 61.6667 168.894 61.752L166.03 69.976C165.774 70.7227 165.454 71.2507 165.07 71.56C164.696 71.88 164.163 72.04 163.47 72.04C163.15 72.04 162.878 72.0187 162.654 71.976C162.504 71.9653 162.392 71.912 162.318 71.816C162.243 71.7307 162.206 71.624 162.206 71.496C162.206 71.4213 162.211 71.3627 162.222 71.32L162.27 71.112C162.344 70.8133 162.504 70.664 162.75 70.664C162.846 70.664 162.936 70.6693 163.022 70.68C163.107 70.6907 163.192 70.696 163.278 70.696C163.587 70.696 163.843 70.616 164.046 70.456C164.259 70.296 164.435 70.0027 164.574 69.576L164.622 69.448L161.886 61.752C161.854 61.6667 161.838 61.5867 161.838 61.512C161.838 61.384 161.88 61.288 161.965 61.224C162.062 61.1493 162.19 61.112 162.35 61.112H162.958C163.288 61.112 163.502 61.2667 163.598 61.576L164.222 63.448C164.691 64.792 165.091 66.024 165.422 67.144L165.886 65.72C165.96 65.496 166.072 65.144 166.222 64.664C166.371 64.184 166.504 63.7733 166.622 63.432L167.246 61.576ZM177.758 60.872C178.664 60.872 179.358 61.128 179.838 61.64C180.328 62.1413 180.574 62.792 180.574 63.592V68.44C180.574 68.6107 180.526 68.7493 180.43 68.856C180.334 68.952 180.195 69 180.014 69H179.438C179.267 69 179.128 68.952 179.022 68.856C178.926 68.7493 178.878 68.6107 178.878 68.44V64.12C178.878 63.544 178.734 63.1013 178.446 62.792C178.168 62.4827 177.768 62.328 177.246 62.328C176.734 62.328 176.302 62.504 175.95 62.856C175.608 63.208 175.438 63.6507 175.438 64.184V68.44C175.438 68.6107 175.39 68.7493 175.294 68.856C175.198 68.952 175.059 69 174.878 69H174.302C174.131 69 173.992 68.952 173.886 68.856C173.79 68.7493 173.742 68.6107 173.742 68.44V61.672C173.742 61.4907 173.79 61.352 173.886 61.256C173.992 61.16 174.131 61.112 174.302 61.112H174.766C174.947 61.112 175.086 61.16 175.182 61.256C175.278 61.352 175.326 61.4907 175.326 61.672V62.088C175.582 61.6933 175.918 61.3947 176.334 61.192C176.75 60.9787 177.224 60.872 177.758 60.872ZM186.075 69.24C185.296 69.24 184.603 69.064 183.995 68.712C183.398 68.36 182.928 67.8693 182.587 67.24C182.246 66.6 182.075 65.8693 182.075 65.048C182.075 64.2267 182.246 63.5013 182.587 62.872C182.928 62.2427 183.398 61.752 183.995 61.4C184.603 61.048 185.296 60.872 186.075 60.872C186.843 60.872 187.531 61.048 188.139 61.4C188.747 61.752 189.222 62.248 189.563 62.888C189.904 63.5173 190.075 64.2373 190.075 65.048C190.075 65.8693 189.904 66.6 189.563 67.24C189.222 67.8693 188.747 68.36 188.139 68.712C187.531 69.064 186.843 69.24 186.075 69.24ZM186.075 67.816C186.758 67.816 187.307 67.5653 187.723 67.064C188.139 66.552 188.347 65.88 188.347 65.048C188.347 64.2267 188.139 63.5653 187.723 63.064C187.307 62.5627 186.758 62.312 186.075 62.312C185.392 62.312 184.843 62.5627 184.427 63.064C184.011 63.5653 183.803 64.2267 183.803 65.048C183.803 65.88 184.011 66.552 184.427 67.064C184.843 67.5653 185.392 67.816 186.075 67.816ZM200.34 61.592C200.415 61.272 200.623 61.112 200.964 61.112H201.556C201.716 61.112 201.839 61.1493 201.924 61.224C202.02 61.288 202.068 61.3893 202.068 61.528C202.068 61.56 202.058 61.6293 202.036 61.736L200.132 68.52C200.058 68.84 199.85 69 199.508 69H198.468C198.148 69 197.94 68.84 197.844 68.52L197.316 66.664C197.082 65.8427 196.82 64.8133 196.532 63.576L196.452 63.224C196.164 64.5253 195.887 65.6773 195.62 66.68L195.124 68.52C195.05 68.84 194.842 69 194.5 69H193.476C193.156 69 192.948 68.84 192.852 68.52L190.932 61.736C190.911 61.6293 190.9 61.56 190.9 61.528C190.9 61.3893 190.943 61.288 191.028 61.224C191.124 61.1493 191.252 61.112 191.412 61.112H192.036C192.378 61.112 192.586 61.272 192.66 61.592L193.236 63.864C193.46 64.696 193.722 65.8053 194.02 67.192L194.084 67.512C194.394 66.0827 194.682 64.8667 194.948 63.864L195.556 61.592C195.631 61.272 195.839 61.112 196.18 61.112H196.788C197.13 61.112 197.338 61.272 197.412 61.592L198.036 63.864C198.335 64.9733 198.634 66.1893 198.932 67.512C199.156 66.3707 199.434 65.1547 199.764 63.864L200.34 61.592Z" fill="white"/>
<rect x="127" y="41" width="91" height="46" rx="7" stroke="#C026D3" stroke-width="2"/>
</svg>
