<svg width="344" height="274" viewBox="0 0 344 274" fill="none" xmlns="http://www.w3.org/2000/svg">
<rect width="344" height="274" fill="#F5F5F5"/>
<rect x="118.5" y="110.5" width="93" height="31" rx="3.5" fill="white"/>
<g clip-path="url(#clip0_665_10494)">
<path fill-rule="evenodd" clip-rule="evenodd" d="M134.75 119C134.75 118.586 134.414 118.25 134 118.25C133.586 118.25 133.25 118.586 133.25 119V128.44L131.969 127.414C131.645 127.156 131.173 127.208 130.914 127.531C130.656 127.855 130.708 128.327 131.031 128.586L133.531 130.586C133.805 130.805 134.195 130.805 134.469 130.586L136.969 128.586C137.292 128.327 137.344 127.855 137.086 127.531C136.827 127.208 136.355 127.156 136.031 127.414L134.75 128.44V119ZM127 132.25C126.586 132.25 126.25 132.586 126.25 133C126.25 133.414 126.586 133.75 127 133.75H141C141.414 133.75 141.75 133.414 141.75 133C141.75 132.586 141.414 132.25 141 132.25H127Z" fill="#767676"/>
</g>
<path d="M151.344 130C151.216 130 151.112 129.964 151.032 129.892C150.96 129.812 150.924 129.708 150.924 129.58V121.9C150.924 121.764 150.96 121.66 151.032 121.588C151.112 121.516 151.216 121.48 151.344 121.48H154.236C155.036 121.48 155.72 121.66 156.288 122.02C156.864 122.38 157.3 122.884 157.596 123.532C157.9 124.172 158.052 124.908 158.052 125.74C158.052 126.572 157.9 127.312 157.596 127.96C157.3 128.6 156.864 129.1 156.288 129.46C155.72 129.82 155.036 130 154.236 130H151.344ZM154.032 128.848C154.848 128.848 155.488 128.58 155.952 128.044C156.424 127.5 156.66 126.732 156.66 125.74C156.66 124.748 156.424 123.984 155.952 123.448C155.488 122.904 154.848 122.632 154.032 122.632H152.292V128.848H154.032ZM162.068 130.18C161.484 130.18 160.964 130.048 160.508 129.784C160.06 129.52 159.708 129.152 159.452 128.68C159.196 128.2 159.068 127.652 159.068 127.036C159.068 126.42 159.196 125.876 159.452 125.404C159.708 124.932 160.06 124.564 160.508 124.3C160.964 124.036 161.484 123.904 162.068 123.904C162.644 123.904 163.16 124.036 163.616 124.3C164.072 124.564 164.428 124.936 164.684 125.416C164.94 125.888 165.068 126.428 165.068 127.036C165.068 127.652 164.94 128.2 164.684 128.68C164.428 129.152 164.072 129.52 163.616 129.784C163.16 130.048 162.644 130.18 162.068 130.18ZM162.068 129.112C162.58 129.112 162.992 128.924 163.304 128.548C163.616 128.164 163.772 127.66 163.772 127.036C163.772 126.42 163.616 125.924 163.304 125.548C162.992 125.172 162.58 124.984 162.068 124.984C161.556 124.984 161.144 125.172 160.832 125.548C160.52 125.924 160.364 126.42 160.364 127.036C160.364 127.66 160.52 128.164 160.832 128.548C161.144 128.924 161.556 129.112 162.068 129.112ZM172.767 124.444C172.823 124.204 172.979 124.084 173.235 124.084H173.679C173.799 124.084 173.891 124.112 173.955 124.168C174.027 124.216 174.063 124.292 174.063 124.396C174.063 124.42 174.055 124.472 174.039 124.552L172.611 129.64C172.555 129.88 172.399 130 172.143 130H171.363C171.123 130 170.967 129.88 170.895 129.64L170.499 128.248C170.323 127.632 170.127 126.86 169.911 125.932L169.851 125.668C169.635 126.644 169.427 127.508 169.227 128.26L168.855 129.64C168.799 129.88 168.643 130 168.387 130H167.619C167.379 130 167.223 129.88 167.151 129.64L165.711 124.552C165.695 124.472 165.687 124.42 165.687 124.396C165.687 124.292 165.719 124.216 165.783 124.168C165.855 124.112 165.951 124.084 166.071 124.084H166.539C166.795 124.084 166.951 124.204 167.007 124.444L167.439 126.148C167.607 126.772 167.803 127.604 168.027 128.644L168.075 128.884C168.307 127.812 168.523 126.9 168.723 126.148L169.179 124.444C169.235 124.204 169.391 124.084 169.647 124.084H170.103C170.359 124.084 170.515 124.204 170.571 124.444L171.039 126.148C171.263 126.98 171.487 127.892 171.711 128.884C171.879 128.028 172.087 127.116 172.335 126.148L172.767 124.444ZM178.131 123.904C178.811 123.904 179.331 124.096 179.691 124.48C180.059 124.856 180.243 125.344 180.243 125.944V129.58C180.243 129.708 180.207 129.812 180.135 129.892C180.063 129.964 179.959 130 179.823 130H179.391C179.263 130 179.159 129.964 179.079 129.892C179.007 129.812 178.971 129.708 178.971 129.58V126.34C178.971 125.908 178.863 125.576 178.647 125.344C178.439 125.112 178.139 124.996 177.747 124.996C177.363 124.996 177.039 125.128 176.775 125.392C176.519 125.656 176.391 125.988 176.391 126.388V129.58C176.391 129.708 176.355 129.812 176.283 129.892C176.211 129.964 176.107 130 175.971 130H175.539C175.411 130 175.307 129.964 175.227 129.892C175.155 129.812 175.119 129.708 175.119 129.58V124.504C175.119 124.368 175.155 124.264 175.227 124.192C175.307 124.12 175.411 124.084 175.539 124.084H175.887C176.023 124.084 176.127 124.12 176.199 124.192C176.271 124.264 176.307 124.368 176.307 124.504V124.816C176.499 124.52 176.751 124.296 177.063 124.144C177.375 123.984 177.731 123.904 178.131 123.904ZM182.173 130C182.045 130 181.941 129.964 181.861 129.892C181.789 129.812 181.753 129.708 181.753 129.58V121.9C181.753 121.764 181.789 121.66 181.861 121.588C181.941 121.516 182.045 121.48 182.173 121.48H182.605C182.741 121.48 182.845 121.516 182.917 121.588C182.989 121.66 183.025 121.764 183.025 121.9V129.58C183.025 129.708 182.989 129.812 182.917 129.892C182.845 129.964 182.741 130 182.605 130H182.173ZM187.205 130.18C186.621 130.18 186.101 130.048 185.645 129.784C185.197 129.52 184.845 129.152 184.589 128.68C184.333 128.2 184.205 127.652 184.205 127.036C184.205 126.42 184.333 125.876 184.589 125.404C184.845 124.932 185.197 124.564 185.645 124.3C186.101 124.036 186.621 123.904 187.205 123.904C187.781 123.904 188.297 124.036 188.753 124.3C189.209 124.564 189.565 124.936 189.821 125.416C190.077 125.888 190.205 126.428 190.205 127.036C190.205 127.652 190.077 128.2 189.821 128.68C189.565 129.152 189.209 129.52 188.753 129.784C188.297 130.048 187.781 130.18 187.205 130.18ZM187.205 129.112C187.717 129.112 188.129 128.924 188.441 128.548C188.753 128.164 188.909 127.66 188.909 127.036C188.909 126.42 188.753 125.924 188.441 125.548C188.129 125.172 187.717 124.984 187.205 124.984C186.693 124.984 186.281 125.172 185.969 125.548C185.657 125.924 185.501 126.42 185.501 127.036C185.501 127.66 185.657 128.164 185.969 128.548C186.281 128.924 186.693 129.112 187.205 129.112ZM193.822 123.904C194.622 123.904 195.238 124.092 195.67 124.468C196.102 124.836 196.318 125.328 196.318 125.944V129.58C196.318 129.708 196.282 129.812 196.21 129.892C196.138 129.964 196.034 130 195.898 130H195.586C195.458 130 195.354 129.964 195.274 129.892C195.202 129.812 195.166 129.708 195.166 129.58V129.316C194.974 129.596 194.71 129.812 194.374 129.964C194.038 130.116 193.646 130.192 193.198 130.192C192.582 130.192 192.074 130.056 191.674 129.784C191.282 129.504 191.086 129.084 191.086 128.524C191.086 127.9 191.318 127.44 191.782 127.144C192.254 126.84 192.906 126.612 193.738 126.46L195.094 126.208V125.992C195.094 125.664 194.978 125.412 194.746 125.236C194.522 125.052 194.222 124.96 193.846 124.96C193.526 124.96 193.246 125.016 193.006 125.128C192.774 125.232 192.522 125.408 192.25 125.656C192.146 125.744 192.046 125.788 191.95 125.788C191.854 125.788 191.754 125.744 191.65 125.656L191.458 125.488C191.354 125.392 191.302 125.288 191.302 125.176C191.302 125.072 191.35 124.972 191.446 124.876C191.79 124.548 192.154 124.304 192.538 124.144C192.922 123.984 193.35 123.904 193.822 123.904ZM193.378 129.172C193.858 129.172 194.262 129.044 194.59 128.788C194.926 128.532 195.094 128.164 195.094 127.684V127.132L194.05 127.348C193.466 127.468 193.034 127.604 192.754 127.756C192.474 127.908 192.334 128.14 192.334 128.452C192.334 128.676 192.426 128.852 192.61 128.98C192.794 129.108 193.05 129.172 193.378 129.172ZM201.935 121.888C201.935 121.752 201.971 121.648 202.043 121.576C202.123 121.504 202.227 121.468 202.355 121.468H202.787C202.923 121.468 203.027 121.504 203.099 121.576C203.171 121.648 203.207 121.752 203.207 121.888V129.58C203.207 129.708 203.171 129.812 203.099 129.892C203.027 129.964 202.923 130 202.787 130H202.439C202.311 130 202.207 129.964 202.127 129.892C202.055 129.812 202.019 129.708 202.019 129.58V129.16C201.603 129.832 200.951 130.168 200.063 130.168C199.567 130.168 199.119 130.04 198.719 129.784C198.327 129.528 198.019 129.164 197.795 128.692C197.571 128.22 197.459 127.672 197.459 127.048C197.459 126.432 197.571 125.888 197.795 125.416C198.027 124.944 198.343 124.58 198.743 124.324C199.143 124.068 199.591 123.94 200.087 123.94C200.903 123.94 201.519 124.224 201.935 124.792V121.888ZM200.327 129.076C200.815 129.076 201.215 128.896 201.527 128.536C201.839 128.168 201.995 127.672 201.995 127.048C201.995 126.424 201.839 125.932 201.527 125.572C201.215 125.212 200.815 125.032 200.327 125.032C199.855 125.032 199.475 125.216 199.187 125.584C198.899 125.952 198.755 126.44 198.755 127.048C198.755 127.664 198.895 128.156 199.175 128.524C199.463 128.892 199.847 129.076 200.327 129.076Z" fill="#474445"/>
<rect x="118.5" y="110.5" width="93" height="31" rx="3.5" stroke="#C3CCD9"/>
<rect x="214.5" y="72.5" width="60" height="31" rx="3.5" fill="white"/>
<path d="M230 88.5L230 84.5" stroke="#767676" stroke-width="1.5" stroke-miterlimit="10" stroke-linecap="round"/>
<path d="M230 92L230 91.4999" stroke="#767676" stroke-width="1.5" stroke-linecap="round" stroke-linejoin="round"/>
<path d="M230 95C233.866 95 237 91.866 237 88C237 84.134 233.866 81 230 81C226.134 81 223 84.134 223 88C223 91.866 226.134 95 230 95Z" stroke="#767676" stroke-width="1.5" stroke-miterlimit="10"/>
<path d="M247.428 92C247.3 92 247.196 91.964 247.116 91.892C247.044 91.812 247.008 91.708 247.008 91.58V83.9C247.008 83.764 247.044 83.66 247.116 83.588C247.196 83.516 247.3 83.48 247.428 83.48H247.956C248.092 83.48 248.196 83.516 248.268 83.588C248.34 83.66 248.376 83.764 248.376 83.9V91.58C248.376 91.708 248.34 91.812 248.268 91.892C248.196 91.964 248.092 92 247.956 92H247.428ZM253.131 85.904C253.811 85.904 254.331 86.096 254.691 86.48C255.059 86.856 255.243 87.344 255.243 87.944V91.58C255.243 91.708 255.207 91.812 255.135 91.892C255.063 91.964 254.959 92 254.823 92H254.391C254.263 92 254.159 91.964 254.079 91.892C254.007 91.812 253.971 91.708 253.971 91.58V88.34C253.971 87.908 253.863 87.576 253.647 87.344C253.439 87.112 253.139 86.996 252.747 86.996C252.363 86.996 252.039 87.128 251.775 87.392C251.519 87.656 251.391 87.988 251.391 88.388V91.58C251.391 91.708 251.355 91.812 251.283 91.892C251.211 91.964 251.107 92 250.971 92H250.539C250.411 92 250.307 91.964 250.227 91.892C250.155 91.812 250.119 91.708 250.119 91.58V86.504C250.119 86.368 250.155 86.264 250.227 86.192C250.307 86.12 250.411 86.084 250.539 86.084H250.887C251.023 86.084 251.127 86.12 251.199 86.192C251.271 86.264 251.307 86.368 251.307 86.504V86.816C251.499 86.52 251.751 86.296 252.063 86.144C252.375 85.984 252.731 85.904 253.131 85.904ZM259.168 84.368C258.888 84.368 258.684 84.436 258.556 84.572C258.428 84.708 258.364 84.94 258.364 85.268V86.084H259.336C259.472 86.084 259.576 86.12 259.648 86.192C259.72 86.264 259.756 86.368 259.756 86.504V86.636C259.756 86.764 259.72 86.868 259.648 86.948C259.576 87.02 259.472 87.056 259.336 87.056H258.364V91.58C258.364 91.708 258.328 91.812 258.256 91.892C258.184 91.964 258.08 92 257.944 92H257.512C257.384 92 257.28 91.964 257.2 91.892C257.128 91.812 257.092 91.708 257.092 91.58V87.056H256.456C256.328 87.056 256.224 87.02 256.144 86.948C256.072 86.868 256.036 86.764 256.036 86.636V86.504C256.036 86.368 256.072 86.264 256.144 86.192C256.224 86.12 256.328 86.084 256.456 86.084H257.092V85.184C257.092 84.568 257.248 84.104 257.56 83.792C257.88 83.472 258.34 83.312 258.94 83.312C259.212 83.312 259.488 83.34 259.768 83.396C259.976 83.452 260.08 83.58 260.08 83.78C260.08 83.836 260.076 83.88 260.068 83.912L260.032 84.08C259.984 84.288 259.828 84.392 259.564 84.392L259.42 84.38C259.364 84.372 259.28 84.368 259.168 84.368ZM263.142 92.18C262.558 92.18 262.038 92.048 261.582 91.784C261.134 91.52 260.782 91.152 260.526 90.68C260.27 90.2 260.142 89.652 260.142 89.036C260.142 88.42 260.27 87.876 260.526 87.404C260.782 86.932 261.134 86.564 261.582 86.3C262.038 86.036 262.558 85.904 263.142 85.904C263.718 85.904 264.234 86.036 264.69 86.3C265.146 86.564 265.502 86.936 265.758 87.416C266.014 87.888 266.142 88.428 266.142 89.036C266.142 89.652 266.014 90.2 265.758 90.68C265.502 91.152 265.146 91.52 264.69 91.784C264.234 92.048 263.718 92.18 263.142 92.18ZM263.142 91.112C263.654 91.112 264.066 90.924 264.378 90.548C264.69 90.164 264.846 89.66 264.846 89.036C264.846 88.42 264.69 87.924 264.378 87.548C264.066 87.172 263.654 86.984 263.142 86.984C262.63 86.984 262.218 87.172 261.906 87.548C261.594 87.924 261.438 88.42 261.438 89.036C261.438 89.66 261.594 90.164 261.906 90.548C262.218 90.924 262.63 91.112 263.142 91.112Z" fill="#474445"/>
<rect x="214.5" y="72.5" width="60" height="31" rx="3.5" stroke="#C3CCD9"/>
<rect x="214.5" y="204.5" width="60" height="31" rx="3.5" fill="white"/>
<path d="M230 220.5L230 216.5" stroke="#767676" stroke-width="1.5" stroke-miterlimit="10" stroke-linecap="round"/>
<path d="M230 224L230 223.5" stroke="#767676" stroke-width="1.5" stroke-linecap="round" stroke-linejoin="round"/>
<path d="M230 227C233.866 227 237 223.866 237 220C237 216.134 233.866 213 230 213C226.134 213 223 216.134 223 220C223 223.866 226.134 227 230 227Z" stroke="#767676" stroke-width="1.5" stroke-miterlimit="10"/>
<path d="M247.428 224C247.3 224 247.196 223.964 247.116 223.892C247.044 223.812 247.008 223.708 247.008 223.58V215.9C247.008 215.764 247.044 215.66 247.116 215.588C247.196 215.516 247.3 215.48 247.428 215.48H247.956C248.092 215.48 248.196 215.516 248.268 215.588C248.34 215.66 248.376 215.764 248.376 215.9V223.58C248.376 223.708 248.34 223.812 248.268 223.892C248.196 223.964 248.092 224 247.956 224H247.428ZM253.131 217.904C253.811 217.904 254.331 218.096 254.691 218.48C255.059 218.856 255.243 219.344 255.243 219.944V223.58C255.243 223.708 255.207 223.812 255.135 223.892C255.063 223.964 254.959 224 254.823 224H254.391C254.263 224 254.159 223.964 254.079 223.892C254.007 223.812 253.971 223.708 253.971 223.58V220.34C253.971 219.908 253.863 219.576 253.647 219.344C253.439 219.112 253.139 218.996 252.747 218.996C252.363 218.996 252.039 219.128 251.775 219.392C251.519 219.656 251.391 219.988 251.391 220.388V223.58C251.391 223.708 251.355 223.812 251.283 223.892C251.211 223.964 251.107 224 250.971 224H250.539C250.411 224 250.307 223.964 250.227 223.892C250.155 223.812 250.119 223.708 250.119 223.58V218.504C250.119 218.368 250.155 218.264 250.227 218.192C250.307 218.12 250.411 218.084 250.539 218.084H250.887C251.023 218.084 251.127 218.12 251.199 218.192C251.271 218.264 251.307 218.368 251.307 218.504V218.816C251.499 218.52 251.751 218.296 252.063 218.144C252.375 217.984 252.731 217.904 253.131 217.904ZM259.168 216.368C258.888 216.368 258.684 216.436 258.556 216.572C258.428 216.708 258.364 216.94 258.364 217.268V218.084H259.336C259.472 218.084 259.576 218.12 259.648 218.192C259.72 218.264 259.756 218.368 259.756 218.504V218.636C259.756 218.764 259.72 218.868 259.648 218.948C259.576 219.02 259.472 219.056 259.336 219.056H258.364V223.58C258.364 223.708 258.328 223.812 258.256 223.892C258.184 223.964 258.08 224 257.944 224H257.512C257.384 224 257.28 223.964 257.2 223.892C257.128 223.812 257.092 223.708 257.092 223.58V219.056H256.456C256.328 219.056 256.224 219.02 256.144 218.948C256.072 218.868 256.036 218.764 256.036 218.636V218.504C256.036 218.368 256.072 218.264 256.144 218.192C256.224 218.12 256.328 218.084 256.456 218.084H257.092V217.184C257.092 216.568 257.248 216.104 257.56 215.792C257.88 215.472 258.34 215.312 258.94 215.312C259.212 215.312 259.488 215.34 259.768 215.396C259.976 215.452 260.08 215.58 260.08 215.78C260.08 215.836 260.076 215.88 260.068 215.912L260.032 216.08C259.984 216.288 259.828 216.392 259.564 216.392L259.42 216.38C259.364 216.372 259.28 216.368 259.168 216.368ZM263.142 224.18C262.558 224.18 262.038 224.048 261.582 223.784C261.134 223.52 260.782 223.152 260.526 222.68C260.27 222.2 260.142 221.652 260.142 221.036C260.142 220.42 260.27 219.876 260.526 219.404C260.782 218.932 261.134 218.564 261.582 218.3C262.038 218.036 262.558 217.904 263.142 217.904C263.718 217.904 264.234 218.036 264.69 218.3C265.146 218.564 265.502 218.936 265.758 219.416C266.014 219.888 266.142 220.428 266.142 221.036C266.142 221.652 266.014 222.2 265.758 222.68C265.502 223.152 265.146 223.52 264.69 223.784C264.234 224.048 263.718 224.18 263.142 224.18ZM263.142 223.112C263.654 223.112 264.066 222.924 264.378 222.548C264.69 222.164 264.846 221.66 264.846 221.036C264.846 220.42 264.69 219.924 264.378 219.548C264.066 219.172 263.654 218.984 263.142 218.984C262.63 218.984 262.218 219.172 261.906 219.548C261.594 219.924 261.438 220.42 261.438 221.036C261.438 221.66 261.594 222.164 261.906 222.548C262.218 222.924 262.63 223.112 263.142 223.112Z" fill="#474445"/>
<rect x="214.5" y="204.5" width="60" height="31" rx="3.5" stroke="#C3CCD9"/>
<rect x="299.5" y="204.5" width="29" height="31" rx="3.5" fill="white"/>
<circle cx="308.4" cy="220" r="1.4" fill="#464646"/>
<circle cx="314" cy="220" r="1.4" fill="#464646"/>
<circle cx="319.6" cy="220" r="1.4" fill="#464646"/>
<rect x="299.5" y="204.5" width="29" height="31" rx="3.5" stroke="#C3CCD9"/>
<rect x="32.5" y="110.5" width="60" height="31" rx="3.5" fill="white"/>
<path d="M48 126.5L48 122.5" stroke="#767676" stroke-width="1.5" stroke-miterlimit="10" stroke-linecap="round"/>
<path d="M48 130L48 129.5" stroke="#767676" stroke-width="1.5" stroke-linecap="round" stroke-linejoin="round"/>
<path d="M48 133C51.866 133 55 129.866 55 126C55 122.134 51.866 119 48 119C44.134 119 41 122.134 41 126C41 129.866 44.134 133 48 133Z" stroke="#767676" stroke-width="1.5" stroke-miterlimit="10"/>
<path d="M65.428 130C65.3 130 65.196 129.964 65.116 129.892C65.044 129.812 65.008 129.708 65.008 129.58V121.9C65.008 121.764 65.044 121.66 65.116 121.588C65.196 121.516 65.3 121.48 65.428 121.48H65.956C66.092 121.48 66.196 121.516 66.268 121.588C66.34 121.66 66.376 121.764 66.376 121.9V129.58C66.376 129.708 66.34 129.812 66.268 129.892C66.196 129.964 66.092 130 65.956 130H65.428ZM71.1307 123.904C71.8107 123.904 72.3307 124.096 72.6907 124.48C73.0587 124.856 73.2427 125.344 73.2427 125.944V129.58C73.2427 129.708 73.2067 129.812 73.1347 129.892C73.0627 129.964 72.9587 130 72.8227 130H72.3907C72.2627 130 72.1587 129.964 72.0787 129.892C72.0067 129.812 71.9707 129.708 71.9707 129.58V126.34C71.9707 125.908 71.8627 125.576 71.6467 125.344C71.4387 125.112 71.1387 124.996 70.7467 124.996C70.3627 124.996 70.0387 125.128 69.7747 125.392C69.5187 125.656 69.3907 125.988 69.3907 126.388V129.58C69.3907 129.708 69.3547 129.812 69.2827 129.892C69.2107 129.964 69.1067 130 68.9707 130H68.5387C68.4107 130 68.3067 129.964 68.2267 129.892C68.1547 129.812 68.1187 129.708 68.1187 129.58V124.504C68.1187 124.368 68.1547 124.264 68.2267 124.192C68.3067 124.12 68.4107 124.084 68.5387 124.084H68.8867C69.0227 124.084 69.1267 124.12 69.1987 124.192C69.2707 124.264 69.3067 124.368 69.3067 124.504V124.816C69.4987 124.52 69.7507 124.296 70.0627 124.144C70.3747 123.984 70.7307 123.904 71.1307 123.904ZM77.168 122.368C76.888 122.368 76.684 122.436 76.556 122.572C76.428 122.708 76.364 122.94 76.364 123.268V124.084H77.336C77.472 124.084 77.576 124.12 77.648 124.192C77.72 124.264 77.756 124.368 77.756 124.504V124.636C77.756 124.764 77.72 124.868 77.648 124.948C77.576 125.02 77.472 125.056 77.336 125.056H76.364V129.58C76.364 129.708 76.328 129.812 76.256 129.892C76.184 129.964 76.08 130 75.944 130H75.512C75.384 130 75.28 129.964 75.2 129.892C75.128 129.812 75.092 129.708 75.092 129.58V125.056H74.456C74.328 125.056 74.224 125.02 74.144 124.948C74.072 124.868 74.036 124.764 74.036 124.636V124.504C74.036 124.368 74.072 124.264 74.144 124.192C74.224 124.12 74.328 124.084 74.456 124.084H75.092V123.184C75.092 122.568 75.248 122.104 75.56 121.792C75.88 121.472 76.34 121.312 76.94 121.312C77.212 121.312 77.488 121.34 77.768 121.396C77.976 121.452 78.08 121.58 78.08 121.78C78.08 121.836 78.076 121.88 78.068 121.912L78.032 122.08C77.984 122.288 77.828 122.392 77.564 122.392L77.42 122.38C77.364 122.372 77.28 122.368 77.168 122.368ZM81.1421 130.18C80.5581 130.18 80.0381 130.048 79.5821 129.784C79.1341 129.52 78.7821 129.152 78.5261 128.68C78.2701 128.2 78.1421 127.652 78.1421 127.036C78.1421 126.42 78.2701 125.876 78.5261 125.404C78.7821 124.932 79.1341 124.564 79.5821 124.3C80.0381 124.036 80.5581 123.904 81.1421 123.904C81.7181 123.904 82.2341 124.036 82.6901 124.3C83.1461 124.564 83.5021 124.936 83.7581 125.416C84.0141 125.888 84.1421 126.428 84.1421 127.036C84.1421 127.652 84.0141 128.2 83.7581 128.68C83.5021 129.152 83.1461 129.52 82.6901 129.784C82.2341 130.048 81.7181 130.18 81.1421 130.18ZM81.1421 129.112C81.6541 129.112 82.0661 128.924 82.3781 128.548C82.6901 128.164 82.8461 127.66 82.8461 127.036C82.8461 126.42 82.6901 125.924 82.3781 125.548C82.0661 125.172 81.6541 124.984 81.1421 124.984C80.6301 124.984 80.2181 125.172 79.9061 125.548C79.5941 125.924 79.4381 126.42 79.4381 127.036C79.4381 127.66 79.5941 128.164 79.9061 128.548C80.2181 128.924 80.6301 129.112 81.1421 129.112Z" fill="#474445"/>
<rect x="32.5" y="110.5" width="60" height="31" rx="3.5" stroke="#C3CCD9"/>
<rect x="118.5" y="72.5" width="71" height="31" rx="3.5" fill="white"/>
<path d="M141 84L136 84C134.895 84 134 84.8954 134 86L134 88.6667" stroke="#767676" stroke-width="1.5" stroke-linecap="round" stroke-linejoin="round"/>
<path d="M138.54 81.0479L141 84.0001L138.54 86.9524" stroke="#767676" stroke-width="1.5" stroke-linecap="round" stroke-linejoin="round"/>
<path d="M141 89V93C141 94.1046 140.105 95 139 95H129C127.895 95 127 94.1046 127 93V83C127 81.8954 127.895 81 129 81H132" stroke="#767676" stroke-width="1.5" stroke-linecap="round" stroke-linejoin="round"/>
<path d="M153.924 92.192C153.268 92.192 152.68 92.1 152.16 91.916C151.648 91.724 151.12 91.404 150.576 90.956C150.464 90.868 150.408 90.764 150.408 90.644C150.408 90.54 150.448 90.444 150.528 90.356L150.804 90.032C150.892 89.92 150.992 89.864 151.104 89.864C151.192 89.864 151.292 89.908 151.404 89.996C151.884 90.38 152.312 90.644 152.688 90.788C153.072 90.932 153.492 91.004 153.948 91.004C154.5 91.004 154.948 90.88 155.292 90.632C155.636 90.376 155.808 90.028 155.808 89.588C155.808 89.3 155.72 89.076 155.544 88.916C155.368 88.748 155.14 88.62 154.86 88.532C154.588 88.444 154.144 88.328 153.528 88.184C152.784 88.008 152.204 87.816 151.788 87.608C151.372 87.4 151.072 87.152 150.888 86.864C150.712 86.568 150.624 86.196 150.624 85.748C150.624 85.276 150.76 84.852 151.032 84.476C151.304 84.1 151.676 83.808 152.148 83.6C152.628 83.392 153.164 83.288 153.756 83.288C154.356 83.288 154.884 83.368 155.34 83.528C155.804 83.688 156.268 83.948 156.732 84.308C156.852 84.404 156.912 84.504 156.912 84.608C156.912 84.696 156.872 84.792 156.792 84.896L156.528 85.208C156.432 85.32 156.332 85.376 156.228 85.376C156.132 85.376 156.032 85.336 155.928 85.256C155.544 84.96 155.188 84.756 154.86 84.644C154.532 84.532 154.16 84.476 153.744 84.476C153.216 84.476 152.788 84.592 152.46 84.824C152.132 85.056 151.968 85.348 151.968 85.7C151.968 85.956 152.044 86.16 152.196 86.312C152.348 86.464 152.568 86.588 152.856 86.684C153.144 86.78 153.588 86.896 154.188 87.032C154.916 87.208 155.492 87.396 155.916 87.596C156.34 87.788 156.656 88.036 156.864 88.34C157.072 88.644 157.176 89.032 157.176 89.504C157.176 90.032 157.04 90.5 156.768 90.908C156.496 91.316 156.116 91.632 155.628 91.856C155.14 92.08 154.572 92.192 153.924 92.192ZM161.373 85.904C162.053 85.904 162.573 86.096 162.933 86.48C163.301 86.856 163.485 87.344 163.485 87.944V91.58C163.485 91.708 163.449 91.812 163.377 91.892C163.305 91.964 163.201 92 163.065 92H162.633C162.505 92 162.401 91.964 162.321 91.892C162.249 91.812 162.213 91.708 162.213 91.58V88.34C162.213 87.908 162.105 87.576 161.889 87.344C161.681 87.112 161.381 86.996 160.989 86.996C160.605 86.996 160.281 87.128 160.017 87.392C159.761 87.656 159.633 87.988 159.633 88.388V91.58C159.633 91.708 159.597 91.812 159.525 91.892C159.453 91.964 159.349 92 159.213 92H158.781C158.653 92 158.549 91.964 158.469 91.892C158.397 91.812 158.361 91.708 158.361 91.58V83.9C158.361 83.764 158.397 83.66 158.469 83.588C158.549 83.516 158.653 83.48 158.781 83.48H159.213C159.349 83.48 159.453 83.516 159.525 83.588C159.597 83.66 159.633 83.764 159.633 83.9V86.696C159.825 86.44 160.069 86.244 160.365 86.108C160.669 85.972 161.005 85.904 161.373 85.904ZM167.443 85.904C168.243 85.904 168.859 86.092 169.291 86.468C169.723 86.836 169.939 87.328 169.939 87.944V91.58C169.939 91.708 169.903 91.812 169.831 91.892C169.759 91.964 169.655 92 169.519 92H169.207C169.079 92 168.975 91.964 168.895 91.892C168.823 91.812 168.787 91.708 168.787 91.58V91.316C168.595 91.596 168.331 91.812 167.995 91.964C167.659 92.116 167.267 92.192 166.819 92.192C166.203 92.192 165.695 92.056 165.295 91.784C164.903 91.504 164.707 91.084 164.707 90.524C164.707 89.9 164.939 89.44 165.403 89.144C165.875 88.84 166.527 88.612 167.359 88.46L168.715 88.208V87.992C168.715 87.664 168.599 87.412 168.367 87.236C168.143 87.052 167.843 86.96 167.467 86.96C167.147 86.96 166.867 87.016 166.627 87.128C166.395 87.232 166.143 87.408 165.871 87.656C165.767 87.744 165.667 87.788 165.571 87.788C165.475 87.788 165.375 87.744 165.271 87.656L165.079 87.488C164.975 87.392 164.923 87.288 164.923 87.176C164.923 87.072 164.971 86.972 165.067 86.876C165.411 86.548 165.775 86.304 166.159 86.144C166.543 85.984 166.971 85.904 167.443 85.904ZM166.999 91.172C167.479 91.172 167.883 91.044 168.211 90.788C168.547 90.532 168.715 90.164 168.715 89.684V89.132L167.671 89.348C167.087 89.468 166.655 89.604 166.375 89.756C166.095 89.908 165.955 90.14 165.955 90.452C165.955 90.676 166.047 90.852 166.231 90.98C166.415 91.108 166.671 91.172 166.999 91.172ZM174.056 86.024C174.232 86.024 174.412 86.044 174.596 86.084C174.812 86.132 174.92 86.26 174.92 86.468C174.92 86.524 174.916 86.564 174.908 86.588L174.848 86.876C174.8 87.1 174.68 87.212 174.488 87.212L174.38 87.2C174.236 87.176 174.108 87.164 173.996 87.164C173.596 87.164 173.272 87.324 173.024 87.644C172.784 87.956 172.664 88.392 172.664 88.952V91.58C172.664 91.708 172.628 91.812 172.556 91.892C172.484 91.964 172.38 92 172.244 92H171.812C171.684 92 171.58 91.964 171.5 91.892C171.428 91.812 171.392 91.708 171.392 91.58V86.504C171.392 86.368 171.428 86.264 171.5 86.192C171.58 86.12 171.684 86.084 171.812 86.084H172.16C172.296 86.084 172.4 86.12 172.472 86.192C172.544 86.264 172.58 86.368 172.58 86.504V86.972C172.724 86.676 172.92 86.444 173.168 86.276C173.416 86.108 173.712 86.024 174.056 86.024ZM179.8 90.488C179.904 90.4 180.004 90.356 180.1 90.356C180.196 90.356 180.296 90.408 180.4 90.512L180.568 90.692C180.656 90.796 180.7 90.896 180.7 90.992C180.7 91.096 180.648 91.196 180.544 91.292C180.176 91.612 179.808 91.84 179.44 91.976C179.08 92.112 178.68 92.18 178.24 92.18C177.624 92.18 177.088 92.052 176.632 91.796C176.184 91.54 175.836 91.18 175.588 90.716C175.348 90.244 175.228 89.7 175.228 89.084C175.228 88.476 175.344 87.932 175.576 87.452C175.816 86.964 176.152 86.584 176.584 86.312C177.024 86.04 177.536 85.904 178.12 85.904C178.992 85.904 179.664 86.164 180.136 86.684C180.608 87.196 180.844 87.904 180.844 88.808V88.916C180.836 89.044 180.796 89.144 180.724 89.216C180.652 89.288 180.548 89.324 180.412 89.324H176.476C176.524 89.852 176.696 90.284 176.992 90.62C177.296 90.948 177.72 91.112 178.264 91.112C178.56 91.112 178.82 91.068 179.044 90.98C179.268 90.884 179.52 90.72 179.8 90.488ZM178.096 86.912C177.656 86.912 177.3 87.044 177.028 87.308C176.764 87.564 176.592 87.928 176.512 88.4H179.596C179.564 87.936 179.42 87.572 179.164 87.308C178.908 87.044 178.552 86.912 178.096 86.912Z" fill="#474445"/>
<rect x="118.5" y="72.5" width="71" height="31" rx="3.5" stroke="#C3CCD9"/>
<rect x="118.5" y="204.5" width="71" height="31" rx="3.5" fill="white"/>
<path d="M141 216L136 216C134.895 216 134 216.895 134 218L134 220.667" stroke="#767676" stroke-width="1.5" stroke-linecap="round" stroke-linejoin="round"/>
<path d="M138.54 213.048L141 216L138.54 218.952" stroke="#767676" stroke-width="1.5" stroke-linecap="round" stroke-linejoin="round"/>
<path d="M141 221V225C141 226.105 140.105 227 139 227H129C127.895 227 127 226.105 127 225V215C127 213.895 127.895 213 129 213H132" stroke="#767676" stroke-width="1.5" stroke-linecap="round" stroke-linejoin="round"/>
<path d="M153.924 224.192C153.268 224.192 152.68 224.1 152.16 223.916C151.648 223.724 151.12 223.404 150.576 222.956C150.464 222.868 150.408 222.764 150.408 222.644C150.408 222.54 150.448 222.444 150.528 222.356L150.804 222.032C150.892 221.92 150.992 221.864 151.104 221.864C151.192 221.864 151.292 221.908 151.404 221.996C151.884 222.38 152.312 222.644 152.688 222.788C153.072 222.932 153.492 223.004 153.948 223.004C154.5 223.004 154.948 222.88 155.292 222.632C155.636 222.376 155.808 222.028 155.808 221.588C155.808 221.3 155.72 221.076 155.544 220.916C155.368 220.748 155.14 220.62 154.86 220.532C154.588 220.444 154.144 220.328 153.528 220.184C152.784 220.008 152.204 219.816 151.788 219.608C151.372 219.4 151.072 219.152 150.888 218.864C150.712 218.568 150.624 218.196 150.624 217.748C150.624 217.276 150.76 216.852 151.032 216.476C151.304 216.1 151.676 215.808 152.148 215.6C152.628 215.392 153.164 215.288 153.756 215.288C154.356 215.288 154.884 215.368 155.34 215.528C155.804 215.688 156.268 215.948 156.732 216.308C156.852 216.404 156.912 216.504 156.912 216.608C156.912 216.696 156.872 216.792 156.792 216.896L156.528 217.208C156.432 217.32 156.332 217.376 156.228 217.376C156.132 217.376 156.032 217.336 155.928 217.256C155.544 216.96 155.188 216.756 154.86 216.644C154.532 216.532 154.16 216.476 153.744 216.476C153.216 216.476 152.788 216.592 152.46 216.824C152.132 217.056 151.968 217.348 151.968 217.7C151.968 217.956 152.044 218.16 152.196 218.312C152.348 218.464 152.568 218.588 152.856 218.684C153.144 218.78 153.588 218.896 154.188 219.032C154.916 219.208 155.492 219.396 155.916 219.596C156.34 219.788 156.656 220.036 156.864 220.34C157.072 220.644 157.176 221.032 157.176 221.504C157.176 222.032 157.04 222.5 156.768 222.908C156.496 223.316 156.116 223.632 155.628 223.856C155.14 224.08 154.572 224.192 153.924 224.192ZM161.373 217.904C162.053 217.904 162.573 218.096 162.933 218.48C163.301 218.856 163.485 219.344 163.485 219.944V223.58C163.485 223.708 163.449 223.812 163.377 223.892C163.305 223.964 163.201 224 163.065 224H162.633C162.505 224 162.401 223.964 162.321 223.892C162.249 223.812 162.213 223.708 162.213 223.58V220.34C162.213 219.908 162.105 219.576 161.889 219.344C161.681 219.112 161.381 218.996 160.989 218.996C160.605 218.996 160.281 219.128 160.017 219.392C159.761 219.656 159.633 219.988 159.633 220.388V223.58C159.633 223.708 159.597 223.812 159.525 223.892C159.453 223.964 159.349 224 159.213 224H158.781C158.653 224 158.549 223.964 158.469 223.892C158.397 223.812 158.361 223.708 158.361 223.58V215.9C158.361 215.764 158.397 215.66 158.469 215.588C158.549 215.516 158.653 215.48 158.781 215.48H159.213C159.349 215.48 159.453 215.516 159.525 215.588C159.597 215.66 159.633 215.764 159.633 215.9V218.696C159.825 218.44 160.069 218.244 160.365 218.108C160.669 217.972 161.005 217.904 161.373 217.904ZM167.443 217.904C168.243 217.904 168.859 218.092 169.291 218.468C169.723 218.836 169.939 219.328 169.939 219.944V223.58C169.939 223.708 169.903 223.812 169.831 223.892C169.759 223.964 169.655 224 169.519 224H169.207C169.079 224 168.975 223.964 168.895 223.892C168.823 223.812 168.787 223.708 168.787 223.58V223.316C168.595 223.596 168.331 223.812 167.995 223.964C167.659 224.116 167.267 224.192 166.819 224.192C166.203 224.192 165.695 224.056 165.295 223.784C164.903 223.504 164.707 223.084 164.707 222.524C164.707 221.9 164.939 221.44 165.403 221.144C165.875 220.84 166.527 220.612 167.359 220.46L168.715 220.208V219.992C168.715 219.664 168.599 219.412 168.367 219.236C168.143 219.052 167.843 218.96 167.467 218.96C167.147 218.96 166.867 219.016 166.627 219.128C166.395 219.232 166.143 219.408 165.871 219.656C165.767 219.744 165.667 219.788 165.571 219.788C165.475 219.788 165.375 219.744 165.271 219.656L165.079 219.488C164.975 219.392 164.923 219.288 164.923 219.176C164.923 219.072 164.971 218.972 165.067 218.876C165.411 218.548 165.775 218.304 166.159 218.144C166.543 217.984 166.971 217.904 167.443 217.904ZM166.999 223.172C167.479 223.172 167.883 223.044 168.211 222.788C168.547 222.532 168.715 222.164 168.715 221.684V221.132L167.671 221.348C167.087 221.468 166.655 221.604 166.375 221.756C166.095 221.908 165.955 222.14 165.955 222.452C165.955 222.676 166.047 222.852 166.231 222.98C166.415 223.108 166.671 223.172 166.999 223.172ZM174.056 218.024C174.232 218.024 174.412 218.044 174.596 218.084C174.812 218.132 174.92 218.26 174.92 218.468C174.92 218.524 174.916 218.564 174.908 218.588L174.848 218.876C174.8 219.1 174.68 219.212 174.488 219.212L174.38 219.2C174.236 219.176 174.108 219.164 173.996 219.164C173.596 219.164 173.272 219.324 173.024 219.644C172.784 219.956 172.664 220.392 172.664 220.952V223.58C172.664 223.708 172.628 223.812 172.556 223.892C172.484 223.964 172.38 224 172.244 224H171.812C171.684 224 171.58 223.964 171.5 223.892C171.428 223.812 171.392 223.708 171.392 223.58V218.504C171.392 218.368 171.428 218.264 171.5 218.192C171.58 218.12 171.684 218.084 171.812 218.084H172.16C172.296 218.084 172.4 218.12 172.472 218.192C172.544 218.264 172.58 218.368 172.58 218.504V218.972C172.724 218.676 172.92 218.444 173.168 218.276C173.416 218.108 173.712 218.024 174.056 218.024ZM179.8 222.488C179.904 222.4 180.004 222.356 180.1 222.356C180.196 222.356 180.296 222.408 180.4 222.512L180.568 222.692C180.656 222.796 180.7 222.896 180.7 222.992C180.7 223.096 180.648 223.196 180.544 223.292C180.176 223.612 179.808 223.84 179.44 223.976C179.08 224.112 178.68 224.18 178.24 224.18C177.624 224.18 177.088 224.052 176.632 223.796C176.184 223.54 175.836 223.18 175.588 222.716C175.348 222.244 175.228 221.7 175.228 221.084C175.228 220.476 175.344 219.932 175.576 219.452C175.816 218.964 176.152 218.584 176.584 218.312C177.024 218.04 177.536 217.904 178.12 217.904C178.992 217.904 179.664 218.164 180.136 218.684C180.608 219.196 180.844 219.904 180.844 220.808V220.916C180.836 221.044 180.796 221.144 180.724 221.216C180.652 221.288 180.548 221.324 180.412 221.324H176.476C176.524 221.852 176.696 222.284 176.992 222.62C177.296 222.948 177.72 223.112 178.264 223.112C178.56 223.112 178.82 223.068 179.044 222.98C179.268 222.884 179.52 222.72 179.8 222.488ZM178.096 218.912C177.656 218.912 177.3 219.044 177.028 219.308C176.764 219.564 176.592 219.928 176.512 220.4H179.596C179.564 219.936 179.42 219.572 179.164 219.308C178.908 219.044 178.552 218.912 178.096 218.912Z" fill="#474445"/>
<rect x="118.5" y="204.5" width="71" height="31" rx="3.5" stroke="#C3CCD9"/>
<rect x="32.5" y="72.5" width="61" height="31" rx="3.5" fill="white"/>
<path d="M54.34 81.6598C54.1281 81.4487 53.8764 81.2817 53.5996 81.1685C53.3227 81.0553 53.0262 80.998 52.7271 81.0001C52.428 81.0021 52.1323 81.0633 51.857 81.1803C51.5817 81.2973 51.3323 81.4676 51.1232 81.6815L42.1013 90.7036L41 95L45.2963 93.8981L54.3183 84.876C54.5322 84.667 54.7026 84.4177 54.8196 84.1424C54.9366 83.8672 54.9979 83.5715 54.9999 83.2724C55.002 82.9733 54.9447 82.6768 54.8314 82.4C54.7182 82.1232 54.5511 81.8716 54.34 81.6598V81.6598Z" stroke="#767676" stroke-width="1.5" stroke-linecap="round" stroke-linejoin="round"/>
<path d="M65.344 92C65.216 92 65.112 91.964 65.032 91.892C64.96 91.812 64.924 91.708 64.924 91.58V83.9C64.924 83.764 64.96 83.66 65.032 83.588C65.112 83.516 65.216 83.48 65.344 83.48H70.324C70.46 83.48 70.564 83.516 70.636 83.588C70.708 83.66 70.744 83.764 70.744 83.9V84.212C70.744 84.34 70.708 84.444 70.636 84.524C70.564 84.596 70.46 84.632 70.324 84.632H66.292V87.032H70.024C70.16 87.032 70.264 87.068 70.336 87.14C70.408 87.212 70.444 87.316 70.444 87.452V87.764C70.444 87.892 70.408 87.996 70.336 88.076C70.264 88.148 70.16 88.184 70.024 88.184H66.292V90.848H70.444C70.58 90.848 70.684 90.884 70.756 90.956C70.828 91.028 70.864 91.132 70.864 91.268V91.58C70.864 91.708 70.828 91.812 70.756 91.892C70.684 91.964 70.58 92 70.444 92H65.344ZM76.1148 83.888C76.1148 83.752 76.1508 83.648 76.2228 83.576C76.3028 83.504 76.4068 83.468 76.5348 83.468H76.9668C77.1028 83.468 77.2068 83.504 77.2787 83.576C77.3507 83.648 77.3867 83.752 77.3867 83.888V91.58C77.3867 91.708 77.3507 91.812 77.2787 91.892C77.2068 91.964 77.1028 92 76.9668 92H76.6188C76.4908 92 76.3868 91.964 76.3068 91.892C76.2348 91.812 76.1988 91.708 76.1988 91.58V91.16C75.7828 91.832 75.1308 92.168 74.2428 92.168C73.7468 92.168 73.2988 92.04 72.8988 91.784C72.5068 91.528 72.1988 91.164 71.9748 90.692C71.7508 90.22 71.6388 89.672 71.6388 89.048C71.6388 88.432 71.7508 87.888 71.9748 87.416C72.2068 86.944 72.5228 86.58 72.9228 86.324C73.3228 86.068 73.7708 85.94 74.2668 85.94C75.0828 85.94 75.6988 86.224 76.1148 86.792V83.888ZM74.5068 91.076C74.9948 91.076 75.3948 90.896 75.7068 90.536C76.0188 90.168 76.1748 89.672 76.1748 89.048C76.1748 88.424 76.0188 87.932 75.7068 87.572C75.3948 87.212 74.9948 87.032 74.5068 87.032C74.0348 87.032 73.6548 87.216 73.3668 87.584C73.0788 87.952 72.9348 88.44 72.9348 89.048C72.9348 89.664 73.0748 90.156 73.3548 90.524C73.6428 90.892 74.0268 91.076 74.5068 91.076ZM79.5128 84.932C79.2808 84.932 79.0848 84.856 78.9248 84.704C78.7648 84.544 78.6848 84.356 78.6848 84.14C78.6848 83.916 78.7648 83.728 78.9248 83.576C79.0848 83.424 79.2808 83.348 79.5128 83.348C79.7448 83.348 79.9408 83.424 80.1008 83.576C80.2608 83.728 80.3408 83.916 80.3408 84.14C80.3408 84.356 80.2608 84.544 80.1008 84.704C79.9408 84.856 79.7448 84.932 79.5128 84.932ZM79.2848 92C79.1568 92 79.0528 91.964 78.9728 91.892C78.9008 91.812 78.8648 91.708 78.8648 91.58V86.504C78.8648 86.368 78.9008 86.264 78.9728 86.192C79.0528 86.12 79.1568 86.084 79.2848 86.084H79.7168C79.8528 86.084 79.9568 86.12 80.0288 86.192C80.1008 86.264 80.1368 86.368 80.1368 86.504V91.58C80.1368 91.708 80.1008 91.812 80.0288 91.892C79.9568 91.964 79.8528 92 79.7168 92H79.2848ZM84.463 90.992C84.487 90.984 84.523 90.98 84.571 90.98C84.771 90.98 84.891 91.096 84.931 91.328L84.967 91.52C84.975 91.544 84.979 91.584 84.979 91.64C84.979 91.84 84.867 91.968 84.643 92.024C84.323 92.096 84.031 92.132 83.767 92.132C83.199 92.132 82.787 92 82.531 91.736C82.283 91.472 82.159 91.076 82.159 90.548V87.056H81.499C81.371 87.056 81.267 87.02 81.187 86.948C81.115 86.868 81.079 86.764 81.079 86.636V86.504C81.079 86.368 81.115 86.264 81.187 86.192C81.267 86.12 81.371 86.084 81.499 86.084H82.159V84.596C82.159 84.46 82.195 84.356 82.267 84.284C82.347 84.212 82.451 84.176 82.579 84.176H83.011C83.147 84.176 83.251 84.212 83.323 84.284C83.395 84.356 83.431 84.46 83.431 84.596V86.084H84.511C84.647 86.084 84.751 86.12 84.823 86.192C84.895 86.264 84.931 86.368 84.931 86.504V86.636C84.931 86.764 84.895 86.868 84.823 86.948C84.751 87.02 84.647 87.056 84.511 87.056H83.431V90.392C83.431 90.624 83.479 90.788 83.575 90.884C83.679 90.98 83.843 91.028 84.067 91.028C84.163 91.028 84.295 91.016 84.463 90.992Z" fill="#474445"/>
<rect x="32.5" y="72.5" width="61" height="31" rx="3.5" stroke="#C3CCD9"/>
<rect x="32.5" y="204.5" width="61" height="31" rx="3.5" fill="white"/>
<path d="M54.34 213.66C54.1281 213.449 53.8764 213.282 53.5996 213.169C53.3227 213.055 53.0262 212.998 52.7271 213C52.428 213.002 52.1323 213.063 51.857 213.18C51.5817 213.297 51.3323 213.468 51.1232 213.682L42.1013 222.704L41 227L45.2963 225.898L54.3183 216.876C54.5322 216.667 54.7026 216.418 54.8196 216.142C54.9366 215.867 54.9979 215.571 54.9999 215.272C55.002 214.973 54.9447 214.677 54.8314 214.4C54.7182 214.123 54.5511 213.872 54.34 213.66V213.66Z" stroke="#767676" stroke-width="1.5" stroke-linecap="round" stroke-linejoin="round"/>
<path d="M65.344 224C65.216 224 65.112 223.964 65.032 223.892C64.96 223.812 64.924 223.708 64.924 223.58V215.9C64.924 215.764 64.96 215.66 65.032 215.588C65.112 215.516 65.216 215.48 65.344 215.48H70.324C70.46 215.48 70.564 215.516 70.636 215.588C70.708 215.66 70.744 215.764 70.744 215.9V216.212C70.744 216.34 70.708 216.444 70.636 216.524C70.564 216.596 70.46 216.632 70.324 216.632H66.292V219.032H70.024C70.16 219.032 70.264 219.068 70.336 219.14C70.408 219.212 70.444 219.316 70.444 219.452V219.764C70.444 219.892 70.408 219.996 70.336 220.076C70.264 220.148 70.16 220.184 70.024 220.184H66.292V222.848H70.444C70.58 222.848 70.684 222.884 70.756 222.956C70.828 223.028 70.864 223.132 70.864 223.268V223.58C70.864 223.708 70.828 223.812 70.756 223.892C70.684 223.964 70.58 224 70.444 224H65.344ZM76.1148 215.888C76.1148 215.752 76.1508 215.648 76.2228 215.576C76.3028 215.504 76.4068 215.468 76.5348 215.468H76.9668C77.1028 215.468 77.2068 215.504 77.2787 215.576C77.3507 215.648 77.3867 215.752 77.3867 215.888V223.58C77.3867 223.708 77.3507 223.812 77.2787 223.892C77.2068 223.964 77.1028 224 76.9668 224H76.6188C76.4908 224 76.3868 223.964 76.3068 223.892C76.2348 223.812 76.1988 223.708 76.1988 223.58V223.16C75.7828 223.832 75.1308 224.168 74.2428 224.168C73.7468 224.168 73.2988 224.04 72.8988 223.784C72.5068 223.528 72.1988 223.164 71.9748 222.692C71.7508 222.22 71.6388 221.672 71.6388 221.048C71.6388 220.432 71.7508 219.888 71.9748 219.416C72.2068 218.944 72.5228 218.58 72.9228 218.324C73.3228 218.068 73.7708 217.94 74.2668 217.94C75.0828 217.94 75.6988 218.224 76.1148 218.792V215.888ZM74.5068 223.076C74.9948 223.076 75.3948 222.896 75.7068 222.536C76.0188 222.168 76.1748 221.672 76.1748 221.048C76.1748 220.424 76.0188 219.932 75.7068 219.572C75.3948 219.212 74.9948 219.032 74.5068 219.032C74.0348 219.032 73.6548 219.216 73.3668 219.584C73.0788 219.952 72.9348 220.44 72.9348 221.048C72.9348 221.664 73.0748 222.156 73.3548 222.524C73.6428 222.892 74.0268 223.076 74.5068 223.076ZM79.5128 216.932C79.2808 216.932 79.0848 216.856 78.9248 216.704C78.7648 216.544 78.6848 216.356 78.6848 216.14C78.6848 215.916 78.7648 215.728 78.9248 215.576C79.0848 215.424 79.2808 215.348 79.5128 215.348C79.7448 215.348 79.9408 215.424 80.1008 215.576C80.2608 215.728 80.3408 215.916 80.3408 216.14C80.3408 216.356 80.2608 216.544 80.1008 216.704C79.9408 216.856 79.7448 216.932 79.5128 216.932ZM79.2848 224C79.1568 224 79.0528 223.964 78.9728 223.892C78.9008 223.812 78.8648 223.708 78.8648 223.58V218.504C78.8648 218.368 78.9008 218.264 78.9728 218.192C79.0528 218.12 79.1568 218.084 79.2848 218.084H79.7168C79.8528 218.084 79.9568 218.12 80.0288 218.192C80.1008 218.264 80.1368 218.368 80.1368 218.504V223.58C80.1368 223.708 80.1008 223.812 80.0288 223.892C79.9568 223.964 79.8528 224 79.7168 224H79.2848ZM84.463 222.992C84.487 222.984 84.523 222.98 84.571 222.98C84.771 222.98 84.891 223.096 84.931 223.328L84.967 223.52C84.975 223.544 84.979 223.584 84.979 223.64C84.979 223.84 84.867 223.968 84.643 224.024C84.323 224.096 84.031 224.132 83.767 224.132C83.199 224.132 82.787 224 82.531 223.736C82.283 223.472 82.159 223.076 82.159 222.548V219.056H81.499C81.371 219.056 81.267 219.02 81.187 218.948C81.115 218.868 81.079 218.764 81.079 218.636V218.504C81.079 218.368 81.115 218.264 81.187 218.192C81.267 218.12 81.371 218.084 81.499 218.084H82.159V216.596C82.159 216.46 82.195 216.356 82.267 216.284C82.347 216.212 82.451 216.176 82.579 216.176H83.011C83.147 216.176 83.251 216.212 83.323 216.284C83.395 216.356 83.431 216.46 83.431 216.596V218.084H84.511C84.647 218.084 84.751 218.12 84.823 218.192C84.895 218.264 84.931 218.368 84.931 218.504V218.636C84.931 218.764 84.895 218.868 84.823 218.948C84.751 219.02 84.647 219.056 84.511 219.056H83.431V222.392C83.431 222.624 83.479 222.788 83.575 222.884C83.679 222.98 83.843 223.028 84.067 223.028C84.163 223.028 84.295 223.016 84.463 222.992Z" fill="#474445"/>
<rect x="32.5" y="204.5" width="61" height="31" rx="3.5" stroke="#C3CCD9"/>
<path d="M41.792 43.684C41.832 43.548 41.92 43.48 42.056 43.48H42.404C42.484 43.48 42.544 43.504 42.584 43.552C42.624 43.6 42.636 43.664 42.62 43.744L40.676 51.796C40.636 51.932 40.548 52 40.412 52H39.752C39.6 52 39.508 51.932 39.476 51.796L38.384 47.776C38.04 46.488 37.764 45.408 37.556 44.536C37.332 45.52 37.06 46.604 36.74 47.788L35.648 51.796C35.616 51.932 35.524 52 35.372 52H34.676C34.54 52 34.452 51.932 34.412 51.796L32.468 43.744L32.456 43.672C32.456 43.544 32.532 43.48 32.684 43.48H33.056C33.192 43.48 33.28 43.548 33.32 43.684L34.292 47.776C34.556 48.888 34.812 50.04 35.06 51.232C35.364 49.96 35.66 48.808 35.948 47.776L37.076 43.684C37.108 43.548 37.2 43.48 37.352 43.48H37.808C37.96 43.48 38.052 43.548 38.084 43.684L39.188 47.776C39.5 48.92 39.792 50.064 40.064 51.208C40.272 50.152 40.524 49.008 40.82 47.776L41.792 43.684ZM45.971 46.036C46.171 46.036 46.407 46.068 46.679 46.132C46.823 46.18 46.879 46.28 46.847 46.432L46.799 46.624C46.759 46.776 46.659 46.832 46.499 46.792C46.307 46.744 46.131 46.72 45.971 46.72C45.563 46.72 45.223 46.896 44.951 47.248C44.687 47.6 44.555 48.088 44.555 48.712V51.76C44.555 51.92 44.475 52 44.315 52H44.003C43.843 52 43.763 51.92 43.763 51.76V46.324C43.763 46.164 43.843 46.084 44.003 46.084H44.267C44.427 46.084 44.507 46.164 44.507 46.324V46.984C44.643 46.688 44.835 46.456 45.083 46.288C45.339 46.12 45.635 46.036 45.971 46.036ZM50.0508 45.94C50.7788 45.94 51.3468 46.116 51.7548 46.468C52.1628 46.812 52.3668 47.268 52.3668 47.836V51.76C52.3668 51.92 52.2868 52 52.1268 52H51.8868C51.7268 52 51.6468 51.92 51.6468 51.76V51.22C51.4468 51.54 51.1628 51.78 50.7948 51.94C50.4348 52.1 50.0308 52.18 49.5828 52.18C48.9588 52.18 48.4508 52.048 48.0588 51.784C47.6668 51.52 47.4708 51.112 47.4708 50.56C47.4708 50.12 47.5948 49.768 47.8428 49.504C48.0908 49.232 48.4148 49.028 48.8148 48.892C49.2148 48.748 49.7148 48.62 50.3148 48.508L51.6108 48.28V47.896C51.6108 47.488 51.4708 47.172 51.1908 46.948C50.9108 46.716 50.5428 46.6 50.0868 46.6C49.7428 46.6 49.4308 46.664 49.1508 46.792C48.8708 46.92 48.5708 47.14 48.2508 47.452C48.1948 47.508 48.1348 47.536 48.0708 47.536C48.0148 47.536 47.9628 47.512 47.9148 47.464L47.7588 47.32C47.7028 47.264 47.6748 47.204 47.6748 47.14C47.6748 47.068 47.7028 47.004 47.7588 46.948C48.0948 46.596 48.4468 46.34 48.8148 46.18C49.1908 46.02 49.6028 45.94 50.0508 45.94ZM49.6188 51.52C50.1948 51.52 50.6708 51.368 51.0468 51.064C51.4228 50.76 51.6108 50.372 51.6108 49.9V48.892L50.4948 49.108C49.9748 49.212 49.5628 49.312 49.2588 49.408C48.9548 49.504 48.7108 49.644 48.5268 49.828C48.3428 50.012 48.2508 50.252 48.2508 50.548C48.2508 50.852 48.3708 51.092 48.6108 51.268C48.8588 51.436 49.1948 51.52 49.6188 51.52ZM56.9544 45.952C57.4504 45.952 57.8944 46.084 58.2864 46.348C58.6864 46.604 58.9984 46.968 59.2224 47.44C59.4464 47.904 59.5584 48.436 59.5584 49.036C59.5584 49.644 59.4464 50.184 59.2224 50.656C58.9984 51.128 58.6904 51.496 58.2984 51.76C57.9064 52.016 57.4584 52.144 56.9544 52.144C56.0264 52.144 55.3464 51.804 54.9144 51.124V53.968C54.9144 54.128 54.8344 54.208 54.6744 54.208H54.3624C54.2024 54.208 54.1224 54.128 54.1224 53.968V46.324C54.1224 46.164 54.2024 46.084 54.3624 46.084H54.6264C54.7864 46.084 54.8664 46.164 54.8664 46.324V47.08C55.0824 46.712 55.3664 46.432 55.7184 46.24C56.0704 46.048 56.4824 45.952 56.9544 45.952ZM56.8944 51.472C57.4544 51.472 57.9024 51.248 58.2384 50.8C58.5744 50.352 58.7424 49.764 58.7424 49.036C58.7424 48.316 58.5744 47.736 58.2384 47.296C57.9024 46.848 57.4544 46.624 56.8944 46.624C56.2944 46.624 55.8064 46.84 55.4304 47.272C55.0624 47.696 54.8784 48.284 54.8784 49.036C54.8784 49.788 55.0664 50.384 55.4424 50.824C55.8184 51.256 56.3024 51.472 56.8944 51.472Z" fill="#767676"/>
<path d="M36.476 192.18C35.66 192.18 34.956 191.992 34.364 191.616C33.772 191.232 33.32 190.704 33.008 190.032C32.696 189.36 32.54 188.596 32.54 187.74C32.54 186.876 32.696 186.108 33.008 185.436C33.32 184.764 33.776 184.24 34.376 183.864C34.984 183.488 35.712 183.3 36.56 183.3C37.048 183.3 37.504 183.38 37.928 183.54C38.352 183.692 38.804 183.956 39.284 184.332C39.356 184.38 39.392 184.436 39.392 184.5C39.392 184.548 39.368 184.604 39.32 184.668L39.152 184.884C39.104 184.948 39.048 184.98 38.984 184.98C38.92 184.98 38.86 184.956 38.804 184.908C38.372 184.572 37.98 184.344 37.628 184.224C37.284 184.096 36.928 184.032 36.56 184.032C35.912 184.032 35.348 184.192 34.868 184.512C34.396 184.824 34.032 185.26 33.776 185.82C33.52 186.38 33.392 187.02 33.392 187.74C33.392 188.452 33.52 189.092 33.776 189.66C34.032 190.22 34.392 190.66 34.856 190.98C35.32 191.292 35.856 191.448 36.464 191.448C36.944 191.448 37.368 191.356 37.736 191.172C38.112 190.98 38.512 190.684 38.936 190.284C39 190.236 39.056 190.212 39.104 190.212C39.168 190.212 39.228 190.24 39.284 190.296L39.476 190.512C39.524 190.56 39.548 190.612 39.548 190.668C39.548 190.74 39.508 190.812 39.428 190.884C38.932 191.356 38.46 191.692 38.012 191.892C37.564 192.084 37.052 192.18 36.476 192.18ZM43.3399 192.156C42.7879 192.156 42.2959 192.024 41.8639 191.76C41.4319 191.496 41.0959 191.132 40.8559 190.668C40.6159 190.196 40.4959 189.656 40.4959 189.048C40.4959 188.44 40.6159 187.904 40.8559 187.44C41.0959 186.968 41.4319 186.6 41.8639 186.336C42.2959 186.072 42.7879 185.94 43.3399 185.94C43.8919 185.94 44.3839 186.072 44.8159 186.336C45.2479 186.6 45.5839 186.968 45.8239 187.44C46.0639 187.904 46.1839 188.44 46.1839 189.048C46.1839 189.656 46.0639 190.196 45.8239 190.668C45.5839 191.132 45.2479 191.496 44.8159 191.76C44.3839 192.024 43.8919 192.156 43.3399 192.156ZM43.3399 191.496C43.9559 191.496 44.4479 191.272 44.8159 190.824C45.1839 190.368 45.3679 189.776 45.3679 189.048C45.3679 188.32 45.1839 187.732 44.8159 187.284C44.4479 186.828 43.9559 186.6 43.3399 186.6C42.7239 186.6 42.2319 186.828 41.8639 187.284C41.4959 187.732 41.3119 188.32 41.3119 189.048C41.3119 189.776 41.4959 190.368 41.8639 190.824C42.2319 191.272 42.7239 191.496 43.3399 191.496ZM47.8119 192C47.6519 192 47.5719 191.92 47.5719 191.76V183.72C47.5719 183.56 47.6519 183.48 47.8119 183.48H48.1239C48.2839 183.48 48.3639 183.56 48.3639 183.72V191.76C48.3639 191.92 48.2839 192 48.1239 192H47.8119ZM50.4017 192C50.2417 192 50.1617 191.92 50.1617 191.76V183.72C50.1617 183.56 50.2417 183.48 50.4017 183.48H50.7137C50.8737 183.48 50.9537 183.56 50.9537 183.72V191.76C50.9537 191.92 50.8737 192 50.7137 192H50.4017ZM55.0196 185.94C55.7476 185.94 56.3156 186.116 56.7236 186.468C57.1316 186.812 57.3356 187.268 57.3356 187.836V191.76C57.3356 191.92 57.2556 192 57.0956 192H56.8556C56.6956 192 56.6156 191.92 56.6156 191.76V191.22C56.4156 191.54 56.1316 191.78 55.7636 191.94C55.4036 192.1 54.9996 192.18 54.5516 192.18C53.9276 192.18 53.4196 192.048 53.0276 191.784C52.6356 191.52 52.4396 191.112 52.4396 190.56C52.4396 190.12 52.5636 189.768 52.8116 189.504C53.0596 189.232 53.3836 189.028 53.7836 188.892C54.1836 188.748 54.6836 188.62 55.2836 188.508L56.5796 188.28V187.896C56.5796 187.488 56.4396 187.172 56.1596 186.948C55.8796 186.716 55.5116 186.6 55.0556 186.6C54.7116 186.6 54.3996 186.664 54.1196 186.792C53.8396 186.92 53.5396 187.14 53.2196 187.452C53.1636 187.508 53.1036 187.536 53.0396 187.536C52.9836 187.536 52.9316 187.512 52.8836 187.464L52.7276 187.32C52.6716 187.264 52.6436 187.204 52.6436 187.14C52.6436 187.068 52.6716 187.004 52.7276 186.948C53.0636 186.596 53.4156 186.34 53.7836 186.18C54.1596 186.02 54.5716 185.94 55.0196 185.94ZM54.5876 191.52C55.1636 191.52 55.6396 191.368 56.0156 191.064C56.3916 190.76 56.5796 190.372 56.5796 189.9V188.892L55.4636 189.108C54.9436 189.212 54.5316 189.312 54.2276 189.408C53.9236 189.504 53.6796 189.644 53.4956 189.828C53.3116 190.012 53.2196 190.252 53.2196 190.548C53.2196 190.852 53.3396 191.092 53.5796 191.268C53.8276 191.436 54.1636 191.52 54.5876 191.52ZM61.9231 185.952C62.4191 185.952 62.8631 186.084 63.2551 186.348C63.6551 186.604 63.9671 186.968 64.1911 187.44C64.4151 187.904 64.5271 188.436 64.5271 189.036C64.5271 189.644 64.4151 190.184 64.1911 190.656C63.9671 191.128 63.6591 191.496 63.2671 191.76C62.8751 192.016 62.4271 192.144 61.9231 192.144C60.9951 192.144 60.3151 191.804 59.8831 191.124V193.968C59.8831 194.128 59.8031 194.208 59.6431 194.208H59.3311C59.1711 194.208 59.0911 194.128 59.0911 193.968V186.324C59.0911 186.164 59.1711 186.084 59.3311 186.084H59.5951C59.7551 186.084 59.8351 186.164 59.8351 186.324V187.08C60.0511 186.712 60.3351 186.432 60.6871 186.24C61.0391 186.048 61.4511 185.952 61.9231 185.952ZM61.8631 191.472C62.4231 191.472 62.8711 191.248 63.2071 190.8C63.5431 190.352 63.7111 189.764 63.7111 189.036C63.7111 188.316 63.5431 187.736 63.2071 187.296C62.8711 186.848 62.4231 186.624 61.8631 186.624C61.2631 186.624 60.7751 186.84 60.3991 187.272C60.0311 187.696 59.8471 188.284 59.8471 189.036C59.8471 189.788 60.0351 190.384 60.4111 190.824C60.7871 191.256 61.2711 191.472 61.8631 191.472ZM67.9989 192.156C67.5109 192.156 67.0789 192.088 66.7029 191.952C66.3349 191.808 65.9469 191.568 65.5389 191.232C65.4669 191.184 65.4309 191.128 65.4309 191.064C65.4309 191.008 65.4589 190.952 65.5149 190.896L65.6709 190.728C65.7189 190.664 65.7789 190.632 65.8509 190.632C65.9069 190.632 65.9589 190.656 66.0069 190.704C66.3909 191 66.7309 191.208 67.0269 191.328C67.3229 191.44 67.6469 191.496 67.9989 191.496C68.4389 191.496 68.7989 191.4 69.0789 191.208C69.3589 191.008 69.4989 190.74 69.4989 190.404C69.4989 190.068 69.3549 189.82 69.0669 189.66C68.7789 189.5 68.3349 189.356 67.7349 189.228C67.2069 189.116 66.7909 189 66.4869 188.88C66.1909 188.752 65.9709 188.592 65.8269 188.4C65.6829 188.208 65.6109 187.956 65.6109 187.644C65.6109 187.132 65.8189 186.72 66.2349 186.408C66.6509 186.096 67.1749 185.94 67.8069 185.94C68.2389 185.94 68.6229 185.996 68.9589 186.108C69.3029 186.212 69.6469 186.388 69.9909 186.636C70.0629 186.692 70.0989 186.752 70.0989 186.816C70.0989 186.856 70.0789 186.908 70.0389 186.972L69.8949 187.152C69.8549 187.216 69.7989 187.248 69.7269 187.248C69.6629 187.248 69.6069 187.228 69.5589 187.188C69.2309 186.956 68.9389 186.8 68.6829 186.72C68.4349 186.64 68.1509 186.6 67.8309 186.6C67.3909 186.6 67.0389 186.696 66.7749 186.888C66.5109 187.08 66.3789 187.324 66.3789 187.62C66.3789 187.804 66.4389 187.952 66.5589 188.064C66.6789 188.176 66.8509 188.272 67.0749 188.352C67.2989 188.424 67.6269 188.508 68.0589 188.604C68.8589 188.78 69.4269 188.996 69.7629 189.252C70.1069 189.508 70.2789 189.88 70.2789 190.368C70.2789 190.904 70.0669 191.336 69.6429 191.664C69.2189 191.992 68.6709 192.156 67.9989 192.156ZM75.9265 190.596C75.9825 190.54 76.0425 190.512 76.1065 190.512C76.1625 190.512 76.2145 190.536 76.2625 190.584L76.4185 190.728C76.4745 190.784 76.5025 190.844 76.5025 190.908C76.5025 190.956 76.4785 191.012 76.4305 191.076C76.0385 191.468 75.6585 191.748 75.2905 191.916C74.9225 192.076 74.5105 192.156 74.0545 192.156C73.4785 192.156 72.9785 192.028 72.5545 191.772C72.1305 191.516 71.8025 191.16 71.5705 190.704C71.3385 190.24 71.2225 189.704 71.2225 189.096C71.2225 188.48 71.3345 187.936 71.5585 187.464C71.7905 186.984 72.1145 186.612 72.5305 186.348C72.9465 186.076 73.4265 185.94 73.9705 185.94C74.7785 185.94 75.4145 186.192 75.8785 186.696C76.3425 187.2 76.5745 187.88 76.5745 188.736V188.88C76.5665 188.952 76.5385 189.008 76.4905 189.048C76.4505 189.088 76.3945 189.108 76.3225 189.108H72.0265C72.0505 189.78 72.2265 190.348 72.5545 190.812C72.8905 191.268 73.3905 191.496 74.0545 191.496C74.4145 191.496 74.7305 191.432 75.0025 191.304C75.2825 191.168 75.5905 190.932 75.9265 190.596ZM73.9705 186.6C73.4425 186.6 73.0065 186.764 72.6625 187.092C72.3265 187.412 72.1225 187.884 72.0505 188.508H75.7825C75.7665 187.924 75.5985 187.46 75.2785 187.116C74.9585 186.772 74.5225 186.6 73.9705 186.6Z" fill="#767676"/>
<defs>
<clipPath id="clip0_665_10494">
<rect width="16" height="16" fill="white" transform="translate(126 118)"/>
</clipPath>
</defs>
</svg>
