<svg width="344" height="128" viewBox="0 0 344 128" fill="none" xmlns="http://www.w3.org/2000/svg">
<rect x="118" y="41" width="108" height="46" rx="7" fill="white"/>
<path d="M134.792 69C134.621 69 134.483 68.952 134.376 68.856C134.28 68.7493 134.232 68.6107 134.232 68.44V58.2C134.232 58.0187 134.28 57.88 134.376 57.784C134.483 57.688 134.621 57.64 134.792 57.64H141.432C141.613 57.64 141.752 57.688 141.848 57.784C141.944 57.88 141.992 58.0187 141.992 58.2V58.616C141.992 58.7867 141.944 58.9253 141.848 59.032C141.752 59.128 141.613 59.176 141.432 59.176H136.056V62.376H141.032C141.213 62.376 141.352 62.424 141.448 62.52C141.544 62.616 141.592 62.7547 141.592 62.936V63.352C141.592 63.5227 141.544 63.6613 141.448 63.768C141.352 63.864 141.213 63.912 141.032 63.912H136.056V67.464H141.592C141.773 67.464 141.912 67.512 142.008 67.608C142.104 67.704 142.152 67.8427 142.152 68.024V68.44C142.152 68.6107 142.104 68.7493 142.008 68.856C141.912 68.952 141.773 69 141.592 69H134.792ZM149.153 58.184C149.153 58.0027 149.201 57.864 149.297 57.768C149.404 57.672 149.542 57.624 149.713 57.624H150.289C150.47 57.624 150.609 57.672 150.705 57.768C150.801 57.864 150.849 58.0027 150.849 58.184V68.44C150.849 68.6107 150.801 68.7493 150.705 68.856C150.609 68.952 150.47 69 150.289 69H149.825C149.654 69 149.516 68.952 149.409 68.856C149.313 68.7493 149.265 68.6107 149.265 68.44V67.88C148.71 68.776 147.841 69.224 146.657 69.224C145.996 69.224 145.398 69.0533 144.865 68.712C144.342 68.3707 143.932 67.8853 143.633 67.256C143.334 66.6267 143.185 65.896 143.185 65.064C143.185 64.2427 143.334 63.5173 143.633 62.888C143.942 62.2587 144.364 61.7733 144.897 61.432C145.43 61.0907 146.028 60.92 146.689 60.92C147.777 60.92 148.598 61.2987 149.153 62.056V58.184ZM147.009 67.768C147.66 67.768 148.193 67.528 148.609 67.048C149.025 66.5573 149.233 65.896 149.233 65.064C149.233 64.232 149.025 63.576 148.609 63.096C148.193 62.616 147.66 62.376 147.009 62.376C146.38 62.376 145.873 62.6213 145.489 63.112C145.105 63.6027 144.913 64.2533 144.913 65.064C144.913 65.8853 145.1 66.5413 145.473 67.032C145.857 67.5227 146.369 67.768 147.009 67.768ZM153.684 59.576C153.374 59.576 153.113 59.4747 152.9 59.272C152.686 59.0587 152.58 58.808 152.58 58.52C152.58 58.2213 152.686 57.9707 152.9 57.768C153.113 57.5653 153.374 57.464 153.684 57.464C153.993 57.464 154.254 57.5653 154.468 57.768C154.681 57.9707 154.788 58.2213 154.788 58.52C154.788 58.808 154.681 59.0587 154.468 59.272C154.254 59.4747 153.993 59.576 153.684 59.576ZM153.38 69C153.209 69 153.07 68.952 152.964 68.856C152.868 68.7493 152.82 68.6107 152.82 68.44V61.672C152.82 61.4907 152.868 61.352 152.964 61.256C153.07 61.16 153.209 61.112 153.38 61.112H153.956C154.137 61.112 154.276 61.16 154.372 61.256C154.468 61.352 154.516 61.4907 154.516 61.672V68.44C154.516 68.6107 154.468 68.7493 154.372 68.856C154.276 68.952 154.137 69 153.956 69H153.38ZM160.284 67.656C160.316 67.6453 160.364 67.64 160.428 67.64C160.695 67.64 160.855 67.7947 160.908 68.104L160.956 68.36C160.967 68.392 160.972 68.4453 160.972 68.52C160.972 68.7867 160.823 68.9573 160.524 69.032C160.097 69.128 159.708 69.176 159.356 69.176C158.599 69.176 158.049 69 157.708 68.648C157.377 68.296 157.212 67.768 157.212 67.064V62.408H156.332C156.161 62.408 156.023 62.36 155.916 62.264C155.82 62.1573 155.772 62.0187 155.772 61.848V61.672C155.772 61.4907 155.82 61.352 155.916 61.256C156.023 61.16 156.161 61.112 156.332 61.112H157.212V59.128C157.212 58.9467 157.26 58.808 157.356 58.712C157.463 58.616 157.601 58.568 157.772 58.568H158.348C158.529 58.568 158.668 58.616 158.764 58.712C158.86 58.808 158.908 58.9467 158.908 59.128V61.112H160.348C160.529 61.112 160.668 61.16 160.764 61.256C160.86 61.352 160.908 61.4907 160.908 61.672V61.848C160.908 62.0187 160.86 62.1573 160.764 62.264C160.668 62.36 160.529 62.408 160.348 62.408H158.908V66.856C158.908 67.1653 158.972 67.384 159.1 67.512C159.239 67.64 159.457 67.704 159.756 67.704C159.884 67.704 160.06 67.688 160.284 67.656ZM170.074 60.904C170.746 60.904 171.344 61.0747 171.866 61.416C172.4 61.7573 172.816 62.2427 173.114 62.872C173.413 63.5013 173.562 64.2267 173.562 65.048C173.562 65.88 173.413 66.6107 173.114 67.24C172.816 67.8693 172.4 68.3547 171.866 68.696C171.333 69.0373 170.736 69.208 170.074 69.208C168.965 69.208 168.133 68.824 167.578 68.056V71.272C167.578 71.4533 167.53 71.592 167.434 71.688C167.338 71.784 167.2 71.832 167.018 71.832H166.442C166.272 71.832 166.133 71.784 166.026 71.688C165.93 71.592 165.882 71.4533 165.882 71.272V61.672C165.882 61.4907 165.93 61.352 166.026 61.256C166.133 61.16 166.272 61.112 166.442 61.112H166.906C167.088 61.112 167.226 61.16 167.322 61.256C167.418 61.352 167.466 61.4907 167.466 61.672V62.264C168.032 61.3573 168.901 60.904 170.074 60.904ZM169.722 67.736C170.362 67.736 170.874 67.496 171.258 67.016C171.642 66.5253 171.834 65.8693 171.834 65.048C171.834 64.2373 171.642 63.5867 171.258 63.096C170.885 62.6053 170.378 62.36 169.738 62.36C169.088 62.36 168.554 62.6 168.138 63.08C167.722 63.56 167.514 64.216 167.514 65.048C167.514 65.88 167.722 66.536 168.138 67.016C168.554 67.496 169.082 67.736 169.722 67.736ZM178.653 61.032C178.888 61.032 179.128 61.0587 179.373 61.112C179.661 61.176 179.805 61.3467 179.805 61.624C179.805 61.6987 179.8 61.752 179.789 61.784L179.709 62.168C179.645 62.4667 179.485 62.616 179.229 62.616L179.085 62.6C178.893 62.568 178.722 62.552 178.573 62.552C178.04 62.552 177.608 62.7653 177.277 63.192C176.957 63.608 176.797 64.1893 176.797 64.936V68.44C176.797 68.6107 176.749 68.7493 176.653 68.856C176.557 68.952 176.418 69 176.237 69H175.661C175.49 69 175.352 68.952 175.245 68.856C175.149 68.7493 175.101 68.6107 175.101 68.44V61.672C175.101 61.4907 175.149 61.352 175.245 61.256C175.352 61.16 175.49 61.112 175.661 61.112H176.125C176.306 61.112 176.445 61.16 176.541 61.256C176.637 61.352 176.685 61.4907 176.685 61.672V62.296C176.877 61.9013 177.138 61.592 177.469 61.368C177.8 61.144 178.194 61.032 178.653 61.032ZM184.216 69.24C183.437 69.24 182.744 69.064 182.136 68.712C181.538 68.36 181.069 67.8693 180.728 67.24C180.386 66.6 180.215 65.8693 180.215 65.048C180.215 64.2267 180.386 63.5013 180.728 62.872C181.069 62.2427 181.538 61.752 182.136 61.4C182.744 61.048 183.437 60.872 184.216 60.872C184.984 60.872 185.672 61.048 186.28 61.4C186.888 61.752 187.362 62.248 187.704 62.888C188.045 63.5173 188.216 64.2373 188.216 65.048C188.216 65.8693 188.045 66.6 187.704 67.24C187.362 67.8693 186.888 68.36 186.28 68.712C185.672 69.064 184.984 69.24 184.216 69.24ZM184.216 67.816C184.898 67.816 185.448 67.5653 185.864 67.064C186.28 66.552 186.488 65.88 186.488 65.048C186.488 64.2267 186.28 63.5653 185.864 63.064C185.448 62.5627 184.898 62.312 184.216 62.312C183.533 62.312 182.984 62.5627 182.568 63.064C182.152 63.5653 181.944 64.2267 181.944 65.048C181.944 65.88 182.152 66.552 182.568 67.064C182.984 67.5653 183.533 67.816 184.216 67.816ZM193.026 58.824C192.653 58.824 192.381 58.9147 192.21 59.096C192.039 59.2773 191.954 59.5867 191.954 60.024V61.112H193.25C193.431 61.112 193.57 61.16 193.666 61.256C193.762 61.352 193.81 61.4907 193.81 61.672V61.848C193.81 62.0187 193.762 62.1573 193.666 62.264C193.57 62.36 193.431 62.408 193.25 62.408H191.954V68.44C191.954 68.6107 191.906 68.7493 191.81 68.856C191.714 68.952 191.575 69 191.394 69H190.818C190.647 69 190.509 68.952 190.402 68.856C190.306 68.7493 190.258 68.6107 190.258 68.44V62.408H189.41C189.239 62.408 189.101 62.36 188.994 62.264C188.898 62.1573 188.85 62.0187 188.85 61.848V61.672C188.85 61.4907 188.898 61.352 188.994 61.256C189.101 61.16 189.239 61.112 189.41 61.112H190.258V59.912C190.258 59.0907 190.466 58.472 190.882 58.056C191.309 57.6293 191.922 57.416 192.722 57.416C193.085 57.416 193.453 57.4533 193.826 57.528C194.103 57.6027 194.242 57.7733 194.242 58.04C194.242 58.1147 194.237 58.1733 194.226 58.216L194.178 58.44C194.114 58.7173 193.906 58.856 193.554 58.856L193.362 58.84C193.287 58.8293 193.175 58.824 193.026 58.824ZM195.949 59.576C195.64 59.576 195.379 59.4747 195.165 59.272C194.952 59.0587 194.845 58.808 194.845 58.52C194.845 58.2213 194.952 57.9707 195.165 57.768C195.379 57.5653 195.64 57.464 195.949 57.464C196.259 57.464 196.52 57.5653 196.733 57.768C196.947 57.9707 197.053 58.2213 197.053 58.52C197.053 58.808 196.947 59.0587 196.733 59.272C196.52 59.4747 196.259 59.576 195.949 59.576ZM195.645 69C195.475 69 195.336 68.952 195.229 68.856C195.133 68.7493 195.085 68.6107 195.085 68.44V61.672C195.085 61.4907 195.133 61.352 195.229 61.256C195.336 61.16 195.475 61.112 195.645 61.112H196.221C196.403 61.112 196.541 61.16 196.637 61.256C196.733 61.352 196.781 61.4907 196.781 61.672V68.44C196.781 68.6107 196.733 68.7493 196.637 68.856C196.541 68.952 196.403 69 196.221 69H195.645ZM199.366 69C199.195 69 199.056 68.952 198.95 68.856C198.854 68.7493 198.806 68.6107 198.806 68.44V58.2C198.806 58.0187 198.854 57.88 198.95 57.784C199.056 57.688 199.195 57.64 199.366 57.64H199.942C200.123 57.64 200.262 57.688 200.358 57.784C200.454 57.88 200.502 58.0187 200.502 58.2V68.44C200.502 68.6107 200.454 68.7493 200.358 68.856C200.262 68.952 200.123 69 199.942 69H199.366ZM208.171 66.984C208.31 66.8667 208.443 66.808 208.571 66.808C208.699 66.808 208.832 66.8773 208.971 67.016L209.195 67.256C209.312 67.3947 209.371 67.528 209.371 67.656C209.371 67.7947 209.302 67.928 209.163 68.056C208.672 68.4827 208.182 68.7867 207.691 68.968C207.211 69.1493 206.678 69.24 206.091 69.24C205.27 69.24 204.555 69.0693 203.947 68.728C203.35 68.3867 202.886 67.9067 202.555 67.288C202.235 66.6587 202.075 65.9333 202.075 65.112C202.075 64.3013 202.23 63.576 202.539 62.936C202.859 62.2853 203.307 61.7787 203.883 61.416C204.47 61.0533 205.152 60.872 205.931 60.872C207.094 60.872 207.99 61.2187 208.619 61.912C209.248 62.5947 209.563 63.5387 209.563 64.744V64.888C209.552 65.0587 209.499 65.192 209.403 65.288C209.307 65.384 209.168 65.432 208.987 65.432H203.739C203.803 66.136 204.032 66.712 204.427 67.16C204.832 67.5973 205.398 67.816 206.123 67.816C206.518 67.816 206.864 67.7573 207.163 67.64C207.462 67.512 207.798 67.2933 208.171 66.984ZM205.899 62.216C205.312 62.216 204.838 62.392 204.475 62.744C204.123 63.0853 203.894 63.5707 203.787 64.2H207.899C207.856 63.5813 207.664 63.096 207.323 62.744C206.982 62.392 206.507 62.216 205.899 62.216Z" fill="#0063FB"/>
<rect x="118" y="41" width="108" height="46" rx="7" stroke="#C3CCD9" stroke-width="2"/>
<rect x="118" y="41" width="108" height="46" rx="7" fill="white"/>
<path d="M134.792 69C134.621 69 134.483 68.952 134.376 68.856C134.28 68.7493 134.232 68.6107 134.232 68.44V58.2C134.232 58.0187 134.28 57.88 134.376 57.784C134.483 57.688 134.621 57.64 134.792 57.64H141.432C141.613 57.64 141.752 57.688 141.848 57.784C141.944 57.88 141.992 58.0187 141.992 58.2V58.616C141.992 58.7867 141.944 58.9253 141.848 59.032C141.752 59.128 141.613 59.176 141.432 59.176H136.056V62.376H141.032C141.213 62.376 141.352 62.424 141.448 62.52C141.544 62.616 141.592 62.7547 141.592 62.936V63.352C141.592 63.5227 141.544 63.6613 141.448 63.768C141.352 63.864 141.213 63.912 141.032 63.912H136.056V67.464H141.592C141.773 67.464 141.912 67.512 142.008 67.608C142.104 67.704 142.152 67.8427 142.152 68.024V68.44C142.152 68.6107 142.104 68.7493 142.008 68.856C141.912 68.952 141.773 69 141.592 69H134.792ZM149.153 58.184C149.153 58.0027 149.201 57.864 149.297 57.768C149.404 57.672 149.542 57.624 149.713 57.624H150.289C150.47 57.624 150.609 57.672 150.705 57.768C150.801 57.864 150.849 58.0027 150.849 58.184V68.44C150.849 68.6107 150.801 68.7493 150.705 68.856C150.609 68.952 150.47 69 150.289 69H149.825C149.654 69 149.516 68.952 149.409 68.856C149.313 68.7493 149.265 68.6107 149.265 68.44V67.88C148.71 68.776 147.841 69.224 146.657 69.224C145.996 69.224 145.398 69.0533 144.865 68.712C144.342 68.3707 143.932 67.8853 143.633 67.256C143.334 66.6267 143.185 65.896 143.185 65.064C143.185 64.2427 143.334 63.5173 143.633 62.888C143.942 62.2587 144.364 61.7733 144.897 61.432C145.43 61.0907 146.028 60.92 146.689 60.92C147.777 60.92 148.598 61.2987 149.153 62.056V58.184ZM147.009 67.768C147.66 67.768 148.193 67.528 148.609 67.048C149.025 66.5573 149.233 65.896 149.233 65.064C149.233 64.232 149.025 63.576 148.609 63.096C148.193 62.616 147.66 62.376 147.009 62.376C146.38 62.376 145.873 62.6213 145.489 63.112C145.105 63.6027 144.913 64.2533 144.913 65.064C144.913 65.8853 145.1 66.5413 145.473 67.032C145.857 67.5227 146.369 67.768 147.009 67.768ZM153.684 59.576C153.374 59.576 153.113 59.4747 152.9 59.272C152.686 59.0587 152.58 58.808 152.58 58.52C152.58 58.2213 152.686 57.9707 152.9 57.768C153.113 57.5653 153.374 57.464 153.684 57.464C153.993 57.464 154.254 57.5653 154.468 57.768C154.681 57.9707 154.788 58.2213 154.788 58.52C154.788 58.808 154.681 59.0587 154.468 59.272C154.254 59.4747 153.993 59.576 153.684 59.576ZM153.38 69C153.209 69 153.07 68.952 152.964 68.856C152.868 68.7493 152.82 68.6107 152.82 68.44V61.672C152.82 61.4907 152.868 61.352 152.964 61.256C153.07 61.16 153.209 61.112 153.38 61.112H153.956C154.137 61.112 154.276 61.16 154.372 61.256C154.468 61.352 154.516 61.4907 154.516 61.672V68.44C154.516 68.6107 154.468 68.7493 154.372 68.856C154.276 68.952 154.137 69 153.956 69H153.38ZM160.284 67.656C160.316 67.6453 160.364 67.64 160.428 67.64C160.695 67.64 160.855 67.7947 160.908 68.104L160.956 68.36C160.967 68.392 160.972 68.4453 160.972 68.52C160.972 68.7867 160.823 68.9573 160.524 69.032C160.097 69.128 159.708 69.176 159.356 69.176C158.599 69.176 158.049 69 157.708 68.648C157.377 68.296 157.212 67.768 157.212 67.064V62.408H156.332C156.161 62.408 156.023 62.36 155.916 62.264C155.82 62.1573 155.772 62.0187 155.772 61.848V61.672C155.772 61.4907 155.82 61.352 155.916 61.256C156.023 61.16 156.161 61.112 156.332 61.112H157.212V59.128C157.212 58.9467 157.26 58.808 157.356 58.712C157.463 58.616 157.601 58.568 157.772 58.568H158.348C158.529 58.568 158.668 58.616 158.764 58.712C158.86 58.808 158.908 58.9467 158.908 59.128V61.112H160.348C160.529 61.112 160.668 61.16 160.764 61.256C160.86 61.352 160.908 61.4907 160.908 61.672V61.848C160.908 62.0187 160.86 62.1573 160.764 62.264C160.668 62.36 160.529 62.408 160.348 62.408H158.908V66.856C158.908 67.1653 158.972 67.384 159.1 67.512C159.239 67.64 159.457 67.704 159.756 67.704C159.884 67.704 160.06 67.688 160.284 67.656ZM170.074 60.904C170.746 60.904 171.344 61.0747 171.866 61.416C172.4 61.7573 172.816 62.2427 173.114 62.872C173.413 63.5013 173.562 64.2267 173.562 65.048C173.562 65.88 173.413 66.6107 173.114 67.24C172.816 67.8693 172.4 68.3547 171.866 68.696C171.333 69.0373 170.736 69.208 170.074 69.208C168.965 69.208 168.133 68.824 167.578 68.056V71.272C167.578 71.4533 167.53 71.592 167.434 71.688C167.338 71.784 167.2 71.832 167.018 71.832H166.442C166.272 71.832 166.133 71.784 166.026 71.688C165.93 71.592 165.882 71.4533 165.882 71.272V61.672C165.882 61.4907 165.93 61.352 166.026 61.256C166.133 61.16 166.272 61.112 166.442 61.112H166.906C167.088 61.112 167.226 61.16 167.322 61.256C167.418 61.352 167.466 61.4907 167.466 61.672V62.264C168.032 61.3573 168.901 60.904 170.074 60.904ZM169.722 67.736C170.362 67.736 170.874 67.496 171.258 67.016C171.642 66.5253 171.834 65.8693 171.834 65.048C171.834 64.2373 171.642 63.5867 171.258 63.096C170.885 62.6053 170.378 62.36 169.738 62.36C169.088 62.36 168.554 62.6 168.138 63.08C167.722 63.56 167.514 64.216 167.514 65.048C167.514 65.88 167.722 66.536 168.138 67.016C168.554 67.496 169.082 67.736 169.722 67.736ZM178.653 61.032C178.888 61.032 179.128 61.0587 179.373 61.112C179.661 61.176 179.805 61.3467 179.805 61.624C179.805 61.6987 179.8 61.752 179.789 61.784L179.709 62.168C179.645 62.4667 179.485 62.616 179.229 62.616L179.085 62.6C178.893 62.568 178.722 62.552 178.573 62.552C178.04 62.552 177.608 62.7653 177.277 63.192C176.957 63.608 176.797 64.1893 176.797 64.936V68.44C176.797 68.6107 176.749 68.7493 176.653 68.856C176.557 68.952 176.418 69 176.237 69H175.661C175.49 69 175.352 68.952 175.245 68.856C175.149 68.7493 175.101 68.6107 175.101 68.44V61.672C175.101 61.4907 175.149 61.352 175.245 61.256C175.352 61.16 175.49 61.112 175.661 61.112H176.125C176.306 61.112 176.445 61.16 176.541 61.256C176.637 61.352 176.685 61.4907 176.685 61.672V62.296C176.877 61.9013 177.138 61.592 177.469 61.368C177.8 61.144 178.194 61.032 178.653 61.032ZM184.216 69.24C183.437 69.24 182.744 69.064 182.136 68.712C181.538 68.36 181.069 67.8693 180.728 67.24C180.386 66.6 180.215 65.8693 180.215 65.048C180.215 64.2267 180.386 63.5013 180.728 62.872C181.069 62.2427 181.538 61.752 182.136 61.4C182.744 61.048 183.437 60.872 184.216 60.872C184.984 60.872 185.672 61.048 186.28 61.4C186.888 61.752 187.362 62.248 187.704 62.888C188.045 63.5173 188.216 64.2373 188.216 65.048C188.216 65.8693 188.045 66.6 187.704 67.24C187.362 67.8693 186.888 68.36 186.28 68.712C185.672 69.064 184.984 69.24 184.216 69.24ZM184.216 67.816C184.898 67.816 185.448 67.5653 185.864 67.064C186.28 66.552 186.488 65.88 186.488 65.048C186.488 64.2267 186.28 63.5653 185.864 63.064C185.448 62.5627 184.898 62.312 184.216 62.312C183.533 62.312 182.984 62.5627 182.568 63.064C182.152 63.5653 181.944 64.2267 181.944 65.048C181.944 65.88 182.152 66.552 182.568 67.064C182.984 67.5653 183.533 67.816 184.216 67.816ZM193.026 58.824C192.653 58.824 192.381 58.9147 192.21 59.096C192.039 59.2773 191.954 59.5867 191.954 60.024V61.112H193.25C193.431 61.112 193.57 61.16 193.666 61.256C193.762 61.352 193.81 61.4907 193.81 61.672V61.848C193.81 62.0187 193.762 62.1573 193.666 62.264C193.57 62.36 193.431 62.408 193.25 62.408H191.954V68.44C191.954 68.6107 191.906 68.7493 191.81 68.856C191.714 68.952 191.575 69 191.394 69H190.818C190.647 69 190.509 68.952 190.402 68.856C190.306 68.7493 190.258 68.6107 190.258 68.44V62.408H189.41C189.239 62.408 189.101 62.36 188.994 62.264C188.898 62.1573 188.85 62.0187 188.85 61.848V61.672C188.85 61.4907 188.898 61.352 188.994 61.256C189.101 61.16 189.239 61.112 189.41 61.112H190.258V59.912C190.258 59.0907 190.466 58.472 190.882 58.056C191.309 57.6293 191.922 57.416 192.722 57.416C193.085 57.416 193.453 57.4533 193.826 57.528C194.103 57.6027 194.242 57.7733 194.242 58.04C194.242 58.1147 194.237 58.1733 194.226 58.216L194.178 58.44C194.114 58.7173 193.906 58.856 193.554 58.856L193.362 58.84C193.287 58.8293 193.175 58.824 193.026 58.824ZM195.949 59.576C195.64 59.576 195.379 59.4747 195.165 59.272C194.952 59.0587 194.845 58.808 194.845 58.52C194.845 58.2213 194.952 57.9707 195.165 57.768C195.379 57.5653 195.64 57.464 195.949 57.464C196.259 57.464 196.52 57.5653 196.733 57.768C196.947 57.9707 197.053 58.2213 197.053 58.52C197.053 58.808 196.947 59.0587 196.733 59.272C196.52 59.4747 196.259 59.576 195.949 59.576ZM195.645 69C195.475 69 195.336 68.952 195.229 68.856C195.133 68.7493 195.085 68.6107 195.085 68.44V61.672C195.085 61.4907 195.133 61.352 195.229 61.256C195.336 61.16 195.475 61.112 195.645 61.112H196.221C196.403 61.112 196.541 61.16 196.637 61.256C196.733 61.352 196.781 61.4907 196.781 61.672V68.44C196.781 68.6107 196.733 68.7493 196.637 68.856C196.541 68.952 196.403 69 196.221 69H195.645ZM199.366 69C199.195 69 199.056 68.952 198.95 68.856C198.854 68.7493 198.806 68.6107 198.806 68.44V58.2C198.806 58.0187 198.854 57.88 198.95 57.784C199.056 57.688 199.195 57.64 199.366 57.64H199.942C200.123 57.64 200.262 57.688 200.358 57.784C200.454 57.88 200.502 58.0187 200.502 58.2V68.44C200.502 68.6107 200.454 68.7493 200.358 68.856C200.262 68.952 200.123 69 199.942 69H199.366ZM208.171 66.984C208.31 66.8667 208.443 66.808 208.571 66.808C208.699 66.808 208.832 66.8773 208.971 67.016L209.195 67.256C209.312 67.3947 209.371 67.528 209.371 67.656C209.371 67.7947 209.302 67.928 209.163 68.056C208.672 68.4827 208.182 68.7867 207.691 68.968C207.211 69.1493 206.678 69.24 206.091 69.24C205.27 69.24 204.555 69.0693 203.947 68.728C203.35 68.3867 202.886 67.9067 202.555 67.288C202.235 66.6587 202.075 65.9333 202.075 65.112C202.075 64.3013 202.23 63.576 202.539 62.936C202.859 62.2853 203.307 61.7787 203.883 61.416C204.47 61.0533 205.152 60.872 205.931 60.872C207.094 60.872 207.99 61.2187 208.619 61.912C209.248 62.5947 209.563 63.5387 209.563 64.744V64.888C209.552 65.0587 209.499 65.192 209.403 65.288C209.307 65.384 209.168 65.432 208.987 65.432H203.739C203.803 66.136 204.032 66.712 204.427 67.16C204.832 67.5973 205.398 67.816 206.123 67.816C206.518 67.816 206.864 67.7573 207.163 67.64C207.462 67.512 207.798 67.2933 208.171 66.984ZM205.899 62.216C205.312 62.216 204.838 62.392 204.475 62.744C204.123 63.0853 203.894 63.5707 203.787 64.2H207.899C207.856 63.5813 207.664 63.096 207.323 62.744C206.982 62.392 206.507 62.216 205.899 62.216Z" fill="#0063FB"/>
<rect x="118" y="41" width="108" height="46" rx="7" stroke="#C3CCD9" stroke-width="2"/>
</svg>
