<svg width="344" height="128" viewBox="0 0 344 128" fill="none" xmlns="http://www.w3.org/2000/svg">
<rect x="129" y="41" width="86" height="46" rx="7" fill="#0063FB"/>
<path d="M145.904 69C145.733 69 145.595 68.952 145.488 68.856C145.392 68.7493 145.344 68.6107 145.344 68.44V58.2C145.344 58.0187 145.392 57.88 145.488 57.784C145.595 57.688 145.733 57.64 145.904 57.64H146.608C146.789 57.64 146.928 57.688 147.024 57.784C147.12 57.88 147.168 58.0187 147.168 58.2V68.44C147.168 68.6107 147.12 68.7493 147.024 68.856C146.928 68.952 146.789 69 146.608 69H145.904ZM153.508 60.872C154.414 60.872 155.108 61.128 155.588 61.64C156.078 62.1413 156.324 62.792 156.324 63.592V68.44C156.324 68.6107 156.276 68.7493 156.18 68.856C156.084 68.952 155.945 69 155.764 69H155.188C155.017 69 154.878 68.952 154.772 68.856C154.676 68.7493 154.628 68.6107 154.628 68.44V64.12C154.628 63.544 154.484 63.1013 154.196 62.792C153.918 62.4827 153.518 62.328 152.996 62.328C152.484 62.328 152.052 62.504 151.7 62.856C151.358 63.208 151.188 63.6507 151.188 64.184V68.44C151.188 68.6107 151.14 68.7493 151.044 68.856C150.948 68.952 150.809 69 150.628 69H150.052C149.881 69 149.742 68.952 149.636 68.856C149.54 68.7493 149.492 68.6107 149.492 68.44V61.672C149.492 61.4907 149.54 61.352 149.636 61.256C149.742 61.16 149.881 61.112 150.052 61.112H150.516C150.697 61.112 150.836 61.16 150.932 61.256C151.028 61.352 151.076 61.4907 151.076 61.672V62.088C151.332 61.6933 151.668 61.3947 152.084 61.192C152.5 60.9787 152.974 60.872 153.508 60.872ZM165.323 58.824C164.95 58.824 164.678 58.9147 164.507 59.096C164.336 59.2773 164.251 59.5867 164.251 60.024V61.112H165.547C165.728 61.112 165.867 61.16 165.963 61.256C166.059 61.352 166.107 61.4907 166.107 61.672V61.848C166.107 62.0187 166.059 62.1573 165.963 62.264C165.867 62.36 165.728 62.408 165.547 62.408H164.251V68.44C164.251 68.6107 164.203 68.7493 164.107 68.856C164.011 68.952 163.872 69 163.691 69H163.115C162.944 69 162.806 68.952 162.699 68.856C162.603 68.7493 162.555 68.6107 162.555 68.44V62.408H161.707C161.536 62.408 161.398 62.36 161.291 62.264C161.195 62.1573 161.147 62.0187 161.147 61.848V61.672C161.147 61.4907 161.195 61.352 161.291 61.256C161.398 61.16 161.536 61.112 161.707 61.112H162.555V59.912C162.555 59.0907 162.763 58.472 163.179 58.056C163.606 57.6293 164.219 57.416 165.019 57.416C165.382 57.416 165.75 57.4533 166.123 57.528C166.4 57.6027 166.539 57.7733 166.539 58.04C166.539 58.1147 166.534 58.1733 166.523 58.216L166.475 58.44C166.411 58.7173 166.203 58.856 165.851 58.856L165.659 58.84C165.584 58.8293 165.472 58.824 165.323 58.824ZM170.622 69.24C169.843 69.24 169.15 69.064 168.542 68.712C167.944 68.36 167.475 67.8693 167.134 67.24C166.792 66.6 166.622 65.8693 166.622 65.048C166.622 64.2267 166.792 63.5013 167.134 62.872C167.475 62.2427 167.944 61.752 168.542 61.4C169.15 61.048 169.843 60.872 170.622 60.872C171.39 60.872 172.078 61.048 172.686 61.4C173.294 61.752 173.768 62.248 174.11 62.888C174.451 63.5173 174.622 64.2373 174.622 65.048C174.622 65.8693 174.451 66.6 174.11 67.24C173.768 67.8693 173.294 68.36 172.686 68.712C172.078 69.064 171.39 69.24 170.622 69.24ZM170.622 67.816C171.304 67.816 171.854 67.5653 172.27 67.064C172.686 66.552 172.894 65.88 172.894 65.048C172.894 64.2267 172.686 63.5653 172.27 63.064C171.854 62.5627 171.304 62.312 170.622 62.312C169.939 62.312 169.39 62.5627 168.974 63.064C168.558 63.5653 168.35 64.2267 168.35 65.048C168.35 65.88 168.558 66.552 168.974 67.064C169.39 67.5653 169.939 67.816 170.622 67.816ZM179.682 69.24C178.904 69.24 178.216 69.0693 177.618 68.728C177.032 68.3867 176.573 67.9013 176.242 67.272C175.922 66.632 175.762 65.8907 175.762 65.048C175.762 64.2053 175.928 63.4693 176.258 62.84C176.589 62.2107 177.053 61.7253 177.65 61.384C178.248 61.0427 178.936 60.872 179.714 60.872C180.28 60.872 180.786 60.9573 181.234 61.128C181.693 61.288 182.13 61.5653 182.546 61.96C182.674 62.088 182.738 62.2213 182.738 62.36C182.738 62.488 182.669 62.6213 182.53 62.76L182.258 63.032C182.141 63.1493 182.013 63.208 181.874 63.208C181.736 63.208 181.592 63.144 181.442 63.016C181.133 62.7493 180.84 62.568 180.562 62.472C180.296 62.3653 180.008 62.312 179.698 62.312C178.994 62.312 178.45 62.5733 178.066 63.096C177.682 63.6187 177.49 64.2693 177.49 65.048C177.49 65.8267 177.682 66.4827 178.066 67.016C178.45 67.5387 178.994 67.8 179.698 67.8C180.04 67.8 180.354 67.736 180.642 67.608C180.93 67.4693 181.24 67.24 181.57 66.92C181.709 66.7813 181.853 66.712 182.002 66.712C182.13 66.712 182.253 66.7653 182.37 66.872L182.642 67.096C182.781 67.2133 182.85 67.3467 182.85 67.496C182.85 67.656 182.77 67.8267 182.61 68.008C182.173 68.456 181.72 68.776 181.25 68.968C180.792 69.1493 180.269 69.24 179.682 69.24ZM189.25 61.672C189.25 61.4907 189.298 61.352 189.394 61.256C189.5 61.16 189.639 61.112 189.81 61.112H190.386C190.567 61.112 190.706 61.16 190.802 61.256C190.898 61.352 190.946 61.4907 190.946 61.672V68.44C190.946 68.6107 190.898 68.7493 190.802 68.856C190.706 68.952 190.567 69 190.386 69H189.954C189.783 69 189.644 68.952 189.538 68.856C189.442 68.7493 189.394 68.6107 189.394 68.44V68.072C189.18 68.4347 188.871 68.7227 188.466 68.936C188.06 69.1387 187.58 69.24 187.026 69.24C186.087 69.24 185.388 69.0107 184.93 68.552C184.471 68.0827 184.242 67.464 184.242 66.696V61.672C184.242 61.4907 184.29 61.352 184.386 61.256C184.492 61.16 184.631 61.112 184.802 61.112H185.378C185.559 61.112 185.698 61.16 185.794 61.256C185.89 61.352 185.938 61.4907 185.938 61.672V66.248C185.938 66.7387 186.06 67.1173 186.306 67.384C186.562 67.64 186.93 67.768 187.41 67.768C187.964 67.768 188.407 67.608 188.738 67.288C189.079 66.968 189.25 66.504 189.25 65.896V61.672ZM195.938 69.24C195.287 69.24 194.706 69.16 194.194 69C193.693 68.8293 193.181 68.536 192.658 68.12C192.498 68.0027 192.418 67.8693 192.418 67.72C192.418 67.6027 192.477 67.4747 192.594 67.336L192.834 67.064C192.962 66.9147 193.101 66.84 193.25 66.84C193.367 66.84 193.495 66.8933 193.634 67C194.082 67.3307 194.477 67.56 194.818 67.688C195.159 67.8053 195.543 67.864 195.97 67.864C196.429 67.864 196.802 67.7733 197.09 67.592C197.389 67.4 197.538 67.144 197.538 66.824C197.538 66.5787 197.453 66.3867 197.282 66.248C197.122 66.0987 196.909 65.9867 196.642 65.912C196.375 65.8267 195.981 65.7307 195.458 65.624C194.722 65.464 194.146 65.2933 193.73 65.112C193.325 64.92 193.031 64.68 192.85 64.392C192.669 64.104 192.578 63.736 192.578 63.288C192.578 62.8293 192.706 62.4187 192.962 62.056C193.229 61.6933 193.597 61.4053 194.066 61.192C194.546 60.9787 195.106 60.872 195.746 60.872C196.322 60.872 196.834 60.936 197.282 61.064C197.741 61.192 198.189 61.4107 198.626 61.72C198.797 61.848 198.882 61.992 198.882 62.152C198.882 62.2587 198.829 62.3813 198.722 62.52L198.514 62.776C198.397 62.9253 198.253 63 198.082 63C197.954 63 197.831 62.9573 197.714 62.872C197.362 62.6373 197.037 62.4773 196.738 62.392C196.439 62.296 196.103 62.248 195.73 62.248C195.271 62.248 194.903 62.3387 194.626 62.52C194.349 62.7013 194.21 62.936 194.21 63.224C194.21 63.416 194.274 63.5707 194.402 63.688C194.541 63.7947 194.733 63.8907 194.978 63.976C195.234 64.0507 195.634 64.1467 196.178 64.264C196.914 64.424 197.495 64.6053 197.922 64.808C198.359 65 198.679 65.2507 198.882 65.56C199.095 65.8587 199.202 66.248 199.202 66.728C199.202 67.4747 198.903 68.0827 198.306 68.552C197.719 69.0107 196.93 69.24 195.938 69.24Z" fill="white"/>
<rect x="129" y="41" width="86" height="46" rx="7" stroke="#0063FB" stroke-width="2"/>
<rect x="126" y="38" width="92" height="52" stroke="#06BEFB" stroke-width="2"/>
</svg>
