<svg width="344" height="202" viewBox="0 0 344 202" fill="none" xmlns="http://www.w3.org/2000/svg">
<rect width="344" height="202" fill="#F5F5F5"/>
<rect x="214.5" y="40.5" width="60" height="31" rx="3.5" fill="#F5F5F5"/>
<path d="M230 56.5L230 52.5" stroke="#C3CCD9" stroke-width="1.5" stroke-miterlimit="10" stroke-linecap="round"/>
<path d="M230 60L230 59.4999" stroke="#C3CCD9" stroke-width="1.5" stroke-linecap="round" stroke-linejoin="round"/>
<path d="M230 63C233.866 63 237 59.866 237 56C237 52.134 233.866 49 230 49C226.134 49 223 52.134 223 56C223 59.866 226.134 63 230 63Z" stroke="#C3CCD9" stroke-width="1.5" stroke-miterlimit="10"/>
<path d="M247.428 60C247.3 60 247.196 59.964 247.116 59.892C247.044 59.812 247.008 59.708 247.008 59.58V51.9C247.008 51.764 247.044 51.66 247.116 51.588C247.196 51.516 247.3 51.48 247.428 51.48H247.956C248.092 51.48 248.196 51.516 248.268 51.588C248.34 51.66 248.376 51.764 248.376 51.9V59.58C248.376 59.708 248.34 59.812 248.268 59.892C248.196 59.964 248.092 60 247.956 60H247.428ZM253.131 53.904C253.811 53.904 254.331 54.096 254.691 54.48C255.059 54.856 255.243 55.344 255.243 55.944V59.58C255.243 59.708 255.207 59.812 255.135 59.892C255.063 59.964 254.959 60 254.823 60H254.391C254.263 60 254.159 59.964 254.079 59.892C254.007 59.812 253.971 59.708 253.971 59.58V56.34C253.971 55.908 253.863 55.576 253.647 55.344C253.439 55.112 253.139 54.996 252.747 54.996C252.363 54.996 252.039 55.128 251.775 55.392C251.519 55.656 251.391 55.988 251.391 56.388V59.58C251.391 59.708 251.355 59.812 251.283 59.892C251.211 59.964 251.107 60 250.971 60H250.539C250.411 60 250.307 59.964 250.227 59.892C250.155 59.812 250.119 59.708 250.119 59.58V54.504C250.119 54.368 250.155 54.264 250.227 54.192C250.307 54.12 250.411 54.084 250.539 54.084H250.887C251.023 54.084 251.127 54.12 251.199 54.192C251.271 54.264 251.307 54.368 251.307 54.504V54.816C251.499 54.52 251.751 54.296 252.063 54.144C252.375 53.984 252.731 53.904 253.131 53.904ZM259.168 52.368C258.888 52.368 258.684 52.436 258.556 52.572C258.428 52.708 258.364 52.94 258.364 53.268V54.084H259.336C259.472 54.084 259.576 54.12 259.648 54.192C259.72 54.264 259.756 54.368 259.756 54.504V54.636C259.756 54.764 259.72 54.868 259.648 54.948C259.576 55.02 259.472 55.056 259.336 55.056H258.364V59.58C258.364 59.708 258.328 59.812 258.256 59.892C258.184 59.964 258.08 60 257.944 60H257.512C257.384 60 257.28 59.964 257.2 59.892C257.128 59.812 257.092 59.708 257.092 59.58V55.056H256.456C256.328 55.056 256.224 55.02 256.144 54.948C256.072 54.868 256.036 54.764 256.036 54.636V54.504C256.036 54.368 256.072 54.264 256.144 54.192C256.224 54.12 256.328 54.084 256.456 54.084H257.092V53.184C257.092 52.568 257.248 52.104 257.56 51.792C257.88 51.472 258.34 51.312 258.94 51.312C259.212 51.312 259.488 51.34 259.768 51.396C259.976 51.452 260.08 51.58 260.08 51.78C260.08 51.836 260.076 51.88 260.068 51.912L260.032 52.08C259.984 52.288 259.828 52.392 259.564 52.392L259.42 52.38C259.364 52.372 259.28 52.368 259.168 52.368ZM263.142 60.18C262.558 60.18 262.038 60.048 261.582 59.784C261.134 59.52 260.782 59.152 260.526 58.68C260.27 58.2 260.142 57.652 260.142 57.036C260.142 56.42 260.27 55.876 260.526 55.404C260.782 54.932 261.134 54.564 261.582 54.3C262.038 54.036 262.558 53.904 263.142 53.904C263.718 53.904 264.234 54.036 264.69 54.3C265.146 54.564 265.502 54.936 265.758 55.416C266.014 55.888 266.142 56.428 266.142 57.036C266.142 57.652 266.014 58.2 265.758 58.68C265.502 59.152 265.146 59.52 264.69 59.784C264.234 60.048 263.718 60.18 263.142 60.18ZM263.142 59.112C263.654 59.112 264.066 58.924 264.378 58.548C264.69 58.164 264.846 57.66 264.846 57.036C264.846 56.42 264.69 55.924 264.378 55.548C264.066 55.172 263.654 54.984 263.142 54.984C262.63 54.984 262.218 55.172 261.906 55.548C261.594 55.924 261.438 56.42 261.438 57.036C261.438 57.66 261.594 58.164 261.906 58.548C262.218 58.924 262.63 59.112 263.142 59.112Z" fill="#C3CCD9"/>
<rect x="214.5" y="40.5" width="60" height="31" rx="3.5" stroke="#C3CCD9"/>
<path d="M230 102.5L230 98.5" stroke="#C3CCD9" stroke-width="1.5" stroke-miterlimit="10" stroke-linecap="round"/>
<path d="M230 106L230 105.5" stroke="#C3CCD9" stroke-width="1.5" stroke-linecap="round" stroke-linejoin="round"/>
<path d="M230 109C233.866 109 237 105.866 237 102C237 98.134 233.866 95 230 95C226.134 95 223 98.134 223 102C223 105.866 226.134 109 230 109Z" stroke="#C3CCD9" stroke-width="1.5" stroke-miterlimit="10"/>
<path d="M247.428 106C247.3 106 247.196 105.964 247.116 105.892C247.044 105.812 247.008 105.708 247.008 105.58V97.9C247.008 97.764 247.044 97.66 247.116 97.588C247.196 97.516 247.3 97.48 247.428 97.48H247.956C248.092 97.48 248.196 97.516 248.268 97.588C248.34 97.66 248.376 97.764 248.376 97.9V105.58C248.376 105.708 248.34 105.812 248.268 105.892C248.196 105.964 248.092 106 247.956 106H247.428ZM253.131 99.904C253.811 99.904 254.331 100.096 254.691 100.48C255.059 100.856 255.243 101.344 255.243 101.944V105.58C255.243 105.708 255.207 105.812 255.135 105.892C255.063 105.964 254.959 106 254.823 106H254.391C254.263 106 254.159 105.964 254.079 105.892C254.007 105.812 253.971 105.708 253.971 105.58V102.34C253.971 101.908 253.863 101.576 253.647 101.344C253.439 101.112 253.139 100.996 252.747 100.996C252.363 100.996 252.039 101.128 251.775 101.392C251.519 101.656 251.391 101.988 251.391 102.388V105.58C251.391 105.708 251.355 105.812 251.283 105.892C251.211 105.964 251.107 106 250.971 106H250.539C250.411 106 250.307 105.964 250.227 105.892C250.155 105.812 250.119 105.708 250.119 105.58V100.504C250.119 100.368 250.155 100.264 250.227 100.192C250.307 100.12 250.411 100.084 250.539 100.084H250.887C251.023 100.084 251.127 100.12 251.199 100.192C251.271 100.264 251.307 100.368 251.307 100.504V100.816C251.499 100.52 251.751 100.296 252.063 100.144C252.375 99.984 252.731 99.904 253.131 99.904ZM259.168 98.368C258.888 98.368 258.684 98.436 258.556 98.572C258.428 98.708 258.364 98.94 258.364 99.268V100.084H259.336C259.472 100.084 259.576 100.12 259.648 100.192C259.72 100.264 259.756 100.368 259.756 100.504V100.636C259.756 100.764 259.72 100.868 259.648 100.948C259.576 101.02 259.472 101.056 259.336 101.056H258.364V105.58C258.364 105.708 258.328 105.812 258.256 105.892C258.184 105.964 258.08 106 257.944 106H257.512C257.384 106 257.28 105.964 257.2 105.892C257.128 105.812 257.092 105.708 257.092 105.58V101.056H256.456C256.328 101.056 256.224 101.02 256.144 100.948C256.072 100.868 256.036 100.764 256.036 100.636V100.504C256.036 100.368 256.072 100.264 256.144 100.192C256.224 100.12 256.328 100.084 256.456 100.084H257.092V99.184C257.092 98.568 257.248 98.104 257.56 97.792C257.88 97.472 258.34 97.312 258.94 97.312C259.212 97.312 259.488 97.34 259.768 97.396C259.976 97.452 260.08 97.58 260.08 97.78C260.08 97.836 260.076 97.88 260.068 97.912L260.032 98.08C259.984 98.288 259.828 98.392 259.564 98.392L259.42 98.38C259.364 98.372 259.28 98.368 259.168 98.368ZM263.142 106.18C262.558 106.18 262.038 106.048 261.582 105.784C261.134 105.52 260.782 105.152 260.526 104.68C260.27 104.2 260.142 103.652 260.142 103.036C260.142 102.42 260.27 101.876 260.526 101.404C260.782 100.932 261.134 100.564 261.582 100.3C262.038 100.036 262.558 99.904 263.142 99.904C263.718 99.904 264.234 100.036 264.69 100.3C265.146 100.564 265.502 100.936 265.758 101.416C266.014 101.888 266.142 102.428 266.142 103.036C266.142 103.652 266.014 104.2 265.758 104.68C265.502 105.152 265.146 105.52 264.69 105.784C264.234 106.048 263.718 106.18 263.142 106.18ZM263.142 105.112C263.654 105.112 264.066 104.924 264.378 104.548C264.69 104.164 264.846 103.66 264.846 103.036C264.846 102.42 264.69 101.924 264.378 101.548C264.066 101.172 263.654 100.984 263.142 100.984C262.63 100.984 262.218 101.172 261.906 101.548C261.594 101.924 261.438 102.42 261.438 103.036C261.438 103.66 261.594 104.164 261.906 104.548C262.218 104.924 262.63 105.112 263.142 105.112Z" fill="#C3CCD9"/>
<rect x="108.5" y="132.5" width="29" height="31" rx="3.5" fill="#F5F5F5"/>
<path d="M123 148.5L123 144.5" stroke="#C3CCD9" stroke-width="1.5" stroke-miterlimit="10" stroke-linecap="round"/>
<path d="M123 152L123 151.5" stroke="#C3CCD9" stroke-width="1.5" stroke-linecap="round" stroke-linejoin="round"/>
<path d="M123 155C126.866 155 130 151.866 130 148C130 144.134 126.866 141 123 141C119.134 141 116 144.134 116 148C116 151.866 119.134 155 123 155Z" stroke="#C3CCD9" stroke-width="1.5" stroke-miterlimit="10"/>
<rect x="108.5" y="132.5" width="29" height="31" rx="3.5" stroke="#C3CCD9"/>
<rect x="118.5" y="40.5" width="71" height="31" rx="3.5" fill="#F5F5F5"/>
<path d="M141 52L136 52C134.895 52 134 52.8954 134 54L134 56.6667" stroke="#C3CCD9" stroke-width="1.5" stroke-linecap="round" stroke-linejoin="round"/>
<path d="M138.54 49.0479L141 52.0001L138.54 54.9524" stroke="#C3CCD9" stroke-width="1.5" stroke-linecap="round" stroke-linejoin="round"/>
<path d="M141 57V61C141 62.1046 140.105 63 139 63H129C127.895 63 127 62.1046 127 61V51C127 49.8954 127.895 49 129 49H132" stroke="#C3CCD9" stroke-width="1.5" stroke-linecap="round" stroke-linejoin="round"/>
<path d="M153.924 60.192C153.268 60.192 152.68 60.1 152.16 59.916C151.648 59.724 151.12 59.404 150.576 58.956C150.464 58.868 150.408 58.764 150.408 58.644C150.408 58.54 150.448 58.444 150.528 58.356L150.804 58.032C150.892 57.92 150.992 57.864 151.104 57.864C151.192 57.864 151.292 57.908 151.404 57.996C151.884 58.38 152.312 58.644 152.688 58.788C153.072 58.932 153.492 59.004 153.948 59.004C154.5 59.004 154.948 58.88 155.292 58.632C155.636 58.376 155.808 58.028 155.808 57.588C155.808 57.3 155.72 57.076 155.544 56.916C155.368 56.748 155.14 56.62 154.86 56.532C154.588 56.444 154.144 56.328 153.528 56.184C152.784 56.008 152.204 55.816 151.788 55.608C151.372 55.4 151.072 55.152 150.888 54.864C150.712 54.568 150.624 54.196 150.624 53.748C150.624 53.276 150.76 52.852 151.032 52.476C151.304 52.1 151.676 51.808 152.148 51.6C152.628 51.392 153.164 51.288 153.756 51.288C154.356 51.288 154.884 51.368 155.34 51.528C155.804 51.688 156.268 51.948 156.732 52.308C156.852 52.404 156.912 52.504 156.912 52.608C156.912 52.696 156.872 52.792 156.792 52.896L156.528 53.208C156.432 53.32 156.332 53.376 156.228 53.376C156.132 53.376 156.032 53.336 155.928 53.256C155.544 52.96 155.188 52.756 154.86 52.644C154.532 52.532 154.16 52.476 153.744 52.476C153.216 52.476 152.788 52.592 152.46 52.824C152.132 53.056 151.968 53.348 151.968 53.7C151.968 53.956 152.044 54.16 152.196 54.312C152.348 54.464 152.568 54.588 152.856 54.684C153.144 54.78 153.588 54.896 154.188 55.032C154.916 55.208 155.492 55.396 155.916 55.596C156.34 55.788 156.656 56.036 156.864 56.34C157.072 56.644 157.176 57.032 157.176 57.504C157.176 58.032 157.04 58.5 156.768 58.908C156.496 59.316 156.116 59.632 155.628 59.856C155.14 60.08 154.572 60.192 153.924 60.192ZM161.373 53.904C162.053 53.904 162.573 54.096 162.933 54.48C163.301 54.856 163.485 55.344 163.485 55.944V59.58C163.485 59.708 163.449 59.812 163.377 59.892C163.305 59.964 163.201 60 163.065 60H162.633C162.505 60 162.401 59.964 162.321 59.892C162.249 59.812 162.213 59.708 162.213 59.58V56.34C162.213 55.908 162.105 55.576 161.889 55.344C161.681 55.112 161.381 54.996 160.989 54.996C160.605 54.996 160.281 55.128 160.017 55.392C159.761 55.656 159.633 55.988 159.633 56.388V59.58C159.633 59.708 159.597 59.812 159.525 59.892C159.453 59.964 159.349 60 159.213 60H158.781C158.653 60 158.549 59.964 158.469 59.892C158.397 59.812 158.361 59.708 158.361 59.58V51.9C158.361 51.764 158.397 51.66 158.469 51.588C158.549 51.516 158.653 51.48 158.781 51.48H159.213C159.349 51.48 159.453 51.516 159.525 51.588C159.597 51.66 159.633 51.764 159.633 51.9V54.696C159.825 54.44 160.069 54.244 160.365 54.108C160.669 53.972 161.005 53.904 161.373 53.904ZM167.443 53.904C168.243 53.904 168.859 54.092 169.291 54.468C169.723 54.836 169.939 55.328 169.939 55.944V59.58C169.939 59.708 169.903 59.812 169.831 59.892C169.759 59.964 169.655 60 169.519 60H169.207C169.079 60 168.975 59.964 168.895 59.892C168.823 59.812 168.787 59.708 168.787 59.58V59.316C168.595 59.596 168.331 59.812 167.995 59.964C167.659 60.116 167.267 60.192 166.819 60.192C166.203 60.192 165.695 60.056 165.295 59.784C164.903 59.504 164.707 59.084 164.707 58.524C164.707 57.9 164.939 57.44 165.403 57.144C165.875 56.84 166.527 56.612 167.359 56.46L168.715 56.208V55.992C168.715 55.664 168.599 55.412 168.367 55.236C168.143 55.052 167.843 54.96 167.467 54.96C167.147 54.96 166.867 55.016 166.627 55.128C166.395 55.232 166.143 55.408 165.871 55.656C165.767 55.744 165.667 55.788 165.571 55.788C165.475 55.788 165.375 55.744 165.271 55.656L165.079 55.488C164.975 55.392 164.923 55.288 164.923 55.176C164.923 55.072 164.971 54.972 165.067 54.876C165.411 54.548 165.775 54.304 166.159 54.144C166.543 53.984 166.971 53.904 167.443 53.904ZM166.999 59.172C167.479 59.172 167.883 59.044 168.211 58.788C168.547 58.532 168.715 58.164 168.715 57.684V57.132L167.671 57.348C167.087 57.468 166.655 57.604 166.375 57.756C166.095 57.908 165.955 58.14 165.955 58.452C165.955 58.676 166.047 58.852 166.231 58.98C166.415 59.108 166.671 59.172 166.999 59.172ZM174.056 54.024C174.232 54.024 174.412 54.044 174.596 54.084C174.812 54.132 174.92 54.26 174.92 54.468C174.92 54.524 174.916 54.564 174.908 54.588L174.848 54.876C174.8 55.1 174.68 55.212 174.488 55.212L174.38 55.2C174.236 55.176 174.108 55.164 173.996 55.164C173.596 55.164 173.272 55.324 173.024 55.644C172.784 55.956 172.664 56.392 172.664 56.952V59.58C172.664 59.708 172.628 59.812 172.556 59.892C172.484 59.964 172.38 60 172.244 60H171.812C171.684 60 171.58 59.964 171.5 59.892C171.428 59.812 171.392 59.708 171.392 59.58V54.504C171.392 54.368 171.428 54.264 171.5 54.192C171.58 54.12 171.684 54.084 171.812 54.084H172.16C172.296 54.084 172.4 54.12 172.472 54.192C172.544 54.264 172.58 54.368 172.58 54.504V54.972C172.724 54.676 172.92 54.444 173.168 54.276C173.416 54.108 173.712 54.024 174.056 54.024ZM179.8 58.488C179.904 58.4 180.004 58.356 180.1 58.356C180.196 58.356 180.296 58.408 180.4 58.512L180.568 58.692C180.656 58.796 180.7 58.896 180.7 58.992C180.7 59.096 180.648 59.196 180.544 59.292C180.176 59.612 179.808 59.84 179.44 59.976C179.08 60.112 178.68 60.18 178.24 60.18C177.624 60.18 177.088 60.052 176.632 59.796C176.184 59.54 175.836 59.18 175.588 58.716C175.348 58.244 175.228 57.7 175.228 57.084C175.228 56.476 175.344 55.932 175.576 55.452C175.816 54.964 176.152 54.584 176.584 54.312C177.024 54.04 177.536 53.904 178.12 53.904C178.992 53.904 179.664 54.164 180.136 54.684C180.608 55.196 180.844 55.904 180.844 56.808V56.916C180.836 57.044 180.796 57.144 180.724 57.216C180.652 57.288 180.548 57.324 180.412 57.324H176.476C176.524 57.852 176.696 58.284 176.992 58.62C177.296 58.948 177.72 59.112 178.264 59.112C178.56 59.112 178.82 59.068 179.044 58.98C179.268 58.884 179.52 58.72 179.8 58.488ZM178.096 54.912C177.656 54.912 177.3 55.044 177.028 55.308C176.764 55.564 176.592 55.928 176.512 56.4H179.596C179.564 55.936 179.42 55.572 179.164 55.308C178.908 55.044 178.552 54.912 178.096 54.912Z" fill="#C3CCD9"/>
<rect x="118.5" y="40.5" width="71" height="31" rx="3.5" stroke="#C3CCD9"/>
<path d="M141 98L136 98C134.895 98 134 98.8954 134 100L134 102.667" stroke="#C3CCD9" stroke-width="1.5" stroke-linecap="round" stroke-linejoin="round"/>
<path d="M138.54 95.0479L141 98.0001L138.54 100.952" stroke="#C3CCD9" stroke-width="1.5" stroke-linecap="round" stroke-linejoin="round"/>
<path d="M141 103V107C141 108.105 140.105 109 139 109H129C127.895 109 127 108.105 127 107V97C127 95.8954 127.895 95 129 95H132" stroke="#C3CCD9" stroke-width="1.5" stroke-linecap="round" stroke-linejoin="round"/>
<path d="M153.924 106.192C153.268 106.192 152.68 106.1 152.16 105.916C151.648 105.724 151.12 105.404 150.576 104.956C150.464 104.868 150.408 104.764 150.408 104.644C150.408 104.54 150.448 104.444 150.528 104.356L150.804 104.032C150.892 103.92 150.992 103.864 151.104 103.864C151.192 103.864 151.292 103.908 151.404 103.996C151.884 104.38 152.312 104.644 152.688 104.788C153.072 104.932 153.492 105.004 153.948 105.004C154.5 105.004 154.948 104.88 155.292 104.632C155.636 104.376 155.808 104.028 155.808 103.588C155.808 103.3 155.72 103.076 155.544 102.916C155.368 102.748 155.14 102.62 154.86 102.532C154.588 102.444 154.144 102.328 153.528 102.184C152.784 102.008 152.204 101.816 151.788 101.608C151.372 101.4 151.072 101.152 150.888 100.864C150.712 100.568 150.624 100.196 150.624 99.748C150.624 99.276 150.76 98.852 151.032 98.476C151.304 98.1 151.676 97.808 152.148 97.6C152.628 97.392 153.164 97.288 153.756 97.288C154.356 97.288 154.884 97.368 155.34 97.528C155.804 97.688 156.268 97.948 156.732 98.308C156.852 98.404 156.912 98.504 156.912 98.608C156.912 98.696 156.872 98.792 156.792 98.896L156.528 99.208C156.432 99.32 156.332 99.376 156.228 99.376C156.132 99.376 156.032 99.336 155.928 99.256C155.544 98.96 155.188 98.756 154.86 98.644C154.532 98.532 154.16 98.476 153.744 98.476C153.216 98.476 152.788 98.592 152.46 98.824C152.132 99.056 151.968 99.348 151.968 99.7C151.968 99.956 152.044 100.16 152.196 100.312C152.348 100.464 152.568 100.588 152.856 100.684C153.144 100.78 153.588 100.896 154.188 101.032C154.916 101.208 155.492 101.396 155.916 101.596C156.34 101.788 156.656 102.036 156.864 102.34C157.072 102.644 157.176 103.032 157.176 103.504C157.176 104.032 157.04 104.5 156.768 104.908C156.496 105.316 156.116 105.632 155.628 105.856C155.14 106.08 154.572 106.192 153.924 106.192ZM161.373 99.904C162.053 99.904 162.573 100.096 162.933 100.48C163.301 100.856 163.485 101.344 163.485 101.944V105.58C163.485 105.708 163.449 105.812 163.377 105.892C163.305 105.964 163.201 106 163.065 106H162.633C162.505 106 162.401 105.964 162.321 105.892C162.249 105.812 162.213 105.708 162.213 105.58V102.34C162.213 101.908 162.105 101.576 161.889 101.344C161.681 101.112 161.381 100.996 160.989 100.996C160.605 100.996 160.281 101.128 160.017 101.392C159.761 101.656 159.633 101.988 159.633 102.388V105.58C159.633 105.708 159.597 105.812 159.525 105.892C159.453 105.964 159.349 106 159.213 106H158.781C158.653 106 158.549 105.964 158.469 105.892C158.397 105.812 158.361 105.708 158.361 105.58V97.9C158.361 97.764 158.397 97.66 158.469 97.588C158.549 97.516 158.653 97.48 158.781 97.48H159.213C159.349 97.48 159.453 97.516 159.525 97.588C159.597 97.66 159.633 97.764 159.633 97.9V100.696C159.825 100.44 160.069 100.244 160.365 100.108C160.669 99.972 161.005 99.904 161.373 99.904ZM167.443 99.904C168.243 99.904 168.859 100.092 169.291 100.468C169.723 100.836 169.939 101.328 169.939 101.944V105.58C169.939 105.708 169.903 105.812 169.831 105.892C169.759 105.964 169.655 106 169.519 106H169.207C169.079 106 168.975 105.964 168.895 105.892C168.823 105.812 168.787 105.708 168.787 105.58V105.316C168.595 105.596 168.331 105.812 167.995 105.964C167.659 106.116 167.267 106.192 166.819 106.192C166.203 106.192 165.695 106.056 165.295 105.784C164.903 105.504 164.707 105.084 164.707 104.524C164.707 103.9 164.939 103.44 165.403 103.144C165.875 102.84 166.527 102.612 167.359 102.46L168.715 102.208V101.992C168.715 101.664 168.599 101.412 168.367 101.236C168.143 101.052 167.843 100.96 167.467 100.96C167.147 100.96 166.867 101.016 166.627 101.128C166.395 101.232 166.143 101.408 165.871 101.656C165.767 101.744 165.667 101.788 165.571 101.788C165.475 101.788 165.375 101.744 165.271 101.656L165.079 101.488C164.975 101.392 164.923 101.288 164.923 101.176C164.923 101.072 164.971 100.972 165.067 100.876C165.411 100.548 165.775 100.304 166.159 100.144C166.543 99.984 166.971 99.904 167.443 99.904ZM166.999 105.172C167.479 105.172 167.883 105.044 168.211 104.788C168.547 104.532 168.715 104.164 168.715 103.684V103.132L167.671 103.348C167.087 103.468 166.655 103.604 166.375 103.756C166.095 103.908 165.955 104.14 165.955 104.452C165.955 104.676 166.047 104.852 166.231 104.98C166.415 105.108 166.671 105.172 166.999 105.172ZM174.056 100.024C174.232 100.024 174.412 100.044 174.596 100.084C174.812 100.132 174.92 100.26 174.92 100.468C174.92 100.524 174.916 100.564 174.908 100.588L174.848 100.876C174.8 101.1 174.68 101.212 174.488 101.212L174.38 101.2C174.236 101.176 174.108 101.164 173.996 101.164C173.596 101.164 173.272 101.324 173.024 101.644C172.784 101.956 172.664 102.392 172.664 102.952V105.58C172.664 105.708 172.628 105.812 172.556 105.892C172.484 105.964 172.38 106 172.244 106H171.812C171.684 106 171.58 105.964 171.5 105.892C171.428 105.812 171.392 105.708 171.392 105.58V100.504C171.392 100.368 171.428 100.264 171.5 100.192C171.58 100.12 171.684 100.084 171.812 100.084H172.16C172.296 100.084 172.4 100.12 172.472 100.192C172.544 100.264 172.58 100.368 172.58 100.504V100.972C172.724 100.676 172.92 100.444 173.168 100.276C173.416 100.108 173.712 100.024 174.056 100.024ZM179.8 104.488C179.904 104.4 180.004 104.356 180.1 104.356C180.196 104.356 180.296 104.408 180.4 104.512L180.568 104.692C180.656 104.796 180.7 104.896 180.7 104.992C180.7 105.096 180.648 105.196 180.544 105.292C180.176 105.612 179.808 105.84 179.44 105.976C179.08 106.112 178.68 106.18 178.24 106.18C177.624 106.18 177.088 106.052 176.632 105.796C176.184 105.54 175.836 105.18 175.588 104.716C175.348 104.244 175.228 103.7 175.228 103.084C175.228 102.476 175.344 101.932 175.576 101.452C175.816 100.964 176.152 100.584 176.584 100.312C177.024 100.04 177.536 99.904 178.12 99.904C178.992 99.904 179.664 100.164 180.136 100.684C180.608 101.196 180.844 101.904 180.844 102.808V102.916C180.836 103.044 180.796 103.144 180.724 103.216C180.652 103.288 180.548 103.324 180.412 103.324H176.476C176.524 103.852 176.696 104.284 176.992 104.62C177.296 104.948 177.72 105.112 178.264 105.112C178.56 105.112 178.82 105.068 179.044 104.98C179.268 104.884 179.52 104.72 179.8 104.488ZM178.096 100.912C177.656 100.912 177.3 101.044 177.028 101.308C176.764 101.564 176.592 101.928 176.512 102.4H179.596C179.564 101.936 179.42 101.572 179.164 101.308C178.908 101.044 178.552 100.912 178.096 100.912Z" fill="#C3CCD9"/>
<rect x="32.5" y="40.5" width="61" height="31" rx="3.5" fill="#F5F5F5"/>
<path d="M54.34 49.6598C54.1281 49.4487 53.8764 49.2817 53.5996 49.1685C53.3227 49.0553 53.0262 48.998 52.7271 49.0001C52.428 49.0021 52.1323 49.0633 51.857 49.1803C51.5817 49.2973 51.3323 49.4676 51.1232 49.6815L42.1013 58.7036L41 63L45.2963 61.8981L54.3183 52.876C54.5322 52.667 54.7026 52.4177 54.8196 52.1424C54.9366 51.8672 54.9979 51.5715 54.9999 51.2724C55.002 50.9733 54.9447 50.6768 54.8314 50.4C54.7182 50.1232 54.5511 49.8716 54.34 49.6598V49.6598Z" stroke="#C3CCD9" stroke-width="1.5" stroke-linecap="round" stroke-linejoin="round"/>
<path d="M65.344 60C65.216 60 65.112 59.964 65.032 59.892C64.96 59.812 64.924 59.708 64.924 59.58V51.9C64.924 51.764 64.96 51.66 65.032 51.588C65.112 51.516 65.216 51.48 65.344 51.48H70.324C70.46 51.48 70.564 51.516 70.636 51.588C70.708 51.66 70.744 51.764 70.744 51.9V52.212C70.744 52.34 70.708 52.444 70.636 52.524C70.564 52.596 70.46 52.632 70.324 52.632H66.292V55.032H70.024C70.16 55.032 70.264 55.068 70.336 55.14C70.408 55.212 70.444 55.316 70.444 55.452V55.764C70.444 55.892 70.408 55.996 70.336 56.076C70.264 56.148 70.16 56.184 70.024 56.184H66.292V58.848H70.444C70.58 58.848 70.684 58.884 70.756 58.956C70.828 59.028 70.864 59.132 70.864 59.268V59.58C70.864 59.708 70.828 59.812 70.756 59.892C70.684 59.964 70.58 60 70.444 60H65.344ZM76.1148 51.888C76.1148 51.752 76.1508 51.648 76.2228 51.576C76.3028 51.504 76.4068 51.468 76.5348 51.468H76.9668C77.1028 51.468 77.2068 51.504 77.2787 51.576C77.3507 51.648 77.3867 51.752 77.3867 51.888V59.58C77.3867 59.708 77.3507 59.812 77.2787 59.892C77.2068 59.964 77.1028 60 76.9668 60H76.6188C76.4908 60 76.3868 59.964 76.3068 59.892C76.2348 59.812 76.1988 59.708 76.1988 59.58V59.16C75.7828 59.832 75.1308 60.168 74.2428 60.168C73.7468 60.168 73.2988 60.04 72.8988 59.784C72.5068 59.528 72.1988 59.164 71.9748 58.692C71.7508 58.22 71.6388 57.672 71.6388 57.048C71.6388 56.432 71.7508 55.888 71.9748 55.416C72.2068 54.944 72.5228 54.58 72.9228 54.324C73.3228 54.068 73.7708 53.94 74.2668 53.94C75.0828 53.94 75.6988 54.224 76.1148 54.792V51.888ZM74.5068 59.076C74.9948 59.076 75.3948 58.896 75.7068 58.536C76.0188 58.168 76.1748 57.672 76.1748 57.048C76.1748 56.424 76.0188 55.932 75.7068 55.572C75.3948 55.212 74.9948 55.032 74.5068 55.032C74.0348 55.032 73.6548 55.216 73.3668 55.584C73.0788 55.952 72.9348 56.44 72.9348 57.048C72.9348 57.664 73.0748 58.156 73.3548 58.524C73.6428 58.892 74.0268 59.076 74.5068 59.076ZM79.5128 52.932C79.2808 52.932 79.0848 52.856 78.9248 52.704C78.7648 52.544 78.6848 52.356 78.6848 52.14C78.6848 51.916 78.7648 51.728 78.9248 51.576C79.0848 51.424 79.2808 51.348 79.5128 51.348C79.7448 51.348 79.9408 51.424 80.1008 51.576C80.2608 51.728 80.3408 51.916 80.3408 52.14C80.3408 52.356 80.2608 52.544 80.1008 52.704C79.9408 52.856 79.7448 52.932 79.5128 52.932ZM79.2848 60C79.1568 60 79.0528 59.964 78.9728 59.892C78.9008 59.812 78.8648 59.708 78.8648 59.58V54.504C78.8648 54.368 78.9008 54.264 78.9728 54.192C79.0528 54.12 79.1568 54.084 79.2848 54.084H79.7168C79.8528 54.084 79.9568 54.12 80.0288 54.192C80.1008 54.264 80.1368 54.368 80.1368 54.504V59.58C80.1368 59.708 80.1008 59.812 80.0288 59.892C79.9568 59.964 79.8528 60 79.7168 60H79.2848ZM84.463 58.992C84.487 58.984 84.523 58.98 84.571 58.98C84.771 58.98 84.891 59.096 84.931 59.328L84.967 59.52C84.975 59.544 84.979 59.584 84.979 59.64C84.979 59.84 84.867 59.968 84.643 60.024C84.323 60.096 84.031 60.132 83.767 60.132C83.199 60.132 82.787 60 82.531 59.736C82.283 59.472 82.159 59.076 82.159 58.548V55.056H81.499C81.371 55.056 81.267 55.02 81.187 54.948C81.115 54.868 81.079 54.764 81.079 54.636V54.504C81.079 54.368 81.115 54.264 81.187 54.192C81.267 54.12 81.371 54.084 81.499 54.084H82.159V52.596C82.159 52.46 82.195 52.356 82.267 52.284C82.347 52.212 82.451 52.176 82.579 52.176H83.011C83.147 52.176 83.251 52.212 83.323 52.284C83.395 52.356 83.431 52.46 83.431 52.596V54.084H84.511C84.647 54.084 84.751 54.12 84.823 54.192C84.895 54.264 84.931 54.368 84.931 54.504V54.636C84.931 54.764 84.895 54.868 84.823 54.948C84.751 55.02 84.647 55.056 84.511 55.056H83.431V58.392C83.431 58.624 83.479 58.788 83.575 58.884C83.679 58.98 83.843 59.028 84.067 59.028C84.163 59.028 84.295 59.016 84.463 58.992Z" fill="#C3CCD9"/>
<rect x="32.5" y="40.5" width="61" height="31" rx="3.5" stroke="#C3CCD9"/>
<path d="M54.34 95.6598C54.1281 95.4487 53.8764 95.2817 53.5996 95.1685C53.3227 95.0553 53.0262 94.998 52.7271 95.0001C52.428 95.0021 52.1323 95.0633 51.857 95.1803C51.5817 95.2973 51.3323 95.4676 51.1232 95.6815L42.1013 104.704L41 109L45.2963 107.898L54.3183 98.876C54.5322 98.667 54.7026 98.4177 54.8196 98.1424C54.9366 97.8672 54.9979 97.5715 54.9999 97.2724C55.002 96.9733 54.9447 96.6768 54.8314 96.4C54.7182 96.1232 54.5511 95.8716 54.34 95.6598V95.6598Z" stroke="#C3CCD9" stroke-width="1.5" stroke-linecap="round" stroke-linejoin="round"/>
<path d="M65.344 106C65.216 106 65.112 105.964 65.032 105.892C64.96 105.812 64.924 105.708 64.924 105.58V97.9C64.924 97.764 64.96 97.66 65.032 97.588C65.112 97.516 65.216 97.48 65.344 97.48H70.324C70.46 97.48 70.564 97.516 70.636 97.588C70.708 97.66 70.744 97.764 70.744 97.9V98.212C70.744 98.34 70.708 98.444 70.636 98.524C70.564 98.596 70.46 98.632 70.324 98.632H66.292V101.032H70.024C70.16 101.032 70.264 101.068 70.336 101.14C70.408 101.212 70.444 101.316 70.444 101.452V101.764C70.444 101.892 70.408 101.996 70.336 102.076C70.264 102.148 70.16 102.184 70.024 102.184H66.292V104.848H70.444C70.58 104.848 70.684 104.884 70.756 104.956C70.828 105.028 70.864 105.132 70.864 105.268V105.58C70.864 105.708 70.828 105.812 70.756 105.892C70.684 105.964 70.58 106 70.444 106H65.344ZM76.1148 97.888C76.1148 97.752 76.1508 97.648 76.2228 97.576C76.3028 97.504 76.4068 97.468 76.5348 97.468H76.9668C77.1028 97.468 77.2068 97.504 77.2787 97.576C77.3507 97.648 77.3867 97.752 77.3867 97.888V105.58C77.3867 105.708 77.3507 105.812 77.2787 105.892C77.2068 105.964 77.1028 106 76.9668 106H76.6188C76.4908 106 76.3868 105.964 76.3068 105.892C76.2348 105.812 76.1988 105.708 76.1988 105.58V105.16C75.7828 105.832 75.1308 106.168 74.2428 106.168C73.7468 106.168 73.2988 106.04 72.8988 105.784C72.5068 105.528 72.1988 105.164 71.9748 104.692C71.7508 104.22 71.6388 103.672 71.6388 103.048C71.6388 102.432 71.7508 101.888 71.9748 101.416C72.2068 100.944 72.5228 100.58 72.9228 100.324C73.3228 100.068 73.7708 99.94 74.2668 99.94C75.0828 99.94 75.6988 100.224 76.1148 100.792V97.888ZM74.5068 105.076C74.9948 105.076 75.3948 104.896 75.7068 104.536C76.0188 104.168 76.1748 103.672 76.1748 103.048C76.1748 102.424 76.0188 101.932 75.7068 101.572C75.3948 101.212 74.9948 101.032 74.5068 101.032C74.0348 101.032 73.6548 101.216 73.3668 101.584C73.0788 101.952 72.9348 102.44 72.9348 103.048C72.9348 103.664 73.0748 104.156 73.3548 104.524C73.6428 104.892 74.0268 105.076 74.5068 105.076ZM79.5128 98.932C79.2808 98.932 79.0848 98.856 78.9248 98.704C78.7648 98.544 78.6848 98.356 78.6848 98.14C78.6848 97.916 78.7648 97.728 78.9248 97.576C79.0848 97.424 79.2808 97.348 79.5128 97.348C79.7448 97.348 79.9408 97.424 80.1008 97.576C80.2608 97.728 80.3408 97.916 80.3408 98.14C80.3408 98.356 80.2608 98.544 80.1008 98.704C79.9408 98.856 79.7448 98.932 79.5128 98.932ZM79.2848 106C79.1568 106 79.0528 105.964 78.9728 105.892C78.9008 105.812 78.8648 105.708 78.8648 105.58V100.504C78.8648 100.368 78.9008 100.264 78.9728 100.192C79.0528 100.12 79.1568 100.084 79.2848 100.084H79.7168C79.8528 100.084 79.9568 100.12 80.0288 100.192C80.1008 100.264 80.1368 100.368 80.1368 100.504V105.58C80.1368 105.708 80.1008 105.812 80.0288 105.892C79.9568 105.964 79.8528 106 79.7168 106H79.2848ZM84.463 104.992C84.487 104.984 84.523 104.98 84.571 104.98C84.771 104.98 84.891 105.096 84.931 105.328L84.967 105.52C84.975 105.544 84.979 105.584 84.979 105.64C84.979 105.84 84.867 105.968 84.643 106.024C84.323 106.096 84.031 106.132 83.767 106.132C83.199 106.132 82.787 106 82.531 105.736C82.283 105.472 82.159 105.076 82.159 104.548V101.056H81.499C81.371 101.056 81.267 101.02 81.187 100.948C81.115 100.868 81.079 100.764 81.079 100.636V100.504C81.079 100.368 81.115 100.264 81.187 100.192C81.267 100.12 81.371 100.084 81.499 100.084H82.159V98.596C82.159 98.46 82.195 98.356 82.267 98.284C82.347 98.212 82.451 98.176 82.579 98.176H83.011C83.147 98.176 83.251 98.212 83.323 98.284C83.395 98.356 83.431 98.46 83.431 98.596V100.084H84.511C84.647 100.084 84.751 100.12 84.823 100.192C84.895 100.264 84.931 100.368 84.931 100.504V100.636C84.931 100.764 84.895 100.868 84.823 100.948C84.751 101.02 84.647 101.056 84.511 101.056H83.431V104.392C83.431 104.624 83.479 104.788 83.575 104.884C83.679 104.98 83.843 105.028 84.067 105.028C84.163 105.028 84.295 105.016 84.463 104.992Z" fill="#C3CCD9"/>
<rect x="70.5" y="132.5" width="29" height="31" rx="3.5" fill="#F5F5F5"/>
<path d="M92 144L87 144C85.8954 144 85 144.895 85 146L85 148.667" stroke="#C3CCD9" stroke-width="1.5" stroke-linecap="round" stroke-linejoin="round"/>
<path d="M89.5398 141.048L92 144L89.5398 146.952" stroke="#C3CCD9" stroke-width="1.5" stroke-linecap="round" stroke-linejoin="round"/>
<path d="M92 149V153C92 154.105 91.1046 155 90 155H80C78.8954 155 78 154.105 78 153V143C78 141.895 78.8954 141 80 141H83.0001" stroke="#C3CCD9" stroke-width="1.5" stroke-linecap="round" stroke-linejoin="round"/>
<rect x="70.5" y="132.5" width="29" height="31" rx="3.5" stroke="#C3CCD9"/>
<rect x="32.5" y="132.5" width="29" height="31" rx="3.5" fill="#F5F5F5"/>
<path d="M53.34 141.66C53.1281 141.449 52.8764 141.282 52.5996 141.169C52.3227 141.055 52.0262 140.998 51.7271 141C51.428 141.002 51.1323 141.063 50.857 141.18C50.5817 141.297 50.3323 141.468 50.1232 141.682L41.1013 150.704L40 155L44.2963 153.898L53.3183 144.876C53.5322 144.667 53.7026 144.418 53.8196 144.142C53.9366 143.867 53.9979 143.571 53.9999 143.272C54.002 142.973 53.9447 142.677 53.8314 142.4C53.7182 142.123 53.5511 141.872 53.34 141.66V141.66Z" stroke="#C3CCD9" stroke-width="1.5" stroke-linecap="round" stroke-linejoin="round"/>
<rect x="32.5" y="132.5" width="29" height="31" rx="3.5" stroke="#C3CCD9"/>
</svg>
