<svg width="344" height="166" viewBox="0 0 344 166" fill="none" xmlns="http://www.w3.org/2000/svg">
<rect x="124" y="40" width="96" height="32" rx="8" fill="white"/>
<path d="M138.5 56H149.5" stroke="#0063FB" stroke-width="1.5" stroke-linecap="round" stroke-linejoin="round"/>
<path d="M144 50.5V61.5" stroke="#0063FB" stroke-width="1.5" stroke-linecap="round" stroke-linejoin="round"/>
<path d="M167.044 60C166.804 60 166.644 59.888 166.564 59.664L166 58.044H162.232L161.668 59.664C161.588 59.888 161.428 60 161.188 60H160.684C160.564 60 160.468 59.976 160.396 59.928C160.332 59.872 160.3 59.796 160.3 59.7C160.3 59.652 160.312 59.592 160.336 59.52L163.12 51.816C163.2 51.592 163.36 51.48 163.6 51.48H164.668C164.908 51.48 165.068 51.592 165.148 51.816L167.932 59.52C167.956 59.592 167.968 59.652 167.968 59.7C167.968 59.796 167.932 59.872 167.86 59.928C167.796 59.976 167.704 60 167.584 60H167.044ZM165.616 56.904L165.244 55.848C165.236 55.832 165.148 55.58 164.98 55.092C164.556 53.892 164.268 53.036 164.116 52.524C163.884 53.26 163.576 54.172 163.192 55.26L162.988 55.86L162.628 56.904H165.616ZM173.111 51.888C173.111 51.752 173.147 51.648 173.219 51.576C173.299 51.504 173.403 51.468 173.531 51.468H173.963C174.099 51.468 174.203 51.504 174.275 51.576C174.347 51.648 174.383 51.752 174.383 51.888V59.58C174.383 59.708 174.347 59.812 174.275 59.892C174.203 59.964 174.099 60 173.963 60H173.615C173.487 60 173.383 59.964 173.303 59.892C173.231 59.812 173.195 59.708 173.195 59.58V59.16C172.779 59.832 172.127 60.168 171.239 60.168C170.743 60.168 170.295 60.04 169.895 59.784C169.503 59.528 169.195 59.164 168.971 58.692C168.747 58.22 168.635 57.672 168.635 57.048C168.635 56.432 168.747 55.888 168.971 55.416C169.203 54.944 169.519 54.58 169.919 54.324C170.319 54.068 170.767 53.94 171.263 53.94C172.079 53.94 172.695 54.224 173.111 54.792V51.888ZM171.503 59.076C171.991 59.076 172.391 58.896 172.703 58.536C173.015 58.168 173.171 57.672 173.171 57.048C173.171 56.424 173.015 55.932 172.703 55.572C172.391 55.212 171.991 55.032 171.503 55.032C171.031 55.032 170.651 55.216 170.363 55.584C170.075 55.952 169.931 56.44 169.931 57.048C169.931 57.664 170.071 58.156 170.351 58.524C170.639 58.892 171.023 59.076 171.503 59.076ZM180.025 51.888C180.025 51.752 180.061 51.648 180.133 51.576C180.213 51.504 180.317 51.468 180.445 51.468H180.877C181.013 51.468 181.117 51.504 181.189 51.576C181.261 51.648 181.297 51.752 181.297 51.888V59.58C181.297 59.708 181.261 59.812 181.189 59.892C181.117 59.964 181.013 60 180.877 60H180.529C180.401 60 180.297 59.964 180.217 59.892C180.145 59.812 180.109 59.708 180.109 59.58V59.16C179.693 59.832 179.041 60.168 178.153 60.168C177.657 60.168 177.209 60.04 176.809 59.784C176.417 59.528 176.109 59.164 175.885 58.692C175.661 58.22 175.549 57.672 175.549 57.048C175.549 56.432 175.661 55.888 175.885 55.416C176.117 54.944 176.433 54.58 176.833 54.324C177.233 54.068 177.681 53.94 178.177 53.94C178.993 53.94 179.609 54.224 180.025 54.792V51.888ZM178.417 59.076C178.905 59.076 179.305 58.896 179.617 58.536C179.929 58.168 180.085 57.672 180.085 57.048C180.085 56.424 179.929 55.932 179.617 55.572C179.305 55.212 178.905 55.032 178.417 55.032C177.945 55.032 177.565 55.216 177.277 55.584C176.989 55.952 176.845 56.44 176.845 57.048C176.845 57.664 176.985 58.156 177.265 58.524C177.553 58.892 177.937 59.076 178.417 59.076ZM189.215 54.504C189.215 54.368 189.251 54.264 189.323 54.192C189.403 54.12 189.507 54.084 189.635 54.084H190.067C190.203 54.084 190.307 54.12 190.379 54.192C190.451 54.264 190.487 54.368 190.487 54.504V59.58C190.487 59.708 190.451 59.812 190.379 59.892C190.307 59.964 190.203 60 190.067 60H189.743C189.615 60 189.511 59.964 189.431 59.892C189.359 59.812 189.323 59.708 189.323 59.58V59.304C189.163 59.576 188.931 59.792 188.627 59.952C188.323 60.104 187.963 60.18 187.547 60.18C186.843 60.18 186.319 60.008 185.975 59.664C185.631 59.312 185.459 58.848 185.459 58.272V54.504C185.459 54.368 185.495 54.264 185.567 54.192C185.647 54.12 185.751 54.084 185.879 54.084H186.311C186.447 54.084 186.551 54.12 186.623 54.192C186.695 54.264 186.731 54.368 186.731 54.504V57.936C186.731 58.304 186.823 58.588 187.007 58.788C187.199 58.98 187.475 59.076 187.835 59.076C188.251 59.076 188.583 58.956 188.831 58.716C189.087 58.476 189.215 58.128 189.215 57.672V54.504ZM194.231 60.18C193.743 60.18 193.307 60.12 192.923 60C192.547 59.872 192.163 59.652 191.771 59.34C191.651 59.252 191.591 59.152 191.591 59.04C191.591 58.952 191.635 58.856 191.723 58.752L191.903 58.548C191.999 58.436 192.103 58.38 192.215 58.38C192.303 58.38 192.399 58.42 192.503 58.5C192.839 58.748 193.135 58.92 193.391 59.016C193.647 59.104 193.935 59.148 194.255 59.148C194.599 59.148 194.879 59.08 195.095 58.944C195.319 58.8 195.431 58.608 195.431 58.368C195.431 58.184 195.367 58.04 195.239 57.936C195.119 57.824 194.959 57.74 194.759 57.684C194.559 57.62 194.263 57.548 193.871 57.468C193.319 57.348 192.887 57.22 192.575 57.084C192.271 56.94 192.051 56.76 191.915 56.544C191.779 56.328 191.711 56.052 191.711 55.716C191.711 55.372 191.807 55.064 191.999 54.792C192.199 54.52 192.475 54.304 192.827 54.144C193.187 53.984 193.607 53.904 194.087 53.904C194.519 53.904 194.903 53.952 195.239 54.048C195.583 54.144 195.919 54.308 196.247 54.54C196.375 54.636 196.439 54.744 196.439 54.864C196.439 54.944 196.399 55.036 196.319 55.14L196.163 55.332C196.075 55.444 195.967 55.5 195.839 55.5C195.743 55.5 195.651 55.468 195.563 55.404C195.299 55.228 195.055 55.108 194.831 55.044C194.607 54.972 194.355 54.936 194.075 54.936C193.731 54.936 193.455 55.004 193.247 55.14C193.039 55.276 192.935 55.452 192.935 55.668C192.935 55.812 192.983 55.928 193.079 56.016C193.183 56.096 193.327 56.168 193.511 56.232C193.703 56.288 194.003 56.36 194.411 56.448C194.963 56.568 195.399 56.704 195.719 56.856C196.047 57 196.287 57.188 196.439 57.42C196.599 57.644 196.679 57.936 196.679 58.296C196.679 58.856 196.455 59.312 196.007 59.664C195.567 60.008 194.975 60.18 194.231 60.18ZM202.011 58.488C202.115 58.4 202.215 58.356 202.311 58.356C202.407 58.356 202.507 58.408 202.611 58.512L202.779 58.692C202.867 58.796 202.911 58.896 202.911 58.992C202.911 59.096 202.859 59.196 202.755 59.292C202.387 59.612 202.019 59.84 201.651 59.976C201.291 60.112 200.891 60.18 200.451 60.18C199.835 60.18 199.299 60.052 198.843 59.796C198.395 59.54 198.047 59.18 197.799 58.716C197.559 58.244 197.439 57.7 197.439 57.084C197.439 56.476 197.555 55.932 197.787 55.452C198.027 54.964 198.363 54.584 198.795 54.312C199.235 54.04 199.747 53.904 200.331 53.904C201.203 53.904 201.875 54.164 202.347 54.684C202.819 55.196 203.055 55.904 203.055 56.808V56.916C203.047 57.044 203.007 57.144 202.935 57.216C202.863 57.288 202.759 57.324 202.623 57.324H198.687C198.735 57.852 198.907 58.284 199.203 58.62C199.507 58.948 199.931 59.112 200.475 59.112C200.771 59.112 201.031 59.068 201.255 58.98C201.479 58.884 201.731 58.72 202.011 58.488ZM200.307 54.912C199.867 54.912 199.511 55.044 199.239 55.308C198.975 55.564 198.803 55.928 198.723 56.4H201.807C201.775 55.936 201.631 55.572 201.375 55.308C201.119 55.044 200.763 54.912 200.307 54.912ZM206.884 54.024C207.06 54.024 207.24 54.044 207.424 54.084C207.64 54.132 207.748 54.26 207.748 54.468C207.748 54.524 207.744 54.564 207.736 54.588L207.676 54.876C207.628 55.1 207.508 55.212 207.316 55.212L207.208 55.2C207.064 55.176 206.936 55.164 206.824 55.164C206.424 55.164 206.1 55.324 205.852 55.644C205.612 55.956 205.492 56.392 205.492 56.952V59.58C205.492 59.708 205.456 59.812 205.384 59.892C205.312 59.964 205.208 60 205.072 60H204.64C204.512 60 204.408 59.964 204.328 59.892C204.256 59.812 204.22 59.708 204.22 59.58V54.504C204.22 54.368 204.256 54.264 204.328 54.192C204.408 54.12 204.512 54.084 204.64 54.084H204.988C205.124 54.084 205.228 54.12 205.3 54.192C205.372 54.264 205.408 54.368 205.408 54.504V54.972C205.552 54.676 205.748 54.444 205.996 54.276C206.244 54.108 206.54 54.024 206.884 54.024Z" fill="#0063FB"/>
<rect x="124" y="40" width="96" height="32" rx="8" stroke="#C3CCD9" stroke-width="2"/>
<path d="M138.5 112H149.5" stroke="#0063FB" stroke-width="1.5" stroke-linecap="round" stroke-linejoin="round"/>
<path d="M144 106.5V117.5" stroke="#0063FB" stroke-width="1.5" stroke-linecap="round" stroke-linejoin="round"/>
<path d="M167.044 116C166.804 116 166.644 115.888 166.564 115.664L166 114.044H162.232L161.668 115.664C161.588 115.888 161.428 116 161.188 116H160.684C160.564 116 160.468 115.976 160.396 115.928C160.332 115.872 160.3 115.796 160.3 115.7C160.3 115.652 160.312 115.592 160.336 115.52L163.12 107.816C163.2 107.592 163.36 107.48 163.6 107.48H164.668C164.908 107.48 165.068 107.592 165.148 107.816L167.932 115.52C167.956 115.592 167.968 115.652 167.968 115.7C167.968 115.796 167.932 115.872 167.86 115.928C167.796 115.976 167.704 116 167.584 116H167.044ZM165.616 112.904L165.244 111.848C165.236 111.832 165.148 111.58 164.98 111.092C164.556 109.892 164.268 109.036 164.116 108.524C163.884 109.26 163.576 110.172 163.192 111.26L162.988 111.86L162.628 112.904H165.616ZM173.111 107.888C173.111 107.752 173.147 107.648 173.219 107.576C173.299 107.504 173.403 107.468 173.531 107.468H173.963C174.099 107.468 174.203 107.504 174.275 107.576C174.347 107.648 174.383 107.752 174.383 107.888V115.58C174.383 115.708 174.347 115.812 174.275 115.892C174.203 115.964 174.099 116 173.963 116H173.615C173.487 116 173.383 115.964 173.303 115.892C173.231 115.812 173.195 115.708 173.195 115.58V115.16C172.779 115.832 172.127 116.168 171.239 116.168C170.743 116.168 170.295 116.04 169.895 115.784C169.503 115.528 169.195 115.164 168.971 114.692C168.747 114.22 168.635 113.672 168.635 113.048C168.635 112.432 168.747 111.888 168.971 111.416C169.203 110.944 169.519 110.58 169.919 110.324C170.319 110.068 170.767 109.94 171.263 109.94C172.079 109.94 172.695 110.224 173.111 110.792V107.888ZM171.503 115.076C171.991 115.076 172.391 114.896 172.703 114.536C173.015 114.168 173.171 113.672 173.171 113.048C173.171 112.424 173.015 111.932 172.703 111.572C172.391 111.212 171.991 111.032 171.503 111.032C171.031 111.032 170.651 111.216 170.363 111.584C170.075 111.952 169.931 112.44 169.931 113.048C169.931 113.664 170.071 114.156 170.351 114.524C170.639 114.892 171.023 115.076 171.503 115.076ZM180.025 107.888C180.025 107.752 180.061 107.648 180.133 107.576C180.213 107.504 180.317 107.468 180.445 107.468H180.877C181.013 107.468 181.117 107.504 181.189 107.576C181.261 107.648 181.297 107.752 181.297 107.888V115.58C181.297 115.708 181.261 115.812 181.189 115.892C181.117 115.964 181.013 116 180.877 116H180.529C180.401 116 180.297 115.964 180.217 115.892C180.145 115.812 180.109 115.708 180.109 115.58V115.16C179.693 115.832 179.041 116.168 178.153 116.168C177.657 116.168 177.209 116.04 176.809 115.784C176.417 115.528 176.109 115.164 175.885 114.692C175.661 114.22 175.549 113.672 175.549 113.048C175.549 112.432 175.661 111.888 175.885 111.416C176.117 110.944 176.433 110.58 176.833 110.324C177.233 110.068 177.681 109.94 178.177 109.94C178.993 109.94 179.609 110.224 180.025 110.792V107.888ZM178.417 115.076C178.905 115.076 179.305 114.896 179.617 114.536C179.929 114.168 180.085 113.672 180.085 113.048C180.085 112.424 179.929 111.932 179.617 111.572C179.305 111.212 178.905 111.032 178.417 111.032C177.945 111.032 177.565 111.216 177.277 111.584C176.989 111.952 176.845 112.44 176.845 113.048C176.845 113.664 176.985 114.156 177.265 114.524C177.553 114.892 177.937 115.076 178.417 115.076ZM189.215 110.504C189.215 110.368 189.251 110.264 189.323 110.192C189.403 110.12 189.507 110.084 189.635 110.084H190.067C190.203 110.084 190.307 110.12 190.379 110.192C190.451 110.264 190.487 110.368 190.487 110.504V115.58C190.487 115.708 190.451 115.812 190.379 115.892C190.307 115.964 190.203 116 190.067 116H189.743C189.615 116 189.511 115.964 189.431 115.892C189.359 115.812 189.323 115.708 189.323 115.58V115.304C189.163 115.576 188.931 115.792 188.627 115.952C188.323 116.104 187.963 116.18 187.547 116.18C186.843 116.18 186.319 116.008 185.975 115.664C185.631 115.312 185.459 114.848 185.459 114.272V110.504C185.459 110.368 185.495 110.264 185.567 110.192C185.647 110.12 185.751 110.084 185.879 110.084H186.311C186.447 110.084 186.551 110.12 186.623 110.192C186.695 110.264 186.731 110.368 186.731 110.504V113.936C186.731 114.304 186.823 114.588 187.007 114.788C187.199 114.98 187.475 115.076 187.835 115.076C188.251 115.076 188.583 114.956 188.831 114.716C189.087 114.476 189.215 114.128 189.215 113.672V110.504ZM194.231 116.18C193.743 116.18 193.307 116.12 192.923 116C192.547 115.872 192.163 115.652 191.771 115.34C191.651 115.252 191.591 115.152 191.591 115.04C191.591 114.952 191.635 114.856 191.723 114.752L191.903 114.548C191.999 114.436 192.103 114.38 192.215 114.38C192.303 114.38 192.399 114.42 192.503 114.5C192.839 114.748 193.135 114.92 193.391 115.016C193.647 115.104 193.935 115.148 194.255 115.148C194.599 115.148 194.879 115.08 195.095 114.944C195.319 114.8 195.431 114.608 195.431 114.368C195.431 114.184 195.367 114.04 195.239 113.936C195.119 113.824 194.959 113.74 194.759 113.684C194.559 113.62 194.263 113.548 193.871 113.468C193.319 113.348 192.887 113.22 192.575 113.084C192.271 112.94 192.051 112.76 191.915 112.544C191.779 112.328 191.711 112.052 191.711 111.716C191.711 111.372 191.807 111.064 191.999 110.792C192.199 110.52 192.475 110.304 192.827 110.144C193.187 109.984 193.607 109.904 194.087 109.904C194.519 109.904 194.903 109.952 195.239 110.048C195.583 110.144 195.919 110.308 196.247 110.54C196.375 110.636 196.439 110.744 196.439 110.864C196.439 110.944 196.399 111.036 196.319 111.14L196.163 111.332C196.075 111.444 195.967 111.5 195.839 111.5C195.743 111.5 195.651 111.468 195.563 111.404C195.299 111.228 195.055 111.108 194.831 111.044C194.607 110.972 194.355 110.936 194.075 110.936C193.731 110.936 193.455 111.004 193.247 111.14C193.039 111.276 192.935 111.452 192.935 111.668C192.935 111.812 192.983 111.928 193.079 112.016C193.183 112.096 193.327 112.168 193.511 112.232C193.703 112.288 194.003 112.36 194.411 112.448C194.963 112.568 195.399 112.704 195.719 112.856C196.047 113 196.287 113.188 196.439 113.42C196.599 113.644 196.679 113.936 196.679 114.296C196.679 114.856 196.455 115.312 196.007 115.664C195.567 116.008 194.975 116.18 194.231 116.18ZM202.011 114.488C202.115 114.4 202.215 114.356 202.311 114.356C202.407 114.356 202.507 114.408 202.611 114.512L202.779 114.692C202.867 114.796 202.911 114.896 202.911 114.992C202.911 115.096 202.859 115.196 202.755 115.292C202.387 115.612 202.019 115.84 201.651 115.976C201.291 116.112 200.891 116.18 200.451 116.18C199.835 116.18 199.299 116.052 198.843 115.796C198.395 115.54 198.047 115.18 197.799 114.716C197.559 114.244 197.439 113.7 197.439 113.084C197.439 112.476 197.555 111.932 197.787 111.452C198.027 110.964 198.363 110.584 198.795 110.312C199.235 110.04 199.747 109.904 200.331 109.904C201.203 109.904 201.875 110.164 202.347 110.684C202.819 111.196 203.055 111.904 203.055 112.808V112.916C203.047 113.044 203.007 113.144 202.935 113.216C202.863 113.288 202.759 113.324 202.623 113.324H198.687C198.735 113.852 198.907 114.284 199.203 114.62C199.507 114.948 199.931 115.112 200.475 115.112C200.771 115.112 201.031 115.068 201.255 114.98C201.479 114.884 201.731 114.72 202.011 114.488ZM200.307 110.912C199.867 110.912 199.511 111.044 199.239 111.308C198.975 111.564 198.803 111.928 198.723 112.4H201.807C201.775 111.936 201.631 111.572 201.375 111.308C201.119 111.044 200.763 110.912 200.307 110.912ZM206.884 110.024C207.06 110.024 207.24 110.044 207.424 110.084C207.64 110.132 207.748 110.26 207.748 110.468C207.748 110.524 207.744 110.564 207.736 110.588L207.676 110.876C207.628 111.1 207.508 111.212 207.316 111.212L207.208 111.2C207.064 111.176 206.936 111.164 206.824 111.164C206.424 111.164 206.1 111.324 205.852 111.644C205.612 111.956 205.492 112.392 205.492 112.952V115.58C205.492 115.708 205.456 115.812 205.384 115.892C205.312 115.964 205.208 116 205.072 116H204.64C204.512 116 204.408 115.964 204.328 115.892C204.256 115.812 204.22 115.708 204.22 115.58V110.504C204.22 110.368 204.256 110.264 204.328 110.192C204.408 110.12 204.512 110.084 204.64 110.084H204.988C205.124 110.084 205.228 110.12 205.3 110.192C205.372 110.264 205.408 110.368 205.408 110.504V110.972C205.552 110.676 205.748 110.444 205.996 110.276C206.244 110.108 206.54 110.024 206.884 110.024Z" fill="#0063FB"/>
</svg>
