<svg width="344" height="128" viewBox="0 0 344 128" fill="none" xmlns="http://www.w3.org/2000/svg">
<rect x="94" y="41" width="156" height="46" rx="7" fill="#0063FB"/>
<path d="M115.112 69.256C113.981 69.256 113 69 112.168 68.488C111.347 67.976 110.712 67.272 110.264 66.376C109.827 65.4693 109.608 64.4453 109.608 63.304C109.608 62.1627 109.827 61.1493 110.264 60.264C110.701 59.368 111.336 58.664 112.168 58.152C113 57.64 113.997 57.384 115.16 57.384C115.864 57.384 116.504 57.4853 117.08 57.688C117.656 57.88 118.237 58.2053 118.824 58.664C118.984 58.792 119.064 58.936 119.064 59.096C119.064 59.2027 119.011 59.3253 118.904 59.464L118.552 59.88C118.424 60.0293 118.291 60.104 118.152 60.104C118.045 60.104 117.912 60.0507 117.752 59.944C117.272 59.5707 116.829 59.3147 116.424 59.176C116.029 59.0373 115.603 58.968 115.144 58.968C114.397 58.968 113.747 59.1493 113.192 59.512C112.637 59.8747 112.211 60.3867 111.912 61.048C111.613 61.6987 111.464 62.4507 111.464 63.304C111.464 64.1573 111.613 64.9147 111.912 65.576C112.211 66.2373 112.632 66.7547 113.176 67.128C113.72 67.4907 114.355 67.672 115.08 67.672C115.624 67.672 116.109 67.576 116.536 67.384C116.963 67.192 117.427 66.8827 117.928 66.456C118.067 66.3387 118.2 66.28 118.328 66.28C118.467 66.28 118.6 66.3547 118.728 66.504L119.08 66.904C119.187 67.0213 119.24 67.144 119.24 67.272C119.24 67.4533 119.155 67.6133 118.984 67.752C118.365 68.2853 117.752 68.6693 117.144 68.904C116.547 69.1387 115.869 69.256 115.112 69.256ZM124.309 69.24C123.531 69.24 122.837 69.064 122.229 68.712C121.632 68.36 121.163 67.8693 120.821 67.24C120.48 66.6 120.309 65.8693 120.309 65.048C120.309 64.2267 120.48 63.5013 120.821 62.872C121.163 62.2427 121.632 61.752 122.229 61.4C122.837 61.048 123.531 60.872 124.309 60.872C125.077 60.872 125.765 61.048 126.373 61.4C126.981 61.752 127.456 62.248 127.797 62.888C128.139 63.5173 128.309 64.2373 128.309 65.048C128.309 65.8693 128.139 66.6 127.797 67.24C127.456 67.8693 126.981 68.36 126.373 68.712C125.765 69.064 125.077 69.24 124.309 69.24ZM124.309 67.816C124.992 67.816 125.541 67.5653 125.957 67.064C126.373 66.552 126.581 65.88 126.581 65.048C126.581 64.2267 126.373 63.5653 125.957 63.064C125.541 62.5627 124.992 62.312 124.309 62.312C123.627 62.312 123.077 62.5627 122.661 63.064C122.245 63.5653 122.037 64.2267 122.037 65.048C122.037 65.88 122.245 66.552 122.661 67.064C123.077 67.5653 123.627 67.816 124.309 67.816ZM133.82 60.872C134.727 60.872 135.42 61.128 135.9 61.64C136.391 62.1413 136.636 62.792 136.636 63.592V68.44C136.636 68.6107 136.588 68.7493 136.492 68.856C136.396 68.952 136.257 69 136.076 69H135.5C135.329 69 135.191 68.952 135.084 68.856C134.988 68.7493 134.94 68.6107 134.94 68.44V64.12C134.94 63.544 134.796 63.1013 134.508 62.792C134.231 62.4827 133.831 62.328 133.308 62.328C132.796 62.328 132.364 62.504 132.012 62.856C131.671 63.208 131.5 63.6507 131.5 64.184V68.44C131.5 68.6107 131.452 68.7493 131.356 68.856C131.26 68.952 131.121 69 130.94 69H130.364C130.193 69 130.055 68.952 129.948 68.856C129.852 68.7493 129.804 68.6107 129.804 68.44V61.672C129.804 61.4907 129.852 61.352 129.948 61.256C130.055 61.16 130.193 61.112 130.364 61.112H130.828C131.009 61.112 131.148 61.16 131.244 61.256C131.34 61.352 131.388 61.4907 131.388 61.672V62.088C131.644 61.6933 131.98 61.3947 132.396 61.192C132.812 60.9787 133.287 60.872 133.82 60.872ZM141.87 58.824C141.497 58.824 141.225 58.9147 141.054 59.096C140.883 59.2773 140.798 59.5867 140.798 60.024V61.112H142.094C142.275 61.112 142.414 61.16 142.51 61.256C142.606 61.352 142.654 61.4907 142.654 61.672V61.848C142.654 62.0187 142.606 62.1573 142.51 62.264C142.414 62.36 142.275 62.408 142.094 62.408H140.798V68.44C140.798 68.6107 140.75 68.7493 140.654 68.856C140.558 68.952 140.419 69 140.238 69H139.662C139.491 69 139.353 68.952 139.246 68.856C139.15 68.7493 139.102 68.6107 139.102 68.44V62.408H138.254C138.083 62.408 137.945 62.36 137.838 62.264C137.742 62.1573 137.694 62.0187 137.694 61.848V61.672C137.694 61.4907 137.742 61.352 137.838 61.256C137.945 61.16 138.083 61.112 138.254 61.112H139.102V59.912C139.102 59.0907 139.31 58.472 139.726 58.056C140.153 57.6293 140.766 57.416 141.566 57.416C141.929 57.416 142.297 57.4533 142.67 57.528C142.947 57.6027 143.086 57.7733 143.086 58.04C143.086 58.1147 143.081 58.1733 143.07 58.216L143.022 58.44C142.958 58.7173 142.75 58.856 142.398 58.856L142.206 58.84C142.131 58.8293 142.019 58.824 141.87 58.824ZM144.793 59.576C144.484 59.576 144.222 59.4747 144.009 59.272C143.796 59.0587 143.689 58.808 143.689 58.52C143.689 58.2213 143.796 57.9707 144.009 57.768C144.222 57.5653 144.484 57.464 144.793 57.464C145.102 57.464 145.364 57.5653 145.577 57.768C145.79 57.9707 145.897 58.2213 145.897 58.52C145.897 58.808 145.79 59.0587 145.577 59.272C145.364 59.4747 145.102 59.576 144.793 59.576ZM144.489 69C144.318 69 144.18 68.952 144.073 68.856C143.977 68.7493 143.929 68.6107 143.929 68.44V61.672C143.929 61.4907 143.977 61.352 144.073 61.256C144.18 61.16 144.318 61.112 144.489 61.112H145.065C145.246 61.112 145.385 61.16 145.481 61.256C145.577 61.352 145.625 61.4907 145.625 61.672V68.44C145.625 68.6107 145.577 68.7493 145.481 68.856C145.385 68.952 145.246 69 145.065 69H144.489ZM151.137 61.032C151.372 61.032 151.612 61.0587 151.857 61.112C152.145 61.176 152.289 61.3467 152.289 61.624C152.289 61.6987 152.284 61.752 152.273 61.784L152.193 62.168C152.129 62.4667 151.969 62.616 151.713 62.616L151.569 62.6C151.377 62.568 151.207 62.552 151.057 62.552C150.524 62.552 150.092 62.7653 149.761 63.192C149.441 63.608 149.281 64.1893 149.281 64.936V68.44C149.281 68.6107 149.233 68.7493 149.137 68.856C149.041 68.952 148.903 69 148.721 69H148.145C147.975 69 147.836 68.952 147.729 68.856C147.633 68.7493 147.585 68.6107 147.585 68.44V61.672C147.585 61.4907 147.633 61.352 147.729 61.256C147.836 61.16 147.975 61.112 148.145 61.112H148.609C148.791 61.112 148.929 61.16 149.025 61.256C149.121 61.352 149.169 61.4907 149.169 61.672V62.296C149.361 61.9013 149.623 61.592 149.953 61.368C150.284 61.144 150.679 61.032 151.137 61.032ZM161.987 60.872C162.83 60.872 163.48 61.112 163.939 61.592C164.398 62.0613 164.627 62.696 164.627 63.496V68.44C164.627 68.6107 164.579 68.7493 164.483 68.856C164.387 68.952 164.248 69 164.067 69H163.491C163.32 69 163.182 68.952 163.075 68.856C162.979 68.7493 162.931 68.6107 162.931 68.44V64.008C162.931 63.4853 162.814 63.0747 162.579 62.776C162.344 62.4773 161.987 62.328 161.507 62.328C161.016 62.328 160.627 62.4933 160.339 62.824C160.062 63.1547 159.923 63.5813 159.923 64.104V68.44C159.923 68.6107 159.875 68.7493 159.779 68.856C159.683 68.952 159.544 69 159.363 69H158.787C158.616 69 158.478 68.952 158.371 68.856C158.275 68.7493 158.227 68.6107 158.227 68.44V64.008C158.227 63.4853 158.11 63.0747 157.875 62.776C157.651 62.4773 157.299 62.328 156.819 62.328C156.35 62.328 155.971 62.4827 155.683 62.792C155.395 63.1013 155.24 63.5013 155.219 63.992V68.44C155.219 68.6107 155.171 68.7493 155.075 68.856C154.979 68.952 154.84 69 154.659 69H154.083C153.912 69 153.774 68.952 153.667 68.856C153.571 68.7493 153.523 68.6107 153.523 68.44V61.672C153.523 61.4907 153.571 61.352 153.667 61.256C153.774 61.16 153.912 61.112 154.083 61.112H154.547C154.728 61.112 154.867 61.16 154.963 61.256C155.059 61.352 155.107 61.4907 155.107 61.672V62.024C155.598 61.256 156.355 60.872 157.379 60.872C157.891 60.872 158.339 60.9787 158.723 61.192C159.107 61.4053 159.4 61.704 159.603 62.088C160.147 61.2773 160.942 60.872 161.987 60.872ZM174.34 60.904C175.012 60.904 175.609 61.0747 176.132 61.416C176.665 61.7573 177.081 62.2427 177.38 62.872C177.679 63.5013 177.828 64.2267 177.828 65.048C177.828 65.88 177.679 66.6107 177.38 67.24C177.081 67.8693 176.665 68.3547 176.132 68.696C175.599 69.0373 175.001 69.208 174.34 69.208C173.231 69.208 172.399 68.824 171.844 68.056V71.272C171.844 71.4533 171.796 71.592 171.7 71.688C171.604 71.784 171.465 71.832 171.284 71.832H170.708C170.537 71.832 170.399 71.784 170.292 71.688C170.196 71.592 170.148 71.4533 170.148 71.272V61.672C170.148 61.4907 170.196 61.352 170.292 61.256C170.399 61.16 170.537 61.112 170.708 61.112H171.172C171.353 61.112 171.492 61.16 171.588 61.256C171.684 61.352 171.732 61.4907 171.732 61.672V62.264C172.297 61.3573 173.167 60.904 174.34 60.904ZM173.988 67.736C174.628 67.736 175.14 67.496 175.524 67.016C175.908 66.5253 176.1 65.8693 176.1 65.048C176.1 64.2373 175.908 63.5867 175.524 63.096C175.151 62.6053 174.644 62.36 174.004 62.36C173.353 62.36 172.82 62.6 172.404 63.08C171.988 63.56 171.78 64.216 171.78 65.048C171.78 65.88 171.988 66.536 172.404 67.016C172.82 67.496 173.348 67.736 173.988 67.736ZM184.375 61.672C184.375 61.4907 184.423 61.352 184.519 61.256C184.625 61.16 184.764 61.112 184.935 61.112H185.511C185.692 61.112 185.831 61.16 185.927 61.256C186.023 61.352 186.071 61.4907 186.071 61.672V68.44C186.071 68.6107 186.023 68.7493 185.927 68.856C185.831 68.952 185.692 69 185.511 69H185.079C184.908 69 184.769 68.952 184.663 68.856C184.567 68.7493 184.519 68.6107 184.519 68.44V68.072C184.305 68.4347 183.996 68.7227 183.591 68.936C183.185 69.1387 182.705 69.24 182.151 69.24C181.212 69.24 180.513 69.0107 180.055 68.552C179.596 68.0827 179.367 67.464 179.367 66.696V61.672C179.367 61.4907 179.415 61.352 179.511 61.256C179.617 61.16 179.756 61.112 179.927 61.112H180.503C180.684 61.112 180.823 61.16 180.919 61.256C181.015 61.352 181.063 61.4907 181.063 61.672V66.248C181.063 66.7387 181.185 67.1173 181.431 67.384C181.687 67.64 182.055 67.768 182.535 67.768C183.089 67.768 183.532 67.608 183.863 67.288C184.204 66.968 184.375 66.504 184.375 65.896V61.672ZM191.575 61.032C191.81 61.032 192.05 61.0587 192.295 61.112C192.583 61.176 192.727 61.3467 192.727 61.624C192.727 61.6987 192.722 61.752 192.711 61.784L192.631 62.168C192.567 62.4667 192.407 62.616 192.151 62.616L192.007 62.6C191.815 62.568 191.644 62.552 191.495 62.552C190.962 62.552 190.53 62.7653 190.199 63.192C189.879 63.608 189.719 64.1893 189.719 64.936V68.44C189.719 68.6107 189.671 68.7493 189.575 68.856C189.479 68.952 189.34 69 189.159 69H188.583C188.412 69 188.274 68.952 188.167 68.856C188.071 68.7493 188.023 68.6107 188.023 68.44V61.672C188.023 61.4907 188.071 61.352 188.167 61.256C188.274 61.16 188.412 61.112 188.583 61.112H189.047C189.228 61.112 189.367 61.16 189.463 61.256C189.559 61.352 189.607 61.4907 189.607 61.672V62.296C189.799 61.9013 190.06 61.592 190.391 61.368C190.722 61.144 191.116 61.032 191.575 61.032ZM197.057 69.24C196.279 69.24 195.591 69.0693 194.993 68.728C194.407 68.3867 193.948 67.9013 193.617 67.272C193.297 66.632 193.137 65.8907 193.137 65.048C193.137 64.2053 193.303 63.4693 193.633 62.84C193.964 62.2107 194.428 61.7253 195.025 61.384C195.623 61.0427 196.311 60.872 197.089 60.872C197.655 60.872 198.161 60.9573 198.609 61.128C199.068 61.288 199.505 61.5653 199.921 61.96C200.049 62.088 200.113 62.2213 200.113 62.36C200.113 62.488 200.044 62.6213 199.905 62.76L199.633 63.032C199.516 63.1493 199.388 63.208 199.249 63.208C199.111 63.208 198.967 63.144 198.817 63.016C198.508 62.7493 198.215 62.568 197.937 62.472C197.671 62.3653 197.383 62.312 197.073 62.312C196.369 62.312 195.825 62.5733 195.441 63.096C195.057 63.6187 194.865 64.2693 194.865 65.048C194.865 65.8267 195.057 66.4827 195.441 67.016C195.825 67.5387 196.369 67.8 197.073 67.8C197.415 67.8 197.729 67.736 198.017 67.608C198.305 67.4693 198.615 67.24 198.945 66.92C199.084 66.7813 199.228 66.712 199.377 66.712C199.505 66.712 199.628 66.7653 199.745 66.872L200.017 67.096C200.156 67.2133 200.225 67.3467 200.225 67.496C200.225 67.656 200.145 67.8267 199.985 68.008C199.548 68.456 199.095 68.776 198.625 68.968C198.167 69.1493 197.644 69.24 197.057 69.24ZM205.664 60.872C206.571 60.872 207.264 61.128 207.744 61.64C208.235 62.1413 208.48 62.792 208.48 63.592V68.44C208.48 68.6107 208.432 68.7493 208.336 68.856C208.24 68.952 208.101 69 207.92 69H207.344C207.173 69 207.035 68.952 206.928 68.856C206.832 68.7493 206.784 68.6107 206.784 68.44V64.12C206.784 63.544 206.64 63.1013 206.352 62.792C206.075 62.4827 205.675 62.328 205.152 62.328C204.64 62.328 204.208 62.504 203.856 62.856C203.515 63.208 203.344 63.6507 203.344 64.184V68.44C203.344 68.6107 203.296 68.7493 203.2 68.856C203.104 68.952 202.965 69 202.784 69H202.208C202.037 69 201.899 68.952 201.792 68.856C201.696 68.7493 201.648 68.6107 201.648 68.44V58.2C201.648 58.0187 201.696 57.88 201.792 57.784C201.899 57.688 202.037 57.64 202.208 57.64H202.784C202.965 57.64 203.104 57.688 203.2 57.784C203.296 57.88 203.344 58.0187 203.344 58.2V61.928C203.6 61.5867 203.925 61.3253 204.32 61.144C204.725 60.9627 205.173 60.872 205.664 60.872ZM213.757 60.872C214.824 60.872 215.645 61.1227 216.221 61.624C216.797 62.1147 217.085 62.7707 217.085 63.592V68.44C217.085 68.6107 217.037 68.7493 216.941 68.856C216.845 68.952 216.706 69 216.525 69H216.109C215.938 69 215.8 68.952 215.693 68.856C215.597 68.7493 215.549 68.6107 215.549 68.44V68.088C215.293 68.4613 214.941 68.7493 214.493 68.952C214.045 69.1547 213.522 69.256 212.925 69.256C212.104 69.256 211.426 69.0747 210.893 68.712C210.37 68.3387 210.109 67.7787 210.109 67.032C210.109 66.2 210.418 65.5867 211.037 65.192C211.666 64.7867 212.536 64.4827 213.645 64.28L215.453 63.944V63.656C215.453 63.2187 215.298 62.8827 214.989 62.648C214.69 62.4027 214.29 62.28 213.789 62.28C213.362 62.28 212.989 62.3547 212.669 62.504C212.36 62.6427 212.024 62.8773 211.661 63.208C211.522 63.3253 211.389 63.384 211.261 63.384C211.133 63.384 211 63.3253 210.861 63.208L210.605 62.984C210.466 62.856 210.397 62.7173 210.397 62.568C210.397 62.4293 210.461 62.296 210.589 62.168C211.048 61.7307 211.533 61.4053 212.045 61.192C212.557 60.9787 213.128 60.872 213.757 60.872ZM213.165 67.896C213.805 67.896 214.344 67.7253 214.781 67.384C215.229 67.0427 215.453 66.552 215.453 65.912V65.176L214.061 65.464C213.282 65.624 212.706 65.8053 212.333 66.008C211.96 66.2107 211.773 66.52 211.773 66.936C211.773 67.2347 211.896 67.4693 212.141 67.64C212.386 67.8107 212.728 67.896 213.165 67.896ZM222.063 69.24C221.412 69.24 220.831 69.16 220.319 69C219.818 68.8293 219.306 68.536 218.783 68.12C218.623 68.0027 218.543 67.8693 218.543 67.72C218.543 67.6027 218.602 67.4747 218.719 67.336L218.959 67.064C219.087 66.9147 219.226 66.84 219.375 66.84C219.492 66.84 219.62 66.8933 219.759 67C220.207 67.3307 220.602 67.56 220.943 67.688C221.284 67.8053 221.668 67.864 222.095 67.864C222.554 67.864 222.927 67.7733 223.215 67.592C223.514 67.4 223.663 67.144 223.663 66.824C223.663 66.5787 223.578 66.3867 223.407 66.248C223.247 66.0987 223.034 65.9867 222.767 65.912C222.5 65.8267 222.106 65.7307 221.583 65.624C220.847 65.464 220.271 65.2933 219.855 65.112C219.45 64.92 219.156 64.68 218.975 64.392C218.794 64.104 218.703 63.736 218.703 63.288C218.703 62.8293 218.831 62.4187 219.087 62.056C219.354 61.6933 219.722 61.4053 220.191 61.192C220.671 60.9787 221.231 60.872 221.871 60.872C222.447 60.872 222.959 60.936 223.407 61.064C223.866 61.192 224.314 61.4107 224.751 61.72C224.922 61.848 225.007 61.992 225.007 62.152C225.007 62.2587 224.954 62.3813 224.847 62.52L224.639 62.776C224.522 62.9253 224.378 63 224.207 63C224.079 63 223.956 62.9573 223.839 62.872C223.487 62.6373 223.162 62.4773 222.863 62.392C222.564 62.296 222.228 62.248 221.855 62.248C221.396 62.248 221.028 62.3387 220.751 62.52C220.474 62.7013 220.335 62.936 220.335 63.224C220.335 63.416 220.399 63.5707 220.527 63.688C220.666 63.7947 220.858 63.8907 221.103 63.976C221.359 64.0507 221.759 64.1467 222.303 64.264C223.039 64.424 223.62 64.6053 224.047 64.808C224.484 65 224.804 65.2507 225.007 65.56C225.22 65.8587 225.327 66.248 225.327 66.728C225.327 67.4747 225.028 68.0827 224.431 68.552C223.844 69.0107 223.055 69.24 222.063 69.24ZM232.437 66.984C232.575 66.8667 232.709 66.808 232.837 66.808C232.965 66.808 233.098 66.8773 233.237 67.016L233.461 67.256C233.578 67.3947 233.637 67.528 233.637 67.656C233.637 67.7947 233.567 67.928 233.429 68.056C232.938 68.4827 232.447 68.7867 231.957 68.968C231.477 69.1493 230.943 69.24 230.357 69.24C229.535 69.24 228.821 69.0693 228.213 68.728C227.615 68.3867 227.151 67.9067 226.821 67.288C226.501 66.6587 226.34 65.9333 226.34 65.112C226.34 64.3013 226.495 63.576 226.805 62.936C227.125 62.2853 227.573 61.7787 228.149 61.416C228.735 61.0533 229.418 60.872 230.197 60.872C231.359 60.872 232.255 61.2187 232.885 61.912C233.514 62.5947 233.829 63.5387 233.829 64.744V64.888C233.818 65.0587 233.765 65.192 233.669 65.288C233.573 65.384 233.434 65.432 233.253 65.432H228.005C228.069 66.136 228.298 66.712 228.693 67.16C229.098 67.5973 229.663 67.816 230.389 67.816C230.783 67.816 231.13 67.7573 231.429 67.64C231.727 67.512 232.063 67.2933 232.437 66.984ZM230.165 62.216C229.578 62.216 229.103 62.392 228.741 62.744C228.389 63.0853 228.159 63.5707 228.053 64.2H232.165C232.122 63.5813 231.93 63.096 231.589 62.744C231.247 62.392 230.773 62.216 230.165 62.216Z" fill="white"/>
<rect x="94" y="41" width="156" height="46" rx="7" stroke="#0063FB" stroke-width="2"/>
</svg>
