<svg width="344" height="272" viewBox="0 0 344 272" fill="none" xmlns="http://www.w3.org/2000/svg">
<rect x="104" y="41" width="136" height="46" rx="7" fill="#0063FB"/>
<path d="M125.368 64.424C125.197 64.424 125.059 64.376 124.952 64.28C124.856 64.1733 124.808 64.0347 124.808 63.864V63.448C124.808 63.2667 124.856 63.128 124.952 63.032C125.059 62.936 125.197 62.888 125.368 62.888H129.384C129.565 62.888 129.704 62.936 129.8 63.032C129.896 63.128 129.944 63.2667 129.944 63.448V68.44C129.944 68.6107 129.896 68.7493 129.8 68.856C129.704 68.952 129.565 69 129.384 69H129.048C128.696 69 128.504 68.824 128.472 68.472L128.408 67.752C127.725 68.744 126.595 69.24 125.016 69.24C123.885 69.24 122.915 68.9893 122.104 68.488C121.293 67.9867 120.675 67.288 120.248 66.392C119.821 65.496 119.608 64.4667 119.608 63.304C119.608 62.1733 119.832 61.16 120.28 60.264C120.728 59.368 121.373 58.6693 122.216 58.168C123.059 57.656 124.056 57.4 125.208 57.4C126.072 57.4 126.845 57.5387 127.528 57.816C128.211 58.0827 128.883 58.52 129.544 59.128C129.683 59.256 129.752 59.3893 129.752 59.528C129.752 59.6667 129.688 59.8 129.56 59.928L129.176 60.312C129.037 60.4507 128.904 60.52 128.776 60.52C128.637 60.52 128.504 60.456 128.376 60.328C127.821 59.848 127.304 59.5067 126.824 59.304C126.344 59.0907 125.8 58.984 125.192 58.984C124.456 58.984 123.805 59.16 123.24 59.512C122.685 59.864 122.248 60.3653 121.928 61.016C121.619 61.6667 121.464 62.4347 121.464 63.32C121.464 64.216 121.613 64.9893 121.912 65.64C122.211 66.2907 122.632 66.792 123.176 67.144C123.731 67.4853 124.381 67.656 125.128 67.656C126.077 67.656 126.835 67.4 127.4 66.888C127.976 66.3653 128.264 65.656 128.264 64.76V64.424H125.368ZM132.745 69C132.574 69 132.436 68.952 132.329 68.856C132.233 68.7493 132.185 68.6107 132.185 68.44V58.2C132.185 58.0187 132.233 57.88 132.329 57.784C132.436 57.688 132.574 57.64 132.745 57.64H139.385C139.566 57.64 139.705 57.688 139.801 57.784C139.897 57.88 139.945 58.0187 139.945 58.2V58.616C139.945 58.7867 139.897 58.9253 139.801 59.032C139.705 59.128 139.566 59.176 139.385 59.176H134.009V62.376H138.985C139.166 62.376 139.305 62.424 139.401 62.52C139.497 62.616 139.545 62.7547 139.545 62.936V63.352C139.545 63.5227 139.497 63.6613 139.401 63.768C139.305 63.864 139.166 63.912 138.985 63.912H134.009V67.464H139.545C139.726 67.464 139.865 67.512 139.961 67.608C140.057 67.704 140.105 67.8427 140.105 68.024V68.44C140.105 68.6107 140.057 68.7493 139.961 68.856C139.865 68.952 139.726 69 139.545 69H132.745ZM145.324 69C145.153 69 145.014 68.952 144.908 68.856C144.812 68.7493 144.764 68.6107 144.764 68.44V59.192H141.852C141.681 59.192 141.542 59.144 141.436 59.048C141.34 58.9413 141.292 58.8027 141.292 58.632V58.2C141.292 58.0187 141.34 57.88 141.436 57.784C141.542 57.688 141.681 57.64 141.852 57.64H149.484C149.665 57.64 149.804 57.688 149.9 57.784C149.996 57.88 150.044 58.0187 150.044 58.2V58.632C150.044 58.8027 149.996 58.9413 149.9 59.048C149.804 59.144 149.665 59.192 149.484 59.192H146.588V68.44C146.588 68.6107 146.54 68.7493 146.444 68.856C146.348 68.952 146.209 69 146.028 69H145.324ZM159.138 69.256C158.264 69.256 157.48 69.1333 156.786 68.888C156.104 68.632 155.4 68.2053 154.674 67.608C154.525 67.4907 154.45 67.352 154.45 67.192C154.45 67.0533 154.504 66.9253 154.61 66.808L154.978 66.376C155.096 66.2267 155.229 66.152 155.378 66.152C155.496 66.152 155.629 66.2107 155.778 66.328C156.418 66.84 156.989 67.192 157.49 67.384C158.002 67.576 158.562 67.672 159.17 67.672C159.906 67.672 160.504 67.5067 160.962 67.176C161.421 66.8347 161.65 66.3707 161.65 65.784C161.65 65.4 161.533 65.1013 161.298 64.888C161.064 64.664 160.76 64.4933 160.386 64.376C160.024 64.2587 159.432 64.104 158.61 63.912C157.618 63.6773 156.845 63.4213 156.29 63.144C155.736 62.8667 155.336 62.536 155.09 62.152C154.856 61.7573 154.738 61.2613 154.738 60.664C154.738 60.0347 154.92 59.4693 155.282 58.968C155.645 58.4667 156.141 58.0773 156.77 57.8C157.41 57.5227 158.125 57.384 158.914 57.384C159.714 57.384 160.418 57.4907 161.026 57.704C161.645 57.9173 162.264 58.264 162.882 58.744C163.042 58.872 163.122 59.0053 163.122 59.144C163.122 59.2613 163.069 59.3893 162.962 59.528L162.61 59.944C162.482 60.0933 162.349 60.168 162.21 60.168C162.082 60.168 161.949 60.1147 161.81 60.008C161.298 59.6133 160.824 59.3413 160.386 59.192C159.949 59.0427 159.453 58.968 158.898 58.968C158.194 58.968 157.624 59.1227 157.186 59.432C156.749 59.7413 156.53 60.1307 156.53 60.6C156.53 60.9413 156.632 61.2133 156.834 61.416C157.037 61.6187 157.33 61.784 157.714 61.912C158.098 62.04 158.69 62.1947 159.49 62.376C160.461 62.6107 161.229 62.8613 161.794 63.128C162.36 63.384 162.781 63.7147 163.058 64.12C163.336 64.5253 163.474 65.0427 163.474 65.672C163.474 66.376 163.293 67 162.93 67.544C162.568 68.088 162.061 68.5093 161.41 68.808C160.76 69.1067 160.002 69.256 159.138 69.256ZM168.464 69C168.294 69 168.155 68.952 168.048 68.856C167.952 68.7493 167.904 68.6107 167.904 68.44V59.192H164.992C164.822 59.192 164.683 59.144 164.576 59.048C164.48 58.9413 164.432 58.8027 164.432 58.632V58.2C164.432 58.0187 164.48 57.88 164.576 57.784C164.683 57.688 164.822 57.64 164.992 57.64H172.624C172.806 57.64 172.944 57.688 173.04 57.784C173.136 57.88 173.184 58.0187 173.184 58.2V58.632C173.184 58.8027 173.136 58.9413 173.04 59.048C172.944 59.144 172.806 59.192 172.624 59.192H169.728V68.44C169.728 68.6107 169.68 68.7493 169.584 68.856C169.488 68.952 169.35 69 169.168 69H168.464ZM181.642 69C181.322 69 181.109 68.8507 181.002 68.552L180.25 66.392H175.226L174.474 68.552C174.367 68.8507 174.154 69 173.834 69H173.162C173.002 69 172.874 68.968 172.778 68.904C172.693 68.8293 172.65 68.728 172.65 68.6C172.65 68.536 172.666 68.456 172.698 68.36L176.41 58.088C176.517 57.7893 176.73 57.64 177.05 57.64H178.474C178.794 57.64 179.007 57.7893 179.114 58.088L182.826 68.36C182.858 68.456 182.874 68.536 182.874 68.6C182.874 68.728 182.826 68.8293 182.73 68.904C182.645 68.968 182.522 69 182.362 69H181.642ZM179.738 64.872L179.242 63.464C179.231 63.4427 179.114 63.1067 178.89 62.456C178.325 60.856 177.941 59.7147 177.738 59.032C177.429 60.0133 177.018 61.2293 176.506 62.68L176.234 63.48L175.754 64.872H179.738ZM193.233 68.328C193.308 68.4453 193.345 68.552 193.345 68.648C193.345 68.7547 193.303 68.84 193.217 68.904C193.132 68.968 193.015 69 192.865 69H192.065C191.767 69 191.543 68.8773 191.393 68.632L188.753 64.6H186.337V68.44C186.337 68.6107 186.289 68.7493 186.193 68.856C186.097 68.952 185.959 69 185.777 69H185.073C184.903 69 184.764 68.952 184.657 68.856C184.561 68.7493 184.513 68.6107 184.513 68.44V58.2C184.513 58.0187 184.561 57.88 184.657 57.784C184.764 57.688 184.903 57.64 185.073 57.64H189.553C190.268 57.64 190.908 57.784 191.473 58.072C192.039 58.3493 192.476 58.7547 192.785 59.288C193.105 59.8107 193.265 60.424 193.265 61.128C193.265 61.9813 193.031 62.7067 192.561 63.304C192.092 63.8907 191.463 64.28 190.673 64.472L193.233 68.328ZM186.337 63.08H189.249C189.932 63.08 190.471 62.9147 190.865 62.584C191.271 62.2427 191.473 61.7573 191.473 61.128C191.473 60.488 191.271 60.0027 190.865 59.672C190.471 59.3307 189.932 59.16 189.249 59.16H186.337V63.08ZM198.355 69C198.184 69 198.046 68.952 197.939 68.856C197.843 68.7493 197.795 68.6107 197.795 68.44V59.192H194.883C194.712 59.192 194.574 59.144 194.467 59.048C194.371 58.9413 194.323 58.8027 194.323 58.632V58.2C194.323 58.0187 194.371 57.88 194.467 57.784C194.574 57.688 194.712 57.64 194.883 57.64H202.515C202.696 57.64 202.835 57.688 202.931 57.784C203.027 57.88 203.075 58.0187 203.075 58.2V58.632C203.075 58.8027 203.027 58.9413 202.931 59.048C202.835 59.144 202.696 59.192 202.515 59.192H199.619V68.44C199.619 68.6107 199.571 68.7493 199.475 68.856C199.379 68.952 199.24 69 199.059 69H198.355ZM205.308 69C205.137 69 204.998 68.952 204.892 68.856C204.796 68.7493 204.748 68.6107 204.748 68.44V58.2C204.748 58.0187 204.796 57.88 204.892 57.784C204.998 57.688 205.137 57.64 205.308 57.64H211.948C212.129 57.64 212.268 57.688 212.364 57.784C212.46 57.88 212.508 58.0187 212.508 58.2V58.616C212.508 58.7867 212.46 58.9253 212.364 59.032C212.268 59.128 212.129 59.176 211.948 59.176H206.572V62.376H211.548C211.729 62.376 211.868 62.424 211.964 62.52C212.06 62.616 212.108 62.7547 212.108 62.936V63.352C212.108 63.5227 212.06 63.6613 211.964 63.768C211.868 63.864 211.729 63.912 211.548 63.912H206.572V67.464H212.108C212.289 67.464 212.428 67.512 212.524 67.608C212.62 67.704 212.668 67.8427 212.668 68.024V68.44C212.668 68.6107 212.62 68.7493 212.524 68.856C212.428 68.952 212.289 69 212.108 69H205.308ZM215.198 69C215.028 69 214.889 68.952 214.782 68.856C214.686 68.7493 214.638 68.6107 214.638 68.44V58.2C214.638 58.0187 214.686 57.88 214.782 57.784C214.889 57.688 215.028 57.64 215.198 57.64H219.054C220.121 57.64 221.033 57.88 221.79 58.36C222.558 58.84 223.14 59.512 223.534 60.376C223.94 61.2293 224.142 62.2107 224.142 63.32C224.142 64.4293 223.94 65.416 223.534 66.28C223.14 67.1333 222.558 67.8 221.79 68.28C221.033 68.76 220.121 69 219.054 69H215.198ZM218.782 67.464C219.87 67.464 220.724 67.1067 221.342 66.392C221.972 65.6667 222.286 64.6427 222.286 63.32C222.286 61.9973 221.972 60.9787 221.342 60.264C220.724 59.5387 219.87 59.176 218.782 59.176H216.462V67.464H218.782Z" fill="white"/>
<rect x="104" y="41" width="136" height="46" rx="7" stroke="#0063FB" stroke-width="2"/>
<rect x="118" y="113" width="109" height="46" rx="7" fill="#0063FB"/>
<path d="M139.528 133.624C139.528 133.464 139.576 133.341 139.672 133.256C139.779 133.16 139.917 133.112 140.088 133.112H140.536C140.717 133.112 140.856 133.16 140.952 133.256C141.048 133.352 141.096 133.491 141.096 133.672V140.712C141.096 141.768 140.755 142.589 140.072 143.176C139.4 143.763 138.504 144.056 137.384 144.056C136.264 144.056 135.208 143.768 134.216 143.192C134.013 143.085 133.912 142.941 133.912 142.76C133.912 142.664 133.955 142.547 134.04 142.408L134.248 142.104C134.365 141.923 134.509 141.832 134.68 141.832C134.797 141.832 134.915 141.869 135.032 141.944C135.459 142.189 135.853 142.365 136.216 142.472C136.579 142.589 136.963 142.648 137.368 142.648C137.987 142.648 138.483 142.477 138.856 142.136C139.24 141.805 139.432 141.283 139.432 140.568V139.72C138.899 140.477 138.099 140.856 137.032 140.856C136.371 140.856 135.773 140.691 135.24 140.36C134.717 140.019 134.307 139.549 134.008 138.952C133.72 138.344 133.576 137.651 133.576 136.872C133.576 136.093 133.72 135.405 134.008 134.808C134.307 134.2 134.717 133.725 135.24 133.384C135.773 133.043 136.371 132.872 137.032 132.872C138.163 132.872 138.995 133.293 139.528 134.136V133.624ZM137.368 139.432C137.987 139.432 138.493 139.197 138.888 138.728C139.283 138.248 139.48 137.629 139.48 136.872C139.48 136.125 139.283 135.517 138.888 135.048C138.504 134.568 137.997 134.328 137.368 134.328C136.728 134.328 136.221 134.563 135.848 135.032C135.475 135.501 135.288 136.115 135.288 136.872C135.288 137.64 135.475 138.259 135.848 138.728C136.221 139.197 136.728 139.432 137.368 139.432ZM148.702 138.984C148.841 138.867 148.974 138.808 149.102 138.808C149.23 138.808 149.363 138.877 149.502 139.016L149.726 139.256C149.843 139.395 149.902 139.528 149.902 139.656C149.902 139.795 149.833 139.928 149.694 140.056C149.203 140.483 148.713 140.787 148.222 140.968C147.742 141.149 147.209 141.24 146.622 141.24C145.801 141.24 145.086 141.069 144.478 140.728C143.881 140.387 143.417 139.907 143.086 139.288C142.766 138.659 142.606 137.933 142.606 137.112C142.606 136.301 142.761 135.576 143.07 134.936C143.39 134.285 143.838 133.779 144.414 133.416C145.001 133.053 145.683 132.872 146.462 132.872C147.625 132.872 148.521 133.219 149.15 133.912C149.779 134.595 150.094 135.539 150.094 136.744V136.888C150.083 137.059 150.03 137.192 149.934 137.288C149.838 137.384 149.699 137.432 149.518 137.432H144.27C144.334 138.136 144.563 138.712 144.958 139.16C145.363 139.597 145.929 139.816 146.654 139.816C147.049 139.816 147.395 139.757 147.694 139.64C147.993 139.512 148.329 139.293 148.702 138.984ZM146.43 134.216C145.843 134.216 145.369 134.392 145.006 134.744C144.654 135.085 144.425 135.571 144.318 136.2H148.43C148.387 135.581 148.195 135.096 147.854 134.744C147.513 134.392 147.038 134.216 146.43 134.216ZM155.362 139.656C155.394 139.645 155.442 139.64 155.506 139.64C155.773 139.64 155.933 139.795 155.986 140.104L156.034 140.36C156.045 140.392 156.05 140.445 156.05 140.52C156.05 140.787 155.901 140.957 155.602 141.032C155.175 141.128 154.786 141.176 154.434 141.176C153.677 141.176 153.127 141 152.786 140.648C152.455 140.296 152.29 139.768 152.29 139.064V134.408H151.41C151.239 134.408 151.101 134.36 150.994 134.264C150.898 134.157 150.85 134.019 150.85 133.848V133.672C150.85 133.491 150.898 133.352 150.994 133.256C151.101 133.16 151.239 133.112 151.41 133.112H152.29V131.128C152.29 130.947 152.338 130.808 152.434 130.712C152.541 130.616 152.679 130.568 152.85 130.568H153.426C153.607 130.568 153.746 130.616 153.842 130.712C153.938 130.808 153.986 130.947 153.986 131.128V133.112H155.426C155.607 133.112 155.746 133.16 155.842 133.256C155.938 133.352 155.986 133.491 155.986 133.672V133.848C155.986 134.019 155.938 134.157 155.842 134.264C155.746 134.36 155.607 134.408 155.426 134.408H153.986V138.856C153.986 139.165 154.05 139.384 154.178 139.512C154.317 139.64 154.535 139.704 154.834 139.704C154.962 139.704 155.138 139.688 155.362 139.656ZM164 141.24C163.35 141.24 162.768 141.16 162.256 141C161.755 140.829 161.243 140.536 160.72 140.12C160.56 140.003 160.48 139.869 160.48 139.72C160.48 139.603 160.539 139.475 160.656 139.336L160.896 139.064C161.024 138.915 161.163 138.84 161.312 138.84C161.43 138.84 161.558 138.893 161.696 139C162.144 139.331 162.539 139.56 162.88 139.688C163.222 139.805 163.606 139.864 164.032 139.864C164.491 139.864 164.864 139.773 165.152 139.592C165.451 139.4 165.6 139.144 165.6 138.824C165.6 138.579 165.515 138.387 165.344 138.248C165.184 138.099 164.971 137.987 164.704 137.912C164.438 137.827 164.043 137.731 163.52 137.624C162.784 137.464 162.208 137.293 161.792 137.112C161.387 136.92 161.094 136.68 160.912 136.392C160.731 136.104 160.64 135.736 160.64 135.288C160.64 134.829 160.768 134.419 161.024 134.056C161.291 133.693 161.659 133.405 162.128 133.192C162.608 132.979 163.168 132.872 163.808 132.872C164.384 132.872 164.896 132.936 165.344 133.064C165.803 133.192 166.251 133.411 166.688 133.72C166.859 133.848 166.944 133.992 166.944 134.152C166.944 134.259 166.891 134.381 166.784 134.52L166.576 134.776C166.459 134.925 166.315 135 166.144 135C166.016 135 165.894 134.957 165.776 134.872C165.424 134.637 165.099 134.477 164.8 134.392C164.502 134.296 164.166 134.248 163.792 134.248C163.334 134.248 162.966 134.339 162.688 134.52C162.411 134.701 162.272 134.936 162.272 135.224C162.272 135.416 162.336 135.571 162.464 135.688C162.603 135.795 162.795 135.891 163.04 135.976C163.296 136.051 163.696 136.147 164.24 136.264C164.976 136.424 165.558 136.605 165.984 136.808C166.422 137 166.742 137.251 166.944 137.56C167.158 137.859 167.264 138.248 167.264 138.728C167.264 139.475 166.966 140.083 166.368 140.552C165.782 141.011 164.992 141.24 164 141.24ZM172.503 139.656C172.535 139.645 172.583 139.64 172.647 139.64C172.913 139.64 173.073 139.795 173.127 140.104L173.175 140.36C173.185 140.392 173.191 140.445 173.191 140.52C173.191 140.787 173.041 140.957 172.743 141.032C172.316 141.128 171.927 141.176 171.575 141.176C170.817 141.176 170.268 141 169.927 140.648C169.596 140.296 169.431 139.768 169.431 139.064V134.408H168.551C168.38 134.408 168.241 134.36 168.135 134.264C168.039 134.157 167.991 134.019 167.991 133.848V133.672C167.991 133.491 168.039 133.352 168.135 133.256C168.241 133.16 168.38 133.112 168.551 133.112H169.431V131.128C169.431 130.947 169.479 130.808 169.575 130.712C169.681 130.616 169.82 130.568 169.991 130.568H170.567C170.748 130.568 170.887 130.616 170.983 130.712C171.079 130.808 171.127 130.947 171.127 131.128V133.112H172.567C172.748 133.112 172.887 133.16 172.983 133.256C173.079 133.352 173.127 133.491 173.127 133.672V133.848C173.127 134.019 173.079 134.157 172.983 134.264C172.887 134.36 172.748 134.408 172.567 134.408H171.127V138.856C171.127 139.165 171.191 139.384 171.319 139.512C171.457 139.64 171.676 139.704 171.975 139.704C172.103 139.704 172.279 139.688 172.503 139.656ZM177.867 132.872C178.933 132.872 179.755 133.123 180.331 133.624C180.907 134.115 181.195 134.771 181.195 135.592V140.44C181.195 140.611 181.147 140.749 181.051 140.856C180.955 140.952 180.816 141 180.635 141H180.219C180.048 141 179.909 140.952 179.803 140.856C179.707 140.749 179.659 140.611 179.659 140.44V140.088C179.403 140.461 179.051 140.749 178.603 140.952C178.155 141.155 177.632 141.256 177.035 141.256C176.213 141.256 175.536 141.075 175.003 140.712C174.48 140.339 174.219 139.779 174.219 139.032C174.219 138.2 174.528 137.587 175.147 137.192C175.776 136.787 176.645 136.483 177.755 136.28L179.563 135.944V135.656C179.563 135.219 179.408 134.883 179.099 134.648C178.8 134.403 178.4 134.28 177.899 134.28C177.472 134.28 177.099 134.355 176.779 134.504C176.469 134.643 176.133 134.877 175.771 135.208C175.632 135.325 175.499 135.384 175.371 135.384C175.243 135.384 175.109 135.325 174.971 135.208L174.715 134.984C174.576 134.856 174.507 134.717 174.507 134.568C174.507 134.429 174.571 134.296 174.699 134.168C175.157 133.731 175.643 133.405 176.155 133.192C176.667 132.979 177.237 132.872 177.867 132.872ZM177.275 139.896C177.915 139.896 178.453 139.725 178.891 139.384C179.339 139.043 179.563 138.552 179.563 137.912V137.176L178.171 137.464C177.392 137.624 176.816 137.805 176.443 138.008C176.069 138.211 175.883 138.52 175.883 138.936C175.883 139.235 176.005 139.469 176.251 139.64C176.496 139.811 176.837 139.896 177.275 139.896ZM186.684 133.032C186.919 133.032 187.159 133.059 187.404 133.112C187.692 133.176 187.836 133.347 187.836 133.624C187.836 133.699 187.831 133.752 187.82 133.784L187.74 134.168C187.676 134.467 187.516 134.616 187.26 134.616L187.116 134.6C186.924 134.568 186.754 134.552 186.604 134.552C186.071 134.552 185.639 134.765 185.308 135.192C184.988 135.608 184.828 136.189 184.828 136.936V140.44C184.828 140.611 184.78 140.749 184.684 140.856C184.588 140.952 184.45 141 184.268 141H183.692C183.522 141 183.383 140.952 183.276 140.856C183.18 140.749 183.132 140.611 183.132 140.44V133.672C183.132 133.491 183.18 133.352 183.276 133.256C183.383 133.16 183.522 133.112 183.692 133.112H184.156C184.338 133.112 184.476 133.16 184.572 133.256C184.668 133.352 184.716 133.491 184.716 133.672V134.296C184.908 133.901 185.17 133.592 185.5 133.368C185.831 133.144 186.226 133.032 186.684 133.032ZM193.065 139.656C193.097 139.645 193.145 139.64 193.209 139.64C193.476 139.64 193.636 139.795 193.689 140.104L193.737 140.36C193.748 140.392 193.753 140.445 193.753 140.52C193.753 140.787 193.604 140.957 193.305 141.032C192.879 141.128 192.489 141.176 192.137 141.176C191.38 141.176 190.831 141 190.489 140.648C190.159 140.296 189.993 139.768 189.993 139.064V134.408H189.113C188.943 134.408 188.804 134.36 188.697 134.264C188.601 134.157 188.553 134.019 188.553 133.848V133.672C188.553 133.491 188.601 133.352 188.697 133.256C188.804 133.16 188.943 133.112 189.113 133.112H189.993V131.128C189.993 130.947 190.041 130.808 190.137 130.712C190.244 130.616 190.383 130.568 190.553 130.568H191.129C191.311 130.568 191.449 130.616 191.545 130.712C191.641 130.808 191.689 130.947 191.689 131.128V133.112H193.129C193.311 133.112 193.449 133.16 193.545 133.256C193.641 133.352 193.689 133.491 193.689 133.672V133.848C193.689 134.019 193.641 134.157 193.545 134.264C193.449 134.36 193.311 134.408 193.129 134.408H191.689V138.856C191.689 139.165 191.753 139.384 191.881 139.512C192.02 139.64 192.239 139.704 192.537 139.704C192.665 139.704 192.841 139.688 193.065 139.656ZM200.483 138.984C200.622 138.867 200.755 138.808 200.883 138.808C201.011 138.808 201.145 138.877 201.283 139.016L201.507 139.256C201.625 139.395 201.683 139.528 201.683 139.656C201.683 139.795 201.614 139.928 201.475 140.056C200.985 140.483 200.494 140.787 200.003 140.968C199.523 141.149 198.99 141.24 198.403 141.24C197.582 141.24 196.867 141.069 196.259 140.728C195.662 140.387 195.198 139.907 194.867 139.288C194.547 138.659 194.387 137.933 194.387 137.112C194.387 136.301 194.542 135.576 194.851 134.936C195.171 134.285 195.619 133.779 196.195 133.416C196.782 133.053 197.465 132.872 198.243 132.872C199.406 132.872 200.302 133.219 200.931 133.912C201.561 134.595 201.875 135.539 201.875 136.744V136.888C201.865 137.059 201.811 137.192 201.715 137.288C201.619 137.384 201.481 137.432 201.299 137.432H196.051C196.115 138.136 196.345 138.712 196.739 139.16C197.145 139.597 197.71 139.816 198.435 139.816C198.83 139.816 199.177 139.757 199.475 139.64C199.774 139.512 200.11 139.293 200.483 138.984ZM198.211 134.216C197.625 134.216 197.15 134.392 196.787 134.744C196.435 135.085 196.206 135.571 196.099 136.2H200.211C200.169 135.581 199.977 135.096 199.635 134.744C199.294 134.392 198.819 134.216 198.211 134.216ZM209.012 130.184C209.012 130.003 209.06 129.864 209.156 129.768C209.263 129.672 209.402 129.624 209.572 129.624H210.148C210.33 129.624 210.468 129.672 210.564 129.768C210.66 129.864 210.708 130.003 210.708 130.184V140.44C210.708 140.611 210.66 140.749 210.564 140.856C210.468 140.952 210.33 141 210.148 141H209.684C209.514 141 209.375 140.952 209.268 140.856C209.172 140.749 209.124 140.611 209.124 140.44V139.88C208.57 140.776 207.7 141.224 206.516 141.224C205.855 141.224 205.258 141.053 204.724 140.712C204.202 140.371 203.791 139.885 203.492 139.256C203.194 138.627 203.044 137.896 203.044 137.064C203.044 136.243 203.194 135.517 203.492 134.888C203.802 134.259 204.223 133.773 204.756 133.432C205.29 133.091 205.887 132.92 206.548 132.92C207.636 132.92 208.458 133.299 209.012 134.056V130.184ZM206.868 139.768C207.519 139.768 208.052 139.528 208.468 139.048C208.884 138.557 209.092 137.896 209.092 137.064C209.092 136.232 208.884 135.576 208.468 135.096C208.052 134.616 207.519 134.376 206.868 134.376C206.239 134.376 205.732 134.621 205.348 135.112C204.964 135.603 204.772 136.253 204.772 137.064C204.772 137.885 204.959 138.541 205.332 139.032C205.716 139.523 206.228 139.768 206.868 139.768Z" fill="white"/>
<rect x="118" y="113" width="109" height="46" rx="7" stroke="#0063FB" stroke-width="2"/>
<rect x="115" y="185" width="114" height="46" rx="7" fill="#0063FB"/>
<path d="M136.368 208.424C136.197 208.424 136.059 208.376 135.952 208.28C135.856 208.173 135.808 208.035 135.808 207.864V207.448C135.808 207.267 135.856 207.128 135.952 207.032C136.059 206.936 136.197 206.888 136.368 206.888H140.384C140.565 206.888 140.704 206.936 140.8 207.032C140.896 207.128 140.944 207.267 140.944 207.448V212.44C140.944 212.611 140.896 212.749 140.8 212.856C140.704 212.952 140.565 213 140.384 213H140.048C139.696 213 139.504 212.824 139.472 212.472L139.408 211.752C138.725 212.744 137.595 213.24 136.016 213.24C134.885 213.24 133.915 212.989 133.104 212.488C132.293 211.987 131.675 211.288 131.248 210.392C130.821 209.496 130.608 208.467 130.608 207.304C130.608 206.173 130.832 205.16 131.28 204.264C131.728 203.368 132.373 202.669 133.216 202.168C134.059 201.656 135.056 201.4 136.208 201.4C137.072 201.4 137.845 201.539 138.528 201.816C139.211 202.083 139.883 202.52 140.544 203.128C140.683 203.256 140.752 203.389 140.752 203.528C140.752 203.667 140.688 203.8 140.56 203.928L140.176 204.312C140.037 204.451 139.904 204.52 139.776 204.52C139.637 204.52 139.504 204.456 139.376 204.328C138.821 203.848 138.304 203.507 137.824 203.304C137.344 203.091 136.8 202.984 136.192 202.984C135.456 202.984 134.805 203.16 134.24 203.512C133.685 203.864 133.248 204.365 132.928 205.016C132.619 205.667 132.464 206.435 132.464 207.32C132.464 208.216 132.613 208.989 132.912 209.64C133.211 210.291 133.632 210.792 134.176 211.144C134.731 211.485 135.381 211.656 136.128 211.656C137.077 211.656 137.835 211.4 138.4 210.888C138.976 210.365 139.264 209.656 139.264 208.76V208.424H136.368ZM148.577 210.984C148.716 210.867 148.849 210.808 148.977 210.808C149.105 210.808 149.238 210.877 149.377 211.016L149.601 211.256C149.718 211.395 149.777 211.528 149.777 211.656C149.777 211.795 149.708 211.928 149.569 212.056C149.078 212.483 148.588 212.787 148.097 212.968C147.617 213.149 147.084 213.24 146.497 213.24C145.676 213.24 144.961 213.069 144.353 212.728C143.756 212.387 143.292 211.907 142.961 211.288C142.641 210.659 142.481 209.933 142.481 209.112C142.481 208.301 142.636 207.576 142.945 206.936C143.265 206.285 143.713 205.779 144.289 205.416C144.876 205.053 145.558 204.872 146.337 204.872C147.5 204.872 148.396 205.219 149.025 205.912C149.654 206.595 149.969 207.539 149.969 208.744V208.888C149.958 209.059 149.905 209.192 149.809 209.288C149.713 209.384 149.574 209.432 149.393 209.432H144.145C144.209 210.136 144.438 210.712 144.833 211.16C145.238 211.597 145.804 211.816 146.529 211.816C146.924 211.816 147.27 211.757 147.569 211.64C147.868 211.512 148.204 211.293 148.577 210.984ZM146.305 206.216C145.718 206.216 145.244 206.392 144.881 206.744C144.529 207.085 144.3 207.571 144.193 208.2H148.305C148.262 207.581 148.07 207.096 147.729 206.744C147.388 206.392 146.913 206.216 146.305 206.216ZM155.237 211.656C155.269 211.645 155.317 211.64 155.381 211.64C155.648 211.64 155.808 211.795 155.861 212.104L155.909 212.36C155.92 212.392 155.925 212.445 155.925 212.52C155.925 212.787 155.776 212.957 155.477 213.032C155.05 213.128 154.661 213.176 154.309 213.176C153.552 213.176 153.002 213 152.661 212.648C152.33 212.296 152.165 211.768 152.165 211.064V206.408H151.285C151.114 206.408 150.976 206.36 150.869 206.264C150.773 206.157 150.725 206.019 150.725 205.848V205.672C150.725 205.491 150.773 205.352 150.869 205.256C150.976 205.16 151.114 205.112 151.285 205.112H152.165V203.128C152.165 202.947 152.213 202.808 152.309 202.712C152.416 202.616 152.554 202.568 152.725 202.568H153.301C153.482 202.568 153.621 202.616 153.717 202.712C153.813 202.808 153.861 202.947 153.861 203.128V205.112H155.301C155.482 205.112 155.621 205.16 155.717 205.256C155.813 205.352 155.861 205.491 155.861 205.672V205.848C155.861 206.019 155.813 206.157 155.717 206.264C155.621 206.36 155.482 206.408 155.301 206.408H153.861V210.856C153.861 211.165 153.925 211.384 154.053 211.512C154.192 211.64 154.41 211.704 154.709 211.704C154.837 211.704 155.013 211.688 155.237 211.656ZM165.091 213.256C164.217 213.256 163.433 213.133 162.739 212.888C162.057 212.632 161.353 212.205 160.627 211.608C160.478 211.491 160.403 211.352 160.403 211.192C160.403 211.053 160.457 210.925 160.563 210.808L160.931 210.376C161.049 210.227 161.182 210.152 161.331 210.152C161.449 210.152 161.582 210.211 161.731 210.328C162.371 210.84 162.942 211.192 163.443 211.384C163.955 211.576 164.515 211.672 165.123 211.672C165.859 211.672 166.457 211.507 166.915 211.176C167.374 210.835 167.603 210.371 167.603 209.784C167.603 209.4 167.486 209.101 167.251 208.888C167.017 208.664 166.713 208.493 166.339 208.376C165.977 208.259 165.385 208.104 164.563 207.912C163.571 207.677 162.798 207.421 162.243 207.144C161.689 206.867 161.289 206.536 161.043 206.152C160.809 205.757 160.691 205.261 160.691 204.664C160.691 204.035 160.873 203.469 161.235 202.968C161.598 202.467 162.094 202.077 162.723 201.8C163.363 201.523 164.078 201.384 164.867 201.384C165.667 201.384 166.371 201.491 166.979 201.704C167.598 201.917 168.217 202.264 168.835 202.744C168.995 202.872 169.075 203.005 169.075 203.144C169.075 203.261 169.022 203.389 168.915 203.528L168.563 203.944C168.435 204.093 168.302 204.168 168.163 204.168C168.035 204.168 167.902 204.115 167.763 204.008C167.251 203.613 166.777 203.341 166.339 203.192C165.902 203.043 165.406 202.968 164.851 202.968C164.147 202.968 163.577 203.123 163.139 203.432C162.702 203.741 162.483 204.131 162.483 204.6C162.483 204.941 162.585 205.213 162.787 205.416C162.99 205.619 163.283 205.784 163.667 205.912C164.051 206.04 164.643 206.195 165.443 206.376C166.414 206.611 167.182 206.861 167.747 207.128C168.313 207.384 168.734 207.715 169.011 208.12C169.289 208.525 169.427 209.043 169.427 209.672C169.427 210.376 169.246 211 168.883 211.544C168.521 212.088 168.014 212.509 167.363 212.808C166.713 213.107 165.955 213.256 165.091 213.256ZM174.581 211.656C174.613 211.645 174.661 211.64 174.725 211.64C174.992 211.64 175.152 211.795 175.205 212.104L175.253 212.36C175.264 212.392 175.269 212.445 175.269 212.52C175.269 212.787 175.12 212.957 174.821 213.032C174.394 213.128 174.005 213.176 173.653 213.176C172.896 213.176 172.346 213 172.005 212.648C171.674 212.296 171.509 211.768 171.509 211.064V206.408H170.629C170.458 206.408 170.32 206.36 170.213 206.264C170.117 206.157 170.069 206.019 170.069 205.848V205.672C170.069 205.491 170.117 205.352 170.213 205.256C170.32 205.16 170.458 205.112 170.629 205.112H171.509V203.128C171.509 202.947 171.557 202.808 171.653 202.712C171.76 202.616 171.898 202.568 172.069 202.568H172.645C172.826 202.568 172.965 202.616 173.061 202.712C173.157 202.808 173.205 202.947 173.205 203.128V205.112H174.645C174.826 205.112 174.965 205.16 175.061 205.256C175.157 205.352 175.205 205.491 175.205 205.672V205.848C175.205 206.019 175.157 206.157 175.061 206.264C174.965 206.36 174.826 206.408 174.645 206.408H173.205V210.856C173.205 211.165 173.269 211.384 173.397 211.512C173.536 211.64 173.754 211.704 174.053 211.704C174.181 211.704 174.357 211.688 174.581 211.656ZM179.945 204.872C181.011 204.872 181.833 205.123 182.409 205.624C182.985 206.115 183.273 206.771 183.273 207.592V212.44C183.273 212.611 183.225 212.749 183.129 212.856C183.033 212.952 182.894 213 182.713 213H182.297C182.126 213 181.987 212.952 181.881 212.856C181.785 212.749 181.737 212.611 181.737 212.44V212.088C181.481 212.461 181.129 212.749 180.681 212.952C180.233 213.155 179.71 213.256 179.113 213.256C178.291 213.256 177.614 213.075 177.081 212.712C176.558 212.339 176.297 211.779 176.297 211.032C176.297 210.2 176.606 209.587 177.225 209.192C177.854 208.787 178.723 208.483 179.833 208.28L181.641 207.944V207.656C181.641 207.219 181.486 206.883 181.177 206.648C180.878 206.403 180.478 206.28 179.977 206.28C179.55 206.28 179.177 206.355 178.857 206.504C178.547 206.643 178.211 206.877 177.849 207.208C177.71 207.325 177.577 207.384 177.449 207.384C177.321 207.384 177.187 207.325 177.049 207.208L176.793 206.984C176.654 206.856 176.585 206.717 176.585 206.568C176.585 206.429 176.649 206.296 176.777 206.168C177.235 205.731 177.721 205.405 178.233 205.192C178.745 204.979 179.315 204.872 179.945 204.872ZM179.353 211.896C179.993 211.896 180.531 211.725 180.969 211.384C181.417 211.043 181.641 210.552 181.641 209.912V209.176L180.249 209.464C179.47 209.624 178.894 209.805 178.521 210.008C178.147 210.211 177.961 210.52 177.961 210.936C177.961 211.235 178.083 211.469 178.329 211.64C178.574 211.811 178.915 211.896 179.353 211.896ZM188.762 205.032C188.997 205.032 189.237 205.059 189.482 205.112C189.77 205.176 189.914 205.347 189.914 205.624C189.914 205.699 189.909 205.752 189.898 205.784L189.818 206.168C189.754 206.467 189.594 206.616 189.338 206.616L189.194 206.6C189.002 206.568 188.832 206.552 188.682 206.552C188.149 206.552 187.717 206.765 187.386 207.192C187.066 207.608 186.906 208.189 186.906 208.936V212.44C186.906 212.611 186.858 212.749 186.762 212.856C186.666 212.952 186.528 213 186.346 213H185.77C185.6 213 185.461 212.952 185.354 212.856C185.258 212.749 185.21 212.611 185.21 212.44V205.672C185.21 205.491 185.258 205.352 185.354 205.256C185.461 205.16 185.6 205.112 185.77 205.112H186.234C186.416 205.112 186.554 205.16 186.65 205.256C186.746 205.352 186.794 205.491 186.794 205.672V206.296C186.986 205.901 187.248 205.592 187.578 205.368C187.909 205.144 188.304 205.032 188.762 205.032ZM195.143 211.656C195.175 211.645 195.223 211.64 195.287 211.64C195.554 211.64 195.714 211.795 195.767 212.104L195.815 212.36C195.826 212.392 195.831 212.445 195.831 212.52C195.831 212.787 195.682 212.957 195.383 213.032C194.957 213.128 194.567 213.176 194.215 213.176C193.458 213.176 192.909 213 192.567 212.648C192.237 212.296 192.071 211.768 192.071 211.064V206.408H191.191C191.021 206.408 190.882 206.36 190.775 206.264C190.679 206.157 190.631 206.019 190.631 205.848V205.672C190.631 205.491 190.679 205.352 190.775 205.256C190.882 205.16 191.021 205.112 191.191 205.112H192.071V203.128C192.071 202.947 192.119 202.808 192.215 202.712C192.322 202.616 192.461 202.568 192.631 202.568H193.207C193.389 202.568 193.527 202.616 193.623 202.712C193.719 202.808 193.767 202.947 193.767 203.128V205.112H195.207C195.389 205.112 195.527 205.16 195.623 205.256C195.719 205.352 195.767 205.491 195.767 205.672V205.848C195.767 206.019 195.719 206.157 195.623 206.264C195.527 206.36 195.389 206.408 195.207 206.408H193.767V210.856C193.767 211.165 193.831 211.384 193.959 211.512C194.098 211.64 194.317 211.704 194.615 211.704C194.743 211.704 194.919 211.688 195.143 211.656ZM202.562 210.984C202.7 210.867 202.834 210.808 202.962 210.808C203.09 210.808 203.223 210.877 203.362 211.016L203.586 211.256C203.703 211.395 203.762 211.528 203.762 211.656C203.762 211.795 203.692 211.928 203.554 212.056C203.063 212.483 202.572 212.787 202.082 212.968C201.602 213.149 201.068 213.24 200.482 213.24C199.66 213.24 198.946 213.069 198.338 212.728C197.74 212.387 197.276 211.907 196.946 211.288C196.626 210.659 196.465 209.933 196.465 209.112C196.465 208.301 196.62 207.576 196.93 206.936C197.25 206.285 197.698 205.779 198.274 205.416C198.86 205.053 199.543 204.872 200.322 204.872C201.484 204.872 202.38 205.219 203.01 205.912C203.639 206.595 203.954 207.539 203.954 208.744V208.888C203.943 209.059 203.89 209.192 203.794 209.288C203.698 209.384 203.559 209.432 203.378 209.432H198.13C198.194 210.136 198.423 210.712 198.818 211.16C199.223 211.597 199.788 211.816 200.514 211.816C200.908 211.816 201.255 211.757 201.554 211.64C201.852 211.512 202.188 211.293 202.562 210.984ZM200.29 206.216C199.703 206.216 199.228 206.392 198.866 206.744C198.514 207.085 198.284 207.571 198.178 208.2H202.29C202.247 207.581 202.055 207.096 201.714 206.744C201.372 206.392 200.898 206.216 200.29 206.216ZM211.091 202.184C211.091 202.003 211.139 201.864 211.235 201.768C211.341 201.672 211.48 201.624 211.651 201.624H212.227C212.408 201.624 212.547 201.672 212.642 201.768C212.738 201.864 212.786 202.003 212.786 202.184V212.44C212.786 212.611 212.738 212.749 212.642 212.856C212.547 212.952 212.408 213 212.227 213H211.763C211.592 213 211.453 212.952 211.347 212.856C211.251 212.749 211.203 212.611 211.203 212.44V211.88C210.648 212.776 209.779 213.224 208.595 213.224C207.933 213.224 207.336 213.053 206.803 212.712C206.28 212.371 205.869 211.885 205.571 211.256C205.272 210.627 205.123 209.896 205.123 209.064C205.123 208.243 205.272 207.517 205.571 206.888C205.88 206.259 206.301 205.773 206.835 205.432C207.368 205.091 207.965 204.92 208.627 204.92C209.715 204.92 210.536 205.299 211.091 206.056V202.184ZM208.947 211.768C209.597 211.768 210.131 211.528 210.547 211.048C210.963 210.557 211.171 209.896 211.171 209.064C211.171 208.232 210.963 207.576 210.547 207.096C210.131 206.616 209.597 206.376 208.947 206.376C208.317 206.376 207.811 206.621 207.427 207.112C207.043 207.603 206.851 208.253 206.851 209.064C206.851 209.885 207.037 210.541 207.411 211.032C207.795 211.523 208.307 211.768 208.947 211.768Z" fill="white"/>
<rect x="115" y="185" width="114" height="46" rx="7" stroke="#0063FB" stroke-width="2"/>
</svg>
