<svg width="344" height="182" viewBox="0 0 344 182" fill="none" xmlns="http://www.w3.org/2000/svg">
<rect x="109" y="41" width="126" height="46" rx="7" fill="#0063FB"/>
<path fill-rule="evenodd" clip-rule="evenodd" d="M132.75 57C132.75 56.5858 132.414 56.25 132 56.25C131.586 56.25 131.25 56.5858 131.25 57V66.4395L129.969 65.4143C129.645 65.1556 129.173 65.208 128.914 65.5315C128.656 65.8549 128.708 66.3269 129.031 66.5857L131.531 68.5857C131.805 68.8048 132.195 68.8048 132.469 68.5857L134.969 66.5857C135.292 66.3269 135.344 65.8549 135.086 65.5315C134.827 65.208 134.355 65.1556 134.031 65.4143L132.75 66.4395V57ZM125 70.25C124.586 70.25 124.25 70.5858 124.25 71C124.25 71.4142 124.586 71.75 125 71.75H139C139.414 71.75 139.75 71.4142 139.75 71C139.75 70.5858 139.414 70.25 139 70.25H125Z" fill="white"/>
<path d="M149.792 69C149.621 69 149.483 68.952 149.376 68.856C149.28 68.7493 149.232 68.6107 149.232 68.44V58.2C149.232 58.0187 149.28 57.88 149.376 57.784C149.483 57.688 149.621 57.64 149.792 57.64H153.648C154.715 57.64 155.627 57.88 156.384 58.36C157.152 58.84 157.733 59.512 158.128 60.376C158.533 61.2293 158.736 62.2107 158.736 63.32C158.736 64.4293 158.533 65.416 158.128 66.28C157.733 67.1333 157.152 67.8 156.384 68.28C155.627 68.76 154.715 69 153.648 69H149.792ZM153.376 67.464C154.464 67.464 155.317 67.1067 155.936 66.392C156.565 65.6667 156.88 64.6427 156.88 63.32C156.88 61.9973 156.565 60.9787 155.936 60.264C155.317 59.5387 154.464 59.176 153.376 59.176H151.056V67.464H153.376ZM164.091 69.24C163.312 69.24 162.619 69.064 162.011 68.712C161.413 68.36 160.944 67.8693 160.603 67.24C160.261 66.6 160.09 65.8693 160.09 65.048C160.09 64.2267 160.261 63.5013 160.603 62.872C160.944 62.2427 161.413 61.752 162.011 61.4C162.619 61.048 163.312 60.872 164.091 60.872C164.859 60.872 165.547 61.048 166.155 61.4C166.763 61.752 167.237 62.248 167.579 62.888C167.92 63.5173 168.091 64.2373 168.091 65.048C168.091 65.8693 167.92 66.6 167.579 67.24C167.237 67.8693 166.763 68.36 166.155 68.712C165.547 69.064 164.859 69.24 164.091 69.24ZM164.091 67.816C164.773 67.816 165.323 67.5653 165.739 67.064C166.155 66.552 166.363 65.88 166.363 65.048C166.363 64.2267 166.155 63.5653 165.739 63.064C165.323 62.5627 164.773 62.312 164.091 62.312C163.408 62.312 162.859 62.5627 162.443 63.064C162.027 63.5653 161.819 64.2267 161.819 65.048C161.819 65.88 162.027 66.552 162.443 67.064C162.859 67.5653 163.408 67.816 164.091 67.816ZM178.356 61.592C178.431 61.272 178.639 61.112 178.98 61.112H179.572C179.732 61.112 179.855 61.1493 179.94 61.224C180.036 61.288 180.084 61.3893 180.084 61.528C180.084 61.56 180.073 61.6293 180.052 61.736L178.148 68.52C178.073 68.84 177.865 69 177.524 69H176.484C176.164 69 175.956 68.84 175.86 68.52L175.332 66.664C175.097 65.8427 174.836 64.8133 174.548 63.576L174.468 63.224C174.18 64.5253 173.903 65.6773 173.636 66.68L173.14 68.52C173.065 68.84 172.857 69 172.516 69H171.492C171.172 69 170.964 68.84 170.868 68.52L168.948 61.736C168.927 61.6293 168.916 61.56 168.916 61.528C168.916 61.3893 168.959 61.288 169.044 61.224C169.14 61.1493 169.268 61.112 169.428 61.112H170.052C170.393 61.112 170.601 61.272 170.676 61.592L171.252 63.864C171.476 64.696 171.737 65.8053 172.036 67.192L172.1 67.512C172.409 66.0827 172.697 64.8667 172.964 63.864L173.572 61.592C173.647 61.272 173.855 61.112 174.196 61.112H174.804C175.145 61.112 175.353 61.272 175.428 61.592L176.052 63.864C176.351 64.9733 176.649 66.1893 176.948 67.512C177.172 66.3707 177.449 65.1547 177.78 63.864L178.356 61.592ZM185.508 60.872C186.414 60.872 187.108 61.128 187.588 61.64C188.078 62.1413 188.324 62.792 188.324 63.592V68.44C188.324 68.6107 188.276 68.7493 188.18 68.856C188.084 68.952 187.945 69 187.764 69H187.188C187.017 69 186.878 68.952 186.772 68.856C186.676 68.7493 186.628 68.6107 186.628 68.44V64.12C186.628 63.544 186.484 63.1013 186.196 62.792C185.918 62.4827 185.518 62.328 184.996 62.328C184.484 62.328 184.052 62.504 183.7 62.856C183.358 63.208 183.188 63.6507 183.188 64.184V68.44C183.188 68.6107 183.14 68.7493 183.044 68.856C182.948 68.952 182.809 69 182.628 69H182.052C181.881 69 181.742 68.952 181.636 68.856C181.54 68.7493 181.492 68.6107 181.492 68.44V61.672C181.492 61.4907 181.54 61.352 181.636 61.256C181.742 61.16 181.881 61.112 182.052 61.112H182.516C182.697 61.112 182.836 61.16 182.932 61.256C183.028 61.352 183.076 61.4907 183.076 61.672V62.088C183.332 61.6933 183.668 61.3947 184.084 61.192C184.5 60.9787 184.974 60.872 185.508 60.872ZM190.897 69C190.726 69 190.588 68.952 190.481 68.856C190.385 68.7493 190.337 68.6107 190.337 68.44V58.2C190.337 58.0187 190.385 57.88 190.481 57.784C190.588 57.688 190.726 57.64 190.897 57.64H191.473C191.654 57.64 191.793 57.688 191.889 57.784C191.985 57.88 192.033 58.0187 192.033 58.2V68.44C192.033 68.6107 191.985 68.7493 191.889 68.856C191.793 68.952 191.654 69 191.473 69H190.897ZM197.606 69.24C196.827 69.24 196.134 69.064 195.526 68.712C194.929 68.36 194.459 67.8693 194.118 67.24C193.777 66.6 193.606 65.8693 193.606 65.048C193.606 64.2267 193.777 63.5013 194.118 62.872C194.459 62.2427 194.929 61.752 195.526 61.4C196.134 61.048 196.827 60.872 197.606 60.872C198.374 60.872 199.062 61.048 199.67 61.4C200.278 61.752 200.753 62.248 201.094 62.888C201.435 63.5173 201.606 64.2373 201.606 65.048C201.606 65.8693 201.435 66.6 201.094 67.24C200.753 67.8693 200.278 68.36 199.67 68.712C199.062 69.064 198.374 69.24 197.606 69.24ZM197.606 67.816C198.289 67.816 198.838 67.5653 199.254 67.064C199.67 66.552 199.878 65.88 199.878 65.048C199.878 64.2267 199.67 63.5653 199.254 63.064C198.838 62.5627 198.289 62.312 197.606 62.312C196.923 62.312 196.374 62.5627 195.958 63.064C195.542 63.5653 195.334 64.2267 195.334 65.048C195.334 65.88 195.542 66.552 195.958 67.064C196.374 67.5653 196.923 67.816 197.606 67.816ZM206.429 60.872C207.496 60.872 208.317 61.1227 208.893 61.624C209.469 62.1147 209.757 62.7707 209.757 63.592V68.44C209.757 68.6107 209.709 68.7493 209.613 68.856C209.517 68.952 209.378 69 209.197 69H208.781C208.61 69 208.472 68.952 208.365 68.856C208.269 68.7493 208.221 68.6107 208.221 68.44V68.088C207.965 68.4613 207.613 68.7493 207.165 68.952C206.717 69.1547 206.194 69.256 205.597 69.256C204.776 69.256 204.098 69.0747 203.565 68.712C203.042 68.3387 202.781 67.7787 202.781 67.032C202.781 66.2 203.09 65.5867 203.709 65.192C204.338 64.7867 205.208 64.4827 206.317 64.28L208.125 63.944V63.656C208.125 63.2187 207.97 62.8827 207.661 62.648C207.362 62.4027 206.962 62.28 206.461 62.28C206.034 62.28 205.661 62.3547 205.341 62.504C205.032 62.6427 204.696 62.8773 204.333 63.208C204.194 63.3253 204.061 63.384 203.933 63.384C203.805 63.384 203.672 63.3253 203.533 63.208L203.277 62.984C203.138 62.856 203.069 62.7173 203.069 62.568C203.069 62.4293 203.133 62.296 203.261 62.168C203.72 61.7307 204.205 61.4053 204.717 61.192C205.229 60.9787 205.8 60.872 206.429 60.872ZM205.837 67.896C206.477 67.896 207.016 67.7253 207.453 67.384C207.901 67.0427 208.125 66.552 208.125 65.912V65.176L206.733 65.464C205.954 65.624 205.378 65.8053 205.005 66.008C204.632 66.2107 204.445 66.52 204.445 66.936C204.445 67.2347 204.568 67.4693 204.813 67.64C205.058 67.8107 205.4 67.896 205.837 67.896ZM217.247 58.184C217.247 58.0027 217.295 57.864 217.391 57.768C217.497 57.672 217.636 57.624 217.807 57.624H218.383C218.564 57.624 218.703 57.672 218.799 57.768C218.895 57.864 218.943 58.0027 218.943 58.184V68.44C218.943 68.6107 218.895 68.7493 218.799 68.856C218.703 68.952 218.564 69 218.383 69H217.919C217.748 69 217.609 68.952 217.503 68.856C217.407 68.7493 217.359 68.6107 217.359 68.44V67.88C216.804 68.776 215.935 69.224 214.751 69.224C214.089 69.224 213.492 69.0533 212.959 68.712C212.436 68.3707 212.025 67.8853 211.727 67.256C211.428 66.6267 211.279 65.896 211.279 65.064C211.279 64.2427 211.428 63.5173 211.727 62.888C212.036 62.2587 212.457 61.7733 212.991 61.432C213.524 61.0907 214.121 60.92 214.783 60.92C215.871 60.92 216.692 61.2987 217.247 62.056V58.184ZM215.103 67.768C215.753 67.768 216.287 67.528 216.703 67.048C217.119 66.5573 217.327 65.896 217.327 65.064C217.327 64.232 217.119 63.576 216.703 63.096C216.287 62.616 215.753 62.376 215.103 62.376C214.473 62.376 213.967 62.6213 213.583 63.112C213.199 63.6027 213.007 64.2533 213.007 65.064C213.007 65.8853 213.193 66.5413 213.567 67.032C213.951 67.5227 214.463 67.768 215.103 67.768Z" fill="white"/>
<rect x="109" y="41" width="126" height="46" rx="7" stroke="#0063FB" stroke-width="2"/>
<rect x="122" y="113" width="100" height="30" rx="7" fill="#0063FB"/>
<path d="M141 122L141 130" stroke="#767676" stroke-width="1.5" stroke-linecap="round" stroke-linejoin="round"/>
<path d="M138 127L141 130L144 127" stroke="#767676" stroke-width="1.5" stroke-linecap="round" stroke-linejoin="round"/>
<path d="M134 131V131.931C134 132.48 134.197 133.006 134.547 133.394C134.897 133.782 135.372 134 135.867 134H146.133C146.628 134 147.103 133.782 147.453 133.394C147.803 133.006 148 132.48 148 131.931V131" stroke="#767676" stroke-width="1.5" stroke-linecap="round" stroke-linejoin="round"/>
<path d="M158.344 132C158.216 132 158.112 131.964 158.032 131.892C157.96 131.812 157.924 131.708 157.924 131.58V123.9C157.924 123.764 157.96 123.66 158.032 123.588C158.112 123.516 158.216 123.48 158.344 123.48H161.236C162.036 123.48 162.72 123.66 163.288 124.02C163.864 124.38 164.3 124.884 164.596 125.532C164.9 126.172 165.052 126.908 165.052 127.74C165.052 128.572 164.9 129.312 164.596 129.96C164.3 130.6 163.864 131.1 163.288 131.46C162.72 131.82 162.036 132 161.236 132H158.344ZM161.032 130.848C161.848 130.848 162.488 130.58 162.952 130.044C163.424 129.5 163.66 128.732 163.66 127.74C163.66 126.748 163.424 125.984 162.952 125.448C162.488 124.904 161.848 124.632 161.032 124.632H159.292V130.848H161.032ZM169.068 132.18C168.484 132.18 167.964 132.048 167.508 131.784C167.06 131.52 166.708 131.152 166.452 130.68C166.196 130.2 166.068 129.652 166.068 129.036C166.068 128.42 166.196 127.876 166.452 127.404C166.708 126.932 167.06 126.564 167.508 126.3C167.964 126.036 168.484 125.904 169.068 125.904C169.644 125.904 170.16 126.036 170.616 126.3C171.072 126.564 171.428 126.936 171.684 127.416C171.94 127.888 172.068 128.428 172.068 129.036C172.068 129.652 171.94 130.2 171.684 130.68C171.428 131.152 171.072 131.52 170.616 131.784C170.16 132.048 169.644 132.18 169.068 132.18ZM169.068 131.112C169.58 131.112 169.992 130.924 170.304 130.548C170.616 130.164 170.772 129.66 170.772 129.036C170.772 128.42 170.616 127.924 170.304 127.548C169.992 127.172 169.58 126.984 169.068 126.984C168.556 126.984 168.144 127.172 167.832 127.548C167.52 127.924 167.364 128.42 167.364 129.036C167.364 129.66 167.52 130.164 167.832 130.548C168.144 130.924 168.556 131.112 169.068 131.112ZM179.767 126.444C179.823 126.204 179.979 126.084 180.235 126.084H180.679C180.799 126.084 180.891 126.112 180.955 126.168C181.027 126.216 181.063 126.292 181.063 126.396C181.063 126.42 181.055 126.472 181.039 126.552L179.611 131.64C179.555 131.88 179.399 132 179.143 132H178.363C178.123 132 177.967 131.88 177.895 131.64L177.499 130.248C177.323 129.632 177.127 128.86 176.911 127.932L176.851 127.668C176.635 128.644 176.427 129.508 176.227 130.26L175.855 131.64C175.799 131.88 175.643 132 175.387 132H174.619C174.379 132 174.223 131.88 174.151 131.64L172.711 126.552C172.695 126.472 172.687 126.42 172.687 126.396C172.687 126.292 172.719 126.216 172.783 126.168C172.855 126.112 172.951 126.084 173.071 126.084H173.539C173.795 126.084 173.951 126.204 174.007 126.444L174.439 128.148C174.607 128.772 174.803 129.604 175.027 130.644L175.075 130.884C175.307 129.812 175.523 128.9 175.723 128.148L176.179 126.444C176.235 126.204 176.391 126.084 176.647 126.084H177.103C177.359 126.084 177.515 126.204 177.571 126.444L178.039 128.148C178.263 128.98 178.487 129.892 178.711 130.884C178.879 130.028 179.087 129.116 179.335 128.148L179.767 126.444ZM185.131 125.904C185.811 125.904 186.331 126.096 186.691 126.48C187.059 126.856 187.243 127.344 187.243 127.944V131.58C187.243 131.708 187.207 131.812 187.135 131.892C187.063 131.964 186.959 132 186.823 132H186.391C186.263 132 186.159 131.964 186.079 131.892C186.007 131.812 185.971 131.708 185.971 131.58V128.34C185.971 127.908 185.863 127.576 185.647 127.344C185.439 127.112 185.139 126.996 184.747 126.996C184.363 126.996 184.039 127.128 183.775 127.392C183.519 127.656 183.391 127.988 183.391 128.388V131.58C183.391 131.708 183.355 131.812 183.283 131.892C183.211 131.964 183.107 132 182.971 132H182.539C182.411 132 182.307 131.964 182.227 131.892C182.155 131.812 182.119 131.708 182.119 131.58V126.504C182.119 126.368 182.155 126.264 182.227 126.192C182.307 126.12 182.411 126.084 182.539 126.084H182.887C183.023 126.084 183.127 126.12 183.199 126.192C183.271 126.264 183.307 126.368 183.307 126.504V126.816C183.499 126.52 183.751 126.296 184.063 126.144C184.375 125.984 184.731 125.904 185.131 125.904ZM189.173 132C189.045 132 188.941 131.964 188.861 131.892C188.789 131.812 188.753 131.708 188.753 131.58V123.9C188.753 123.764 188.789 123.66 188.861 123.588C188.941 123.516 189.045 123.48 189.173 123.48H189.605C189.741 123.48 189.845 123.516 189.917 123.588C189.989 123.66 190.025 123.764 190.025 123.9V131.58C190.025 131.708 189.989 131.812 189.917 131.892C189.845 131.964 189.741 132 189.605 132H189.173ZM194.205 132.18C193.621 132.18 193.101 132.048 192.645 131.784C192.197 131.52 191.845 131.152 191.589 130.68C191.333 130.2 191.205 129.652 191.205 129.036C191.205 128.42 191.333 127.876 191.589 127.404C191.845 126.932 192.197 126.564 192.645 126.3C193.101 126.036 193.621 125.904 194.205 125.904C194.781 125.904 195.297 126.036 195.753 126.3C196.209 126.564 196.565 126.936 196.821 127.416C197.077 127.888 197.205 128.428 197.205 129.036C197.205 129.652 197.077 130.2 196.821 130.68C196.565 131.152 196.209 131.52 195.753 131.784C195.297 132.048 194.781 132.18 194.205 132.18ZM194.205 131.112C194.717 131.112 195.129 130.924 195.441 130.548C195.753 130.164 195.909 129.66 195.909 129.036C195.909 128.42 195.753 127.924 195.441 127.548C195.129 127.172 194.717 126.984 194.205 126.984C193.693 126.984 193.281 127.172 192.969 127.548C192.657 127.924 192.501 128.42 192.501 129.036C192.501 129.66 192.657 130.164 192.969 130.548C193.281 130.924 193.693 131.112 194.205 131.112ZM200.822 125.904C201.622 125.904 202.238 126.092 202.67 126.468C203.102 126.836 203.318 127.328 203.318 127.944V131.58C203.318 131.708 203.282 131.812 203.21 131.892C203.138 131.964 203.034 132 202.898 132H202.586C202.458 132 202.354 131.964 202.274 131.892C202.202 131.812 202.166 131.708 202.166 131.58V131.316C201.974 131.596 201.71 131.812 201.374 131.964C201.038 132.116 200.646 132.192 200.198 132.192C199.582 132.192 199.074 132.056 198.674 131.784C198.282 131.504 198.086 131.084 198.086 130.524C198.086 129.9 198.318 129.44 198.782 129.144C199.254 128.84 199.906 128.612 200.738 128.46L202.094 128.208V127.992C202.094 127.664 201.978 127.412 201.746 127.236C201.522 127.052 201.222 126.96 200.846 126.96C200.526 126.96 200.246 127.016 200.006 127.128C199.774 127.232 199.522 127.408 199.25 127.656C199.146 127.744 199.046 127.788 198.95 127.788C198.854 127.788 198.754 127.744 198.65 127.656L198.458 127.488C198.354 127.392 198.302 127.288 198.302 127.176C198.302 127.072 198.35 126.972 198.446 126.876C198.79 126.548 199.154 126.304 199.538 126.144C199.922 125.984 200.35 125.904 200.822 125.904ZM200.378 131.172C200.858 131.172 201.262 131.044 201.59 130.788C201.926 130.532 202.094 130.164 202.094 129.684V129.132L201.05 129.348C200.466 129.468 200.034 129.604 199.754 129.756C199.474 129.908 199.334 130.14 199.334 130.452C199.334 130.676 199.426 130.852 199.61 130.98C199.794 131.108 200.05 131.172 200.378 131.172ZM208.935 123.888C208.935 123.752 208.971 123.648 209.043 123.576C209.123 123.504 209.227 123.468 209.355 123.468H209.787C209.923 123.468 210.027 123.504 210.099 123.576C210.171 123.648 210.207 123.752 210.207 123.888V131.58C210.207 131.708 210.171 131.812 210.099 131.892C210.027 131.964 209.923 132 209.787 132H209.439C209.311 132 209.207 131.964 209.127 131.892C209.055 131.812 209.019 131.708 209.019 131.58V131.16C208.603 131.832 207.951 132.168 207.063 132.168C206.567 132.168 206.119 132.04 205.719 131.784C205.327 131.528 205.019 131.164 204.795 130.692C204.571 130.22 204.459 129.672 204.459 129.048C204.459 128.432 204.571 127.888 204.795 127.416C205.027 126.944 205.343 126.58 205.743 126.324C206.143 126.068 206.591 125.94 207.087 125.94C207.903 125.94 208.519 126.224 208.935 126.792V123.888ZM207.327 131.076C207.815 131.076 208.215 130.896 208.527 130.536C208.839 130.168 208.995 129.672 208.995 129.048C208.995 128.424 208.839 127.932 208.527 127.572C208.215 127.212 207.815 127.032 207.327 127.032C206.855 127.032 206.475 127.216 206.187 127.584C205.899 127.952 205.755 128.44 205.755 129.048C205.755 129.664 205.895 130.156 206.175 130.524C206.463 130.892 206.847 131.076 207.327 131.076Z" fill="white"/>
<rect x="122" y="113" width="100" height="30" rx="7" stroke="#0063FB" stroke-width="2"/>
</svg>
