<svg width="284" height="188" viewBox="0 0 284 188" fill="none" xmlns="http://www.w3.org/2000/svg">
<g clip-path="url(#clip0_852_12850)">
<rect width="284" height="188" fill="#C3CCD9"/>
<g filter="url(#filter0_dd_852_12850)">
<rect x="86" y="71" width="112" height="46" rx="7" fill="#0063FB"/>
<path d="M107.368 94.424C107.197 94.424 107.059 94.376 106.952 94.28C106.856 94.1733 106.808 94.0347 106.808 93.864V93.448C106.808 93.2667 106.856 93.128 106.952 93.032C107.059 92.936 107.197 92.888 107.368 92.888H111.384C111.565 92.888 111.704 92.936 111.8 93.032C111.896 93.128 111.944 93.2667 111.944 93.448V98.44C111.944 98.6107 111.896 98.7493 111.8 98.856C111.704 98.952 111.565 99 111.384 99H111.048C110.696 99 110.504 98.824 110.472 98.472L110.408 97.752C109.725 98.744 108.595 99.24 107.016 99.24C105.885 99.24 104.915 98.9893 104.104 98.488C103.293 97.9867 102.675 97.288 102.248 96.392C101.821 95.496 101.608 94.4667 101.608 93.304C101.608 92.1733 101.832 91.16 102.28 90.264C102.728 89.368 103.373 88.6693 104.216 88.168C105.059 87.656 106.056 87.4 107.208 87.4C108.072 87.4 108.845 87.5387 109.528 87.816C110.211 88.0827 110.883 88.52 111.544 89.128C111.683 89.256 111.752 89.3893 111.752 89.528C111.752 89.6667 111.688 89.8 111.56 89.928L111.176 90.312C111.037 90.4507 110.904 90.52 110.776 90.52C110.637 90.52 110.504 90.456 110.376 90.328C109.821 89.848 109.304 89.5067 108.824 89.304C108.344 89.0907 107.8 88.984 107.192 88.984C106.456 88.984 105.805 89.16 105.24 89.512C104.685 89.864 104.248 90.3653 103.928 91.016C103.619 91.6667 103.464 92.4347 103.464 93.32C103.464 94.216 103.613 94.9893 103.912 95.64C104.211 96.2907 104.632 96.792 105.176 97.144C105.731 97.4853 106.381 97.656 107.128 97.656C108.077 97.656 108.835 97.4 109.4 96.888C109.976 96.3653 110.264 95.656 110.264 94.76V94.424H107.368ZM119.577 96.984C119.716 96.8667 119.849 96.808 119.977 96.808C120.105 96.808 120.238 96.8773 120.377 97.016L120.601 97.256C120.718 97.3947 120.777 97.528 120.777 97.656C120.777 97.7947 120.708 97.928 120.569 98.056C120.078 98.4827 119.588 98.7867 119.097 98.968C118.617 99.1493 118.084 99.24 117.497 99.24C116.676 99.24 115.961 99.0693 115.353 98.728C114.756 98.3867 114.292 97.9067 113.961 97.288C113.641 96.6587 113.481 95.9333 113.481 95.112C113.481 94.3013 113.636 93.576 113.945 92.936C114.265 92.2853 114.713 91.7787 115.289 91.416C115.876 91.0533 116.558 90.872 117.337 90.872C118.5 90.872 119.396 91.2187 120.025 91.912C120.654 92.5947 120.969 93.5387 120.969 94.744V94.888C120.958 95.0587 120.905 95.192 120.809 95.288C120.713 95.384 120.574 95.432 120.393 95.432H115.145C115.209 96.136 115.438 96.712 115.833 97.16C116.238 97.5973 116.804 97.816 117.529 97.816C117.924 97.816 118.27 97.7573 118.569 97.64C118.868 97.512 119.204 97.2933 119.577 96.984ZM117.305 92.216C116.718 92.216 116.244 92.392 115.881 92.744C115.529 93.0853 115.3 93.5707 115.193 94.2H119.305C119.262 93.5813 119.07 93.096 118.729 92.744C118.388 92.392 117.913 92.216 117.305 92.216ZM126.237 97.656C126.269 97.6453 126.317 97.64 126.381 97.64C126.648 97.64 126.808 97.7947 126.861 98.104L126.909 98.36C126.92 98.392 126.925 98.4453 126.925 98.52C126.925 98.7867 126.776 98.9573 126.477 99.032C126.05 99.128 125.661 99.176 125.309 99.176C124.552 99.176 124.002 99 123.661 98.648C123.33 98.296 123.165 97.768 123.165 97.064V92.408H122.285C122.114 92.408 121.976 92.36 121.869 92.264C121.773 92.1573 121.725 92.0187 121.725 91.848V91.672C121.725 91.4907 121.773 91.352 121.869 91.256C121.976 91.16 122.114 91.112 122.285 91.112H123.165V89.128C123.165 88.9467 123.213 88.808 123.309 88.712C123.416 88.616 123.554 88.568 123.725 88.568H124.301C124.482 88.568 124.621 88.616 124.717 88.712C124.813 88.808 124.861 88.9467 124.861 89.128V91.112H126.301C126.482 91.112 126.621 91.16 126.717 91.256C126.813 91.352 126.861 91.4907 126.861 91.672V91.848C126.861 92.0187 126.813 92.1573 126.717 92.264C126.621 92.36 126.482 92.408 126.301 92.408H124.861V96.856C124.861 97.1653 124.925 97.384 125.053 97.512C125.192 97.64 125.41 97.704 125.709 97.704C125.837 97.704 126.013 97.688 126.237 97.656ZM134.875 99.24C134.225 99.24 133.643 99.16 133.131 99C132.63 98.8293 132.118 98.536 131.595 98.12C131.435 98.0027 131.355 97.8693 131.355 97.72C131.355 97.6027 131.414 97.4747 131.531 97.336L131.771 97.064C131.899 96.9147 132.038 96.84 132.187 96.84C132.305 96.84 132.433 96.8933 132.571 97C133.019 97.3307 133.414 97.56 133.755 97.688C134.097 97.8053 134.481 97.864 134.907 97.864C135.366 97.864 135.739 97.7733 136.027 97.592C136.326 97.4 136.475 97.144 136.475 96.824C136.475 96.5787 136.39 96.3867 136.219 96.248C136.059 96.0987 135.846 95.9867 135.579 95.912C135.313 95.8267 134.918 95.7307 134.395 95.624C133.659 95.464 133.083 95.2933 132.667 95.112C132.262 94.92 131.969 94.68 131.787 94.392C131.606 94.104 131.515 93.736 131.515 93.288C131.515 92.8293 131.643 92.4187 131.899 92.056C132.166 91.6933 132.534 91.4053 133.003 91.192C133.483 90.9787 134.043 90.872 134.683 90.872C135.259 90.872 135.771 90.936 136.219 91.064C136.678 91.192 137.126 91.4107 137.563 91.72C137.734 91.848 137.819 91.992 137.819 92.152C137.819 92.2587 137.766 92.3813 137.659 92.52L137.451 92.776C137.334 92.9253 137.19 93 137.019 93C136.891 93 136.769 92.9573 136.651 92.872C136.299 92.6373 135.974 92.4773 135.675 92.392C135.377 92.296 135.041 92.248 134.667 92.248C134.209 92.248 133.841 92.3387 133.563 92.52C133.286 92.7013 133.147 92.936 133.147 93.224C133.147 93.416 133.211 93.5707 133.339 93.688C133.478 93.7947 133.67 93.8907 133.915 93.976C134.171 94.0507 134.571 94.1467 135.115 94.264C135.851 94.424 136.433 94.6053 136.859 94.808C137.297 95 137.617 95.2507 137.819 95.56C138.033 95.8587 138.139 96.248 138.139 96.728C138.139 97.4747 137.841 98.0827 137.243 98.552C136.657 99.0107 135.867 99.24 134.875 99.24ZM143.378 97.656C143.41 97.6453 143.458 97.64 143.522 97.64C143.788 97.64 143.948 97.7947 144.002 98.104L144.05 98.36C144.06 98.392 144.066 98.4453 144.066 98.52C144.066 98.7867 143.916 98.9573 143.618 99.032C143.191 99.128 142.802 99.176 142.45 99.176C141.692 99.176 141.143 99 140.802 98.648C140.471 98.296 140.306 97.768 140.306 97.064V92.408H139.426C139.255 92.408 139.116 92.36 139.01 92.264C138.914 92.1573 138.866 92.0187 138.866 91.848V91.672C138.866 91.4907 138.914 91.352 139.01 91.256C139.116 91.16 139.255 91.112 139.426 91.112H140.306V89.128C140.306 88.9467 140.354 88.808 140.45 88.712C140.556 88.616 140.695 88.568 140.866 88.568H141.442C141.623 88.568 141.762 88.616 141.858 88.712C141.954 88.808 142.002 88.9467 142.002 89.128V91.112H143.442C143.623 91.112 143.762 91.16 143.858 91.256C143.954 91.352 144.002 91.4907 144.002 91.672V91.848C144.002 92.0187 143.954 92.1573 143.858 92.264C143.762 92.36 143.623 92.408 143.442 92.408H142.002V96.856C142.002 97.1653 142.066 97.384 142.194 97.512C142.332 97.64 142.551 97.704 142.85 97.704C142.978 97.704 143.154 97.688 143.378 97.656ZM148.742 90.872C149.808 90.872 150.63 91.1227 151.206 91.624C151.782 92.1147 152.07 92.7707 152.07 93.592V98.44C152.07 98.6107 152.022 98.7493 151.926 98.856C151.83 98.952 151.691 99 151.51 99H151.094C150.923 99 150.784 98.952 150.678 98.856C150.582 98.7493 150.534 98.6107 150.534 98.44V98.088C150.278 98.4613 149.926 98.7493 149.478 98.952C149.03 99.1547 148.507 99.256 147.91 99.256C147.088 99.256 146.411 99.0747 145.878 98.712C145.355 98.3387 145.094 97.7787 145.094 97.032C145.094 96.2 145.403 95.5867 146.022 95.192C146.651 94.7867 147.52 94.4827 148.63 94.28L150.438 93.944V93.656C150.438 93.2187 150.283 92.8827 149.974 92.648C149.675 92.4027 149.275 92.28 148.774 92.28C148.347 92.28 147.974 92.3547 147.654 92.504C147.344 92.6427 147.008 92.8773 146.646 93.208C146.507 93.3253 146.374 93.384 146.246 93.384C146.118 93.384 145.984 93.3253 145.846 93.208L145.59 92.984C145.451 92.856 145.382 92.7173 145.382 92.568C145.382 92.4293 145.446 92.296 145.574 92.168C146.032 91.7307 146.518 91.4053 147.03 91.192C147.542 90.9787 148.112 90.872 148.742 90.872ZM148.15 97.896C148.79 97.896 149.328 97.7253 149.766 97.384C150.214 97.0427 150.438 96.552 150.438 95.912V95.176L149.046 95.464C148.267 95.624 147.691 95.8053 147.318 96.008C146.944 96.2107 146.758 96.52 146.758 96.936C146.758 97.2347 146.88 97.4693 147.126 97.64C147.371 97.8107 147.712 97.896 148.15 97.896ZM157.559 91.032C157.794 91.032 158.034 91.0587 158.279 91.112C158.567 91.176 158.711 91.3467 158.711 91.624C158.711 91.6987 158.706 91.752 158.695 91.784L158.615 92.168C158.551 92.4667 158.391 92.616 158.135 92.616L157.991 92.6C157.799 92.568 157.629 92.552 157.479 92.552C156.946 92.552 156.514 92.7653 156.183 93.192C155.863 93.608 155.703 94.1893 155.703 94.936V98.44C155.703 98.6107 155.655 98.7493 155.559 98.856C155.463 98.952 155.325 99 155.143 99H154.567C154.397 99 154.258 98.952 154.151 98.856C154.055 98.7493 154.007 98.6107 154.007 98.44V91.672C154.007 91.4907 154.055 91.352 154.151 91.256C154.258 91.16 154.397 91.112 154.567 91.112H155.031C155.213 91.112 155.351 91.16 155.447 91.256C155.543 91.352 155.591 91.4907 155.591 91.672V92.296C155.783 91.9013 156.045 91.592 156.375 91.368C156.706 91.144 157.101 91.032 157.559 91.032ZM163.94 97.656C163.972 97.6453 164.02 97.64 164.084 97.64C164.351 97.64 164.511 97.7947 164.564 98.104L164.612 98.36C164.623 98.392 164.628 98.4453 164.628 98.52C164.628 98.7867 164.479 98.9573 164.18 99.032C163.754 99.128 163.364 99.176 163.012 99.176C162.255 99.176 161.706 99 161.364 98.648C161.034 98.296 160.868 97.768 160.868 97.064V92.408H159.988C159.818 92.408 159.679 92.36 159.572 92.264C159.476 92.1573 159.428 92.0187 159.428 91.848V91.672C159.428 91.4907 159.476 91.352 159.572 91.256C159.679 91.16 159.818 91.112 159.988 91.112H160.868V89.128C160.868 88.9467 160.916 88.808 161.012 88.712C161.119 88.616 161.258 88.568 161.428 88.568H162.004C162.186 88.568 162.324 88.616 162.42 88.712C162.516 88.808 162.564 88.9467 162.564 89.128V91.112H164.004C164.186 91.112 164.324 91.16 164.42 91.256C164.516 91.352 164.564 91.4907 164.564 91.672V91.848C164.564 92.0187 164.516 92.1573 164.42 92.264C164.324 92.36 164.186 92.408 164.004 92.408H162.564V96.856C162.564 97.1653 162.628 97.384 162.756 97.512C162.895 97.64 163.114 97.704 163.412 97.704C163.54 97.704 163.716 97.688 163.94 97.656ZM171.358 96.984C171.497 96.8667 171.63 96.808 171.758 96.808C171.886 96.808 172.02 96.8773 172.158 97.016L172.382 97.256C172.5 97.3947 172.558 97.528 172.558 97.656C172.558 97.7947 172.489 97.928 172.35 98.056C171.86 98.4827 171.369 98.7867 170.878 98.968C170.398 99.1493 169.865 99.24 169.278 99.24C168.457 99.24 167.742 99.0693 167.134 98.728C166.537 98.3867 166.073 97.9067 165.742 97.288C165.422 96.6587 165.262 95.9333 165.262 95.112C165.262 94.3013 165.417 93.576 165.726 92.936C166.046 92.2853 166.494 91.7787 167.07 91.416C167.657 91.0533 168.34 90.872 169.118 90.872C170.281 90.872 171.177 91.2187 171.806 91.912C172.436 92.5947 172.75 93.5387 172.75 94.744V94.888C172.74 95.0587 172.686 95.192 172.59 95.288C172.494 95.384 172.356 95.432 172.174 95.432H166.926C166.99 96.136 167.22 96.712 167.614 97.16C168.02 97.5973 168.585 97.816 169.31 97.816C169.705 97.816 170.052 97.7573 170.35 97.64C170.649 97.512 170.985 97.2933 171.358 96.984ZM169.086 92.216C168.5 92.216 168.025 92.392 167.662 92.744C167.31 93.0853 167.081 93.5707 166.974 94.2H171.086C171.044 93.5813 170.852 93.096 170.51 92.744C170.169 92.392 169.694 92.216 169.086 92.216ZM179.887 88.184C179.887 88.0027 179.935 87.864 180.031 87.768C180.138 87.672 180.277 87.624 180.447 87.624H181.023C181.205 87.624 181.343 87.672 181.439 87.768C181.535 87.864 181.583 88.0027 181.583 88.184V98.44C181.583 98.6107 181.535 98.7493 181.439 98.856C181.343 98.952 181.205 99 181.023 99H180.559C180.389 99 180.25 98.952 180.143 98.856C180.047 98.7493 179.999 98.6107 179.999 98.44V97.88C179.445 98.776 178.575 99.224 177.391 99.224C176.73 99.224 176.133 99.0533 175.599 98.712C175.077 98.3707 174.666 97.8853 174.367 97.256C174.069 96.6267 173.919 95.896 173.919 95.064C173.919 94.2427 174.069 93.5173 174.367 92.888C174.677 92.2587 175.098 91.7733 175.631 91.432C176.165 91.0907 176.762 90.92 177.423 90.92C178.511 90.92 179.333 91.2987 179.887 92.056V88.184ZM177.743 97.768C178.394 97.768 178.927 97.528 179.343 97.048C179.759 96.5573 179.967 95.896 179.967 95.064C179.967 94.232 179.759 93.576 179.343 93.096C178.927 92.616 178.394 92.376 177.743 92.376C177.114 92.376 176.607 92.6213 176.223 93.112C175.839 93.6027 175.647 94.2533 175.647 95.064C175.647 95.8853 175.834 96.5413 176.207 97.032C176.591 97.5227 177.103 97.768 177.743 97.768Z" fill="white"/>
<rect x="86" y="71" width="112" height="46" rx="7" stroke="#0063FB" stroke-width="2"/>
</g>
<g filter="url(#filter1_dd_852_12850)">
<rect x="16" y="16" width="68" height="38.002" rx="8" fill="#CCFFEC"/>
<path d="M41.136 28.96C41.136 28.7467 41.2427 28.64 41.456 28.64H41.92C42.1333 28.64 42.24 28.7467 42.24 28.96V39.68C42.24 39.8933 42.1333 40 41.92 40H41.2C41.0293 40 40.896 39.9307 40.8 39.792L37.36 34.576L37.168 34.272C35.888 32.352 34.9707 30.9387 34.416 30.032C34.4587 31.28 34.48 32.72 34.48 34.352V39.68C34.48 39.8933 34.3733 40 34.16 40H33.696C33.4827 40 33.376 39.8933 33.376 39.68V28.96C33.376 28.7467 33.4827 28.64 33.696 28.64H34.416C34.5867 28.64 34.72 28.7093 34.816 28.848L38.24 34.048L38.848 34.992C39.9253 36.624 40.7093 37.84 41.2 38.64C41.1573 37.3707 41.136 35.9253 41.136 34.304V28.96ZM50.5374 38.128C50.612 38.0533 50.692 38.016 50.7774 38.016C50.852 38.016 50.9214 38.048 50.9854 38.112L51.1934 38.304C51.268 38.3787 51.3054 38.4587 51.3054 38.544C51.3054 38.608 51.2734 38.6827 51.2094 38.768C50.6867 39.2907 50.18 39.664 49.6894 39.888C49.1987 40.1013 48.6494 40.208 48.0414 40.208C47.2734 40.208 46.6067 40.0373 46.0414 39.696C45.476 39.3547 45.0387 38.88 44.7294 38.272C44.42 37.6533 44.2654 36.9387 44.2654 36.128C44.2654 35.3067 44.4147 34.5813 44.7134 33.952C45.0227 33.312 45.4547 32.816 46.0094 32.464C46.564 32.1013 47.204 31.92 47.9294 31.92C49.0067 31.92 49.8547 32.256 50.4734 32.928C51.092 33.6 51.4014 34.5067 51.4014 35.648V35.84C51.3907 35.936 51.3534 36.0107 51.2894 36.064C51.236 36.1173 51.1614 36.144 51.0654 36.144H45.3374C45.3694 37.04 45.604 37.7973 46.0414 38.416C46.4894 39.024 47.156 39.328 48.0414 39.328C48.5214 39.328 48.9427 39.2427 49.3054 39.072C49.6787 38.8907 50.0894 38.576 50.5374 38.128ZM47.9294 32.8C47.2254 32.8 46.644 33.0187 46.1854 33.456C45.7374 33.8827 45.4654 34.512 45.3694 35.344H50.3454C50.324 34.5653 50.1 33.9467 49.6734 33.488C49.2467 33.0293 48.6654 32.8 47.9294 32.8ZM62.0621 32.384C62.1048 32.2027 62.2275 32.112 62.4301 32.112H62.8621C62.9795 32.112 63.0595 32.144 63.1021 32.208C63.1555 32.272 63.1661 32.3573 63.1341 32.464L61.0701 39.728C61.0275 39.9093 60.9048 40 60.7021 40H59.9821C59.8008 40 59.6835 39.9093 59.6301 39.728L58.8941 37.28C58.5101 36 58.1528 34.688 57.8221 33.344C57.5021 34.6453 57.1501 35.968 56.7661 37.312L56.0621 39.728C56.0195 39.9093 55.8968 40 55.6941 40H55.0061C54.8035 40 54.6808 39.9093 54.6381 39.728L52.5741 32.464C52.5635 32.4427 52.5581 32.4053 52.5581 32.352C52.5581 32.2773 52.5848 32.2187 52.6381 32.176C52.6915 32.1333 52.7608 32.112 52.8461 32.112H53.2781C53.4808 32.112 53.6035 32.2027 53.6461 32.384L54.4141 35.216C54.7661 36.5067 55.0915 37.792 55.3901 39.072C55.6248 38.1227 55.9715 36.8373 56.4301 35.216L57.2461 32.384C57.2888 32.2027 57.4115 32.112 57.6141 32.112H58.0941C58.2861 32.112 58.4035 32.2027 58.4461 32.384L59.2781 35.216C59.6408 36.528 59.9821 37.8187 60.3021 39.088C60.5475 38.0213 60.8781 36.7307 61.2941 35.216L62.0621 32.384ZM65.817 36.944C65.721 36.944 65.641 36.9173 65.577 36.864C65.5237 36.8107 65.4917 36.736 65.481 36.64L65.257 32.032V28.96C65.257 28.7467 65.3637 28.64 65.577 28.64H66.073C66.2863 28.64 66.393 28.7467 66.393 28.96V32.032L66.169 36.64C66.1583 36.736 66.121 36.8107 66.057 36.864C66.0037 36.9173 65.929 36.944 65.833 36.944H65.817ZM65.801 40.112C65.5877 40.112 65.401 40.032 65.241 39.872C65.081 39.712 65.001 39.52 65.001 39.296C65.001 39.072 65.081 38.88 65.241 38.72C65.401 38.56 65.5877 38.48 65.801 38.48C66.0357 38.48 66.233 38.56 66.393 38.72C66.553 38.88 66.633 39.072 66.633 39.296C66.633 39.52 66.553 39.712 66.393 39.872C66.233 40.032 66.0357 40.112 65.801 40.112Z" fill="#464646"/>
<path d="M48.5858 59.5858L42.8787 53.8787C42.3161 53.3161 41.553 53 40.7574 53H59.2426C58.447 53 57.6839 53.3161 57.1213 53.8787L51.4142 59.5858C50.6332 60.3668 49.3668 60.3668 48.5858 59.5858Z" fill="#CCFFEC"/>
<path d="M41 54V54C41.6403 54 42.2544 54.2544 42.7071 54.7071L47.8787 59.8787C49.0503 61.0503 50.9497 61.0503 52.1213 59.8787L57.2929 54.7071C57.7456 54.2544 58.3597 54 59 54V54" stroke="#2EE69F" stroke-width="2" stroke-linecap="round"/>
<rect x="16" y="16" width="68" height="38.002" rx="8" stroke="#2EE69F" stroke-width="2"/>
</g>
<g filter="url(#filter2_dd_852_12850)">
<circle opacity="0.4" cx="161" cy="7" r="47" fill="#F6F8FB"/>
<path d="M142.502 -13.101C145.825 -9.65257 149.81 -6.90985 154.218 -5.03683C158.626 -3.16381 163.366 -2.19897 168.156 -2.2C173.006 -2.19862 177.806 -3.18645 182.262 -5.10311" fill="#F1F5F9"/>
<path d="M161 19.2667C172.856 19.2667 182.467 9.65571 182.467 -2.2C182.467 -14.0557 172.856 -23.6667 161 -23.6667C149.144 -23.6667 139.533 -14.0557 139.533 -2.2C139.533 9.65571 149.144 19.2667 161 19.2667Z" fill="#F1F5F9"/>
<path d="M189.266 43.293C185.563 39.5661 181.159 36.6084 176.308 34.5901C171.457 32.5718 166.254 31.5328 161 31.5328C155.746 31.5328 150.543 32.5718 145.692 34.5901C140.841 36.6084 136.437 39.5661 132.734 43.293" fill="#F1F5F9"/>
<path d="M161 53C186.405 53 207 32.4051 207 7C207 -18.4051 186.405 -39 161 -39C135.595 -39 115 -18.4051 115 7C115 32.4051 135.595 53 161 53Z" fill="#F1F5F9"/>
<path d="M142.502 -13.101C145.825 -9.65258 149.81 -6.90985 154.218 -5.03683C158.626 -3.16381 163.366 -2.19897 168.156 -2.2C173.006 -2.19862 177.806 -3.18645 182.262 -5.10311M189.266 43.293C185.563 39.5661 181.159 36.6084 176.308 34.5901C171.457 32.5718 166.254 31.5327 161 31.5327C155.746 31.5327 150.543 32.5718 145.692 34.5901C140.841 36.6084 136.437 39.5661 132.734 43.293M182.467 -2.2C182.467 9.65571 172.856 19.2667 161 19.2667C149.144 19.2667 139.533 9.65571 139.533 -2.2C139.533 -14.0557 149.144 -23.6667 161 -23.6667C172.856 -23.6667 182.467 -14.0557 182.467 -2.2ZM207 7C207 32.4051 186.405 53 161 53C135.595 53 115 32.4051 115 7C115 -18.4051 135.595 -39 161 -39C186.405 -39 207 -18.4051 207 7Z" stroke="#C3CCD9" stroke-width="4" stroke-linecap="round" stroke-linejoin="round"/>
</g>
<g filter="url(#filter3_dd_852_12850)">
<rect x="204" y="132" width="64" height="64" rx="8" fill="#F1F5F9"/>
<path d="M227 159C230.314 159 233 156.314 233 153C233 149.686 230.314 147 227 147C223.686 147 221 149.686 221 153C221 156.314 223.686 159 227 159Z" stroke="#C3CCD9" stroke-width="2" stroke-linecap="round" stroke-linejoin="round"/>
<path d="M255 181L244.092 163.201C243.85 162.836 243.523 162.536 243.139 162.327C242.755 162.117 242.326 162.005 241.889 162C241.453 161.995 241.021 162.097 240.632 162.298C240.244 162.498 239.91 162.791 239.66 163.151L232.522 173.383L228.097 169.823C227.807 169.589 227.471 169.419 227.111 169.322C226.752 169.226 226.376 169.206 226.008 169.263C225.641 169.321 225.289 169.454 224.975 169.655C224.662 169.857 224.393 170.121 224.187 170.432L217 181" stroke="#C3CCD9" stroke-width="2" stroke-linecap="round" stroke-linejoin="round"/>
<rect x="204.5" y="132.5" width="63" height="63" rx="7.5" stroke="#C3CCD9"/>
</g>
<g filter="url(#filter4_dd_852_12850)">
<g filter="url(#filter5_dd_852_12850)">
<path fill-rule="evenodd" clip-rule="evenodd" d="M40.992 89.9347C39.5477 88.7169 38.1151 88.006 36.6828 88.006C34.8582 88.006 33.3024 88.5866 32.0422 89.8201C29.3192 92.4824 29.3193 96.8225 32.0423 99.486C32.2939 99.7324 33.5428 101.034 35.4393 103.023C36.1928 103.814 36.999 104.66 37.8044 105.507L38.5827 106.326L38.8776 106.636C38.9399 106.698 38.9816 106.742 39.0423 106.808L39.0485 106.815C39.1347 106.91 39.1927 106.973 39.2388 107.023C39.8347 107.666 40.2596 107.983 40.9926 108C41.7052 108 42.1385 107.679 42.746 107.023C42.7918 106.973 42.8496 106.91 42.9352 106.816L42.9423 106.808C43.0028 106.742 43.0445 106.698 43.0773 106.666C43.1267 106.615 43.1657 106.575 43.2046 106.536C43.3487 106.388 43.4927 106.241 44.1697 105.548L46.5355 103.127C48.5603 101.055 49.9387 99.6446 49.963 99.6204C52.68 96.9626 52.68 92.6222 49.9567 89.96C48.6187 88.6507 47.084 88 45.2778 88C43.8775 88 42.3939 88.7403 40.992 89.9347ZM41.0677 105.918C41.0409 105.948 41.0158 105.975 40.9923 106C40.9686 105.975 40.9433 105.947 40.9163 105.918C40.878 105.875 40.8286 105.82 40.7368 105.717L40.7208 105.699C40.6313 105.599 40.5624 105.525 40.4914 105.454C40.489 105.452 40.4868 105.449 40.4847 105.447C40.4639 105.423 40.4427 105.401 40.2157 105.156L39.4084 104.288C38.5731 103.39 37.7369 102.492 36.9349 101.633C34.9431 99.4969 33.6685 98.1386 33.3757 97.8454C31.5416 96.0114 31.5416 93.0649 33.3754 91.2322C34.2134 90.3935 35.228 90.0064 36.526 90.0064C37.5157 90.0064 38.8039 90.7807 40.1767 92.1349L41.0131 92.96L41.8369 92.1212C43.117 90.8181 44.476 90.0001 45.4339 90.0001C46.6779 90.0001 47.6775 90.4333 48.6248 91.381C50.4584 93.2135 50.4584 96.16 48.6249 97.9936C48.5782 98.041 47.3422 99.3337 45.0393 101.743L42.5882 104.307L41.4741 105.473C41.4213 105.526 41.3524 105.6 41.263 105.7L41.2455 105.719C41.1547 105.821 41.1056 105.876 41.0677 105.918Z" fill="white"/>
</g>
<path fill-rule="evenodd" clip-rule="evenodd" d="M41.2422 105.777C41.3219 105.694 41.8186 105.152 42.0003 104.96C42.6433 104.282 44.656 102.197 44.9555 101.881C44.599 102.257 48.3456 98.3254 48.7693 97.8513C50.1452 96.3116 50.3776 94.1486 49.4152 92.4735C48.4029 90.7118 46.9548 90 45.4896 90C44.6455 90 44.0232 90.2937 42.6935 91.3214L40.988 92.9087L40.3121 92.262L39.3628 91.3513C38.1816 90.3474 37.2925 90 36.5086 90C35.9135 90 35.4296 90.0633 34.8327 90.3015C33.9245 90.6638 33.1327 91.3449 32.5058 92.4639C31.58 94.1166 31.9636 96.3237 33.3424 97.8464C33.3255 97.8278 35.4034 100.036 36.7382 101.479C37.0761 101.844 37.2627 102.043 38.1774 103.016L38.1918 103.032C38.8075 103.687 39.163 104.067 39.4989 104.431C39.5359 104.471 40.0979 105.104 40.2948 105.314C40.4074 105.434 40.5124 105.542 40.6112 105.64C40.7675 105.793 40.9045 105.915 41.0156 106C41.0716 105.951 41.1456 105.879 41.2422 105.777Z" fill="#0063FB"/>
</g>
<g filter="url(#filter6_dd_852_12850)">
<rect x="233.5" y="88.5" width="15" height="15" rx="1.5" fill="#0063FB" stroke="#0063FB"/>
<path d="M240.226 97.5671L243.903 93.1679C244.179 92.8383 244.669 92.7945 244.999 93.0699C245.329 93.3454 245.372 93.8359 245.097 94.1655L240.871 99.2211C240.577 99.573 240.044 99.5953 239.721 99.269L237.336 96.8555C237.034 96.55 237.037 96.0575 237.342 95.7556C237.648 95.4536 238.14 95.4565 238.442 95.762L240.226 97.5671Z" fill="white"/>
</g>
<g filter="url(#filter7_dd_852_12850)">
<rect x="22" y="133" width="64" height="32" rx="4" fill="white"/>
<g filter="url(#filter8_i_852_12850)">
<path d="M22 137C22 134.791 23.7909 133 26 133H54V165H26C23.7909 165 22 163.209 22 161V137Z" fill="white"/>
<path fill-rule="evenodd" clip-rule="evenodd" d="M35.3333 142.444H45.1111C45.3469 142.444 45.573 142.538 45.7397 142.705C45.9064 142.871 46 143.098 46 143.333C46 143.569 45.9064 143.795 45.7397 143.962C45.573 144.129 45.3469 144.222 45.1111 144.222H35.3333C35.0976 144.222 34.8715 144.129 34.7048 143.962C34.5381 143.795 34.4444 143.569 34.4444 143.333C34.4444 143.098 34.5381 142.871 34.7048 142.705C34.8715 142.538 35.0976 142.444 35.3333 142.444ZM35.3333 147.778H45.1111C45.3469 147.778 45.573 147.871 45.7397 148.038C45.9064 148.205 46 148.431 46 148.667C46 148.902 45.9064 149.129 45.7397 149.295C45.573 149.462 45.3469 149.556 45.1111 149.556H35.3333C35.0976 149.556 34.8715 149.462 34.7048 149.295C34.5381 149.129 34.4444 148.902 34.4444 148.667C34.4444 148.431 34.5381 148.205 34.7048 148.038C34.8715 147.871 35.0976 147.778 35.3333 147.778ZM35.3333 153.111H45.1111C45.3469 153.111 45.573 153.205 45.7397 153.371C45.9064 153.538 46 153.764 46 154C46 154.236 45.9064 154.462 45.7397 154.629C45.573 154.795 45.3469 154.889 45.1111 154.889H35.3333C35.0976 154.889 34.8715 154.795 34.7048 154.629C34.5381 154.462 34.4444 154.236 34.4444 154C34.4444 153.764 34.5381 153.538 34.7048 153.371C34.8715 153.205 35.0976 153.111 35.3333 153.111ZM31.3333 147.333C31.687 147.333 32.0261 147.474 32.2761 147.724C32.5262 147.974 32.6667 148.313 32.6667 148.667C32.6667 149.02 32.5262 149.359 32.2761 149.609C32.0261 149.86 31.687 150 31.3333 150C30.9797 150 30.6406 149.86 30.3905 149.609C30.1405 149.359 30 149.02 30 148.667C30 148.313 30.1405 147.974 30.3905 147.724C30.6406 147.474 30.9797 147.333 31.3333 147.333ZM31.3333 152.667C31.687 152.667 32.0261 152.807 32.2761 153.057C32.5262 153.307 32.6667 153.646 32.6667 154C32.6667 154.354 32.5262 154.693 32.2761 154.943C32.0261 155.193 31.687 155.333 31.3333 155.333C30.9797 155.333 30.6406 155.193 30.3905 154.943C30.1405 154.693 30 154.354 30 154C30 153.646 30.1405 153.307 30.3905 153.057C30.6406 152.807 30.9797 152.667 31.3333 152.667ZM31.3333 142C31.687 142 32.0261 142.14 32.2761 142.391C32.5262 142.641 32.6667 142.98 32.6667 143.333C32.6667 143.687 32.5262 144.026 32.2761 144.276C32.0261 144.526 31.687 144.667 31.3333 144.667C30.9797 144.667 30.6406 144.526 30.3905 144.276C30.1405 144.026 30 143.687 30 143.333C30 142.98 30.1405 142.641 30.3905 142.391C30.6406 142.14 30.9797 142 31.3333 142Z" fill="#767676"/>
</g>
<path d="M68 142H63V147H68V142Z" stroke="#767676" stroke-width="1.5" stroke-linecap="round" stroke-linejoin="round"/>
<path d="M68 151H63V156H68V151Z" stroke="#767676" stroke-width="1.5" stroke-linecap="round" stroke-linejoin="round"/>
<path d="M77 142H72V147H77V142Z" stroke="#767676" stroke-width="1.5" stroke-linecap="round" stroke-linejoin="round"/>
<path d="M77 151H72V156H77V151Z" stroke="#767676" stroke-width="1.5" stroke-linecap="round" stroke-linejoin="round"/>
</g>
<g filter="url(#filter9_dd_852_12850)">
<rect x="221" y="39" width="43" height="24" rx="4" fill="#FFF5C8"/>
<path d="M232.993 55.18C232.361 55.18 231.789 55.084 231.277 54.892C230.773 54.692 230.241 54.368 229.681 53.92C229.609 53.856 229.573 53.796 229.573 53.74C229.573 53.692 229.597 53.64 229.645 53.584L229.837 53.356C229.877 53.292 229.937 53.26 230.017 53.26C230.081 53.26 230.133 53.28 230.173 53.32C230.741 53.76 231.237 54.06 231.661 54.22C232.085 54.372 232.529 54.448 232.993 54.448C233.641 54.448 234.169 54.288 234.577 53.968C234.985 53.64 235.189 53.196 235.189 52.636C235.189 52.276 235.093 51.988 234.901 51.772C234.709 51.556 234.445 51.388 234.109 51.268C233.781 51.148 233.313 51.02 232.705 50.884C231.977 50.724 231.409 50.552 231.001 50.368C230.601 50.184 230.309 49.952 230.125 49.672C229.941 49.392 229.849 49.032 229.849 48.592C229.849 48.128 229.981 47.724 230.245 47.38C230.517 47.028 230.877 46.76 231.325 46.576C231.773 46.392 232.257 46.3 232.777 46.3C233.345 46.3 233.861 46.384 234.325 46.552C234.797 46.72 235.261 46.988 235.717 47.356C235.789 47.404 235.825 47.46 235.825 47.524C235.825 47.572 235.801 47.628 235.753 47.692L235.573 47.908C235.533 47.972 235.473 48.004 235.393 48.004C235.329 48.004 235.273 47.984 235.225 47.944C234.817 47.608 234.421 47.372 234.037 47.236C233.661 47.1 233.245 47.032 232.789 47.032C232.373 47.032 232.005 47.1 231.685 47.236C231.365 47.364 231.113 47.544 230.929 47.776C230.753 48.008 230.665 48.272 230.665 48.568C230.665 48.888 230.753 49.144 230.929 49.336C231.113 49.528 231.365 49.68 231.685 49.792C232.013 49.904 232.489 50.032 233.113 50.176C233.833 50.344 234.401 50.532 234.817 50.74C235.241 50.948 235.549 51.204 235.741 51.508C235.933 51.804 236.029 52.172 236.029 52.612C236.029 53.124 235.897 53.576 235.633 53.968C235.377 54.352 235.017 54.652 234.553 54.868C234.089 55.076 233.569 55.18 232.993 55.18ZM239.953 55.156C239.401 55.156 238.909 55.024 238.477 54.76C238.045 54.496 237.709 54.132 237.469 53.668C237.229 53.196 237.109 52.656 237.109 52.048C237.109 51.44 237.229 50.904 237.469 50.44C237.709 49.968 238.045 49.6 238.477 49.336C238.909 49.072 239.401 48.94 239.953 48.94C240.505 48.94 240.997 49.072 241.429 49.336C241.861 49.6 242.197 49.968 242.437 50.44C242.677 50.904 242.797 51.44 242.797 52.048C242.797 52.656 242.677 53.196 242.437 53.668C242.197 54.132 241.861 54.496 241.429 54.76C240.997 55.024 240.505 55.156 239.953 55.156ZM239.953 54.496C240.569 54.496 241.061 54.272 241.429 53.824C241.797 53.368 241.981 52.776 241.981 52.048C241.981 51.32 241.797 50.732 241.429 50.284C241.061 49.828 240.569 49.6 239.953 49.6C239.337 49.6 238.845 49.828 238.477 50.284C238.109 50.732 237.925 51.32 237.925 52.048C237.925 52.776 238.109 53.368 238.477 53.824C238.845 54.272 239.337 54.496 239.953 54.496ZM244.425 55C244.265 55 244.185 54.92 244.185 54.76V46.72C244.185 46.56 244.265 46.48 244.425 46.48H244.737C244.897 46.48 244.977 46.56 244.977 46.72V54.76C244.977 54.92 244.897 55 244.737 55H244.425ZM251.035 46.72C251.035 46.56 251.115 46.48 251.275 46.48H251.587C251.747 46.48 251.827 46.56 251.827 46.72V54.76C251.827 54.92 251.747 55 251.587 55H251.335C251.175 55 251.095 54.92 251.095 54.76V53.98C250.879 54.356 250.595 54.644 250.243 54.844C249.891 55.044 249.475 55.144 248.995 55.144C248.491 55.144 248.043 55.016 247.651 54.76C247.259 54.496 246.951 54.132 246.727 53.668C246.503 53.196 246.391 52.656 246.391 52.048C246.391 51.44 246.503 50.904 246.727 50.44C246.959 49.968 247.275 49.604 247.675 49.348C248.075 49.084 248.523 48.952 249.019 48.952C249.931 48.952 250.603 49.292 251.035 49.972V46.72ZM249.055 54.472C249.655 54.472 250.139 54.26 250.507 53.836C250.883 53.404 251.071 52.808 251.071 52.048C251.071 51.296 250.883 50.704 250.507 50.272C250.139 49.84 249.655 49.624 249.055 49.624C248.503 49.624 248.055 49.848 247.711 50.296C247.375 50.744 247.207 51.328 247.207 52.048C247.207 52.776 247.375 53.364 247.711 53.812C248.047 54.252 248.495 54.472 249.055 54.472ZM254.363 52.708C254.291 52.708 254.231 52.688 254.183 52.648C254.143 52.608 254.119 52.552 254.111 52.48L253.943 49.024V46.72C253.943 46.56 254.023 46.48 254.183 46.48H254.555C254.715 46.48 254.795 46.56 254.795 46.72V49.024L254.627 52.48C254.619 52.552 254.591 52.608 254.543 52.648C254.503 52.688 254.447 52.708 254.375 52.708H254.363ZM254.351 55.084C254.191 55.084 254.051 55.024 253.931 54.904C253.811 54.784 253.751 54.64 253.751 54.472C253.751 54.304 253.811 54.16 253.931 54.04C254.051 53.92 254.191 53.86 254.351 53.86C254.527 53.86 254.675 53.92 254.795 54.04C254.915 54.16 254.975 54.304 254.975 54.472C254.975 54.64 254.915 54.784 254.795 54.904C254.675 55.024 254.527 55.084 254.351 55.084Z" fill="#6B4206"/>
</g>
<g filter="url(#filter10_dd_852_12850)">
<rect x="118" y="140" width="47" height="32" rx="16" fill="#E5E7EB"/>
<path d="M133.924 160.192C133.268 160.192 132.68 160.1 132.16 159.916C131.648 159.724 131.12 159.404 130.576 158.956C130.464 158.868 130.408 158.764 130.408 158.644C130.408 158.54 130.448 158.444 130.528 158.356L130.804 158.032C130.892 157.92 130.992 157.864 131.104 157.864C131.192 157.864 131.292 157.908 131.404 157.996C131.884 158.38 132.312 158.644 132.688 158.788C133.072 158.932 133.492 159.004 133.948 159.004C134.5 159.004 134.948 158.88 135.292 158.632C135.636 158.376 135.808 158.028 135.808 157.588C135.808 157.3 135.72 157.076 135.544 156.916C135.368 156.748 135.14 156.62 134.86 156.532C134.588 156.444 134.144 156.328 133.528 156.184C132.784 156.008 132.204 155.816 131.788 155.608C131.372 155.4 131.072 155.152 130.888 154.864C130.712 154.568 130.624 154.196 130.624 153.748C130.624 153.276 130.76 152.852 131.032 152.476C131.304 152.1 131.676 151.808 132.148 151.6C132.628 151.392 133.164 151.288 133.756 151.288C134.356 151.288 134.884 151.368 135.34 151.528C135.804 151.688 136.268 151.948 136.732 152.308C136.852 152.404 136.912 152.504 136.912 152.608C136.912 152.696 136.872 152.792 136.792 152.896L136.528 153.208C136.432 153.32 136.332 153.376 136.228 153.376C136.132 153.376 136.032 153.336 135.928 153.256C135.544 152.96 135.188 152.756 134.86 152.644C134.532 152.532 134.16 152.476 133.744 152.476C133.216 152.476 132.788 152.592 132.46 152.824C132.132 153.056 131.968 153.348 131.968 153.7C131.968 153.956 132.044 154.16 132.196 154.312C132.348 154.464 132.568 154.588 132.856 154.684C133.144 154.78 133.588 154.896 134.188 155.032C134.916 155.208 135.492 155.396 135.916 155.596C136.34 155.788 136.656 156.036 136.864 156.34C137.072 156.644 137.176 157.032 137.176 157.504C137.176 158.032 137.04 158.5 136.768 158.908C136.496 159.316 136.116 159.632 135.628 159.856C135.14 160.08 134.572 160.192 133.924 160.192ZM141.072 160.18C140.488 160.18 139.968 160.048 139.512 159.784C139.064 159.52 138.712 159.152 138.456 158.68C138.2 158.2 138.072 157.652 138.072 157.036C138.072 156.42 138.2 155.876 138.456 155.404C138.712 154.932 139.064 154.564 139.512 154.3C139.968 154.036 140.488 153.904 141.072 153.904C141.648 153.904 142.164 154.036 142.62 154.3C143.076 154.564 143.432 154.936 143.688 155.416C143.944 155.888 144.072 156.428 144.072 157.036C144.072 157.652 143.944 158.2 143.688 158.68C143.432 159.152 143.076 159.52 142.62 159.784C142.164 160.048 141.648 160.18 141.072 160.18ZM141.072 159.112C141.584 159.112 141.996 158.924 142.308 158.548C142.62 158.164 142.776 157.66 142.776 157.036C142.776 156.42 142.62 155.924 142.308 155.548C141.996 155.172 141.584 154.984 141.072 154.984C140.56 154.984 140.148 155.172 139.836 155.548C139.524 155.924 139.368 156.42 139.368 157.036C139.368 157.66 139.524 158.164 139.836 158.548C140.148 158.924 140.56 159.112 141.072 159.112ZM147.68 152.368C147.4 152.368 147.196 152.436 147.068 152.572C146.94 152.708 146.876 152.94 146.876 153.268V154.084H147.848C147.984 154.084 148.088 154.12 148.16 154.192C148.232 154.264 148.268 154.368 148.268 154.504V154.636C148.268 154.764 148.232 154.868 148.16 154.948C148.088 155.02 147.984 155.056 147.848 155.056H146.876V159.58C146.876 159.708 146.84 159.812 146.768 159.892C146.696 159.964 146.592 160 146.456 160H146.024C145.896 160 145.792 159.964 145.712 159.892C145.64 159.812 145.604 159.708 145.604 159.58V155.056H144.968C144.84 155.056 144.736 155.02 144.656 154.948C144.584 154.868 144.548 154.764 144.548 154.636V154.504C144.548 154.368 144.584 154.264 144.656 154.192C144.736 154.12 144.84 154.084 144.968 154.084H145.604V153.184C145.604 152.568 145.76 152.104 146.072 151.792C146.392 151.472 146.852 151.312 147.452 151.312C147.724 151.312 148 151.34 148.28 151.396C148.488 151.452 148.592 151.58 148.592 151.78C148.592 151.836 148.588 151.88 148.58 151.912L148.544 152.08C148.496 152.288 148.34 152.392 148.076 152.392L147.932 152.38C147.876 152.372 147.792 152.368 147.68 152.368ZM151.603 153.904C152.403 153.904 153.019 154.092 153.451 154.468C153.883 154.836 154.099 155.328 154.099 155.944V159.58C154.099 159.708 154.063 159.812 153.991 159.892C153.919 159.964 153.815 160 153.679 160H153.367C153.239 160 153.135 159.964 153.055 159.892C152.983 159.812 152.947 159.708 152.947 159.58V159.316C152.755 159.596 152.491 159.812 152.155 159.964C151.819 160.116 151.427 160.192 150.979 160.192C150.363 160.192 149.855 160.056 149.455 159.784C149.063 159.504 148.867 159.084 148.867 158.524C148.867 157.9 149.099 157.44 149.563 157.144C150.035 156.84 150.687 156.612 151.519 156.46L152.875 156.208V155.992C152.875 155.664 152.759 155.412 152.527 155.236C152.303 155.052 152.003 154.96 151.627 154.96C151.307 154.96 151.027 155.016 150.787 155.128C150.555 155.232 150.303 155.408 150.031 155.656C149.927 155.744 149.827 155.788 149.731 155.788C149.635 155.788 149.535 155.744 149.431 155.656L149.239 155.488C149.135 155.392 149.083 155.288 149.083 155.176C149.083 155.072 149.131 154.972 149.227 154.876C149.571 154.548 149.935 154.304 150.319 154.144C150.703 153.984 151.131 153.904 151.603 153.904ZM151.159 159.172C151.639 159.172 152.043 159.044 152.371 158.788C152.707 158.532 152.875 158.164 152.875 157.684V157.132L151.831 157.348C151.247 157.468 150.815 157.604 150.535 157.756C150.255 157.908 150.115 158.14 150.115 158.452C150.115 158.676 150.207 158.852 150.391 158.98C150.575 159.108 150.831 159.172 151.159 159.172Z" fill="#464646"/>
</g>
</g>
<defs>
<filter id="filter0_dd_852_12850" x="57" y="56" width="170" height="104" filterUnits="userSpaceOnUse" color-interpolation-filters="sRGB">
<feFlood flood-opacity="0" result="BackgroundImageFix"/>
<feColorMatrix in="SourceAlpha" type="matrix" values="0 0 0 0 0 0 0 0 0 0 0 0 0 0 0 0 0 0 127 0" result="hardAlpha"/>
<feOffset dy="14"/>
<feGaussianBlur stdDeviation="14"/>
<feColorMatrix type="matrix" values="0 0 0 0 0.272549 0 0 0 0 0.272549 0 0 0 0 0.272549 0 0 0 0.25 0"/>
<feBlend mode="normal" in2="BackgroundImageFix" result="effect1_dropShadow_852_12850"/>
<feColorMatrix in="SourceAlpha" type="matrix" values="0 0 0 0 0 0 0 0 0 0 0 0 0 0 0 0 0 0 127 0" result="hardAlpha"/>
<feOffset dy="9"/>
<feGaussianBlur stdDeviation="6"/>
<feColorMatrix type="matrix" values="0 0 0 0 0.272549 0 0 0 0 0.272549 0 0 0 0 0.272549 0 0 0 0.22 0"/>
<feBlend mode="normal" in2="effect1_dropShadow_852_12850" result="effect2_dropShadow_852_12850"/>
<feBlend mode="normal" in="SourceGraphic" in2="effect2_dropShadow_852_12850" result="shape"/>
</filter>
<filter id="filter1_dd_852_12850" x="-5" y="5" width="110" height="87" filterUnits="userSpaceOnUse" color-interpolation-filters="sRGB">
<feFlood flood-opacity="0" result="BackgroundImageFix"/>
<feColorMatrix in="SourceAlpha" type="matrix" values="0 0 0 0 0 0 0 0 0 0 0 0 0 0 0 0 0 0 127 0" result="hardAlpha"/>
<feOffset dy="10"/>
<feGaussianBlur stdDeviation="10"/>
<feColorMatrix type="matrix" values="0 0 0 0 0.272549 0 0 0 0 0.272549 0 0 0 0 0.272549 0 0 0 0.19 0"/>
<feBlend mode="normal" in2="BackgroundImageFix" result="effect1_dropShadow_852_12850"/>
<feColorMatrix in="SourceAlpha" type="matrix" values="0 0 0 0 0 0 0 0 0 0 0 0 0 0 0 0 0 0 127 0" result="hardAlpha"/>
<feOffset dy="6"/>
<feGaussianBlur stdDeviation="4"/>
<feColorMatrix type="matrix" values="0 0 0 0 0.272549 0 0 0 0 0.272549 0 0 0 0 0.272549 0 0 0 0.23 0"/>
<feBlend mode="normal" in2="effect1_dropShadow_852_12850" result="effect2_dropShadow_852_12850"/>
<feBlend mode="normal" in="SourceGraphic" in2="effect2_dropShadow_852_12850" result="shape"/>
</filter>
<filter id="filter2_dd_852_12850" x="105" y="-46" width="112" height="112" filterUnits="userSpaceOnUse" color-interpolation-filters="sRGB">
<feFlood flood-opacity="0" result="BackgroundImageFix"/>
<feColorMatrix in="SourceAlpha" type="matrix" values="0 0 0 0 0 0 0 0 0 0 0 0 0 0 0 0 0 0 127 0" result="hardAlpha"/>
<feOffset dy="3"/>
<feGaussianBlur stdDeviation="3"/>
<feColorMatrix type="matrix" values="0 0 0 0 0.272549 0 0 0 0 0.272549 0 0 0 0 0.272549 0 0 0 0.16 0"/>
<feBlend mode="normal" in2="BackgroundImageFix" result="effect1_dropShadow_852_12850"/>
<feColorMatrix in="SourceAlpha" type="matrix" values="0 0 0 0 0 0 0 0 0 0 0 0 0 0 0 0 0 0 127 0" result="hardAlpha"/>
<feOffset dy="3"/>
<feGaussianBlur stdDeviation="4"/>
<feColorMatrix type="matrix" values="0 0 0 0 0.272549 0 0 0 0 0.272549 0 0 0 0 0.272549 0 0 0 0.24 0"/>
<feBlend mode="normal" in2="effect1_dropShadow_852_12850" result="effect2_dropShadow_852_12850"/>
<feBlend mode="normal" in="SourceGraphic" in2="effect2_dropShadow_852_12850" result="shape"/>
</filter>
<filter id="filter3_dd_852_12850" x="176" y="118" width="120" height="120" filterUnits="userSpaceOnUse" color-interpolation-filters="sRGB">
<feFlood flood-opacity="0" result="BackgroundImageFix"/>
<feColorMatrix in="SourceAlpha" type="matrix" values="0 0 0 0 0 0 0 0 0 0 0 0 0 0 0 0 0 0 127 0" result="hardAlpha"/>
<feOffset dy="14"/>
<feGaussianBlur stdDeviation="14"/>
<feColorMatrix type="matrix" values="0 0 0 0 0.272549 0 0 0 0 0.272549 0 0 0 0 0.272549 0 0 0 0.25 0"/>
<feBlend mode="normal" in2="BackgroundImageFix" result="effect1_dropShadow_852_12850"/>
<feColorMatrix in="SourceAlpha" type="matrix" values="0 0 0 0 0 0 0 0 0 0 0 0 0 0 0 0 0 0 127 0" result="hardAlpha"/>
<feOffset dy="9"/>
<feGaussianBlur stdDeviation="6"/>
<feColorMatrix type="matrix" values="0 0 0 0 0.272549 0 0 0 0 0.272549 0 0 0 0 0.272549 0 0 0 0.22 0"/>
<feBlend mode="normal" in2="effect1_dropShadow_852_12850" result="effect2_dropShadow_852_12850"/>
<feBlend mode="normal" in="SourceGraphic" in2="effect2_dropShadow_852_12850" result="shape"/>
</filter>
<filter id="filter4_dd_852_12850" x="-1" y="65" width="84" height="84" filterUnits="userSpaceOnUse" color-interpolation-filters="sRGB">
<feFlood flood-opacity="0" result="BackgroundImageFix"/>
<feColorMatrix in="SourceAlpha" type="matrix" values="0 0 0 0 0 0 0 0 0 0 0 0 0 0 0 0 0 0 127 0" result="hardAlpha"/>
<feOffset dy="10"/>
<feGaussianBlur stdDeviation="10"/>
<feColorMatrix type="matrix" values="0 0 0 0 0.272549 0 0 0 0 0.272549 0 0 0 0 0.272549 0 0 0 0.19 0"/>
<feBlend mode="normal" in2="BackgroundImageFix" result="effect1_dropShadow_852_12850"/>
<feColorMatrix in="SourceAlpha" type="matrix" values="0 0 0 0 0 0 0 0 0 0 0 0 0 0 0 0 0 0 127 0" result="hardAlpha"/>
<feOffset dy="6"/>
<feGaussianBlur stdDeviation="4"/>
<feColorMatrix type="matrix" values="0 0 0 0 0.272549 0 0 0 0 0.272549 0 0 0 0 0.272549 0 0 0 0.23 0"/>
<feBlend mode="normal" in2="effect1_dropShadow_852_12850" result="effect2_dropShadow_852_12850"/>
<feBlend mode="normal" in="SourceGraphic" in2="effect2_dropShadow_852_12850" result="shape"/>
</filter>
<filter id="filter5_dd_852_12850" x="24" y="83" width="34" height="32" filterUnits="userSpaceOnUse" color-interpolation-filters="sRGB">
<feFlood flood-opacity="0" result="BackgroundImageFix"/>
<feColorMatrix in="SourceAlpha" type="matrix" values="0 0 0 0 0 0 0 0 0 0 0 0 0 0 0 0 0 0 127 0" result="hardAlpha"/>
<feOffset dy="1"/>
<feGaussianBlur stdDeviation="0.5"/>
<feColorMatrix type="matrix" values="0 0 0 0 0.272549 0 0 0 0 0.272549 0 0 0 0 0.272549 0 0 0 0.24 0"/>
<feBlend mode="normal" in2="BackgroundImageFix" result="effect1_dropShadow_852_12850"/>
<feColorMatrix in="SourceAlpha" type="matrix" values="0 0 0 0 0 0 0 0 0 0 0 0 0 0 0 0 0 0 127 0" result="hardAlpha"/>
<feOffset dy="1"/>
<feGaussianBlur stdDeviation="3"/>
<feColorMatrix type="matrix" values="0 0 0 0 0.272549 0 0 0 0 0.272549 0 0 0 0 0.272549 0 0 0 0.16 0"/>
<feBlend mode="normal" in2="effect1_dropShadow_852_12850" result="effect2_dropShadow_852_12850"/>
<feBlend mode="normal" in="SourceGraphic" in2="effect2_dropShadow_852_12850" result="shape"/>
</filter>
<filter id="filter6_dd_852_12850" x="213" y="76" width="56" height="62" filterUnits="userSpaceOnUse" color-interpolation-filters="sRGB">
<feFlood flood-opacity="0" result="BackgroundImageFix"/>
<feColorMatrix in="SourceAlpha" type="matrix" values="0 0 0 0 0 0 0 0 0 0 0 0 0 0 0 0 0 0 127 0" result="hardAlpha"/>
<feOffset dy="10"/>
<feGaussianBlur stdDeviation="10"/>
<feColorMatrix type="matrix" values="0 0 0 0 0.272549 0 0 0 0 0.272549 0 0 0 0 0.272549 0 0 0 0.19 0"/>
<feBlend mode="normal" in2="BackgroundImageFix" result="effect1_dropShadow_852_12850"/>
<feColorMatrix in="SourceAlpha" type="matrix" values="0 0 0 0 0 0 0 0 0 0 0 0 0 0 0 0 0 0 127 0" result="hardAlpha"/>
<feOffset dy="6"/>
<feGaussianBlur stdDeviation="4"/>
<feColorMatrix type="matrix" values="0 0 0 0 0.272549 0 0 0 0 0.272549 0 0 0 0 0.272549 0 0 0 0.23 0"/>
<feBlend mode="normal" in2="effect1_dropShadow_852_12850" result="effect2_dropShadow_852_12850"/>
<feBlend mode="normal" in="SourceGraphic" in2="effect2_dropShadow_852_12850" result="shape"/>
</filter>
<filter id="filter7_dd_852_12850" x="16" y="128" width="76" height="44" filterUnits="userSpaceOnUse" color-interpolation-filters="sRGB">
<feFlood flood-opacity="0" result="BackgroundImageFix"/>
<feColorMatrix in="SourceAlpha" type="matrix" values="0 0 0 0 0 0 0 0 0 0 0 0 0 0 0 0 0 0 127 0" result="hardAlpha"/>
<feOffset dy="1"/>
<feGaussianBlur stdDeviation="0.5"/>
<feColorMatrix type="matrix" values="0 0 0 0 0.272549 0 0 0 0 0.272549 0 0 0 0 0.272549 0 0 0 0.24 0"/>
<feBlend mode="normal" in2="BackgroundImageFix" result="effect1_dropShadow_852_12850"/>
<feColorMatrix in="SourceAlpha" type="matrix" values="0 0 0 0 0 0 0 0 0 0 0 0 0 0 0 0 0 0 127 0" result="hardAlpha"/>
<feOffset dy="1"/>
<feGaussianBlur stdDeviation="3"/>
<feColorMatrix type="matrix" values="0 0 0 0 0.272549 0 0 0 0 0.272549 0 0 0 0 0.272549 0 0 0 0.16 0"/>
<feBlend mode="normal" in2="effect1_dropShadow_852_12850" result="effect2_dropShadow_852_12850"/>
<feBlend mode="normal" in="SourceGraphic" in2="effect2_dropShadow_852_12850" result="shape"/>
</filter>
<filter id="filter8_i_852_12850" x="22" y="133" width="32" height="32" filterUnits="userSpaceOnUse" color-interpolation-filters="sRGB">
<feFlood flood-opacity="0" result="BackgroundImageFix"/>
<feBlend mode="normal" in="SourceGraphic" in2="BackgroundImageFix" result="shape"/>
<feColorMatrix in="SourceAlpha" type="matrix" values="0 0 0 0 0 0 0 0 0 0 0 0 0 0 0 0 0 0 127 0" result="hardAlpha"/>
<feOffset dx="-1"/>
<feComposite in2="hardAlpha" operator="arithmetic" k2="-1" k3="1"/>
<feColorMatrix type="matrix" values="0 0 0 0 0.764706 0 0 0 0 0.8 0 0 0 0 0.85098 0 0 0 1 0"/>
<feBlend mode="normal" in2="shape" result="effect1_innerShadow_852_12850"/>
</filter>
<filter id="filter9_dd_852_12850" x="213" y="34" width="59" height="40" filterUnits="userSpaceOnUse" color-interpolation-filters="sRGB">
<feFlood flood-opacity="0" result="BackgroundImageFix"/>
<feColorMatrix in="SourceAlpha" type="matrix" values="0 0 0 0 0 0 0 0 0 0 0 0 0 0 0 0 0 0 127 0" result="hardAlpha"/>
<feOffset dy="3"/>
<feGaussianBlur stdDeviation="3"/>
<feColorMatrix type="matrix" values="0 0 0 0 0.272549 0 0 0 0 0.272549 0 0 0 0 0.272549 0 0 0 0.16 0"/>
<feBlend mode="normal" in2="BackgroundImageFix" result="effect1_dropShadow_852_12850"/>
<feColorMatrix in="SourceAlpha" type="matrix" values="0 0 0 0 0 0 0 0 0 0 0 0 0 0 0 0 0 0 127 0" result="hardAlpha"/>
<feOffset dy="3"/>
<feGaussianBlur stdDeviation="4"/>
<feColorMatrix type="matrix" values="0 0 0 0 0.272549 0 0 0 0 0.272549 0 0 0 0 0.272549 0 0 0 0.24 0"/>
<feBlend mode="normal" in2="effect1_dropShadow_852_12850" result="effect2_dropShadow_852_12850"/>
<feBlend mode="normal" in="SourceGraphic" in2="effect2_dropShadow_852_12850" result="shape"/>
</filter>
<filter id="filter10_dd_852_12850" x="112" y="135" width="59" height="44" filterUnits="userSpaceOnUse" color-interpolation-filters="sRGB">
<feFlood flood-opacity="0" result="BackgroundImageFix"/>
<feColorMatrix in="SourceAlpha" type="matrix" values="0 0 0 0 0 0 0 0 0 0 0 0 0 0 0 0 0 0 127 0" result="hardAlpha"/>
<feOffset dy="1"/>
<feGaussianBlur stdDeviation="0.5"/>
<feColorMatrix type="matrix" values="0 0 0 0 0.272549 0 0 0 0 0.272549 0 0 0 0 0.272549 0 0 0 0.24 0"/>
<feBlend mode="normal" in2="BackgroundImageFix" result="effect1_dropShadow_852_12850"/>
<feColorMatrix in="SourceAlpha" type="matrix" values="0 0 0 0 0 0 0 0 0 0 0 0 0 0 0 0 0 0 127 0" result="hardAlpha"/>
<feOffset dy="1"/>
<feGaussianBlur stdDeviation="3"/>
<feColorMatrix type="matrix" values="0 0 0 0 0.272549 0 0 0 0 0.272549 0 0 0 0 0.272549 0 0 0 0.16 0"/>
<feBlend mode="normal" in2="effect1_dropShadow_852_12850" result="effect2_dropShadow_852_12850"/>
<feBlend mode="normal" in="SourceGraphic" in2="effect2_dropShadow_852_12850" result="shape"/>
</filter>
<clipPath id="clip0_852_12850">
<rect width="284" height="188" fill="white"/>
</clipPath>
</defs>
</svg>
