<svg width="284" height="188" viewBox="0 0 284 188" fill="none" xmlns="http://www.w3.org/2000/svg">
<g clip-path="url(#clip0_852_12876)">
<rect width="284" height="188" fill="#C3CCD9"/>
<g filter="url(#filter0_dd_852_12876)">
<path d="M106.954 177.609C108.72 179.552 109.603 181.583 109.603 183.702C109.603 185.291 108.897 186.616 107.484 187.675C106.071 188.558 104.129 189 101.656 189H89.4706C84.879 189 81.0821 187.234 78.0799 183.702L62.1858 165.159C53.5323 174.342 44.5257 181.318 35.1658 186.086C25.806 190.678 14.7684 192.974 2.05318 192.974C-9.77909 192.974 -20.2868 190.854 -29.4701 186.616C-38.4767 182.201 -45.5408 176.108 -50.6622 168.338C-55.7836 160.567 -58.3443 151.826 -58.3443 142.112C-58.3443 129.397 -54.6357 118.536 -47.2185 109.53C-39.6246 100.523 -27.1743 91.0748 -9.86739 81.1851C-16.0484 73.7679 -20.8166 66.7039 -24.1721 59.993C-27.5275 53.2822 -29.2052 46.3065 -29.2052 39.0658C-29.2052 30.9422 -27.086 23.7015 -22.8476 17.3439C-18.4325 10.9863 -12.6047 6.04145 -5.36406 2.50942C2.05318 -1.02259 10.1768 -2.7886 19.0069 -2.7886C28.1901 -2.7886 36.4021 -1.02259 43.6427 2.50942C51.0599 6.04145 56.7995 10.898 60.8613 17.079C64.9231 23.0834 66.954 29.8826 66.954 37.4764C66.954 47.7193 64.2167 56.461 58.7421 63.7016C53.444 70.7657 43.6427 78.5361 29.338 87.013L62.7156 125.953L83.113 100.788C85.2322 98.1388 87.528 96.8143 90.0004 96.8143C91.943 96.8143 93.974 97.609 96.0932 99.1984L100.861 102.907C103.687 105.203 105.1 107.587 105.1 110.059C105.1 111.825 104.305 113.768 102.716 115.887L79.1395 145.026L106.954 177.609ZM19.2718 17.8737C13.0907 17.8737 7.79271 19.9046 3.37768 23.9664C-0.860739 27.8517 -2.97995 32.9731 -2.97995 39.3307C-2.80335 43.7457 -1.39054 48.1608 1.25847 52.5758C4.08409 56.9908 8.41081 62.7303 14.2386 69.7944C24.6581 63.9666 31.7221 58.7568 35.4308 54.1652C39.1394 49.397 40.9937 43.834 40.9937 37.4764C40.9937 31.8252 38.8745 27.1453 34.636 23.4366C30.5742 19.728 25.4528 17.8737 19.2718 17.8737ZM3.64259 169.662C11.7662 169.662 19.0952 167.72 25.6294 163.834C32.1636 159.949 38.9628 154.121 46.0268 146.351L4.96709 98.4037C-7.92478 106.351 -17.0197 113.327 -22.3178 119.331C-27.4392 125.335 -29.9999 132.311 -29.9999 140.258C-29.9999 148.912 -26.9094 155.976 -20.7283 161.45C-14.5473 166.925 -6.42367 169.662 3.64259 169.662Z" fill="#0063FB"/>
</g>
<rect x="105" width="179" height="188" fill="#0063FB"/>
<path d="M124.808 44C124.445 44 124.151 43.898 123.924 43.694C123.72 43.4673 123.618 43.1727 123.618 42.81V21.05C123.618 20.6647 123.72 20.37 123.924 20.166C124.151 19.962 124.445 19.86 124.808 19.86H126.304C126.689 19.86 126.984 19.962 127.188 20.166C127.392 20.37 127.494 20.6647 127.494 21.05V29.788H139.462V21.05C139.462 20.6647 139.564 20.37 139.768 20.166C139.995 19.962 140.289 19.86 140.652 19.86H142.182C142.567 19.86 142.862 19.962 143.066 20.166C143.27 20.37 143.372 20.6647 143.372 21.05V42.81C143.372 43.1727 143.27 43.4673 143.066 43.694C142.862 43.898 142.567 44 142.182 44H140.652C140.289 44 139.995 43.898 139.768 43.694C139.564 43.4673 139.462 43.1727 139.462 42.81V33.052H127.494V42.81C127.494 43.1727 127.392 43.4673 127.188 43.694C126.984 43.898 126.689 44 126.304 44H124.808ZM160.078 39.716C160.373 39.4667 160.656 39.342 160.928 39.342C161.2 39.342 161.483 39.4893 161.778 39.784L162.254 40.294C162.503 40.5887 162.628 40.872 162.628 41.144C162.628 41.4387 162.481 41.722 162.186 41.994C161.143 42.9007 160.101 43.5467 159.058 43.932C158.038 44.3173 156.905 44.51 155.658 44.51C153.913 44.51 152.394 44.1473 151.102 43.422C149.833 42.6967 148.847 41.6767 148.144 40.362C147.464 39.0247 147.124 37.4833 147.124 35.738C147.124 34.0153 147.453 32.474 148.11 31.114C148.79 29.7313 149.742 28.6547 150.966 27.884C152.213 27.1133 153.663 26.728 155.318 26.728C157.789 26.728 159.693 27.4647 161.03 28.938C162.367 30.3887 163.036 32.3947 163.036 34.956V35.262C163.013 35.6247 162.9 35.908 162.696 36.112C162.492 36.316 162.197 36.418 161.812 36.418H150.66C150.796 37.914 151.283 39.138 152.122 40.09C152.983 41.0193 154.185 41.484 155.726 41.484C156.565 41.484 157.301 41.3593 157.936 41.11C158.571 40.838 159.285 40.3733 160.078 39.716ZM155.25 29.584C154.003 29.584 152.995 29.958 152.224 30.706C151.476 31.4313 150.989 32.4627 150.762 33.8H159.5C159.409 32.4853 159.001 31.454 158.276 30.706C157.551 29.958 156.542 29.584 155.25 29.584ZM173.177 26.728C175.444 26.728 177.189 27.2607 178.413 28.326C179.637 29.3687 180.249 30.7627 180.249 32.508V42.81C180.249 43.1727 180.147 43.4673 179.943 43.694C179.739 43.898 179.445 44 179.059 44H178.175C177.813 44 177.518 43.898 177.291 43.694C177.087 43.4673 176.985 43.1727 176.985 42.81V42.062C176.441 42.8553 175.693 43.4673 174.741 43.898C173.789 44.3287 172.679 44.544 171.409 44.544C169.664 44.544 168.225 44.1587 167.091 43.388C165.981 42.5947 165.425 41.4047 165.425 39.818C165.425 38.05 166.083 36.7467 167.397 35.908C168.735 35.0467 170.582 34.4007 172.939 33.97L176.781 33.256V32.644C176.781 31.7147 176.453 31.0007 175.795 30.502C175.161 29.9807 174.311 29.72 173.245 29.72C172.339 29.72 171.545 29.8787 170.865 30.196C170.208 30.4907 169.494 30.9893 168.723 31.692C168.429 31.9413 168.145 32.066 167.873 32.066C167.601 32.066 167.318 31.9413 167.023 31.692L166.479 31.216C166.185 30.944 166.037 30.6493 166.037 30.332C166.037 30.0373 166.173 29.754 166.445 29.482C167.42 28.5527 168.451 27.8613 169.539 27.408C170.627 26.9547 171.84 26.728 173.177 26.728ZM171.919 41.654C173.279 41.654 174.424 41.2913 175.353 40.566C176.305 39.8407 176.781 38.798 176.781 37.438V35.874L173.823 36.486C172.169 36.826 170.945 37.2113 170.151 37.642C169.358 38.0727 168.961 38.73 168.961 39.614C168.961 40.2487 169.222 40.7473 169.743 41.11C170.265 41.4727 170.99 41.654 171.919 41.654ZM196.165 21.016C196.165 20.6307 196.267 20.336 196.471 20.132C196.698 19.928 196.992 19.826 197.355 19.826H198.579C198.964 19.826 199.259 19.928 199.463 20.132C199.667 20.336 199.769 20.6307 199.769 21.016V42.81C199.769 43.1727 199.667 43.4673 199.463 43.694C199.259 43.898 198.964 44 198.579 44H197.593C197.23 44 196.936 43.898 196.709 43.694C196.505 43.4673 196.403 43.1727 196.403 42.81V41.62C195.224 43.524 193.377 44.476 190.861 44.476C189.456 44.476 188.186 44.1133 187.053 43.388C185.942 42.6627 185.07 41.6313 184.435 40.294C183.8 38.9567 183.483 37.404 183.483 35.636C183.483 33.8907 183.8 32.3493 184.435 31.012C185.092 29.6747 185.988 28.6433 187.121 27.918C188.254 27.1927 189.524 26.83 190.929 26.83C193.241 26.83 194.986 27.6347 196.165 29.244V21.016ZM191.609 41.382C192.992 41.382 194.125 40.872 195.009 39.852C195.893 38.8093 196.335 37.404 196.335 35.636C196.335 33.868 195.893 32.474 195.009 31.454C194.125 30.434 192.992 29.924 191.609 29.924C190.272 29.924 189.195 30.4453 188.379 31.488C187.563 32.5307 187.155 33.9133 187.155 35.636C187.155 37.3813 187.552 38.7753 188.345 39.818C189.161 40.8607 190.249 41.382 191.609 41.382ZM205.793 23.974C205.135 23.974 204.58 23.7587 204.127 23.328C203.673 22.8747 203.447 22.342 203.447 21.73C203.447 21.0953 203.673 20.5627 204.127 20.132C204.58 19.7013 205.135 19.486 205.793 19.486C206.45 19.486 207.005 19.7013 207.459 20.132C207.912 20.5627 208.139 21.0953 208.139 21.73C208.139 22.342 207.912 22.8747 207.459 23.328C207.005 23.7587 206.45 23.974 205.793 23.974ZM205.147 44C204.784 44 204.489 43.898 204.263 43.694C204.059 43.4673 203.957 43.1727 203.957 42.81V28.428C203.957 28.0427 204.059 27.748 204.263 27.544C204.489 27.34 204.784 27.238 205.147 27.238H206.371C206.756 27.238 207.051 27.34 207.255 27.544C207.459 27.748 207.561 28.0427 207.561 28.428V42.81C207.561 43.1727 207.459 43.4673 207.255 43.694C207.051 43.898 206.756 44 206.371 44H205.147ZM220.26 26.728C222.187 26.728 223.66 27.272 224.68 28.36C225.723 29.4253 226.244 30.808 226.244 32.508V42.81C226.244 43.1727 226.142 43.4673 225.938 43.694C225.734 43.898 225.44 44 225.054 44H223.83C223.468 44 223.173 43.898 222.946 43.694C222.742 43.4673 222.64 43.1727 222.64 42.81V33.63C222.64 32.406 222.334 31.4653 221.722 30.808C221.133 30.1507 220.283 29.822 219.172 29.822C218.084 29.822 217.166 30.196 216.418 30.944C215.693 31.692 215.33 32.6327 215.33 33.766V42.81C215.33 43.1727 215.228 43.4673 215.024 43.694C214.82 43.898 214.526 44 214.14 44H212.916C212.554 44 212.259 43.898 212.032 43.694C211.828 43.4673 211.726 43.1727 211.726 42.81V28.428C211.726 28.0427 211.828 27.748 212.032 27.544C212.259 27.34 212.554 27.238 212.916 27.238H213.902C214.288 27.238 214.582 27.34 214.786 27.544C214.99 27.748 215.092 28.0427 215.092 28.428V29.312C215.636 28.4733 216.35 27.8387 217.234 27.408C218.118 26.9547 219.127 26.728 220.26 26.728ZM242.185 28.326C242.185 27.986 242.287 27.7253 242.491 27.544C242.717 27.34 243.012 27.238 243.375 27.238H244.327C244.712 27.238 245.007 27.34 245.211 27.544C245.415 27.748 245.517 28.0427 245.517 28.428V43.388C245.517 45.632 244.791 47.3773 243.341 48.624C241.913 49.8707 240.009 50.494 237.629 50.494C235.249 50.494 233.005 49.882 230.897 48.658C230.466 48.4313 230.251 48.1253 230.251 47.74C230.251 47.536 230.341 47.2867 230.523 46.992L230.965 46.346C231.214 45.9607 231.52 45.768 231.883 45.768C232.132 45.768 232.381 45.8473 232.631 46.006C233.537 46.5273 234.376 46.9013 235.147 47.128C235.917 47.3773 236.733 47.502 237.595 47.502C238.909 47.502 239.963 47.1393 240.757 46.414C241.573 45.7113 241.981 44.6007 241.981 43.082V41.28C240.847 42.8893 239.147 43.694 236.881 43.694C235.475 43.694 234.206 43.3427 233.073 42.64C231.962 41.9147 231.089 40.9173 230.455 39.648C229.843 38.356 229.537 36.8827 229.537 35.228C229.537 33.5733 229.843 32.1113 230.455 30.842C231.089 29.55 231.962 28.5413 233.073 27.816C234.206 27.0907 235.475 26.728 236.881 26.728C239.283 26.728 241.051 27.6233 242.185 29.414V28.326ZM237.595 40.668C238.909 40.668 239.986 40.1693 240.825 39.172C241.663 38.152 242.083 36.8373 242.083 35.228C242.083 33.6413 241.663 32.3493 240.825 31.352C240.009 30.332 238.932 29.822 237.595 29.822C236.235 29.822 235.158 30.3207 234.365 31.318C233.571 32.3153 233.175 33.6187 233.175 35.228C233.175 36.86 233.571 38.1747 234.365 39.172C235.158 40.1693 236.235 40.668 237.595 40.668ZM262.959 20.336C263.412 20.0187 263.9 19.86 264.421 19.86H265.271C265.656 19.86 265.951 19.962 266.155 20.166C266.359 20.37 266.461 20.6647 266.461 21.05V42.81C266.461 43.1727 266.359 43.4673 266.155 43.694C265.951 43.898 265.656 44 265.271 44H263.945C263.582 44 263.288 43.898 263.061 43.694C262.857 43.4673 262.755 43.1727 262.755 42.81V24.484L258.879 27.17C258.584 27.3513 258.335 27.442 258.131 27.442C257.814 27.442 257.519 27.2607 257.247 26.898L256.805 26.252C256.601 25.98 256.499 25.7193 256.499 25.47C256.499 25.1527 256.68 24.858 257.043 24.586L262.959 20.336Z" fill="white"/>
<path d="M124.136 80C123.837 80 123.595 79.916 123.408 79.748C123.24 79.5613 123.156 79.3187 123.156 79.02V61.1C123.156 60.7827 123.24 60.54 123.408 60.372C123.595 60.204 123.837 60.12 124.136 60.12H125.368C125.685 60.12 125.928 60.204 126.096 60.372C126.264 60.54 126.348 60.7827 126.348 61.1V68.296H136.204V61.1C136.204 60.7827 136.288 60.54 136.456 60.372C136.643 60.204 136.885 60.12 137.184 60.12H138.444C138.761 60.12 139.004 60.204 139.172 60.372C139.34 60.54 139.424 60.7827 139.424 61.1V79.02C139.424 79.3187 139.34 79.5613 139.172 79.748C139.004 79.916 138.761 80 138.444 80H137.184C136.885 80 136.643 79.916 136.456 79.748C136.288 79.5613 136.204 79.3187 136.204 79.02V70.984H126.348V79.02C126.348 79.3187 126.264 79.5613 126.096 79.748C125.928 79.916 125.685 80 125.368 80H124.136ZM153.182 76.472C153.425 76.2667 153.658 76.164 153.882 76.164C154.106 76.164 154.339 76.2853 154.582 76.528L154.974 76.948C155.179 77.1907 155.282 77.424 155.282 77.648C155.282 77.8907 155.161 78.124 154.918 78.348C154.059 79.0947 153.201 79.6267 152.342 79.944C151.502 80.2613 150.569 80.42 149.542 80.42C148.105 80.42 146.854 80.1213 145.79 79.524C144.745 78.9267 143.933 78.0867 143.354 77.004C142.794 75.9027 142.514 74.6333 142.514 73.196C142.514 71.7773 142.785 70.508 143.326 69.388C143.886 68.2493 144.67 67.3627 145.678 66.728C146.705 66.0933 147.899 65.776 149.262 65.776C151.297 65.776 152.865 66.3827 153.966 67.596C155.067 68.7907 155.618 70.4427 155.618 72.552V72.804C155.599 73.1027 155.506 73.336 155.338 73.504C155.17 73.672 154.927 73.756 154.61 73.756H145.426C145.538 74.988 145.939 75.996 146.63 76.78C147.339 77.5453 148.329 77.928 149.598 77.928C150.289 77.928 150.895 77.8253 151.418 77.62C151.941 77.396 152.529 77.0133 153.182 76.472ZM149.206 68.128C148.179 68.128 147.349 68.436 146.714 69.052C146.098 69.6493 145.697 70.4987 145.51 71.6H152.706C152.631 70.5173 152.295 69.668 151.698 69.052C151.101 68.436 150.27 68.128 149.206 68.128ZM163.97 65.776C165.836 65.776 167.274 66.2147 168.282 67.092C169.29 67.9507 169.794 69.0987 169.794 70.536V79.02C169.794 79.3187 169.71 79.5613 169.542 79.748C169.374 79.916 169.131 80 168.814 80H168.086C167.787 80 167.544 79.916 167.358 79.748C167.19 79.5613 167.106 79.3187 167.106 79.02V78.404C166.658 79.0573 166.042 79.5613 165.258 79.916C164.474 80.2707 163.559 80.448 162.514 80.448C161.076 80.448 159.891 80.1307 158.958 79.496C158.043 78.8427 157.586 77.8627 157.586 76.556C157.586 75.1 158.127 74.0267 159.21 73.336C160.311 72.6267 161.832 72.0947 163.774 71.74L166.938 71.152V70.648C166.938 69.8827 166.667 69.2947 166.126 68.884C165.603 68.4547 164.903 68.24 164.026 68.24C163.279 68.24 162.626 68.3707 162.066 68.632C161.524 68.8747 160.936 69.2853 160.302 69.864C160.059 70.0693 159.826 70.172 159.602 70.172C159.378 70.172 159.144 70.0693 158.902 69.864L158.454 69.472C158.211 69.248 158.09 69.0053 158.09 68.744C158.09 68.5013 158.202 68.268 158.426 68.044C159.228 67.2787 160.078 66.7093 160.974 66.336C161.87 65.9627 162.868 65.776 163.97 65.776ZM162.934 78.068C164.054 78.068 164.996 77.7693 165.762 77.172C166.546 76.5747 166.938 75.716 166.938 74.596V73.308L164.502 73.812C163.139 74.092 162.131 74.4093 161.478 74.764C160.824 75.1187 160.498 75.66 160.498 76.388C160.498 76.9107 160.712 77.3213 161.142 77.62C161.571 77.9187 162.168 78.068 162.934 78.068ZM182.901 61.072C182.901 60.7547 182.985 60.512 183.153 60.344C183.339 60.176 183.582 60.092 183.881 60.092H184.889C185.206 60.092 185.449 60.176 185.617 60.344C185.785 60.512 185.869 60.7547 185.869 61.072V79.02C185.869 79.3187 185.785 79.5613 185.617 79.748C185.449 79.916 185.206 80 184.889 80H184.077C183.778 80 183.535 79.916 183.349 79.748C183.181 79.5613 183.097 79.3187 183.097 79.02V78.04C182.126 79.608 180.605 80.392 178.533 80.392C177.375 80.392 176.33 80.0933 175.397 79.496C174.482 78.8987 173.763 78.0493 173.241 76.948C172.718 75.8467 172.457 74.568 172.457 73.112C172.457 71.6747 172.718 70.4053 173.241 69.304C173.782 68.2027 174.519 67.3533 175.453 66.756C176.386 66.1587 177.431 65.86 178.589 65.86C180.493 65.86 181.93 66.5227 182.901 67.848V61.072ZM179.149 77.844C180.287 77.844 181.221 77.424 181.949 76.584C182.677 75.7253 183.041 74.568 183.041 73.112C183.041 71.656 182.677 70.508 181.949 69.668C181.221 68.828 180.287 68.408 179.149 68.408C178.047 68.408 177.161 68.8373 176.489 69.696C175.817 70.5547 175.481 71.6933 175.481 73.112C175.481 74.5493 175.807 75.6973 176.461 76.556C177.133 77.4147 178.029 77.844 179.149 77.844ZM190.829 63.508C190.288 63.508 189.831 63.3307 189.457 62.976C189.084 62.6027 188.897 62.164 188.897 61.66C188.897 61.1373 189.084 60.6987 189.457 60.344C189.831 59.9893 190.288 59.812 190.829 59.812C191.371 59.812 191.828 59.9893 192.201 60.344C192.575 60.6987 192.761 61.1373 192.761 61.66C192.761 62.164 192.575 62.6027 192.201 62.976C191.828 63.3307 191.371 63.508 190.829 63.508ZM190.297 80C189.999 80 189.756 79.916 189.569 79.748C189.401 79.5613 189.317 79.3187 189.317 79.02V67.176C189.317 66.8587 189.401 66.616 189.569 66.448C189.756 66.28 189.999 66.196 190.297 66.196H191.305C191.623 66.196 191.865 66.28 192.033 66.448C192.201 66.616 192.285 66.8587 192.285 67.176V79.02C192.285 79.3187 192.201 79.5613 192.033 79.748C191.865 79.916 191.623 80 191.305 80H190.297ZM202.744 65.776C204.33 65.776 205.544 66.224 206.384 67.12C207.242 67.9973 207.672 69.136 207.672 70.536V79.02C207.672 79.3187 207.588 79.5613 207.42 79.748C207.252 79.916 207.009 80 206.692 80H205.684C205.385 80 205.142 79.916 204.956 79.748C204.788 79.5613 204.704 79.3187 204.704 79.02V71.46C204.704 70.452 204.452 69.6773 203.948 69.136C203.462 68.5947 202.762 68.324 201.848 68.324C200.952 68.324 200.196 68.632 199.58 69.248C198.982 69.864 198.684 70.6387 198.684 71.572V79.02C198.684 79.3187 198.6 79.5613 198.432 79.748C198.264 79.916 198.021 80 197.704 80H196.696C196.397 80 196.154 79.916 195.968 79.748C195.8 79.5613 195.716 79.3187 195.716 79.02V67.176C195.716 66.8587 195.8 66.616 195.968 66.448C196.154 66.28 196.397 66.196 196.696 66.196H197.508C197.825 66.196 198.068 66.28 198.236 66.448C198.404 66.616 198.488 66.8587 198.488 67.176V67.904C198.936 67.2133 199.524 66.6907 200.252 66.336C200.98 65.9627 201.81 65.776 202.744 65.776ZM220.799 67.092C220.799 66.812 220.883 66.5973 221.051 66.448C221.238 66.28 221.48 66.196 221.779 66.196H222.563C222.88 66.196 223.123 66.28 223.291 66.448C223.459 66.616 223.543 66.8587 223.543 67.176V79.496C223.543 81.344 222.946 82.7813 221.751 83.808C220.575 84.8347 219.007 85.348 217.047 85.348C215.087 85.348 213.239 84.844 211.503 83.836C211.148 83.6493 210.971 83.3973 210.971 83.08C210.971 82.912 211.046 82.7067 211.195 82.464L211.559 81.932C211.764 81.6147 212.016 81.456 212.315 81.456C212.52 81.456 212.726 81.5213 212.931 81.652C213.678 82.0813 214.368 82.3893 215.003 82.576C215.638 82.7813 216.31 82.884 217.019 82.884C218.102 82.884 218.97 82.5853 219.623 81.988C220.295 81.4093 220.631 80.4947 220.631 79.244V77.76C219.698 79.0853 218.298 79.748 216.431 79.748C215.274 79.748 214.228 79.4587 213.295 78.88C212.38 78.2827 211.662 77.4613 211.139 76.416C210.635 75.352 210.383 74.1387 210.383 72.776C210.383 71.4133 210.635 70.2093 211.139 69.164C211.662 68.1 212.38 67.2693 213.295 66.672C214.228 66.0747 215.274 65.776 216.431 65.776C218.41 65.776 219.866 66.5133 220.799 67.988V67.092ZM217.019 77.256C218.102 77.256 218.988 76.8453 219.679 76.024C220.37 75.184 220.715 74.1013 220.715 72.776C220.715 71.4693 220.37 70.4053 219.679 69.584C219.007 68.744 218.12 68.324 217.019 68.324C215.899 68.324 215.012 68.7347 214.359 69.556C213.706 70.3773 213.379 71.4507 213.379 72.776C213.379 74.12 213.706 75.2027 214.359 76.024C215.012 76.8453 215.899 77.256 217.019 77.256ZM245.915 77.424C246.233 77.424 246.475 77.508 246.643 77.676C246.811 77.844 246.895 78.0867 246.895 78.404V79.02C246.895 79.3187 246.811 79.5613 246.643 79.748C246.475 79.916 246.233 80 245.915 80H233.651C233.353 80 233.11 79.916 232.923 79.748C232.755 79.5613 232.671 79.3187 232.671 79.02V78.824C232.671 77.4427 232.923 76.276 233.427 75.324C233.931 74.372 234.566 73.588 235.331 72.972C236.097 72.3373 237.133 71.6093 238.439 70.788L239.923 69.92C240.857 69.3787 241.575 68.9307 242.079 68.576C242.583 68.2213 242.994 67.792 243.311 67.288C243.647 66.7653 243.815 66.1587 243.815 65.468C243.815 64.4787 243.479 63.704 242.807 63.144C242.135 62.584 241.295 62.304 240.287 62.304C239.373 62.304 238.561 62.528 237.851 62.976C237.161 63.4053 236.386 64.124 235.527 65.132C235.285 65.412 235.023 65.552 234.743 65.552C234.575 65.552 234.37 65.4773 234.127 65.328L233.455 64.852C233.138 64.628 232.979 64.376 232.979 64.096C232.979 63.8907 233.063 63.676 233.231 63.452C234.277 62.1453 235.35 61.1933 236.451 60.596C237.571 59.9987 238.822 59.7 240.203 59.7C241.566 59.7 242.751 59.952 243.759 60.456C244.767 60.96 245.533 61.6413 246.055 62.5C246.597 63.3587 246.867 64.32 246.867 65.384C246.867 66.5227 246.643 67.484 246.195 68.268C245.747 69.052 245.178 69.7053 244.487 70.228C243.815 70.732 242.863 71.348 241.631 72.076C241.034 72.412 240.586 72.6733 240.287 72.86C239.223 73.5133 238.43 74.0173 237.907 74.372C237.403 74.7267 236.955 75.156 236.563 75.66C236.171 76.164 235.919 76.752 235.807 77.424H245.915Z" fill="white"/>
<path d="M123.464 108C123.229 108 123.039 107.934 122.892 107.802C122.76 107.655 122.694 107.465 122.694 107.23V93.15C122.694 92.9007 122.76 92.71 122.892 92.578C123.039 92.446 123.229 92.38 123.464 92.38H124.432C124.681 92.38 124.872 92.446 125.004 92.578C125.136 92.71 125.202 92.9007 125.202 93.15V98.804H132.946V93.15C132.946 92.9007 133.012 92.71 133.144 92.578C133.291 92.446 133.481 92.38 133.716 92.38H134.706C134.955 92.38 135.146 92.446 135.278 92.578C135.41 92.71 135.476 92.9007 135.476 93.15V107.23C135.476 107.465 135.41 107.655 135.278 107.802C135.146 107.934 134.955 108 134.706 108H133.716C133.481 108 133.291 107.934 133.144 107.802C133.012 107.655 132.946 107.465 132.946 107.23V100.916H125.202V107.23C125.202 107.465 125.136 107.655 125.004 107.802C124.872 107.934 124.681 108 124.432 108H123.464ZM146.286 105.228C146.476 105.067 146.66 104.986 146.836 104.986C147.012 104.986 147.195 105.081 147.386 105.272L147.694 105.602C147.855 105.793 147.936 105.976 147.936 106.152C147.936 106.343 147.84 106.526 147.65 106.702C146.975 107.289 146.3 107.707 145.626 107.956C144.966 108.205 144.232 108.33 143.426 108.33C142.296 108.33 141.314 108.095 140.478 107.626C139.656 107.157 139.018 106.497 138.564 105.646C138.124 104.781 137.904 103.783 137.904 102.654C137.904 101.539 138.116 100.542 138.542 99.662C138.982 98.7673 139.598 98.0707 140.39 97.572C141.196 97.0733 142.135 96.824 143.206 96.824C144.804 96.824 146.036 97.3007 146.902 98.254C147.767 99.1927 148.2 100.491 148.2 102.148V102.346C148.185 102.581 148.112 102.764 147.98 102.896C147.848 103.028 147.657 103.094 147.408 103.094H140.192C140.28 104.062 140.595 104.854 141.138 105.47C141.695 106.071 142.472 106.372 143.47 106.372C144.012 106.372 144.489 106.291 144.9 106.13C145.31 105.954 145.772 105.653 146.286 105.228ZM143.162 98.672C142.355 98.672 141.702 98.914 141.204 99.398C140.72 99.8673 140.404 100.535 140.258 101.4H145.912C145.853 100.549 145.589 99.882 145.12 99.398C144.65 98.914 143.998 98.672 143.162 98.672ZM154.762 96.824C156.228 96.824 157.358 97.1687 158.15 97.858C158.942 98.5327 159.338 99.4347 159.338 100.564V107.23C159.338 107.465 159.272 107.655 159.14 107.802C159.008 107.934 158.817 108 158.568 108H157.996C157.761 108 157.57 107.934 157.424 107.802C157.292 107.655 157.226 107.465 157.226 107.23V106.746C156.874 107.259 156.39 107.655 155.774 107.934C155.158 108.213 154.439 108.352 153.618 108.352C152.488 108.352 151.557 108.103 150.824 107.604C150.105 107.091 149.746 106.321 149.746 105.294C149.746 104.15 150.171 103.307 151.022 102.764C151.887 102.207 153.082 101.789 154.608 101.51L157.094 101.048V100.652C157.094 100.051 156.881 99.5887 156.456 99.266C156.045 98.9287 155.495 98.76 154.806 98.76C154.219 98.76 153.706 98.8627 153.266 99.068C152.84 99.2587 152.378 99.5813 151.88 100.036C151.689 100.197 151.506 100.278 151.33 100.278C151.154 100.278 150.97 100.197 150.78 100.036L150.428 99.728C150.237 99.552 150.142 99.3613 150.142 99.156C150.142 98.9653 150.23 98.782 150.406 98.606C151.036 98.0047 151.704 97.5573 152.408 97.264C153.112 96.9707 153.896 96.824 154.762 96.824ZM153.948 106.482C154.828 106.482 155.568 106.247 156.17 105.778C156.786 105.309 157.094 104.634 157.094 103.754V102.742L155.18 103.138C154.109 103.358 153.317 103.607 152.804 103.886C152.29 104.165 152.034 104.59 152.034 105.162C152.034 105.573 152.202 105.895 152.54 106.13C152.877 106.365 153.346 106.482 153.948 106.482ZM169.636 93.128C169.636 92.8787 169.702 92.688 169.834 92.556C169.981 92.424 170.171 92.358 170.406 92.358H171.198C171.447 92.358 171.638 92.424 171.77 92.556C171.902 92.688 171.968 92.8787 171.968 93.128V107.23C171.968 107.465 171.902 107.655 171.77 107.802C171.638 107.934 171.447 108 171.198 108H170.56C170.325 108 170.135 107.934 169.988 107.802C169.856 107.655 169.79 107.465 169.79 107.23V106.46C169.027 107.692 167.832 108.308 166.204 108.308C165.295 108.308 164.473 108.073 163.74 107.604C163.021 107.135 162.457 106.467 162.046 105.602C161.635 104.737 161.43 103.732 161.43 102.588C161.43 101.459 161.635 100.461 162.046 99.596C162.471 98.7307 163.051 98.0633 163.784 97.594C164.517 97.1247 165.339 96.89 166.248 96.89C167.744 96.89 168.873 97.4107 169.636 98.452V93.128ZM166.688 106.306C167.583 106.306 168.316 105.976 168.888 105.316C169.46 104.641 169.746 103.732 169.746 102.588C169.746 101.444 169.46 100.542 168.888 99.882C168.316 99.222 167.583 98.892 166.688 98.892C165.823 98.892 165.126 99.2293 164.598 99.904C164.07 100.579 163.806 101.473 163.806 102.588C163.806 103.717 164.063 104.619 164.576 105.294C165.104 105.969 165.808 106.306 166.688 106.306ZM175.866 95.042C175.441 95.042 175.081 94.9027 174.788 94.624C174.495 94.3307 174.348 93.986 174.348 93.59C174.348 93.1793 174.495 92.8347 174.788 92.556C175.081 92.2773 175.441 92.138 175.866 92.138C176.291 92.138 176.651 92.2773 176.944 92.556C177.237 92.8347 177.384 93.1793 177.384 93.59C177.384 93.986 177.237 94.3307 176.944 94.624C176.651 94.9027 176.291 95.042 175.866 95.042ZM175.448 108C175.213 108 175.023 107.934 174.876 107.802C174.744 107.655 174.678 107.465 174.678 107.23V97.924C174.678 97.6747 174.744 97.484 174.876 97.352C175.023 97.22 175.213 97.154 175.448 97.154H176.24C176.489 97.154 176.68 97.22 176.812 97.352C176.944 97.484 177.01 97.6747 177.01 97.924V107.23C177.01 107.465 176.944 107.655 176.812 107.802C176.68 107.934 176.489 108 176.24 108H175.448ZM185.227 96.824C186.474 96.824 187.427 97.176 188.087 97.88C188.762 98.5693 189.099 99.464 189.099 100.564V107.23C189.099 107.465 189.033 107.655 188.901 107.802C188.769 107.934 188.579 108 188.329 108H187.537C187.303 108 187.112 107.934 186.965 107.802C186.833 107.655 186.767 107.465 186.767 107.23V101.29C186.767 100.498 186.569 99.8893 186.173 99.464C185.792 99.0387 185.242 98.826 184.523 98.826C183.819 98.826 183.225 99.068 182.741 99.552C182.272 100.036 182.037 100.645 182.037 101.378V107.23C182.037 107.465 181.971 107.655 181.839 107.802C181.707 107.934 181.517 108 181.267 108H180.475C180.241 108 180.05 107.934 179.903 107.802C179.771 107.655 179.705 107.465 179.705 107.23V97.924C179.705 97.6747 179.771 97.484 179.903 97.352C180.05 97.22 180.241 97.154 180.475 97.154H181.113C181.363 97.154 181.553 97.22 181.685 97.352C181.817 97.484 181.883 97.6747 181.883 97.924V98.496C182.235 97.9533 182.697 97.5427 183.269 97.264C183.841 96.9707 184.494 96.824 185.227 96.824ZM199.414 97.858C199.414 97.638 199.48 97.4693 199.612 97.352C199.758 97.22 199.949 97.154 200.184 97.154H200.8C201.049 97.154 201.24 97.22 201.372 97.352C201.504 97.484 201.57 97.6747 201.57 97.924V107.604C201.57 109.056 201.1 110.185 200.162 110.992C199.238 111.799 198.006 112.202 196.466 112.202C194.926 112.202 193.474 111.806 192.11 111.014C191.831 110.867 191.692 110.669 191.692 110.42C191.692 110.288 191.75 110.127 191.868 109.936L192.154 109.518C192.315 109.269 192.513 109.144 192.748 109.144C192.909 109.144 193.07 109.195 193.232 109.298C193.818 109.635 194.361 109.877 194.86 110.024C195.358 110.185 195.886 110.266 196.444 110.266C197.294 110.266 197.976 110.031 198.49 109.562C199.018 109.107 199.282 108.389 199.282 107.406V106.24C198.548 107.281 197.448 107.802 195.982 107.802C195.072 107.802 194.251 107.575 193.518 107.12C192.799 106.651 192.234 106.005 191.824 105.184C191.428 104.348 191.23 103.395 191.23 102.324C191.23 101.253 191.428 100.307 191.824 99.486C192.234 98.65 192.799 97.9973 193.518 97.528C194.251 97.0587 195.072 96.824 195.982 96.824C197.536 96.824 198.68 97.4033 199.414 98.562V97.858ZM196.444 105.844C197.294 105.844 197.991 105.521 198.534 104.876C199.076 104.216 199.348 103.365 199.348 102.324C199.348 101.297 199.076 100.461 198.534 99.816C198.006 99.156 197.309 98.826 196.444 98.826C195.564 98.826 194.867 99.1487 194.354 99.794C193.84 100.439 193.584 101.283 193.584 102.324C193.584 103.38 193.84 104.231 194.354 104.876C194.867 105.521 195.564 105.844 196.444 105.844ZM214.616 98.606C215.599 98.606 216.479 98.7893 217.256 99.156C218.033 99.508 218.642 100.036 219.082 100.74C219.522 101.429 219.742 102.258 219.742 103.226C219.742 104.077 219.529 104.898 219.104 105.69C218.679 106.467 218.041 107.105 217.19 107.604C216.339 108.103 215.327 108.352 214.154 108.352C213.23 108.352 212.357 108.235 211.536 108C210.729 107.751 209.886 107.355 209.006 106.812C208.742 106.636 208.61 106.438 208.61 106.218C208.61 106.086 208.669 105.925 208.786 105.734L209.094 105.272C209.241 105.037 209.439 104.92 209.688 104.92C209.835 104.92 209.996 104.964 210.172 105.052C210.92 105.492 211.595 105.815 212.196 106.02C212.797 106.211 213.428 106.306 214.088 106.306C215.071 106.306 215.855 106.02 216.442 105.448C217.029 104.876 217.322 104.143 217.322 103.248C217.322 102.353 217.021 101.657 216.42 101.158C215.819 100.659 214.983 100.41 213.912 100.41C213.457 100.41 213.047 100.447 212.68 100.52C212.533 100.549 212.431 100.564 212.372 100.564C212.079 100.564 211.844 100.432 211.668 100.168L211.404 99.816C211.287 99.6547 211.228 99.5007 211.228 99.354C211.228 99.1487 211.331 98.9433 211.536 98.738L216.354 94.404H209.908C209.673 94.404 209.483 94.338 209.336 94.206C209.204 94.0593 209.138 93.8687 209.138 93.634V93.15C209.138 92.9007 209.204 92.71 209.336 92.578C209.483 92.446 209.673 92.38 209.908 92.38H218.466C218.715 92.38 218.906 92.446 219.038 92.578C219.17 92.71 219.236 92.9007 219.236 93.15V93.788C219.236 94.1547 219.097 94.47 218.818 94.734L214.506 98.606H214.616Z" fill="white"/>
<path d="M122.696 131C122.483 131 122.376 130.893 122.376 130.68V119.96C122.376 119.747 122.483 119.64 122.696 119.64H127C128.099 119.64 128.984 119.928 129.656 120.504C130.328 121.08 130.664 121.896 130.664 122.952C130.664 124.008 130.328 124.829 129.656 125.416C128.984 125.992 128.099 126.28 127 126.28H123.512V130.68C123.512 130.893 123.405 131 123.192 131H122.696ZM126.856 125.336C127.688 125.336 128.344 125.133 128.824 124.728C129.304 124.323 129.544 123.731 129.544 122.952C129.544 122.184 129.304 121.597 128.824 121.192C128.344 120.787 127.688 120.584 126.856 120.584H123.512V125.336H126.856ZM135.005 122.92C135.976 122.92 136.733 123.155 137.277 123.624C137.821 124.083 138.093 124.691 138.093 125.448V130.68C138.093 130.893 137.987 131 137.773 131H137.453C137.24 131 137.133 130.893 137.133 130.68V129.96C136.867 130.387 136.488 130.707 135.997 130.92C135.517 131.133 134.979 131.24 134.381 131.24C133.549 131.24 132.872 131.064 132.349 130.712C131.827 130.36 131.565 129.816 131.565 129.08C131.565 128.493 131.731 128.024 132.061 127.672C132.392 127.309 132.824 127.037 133.357 126.856C133.891 126.664 134.557 126.493 135.357 126.344L137.085 126.04V125.528C137.085 124.984 136.899 124.563 136.525 124.264C136.152 123.955 135.661 123.8 135.053 123.8C134.595 123.8 134.179 123.885 133.805 124.056C133.432 124.227 133.032 124.52 132.605 124.936C132.531 125.011 132.451 125.048 132.365 125.048C132.291 125.048 132.221 125.016 132.157 124.952L131.949 124.76C131.875 124.685 131.837 124.605 131.837 124.52C131.837 124.424 131.875 124.339 131.949 124.264C132.397 123.795 132.867 123.453 133.357 123.24C133.859 123.027 134.408 122.92 135.005 122.92ZM134.429 130.36C135.197 130.36 135.832 130.157 136.333 129.752C136.835 129.347 137.085 128.829 137.085 128.2V126.856L135.597 127.144C134.904 127.283 134.355 127.416 133.949 127.544C133.544 127.672 133.219 127.859 132.973 128.104C132.728 128.349 132.605 128.669 132.605 129.064C132.605 129.469 132.765 129.789 133.085 130.024C133.416 130.248 133.864 130.36 134.429 130.36ZM143.378 123.048C143.645 123.048 143.959 123.091 144.322 123.176C144.514 123.24 144.589 123.373 144.546 123.576L144.482 123.832C144.429 124.035 144.295 124.109 144.082 124.056C143.826 123.992 143.591 123.96 143.378 123.96C142.834 123.96 142.381 124.195 142.018 124.664C141.666 125.133 141.49 125.784 141.49 126.616V130.68C141.49 130.893 141.383 131 141.17 131H140.754C140.541 131 140.434 130.893 140.434 130.68V123.432C140.434 123.219 140.541 123.112 140.754 123.112H141.106C141.319 123.112 141.426 123.219 141.426 123.432V124.312C141.607 123.917 141.863 123.608 142.194 123.384C142.535 123.16 142.93 123.048 143.378 123.048ZM148.818 122.92C149.788 122.92 150.546 123.155 151.09 123.624C151.634 124.083 151.906 124.691 151.906 125.448V130.68C151.906 130.893 151.799 131 151.586 131H151.266C151.052 131 150.946 130.893 150.946 130.68V129.96C150.679 130.387 150.3 130.707 149.81 130.92C149.33 131.133 148.791 131.24 148.194 131.24C147.362 131.24 146.684 131.064 146.162 130.712C145.639 130.36 145.378 129.816 145.378 129.08C145.378 128.493 145.543 128.024 145.874 127.672C146.204 127.309 146.636 127.037 147.17 126.856C147.703 126.664 148.37 126.493 149.17 126.344L150.898 126.04V125.528C150.898 124.984 150.711 124.563 150.338 124.264C149.964 123.955 149.474 123.8 148.866 123.8C148.407 123.8 147.991 123.885 147.618 124.056C147.244 124.227 146.844 124.52 146.418 124.936C146.343 125.011 146.263 125.048 146.178 125.048C146.103 125.048 146.034 125.016 145.97 124.952L145.762 124.76C145.687 124.685 145.65 124.605 145.65 124.52C145.65 124.424 145.687 124.339 145.762 124.264C146.21 123.795 146.679 123.453 147.17 123.24C147.671 123.027 148.22 122.92 148.818 122.92ZM148.242 130.36C149.01 130.36 149.644 130.157 150.146 129.752C150.647 129.347 150.898 128.829 150.898 128.2V126.856L149.41 127.144C148.716 127.283 148.167 127.416 147.762 127.544C147.356 127.672 147.031 127.859 146.786 128.104C146.54 128.349 146.418 128.669 146.418 129.064C146.418 129.469 146.578 129.789 146.898 130.024C147.228 130.248 147.676 130.36 148.242 130.36ZM159.911 123.432C159.911 123.219 160.017 123.112 160.231 123.112H160.567C160.78 123.112 160.887 123.219 160.887 123.432V130.92C160.887 131.912 160.588 132.691 159.991 133.256C159.393 133.832 158.556 134.12 157.479 134.12C156.316 134.12 155.244 133.789 154.263 133.128C154.156 133.064 154.103 132.984 154.103 132.888C154.103 132.813 154.124 132.749 154.167 132.696L154.359 132.424C154.423 132.317 154.508 132.264 154.615 132.264C154.657 132.264 154.721 132.285 154.807 132.328C155.276 132.627 155.713 132.851 156.119 133C156.535 133.149 156.988 133.224 157.479 133.224C158.183 133.224 158.753 133.027 159.191 132.632C159.628 132.248 159.847 131.651 159.847 130.84V129.56C159.271 130.488 158.396 130.952 157.223 130.952C156.54 130.952 155.937 130.781 155.414 130.44C154.892 130.088 154.487 129.608 154.199 129C153.921 128.392 153.783 127.704 153.783 126.936C153.783 126.168 153.921 125.48 154.199 124.872C154.487 124.264 154.892 123.789 155.414 123.448C155.937 123.096 156.54 122.92 157.223 122.92C157.841 122.92 158.375 123.053 158.823 123.32C159.281 123.576 159.644 123.944 159.911 124.424V123.432ZM157.335 130.056C158.103 130.056 158.716 129.768 159.175 129.192C159.633 128.605 159.863 127.853 159.863 126.936C159.863 126.019 159.633 125.272 159.175 124.696C158.716 124.109 158.103 123.816 157.335 123.816C156.556 123.816 155.948 124.104 155.511 124.68C155.084 125.256 154.871 126.008 154.871 126.936C154.871 127.864 155.084 128.616 155.511 129.192C155.948 129.768 156.556 130.056 157.335 130.056ZM166.206 123.048C166.473 123.048 166.787 123.091 167.15 123.176C167.342 123.24 167.417 123.373 167.374 123.576L167.31 123.832C167.257 124.035 167.123 124.109 166.91 124.056C166.654 123.992 166.419 123.96 166.206 123.96C165.662 123.96 165.209 124.195 164.846 124.664C164.494 125.133 164.318 125.784 164.318 126.616V130.68C164.318 130.893 164.211 131 163.998 131H163.582C163.369 131 163.262 130.893 163.262 130.68V123.432C163.262 123.219 163.369 123.112 163.582 123.112H163.934C164.147 123.112 164.254 123.219 164.254 123.432V124.312C164.435 123.917 164.691 123.608 165.022 123.384C165.363 123.16 165.758 123.048 166.206 123.048ZM171.646 122.92C172.617 122.92 173.374 123.155 173.918 123.624C174.462 124.083 174.734 124.691 174.734 125.448V130.68C174.734 130.893 174.627 131 174.414 131H174.094C173.881 131 173.774 130.893 173.774 130.68V129.96C173.507 130.387 173.129 130.707 172.638 130.92C172.158 131.133 171.619 131.24 171.022 131.24C170.19 131.24 169.513 131.064 168.99 130.712C168.467 130.36 168.206 129.816 168.206 129.08C168.206 128.493 168.371 128.024 168.702 127.672C169.033 127.309 169.465 127.037 169.998 126.856C170.531 126.664 171.198 126.493 171.998 126.344L173.726 126.04V125.528C173.726 124.984 173.539 124.563 173.166 124.264C172.793 123.955 172.302 123.8 171.694 123.8C171.235 123.8 170.819 123.885 170.446 124.056C170.073 124.227 169.673 124.52 169.246 124.936C169.171 125.011 169.091 125.048 169.006 125.048C168.931 125.048 168.862 125.016 168.798 124.952L168.59 124.76C168.515 124.685 168.478 124.605 168.478 124.52C168.478 124.424 168.515 124.339 168.59 124.264C169.038 123.795 169.507 123.453 169.998 123.24C170.499 123.027 171.049 122.92 171.646 122.92ZM171.07 130.36C171.838 130.36 172.473 130.157 172.974 129.752C173.475 129.347 173.726 128.829 173.726 128.2V126.856L172.238 127.144C171.545 127.283 170.995 127.416 170.59 127.544C170.185 127.672 169.859 127.859 169.614 128.104C169.369 128.349 169.246 128.669 169.246 129.064C169.246 129.469 169.406 129.789 169.726 130.024C170.057 130.248 170.505 130.36 171.07 130.36ZM180.851 122.936C181.512 122.936 182.104 123.112 182.627 123.464C183.16 123.805 183.576 124.291 183.875 124.92C184.173 125.539 184.323 126.248 184.323 127.048C184.323 127.859 184.173 128.579 183.875 129.208C183.576 129.837 183.165 130.328 182.643 130.68C182.12 131.021 181.523 131.192 180.851 131.192C179.613 131.192 178.707 130.739 178.131 129.832V133.624C178.131 133.837 178.024 133.944 177.811 133.944H177.395C177.181 133.944 177.075 133.837 177.075 133.624V123.432C177.075 123.219 177.181 123.112 177.395 123.112H177.747C177.96 123.112 178.067 123.219 178.067 123.432V124.44C178.355 123.949 178.733 123.576 179.203 123.32C179.672 123.064 180.221 122.936 180.851 122.936ZM180.771 130.296C181.517 130.296 182.115 129.997 182.563 129.4C183.011 128.803 183.235 128.019 183.235 127.048C183.235 126.088 183.011 125.315 182.563 124.728C182.115 124.131 181.517 123.832 180.771 123.832C179.971 123.832 179.32 124.12 178.819 124.696C178.328 125.261 178.083 126.045 178.083 127.048C178.083 128.051 178.333 128.845 178.835 129.432C179.336 130.008 179.981 130.296 180.771 130.296ZM189.72 122.92C190.637 122.92 191.336 123.181 191.816 123.704C192.296 124.216 192.536 124.851 192.536 125.608V130.68C192.536 130.893 192.429 131 192.216 131H191.8C191.586 131 191.48 130.893 191.48 130.68V125.96C191.48 125.256 191.309 124.723 190.968 124.36C190.626 123.997 190.136 123.816 189.496 123.816C189.09 123.816 188.717 123.917 188.376 124.12C188.034 124.312 187.762 124.579 187.56 124.92C187.357 125.261 187.256 125.635 187.256 126.04V130.68C187.256 130.893 187.149 131 186.936 131H186.52C186.306 131 186.2 130.893 186.2 130.68V119.96C186.2 119.747 186.306 119.64 186.52 119.64H186.936C187.149 119.64 187.256 119.747 187.256 119.96V124.136C187.512 123.731 187.853 123.427 188.28 123.224C188.717 123.021 189.197 122.92 189.72 122.92Z" fill="white"/>
<path d="M126.222 151.21C125.27 151.21 124.449 150.991 123.758 150.552C123.067 150.104 122.54 149.488 122.176 148.704C121.812 147.92 121.63 147.029 121.63 146.03C121.63 145.022 121.812 144.126 122.176 143.342C122.54 142.558 123.072 141.947 123.772 141.508C124.481 141.069 125.331 140.85 126.32 140.85C126.889 140.85 127.421 140.943 127.916 141.13C128.411 141.307 128.938 141.615 129.498 142.054C129.582 142.11 129.624 142.175 129.624 142.25C129.624 142.306 129.596 142.371 129.54 142.446L129.344 142.698C129.288 142.773 129.223 142.81 129.148 142.81C129.073 142.81 129.003 142.782 128.938 142.726C128.434 142.334 127.977 142.068 127.566 141.928C127.165 141.779 126.749 141.704 126.32 141.704C125.564 141.704 124.906 141.891 124.346 142.264C123.795 142.628 123.371 143.137 123.072 143.79C122.773 144.443 122.624 145.19 122.624 146.03C122.624 146.861 122.773 147.607 123.072 148.27C123.371 148.923 123.791 149.437 124.332 149.81C124.873 150.174 125.499 150.356 126.208 150.356C126.768 150.356 127.263 150.249 127.692 150.034C128.131 149.81 128.597 149.465 129.092 148.998C129.167 148.942 129.232 148.914 129.288 148.914C129.363 148.914 129.433 148.947 129.498 149.012L129.722 149.264C129.778 149.32 129.806 149.381 129.806 149.446C129.806 149.53 129.759 149.614 129.666 149.698C129.087 150.249 128.537 150.641 128.014 150.874C127.491 151.098 126.894 151.21 126.222 151.21ZM134.048 143.93C134.897 143.93 135.56 144.135 136.036 144.546C136.512 144.947 136.75 145.479 136.75 146.142V150.72C136.75 150.907 136.656 151 136.47 151H136.19C136.003 151 135.91 150.907 135.91 150.72V150.09C135.676 150.463 135.345 150.743 134.916 150.93C134.496 151.117 134.024 151.21 133.502 151.21C132.774 151.21 132.181 151.056 131.724 150.748C131.266 150.44 131.038 149.964 131.038 149.32C131.038 148.807 131.182 148.396 131.472 148.088C131.761 147.771 132.139 147.533 132.606 147.374C133.072 147.206 133.656 147.057 134.356 146.926L135.868 146.66V146.212C135.868 145.736 135.704 145.367 135.378 145.106C135.051 144.835 134.622 144.7 134.09 144.7C133.688 144.7 133.324 144.775 132.998 144.924C132.671 145.073 132.321 145.33 131.948 145.694C131.882 145.759 131.812 145.792 131.738 145.792C131.672 145.792 131.612 145.764 131.556 145.708L131.374 145.54C131.308 145.475 131.276 145.405 131.276 145.33C131.276 145.246 131.308 145.171 131.374 145.106C131.766 144.695 132.176 144.397 132.606 144.21C133.044 144.023 133.525 143.93 134.048 143.93ZM133.544 150.44C134.216 150.44 134.771 150.263 135.21 149.908C135.648 149.553 135.868 149.101 135.868 148.55V147.374L134.566 147.626C133.959 147.747 133.478 147.864 133.124 147.976C132.769 148.088 132.484 148.251 132.27 148.466C132.055 148.681 131.948 148.961 131.948 149.306C131.948 149.661 132.088 149.941 132.368 150.146C132.657 150.342 133.049 150.44 133.544 150.44ZM142.102 143.944C142.68 143.944 143.198 144.098 143.656 144.406C144.122 144.705 144.486 145.129 144.748 145.68C145.009 146.221 145.14 146.842 145.14 147.542C145.14 148.251 145.009 148.881 144.748 149.432C144.486 149.983 144.127 150.412 143.67 150.72C143.212 151.019 142.69 151.168 142.102 151.168C141.019 151.168 140.226 150.771 139.722 149.978V153.296C139.722 153.483 139.628 153.576 139.442 153.576H139.078C138.891 153.576 138.798 153.483 138.798 153.296V144.378C138.798 144.191 138.891 144.098 139.078 144.098H139.386C139.572 144.098 139.666 144.191 139.666 144.378V145.26C139.918 144.831 140.249 144.504 140.66 144.28C141.07 144.056 141.551 143.944 142.102 143.944ZM142.032 150.384C142.685 150.384 143.208 150.123 143.6 149.6C143.992 149.077 144.188 148.391 144.188 147.542C144.188 146.702 143.992 146.025 143.6 145.512C143.208 144.989 142.685 144.728 142.032 144.728C141.332 144.728 140.762 144.98 140.324 145.484C139.894 145.979 139.68 146.665 139.68 147.542C139.68 148.419 139.899 149.115 140.338 149.628C140.776 150.132 141.341 150.384 142.032 150.384ZM149.685 150.23C149.713 150.221 149.75 150.216 149.797 150.216C149.853 150.216 149.904 150.235 149.951 150.272C149.998 150.309 150.026 150.361 150.035 150.426L150.077 150.622C150.086 150.641 150.091 150.673 150.091 150.72C150.091 150.851 150.021 150.93 149.881 150.958C149.545 151.061 149.186 151.112 148.803 151.112C148.196 151.112 147.762 150.977 147.501 150.706C147.249 150.426 147.123 150.025 147.123 149.502V144.798H146.087C145.9 144.798 145.807 144.705 145.807 144.518V144.378C145.807 144.191 145.9 144.098 146.087 144.098H147.123V141.97C147.123 141.783 147.216 141.69 147.403 141.69H147.767C147.954 141.69 148.047 141.783 148.047 141.97V144.098H149.727C149.914 144.098 150.007 144.191 150.007 144.378V144.518C150.007 144.705 149.914 144.798 149.727 144.798H148.047V149.39C148.047 149.735 148.112 149.978 148.243 150.118C148.374 150.258 148.598 150.328 148.915 150.328C149.139 150.328 149.396 150.295 149.685 150.23ZM151.879 142.348C151.692 142.348 151.534 142.283 151.403 142.152C151.282 142.021 151.221 141.863 151.221 141.676C151.221 141.489 151.282 141.335 151.403 141.214C151.534 141.093 151.692 141.032 151.879 141.032C152.075 141.032 152.234 141.093 152.355 141.214C152.486 141.335 152.551 141.489 152.551 141.676C152.551 141.863 152.486 142.021 152.355 142.152C152.234 142.283 152.075 142.348 151.879 142.348ZM151.697 151C151.51 151 151.417 150.907 151.417 150.72V144.378C151.417 144.191 151.51 144.098 151.697 144.098H152.061C152.248 144.098 152.341 144.191 152.341 144.378V150.72C152.341 150.907 152.248 151 152.061 151H151.697ZM157.253 151.182C156.609 151.182 156.035 151.028 155.531 150.72C155.027 150.412 154.635 149.987 154.355 149.446C154.075 148.895 153.935 148.265 153.935 147.556C153.935 146.847 154.075 146.221 154.355 145.68C154.635 145.129 155.027 144.7 155.531 144.392C156.035 144.084 156.609 143.93 157.253 143.93C157.897 143.93 158.471 144.084 158.975 144.392C159.479 144.7 159.871 145.129 160.151 145.68C160.431 146.221 160.571 146.847 160.571 147.556C160.571 148.265 160.431 148.895 160.151 149.446C159.871 149.987 159.479 150.412 158.975 150.72C158.471 151.028 157.897 151.182 157.253 151.182ZM157.253 150.412C157.972 150.412 158.546 150.151 158.975 149.628C159.405 149.096 159.619 148.405 159.619 147.556C159.619 146.707 159.405 146.021 158.975 145.498C158.546 144.966 157.972 144.7 157.253 144.7C156.535 144.7 155.961 144.966 155.531 145.498C155.102 146.021 154.887 146.707 154.887 147.556C154.887 148.405 155.102 149.096 155.531 149.628C155.961 150.151 156.535 150.412 157.253 150.412ZM165.257 143.93C166.069 143.93 166.68 144.154 167.091 144.602C167.511 145.05 167.721 145.61 167.721 146.282V150.72C167.721 150.907 167.627 151 167.441 151H167.077C166.89 151 166.797 150.907 166.797 150.72V146.59C166.797 145.974 166.647 145.507 166.349 145.19C166.05 144.873 165.621 144.714 165.061 144.714C164.706 144.714 164.379 144.803 164.081 144.98C163.782 145.148 163.544 145.381 163.367 145.68C163.189 145.979 163.101 146.305 163.101 146.66V150.72C163.101 150.907 163.007 151 162.821 151H162.457C162.27 151 162.177 150.907 162.177 150.72V144.378C162.177 144.191 162.27 144.098 162.457 144.098H162.765C162.951 144.098 163.045 144.191 163.045 144.378V145.05C163.278 144.677 163.586 144.397 163.969 144.21C164.351 144.023 164.781 143.93 165.257 143.93Z" fill="white"/>
<path d="M122.272 171C122.112 171 122.032 170.92 122.032 170.76V162.72C122.032 162.56 122.112 162.48 122.272 162.48H125.08C125.872 162.48 126.548 162.66 127.108 163.02C127.668 163.38 128.092 163.88 128.38 164.52C128.668 165.16 128.812 165.9 128.812 166.74C128.812 167.58 128.668 168.32 128.38 168.96C128.092 169.6 127.668 170.1 127.108 170.46C126.548 170.82 125.872 171 125.08 171H122.272ZM124.936 170.292C125.904 170.292 126.648 169.976 127.168 169.344C127.688 168.704 127.948 167.836 127.948 166.74C127.948 165.652 127.688 164.788 127.168 164.148C126.648 163.508 125.904 163.188 124.936 163.188H122.884V170.292H124.936ZM134.704 169.596C134.76 169.54 134.82 169.512 134.884 169.512C134.94 169.512 134.992 169.536 135.04 169.584L135.196 169.728C135.252 169.784 135.28 169.844 135.28 169.908C135.28 169.956 135.256 170.012 135.208 170.076C134.816 170.468 134.436 170.748 134.068 170.916C133.7 171.076 133.288 171.156 132.832 171.156C132.256 171.156 131.756 171.028 131.332 170.772C130.908 170.516 130.58 170.16 130.348 169.704C130.116 169.24 130 168.704 130 168.096C130 167.48 130.112 166.936 130.336 166.464C130.568 165.984 130.892 165.612 131.308 165.348C131.724 165.076 132.204 164.94 132.748 164.94C133.556 164.94 134.192 165.192 134.656 165.696C135.12 166.2 135.352 166.88 135.352 167.736V167.88C135.344 167.952 135.316 168.008 135.268 168.048C135.228 168.088 135.172 168.108 135.1 168.108H130.804C130.828 168.78 131.004 169.348 131.332 169.812C131.668 170.268 132.168 170.496 132.832 170.496C133.192 170.496 133.508 170.432 133.78 170.304C134.06 170.168 134.368 169.932 134.704 169.596ZM132.748 165.6C132.22 165.6 131.784 165.764 131.44 166.092C131.104 166.412 130.9 166.884 130.828 167.508H134.56C134.544 166.924 134.376 166.46 134.056 166.116C133.736 165.772 133.3 165.6 132.748 165.6ZM139.376 170.34C139.4 170.332 139.432 170.328 139.472 170.328C139.52 170.328 139.564 170.344 139.604 170.376C139.644 170.408 139.668 170.452 139.676 170.508L139.712 170.676C139.72 170.692 139.724 170.72 139.724 170.76C139.724 170.872 139.664 170.94 139.544 170.964C139.256 171.052 138.948 171.096 138.62 171.096C138.1 171.096 137.728 170.98 137.504 170.748C137.288 170.508 137.18 170.164 137.18 169.716V165.684H136.292C136.132 165.684 136.052 165.604 136.052 165.444V165.324C136.052 165.164 136.132 165.084 136.292 165.084H137.18V163.26C137.18 163.1 137.26 163.02 137.42 163.02H137.732C137.892 163.02 137.972 163.1 137.972 163.26V165.084H139.412C139.572 165.084 139.652 165.164 139.652 165.324V165.444C139.652 165.604 139.572 165.684 139.412 165.684H137.972V169.62C137.972 169.916 138.028 170.124 138.14 170.244C138.252 170.364 138.444 170.424 138.716 170.424C138.908 170.424 139.128 170.396 139.376 170.34ZM143.152 164.94C143.88 164.94 144.448 165.116 144.856 165.468C145.264 165.812 145.468 166.268 145.468 166.836V170.76C145.468 170.92 145.388 171 145.228 171H144.988C144.828 171 144.748 170.92 144.748 170.76V170.22C144.548 170.54 144.264 170.78 143.896 170.94C143.536 171.1 143.132 171.18 142.684 171.18C142.06 171.18 141.552 171.048 141.16 170.784C140.768 170.52 140.572 170.112 140.572 169.56C140.572 169.12 140.696 168.768 140.944 168.504C141.192 168.232 141.516 168.028 141.916 167.892C142.316 167.748 142.816 167.62 143.416 167.508L144.712 167.28V166.896C144.712 166.488 144.572 166.172 144.292 165.948C144.012 165.716 143.644 165.6 143.188 165.6C142.844 165.6 142.532 165.664 142.252 165.792C141.972 165.92 141.672 166.14 141.352 166.452C141.296 166.508 141.236 166.536 141.172 166.536C141.116 166.536 141.064 166.512 141.016 166.464L140.86 166.32C140.804 166.264 140.776 166.204 140.776 166.14C140.776 166.068 140.804 166.004 140.86 165.948C141.196 165.596 141.548 165.34 141.916 165.18C142.292 165.02 142.704 164.94 143.152 164.94ZM142.72 170.52C143.296 170.52 143.772 170.368 144.148 170.064C144.524 169.76 144.712 169.372 144.712 168.9V167.892L143.596 168.108C143.076 168.212 142.664 168.312 142.36 168.408C142.056 168.504 141.812 168.644 141.628 168.828C141.444 169.012 141.352 169.252 141.352 169.548C141.352 169.852 141.472 170.092 141.712 170.268C141.96 170.436 142.296 170.52 142.72 170.52ZM147.62 163.584C147.46 163.584 147.324 163.528 147.212 163.416C147.108 163.304 147.056 163.168 147.056 163.008C147.056 162.848 147.108 162.716 147.212 162.612C147.324 162.508 147.46 162.456 147.62 162.456C147.788 162.456 147.924 162.508 148.028 162.612C148.14 162.716 148.196 162.848 148.196 163.008C148.196 163.168 148.14 163.304 148.028 163.416C147.924 163.528 147.788 163.584 147.62 163.584ZM147.464 171C147.304 171 147.224 170.92 147.224 170.76V165.324C147.224 165.164 147.304 165.084 147.464 165.084H147.776C147.936 165.084 148.016 165.164 148.016 165.324V170.76C148.016 170.92 147.936 171 147.776 171H147.464ZM150.031 171C149.871 171 149.791 170.92 149.791 170.76V162.72C149.791 162.56 149.871 162.48 150.031 162.48H150.343C150.503 162.48 150.583 162.56 150.583 162.72V170.76C150.583 170.92 150.503 171 150.343 171H150.031Z" fill="white"/>
</g>
<defs>
<filter id="filter0_dd_852_12876" x="-86.3442" y="-16.7886" width="223.947" height="251.762" filterUnits="userSpaceOnUse" color-interpolation-filters="sRGB">
<feFlood flood-opacity="0" result="BackgroundImageFix"/>
<feColorMatrix in="SourceAlpha" type="matrix" values="0 0 0 0 0 0 0 0 0 0 0 0 0 0 0 0 0 0 127 0" result="hardAlpha"/>
<feOffset dy="14"/>
<feGaussianBlur stdDeviation="14"/>
<feColorMatrix type="matrix" values="0 0 0 0 0.272549 0 0 0 0 0.272549 0 0 0 0 0.272549 0 0 0 0.25 0"/>
<feBlend mode="normal" in2="BackgroundImageFix" result="effect1_dropShadow_852_12876"/>
<feColorMatrix in="SourceAlpha" type="matrix" values="0 0 0 0 0 0 0 0 0 0 0 0 0 0 0 0 0 0 127 0" result="hardAlpha"/>
<feOffset dy="9"/>
<feGaussianBlur stdDeviation="6"/>
<feColorMatrix type="matrix" values="0 0 0 0 0.272549 0 0 0 0 0.272549 0 0 0 0 0.272549 0 0 0 0.22 0"/>
<feBlend mode="normal" in2="effect1_dropShadow_852_12876" result="effect2_dropShadow_852_12876"/>
<feBlend mode="normal" in="SourceGraphic" in2="effect2_dropShadow_852_12876" result="shape"/>
</filter>
<clipPath id="clip0_852_12876">
<rect width="284" height="188" fill="white"/>
</clipPath>
</defs>
</svg>
