<svg width="344" height="210" viewBox="0 0 344 210" fill="none" xmlns="http://www.w3.org/2000/svg">
<rect width="344" height="210" fill="#F5F5F5"/>
<rect x="72.5" y="74.5" width="15" height="15" rx="1.5" fill="white" stroke="#767676"/>
<path d="M97.696 88C97.4827 88 97.376 87.8933 97.376 87.68V76.96C97.376 76.7467 97.4827 76.64 97.696 76.64H98.192C98.4053 76.64 98.512 76.7467 98.512 76.96V87.056H103.616C103.829 87.056 103.936 87.1627 103.936 87.376V87.68C103.936 87.8933 103.829 88 103.616 88H97.696ZM108.74 79.92C109.71 79.92 110.468 80.1547 111.012 80.624C111.556 81.0827 111.828 81.6907 111.828 82.448V87.68C111.828 87.8933 111.721 88 111.508 88H111.188C110.974 88 110.868 87.8933 110.868 87.68V86.96C110.601 87.3867 110.222 87.7067 109.732 87.92C109.252 88.1333 108.713 88.24 108.116 88.24C107.284 88.24 106.606 88.064 106.084 87.712C105.561 87.36 105.3 86.816 105.3 86.08C105.3 85.4933 105.465 85.024 105.796 84.672C106.126 84.3093 106.558 84.0373 107.092 83.856C107.625 83.664 108.292 83.4933 109.092 83.344L110.82 83.04V82.528C110.82 81.984 110.633 81.5627 110.26 81.264C109.886 80.9547 109.396 80.8 108.788 80.8C108.329 80.8 107.913 80.8853 107.54 81.056C107.166 81.2267 106.766 81.52 106.34 81.936C106.265 82.0107 106.185 82.048 106.1 82.048C106.025 82.048 105.956 82.016 105.892 81.952L105.684 81.76C105.609 81.6853 105.572 81.6053 105.572 81.52C105.572 81.424 105.609 81.3387 105.684 81.264C106.132 80.7947 106.601 80.4533 107.092 80.24C107.593 80.0267 108.142 79.92 108.74 79.92ZM108.164 87.36C108.932 87.36 109.566 87.1573 110.068 86.752C110.569 86.3467 110.82 85.8293 110.82 85.2V83.856L109.332 84.144C108.638 84.2827 108.089 84.416 107.684 84.544C107.278 84.672 106.953 84.8587 106.708 85.104C106.462 85.3493 106.34 85.6693 106.34 86.064C106.34 86.4693 106.5 86.7893 106.82 87.024C107.15 87.248 107.598 87.36 108.164 87.36ZM117.944 79.936C118.616 79.936 119.214 80.112 119.736 80.464C120.27 80.8053 120.68 81.2907 120.968 81.92C121.267 82.5387 121.416 83.2533 121.416 84.064C121.416 84.8747 121.267 85.5947 120.968 86.224C120.67 86.8427 120.254 87.328 119.72 87.68C119.198 88.0213 118.606 88.192 117.944 88.192C116.675 88.192 115.747 87.7013 115.16 86.72V87.68C115.16 87.8933 115.054 88 114.84 88H114.488C114.275 88 114.168 87.8933 114.168 87.68V76.944C114.168 76.7307 114.275 76.624 114.488 76.624H114.904C115.118 76.624 115.224 76.7307 115.224 76.944V81.36C115.811 80.4107 116.718 79.936 117.944 79.936ZM117.864 87.296C118.6 87.296 119.192 86.9973 119.64 86.4C120.099 85.8027 120.328 85.024 120.328 84.064C120.328 83.104 120.099 82.3253 119.64 81.728C119.192 81.1307 118.6 80.832 117.864 80.832C117.075 80.832 116.43 81.12 115.928 81.696C115.427 82.272 115.176 83.0613 115.176 84.064C115.176 85.0773 115.422 85.872 115.912 86.448C116.414 87.0133 117.064 87.296 117.864 87.296ZM129.131 86.128C129.206 86.0533 129.286 86.016 129.371 86.016C129.446 86.016 129.515 86.048 129.579 86.112L129.787 86.304C129.862 86.3787 129.899 86.4587 129.899 86.544C129.899 86.608 129.867 86.6827 129.803 86.768C129.28 87.2907 128.774 87.664 128.283 87.888C127.792 88.1013 127.243 88.208 126.635 88.208C125.867 88.208 125.2 88.0373 124.635 87.696C124.07 87.3547 123.632 86.88 123.323 86.272C123.014 85.6533 122.859 84.9387 122.859 84.128C122.859 83.3067 123.008 82.5813 123.307 81.952C123.616 81.312 124.048 80.816 124.603 80.464C125.158 80.1013 125.798 79.92 126.523 79.92C127.6 79.92 128.448 80.256 129.067 80.928C129.686 81.6 129.995 82.5067 129.995 83.648V83.84C129.984 83.936 129.947 84.0107 129.883 84.064C129.83 84.1173 129.755 84.144 129.659 84.144H123.931C123.963 85.04 124.198 85.7973 124.635 86.416C125.083 87.024 125.75 87.328 126.635 87.328C127.115 87.328 127.536 87.2427 127.899 87.072C128.272 86.8907 128.683 86.576 129.131 86.128ZM126.523 80.8C125.819 80.8 125.238 81.0187 124.779 81.456C124.331 81.8827 124.059 82.512 123.963 83.344H128.939C128.918 82.5653 128.694 81.9467 128.267 81.488C127.84 81.0293 127.259 80.8 126.523 80.8ZM132.223 88C132.01 88 131.903 87.8933 131.903 87.68V76.96C131.903 76.7467 132.01 76.64 132.223 76.64H132.639C132.852 76.64 132.959 76.7467 132.959 76.96V87.68C132.959 87.8933 132.852 88 132.639 88H132.223Z" fill="#464646"/>
<rect x="72.5" y="112.5" width="15" height="15" rx="1.5" fill="#0063FB" stroke="#0063FB"/>
<path d="M79.2264 121.567L82.9035 117.168C83.1789 116.838 83.6694 116.794 83.999 117.07C84.3286 117.345 84.3725 117.836 84.097 118.166L79.8713 123.221C79.5771 123.573 79.0438 123.595 78.7213 123.269L76.3359 120.856C76.034 120.55 76.0368 120.058 76.3424 119.756C76.6479 119.454 77.1403 119.457 77.4423 119.762L79.2264 121.567Z" fill="white"/>
<path d="M97.696 126C97.4827 126 97.376 125.893 97.376 125.68V114.96C97.376 114.747 97.4827 114.64 97.696 114.64H98.192C98.4053 114.64 98.512 114.747 98.512 114.96V125.056H103.616C103.829 125.056 103.936 125.163 103.936 125.376V125.68C103.936 125.893 103.829 126 103.616 126H97.696ZM108.74 117.92C109.71 117.92 110.468 118.155 111.012 118.624C111.556 119.083 111.828 119.691 111.828 120.448V125.68C111.828 125.893 111.721 126 111.508 126H111.188C110.974 126 110.868 125.893 110.868 125.68V124.96C110.601 125.387 110.222 125.707 109.732 125.92C109.252 126.133 108.713 126.24 108.116 126.24C107.284 126.24 106.606 126.064 106.084 125.712C105.561 125.36 105.3 124.816 105.3 124.08C105.3 123.493 105.465 123.024 105.796 122.672C106.126 122.309 106.558 122.037 107.092 121.856C107.625 121.664 108.292 121.493 109.092 121.344L110.82 121.04V120.528C110.82 119.984 110.633 119.563 110.26 119.264C109.886 118.955 109.396 118.8 108.788 118.8C108.329 118.8 107.913 118.885 107.54 119.056C107.166 119.227 106.766 119.52 106.34 119.936C106.265 120.011 106.185 120.048 106.1 120.048C106.025 120.048 105.956 120.016 105.892 119.952L105.684 119.76C105.609 119.685 105.572 119.605 105.572 119.52C105.572 119.424 105.609 119.339 105.684 119.264C106.132 118.795 106.601 118.453 107.092 118.24C107.593 118.027 108.142 117.92 108.74 117.92ZM108.164 125.36C108.932 125.36 109.566 125.157 110.068 124.752C110.569 124.347 110.82 123.829 110.82 123.2V121.856L109.332 122.144C108.638 122.283 108.089 122.416 107.684 122.544C107.278 122.672 106.953 122.859 106.708 123.104C106.462 123.349 106.34 123.669 106.34 124.064C106.34 124.469 106.5 124.789 106.82 125.024C107.15 125.248 107.598 125.36 108.164 125.36ZM117.944 117.936C118.616 117.936 119.214 118.112 119.736 118.464C120.27 118.805 120.68 119.291 120.968 119.92C121.267 120.539 121.416 121.253 121.416 122.064C121.416 122.875 121.267 123.595 120.968 124.224C120.67 124.843 120.254 125.328 119.72 125.68C119.198 126.021 118.606 126.192 117.944 126.192C116.675 126.192 115.747 125.701 115.16 124.72V125.68C115.16 125.893 115.054 126 114.84 126H114.488C114.275 126 114.168 125.893 114.168 125.68V114.944C114.168 114.731 114.275 114.624 114.488 114.624H114.904C115.118 114.624 115.224 114.731 115.224 114.944V119.36C115.811 118.411 116.718 117.936 117.944 117.936ZM117.864 125.296C118.6 125.296 119.192 124.997 119.64 124.4C120.099 123.803 120.328 123.024 120.328 122.064C120.328 121.104 120.099 120.325 119.64 119.728C119.192 119.131 118.6 118.832 117.864 118.832C117.075 118.832 116.43 119.12 115.928 119.696C115.427 120.272 115.176 121.061 115.176 122.064C115.176 123.077 115.422 123.872 115.912 124.448C116.414 125.013 117.064 125.296 117.864 125.296ZM129.131 124.128C129.206 124.053 129.286 124.016 129.371 124.016C129.446 124.016 129.515 124.048 129.579 124.112L129.787 124.304C129.862 124.379 129.899 124.459 129.899 124.544C129.899 124.608 129.867 124.683 129.803 124.768C129.28 125.291 128.774 125.664 128.283 125.888C127.792 126.101 127.243 126.208 126.635 126.208C125.867 126.208 125.2 126.037 124.635 125.696C124.07 125.355 123.632 124.88 123.323 124.272C123.014 123.653 122.859 122.939 122.859 122.128C122.859 121.307 123.008 120.581 123.307 119.952C123.616 119.312 124.048 118.816 124.603 118.464C125.158 118.101 125.798 117.92 126.523 117.92C127.6 117.92 128.448 118.256 129.067 118.928C129.686 119.6 129.995 120.507 129.995 121.648V121.84C129.984 121.936 129.947 122.011 129.883 122.064C129.83 122.117 129.755 122.144 129.659 122.144H123.931C123.963 123.04 124.198 123.797 124.635 124.416C125.083 125.024 125.75 125.328 126.635 125.328C127.115 125.328 127.536 125.243 127.899 125.072C128.272 124.891 128.683 124.576 129.131 124.128ZM126.523 118.8C125.819 118.8 125.238 119.019 124.779 119.456C124.331 119.883 124.059 120.512 123.963 121.344H128.939C128.918 120.565 128.694 119.947 128.267 119.488C127.84 119.029 127.259 118.8 126.523 118.8ZM132.223 126C132.01 126 131.903 125.893 131.903 125.68V114.96C131.903 114.747 132.01 114.64 132.223 114.64H132.639C132.852 114.64 132.959 114.747 132.959 114.96V125.68C132.959 125.893 132.852 126 132.639 126H132.223Z" fill="#464646"/>
<rect x="72.5" y="150.5" width="15" height="15" rx="1.5" fill="#0063FB" stroke="#0063FB"/>
<path fill-rule="evenodd" clip-rule="evenodd" d="M76 158C76 157.558 76.3582 157.2 76.8 157.2H83.2C83.6418 157.2 84 157.558 84 158C84 158.442 83.6418 158.8 83.2 158.8H76.8C76.3582 158.8 76 158.442 76 158Z" fill="white"/>
<path d="M97.696 164C97.4827 164 97.376 163.893 97.376 163.68V152.96C97.376 152.747 97.4827 152.64 97.696 152.64H98.192C98.4053 152.64 98.512 152.747 98.512 152.96V163.056H103.616C103.829 163.056 103.936 163.163 103.936 163.376V163.68C103.936 163.893 103.829 164 103.616 164H97.696ZM108.74 155.92C109.71 155.92 110.468 156.155 111.012 156.624C111.556 157.083 111.828 157.691 111.828 158.448V163.68C111.828 163.893 111.721 164 111.508 164H111.188C110.974 164 110.868 163.893 110.868 163.68V162.96C110.601 163.387 110.222 163.707 109.732 163.92C109.252 164.133 108.713 164.24 108.116 164.24C107.284 164.24 106.606 164.064 106.084 163.712C105.561 163.36 105.3 162.816 105.3 162.08C105.3 161.493 105.465 161.024 105.796 160.672C106.126 160.309 106.558 160.037 107.092 159.856C107.625 159.664 108.292 159.493 109.092 159.344L110.82 159.04V158.528C110.82 157.984 110.633 157.563 110.26 157.264C109.886 156.955 109.396 156.8 108.788 156.8C108.329 156.8 107.913 156.885 107.54 157.056C107.166 157.227 106.766 157.52 106.34 157.936C106.265 158.011 106.185 158.048 106.1 158.048C106.025 158.048 105.956 158.016 105.892 157.952L105.684 157.76C105.609 157.685 105.572 157.605 105.572 157.52C105.572 157.424 105.609 157.339 105.684 157.264C106.132 156.795 106.601 156.453 107.092 156.24C107.593 156.027 108.142 155.92 108.74 155.92ZM108.164 163.36C108.932 163.36 109.566 163.157 110.068 162.752C110.569 162.347 110.82 161.829 110.82 161.2V159.856L109.332 160.144C108.638 160.283 108.089 160.416 107.684 160.544C107.278 160.672 106.953 160.859 106.708 161.104C106.462 161.349 106.34 161.669 106.34 162.064C106.34 162.469 106.5 162.789 106.82 163.024C107.15 163.248 107.598 163.36 108.164 163.36ZM117.944 155.936C118.616 155.936 119.214 156.112 119.736 156.464C120.27 156.805 120.68 157.291 120.968 157.92C121.267 158.539 121.416 159.253 121.416 160.064C121.416 160.875 121.267 161.595 120.968 162.224C120.67 162.843 120.254 163.328 119.72 163.68C119.198 164.021 118.606 164.192 117.944 164.192C116.675 164.192 115.747 163.701 115.16 162.72V163.68C115.16 163.893 115.054 164 114.84 164H114.488C114.275 164 114.168 163.893 114.168 163.68V152.944C114.168 152.731 114.275 152.624 114.488 152.624H114.904C115.118 152.624 115.224 152.731 115.224 152.944V157.36C115.811 156.411 116.718 155.936 117.944 155.936ZM117.864 163.296C118.6 163.296 119.192 162.997 119.64 162.4C120.099 161.803 120.328 161.024 120.328 160.064C120.328 159.104 120.099 158.325 119.64 157.728C119.192 157.131 118.6 156.832 117.864 156.832C117.075 156.832 116.43 157.12 115.928 157.696C115.427 158.272 115.176 159.061 115.176 160.064C115.176 161.077 115.422 161.872 115.912 162.448C116.414 163.013 117.064 163.296 117.864 163.296ZM129.131 162.128C129.206 162.053 129.286 162.016 129.371 162.016C129.446 162.016 129.515 162.048 129.579 162.112L129.787 162.304C129.862 162.379 129.899 162.459 129.899 162.544C129.899 162.608 129.867 162.683 129.803 162.768C129.28 163.291 128.774 163.664 128.283 163.888C127.792 164.101 127.243 164.208 126.635 164.208C125.867 164.208 125.2 164.037 124.635 163.696C124.07 163.355 123.632 162.88 123.323 162.272C123.014 161.653 122.859 160.939 122.859 160.128C122.859 159.307 123.008 158.581 123.307 157.952C123.616 157.312 124.048 156.816 124.603 156.464C125.158 156.101 125.798 155.92 126.523 155.92C127.6 155.92 128.448 156.256 129.067 156.928C129.686 157.6 129.995 158.507 129.995 159.648V159.84C129.984 159.936 129.947 160.011 129.883 160.064C129.83 160.117 129.755 160.144 129.659 160.144H123.931C123.963 161.04 124.198 161.797 124.635 162.416C125.083 163.024 125.75 163.328 126.635 163.328C127.115 163.328 127.536 163.243 127.899 163.072C128.272 162.891 128.683 162.576 129.131 162.128ZM126.523 156.8C125.819 156.8 125.238 157.019 124.779 157.456C124.331 157.883 124.059 158.512 123.963 159.344H128.939C128.918 158.565 128.694 157.947 128.267 157.488C127.84 157.029 127.259 156.8 126.523 156.8ZM132.223 164C132.01 164 131.903 163.893 131.903 163.68V152.96C131.903 152.747 132.01 152.64 132.223 152.64H132.639C132.852 152.64 132.959 152.747 132.959 152.96V163.68C132.959 163.893 132.852 164 132.639 164H132.223Z" fill="#464646"/>
<rect x="212.5" y="74.5" width="15" height="15" rx="1.5" fill="white" stroke="#767676"/>
<rect x="212.5" y="112.5" width="15" height="15" rx="1.5" fill="#0063FB" stroke="#0063FB"/>
<path d="M219.226 121.567L222.903 117.168C223.179 116.838 223.669 116.794 223.999 117.07C224.329 117.345 224.372 117.836 224.097 118.166L219.871 123.221C219.577 123.573 219.044 123.595 218.721 123.269L216.336 120.856C216.034 120.55 216.037 120.058 216.342 119.756C216.648 119.454 217.14 119.457 217.442 119.762L219.226 121.567Z" fill="white"/>
<rect x="212.5" y="150.5" width="15" height="15" rx="1.5" fill="#0063FB" stroke="#0063FB"/>
<path fill-rule="evenodd" clip-rule="evenodd" d="M216 158C216 157.558 216.358 157.2 216.8 157.2H223.2C223.642 157.2 224 157.558 224 158C224 158.442 223.642 158.8 223.2 158.8H216.8C216.358 158.8 216 158.442 216 158Z" fill="white"/>
<path d="M81.792 43.684C81.832 43.548 81.92 43.48 82.056 43.48H82.404C82.484 43.48 82.544 43.504 82.584 43.552C82.624 43.6 82.636 43.664 82.62 43.744L80.676 51.796C80.636 51.932 80.548 52 80.412 52H79.752C79.6 52 79.508 51.932 79.476 51.796L78.384 47.776C78.04 46.488 77.764 45.408 77.556 44.536C77.332 45.52 77.06 46.604 76.74 47.788L75.648 51.796C75.616 51.932 75.524 52 75.372 52H74.676C74.54 52 74.452 51.932 74.412 51.796L72.468 43.744L72.456 43.672C72.456 43.544 72.532 43.48 72.684 43.48H73.056C73.192 43.48 73.28 43.548 73.32 43.684L74.292 47.776C74.556 48.888 74.812 50.04 75.06 51.232C75.364 49.96 75.66 48.808 75.948 47.776L77.076 43.684C77.108 43.548 77.2 43.48 77.352 43.48H77.808C77.96 43.48 78.052 43.548 78.084 43.684L79.188 47.776C79.5 48.92 79.792 50.064 80.064 51.208C80.272 50.152 80.524 49.008 80.82 47.776L81.792 43.684ZM84.3699 44.584C84.2099 44.584 84.0739 44.528 83.9619 44.416C83.8579 44.304 83.8059 44.168 83.8059 44.008C83.8059 43.848 83.8579 43.716 83.9619 43.612C84.0739 43.508 84.2099 43.456 84.3699 43.456C84.5379 43.456 84.6739 43.508 84.7779 43.612C84.8899 43.716 84.9459 43.848 84.9459 44.008C84.9459 44.168 84.8899 44.304 84.7779 44.416C84.6739 44.528 84.5379 44.584 84.3699 44.584ZM84.2139 52C84.0539 52 83.9739 51.92 83.9739 51.76V46.324C83.9739 46.164 84.0539 46.084 84.2139 46.084H84.5259C84.6859 46.084 84.7659 46.164 84.7659 46.324V51.76C84.7659 51.92 84.6859 52 84.5259 52H84.2139ZM89.1926 51.34C89.2166 51.332 89.2486 51.328 89.2886 51.328C89.3366 51.328 89.3806 51.344 89.4206 51.376C89.4606 51.408 89.4846 51.452 89.4926 51.508L89.5286 51.676C89.5366 51.692 89.5406 51.72 89.5406 51.76C89.5406 51.872 89.4806 51.94 89.3606 51.964C89.0726 52.052 88.7646 52.096 88.4366 52.096C87.9166 52.096 87.5446 51.98 87.3206 51.748C87.1046 51.508 86.9966 51.164 86.9966 50.716V46.684H86.1086C85.9486 46.684 85.8686 46.604 85.8686 46.444V46.324C85.8686 46.164 85.9486 46.084 86.1086 46.084H86.9966V44.26C86.9966 44.1 87.0766 44.02 87.2366 44.02H87.5486C87.7086 44.02 87.7886 44.1 87.7886 44.26V46.084H89.2286C89.3886 46.084 89.4686 46.164 89.4686 46.324V46.444C89.4686 46.604 89.3886 46.684 89.2286 46.684H87.7886V50.62C87.7886 50.916 87.8446 51.124 87.9566 51.244C88.0686 51.364 88.2606 51.424 88.5326 51.424C88.7246 51.424 88.9446 51.396 89.1926 51.34ZM93.3171 45.94C94.0051 45.94 94.5291 46.136 94.8891 46.528C95.2491 46.912 95.4291 47.388 95.4291 47.956V51.76C95.4291 51.92 95.3491 52 95.1891 52H94.8771C94.7171 52 94.6371 51.92 94.6371 51.76V48.22C94.6371 47.692 94.5091 47.292 94.2531 47.02C93.9971 46.748 93.6291 46.612 93.1491 46.612C92.8451 46.612 92.5651 46.688 92.3091 46.84C92.0531 46.984 91.8491 47.184 91.6971 47.44C91.5451 47.696 91.4691 47.976 91.4691 48.28V51.76C91.4691 51.92 91.3891 52 91.2291 52H90.9171C90.7571 52 90.6771 51.92 90.6771 51.76V43.72C90.6771 43.56 90.7571 43.48 90.9171 43.48H91.2291C91.3891 43.48 91.4691 43.56 91.4691 43.72V46.852C91.6611 46.548 91.9171 46.32 92.2371 46.168C92.5651 46.016 92.9251 45.94 93.3171 45.94ZM100.199 52C100.039 52 99.9586 51.92 99.9586 51.76V43.72C99.9586 43.56 100.039 43.48 100.199 43.48H100.511C100.671 43.48 100.751 43.56 100.751 43.72V51.76C100.751 51.92 100.671 52 100.511 52H100.199ZM104.816 45.94C105.544 45.94 106.112 46.116 106.52 46.468C106.928 46.812 107.132 47.268 107.132 47.836V51.76C107.132 51.92 107.052 52 106.892 52H106.652C106.492 52 106.412 51.92 106.412 51.76V51.22C106.212 51.54 105.928 51.78 105.56 51.94C105.2 52.1 104.796 52.18 104.348 52.18C103.724 52.18 103.216 52.048 102.824 51.784C102.432 51.52 102.236 51.112 102.236 50.56C102.236 50.12 102.36 49.768 102.608 49.504C102.856 49.232 103.18 49.028 103.58 48.892C103.98 48.748 104.48 48.62 105.08 48.508L106.376 48.28V47.896C106.376 47.488 106.236 47.172 105.956 46.948C105.676 46.716 105.308 46.6 104.852 46.6C104.508 46.6 104.196 46.664 103.916 46.792C103.636 46.92 103.336 47.14 103.016 47.452C102.96 47.508 102.9 47.536 102.836 47.536C102.78 47.536 102.728 47.512 102.68 47.464L102.524 47.32C102.468 47.264 102.44 47.204 102.44 47.14C102.44 47.068 102.468 47.004 102.524 46.948C102.86 46.596 103.212 46.34 103.58 46.18C103.956 46.02 104.368 45.94 104.816 45.94ZM104.384 51.52C104.96 51.52 105.436 51.368 105.812 51.064C106.188 50.76 106.376 50.372 106.376 49.9V48.892L105.26 49.108C104.74 49.212 104.328 49.312 104.024 49.408C103.72 49.504 103.476 49.644 103.292 49.828C103.108 50.012 103.016 50.252 103.016 50.548C103.016 50.852 103.136 51.092 103.376 51.268C103.624 51.436 103.96 51.52 104.384 51.52ZM111.72 45.952C112.224 45.952 112.672 46.084 113.064 46.348C113.464 46.604 113.772 46.968 113.988 47.44C114.212 47.904 114.324 48.44 114.324 49.048C114.324 49.656 114.212 50.196 113.988 50.668C113.764 51.132 113.452 51.496 113.052 51.76C112.66 52.016 112.216 52.144 111.72 52.144C110.768 52.144 110.072 51.776 109.632 51.04V51.76C109.632 51.92 109.552 52 109.392 52H109.128C108.968 52 108.888 51.92 108.888 51.76V43.708C108.888 43.548 108.968 43.468 109.128 43.468H109.44C109.6 43.468 109.68 43.548 109.68 43.708V47.02C110.12 46.308 110.8 45.952 111.72 45.952ZM111.66 51.472C112.212 51.472 112.656 51.248 112.992 50.8C113.336 50.352 113.508 49.768 113.508 49.048C113.508 48.328 113.336 47.744 112.992 47.296C112.656 46.848 112.212 46.624 111.66 46.624C111.068 46.624 110.584 46.84 110.208 47.272C109.832 47.704 109.644 48.296 109.644 49.048C109.644 49.808 109.828 50.404 110.196 50.836C110.572 51.26 111.06 51.472 111.66 51.472ZM120.11 50.596C120.166 50.54 120.226 50.512 120.29 50.512C120.346 50.512 120.398 50.536 120.446 50.584L120.602 50.728C120.658 50.784 120.686 50.844 120.686 50.908C120.686 50.956 120.662 51.012 120.614 51.076C120.222 51.468 119.842 51.748 119.474 51.916C119.106 52.076 118.694 52.156 118.238 52.156C117.662 52.156 117.162 52.028 116.738 51.772C116.314 51.516 115.986 51.16 115.754 50.704C115.522 50.24 115.406 49.704 115.406 49.096C115.406 48.48 115.518 47.936 115.742 47.464C115.974 46.984 116.298 46.612 116.714 46.348C117.13 46.076 117.61 45.94 118.154 45.94C118.962 45.94 119.598 46.192 120.062 46.696C120.526 47.2 120.758 47.88 120.758 48.736V48.88C120.75 48.952 120.722 49.008 120.674 49.048C120.634 49.088 120.578 49.108 120.506 49.108H116.21C116.234 49.78 116.41 50.348 116.738 50.812C117.074 51.268 117.574 51.496 118.238 51.496C118.598 51.496 118.914 51.432 119.186 51.304C119.466 51.168 119.774 50.932 120.11 50.596ZM118.154 46.6C117.626 46.6 117.19 46.764 116.846 47.092C116.51 47.412 116.306 47.884 116.234 48.508H119.966C119.95 47.924 119.782 47.46 119.462 47.116C119.142 46.772 118.706 46.6 118.154 46.6ZM122.429 52C122.269 52 122.189 51.92 122.189 51.76V43.72C122.189 43.56 122.269 43.48 122.429 43.48H122.741C122.901 43.48 122.981 43.56 122.981 43.72V51.76C122.981 51.92 122.901 52 122.741 52H122.429Z" fill="#767676"/>
<path d="M215.852 52.18C215.22 52.18 214.648 52.084 214.136 51.892C213.632 51.692 213.1 51.368 212.54 50.92C212.468 50.856 212.432 50.796 212.432 50.74C212.432 50.692 212.456 50.64 212.504 50.584L212.696 50.356C212.736 50.292 212.796 50.26 212.876 50.26C212.94 50.26 212.992 50.28 213.032 50.32C213.6 50.76 214.096 51.06 214.52 51.22C214.944 51.372 215.388 51.448 215.852 51.448C216.5 51.448 217.028 51.288 217.436 50.968C217.844 50.64 218.048 50.196 218.048 49.636C218.048 49.276 217.952 48.988 217.76 48.772C217.568 48.556 217.304 48.388 216.968 48.268C216.64 48.148 216.172 48.02 215.564 47.884C214.836 47.724 214.268 47.552 213.86 47.368C213.46 47.184 213.168 46.952 212.984 46.672C212.8 46.392 212.708 46.032 212.708 45.592C212.708 45.128 212.84 44.724 213.104 44.38C213.376 44.028 213.736 43.76 214.184 43.576C214.632 43.392 215.116 43.3 215.636 43.3C216.204 43.3 216.72 43.384 217.184 43.552C217.656 43.72 218.12 43.988 218.576 44.356C218.648 44.404 218.684 44.46 218.684 44.524C218.684 44.572 218.66 44.628 218.612 44.692L218.432 44.908C218.392 44.972 218.332 45.004 218.252 45.004C218.188 45.004 218.132 44.984 218.084 44.944C217.676 44.608 217.28 44.372 216.896 44.236C216.52 44.1 216.104 44.032 215.648 44.032C215.232 44.032 214.864 44.1 214.544 44.236C214.224 44.364 213.972 44.544 213.788 44.776C213.612 45.008 213.524 45.272 213.524 45.568C213.524 45.888 213.612 46.144 213.788 46.336C213.972 46.528 214.224 46.68 214.544 46.792C214.872 46.904 215.348 47.032 215.972 47.176C216.692 47.344 217.26 47.532 217.676 47.74C218.1 47.948 218.408 48.204 218.6 48.508C218.792 48.804 218.888 49.172 218.888 49.612C218.888 50.124 218.756 50.576 218.492 50.968C218.236 51.352 217.876 51.652 217.412 51.868C216.948 52.076 216.428 52.18 215.852 52.18ZM222.876 51.34C222.9 51.332 222.932 51.328 222.972 51.328C223.02 51.328 223.064 51.344 223.104 51.376C223.144 51.408 223.168 51.452 223.176 51.508L223.212 51.676C223.22 51.692 223.224 51.72 223.224 51.76C223.224 51.872 223.164 51.94 223.044 51.964C222.756 52.052 222.448 52.096 222.12 52.096C221.6 52.096 221.228 51.98 221.004 51.748C220.788 51.508 220.68 51.164 220.68 50.716V46.684H219.792C219.632 46.684 219.552 46.604 219.552 46.444V46.324C219.552 46.164 219.632 46.084 219.792 46.084H220.68V44.26C220.68 44.1 220.76 44.02 220.92 44.02H221.232C221.392 44.02 221.472 44.1 221.472 44.26V46.084H222.912C223.072 46.084 223.152 46.164 223.152 46.324V46.444C223.152 46.604 223.072 46.684 222.912 46.684H221.472V50.62C221.472 50.916 221.528 51.124 221.64 51.244C221.752 51.364 221.944 51.424 222.216 51.424C222.408 51.424 222.628 51.396 222.876 51.34ZM226.652 45.94C227.38 45.94 227.948 46.116 228.356 46.468C228.764 46.812 228.968 47.268 228.968 47.836V51.76C228.968 51.92 228.888 52 228.728 52H228.488C228.328 52 228.248 51.92 228.248 51.76V51.22C228.048 51.54 227.764 51.78 227.396 51.94C227.036 52.1 226.632 52.18 226.184 52.18C225.56 52.18 225.052 52.048 224.66 51.784C224.268 51.52 224.072 51.112 224.072 50.56C224.072 50.12 224.196 49.768 224.444 49.504C224.692 49.232 225.016 49.028 225.416 48.892C225.816 48.748 226.316 48.62 226.916 48.508L228.212 48.28V47.896C228.212 47.488 228.072 47.172 227.792 46.948C227.512 46.716 227.144 46.6 226.688 46.6C226.344 46.6 226.032 46.664 225.752 46.792C225.472 46.92 225.172 47.14 224.852 47.452C224.796 47.508 224.736 47.536 224.672 47.536C224.616 47.536 224.564 47.512 224.516 47.464L224.36 47.32C224.304 47.264 224.276 47.204 224.276 47.14C224.276 47.068 224.304 47.004 224.36 46.948C224.696 46.596 225.048 46.34 225.416 46.18C225.792 46.02 226.204 45.94 226.652 45.94ZM226.22 51.52C226.796 51.52 227.272 51.368 227.648 51.064C228.024 50.76 228.212 50.372 228.212 49.9V48.892L227.096 49.108C226.576 49.212 226.164 49.312 225.86 49.408C225.556 49.504 225.312 49.644 225.128 49.828C224.944 50.012 224.852 50.252 224.852 50.548C224.852 50.852 224.972 51.092 225.212 51.268C225.46 51.436 225.796 51.52 226.22 51.52ZM233.364 45.94C234.06 45.94 234.584 46.132 234.936 46.516C235.296 46.9 235.476 47.38 235.476 47.956V51.76C235.476 51.92 235.396 52 235.236 52H234.924C234.764 52 234.684 51.92 234.684 51.76V48.22C234.684 47.692 234.556 47.292 234.3 47.02C234.044 46.748 233.676 46.612 233.196 46.612C232.892 46.612 232.612 46.688 232.356 46.84C232.1 46.984 231.896 47.184 231.744 47.44C231.592 47.696 231.516 47.976 231.516 48.28V51.76C231.516 51.92 231.436 52 231.276 52H230.964C230.804 52 230.724 51.92 230.724 51.76V46.324C230.724 46.164 230.804 46.084 230.964 46.084H231.228C231.388 46.084 231.468 46.164 231.468 46.324V46.9C231.668 46.58 231.932 46.34 232.26 46.18C232.588 46.02 232.956 45.94 233.364 45.94ZM241.5 43.72C241.5 43.56 241.58 43.48 241.74 43.48H242.052C242.212 43.48 242.292 43.56 242.292 43.72V51.76C242.292 51.92 242.212 52 242.052 52H241.8C241.64 52 241.56 51.92 241.56 51.76V50.98C241.344 51.356 241.06 51.644 240.708 51.844C240.356 52.044 239.94 52.144 239.46 52.144C238.956 52.144 238.508 52.016 238.116 51.76C237.724 51.496 237.416 51.132 237.192 50.668C236.968 50.196 236.856 49.656 236.856 49.048C236.856 48.44 236.968 47.904 237.192 47.44C237.424 46.968 237.74 46.604 238.14 46.348C238.54 46.084 238.988 45.952 239.484 45.952C240.396 45.952 241.068 46.292 241.5 46.972V43.72ZM239.52 51.472C240.12 51.472 240.604 51.26 240.972 50.836C241.348 50.404 241.536 49.808 241.536 49.048C241.536 48.296 241.348 47.704 240.972 47.272C240.604 46.84 240.12 46.624 239.52 46.624C238.968 46.624 238.52 46.848 238.176 47.296C237.84 47.744 237.672 48.328 237.672 49.048C237.672 49.776 237.84 50.364 238.176 50.812C238.512 51.252 238.96 51.472 239.52 51.472ZM246.352 45.94C247.08 45.94 247.648 46.116 248.056 46.468C248.464 46.812 248.668 47.268 248.668 47.836V51.76C248.668 51.92 248.588 52 248.428 52H248.188C248.028 52 247.948 51.92 247.948 51.76V51.22C247.748 51.54 247.464 51.78 247.096 51.94C246.736 52.1 246.332 52.18 245.884 52.18C245.26 52.18 244.752 52.048 244.36 51.784C243.968 51.52 243.772 51.112 243.772 50.56C243.772 50.12 243.896 49.768 244.144 49.504C244.392 49.232 244.716 49.028 245.116 48.892C245.516 48.748 246.016 48.62 246.616 48.508L247.912 48.28V47.896C247.912 47.488 247.772 47.172 247.492 46.948C247.212 46.716 246.844 46.6 246.388 46.6C246.044 46.6 245.732 46.664 245.452 46.792C245.172 46.92 244.872 47.14 244.552 47.452C244.496 47.508 244.436 47.536 244.372 47.536C244.316 47.536 244.264 47.512 244.216 47.464L244.06 47.32C244.004 47.264 243.976 47.204 243.976 47.14C243.976 47.068 244.004 47.004 244.06 46.948C244.396 46.596 244.748 46.34 245.116 46.18C245.492 46.02 245.904 45.94 246.352 45.94ZM245.92 51.52C246.496 51.52 246.972 51.368 247.348 51.064C247.724 50.76 247.912 50.372 247.912 49.9V48.892L246.796 49.108C246.276 49.212 245.864 49.312 245.56 49.408C245.256 49.504 245.012 49.644 244.828 49.828C244.644 50.012 244.552 50.252 244.552 50.548C244.552 50.852 244.672 51.092 244.912 51.268C245.16 51.436 245.496 51.52 245.92 51.52ZM250.675 52C250.515 52 250.435 51.92 250.435 51.76V43.72C250.435 43.56 250.515 43.48 250.675 43.48H250.987C251.147 43.48 251.227 43.56 251.227 43.72V51.76C251.227 51.92 251.147 52 250.987 52H250.675ZM255.461 52.156C254.909 52.156 254.417 52.024 253.985 51.76C253.553 51.496 253.217 51.132 252.977 50.668C252.737 50.196 252.617 49.656 252.617 49.048C252.617 48.44 252.737 47.904 252.977 47.44C253.217 46.968 253.553 46.6 253.985 46.336C254.417 46.072 254.909 45.94 255.461 45.94C256.013 45.94 256.505 46.072 256.937 46.336C257.369 46.6 257.705 46.968 257.945 47.44C258.185 47.904 258.305 48.44 258.305 49.048C258.305 49.656 258.185 50.196 257.945 50.668C257.705 51.132 257.369 51.496 256.937 51.76C256.505 52.024 256.013 52.156 255.461 52.156ZM255.461 51.496C256.077 51.496 256.569 51.272 256.937 50.824C257.305 50.368 257.489 49.776 257.489 49.048C257.489 48.32 257.305 47.732 256.937 47.284C256.569 46.828 256.077 46.6 255.461 46.6C254.845 46.6 254.353 46.828 253.985 47.284C253.617 47.732 253.433 48.32 253.433 49.048C253.433 49.776 253.617 50.368 253.985 50.824C254.353 51.272 254.845 51.496 255.461 51.496ZM262.321 45.94C263.017 45.94 263.541 46.132 263.893 46.516C264.253 46.9 264.433 47.38 264.433 47.956V51.76C264.433 51.92 264.353 52 264.193 52H263.881C263.721 52 263.641 51.92 263.641 51.76V48.22C263.641 47.692 263.513 47.292 263.257 47.02C263.001 46.748 262.633 46.612 262.153 46.612C261.849 46.612 261.569 46.688 261.313 46.84C261.057 46.984 260.853 47.184 260.701 47.44C260.549 47.696 260.473 47.976 260.473 48.28V51.76C260.473 51.92 260.393 52 260.233 52H259.921C259.761 52 259.681 51.92 259.681 51.76V46.324C259.681 46.164 259.761 46.084 259.921 46.084H260.185C260.345 46.084 260.425 46.164 260.425 46.324V46.9C260.625 46.58 260.889 46.34 261.217 46.18C261.545 46.02 261.913 45.94 262.321 45.94ZM270.493 50.596C270.549 50.54 270.609 50.512 270.673 50.512C270.729 50.512 270.781 50.536 270.829 50.584L270.985 50.728C271.041 50.784 271.069 50.844 271.069 50.908C271.069 50.956 271.045 51.012 270.997 51.076C270.605 51.468 270.225 51.748 269.857 51.916C269.489 52.076 269.077 52.156 268.621 52.156C268.045 52.156 267.545 52.028 267.121 51.772C266.697 51.516 266.369 51.16 266.137 50.704C265.905 50.24 265.789 49.704 265.789 49.096C265.789 48.48 265.901 47.936 266.125 47.464C266.357 46.984 266.681 46.612 267.097 46.348C267.513 46.076 267.993 45.94 268.537 45.94C269.345 45.94 269.981 46.192 270.445 46.696C270.909 47.2 271.141 47.88 271.141 48.736V48.88C271.133 48.952 271.105 49.008 271.057 49.048C271.017 49.088 270.961 49.108 270.889 49.108H266.593C266.617 49.78 266.793 50.348 267.121 50.812C267.457 51.268 267.957 51.496 268.621 51.496C268.981 51.496 269.297 51.432 269.569 51.304C269.849 51.168 270.157 50.932 270.493 50.596ZM268.537 46.6C268.009 46.6 267.573 46.764 267.229 47.092C266.893 47.412 266.689 47.884 266.617 48.508H270.349C270.333 47.924 270.165 47.46 269.845 47.116C269.525 46.772 269.089 46.6 268.537 46.6Z" fill="#767676"/>
</svg>
