<svg width="344" height="168" viewBox="0 0 344 168" fill="none" xmlns="http://www.w3.org/2000/svg">
<rect width="344" height="168" fill="#F5F5F5"/>
<rect x="44.5" y="65.5" width="15" height="15" rx="1.5" fill="#0063FB" stroke="#0063FB"/>
<path d="M51.2264 74.5671L54.9035 70.1679C55.1789 69.8383 55.6694 69.7945 55.999 70.0699C56.3286 70.3454 56.3725 70.8359 56.097 71.1655L51.8713 76.2211C51.5771 76.573 51.0438 76.5953 50.7213 76.269L48.3359 73.8555C48.034 73.55 48.0368 73.0575 48.3424 72.7556C48.6479 72.4536 49.1403 72.4565 49.4423 72.762L51.2264 74.5671Z" fill="white"/>
<path d="M71.088 79.176C70.256 79.176 69.4027 78.9573 68.528 78.52C68.4 78.456 68.336 78.3707 68.336 78.264C68.336 78.2107 68.352 78.152 68.384 78.088L68.544 77.8C68.608 77.672 68.6933 77.608 68.8 77.608C68.8533 77.608 68.912 77.624 68.976 77.656C69.3707 77.8267 69.7333 77.96 70.064 78.056C70.4053 78.152 70.7467 78.2 71.088 78.2C71.664 78.2 72.1067 78.024 72.416 77.672C72.7253 77.32 72.88 76.7813 72.88 76.056V67.96C72.88 67.7467 72.9867 67.64 73.2 67.64H73.696C73.9093 67.64 74.016 67.7467 74.016 67.96V76.136C74.016 77.1493 73.776 77.912 73.296 78.424C72.816 78.9253 72.08 79.176 71.088 79.176ZM79.7605 79.208C79.0245 79.208 78.3685 79.032 77.7925 78.68C77.2165 78.328 76.7685 77.8427 76.4485 77.224C76.1285 76.5947 75.9685 75.8747 75.9685 75.064C75.9685 74.2533 76.1285 73.5387 76.4485 72.92C76.7685 72.2907 77.2165 71.8 77.7925 71.448C78.3685 71.096 79.0245 70.92 79.7605 70.92C80.4965 70.92 81.1525 71.096 81.7285 71.448C82.3045 71.8 82.7525 72.2907 83.0725 72.92C83.3925 73.5387 83.5525 74.2533 83.5525 75.064C83.5525 75.8747 83.3925 76.5947 83.0725 77.224C82.7525 77.8427 82.3045 78.328 81.7285 78.68C81.1525 79.032 80.4965 79.208 79.7605 79.208ZM79.7605 78.328C80.5818 78.328 81.2378 78.0293 81.7285 77.432C82.2192 76.824 82.4645 76.0347 82.4645 75.064C82.4645 74.0933 82.2192 73.3093 81.7285 72.712C81.2378 72.104 80.5818 71.8 79.7605 71.8C78.9392 71.8 78.2832 72.104 77.7925 72.712C77.3018 73.3093 77.0565 74.0933 77.0565 75.064C77.0565 76.0347 77.3018 76.824 77.7925 77.432C78.2832 78.0293 78.9392 78.328 79.7605 78.328ZM85.9151 69.112C85.7018 69.112 85.5205 69.0373 85.3711 68.888C85.2325 68.7387 85.1631 68.5573 85.1631 68.344C85.1631 68.1307 85.2325 67.9547 85.3711 67.816C85.5205 67.6773 85.7018 67.608 85.9151 67.608C86.1391 67.608 86.3205 67.6773 86.4591 67.816C86.6085 67.9547 86.6831 68.1307 86.6831 68.344C86.6831 68.5573 86.6085 68.7387 86.4591 68.888C86.3205 69.0373 86.1391 69.112 85.9151 69.112ZM85.7071 79C85.4938 79 85.3871 78.8933 85.3871 78.68V71.432C85.3871 71.2187 85.4938 71.112 85.7071 71.112H86.1231C86.3365 71.112 86.4431 71.2187 86.4431 71.432V78.68C86.4431 78.8933 86.3365 79 86.1231 79H85.7071ZM92.3134 70.92C93.2414 70.92 93.94 71.176 94.4094 71.688C94.8894 72.2 95.1294 72.84 95.1294 73.608V78.68C95.1294 78.8933 95.0227 79 94.8094 79H94.3934C94.18 79 94.0734 78.8933 94.0734 78.68V73.96C94.0734 73.256 93.9027 72.7227 93.5614 72.36C93.22 71.9973 92.7294 71.816 92.0894 71.816C91.684 71.816 91.3107 71.9173 90.9694 72.12C90.628 72.312 90.356 72.5787 90.1534 72.92C89.9507 73.2613 89.8494 73.6347 89.8494 74.04V78.68C89.8494 78.8933 89.7427 79 89.5294 79H89.1134C88.9 79 88.7934 78.8933 88.7934 78.68V71.432C88.7934 71.2187 88.9 71.112 89.1134 71.112H89.4654C89.6787 71.112 89.7854 71.2187 89.7854 71.432V72.2C90.052 71.7733 90.404 71.4533 90.8414 71.24C91.2787 71.0267 91.7694 70.92 92.3134 70.92ZM104.705 78.12C104.737 78.1093 104.779 78.104 104.833 78.104C104.897 78.104 104.955 78.1253 105.009 78.168C105.062 78.2107 105.094 78.2693 105.105 78.344L105.153 78.568C105.163 78.5893 105.169 78.6267 105.169 78.68C105.169 78.8293 105.089 78.92 104.929 78.952C104.545 79.0693 104.134 79.128 103.697 79.128C103.003 79.128 102.507 78.9733 102.209 78.664C101.921 78.344 101.777 77.8853 101.777 77.288V71.912H100.593C100.379 71.912 100.273 71.8053 100.273 71.592V71.432C100.273 71.2187 100.379 71.112 100.593 71.112H101.777V68.68C101.777 68.4667 101.883 68.36 102.097 68.36H102.513C102.726 68.36 102.833 68.4667 102.833 68.68V71.112H104.753C104.966 71.112 105.073 71.2187 105.073 71.432V71.592C105.073 71.8053 104.966 71.912 104.753 71.912H102.833V77.16C102.833 77.5547 102.907 77.832 103.057 77.992C103.206 78.152 103.462 78.232 103.825 78.232C104.081 78.232 104.374 78.1947 104.705 78.12ZM110.204 70.92C111.121 70.92 111.82 71.1813 112.3 71.704C112.78 72.216 113.02 72.8507 113.02 73.608V78.68C113.02 78.8933 112.913 79 112.7 79H112.284C112.071 79 111.964 78.8933 111.964 78.68V73.96C111.964 73.256 111.793 72.7227 111.452 72.36C111.111 71.9973 110.62 71.816 109.98 71.816C109.575 71.816 109.201 71.9173 108.86 72.12C108.519 72.312 108.247 72.5787 108.044 72.92C107.841 73.2613 107.74 73.6347 107.74 74.04V78.68C107.74 78.8933 107.633 79 107.42 79H107.004C106.791 79 106.684 78.8933 106.684 78.68V67.96C106.684 67.7467 106.791 67.64 107.004 67.64H107.42C107.633 67.64 107.74 67.7467 107.74 67.96V72.136C107.996 71.7307 108.337 71.4267 108.764 71.224C109.201 71.0213 109.681 70.92 110.204 70.92ZM121.1 77.128C121.175 77.0533 121.255 77.016 121.34 77.016C121.415 77.016 121.484 77.048 121.548 77.112L121.756 77.304C121.831 77.3787 121.868 77.4587 121.868 77.544C121.868 77.608 121.836 77.6827 121.772 77.768C121.249 78.2907 120.743 78.664 120.252 78.888C119.761 79.1013 119.212 79.208 118.604 79.208C117.836 79.208 117.169 79.0373 116.604 78.696C116.039 78.3547 115.601 77.88 115.292 77.272C114.983 76.6533 114.828 75.9387 114.828 75.128C114.828 74.3067 114.977 73.5813 115.276 72.952C115.585 72.312 116.017 71.816 116.572 71.464C117.127 71.1013 117.767 70.92 118.492 70.92C119.569 70.92 120.417 71.256 121.036 71.928C121.655 72.6 121.964 73.5067 121.964 74.648V74.84C121.953 74.936 121.916 75.0107 121.852 75.064C121.799 75.1173 121.724 75.144 121.628 75.144H115.9C115.932 76.04 116.167 76.7973 116.604 77.416C117.052 78.024 117.719 78.328 118.604 78.328C119.084 78.328 119.505 78.2427 119.868 78.072C120.241 77.8907 120.652 77.576 121.1 77.128ZM118.492 71.8C117.788 71.8 117.207 72.0187 116.748 72.456C116.3 72.8827 116.028 73.512 115.932 74.344H120.908C120.887 73.5653 120.663 72.9467 120.236 72.488C119.809 72.0293 119.228 71.8 118.492 71.8ZM128.055 79C127.842 79 127.735 78.8933 127.735 78.68V67.96C127.735 67.7467 127.842 67.64 128.055 67.64H134.775C134.989 67.64 135.095 67.7467 135.095 67.96V68.264C135.095 68.4773 134.989 68.584 134.775 68.584H128.871V72.904H134.279C134.493 72.904 134.599 73.0107 134.599 73.224V73.528C134.599 73.7413 134.493 73.848 134.279 73.848H128.871V78.68C128.871 78.8933 128.765 79 128.551 79H128.055ZM139.536 70.92C140.507 70.92 141.265 71.1547 141.809 71.624C142.353 72.0827 142.625 72.6907 142.625 73.448V78.68C142.625 78.8933 142.518 79 142.305 79H141.985C141.771 79 141.665 78.8933 141.665 78.68V77.96C141.398 78.3867 141.019 78.7067 140.529 78.92C140.049 79.1333 139.51 79.24 138.913 79.24C138.081 79.24 137.403 79.064 136.881 78.712C136.358 78.36 136.097 77.816 136.097 77.08C136.097 76.4933 136.262 76.024 136.593 75.672C136.923 75.3093 137.355 75.0373 137.889 74.856C138.422 74.664 139.089 74.4933 139.889 74.344L141.617 74.04V73.528C141.617 72.984 141.43 72.5627 141.057 72.264C140.683 71.9547 140.193 71.8 139.585 71.8C139.126 71.8 138.71 71.8853 138.337 72.056C137.963 72.2267 137.563 72.52 137.137 72.936C137.062 73.0107 136.982 73.048 136.897 73.048C136.822 73.048 136.753 73.016 136.689 72.952L136.481 72.76C136.406 72.6853 136.368 72.6053 136.368 72.52C136.368 72.424 136.406 72.3387 136.481 72.264C136.929 71.7947 137.398 71.4533 137.889 71.24C138.39 71.0267 138.939 70.92 139.536 70.92ZM138.961 78.36C139.729 78.36 140.363 78.1573 140.865 77.752C141.366 77.3467 141.617 76.8293 141.617 76.2V74.856L140.129 75.144C139.435 75.2827 138.886 75.416 138.481 75.544C138.075 75.672 137.75 75.8587 137.505 76.104C137.259 76.3493 137.137 76.6693 137.137 77.064C137.137 77.4693 137.297 77.7893 137.617 78.024C137.947 78.248 138.395 78.36 138.961 78.36ZM148.741 70.936C149.413 70.936 150.011 71.112 150.533 71.464C151.067 71.8053 151.477 72.2907 151.765 72.92C152.064 73.5387 152.213 74.2533 152.213 75.064C152.213 75.8747 152.064 76.5947 151.765 77.224C151.467 77.8427 151.051 78.328 150.517 78.68C149.995 79.0213 149.403 79.192 148.741 79.192C147.472 79.192 146.544 78.7013 145.957 77.72V78.68C145.957 78.8933 145.851 79 145.637 79H145.285C145.072 79 144.965 78.8933 144.965 78.68V67.944C144.965 67.7307 145.072 67.624 145.285 67.624H145.701C145.915 67.624 146.021 67.7307 146.021 67.944V72.36C146.608 71.4107 147.515 70.936 148.741 70.936ZM148.661 78.296C149.397 78.296 149.989 77.9973 150.437 77.4C150.896 76.8027 151.125 76.024 151.125 75.064C151.125 74.104 150.896 73.3253 150.437 72.728C149.989 72.1307 149.397 71.832 148.661 71.832C147.872 71.832 147.227 72.12 146.725 72.696C146.224 73.272 145.973 74.0613 145.973 75.064C145.973 76.0773 146.219 76.872 146.709 77.448C147.211 78.0133 147.861 78.296 148.661 78.296ZM157.034 71.048C157.301 71.048 157.616 71.0907 157.978 71.176C158.17 71.24 158.245 71.3733 158.202 71.576L158.138 71.832C158.085 72.0347 157.952 72.1093 157.738 72.056C157.482 71.992 157.248 71.96 157.034 71.96C156.49 71.96 156.037 72.1947 155.674 72.664C155.322 73.1333 155.146 73.784 155.146 74.616V78.68C155.146 78.8933 155.04 79 154.826 79H154.41C154.197 79 154.09 78.8933 154.09 78.68V71.432C154.09 71.2187 154.197 71.112 154.41 71.112H154.762C154.976 71.112 155.082 71.2187 155.082 71.432V72.312C155.264 71.9173 155.52 71.608 155.85 71.384C156.192 71.16 156.586 71.048 157.034 71.048ZM160.165 69.112C159.952 69.112 159.77 69.0373 159.621 68.888C159.482 68.7387 159.413 68.5573 159.413 68.344C159.413 68.1307 159.482 67.9547 159.621 67.816C159.77 67.6773 159.952 67.608 160.165 67.608C160.389 67.608 160.57 67.6773 160.709 67.816C160.858 67.9547 160.933 68.1307 160.933 68.344C160.933 68.5573 160.858 68.7387 160.709 68.888C160.57 69.0373 160.389 69.112 160.165 69.112ZM159.957 79C159.744 79 159.637 78.8933 159.637 78.68V71.432C159.637 71.2187 159.744 71.112 159.957 71.112H160.373C160.586 71.112 160.693 71.2187 160.693 71.432V78.68C160.693 78.8933 160.586 79 160.373 79H159.957ZM166.243 79.208C165.486 79.208 164.825 79.0373 164.259 78.696C163.705 78.344 163.273 77.8587 162.963 77.24C162.665 76.6107 162.515 75.8853 162.515 75.064C162.515 74.2533 162.665 73.5333 162.963 72.904C163.273 72.2747 163.705 71.7893 164.259 71.448C164.825 71.096 165.475 70.92 166.211 70.92C166.809 70.92 167.331 71.0213 167.779 71.224C168.227 71.416 168.659 71.736 169.075 72.184C169.139 72.248 169.171 72.3173 169.171 72.392C169.171 72.488 169.129 72.568 169.043 72.632L168.819 72.84C168.755 72.904 168.681 72.936 168.595 72.936C168.521 72.936 168.441 72.8933 168.355 72.808C167.982 72.4347 167.625 72.1733 167.283 72.024C166.953 71.8747 166.585 71.8 166.179 71.8C165.625 71.8 165.15 71.9547 164.755 72.264C164.371 72.5733 164.083 72.9787 163.891 73.48C163.699 73.9707 163.603 74.4987 163.603 75.064C163.603 75.6293 163.699 76.1627 163.891 76.664C164.083 77.1547 164.377 77.5547 164.771 77.864C165.166 78.1627 165.651 78.312 166.227 78.312C166.654 78.312 167.027 78.2373 167.347 78.088C167.678 77.928 168.046 77.6293 168.451 77.192C168.537 77.1067 168.617 77.064 168.691 77.064C168.777 77.064 168.851 77.096 168.915 77.16L169.139 77.336C169.214 77.4 169.251 77.4747 169.251 77.56C169.251 77.6453 169.203 77.7467 169.107 77.864C168.659 78.3547 168.211 78.7013 167.763 78.904C167.315 79.1067 166.809 79.208 166.243 79.208ZM177.853 79.208C177.095 79.208 176.434 79.0373 175.869 78.696C175.314 78.344 174.882 77.8587 174.573 77.24C174.274 76.6107 174.125 75.8853 174.125 75.064C174.125 74.2533 174.274 73.5333 174.573 72.904C174.882 72.2747 175.314 71.7893 175.869 71.448C176.434 71.096 177.085 70.92 177.821 70.92C178.418 70.92 178.941 71.0213 179.389 71.224C179.837 71.416 180.269 71.736 180.685 72.184C180.749 72.248 180.781 72.3173 180.781 72.392C180.781 72.488 180.738 72.568 180.653 72.632L180.429 72.84C180.365 72.904 180.29 72.936 180.205 72.936C180.13 72.936 180.05 72.8933 179.965 72.808C179.591 72.4347 179.234 72.1733 178.893 72.024C178.562 71.8747 178.194 71.8 177.789 71.8C177.234 71.8 176.759 71.9547 176.365 72.264C175.981 72.5733 175.693 72.9787 175.501 73.48C175.309 73.9707 175.213 74.4987 175.213 75.064C175.213 75.6293 175.309 76.1627 175.501 76.664C175.693 77.1547 175.986 77.5547 176.381 77.864C176.775 78.1627 177.261 78.312 177.837 78.312C178.263 78.312 178.637 78.2373 178.957 78.088C179.287 77.928 179.655 77.6293 180.061 77.192C180.146 77.1067 180.226 77.064 180.301 77.064C180.386 77.064 180.461 77.096 180.525 77.16L180.749 77.336C180.823 77.4 180.861 77.4747 180.861 77.56C180.861 77.6453 180.813 77.7467 180.717 77.864C180.269 78.3547 179.821 78.7013 179.373 78.904C178.925 79.1067 178.418 79.208 177.853 79.208ZM185.682 79.208C184.946 79.208 184.29 79.032 183.714 78.68C183.138 78.328 182.69 77.8427 182.37 77.224C182.05 76.5947 181.89 75.8747 181.89 75.064C181.89 74.2533 182.05 73.5387 182.37 72.92C182.69 72.2907 183.138 71.8 183.714 71.448C184.29 71.096 184.946 70.92 185.682 70.92C186.418 70.92 187.074 71.096 187.65 71.448C188.226 71.8 188.674 72.2907 188.994 72.92C189.314 73.5387 189.474 74.2533 189.474 75.064C189.474 75.8747 189.314 76.5947 188.994 77.224C188.674 77.8427 188.226 78.328 187.65 78.68C187.074 79.032 186.418 79.208 185.682 79.208ZM185.682 78.328C186.504 78.328 187.16 78.0293 187.65 77.432C188.141 76.824 188.386 76.0347 188.386 75.064C188.386 74.0933 188.141 73.3093 187.65 72.712C187.16 72.104 186.504 71.8 185.682 71.8C184.861 71.8 184.205 72.104 183.714 72.712C183.224 73.3093 182.978 74.0933 182.978 75.064C182.978 76.0347 183.224 76.824 183.714 77.432C184.205 78.0293 184.861 78.328 185.682 78.328ZM199.325 70.92C200.178 70.92 200.829 71.1653 201.277 71.656C201.736 72.136 201.965 72.7547 201.965 73.512V78.68C201.965 78.8933 201.858 79 201.645 79H201.229C201.016 79 200.909 78.8933 200.909 78.68V73.8C200.909 73.16 200.76 72.6693 200.461 72.328C200.173 71.9867 199.741 71.816 199.165 71.816C198.557 71.816 198.072 72.0187 197.709 72.424C197.346 72.8293 197.165 73.352 197.165 73.992V78.68C197.165 78.8933 197.058 79 196.845 79H196.429C196.216 79 196.109 78.8933 196.109 78.68V73.8C196.109 73.16 195.96 72.6693 195.661 72.328C195.373 71.9867 194.936 71.816 194.349 71.816C193.805 71.816 193.352 71.9867 192.989 72.328C192.637 72.6693 192.429 73.1173 192.365 73.672V78.68C192.365 78.8933 192.258 79 192.045 79H191.629C191.416 79 191.309 78.8933 191.309 78.68V71.432C191.309 71.2187 191.416 71.112 191.629 71.112H191.981C192.194 71.112 192.301 71.2187 192.301 71.432V72.088C192.781 71.3093 193.544 70.92 194.589 70.92C195.133 70.92 195.597 71.0427 195.981 71.288C196.376 71.5227 196.669 71.8427 196.861 72.248C197.426 71.3627 198.248 70.92 199.325 70.92ZM212.309 70.92C213.163 70.92 213.813 71.1653 214.261 71.656C214.72 72.136 214.949 72.7547 214.949 73.512V78.68C214.949 78.8933 214.843 79 214.629 79H214.213C214 79 213.893 78.8933 213.893 78.68V73.8C213.893 73.16 213.744 72.6693 213.445 72.328C213.157 71.9867 212.725 71.816 212.149 71.816C211.541 71.816 211.056 72.0187 210.693 72.424C210.331 72.8293 210.149 73.352 210.149 73.992V78.68C210.149 78.8933 210.043 79 209.829 79H209.413C209.2 79 209.093 78.8933 209.093 78.68V73.8C209.093 73.16 208.944 72.6693 208.645 72.328C208.357 71.9867 207.92 71.816 207.333 71.816C206.789 71.816 206.336 71.9867 205.973 72.328C205.621 72.6693 205.413 73.1173 205.349 73.672V78.68C205.349 78.8933 205.243 79 205.029 79H204.613C204.4 79 204.293 78.8933 204.293 78.68V71.432C204.293 71.2187 204.4 71.112 204.613 71.112H204.965C205.179 71.112 205.285 71.2187 205.285 71.432V72.088C205.765 71.3093 206.528 70.92 207.573 70.92C208.117 70.92 208.581 71.0427 208.965 71.288C209.36 71.5227 209.653 71.8427 209.845 72.248C210.411 71.3627 211.232 70.92 212.309 70.92ZM222.351 71.432C222.351 71.2187 222.458 71.112 222.671 71.112H223.087C223.3 71.112 223.407 71.2187 223.407 71.432V78.68C223.407 78.8933 223.3 79 223.087 79H222.751C222.538 79 222.431 78.8933 222.431 78.68V77.96C222.196 78.376 221.86 78.6907 221.423 78.904C220.996 79.1067 220.527 79.208 220.015 79.208C219.055 79.208 218.346 78.968 217.887 78.488C217.428 77.9973 217.199 77.368 217.199 76.6V71.432C217.199 71.2187 217.306 71.112 217.519 71.112H217.935C218.148 71.112 218.255 71.2187 218.255 71.432V76.376C218.255 77.0053 218.41 77.4853 218.719 77.816C219.039 78.136 219.492 78.296 220.079 78.296C220.74 78.296 221.284 78.0933 221.711 77.688C222.138 77.2827 222.351 76.7067 222.351 75.96V71.432ZM229.298 70.92C230.226 70.92 230.924 71.176 231.394 71.688C231.874 72.2 232.114 72.84 232.114 73.608V78.68C232.114 78.8933 232.007 79 231.794 79H231.378C231.164 79 231.058 78.8933 231.058 78.68V73.96C231.058 73.256 230.887 72.7227 230.546 72.36C230.204 71.9973 229.714 71.816 229.074 71.816C228.668 71.816 228.295 71.9173 227.954 72.12C227.612 72.312 227.34 72.5787 227.138 72.92C226.935 73.2613 226.834 73.6347 226.834 74.04V78.68C226.834 78.8933 226.727 79 226.514 79H226.098C225.884 79 225.778 78.8933 225.778 78.68V71.432C225.778 71.2187 225.884 71.112 226.098 71.112H226.45C226.663 71.112 226.77 71.2187 226.77 71.432V72.2C227.036 71.7733 227.388 71.4533 227.826 71.24C228.263 71.0267 228.754 70.92 229.298 70.92ZM234.978 69.112C234.764 69.112 234.583 69.0373 234.434 68.888C234.295 68.7387 234.226 68.5573 234.226 68.344C234.226 68.1307 234.295 67.9547 234.434 67.816C234.583 67.6773 234.764 67.608 234.978 67.608C235.202 67.608 235.383 67.6773 235.522 67.816C235.671 67.9547 235.746 68.1307 235.746 68.344C235.746 68.5573 235.671 68.7387 235.522 68.888C235.383 69.0373 235.202 69.112 234.978 69.112ZM234.77 79C234.556 79 234.45 78.8933 234.45 78.68V71.432C234.45 71.2187 234.556 71.112 234.77 71.112H235.186C235.399 71.112 235.506 71.2187 235.506 71.432V78.68C235.506 78.8933 235.399 79 235.186 79H234.77ZM241.408 78.12C241.44 78.1093 241.483 78.104 241.536 78.104C241.6 78.104 241.659 78.1253 241.712 78.168C241.765 78.2107 241.797 78.2693 241.808 78.344L241.856 78.568C241.867 78.5893 241.872 78.6267 241.872 78.68C241.872 78.8293 241.792 78.92 241.632 78.952C241.248 79.0693 240.837 79.128 240.4 79.128C239.707 79.128 239.211 78.9733 238.912 78.664C238.624 78.344 238.48 77.8853 238.48 77.288V71.912H237.296C237.083 71.912 236.976 71.8053 236.976 71.592V71.432C236.976 71.2187 237.083 71.112 237.296 71.112H238.48V68.68C238.48 68.4667 238.587 68.36 238.8 68.36H239.216C239.429 68.36 239.536 68.4667 239.536 68.68V71.112H241.456C241.669 71.112 241.776 71.2187 241.776 71.432V71.592C241.776 71.8053 241.669 71.912 241.456 71.912H239.536V77.16C239.536 77.5547 239.611 77.832 239.76 77.992C239.909 78.152 240.165 78.232 240.528 78.232C240.784 78.232 241.077 78.1947 241.408 78.12ZM248.455 71.368C248.519 71.1973 248.642 71.112 248.823 71.112H249.255C249.34 71.112 249.41 71.1333 249.463 71.176C249.516 71.2187 249.543 71.2773 249.543 71.352L249.511 71.48L246.423 80.2C246.252 80.68 246.087 81.0533 245.927 81.32C245.767 81.5867 245.548 81.7893 245.271 81.928C245.004 82.0667 244.652 82.136 244.215 82.136C243.938 82.136 243.692 82.1147 243.479 82.072C243.372 82.0613 243.298 82.0187 243.255 81.944C243.223 81.8693 243.218 81.784 243.239 81.688L243.287 81.48C243.33 81.288 243.452 81.2027 243.655 81.224C243.847 81.256 244.012 81.272 244.151 81.272C244.492 81.272 244.759 81.176 244.951 80.984C245.154 80.792 245.346 80.4293 245.527 79.896L245.671 79.448L242.855 71.48L242.823 71.352C242.823 71.2773 242.85 71.2187 242.903 71.176C242.956 71.1333 243.026 71.112 243.111 71.112H243.575C243.746 71.112 243.863 71.1973 243.927 71.368L244.823 74.008C244.908 74.2747 245.122 74.9093 245.463 75.912L246.183 78.072C246.535 77.08 246.999 75.7147 247.575 73.976L248.455 71.368ZM258.22 78.12C258.252 78.1093 258.295 78.104 258.348 78.104C258.412 78.104 258.471 78.1253 258.524 78.168C258.578 78.2107 258.61 78.2693 258.62 78.344L258.668 78.568C258.679 78.5893 258.684 78.6267 258.684 78.68C258.684 78.8293 258.604 78.92 258.444 78.952C258.06 79.0693 257.65 79.128 257.212 79.128C256.519 79.128 256.023 78.9733 255.724 78.664C255.436 78.344 255.292 77.8853 255.292 77.288V71.912H254.108C253.895 71.912 253.788 71.8053 253.788 71.592V71.432C253.788 71.2187 253.895 71.112 254.108 71.112H255.292V68.68C255.292 68.4667 255.399 68.36 255.612 68.36H256.028C256.242 68.36 256.348 68.4667 256.348 68.68V71.112H258.268C258.482 71.112 258.588 71.2187 258.588 71.432V71.592C258.588 71.8053 258.482 71.912 258.268 71.912H256.348V77.16C256.348 77.5547 256.423 77.832 256.572 77.992C256.722 78.152 256.978 78.232 257.34 78.232C257.596 78.232 257.89 78.1947 258.22 78.12ZM263.167 79.208C262.431 79.208 261.775 79.032 261.199 78.68C260.623 78.328 260.175 77.8427 259.855 77.224C259.535 76.5947 259.375 75.8747 259.375 75.064C259.375 74.2533 259.535 73.5387 259.855 72.92C260.175 72.2907 260.623 71.8 261.199 71.448C261.775 71.096 262.431 70.92 263.167 70.92C263.903 70.92 264.559 71.096 265.135 71.448C265.711 71.8 266.159 72.2907 266.479 72.92C266.799 73.5387 266.959 74.2533 266.959 75.064C266.959 75.8747 266.799 76.5947 266.479 77.224C266.159 77.8427 265.711 78.328 265.135 78.68C264.559 79.032 263.903 79.208 263.167 79.208ZM263.167 78.328C263.988 78.328 264.644 78.0293 265.135 77.432C265.625 76.824 265.871 76.0347 265.871 75.064C265.871 74.0933 265.625 73.3093 265.135 72.712C264.644 72.104 263.988 71.8 263.167 71.8C262.345 71.8 261.689 72.104 261.199 72.712C260.708 73.3093 260.463 74.0933 260.463 75.064C260.463 76.0347 260.708 76.824 261.199 77.432C261.689 78.0293 262.345 78.328 263.167 78.328ZM276.001 70.92C276.918 70.92 277.617 71.1813 278.097 71.704C278.577 72.216 278.817 72.8507 278.817 73.608V78.68C278.817 78.8933 278.71 79 278.497 79H278.081C277.868 79 277.761 78.8933 277.761 78.68V73.96C277.761 73.256 277.59 72.7227 277.249 72.36C276.908 71.9973 276.417 71.816 275.777 71.816C275.372 71.816 274.998 71.9173 274.657 72.12C274.316 72.312 274.044 72.5787 273.841 72.92C273.638 73.2613 273.537 73.6347 273.537 74.04V78.68C273.537 78.8933 273.43 79 273.217 79H272.801C272.588 79 272.481 78.8933 272.481 78.68V67.96C272.481 67.7467 272.588 67.64 272.801 67.64H273.217C273.43 67.64 273.537 67.7467 273.537 67.96V72.136C273.793 71.7307 274.134 71.4267 274.561 71.224C274.998 71.0213 275.478 70.92 276.001 70.92ZM286.897 77.128C286.971 77.0533 287.051 77.016 287.137 77.016C287.211 77.016 287.281 77.048 287.345 77.112L287.553 77.304C287.627 77.3787 287.665 77.4587 287.665 77.544C287.665 77.608 287.633 77.6827 287.569 77.768C287.046 78.2907 286.539 78.664 286.049 78.888C285.558 79.1013 285.009 79.208 284.401 79.208C283.633 79.208 282.966 79.0373 282.401 78.696C281.835 78.3547 281.398 77.88 281.089 77.272C280.779 76.6533 280.625 75.9387 280.625 75.128C280.625 74.3067 280.774 73.5813 281.073 72.952C281.382 72.312 281.814 71.816 282.369 71.464C282.923 71.1013 283.563 70.92 284.289 70.92C285.366 70.92 286.214 71.256 286.833 71.928C287.451 72.6 287.761 73.5067 287.761 74.648V74.84C287.75 74.936 287.713 75.0107 287.649 75.064C287.595 75.1173 287.521 75.144 287.425 75.144H281.697C281.729 76.04 281.963 76.7973 282.401 77.416C282.849 78.024 283.515 78.328 284.401 78.328C284.881 78.328 285.302 78.2427 285.665 78.072C286.038 77.8907 286.449 77.576 286.897 77.128ZM284.289 71.8C283.585 71.8 283.003 72.0187 282.545 72.456C282.097 72.8827 281.825 73.512 281.729 74.344H286.705C286.683 73.5653 286.459 72.9467 286.033 72.488C285.606 72.0293 285.025 71.8 284.289 71.8ZM289.989 79C289.775 79 289.669 78.8933 289.669 78.68V67.96C289.669 67.7467 289.775 67.64 289.989 67.64H290.405C290.618 67.64 290.725 67.7467 290.725 67.96V78.68C290.725 78.8933 290.618 79 290.405 79H289.989ZM296.882 70.936C297.543 70.936 298.135 71.112 298.658 71.464C299.191 71.8053 299.607 72.2907 299.906 72.92C300.205 73.5387 300.354 74.248 300.354 75.048C300.354 75.8587 300.205 76.5787 299.906 77.208C299.607 77.8373 299.197 78.328 298.674 78.68C298.151 79.0213 297.554 79.192 296.882 79.192C295.645 79.192 294.738 78.7387 294.162 77.832V81.624C294.162 81.8373 294.055 81.944 293.842 81.944H293.426C293.213 81.944 293.106 81.8373 293.106 81.624V71.432C293.106 71.2187 293.213 71.112 293.426 71.112H293.778C293.991 71.112 294.098 71.2187 294.098 71.432V72.44C294.386 71.9493 294.765 71.576 295.234 71.32C295.703 71.064 296.253 70.936 296.882 70.936ZM296.802 78.296C297.549 78.296 298.146 77.9973 298.594 77.4C299.042 76.8027 299.266 76.0187 299.266 75.048C299.266 74.088 299.042 73.3147 298.594 72.728C298.146 72.1307 297.549 71.832 296.802 71.832C296.002 71.832 295.351 72.12 294.85 72.696C294.359 73.2613 294.114 74.0453 294.114 75.048C294.114 76.0507 294.365 76.8453 294.866 77.432C295.367 78.008 296.013 78.296 296.802 78.296ZM74.304 93.432C74.304 93.2187 74.4107 93.112 74.624 93.112H75.04C75.2533 93.112 75.36 93.2187 75.36 93.432V100.68C75.36 100.893 75.2533 101 75.04 101H74.704C74.4907 101 74.384 100.893 74.384 100.68V99.96C74.1493 100.376 73.8133 100.691 73.376 100.904C72.9493 101.107 72.48 101.208 71.968 101.208C71.008 101.208 70.2987 100.968 69.84 100.488C69.3813 99.9973 69.152 99.368 69.152 98.6V93.432C69.152 93.2187 69.2587 93.112 69.472 93.112H69.888C70.1013 93.112 70.208 93.2187 70.208 93.432V98.376C70.208 99.0053 70.3627 99.4853 70.672 99.816C70.992 100.136 71.4453 100.296 72.032 100.296C72.6933 100.296 73.2373 100.093 73.664 99.688C74.0907 99.2827 74.304 98.7067 74.304 97.96V93.432ZM80.4829 101.208C79.8322 101.208 79.2562 101.117 78.7549 100.936C78.2642 100.744 77.7469 100.424 77.2029 99.976C77.1069 99.912 77.0589 99.8373 77.0589 99.752C77.0589 99.6773 77.0962 99.6027 77.1709 99.528L77.3789 99.304C77.4429 99.2187 77.5229 99.176 77.6189 99.176C77.6935 99.176 77.7629 99.208 77.8269 99.272C78.3389 99.6667 78.7922 99.944 79.1869 100.104C79.5815 100.253 80.0135 100.328 80.4829 100.328C81.0695 100.328 81.5495 100.2 81.9229 99.944C82.2962 99.6773 82.4829 99.32 82.4829 98.872C82.4829 98.424 82.2909 98.0933 81.9069 97.88C81.5229 97.6667 80.9309 97.4747 80.1309 97.304C79.4269 97.1547 78.8722 97 78.4669 96.84C78.0722 96.6693 77.7789 96.456 77.5869 96.2C77.3949 95.944 77.2989 95.608 77.2989 95.192C77.2989 94.5093 77.5762 93.96 78.1309 93.544C78.6855 93.128 79.3842 92.92 80.2269 92.92C80.8029 92.92 81.3149 92.9947 81.7629 93.144C82.2215 93.2827 82.6802 93.5173 83.1389 93.848C83.2349 93.9227 83.2829 94.0027 83.2829 94.088C83.2829 94.1413 83.2562 94.2107 83.2029 94.296L83.0109 94.536C82.9575 94.6213 82.8829 94.664 82.7869 94.664C82.7015 94.664 82.6269 94.6373 82.5629 94.584C82.1255 94.2747 81.7362 94.0667 81.3949 93.96C81.0642 93.8533 80.6855 93.8 80.2589 93.8C79.6722 93.8 79.2029 93.928 78.8509 94.184C78.4989 94.44 78.3229 94.7653 78.3229 95.16C78.3229 95.4053 78.4029 95.6027 78.5629 95.752C78.7229 95.9013 78.9522 96.0293 79.2509 96.136C79.5495 96.232 79.9869 96.344 80.5629 96.472C81.6295 96.7067 82.3869 96.9947 82.8349 97.336C83.2935 97.6773 83.5229 98.1733 83.5229 98.824C83.5229 99.5387 83.2402 100.115 82.6749 100.552C82.1095 100.989 81.3789 101.208 80.4829 101.208ZM89.5245 91.112C89.3112 91.112 89.1298 91.0373 88.9805 90.888C88.8418 90.7387 88.7725 90.5573 88.7725 90.344C88.7725 90.1307 88.8418 89.9547 88.9805 89.816C89.1298 89.6773 89.3112 89.608 89.5245 89.608C89.7485 89.608 89.9298 89.6773 90.0685 89.816C90.2178 89.9547 90.2925 90.1307 90.2925 90.344C90.2925 90.5573 90.2178 90.7387 90.0685 90.888C89.9298 91.0373 89.7485 91.112 89.5245 91.112ZM89.3165 101C89.1032 101 88.9965 100.893 88.9965 100.68V93.432C88.9965 93.2187 89.1032 93.112 89.3165 93.112H89.7325C89.9458 93.112 90.0525 93.2187 90.0525 93.432V100.68C90.0525 100.893 89.9458 101 89.7325 101H89.3165ZM100.419 92.92C101.272 92.92 101.923 93.1653 102.371 93.656C102.829 94.136 103.059 94.7547 103.059 95.512V100.68C103.059 100.893 102.952 101 102.739 101H102.323C102.109 101 102.003 100.893 102.003 100.68V95.8C102.003 95.16 101.853 94.6693 101.555 94.328C101.267 93.9867 100.835 93.816 100.259 93.816C99.6508 93.816 99.1654 94.0187 98.8028 94.424C98.4401 94.8293 98.2588 95.352 98.2588 95.992V100.68C98.2588 100.893 98.1521 101 97.9388 101H97.5228C97.3094 101 97.2028 100.893 97.2028 100.68V95.8C97.2028 95.16 97.0534 94.6693 96.7548 94.328C96.4668 93.9867 96.0294 93.816 95.4427 93.816C94.8988 93.816 94.4454 93.9867 94.0828 94.328C93.7308 94.6693 93.5228 95.1173 93.4588 95.672V100.68C93.4588 100.893 93.3521 101 93.1388 101H92.7228C92.5094 101 92.4028 100.893 92.4028 100.68V93.432C92.4028 93.2187 92.5094 93.112 92.7228 93.112H93.0748C93.2881 93.112 93.3948 93.2187 93.3948 93.432V94.088C93.8748 93.3093 94.6374 92.92 95.6828 92.92C96.2268 92.92 96.6908 93.0427 97.0748 93.288C97.4694 93.5227 97.7628 93.8427 97.9548 94.248C98.5201 93.3627 99.3414 92.92 100.419 92.92ZM109.163 92.936C109.824 92.936 110.416 93.112 110.939 93.464C111.472 93.8053 111.888 94.2907 112.187 94.92C112.486 95.5387 112.635 96.248 112.635 97.048C112.635 97.8587 112.486 98.5787 112.187 99.208C111.888 99.8373 111.478 100.328 110.955 100.68C110.432 101.021 109.835 101.192 109.163 101.192C107.926 101.192 107.019 100.739 106.443 99.832V103.624C106.443 103.837 106.336 103.944 106.123 103.944H105.707C105.494 103.944 105.387 103.837 105.387 103.624V93.432C105.387 93.2187 105.494 93.112 105.707 93.112H106.059C106.272 93.112 106.379 93.2187 106.379 93.432V94.44C106.667 93.9493 107.046 93.576 107.515 93.32C107.984 93.064 108.534 92.936 109.163 92.936ZM109.083 100.296C109.83 100.296 110.427 99.9973 110.875 99.4C111.323 98.8027 111.547 98.0187 111.547 97.048C111.547 96.088 111.323 95.3147 110.875 94.728C110.427 94.1307 109.83 93.832 109.083 93.832C108.283 93.832 107.632 94.12 107.131 94.696C106.64 95.2613 106.395 96.0453 106.395 97.048C106.395 98.0507 106.646 98.8453 107.147 99.432C107.648 100.008 108.294 100.296 109.083 100.296ZM117.456 93.048C117.723 93.048 118.037 93.0907 118.4 93.176C118.592 93.24 118.667 93.3733 118.624 93.576L118.56 93.832C118.507 94.0347 118.373 94.1093 118.16 94.056C117.904 93.992 117.669 93.96 117.456 93.96C116.912 93.96 116.459 94.1947 116.096 94.664C115.744 95.1333 115.568 95.784 115.568 96.616V100.68C115.568 100.893 115.461 101 115.248 101H114.832C114.619 101 114.512 100.893 114.512 100.68V93.432C114.512 93.2187 114.619 93.112 114.832 93.112H115.184C115.397 93.112 115.504 93.2187 115.504 93.432V94.312C115.685 93.9173 115.941 93.608 116.272 93.384C116.613 93.16 117.008 93.048 117.456 93.048ZM122.886 101.208C122.15 101.208 121.494 101.032 120.918 100.68C120.342 100.328 119.894 99.8427 119.574 99.224C119.254 98.5947 119.094 97.8747 119.094 97.064C119.094 96.2533 119.254 95.5387 119.574 94.92C119.894 94.2907 120.342 93.8 120.918 93.448C121.494 93.096 122.15 92.92 122.886 92.92C123.622 92.92 124.278 93.096 124.854 93.448C125.43 93.8 125.878 94.2907 126.198 94.92C126.518 95.5387 126.678 96.2533 126.678 97.064C126.678 97.8747 126.518 98.5947 126.198 99.224C125.878 99.8427 125.43 100.328 124.854 100.68C124.278 101.032 123.622 101.208 122.886 101.208ZM122.886 100.328C123.707 100.328 124.363 100.029 124.854 99.432C125.344 98.824 125.59 98.0347 125.59 97.064C125.59 96.0933 125.344 95.3093 124.854 94.712C124.363 94.104 123.707 93.8 122.886 93.8C122.064 93.8 121.408 94.104 120.918 94.712C120.427 95.3093 120.182 96.0933 120.182 97.064C120.182 98.0347 120.427 98.824 120.918 99.432C121.408 100.029 122.064 100.328 122.886 100.328ZM133.267 93.368C133.331 93.1973 133.453 93.112 133.635 93.112H134.051C134.136 93.112 134.205 93.1333 134.259 93.176C134.312 93.2187 134.339 93.2773 134.339 93.352L134.307 93.48L131.763 100.744C131.699 100.915 131.576 101 131.395 101H130.547C130.365 101 130.243 100.915 130.179 100.744L127.651 93.48L127.619 93.352C127.619 93.2773 127.645 93.2187 127.699 93.176C127.752 93.1333 127.821 93.112 127.907 93.112H128.339C128.52 93.112 128.643 93.1973 128.707 93.368L129.683 96.184C130.088 97.3573 130.52 98.7067 130.979 100.232C131 100.168 131.059 99.9867 131.155 99.688C131.592 98.248 131.971 97.08 132.291 96.184L133.267 93.368ZM141.553 99.128C141.628 99.0533 141.708 99.016 141.793 99.016C141.868 99.016 141.937 99.048 142.001 99.112L142.209 99.304C142.284 99.3787 142.321 99.4587 142.321 99.544C142.321 99.608 142.289 99.6827 142.225 99.768C141.702 100.291 141.196 100.664 140.705 100.888C140.214 101.101 139.665 101.208 139.057 101.208C138.289 101.208 137.622 101.037 137.057 100.696C136.492 100.355 136.054 99.88 135.745 99.272C135.436 98.6533 135.281 97.9387 135.281 97.128C135.281 96.3067 135.43 95.5813 135.729 94.952C136.038 94.312 136.47 93.816 137.025 93.464C137.58 93.1013 138.22 92.92 138.945 92.92C140.022 92.92 140.87 93.256 141.489 93.928C142.108 94.6 142.417 95.5067 142.417 96.648V96.84C142.406 96.936 142.369 97.0107 142.305 97.064C142.252 97.1173 142.177 97.144 142.081 97.144H136.353C136.385 98.04 136.62 98.7973 137.057 99.416C137.505 100.024 138.172 100.328 139.057 100.328C139.537 100.328 139.958 100.243 140.321 100.072C140.694 99.8907 141.105 99.576 141.553 99.128ZM138.945 93.8C138.241 93.8 137.66 94.0187 137.201 94.456C136.753 94.8827 136.481 95.512 136.385 96.344H141.361C141.34 95.5653 141.116 94.9467 140.689 94.488C140.262 94.0293 139.681 93.8 138.945 93.8ZM151.261 101.208C150.525 101.208 149.869 101.032 149.293 100.68C148.717 100.328 148.269 99.8427 147.949 99.224C147.629 98.5947 147.469 97.8747 147.469 97.064C147.469 96.2533 147.629 95.5387 147.949 94.92C148.269 94.2907 148.717 93.8 149.293 93.448C149.869 93.096 150.525 92.92 151.261 92.92C151.997 92.92 152.653 93.096 153.229 93.448C153.805 93.8 154.253 94.2907 154.573 94.92C154.893 95.5387 155.053 96.2533 155.053 97.064C155.053 97.8747 154.893 98.5947 154.573 99.224C154.253 99.8427 153.805 100.328 153.229 100.68C152.653 101.032 151.997 101.208 151.261 101.208ZM151.261 100.328C152.082 100.328 152.738 100.029 153.229 99.432C153.719 98.824 153.965 98.0347 153.965 97.064C153.965 96.0933 153.719 95.3093 153.229 94.712C152.738 94.104 152.082 93.8 151.261 93.8C150.439 93.8 149.783 94.104 149.293 94.712C148.802 95.3093 148.557 96.0933 148.557 97.064C148.557 98.0347 148.802 98.824 149.293 99.432C149.783 100.029 150.439 100.328 151.261 100.328ZM162.007 93.432C162.007 93.2187 162.114 93.112 162.327 93.112H162.743C162.956 93.112 163.063 93.2187 163.063 93.432V100.68C163.063 100.893 162.956 101 162.743 101H162.407C162.194 101 162.087 100.893 162.087 100.68V99.96C161.852 100.376 161.516 100.691 161.079 100.904C160.652 101.107 160.183 101.208 159.671 101.208C158.711 101.208 158.002 100.968 157.543 100.488C157.084 99.9973 156.855 99.368 156.855 98.6V93.432C156.855 93.2187 156.962 93.112 157.175 93.112H157.591C157.804 93.112 157.911 93.2187 157.911 93.432V98.376C157.911 99.0053 158.066 99.4853 158.375 99.816C158.695 100.136 159.148 100.296 159.735 100.296C160.396 100.296 160.94 100.093 161.367 99.688C161.794 99.2827 162.007 98.7067 162.007 97.96V93.432ZM168.378 93.048C168.645 93.048 168.959 93.0907 169.322 93.176C169.514 93.24 169.589 93.3733 169.546 93.576L169.482 93.832C169.429 94.0347 169.295 94.1093 169.082 94.056C168.826 93.992 168.591 93.96 168.378 93.96C167.834 93.96 167.381 94.1947 167.018 94.664C166.666 95.1333 166.49 95.784 166.49 96.616V100.68C166.49 100.893 166.383 101 166.17 101H165.754C165.541 101 165.434 100.893 165.434 100.68V93.432C165.434 93.2187 165.541 93.112 165.754 93.112H166.106C166.319 93.112 166.426 93.2187 166.426 93.432V94.312C166.607 93.9173 166.863 93.608 167.194 93.384C167.535 93.16 167.93 93.048 168.378 93.048ZM180.364 89.96C180.364 89.7467 180.471 89.64 180.684 89.64H181.1C181.314 89.64 181.42 89.7467 181.42 89.96V100.68C181.42 100.893 181.314 101 181.1 101H180.764C180.551 101 180.444 100.893 180.444 100.68V99.64C180.156 100.141 179.778 100.525 179.308 100.792C178.839 101.059 178.284 101.192 177.644 101.192C176.972 101.192 176.375 101.021 175.852 100.68C175.33 100.328 174.919 99.8427 174.62 99.224C174.322 98.5947 174.172 97.8747 174.172 97.064C174.172 96.2533 174.322 95.5387 174.62 94.92C174.93 94.2907 175.351 93.8053 175.884 93.464C176.418 93.112 177.015 92.936 177.676 92.936C178.892 92.936 179.788 93.3893 180.364 94.296V89.96ZM177.724 100.296C178.524 100.296 179.17 100.013 179.66 99.448C180.162 98.872 180.412 98.0773 180.412 97.064C180.412 96.0613 180.162 95.272 179.66 94.696C179.17 94.12 178.524 93.832 177.724 93.832C176.988 93.832 176.391 94.1307 175.932 94.728C175.484 95.3253 175.26 96.104 175.26 97.064C175.26 98.0347 175.484 98.8187 175.932 99.416C176.38 100.003 176.978 100.296 177.724 100.296ZM189.537 99.128C189.612 99.0533 189.692 99.016 189.777 99.016C189.852 99.016 189.921 99.048 189.985 99.112L190.193 99.304C190.268 99.3787 190.305 99.4587 190.305 99.544C190.305 99.608 190.273 99.6827 190.209 99.768C189.687 100.291 189.18 100.664 188.689 100.888C188.199 101.101 187.649 101.208 187.041 101.208C186.273 101.208 185.607 101.037 185.041 100.696C184.476 100.355 184.039 99.88 183.729 99.272C183.42 98.6533 183.265 97.9387 183.265 97.128C183.265 96.3067 183.415 95.5813 183.713 94.952C184.023 94.312 184.455 93.816 185.009 93.464C185.564 93.1013 186.204 92.92 186.929 92.92C188.007 92.92 188.855 93.256 189.473 93.928C190.092 94.6 190.401 95.5067 190.401 96.648V96.84C190.391 96.936 190.353 97.0107 190.289 97.064C190.236 97.1173 190.161 97.144 190.065 97.144H184.337C184.369 98.04 184.604 98.7973 185.041 99.416C185.489 100.024 186.156 100.328 187.041 100.328C187.521 100.328 187.943 100.243 188.305 100.072C188.679 99.8907 189.089 99.576 189.537 99.128ZM186.929 93.8C186.225 93.8 185.644 94.0187 185.185 94.456C184.737 94.8827 184.465 95.512 184.369 96.344H189.345C189.324 95.5653 189.1 94.9467 188.673 94.488C188.247 94.0293 187.665 93.8 186.929 93.8ZM195.108 101.208C194.457 101.208 193.881 101.117 193.38 100.936C192.889 100.744 192.372 100.424 191.828 99.976C191.732 99.912 191.684 99.8373 191.684 99.752C191.684 99.6773 191.721 99.6027 191.796 99.528L192.004 99.304C192.068 99.2187 192.148 99.176 192.244 99.176C192.319 99.176 192.388 99.208 192.452 99.272C192.964 99.6667 193.417 99.944 193.812 100.104C194.207 100.253 194.639 100.328 195.108 100.328C195.695 100.328 196.175 100.2 196.548 99.944C196.921 99.6773 197.108 99.32 197.108 98.872C197.108 98.424 196.916 98.0933 196.532 97.88C196.148 97.6667 195.556 97.4747 194.756 97.304C194.052 97.1547 193.497 97 193.092 96.84C192.697 96.6693 192.404 96.456 192.212 96.2C192.02 95.944 191.924 95.608 191.924 95.192C191.924 94.5093 192.201 93.96 192.756 93.544C193.311 93.128 194.009 92.92 194.852 92.92C195.428 92.92 195.94 92.9947 196.388 93.144C196.847 93.2827 197.305 93.5173 197.764 93.848C197.86 93.9227 197.908 94.0027 197.908 94.088C197.908 94.1413 197.881 94.2107 197.828 94.296L197.636 94.536C197.583 94.6213 197.508 94.664 197.412 94.664C197.327 94.664 197.252 94.6373 197.188 94.584C196.751 94.2747 196.361 94.0667 196.02 93.96C195.689 93.8533 195.311 93.8 194.884 93.8C194.297 93.8 193.828 93.928 193.476 94.184C193.124 94.44 192.948 94.7653 192.948 95.16C192.948 95.4053 193.028 95.6027 193.188 95.752C193.348 95.9013 193.577 96.0293 193.876 96.136C194.175 96.232 194.612 96.344 195.188 96.472C196.255 96.7067 197.012 96.9947 197.46 97.336C197.919 97.6773 198.148 98.1733 198.148 98.824C198.148 99.5387 197.865 100.115 197.3 100.552C196.735 100.989 196.004 101.208 195.108 101.208ZM200.462 91.112C200.249 91.112 200.067 91.0373 199.918 90.888C199.779 90.7387 199.71 90.5573 199.71 90.344C199.71 90.1307 199.779 89.9547 199.918 89.816C200.067 89.6773 200.249 89.608 200.462 89.608C200.686 89.608 200.867 89.6773 201.006 89.816C201.155 89.9547 201.23 90.1307 201.23 90.344C201.23 90.5573 201.155 90.7387 201.006 90.888C200.867 91.0373 200.686 91.112 200.462 91.112ZM200.254 101C200.041 101 199.934 100.893 199.934 100.68V93.432C199.934 93.2187 200.041 93.112 200.254 93.112H200.67C200.883 93.112 200.99 93.2187 200.99 93.432V100.68C200.99 100.893 200.883 101 200.67 101H200.254ZM209.004 93.432C209.004 93.2187 209.111 93.112 209.324 93.112H209.66C209.874 93.112 209.98 93.2187 209.98 93.432V100.92C209.98 101.912 209.682 102.691 209.084 103.256C208.487 103.832 207.65 104.12 206.572 104.12C205.41 104.12 204.338 103.789 203.356 103.128C203.25 103.064 203.196 102.984 203.196 102.888C203.196 102.813 203.218 102.749 203.26 102.696L203.452 102.424C203.516 102.317 203.602 102.264 203.708 102.264C203.751 102.264 203.815 102.285 203.9 102.328C204.37 102.627 204.807 102.851 205.212 103C205.628 103.149 206.082 103.224 206.572 103.224C207.276 103.224 207.847 103.027 208.284 102.632C208.722 102.248 208.94 101.651 208.94 100.84V99.56C208.364 100.488 207.49 100.952 206.316 100.952C205.634 100.952 205.031 100.781 204.508 100.44C203.986 100.088 203.58 99.608 203.292 99C203.015 98.392 202.876 97.704 202.876 96.936C202.876 96.168 203.015 95.48 203.292 94.872C203.58 94.264 203.986 93.7893 204.508 93.448C205.031 93.096 205.634 92.92 206.316 92.92C206.935 92.92 207.468 93.0533 207.916 93.32C208.375 93.576 208.738 93.944 209.004 94.424V93.432ZM206.428 100.056C207.196 100.056 207.81 99.768 208.268 99.192C208.727 98.6053 208.956 97.8533 208.956 96.936C208.956 96.0187 208.727 95.272 208.268 94.696C207.81 94.1093 207.196 93.816 206.428 93.816C205.65 93.816 205.042 94.104 204.604 94.68C204.178 95.256 203.964 96.008 203.964 96.936C203.964 97.864 204.178 98.616 204.604 99.192C205.042 99.768 205.65 100.056 206.428 100.056ZM215.876 92.92C216.804 92.92 217.503 93.176 217.972 93.688C218.452 94.2 218.692 94.84 218.692 95.608V100.68C218.692 100.893 218.585 101 218.372 101H217.956C217.743 101 217.636 100.893 217.636 100.68V95.96C217.636 95.256 217.465 94.7227 217.124 94.36C216.783 93.9973 216.292 93.816 215.652 93.816C215.247 93.816 214.873 93.9173 214.532 94.12C214.191 94.312 213.919 94.5787 213.716 94.92C213.513 95.2613 213.412 95.6347 213.412 96.04V100.68C213.412 100.893 213.305 101 213.092 101H212.676C212.463 101 212.356 100.893 212.356 100.68V93.432C212.356 93.2187 212.463 93.112 212.676 93.112H213.028C213.241 93.112 213.348 93.2187 213.348 93.432V94.2C213.615 93.7733 213.967 93.4533 214.404 93.24C214.841 93.0267 215.332 92.92 215.876 92.92ZM227.467 101.208C226.817 101.208 226.241 101.117 225.739 100.936C225.249 100.744 224.731 100.424 224.187 99.976C224.091 99.912 224.043 99.8373 224.043 99.752C224.043 99.6773 224.081 99.6027 224.155 99.528L224.363 99.304C224.427 99.2187 224.507 99.176 224.603 99.176C224.678 99.176 224.747 99.208 224.811 99.272C225.323 99.6667 225.777 99.944 226.171 100.104C226.566 100.253 226.998 100.328 227.467 100.328C228.054 100.328 228.534 100.2 228.907 99.944C229.281 99.6773 229.467 99.32 229.467 98.872C229.467 98.424 229.275 98.0933 228.891 97.88C228.507 97.6667 227.915 97.4747 227.115 97.304C226.411 97.1547 225.857 97 225.451 96.84C225.057 96.6693 224.763 96.456 224.571 96.2C224.379 95.944 224.283 95.608 224.283 95.192C224.283 94.5093 224.561 93.96 225.115 93.544C225.67 93.128 226.369 92.92 227.211 92.92C227.787 92.92 228.299 92.9947 228.747 93.144C229.206 93.2827 229.665 93.5173 230.123 93.848C230.219 93.9227 230.267 94.0027 230.267 94.088C230.267 94.1413 230.241 94.2107 230.187 94.296L229.995 94.536C229.942 94.6213 229.867 94.664 229.771 94.664C229.686 94.664 229.611 94.6373 229.547 94.584C229.11 94.2747 228.721 94.0667 228.379 93.96C228.049 93.8533 227.67 93.8 227.243 93.8C226.657 93.8 226.187 93.928 225.835 94.184C225.483 94.44 225.307 94.7653 225.307 95.16C225.307 95.4053 225.387 95.6027 225.547 95.752C225.707 95.9013 225.937 96.0293 226.235 96.136C226.534 96.232 226.971 96.344 227.547 96.472C228.614 96.7067 229.371 96.9947 229.819 97.336C230.278 97.6773 230.507 98.1733 230.507 98.824C230.507 99.5387 230.225 100.115 229.659 100.552C229.094 100.989 228.363 101.208 227.467 101.208ZM237.158 93.368C237.222 93.1973 237.345 93.112 237.526 93.112H237.958C238.043 93.112 238.113 93.1333 238.166 93.176C238.219 93.2187 238.246 93.2773 238.246 93.352L238.214 93.48L235.126 102.2C234.955 102.68 234.79 103.053 234.63 103.32C234.47 103.587 234.251 103.789 233.974 103.928C233.707 104.067 233.355 104.136 232.918 104.136C232.641 104.136 232.395 104.115 232.182 104.072C232.075 104.061 232.001 104.019 231.958 103.944C231.926 103.869 231.921 103.784 231.942 103.688L231.99 103.48C232.033 103.288 232.155 103.203 232.358 103.224C232.55 103.256 232.715 103.272 232.854 103.272C233.195 103.272 233.462 103.176 233.654 102.984C233.857 102.792 234.049 102.429 234.23 101.896L234.374 101.448L231.558 93.48L231.526 93.352C231.526 93.2773 231.553 93.2187 231.606 93.176C231.659 93.1333 231.729 93.112 231.814 93.112H232.278C232.449 93.112 232.566 93.1973 232.63 93.368L233.526 96.008C233.611 96.2747 233.825 96.9093 234.166 97.912L234.886 100.072C235.238 99.08 235.702 97.7147 236.278 95.976L237.158 93.368ZM242.733 101.208C242.082 101.208 241.506 101.117 241.005 100.936C240.514 100.744 239.997 100.424 239.453 99.976C239.357 99.912 239.309 99.8373 239.309 99.752C239.309 99.6773 239.346 99.6027 239.421 99.528L239.629 99.304C239.693 99.2187 239.773 99.176 239.869 99.176C239.944 99.176 240.013 99.208 240.077 99.272C240.589 99.6667 241.042 99.944 241.437 100.104C241.832 100.253 242.264 100.328 242.733 100.328C243.32 100.328 243.8 100.2 244.173 99.944C244.546 99.6773 244.733 99.32 244.733 98.872C244.733 98.424 244.541 98.0933 244.157 97.88C243.773 97.6667 243.181 97.4747 242.381 97.304C241.677 97.1547 241.122 97 240.717 96.84C240.322 96.6693 240.029 96.456 239.837 96.2C239.645 95.944 239.549 95.608 239.549 95.192C239.549 94.5093 239.826 93.96 240.381 93.544C240.936 93.128 241.634 92.92 242.477 92.92C243.053 92.92 243.565 92.9947 244.013 93.144C244.472 93.2827 244.93 93.5173 245.389 93.848C245.485 93.9227 245.533 94.0027 245.533 94.088C245.533 94.1413 245.506 94.2107 245.453 94.296L245.261 94.536C245.208 94.6213 245.133 94.664 245.037 94.664C244.952 94.664 244.877 94.6373 244.813 94.584C244.376 94.2747 243.986 94.0667 243.645 93.96C243.314 93.8533 242.936 93.8 242.509 93.8C241.922 93.8 241.453 93.928 241.101 94.184C240.749 94.44 240.573 94.7653 240.573 95.16C240.573 95.4053 240.653 95.6027 240.813 95.752C240.973 95.9013 241.202 96.0293 241.501 96.136C241.8 96.232 242.237 96.344 242.813 96.472C243.88 96.7067 244.637 96.9947 245.085 97.336C245.544 97.6773 245.773 98.1733 245.773 98.824C245.773 99.5387 245.49 100.115 244.925 100.552C244.36 100.989 243.629 101.208 242.733 101.208ZM251.08 100.12C251.112 100.109 251.154 100.104 251.208 100.104C251.272 100.104 251.33 100.125 251.384 100.168C251.437 100.211 251.469 100.269 251.48 100.344L251.528 100.568C251.538 100.589 251.544 100.627 251.544 100.68C251.544 100.829 251.464 100.92 251.304 100.952C250.92 101.069 250.509 101.128 250.072 101.128C249.378 101.128 248.882 100.973 248.584 100.664C248.296 100.344 248.152 99.8853 248.152 99.288V93.912H246.968C246.754 93.912 246.648 93.8053 246.648 93.592V93.432C246.648 93.2187 246.754 93.112 246.968 93.112H248.152V90.68C248.152 90.4667 248.258 90.36 248.472 90.36H248.888C249.101 90.36 249.208 90.4667 249.208 90.68V93.112H251.128C251.341 93.112 251.448 93.2187 251.448 93.432V93.592C251.448 93.8053 251.341 93.912 251.128 93.912H249.208V99.16C249.208 99.5547 249.282 99.832 249.432 99.992C249.581 100.152 249.837 100.232 250.2 100.232C250.456 100.232 250.749 100.195 251.08 100.12ZM258.506 99.128C258.581 99.0533 258.661 99.016 258.746 99.016C258.821 99.016 258.89 99.048 258.954 99.112L259.162 99.304C259.237 99.3787 259.274 99.4587 259.274 99.544C259.274 99.608 259.242 99.6827 259.178 99.768C258.655 100.291 258.149 100.664 257.658 100.888C257.167 101.101 256.618 101.208 256.01 101.208C255.242 101.208 254.575 101.037 254.01 100.696C253.445 100.355 253.007 99.88 252.698 99.272C252.389 98.6533 252.234 97.9387 252.234 97.128C252.234 96.3067 252.383 95.5813 252.682 94.952C252.991 94.312 253.423 93.816 253.978 93.464C254.533 93.1013 255.173 92.92 255.898 92.92C256.975 92.92 257.823 93.256 258.442 93.928C259.061 94.6 259.37 95.5067 259.37 96.648V96.84C259.359 96.936 259.322 97.0107 259.258 97.064C259.205 97.1173 259.13 97.144 259.034 97.144H253.306C253.338 98.04 253.573 98.7973 254.01 99.416C254.458 100.024 255.125 100.328 256.01 100.328C256.49 100.328 256.911 100.243 257.274 100.072C257.647 99.8907 258.058 99.576 258.506 99.128ZM255.898 93.8C255.194 93.8 254.613 94.0187 254.154 94.456C253.706 94.8827 253.434 95.512 253.338 96.344H258.314C258.293 95.5653 258.069 94.9467 257.642 94.488C257.215 94.0293 256.634 93.8 255.898 93.8ZM269.278 92.92C270.131 92.92 270.782 93.1653 271.23 93.656C271.689 94.136 271.918 94.7547 271.918 95.512V100.68C271.918 100.893 271.811 101 271.598 101H271.182C270.969 101 270.862 100.893 270.862 100.68V95.8C270.862 95.16 270.713 94.6693 270.414 94.328C270.126 93.9867 269.694 93.816 269.118 93.816C268.51 93.816 268.025 94.0187 267.662 94.424C267.299 94.8293 267.118 95.352 267.118 95.992V100.68C267.118 100.893 267.011 101 266.798 101H266.382C266.169 101 266.062 100.893 266.062 100.68V95.8C266.062 95.16 265.913 94.6693 265.614 94.328C265.326 93.9867 264.889 93.816 264.302 93.816C263.758 93.816 263.305 93.9867 262.942 94.328C262.59 94.6693 262.382 95.1173 262.318 95.672V100.68C262.318 100.893 262.211 101 261.998 101H261.582C261.369 101 261.262 100.893 261.262 100.68V93.432C261.262 93.2187 261.369 93.112 261.582 93.112H261.934C262.147 93.112 262.254 93.2187 262.254 93.432V94.088C262.734 93.3093 263.497 92.92 264.542 92.92C265.086 92.92 265.55 93.0427 265.934 93.288C266.329 93.5227 266.622 93.8427 266.814 94.248C267.379 93.3627 268.201 92.92 269.278 92.92Z" fill="#464646"/>
</svg>
