<svg width="344" height="218" viewBox="0 0 344 218" fill="none" xmlns="http://www.w3.org/2000/svg">
<rect width="344" height="218" fill="#F5F5F5"/>
<rect x="84.5" y="82.5" width="15" height="15" rx="1.5" fill="#0063FB" stroke="#0063FB"/>
<path d="M91.2264 91.5671L94.9035 87.1679C95.1789 86.8383 95.6694 86.7945 95.999 87.0699C96.3286 87.3454 96.3725 87.8359 96.097 88.1655L91.8713 93.2211C91.5771 93.573 91.0438 93.5953 90.7213 93.269L88.3359 90.8555C88.034 90.55 88.0368 90.0575 88.3424 89.7556C88.6479 89.4536 89.1403 89.4565 89.4423 89.762L91.2264 91.5671Z" fill="white"/>
<path d="M113.136 96.24C112.293 96.24 111.531 96.112 110.848 95.856C110.176 95.5893 109.467 95.1573 108.72 94.56C108.624 94.4747 108.576 94.3947 108.576 94.32C108.576 94.256 108.608 94.1867 108.672 94.112L108.928 93.808C108.981 93.7227 109.061 93.68 109.168 93.68C109.253 93.68 109.323 93.7067 109.376 93.76C110.133 94.3467 110.795 94.7467 111.36 94.96C111.925 95.1627 112.517 95.264 113.136 95.264C114 95.264 114.704 95.0507 115.248 94.624C115.792 94.1867 116.064 93.5947 116.064 92.848C116.064 92.368 115.936 91.984 115.68 91.696C115.424 91.408 115.072 91.184 114.624 91.024C114.187 90.864 113.563 90.6933 112.752 90.512C111.781 90.2987 111.024 90.0693 110.48 89.824C109.947 89.5787 109.557 89.2693 109.312 88.896C109.067 88.5227 108.944 88.0427 108.944 87.456C108.944 86.8373 109.12 86.2987 109.472 85.84C109.835 85.3707 110.315 85.0133 110.912 84.768C111.509 84.5227 112.155 84.4 112.848 84.4C113.605 84.4 114.293 84.512 114.912 84.736C115.541 84.96 116.16 85.3173 116.768 85.808C116.864 85.872 116.912 85.9467 116.912 86.032C116.912 86.096 116.88 86.1707 116.816 86.256L116.576 86.544C116.523 86.6293 116.443 86.672 116.336 86.672C116.251 86.672 116.176 86.6453 116.112 86.592C115.568 86.144 115.04 85.8293 114.528 85.648C114.027 85.4667 113.472 85.376 112.864 85.376C112.309 85.376 111.819 85.4667 111.392 85.648C110.965 85.8187 110.629 86.0587 110.384 86.368C110.149 86.6773 110.032 87.0293 110.032 87.424C110.032 87.8507 110.149 88.192 110.384 88.448C110.629 88.704 110.965 88.9067 111.392 89.056C111.829 89.2053 112.464 89.376 113.296 89.568C114.256 89.792 115.013 90.0427 115.568 90.32C116.133 90.5973 116.544 90.9387 116.8 91.344C117.056 91.7387 117.184 92.2293 117.184 92.816C117.184 93.4987 117.008 94.1013 116.656 94.624C116.315 95.136 115.835 95.536 115.216 95.824C114.597 96.1013 113.904 96.24 113.136 96.24ZM127.138 87.92C127.991 87.92 128.642 88.1653 129.09 88.656C129.548 89.136 129.778 89.7547 129.778 90.512V95.68C129.778 95.8933 129.671 96 129.458 96H129.042C128.828 96 128.722 95.8933 128.722 95.68V90.8C128.722 90.16 128.572 89.6693 128.274 89.328C127.986 88.9867 127.554 88.816 126.977 88.816C126.37 88.816 125.884 89.0187 125.522 89.424C125.159 89.8293 124.978 90.352 124.978 90.992V95.68C124.978 95.8933 124.871 96 124.658 96H124.242C124.028 96 123.922 95.8933 123.922 95.68V90.8C123.922 90.16 123.772 89.6693 123.474 89.328C123.186 88.9867 122.748 88.816 122.161 88.816C121.618 88.816 121.164 88.9867 120.802 89.328C120.45 89.6693 120.242 90.1173 120.178 90.672V95.68C120.178 95.8933 120.071 96 119.858 96H119.442C119.228 96 119.122 95.8933 119.122 95.68V88.432C119.122 88.2187 119.228 88.112 119.442 88.112H119.794C120.007 88.112 120.114 88.2187 120.114 88.432V89.088C120.594 88.3093 121.356 87.92 122.402 87.92C122.946 87.92 123.41 88.0427 123.794 88.288C124.188 88.5227 124.482 88.8427 124.674 89.248C125.239 88.3627 126.06 87.92 127.138 87.92ZM135.146 87.92C136.117 87.92 136.874 88.1547 137.418 88.624C137.962 89.0827 138.234 89.6907 138.234 90.448V95.68C138.234 95.8933 138.127 96 137.914 96H137.594C137.381 96 137.274 95.8933 137.274 95.68V94.96C137.007 95.3867 136.629 95.7067 136.138 95.92C135.658 96.1333 135.119 96.24 134.522 96.24C133.69 96.24 133.013 96.064 132.49 95.712C131.967 95.36 131.706 94.816 131.706 94.08C131.706 93.4933 131.871 93.024 132.202 92.672C132.533 92.3093 132.965 92.0373 133.498 91.856C134.031 91.664 134.698 91.4933 135.498 91.344L137.226 91.04V90.528C137.226 89.984 137.039 89.5627 136.666 89.264C136.293 88.9547 135.802 88.8 135.194 88.8C134.735 88.8 134.319 88.8853 133.946 89.056C133.573 89.2267 133.173 89.52 132.746 89.936C132.671 90.0107 132.591 90.048 132.506 90.048C132.431 90.048 132.362 90.016 132.298 89.952L132.09 89.76C132.015 89.6853 131.978 89.6053 131.978 89.52C131.978 89.424 132.015 89.3387 132.09 89.264C132.538 88.7947 133.007 88.4533 133.498 88.24C133.999 88.0267 134.549 87.92 135.146 87.92ZM134.57 95.36C135.338 95.36 135.973 95.1573 136.474 94.752C136.975 94.3467 137.226 93.8293 137.226 93.2V91.856L135.738 92.144C135.045 92.2827 134.495 92.416 134.09 92.544C133.685 92.672 133.359 92.8587 133.114 93.104C132.869 93.3493 132.746 93.6693 132.746 94.064C132.746 94.4693 132.906 94.7893 133.226 95.024C133.557 95.248 134.005 95.36 134.57 95.36ZM140.911 96C140.697 96 140.591 95.8933 140.591 95.68V84.96C140.591 84.7467 140.697 84.64 140.911 84.64H141.327C141.54 84.64 141.647 84.7467 141.647 84.96V95.68C141.647 95.8933 141.54 96 141.327 96H140.911ZM144.364 96C144.15 96 144.044 95.8933 144.044 95.68V84.96C144.044 84.7467 144.15 84.64 144.364 84.64H144.78C144.993 84.64 145.1 84.7467 145.1 84.96V95.68C145.1 95.8933 144.993 96 144.78 96H144.364Z" fill="#464646"/>
<rect x="84.5" y="120.5" width="15" height="15" rx="1.5" fill="#0063FB" stroke="#0063FB"/>
<path d="M91.2264 129.567L94.9035 125.168C95.1789 124.838 95.6694 124.794 95.999 125.07C96.3286 125.345 96.3725 125.836 96.097 126.166L91.8713 131.221C91.5771 131.573 91.0438 131.595 90.7213 131.269L88.3359 128.856C88.034 128.55 88.0368 128.058 88.3424 127.756C88.6479 127.454 89.1403 127.457 89.4423 127.762L91.2264 129.567Z" fill="white"/>
<path d="M118.304 122.896C118.368 122.725 118.491 122.64 118.672 122.64H119.92C120.133 122.64 120.24 122.747 120.24 122.96V133.68C120.24 133.893 120.133 134 119.92 134H119.456C119.243 134 119.136 133.893 119.136 133.68V128.368C119.136 127.227 119.147 125.579 119.168 123.424C118.731 124.672 118.133 126.32 117.376 128.368L115.408 133.744C115.344 133.915 115.221 134 115.04 134H114.576C114.395 134 114.272 133.915 114.208 133.744L112.192 128.352C111.765 127.243 111.173 125.6 110.416 123.424C110.437 125.579 110.448 127.232 110.448 128.384V133.68C110.448 133.893 110.341 134 110.128 134H109.696C109.483 134 109.376 133.893 109.376 133.68V122.96C109.376 122.747 109.483 122.64 109.696 122.64H110.928C111.109 122.64 111.232 122.725 111.296 122.896L113.12 127.808C113.963 130.101 114.528 131.717 114.816 132.656C115.083 131.76 115.541 130.421 116.192 128.64C116.235 128.523 116.283 128.395 116.336 128.256C116.389 128.117 116.443 127.968 116.496 127.808L118.304 122.896ZM128.537 132.128C128.612 132.053 128.692 132.016 128.777 132.016C128.852 132.016 128.921 132.048 128.985 132.112L129.193 132.304C129.268 132.379 129.305 132.459 129.305 132.544C129.305 132.608 129.273 132.683 129.209 132.768C128.687 133.291 128.18 133.664 127.689 133.888C127.199 134.101 126.649 134.208 126.041 134.208C125.273 134.208 124.607 134.037 124.041 133.696C123.476 133.355 123.039 132.88 122.729 132.272C122.42 131.653 122.265 130.939 122.265 130.128C122.265 129.307 122.415 128.581 122.713 127.952C123.023 127.312 123.455 126.816 124.009 126.464C124.564 126.101 125.204 125.92 125.929 125.92C127.007 125.92 127.855 126.256 128.473 126.928C129.092 127.6 129.401 128.507 129.401 129.648V129.84C129.391 129.936 129.353 130.011 129.289 130.064C129.236 130.117 129.161 130.144 129.065 130.144H123.337C123.369 131.04 123.604 131.797 124.041 132.416C124.489 133.024 125.156 133.328 126.041 133.328C126.521 133.328 126.943 133.243 127.305 133.072C127.679 132.891 128.089 132.576 128.537 132.128ZM125.929 126.8C125.225 126.8 124.644 127.019 124.185 127.456C123.737 127.883 123.465 128.512 123.369 129.344H128.345C128.324 128.565 128.1 127.947 127.673 127.488C127.247 127.029 126.665 126.8 125.929 126.8ZM137.005 122.96C137.005 122.747 137.112 122.64 137.325 122.64H137.741C137.954 122.64 138.061 122.747 138.061 122.96V133.68C138.061 133.893 137.954 134 137.741 134H137.405C137.192 134 137.085 133.893 137.085 133.68V132.64C136.797 133.141 136.418 133.525 135.949 133.792C135.48 134.059 134.925 134.192 134.285 134.192C133.613 134.192 133.016 134.021 132.493 133.68C131.97 133.328 131.56 132.843 131.261 132.224C130.962 131.595 130.813 130.875 130.813 130.064C130.813 129.253 130.962 128.539 131.261 127.92C131.57 127.291 131.992 126.805 132.525 126.464C133.058 126.112 133.656 125.936 134.317 125.936C135.533 125.936 136.429 126.389 137.005 127.296V122.96ZM134.365 133.296C135.165 133.296 135.81 133.013 136.301 132.448C136.802 131.872 137.053 131.077 137.053 130.064C137.053 129.061 136.802 128.272 136.301 127.696C135.81 127.12 135.165 126.832 134.365 126.832C133.629 126.832 133.032 127.131 132.573 127.728C132.125 128.325 131.901 129.104 131.901 130.064C131.901 131.035 132.125 131.819 132.573 132.416C133.021 133.003 133.618 133.296 134.365 133.296ZM140.962 124.112C140.749 124.112 140.567 124.037 140.418 123.888C140.279 123.739 140.21 123.557 140.21 123.344C140.21 123.131 140.279 122.955 140.418 122.816C140.567 122.677 140.749 122.608 140.962 122.608C141.186 122.608 141.367 122.677 141.506 122.816C141.655 122.955 141.73 123.131 141.73 123.344C141.73 123.557 141.655 123.739 141.506 123.888C141.367 124.037 141.186 124.112 140.962 124.112ZM140.754 134C140.541 134 140.434 133.893 140.434 133.68V126.432C140.434 126.219 140.541 126.112 140.754 126.112H141.17C141.383 126.112 141.49 126.219 141.49 126.432V133.68C141.49 133.893 141.383 134 141.17 134H140.754ZM148.96 126.432C148.96 126.219 149.067 126.112 149.28 126.112H149.696C149.91 126.112 150.016 126.219 150.016 126.432V133.68C150.016 133.893 149.91 134 149.696 134H149.36C149.147 134 149.04 133.893 149.04 133.68V132.96C148.806 133.376 148.47 133.691 148.032 133.904C147.606 134.107 147.136 134.208 146.624 134.208C145.664 134.208 144.955 133.968 144.496 133.488C144.038 132.997 143.808 132.368 143.808 131.6V126.432C143.808 126.219 143.915 126.112 144.128 126.112H144.544C144.758 126.112 144.864 126.219 144.864 126.432V131.376C144.864 132.005 145.019 132.485 145.328 132.816C145.648 133.136 146.102 133.296 146.688 133.296C147.35 133.296 147.894 133.093 148.32 132.688C148.747 132.283 148.96 131.707 148.96 130.96V126.432ZM160.403 125.92C161.256 125.92 161.907 126.165 162.355 126.656C162.814 127.136 163.043 127.755 163.043 128.512V133.68C163.043 133.893 162.936 134 162.723 134H162.307C162.094 134 161.987 133.893 161.987 133.68V128.8C161.987 128.16 161.838 127.669 161.539 127.328C161.251 126.987 160.819 126.816 160.243 126.816C159.635 126.816 159.15 127.019 158.787 127.424C158.424 127.829 158.243 128.352 158.243 128.992V133.68C158.243 133.893 158.136 134 157.923 134H157.507C157.294 134 157.187 133.893 157.187 133.68V128.8C157.187 128.16 157.038 127.669 156.739 127.328C156.451 126.987 156.014 126.816 155.427 126.816C154.883 126.816 154.43 126.987 154.067 127.328C153.715 127.669 153.507 128.117 153.443 128.672V133.68C153.443 133.893 153.336 134 153.123 134H152.707C152.494 134 152.387 133.893 152.387 133.68V126.432C152.387 126.219 152.494 126.112 152.707 126.112H153.059C153.272 126.112 153.379 126.219 153.379 126.432V127.088C153.859 126.309 154.622 125.92 155.667 125.92C156.211 125.92 156.675 126.043 157.059 126.288C157.454 126.523 157.747 126.843 157.939 127.248C158.504 126.363 159.326 125.92 160.403 125.92Z" fill="#464646"/>
<rect x="84.5" y="158.5" width="15" height="15" rx="1.5" fill="white" stroke="#767676"/>
<path d="M109.696 172C109.483 172 109.376 171.893 109.376 171.68V160.96C109.376 160.747 109.483 160.64 109.696 160.64H110.192C110.405 160.64 110.512 160.747 110.512 160.96V171.056H115.616C115.829 171.056 115.936 171.163 115.936 171.376V171.68C115.936 171.893 115.829 172 115.616 172H109.696ZM120.74 163.92C121.71 163.92 122.468 164.155 123.012 164.624C123.556 165.083 123.828 165.691 123.828 166.448V171.68C123.828 171.893 123.721 172 123.508 172H123.188C122.974 172 122.868 171.893 122.868 171.68V170.96C122.601 171.387 122.222 171.707 121.732 171.92C121.252 172.133 120.713 172.24 120.116 172.24C119.284 172.24 118.606 172.064 118.084 171.712C117.561 171.36 117.3 170.816 117.3 170.08C117.3 169.493 117.465 169.024 117.796 168.672C118.126 168.309 118.558 168.037 119.092 167.856C119.625 167.664 120.292 167.493 121.092 167.344L122.82 167.04V166.528C122.82 165.984 122.633 165.563 122.26 165.264C121.886 164.955 121.396 164.8 120.788 164.8C120.329 164.8 119.913 164.885 119.54 165.056C119.166 165.227 118.766 165.52 118.34 165.936C118.265 166.011 118.185 166.048 118.1 166.048C118.025 166.048 117.956 166.016 117.892 165.952L117.684 165.76C117.609 165.685 117.572 165.605 117.572 165.52C117.572 165.424 117.609 165.339 117.684 165.264C118.132 164.795 118.601 164.453 119.092 164.24C119.593 164.027 120.142 163.92 120.74 163.92ZM120.164 171.36C120.932 171.36 121.566 171.157 122.068 170.752C122.569 170.347 122.82 169.829 122.82 169.2V167.856L121.332 168.144C120.638 168.283 120.089 168.416 119.684 168.544C119.278 168.672 118.953 168.859 118.708 169.104C118.462 169.349 118.34 169.669 118.34 170.064C118.34 170.469 118.5 170.789 118.82 171.024C119.15 171.248 119.598 171.36 120.164 171.36ZM129.112 164.048C129.379 164.048 129.694 164.091 130.056 164.176C130.248 164.24 130.323 164.373 130.28 164.576L130.216 164.832C130.163 165.035 130.03 165.109 129.816 165.056C129.56 164.992 129.326 164.96 129.112 164.96C128.568 164.96 128.115 165.195 127.752 165.664C127.4 166.133 127.224 166.784 127.224 167.616V171.68C127.224 171.893 127.118 172 126.904 172H126.488C126.275 172 126.168 171.893 126.168 171.68V164.432C126.168 164.219 126.275 164.112 126.488 164.112H126.84C127.054 164.112 127.16 164.219 127.16 164.432V165.312C127.342 164.917 127.598 164.608 127.928 164.384C128.27 164.16 128.664 164.048 129.112 164.048ZM136.942 164.432C136.942 164.219 137.048 164.112 137.262 164.112H137.598C137.811 164.112 137.918 164.219 137.918 164.432V171.92C137.918 172.912 137.619 173.691 137.022 174.256C136.424 174.832 135.587 175.12 134.51 175.12C133.347 175.12 132.275 174.789 131.294 174.128C131.187 174.064 131.134 173.984 131.134 173.888C131.134 173.813 131.155 173.749 131.198 173.696L131.39 173.424C131.454 173.317 131.539 173.264 131.646 173.264C131.688 173.264 131.752 173.285 131.838 173.328C132.307 173.627 132.744 173.851 133.15 174C133.566 174.149 134.019 174.224 134.51 174.224C135.214 174.224 135.784 174.027 136.222 173.632C136.659 173.248 136.878 172.651 136.878 171.84V170.56C136.302 171.488 135.427 171.952 134.254 171.952C133.571 171.952 132.968 171.781 132.446 171.44C131.923 171.088 131.518 170.608 131.23 170C130.952 169.392 130.814 168.704 130.814 167.936C130.814 167.168 130.952 166.48 131.23 165.872C131.518 165.264 131.923 164.789 132.446 164.448C132.968 164.096 133.571 163.92 134.254 163.92C134.872 163.92 135.406 164.053 135.854 164.32C136.312 164.576 136.675 164.944 136.942 165.424V164.432ZM134.366 171.056C135.134 171.056 135.747 170.768 136.206 170.192C136.664 169.605 136.894 168.853 136.894 167.936C136.894 167.019 136.664 166.272 136.206 165.696C135.747 165.109 135.134 164.816 134.366 164.816C133.587 164.816 132.979 165.104 132.542 165.68C132.115 166.256 131.902 167.008 131.902 167.936C131.902 168.864 132.115 169.616 132.542 170.192C132.979 170.768 133.587 171.056 134.366 171.056ZM146.037 170.128C146.112 170.053 146.192 170.016 146.277 170.016C146.352 170.016 146.421 170.048 146.485 170.112L146.693 170.304C146.768 170.379 146.805 170.459 146.805 170.544C146.805 170.608 146.773 170.683 146.709 170.768C146.187 171.291 145.68 171.664 145.189 171.888C144.699 172.101 144.149 172.208 143.541 172.208C142.773 172.208 142.107 172.037 141.541 171.696C140.976 171.355 140.539 170.88 140.229 170.272C139.92 169.653 139.765 168.939 139.765 168.128C139.765 167.307 139.915 166.581 140.213 165.952C140.523 165.312 140.955 164.816 141.509 164.464C142.064 164.101 142.704 163.92 143.429 163.92C144.507 163.92 145.355 164.256 145.973 164.928C146.592 165.6 146.901 166.507 146.901 167.648V167.84C146.891 167.936 146.853 168.011 146.789 168.064C146.736 168.117 146.661 168.144 146.565 168.144H140.837C140.869 169.04 141.104 169.797 141.541 170.416C141.989 171.024 142.656 171.328 143.541 171.328C144.021 171.328 144.443 171.243 144.805 171.072C145.179 170.891 145.589 170.576 146.037 170.128ZM143.429 164.8C142.725 164.8 142.144 165.019 141.685 165.456C141.237 165.883 140.965 166.512 140.869 167.344H145.845C145.824 166.565 145.6 165.947 145.173 165.488C144.747 165.029 144.165 164.8 143.429 164.8Z" fill="#464646"/>
<path d="M85.232 56.256C84.3573 56.256 83.5733 56.1333 82.88 55.888C82.1973 55.632 81.4933 55.2053 80.768 54.608C80.6187 54.4907 80.544 54.352 80.544 54.192C80.544 54.0533 80.5973 53.9253 80.704 53.808L81.072 53.376C81.1893 53.2267 81.3227 53.152 81.472 53.152C81.5893 53.152 81.7227 53.2107 81.872 53.328C82.512 53.84 83.0827 54.192 83.584 54.384C84.096 54.576 84.656 54.672 85.264 54.672C86 54.672 86.5973 54.5067 87.056 54.176C87.5147 53.8347 87.744 53.3707 87.744 52.784C87.744 52.4 87.6267 52.1013 87.392 51.888C87.1573 51.664 86.8533 51.4933 86.48 51.376C86.1173 51.2587 85.5253 51.104 84.704 50.912C83.712 50.6773 82.9387 50.4213 82.384 50.144C81.8293 49.8667 81.4293 49.536 81.184 49.152C80.9493 48.7573 80.832 48.2613 80.832 47.664C80.832 47.0347 81.0133 46.4693 81.376 45.968C81.7387 45.4667 82.2347 45.0773 82.864 44.8C83.504 44.5227 84.2187 44.384 85.008 44.384C85.808 44.384 86.512 44.4907 87.12 44.704C87.7387 44.9173 88.3573 45.264 88.976 45.744C89.136 45.872 89.216 46.0053 89.216 46.144C89.216 46.2613 89.1627 46.3893 89.056 46.528L88.704 46.944C88.576 47.0933 88.4427 47.168 88.304 47.168C88.176 47.168 88.0427 47.1147 87.904 47.008C87.392 46.6133 86.9173 46.3413 86.48 46.192C86.0427 46.0427 85.5467 45.968 84.992 45.968C84.288 45.968 83.7173 46.1227 83.28 46.432C82.8427 46.7413 82.624 47.1307 82.624 47.6C82.624 47.9413 82.7253 48.2133 82.928 48.416C83.1307 48.6187 83.424 48.784 83.808 48.912C84.192 49.04 84.784 49.1947 85.584 49.376C86.5547 49.6107 87.3227 49.8613 87.888 50.128C88.4533 50.384 88.8747 50.7147 89.152 51.12C89.4293 51.5253 89.568 52.0427 89.568 52.672C89.568 53.376 89.3867 54 89.024 54.544C88.6613 55.088 88.1547 55.5093 87.504 55.808C86.8533 56.1067 86.096 56.256 85.232 56.256ZM92.0119 46.576C91.7025 46.576 91.4412 46.4747 91.2279 46.272C91.0145 46.0587 90.9079 45.808 90.9079 45.52C90.9079 45.2213 91.0145 44.9707 91.2279 44.768C91.4412 44.5653 91.7025 44.464 92.0119 44.464C92.3212 44.464 92.5825 44.5653 92.7959 44.768C93.0092 44.9707 93.1159 45.2213 93.1159 45.52C93.1159 45.808 93.0092 46.0587 92.7959 46.272C92.5825 46.4747 92.3212 46.576 92.0119 46.576ZM91.7079 56C91.5372 56 91.3985 55.952 91.2919 55.856C91.1959 55.7493 91.1479 55.6107 91.1479 55.44V48.672C91.1479 48.4907 91.1959 48.352 91.2919 48.256C91.3985 48.16 91.5372 48.112 91.7079 48.112H92.2839C92.4652 48.112 92.6039 48.16 92.6999 48.256C92.7959 48.352 92.8439 48.4907 92.8439 48.672V55.44C92.8439 55.6107 92.7959 55.7493 92.6999 55.856C92.6039 55.952 92.4652 56 92.2839 56H91.7079ZM100.276 48.112C100.457 48.112 100.596 48.16 100.692 48.256C100.788 48.352 100.836 48.4907 100.836 48.672V48.976C100.836 49.2427 100.751 49.4773 100.58 49.68L96.4841 54.608H100.276C100.457 54.608 100.596 54.656 100.692 54.752C100.788 54.848 100.836 54.9867 100.836 55.168V55.44C100.836 55.6107 100.788 55.7493 100.692 55.856C100.596 55.952 100.457 56 100.276 56H94.9481C94.7775 56 94.6388 55.952 94.5321 55.856C94.4361 55.7493 94.3881 55.6107 94.3881 55.44V55.12C94.3881 54.8533 94.4735 54.6187 94.6441 54.416L98.7561 49.488H95.2201C95.0495 49.488 94.9108 49.44 94.8041 49.344C94.7081 49.2373 94.6601 49.0987 94.6601 48.928V48.672C94.6601 48.4907 94.7081 48.352 94.8041 48.256C94.9108 48.16 95.0495 48.112 95.2201 48.112H100.276ZM107.843 53.984C107.981 53.8667 108.115 53.808 108.243 53.808C108.371 53.808 108.504 53.8773 108.643 54.016L108.867 54.256C108.984 54.3947 109.043 54.528 109.043 54.656C109.043 54.7947 108.973 54.928 108.835 55.056C108.344 55.4827 107.853 55.7867 107.363 55.968C106.883 56.1493 106.349 56.24 105.763 56.24C104.941 56.24 104.227 56.0693 103.619 55.728C103.021 55.3867 102.557 54.9067 102.227 54.288C101.907 53.6587 101.747 52.9333 101.747 52.112C101.747 51.3013 101.901 50.576 102.211 49.936C102.531 49.2853 102.979 48.7787 103.555 48.416C104.141 48.0533 104.824 47.872 105.603 47.872C106.765 47.872 107.661 48.2187 108.291 48.912C108.92 49.5947 109.235 50.5387 109.235 51.744V51.888C109.224 52.0587 109.171 52.192 109.075 52.288C108.979 52.384 108.84 52.432 108.659 52.432H103.411C103.475 53.136 103.704 53.712 104.099 54.16C104.504 54.5973 105.069 54.816 105.795 54.816C106.189 54.816 106.536 54.7573 106.835 54.64C107.133 54.512 107.469 54.2933 107.843 53.984ZM105.571 49.216C104.984 49.216 104.509 49.392 104.147 49.744C103.795 50.0853 103.565 50.5707 103.459 51.2H107.571C107.528 50.5813 107.336 50.096 106.995 49.744C106.653 49.392 106.179 49.216 105.571 49.216Z" fill="#464646"/>
</svg>
