<svg width="344" height="210" viewBox="0 0 344 210" fill="none" xmlns="http://www.w3.org/2000/svg">
<rect width="344" height="210" fill="#F5F5F5"/>
<rect x="40.5" y="42.5" width="15" height="15" rx="1.5" fill="white" stroke="#D91F0A"/>
<path d="M70.016 56.24C68.9387 56.24 68 55.9893 67.2 55.488C66.4 54.976 65.7867 54.272 65.36 53.376C64.9333 52.48 64.72 51.4613 64.72 50.32C64.72 49.1787 64.9333 48.16 65.36 47.264C65.7867 46.368 66.4 45.6693 67.2 45.168C68 44.656 68.9387 44.4 70.016 44.4C71.0933 44.4 72.032 44.656 72.832 45.168C73.632 45.6693 74.2453 46.368 74.672 47.264C75.0987 48.16 75.312 49.1787 75.312 50.32C75.312 51.4613 75.0987 52.48 74.672 53.376C74.2453 54.272 73.632 54.976 72.832 55.488C72.032 55.9893 71.0933 56.24 70.016 56.24ZM70.016 55.264C70.8373 55.264 71.5627 55.056 72.192 54.64C72.8213 54.2133 73.3067 53.6267 73.648 52.88C74 52.1227 74.176 51.2693 74.176 50.32C74.176 49.3707 74 48.5227 73.648 47.776C73.3067 47.0187 72.8213 46.432 72.192 46.016C71.5627 45.5893 70.8373 45.376 70.016 45.376C69.1947 45.376 68.4693 45.5893 67.84 46.016C67.2107 46.432 66.72 47.0187 66.368 47.776C66.0267 48.5227 65.856 49.3707 65.856 50.32C65.856 51.2693 66.0267 52.1227 66.368 52.88C66.72 53.6267 67.2107 54.2133 67.84 54.64C68.4693 55.056 69.1947 55.264 70.016 55.264ZM80.9756 47.936C81.637 47.936 82.229 48.112 82.7516 48.464C83.285 48.8053 83.701 49.2907 83.9996 49.92C84.2983 50.5387 84.4476 51.248 84.4476 52.048C84.4476 52.8587 84.2983 53.5787 83.9996 54.208C83.701 54.8373 83.2903 55.328 82.7676 55.68C82.245 56.0213 81.6476 56.192 80.9756 56.192C79.7383 56.192 78.8316 55.7387 78.2556 54.832V58.624C78.2556 58.8373 78.149 58.944 77.9356 58.944H77.5196C77.3063 58.944 77.1996 58.8373 77.1996 58.624V48.432C77.1996 48.2187 77.3063 48.112 77.5196 48.112H77.8716C78.085 48.112 78.1916 48.2187 78.1916 48.432V49.44C78.4796 48.9493 78.8583 48.576 79.3276 48.32C79.797 48.064 80.3463 47.936 80.9756 47.936ZM80.8956 55.296C81.6423 55.296 82.2396 54.9973 82.6876 54.4C83.1356 53.8027 83.3596 53.0187 83.3596 52.048C83.3596 51.088 83.1356 50.3147 82.6876 49.728C82.2396 49.1307 81.6423 48.832 80.8956 48.832C80.0956 48.832 79.445 49.12 78.9436 49.696C78.453 50.2613 78.2076 51.0453 78.2076 52.048C78.2076 53.0507 78.4583 53.8453 78.9596 54.432C79.461 55.008 80.1063 55.296 80.8956 55.296ZM89.6423 55.12C89.6743 55.1093 89.7169 55.104 89.7703 55.104C89.8343 55.104 89.8929 55.1253 89.9463 55.168C89.9996 55.2107 90.0316 55.2693 90.0423 55.344L90.0903 55.568C90.1009 55.5893 90.1063 55.6267 90.1063 55.68C90.1063 55.8293 90.0263 55.92 89.8663 55.952C89.4823 56.0693 89.0716 56.128 88.6343 56.128C87.9409 56.128 87.4449 55.9733 87.1463 55.664C86.8583 55.344 86.7143 54.8853 86.7143 54.288V48.912H85.5303C85.3169 48.912 85.2103 48.8053 85.2103 48.592V48.432C85.2103 48.2187 85.3169 48.112 85.5303 48.112H86.7143V45.68C86.7143 45.4667 86.8209 45.36 87.0343 45.36H87.4503C87.6636 45.36 87.7703 45.4667 87.7703 45.68V48.112H89.6903C89.9036 48.112 90.0103 48.2187 90.0103 48.432V48.592C90.0103 48.8053 89.9036 48.912 89.6903 48.912H87.7703V54.16C87.7703 54.5547 87.8449 54.832 87.9943 54.992C88.1436 55.152 88.3996 55.232 88.7623 55.232C89.0183 55.232 89.3116 55.1947 89.6423 55.12ZM92.1495 46.112C91.9362 46.112 91.7548 46.0373 91.6055 45.888C91.4668 45.7387 91.3975 45.5573 91.3975 45.344C91.3975 45.1307 91.4668 44.9547 91.6055 44.816C91.7548 44.6773 91.9362 44.608 92.1495 44.608C92.3735 44.608 92.5548 44.6773 92.6935 44.816C92.8428 44.9547 92.9175 45.1307 92.9175 45.344C92.9175 45.5573 92.8428 45.7387 92.6935 45.888C92.5548 46.0373 92.3735 46.112 92.1495 46.112ZM91.9415 56C91.7282 56 91.6215 55.8933 91.6215 55.68V48.432C91.6215 48.2187 91.7282 48.112 91.9415 48.112H92.3575C92.5708 48.112 92.6775 48.2187 92.6775 48.432V55.68C92.6775 55.8933 92.5708 56 92.3575 56H91.9415ZM98.2918 56.208C97.5558 56.208 96.8998 56.032 96.3238 55.68C95.7478 55.328 95.2998 54.8427 94.9798 54.224C94.6598 53.5947 94.4998 52.8747 94.4998 52.064C94.4998 51.2533 94.6598 50.5387 94.9798 49.92C95.2998 49.2907 95.7478 48.8 96.3238 48.448C96.8998 48.096 97.5558 47.92 98.2918 47.92C99.0278 47.92 99.6838 48.096 100.26 48.448C100.836 48.8 101.284 49.2907 101.604 49.92C101.924 50.5387 102.084 51.2533 102.084 52.064C102.084 52.8747 101.924 53.5947 101.604 54.224C101.284 54.8427 100.836 55.328 100.26 55.68C99.6838 56.032 99.0278 56.208 98.2918 56.208ZM98.2918 55.328C99.1131 55.328 99.7691 55.0293 100.26 54.432C100.75 53.824 100.996 53.0347 100.996 52.064C100.996 51.0933 100.75 50.3093 100.26 49.712C99.7691 49.104 99.1131 48.8 98.2918 48.8C97.4704 48.8 96.8144 49.104 96.3238 49.712C95.8331 50.3093 95.5878 51.0933 95.5878 52.064C95.5878 53.0347 95.8331 53.824 96.3238 54.432C96.8144 55.0293 97.4704 55.328 98.2918 55.328ZM107.438 47.92C108.366 47.92 109.065 48.176 109.534 48.688C110.014 49.2 110.254 49.84 110.254 50.608V55.68C110.254 55.8933 110.148 56 109.934 56H109.518C109.305 56 109.198 55.8933 109.198 55.68V50.96C109.198 50.256 109.028 49.7227 108.686 49.36C108.345 48.9973 107.854 48.816 107.214 48.816C106.809 48.816 106.436 48.9173 106.094 49.12C105.753 49.312 105.481 49.5787 105.278 49.92C105.076 50.2613 104.974 50.6347 104.974 51.04V55.68C104.974 55.8933 104.868 56 104.654 56H104.238C104.025 56 103.918 55.8933 103.918 55.68V48.432C103.918 48.2187 104.025 48.112 104.238 48.112H104.59C104.804 48.112 104.91 48.2187 104.91 48.432V49.2C105.177 48.7733 105.529 48.4533 105.966 48.24C106.404 48.0267 106.894 47.92 107.438 47.92ZM119.062 44.768C119.179 44.6827 119.312 44.64 119.462 44.64H119.718C119.931 44.64 120.038 44.7467 120.038 44.96V55.68C120.038 55.8933 119.931 56 119.718 56H119.286C119.072 56 118.966 55.8933 118.966 55.68V46.016L116.55 47.744C116.475 47.7973 116.406 47.824 116.342 47.824C116.246 47.824 116.166 47.776 116.102 47.68L115.942 47.44C115.899 47.3867 115.878 47.3227 115.878 47.248C115.878 47.152 115.926 47.0667 116.022 46.992L119.062 44.768Z" fill="#464646"/>
<rect x="40.5" y="80.5" width="15" height="15" rx="1.5" fill="white" stroke="#D91F0A"/>
<path d="M70.016 94.24C68.9387 94.24 68 93.9893 67.2 93.488C66.4 92.976 65.7867 92.272 65.36 91.376C64.9333 90.48 64.72 89.4613 64.72 88.32C64.72 87.1787 64.9333 86.16 65.36 85.264C65.7867 84.368 66.4 83.6693 67.2 83.168C68 82.656 68.9387 82.4 70.016 82.4C71.0933 82.4 72.032 82.656 72.832 83.168C73.632 83.6693 74.2453 84.368 74.672 85.264C75.0987 86.16 75.312 87.1787 75.312 88.32C75.312 89.4613 75.0987 90.48 74.672 91.376C74.2453 92.272 73.632 92.976 72.832 93.488C72.032 93.9893 71.0933 94.24 70.016 94.24ZM70.016 93.264C70.8373 93.264 71.5627 93.056 72.192 92.64C72.8213 92.2133 73.3067 91.6267 73.648 90.88C74 90.1227 74.176 89.2693 74.176 88.32C74.176 87.3707 74 86.5227 73.648 85.776C73.3067 85.0187 72.8213 84.432 72.192 84.016C71.5627 83.5893 70.8373 83.376 70.016 83.376C69.1947 83.376 68.4693 83.5893 67.84 84.016C67.2107 84.432 66.72 85.0187 66.368 85.776C66.0267 86.5227 65.856 87.3707 65.856 88.32C65.856 89.2693 66.0267 90.1227 66.368 90.88C66.72 91.6267 67.2107 92.2133 67.84 92.64C68.4693 93.056 69.1947 93.264 70.016 93.264ZM80.9756 85.936C81.637 85.936 82.229 86.112 82.7516 86.464C83.285 86.8053 83.701 87.2907 83.9996 87.92C84.2983 88.5387 84.4476 89.248 84.4476 90.048C84.4476 90.8587 84.2983 91.5787 83.9996 92.208C83.701 92.8373 83.2903 93.328 82.7676 93.68C82.245 94.0213 81.6476 94.192 80.9756 94.192C79.7383 94.192 78.8316 93.7387 78.2556 92.832V96.624C78.2556 96.8373 78.149 96.944 77.9356 96.944H77.5196C77.3063 96.944 77.1996 96.8373 77.1996 96.624V86.432C77.1996 86.2187 77.3063 86.112 77.5196 86.112H77.8716C78.085 86.112 78.1916 86.2187 78.1916 86.432V87.44C78.4796 86.9493 78.8583 86.576 79.3276 86.32C79.797 86.064 80.3463 85.936 80.9756 85.936ZM80.8956 93.296C81.6423 93.296 82.2396 92.9973 82.6876 92.4C83.1356 91.8027 83.3596 91.0187 83.3596 90.048C83.3596 89.088 83.1356 88.3147 82.6876 87.728C82.2396 87.1307 81.6423 86.832 80.8956 86.832C80.0956 86.832 79.445 87.12 78.9436 87.696C78.453 88.2613 78.2076 89.0453 78.2076 90.048C78.2076 91.0507 78.4583 91.8453 78.9596 92.432C79.461 93.008 80.1063 93.296 80.8956 93.296ZM89.6423 93.12C89.6743 93.1093 89.7169 93.104 89.7703 93.104C89.8343 93.104 89.8929 93.1253 89.9463 93.168C89.9996 93.2107 90.0316 93.2693 90.0423 93.344L90.0903 93.568C90.1009 93.5893 90.1063 93.6267 90.1063 93.68C90.1063 93.8293 90.0263 93.92 89.8663 93.952C89.4823 94.0693 89.0716 94.128 88.6343 94.128C87.9409 94.128 87.4449 93.9733 87.1463 93.664C86.8583 93.344 86.7143 92.8853 86.7143 92.288V86.912H85.5303C85.3169 86.912 85.2103 86.8053 85.2103 86.592V86.432C85.2103 86.2187 85.3169 86.112 85.5303 86.112H86.7143V83.68C86.7143 83.4667 86.8209 83.36 87.0343 83.36H87.4503C87.6636 83.36 87.7703 83.4667 87.7703 83.68V86.112H89.6903C89.9036 86.112 90.0103 86.2187 90.0103 86.432V86.592C90.0103 86.8053 89.9036 86.912 89.6903 86.912H87.7703V92.16C87.7703 92.5547 87.8449 92.832 87.9943 92.992C88.1436 93.152 88.3996 93.232 88.7623 93.232C89.0183 93.232 89.3116 93.1947 89.6423 93.12ZM92.1495 84.112C91.9362 84.112 91.7548 84.0373 91.6055 83.888C91.4668 83.7387 91.3975 83.5573 91.3975 83.344C91.3975 83.1307 91.4668 82.9547 91.6055 82.816C91.7548 82.6773 91.9362 82.608 92.1495 82.608C92.3735 82.608 92.5548 82.6773 92.6935 82.816C92.8428 82.9547 92.9175 83.1307 92.9175 83.344C92.9175 83.5573 92.8428 83.7387 92.6935 83.888C92.5548 84.0373 92.3735 84.112 92.1495 84.112ZM91.9415 94C91.7282 94 91.6215 93.8933 91.6215 93.68V86.432C91.6215 86.2187 91.7282 86.112 91.9415 86.112H92.3575C92.5708 86.112 92.6775 86.2187 92.6775 86.432V93.68C92.6775 93.8933 92.5708 94 92.3575 94H91.9415ZM98.2918 94.208C97.5558 94.208 96.8998 94.032 96.3238 93.68C95.7478 93.328 95.2998 92.8427 94.9798 92.224C94.6598 91.5947 94.4998 90.8747 94.4998 90.064C94.4998 89.2533 94.6598 88.5387 94.9798 87.92C95.2998 87.2907 95.7478 86.8 96.3238 86.448C96.8998 86.096 97.5558 85.92 98.2918 85.92C99.0278 85.92 99.6838 86.096 100.26 86.448C100.836 86.8 101.284 87.2907 101.604 87.92C101.924 88.5387 102.084 89.2533 102.084 90.064C102.084 90.8747 101.924 91.5947 101.604 92.224C101.284 92.8427 100.836 93.328 100.26 93.68C99.6838 94.032 99.0278 94.208 98.2918 94.208ZM98.2918 93.328C99.1131 93.328 99.7691 93.0293 100.26 92.432C100.75 91.824 100.996 91.0347 100.996 90.064C100.996 89.0933 100.75 88.3093 100.26 87.712C99.7691 87.104 99.1131 86.8 98.2918 86.8C97.4704 86.8 96.8144 87.104 96.3238 87.712C95.8331 88.3093 95.5878 89.0933 95.5878 90.064C95.5878 91.0347 95.8331 91.824 96.3238 92.432C96.8144 93.0293 97.4704 93.328 98.2918 93.328ZM107.438 85.92C108.366 85.92 109.065 86.176 109.534 86.688C110.014 87.2 110.254 87.84 110.254 88.608V93.68C110.254 93.8933 110.148 94 109.934 94H109.518C109.305 94 109.198 93.8933 109.198 93.68V88.96C109.198 88.256 109.028 87.7227 108.686 87.36C108.345 86.9973 107.854 86.816 107.214 86.816C106.809 86.816 106.436 86.9173 106.094 87.12C105.753 87.312 105.481 87.5787 105.278 87.92C105.076 88.2613 104.974 88.6347 104.974 89.04V93.68C104.974 93.8933 104.868 94 104.654 94H104.238C104.025 94 103.918 93.8933 103.918 93.68V86.432C103.918 86.2187 104.025 86.112 104.238 86.112H104.59C104.804 86.112 104.91 86.2187 104.91 86.432V87.2C105.177 86.7733 105.529 86.4533 105.966 86.24C106.404 86.0267 106.894 85.92 107.438 85.92ZM123.238 93.072C123.451 93.072 123.558 93.1787 123.558 93.392V93.68C123.558 93.8933 123.451 94 123.238 94H116.134C115.92 94 115.814 93.8933 115.814 93.68V93.616C115.814 92.8373 115.947 92.1813 116.214 91.648C116.491 91.104 116.848 90.6453 117.286 90.272C117.734 89.8987 118.347 89.472 119.126 88.992C119.2 88.9387 119.478 88.7733 119.958 88.496C120.523 88.176 120.966 87.8987 121.286 87.664C121.606 87.4293 121.872 87.1413 122.086 86.8C122.299 86.448 122.406 86.0373 122.406 85.568C122.406 84.8533 122.166 84.304 121.686 83.92C121.206 83.536 120.624 83.344 119.942 83.344C119.28 83.344 118.731 83.4827 118.294 83.76C117.856 84.0373 117.35 84.5173 116.774 85.2C116.699 85.296 116.608 85.344 116.502 85.344C116.448 85.344 116.384 85.3173 116.31 85.264L116.038 85.056C115.942 84.9707 115.894 84.8853 115.894 84.8C115.894 84.7467 115.92 84.6827 115.974 84.608C116.539 83.8933 117.126 83.3493 117.734 82.976C118.352 82.6027 119.078 82.416 119.91 82.416C120.603 82.416 121.222 82.5493 121.766 82.816C122.31 83.072 122.731 83.44 123.03 83.92C123.339 84.3893 123.494 84.9227 123.494 85.52C123.494 86.1493 123.36 86.6933 123.094 87.152C122.838 87.6 122.512 87.9733 122.118 88.272C121.723 88.56 121.19 88.9013 120.518 89.296L119.718 89.776C119.046 90.192 118.534 90.5333 118.182 90.8C117.83 91.056 117.536 91.3707 117.302 91.744C117.067 92.1067 116.928 92.5493 116.886 93.072H123.238Z" fill="#464646"/>
<rect x="40.5" y="118.5" width="15" height="15" rx="1.5" fill="white" stroke="#D91F0A"/>
<path d="M70.016 132.24C68.9387 132.24 68 131.989 67.2 131.488C66.4 130.976 65.7867 130.272 65.36 129.376C64.9333 128.48 64.72 127.461 64.72 126.32C64.72 125.179 64.9333 124.16 65.36 123.264C65.7867 122.368 66.4 121.669 67.2 121.168C68 120.656 68.9387 120.4 70.016 120.4C71.0933 120.4 72.032 120.656 72.832 121.168C73.632 121.669 74.2453 122.368 74.672 123.264C75.0987 124.16 75.312 125.179 75.312 126.32C75.312 127.461 75.0987 128.48 74.672 129.376C74.2453 130.272 73.632 130.976 72.832 131.488C72.032 131.989 71.0933 132.24 70.016 132.24ZM70.016 131.264C70.8373 131.264 71.5627 131.056 72.192 130.64C72.8213 130.213 73.3067 129.627 73.648 128.88C74 128.123 74.176 127.269 74.176 126.32C74.176 125.371 74 124.523 73.648 123.776C73.3067 123.019 72.8213 122.432 72.192 122.016C71.5627 121.589 70.8373 121.376 70.016 121.376C69.1947 121.376 68.4693 121.589 67.84 122.016C67.2107 122.432 66.72 123.019 66.368 123.776C66.0267 124.523 65.856 125.371 65.856 126.32C65.856 127.269 66.0267 128.123 66.368 128.88C66.72 129.627 67.2107 130.213 67.84 130.64C68.4693 131.056 69.1947 131.264 70.016 131.264ZM80.9756 123.936C81.637 123.936 82.229 124.112 82.7516 124.464C83.285 124.805 83.701 125.291 83.9996 125.92C84.2983 126.539 84.4476 127.248 84.4476 128.048C84.4476 128.859 84.2983 129.579 83.9996 130.208C83.701 130.837 83.2903 131.328 82.7676 131.68C82.245 132.021 81.6476 132.192 80.9756 132.192C79.7383 132.192 78.8316 131.739 78.2556 130.832V134.624C78.2556 134.837 78.149 134.944 77.9356 134.944H77.5196C77.3063 134.944 77.1996 134.837 77.1996 134.624V124.432C77.1996 124.219 77.3063 124.112 77.5196 124.112H77.8716C78.085 124.112 78.1916 124.219 78.1916 124.432V125.44C78.4796 124.949 78.8583 124.576 79.3276 124.32C79.797 124.064 80.3463 123.936 80.9756 123.936ZM80.8956 131.296C81.6423 131.296 82.2396 130.997 82.6876 130.4C83.1356 129.803 83.3596 129.019 83.3596 128.048C83.3596 127.088 83.1356 126.315 82.6876 125.728C82.2396 125.131 81.6423 124.832 80.8956 124.832C80.0956 124.832 79.445 125.12 78.9436 125.696C78.453 126.261 78.2076 127.045 78.2076 128.048C78.2076 129.051 78.4583 129.845 78.9596 130.432C79.461 131.008 80.1063 131.296 80.8956 131.296ZM89.6423 131.12C89.6743 131.109 89.7169 131.104 89.7703 131.104C89.8343 131.104 89.8929 131.125 89.9463 131.168C89.9996 131.211 90.0316 131.269 90.0423 131.344L90.0903 131.568C90.1009 131.589 90.1063 131.627 90.1063 131.68C90.1063 131.829 90.0263 131.92 89.8663 131.952C89.4823 132.069 89.0716 132.128 88.6343 132.128C87.9409 132.128 87.4449 131.973 87.1463 131.664C86.8583 131.344 86.7143 130.885 86.7143 130.288V124.912H85.5303C85.3169 124.912 85.2103 124.805 85.2103 124.592V124.432C85.2103 124.219 85.3169 124.112 85.5303 124.112H86.7143V121.68C86.7143 121.467 86.8209 121.36 87.0343 121.36H87.4503C87.6636 121.36 87.7703 121.467 87.7703 121.68V124.112H89.6903C89.9036 124.112 90.0103 124.219 90.0103 124.432V124.592C90.0103 124.805 89.9036 124.912 89.6903 124.912H87.7703V130.16C87.7703 130.555 87.8449 130.832 87.9943 130.992C88.1436 131.152 88.3996 131.232 88.7623 131.232C89.0183 131.232 89.3116 131.195 89.6423 131.12ZM92.1495 122.112C91.9362 122.112 91.7548 122.037 91.6055 121.888C91.4668 121.739 91.3975 121.557 91.3975 121.344C91.3975 121.131 91.4668 120.955 91.6055 120.816C91.7548 120.677 91.9362 120.608 92.1495 120.608C92.3735 120.608 92.5548 120.677 92.6935 120.816C92.8428 120.955 92.9175 121.131 92.9175 121.344C92.9175 121.557 92.8428 121.739 92.6935 121.888C92.5548 122.037 92.3735 122.112 92.1495 122.112ZM91.9415 132C91.7282 132 91.6215 131.893 91.6215 131.68V124.432C91.6215 124.219 91.7282 124.112 91.9415 124.112H92.3575C92.5708 124.112 92.6775 124.219 92.6775 124.432V131.68C92.6775 131.893 92.5708 132 92.3575 132H91.9415ZM98.2918 132.208C97.5558 132.208 96.8998 132.032 96.3238 131.68C95.7478 131.328 95.2998 130.843 94.9798 130.224C94.6598 129.595 94.4998 128.875 94.4998 128.064C94.4998 127.253 94.6598 126.539 94.9798 125.92C95.2998 125.291 95.7478 124.8 96.3238 124.448C96.8998 124.096 97.5558 123.92 98.2918 123.92C99.0278 123.92 99.6838 124.096 100.26 124.448C100.836 124.8 101.284 125.291 101.604 125.92C101.924 126.539 102.084 127.253 102.084 128.064C102.084 128.875 101.924 129.595 101.604 130.224C101.284 130.843 100.836 131.328 100.26 131.68C99.6838 132.032 99.0278 132.208 98.2918 132.208ZM98.2918 131.328C99.1131 131.328 99.7691 131.029 100.26 130.432C100.75 129.824 100.996 129.035 100.996 128.064C100.996 127.093 100.75 126.309 100.26 125.712C99.7691 125.104 99.1131 124.8 98.2918 124.8C97.4704 124.8 96.8144 125.104 96.3238 125.712C95.8331 126.309 95.5878 127.093 95.5878 128.064C95.5878 129.035 95.8331 129.824 96.3238 130.432C96.8144 131.029 97.4704 131.328 98.2918 131.328ZM107.438 123.92C108.366 123.92 109.065 124.176 109.534 124.688C110.014 125.2 110.254 125.84 110.254 126.608V131.68C110.254 131.893 110.148 132 109.934 132H109.518C109.305 132 109.198 131.893 109.198 131.68V126.96C109.198 126.256 109.028 125.723 108.686 125.36C108.345 124.997 107.854 124.816 107.214 124.816C106.809 124.816 106.436 124.917 106.094 125.12C105.753 125.312 105.481 125.579 105.278 125.92C105.076 126.261 104.974 126.635 104.974 127.04V131.68C104.974 131.893 104.868 132 104.654 132H104.238C104.025 132 103.918 131.893 103.918 131.68V124.432C103.918 124.219 104.025 124.112 104.238 124.112H104.59C104.804 124.112 104.91 124.219 104.91 124.432V125.2C105.177 124.773 105.529 124.453 105.966 124.24C106.404 124.027 106.894 123.92 107.438 123.92ZM119.702 125.248C120.832 125.248 121.75 125.536 122.454 126.112C123.158 126.688 123.51 127.509 123.51 128.576C123.51 129.173 123.36 129.755 123.062 130.32C122.774 130.885 122.342 131.349 121.766 131.712C121.19 132.064 120.496 132.24 119.686 132.24C119.014 132.24 118.368 132.144 117.75 131.952C117.142 131.749 116.518 131.445 115.878 131.04C115.771 130.976 115.718 130.891 115.718 130.784C115.718 130.709 115.739 130.645 115.782 130.592L115.99 130.304C116.054 130.208 116.134 130.16 116.23 130.16C116.315 130.16 116.384 130.181 116.438 130.224C117.067 130.619 117.622 130.901 118.102 131.072C118.592 131.232 119.11 131.312 119.654 131.312C120.208 131.312 120.694 131.195 121.11 130.96C121.526 130.715 121.846 130.389 122.07 129.984C122.304 129.568 122.422 129.104 122.422 128.592C122.422 127.824 122.176 127.221 121.686 126.784C121.195 126.347 120.464 126.128 119.494 126.128C119.088 126.128 118.731 126.171 118.422 126.256C118.39 126.267 118.347 126.272 118.294 126.272C118.176 126.272 118.08 126.219 118.006 126.112L117.83 125.872C117.776 125.787 117.75 125.712 117.75 125.648C117.75 125.563 117.787 125.488 117.862 125.424L121.894 121.568H116.486C116.272 121.568 116.166 121.461 116.166 121.248V120.96C116.166 120.747 116.272 120.64 116.486 120.64H122.918C123.131 120.64 123.238 120.747 123.238 120.96V121.312C123.238 121.461 123.179 121.595 123.062 121.712L119.318 125.264L119.702 125.248Z" fill="#464646"/>
<path d="M41.4142 160.586L44.5858 157.414C45.3668 156.633 46.6332 156.633 47.4142 157.414L50.5858 160.586C51.3668 161.367 51.3668 162.633 50.5858 163.414L47.4142 166.586C46.6332 167.367 45.3668 167.367 44.5858 166.586L41.4142 163.414C40.6332 162.633 40.6332 161.367 41.4142 160.586Z" fill="#D91F0A"/>
<path d="M46 159V162.455" stroke="white" stroke-width="1.4" stroke-linecap="round"/>
<circle cx="45.95" cy="164.7" r="0.7" fill="white"/>
<path d="M57.272 166C57.112 166 57.032 165.92 57.032 165.76V157.72C57.032 157.56 57.112 157.48 57.272 157.48H60.5C61.324 157.48 61.988 157.696 62.492 158.128C62.996 158.56 63.248 159.172 63.248 159.964C63.248 160.756 62.996 161.372 62.492 161.812C61.988 162.244 61.324 162.46 60.5 162.46H57.884V165.76C57.884 165.92 57.804 166 57.644 166H57.272ZM60.392 161.752C61.016 161.752 61.508 161.6 61.868 161.296C62.228 160.992 62.408 160.548 62.408 159.964C62.408 159.388 62.228 158.948 61.868 158.644C61.508 158.34 61.016 158.188 60.392 158.188H57.884V161.752H60.392ZM64.7806 166C64.6206 166 64.5406 165.92 64.5406 165.76V157.72C64.5406 157.56 64.6206 157.48 64.7806 157.48H65.0926C65.2526 157.48 65.3326 157.56 65.3326 157.72V165.76C65.3326 165.92 65.2526 166 65.0926 166H64.7806ZM71.4265 164.596C71.4825 164.54 71.5425 164.512 71.6065 164.512C71.6625 164.512 71.7145 164.536 71.7625 164.584L71.9185 164.728C71.9745 164.784 72.0025 164.844 72.0025 164.908C72.0025 164.956 71.9785 165.012 71.9305 165.076C71.5385 165.468 71.1585 165.748 70.7905 165.916C70.4225 166.076 70.0105 166.156 69.5545 166.156C68.9785 166.156 68.4785 166.028 68.0545 165.772C67.6305 165.516 67.3025 165.16 67.0705 164.704C66.8385 164.24 66.7225 163.704 66.7225 163.096C66.7225 162.48 66.8345 161.936 67.0585 161.464C67.2905 160.984 67.6145 160.612 68.0305 160.348C68.4465 160.076 68.9265 159.94 69.4705 159.94C70.2785 159.94 70.9145 160.192 71.3785 160.696C71.8425 161.2 72.0745 161.88 72.0745 162.736V162.88C72.0665 162.952 72.0385 163.008 71.9905 163.048C71.9505 163.088 71.8945 163.108 71.8225 163.108H67.5265C67.5505 163.78 67.7265 164.348 68.0545 164.812C68.3905 165.268 68.8905 165.496 69.5545 165.496C69.9145 165.496 70.2305 165.432 70.5025 165.304C70.7825 165.168 71.0905 164.932 71.4265 164.596ZM69.4705 160.6C68.9425 160.6 68.5065 160.764 68.1625 161.092C67.8265 161.412 67.6225 161.884 67.5505 162.508H71.2825C71.2665 161.924 71.0985 161.46 70.7785 161.116C70.4585 160.772 70.0225 160.6 69.4705 160.6ZM75.668 159.94C76.396 159.94 76.964 160.116 77.372 160.468C77.78 160.812 77.984 161.268 77.984 161.836V165.76C77.984 165.92 77.904 166 77.744 166H77.504C77.344 166 77.264 165.92 77.264 165.76V165.22C77.064 165.54 76.78 165.78 76.412 165.94C76.052 166.1 75.648 166.18 75.2 166.18C74.576 166.18 74.068 166.048 73.676 165.784C73.284 165.52 73.088 165.112 73.088 164.56C73.088 164.12 73.212 163.768 73.46 163.504C73.708 163.232 74.032 163.028 74.432 162.892C74.832 162.748 75.332 162.62 75.932 162.508L77.228 162.28V161.896C77.228 161.488 77.088 161.172 76.808 160.948C76.528 160.716 76.16 160.6 75.704 160.6C75.36 160.6 75.048 160.664 74.768 160.792C74.488 160.92 74.188 161.14 73.868 161.452C73.812 161.508 73.752 161.536 73.688 161.536C73.632 161.536 73.58 161.512 73.532 161.464L73.376 161.32C73.32 161.264 73.292 161.204 73.292 161.14C73.292 161.068 73.32 161.004 73.376 160.948C73.712 160.596 74.064 160.34 74.432 160.18C74.808 160.02 75.22 159.94 75.668 159.94ZM75.236 165.52C75.812 165.52 76.288 165.368 76.664 165.064C77.04 164.76 77.228 164.372 77.228 163.9V162.892L76.112 163.108C75.592 163.212 75.18 163.312 74.876 163.408C74.572 163.504 74.328 163.644 74.144 163.828C73.96 164.012 73.868 164.252 73.868 164.548C73.868 164.852 73.988 165.092 74.228 165.268C74.476 165.436 74.812 165.52 75.236 165.52ZM81.8036 166.156C81.3156 166.156 80.8836 166.088 80.5076 165.952C80.1396 165.808 79.7516 165.568 79.3436 165.232C79.2716 165.184 79.2356 165.128 79.2356 165.064C79.2356 165.008 79.2636 164.952 79.3196 164.896L79.4756 164.728C79.5236 164.664 79.5836 164.632 79.6556 164.632C79.7116 164.632 79.7636 164.656 79.8116 164.704C80.1956 165 80.5356 165.208 80.8316 165.328C81.1276 165.44 81.4516 165.496 81.8036 165.496C82.2436 165.496 82.6036 165.4 82.8836 165.208C83.1636 165.008 83.3036 164.74 83.3036 164.404C83.3036 164.068 83.1596 163.82 82.8716 163.66C82.5836 163.5 82.1396 163.356 81.5396 163.228C81.0116 163.116 80.5956 163 80.2916 162.88C79.9956 162.752 79.7756 162.592 79.6316 162.4C79.4876 162.208 79.4156 161.956 79.4156 161.644C79.4156 161.132 79.6236 160.72 80.0396 160.408C80.4556 160.096 80.9796 159.94 81.6116 159.94C82.0436 159.94 82.4276 159.996 82.7636 160.108C83.1076 160.212 83.4516 160.388 83.7956 160.636C83.8676 160.692 83.9036 160.752 83.9036 160.816C83.9036 160.856 83.8836 160.908 83.8436 160.972L83.6996 161.152C83.6596 161.216 83.6036 161.248 83.5316 161.248C83.4676 161.248 83.4116 161.228 83.3636 161.188C83.0356 160.956 82.7436 160.8 82.4876 160.72C82.2396 160.64 81.9556 160.6 81.6356 160.6C81.1956 160.6 80.8436 160.696 80.5796 160.888C80.3156 161.08 80.1836 161.324 80.1836 161.62C80.1836 161.804 80.2436 161.952 80.3636 162.064C80.4836 162.176 80.6556 162.272 80.8796 162.352C81.1036 162.424 81.4316 162.508 81.8636 162.604C82.6636 162.78 83.2316 162.996 83.5676 163.252C83.9116 163.508 84.0836 163.88 84.0836 164.368C84.0836 164.904 83.8716 165.336 83.4476 165.664C83.0236 165.992 82.4756 166.156 81.8036 166.156ZM89.7312 164.596C89.7872 164.54 89.8472 164.512 89.9112 164.512C89.9672 164.512 90.0192 164.536 90.0672 164.584L90.2232 164.728C90.2792 164.784 90.3072 164.844 90.3072 164.908C90.3072 164.956 90.2832 165.012 90.2352 165.076C89.8432 165.468 89.4632 165.748 89.0952 165.916C88.7272 166.076 88.3152 166.156 87.8592 166.156C87.2832 166.156 86.7832 166.028 86.3592 165.772C85.9352 165.516 85.6072 165.16 85.3752 164.704C85.1432 164.24 85.0272 163.704 85.0272 163.096C85.0272 162.48 85.1392 161.936 85.3632 161.464C85.5952 160.984 85.9192 160.612 86.3352 160.348C86.7512 160.076 87.2312 159.94 87.7752 159.94C88.5832 159.94 89.2192 160.192 89.6832 160.696C90.1472 161.2 90.3792 161.88 90.3792 162.736V162.88C90.3712 162.952 90.3432 163.008 90.2952 163.048C90.2552 163.088 90.1992 163.108 90.1272 163.108H85.8312C85.8552 163.78 86.0312 164.348 86.3592 164.812C86.6952 165.268 87.1952 165.496 87.8592 165.496C88.2192 165.496 88.5352 165.432 88.8072 165.304C89.0872 165.168 89.3952 164.932 89.7312 164.596ZM87.7752 160.6C87.2472 160.6 86.8112 160.764 86.4672 161.092C86.1312 161.412 85.9272 161.884 85.8552 162.508H89.5872C89.5712 161.924 89.4032 161.46 89.0832 161.116C88.7632 160.772 88.3272 160.6 87.7752 160.6ZM96.6278 166.156C96.1398 166.156 95.7078 166.088 95.3318 165.952C94.9638 165.808 94.5758 165.568 94.1678 165.232C94.0958 165.184 94.0598 165.128 94.0598 165.064C94.0598 165.008 94.0878 164.952 94.1438 164.896L94.2998 164.728C94.3478 164.664 94.4078 164.632 94.4798 164.632C94.5358 164.632 94.5878 164.656 94.6358 164.704C95.0198 165 95.3598 165.208 95.6558 165.328C95.9518 165.44 96.2758 165.496 96.6278 165.496C97.0678 165.496 97.4278 165.4 97.7078 165.208C97.9878 165.008 98.1278 164.74 98.1278 164.404C98.1278 164.068 97.9838 163.82 97.6958 163.66C97.4078 163.5 96.9638 163.356 96.3638 163.228C95.8358 163.116 95.4198 163 95.1158 162.88C94.8198 162.752 94.5998 162.592 94.4558 162.4C94.3118 162.208 94.2398 161.956 94.2398 161.644C94.2398 161.132 94.4478 160.72 94.8638 160.408C95.2798 160.096 95.8038 159.94 96.4358 159.94C96.8678 159.94 97.2518 159.996 97.5878 160.108C97.9318 160.212 98.2758 160.388 98.6198 160.636C98.6918 160.692 98.7278 160.752 98.7278 160.816C98.7278 160.856 98.7078 160.908 98.6678 160.972L98.5238 161.152C98.4838 161.216 98.4278 161.248 98.3558 161.248C98.2918 161.248 98.2358 161.228 98.1878 161.188C97.8598 160.956 97.5678 160.8 97.3118 160.72C97.0638 160.64 96.7798 160.6 96.4598 160.6C96.0198 160.6 95.6678 160.696 95.4038 160.888C95.1398 161.08 95.0078 161.324 95.0078 161.62C95.0078 161.804 95.0678 161.952 95.1878 162.064C95.3078 162.176 95.4798 162.272 95.7038 162.352C95.9278 162.424 96.2558 162.508 96.6878 162.604C97.4878 162.78 98.0558 162.996 98.3918 163.252C98.7358 163.508 98.9078 163.88 98.9078 164.368C98.9078 164.904 98.6958 165.336 98.2718 165.664C97.8478 165.992 97.2998 166.156 96.6278 166.156ZM104.555 164.596C104.611 164.54 104.671 164.512 104.735 164.512C104.791 164.512 104.843 164.536 104.891 164.584L105.047 164.728C105.103 164.784 105.131 164.844 105.131 164.908C105.131 164.956 105.107 165.012 105.059 165.076C104.667 165.468 104.287 165.748 103.919 165.916C103.551 166.076 103.139 166.156 102.683 166.156C102.107 166.156 101.607 166.028 101.183 165.772C100.759 165.516 100.431 165.16 100.199 164.704C99.9674 164.24 99.8514 163.704 99.8514 163.096C99.8514 162.48 99.9634 161.936 100.187 161.464C100.419 160.984 100.743 160.612 101.159 160.348C101.575 160.076 102.055 159.94 102.599 159.94C103.407 159.94 104.043 160.192 104.507 160.696C104.971 161.2 105.203 161.88 105.203 162.736V162.88C105.195 162.952 105.167 163.008 105.119 163.048C105.079 163.088 105.023 163.108 104.951 163.108H100.655C100.679 163.78 100.855 164.348 101.183 164.812C101.519 165.268 102.019 165.496 102.683 165.496C103.043 165.496 103.359 165.432 103.631 165.304C103.911 165.168 104.219 164.932 104.555 164.596ZM102.599 160.6C102.071 160.6 101.635 160.764 101.291 161.092C100.955 161.412 100.751 161.884 100.679 162.508H104.411C104.395 161.924 104.227 161.46 103.907 161.116C103.587 160.772 103.151 160.6 102.599 160.6ZM106.874 166C106.714 166 106.634 165.92 106.634 165.76V157.72C106.634 157.56 106.714 157.48 106.874 157.48H107.186C107.346 157.48 107.426 157.56 107.426 157.72V165.76C107.426 165.92 107.346 166 107.186 166H106.874ZM113.52 164.596C113.576 164.54 113.636 164.512 113.7 164.512C113.756 164.512 113.808 164.536 113.856 164.584L114.012 164.728C114.068 164.784 114.096 164.844 114.096 164.908C114.096 164.956 114.072 165.012 114.024 165.076C113.632 165.468 113.252 165.748 112.884 165.916C112.516 166.076 112.104 166.156 111.648 166.156C111.072 166.156 110.572 166.028 110.148 165.772C109.724 165.516 109.396 165.16 109.164 164.704C108.932 164.24 108.816 163.704 108.816 163.096C108.816 162.48 108.928 161.936 109.152 161.464C109.384 160.984 109.708 160.612 110.124 160.348C110.54 160.076 111.02 159.94 111.564 159.94C112.372 159.94 113.008 160.192 113.472 160.696C113.936 161.2 114.168 161.88 114.168 162.736V162.88C114.16 162.952 114.132 163.008 114.084 163.048C114.044 163.088 113.988 163.108 113.916 163.108H109.62C109.644 163.78 109.82 164.348 110.148 164.812C110.484 165.268 110.984 165.496 111.648 165.496C112.008 165.496 112.324 165.432 112.596 165.304C112.876 165.168 113.184 164.932 113.52 164.596ZM111.564 160.6C111.036 160.6 110.6 160.764 110.256 161.092C109.92 161.412 109.716 161.884 109.644 162.508H113.376C113.36 161.924 113.192 161.46 112.872 161.116C112.552 160.772 112.116 160.6 111.564 160.6ZM117.999 166.156C117.431 166.156 116.935 166.028 116.511 165.772C116.095 165.508 115.771 165.144 115.539 164.68C115.315 164.208 115.203 163.664 115.203 163.048C115.203 162.44 115.315 161.9 115.539 161.428C115.771 160.956 116.095 160.592 116.511 160.336C116.935 160.072 117.423 159.94 117.975 159.94C118.423 159.94 118.815 160.016 119.151 160.168C119.487 160.312 119.811 160.552 120.123 160.888C120.171 160.936 120.195 160.988 120.195 161.044C120.195 161.116 120.163 161.176 120.099 161.224L119.931 161.38C119.883 161.428 119.827 161.452 119.763 161.452C119.707 161.452 119.647 161.42 119.583 161.356C119.303 161.076 119.035 160.88 118.779 160.768C118.531 160.656 118.255 160.6 117.951 160.6C117.535 160.6 117.179 160.716 116.883 160.948C116.595 161.18 116.379 161.484 116.235 161.86C116.091 162.228 116.019 162.624 116.019 163.048C116.019 163.472 116.091 163.872 116.235 164.248C116.379 164.616 116.599 164.916 116.895 165.148C117.191 165.372 117.555 165.484 117.987 165.484C118.307 165.484 118.587 165.428 118.827 165.316C119.075 165.196 119.351 164.972 119.655 164.644C119.719 164.58 119.779 164.548 119.835 164.548C119.899 164.548 119.955 164.572 120.003 164.62L120.171 164.752C120.227 164.8 120.255 164.856 120.255 164.92C120.255 164.984 120.219 165.06 120.147 165.148C119.811 165.516 119.475 165.776 119.139 165.928C118.803 166.08 118.423 166.156 117.999 166.156ZM124.24 165.34C124.264 165.332 124.296 165.328 124.336 165.328C124.384 165.328 124.428 165.344 124.468 165.376C124.508 165.408 124.532 165.452 124.54 165.508L124.576 165.676C124.584 165.692 124.588 165.72 124.588 165.76C124.588 165.872 124.528 165.94 124.408 165.964C124.12 166.052 123.812 166.096 123.484 166.096C122.964 166.096 122.592 165.98 122.368 165.748C122.152 165.508 122.044 165.164 122.044 164.716V160.684H121.156C120.996 160.684 120.916 160.604 120.916 160.444V160.324C120.916 160.164 120.996 160.084 121.156 160.084H122.044V158.26C122.044 158.1 122.124 158.02 122.284 158.02H122.596C122.756 158.02 122.836 158.1 122.836 158.26V160.084H124.276C124.436 160.084 124.516 160.164 124.516 160.324V160.444C124.516 160.604 124.436 160.684 124.276 160.684H122.836V164.62C122.836 164.916 122.892 165.124 123.004 165.244C123.116 165.364 123.308 165.424 123.58 165.424C123.772 165.424 123.992 165.396 124.24 165.34ZM130.77 159.94C131.498 159.94 132.066 160.116 132.474 160.468C132.882 160.812 133.086 161.268 133.086 161.836V165.76C133.086 165.92 133.006 166 132.846 166H132.606C132.446 166 132.366 165.92 132.366 165.76V165.22C132.166 165.54 131.882 165.78 131.514 165.94C131.154 166.1 130.75 166.18 130.302 166.18C129.678 166.18 129.17 166.048 128.778 165.784C128.386 165.52 128.19 165.112 128.19 164.56C128.19 164.12 128.314 163.768 128.562 163.504C128.81 163.232 129.134 163.028 129.534 162.892C129.934 162.748 130.434 162.62 131.034 162.508L132.33 162.28V161.896C132.33 161.488 132.19 161.172 131.91 160.948C131.63 160.716 131.262 160.6 130.806 160.6C130.462 160.6 130.15 160.664 129.87 160.792C129.59 160.92 129.29 161.14 128.97 161.452C128.914 161.508 128.854 161.536 128.79 161.536C128.734 161.536 128.682 161.512 128.634 161.464L128.478 161.32C128.422 161.264 128.394 161.204 128.394 161.14C128.394 161.068 128.422 161.004 128.478 160.948C128.814 160.596 129.166 160.34 129.534 160.18C129.91 160.02 130.322 159.94 130.77 159.94ZM130.338 165.52C130.914 165.52 131.39 165.368 131.766 165.064C132.142 164.76 132.33 164.372 132.33 163.9V162.892L131.214 163.108C130.694 163.212 130.282 163.312 129.978 163.408C129.674 163.504 129.43 163.644 129.246 163.828C129.062 164.012 128.97 164.252 128.97 164.548C128.97 164.852 129.09 165.092 129.33 165.268C129.578 165.436 129.914 165.52 130.338 165.52ZM137.341 165.34C137.365 165.332 137.397 165.328 137.437 165.328C137.485 165.328 137.529 165.344 137.569 165.376C137.609 165.408 137.633 165.452 137.641 165.508L137.677 165.676C137.685 165.692 137.689 165.72 137.689 165.76C137.689 165.872 137.629 165.94 137.509 165.964C137.221 166.052 136.913 166.096 136.585 166.096C136.065 166.096 135.693 165.98 135.469 165.748C135.253 165.508 135.145 165.164 135.145 164.716V160.684H134.257C134.097 160.684 134.017 160.604 134.017 160.444V160.324C134.017 160.164 134.097 160.084 134.257 160.084H135.145V158.26C135.145 158.1 135.225 158.02 135.385 158.02H135.697C135.857 158.02 135.937 158.1 135.937 158.26V160.084H137.377C137.537 160.084 137.617 160.164 137.617 160.324V160.444C137.617 160.604 137.537 160.684 137.377 160.684H135.937V164.62C135.937 164.916 135.993 165.124 136.105 165.244C136.217 165.364 136.409 165.424 136.681 165.424C136.873 165.424 137.093 165.396 137.341 165.34ZM141.843 166C141.683 166 141.603 165.92 141.603 165.76V157.72C141.603 157.56 141.683 157.48 141.843 157.48H142.155C142.315 157.48 142.395 157.56 142.395 157.72V165.76C142.395 165.92 142.315 166 142.155 166H141.843ZM148.489 164.596C148.545 164.54 148.605 164.512 148.669 164.512C148.725 164.512 148.777 164.536 148.825 164.584L148.981 164.728C149.037 164.784 149.065 164.844 149.065 164.908C149.065 164.956 149.041 165.012 148.993 165.076C148.601 165.468 148.221 165.748 147.853 165.916C147.485 166.076 147.073 166.156 146.617 166.156C146.041 166.156 145.541 166.028 145.117 165.772C144.693 165.516 144.365 165.16 144.133 164.704C143.901 164.24 143.785 163.704 143.785 163.096C143.785 162.48 143.897 161.936 144.121 161.464C144.353 160.984 144.677 160.612 145.093 160.348C145.509 160.076 145.989 159.94 146.533 159.94C147.341 159.94 147.977 160.192 148.441 160.696C148.905 161.2 149.137 161.88 149.137 162.736V162.88C149.129 162.952 149.101 163.008 149.053 163.048C149.013 163.088 148.957 163.108 148.885 163.108H144.589C144.613 163.78 144.789 164.348 145.117 164.812C145.453 165.268 145.953 165.496 146.617 165.496C146.977 165.496 147.293 165.432 147.565 165.304C147.845 165.168 148.153 164.932 148.489 164.596ZM146.533 160.6C146.005 160.6 145.569 160.764 145.225 161.092C144.889 161.412 144.685 161.884 144.613 162.508H148.345C148.329 161.924 148.161 161.46 147.841 161.116C147.521 160.772 147.085 160.6 146.533 160.6ZM152.73 159.94C153.459 159.94 154.027 160.116 154.435 160.468C154.843 160.812 155.047 161.268 155.047 161.836V165.76C155.047 165.92 154.967 166 154.807 166H154.567C154.407 166 154.327 165.92 154.327 165.76V165.22C154.127 165.54 153.843 165.78 153.475 165.94C153.115 166.1 152.711 166.18 152.263 166.18C151.639 166.18 151.131 166.048 150.739 165.784C150.347 165.52 150.151 165.112 150.151 164.56C150.151 164.12 150.275 163.768 150.523 163.504C150.771 163.232 151.095 163.028 151.495 162.892C151.895 162.748 152.395 162.62 152.995 162.508L154.291 162.28V161.896C154.291 161.488 154.151 161.172 153.871 160.948C153.591 160.716 153.223 160.6 152.767 160.6C152.423 160.6 152.111 160.664 151.831 160.792C151.551 160.92 151.251 161.14 150.931 161.452C150.875 161.508 150.815 161.536 150.751 161.536C150.695 161.536 150.643 161.512 150.595 161.464L150.439 161.32C150.383 161.264 150.354 161.204 150.354 161.14C150.354 161.068 150.383 161.004 150.439 160.948C150.775 160.596 151.127 160.34 151.495 160.18C151.871 160.02 152.283 159.94 152.73 159.94ZM152.299 165.52C152.875 165.52 153.351 165.368 153.727 165.064C154.103 164.76 154.291 164.372 154.291 163.9V162.892L153.175 163.108C152.655 163.212 152.243 163.312 151.939 163.408C151.635 163.504 151.391 163.644 151.207 163.828C151.023 164.012 150.931 164.252 150.931 164.548C150.931 164.852 151.051 165.092 151.291 165.268C151.539 165.436 151.875 165.52 152.299 165.52ZM158.866 166.156C158.378 166.156 157.946 166.088 157.57 165.952C157.202 165.808 156.814 165.568 156.406 165.232C156.334 165.184 156.298 165.128 156.298 165.064C156.298 165.008 156.326 164.952 156.382 164.896L156.538 164.728C156.586 164.664 156.646 164.632 156.718 164.632C156.774 164.632 156.826 164.656 156.874 164.704C157.258 165 157.598 165.208 157.894 165.328C158.19 165.44 158.514 165.496 158.866 165.496C159.306 165.496 159.666 165.4 159.946 165.208C160.226 165.008 160.366 164.74 160.366 164.404C160.366 164.068 160.222 163.82 159.934 163.66C159.646 163.5 159.202 163.356 158.602 163.228C158.074 163.116 157.658 163 157.354 162.88C157.058 162.752 156.838 162.592 156.694 162.4C156.55 162.208 156.478 161.956 156.478 161.644C156.478 161.132 156.686 160.72 157.102 160.408C157.518 160.096 158.042 159.94 158.674 159.94C159.106 159.94 159.49 159.996 159.826 160.108C160.17 160.212 160.514 160.388 160.858 160.636C160.93 160.692 160.966 160.752 160.966 160.816C160.966 160.856 160.946 160.908 160.906 160.972L160.762 161.152C160.722 161.216 160.666 161.248 160.594 161.248C160.53 161.248 160.474 161.228 160.426 161.188C160.098 160.956 159.806 160.8 159.55 160.72C159.302 160.64 159.018 160.6 158.698 160.6C158.258 160.6 157.906 160.696 157.642 160.888C157.378 161.08 157.246 161.324 157.246 161.62C157.246 161.804 157.306 161.952 157.426 162.064C157.546 162.176 157.718 162.272 157.942 162.352C158.166 162.424 158.494 162.508 158.926 162.604C159.726 162.78 160.294 162.996 160.63 163.252C160.974 163.508 161.146 163.88 161.146 164.368C161.146 164.904 160.934 165.336 160.51 165.664C160.086 165.992 159.538 166.156 158.866 166.156ZM165.126 165.34C165.15 165.332 165.182 165.328 165.222 165.328C165.27 165.328 165.314 165.344 165.354 165.376C165.394 165.408 165.418 165.452 165.426 165.508L165.462 165.676C165.47 165.692 165.474 165.72 165.474 165.76C165.474 165.872 165.414 165.94 165.294 165.964C165.006 166.052 164.698 166.096 164.37 166.096C163.85 166.096 163.478 165.98 163.254 165.748C163.038 165.508 162.93 165.164 162.93 164.716V160.684H162.042C161.882 160.684 161.802 160.604 161.802 160.444V160.324C161.802 160.164 161.882 160.084 162.042 160.084H162.93V158.26C162.93 158.1 163.01 158.02 163.17 158.02H163.482C163.642 158.02 163.722 158.1 163.722 158.26V160.084H165.162C165.322 160.084 165.402 160.164 165.402 160.324V160.444C165.402 160.604 165.322 160.684 165.162 160.684H163.722V164.62C163.722 164.916 163.778 165.124 163.89 165.244C164.002 165.364 164.194 165.424 164.466 165.424C164.658 165.424 164.878 165.396 165.126 165.34ZM171.824 166.156C171.272 166.156 170.78 166.024 170.348 165.76C169.916 165.496 169.58 165.132 169.34 164.668C169.1 164.196 168.98 163.656 168.98 163.048C168.98 162.44 169.1 161.904 169.34 161.44C169.58 160.968 169.916 160.6 170.348 160.336C170.78 160.072 171.272 159.94 171.824 159.94C172.376 159.94 172.868 160.072 173.3 160.336C173.732 160.6 174.068 160.968 174.308 161.44C174.548 161.904 174.668 162.44 174.668 163.048C174.668 163.656 174.548 164.196 174.308 164.668C174.068 165.132 173.732 165.496 173.3 165.76C172.868 166.024 172.376 166.156 171.824 166.156ZM171.824 165.496C172.44 165.496 172.932 165.272 173.3 164.824C173.668 164.368 173.852 163.776 173.852 163.048C173.852 162.32 173.668 161.732 173.3 161.284C172.932 160.828 172.44 160.6 171.824 160.6C171.208 160.6 170.716 160.828 170.348 161.284C169.98 161.732 169.796 162.32 169.796 163.048C169.796 163.776 169.98 164.368 170.348 164.824C170.716 165.272 171.208 165.496 171.824 165.496ZM178.684 159.94C179.38 159.94 179.904 160.132 180.256 160.516C180.616 160.9 180.796 161.38 180.796 161.956V165.76C180.796 165.92 180.716 166 180.556 166H180.244C180.084 166 180.004 165.92 180.004 165.76V162.22C180.004 161.692 179.876 161.292 179.62 161.02C179.364 160.748 178.996 160.612 178.516 160.612C178.212 160.612 177.932 160.688 177.676 160.84C177.42 160.984 177.216 161.184 177.064 161.44C176.912 161.696 176.836 161.976 176.836 162.28V165.76C176.836 165.92 176.756 166 176.596 166H176.284C176.124 166 176.044 165.92 176.044 165.76V160.324C176.044 160.164 176.124 160.084 176.284 160.084H176.548C176.708 160.084 176.788 160.164 176.788 160.324V160.9C176.988 160.58 177.252 160.34 177.58 160.18C177.908 160.02 178.276 159.94 178.684 159.94ZM186.856 164.596C186.912 164.54 186.972 164.512 187.036 164.512C187.092 164.512 187.144 164.536 187.192 164.584L187.348 164.728C187.404 164.784 187.432 164.844 187.432 164.908C187.432 164.956 187.408 165.012 187.36 165.076C186.968 165.468 186.588 165.748 186.22 165.916C185.852 166.076 185.44 166.156 184.984 166.156C184.408 166.156 183.908 166.028 183.484 165.772C183.06 165.516 182.732 165.16 182.5 164.704C182.268 164.24 182.152 163.704 182.152 163.096C182.152 162.48 182.264 161.936 182.488 161.464C182.72 160.984 183.044 160.612 183.46 160.348C183.876 160.076 184.356 159.94 184.9 159.94C185.708 159.94 186.344 160.192 186.808 160.696C187.272 161.2 187.504 161.88 187.504 162.736V162.88C187.496 162.952 187.468 163.008 187.42 163.048C187.38 163.088 187.324 163.108 187.252 163.108H182.956C182.98 163.78 183.156 164.348 183.484 164.812C183.82 165.268 184.32 165.496 184.984 165.496C185.344 165.496 185.66 165.432 185.932 165.304C186.212 165.168 186.52 164.932 186.856 164.596ZM184.9 160.6C184.372 160.6 183.936 160.764 183.592 161.092C183.256 161.412 183.052 161.884 182.98 162.508H186.712C186.696 161.924 186.528 161.46 186.208 161.116C185.888 160.772 185.452 160.6 184.9 160.6ZM194.137 166.156C193.585 166.156 193.093 166.024 192.661 165.76C192.229 165.496 191.893 165.132 191.653 164.668C191.413 164.196 191.293 163.656 191.293 163.048C191.293 162.44 191.413 161.904 191.653 161.44C191.893 160.968 192.229 160.6 192.661 160.336C193.093 160.072 193.585 159.94 194.137 159.94C194.689 159.94 195.181 160.072 195.613 160.336C196.045 160.6 196.381 160.968 196.621 161.44C196.861 161.904 196.981 162.44 196.981 163.048C196.981 163.656 196.861 164.196 196.621 164.668C196.381 165.132 196.045 165.496 195.613 165.76C195.181 166.024 194.689 166.156 194.137 166.156ZM194.137 165.496C194.753 165.496 195.245 165.272 195.613 164.824C195.981 164.368 196.165 163.776 196.165 163.048C196.165 162.32 195.981 161.732 195.613 161.284C195.245 160.828 194.753 160.6 194.137 160.6C193.521 160.6 193.029 160.828 192.661 161.284C192.293 161.732 192.109 162.32 192.109 163.048C192.109 163.776 192.293 164.368 192.661 164.824C193.029 165.272 193.521 165.496 194.137 165.496ZM200.496 157.996C200.136 157.996 199.88 158.092 199.728 158.284C199.576 158.468 199.5 158.78 199.5 159.22V160.084H200.82C200.98 160.084 201.06 160.164 201.06 160.324V160.444C201.06 160.604 200.98 160.684 200.82 160.684H199.5V165.76C199.5 165.92 199.42 166 199.26 166H198.948C198.788 166 198.708 165.92 198.708 165.76V160.684H197.82C197.66 160.684 197.58 160.604 197.58 160.444V160.324C197.58 160.164 197.66 160.084 197.82 160.084H198.708V159.088C198.708 158.536 198.852 158.104 199.14 157.792C199.436 157.48 199.856 157.324 200.4 157.324C200.704 157.324 201.016 157.368 201.336 157.456C201.488 157.504 201.544 157.604 201.504 157.756L201.456 157.924C201.416 158.036 201.336 158.092 201.216 158.092C201.192 158.092 201.14 158.084 201.06 158.068C200.884 158.02 200.696 157.996 200.496 157.996ZM207.654 165.34C207.678 165.332 207.71 165.328 207.75 165.328C207.798 165.328 207.842 165.344 207.882 165.376C207.922 165.408 207.946 165.452 207.954 165.508L207.99 165.676C207.998 165.692 208.002 165.72 208.002 165.76C208.002 165.872 207.942 165.94 207.822 165.964C207.534 166.052 207.226 166.096 206.898 166.096C206.378 166.096 206.006 165.98 205.782 165.748C205.566 165.508 205.458 165.164 205.458 164.716V160.684H204.57C204.41 160.684 204.33 160.604 204.33 160.444V160.324C204.33 160.164 204.41 160.084 204.57 160.084H205.458V158.26C205.458 158.1 205.538 158.02 205.698 158.02H206.01C206.17 158.02 206.25 158.1 206.25 158.26V160.084H207.69C207.85 160.084 207.93 160.164 207.93 160.324V160.444C207.93 160.604 207.85 160.684 207.69 160.684H206.25V164.62C206.25 164.916 206.306 165.124 206.418 165.244C206.53 165.364 206.722 165.424 206.994 165.424C207.186 165.424 207.406 165.396 207.654 165.34ZM211.778 159.94C212.466 159.94 212.99 160.136 213.35 160.528C213.71 160.912 213.89 161.388 213.89 161.956V165.76C213.89 165.92 213.81 166 213.65 166H213.338C213.178 166 213.098 165.92 213.098 165.76V162.22C213.098 161.692 212.97 161.292 212.714 161.02C212.458 160.748 212.09 160.612 211.61 160.612C211.306 160.612 211.026 160.688 210.77 160.84C210.514 160.984 210.31 161.184 210.158 161.44C210.006 161.696 209.93 161.976 209.93 162.28V165.76C209.93 165.92 209.85 166 209.69 166H209.378C209.218 166 209.138 165.92 209.138 165.76V157.72C209.138 157.56 209.218 157.48 209.378 157.48H209.69C209.85 157.48 209.93 157.56 209.93 157.72V160.852C210.122 160.548 210.378 160.32 210.698 160.168C211.026 160.016 211.386 159.94 211.778 159.94ZM219.95 164.596C220.006 164.54 220.066 164.512 220.13 164.512C220.186 164.512 220.238 164.536 220.286 164.584L220.442 164.728C220.498 164.784 220.526 164.844 220.526 164.908C220.526 164.956 220.502 165.012 220.454 165.076C220.062 165.468 219.682 165.748 219.314 165.916C218.946 166.076 218.534 166.156 218.078 166.156C217.502 166.156 217.002 166.028 216.578 165.772C216.154 165.516 215.826 165.16 215.594 164.704C215.362 164.24 215.246 163.704 215.246 163.096C215.246 162.48 215.358 161.936 215.582 161.464C215.814 160.984 216.138 160.612 216.554 160.348C216.97 160.076 217.45 159.94 217.994 159.94C218.802 159.94 219.438 160.192 219.902 160.696C220.366 161.2 220.598 161.88 220.598 162.736V162.88C220.59 162.952 220.562 163.008 220.514 163.048C220.474 163.088 220.418 163.108 220.346 163.108H216.05C216.074 163.78 216.25 164.348 216.578 164.812C216.914 165.268 217.414 165.496 218.078 165.496C218.438 165.496 218.754 165.432 219.026 165.304C219.306 165.168 219.614 164.932 219.95 164.596ZM217.994 160.6C217.466 160.6 217.03 160.764 216.686 161.092C216.35 161.412 216.146 161.884 216.074 162.508H219.806C219.79 161.924 219.622 161.46 219.302 161.116C218.982 160.772 218.546 160.6 217.994 160.6ZM227.231 166.156C226.679 166.156 226.187 166.024 225.755 165.76C225.323 165.496 224.987 165.132 224.747 164.668C224.507 164.196 224.387 163.656 224.387 163.048C224.387 162.44 224.507 161.904 224.747 161.44C224.987 160.968 225.323 160.6 225.755 160.336C226.187 160.072 226.679 159.94 227.231 159.94C227.783 159.94 228.275 160.072 228.707 160.336C229.139 160.6 229.475 160.968 229.715 161.44C229.955 161.904 230.075 162.44 230.075 163.048C230.075 163.656 229.955 164.196 229.715 164.668C229.475 165.132 229.139 165.496 228.707 165.76C228.275 166.024 227.783 166.156 227.231 166.156ZM227.231 165.496C227.847 165.496 228.339 165.272 228.707 164.824C229.075 164.368 229.259 163.776 229.259 163.048C229.259 162.32 229.075 161.732 228.707 161.284C228.339 160.828 227.847 160.6 227.231 160.6C226.615 160.6 226.123 160.828 225.755 161.284C225.387 161.732 225.203 162.32 225.203 163.048C225.203 163.776 225.387 164.368 225.755 164.824C226.123 165.272 226.615 165.496 227.231 165.496ZM234.283 159.952C234.779 159.952 235.223 160.084 235.615 160.348C236.015 160.604 236.327 160.968 236.551 161.44C236.775 161.904 236.887 162.436 236.887 163.036C236.887 163.644 236.775 164.184 236.551 164.656C236.327 165.128 236.019 165.496 235.627 165.76C235.235 166.016 234.787 166.144 234.283 166.144C233.355 166.144 232.675 165.804 232.243 165.124V167.968C232.243 168.128 232.163 168.208 232.003 168.208H231.691C231.531 168.208 231.451 168.128 231.451 167.968V160.324C231.451 160.164 231.531 160.084 231.691 160.084H231.955C232.115 160.084 232.195 160.164 232.195 160.324V161.08C232.411 160.712 232.695 160.432 233.047 160.24C233.399 160.048 233.811 159.952 234.283 159.952ZM234.223 165.472C234.783 165.472 235.231 165.248 235.567 164.8C235.903 164.352 236.071 163.764 236.071 163.036C236.071 162.316 235.903 161.736 235.567 161.296C235.231 160.848 234.783 160.624 234.223 160.624C233.623 160.624 233.135 160.84 232.759 161.272C232.391 161.696 232.207 162.284 232.207 163.036C232.207 163.788 232.395 164.384 232.771 164.824C233.147 165.256 233.631 165.472 234.223 165.472ZM240.782 165.34C240.806 165.332 240.838 165.328 240.878 165.328C240.926 165.328 240.97 165.344 241.01 165.376C241.05 165.408 241.074 165.452 241.082 165.508L241.118 165.676C241.126 165.692 241.13 165.72 241.13 165.76C241.13 165.872 241.07 165.94 240.95 165.964C240.662 166.052 240.354 166.096 240.026 166.096C239.506 166.096 239.134 165.98 238.91 165.748C238.694 165.508 238.586 165.164 238.586 164.716V160.684H237.698C237.538 160.684 237.458 160.604 237.458 160.444V160.324C237.458 160.164 237.538 160.084 237.698 160.084H238.586V158.26C238.586 158.1 238.666 158.02 238.826 158.02H239.138C239.298 158.02 239.378 158.1 239.378 158.26V160.084H240.818C240.978 160.084 241.058 160.164 241.058 160.324V160.444C241.058 160.604 240.978 160.684 240.818 160.684H239.378V164.62C239.378 164.916 239.434 165.124 239.546 165.244C239.658 165.364 239.85 165.424 240.122 165.424C240.314 165.424 240.534 165.396 240.782 165.34ZM242.663 158.584C242.503 158.584 242.367 158.528 242.255 158.416C242.151 158.304 242.099 158.168 242.099 158.008C242.099 157.848 242.151 157.716 242.255 157.612C242.367 157.508 242.503 157.456 242.663 157.456C242.831 157.456 242.967 157.508 243.071 157.612C243.183 157.716 243.239 157.848 243.239 158.008C243.239 158.168 243.183 158.304 243.071 158.416C242.967 158.528 242.831 158.584 242.663 158.584ZM242.507 166C242.347 166 242.267 165.92 242.267 165.76V160.324C242.267 160.164 242.347 160.084 242.507 160.084H242.819C242.979 160.084 243.059 160.164 243.059 160.324V165.76C243.059 165.92 242.979 166 242.819 166H242.507ZM247.27 166.156C246.718 166.156 246.226 166.024 245.794 165.76C245.362 165.496 245.026 165.132 244.786 164.668C244.546 164.196 244.426 163.656 244.426 163.048C244.426 162.44 244.546 161.904 244.786 161.44C245.026 160.968 245.362 160.6 245.794 160.336C246.226 160.072 246.718 159.94 247.27 159.94C247.822 159.94 248.314 160.072 248.746 160.336C249.178 160.6 249.514 160.968 249.754 161.44C249.994 161.904 250.114 162.44 250.114 163.048C250.114 163.656 249.994 164.196 249.754 164.668C249.514 165.132 249.178 165.496 248.746 165.76C248.314 166.024 247.822 166.156 247.27 166.156ZM247.27 165.496C247.886 165.496 248.378 165.272 248.746 164.824C249.114 164.368 249.298 163.776 249.298 163.048C249.298 162.32 249.114 161.732 248.746 161.284C248.378 160.828 247.886 160.6 247.27 160.6C246.654 160.6 246.162 160.828 245.794 161.284C245.426 161.732 245.242 162.32 245.242 163.048C245.242 163.776 245.426 164.368 245.794 164.824C246.162 165.272 246.654 165.496 247.27 165.496ZM254.13 159.94C254.826 159.94 255.35 160.132 255.702 160.516C256.062 160.9 256.242 161.38 256.242 161.956V165.76C256.242 165.92 256.162 166 256.002 166H255.69C255.53 166 255.45 165.92 255.45 165.76V162.22C255.45 161.692 255.322 161.292 255.066 161.02C254.81 160.748 254.442 160.612 253.962 160.612C253.658 160.612 253.378 160.688 253.122 160.84C252.866 160.984 252.662 161.184 252.51 161.44C252.358 161.696 252.282 161.976 252.282 162.28V165.76C252.282 165.92 252.202 166 252.042 166H251.73C251.57 166 251.49 165.92 251.49 165.76V160.324C251.49 160.164 251.57 160.084 251.73 160.084H251.994C252.154 160.084 252.234 160.164 252.234 160.324V160.9C252.434 160.58 252.698 160.34 253.026 160.18C253.354 160.02 253.722 159.94 254.13 159.94ZM260.057 166.156C259.569 166.156 259.137 166.088 258.761 165.952C258.393 165.808 258.005 165.568 257.597 165.232C257.525 165.184 257.489 165.128 257.489 165.064C257.489 165.008 257.517 164.952 257.573 164.896L257.729 164.728C257.777 164.664 257.837 164.632 257.909 164.632C257.965 164.632 258.017 164.656 258.065 164.704C258.449 165 258.789 165.208 259.085 165.328C259.381 165.44 259.705 165.496 260.057 165.496C260.497 165.496 260.857 165.4 261.137 165.208C261.417 165.008 261.557 164.74 261.557 164.404C261.557 164.068 261.413 163.82 261.125 163.66C260.837 163.5 260.393 163.356 259.793 163.228C259.265 163.116 258.849 163 258.545 162.88C258.249 162.752 258.029 162.592 257.885 162.4C257.741 162.208 257.669 161.956 257.669 161.644C257.669 161.132 257.877 160.72 258.293 160.408C258.709 160.096 259.233 159.94 259.865 159.94C260.297 159.94 260.681 159.996 261.017 160.108C261.361 160.212 261.705 160.388 262.049 160.636C262.121 160.692 262.157 160.752 262.157 160.816C262.157 160.856 262.137 160.908 262.097 160.972L261.953 161.152C261.913 161.216 261.857 161.248 261.785 161.248C261.721 161.248 261.665 161.228 261.617 161.188C261.289 160.956 260.997 160.8 260.741 160.72C260.493 160.64 260.209 160.6 259.889 160.6C259.449 160.6 259.097 160.696 258.833 160.888C258.569 161.08 258.437 161.324 258.437 161.62C258.437 161.804 258.497 161.952 258.617 162.064C258.737 162.176 258.909 162.272 259.133 162.352C259.357 162.424 259.685 162.508 260.117 162.604C260.917 162.78 261.485 162.996 261.821 163.252C262.165 163.508 262.337 163.88 262.337 164.368C262.337 164.904 262.125 165.336 261.701 165.664C261.277 165.992 260.729 166.156 260.057 166.156ZM268.723 159.94C269.451 159.94 270.019 160.116 270.427 160.468C270.835 160.812 271.039 161.268 271.039 161.836V165.76C271.039 165.92 270.959 166 270.799 166H270.559C270.399 166 270.319 165.92 270.319 165.76V165.22C270.119 165.54 269.835 165.78 269.467 165.94C269.107 166.1 268.703 166.18 268.255 166.18C267.631 166.18 267.123 166.048 266.731 165.784C266.339 165.52 266.143 165.112 266.143 164.56C266.143 164.12 266.267 163.768 266.515 163.504C266.763 163.232 267.087 163.028 267.487 162.892C267.887 162.748 268.387 162.62 268.987 162.508L270.283 162.28V161.896C270.283 161.488 270.143 161.172 269.863 160.948C269.583 160.716 269.215 160.6 268.759 160.6C268.415 160.6 268.103 160.664 267.823 160.792C267.543 160.92 267.243 161.14 266.923 161.452C266.867 161.508 266.807 161.536 266.743 161.536C266.687 161.536 266.635 161.512 266.587 161.464L266.431 161.32C266.375 161.264 266.347 161.204 266.347 161.14C266.347 161.068 266.375 161.004 266.431 160.948C266.767 160.596 267.119 160.34 267.487 160.18C267.863 160.02 268.275 159.94 268.723 159.94ZM268.291 165.52C268.867 165.52 269.343 165.368 269.719 165.064C270.095 164.76 270.283 164.372 270.283 163.9V162.892L269.167 163.108C268.647 163.212 268.235 163.312 267.931 163.408C267.627 163.504 267.383 163.644 267.199 163.828C267.015 164.012 266.923 164.252 266.923 164.548C266.923 164.852 267.043 165.092 267.283 165.268C267.531 165.436 267.867 165.52 268.291 165.52ZM275.626 159.952C276.13 159.952 276.578 160.084 276.97 160.348C277.37 160.604 277.678 160.968 277.894 161.44C278.118 161.904 278.23 162.44 278.23 163.048C278.23 163.656 278.118 164.196 277.894 164.668C277.67 165.132 277.358 165.496 276.958 165.76C276.566 166.016 276.122 166.144 275.626 166.144C274.674 166.144 273.978 165.776 273.538 165.04V165.76C273.538 165.92 273.458 166 273.298 166H273.034C272.874 166 272.794 165.92 272.794 165.76V157.708C272.794 157.548 272.874 157.468 273.034 157.468H273.346C273.506 157.468 273.586 157.548 273.586 157.708V161.02C274.026 160.308 274.706 159.952 275.626 159.952ZM275.566 165.472C276.118 165.472 276.562 165.248 276.898 164.8C277.242 164.352 277.414 163.768 277.414 163.048C277.414 162.328 277.242 161.744 276.898 161.296C276.562 160.848 276.118 160.624 275.566 160.624C274.974 160.624 274.49 160.84 274.114 161.272C273.738 161.704 273.55 162.296 273.55 163.048C273.55 163.808 273.734 164.404 274.102 164.836C274.478 165.26 274.966 165.472 275.566 165.472ZM282.156 166.156C281.604 166.156 281.112 166.024 280.68 165.76C280.248 165.496 279.912 165.132 279.672 164.668C279.432 164.196 279.312 163.656 279.312 163.048C279.312 162.44 279.432 161.904 279.672 161.44C279.912 160.968 280.248 160.6 280.68 160.336C281.112 160.072 281.604 159.94 282.156 159.94C282.708 159.94 283.2 160.072 283.632 160.336C284.064 160.6 284.4 160.968 284.64 161.44C284.88 161.904 285 162.44 285 163.048C285 163.656 284.88 164.196 284.64 164.668C284.4 165.132 284.064 165.496 283.632 165.76C283.2 166.024 282.708 166.156 282.156 166.156ZM282.156 165.496C282.772 165.496 283.264 165.272 283.632 164.824C284 164.368 284.184 163.776 284.184 163.048C284.184 162.32 284 161.732 283.632 161.284C283.264 160.828 282.772 160.6 282.156 160.6C281.54 160.6 281.048 160.828 280.68 161.284C280.312 161.732 280.128 162.32 280.128 163.048C280.128 163.776 280.312 164.368 280.68 164.824C281.048 165.272 281.54 165.496 282.156 165.496ZM289.942 160.276C289.99 160.148 290.082 160.084 290.218 160.084H290.53C290.594 160.084 290.646 160.1 290.686 160.132C290.726 160.164 290.746 160.208 290.746 160.264L290.722 160.36L288.814 165.808C288.766 165.936 288.674 166 288.538 166H287.902C287.766 166 287.674 165.936 287.626 165.808L285.73 160.36L285.706 160.264C285.706 160.208 285.726 160.164 285.766 160.132C285.806 160.1 285.858 160.084 285.922 160.084H286.246C286.382 160.084 286.474 160.148 286.522 160.276L287.254 162.388C287.558 163.268 287.882 164.28 288.226 165.424C288.242 165.376 288.286 165.24 288.358 165.016C288.686 163.936 288.97 163.06 289.21 162.388L289.942 160.276ZM296.157 164.596C296.213 164.54 296.273 164.512 296.337 164.512C296.393 164.512 296.445 164.536 296.493 164.584L296.649 164.728C296.705 164.784 296.733 164.844 296.733 164.908C296.733 164.956 296.709 165.012 296.661 165.076C296.269 165.468 295.889 165.748 295.521 165.916C295.153 166.076 294.741 166.156 294.285 166.156C293.709 166.156 293.209 166.028 292.785 165.772C292.361 165.516 292.033 165.16 291.801 164.704C291.569 164.24 291.453 163.704 291.453 163.096C291.453 162.48 291.565 161.936 291.789 161.464C292.021 160.984 292.345 160.612 292.761 160.348C293.177 160.076 293.657 159.94 294.201 159.94C295.009 159.94 295.645 160.192 296.109 160.696C296.573 161.2 296.805 161.88 296.805 162.736V162.88C296.797 162.952 296.769 163.008 296.721 163.048C296.681 163.088 296.625 163.108 296.553 163.108H292.257C292.281 163.78 292.457 164.348 292.785 164.812C293.121 165.268 293.621 165.496 294.285 165.496C294.645 165.496 294.961 165.432 295.233 165.304C295.513 165.168 295.821 164.932 296.157 164.596ZM294.201 160.6C293.673 160.6 293.237 160.764 292.893 161.092C292.557 161.412 292.353 161.884 292.281 162.508H296.013C295.997 161.924 295.829 161.46 295.509 161.116C295.189 160.772 294.753 160.6 294.201 160.6Z" fill="#D91F0A"/>
</svg>
