<svg width="344" height="184" viewBox="0 0 344 184" fill="none" xmlns="http://www.w3.org/2000/svg">
<rect width="344" height="184" fill="#F5F5F5"/>
<rect x="84.5" y="44.5" width="15" height="15" rx="1.5" fill="#0063FB" stroke="#0063FB"/>
<path d="M91.2264 53.5671L94.9035 49.1679C95.1789 48.8383 95.6694 48.7945 95.999 49.0699C96.3286 49.3454 96.3725 49.8359 96.097 50.1655L91.8713 55.2211C91.5771 55.573 91.0438 55.5953 90.7213 55.269L88.3359 52.8555C88.034 52.55 88.0368 52.0575 88.3424 51.7556C88.6479 51.4536 89.1403 51.4565 89.4423 51.762L91.2264 53.5671Z" fill="white"/>
<path d="M115.712 51.984C116.373 52.1867 116.896 52.528 117.28 53.008C117.675 53.488 117.872 54.0907 117.872 54.816C117.872 55.7867 117.557 56.56 116.928 57.136C116.299 57.712 115.456 58 114.4 58H109.696C109.483 58 109.376 57.8933 109.376 57.68V46.96C109.376 46.7467 109.483 46.64 109.696 46.64H114.208C115.189 46.64 115.979 46.8853 116.576 47.376C117.173 47.8667 117.472 48.576 117.472 49.504C117.472 50.1227 117.312 50.6453 116.992 51.072C116.683 51.4987 116.256 51.8027 115.712 51.984ZM110.512 51.568H114.016C114.752 51.568 115.328 51.392 115.744 51.04C116.16 50.6773 116.368 50.1707 116.368 49.52C116.368 48.9013 116.16 48.4267 115.744 48.096C115.339 47.7547 114.763 47.584 114.016 47.584H110.512V51.568ZM114.096 57.056C114.96 57.056 115.616 56.8533 116.064 56.448C116.523 56.0427 116.752 55.4933 116.752 54.8C116.752 54.096 116.517 53.536 116.048 53.12C115.589 52.704 114.944 52.496 114.112 52.496H110.512V57.056H114.096ZM122.833 49.92C123.804 49.92 124.561 50.1547 125.105 50.624C125.649 51.0827 125.921 51.6907 125.921 52.448V57.68C125.921 57.8933 125.815 58 125.601 58H125.281C125.068 58 124.961 57.8933 124.961 57.68V56.96C124.695 57.3867 124.316 57.7067 123.825 57.92C123.345 58.1333 122.807 58.24 122.209 58.24C121.377 58.24 120.7 58.064 120.177 57.712C119.655 57.36 119.393 56.816 119.393 56.08C119.393 55.4933 119.559 55.024 119.889 54.672C120.22 54.3093 120.652 54.0373 121.185 53.856C121.719 53.664 122.385 53.4933 123.185 53.344L124.913 53.04V52.528C124.913 51.984 124.727 51.5627 124.353 51.264C123.98 50.9547 123.489 50.8 122.881 50.8C122.423 50.8 122.007 50.8853 121.633 51.056C121.26 51.2267 120.86 51.52 120.433 51.936C120.359 52.0107 120.279 52.048 120.193 52.048C120.119 52.048 120.049 52.016 119.985 51.952L119.777 51.76C119.703 51.6853 119.665 51.6053 119.665 51.52C119.665 51.424 119.703 51.3387 119.777 51.264C120.225 50.7947 120.695 50.4533 121.185 50.24C121.687 50.0267 122.236 49.92 122.833 49.92ZM122.257 57.36C123.025 57.36 123.66 57.1573 124.161 56.752C124.663 56.3467 124.913 55.8293 124.913 55.2V53.856L123.425 54.144C122.732 54.2827 122.183 54.416 121.777 54.544C121.372 54.672 121.047 54.8587 120.801 55.104C120.556 55.3493 120.433 55.6693 120.433 56.064C120.433 56.4693 120.593 56.7893 120.913 57.024C121.244 57.248 121.692 57.36 122.257 57.36ZM128.598 58C128.385 58 128.278 57.8933 128.278 57.68V46.96C128.278 46.7467 128.385 46.64 128.598 46.64H129.014C129.227 46.64 129.334 46.7467 129.334 46.96V57.68C129.334 57.8933 129.227 58 129.014 58H128.598ZM134.915 58.208C134.158 58.208 133.497 58.0373 132.931 57.696C132.377 57.344 131.945 56.8587 131.635 56.24C131.337 55.6107 131.187 54.8853 131.187 54.064C131.187 53.2533 131.337 52.5333 131.635 51.904C131.945 51.2747 132.377 50.7893 132.931 50.448C133.497 50.096 134.147 49.92 134.883 49.92C135.481 49.92 136.003 50.0213 136.451 50.224C136.899 50.416 137.331 50.736 137.747 51.184C137.811 51.248 137.843 51.3173 137.843 51.392C137.843 51.488 137.801 51.568 137.715 51.632L137.491 51.84C137.427 51.904 137.353 51.936 137.267 51.936C137.193 51.936 137.113 51.8933 137.027 51.808C136.654 51.4347 136.297 51.1733 135.955 51.024C135.625 50.8747 135.257 50.8 134.851 50.8C134.297 50.8 133.822 50.9547 133.427 51.264C133.043 51.5733 132.755 51.9787 132.563 52.48C132.371 52.9707 132.275 53.4987 132.275 54.064C132.275 54.6293 132.371 55.1627 132.563 55.664C132.755 56.1547 133.049 56.5547 133.443 56.864C133.838 57.1627 134.323 57.312 134.899 57.312C135.326 57.312 135.699 57.2373 136.019 57.088C136.35 56.928 136.718 56.6293 137.123 56.192C137.209 56.1067 137.289 56.064 137.363 56.064C137.449 56.064 137.523 56.096 137.587 56.16L137.811 56.336C137.886 56.4 137.923 56.4747 137.923 56.56C137.923 56.6453 137.875 56.7467 137.779 56.864C137.331 57.3547 136.883 57.7013 136.435 57.904C135.987 58.1067 135.481 58.208 134.915 58.208ZM142.745 58.208C142.009 58.208 141.353 58.032 140.777 57.68C140.201 57.328 139.753 56.8427 139.433 56.224C139.113 55.5947 138.953 54.8747 138.953 54.064C138.953 53.2533 139.113 52.5387 139.433 51.92C139.753 51.2907 140.201 50.8 140.777 50.448C141.353 50.096 142.009 49.92 142.745 49.92C143.481 49.92 144.137 50.096 144.713 50.448C145.289 50.8 145.737 51.2907 146.057 51.92C146.377 52.5387 146.537 53.2533 146.537 54.064C146.537 54.8747 146.377 55.5947 146.057 56.224C145.737 56.8427 145.289 57.328 144.713 57.68C144.137 58.032 143.481 58.208 142.745 58.208ZM142.745 57.328C143.566 57.328 144.222 57.0293 144.713 56.432C145.204 55.824 145.449 55.0347 145.449 54.064C145.449 53.0933 145.204 52.3093 144.713 51.712C144.222 51.104 143.566 50.8 142.745 50.8C141.924 50.8 141.268 51.104 140.777 51.712C140.286 52.3093 140.041 53.0933 140.041 54.064C140.041 55.0347 140.286 55.824 140.777 56.432C141.268 57.0293 141.924 57.328 142.745 57.328ZM151.891 49.92C152.82 49.92 153.518 50.176 153.988 50.688C154.468 51.2 154.708 51.84 154.708 52.608V57.68C154.708 57.8933 154.601 58 154.388 58H153.972C153.758 58 153.652 57.8933 153.652 57.68V52.96C153.652 52.256 153.481 51.7227 153.14 51.36C152.798 50.9973 152.308 50.816 151.668 50.816C151.262 50.816 150.889 50.9173 150.548 51.12C150.206 51.312 149.934 51.5787 149.732 51.92C149.529 52.2613 149.428 52.6347 149.428 53.04V57.68C149.428 57.8933 149.321 58 149.108 58H148.692C148.478 58 148.372 57.8933 148.372 57.68V50.432C148.372 50.2187 148.478 50.112 148.692 50.112H149.044C149.257 50.112 149.364 50.2187 149.364 50.432V51.2C149.63 50.7733 149.982 50.4533 150.42 50.24C150.857 50.0267 151.348 49.92 151.891 49.92ZM161.721 50.368C161.785 50.1973 161.907 50.112 162.089 50.112H162.521C162.606 50.112 162.675 50.1333 162.729 50.176C162.782 50.2187 162.809 50.2773 162.809 50.352L162.777 50.48L159.689 59.2C159.518 59.68 159.353 60.0533 159.193 60.32C159.033 60.5867 158.814 60.7893 158.537 60.928C158.27 61.0667 157.918 61.136 157.481 61.136C157.203 61.136 156.958 61.1147 156.745 61.072C156.638 61.0613 156.563 61.0187 156.521 60.944C156.489 60.8693 156.483 60.784 156.505 60.688L156.553 60.48C156.595 60.288 156.718 60.2027 156.921 60.224C157.113 60.256 157.278 60.272 157.417 60.272C157.758 60.272 158.025 60.176 158.217 59.984C158.419 59.792 158.611 59.4293 158.793 58.896L158.937 58.448L156.121 50.48L156.089 50.352C156.089 50.2773 156.115 50.2187 156.169 50.176C156.222 50.1333 156.291 50.112 156.377 50.112H156.841C157.011 50.112 157.129 50.1973 157.193 50.368L158.089 53.008C158.174 53.2747 158.387 53.9093 158.729 54.912L159.449 57.072C159.801 56.08 160.265 54.7147 160.841 52.976L161.721 50.368Z" fill="#464646"/>
<rect x="84.5" y="84.5" width="15" height="15" rx="1.5" fill="#0063FB" stroke="#0063FB"/>
<path d="M91.2264 93.5671L94.9035 89.1679C95.1789 88.8383 95.6694 88.7945 95.999 89.0699C96.3286 89.3454 96.3725 89.8359 96.097 90.1655L91.8713 95.2211C91.5771 95.573 91.0438 95.5953 90.7213 95.269L88.3359 92.8555C88.034 92.55 88.0368 92.0575 88.3424 91.7556C88.6479 91.4536 89.1403 91.4565 89.4423 91.762L91.2264 93.5671Z" fill="white"/>
<path d="M109.696 98C109.483 98 109.376 97.8933 109.376 97.68V86.96C109.376 86.7467 109.483 86.64 109.696 86.64H116.416C116.629 86.64 116.736 86.7467 116.736 86.96V87.264C116.736 87.4773 116.629 87.584 116.416 87.584H110.512V91.696H115.968C116.181 91.696 116.288 91.8027 116.288 92.016V92.304C116.288 92.5173 116.181 92.624 115.968 92.624H110.512V97.056H116.544C116.757 97.056 116.864 97.1627 116.864 97.376V97.68C116.864 97.8933 116.757 98 116.544 98H109.696ZM119.114 98C118.9 98 118.794 97.8933 118.794 97.68V86.96C118.794 86.7467 118.9 86.64 119.114 86.64H119.53C119.743 86.64 119.85 86.7467 119.85 86.96V97.68C119.85 97.8933 119.743 98 119.53 98H119.114ZM127.975 96.128C128.05 96.0533 128.13 96.016 128.215 96.016C128.29 96.016 128.359 96.048 128.423 96.112L128.631 96.304C128.706 96.3787 128.743 96.4587 128.743 96.544C128.743 96.608 128.711 96.6827 128.647 96.768C128.124 97.2907 127.618 97.664 127.127 97.888C126.636 98.1013 126.087 98.208 125.479 98.208C124.711 98.208 124.044 98.0373 123.479 97.696C122.914 97.3547 122.476 96.88 122.167 96.272C121.858 95.6533 121.703 94.9387 121.703 94.128C121.703 93.3067 121.852 92.5813 122.151 91.952C122.46 91.312 122.892 90.816 123.447 90.464C124.002 90.1013 124.642 89.92 125.367 89.92C126.444 89.92 127.292 90.256 127.911 90.928C128.53 91.6 128.839 92.5067 128.839 93.648V93.84C128.828 93.936 128.791 94.0107 128.727 94.064C128.674 94.1173 128.599 94.144 128.503 94.144H122.775C122.807 95.04 123.042 95.7973 123.479 96.416C123.927 97.024 124.594 97.328 125.479 97.328C125.959 97.328 126.38 97.2427 126.743 97.072C127.116 96.8907 127.527 96.576 127.975 96.128ZM125.367 90.8C124.663 90.8 124.082 91.0187 123.623 91.456C123.175 91.8827 122.903 92.512 122.807 93.344H127.783C127.762 92.5653 127.538 91.9467 127.111 91.488C126.684 91.0293 126.103 90.8 125.367 90.8ZM135.564 90.368C135.628 90.1973 135.75 90.112 135.932 90.112H136.348C136.433 90.112 136.502 90.1333 136.556 90.176C136.609 90.2187 136.636 90.2773 136.636 90.352L136.604 90.48L134.06 97.744C133.996 97.9147 133.873 98 133.692 98H132.844C132.662 98 132.54 97.9147 132.476 97.744L129.948 90.48L129.916 90.352C129.916 90.2773 129.942 90.2187 129.996 90.176C130.049 90.1333 130.118 90.112 130.204 90.112H130.636C130.817 90.112 130.94 90.1973 131.004 90.368L131.98 93.184C132.385 94.3573 132.817 95.7067 133.276 97.232C133.297 97.168 133.356 96.9867 133.452 96.688C133.889 95.248 134.268 94.08 134.588 93.184L135.564 90.368ZM141.161 89.92C142.132 89.92 142.89 90.1547 143.434 90.624C143.978 91.0827 144.25 91.6907 144.25 92.448V97.68C144.25 97.8933 144.143 98 143.93 98H143.61C143.396 98 143.29 97.8933 143.29 97.68V96.96C143.023 97.3867 142.644 97.7067 142.154 97.92C141.674 98.1333 141.135 98.24 140.538 98.24C139.706 98.24 139.028 98.064 138.506 97.712C137.983 97.36 137.722 96.816 137.722 96.08C137.722 95.4933 137.887 95.024 138.218 94.672C138.548 94.3093 138.98 94.0373 139.514 93.856C140.047 93.664 140.714 93.4933 141.514 93.344L143.242 93.04V92.528C143.242 91.984 143.055 91.5627 142.682 91.264C142.308 90.9547 141.818 90.8 141.21 90.8C140.751 90.8 140.335 90.8853 139.962 91.056C139.588 91.2267 139.188 91.52 138.762 91.936C138.687 92.0107 138.607 92.048 138.522 92.048C138.447 92.048 138.378 92.016 138.314 91.952L138.106 91.76C138.031 91.6853 137.993 91.6053 137.993 91.52C137.993 91.424 138.031 91.3387 138.106 91.264C138.554 90.7947 139.023 90.4533 139.514 90.24C140.015 90.0267 140.564 89.92 141.161 89.92ZM140.586 97.36C141.354 97.36 141.988 97.1573 142.49 96.752C142.991 96.3467 143.242 95.8293 143.242 95.2V93.856L141.754 94.144C141.06 94.2827 140.511 94.416 140.106 94.544C139.7 94.672 139.375 94.8587 139.13 95.104C138.884 95.3493 138.762 95.6693 138.762 96.064C138.762 96.4693 138.922 96.7893 139.242 97.024C139.572 97.248 140.02 97.36 140.586 97.36ZM149.924 97.12C149.956 97.1093 149.998 97.104 150.052 97.104C150.116 97.104 150.174 97.1253 150.228 97.168C150.281 97.2107 150.313 97.2693 150.324 97.344L150.372 97.568C150.382 97.5893 150.388 97.6267 150.388 97.68C150.388 97.8293 150.308 97.92 150.148 97.952C149.764 98.0693 149.353 98.128 148.916 98.128C148.222 98.128 147.726 97.9733 147.428 97.664C147.14 97.344 146.996 96.8853 146.996 96.288V90.912H145.812C145.598 90.912 145.492 90.8053 145.492 90.592V90.432C145.492 90.2187 145.598 90.112 145.812 90.112H146.996V87.68C146.996 87.4667 147.102 87.36 147.316 87.36H147.732C147.945 87.36 148.052 87.4667 148.052 87.68V90.112H149.972C150.185 90.112 150.292 90.2187 150.292 90.432V90.592C150.292 90.8053 150.185 90.912 149.972 90.912H148.052V96.16C148.052 96.5547 148.126 96.832 148.276 96.992C148.425 97.152 148.681 97.232 149.044 97.232C149.3 97.232 149.593 97.1947 149.924 97.12ZM154.87 98.208C154.134 98.208 153.478 98.032 152.902 97.68C152.326 97.328 151.878 96.8427 151.558 96.224C151.238 95.5947 151.078 94.8747 151.078 94.064C151.078 93.2533 151.238 92.5387 151.558 91.92C151.878 91.2907 152.326 90.8 152.902 90.448C153.478 90.096 154.134 89.92 154.87 89.92C155.606 89.92 156.262 90.096 156.838 90.448C157.414 90.8 157.862 91.2907 158.182 91.92C158.502 92.5387 158.662 93.2533 158.662 94.064C158.662 94.8747 158.502 95.5947 158.182 96.224C157.862 96.8427 157.414 97.328 156.838 97.68C156.262 98.032 155.606 98.208 154.87 98.208ZM154.87 97.328C155.691 97.328 156.347 97.0293 156.838 96.432C157.329 95.824 157.574 95.0347 157.574 94.064C157.574 93.0933 157.329 92.3093 156.838 91.712C156.347 91.104 155.691 90.8 154.87 90.8C154.049 90.8 153.393 91.104 152.902 91.712C152.411 92.3093 152.166 93.0933 152.166 94.064C152.166 95.0347 152.411 95.824 152.902 96.432C153.393 97.0293 154.049 97.328 154.87 97.328ZM163.441 90.048C163.707 90.048 164.022 90.0907 164.385 90.176C164.577 90.24 164.651 90.3733 164.609 90.576L164.545 90.832C164.491 91.0347 164.358 91.1093 164.145 91.056C163.889 90.992 163.654 90.96 163.441 90.96C162.897 90.96 162.443 91.1947 162.081 91.664C161.729 92.1333 161.553 92.784 161.553 93.616V97.68C161.553 97.8933 161.446 98 161.233 98H160.817C160.603 98 160.497 97.8933 160.497 97.68V90.432C160.497 90.2187 160.603 90.112 160.817 90.112H161.169C161.382 90.112 161.489 90.2187 161.489 90.432V91.312C161.67 90.9173 161.926 90.608 162.257 90.384C162.598 90.16 162.993 90.048 163.441 90.048Z" fill="#464646"/>
<rect x="84.5" y="124.5" width="15" height="15" rx="1.5" fill="#0063FB" stroke="#0063FB"/>
<path d="M91.2264 133.567L94.9035 129.168C95.1789 128.838 95.6694 128.794 95.999 129.07C96.3286 129.345 96.3725 129.836 96.097 130.166L91.8713 135.221C91.5771 135.573 91.0438 135.595 90.7213 135.269L88.3359 132.856C88.034 132.55 88.0368 132.058 88.3424 131.756C88.6479 131.454 89.1403 131.457 89.4423 131.762L91.2264 133.567Z" fill="white"/>
<path d="M113.968 138.24C112.88 138.24 111.941 137.989 111.152 137.488C110.363 136.976 109.76 136.272 109.344 135.376C108.928 134.48 108.72 133.461 108.72 132.32C108.72 131.168 108.928 130.144 109.344 129.248C109.76 128.352 110.368 127.653 111.168 127.152C111.979 126.651 112.949 126.4 114.08 126.4C114.731 126.4 115.339 126.507 115.904 126.72C116.469 126.923 117.072 127.275 117.712 127.776C117.808 127.84 117.856 127.915 117.856 128C117.856 128.064 117.824 128.139 117.76 128.224L117.536 128.512C117.472 128.597 117.397 128.64 117.312 128.64C117.227 128.64 117.147 128.608 117.072 128.544C116.496 128.096 115.973 127.792 115.504 127.632C115.045 127.461 114.571 127.376 114.08 127.376C113.216 127.376 112.464 127.589 111.824 128.016C111.195 128.432 110.709 129.013 110.368 129.76C110.027 130.507 109.856 131.36 109.856 132.32C109.856 133.269 110.027 134.123 110.368 134.88C110.709 135.627 111.189 136.213 111.808 136.64C112.427 137.056 113.141 137.264 113.952 137.264C114.592 137.264 115.157 137.141 115.648 136.896C116.149 136.64 116.683 136.245 117.248 135.712C117.333 135.648 117.408 135.616 117.472 135.616C117.557 135.616 117.637 135.653 117.712 135.728L117.968 136.016C118.032 136.08 118.064 136.149 118.064 136.224C118.064 136.32 118.011 136.416 117.904 136.512C117.243 137.141 116.613 137.589 116.016 137.856C115.419 138.112 114.736 138.24 113.968 138.24ZM122.911 129.92C123.882 129.92 124.64 130.155 125.184 130.624C125.728 131.083 126 131.691 126 132.448V137.68C126 137.893 125.893 138 125.68 138H125.36C125.146 138 125.04 137.893 125.04 137.68V136.96C124.773 137.387 124.394 137.707 123.904 137.92C123.424 138.133 122.885 138.24 122.288 138.24C121.456 138.24 120.778 138.064 120.256 137.712C119.733 137.36 119.472 136.816 119.472 136.08C119.472 135.493 119.637 135.024 119.968 134.672C120.298 134.309 120.73 134.037 121.264 133.856C121.797 133.664 122.464 133.493 123.264 133.344L124.992 133.04V132.528C124.992 131.984 124.805 131.563 124.432 131.264C124.058 130.955 123.568 130.8 122.96 130.8C122.501 130.8 122.085 130.885 121.712 131.056C121.338 131.227 120.938 131.52 120.512 131.936C120.437 132.011 120.357 132.048 120.272 132.048C120.197 132.048 120.128 132.016 120.064 131.952L119.856 131.76C119.781 131.685 119.743 131.605 119.743 131.52C119.743 131.424 119.781 131.339 119.856 131.264C120.304 130.795 120.773 130.453 121.264 130.24C121.765 130.027 122.314 129.92 122.911 129.92ZM122.336 137.36C123.104 137.36 123.738 137.157 124.24 136.752C124.741 136.347 124.992 135.829 124.992 135.2V133.856L123.504 134.144C122.81 134.283 122.261 134.416 121.856 134.544C121.45 134.672 121.125 134.859 120.88 135.104C120.634 135.349 120.512 135.669 120.512 136.064C120.512 136.469 120.672 136.789 120.992 137.024C121.322 137.248 121.77 137.36 122.336 137.36ZM132.116 129.936C132.788 129.936 133.386 130.112 133.908 130.464C134.442 130.805 134.852 131.291 135.14 131.92C135.439 132.539 135.588 133.253 135.588 134.064C135.588 134.875 135.439 135.595 135.14 136.224C134.842 136.843 134.426 137.328 133.892 137.68C133.37 138.021 132.778 138.192 132.116 138.192C130.847 138.192 129.919 137.701 129.332 136.72V137.68C129.332 137.893 129.226 138 129.012 138H128.66C128.447 138 128.34 137.893 128.34 137.68V126.944C128.34 126.731 128.447 126.624 128.66 126.624H129.076C129.29 126.624 129.396 126.731 129.396 126.944V131.36C129.983 130.411 130.89 129.936 132.116 129.936ZM132.036 137.296C132.772 137.296 133.364 136.997 133.812 136.4C134.271 135.803 134.5 135.024 134.5 134.064C134.5 133.104 134.271 132.325 133.812 131.728C133.364 131.131 132.772 130.832 132.036 130.832C131.247 130.832 130.602 131.12 130.1 131.696C129.599 132.272 129.348 133.061 129.348 134.064C129.348 135.077 129.594 135.872 130.084 136.448C130.586 137.013 131.236 137.296 132.036 137.296ZM137.801 138C137.588 138 137.481 137.893 137.481 137.68V126.96C137.481 126.747 137.588 126.64 137.801 126.64H138.217C138.431 126.64 138.537 126.747 138.537 126.96V137.68C138.537 137.893 138.431 138 138.217 138H137.801ZM146.662 136.128C146.737 136.053 146.817 136.016 146.902 136.016C146.977 136.016 147.046 136.048 147.11 136.112L147.318 136.304C147.393 136.379 147.43 136.459 147.43 136.544C147.43 136.608 147.398 136.683 147.334 136.768C146.812 137.291 146.305 137.664 145.814 137.888C145.324 138.101 144.774 138.208 144.166 138.208C143.398 138.208 142.732 138.037 142.166 137.696C141.601 137.355 141.164 136.88 140.854 136.272C140.545 135.653 140.39 134.939 140.39 134.128C140.39 133.307 140.54 132.581 140.838 131.952C141.148 131.312 141.58 130.816 142.134 130.464C142.689 130.101 143.329 129.92 144.054 129.92C145.132 129.92 145.98 130.256 146.598 130.928C147.217 131.6 147.526 132.507 147.526 133.648V133.84C147.516 133.936 147.478 134.011 147.414 134.064C147.361 134.117 147.286 134.144 147.19 134.144H141.462C141.494 135.04 141.729 135.797 142.166 136.416C142.614 137.024 143.281 137.328 144.166 137.328C144.646 137.328 145.068 137.243 145.43 137.072C145.804 136.891 146.214 136.576 146.662 136.128ZM144.054 130.8C143.35 130.8 142.769 131.019 142.31 131.456C141.862 131.883 141.59 132.512 141.494 133.344H146.47C146.449 132.565 146.225 131.947 145.798 131.488C145.372 131.029 144.79 130.8 144.054 130.8ZM149.514 133.888C149.301 133.888 149.194 133.781 149.194 133.568V133.264C149.194 133.051 149.301 132.944 149.514 132.944H153.386C153.6 132.944 153.706 133.051 153.706 133.264V133.568C153.706 133.781 153.6 133.888 153.386 133.888H149.514ZM159.408 137.12C159.44 137.109 159.483 137.104 159.536 137.104C159.6 137.104 159.659 137.125 159.712 137.168C159.765 137.211 159.797 137.269 159.808 137.344L159.856 137.568C159.867 137.589 159.872 137.627 159.872 137.68C159.872 137.829 159.792 137.92 159.632 137.952C159.248 138.069 158.837 138.128 158.4 138.128C157.707 138.128 157.211 137.973 156.912 137.664C156.624 137.344 156.48 136.885 156.48 136.288V130.912H155.296C155.083 130.912 154.976 130.805 154.976 130.592V130.432C154.976 130.219 155.083 130.112 155.296 130.112H156.48V127.68C156.48 127.467 156.587 127.36 156.8 127.36H157.216C157.429 127.36 157.536 127.467 157.536 127.68V130.112H159.456C159.669 130.112 159.776 130.219 159.776 130.432V130.592C159.776 130.805 159.669 130.912 159.456 130.912H157.536V136.16C157.536 136.555 157.611 136.832 157.76 136.992C157.909 137.152 158.165 137.232 158.528 137.232C158.784 137.232 159.077 137.195 159.408 137.12ZM166.345 130.368C166.409 130.197 166.532 130.112 166.713 130.112H167.129C167.214 130.112 167.284 130.133 167.337 130.176C167.39 130.219 167.417 130.277 167.417 130.352L167.385 130.48L164.841 137.744C164.777 137.915 164.654 138 164.473 138H163.625C163.444 138 163.321 137.915 163.257 137.744L160.729 130.48L160.697 130.352C160.697 130.277 160.724 130.219 160.777 130.176C160.83 130.133 160.9 130.112 160.985 130.112H161.417C161.598 130.112 161.721 130.197 161.785 130.368L162.761 133.184C163.166 134.357 163.598 135.707 164.057 137.232C164.078 137.168 164.137 136.987 164.233 136.688C164.67 135.248 165.049 134.08 165.369 133.184L166.345 130.368Z" fill="#464646"/>
</svg>
