<svg width="344" height="182" viewBox="0 0 344 182" fill="none" xmlns="http://www.w3.org/2000/svg">
<rect width="344" height="182" fill="#F5F5F5"/>
<rect x="49.5" y="44.5" width="15" height="15" rx="1.5" fill="#0063FB" stroke="#0063FB"/>
<path fill-rule="evenodd" clip-rule="evenodd" d="M53 52C53 51.5581 53.3582 51.2 53.8 51.2H60.2C60.6418 51.2 61 51.5581 61 52C61 52.4418 60.6418 52.8 60.2 52.8H53.8C53.3582 52.8 53 52.4418 53 52Z" fill="white"/>
<path d="M82.2 58C82.0187 58 81.896 57.9147 81.832 57.744L80.776 54.816H75.608L74.568 57.744C74.504 57.9147 74.3813 58 74.2 58H73.704C73.6187 58 73.5493 57.9787 73.496 57.936C73.4427 57.8933 73.416 57.8347 73.416 57.76L73.448 57.632L77.368 46.896C77.432 46.7253 77.5547 46.64 77.736 46.64H78.664C78.8453 46.64 78.968 46.7253 79.032 46.896L82.952 57.632L82.984 57.76C82.984 57.8347 82.9573 57.8933 82.904 57.936C82.8507 57.9787 82.7813 58 82.696 58H82.2ZM80.424 53.856L79.864 52.288L79.736 51.952C79.5867 51.5467 79.3413 50.8693 79 49.92C78.6693 48.9707 78.3973 48.1653 78.184 47.504C77.896 48.4107 77.4427 49.728 76.824 51.456C76.7813 51.5733 76.7333 51.7013 76.68 51.84C76.6267 51.9787 76.5733 52.128 76.52 52.288L75.96 53.856H80.424ZM84.9263 58C84.7129 58 84.6063 57.8933 84.6063 57.68V46.96C84.6063 46.7467 84.7129 46.64 84.9263 46.64H85.3423C85.5556 46.64 85.6623 46.7467 85.6623 46.96V57.68C85.6623 57.8933 85.5556 58 85.3423 58H84.9263ZM88.3794 58C88.166 58 88.0594 57.8933 88.0594 57.68V46.96C88.0594 46.7467 88.166 46.64 88.3794 46.64H88.7954C89.0087 46.64 89.1154 46.7467 89.1154 46.96V57.68C89.1154 57.8933 89.0087 58 88.7954 58H88.3794ZM98.192 47.328C97.712 47.328 97.3707 47.456 97.168 47.712C96.9653 47.9573 96.864 48.3733 96.864 48.96V50.112H98.624C98.8373 50.112 98.944 50.2187 98.944 50.432V50.592C98.944 50.8053 98.8373 50.912 98.624 50.912H96.864V57.68C96.864 57.8933 96.7573 58 96.544 58H96.128C95.9147 58 95.808 57.8933 95.808 57.68V50.912H94.624C94.4107 50.912 94.304 50.8053 94.304 50.592V50.432C94.304 50.2187 94.4107 50.112 94.624 50.112H95.808V48.784C95.808 48.048 96 47.472 96.384 47.056C96.7787 46.64 97.3387 46.432 98.064 46.432C98.4693 46.432 98.8853 46.4907 99.312 46.608C99.5147 46.672 99.5893 46.8053 99.536 47.008L99.472 47.232C99.4187 47.3813 99.312 47.456 99.152 47.456C99.12 47.456 99.0507 47.4453 98.944 47.424C98.7093 47.36 98.4587 47.328 98.192 47.328ZM103.441 50.048C103.707 50.048 104.022 50.0907 104.385 50.176C104.577 50.24 104.651 50.3733 104.609 50.576L104.545 50.832C104.491 51.0347 104.358 51.1093 104.145 51.056C103.889 50.992 103.654 50.96 103.441 50.96C102.897 50.96 102.443 51.1947 102.081 51.664C101.729 52.1333 101.553 52.784 101.553 53.616V57.68C101.553 57.8933 101.446 58 101.233 58H100.817C100.603 58 100.497 57.8933 100.497 57.68V50.432C100.497 50.2187 100.603 50.112 100.817 50.112H101.169C101.382 50.112 101.489 50.2187 101.489 50.432V51.312C101.67 50.9173 101.926 50.608 102.257 50.384C102.598 50.16 102.993 50.048 103.441 50.048ZM111.163 50.432C111.163 50.2187 111.27 50.112 111.483 50.112H111.899C112.113 50.112 112.219 50.2187 112.219 50.432V57.68C112.219 57.8933 112.113 58 111.899 58H111.563C111.35 58 111.243 57.8933 111.243 57.68V56.96C111.009 57.376 110.673 57.6907 110.235 57.904C109.809 58.1067 109.339 58.208 108.827 58.208C107.867 58.208 107.158 57.968 106.699 57.488C106.241 56.9973 106.011 56.368 106.011 55.6V50.432C106.011 50.2187 106.118 50.112 106.331 50.112H106.747C106.961 50.112 107.067 50.2187 107.067 50.432V55.376C107.067 56.0053 107.222 56.4853 107.531 56.816C107.851 57.136 108.305 57.296 108.891 57.296C109.553 57.296 110.097 57.0933 110.523 56.688C110.95 56.2827 111.163 55.7067 111.163 54.96V50.432ZM115.118 48.112C114.905 48.112 114.724 48.0373 114.574 47.888C114.436 47.7387 114.366 47.5573 114.366 47.344C114.366 47.1307 114.436 46.9547 114.574 46.816C114.724 46.6773 114.905 46.608 115.118 46.608C115.342 46.608 115.524 46.6773 115.662 46.816C115.812 46.9547 115.886 47.1307 115.886 47.344C115.886 47.5573 115.812 47.7387 115.662 47.888C115.524 48.0373 115.342 48.112 115.118 48.112ZM114.91 58C114.697 58 114.59 57.8933 114.59 57.68V50.432C114.59 50.2187 114.697 50.112 114.91 50.112H115.326C115.54 50.112 115.646 50.2187 115.646 50.432V57.68C115.646 57.8933 115.54 58 115.326 58H114.91ZM121.549 57.12C121.581 57.1093 121.623 57.104 121.677 57.104C121.741 57.104 121.799 57.1253 121.853 57.168C121.906 57.2107 121.938 57.2693 121.949 57.344L121.997 57.568C122.007 57.5893 122.013 57.6267 122.013 57.68C122.013 57.8293 121.933 57.92 121.773 57.952C121.389 58.0693 120.978 58.128 120.541 58.128C119.847 58.128 119.351 57.9733 119.053 57.664C118.765 57.344 118.621 56.8853 118.621 56.288V50.912H117.437C117.223 50.912 117.117 50.8053 117.117 50.592V50.432C117.117 50.2187 117.223 50.112 117.437 50.112H118.621V47.68C118.621 47.4667 118.727 47.36 118.941 47.36H119.357C119.57 47.36 119.677 47.4667 119.677 47.68V50.112H121.597C121.81 50.112 121.917 50.2187 121.917 50.432V50.592C121.917 50.8053 121.81 50.912 121.597 50.912H119.677V56.16C119.677 56.5547 119.751 56.832 119.901 56.992C120.05 57.152 120.306 57.232 120.669 57.232C120.925 57.232 121.218 57.1947 121.549 57.12Z" fill="#464646"/>
<rect x="73.5" y="84.5" width="15" height="15" rx="1.5" fill="#0063FB" stroke="#0063FB"/>
<path d="M80.2264 93.5671L83.9035 89.1679C84.1789 88.8383 84.6694 88.7945 84.999 89.0699C85.3286 89.3454 85.3725 89.8359 85.097 90.1655L80.8713 95.2211C80.5771 95.573 80.0438 95.5953 79.7213 95.269L77.3359 92.8555C77.034 92.55 77.0368 92.0575 77.3424 91.7556C77.6479 91.4536 78.1403 91.4565 78.4423 91.762L80.2264 93.5671Z" fill="white"/>
<path d="M106.2 98C106.019 98 105.896 97.9147 105.832 97.744L104.776 94.816H99.608L98.568 97.744C98.504 97.9147 98.3813 98 98.2 98H97.704C97.6187 98 97.5493 97.9787 97.496 97.936C97.4427 97.8933 97.416 97.8347 97.416 97.76L97.448 97.632L101.368 86.896C101.432 86.7253 101.555 86.64 101.736 86.64H102.664C102.845 86.64 102.968 86.7253 103.032 86.896L106.952 97.632L106.984 97.76C106.984 97.8347 106.957 97.8933 106.904 97.936C106.851 97.9787 106.781 98 106.696 98H106.2ZM104.424 93.856L103.864 92.288L103.736 91.952C103.587 91.5467 103.341 90.8693 103 89.92C102.669 88.9707 102.397 88.1653 102.184 87.504C101.896 88.4107 101.443 89.728 100.824 91.456C100.781 91.5733 100.733 91.7013 100.68 91.84C100.627 91.9787 100.573 92.128 100.52 92.288L99.96 93.856H104.424ZM112.366 89.936C113.028 89.936 113.62 90.112 114.142 90.464C114.676 90.8053 115.092 91.2907 115.39 91.92C115.689 92.5387 115.838 93.248 115.838 94.048C115.838 94.8587 115.689 95.5787 115.39 96.208C115.092 96.8373 114.681 97.328 114.158 97.68C113.636 98.0213 113.038 98.192 112.366 98.192C111.129 98.192 110.222 97.7387 109.646 96.832V100.624C109.646 100.837 109.54 100.944 109.326 100.944H108.91C108.697 100.944 108.59 100.837 108.59 100.624V90.432C108.59 90.2187 108.697 90.112 108.91 90.112H109.262C109.476 90.112 109.582 90.2187 109.582 90.432V91.44C109.87 90.9493 110.249 90.576 110.718 90.32C111.188 90.064 111.737 89.936 112.366 89.936ZM112.286 97.296C113.033 97.296 113.63 96.9973 114.078 96.4C114.526 95.8027 114.75 95.0187 114.75 94.048C114.75 93.088 114.526 92.3147 114.078 91.728C113.63 91.1307 113.033 90.832 112.286 90.832C111.486 90.832 110.836 91.12 110.334 91.696C109.844 92.2613 109.598 93.0453 109.598 94.048C109.598 95.0507 109.849 95.8453 110.35 96.432C110.852 97.008 111.497 97.296 112.286 97.296ZM121.491 89.936C122.153 89.936 122.745 90.112 123.267 90.464C123.801 90.8053 124.217 91.2907 124.515 91.92C124.814 92.5387 124.963 93.248 124.963 94.048C124.963 94.8587 124.814 95.5787 124.515 96.208C124.217 96.8373 123.806 97.328 123.283 97.68C122.761 98.0213 122.163 98.192 121.491 98.192C120.254 98.192 119.347 97.7387 118.771 96.832V100.624C118.771 100.837 118.665 100.944 118.451 100.944H118.035C117.822 100.944 117.715 100.837 117.715 100.624V90.432C117.715 90.2187 117.822 90.112 118.035 90.112H118.387C118.601 90.112 118.707 90.2187 118.707 90.432V91.44C118.995 90.9493 119.374 90.576 119.843 90.32C120.313 90.064 120.862 89.936 121.491 89.936ZM121.411 97.296C122.158 97.296 122.755 96.9973 123.203 96.4C123.651 95.8027 123.875 95.0187 123.875 94.048C123.875 93.088 123.651 92.3147 123.203 91.728C122.755 91.1307 122.158 90.832 121.411 90.832C120.611 90.832 119.961 91.12 119.459 91.696C118.969 92.2613 118.723 93.0453 118.723 94.048C118.723 95.0507 118.974 95.8453 119.475 96.432C119.977 97.008 120.622 97.296 121.411 97.296ZM127.176 98C126.963 98 126.856 97.8933 126.856 97.68V86.96C126.856 86.7467 126.963 86.64 127.176 86.64H127.592C127.806 86.64 127.912 86.7467 127.912 86.96V97.68C127.912 97.8933 127.806 98 127.592 98H127.176ZM136.037 96.128C136.112 96.0533 136.192 96.016 136.277 96.016C136.352 96.016 136.421 96.048 136.485 96.112L136.693 96.304C136.768 96.3787 136.805 96.4587 136.805 96.544C136.805 96.608 136.773 96.6827 136.709 96.768C136.187 97.2907 135.68 97.664 135.189 97.888C134.699 98.1013 134.149 98.208 133.541 98.208C132.773 98.208 132.107 98.0373 131.541 97.696C130.976 97.3547 130.539 96.88 130.229 96.272C129.92 95.6533 129.765 94.9387 129.765 94.128C129.765 93.3067 129.915 92.5813 130.213 91.952C130.523 91.312 130.955 90.816 131.509 90.464C132.064 90.1013 132.704 89.92 133.429 89.92C134.507 89.92 135.355 90.256 135.973 90.928C136.592 91.6 136.901 92.5067 136.901 93.648V93.84C136.891 93.936 136.853 94.0107 136.789 94.064C136.736 94.1173 136.661 94.144 136.565 94.144H130.837C130.869 95.04 131.104 95.7973 131.541 96.416C131.989 97.024 132.656 97.328 133.541 97.328C134.021 97.328 134.443 97.2427 134.805 97.072C135.179 96.8907 135.589 96.576 136.037 96.128ZM133.429 90.8C132.725 90.8 132.144 91.0187 131.685 91.456C131.237 91.8827 130.965 92.512 130.869 93.344H135.845C135.824 92.5653 135.6 91.9467 135.173 91.488C134.747 91.0293 134.165 90.8 133.429 90.8ZM141.608 98.208C140.957 98.208 140.381 98.1173 139.88 97.936C139.389 97.744 138.872 97.424 138.328 96.976C138.232 96.912 138.184 96.8373 138.184 96.752C138.184 96.6773 138.221 96.6027 138.296 96.528L138.504 96.304C138.568 96.2187 138.648 96.176 138.744 96.176C138.819 96.176 138.888 96.208 138.952 96.272C139.464 96.6667 139.917 96.944 140.312 97.104C140.707 97.2533 141.139 97.328 141.608 97.328C142.195 97.328 142.675 97.2 143.048 96.944C143.421 96.6773 143.608 96.32 143.608 95.872C143.608 95.424 143.416 95.0933 143.032 94.88C142.648 94.6667 142.056 94.4747 141.256 94.304C140.552 94.1547 139.997 94 139.592 93.84C139.197 93.6693 138.904 93.456 138.712 93.2C138.52 92.944 138.424 92.608 138.424 92.192C138.424 91.5093 138.701 90.96 139.256 90.544C139.811 90.128 140.509 89.92 141.352 89.92C141.928 89.92 142.44 89.9947 142.888 90.144C143.347 90.2827 143.805 90.5173 144.264 90.848C144.36 90.9227 144.408 91.0027 144.408 91.088C144.408 91.1413 144.381 91.2107 144.328 91.296L144.136 91.536C144.083 91.6213 144.008 91.664 143.912 91.664C143.827 91.664 143.752 91.6373 143.688 91.584C143.251 91.2747 142.861 91.0667 142.52 90.96C142.189 90.8533 141.811 90.8 141.384 90.8C140.797 90.8 140.328 90.928 139.976 91.184C139.624 91.44 139.448 91.7653 139.448 92.16C139.448 92.4053 139.528 92.6027 139.688 92.752C139.848 92.9013 140.077 93.0293 140.376 93.136C140.675 93.232 141.112 93.344 141.688 93.472C142.755 93.7067 143.512 93.9947 143.96 94.336C144.419 94.6773 144.648 95.1733 144.648 95.824C144.648 96.5387 144.365 97.1147 143.8 97.552C143.235 97.9893 142.504 98.208 141.608 98.208Z" fill="#464646"/>
<rect x="73.5" y="122.5" width="15" height="15" rx="1.5" fill="white" stroke="#767676"/>
<path d="M104.712 129.984C105.373 130.187 105.896 130.528 106.28 131.008C106.675 131.488 106.872 132.091 106.872 132.816C106.872 133.787 106.557 134.56 105.928 135.136C105.299 135.712 104.456 136 103.4 136H98.696C98.4827 136 98.376 135.893 98.376 135.68V124.96C98.376 124.747 98.4827 124.64 98.696 124.64H103.208C104.189 124.64 104.979 124.885 105.576 125.376C106.173 125.867 106.472 126.576 106.472 127.504C106.472 128.123 106.312 128.645 105.992 129.072C105.683 129.499 105.256 129.803 104.712 129.984ZM99.512 129.568H103.016C103.752 129.568 104.328 129.392 104.744 129.04C105.16 128.677 105.368 128.171 105.368 127.52C105.368 126.901 105.16 126.427 104.744 126.096C104.339 125.755 103.763 125.584 103.016 125.584H99.512V129.568ZM103.096 135.056C103.96 135.056 104.616 134.853 105.064 134.448C105.523 134.043 105.752 133.493 105.752 132.8C105.752 132.096 105.517 131.536 105.048 131.12C104.589 130.704 103.944 130.496 103.112 130.496H99.512V135.056H103.096ZM111.833 127.92C112.804 127.92 113.561 128.155 114.105 128.624C114.649 129.083 114.921 129.691 114.921 130.448V135.68C114.921 135.893 114.815 136 114.601 136H114.281C114.068 136 113.961 135.893 113.961 135.68V134.96C113.695 135.387 113.316 135.707 112.825 135.92C112.345 136.133 111.807 136.24 111.209 136.24C110.377 136.24 109.7 136.064 109.177 135.712C108.655 135.36 108.393 134.816 108.393 134.08C108.393 133.493 108.559 133.024 108.889 132.672C109.22 132.309 109.652 132.037 110.185 131.856C110.719 131.664 111.385 131.493 112.185 131.344L113.913 131.04V130.528C113.913 129.984 113.727 129.563 113.353 129.264C112.98 128.955 112.489 128.8 111.881 128.8C111.423 128.8 111.007 128.885 110.633 129.056C110.26 129.227 109.86 129.52 109.433 129.936C109.359 130.011 109.279 130.048 109.193 130.048C109.119 130.048 109.049 130.016 108.985 129.952L108.777 129.76C108.703 129.685 108.665 129.605 108.665 129.52C108.665 129.424 108.703 129.339 108.777 129.264C109.225 128.795 109.695 128.453 110.185 128.24C110.687 128.027 111.236 127.92 111.833 127.92ZM111.257 135.36C112.025 135.36 112.66 135.157 113.161 134.752C113.663 134.347 113.913 133.829 113.913 133.2V131.856L112.425 132.144C111.732 132.283 111.183 132.416 110.777 132.544C110.372 132.672 110.047 132.859 109.801 133.104C109.556 133.349 109.433 133.669 109.433 134.064C109.433 134.469 109.593 134.789 109.913 135.024C110.244 135.248 110.692 135.36 111.257 135.36ZM120.782 127.92C121.71 127.92 122.409 128.176 122.878 128.688C123.358 129.2 123.598 129.84 123.598 130.608V135.68C123.598 135.893 123.491 136 123.278 136H122.862C122.649 136 122.542 135.893 122.542 135.68V130.96C122.542 130.256 122.371 129.723 122.03 129.36C121.689 128.997 121.198 128.816 120.558 128.816C120.153 128.816 119.779 128.917 119.438 129.12C119.097 129.312 118.825 129.579 118.622 129.92C118.419 130.261 118.318 130.635 118.318 131.04V135.68C118.318 135.893 118.211 136 117.998 136H117.582C117.369 136 117.262 135.893 117.262 135.68V128.432C117.262 128.219 117.369 128.112 117.582 128.112H117.934C118.147 128.112 118.254 128.219 118.254 128.432V129.2C118.521 128.773 118.873 128.453 119.31 128.24C119.747 128.027 120.238 127.92 120.782 127.92ZM128.974 127.92C129.945 127.92 130.702 128.155 131.246 128.624C131.79 129.083 132.062 129.691 132.062 130.448V135.68C132.062 135.893 131.955 136 131.742 136H131.422C131.209 136 131.102 135.893 131.102 135.68V134.96C130.835 135.387 130.457 135.707 129.966 135.92C129.486 136.133 128.947 136.24 128.35 136.24C127.518 136.24 126.841 136.064 126.318 135.712C125.795 135.36 125.534 134.816 125.534 134.08C125.534 133.493 125.699 133.024 126.03 132.672C126.361 132.309 126.793 132.037 127.326 131.856C127.859 131.664 128.526 131.493 129.326 131.344L131.054 131.04V130.528C131.054 129.984 130.867 129.563 130.494 129.264C130.121 128.955 129.63 128.8 129.022 128.8C128.563 128.8 128.147 128.885 127.774 129.056C127.401 129.227 127.001 129.52 126.574 129.936C126.499 130.011 126.419 130.048 126.334 130.048C126.259 130.048 126.19 130.016 126.126 129.952L125.918 129.76C125.843 129.685 125.806 129.605 125.806 129.52C125.806 129.424 125.843 129.339 125.918 129.264C126.366 128.795 126.835 128.453 127.326 128.24C127.827 128.027 128.377 127.92 128.974 127.92ZM128.398 135.36C129.166 135.36 129.801 135.157 130.302 134.752C130.803 134.347 131.054 133.829 131.054 133.2V131.856L129.566 132.144C128.873 132.283 128.323 132.416 127.918 132.544C127.513 132.672 127.187 132.859 126.942 133.104C126.697 133.349 126.574 133.669 126.574 134.064C126.574 134.469 126.734 134.789 127.054 135.024C127.385 135.248 127.833 135.36 128.398 135.36ZM137.923 127.92C138.851 127.92 139.549 128.176 140.019 128.688C140.499 129.2 140.739 129.84 140.739 130.608V135.68C140.739 135.893 140.632 136 140.419 136H140.003C139.789 136 139.683 135.893 139.683 135.68V130.96C139.683 130.256 139.512 129.723 139.171 129.36C138.829 128.997 138.339 128.816 137.699 128.816C137.293 128.816 136.92 128.917 136.579 129.12C136.237 129.312 135.965 129.579 135.763 129.92C135.56 130.261 135.459 130.635 135.459 131.04V135.68C135.459 135.893 135.352 136 135.139 136H134.723C134.509 136 134.403 135.893 134.403 135.68V128.432C134.403 128.219 134.509 128.112 134.723 128.112H135.075C135.288 128.112 135.395 128.219 135.395 128.432V129.2C135.661 128.773 136.013 128.453 136.451 128.24C136.888 128.027 137.379 127.92 137.923 127.92ZM146.115 127.92C147.085 127.92 147.843 128.155 148.387 128.624C148.931 129.083 149.203 129.691 149.203 130.448V135.68C149.203 135.893 149.096 136 148.883 136H148.563C148.349 136 148.243 135.893 148.243 135.68V134.96C147.976 135.387 147.597 135.707 147.107 135.92C146.627 136.133 146.088 136.24 145.491 136.24C144.659 136.24 143.981 136.064 143.459 135.712C142.936 135.36 142.675 134.816 142.675 134.08C142.675 133.493 142.84 133.024 143.171 132.672C143.501 132.309 143.933 132.037 144.467 131.856C145 131.664 145.667 131.493 146.467 131.344L148.195 131.04V130.528C148.195 129.984 148.008 129.563 147.635 129.264C147.261 128.955 146.771 128.8 146.163 128.8C145.704 128.8 145.288 128.885 144.915 129.056C144.541 129.227 144.141 129.52 143.715 129.936C143.64 130.011 143.56 130.048 143.475 130.048C143.4 130.048 143.331 130.016 143.267 129.952L143.059 129.76C142.984 129.685 142.947 129.605 142.947 129.52C142.947 129.424 142.984 129.339 143.059 129.264C143.507 128.795 143.976 128.453 144.467 128.24C144.968 128.027 145.517 127.92 146.115 127.92ZM145.539 135.36C146.307 135.36 146.941 135.157 147.443 134.752C147.944 134.347 148.195 133.829 148.195 133.2V131.856L146.707 132.144C146.013 132.283 145.464 132.416 145.059 132.544C144.653 132.672 144.328 132.859 144.083 133.104C143.837 133.349 143.715 133.669 143.715 134.064C143.715 134.469 143.875 134.789 144.195 135.024C144.525 135.248 144.973 135.36 145.539 135.36ZM154.295 136.208C153.645 136.208 153.069 136.117 152.567 135.936C152.077 135.744 151.559 135.424 151.015 134.976C150.919 134.912 150.871 134.837 150.871 134.752C150.871 134.677 150.909 134.603 150.983 134.528L151.191 134.304C151.255 134.219 151.335 134.176 151.431 134.176C151.506 134.176 151.575 134.208 151.639 134.272C152.151 134.667 152.605 134.944 152.999 135.104C153.394 135.253 153.826 135.328 154.295 135.328C154.882 135.328 155.362 135.2 155.735 134.944C156.109 134.677 156.295 134.32 156.295 133.872C156.295 133.424 156.103 133.093 155.719 132.88C155.335 132.667 154.743 132.475 153.943 132.304C153.239 132.155 152.685 132 152.279 131.84C151.885 131.669 151.591 131.456 151.399 131.2C151.207 130.944 151.111 130.608 151.111 130.192C151.111 129.509 151.389 128.96 151.943 128.544C152.498 128.128 153.197 127.92 154.039 127.92C154.615 127.92 155.127 127.995 155.575 128.144C156.034 128.283 156.493 128.517 156.951 128.848C157.047 128.923 157.095 129.003 157.095 129.088C157.095 129.141 157.069 129.211 157.015 129.296L156.823 129.536C156.77 129.621 156.695 129.664 156.599 129.664C156.514 129.664 156.439 129.637 156.375 129.584C155.938 129.275 155.549 129.067 155.207 128.96C154.877 128.853 154.498 128.8 154.071 128.8C153.485 128.8 153.015 128.928 152.663 129.184C152.311 129.44 152.135 129.765 152.135 130.16C152.135 130.405 152.215 130.603 152.375 130.752C152.535 130.901 152.765 131.029 153.063 131.136C153.362 131.232 153.799 131.344 154.375 131.472C155.442 131.707 156.199 131.995 156.647 132.336C157.106 132.677 157.335 133.173 157.335 133.824C157.335 134.539 157.053 135.115 156.487 135.552C155.922 135.989 155.191 136.208 154.295 136.208Z" fill="#464646"/>
</svg>
