<svg width="344" height="320" viewBox="0 0 344 320" fill="none" xmlns="http://www.w3.org/2000/svg">
<rect width="344" height="320" fill="#F5F5F5"/>
<rect x="174.5" y="113.5" width="15" height="15" rx="1.5" fill="white" stroke="#767676"/>
<path d="M204.016 127.24C202.939 127.24 202 126.989 201.2 126.488C200.4 125.976 199.787 125.272 199.36 124.376C198.933 123.48 198.72 122.461 198.72 121.32C198.72 120.179 198.933 119.16 199.36 118.264C199.787 117.368 200.4 116.669 201.2 116.168C202 115.656 202.939 115.4 204.016 115.4C205.093 115.4 206.032 115.656 206.832 116.168C207.632 116.669 208.245 117.368 208.672 118.264C209.099 119.16 209.312 120.179 209.312 121.32C209.312 122.461 209.099 123.48 208.672 124.376C208.245 125.272 207.632 125.976 206.832 126.488C206.032 126.989 205.093 127.24 204.016 127.24ZM204.016 126.264C204.837 126.264 205.563 126.056 206.192 125.64C206.821 125.213 207.307 124.627 207.648 123.88C208 123.123 208.176 122.269 208.176 121.32C208.176 120.371 208 119.523 207.648 118.776C207.307 118.019 206.821 117.432 206.192 117.016C205.563 116.589 204.837 116.376 204.016 116.376C203.195 116.376 202.469 116.589 201.84 117.016C201.211 117.432 200.72 118.019 200.368 118.776C200.027 119.523 199.856 120.371 199.856 121.32C199.856 122.269 200.027 123.123 200.368 123.88C200.72 124.627 201.211 125.213 201.84 125.64C202.469 126.056 203.195 126.264 204.016 126.264ZM214.976 118.936C215.637 118.936 216.229 119.112 216.752 119.464C217.285 119.805 217.701 120.291 218 120.92C218.298 121.539 218.448 122.248 218.448 123.048C218.448 123.859 218.298 124.579 218 125.208C217.701 125.837 217.29 126.328 216.768 126.68C216.245 127.021 215.648 127.192 214.976 127.192C213.738 127.192 212.832 126.739 212.256 125.832V129.624C212.256 129.837 212.149 129.944 211.936 129.944H211.52C211.306 129.944 211.2 129.837 211.2 129.624V119.432C211.2 119.219 211.306 119.112 211.52 119.112H211.872C212.085 119.112 212.192 119.219 212.192 119.432V120.44C212.48 119.949 212.858 119.576 213.328 119.32C213.797 119.064 214.346 118.936 214.976 118.936ZM214.896 126.296C215.642 126.296 216.24 125.997 216.688 125.4C217.136 124.803 217.36 124.019 217.36 123.048C217.36 122.088 217.136 121.315 216.688 120.728C216.24 120.131 215.642 119.832 214.896 119.832C214.096 119.832 213.445 120.12 212.944 120.696C212.453 121.261 212.208 122.045 212.208 123.048C212.208 124.051 212.458 124.845 212.96 125.432C213.461 126.008 214.106 126.296 214.896 126.296ZM223.642 126.12C223.674 126.109 223.717 126.104 223.77 126.104C223.834 126.104 223.893 126.125 223.946 126.168C224 126.211 224.032 126.269 224.042 126.344L224.09 126.568C224.101 126.589 224.106 126.627 224.106 126.68C224.106 126.829 224.026 126.92 223.866 126.952C223.482 127.069 223.072 127.128 222.634 127.128C221.941 127.128 221.445 126.973 221.146 126.664C220.858 126.344 220.714 125.885 220.714 125.288V119.912H219.53C219.317 119.912 219.21 119.805 219.21 119.592V119.432C219.21 119.219 219.317 119.112 219.53 119.112H220.714V116.68C220.714 116.467 220.821 116.36 221.034 116.36H221.45C221.664 116.36 221.77 116.467 221.77 116.68V119.112H223.69C223.904 119.112 224.01 119.219 224.01 119.432V119.592C224.01 119.805 223.904 119.912 223.69 119.912H221.77V125.16C221.77 125.555 221.845 125.832 221.994 125.992C222.144 126.152 222.4 126.232 222.762 126.232C223.018 126.232 223.312 126.195 223.642 126.12ZM226.15 117.112C225.936 117.112 225.755 117.037 225.606 116.888C225.467 116.739 225.398 116.557 225.398 116.344C225.398 116.131 225.467 115.955 225.606 115.816C225.755 115.677 225.936 115.608 226.15 115.608C226.374 115.608 226.555 115.677 226.694 115.816C226.843 115.955 226.918 116.131 226.918 116.344C226.918 116.557 226.843 116.739 226.694 116.888C226.555 117.037 226.374 117.112 226.15 117.112ZM225.942 127C225.728 127 225.622 126.893 225.622 126.68V119.432C225.622 119.219 225.728 119.112 225.942 119.112H226.358C226.571 119.112 226.678 119.219 226.678 119.432V126.68C226.678 126.893 226.571 127 226.358 127H225.942ZM232.292 127.208C231.556 127.208 230.9 127.032 230.324 126.68C229.748 126.328 229.3 125.843 228.98 125.224C228.66 124.595 228.5 123.875 228.5 123.064C228.5 122.253 228.66 121.539 228.98 120.92C229.3 120.291 229.748 119.8 230.324 119.448C230.9 119.096 231.556 118.92 232.292 118.92C233.028 118.92 233.684 119.096 234.26 119.448C234.836 119.8 235.284 120.291 235.604 120.92C235.924 121.539 236.084 122.253 236.084 123.064C236.084 123.875 235.924 124.595 235.604 125.224C235.284 125.843 234.836 126.328 234.26 126.68C233.684 127.032 233.028 127.208 232.292 127.208ZM232.292 126.328C233.113 126.328 233.769 126.029 234.26 125.432C234.75 124.824 234.996 124.035 234.996 123.064C234.996 122.093 234.75 121.309 234.26 120.712C233.769 120.104 233.113 119.8 232.292 119.8C231.47 119.8 230.814 120.104 230.324 120.712C229.833 121.309 229.588 122.093 229.588 123.064C229.588 124.035 229.833 124.824 230.324 125.432C230.814 126.029 231.47 126.328 232.292 126.328ZM241.438 118.92C242.366 118.92 243.065 119.176 243.534 119.688C244.014 120.2 244.254 120.84 244.254 121.608V126.68C244.254 126.893 244.148 127 243.934 127H243.518C243.305 127 243.198 126.893 243.198 126.68V121.96C243.198 121.256 243.028 120.723 242.686 120.36C242.345 119.997 241.854 119.816 241.214 119.816C240.809 119.816 240.436 119.917 240.094 120.12C239.753 120.312 239.481 120.579 239.278 120.92C239.076 121.261 238.974 121.635 238.974 122.04V126.68C238.974 126.893 238.868 127 238.654 127H238.238C238.025 127 237.918 126.893 237.918 126.68V119.432C237.918 119.219 238.025 119.112 238.238 119.112H238.59C238.804 119.112 238.91 119.219 238.91 119.432V120.2C239.177 119.773 239.529 119.453 239.966 119.24C240.404 119.027 240.894 118.92 241.438 118.92ZM253.062 115.768C253.179 115.683 253.312 115.64 253.462 115.64H253.718C253.931 115.64 254.038 115.747 254.038 115.96V126.68C254.038 126.893 253.931 127 253.718 127H253.286C253.072 127 252.966 126.893 252.966 126.68V117.016L250.55 118.744C250.475 118.797 250.406 118.824 250.342 118.824C250.246 118.824 250.166 118.776 250.102 118.68L249.942 118.44C249.899 118.387 249.878 118.323 249.878 118.248C249.878 118.152 249.926 118.067 250.022 117.992L253.062 115.768Z" fill="#464646"/>
<rect x="174.5" y="151.5" width="15" height="15" rx="1.5" fill="#0063FB" stroke="#0063FB"/>
<path d="M181.226 160.567L184.903 156.168C185.179 155.838 185.669 155.794 185.999 156.07C186.329 156.345 186.372 156.836 186.097 157.166L181.871 162.221C181.577 162.573 181.044 162.595 180.721 162.269L178.336 159.856C178.034 159.55 178.037 159.058 178.342 158.756C178.648 158.454 179.14 158.457 179.442 158.762L181.226 160.567Z" fill="white"/>
<path d="M204.016 165.24C202.939 165.24 202 164.989 201.2 164.488C200.4 163.976 199.787 163.272 199.36 162.376C198.933 161.48 198.72 160.461 198.72 159.32C198.72 158.179 198.933 157.16 199.36 156.264C199.787 155.368 200.4 154.669 201.2 154.168C202 153.656 202.939 153.4 204.016 153.4C205.093 153.4 206.032 153.656 206.832 154.168C207.632 154.669 208.245 155.368 208.672 156.264C209.099 157.16 209.312 158.179 209.312 159.32C209.312 160.461 209.099 161.48 208.672 162.376C208.245 163.272 207.632 163.976 206.832 164.488C206.032 164.989 205.093 165.24 204.016 165.24ZM204.016 164.264C204.837 164.264 205.563 164.056 206.192 163.64C206.821 163.213 207.307 162.627 207.648 161.88C208 161.123 208.176 160.269 208.176 159.32C208.176 158.371 208 157.523 207.648 156.776C207.307 156.019 206.821 155.432 206.192 155.016C205.563 154.589 204.837 154.376 204.016 154.376C203.195 154.376 202.469 154.589 201.84 155.016C201.211 155.432 200.72 156.019 200.368 156.776C200.027 157.523 199.856 158.371 199.856 159.32C199.856 160.269 200.027 161.123 200.368 161.88C200.72 162.627 201.211 163.213 201.84 163.64C202.469 164.056 203.195 164.264 204.016 164.264ZM214.976 156.936C215.637 156.936 216.229 157.112 216.752 157.464C217.285 157.805 217.701 158.291 218 158.92C218.298 159.539 218.448 160.248 218.448 161.048C218.448 161.859 218.298 162.579 218 163.208C217.701 163.837 217.29 164.328 216.768 164.68C216.245 165.021 215.648 165.192 214.976 165.192C213.738 165.192 212.832 164.739 212.256 163.832V167.624C212.256 167.837 212.149 167.944 211.936 167.944H211.52C211.306 167.944 211.2 167.837 211.2 167.624V157.432C211.2 157.219 211.306 157.112 211.52 157.112H211.872C212.085 157.112 212.192 157.219 212.192 157.432V158.44C212.48 157.949 212.858 157.576 213.328 157.32C213.797 157.064 214.346 156.936 214.976 156.936ZM214.896 164.296C215.642 164.296 216.24 163.997 216.688 163.4C217.136 162.803 217.36 162.019 217.36 161.048C217.36 160.088 217.136 159.315 216.688 158.728C216.24 158.131 215.642 157.832 214.896 157.832C214.096 157.832 213.445 158.12 212.944 158.696C212.453 159.261 212.208 160.045 212.208 161.048C212.208 162.051 212.458 162.845 212.96 163.432C213.461 164.008 214.106 164.296 214.896 164.296ZM223.642 164.12C223.674 164.109 223.717 164.104 223.77 164.104C223.834 164.104 223.893 164.125 223.946 164.168C224 164.211 224.032 164.269 224.042 164.344L224.09 164.568C224.101 164.589 224.106 164.627 224.106 164.68C224.106 164.829 224.026 164.92 223.866 164.952C223.482 165.069 223.072 165.128 222.634 165.128C221.941 165.128 221.445 164.973 221.146 164.664C220.858 164.344 220.714 163.885 220.714 163.288V157.912H219.53C219.317 157.912 219.21 157.805 219.21 157.592V157.432C219.21 157.219 219.317 157.112 219.53 157.112H220.714V154.68C220.714 154.467 220.821 154.36 221.034 154.36H221.45C221.664 154.36 221.77 154.467 221.77 154.68V157.112H223.69C223.904 157.112 224.01 157.219 224.01 157.432V157.592C224.01 157.805 223.904 157.912 223.69 157.912H221.77V163.16C221.77 163.555 221.845 163.832 221.994 163.992C222.144 164.152 222.4 164.232 222.762 164.232C223.018 164.232 223.312 164.195 223.642 164.12ZM226.15 155.112C225.936 155.112 225.755 155.037 225.606 154.888C225.467 154.739 225.398 154.557 225.398 154.344C225.398 154.131 225.467 153.955 225.606 153.816C225.755 153.677 225.936 153.608 226.15 153.608C226.374 153.608 226.555 153.677 226.694 153.816C226.843 153.955 226.918 154.131 226.918 154.344C226.918 154.557 226.843 154.739 226.694 154.888C226.555 155.037 226.374 155.112 226.15 155.112ZM225.942 165C225.728 165 225.622 164.893 225.622 164.68V157.432C225.622 157.219 225.728 157.112 225.942 157.112H226.358C226.571 157.112 226.678 157.219 226.678 157.432V164.68C226.678 164.893 226.571 165 226.358 165H225.942ZM232.292 165.208C231.556 165.208 230.9 165.032 230.324 164.68C229.748 164.328 229.3 163.843 228.98 163.224C228.66 162.595 228.5 161.875 228.5 161.064C228.5 160.253 228.66 159.539 228.98 158.92C229.3 158.291 229.748 157.8 230.324 157.448C230.9 157.096 231.556 156.92 232.292 156.92C233.028 156.92 233.684 157.096 234.26 157.448C234.836 157.8 235.284 158.291 235.604 158.92C235.924 159.539 236.084 160.253 236.084 161.064C236.084 161.875 235.924 162.595 235.604 163.224C235.284 163.843 234.836 164.328 234.26 164.68C233.684 165.032 233.028 165.208 232.292 165.208ZM232.292 164.328C233.113 164.328 233.769 164.029 234.26 163.432C234.75 162.824 234.996 162.035 234.996 161.064C234.996 160.093 234.75 159.309 234.26 158.712C233.769 158.104 233.113 157.8 232.292 157.8C231.47 157.8 230.814 158.104 230.324 158.712C229.833 159.309 229.588 160.093 229.588 161.064C229.588 162.035 229.833 162.824 230.324 163.432C230.814 164.029 231.47 164.328 232.292 164.328ZM241.438 156.92C242.366 156.92 243.065 157.176 243.534 157.688C244.014 158.2 244.254 158.84 244.254 159.608V164.68C244.254 164.893 244.148 165 243.934 165H243.518C243.305 165 243.198 164.893 243.198 164.68V159.96C243.198 159.256 243.028 158.723 242.686 158.36C242.345 157.997 241.854 157.816 241.214 157.816C240.809 157.816 240.436 157.917 240.094 158.12C239.753 158.312 239.481 158.579 239.278 158.92C239.076 159.261 238.974 159.635 238.974 160.04V164.68C238.974 164.893 238.868 165 238.654 165H238.238C238.025 165 237.918 164.893 237.918 164.68V157.432C237.918 157.219 238.025 157.112 238.238 157.112H238.59C238.804 157.112 238.91 157.219 238.91 157.432V158.2C239.177 157.773 239.529 157.453 239.966 157.24C240.404 157.027 240.894 156.92 241.438 156.92ZM257.238 164.072C257.451 164.072 257.558 164.179 257.558 164.392V164.68C257.558 164.893 257.451 165 257.238 165H250.134C249.92 165 249.814 164.893 249.814 164.68V164.616C249.814 163.837 249.947 163.181 250.214 162.648C250.491 162.104 250.848 161.645 251.286 161.272C251.734 160.899 252.347 160.472 253.126 159.992C253.2 159.939 253.478 159.773 253.958 159.496C254.523 159.176 254.966 158.899 255.286 158.664C255.606 158.429 255.872 158.141 256.086 157.8C256.299 157.448 256.406 157.037 256.406 156.568C256.406 155.853 256.166 155.304 255.686 154.92C255.206 154.536 254.624 154.344 253.942 154.344C253.28 154.344 252.731 154.483 252.294 154.76C251.856 155.037 251.35 155.517 250.774 156.2C250.699 156.296 250.608 156.344 250.502 156.344C250.448 156.344 250.384 156.317 250.31 156.264L250.038 156.056C249.942 155.971 249.894 155.885 249.894 155.8C249.894 155.747 249.92 155.683 249.974 155.608C250.539 154.893 251.126 154.349 251.734 153.976C252.352 153.603 253.078 153.416 253.91 153.416C254.603 153.416 255.222 153.549 255.766 153.816C256.31 154.072 256.731 154.44 257.03 154.92C257.339 155.389 257.494 155.923 257.494 156.52C257.494 157.149 257.36 157.693 257.094 158.152C256.838 158.6 256.512 158.973 256.118 159.272C255.723 159.56 255.19 159.901 254.518 160.296L253.718 160.776C253.046 161.192 252.534 161.533 252.182 161.8C251.83 162.056 251.536 162.371 251.302 162.744C251.067 163.107 250.928 163.549 250.886 164.072H257.238Z" fill="#464646"/>
<rect x="174.5" y="189.5" width="15" height="15" rx="1.5" fill="#0063FB" stroke="#0063FB"/>
<path fill-rule="evenodd" clip-rule="evenodd" d="M178 197C178 196.558 178.358 196.2 178.8 196.2H185.2C185.642 196.2 186 196.558 186 197C186 197.442 185.642 197.8 185.2 197.8H178.8C178.358 197.8 178 197.442 178 197Z" fill="white"/>
<path d="M204.016 203.24C202.939 203.24 202 202.989 201.2 202.488C200.4 201.976 199.787 201.272 199.36 200.376C198.933 199.48 198.72 198.461 198.72 197.32C198.72 196.179 198.933 195.16 199.36 194.264C199.787 193.368 200.4 192.669 201.2 192.168C202 191.656 202.939 191.4 204.016 191.4C205.093 191.4 206.032 191.656 206.832 192.168C207.632 192.669 208.245 193.368 208.672 194.264C209.099 195.16 209.312 196.179 209.312 197.32C209.312 198.461 209.099 199.48 208.672 200.376C208.245 201.272 207.632 201.976 206.832 202.488C206.032 202.989 205.093 203.24 204.016 203.24ZM204.016 202.264C204.837 202.264 205.563 202.056 206.192 201.64C206.821 201.213 207.307 200.627 207.648 199.88C208 199.123 208.176 198.269 208.176 197.32C208.176 196.371 208 195.523 207.648 194.776C207.307 194.019 206.821 193.432 206.192 193.016C205.563 192.589 204.837 192.376 204.016 192.376C203.195 192.376 202.469 192.589 201.84 193.016C201.211 193.432 200.72 194.019 200.368 194.776C200.027 195.523 199.856 196.371 199.856 197.32C199.856 198.269 200.027 199.123 200.368 199.88C200.72 200.627 201.211 201.213 201.84 201.64C202.469 202.056 203.195 202.264 204.016 202.264ZM214.976 194.936C215.637 194.936 216.229 195.112 216.752 195.464C217.285 195.805 217.701 196.291 218 196.92C218.298 197.539 218.448 198.248 218.448 199.048C218.448 199.859 218.298 200.579 218 201.208C217.701 201.837 217.29 202.328 216.768 202.68C216.245 203.021 215.648 203.192 214.976 203.192C213.738 203.192 212.832 202.739 212.256 201.832V205.624C212.256 205.837 212.149 205.944 211.936 205.944H211.52C211.306 205.944 211.2 205.837 211.2 205.624V195.432C211.2 195.219 211.306 195.112 211.52 195.112H211.872C212.085 195.112 212.192 195.219 212.192 195.432V196.44C212.48 195.949 212.858 195.576 213.328 195.32C213.797 195.064 214.346 194.936 214.976 194.936ZM214.896 202.296C215.642 202.296 216.24 201.997 216.688 201.4C217.136 200.803 217.36 200.019 217.36 199.048C217.36 198.088 217.136 197.315 216.688 196.728C216.24 196.131 215.642 195.832 214.896 195.832C214.096 195.832 213.445 196.12 212.944 196.696C212.453 197.261 212.208 198.045 212.208 199.048C212.208 200.051 212.458 200.845 212.96 201.432C213.461 202.008 214.106 202.296 214.896 202.296ZM223.642 202.12C223.674 202.109 223.717 202.104 223.77 202.104C223.834 202.104 223.893 202.125 223.946 202.168C224 202.211 224.032 202.269 224.042 202.344L224.09 202.568C224.101 202.589 224.106 202.627 224.106 202.68C224.106 202.829 224.026 202.92 223.866 202.952C223.482 203.069 223.072 203.128 222.634 203.128C221.941 203.128 221.445 202.973 221.146 202.664C220.858 202.344 220.714 201.885 220.714 201.288V195.912H219.53C219.317 195.912 219.21 195.805 219.21 195.592V195.432C219.21 195.219 219.317 195.112 219.53 195.112H220.714V192.68C220.714 192.467 220.821 192.36 221.034 192.36H221.45C221.664 192.36 221.77 192.467 221.77 192.68V195.112H223.69C223.904 195.112 224.01 195.219 224.01 195.432V195.592C224.01 195.805 223.904 195.912 223.69 195.912H221.77V201.16C221.77 201.555 221.845 201.832 221.994 201.992C222.144 202.152 222.4 202.232 222.762 202.232C223.018 202.232 223.312 202.195 223.642 202.12ZM226.15 193.112C225.936 193.112 225.755 193.037 225.606 192.888C225.467 192.739 225.398 192.557 225.398 192.344C225.398 192.131 225.467 191.955 225.606 191.816C225.755 191.677 225.936 191.608 226.15 191.608C226.374 191.608 226.555 191.677 226.694 191.816C226.843 191.955 226.918 192.131 226.918 192.344C226.918 192.557 226.843 192.739 226.694 192.888C226.555 193.037 226.374 193.112 226.15 193.112ZM225.942 203C225.728 203 225.622 202.893 225.622 202.68V195.432C225.622 195.219 225.728 195.112 225.942 195.112H226.358C226.571 195.112 226.678 195.219 226.678 195.432V202.68C226.678 202.893 226.571 203 226.358 203H225.942ZM232.292 203.208C231.556 203.208 230.9 203.032 230.324 202.68C229.748 202.328 229.3 201.843 228.98 201.224C228.66 200.595 228.5 199.875 228.5 199.064C228.5 198.253 228.66 197.539 228.98 196.92C229.3 196.291 229.748 195.8 230.324 195.448C230.9 195.096 231.556 194.92 232.292 194.92C233.028 194.92 233.684 195.096 234.26 195.448C234.836 195.8 235.284 196.291 235.604 196.92C235.924 197.539 236.084 198.253 236.084 199.064C236.084 199.875 235.924 200.595 235.604 201.224C235.284 201.843 234.836 202.328 234.26 202.68C233.684 203.032 233.028 203.208 232.292 203.208ZM232.292 202.328C233.113 202.328 233.769 202.029 234.26 201.432C234.75 200.824 234.996 200.035 234.996 199.064C234.996 198.093 234.75 197.309 234.26 196.712C233.769 196.104 233.113 195.8 232.292 195.8C231.47 195.8 230.814 196.104 230.324 196.712C229.833 197.309 229.588 198.093 229.588 199.064C229.588 200.035 229.833 200.824 230.324 201.432C230.814 202.029 231.47 202.328 232.292 202.328ZM241.438 194.92C242.366 194.92 243.065 195.176 243.534 195.688C244.014 196.2 244.254 196.84 244.254 197.608V202.68C244.254 202.893 244.148 203 243.934 203H243.518C243.305 203 243.198 202.893 243.198 202.68V197.96C243.198 197.256 243.028 196.723 242.686 196.36C242.345 195.997 241.854 195.816 241.214 195.816C240.809 195.816 240.436 195.917 240.094 196.12C239.753 196.312 239.481 196.579 239.278 196.92C239.076 197.261 238.974 197.635 238.974 198.04V202.68C238.974 202.893 238.868 203 238.654 203H238.238C238.025 203 237.918 202.893 237.918 202.68V195.432C237.918 195.219 238.025 195.112 238.238 195.112H238.59C238.804 195.112 238.91 195.219 238.91 195.432V196.2C239.177 195.773 239.529 195.453 239.966 195.24C240.404 195.027 240.894 194.92 241.438 194.92ZM253.702 196.248C254.832 196.248 255.75 196.536 256.454 197.112C257.158 197.688 257.51 198.509 257.51 199.576C257.51 200.173 257.36 200.755 257.062 201.32C256.774 201.885 256.342 202.349 255.766 202.712C255.19 203.064 254.496 203.24 253.686 203.24C253.014 203.24 252.368 203.144 251.75 202.952C251.142 202.749 250.518 202.445 249.878 202.04C249.771 201.976 249.718 201.891 249.718 201.784C249.718 201.709 249.739 201.645 249.782 201.592L249.99 201.304C250.054 201.208 250.134 201.16 250.23 201.16C250.315 201.16 250.384 201.181 250.438 201.224C251.067 201.619 251.622 201.901 252.102 202.072C252.592 202.232 253.11 202.312 253.654 202.312C254.208 202.312 254.694 202.195 255.11 201.96C255.526 201.715 255.846 201.389 256.07 200.984C256.304 200.568 256.422 200.104 256.422 199.592C256.422 198.824 256.176 198.221 255.686 197.784C255.195 197.347 254.464 197.128 253.494 197.128C253.088 197.128 252.731 197.171 252.422 197.256C252.39 197.267 252.347 197.272 252.294 197.272C252.176 197.272 252.08 197.219 252.006 197.112L251.83 196.872C251.776 196.787 251.75 196.712 251.75 196.648C251.75 196.563 251.787 196.488 251.862 196.424L255.894 192.568H250.486C250.272 192.568 250.166 192.461 250.166 192.248V191.96C250.166 191.747 250.272 191.64 250.486 191.64H256.918C257.131 191.64 257.238 191.747 257.238 191.96V192.312C257.238 192.461 257.179 192.595 257.062 192.712L253.318 196.264L253.702 196.248Z" fill="#464646"/>
<path d="M90.5708 118.72C90.5708 118.56 90.6508 118.48 90.8108 118.48H91.1588C91.3188 118.48 91.3988 118.56 91.3988 118.72V126.76C91.3988 126.92 91.3188 127 91.1588 127H90.6188C90.4908 127 90.3908 126.948 90.3188 126.844L87.7388 122.932L87.5948 122.704C86.6348 121.264 85.9468 120.204 85.5308 119.524C85.5628 120.46 85.5788 121.54 85.5788 122.764V126.76C85.5788 126.92 85.4988 127 85.3388 127H84.9908C84.8308 127 84.7508 126.92 84.7508 126.76V118.72C84.7508 118.56 84.8308 118.48 84.9908 118.48H85.5308C85.6588 118.48 85.7588 118.532 85.8308 118.636L88.3988 122.536L88.8548 123.244C89.6628 124.468 90.2508 125.38 90.6188 125.98C90.5868 125.028 90.5708 123.944 90.5708 122.728V118.72ZM95.7618 127.156C95.2098 127.156 94.7178 127.024 94.2858 126.76C93.8538 126.496 93.5178 126.132 93.2778 125.668C93.0378 125.196 92.9178 124.656 92.9178 124.048C92.9178 123.44 93.0378 122.904 93.2778 122.44C93.5178 121.968 93.8538 121.6 94.2858 121.336C94.7178 121.072 95.2098 120.94 95.7618 120.94C96.3138 120.94 96.8058 121.072 97.2378 121.336C97.6698 121.6 98.0058 121.968 98.2458 122.44C98.4858 122.904 98.6058 123.44 98.6058 124.048C98.6058 124.656 98.4858 125.196 98.2458 125.668C98.0058 126.132 97.6698 126.496 97.2378 126.76C96.8058 127.024 96.3138 127.156 95.7618 127.156ZM95.7618 126.496C96.3778 126.496 96.8698 126.272 97.2378 125.824C97.6058 125.368 97.7898 124.776 97.7898 124.048C97.7898 123.32 97.6058 122.732 97.2378 122.284C96.8698 121.828 96.3778 121.6 95.7618 121.6C95.1458 121.6 94.6538 121.828 94.2858 122.284C93.9178 122.732 93.7338 123.32 93.7338 124.048C93.7338 124.776 93.9178 125.368 94.2858 125.824C94.6538 126.272 95.1458 126.496 95.7618 126.496ZM102.47 126.34C102.494 126.332 102.526 126.328 102.566 126.328C102.614 126.328 102.658 126.344 102.698 126.376C102.738 126.408 102.762 126.452 102.77 126.508L102.806 126.676C102.814 126.692 102.818 126.72 102.818 126.76C102.818 126.872 102.758 126.94 102.638 126.964C102.35 127.052 102.042 127.096 101.714 127.096C101.194 127.096 100.822 126.98 100.598 126.748C100.382 126.508 100.274 126.164 100.274 125.716V121.684H99.386C99.226 121.684 99.146 121.604 99.146 121.444V121.324C99.146 121.164 99.226 121.084 99.386 121.084H100.274V119.26C100.274 119.1 100.354 119.02 100.514 119.02H100.826C100.986 119.02 101.066 119.1 101.066 119.26V121.084H102.506C102.666 121.084 102.746 121.164 102.746 121.324V121.444C102.746 121.604 102.666 121.684 102.506 121.684H101.066V125.62C101.066 125.916 101.122 126.124 101.234 126.244C101.346 126.364 101.538 126.424 101.81 126.424C102.002 126.424 102.222 126.396 102.47 126.34ZM108.784 127.156C108.296 127.156 107.864 127.088 107.488 126.952C107.12 126.808 106.732 126.568 106.324 126.232C106.252 126.184 106.216 126.128 106.216 126.064C106.216 126.008 106.244 125.952 106.3 125.896L106.456 125.728C106.504 125.664 106.564 125.632 106.636 125.632C106.692 125.632 106.744 125.656 106.792 125.704C107.176 126 107.516 126.208 107.812 126.328C108.108 126.44 108.432 126.496 108.784 126.496C109.224 126.496 109.584 126.4 109.864 126.208C110.144 126.008 110.284 125.74 110.284 125.404C110.284 125.068 110.14 124.82 109.852 124.66C109.564 124.5 109.12 124.356 108.52 124.228C107.992 124.116 107.576 124 107.272 123.88C106.976 123.752 106.756 123.592 106.612 123.4C106.468 123.208 106.396 122.956 106.396 122.644C106.396 122.132 106.604 121.72 107.02 121.408C107.436 121.096 107.96 120.94 108.592 120.94C109.024 120.94 109.408 120.996 109.744 121.108C110.088 121.212 110.432 121.388 110.776 121.636C110.848 121.692 110.884 121.752 110.884 121.816C110.884 121.856 110.864 121.908 110.824 121.972L110.68 122.152C110.64 122.216 110.584 122.248 110.512 122.248C110.448 122.248 110.392 122.228 110.344 122.188C110.016 121.956 109.724 121.8 109.468 121.72C109.22 121.64 108.936 121.6 108.616 121.6C108.176 121.6 107.824 121.696 107.56 121.888C107.296 122.08 107.164 122.324 107.164 122.62C107.164 122.804 107.224 122.952 107.344 123.064C107.464 123.176 107.636 123.272 107.86 123.352C108.084 123.424 108.412 123.508 108.844 123.604C109.644 123.78 110.212 123.996 110.548 124.252C110.892 124.508 111.064 124.88 111.064 125.368C111.064 125.904 110.852 126.336 110.428 126.664C110.004 126.992 109.456 127.156 108.784 127.156ZM116.712 125.596C116.768 125.54 116.828 125.512 116.892 125.512C116.948 125.512 117 125.536 117.048 125.584L117.204 125.728C117.26 125.784 117.288 125.844 117.288 125.908C117.288 125.956 117.264 126.012 117.216 126.076C116.824 126.468 116.444 126.748 116.076 126.916C115.708 127.076 115.296 127.156 114.84 127.156C114.264 127.156 113.764 127.028 113.34 126.772C112.916 126.516 112.588 126.16 112.356 125.704C112.124 125.24 112.008 124.704 112.008 124.096C112.008 123.48 112.12 122.936 112.344 122.464C112.576 121.984 112.9 121.612 113.316 121.348C113.732 121.076 114.212 120.94 114.756 120.94C115.564 120.94 116.2 121.192 116.664 121.696C117.128 122.2 117.36 122.88 117.36 123.736V123.88C117.352 123.952 117.324 124.008 117.276 124.048C117.236 124.088 117.18 124.108 117.108 124.108H112.812C112.836 124.78 113.012 125.348 113.34 125.812C113.676 126.268 114.176 126.496 114.84 126.496C115.2 126.496 115.516 126.432 115.788 126.304C116.068 126.168 116.376 125.932 116.712 125.596ZM114.756 121.6C114.228 121.6 113.792 121.764 113.448 122.092C113.112 122.412 112.908 122.884 112.836 123.508H116.568C116.552 122.924 116.384 122.46 116.064 122.116C115.744 121.772 115.308 121.6 114.756 121.6ZM119.031 127C118.871 127 118.791 126.92 118.791 126.76V118.72C118.791 118.56 118.871 118.48 119.031 118.48H119.343C119.503 118.48 119.583 118.56 119.583 118.72V126.76C119.583 126.92 119.503 127 119.343 127H119.031ZM125.676 125.596C125.732 125.54 125.792 125.512 125.856 125.512C125.912 125.512 125.964 125.536 126.012 125.584L126.168 125.728C126.224 125.784 126.252 125.844 126.252 125.908C126.252 125.956 126.228 126.012 126.18 126.076C125.788 126.468 125.408 126.748 125.04 126.916C124.672 127.076 124.26 127.156 123.804 127.156C123.228 127.156 122.728 127.028 122.304 126.772C121.88 126.516 121.552 126.16 121.32 125.704C121.088 125.24 120.972 124.704 120.972 124.096C120.972 123.48 121.084 122.936 121.308 122.464C121.54 121.984 121.864 121.612 122.28 121.348C122.696 121.076 123.176 120.94 123.72 120.94C124.528 120.94 125.164 121.192 125.628 121.696C126.092 122.2 126.324 122.88 126.324 123.736V123.88C126.316 123.952 126.288 124.008 126.24 124.048C126.2 124.088 126.144 124.108 126.072 124.108H121.776C121.8 124.78 121.976 125.348 122.304 125.812C122.64 126.268 123.14 126.496 123.804 126.496C124.164 126.496 124.48 126.432 124.752 126.304C125.032 126.168 125.34 125.932 125.676 125.596ZM123.72 121.6C123.192 121.6 122.756 121.764 122.412 122.092C122.076 122.412 121.872 122.884 121.8 123.508H125.532C125.516 122.924 125.348 122.46 125.028 122.116C124.708 121.772 124.272 121.6 123.72 121.6ZM130.155 127.156C129.587 127.156 129.091 127.028 128.667 126.772C128.251 126.508 127.927 126.144 127.695 125.68C127.471 125.208 127.359 124.664 127.359 124.048C127.359 123.44 127.471 122.9 127.695 122.428C127.927 121.956 128.251 121.592 128.667 121.336C129.091 121.072 129.579 120.94 130.131 120.94C130.579 120.94 130.971 121.016 131.307 121.168C131.643 121.312 131.967 121.552 132.279 121.888C132.327 121.936 132.351 121.988 132.351 122.044C132.351 122.116 132.319 122.176 132.255 122.224L132.087 122.38C132.039 122.428 131.983 122.452 131.919 122.452C131.863 122.452 131.803 122.42 131.739 122.356C131.459 122.076 131.191 121.88 130.935 121.768C130.687 121.656 130.411 121.6 130.107 121.6C129.691 121.6 129.335 121.716 129.039 121.948C128.751 122.18 128.535 122.484 128.391 122.86C128.247 123.228 128.175 123.624 128.175 124.048C128.175 124.472 128.247 124.872 128.391 125.248C128.535 125.616 128.755 125.916 129.051 126.148C129.347 126.372 129.711 126.484 130.143 126.484C130.463 126.484 130.743 126.428 130.983 126.316C131.231 126.196 131.507 125.972 131.811 125.644C131.875 125.58 131.935 125.548 131.991 125.548C132.055 125.548 132.111 125.572 132.159 125.62L132.327 125.752C132.383 125.8 132.411 125.856 132.411 125.92C132.411 125.984 132.375 126.06 132.303 126.148C131.967 126.516 131.631 126.776 131.295 126.928C130.959 127.08 130.579 127.156 130.155 127.156ZM136.396 126.34C136.42 126.332 136.452 126.328 136.492 126.328C136.54 126.328 136.584 126.344 136.624 126.376C136.664 126.408 136.688 126.452 136.696 126.508L136.732 126.676C136.74 126.692 136.744 126.72 136.744 126.76C136.744 126.872 136.684 126.94 136.564 126.964C136.276 127.052 135.968 127.096 135.64 127.096C135.12 127.096 134.748 126.98 134.524 126.748C134.308 126.508 134.2 126.164 134.2 125.716V121.684H133.312C133.152 121.684 133.072 121.604 133.072 121.444V121.324C133.072 121.164 133.152 121.084 133.312 121.084H134.2V119.26C134.2 119.1 134.28 119.02 134.44 119.02H134.752C134.912 119.02 134.992 119.1 134.992 119.26V121.084H136.432C136.592 121.084 136.672 121.164 136.672 121.324V121.444C136.672 121.604 136.592 121.684 136.432 121.684H134.992V125.62C134.992 125.916 135.048 126.124 135.16 126.244C135.272 126.364 135.464 126.424 135.736 126.424C135.928 126.424 136.148 126.396 136.396 126.34ZM141.966 125.596C142.022 125.54 142.082 125.512 142.146 125.512C142.202 125.512 142.254 125.536 142.302 125.584L142.458 125.728C142.514 125.784 142.542 125.844 142.542 125.908C142.542 125.956 142.518 126.012 142.47 126.076C142.078 126.468 141.698 126.748 141.33 126.916C140.962 127.076 140.55 127.156 140.094 127.156C139.518 127.156 139.018 127.028 138.594 126.772C138.17 126.516 137.842 126.16 137.61 125.704C137.378 125.24 137.262 124.704 137.262 124.096C137.262 123.48 137.374 122.936 137.598 122.464C137.83 121.984 138.154 121.612 138.57 121.348C138.986 121.076 139.466 120.94 140.01 120.94C140.818 120.94 141.454 121.192 141.918 121.696C142.382 122.2 142.614 122.88 142.614 123.736V123.88C142.606 123.952 142.578 124.008 142.53 124.048C142.49 124.088 142.434 124.108 142.362 124.108H138.066C138.09 124.78 138.266 125.348 138.594 125.812C138.93 126.268 139.43 126.496 140.094 126.496C140.454 126.496 140.77 126.432 141.042 126.304C141.322 126.168 141.63 125.932 141.966 125.596ZM140.01 121.6C139.482 121.6 139.046 121.764 138.702 122.092C138.366 122.412 138.162 122.884 138.09 123.508H141.822C141.806 122.924 141.638 122.46 141.318 122.116C140.998 121.772 140.562 121.6 140.01 121.6ZM148.316 118.72C148.316 118.56 148.396 118.48 148.556 118.48H148.868C149.028 118.48 149.108 118.56 149.108 118.72V126.76C149.108 126.92 149.028 127 148.868 127H148.616C148.456 127 148.376 126.92 148.376 126.76V125.98C148.16 126.356 147.876 126.644 147.524 126.844C147.172 127.044 146.756 127.144 146.276 127.144C145.772 127.144 145.324 127.016 144.932 126.76C144.54 126.496 144.232 126.132 144.008 125.668C143.784 125.196 143.672 124.656 143.672 124.048C143.672 123.44 143.784 122.904 144.008 122.44C144.24 121.968 144.556 121.604 144.956 121.348C145.356 121.084 145.804 120.952 146.3 120.952C147.212 120.952 147.884 121.292 148.316 121.972V118.72ZM146.336 126.472C146.936 126.472 147.42 126.26 147.788 125.836C148.164 125.404 148.352 124.808 148.352 124.048C148.352 123.296 148.164 122.704 147.788 122.272C147.42 121.84 146.936 121.624 146.336 121.624C145.784 121.624 145.336 121.848 144.992 122.296C144.656 122.744 144.488 123.328 144.488 124.048C144.488 124.776 144.656 125.364 144.992 125.812C145.328 126.252 145.776 126.472 146.336 126.472Z" fill="#767676"/>
<path d="M107.891 165.18C107.259 165.18 106.687 165.084 106.175 164.892C105.671 164.692 105.139 164.368 104.579 163.92C104.507 163.856 104.471 163.796 104.471 163.74C104.471 163.692 104.495 163.64 104.543 163.584L104.735 163.356C104.775 163.292 104.835 163.26 104.915 163.26C104.979 163.26 105.031 163.28 105.071 163.32C105.639 163.76 106.135 164.06 106.559 164.22C106.983 164.372 107.427 164.448 107.891 164.448C108.539 164.448 109.067 164.288 109.475 163.968C109.883 163.64 110.087 163.196 110.087 162.636C110.087 162.276 109.991 161.988 109.799 161.772C109.607 161.556 109.343 161.388 109.007 161.268C108.679 161.148 108.211 161.02 107.603 160.884C106.875 160.724 106.307 160.552 105.899 160.368C105.499 160.184 105.207 159.952 105.023 159.672C104.839 159.392 104.747 159.032 104.747 158.592C104.747 158.128 104.879 157.724 105.143 157.38C105.415 157.028 105.775 156.76 106.223 156.576C106.671 156.392 107.155 156.3 107.675 156.3C108.243 156.3 108.759 156.384 109.223 156.552C109.695 156.72 110.159 156.988 110.615 157.356C110.687 157.404 110.723 157.46 110.723 157.524C110.723 157.572 110.699 157.628 110.651 157.692L110.471 157.908C110.431 157.972 110.371 158.004 110.291 158.004C110.227 158.004 110.171 157.984 110.123 157.944C109.715 157.608 109.319 157.372 108.935 157.236C108.559 157.1 108.143 157.032 107.687 157.032C107.271 157.032 106.903 157.1 106.583 157.236C106.263 157.364 106.011 157.544 105.827 157.776C105.651 158.008 105.563 158.272 105.563 158.568C105.563 158.888 105.651 159.144 105.827 159.336C106.011 159.528 106.263 159.68 106.583 159.792C106.911 159.904 107.387 160.032 108.011 160.176C108.731 160.344 109.299 160.532 109.715 160.74C110.139 160.948 110.447 161.204 110.639 161.508C110.831 161.804 110.927 162.172 110.927 162.612C110.927 163.124 110.795 163.576 110.531 163.968C110.275 164.352 109.915 164.652 109.451 164.868C108.987 165.076 108.467 165.18 107.891 165.18ZM116.712 163.596C116.768 163.54 116.828 163.512 116.892 163.512C116.948 163.512 117 163.536 117.048 163.584L117.204 163.728C117.26 163.784 117.288 163.844 117.288 163.908C117.288 163.956 117.264 164.012 117.216 164.076C116.824 164.468 116.444 164.748 116.076 164.916C115.708 165.076 115.296 165.156 114.84 165.156C114.264 165.156 113.764 165.028 113.34 164.772C112.916 164.516 112.588 164.16 112.356 163.704C112.124 163.24 112.008 162.704 112.008 162.096C112.008 161.48 112.12 160.936 112.344 160.464C112.576 159.984 112.9 159.612 113.316 159.348C113.732 159.076 114.212 158.94 114.756 158.94C115.564 158.94 116.2 159.192 116.664 159.696C117.128 160.2 117.36 160.88 117.36 161.736V161.88C117.352 161.952 117.324 162.008 117.276 162.048C117.236 162.088 117.18 162.108 117.108 162.108H112.812C112.836 162.78 113.012 163.348 113.34 163.812C113.676 164.268 114.176 164.496 114.84 164.496C115.2 164.496 115.516 164.432 115.788 164.304C116.068 164.168 116.376 163.932 116.712 163.596ZM114.756 159.6C114.228 159.6 113.792 159.764 113.448 160.092C113.112 160.412 112.908 160.884 112.836 161.508H116.568C116.552 160.924 116.384 160.46 116.064 160.116C115.744 159.772 115.308 159.6 114.756 159.6ZM119.031 165C118.871 165 118.791 164.92 118.791 164.76V156.72C118.791 156.56 118.871 156.48 119.031 156.48H119.343C119.503 156.48 119.583 156.56 119.583 156.72V164.76C119.583 164.92 119.503 165 119.343 165H119.031ZM125.676 163.596C125.732 163.54 125.792 163.512 125.856 163.512C125.912 163.512 125.964 163.536 126.012 163.584L126.168 163.728C126.224 163.784 126.252 163.844 126.252 163.908C126.252 163.956 126.228 164.012 126.18 164.076C125.788 164.468 125.408 164.748 125.04 164.916C124.672 165.076 124.26 165.156 123.804 165.156C123.228 165.156 122.728 165.028 122.304 164.772C121.88 164.516 121.552 164.16 121.32 163.704C121.088 163.24 120.972 162.704 120.972 162.096C120.972 161.48 121.084 160.936 121.308 160.464C121.54 159.984 121.864 159.612 122.28 159.348C122.696 159.076 123.176 158.94 123.72 158.94C124.528 158.94 125.164 159.192 125.628 159.696C126.092 160.2 126.324 160.88 126.324 161.736V161.88C126.316 161.952 126.288 162.008 126.24 162.048C126.2 162.088 126.144 162.108 126.072 162.108H121.776C121.8 162.78 121.976 163.348 122.304 163.812C122.64 164.268 123.14 164.496 123.804 164.496C124.164 164.496 124.48 164.432 124.752 164.304C125.032 164.168 125.34 163.932 125.676 163.596ZM123.72 159.6C123.192 159.6 122.756 159.764 122.412 160.092C122.076 160.412 121.872 160.884 121.8 161.508H125.532C125.516 160.924 125.348 160.46 125.028 160.116C124.708 159.772 124.272 159.6 123.72 159.6ZM130.155 165.156C129.587 165.156 129.091 165.028 128.667 164.772C128.251 164.508 127.927 164.144 127.695 163.68C127.471 163.208 127.359 162.664 127.359 162.048C127.359 161.44 127.471 160.9 127.695 160.428C127.927 159.956 128.251 159.592 128.667 159.336C129.091 159.072 129.579 158.94 130.131 158.94C130.579 158.94 130.971 159.016 131.307 159.168C131.643 159.312 131.967 159.552 132.279 159.888C132.327 159.936 132.351 159.988 132.351 160.044C132.351 160.116 132.319 160.176 132.255 160.224L132.087 160.38C132.039 160.428 131.983 160.452 131.919 160.452C131.863 160.452 131.803 160.42 131.739 160.356C131.459 160.076 131.191 159.88 130.935 159.768C130.687 159.656 130.411 159.6 130.107 159.6C129.691 159.6 129.335 159.716 129.039 159.948C128.751 160.18 128.535 160.484 128.391 160.86C128.247 161.228 128.175 161.624 128.175 162.048C128.175 162.472 128.247 162.872 128.391 163.248C128.535 163.616 128.755 163.916 129.051 164.148C129.347 164.372 129.711 164.484 130.143 164.484C130.463 164.484 130.743 164.428 130.983 164.316C131.231 164.196 131.507 163.972 131.811 163.644C131.875 163.58 131.935 163.548 131.991 163.548C132.055 163.548 132.111 163.572 132.159 163.62L132.327 163.752C132.383 163.8 132.411 163.856 132.411 163.92C132.411 163.984 132.375 164.06 132.303 164.148C131.967 164.516 131.631 164.776 131.295 164.928C130.959 165.08 130.579 165.156 130.155 165.156ZM136.396 164.34C136.42 164.332 136.452 164.328 136.492 164.328C136.54 164.328 136.584 164.344 136.624 164.376C136.664 164.408 136.688 164.452 136.696 164.508L136.732 164.676C136.74 164.692 136.744 164.72 136.744 164.76C136.744 164.872 136.684 164.94 136.564 164.964C136.276 165.052 135.968 165.096 135.64 165.096C135.12 165.096 134.748 164.98 134.524 164.748C134.308 164.508 134.2 164.164 134.2 163.716V159.684H133.312C133.152 159.684 133.072 159.604 133.072 159.444V159.324C133.072 159.164 133.152 159.084 133.312 159.084H134.2V157.26C134.2 157.1 134.28 157.02 134.44 157.02H134.752C134.912 157.02 134.992 157.1 134.992 157.26V159.084H136.432C136.592 159.084 136.672 159.164 136.672 159.324V159.444C136.672 159.604 136.592 159.684 136.432 159.684H134.992V163.62C134.992 163.916 135.048 164.124 135.16 164.244C135.272 164.364 135.464 164.424 135.736 164.424C135.928 164.424 136.148 164.396 136.396 164.34ZM141.966 163.596C142.022 163.54 142.082 163.512 142.146 163.512C142.202 163.512 142.254 163.536 142.302 163.584L142.458 163.728C142.514 163.784 142.542 163.844 142.542 163.908C142.542 163.956 142.518 164.012 142.47 164.076C142.078 164.468 141.698 164.748 141.33 164.916C140.962 165.076 140.55 165.156 140.094 165.156C139.518 165.156 139.018 165.028 138.594 164.772C138.17 164.516 137.842 164.16 137.61 163.704C137.378 163.24 137.262 162.704 137.262 162.096C137.262 161.48 137.374 160.936 137.598 160.464C137.83 159.984 138.154 159.612 138.57 159.348C138.986 159.076 139.466 158.94 140.01 158.94C140.818 158.94 141.454 159.192 141.918 159.696C142.382 160.2 142.614 160.88 142.614 161.736V161.88C142.606 161.952 142.578 162.008 142.53 162.048C142.49 162.088 142.434 162.108 142.362 162.108H138.066C138.09 162.78 138.266 163.348 138.594 163.812C138.93 164.268 139.43 164.496 140.094 164.496C140.454 164.496 140.77 164.432 141.042 164.304C141.322 164.168 141.63 163.932 141.966 163.596ZM140.01 159.6C139.482 159.6 139.046 159.764 138.702 160.092C138.366 160.412 138.162 160.884 138.09 161.508H141.822C141.806 160.924 141.638 160.46 141.318 160.116C140.998 159.772 140.562 159.6 140.01 159.6ZM148.316 156.72C148.316 156.56 148.396 156.48 148.556 156.48H148.868C149.028 156.48 149.108 156.56 149.108 156.72V164.76C149.108 164.92 149.028 165 148.868 165H148.616C148.456 165 148.376 164.92 148.376 164.76V163.98C148.16 164.356 147.876 164.644 147.524 164.844C147.172 165.044 146.756 165.144 146.276 165.144C145.772 165.144 145.324 165.016 144.932 164.76C144.54 164.496 144.232 164.132 144.008 163.668C143.784 163.196 143.672 162.656 143.672 162.048C143.672 161.44 143.784 160.904 144.008 160.44C144.24 159.968 144.556 159.604 144.956 159.348C145.356 159.084 145.804 158.952 146.3 158.952C147.212 158.952 147.884 159.292 148.316 159.972V156.72ZM146.336 164.472C146.936 164.472 147.42 164.26 147.788 163.836C148.164 163.404 148.352 162.808 148.352 162.048C148.352 161.296 148.164 160.704 147.788 160.272C147.42 159.84 146.936 159.624 146.336 159.624C145.784 159.624 145.336 159.848 144.992 160.296C144.656 160.744 144.488 161.328 144.488 162.048C144.488 162.776 144.656 163.364 144.992 163.812C145.328 164.252 145.776 164.472 146.336 164.472Z" fill="#767676"/>
<path d="M78.8638 203C78.7038 203 78.6238 202.92 78.6238 202.76V194.72C78.6238 194.56 78.7038 194.48 78.8638 194.48H79.2358C79.3958 194.48 79.4758 194.56 79.4758 194.72V202.76C79.4758 202.92 79.3958 203 79.2358 203H78.8638ZM84.1178 196.94C84.8138 196.94 85.3378 197.132 85.6898 197.516C86.0498 197.9 86.2298 198.38 86.2298 198.956V202.76C86.2298 202.92 86.1498 203 85.9898 203H85.6778C85.5178 203 85.4378 202.92 85.4378 202.76V199.22C85.4378 198.692 85.3098 198.292 85.0538 198.02C84.7978 197.748 84.4298 197.612 83.9498 197.612C83.6458 197.612 83.3658 197.688 83.1098 197.84C82.8538 197.984 82.6498 198.184 82.4978 198.44C82.3458 198.696 82.2698 198.976 82.2698 199.28V202.76C82.2698 202.92 82.1898 203 82.0298 203H81.7178C81.5578 203 81.4778 202.92 81.4778 202.76V197.324C81.4778 197.164 81.5578 197.084 81.7178 197.084H81.9818C82.1418 197.084 82.2218 197.164 82.2218 197.324V197.9C82.4218 197.58 82.6858 197.34 83.0138 197.18C83.3418 197.02 83.7098 196.94 84.1178 196.94ZM92.2538 194.72C92.2538 194.56 92.3338 194.48 92.4938 194.48H92.8058C92.9658 194.48 93.0458 194.56 93.0458 194.72V202.76C93.0458 202.92 92.9658 203 92.8058 203H92.5538C92.3938 203 92.3138 202.92 92.3138 202.76V201.98C92.0978 202.356 91.8138 202.644 91.4618 202.844C91.1098 203.044 90.6938 203.144 90.2138 203.144C89.7098 203.144 89.2618 203.016 88.8698 202.76C88.4778 202.496 88.1698 202.132 87.9458 201.668C87.7218 201.196 87.6098 200.656 87.6098 200.048C87.6098 199.44 87.7218 198.904 87.9458 198.44C88.1778 197.968 88.4938 197.604 88.8938 197.348C89.2938 197.084 89.7418 196.952 90.2378 196.952C91.1498 196.952 91.8218 197.292 92.2538 197.972V194.72ZM90.2738 202.472C90.8738 202.472 91.3578 202.26 91.7258 201.836C92.1018 201.404 92.2898 200.808 92.2898 200.048C92.2898 199.296 92.1018 198.704 91.7258 198.272C91.3578 197.84 90.8738 197.624 90.2738 197.624C89.7218 197.624 89.2738 197.848 88.9298 198.296C88.5938 198.744 88.4258 199.328 88.4258 200.048C88.4258 200.776 88.5938 201.364 88.9298 201.812C89.2658 202.252 89.7138 202.472 90.2738 202.472ZM99.1335 201.596C99.1895 201.54 99.2495 201.512 99.3135 201.512C99.3695 201.512 99.4215 201.536 99.4695 201.584L99.6255 201.728C99.6815 201.784 99.7095 201.844 99.7095 201.908C99.7095 201.956 99.6855 202.012 99.6375 202.076C99.2455 202.468 98.8655 202.748 98.4975 202.916C98.1295 203.076 97.7175 203.156 97.2615 203.156C96.6855 203.156 96.1855 203.028 95.7615 202.772C95.3375 202.516 95.0095 202.16 94.7775 201.704C94.5455 201.24 94.4295 200.704 94.4295 200.096C94.4295 199.48 94.5415 198.936 94.7655 198.464C94.9975 197.984 95.3215 197.612 95.7375 197.348C96.1535 197.076 96.6335 196.94 97.1775 196.94C97.9855 196.94 98.6215 197.192 99.0855 197.696C99.5495 198.2 99.7815 198.88 99.7815 199.736V199.88C99.7735 199.952 99.7455 200.008 99.6975 200.048C99.6575 200.088 99.6015 200.108 99.5295 200.108H95.2335C95.2575 200.78 95.4335 201.348 95.7615 201.812C96.0975 202.268 96.5975 202.496 97.2615 202.496C97.6215 202.496 97.9375 202.432 98.2095 202.304C98.4895 202.168 98.7975 201.932 99.1335 201.596ZM97.1775 197.6C96.6495 197.6 96.2135 197.764 95.8695 198.092C95.5335 198.412 95.3295 198.884 95.2575 199.508H98.9895C98.9735 198.924 98.8055 198.46 98.4855 198.116C98.1655 197.772 97.7295 197.6 97.1775 197.6ZM103.806 202.34C103.83 202.332 103.862 202.328 103.902 202.328C103.95 202.328 103.994 202.344 104.034 202.376C104.074 202.408 104.098 202.452 104.106 202.508L104.142 202.676C104.15 202.692 104.154 202.72 104.154 202.76C104.154 202.872 104.094 202.94 103.974 202.964C103.686 203.052 103.378 203.096 103.05 203.096C102.53 203.096 102.158 202.98 101.934 202.748C101.718 202.508 101.61 202.164 101.61 201.716V197.684H100.722C100.562 197.684 100.482 197.604 100.482 197.444V197.324C100.482 197.164 100.562 197.084 100.722 197.084H101.61V195.26C101.61 195.1 101.69 195.02 101.85 195.02H102.162C102.322 195.02 102.402 195.1 102.402 195.26V197.084H103.842C104.002 197.084 104.082 197.164 104.082 197.324V197.444C104.082 197.604 104.002 197.684 103.842 197.684H102.402V201.62C102.402 201.916 102.458 202.124 102.57 202.244C102.682 202.364 102.874 202.424 103.146 202.424C103.338 202.424 103.558 202.396 103.806 202.34ZM109.376 201.596C109.432 201.54 109.492 201.512 109.556 201.512C109.612 201.512 109.664 201.536 109.712 201.584L109.868 201.728C109.924 201.784 109.952 201.844 109.952 201.908C109.952 201.956 109.928 202.012 109.88 202.076C109.488 202.468 109.108 202.748 108.74 202.916C108.372 203.076 107.96 203.156 107.504 203.156C106.928 203.156 106.428 203.028 106.004 202.772C105.58 202.516 105.252 202.16 105.02 201.704C104.788 201.24 104.672 200.704 104.672 200.096C104.672 199.48 104.784 198.936 105.008 198.464C105.24 197.984 105.564 197.612 105.98 197.348C106.396 197.076 106.876 196.94 107.42 196.94C108.228 196.94 108.864 197.192 109.328 197.696C109.792 198.2 110.024 198.88 110.024 199.736V199.88C110.016 199.952 109.988 200.008 109.94 200.048C109.9 200.088 109.844 200.108 109.772 200.108H105.476C105.5 200.78 105.676 201.348 106.004 201.812C106.34 202.268 106.84 202.496 107.504 202.496C107.864 202.496 108.18 202.432 108.452 202.304C108.732 202.168 109.04 201.932 109.376 201.596ZM107.42 197.6C106.892 197.6 106.456 197.764 106.112 198.092C105.776 198.412 105.572 198.884 105.5 199.508H109.232C109.216 198.924 109.048 198.46 108.728 198.116C108.408 197.772 107.972 197.6 107.42 197.6ZM113.651 197.036C113.851 197.036 114.087 197.068 114.359 197.132C114.503 197.18 114.559 197.28 114.527 197.432L114.479 197.624C114.439 197.776 114.339 197.832 114.179 197.792C113.987 197.744 113.811 197.72 113.651 197.72C113.243 197.72 112.903 197.896 112.631 198.248C112.367 198.6 112.235 199.088 112.235 199.712V202.76C112.235 202.92 112.155 203 111.995 203H111.683C111.523 203 111.443 202.92 111.443 202.76V197.324C111.443 197.164 111.523 197.084 111.683 197.084H111.947C112.107 197.084 112.187 197.164 112.187 197.324V197.984C112.323 197.688 112.515 197.456 112.763 197.288C113.019 197.12 113.315 197.036 113.651 197.036ZM121.615 196.94C122.255 196.94 122.743 197.124 123.079 197.492C123.423 197.852 123.595 198.316 123.595 198.884V202.76C123.595 202.92 123.515 203 123.355 203H123.043C122.883 203 122.803 202.92 122.803 202.76V199.1C122.803 198.62 122.691 198.252 122.467 197.996C122.251 197.74 121.927 197.612 121.495 197.612C121.039 197.612 120.675 197.764 120.403 198.068C120.131 198.372 119.995 198.764 119.995 199.244V202.76C119.995 202.92 119.915 203 119.755 203H119.443C119.283 203 119.203 202.92 119.203 202.76V199.1C119.203 198.62 119.091 198.252 118.867 197.996C118.651 197.74 118.323 197.612 117.883 197.612C117.475 197.612 117.135 197.74 116.863 197.996C116.599 198.252 116.443 198.588 116.395 199.004V202.76C116.395 202.92 116.315 203 116.155 203H115.843C115.683 203 115.603 202.92 115.603 202.76V197.324C115.603 197.164 115.683 197.084 115.843 197.084H116.107C116.267 197.084 116.347 197.164 116.347 197.324V197.816C116.707 197.232 117.279 196.94 118.063 196.94C118.471 196.94 118.819 197.032 119.107 197.216C119.403 197.392 119.623 197.632 119.767 197.936C120.191 197.272 120.807 196.94 121.615 196.94ZM125.737 195.584C125.577 195.584 125.441 195.528 125.329 195.416C125.225 195.304 125.173 195.168 125.173 195.008C125.173 194.848 125.225 194.716 125.329 194.612C125.441 194.508 125.577 194.456 125.737 194.456C125.905 194.456 126.041 194.508 126.145 194.612C126.257 194.716 126.313 194.848 126.313 195.008C126.313 195.168 126.257 195.304 126.145 195.416C126.041 195.528 125.905 195.584 125.737 195.584ZM125.581 203C125.421 203 125.341 202.92 125.341 202.76V197.324C125.341 197.164 125.421 197.084 125.581 197.084H125.893C126.053 197.084 126.133 197.164 126.133 197.324V202.76C126.133 202.92 126.053 203 125.893 203H125.581ZM130.536 196.94C131.232 196.94 131.756 197.132 132.108 197.516C132.468 197.9 132.648 198.38 132.648 198.956V202.76C132.648 202.92 132.568 203 132.408 203H132.096C131.936 203 131.856 202.92 131.856 202.76V199.22C131.856 198.692 131.728 198.292 131.472 198.02C131.216 197.748 130.848 197.612 130.368 197.612C130.064 197.612 129.784 197.688 129.528 197.84C129.272 197.984 129.068 198.184 128.916 198.44C128.764 198.696 128.688 198.976 128.688 199.28V202.76C128.688 202.92 128.608 203 128.448 203H128.136C127.976 203 127.896 202.92 127.896 202.76V197.324C127.896 197.164 127.976 197.084 128.136 197.084H128.4C128.56 197.084 128.64 197.164 128.64 197.324V197.9C128.84 197.58 129.104 197.34 129.432 197.18C129.76 197.02 130.128 196.94 130.536 196.94ZM136.68 196.94C137.408 196.94 137.976 197.116 138.384 197.468C138.792 197.812 138.996 198.268 138.996 198.836V202.76C138.996 202.92 138.916 203 138.756 203H138.516C138.356 203 138.276 202.92 138.276 202.76V202.22C138.076 202.54 137.792 202.78 137.424 202.94C137.064 203.1 136.66 203.18 136.212 203.18C135.588 203.18 135.08 203.048 134.688 202.784C134.296 202.52 134.1 202.112 134.1 201.56C134.1 201.12 134.224 200.768 134.472 200.504C134.72 200.232 135.044 200.028 135.444 199.892C135.844 199.748 136.344 199.62 136.944 199.508L138.24 199.28V198.896C138.24 198.488 138.1 198.172 137.82 197.948C137.54 197.716 137.172 197.6 136.716 197.6C136.372 197.6 136.06 197.664 135.78 197.792C135.5 197.92 135.2 198.14 134.88 198.452C134.824 198.508 134.764 198.536 134.7 198.536C134.644 198.536 134.592 198.512 134.544 198.464L134.388 198.32C134.332 198.264 134.304 198.204 134.304 198.14C134.304 198.068 134.332 198.004 134.388 197.948C134.724 197.596 135.076 197.34 135.444 197.18C135.82 197.02 136.232 196.94 136.68 196.94ZM136.248 202.52C136.824 202.52 137.3 202.368 137.676 202.064C138.052 201.76 138.24 201.372 138.24 200.9V199.892L137.124 200.108C136.604 200.212 136.192 200.312 135.888 200.408C135.584 200.504 135.34 200.644 135.156 200.828C134.972 201.012 134.88 201.252 134.88 201.548C134.88 201.852 135 202.092 135.24 202.268C135.488 202.436 135.824 202.52 136.248 202.52ZM143.251 202.34C143.275 202.332 143.307 202.328 143.347 202.328C143.395 202.328 143.439 202.344 143.479 202.376C143.519 202.408 143.543 202.452 143.551 202.508L143.587 202.676C143.595 202.692 143.599 202.72 143.599 202.76C143.599 202.872 143.539 202.94 143.419 202.964C143.131 203.052 142.823 203.096 142.495 203.096C141.975 203.096 141.603 202.98 141.379 202.748C141.163 202.508 141.055 202.164 141.055 201.716V197.684H140.167C140.007 197.684 139.927 197.604 139.927 197.444V197.324C139.927 197.164 140.007 197.084 140.167 197.084H141.055V195.26C141.055 195.1 141.135 195.02 141.295 195.02H141.607C141.767 195.02 141.847 195.1 141.847 195.26V197.084H143.287C143.447 197.084 143.527 197.164 143.527 197.324V197.444C143.527 197.604 143.447 197.684 143.287 197.684H141.847V201.62C141.847 201.916 141.903 202.124 142.015 202.244C142.127 202.364 142.319 202.424 142.591 202.424C142.783 202.424 143.003 202.396 143.251 202.34ZM148.821 201.596C148.877 201.54 148.937 201.512 149.001 201.512C149.057 201.512 149.109 201.536 149.157 201.584L149.313 201.728C149.369 201.784 149.397 201.844 149.397 201.908C149.397 201.956 149.373 202.012 149.325 202.076C148.933 202.468 148.553 202.748 148.185 202.916C147.817 203.076 147.405 203.156 146.949 203.156C146.373 203.156 145.873 203.028 145.449 202.772C145.025 202.516 144.697 202.16 144.465 201.704C144.233 201.24 144.117 200.704 144.117 200.096C144.117 199.48 144.229 198.936 144.453 198.464C144.685 197.984 145.009 197.612 145.425 197.348C145.841 197.076 146.321 196.94 146.865 196.94C147.673 196.94 148.309 197.192 148.773 197.696C149.237 198.2 149.469 198.88 149.469 199.736V199.88C149.461 199.952 149.433 200.008 149.385 200.048C149.345 200.088 149.289 200.108 149.217 200.108H144.921C144.945 200.78 145.121 201.348 145.449 201.812C145.785 202.268 146.285 202.496 146.949 202.496C147.309 202.496 147.625 202.432 147.897 202.304C148.177 202.168 148.485 201.932 148.821 201.596ZM146.865 197.6C146.337 197.6 145.901 197.764 145.557 198.092C145.221 198.412 145.017 198.884 144.945 199.508H148.677C148.661 198.924 148.493 198.46 148.173 198.116C147.853 197.772 147.417 197.6 146.865 197.6Z" fill="#767676"/>
<path d="M209.463 52C209.303 52 209.223 51.92 209.223 51.76V43.72C209.223 43.56 209.303 43.48 209.463 43.48H209.835C209.995 43.48 210.075 43.56 210.075 43.72V51.292H213.903C214.063 51.292 214.143 51.372 214.143 51.532V51.76C214.143 51.92 214.063 52 213.903 52H209.463ZM217.746 45.94C218.474 45.94 219.042 46.116 219.45 46.468C219.858 46.812 220.062 47.268 220.062 47.836V51.76C220.062 51.92 219.982 52 219.822 52H219.582C219.422 52 219.342 51.92 219.342 51.76V51.22C219.142 51.54 218.858 51.78 218.49 51.94C218.13 52.1 217.726 52.18 217.278 52.18C216.654 52.18 216.146 52.048 215.754 51.784C215.362 51.52 215.166 51.112 215.166 50.56C215.166 50.12 215.29 49.768 215.538 49.504C215.786 49.232 216.11 49.028 216.51 48.892C216.91 48.748 217.41 48.62 218.01 48.508L219.306 48.28V47.896C219.306 47.488 219.166 47.172 218.886 46.948C218.606 46.716 218.238 46.6 217.782 46.6C217.438 46.6 217.126 46.664 216.846 46.792C216.566 46.92 216.266 47.14 215.946 47.452C215.89 47.508 215.83 47.536 215.766 47.536C215.71 47.536 215.658 47.512 215.61 47.464L215.454 47.32C215.398 47.264 215.37 47.204 215.37 47.14C215.37 47.068 215.398 47.004 215.454 46.948C215.79 46.596 216.142 46.34 216.51 46.18C216.886 46.02 217.298 45.94 217.746 45.94ZM217.314 51.52C217.89 51.52 218.366 51.368 218.742 51.064C219.118 50.76 219.306 50.372 219.306 49.9V48.892L218.19 49.108C217.67 49.212 217.258 49.312 216.954 49.408C216.65 49.504 216.406 49.644 216.222 49.828C216.038 50.012 215.946 50.252 215.946 50.548C215.946 50.852 216.066 51.092 216.306 51.268C216.554 51.436 216.89 51.52 217.314 51.52ZM224.65 45.952C225.154 45.952 225.602 46.084 225.994 46.348C226.394 46.604 226.702 46.968 226.918 47.44C227.142 47.904 227.254 48.44 227.254 49.048C227.254 49.656 227.142 50.196 226.918 50.668C226.694 51.132 226.382 51.496 225.982 51.76C225.59 52.016 225.146 52.144 224.65 52.144C223.698 52.144 223.002 51.776 222.562 51.04V51.76C222.562 51.92 222.482 52 222.322 52H222.058C221.898 52 221.818 51.92 221.818 51.76V43.708C221.818 43.548 221.898 43.468 222.058 43.468H222.37C222.53 43.468 222.61 43.548 222.61 43.708V47.02C223.05 46.308 223.73 45.952 224.65 45.952ZM224.59 51.472C225.142 51.472 225.586 51.248 225.922 50.8C226.266 50.352 226.438 49.768 226.438 49.048C226.438 48.328 226.266 47.744 225.922 47.296C225.586 46.848 225.142 46.624 224.59 46.624C223.998 46.624 223.514 46.84 223.138 47.272C222.762 47.704 222.574 48.296 222.574 49.048C222.574 49.808 222.758 50.404 223.126 50.836C223.502 51.26 223.99 51.472 224.59 51.472ZM233.04 50.596C233.096 50.54 233.156 50.512 233.22 50.512C233.276 50.512 233.328 50.536 233.376 50.584L233.532 50.728C233.588 50.784 233.616 50.844 233.616 50.908C233.616 50.956 233.592 51.012 233.544 51.076C233.152 51.468 232.772 51.748 232.404 51.916C232.036 52.076 231.624 52.156 231.168 52.156C230.592 52.156 230.092 52.028 229.668 51.772C229.244 51.516 228.916 51.16 228.684 50.704C228.452 50.24 228.336 49.704 228.336 49.096C228.336 48.48 228.448 47.936 228.672 47.464C228.904 46.984 229.228 46.612 229.644 46.348C230.06 46.076 230.54 45.94 231.084 45.94C231.892 45.94 232.528 46.192 232.992 46.696C233.456 47.2 233.688 47.88 233.688 48.736V48.88C233.68 48.952 233.652 49.008 233.604 49.048C233.564 49.088 233.508 49.108 233.436 49.108H229.14C229.164 49.78 229.34 50.348 229.668 50.812C230.004 51.268 230.504 51.496 231.168 51.496C231.528 51.496 231.844 51.432 232.116 51.304C232.396 51.168 232.704 50.932 233.04 50.596ZM231.084 46.6C230.556 46.6 230.12 46.764 229.776 47.092C229.44 47.412 229.236 47.884 229.164 48.508H232.896C232.88 47.924 232.712 47.46 232.392 47.116C232.072 46.772 231.636 46.6 231.084 46.6ZM235.359 52C235.199 52 235.119 51.92 235.119 51.76V43.72C235.119 43.56 235.199 43.48 235.359 43.48H235.671C235.831 43.48 235.911 43.56 235.911 43.72V51.76C235.911 51.92 235.831 52 235.671 52H235.359Z" fill="#464646"/>
<path d="M222 102C222 102.552 222.448 103 223 103C223.552 103 224 102.552 224 102L222 102ZM222 60L222 102L224 102L224 60L222 60Z" fill="#06BEFB"/>
<circle cx="223" cy="105" r="3" fill="#06BEFB"/>
</svg>
