<svg width="344" height="168" viewBox="0 0 344 168" fill="none" xmlns="http://www.w3.org/2000/svg">
<rect width="344" height="168" fill="#F5F5F5"/>
<rect x="84.5" y="76.5" width="15" height="15" rx="1.5" fill="#0063FB" stroke="#0063FB"/>
<path d="M91.2264 85.5671L94.9035 81.1679C95.1789 80.8383 95.6694 80.7945 95.999 81.0699C96.3286 81.3454 96.3725 81.8359 96.097 82.1655L91.8713 87.2211C91.5771 87.573 91.0438 87.5953 90.7213 87.269L88.3359 84.8555C88.034 84.55 88.0368 84.0575 88.3424 83.7556C88.6479 83.4536 89.1403 83.4565 89.4423 83.762L91.2264 85.5671Z" fill="white"/>
<path d="M117.2 90C117.019 90 116.896 89.9147 116.832 89.744L115.776 86.816H110.608L109.568 89.744C109.504 89.9147 109.381 90 109.2 90H108.704C108.619 90 108.549 89.9787 108.496 89.936C108.443 89.8933 108.416 89.8347 108.416 89.76L108.448 89.632L112.368 78.896C112.432 78.7253 112.555 78.64 112.736 78.64H113.664C113.845 78.64 113.968 78.7253 114.032 78.896L117.952 89.632L117.984 89.76C117.984 89.8347 117.957 89.8933 117.904 89.936C117.851 89.9787 117.781 90 117.696 90H117.2ZM115.424 85.856L114.864 84.288L114.736 83.952C114.587 83.5467 114.341 82.8693 114 81.92C113.669 80.9707 113.397 80.1653 113.184 79.504C112.896 80.4107 112.443 81.728 111.824 83.456C111.781 83.5733 111.733 83.7013 111.68 83.84C111.627 83.9787 111.573 84.128 111.52 84.288L110.96 85.856H115.424ZM125.223 82.432C125.223 82.2187 125.33 82.112 125.543 82.112H125.879C126.092 82.112 126.199 82.2187 126.199 82.432V89.92C126.199 90.912 125.9 91.6907 125.303 92.256C124.706 92.832 123.868 93.12 122.791 93.12C121.628 93.12 120.556 92.7893 119.575 92.128C119.468 92.064 119.415 91.984 119.415 91.888C119.415 91.8133 119.436 91.7493 119.479 91.696L119.671 91.424C119.735 91.3173 119.82 91.264 119.927 91.264C119.97 91.264 120.034 91.2853 120.119 91.328C120.588 91.6267 121.026 91.8507 121.431 92C121.847 92.1493 122.3 92.224 122.791 92.224C123.495 92.224 124.066 92.0267 124.503 91.632C124.94 91.248 125.159 90.6507 125.159 89.84V88.56C124.583 89.488 123.708 89.952 122.535 89.952C121.852 89.952 121.25 89.7813 120.727 89.44C120.204 89.088 119.799 88.608 119.511 88C119.234 87.392 119.095 86.704 119.095 85.936C119.095 85.168 119.234 84.48 119.511 83.872C119.799 83.264 120.204 82.7893 120.727 82.448C121.25 82.096 121.852 81.92 122.535 81.92C123.154 81.92 123.687 82.0533 124.135 82.32C124.594 82.576 124.956 82.944 125.223 83.424V82.432ZM122.647 89.056C123.415 89.056 124.028 88.768 124.487 88.192C124.946 87.6053 125.175 86.8533 125.175 85.936C125.175 85.0187 124.946 84.272 124.487 83.696C124.028 83.1093 123.415 82.816 122.647 82.816C121.868 82.816 121.26 83.104 120.823 83.68C120.396 84.256 120.183 85.008 120.183 85.936C120.183 86.864 120.396 87.616 120.823 88.192C121.26 88.768 121.868 89.056 122.647 89.056ZM131.519 82.048C131.785 82.048 132.1 82.0907 132.463 82.176C132.655 82.24 132.729 82.3733 132.687 82.576L132.623 82.832C132.569 83.0347 132.436 83.1093 132.223 83.056C131.967 82.992 131.732 82.96 131.519 82.96C130.975 82.96 130.521 83.1947 130.159 83.664C129.807 84.1333 129.631 84.784 129.631 85.616V89.68C129.631 89.8933 129.524 90 129.311 90H128.895C128.681 90 128.575 89.8933 128.575 89.68V82.432C128.575 82.2187 128.681 82.112 128.895 82.112H129.247C129.46 82.112 129.567 82.2187 129.567 82.432V83.312C129.748 82.9173 130.004 82.608 130.335 82.384C130.676 82.16 131.071 82.048 131.519 82.048ZM139.428 88.128C139.503 88.0533 139.583 88.016 139.668 88.016C139.743 88.016 139.812 88.048 139.876 88.112L140.084 88.304C140.159 88.3787 140.196 88.4587 140.196 88.544C140.196 88.608 140.164 88.6827 140.1 88.768C139.577 89.2907 139.071 89.664 138.58 89.888C138.089 90.1013 137.54 90.208 136.932 90.208C136.164 90.208 135.497 90.0373 134.932 89.696C134.367 89.3547 133.929 88.88 133.62 88.272C133.311 87.6533 133.156 86.9387 133.156 86.128C133.156 85.3067 133.305 84.5813 133.604 83.952C133.913 83.312 134.345 82.816 134.9 82.464C135.455 82.1013 136.095 81.92 136.82 81.92C137.897 81.92 138.745 82.256 139.364 82.928C139.983 83.6 140.292 84.5067 140.292 85.648V85.84C140.281 85.936 140.244 86.0107 140.18 86.064C140.127 86.1173 140.052 86.144 139.956 86.144H134.228C134.26 87.04 134.495 87.7973 134.932 88.416C135.38 89.024 136.047 89.328 136.932 89.328C137.412 89.328 137.833 89.2427 138.196 89.072C138.569 88.8907 138.98 88.576 139.428 88.128ZM136.82 82.8C136.116 82.8 135.535 83.0187 135.076 83.456C134.628 83.8827 134.356 84.512 134.26 85.344H139.236C139.215 84.5653 138.991 83.9467 138.564 83.488C138.137 83.0293 137.556 82.8 136.82 82.8ZM147.944 88.128C148.018 88.0533 148.098 88.016 148.184 88.016C148.258 88.016 148.328 88.048 148.392 88.112L148.6 88.304C148.674 88.3787 148.712 88.4587 148.712 88.544C148.712 88.608 148.68 88.6827 148.616 88.768C148.093 89.2907 147.586 89.664 147.096 89.888C146.605 90.1013 146.056 90.208 145.448 90.208C144.68 90.208 144.013 90.0373 143.448 89.696C142.882 89.3547 142.445 88.88 142.136 88.272C141.826 87.6533 141.672 86.9387 141.672 86.128C141.672 85.3067 141.821 84.5813 142.12 83.952C142.429 83.312 142.861 82.816 143.416 82.464C143.97 82.1013 144.61 81.92 145.336 81.92C146.413 81.92 147.261 82.256 147.88 82.928C148.498 83.6 148.808 84.5067 148.808 85.648V85.84C148.797 85.936 148.76 86.0107 148.696 86.064C148.642 86.1173 148.568 86.144 148.472 86.144H142.744C142.776 87.04 143.01 87.7973 143.448 88.416C143.896 89.024 144.562 89.328 145.448 89.328C145.928 89.328 146.349 89.2427 146.712 89.072C147.085 88.8907 147.496 88.576 147.944 88.128ZM145.336 82.8C144.632 82.8 144.05 83.0187 143.592 83.456C143.144 83.8827 142.872 84.512 142.776 85.344H147.752C147.73 84.5653 147.506 83.9467 147.08 83.488C146.653 83.0293 146.072 82.8 145.336 82.8ZM157.939 89.12C157.971 89.1093 158.014 89.104 158.067 89.104C158.131 89.104 158.19 89.1253 158.243 89.168C158.296 89.2107 158.328 89.2693 158.339 89.344L158.387 89.568C158.398 89.5893 158.403 89.6267 158.403 89.68C158.403 89.8293 158.323 89.92 158.163 89.952C157.779 90.0693 157.368 90.128 156.931 90.128C156.238 90.128 155.742 89.9733 155.443 89.664C155.155 89.344 155.011 88.8853 155.011 88.288V82.912H153.827C153.614 82.912 153.507 82.8053 153.507 82.592V82.432C153.507 82.2187 153.614 82.112 153.827 82.112H155.011V79.68C155.011 79.4667 155.118 79.36 155.331 79.36H155.747C155.96 79.36 156.067 79.4667 156.067 79.68V82.112H157.987C158.2 82.112 158.307 82.2187 158.307 82.432V82.592C158.307 82.8053 158.2 82.912 157.987 82.912H156.067V88.16C156.067 88.5547 156.142 88.832 156.291 88.992C156.44 89.152 156.696 89.232 157.059 89.232C157.315 89.232 157.608 89.1947 157.939 89.12ZM162.886 90.208C162.15 90.208 161.494 90.032 160.918 89.68C160.342 89.328 159.894 88.8427 159.574 88.224C159.254 87.5947 159.094 86.8747 159.094 86.064C159.094 85.2533 159.254 84.5387 159.574 83.92C159.894 83.2907 160.342 82.8 160.918 82.448C161.494 82.096 162.15 81.92 162.886 81.92C163.622 81.92 164.278 82.096 164.854 82.448C165.43 82.8 165.878 83.2907 166.198 83.92C166.518 84.5387 166.678 85.2533 166.678 86.064C166.678 86.8747 166.518 87.5947 166.198 88.224C165.878 88.8427 165.43 89.328 164.854 89.68C164.278 90.032 163.622 90.208 162.886 90.208ZM162.886 89.328C163.707 89.328 164.363 89.0293 164.854 88.432C165.344 87.824 165.59 87.0347 165.59 86.064C165.59 85.0933 165.344 84.3093 164.854 83.712C164.363 83.104 163.707 82.8 162.886 82.8C162.064 82.8 161.408 83.104 160.918 83.712C160.427 84.3093 160.182 85.0933 160.182 86.064C160.182 87.0347 160.427 87.824 160.918 88.432C161.408 89.0293 162.064 89.328 162.886 89.328ZM175.752 89.12C175.784 89.1093 175.826 89.104 175.88 89.104C175.944 89.104 176.002 89.1253 176.056 89.168C176.109 89.2107 176.141 89.2693 176.152 89.344L176.2 89.568C176.21 89.5893 176.216 89.6267 176.216 89.68C176.216 89.8293 176.136 89.92 175.976 89.952C175.592 90.0693 175.181 90.128 174.744 90.128C174.05 90.128 173.554 89.9733 173.256 89.664C172.968 89.344 172.824 88.8853 172.824 88.288V82.912H171.64C171.426 82.912 171.32 82.8053 171.32 82.592V82.432C171.32 82.2187 171.426 82.112 171.64 82.112H172.824V79.68C172.824 79.4667 172.93 79.36 173.144 79.36H173.56C173.773 79.36 173.88 79.4667 173.88 79.68V82.112H175.8C176.013 82.112 176.12 82.2187 176.12 82.432V82.592C176.12 82.8053 176.013 82.912 175.8 82.912H173.88V88.16C173.88 88.5547 173.954 88.832 174.104 88.992C174.253 89.152 174.509 89.232 174.872 89.232C175.128 89.232 175.421 89.1947 175.752 89.12ZM183.178 88.128C183.253 88.0533 183.333 88.016 183.418 88.016C183.493 88.016 183.562 88.048 183.626 88.112L183.834 88.304C183.909 88.3787 183.946 88.4587 183.946 88.544C183.946 88.608 183.914 88.6827 183.85 88.768C183.327 89.2907 182.821 89.664 182.33 89.888C181.839 90.1013 181.29 90.208 180.682 90.208C179.914 90.208 179.247 90.0373 178.682 89.696C178.117 89.3547 177.679 88.88 177.37 88.272C177.061 87.6533 176.906 86.9387 176.906 86.128C176.906 85.3067 177.055 84.5813 177.354 83.952C177.663 83.312 178.095 82.816 178.65 82.464C179.205 82.1013 179.845 81.92 180.57 81.92C181.647 81.92 182.495 82.256 183.114 82.928C183.733 83.6 184.042 84.5067 184.042 85.648V85.84C184.031 85.936 183.994 86.0107 183.93 86.064C183.877 86.1173 183.802 86.144 183.706 86.144H177.978C178.01 87.04 178.245 87.7973 178.682 88.416C179.13 89.024 179.797 89.328 180.682 89.328C181.162 89.328 181.583 89.2427 181.946 89.072C182.319 88.8907 182.73 88.576 183.178 88.128ZM180.57 82.8C179.866 82.8 179.285 83.0187 178.826 83.456C178.378 83.8827 178.106 84.512 178.01 85.344H182.986C182.965 84.5653 182.741 83.9467 182.314 83.488C181.887 83.0293 181.306 82.8 180.57 82.8ZM188.878 82.048C189.145 82.048 189.459 82.0907 189.822 82.176C190.014 82.24 190.089 82.3733 190.046 82.576L189.982 82.832C189.929 83.0347 189.795 83.1093 189.582 83.056C189.326 82.992 189.091 82.96 188.878 82.96C188.334 82.96 187.881 83.1947 187.518 83.664C187.166 84.1333 186.99 84.784 186.99 85.616V89.68C186.99 89.8933 186.883 90 186.67 90H186.254C186.041 90 185.934 89.8933 185.934 89.68V82.432C185.934 82.2187 186.041 82.112 186.254 82.112H186.606C186.819 82.112 186.926 82.2187 186.926 82.432V83.312C187.107 82.9173 187.363 82.608 187.694 82.384C188.035 82.16 188.43 82.048 188.878 82.048ZM199.497 81.92C200.35 81.92 201.001 82.1653 201.449 82.656C201.908 83.136 202.137 83.7547 202.137 84.512V89.68C202.137 89.8933 202.03 90 201.817 90H201.401C201.188 90 201.081 89.8933 201.081 89.68V84.8C201.081 84.16 200.932 83.6693 200.633 83.328C200.345 82.9867 199.913 82.816 199.337 82.816C198.729 82.816 198.244 83.0187 197.881 83.424C197.518 83.8293 197.337 84.352 197.337 84.992V89.68C197.337 89.8933 197.23 90 197.017 90H196.601C196.388 90 196.281 89.8933 196.281 89.68V84.8C196.281 84.16 196.132 83.6693 195.833 83.328C195.545 82.9867 195.108 82.816 194.521 82.816C193.977 82.816 193.524 82.9867 193.161 83.328C192.809 83.6693 192.601 84.1173 192.537 84.672V89.68C192.537 89.8933 192.43 90 192.217 90H191.801C191.588 90 191.481 89.8933 191.481 89.68V82.432C191.481 82.2187 191.588 82.112 191.801 82.112H192.153C192.366 82.112 192.473 82.2187 192.473 82.432V83.088C192.953 82.3093 193.716 81.92 194.761 81.92C195.305 81.92 195.769 82.0427 196.153 82.288C196.548 82.5227 196.841 82.8427 197.033 83.248C197.598 82.3627 198.42 81.92 199.497 81.92ZM207.217 90.208C206.567 90.208 205.991 90.1173 205.489 89.936C204.999 89.744 204.481 89.424 203.937 88.976C203.841 88.912 203.793 88.8373 203.793 88.752C203.793 88.6773 203.831 88.6027 203.905 88.528L204.113 88.304C204.177 88.2187 204.257 88.176 204.353 88.176C204.428 88.176 204.497 88.208 204.561 88.272C205.073 88.6667 205.527 88.944 205.921 89.104C206.316 89.2533 206.748 89.328 207.217 89.328C207.804 89.328 208.284 89.2 208.657 88.944C209.031 88.6773 209.217 88.32 209.217 87.872C209.217 87.424 209.025 87.0933 208.641 86.88C208.257 86.6667 207.665 86.4747 206.865 86.304C206.161 86.1547 205.607 86 205.201 85.84C204.807 85.6693 204.513 85.456 204.321 85.2C204.129 84.944 204.033 84.608 204.033 84.192C204.033 83.5093 204.311 82.96 204.865 82.544C205.42 82.128 206.119 81.92 206.961 81.92C207.537 81.92 208.049 81.9947 208.497 82.144C208.956 82.2827 209.415 82.5173 209.873 82.848C209.969 82.9227 210.017 83.0027 210.017 83.088C210.017 83.1413 209.991 83.2107 209.937 83.296L209.745 83.536C209.692 83.6213 209.617 83.664 209.521 83.664C209.436 83.664 209.361 83.6373 209.297 83.584C208.86 83.2747 208.471 83.0667 208.129 82.96C207.799 82.8533 207.42 82.8 206.993 82.8C206.407 82.8 205.937 82.928 205.585 83.184C205.233 83.44 205.057 83.7653 205.057 84.16C205.057 84.4053 205.137 84.6027 205.297 84.752C205.457 84.9013 205.687 85.0293 205.985 85.136C206.284 85.232 206.721 85.344 207.297 85.472C208.364 85.7067 209.121 85.9947 209.569 86.336C210.028 86.6773 210.257 87.1733 210.257 87.824C210.257 88.5387 209.975 89.1147 209.409 89.552C208.844 89.9893 208.113 90.208 207.217 90.208Z" fill="#464646"/>
</svg>
