<svg width="344" height="222" viewBox="0 0 344 222" fill="none" xmlns="http://www.w3.org/2000/svg">
<rect width="344" height="222" fill="#F5F5F5"/>
<rect x="84.5" y="82.5" width="15" height="15" rx="1.5" fill="#0063FB" stroke="#0063FB"/>
<path d="M91.2264 91.5671L94.9035 87.1679C95.1789 86.8383 95.6694 86.7945 95.999 87.0699C96.3286 87.3454 96.3725 87.8359 96.097 88.1655L91.8713 93.2211C91.5771 93.573 91.0438 93.5953 90.7213 93.269L88.3359 90.8555C88.034 90.55 88.0368 90.0575 88.3424 89.7556C88.6479 89.4536 89.1403 89.4565 89.4423 89.762L91.2264 91.5671Z" fill="white"/>
<path d="M115.712 89.984C116.373 90.1867 116.896 90.528 117.28 91.008C117.675 91.488 117.872 92.0907 117.872 92.816C117.872 93.7867 117.557 94.56 116.928 95.136C116.299 95.712 115.456 96 114.4 96H109.696C109.483 96 109.376 95.8933 109.376 95.68V84.96C109.376 84.7467 109.483 84.64 109.696 84.64H114.208C115.189 84.64 115.979 84.8853 116.576 85.376C117.173 85.8667 117.472 86.576 117.472 87.504C117.472 88.1227 117.312 88.6453 116.992 89.072C116.683 89.4987 116.256 89.8027 115.712 89.984ZM110.512 89.568H114.016C114.752 89.568 115.328 89.392 115.744 89.04C116.16 88.6773 116.368 88.1707 116.368 87.52C116.368 86.9013 116.16 86.4267 115.744 86.096C115.339 85.7547 114.763 85.584 114.016 85.584H110.512V89.568ZM114.096 95.056C114.96 95.056 115.616 94.8533 116.064 94.448C116.523 94.0427 116.752 93.4933 116.752 92.8C116.752 92.096 116.517 91.536 116.048 91.12C115.589 90.704 114.944 90.496 114.112 90.496H110.512V95.056H114.096ZM122.833 87.92C123.804 87.92 124.561 88.1547 125.105 88.624C125.649 89.0827 125.921 89.6907 125.921 90.448V95.68C125.921 95.8933 125.815 96 125.601 96H125.281C125.068 96 124.961 95.8933 124.961 95.68V94.96C124.695 95.3867 124.316 95.7067 123.825 95.92C123.345 96.1333 122.807 96.24 122.209 96.24C121.377 96.24 120.7 96.064 120.177 95.712C119.655 95.36 119.393 94.816 119.393 94.08C119.393 93.4933 119.559 93.024 119.889 92.672C120.22 92.3093 120.652 92.0373 121.185 91.856C121.719 91.664 122.385 91.4933 123.185 91.344L124.913 91.04V90.528C124.913 89.984 124.727 89.5627 124.353 89.264C123.98 88.9547 123.489 88.8 122.881 88.8C122.423 88.8 122.007 88.8853 121.633 89.056C121.26 89.2267 120.86 89.52 120.433 89.936C120.359 90.0107 120.279 90.048 120.193 90.048C120.119 90.048 120.049 90.016 119.985 89.952L119.777 89.76C119.703 89.6853 119.665 89.6053 119.665 89.52C119.665 89.424 119.703 89.3387 119.777 89.264C120.225 88.7947 120.695 88.4533 121.185 88.24C121.687 88.0267 122.236 87.92 122.833 87.92ZM122.257 95.36C123.025 95.36 123.66 95.1573 124.161 94.752C124.663 94.3467 124.913 93.8293 124.913 93.2V91.856L123.425 92.144C122.732 92.2827 122.183 92.416 121.777 92.544C121.372 92.672 121.047 92.8587 120.801 93.104C120.556 93.3493 120.433 93.6693 120.433 94.064C120.433 94.4693 120.593 94.7893 120.913 95.024C121.244 95.248 121.692 95.36 122.257 95.36ZM128.598 96C128.385 96 128.278 95.8933 128.278 95.68V84.96C128.278 84.7467 128.385 84.64 128.598 84.64H129.014C129.227 84.64 129.334 84.7467 129.334 84.96V95.68C129.334 95.8933 129.227 96 129.014 96H128.598ZM134.915 96.208C134.158 96.208 133.497 96.0373 132.931 95.696C132.377 95.344 131.945 94.8587 131.635 94.24C131.337 93.6107 131.187 92.8853 131.187 92.064C131.187 91.2533 131.337 90.5333 131.635 89.904C131.945 89.2747 132.377 88.7893 132.931 88.448C133.497 88.096 134.147 87.92 134.883 87.92C135.481 87.92 136.003 88.0213 136.451 88.224C136.899 88.416 137.331 88.736 137.747 89.184C137.811 89.248 137.843 89.3173 137.843 89.392C137.843 89.488 137.801 89.568 137.715 89.632L137.491 89.84C137.427 89.904 137.353 89.936 137.267 89.936C137.193 89.936 137.113 89.8933 137.027 89.808C136.654 89.4347 136.297 89.1733 135.955 89.024C135.625 88.8747 135.257 88.8 134.851 88.8C134.297 88.8 133.822 88.9547 133.427 89.264C133.043 89.5733 132.755 89.9787 132.563 90.48C132.371 90.9707 132.275 91.4987 132.275 92.064C132.275 92.6293 132.371 93.1627 132.563 93.664C132.755 94.1547 133.049 94.5547 133.443 94.864C133.838 95.1627 134.323 95.312 134.899 95.312C135.326 95.312 135.699 95.2373 136.019 95.088C136.35 94.928 136.718 94.6293 137.123 94.192C137.209 94.1067 137.289 94.064 137.363 94.064C137.449 94.064 137.523 94.096 137.587 94.16L137.811 94.336C137.886 94.4 137.923 94.4747 137.923 94.56C137.923 94.6453 137.875 94.7467 137.779 94.864C137.331 95.3547 136.883 95.7013 136.435 95.904C135.987 96.1067 135.481 96.208 134.915 96.208ZM142.745 96.208C142.009 96.208 141.353 96.032 140.777 95.68C140.201 95.328 139.753 94.8427 139.433 94.224C139.113 93.5947 138.953 92.8747 138.953 92.064C138.953 91.2533 139.113 90.5387 139.433 89.92C139.753 89.2907 140.201 88.8 140.777 88.448C141.353 88.096 142.009 87.92 142.745 87.92C143.481 87.92 144.137 88.096 144.713 88.448C145.289 88.8 145.737 89.2907 146.057 89.92C146.377 90.5387 146.537 91.2533 146.537 92.064C146.537 92.8747 146.377 93.5947 146.057 94.224C145.737 94.8427 145.289 95.328 144.713 95.68C144.137 96.032 143.481 96.208 142.745 96.208ZM142.745 95.328C143.566 95.328 144.222 95.0293 144.713 94.432C145.204 93.824 145.449 93.0347 145.449 92.064C145.449 91.0933 145.204 90.3093 144.713 89.712C144.222 89.104 143.566 88.8 142.745 88.8C141.924 88.8 141.268 89.104 140.777 89.712C140.286 90.3093 140.041 91.0933 140.041 92.064C140.041 93.0347 140.286 93.824 140.777 94.432C141.268 95.0293 141.924 95.328 142.745 95.328ZM151.891 87.92C152.82 87.92 153.518 88.176 153.988 88.688C154.468 89.2 154.708 89.84 154.708 90.608V95.68C154.708 95.8933 154.601 96 154.388 96H153.972C153.758 96 153.652 95.8933 153.652 95.68V90.96C153.652 90.256 153.481 89.7227 153.14 89.36C152.798 88.9973 152.308 88.816 151.668 88.816C151.262 88.816 150.889 88.9173 150.548 89.12C150.206 89.312 149.934 89.5787 149.732 89.92C149.529 90.2613 149.428 90.6347 149.428 91.04V95.68C149.428 95.8933 149.321 96 149.108 96H148.692C148.478 96 148.372 95.8933 148.372 95.68V88.432C148.372 88.2187 148.478 88.112 148.692 88.112H149.044C149.257 88.112 149.364 88.2187 149.364 88.432V89.2C149.63 88.7733 149.982 88.4533 150.42 88.24C150.857 88.0267 151.348 87.92 151.891 87.92ZM161.721 88.368C161.785 88.1973 161.907 88.112 162.089 88.112H162.521C162.606 88.112 162.675 88.1333 162.729 88.176C162.782 88.2187 162.809 88.2773 162.809 88.352L162.777 88.48L159.689 97.2C159.518 97.68 159.353 98.0533 159.193 98.32C159.033 98.5867 158.814 98.7893 158.537 98.928C158.27 99.0667 157.918 99.136 157.481 99.136C157.203 99.136 156.958 99.1147 156.745 99.072C156.638 99.0613 156.563 99.0187 156.521 98.944C156.489 98.8693 156.483 98.784 156.505 98.688L156.553 98.48C156.595 98.288 156.718 98.2027 156.921 98.224C157.113 98.256 157.278 98.272 157.417 98.272C157.758 98.272 158.025 98.176 158.217 97.984C158.419 97.792 158.611 97.4293 158.793 96.896L158.937 96.448L156.121 88.48L156.089 88.352C156.089 88.2773 156.115 88.2187 156.169 88.176C156.222 88.1333 156.291 88.112 156.377 88.112H156.841C157.011 88.112 157.129 88.1973 157.193 88.368L158.089 91.008C158.174 91.2747 158.387 91.9093 158.729 92.912L159.449 95.072C159.801 94.08 160.265 92.7147 160.841 90.976L161.721 88.368Z" fill="#464646"/>
<rect x="84.5" y="122.5" width="15" height="15" rx="1.5" fill="#0063FB" stroke="#0063FB"/>
<path d="M91.2264 131.567L94.9035 127.168C95.1789 126.838 95.6694 126.794 95.999 127.07C96.3286 127.345 96.3725 127.836 96.097 128.166L91.8713 133.221C91.5771 133.573 91.0438 133.595 90.7213 133.269L88.3359 130.856C88.034 130.55 88.0368 130.058 88.3424 129.756C88.6479 129.454 89.1403 129.457 89.4423 129.762L91.2264 131.567Z" fill="white"/>
<path d="M109.696 136C109.483 136 109.376 135.893 109.376 135.68V124.96C109.376 124.747 109.483 124.64 109.696 124.64H116.416C116.629 124.64 116.736 124.747 116.736 124.96V125.264C116.736 125.477 116.629 125.584 116.416 125.584H110.512V129.696H115.968C116.181 129.696 116.288 129.803 116.288 130.016V130.304C116.288 130.517 116.181 130.624 115.968 130.624H110.512V135.056H116.544C116.757 135.056 116.864 135.163 116.864 135.376V135.68C116.864 135.893 116.757 136 116.544 136H109.696ZM119.114 136C118.9 136 118.794 135.893 118.794 135.68V124.96C118.794 124.747 118.9 124.64 119.114 124.64H119.53C119.743 124.64 119.85 124.747 119.85 124.96V135.68C119.85 135.893 119.743 136 119.53 136H119.114ZM127.975 134.128C128.05 134.053 128.13 134.016 128.215 134.016C128.29 134.016 128.359 134.048 128.423 134.112L128.631 134.304C128.706 134.379 128.743 134.459 128.743 134.544C128.743 134.608 128.711 134.683 128.647 134.768C128.124 135.291 127.618 135.664 127.127 135.888C126.636 136.101 126.087 136.208 125.479 136.208C124.711 136.208 124.044 136.037 123.479 135.696C122.914 135.355 122.476 134.88 122.167 134.272C121.858 133.653 121.703 132.939 121.703 132.128C121.703 131.307 121.852 130.581 122.151 129.952C122.46 129.312 122.892 128.816 123.447 128.464C124.002 128.101 124.642 127.92 125.367 127.92C126.444 127.92 127.292 128.256 127.911 128.928C128.53 129.6 128.839 130.507 128.839 131.648V131.84C128.828 131.936 128.791 132.011 128.727 132.064C128.674 132.117 128.599 132.144 128.503 132.144H122.775C122.807 133.04 123.042 133.797 123.479 134.416C123.927 135.024 124.594 135.328 125.479 135.328C125.959 135.328 126.38 135.243 126.743 135.072C127.116 134.891 127.527 134.576 127.975 134.128ZM125.367 128.8C124.663 128.8 124.082 129.019 123.623 129.456C123.175 129.883 122.903 130.512 122.807 131.344H127.783C127.762 130.565 127.538 129.947 127.111 129.488C126.684 129.029 126.103 128.8 125.367 128.8ZM135.564 128.368C135.628 128.197 135.75 128.112 135.932 128.112H136.348C136.433 128.112 136.502 128.133 136.556 128.176C136.609 128.219 136.636 128.277 136.636 128.352L136.604 128.48L134.06 135.744C133.996 135.915 133.873 136 133.692 136H132.844C132.662 136 132.54 135.915 132.476 135.744L129.948 128.48L129.916 128.352C129.916 128.277 129.942 128.219 129.996 128.176C130.049 128.133 130.118 128.112 130.204 128.112H130.636C130.817 128.112 130.94 128.197 131.004 128.368L131.98 131.184C132.385 132.357 132.817 133.707 133.276 135.232C133.297 135.168 133.356 134.987 133.452 134.688C133.889 133.248 134.268 132.08 134.588 131.184L135.564 128.368ZM141.161 127.92C142.132 127.92 142.89 128.155 143.434 128.624C143.978 129.083 144.25 129.691 144.25 130.448V135.68C144.25 135.893 144.143 136 143.93 136H143.61C143.396 136 143.29 135.893 143.29 135.68V134.96C143.023 135.387 142.644 135.707 142.154 135.92C141.674 136.133 141.135 136.24 140.538 136.24C139.706 136.24 139.028 136.064 138.506 135.712C137.983 135.36 137.722 134.816 137.722 134.08C137.722 133.493 137.887 133.024 138.218 132.672C138.548 132.309 138.98 132.037 139.514 131.856C140.047 131.664 140.714 131.493 141.514 131.344L143.242 131.04V130.528C143.242 129.984 143.055 129.563 142.682 129.264C142.308 128.955 141.818 128.8 141.21 128.8C140.751 128.8 140.335 128.885 139.962 129.056C139.588 129.227 139.188 129.52 138.762 129.936C138.687 130.011 138.607 130.048 138.522 130.048C138.447 130.048 138.378 130.016 138.314 129.952L138.106 129.76C138.031 129.685 137.993 129.605 137.993 129.52C137.993 129.424 138.031 129.339 138.106 129.264C138.554 128.795 139.023 128.453 139.514 128.24C140.015 128.027 140.564 127.92 141.161 127.92ZM140.586 135.36C141.354 135.36 141.988 135.157 142.49 134.752C142.991 134.347 143.242 133.829 143.242 133.2V131.856L141.754 132.144C141.06 132.283 140.511 132.416 140.106 132.544C139.7 132.672 139.375 132.859 139.13 133.104C138.884 133.349 138.762 133.669 138.762 134.064C138.762 134.469 138.922 134.789 139.242 135.024C139.572 135.248 140.02 135.36 140.586 135.36ZM149.924 135.12C149.956 135.109 149.998 135.104 150.052 135.104C150.116 135.104 150.174 135.125 150.228 135.168C150.281 135.211 150.313 135.269 150.324 135.344L150.372 135.568C150.382 135.589 150.388 135.627 150.388 135.68C150.388 135.829 150.308 135.92 150.148 135.952C149.764 136.069 149.353 136.128 148.916 136.128C148.222 136.128 147.726 135.973 147.428 135.664C147.14 135.344 146.996 134.885 146.996 134.288V128.912H145.812C145.598 128.912 145.492 128.805 145.492 128.592V128.432C145.492 128.219 145.598 128.112 145.812 128.112H146.996V125.68C146.996 125.467 147.102 125.36 147.316 125.36H147.732C147.945 125.36 148.052 125.467 148.052 125.68V128.112H149.972C150.185 128.112 150.292 128.219 150.292 128.432V128.592C150.292 128.805 150.185 128.912 149.972 128.912H148.052V134.16C148.052 134.555 148.126 134.832 148.276 134.992C148.425 135.152 148.681 135.232 149.044 135.232C149.3 135.232 149.593 135.195 149.924 135.12ZM154.87 136.208C154.134 136.208 153.478 136.032 152.902 135.68C152.326 135.328 151.878 134.843 151.558 134.224C151.238 133.595 151.078 132.875 151.078 132.064C151.078 131.253 151.238 130.539 151.558 129.92C151.878 129.291 152.326 128.8 152.902 128.448C153.478 128.096 154.134 127.92 154.87 127.92C155.606 127.92 156.262 128.096 156.838 128.448C157.414 128.8 157.862 129.291 158.182 129.92C158.502 130.539 158.662 131.253 158.662 132.064C158.662 132.875 158.502 133.595 158.182 134.224C157.862 134.843 157.414 135.328 156.838 135.68C156.262 136.032 155.606 136.208 154.87 136.208ZM154.87 135.328C155.691 135.328 156.347 135.029 156.838 134.432C157.329 133.824 157.574 133.035 157.574 132.064C157.574 131.093 157.329 130.309 156.838 129.712C156.347 129.104 155.691 128.8 154.87 128.8C154.049 128.8 153.393 129.104 152.902 129.712C152.411 130.309 152.166 131.093 152.166 132.064C152.166 133.035 152.411 133.824 152.902 134.432C153.393 135.029 154.049 135.328 154.87 135.328ZM163.441 128.048C163.707 128.048 164.022 128.091 164.385 128.176C164.577 128.24 164.651 128.373 164.609 128.576L164.545 128.832C164.491 129.035 164.358 129.109 164.145 129.056C163.889 128.992 163.654 128.96 163.441 128.96C162.897 128.96 162.443 129.195 162.081 129.664C161.729 130.133 161.553 130.784 161.553 131.616V135.68C161.553 135.893 161.446 136 161.233 136H160.817C160.603 136 160.497 135.893 160.497 135.68V128.432C160.497 128.219 160.603 128.112 160.817 128.112H161.169C161.382 128.112 161.489 128.219 161.489 128.432V129.312C161.67 128.917 161.926 128.608 162.257 128.384C162.598 128.16 162.993 128.048 163.441 128.048Z" fill="#464646"/>
<rect x="84.5" y="162.5" width="15" height="15" rx="1.5" fill="#0063FB" stroke="#0063FB"/>
<path d="M91.2264 171.567L94.9035 167.168C95.1789 166.838 95.6694 166.794 95.999 167.07C96.3286 167.345 96.3725 167.836 96.097 168.166L91.8713 173.221C91.5771 173.573 91.0438 173.595 90.7213 173.269L88.3359 170.856C88.034 170.55 88.0368 170.058 88.3424 169.756C88.6479 169.454 89.1403 169.457 89.4423 169.762L91.2264 171.567Z" fill="white"/>
<path d="M113.968 176.24C112.88 176.24 111.941 175.989 111.152 175.488C110.363 174.976 109.76 174.272 109.344 173.376C108.928 172.48 108.72 171.461 108.72 170.32C108.72 169.168 108.928 168.144 109.344 167.248C109.76 166.352 110.368 165.653 111.168 165.152C111.979 164.651 112.949 164.4 114.08 164.4C114.731 164.4 115.339 164.507 115.904 164.72C116.469 164.923 117.072 165.275 117.712 165.776C117.808 165.84 117.856 165.915 117.856 166C117.856 166.064 117.824 166.139 117.76 166.224L117.536 166.512C117.472 166.597 117.397 166.64 117.312 166.64C117.227 166.64 117.147 166.608 117.072 166.544C116.496 166.096 115.973 165.792 115.504 165.632C115.045 165.461 114.571 165.376 114.08 165.376C113.216 165.376 112.464 165.589 111.824 166.016C111.195 166.432 110.709 167.013 110.368 167.76C110.027 168.507 109.856 169.36 109.856 170.32C109.856 171.269 110.027 172.123 110.368 172.88C110.709 173.627 111.189 174.213 111.808 174.64C112.427 175.056 113.141 175.264 113.952 175.264C114.592 175.264 115.157 175.141 115.648 174.896C116.149 174.64 116.683 174.245 117.248 173.712C117.333 173.648 117.408 173.616 117.472 173.616C117.557 173.616 117.637 173.653 117.712 173.728L117.968 174.016C118.032 174.08 118.064 174.149 118.064 174.224C118.064 174.32 118.011 174.416 117.904 174.512C117.243 175.141 116.613 175.589 116.016 175.856C115.419 176.112 114.736 176.24 113.968 176.24ZM122.911 167.92C123.882 167.92 124.64 168.155 125.184 168.624C125.728 169.083 126 169.691 126 170.448V175.68C126 175.893 125.893 176 125.68 176H125.36C125.146 176 125.04 175.893 125.04 175.68V174.96C124.773 175.387 124.394 175.707 123.904 175.92C123.424 176.133 122.885 176.24 122.288 176.24C121.456 176.24 120.778 176.064 120.256 175.712C119.733 175.36 119.472 174.816 119.472 174.08C119.472 173.493 119.637 173.024 119.968 172.672C120.298 172.309 120.73 172.037 121.264 171.856C121.797 171.664 122.464 171.493 123.264 171.344L124.992 171.04V170.528C124.992 169.984 124.805 169.563 124.432 169.264C124.058 168.955 123.568 168.8 122.96 168.8C122.501 168.8 122.085 168.885 121.712 169.056C121.338 169.227 120.938 169.52 120.512 169.936C120.437 170.011 120.357 170.048 120.272 170.048C120.197 170.048 120.128 170.016 120.064 169.952L119.856 169.76C119.781 169.685 119.743 169.605 119.743 169.52C119.743 169.424 119.781 169.339 119.856 169.264C120.304 168.795 120.773 168.453 121.264 168.24C121.765 168.027 122.314 167.92 122.911 167.92ZM122.336 175.36C123.104 175.36 123.738 175.157 124.24 174.752C124.741 174.347 124.992 173.829 124.992 173.2V171.856L123.504 172.144C122.81 172.283 122.261 172.416 121.856 172.544C121.45 172.672 121.125 172.859 120.88 173.104C120.634 173.349 120.512 173.669 120.512 174.064C120.512 174.469 120.672 174.789 120.992 175.024C121.322 175.248 121.77 175.36 122.336 175.36ZM132.116 167.936C132.788 167.936 133.386 168.112 133.908 168.464C134.442 168.805 134.852 169.291 135.14 169.92C135.439 170.539 135.588 171.253 135.588 172.064C135.588 172.875 135.439 173.595 135.14 174.224C134.842 174.843 134.426 175.328 133.892 175.68C133.37 176.021 132.778 176.192 132.116 176.192C130.847 176.192 129.919 175.701 129.332 174.72V175.68C129.332 175.893 129.226 176 129.012 176H128.66C128.447 176 128.34 175.893 128.34 175.68V164.944C128.34 164.731 128.447 164.624 128.66 164.624H129.076C129.29 164.624 129.396 164.731 129.396 164.944V169.36C129.983 168.411 130.89 167.936 132.116 167.936ZM132.036 175.296C132.772 175.296 133.364 174.997 133.812 174.4C134.271 173.803 134.5 173.024 134.5 172.064C134.5 171.104 134.271 170.325 133.812 169.728C133.364 169.131 132.772 168.832 132.036 168.832C131.247 168.832 130.602 169.12 130.1 169.696C129.599 170.272 129.348 171.061 129.348 172.064C129.348 173.077 129.594 173.872 130.084 174.448C130.586 175.013 131.236 175.296 132.036 175.296ZM137.801 176C137.588 176 137.481 175.893 137.481 175.68V164.96C137.481 164.747 137.588 164.64 137.801 164.64H138.217C138.431 164.64 138.537 164.747 138.537 164.96V175.68C138.537 175.893 138.431 176 138.217 176H137.801ZM146.662 174.128C146.737 174.053 146.817 174.016 146.902 174.016C146.977 174.016 147.046 174.048 147.11 174.112L147.318 174.304C147.393 174.379 147.43 174.459 147.43 174.544C147.43 174.608 147.398 174.683 147.334 174.768C146.812 175.291 146.305 175.664 145.814 175.888C145.324 176.101 144.774 176.208 144.166 176.208C143.398 176.208 142.732 176.037 142.166 175.696C141.601 175.355 141.164 174.88 140.854 174.272C140.545 173.653 140.39 172.939 140.39 172.128C140.39 171.307 140.54 170.581 140.838 169.952C141.148 169.312 141.58 168.816 142.134 168.464C142.689 168.101 143.329 167.92 144.054 167.92C145.132 167.92 145.98 168.256 146.598 168.928C147.217 169.6 147.526 170.507 147.526 171.648V171.84C147.516 171.936 147.478 172.011 147.414 172.064C147.361 172.117 147.286 172.144 147.19 172.144H141.462C141.494 173.04 141.729 173.797 142.166 174.416C142.614 175.024 143.281 175.328 144.166 175.328C144.646 175.328 145.068 175.243 145.43 175.072C145.804 174.891 146.214 174.576 146.662 174.128ZM144.054 168.8C143.35 168.8 142.769 169.019 142.31 169.456C141.862 169.883 141.59 170.512 141.494 171.344H146.47C146.449 170.565 146.225 169.947 145.798 169.488C145.372 169.029 144.79 168.8 144.054 168.8ZM149.514 171.888C149.301 171.888 149.194 171.781 149.194 171.568V171.264C149.194 171.051 149.301 170.944 149.514 170.944H153.386C153.6 170.944 153.706 171.051 153.706 171.264V171.568C153.706 171.781 153.6 171.888 153.386 171.888H149.514ZM159.408 175.12C159.44 175.109 159.483 175.104 159.536 175.104C159.6 175.104 159.659 175.125 159.712 175.168C159.765 175.211 159.797 175.269 159.808 175.344L159.856 175.568C159.867 175.589 159.872 175.627 159.872 175.68C159.872 175.829 159.792 175.92 159.632 175.952C159.248 176.069 158.837 176.128 158.4 176.128C157.707 176.128 157.211 175.973 156.912 175.664C156.624 175.344 156.48 174.885 156.48 174.288V168.912H155.296C155.083 168.912 154.976 168.805 154.976 168.592V168.432C154.976 168.219 155.083 168.112 155.296 168.112H156.48V165.68C156.48 165.467 156.587 165.36 156.8 165.36H157.216C157.429 165.36 157.536 165.467 157.536 165.68V168.112H159.456C159.669 168.112 159.776 168.219 159.776 168.432V168.592C159.776 168.805 159.669 168.912 159.456 168.912H157.536V174.16C157.536 174.555 157.611 174.832 157.76 174.992C157.909 175.152 158.165 175.232 158.528 175.232C158.784 175.232 159.077 175.195 159.408 175.12ZM166.345 168.368C166.409 168.197 166.532 168.112 166.713 168.112H167.129C167.214 168.112 167.284 168.133 167.337 168.176C167.39 168.219 167.417 168.277 167.417 168.352L167.385 168.48L164.841 175.744C164.777 175.915 164.654 176 164.473 176H163.625C163.444 176 163.321 175.915 163.257 175.744L160.729 168.48L160.697 168.352C160.697 168.277 160.724 168.219 160.777 168.176C160.83 168.133 160.9 168.112 160.985 168.112H161.417C161.598 168.112 161.721 168.197 161.785 168.368L162.761 171.184C163.166 172.357 163.598 173.707 164.057 175.232C164.078 175.168 164.137 174.987 164.233 174.688C164.67 173.248 165.049 172.08 165.369 171.184L166.345 168.368Z" fill="#464646"/>
<path d="M81.792 56C81.6213 56 81.4827 55.952 81.376 55.856C81.28 55.7493 81.232 55.6107 81.232 55.44V45.2C81.232 45.0187 81.28 44.88 81.376 44.784C81.4827 44.688 81.6213 44.64 81.792 44.64H88.432C88.6133 44.64 88.752 44.688 88.848 44.784C88.944 44.88 88.992 45.0187 88.992 45.2V45.616C88.992 45.7867 88.944 45.9253 88.848 46.032C88.752 46.128 88.6133 46.176 88.432 46.176H83.056V49.648H88C88.1813 49.648 88.32 49.696 88.416 49.792C88.512 49.888 88.56 50.0267 88.56 50.208V50.608C88.56 50.7787 88.512 50.9173 88.416 51.024C88.32 51.12 88.1813 51.168 88 51.168H83.056V55.44C83.056 55.6107 83.008 55.7493 82.912 55.856C82.816 55.952 82.6773 56 82.496 56H81.792ZM93.5071 47.872C94.5738 47.872 95.3951 48.1227 95.9711 48.624C96.5471 49.1147 96.8351 49.7707 96.8351 50.592V55.44C96.8351 55.6107 96.7871 55.7493 96.6911 55.856C96.5951 55.952 96.4565 56 96.2751 56H95.8591C95.6885 56 95.5498 55.952 95.4431 55.856C95.3471 55.7493 95.2991 55.6107 95.2991 55.44V55.088C95.0431 55.4613 94.6911 55.7493 94.2431 55.952C93.7951 56.1547 93.2725 56.256 92.6751 56.256C91.8538 56.256 91.1765 56.0747 90.6431 55.712C90.1205 55.3387 89.8591 54.7787 89.8591 54.032C89.8591 53.2 90.1685 52.5867 90.7871 52.192C91.4165 51.7867 92.2858 51.4827 93.3951 51.28L95.2031 50.944V50.656C95.2031 50.2187 95.0485 49.8827 94.7391 49.648C94.4405 49.4027 94.0405 49.28 93.5391 49.28C93.1125 49.28 92.7391 49.3547 92.4191 49.504C92.1098 49.6427 91.7738 49.8773 91.4111 50.208C91.2725 50.3253 91.1391 50.384 91.0111 50.384C90.8831 50.384 90.7498 50.3253 90.6111 50.208L90.3551 49.984C90.2165 49.856 90.1471 49.7173 90.1471 49.568C90.1471 49.4293 90.2111 49.296 90.3391 49.168C90.7978 48.7307 91.2831 48.4053 91.7951 48.192C92.3071 47.9787 92.8778 47.872 93.5071 47.872ZM92.9151 54.896C93.5551 54.896 94.0938 54.7253 94.5311 54.384C94.9791 54.0427 95.2031 53.552 95.2031 52.912V52.176L93.8111 52.464C93.0325 52.624 92.4565 52.8053 92.0831 53.008C91.7098 53.2107 91.5231 53.52 91.5231 53.936C91.5231 54.2347 91.6458 54.4693 91.8911 54.64C92.1365 54.8107 92.4778 54.896 92.9151 54.896ZM102.245 56.24C101.466 56.24 100.778 56.0693 100.181 55.728C99.5942 55.3867 99.1355 54.9013 98.8049 54.272C98.4849 53.632 98.3249 52.8907 98.3249 52.048C98.3249 51.2053 98.4902 50.4693 98.8209 49.84C99.1515 49.2107 99.6155 48.7253 100.213 48.384C100.81 48.0427 101.498 47.872 102.277 47.872C102.842 47.872 103.349 47.9573 103.797 48.128C104.256 48.288 104.693 48.5653 105.109 48.96C105.237 49.088 105.301 49.2213 105.301 49.36C105.301 49.488 105.232 49.6213 105.093 49.76L104.821 50.032C104.704 50.1493 104.576 50.208 104.437 50.208C104.298 50.208 104.154 50.144 104.005 50.016C103.696 49.7493 103.402 49.568 103.125 49.472C102.858 49.3653 102.57 49.312 102.261 49.312C101.557 49.312 101.013 49.5733 100.629 50.096C100.245 50.6187 100.053 51.2693 100.053 52.048C100.053 52.8267 100.245 53.4827 100.629 54.016C101.013 54.5387 101.557 54.8 102.261 54.8C102.602 54.8 102.917 54.736 103.205 54.608C103.493 54.4693 103.802 54.24 104.133 53.92C104.272 53.7813 104.416 53.712 104.565 53.712C104.693 53.712 104.816 53.7653 104.933 53.872L105.205 54.096C105.344 54.2133 105.413 54.3467 105.413 54.496C105.413 54.656 105.333 54.8267 105.173 55.008C104.736 55.456 104.282 55.776 103.813 55.968C103.354 56.1493 102.832 56.24 102.245 56.24ZM107.699 46.576C107.39 46.576 107.129 46.4747 106.915 46.272C106.702 46.0587 106.595 45.808 106.595 45.52C106.595 45.2213 106.702 44.9707 106.915 44.768C107.129 44.5653 107.39 44.464 107.699 44.464C108.009 44.464 108.27 44.5653 108.483 44.768C108.697 44.9707 108.803 45.2213 108.803 45.52C108.803 45.808 108.697 46.0587 108.483 46.272C108.27 46.4747 108.009 46.576 107.699 46.576ZM107.395 56C107.225 56 107.086 55.952 106.979 55.856C106.883 55.7493 106.835 55.6107 106.835 55.44V48.672C106.835 48.4907 106.883 48.352 106.979 48.256C107.086 48.16 107.225 48.112 107.395 48.112H107.971C108.153 48.112 108.291 48.16 108.387 48.256C108.483 48.352 108.531 48.4907 108.531 48.672V55.44C108.531 55.6107 108.483 55.7493 108.387 55.856C108.291 55.952 108.153 56 107.971 56H107.395ZM111.116 56C110.945 56 110.806 55.952 110.7 55.856C110.604 55.7493 110.556 55.6107 110.556 55.44V45.2C110.556 45.0187 110.604 44.88 110.7 44.784C110.806 44.688 110.945 44.64 111.116 44.64H111.692C111.873 44.64 112.012 44.688 112.108 44.784C112.204 44.88 112.252 45.0187 112.252 45.2V55.44C112.252 55.6107 112.204 55.7493 112.108 55.856C112.012 55.952 111.873 56 111.692 56H111.116ZM115.137 46.576C114.828 46.576 114.566 46.4747 114.353 46.272C114.14 46.0587 114.033 45.808 114.033 45.52C114.033 45.2213 114.14 44.9707 114.353 44.768C114.566 44.5653 114.828 44.464 115.137 44.464C115.446 44.464 115.708 44.5653 115.921 44.768C116.134 44.9707 116.241 45.2213 116.241 45.52C116.241 45.808 116.134 46.0587 115.921 46.272C115.708 46.4747 115.446 46.576 115.137 46.576ZM114.833 56C114.662 56 114.524 55.952 114.417 55.856C114.321 55.7493 114.273 55.6107 114.273 55.44V48.672C114.273 48.4907 114.321 48.352 114.417 48.256C114.524 48.16 114.662 48.112 114.833 48.112H115.409C115.59 48.112 115.729 48.16 115.825 48.256C115.921 48.352 115.969 48.4907 115.969 48.672V55.44C115.969 55.6107 115.921 55.7493 115.825 55.856C115.729 55.952 115.59 56 115.409 56H114.833ZM121.737 54.656C121.769 54.6453 121.817 54.64 121.881 54.64C122.148 54.64 122.308 54.7947 122.361 55.104L122.409 55.36C122.42 55.392 122.425 55.4453 122.425 55.52C122.425 55.7867 122.276 55.9573 121.977 56.032C121.55 56.128 121.161 56.176 120.809 56.176C120.052 56.176 119.502 56 119.161 55.648C118.83 55.296 118.665 54.768 118.665 54.064V49.408H117.785C117.614 49.408 117.476 49.36 117.369 49.264C117.273 49.1573 117.225 49.0187 117.225 48.848V48.672C117.225 48.4907 117.273 48.352 117.369 48.256C117.476 48.16 117.614 48.112 117.785 48.112H118.665V46.128C118.665 45.9467 118.713 45.808 118.809 45.712C118.916 45.616 119.054 45.568 119.225 45.568H119.801C119.982 45.568 120.121 45.616 120.217 45.712C120.313 45.808 120.361 45.9467 120.361 46.128V48.112H121.801C121.982 48.112 122.121 48.16 122.217 48.256C122.313 48.352 122.361 48.4907 122.361 48.672V48.848C122.361 49.0187 122.313 49.1573 122.217 49.264C122.121 49.36 121.982 49.408 121.801 49.408H120.361V53.856C120.361 54.1653 120.425 54.384 120.553 54.512C120.692 54.64 120.91 54.704 121.209 54.704C121.337 54.704 121.513 54.688 121.737 54.656ZM124.621 46.576C124.312 46.576 124.051 46.4747 123.837 46.272C123.624 46.0587 123.517 45.808 123.517 45.52C123.517 45.2213 123.624 44.9707 123.837 44.768C124.051 44.5653 124.312 44.464 124.621 44.464C124.931 44.464 125.192 44.5653 125.405 44.768C125.619 44.9707 125.725 45.2213 125.725 45.52C125.725 45.808 125.619 46.0587 125.405 46.272C125.192 46.4747 124.931 46.576 124.621 46.576ZM124.317 56C124.147 56 124.008 55.952 123.901 55.856C123.805 55.7493 123.757 55.6107 123.757 55.44V48.672C123.757 48.4907 123.805 48.352 123.901 48.256C124.008 48.16 124.147 48.112 124.317 48.112H124.893C125.075 48.112 125.213 48.16 125.309 48.256C125.405 48.352 125.453 48.4907 125.453 48.672V55.44C125.453 55.6107 125.405 55.7493 125.309 55.856C125.213 55.952 125.075 56 124.893 56H124.317ZM133.062 53.984C133.2 53.8667 133.334 53.808 133.462 53.808C133.59 53.808 133.723 53.8773 133.862 54.016L134.086 54.256C134.203 54.3947 134.262 54.528 134.262 54.656C134.262 54.7947 134.192 54.928 134.054 55.056C133.563 55.4827 133.072 55.7867 132.582 55.968C132.102 56.1493 131.568 56.24 130.982 56.24C130.16 56.24 129.446 56.0693 128.838 55.728C128.24 55.3867 127.776 54.9067 127.446 54.288C127.126 53.6587 126.965 52.9333 126.965 52.112C126.965 51.3013 127.12 50.576 127.43 49.936C127.75 49.2853 128.198 48.7787 128.774 48.416C129.36 48.0533 130.043 47.872 130.822 47.872C131.984 47.872 132.88 48.2187 133.51 48.912C134.139 49.5947 134.454 50.5387 134.454 51.744V51.888C134.443 52.0587 134.39 52.192 134.294 52.288C134.198 52.384 134.059 52.432 133.878 52.432H128.63C128.694 53.136 128.923 53.712 129.318 54.16C129.723 54.5973 130.288 54.816 131.014 54.816C131.408 54.816 131.755 54.7573 132.054 54.64C132.352 54.512 132.688 54.2933 133.062 53.984ZM130.79 49.216C130.203 49.216 129.728 49.392 129.366 49.744C129.014 50.0853 128.784 50.5707 128.678 51.2H132.79C132.747 50.5813 132.555 50.096 132.214 49.744C131.872 49.392 131.398 49.216 130.79 49.216ZM139.079 56.24C138.428 56.24 137.847 56.16 137.335 56C136.833 55.8293 136.321 55.536 135.799 55.12C135.639 55.0027 135.559 54.8693 135.559 54.72C135.559 54.6027 135.617 54.4747 135.735 54.336L135.975 54.064C136.103 53.9147 136.241 53.84 136.391 53.84C136.508 53.84 136.636 53.8933 136.775 54C137.223 54.3307 137.617 54.56 137.959 54.688C138.3 54.8053 138.684 54.864 139.111 54.864C139.569 54.864 139.943 54.7733 140.231 54.592C140.529 54.4 140.679 54.144 140.679 53.824C140.679 53.5787 140.593 53.3867 140.423 53.248C140.263 53.0987 140.049 52.9867 139.783 52.912C139.516 52.8267 139.121 52.7307 138.599 52.624C137.863 52.464 137.287 52.2933 136.871 52.112C136.465 51.92 136.172 51.68 135.991 51.392C135.809 51.104 135.719 50.736 135.719 50.288C135.719 49.8293 135.847 49.4187 136.103 49.056C136.369 48.6933 136.737 48.4053 137.207 48.192C137.687 47.9787 138.247 47.872 138.887 47.872C139.463 47.872 139.975 47.936 140.423 48.064C140.881 48.192 141.329 48.4107 141.767 48.72C141.937 48.848 142.023 48.992 142.023 49.152C142.023 49.2587 141.969 49.3813 141.863 49.52L141.655 49.776C141.537 49.9253 141.393 50 141.223 50C141.095 50 140.972 49.9573 140.855 49.872C140.503 49.6373 140.177 49.4773 139.879 49.392C139.58 49.296 139.244 49.248 138.871 49.248C138.412 49.248 138.044 49.3387 137.767 49.52C137.489 49.7013 137.351 49.936 137.351 50.224C137.351 50.416 137.415 50.5707 137.543 50.688C137.681 50.7947 137.873 50.8907 138.119 50.976C138.375 51.0507 138.775 51.1467 139.319 51.264C140.055 51.424 140.636 51.6053 141.063 51.808C141.5 52 141.82 52.2507 142.023 52.56C142.236 52.8587 142.343 53.248 142.343 53.728C142.343 54.4747 142.044 55.0827 141.447 55.552C140.86 56.0107 140.071 56.24 139.079 56.24Z" fill="#464646"/>
</svg>
