<svg width="344" height="168" viewBox="0 0 344 168" fill="none" xmlns="http://www.w3.org/2000/svg">
<rect width="344" height="168" fill="#F5F5F5"/>
<rect x="129.5" y="37.5" width="15" height="15" rx="1.5" fill="white" stroke="#C3CCD9"/>
<path d="M154.696 51C154.483 51 154.376 50.8933 154.376 50.68V39.96C154.376 39.7467 154.483 39.64 154.696 39.64H155.192C155.405 39.64 155.512 39.7467 155.512 39.96V50.056H160.616C160.829 50.056 160.936 50.1627 160.936 50.376V50.68C160.936 50.8933 160.829 51 160.616 51H154.696ZM165.74 42.92C166.71 42.92 167.468 43.1547 168.012 43.624C168.556 44.0827 168.828 44.6907 168.828 45.448V50.68C168.828 50.8933 168.721 51 168.508 51H168.188C167.974 51 167.868 50.8933 167.868 50.68V49.96C167.601 50.3867 167.222 50.7067 166.732 50.92C166.252 51.1333 165.713 51.24 165.116 51.24C164.284 51.24 163.606 51.064 163.084 50.712C162.561 50.36 162.3 49.816 162.3 49.08C162.3 48.4933 162.465 48.024 162.796 47.672C163.126 47.3093 163.558 47.0373 164.092 46.856C164.625 46.664 165.292 46.4933 166.092 46.344L167.82 46.04V45.528C167.82 44.984 167.633 44.5627 167.26 44.264C166.886 43.9547 166.396 43.8 165.788 43.8C165.329 43.8 164.913 43.8853 164.54 44.056C164.166 44.2267 163.766 44.52 163.34 44.936C163.265 45.0107 163.185 45.048 163.1 45.048C163.025 45.048 162.956 45.016 162.892 44.952L162.684 44.76C162.609 44.6853 162.572 44.6053 162.572 44.52C162.572 44.424 162.609 44.3387 162.684 44.264C163.132 43.7947 163.601 43.4533 164.092 43.24C164.593 43.0267 165.142 42.92 165.74 42.92ZM165.164 50.36C165.932 50.36 166.566 50.1573 167.068 49.752C167.569 49.3467 167.82 48.8293 167.82 48.2V46.856L166.332 47.144C165.638 47.2827 165.089 47.416 164.684 47.544C164.278 47.672 163.953 47.8587 163.708 48.104C163.462 48.3493 163.34 48.6693 163.34 49.064C163.34 49.4693 163.5 49.7893 163.82 50.024C164.15 50.248 164.598 50.36 165.164 50.36ZM174.944 42.936C175.616 42.936 176.214 43.112 176.736 43.464C177.27 43.8053 177.68 44.2907 177.968 44.92C178.267 45.5387 178.416 46.2533 178.416 47.064C178.416 47.8747 178.267 48.5947 177.968 49.224C177.67 49.8427 177.254 50.328 176.72 50.68C176.198 51.0213 175.606 51.192 174.944 51.192C173.675 51.192 172.747 50.7013 172.16 49.72V50.68C172.16 50.8933 172.054 51 171.84 51H171.488C171.275 51 171.168 50.8933 171.168 50.68V39.944C171.168 39.7307 171.275 39.624 171.488 39.624H171.904C172.118 39.624 172.224 39.7307 172.224 39.944V44.36C172.811 43.4107 173.718 42.936 174.944 42.936ZM174.864 50.296C175.6 50.296 176.192 49.9973 176.64 49.4C177.099 48.8027 177.328 48.024 177.328 47.064C177.328 46.104 177.099 45.3253 176.64 44.728C176.192 44.1307 175.6 43.832 174.864 43.832C174.075 43.832 173.43 44.12 172.928 44.696C172.427 45.272 172.176 46.0613 172.176 47.064C172.176 48.0773 172.422 48.872 172.912 49.448C173.414 50.0133 174.064 50.296 174.864 50.296ZM186.131 49.128C186.206 49.0533 186.286 49.016 186.371 49.016C186.446 49.016 186.515 49.048 186.579 49.112L186.787 49.304C186.862 49.3787 186.899 49.4587 186.899 49.544C186.899 49.608 186.867 49.6827 186.803 49.768C186.28 50.2907 185.774 50.664 185.283 50.888C184.792 51.1013 184.243 51.208 183.635 51.208C182.867 51.208 182.2 51.0373 181.635 50.696C181.07 50.3547 180.632 49.88 180.323 49.272C180.014 48.6533 179.859 47.9387 179.859 47.128C179.859 46.3067 180.008 45.5813 180.307 44.952C180.616 44.312 181.048 43.816 181.603 43.464C182.158 43.1013 182.798 42.92 183.523 42.92C184.6 42.92 185.448 43.256 186.067 43.928C186.686 44.6 186.995 45.5067 186.995 46.648V46.84C186.984 46.936 186.947 47.0107 186.883 47.064C186.83 47.1173 186.755 47.144 186.659 47.144H180.931C180.963 48.04 181.198 48.7973 181.635 49.416C182.083 50.024 182.75 50.328 183.635 50.328C184.115 50.328 184.536 50.2427 184.899 50.072C185.272 49.8907 185.683 49.576 186.131 49.128ZM183.523 43.8C182.819 43.8 182.238 44.0187 181.779 44.456C181.331 44.8827 181.059 45.512 180.963 46.344H185.939C185.918 45.5653 185.694 44.9467 185.267 44.488C184.84 44.0293 184.259 43.8 183.523 43.8ZM189.223 51C189.01 51 188.903 50.8933 188.903 50.68V39.96C188.903 39.7467 189.01 39.64 189.223 39.64H189.639C189.852 39.64 189.959 39.7467 189.959 39.96V50.68C189.959 50.8933 189.852 51 189.639 51H189.223Z" fill="#C3CCD9"/>
<rect x="129" y="75" width="16" height="16" rx="2" fill="#C3CCD9"/>
<path d="M136.226 84.5671L139.903 80.1679C140.179 79.8383 140.669 79.7945 140.999 80.0699C141.329 80.3454 141.372 80.8359 141.097 81.1655L136.871 86.2211C136.577 86.573 136.044 86.5953 135.721 86.269L133.336 83.8555C133.034 83.55 133.037 83.0575 133.342 82.7556C133.648 82.4536 134.14 82.4565 134.442 82.762L136.226 84.5671Z" fill="white"/>
<path d="M154.696 89C154.483 89 154.376 88.8933 154.376 88.68V77.96C154.376 77.7467 154.483 77.64 154.696 77.64H155.192C155.405 77.64 155.512 77.7467 155.512 77.96V88.056H160.616C160.829 88.056 160.936 88.1627 160.936 88.376V88.68C160.936 88.8933 160.829 89 160.616 89H154.696ZM165.74 80.92C166.71 80.92 167.468 81.1547 168.012 81.624C168.556 82.0827 168.828 82.6907 168.828 83.448V88.68C168.828 88.8933 168.721 89 168.508 89H168.188C167.974 89 167.868 88.8933 167.868 88.68V87.96C167.601 88.3867 167.222 88.7067 166.732 88.92C166.252 89.1333 165.713 89.24 165.116 89.24C164.284 89.24 163.606 89.064 163.084 88.712C162.561 88.36 162.3 87.816 162.3 87.08C162.3 86.4933 162.465 86.024 162.796 85.672C163.126 85.3093 163.558 85.0373 164.092 84.856C164.625 84.664 165.292 84.4933 166.092 84.344L167.82 84.04V83.528C167.82 82.984 167.633 82.5627 167.26 82.264C166.886 81.9547 166.396 81.8 165.788 81.8C165.329 81.8 164.913 81.8853 164.54 82.056C164.166 82.2267 163.766 82.52 163.34 82.936C163.265 83.0107 163.185 83.048 163.1 83.048C163.025 83.048 162.956 83.016 162.892 82.952L162.684 82.76C162.609 82.6853 162.572 82.6053 162.572 82.52C162.572 82.424 162.609 82.3387 162.684 82.264C163.132 81.7947 163.601 81.4533 164.092 81.24C164.593 81.0267 165.142 80.92 165.74 80.92ZM165.164 88.36C165.932 88.36 166.566 88.1573 167.068 87.752C167.569 87.3467 167.82 86.8293 167.82 86.2V84.856L166.332 85.144C165.638 85.2827 165.089 85.416 164.684 85.544C164.278 85.672 163.953 85.8587 163.708 86.104C163.462 86.3493 163.34 86.6693 163.34 87.064C163.34 87.4693 163.5 87.7893 163.82 88.024C164.15 88.248 164.598 88.36 165.164 88.36ZM174.944 80.936C175.616 80.936 176.214 81.112 176.736 81.464C177.27 81.8053 177.68 82.2907 177.968 82.92C178.267 83.5387 178.416 84.2533 178.416 85.064C178.416 85.8747 178.267 86.5947 177.968 87.224C177.67 87.8427 177.254 88.328 176.72 88.68C176.198 89.0213 175.606 89.192 174.944 89.192C173.675 89.192 172.747 88.7013 172.16 87.72V88.68C172.16 88.8933 172.054 89 171.84 89H171.488C171.275 89 171.168 88.8933 171.168 88.68V77.944C171.168 77.7307 171.275 77.624 171.488 77.624H171.904C172.118 77.624 172.224 77.7307 172.224 77.944V82.36C172.811 81.4107 173.718 80.936 174.944 80.936ZM174.864 88.296C175.6 88.296 176.192 87.9973 176.64 87.4C177.099 86.8027 177.328 86.024 177.328 85.064C177.328 84.104 177.099 83.3253 176.64 82.728C176.192 82.1307 175.6 81.832 174.864 81.832C174.075 81.832 173.43 82.12 172.928 82.696C172.427 83.272 172.176 84.0613 172.176 85.064C172.176 86.0773 172.422 86.872 172.912 87.448C173.414 88.0133 174.064 88.296 174.864 88.296ZM186.131 87.128C186.206 87.0533 186.286 87.016 186.371 87.016C186.446 87.016 186.515 87.048 186.579 87.112L186.787 87.304C186.862 87.3787 186.899 87.4587 186.899 87.544C186.899 87.608 186.867 87.6827 186.803 87.768C186.28 88.2907 185.774 88.664 185.283 88.888C184.792 89.1013 184.243 89.208 183.635 89.208C182.867 89.208 182.2 89.0373 181.635 88.696C181.07 88.3547 180.632 87.88 180.323 87.272C180.014 86.6533 179.859 85.9387 179.859 85.128C179.859 84.3067 180.008 83.5813 180.307 82.952C180.616 82.312 181.048 81.816 181.603 81.464C182.158 81.1013 182.798 80.92 183.523 80.92C184.6 80.92 185.448 81.256 186.067 81.928C186.686 82.6 186.995 83.5067 186.995 84.648V84.84C186.984 84.936 186.947 85.0107 186.883 85.064C186.83 85.1173 186.755 85.144 186.659 85.144H180.931C180.963 86.04 181.198 86.7973 181.635 87.416C182.083 88.024 182.75 88.328 183.635 88.328C184.115 88.328 184.536 88.2427 184.899 88.072C185.272 87.8907 185.683 87.576 186.131 87.128ZM183.523 81.8C182.819 81.8 182.238 82.0187 181.779 82.456C181.331 82.8827 181.059 83.512 180.963 84.344H185.939C185.918 83.5653 185.694 82.9467 185.267 82.488C184.84 82.0293 184.259 81.8 183.523 81.8ZM189.223 89C189.01 89 188.903 88.8933 188.903 88.68V77.96C188.903 77.7467 189.01 77.64 189.223 77.64H189.639C189.852 77.64 189.959 77.7467 189.959 77.96V88.68C189.959 88.8933 189.852 89 189.639 89H189.223Z" fill="#C3CCD9"/>
<rect x="129" y="113" width="16" height="16" rx="2" fill="#C3CCD9"/>
<path fill-rule="evenodd" clip-rule="evenodd" d="M133 121C133 120.558 133.358 120.2 133.8 120.2H140.2C140.642 120.2 141 120.558 141 121C141 121.442 140.642 121.8 140.2 121.8H133.8C133.358 121.8 133 121.442 133 121Z" fill="white"/>
<path d="M154.696 127C154.483 127 154.376 126.893 154.376 126.68V115.96C154.376 115.747 154.483 115.64 154.696 115.64H155.192C155.405 115.64 155.512 115.747 155.512 115.96V126.056H160.616C160.829 126.056 160.936 126.163 160.936 126.376V126.68C160.936 126.893 160.829 127 160.616 127H154.696ZM165.74 118.92C166.71 118.92 167.468 119.155 168.012 119.624C168.556 120.083 168.828 120.691 168.828 121.448V126.68C168.828 126.893 168.721 127 168.508 127H168.188C167.974 127 167.868 126.893 167.868 126.68V125.96C167.601 126.387 167.222 126.707 166.732 126.92C166.252 127.133 165.713 127.24 165.116 127.24C164.284 127.24 163.606 127.064 163.084 126.712C162.561 126.36 162.3 125.816 162.3 125.08C162.3 124.493 162.465 124.024 162.796 123.672C163.126 123.309 163.558 123.037 164.092 122.856C164.625 122.664 165.292 122.493 166.092 122.344L167.82 122.04V121.528C167.82 120.984 167.633 120.563 167.26 120.264C166.886 119.955 166.396 119.8 165.788 119.8C165.329 119.8 164.913 119.885 164.54 120.056C164.166 120.227 163.766 120.52 163.34 120.936C163.265 121.011 163.185 121.048 163.1 121.048C163.025 121.048 162.956 121.016 162.892 120.952L162.684 120.76C162.609 120.685 162.572 120.605 162.572 120.52C162.572 120.424 162.609 120.339 162.684 120.264C163.132 119.795 163.601 119.453 164.092 119.24C164.593 119.027 165.142 118.92 165.74 118.92ZM165.164 126.36C165.932 126.36 166.566 126.157 167.068 125.752C167.569 125.347 167.82 124.829 167.82 124.2V122.856L166.332 123.144C165.638 123.283 165.089 123.416 164.684 123.544C164.278 123.672 163.953 123.859 163.708 124.104C163.462 124.349 163.34 124.669 163.34 125.064C163.34 125.469 163.5 125.789 163.82 126.024C164.15 126.248 164.598 126.36 165.164 126.36ZM174.944 118.936C175.616 118.936 176.214 119.112 176.736 119.464C177.27 119.805 177.68 120.291 177.968 120.92C178.267 121.539 178.416 122.253 178.416 123.064C178.416 123.875 178.267 124.595 177.968 125.224C177.67 125.843 177.254 126.328 176.72 126.68C176.198 127.021 175.606 127.192 174.944 127.192C173.675 127.192 172.747 126.701 172.16 125.72V126.68C172.16 126.893 172.054 127 171.84 127H171.488C171.275 127 171.168 126.893 171.168 126.68V115.944C171.168 115.731 171.275 115.624 171.488 115.624H171.904C172.118 115.624 172.224 115.731 172.224 115.944V120.36C172.811 119.411 173.718 118.936 174.944 118.936ZM174.864 126.296C175.6 126.296 176.192 125.997 176.64 125.4C177.099 124.803 177.328 124.024 177.328 123.064C177.328 122.104 177.099 121.325 176.64 120.728C176.192 120.131 175.6 119.832 174.864 119.832C174.075 119.832 173.43 120.12 172.928 120.696C172.427 121.272 172.176 122.061 172.176 123.064C172.176 124.077 172.422 124.872 172.912 125.448C173.414 126.013 174.064 126.296 174.864 126.296ZM186.131 125.128C186.206 125.053 186.286 125.016 186.371 125.016C186.446 125.016 186.515 125.048 186.579 125.112L186.787 125.304C186.862 125.379 186.899 125.459 186.899 125.544C186.899 125.608 186.867 125.683 186.803 125.768C186.28 126.291 185.774 126.664 185.283 126.888C184.792 127.101 184.243 127.208 183.635 127.208C182.867 127.208 182.2 127.037 181.635 126.696C181.07 126.355 180.632 125.88 180.323 125.272C180.014 124.653 179.859 123.939 179.859 123.128C179.859 122.307 180.008 121.581 180.307 120.952C180.616 120.312 181.048 119.816 181.603 119.464C182.158 119.101 182.798 118.92 183.523 118.92C184.6 118.92 185.448 119.256 186.067 119.928C186.686 120.6 186.995 121.507 186.995 122.648V122.84C186.984 122.936 186.947 123.011 186.883 123.064C186.83 123.117 186.755 123.144 186.659 123.144H180.931C180.963 124.04 181.198 124.797 181.635 125.416C182.083 126.024 182.75 126.328 183.635 126.328C184.115 126.328 184.536 126.243 184.899 126.072C185.272 125.891 185.683 125.576 186.131 125.128ZM183.523 119.8C182.819 119.8 182.238 120.019 181.779 120.456C181.331 120.883 181.059 121.512 180.963 122.344H185.939C185.918 121.565 185.694 120.947 185.267 120.488C184.84 120.029 184.259 119.8 183.523 119.8ZM189.223 127C189.01 127 188.903 126.893 188.903 126.68V115.96C188.903 115.747 189.01 115.64 189.223 115.64H189.639C189.852 115.64 189.959 115.747 189.959 115.96V126.68C189.959 126.893 189.852 127 189.639 127H189.223Z" fill="#C3CCD9"/>
</svg>
