<svg width="344" height="168" viewBox="0 0 344 168" fill="none" xmlns="http://www.w3.org/2000/svg">
<rect width="344" height="168" fill="#F5F5F5"/>
<rect x="84.5" y="76.5" width="15" height="15" rx="1.5" fill="#0063FB" stroke="#0063FB"/>
<path d="M91.2264 85.5671L94.9035 81.1679C95.1789 80.8383 95.6694 80.7945 95.999 81.0699C96.3286 81.3454 96.3725 81.8359 96.097 82.1655L91.8713 87.2211C91.5771 87.573 91.0438 87.5953 90.7213 87.269L88.3359 84.8555C88.034 84.55 88.0368 84.0575 88.3424 83.7556C88.6479 83.4536 89.1403 83.4565 89.4423 83.762L91.2264 85.5671Z" fill="white"/>
<path d="M112.496 90C112.283 90 112.176 89.8933 112.176 89.68V79.584H108.832C108.619 79.584 108.512 79.4773 108.512 79.264V78.96C108.512 78.7467 108.619 78.64 108.832 78.64H116.64C116.853 78.64 116.96 78.7467 116.96 78.96V79.264C116.96 79.4773 116.853 79.584 116.64 79.584H113.312V89.68C113.312 89.8933 113.205 90 112.992 90H112.496ZM122.226 82.432C122.226 82.2187 122.333 82.112 122.546 82.112H122.962C123.175 82.112 123.282 82.2187 123.282 82.432V89.68C123.282 89.8933 123.175 90 122.962 90H122.626C122.413 90 122.306 89.8933 122.306 89.68V88.96C122.071 89.376 121.735 89.6907 121.298 89.904C120.871 90.1067 120.402 90.208 119.89 90.208C118.93 90.208 118.221 89.968 117.762 89.488C117.303 88.9973 117.074 88.368 117.074 87.6V82.432C117.074 82.2187 117.181 82.112 117.394 82.112H117.81C118.023 82.112 118.13 82.2187 118.13 82.432V87.376C118.13 88.0053 118.285 88.4853 118.594 88.816C118.914 89.136 119.367 89.296 119.954 89.296C120.615 89.296 121.159 89.0933 121.586 88.688C122.013 88.2827 122.226 87.7067 122.226 86.96V82.432ZM128.597 82.048C128.863 82.048 129.178 82.0907 129.541 82.176C129.733 82.24 129.807 82.3733 129.765 82.576L129.701 82.832C129.647 83.0347 129.514 83.1093 129.301 83.056C129.045 82.992 128.81 82.96 128.597 82.96C128.053 82.96 127.599 83.1947 127.237 83.664C126.885 84.1333 126.709 84.784 126.709 85.616V89.68C126.709 89.8933 126.602 90 126.389 90H125.973C125.759 90 125.653 89.8933 125.653 89.68V82.432C125.653 82.2187 125.759 82.112 125.973 82.112H126.325C126.538 82.112 126.645 82.2187 126.645 82.432V83.312C126.826 82.9173 127.082 82.608 127.413 82.384C127.754 82.16 128.149 82.048 128.597 82.048ZM134.72 81.92C135.648 81.92 136.346 82.176 136.816 82.688C137.296 83.2 137.536 83.84 137.536 84.608V89.68C137.536 89.8933 137.429 90 137.216 90H136.8C136.586 90 136.48 89.8933 136.48 89.68V84.96C136.48 84.256 136.309 83.7227 135.968 83.36C135.626 82.9973 135.136 82.816 134.496 82.816C134.09 82.816 133.717 82.9173 133.376 83.12C133.034 83.312 132.762 83.5787 132.56 83.92C132.357 84.2613 132.256 84.6347 132.256 85.04V89.68C132.256 89.8933 132.149 90 131.936 90H131.52C131.306 90 131.2 89.8933 131.2 89.68V82.432C131.2 82.2187 131.306 82.112 131.52 82.112H131.872C132.085 82.112 132.192 82.2187 132.192 82.432V83.2C132.458 82.7733 132.81 82.4533 133.248 82.24C133.685 82.0267 134.176 81.92 134.72 81.92ZM146.823 90.208C146.087 90.208 145.431 90.032 144.855 89.68C144.279 89.328 143.831 88.8427 143.511 88.224C143.191 87.5947 143.031 86.8747 143.031 86.064C143.031 85.2533 143.191 84.5387 143.511 83.92C143.831 83.2907 144.279 82.8 144.855 82.448C145.431 82.096 146.087 81.92 146.823 81.92C147.559 81.92 148.215 82.096 148.791 82.448C149.367 82.8 149.815 83.2907 150.135 83.92C150.455 84.5387 150.615 85.2533 150.615 86.064C150.615 86.8747 150.455 87.5947 150.135 88.224C149.815 88.8427 149.367 89.328 148.791 89.68C148.215 90.032 147.559 90.208 146.823 90.208ZM146.823 89.328C147.644 89.328 148.3 89.0293 148.791 88.432C149.282 87.824 149.527 87.0347 149.527 86.064C149.527 85.0933 149.282 84.3093 148.791 83.712C148.3 83.104 147.644 82.8 146.823 82.8C146.002 82.8 145.346 83.104 144.855 83.712C144.364 84.3093 144.119 85.0933 144.119 86.064C144.119 87.0347 144.364 87.824 144.855 88.432C145.346 89.0293 146.002 89.328 146.823 89.328ZM155.97 81.92C156.898 81.92 157.596 82.176 158.066 82.688C158.546 83.2 158.786 83.84 158.786 84.608V89.68C158.786 89.8933 158.679 90 158.466 90H158.05C157.836 90 157.73 89.8933 157.73 89.68V84.96C157.73 84.256 157.559 83.7227 157.218 83.36C156.876 82.9973 156.386 82.816 155.746 82.816C155.34 82.816 154.967 82.9173 154.626 83.12C154.284 83.312 154.012 83.5787 153.81 83.92C153.607 84.2613 153.506 84.6347 153.506 85.04V89.68C153.506 89.8933 153.399 90 153.186 90H152.77C152.556 90 152.45 89.8933 152.45 89.68V82.432C152.45 82.2187 152.556 82.112 152.77 82.112H153.122C153.335 82.112 153.442 82.2187 153.442 82.432V83.2C153.708 82.7733 154.06 82.4533 154.498 82.24C154.935 82.0267 155.426 81.92 155.97 81.92ZM168.329 81.92C169.257 81.92 169.956 82.176 170.425 82.688C170.905 83.2 171.145 83.84 171.145 84.608V89.68C171.145 89.8933 171.038 90 170.825 90H170.409C170.196 90 170.089 89.8933 170.089 89.68V84.96C170.089 84.256 169.918 83.7227 169.577 83.36C169.236 82.9973 168.745 82.816 168.105 82.816C167.7 82.816 167.326 82.9173 166.985 83.12C166.644 83.312 166.372 83.5787 166.169 83.92C165.966 84.2613 165.865 84.6347 165.865 85.04V89.68C165.865 89.8933 165.758 90 165.545 90H165.129C164.916 90 164.809 89.8933 164.809 89.68V82.432C164.809 82.2187 164.916 82.112 165.129 82.112H165.481C165.694 82.112 165.801 82.2187 165.801 82.432V83.2C166.068 82.7733 166.42 82.4533 166.857 82.24C167.294 82.0267 167.785 81.92 168.329 81.92ZM176.745 90.208C176.009 90.208 175.353 90.032 174.777 89.68C174.201 89.328 173.753 88.8427 173.433 88.224C173.113 87.5947 172.953 86.8747 172.953 86.064C172.953 85.2533 173.113 84.5387 173.433 83.92C173.753 83.2907 174.201 82.8 174.777 82.448C175.353 82.096 176.009 81.92 176.745 81.92C177.481 81.92 178.137 82.096 178.713 82.448C179.289 82.8 179.737 83.2907 180.057 83.92C180.377 84.5387 180.537 85.2533 180.537 86.064C180.537 86.8747 180.377 87.5947 180.057 88.224C179.737 88.8427 179.289 89.328 178.713 89.68C178.137 90.032 177.481 90.208 176.745 90.208ZM176.745 89.328C177.566 89.328 178.222 89.0293 178.713 88.432C179.204 87.824 179.449 87.0347 179.449 86.064C179.449 85.0933 179.204 84.3093 178.713 83.712C178.222 83.104 177.566 82.8 176.745 82.8C175.924 82.8 175.268 83.104 174.777 83.712C174.286 84.3093 174.041 85.0933 174.041 86.064C174.041 87.0347 174.286 87.824 174.777 88.432C175.268 89.0293 175.924 89.328 176.745 89.328ZM185.689 89.12C185.721 89.1093 185.764 89.104 185.817 89.104C185.881 89.104 185.94 89.1253 185.993 89.168C186.046 89.2107 186.078 89.2693 186.089 89.344L186.137 89.568C186.148 89.5893 186.153 89.6267 186.153 89.68C186.153 89.8293 186.073 89.92 185.913 89.952C185.529 90.0693 185.118 90.128 184.681 90.128C183.988 90.128 183.492 89.9733 183.193 89.664C182.905 89.344 182.761 88.8853 182.761 88.288V82.912H181.577C181.364 82.912 181.257 82.8053 181.257 82.592V82.432C181.257 82.2187 181.364 82.112 181.577 82.112H182.761V79.68C182.761 79.4667 182.868 79.36 183.081 79.36H183.497C183.71 79.36 183.817 79.4667 183.817 79.68V82.112H185.737C185.95 82.112 186.057 82.2187 186.057 82.432V82.592C186.057 82.8053 185.95 82.912 185.737 82.912H183.817V88.16C183.817 88.5547 183.892 88.832 184.041 88.992C184.19 89.152 184.446 89.232 184.809 89.232C185.065 89.232 185.358 89.1947 185.689 89.12ZM188.196 80.112C187.983 80.112 187.802 80.0373 187.652 79.888C187.514 79.7387 187.444 79.5573 187.444 79.344C187.444 79.1307 187.514 78.9547 187.652 78.816C187.802 78.6773 187.983 78.608 188.196 78.608C188.42 78.608 188.602 78.6773 188.74 78.816C188.89 78.9547 188.964 79.1307 188.964 79.344C188.964 79.5573 188.89 79.7387 188.74 79.888C188.602 80.0373 188.42 80.112 188.196 80.112ZM187.988 90C187.775 90 187.668 89.8933 187.668 89.68V82.432C187.668 82.2187 187.775 82.112 187.988 82.112H188.404C188.618 82.112 188.724 82.2187 188.724 82.432V89.68C188.724 89.8933 188.618 90 188.404 90H187.988ZM194.083 79.328C193.603 79.328 193.261 79.456 193.059 79.712C192.856 79.9573 192.755 80.3733 192.755 80.96V82.112H194.515C194.728 82.112 194.835 82.2187 194.835 82.432V82.592C194.835 82.8053 194.728 82.912 194.515 82.912H192.755V89.68C192.755 89.8933 192.648 90 192.435 90H192.019C191.805 90 191.699 89.8933 191.699 89.68V82.912H190.515C190.301 82.912 190.195 82.8053 190.195 82.592V82.432C190.195 82.2187 190.301 82.112 190.515 82.112H191.699V80.784C191.699 80.048 191.891 79.472 192.275 79.056C192.669 78.64 193.229 78.432 193.955 78.432C194.36 78.432 194.776 78.4907 195.203 78.608C195.405 78.672 195.48 78.8053 195.427 79.008L195.363 79.232C195.309 79.3813 195.203 79.456 195.043 79.456C195.011 79.456 194.941 79.4453 194.835 79.424C194.6 79.36 194.349 79.328 194.083 79.328ZM196.915 80.112C196.702 80.112 196.52 80.0373 196.371 79.888C196.232 79.7387 196.163 79.5573 196.163 79.344C196.163 79.1307 196.232 78.9547 196.371 78.816C196.52 78.6773 196.702 78.608 196.915 78.608C197.139 78.608 197.32 78.6773 197.459 78.816C197.608 78.9547 197.683 79.1307 197.683 79.344C197.683 79.5573 197.608 79.7387 197.459 79.888C197.32 80.0373 197.139 80.112 196.915 80.112ZM196.707 90C196.494 90 196.387 89.8933 196.387 89.68V82.432C196.387 82.2187 196.494 82.112 196.707 82.112H197.123C197.336 82.112 197.443 82.2187 197.443 82.432V89.68C197.443 89.8933 197.336 90 197.123 90H196.707ZM202.993 90.208C202.236 90.208 201.575 90.0373 201.009 89.696C200.455 89.344 200.023 88.8587 199.713 88.24C199.415 87.6107 199.265 86.8853 199.265 86.064C199.265 85.2533 199.415 84.5333 199.713 83.904C200.023 83.2747 200.455 82.7893 201.009 82.448C201.575 82.096 202.225 81.92 202.961 81.92C203.559 81.92 204.081 82.0213 204.529 82.224C204.977 82.416 205.409 82.736 205.825 83.184C205.889 83.248 205.921 83.3173 205.921 83.392C205.921 83.488 205.879 83.568 205.793 83.632L205.569 83.84C205.505 83.904 205.431 83.936 205.345 83.936C205.271 83.936 205.191 83.8933 205.105 83.808C204.732 83.4347 204.375 83.1733 204.033 83.024C203.703 82.8747 203.335 82.8 202.929 82.8C202.375 82.8 201.9 82.9547 201.505 83.264C201.121 83.5733 200.833 83.9787 200.641 84.48C200.449 84.9707 200.353 85.4987 200.353 86.064C200.353 86.6293 200.449 87.1627 200.641 87.664C200.833 88.1547 201.127 88.5547 201.521 88.864C201.916 89.1627 202.401 89.312 202.977 89.312C203.404 89.312 203.777 89.2373 204.097 89.088C204.428 88.928 204.796 88.6293 205.201 88.192C205.287 88.1067 205.367 88.064 205.441 88.064C205.527 88.064 205.601 88.096 205.665 88.16L205.889 88.336C205.964 88.4 206.001 88.4747 206.001 88.56C206.001 88.6453 205.953 88.7467 205.857 88.864C205.409 89.3547 204.961 89.7013 204.513 89.904C204.065 90.1067 203.559 90.208 202.993 90.208ZM210.896 81.92C211.867 81.92 212.624 82.1547 213.168 82.624C213.712 83.0827 213.984 83.6907 213.984 84.448V89.68C213.984 89.8933 213.877 90 213.664 90H213.344C213.131 90 213.024 89.8933 213.024 89.68V88.96C212.757 89.3867 212.379 89.7067 211.888 89.92C211.408 90.1333 210.869 90.24 210.272 90.24C209.44 90.24 208.763 90.064 208.24 89.712C207.717 89.36 207.456 88.816 207.456 88.08C207.456 87.4933 207.621 87.024 207.952 86.672C208.283 86.3093 208.715 86.0373 209.248 85.856C209.781 85.664 210.448 85.4933 211.248 85.344L212.976 85.04V84.528C212.976 83.984 212.789 83.5627 212.416 83.264C212.043 82.9547 211.552 82.8 210.944 82.8C210.485 82.8 210.069 82.8853 209.696 83.056C209.323 83.2267 208.923 83.52 208.496 83.936C208.421 84.0107 208.341 84.048 208.256 84.048C208.181 84.048 208.112 84.016 208.048 83.952L207.84 83.76C207.765 83.6853 207.728 83.6053 207.728 83.52C207.728 83.424 207.765 83.3387 207.84 83.264C208.288 82.7947 208.757 82.4533 209.248 82.24C209.749 82.0267 210.299 81.92 210.896 81.92ZM210.32 89.36C211.088 89.36 211.723 89.1573 212.224 88.752C212.725 88.3467 212.976 87.8293 212.976 87.2V85.856L211.488 86.144C210.795 86.2827 210.245 86.416 209.84 86.544C209.435 86.672 209.109 86.8587 208.864 87.104C208.619 87.3493 208.496 87.6693 208.496 88.064C208.496 88.4693 208.656 88.7893 208.976 89.024C209.307 89.248 209.755 89.36 210.32 89.36ZM219.658 89.12C219.69 89.1093 219.733 89.104 219.786 89.104C219.85 89.104 219.909 89.1253 219.962 89.168C220.015 89.2107 220.047 89.2693 220.058 89.344L220.106 89.568C220.117 89.5893 220.122 89.6267 220.122 89.68C220.122 89.8293 220.042 89.92 219.882 89.952C219.498 90.0693 219.087 90.128 218.65 90.128C217.957 90.128 217.461 89.9733 217.162 89.664C216.874 89.344 216.73 88.8853 216.73 88.288V82.912H215.546C215.333 82.912 215.226 82.8053 215.226 82.592V82.432C215.226 82.2187 215.333 82.112 215.546 82.112H216.73V79.68C216.73 79.4667 216.837 79.36 217.05 79.36H217.466C217.679 79.36 217.786 79.4667 217.786 79.68V82.112H219.706C219.919 82.112 220.026 82.2187 220.026 82.432V82.592C220.026 82.8053 219.919 82.912 219.706 82.912H217.786V88.16C217.786 88.5547 217.861 88.832 218.01 88.992C218.159 89.152 218.415 89.232 218.778 89.232C219.034 89.232 219.327 89.1947 219.658 89.12ZM222.165 80.112C221.952 80.112 221.77 80.0373 221.621 79.888C221.482 79.7387 221.413 79.5573 221.413 79.344C221.413 79.1307 221.482 78.9547 221.621 78.816C221.77 78.6773 221.952 78.608 222.165 78.608C222.389 78.608 222.57 78.6773 222.709 78.816C222.858 78.9547 222.933 79.1307 222.933 79.344C222.933 79.5573 222.858 79.7387 222.709 79.888C222.57 80.0373 222.389 80.112 222.165 80.112ZM221.957 90C221.744 90 221.637 89.8933 221.637 89.68V82.432C221.637 82.2187 221.744 82.112 221.957 82.112H222.373C222.586 82.112 222.693 82.2187 222.693 82.432V89.68C222.693 89.8933 222.586 90 222.373 90H221.957ZM228.307 90.208C227.571 90.208 226.915 90.032 226.339 89.68C225.763 89.328 225.315 88.8427 224.995 88.224C224.675 87.5947 224.515 86.8747 224.515 86.064C224.515 85.2533 224.675 84.5387 224.995 83.92C225.315 83.2907 225.763 82.8 226.339 82.448C226.915 82.096 227.571 81.92 228.307 81.92C229.043 81.92 229.699 82.096 230.275 82.448C230.851 82.8 231.299 83.2907 231.619 83.92C231.939 84.5387 232.099 85.2533 232.099 86.064C232.099 86.8747 231.939 87.5947 231.619 88.224C231.299 88.8427 230.851 89.328 230.275 89.68C229.699 90.032 229.043 90.208 228.307 90.208ZM228.307 89.328C229.129 89.328 229.785 89.0293 230.275 88.432C230.766 87.824 231.011 87.0347 231.011 86.064C231.011 85.0933 230.766 84.3093 230.275 83.712C229.785 83.104 229.129 82.8 228.307 82.8C227.486 82.8 226.83 83.104 226.339 83.712C225.849 84.3093 225.603 85.0933 225.603 86.064C225.603 87.0347 225.849 87.824 226.339 88.432C226.83 89.0293 227.486 89.328 228.307 89.328ZM237.454 81.92C238.382 81.92 239.081 82.176 239.55 82.688C240.03 83.2 240.27 83.84 240.27 84.608V89.68C240.27 89.8933 240.163 90 239.95 90H239.534C239.321 90 239.214 89.8933 239.214 89.68V84.96C239.214 84.256 239.043 83.7227 238.702 83.36C238.361 82.9973 237.87 82.816 237.23 82.816C236.825 82.816 236.451 82.9173 236.11 83.12C235.769 83.312 235.497 83.5787 235.294 83.92C235.091 84.2613 234.99 84.6347 234.99 85.04V89.68C234.99 89.8933 234.883 90 234.67 90H234.254C234.041 90 233.934 89.8933 233.934 89.68V82.432C233.934 82.2187 234.041 82.112 234.254 82.112H234.606C234.819 82.112 234.926 82.2187 234.926 82.432V83.2C235.193 82.7733 235.545 82.4533 235.982 82.24C236.419 82.0267 236.91 81.92 237.454 81.92ZM245.358 90.208C244.707 90.208 244.131 90.1173 243.63 89.936C243.139 89.744 242.622 89.424 242.078 88.976C241.982 88.912 241.934 88.8373 241.934 88.752C241.934 88.6773 241.971 88.6027 242.046 88.528L242.254 88.304C242.318 88.2187 242.398 88.176 242.494 88.176C242.569 88.176 242.638 88.208 242.702 88.272C243.214 88.6667 243.667 88.944 244.062 89.104C244.457 89.2533 244.889 89.328 245.358 89.328C245.945 89.328 246.425 89.2 246.798 88.944C247.171 88.6773 247.358 88.32 247.358 87.872C247.358 87.424 247.166 87.0933 246.782 86.88C246.398 86.6667 245.806 86.4747 245.006 86.304C244.302 86.1547 243.747 86 243.342 85.84C242.947 85.6693 242.654 85.456 242.462 85.2C242.27 84.944 242.174 84.608 242.174 84.192C242.174 83.5093 242.451 82.96 243.006 82.544C243.561 82.128 244.259 81.92 245.102 81.92C245.678 81.92 246.19 81.9947 246.638 82.144C247.097 82.2827 247.555 82.5173 248.014 82.848C248.11 82.9227 248.158 83.0027 248.158 83.088C248.158 83.1413 248.131 83.2107 248.078 83.296L247.886 83.536C247.833 83.6213 247.758 83.664 247.662 83.664C247.577 83.664 247.502 83.6373 247.438 83.584C247.001 83.2747 246.611 83.0667 246.27 82.96C245.939 82.8533 245.561 82.8 245.134 82.8C244.547 82.8 244.078 82.928 243.726 83.184C243.374 83.44 243.198 83.7653 243.198 84.16C243.198 84.4053 243.278 84.6027 243.438 84.752C243.598 84.9013 243.827 85.0293 244.126 85.136C244.425 85.232 244.862 85.344 245.438 85.472C246.505 85.7067 247.262 85.9947 247.71 86.336C248.169 86.6773 248.398 87.1733 248.398 87.824C248.398 88.5387 248.115 89.1147 247.55 89.552C246.985 89.9893 246.254 90.208 245.358 90.208Z" fill="#464646"/>
</svg>
