<svg width="344" height="168" viewBox="0 0 344 168" fill="none" xmlns="http://www.w3.org/2000/svg">
<rect width="344" height="168" fill="#F5F5F5"/>
<rect x="129.5" y="37.5" width="15" height="15" rx="1.5" fill="white" stroke="#C3CCD9"/>
<path d="M154.824 51C154.397 51 154.184 50.7867 154.184 50.36V40.28C154.184 39.8533 154.397 39.64 154.824 39.64H155.64C156.067 39.64 156.28 39.8533 156.28 40.28V49.208H160.712C161.139 49.208 161.352 49.4213 161.352 49.848V50.36C161.352 50.7867 161.139 51 160.712 51H154.824ZM166.336 42.856C167.435 42.856 168.277 43.112 168.864 43.624C169.451 44.1253 169.744 44.8027 169.744 45.656V50.36C169.744 50.7867 169.531 51 169.104 51H168.624C168.197 51 167.984 50.7867 167.984 50.36V50.168C167.739 50.5093 167.397 50.776 166.96 50.968C166.533 51.16 166.021 51.256 165.424 51.256C164.603 51.256 163.925 51.0747 163.392 50.712C162.869 50.3387 162.608 49.7733 162.608 49.016C162.608 48.184 162.912 47.5653 163.52 47.16C164.139 46.744 164.976 46.44 166.032 46.248L167.888 45.912V45.704C167.888 45.32 167.749 45.0213 167.472 44.808C167.195 44.584 166.827 44.472 166.368 44.472C165.963 44.472 165.605 44.5413 165.296 44.68C164.997 44.8187 164.683 45.0373 164.352 45.336C164.181 45.4747 164.027 45.544 163.888 45.544C163.749 45.544 163.6 45.4747 163.44 45.336L163.136 45.048C162.976 44.888 162.896 44.728 162.896 44.568C162.896 44.4187 162.96 44.28 163.088 44.152C163.547 43.7147 164.037 43.3893 164.56 43.176C165.093 42.9627 165.685 42.856 166.336 42.856ZM165.744 49.704C166.331 49.704 166.832 49.5493 167.248 49.24C167.675 48.92 167.888 48.44 167.888 47.8V47.304L166.528 47.576C165.835 47.7253 165.323 47.8907 164.992 48.072C164.672 48.2533 164.512 48.5253 164.512 48.888C164.512 49.1333 164.619 49.3307 164.832 49.48C165.056 49.6293 165.36 49.704 165.744 49.704ZM175.889 42.888C176.561 42.888 177.158 43.0587 177.681 43.4C178.214 43.7413 178.63 44.2267 178.929 44.856C179.227 45.4853 179.377 46.216 179.377 47.048C179.377 47.88 179.227 48.616 178.929 49.256C178.63 49.8853 178.214 50.3707 177.681 50.712C177.147 51.0533 176.55 51.224 175.889 51.224C174.769 51.224 173.926 50.808 173.361 49.976V50.36C173.361 50.7867 173.147 51 172.721 51H172.177C171.75 51 171.537 50.7867 171.537 50.36V40.28C171.537 39.8533 171.75 39.64 172.177 39.64H172.849C173.275 39.64 173.489 39.8533 173.489 40.28V43.976C174.043 43.2507 174.843 42.888 175.889 42.888ZM175.441 49.512C176.027 49.512 176.497 49.2933 176.849 48.856C177.211 48.408 177.393 47.8053 177.393 47.048C177.393 46.2907 177.217 45.688 176.865 45.24C176.523 44.792 176.054 44.568 175.457 44.568C174.859 44.568 174.369 44.792 173.985 45.24C173.611 45.688 173.425 46.2907 173.425 47.048C173.425 47.816 173.611 48.4187 173.985 48.856C174.369 49.2933 174.854 49.512 175.441 49.512ZM186.496 48.904C186.656 48.776 186.806 48.712 186.944 48.712C187.104 48.712 187.254 48.792 187.392 48.952L187.664 49.24C187.803 49.3787 187.872 49.5227 187.872 49.672C187.872 49.8533 187.787 50.0133 187.616 50.152C187.136 50.5467 186.651 50.8293 186.16 51C185.68 51.1707 185.152 51.256 184.576 51.256C183.734 51.256 183.003 51.0853 182.384 50.744C181.766 50.4027 181.291 49.9173 180.96 49.288C180.63 48.6587 180.464 47.928 180.464 47.096C180.464 46.2853 180.619 45.56 180.928 44.92C181.248 44.2693 181.707 43.7627 182.304 43.4C182.902 43.0373 183.6 42.856 184.4 42.856C185.584 42.856 186.491 43.2027 187.12 43.896C187.76 44.5893 188.08 45.5493 188.08 46.776V46.92C188.07 47.336 187.851 47.544 187.424 47.544H182.368C182.443 48.1733 182.667 48.6747 183.04 49.048C183.424 49.4213 183.947 49.608 184.608 49.608C184.971 49.608 185.291 49.5547 185.568 49.448C185.846 49.3413 186.155 49.16 186.496 48.904ZM184.352 44.392C183.83 44.392 183.403 44.552 183.072 44.872C182.742 45.1813 182.523 45.608 182.416 46.152H186.176C186.134 45.608 185.958 45.1813 185.648 44.872C185.339 44.552 184.907 44.392 184.352 44.392ZM190.241 51C189.814 51 189.601 50.7867 189.601 50.36V40.28C189.601 39.8533 189.814 39.64 190.241 39.64H190.913C191.34 39.64 191.553 39.8533 191.553 40.28V50.36C191.553 50.7867 191.34 51 190.913 51H190.241Z" fill="#C3CCD9"/>
<rect x="129" y="75" width="16" height="16" rx="2" fill="#C3CCD9"/>
<path d="M136.226 84.5671L139.903 80.1679C140.179 79.8383 140.669 79.7945 140.999 80.0699C141.329 80.3454 141.372 80.8359 141.097 81.1655L136.871 86.2211C136.577 86.573 136.044 86.5953 135.721 86.269L133.336 83.8555C133.034 83.55 133.037 83.0575 133.342 82.7556C133.648 82.4536 134.14 82.4565 134.442 82.762L136.226 84.5671Z" fill="white"/>
<path d="M154.824 89C154.397 89 154.184 88.7867 154.184 88.36V78.28C154.184 77.8533 154.397 77.64 154.824 77.64H155.64C156.067 77.64 156.28 77.8533 156.28 78.28V87.208H160.712C161.139 87.208 161.352 87.4213 161.352 87.848V88.36C161.352 88.7867 161.139 89 160.712 89H154.824ZM166.336 80.856C167.435 80.856 168.277 81.112 168.864 81.624C169.451 82.1253 169.744 82.8027 169.744 83.656V88.36C169.744 88.7867 169.531 89 169.104 89H168.624C168.197 89 167.984 88.7867 167.984 88.36V88.168C167.739 88.5093 167.397 88.776 166.96 88.968C166.533 89.16 166.021 89.256 165.424 89.256C164.603 89.256 163.925 89.0747 163.392 88.712C162.869 88.3387 162.608 87.7733 162.608 87.016C162.608 86.184 162.912 85.5653 163.52 85.16C164.139 84.744 164.976 84.44 166.032 84.248L167.888 83.912V83.704C167.888 83.32 167.749 83.0213 167.472 82.808C167.195 82.584 166.827 82.472 166.368 82.472C165.963 82.472 165.605 82.5413 165.296 82.68C164.997 82.8187 164.683 83.0373 164.352 83.336C164.181 83.4747 164.027 83.544 163.888 83.544C163.749 83.544 163.6 83.4747 163.44 83.336L163.136 83.048C162.976 82.888 162.896 82.728 162.896 82.568C162.896 82.4187 162.96 82.28 163.088 82.152C163.547 81.7147 164.037 81.3893 164.56 81.176C165.093 80.9627 165.685 80.856 166.336 80.856ZM165.744 87.704C166.331 87.704 166.832 87.5493 167.248 87.24C167.675 86.92 167.888 86.44 167.888 85.8V85.304L166.528 85.576C165.835 85.7253 165.323 85.8907 164.992 86.072C164.672 86.2533 164.512 86.5253 164.512 86.888C164.512 87.1333 164.619 87.3307 164.832 87.48C165.056 87.6293 165.36 87.704 165.744 87.704ZM175.889 80.888C176.561 80.888 177.158 81.0587 177.681 81.4C178.214 81.7413 178.63 82.2267 178.929 82.856C179.227 83.4853 179.377 84.216 179.377 85.048C179.377 85.88 179.227 86.616 178.929 87.256C178.63 87.8853 178.214 88.3707 177.681 88.712C177.147 89.0533 176.55 89.224 175.889 89.224C174.769 89.224 173.926 88.808 173.361 87.976V88.36C173.361 88.7867 173.147 89 172.721 89H172.177C171.75 89 171.537 88.7867 171.537 88.36V78.28C171.537 77.8533 171.75 77.64 172.177 77.64H172.849C173.275 77.64 173.489 77.8533 173.489 78.28V81.976C174.043 81.2507 174.843 80.888 175.889 80.888ZM175.441 87.512C176.027 87.512 176.497 87.2933 176.849 86.856C177.211 86.408 177.393 85.8053 177.393 85.048C177.393 84.2907 177.217 83.688 176.865 83.24C176.523 82.792 176.054 82.568 175.457 82.568C174.859 82.568 174.369 82.792 173.985 83.24C173.611 83.688 173.425 84.2907 173.425 85.048C173.425 85.816 173.611 86.4187 173.985 86.856C174.369 87.2933 174.854 87.512 175.441 87.512ZM186.496 86.904C186.656 86.776 186.806 86.712 186.944 86.712C187.104 86.712 187.254 86.792 187.392 86.952L187.664 87.24C187.803 87.3787 187.872 87.5227 187.872 87.672C187.872 87.8533 187.787 88.0133 187.616 88.152C187.136 88.5467 186.651 88.8293 186.16 89C185.68 89.1707 185.152 89.256 184.576 89.256C183.734 89.256 183.003 89.0853 182.384 88.744C181.766 88.4027 181.291 87.9173 180.96 87.288C180.63 86.6587 180.464 85.928 180.464 85.096C180.464 84.2853 180.619 83.56 180.928 82.92C181.248 82.2693 181.707 81.7627 182.304 81.4C182.902 81.0373 183.6 80.856 184.4 80.856C185.584 80.856 186.491 81.2027 187.12 81.896C187.76 82.5893 188.08 83.5493 188.08 84.776V84.92C188.07 85.336 187.851 85.544 187.424 85.544H182.368C182.443 86.1733 182.667 86.6747 183.04 87.048C183.424 87.4213 183.947 87.608 184.608 87.608C184.971 87.608 185.291 87.5547 185.568 87.448C185.846 87.3413 186.155 87.16 186.496 86.904ZM184.352 82.392C183.83 82.392 183.403 82.552 183.072 82.872C182.742 83.1813 182.523 83.608 182.416 84.152H186.176C186.134 83.608 185.958 83.1813 185.648 82.872C185.339 82.552 184.907 82.392 184.352 82.392ZM190.241 89C189.814 89 189.601 88.7867 189.601 88.36V78.28C189.601 77.8533 189.814 77.64 190.241 77.64H190.913C191.34 77.64 191.553 77.8533 191.553 78.28V88.36C191.553 88.7867 191.34 89 190.913 89H190.241Z" fill="#C3CCD9"/>
<rect x="129" y="113" width="16" height="16" rx="2" fill="#C3CCD9"/>
<path fill-rule="evenodd" clip-rule="evenodd" d="M133 121C133 120.558 133.358 120.2 133.8 120.2H140.2C140.642 120.2 141 120.558 141 121C141 121.442 140.642 121.8 140.2 121.8H133.8C133.358 121.8 133 121.442 133 121Z" fill="white"/>
<path d="M154.824 127C154.397 127 154.184 126.787 154.184 126.36V116.28C154.184 115.853 154.397 115.64 154.824 115.64H155.64C156.067 115.64 156.28 115.853 156.28 116.28V125.208H160.712C161.139 125.208 161.352 125.421 161.352 125.848V126.36C161.352 126.787 161.139 127 160.712 127H154.824ZM166.336 118.856C167.435 118.856 168.277 119.112 168.864 119.624C169.451 120.125 169.744 120.803 169.744 121.656V126.36C169.744 126.787 169.531 127 169.104 127H168.624C168.197 127 167.984 126.787 167.984 126.36V126.168C167.739 126.509 167.397 126.776 166.96 126.968C166.533 127.16 166.021 127.256 165.424 127.256C164.603 127.256 163.925 127.075 163.392 126.712C162.869 126.339 162.608 125.773 162.608 125.016C162.608 124.184 162.912 123.565 163.52 123.16C164.139 122.744 164.976 122.44 166.032 122.248L167.888 121.912V121.704C167.888 121.32 167.749 121.021 167.472 120.808C167.195 120.584 166.827 120.472 166.368 120.472C165.963 120.472 165.605 120.541 165.296 120.68C164.997 120.819 164.683 121.037 164.352 121.336C164.181 121.475 164.027 121.544 163.888 121.544C163.749 121.544 163.6 121.475 163.44 121.336L163.136 121.048C162.976 120.888 162.896 120.728 162.896 120.568C162.896 120.419 162.96 120.28 163.088 120.152C163.547 119.715 164.037 119.389 164.56 119.176C165.093 118.963 165.685 118.856 166.336 118.856ZM165.744 125.704C166.331 125.704 166.832 125.549 167.248 125.24C167.675 124.92 167.888 124.44 167.888 123.8V123.304L166.528 123.576C165.835 123.725 165.323 123.891 164.992 124.072C164.672 124.253 164.512 124.525 164.512 124.888C164.512 125.133 164.619 125.331 164.832 125.48C165.056 125.629 165.36 125.704 165.744 125.704ZM175.889 118.888C176.561 118.888 177.158 119.059 177.681 119.4C178.214 119.741 178.63 120.227 178.929 120.856C179.227 121.485 179.377 122.216 179.377 123.048C179.377 123.88 179.227 124.616 178.929 125.256C178.63 125.885 178.214 126.371 177.681 126.712C177.147 127.053 176.55 127.224 175.889 127.224C174.769 127.224 173.926 126.808 173.361 125.976V126.36C173.361 126.787 173.147 127 172.721 127H172.177C171.75 127 171.537 126.787 171.537 126.36V116.28C171.537 115.853 171.75 115.64 172.177 115.64H172.849C173.275 115.64 173.489 115.853 173.489 116.28V119.976C174.043 119.251 174.843 118.888 175.889 118.888ZM175.441 125.512C176.027 125.512 176.497 125.293 176.849 124.856C177.211 124.408 177.393 123.805 177.393 123.048C177.393 122.291 177.217 121.688 176.865 121.24C176.523 120.792 176.054 120.568 175.457 120.568C174.859 120.568 174.369 120.792 173.985 121.24C173.611 121.688 173.425 122.291 173.425 123.048C173.425 123.816 173.611 124.419 173.985 124.856C174.369 125.293 174.854 125.512 175.441 125.512ZM186.496 124.904C186.656 124.776 186.806 124.712 186.944 124.712C187.104 124.712 187.254 124.792 187.392 124.952L187.664 125.24C187.803 125.379 187.872 125.523 187.872 125.672C187.872 125.853 187.787 126.013 187.616 126.152C187.136 126.547 186.651 126.829 186.16 127C185.68 127.171 185.152 127.256 184.576 127.256C183.734 127.256 183.003 127.085 182.384 126.744C181.766 126.403 181.291 125.917 180.96 125.288C180.63 124.659 180.464 123.928 180.464 123.096C180.464 122.285 180.619 121.56 180.928 120.92C181.248 120.269 181.707 119.763 182.304 119.4C182.902 119.037 183.6 118.856 184.4 118.856C185.584 118.856 186.491 119.203 187.12 119.896C187.76 120.589 188.08 121.549 188.08 122.776V122.92C188.07 123.336 187.851 123.544 187.424 123.544H182.368C182.443 124.173 182.667 124.675 183.04 125.048C183.424 125.421 183.947 125.608 184.608 125.608C184.971 125.608 185.291 125.555 185.568 125.448C185.846 125.341 186.155 125.16 186.496 124.904ZM184.352 120.392C183.83 120.392 183.403 120.552 183.072 120.872C182.742 121.181 182.523 121.608 182.416 122.152H186.176C186.134 121.608 185.958 121.181 185.648 120.872C185.339 120.552 184.907 120.392 184.352 120.392ZM190.241 127C189.814 127 189.601 126.787 189.601 126.36V116.28C189.601 115.853 189.814 115.64 190.241 115.64H190.913C191.34 115.64 191.553 115.853 191.553 116.28V126.36C191.553 126.787 191.34 127 190.913 127H190.241Z" fill="#C3CCD9"/>
</svg>
