<svg width="344" height="168" viewBox="0 0 344 168" fill="none" xmlns="http://www.w3.org/2000/svg">
<rect width="344" height="168" fill="#F5F5F5"/>
<rect x="32.5" y="91.5" width="15" height="15" rx="1.5" fill="white" stroke="#767676"/>
<path d="M57.696 105C57.4827 105 57.376 104.893 57.376 104.68V93.96C57.376 93.7467 57.4827 93.64 57.696 93.64H58.192C58.4053 93.64 58.512 93.7467 58.512 93.96V104.056H63.616C63.8293 104.056 63.936 104.163 63.936 104.376V104.68C63.936 104.893 63.8293 105 63.616 105H57.696ZM68.7396 96.92C69.7103 96.92 70.4676 97.1547 71.0116 97.624C71.5556 98.0827 71.8276 98.6907 71.8276 99.448V104.68C71.8276 104.893 71.721 105 71.5076 105H71.1876C70.9743 105 70.8676 104.893 70.8676 104.68V103.96C70.601 104.387 70.2223 104.707 69.7316 104.92C69.2516 105.133 68.713 105.24 68.1156 105.24C67.2836 105.24 66.6063 105.064 66.0836 104.712C65.561 104.36 65.2996 103.816 65.2996 103.08C65.2996 102.493 65.465 102.024 65.7956 101.672C66.1263 101.309 66.5583 101.037 67.0916 100.856C67.625 100.664 68.2916 100.493 69.0916 100.344L70.8196 100.04V99.528C70.8196 98.984 70.633 98.5627 70.2596 98.264C69.8863 97.9547 69.3956 97.8 68.7876 97.8C68.329 97.8 67.913 97.8853 67.5396 98.056C67.1663 98.2267 66.7663 98.52 66.3396 98.936C66.265 99.0107 66.185 99.048 66.0996 99.048C66.025 99.048 65.9556 99.016 65.8916 98.952L65.6836 98.76C65.609 98.6853 65.5716 98.6053 65.5716 98.52C65.5716 98.424 65.609 98.3387 65.6836 98.264C66.1316 97.7947 66.601 97.4533 67.0916 97.24C67.593 97.0267 68.1423 96.92 68.7396 96.92ZM68.1636 104.36C68.9316 104.36 69.5663 104.157 70.0676 103.752C70.569 103.347 70.8196 102.829 70.8196 102.2V100.856L69.3316 101.144C68.6383 101.283 68.089 101.416 67.6836 101.544C67.2783 101.672 66.953 101.859 66.7076 102.104C66.4623 102.349 66.3396 102.669 66.3396 103.064C66.3396 103.469 66.4996 103.789 66.8196 104.024C67.1503 104.248 67.5983 104.36 68.1636 104.36ZM77.9444 96.936C78.6164 96.936 79.2137 97.112 79.7364 97.464C80.2697 97.8053 80.6804 98.2907 80.9684 98.92C81.267 99.5387 81.4164 100.253 81.4164 101.064C81.4164 101.875 81.267 102.595 80.9684 103.224C80.6697 103.843 80.2537 104.328 79.7204 104.68C79.1977 105.021 78.6057 105.192 77.9444 105.192C76.675 105.192 75.747 104.701 75.1604 103.72V104.68C75.1604 104.893 75.0537 105 74.8404 105H74.4884C74.275 105 74.1684 104.893 74.1684 104.68V93.944C74.1684 93.7307 74.275 93.624 74.4884 93.624H74.9044C75.1177 93.624 75.2244 93.7307 75.2244 93.944V98.36C75.811 97.4107 76.7177 96.936 77.9444 96.936ZM77.8644 104.296C78.6004 104.296 79.1924 103.997 79.6404 103.4C80.099 102.803 80.3284 102.024 80.3284 101.064C80.3284 100.104 80.099 99.3253 79.6404 98.728C79.1924 98.1307 78.6004 97.832 77.8644 97.832C77.075 97.832 76.4297 98.12 75.9284 98.696C75.427 99.272 75.1764 100.061 75.1764 101.064C75.1764 102.077 75.4217 102.872 75.9124 103.448C76.4137 104.013 77.0644 104.296 77.8644 104.296ZM89.1311 103.128C89.2058 103.053 89.2858 103.016 89.3711 103.016C89.4458 103.016 89.5151 103.048 89.5791 103.112L89.7871 103.304C89.8618 103.379 89.8991 103.459 89.8991 103.544C89.8991 103.608 89.8671 103.683 89.8031 103.768C89.2805 104.291 88.7738 104.664 88.2831 104.888C87.7925 105.101 87.2431 105.208 86.6351 105.208C85.8671 105.208 85.2005 105.037 84.6351 104.696C84.0698 104.355 83.6325 103.88 83.3231 103.272C83.0138 102.653 82.8591 101.939 82.8591 101.128C82.8591 100.307 83.0085 99.5813 83.3071 98.952C83.6165 98.312 84.0485 97.816 84.6031 97.464C85.1578 97.1013 85.7978 96.92 86.5231 96.92C87.6005 96.92 88.4485 97.256 89.0671 97.928C89.6858 98.6 89.9951 99.5067 89.9951 100.648V100.84C89.9845 100.936 89.9471 101.011 89.8831 101.064C89.8298 101.117 89.7551 101.144 89.6591 101.144H83.9311C83.9631 102.04 84.1978 102.797 84.6351 103.416C85.0831 104.024 85.7498 104.328 86.6351 104.328C87.1151 104.328 87.5365 104.243 87.8991 104.072C88.2725 103.891 88.6831 103.576 89.1311 103.128ZM86.5231 97.8C85.8191 97.8 85.2378 98.0187 84.7791 98.456C84.3311 98.8827 84.0591 99.512 83.9631 100.344H88.9391C88.9178 99.5653 88.6938 98.9467 88.2671 98.488C87.8405 98.0293 87.2591 97.8 86.5231 97.8ZM92.2231 105C92.0098 105 91.9031 104.893 91.9031 104.68V93.96C91.9031 93.7467 92.0098 93.64 92.2231 93.64H92.6391C92.8525 93.64 92.9591 93.7467 92.9591 93.96V104.68C92.9591 104.893 92.8525 105 92.6391 105H92.2231Z" fill="#464646"/>
<rect x="134.5" y="91.5" width="15" height="15" rx="1.5" fill="#0063FB" stroke="#0063FB"/>
<path fill-rule="evenodd" clip-rule="evenodd" d="M138 99C138 98.5581 138.358 98.2 138.8 98.2H145.2C145.642 98.2 146 98.5581 146 99C146 99.4418 145.642 99.8 145.2 99.8H138.8C138.358 99.8 138 99.4418 138 99Z" fill="white"/>
<path d="M159.696 105C159.483 105 159.376 104.893 159.376 104.68V93.96C159.376 93.7467 159.483 93.64 159.696 93.64H160.192C160.405 93.64 160.512 93.7467 160.512 93.96V104.056H165.616C165.829 104.056 165.936 104.163 165.936 104.376V104.68C165.936 104.893 165.829 105 165.616 105H159.696ZM170.74 96.92C171.71 96.92 172.468 97.1547 173.012 97.624C173.556 98.0827 173.828 98.6907 173.828 99.448V104.68C173.828 104.893 173.721 105 173.508 105H173.188C172.974 105 172.868 104.893 172.868 104.68V103.96C172.601 104.387 172.222 104.707 171.732 104.92C171.252 105.133 170.713 105.24 170.116 105.24C169.284 105.24 168.606 105.064 168.084 104.712C167.561 104.36 167.3 103.816 167.3 103.08C167.3 102.493 167.465 102.024 167.796 101.672C168.126 101.309 168.558 101.037 169.092 100.856C169.625 100.664 170.292 100.493 171.092 100.344L172.82 100.04V99.528C172.82 98.984 172.633 98.5627 172.26 98.264C171.886 97.9547 171.396 97.8 170.788 97.8C170.329 97.8 169.913 97.8853 169.54 98.056C169.166 98.2267 168.766 98.52 168.34 98.936C168.265 99.0107 168.185 99.048 168.1 99.048C168.025 99.048 167.956 99.016 167.892 98.952L167.684 98.76C167.609 98.6853 167.572 98.6053 167.572 98.52C167.572 98.424 167.609 98.3387 167.684 98.264C168.132 97.7947 168.601 97.4533 169.092 97.24C169.593 97.0267 170.142 96.92 170.74 96.92ZM170.164 104.36C170.932 104.36 171.566 104.157 172.068 103.752C172.569 103.347 172.82 102.829 172.82 102.2V100.856L171.332 101.144C170.638 101.283 170.089 101.416 169.684 101.544C169.278 101.672 168.953 101.859 168.708 102.104C168.462 102.349 168.34 102.669 168.34 103.064C168.34 103.469 168.5 103.789 168.82 104.024C169.15 104.248 169.598 104.36 170.164 104.36ZM179.944 96.936C180.616 96.936 181.214 97.112 181.736 97.464C182.27 97.8053 182.68 98.2907 182.968 98.92C183.267 99.5387 183.416 100.253 183.416 101.064C183.416 101.875 183.267 102.595 182.968 103.224C182.67 103.843 182.254 104.328 181.72 104.68C181.198 105.021 180.606 105.192 179.944 105.192C178.675 105.192 177.747 104.701 177.16 103.72V104.68C177.16 104.893 177.054 105 176.84 105H176.488C176.275 105 176.168 104.893 176.168 104.68V93.944C176.168 93.7307 176.275 93.624 176.488 93.624H176.904C177.118 93.624 177.224 93.7307 177.224 93.944V98.36C177.811 97.4107 178.718 96.936 179.944 96.936ZM179.864 104.296C180.6 104.296 181.192 103.997 181.64 103.4C182.099 102.803 182.328 102.024 182.328 101.064C182.328 100.104 182.099 99.3253 181.64 98.728C181.192 98.1307 180.6 97.832 179.864 97.832C179.075 97.832 178.43 98.12 177.928 98.696C177.427 99.272 177.176 100.061 177.176 101.064C177.176 102.077 177.422 102.872 177.912 103.448C178.414 104.013 179.064 104.296 179.864 104.296ZM191.131 103.128C191.206 103.053 191.286 103.016 191.371 103.016C191.446 103.016 191.515 103.048 191.579 103.112L191.787 103.304C191.862 103.379 191.899 103.459 191.899 103.544C191.899 103.608 191.867 103.683 191.803 103.768C191.28 104.291 190.774 104.664 190.283 104.888C189.792 105.101 189.243 105.208 188.635 105.208C187.867 105.208 187.2 105.037 186.635 104.696C186.07 104.355 185.632 103.88 185.323 103.272C185.014 102.653 184.859 101.939 184.859 101.128C184.859 100.307 185.008 99.5813 185.307 98.952C185.616 98.312 186.048 97.816 186.603 97.464C187.158 97.1013 187.798 96.92 188.523 96.92C189.6 96.92 190.448 97.256 191.067 97.928C191.686 98.6 191.995 99.5067 191.995 100.648V100.84C191.984 100.936 191.947 101.011 191.883 101.064C191.83 101.117 191.755 101.144 191.659 101.144H185.931C185.963 102.04 186.198 102.797 186.635 103.416C187.083 104.024 187.75 104.328 188.635 104.328C189.115 104.328 189.536 104.243 189.899 104.072C190.272 103.891 190.683 103.576 191.131 103.128ZM188.523 97.8C187.819 97.8 187.238 98.0187 186.779 98.456C186.331 98.8827 186.059 99.512 185.963 100.344H190.939C190.918 99.5653 190.694 98.9467 190.267 98.488C189.84 98.0293 189.259 97.8 188.523 97.8ZM194.223 105C194.01 105 193.903 104.893 193.903 104.68V93.96C193.903 93.7467 194.01 93.64 194.223 93.64H194.639C194.852 93.64 194.959 93.7467 194.959 93.96V104.68C194.959 104.893 194.852 105 194.639 105H194.223Z" fill="#464646"/>
<rect x="236.5" y="91.5" width="15" height="15" rx="1.5" fill="#0063FB" stroke="#0063FB"/>
<path d="M243.226 100.567L246.903 96.1679C247.179 95.8383 247.669 95.7945 247.999 96.0699C248.329 96.3454 248.372 96.8359 248.097 97.1655L243.871 102.221C243.577 102.573 243.044 102.595 242.721 102.269L240.336 99.8555C240.034 99.55 240.037 99.0575 240.342 98.7556C240.648 98.4536 241.14 98.4565 241.442 98.762L243.226 100.567Z" fill="white"/>
<path d="M261.696 105C261.483 105 261.376 104.893 261.376 104.68V93.96C261.376 93.7467 261.483 93.64 261.696 93.64H262.192C262.405 93.64 262.512 93.7467 262.512 93.96V104.056H267.616C267.829 104.056 267.936 104.163 267.936 104.376V104.68C267.936 104.893 267.829 105 267.616 105H261.696ZM272.74 96.92C273.71 96.92 274.468 97.1547 275.012 97.624C275.556 98.0827 275.828 98.6907 275.828 99.448V104.68C275.828 104.893 275.721 105 275.508 105H275.188C274.974 105 274.868 104.893 274.868 104.68V103.96C274.601 104.387 274.222 104.707 273.732 104.92C273.252 105.133 272.713 105.24 272.116 105.24C271.284 105.24 270.606 105.064 270.084 104.712C269.561 104.36 269.3 103.816 269.3 103.08C269.3 102.493 269.465 102.024 269.796 101.672C270.126 101.309 270.558 101.037 271.092 100.856C271.625 100.664 272.292 100.493 273.092 100.344L274.82 100.04V99.528C274.82 98.984 274.633 98.5627 274.26 98.264C273.886 97.9547 273.396 97.8 272.788 97.8C272.329 97.8 271.913 97.8853 271.54 98.056C271.166 98.2267 270.766 98.52 270.34 98.936C270.265 99.0107 270.185 99.048 270.1 99.048C270.025 99.048 269.956 99.016 269.892 98.952L269.684 98.76C269.609 98.6853 269.572 98.6053 269.572 98.52C269.572 98.424 269.609 98.3387 269.684 98.264C270.132 97.7947 270.601 97.4533 271.092 97.24C271.593 97.0267 272.142 96.92 272.74 96.92ZM272.164 104.36C272.932 104.36 273.566 104.157 274.068 103.752C274.569 103.347 274.82 102.829 274.82 102.2V100.856L273.332 101.144C272.638 101.283 272.089 101.416 271.684 101.544C271.278 101.672 270.953 101.859 270.708 102.104C270.462 102.349 270.34 102.669 270.34 103.064C270.34 103.469 270.5 103.789 270.82 104.024C271.15 104.248 271.598 104.36 272.164 104.36ZM281.944 96.936C282.616 96.936 283.214 97.112 283.736 97.464C284.27 97.8053 284.68 98.2907 284.968 98.92C285.267 99.5387 285.416 100.253 285.416 101.064C285.416 101.875 285.267 102.595 284.968 103.224C284.67 103.843 284.254 104.328 283.72 104.68C283.198 105.021 282.606 105.192 281.944 105.192C280.675 105.192 279.747 104.701 279.16 103.72V104.68C279.16 104.893 279.054 105 278.84 105H278.488C278.275 105 278.168 104.893 278.168 104.68V93.944C278.168 93.7307 278.275 93.624 278.488 93.624H278.904C279.118 93.624 279.224 93.7307 279.224 93.944V98.36C279.811 97.4107 280.718 96.936 281.944 96.936ZM281.864 104.296C282.6 104.296 283.192 103.997 283.64 103.4C284.099 102.803 284.328 102.024 284.328 101.064C284.328 100.104 284.099 99.3253 283.64 98.728C283.192 98.1307 282.6 97.832 281.864 97.832C281.075 97.832 280.43 98.12 279.928 98.696C279.427 99.272 279.176 100.061 279.176 101.064C279.176 102.077 279.422 102.872 279.912 103.448C280.414 104.013 281.064 104.296 281.864 104.296ZM293.131 103.128C293.206 103.053 293.286 103.016 293.371 103.016C293.446 103.016 293.515 103.048 293.579 103.112L293.787 103.304C293.862 103.379 293.899 103.459 293.899 103.544C293.899 103.608 293.867 103.683 293.803 103.768C293.28 104.291 292.774 104.664 292.283 104.888C291.792 105.101 291.243 105.208 290.635 105.208C289.867 105.208 289.2 105.037 288.635 104.696C288.07 104.355 287.632 103.88 287.323 103.272C287.014 102.653 286.859 101.939 286.859 101.128C286.859 100.307 287.008 99.5813 287.307 98.952C287.616 98.312 288.048 97.816 288.603 97.464C289.158 97.1013 289.798 96.92 290.523 96.92C291.6 96.92 292.448 97.256 293.067 97.928C293.686 98.6 293.995 99.5067 293.995 100.648V100.84C293.984 100.936 293.947 101.011 293.883 101.064C293.83 101.117 293.755 101.144 293.659 101.144H287.931C287.963 102.04 288.198 102.797 288.635 103.416C289.083 104.024 289.75 104.328 290.635 104.328C291.115 104.328 291.536 104.243 291.899 104.072C292.272 103.891 292.683 103.576 293.131 103.128ZM290.523 97.8C289.819 97.8 289.238 98.0187 288.779 98.456C288.331 98.8827 288.059 99.512 287.963 100.344H292.939C292.918 99.5653 292.694 98.9467 292.267 98.488C291.84 98.0293 291.259 97.8 290.523 97.8ZM296.223 105C296.01 105 295.903 104.893 295.903 104.68V93.96C295.903 93.7467 296.01 93.64 296.223 93.64H296.639C296.852 93.64 296.959 93.7467 296.959 93.96V104.68C296.959 104.893 296.852 105 296.639 105H296.223Z" fill="#464646"/>
<path d="M38.852 60.72C38.852 60.56 38.932 60.48 39.092 60.48H39.44C39.6 60.48 39.68 60.56 39.68 60.72V68.76C39.68 68.92 39.6 69 39.44 69H38.9C38.772 69 38.672 68.948 38.6 68.844L36.02 64.932L35.876 64.704C34.916 63.264 34.228 62.204 33.812 61.524C33.844 62.46 33.86 63.54 33.86 64.764V68.76C33.86 68.92 33.78 69 33.62 69H33.272C33.112 69 33.032 68.92 33.032 68.76V60.72C33.032 60.56 33.112 60.48 33.272 60.48H33.812C33.94 60.48 34.04 60.532 34.112 60.636L36.68 64.536L37.136 65.244C37.944 66.468 38.532 67.38 38.9 67.98C38.868 67.028 38.852 65.944 38.852 64.728V60.72ZM44.043 69.156C43.491 69.156 42.999 69.024 42.567 68.76C42.135 68.496 41.799 68.132 41.559 67.668C41.319 67.196 41.199 66.656 41.199 66.048C41.199 65.44 41.319 64.904 41.559 64.44C41.799 63.968 42.135 63.6 42.567 63.336C42.999 63.072 43.491 62.94 44.043 62.94C44.595 62.94 45.087 63.072 45.519 63.336C45.951 63.6 46.287 63.968 46.527 64.44C46.767 64.904 46.887 65.44 46.887 66.048C46.887 66.656 46.767 67.196 46.527 67.668C46.287 68.132 45.951 68.496 45.519 68.76C45.087 69.024 44.595 69.156 44.043 69.156ZM44.043 68.496C44.659 68.496 45.151 68.272 45.519 67.824C45.887 67.368 46.071 66.776 46.071 66.048C46.071 65.32 45.887 64.732 45.519 64.284C45.151 63.828 44.659 63.6 44.043 63.6C43.427 63.6 42.935 63.828 42.567 64.284C42.199 64.732 42.015 65.32 42.015 66.048C42.015 66.776 42.199 67.368 42.567 67.824C42.935 68.272 43.427 68.496 44.043 68.496ZM50.7512 68.34C50.7752 68.332 50.8072 68.328 50.8472 68.328C50.8952 68.328 50.9392 68.344 50.9792 68.376C51.0192 68.408 51.0432 68.452 51.0512 68.508L51.0872 68.676C51.0952 68.692 51.0992 68.72 51.0992 68.76C51.0992 68.872 51.0392 68.94 50.9192 68.964C50.6312 69.052 50.3232 69.096 49.9952 69.096C49.4752 69.096 49.1032 68.98 48.8792 68.748C48.6632 68.508 48.5552 68.164 48.5552 67.716V63.684H47.6672C47.5072 63.684 47.4272 63.604 47.4272 63.444V63.324C47.4272 63.164 47.5072 63.084 47.6672 63.084H48.5552V61.26C48.5552 61.1 48.6352 61.02 48.7952 61.02H49.1072C49.2672 61.02 49.3472 61.1 49.3472 61.26V63.084H50.7872C50.9472 63.084 51.0272 63.164 51.0272 63.324V63.444C51.0272 63.604 50.9472 63.684 50.7872 63.684H49.3472V67.62C49.3472 67.916 49.4032 68.124 49.5152 68.244C49.6272 68.364 49.8192 68.424 50.0912 68.424C50.2832 68.424 50.5032 68.396 50.7512 68.34ZM57.0653 69.156C56.5773 69.156 56.1453 69.088 55.7693 68.952C55.4013 68.808 55.0133 68.568 54.6053 68.232C54.5333 68.184 54.4973 68.128 54.4973 68.064C54.4973 68.008 54.5253 67.952 54.5813 67.896L54.7373 67.728C54.7853 67.664 54.8453 67.632 54.9173 67.632C54.9733 67.632 55.0253 67.656 55.0733 67.704C55.4573 68 55.7973 68.208 56.0933 68.328C56.3893 68.44 56.7133 68.496 57.0653 68.496C57.5053 68.496 57.8653 68.4 58.1453 68.208C58.4253 68.008 58.5653 67.74 58.5653 67.404C58.5653 67.068 58.4213 66.82 58.1333 66.66C57.8453 66.5 57.4013 66.356 56.8013 66.228C56.2733 66.116 55.8573 66 55.5533 65.88C55.2573 65.752 55.0373 65.592 54.8933 65.4C54.7493 65.208 54.6773 64.956 54.6773 64.644C54.6773 64.132 54.8853 63.72 55.3013 63.408C55.7173 63.096 56.2413 62.94 56.8733 62.94C57.3053 62.94 57.6893 62.996 58.0253 63.108C58.3693 63.212 58.7133 63.388 59.0573 63.636C59.1293 63.692 59.1653 63.752 59.1653 63.816C59.1653 63.856 59.1453 63.908 59.1053 63.972L58.9613 64.152C58.9213 64.216 58.8653 64.248 58.7933 64.248C58.7293 64.248 58.6733 64.228 58.6253 64.188C58.2973 63.956 58.0053 63.8 57.7493 63.72C57.5013 63.64 57.2173 63.6 56.8973 63.6C56.4573 63.6 56.1053 63.696 55.8413 63.888C55.5773 64.08 55.4453 64.324 55.4453 64.62C55.4453 64.804 55.5053 64.952 55.6253 65.064C55.7453 65.176 55.9173 65.272 56.1413 65.352C56.3653 65.424 56.6933 65.508 57.1253 65.604C57.9253 65.78 58.4933 65.996 58.8293 66.252C59.1733 66.508 59.3453 66.88 59.3453 67.368C59.3453 67.904 59.1333 68.336 58.7093 68.664C58.2853 68.992 57.7373 69.156 57.0653 69.156ZM64.9929 67.596C65.0489 67.54 65.1089 67.512 65.1729 67.512C65.2289 67.512 65.2809 67.536 65.3289 67.584L65.4849 67.728C65.5409 67.784 65.5689 67.844 65.5689 67.908C65.5689 67.956 65.5449 68.012 65.4969 68.076C65.1049 68.468 64.7249 68.748 64.3569 68.916C63.9889 69.076 63.5769 69.156 63.1209 69.156C62.5449 69.156 62.0449 69.028 61.6209 68.772C61.1969 68.516 60.8689 68.16 60.6369 67.704C60.4049 67.24 60.2889 66.704 60.2889 66.096C60.2889 65.48 60.4009 64.936 60.6249 64.464C60.8569 63.984 61.1809 63.612 61.5969 63.348C62.0129 63.076 62.4929 62.94 63.0369 62.94C63.8449 62.94 64.4809 63.192 64.9449 63.696C65.4089 64.2 65.6409 64.88 65.6409 65.736V65.88C65.6329 65.952 65.6049 66.008 65.5569 66.048C65.5169 66.088 65.4609 66.108 65.3889 66.108H61.0929C61.1169 66.78 61.2929 67.348 61.6209 67.812C61.9569 68.268 62.4569 68.496 63.1209 68.496C63.4809 68.496 63.7969 68.432 64.0689 68.304C64.3489 68.168 64.6569 67.932 64.9929 67.596ZM63.0369 63.6C62.5089 63.6 62.0729 63.764 61.7289 64.092C61.3929 64.412 61.1889 64.884 61.1169 65.508H64.8489C64.8329 64.924 64.6649 64.46 64.3449 64.116C64.0249 63.772 63.5889 63.6 63.0369 63.6ZM67.3119 69C67.1519 69 67.0719 68.92 67.0719 68.76V60.72C67.0719 60.56 67.1519 60.48 67.3119 60.48H67.6239C67.7839 60.48 67.8639 60.56 67.8639 60.72V68.76C67.8639 68.92 67.7839 69 67.6239 69H67.3119ZM73.9577 67.596C74.0137 67.54 74.0737 67.512 74.1377 67.512C74.1937 67.512 74.2457 67.536 74.2937 67.584L74.4497 67.728C74.5057 67.784 74.5337 67.844 74.5337 67.908C74.5337 67.956 74.5097 68.012 74.4617 68.076C74.0697 68.468 73.6897 68.748 73.3217 68.916C72.9537 69.076 72.5417 69.156 72.0857 69.156C71.5097 69.156 71.0097 69.028 70.5857 68.772C70.1617 68.516 69.8337 68.16 69.6017 67.704C69.3697 67.24 69.2537 66.704 69.2537 66.096C69.2537 65.48 69.3657 64.936 69.5897 64.464C69.8217 63.984 70.1457 63.612 70.5617 63.348C70.9777 63.076 71.4577 62.94 72.0017 62.94C72.8097 62.94 73.4457 63.192 73.9097 63.696C74.3737 64.2 74.6057 64.88 74.6057 65.736V65.88C74.5977 65.952 74.5697 66.008 74.5217 66.048C74.4817 66.088 74.4257 66.108 74.3537 66.108H70.0577C70.0817 66.78 70.2577 67.348 70.5857 67.812C70.9217 68.268 71.4217 68.496 72.0857 68.496C72.4457 68.496 72.7617 68.432 73.0337 68.304C73.3137 68.168 73.6217 67.932 73.9577 67.596ZM72.0017 63.6C71.4737 63.6 71.0377 63.764 70.6937 64.092C70.3577 64.412 70.1537 64.884 70.0817 65.508H73.8137C73.7977 64.924 73.6297 64.46 73.3097 64.116C72.9897 63.772 72.5537 63.6 72.0017 63.6ZM78.4364 69.156C77.8684 69.156 77.3724 69.028 76.9484 68.772C76.5324 68.508 76.2084 68.144 75.9764 67.68C75.7524 67.208 75.6404 66.664 75.6404 66.048C75.6404 65.44 75.7524 64.9 75.9764 64.428C76.2084 63.956 76.5324 63.592 76.9484 63.336C77.3724 63.072 77.8604 62.94 78.4124 62.94C78.8604 62.94 79.2524 63.016 79.5884 63.168C79.9244 63.312 80.2484 63.552 80.5604 63.888C80.6084 63.936 80.6324 63.988 80.6324 64.044C80.6324 64.116 80.6004 64.176 80.5364 64.224L80.3684 64.38C80.3204 64.428 80.2644 64.452 80.2004 64.452C80.1444 64.452 80.0844 64.42 80.0204 64.356C79.7404 64.076 79.4724 63.88 79.2164 63.768C78.9684 63.656 78.6924 63.6 78.3884 63.6C77.9724 63.6 77.6164 63.716 77.3204 63.948C77.0324 64.18 76.8164 64.484 76.6724 64.86C76.5284 65.228 76.4564 65.624 76.4564 66.048C76.4564 66.472 76.5284 66.872 76.6724 67.248C76.8164 67.616 77.0364 67.916 77.3324 68.148C77.6284 68.372 77.9924 68.484 78.4244 68.484C78.7444 68.484 79.0244 68.428 79.2644 68.316C79.5124 68.196 79.7884 67.972 80.0924 67.644C80.1564 67.58 80.2164 67.548 80.2724 67.548C80.3364 67.548 80.3924 67.572 80.4404 67.62L80.6084 67.752C80.6644 67.8 80.6924 67.856 80.6924 67.92C80.6924 67.984 80.6564 68.06 80.5844 68.148C80.2484 68.516 79.9124 68.776 79.5764 68.928C79.2404 69.08 78.8604 69.156 78.4364 69.156ZM84.677 68.34C84.701 68.332 84.733 68.328 84.773 68.328C84.821 68.328 84.865 68.344 84.905 68.376C84.945 68.408 84.969 68.452 84.977 68.508L85.013 68.676C85.021 68.692 85.025 68.72 85.025 68.76C85.025 68.872 84.965 68.94 84.845 68.964C84.557 69.052 84.249 69.096 83.921 69.096C83.401 69.096 83.029 68.98 82.805 68.748C82.589 68.508 82.481 68.164 82.481 67.716V63.684H81.593C81.433 63.684 81.353 63.604 81.353 63.444V63.324C81.353 63.164 81.433 63.084 81.593 63.084H82.481V61.26C82.481 61.1 82.561 61.02 82.721 61.02H83.033C83.193 61.02 83.273 61.1 83.273 61.26V63.084H84.713C84.873 63.084 84.953 63.164 84.953 63.324V63.444C84.953 63.604 84.873 63.684 84.713 63.684H83.273V67.62C83.273 67.916 83.329 68.124 83.441 68.244C83.553 68.364 83.745 68.424 84.017 68.424C84.209 68.424 84.429 68.396 84.677 68.34ZM90.2468 67.596C90.3028 67.54 90.3628 67.512 90.4268 67.512C90.4828 67.512 90.5348 67.536 90.5828 67.584L90.7388 67.728C90.7948 67.784 90.8228 67.844 90.8228 67.908C90.8228 67.956 90.7988 68.012 90.7508 68.076C90.3588 68.468 89.9788 68.748 89.6108 68.916C89.2428 69.076 88.8308 69.156 88.3748 69.156C87.7988 69.156 87.2988 69.028 86.8748 68.772C86.4508 68.516 86.1228 68.16 85.8908 67.704C85.6588 67.24 85.5428 66.704 85.5428 66.096C85.5428 65.48 85.6548 64.936 85.8788 64.464C86.1108 63.984 86.4348 63.612 86.8508 63.348C87.2668 63.076 87.7468 62.94 88.2908 62.94C89.0988 62.94 89.7348 63.192 90.1988 63.696C90.6628 64.2 90.8948 64.88 90.8948 65.736V65.88C90.8868 65.952 90.8588 66.008 90.8108 66.048C90.7708 66.088 90.7148 66.108 90.6428 66.108H86.3468C86.3708 66.78 86.5468 67.348 86.8748 67.812C87.2108 68.268 87.7108 68.496 88.3748 68.496C88.7348 68.496 89.0508 68.432 89.3228 68.304C89.6028 68.168 89.9108 67.932 90.2468 67.596ZM88.2908 63.6C87.7628 63.6 87.3268 63.764 86.9828 64.092C86.6468 64.412 86.4428 64.884 86.3708 65.508H90.1028C90.0868 64.924 89.9188 64.46 89.5988 64.116C89.2788 63.772 88.8428 63.6 88.2908 63.6ZM96.5975 60.72C96.5975 60.56 96.6775 60.48 96.8375 60.48H97.1495C97.3095 60.48 97.3895 60.56 97.3895 60.72V68.76C97.3895 68.92 97.3095 69 97.1495 69H96.8975C96.7375 69 96.6575 68.92 96.6575 68.76V67.98C96.4415 68.356 96.1575 68.644 95.8055 68.844C95.4535 69.044 95.0375 69.144 94.5575 69.144C94.0535 69.144 93.6055 69.016 93.2135 68.76C92.8215 68.496 92.5135 68.132 92.2895 67.668C92.0655 67.196 91.9535 66.656 91.9535 66.048C91.9535 65.44 92.0655 64.904 92.2895 64.44C92.5215 63.968 92.8375 63.604 93.2375 63.348C93.6375 63.084 94.0855 62.952 94.5815 62.952C95.4935 62.952 96.1655 63.292 96.5975 63.972V60.72ZM94.6175 68.472C95.2175 68.472 95.7015 68.26 96.0695 67.836C96.4455 67.404 96.6335 66.808 96.6335 66.048C96.6335 65.296 96.4455 64.704 96.0695 64.272C95.7015 63.84 95.2175 63.624 94.6175 63.624C94.0655 63.624 93.6175 63.848 93.2735 64.296C92.9375 64.744 92.7695 65.328 92.7695 66.048C92.7695 66.776 92.9375 67.364 93.2735 67.812C93.6095 68.252 94.0575 68.472 94.6175 68.472Z" fill="#767676"/>
<path d="M135.356 69C135.196 69 135.116 68.92 135.116 68.76V60.72C135.116 60.56 135.196 60.48 135.356 60.48H135.728C135.888 60.48 135.968 60.56 135.968 60.72V68.76C135.968 68.92 135.888 69 135.728 69H135.356ZM140.61 62.94C141.306 62.94 141.83 63.132 142.182 63.516C142.542 63.9 142.722 64.38 142.722 64.956V68.76C142.722 68.92 142.642 69 142.482 69H142.17C142.01 69 141.93 68.92 141.93 68.76V65.22C141.93 64.692 141.802 64.292 141.546 64.02C141.29 63.748 140.922 63.612 140.442 63.612C140.138 63.612 139.858 63.688 139.602 63.84C139.346 63.984 139.142 64.184 138.99 64.44C138.838 64.696 138.762 64.976 138.762 65.28V68.76C138.762 68.92 138.682 69 138.522 69H138.21C138.05 69 137.97 68.92 137.97 68.76V63.324C137.97 63.164 138.05 63.084 138.21 63.084H138.474C138.634 63.084 138.714 63.164 138.714 63.324V63.9C138.914 63.58 139.178 63.34 139.506 63.18C139.834 63.02 140.202 62.94 140.61 62.94ZM148.746 60.72C148.746 60.56 148.826 60.48 148.986 60.48H149.298C149.458 60.48 149.538 60.56 149.538 60.72V68.76C149.538 68.92 149.458 69 149.298 69H149.046C148.886 69 148.806 68.92 148.806 68.76V67.98C148.59 68.356 148.306 68.644 147.954 68.844C147.602 69.044 147.186 69.144 146.706 69.144C146.202 69.144 145.754 69.016 145.362 68.76C144.97 68.496 144.662 68.132 144.438 67.668C144.214 67.196 144.102 66.656 144.102 66.048C144.102 65.44 144.214 64.904 144.438 64.44C144.67 63.968 144.986 63.604 145.386 63.348C145.786 63.084 146.234 62.952 146.73 62.952C147.642 62.952 148.314 63.292 148.746 63.972V60.72ZM146.766 68.472C147.366 68.472 147.85 68.26 148.218 67.836C148.594 67.404 148.782 66.808 148.782 66.048C148.782 65.296 148.594 64.704 148.218 64.272C147.85 63.84 147.366 63.624 146.766 63.624C146.214 63.624 145.766 63.848 145.422 64.296C145.086 64.744 144.918 65.328 144.918 66.048C144.918 66.776 145.086 67.364 145.422 67.812C145.758 68.252 146.206 68.472 146.766 68.472ZM155.626 67.596C155.682 67.54 155.742 67.512 155.806 67.512C155.862 67.512 155.914 67.536 155.962 67.584L156.118 67.728C156.174 67.784 156.202 67.844 156.202 67.908C156.202 67.956 156.178 68.012 156.13 68.076C155.738 68.468 155.358 68.748 154.99 68.916C154.622 69.076 154.21 69.156 153.754 69.156C153.178 69.156 152.678 69.028 152.254 68.772C151.83 68.516 151.502 68.16 151.27 67.704C151.038 67.24 150.922 66.704 150.922 66.096C150.922 65.48 151.034 64.936 151.258 64.464C151.49 63.984 151.814 63.612 152.23 63.348C152.646 63.076 153.126 62.94 153.67 62.94C154.478 62.94 155.114 63.192 155.578 63.696C156.042 64.2 156.274 64.88 156.274 65.736V65.88C156.266 65.952 156.238 66.008 156.19 66.048C156.15 66.088 156.094 66.108 156.022 66.108H151.726C151.75 66.78 151.926 67.348 152.254 67.812C152.59 68.268 153.09 68.496 153.754 68.496C154.114 68.496 154.43 68.432 154.702 68.304C154.982 68.168 155.29 67.932 155.626 67.596ZM153.67 63.6C153.142 63.6 152.706 63.764 152.362 64.092C152.026 64.412 151.822 64.884 151.75 65.508H155.482C155.466 64.924 155.298 64.46 154.978 64.116C154.658 63.772 154.222 63.6 153.67 63.6ZM160.298 68.34C160.322 68.332 160.354 68.328 160.394 68.328C160.442 68.328 160.486 68.344 160.526 68.376C160.566 68.408 160.59 68.452 160.598 68.508L160.634 68.676C160.642 68.692 160.646 68.72 160.646 68.76C160.646 68.872 160.586 68.94 160.466 68.964C160.178 69.052 159.87 69.096 159.542 69.096C159.022 69.096 158.65 68.98 158.426 68.748C158.21 68.508 158.102 68.164 158.102 67.716V63.684H157.214C157.054 63.684 156.974 63.604 156.974 63.444V63.324C156.974 63.164 157.054 63.084 157.214 63.084H158.102V61.26C158.102 61.1 158.182 61.02 158.342 61.02H158.654C158.814 61.02 158.894 61.1 158.894 61.26V63.084H160.334C160.494 63.084 160.574 63.164 160.574 63.324V63.444C160.574 63.604 160.494 63.684 160.334 63.684H158.894V67.62C158.894 67.916 158.95 68.124 159.062 68.244C159.174 68.364 159.366 68.424 159.638 68.424C159.83 68.424 160.05 68.396 160.298 68.34ZM165.868 67.596C165.924 67.54 165.984 67.512 166.048 67.512C166.104 67.512 166.156 67.536 166.204 67.584L166.36 67.728C166.416 67.784 166.444 67.844 166.444 67.908C166.444 67.956 166.42 68.012 166.372 68.076C165.98 68.468 165.6 68.748 165.232 68.916C164.864 69.076 164.452 69.156 163.996 69.156C163.42 69.156 162.92 69.028 162.496 68.772C162.072 68.516 161.744 68.16 161.512 67.704C161.28 67.24 161.164 66.704 161.164 66.096C161.164 65.48 161.276 64.936 161.5 64.464C161.732 63.984 162.056 63.612 162.472 63.348C162.888 63.076 163.368 62.94 163.912 62.94C164.72 62.94 165.356 63.192 165.82 63.696C166.284 64.2 166.516 64.88 166.516 65.736V65.88C166.508 65.952 166.48 66.008 166.432 66.048C166.392 66.088 166.336 66.108 166.264 66.108H161.968C161.992 66.78 162.168 67.348 162.496 67.812C162.832 68.268 163.332 68.496 163.996 68.496C164.356 68.496 164.672 68.432 164.944 68.304C165.224 68.168 165.532 67.932 165.868 67.596ZM163.912 63.6C163.384 63.6 162.948 63.764 162.604 64.092C162.268 64.412 162.064 64.884 161.992 65.508H165.724C165.708 64.924 165.54 64.46 165.22 64.116C164.9 63.772 164.464 63.6 163.912 63.6ZM170.143 63.036C170.343 63.036 170.579 63.068 170.851 63.132C170.995 63.18 171.051 63.28 171.019 63.432L170.971 63.624C170.931 63.776 170.831 63.832 170.671 63.792C170.479 63.744 170.303 63.72 170.143 63.72C169.735 63.72 169.395 63.896 169.123 64.248C168.859 64.6 168.727 65.088 168.727 65.712V68.76C168.727 68.92 168.647 69 168.487 69H168.175C168.015 69 167.935 68.92 167.935 68.76V63.324C167.935 63.164 168.015 63.084 168.175 63.084H168.439C168.599 63.084 168.679 63.164 168.679 63.324V63.984C168.815 63.688 169.007 63.456 169.255 63.288C169.511 63.12 169.807 63.036 170.143 63.036ZM178.107 62.94C178.747 62.94 179.235 63.124 179.571 63.492C179.915 63.852 180.087 64.316 180.087 64.884V68.76C180.087 68.92 180.007 69 179.847 69H179.535C179.375 69 179.295 68.92 179.295 68.76V65.1C179.295 64.62 179.183 64.252 178.959 63.996C178.743 63.74 178.419 63.612 177.987 63.612C177.531 63.612 177.167 63.764 176.895 64.068C176.623 64.372 176.487 64.764 176.487 65.244V68.76C176.487 68.92 176.407 69 176.247 69H175.935C175.775 69 175.695 68.92 175.695 68.76V65.1C175.695 64.62 175.583 64.252 175.359 63.996C175.143 63.74 174.815 63.612 174.375 63.612C173.967 63.612 173.627 63.74 173.355 63.996C173.091 64.252 172.935 64.588 172.887 65.004V68.76C172.887 68.92 172.807 69 172.647 69H172.335C172.175 69 172.095 68.92 172.095 68.76V63.324C172.095 63.164 172.175 63.084 172.335 63.084H172.599C172.759 63.084 172.839 63.164 172.839 63.324V63.816C173.199 63.232 173.771 62.94 174.555 62.94C174.963 62.94 175.311 63.032 175.599 63.216C175.895 63.392 176.115 63.632 176.259 63.936C176.683 63.272 177.299 62.94 178.107 62.94ZM182.229 61.584C182.069 61.584 181.933 61.528 181.821 61.416C181.717 61.304 181.665 61.168 181.665 61.008C181.665 60.848 181.717 60.716 181.821 60.612C181.933 60.508 182.069 60.456 182.229 60.456C182.397 60.456 182.533 60.508 182.637 60.612C182.749 60.716 182.805 60.848 182.805 61.008C182.805 61.168 182.749 61.304 182.637 61.416C182.533 61.528 182.397 61.584 182.229 61.584ZM182.073 69C181.913 69 181.833 68.92 181.833 68.76V63.324C181.833 63.164 181.913 63.084 182.073 63.084H182.385C182.545 63.084 182.625 63.164 182.625 63.324V68.76C182.625 68.92 182.545 69 182.385 69H182.073ZM187.028 62.94C187.724 62.94 188.248 63.132 188.6 63.516C188.96 63.9 189.14 64.38 189.14 64.956V68.76C189.14 68.92 189.06 69 188.9 69H188.588C188.428 69 188.348 68.92 188.348 68.76V65.22C188.348 64.692 188.22 64.292 187.964 64.02C187.708 63.748 187.34 63.612 186.86 63.612C186.556 63.612 186.276 63.688 186.02 63.84C185.764 63.984 185.56 64.184 185.408 64.44C185.256 64.696 185.18 64.976 185.18 65.28V68.76C185.18 68.92 185.1 69 184.94 69H184.628C184.468 69 184.388 68.92 184.388 68.76V63.324C184.388 63.164 184.468 63.084 184.628 63.084H184.892C185.052 63.084 185.132 63.164 185.132 63.324V63.9C185.332 63.58 185.596 63.34 185.924 63.18C186.252 63.02 186.62 62.94 187.028 62.94ZM193.172 62.94C193.9 62.94 194.468 63.116 194.876 63.468C195.284 63.812 195.488 64.268 195.488 64.836V68.76C195.488 68.92 195.408 69 195.248 69H195.008C194.848 69 194.768 68.92 194.768 68.76V68.22C194.568 68.54 194.284 68.78 193.916 68.94C193.556 69.1 193.152 69.18 192.704 69.18C192.08 69.18 191.572 69.048 191.18 68.784C190.788 68.52 190.592 68.112 190.592 67.56C190.592 67.12 190.716 66.768 190.964 66.504C191.212 66.232 191.536 66.028 191.936 65.892C192.336 65.748 192.836 65.62 193.436 65.508L194.732 65.28V64.896C194.732 64.488 194.592 64.172 194.312 63.948C194.032 63.716 193.664 63.6 193.208 63.6C192.864 63.6 192.552 63.664 192.272 63.792C191.992 63.92 191.692 64.14 191.372 64.452C191.316 64.508 191.256 64.536 191.192 64.536C191.136 64.536 191.084 64.512 191.036 64.464L190.88 64.32C190.824 64.264 190.796 64.204 190.796 64.14C190.796 64.068 190.824 64.004 190.88 63.948C191.216 63.596 191.568 63.34 191.936 63.18C192.312 63.02 192.724 62.94 193.172 62.94ZM192.74 68.52C193.316 68.52 193.792 68.368 194.168 68.064C194.544 67.76 194.732 67.372 194.732 66.9V65.892L193.616 66.108C193.096 66.212 192.684 66.312 192.38 66.408C192.076 66.504 191.832 66.644 191.648 66.828C191.464 67.012 191.372 67.252 191.372 67.548C191.372 67.852 191.492 68.092 191.732 68.268C191.98 68.436 192.316 68.52 192.74 68.52ZM199.743 68.34C199.767 68.332 199.799 68.328 199.839 68.328C199.887 68.328 199.931 68.344 199.971 68.376C200.011 68.408 200.035 68.452 200.043 68.508L200.079 68.676C200.087 68.692 200.091 68.72 200.091 68.76C200.091 68.872 200.031 68.94 199.911 68.964C199.623 69.052 199.315 69.096 198.987 69.096C198.467 69.096 198.095 68.98 197.871 68.748C197.655 68.508 197.547 68.164 197.547 67.716V63.684H196.659C196.499 63.684 196.419 63.604 196.419 63.444V63.324C196.419 63.164 196.499 63.084 196.659 63.084H197.547V61.26C197.547 61.1 197.627 61.02 197.787 61.02H198.099C198.259 61.02 198.339 61.1 198.339 61.26V63.084H199.779C199.939 63.084 200.019 63.164 200.019 63.324V63.444C200.019 63.604 199.939 63.684 199.779 63.684H198.339V67.62C198.339 67.916 198.395 68.124 198.507 68.244C198.619 68.364 198.811 68.424 199.083 68.424C199.275 68.424 199.495 68.396 199.743 68.34ZM205.313 67.596C205.369 67.54 205.429 67.512 205.493 67.512C205.549 67.512 205.601 67.536 205.649 67.584L205.805 67.728C205.861 67.784 205.889 67.844 205.889 67.908C205.889 67.956 205.865 68.012 205.817 68.076C205.425 68.468 205.045 68.748 204.677 68.916C204.309 69.076 203.897 69.156 203.441 69.156C202.865 69.156 202.365 69.028 201.941 68.772C201.517 68.516 201.189 68.16 200.957 67.704C200.725 67.24 200.609 66.704 200.609 66.096C200.609 65.48 200.721 64.936 200.945 64.464C201.177 63.984 201.501 63.612 201.917 63.348C202.333 63.076 202.813 62.94 203.357 62.94C204.165 62.94 204.801 63.192 205.265 63.696C205.729 64.2 205.961 64.88 205.961 65.736V65.88C205.953 65.952 205.925 66.008 205.877 66.048C205.837 66.088 205.781 66.108 205.709 66.108H201.413C201.437 66.78 201.613 67.348 201.941 67.812C202.277 68.268 202.777 68.496 203.441 68.496C203.801 68.496 204.117 68.432 204.389 68.304C204.669 68.168 204.977 67.932 205.313 67.596ZM203.357 63.6C202.829 63.6 202.393 63.764 202.049 64.092C201.713 64.412 201.509 64.884 201.437 65.508H205.169C205.153 64.924 204.985 64.46 204.665 64.116C204.345 63.772 203.909 63.6 203.357 63.6Z" fill="#767676"/>
<path d="M239.852 69.18C239.22 69.18 238.648 69.084 238.136 68.892C237.632 68.692 237.1 68.368 236.54 67.92C236.468 67.856 236.432 67.796 236.432 67.74C236.432 67.692 236.456 67.64 236.504 67.584L236.696 67.356C236.736 67.292 236.796 67.26 236.876 67.26C236.94 67.26 236.992 67.28 237.032 67.32C237.6 67.76 238.096 68.06 238.52 68.22C238.944 68.372 239.388 68.448 239.852 68.448C240.5 68.448 241.028 68.288 241.436 67.968C241.844 67.64 242.048 67.196 242.048 66.636C242.048 66.276 241.952 65.988 241.76 65.772C241.568 65.556 241.304 65.388 240.968 65.268C240.64 65.148 240.172 65.02 239.564 64.884C238.836 64.724 238.268 64.552 237.86 64.368C237.46 64.184 237.168 63.952 236.984 63.672C236.8 63.392 236.708 63.032 236.708 62.592C236.708 62.128 236.84 61.724 237.104 61.38C237.376 61.028 237.736 60.76 238.184 60.576C238.632 60.392 239.116 60.3 239.636 60.3C240.204 60.3 240.72 60.384 241.184 60.552C241.656 60.72 242.12 60.988 242.576 61.356C242.648 61.404 242.684 61.46 242.684 61.524C242.684 61.572 242.66 61.628 242.612 61.692L242.432 61.908C242.392 61.972 242.332 62.004 242.252 62.004C242.188 62.004 242.132 61.984 242.084 61.944C241.676 61.608 241.28 61.372 240.896 61.236C240.52 61.1 240.104 61.032 239.648 61.032C239.232 61.032 238.864 61.1 238.544 61.236C238.224 61.364 237.972 61.544 237.788 61.776C237.612 62.008 237.524 62.272 237.524 62.568C237.524 62.888 237.612 63.144 237.788 63.336C237.972 63.528 238.224 63.68 238.544 63.792C238.872 63.904 239.348 64.032 239.972 64.176C240.692 64.344 241.26 64.532 241.676 64.74C242.1 64.948 242.408 65.204 242.6 65.508C242.792 65.804 242.888 66.172 242.888 66.612C242.888 67.124 242.756 67.576 242.492 67.968C242.236 68.352 241.876 68.652 241.412 68.868C240.948 69.076 240.428 69.18 239.852 69.18ZM248.673 67.596C248.729 67.54 248.789 67.512 248.853 67.512C248.909 67.512 248.961 67.536 249.009 67.584L249.165 67.728C249.221 67.784 249.249 67.844 249.249 67.908C249.249 67.956 249.225 68.012 249.177 68.076C248.785 68.468 248.405 68.748 248.037 68.916C247.669 69.076 247.257 69.156 246.801 69.156C246.225 69.156 245.725 69.028 245.301 68.772C244.877 68.516 244.549 68.16 244.317 67.704C244.085 67.24 243.969 66.704 243.969 66.096C243.969 65.48 244.081 64.936 244.305 64.464C244.537 63.984 244.861 63.612 245.277 63.348C245.693 63.076 246.173 62.94 246.717 62.94C247.525 62.94 248.161 63.192 248.625 63.696C249.089 64.2 249.321 64.88 249.321 65.736V65.88C249.313 65.952 249.285 66.008 249.237 66.048C249.197 66.088 249.141 66.108 249.069 66.108H244.773C244.797 66.78 244.973 67.348 245.301 67.812C245.637 68.268 246.137 68.496 246.801 68.496C247.161 68.496 247.477 68.432 247.749 68.304C248.029 68.168 248.337 67.932 248.673 67.596ZM246.717 63.6C246.189 63.6 245.753 63.764 245.409 64.092C245.073 64.412 244.869 64.884 244.797 65.508H248.529C248.513 64.924 248.345 64.46 248.025 64.116C247.705 63.772 247.269 63.6 246.717 63.6ZM250.992 69C250.832 69 250.752 68.92 250.752 68.76V60.72C250.752 60.56 250.832 60.48 250.992 60.48H251.304C251.464 60.48 251.544 60.56 251.544 60.72V68.76C251.544 68.92 251.464 69 251.304 69H250.992ZM257.637 67.596C257.693 67.54 257.753 67.512 257.817 67.512C257.873 67.512 257.925 67.536 257.973 67.584L258.129 67.728C258.185 67.784 258.213 67.844 258.213 67.908C258.213 67.956 258.189 68.012 258.141 68.076C257.749 68.468 257.369 68.748 257.001 68.916C256.633 69.076 256.221 69.156 255.765 69.156C255.189 69.156 254.689 69.028 254.265 68.772C253.841 68.516 253.513 68.16 253.281 67.704C253.049 67.24 252.933 66.704 252.933 66.096C252.933 65.48 253.045 64.936 253.269 64.464C253.501 63.984 253.825 63.612 254.241 63.348C254.657 63.076 255.137 62.94 255.681 62.94C256.489 62.94 257.125 63.192 257.589 63.696C258.053 64.2 258.285 64.88 258.285 65.736V65.88C258.277 65.952 258.249 66.008 258.201 66.048C258.161 66.088 258.105 66.108 258.033 66.108H253.737C253.761 66.78 253.937 67.348 254.265 67.812C254.601 68.268 255.101 68.496 255.765 68.496C256.125 68.496 256.441 68.432 256.713 68.304C256.993 68.168 257.301 67.932 257.637 67.596ZM255.681 63.6C255.153 63.6 254.717 63.764 254.373 64.092C254.037 64.412 253.833 64.884 253.761 65.508H257.493C257.477 64.924 257.309 64.46 256.989 64.116C256.669 63.772 256.233 63.6 255.681 63.6ZM262.116 69.156C261.548 69.156 261.052 69.028 260.628 68.772C260.212 68.508 259.888 68.144 259.656 67.68C259.432 67.208 259.32 66.664 259.32 66.048C259.32 65.44 259.432 64.9 259.656 64.428C259.888 63.956 260.212 63.592 260.628 63.336C261.052 63.072 261.54 62.94 262.092 62.94C262.54 62.94 262.932 63.016 263.268 63.168C263.604 63.312 263.928 63.552 264.24 63.888C264.288 63.936 264.312 63.988 264.312 64.044C264.312 64.116 264.28 64.176 264.216 64.224L264.048 64.38C264 64.428 263.944 64.452 263.88 64.452C263.824 64.452 263.764 64.42 263.7 64.356C263.42 64.076 263.152 63.88 262.896 63.768C262.648 63.656 262.372 63.6 262.068 63.6C261.652 63.6 261.296 63.716 261 63.948C260.712 64.18 260.496 64.484 260.352 64.86C260.208 65.228 260.136 65.624 260.136 66.048C260.136 66.472 260.208 66.872 260.352 67.248C260.496 67.616 260.716 67.916 261.012 68.148C261.308 68.372 261.672 68.484 262.104 68.484C262.424 68.484 262.704 68.428 262.944 68.316C263.192 68.196 263.468 67.972 263.772 67.644C263.836 67.58 263.896 67.548 263.952 67.548C264.016 67.548 264.072 67.572 264.12 67.62L264.288 67.752C264.344 67.8 264.372 67.856 264.372 67.92C264.372 67.984 264.336 68.06 264.264 68.148C263.928 68.516 263.592 68.776 263.256 68.928C262.92 69.08 262.54 69.156 262.116 69.156ZM268.357 68.34C268.381 68.332 268.413 68.328 268.453 68.328C268.501 68.328 268.545 68.344 268.585 68.376C268.625 68.408 268.649 68.452 268.657 68.508L268.693 68.676C268.701 68.692 268.705 68.72 268.705 68.76C268.705 68.872 268.645 68.94 268.525 68.964C268.237 69.052 267.929 69.096 267.601 69.096C267.081 69.096 266.709 68.98 266.485 68.748C266.269 68.508 266.161 68.164 266.161 67.716V63.684H265.273C265.113 63.684 265.033 63.604 265.033 63.444V63.324C265.033 63.164 265.113 63.084 265.273 63.084H266.161V61.26C266.161 61.1 266.241 61.02 266.401 61.02H266.713C266.873 61.02 266.953 61.1 266.953 61.26V63.084H268.393C268.553 63.084 268.633 63.164 268.633 63.324V63.444C268.633 63.604 268.553 63.684 268.393 63.684H266.953V67.62C266.953 67.916 267.009 68.124 267.121 68.244C267.233 68.364 267.425 68.424 267.697 68.424C267.889 68.424 268.109 68.396 268.357 68.34ZM273.926 67.596C273.982 67.54 274.042 67.512 274.106 67.512C274.162 67.512 274.214 67.536 274.262 67.584L274.418 67.728C274.474 67.784 274.502 67.844 274.502 67.908C274.502 67.956 274.478 68.012 274.43 68.076C274.038 68.468 273.658 68.748 273.29 68.916C272.922 69.076 272.51 69.156 272.054 69.156C271.478 69.156 270.978 69.028 270.554 68.772C270.13 68.516 269.802 68.16 269.57 67.704C269.338 67.24 269.222 66.704 269.222 66.096C269.222 65.48 269.334 64.936 269.558 64.464C269.79 63.984 270.114 63.612 270.53 63.348C270.946 63.076 271.426 62.94 271.97 62.94C272.778 62.94 273.414 63.192 273.878 63.696C274.342 64.2 274.574 64.88 274.574 65.736V65.88C274.566 65.952 274.538 66.008 274.49 66.048C274.45 66.088 274.394 66.108 274.322 66.108H270.026C270.05 66.78 270.226 67.348 270.554 67.812C270.89 68.268 271.39 68.496 272.054 68.496C272.414 68.496 272.73 68.432 273.002 68.304C273.282 68.168 273.59 67.932 273.926 67.596ZM271.97 63.6C271.442 63.6 271.006 63.764 270.662 64.092C270.326 64.412 270.122 64.884 270.05 65.508H273.782C273.766 64.924 273.598 64.46 273.278 64.116C272.958 63.772 272.522 63.6 271.97 63.6ZM280.277 60.72C280.277 60.56 280.357 60.48 280.517 60.48H280.829C280.989 60.48 281.069 60.56 281.069 60.72V68.76C281.069 68.92 280.989 69 280.829 69H280.577C280.417 69 280.337 68.92 280.337 68.76V67.98C280.121 68.356 279.837 68.644 279.485 68.844C279.133 69.044 278.717 69.144 278.237 69.144C277.733 69.144 277.285 69.016 276.893 68.76C276.501 68.496 276.193 68.132 275.969 67.668C275.745 67.196 275.633 66.656 275.633 66.048C275.633 65.44 275.745 64.904 275.969 64.44C276.201 63.968 276.517 63.604 276.917 63.348C277.317 63.084 277.765 62.952 278.261 62.952C279.173 62.952 279.845 63.292 280.277 63.972V60.72ZM278.297 68.472C278.897 68.472 279.381 68.26 279.749 67.836C280.125 67.404 280.313 66.808 280.313 66.048C280.313 65.296 280.125 64.704 279.749 64.272C279.381 63.84 278.897 63.624 278.297 63.624C277.745 63.624 277.297 63.848 276.953 64.296C276.617 64.744 276.449 65.328 276.449 66.048C276.449 66.776 276.617 67.364 276.953 67.812C277.289 68.252 277.737 68.472 278.297 68.472Z" fill="#767676"/>
</svg>
