<svg width="344" height="320" viewBox="0 0 344 320" fill="none" xmlns="http://www.w3.org/2000/svg">
<rect width="344" height="320" fill="#F5F5F5"/>
<rect x="94.5" y="117.5" width="15" height="15" rx="1.5" fill="#0063FB" stroke="#0063FB"/>
<path d="M101.226 126.567L104.903 122.168C105.179 121.838 105.669 121.794 105.999 122.07C106.329 122.345 106.372 122.836 106.097 123.166L101.871 128.221C101.577 128.573 101.044 128.595 100.721 128.269L98.3359 125.856C98.034 125.55 98.0368 125.058 98.3424 124.756C98.6479 124.454 99.1403 124.457 99.4423 124.762L101.226 126.567Z" fill="white"/>
<path d="M127.2 131C127.019 131 126.896 130.915 126.832 130.744L125.776 127.816H120.608L119.568 130.744C119.504 130.915 119.381 131 119.2 131H118.704C118.619 131 118.549 130.979 118.496 130.936C118.443 130.893 118.416 130.835 118.416 130.76L118.448 130.632L122.368 119.896C122.432 119.725 122.555 119.64 122.736 119.64H123.664C123.845 119.64 123.968 119.725 124.032 119.896L127.952 130.632L127.984 130.76C127.984 130.835 127.957 130.893 127.904 130.936C127.851 130.979 127.781 131 127.696 131H127.2ZM125.424 126.856L124.864 125.288L124.736 124.952C124.587 124.547 124.341 123.869 124 122.92C123.669 121.971 123.397 121.165 123.184 120.504C122.896 121.411 122.443 122.728 121.824 124.456C121.781 124.573 121.733 124.701 121.68 124.84C121.627 124.979 121.573 125.128 121.52 125.288L120.96 126.856H125.424ZM132.534 123.048C132.801 123.048 133.116 123.091 133.478 123.176C133.67 123.24 133.745 123.373 133.702 123.576L133.638 123.832C133.585 124.035 133.452 124.109 133.238 124.056C132.982 123.992 132.748 123.96 132.534 123.96C131.99 123.96 131.537 124.195 131.174 124.664C130.822 125.133 130.646 125.784 130.646 126.616V130.68C130.646 130.893 130.54 131 130.326 131H129.91C129.697 131 129.59 130.893 129.59 130.68V123.432C129.59 123.219 129.697 123.112 129.91 123.112H130.262C130.476 123.112 130.582 123.219 130.582 123.432V124.312C130.764 123.917 131.02 123.608 131.35 123.384C131.692 123.16 132.086 123.048 132.534 123.048ZM138.845 130.12C138.877 130.109 138.92 130.104 138.973 130.104C139.037 130.104 139.096 130.125 139.149 130.168C139.203 130.211 139.235 130.269 139.245 130.344L139.293 130.568C139.304 130.589 139.309 130.627 139.309 130.68C139.309 130.829 139.229 130.92 139.069 130.952C138.685 131.069 138.275 131.128 137.837 131.128C137.144 131.128 136.648 130.973 136.349 130.664C136.061 130.344 135.917 129.885 135.917 129.288V123.912H134.733C134.52 123.912 134.413 123.805 134.413 123.592V123.432C134.413 123.219 134.52 123.112 134.733 123.112H135.917V120.68C135.917 120.467 136.024 120.36 136.237 120.36H136.653C136.867 120.36 136.973 120.467 136.973 120.68V123.112H138.893C139.107 123.112 139.213 123.219 139.213 123.432V123.592C139.213 123.805 139.107 123.912 138.893 123.912H136.973V129.16C136.973 129.555 137.048 129.832 137.197 129.992C137.347 130.152 137.603 130.232 137.965 130.232C138.221 130.232 138.515 130.195 138.845 130.12Z" fill="#464646"/>
<rect x="94.5" y="155.5" width="15" height="15" rx="1.5" fill="#0063FB" stroke="#0063FB"/>
<path d="M101.226 164.567L104.903 160.168C105.179 159.838 105.669 159.794 105.999 160.07C106.329 160.345 106.372 160.836 106.097 161.166L101.871 166.221C101.577 166.573 101.044 166.595 100.721 166.269L98.3359 163.856C98.034 163.55 98.0368 163.058 98.3424 162.756C98.6479 162.454 99.1403 162.457 99.4423 162.762L101.226 164.567Z" fill="white"/>
<path d="M128.304 157.896C128.368 157.725 128.491 157.64 128.672 157.64H129.92C130.133 157.64 130.24 157.747 130.24 157.96V168.68C130.24 168.893 130.133 169 129.92 169H129.456C129.243 169 129.136 168.893 129.136 168.68V163.368C129.136 162.227 129.147 160.579 129.168 158.424C128.731 159.672 128.133 161.32 127.376 163.368L125.408 168.744C125.344 168.915 125.221 169 125.04 169H124.576C124.395 169 124.272 168.915 124.208 168.744L122.192 163.352C121.765 162.243 121.173 160.6 120.416 158.424C120.437 160.579 120.448 162.232 120.448 163.384V168.68C120.448 168.893 120.341 169 120.128 169H119.696C119.483 169 119.376 168.893 119.376 168.68V157.96C119.376 157.747 119.483 157.64 119.696 157.64H120.928C121.109 157.64 121.232 157.725 121.296 157.896L123.12 162.808C123.963 165.101 124.528 166.717 124.816 167.656C125.083 166.76 125.541 165.421 126.192 163.64C126.235 163.523 126.283 163.395 126.336 163.256C126.389 163.117 126.443 162.968 126.496 162.808L128.304 157.896ZM137.913 161.432C137.913 161.219 138.02 161.112 138.233 161.112H138.649C138.863 161.112 138.969 161.219 138.969 161.432V168.68C138.969 168.893 138.863 169 138.649 169H138.313C138.1 169 137.993 168.893 137.993 168.68V167.96C137.759 168.376 137.423 168.691 136.985 168.904C136.559 169.107 136.089 169.208 135.577 169.208C134.617 169.208 133.908 168.968 133.449 168.488C132.991 167.997 132.761 167.368 132.761 166.6V161.432C132.761 161.219 132.868 161.112 133.081 161.112H133.497C133.711 161.112 133.817 161.219 133.817 161.432V166.376C133.817 167.005 133.972 167.485 134.281 167.816C134.601 168.136 135.055 168.296 135.641 168.296C136.303 168.296 136.847 168.093 137.273 167.688C137.7 167.283 137.913 166.707 137.913 165.96V161.432ZM144.092 169.208C143.442 169.208 142.866 169.117 142.364 168.936C141.874 168.744 141.356 168.424 140.812 167.976C140.716 167.912 140.668 167.837 140.668 167.752C140.668 167.677 140.706 167.603 140.78 167.528L140.988 167.304C141.052 167.219 141.132 167.176 141.228 167.176C141.303 167.176 141.372 167.208 141.436 167.272C141.948 167.667 142.402 167.944 142.796 168.104C143.191 168.253 143.623 168.328 144.092 168.328C144.679 168.328 145.159 168.2 145.532 167.944C145.906 167.677 146.092 167.32 146.092 166.872C146.092 166.424 145.9 166.093 145.516 165.88C145.132 165.667 144.54 165.475 143.74 165.304C143.036 165.155 142.482 165 142.076 164.84C141.682 164.669 141.388 164.456 141.196 164.2C141.004 163.944 140.908 163.608 140.908 163.192C140.908 162.509 141.186 161.96 141.74 161.544C142.295 161.128 142.994 160.92 143.836 160.92C144.412 160.92 144.924 160.995 145.372 161.144C145.831 161.283 146.29 161.517 146.748 161.848C146.844 161.923 146.892 162.003 146.892 162.088C146.892 162.141 146.866 162.211 146.812 162.296L146.62 162.536C146.567 162.621 146.492 162.664 146.396 162.664C146.311 162.664 146.236 162.637 146.172 162.584C145.735 162.275 145.346 162.067 145.004 161.96C144.674 161.853 144.295 161.8 143.868 161.8C143.282 161.8 142.812 161.928 142.46 162.184C142.108 162.44 141.932 162.765 141.932 163.16C141.932 163.405 142.012 163.603 142.172 163.752C142.332 163.901 142.562 164.029 142.86 164.136C143.159 164.232 143.596 164.344 144.172 164.472C145.239 164.707 145.996 164.995 146.444 165.336C146.903 165.677 147.132 166.173 147.132 166.824C147.132 167.539 146.85 168.115 146.284 168.552C145.719 168.989 144.988 169.208 144.092 169.208ZM149.446 159.112C149.233 159.112 149.052 159.037 148.902 158.888C148.764 158.739 148.694 158.557 148.694 158.344C148.694 158.131 148.764 157.955 148.902 157.816C149.052 157.677 149.233 157.608 149.446 157.608C149.67 157.608 149.852 157.677 149.99 157.816C150.14 157.955 150.214 158.131 150.214 158.344C150.214 158.557 150.14 158.739 149.99 158.888C149.852 159.037 149.67 159.112 149.446 159.112ZM149.238 169C149.025 169 148.918 168.893 148.918 168.68V161.432C148.918 161.219 149.025 161.112 149.238 161.112H149.654C149.868 161.112 149.974 161.219 149.974 161.432V168.68C149.974 168.893 149.868 169 149.654 169H149.238ZM155.525 169.208C154.767 169.208 154.106 169.037 153.541 168.696C152.986 168.344 152.554 167.859 152.245 167.24C151.946 166.611 151.797 165.885 151.797 165.064C151.797 164.253 151.946 163.533 152.245 162.904C152.554 162.275 152.986 161.789 153.541 161.448C154.106 161.096 154.757 160.92 155.493 160.92C156.09 160.92 156.613 161.021 157.061 161.224C157.509 161.416 157.941 161.736 158.357 162.184C158.421 162.248 158.453 162.317 158.453 162.392C158.453 162.488 158.41 162.568 158.325 162.632L158.101 162.84C158.037 162.904 157.962 162.936 157.877 162.936C157.802 162.936 157.722 162.893 157.637 162.808C157.263 162.435 156.906 162.173 156.565 162.024C156.234 161.875 155.866 161.8 155.461 161.8C154.906 161.8 154.431 161.955 154.037 162.264C153.653 162.573 153.365 162.979 153.173 163.48C152.981 163.971 152.885 164.499 152.885 165.064C152.885 165.629 152.981 166.163 153.173 166.664C153.365 167.155 153.658 167.555 154.053 167.864C154.447 168.163 154.933 168.312 155.509 168.312C155.935 168.312 156.309 168.237 156.629 168.088C156.959 167.928 157.327 167.629 157.733 167.192C157.818 167.107 157.898 167.064 157.973 167.064C158.058 167.064 158.133 167.096 158.197 167.16L158.421 167.336C158.495 167.4 158.533 167.475 158.533 167.56C158.533 167.645 158.485 167.747 158.389 167.864C157.941 168.355 157.493 168.701 157.045 168.904C156.597 169.107 156.09 169.208 155.525 169.208Z" fill="#464646"/>
<rect x="94.5" y="193.5" width="15" height="15" rx="1.5" fill="#0063FB" stroke="#0063FB"/>
<path d="M101.226 202.567L104.903 198.168C105.179 197.838 105.669 197.794 105.999 198.07C106.329 198.345 106.372 198.836 106.097 199.166L101.871 204.221C101.577 204.573 101.044 204.595 100.721 204.269L98.3359 201.856C98.034 201.55 98.0368 201.058 98.3424 200.756C98.6479 200.454 99.1403 200.457 99.4423 200.762L101.226 202.567Z" fill="white"/>
<path d="M127.648 206.616C127.691 206.669 127.712 206.728 127.712 206.792C127.712 206.931 127.621 207 127.44 207H126.848C126.688 207 126.56 206.931 126.464 206.792L123.424 202.28H120.512V206.68C120.512 206.893 120.405 207 120.192 207H119.696C119.483 207 119.376 206.893 119.376 206.68V195.96C119.376 195.747 119.483 195.64 119.696 195.64H123.872C124.96 195.64 125.84 195.933 126.512 196.52C127.184 197.096 127.52 197.907 127.52 198.952C127.52 199.869 127.259 200.611 126.736 201.176C126.224 201.741 125.531 202.088 124.656 202.216L127.648 206.616ZM120.512 201.336H123.696C124.539 201.336 125.2 201.133 125.68 200.728C126.16 200.323 126.4 199.731 126.4 198.952C126.4 198.184 126.155 197.597 125.664 197.192C125.184 196.787 124.523 196.584 123.68 196.584H120.512V201.336ZM135.162 205.128C135.237 205.053 135.317 205.016 135.402 205.016C135.477 205.016 135.546 205.048 135.61 205.112L135.818 205.304C135.893 205.379 135.93 205.459 135.93 205.544C135.93 205.608 135.898 205.683 135.834 205.768C135.312 206.291 134.805 206.664 134.314 206.888C133.824 207.101 133.274 207.208 132.666 207.208C131.898 207.208 131.232 207.037 130.666 206.696C130.101 206.355 129.664 205.88 129.354 205.272C129.045 204.653 128.89 203.939 128.89 203.128C128.89 202.307 129.04 201.581 129.338 200.952C129.648 200.312 130.08 199.816 130.634 199.464C131.189 199.101 131.829 198.92 132.554 198.92C133.632 198.92 134.48 199.256 135.098 199.928C135.717 200.6 136.026 201.507 136.026 202.648V202.84C136.016 202.936 135.978 203.011 135.914 203.064C135.861 203.117 135.786 203.144 135.69 203.144H129.962C129.994 204.04 130.229 204.797 130.666 205.416C131.114 206.024 131.781 206.328 132.666 206.328C133.146 206.328 133.568 206.243 133.93 206.072C134.304 205.891 134.714 205.576 135.162 205.128ZM132.554 199.8C131.85 199.8 131.269 200.019 130.81 200.456C130.362 200.883 130.09 201.512 129.994 202.344H134.97C134.949 201.565 134.725 200.947 134.298 200.488C133.872 200.029 133.29 199.8 132.554 199.8ZM140.818 198.92C141.788 198.92 142.546 199.155 143.09 199.624C143.634 200.083 143.906 200.691 143.906 201.448V206.68C143.906 206.893 143.799 207 143.586 207H143.266C143.052 207 142.946 206.893 142.946 206.68V205.96C142.679 206.387 142.3 206.707 141.81 206.92C141.33 207.133 140.791 207.24 140.194 207.24C139.362 207.24 138.684 207.064 138.162 206.712C137.639 206.36 137.378 205.816 137.378 205.08C137.378 204.493 137.543 204.024 137.874 203.672C138.204 203.309 138.636 203.037 139.17 202.856C139.703 202.664 140.37 202.493 141.17 202.344L142.898 202.04V201.528C142.898 200.984 142.711 200.563 142.338 200.264C141.964 199.955 141.474 199.8 140.866 199.8C140.407 199.8 139.991 199.885 139.618 200.056C139.244 200.227 138.844 200.52 138.418 200.936C138.343 201.011 138.263 201.048 138.178 201.048C138.103 201.048 138.034 201.016 137.97 200.952L137.762 200.76C137.687 200.685 137.65 200.605 137.65 200.52C137.65 200.424 137.687 200.339 137.762 200.264C138.21 199.795 138.679 199.453 139.17 199.24C139.671 199.027 140.22 198.92 140.818 198.92ZM140.242 206.36C141.01 206.36 141.644 206.157 142.146 205.752C142.647 205.347 142.898 204.829 142.898 204.2V202.856L141.41 203.144C140.716 203.283 140.167 203.416 139.762 203.544C139.356 203.672 139.031 203.859 138.786 204.104C138.54 204.349 138.418 204.669 138.418 205.064C138.418 205.469 138.578 205.789 138.898 206.024C139.228 206.248 139.676 206.36 140.242 206.36ZM151.943 195.96C151.943 195.747 152.049 195.64 152.263 195.64H152.679C152.892 195.64 152.999 195.747 152.999 195.96V206.68C152.999 206.893 152.892 207 152.679 207H152.343C152.129 207 152.023 206.893 152.023 206.68V205.64C151.735 206.141 151.356 206.525 150.887 206.792C150.417 207.059 149.863 207.192 149.223 207.192C148.551 207.192 147.953 207.021 147.431 206.68C146.908 206.328 146.497 205.843 146.199 205.224C145.9 204.595 145.751 203.875 145.751 203.064C145.751 202.253 145.9 201.539 146.199 200.92C146.508 200.291 146.929 199.805 147.463 199.464C147.996 199.112 148.593 198.936 149.255 198.936C150.471 198.936 151.367 199.389 151.943 200.296V195.96ZM149.303 206.296C150.103 206.296 150.748 206.013 151.239 205.448C151.74 204.872 151.991 204.077 151.991 203.064C151.991 202.061 151.74 201.272 151.239 200.696C150.748 200.12 150.103 199.832 149.303 199.832C148.567 199.832 147.969 200.131 147.511 200.728C147.063 201.325 146.839 202.104 146.839 203.064C146.839 204.035 147.063 204.819 147.511 205.416C147.959 206.003 148.556 206.296 149.303 206.296ZM155.9 197.112C155.686 197.112 155.505 197.037 155.356 196.888C155.217 196.739 155.148 196.557 155.148 196.344C155.148 196.131 155.217 195.955 155.356 195.816C155.505 195.677 155.686 195.608 155.9 195.608C156.124 195.608 156.305 195.677 156.444 195.816C156.593 195.955 156.668 196.131 156.668 196.344C156.668 196.557 156.593 196.739 156.444 196.888C156.305 197.037 156.124 197.112 155.9 197.112ZM155.692 207C155.478 207 155.372 206.893 155.372 206.68V199.432C155.372 199.219 155.478 199.112 155.692 199.112H156.108C156.321 199.112 156.428 199.219 156.428 199.432V206.68C156.428 206.893 156.321 207 156.108 207H155.692ZM162.298 198.92C163.226 198.92 163.924 199.176 164.394 199.688C164.874 200.2 165.114 200.84 165.114 201.608V206.68C165.114 206.893 165.007 207 164.794 207H164.378C164.164 207 164.058 206.893 164.058 206.68V201.96C164.058 201.256 163.887 200.723 163.546 200.36C163.204 199.997 162.714 199.816 162.074 199.816C161.668 199.816 161.295 199.917 160.954 200.12C160.612 200.312 160.34 200.579 160.138 200.92C159.935 201.261 159.834 201.635 159.834 202.04V206.68C159.834 206.893 159.727 207 159.514 207H159.098C158.884 207 158.778 206.893 158.778 206.68V199.432C158.778 199.219 158.884 199.112 159.098 199.112H159.45C159.663 199.112 159.77 199.219 159.77 199.432V200.2C160.036 199.773 160.388 199.453 160.826 199.24C161.263 199.027 161.754 198.92 162.298 198.92ZM173.114 199.432C173.114 199.219 173.22 199.112 173.434 199.112H173.77C173.983 199.112 174.09 199.219 174.09 199.432V206.92C174.09 207.912 173.791 208.691 173.194 209.256C172.596 209.832 171.759 210.12 170.682 210.12C169.519 210.12 168.447 209.789 167.466 209.128C167.359 209.064 167.306 208.984 167.306 208.888C167.306 208.813 167.327 208.749 167.37 208.696L167.562 208.424C167.626 208.317 167.711 208.264 167.818 208.264C167.86 208.264 167.924 208.285 168.01 208.328C168.479 208.627 168.916 208.851 169.322 209C169.738 209.149 170.191 209.224 170.682 209.224C171.386 209.224 171.956 209.027 172.394 208.632C172.831 208.248 173.05 207.651 173.05 206.84V205.56C172.474 206.488 171.599 206.952 170.426 206.952C169.743 206.952 169.14 206.781 168.618 206.44C168.095 206.088 167.69 205.608 167.402 205C167.124 204.392 166.986 203.704 166.986 202.936C166.986 202.168 167.124 201.48 167.402 200.872C167.69 200.264 168.095 199.789 168.618 199.448C169.14 199.096 169.743 198.92 170.426 198.92C171.044 198.92 171.578 199.053 172.026 199.32C172.484 199.576 172.847 199.944 173.114 200.424V199.432ZM170.538 206.056C171.306 206.056 171.919 205.768 172.378 205.192C172.836 204.605 173.066 203.853 173.066 202.936C173.066 202.019 172.836 201.272 172.378 200.696C171.919 200.109 171.306 199.816 170.538 199.816C169.759 199.816 169.151 200.104 168.714 200.68C168.287 201.256 168.074 202.008 168.074 202.936C168.074 203.864 168.287 204.616 168.714 205.192C169.151 205.768 169.759 206.056 170.538 206.056Z" fill="#464646"/>
<rect x="94.5" y="231.5" width="15" height="15" rx="1.5" fill="white" stroke="#767676"/>
<path d="M119.696 245C119.483 245 119.376 244.893 119.376 244.68V233.96C119.376 233.747 119.483 233.64 119.696 233.64H124C125.099 233.64 125.984 233.928 126.656 234.504C127.328 235.08 127.664 235.896 127.664 236.952C127.664 238.008 127.328 238.829 126.656 239.416C125.984 239.992 125.099 240.28 124 240.28H120.512V244.68C120.512 244.893 120.405 245 120.192 245H119.696ZM123.856 239.336C124.688 239.336 125.344 239.133 125.824 238.728C126.304 238.323 126.544 237.731 126.544 236.952C126.544 236.184 126.304 235.597 125.824 235.192C125.344 234.787 124.688 234.584 123.856 234.584H120.512V239.336H123.856ZM129.9 235.112C129.686 235.112 129.505 235.037 129.356 234.888C129.217 234.739 129.148 234.557 129.148 234.344C129.148 234.131 129.217 233.955 129.356 233.816C129.505 233.677 129.686 233.608 129.9 233.608C130.124 233.608 130.305 233.677 130.444 233.816C130.593 233.955 130.668 234.131 130.668 234.344C130.668 234.557 130.593 234.739 130.444 234.888C130.305 235.037 130.124 235.112 129.9 235.112ZM129.692 245C129.478 245 129.372 244.893 129.372 244.68V237.432C129.372 237.219 129.478 237.112 129.692 237.112H130.108C130.321 237.112 130.428 237.219 130.428 237.432V244.68C130.428 244.893 130.321 245 130.108 245H129.692ZM136.298 236.92C137.226 236.92 137.924 237.176 138.394 237.688C138.874 238.2 139.114 238.84 139.114 239.608V244.68C139.114 244.893 139.007 245 138.794 245H138.378C138.164 245 138.058 244.893 138.058 244.68V239.96C138.058 239.256 137.887 238.723 137.546 238.36C137.204 237.997 136.714 237.816 136.074 237.816C135.668 237.816 135.295 237.917 134.954 238.12C134.612 238.312 134.34 238.579 134.138 238.92C133.935 239.261 133.834 239.635 133.834 240.04V244.68C133.834 244.893 133.727 245 133.514 245H133.098C132.884 245 132.778 244.893 132.778 244.68V237.432C132.778 237.219 132.884 237.112 133.098 237.112H133.45C133.663 237.112 133.77 237.219 133.77 237.432V238.2C134.036 237.773 134.388 237.453 134.826 237.24C135.263 237.027 135.754 236.92 136.298 236.92ZM147.194 243.128C147.268 243.053 147.348 243.016 147.434 243.016C147.508 243.016 147.578 243.048 147.642 243.112L147.85 243.304C147.924 243.379 147.962 243.459 147.962 243.544C147.962 243.608 147.93 243.683 147.866 243.768C147.343 244.291 146.836 244.664 146.346 244.888C145.855 245.101 145.306 245.208 144.698 245.208C143.93 245.208 143.263 245.037 142.698 244.696C142.132 244.355 141.695 243.88 141.386 243.272C141.076 242.653 140.922 241.939 140.922 241.128C140.922 240.307 141.071 239.581 141.37 238.952C141.679 238.312 142.111 237.816 142.666 237.464C143.22 237.101 143.86 236.92 144.586 236.92C145.663 236.92 146.511 237.256 147.13 237.928C147.748 238.6 148.058 239.507 148.058 240.648V240.84C148.047 240.936 148.01 241.011 147.946 241.064C147.892 241.117 147.818 241.144 147.722 241.144H141.994C142.026 242.04 142.26 242.797 142.698 243.416C143.146 244.024 143.812 244.328 144.698 244.328C145.178 244.328 145.599 244.243 145.962 244.072C146.335 243.891 146.746 243.576 147.194 243.128ZM144.586 237.8C143.882 237.8 143.3 238.019 142.842 238.456C142.394 238.883 142.122 239.512 142.026 240.344H147.002C146.98 239.565 146.756 238.947 146.33 238.488C145.903 238.029 145.322 237.8 144.586 237.8ZM152.849 236.92C153.82 236.92 154.577 237.155 155.121 237.624C155.665 238.083 155.937 238.691 155.937 239.448V244.68C155.937 244.893 155.83 245 155.617 245H155.297C155.084 245 154.977 244.893 154.977 244.68V243.96C154.71 244.387 154.332 244.707 153.841 244.92C153.361 245.133 152.822 245.24 152.225 245.24C151.393 245.24 150.716 245.064 150.193 244.712C149.67 244.36 149.409 243.816 149.409 243.08C149.409 242.493 149.574 242.024 149.905 241.672C150.236 241.309 150.668 241.037 151.201 240.856C151.734 240.664 152.401 240.493 153.201 240.344L154.929 240.04V239.528C154.929 238.984 154.742 238.563 154.369 238.264C153.996 237.955 153.505 237.8 152.897 237.8C152.438 237.8 152.022 237.885 151.649 238.056C151.276 238.227 150.876 238.52 150.449 238.936C150.374 239.011 150.294 239.048 150.209 239.048C150.134 239.048 150.065 239.016 150.001 238.952L149.793 238.76C149.718 238.685 149.681 238.605 149.681 238.52C149.681 238.424 149.718 238.339 149.793 238.264C150.241 237.795 150.71 237.453 151.201 237.24C151.702 237.027 152.252 236.92 152.849 236.92ZM152.273 244.36C153.041 244.36 153.676 244.157 154.177 243.752C154.678 243.347 154.929 242.829 154.929 242.2V240.856L153.441 241.144C152.748 241.283 152.198 241.416 151.793 241.544C151.388 241.672 151.062 241.859 150.817 242.104C150.572 242.349 150.449 242.669 150.449 243.064C150.449 243.469 150.609 243.789 150.929 244.024C151.26 244.248 151.708 244.36 152.273 244.36ZM162.054 236.936C162.715 236.936 163.307 237.112 163.83 237.464C164.363 237.805 164.779 238.291 165.078 238.92C165.376 239.539 165.526 240.248 165.526 241.048C165.526 241.859 165.376 242.579 165.078 243.208C164.779 243.837 164.368 244.328 163.846 244.68C163.323 245.021 162.726 245.192 162.054 245.192C160.816 245.192 159.91 244.739 159.334 243.832V247.624C159.334 247.837 159.227 247.944 159.014 247.944H158.598C158.384 247.944 158.278 247.837 158.278 247.624V237.432C158.278 237.219 158.384 237.112 158.598 237.112H158.95C159.163 237.112 159.27 237.219 159.27 237.432V238.44C159.558 237.949 159.936 237.576 160.406 237.32C160.875 237.064 161.424 236.936 162.054 236.936ZM161.974 244.296C162.72 244.296 163.318 243.997 163.766 243.4C164.214 242.803 164.438 242.019 164.438 241.048C164.438 240.088 164.214 239.315 163.766 238.728C163.318 238.131 162.72 237.832 161.974 237.832C161.174 237.832 160.523 238.12 160.022 238.696C159.531 239.261 159.286 240.045 159.286 241.048C159.286 242.051 159.536 242.845 160.038 243.432C160.539 244.008 161.184 244.296 161.974 244.296ZM171.179 236.936C171.84 236.936 172.432 237.112 172.955 237.464C173.488 237.805 173.904 238.291 174.203 238.92C174.501 239.539 174.651 240.248 174.651 241.048C174.651 241.859 174.501 242.579 174.203 243.208C173.904 243.837 173.493 244.328 172.971 244.68C172.448 245.021 171.851 245.192 171.179 245.192C169.941 245.192 169.035 244.739 168.459 243.832V247.624C168.459 247.837 168.352 247.944 168.139 247.944H167.723C167.509 247.944 167.403 247.837 167.403 247.624V237.432C167.403 237.219 167.509 237.112 167.723 237.112H168.075C168.288 237.112 168.395 237.219 168.395 237.432V238.44C168.683 237.949 169.061 237.576 169.531 237.32C170 237.064 170.549 236.936 171.179 236.936ZM171.099 244.296C171.845 244.296 172.443 243.997 172.891 243.4C173.339 242.803 173.563 242.019 173.563 241.048C173.563 240.088 173.339 239.315 172.891 238.728C172.443 238.131 171.845 237.832 171.099 237.832C170.299 237.832 169.648 238.12 169.147 238.696C168.656 239.261 168.411 240.045 168.411 241.048C168.411 242.051 168.661 242.845 169.163 243.432C169.664 244.008 170.309 244.296 171.099 244.296ZM176.864 245C176.65 245 176.544 244.893 176.544 244.68V233.96C176.544 233.747 176.65 233.64 176.864 233.64H177.28C177.493 233.64 177.6 233.747 177.6 233.96V244.68C177.6 244.893 177.493 245 177.28 245H176.864ZM185.725 243.128C185.8 243.053 185.88 243.016 185.965 243.016C186.04 243.016 186.109 243.048 186.173 243.112L186.381 243.304C186.456 243.379 186.493 243.459 186.493 243.544C186.493 243.608 186.461 243.683 186.397 243.768C185.874 244.291 185.368 244.664 184.877 244.888C184.386 245.101 183.837 245.208 183.229 245.208C182.461 245.208 181.794 245.037 181.229 244.696C180.664 244.355 180.226 243.88 179.917 243.272C179.608 242.653 179.453 241.939 179.453 241.128C179.453 240.307 179.602 239.581 179.901 238.952C180.21 238.312 180.642 237.816 181.197 237.464C181.752 237.101 182.392 236.92 183.117 236.92C184.194 236.92 185.042 237.256 185.661 237.928C186.28 238.6 186.589 239.507 186.589 240.648V240.84C186.578 240.936 186.541 241.011 186.477 241.064C186.424 241.117 186.349 241.144 186.253 241.144H180.525C180.557 242.04 180.792 242.797 181.229 243.416C181.677 244.024 182.344 244.328 183.229 244.328C183.709 244.328 184.13 244.243 184.493 244.072C184.866 243.891 185.277 243.576 185.725 243.128ZM183.117 237.8C182.413 237.8 181.832 238.019 181.373 238.456C180.925 238.883 180.653 239.512 180.557 240.344H185.533C185.512 239.565 185.288 238.947 184.861 238.488C184.434 238.029 183.853 237.8 183.117 237.8ZM195.432 245.208C194.696 245.208 194.04 245.032 193.464 244.68C192.888 244.328 192.44 243.843 192.12 243.224C191.8 242.595 191.64 241.875 191.64 241.064C191.64 240.253 191.8 239.539 192.12 238.92C192.44 238.291 192.888 237.8 193.464 237.448C194.04 237.096 194.696 236.92 195.432 236.92C196.168 236.92 196.824 237.096 197.4 237.448C197.976 237.8 198.424 238.291 198.744 238.92C199.064 239.539 199.224 240.253 199.224 241.064C199.224 241.875 199.064 242.595 198.744 243.224C198.424 243.843 197.976 244.328 197.4 244.68C196.824 245.032 196.168 245.208 195.432 245.208ZM195.432 244.328C196.254 244.328 196.91 244.029 197.4 243.432C197.891 242.824 198.136 242.035 198.136 241.064C198.136 240.093 197.891 239.309 197.4 238.712C196.91 238.104 196.254 237.8 195.432 237.8C194.611 237.8 193.955 238.104 193.464 238.712C192.974 239.309 192.728 240.093 192.728 241.064C192.728 242.035 192.974 242.824 193.464 243.432C193.955 244.029 194.611 244.328 195.432 244.328ZM204.579 236.92C205.507 236.92 206.206 237.176 206.675 237.688C207.155 238.2 207.395 238.84 207.395 239.608V244.68C207.395 244.893 207.288 245 207.075 245H206.659C206.446 245 206.339 244.893 206.339 244.68V239.96C206.339 239.256 206.168 238.723 205.827 238.36C205.486 237.997 204.995 237.816 204.355 237.816C203.95 237.816 203.576 237.917 203.235 238.12C202.894 238.312 202.622 238.579 202.419 238.92C202.216 239.261 202.115 239.635 202.115 240.04V244.68C202.115 244.893 202.008 245 201.795 245H201.379C201.166 245 201.059 244.893 201.059 244.68V237.432C201.059 237.219 201.166 237.112 201.379 237.112H201.731C201.944 237.112 202.051 237.219 202.051 237.432V238.2C202.318 237.773 202.67 237.453 203.107 237.24C203.544 237.027 204.035 236.92 204.579 236.92ZM217.194 236.936C217.856 236.936 218.448 237.112 218.97 237.464C219.504 237.805 219.92 238.291 220.218 238.92C220.517 239.539 220.666 240.248 220.666 241.048C220.666 241.859 220.517 242.579 220.218 243.208C219.92 243.837 219.509 244.328 218.986 244.68C218.464 245.021 217.866 245.192 217.194 245.192C215.957 245.192 215.05 244.739 214.474 243.832V247.624C214.474 247.837 214.368 247.944 214.154 247.944H213.738C213.525 247.944 213.418 247.837 213.418 247.624V237.432C213.418 237.219 213.525 237.112 213.738 237.112H214.09C214.304 237.112 214.41 237.219 214.41 237.432V238.44C214.698 237.949 215.077 237.576 215.546 237.32C216.016 237.064 216.565 236.936 217.194 236.936ZM217.114 244.296C217.861 244.296 218.458 243.997 218.906 243.4C219.354 242.803 219.578 242.019 219.578 241.048C219.578 240.088 219.354 239.315 218.906 238.728C218.458 238.131 217.861 237.832 217.114 237.832C216.314 237.832 215.664 238.12 215.162 238.696C214.672 239.261 214.426 240.045 214.426 241.048C214.426 242.051 214.677 242.845 215.178 243.432C215.68 244.008 216.325 244.296 217.114 244.296ZM223.071 235.112C222.858 235.112 222.677 235.037 222.527 234.888C222.389 234.739 222.319 234.557 222.319 234.344C222.319 234.131 222.389 233.955 222.527 233.816C222.677 233.677 222.858 233.608 223.071 233.608C223.295 233.608 223.477 233.677 223.615 233.816C223.765 233.955 223.839 234.131 223.839 234.344C223.839 234.557 223.765 234.739 223.615 234.888C223.477 235.037 223.295 235.112 223.071 235.112ZM222.863 245C222.65 245 222.543 244.893 222.543 244.68V237.432C222.543 237.219 222.65 237.112 222.863 237.112H223.279C223.493 237.112 223.599 237.219 223.599 237.432V244.68C223.599 244.893 223.493 245 223.279 245H222.863ZM231.342 237.112C231.555 237.112 231.662 237.219 231.662 237.432V237.656C231.662 237.795 231.614 237.928 231.518 238.056L226.75 244.12H231.342C231.555 244.12 231.662 244.227 231.662 244.44V244.68C231.662 244.893 231.555 245 231.342 245H225.742C225.528 245 225.422 244.893 225.422 244.68V244.44C225.422 244.301 225.47 244.168 225.566 244.04L230.334 237.992H226.046C225.832 237.992 225.726 237.885 225.726 237.672V237.432C225.726 237.219 225.832 237.112 226.046 237.112H231.342ZM238.967 237.112C239.18 237.112 239.287 237.219 239.287 237.432V237.656C239.287 237.795 239.239 237.928 239.143 238.056L234.375 244.12H238.967C239.18 244.12 239.287 244.227 239.287 244.44V244.68C239.287 244.893 239.18 245 238.967 245H233.367C233.153 245 233.047 244.893 233.047 244.68V244.44C233.047 244.301 233.095 244.168 233.191 244.04L237.959 237.992H233.671C233.457 237.992 233.351 237.885 233.351 237.672V237.432C233.351 237.219 233.457 237.112 233.671 237.112H238.967ZM244.099 236.92C245.07 236.92 245.827 237.155 246.371 237.624C246.915 238.083 247.187 238.691 247.187 239.448V244.68C247.187 244.893 247.08 245 246.867 245H246.547C246.334 245 246.227 244.893 246.227 244.68V243.96C245.96 244.387 245.582 244.707 245.091 244.92C244.611 245.133 244.072 245.24 243.475 245.24C242.643 245.24 241.966 245.064 241.443 244.712C240.92 244.36 240.659 243.816 240.659 243.08C240.659 242.493 240.824 242.024 241.155 241.672C241.486 241.309 241.918 241.037 242.451 240.856C242.984 240.664 243.651 240.493 244.451 240.344L246.179 240.04V239.528C246.179 238.984 245.992 238.563 245.619 238.264C245.246 237.955 244.755 237.8 244.147 237.8C243.688 237.8 243.272 237.885 242.899 238.056C242.526 238.227 242.126 238.52 241.699 238.936C241.624 239.011 241.544 239.048 241.459 239.048C241.384 239.048 241.315 239.016 241.251 238.952L241.043 238.76C240.968 238.685 240.931 238.605 240.931 238.52C240.931 238.424 240.968 238.339 241.043 238.264C241.491 237.795 241.96 237.453 242.451 237.24C242.952 237.027 243.502 236.92 244.099 236.92ZM243.523 244.36C244.291 244.36 244.926 244.157 245.427 243.752C245.928 243.347 246.179 242.829 246.179 242.2V240.856L244.691 241.144C243.998 241.283 243.448 241.416 243.043 241.544C242.638 241.672 242.312 241.859 242.067 242.104C241.822 242.349 241.699 242.669 241.699 243.064C241.699 243.469 241.859 243.789 242.179 244.024C242.51 244.248 242.958 244.36 243.523 244.36Z" fill="#464646"/>
<path d="M95.904 85C95.7333 85 95.5947 84.952 95.488 84.856C95.392 84.7493 95.344 84.6107 95.344 84.44V74.2C95.344 74.0187 95.392 73.88 95.488 73.784C95.5947 73.688 95.7333 73.64 95.904 73.64H96.608C96.7893 73.64 96.928 73.688 97.024 73.784C97.12 73.88 97.168 74.0187 97.168 74.2V84.44C97.168 84.6107 97.12 84.7493 97.024 84.856C96.928 84.952 96.7893 85 96.608 85H95.904ZM103.508 76.872C104.414 76.872 105.108 77.128 105.588 77.64C106.078 78.1413 106.324 78.792 106.324 79.592V84.44C106.324 84.6107 106.276 84.7493 106.18 84.856C106.084 84.952 105.945 85 105.764 85H105.188C105.017 85 104.878 84.952 104.772 84.856C104.676 84.7493 104.628 84.6107 104.628 84.44V80.12C104.628 79.544 104.484 79.1013 104.196 78.792C103.918 78.4827 103.518 78.328 102.996 78.328C102.484 78.328 102.052 78.504 101.7 78.856C101.358 79.208 101.188 79.6507 101.188 80.184V84.44C101.188 84.6107 101.14 84.7493 101.044 84.856C100.948 84.952 100.809 85 100.628 85H100.052C99.881 85 99.7423 84.952 99.6356 84.856C99.5396 84.7493 99.4916 84.6107 99.4916 84.44V77.672C99.4916 77.4907 99.5396 77.352 99.6356 77.256C99.7423 77.16 99.881 77.112 100.052 77.112H100.516C100.697 77.112 100.836 77.16 100.932 77.256C101.028 77.352 101.076 77.4907 101.076 77.672V78.088C101.332 77.6933 101.668 77.3947 102.084 77.192C102.5 76.9787 102.974 76.872 103.508 76.872ZM111.909 83.656C111.941 83.6453 111.989 83.64 112.053 83.64C112.32 83.64 112.48 83.7947 112.533 84.104L112.581 84.36C112.592 84.392 112.597 84.4453 112.597 84.52C112.597 84.7867 112.448 84.9573 112.149 85.032C111.722 85.128 111.333 85.176 110.981 85.176C110.224 85.176 109.674 85 109.333 84.648C109.002 84.296 108.837 83.768 108.837 83.064V78.408H107.957C107.786 78.408 107.648 78.36 107.541 78.264C107.445 78.1573 107.397 78.0187 107.397 77.848V77.672C107.397 77.4907 107.445 77.352 107.541 77.256C107.648 77.16 107.786 77.112 107.957 77.112H108.837V75.128C108.837 74.9467 108.885 74.808 108.981 74.712C109.088 74.616 109.226 74.568 109.397 74.568H109.973C110.154 74.568 110.293 74.616 110.389 74.712C110.485 74.808 110.533 74.9467 110.533 75.128V77.112H111.973C112.154 77.112 112.293 77.16 112.389 77.256C112.485 77.352 112.533 77.4907 112.533 77.672V77.848C112.533 78.0187 112.485 78.1573 112.389 78.264C112.293 78.36 112.154 78.408 111.973 78.408H110.533V82.856C110.533 83.1653 110.597 83.384 110.725 83.512C110.864 83.64 111.082 83.704 111.381 83.704C111.509 83.704 111.685 83.688 111.909 83.656ZM119.327 82.984C119.466 82.8667 119.599 82.808 119.727 82.808C119.855 82.808 119.988 82.8773 120.127 83.016L120.351 83.256C120.468 83.3947 120.527 83.528 120.527 83.656C120.527 83.7947 120.458 83.928 120.319 84.056C119.828 84.4827 119.338 84.7867 118.847 84.968C118.367 85.1493 117.834 85.24 117.247 85.24C116.426 85.24 115.711 85.0693 115.103 84.728C114.506 84.3867 114.042 83.9067 113.711 83.288C113.391 82.6587 113.231 81.9333 113.231 81.112C113.231 80.3013 113.386 79.576 113.695 78.936C114.015 78.2853 114.463 77.7787 115.039 77.416C115.626 77.0533 116.308 76.872 117.087 76.872C118.25 76.872 119.146 77.2187 119.775 77.912C120.404 78.5947 120.719 79.5387 120.719 80.744V80.888C120.708 81.0587 120.655 81.192 120.559 81.288C120.463 81.384 120.324 81.432 120.143 81.432H114.895C114.959 82.136 115.188 82.712 115.583 83.16C115.988 83.5973 116.554 83.816 117.279 83.816C117.674 83.816 118.02 83.7573 118.319 83.64C118.618 83.512 118.954 83.2933 119.327 82.984ZM117.055 78.216C116.468 78.216 115.994 78.392 115.631 78.744C115.279 79.0853 115.05 79.5707 114.943 80.2H119.055C119.012 79.5813 118.82 79.096 118.479 78.744C118.138 78.392 117.663 78.216 117.055 78.216ZM125.825 77.032C126.06 77.032 126.3 77.0587 126.545 77.112C126.833 77.176 126.977 77.3467 126.977 77.624C126.977 77.6987 126.972 77.752 126.961 77.784L126.881 78.168C126.817 78.4667 126.657 78.616 126.401 78.616L126.257 78.6C126.065 78.568 125.894 78.552 125.745 78.552C125.212 78.552 124.78 78.7653 124.449 79.192C124.129 79.608 123.969 80.1893 123.969 80.936V84.44C123.969 84.6107 123.921 84.7493 123.825 84.856C123.729 84.952 123.59 85 123.409 85H122.833C122.662 85 122.524 84.952 122.417 84.856C122.321 84.7493 122.273 84.6107 122.273 84.44V77.672C122.273 77.4907 122.321 77.352 122.417 77.256C122.524 77.16 122.662 77.112 122.833 77.112H123.297C123.478 77.112 123.617 77.16 123.713 77.256C123.809 77.352 123.857 77.4907 123.857 77.672V78.296C124.049 77.9013 124.31 77.592 124.641 77.368C124.972 77.144 125.366 77.032 125.825 77.032ZM133.483 82.984C133.622 82.8667 133.755 82.808 133.883 82.808C134.011 82.808 134.145 82.8773 134.283 83.016L134.507 83.256C134.625 83.3947 134.683 83.528 134.683 83.656C134.683 83.7947 134.614 83.928 134.475 84.056C133.985 84.4827 133.494 84.7867 133.003 84.968C132.523 85.1493 131.99 85.24 131.403 85.24C130.582 85.24 129.867 85.0693 129.259 84.728C128.662 84.3867 128.198 83.9067 127.867 83.288C127.547 82.6587 127.387 81.9333 127.387 81.112C127.387 80.3013 127.542 79.576 127.851 78.936C128.171 78.2853 128.619 77.7787 129.195 77.416C129.782 77.0533 130.465 76.872 131.243 76.872C132.406 76.872 133.302 77.2187 133.931 77.912C134.561 78.5947 134.875 79.5387 134.875 80.744V80.888C134.865 81.0587 134.811 81.192 134.715 81.288C134.619 81.384 134.481 81.432 134.299 81.432H129.051C129.115 82.136 129.345 82.712 129.739 83.16C130.145 83.5973 130.71 83.816 131.435 83.816C131.83 83.816 132.177 83.7573 132.475 83.64C132.774 83.512 133.11 83.2933 133.483 82.984ZM131.211 78.216C130.625 78.216 130.15 78.392 129.787 78.744C129.435 79.0853 129.206 79.5707 129.099 80.2H133.211C133.169 79.5813 132.977 79.096 132.635 78.744C132.294 78.392 131.819 78.216 131.211 78.216ZM139.5 85.24C138.85 85.24 138.268 85.16 137.756 85C137.255 84.8293 136.743 84.536 136.22 84.12C136.06 84.0027 135.98 83.8693 135.98 83.72C135.98 83.6027 136.039 83.4747 136.156 83.336L136.396 83.064C136.524 82.9147 136.663 82.84 136.812 82.84C136.93 82.84 137.058 82.8933 137.196 83C137.644 83.3307 138.039 83.56 138.38 83.688C138.722 83.8053 139.106 83.864 139.532 83.864C139.991 83.864 140.364 83.7733 140.652 83.592C140.951 83.4 141.1 83.144 141.1 82.824C141.1 82.5787 141.015 82.3867 140.844 82.248C140.684 82.0987 140.471 81.9867 140.204 81.912C139.938 81.8267 139.543 81.7307 139.02 81.624C138.284 81.464 137.708 81.2933 137.292 81.112C136.887 80.92 136.594 80.68 136.412 80.392C136.231 80.104 136.14 79.736 136.14 79.288C136.14 78.8293 136.268 78.4187 136.524 78.056C136.791 77.6933 137.159 77.4053 137.628 77.192C138.108 76.9787 138.668 76.872 139.308 76.872C139.884 76.872 140.396 76.936 140.844 77.064C141.303 77.192 141.751 77.4107 142.188 77.72C142.359 77.848 142.444 77.992 142.444 78.152C142.444 78.2587 142.391 78.3813 142.284 78.52L142.076 78.776C141.959 78.9253 141.815 79 141.644 79C141.516 79 141.394 78.9573 141.276 78.872C140.924 78.6373 140.599 78.4773 140.3 78.392C140.002 78.296 139.666 78.248 139.292 78.248C138.834 78.248 138.466 78.3387 138.188 78.52C137.911 78.7013 137.772 78.936 137.772 79.224C137.772 79.416 137.836 79.5707 137.964 79.688C138.103 79.7947 138.295 79.8907 138.54 79.976C138.796 80.0507 139.196 80.1467 139.74 80.264C140.476 80.424 141.058 80.6053 141.484 80.808C141.922 81 142.242 81.2507 142.444 81.56C142.658 81.8587 142.764 82.248 142.764 82.728C142.764 83.4747 142.466 84.0827 141.868 84.552C141.282 85.0107 140.492 85.24 139.5 85.24ZM148.003 83.656C148.035 83.6453 148.083 83.64 148.147 83.64C148.413 83.64 148.573 83.7947 148.627 84.104L148.675 84.36C148.685 84.392 148.691 84.4453 148.691 84.52C148.691 84.7867 148.541 84.9573 148.243 85.032C147.816 85.128 147.427 85.176 147.075 85.176C146.317 85.176 145.768 85 145.427 84.648C145.096 84.296 144.931 83.768 144.931 83.064V78.408H144.051C143.88 78.408 143.741 78.36 143.635 78.264C143.539 78.1573 143.491 78.0187 143.491 77.848V77.672C143.491 77.4907 143.539 77.352 143.635 77.256C143.741 77.16 143.88 77.112 144.051 77.112H144.931V75.128C144.931 74.9467 144.979 74.808 145.075 74.712C145.181 74.616 145.32 74.568 145.491 74.568H146.067C146.248 74.568 146.387 74.616 146.483 74.712C146.579 74.808 146.627 74.9467 146.627 75.128V77.112H148.067C148.248 77.112 148.387 77.16 148.483 77.256C148.579 77.352 148.627 77.4907 148.627 77.672V77.848C148.627 78.0187 148.579 78.1573 148.483 78.264C148.387 78.36 148.248 78.408 148.067 78.408H146.627V82.856C146.627 83.1653 146.691 83.384 146.819 83.512C146.957 83.64 147.176 83.704 147.475 83.704C147.603 83.704 147.779 83.688 148.003 83.656ZM153.188 85.24C152.537 85.24 151.956 85.16 151.444 85C150.943 84.8293 150.431 84.536 149.908 84.12C149.748 84.0027 149.668 83.8693 149.668 83.72C149.668 83.6027 149.727 83.4747 149.844 83.336L150.084 83.064C150.212 82.9147 150.351 82.84 150.5 82.84C150.617 82.84 150.745 82.8933 150.884 83C151.332 83.3307 151.727 83.56 152.068 83.688C152.409 83.8053 152.793 83.864 153.22 83.864C153.679 83.864 154.052 83.7733 154.34 83.592C154.639 83.4 154.788 83.144 154.788 82.824C154.788 82.5787 154.703 82.3867 154.532 82.248C154.372 82.0987 154.159 81.9867 153.892 81.912C153.625 81.8267 153.231 81.7307 152.708 81.624C151.972 81.464 151.396 81.2933 150.98 81.112C150.575 80.92 150.281 80.68 150.1 80.392C149.919 80.104 149.828 79.736 149.828 79.288C149.828 78.8293 149.956 78.4187 150.212 78.056C150.479 77.6933 150.847 77.4053 151.316 77.192C151.796 76.9787 152.356 76.872 152.996 76.872C153.572 76.872 154.084 76.936 154.532 77.064C154.991 77.192 155.439 77.4107 155.876 77.72C156.047 77.848 156.132 77.992 156.132 78.152C156.132 78.2587 156.079 78.3813 155.972 78.52L155.764 78.776C155.647 78.9253 155.503 79 155.332 79C155.204 79 155.081 78.9573 154.964 78.872C154.612 78.6373 154.287 78.4773 153.988 78.392C153.689 78.296 153.353 78.248 152.98 78.248C152.521 78.248 152.153 78.3387 151.876 78.52C151.599 78.7013 151.46 78.936 151.46 79.224C151.46 79.416 151.524 79.5707 151.652 79.688C151.791 79.7947 151.983 79.8907 152.228 79.976C152.484 80.0507 152.884 80.1467 153.428 80.264C154.164 80.424 154.745 80.6053 155.172 80.808C155.609 81 155.929 81.2507 156.132 81.56C156.345 81.8587 156.452 82.248 156.452 82.728C156.452 83.4747 156.153 84.0827 155.556 84.552C154.969 85.0107 154.18 85.24 153.188 85.24Z" fill="#464646"/>
</svg>
