<svg width="344" height="250" viewBox="0 0 344 250" fill="none" xmlns="http://www.w3.org/2000/svg">
<rect width="344" height="250" fill="#F5F5F5"/>
<rect x="64.5" y="40.5" width="215" height="169" rx="7.5" fill="white"/>
<rect x="80.5" y="94.5" width="15" height="15" rx="1.5" fill="#0063FB" stroke="#0063FB"/>
<path d="M87.2264 103.567L90.9035 99.1679C91.1789 98.8383 91.6694 98.7945 91.999 99.0699C92.3286 99.3454 92.3725 99.8359 92.097 100.166L87.8713 105.221C87.5771 105.573 87.0438 105.595 86.7213 105.269L84.3359 102.856C84.034 102.55 84.0368 102.058 84.3424 101.756C84.6479 101.454 85.1403 101.457 85.4423 101.762L87.2264 103.567Z" fill="white"/>
<rect x="80.5" y="134.5" width="15" height="15" rx="1.5" fill="#0063FB" stroke="#0063FB"/>
<path d="M87.2264 143.567L90.9035 139.168C91.1789 138.838 91.6694 138.794 91.999 139.07C92.3286 139.345 92.3725 139.836 92.097 140.166L87.8713 145.221C87.5771 145.573 87.0438 145.595 86.7213 145.269L84.3359 142.856C84.034 142.55 84.0368 142.058 84.3424 141.756C84.6479 141.454 85.1403 141.457 85.4423 141.762L87.2264 143.567Z" fill="white"/>
<rect x="80.5" y="174.5" width="15" height="15" rx="1.5" fill="#0063FB" stroke="#0063FB"/>
<path d="M87.2264 183.567L90.9035 179.168C91.1789 178.838 91.6694 178.794 91.999 179.07C92.3286 179.345 92.3725 179.836 92.097 180.166L87.8713 185.221C87.5771 185.573 87.0438 185.595 86.7213 185.269L84.3359 182.856C84.034 182.55 84.0368 182.058 84.3424 181.756C84.6479 181.454 85.1403 181.457 85.4423 181.762L87.2264 183.567Z" fill="white"/>
<path d="M109.136 188.24C108.293 188.24 107.531 188.112 106.848 187.856C106.176 187.589 105.467 187.157 104.72 186.56C104.624 186.475 104.576 186.395 104.576 186.32C104.576 186.256 104.608 186.187 104.672 186.112L104.928 185.808C104.981 185.723 105.061 185.68 105.168 185.68C105.253 185.68 105.323 185.707 105.376 185.76C106.133 186.347 106.795 186.747 107.36 186.96C107.925 187.163 108.517 187.264 109.136 187.264C110 187.264 110.704 187.051 111.248 186.624C111.792 186.187 112.064 185.595 112.064 184.848C112.064 184.368 111.936 183.984 111.68 183.696C111.424 183.408 111.072 183.184 110.624 183.024C110.187 182.864 109.563 182.693 108.752 182.512C107.781 182.299 107.024 182.069 106.48 181.824C105.947 181.579 105.557 181.269 105.312 180.896C105.067 180.523 104.944 180.043 104.944 179.456C104.944 178.837 105.12 178.299 105.472 177.84C105.835 177.371 106.315 177.013 106.912 176.768C107.509 176.523 108.155 176.4 108.848 176.4C109.605 176.4 110.293 176.512 110.912 176.736C111.541 176.96 112.16 177.317 112.768 177.808C112.864 177.872 112.912 177.947 112.912 178.032C112.912 178.096 112.88 178.171 112.816 178.256L112.576 178.544C112.523 178.629 112.443 178.672 112.336 178.672C112.251 178.672 112.176 178.645 112.112 178.592C111.568 178.144 111.04 177.829 110.528 177.648C110.027 177.467 109.472 177.376 108.864 177.376C108.309 177.376 107.819 177.467 107.392 177.648C106.965 177.819 106.629 178.059 106.384 178.368C106.149 178.677 106.032 179.029 106.032 179.424C106.032 179.851 106.149 180.192 106.384 180.448C106.629 180.704 106.965 180.907 107.392 181.056C107.829 181.205 108.464 181.376 109.296 181.568C110.256 181.792 111.013 182.043 111.568 182.32C112.133 182.597 112.544 182.939 112.8 183.344C113.056 183.739 113.184 184.229 113.184 184.816C113.184 185.499 113.008 186.101 112.656 186.624C112.315 187.136 111.835 187.536 111.216 187.824C110.597 188.101 109.904 188.24 109.136 188.24ZM118.641 179.92C119.559 179.92 120.258 180.181 120.738 180.704C121.218 181.216 121.458 181.851 121.458 182.608V187.68C121.458 187.893 121.351 188 121.138 188H120.722C120.508 188 120.402 187.893 120.402 187.68V182.96C120.402 182.256 120.231 181.723 119.89 181.36C119.548 180.997 119.058 180.816 118.418 180.816C118.012 180.816 117.639 180.917 117.298 181.12C116.956 181.312 116.684 181.579 116.482 181.92C116.279 182.261 116.178 182.635 116.178 183.04V187.68C116.178 187.893 116.071 188 115.858 188H115.442C115.228 188 115.122 187.893 115.122 187.68V176.96C115.122 176.747 115.228 176.64 115.442 176.64H115.858C116.071 176.64 116.178 176.747 116.178 176.96V181.136C116.434 180.731 116.775 180.427 117.202 180.224C117.639 180.021 118.119 179.92 118.641 179.92ZM126.833 179.92C127.804 179.92 128.561 180.155 129.105 180.624C129.649 181.083 129.921 181.691 129.921 182.448V187.68C129.921 187.893 129.815 188 129.601 188H129.281C129.068 188 128.961 187.893 128.961 187.68V186.96C128.695 187.387 128.316 187.707 127.825 187.92C127.345 188.133 126.807 188.24 126.209 188.24C125.377 188.24 124.7 188.064 124.177 187.712C123.655 187.36 123.393 186.816 123.393 186.08C123.393 185.493 123.559 185.024 123.889 184.672C124.22 184.309 124.652 184.037 125.185 183.856C125.719 183.664 126.385 183.493 127.185 183.344L128.913 183.04V182.528C128.913 181.984 128.727 181.563 128.353 181.264C127.98 180.955 127.489 180.8 126.881 180.8C126.423 180.8 126.007 180.885 125.633 181.056C125.26 181.227 124.86 181.52 124.433 181.936C124.359 182.011 124.279 182.048 124.193 182.048C124.119 182.048 124.049 182.016 123.985 181.952L123.777 181.76C123.703 181.685 123.665 181.605 123.665 181.52C123.665 181.424 123.703 181.339 123.777 181.264C124.225 180.795 124.695 180.453 125.185 180.24C125.687 180.027 126.236 179.92 126.833 179.92ZM126.257 187.36C127.025 187.36 127.66 187.157 128.161 186.752C128.663 186.347 128.913 185.829 128.913 185.2V183.856L127.425 184.144C126.732 184.283 126.183 184.416 125.777 184.544C125.372 184.672 125.047 184.859 124.801 185.104C124.556 185.349 124.433 185.669 124.433 186.064C124.433 186.469 124.593 186.789 124.913 187.024C125.244 187.248 125.692 187.36 126.257 187.36ZM137.958 176.96C137.958 176.747 138.065 176.64 138.278 176.64H138.694C138.907 176.64 139.014 176.747 139.014 176.96V187.68C139.014 187.893 138.907 188 138.694 188H138.358C138.145 188 138.038 187.893 138.038 187.68V186.64C137.75 187.141 137.371 187.525 136.902 187.792C136.433 188.059 135.878 188.192 135.238 188.192C134.566 188.192 133.969 188.021 133.446 187.68C132.923 187.328 132.513 186.843 132.214 186.224C131.915 185.595 131.766 184.875 131.766 184.064C131.766 183.253 131.915 182.539 132.214 181.92C132.523 181.291 132.945 180.805 133.478 180.464C134.011 180.112 134.609 179.936 135.27 179.936C136.486 179.936 137.382 180.389 137.958 181.296V176.96ZM135.318 187.296C136.118 187.296 136.763 187.013 137.254 186.448C137.755 185.872 138.006 185.077 138.006 184.064C138.006 183.061 137.755 182.272 137.254 181.696C136.763 181.12 136.118 180.832 135.318 180.832C134.582 180.832 133.985 181.131 133.526 181.728C133.078 182.325 132.854 183.104 132.854 184.064C132.854 185.035 133.078 185.819 133.526 186.416C133.974 187.003 134.571 187.296 135.318 187.296ZM144.651 188.208C143.915 188.208 143.259 188.032 142.683 187.68C142.107 187.328 141.659 186.843 141.339 186.224C141.019 185.595 140.859 184.875 140.859 184.064C140.859 183.253 141.019 182.539 141.339 181.92C141.659 181.291 142.107 180.8 142.683 180.448C143.259 180.096 143.915 179.92 144.651 179.92C145.387 179.92 146.043 180.096 146.619 180.448C147.195 180.8 147.643 181.291 147.963 181.92C148.283 182.539 148.443 183.253 148.443 184.064C148.443 184.875 148.283 185.595 147.963 186.224C147.643 186.843 147.195 187.328 146.619 187.68C146.043 188.032 145.387 188.208 144.651 188.208ZM144.651 187.328C145.472 187.328 146.128 187.029 146.619 186.432C147.11 185.824 147.355 185.035 147.355 184.064C147.355 183.093 147.11 182.309 146.619 181.712C146.128 181.104 145.472 180.8 144.651 180.8C143.83 180.8 143.174 181.104 142.683 181.712C142.192 182.309 141.947 183.093 141.947 184.064C141.947 185.035 142.192 185.824 142.683 186.432C143.174 187.029 143.83 187.328 144.651 187.328ZM158.953 180.384C158.995 180.203 159.118 180.112 159.321 180.112H159.753C159.87 180.112 159.95 180.144 159.993 180.208C160.046 180.272 160.057 180.357 160.025 180.464L157.961 187.728C157.918 187.909 157.795 188 157.593 188H156.873C156.691 188 156.574 187.909 156.521 187.728L155.785 185.28C155.401 184 155.043 182.688 154.713 181.344C154.393 182.645 154.041 183.968 153.657 185.312L152.953 187.728C152.91 187.909 152.787 188 152.585 188H151.897C151.694 188 151.571 187.909 151.529 187.728L149.465 180.464C149.454 180.443 149.449 180.405 149.449 180.352C149.449 180.277 149.475 180.219 149.529 180.176C149.582 180.133 149.651 180.112 149.737 180.112H150.169C150.371 180.112 150.494 180.203 150.537 180.384L151.305 183.216C151.657 184.507 151.982 185.792 152.281 187.072C152.515 186.123 152.862 184.837 153.321 183.216L154.137 180.384C154.179 180.203 154.302 180.112 154.505 180.112H154.985C155.177 180.112 155.294 180.203 155.337 180.384L156.169 183.216C156.531 184.528 156.873 185.819 157.193 187.088C157.438 186.021 157.769 184.731 158.185 183.216L158.953 180.384Z" fill="#464646"/>
<rect x="104" y="90" width="40" height="24" rx="4" fill="#CDFEE5"/>
<rect x="104.5" y="130.5" width="39" height="23" rx="3.5" stroke="#2EE69F"/>
<path d="M89.392 70C89.072 70 88.8587 69.8507 88.752 69.552L88 67.392H82.976L82.224 69.552C82.1173 69.8507 81.904 70 81.584 70H80.912C80.752 70 80.624 69.968 80.528 69.904C80.4427 69.8293 80.4 69.728 80.4 69.6C80.4 69.536 80.416 69.456 80.448 69.36L84.16 59.088C84.2667 58.7893 84.48 58.64 84.8 58.64H86.224C86.544 58.64 86.7573 58.7893 86.864 59.088L90.576 69.36C90.608 69.456 90.624 69.536 90.624 69.6C90.624 69.728 90.576 69.8293 90.48 69.904C90.3947 69.968 90.272 70 90.112 70H89.392ZM87.488 65.872L86.992 64.464C86.9813 64.4427 86.864 64.1067 86.64 63.456C86.0747 61.856 85.6907 60.7147 85.488 60.032C85.1787 61.0133 84.768 62.2293 84.256 63.68L83.984 64.48L83.504 65.872H87.488ZM96.1993 61.904C96.8713 61.904 97.4686 62.0747 97.9913 62.416C98.5246 62.7573 98.9406 63.2427 99.2393 63.872C99.5379 64.5013 99.6873 65.2267 99.6873 66.048C99.6873 66.88 99.5379 67.6107 99.2393 68.24C98.9406 68.8693 98.5246 69.3547 97.9913 69.696C97.4579 70.0373 96.8606 70.208 96.1993 70.208C95.0899 70.208 94.2579 69.824 93.7033 69.056V72.272C93.7033 72.4533 93.6553 72.592 93.5593 72.688C93.4633 72.784 93.3246 72.832 93.1432 72.832H92.5673C92.3966 72.832 92.2579 72.784 92.1513 72.688C92.0553 72.592 92.0073 72.4533 92.0073 72.272V62.672C92.0073 62.4907 92.0553 62.352 92.1513 62.256C92.2579 62.16 92.3966 62.112 92.5673 62.112H93.0312C93.2126 62.112 93.3513 62.16 93.4473 62.256C93.5433 62.352 93.5913 62.4907 93.5913 62.672V63.264C94.1566 62.3573 95.0259 61.904 96.1993 61.904ZM95.8473 68.736C96.4873 68.736 96.9993 68.496 97.3833 68.016C97.7673 67.5253 97.9593 66.8693 97.9593 66.048C97.9593 65.2373 97.7673 64.5867 97.3833 64.096C97.0099 63.6053 96.5033 63.36 95.8633 63.36C95.2126 63.36 94.6793 63.6 94.2633 64.08C93.8473 64.56 93.6393 65.216 93.6393 66.048C93.6393 66.88 93.8473 67.536 94.2633 68.016C94.6793 68.496 95.2073 68.736 95.8473 68.736ZM105.418 61.904C106.09 61.904 106.687 62.0747 107.21 62.416C107.743 62.7573 108.159 63.2427 108.458 63.872C108.757 64.5013 108.906 65.2267 108.906 66.048C108.906 66.88 108.757 67.6107 108.458 68.24C108.159 68.8693 107.743 69.3547 107.21 69.696C106.677 70.0373 106.079 70.208 105.418 70.208C104.309 70.208 103.477 69.824 102.922 69.056V72.272C102.922 72.4533 102.874 72.592 102.778 72.688C102.682 72.784 102.543 72.832 102.362 72.832H101.786C101.615 72.832 101.477 72.784 101.37 72.688C101.274 72.592 101.226 72.4533 101.226 72.272V62.672C101.226 62.4907 101.274 62.352 101.37 62.256C101.477 62.16 101.615 62.112 101.786 62.112H102.25C102.431 62.112 102.57 62.16 102.666 62.256C102.762 62.352 102.81 62.4907 102.81 62.672V63.264C103.375 62.3573 104.245 61.904 105.418 61.904ZM105.066 68.736C105.706 68.736 106.218 68.496 106.602 68.016C106.986 67.5253 107.178 66.8693 107.178 66.048C107.178 65.2373 106.986 64.5867 106.602 64.096C106.229 63.6053 105.722 63.36 105.082 63.36C104.431 63.36 103.898 63.6 103.482 64.08C103.066 64.56 102.858 65.216 102.858 66.048C102.858 66.88 103.066 67.536 103.482 68.016C103.898 68.496 104.426 68.736 105.066 68.736ZM116.187 67.984C116.325 67.8667 116.459 67.808 116.587 67.808C116.715 67.808 116.848 67.8773 116.987 68.016L117.211 68.256C117.328 68.3947 117.387 68.528 117.387 68.656C117.387 68.7947 117.317 68.928 117.179 69.056C116.688 69.4827 116.197 69.7867 115.707 69.968C115.227 70.1493 114.693 70.24 114.107 70.24C113.285 70.24 112.571 70.0693 111.963 69.728C111.365 69.3867 110.901 68.9067 110.571 68.288C110.251 67.6587 110.09 66.9333 110.09 66.112C110.09 65.3013 110.245 64.576 110.555 63.936C110.875 63.2853 111.323 62.7787 111.899 62.416C112.485 62.0533 113.168 61.872 113.947 61.872C115.109 61.872 116.005 62.2187 116.635 62.912C117.264 63.5947 117.579 64.5387 117.579 65.744V65.888C117.568 66.0587 117.515 66.192 117.419 66.288C117.323 66.384 117.184 66.432 117.003 66.432H111.755C111.819 67.136 112.048 67.712 112.443 68.16C112.848 68.5973 113.413 68.816 114.139 68.816C114.533 68.816 114.88 68.7573 115.179 68.64C115.477 68.512 115.813 68.2933 116.187 67.984ZM113.915 63.216C113.328 63.216 112.853 63.392 112.491 63.744C112.139 64.0853 111.909 64.5707 111.803 65.2H115.915C115.872 64.5813 115.68 64.096 115.339 63.744C114.997 63.392 114.523 63.216 113.915 63.216ZM122.351 61.872C123.418 61.872 124.239 62.1227 124.815 62.624C125.391 63.1147 125.679 63.7707 125.679 64.592V69.44C125.679 69.6107 125.631 69.7493 125.535 69.856C125.439 69.952 125.3 70 125.119 70H124.703C124.532 70 124.394 69.952 124.287 69.856C124.191 69.7493 124.143 69.6107 124.143 69.44V69.088C123.887 69.4613 123.535 69.7493 123.087 69.952C122.639 70.1547 122.116 70.256 121.519 70.256C120.698 70.256 120.02 70.0747 119.487 69.712C118.964 69.3387 118.703 68.7787 118.703 68.032C118.703 67.2 119.012 66.5867 119.631 66.192C120.26 65.7867 121.13 65.4827 122.239 65.28L124.047 64.944V64.656C124.047 64.2187 123.892 63.8827 123.583 63.648C123.284 63.4027 122.884 63.28 122.383 63.28C121.956 63.28 121.583 63.3547 121.263 63.504C120.954 63.6427 120.618 63.8773 120.255 64.208C120.116 64.3253 119.983 64.384 119.855 64.384C119.727 64.384 119.594 64.3253 119.455 64.208L119.199 63.984C119.06 63.856 118.991 63.7173 118.991 63.568C118.991 63.4293 119.055 63.296 119.183 63.168C119.642 62.7307 120.127 62.4053 120.639 62.192C121.151 61.9787 121.722 61.872 122.351 61.872ZM121.759 68.896C122.399 68.896 122.938 68.7253 123.375 68.384C123.823 68.0427 124.047 67.552 124.047 66.912V66.176L122.655 66.464C121.876 66.624 121.3 66.8053 120.927 67.008C120.554 67.2107 120.367 67.52 120.367 67.936C120.367 68.2347 120.49 68.4693 120.735 68.64C120.98 68.8107 121.322 68.896 121.759 68.896ZM131.169 62.032C131.403 62.032 131.643 62.0587 131.889 62.112C132.177 62.176 132.321 62.3467 132.321 62.624C132.321 62.6987 132.315 62.752 132.305 62.784L132.225 63.168C132.161 63.4667 132.001 63.616 131.745 63.616L131.601 63.6C131.409 63.568 131.238 63.552 131.089 63.552C130.555 63.552 130.123 63.7653 129.793 64.192C129.473 64.608 129.313 65.1893 129.313 65.936V69.44C129.313 69.6107 129.265 69.7493 129.169 69.856C129.073 69.952 128.934 70 128.753 70H128.177C128.006 70 127.867 69.952 127.761 69.856C127.665 69.7493 127.617 69.6107 127.617 69.44V62.672C127.617 62.4907 127.665 62.352 127.761 62.256C127.867 62.16 128.006 62.112 128.177 62.112H128.641C128.822 62.112 128.961 62.16 129.057 62.256C129.153 62.352 129.201 62.4907 129.201 62.672V63.296C129.393 62.9013 129.654 62.592 129.985 62.368C130.315 62.144 130.71 62.032 131.169 62.032ZM136.71 61.872C137.777 61.872 138.598 62.1227 139.174 62.624C139.75 63.1147 140.038 63.7707 140.038 64.592V69.44C140.038 69.6107 139.99 69.7493 139.894 69.856C139.798 69.952 139.66 70 139.478 70H139.062C138.892 70 138.753 69.952 138.646 69.856C138.55 69.7493 138.502 69.6107 138.502 69.44V69.088C138.246 69.4613 137.894 69.7493 137.446 69.952C136.998 70.1547 136.476 70.256 135.878 70.256C135.057 70.256 134.38 70.0747 133.846 69.712C133.324 69.3387 133.062 68.7787 133.062 68.032C133.062 67.2 133.372 66.5867 133.99 66.192C134.62 65.7867 135.489 65.4827 136.598 65.28L138.406 64.944V64.656C138.406 64.2187 138.252 63.8827 137.942 63.648C137.644 63.4027 137.244 63.28 136.742 63.28C136.316 63.28 135.942 63.3547 135.622 63.504C135.313 63.6427 134.977 63.8773 134.614 64.208C134.476 64.3253 134.342 64.384 134.214 64.384C134.086 64.384 133.953 64.3253 133.814 64.208L133.558 63.984C133.42 63.856 133.35 63.7173 133.35 63.568C133.35 63.4293 133.414 63.296 133.542 63.168C134.001 62.7307 134.486 62.4053 134.998 62.192C135.51 61.9787 136.081 61.872 136.71 61.872ZM136.118 68.896C136.758 68.896 137.297 68.7253 137.734 68.384C138.182 68.0427 138.406 67.552 138.406 66.912V66.176L137.014 66.464C136.236 66.624 135.66 66.8053 135.286 67.008C134.913 67.2107 134.726 67.52 134.726 67.936C134.726 68.2347 134.849 68.4693 135.094 68.64C135.34 68.8107 135.681 68.896 136.118 68.896ZM145.992 61.872C146.899 61.872 147.592 62.128 148.072 62.64C148.563 63.1413 148.808 63.792 148.808 64.592V69.44C148.808 69.6107 148.76 69.7493 148.664 69.856C148.568 69.952 148.429 70 148.248 70H147.672C147.501 70 147.363 69.952 147.256 69.856C147.16 69.7493 147.112 69.6107 147.112 69.44V65.12C147.112 64.544 146.968 64.1013 146.68 63.792C146.403 63.4827 146.003 63.328 145.48 63.328C144.968 63.328 144.536 63.504 144.184 63.856C143.843 64.208 143.672 64.6507 143.672 65.184V69.44C143.672 69.6107 143.624 69.7493 143.528 69.856C143.432 69.952 143.293 70 143.112 70H142.536C142.365 70 142.227 69.952 142.12 69.856C142.024 69.7493 141.976 69.6107 141.976 69.44V62.672C141.976 62.4907 142.024 62.352 142.12 62.256C142.227 62.16 142.365 62.112 142.536 62.112H143C143.181 62.112 143.32 62.16 143.416 62.256C143.512 62.352 143.56 62.4907 143.56 62.672V63.088C143.816 62.6933 144.152 62.3947 144.568 62.192C144.984 61.9787 145.459 61.872 145.992 61.872ZM154.229 70.24C153.451 70.24 152.763 70.0693 152.165 69.728C151.579 69.3867 151.12 68.9013 150.789 68.272C150.469 67.632 150.309 66.8907 150.309 66.048C150.309 65.2053 150.475 64.4693 150.805 63.84C151.136 63.2107 151.6 62.7253 152.197 62.384C152.795 62.0427 153.483 61.872 154.261 61.872C154.827 61.872 155.333 61.9573 155.781 62.128C156.24 62.288 156.677 62.5653 157.093 62.96C157.221 63.088 157.285 63.2213 157.285 63.36C157.285 63.488 157.216 63.6213 157.077 63.76L156.805 64.032C156.688 64.1493 156.56 64.208 156.421 64.208C156.283 64.208 156.139 64.144 155.989 64.016C155.68 63.7493 155.387 63.568 155.109 63.472C154.843 63.3653 154.555 63.312 154.245 63.312C153.541 63.312 152.997 63.5733 152.613 64.096C152.229 64.6187 152.037 65.2693 152.037 66.048C152.037 66.8267 152.229 67.4827 152.613 68.016C152.997 68.5387 153.541 68.8 154.245 68.8C154.587 68.8 154.901 68.736 155.189 68.608C155.477 68.4693 155.787 68.24 156.117 67.92C156.256 67.7813 156.4 67.712 156.549 67.712C156.677 67.712 156.8 67.7653 156.917 67.872L157.189 68.096C157.328 68.2133 157.397 68.3467 157.397 68.496C157.397 68.656 157.317 68.8267 157.157 69.008C156.72 69.456 156.267 69.776 155.797 69.968C155.339 70.1493 154.816 70.24 154.229 70.24ZM164.296 67.984C164.435 67.8667 164.568 67.808 164.696 67.808C164.824 67.808 164.957 67.8773 165.096 68.016L165.32 68.256C165.437 68.3947 165.496 68.528 165.496 68.656C165.496 68.7947 165.427 68.928 165.288 69.056C164.797 69.4827 164.307 69.7867 163.816 69.968C163.336 70.1493 162.803 70.24 162.216 70.24C161.395 70.24 160.68 70.0693 160.072 69.728C159.475 69.3867 159.011 68.9067 158.68 68.288C158.36 67.6587 158.2 66.9333 158.2 66.112C158.2 65.3013 158.355 64.576 158.664 63.936C158.984 63.2853 159.432 62.7787 160.008 62.416C160.595 62.0533 161.277 61.872 162.056 61.872C163.219 61.872 164.115 62.2187 164.744 62.912C165.373 63.5947 165.688 64.5387 165.688 65.744V65.888C165.677 66.0587 165.624 66.192 165.528 66.288C165.432 66.384 165.293 66.432 165.112 66.432H159.864C159.928 67.136 160.157 67.712 160.552 68.16C160.957 68.5973 161.523 68.816 162.248 68.816C162.643 68.816 162.989 68.7573 163.288 68.64C163.587 68.512 163.923 68.2933 164.296 67.984ZM162.024 63.216C161.437 63.216 160.963 63.392 160.6 63.744C160.248 64.0853 160.019 64.5707 159.912 65.2H164.024C163.981 64.5813 163.789 64.096 163.448 63.744C163.107 63.392 162.632 63.216 162.024 63.216Z" fill="#464646"/>
<path d="M152.696 107C152.483 107 152.376 106.893 152.376 106.68V95.96C152.376 95.7467 152.483 95.64 152.696 95.64H159.416C159.629 95.64 159.736 95.7467 159.736 95.96V96.264C159.736 96.4773 159.629 96.584 159.416 96.584H153.512V100.904H158.92C159.133 100.904 159.24 101.011 159.24 101.224V101.528C159.24 101.741 159.133 101.848 158.92 101.848H153.512V106.68C153.512 106.893 153.405 107 153.192 107H152.696ZM162.103 97.112C161.889 97.112 161.708 97.0373 161.559 96.888C161.42 96.7387 161.351 96.5573 161.351 96.344C161.351 96.1307 161.42 95.9547 161.559 95.816C161.708 95.6773 161.889 95.608 162.103 95.608C162.327 95.608 162.508 95.6773 162.647 95.816C162.796 95.9547 162.871 96.1307 162.871 96.344C162.871 96.5573 162.796 96.7387 162.647 96.888C162.508 97.0373 162.327 97.112 162.103 97.112ZM161.895 107C161.681 107 161.575 106.893 161.575 106.68V99.432C161.575 99.2187 161.681 99.112 161.895 99.112H162.311C162.524 99.112 162.631 99.2187 162.631 99.432V106.68C162.631 106.893 162.524 107 162.311 107H161.895ZM165.317 107C165.104 107 164.997 106.893 164.997 106.68V95.96C164.997 95.7467 165.104 95.64 165.317 95.64H165.733C165.946 95.64 166.053 95.7467 166.053 95.96V106.68C166.053 106.893 165.946 107 165.733 107H165.317ZM168.77 107C168.557 107 168.45 106.893 168.45 106.68V95.96C168.45 95.7467 168.557 95.64 168.77 95.64H169.186C169.399 95.64 169.506 95.7467 169.506 95.96V106.68C169.506 106.893 169.399 107 169.186 107H168.77Z" fill="#464646"/>
<path d="M158.712 140.984C159.373 141.187 159.896 141.528 160.28 142.008C160.675 142.488 160.872 143.091 160.872 143.816C160.872 144.787 160.557 145.56 159.928 146.136C159.299 146.712 158.456 147 157.4 147H152.696C152.483 147 152.376 146.893 152.376 146.68V135.96C152.376 135.747 152.483 135.64 152.696 135.64H157.208C158.189 135.64 158.979 135.885 159.576 136.376C160.173 136.867 160.472 137.576 160.472 138.504C160.472 139.123 160.312 139.645 159.992 140.072C159.683 140.499 159.256 140.803 158.712 140.984ZM153.512 140.568H157.016C157.752 140.568 158.328 140.392 158.744 140.04C159.16 139.677 159.368 139.171 159.368 138.52C159.368 137.901 159.16 137.427 158.744 137.096C158.339 136.755 157.763 136.584 157.016 136.584H153.512V140.568ZM157.096 146.056C157.96 146.056 158.616 145.853 159.064 145.448C159.523 145.043 159.752 144.493 159.752 143.8C159.752 143.096 159.517 142.536 159.048 142.12C158.589 141.704 157.944 141.496 157.112 141.496H153.512V146.056H157.096ZM166.182 147.208C165.446 147.208 164.79 147.032 164.214 146.68C163.638 146.328 163.19 145.843 162.87 145.224C162.55 144.595 162.39 143.875 162.39 143.064C162.39 142.253 162.55 141.539 162.87 140.92C163.19 140.291 163.638 139.8 164.214 139.448C164.79 139.096 165.446 138.92 166.182 138.92C166.918 138.92 167.574 139.096 168.15 139.448C168.726 139.8 169.174 140.291 169.494 140.92C169.814 141.539 169.974 142.253 169.974 143.064C169.974 143.875 169.814 144.595 169.494 145.224C169.174 145.843 168.726 146.328 168.15 146.68C167.574 147.032 166.918 147.208 166.182 147.208ZM166.182 146.328C167.004 146.328 167.66 146.029 168.15 145.432C168.641 144.824 168.886 144.035 168.886 143.064C168.886 142.093 168.641 141.309 168.15 140.712C167.66 140.104 167.004 139.8 166.182 139.8C165.361 139.8 164.705 140.104 164.214 140.712C163.724 141.309 163.478 142.093 163.478 143.064C163.478 144.035 163.724 144.824 164.214 145.432C164.705 146.029 165.361 146.328 166.182 146.328ZM174.753 139.048C175.02 139.048 175.334 139.091 175.697 139.176C175.889 139.24 175.964 139.373 175.921 139.576L175.857 139.832C175.804 140.035 175.67 140.109 175.457 140.056C175.201 139.992 174.966 139.96 174.753 139.96C174.209 139.96 173.756 140.195 173.393 140.664C173.041 141.133 172.865 141.784 172.865 142.616V146.68C172.865 146.893 172.758 147 172.545 147H172.129C171.916 147 171.809 146.893 171.809 146.68V139.432C171.809 139.219 171.916 139.112 172.129 139.112H172.481C172.694 139.112 172.801 139.219 172.801 139.432V140.312C172.982 139.917 173.238 139.608 173.569 139.384C173.91 139.16 174.305 139.048 174.753 139.048ZM182.614 135.96C182.614 135.747 182.721 135.64 182.934 135.64H183.35C183.564 135.64 183.67 135.747 183.67 135.96V146.68C183.67 146.893 183.564 147 183.35 147H183.014C182.801 147 182.694 146.893 182.694 146.68V145.64C182.406 146.141 182.028 146.525 181.558 146.792C181.089 147.059 180.534 147.192 179.894 147.192C179.222 147.192 178.625 147.021 178.102 146.68C177.58 146.328 177.169 145.843 176.87 145.224C176.572 144.595 176.422 143.875 176.422 143.064C176.422 142.253 176.572 141.539 176.87 140.92C177.18 140.291 177.601 139.805 178.134 139.464C178.668 139.112 179.265 138.936 179.926 138.936C181.142 138.936 182.038 139.389 182.614 140.296V135.96ZM179.974 146.296C180.774 146.296 181.42 146.013 181.91 145.448C182.412 144.872 182.662 144.077 182.662 143.064C182.662 142.061 182.412 141.272 181.91 140.696C181.42 140.12 180.774 139.832 179.974 139.832C179.238 139.832 178.641 140.131 178.182 140.728C177.734 141.325 177.51 142.104 177.51 143.064C177.51 144.035 177.734 144.819 178.182 145.416C178.63 146.003 179.228 146.296 179.974 146.296ZM191.787 145.128C191.862 145.053 191.942 145.016 192.027 145.016C192.102 145.016 192.171 145.048 192.235 145.112L192.443 145.304C192.518 145.379 192.555 145.459 192.555 145.544C192.555 145.608 192.523 145.683 192.459 145.768C191.937 146.291 191.43 146.664 190.939 146.888C190.449 147.101 189.899 147.208 189.291 147.208C188.523 147.208 187.857 147.037 187.291 146.696C186.726 146.355 186.289 145.88 185.979 145.272C185.67 144.653 185.515 143.939 185.515 143.128C185.515 142.307 185.665 141.581 185.963 140.952C186.273 140.312 186.705 139.816 187.259 139.464C187.814 139.101 188.454 138.92 189.179 138.92C190.257 138.92 191.105 139.256 191.723 139.928C192.342 140.6 192.651 141.507 192.651 142.648V142.84C192.641 142.936 192.603 143.011 192.539 143.064C192.486 143.117 192.411 143.144 192.315 143.144H186.587C186.619 144.04 186.854 144.797 187.291 145.416C187.739 146.024 188.406 146.328 189.291 146.328C189.771 146.328 190.193 146.243 190.555 146.072C190.929 145.891 191.339 145.576 191.787 145.128ZM189.179 139.8C188.475 139.8 187.894 140.019 187.435 140.456C186.987 140.883 186.715 141.512 186.619 142.344H191.595C191.574 141.565 191.35 140.947 190.923 140.488C190.497 140.029 189.915 139.8 189.179 139.8ZM197.487 139.048C197.754 139.048 198.069 139.091 198.431 139.176C198.623 139.24 198.698 139.373 198.655 139.576L198.591 139.832C198.538 140.035 198.405 140.109 198.191 140.056C197.935 139.992 197.701 139.96 197.487 139.96C196.943 139.96 196.49 140.195 196.127 140.664C195.775 141.133 195.599 141.784 195.599 142.616V146.68C195.599 146.893 195.493 147 195.279 147H194.863C194.65 147 194.543 146.893 194.543 146.68V139.432C194.543 139.219 194.65 139.112 194.863 139.112H195.215C195.429 139.112 195.535 139.219 195.535 139.432V140.312C195.717 139.917 195.973 139.608 196.303 139.384C196.645 139.16 197.039 139.048 197.487 139.048Z" fill="#464646"/>
<rect x="64.5" y="40.5" width="215" height="169" rx="7.5" stroke="#C3CCD9"/>
</svg>
