<svg width="344" height="218" viewBox="0 0 344 218" fill="none" xmlns="http://www.w3.org/2000/svg">
<rect width="344" height="218" fill="#F5F5F5"/>
<rect x="84.5" y="82.5" width="15" height="15" rx="1.5" fill="#0063FB" stroke="#0063FB"/>
<path d="M91.2264 91.5671L94.9035 87.1679C95.1789 86.8383 95.6694 86.7945 95.999 87.0699C96.3286 87.3454 96.3725 87.8359 96.097 88.1655L91.8713 93.2211C91.5771 93.573 91.0438 93.5953 90.7213 93.269L88.3359 90.8555C88.034 90.55 88.0368 90.0575 88.3424 89.7556C88.6479 89.4536 89.1403 89.4565 89.4423 89.762L91.2264 91.5671Z" fill="white"/>
<path d="M117.648 95.616C117.691 95.6693 117.712 95.728 117.712 95.792C117.712 95.9307 117.621 96 117.44 96H116.848C116.688 96 116.56 95.9307 116.464 95.792L113.424 91.28H110.512V95.68C110.512 95.8933 110.405 96 110.192 96H109.696C109.483 96 109.376 95.8933 109.376 95.68V84.96C109.376 84.7467 109.483 84.64 109.696 84.64H113.872C114.96 84.64 115.84 84.9333 116.512 85.52C117.184 86.096 117.52 86.9067 117.52 87.952C117.52 88.8693 117.259 89.6107 116.736 90.176C116.224 90.7413 115.531 91.088 114.656 91.216L117.648 95.616ZM110.512 90.336H113.696C114.539 90.336 115.2 90.1333 115.68 89.728C116.16 89.3227 116.4 88.7307 116.4 87.952C116.4 87.184 116.155 86.5973 115.664 86.192C115.184 85.7867 114.523 85.584 113.68 85.584H110.512V90.336ZM125.162 94.128C125.237 94.0533 125.317 94.016 125.402 94.016C125.477 94.016 125.546 94.048 125.61 94.112L125.818 94.304C125.893 94.3787 125.93 94.4587 125.93 94.544C125.93 94.608 125.898 94.6827 125.834 94.768C125.312 95.2907 124.805 95.664 124.314 95.888C123.824 96.1013 123.274 96.208 122.666 96.208C121.898 96.208 121.232 96.0373 120.666 95.696C120.101 95.3547 119.664 94.88 119.354 94.272C119.045 93.6533 118.89 92.9387 118.89 92.128C118.89 91.3067 119.04 90.5813 119.338 89.952C119.648 89.312 120.08 88.816 120.634 88.464C121.189 88.1013 121.829 87.92 122.554 87.92C123.632 87.92 124.48 88.256 125.098 88.928C125.717 89.6 126.026 90.5067 126.026 91.648V91.84C126.016 91.936 125.978 92.0107 125.914 92.064C125.861 92.1173 125.786 92.144 125.69 92.144H119.962C119.994 93.04 120.229 93.7973 120.666 94.416C121.114 95.024 121.781 95.328 122.666 95.328C123.146 95.328 123.568 95.2427 123.93 95.072C124.304 94.8907 124.714 94.576 125.162 94.128ZM122.554 88.8C121.85 88.8 121.269 89.0187 120.81 89.456C120.362 89.8827 120.09 90.512 119.994 91.344H124.97C124.949 90.5653 124.725 89.9467 124.298 89.488C123.872 89.0293 123.29 88.8 122.554 88.8ZM130.818 87.92C131.788 87.92 132.546 88.1547 133.09 88.624C133.634 89.0827 133.906 89.6907 133.906 90.448V95.68C133.906 95.8933 133.799 96 133.586 96H133.266C133.052 96 132.946 95.8933 132.946 95.68V94.96C132.679 95.3867 132.3 95.7067 131.81 95.92C131.33 96.1333 130.791 96.24 130.194 96.24C129.362 96.24 128.684 96.064 128.162 95.712C127.639 95.36 127.378 94.816 127.378 94.08C127.378 93.4933 127.543 93.024 127.874 92.672C128.204 92.3093 128.636 92.0373 129.17 91.856C129.703 91.664 130.37 91.4933 131.17 91.344L132.898 91.04V90.528C132.898 89.984 132.711 89.5627 132.338 89.264C131.964 88.9547 131.474 88.8 130.866 88.8C130.407 88.8 129.991 88.8853 129.618 89.056C129.244 89.2267 128.844 89.52 128.418 89.936C128.343 90.0107 128.263 90.048 128.178 90.048C128.103 90.048 128.034 90.016 127.97 89.952L127.762 89.76C127.687 89.6853 127.65 89.6053 127.65 89.52C127.65 89.424 127.687 89.3387 127.762 89.264C128.21 88.7947 128.679 88.4533 129.17 88.24C129.671 88.0267 130.22 87.92 130.818 87.92ZM130.242 95.36C131.01 95.36 131.644 95.1573 132.146 94.752C132.647 94.3467 132.898 93.8293 132.898 93.2V91.856L131.41 92.144C130.716 92.2827 130.167 92.416 129.762 92.544C129.356 92.672 129.031 92.8587 128.786 93.104C128.54 93.3493 128.418 93.6693 128.418 94.064C128.418 94.4693 128.578 94.7893 128.898 95.024C129.228 95.248 129.676 95.36 130.242 95.36ZM141.943 84.96C141.943 84.7467 142.049 84.64 142.263 84.64H142.679C142.892 84.64 142.999 84.7467 142.999 84.96V95.68C142.999 95.8933 142.892 96 142.679 96H142.343C142.129 96 142.023 95.8933 142.023 95.68V94.64C141.735 95.1413 141.356 95.5253 140.887 95.792C140.417 96.0587 139.863 96.192 139.223 96.192C138.551 96.192 137.953 96.0213 137.431 95.68C136.908 95.328 136.497 94.8427 136.199 94.224C135.9 93.5947 135.751 92.8747 135.751 92.064C135.751 91.2533 135.9 90.5387 136.199 89.92C136.508 89.2907 136.929 88.8053 137.463 88.464C137.996 88.112 138.593 87.936 139.255 87.936C140.471 87.936 141.367 88.3893 141.943 89.296V84.96ZM139.303 95.296C140.103 95.296 140.748 95.0133 141.239 94.448C141.74 93.872 141.991 93.0773 141.991 92.064C141.991 91.0613 141.74 90.272 141.239 89.696C140.748 89.12 140.103 88.832 139.303 88.832C138.567 88.832 137.969 89.1307 137.511 89.728C137.063 90.3253 136.839 91.104 136.839 92.064C136.839 93.0347 137.063 93.8187 137.511 94.416C137.959 95.0027 138.556 95.296 139.303 95.296ZM145.9 86.112C145.686 86.112 145.505 86.0373 145.356 85.888C145.217 85.7387 145.148 85.5573 145.148 85.344C145.148 85.1307 145.217 84.9547 145.356 84.816C145.505 84.6773 145.686 84.608 145.9 84.608C146.124 84.608 146.305 84.6773 146.444 84.816C146.593 84.9547 146.668 85.1307 146.668 85.344C146.668 85.5573 146.593 85.7387 146.444 85.888C146.305 86.0373 146.124 86.112 145.9 86.112ZM145.692 96C145.478 96 145.372 95.8933 145.372 95.68V88.432C145.372 88.2187 145.478 88.112 145.692 88.112H146.108C146.321 88.112 146.428 88.2187 146.428 88.432V95.68C146.428 95.8933 146.321 96 146.108 96H145.692ZM152.298 87.92C153.226 87.92 153.924 88.176 154.394 88.688C154.874 89.2 155.114 89.84 155.114 90.608V95.68C155.114 95.8933 155.007 96 154.794 96H154.378C154.164 96 154.058 95.8933 154.058 95.68V90.96C154.058 90.256 153.887 89.7227 153.546 89.36C153.204 88.9973 152.714 88.816 152.074 88.816C151.668 88.816 151.295 88.9173 150.954 89.12C150.612 89.312 150.34 89.5787 150.138 89.92C149.935 90.2613 149.834 90.6347 149.834 91.04V95.68C149.834 95.8933 149.727 96 149.514 96H149.098C148.884 96 148.778 95.8933 148.778 95.68V88.432C148.778 88.2187 148.884 88.112 149.098 88.112H149.45C149.663 88.112 149.77 88.2187 149.77 88.432V89.2C150.036 88.7733 150.388 88.4533 150.826 88.24C151.263 88.0267 151.754 87.92 152.298 87.92ZM163.114 88.432C163.114 88.2187 163.22 88.112 163.434 88.112H163.77C163.983 88.112 164.09 88.2187 164.09 88.432V95.92C164.09 96.912 163.791 97.6907 163.194 98.256C162.596 98.832 161.759 99.12 160.682 99.12C159.519 99.12 158.447 98.7893 157.466 98.128C157.359 98.064 157.306 97.984 157.306 97.888C157.306 97.8133 157.327 97.7493 157.37 97.696L157.562 97.424C157.626 97.3173 157.711 97.264 157.818 97.264C157.86 97.264 157.924 97.2853 158.01 97.328C158.479 97.6267 158.916 97.8507 159.322 98C159.738 98.1493 160.191 98.224 160.682 98.224C161.386 98.224 161.956 98.0267 162.394 97.632C162.831 97.248 163.05 96.6507 163.05 95.84V94.56C162.474 95.488 161.599 95.952 160.426 95.952C159.743 95.952 159.14 95.7813 158.618 95.44C158.095 95.088 157.69 94.608 157.402 94C157.124 93.392 156.986 92.704 156.986 91.936C156.986 91.168 157.124 90.48 157.402 89.872C157.69 89.264 158.095 88.7893 158.618 88.448C159.14 88.096 159.743 87.92 160.426 87.92C161.044 87.92 161.578 88.0533 162.026 88.32C162.484 88.576 162.847 88.944 163.114 89.424V88.432ZM160.538 95.056C161.306 95.056 161.919 94.768 162.378 94.192C162.836 93.6053 163.066 92.8533 163.066 91.936C163.066 91.0187 162.836 90.272 162.378 89.696C161.919 89.1093 161.306 88.816 160.538 88.816C159.759 88.816 159.151 89.104 158.714 89.68C158.287 90.256 158.074 91.008 158.074 91.936C158.074 92.864 158.287 93.616 158.714 94.192C159.151 94.768 159.759 95.056 160.538 95.056Z" fill="#464646"/>
<rect x="84.5" y="120.5" width="15" height="15" rx="1.5" fill="#0063FB" stroke="#0063FB"/>
<path d="M91.2264 129.567L94.9035 125.168C95.1789 124.838 95.6694 124.794 95.999 125.07C96.3286 125.345 96.3725 125.836 96.097 126.166L91.8713 131.221C91.5771 131.573 91.0438 131.595 90.7213 131.269L88.3359 128.856C88.034 128.55 88.0368 128.058 88.3424 127.756C88.6479 127.454 89.1403 127.457 89.4423 127.762L91.2264 129.567Z" fill="white"/>
<path d="M118.304 122.896C118.368 122.725 118.491 122.64 118.672 122.64H119.92C120.133 122.64 120.24 122.747 120.24 122.96V133.68C120.24 133.893 120.133 134 119.92 134H119.456C119.243 134 119.136 133.893 119.136 133.68V128.368C119.136 127.227 119.147 125.579 119.168 123.424C118.731 124.672 118.133 126.32 117.376 128.368L115.408 133.744C115.344 133.915 115.221 134 115.04 134H114.576C114.395 134 114.272 133.915 114.208 133.744L112.192 128.352C111.765 127.243 111.173 125.6 110.416 123.424C110.437 125.579 110.448 127.232 110.448 128.384V133.68C110.448 133.893 110.341 134 110.128 134H109.696C109.483 134 109.376 133.893 109.376 133.68V122.96C109.376 122.747 109.483 122.64 109.696 122.64H110.928C111.109 122.64 111.232 122.725 111.296 122.896L113.12 127.808C113.963 130.101 114.528 131.717 114.816 132.656C115.083 131.76 115.541 130.421 116.192 128.64C116.235 128.523 116.283 128.395 116.336 128.256C116.389 128.117 116.443 127.968 116.496 127.808L118.304 122.896ZM127.913 126.432C127.913 126.219 128.02 126.112 128.233 126.112H128.649C128.863 126.112 128.969 126.219 128.969 126.432V133.68C128.969 133.893 128.863 134 128.649 134H128.313C128.1 134 127.993 133.893 127.993 133.68V132.96C127.759 133.376 127.423 133.691 126.985 133.904C126.559 134.107 126.089 134.208 125.577 134.208C124.617 134.208 123.908 133.968 123.449 133.488C122.991 132.997 122.761 132.368 122.761 131.6V126.432C122.761 126.219 122.868 126.112 123.081 126.112H123.497C123.711 126.112 123.817 126.219 123.817 126.432V131.376C123.817 132.005 123.972 132.485 124.281 132.816C124.601 133.136 125.055 133.296 125.641 133.296C126.303 133.296 126.847 133.093 127.273 132.688C127.7 132.283 127.913 131.707 127.913 130.96V126.432ZM134.092 134.208C133.442 134.208 132.866 134.117 132.364 133.936C131.874 133.744 131.356 133.424 130.812 132.976C130.716 132.912 130.668 132.837 130.668 132.752C130.668 132.677 130.706 132.603 130.78 132.528L130.988 132.304C131.052 132.219 131.132 132.176 131.228 132.176C131.303 132.176 131.372 132.208 131.436 132.272C131.948 132.667 132.402 132.944 132.796 133.104C133.191 133.253 133.623 133.328 134.092 133.328C134.679 133.328 135.159 133.2 135.532 132.944C135.906 132.677 136.092 132.32 136.092 131.872C136.092 131.424 135.9 131.093 135.516 130.88C135.132 130.667 134.54 130.475 133.74 130.304C133.036 130.155 132.482 130 132.076 129.84C131.682 129.669 131.388 129.456 131.196 129.2C131.004 128.944 130.908 128.608 130.908 128.192C130.908 127.509 131.186 126.96 131.74 126.544C132.295 126.128 132.994 125.92 133.836 125.92C134.412 125.92 134.924 125.995 135.372 126.144C135.831 126.283 136.29 126.517 136.748 126.848C136.844 126.923 136.892 127.003 136.892 127.088C136.892 127.141 136.866 127.211 136.812 127.296L136.62 127.536C136.567 127.621 136.492 127.664 136.396 127.664C136.311 127.664 136.236 127.637 136.172 127.584C135.735 127.275 135.346 127.067 135.004 126.96C134.674 126.853 134.295 126.8 133.868 126.8C133.282 126.8 132.812 126.928 132.46 127.184C132.108 127.44 131.932 127.765 131.932 128.16C131.932 128.405 132.012 128.603 132.172 128.752C132.332 128.901 132.562 129.029 132.86 129.136C133.159 129.232 133.596 129.344 134.172 129.472C135.239 129.707 135.996 129.995 136.444 130.336C136.903 130.677 137.132 131.173 137.132 131.824C137.132 132.539 136.85 133.115 136.284 133.552C135.719 133.989 134.988 134.208 134.092 134.208ZM139.446 124.112C139.233 124.112 139.052 124.037 138.902 123.888C138.764 123.739 138.694 123.557 138.694 123.344C138.694 123.131 138.764 122.955 138.902 122.816C139.052 122.677 139.233 122.608 139.446 122.608C139.67 122.608 139.852 122.677 139.99 122.816C140.14 122.955 140.214 123.131 140.214 123.344C140.214 123.557 140.14 123.739 139.99 123.888C139.852 124.037 139.67 124.112 139.446 124.112ZM139.238 134C139.025 134 138.918 133.893 138.918 133.68V126.432C138.918 126.219 139.025 126.112 139.238 126.112H139.654C139.868 126.112 139.974 126.219 139.974 126.432V133.68C139.974 133.893 139.868 134 139.654 134H139.238ZM145.525 134.208C144.767 134.208 144.106 134.037 143.541 133.696C142.986 133.344 142.554 132.859 142.245 132.24C141.946 131.611 141.797 130.885 141.797 130.064C141.797 129.253 141.946 128.533 142.245 127.904C142.554 127.275 142.986 126.789 143.541 126.448C144.106 126.096 144.757 125.92 145.493 125.92C146.09 125.92 146.613 126.021 147.061 126.224C147.509 126.416 147.941 126.736 148.357 127.184C148.421 127.248 148.453 127.317 148.453 127.392C148.453 127.488 148.41 127.568 148.325 127.632L148.101 127.84C148.037 127.904 147.962 127.936 147.877 127.936C147.802 127.936 147.722 127.893 147.637 127.808C147.263 127.435 146.906 127.173 146.565 127.024C146.234 126.875 145.866 126.8 145.461 126.8C144.906 126.8 144.431 126.955 144.037 127.264C143.653 127.573 143.365 127.979 143.173 128.48C142.981 128.971 142.885 129.499 142.885 130.064C142.885 130.629 142.981 131.163 143.173 131.664C143.365 132.155 143.658 132.555 144.053 132.864C144.447 133.163 144.933 133.312 145.509 133.312C145.935 133.312 146.309 133.237 146.629 133.088C146.959 132.928 147.327 132.629 147.733 132.192C147.818 132.107 147.898 132.064 147.973 132.064C148.058 132.064 148.133 132.096 148.197 132.16L148.421 132.336C148.495 132.4 148.533 132.475 148.533 132.56C148.533 132.645 148.485 132.747 148.389 132.864C147.941 133.355 147.493 133.701 147.045 133.904C146.597 134.107 146.09 134.208 145.525 134.208Z" fill="#464646"/>
<rect x="84.5" y="158.5" width="15" height="15" rx="1.5" fill="white" stroke="#767676"/>
<path d="M112.496 172C112.283 172 112.176 171.893 112.176 171.68V161.584H108.832C108.619 161.584 108.512 161.477 108.512 161.264V160.96C108.512 160.747 108.619 160.64 108.832 160.64H116.64C116.853 160.64 116.96 160.747 116.96 160.96V161.264C116.96 161.477 116.853 161.584 116.64 161.584H113.312V171.68C113.312 171.893 113.205 172 112.992 172H112.496ZM120.316 164.048C120.582 164.048 120.897 164.091 121.26 164.176C121.452 164.24 121.526 164.373 121.484 164.576L121.42 164.832C121.366 165.035 121.233 165.109 121.02 165.056C120.764 164.992 120.529 164.96 120.316 164.96C119.772 164.96 119.318 165.195 118.956 165.664C118.604 166.133 118.428 166.784 118.428 167.616V171.68C118.428 171.893 118.321 172 118.108 172H117.692C117.478 172 117.372 171.893 117.372 171.68V164.432C117.372 164.219 117.478 164.112 117.692 164.112H118.044C118.257 164.112 118.364 164.219 118.364 164.432V165.312C118.545 164.917 118.801 164.608 119.132 164.384C119.473 164.16 119.868 164.048 120.316 164.048ZM125.755 163.92C126.726 163.92 127.483 164.155 128.027 164.624C128.571 165.083 128.843 165.691 128.843 166.448V171.68C128.843 171.893 128.737 172 128.523 172H128.203C127.99 172 127.883 171.893 127.883 171.68V170.96C127.617 171.387 127.238 171.707 126.747 171.92C126.267 172.133 125.729 172.24 125.131 172.24C124.299 172.24 123.622 172.064 123.099 171.712C122.577 171.36 122.315 170.816 122.315 170.08C122.315 169.493 122.481 169.024 122.811 168.672C123.142 168.309 123.574 168.037 124.107 167.856C124.641 167.664 125.307 167.493 126.107 167.344L127.835 167.04V166.528C127.835 165.984 127.649 165.563 127.275 165.264C126.902 164.955 126.411 164.8 125.803 164.8C125.345 164.8 124.929 164.885 124.555 165.056C124.182 165.227 123.782 165.52 123.355 165.936C123.281 166.011 123.201 166.048 123.115 166.048C123.041 166.048 122.971 166.016 122.907 165.952L122.699 165.76C122.625 165.685 122.587 165.605 122.587 165.52C122.587 165.424 122.625 165.339 122.699 165.264C123.147 164.795 123.617 164.453 124.107 164.24C124.609 164.027 125.158 163.92 125.755 163.92ZM125.179 171.36C125.947 171.36 126.582 171.157 127.083 170.752C127.585 170.347 127.835 169.829 127.835 169.2V167.856L126.347 168.144C125.654 168.283 125.105 168.416 124.699 168.544C124.294 168.672 123.969 168.859 123.723 169.104C123.478 169.349 123.355 169.669 123.355 170.064C123.355 170.469 123.515 170.789 123.835 171.024C124.166 171.248 124.614 171.36 125.179 171.36ZM135.876 164.368C135.94 164.197 136.063 164.112 136.244 164.112H136.66C136.745 164.112 136.815 164.133 136.868 164.176C136.921 164.219 136.948 164.277 136.948 164.352L136.916 164.48L134.372 171.744C134.308 171.915 134.185 172 134.004 172H133.156C132.975 172 132.852 171.915 132.788 171.744L130.26 164.48L130.228 164.352C130.228 164.277 130.255 164.219 130.308 164.176C130.361 164.133 130.431 164.112 130.516 164.112H130.948C131.129 164.112 131.252 164.197 131.316 164.368L132.292 167.184C132.697 168.357 133.129 169.707 133.588 171.232C133.609 171.168 133.668 170.987 133.764 170.688C134.201 169.248 134.58 168.08 134.9 167.184L135.876 164.368ZM144.162 170.128C144.237 170.053 144.317 170.016 144.402 170.016C144.477 170.016 144.546 170.048 144.61 170.112L144.818 170.304C144.893 170.379 144.93 170.459 144.93 170.544C144.93 170.608 144.898 170.683 144.834 170.768C144.312 171.291 143.805 171.664 143.314 171.888C142.824 172.101 142.274 172.208 141.666 172.208C140.898 172.208 140.232 172.037 139.666 171.696C139.101 171.355 138.664 170.88 138.354 170.272C138.045 169.653 137.89 168.939 137.89 168.128C137.89 167.307 138.04 166.581 138.338 165.952C138.648 165.312 139.08 164.816 139.634 164.464C140.189 164.101 140.829 163.92 141.554 163.92C142.632 163.92 143.48 164.256 144.098 164.928C144.717 165.6 145.026 166.507 145.026 167.648V167.84C145.016 167.936 144.978 168.011 144.914 168.064C144.861 168.117 144.786 168.144 144.69 168.144H138.962C138.994 169.04 139.229 169.797 139.666 170.416C140.114 171.024 140.781 171.328 141.666 171.328C142.146 171.328 142.568 171.243 142.93 171.072C143.304 170.891 143.714 170.576 144.162 170.128ZM141.554 164.8C140.85 164.8 140.269 165.019 139.81 165.456C139.362 165.883 139.09 166.512 138.994 167.344H143.97C143.949 166.565 143.725 165.947 143.298 165.488C142.872 165.029 142.29 164.8 141.554 164.8ZM147.254 172C147.041 172 146.934 171.893 146.934 171.68V160.96C146.934 160.747 147.041 160.64 147.254 160.64H147.67C147.884 160.64 147.99 160.747 147.99 160.96V171.68C147.99 171.893 147.884 172 147.67 172H147.254Z" fill="#464646"/>
<path d="M81.904 56C81.7333 56 81.5947 55.952 81.488 55.856C81.392 55.7493 81.344 55.6107 81.344 55.44V45.2C81.344 45.0187 81.392 44.88 81.488 44.784C81.5947 44.688 81.7333 44.64 81.904 44.64H82.608C82.7893 44.64 82.928 44.688 83.024 44.784C83.12 44.88 83.168 45.0187 83.168 45.2V55.44C83.168 55.6107 83.12 55.7493 83.024 55.856C82.928 55.952 82.7893 56 82.608 56H81.904ZM89.5076 47.872C90.4143 47.872 91.1076 48.128 91.5876 48.64C92.0783 49.1413 92.3236 49.792 92.3236 50.592V55.44C92.3236 55.6107 92.2756 55.7493 92.1796 55.856C92.0836 55.952 91.945 56 91.7636 56H91.1876C91.017 56 90.8783 55.952 90.7716 55.856C90.6756 55.7493 90.6276 55.6107 90.6276 55.44V51.12C90.6276 50.544 90.4836 50.1013 90.1956 49.792C89.9183 49.4827 89.5183 49.328 88.9956 49.328C88.4836 49.328 88.0516 49.504 87.6996 49.856C87.3583 50.208 87.1876 50.6507 87.1876 51.184V55.44C87.1876 55.6107 87.1396 55.7493 87.0436 55.856C86.9476 55.952 86.809 56 86.6276 56H86.0516C85.881 56 85.7423 55.952 85.6356 55.856C85.5396 55.7493 85.4916 55.6107 85.4916 55.44V48.672C85.4916 48.4907 85.5396 48.352 85.6356 48.256C85.7423 48.16 85.881 48.112 86.0516 48.112H86.5156C86.697 48.112 86.8356 48.16 86.9316 48.256C87.0276 48.352 87.0756 48.4907 87.0756 48.672V49.088C87.3316 48.6933 87.6676 48.3947 88.0836 48.192C88.4996 47.9787 88.9743 47.872 89.5076 47.872ZM97.909 54.656C97.941 54.6453 97.989 54.64 98.053 54.64C98.3197 54.64 98.4797 54.7947 98.533 55.104L98.581 55.36C98.5917 55.392 98.597 55.4453 98.597 55.52C98.597 55.7867 98.4477 55.9573 98.149 56.032C97.7223 56.128 97.333 56.176 96.981 56.176C96.2237 56.176 95.6743 56 95.333 55.648C95.0023 55.296 94.837 54.768 94.837 54.064V49.408H93.957C93.7863 49.408 93.6477 49.36 93.541 49.264C93.445 49.1573 93.397 49.0187 93.397 48.848V48.672C93.397 48.4907 93.445 48.352 93.541 48.256C93.6477 48.16 93.7863 48.112 93.957 48.112H94.837V46.128C94.837 45.9467 94.885 45.808 94.981 45.712C95.0877 45.616 95.2263 45.568 95.397 45.568H95.973C96.1543 45.568 96.293 45.616 96.389 45.712C96.485 45.808 96.533 45.9467 96.533 46.128V48.112H97.973C98.1543 48.112 98.293 48.16 98.389 48.256C98.485 48.352 98.533 48.4907 98.533 48.672V48.848C98.533 49.0187 98.485 49.1573 98.389 49.264C98.293 49.36 98.1543 49.408 97.973 49.408H96.533V53.856C96.533 54.1653 96.597 54.384 96.725 54.512C96.8637 54.64 97.0823 54.704 97.381 54.704C97.509 54.704 97.685 54.688 97.909 54.656ZM105.327 53.984C105.466 53.8667 105.599 53.808 105.727 53.808C105.855 53.808 105.988 53.8773 106.127 54.016L106.351 54.256C106.468 54.3947 106.527 54.528 106.527 54.656C106.527 54.7947 106.458 54.928 106.319 55.056C105.828 55.4827 105.338 55.7867 104.847 55.968C104.367 56.1493 103.834 56.24 103.247 56.24C102.426 56.24 101.711 56.0693 101.103 55.728C100.506 55.3867 100.042 54.9067 99.7111 54.288C99.3911 53.6587 99.2311 52.9333 99.2311 52.112C99.2311 51.3013 99.3858 50.576 99.6951 49.936C100.015 49.2853 100.463 48.7787 101.039 48.416C101.626 48.0533 102.308 47.872 103.087 47.872C104.25 47.872 105.146 48.2187 105.775 48.912C106.404 49.5947 106.719 50.5387 106.719 51.744V51.888C106.708 52.0587 106.655 52.192 106.559 52.288C106.463 52.384 106.324 52.432 106.143 52.432H100.895C100.959 53.136 101.188 53.712 101.583 54.16C101.988 54.5973 102.554 54.816 103.279 54.816C103.674 54.816 104.02 54.7573 104.319 54.64C104.618 54.512 104.954 54.2933 105.327 53.984ZM103.055 49.216C102.468 49.216 101.994 49.392 101.631 49.744C101.279 50.0853 101.05 50.5707 100.943 51.2H105.055C105.012 50.5813 104.82 50.096 104.479 49.744C104.138 49.392 103.663 49.216 103.055 49.216ZM111.825 48.032C112.06 48.032 112.3 48.0587 112.545 48.112C112.833 48.176 112.977 48.3467 112.977 48.624C112.977 48.6987 112.972 48.752 112.961 48.784L112.881 49.168C112.817 49.4667 112.657 49.616 112.401 49.616L112.257 49.6C112.065 49.568 111.894 49.552 111.745 49.552C111.212 49.552 110.78 49.7653 110.449 50.192C110.129 50.608 109.969 51.1893 109.969 51.936V55.44C109.969 55.6107 109.921 55.7493 109.825 55.856C109.729 55.952 109.59 56 109.409 56H108.833C108.662 56 108.524 55.952 108.417 55.856C108.321 55.7493 108.273 55.6107 108.273 55.44V48.672C108.273 48.4907 108.321 48.352 108.417 48.256C108.524 48.16 108.662 48.112 108.833 48.112H109.297C109.478 48.112 109.617 48.16 109.713 48.256C109.809 48.352 109.857 48.4907 109.857 48.672V49.296C110.049 48.9013 110.31 48.592 110.641 48.368C110.972 48.144 111.366 48.032 111.825 48.032ZM119.483 53.984C119.622 53.8667 119.755 53.808 119.883 53.808C120.011 53.808 120.145 53.8773 120.283 54.016L120.507 54.256C120.625 54.3947 120.683 54.528 120.683 54.656C120.683 54.7947 120.614 54.928 120.475 55.056C119.985 55.4827 119.494 55.7867 119.003 55.968C118.523 56.1493 117.99 56.24 117.403 56.24C116.582 56.24 115.867 56.0693 115.259 55.728C114.662 55.3867 114.198 54.9067 113.867 54.288C113.547 53.6587 113.387 52.9333 113.387 52.112C113.387 51.3013 113.542 50.576 113.851 49.936C114.171 49.2853 114.619 48.7787 115.195 48.416C115.782 48.0533 116.465 47.872 117.243 47.872C118.406 47.872 119.302 48.2187 119.931 48.912C120.561 49.5947 120.875 50.5387 120.875 51.744V51.888C120.865 52.0587 120.811 52.192 120.715 52.288C120.619 52.384 120.481 52.432 120.299 52.432H115.051C115.115 53.136 115.345 53.712 115.739 54.16C116.145 54.5973 116.71 54.816 117.435 54.816C117.83 54.816 118.177 54.7573 118.475 54.64C118.774 54.512 119.11 54.2933 119.483 53.984ZM117.211 49.216C116.625 49.216 116.15 49.392 115.787 49.744C115.435 50.0853 115.206 50.5707 115.099 51.2H119.211C119.169 50.5813 118.977 50.096 118.635 49.744C118.294 49.392 117.819 49.216 117.211 49.216ZM125.5 56.24C124.85 56.24 124.268 56.16 123.756 56C123.255 55.8293 122.743 55.536 122.22 55.12C122.06 55.0027 121.98 54.8693 121.98 54.72C121.98 54.6027 122.039 54.4747 122.156 54.336L122.396 54.064C122.524 53.9147 122.663 53.84 122.812 53.84C122.93 53.84 123.058 53.8933 123.196 54C123.644 54.3307 124.039 54.56 124.38 54.688C124.722 54.8053 125.106 54.864 125.532 54.864C125.991 54.864 126.364 54.7733 126.652 54.592C126.951 54.4 127.1 54.144 127.1 53.824C127.1 53.5787 127.015 53.3867 126.844 53.248C126.684 53.0987 126.471 52.9867 126.204 52.912C125.938 52.8267 125.543 52.7307 125.02 52.624C124.284 52.464 123.708 52.2933 123.292 52.112C122.887 51.92 122.594 51.68 122.412 51.392C122.231 51.104 122.14 50.736 122.14 50.288C122.14 49.8293 122.268 49.4187 122.524 49.056C122.791 48.6933 123.159 48.4053 123.628 48.192C124.108 47.9787 124.668 47.872 125.308 47.872C125.884 47.872 126.396 47.936 126.844 48.064C127.303 48.192 127.751 48.4107 128.188 48.72C128.359 48.848 128.444 48.992 128.444 49.152C128.444 49.2587 128.391 49.3813 128.284 49.52L128.076 49.776C127.959 49.9253 127.815 50 127.644 50C127.516 50 127.394 49.9573 127.276 49.872C126.924 49.6373 126.599 49.4773 126.3 49.392C126.002 49.296 125.666 49.248 125.292 49.248C124.834 49.248 124.466 49.3387 124.188 49.52C123.911 49.7013 123.772 49.936 123.772 50.224C123.772 50.416 123.836 50.5707 123.964 50.688C124.103 50.7947 124.295 50.8907 124.54 50.976C124.796 51.0507 125.196 51.1467 125.74 51.264C126.476 51.424 127.058 51.6053 127.484 51.808C127.922 52 128.242 52.2507 128.444 52.56C128.658 52.8587 128.764 53.248 128.764 53.728C128.764 54.4747 128.466 55.0827 127.868 55.552C127.282 56.0107 126.492 56.24 125.5 56.24ZM134.003 54.656C134.035 54.6453 134.083 54.64 134.147 54.64C134.413 54.64 134.573 54.7947 134.627 55.104L134.675 55.36C134.685 55.392 134.691 55.4453 134.691 55.52C134.691 55.7867 134.541 55.9573 134.243 56.032C133.816 56.128 133.427 56.176 133.075 56.176C132.317 56.176 131.768 56 131.427 55.648C131.096 55.296 130.931 54.768 130.931 54.064V49.408H130.051C129.88 49.408 129.741 49.36 129.635 49.264C129.539 49.1573 129.491 49.0187 129.491 48.848V48.672C129.491 48.4907 129.539 48.352 129.635 48.256C129.741 48.16 129.88 48.112 130.051 48.112H130.931V46.128C130.931 45.9467 130.979 45.808 131.075 45.712C131.181 45.616 131.32 45.568 131.491 45.568H132.067C132.248 45.568 132.387 45.616 132.483 45.712C132.579 45.808 132.627 45.9467 132.627 46.128V48.112H134.067C134.248 48.112 134.387 48.16 134.483 48.256C134.579 48.352 134.627 48.4907 134.627 48.672V48.848C134.627 49.0187 134.579 49.1573 134.483 49.264C134.387 49.36 134.248 49.408 134.067 49.408H132.627V53.856C132.627 54.1653 132.691 54.384 132.819 54.512C132.957 54.64 133.176 54.704 133.475 54.704C133.603 54.704 133.779 54.688 134.003 54.656ZM139.188 56.24C138.537 56.24 137.956 56.16 137.444 56C136.943 55.8293 136.431 55.536 135.908 55.12C135.748 55.0027 135.668 54.8693 135.668 54.72C135.668 54.6027 135.727 54.4747 135.844 54.336L136.084 54.064C136.212 53.9147 136.351 53.84 136.5 53.84C136.617 53.84 136.745 53.8933 136.884 54C137.332 54.3307 137.727 54.56 138.068 54.688C138.409 54.8053 138.793 54.864 139.22 54.864C139.679 54.864 140.052 54.7733 140.34 54.592C140.639 54.4 140.788 54.144 140.788 53.824C140.788 53.5787 140.703 53.3867 140.532 53.248C140.372 53.0987 140.159 52.9867 139.892 52.912C139.625 52.8267 139.231 52.7307 138.708 52.624C137.972 52.464 137.396 52.2933 136.98 52.112C136.575 51.92 136.281 51.68 136.1 51.392C135.919 51.104 135.828 50.736 135.828 50.288C135.828 49.8293 135.956 49.4187 136.212 49.056C136.479 48.6933 136.847 48.4053 137.316 48.192C137.796 47.9787 138.356 47.872 138.996 47.872C139.572 47.872 140.084 47.936 140.532 48.064C140.991 48.192 141.439 48.4107 141.876 48.72C142.047 48.848 142.132 48.992 142.132 49.152C142.132 49.2587 142.079 49.3813 141.972 49.52L141.764 49.776C141.647 49.9253 141.503 50 141.332 50C141.204 50 141.081 49.9573 140.964 49.872C140.612 49.6373 140.287 49.4773 139.988 49.392C139.689 49.296 139.353 49.248 138.98 49.248C138.521 49.248 138.153 49.3387 137.876 49.52C137.599 49.7013 137.46 49.936 137.46 50.224C137.46 50.416 137.524 50.5707 137.652 50.688C137.791 50.7947 137.983 50.8907 138.228 50.976C138.484 51.0507 138.884 51.1467 139.428 51.264C140.164 51.424 140.745 51.6053 141.172 51.808C141.609 52 141.929 52.2507 142.132 52.56C142.345 52.8587 142.452 53.248 142.452 53.728C142.452 54.4747 142.153 55.0827 141.556 55.552C140.969 56.0107 140.18 56.24 139.188 56.24Z" fill="#464646"/>
</svg>
