<svg width="344" height="320" viewBox="0 0 344 320" fill="none" xmlns="http://www.w3.org/2000/svg">
<path d="M160 133C164.418 133 168 129.418 168 125C168 120.582 164.418 117 160 117C155.582 117 152 120.582 152 125C152 129.418 155.582 133 160 133Z" stroke="#C3CCD9" stroke-width="2" stroke-linecap="round" stroke-linejoin="round"/>
<path d="M197 163L182.648 139.581C182.33 139.1 181.899 138.705 181.394 138.43C180.889 138.154 180.324 138.007 179.749 138C179.174 137.994 178.607 138.128 178.095 138.392C177.584 138.656 177.145 139.041 176.816 139.514L167.423 152.978L161.602 148.293C161.219 147.986 160.778 147.761 160.305 147.635C159.831 147.508 159.337 147.482 158.853 147.557C158.369 147.633 157.906 147.808 157.494 148.073C157.081 148.338 156.728 148.686 156.457 149.095L147 163" stroke="#C3CCD9" stroke-width="2" stroke-linecap="round" stroke-linejoin="round"/>
<path d="M112.666 197C112.517 197 112.395 196.958 112.302 196.874C112.218 196.781 112.176 196.659 112.176 196.51V187.55C112.176 187.391 112.218 187.27 112.302 187.186C112.395 187.102 112.517 187.06 112.666 187.06H113.282C113.441 187.06 113.562 187.102 113.646 187.186C113.73 187.27 113.772 187.391 113.772 187.55V196.51C113.772 196.659 113.73 196.781 113.646 196.874C113.562 196.958 113.441 197 113.282 197H112.666ZM123.211 189.888C123.949 189.888 124.518 190.098 124.919 190.518C125.321 190.929 125.521 191.484 125.521 192.184V196.51C125.521 196.659 125.479 196.781 125.395 196.874C125.311 196.958 125.19 197 125.031 197H124.527C124.378 197 124.257 196.958 124.163 196.874C124.079 196.781 124.037 196.659 124.037 196.51V192.632C124.037 192.175 123.935 191.815 123.729 191.554C123.524 191.293 123.211 191.162 122.791 191.162C122.362 191.162 122.021 191.307 121.769 191.596C121.527 191.885 121.405 192.259 121.405 192.716V196.51C121.405 196.659 121.363 196.781 121.279 196.874C121.195 196.958 121.074 197 120.915 197H120.411C120.262 197 120.141 196.958 120.047 196.874C119.963 196.781 119.921 196.659 119.921 196.51V192.632C119.921 192.175 119.819 191.815 119.613 191.554C119.417 191.293 119.109 191.162 118.689 191.162C118.279 191.162 117.947 191.297 117.695 191.568C117.443 191.839 117.308 192.189 117.289 192.618V196.51C117.289 196.659 117.247 196.781 117.163 196.874C117.079 196.958 116.958 197 116.799 197H116.295C116.146 197 116.025 196.958 115.931 196.874C115.847 196.781 115.805 196.659 115.805 196.51V190.588C115.805 190.429 115.847 190.308 115.931 190.224C116.025 190.14 116.146 190.098 116.295 190.098H116.701C116.86 190.098 116.981 190.14 117.065 190.224C117.149 190.308 117.191 190.429 117.191 190.588V190.896C117.621 190.224 118.283 189.888 119.179 189.888C119.627 189.888 120.019 189.981 120.355 190.168C120.691 190.355 120.948 190.616 121.125 190.952C121.601 190.243 122.297 189.888 123.211 189.888ZM130.133 189.888C131.067 189.888 131.785 190.107 132.289 190.546C132.793 190.975 133.045 191.549 133.045 192.268V196.51C133.045 196.659 133.003 196.781 132.919 196.874C132.835 196.958 132.714 197 132.555 197H132.191C132.042 197 131.921 196.958 131.827 196.874C131.743 196.781 131.701 196.659 131.701 196.51V196.202C131.477 196.529 131.169 196.781 130.777 196.958C130.385 197.135 129.928 197.224 129.405 197.224C128.687 197.224 128.094 197.065 127.627 196.748C127.17 196.421 126.941 195.931 126.941 195.278C126.941 194.55 127.212 194.013 127.753 193.668C128.304 193.313 129.065 193.047 130.035 192.87L131.617 192.576V192.324C131.617 191.941 131.482 191.647 131.211 191.442C130.95 191.227 130.6 191.12 130.161 191.12C129.788 191.12 129.461 191.185 129.181 191.316C128.911 191.437 128.617 191.643 128.299 191.932C128.178 192.035 128.061 192.086 127.949 192.086C127.837 192.086 127.721 192.035 127.599 191.932L127.375 191.736C127.254 191.624 127.193 191.503 127.193 191.372C127.193 191.251 127.249 191.134 127.361 191.022C127.763 190.639 128.187 190.355 128.635 190.168C129.083 189.981 129.583 189.888 130.133 189.888ZM129.615 196.034C130.175 196.034 130.647 195.885 131.029 195.586C131.421 195.287 131.617 194.858 131.617 194.298V193.654L130.399 193.906C129.718 194.046 129.214 194.205 128.887 194.382C128.561 194.559 128.397 194.83 128.397 195.194C128.397 195.455 128.505 195.661 128.719 195.81C128.934 195.959 129.233 196.034 129.615 196.034ZM139.599 190.546C139.599 190.406 139.641 190.299 139.725 190.224C139.818 190.14 139.939 190.098 140.089 190.098H140.481C140.639 190.098 140.761 190.14 140.845 190.224C140.929 190.308 140.971 190.429 140.971 190.588V196.748C140.971 197.672 140.672 198.391 140.075 198.904C139.487 199.417 138.703 199.674 137.723 199.674C136.743 199.674 135.819 199.422 134.951 198.918C134.773 198.825 134.685 198.699 134.685 198.54C134.685 198.456 134.722 198.353 134.797 198.232L134.979 197.966C135.081 197.807 135.207 197.728 135.357 197.728C135.459 197.728 135.562 197.761 135.665 197.826C136.038 198.041 136.383 198.195 136.701 198.288C137.018 198.391 137.354 198.442 137.709 198.442C138.25 198.442 138.684 198.293 139.011 197.994C139.347 197.705 139.515 197.247 139.515 196.622V195.88C139.048 196.543 138.348 196.874 137.415 196.874C136.836 196.874 136.313 196.729 135.847 196.44C135.389 196.141 135.03 195.731 134.769 195.208C134.517 194.676 134.391 194.069 134.391 193.388C134.391 192.707 134.517 192.105 134.769 191.582C135.03 191.05 135.389 190.635 135.847 190.336C136.313 190.037 136.836 189.888 137.415 189.888C138.404 189.888 139.132 190.257 139.599 190.994V190.546ZM137.709 195.628C138.25 195.628 138.693 195.423 139.039 195.012C139.384 194.592 139.557 194.051 139.557 193.388C139.557 192.735 139.384 192.203 139.039 191.792C138.703 191.372 138.259 191.162 137.709 191.162C137.149 191.162 136.705 191.367 136.379 191.778C136.052 192.189 135.889 192.725 135.889 193.388C135.889 194.06 136.052 194.601 136.379 195.012C136.705 195.423 137.149 195.628 137.709 195.628ZM147.626 195.236C147.747 195.133 147.864 195.082 147.976 195.082C148.088 195.082 148.205 195.143 148.326 195.264L148.522 195.474C148.625 195.595 148.676 195.712 148.676 195.824C148.676 195.945 148.615 196.062 148.494 196.174C148.065 196.547 147.635 196.813 147.206 196.972C146.786 197.131 146.319 197.21 145.806 197.21C145.087 197.21 144.462 197.061 143.93 196.762C143.407 196.463 143.001 196.043 142.712 195.502C142.432 194.951 142.292 194.317 142.292 193.598C142.292 192.889 142.427 192.254 142.698 191.694C142.978 191.125 143.37 190.681 143.874 190.364C144.387 190.047 144.985 189.888 145.666 189.888C146.683 189.888 147.467 190.191 148.018 190.798C148.569 191.395 148.844 192.221 148.844 193.276V193.402C148.835 193.551 148.788 193.668 148.704 193.752C148.62 193.836 148.499 193.878 148.34 193.878H143.748C143.804 194.494 144.005 194.998 144.35 195.39C144.705 195.773 145.199 195.964 145.834 195.964C146.179 195.964 146.483 195.913 146.744 195.81C147.005 195.698 147.299 195.507 147.626 195.236ZM145.638 191.064C145.125 191.064 144.709 191.218 144.392 191.526C144.084 191.825 143.883 192.249 143.79 192.8H147.388C147.351 192.259 147.183 191.834 146.884 191.526C146.585 191.218 146.17 191.064 145.638 191.064ZM156.372 197.21C155.691 197.21 155.089 197.061 154.566 196.762C154.053 196.463 153.652 196.039 153.362 195.488C153.082 194.928 152.942 194.279 152.942 193.542C152.942 192.805 153.087 192.161 153.376 191.61C153.666 191.059 154.072 190.635 154.594 190.336C155.117 190.037 155.719 189.888 156.4 189.888C156.895 189.888 157.338 189.963 157.73 190.112C158.132 190.252 158.514 190.495 158.878 190.84C158.99 190.952 159.046 191.069 159.046 191.19C159.046 191.302 158.986 191.419 158.864 191.54L158.626 191.778C158.524 191.881 158.412 191.932 158.29 191.932C158.169 191.932 158.043 191.876 157.912 191.764C157.642 191.531 157.385 191.372 157.142 191.288C156.909 191.195 156.657 191.148 156.386 191.148C155.77 191.148 155.294 191.377 154.958 191.834C154.622 192.291 154.454 192.861 154.454 193.542C154.454 194.223 154.622 194.797 154.958 195.264C155.294 195.721 155.77 195.95 156.386 195.95C156.685 195.95 156.96 195.894 157.212 195.782C157.464 195.661 157.735 195.46 158.024 195.18C158.146 195.059 158.272 194.998 158.402 194.998C158.514 194.998 158.622 195.045 158.724 195.138L158.962 195.334C159.084 195.437 159.144 195.553 159.144 195.684C159.144 195.824 159.074 195.973 158.934 196.132C158.552 196.524 158.155 196.804 157.744 196.972C157.343 197.131 156.886 197.21 156.372 197.21ZM163.347 197.21C162.665 197.21 162.059 197.056 161.527 196.748C161.004 196.44 160.593 196.011 160.295 195.46C159.996 194.9 159.847 194.261 159.847 193.542C159.847 192.823 159.996 192.189 160.295 191.638C160.593 191.087 161.004 190.658 161.527 190.35C162.059 190.042 162.665 189.888 163.347 189.888C164.019 189.888 164.621 190.042 165.153 190.35C165.685 190.658 166.1 191.092 166.399 191.652C166.697 192.203 166.847 192.833 166.847 193.542C166.847 194.261 166.697 194.9 166.399 195.46C166.1 196.011 165.685 196.44 165.153 196.748C164.621 197.056 164.019 197.21 163.347 197.21ZM163.347 195.964C163.944 195.964 164.425 195.745 164.789 195.306C165.153 194.858 165.335 194.27 165.335 193.542C165.335 192.823 165.153 192.245 164.789 191.806C164.425 191.367 163.944 191.148 163.347 191.148C162.749 191.148 162.269 191.367 161.905 191.806C161.541 192.245 161.359 192.823 161.359 193.542C161.359 194.27 161.541 194.858 161.905 195.306C162.269 195.745 162.749 195.964 163.347 195.964ZM175.561 189.888C176.298 189.888 176.867 190.098 177.269 190.518C177.67 190.929 177.871 191.484 177.871 192.184V196.51C177.871 196.659 177.829 196.781 177.745 196.874C177.661 196.958 177.539 197 177.381 197H176.877C176.727 197 176.606 196.958 176.513 196.874C176.429 196.781 176.387 196.659 176.387 196.51V192.632C176.387 192.175 176.284 191.815 176.079 191.554C175.873 191.293 175.561 191.162 175.141 191.162C174.711 191.162 174.371 191.307 174.119 191.596C173.876 191.885 173.755 192.259 173.755 192.716V196.51C173.755 196.659 173.713 196.781 173.629 196.874C173.545 196.958 173.423 197 173.265 197H172.761C172.611 197 172.49 196.958 172.397 196.874C172.313 196.781 172.271 196.659 172.271 196.51V192.632C172.271 192.175 172.168 191.815 171.963 191.554C171.767 191.293 171.459 191.162 171.039 191.162C170.628 191.162 170.297 191.297 170.045 191.568C169.793 191.839 169.657 192.189 169.639 192.618V196.51C169.639 196.659 169.597 196.781 169.513 196.874C169.429 196.958 169.307 197 169.149 197H168.645C168.495 197 168.374 196.958 168.281 196.874C168.197 196.781 168.155 196.659 168.155 196.51V190.588C168.155 190.429 168.197 190.308 168.281 190.224C168.374 190.14 168.495 190.098 168.645 190.098H169.051C169.209 190.098 169.331 190.14 169.415 190.224C169.499 190.308 169.541 190.429 169.541 190.588V190.896C169.97 190.224 170.633 189.888 171.529 189.888C171.977 189.888 172.369 189.981 172.705 190.168C173.041 190.355 173.297 190.616 173.475 190.952C173.951 190.243 174.646 189.888 175.561 189.888ZM180.327 188.754C180.056 188.754 179.827 188.665 179.641 188.488C179.454 188.301 179.361 188.082 179.361 187.83C179.361 187.569 179.454 187.349 179.641 187.172C179.827 186.995 180.056 186.906 180.327 186.906C180.597 186.906 180.826 186.995 181.013 187.172C181.199 187.349 181.293 187.569 181.293 187.83C181.293 188.082 181.199 188.301 181.013 188.488C180.826 188.665 180.597 188.754 180.327 188.754ZM180.061 197C179.911 197 179.79 196.958 179.697 196.874C179.613 196.781 179.571 196.659 179.571 196.51V190.588C179.571 190.429 179.613 190.308 179.697 190.224C179.79 190.14 179.911 190.098 180.061 190.098H180.565C180.723 190.098 180.845 190.14 180.929 190.224C181.013 190.308 181.055 190.429 181.055 190.588V196.51C181.055 196.659 181.013 196.781 180.929 196.874C180.845 196.958 180.723 197 180.565 197H180.061ZM186.284 189.888C187.077 189.888 187.684 190.112 188.104 190.56C188.533 190.999 188.748 191.568 188.748 192.268V196.51C188.748 196.659 188.706 196.781 188.622 196.874C188.538 196.958 188.417 197 188.258 197H187.754C187.605 197 187.483 196.958 187.39 196.874C187.306 196.781 187.264 196.659 187.264 196.51V192.73C187.264 192.226 187.138 191.839 186.886 191.568C186.643 191.297 186.293 191.162 185.836 191.162C185.388 191.162 185.01 191.316 184.702 191.624C184.403 191.932 184.254 192.319 184.254 192.786V196.51C184.254 196.659 184.212 196.781 184.128 196.874C184.044 196.958 183.923 197 183.764 197H183.26C183.111 197 182.989 196.958 182.896 196.874C182.812 196.781 182.77 196.659 182.77 196.51V190.588C182.77 190.429 182.812 190.308 182.896 190.224C182.989 190.14 183.111 190.098 183.26 190.098H183.666C183.825 190.098 183.946 190.14 184.03 190.224C184.114 190.308 184.156 190.429 184.156 190.588V190.952C184.38 190.607 184.674 190.345 185.038 190.168C185.402 189.981 185.817 189.888 186.284 189.888ZM195.312 190.546C195.312 190.406 195.354 190.299 195.438 190.224C195.531 190.14 195.652 190.098 195.802 190.098H196.194C196.352 190.098 196.474 190.14 196.558 190.224C196.642 190.308 196.684 190.429 196.684 190.588V196.748C196.684 197.672 196.385 198.391 195.788 198.904C195.2 199.417 194.416 199.674 193.436 199.674C192.456 199.674 191.532 199.422 190.664 198.918C190.486 198.825 190.398 198.699 190.398 198.54C190.398 198.456 190.435 198.353 190.51 198.232L190.692 197.966C190.794 197.807 190.92 197.728 191.07 197.728C191.172 197.728 191.275 197.761 191.378 197.826C191.751 198.041 192.096 198.195 192.414 198.288C192.731 198.391 193.067 198.442 193.422 198.442C193.963 198.442 194.397 198.293 194.724 197.994C195.06 197.705 195.228 197.247 195.228 196.622V195.88C194.761 196.543 194.061 196.874 193.128 196.874C192.549 196.874 192.026 196.729 191.56 196.44C191.102 196.141 190.743 195.731 190.482 195.208C190.23 194.676 190.104 194.069 190.104 193.388C190.104 192.707 190.23 192.105 190.482 191.582C190.743 191.05 191.102 190.635 191.56 190.336C192.026 190.037 192.549 189.888 193.128 189.888C194.117 189.888 194.845 190.257 195.312 190.994V190.546ZM193.422 195.628C193.963 195.628 194.406 195.423 194.752 195.012C195.097 194.592 195.27 194.051 195.27 193.388C195.27 192.735 195.097 192.203 194.752 191.792C194.416 191.372 193.972 191.162 193.422 191.162C192.862 191.162 192.418 191.367 192.092 191.778C191.765 192.189 191.602 192.725 191.602 193.388C191.602 194.06 191.765 194.601 192.092 195.012C192.418 195.423 192.862 195.628 193.422 195.628ZM204.188 197.21C203.618 197.21 203.11 197.14 202.662 197C202.223 196.851 201.775 196.594 201.318 196.23C201.178 196.127 201.108 196.011 201.108 195.88C201.108 195.777 201.159 195.665 201.262 195.544L201.472 195.306C201.584 195.175 201.705 195.11 201.836 195.11C201.938 195.11 202.05 195.157 202.172 195.25C202.564 195.539 202.909 195.74 203.208 195.852C203.506 195.955 203.842 196.006 204.216 196.006C204.617 196.006 204.944 195.927 205.196 195.768C205.457 195.6 205.588 195.376 205.588 195.096C205.588 194.881 205.513 194.713 205.364 194.592C205.224 194.461 205.037 194.363 204.804 194.298C204.57 194.223 204.225 194.139 203.768 194.046C203.124 193.906 202.62 193.757 202.256 193.598C201.901 193.43 201.644 193.22 201.486 192.968C201.327 192.716 201.248 192.394 201.248 192.002C201.248 191.601 201.36 191.241 201.584 190.924C201.817 190.607 202.139 190.355 202.55 190.168C202.97 189.981 203.46 189.888 204.02 189.888C204.524 189.888 204.972 189.944 205.364 190.056C205.765 190.168 206.157 190.359 206.54 190.63C206.689 190.742 206.764 190.868 206.764 191.008C206.764 191.101 206.717 191.209 206.624 191.33L206.442 191.554C206.339 191.685 206.213 191.75 206.064 191.75C205.952 191.75 205.844 191.713 205.742 191.638C205.434 191.433 205.149 191.293 204.888 191.218C204.626 191.134 204.332 191.092 204.006 191.092C203.604 191.092 203.282 191.171 203.04 191.33C202.797 191.489 202.676 191.694 202.676 191.946C202.676 192.114 202.732 192.249 202.844 192.352C202.965 192.445 203.133 192.529 203.348 192.604C203.572 192.669 203.922 192.753 204.398 192.856C205.042 192.996 205.55 193.155 205.924 193.332C206.306 193.5 206.586 193.719 206.764 193.99C206.95 194.251 207.044 194.592 207.044 195.012C207.044 195.665 206.782 196.197 206.26 196.608C205.746 197.009 205.056 197.21 204.188 197.21ZM211.431 197.21C210.749 197.21 210.143 197.056 209.611 196.748C209.088 196.44 208.677 196.011 208.379 195.46C208.08 194.9 207.931 194.261 207.931 193.542C207.931 192.823 208.08 192.189 208.379 191.638C208.677 191.087 209.088 190.658 209.611 190.35C210.143 190.042 210.749 189.888 211.431 189.888C212.103 189.888 212.705 190.042 213.237 190.35C213.769 190.658 214.184 191.092 214.483 191.652C214.781 192.203 214.931 192.833 214.931 193.542C214.931 194.261 214.781 194.9 214.483 195.46C214.184 196.011 213.769 196.44 213.237 196.748C212.705 197.056 212.103 197.21 211.431 197.21ZM211.431 195.964C212.028 195.964 212.509 195.745 212.873 195.306C213.237 194.858 213.419 194.27 213.419 193.542C213.419 192.823 213.237 192.245 212.873 191.806C212.509 191.367 212.028 191.148 211.431 191.148C210.833 191.148 210.353 191.367 209.989 191.806C209.625 192.245 209.443 192.823 209.443 193.542C209.443 194.27 209.625 194.858 209.989 195.306C210.353 195.745 210.833 195.964 211.431 195.964ZM219.429 197.21C218.747 197.21 218.141 197.056 217.609 196.748C217.086 196.44 216.675 196.011 216.377 195.46C216.078 194.9 215.929 194.261 215.929 193.542C215.929 192.823 216.078 192.189 216.377 191.638C216.675 191.087 217.086 190.658 217.609 190.35C218.141 190.042 218.747 189.888 219.429 189.888C220.101 189.888 220.703 190.042 221.235 190.35C221.767 190.658 222.182 191.092 222.481 191.652C222.779 192.203 222.929 192.833 222.929 193.542C222.929 194.261 222.779 194.9 222.481 195.46C222.182 196.011 221.767 196.44 221.235 196.748C220.703 197.056 220.101 197.21 219.429 197.21ZM219.429 195.964C220.026 195.964 220.507 195.745 220.871 195.306C221.235 194.858 221.417 194.27 221.417 193.542C221.417 192.823 221.235 192.245 220.871 191.806C220.507 191.367 220.026 191.148 219.429 191.148C218.831 191.148 218.351 191.367 217.987 191.806C217.623 192.245 217.441 192.823 217.441 193.542C217.441 194.27 217.623 194.858 217.987 195.306C218.351 195.745 218.831 195.964 219.429 195.964ZM227.751 189.888C228.544 189.888 229.151 190.112 229.571 190.56C230 190.999 230.215 191.568 230.215 192.268V196.51C230.215 196.659 230.173 196.781 230.089 196.874C230.005 196.958 229.883 197 229.725 197H229.221C229.071 197 228.95 196.958 228.857 196.874C228.773 196.781 228.731 196.659 228.731 196.51V192.73C228.731 192.226 228.605 191.839 228.353 191.568C228.11 191.297 227.76 191.162 227.303 191.162C226.855 191.162 226.477 191.316 226.169 191.624C225.87 191.932 225.721 192.319 225.721 192.786V196.51C225.721 196.659 225.679 196.781 225.595 196.874C225.511 196.958 225.389 197 225.231 197H224.727C224.577 197 224.456 196.958 224.363 196.874C224.279 196.781 224.237 196.659 224.237 196.51V190.588C224.237 190.429 224.279 190.308 224.363 190.224C224.456 190.14 224.577 190.098 224.727 190.098H225.133C225.291 190.098 225.413 190.14 225.497 190.224C225.581 190.308 225.623 190.429 225.623 190.588V190.952C225.847 190.607 226.141 190.345 226.505 190.168C226.869 189.981 227.284 189.888 227.751 189.888Z" fill="#C3CCD9"/>
</svg>
