<svg width="350" height="266" viewBox="0 0 350 266" fill="none" xmlns="http://www.w3.org/2000/svg">
<g clip-path="url(#clip0_2322_31148)">
<g clip-path="url(#clip1_2322_31148)">
<rect width="350" height="266" rx="4" fill="white"/>
<mask id="path-3-inside-1_2322_31148" fill="white">
<path d="M0 0H136V50H0V0Z"/>
</mask>
<path d="M0 0H136V50H0V0Z" fill="white"/>
<path d="M24.5415 38C24.2802 38 24.0842 37.8927 23.9535 37.678L20.9435 33.044L19.2775 34.78V37.51C19.2775 37.6593 19.2355 37.7807 19.1515 37.874C19.0675 37.958 18.9462 38 18.7875 38H18.1715C18.0222 38 17.9008 37.958 17.8075 37.874C17.7235 37.7807 17.6815 37.6593 17.6815 37.51V28.55C17.6815 28.3913 17.7235 28.27 17.8075 28.186C17.9008 28.102 18.0222 28.06 18.1715 28.06H18.7875C18.9462 28.06 19.0675 28.102 19.1515 28.186C19.2355 28.27 19.2775 28.3913 19.2775 28.55V32.862L23.5335 28.326C23.7015 28.1487 23.9068 28.06 24.1495 28.06H24.9055C25.0455 28.06 25.1482 28.088 25.2135 28.144C25.2882 28.1907 25.3255 28.256 25.3255 28.34C25.3255 28.452 25.2742 28.5593 25.1715 28.662L22.0355 31.924L25.5915 37.412C25.6568 37.5147 25.6895 37.608 25.6895 37.692C25.6895 37.7853 25.6522 37.86 25.5775 37.916C25.5028 37.972 25.4002 38 25.2695 38H24.5415ZM29.7348 30.888C30.6681 30.888 31.3868 31.1073 31.8908 31.546C32.3948 31.9753 32.6468 32.5493 32.6468 33.268V37.51C32.6468 37.6593 32.6048 37.7807 32.5208 37.874C32.4368 37.958 32.3154 38 32.1568 38H31.7928C31.6434 38 31.5221 37.958 31.4288 37.874C31.3448 37.7807 31.3028 37.6593 31.3028 37.51V37.202C31.0788 37.5287 30.7708 37.7807 30.3788 37.958C29.9868 38.1353 29.5294 38.224 29.0068 38.224C28.2881 38.224 27.6954 38.0653 27.2288 37.748C26.7714 37.4213 26.5428 36.9313 26.5428 36.278C26.5428 35.55 26.8134 35.0133 27.3548 34.668C27.9054 34.3133 28.6661 34.0473 29.6368 33.87L31.2188 33.576V33.324C31.2188 32.9413 31.0834 32.6473 30.8128 32.442C30.5514 32.2273 30.2014 32.12 29.7628 32.12C29.3894 32.12 29.0628 32.1853 28.7828 32.316C28.5121 32.4373 28.2181 32.6427 27.9008 32.932C27.7794 33.0347 27.6628 33.086 27.5508 33.086C27.4388 33.086 27.3221 33.0347 27.2008 32.932L26.9768 32.736C26.8554 32.624 26.7948 32.5027 26.7948 32.372C26.7948 32.2507 26.8508 32.134 26.9628 32.022C27.3641 31.6393 27.7888 31.3547 28.2368 31.168C28.6848 30.9813 29.1841 30.888 29.7348 30.888ZM29.2168 37.034C29.7768 37.034 30.2481 36.8847 30.6308 36.586C31.0228 36.2873 31.2188 35.858 31.2188 35.298V34.654L30.0008 34.906C29.3194 35.046 28.8154 35.2047 28.4888 35.382C28.1621 35.5593 27.9988 35.83 27.9988 36.194C27.9988 36.4553 28.1061 36.6607 28.3208 36.81C28.5354 36.9593 28.8341 37.034 29.2168 37.034ZM37.8563 30.888C38.6496 30.888 39.2563 31.112 39.6763 31.56C40.1056 31.9987 40.3203 32.568 40.3203 33.268V37.51C40.3203 37.6593 40.2783 37.7807 40.1943 37.874C40.1103 37.958 39.9889 38 39.8303 38H39.3263C39.1769 38 39.0556 37.958 38.9623 37.874C38.8783 37.7807 38.8363 37.6593 38.8363 37.51V33.73C38.8363 33.226 38.7103 32.8387 38.4583 32.568C38.2156 32.2973 37.8656 32.162 37.4083 32.162C36.9603 32.162 36.5823 32.316 36.2743 32.624C35.9756 32.932 35.8263 33.3193 35.8263 33.786V37.51C35.8263 37.6593 35.7843 37.7807 35.7003 37.874C35.6163 37.958 35.4949 38 35.3363 38H34.8323C34.6829 38 34.5616 37.958 34.4683 37.874C34.3843 37.7807 34.3423 37.6593 34.3423 37.51V31.588C34.3423 31.4293 34.3843 31.308 34.4683 31.224C34.5616 31.14 34.6829 31.098 34.8323 31.098H35.2383C35.3969 31.098 35.5183 31.14 35.6023 31.224C35.6863 31.308 35.7283 31.4293 35.7283 31.588V31.952C35.9523 31.6067 36.2463 31.3453 36.6103 31.168C36.9743 30.9813 37.3896 30.888 37.8563 30.888ZM44.9379 30.888C45.8712 30.888 46.5899 31.1073 47.0939 31.546C47.5979 31.9753 47.8499 32.5493 47.8499 33.268V37.51C47.8499 37.6593 47.8079 37.7807 47.7239 37.874C47.6399 37.958 47.5185 38 47.3599 38H46.9959C46.8465 38 46.7252 37.958 46.6319 37.874C46.5479 37.7807 46.5059 37.6593 46.5059 37.51V37.202C46.2819 37.5287 45.9739 37.7807 45.5819 37.958C45.1899 38.1353 44.7325 38.224 44.2099 38.224C43.4912 38.224 42.8985 38.0653 42.4319 37.748C41.9745 37.4213 41.7459 36.9313 41.7459 36.278C41.7459 35.55 42.0165 35.0133 42.5579 34.668C43.1085 34.3133 43.8692 34.0473 44.8399 33.87L46.4219 33.576V33.324C46.4219 32.9413 46.2865 32.6473 46.0159 32.442C45.7545 32.2273 45.4045 32.12 44.9659 32.12C44.5925 32.12 44.2659 32.1853 43.9859 32.316C43.7152 32.4373 43.4212 32.6427 43.1039 32.932C42.9825 33.0347 42.8659 33.086 42.7539 33.086C42.6419 33.086 42.5252 33.0347 42.4039 32.932L42.1799 32.736C42.0585 32.624 41.9979 32.5027 41.9979 32.372C41.9979 32.2507 42.0539 32.134 42.1659 32.022C42.5672 31.6393 42.9919 31.3547 43.4399 31.168C43.8879 30.9813 44.3872 30.888 44.9379 30.888ZM44.4199 37.034C44.9799 37.034 45.4512 36.8847 45.8339 36.586C46.2259 36.2873 46.4219 35.858 46.4219 35.298V34.654L45.2039 34.906C44.5225 35.046 44.0185 35.2047 43.6919 35.382C43.3652 35.5593 43.2019 35.83 43.2019 36.194C43.2019 36.4553 43.3092 36.6607 43.5239 36.81C43.7385 36.9593 44.0372 37.034 44.4199 37.034ZM50.0914 38C49.9421 38 49.8207 37.958 49.7274 37.874C49.6434 37.7807 49.6014 37.6593 49.6014 37.51V28.55C49.6014 28.3913 49.6434 28.27 49.7274 28.186C49.8207 28.102 49.9421 28.06 50.0914 28.06H50.5954C50.7541 28.06 50.8754 28.102 50.9594 28.186C51.0434 28.27 51.0854 28.3913 51.0854 28.55V37.51C51.0854 37.6593 51.0434 37.7807 50.9594 37.874C50.8754 37.958 50.7541 38 50.5954 38H50.0914Z" fill="#464646"/>
<path d="M136 49H0V51H136V49Z" fill="#C3CCD9" mask="url(#path-3-inside-1_2322_31148)"/>
<g clip-path="url(#clip2_2322_31148)">
<mask id="path-6-inside-2_2322_31148" fill="white">
<path d="M0 50H136V104H0V50Z"/>
</mask>
<path d="M0 50H136V104H0V50Z" fill="white"/>
<path d="M17.792 82C17.6213 82 17.4827 81.952 17.376 81.856C17.28 81.7493 17.232 81.6107 17.232 81.44V71.2C17.232 71.0187 17.28 70.88 17.376 70.784C17.4827 70.688 17.6213 70.64 17.792 70.64H24.432C24.6133 70.64 24.752 70.688 24.848 70.784C24.944 70.88 24.992 71.0187 24.992 71.2V71.616C24.992 71.7867 24.944 71.9253 24.848 72.032C24.752 72.128 24.6133 72.176 24.432 72.176H19.056V75.648H24C24.1813 75.648 24.32 75.696 24.416 75.792C24.512 75.888 24.56 76.0267 24.56 76.208V76.608C24.56 76.7787 24.512 76.9173 24.416 77.024C24.32 77.12 24.1813 77.168 24 77.168H19.056V81.44C19.056 81.6107 19.008 81.7493 18.912 81.856C18.816 81.952 18.6773 82 18.496 82H17.792ZM27.4978 82C27.3271 82 27.1884 81.952 27.0818 81.856C26.9858 81.7493 26.9378 81.6107 26.9378 81.44V71.2C26.9378 71.0187 26.9858 70.88 27.0818 70.784C27.1884 70.688 27.3271 70.64 27.4978 70.64H28.2018C28.3831 70.64 28.5218 70.688 28.6178 70.784C28.7138 70.88 28.7618 71.0187 28.7618 71.2V81.44C28.7618 81.6107 28.7138 81.7493 28.6178 81.856C28.5218 81.952 28.3831 82 28.2018 82H27.4978ZM38.8934 71.2C38.8934 71.0187 38.9414 70.88 39.0374 70.784C39.144 70.688 39.2827 70.64 39.4534 70.64H40.1094C40.2907 70.64 40.4294 70.688 40.5254 70.784C40.6214 70.88 40.6694 71.0187 40.6694 71.2V81.44C40.6694 81.6107 40.6214 81.7493 40.5254 81.856C40.4294 81.952 40.2907 82 40.1094 82H39.1174C38.8187 82 38.5947 81.8773 38.4454 81.632L35.5334 77.088C34.424 75.36 33.592 73.9947 33.0374 72.992C33.0907 74.1333 33.1174 75.6107 33.1174 77.424V81.44C33.1174 81.6107 33.0694 81.7493 32.9734 81.856C32.8774 81.952 32.7387 82 32.5574 82H31.9014C31.7307 82 31.592 81.952 31.4854 81.856C31.3894 81.7493 31.3414 81.6107 31.3414 81.44V71.2C31.3414 71.0187 31.3894 70.88 31.4854 70.784C31.592 70.688 31.7307 70.64 31.9014 70.64H32.9254C33.224 70.64 33.448 70.7627 33.5974 71.008L36.6054 75.728C37.672 77.392 38.456 78.672 38.9574 79.568C38.9147 78.4267 38.8934 77.0187 38.8934 75.344V71.2ZM50.6903 71.2C50.6903 71.0187 50.7383 70.88 50.8343 70.784C50.9409 70.688 51.0796 70.64 51.2503 70.64H51.9062C52.0876 70.64 52.2263 70.688 52.3223 70.784C52.4183 70.88 52.4663 71.0187 52.4663 71.2V81.44C52.4663 81.6107 52.4183 81.7493 52.3223 81.856C52.2263 81.952 52.0876 82 51.9062 82H50.9143C50.6156 82 50.3916 81.8773 50.2423 81.632L47.3303 77.088C46.2209 75.36 45.3889 73.9947 44.8343 72.992C44.8876 74.1333 44.9143 75.6107 44.9143 77.424V81.44C44.9143 81.6107 44.8663 81.7493 44.7703 81.856C44.6743 81.952 44.5356 82 44.3543 82H43.6983C43.5276 82 43.3889 81.952 43.2823 81.856C43.1863 81.7493 43.1383 81.6107 43.1383 81.44V71.2C43.1383 71.0187 43.1863 70.88 43.2823 70.784C43.3889 70.688 43.5276 70.64 43.6983 70.64H44.7223C45.0209 70.64 45.2449 70.7627 45.3943 71.008L48.4023 75.728C49.4689 77.392 50.2529 78.672 50.7543 79.568C50.7116 78.4267 50.6903 77.0187 50.6903 75.344V71.2Z" fill="#464646"/>
</g>
<path d="M136 103H0V105H136V103Z" fill="#E1E6EE" mask="url(#path-6-inside-2_2322_31148)"/>
<g clip-path="url(#clip3_2322_31148)">
<path d="M24.128 125.104C24.224 124.795 24.432 124.64 24.752 124.64H25.472C25.8027 124.64 25.968 124.779 25.968 125.056C25.968 125.152 25.9573 125.227 25.936 125.28L22.496 135.536C22.4 135.845 22.1867 136 21.856 136H20.528C20.1973 136 19.984 135.845 19.888 135.536L16.432 125.28C16.4107 125.227 16.4 125.152 16.4 125.056C16.4 124.779 16.5653 124.64 16.896 124.64H17.648C17.968 124.64 18.176 124.795 18.272 125.104L19.952 130.176C20.4 131.52 20.8213 132.891 21.216 134.288C21.4613 133.381 21.8773 132.021 22.464 130.208L24.128 125.104ZM32.6493 131.424C32.4786 131.424 32.3399 131.376 32.2333 131.28C32.1373 131.173 32.0893 131.035 32.0893 130.864V130.448C32.0893 130.267 32.1373 130.128 32.2333 130.032C32.3399 129.936 32.4786 129.888 32.6493 129.888H36.6653C36.8466 129.888 36.9853 129.936 37.0813 130.032C37.1773 130.128 37.2253 130.267 37.2253 130.448V135.44C37.2253 135.611 37.1773 135.749 37.0813 135.856C36.9853 135.952 36.8466 136 36.6653 136H36.3293C35.9773 136 35.7853 135.824 35.7533 135.472L35.6892 134.752C35.0066 135.744 33.8759 136.24 32.2973 136.24C31.1666 136.24 30.1959 135.989 29.3853 135.488C28.5746 134.987 27.9559 134.288 27.5293 133.392C27.1026 132.496 26.8893 131.467 26.8893 130.304C26.8893 129.173 27.1133 128.16 27.5613 127.264C28.0093 126.368 28.6546 125.669 29.4973 125.168C30.3399 124.656 31.3373 124.4 32.4893 124.4C33.3533 124.4 34.1266 124.539 34.8093 124.816C35.4919 125.083 36.1639 125.52 36.8253 126.128C36.9639 126.256 37.0333 126.389 37.0333 126.528C37.0333 126.667 36.9693 126.8 36.8413 126.928L36.4573 127.312C36.3186 127.451 36.1853 127.52 36.0573 127.52C35.9186 127.52 35.7853 127.456 35.6573 127.328C35.1026 126.848 34.5853 126.507 34.1053 126.304C33.6253 126.091 33.0813 125.984 32.4733 125.984C31.7373 125.984 31.0866 126.16 30.5213 126.512C29.9666 126.864 29.5293 127.365 29.2093 128.016C28.8999 128.667 28.7453 129.435 28.7453 130.32C28.7453 131.216 28.8946 131.989 29.1933 132.64C29.4919 133.291 29.9133 133.792 30.4573 134.144C31.0119 134.485 31.6626 134.656 32.4093 134.656C33.3586 134.656 34.1159 134.4 34.6813 133.888C35.2573 133.365 35.5453 132.656 35.5453 131.76V131.424H32.6493Z" fill="#464646"/>
</g>
<path d="M136 157H0V159H136V157Z" fill="#E1E6EE" mask="url(#path-9-inside-3_2322_31148)"/>
<g clip-path="url(#clip4_2322_31148)">
<mask id="path-12-inside-4_2322_31148" fill="white">
<path d="M0 158H136V212H0V158Z"/>
</mask>
<path d="M0 158H136V212H0V158Z" fill="white"/>
<path d="M25.392 190C25.072 190 24.8587 189.851 24.752 189.552L24 187.392H18.976L18.224 189.552C18.1173 189.851 17.904 190 17.584 190H16.912C16.752 190 16.624 189.968 16.528 189.904C16.4427 189.829 16.4 189.728 16.4 189.6C16.4 189.536 16.416 189.456 16.448 189.36L20.16 179.088C20.2667 178.789 20.48 178.64 20.8 178.64H22.224C22.544 178.64 22.7573 178.789 22.864 179.088L26.576 189.36C26.608 189.456 26.624 189.536 26.624 189.6C26.624 189.728 26.576 189.829 26.48 189.904C26.3947 189.968 26.272 190 26.112 190H25.392ZM23.488 185.872L22.992 184.464C22.9813 184.443 22.864 184.107 22.64 183.456C22.0747 181.856 21.6907 180.715 21.488 180.032C21.1787 181.013 20.768 182.229 20.256 183.68L19.984 184.48L19.504 185.872H23.488ZM31.1043 179.824C30.7309 179.824 30.4589 179.915 30.2883 180.096C30.1176 180.277 30.0323 180.587 30.0323 181.024V182.112H31.3283C31.5096 182.112 31.6483 182.16 31.7443 182.256C31.8403 182.352 31.8883 182.491 31.8883 182.672V182.848C31.8883 183.019 31.8403 183.157 31.7443 183.264C31.6483 183.36 31.5096 183.408 31.3283 183.408H30.0323V189.44C30.0323 189.611 29.9843 189.749 29.8883 189.856C29.7923 189.952 29.6536 190 29.4723 190H28.8963C28.7256 190 28.5869 189.952 28.4803 189.856C28.3843 189.749 28.3363 189.611 28.3363 189.44V183.408H27.4883C27.3176 183.408 27.1789 183.36 27.0723 183.264C26.9763 183.157 26.9283 183.019 26.9283 182.848V182.672C26.9283 182.491 26.9763 182.352 27.0723 182.256C27.1789 182.16 27.3176 182.112 27.4883 182.112H28.3363V180.912C28.3363 180.091 28.5443 179.472 28.9603 179.056C29.3869 178.629 30.0003 178.416 30.8003 178.416C31.1629 178.416 31.5309 178.453 31.9043 178.528C32.1816 178.603 32.3203 178.773 32.3203 179.04C32.3203 179.115 32.3149 179.173 32.3043 179.216L32.2563 179.44C32.1923 179.717 31.9843 179.856 31.6323 179.856L31.4403 179.84C31.3656 179.829 31.2536 179.824 31.1043 179.824ZM37.0653 188.656C37.0973 188.645 37.1453 188.64 37.2093 188.64C37.4759 188.64 37.6359 188.795 37.6893 189.104L37.7373 189.36C37.7479 189.392 37.7533 189.445 37.7533 189.52C37.7533 189.787 37.6039 189.957 37.3053 190.032C36.8786 190.128 36.4893 190.176 36.1373 190.176C35.3799 190.176 34.8306 190 34.4893 189.648C34.1586 189.296 33.9933 188.768 33.9933 188.064V183.408H33.1133C32.9426 183.408 32.8039 183.36 32.6973 183.264C32.6013 183.157 32.5533 183.019 32.5533 182.848V182.672C32.5533 182.491 32.6013 182.352 32.6973 182.256C32.8039 182.16 32.9426 182.112 33.1133 182.112H33.9933V180.128C33.9933 179.947 34.0413 179.808 34.1373 179.712C34.2439 179.616 34.3826 179.568 34.5533 179.568H35.1293C35.3106 179.568 35.4493 179.616 35.5453 179.712C35.6413 179.808 35.6893 179.947 35.6893 180.128V182.112H37.1293C37.3106 182.112 37.4493 182.16 37.5453 182.256C37.6413 182.352 37.6893 182.491 37.6893 182.672V182.848C37.6893 183.019 37.6413 183.157 37.5453 183.264C37.4493 183.36 37.3106 183.408 37.1293 183.408H35.6893V187.856C35.6893 188.165 35.7533 188.384 35.8813 188.512C36.0199 188.64 36.2386 188.704 36.5373 188.704C36.6653 188.704 36.8413 188.688 37.0653 188.656ZM44.4834 187.984C44.622 187.867 44.7554 187.808 44.8834 187.808C45.0114 187.808 45.1447 187.877 45.2834 188.016L45.5074 188.256C45.6247 188.395 45.6834 188.528 45.6834 188.656C45.6834 188.795 45.614 188.928 45.4754 189.056C44.9847 189.483 44.494 189.787 44.0034 189.968C43.5234 190.149 42.99 190.24 42.4034 190.24C41.582 190.24 40.8674 190.069 40.2594 189.728C39.662 189.387 39.198 188.907 38.8674 188.288C38.5474 187.659 38.3874 186.933 38.3874 186.112C38.3874 185.301 38.542 184.576 38.8514 183.936C39.1714 183.285 39.6194 182.779 40.1954 182.416C40.782 182.053 41.4647 181.872 42.2434 181.872C43.406 181.872 44.302 182.219 44.9314 182.912C45.5607 183.595 45.8754 184.539 45.8754 185.744V185.888C45.8647 186.059 45.8114 186.192 45.7154 186.288C45.6194 186.384 45.4807 186.432 45.2994 186.432H40.0514C40.1154 187.136 40.3447 187.712 40.7394 188.16C41.1447 188.597 41.71 188.816 42.4354 188.816C42.83 188.816 43.1767 188.757 43.4754 188.64C43.774 188.512 44.11 188.293 44.4834 187.984ZM42.2114 183.216C41.6247 183.216 41.15 183.392 40.7874 183.744C40.4354 184.085 40.206 184.571 40.0994 185.2H44.2114C44.1687 184.581 43.9767 184.096 43.6354 183.744C43.294 183.392 42.8194 183.216 42.2114 183.216ZM51.4451 181.872C52.3518 181.872 53.0451 182.128 53.5251 182.64C54.0158 183.141 54.2611 183.792 54.2611 184.592V189.44C54.2611 189.611 54.2131 189.749 54.1171 189.856C54.0211 189.952 53.8825 190 53.7011 190H53.1251C52.9545 190 52.8158 189.952 52.7091 189.856C52.6131 189.749 52.5651 189.611 52.5651 189.44V185.12C52.5651 184.544 52.4211 184.101 52.1331 183.792C51.8558 183.483 51.4558 183.328 50.9331 183.328C50.4211 183.328 49.9891 183.504 49.6371 183.856C49.2958 184.208 49.1251 184.651 49.1251 185.184V189.44C49.1251 189.611 49.0771 189.749 48.9811 189.856C48.8851 189.952 48.7465 190 48.5651 190H47.9891C47.8185 190 47.6798 189.952 47.5731 189.856C47.4771 189.749 47.4291 189.611 47.4291 189.44V182.672C47.4291 182.491 47.4771 182.352 47.5731 182.256C47.6798 182.16 47.8185 182.112 47.9891 182.112H48.4531C48.6345 182.112 48.7731 182.16 48.8691 182.256C48.9651 182.352 49.0131 182.491 49.0131 182.672V183.088C49.2691 182.693 49.6051 182.395 50.0211 182.192C50.4371 181.979 50.9118 181.872 51.4451 181.872ZM60.4024 181.904C61.0744 181.904 61.6717 182.075 62.1944 182.416C62.7277 182.757 63.1437 183.243 63.4424 183.872C63.741 184.501 63.8904 185.227 63.8904 186.048C63.8904 186.88 63.741 187.611 63.4424 188.24C63.1437 188.869 62.7277 189.355 62.1944 189.696C61.661 190.037 61.0637 190.208 60.4024 190.208C59.293 190.208 58.461 189.824 57.9064 189.056V192.272C57.9064 192.453 57.8584 192.592 57.7624 192.688C57.6664 192.784 57.5277 192.832 57.3464 192.832H56.7704C56.5997 192.832 56.461 192.784 56.3544 192.688C56.2584 192.592 56.2104 192.453 56.2104 192.272V182.672C56.2104 182.491 56.2584 182.352 56.3544 182.256C56.461 182.16 56.5997 182.112 56.7704 182.112H57.2344C57.4157 182.112 57.5544 182.16 57.6504 182.256C57.7464 182.352 57.7944 182.491 57.7944 182.672V183.264C58.3597 182.357 59.229 181.904 60.4024 181.904ZM60.0504 188.736C60.6904 188.736 61.2024 188.496 61.5864 188.016C61.9704 187.525 62.1624 186.869 62.1624 186.048C62.1624 185.237 61.9704 184.587 61.5864 184.096C61.213 183.605 60.7064 183.36 60.0664 183.36C59.4157 183.36 58.8824 183.6 58.4664 184.08C58.0504 184.56 57.8424 185.216 57.8424 186.048C57.8424 186.88 58.0504 187.536 58.4664 188.016C58.8824 188.496 59.4104 188.736 60.0504 188.736ZM69.0749 190.24C68.2962 190.24 67.6029 190.064 66.9949 189.712C66.3975 189.36 65.9282 188.869 65.5869 188.24C65.2455 187.6 65.0749 186.869 65.0749 186.048C65.0749 185.227 65.2455 184.501 65.5869 183.872C65.9282 183.243 66.3975 182.752 66.9949 182.4C67.6029 182.048 68.2962 181.872 69.0749 181.872C69.8429 181.872 70.5309 182.048 71.1389 182.4C71.7469 182.752 72.2215 183.248 72.5629 183.888C72.9042 184.517 73.0749 185.237 73.0749 186.048C73.0749 186.869 72.9042 187.6 72.5629 188.24C72.2215 188.869 71.7469 189.36 71.1389 189.712C70.5309 190.064 69.8429 190.24 69.0749 190.24ZM69.0749 188.816C69.7575 188.816 70.3069 188.565 70.7229 188.064C71.1389 187.552 71.3469 186.88 71.3469 186.048C71.3469 185.227 71.1389 184.565 70.7229 184.064C70.3069 183.563 69.7575 183.312 69.0749 183.312C68.3922 183.312 67.8429 183.563 67.4269 184.064C67.0109 184.565 66.8029 185.227 66.8029 186.048C66.8029 186.88 67.0109 187.552 67.4269 188.064C67.8429 188.565 68.3922 188.816 69.0749 188.816ZM77.6098 190.24C76.9591 190.24 76.3778 190.16 75.8658 190C75.3644 189.829 74.8524 189.536 74.3298 189.12C74.1698 189.003 74.0898 188.869 74.0898 188.72C74.0898 188.603 74.1484 188.475 74.2658 188.336L74.5058 188.064C74.6338 187.915 74.7724 187.84 74.9218 187.84C75.0391 187.84 75.1671 187.893 75.3058 188C75.7538 188.331 76.1484 188.56 76.4898 188.688C76.8311 188.805 77.2151 188.864 77.6418 188.864C78.1004 188.864 78.4738 188.773 78.7618 188.592C79.0604 188.4 79.2098 188.144 79.2098 187.824C79.2098 187.579 79.1244 187.387 78.9538 187.248C78.7938 187.099 78.5804 186.987 78.3138 186.912C78.0471 186.827 77.6524 186.731 77.1298 186.624C76.3938 186.464 75.8178 186.293 75.4018 186.112C74.9964 185.92 74.7031 185.68 74.5218 185.392C74.3404 185.104 74.2498 184.736 74.2498 184.288C74.2498 183.829 74.3778 183.419 74.6338 183.056C74.9004 182.693 75.2684 182.405 75.7378 182.192C76.2178 181.979 76.7778 181.872 77.4178 181.872C77.9938 181.872 78.5058 181.936 78.9538 182.064C79.4124 182.192 79.8604 182.411 80.2978 182.72C80.4684 182.848 80.5538 182.992 80.5538 183.152C80.5538 183.259 80.5004 183.381 80.3938 183.52L80.1858 183.776C80.0684 183.925 79.9244 184 79.7538 184C79.6258 184 79.5031 183.957 79.3858 183.872C79.0338 183.637 78.7084 183.477 78.4098 183.392C78.1111 183.296 77.7751 183.248 77.4018 183.248C76.9431 183.248 76.5751 183.339 76.2978 183.52C76.0204 183.701 75.8818 183.936 75.8818 184.224C75.8818 184.416 75.9458 184.571 76.0738 184.688C76.2124 184.795 76.4044 184.891 76.6498 184.976C76.9058 185.051 77.3058 185.147 77.8498 185.264C78.5858 185.424 79.1671 185.605 79.5938 185.808C80.0311 186 80.3511 186.251 80.5538 186.56C80.7671 186.859 80.8738 187.248 80.8738 187.728C80.8738 188.475 80.5751 189.083 79.9778 189.552C79.3911 190.011 78.6018 190.24 77.6098 190.24ZM86.1121 188.656C86.1441 188.645 86.1921 188.64 86.2561 188.64C86.5228 188.64 86.6828 188.795 86.7361 189.104L86.7841 189.36C86.7948 189.392 86.8001 189.445 86.8001 189.52C86.8001 189.787 86.6508 189.957 86.3521 190.032C85.9255 190.128 85.5361 190.176 85.1841 190.176C84.4268 190.176 83.8775 190 83.5361 189.648C83.2055 189.296 83.0401 188.768 83.0401 188.064V183.408H82.1601C81.9895 183.408 81.8508 183.36 81.7441 183.264C81.6481 183.157 81.6001 183.019 81.6001 182.848V182.672C81.6001 182.491 81.6481 182.352 81.7441 182.256C81.8508 182.16 81.9895 182.112 82.1601 182.112H83.0401V180.128C83.0401 179.947 83.0881 179.808 83.1841 179.712C83.2908 179.616 83.4295 179.568 83.6001 179.568H84.1761C84.3575 179.568 84.4961 179.616 84.5921 179.712C84.6881 179.808 84.7361 179.947 84.7361 180.128V182.112H86.1761C86.3575 182.112 86.4961 182.16 86.5921 182.256C86.6881 182.352 86.7361 182.491 86.7361 182.672V182.848C86.7361 183.019 86.6881 183.157 86.5921 183.264C86.4961 183.36 86.3575 183.408 86.1761 183.408H84.7361V187.856C84.7361 188.165 84.8001 188.384 84.9281 188.512C85.0668 188.64 85.2855 188.704 85.5841 188.704C85.7121 188.704 85.8881 188.688 86.1121 188.656ZM93.5303 187.984C93.6689 187.867 93.8023 187.808 93.9303 187.808C94.0583 187.808 94.1916 187.877 94.3303 188.016L94.5543 188.256C94.6716 188.395 94.7303 188.528 94.7303 188.656C94.7303 188.795 94.6609 188.928 94.5223 189.056C94.0316 189.483 93.5409 189.787 93.0503 189.968C92.5703 190.149 92.0369 190.24 91.4503 190.24C90.6289 190.24 89.9143 190.069 89.3063 189.728C88.7089 189.387 88.2449 188.907 87.9143 188.288C87.5943 187.659 87.4342 186.933 87.4342 186.112C87.4342 185.301 87.5889 184.576 87.8983 183.936C88.2183 183.285 88.6663 182.779 89.2423 182.416C89.8289 182.053 90.5116 181.872 91.2903 181.872C92.4529 181.872 93.3489 182.219 93.9783 182.912C94.6076 183.595 94.9223 184.539 94.9223 185.744V185.888C94.9116 186.059 94.8583 186.192 94.7623 186.288C94.6663 186.384 94.5276 186.432 94.3463 186.432H89.0983C89.1623 187.136 89.3916 187.712 89.7863 188.16C90.1916 188.597 90.7569 188.816 91.4823 188.816C91.8769 188.816 92.2236 188.757 92.5223 188.64C92.8209 188.512 93.1569 188.293 93.5303 187.984ZM91.2583 183.216C90.6716 183.216 90.1969 183.392 89.8343 183.744C89.4823 184.085 89.2529 184.571 89.1463 185.2H93.2583C93.2156 184.581 93.0236 184.096 92.6823 183.744C92.3409 183.392 91.8663 183.216 91.2583 183.216ZM100.492 181.872C101.399 181.872 102.092 182.128 102.572 182.64C103.063 183.141 103.308 183.792 103.308 184.592V189.44C103.308 189.611 103.26 189.749 103.164 189.856C103.068 189.952 102.929 190 102.748 190H102.172C102.001 190 101.863 189.952 101.756 189.856C101.66 189.749 101.612 189.611 101.612 189.44V185.12C101.612 184.544 101.468 184.101 101.18 183.792C100.903 183.483 100.503 183.328 99.98 183.328C99.468 183.328 99.036 183.504 98.684 183.856C98.3427 184.208 98.172 184.651 98.172 185.184V189.44C98.172 189.611 98.124 189.749 98.028 189.856C97.932 189.952 97.7933 190 97.612 190H97.036C96.8653 190 96.7267 189.952 96.62 189.856C96.524 189.749 96.476 189.611 96.476 189.44V182.672C96.476 182.491 96.524 182.352 96.62 182.256C96.7267 182.16 96.8653 182.112 97.036 182.112H97.5C97.6813 182.112 97.82 182.16 97.916 182.256C98.012 182.352 98.06 182.491 98.06 182.672V183.088C98.316 182.693 98.652 182.395 99.068 182.192C99.484 181.979 99.9587 181.872 100.492 181.872Z" fill="#464646"/>
</g>
<path d="M136 211H0V213H136V211Z" fill="#E1E6EE" mask="url(#path-12-inside-4_2322_31148)"/>
<g clip-path="url(#clip5_2322_31148)">
<path d="M25.392 244C25.072 244 24.8587 243.851 24.752 243.552L24 241.392H18.976L18.224 243.552C18.1173 243.851 17.904 244 17.584 244H16.912C16.752 244 16.624 243.968 16.528 243.904C16.4427 243.829 16.4 243.728 16.4 243.6C16.4 243.536 16.416 243.456 16.448 243.36L20.16 233.088C20.2667 232.789 20.48 232.64 20.8 232.64H22.224C22.544 232.64 22.7573 232.789 22.864 233.088L26.576 243.36C26.608 243.456 26.624 243.536 26.624 243.6C26.624 243.728 26.576 243.829 26.48 243.904C26.3947 243.968 26.272 244 26.112 244H25.392ZM23.488 239.872L22.992 238.464C22.9813 238.443 22.864 238.107 22.64 237.456C22.0747 235.856 21.6907 234.715 21.488 234.032C21.1787 235.013 20.768 236.229 20.256 237.68L19.984 238.48L19.504 239.872H23.488ZM32.0233 235.872C32.9299 235.872 33.6233 236.128 34.1033 236.64C34.5939 237.141 34.8393 237.792 34.8393 238.592V243.44C34.8393 243.611 34.7913 243.749 34.6953 243.856C34.5993 243.952 34.4606 244 34.2793 244H33.7033C33.5326 244 33.3939 243.952 33.2873 243.856C33.1913 243.749 33.1433 243.611 33.1433 243.44V239.12C33.1433 238.544 32.9993 238.101 32.7113 237.792C32.4339 237.483 32.0339 237.328 31.5113 237.328C30.9993 237.328 30.5673 237.504 30.2153 237.856C29.8739 238.208 29.7033 238.651 29.7033 239.184V243.44C29.7033 243.611 29.6553 243.749 29.5593 243.856C29.4633 243.952 29.3246 244 29.1432 244H28.5673C28.3966 244 28.2579 243.952 28.1513 243.856C28.0553 243.749 28.0073 243.611 28.0073 243.44V236.672C28.0073 236.491 28.0553 236.352 28.1513 236.256C28.2579 236.16 28.3966 236.112 28.5673 236.112H29.0312C29.2126 236.112 29.3513 236.16 29.4473 236.256C29.5433 236.352 29.5913 236.491 29.5913 236.672V237.088C29.8473 236.693 30.1833 236.395 30.5993 236.192C31.0153 235.979 31.4899 235.872 32.0233 235.872ZM42.3405 233.184C42.3405 233.003 42.3885 232.864 42.4845 232.768C42.5912 232.672 42.7298 232.624 42.9005 232.624H43.4765C43.6578 232.624 43.7965 232.672 43.8925 232.768C43.9885 232.864 44.0365 233.003 44.0365 233.184V243.44C44.0365 243.611 43.9885 243.749 43.8925 243.856C43.7965 243.952 43.6578 244 43.4765 244H43.0125C42.8418 244 42.7032 243.952 42.5965 243.856C42.5005 243.749 42.4525 243.611 42.4525 243.44V242.88C41.8978 243.776 41.0285 244.224 39.8445 244.224C39.1832 244.224 38.5858 244.053 38.0525 243.712C37.5298 243.371 37.1192 242.885 36.8205 242.256C36.5218 241.627 36.3725 240.896 36.3725 240.064C36.3725 239.243 36.5218 238.517 36.8205 237.888C37.1298 237.259 37.5512 236.773 38.0845 236.432C38.6178 236.091 39.2152 235.92 39.8765 235.92C40.9645 235.92 41.7858 236.299 42.3405 237.056V233.184ZM40.1965 242.768C40.8472 242.768 41.3805 242.528 41.7965 242.048C42.2125 241.557 42.4205 240.896 42.4205 240.064C42.4205 239.232 42.2125 238.576 41.7965 238.096C41.3805 237.616 40.8472 237.376 40.1965 237.376C39.5672 237.376 39.0605 237.621 38.6765 238.112C38.2925 238.603 38.1005 239.253 38.1005 240.064C38.1005 240.885 38.2872 241.541 38.6605 242.032C39.0445 242.523 39.5565 242.768 40.1965 242.768ZM49.5593 236.032C49.7939 236.032 50.0339 236.059 50.2793 236.112C50.5673 236.176 50.7113 236.347 50.7113 236.624C50.7113 236.699 50.7059 236.752 50.6953 236.784L50.6153 237.168C50.5513 237.467 50.3913 237.616 50.1353 237.616L49.9913 237.6C49.7993 237.568 49.6286 237.552 49.4793 237.552C48.9459 237.552 48.5139 237.765 48.1833 238.192C47.8633 238.608 47.7033 239.189 47.7033 239.936V243.44C47.7033 243.611 47.6553 243.749 47.5593 243.856C47.4633 243.952 47.3246 244 47.1432 244H46.5673C46.3966 244 46.2579 243.952 46.1513 243.856C46.0553 243.749 46.0073 243.611 46.0073 243.44V236.672C46.0073 236.491 46.0553 236.352 46.1513 236.256C46.2579 236.16 46.3966 236.112 46.5673 236.112H47.0312C47.2126 236.112 47.3513 236.16 47.4473 236.256C47.5433 236.352 47.5913 236.491 47.5913 236.672V237.296C47.7833 236.901 48.0446 236.592 48.3753 236.368C48.7059 236.144 49.1006 236.032 49.5593 236.032ZM57.2178 241.984C57.3564 241.867 57.4898 241.808 57.6178 241.808C57.7458 241.808 57.8791 241.877 58.0178 242.016L58.2418 242.256C58.3591 242.395 58.4178 242.528 58.4178 242.656C58.4178 242.795 58.3484 242.928 58.2098 243.056C57.7191 243.483 57.2284 243.787 56.7378 243.968C56.2578 244.149 55.7244 244.24 55.1378 244.24C54.3164 244.24 53.6018 244.069 52.9938 243.728C52.3964 243.387 51.9324 242.907 51.6018 242.288C51.2818 241.659 51.1217 240.933 51.1217 240.112C51.1217 239.301 51.2764 238.576 51.5858 237.936C51.9058 237.285 52.3538 236.779 52.9298 236.416C53.5164 236.053 54.1991 235.872 54.9778 235.872C56.1404 235.872 57.0364 236.219 57.6658 236.912C58.2951 237.595 58.6098 238.539 58.6098 239.744V239.888C58.5991 240.059 58.5458 240.192 58.4498 240.288C58.3538 240.384 58.2151 240.432 58.0338 240.432H52.7858C52.8498 241.136 53.0791 241.712 53.4738 242.16C53.8791 242.597 54.4444 242.816 55.1698 242.816C55.5644 242.816 55.9111 242.757 56.2098 242.64C56.5084 242.512 56.8444 242.293 57.2178 241.984ZM54.9458 237.216C54.3591 237.216 53.8844 237.392 53.5218 237.744C53.1698 238.085 52.9404 238.571 52.8338 239.2H56.9458C56.9031 238.581 56.7111 238.096 56.3698 237.744C56.0284 237.392 55.5538 237.216 54.9458 237.216ZM69.5816 244C69.283 244 69.059 243.877 68.9096 243.632L66.7016 240.208L65.4376 241.488V243.44C65.4376 243.611 65.3896 243.749 65.2936 243.856C65.1976 243.952 65.059 244 64.8776 244H64.3016C64.131 244 63.9923 243.952 63.8856 243.856C63.7896 243.749 63.7416 243.611 63.7416 243.44V233.2C63.7416 233.019 63.7896 232.88 63.8856 232.784C63.9923 232.688 64.131 232.64 64.3016 232.64H64.8776C65.059 232.64 65.1976 232.688 65.2936 232.784C65.3896 232.88 65.4376 233.019 65.4376 233.2V239.616L68.4616 236.416C68.6536 236.213 68.8883 236.112 69.1656 236.112H69.7736C69.9336 236.112 70.051 236.144 70.1256 236.208C70.211 236.261 70.2536 236.336 70.2536 236.432C70.2536 236.56 70.195 236.683 70.0776 236.8L67.8696 239.104L70.5896 243.328C70.6643 243.445 70.7016 243.552 70.7016 243.648C70.7016 243.755 70.659 243.84 70.5736 243.904C70.4883 243.968 70.371 244 70.2216 244H69.5816ZM75.3196 235.872C76.3863 235.872 77.2076 236.123 77.7836 236.624C78.3596 237.115 78.6476 237.771 78.6476 238.592V243.44C78.6476 243.611 78.5996 243.749 78.5036 243.856C78.4076 243.952 78.269 244 78.0876 244H77.6716C77.501 244 77.3623 243.952 77.2556 243.856C77.1596 243.749 77.1116 243.611 77.1116 243.44V243.088C76.8556 243.461 76.5036 243.749 76.0556 243.952C75.6076 244.155 75.085 244.256 74.4876 244.256C73.6663 244.256 72.989 244.075 72.4556 243.712C71.933 243.339 71.6716 242.779 71.6716 242.032C71.6716 241.2 71.981 240.587 72.5996 240.192C73.229 239.787 74.0983 239.483 75.2076 239.28L77.0156 238.944V238.656C77.0156 238.219 76.861 237.883 76.5516 237.648C76.253 237.403 75.853 237.28 75.3516 237.28C74.925 237.28 74.5516 237.355 74.2316 237.504C73.9223 237.643 73.5863 237.877 73.2236 238.208C73.085 238.325 72.9516 238.384 72.8236 238.384C72.6956 238.384 72.5623 238.325 72.4236 238.208L72.1676 237.984C72.029 237.856 71.9596 237.717 71.9596 237.568C71.9596 237.429 72.0236 237.296 72.1516 237.168C72.6103 236.731 73.0956 236.405 73.6076 236.192C74.1196 235.979 74.6903 235.872 75.3196 235.872ZM74.7276 242.896C75.3676 242.896 75.9063 242.725 76.3436 242.384C76.7916 242.043 77.0156 241.552 77.0156 240.912V240.176L75.6236 240.464C74.845 240.624 74.269 240.805 73.8956 241.008C73.5223 241.211 73.3356 241.52 73.3356 241.936C73.3356 242.235 73.4583 242.469 73.7036 242.64C73.949 242.811 74.2903 242.896 74.7276 242.896ZM84.6014 235.872C85.508 235.872 86.2014 236.128 86.6814 236.64C87.172 237.141 87.4174 237.792 87.4174 238.592V243.44C87.4174 243.611 87.3694 243.749 87.2734 243.856C87.1774 243.952 87.0387 244 86.8574 244H86.2814C86.1107 244 85.972 243.952 85.8654 243.856C85.7694 243.749 85.7214 243.611 85.7214 243.44V239.12C85.7214 238.544 85.5774 238.101 85.2894 237.792C85.012 237.483 84.612 237.328 84.0894 237.328C83.5774 237.328 83.1454 237.504 82.7934 237.856C82.452 238.208 82.2814 238.651 82.2814 239.184V243.44C82.2814 243.611 82.2334 243.749 82.1374 243.856C82.0414 243.952 81.9027 244 81.7214 244H81.1454C80.9747 244 80.836 243.952 80.7294 243.856C80.6334 243.749 80.5854 243.611 80.5854 243.44V236.672C80.5854 236.491 80.6334 236.352 80.7294 236.256C80.836 236.16 80.9747 236.112 81.1454 236.112H81.6094C81.7907 236.112 81.9294 236.16 82.0254 236.256C82.1214 236.352 82.1694 236.491 82.1694 236.672V237.088C82.4254 236.693 82.7614 236.395 83.1774 236.192C83.5934 235.979 84.068 235.872 84.6014 235.872ZM92.6946 235.872C93.7613 235.872 94.5826 236.123 95.1586 236.624C95.7346 237.115 96.0226 237.771 96.0226 238.592V243.44C96.0226 243.611 95.9746 243.749 95.8786 243.856C95.7826 243.952 95.644 244 95.4626 244H95.0466C94.876 244 94.7373 243.952 94.6306 243.856C94.5346 243.749 94.4866 243.611 94.4866 243.44V243.088C94.2306 243.461 93.8786 243.749 93.4306 243.952C92.9826 244.155 92.46 244.256 91.8626 244.256C91.0413 244.256 90.364 244.075 89.8306 243.712C89.308 243.339 89.0466 242.779 89.0466 242.032C89.0466 241.2 89.356 240.587 89.9746 240.192C90.604 239.787 91.4733 239.483 92.5826 239.28L94.3906 238.944V238.656C94.3906 238.219 94.236 237.883 93.9266 237.648C93.628 237.403 93.228 237.28 92.7266 237.28C92.3 237.28 91.9266 237.355 91.6066 237.504C91.2973 237.643 90.9613 237.877 90.5986 238.208C90.46 238.325 90.3266 238.384 90.1986 238.384C90.0706 238.384 89.9373 238.325 89.7986 238.208L89.5426 237.984C89.404 237.856 89.3346 237.717 89.3346 237.568C89.3346 237.429 89.3986 237.296 89.5266 237.168C89.9853 236.731 90.4706 236.405 90.9826 236.192C91.4946 235.979 92.0653 235.872 92.6946 235.872ZM92.1026 242.896C92.7426 242.896 93.2813 242.725 93.7186 242.384C94.1666 242.043 94.3906 241.552 94.3906 240.912V240.176L92.9986 240.464C92.22 240.624 91.644 240.805 91.2706 241.008C90.8973 241.211 90.7106 241.52 90.7106 241.936C90.7106 242.235 90.8333 242.469 91.0786 242.64C91.324 242.811 91.6653 242.896 92.1026 242.896ZM98.5844 244C98.4137 244 98.275 243.952 98.1684 243.856C98.0724 243.749 98.0244 243.611 98.0244 243.44V233.2C98.0244 233.019 98.0724 232.88 98.1684 232.784C98.275 232.688 98.4137 232.64 98.5844 232.64H99.1604C99.3417 232.64 99.4804 232.688 99.5764 232.784C99.6724 232.88 99.7204 233.019 99.7204 233.2V243.44C99.7204 243.611 99.6724 243.749 99.5764 243.856C99.4804 243.952 99.3417 244 99.1604 244H98.5844ZM107.39 241.984C107.528 241.867 107.662 241.808 107.79 241.808C107.918 241.808 108.051 241.877 108.19 242.016L108.414 242.256C108.531 242.395 108.59 242.528 108.59 242.656C108.59 242.795 108.52 242.928 108.382 243.056C107.891 243.483 107.4 243.787 106.91 243.968C106.43 244.149 105.896 244.24 105.31 244.24C104.488 244.24 103.774 244.069 103.166 243.728C102.568 243.387 102.104 242.907 101.774 242.288C101.454 241.659 101.294 240.933 101.294 240.112C101.294 239.301 101.448 238.576 101.758 237.936C102.078 237.285 102.526 236.779 103.102 236.416C103.688 236.053 104.371 235.872 105.15 235.872C106.312 235.872 107.208 236.219 107.838 236.912C108.467 237.595 108.782 238.539 108.782 239.744V239.888C108.771 240.059 108.718 240.192 108.622 240.288C108.526 240.384 108.387 240.432 108.206 240.432H102.958C103.022 241.136 103.251 241.712 103.646 242.16C104.051 242.597 104.616 242.816 105.342 242.816C105.736 242.816 106.083 242.757 106.382 242.64C106.68 242.512 107.016 242.293 107.39 241.984ZM105.118 237.216C104.531 237.216 104.056 237.392 103.694 237.744C103.342 238.085 103.112 238.571 103.006 239.2H107.118C107.075 238.581 106.883 238.096 106.542 237.744C106.2 237.392 105.726 237.216 105.118 237.216ZM113.887 236.032C114.122 236.032 114.362 236.059 114.607 236.112C114.895 236.176 115.039 236.347 115.039 236.624C115.039 236.699 115.034 236.752 115.023 236.784L114.943 237.168C114.879 237.467 114.719 237.616 114.463 237.616L114.319 237.6C114.127 237.568 113.957 237.552 113.807 237.552C113.274 237.552 112.842 237.765 112.511 238.192C112.191 238.608 112.031 239.189 112.031 239.936V243.44C112.031 243.611 111.983 243.749 111.887 243.856C111.791 243.952 111.653 244 111.471 244H110.895C110.725 244 110.586 243.952 110.479 243.856C110.383 243.749 110.335 243.611 110.335 243.44V236.672C110.335 236.491 110.383 236.352 110.479 236.256C110.586 236.16 110.725 236.112 110.895 236.112H111.359C111.541 236.112 111.679 236.16 111.775 236.256C111.871 236.352 111.919 236.491 111.919 236.672V237.296C112.111 236.901 112.373 236.592 112.703 236.368C113.034 236.144 113.429 236.032 113.887 236.032Z" fill="#464646"/>
</g>
<path d="M136 265H0V267H136V265Z" fill="#E1E6EE" mask="url(#path-15-inside-5_2322_31148)"/>
<mask id="path-18-inside-6_2322_31148" fill="white">
<path d="M136 0H262V50H136V0Z"/>
</mask>
<path d="M136 0H262V50H136V0Z" fill="white"/>
<path d="M189 35.7778V29.1111" stroke="#0063FB" stroke-width="1.5" stroke-linecap="round"/>
<path d="M185.25 33.5555L189 36.8889L192.75 33.5555" stroke="#0063FB" stroke-width="1.5" stroke-linecap="round"/>
<path d="M205.491 38C205.229 38 205.033 37.8927 204.903 37.678L201.893 33.044L200.227 34.78V37.51C200.227 37.6593 200.185 37.7807 200.101 37.874C200.017 37.958 199.895 38 199.737 38H199.121C198.971 38 198.85 37.958 198.757 37.874C198.673 37.7807 198.631 37.6593 198.631 37.51V28.55C198.631 28.3913 198.673 28.27 198.757 28.186C198.85 28.102 198.971 28.06 199.121 28.06H199.737C199.895 28.06 200.017 28.102 200.101 28.186C200.185 28.27 200.227 28.3913 200.227 28.55V32.862L204.483 28.326C204.651 28.1487 204.856 28.06 205.099 28.06H205.855C205.995 28.06 206.097 28.088 206.163 28.144C206.237 28.1907 206.275 28.256 206.275 28.34C206.275 28.452 206.223 28.5593 206.121 28.662L202.985 31.924L206.541 37.412C206.606 37.5147 206.639 37.608 206.639 37.692C206.639 37.7853 206.601 37.86 206.527 37.916C206.452 37.972 206.349 38 206.219 38H205.491ZM208.373 38C208.223 38 208.102 37.958 208.009 37.874C207.925 37.7807 207.883 37.6593 207.883 37.51V28.55C207.883 28.3913 207.925 28.27 208.009 28.186C208.102 28.102 208.223 28.06 208.373 28.06H208.877C209.035 28.06 209.157 28.102 209.241 28.186C209.325 28.27 209.367 28.3913 209.367 28.55V37.51C209.367 37.6593 209.325 37.7807 209.241 37.874C209.157 37.958 209.035 38 208.877 38H208.373ZM211.891 29.754C211.621 29.754 211.392 29.6653 211.205 29.488C211.019 29.3013 210.925 29.082 210.925 28.83C210.925 28.5687 211.019 28.3493 211.205 28.172C211.392 27.9947 211.621 27.906 211.891 27.906C212.162 27.906 212.391 27.9947 212.577 28.172C212.764 28.3493 212.857 28.5687 212.857 28.83C212.857 29.082 212.764 29.3013 212.577 29.488C212.391 29.6653 212.162 29.754 211.891 29.754ZM211.625 38C211.476 38 211.355 37.958 211.261 37.874C211.177 37.7807 211.135 37.6593 211.135 37.51V31.588C211.135 31.4293 211.177 31.308 211.261 31.224C211.355 31.14 211.476 31.098 211.625 31.098H212.129C212.288 31.098 212.409 31.14 212.493 31.224C212.577 31.308 212.619 31.4293 212.619 31.588V37.51C212.619 37.6593 212.577 37.7807 212.493 37.874C212.409 37.958 212.288 38 212.129 38H211.625ZM219.444 38C219.183 38 218.987 37.8927 218.856 37.678L216.924 34.682L215.818 35.802V37.51C215.818 37.6593 215.776 37.7807 215.692 37.874C215.608 37.958 215.487 38 215.328 38H214.824C214.675 38 214.554 37.958 214.46 37.874C214.376 37.7807 214.334 37.6593 214.334 37.51V28.55C214.334 28.3913 214.376 28.27 214.46 28.186C214.554 28.102 214.675 28.06 214.824 28.06H215.328C215.487 28.06 215.608 28.102 215.692 28.186C215.776 28.27 215.818 28.3913 215.818 28.55V34.164L218.464 31.364C218.632 31.1867 218.838 31.098 219.08 31.098H219.612C219.752 31.098 219.855 31.126 219.92 31.182C219.995 31.2287 220.032 31.294 220.032 31.378C220.032 31.49 219.981 31.5973 219.878 31.7L217.946 33.716L220.326 37.412C220.392 37.5147 220.424 37.608 220.424 37.692C220.424 37.7853 220.387 37.86 220.312 37.916C220.238 37.972 220.135 38 220.004 38H219.444ZM226.704 38C226.443 38 226.247 37.8927 226.116 37.678L224.184 34.682L223.078 35.802V37.51C223.078 37.6593 223.036 37.7807 222.952 37.874C222.868 37.958 222.747 38 222.588 38H222.084C221.935 38 221.814 37.958 221.72 37.874C221.636 37.7807 221.594 37.6593 221.594 37.51V28.55C221.594 28.3913 221.636 28.27 221.72 28.186C221.814 28.102 221.935 28.06 222.084 28.06H222.588C222.747 28.06 222.868 28.102 222.952 28.186C223.036 28.27 223.078 28.3913 223.078 28.55V34.164L225.724 31.364C225.892 31.1867 226.098 31.098 226.34 31.098H226.872C227.012 31.098 227.115 31.126 227.18 31.182C227.255 31.2287 227.292 31.294 227.292 31.378C227.292 31.49 227.241 31.5973 227.138 31.7L225.206 33.716L227.586 37.412C227.652 37.5147 227.684 37.608 227.684 37.692C227.684 37.7853 227.647 37.86 227.572 37.916C227.498 37.972 227.395 38 227.264 38H226.704Z" fill="#0063FB"/>
<circle cx="238" cy="33" r="5.25" stroke="#767676" stroke-width="1.5"/>
<path d="M238 30.6V31.2" stroke="#767676" stroke-width="1.5" stroke-linecap="round" stroke-linejoin="round"/>
<path d="M238 33V35.4" stroke="#767676" stroke-width="1.5" stroke-linecap="round" stroke-linejoin="round"/>
<path d="M262 49H136V51H262V49Z" fill="#C3CCD9" mask="url(#path-18-inside-6_2322_31148)"/>
<g clip-path="url(#clip6_2322_31148)">
<mask id="path-26-inside-7_2322_31148" fill="white">
<path d="M136 50H262V104H136V50Z"/>
</mask>
<path d="M136 50H262V104H136V50Z" fill="white"/>
<path d="M217.206 78.336C217.419 78.336 217.526 78.4427 217.526 78.656V78.928C217.526 79.1413 217.419 79.248 217.206 79.248H215.782V81.68C215.782 81.8933 215.675 82 215.462 82H215.046C214.833 82 214.726 81.8933 214.726 81.68V79.248H209.222C209.009 79.248 208.902 79.1413 208.902 78.928V78.512C208.902 78.3947 208.939 78.2667 209.014 78.128L213.59 70.848C213.675 70.7093 213.803 70.64 213.974 70.64H214.486C214.571 70.64 214.641 70.6613 214.694 70.704C214.747 70.736 214.774 70.784 214.774 70.848C214.774 70.88 214.753 70.9387 214.71 71.024L210.086 78.336H214.726V75.92C214.726 75.7067 214.833 75.6 215.046 75.6H215.462C215.675 75.6 215.782 75.7067 215.782 75.92V78.336H217.206ZM222.758 74.672C223.494 74.672 224.139 74.8267 224.694 75.136C225.259 75.4347 225.696 75.8613 226.006 76.416C226.315 76.9707 226.47 77.6107 226.47 78.336C226.47 78.9867 226.315 79.6107 226.006 80.208C225.696 80.8053 225.248 81.2907 224.662 81.664C224.075 82.0373 223.387 82.224 222.598 82.224C221.83 82.224 221.163 82.128 220.598 81.936C220.043 81.744 219.414 81.4133 218.71 80.944C218.603 80.88 218.55 80.7947 218.55 80.688C218.55 80.6133 218.571 80.5493 218.614 80.496L218.822 80.208C218.886 80.112 218.96 80.064 219.046 80.064C219.11 80.064 219.184 80.0907 219.27 80.144C219.92 80.5813 220.475 80.8853 220.934 81.056C221.403 81.2267 221.92 81.312 222.486 81.312C223.083 81.312 223.6 81.1787 224.038 80.912C224.475 80.6347 224.806 80.272 225.03 79.824C225.264 79.3653 225.382 78.8693 225.382 78.336C225.382 77.4827 225.142 76.816 224.662 76.336C224.192 75.856 223.515 75.616 222.63 75.616C221.68 75.616 220.886 75.904 220.246 76.48C220.128 76.5867 219.99 76.6293 219.83 76.608L219.478 76.56C219.382 76.5493 219.307 76.512 219.254 76.448C219.2 76.384 219.179 76.304 219.19 76.208L219.622 70.944C219.632 70.848 219.664 70.7733 219.718 70.72C219.782 70.6667 219.862 70.64 219.958 70.64H225.654C225.867 70.64 225.974 70.7467 225.974 70.96V71.248C225.974 71.4613 225.867 71.568 225.654 71.568H220.566L220.23 75.504C220.528 75.2587 220.891 75.0613 221.318 74.912C221.755 74.752 222.235 74.672 222.758 74.672ZM232.479 74.576C233.258 74.576 233.935 74.752 234.511 75.104C235.087 75.4453 235.525 75.9093 235.823 76.496C236.133 77.072 236.287 77.7067 236.287 78.4C236.287 79.0827 236.127 79.7173 235.807 80.304C235.487 80.8907 235.023 81.36 234.415 81.712C233.818 82.064 233.114 82.24 232.303 82.24C231.45 82.24 230.719 82.048 230.111 81.664C229.503 81.28 229.045 80.7627 228.735 80.112C228.426 79.4613 228.271 78.7307 228.271 77.92C228.271 76.6827 228.57 75.5733 229.167 74.592C229.775 73.6 230.645 72.56 231.775 71.472L232.495 70.8C232.602 70.6933 232.73 70.64 232.879 70.64H233.519C233.701 70.64 233.791 70.6987 233.791 70.816C233.791 70.88 233.749 70.9547 233.663 71.04L232.655 71.968C231.045 73.4613 230.01 74.7893 229.551 75.952C229.861 75.5253 230.266 75.1893 230.767 74.944C231.269 74.6987 231.839 74.576 232.479 74.576ZM232.303 81.312C232.89 81.312 233.402 81.184 233.839 80.928C234.277 80.672 234.607 80.3253 234.831 79.888C235.066 79.4507 235.183 78.96 235.183 78.416C235.183 77.5733 234.938 76.88 234.447 76.336C233.957 75.792 233.274 75.52 232.399 75.52C231.781 75.52 231.247 75.648 230.799 75.904C230.351 76.1493 230.005 76.496 229.759 76.944C229.525 77.3813 229.407 77.872 229.407 78.416C229.407 78.96 229.525 79.4507 229.759 79.888C229.994 80.3253 230.33 80.672 230.767 80.928C231.205 81.184 231.717 81.312 232.303 81.312ZM245.003 81.072C245.217 81.072 245.323 81.1787 245.323 81.392V81.68C245.323 81.8933 245.217 82 245.003 82H237.899C237.686 82 237.579 81.8933 237.579 81.68V81.616C237.579 80.8373 237.713 80.1813 237.979 79.648C238.257 79.104 238.614 78.6453 239.051 78.272C239.499 77.8987 240.113 77.472 240.891 76.992C240.966 76.9387 241.243 76.7733 241.723 76.496C242.289 76.176 242.731 75.8987 243.051 75.664C243.371 75.4293 243.638 75.1413 243.851 74.8C244.065 74.448 244.171 74.0373 244.171 73.568C244.171 72.8533 243.931 72.304 243.451 71.92C242.971 71.536 242.39 71.344 241.707 71.344C241.046 71.344 240.497 71.4827 240.059 71.76C239.622 72.0373 239.115 72.5173 238.539 73.2C238.465 73.296 238.374 73.344 238.267 73.344C238.214 73.344 238.15 73.3173 238.075 73.264L237.803 73.056C237.707 72.9707 237.659 72.8853 237.659 72.8C237.659 72.7467 237.686 72.6827 237.739 72.608C238.305 71.8933 238.891 71.3493 239.499 70.976C240.118 70.6027 240.843 70.416 241.675 70.416C242.369 70.416 242.987 70.5493 243.531 70.816C244.075 71.072 244.497 71.44 244.795 71.92C245.105 72.3893 245.259 72.9227 245.259 73.52C245.259 74.1493 245.126 74.6933 244.859 75.152C244.603 75.6 244.278 75.9733 243.883 76.272C243.489 76.56 242.955 76.9013 242.283 77.296L241.483 77.776C240.811 78.192 240.299 78.5333 239.947 78.8C239.595 79.056 239.302 79.3707 239.067 79.744C238.833 80.1067 238.694 80.5493 238.651 81.072H245.003Z" fill="#464646"/>
</g>
<path d="M262 103H136V105H262V103Z" fill="#E1E6EE" mask="url(#path-26-inside-7_2322_31148)"/>
<g clip-path="url(#clip7_2322_31148)">
<path d="M212.624 129.248C213.754 129.248 214.672 129.536 215.376 130.112C216.08 130.688 216.432 131.509 216.432 132.576C216.432 133.173 216.282 133.755 215.984 134.32C215.696 134.885 215.264 135.349 214.688 135.712C214.112 136.064 213.418 136.24 212.608 136.24C211.936 136.24 211.29 136.144 210.672 135.952C210.064 135.749 209.44 135.445 208.8 135.04C208.693 134.976 208.64 134.891 208.64 134.784C208.64 134.709 208.661 134.645 208.704 134.592L208.912 134.304C208.976 134.208 209.056 134.16 209.152 134.16C209.237 134.16 209.306 134.181 209.36 134.224C209.989 134.619 210.544 134.901 211.024 135.072C211.514 135.232 212.032 135.312 212.576 135.312C213.13 135.312 213.616 135.195 214.032 134.96C214.448 134.715 214.768 134.389 214.992 133.984C215.226 133.568 215.344 133.104 215.344 132.592C215.344 131.824 215.098 131.221 214.608 130.784C214.117 130.347 213.386 130.128 212.416 130.128C212.01 130.128 211.653 130.171 211.344 130.256C211.312 130.267 211.269 130.272 211.216 130.272C211.098 130.272 211.002 130.219 210.928 130.112L210.752 129.872C210.698 129.787 210.672 129.712 210.672 129.648C210.672 129.563 210.709 129.488 210.784 129.424L214.816 125.568H209.408C209.194 125.568 209.088 125.461 209.088 125.248V124.96C209.088 124.747 209.194 124.64 209.408 124.64H215.84C216.053 124.64 216.16 124.747 216.16 124.96V125.312C216.16 125.461 216.101 125.595 215.984 125.712L212.24 129.264L212.624 129.248ZM226.253 132.336C226.466 132.336 226.573 132.443 226.573 132.656V132.928C226.573 133.141 226.466 133.248 226.253 133.248H224.829V135.68C224.829 135.893 224.722 136 224.509 136H224.093C223.879 136 223.773 135.893 223.773 135.68V133.248H218.269C218.055 133.248 217.949 133.141 217.949 132.928V132.512C217.949 132.395 217.986 132.267 218.061 132.128L222.637 124.848C222.722 124.709 222.85 124.64 223.021 124.64H223.533C223.618 124.64 223.687 124.661 223.741 124.704C223.794 124.736 223.821 124.784 223.821 124.848C223.821 124.88 223.799 124.939 223.757 125.024L219.133 132.336H223.773V129.92C223.773 129.707 223.879 129.6 224.093 129.6H224.509C224.722 129.6 224.829 129.707 224.829 129.92V132.336H226.253ZM231.805 128.672C232.541 128.672 233.186 128.827 233.741 129.136C234.306 129.435 234.743 129.861 235.053 130.416C235.362 130.971 235.517 131.611 235.517 132.336C235.517 132.987 235.362 133.611 235.053 134.208C234.743 134.805 234.295 135.291 233.709 135.664C233.122 136.037 232.434 136.224 231.645 136.224C230.877 136.224 230.21 136.128 229.645 135.936C229.09 135.744 228.461 135.413 227.757 134.944C227.65 134.88 227.597 134.795 227.597 134.688C227.597 134.613 227.618 134.549 227.661 134.496L227.868 134.208C227.933 134.112 228.007 134.064 228.093 134.064C228.157 134.064 228.231 134.091 228.317 134.144C228.967 134.581 229.522 134.885 229.981 135.056C230.45 135.227 230.967 135.312 231.533 135.312C232.13 135.312 232.647 135.179 233.085 134.912C233.522 134.635 233.853 134.272 234.077 133.824C234.311 133.365 234.429 132.869 234.429 132.336C234.429 131.483 234.189 130.816 233.709 130.336C233.239 129.856 232.562 129.616 231.677 129.616C230.727 129.616 229.933 129.904 229.293 130.48C229.175 130.587 229.037 130.629 228.877 130.608L228.525 130.56C228.429 130.549 228.354 130.512 228.301 130.448C228.247 130.384 228.226 130.304 228.237 130.208L228.669 124.944C228.679 124.848 228.711 124.773 228.765 124.72C228.829 124.667 228.909 124.64 229.005 124.64H234.701C234.914 124.64 235.021 124.747 235.021 124.96V125.248C235.021 125.461 234.914 125.568 234.701 125.568H229.613L229.277 129.504C229.575 129.259 229.938 129.061 230.365 128.912C230.802 128.752 231.282 128.672 231.805 128.672ZM241.206 136.24C240.46 136.24 239.804 136.059 239.238 135.696C238.684 135.333 238.241 134.827 237.91 134.176C237.388 133.141 237.126 131.856 237.126 130.32C237.126 128.773 237.388 127.483 237.91 126.448C238.241 125.797 238.684 125.296 239.238 124.944C239.804 124.581 240.46 124.4 241.206 124.4C241.953 124.4 242.604 124.581 243.158 124.944C243.724 125.296 244.172 125.797 244.502 126.448C245.025 127.483 245.286 128.773 245.286 130.32C245.286 131.856 245.025 133.141 244.502 134.176C244.172 134.827 243.724 135.333 243.158 135.696C242.604 136.059 241.953 136.24 241.206 136.24ZM241.206 135.312C242.252 135.312 243.036 134.768 243.558 133.68C243.974 132.795 244.182 131.675 244.182 130.32C244.182 128.944 243.974 127.819 243.558 126.944C243.046 125.867 242.262 125.328 241.206 125.328C240.15 125.328 239.366 125.867 238.854 126.944C238.438 127.819 238.23 128.944 238.23 130.32C238.23 131.685 238.438 132.805 238.854 133.68C239.377 134.768 240.161 135.312 241.206 135.312Z" fill="#464646"/>
</g>
<path d="M262 157H136V159H262V157Z" fill="#E1E6EE" mask="url(#path-29-inside-8_2322_31148)"/>
<g clip-path="url(#clip8_2322_31148)">
<mask id="path-32-inside-9_2322_31148" fill="white">
<path d="M136 158H262V212H136V158Z"/>
</mask>
<path d="M136 158H262V212H136V158Z" fill="white"/>
<path d="M216.285 189.072C216.498 189.072 216.605 189.179 216.605 189.392V189.68C216.605 189.893 216.498 190 216.285 190H209.181C208.967 190 208.861 189.893 208.861 189.68V189.616C208.861 188.837 208.994 188.181 209.261 187.648C209.538 187.104 209.895 186.645 210.333 186.272C210.781 185.899 211.394 185.472 212.173 184.992C212.247 184.939 212.525 184.773 213.005 184.496C213.57 184.176 214.013 183.899 214.333 183.664C214.653 183.429 214.919 183.141 215.133 182.8C215.346 182.448 215.453 182.037 215.453 181.568C215.453 180.853 215.213 180.304 214.733 179.92C214.253 179.536 213.671 179.344 212.989 179.344C212.327 179.344 211.778 179.483 211.341 179.76C210.903 180.037 210.397 180.517 209.821 181.2C209.746 181.296 209.655 181.344 209.549 181.344C209.495 181.344 209.431 181.317 209.357 181.264L209.085 181.056C208.989 180.971 208.941 180.885 208.941 180.8C208.941 180.747 208.967 180.683 209.021 180.608C209.586 179.893 210.173 179.349 210.781 178.976C211.399 178.603 212.125 178.416 212.957 178.416C213.65 178.416 214.269 178.549 214.813 178.816C215.357 179.072 215.778 179.44 216.077 179.92C216.386 180.389 216.541 180.923 216.541 181.52C216.541 182.149 216.407 182.693 216.141 183.152C215.885 183.6 215.559 183.973 215.165 184.272C214.77 184.56 214.237 184.901 213.565 185.296L212.765 185.776C212.093 186.192 211.581 186.533 211.229 186.8C210.877 187.056 210.583 187.371 210.349 187.744C210.114 188.107 209.975 188.549 209.933 189.072H216.285ZM225.956 186.336C226.169 186.336 226.276 186.443 226.276 186.656V186.928C226.276 187.141 226.169 187.248 225.956 187.248H224.532V189.68C224.532 189.893 224.425 190 224.212 190H223.796C223.583 190 223.476 189.893 223.476 189.68V187.248H217.972C217.759 187.248 217.652 187.141 217.652 186.928V186.512C217.652 186.395 217.689 186.267 217.764 186.128L222.34 178.848C222.425 178.709 222.553 178.64 222.724 178.64H223.236C223.321 178.64 223.391 178.661 223.444 178.704C223.497 178.736 223.524 178.784 223.524 178.848C223.524 178.88 223.503 178.939 223.46 179.024L218.836 186.336H223.476V183.92C223.476 183.707 223.583 183.6 223.796 183.6H224.212C224.425 183.6 224.532 183.707 224.532 183.92V186.336H225.956ZM235.659 186.336C235.872 186.336 235.979 186.443 235.979 186.656V186.928C235.979 187.141 235.872 187.248 235.659 187.248H234.235V189.68C234.235 189.893 234.128 190 233.915 190H233.499C233.286 190 233.179 189.893 233.179 189.68V187.248H227.675C227.462 187.248 227.355 187.141 227.355 186.928V186.512C227.355 186.395 227.392 186.267 227.467 186.128L232.043 178.848C232.128 178.709 232.256 178.64 232.427 178.64H232.939C233.024 178.64 233.094 178.661 233.147 178.704C233.2 178.736 233.227 178.784 233.227 178.848C233.227 178.88 233.206 178.939 233.163 179.024L228.539 186.336H233.179V183.92C233.179 183.707 233.286 183.6 233.499 183.6H233.915C234.128 183.6 234.235 183.707 234.235 183.92V186.336H235.659ZM241.206 190.24C240.46 190.24 239.804 190.059 239.238 189.696C238.684 189.333 238.241 188.827 237.91 188.176C237.388 187.141 237.126 185.856 237.126 184.32C237.126 182.773 237.388 181.483 237.91 180.448C238.241 179.797 238.684 179.296 239.238 178.944C239.804 178.581 240.46 178.4 241.206 178.4C241.953 178.4 242.604 178.581 243.158 178.944C243.724 179.296 244.172 179.797 244.502 180.448C245.025 181.483 245.286 182.773 245.286 184.32C245.286 185.856 245.025 187.141 244.502 188.176C244.172 188.827 243.724 189.333 243.158 189.696C242.604 190.059 241.953 190.24 241.206 190.24ZM241.206 189.312C242.252 189.312 243.036 188.768 243.558 187.68C243.974 186.795 244.182 185.675 244.182 184.32C244.182 182.944 243.974 181.819 243.558 180.944C243.046 179.867 242.262 179.328 241.206 179.328C240.15 179.328 239.366 179.867 238.854 180.944C238.438 181.819 238.23 182.944 238.23 184.32C238.23 185.685 238.438 186.805 238.854 187.68C239.377 188.768 240.161 189.312 241.206 189.312Z" fill="#464646"/>
</g>
<path d="M262 211H136V213H262V211Z" fill="#E1E6EE" mask="url(#path-32-inside-9_2322_31148)"/>
<g clip-path="url(#clip9_2322_31148)">
<path d="M214.39 232.768C214.507 232.683 214.641 232.64 214.79 232.64H215.046C215.259 232.64 215.366 232.747 215.366 232.96V243.68C215.366 243.893 215.259 244 215.046 244H214.614C214.401 244 214.294 243.893 214.294 243.68V234.016L211.878 235.744C211.803 235.797 211.734 235.824 211.67 235.824C211.574 235.824 211.494 235.776 211.43 235.68L211.27 235.44C211.227 235.387 211.206 235.323 211.206 235.248C211.206 235.152 211.254 235.067 211.35 234.992L214.39 232.768ZM226.05 243.072C226.264 243.072 226.37 243.179 226.37 243.392V243.68C226.37 243.893 226.264 244 226.05 244H218.946C218.733 244 218.626 243.893 218.626 243.68V243.616C218.626 242.837 218.76 242.181 219.026 241.648C219.304 241.104 219.661 240.645 220.098 240.272C220.546 239.899 221.16 239.472 221.938 238.992C222.013 238.939 222.29 238.773 222.77 238.496C223.336 238.176 223.778 237.899 224.098 237.664C224.418 237.429 224.685 237.141 224.898 236.8C225.112 236.448 225.218 236.037 225.218 235.568C225.218 234.853 224.978 234.304 224.498 233.92C224.018 233.536 223.437 233.344 222.754 233.344C222.093 233.344 221.544 233.483 221.106 233.76C220.669 234.037 220.162 234.517 219.586 235.2C219.512 235.296 219.421 235.344 219.314 235.344C219.261 235.344 219.197 235.317 219.122 235.264L218.85 235.056C218.754 234.971 218.706 234.885 218.706 234.8C218.706 234.747 218.733 234.683 218.786 234.608C219.352 233.893 219.938 233.349 220.546 232.976C221.165 232.603 221.89 232.416 222.722 232.416C223.416 232.416 224.034 232.549 224.578 232.816C225.122 233.072 225.544 233.44 225.842 233.92C226.152 234.389 226.306 234.923 226.306 235.52C226.306 236.149 226.173 236.693 225.906 237.152C225.65 237.6 225.325 237.973 224.93 238.272C224.536 238.56 224.002 238.901 223.33 239.296L222.53 239.776C221.858 240.192 221.346 240.533 220.994 240.8C220.642 241.056 220.349 241.371 220.114 241.744C219.88 242.107 219.741 242.549 219.698 243.072H226.05ZM231.972 244.24C231.225 244.24 230.569 244.059 230.004 243.696C229.449 243.333 229.007 242.827 228.676 242.176C228.153 241.141 227.892 239.856 227.892 238.32C227.892 236.773 228.153 235.483 228.676 234.448C229.007 233.797 229.449 233.296 230.004 232.944C230.569 232.581 231.225 232.4 231.972 232.4C232.719 232.4 233.369 232.581 233.924 232.944C234.489 233.296 234.937 233.797 235.268 234.448C235.791 235.483 236.052 236.773 236.052 238.32C236.052 239.856 235.791 241.141 235.268 242.176C234.937 242.827 234.489 243.333 233.924 243.696C233.369 244.059 232.719 244.24 231.972 244.24ZM231.972 243.312C233.017 243.312 233.801 242.768 234.324 241.68C234.74 240.795 234.948 239.675 234.948 238.32C234.948 236.944 234.74 235.819 234.324 234.944C233.812 233.867 233.028 233.328 231.972 233.328C230.916 233.328 230.132 233.867 229.62 234.944C229.204 235.819 228.996 236.944 228.996 238.32C228.996 239.685 229.204 240.805 229.62 241.68C230.143 242.768 230.927 243.312 231.972 243.312ZM241.296 237.248C242.426 237.248 243.344 237.536 244.048 238.112C244.752 238.688 245.104 239.509 245.104 240.576C245.104 241.173 244.954 241.755 244.656 242.32C244.368 242.885 243.936 243.349 243.36 243.712C242.784 244.064 242.09 244.24 241.28 244.24C240.608 244.24 239.962 244.144 239.344 243.952C238.736 243.749 238.112 243.445 237.472 243.04C237.365 242.976 237.312 242.891 237.312 242.784C237.312 242.709 237.333 242.645 237.376 242.592L237.584 242.304C237.648 242.208 237.728 242.16 237.824 242.16C237.909 242.16 237.978 242.181 238.032 242.224C238.661 242.619 239.216 242.901 239.696 243.072C240.186 243.232 240.704 243.312 241.248 243.312C241.802 243.312 242.288 243.195 242.704 242.96C243.12 242.715 243.44 242.389 243.664 241.984C243.898 241.568 244.016 241.104 244.016 240.592C244.016 239.824 243.77 239.221 243.28 238.784C242.789 238.347 242.058 238.128 241.088 238.128C240.682 238.128 240.325 238.171 240.016 238.256C239.984 238.267 239.941 238.272 239.888 238.272C239.77 238.272 239.674 238.219 239.6 238.112L239.424 237.872C239.37 237.787 239.344 237.712 239.344 237.648C239.344 237.563 239.381 237.488 239.456 237.424L243.488 233.568H238.08C237.866 233.568 237.76 233.461 237.76 233.248V232.96C237.76 232.747 237.866 232.64 238.08 232.64H244.512C244.725 232.64 244.832 232.747 244.832 232.96V233.312C244.832 233.461 244.773 233.595 244.656 233.712L240.911 237.264L241.296 237.248Z" fill="#464646"/>
</g>
<path d="M262 265H136V267H262V265Z" fill="#E1E6EE" mask="url(#path-35-inside-10_2322_31148)"/>
<mask id="path-38-inside-11_2322_31148" fill="white">
<path d="M262 0H350V50H262V0Z"/>
</mask>
<path d="M262 0H350V50H262V0Z" fill="white"/>
<path d="M311.772 38.224C310.782 38.224 309.924 38 309.196 37.552C308.477 37.104 307.922 36.488 307.53 35.704C307.147 34.9107 306.956 34.0147 306.956 33.016C306.956 32.0173 307.147 31.1307 307.53 30.356C307.912 29.572 308.468 28.956 309.196 28.508C309.924 28.06 310.796 27.836 311.814 27.836C312.43 27.836 312.99 27.9247 313.494 28.102C313.998 28.27 314.506 28.5547 315.02 28.956C315.16 29.068 315.23 29.194 315.23 29.334C315.23 29.4273 315.183 29.5347 315.09 29.656L314.782 30.02C314.67 30.1507 314.553 30.216 314.432 30.216C314.338 30.216 314.222 30.1693 314.082 30.076C313.662 29.7493 313.274 29.5253 312.92 29.404C312.574 29.2827 312.201 29.222 311.8 29.222C311.146 29.222 310.577 29.3807 310.092 29.698C309.606 30.0153 309.233 30.4633 308.972 31.042C308.71 31.6113 308.58 32.2693 308.58 33.016C308.58 33.7627 308.71 34.4253 308.972 35.004C309.233 35.5827 309.602 36.0353 310.078 36.362C310.554 36.6793 311.109 36.838 311.744 36.838C312.22 36.838 312.644 36.754 313.018 36.586C313.391 36.418 313.797 36.1473 314.236 35.774C314.357 35.6713 314.474 35.62 314.586 35.62C314.707 35.62 314.824 35.6853 314.936 35.816L315.244 36.166C315.337 36.2687 315.384 36.376 315.384 36.488C315.384 36.6467 315.309 36.7867 315.16 36.908C314.618 37.3747 314.082 37.7107 313.55 37.916C313.027 38.1213 312.434 38.224 311.772 38.224ZM319.983 38C319.833 38 319.712 37.958 319.619 37.874C319.535 37.7807 319.493 37.6593 319.493 37.51V29.418H316.945C316.795 29.418 316.674 29.376 316.581 29.292C316.497 29.1987 316.455 29.0773 316.455 28.928V28.55C316.455 28.3913 316.497 28.27 316.581 28.186C316.674 28.102 316.795 28.06 316.945 28.06H323.623C323.781 28.06 323.903 28.102 323.987 28.186C324.071 28.27 324.113 28.3913 324.113 28.55V28.928C324.113 29.0773 324.071 29.1987 323.987 29.292C323.903 29.376 323.781 29.418 323.623 29.418H321.089V37.51C321.089 37.6593 321.047 37.7807 320.963 37.874C320.879 37.958 320.757 38 320.599 38H319.983ZM333.206 37.412C333.271 37.5147 333.304 37.608 333.304 37.692C333.304 37.7853 333.267 37.86 333.192 37.916C333.117 37.972 333.015 38 332.884 38H332.184C331.923 38 331.727 37.8927 331.596 37.678L329.286 34.15H327.172V37.51C327.172 37.6593 327.13 37.7807 327.046 37.874C326.962 37.958 326.841 38 326.682 38H326.066C325.917 38 325.795 37.958 325.702 37.874C325.618 37.7807 325.576 37.6593 325.576 37.51V28.55C325.576 28.3913 325.618 28.27 325.702 28.186C325.795 28.102 325.917 28.06 326.066 28.06H329.986C330.611 28.06 331.171 28.186 331.666 28.438C332.161 28.6807 332.543 29.0353 332.814 29.502C333.094 29.9593 333.234 30.496 333.234 31.112C333.234 31.8587 333.029 32.4933 332.618 33.016C332.207 33.5293 331.657 33.87 330.966 34.038L333.206 37.412ZM327.172 32.82H329.72C330.317 32.82 330.789 32.6753 331.134 32.386C331.489 32.0873 331.666 31.6627 331.666 31.112C331.666 30.552 331.489 30.1273 331.134 29.838C330.789 29.5393 330.317 29.39 329.72 29.39H327.172V32.82Z" fill="#464646"/>
<path d="M350 49H262V51H350V49Z" fill="#C3CCD9" mask="url(#path-38-inside-11_2322_31148)"/>
<g clip-path="url(#clip10_2322_31148)">
<mask id="path-41-inside-12_2322_31148" fill="white">
<path d="M262 50H350V104H262V50Z"/>
</mask>
<path d="M262 50H350V104H262V50Z" fill="white"/>
<path d="M306.68 74.672C307.416 74.672 308.061 74.8267 308.616 75.136C309.181 75.4347 309.618 75.8613 309.928 76.416C310.237 76.9707 310.392 77.6107 310.392 78.336C310.392 78.9867 310.237 79.6107 309.928 80.208C309.618 80.8053 309.17 81.2907 308.584 81.664C307.997 82.0373 307.309 82.224 306.52 82.224C305.752 82.224 305.085 82.128 304.52 81.936C303.965 81.744 303.336 81.4133 302.632 80.944C302.525 80.88 302.472 80.7947 302.472 80.688C302.472 80.6133 302.493 80.5493 302.536 80.496L302.743 80.208C302.808 80.112 302.882 80.064 302.968 80.064C303.032 80.064 303.106 80.0907 303.192 80.144C303.842 80.5813 304.397 80.8853 304.856 81.056C305.325 81.2267 305.842 81.312 306.408 81.312C307.005 81.312 307.522 81.1787 307.96 80.912C308.397 80.6347 308.728 80.272 308.952 79.824C309.186 79.3653 309.304 78.8693 309.304 78.336C309.304 77.4827 309.064 76.816 308.584 76.336C308.114 75.856 307.437 75.616 306.552 75.616C305.602 75.616 304.808 75.904 304.168 76.48C304.05 76.5867 303.912 76.6293 303.752 76.608L303.4 76.56C303.304 76.5493 303.229 76.512 303.176 76.448C303.122 76.384 303.101 76.304 303.112 76.208L303.544 70.944C303.554 70.848 303.586 70.7733 303.64 70.72C303.704 70.6667 303.784 70.64 303.88 70.64H309.576C309.789 70.64 309.896 70.7467 309.896 70.96V71.248C309.896 71.4613 309.789 71.568 309.576 71.568H304.488L304.152 75.504C304.45 75.2587 304.813 75.0613 305.24 74.912C305.677 74.752 306.157 74.672 306.68 74.672ZM312.897 82.112C312.673 82.112 312.481 82.032 312.321 81.872C312.161 81.712 312.081 81.52 312.081 81.296C312.081 81.072 312.161 80.88 312.321 80.72C312.481 80.56 312.673 80.48 312.897 80.48C313.121 80.48 313.313 80.56 313.473 80.72C313.633 80.88 313.713 81.072 313.713 81.296C313.713 81.52 313.633 81.712 313.473 81.872C313.313 82.032 313.121 82.112 312.897 82.112ZM316.906 70.768C317.023 70.6827 317.156 70.64 317.306 70.64H317.562C317.775 70.64 317.882 70.7467 317.882 70.96V81.68C317.882 81.8933 317.775 82 317.562 82H317.13C316.916 82 316.81 81.8933 316.81 81.68V72.016L314.394 73.744C314.319 73.7973 314.25 73.824 314.186 73.824C314.09 73.824 314.01 73.776 313.946 73.68L313.786 73.44C313.743 73.3867 313.722 73.3227 313.722 73.248C313.722 73.152 313.77 73.0667 313.866 72.992L316.906 70.768ZM323.766 81.968C323.702 82.064 323.622 82.112 323.526 82.112C323.451 82.112 323.387 82.0907 323.334 82.048L323.174 81.952C323.078 81.888 323.03 81.808 323.03 81.712C323.03 81.648 323.051 81.5787 323.094 81.504L330.694 70.672C330.758 70.576 330.843 70.528 330.95 70.528C331.014 70.528 331.078 70.544 331.142 70.576L331.302 70.672C331.408 70.736 331.462 70.8213 331.462 70.928C331.462 71.0027 331.44 71.0667 331.398 71.12L323.766 81.968ZM323.798 75.616C323.36 75.616 322.955 75.5147 322.582 75.312C322.219 75.0987 321.931 74.8 321.718 74.416C321.504 74.032 321.398 73.6 321.398 73.12C321.398 72.64 321.504 72.2133 321.718 71.84C321.931 71.456 322.219 71.1627 322.582 70.96C322.955 70.7467 323.36 70.64 323.798 70.64C324.235 70.64 324.635 70.7467 324.998 70.96C325.371 71.1627 325.664 71.456 325.878 71.84C326.091 72.2133 326.198 72.64 326.198 73.12C326.198 73.6 326.091 74.032 325.878 74.416C325.664 74.8 325.371 75.0987 324.998 75.312C324.635 75.5147 324.235 75.616 323.798 75.616ZM323.798 74.848C324.256 74.848 324.619 74.688 324.886 74.368C325.163 74.0373 325.302 73.6213 325.302 73.12C325.302 72.6187 325.163 72.208 324.886 71.888C324.619 71.5573 324.256 71.392 323.798 71.392C323.339 71.392 322.971 71.5573 322.694 71.888C322.427 72.208 322.294 72.6187 322.294 73.12C322.294 73.6213 322.427 74.0373 322.694 74.368C322.971 74.688 323.339 74.848 323.798 74.848ZM330.63 82.32C330.192 82.32 329.787 82.2133 329.414 82C329.051 81.7973 328.763 81.504 328.55 81.12C328.336 80.736 328.23 80.304 328.23 79.824C328.23 79.344 328.336 78.9173 328.55 78.544C328.763 78.16 329.051 77.8667 329.414 77.664C329.787 77.4507 330.192 77.344 330.63 77.344C331.067 77.344 331.467 77.4507 331.83 77.664C332.203 77.8667 332.496 78.16 332.71 78.544C332.923 78.9173 333.03 79.344 333.03 79.824C333.03 80.304 332.923 80.736 332.71 81.12C332.496 81.504 332.203 81.7973 331.83 82C331.467 82.2133 331.067 82.32 330.63 82.32ZM330.63 81.552C331.088 81.552 331.451 81.392 331.718 81.072C331.995 80.7413 332.134 80.3253 332.134 79.824C332.134 79.3227 331.995 78.912 331.718 78.592C331.451 78.2613 331.088 78.096 330.63 78.096C330.171 78.096 329.803 78.2613 329.526 78.592C329.259 78.912 329.126 79.3227 329.126 79.824C329.126 80.3253 329.259 80.7413 329.526 81.072C329.803 81.392 330.171 81.552 330.63 81.552Z" fill="#464646"/>
</g>
<path d="M350 103H262V105H350V103Z" fill="#E1E6EE" mask="url(#path-41-inside-12_2322_31148)"/>
<g clip-path="url(#clip11_2322_31148)">
<path d="M307.19 132.336C307.404 132.336 307.51 132.443 307.51 132.656V132.928C307.51 133.141 307.404 133.248 307.19 133.248H305.766V135.68C305.766 135.893 305.66 136 305.446 136H305.03C304.817 136 304.71 135.893 304.71 135.68V133.248H299.206C298.993 133.248 298.886 133.141 298.886 132.928V132.512C298.886 132.395 298.924 132.267 298.998 132.128L303.574 124.848C303.66 124.709 303.788 124.64 303.958 124.64H304.47C304.556 124.64 304.625 124.661 304.678 124.704C304.732 124.736 304.758 124.784 304.758 124.848C304.758 124.88 304.737 124.939 304.694 125.024L300.07 132.336H304.71V129.92C304.71 129.707 304.817 129.6 305.03 129.6H305.446C305.66 129.6 305.766 129.707 305.766 129.92V132.336H307.19ZM309.507 136.112C309.283 136.112 309.091 136.032 308.931 135.872C308.771 135.712 308.691 135.52 308.691 135.296C308.691 135.072 308.771 134.88 308.931 134.72C309.091 134.56 309.283 134.48 309.507 134.48C309.731 134.48 309.923 134.56 310.083 134.72C310.243 134.88 310.323 135.072 310.323 135.296C310.323 135.52 310.243 135.712 310.083 135.872C309.923 136.032 309.731 136.112 309.507 136.112ZM315.733 129.248C316.864 129.248 317.781 129.536 318.485 130.112C319.189 130.688 319.541 131.509 319.541 132.576C319.541 133.173 319.392 133.755 319.093 134.32C318.805 134.885 318.373 135.349 317.797 135.712C317.221 136.064 316.528 136.24 315.717 136.24C315.045 136.24 314.4 136.144 313.781 135.952C313.173 135.749 312.549 135.445 311.909 135.04C311.802 134.976 311.749 134.891 311.749 134.784C311.749 134.709 311.77 134.645 311.813 134.592L312.021 134.304C312.085 134.208 312.165 134.16 312.261 134.16C312.346 134.16 312.416 134.181 312.469 134.224C313.098 134.619 313.653 134.901 314.133 135.072C314.624 135.232 315.141 135.312 315.685 135.312C316.24 135.312 316.725 135.195 317.141 134.96C317.557 134.715 317.877 134.389 318.101 133.984C318.336 133.568 318.453 133.104 318.453 132.592C318.453 131.824 318.208 131.221 317.717 130.784C317.226 130.347 316.496 130.128 315.525 130.128C315.12 130.128 314.762 130.171 314.453 130.256C314.421 130.267 314.378 130.272 314.325 130.272C314.208 130.272 314.112 130.219 314.037 130.112L313.861 129.872C313.808 129.787 313.781 129.712 313.781 129.648C313.781 129.563 313.818 129.488 313.893 129.424L317.925 125.568H312.517C312.304 125.568 312.197 125.461 312.197 125.248V124.96C312.197 124.747 312.304 124.64 312.517 124.64H318.949C319.162 124.64 319.269 124.747 319.269 124.96V125.312C319.269 125.461 319.21 125.595 319.093 125.712L315.349 129.264L315.733 129.248ZM323.766 135.968C323.702 136.064 323.622 136.112 323.526 136.112C323.451 136.112 323.387 136.091 323.334 136.048L323.174 135.952C323.078 135.888 323.03 135.808 323.03 135.712C323.03 135.648 323.051 135.579 323.094 135.504L330.694 124.672C330.758 124.576 330.843 124.528 330.95 124.528C331.014 124.528 331.078 124.544 331.142 124.576L331.302 124.672C331.408 124.736 331.462 124.821 331.462 124.928C331.462 125.003 331.44 125.067 331.398 125.12L323.766 135.968ZM323.798 129.616C323.36 129.616 322.955 129.515 322.582 129.312C322.219 129.099 321.931 128.8 321.718 128.416C321.504 128.032 321.398 127.6 321.398 127.12C321.398 126.64 321.504 126.213 321.718 125.84C321.931 125.456 322.219 125.163 322.582 124.96C322.955 124.747 323.36 124.64 323.798 124.64C324.235 124.64 324.635 124.747 324.998 124.96C325.371 125.163 325.664 125.456 325.878 125.84C326.091 126.213 326.198 126.64 326.198 127.12C326.198 127.6 326.091 128.032 325.878 128.416C325.664 128.8 325.371 129.099 324.998 129.312C324.635 129.515 324.235 129.616 323.798 129.616ZM323.798 128.848C324.256 128.848 324.619 128.688 324.886 128.368C325.163 128.037 325.302 127.621 325.302 127.12C325.302 126.619 325.163 126.208 324.886 125.888C324.619 125.557 324.256 125.392 323.798 125.392C323.339 125.392 322.971 125.557 322.694 125.888C322.427 126.208 322.294 126.619 322.294 127.12C322.294 127.621 322.427 128.037 322.694 128.368C322.971 128.688 323.339 128.848 323.798 128.848ZM330.63 136.32C330.192 136.32 329.787 136.213 329.414 136C329.051 135.797 328.763 135.504 328.55 135.12C328.336 134.736 328.23 134.304 328.23 133.824C328.23 133.344 328.336 132.917 328.55 132.544C328.763 132.16 329.051 131.867 329.414 131.664C329.787 131.451 330.192 131.344 330.63 131.344C331.067 131.344 331.467 131.451 331.83 131.664C332.203 131.867 332.496 132.16 332.71 132.544C332.923 132.917 333.03 133.344 333.03 133.824C333.03 134.304 332.923 134.736 332.71 135.12C332.496 135.504 332.203 135.797 331.83 136C331.467 136.213 331.067 136.32 330.63 136.32ZM330.63 135.552C331.088 135.552 331.451 135.392 331.718 135.072C331.995 134.741 332.134 134.325 332.134 133.824C332.134 133.323 331.995 132.912 331.718 132.592C331.451 132.261 331.088 132.096 330.63 132.096C330.171 132.096 329.803 132.261 329.526 132.592C329.259 132.912 329.126 133.323 329.126 133.824C329.126 134.325 329.259 134.741 329.526 135.072C329.803 135.392 330.171 135.552 330.63 135.552Z" fill="#464646"/>
</g>
<path d="M350 157H262V159H350V157Z" fill="#E1E6EE" mask="url(#path-44-inside-13_2322_31148)"/>
<g clip-path="url(#clip12_2322_31148)">
<mask id="path-47-inside-14_2322_31148" fill="white">
<path d="M262 158H350V212H262V158Z"/>
</mask>
<path d="M262 158H350V212H262V158Z" fill="white"/>
<path d="M303.358 183.248C304.489 183.248 305.406 183.536 306.11 184.112C306.814 184.688 307.166 185.509 307.166 186.576C307.166 187.173 307.017 187.755 306.718 188.32C306.43 188.885 305.998 189.349 305.422 189.712C304.846 190.064 304.153 190.24 303.342 190.24C302.67 190.24 302.025 190.144 301.406 189.952C300.798 189.749 300.174 189.445 299.534 189.04C299.427 188.976 299.374 188.891 299.374 188.784C299.374 188.709 299.395 188.645 299.438 188.592L299.646 188.304C299.71 188.208 299.79 188.16 299.886 188.16C299.971 188.16 300.041 188.181 300.094 188.224C300.723 188.619 301.278 188.901 301.758 189.072C302.249 189.232 302.766 189.312 303.31 189.312C303.865 189.312 304.35 189.195 304.766 188.96C305.182 188.715 305.502 188.389 305.726 187.984C305.961 187.568 306.078 187.104 306.078 186.592C306.078 185.824 305.833 185.221 305.342 184.784C304.851 184.347 304.121 184.128 303.15 184.128C302.745 184.128 302.387 184.171 302.078 184.256C302.046 184.267 302.003 184.272 301.95 184.272C301.833 184.272 301.737 184.219 301.662 184.112L301.486 183.872C301.433 183.787 301.406 183.712 301.406 183.648C301.406 183.563 301.443 183.488 301.518 183.424L305.55 179.568H300.142C299.929 179.568 299.822 179.461 299.822 179.248V178.96C299.822 178.747 299.929 178.64 300.142 178.64H306.574C306.787 178.64 306.894 178.747 306.894 178.96V179.312C306.894 179.461 306.835 179.595 306.718 179.712L302.974 183.264L303.358 183.248ZM309.366 190.112C309.142 190.112 308.95 190.032 308.79 189.872C308.63 189.712 308.55 189.52 308.55 189.296C308.55 189.072 308.63 188.88 308.79 188.72C308.95 188.56 309.142 188.48 309.366 188.48C309.59 188.48 309.782 188.56 309.942 188.72C310.102 188.88 310.182 189.072 310.182 189.296C310.182 189.52 310.102 189.712 309.942 189.872C309.782 190.032 309.59 190.112 309.366 190.112ZM319.441 189.072C319.654 189.072 319.761 189.179 319.761 189.392V189.68C319.761 189.893 319.654 190 319.441 190H312.337C312.124 190 312.017 189.893 312.017 189.68V189.616C312.017 188.837 312.15 188.181 312.417 187.648C312.694 187.104 313.052 186.645 313.489 186.272C313.937 185.899 314.55 185.472 315.329 184.992C315.404 184.939 315.681 184.773 316.161 184.496C316.726 184.176 317.169 183.899 317.489 183.664C317.809 183.429 318.076 183.141 318.289 182.8C318.502 182.448 318.609 182.037 318.609 181.568C318.609 180.853 318.369 180.304 317.889 179.92C317.409 179.536 316.828 179.344 316.145 179.344C315.484 179.344 314.934 179.483 314.497 179.76C314.06 180.037 313.553 180.517 312.977 181.2C312.902 181.296 312.812 181.344 312.705 181.344C312.652 181.344 312.588 181.317 312.513 181.264L312.241 181.056C312.145 180.971 312.097 180.885 312.097 180.8C312.097 180.747 312.124 180.683 312.177 180.608C312.742 179.893 313.329 179.349 313.937 178.976C314.556 178.603 315.281 178.416 316.113 178.416C316.806 178.416 317.425 178.549 317.969 178.816C318.513 179.072 318.934 179.44 319.233 179.92C319.542 180.389 319.697 180.923 319.697 181.52C319.697 182.149 319.564 182.693 319.297 183.152C319.041 183.6 318.716 183.973 318.321 184.272C317.926 184.56 317.393 184.901 316.721 185.296L315.921 185.776C315.249 186.192 314.737 186.533 314.385 186.8C314.033 187.056 313.74 187.371 313.505 187.744C313.27 188.107 313.132 188.549 313.089 189.072H319.441ZM323.766 189.968C323.702 190.064 323.622 190.112 323.526 190.112C323.451 190.112 323.387 190.091 323.334 190.048L323.174 189.952C323.078 189.888 323.03 189.808 323.03 189.712C323.03 189.648 323.051 189.579 323.094 189.504L330.694 178.672C330.758 178.576 330.843 178.528 330.95 178.528C331.014 178.528 331.078 178.544 331.142 178.576L331.302 178.672C331.408 178.736 331.462 178.821 331.462 178.928C331.462 179.003 331.44 179.067 331.398 179.12L323.766 189.968ZM323.798 183.616C323.36 183.616 322.955 183.515 322.582 183.312C322.219 183.099 321.931 182.8 321.718 182.416C321.504 182.032 321.398 181.6 321.398 181.12C321.398 180.64 321.504 180.213 321.718 179.84C321.931 179.456 322.219 179.163 322.582 178.96C322.955 178.747 323.36 178.64 323.798 178.64C324.235 178.64 324.635 178.747 324.998 178.96C325.371 179.163 325.664 179.456 325.878 179.84C326.091 180.213 326.198 180.64 326.198 181.12C326.198 181.6 326.091 182.032 325.878 182.416C325.664 182.8 325.371 183.099 324.998 183.312C324.635 183.515 324.235 183.616 323.798 183.616ZM323.798 182.848C324.256 182.848 324.619 182.688 324.886 182.368C325.163 182.037 325.302 181.621 325.302 181.12C325.302 180.619 325.163 180.208 324.886 179.888C324.619 179.557 324.256 179.392 323.798 179.392C323.339 179.392 322.971 179.557 322.694 179.888C322.427 180.208 322.294 180.619 322.294 181.12C322.294 181.621 322.427 182.037 322.694 182.368C322.971 182.688 323.339 182.848 323.798 182.848ZM330.63 190.32C330.192 190.32 329.787 190.213 329.414 190C329.051 189.797 328.763 189.504 328.55 189.12C328.336 188.736 328.23 188.304 328.23 187.824C328.23 187.344 328.336 186.917 328.55 186.544C328.763 186.16 329.051 185.867 329.414 185.664C329.787 185.451 330.192 185.344 330.63 185.344C331.067 185.344 331.467 185.451 331.83 185.664C332.203 185.867 332.496 186.16 332.71 186.544C332.923 186.917 333.03 187.344 333.03 187.824C333.03 188.304 332.923 188.736 332.71 189.12C332.496 189.504 332.203 189.797 331.83 190C331.467 190.213 331.067 190.32 330.63 190.32ZM330.63 189.552C331.088 189.552 331.451 189.392 331.718 189.072C331.995 188.741 332.134 188.325 332.134 187.824C332.134 187.323 331.995 186.912 331.718 186.592C331.451 186.261 331.088 186.096 330.63 186.096C330.171 186.096 329.803 186.261 329.526 186.592C329.259 186.912 329.126 187.323 329.126 187.824C329.126 188.325 329.259 188.741 329.526 189.072C329.803 189.392 330.171 189.552 330.63 189.552Z" fill="#464646"/>
</g>
<path d="M350 211H262V213H350V211Z" fill="#E1E6EE" mask="url(#path-47-inside-14_2322_31148)"/>
<g clip-path="url(#clip13_2322_31148)">
<path d="M310.285 243.072C310.498 243.072 310.605 243.179 310.605 243.392V243.68C310.605 243.893 310.498 244 310.285 244H303.181C302.967 244 302.861 243.893 302.861 243.68V243.616C302.861 242.837 302.994 242.181 303.261 241.648C303.538 241.104 303.895 240.645 304.333 240.272C304.781 239.899 305.394 239.472 306.173 238.992C306.247 238.939 306.525 238.773 307.005 238.496C307.57 238.176 308.013 237.899 308.333 237.664C308.653 237.429 308.919 237.141 309.133 236.8C309.346 236.448 309.453 236.037 309.453 235.568C309.453 234.853 309.213 234.304 308.733 233.92C308.253 233.536 307.671 233.344 306.989 233.344C306.327 233.344 305.778 233.483 305.341 233.76C304.903 234.037 304.397 234.517 303.821 235.2C303.746 235.296 303.655 235.344 303.549 235.344C303.495 235.344 303.431 235.317 303.357 235.264L303.085 235.056C302.989 234.971 302.941 234.885 302.941 234.8C302.941 234.747 302.967 234.683 303.021 234.608C303.586 233.893 304.173 233.349 304.781 232.976C305.399 232.603 306.125 232.416 306.957 232.416C307.65 232.416 308.269 232.549 308.813 232.816C309.357 233.072 309.778 233.44 310.077 233.92C310.386 234.389 310.541 234.923 310.541 235.52C310.541 236.149 310.407 236.693 310.141 237.152C309.885 237.6 309.559 237.973 309.165 238.272C308.77 238.56 308.237 238.901 307.565 239.296L306.765 239.776C306.093 240.192 305.581 240.533 305.229 240.8C304.877 241.056 304.583 241.371 304.349 241.744C304.114 242.107 303.975 242.549 303.933 243.072H310.285ZM312.897 244.112C312.673 244.112 312.481 244.032 312.321 243.872C312.161 243.712 312.081 243.52 312.081 243.296C312.081 243.072 312.161 242.88 312.321 242.72C312.481 242.56 312.673 242.48 312.897 242.48C313.121 242.48 313.313 242.56 313.473 242.72C313.633 242.88 313.713 243.072 313.713 243.296C313.713 243.52 313.633 243.712 313.473 243.872C313.313 244.032 313.121 244.112 312.897 244.112ZM316.906 232.768C317.023 232.683 317.156 232.64 317.306 232.64H317.562C317.775 232.64 317.882 232.747 317.882 232.96V243.68C317.882 243.893 317.775 244 317.562 244H317.13C316.916 244 316.81 243.893 316.81 243.68V234.016L314.394 235.744C314.319 235.797 314.25 235.824 314.186 235.824C314.09 235.824 314.01 235.776 313.946 235.68L313.786 235.44C313.743 235.387 313.722 235.323 313.722 235.248C313.722 235.152 313.77 235.067 313.866 234.992L316.906 232.768ZM323.766 243.968C323.702 244.064 323.622 244.112 323.526 244.112C323.451 244.112 323.387 244.091 323.334 244.048L323.174 243.952C323.078 243.888 323.03 243.808 323.03 243.712C323.03 243.648 323.051 243.579 323.094 243.504L330.694 232.672C330.758 232.576 330.843 232.528 330.95 232.528C331.014 232.528 331.078 232.544 331.142 232.576L331.302 232.672C331.408 232.736 331.462 232.821 331.462 232.928C331.462 233.003 331.44 233.067 331.398 233.12L323.766 243.968ZM323.798 237.616C323.36 237.616 322.955 237.515 322.582 237.312C322.219 237.099 321.931 236.8 321.718 236.416C321.504 236.032 321.398 235.6 321.398 235.12C321.398 234.64 321.504 234.213 321.718 233.84C321.931 233.456 322.219 233.163 322.582 232.96C322.955 232.747 323.36 232.64 323.798 232.64C324.235 232.64 324.635 232.747 324.998 232.96C325.371 233.163 325.664 233.456 325.878 233.84C326.091 234.213 326.198 234.64 326.198 235.12C326.198 235.6 326.091 236.032 325.878 236.416C325.664 236.8 325.371 237.099 324.998 237.312C324.635 237.515 324.235 237.616 323.798 237.616ZM323.798 236.848C324.256 236.848 324.619 236.688 324.886 236.368C325.163 236.037 325.302 235.621 325.302 235.12C325.302 234.619 325.163 234.208 324.886 233.888C324.619 233.557 324.256 233.392 323.798 233.392C323.339 233.392 322.971 233.557 322.694 233.888C322.427 234.208 322.294 234.619 322.294 235.12C322.294 235.621 322.427 236.037 322.694 236.368C322.971 236.688 323.339 236.848 323.798 236.848ZM330.63 244.32C330.192 244.32 329.787 244.213 329.414 244C329.051 243.797 328.763 243.504 328.55 243.12C328.336 242.736 328.23 242.304 328.23 241.824C328.23 241.344 328.336 240.917 328.55 240.544C328.763 240.16 329.051 239.867 329.414 239.664C329.787 239.451 330.192 239.344 330.63 239.344C331.067 239.344 331.467 239.451 331.83 239.664C332.203 239.867 332.496 240.16 332.71 240.544C332.923 240.917 333.03 241.344 333.03 241.824C333.03 242.304 332.923 242.736 332.71 243.12C332.496 243.504 332.203 243.797 331.83 244C331.467 244.213 331.067 244.32 330.63 244.32ZM330.63 243.552C331.088 243.552 331.451 243.392 331.718 243.072C331.995 242.741 332.134 242.325 332.134 241.824C332.134 241.323 331.995 240.912 331.718 240.592C331.451 240.261 331.088 240.096 330.63 240.096C330.171 240.096 329.803 240.261 329.526 240.592C329.259 240.912 329.126 241.323 329.126 241.824C329.126 242.325 329.259 242.741 329.526 243.072C329.803 243.392 330.171 243.552 330.63 243.552Z" fill="#464646"/>
</g>
<path d="M350 265H262V267H350V265Z" fill="#E1E6EE" mask="url(#path-50-inside-15_2322_31148)"/>
</g>
<rect x="0.5" y="0.5" width="349" height="265" rx="3.5" stroke="#C3CCD9"/>
</g>
<defs>
<clipPath id="clip0_2322_31148">
<rect width="350" height="266" fill="white"/>
</clipPath>
<clipPath id="clip1_2322_31148">
<rect width="350" height="266" rx="4" fill="white"/>
</clipPath>
<clipPath id="clip2_2322_31148">
<path d="M0 50H136V104H0V50Z" fill="white"/>
</clipPath>
<clipPath id="clip3_2322_31148">
<path d="M0 104H136V158H0V104Z" fill="white"/>
</clipPath>
<clipPath id="clip4_2322_31148">
<path d="M0 158H136V212H0V158Z" fill="white"/>
</clipPath>
<clipPath id="clip5_2322_31148">
<path d="M0 212H136V266H0V212Z" fill="white"/>
</clipPath>
<clipPath id="clip6_2322_31148">
<path d="M136 50H262V104H136V50Z" fill="white"/>
</clipPath>
<clipPath id="clip7_2322_31148">
<path d="M136 104H262V158H136V104Z" fill="white"/>
</clipPath>
<clipPath id="clip8_2322_31148">
<path d="M136 158H262V212H136V158Z" fill="white"/>
</clipPath>
<clipPath id="clip9_2322_31148">
<path d="M136 212H262V266H136V212Z" fill="white"/>
</clipPath>
<clipPath id="clip10_2322_31148">
<path d="M262 50H350V104H262V50Z" fill="white"/>
</clipPath>
<clipPath id="clip11_2322_31148">
<path d="M262 104H350V158H262V104Z" fill="white"/>
</clipPath>
<clipPath id="clip12_2322_31148">
<path d="M262 158H350V212H262V158Z" fill="white"/>
</clipPath>
<clipPath id="clip13_2322_31148">
<path d="M262 212H350V266H262V212Z" fill="white"/>
</clipPath>
</defs>
</svg>
