<svg width="350" height="158" viewBox="0 0 350 158" fill="none" xmlns="http://www.w3.org/2000/svg">
<g clip-path="url(#clip0_2324_28760)">
<g clip-path="url(#clip1_2324_28760)">
<rect width="350" height="158" rx="4" fill="white"/>
<mask id="path-3-inside-1_2324_28760" fill="white">
<path d="M0 0H136V50H0V0Z"/>
</mask>
<path d="M0 0H136V50H0V0Z" fill="white"/>
<path d="M20.7657 38C20.6164 38 20.495 37.958 20.4017 37.874C20.3177 37.7807 20.2757 37.6593 20.2757 37.51V29.418H17.7277C17.5784 29.418 17.457 29.376 17.3637 29.292C17.2797 29.1987 17.2377 29.0773 17.2377 28.928V28.55C17.2377 28.3913 17.2797 28.27 17.3637 28.186C17.457 28.102 17.5784 28.06 17.7277 28.06H24.4057C24.5644 28.06 24.6857 28.102 24.7697 28.186C24.8537 28.27 24.8957 28.3913 24.8957 28.55V28.928C24.8957 29.0773 24.8537 29.1987 24.7697 29.292C24.6857 29.376 24.5644 29.418 24.4057 29.418H21.8717V37.51C21.8717 37.6593 21.8297 37.7807 21.7457 37.874C21.6617 37.958 21.5404 38 21.3817 38H20.7657ZM29.4503 36.236C29.5716 36.1333 29.6883 36.082 29.8003 36.082C29.9123 36.082 30.029 36.1427 30.1503 36.264L30.3463 36.474C30.449 36.5953 30.5003 36.712 30.5003 36.824C30.5003 36.9453 30.4396 37.062 30.3183 37.174C29.889 37.5473 29.4596 37.8133 29.0303 37.972C28.6103 38.1307 28.1436 38.21 27.6303 38.21C26.9116 38.21 26.2863 38.0607 25.7543 37.762C25.2316 37.4633 24.8256 37.0433 24.5363 36.502C24.2563 35.9513 24.1163 35.3167 24.1163 34.598C24.1163 33.8887 24.2516 33.254 24.5223 32.694C24.8023 32.1247 25.1943 31.6813 25.6983 31.364C26.2116 31.0467 26.809 30.888 27.4903 30.888C28.5076 30.888 29.2916 31.1913 29.8423 31.798C30.393 32.3953 30.6683 33.2213 30.6683 34.276V34.402C30.659 34.5513 30.6123 34.668 30.5283 34.752C30.4443 34.836 30.323 34.878 30.1643 34.878H25.5723C25.6283 35.494 25.829 35.998 26.1743 36.39C26.529 36.7727 27.0236 36.964 27.6583 36.964C28.0036 36.964 28.307 36.9127 28.5683 36.81C28.8296 36.698 29.1236 36.5067 29.4503 36.236ZM27.4623 32.064C26.949 32.064 26.5336 32.218 26.2163 32.526C25.9083 32.8247 25.7076 33.2493 25.6143 33.8H29.2123C29.175 33.2587 29.007 32.834 28.7083 32.526C28.4096 32.218 27.9943 32.064 27.4623 32.064ZM37.3528 37.412C37.4274 37.5333 37.4648 37.6313 37.4648 37.706C37.4648 37.7993 37.4274 37.874 37.3528 37.93C37.2781 37.9767 37.1754 38 37.0448 38H36.4988C36.2374 38 36.0414 37.8927 35.9108 37.678L34.4128 35.424L32.9148 37.678C32.7841 37.8927 32.5881 38 32.3268 38H31.8228C31.6828 38 31.5754 37.9767 31.5008 37.93C31.4261 37.874 31.3888 37.7993 31.3888 37.706C31.3888 37.6313 31.4261 37.5333 31.5008 37.412L33.5868 34.388L31.7108 31.686C31.6361 31.5647 31.5988 31.4667 31.5988 31.392C31.5988 31.2987 31.6361 31.2287 31.7108 31.182C31.7854 31.126 31.8928 31.098 32.0328 31.098H32.5508C32.8028 31.098 32.9988 31.2007 33.1388 31.406L34.4408 33.338L35.7148 31.42C35.8454 31.2053 36.0414 31.098 36.3028 31.098H36.7928C36.9234 31.098 37.0261 31.126 37.1008 31.182C37.1754 31.238 37.2128 31.3127 37.2128 31.406C37.2128 31.4807 37.1754 31.5787 37.1008 31.7L35.2668 34.332L37.3528 37.412ZM42.0864 36.824C42.1144 36.8147 42.1564 36.81 42.2124 36.81C42.4457 36.81 42.5857 36.9453 42.6324 37.216L42.6744 37.44C42.6837 37.468 42.6884 37.5147 42.6884 37.58C42.6884 37.8133 42.5577 37.9627 42.2964 38.028C41.9231 38.112 41.5824 38.154 41.2744 38.154C40.6117 38.154 40.1311 38 39.8324 37.692C39.5431 37.384 39.3984 36.922 39.3984 36.306V32.232H38.6284C38.4791 32.232 38.3577 32.19 38.2644 32.106C38.1804 32.0127 38.1384 31.8913 38.1384 31.742V31.588C38.1384 31.4293 38.1804 31.308 38.2644 31.224C38.3577 31.14 38.4791 31.098 38.6284 31.098H39.3984V29.362C39.3984 29.2033 39.4404 29.082 39.5244 28.998C39.6177 28.914 39.7391 28.872 39.8884 28.872H40.3924C40.5511 28.872 40.6724 28.914 40.7564 28.998C40.8404 29.082 40.8824 29.2033 40.8824 29.362V31.098H42.1424C42.3011 31.098 42.4224 31.14 42.5064 31.224C42.5904 31.308 42.6324 31.4293 42.6324 31.588V31.742C42.6324 31.8913 42.5904 32.0127 42.5064 32.106C42.4224 32.19 42.3011 32.232 42.1424 32.232H40.8824V36.124C40.8824 36.3947 40.9384 36.586 41.0504 36.698C41.1717 36.81 41.3631 36.866 41.6244 36.866C41.7364 36.866 41.8904 36.852 42.0864 36.824Z" fill="#464646"/>
<path d="M136 49H0V51H136V49Z" fill="#C3CCD9" mask="url(#path-3-inside-1_2324_28760)"/>
<g clip-path="url(#clip2_2324_28760)">
<mask id="path-6-inside-2_2324_28760" fill="white">
<path d="M0 50H136V104H0V50Z"/>
</mask>
<path d="M0 50H136V104H0V50Z" fill="#F6F8FB"/>
<path d="M17.792 82C17.6213 82 17.4827 81.952 17.376 81.856C17.28 81.7493 17.232 81.6107 17.232 81.44V71.2C17.232 71.0187 17.28 70.88 17.376 70.784C17.4827 70.688 17.6213 70.64 17.792 70.64H24.432C24.6133 70.64 24.752 70.688 24.848 70.784C24.944 70.88 24.992 71.0187 24.992 71.2V71.616C24.992 71.7867 24.944 71.9253 24.848 72.032C24.752 72.128 24.6133 72.176 24.432 72.176H19.056V75.648H24C24.1813 75.648 24.32 75.696 24.416 75.792C24.512 75.888 24.56 76.0267 24.56 76.208V76.608C24.56 76.7787 24.512 76.9173 24.416 77.024C24.32 77.12 24.1813 77.168 24 77.168H19.056V81.44C19.056 81.6107 19.008 81.7493 18.912 81.856C18.816 81.952 18.6773 82 18.496 82H17.792ZM27.4978 82C27.3271 82 27.1884 81.952 27.0818 81.856C26.9858 81.7493 26.9378 81.6107 26.9378 81.44V71.2C26.9378 71.0187 26.9858 70.88 27.0818 70.784C27.1884 70.688 27.3271 70.64 27.4978 70.64H28.2018C28.3831 70.64 28.5218 70.688 28.6178 70.784C28.7138 70.88 28.7618 71.0187 28.7618 71.2V81.44C28.7618 81.6107 28.7138 81.7493 28.6178 81.856C28.5218 81.952 28.3831 82 28.2018 82H27.4978ZM38.8934 71.2C38.8934 71.0187 38.9414 70.88 39.0374 70.784C39.144 70.688 39.2827 70.64 39.4534 70.64H40.1094C40.2907 70.64 40.4294 70.688 40.5254 70.784C40.6214 70.88 40.6694 71.0187 40.6694 71.2V81.44C40.6694 81.6107 40.6214 81.7493 40.5254 81.856C40.4294 81.952 40.2907 82 40.1094 82H39.1174C38.8187 82 38.5947 81.8773 38.4454 81.632L35.5334 77.088C34.424 75.36 33.592 73.9947 33.0374 72.992C33.0907 74.1333 33.1174 75.6107 33.1174 77.424V81.44C33.1174 81.6107 33.0694 81.7493 32.9734 81.856C32.8774 81.952 32.7387 82 32.5574 82H31.9014C31.7307 82 31.592 81.952 31.4854 81.856C31.3894 81.7493 31.3414 81.6107 31.3414 81.44V71.2C31.3414 71.0187 31.3894 70.88 31.4854 70.784C31.592 70.688 31.7307 70.64 31.9014 70.64H32.9254C33.224 70.64 33.448 70.7627 33.5974 71.008L36.6054 75.728C37.672 77.392 38.456 78.672 38.9574 79.568C38.9147 78.4267 38.8934 77.0187 38.8934 75.344V71.2ZM50.6903 71.2C50.6903 71.0187 50.7383 70.88 50.8343 70.784C50.9409 70.688 51.0796 70.64 51.2503 70.64H51.9062C52.0876 70.64 52.2263 70.688 52.3223 70.784C52.4183 70.88 52.4663 71.0187 52.4663 71.2V81.44C52.4663 81.6107 52.4183 81.7493 52.3223 81.856C52.2263 81.952 52.0876 82 51.9062 82H50.9143C50.6156 82 50.3916 81.8773 50.2423 81.632L47.3303 77.088C46.2209 75.36 45.3889 73.9947 44.8343 72.992C44.8876 74.1333 44.9143 75.6107 44.9143 77.424V81.44C44.9143 81.6107 44.8663 81.7493 44.7703 81.856C44.6743 81.952 44.5356 82 44.3543 82H43.6983C43.5276 82 43.3889 81.952 43.2823 81.856C43.1863 81.7493 43.1383 81.6107 43.1383 81.44V71.2C43.1383 71.0187 43.1863 70.88 43.2823 70.784C43.3889 70.688 43.5276 70.64 43.6983 70.64H44.7223C45.0209 70.64 45.2449 70.7627 45.3943 71.008L48.4023 75.728C49.4689 77.392 50.2529 78.672 50.7543 79.568C50.7116 78.4267 50.6903 77.0187 50.6903 75.344V71.2Z" fill="#464646"/>
</g>
<path d="M136 103H0V105H136V103Z" fill="#E1E6EE" mask="url(#path-6-inside-2_2324_28760)"/>
<g clip-path="url(#clip3_2324_28760)">
<path d="M24.128 125.104C24.224 124.795 24.432 124.64 24.752 124.64H25.472C25.8027 124.64 25.968 124.779 25.968 125.056C25.968 125.152 25.9573 125.227 25.936 125.28L22.496 135.536C22.4 135.845 22.1867 136 21.856 136H20.528C20.1973 136 19.984 135.845 19.888 135.536L16.432 125.28C16.4107 125.227 16.4 125.152 16.4 125.056C16.4 124.779 16.5653 124.64 16.896 124.64H17.648C17.968 124.64 18.176 124.795 18.272 125.104L19.952 130.176C20.4 131.52 20.8213 132.891 21.216 134.288C21.4613 133.381 21.8773 132.021 22.464 130.208L24.128 125.104ZM32.6493 131.424C32.4786 131.424 32.3399 131.376 32.2333 131.28C32.1373 131.173 32.0893 131.035 32.0893 130.864V130.448C32.0893 130.267 32.1373 130.128 32.2333 130.032C32.3399 129.936 32.4786 129.888 32.6493 129.888H36.6653C36.8466 129.888 36.9853 129.936 37.0813 130.032C37.1773 130.128 37.2253 130.267 37.2253 130.448V135.44C37.2253 135.611 37.1773 135.749 37.0813 135.856C36.9853 135.952 36.8466 136 36.6653 136H36.3293C35.9773 136 35.7853 135.824 35.7533 135.472L35.6892 134.752C35.0066 135.744 33.8759 136.24 32.2973 136.24C31.1666 136.24 30.1959 135.989 29.3853 135.488C28.5746 134.987 27.9559 134.288 27.5293 133.392C27.1026 132.496 26.8893 131.467 26.8893 130.304C26.8893 129.173 27.1133 128.16 27.5613 127.264C28.0093 126.368 28.6546 125.669 29.4973 125.168C30.3399 124.656 31.3373 124.4 32.4893 124.4C33.3533 124.4 34.1266 124.539 34.8093 124.816C35.4919 125.083 36.1639 125.52 36.8253 126.128C36.9639 126.256 37.0333 126.389 37.0333 126.528C37.0333 126.667 36.9693 126.8 36.8413 126.928L36.4573 127.312C36.3186 127.451 36.1853 127.52 36.0573 127.52C35.9186 127.52 35.7853 127.456 35.6573 127.328C35.1026 126.848 34.5853 126.507 34.1053 126.304C33.6253 126.091 33.0813 125.984 32.4733 125.984C31.7373 125.984 31.0866 126.16 30.5213 126.512C29.9666 126.864 29.5293 127.365 29.2093 128.016C28.8999 128.667 28.7453 129.435 28.7453 130.32C28.7453 131.216 28.8946 131.989 29.1933 132.64C29.4919 133.291 29.9133 133.792 30.4573 134.144C31.0119 134.485 31.6626 134.656 32.4093 134.656C33.3586 134.656 34.1159 134.4 34.6813 133.888C35.2573 133.365 35.5453 132.656 35.5453 131.76V131.424H32.6493Z" fill="#464646"/>
</g>
<path d="M136 157H0V159H136V157Z" fill="#E1E6EE" mask="url(#path-9-inside-3_2324_28760)"/>
<mask id="path-12-inside-4_2324_28760" fill="white">
<path d="M136 0H262V50H136V0Z"/>
</mask>
<path d="M136 0H262V50H136V0Z" fill="white"/>
<path d="M190.467 28.55C190.467 28.3913 190.509 28.27 190.593 28.186C190.687 28.102 190.808 28.06 190.957 28.06H191.531C191.69 28.06 191.811 28.102 191.895 28.186C191.979 28.27 192.021 28.3913 192.021 28.55V37.51C192.021 37.6593 191.979 37.7807 191.895 37.874C191.811 37.958 191.69 38 191.531 38H190.663C190.402 38 190.206 37.8927 190.075 37.678L187.527 33.702C186.557 32.19 185.829 30.9953 185.343 30.118C185.39 31.1167 185.413 32.4093 185.413 33.996V37.51C185.413 37.6593 185.371 37.7807 185.287 37.874C185.203 37.958 185.082 38 184.923 38H184.349C184.2 38 184.079 37.958 183.985 37.874C183.901 37.7807 183.859 37.6593 183.859 37.51V28.55C183.859 28.3913 183.901 28.27 183.985 28.186C184.079 28.102 184.2 28.06 184.349 28.06H185.245C185.507 28.06 185.703 28.1673 185.833 28.382L188.465 32.512C189.399 33.968 190.085 35.088 190.523 35.872C190.486 34.8733 190.467 33.6413 190.467 32.176V28.55ZM198.34 31.588C198.34 31.4293 198.382 31.308 198.466 31.224C198.559 31.14 198.68 31.098 198.83 31.098H199.334C199.492 31.098 199.614 31.14 199.698 31.224C199.782 31.308 199.824 31.4293 199.824 31.588V37.51C199.824 37.6593 199.782 37.7807 199.698 37.874C199.614 37.958 199.492 38 199.334 38H198.956C198.806 38 198.685 37.958 198.592 37.874C198.508 37.7807 198.466 37.6593 198.466 37.51V37.188C198.279 37.5053 198.008 37.7573 197.654 37.944C197.299 38.1213 196.879 38.21 196.394 38.21C195.572 38.21 194.961 38.0093 194.56 37.608C194.158 37.1973 193.958 36.656 193.958 35.984V31.588C193.958 31.4293 194 31.308 194.084 31.224C194.177 31.14 194.298 31.098 194.448 31.098H194.952C195.11 31.098 195.232 31.14 195.316 31.224C195.4 31.308 195.442 31.4293 195.442 31.588V35.592C195.442 36.0213 195.549 36.3527 195.764 36.586C195.988 36.81 196.31 36.922 196.73 36.922C197.215 36.922 197.602 36.782 197.892 36.502C198.19 36.222 198.34 35.816 198.34 35.284V31.588ZM208.938 30.888C209.675 30.888 210.244 31.098 210.646 31.518C211.047 31.9287 211.248 32.484 211.248 33.184V37.51C211.248 37.6593 211.206 37.7807 211.122 37.874C211.038 37.958 210.916 38 210.758 38H210.254C210.104 38 209.983 37.958 209.89 37.874C209.806 37.7807 209.764 37.6593 209.764 37.51V33.632C209.764 33.1747 209.661 32.8153 209.456 32.554C209.25 32.2927 208.938 32.162 208.518 32.162C208.088 32.162 207.748 32.3067 207.496 32.596C207.253 32.8853 207.132 33.2587 207.132 33.716V37.51C207.132 37.6593 207.09 37.7807 207.006 37.874C206.922 37.958 206.8 38 206.642 38H206.138C205.988 38 205.867 37.958 205.774 37.874C205.69 37.7807 205.648 37.6593 205.648 37.51V33.632C205.648 33.1747 205.545 32.8153 205.34 32.554C205.144 32.2927 204.836 32.162 204.416 32.162C204.005 32.162 203.674 32.2973 203.422 32.568C203.17 32.8387 203.034 33.1887 203.016 33.618V37.51C203.016 37.6593 202.974 37.7807 202.89 37.874C202.806 37.958 202.684 38 202.526 38H202.022C201.872 38 201.751 37.958 201.658 37.874C201.574 37.7807 201.532 37.6593 201.532 37.51V31.588C201.532 31.4293 201.574 31.308 201.658 31.224C201.751 31.14 201.872 31.098 202.022 31.098H202.428C202.586 31.098 202.708 31.14 202.792 31.224C202.876 31.308 202.918 31.4293 202.918 31.588V31.896C203.347 31.224 204.01 30.888 204.906 30.888C205.354 30.888 205.746 30.9813 206.082 31.168C206.418 31.3547 206.674 31.616 206.852 31.952C207.328 31.2427 208.023 30.888 208.938 30.888ZM217.89 36.236C218.011 36.1333 218.128 36.082 218.24 36.082C218.352 36.082 218.468 36.1427 218.59 36.264L218.786 36.474C218.888 36.5953 218.94 36.712 218.94 36.824C218.94 36.9453 218.879 37.062 218.758 37.174C218.328 37.5473 217.899 37.8133 217.47 37.972C217.05 38.1307 216.583 38.21 216.07 38.21C215.351 38.21 214.726 38.0607 214.194 37.762C213.671 37.4633 213.265 37.0433 212.976 36.502C212.696 35.9513 212.556 35.3167 212.556 34.598C212.556 33.8887 212.691 33.254 212.962 32.694C213.242 32.1247 213.634 31.6813 214.138 31.364C214.651 31.0467 215.248 30.888 215.93 30.888C216.947 30.888 217.731 31.1913 218.282 31.798C218.832 32.3953 219.108 33.2213 219.108 34.276V34.402C219.098 34.5513 219.052 34.668 218.968 34.752C218.884 34.836 218.762 34.878 218.604 34.878H214.012C214.068 35.494 214.268 35.998 214.614 36.39C214.968 36.7727 215.463 36.964 216.098 36.964C216.443 36.964 216.746 36.9127 217.008 36.81C217.269 36.698 217.563 36.5067 217.89 36.236ZM215.902 32.064C215.388 32.064 214.973 32.218 214.656 32.526C214.348 32.8247 214.147 33.2493 214.054 33.8H217.652C217.614 33.2587 217.446 32.834 217.148 32.526C216.849 32.218 216.434 32.064 215.902 32.064ZM223.575 31.028C223.781 31.028 223.991 31.0513 224.205 31.098C224.457 31.154 224.583 31.3033 224.583 31.546C224.583 31.6113 224.579 31.658 224.569 31.686L224.499 32.022C224.443 32.2833 224.303 32.414 224.079 32.414L223.953 32.4C223.785 32.372 223.636 32.358 223.505 32.358C223.039 32.358 222.661 32.5447 222.371 32.918C222.091 33.282 221.951 33.7907 221.951 34.444V37.51C221.951 37.6593 221.909 37.7807 221.825 37.874C221.741 37.958 221.62 38 221.461 38H220.957C220.808 38 220.687 37.958 220.593 37.874C220.509 37.7807 220.467 37.6593 220.467 37.51V31.588C220.467 31.4293 220.509 31.308 220.593 31.224C220.687 31.14 220.808 31.098 220.957 31.098H221.363C221.522 31.098 221.643 31.14 221.727 31.224C221.811 31.308 221.853 31.4293 221.853 31.588V32.134C222.021 31.7887 222.25 31.518 222.539 31.322C222.829 31.126 223.174 31.028 223.575 31.028ZM226.419 29.754C226.148 29.754 225.919 29.6653 225.733 29.488C225.546 29.3013 225.453 29.082 225.453 28.83C225.453 28.5687 225.546 28.3493 225.733 28.172C225.919 27.9947 226.148 27.906 226.419 27.906C226.689 27.906 226.918 27.9947 227.105 28.172C227.291 28.3493 227.385 28.5687 227.385 28.83C227.385 29.082 227.291 29.3013 227.105 29.488C226.918 29.6653 226.689 29.754 226.419 29.754ZM226.153 38C226.003 38 225.882 37.958 225.789 37.874C225.705 37.7807 225.663 37.6593 225.663 37.51V31.588C225.663 31.4293 225.705 31.308 225.789 31.224C225.882 31.14 226.003 31.098 226.153 31.098H226.657C226.815 31.098 226.937 31.14 227.021 31.224C227.105 31.308 227.147 31.4293 227.147 31.588V37.51C227.147 37.6593 227.105 37.7807 227.021 37.874C226.937 37.958 226.815 38 226.657 38H226.153ZM231.9 38.21C231.218 38.21 230.616 38.0607 230.094 37.762C229.58 37.4633 229.179 37.0387 228.89 36.488C228.61 35.928 228.47 35.2793 228.47 34.542C228.47 33.8047 228.614 33.1607 228.904 32.61C229.193 32.0593 229.599 31.6347 230.122 31.336C230.644 31.0373 231.246 30.888 231.928 30.888C232.422 30.888 232.866 30.9627 233.258 31.112C233.659 31.252 234.042 31.4947 234.406 31.84C234.518 31.952 234.574 32.0687 234.574 32.19C234.574 32.302 234.513 32.4187 234.392 32.54L234.154 32.778C234.051 32.8807 233.939 32.932 233.818 32.932C233.696 32.932 233.57 32.876 233.44 32.764C233.169 32.5307 232.912 32.372 232.67 32.288C232.436 32.1947 232.184 32.148 231.914 32.148C231.298 32.148 230.822 32.3767 230.486 32.834C230.15 33.2913 229.982 33.8607 229.982 34.542C229.982 35.2233 230.15 35.7973 230.486 36.264C230.822 36.7213 231.298 36.95 231.914 36.95C232.212 36.95 232.488 36.894 232.74 36.782C232.992 36.6607 233.262 36.46 233.552 36.18C233.673 36.0587 233.799 35.998 233.93 35.998C234.042 35.998 234.149 36.0447 234.252 36.138L234.49 36.334C234.611 36.4367 234.672 36.5533 234.672 36.684C234.672 36.824 234.602 36.9733 234.462 37.132C234.079 37.524 233.682 37.804 233.272 37.972C232.87 38.1307 232.413 38.21 231.9 38.21ZM238.938 30.888C239.871 30.888 240.59 31.1073 241.094 31.546C241.598 31.9753 241.85 32.5493 241.85 33.268V37.51C241.85 37.6593 241.808 37.7807 241.724 37.874C241.64 37.958 241.519 38 241.36 38H240.996C240.847 38 240.725 37.958 240.632 37.874C240.548 37.7807 240.506 37.6593 240.506 37.51V37.202C240.282 37.5287 239.974 37.7807 239.582 37.958C239.19 38.1353 238.733 38.224 238.21 38.224C237.491 38.224 236.899 38.0653 236.432 37.748C235.975 37.4213 235.746 36.9313 235.746 36.278C235.746 35.55 236.017 35.0133 236.558 34.668C237.109 34.3133 237.869 34.0473 238.84 33.87L240.422 33.576V33.324C240.422 32.9413 240.287 32.6473 240.016 32.442C239.755 32.2273 239.405 32.12 238.966 32.12C238.593 32.12 238.266 32.1853 237.986 32.316C237.715 32.4373 237.421 32.6427 237.104 32.932C236.983 33.0347 236.866 33.086 236.754 33.086C236.642 33.086 236.525 33.0347 236.404 32.932L236.18 32.736C236.059 32.624 235.998 32.5027 235.998 32.372C235.998 32.2507 236.054 32.134 236.166 32.022C236.567 31.6393 236.992 31.3547 237.44 31.168C237.888 30.9813 238.387 30.888 238.938 30.888ZM238.42 37.034C238.98 37.034 239.451 36.8847 239.834 36.586C240.226 36.2873 240.422 35.858 240.422 35.298V34.654L239.204 34.906C238.523 35.046 238.019 35.2047 237.692 35.382C237.365 35.5593 237.202 35.83 237.202 36.194C237.202 36.4553 237.309 36.6607 237.524 36.81C237.739 36.9593 238.037 37.034 238.42 37.034ZM244.091 38C243.942 38 243.821 37.958 243.727 37.874C243.643 37.7807 243.601 37.6593 243.601 37.51V28.55C243.601 28.3913 243.643 28.27 243.727 28.186C243.821 28.102 243.942 28.06 244.091 28.06H244.595C244.754 28.06 244.875 28.102 244.959 28.186C245.043 28.27 245.085 28.3913 245.085 28.55V37.51C245.085 37.6593 245.043 37.7807 244.959 37.874C244.875 37.958 244.754 38 244.595 38H244.091Z" fill="#464646"/>
<path d="M262 49H136V51H262V49Z" fill="#C3CCD9" mask="url(#path-12-inside-4_2324_28760)"/>
<g clip-path="url(#clip4_2324_28760)">
<mask id="path-15-inside-5_2324_28760" fill="white">
<path d="M136 50H262V104H136V50Z"/>
</mask>
<path d="M136 50H262V104H136V50Z" fill="#F6F8FB"/>
<path d="M217.206 78.336C217.419 78.336 217.526 78.4427 217.526 78.656V78.928C217.526 79.1413 217.419 79.248 217.206 79.248H215.782V81.68C215.782 81.8933 215.675 82 215.462 82H215.046C214.833 82 214.726 81.8933 214.726 81.68V79.248H209.222C209.009 79.248 208.902 79.1413 208.902 78.928V78.512C208.902 78.3947 208.939 78.2667 209.014 78.128L213.59 70.848C213.675 70.7093 213.803 70.64 213.974 70.64H214.486C214.571 70.64 214.641 70.6613 214.694 70.704C214.747 70.736 214.774 70.784 214.774 70.848C214.774 70.88 214.753 70.9387 214.71 71.024L210.086 78.336H214.726V75.92C214.726 75.7067 214.833 75.6 215.046 75.6H215.462C215.675 75.6 215.782 75.7067 215.782 75.92V78.336H217.206ZM222.758 74.672C223.494 74.672 224.139 74.8267 224.694 75.136C225.259 75.4347 225.696 75.8613 226.006 76.416C226.315 76.9707 226.47 77.6107 226.47 78.336C226.47 78.9867 226.315 79.6107 226.006 80.208C225.696 80.8053 225.248 81.2907 224.662 81.664C224.075 82.0373 223.387 82.224 222.598 82.224C221.83 82.224 221.163 82.128 220.598 81.936C220.043 81.744 219.414 81.4133 218.71 80.944C218.603 80.88 218.55 80.7947 218.55 80.688C218.55 80.6133 218.571 80.5493 218.614 80.496L218.822 80.208C218.886 80.112 218.96 80.064 219.046 80.064C219.11 80.064 219.184 80.0907 219.27 80.144C219.92 80.5813 220.475 80.8853 220.934 81.056C221.403 81.2267 221.92 81.312 222.486 81.312C223.083 81.312 223.6 81.1787 224.038 80.912C224.475 80.6347 224.806 80.272 225.03 79.824C225.264 79.3653 225.382 78.8693 225.382 78.336C225.382 77.4827 225.142 76.816 224.662 76.336C224.192 75.856 223.515 75.616 222.63 75.616C221.68 75.616 220.886 75.904 220.246 76.48C220.128 76.5867 219.99 76.6293 219.83 76.608L219.478 76.56C219.382 76.5493 219.307 76.512 219.254 76.448C219.2 76.384 219.179 76.304 219.19 76.208L219.622 70.944C219.632 70.848 219.664 70.7733 219.718 70.72C219.782 70.6667 219.862 70.64 219.958 70.64H225.654C225.867 70.64 225.974 70.7467 225.974 70.96V71.248C225.974 71.4613 225.867 71.568 225.654 71.568H220.566L220.23 75.504C220.528 75.2587 220.891 75.0613 221.318 74.912C221.755 74.752 222.235 74.672 222.758 74.672ZM232.479 74.576C233.258 74.576 233.935 74.752 234.511 75.104C235.087 75.4453 235.525 75.9093 235.823 76.496C236.133 77.072 236.287 77.7067 236.287 78.4C236.287 79.0827 236.127 79.7173 235.807 80.304C235.487 80.8907 235.023 81.36 234.415 81.712C233.818 82.064 233.114 82.24 232.303 82.24C231.45 82.24 230.719 82.048 230.111 81.664C229.503 81.28 229.045 80.7627 228.735 80.112C228.426 79.4613 228.271 78.7307 228.271 77.92C228.271 76.6827 228.57 75.5733 229.167 74.592C229.775 73.6 230.645 72.56 231.775 71.472L232.495 70.8C232.602 70.6933 232.73 70.64 232.879 70.64H233.519C233.701 70.64 233.791 70.6987 233.791 70.816C233.791 70.88 233.749 70.9547 233.663 71.04L232.655 71.968C231.045 73.4613 230.01 74.7893 229.551 75.952C229.861 75.5253 230.266 75.1893 230.767 74.944C231.269 74.6987 231.839 74.576 232.479 74.576ZM232.303 81.312C232.89 81.312 233.402 81.184 233.839 80.928C234.277 80.672 234.607 80.3253 234.831 79.888C235.066 79.4507 235.183 78.96 235.183 78.416C235.183 77.5733 234.938 76.88 234.447 76.336C233.957 75.792 233.274 75.52 232.399 75.52C231.781 75.52 231.247 75.648 230.799 75.904C230.351 76.1493 230.005 76.496 229.759 76.944C229.525 77.3813 229.407 77.872 229.407 78.416C229.407 78.96 229.525 79.4507 229.759 79.888C229.994 80.3253 230.33 80.672 230.767 80.928C231.205 81.184 231.717 81.312 232.303 81.312ZM245.003 81.072C245.217 81.072 245.323 81.1787 245.323 81.392V81.68C245.323 81.8933 245.217 82 245.003 82H237.899C237.686 82 237.579 81.8933 237.579 81.68V81.616C237.579 80.8373 237.713 80.1813 237.979 79.648C238.257 79.104 238.614 78.6453 239.051 78.272C239.499 77.8987 240.113 77.472 240.891 76.992C240.966 76.9387 241.243 76.7733 241.723 76.496C242.289 76.176 242.731 75.8987 243.051 75.664C243.371 75.4293 243.638 75.1413 243.851 74.8C244.065 74.448 244.171 74.0373 244.171 73.568C244.171 72.8533 243.931 72.304 243.451 71.92C242.971 71.536 242.39 71.344 241.707 71.344C241.046 71.344 240.497 71.4827 240.059 71.76C239.622 72.0373 239.115 72.5173 238.539 73.2C238.465 73.296 238.374 73.344 238.267 73.344C238.214 73.344 238.15 73.3173 238.075 73.264L237.803 73.056C237.707 72.9707 237.659 72.8853 237.659 72.8C237.659 72.7467 237.686 72.6827 237.739 72.608C238.305 71.8933 238.891 71.3493 239.499 70.976C240.118 70.6027 240.843 70.416 241.675 70.416C242.369 70.416 242.987 70.5493 243.531 70.816C244.075 71.072 244.497 71.44 244.795 71.92C245.105 72.3893 245.259 72.9227 245.259 73.52C245.259 74.1493 245.126 74.6933 244.859 75.152C244.603 75.6 244.278 75.9733 243.883 76.272C243.489 76.56 242.955 76.9013 242.283 77.296L241.483 77.776C240.811 78.192 240.299 78.5333 239.947 78.8C239.595 79.056 239.302 79.3707 239.067 79.744C238.833 80.1067 238.694 80.5493 238.651 81.072H245.003Z" fill="#464646"/>
</g>
<path d="M262 103H136V105H262V103Z" fill="#E1E6EE" mask="url(#path-15-inside-5_2324_28760)"/>
<g clip-path="url(#clip5_2324_28760)">
<path d="M212.624 129.248C213.754 129.248 214.672 129.536 215.376 130.112C216.08 130.688 216.432 131.509 216.432 132.576C216.432 133.173 216.282 133.755 215.984 134.32C215.696 134.885 215.264 135.349 214.688 135.712C214.112 136.064 213.418 136.24 212.608 136.24C211.936 136.24 211.29 136.144 210.672 135.952C210.064 135.749 209.44 135.445 208.8 135.04C208.693 134.976 208.64 134.891 208.64 134.784C208.64 134.709 208.661 134.645 208.704 134.592L208.912 134.304C208.976 134.208 209.056 134.16 209.152 134.16C209.237 134.16 209.306 134.181 209.36 134.224C209.989 134.619 210.544 134.901 211.024 135.072C211.514 135.232 212.032 135.312 212.576 135.312C213.13 135.312 213.616 135.195 214.032 134.96C214.448 134.715 214.768 134.389 214.992 133.984C215.226 133.568 215.344 133.104 215.344 132.592C215.344 131.824 215.098 131.221 214.608 130.784C214.117 130.347 213.386 130.128 212.416 130.128C212.01 130.128 211.653 130.171 211.344 130.256C211.312 130.267 211.269 130.272 211.216 130.272C211.098 130.272 211.002 130.219 210.928 130.112L210.752 129.872C210.698 129.787 210.672 129.712 210.672 129.648C210.672 129.563 210.709 129.488 210.784 129.424L214.816 125.568H209.408C209.194 125.568 209.088 125.461 209.088 125.248V124.96C209.088 124.747 209.194 124.64 209.408 124.64H215.84C216.053 124.64 216.16 124.747 216.16 124.96V125.312C216.16 125.461 216.101 125.595 215.984 125.712L212.24 129.264L212.624 129.248ZM226.253 132.336C226.466 132.336 226.573 132.443 226.573 132.656V132.928C226.573 133.141 226.466 133.248 226.253 133.248H224.829V135.68C224.829 135.893 224.722 136 224.509 136H224.093C223.879 136 223.773 135.893 223.773 135.68V133.248H218.269C218.055 133.248 217.949 133.141 217.949 132.928V132.512C217.949 132.395 217.986 132.267 218.061 132.128L222.637 124.848C222.722 124.709 222.85 124.64 223.021 124.64H223.533C223.618 124.64 223.687 124.661 223.741 124.704C223.794 124.736 223.821 124.784 223.821 124.848C223.821 124.88 223.799 124.939 223.757 125.024L219.133 132.336H223.773V129.92C223.773 129.707 223.879 129.6 224.093 129.6H224.509C224.722 129.6 224.829 129.707 224.829 129.92V132.336H226.253ZM231.805 128.672C232.541 128.672 233.186 128.827 233.741 129.136C234.306 129.435 234.743 129.861 235.053 130.416C235.362 130.971 235.517 131.611 235.517 132.336C235.517 132.987 235.362 133.611 235.053 134.208C234.743 134.805 234.295 135.291 233.709 135.664C233.122 136.037 232.434 136.224 231.645 136.224C230.877 136.224 230.21 136.128 229.645 135.936C229.09 135.744 228.461 135.413 227.757 134.944C227.65 134.88 227.597 134.795 227.597 134.688C227.597 134.613 227.618 134.549 227.661 134.496L227.868 134.208C227.933 134.112 228.007 134.064 228.093 134.064C228.157 134.064 228.231 134.091 228.317 134.144C228.967 134.581 229.522 134.885 229.981 135.056C230.45 135.227 230.967 135.312 231.533 135.312C232.13 135.312 232.647 135.179 233.085 134.912C233.522 134.635 233.853 134.272 234.077 133.824C234.311 133.365 234.429 132.869 234.429 132.336C234.429 131.483 234.189 130.816 233.709 130.336C233.239 129.856 232.562 129.616 231.677 129.616C230.727 129.616 229.933 129.904 229.293 130.48C229.175 130.587 229.037 130.629 228.877 130.608L228.525 130.56C228.429 130.549 228.354 130.512 228.301 130.448C228.247 130.384 228.226 130.304 228.237 130.208L228.669 124.944C228.679 124.848 228.711 124.773 228.765 124.72C228.829 124.667 228.909 124.64 229.005 124.64H234.701C234.914 124.64 235.021 124.747 235.021 124.96V125.248C235.021 125.461 234.914 125.568 234.701 125.568H229.613L229.277 129.504C229.575 129.259 229.938 129.061 230.365 128.912C230.802 128.752 231.282 128.672 231.805 128.672ZM241.206 136.24C240.46 136.24 239.804 136.059 239.238 135.696C238.684 135.333 238.241 134.827 237.91 134.176C237.388 133.141 237.126 131.856 237.126 130.32C237.126 128.773 237.388 127.483 237.91 126.448C238.241 125.797 238.684 125.296 239.238 124.944C239.804 124.581 240.46 124.4 241.206 124.4C241.953 124.4 242.604 124.581 243.158 124.944C243.724 125.296 244.172 125.797 244.502 126.448C245.025 127.483 245.286 128.773 245.286 130.32C245.286 131.856 245.025 133.141 244.502 134.176C244.172 134.827 243.724 135.333 243.158 135.696C242.604 136.059 241.953 136.24 241.206 136.24ZM241.206 135.312C242.252 135.312 243.036 134.768 243.558 133.68C243.974 132.795 244.182 131.675 244.182 130.32C244.182 128.944 243.974 127.819 243.558 126.944C243.046 125.867 242.262 125.328 241.206 125.328C240.15 125.328 239.366 125.867 238.854 126.944C238.438 127.819 238.23 128.944 238.23 130.32C238.23 131.685 238.438 132.805 238.854 133.68C239.377 134.768 240.161 135.312 241.206 135.312Z" fill="#464646"/>
</g>
<path d="M262 157H136V159H262V157Z" fill="#E1E6EE" mask="url(#path-18-inside-6_2324_28760)"/>
<mask id="path-21-inside-7_2324_28760" fill="white">
<path d="M262 0H350V50H262V0Z"/>
</mask>
<path d="M262 0H350V50H262V0Z" fill="white"/>
<path d="M278.467 28.55C278.467 28.3913 278.509 28.27 278.593 28.186C278.687 28.102 278.808 28.06 278.957 28.06H279.531C279.69 28.06 279.811 28.102 279.895 28.186C279.979 28.27 280.021 28.3913 280.021 28.55V37.51C280.021 37.6593 279.979 37.7807 279.895 37.874C279.811 37.958 279.69 38 279.531 38H278.663C278.402 38 278.206 37.8927 278.075 37.678L275.527 33.702C274.557 32.19 273.829 30.9953 273.343 30.118C273.39 31.1167 273.413 32.4093 273.413 33.996V37.51C273.413 37.6593 273.371 37.7807 273.287 37.874C273.203 37.958 273.082 38 272.923 38H272.349C272.2 38 272.079 37.958 271.985 37.874C271.901 37.7807 271.859 37.6593 271.859 37.51V28.55C271.859 28.3913 271.901 28.27 271.985 28.186C272.079 28.102 272.2 28.06 272.349 28.06H273.245C273.507 28.06 273.703 28.1673 273.833 28.382L276.465 32.512C277.399 33.968 278.085 35.088 278.523 35.872C278.486 34.8733 278.467 33.6413 278.467 32.176V28.55ZM286.34 31.588C286.34 31.4293 286.382 31.308 286.466 31.224C286.559 31.14 286.68 31.098 286.83 31.098H287.334C287.492 31.098 287.614 31.14 287.698 31.224C287.782 31.308 287.824 31.4293 287.824 31.588V37.51C287.824 37.6593 287.782 37.7807 287.698 37.874C287.614 37.958 287.492 38 287.334 38H286.956C286.806 38 286.685 37.958 286.592 37.874C286.508 37.7807 286.466 37.6593 286.466 37.51V37.188C286.279 37.5053 286.008 37.7573 285.654 37.944C285.299 38.1213 284.879 38.21 284.394 38.21C283.572 38.21 282.961 38.0093 282.56 37.608C282.158 37.1973 281.958 36.656 281.958 35.984V31.588C281.958 31.4293 282 31.308 282.084 31.224C282.177 31.14 282.298 31.098 282.448 31.098H282.952C283.11 31.098 283.232 31.14 283.316 31.224C283.4 31.308 283.442 31.4293 283.442 31.588V35.592C283.442 36.0213 283.549 36.3527 283.764 36.586C283.988 36.81 284.31 36.922 284.73 36.922C285.215 36.922 285.602 36.782 285.892 36.502C286.19 36.222 286.34 35.816 286.34 35.284V31.588ZM296.938 30.888C297.675 30.888 298.244 31.098 298.646 31.518C299.047 31.9287 299.248 32.484 299.248 33.184V37.51C299.248 37.6593 299.206 37.7807 299.122 37.874C299.038 37.958 298.916 38 298.758 38H298.254C298.104 38 297.983 37.958 297.89 37.874C297.806 37.7807 297.764 37.6593 297.764 37.51V33.632C297.764 33.1747 297.661 32.8153 297.456 32.554C297.25 32.2927 296.938 32.162 296.518 32.162C296.088 32.162 295.748 32.3067 295.496 32.596C295.253 32.8853 295.132 33.2587 295.132 33.716V37.51C295.132 37.6593 295.09 37.7807 295.006 37.874C294.922 37.958 294.8 38 294.642 38H294.138C293.988 38 293.867 37.958 293.774 37.874C293.69 37.7807 293.648 37.6593 293.648 37.51V33.632C293.648 33.1747 293.545 32.8153 293.34 32.554C293.144 32.2927 292.836 32.162 292.416 32.162C292.005 32.162 291.674 32.2973 291.422 32.568C291.17 32.8387 291.034 33.1887 291.016 33.618V37.51C291.016 37.6593 290.974 37.7807 290.89 37.874C290.806 37.958 290.684 38 290.526 38H290.022C289.872 38 289.751 37.958 289.658 37.874C289.574 37.7807 289.532 37.6593 289.532 37.51V31.588C289.532 31.4293 289.574 31.308 289.658 31.224C289.751 31.14 289.872 31.098 290.022 31.098H290.428C290.586 31.098 290.708 31.14 290.792 31.224C290.876 31.308 290.918 31.4293 290.918 31.588V31.896C291.347 31.224 292.01 30.888 292.906 30.888C293.354 30.888 293.746 30.9813 294.082 31.168C294.418 31.3547 294.674 31.616 294.852 31.952C295.328 31.2427 296.023 30.888 296.938 30.888ZM305.89 36.236C306.011 36.1333 306.128 36.082 306.24 36.082C306.352 36.082 306.468 36.1427 306.59 36.264L306.786 36.474C306.888 36.5953 306.94 36.712 306.94 36.824C306.94 36.9453 306.879 37.062 306.758 37.174C306.328 37.5473 305.899 37.8133 305.47 37.972C305.05 38.1307 304.583 38.21 304.07 38.21C303.351 38.21 302.726 38.0607 302.194 37.762C301.671 37.4633 301.265 37.0433 300.976 36.502C300.696 35.9513 300.556 35.3167 300.556 34.598C300.556 33.8887 300.691 33.254 300.962 32.694C301.242 32.1247 301.634 31.6813 302.138 31.364C302.651 31.0467 303.248 30.888 303.93 30.888C304.947 30.888 305.731 31.1913 306.282 31.798C306.832 32.3953 307.108 33.2213 307.108 34.276V34.402C307.098 34.5513 307.052 34.668 306.968 34.752C306.884 34.836 306.762 34.878 306.604 34.878H302.012C302.068 35.494 302.268 35.998 302.614 36.39C302.968 36.7727 303.463 36.964 304.098 36.964C304.443 36.964 304.746 36.9127 305.008 36.81C305.269 36.698 305.563 36.5067 305.89 36.236ZM303.902 32.064C303.388 32.064 302.973 32.218 302.656 32.526C302.348 32.8247 302.147 33.2493 302.054 33.8H305.652C305.614 33.2587 305.446 32.834 305.148 32.526C304.849 32.218 304.434 32.064 303.902 32.064ZM311.575 31.028C311.781 31.028 311.991 31.0513 312.205 31.098C312.457 31.154 312.583 31.3033 312.583 31.546C312.583 31.6113 312.579 31.658 312.569 31.686L312.499 32.022C312.443 32.2833 312.303 32.414 312.079 32.414L311.953 32.4C311.785 32.372 311.636 32.358 311.505 32.358C311.039 32.358 310.661 32.5447 310.371 32.918C310.091 33.282 309.951 33.7907 309.951 34.444V37.51C309.951 37.6593 309.909 37.7807 309.825 37.874C309.741 37.958 309.62 38 309.461 38H308.957C308.808 38 308.687 37.958 308.593 37.874C308.509 37.7807 308.467 37.6593 308.467 37.51V31.588C308.467 31.4293 308.509 31.308 308.593 31.224C308.687 31.14 308.808 31.098 308.957 31.098H309.363C309.522 31.098 309.643 31.14 309.727 31.224C309.811 31.308 309.853 31.4293 309.853 31.588V32.134C310.021 31.7887 310.25 31.518 310.539 31.322C310.829 31.126 311.174 31.028 311.575 31.028ZM314.419 29.754C314.148 29.754 313.919 29.6653 313.733 29.488C313.546 29.3013 313.453 29.082 313.453 28.83C313.453 28.5687 313.546 28.3493 313.733 28.172C313.919 27.9947 314.148 27.906 314.419 27.906C314.689 27.906 314.918 27.9947 315.105 28.172C315.291 28.3493 315.385 28.5687 315.385 28.83C315.385 29.082 315.291 29.3013 315.105 29.488C314.918 29.6653 314.689 29.754 314.419 29.754ZM314.153 38C314.003 38 313.882 37.958 313.789 37.874C313.705 37.7807 313.663 37.6593 313.663 37.51V31.588C313.663 31.4293 313.705 31.308 313.789 31.224C313.882 31.14 314.003 31.098 314.153 31.098H314.657C314.815 31.098 314.937 31.14 315.021 31.224C315.105 31.308 315.147 31.4293 315.147 31.588V37.51C315.147 37.6593 315.105 37.7807 315.021 37.874C314.937 37.958 314.815 38 314.657 38H314.153ZM319.9 38.21C319.218 38.21 318.616 38.0607 318.094 37.762C317.58 37.4633 317.179 37.0387 316.89 36.488C316.61 35.928 316.47 35.2793 316.47 34.542C316.47 33.8047 316.614 33.1607 316.904 32.61C317.193 32.0593 317.599 31.6347 318.122 31.336C318.644 31.0373 319.246 30.888 319.928 30.888C320.422 30.888 320.866 30.9627 321.258 31.112C321.659 31.252 322.042 31.4947 322.406 31.84C322.518 31.952 322.574 32.0687 322.574 32.19C322.574 32.302 322.513 32.4187 322.392 32.54L322.154 32.778C322.051 32.8807 321.939 32.932 321.818 32.932C321.696 32.932 321.57 32.876 321.44 32.764C321.169 32.5307 320.912 32.372 320.67 32.288C320.436 32.1947 320.184 32.148 319.914 32.148C319.298 32.148 318.822 32.3767 318.486 32.834C318.15 33.2913 317.982 33.8607 317.982 34.542C317.982 35.2233 318.15 35.7973 318.486 36.264C318.822 36.7213 319.298 36.95 319.914 36.95C320.212 36.95 320.488 36.894 320.74 36.782C320.992 36.6607 321.262 36.46 321.552 36.18C321.673 36.0587 321.799 35.998 321.93 35.998C322.042 35.998 322.149 36.0447 322.252 36.138L322.49 36.334C322.611 36.4367 322.672 36.5533 322.672 36.684C322.672 36.824 322.602 36.9733 322.462 37.132C322.079 37.524 321.682 37.804 321.272 37.972C320.87 38.1307 320.413 38.21 319.9 38.21ZM326.938 30.888C327.871 30.888 328.59 31.1073 329.094 31.546C329.598 31.9753 329.85 32.5493 329.85 33.268V37.51C329.85 37.6593 329.808 37.7807 329.724 37.874C329.64 37.958 329.519 38 329.36 38H328.996C328.847 38 328.725 37.958 328.632 37.874C328.548 37.7807 328.506 37.6593 328.506 37.51V37.202C328.282 37.5287 327.974 37.7807 327.582 37.958C327.19 38.1353 326.733 38.224 326.21 38.224C325.491 38.224 324.899 38.0653 324.432 37.748C323.975 37.4213 323.746 36.9313 323.746 36.278C323.746 35.55 324.017 35.0133 324.558 34.668C325.109 34.3133 325.869 34.0473 326.84 33.87L328.422 33.576V33.324C328.422 32.9413 328.287 32.6473 328.016 32.442C327.755 32.2273 327.405 32.12 326.966 32.12C326.593 32.12 326.266 32.1853 325.986 32.316C325.715 32.4373 325.421 32.6427 325.104 32.932C324.983 33.0347 324.866 33.086 324.754 33.086C324.642 33.086 324.525 33.0347 324.404 32.932L324.18 32.736C324.059 32.624 323.998 32.5027 323.998 32.372C323.998 32.2507 324.054 32.134 324.166 32.022C324.567 31.6393 324.992 31.3547 325.44 31.168C325.888 30.9813 326.387 30.888 326.938 30.888ZM326.42 37.034C326.98 37.034 327.451 36.8847 327.834 36.586C328.226 36.2873 328.422 35.858 328.422 35.298V34.654L327.204 34.906C326.523 35.046 326.019 35.2047 325.692 35.382C325.365 35.5593 325.202 35.83 325.202 36.194C325.202 36.4553 325.309 36.6607 325.524 36.81C325.739 36.9593 326.037 37.034 326.42 37.034ZM332.091 38C331.942 38 331.821 37.958 331.727 37.874C331.643 37.7807 331.601 37.6593 331.601 37.51V28.55C331.601 28.3913 331.643 28.27 331.727 28.186C331.821 28.102 331.942 28.06 332.091 28.06H332.595C332.754 28.06 332.875 28.102 332.959 28.186C333.043 28.27 333.085 28.3913 333.085 28.55V37.51C333.085 37.6593 333.043 37.7807 332.959 37.874C332.875 37.958 332.754 38 332.595 38H332.091Z" fill="#464646"/>
<path d="M350 49H262V51H350V49Z" fill="#C3CCD9" mask="url(#path-21-inside-7_2324_28760)"/>
<g clip-path="url(#clip6_2324_28760)">
<mask id="path-24-inside-8_2324_28760" fill="white">
<path d="M262 50H350V104H262V50Z"/>
</mask>
<path d="M262 50H350V104H262V50Z" fill="#F6F8FB"/>
<path d="M306.68 74.672C307.416 74.672 308.061 74.8267 308.616 75.136C309.181 75.4347 309.618 75.8613 309.928 76.416C310.237 76.9707 310.392 77.6107 310.392 78.336C310.392 78.9867 310.237 79.6107 309.928 80.208C309.618 80.8053 309.17 81.2907 308.584 81.664C307.997 82.0373 307.309 82.224 306.52 82.224C305.752 82.224 305.085 82.128 304.52 81.936C303.965 81.744 303.336 81.4133 302.632 80.944C302.525 80.88 302.472 80.7947 302.472 80.688C302.472 80.6133 302.493 80.5493 302.536 80.496L302.743 80.208C302.808 80.112 302.882 80.064 302.968 80.064C303.032 80.064 303.106 80.0907 303.192 80.144C303.842 80.5813 304.397 80.8853 304.856 81.056C305.325 81.2267 305.842 81.312 306.408 81.312C307.005 81.312 307.522 81.1787 307.96 80.912C308.397 80.6347 308.728 80.272 308.952 79.824C309.186 79.3653 309.304 78.8693 309.304 78.336C309.304 77.4827 309.064 76.816 308.584 76.336C308.114 75.856 307.437 75.616 306.552 75.616C305.602 75.616 304.808 75.904 304.168 76.48C304.05 76.5867 303.912 76.6293 303.752 76.608L303.4 76.56C303.304 76.5493 303.229 76.512 303.176 76.448C303.122 76.384 303.101 76.304 303.112 76.208L303.544 70.944C303.554 70.848 303.586 70.7733 303.64 70.72C303.704 70.6667 303.784 70.64 303.88 70.64H309.576C309.789 70.64 309.896 70.7467 309.896 70.96V71.248C309.896 71.4613 309.789 71.568 309.576 71.568H304.488L304.152 75.504C304.45 75.2587 304.813 75.0613 305.24 74.912C305.677 74.752 306.157 74.672 306.68 74.672ZM312.897 82.112C312.673 82.112 312.481 82.032 312.321 81.872C312.161 81.712 312.081 81.52 312.081 81.296C312.081 81.072 312.161 80.88 312.321 80.72C312.481 80.56 312.673 80.48 312.897 80.48C313.121 80.48 313.313 80.56 313.473 80.72C313.633 80.88 313.713 81.072 313.713 81.296C313.713 81.52 313.633 81.712 313.473 81.872C313.313 82.032 313.121 82.112 312.897 82.112ZM316.906 70.768C317.023 70.6827 317.156 70.64 317.306 70.64H317.562C317.775 70.64 317.882 70.7467 317.882 70.96V81.68C317.882 81.8933 317.775 82 317.562 82H317.13C316.916 82 316.81 81.8933 316.81 81.68V72.016L314.394 73.744C314.319 73.7973 314.25 73.824 314.186 73.824C314.09 73.824 314.01 73.776 313.946 73.68L313.786 73.44C313.743 73.3867 313.722 73.3227 313.722 73.248C313.722 73.152 313.77 73.0667 313.866 72.992L316.906 70.768ZM323.766 81.968C323.702 82.064 323.622 82.112 323.526 82.112C323.451 82.112 323.387 82.0907 323.334 82.048L323.174 81.952C323.078 81.888 323.03 81.808 323.03 81.712C323.03 81.648 323.051 81.5787 323.094 81.504L330.694 70.672C330.758 70.576 330.843 70.528 330.95 70.528C331.014 70.528 331.078 70.544 331.142 70.576L331.302 70.672C331.408 70.736 331.462 70.8213 331.462 70.928C331.462 71.0027 331.44 71.0667 331.398 71.12L323.766 81.968ZM323.798 75.616C323.36 75.616 322.955 75.5147 322.582 75.312C322.219 75.0987 321.931 74.8 321.718 74.416C321.504 74.032 321.398 73.6 321.398 73.12C321.398 72.64 321.504 72.2133 321.718 71.84C321.931 71.456 322.219 71.1627 322.582 70.96C322.955 70.7467 323.36 70.64 323.798 70.64C324.235 70.64 324.635 70.7467 324.998 70.96C325.371 71.1627 325.664 71.456 325.878 71.84C326.091 72.2133 326.198 72.64 326.198 73.12C326.198 73.6 326.091 74.032 325.878 74.416C325.664 74.8 325.371 75.0987 324.998 75.312C324.635 75.5147 324.235 75.616 323.798 75.616ZM323.798 74.848C324.256 74.848 324.619 74.688 324.886 74.368C325.163 74.0373 325.302 73.6213 325.302 73.12C325.302 72.6187 325.163 72.208 324.886 71.888C324.619 71.5573 324.256 71.392 323.798 71.392C323.339 71.392 322.971 71.5573 322.694 71.888C322.427 72.208 322.294 72.6187 322.294 73.12C322.294 73.6213 322.427 74.0373 322.694 74.368C322.971 74.688 323.339 74.848 323.798 74.848ZM330.63 82.32C330.192 82.32 329.787 82.2133 329.414 82C329.051 81.7973 328.763 81.504 328.55 81.12C328.336 80.736 328.23 80.304 328.23 79.824C328.23 79.344 328.336 78.9173 328.55 78.544C328.763 78.16 329.051 77.8667 329.414 77.664C329.787 77.4507 330.192 77.344 330.63 77.344C331.067 77.344 331.467 77.4507 331.83 77.664C332.203 77.8667 332.496 78.16 332.71 78.544C332.923 78.9173 333.03 79.344 333.03 79.824C333.03 80.304 332.923 80.736 332.71 81.12C332.496 81.504 332.203 81.7973 331.83 82C331.467 82.2133 331.067 82.32 330.63 82.32ZM330.63 81.552C331.088 81.552 331.451 81.392 331.718 81.072C331.995 80.7413 332.134 80.3253 332.134 79.824C332.134 79.3227 331.995 78.912 331.718 78.592C331.451 78.2613 331.088 78.096 330.63 78.096C330.171 78.096 329.803 78.2613 329.526 78.592C329.259 78.912 329.126 79.3227 329.126 79.824C329.126 80.3253 329.259 80.7413 329.526 81.072C329.803 81.392 330.171 81.552 330.63 81.552Z" fill="#464646"/>
</g>
<path d="M350 103H262V105H350V103Z" fill="#E1E6EE" mask="url(#path-24-inside-8_2324_28760)"/>
<g clip-path="url(#clip7_2324_28760)">
<path d="M307.19 132.336C307.404 132.336 307.51 132.443 307.51 132.656V132.928C307.51 133.141 307.404 133.248 307.19 133.248H305.766V135.68C305.766 135.893 305.66 136 305.446 136H305.03C304.817 136 304.71 135.893 304.71 135.68V133.248H299.206C298.993 133.248 298.886 133.141 298.886 132.928V132.512C298.886 132.395 298.924 132.267 298.998 132.128L303.574 124.848C303.66 124.709 303.788 124.64 303.958 124.64H304.47C304.556 124.64 304.625 124.661 304.678 124.704C304.732 124.736 304.758 124.784 304.758 124.848C304.758 124.88 304.737 124.939 304.694 125.024L300.07 132.336H304.71V129.92C304.71 129.707 304.817 129.6 305.03 129.6H305.446C305.66 129.6 305.766 129.707 305.766 129.92V132.336H307.19ZM309.507 136.112C309.283 136.112 309.091 136.032 308.931 135.872C308.771 135.712 308.691 135.52 308.691 135.296C308.691 135.072 308.771 134.88 308.931 134.72C309.091 134.56 309.283 134.48 309.507 134.48C309.731 134.48 309.923 134.56 310.083 134.72C310.243 134.88 310.323 135.072 310.323 135.296C310.323 135.52 310.243 135.712 310.083 135.872C309.923 136.032 309.731 136.112 309.507 136.112ZM315.733 129.248C316.864 129.248 317.781 129.536 318.485 130.112C319.189 130.688 319.541 131.509 319.541 132.576C319.541 133.173 319.392 133.755 319.093 134.32C318.805 134.885 318.373 135.349 317.797 135.712C317.221 136.064 316.528 136.24 315.717 136.24C315.045 136.24 314.4 136.144 313.781 135.952C313.173 135.749 312.549 135.445 311.909 135.04C311.802 134.976 311.749 134.891 311.749 134.784C311.749 134.709 311.77 134.645 311.813 134.592L312.021 134.304C312.085 134.208 312.165 134.16 312.261 134.16C312.346 134.16 312.416 134.181 312.469 134.224C313.098 134.619 313.653 134.901 314.133 135.072C314.624 135.232 315.141 135.312 315.685 135.312C316.24 135.312 316.725 135.195 317.141 134.96C317.557 134.715 317.877 134.389 318.101 133.984C318.336 133.568 318.453 133.104 318.453 132.592C318.453 131.824 318.208 131.221 317.717 130.784C317.226 130.347 316.496 130.128 315.525 130.128C315.12 130.128 314.762 130.171 314.453 130.256C314.421 130.267 314.378 130.272 314.325 130.272C314.208 130.272 314.112 130.219 314.037 130.112L313.861 129.872C313.808 129.787 313.781 129.712 313.781 129.648C313.781 129.563 313.818 129.488 313.893 129.424L317.925 125.568H312.517C312.304 125.568 312.197 125.461 312.197 125.248V124.96C312.197 124.747 312.304 124.64 312.517 124.64H318.949C319.162 124.64 319.269 124.747 319.269 124.96V125.312C319.269 125.461 319.21 125.595 319.093 125.712L315.349 129.264L315.733 129.248ZM323.766 135.968C323.702 136.064 323.622 136.112 323.526 136.112C323.451 136.112 323.387 136.091 323.334 136.048L323.174 135.952C323.078 135.888 323.03 135.808 323.03 135.712C323.03 135.648 323.051 135.579 323.094 135.504L330.694 124.672C330.758 124.576 330.843 124.528 330.95 124.528C331.014 124.528 331.078 124.544 331.142 124.576L331.302 124.672C331.408 124.736 331.462 124.821 331.462 124.928C331.462 125.003 331.44 125.067 331.398 125.12L323.766 135.968ZM323.798 129.616C323.36 129.616 322.955 129.515 322.582 129.312C322.219 129.099 321.931 128.8 321.718 128.416C321.504 128.032 321.398 127.6 321.398 127.12C321.398 126.64 321.504 126.213 321.718 125.84C321.931 125.456 322.219 125.163 322.582 124.96C322.955 124.747 323.36 124.64 323.798 124.64C324.235 124.64 324.635 124.747 324.998 124.96C325.371 125.163 325.664 125.456 325.878 125.84C326.091 126.213 326.198 126.64 326.198 127.12C326.198 127.6 326.091 128.032 325.878 128.416C325.664 128.8 325.371 129.099 324.998 129.312C324.635 129.515 324.235 129.616 323.798 129.616ZM323.798 128.848C324.256 128.848 324.619 128.688 324.886 128.368C325.163 128.037 325.302 127.621 325.302 127.12C325.302 126.619 325.163 126.208 324.886 125.888C324.619 125.557 324.256 125.392 323.798 125.392C323.339 125.392 322.971 125.557 322.694 125.888C322.427 126.208 322.294 126.619 322.294 127.12C322.294 127.621 322.427 128.037 322.694 128.368C322.971 128.688 323.339 128.848 323.798 128.848ZM330.63 136.32C330.192 136.32 329.787 136.213 329.414 136C329.051 135.797 328.763 135.504 328.55 135.12C328.336 134.736 328.23 134.304 328.23 133.824C328.23 133.344 328.336 132.917 328.55 132.544C328.763 132.16 329.051 131.867 329.414 131.664C329.787 131.451 330.192 131.344 330.63 131.344C331.067 131.344 331.467 131.451 331.83 131.664C332.203 131.867 332.496 132.16 332.71 132.544C332.923 132.917 333.03 133.344 333.03 133.824C333.03 134.304 332.923 134.736 332.71 135.12C332.496 135.504 332.203 135.797 331.83 136C331.467 136.213 331.067 136.32 330.63 136.32ZM330.63 135.552C331.088 135.552 331.451 135.392 331.718 135.072C331.995 134.741 332.134 134.325 332.134 133.824C332.134 133.323 331.995 132.912 331.718 132.592C331.451 132.261 331.088 132.096 330.63 132.096C330.171 132.096 329.803 132.261 329.526 132.592C329.259 132.912 329.126 133.323 329.126 133.824C329.126 134.325 329.259 134.741 329.526 135.072C329.803 135.392 330.171 135.552 330.63 135.552Z" fill="#464646"/>
</g>
<path d="M350 157H262V159H350V157Z" fill="#E1E6EE" mask="url(#path-27-inside-9_2324_28760)"/>
</g>
<rect x="0.5" y="0.5" width="349" height="157" rx="3.5" stroke="#C3CCD9"/>
</g>
<defs>
<clipPath id="clip0_2324_28760">
<rect width="350" height="158" fill="white"/>
</clipPath>
<clipPath id="clip1_2324_28760">
<rect width="350" height="158" rx="4" fill="white"/>
</clipPath>
<clipPath id="clip2_2324_28760">
<path d="M0 50H136V104H0V50Z" fill="white"/>
</clipPath>
<clipPath id="clip3_2324_28760">
<path d="M0 104H136V158H0V104Z" fill="white"/>
</clipPath>
<clipPath id="clip4_2324_28760">
<path d="M136 50H262V104H136V50Z" fill="white"/>
</clipPath>
<clipPath id="clip5_2324_28760">
<path d="M136 104H262V158H136V104Z" fill="white"/>
</clipPath>
<clipPath id="clip6_2324_28760">
<path d="M262 50H350V104H262V50Z" fill="white"/>
</clipPath>
<clipPath id="clip7_2324_28760">
<path d="M262 104H350V158H262V104Z" fill="white"/>
</clipPath>
</defs>
</svg>
