<svg width="406" height="394" viewBox="0 0 406 394" fill="none" xmlns="http://www.w3.org/2000/svg">
<rect x="4.5" y="24.5" width="397" height="345" rx="7.5" fill="white"/>
<g clip-path="url(#clip0_2374_30333)">
<path d="M116.497 342C116.339 342 116.231 341.925 116.175 341.776L115.251 339.214H110.729L109.819 341.776C109.763 341.925 109.656 342 109.497 342H109.063C108.989 342 108.928 341.981 108.881 341.944C108.835 341.907 108.811 341.855 108.811 341.79L108.839 341.678L112.269 332.284C112.325 332.135 112.433 332.06 112.591 332.06H113.403C113.562 332.06 113.669 332.135 113.725 332.284L117.155 341.678L117.183 341.79C117.183 341.855 117.16 341.907 117.113 341.944C117.067 341.981 117.006 342 116.931 342H116.497ZM114.943 338.374L114.453 337.002L114.341 336.708C114.211 336.353 113.996 335.761 113.697 334.93C113.408 334.099 113.17 333.395 112.983 332.816C112.731 333.609 112.335 334.762 111.793 336.274C111.756 336.377 111.714 336.489 111.667 336.61C111.621 336.731 111.574 336.862 111.527 337.002L111.037 338.374H114.943Z" fill="#767676"/>
<path d="M223.127 336.736C223.706 336.913 224.163 337.212 224.499 337.632C224.844 338.052 225.017 338.579 225.017 339.214C225.017 340.063 224.742 340.74 224.191 341.244C223.64 341.748 222.903 342 221.979 342H217.863C217.676 342 217.583 341.907 217.583 341.72V332.34C217.583 332.153 217.676 332.06 217.863 332.06H221.811C222.67 332.06 223.36 332.275 223.883 332.704C224.406 333.133 224.667 333.754 224.667 334.566C224.667 335.107 224.527 335.565 224.247 335.938C223.976 336.311 223.603 336.577 223.127 336.736ZM218.577 336.372H221.643C222.287 336.372 222.791 336.218 223.155 335.91C223.519 335.593 223.701 335.149 223.701 334.58C223.701 334.039 223.519 333.623 223.155 333.334C222.8 333.035 222.296 332.886 221.643 332.886H218.577V336.372ZM221.713 341.174C222.469 341.174 223.043 340.997 223.435 340.642C223.836 340.287 224.037 339.807 224.037 339.2C224.037 338.584 223.832 338.094 223.421 337.73C223.02 337.366 222.455 337.184 221.727 337.184H218.577V341.174H221.713Z" fill="#767676"/>
<path d="M329.594 342.21C328.642 342.21 327.821 341.991 327.13 341.552C326.439 341.104 325.912 340.488 325.548 339.704C325.184 338.92 325.002 338.029 325.002 337.03C325.002 336.022 325.184 335.126 325.548 334.342C325.912 333.558 326.444 332.947 327.144 332.508C327.853 332.069 328.703 331.85 329.692 331.85C330.261 331.85 330.793 331.943 331.288 332.13C331.783 332.307 332.31 332.615 332.87 333.054C332.954 333.11 332.996 333.175 332.996 333.25C332.996 333.306 332.968 333.371 332.912 333.446L332.716 333.698C332.66 333.773 332.595 333.81 332.52 333.81C332.445 333.81 332.375 333.782 332.31 333.726C331.806 333.334 331.349 333.068 330.938 332.928C330.537 332.779 330.121 332.704 329.692 332.704C328.936 332.704 328.278 332.891 327.718 333.264C327.167 333.628 326.743 334.137 326.444 334.79C326.145 335.443 325.996 336.19 325.996 337.03C325.996 337.861 326.145 338.607 326.444 339.27C326.743 339.923 327.163 340.437 327.704 340.81C328.245 341.174 328.871 341.356 329.58 341.356C330.14 341.356 330.635 341.249 331.064 341.034C331.503 340.81 331.969 340.465 332.464 339.998C332.539 339.942 332.604 339.914 332.66 339.914C332.735 339.914 332.805 339.947 332.87 340.012L333.094 340.264C333.15 340.32 333.178 340.381 333.178 340.446C333.178 340.53 333.131 340.614 333.038 340.698C332.459 341.249 331.909 341.641 331.386 341.874C330.863 342.098 330.266 342.21 329.594 342.21Z" fill="#767676"/>
<path d="M33.1187 55.504C33.8 55.504 34.3927 55.658 34.8967 55.966C35.4007 56.2647 35.7833 56.6707 36.0447 57.184C36.3153 57.688 36.4507 58.2433 36.4507 58.85C36.4507 59.4473 36.3107 60.0027 36.0307 60.516C35.7507 61.0293 35.3447 61.44 34.8127 61.748C34.29 62.056 33.674 62.21 32.9647 62.21C32.218 62.21 31.5787 62.042 31.0467 61.706C30.5147 61.37 30.1133 60.9173 29.8427 60.348C29.572 59.7787 29.4367 59.1393 29.4367 58.43C29.4367 57.3473 29.698 56.3767 30.2207 55.518C30.7527 54.65 31.5133 53.74 32.5027 52.788L33.1327 52.2C33.226 52.1067 33.338 52.06 33.4687 52.06H34.0287C34.1873 52.06 34.2667 52.1113 34.2667 52.214C34.2667 52.27 34.2293 52.3353 34.1547 52.41L33.2727 53.222C31.8633 54.5287 30.958 55.6907 30.5567 56.708C30.8273 56.3347 31.182 56.0407 31.6207 55.826C32.0593 55.6113 32.5587 55.504 33.1187 55.504ZM32.9647 61.398C33.478 61.398 33.926 61.286 34.3087 61.062C34.6913 60.838 34.9807 60.5347 35.1767 60.152C35.382 59.7693 35.4847 59.34 35.4847 58.864C35.4847 58.1267 35.27 57.52 34.8407 57.044C34.4113 56.568 33.814 56.33 33.0487 56.33C32.5073 56.33 32.0407 56.442 31.6487 56.666C31.2567 56.8807 30.9533 57.184 30.7387 57.576C30.5333 57.9587 30.4307 58.388 30.4307 58.864C30.4307 59.34 30.5333 59.7693 30.7387 60.152C30.944 60.5347 31.238 60.838 31.6207 61.062C32.0033 61.286 32.4513 61.398 32.9647 61.398ZM41.2195 62.21C40.5662 62.21 39.9922 62.0513 39.4975 61.734C39.0122 61.4167 38.6249 60.9733 38.3355 60.404C37.8782 59.4987 37.6495 58.374 37.6495 57.03C37.6495 55.6767 37.8782 54.5473 38.3355 53.642C38.6249 53.0727 39.0122 52.634 39.4975 52.326C39.9922 52.0087 40.5662 51.85 41.2195 51.85C41.8729 51.85 42.4422 52.0087 42.9275 52.326C43.4222 52.634 43.8142 53.0727 44.1035 53.642C44.5609 54.5473 44.7895 55.6767 44.7895 57.03C44.7895 58.374 44.5609 59.4987 44.1035 60.404C43.8142 60.9733 43.4222 61.4167 42.9275 61.734C42.4422 62.0513 41.8729 62.21 41.2195 62.21ZM41.2195 61.398C42.1342 61.398 42.8202 60.922 43.2775 59.97C43.6415 59.1953 43.8235 58.2153 43.8235 57.03C43.8235 55.826 43.6415 54.8413 43.2775 54.076C42.8295 53.1333 42.1435 52.662 41.2195 52.662C40.2955 52.662 39.6095 53.1333 39.1615 54.076C38.7975 54.8413 38.6155 55.826 38.6155 57.03C38.6155 58.2247 38.7975 59.2047 39.1615 59.97C39.6189 60.922 40.3049 61.398 41.2195 61.398ZM49.8055 62.21C49.1521 62.21 48.5781 62.0513 48.0835 61.734C47.5981 61.4167 47.2108 60.9733 46.9215 60.404C46.4641 59.4987 46.2355 58.374 46.2355 57.03C46.2355 55.6767 46.4641 54.5473 46.9215 53.642C47.2108 53.0727 47.5981 52.634 48.0835 52.326C48.5781 52.0087 49.1521 51.85 49.8055 51.85C50.4588 51.85 51.0281 52.0087 51.5135 52.326C52.0081 52.634 52.4001 53.0727 52.6895 53.642C53.1468 54.5473 53.3755 55.6767 53.3755 57.03C53.3755 58.374 53.1468 59.4987 52.6895 60.404C52.4001 60.9733 52.0081 61.4167 51.5135 61.734C51.0281 62.0513 50.4588 62.21 49.8055 62.21ZM49.8055 61.398C50.7201 61.398 51.4061 60.922 51.8635 59.97C52.2275 59.1953 52.4095 58.2153 52.4095 57.03C52.4095 55.826 52.2275 54.8413 51.8635 54.076C51.4155 53.1333 50.7295 52.662 49.8055 52.662C48.8815 52.662 48.1955 53.1333 47.7475 54.076C47.3835 54.8413 47.2015 55.826 47.2015 57.03C47.2015 58.2247 47.3835 59.2047 47.7475 59.97C48.2048 60.922 48.8908 61.398 49.8055 61.398Z" fill="#767676"/>
<path d="M36.3657 145.794C36.5524 145.794 36.6457 145.887 36.6457 146.074V146.312C36.6457 146.499 36.5524 146.592 36.3657 146.592H35.1197V148.72C35.1197 148.907 35.0264 149 34.8397 149H34.4757C34.289 149 34.1957 148.907 34.1957 148.72V146.592H29.3797C29.193 146.592 29.0997 146.499 29.0997 146.312V145.948C29.0997 145.845 29.1324 145.733 29.1977 145.612L33.2017 139.242C33.2764 139.121 33.3884 139.06 33.5377 139.06H33.9857C34.0604 139.06 34.121 139.079 34.1677 139.116C34.2144 139.144 34.2377 139.186 34.2377 139.242C34.2377 139.27 34.219 139.321 34.1817 139.396L30.1357 145.794H34.1957V143.68C34.1957 143.493 34.289 143.4 34.4757 143.4H34.8397C35.0264 143.4 35.1197 143.493 35.1197 143.68V145.794H36.3657ZM41.2195 149.21C40.5662 149.21 39.9922 149.051 39.4975 148.734C39.0122 148.417 38.6249 147.973 38.3355 147.404C37.8782 146.499 37.6495 145.374 37.6495 144.03C37.6495 142.677 37.8782 141.547 38.3355 140.642C38.6249 140.073 39.0122 139.634 39.4975 139.326C39.9922 139.009 40.5662 138.85 41.2195 138.85C41.8729 138.85 42.4422 139.009 42.9275 139.326C43.4222 139.634 43.8142 140.073 44.1035 140.642C44.5609 141.547 44.7895 142.677 44.7895 144.03C44.7895 145.374 44.5609 146.499 44.1035 147.404C43.8142 147.973 43.4222 148.417 42.9275 148.734C42.4422 149.051 41.8729 149.21 41.2195 149.21ZM41.2195 148.398C42.1342 148.398 42.8202 147.922 43.2775 146.97C43.6415 146.195 43.8235 145.215 43.8235 144.03C43.8235 142.826 43.6415 141.841 43.2775 141.076C42.8295 140.133 42.1435 139.662 41.2195 139.662C40.2955 139.662 39.6095 140.133 39.1615 141.076C38.7975 141.841 38.6155 142.826 38.6155 144.03C38.6155 145.225 38.7975 146.205 39.1615 146.97C39.6189 147.922 40.3049 148.398 41.2195 148.398ZM49.8055 149.21C49.1521 149.21 48.5781 149.051 48.0835 148.734C47.5981 148.417 47.2108 147.973 46.9215 147.404C46.4641 146.499 46.2355 145.374 46.2355 144.03C46.2355 142.677 46.4641 141.547 46.9215 140.642C47.2108 140.073 47.5981 139.634 48.0835 139.326C48.5781 139.009 49.1521 138.85 49.8055 138.85C50.4588 138.85 51.0281 139.009 51.5135 139.326C52.0081 139.634 52.4001 140.073 52.6895 140.642C53.1468 141.547 53.3755 142.677 53.3755 144.03C53.3755 145.374 53.1468 146.499 52.6895 147.404C52.4001 147.973 52.0081 148.417 51.5135 148.734C51.0281 149.051 50.4588 149.21 49.8055 149.21ZM49.8055 148.398C50.7201 148.398 51.4061 147.922 51.8635 146.97C52.2275 146.195 52.4095 145.215 52.4095 144.03C52.4095 142.826 52.2275 141.841 51.8635 141.076C51.4155 140.133 50.7295 139.662 49.8055 139.662C48.8815 139.662 48.1955 140.133 47.7475 141.076C47.3835 141.841 47.2015 142.826 47.2015 144.03C47.2015 145.225 47.3835 146.205 47.7475 146.97C48.2048 147.922 48.8908 148.398 49.8055 148.398Z" fill="#767676"/>
<path d="M36.0381 236.188C36.2248 236.188 36.3181 236.281 36.3181 236.468V236.72C36.3181 236.907 36.2248 237 36.0381 237H29.8221C29.6354 237 29.5421 236.907 29.5421 236.72V236.664C29.5421 235.983 29.6588 235.409 29.8921 234.942C30.1348 234.466 30.4474 234.065 30.8301 233.738C31.2221 233.411 31.7588 233.038 32.4401 232.618C32.5054 232.571 32.7481 232.427 33.1681 232.184C33.6628 231.904 34.0501 231.661 34.3301 231.456C34.6101 231.251 34.8434 230.999 35.0301 230.7C35.2168 230.392 35.3101 230.033 35.3101 229.622C35.3101 228.997 35.1001 228.516 34.6801 228.18C34.2601 227.844 33.7514 227.676 33.1541 227.676C32.5754 227.676 32.0948 227.797 31.7121 228.04C31.3294 228.283 30.8861 228.703 30.3821 229.3C30.3168 229.384 30.2374 229.426 30.1441 229.426C30.0974 229.426 30.0414 229.403 29.9761 229.356L29.7381 229.174C29.6541 229.099 29.6121 229.025 29.6121 228.95C29.6121 228.903 29.6354 228.847 29.6821 228.782C30.1768 228.157 30.6901 227.681 31.2221 227.354C31.7634 227.027 32.3981 226.864 33.1261 226.864C33.7328 226.864 34.2741 226.981 34.7501 227.214C35.2261 227.438 35.5948 227.76 35.8561 228.18C36.1268 228.591 36.2621 229.057 36.2621 229.58C36.2621 230.131 36.1454 230.607 35.9121 231.008C35.6881 231.4 35.4034 231.727 35.0581 231.988C34.7128 232.24 34.2461 232.539 33.6581 232.884L32.9581 233.304C32.3701 233.668 31.9221 233.967 31.6141 234.2C31.3061 234.424 31.0494 234.699 30.8441 235.026C30.6388 235.343 30.5174 235.731 30.4801 236.188H36.0381ZM41.2195 237.21C40.5662 237.21 39.9922 237.051 39.4975 236.734C39.0122 236.417 38.6249 235.973 38.3355 235.404C37.8782 234.499 37.6495 233.374 37.6495 232.03C37.6495 230.677 37.8782 229.547 38.3355 228.642C38.6249 228.073 39.0122 227.634 39.4975 227.326C39.9922 227.009 40.5662 226.85 41.2195 226.85C41.8729 226.85 42.4422 227.009 42.9275 227.326C43.4222 227.634 43.8142 228.073 44.1035 228.642C44.5609 229.547 44.7895 230.677 44.7895 232.03C44.7895 233.374 44.5609 234.499 44.1035 235.404C43.8142 235.973 43.4222 236.417 42.9275 236.734C42.4422 237.051 41.8729 237.21 41.2195 237.21ZM41.2195 236.398C42.1342 236.398 42.8202 235.922 43.2775 234.97C43.6415 234.195 43.8235 233.215 43.8235 232.03C43.8235 230.826 43.6415 229.841 43.2775 229.076C42.8295 228.133 42.1435 227.662 41.2195 227.662C40.2955 227.662 39.6095 228.133 39.1615 229.076C38.7975 229.841 38.6155 230.826 38.6155 232.03C38.6155 233.225 38.7975 234.205 39.1615 234.97C39.6189 235.922 40.3049 236.398 41.2195 236.398ZM49.8055 237.21C49.1521 237.21 48.5781 237.051 48.0835 236.734C47.5981 236.417 47.2108 235.973 46.9215 235.404C46.4641 234.499 46.2355 233.374 46.2355 232.03C46.2355 230.677 46.4641 229.547 46.9215 228.642C47.2108 228.073 47.5981 227.634 48.0835 227.326C48.5781 227.009 49.1521 226.85 49.8055 226.85C50.4588 226.85 51.0281 227.009 51.5135 227.326C52.0081 227.634 52.4001 228.073 52.6895 228.642C53.1468 229.547 53.3755 230.677 53.3755 232.03C53.3755 233.374 53.1468 234.499 52.6895 235.404C52.4001 235.973 52.0081 236.417 51.5135 236.734C51.0281 237.051 50.4588 237.21 49.8055 237.21ZM49.8055 236.398C50.7201 236.398 51.4061 235.922 51.8635 234.97C52.2275 234.195 52.4095 233.215 52.4095 232.03C52.4095 230.826 52.2275 229.841 51.8635 229.076C51.4155 228.133 50.7295 227.662 49.8055 227.662C48.8815 227.662 48.1955 228.133 47.7475 229.076C47.3835 229.841 47.2015 230.826 47.2015 232.03C47.2015 233.225 47.3835 234.205 47.7475 234.97C48.2048 235.922 48.8908 236.398 49.8055 236.398Z" fill="#767676"/>
<path d="M49.8055 324.21C49.1521 324.21 48.5781 324.051 48.0835 323.734C47.5981 323.417 47.2108 322.973 46.9215 322.404C46.4641 321.499 46.2355 320.374 46.2355 319.03C46.2355 317.677 46.4641 316.547 46.9215 315.642C47.2108 315.073 47.5981 314.634 48.0835 314.326C48.5781 314.009 49.1521 313.85 49.8055 313.85C50.4588 313.85 51.0281 314.009 51.5135 314.326C52.0081 314.634 52.4001 315.073 52.6895 315.642C53.1468 316.547 53.3755 317.677 53.3755 319.03C53.3755 320.374 53.1468 321.499 52.6895 322.404C52.4001 322.973 52.0081 323.417 51.5135 323.734C51.0281 324.051 50.4588 324.21 49.8055 324.21ZM49.8055 323.398C50.7201 323.398 51.4061 322.922 51.8635 321.97C52.2275 321.195 52.4095 320.215 52.4095 319.03C52.4095 317.826 52.2275 316.841 51.8635 316.076C51.4155 315.133 50.7295 314.662 49.8055 314.662C48.8815 314.662 48.1955 315.133 47.7475 316.076C47.3835 316.841 47.2015 317.826 47.2015 319.03C47.2015 320.225 47.3835 321.205 47.7475 321.97C48.2048 322.922 48.8908 323.398 49.8055 323.398Z" fill="#767676"/>
<path d="M64 57H378" stroke="#C3CCD9" stroke-dasharray="2 2"/>
<path d="M64 100H378" stroke="#C3CCD9" stroke-dasharray="2 2"/>
<path d="M64 144H378" stroke="#C3CCD9" stroke-dasharray="2 2"/>
<path d="M64 188H378" stroke="#C3CCD9" stroke-dasharray="2 2"/>
<path d="M64 232H378" stroke="#C3CCD9" stroke-dasharray="2 2"/>
<path d="M64 276H378" stroke="#C3CCD9" stroke-dasharray="2 2"/>
<path d="M64 319.5H378" stroke="#767676"/>
<path d="M81 109V319H145V109C145 106.791 143.209 105 141 105H85C82.7909 105 81 106.791 81 109Z" fill="#3291ED"/>
<path d="M191 139V319H255V139C255 136.791 253.209 135 251 135H195C192.791 135 191 136.791 191 139Z" fill="#3291ED"/>
<path d="M297 198V319H361V198C361 195.791 359.209 194 357 194H301C298.791 194 297 195.791 297 198Z" fill="#3291ED"/>
</g>
<rect x="4.5" y="24.5" width="397" height="345" rx="7.5" stroke="#C3CCD9"/>
<defs>
<clipPath id="clip0_2374_30333">
<rect width="350" height="298" fill="white" transform="translate(28 48)"/>
</clipPath>
</defs>
</svg>
