<svg width="344" height="344" viewBox="0 0 344 344" fill="none" xmlns="http://www.w3.org/2000/svg">
<rect width="344" height="344" fill="#F6F8FB"/>
<rect x="126" y="149" width="91" height="46" rx="7" fill="#0063FB"/>
<path d="M149.016 171.016C149.699 171.219 150.232 171.555 150.616 172.024C151 172.493 151.192 173.085 151.192 173.8C151.192 174.792 150.872 175.576 150.232 176.152C149.603 176.717 148.755 177 147.688 177H142.792C142.621 177 142.483 176.952 142.376 176.856C142.28 176.749 142.232 176.611 142.232 176.44V166.2C142.232 166.019 142.28 165.88 142.376 165.784C142.483 165.688 142.621 165.64 142.792 165.64H147.432C148.424 165.64 149.229 165.896 149.848 166.408C150.477 166.909 150.792 167.624 150.792 168.552C150.792 169.171 150.632 169.693 150.312 170.12C149.992 170.536 149.56 170.835 149.016 171.016ZM144.056 170.344H147.016C147.656 170.344 148.147 170.2 148.488 169.912C148.84 169.613 149.016 169.197 149.016 168.664C149.016 168.141 148.845 167.747 148.504 167.48C148.163 167.213 147.672 167.08 147.032 167.08H144.056V170.344ZM147.08 175.56C147.827 175.56 148.392 175.395 148.776 175.064C149.171 174.733 149.368 174.275 149.368 173.688C149.368 173.112 149.165 172.653 148.76 172.312C148.365 171.96 147.805 171.784 147.08 171.784H144.056V175.56H147.08ZM157.765 169.672C157.765 169.491 157.813 169.352 157.909 169.256C158.016 169.16 158.155 169.112 158.325 169.112H158.901C159.083 169.112 159.221 169.16 159.317 169.256C159.413 169.352 159.461 169.491 159.461 169.672V176.44C159.461 176.611 159.413 176.749 159.317 176.856C159.221 176.952 159.083 177 158.901 177H158.469C158.299 177 158.16 176.952 158.053 176.856C157.957 176.749 157.909 176.611 157.909 176.44V176.072C157.696 176.435 157.387 176.723 156.981 176.936C156.576 177.139 156.096 177.24 155.541 177.24C154.603 177.24 153.904 177.011 153.445 176.552C152.987 176.083 152.757 175.464 152.757 174.696V169.672C152.757 169.491 152.805 169.352 152.901 169.256C153.008 169.16 153.147 169.112 153.317 169.112H153.893C154.075 169.112 154.213 169.16 154.309 169.256C154.405 169.352 154.453 169.491 154.453 169.672V174.248C154.453 174.739 154.576 175.117 154.821 175.384C155.077 175.64 155.445 175.768 155.925 175.768C156.48 175.768 156.923 175.608 157.253 175.288C157.595 174.968 157.765 174.504 157.765 173.896V169.672ZM166.246 169.576C166.342 169.267 166.55 169.112 166.87 169.112H167.446C167.606 169.112 167.728 169.149 167.814 169.224C167.899 169.299 167.942 169.4 167.942 169.528C167.942 169.592 167.926 169.667 167.894 169.752L165.03 177.976C164.774 178.723 164.454 179.251 164.07 179.56C163.696 179.88 163.163 180.04 162.47 180.04C162.15 180.04 161.878 180.019 161.654 179.976C161.504 179.965 161.392 179.912 161.318 179.816C161.243 179.731 161.206 179.624 161.206 179.496C161.206 179.421 161.211 179.363 161.222 179.32L161.27 179.112C161.344 178.813 161.504 178.664 161.75 178.664C161.846 178.664 161.936 178.669 162.022 178.68C162.107 178.691 162.192 178.696 162.278 178.696C162.587 178.696 162.843 178.616 163.046 178.456C163.259 178.296 163.435 178.003 163.574 177.576L163.622 177.448L160.886 169.752C160.854 169.667 160.838 169.587 160.838 169.512C160.838 169.384 160.88 169.288 160.965 169.224C161.062 169.149 161.19 169.112 161.35 169.112H161.958C162.288 169.112 162.502 169.267 162.598 169.576L163.222 171.448C163.691 172.792 164.091 174.024 164.422 175.144L164.886 173.72C164.96 173.496 165.072 173.144 165.222 172.664C165.371 172.184 165.504 171.773 165.622 171.432L166.246 169.576ZM176.758 168.872C177.664 168.872 178.358 169.128 178.838 169.64C179.328 170.141 179.574 170.792 179.574 171.592V176.44C179.574 176.611 179.526 176.749 179.43 176.856C179.334 176.952 179.195 177 179.014 177H178.438C178.267 177 178.128 176.952 178.022 176.856C177.926 176.749 177.878 176.611 177.878 176.44V172.12C177.878 171.544 177.734 171.101 177.446 170.792C177.168 170.483 176.768 170.328 176.246 170.328C175.734 170.328 175.302 170.504 174.95 170.856C174.608 171.208 174.438 171.651 174.438 172.184V176.44C174.438 176.611 174.39 176.749 174.294 176.856C174.198 176.952 174.059 177 173.878 177H173.302C173.131 177 172.992 176.952 172.886 176.856C172.79 176.749 172.742 176.611 172.742 176.44V169.672C172.742 169.491 172.79 169.352 172.886 169.256C172.992 169.16 173.131 169.112 173.302 169.112H173.766C173.947 169.112 174.086 169.16 174.182 169.256C174.278 169.352 174.326 169.491 174.326 169.672V170.088C174.582 169.693 174.918 169.395 175.334 169.192C175.75 168.979 176.224 168.872 176.758 168.872ZM185.075 177.24C184.296 177.24 183.603 177.064 182.995 176.712C182.398 176.36 181.928 175.869 181.587 175.24C181.246 174.6 181.075 173.869 181.075 173.048C181.075 172.227 181.246 171.501 181.587 170.872C181.928 170.243 182.398 169.752 182.995 169.4C183.603 169.048 184.296 168.872 185.075 168.872C185.843 168.872 186.531 169.048 187.139 169.4C187.747 169.752 188.222 170.248 188.563 170.888C188.904 171.517 189.075 172.237 189.075 173.048C189.075 173.869 188.904 174.6 188.563 175.24C188.222 175.869 187.747 176.36 187.139 176.712C186.531 177.064 185.843 177.24 185.075 177.24ZM185.075 175.816C185.758 175.816 186.307 175.565 186.723 175.064C187.139 174.552 187.347 173.88 187.347 173.048C187.347 172.227 187.139 171.565 186.723 171.064C186.307 170.563 185.758 170.312 185.075 170.312C184.392 170.312 183.843 170.563 183.427 171.064C183.011 171.565 182.803 172.227 182.803 173.048C182.803 173.88 183.011 174.552 183.427 175.064C183.843 175.565 184.392 175.816 185.075 175.816ZM199.34 169.592C199.415 169.272 199.623 169.112 199.964 169.112H200.556C200.716 169.112 200.839 169.149 200.924 169.224C201.02 169.288 201.068 169.389 201.068 169.528C201.068 169.56 201.058 169.629 201.036 169.736L199.132 176.52C199.058 176.84 198.85 177 198.508 177H197.468C197.148 177 196.94 176.84 196.844 176.52L196.316 174.664C196.082 173.843 195.82 172.813 195.532 171.576L195.452 171.224C195.164 172.525 194.887 173.677 194.62 174.68L194.124 176.52C194.05 176.84 193.842 177 193.5 177H192.476C192.156 177 191.948 176.84 191.852 176.52L189.932 169.736C189.911 169.629 189.9 169.56 189.9 169.528C189.9 169.389 189.943 169.288 190.028 169.224C190.124 169.149 190.252 169.112 190.412 169.112H191.036C191.378 169.112 191.586 169.272 191.66 169.592L192.236 171.864C192.46 172.696 192.722 173.805 193.02 175.192L193.084 175.512C193.394 174.083 193.682 172.867 193.948 171.864L194.556 169.592C194.631 169.272 194.839 169.112 195.18 169.112H195.788C196.13 169.112 196.338 169.272 196.412 169.592L197.036 171.864C197.335 172.973 197.634 174.189 197.932 175.512C198.156 174.371 198.434 173.155 198.764 171.864L199.34 169.592Z" fill="white"/>
<rect x="126" y="149" width="91" height="46" rx="7" stroke="#0063FB" stroke-width="2"/>
<rect width="6" height="344" fill="#16A34A"/>
<circle cx="26" cy="20" r="11.5" fill="#DCFCE7" stroke="#16A34A"/>
<path d="M22 20L25 23L30.5 17" stroke="#059E6F" stroke-width="1.5" stroke-linecap="round" stroke-linejoin="round"/>
</svg>
