<svg width="344" height="344" viewBox="0 0 344 344" fill="none" xmlns="http://www.w3.org/2000/svg">
<rect width="344" height="344" fill="#F6F8FB"/>
<rect x="81" y="149" width="181" height="46" rx="7" fill="#0063FB"/>
<path d="M102.112 177.256C100.981 177.256 100 177 99.168 176.488C98.3467 175.976 97.712 175.272 97.264 174.376C96.8267 173.469 96.608 172.445 96.608 171.304C96.608 170.163 96.8267 169.149 97.264 168.264C97.7013 167.368 98.336 166.664 99.168 166.152C100 165.64 100.997 165.384 102.16 165.384C102.864 165.384 103.504 165.485 104.08 165.688C104.656 165.88 105.237 166.205 105.824 166.664C105.984 166.792 106.064 166.936 106.064 167.096C106.064 167.203 106.011 167.325 105.904 167.464L105.552 167.88C105.424 168.029 105.291 168.104 105.152 168.104C105.045 168.104 104.912 168.051 104.752 167.944C104.272 167.571 103.829 167.315 103.424 167.176C103.029 167.037 102.603 166.968 102.144 166.968C101.397 166.968 100.747 167.149 100.192 167.512C99.6373 167.875 99.2107 168.387 98.912 169.048C98.6133 169.699 98.464 170.451 98.464 171.304C98.464 172.157 98.6133 172.915 98.912 173.576C99.2107 174.237 99.632 174.755 100.176 175.128C100.72 175.491 101.355 175.672 102.08 175.672C102.624 175.672 103.109 175.576 103.536 175.384C103.963 175.192 104.427 174.883 104.928 174.456C105.067 174.339 105.2 174.28 105.328 174.28C105.467 174.28 105.6 174.355 105.728 174.504L106.08 174.904C106.187 175.021 106.24 175.144 106.24 175.272C106.24 175.453 106.155 175.613 105.984 175.752C105.365 176.285 104.752 176.669 104.144 176.904C103.547 177.139 102.869 177.256 102.112 177.256ZM108.319 177C108.148 177 108.009 176.952 107.903 176.856C107.807 176.749 107.759 176.611 107.759 176.44V166.2C107.759 166.019 107.807 165.88 107.903 165.784C108.009 165.688 108.148 165.64 108.319 165.64H108.895C109.076 165.64 109.215 165.688 109.311 165.784C109.407 165.88 109.455 166.019 109.455 166.2V176.44C109.455 176.611 109.407 176.749 109.311 176.856C109.215 176.952 109.076 177 108.895 177H108.319ZM114.948 177.24C114.169 177.24 113.481 177.069 112.884 176.728C112.297 176.387 111.839 175.901 111.508 175.272C111.188 174.632 111.028 173.891 111.028 173.048C111.028 172.205 111.193 171.469 111.524 170.84C111.855 170.211 112.319 169.725 112.916 169.384C113.513 169.043 114.201 168.872 114.98 168.872C115.545 168.872 116.052 168.957 116.5 169.128C116.959 169.288 117.396 169.565 117.812 169.96C117.94 170.088 118.004 170.221 118.004 170.36C118.004 170.488 117.935 170.621 117.796 170.76L117.524 171.032C117.407 171.149 117.279 171.208 117.14 171.208C117.001 171.208 116.857 171.144 116.708 171.016C116.399 170.749 116.105 170.568 115.828 170.472C115.561 170.365 115.273 170.312 114.964 170.312C114.26 170.312 113.716 170.573 113.332 171.096C112.948 171.619 112.756 172.269 112.756 173.048C112.756 173.827 112.948 174.483 113.332 175.016C113.716 175.539 114.26 175.8 114.964 175.8C115.305 175.8 115.62 175.736 115.908 175.608C116.196 175.469 116.505 175.24 116.836 174.92C116.975 174.781 117.119 174.712 117.268 174.712C117.396 174.712 117.519 174.765 117.636 174.872L117.908 175.096C118.047 175.213 118.116 175.347 118.116 175.496C118.116 175.656 118.036 175.827 117.876 176.008C117.439 176.456 116.985 176.776 116.516 176.968C116.057 177.149 115.535 177.24 114.948 177.24ZM120.403 167.576C120.093 167.576 119.832 167.475 119.618 167.272C119.405 167.059 119.299 166.808 119.299 166.52C119.299 166.221 119.405 165.971 119.618 165.768C119.832 165.565 120.093 165.464 120.403 165.464C120.712 165.464 120.973 165.565 121.187 165.768C121.4 165.971 121.507 166.221 121.507 166.52C121.507 166.808 121.4 167.059 121.187 167.272C120.973 167.475 120.712 167.576 120.403 167.576ZM120.099 177C119.928 177 119.789 176.952 119.683 176.856C119.587 176.749 119.539 176.611 119.539 176.44V169.672C119.539 169.491 119.587 169.352 119.683 169.256C119.789 169.16 119.928 169.112 120.099 169.112H120.674C120.856 169.112 120.995 169.16 121.091 169.256C121.187 169.352 121.235 169.491 121.235 169.672V176.44C121.235 176.611 121.187 176.749 121.091 176.856C120.995 176.952 120.856 177 120.674 177H120.099ZM129.035 177C128.736 177 128.512 176.877 128.363 176.632L126.155 173.208L124.891 174.488V176.44C124.891 176.611 124.843 176.749 124.747 176.856C124.651 176.952 124.512 177 124.331 177H123.755C123.584 177 123.445 176.952 123.339 176.856C123.243 176.749 123.195 176.611 123.195 176.44V166.2C123.195 166.019 123.243 165.88 123.339 165.784C123.445 165.688 123.584 165.64 123.755 165.64H124.331C124.512 165.64 124.651 165.688 124.747 165.784C124.843 165.88 124.891 166.019 124.891 166.2V172.616L127.915 169.416C128.107 169.213 128.341 169.112 128.619 169.112H129.227C129.387 169.112 129.504 169.144 129.579 169.208C129.664 169.261 129.707 169.336 129.707 169.432C129.707 169.56 129.648 169.683 129.531 169.8L127.323 172.104L130.043 176.328C130.117 176.445 130.155 176.552 130.155 176.648C130.155 176.755 130.112 176.84 130.027 176.904C129.941 176.968 129.824 177 129.675 177H129.035ZM139.086 168.872C139.992 168.872 140.686 169.128 141.166 169.64C141.656 170.141 141.902 170.792 141.902 171.592V176.44C141.902 176.611 141.854 176.749 141.758 176.856C141.662 176.952 141.523 177 141.342 177H140.766C140.595 177 140.456 176.952 140.35 176.856C140.254 176.749 140.206 176.611 140.206 176.44V172.12C140.206 171.544 140.062 171.101 139.774 170.792C139.496 170.483 139.096 170.328 138.574 170.328C138.062 170.328 137.63 170.504 137.278 170.856C136.936 171.208 136.766 171.651 136.766 172.184V176.44C136.766 176.611 136.718 176.749 136.622 176.856C136.526 176.952 136.387 177 136.206 177H135.63C135.459 177 135.32 176.952 135.214 176.856C135.118 176.749 135.07 176.611 135.07 176.44V166.2C135.07 166.019 135.118 165.88 135.214 165.784C135.32 165.688 135.459 165.64 135.63 165.64H136.206C136.387 165.64 136.526 165.688 136.622 165.784C136.718 165.88 136.766 166.019 136.766 166.2V169.928C137.022 169.587 137.347 169.325 137.742 169.144C138.147 168.963 138.595 168.872 139.086 168.872ZM149.499 174.984C149.638 174.867 149.771 174.808 149.899 174.808C150.027 174.808 150.16 174.877 150.299 175.016L150.523 175.256C150.64 175.395 150.699 175.528 150.699 175.656C150.699 175.795 150.63 175.928 150.491 176.056C150 176.483 149.51 176.787 149.019 176.968C148.539 177.149 148.006 177.24 147.419 177.24C146.598 177.24 145.883 177.069 145.275 176.728C144.678 176.387 144.214 175.907 143.883 175.288C143.563 174.659 143.403 173.933 143.403 173.112C143.403 172.301 143.558 171.576 143.867 170.936C144.187 170.285 144.635 169.779 145.211 169.416C145.798 169.053 146.48 168.872 147.259 168.872C148.422 168.872 149.318 169.219 149.947 169.912C150.576 170.595 150.891 171.539 150.891 172.744V172.888C150.88 173.059 150.827 173.192 150.731 173.288C150.635 173.384 150.496 173.432 150.315 173.432H145.067C145.131 174.136 145.36 174.712 145.755 175.16C146.16 175.597 146.726 175.816 147.451 175.816C147.846 175.816 148.192 175.757 148.491 175.64C148.79 175.512 149.126 175.293 149.499 174.984ZM147.227 170.216C146.64 170.216 146.166 170.392 145.803 170.744C145.451 171.085 145.222 171.571 145.115 172.2H149.227C149.184 171.581 148.992 171.096 148.651 170.744C148.31 170.392 147.835 170.216 147.227 170.216ZM155.997 169.032C156.231 169.032 156.471 169.059 156.717 169.112C157.005 169.176 157.149 169.347 157.149 169.624C157.149 169.699 157.143 169.752 157.133 169.784L157.053 170.168C156.989 170.467 156.829 170.616 156.573 170.616L156.429 170.6C156.237 170.568 156.066 170.552 155.917 170.552C155.383 170.552 154.951 170.765 154.621 171.192C154.301 171.608 154.141 172.189 154.141 172.936V176.44C154.141 176.611 154.093 176.749 153.997 176.856C153.901 176.952 153.762 177 153.581 177H153.005C152.834 177 152.695 176.952 152.589 176.856C152.493 176.749 152.445 176.611 152.445 176.44V169.672C152.445 169.491 152.493 169.352 152.589 169.256C152.695 169.16 152.834 169.112 153.005 169.112H153.469C153.65 169.112 153.789 169.16 153.885 169.256C153.981 169.352 154.029 169.491 154.029 169.672V170.296C154.221 169.901 154.482 169.592 154.813 169.368C155.143 169.144 155.538 169.032 155.997 169.032ZM163.655 174.984C163.794 174.867 163.927 174.808 164.055 174.808C164.183 174.808 164.317 174.877 164.455 175.016L164.679 175.256C164.797 175.395 164.855 175.528 164.855 175.656C164.855 175.795 164.786 175.928 164.647 176.056C164.157 176.483 163.666 176.787 163.175 176.968C162.695 177.149 162.162 177.24 161.575 177.24C160.754 177.24 160.039 177.069 159.431 176.728C158.834 176.387 158.37 175.907 158.039 175.288C157.719 174.659 157.559 173.933 157.559 173.112C157.559 172.301 157.714 171.576 158.023 170.936C158.343 170.285 158.791 169.779 159.367 169.416C159.954 169.053 160.637 168.872 161.415 168.872C162.578 168.872 163.474 169.219 164.103 169.912C164.733 170.595 165.047 171.539 165.047 172.744V172.888C165.037 173.059 164.983 173.192 164.887 173.288C164.791 173.384 164.653 173.432 164.471 173.432H159.223C159.287 174.136 159.517 174.712 159.911 175.16C160.317 175.597 160.882 175.816 161.607 175.816C162.002 175.816 162.349 175.757 162.647 175.64C162.946 175.512 163.282 175.293 163.655 174.984ZM161.383 170.216C160.797 170.216 160.322 170.392 159.959 170.744C159.607 171.085 159.378 171.571 159.271 172.2H163.383C163.341 171.581 163.149 171.096 162.807 170.744C162.466 170.392 161.991 170.216 161.383 170.216ZM173.987 175.656C174.019 175.645 174.067 175.64 174.131 175.64C174.398 175.64 174.558 175.795 174.611 176.104L174.659 176.36C174.67 176.392 174.675 176.445 174.675 176.52C174.675 176.787 174.526 176.957 174.227 177.032C173.8 177.128 173.411 177.176 173.059 177.176C172.302 177.176 171.752 177 171.411 176.648C171.08 176.296 170.915 175.768 170.915 175.064V170.408H170.035C169.864 170.408 169.726 170.36 169.619 170.264C169.523 170.157 169.475 170.019 169.475 169.848V169.672C169.475 169.491 169.523 169.352 169.619 169.256C169.726 169.16 169.864 169.112 170.035 169.112H170.915V167.128C170.915 166.947 170.963 166.808 171.059 166.712C171.166 166.616 171.304 166.568 171.475 166.568H172.051C172.232 166.568 172.371 166.616 172.467 166.712C172.563 166.808 172.611 166.947 172.611 167.128V169.112H174.051C174.232 169.112 174.371 169.16 174.467 169.256C174.563 169.352 174.611 169.491 174.611 169.672V169.848C174.611 170.019 174.563 170.157 174.467 170.264C174.371 170.36 174.232 170.408 174.051 170.408H172.611V174.856C172.611 175.165 172.675 175.384 172.803 175.512C172.942 175.64 173.16 175.704 173.459 175.704C173.587 175.704 173.763 175.688 173.987 175.656ZM179.309 177.24C178.531 177.24 177.837 177.064 177.229 176.712C176.632 176.36 176.163 175.869 175.821 175.24C175.48 174.6 175.309 173.869 175.309 173.048C175.309 172.227 175.48 171.501 175.821 170.872C176.163 170.243 176.632 169.752 177.229 169.4C177.837 169.048 178.531 168.872 179.309 168.872C180.077 168.872 180.765 169.048 181.373 169.4C181.981 169.752 182.456 170.248 182.797 170.888C183.139 171.517 183.309 172.237 183.309 173.048C183.309 173.869 183.139 174.6 182.797 175.24C182.456 175.869 181.981 176.36 181.373 176.712C180.765 177.064 180.077 177.24 179.309 177.24ZM179.309 175.816C179.992 175.816 180.541 175.565 180.957 175.064C181.373 174.552 181.581 173.88 181.581 173.048C181.581 172.227 181.373 171.565 180.957 171.064C180.541 170.563 179.992 170.312 179.309 170.312C178.627 170.312 178.077 170.563 177.661 171.064C177.245 171.565 177.037 172.227 177.037 173.048C177.037 173.88 177.245 174.552 177.661 175.064C178.077 175.565 178.627 175.816 179.309 175.816ZM192.574 168.904C193.246 168.904 193.844 169.075 194.366 169.416C194.9 169.757 195.316 170.243 195.614 170.872C195.913 171.501 196.062 172.227 196.062 173.048C196.062 173.88 195.913 174.611 195.614 175.24C195.316 175.869 194.9 176.355 194.366 176.696C193.833 177.037 193.236 177.208 192.574 177.208C191.39 177.208 190.521 176.765 189.966 175.88V176.44C189.966 176.611 189.918 176.749 189.822 176.856C189.726 176.952 189.588 177 189.406 177H188.942C188.772 177 188.633 176.952 188.526 176.856C188.43 176.749 188.382 176.611 188.382 176.44V166.2C188.382 166.019 188.43 165.88 188.526 165.784C188.633 165.688 188.772 165.64 188.942 165.64H189.518C189.7 165.64 189.838 165.688 189.934 165.784C190.03 165.88 190.078 166.019 190.078 166.2V170.104C190.644 169.304 191.476 168.904 192.574 168.904ZM192.222 175.736C192.862 175.736 193.374 175.496 193.758 175.016C194.142 174.525 194.334 173.869 194.334 173.048C194.334 172.237 194.142 171.587 193.758 171.096C193.385 170.605 192.878 170.36 192.238 170.36C191.588 170.36 191.054 170.605 190.638 171.096C190.222 171.576 190.014 172.227 190.014 173.048C190.014 173.891 190.222 174.552 190.638 175.032C191.054 175.501 191.582 175.736 192.222 175.736ZM202.609 169.672C202.609 169.491 202.657 169.352 202.753 169.256C202.86 169.16 202.998 169.112 203.169 169.112H203.745C203.926 169.112 204.065 169.16 204.161 169.256C204.257 169.352 204.305 169.491 204.305 169.672V176.44C204.305 176.611 204.257 176.749 204.161 176.856C204.065 176.952 203.926 177 203.745 177H203.313C203.142 177 203.004 176.952 202.897 176.856C202.801 176.749 202.753 176.611 202.753 176.44V176.072C202.54 176.435 202.23 176.723 201.825 176.936C201.42 177.139 200.94 177.24 200.385 177.24C199.446 177.24 198.748 177.011 198.289 176.552C197.83 176.083 197.601 175.464 197.601 174.696V169.672C197.601 169.491 197.649 169.352 197.745 169.256C197.852 169.16 197.99 169.112 198.161 169.112H198.737C198.918 169.112 199.057 169.16 199.153 169.256C199.249 169.352 199.297 169.491 199.297 169.672V174.248C199.297 174.739 199.42 175.117 199.665 175.384C199.921 175.64 200.289 175.768 200.769 175.768C201.324 175.768 201.766 175.608 202.097 175.288C202.438 174.968 202.609 174.504 202.609 173.896V169.672ZM211.089 169.576C211.185 169.267 211.393 169.112 211.713 169.112H212.289C212.449 169.112 212.572 169.149 212.657 169.224C212.743 169.299 212.785 169.4 212.785 169.528C212.785 169.592 212.769 169.667 212.737 169.752L209.873 177.976C209.617 178.723 209.297 179.251 208.913 179.56C208.54 179.88 208.007 180.04 207.313 180.04C206.993 180.04 206.721 180.019 206.497 179.976C206.348 179.965 206.236 179.912 206.161 179.816C206.087 179.731 206.049 179.624 206.049 179.496C206.049 179.421 206.055 179.363 206.065 179.32L206.113 179.112C206.188 178.813 206.348 178.664 206.593 178.664C206.689 178.664 206.78 178.669 206.865 178.68C206.951 178.691 207.036 178.696 207.121 178.696C207.431 178.696 207.687 178.616 207.889 178.456C208.103 178.296 208.279 178.003 208.417 177.576L208.465 177.448L205.729 169.752C205.697 169.667 205.681 169.587 205.681 169.512C205.681 169.384 205.724 169.288 205.809 169.224C205.905 169.149 206.033 169.112 206.193 169.112H206.801C207.132 169.112 207.345 169.267 207.441 169.576L208.065 171.448C208.535 172.792 208.935 174.024 209.265 175.144L209.729 173.72C209.804 173.496 209.916 173.144 210.065 172.664C210.215 172.184 210.348 171.773 210.465 171.432L211.089 169.576ZM221.601 168.872C222.508 168.872 223.201 169.128 223.681 169.64C224.172 170.141 224.417 170.792 224.417 171.592V176.44C224.417 176.611 224.369 176.749 224.273 176.856C224.177 176.952 224.039 177 223.857 177H223.281C223.111 177 222.972 176.952 222.865 176.856C222.769 176.749 222.721 176.611 222.721 176.44V172.12C222.721 171.544 222.577 171.101 222.289 170.792C222.012 170.483 221.612 170.328 221.089 170.328C220.577 170.328 220.145 170.504 219.793 170.856C219.452 171.208 219.281 171.651 219.281 172.184V176.44C219.281 176.611 219.233 176.749 219.137 176.856C219.041 176.952 218.903 177 218.721 177H218.145C217.975 177 217.836 176.952 217.729 176.856C217.633 176.749 217.585 176.611 217.585 176.44V169.672C217.585 169.491 217.633 169.352 217.729 169.256C217.836 169.16 217.975 169.112 218.145 169.112H218.609C218.791 169.112 218.929 169.16 219.025 169.256C219.121 169.352 219.169 169.491 219.169 169.672V170.088C219.425 169.693 219.761 169.395 220.177 169.192C220.593 168.979 221.068 168.872 221.601 168.872ZM229.919 177.24C229.14 177.24 228.447 177.064 227.839 176.712C227.241 176.36 226.772 175.869 226.431 175.24C226.089 174.6 225.919 173.869 225.919 173.048C225.919 172.227 226.089 171.501 226.431 170.872C226.772 170.243 227.241 169.752 227.839 169.4C228.447 169.048 229.14 168.872 229.919 168.872C230.687 168.872 231.375 169.048 231.983 169.4C232.591 169.752 233.065 170.248 233.407 170.888C233.748 171.517 233.919 172.237 233.919 173.048C233.919 173.869 233.748 174.6 233.407 175.24C233.065 175.869 232.591 176.36 231.983 176.712C231.375 177.064 230.687 177.24 229.919 177.24ZM229.919 175.816C230.601 175.816 231.151 175.565 231.567 175.064C231.983 174.552 232.191 173.88 232.191 173.048C232.191 172.227 231.983 171.565 231.567 171.064C231.151 170.563 230.601 170.312 229.919 170.312C229.236 170.312 228.687 170.563 228.271 171.064C227.855 171.565 227.647 172.227 227.647 173.048C227.647 173.88 227.855 174.552 228.271 175.064C228.687 175.565 229.236 175.816 229.919 175.816ZM244.184 169.592C244.259 169.272 244.467 169.112 244.808 169.112H245.4C245.56 169.112 245.683 169.149 245.768 169.224C245.864 169.288 245.912 169.389 245.912 169.528C245.912 169.56 245.901 169.629 245.88 169.736L243.976 176.52C243.901 176.84 243.693 177 243.352 177H242.312C241.992 177 241.784 176.84 241.688 176.52L241.16 174.664C240.925 173.843 240.664 172.813 240.376 171.576L240.296 171.224C240.008 172.525 239.731 173.677 239.464 174.68L238.968 176.52C238.893 176.84 238.685 177 238.344 177H237.32C237 177 236.792 176.84 236.696 176.52L234.776 169.736C234.755 169.629 234.744 169.56 234.744 169.528C234.744 169.389 234.787 169.288 234.872 169.224C234.968 169.149 235.096 169.112 235.256 169.112H235.88C236.221 169.112 236.429 169.272 236.504 169.592L237.08 171.864C237.304 172.696 237.565 173.805 237.864 175.192L237.928 175.512C238.237 174.083 238.525 172.867 238.792 171.864L239.4 169.592C239.475 169.272 239.683 169.112 240.024 169.112H240.632C240.973 169.112 241.181 169.272 241.256 169.592L241.88 171.864C242.179 172.973 242.477 174.189 242.776 175.512C243 174.371 243.277 173.155 243.608 171.864L244.184 169.592Z" fill="white"/>
<rect x="81" y="149" width="181" height="46" rx="7" stroke="#0063FB" stroke-width="2"/>
<rect width="6" height="344" fill="#D9270A"/>
<circle cx="26" cy="20" r="11.5" fill="#FEE2E2" stroke="#D9270A"/>
<path d="M22 20L25 23L30.5 17" stroke="#D91F0A" stroke-width="1.5" stroke-linecap="round" stroke-linejoin="round"/>
</svg>
