<svg width="344" height="168" viewBox="0 0 344 168" fill="none" xmlns="http://www.w3.org/2000/svg">
<path d="M71.568 63C71.4187 63 71.2973 62.958 71.204 62.874C71.12 62.7807 71.078 62.6593 71.078 62.51V53.55C71.078 53.3913 71.12 53.27 71.204 53.186C71.2973 53.102 71.4187 53.06 71.568 53.06H77.378C77.5367 53.06 77.658 53.102 77.742 53.186C77.826 53.27 77.868 53.3913 77.868 53.55V53.914C77.868 54.0633 77.826 54.1847 77.742 54.278C77.658 54.362 77.5367 54.404 77.378 54.404H72.674V57.204H77.028C77.1867 57.204 77.308 57.246 77.392 57.33C77.476 57.414 77.518 57.5353 77.518 57.694V58.058C77.518 58.2073 77.476 58.3287 77.392 58.422C77.308 58.506 77.1867 58.548 77.028 58.548H72.674V61.656H77.518C77.6767 61.656 77.798 61.698 77.882 61.782C77.966 61.866 78.008 61.9873 78.008 62.146V62.51C78.008 62.6593 77.966 62.7807 77.882 62.874C77.798 62.958 77.6767 63 77.518 63H71.568ZM86.9143 55.888C87.6516 55.888 88.221 56.098 88.6223 56.518C89.0236 56.9287 89.2243 57.484 89.2243 58.184V62.51C89.2243 62.6593 89.1823 62.7807 89.0983 62.874C89.0143 62.958 88.893 63 88.7343 63H88.2303C88.081 63 87.9596 62.958 87.8663 62.874C87.7823 62.7807 87.7403 62.6593 87.7403 62.51V58.632C87.7403 58.1747 87.6376 57.8153 87.4323 57.554C87.227 57.2927 86.9143 57.162 86.4943 57.162C86.065 57.162 85.7243 57.3067 85.4723 57.596C85.2296 57.8853 85.1083 58.2587 85.1083 58.716V62.51C85.1083 62.6593 85.0663 62.7807 84.9823 62.874C84.8983 62.958 84.777 63 84.6183 63H84.1143C83.965 63 83.8436 62.958 83.7503 62.874C83.6663 62.7807 83.6243 62.6593 83.6243 62.51V58.632C83.6243 58.1747 83.5216 57.8153 83.3163 57.554C83.1203 57.2927 82.8123 57.162 82.3923 57.162C81.9816 57.162 81.6503 57.2973 81.3983 57.568C81.1463 57.8387 81.011 58.1887 80.9923 58.618V62.51C80.9923 62.6593 80.9503 62.7807 80.8663 62.874C80.7823 62.958 80.661 63 80.5023 63H79.9983C79.849 63 79.7276 62.958 79.6343 62.874C79.5503 62.7807 79.5083 62.6593 79.5083 62.51V56.588C79.5083 56.4293 79.5503 56.308 79.6343 56.224C79.7276 56.14 79.849 56.098 79.9983 56.098H80.4043C80.563 56.098 80.6843 56.14 80.7683 56.224C80.8523 56.308 80.8943 56.4293 80.8943 56.588V56.896C81.3236 56.224 81.9863 55.888 82.8823 55.888C83.3303 55.888 83.7223 55.9813 84.0583 56.168C84.3943 56.3547 84.651 56.616 84.8283 56.952C85.3043 56.2427 85.9996 55.888 86.9143 55.888ZM93.8363 55.888C94.7696 55.888 95.4883 56.1073 95.9923 56.546C96.4963 56.9753 96.7483 57.5493 96.7483 58.268V62.51C96.7483 62.6593 96.7063 62.7807 96.6223 62.874C96.5383 62.958 96.417 63 96.2583 63H95.8943C95.745 63 95.6236 62.958 95.5303 62.874C95.4463 62.7807 95.4043 62.6593 95.4043 62.51V62.202C95.1803 62.5287 94.8723 62.7807 94.4803 62.958C94.0883 63.1353 93.631 63.224 93.1083 63.224C92.3896 63.224 91.797 63.0653 91.3303 62.748C90.873 62.4213 90.6443 61.9313 90.6443 61.278C90.6443 60.55 90.915 60.0133 91.4563 59.668C92.007 59.3133 92.7676 59.0473 93.7383 58.87L95.3203 58.576V58.324C95.3203 57.9413 95.185 57.6473 94.9143 57.442C94.653 57.2273 94.303 57.12 93.8643 57.12C93.491 57.12 93.1643 57.1853 92.8843 57.316C92.6136 57.4373 92.3196 57.6427 92.0023 57.932C91.881 58.0347 91.7643 58.086 91.6523 58.086C91.5403 58.086 91.4236 58.0347 91.3023 57.932L91.0783 57.736C90.957 57.624 90.8963 57.5027 90.8963 57.372C90.8963 57.2507 90.9523 57.134 91.0643 57.022C91.4656 56.6393 91.8903 56.3547 92.3383 56.168C92.7863 55.9813 93.2856 55.888 93.8363 55.888ZM93.3183 62.034C93.8783 62.034 94.3496 61.8847 94.7323 61.586C95.1243 61.2873 95.3203 60.858 95.3203 60.298V59.654L94.1023 59.906C93.421 60.046 92.917 60.2047 92.5903 60.382C92.2636 60.5593 92.1003 60.83 92.1003 61.194C92.1003 61.4553 92.2076 61.6607 92.4223 61.81C92.637 61.9593 92.9356 62.034 93.3183 62.034ZM99.1998 54.754C98.9292 54.754 98.7005 54.6653 98.5138 54.488C98.3272 54.3013 98.2338 54.082 98.2338 53.83C98.2338 53.5687 98.3272 53.3493 98.5138 53.172C98.7005 52.9947 98.9292 52.906 99.1998 52.906C99.4705 52.906 99.6992 52.9947 99.8858 53.172C100.073 53.3493 100.166 53.5687 100.166 53.83C100.166 54.082 100.073 54.3013 99.8858 54.488C99.6992 54.6653 99.4705 54.754 99.1998 54.754ZM98.9338 63C98.7845 63 98.6632 62.958 98.5698 62.874C98.4858 62.7807 98.4438 62.6593 98.4438 62.51V56.588C98.4438 56.4293 98.4858 56.308 98.5698 56.224C98.6632 56.14 98.7845 56.098 98.9338 56.098H99.4378C99.5965 56.098 99.7178 56.14 99.8018 56.224C99.8858 56.308 99.9278 56.4293 99.9278 56.588V62.51C99.9278 62.6593 99.8858 62.7807 99.8018 62.874C99.7178 62.958 99.5965 63 99.4378 63H98.9338ZM102.189 63C102.04 63 101.918 62.958 101.825 62.874C101.741 62.7807 101.699 62.6593 101.699 62.51V53.55C101.699 53.3913 101.741 53.27 101.825 53.186C101.918 53.102 102.04 53.06 102.189 53.06H102.693C102.852 53.06 102.973 53.102 103.057 53.186C103.141 53.27 103.183 53.3913 103.183 53.55V62.51C103.183 62.6593 103.141 62.7807 103.057 62.874C102.973 62.958 102.852 63 102.693 63H102.189Z" fill="#464646"/>
<rect x="70.5" y="71.5" width="202" height="47" rx="3.5" fill="white"/>
<g clip-path="url(#clip0_899_63944)">
<path d="M79.696 100C79.4827 100 79.376 99.8933 79.376 99.68V88.96C79.376 88.7467 79.4827 88.64 79.696 88.64H84C85.0987 88.64 85.984 88.928 86.656 89.504C87.328 90.08 87.664 90.896 87.664 91.952C87.664 93.008 87.328 93.8293 86.656 94.416C85.984 94.992 85.0987 95.28 84 95.28H80.512V99.68C80.512 99.8933 80.4053 100 80.192 100H79.696ZM83.856 94.336C84.688 94.336 85.344 94.1333 85.824 93.728C86.304 93.3227 86.544 92.7307 86.544 91.952C86.544 91.184 86.304 90.5973 85.824 90.192C85.344 89.7867 84.688 89.584 83.856 89.584H80.512V94.336H83.856ZM94.4915 92.432C94.4915 92.2187 94.5982 92.112 94.8115 92.112H95.2275C95.4408 92.112 95.5475 92.2187 95.5475 92.432V99.68C95.5475 99.8933 95.4408 100 95.2275 100H94.8915C94.6782 100 94.5715 99.8933 94.5715 99.68V98.96C94.3368 99.376 94.0008 99.6907 93.5635 99.904C93.1368 100.107 92.6675 100.208 92.1555 100.208C91.1955 100.208 90.4862 99.968 90.0275 99.488C89.5688 98.9973 89.3395 98.368 89.3395 97.6V92.432C89.3395 92.2187 89.4462 92.112 89.6595 92.112H90.0755C90.2888 92.112 90.3955 92.2187 90.3955 92.432V97.376C90.3955 98.0053 90.5502 98.4853 90.8595 98.816C91.1795 99.136 91.6328 99.296 92.2195 99.296C92.8808 99.296 93.4248 99.0933 93.8515 98.688C94.2782 98.2827 94.4915 97.7067 94.4915 96.96V92.432ZM100.67 100.208C100.02 100.208 99.4437 100.117 98.9424 99.936C98.4517 99.744 97.9344 99.424 97.3904 98.976C97.2944 98.912 97.2464 98.8373 97.2464 98.752C97.2464 98.6773 97.2837 98.6027 97.3584 98.528L97.5664 98.304C97.6304 98.2187 97.7104 98.176 97.8064 98.176C97.881 98.176 97.9504 98.208 98.0144 98.272C98.5264 98.6667 98.9797 98.944 99.3744 99.104C99.769 99.2533 100.201 99.328 100.67 99.328C101.257 99.328 101.737 99.2 102.11 98.944C102.484 98.6773 102.67 98.32 102.67 97.872C102.67 97.424 102.478 97.0933 102.094 96.88C101.71 96.6667 101.118 96.4747 100.318 96.304C99.6144 96.1547 99.0597 96 98.6544 95.84C98.2597 95.6693 97.9664 95.456 97.7744 95.2C97.5824 94.944 97.4864 94.608 97.4864 94.192C97.4864 93.5093 97.7637 92.96 98.3184 92.544C98.873 92.128 99.5717 91.92 100.414 91.92C100.99 91.92 101.502 91.9947 101.95 92.144C102.409 92.2827 102.868 92.5173 103.326 92.848C103.422 92.9227 103.47 93.0027 103.47 93.088C103.47 93.1413 103.444 93.2107 103.39 93.296L103.198 93.536C103.145 93.6213 103.07 93.664 102.974 93.664C102.889 93.664 102.814 93.6373 102.75 93.584C102.313 93.2747 101.924 93.0667 101.582 92.96C101.252 92.8533 100.873 92.8 100.446 92.8C99.8597 92.8 99.3904 92.928 99.0384 93.184C98.6864 93.44 98.5104 93.7653 98.5104 94.16C98.5104 94.4053 98.5904 94.6027 98.7504 94.752C98.9104 94.9013 99.1397 95.0293 99.4384 95.136C99.737 95.232 100.174 95.344 100.75 95.472C101.817 95.7067 102.574 95.9947 103.022 96.336C103.481 96.6773 103.71 97.1733 103.71 97.824C103.71 98.5387 103.428 99.1147 102.862 99.552C102.297 99.9893 101.566 100.208 100.67 100.208ZM111.241 98.128C111.315 98.0533 111.395 98.016 111.481 98.016C111.555 98.016 111.625 98.048 111.689 98.112L111.897 98.304C111.971 98.3787 112.009 98.4587 112.009 98.544C112.009 98.608 111.977 98.6827 111.913 98.768C111.39 99.2907 110.883 99.664 110.393 99.888C109.902 100.101 109.353 100.208 108.745 100.208C107.977 100.208 107.31 100.037 106.745 99.696C106.179 99.3547 105.742 98.88 105.433 98.272C105.123 97.6533 104.969 96.9387 104.969 96.128C104.969 95.3067 105.118 94.5813 105.417 93.952C105.726 93.312 106.158 92.816 106.713 92.464C107.267 92.1013 107.907 91.92 108.633 91.92C109.71 91.92 110.558 92.256 111.177 92.928C111.795 93.6 112.105 94.5067 112.105 95.648V95.84C112.094 95.936 112.057 96.0107 111.993 96.064C111.939 96.1173 111.865 96.144 111.769 96.144H106.041C106.073 97.04 106.307 97.7973 106.745 98.416C107.193 99.024 107.859 99.328 108.745 99.328C109.225 99.328 109.646 99.2427 110.009 99.072C110.382 98.8907 110.793 98.576 111.241 98.128ZM108.633 92.8C107.929 92.8 107.347 93.0187 106.889 93.456C106.441 93.8827 106.169 94.512 106.073 95.344H111.049C111.027 94.5653 110.803 93.9467 110.377 93.488C109.95 93.0293 109.369 92.8 108.633 92.8ZM116.989 89.328C116.509 89.328 116.168 89.456 115.965 89.712C115.762 89.9573 115.661 90.3733 115.661 90.96V92.112H117.421C117.634 92.112 117.741 92.2187 117.741 92.432V92.592C117.741 92.8053 117.634 92.912 117.421 92.912H115.661V99.68C115.661 99.8933 115.554 100 115.341 100H114.925C114.712 100 114.605 99.8933 114.605 99.68V92.912H113.421C113.208 92.912 113.101 92.8053 113.101 92.592V92.432C113.101 92.2187 113.208 92.112 113.421 92.112H114.605V90.784C114.605 90.048 114.797 89.472 115.181 89.056C115.576 88.64 116.136 88.432 116.861 88.432C117.266 88.432 117.682 88.4907 118.109 88.608C118.312 88.672 118.386 88.8053 118.333 89.008L118.269 89.232C118.216 89.3813 118.109 89.456 117.949 89.456C117.917 89.456 117.848 89.4453 117.741 89.424C117.506 89.36 117.256 89.328 116.989 89.328ZM119.821 90.112C119.608 90.112 119.427 90.0373 119.277 89.888C119.139 89.7387 119.069 89.5573 119.069 89.344C119.069 89.1307 119.139 88.9547 119.277 88.816C119.427 88.6773 119.608 88.608 119.821 88.608C120.045 88.608 120.227 88.6773 120.365 88.816C120.515 88.9547 120.589 89.1307 120.589 89.344C120.589 89.5573 120.515 89.7387 120.365 89.888C120.227 90.0373 120.045 90.112 119.821 90.112ZM119.613 100C119.4 100 119.293 99.8933 119.293 99.68V92.432C119.293 92.2187 119.4 92.112 119.613 92.112H120.029C120.243 92.112 120.349 92.2187 120.349 92.432V99.68C120.349 99.8933 120.243 100 120.029 100H119.613ZM126.22 91.92C127.148 91.92 127.846 92.176 128.316 92.688C128.796 93.2 129.036 93.84 129.036 94.608V99.68C129.036 99.8933 128.929 100 128.716 100H128.3C128.086 100 127.98 99.8933 127.98 99.68V94.96C127.98 94.256 127.809 93.7227 127.468 93.36C127.126 92.9973 126.636 92.816 125.996 92.816C125.59 92.816 125.217 92.9173 124.876 93.12C124.534 93.312 124.262 93.5787 124.06 93.92C123.857 94.2613 123.756 94.6347 123.756 95.04V99.68C123.756 99.8933 123.649 100 123.436 100H123.02C122.806 100 122.7 99.8933 122.7 99.68V92.432C122.7 92.2187 122.806 92.112 123.02 92.112H123.372C123.585 92.112 123.692 92.2187 123.692 92.432V93.2C123.958 92.7733 124.31 92.4533 124.748 92.24C125.185 92.0267 125.676 91.92 126.22 91.92ZM134.891 91.92C135.82 91.92 136.518 92.176 136.988 92.688C137.468 93.2 137.708 93.84 137.708 94.608V99.68C137.708 99.8933 137.601 100 137.388 100H136.972C136.758 100 136.652 99.8933 136.652 99.68V94.96C136.652 94.256 136.481 93.7227 136.14 93.36C135.798 92.9973 135.308 92.816 134.668 92.816C134.262 92.816 133.889 92.9173 133.548 93.12C133.206 93.312 132.934 93.5787 132.732 93.92C132.529 94.2613 132.428 94.6347 132.428 95.04V99.68C132.428 99.8933 132.321 100 132.108 100H131.692C131.478 100 131.372 99.8933 131.372 99.68V92.432C131.372 92.2187 131.478 92.112 131.692 92.112H132.044C132.257 92.112 132.364 92.2187 132.364 92.432V93.2C132.63 92.7733 132.982 92.4533 133.42 92.24C133.857 92.0267 134.348 91.92 134.891 91.92ZM149.403 92.8C149.51 92.8 149.585 92.832 149.627 92.896C149.681 92.96 149.697 93.0453 149.675 93.152L148.875 96.976C148.801 97.296 148.763 97.5733 148.763 97.808C148.763 98.6293 149.169 99.04 149.979 99.04C150.374 99.04 150.737 98.9067 151.067 98.64C151.398 98.3627 151.659 97.968 151.851 97.456C152.043 96.944 152.139 96.3413 152.139 95.648C152.139 94.4533 151.883 93.44 151.371 92.608C150.859 91.7653 150.177 91.1307 149.323 90.704C148.481 90.2773 147.547 90.064 146.523 90.064C145.35 90.064 144.31 90.3413 143.403 90.896C142.497 91.44 141.793 92.192 141.291 93.152C140.79 94.1013 140.539 95.1627 140.539 96.336C140.539 97.4773 140.779 98.5013 141.259 99.408C141.739 100.304 142.449 101.008 143.387 101.52C144.326 102.043 145.457 102.304 146.779 102.304H149.867C150.081 102.304 150.187 102.411 150.187 102.624V102.72C150.187 102.933 150.081 103.04 149.867 103.04H146.539C145.131 103.04 143.905 102.752 142.859 102.176C141.825 101.611 141.03 100.821 140.475 99.808C139.931 98.784 139.659 97.616 139.659 96.304C139.659 94.9707 139.937 93.776 140.491 92.72C141.046 91.6533 141.841 90.8213 142.875 90.224C143.91 89.616 145.11 89.312 146.475 89.312C147.745 89.312 148.875 89.5733 149.867 90.096C150.859 90.608 151.633 91.3387 152.187 92.288C152.742 93.2373 153.019 94.3413 153.019 95.6C153.019 96.4427 152.886 97.1787 152.619 97.808C152.353 98.4373 151.985 98.928 151.515 99.28C151.046 99.6213 150.513 99.792 149.915 99.792C149.233 99.792 148.737 99.6267 148.427 99.296C148.129 98.9547 147.963 98.5707 147.931 98.144C147.59 98.6773 147.195 99.088 146.747 99.376C146.299 99.6533 145.766 99.792 145.147 99.792C144.443 99.792 143.889 99.584 143.483 99.168C143.078 98.7413 142.875 98.1493 142.875 97.392C142.875 96.6453 143.03 95.9093 143.339 95.184C143.659 94.448 144.107 93.8453 144.683 93.376C145.259 92.9067 145.915 92.672 146.651 92.672C147.206 92.672 147.649 92.7947 147.979 93.04C148.321 93.2747 148.534 93.5947 148.619 94L148.795 93.088C148.827 92.896 148.945 92.8 149.147 92.8H149.403ZM145.275 98.976C145.905 98.976 146.433 98.7573 146.859 98.32C147.297 97.872 147.622 97.344 147.835 96.736C148.049 96.1173 148.155 95.568 148.155 95.088C148.155 94.544 148.043 94.1387 147.819 93.872C147.595 93.5947 147.217 93.456 146.683 93.456C146.139 93.456 145.649 93.648 145.211 94.032C144.785 94.416 144.449 94.9067 144.203 95.504C143.969 96.1013 143.851 96.6987 143.851 97.296C143.851 97.8613 143.974 98.2827 144.219 98.56C144.475 98.8373 144.827 98.976 145.275 98.976ZM158.005 89.328C157.525 89.328 157.183 89.456 156.981 89.712C156.778 89.9573 156.677 90.3733 156.677 90.96V92.112H158.437C158.65 92.112 158.757 92.2187 158.757 92.432V92.592C158.757 92.8053 158.65 92.912 158.437 92.912H156.677V99.68C156.677 99.8933 156.57 100 156.357 100H155.941C155.727 100 155.621 99.8933 155.621 99.68V92.912H154.437C154.223 92.912 154.117 92.8053 154.117 92.592V92.432C154.117 92.2187 154.223 92.112 154.437 92.112H155.621V90.784C155.621 90.048 155.813 89.472 156.197 89.056C156.591 88.64 157.151 88.432 157.877 88.432C158.282 88.432 158.698 88.4907 159.125 88.608C159.327 88.672 159.402 88.8053 159.349 89.008L159.285 89.232C159.231 89.3813 159.125 89.456 158.965 89.456C158.933 89.456 158.863 89.4453 158.757 89.424C158.522 89.36 158.271 89.328 158.005 89.328ZM160.837 90.112C160.624 90.112 160.442 90.0373 160.293 89.888C160.154 89.7387 160.085 89.5573 160.085 89.344C160.085 89.1307 160.154 88.9547 160.293 88.816C160.442 88.6773 160.624 88.608 160.837 88.608C161.061 88.608 161.242 88.6773 161.381 88.816C161.53 88.9547 161.605 89.1307 161.605 89.344C161.605 89.5573 161.53 89.7387 161.381 89.888C161.242 90.0373 161.061 90.112 160.837 90.112ZM160.629 100C160.416 100 160.309 99.8933 160.309 99.68V92.432C160.309 92.2187 160.416 92.112 160.629 92.112H161.045C161.258 92.112 161.365 92.2187 161.365 92.432V99.68C161.365 99.8933 161.258 100 161.045 100H160.629ZM167.235 91.92C168.163 91.92 168.862 92.176 169.331 92.688C169.811 93.2 170.051 93.84 170.051 94.608V99.68C170.051 99.8933 169.945 100 169.731 100H169.315C169.102 100 168.995 99.8933 168.995 99.68V94.96C168.995 94.256 168.825 93.7227 168.483 93.36C168.142 92.9973 167.651 92.816 167.011 92.816C166.606 92.816 166.233 92.9173 165.891 93.12C165.55 93.312 165.278 93.5787 165.075 93.92C164.873 94.2613 164.771 94.6347 164.771 95.04V99.68C164.771 99.8933 164.665 100 164.451 100H164.035C163.822 100 163.715 99.8933 163.715 99.68V92.432C163.715 92.2187 163.822 92.112 164.035 92.112H164.387C164.601 92.112 164.707 92.2187 164.707 92.432V93.2C164.974 92.7733 165.326 92.4533 165.763 92.24C166.201 92.0267 166.691 91.92 167.235 91.92ZM175.907 91.92C176.835 91.92 177.534 92.176 178.003 92.688C178.483 93.2 178.723 93.84 178.723 94.608V99.68C178.723 99.8933 178.616 100 178.403 100H177.987C177.774 100 177.667 99.8933 177.667 99.68V94.96C177.667 94.256 177.496 93.7227 177.155 93.36C176.814 92.9973 176.323 92.816 175.683 92.816C175.278 92.816 174.904 92.9173 174.563 93.12C174.222 93.312 173.95 93.5787 173.747 93.92C173.544 94.2613 173.443 94.6347 173.443 95.04V99.68C173.443 99.8933 173.336 100 173.123 100H172.707C172.494 100 172.387 99.8933 172.387 99.68V92.432C172.387 92.2187 172.494 92.112 172.707 92.112H173.059C173.272 92.112 173.379 92.2187 173.379 92.432V93.2C173.646 92.7733 173.998 92.4533 174.435 92.24C174.872 92.0267 175.363 91.92 175.907 91.92ZM181.491 100.112C181.267 100.112 181.075 100.032 180.915 99.872C180.755 99.712 180.675 99.52 180.675 99.296C180.675 99.072 180.755 98.88 180.915 98.72C181.075 98.56 181.267 98.48 181.491 98.48C181.715 98.48 181.907 98.56 182.067 98.72C182.227 98.88 182.307 99.072 182.307 99.296C182.307 99.52 182.227 99.712 182.067 99.872C181.907 100.032 181.715 100.112 181.491 100.112ZM187.813 91.92C188.741 91.92 189.44 92.176 189.909 92.688C190.389 93.2 190.629 93.84 190.629 94.608V99.68C190.629 99.8933 190.523 100 190.309 100H189.893C189.68 100 189.573 99.8933 189.573 99.68V94.96C189.573 94.256 189.403 93.7227 189.061 93.36C188.72 92.9973 188.229 92.816 187.589 92.816C187.184 92.816 186.811 92.9173 186.469 93.12C186.128 93.312 185.856 93.5787 185.653 93.92C185.451 94.2613 185.349 94.6347 185.349 95.04V99.68C185.349 99.8933 185.243 100 185.029 100H184.613C184.4 100 184.293 99.8933 184.293 99.68V92.432C184.293 92.2187 184.4 92.112 184.613 92.112H184.965C185.179 92.112 185.285 92.2187 185.285 92.432V93.2C185.552 92.7733 185.904 92.4533 186.341 92.24C186.779 92.0267 187.269 91.92 187.813 91.92ZM196.229 100.208C195.493 100.208 194.837 100.032 194.261 99.68C193.685 99.328 193.237 98.8427 192.917 98.224C192.597 97.5947 192.437 96.8747 192.437 96.064C192.437 95.2533 192.597 94.5387 192.917 93.92C193.237 93.2907 193.685 92.8 194.261 92.448C194.837 92.096 195.493 91.92 196.229 91.92C196.965 91.92 197.621 92.096 198.197 92.448C198.773 92.8 199.221 93.2907 199.541 93.92C199.861 94.5387 200.021 95.2533 200.021 96.064C200.021 96.8747 199.861 97.5947 199.541 98.224C199.221 98.8427 198.773 99.328 198.197 99.68C197.621 100.032 196.965 100.208 196.229 100.208ZM196.229 99.328C197.051 99.328 197.707 99.0293 198.197 98.432C198.688 97.824 198.933 97.0347 198.933 96.064C198.933 95.0933 198.688 94.3093 198.197 93.712C197.707 93.104 197.051 92.8 196.229 92.8C195.408 92.8 194.752 93.104 194.261 93.712C193.771 94.3093 193.525 95.0933 193.525 96.064C193.525 97.0347 193.771 97.824 194.261 98.432C194.752 99.0293 195.408 99.328 196.229 99.328Z" fill="#C3CCD9"/>
</g>
<rect x="70.5" y="71.5" width="202" height="47" rx="3.5" stroke="#C3CCD9"/>
<defs>
<clipPath id="clip0_899_63944">
<rect width="187" height="22" fill="white" transform="translate(78 84)"/>
</clipPath>
</defs>
</svg>
