<svg width="344" height="168" viewBox="0 0 344 168" fill="none" xmlns="http://www.w3.org/2000/svg">
<path d="M78.686 53.55C78.686 53.3913 78.728 53.27 78.812 53.186C78.9053 53.102 79.0267 53.06 79.176 53.06H79.75C79.9087 53.06 80.03 53.102 80.114 53.186C80.198 53.27 80.24 53.3913 80.24 53.55V62.51C80.24 62.6593 80.198 62.7807 80.114 62.874C80.03 62.958 79.9087 63 79.75 63H78.882C78.6207 63 78.4247 62.8927 78.294 62.678L75.746 58.702C74.7753 57.19 74.0473 55.9953 73.562 55.118C73.6087 56.1167 73.632 57.4093 73.632 58.996V62.51C73.632 62.6593 73.59 62.7807 73.506 62.874C73.422 62.958 73.3007 63 73.142 63H72.568C72.4187 63 72.2973 62.958 72.204 62.874C72.12 62.7807 72.078 62.6593 72.078 62.51V53.55C72.078 53.3913 72.12 53.27 72.204 53.186C72.2973 53.102 72.4187 53.06 72.568 53.06H73.464C73.7253 53.06 73.9213 53.1673 74.052 53.382L76.684 57.512C77.6173 58.968 78.3033 60.088 78.742 60.872C78.7047 59.8733 78.686 58.6413 78.686 57.176V53.55ZM86.5583 56.588C86.5583 56.4293 86.6003 56.308 86.6843 56.224C86.7776 56.14 86.8989 56.098 87.0483 56.098H87.5523C87.7109 56.098 87.8323 56.14 87.9163 56.224C88.0003 56.308 88.0423 56.4293 88.0423 56.588V62.51C88.0423 62.6593 88.0003 62.7807 87.9163 62.874C87.8323 62.958 87.7109 63 87.5523 63H87.1743C87.0249 63 86.9036 62.958 86.8103 62.874C86.7263 62.7807 86.6843 62.6593 86.6843 62.51V62.188C86.4976 62.5053 86.2269 62.7573 85.8723 62.944C85.5176 63.1213 85.0976 63.21 84.6123 63.21C83.7909 63.21 83.1796 63.0093 82.7783 62.608C82.3769 62.1973 82.1763 61.656 82.1763 60.984V56.588C82.1763 56.4293 82.2183 56.308 82.3023 56.224C82.3956 56.14 82.5169 56.098 82.6663 56.098H83.1703C83.3289 56.098 83.4503 56.14 83.5343 56.224C83.6183 56.308 83.6603 56.4293 83.6603 56.588V60.592C83.6603 61.0213 83.7676 61.3527 83.9823 61.586C84.2063 61.81 84.5283 61.922 84.9483 61.922C85.4336 61.922 85.8209 61.782 86.1103 61.502C86.4089 61.222 86.5583 60.816 86.5583 60.284V56.588ZM97.1565 55.888C97.8938 55.888 98.4632 56.098 98.8645 56.518C99.2658 56.9287 99.4665 57.484 99.4665 58.184V62.51C99.4665 62.6593 99.4245 62.7807 99.3405 62.874C99.2565 62.958 99.1352 63 98.9765 63H98.4725C98.3232 63 98.2018 62.958 98.1085 62.874C98.0245 62.7807 97.9825 62.6593 97.9825 62.51V58.632C97.9825 58.1747 97.8798 57.8153 97.6745 57.554C97.4692 57.2927 97.1565 57.162 96.7365 57.162C96.3072 57.162 95.9665 57.3067 95.7145 57.596C95.4718 57.8853 95.3505 58.2587 95.3505 58.716V62.51C95.3505 62.6593 95.3085 62.7807 95.2245 62.874C95.1405 62.958 95.0192 63 94.8605 63H94.3565C94.2072 63 94.0858 62.958 93.9925 62.874C93.9085 62.7807 93.8665 62.6593 93.8665 62.51V58.632C93.8665 58.1747 93.7638 57.8153 93.5585 57.554C93.3625 57.2927 93.0545 57.162 92.6345 57.162C92.2238 57.162 91.8925 57.2973 91.6405 57.568C91.3885 57.8387 91.2532 58.1887 91.2345 58.618V62.51C91.2345 62.6593 91.1925 62.7807 91.1085 62.874C91.0245 62.958 90.9032 63 90.7445 63H90.2405C90.0912 63 89.9698 62.958 89.8765 62.874C89.7925 62.7807 89.7505 62.6593 89.7505 62.51V56.588C89.7505 56.4293 89.7925 56.308 89.8765 56.224C89.9698 56.14 90.0912 56.098 90.2405 56.098H90.6465C90.8052 56.098 90.9265 56.14 91.0105 56.224C91.0945 56.308 91.1365 56.4293 91.1365 56.588V56.896C91.5658 56.224 92.2285 55.888 93.1245 55.888C93.5725 55.888 93.9645 55.9813 94.3005 56.168C94.6365 56.3547 94.8932 56.616 95.0705 56.952C95.5465 56.2427 96.2418 55.888 97.1565 55.888ZM104.835 55.916C105.423 55.916 105.945 56.0653 106.403 56.364C106.869 56.6627 107.233 57.0873 107.495 57.638C107.756 58.1887 107.887 58.8233 107.887 59.542C107.887 60.27 107.756 60.9093 107.495 61.46C107.233 62.0107 106.869 62.4353 106.403 62.734C105.936 63.0327 105.413 63.182 104.835 63.182C103.799 63.182 103.038 62.7947 102.553 62.02V62.51C102.553 62.6593 102.511 62.7807 102.427 62.874C102.343 62.958 102.221 63 102.062 63H101.657C101.507 63 101.386 62.958 101.293 62.874C101.209 62.7807 101.167 62.6593 101.167 62.51V53.55C101.167 53.3913 101.209 53.27 101.293 53.186C101.386 53.102 101.507 53.06 101.657 53.06H102.16C102.319 53.06 102.441 53.102 102.525 53.186C102.609 53.27 102.651 53.3913 102.651 53.55V56.966C103.145 56.266 103.873 55.916 104.835 55.916ZM104.527 61.894C105.087 61.894 105.535 61.684 105.871 61.264C106.207 60.8347 106.375 60.2607 106.375 59.542C106.375 58.8327 106.207 58.2633 105.871 57.834C105.544 57.4047 105.101 57.19 104.541 57.19C103.971 57.19 103.505 57.4047 103.141 57.834C102.777 58.254 102.595 58.8233 102.595 59.542C102.595 60.2793 102.777 60.858 103.141 61.278C103.505 61.6887 103.967 61.894 104.527 61.894ZM114.257 61.236C114.378 61.1333 114.495 61.082 114.607 61.082C114.719 61.082 114.836 61.1427 114.957 61.264L115.153 61.474C115.256 61.5953 115.307 61.712 115.307 61.824C115.307 61.9453 115.246 62.062 115.125 62.174C114.696 62.5473 114.266 62.8133 113.837 62.972C113.417 63.1307 112.95 63.21 112.437 63.21C111.718 63.21 111.093 63.0607 110.561 62.762C110.038 62.4633 109.632 62.0433 109.343 61.502C109.063 60.9513 108.923 60.3167 108.923 59.598C108.923 58.8887 109.058 58.254 109.329 57.694C109.609 57.1247 110.001 56.6813 110.505 56.364C111.018 56.0467 111.616 55.888 112.297 55.888C113.314 55.888 114.098 56.1913 114.649 56.798C115.2 57.3953 115.475 58.2213 115.475 59.276V59.402C115.466 59.5513 115.419 59.668 115.335 59.752C115.251 59.836 115.13 59.878 114.971 59.878H110.379C110.435 60.494 110.636 60.998 110.981 61.39C111.336 61.7727 111.83 61.964 112.465 61.964C112.81 61.964 113.114 61.9127 113.375 61.81C113.636 61.698 113.93 61.5067 114.257 61.236ZM112.269 57.064C111.756 57.064 111.34 57.218 111.023 57.526C110.715 57.8247 110.514 58.2493 110.421 58.8H114.019C113.982 58.2587 113.814 57.834 113.515 57.526C113.216 57.218 112.801 57.064 112.269 57.064ZM119.942 56.028C120.148 56.028 120.358 56.0513 120.572 56.098C120.824 56.154 120.95 56.3033 120.95 56.546C120.95 56.6113 120.946 56.658 120.936 56.686L120.866 57.022C120.81 57.2833 120.67 57.414 120.446 57.414L120.32 57.4C120.152 57.372 120.003 57.358 119.872 57.358C119.406 57.358 119.028 57.5447 118.738 57.918C118.458 58.282 118.318 58.7907 118.318 59.444V62.51C118.318 62.6593 118.276 62.7807 118.192 62.874C118.108 62.958 117.987 63 117.828 63H117.324C117.175 63 117.054 62.958 116.96 62.874C116.876 62.7807 116.834 62.6593 116.834 62.51V56.588C116.834 56.4293 116.876 56.308 116.96 56.224C117.054 56.14 117.175 56.098 117.324 56.098H117.73C117.889 56.098 118.01 56.14 118.094 56.224C118.178 56.308 118.22 56.4293 118.22 56.588V57.134C118.388 56.7887 118.617 56.518 118.906 56.322C119.196 56.126 119.541 56.028 119.942 56.028ZM129.655 63.224C128.675 63.224 127.821 63 127.093 62.552C126.365 62.104 125.805 61.488 125.413 60.704C125.03 59.9107 124.839 59.0193 124.839 58.03C124.839 57.0407 125.03 56.154 125.413 55.37C125.805 54.5767 126.365 53.956 127.093 53.508C127.821 53.06 128.675 52.836 129.655 52.836C130.625 52.836 131.475 53.06 132.203 53.508C132.931 53.956 133.486 54.5767 133.869 55.37C134.261 56.154 134.457 57.0407 134.457 58.03C134.457 59.0193 134.261 59.9107 133.869 60.704C133.486 61.488 132.931 62.104 132.203 62.552C131.475 63 130.625 63.224 129.655 63.224ZM129.655 61.824C130.28 61.824 130.831 61.6653 131.307 61.348C131.792 61.0307 132.165 60.5873 132.427 60.018C132.688 59.4393 132.819 58.7767 132.819 58.03C132.819 57.2833 132.688 56.6253 132.427 56.056C132.165 55.4773 131.792 55.0293 131.307 54.712C130.831 54.3947 130.28 54.236 129.655 54.236C129.02 54.236 128.46 54.3947 127.975 54.712C127.499 55.0293 127.13 55.4773 126.869 56.056C126.607 56.6253 126.477 57.2833 126.477 58.03C126.477 58.7767 126.607 59.4393 126.869 60.018C127.13 60.5873 127.499 61.0307 127.975 61.348C128.46 61.6653 129.02 61.824 129.655 61.824ZM138.999 54.096C138.673 54.096 138.435 54.1753 138.285 54.334C138.136 54.4927 138.061 54.7633 138.061 55.146V56.098H139.195C139.354 56.098 139.475 56.14 139.559 56.224C139.643 56.308 139.685 56.4293 139.685 56.588V56.742C139.685 56.8913 139.643 57.0127 139.559 57.106C139.475 57.19 139.354 57.232 139.195 57.232H138.061V62.51C138.061 62.6593 138.019 62.7807 137.935 62.874C137.851 62.958 137.73 63 137.571 63H137.067C136.918 63 136.797 62.958 136.703 62.874C136.619 62.7807 136.577 62.6593 136.577 62.51V57.232H135.835C135.686 57.232 135.565 57.19 135.471 57.106C135.387 57.0127 135.345 56.8913 135.345 56.742V56.588C135.345 56.4293 135.387 56.308 135.471 56.224C135.565 56.14 135.686 56.098 135.835 56.098H136.577V55.048C136.577 54.3293 136.759 53.788 137.123 53.424C137.497 53.0507 138.033 52.864 138.733 52.864C139.051 52.864 139.373 52.8967 139.699 52.962C139.942 53.0273 140.063 53.1767 140.063 53.41C140.063 53.4753 140.059 53.5267 140.049 53.564L140.007 53.76C139.951 54.0027 139.769 54.124 139.461 54.124L139.293 54.11C139.228 54.1007 139.13 54.096 138.999 54.096ZM150.092 57.764C150.689 57.9413 151.156 58.2353 151.492 58.646C151.828 59.0567 151.996 59.5747 151.996 60.2C151.996 61.068 151.716 61.754 151.156 62.258C150.605 62.7527 149.863 63 148.93 63H144.646C144.497 63 144.375 62.958 144.282 62.874C144.198 62.7807 144.156 62.6593 144.156 62.51V53.55C144.156 53.3913 144.198 53.27 144.282 53.186C144.375 53.102 144.497 53.06 144.646 53.06H148.706C149.574 53.06 150.279 53.284 150.82 53.732C151.371 54.1707 151.646 54.796 151.646 55.608C151.646 56.1493 151.506 56.6067 151.226 56.98C150.946 57.344 150.568 57.6053 150.092 57.764ZM145.752 57.176H148.342C148.902 57.176 149.331 57.05 149.63 56.798C149.938 56.5367 150.092 56.1727 150.092 55.706C150.092 55.2487 149.943 54.9033 149.644 54.67C149.345 54.4367 148.916 54.32 148.356 54.32H145.752V57.176ZM148.398 61.74C149.051 61.74 149.546 61.5953 149.882 61.306C150.227 61.0167 150.4 60.6153 150.4 60.102C150.4 59.598 150.223 59.1967 149.868 58.898C149.523 58.59 149.033 58.436 148.398 58.436H145.752V61.74H148.398ZM158.431 61.236C158.552 61.1333 158.669 61.082 158.781 61.082C158.893 61.082 159.009 61.1427 159.131 61.264L159.327 61.474C159.429 61.5953 159.481 61.712 159.481 61.824C159.481 61.9453 159.42 62.062 159.299 62.174C158.869 62.5473 158.44 62.8133 158.011 62.972C157.591 63.1307 157.124 63.21 156.611 63.21C155.892 63.21 155.267 63.0607 154.735 62.762C154.212 62.4633 153.806 62.0433 153.517 61.502C153.237 60.9513 153.097 60.3167 153.097 59.598C153.097 58.8887 153.232 58.254 153.503 57.694C153.783 57.1247 154.175 56.6813 154.679 56.364C155.192 56.0467 155.789 55.888 156.471 55.888C157.488 55.888 158.272 56.1913 158.823 56.798C159.373 57.3953 159.649 58.2213 159.649 59.276V59.402C159.639 59.5513 159.593 59.668 159.509 59.752C159.425 59.836 159.303 59.878 159.145 59.878H154.553C154.609 60.494 154.809 60.998 155.155 61.39C155.509 61.7727 156.004 61.964 156.639 61.964C156.984 61.964 157.287 61.9127 157.549 61.81C157.81 61.698 158.104 61.5067 158.431 61.236ZM156.443 57.064C155.929 57.064 155.514 57.218 155.197 57.526C154.889 57.8247 154.688 58.2493 154.595 58.8H158.193C158.155 58.2587 157.987 57.834 157.689 57.526C157.39 57.218 156.975 57.064 156.443 57.064ZM165.894 53.536C165.894 53.3773 165.936 53.256 166.02 53.172C166.113 53.088 166.234 53.046 166.384 53.046H166.888C167.046 53.046 167.168 53.088 167.252 53.172C167.336 53.256 167.378 53.3773 167.378 53.536V62.51C167.378 62.6593 167.336 62.7807 167.252 62.874C167.168 62.958 167.046 63 166.888 63H166.482C166.332 63 166.211 62.958 166.118 62.874C166.034 62.7807 165.992 62.6593 165.992 62.51V62.02C165.506 62.804 164.746 63.196 163.71 63.196C163.131 63.196 162.608 63.0467 162.142 62.748C161.684 62.4493 161.325 62.0247 161.064 61.474C160.802 60.9233 160.672 60.284 160.672 59.556C160.672 58.8373 160.802 58.2027 161.064 57.652C161.334 57.1013 161.703 56.6767 162.17 56.378C162.636 56.0793 163.159 55.93 163.738 55.93C164.69 55.93 165.408 56.2613 165.894 56.924V53.536ZM164.018 61.922C164.587 61.922 165.054 61.712 165.418 61.292C165.782 60.8627 165.964 60.284 165.964 59.556C165.964 58.828 165.782 58.254 165.418 57.834C165.054 57.414 164.587 57.204 164.018 57.204C163.467 57.204 163.024 57.4187 162.688 57.848C162.352 58.2773 162.184 58.8467 162.184 59.556C162.184 60.2747 162.347 60.8487 162.674 61.278C163.01 61.7073 163.458 61.922 164.018 61.922ZM172.21 56.028C172.415 56.028 172.625 56.0513 172.84 56.098C173.092 56.154 173.218 56.3033 173.218 56.546C173.218 56.6113 173.213 56.658 173.204 56.686L173.134 57.022C173.078 57.2833 172.938 57.414 172.714 57.414L172.588 57.4C172.42 57.372 172.271 57.358 172.14 57.358C171.673 57.358 171.295 57.5447 171.006 57.918C170.726 58.282 170.586 58.7907 170.586 59.444V62.51C170.586 62.6593 170.544 62.7807 170.46 62.874C170.376 62.958 170.255 63 170.096 63H169.592C169.443 63 169.321 62.958 169.228 62.874C169.144 62.7807 169.102 62.6593 169.102 62.51V56.588C169.102 56.4293 169.144 56.308 169.228 56.224C169.321 56.14 169.443 56.098 169.592 56.098H169.998C170.157 56.098 170.278 56.14 170.362 56.224C170.446 56.308 170.488 56.4293 170.488 56.588V57.134C170.656 56.7887 170.885 56.518 171.174 56.322C171.463 56.126 171.809 56.028 172.21 56.028ZM177.077 63.21C176.396 63.21 175.789 63.056 175.257 62.748C174.735 62.44 174.324 62.0107 174.025 61.46C173.727 60.9 173.577 60.2607 173.577 59.542C173.577 58.8233 173.727 58.1887 174.025 57.638C174.324 57.0873 174.735 56.658 175.257 56.35C175.789 56.042 176.396 55.888 177.077 55.888C177.749 55.888 178.351 56.042 178.883 56.35C179.415 56.658 179.831 57.092 180.129 57.652C180.428 58.2027 180.577 58.8327 180.577 59.542C180.577 60.2607 180.428 60.9 180.129 61.46C179.831 62.0107 179.415 62.44 178.883 62.748C178.351 63.056 177.749 63.21 177.077 63.21ZM177.077 61.964C177.675 61.964 178.155 61.7447 178.519 61.306C178.883 60.858 179.065 60.27 179.065 59.542C179.065 58.8233 178.883 58.2447 178.519 57.806C178.155 57.3673 177.675 57.148 177.077 57.148C176.48 57.148 175.999 57.3673 175.635 57.806C175.271 58.2447 175.089 58.8233 175.089 59.542C175.089 60.27 175.271 60.858 175.635 61.306C175.999 61.7447 176.48 61.964 177.077 61.964ZM185.075 63.21C184.394 63.21 183.787 63.056 183.255 62.748C182.733 62.44 182.322 62.0107 182.023 61.46C181.725 60.9 181.575 60.2607 181.575 59.542C181.575 58.8233 181.725 58.1887 182.023 57.638C182.322 57.0873 182.733 56.658 183.255 56.35C183.787 56.042 184.394 55.888 185.075 55.888C185.747 55.888 186.349 56.042 186.881 56.35C187.413 56.658 187.829 57.092 188.127 57.652C188.426 58.2027 188.575 58.8327 188.575 59.542C188.575 60.2607 188.426 60.9 188.127 61.46C187.829 62.0107 187.413 62.44 186.881 62.748C186.349 63.056 185.747 63.21 185.075 63.21ZM185.075 61.964C185.673 61.964 186.153 61.7447 186.517 61.306C186.881 60.858 187.063 60.27 187.063 59.542C187.063 58.8233 186.881 58.2447 186.517 57.806C186.153 57.3673 185.673 57.148 185.075 57.148C184.478 57.148 183.997 57.3673 183.633 57.806C183.269 58.2447 183.087 58.8233 183.087 59.542C183.087 60.27 183.269 60.858 183.633 61.306C183.997 61.7447 184.478 61.964 185.075 61.964ZM197.289 55.888C198.027 55.888 198.596 56.098 198.997 56.518C199.399 56.9287 199.599 57.484 199.599 58.184V62.51C199.599 62.6593 199.557 62.7807 199.473 62.874C199.389 62.958 199.268 63 199.109 63H198.605C198.456 63 198.335 62.958 198.241 62.874C198.157 62.7807 198.115 62.6593 198.115 62.51V58.632C198.115 58.1747 198.013 57.8153 197.807 57.554C197.602 57.2927 197.289 57.162 196.869 57.162C196.44 57.162 196.099 57.3067 195.847 57.596C195.605 57.8853 195.483 58.2587 195.483 58.716V62.51C195.483 62.6593 195.441 62.7807 195.357 62.874C195.273 62.958 195.152 63 194.993 63H194.489C194.34 63 194.219 62.958 194.125 62.874C194.041 62.7807 193.999 62.6593 193.999 62.51V58.632C193.999 58.1747 193.897 57.8153 193.691 57.554C193.495 57.2927 193.187 57.162 192.767 57.162C192.357 57.162 192.025 57.2973 191.773 57.568C191.521 57.8387 191.386 58.1887 191.367 58.618V62.51C191.367 62.6593 191.325 62.7807 191.241 62.874C191.157 62.958 191.036 63 190.877 63H190.373C190.224 63 190.103 62.958 190.009 62.874C189.925 62.7807 189.883 62.6593 189.883 62.51V56.588C189.883 56.4293 189.925 56.308 190.009 56.224C190.103 56.14 190.224 56.098 190.373 56.098H190.779C190.938 56.098 191.059 56.14 191.143 56.224C191.227 56.308 191.269 56.4293 191.269 56.588V56.896C191.699 56.224 192.361 55.888 193.257 55.888C193.705 55.888 194.097 55.9813 194.433 56.168C194.769 56.3547 195.026 56.616 195.203 56.952C195.679 56.2427 196.375 55.888 197.289 55.888ZM203.959 63.21C203.39 63.21 202.881 63.14 202.433 63C201.995 62.8507 201.547 62.594 201.089 62.23C200.949 62.1273 200.879 62.0107 200.879 61.88C200.879 61.7773 200.931 61.6653 201.033 61.544L201.243 61.306C201.355 61.1753 201.477 61.11 201.607 61.11C201.71 61.11 201.822 61.1567 201.943 61.25C202.335 61.5393 202.681 61.74 202.979 61.852C203.278 61.9547 203.614 62.006 203.987 62.006C204.389 62.006 204.715 61.9267 204.967 61.768C205.229 61.6 205.359 61.376 205.359 61.096C205.359 60.8813 205.285 60.7133 205.135 60.592C204.995 60.4613 204.809 60.3633 204.575 60.298C204.342 60.2233 203.997 60.1393 203.539 60.046C202.895 59.906 202.391 59.7567 202.027 59.598C201.673 59.43 201.416 59.22 201.257 58.968C201.099 58.716 201.019 58.394 201.019 58.002C201.019 57.6007 201.131 57.2413 201.355 56.924C201.589 56.6067 201.911 56.3547 202.321 56.168C202.741 55.9813 203.231 55.888 203.791 55.888C204.295 55.888 204.743 55.944 205.135 56.056C205.537 56.168 205.929 56.3593 206.311 56.63C206.461 56.742 206.535 56.868 206.535 57.008C206.535 57.1013 206.489 57.2087 206.395 57.33L206.213 57.554C206.111 57.6847 205.985 57.75 205.835 57.75C205.723 57.75 205.616 57.7127 205.513 57.638C205.205 57.4327 204.921 57.2927 204.659 57.218C204.398 57.134 204.104 57.092 203.777 57.092C203.376 57.092 203.054 57.1713 202.811 57.33C202.569 57.4887 202.447 57.694 202.447 57.946C202.447 58.114 202.503 58.2493 202.615 58.352C202.737 58.4453 202.905 58.5293 203.119 58.604C203.343 58.6693 203.693 58.7533 204.169 58.856C204.813 58.996 205.322 59.1547 205.695 59.332C206.078 59.5 206.358 59.7193 206.535 59.99C206.722 60.2513 206.815 60.592 206.815 61.012C206.815 61.6653 206.554 62.1973 206.031 62.608C205.518 63.0093 204.827 63.21 203.959 63.21Z" fill="#464646"/>
<rect x="71.5" y="71.5" width="202" height="47" rx="3.5" fill="white"/>
<g clip-path="url(#clip0_899_73492)">
<path d="M83.992 92.672C84.728 92.672 85.3733 92.8267 85.928 93.136C86.4933 93.4347 86.9307 93.8613 87.24 94.416C87.5493 94.9707 87.704 95.6107 87.704 96.336C87.704 96.9867 87.5493 97.6107 87.24 98.208C86.9307 98.8053 86.4827 99.2907 85.896 99.664C85.3093 100.037 84.6213 100.224 83.832 100.224C83.064 100.224 82.3973 100.128 81.832 99.936C81.2773 99.744 80.648 99.4133 79.944 98.944C79.8373 98.88 79.784 98.7947 79.784 98.688C79.784 98.6133 79.8053 98.5493 79.848 98.496L80.056 98.208C80.12 98.112 80.1947 98.064 80.28 98.064C80.344 98.064 80.4187 98.0907 80.504 98.144C81.1547 98.5813 81.7093 98.8853 82.168 99.056C82.6373 99.2267 83.1547 99.312 83.72 99.312C84.3173 99.312 84.8347 99.1787 85.272 98.912C85.7093 98.6347 86.04 98.272 86.264 97.824C86.4987 97.3653 86.616 96.8693 86.616 96.336C86.616 95.4827 86.376 94.816 85.896 94.336C85.4267 93.856 84.7493 93.616 83.864 93.616C82.9147 93.616 82.12 93.904 81.48 94.48C81.3627 94.5867 81.224 94.6293 81.064 94.608L80.712 94.56C80.616 94.5493 80.5413 94.512 80.488 94.448C80.4347 94.384 80.4133 94.304 80.424 94.208L80.856 88.944C80.8667 88.848 80.8987 88.7733 80.952 88.72C81.016 88.6667 81.096 88.64 81.192 88.64H86.888C87.1013 88.64 87.208 88.7467 87.208 88.96V89.248C87.208 89.4613 87.1013 89.568 86.888 89.568H81.8L81.464 93.504C81.7627 93.2587 82.1253 93.0613 82.552 92.912C82.9893 92.752 83.4693 92.672 83.992 92.672Z" fill="#464646"/>
</g>
<rect x="71.5" y="71.5" width="202" height="47" rx="3.5" stroke="#C3CCD9"/>
<defs>
<clipPath id="clip0_899_73492">
<rect width="187" height="22" fill="white" transform="translate(79 84)"/>
</clipPath>
</defs>
</svg>
