<svg width="344" height="168" viewBox="0 0 344 168" fill="none" xmlns="http://www.w3.org/2000/svg">
<path d="M77.686 53.55C77.686 53.3913 77.728 53.27 77.812 53.186C77.9053 53.102 78.0267 53.06 78.176 53.06H78.75C78.9087 53.06 79.03 53.102 79.114 53.186C79.198 53.27 79.24 53.3913 79.24 53.55V62.51C79.24 62.6593 79.198 62.7807 79.114 62.874C79.03 62.958 78.9087 63 78.75 63H77.882C77.6207 63 77.4247 62.8927 77.294 62.678L74.746 58.702C73.7753 57.19 73.0473 55.9953 72.562 55.118C72.6087 56.1167 72.632 57.4093 72.632 58.996V62.51C72.632 62.6593 72.59 62.7807 72.506 62.874C72.422 62.958 72.3007 63 72.142 63H71.568C71.4187 63 71.2973 62.958 71.204 62.874C71.12 62.7807 71.078 62.6593 71.078 62.51V53.55C71.078 53.3913 71.12 53.27 71.204 53.186C71.2973 53.102 71.4187 53.06 71.568 53.06H72.464C72.7253 53.06 72.9213 53.1673 73.052 53.382L75.684 57.512C76.6173 58.968 77.3033 60.088 77.742 60.872C77.7047 59.8733 77.686 58.6413 77.686 57.176V53.55ZM85.5583 56.588C85.5583 56.4293 85.6003 56.308 85.6843 56.224C85.7776 56.14 85.8989 56.098 86.0483 56.098H86.5523C86.7109 56.098 86.8323 56.14 86.9163 56.224C87.0003 56.308 87.0423 56.4293 87.0423 56.588V62.51C87.0423 62.6593 87.0003 62.7807 86.9163 62.874C86.8323 62.958 86.7109 63 86.5523 63H86.1743C86.0249 63 85.9036 62.958 85.8103 62.874C85.7263 62.7807 85.6843 62.6593 85.6843 62.51V62.188C85.4976 62.5053 85.2269 62.7573 84.8723 62.944C84.5176 63.1213 84.0976 63.21 83.6123 63.21C82.7909 63.21 82.1796 63.0093 81.7783 62.608C81.3769 62.1973 81.1763 61.656 81.1763 60.984V56.588C81.1763 56.4293 81.2183 56.308 81.3023 56.224C81.3956 56.14 81.5169 56.098 81.6663 56.098H82.1703C82.3289 56.098 82.4503 56.14 82.5343 56.224C82.6183 56.308 82.6603 56.4293 82.6603 56.588V60.592C82.6603 61.0213 82.7676 61.3527 82.9823 61.586C83.2063 61.81 83.5283 61.922 83.9483 61.922C84.4336 61.922 84.8209 61.782 85.1103 61.502C85.4089 61.222 85.5583 60.816 85.5583 60.284V56.588ZM96.1565 55.888C96.8938 55.888 97.4632 56.098 97.8645 56.518C98.2658 56.9287 98.4665 57.484 98.4665 58.184V62.51C98.4665 62.6593 98.4245 62.7807 98.3405 62.874C98.2565 62.958 98.1352 63 97.9765 63H97.4725C97.3232 63 97.2018 62.958 97.1085 62.874C97.0245 62.7807 96.9825 62.6593 96.9825 62.51V58.632C96.9825 58.1747 96.8798 57.8153 96.6745 57.554C96.4692 57.2927 96.1565 57.162 95.7365 57.162C95.3072 57.162 94.9665 57.3067 94.7145 57.596C94.4718 57.8853 94.3505 58.2587 94.3505 58.716V62.51C94.3505 62.6593 94.3085 62.7807 94.2245 62.874C94.1405 62.958 94.0192 63 93.8605 63H93.3565C93.2072 63 93.0858 62.958 92.9925 62.874C92.9085 62.7807 92.8665 62.6593 92.8665 62.51V58.632C92.8665 58.1747 92.7638 57.8153 92.5585 57.554C92.3625 57.2927 92.0545 57.162 91.6345 57.162C91.2238 57.162 90.8925 57.2973 90.6405 57.568C90.3885 57.8387 90.2532 58.1887 90.2345 58.618V62.51C90.2345 62.6593 90.1925 62.7807 90.1085 62.874C90.0245 62.958 89.9032 63 89.7445 63H89.2405C89.0912 63 88.9698 62.958 88.8765 62.874C88.7925 62.7807 88.7505 62.6593 88.7505 62.51V56.588C88.7505 56.4293 88.7925 56.308 88.8765 56.224C88.9698 56.14 89.0912 56.098 89.2405 56.098H89.6465C89.8052 56.098 89.9265 56.14 90.0105 56.224C90.0945 56.308 90.1365 56.4293 90.1365 56.588V56.896C90.5658 56.224 91.2285 55.888 92.1245 55.888C92.5725 55.888 92.9645 55.9813 93.3005 56.168C93.6365 56.3547 93.8932 56.616 94.0705 56.952C94.5465 56.2427 95.2418 55.888 96.1565 55.888ZM103.835 55.916C104.423 55.916 104.945 56.0653 105.403 56.364C105.869 56.6627 106.233 57.0873 106.495 57.638C106.756 58.1887 106.887 58.8233 106.887 59.542C106.887 60.27 106.756 60.9093 106.495 61.46C106.233 62.0107 105.869 62.4353 105.403 62.734C104.936 63.0327 104.413 63.182 103.835 63.182C102.799 63.182 102.038 62.7947 101.553 62.02V62.51C101.553 62.6593 101.511 62.7807 101.427 62.874C101.343 62.958 101.221 63 101.062 63H100.657C100.507 63 100.386 62.958 100.293 62.874C100.209 62.7807 100.167 62.6593 100.167 62.51V53.55C100.167 53.3913 100.209 53.27 100.293 53.186C100.386 53.102 100.507 53.06 100.657 53.06H101.16C101.319 53.06 101.441 53.102 101.525 53.186C101.609 53.27 101.651 53.3913 101.651 53.55V56.966C102.145 56.266 102.873 55.916 103.835 55.916ZM103.527 61.894C104.087 61.894 104.535 61.684 104.871 61.264C105.207 60.8347 105.375 60.2607 105.375 59.542C105.375 58.8327 105.207 58.2633 104.871 57.834C104.544 57.4047 104.101 57.19 103.541 57.19C102.971 57.19 102.505 57.4047 102.141 57.834C101.777 58.254 101.595 58.8233 101.595 59.542C101.595 60.2793 101.777 60.858 102.141 61.278C102.505 61.6887 102.967 61.894 103.527 61.894ZM113.257 61.236C113.378 61.1333 113.495 61.082 113.607 61.082C113.719 61.082 113.836 61.1427 113.957 61.264L114.153 61.474C114.256 61.5953 114.307 61.712 114.307 61.824C114.307 61.9453 114.246 62.062 114.125 62.174C113.696 62.5473 113.266 62.8133 112.837 62.972C112.417 63.1307 111.95 63.21 111.437 63.21C110.718 63.21 110.093 63.0607 109.561 62.762C109.038 62.4633 108.632 62.0433 108.343 61.502C108.063 60.9513 107.923 60.3167 107.923 59.598C107.923 58.8887 108.058 58.254 108.329 57.694C108.609 57.1247 109.001 56.6813 109.505 56.364C110.018 56.0467 110.616 55.888 111.297 55.888C112.314 55.888 113.098 56.1913 113.649 56.798C114.2 57.3953 114.475 58.2213 114.475 59.276V59.402C114.466 59.5513 114.419 59.668 114.335 59.752C114.251 59.836 114.13 59.878 113.971 59.878H109.379C109.435 60.494 109.636 60.998 109.981 61.39C110.336 61.7727 110.83 61.964 111.465 61.964C111.81 61.964 112.114 61.9127 112.375 61.81C112.636 61.698 112.93 61.5067 113.257 61.236ZM111.269 57.064C110.756 57.064 110.34 57.218 110.023 57.526C109.715 57.8247 109.514 58.2493 109.421 58.8H113.019C112.982 58.2587 112.814 57.834 112.515 57.526C112.216 57.218 111.801 57.064 111.269 57.064ZM118.942 56.028C119.148 56.028 119.358 56.0513 119.572 56.098C119.824 56.154 119.95 56.3033 119.95 56.546C119.95 56.6113 119.946 56.658 119.936 56.686L119.866 57.022C119.81 57.2833 119.67 57.414 119.446 57.414L119.32 57.4C119.152 57.372 119.003 57.358 118.872 57.358C118.406 57.358 118.028 57.5447 117.738 57.918C117.458 58.282 117.318 58.7907 117.318 59.444V62.51C117.318 62.6593 117.276 62.7807 117.192 62.874C117.108 62.958 116.987 63 116.828 63H116.324C116.175 63 116.054 62.958 115.96 62.874C115.876 62.7807 115.834 62.6593 115.834 62.51V56.588C115.834 56.4293 115.876 56.308 115.96 56.224C116.054 56.14 116.175 56.098 116.324 56.098H116.73C116.889 56.098 117.01 56.14 117.094 56.224C117.178 56.308 117.22 56.4293 117.22 56.588V57.134C117.388 56.7887 117.617 56.518 117.906 56.322C118.196 56.126 118.541 56.028 118.942 56.028ZM127.269 63.21C126.587 63.21 125.981 63.056 125.449 62.748C124.926 62.44 124.515 62.0107 124.217 61.46C123.918 60.9 123.769 60.2607 123.769 59.542C123.769 58.8233 123.918 58.1887 124.217 57.638C124.515 57.0873 124.926 56.658 125.449 56.35C125.981 56.042 126.587 55.888 127.269 55.888C127.941 55.888 128.543 56.042 129.075 56.35C129.607 56.658 130.022 57.092 130.321 57.652C130.619 58.2027 130.769 58.8327 130.769 59.542C130.769 60.2607 130.619 60.9 130.321 61.46C130.022 62.0107 129.607 62.44 129.075 62.748C128.543 63.056 127.941 63.21 127.269 63.21ZM127.269 61.964C127.866 61.964 128.347 61.7447 128.711 61.306C129.075 60.858 129.257 60.27 129.257 59.542C129.257 58.8233 129.075 58.2447 128.711 57.806C128.347 57.3673 127.866 57.148 127.269 57.148C126.671 57.148 126.191 57.3673 125.827 57.806C125.463 58.2447 125.281 58.8233 125.281 59.542C125.281 60.27 125.463 60.858 125.827 61.306C126.191 61.7447 126.671 61.964 127.269 61.964ZM134.978 54.096C134.651 54.096 134.413 54.1753 134.264 54.334C134.115 54.4927 134.04 54.7633 134.04 55.146V56.098H135.174C135.333 56.098 135.454 56.14 135.538 56.224C135.622 56.308 135.664 56.4293 135.664 56.588V56.742C135.664 56.8913 135.622 57.0127 135.538 57.106C135.454 57.19 135.333 57.232 135.174 57.232H134.04V62.51C134.04 62.6593 133.998 62.7807 133.914 62.874C133.83 62.958 133.709 63 133.55 63H133.046C132.897 63 132.775 62.958 132.682 62.874C132.598 62.7807 132.556 62.6593 132.556 62.51V57.232H131.814C131.665 57.232 131.543 57.19 131.45 57.106C131.366 57.0127 131.324 56.8913 131.324 56.742V56.588C131.324 56.4293 131.366 56.308 131.45 56.224C131.543 56.14 131.665 56.098 131.814 56.098H132.556V55.048C132.556 54.3293 132.738 53.788 133.102 53.424C133.475 53.0507 134.012 52.864 134.712 52.864C135.029 52.864 135.351 52.8967 135.678 52.962C135.921 53.0273 136.042 53.1767 136.042 53.41C136.042 53.4753 136.037 53.5267 136.028 53.564L135.986 53.76C135.93 54.0027 135.748 54.124 135.44 54.124L135.272 54.11C135.207 54.1007 135.109 54.096 134.978 54.096ZM143.579 55.916C144.167 55.916 144.689 56.0653 145.147 56.364C145.613 56.6627 145.977 57.0873 146.239 57.638C146.5 58.1887 146.631 58.8233 146.631 59.542C146.631 60.27 146.5 60.9093 146.239 61.46C145.977 62.0107 145.613 62.4353 145.147 62.734C144.68 63.0327 144.157 63.182 143.579 63.182C142.543 63.182 141.782 62.7947 141.297 62.02V62.51C141.297 62.6593 141.255 62.7807 141.171 62.874C141.087 62.958 140.965 63 140.807 63H140.401C140.251 63 140.13 62.958 140.037 62.874C139.953 62.7807 139.911 62.6593 139.911 62.51V53.55C139.911 53.3913 139.953 53.27 140.037 53.186C140.13 53.102 140.251 53.06 140.401 53.06H140.905C141.063 53.06 141.185 53.102 141.269 53.186C141.353 53.27 141.395 53.3913 141.395 53.55V56.966C141.889 56.266 142.617 55.916 143.579 55.916ZM143.271 61.894C143.831 61.894 144.279 61.684 144.615 61.264C144.951 60.8347 145.119 60.2607 145.119 59.542C145.119 58.8327 144.951 58.2633 144.615 57.834C144.288 57.4047 143.845 57.19 143.285 57.19C142.715 57.19 142.249 57.4047 141.885 57.834C141.521 58.254 141.339 58.8233 141.339 59.542C141.339 60.2793 141.521 60.858 141.885 61.278C142.249 61.6887 142.711 61.894 143.271 61.894ZM153.001 61.236C153.122 61.1333 153.239 61.082 153.351 61.082C153.463 61.082 153.58 61.1427 153.701 61.264L153.897 61.474C154 61.5953 154.051 61.712 154.051 61.824C154.051 61.9453 153.99 62.062 153.869 62.174C153.44 62.5473 153.01 62.8133 152.581 62.972C152.161 63.1307 151.694 63.21 151.181 63.21C150.462 63.21 149.837 63.0607 149.305 62.762C148.782 62.4633 148.376 62.0433 148.087 61.502C147.807 60.9513 147.667 60.3167 147.667 59.598C147.667 58.8887 147.802 58.254 148.073 57.694C148.353 57.1247 148.745 56.6813 149.249 56.364C149.762 56.0467 150.36 55.888 151.041 55.888C152.058 55.888 152.842 56.1913 153.393 56.798C153.944 57.3953 154.219 58.2213 154.219 59.276V59.402C154.21 59.5513 154.163 59.668 154.079 59.752C153.995 59.836 153.874 59.878 153.715 59.878H149.123C149.179 60.494 149.38 60.998 149.725 61.39C150.08 61.7727 150.574 61.964 151.209 61.964C151.554 61.964 151.858 61.9127 152.119 61.81C152.38 61.698 152.674 61.5067 153.001 61.236ZM151.013 57.064C150.5 57.064 150.084 57.218 149.767 57.526C149.459 57.8247 149.258 58.2493 149.165 58.8H152.763C152.726 58.2587 152.558 57.834 152.259 57.526C151.96 57.218 151.545 57.064 151.013 57.064ZM160.464 53.536C160.464 53.3773 160.506 53.256 160.59 53.172C160.683 53.088 160.805 53.046 160.954 53.046H161.458C161.617 53.046 161.738 53.088 161.822 53.172C161.906 53.256 161.948 53.3773 161.948 53.536V62.51C161.948 62.6593 161.906 62.7807 161.822 62.874C161.738 62.958 161.617 63 161.458 63H161.052C160.903 63 160.781 62.958 160.688 62.874C160.604 62.7807 160.562 62.6593 160.562 62.51V62.02C160.077 62.804 159.316 63.196 158.28 63.196C157.701 63.196 157.179 63.0467 156.712 62.748C156.255 62.4493 155.895 62.0247 155.634 61.474C155.373 60.9233 155.242 60.284 155.242 59.556C155.242 58.8373 155.373 58.2027 155.634 57.652C155.905 57.1013 156.273 56.6767 156.74 56.378C157.207 56.0793 157.729 55.93 158.308 55.93C159.26 55.93 159.979 56.2613 160.464 56.924V53.536ZM158.588 61.922C159.157 61.922 159.624 61.712 159.988 61.292C160.352 60.8627 160.534 60.284 160.534 59.556C160.534 58.828 160.352 58.254 159.988 57.834C159.624 57.414 159.157 57.204 158.588 57.204C158.037 57.204 157.594 57.4187 157.258 57.848C156.922 58.2773 156.754 58.8467 156.754 59.556C156.754 60.2747 156.917 60.8487 157.244 61.278C157.58 61.7073 158.028 61.922 158.588 61.922ZM166.78 56.028C166.986 56.028 167.196 56.0513 167.41 56.098C167.662 56.154 167.788 56.3033 167.788 56.546C167.788 56.6113 167.784 56.658 167.774 56.686L167.704 57.022C167.648 57.2833 167.508 57.414 167.284 57.414L167.158 57.4C166.99 57.372 166.841 57.358 166.71 57.358C166.244 57.358 165.866 57.5447 165.576 57.918C165.296 58.282 165.156 58.7907 165.156 59.444V62.51C165.156 62.6593 165.114 62.7807 165.03 62.874C164.946 62.958 164.825 63 164.666 63H164.162C164.013 63 163.892 62.958 163.798 62.874C163.714 62.7807 163.672 62.6593 163.672 62.51V56.588C163.672 56.4293 163.714 56.308 163.798 56.224C163.892 56.14 164.013 56.098 164.162 56.098H164.568C164.727 56.098 164.848 56.14 164.932 56.224C165.016 56.308 165.058 56.4293 165.058 56.588V57.134C165.226 56.7887 165.455 56.518 165.744 56.322C166.034 56.126 166.379 56.028 166.78 56.028ZM171.648 63.21C170.966 63.21 170.36 63.056 169.828 62.748C169.305 62.44 168.894 62.0107 168.596 61.46C168.297 60.9 168.148 60.2607 168.148 59.542C168.148 58.8233 168.297 58.1887 168.596 57.638C168.894 57.0873 169.305 56.658 169.828 56.35C170.36 56.042 170.966 55.888 171.648 55.888C172.32 55.888 172.922 56.042 173.454 56.35C173.986 56.658 174.401 57.092 174.7 57.652C174.998 58.2027 175.148 58.8327 175.148 59.542C175.148 60.2607 174.998 60.9 174.7 61.46C174.401 62.0107 173.986 62.44 173.454 62.748C172.922 63.056 172.32 63.21 171.648 63.21ZM171.648 61.964C172.245 61.964 172.726 61.7447 173.09 61.306C173.454 60.858 173.636 60.27 173.636 59.542C173.636 58.8233 173.454 58.2447 173.09 57.806C172.726 57.3673 172.245 57.148 171.648 57.148C171.05 57.148 170.57 57.3673 170.206 57.806C169.842 58.2447 169.66 58.8233 169.66 59.542C169.66 60.27 169.842 60.858 170.206 61.306C170.57 61.7447 171.05 61.964 171.648 61.964ZM179.646 63.21C178.964 63.21 178.358 63.056 177.826 62.748C177.303 62.44 176.892 62.0107 176.594 61.46C176.295 60.9 176.146 60.2607 176.146 59.542C176.146 58.8233 176.295 58.1887 176.594 57.638C176.892 57.0873 177.303 56.658 177.826 56.35C178.358 56.042 178.964 55.888 179.646 55.888C180.318 55.888 180.92 56.042 181.452 56.35C181.984 56.658 182.399 57.092 182.698 57.652C182.996 58.2027 183.146 58.8327 183.146 59.542C183.146 60.2607 182.996 60.9 182.698 61.46C182.399 62.0107 181.984 62.44 181.452 62.748C180.92 63.056 180.318 63.21 179.646 63.21ZM179.646 61.964C180.243 61.964 180.724 61.7447 181.088 61.306C181.452 60.858 181.634 60.27 181.634 59.542C181.634 58.8233 181.452 58.2447 181.088 57.806C180.724 57.3673 180.243 57.148 179.646 57.148C179.048 57.148 178.568 57.3673 178.204 57.806C177.84 58.2447 177.658 58.8233 177.658 59.542C177.658 60.27 177.84 60.858 178.204 61.306C178.568 61.7447 179.048 61.964 179.646 61.964ZM191.86 55.888C192.597 55.888 193.166 56.098 193.568 56.518C193.969 56.9287 194.17 57.484 194.17 58.184V62.51C194.17 62.6593 194.128 62.7807 194.044 62.874C193.96 62.958 193.838 63 193.68 63H193.176C193.026 63 192.905 62.958 192.812 62.874C192.728 62.7807 192.686 62.6593 192.686 62.51V58.632C192.686 58.1747 192.583 57.8153 192.378 57.554C192.172 57.2927 191.86 57.162 191.44 57.162C191.01 57.162 190.67 57.3067 190.418 57.596C190.175 57.8853 190.054 58.2587 190.054 58.716V62.51C190.054 62.6593 190.012 62.7807 189.928 62.874C189.844 62.958 189.722 63 189.564 63H189.06C188.91 63 188.789 62.958 188.696 62.874C188.612 62.7807 188.57 62.6593 188.57 62.51V58.632C188.57 58.1747 188.467 57.8153 188.262 57.554C188.066 57.2927 187.758 57.162 187.338 57.162C186.927 57.162 186.596 57.2973 186.344 57.568C186.092 57.8387 185.956 58.1887 185.938 58.618V62.51C185.938 62.6593 185.896 62.7807 185.812 62.874C185.728 62.958 185.606 63 185.448 63H184.944C184.794 63 184.673 62.958 184.58 62.874C184.496 62.7807 184.454 62.6593 184.454 62.51V56.588C184.454 56.4293 184.496 56.308 184.58 56.224C184.673 56.14 184.794 56.098 184.944 56.098H185.35C185.508 56.098 185.63 56.14 185.714 56.224C185.798 56.308 185.84 56.4293 185.84 56.588V56.896C186.269 56.224 186.932 55.888 187.828 55.888C188.276 55.888 188.668 55.9813 189.004 56.168C189.34 56.3547 189.596 56.616 189.774 56.952C190.25 56.2427 190.945 55.888 191.86 55.888ZM198.53 63.21C197.96 63.21 197.452 63.14 197.004 63C196.565 62.8507 196.117 62.594 195.66 62.23C195.52 62.1273 195.45 62.0107 195.45 61.88C195.45 61.7773 195.501 61.6653 195.604 61.544L195.814 61.306C195.926 61.1753 196.047 61.11 196.178 61.11C196.28 61.11 196.392 61.1567 196.514 61.25C196.906 61.5393 197.251 61.74 197.55 61.852C197.848 61.9547 198.184 62.006 198.558 62.006C198.959 62.006 199.286 61.9267 199.538 61.768C199.799 61.6 199.93 61.376 199.93 61.096C199.93 60.8813 199.855 60.7133 199.706 60.592C199.566 60.4613 199.379 60.3633 199.146 60.298C198.912 60.2233 198.567 60.1393 198.11 60.046C197.466 59.906 196.962 59.7567 196.598 59.598C196.243 59.43 195.986 59.22 195.828 58.968C195.669 58.716 195.59 58.394 195.59 58.002C195.59 57.6007 195.702 57.2413 195.926 56.924C196.159 56.6067 196.481 56.3547 196.892 56.168C197.312 55.9813 197.802 55.888 198.362 55.888C198.866 55.888 199.314 55.944 199.706 56.056C200.107 56.168 200.499 56.3593 200.882 56.63C201.031 56.742 201.106 56.868 201.106 57.008C201.106 57.1013 201.059 57.2087 200.966 57.33L200.784 57.554C200.681 57.6847 200.555 57.75 200.406 57.75C200.294 57.75 200.186 57.7127 200.084 57.638C199.776 57.4327 199.491 57.2927 199.23 57.218C198.968 57.134 198.674 57.092 198.348 57.092C197.946 57.092 197.624 57.1713 197.382 57.33C197.139 57.4887 197.018 57.694 197.018 57.946C197.018 58.114 197.074 58.2493 197.186 58.352C197.307 58.4453 197.475 58.5293 197.69 58.604C197.914 58.6693 198.264 58.7533 198.74 58.856C199.384 58.996 199.892 59.1547 200.266 59.332C200.648 59.5 200.928 59.7193 201.106 59.99C201.292 60.2513 201.386 60.592 201.386 61.012C201.386 61.6653 201.124 62.1973 200.602 62.608C200.088 63.0093 199.398 63.21 198.53 63.21Z" fill="#464646"/>
<rect x="70.5" y="71.5" width="202" height="47" rx="3.5" fill="white"/>
<g clip-path="url(#clip0_899_70308)">
<path d="M82.992 92.672C83.728 92.672 84.3733 92.8267 84.928 93.136C85.4933 93.4347 85.9307 93.8613 86.24 94.416C86.5493 94.9707 86.704 95.6107 86.704 96.336C86.704 96.9867 86.5493 97.6107 86.24 98.208C85.9307 98.8053 85.4827 99.2907 84.896 99.664C84.3093 100.037 83.6213 100.224 82.832 100.224C82.064 100.224 81.3973 100.128 80.832 99.936C80.2773 99.744 79.648 99.4133 78.944 98.944C78.8373 98.88 78.784 98.7947 78.784 98.688C78.784 98.6133 78.8053 98.5493 78.848 98.496L79.056 98.208C79.12 98.112 79.1947 98.064 79.28 98.064C79.344 98.064 79.4187 98.0907 79.504 98.144C80.1547 98.5813 80.7093 98.8853 81.168 99.056C81.6373 99.2267 82.1547 99.312 82.72 99.312C83.3173 99.312 83.8347 99.1787 84.272 98.912C84.7093 98.6347 85.04 98.272 85.264 97.824C85.4987 97.3653 85.616 96.8693 85.616 96.336C85.616 95.4827 85.376 94.816 84.896 94.336C84.4267 93.856 83.7493 93.616 82.864 93.616C81.9147 93.616 81.12 93.904 80.48 94.48C80.3627 94.5867 80.224 94.6293 80.064 94.608L79.712 94.56C79.616 94.5493 79.5413 94.512 79.488 94.448C79.4347 94.384 79.4133 94.304 79.424 94.208L79.856 88.944C79.8667 88.848 79.8987 88.7733 79.952 88.72C80.016 88.6667 80.096 88.64 80.192 88.64H85.888C86.1013 88.64 86.208 88.7467 86.208 88.96V89.248C86.208 89.4613 86.1013 89.568 85.888 89.568H80.8L80.464 93.504C80.7627 93.2587 81.1253 93.0613 81.552 92.912C81.9893 92.752 82.4693 92.672 82.992 92.672Z" fill="#464646"/>
</g>
<rect x="70.5" y="71.5" width="202" height="47" rx="3.5" stroke="#C3CCD9"/>
<defs>
<clipPath id="clip0_899_70308">
<rect width="187" height="22" fill="white" transform="translate(78 84)"/>
</clipPath>
</defs>
</svg>
