<svg width="344" height="170" viewBox="0 0 344 170" fill="none" xmlns="http://www.w3.org/2000/svg">
<path d="M71.568 54C71.4187 54 71.2973 53.958 71.204 53.874C71.12 53.7807 71.078 53.6593 71.078 53.51V44.55C71.078 44.3913 71.12 44.27 71.204 44.186C71.2973 44.102 71.4187 44.06 71.568 44.06H77.378C77.5367 44.06 77.658 44.102 77.742 44.186C77.826 44.27 77.868 44.3913 77.868 44.55V44.914C77.868 45.0633 77.826 45.1847 77.742 45.278C77.658 45.362 77.5367 45.404 77.378 45.404H72.674V48.204H77.028C77.1867 48.204 77.308 48.246 77.392 48.33C77.476 48.414 77.518 48.5353 77.518 48.694V49.058C77.518 49.2073 77.476 49.3287 77.392 49.422C77.308 49.506 77.1867 49.548 77.028 49.548H72.674V52.656H77.518C77.6767 52.656 77.798 52.698 77.882 52.782C77.966 52.866 78.008 52.9873 78.008 53.146V53.51C78.008 53.6593 77.966 53.7807 77.882 53.874C77.798 53.958 77.6767 54 77.518 54H71.568ZM86.9143 46.888C87.6516 46.888 88.221 47.098 88.6223 47.518C89.0236 47.9287 89.2243 48.484 89.2243 49.184V53.51C89.2243 53.6593 89.1823 53.7807 89.0983 53.874C89.0143 53.958 88.893 54 88.7343 54H88.2303C88.081 54 87.9596 53.958 87.8663 53.874C87.7823 53.7807 87.7403 53.6593 87.7403 53.51V49.632C87.7403 49.1747 87.6376 48.8153 87.4323 48.554C87.227 48.2927 86.9143 48.162 86.4943 48.162C86.065 48.162 85.7243 48.3067 85.4723 48.596C85.2296 48.8853 85.1083 49.2587 85.1083 49.716V53.51C85.1083 53.6593 85.0663 53.7807 84.9823 53.874C84.8983 53.958 84.777 54 84.6183 54H84.1143C83.965 54 83.8436 53.958 83.7503 53.874C83.6663 53.7807 83.6243 53.6593 83.6243 53.51V49.632C83.6243 49.1747 83.5216 48.8153 83.3163 48.554C83.1203 48.2927 82.8123 48.162 82.3923 48.162C81.9816 48.162 81.6503 48.2973 81.3983 48.568C81.1463 48.8387 81.011 49.1887 80.9923 49.618V53.51C80.9923 53.6593 80.9503 53.7807 80.8663 53.874C80.7823 53.958 80.661 54 80.5023 54H79.9983C79.849 54 79.7276 53.958 79.6343 53.874C79.5503 53.7807 79.5083 53.6593 79.5083 53.51V47.588C79.5083 47.4293 79.5503 47.308 79.6343 47.224C79.7276 47.14 79.849 47.098 79.9983 47.098H80.4043C80.563 47.098 80.6843 47.14 80.7683 47.224C80.8523 47.308 80.8943 47.4293 80.8943 47.588V47.896C81.3236 47.224 81.9863 46.888 82.8823 46.888C83.3303 46.888 83.7223 46.9813 84.0583 47.168C84.3943 47.3547 84.651 47.616 84.8283 47.952C85.3043 47.2427 85.9996 46.888 86.9143 46.888ZM93.8363 46.888C94.7696 46.888 95.4883 47.1073 95.9923 47.546C96.4963 47.9753 96.7483 48.5493 96.7483 49.268V53.51C96.7483 53.6593 96.7063 53.7807 96.6223 53.874C96.5383 53.958 96.417 54 96.2583 54H95.8943C95.745 54 95.6236 53.958 95.5303 53.874C95.4463 53.7807 95.4043 53.6593 95.4043 53.51V53.202C95.1803 53.5287 94.8723 53.7807 94.4803 53.958C94.0883 54.1353 93.631 54.224 93.1083 54.224C92.3896 54.224 91.797 54.0653 91.3303 53.748C90.873 53.4213 90.6443 52.9313 90.6443 52.278C90.6443 51.55 90.915 51.0133 91.4563 50.668C92.007 50.3133 92.7676 50.0473 93.7383 49.87L95.3203 49.576V49.324C95.3203 48.9413 95.185 48.6473 94.9143 48.442C94.653 48.2273 94.303 48.12 93.8643 48.12C93.491 48.12 93.1643 48.1853 92.8843 48.316C92.6136 48.4373 92.3196 48.6427 92.0023 48.932C91.881 49.0347 91.7643 49.086 91.6523 49.086C91.5403 49.086 91.4236 49.0347 91.3023 48.932L91.0783 48.736C90.957 48.624 90.8963 48.5027 90.8963 48.372C90.8963 48.2507 90.9523 48.134 91.0643 48.022C91.4656 47.6393 91.8903 47.3547 92.3383 47.168C92.7863 46.9813 93.2856 46.888 93.8363 46.888ZM93.3183 53.034C93.8783 53.034 94.3496 52.8847 94.7323 52.586C95.1243 52.2873 95.3203 51.858 95.3203 51.298V50.654L94.1023 50.906C93.421 51.046 92.917 51.2047 92.5903 51.382C92.2636 51.5593 92.1003 51.83 92.1003 52.194C92.1003 52.4553 92.2076 52.6607 92.4223 52.81C92.637 52.9593 92.9356 53.034 93.3183 53.034ZM99.1998 45.754C98.9292 45.754 98.7005 45.6653 98.5138 45.488C98.3272 45.3013 98.2338 45.082 98.2338 44.83C98.2338 44.5687 98.3272 44.3493 98.5138 44.172C98.7005 43.9947 98.9292 43.906 99.1998 43.906C99.4705 43.906 99.6992 43.9947 99.8858 44.172C100.073 44.3493 100.166 44.5687 100.166 44.83C100.166 45.082 100.073 45.3013 99.8858 45.488C99.6992 45.6653 99.4705 45.754 99.1998 45.754ZM98.9338 54C98.7845 54 98.6632 53.958 98.5698 53.874C98.4858 53.7807 98.4438 53.6593 98.4438 53.51V47.588C98.4438 47.4293 98.4858 47.308 98.5698 47.224C98.6632 47.14 98.7845 47.098 98.9338 47.098H99.4378C99.5965 47.098 99.7178 47.14 99.8018 47.224C99.8858 47.308 99.9278 47.4293 99.9278 47.588V53.51C99.9278 53.6593 99.8858 53.7807 99.8018 53.874C99.7178 53.958 99.5965 54 99.4378 54H98.9338ZM102.189 54C102.04 54 101.918 53.958 101.825 53.874C101.741 53.7807 101.699 53.6593 101.699 53.51V44.55C101.699 44.3913 101.741 44.27 101.825 44.186C101.918 44.102 102.04 44.06 102.189 44.06H102.693C102.852 44.06 102.973 44.102 103.057 44.186C103.141 44.27 103.183 44.3913 103.183 44.55V53.51C103.183 53.6593 103.141 53.7807 103.057 53.874C102.973 53.958 102.852 54 102.693 54H102.189Z" fill="#D91F0A"/>
<rect x="70.5" y="62.5" width="202" height="47" rx="3.5" fill="white"/>
<g clip-path="url(#clip0_899_44583)">
<path d="M82.96 82.936C83.6213 82.936 84.2133 83.112 84.736 83.464C85.2693 83.8053 85.6853 84.2907 85.984 84.92C86.2827 85.5387 86.432 86.248 86.432 87.048C86.432 87.8587 86.2827 88.5787 85.984 89.208C85.6853 89.8373 85.2747 90.328 84.752 90.68C84.2293 91.0213 83.632 91.192 82.96 91.192C81.7227 91.192 80.816 90.7387 80.24 89.832V93.624C80.24 93.8373 80.1333 93.944 79.92 93.944H79.504C79.2907 93.944 79.184 93.8373 79.184 93.624V83.432C79.184 83.2187 79.2907 83.112 79.504 83.112H79.856C80.0693 83.112 80.176 83.2187 80.176 83.432V84.44C80.464 83.9493 80.8427 83.576 81.312 83.32C81.7813 83.064 82.3307 82.936 82.96 82.936ZM82.88 90.296C83.6267 90.296 84.224 89.9973 84.672 89.4C85.12 88.8027 85.344 88.0187 85.344 87.048C85.344 86.088 85.12 85.3147 84.672 84.728C84.224 84.1307 83.6267 83.832 82.88 83.832C82.08 83.832 81.4293 84.12 80.928 84.696C80.4373 85.2613 80.192 86.0453 80.192 87.048C80.192 88.0507 80.4427 88.8453 80.944 89.432C81.4453 90.008 82.0907 90.296 82.88 90.296ZM93.429 83.432C93.429 83.2187 93.5357 83.112 93.749 83.112H94.165C94.3783 83.112 94.485 83.2187 94.485 83.432V90.68C94.485 90.8933 94.3783 91 94.165 91H93.829C93.6157 91 93.509 90.8933 93.509 90.68V89.96C93.2743 90.376 92.9383 90.6907 92.501 90.904C92.0743 91.1067 91.605 91.208 91.093 91.208C90.133 91.208 89.4237 90.968 88.965 90.488C88.5063 89.9973 88.277 89.368 88.277 88.6V83.432C88.277 83.2187 88.3837 83.112 88.597 83.112H89.013C89.2263 83.112 89.333 83.2187 89.333 83.432V88.376C89.333 89.0053 89.4877 89.4853 89.797 89.816C90.117 90.136 90.5703 90.296 91.157 90.296C91.8183 90.296 92.3623 90.0933 92.789 89.688C93.2157 89.2827 93.429 88.7067 93.429 87.96V83.432ZM99.6079 91.208C98.9572 91.208 98.3812 91.1173 97.8799 90.936C97.3892 90.744 96.8719 90.424 96.3279 89.976C96.2319 89.912 96.1839 89.8373 96.1839 89.752C96.1839 89.6773 96.2212 89.6027 96.2959 89.528L96.5039 89.304C96.5679 89.2187 96.6479 89.176 96.7439 89.176C96.8185 89.176 96.8879 89.208 96.9519 89.272C97.4639 89.6667 97.9172 89.944 98.3119 90.104C98.7065 90.2533 99.1385 90.328 99.6079 90.328C100.195 90.328 100.675 90.2 101.048 89.944C101.421 89.6773 101.608 89.32 101.608 88.872C101.608 88.424 101.416 88.0933 101.032 87.88C100.648 87.6667 100.056 87.4747 99.2559 87.304C98.5519 87.1547 97.9972 87 97.5919 86.84C97.1972 86.6693 96.9039 86.456 96.7119 86.2C96.5199 85.944 96.4239 85.608 96.4239 85.192C96.4239 84.5093 96.7012 83.96 97.2559 83.544C97.8105 83.128 98.5092 82.92 99.3519 82.92C99.9279 82.92 100.44 82.9947 100.888 83.144C101.347 83.2827 101.805 83.5173 102.264 83.848C102.36 83.9227 102.408 84.0027 102.408 84.088C102.408 84.1413 102.381 84.2107 102.328 84.296L102.136 84.536C102.083 84.6213 102.008 84.664 101.912 84.664C101.827 84.664 101.752 84.6373 101.688 84.584C101.251 84.2747 100.861 84.0667 100.52 83.96C100.189 83.8533 99.8105 83.8 99.3839 83.8C98.7972 83.8 98.3279 83.928 97.9759 84.184C97.6239 84.44 97.4479 84.7653 97.4479 85.16C97.4479 85.4053 97.5279 85.6027 97.6879 85.752C97.8479 85.9013 98.0772 86.0293 98.3759 86.136C98.6745 86.232 99.1119 86.344 99.6879 86.472C100.755 86.7067 101.512 86.9947 101.96 87.336C102.419 87.6773 102.648 88.1733 102.648 88.824C102.648 89.5387 102.365 90.1147 101.8 90.552C101.235 90.9893 100.504 91.208 99.6079 91.208ZM110.178 89.128C110.253 89.0533 110.333 89.016 110.418 89.016C110.493 89.016 110.562 89.048 110.626 89.112L110.834 89.304C110.909 89.3787 110.946 89.4587 110.946 89.544C110.946 89.608 110.914 89.6827 110.85 89.768C110.327 90.2907 109.821 90.664 109.33 90.888C108.839 91.1013 108.29 91.208 107.682 91.208C106.914 91.208 106.247 91.0373 105.682 90.696C105.117 90.3547 104.679 89.88 104.37 89.272C104.061 88.6533 103.906 87.9387 103.906 87.128C103.906 86.3067 104.055 85.5813 104.354 84.952C104.663 84.312 105.095 83.816 105.65 83.464C106.205 83.1013 106.845 82.92 107.57 82.92C108.647 82.92 109.495 83.256 110.114 83.928C110.733 84.6 111.042 85.5067 111.042 86.648V86.84C111.031 86.936 110.994 87.0107 110.93 87.064C110.877 87.1173 110.802 87.144 110.706 87.144H104.978C105.01 88.04 105.245 88.7973 105.682 89.416C106.13 90.024 106.797 90.328 107.682 90.328C108.162 90.328 108.583 90.2427 108.946 90.072C109.319 89.8907 109.73 89.576 110.178 89.128ZM107.57 83.8C106.866 83.8 106.285 84.0187 105.826 84.456C105.378 84.8827 105.106 85.512 105.01 86.344H109.986C109.965 85.5653 109.741 84.9467 109.314 84.488C108.887 84.0293 108.306 83.8 107.57 83.8ZM115.926 80.328C115.446 80.328 115.105 80.456 114.902 80.712C114.7 80.9573 114.598 81.3733 114.598 81.96V83.112H116.358C116.572 83.112 116.678 83.2187 116.678 83.432V83.592C116.678 83.8053 116.572 83.912 116.358 83.912H114.598V90.68C114.598 90.8933 114.492 91 114.278 91H113.862C113.649 91 113.542 90.8933 113.542 90.68V83.912H112.358C112.145 83.912 112.038 83.8053 112.038 83.592V83.432C112.038 83.2187 112.145 83.112 112.358 83.112H113.542V81.784C113.542 81.048 113.734 80.472 114.118 80.056C114.513 79.64 115.073 79.432 115.798 79.432C116.204 79.432 116.62 79.4907 117.046 79.608C117.249 79.672 117.324 79.8053 117.27 80.008L117.206 80.232C117.153 80.3813 117.046 80.456 116.886 80.456C116.854 80.456 116.785 80.4453 116.678 80.424C116.444 80.36 116.193 80.328 115.926 80.328ZM118.759 81.112C118.546 81.112 118.364 81.0373 118.215 80.888C118.076 80.7387 118.007 80.5573 118.007 80.344C118.007 80.1307 118.076 79.9547 118.215 79.816C118.364 79.6773 118.546 79.608 118.759 79.608C118.983 79.608 119.164 79.6773 119.303 79.816C119.452 79.9547 119.527 80.1307 119.527 80.344C119.527 80.5573 119.452 80.7387 119.303 80.888C119.164 81.0373 118.983 81.112 118.759 81.112ZM118.551 91C118.338 91 118.231 90.8933 118.231 90.68V83.432C118.231 83.2187 118.338 83.112 118.551 83.112H118.967C119.18 83.112 119.287 83.2187 119.287 83.432V90.68C119.287 90.8933 119.18 91 118.967 91H118.551ZM125.157 82.92C126.085 82.92 126.784 83.176 127.253 83.688C127.733 84.2 127.973 84.84 127.973 85.608V90.68C127.973 90.8933 127.866 91 127.653 91H127.237C127.024 91 126.917 90.8933 126.917 90.68V85.96C126.917 85.256 126.746 84.7227 126.405 84.36C126.064 83.9973 125.573 83.816 124.933 83.816C124.528 83.816 124.154 83.9173 123.813 84.12C123.472 84.312 123.2 84.5787 122.997 84.92C122.794 85.2613 122.693 85.6347 122.693 86.04V90.68C122.693 90.8933 122.586 91 122.373 91H121.957C121.744 91 121.637 90.8933 121.637 90.68V83.432C121.637 83.2187 121.744 83.112 121.957 83.112H122.309C122.522 83.112 122.629 83.2187 122.629 83.432V84.2C122.896 83.7733 123.248 83.4533 123.685 83.24C124.122 83.0267 124.613 82.92 125.157 82.92ZM133.829 82.92C134.757 82.92 135.456 83.176 135.925 83.688C136.405 84.2 136.645 84.84 136.645 85.608V90.68C136.645 90.8933 136.538 91 136.325 91H135.909C135.696 91 135.589 90.8933 135.589 90.68V85.96C135.589 85.256 135.418 84.7227 135.077 84.36C134.736 83.9973 134.245 83.816 133.605 83.816C133.2 83.816 132.826 83.9173 132.485 84.12C132.144 84.312 131.872 84.5787 131.669 84.92C131.466 85.2613 131.365 85.6347 131.365 86.04V90.68C131.365 90.8933 131.258 91 131.045 91H130.629C130.416 91 130.309 90.8933 130.309 90.68V83.432C130.309 83.2187 130.416 83.112 130.629 83.112H130.981C131.194 83.112 131.301 83.2187 131.301 83.432V84.2C131.568 83.7733 131.92 83.4533 132.357 83.24C132.794 83.0267 133.285 82.92 133.829 82.92ZM148.341 83.8C148.448 83.8 148.522 83.832 148.565 83.896C148.618 83.96 148.634 84.0453 148.613 84.152L147.813 87.976C147.738 88.296 147.701 88.5733 147.701 88.808C147.701 89.6293 148.106 90.04 148.917 90.04C149.312 90.04 149.674 89.9067 150.005 89.64C150.336 89.3627 150.597 88.968 150.789 88.456C150.981 87.944 151.077 87.3413 151.077 86.648C151.077 85.4533 150.821 84.44 150.309 83.608C149.797 82.7653 149.114 82.1307 148.261 81.704C147.418 81.2773 146.485 81.064 145.461 81.064C144.288 81.064 143.248 81.3413 142.341 81.896C141.434 82.44 140.73 83.192 140.229 84.152C139.728 85.1013 139.477 86.1627 139.477 87.336C139.477 88.4773 139.717 89.5013 140.197 90.408C140.677 91.304 141.386 92.008 142.325 92.52C143.264 93.0427 144.394 93.304 145.717 93.304H148.805C149.018 93.304 149.125 93.4107 149.125 93.624V93.72C149.125 93.9333 149.018 94.04 148.805 94.04H145.477C144.069 94.04 142.842 93.752 141.797 93.176C140.762 92.6107 139.968 91.8213 139.413 90.808C138.869 89.784 138.597 88.616 138.597 87.304C138.597 85.9707 138.874 84.776 139.429 83.72C139.984 82.6533 140.778 81.8213 141.813 81.224C142.848 80.616 144.048 80.312 145.413 80.312C146.682 80.312 147.813 80.5733 148.805 81.096C149.797 81.608 150.57 82.3387 151.125 83.288C151.68 84.2373 151.957 85.3413 151.957 86.6C151.957 87.4427 151.824 88.1787 151.557 88.808C151.29 89.4373 150.922 89.928 150.453 90.28C149.984 90.6213 149.45 90.792 148.853 90.792C148.17 90.792 147.674 90.6267 147.365 90.296C147.066 89.9547 146.901 89.5707 146.869 89.144C146.528 89.6773 146.133 90.088 145.685 90.376C145.237 90.6533 144.704 90.792 144.085 90.792C143.381 90.792 142.826 90.584 142.421 90.168C142.016 89.7413 141.813 89.1493 141.813 88.392C141.813 87.6453 141.968 86.9093 142.277 86.184C142.597 85.448 143.045 84.8453 143.621 84.376C144.197 83.9067 144.853 83.672 145.589 83.672C146.144 83.672 146.586 83.7947 146.917 84.04C147.258 84.2747 147.472 84.5947 147.557 85L147.733 84.088C147.765 83.896 147.882 83.8 148.085 83.8H148.341ZM144.213 89.976C144.842 89.976 145.37 89.7573 145.797 89.32C146.234 88.872 146.56 88.344 146.773 87.736C146.986 87.1173 147.093 86.568 147.093 86.088C147.093 85.544 146.981 85.1387 146.757 84.872C146.533 84.5947 146.154 84.456 145.621 84.456C145.077 84.456 144.586 84.648 144.149 85.032C143.722 85.416 143.386 85.9067 143.141 86.504C142.906 87.1013 142.789 87.6987 142.789 88.296C142.789 88.8613 142.912 89.2827 143.157 89.56C143.413 89.8373 143.765 89.976 144.213 89.976ZM156.942 80.328C156.462 80.328 156.121 80.456 155.918 80.712C155.715 80.9573 155.614 81.3733 155.614 81.96V83.112H157.374C157.587 83.112 157.694 83.2187 157.694 83.432V83.592C157.694 83.8053 157.587 83.912 157.374 83.912H155.614V90.68C155.614 90.8933 155.507 91 155.294 91H154.878C154.665 91 154.558 90.8933 154.558 90.68V83.912H153.374C153.161 83.912 153.054 83.8053 153.054 83.592V83.432C153.054 83.2187 153.161 83.112 153.374 83.112H154.558V81.784C154.558 81.048 154.75 80.472 155.134 80.056C155.529 79.64 156.089 79.432 156.814 79.432C157.219 79.432 157.635 79.4907 158.062 79.608C158.265 79.672 158.339 79.8053 158.286 80.008L158.222 80.232C158.169 80.3813 158.062 80.456 157.902 80.456C157.87 80.456 157.801 80.4453 157.694 80.424C157.459 80.36 157.209 80.328 156.942 80.328ZM159.775 81.112C159.561 81.112 159.38 81.0373 159.231 80.888C159.092 80.7387 159.023 80.5573 159.023 80.344C159.023 80.1307 159.092 79.9547 159.231 79.816C159.38 79.6773 159.561 79.608 159.775 79.608C159.999 79.608 160.18 79.6773 160.319 79.816C160.468 79.9547 160.543 80.1307 160.543 80.344C160.543 80.5573 160.468 80.7387 160.319 80.888C160.18 81.0373 159.999 81.112 159.775 81.112ZM159.567 91C159.353 91 159.247 90.8933 159.247 90.68V83.432C159.247 83.2187 159.353 83.112 159.567 83.112H159.983C160.196 83.112 160.303 83.2187 160.303 83.432V90.68C160.303 90.8933 160.196 91 159.983 91H159.567ZM166.173 82.92C167.101 82.92 167.799 83.176 168.269 83.688C168.749 84.2 168.989 84.84 168.989 85.608V90.68C168.989 90.8933 168.882 91 168.669 91H168.253C168.039 91 167.933 90.8933 167.933 90.68V85.96C167.933 85.256 167.762 84.7227 167.421 84.36C167.079 83.9973 166.589 83.816 165.949 83.816C165.543 83.816 165.17 83.9173 164.829 84.12C164.487 84.312 164.215 84.5787 164.013 84.92C163.81 85.2613 163.709 85.6347 163.709 86.04V90.68C163.709 90.8933 163.602 91 163.389 91H162.973C162.759 91 162.653 90.8933 162.653 90.68V83.432C162.653 83.2187 162.759 83.112 162.973 83.112H163.325C163.538 83.112 163.645 83.2187 163.645 83.432V84.2C163.911 83.7733 164.263 83.4533 164.701 83.24C165.138 83.0267 165.629 82.92 166.173 82.92ZM174.845 82.92C175.773 82.92 176.471 83.176 176.941 83.688C177.421 84.2 177.661 84.84 177.661 85.608V90.68C177.661 90.8933 177.554 91 177.341 91H176.925C176.711 91 176.605 90.8933 176.605 90.68V85.96C176.605 85.256 176.434 84.7227 176.093 84.36C175.751 83.9973 175.261 83.816 174.621 83.816C174.215 83.816 173.842 83.9173 173.501 84.12C173.159 84.312 172.887 84.5787 172.685 84.92C172.482 85.2613 172.381 85.6347 172.381 86.04V90.68C172.381 90.8933 172.274 91 172.061 91H171.645C171.431 91 171.325 90.8933 171.325 90.68V83.432C171.325 83.2187 171.431 83.112 171.645 83.112H171.997C172.21 83.112 172.317 83.2187 172.317 83.432V84.2C172.583 83.7733 172.935 83.4533 173.373 83.24C173.81 83.0267 174.301 82.92 174.845 82.92Z" fill="#464646"/>
</g>
<rect x="70.5" y="62.5" width="202" height="47" rx="3.5" stroke="#D91F0A"/>
<path d="M74.512 126.18C73.704 126.18 73 125.992 72.4 125.616C71.8 125.232 71.34 124.704 71.02 124.032C70.7 123.36 70.54 122.596 70.54 121.74C70.54 120.884 70.7 120.12 71.02 119.448C71.34 118.776 71.8 118.252 72.4 117.876C73 117.492 73.704 117.3 74.512 117.3C75.32 117.3 76.024 117.492 76.624 117.876C77.224 118.252 77.684 118.776 78.004 119.448C78.324 120.12 78.484 120.884 78.484 121.74C78.484 122.596 78.324 123.36 78.004 124.032C77.684 124.704 77.224 125.232 76.624 125.616C76.024 125.992 75.32 126.18 74.512 126.18ZM74.512 125.448C75.128 125.448 75.672 125.292 76.144 124.98C76.616 124.66 76.98 124.22 77.236 123.66C77.5 123.092 77.632 122.452 77.632 121.74C77.632 121.028 77.5 120.392 77.236 119.832C76.98 119.264 76.616 118.824 76.144 118.512C75.672 118.192 75.128 118.032 74.512 118.032C73.896 118.032 73.352 118.192 72.88 118.512C72.408 118.824 72.04 119.264 71.776 119.832C71.52 120.392 71.392 121.028 71.392 121.74C71.392 122.452 71.52 123.092 71.776 123.66C72.04 124.22 72.408 124.66 72.88 124.98C73.352 125.292 73.896 125.448 74.512 125.448ZM82.5235 126.156C81.9715 126.156 81.4795 126.024 81.0475 125.76C80.6155 125.496 80.2795 125.132 80.0395 124.668C79.7995 124.196 79.6795 123.656 79.6795 123.048C79.6795 122.44 79.7995 121.904 80.0395 121.44C80.2795 120.968 80.6155 120.6 81.0475 120.336C81.4795 120.072 81.9715 119.94 82.5235 119.94C83.0755 119.94 83.5675 120.072 83.9995 120.336C84.4315 120.6 84.7675 120.968 85.0075 121.44C85.2475 121.904 85.3675 122.44 85.3675 123.048C85.3675 123.656 85.2475 124.196 85.0075 124.668C84.7675 125.132 84.4315 125.496 83.9995 125.76C83.5675 126.024 83.0755 126.156 82.5235 126.156ZM82.5235 125.496C83.1395 125.496 83.6315 125.272 83.9995 124.824C84.3675 124.368 84.5515 123.776 84.5515 123.048C84.5515 122.32 84.3675 121.732 83.9995 121.284C83.6315 120.828 83.1395 120.6 82.5235 120.6C81.9075 120.6 81.4155 120.828 81.0475 121.284C80.6795 121.732 80.4955 122.32 80.4955 123.048C80.4955 123.776 80.6795 124.368 81.0475 124.824C81.4155 125.272 81.9075 125.496 82.5235 125.496ZM89.5755 119.952C90.0715 119.952 90.5155 120.084 90.9075 120.348C91.3075 120.604 91.6195 120.968 91.8435 121.44C92.0675 121.904 92.1795 122.436 92.1795 123.036C92.1795 123.644 92.0675 124.184 91.8435 124.656C91.6195 125.128 91.3115 125.496 90.9195 125.76C90.5275 126.016 90.0795 126.144 89.5755 126.144C88.6475 126.144 87.9675 125.804 87.5355 125.124V127.968C87.5355 128.128 87.4555 128.208 87.2955 128.208H86.9835C86.8235 128.208 86.7435 128.128 86.7435 127.968V120.324C86.7435 120.164 86.8235 120.084 86.9835 120.084H87.2475C87.4075 120.084 87.4875 120.164 87.4875 120.324V121.08C87.7035 120.712 87.9875 120.432 88.3395 120.24C88.6915 120.048 89.1035 119.952 89.5755 119.952ZM89.5155 125.472C90.0755 125.472 90.5235 125.248 90.8595 124.8C91.1955 124.352 91.3635 123.764 91.3635 123.036C91.3635 122.316 91.1955 121.736 90.8595 121.296C90.5235 120.848 90.0755 120.624 89.5155 120.624C88.9155 120.624 88.4275 120.84 88.0515 121.272C87.6835 121.696 87.4995 122.284 87.4995 123.036C87.4995 123.788 87.6875 124.384 88.0635 124.824C88.4395 125.256 88.9235 125.472 89.5155 125.472ZM95.6512 126.156C95.1632 126.156 94.7312 126.088 94.3552 125.952C93.9872 125.808 93.5992 125.568 93.1912 125.232C93.1192 125.184 93.0832 125.128 93.0832 125.064C93.0832 125.008 93.1112 124.952 93.1672 124.896L93.3232 124.728C93.3712 124.664 93.4312 124.632 93.5032 124.632C93.5592 124.632 93.6112 124.656 93.6592 124.704C94.0432 125 94.3832 125.208 94.6792 125.328C94.9752 125.44 95.2992 125.496 95.6512 125.496C96.0912 125.496 96.4512 125.4 96.7312 125.208C97.0112 125.008 97.1512 124.74 97.1512 124.404C97.1512 124.068 97.0072 123.82 96.7192 123.66C96.4312 123.5 95.9872 123.356 95.3872 123.228C94.8592 123.116 94.4432 123 94.1392 122.88C93.8432 122.752 93.6232 122.592 93.4792 122.4C93.3352 122.208 93.2632 121.956 93.2632 121.644C93.2632 121.132 93.4712 120.72 93.8872 120.408C94.3032 120.096 94.8272 119.94 95.4592 119.94C95.8912 119.94 96.2752 119.996 96.6112 120.108C96.9552 120.212 97.2992 120.388 97.6432 120.636C97.7152 120.692 97.7512 120.752 97.7512 120.816C97.7512 120.856 97.7312 120.908 97.6912 120.972L97.5472 121.152C97.5072 121.216 97.4512 121.248 97.3792 121.248C97.3152 121.248 97.2592 121.228 97.2112 121.188C96.8832 120.956 96.5912 120.8 96.3352 120.72C96.0872 120.64 95.8032 120.6 95.4832 120.6C95.0432 120.6 94.6912 120.696 94.4272 120.888C94.1632 121.08 94.0312 121.324 94.0312 121.62C94.0312 121.804 94.0912 121.952 94.2112 122.064C94.3312 122.176 94.5032 122.272 94.7272 122.352C94.9512 122.424 95.2792 122.508 95.7112 122.604C96.5112 122.78 97.0792 122.996 97.4152 123.252C97.7592 123.508 97.9312 123.88 97.9312 124.368C97.9312 124.904 97.7192 125.336 97.2952 125.664C96.8712 125.992 96.3232 126.156 95.6512 126.156ZM100.027 123.708C99.9548 123.708 99.8948 123.688 99.8468 123.648C99.8068 123.608 99.7828 123.552 99.7748 123.48L99.6068 120.024V117.72C99.6068 117.56 99.6868 117.48 99.8468 117.48H100.219C100.379 117.48 100.459 117.56 100.459 117.72V120.024L100.291 123.48C100.283 123.552 100.255 123.608 100.207 123.648C100.167 123.688 100.111 123.708 100.039 123.708H100.027ZM100.015 126.084C99.8548 126.084 99.7148 126.024 99.5948 125.904C99.4748 125.784 99.4148 125.64 99.4148 125.472C99.4148 125.304 99.4748 125.16 99.5948 125.04C99.7148 124.92 99.8548 124.86 100.015 124.86C100.191 124.86 100.339 124.92 100.459 125.04C100.579 125.16 100.639 125.304 100.639 125.472C100.639 125.64 100.579 125.784 100.459 125.904C100.339 126.024 100.191 126.084 100.015 126.084ZM107.544 126C107.384 126 107.304 125.92 107.304 125.76V118.188H104.796C104.636 118.188 104.556 118.108 104.556 117.948V117.72C104.556 117.56 104.636 117.48 104.796 117.48H110.652C110.812 117.48 110.892 117.56 110.892 117.72V117.948C110.892 118.108 110.812 118.188 110.652 118.188H108.156V125.76C108.156 125.92 108.076 126 107.916 126H107.544ZM114.801 119.94C115.489 119.94 116.013 120.136 116.373 120.528C116.733 120.912 116.913 121.388 116.913 121.956V125.76C116.913 125.92 116.833 126 116.673 126H116.361C116.201 126 116.121 125.92 116.121 125.76V122.22C116.121 121.692 115.993 121.292 115.737 121.02C115.481 120.748 115.113 120.612 114.633 120.612C114.329 120.612 114.049 120.688 113.793 120.84C113.537 120.984 113.333 121.184 113.181 121.44C113.029 121.696 112.953 121.976 112.953 122.28V125.76C112.953 125.92 112.873 126 112.713 126H112.401C112.241 126 112.161 125.92 112.161 125.76V117.72C112.161 117.56 112.241 117.48 112.401 117.48H112.713C112.873 117.48 112.953 117.56 112.953 117.72V120.852C113.145 120.548 113.401 120.32 113.721 120.168C114.049 120.016 114.409 119.94 114.801 119.94ZM120.945 119.94C121.673 119.94 122.241 120.116 122.649 120.468C123.057 120.812 123.261 121.268 123.261 121.836V125.76C123.261 125.92 123.181 126 123.021 126H122.781C122.621 126 122.541 125.92 122.541 125.76V125.22C122.341 125.54 122.057 125.78 121.689 125.94C121.329 126.1 120.925 126.18 120.477 126.18C119.853 126.18 119.345 126.048 118.953 125.784C118.561 125.52 118.365 125.112 118.365 124.56C118.365 124.12 118.489 123.768 118.737 123.504C118.985 123.232 119.309 123.028 119.709 122.892C120.109 122.748 120.609 122.62 121.209 122.508L122.505 122.28V121.896C122.505 121.488 122.365 121.172 122.085 120.948C121.805 120.716 121.437 120.6 120.981 120.6C120.637 120.6 120.325 120.664 120.045 120.792C119.765 120.92 119.465 121.14 119.145 121.452C119.089 121.508 119.029 121.536 118.965 121.536C118.909 121.536 118.857 121.512 118.809 121.464L118.653 121.32C118.597 121.264 118.569 121.204 118.569 121.14C118.569 121.068 118.597 121.004 118.653 120.948C118.989 120.596 119.341 120.34 119.709 120.18C120.085 120.02 120.497 119.94 120.945 119.94ZM120.513 125.52C121.089 125.52 121.565 125.368 121.941 125.064C122.317 124.76 122.505 124.372 122.505 123.9V122.892L121.389 123.108C120.869 123.212 120.457 123.312 120.153 123.408C119.849 123.504 119.605 123.644 119.421 123.828C119.237 124.012 119.145 124.252 119.145 124.548C119.145 124.852 119.265 125.092 119.505 125.268C119.753 125.436 120.089 125.52 120.513 125.52ZM127.517 125.34C127.541 125.332 127.573 125.328 127.613 125.328C127.661 125.328 127.705 125.344 127.745 125.376C127.785 125.408 127.809 125.452 127.817 125.508L127.853 125.676C127.861 125.692 127.865 125.72 127.865 125.76C127.865 125.872 127.805 125.94 127.685 125.964C127.397 126.052 127.089 126.096 126.761 126.096C126.241 126.096 125.869 125.98 125.645 125.748C125.429 125.508 125.321 125.164 125.321 124.716V120.684H124.433C124.273 120.684 124.193 120.604 124.193 120.444V120.324C124.193 120.164 124.273 120.084 124.433 120.084H125.321V118.26C125.321 118.1 125.401 118.02 125.561 118.02H125.873C126.033 118.02 126.113 118.1 126.113 118.26V120.084H127.553C127.713 120.084 127.793 120.164 127.793 120.324V120.444C127.793 120.604 127.713 120.684 127.553 120.684H126.113V124.62C126.113 124.916 126.169 125.124 126.281 125.244C126.393 125.364 126.585 125.424 126.857 125.424C127.049 125.424 127.269 125.396 127.517 125.34ZM136.075 124.596C136.131 124.54 136.191 124.512 136.255 124.512C136.311 124.512 136.363 124.536 136.411 124.584L136.567 124.728C136.623 124.784 136.651 124.844 136.651 124.908C136.651 124.956 136.627 125.012 136.579 125.076C136.187 125.468 135.807 125.748 135.439 125.916C135.071 126.076 134.659 126.156 134.203 126.156C133.627 126.156 133.127 126.028 132.703 125.772C132.279 125.516 131.951 125.16 131.719 124.704C131.487 124.24 131.371 123.704 131.371 123.096C131.371 122.48 131.483 121.936 131.707 121.464C131.939 120.984 132.263 120.612 132.679 120.348C133.095 120.076 133.575 119.94 134.119 119.94C134.927 119.94 135.563 120.192 136.027 120.696C136.491 121.2 136.723 121.88 136.723 122.736V122.88C136.715 122.952 136.687 123.008 136.639 123.048C136.599 123.088 136.543 123.108 136.471 123.108H132.175C132.199 123.78 132.375 124.348 132.703 124.812C133.039 125.268 133.539 125.496 134.203 125.496C134.563 125.496 134.879 125.432 135.151 125.304C135.431 125.168 135.739 124.932 136.075 124.596ZM134.119 120.6C133.591 120.6 133.155 120.764 132.811 121.092C132.475 121.412 132.271 121.884 132.199 122.508H135.931C135.915 121.924 135.747 121.46 135.427 121.116C135.107 120.772 134.671 120.6 134.119 120.6ZM144.154 119.94C144.794 119.94 145.282 120.124 145.618 120.492C145.962 120.852 146.134 121.316 146.134 121.884V125.76C146.134 125.92 146.054 126 145.894 126H145.582C145.422 126 145.342 125.92 145.342 125.76V122.1C145.342 121.62 145.23 121.252 145.006 120.996C144.79 120.74 144.466 120.612 144.034 120.612C143.578 120.612 143.214 120.764 142.942 121.068C142.67 121.372 142.534 121.764 142.534 122.244V125.76C142.534 125.92 142.454 126 142.294 126H141.982C141.822 126 141.742 125.92 141.742 125.76V122.1C141.742 121.62 141.63 121.252 141.406 120.996C141.19 120.74 140.862 120.612 140.422 120.612C140.014 120.612 139.674 120.74 139.402 120.996C139.138 121.252 138.982 121.588 138.934 122.004V125.76C138.934 125.92 138.854 126 138.694 126H138.382C138.222 126 138.142 125.92 138.142 125.76V120.324C138.142 120.164 138.222 120.084 138.382 120.084H138.646C138.806 120.084 138.886 120.164 138.886 120.324V120.816C139.246 120.232 139.818 119.94 140.602 119.94C141.01 119.94 141.358 120.032 141.646 120.216C141.942 120.392 142.162 120.632 142.306 120.936C142.73 120.272 143.346 119.94 144.154 119.94ZM150.16 119.94C150.888 119.94 151.456 120.116 151.864 120.468C152.272 120.812 152.476 121.268 152.476 121.836V125.76C152.476 125.92 152.396 126 152.236 126H151.996C151.836 126 151.756 125.92 151.756 125.76V125.22C151.556 125.54 151.272 125.78 150.904 125.94C150.544 126.1 150.14 126.18 149.692 126.18C149.068 126.18 148.56 126.048 148.168 125.784C147.776 125.52 147.58 125.112 147.58 124.56C147.58 124.12 147.704 123.768 147.952 123.504C148.2 123.232 148.524 123.028 148.924 122.892C149.324 122.748 149.824 122.62 150.424 122.508L151.72 122.28V121.896C151.72 121.488 151.58 121.172 151.3 120.948C151.02 120.716 150.652 120.6 150.196 120.6C149.852 120.6 149.54 120.664 149.26 120.792C148.98 120.92 148.68 121.14 148.36 121.452C148.304 121.508 148.244 121.536 148.18 121.536C148.124 121.536 148.072 121.512 148.024 121.464L147.868 121.32C147.812 121.264 147.784 121.204 147.784 121.14C147.784 121.068 147.812 121.004 147.868 120.948C148.204 120.596 148.556 120.34 148.924 120.18C149.3 120.02 149.712 119.94 150.16 119.94ZM149.728 125.52C150.304 125.52 150.78 125.368 151.156 125.064C151.532 124.76 151.72 124.372 151.72 123.9V122.892L150.604 123.108C150.084 123.212 149.672 123.312 149.368 123.408C149.064 123.504 148.82 123.644 148.636 123.828C148.452 124.012 148.36 124.252 148.36 124.548C148.36 124.852 148.48 125.092 148.72 125.268C148.968 125.436 149.304 125.52 149.728 125.52ZM154.628 118.584C154.468 118.584 154.332 118.528 154.22 118.416C154.116 118.304 154.064 118.168 154.064 118.008C154.064 117.848 154.116 117.716 154.22 117.612C154.332 117.508 154.468 117.456 154.628 117.456C154.796 117.456 154.932 117.508 155.036 117.612C155.148 117.716 155.204 117.848 155.204 118.008C155.204 118.168 155.148 118.304 155.036 118.416C154.932 118.528 154.796 118.584 154.628 118.584ZM154.472 126C154.312 126 154.232 125.92 154.232 125.76V120.324C154.232 120.164 154.312 120.084 154.472 120.084H154.784C154.944 120.084 155.024 120.164 155.024 120.324V125.76C155.024 125.92 154.944 126 154.784 126H154.472ZM157.038 126C156.878 126 156.798 125.92 156.798 125.76V117.72C156.798 117.56 156.878 117.48 157.038 117.48H157.35C157.51 117.48 157.59 117.56 157.59 117.72V125.76C157.59 125.92 157.51 126 157.35 126H157.038ZM164.422 119.94C165.15 119.94 165.718 120.116 166.126 120.468C166.534 120.812 166.738 121.268 166.738 121.836V125.76C166.738 125.92 166.658 126 166.498 126H166.258C166.098 126 166.018 125.92 166.018 125.76V125.22C165.818 125.54 165.534 125.78 165.166 125.94C164.806 126.1 164.402 126.18 163.954 126.18C163.33 126.18 162.822 126.048 162.43 125.784C162.038 125.52 161.842 125.112 161.842 124.56C161.842 124.12 161.966 123.768 162.214 123.504C162.462 123.232 162.786 123.028 163.186 122.892C163.586 122.748 164.086 122.62 164.686 122.508L165.982 122.28V121.896C165.982 121.488 165.842 121.172 165.562 120.948C165.282 120.716 164.914 120.6 164.458 120.6C164.114 120.6 163.802 120.664 163.522 120.792C163.242 120.92 162.942 121.14 162.622 121.452C162.566 121.508 162.506 121.536 162.442 121.536C162.386 121.536 162.334 121.512 162.286 121.464L162.13 121.32C162.074 121.264 162.046 121.204 162.046 121.14C162.046 121.068 162.074 121.004 162.13 120.948C162.466 120.596 162.818 120.34 163.186 120.18C163.562 120.02 163.974 119.94 164.422 119.94ZM163.99 125.52C164.566 125.52 165.042 125.368 165.418 125.064C165.794 124.76 165.982 124.372 165.982 123.9V122.892L164.866 123.108C164.346 123.212 163.934 123.312 163.63 123.408C163.326 123.504 163.082 123.644 162.898 123.828C162.714 124.012 162.622 124.252 162.622 124.548C162.622 124.852 162.742 125.092 162.982 125.268C163.23 125.436 163.566 125.52 163.99 125.52ZM172.765 117.72C172.765 117.56 172.845 117.48 173.005 117.48H173.317C173.477 117.48 173.557 117.56 173.557 117.72V125.76C173.557 125.92 173.477 126 173.317 126H173.065C172.905 126 172.825 125.92 172.825 125.76V124.98C172.609 125.356 172.325 125.644 171.973 125.844C171.621 126.044 171.205 126.144 170.725 126.144C170.221 126.144 169.773 126.016 169.381 125.76C168.989 125.496 168.681 125.132 168.457 124.668C168.233 124.196 168.121 123.656 168.121 123.048C168.121 122.44 168.233 121.904 168.457 121.44C168.689 120.968 169.005 120.604 169.405 120.348C169.805 120.084 170.253 119.952 170.749 119.952C171.661 119.952 172.333 120.292 172.765 120.972V117.72ZM170.785 125.472C171.385 125.472 171.869 125.26 172.237 124.836C172.613 124.404 172.801 123.808 172.801 123.048C172.801 122.296 172.613 121.704 172.237 121.272C171.869 120.84 171.385 120.624 170.785 120.624C170.233 120.624 169.785 120.848 169.441 121.296C169.105 121.744 168.937 122.328 168.937 123.048C168.937 123.776 169.105 124.364 169.441 124.812C169.777 125.252 170.225 125.472 170.785 125.472ZM179.609 117.72C179.609 117.56 179.689 117.48 179.849 117.48H180.161C180.321 117.48 180.401 117.56 180.401 117.72V125.76C180.401 125.92 180.321 126 180.161 126H179.909C179.749 126 179.669 125.92 179.669 125.76V124.98C179.453 125.356 179.169 125.644 178.817 125.844C178.465 126.044 178.049 126.144 177.569 126.144C177.065 126.144 176.617 126.016 176.225 125.76C175.833 125.496 175.525 125.132 175.301 124.668C175.077 124.196 174.965 123.656 174.965 123.048C174.965 122.44 175.077 121.904 175.301 121.44C175.533 120.968 175.849 120.604 176.249 120.348C176.649 120.084 177.097 119.952 177.593 119.952C178.505 119.952 179.177 120.292 179.609 120.972V117.72ZM177.629 125.472C178.229 125.472 178.713 125.26 179.081 124.836C179.457 124.404 179.645 123.808 179.645 123.048C179.645 122.296 179.457 121.704 179.081 121.272C178.713 120.84 178.229 120.624 177.629 120.624C177.077 120.624 176.629 120.848 176.285 121.296C175.949 121.744 175.781 122.328 175.781 123.048C175.781 123.776 175.949 124.364 176.285 124.812C176.621 125.252 177.069 125.472 177.629 125.472ZM184.389 120.036C184.589 120.036 184.825 120.068 185.097 120.132C185.241 120.18 185.297 120.28 185.265 120.432L185.217 120.624C185.177 120.776 185.077 120.832 184.917 120.792C184.725 120.744 184.549 120.72 184.389 120.72C183.981 120.72 183.641 120.896 183.369 121.248C183.105 121.6 182.973 122.088 182.973 122.712V125.76C182.973 125.92 182.893 126 182.733 126H182.421C182.261 126 182.181 125.92 182.181 125.76V120.324C182.181 120.164 182.261 120.084 182.421 120.084H182.685C182.845 120.084 182.925 120.164 182.925 120.324V120.984C183.061 120.688 183.253 120.456 183.501 120.288C183.757 120.12 184.053 120.036 184.389 120.036ZM190.321 124.596C190.377 124.54 190.437 124.512 190.501 124.512C190.557 124.512 190.609 124.536 190.657 124.584L190.813 124.728C190.869 124.784 190.897 124.844 190.897 124.908C190.897 124.956 190.873 125.012 190.825 125.076C190.433 125.468 190.053 125.748 189.685 125.916C189.317 126.076 188.905 126.156 188.449 126.156C187.873 126.156 187.373 126.028 186.949 125.772C186.525 125.516 186.197 125.16 185.965 124.704C185.733 124.24 185.617 123.704 185.617 123.096C185.617 122.48 185.729 121.936 185.953 121.464C186.185 120.984 186.509 120.612 186.925 120.348C187.341 120.076 187.821 119.94 188.365 119.94C189.173 119.94 189.809 120.192 190.273 120.696C190.737 121.2 190.969 121.88 190.969 122.736V122.88C190.961 122.952 190.933 123.008 190.885 123.048C190.845 123.088 190.789 123.108 190.717 123.108H186.421C186.445 123.78 186.621 124.348 186.949 124.812C187.285 125.268 187.785 125.496 188.449 125.496C188.809 125.496 189.125 125.432 189.397 125.304C189.677 125.168 189.985 124.932 190.321 124.596ZM188.365 120.6C187.837 120.6 187.401 120.764 187.057 121.092C186.721 121.412 186.517 121.884 186.445 122.508H190.177C190.161 121.924 189.993 121.46 189.673 121.116C189.353 120.772 188.917 120.6 188.365 120.6ZM194.499 126.156C194.011 126.156 193.579 126.088 193.203 125.952C192.835 125.808 192.447 125.568 192.039 125.232C191.967 125.184 191.931 125.128 191.931 125.064C191.931 125.008 191.959 124.952 192.015 124.896L192.171 124.728C192.219 124.664 192.279 124.632 192.351 124.632C192.407 124.632 192.459 124.656 192.507 124.704C192.891 125 193.231 125.208 193.527 125.328C193.823 125.44 194.147 125.496 194.499 125.496C194.939 125.496 195.299 125.4 195.579 125.208C195.859 125.008 195.999 124.74 195.999 124.404C195.999 124.068 195.855 123.82 195.567 123.66C195.279 123.5 194.835 123.356 194.235 123.228C193.707 123.116 193.291 123 192.987 122.88C192.691 122.752 192.471 122.592 192.327 122.4C192.183 122.208 192.111 121.956 192.111 121.644C192.111 121.132 192.319 120.72 192.735 120.408C193.151 120.096 193.675 119.94 194.307 119.94C194.739 119.94 195.123 119.996 195.459 120.108C195.803 120.212 196.147 120.388 196.491 120.636C196.563 120.692 196.599 120.752 196.599 120.816C196.599 120.856 196.579 120.908 196.539 120.972L196.395 121.152C196.355 121.216 196.299 121.248 196.227 121.248C196.163 121.248 196.107 121.228 196.059 121.188C195.731 120.956 195.439 120.8 195.183 120.72C194.935 120.64 194.651 120.6 194.331 120.6C193.891 120.6 193.539 120.696 193.275 120.888C193.011 121.08 192.879 121.324 192.879 121.62C192.879 121.804 192.939 121.952 193.059 122.064C193.179 122.176 193.351 122.272 193.575 122.352C193.799 122.424 194.127 122.508 194.559 122.604C195.359 122.78 195.927 122.996 196.263 123.252C196.607 123.508 196.779 123.88 196.779 124.368C196.779 124.904 196.567 125.336 196.143 125.664C195.719 125.992 195.171 126.156 194.499 126.156ZM200.182 126.156C199.694 126.156 199.262 126.088 198.886 125.952C198.518 125.808 198.13 125.568 197.722 125.232C197.65 125.184 197.614 125.128 197.614 125.064C197.614 125.008 197.642 124.952 197.698 124.896L197.854 124.728C197.902 124.664 197.962 124.632 198.034 124.632C198.09 124.632 198.142 124.656 198.19 124.704C198.574 125 198.914 125.208 199.21 125.328C199.506 125.44 199.83 125.496 200.182 125.496C200.622 125.496 200.982 125.4 201.262 125.208C201.542 125.008 201.682 124.74 201.682 124.404C201.682 124.068 201.538 123.82 201.25 123.66C200.962 123.5 200.518 123.356 199.918 123.228C199.39 123.116 198.974 123 198.67 122.88C198.374 122.752 198.154 122.592 198.01 122.4C197.866 122.208 197.794 121.956 197.794 121.644C197.794 121.132 198.002 120.72 198.418 120.408C198.834 120.096 199.358 119.94 199.99 119.94C200.422 119.94 200.806 119.996 201.142 120.108C201.486 120.212 201.83 120.388 202.174 120.636C202.246 120.692 202.282 120.752 202.282 120.816C202.282 120.856 202.262 120.908 202.222 120.972L202.078 121.152C202.038 121.216 201.982 121.248 201.91 121.248C201.846 121.248 201.79 121.228 201.742 121.188C201.414 120.956 201.122 120.8 200.866 120.72C200.618 120.64 200.334 120.6 200.014 120.6C199.574 120.6 199.222 120.696 198.958 120.888C198.694 121.08 198.562 121.324 198.562 121.62C198.562 121.804 198.622 121.952 198.742 122.064C198.862 122.176 199.034 122.272 199.258 122.352C199.482 122.424 199.81 122.508 200.242 122.604C201.042 122.78 201.61 122.996 201.946 123.252C202.29 123.508 202.462 123.88 202.462 124.368C202.462 124.904 202.25 125.336 201.826 125.664C201.402 125.992 200.854 126.156 200.182 126.156ZM206.964 118.584C206.804 118.584 206.668 118.528 206.556 118.416C206.452 118.304 206.4 118.168 206.4 118.008C206.4 117.848 206.452 117.716 206.556 117.612C206.668 117.508 206.804 117.456 206.964 117.456C207.132 117.456 207.268 117.508 207.372 117.612C207.484 117.716 207.54 117.848 207.54 118.008C207.54 118.168 207.484 118.304 207.372 118.416C207.268 118.528 207.132 118.584 206.964 118.584ZM206.808 126C206.648 126 206.568 125.92 206.568 125.76V120.324C206.568 120.164 206.648 120.084 206.808 120.084H207.12C207.28 120.084 207.36 120.164 207.36 120.324V125.76C207.36 125.92 207.28 126 207.12 126H206.808ZM211.186 126.156C210.698 126.156 210.266 126.088 209.89 125.952C209.522 125.808 209.134 125.568 208.726 125.232C208.654 125.184 208.618 125.128 208.618 125.064C208.618 125.008 208.646 124.952 208.702 124.896L208.858 124.728C208.906 124.664 208.966 124.632 209.038 124.632C209.094 124.632 209.146 124.656 209.194 124.704C209.578 125 209.918 125.208 210.214 125.328C210.51 125.44 210.834 125.496 211.186 125.496C211.626 125.496 211.986 125.4 212.266 125.208C212.546 125.008 212.686 124.74 212.686 124.404C212.686 124.068 212.542 123.82 212.254 123.66C211.966 123.5 211.522 123.356 210.922 123.228C210.394 123.116 209.978 123 209.674 122.88C209.378 122.752 209.158 122.592 209.014 122.4C208.87 122.208 208.798 121.956 208.798 121.644C208.798 121.132 209.006 120.72 209.422 120.408C209.838 120.096 210.362 119.94 210.994 119.94C211.426 119.94 211.81 119.996 212.146 120.108C212.49 120.212 212.834 120.388 213.178 120.636C213.25 120.692 213.286 120.752 213.286 120.816C213.286 120.856 213.266 120.908 213.226 120.972L213.082 121.152C213.042 121.216 212.986 121.248 212.914 121.248C212.85 121.248 212.794 121.228 212.746 121.188C212.418 120.956 212.126 120.8 211.87 120.72C211.622 120.64 211.338 120.6 211.018 120.6C210.578 120.6 210.226 120.696 209.962 120.888C209.698 121.08 209.566 121.324 209.566 121.62C209.566 121.804 209.626 121.952 209.746 122.064C209.866 122.176 210.038 122.272 210.262 122.352C210.486 122.424 210.814 122.508 211.246 122.604C212.046 122.78 212.614 122.996 212.95 123.252C213.294 123.508 213.466 123.88 213.466 124.368C213.466 124.904 213.254 125.336 212.83 125.664C212.406 125.992 211.858 126.156 211.186 126.156ZM220.212 119.94C220.908 119.94 221.432 120.132 221.784 120.516C222.144 120.9 222.324 121.38 222.324 121.956V125.76C222.324 125.92 222.244 126 222.084 126H221.772C221.612 126 221.532 125.92 221.532 125.76V122.22C221.532 121.692 221.404 121.292 221.148 121.02C220.892 120.748 220.524 120.612 220.044 120.612C219.74 120.612 219.46 120.688 219.204 120.84C218.948 120.984 218.744 121.184 218.592 121.44C218.44 121.696 218.364 121.976 218.364 122.28V125.76C218.364 125.92 218.284 126 218.124 126H217.812C217.652 126 217.572 125.92 217.572 125.76V120.324C217.572 120.164 217.652 120.084 217.812 120.084H218.076C218.236 120.084 218.316 120.164 218.316 120.324V120.9C218.516 120.58 218.78 120.34 219.108 120.18C219.436 120.02 219.804 119.94 220.212 119.94ZM226.524 126.156C225.972 126.156 225.48 126.024 225.048 125.76C224.616 125.496 224.28 125.132 224.04 124.668C223.8 124.196 223.68 123.656 223.68 123.048C223.68 122.44 223.8 121.904 224.04 121.44C224.28 120.968 224.616 120.6 225.048 120.336C225.48 120.072 225.972 119.94 226.524 119.94C227.076 119.94 227.568 120.072 228 120.336C228.432 120.6 228.768 120.968 229.008 121.44C229.248 121.904 229.368 122.44 229.368 123.048C229.368 123.656 229.248 124.196 229.008 124.668C228.768 125.132 228.432 125.496 228 125.76C227.568 126.024 227.076 126.156 226.524 126.156ZM226.524 125.496C227.14 125.496 227.632 125.272 228 124.824C228.368 124.368 228.552 123.776 228.552 123.048C228.552 122.32 228.368 121.732 228 121.284C227.632 120.828 227.14 120.6 226.524 120.6C225.908 120.6 225.416 120.828 225.048 121.284C224.68 121.732 224.496 122.32 224.496 123.048C224.496 123.776 224.68 124.368 225.048 124.824C225.416 125.272 225.908 125.496 226.524 125.496ZM233.232 125.34C233.256 125.332 233.288 125.328 233.328 125.328C233.376 125.328 233.42 125.344 233.46 125.376C233.5 125.408 233.524 125.452 233.532 125.508L233.568 125.676C233.576 125.692 233.58 125.72 233.58 125.76C233.58 125.872 233.52 125.94 233.4 125.964C233.112 126.052 232.804 126.096 232.476 126.096C231.956 126.096 231.584 125.98 231.36 125.748C231.144 125.508 231.036 125.164 231.036 124.716V120.684H230.148C229.988 120.684 229.908 120.604 229.908 120.444V120.324C229.908 120.164 229.988 120.084 230.148 120.084H231.036V118.26C231.036 118.1 231.116 118.02 231.276 118.02H231.588C231.748 118.02 231.828 118.1 231.828 118.26V120.084H233.268C233.428 120.084 233.508 120.164 233.508 120.324V120.444C233.508 120.604 233.428 120.684 233.268 120.684H231.828V124.62C231.828 124.916 231.884 125.124 231.996 125.244C232.108 125.364 232.3 125.424 232.572 125.424C232.764 125.424 232.984 125.396 233.232 125.34ZM241.13 120.276C241.178 120.148 241.27 120.084 241.406 120.084H241.718C241.782 120.084 241.834 120.1 241.874 120.132C241.914 120.164 241.934 120.208 241.934 120.264L241.91 120.36L240.002 125.808C239.954 125.936 239.862 126 239.726 126H239.09C238.954 126 238.862 125.936 238.814 125.808L236.918 120.36L236.894 120.264C236.894 120.208 236.914 120.164 236.954 120.132C236.994 120.1 237.046 120.084 237.11 120.084H237.434C237.57 120.084 237.662 120.148 237.71 120.276L238.442 122.388C238.746 123.268 239.07 124.28 239.414 125.424C239.43 125.376 239.474 125.24 239.546 125.016C239.874 123.936 240.158 123.06 240.398 122.388L241.13 120.276ZM245.328 119.94C246.056 119.94 246.624 120.116 247.032 120.468C247.44 120.812 247.644 121.268 247.644 121.836V125.76C247.644 125.92 247.564 126 247.404 126H247.164C247.004 126 246.924 125.92 246.924 125.76V125.22C246.724 125.54 246.44 125.78 246.072 125.94C245.712 126.1 245.308 126.18 244.86 126.18C244.236 126.18 243.728 126.048 243.336 125.784C242.944 125.52 242.748 125.112 242.748 124.56C242.748 124.12 242.872 123.768 243.12 123.504C243.368 123.232 243.692 123.028 244.092 122.892C244.492 122.748 244.992 122.62 245.592 122.508L246.888 122.28V121.896C246.888 121.488 246.748 121.172 246.468 120.948C246.188 120.716 245.82 120.6 245.364 120.6C245.02 120.6 244.708 120.664 244.428 120.792C244.148 120.92 243.848 121.14 243.528 121.452C243.472 121.508 243.412 121.536 243.348 121.536C243.292 121.536 243.24 121.512 243.192 121.464L243.036 121.32C242.98 121.264 242.952 121.204 242.952 121.14C242.952 121.068 242.98 121.004 243.036 120.948C243.372 120.596 243.724 120.34 244.092 120.18C244.468 120.02 244.88 119.94 245.328 119.94ZM244.896 125.52C245.472 125.52 245.948 125.368 246.324 125.064C246.7 124.76 246.888 124.372 246.888 123.9V122.892L245.772 123.108C245.252 123.212 244.84 123.312 244.536 123.408C244.232 123.504 243.988 123.644 243.804 123.828C243.62 124.012 243.528 124.252 243.528 124.548C243.528 124.852 243.648 125.092 243.888 125.268C244.136 125.436 244.472 125.52 244.896 125.52ZM249.652 126C249.492 126 249.412 125.92 249.412 125.76V117.72C249.412 117.56 249.492 117.48 249.652 117.48H249.964C250.124 117.48 250.204 117.56 250.204 117.72V125.76C250.204 125.92 250.124 126 249.964 126H249.652ZM252.386 118.584C252.226 118.584 252.09 118.528 251.978 118.416C251.874 118.304 251.822 118.168 251.822 118.008C251.822 117.848 251.874 117.716 251.978 117.612C252.09 117.508 252.226 117.456 252.386 117.456C252.554 117.456 252.69 117.508 252.794 117.612C252.906 117.716 252.962 117.848 252.962 118.008C252.962 118.168 252.906 118.304 252.794 118.416C252.69 118.528 252.554 118.584 252.386 118.584ZM252.23 126C252.07 126 251.99 125.92 251.99 125.76V120.324C251.99 120.164 252.07 120.084 252.23 120.084H252.542C252.702 120.084 252.782 120.164 252.782 120.324V125.76C252.782 125.92 252.702 126 252.542 126H252.23ZM258.816 117.72C258.816 117.56 258.896 117.48 259.056 117.48H259.368C259.528 117.48 259.608 117.56 259.608 117.72V125.76C259.608 125.92 259.528 126 259.368 126H259.116C258.956 126 258.876 125.92 258.876 125.76V124.98C258.66 125.356 258.376 125.644 258.024 125.844C257.672 126.044 257.256 126.144 256.776 126.144C256.272 126.144 255.824 126.016 255.432 125.76C255.04 125.496 254.732 125.132 254.508 124.668C254.284 124.196 254.172 123.656 254.172 123.048C254.172 122.44 254.284 121.904 254.508 121.44C254.74 120.968 255.056 120.604 255.456 120.348C255.856 120.084 256.304 119.952 256.8 119.952C257.712 119.952 258.384 120.292 258.816 120.972V117.72ZM256.836 125.472C257.436 125.472 257.92 125.26 258.288 124.836C258.664 124.404 258.852 123.808 258.852 123.048C258.852 122.296 258.664 121.704 258.288 121.272C257.92 120.84 257.436 120.624 256.836 120.624C256.284 120.624 255.836 120.848 255.492 121.296C255.156 121.744 254.988 122.328 254.988 123.048C254.988 123.776 255.156 124.364 255.492 124.812C255.828 125.252 256.276 125.472 256.836 125.472Z" fill="#D91F0A"/>
<defs>
<clipPath id="clip0_899_44583">
<rect width="187" height="22" fill="white" transform="translate(78 75)"/>
</clipPath>
</defs>
</svg>
