<svg width="344" height="170" viewBox="0 0 344 170" fill="none" xmlns="http://www.w3.org/2000/svg">
<path d="M71.568 64C71.4187 64 71.2973 63.958 71.204 63.874C71.12 63.7807 71.078 63.6593 71.078 63.51V54.55C71.078 54.3913 71.12 54.27 71.204 54.186C71.2973 54.102 71.4187 54.06 71.568 54.06H77.378C77.5367 54.06 77.658 54.102 77.742 54.186C77.826 54.27 77.868 54.3913 77.868 54.55V54.914C77.868 55.0633 77.826 55.1847 77.742 55.278C77.658 55.362 77.5367 55.404 77.378 55.404H72.674V58.442H77C77.1587 58.442 77.28 58.484 77.364 58.568C77.448 58.652 77.49 58.7733 77.49 58.932V59.282C77.49 59.4313 77.448 59.5527 77.364 59.646C77.28 59.73 77.1587 59.772 77 59.772H72.674V63.51C72.674 63.6593 72.632 63.7807 72.548 63.874C72.464 63.958 72.3427 64 72.184 64H71.568ZM80.0045 55.754C79.7339 55.754 79.5052 55.6653 79.3185 55.488C79.1319 55.3013 79.0385 55.082 79.0385 54.83C79.0385 54.5687 79.1319 54.3493 79.3185 54.172C79.5052 53.9947 79.7339 53.906 80.0045 53.906C80.2752 53.906 80.5039 53.9947 80.6905 54.172C80.8772 54.3493 80.9705 54.5687 80.9705 54.83C80.9705 55.082 80.8772 55.3013 80.6905 55.488C80.5039 55.6653 80.2752 55.754 80.0045 55.754ZM79.7385 64C79.5892 64 79.4679 63.958 79.3745 63.874C79.2905 63.7807 79.2485 63.6593 79.2485 63.51V57.588C79.2485 57.4293 79.2905 57.308 79.3745 57.224C79.4679 57.14 79.5892 57.098 79.7385 57.098H80.2425C80.4012 57.098 80.5225 57.14 80.6065 57.224C80.6905 57.308 80.7325 57.4293 80.7325 57.588V63.51C80.7325 63.6593 80.6905 63.7807 80.6065 63.874C80.5225 63.958 80.4012 64 80.2425 64H79.7385ZM85.5558 57.028C85.7611 57.028 85.9711 57.0513 86.1858 57.098C86.4378 57.154 86.5638 57.3033 86.5638 57.546C86.5638 57.6113 86.5591 57.658 86.5498 57.686L86.4798 58.022C86.4238 58.2833 86.2838 58.414 86.0598 58.414L85.9338 58.4C85.7658 58.372 85.6164 58.358 85.4858 58.358C85.0191 58.358 84.6411 58.5447 84.3518 58.918C84.0718 59.282 83.9318 59.7907 83.9318 60.444V63.51C83.9318 63.6593 83.8898 63.7807 83.8058 63.874C83.7218 63.958 83.6004 64 83.4417 64H82.9378C82.7884 64 82.6671 63.958 82.5738 63.874C82.4898 63.7807 82.4478 63.6593 82.4478 63.51V57.588C82.4478 57.4293 82.4898 57.308 82.5738 57.224C82.6671 57.14 82.7884 57.098 82.9378 57.098H83.3438C83.5024 57.098 83.6238 57.14 83.7078 57.224C83.7918 57.308 83.8338 57.4293 83.8338 57.588V58.134C84.0018 57.7887 84.2304 57.518 84.5198 57.322C84.8091 57.126 85.1544 57.028 85.5558 57.028ZM90.1117 64.21C89.5423 64.21 89.0337 64.14 88.5857 64C88.147 63.8507 87.699 63.594 87.2417 63.23C87.1017 63.1273 87.0317 63.0107 87.0317 62.88C87.0317 62.7773 87.083 62.6653 87.1857 62.544L87.3957 62.306C87.5077 62.1753 87.629 62.11 87.7597 62.11C87.8623 62.11 87.9743 62.1567 88.0957 62.25C88.4877 62.5393 88.833 62.74 89.1317 62.852C89.4303 62.9547 89.7663 63.006 90.1397 63.006C90.541 63.006 90.8677 62.9267 91.1197 62.768C91.381 62.6 91.5117 62.376 91.5117 62.096C91.5117 61.8813 91.437 61.7133 91.2877 61.592C91.1477 61.4613 90.961 61.3633 90.7277 61.298C90.4943 61.2233 90.149 61.1393 89.6917 61.046C89.0477 60.906 88.5437 60.7567 88.1797 60.598C87.825 60.43 87.5683 60.22 87.4097 59.968C87.251 59.716 87.1717 59.394 87.1717 59.002C87.1717 58.6007 87.2837 58.2413 87.5077 57.924C87.741 57.6067 88.063 57.3547 88.4737 57.168C88.8937 56.9813 89.3837 56.888 89.9437 56.888C90.4477 56.888 90.8957 56.944 91.2877 57.056C91.689 57.168 92.081 57.3593 92.4637 57.63C92.613 57.742 92.6877 57.868 92.6877 58.008C92.6877 58.1013 92.641 58.2087 92.5477 58.33L92.3657 58.554C92.263 58.6847 92.137 58.75 91.9877 58.75C91.8757 58.75 91.7683 58.7127 91.6657 58.638C91.3577 58.4327 91.073 58.2927 90.8117 58.218C90.5503 58.134 90.2563 58.092 89.9297 58.092C89.5283 58.092 89.2063 58.1713 88.9637 58.33C88.721 58.4887 88.5997 58.694 88.5997 58.946C88.5997 59.114 88.6557 59.2493 88.7677 59.352C88.889 59.4453 89.057 59.5293 89.2717 59.604C89.4957 59.6693 89.8457 59.7533 90.3217 59.856C90.9657 59.996 91.4743 60.1547 91.8477 60.332C92.2303 60.5 92.5103 60.7193 92.6877 60.99C92.8743 61.2513 92.9677 61.592 92.9677 62.012C92.9677 62.6653 92.7063 63.1973 92.1837 63.608C91.6703 64.0093 90.9797 64.21 90.1117 64.21ZM97.5512 62.824C97.5792 62.8147 97.6212 62.81 97.6772 62.81C97.9106 62.81 98.0506 62.9453 98.0972 63.216L98.1392 63.44C98.1486 63.468 98.1532 63.5147 98.1532 63.58C98.1532 63.8133 98.0226 63.9627 97.7612 64.028C97.3879 64.112 97.0472 64.154 96.7392 64.154C96.0766 64.154 95.5959 64 95.2972 63.692C95.0079 63.384 94.8632 62.922 94.8632 62.306V58.232H94.0932C93.9439 58.232 93.8226 58.19 93.7292 58.106C93.6452 58.0127 93.6032 57.8913 93.6032 57.742V57.588C93.6032 57.4293 93.6452 57.308 93.7292 57.224C93.8226 57.14 93.9439 57.098 94.0932 57.098H94.8632V55.362C94.8632 55.2033 94.9052 55.082 94.9892 54.998C95.0826 54.914 95.2039 54.872 95.3532 54.872H95.8572C96.0159 54.872 96.1372 54.914 96.2212 54.998C96.3052 55.082 96.3472 55.2033 96.3472 55.362V57.098H97.6072C97.7659 57.098 97.8872 57.14 97.9712 57.224C98.0552 57.308 98.0972 57.4293 98.0972 57.588V57.742C98.0972 57.8913 98.0552 58.0127 97.9712 58.106C97.8872 58.19 97.7659 58.232 97.6072 58.232H96.3472V62.124C96.3472 62.3947 96.4032 62.586 96.5152 62.698C96.6366 62.81 96.8279 62.866 97.0892 62.866C97.2012 62.866 97.3552 62.852 97.5512 62.824ZM105.964 56.888C106.757 56.888 107.364 57.112 107.784 57.56C108.213 57.9987 108.428 58.568 108.428 59.268V63.51C108.428 63.6593 108.386 63.7807 108.302 63.874C108.218 63.958 108.096 64 107.938 64H107.434C107.284 64 107.163 63.958 107.07 63.874C106.986 63.7807 106.944 63.6593 106.944 63.51V59.73C106.944 59.226 106.818 58.8387 106.566 58.568C106.323 58.2973 105.973 58.162 105.516 58.162C105.068 58.162 104.69 58.316 104.382 58.624C104.083 58.932 103.934 59.3193 103.934 59.786V63.51C103.934 63.6593 103.892 63.7807 103.808 63.874C103.724 63.958 103.602 64 103.444 64H102.94C102.79 64 102.669 63.958 102.576 63.874C102.492 63.7807 102.45 63.6593 102.45 63.51V57.588C102.45 57.4293 102.492 57.308 102.576 57.224C102.669 57.14 102.79 57.098 102.94 57.098H103.346C103.504 57.098 103.626 57.14 103.71 57.224C103.794 57.308 103.836 57.4293 103.836 57.588V57.952C104.06 57.6067 104.354 57.3453 104.718 57.168C105.082 56.9813 105.497 56.888 105.964 56.888ZM113.045 56.888C113.979 56.888 114.697 57.1073 115.201 57.546C115.705 57.9753 115.957 58.5493 115.957 59.268V63.51C115.957 63.6593 115.915 63.7807 115.831 63.874C115.747 63.958 115.626 64 115.467 64H115.103C114.954 64 114.833 63.958 114.739 63.874C114.655 63.7807 114.613 63.6593 114.613 63.51V63.202C114.389 63.5287 114.081 63.7807 113.689 63.958C113.297 64.1353 112.84 64.224 112.317 64.224C111.599 64.224 111.006 64.0653 110.539 63.748C110.082 63.4213 109.853 62.9313 109.853 62.278C109.853 61.55 110.124 61.0133 110.665 60.668C111.216 60.3133 111.977 60.0473 112.947 59.87L114.529 59.576V59.324C114.529 58.9413 114.394 58.6473 114.123 58.442C113.862 58.2273 113.512 58.12 113.073 58.12C112.7 58.12 112.373 58.1853 112.093 58.316C111.823 58.4373 111.529 58.6427 111.211 58.932C111.09 59.0347 110.973 59.086 110.861 59.086C110.749 59.086 110.633 59.0347 110.511 58.932L110.287 58.736C110.166 58.624 110.105 58.5027 110.105 58.372C110.105 58.2507 110.161 58.134 110.273 58.022C110.675 57.6393 111.099 57.3547 111.547 57.168C111.995 56.9813 112.495 56.888 113.045 56.888ZM112.527 63.034C113.087 63.034 113.559 62.8847 113.941 62.586C114.333 62.2873 114.529 61.858 114.529 61.298V60.654L113.311 60.906C112.63 61.046 112.126 61.2047 111.799 61.382C111.473 61.5593 111.309 61.83 111.309 62.194C111.309 62.4553 111.417 62.6607 111.631 62.81C111.846 62.9593 112.145 63.034 112.527 63.034ZM125.059 56.888C125.796 56.888 126.365 57.098 126.767 57.518C127.168 57.9287 127.369 58.484 127.369 59.184V63.51C127.369 63.6593 127.327 63.7807 127.243 63.874C127.159 63.958 127.037 64 126.879 64H126.375C126.225 64 126.104 63.958 126.011 63.874C125.927 63.7807 125.885 63.6593 125.885 63.51V59.632C125.885 59.1747 125.782 58.8153 125.577 58.554C125.371 58.2927 125.059 58.162 124.639 58.162C124.209 58.162 123.869 58.3067 123.617 58.596C123.374 58.8853 123.253 59.2587 123.253 59.716V63.51C123.253 63.6593 123.211 63.7807 123.127 63.874C123.043 63.958 122.921 64 122.763 64H122.259C122.109 64 121.988 63.958 121.895 63.874C121.811 63.7807 121.769 63.6593 121.769 63.51V59.632C121.769 59.1747 121.666 58.8153 121.461 58.554C121.265 58.2927 120.957 58.162 120.537 58.162C120.126 58.162 119.795 58.2973 119.543 58.568C119.291 58.8387 119.155 59.1887 119.137 59.618V63.51C119.137 63.6593 119.095 63.7807 119.011 63.874C118.927 63.958 118.805 64 118.647 64H118.143C117.993 64 117.872 63.958 117.779 63.874C117.695 63.7807 117.653 63.6593 117.653 63.51V57.588C117.653 57.4293 117.695 57.308 117.779 57.224C117.872 57.14 117.993 57.098 118.143 57.098H118.549C118.707 57.098 118.829 57.14 118.913 57.224C118.997 57.308 119.039 57.4293 119.039 57.588V57.896C119.468 57.224 120.131 56.888 121.027 56.888C121.475 56.888 121.867 56.9813 122.203 57.168C122.539 57.3547 122.795 57.616 122.973 57.952C123.449 57.2427 124.144 56.888 125.059 56.888ZM134.011 62.236C134.132 62.1333 134.249 62.082 134.361 62.082C134.473 62.082 134.59 62.1427 134.711 62.264L134.907 62.474C135.01 62.5953 135.061 62.712 135.061 62.824C135.061 62.9453 135 63.062 134.879 63.174C134.45 63.5473 134.02 63.8133 133.591 63.972C133.171 64.1307 132.704 64.21 132.191 64.21C131.472 64.21 130.847 64.0607 130.315 63.762C129.792 63.4633 129.386 63.0433 129.097 62.502C128.817 61.9513 128.677 61.3167 128.677 60.598C128.677 59.8887 128.812 59.254 129.083 58.694C129.363 58.1247 129.755 57.6813 130.259 57.364C130.772 57.0467 131.37 56.888 132.051 56.888C133.068 56.888 133.852 57.1913 134.403 57.798C134.954 58.3953 135.229 59.2213 135.229 60.276V60.402C135.22 60.5513 135.173 60.668 135.089 60.752C135.005 60.836 134.884 60.878 134.725 60.878H130.133C130.189 61.494 130.39 61.998 130.735 62.39C131.09 62.7727 131.584 62.964 132.219 62.964C132.564 62.964 132.868 62.9127 133.129 62.81C133.39 62.698 133.684 62.5067 134.011 62.236ZM132.023 58.064C131.51 58.064 131.094 58.218 130.777 58.526C130.469 58.8247 130.268 59.2493 130.175 59.8H133.773C133.736 59.2587 133.568 58.834 133.269 58.526C132.97 58.218 132.555 58.064 132.023 58.064Z" fill="#464646"/>
<rect x="70.5" y="72.5" width="202" height="47" rx="3.5" fill="white"/>
<rect x="70.5" y="72.5" width="202" height="47" rx="3.5" stroke="#C3CCD9"/>
</svg>
