<svg width="344" height="168" viewBox="0 0 344 168" fill="none" xmlns="http://www.w3.org/2000/svg">
<path d="M72.568 63C72.4187 63 72.2973 62.958 72.204 62.874C72.12 62.7807 72.078 62.6593 72.078 62.51V53.55C72.078 53.3913 72.12 53.27 72.204 53.186C72.2973 53.102 72.4187 53.06 72.568 53.06H78.378C78.5367 53.06 78.658 53.102 78.742 53.186C78.826 53.27 78.868 53.3913 78.868 53.55V53.914C78.868 54.0633 78.826 54.1847 78.742 54.278C78.658 54.362 78.5367 54.404 78.378 54.404H73.674V57.204H78.028C78.1867 57.204 78.308 57.246 78.392 57.33C78.476 57.414 78.518 57.5353 78.518 57.694V58.058C78.518 58.2073 78.476 58.3287 78.392 58.422C78.308 58.506 78.1867 58.548 78.028 58.548H73.674V61.656H78.518C78.6767 61.656 78.798 61.698 78.882 61.782C78.966 61.866 79.008 61.9873 79.008 62.146V62.51C79.008 62.6593 78.966 62.7807 78.882 62.874C78.798 62.958 78.6767 63 78.518 63H72.568ZM87.9143 55.888C88.6516 55.888 89.221 56.098 89.6223 56.518C90.0236 56.9287 90.2243 57.484 90.2243 58.184V62.51C90.2243 62.6593 90.1823 62.7807 90.0983 62.874C90.0143 62.958 89.893 63 89.7343 63H89.2303C89.081 63 88.9596 62.958 88.8663 62.874C88.7823 62.7807 88.7403 62.6593 88.7403 62.51V58.632C88.7403 58.1747 88.6376 57.8153 88.4323 57.554C88.227 57.2927 87.9143 57.162 87.4943 57.162C87.065 57.162 86.7243 57.3067 86.4723 57.596C86.2296 57.8853 86.1083 58.2587 86.1083 58.716V62.51C86.1083 62.6593 86.0663 62.7807 85.9823 62.874C85.8983 62.958 85.777 63 85.6183 63H85.1143C84.965 63 84.8436 62.958 84.7503 62.874C84.6663 62.7807 84.6243 62.6593 84.6243 62.51V58.632C84.6243 58.1747 84.5216 57.8153 84.3163 57.554C84.1203 57.2927 83.8123 57.162 83.3923 57.162C82.9816 57.162 82.6503 57.2973 82.3983 57.568C82.1463 57.8387 82.011 58.1887 81.9923 58.618V62.51C81.9923 62.6593 81.9503 62.7807 81.8663 62.874C81.7823 62.958 81.661 63 81.5023 63H80.9983C80.849 63 80.7276 62.958 80.6343 62.874C80.5503 62.7807 80.5083 62.6593 80.5083 62.51V56.588C80.5083 56.4293 80.5503 56.308 80.6343 56.224C80.7276 56.14 80.849 56.098 80.9983 56.098H81.4043C81.563 56.098 81.6843 56.14 81.7683 56.224C81.8523 56.308 81.8943 56.4293 81.8943 56.588V56.896C82.3236 56.224 82.9863 55.888 83.8823 55.888C84.3303 55.888 84.7223 55.9813 85.0583 56.168C85.3943 56.3547 85.651 56.616 85.8283 56.952C86.3043 56.2427 86.9996 55.888 87.9143 55.888ZM94.8363 55.888C95.7696 55.888 96.4883 56.1073 96.9923 56.546C97.4963 56.9753 97.7483 57.5493 97.7483 58.268V62.51C97.7483 62.6593 97.7063 62.7807 97.6223 62.874C97.5383 62.958 97.417 63 97.2583 63H96.8943C96.745 63 96.6236 62.958 96.5303 62.874C96.4463 62.7807 96.4043 62.6593 96.4043 62.51V62.202C96.1803 62.5287 95.8723 62.7807 95.4803 62.958C95.0883 63.1353 94.631 63.224 94.1083 63.224C93.3896 63.224 92.797 63.0653 92.3303 62.748C91.873 62.4213 91.6443 61.9313 91.6443 61.278C91.6443 60.55 91.915 60.0133 92.4563 59.668C93.007 59.3133 93.7676 59.0473 94.7383 58.87L96.3203 58.576V58.324C96.3203 57.9413 96.185 57.6473 95.9143 57.442C95.653 57.2273 95.303 57.12 94.8643 57.12C94.491 57.12 94.1643 57.1853 93.8843 57.316C93.6136 57.4373 93.3196 57.6427 93.0023 57.932C92.881 58.0347 92.7643 58.086 92.6523 58.086C92.5403 58.086 92.4236 58.0347 92.3023 57.932L92.0783 57.736C91.957 57.624 91.8963 57.5027 91.8963 57.372C91.8963 57.2507 91.9523 57.134 92.0643 57.022C92.4656 56.6393 92.8903 56.3547 93.3383 56.168C93.7863 55.9813 94.2856 55.888 94.8363 55.888ZM94.3183 62.034C94.8783 62.034 95.3496 61.8847 95.7323 61.586C96.1243 61.2873 96.3203 60.858 96.3203 60.298V59.654L95.1023 59.906C94.421 60.046 93.917 60.2047 93.5903 60.382C93.2636 60.5593 93.1003 60.83 93.1003 61.194C93.1003 61.4553 93.2076 61.6607 93.4223 61.81C93.637 61.9593 93.9356 62.034 94.3183 62.034ZM100.2 54.754C99.9292 54.754 99.7005 54.6653 99.5138 54.488C99.3272 54.3013 99.2338 54.082 99.2338 53.83C99.2338 53.5687 99.3272 53.3493 99.5138 53.172C99.7005 52.9947 99.9292 52.906 100.2 52.906C100.471 52.906 100.699 52.9947 100.886 53.172C101.073 53.3493 101.166 53.5687 101.166 53.83C101.166 54.082 101.073 54.3013 100.886 54.488C100.699 54.6653 100.471 54.754 100.2 54.754ZM99.9338 63C99.7845 63 99.6632 62.958 99.5698 62.874C99.4858 62.7807 99.4438 62.6593 99.4438 62.51V56.588C99.4438 56.4293 99.4858 56.308 99.5698 56.224C99.6632 56.14 99.7845 56.098 99.9338 56.098H100.438C100.597 56.098 100.718 56.14 100.802 56.224C100.886 56.308 100.928 56.4293 100.928 56.588V62.51C100.928 62.6593 100.886 62.7807 100.802 62.874C100.718 62.958 100.597 63 100.438 63H99.9338ZM103.189 63C103.04 63 102.918 62.958 102.825 62.874C102.741 62.7807 102.699 62.6593 102.699 62.51V53.55C102.699 53.3913 102.741 53.27 102.825 53.186C102.918 53.102 103.04 53.06 103.189 53.06H103.693C103.852 53.06 103.973 53.102 104.057 53.186C104.141 53.27 104.183 53.3913 104.183 53.55V62.51C104.183 62.6593 104.141 62.7807 104.057 62.874C103.973 62.958 103.852 63 103.693 63H103.189Z" fill="#464646"/>
<rect x="71.5" y="71.5" width="202" height="47" rx="3.5" fill="white"/>
<g clip-path="url(#clip0_899_92736)">
<path d="M83.704 91.92C84.632 91.92 85.3307 92.176 85.8 92.688C86.28 93.2 86.52 93.84 86.52 94.608V99.68C86.52 99.8933 86.4133 100 86.2 100H85.784C85.5707 100 85.464 99.8933 85.464 99.68V94.96C85.464 94.256 85.2933 93.7227 84.952 93.36C84.6107 92.9973 84.12 92.816 83.48 92.816C83.0747 92.816 82.7013 92.9173 82.36 93.12C82.0187 93.312 81.7467 93.5787 81.544 93.92C81.3413 94.2613 81.24 94.6347 81.24 95.04V99.68C81.24 99.8933 81.1333 100 80.92 100H80.504C80.2907 100 80.184 99.8933 80.184 99.68V92.432C80.184 92.2187 80.2907 92.112 80.504 92.112H80.856C81.0693 92.112 81.176 92.2187 81.176 92.432V93.2C81.4427 92.7733 81.7947 92.4533 82.232 92.24C82.6693 92.0267 83.16 91.92 83.704 91.92ZM91.8959 91.92C92.8665 91.92 93.6239 92.1547 94.1679 92.624C94.7119 93.0827 94.9839 93.6907 94.9839 94.448V99.68C94.9839 99.8933 94.8772 100 94.6639 100H94.3439C94.1305 100 94.0239 99.8933 94.0239 99.68V98.96C93.7572 99.3867 93.3785 99.7067 92.8879 99.92C92.4079 100.133 91.8692 100.24 91.2719 100.24C90.4399 100.24 89.7625 100.064 89.2399 99.712C88.7172 99.36 88.4559 98.816 88.4559 98.08C88.4559 97.4933 88.6212 97.024 88.9519 96.672C89.2825 96.3093 89.7145 96.0373 90.2479 95.856C90.7812 95.664 91.4479 95.4933 92.2479 95.344L93.9759 95.04V94.528C93.9759 93.984 93.7892 93.5627 93.4159 93.264C93.0425 92.9547 92.5519 92.8 91.9439 92.8C91.4852 92.8 91.0692 92.8853 90.6959 93.056C90.3225 93.2267 89.9225 93.52 89.4959 93.936C89.4212 94.0107 89.3412 94.048 89.2559 94.048C89.1812 94.048 89.1119 94.016 89.0479 93.952L88.8399 93.76C88.7652 93.6853 88.7279 93.6053 88.7279 93.52C88.7279 93.424 88.7652 93.3387 88.8399 93.264C89.2879 92.7947 89.7572 92.4533 90.2479 92.24C90.7492 92.0267 91.2985 91.92 91.8959 91.92ZM91.3199 99.36C92.0879 99.36 92.7225 99.1573 93.2239 98.752C93.7252 98.3467 93.9759 97.8293 93.9759 97.2V95.856L92.4879 96.144C91.7945 96.2827 91.2452 96.416 90.8399 96.544C90.4345 96.672 90.1092 96.8587 89.8639 97.104C89.6185 97.3493 89.4959 97.6693 89.4959 98.064C89.4959 98.4693 89.6559 98.7893 89.9759 99.024C90.3065 99.248 90.7545 99.36 91.3199 99.36ZM105.341 91.92C106.194 91.92 106.845 92.1653 107.293 92.656C107.751 93.136 107.981 93.7547 107.981 94.512V99.68C107.981 99.8933 107.874 100 107.661 100H107.245C107.031 100 106.925 99.8933 106.925 99.68V94.8C106.925 94.16 106.775 93.6693 106.477 93.328C106.189 92.9867 105.757 92.816 105.181 92.816C104.573 92.816 104.087 93.0187 103.725 93.424C103.362 93.8293 103.181 94.352 103.181 94.992V99.68C103.181 99.8933 103.074 100 102.861 100H102.445C102.231 100 102.125 99.8933 102.125 99.68V94.8C102.125 94.16 101.975 93.6693 101.677 93.328C101.389 92.9867 100.951 92.816 100.365 92.816C99.8206 92.816 99.3673 92.9867 99.0046 93.328C98.6526 93.6693 98.4446 94.1173 98.3806 94.672V99.68C98.3806 99.8933 98.274 100 98.0606 100H97.6446C97.4313 100 97.3246 99.8933 97.3246 99.68V92.432C97.3246 92.2187 97.4313 92.112 97.6446 92.112H97.9966C98.21 92.112 98.3166 92.2187 98.3166 92.432V93.088C98.7966 92.3093 99.5593 91.92 100.605 91.92C101.149 91.92 101.613 92.0427 101.997 92.288C102.391 92.5227 102.685 92.8427 102.877 93.248C103.442 92.3627 104.263 91.92 105.341 91.92ZM116.053 98.128C116.128 98.0533 116.208 98.016 116.293 98.016C116.368 98.016 116.437 98.048 116.501 98.112L116.709 98.304C116.784 98.3787 116.821 98.4587 116.821 98.544C116.821 98.608 116.789 98.6827 116.725 98.768C116.202 99.2907 115.696 99.664 115.205 99.888C114.714 100.101 114.165 100.208 113.557 100.208C112.789 100.208 112.122 100.037 111.557 99.696C110.992 99.3547 110.554 98.88 110.245 98.272C109.936 97.6533 109.781 96.9387 109.781 96.128C109.781 95.3067 109.93 94.5813 110.229 93.952C110.538 93.312 110.97 92.816 111.525 92.464C112.08 92.1013 112.72 91.92 113.445 91.92C114.522 91.92 115.37 92.256 115.989 92.928C116.608 93.6 116.917 94.5067 116.917 95.648V95.84C116.906 95.936 116.869 96.0107 116.805 96.064C116.752 96.1173 116.677 96.144 116.581 96.144H110.853C110.885 97.04 111.12 97.7973 111.557 98.416C112.005 99.024 112.672 99.328 113.557 99.328C114.037 99.328 114.458 99.2427 114.821 99.072C115.194 98.8907 115.605 98.576 116.053 98.128ZM113.445 92.8C112.741 92.8 112.16 93.0187 111.701 93.456C111.253 93.8827 110.981 94.512 110.885 95.344H115.861C115.84 94.5653 115.616 93.9467 115.189 93.488C114.762 93.0293 114.181 92.8 113.445 92.8ZM128.169 92.8C128.276 92.8 128.35 92.832 128.393 92.896C128.446 92.96 128.462 93.0453 128.441 93.152L127.641 96.976C127.566 97.296 127.529 97.5733 127.529 97.808C127.529 98.6293 127.934 99.04 128.745 99.04C129.14 99.04 129.502 98.9067 129.833 98.64C130.164 98.3627 130.425 97.968 130.617 97.456C130.809 96.944 130.905 96.3413 130.905 95.648C130.905 94.4533 130.649 93.44 130.137 92.608C129.625 91.7653 128.942 91.1307 128.089 90.704C127.246 90.2773 126.313 90.064 125.289 90.064C124.116 90.064 123.076 90.3413 122.169 90.896C121.262 91.44 120.558 92.192 120.057 93.152C119.556 94.1013 119.305 95.1627 119.305 96.336C119.305 97.4773 119.545 98.5013 120.025 99.408C120.505 100.304 121.214 101.008 122.153 101.52C123.092 102.043 124.222 102.304 125.545 102.304H128.633C128.846 102.304 128.953 102.411 128.953 102.624V102.72C128.953 102.933 128.846 103.04 128.633 103.04H125.305C123.897 103.04 122.67 102.752 121.625 102.176C120.59 101.611 119.796 100.821 119.241 99.808C118.697 98.784 118.425 97.616 118.425 96.304C118.425 94.9707 118.702 93.776 119.257 92.72C119.812 91.6533 120.606 90.8213 121.641 90.224C122.676 89.616 123.876 89.312 125.241 89.312C126.51 89.312 127.641 89.5733 128.633 90.096C129.625 90.608 130.398 91.3387 130.953 92.288C131.508 93.2373 131.785 94.3413 131.785 95.6C131.785 96.4427 131.652 97.1787 131.385 97.808C131.118 98.4373 130.75 98.928 130.281 99.28C129.812 99.6213 129.278 99.792 128.681 99.792C127.998 99.792 127.502 99.6267 127.193 99.296C126.894 98.9547 126.729 98.5707 126.697 98.144C126.356 98.6773 125.961 99.088 125.513 99.376C125.065 99.6533 124.532 99.792 123.913 99.792C123.209 99.792 122.654 99.584 122.249 99.168C121.844 98.7413 121.641 98.1493 121.641 97.392C121.641 96.6453 121.796 95.9093 122.105 95.184C122.425 94.448 122.873 93.8453 123.449 93.376C124.025 92.9067 124.681 92.672 125.417 92.672C125.972 92.672 126.414 92.7947 126.745 93.04C127.086 93.2747 127.3 93.5947 127.385 94L127.561 93.088C127.593 92.896 127.71 92.8 127.913 92.8H128.169ZM124.041 98.976C124.67 98.976 125.198 98.7573 125.625 98.32C126.062 97.872 126.388 97.344 126.601 96.736C126.814 96.1173 126.921 95.568 126.921 95.088C126.921 94.544 126.809 94.1387 126.585 93.872C126.361 93.5947 125.982 93.456 125.449 93.456C124.905 93.456 124.414 93.648 123.977 94.032C123.55 94.416 123.214 94.9067 122.969 95.504C122.734 96.1013 122.617 96.6987 122.617 97.296C122.617 97.8613 122.74 98.2827 122.985 98.56C123.241 98.8373 123.593 98.976 124.041 98.976ZM141.778 91.92C142.631 91.92 143.282 92.1653 143.73 92.656C144.189 93.136 144.418 93.7547 144.418 94.512V99.68C144.418 99.8933 144.311 100 144.098 100H143.682C143.469 100 143.362 99.8933 143.362 99.68V94.8C143.362 94.16 143.213 93.6693 142.914 93.328C142.626 92.9867 142.194 92.816 141.618 92.816C141.01 92.816 140.525 93.0187 140.162 93.424C139.799 93.8293 139.618 94.352 139.618 94.992V99.68C139.618 99.8933 139.511 100 139.298 100H138.882C138.669 100 138.562 99.8933 138.562 99.68V94.8C138.562 94.16 138.413 93.6693 138.114 93.328C137.826 92.9867 137.389 92.816 136.802 92.816C136.258 92.816 135.805 92.9867 135.442 93.328C135.09 93.6693 134.882 94.1173 134.818 94.672V99.68C134.818 99.8933 134.711 100 134.498 100H134.082C133.869 100 133.762 99.8933 133.762 99.68V92.432C133.762 92.2187 133.869 92.112 134.082 92.112H134.434C134.647 92.112 134.754 92.2187 134.754 92.432V93.088C135.234 92.3093 135.997 91.92 137.042 91.92C137.586 91.92 138.05 92.0427 138.434 92.288C138.829 92.5227 139.122 92.8427 139.314 93.248C139.879 92.3627 140.701 91.92 141.778 91.92ZM149.786 91.92C150.757 91.92 151.515 92.1547 152.059 92.624C152.603 93.0827 152.875 93.6907 152.875 94.448V99.68C152.875 99.8933 152.768 100 152.555 100H152.235C152.021 100 151.915 99.8933 151.915 99.68V98.96C151.648 99.3867 151.269 99.7067 150.779 99.92C150.299 100.133 149.76 100.24 149.163 100.24C148.331 100.24 147.653 100.064 147.131 99.712C146.608 99.36 146.347 98.816 146.347 98.08C146.347 97.4933 146.512 97.024 146.843 96.672C147.173 96.3093 147.605 96.0373 148.139 95.856C148.672 95.664 149.339 95.4933 150.139 95.344L151.867 95.04V94.528C151.867 93.984 151.68 93.5627 151.307 93.264C150.933 92.9547 150.443 92.8 149.835 92.8C149.376 92.8 148.96 92.8853 148.587 93.056C148.213 93.2267 147.813 93.52 147.387 93.936C147.312 94.0107 147.232 94.048 147.147 94.048C147.072 94.048 147.003 94.016 146.939 93.952L146.731 93.76C146.656 93.6853 146.618 93.6053 146.618 93.52C146.618 93.424 146.656 93.3387 146.731 93.264C147.179 92.7947 147.648 92.4533 148.139 92.24C148.64 92.0267 149.189 91.92 149.786 91.92ZM149.211 99.36C149.979 99.36 150.613 99.1573 151.115 98.752C151.616 98.3467 151.867 97.8293 151.867 97.2V95.856L150.379 96.144C149.685 96.2827 149.136 96.416 148.731 96.544C148.325 96.672 148 96.8587 147.755 97.104C147.509 97.3493 147.387 97.6693 147.387 98.064C147.387 98.4693 147.547 98.7893 147.867 99.024C148.197 99.248 148.645 99.36 149.211 99.36ZM155.743 90.112C155.53 90.112 155.349 90.0373 155.199 89.888C155.061 89.7387 154.991 89.5573 154.991 89.344C154.991 89.1307 155.061 88.9547 155.199 88.816C155.349 88.6773 155.53 88.608 155.743 88.608C155.967 88.608 156.149 88.6773 156.287 88.816C156.437 88.9547 156.511 89.1307 156.511 89.344C156.511 89.5573 156.437 89.7387 156.287 89.888C156.149 90.0373 155.967 90.112 155.743 90.112ZM155.535 100C155.322 100 155.215 99.8933 155.215 99.68V92.432C155.215 92.2187 155.322 92.112 155.535 92.112H155.951C156.165 92.112 156.271 92.2187 156.271 92.432V99.68C156.271 99.8933 156.165 100 155.951 100H155.535ZM158.958 100C158.744 100 158.638 99.8933 158.638 99.68V88.96C158.638 88.7467 158.744 88.64 158.958 88.64H159.374C159.587 88.64 159.694 88.7467 159.694 88.96V99.68C159.694 99.8933 159.587 100 159.374 100H158.958ZM162.507 100.112C162.283 100.112 162.091 100.032 161.931 99.872C161.771 99.712 161.691 99.52 161.691 99.296C161.691 99.072 161.771 98.88 161.931 98.72C162.091 98.56 162.283 98.48 162.507 98.48C162.731 98.48 162.923 98.56 163.083 98.72C163.243 98.88 163.323 99.072 163.323 99.296C163.323 99.52 163.243 99.712 163.083 99.872C162.923 100.032 162.731 100.112 162.507 100.112ZM168.353 100.208C167.595 100.208 166.934 100.037 166.369 99.696C165.814 99.344 165.382 98.8587 165.073 98.24C164.774 97.6107 164.625 96.8853 164.625 96.064C164.625 95.2533 164.774 94.5333 165.073 93.904C165.382 93.2747 165.814 92.7893 166.369 92.448C166.934 92.096 167.585 91.92 168.321 91.92C168.918 91.92 169.441 92.0213 169.889 92.224C170.337 92.416 170.769 92.736 171.185 93.184C171.249 93.248 171.281 93.3173 171.281 93.392C171.281 93.488 171.238 93.568 171.153 93.632L170.929 93.84C170.865 93.904 170.79 93.936 170.705 93.936C170.63 93.936 170.55 93.8933 170.465 93.808C170.091 93.4347 169.734 93.1733 169.393 93.024C169.062 92.8747 168.694 92.8 168.289 92.8C167.734 92.8 167.259 92.9547 166.865 93.264C166.481 93.5733 166.193 93.9787 166.001 94.48C165.809 94.9707 165.713 95.4987 165.713 96.064C165.713 96.6293 165.809 97.1627 166.001 97.664C166.193 98.1547 166.486 98.5547 166.881 98.864C167.275 99.1627 167.761 99.312 168.337 99.312C168.763 99.312 169.137 99.2373 169.457 99.088C169.787 98.928 170.155 98.6293 170.561 98.192C170.646 98.1067 170.726 98.064 170.801 98.064C170.886 98.064 170.961 98.096 171.025 98.16L171.249 98.336C171.323 98.4 171.361 98.4747 171.361 98.56C171.361 98.6453 171.313 98.7467 171.217 98.864C170.769 99.3547 170.321 99.7013 169.873 99.904C169.425 100.107 168.918 100.208 168.353 100.208ZM176.182 100.208C175.446 100.208 174.79 100.032 174.214 99.68C173.638 99.328 173.19 98.8427 172.87 98.224C172.55 97.5947 172.39 96.8747 172.39 96.064C172.39 95.2533 172.55 94.5387 172.87 93.92C173.19 93.2907 173.638 92.8 174.214 92.448C174.79 92.096 175.446 91.92 176.182 91.92C176.918 91.92 177.574 92.096 178.15 92.448C178.726 92.8 179.174 93.2907 179.494 93.92C179.814 94.5387 179.974 95.2533 179.974 96.064C179.974 96.8747 179.814 97.5947 179.494 98.224C179.174 98.8427 178.726 99.328 178.15 99.68C177.574 100.032 176.918 100.208 176.182 100.208ZM176.182 99.328C177.004 99.328 177.66 99.0293 178.15 98.432C178.641 97.824 178.886 97.0347 178.886 96.064C178.886 95.0933 178.641 94.3093 178.15 93.712C177.66 93.104 177.004 92.8 176.182 92.8C175.361 92.8 174.705 93.104 174.214 93.712C173.724 94.3093 173.478 95.0933 173.478 96.064C173.478 97.0347 173.724 97.824 174.214 98.432C174.705 99.0293 175.361 99.328 176.182 99.328ZM189.825 91.92C190.678 91.92 191.329 92.1653 191.777 92.656C192.236 93.136 192.465 93.7547 192.465 94.512V99.68C192.465 99.8933 192.358 100 192.145 100H191.729C191.516 100 191.409 99.8933 191.409 99.68V94.8C191.409 94.16 191.26 93.6693 190.961 93.328C190.673 92.9867 190.241 92.816 189.665 92.816C189.057 92.816 188.572 93.0187 188.209 93.424C187.846 93.8293 187.665 94.352 187.665 94.992V99.68C187.665 99.8933 187.558 100 187.345 100H186.929C186.716 100 186.609 99.8933 186.609 99.68V94.8C186.609 94.16 186.46 93.6693 186.161 93.328C185.873 92.9867 185.436 92.816 184.849 92.816C184.305 92.816 183.852 92.9867 183.489 93.328C183.137 93.6693 182.929 94.1173 182.865 94.672V99.68C182.865 99.8933 182.758 100 182.545 100H182.129C181.916 100 181.809 99.8933 181.809 99.68V92.432C181.809 92.2187 181.916 92.112 182.129 92.112H182.481C182.694 92.112 182.801 92.2187 182.801 92.432V93.088C183.281 92.3093 184.044 91.92 185.089 91.92C185.633 91.92 186.097 92.0427 186.481 92.288C186.876 92.5227 187.169 92.8427 187.361 93.248C187.926 92.3627 188.748 91.92 189.825 91.92Z" fill="#C3CCD9"/>
</g>
<rect x="71.5" y="71.5" width="202" height="47" rx="3.5" stroke="#C3CCD9"/>
<defs>
<clipPath id="clip0_899_92736">
<rect width="187" height="22" fill="white" transform="translate(79 84)"/>
</clipPath>
</defs>
</svg>
