<svg width="344" height="260" viewBox="0 0 344 260" fill="none" xmlns="http://www.w3.org/2000/svg">
<path d="M71.568 54C71.4187 54 71.2973 53.958 71.204 53.874C71.12 53.7807 71.078 53.6593 71.078 53.51V44.55C71.078 44.3913 71.12 44.27 71.204 44.186C71.2973 44.102 71.4187 44.06 71.568 44.06H77.378C77.5367 44.06 77.658 44.102 77.742 44.186C77.826 44.27 77.868 44.3913 77.868 44.55V44.914C77.868 45.0633 77.826 45.1847 77.742 45.278C77.658 45.362 77.5367 45.404 77.378 45.404H72.674V48.204H77.028C77.1867 48.204 77.308 48.246 77.392 48.33C77.476 48.414 77.518 48.5353 77.518 48.694V49.058C77.518 49.2073 77.476 49.3287 77.392 49.422C77.308 49.506 77.1867 49.548 77.028 49.548H72.674V52.656H77.518C77.6767 52.656 77.798 52.698 77.882 52.782C77.966 52.866 78.008 52.9873 78.008 53.146V53.51C78.008 53.6593 77.966 53.7807 77.882 53.874C77.798 53.958 77.6767 54 77.518 54H71.568ZM86.9143 46.888C87.6516 46.888 88.221 47.098 88.6223 47.518C89.0236 47.9287 89.2243 48.484 89.2243 49.184V53.51C89.2243 53.6593 89.1823 53.7807 89.0983 53.874C89.0143 53.958 88.893 54 88.7343 54H88.2303C88.081 54 87.9596 53.958 87.8663 53.874C87.7823 53.7807 87.7403 53.6593 87.7403 53.51V49.632C87.7403 49.1747 87.6376 48.8153 87.4323 48.554C87.227 48.2927 86.9143 48.162 86.4943 48.162C86.065 48.162 85.7243 48.3067 85.4723 48.596C85.2296 48.8853 85.1083 49.2587 85.1083 49.716V53.51C85.1083 53.6593 85.0663 53.7807 84.9823 53.874C84.8983 53.958 84.777 54 84.6183 54H84.1143C83.965 54 83.8436 53.958 83.7503 53.874C83.6663 53.7807 83.6243 53.6593 83.6243 53.51V49.632C83.6243 49.1747 83.5216 48.8153 83.3163 48.554C83.1203 48.2927 82.8123 48.162 82.3923 48.162C81.9816 48.162 81.6503 48.2973 81.3983 48.568C81.1463 48.8387 81.011 49.1887 80.9923 49.618V53.51C80.9923 53.6593 80.9503 53.7807 80.8663 53.874C80.7823 53.958 80.661 54 80.5023 54H79.9983C79.849 54 79.7276 53.958 79.6343 53.874C79.5503 53.7807 79.5083 53.6593 79.5083 53.51V47.588C79.5083 47.4293 79.5503 47.308 79.6343 47.224C79.7276 47.14 79.849 47.098 79.9983 47.098H80.4043C80.563 47.098 80.6843 47.14 80.7683 47.224C80.8523 47.308 80.8943 47.4293 80.8943 47.588V47.896C81.3236 47.224 81.9863 46.888 82.8823 46.888C83.3303 46.888 83.7223 46.9813 84.0583 47.168C84.3943 47.3547 84.651 47.616 84.8283 47.952C85.3043 47.2427 85.9996 46.888 86.9143 46.888ZM93.8363 46.888C94.7696 46.888 95.4883 47.1073 95.9923 47.546C96.4963 47.9753 96.7483 48.5493 96.7483 49.268V53.51C96.7483 53.6593 96.7063 53.7807 96.6223 53.874C96.5383 53.958 96.417 54 96.2583 54H95.8943C95.745 54 95.6236 53.958 95.5303 53.874C95.4463 53.7807 95.4043 53.6593 95.4043 53.51V53.202C95.1803 53.5287 94.8723 53.7807 94.4803 53.958C94.0883 54.1353 93.631 54.224 93.1083 54.224C92.3896 54.224 91.797 54.0653 91.3303 53.748C90.873 53.4213 90.6443 52.9313 90.6443 52.278C90.6443 51.55 90.915 51.0133 91.4563 50.668C92.007 50.3133 92.7676 50.0473 93.7383 49.87L95.3203 49.576V49.324C95.3203 48.9413 95.185 48.6473 94.9143 48.442C94.653 48.2273 94.303 48.12 93.8643 48.12C93.491 48.12 93.1643 48.1853 92.8843 48.316C92.6136 48.4373 92.3196 48.6427 92.0023 48.932C91.881 49.0347 91.7643 49.086 91.6523 49.086C91.5403 49.086 91.4236 49.0347 91.3023 48.932L91.0783 48.736C90.957 48.624 90.8963 48.5027 90.8963 48.372C90.8963 48.2507 90.9523 48.134 91.0643 48.022C91.4656 47.6393 91.8903 47.3547 92.3383 47.168C92.7863 46.9813 93.2856 46.888 93.8363 46.888ZM93.3183 53.034C93.8783 53.034 94.3496 52.8847 94.7323 52.586C95.1243 52.2873 95.3203 51.858 95.3203 51.298V50.654L94.1023 50.906C93.421 51.046 92.917 51.2047 92.5903 51.382C92.2636 51.5593 92.1003 51.83 92.1003 52.194C92.1003 52.4553 92.2076 52.6607 92.4223 52.81C92.637 52.9593 92.9356 53.034 93.3183 53.034ZM99.1998 45.754C98.9292 45.754 98.7005 45.6653 98.5138 45.488C98.3272 45.3013 98.2338 45.082 98.2338 44.83C98.2338 44.5687 98.3272 44.3493 98.5138 44.172C98.7005 43.9947 98.9292 43.906 99.1998 43.906C99.4705 43.906 99.6992 43.9947 99.8858 44.172C100.073 44.3493 100.166 44.5687 100.166 44.83C100.166 45.082 100.073 45.3013 99.8858 45.488C99.6992 45.6653 99.4705 45.754 99.1998 45.754ZM98.9338 54C98.7845 54 98.6632 53.958 98.5698 53.874C98.4858 53.7807 98.4438 53.6593 98.4438 53.51V47.588C98.4438 47.4293 98.4858 47.308 98.5698 47.224C98.6632 47.14 98.7845 47.098 98.9338 47.098H99.4378C99.5965 47.098 99.7178 47.14 99.8018 47.224C99.8858 47.308 99.9278 47.4293 99.9278 47.588V53.51C99.9278 53.6593 99.8858 53.7807 99.8018 53.874C99.7178 53.958 99.5965 54 99.4378 54H98.9338ZM102.189 54C102.04 54 101.918 53.958 101.825 53.874C101.741 53.7807 101.699 53.6593 101.699 53.51V44.55C101.699 44.3913 101.741 44.27 101.825 44.186C101.918 44.102 102.04 44.06 102.189 44.06H102.693C102.852 44.06 102.973 44.102 103.057 44.186C103.141 44.27 103.183 44.3913 103.183 44.55V53.51C103.183 53.6593 103.141 53.7807 103.057 53.874C102.973 53.958 102.852 54 102.693 54H102.189Z" fill="#464646"/>
<rect x="70.5" y="62.5" width="202" height="47" rx="3.5" fill="white"/>
<g clip-path="url(#clip0_899_28614)">
<path d="M82.192 80.328C81.712 80.328 81.3707 80.456 81.168 80.712C80.9653 80.9573 80.864 81.3733 80.864 81.96V83.112H82.624C82.8373 83.112 82.944 83.2187 82.944 83.432V83.592C82.944 83.8053 82.8373 83.912 82.624 83.912H80.864V90.68C80.864 90.8933 80.7573 91 80.544 91H80.128C79.9147 91 79.808 90.8933 79.808 90.68V83.912H78.624C78.4107 83.912 78.304 83.8053 78.304 83.592V83.432C78.304 83.2187 78.4107 83.112 78.624 83.112H79.808V81.784C79.808 81.048 80 80.472 80.384 80.056C80.7787 79.64 81.3387 79.432 82.064 79.432C82.4693 79.432 82.8853 79.4907 83.312 79.608C83.5147 79.672 83.5893 79.8053 83.536 80.008L83.472 80.232C83.4187 80.3813 83.312 80.456 83.152 80.456C83.12 80.456 83.0507 80.4453 82.944 80.424C82.7093 80.36 82.4587 80.328 82.192 80.328ZM87.224 82.92C88.1947 82.92 88.952 83.1547 89.496 83.624C90.04 84.0827 90.312 84.6907 90.312 85.448V90.68C90.312 90.8933 90.2053 91 89.992 91H89.672C89.4587 91 89.352 90.8933 89.352 90.68V89.96C89.0853 90.3867 88.7067 90.7067 88.216 90.92C87.736 91.1333 87.1973 91.24 86.6 91.24C85.768 91.24 85.0907 91.064 84.568 90.712C84.0453 90.36 83.784 89.816 83.784 89.08C83.784 88.4933 83.9493 88.024 84.28 87.672C84.6107 87.3093 85.0427 87.0373 85.576 86.856C86.1093 86.664 86.776 86.4933 87.576 86.344L89.304 86.04V85.528C89.304 84.984 89.1173 84.5627 88.744 84.264C88.3707 83.9547 87.88 83.8 87.272 83.8C86.8133 83.8 86.3973 83.8853 86.024 84.056C85.6507 84.2267 85.2507 84.52 84.824 84.936C84.7493 85.0107 84.6693 85.048 84.584 85.048C84.5093 85.048 84.44 85.016 84.376 84.952L84.168 84.76C84.0933 84.6853 84.056 84.6053 84.056 84.52C84.056 84.424 84.0933 84.3387 84.168 84.264C84.616 83.7947 85.0853 83.4533 85.576 83.24C86.0773 83.0267 86.6267 82.92 87.224 82.92ZM86.648 90.36C87.416 90.36 88.0507 90.1573 88.552 89.752C89.0533 89.3467 89.304 88.8293 89.304 88.2V86.856L87.816 87.144C87.1227 87.2827 86.5733 87.416 86.168 87.544C85.7627 87.672 85.4373 87.8587 85.192 88.104C84.9467 88.3493 84.824 88.6693 84.824 89.064C84.824 89.4693 84.984 89.7893 85.304 90.024C85.6347 90.248 86.0827 90.36 86.648 90.36ZM96.4288 82.936C97.1008 82.936 97.6981 83.112 98.2208 83.464C98.7541 83.8053 99.1648 84.2907 99.4528 84.92C99.7514 85.5387 99.9008 86.2533 99.9008 87.064C99.9008 87.8747 99.7514 88.5947 99.4528 89.224C99.1541 89.8427 98.7381 90.328 98.2048 90.68C97.6821 91.0213 97.0901 91.192 96.4288 91.192C95.1594 91.192 94.2314 90.7013 93.6448 89.72V90.68C93.6448 90.8933 93.5381 91 93.3248 91H92.9728C92.7594 91 92.6528 90.8933 92.6528 90.68V79.944C92.6528 79.7307 92.7594 79.624 92.9728 79.624H93.3888C93.6021 79.624 93.7088 79.7307 93.7088 79.944V84.36C94.2954 83.4107 95.2021 82.936 96.4288 82.936ZM96.3488 90.296C97.0848 90.296 97.6768 89.9973 98.1248 89.4C98.5834 88.8027 98.8128 88.024 98.8128 87.064C98.8128 86.104 98.5834 85.3253 98.1248 84.728C97.6768 84.1307 97.0848 83.832 96.3488 83.832C95.5594 83.832 94.9141 84.12 94.4128 84.696C93.9114 85.272 93.6608 86.0613 93.6608 87.064C93.6608 88.0773 93.9061 88.872 94.3968 89.448C94.8981 90.0133 95.5488 90.296 96.3488 90.296ZM104.722 83.048C104.988 83.048 105.303 83.0907 105.666 83.176C105.858 83.24 105.932 83.3733 105.89 83.576L105.826 83.832C105.772 84.0347 105.639 84.1093 105.426 84.056C105.17 83.992 104.935 83.96 104.722 83.96C104.178 83.96 103.724 84.1947 103.362 84.664C103.01 85.1333 102.834 85.784 102.834 86.616V90.68C102.834 90.8933 102.727 91 102.514 91H102.098C101.884 91 101.778 90.8933 101.778 90.68V83.432C101.778 83.2187 101.884 83.112 102.098 83.112H102.45C102.663 83.112 102.77 83.2187 102.77 83.432V84.312C102.951 83.9173 103.207 83.608 103.538 83.384C103.879 83.16 104.274 83.048 104.722 83.048ZM107.853 81.112C107.639 81.112 107.458 81.0373 107.309 80.888C107.17 80.7387 107.101 80.5573 107.101 80.344C107.101 80.1307 107.17 79.9547 107.309 79.816C107.458 79.6773 107.639 79.608 107.853 79.608C108.077 79.608 108.258 79.6773 108.397 79.816C108.546 79.9547 108.621 80.1307 108.621 80.344C108.621 80.5573 108.546 80.7387 108.397 80.888C108.258 81.0373 108.077 81.112 107.853 81.112ZM107.645 91C107.431 91 107.325 90.8933 107.325 90.68V83.432C107.325 83.2187 107.431 83.112 107.645 83.112H108.061C108.274 83.112 108.381 83.2187 108.381 83.432V90.68C108.381 90.8933 108.274 91 108.061 91H107.645ZM113.931 91.208C113.174 91.208 112.512 91.0373 111.947 90.696C111.392 90.344 110.96 89.8587 110.651 89.24C110.352 88.6107 110.203 87.8853 110.203 87.064C110.203 86.2533 110.352 85.5333 110.651 84.904C110.96 84.2747 111.392 83.7893 111.947 83.448C112.512 83.096 113.163 82.92 113.899 82.92C114.496 82.92 115.019 83.0213 115.467 83.224C115.915 83.416 116.347 83.736 116.763 84.184C116.827 84.248 116.859 84.3173 116.859 84.392C116.859 84.488 116.816 84.568 116.731 84.632L116.507 84.84C116.443 84.904 116.368 84.936 116.283 84.936C116.208 84.936 116.128 84.8933 116.043 84.808C115.67 84.4347 115.312 84.1733 114.971 84.024C114.64 83.8747 114.272 83.8 113.867 83.8C113.312 83.8 112.838 83.9547 112.443 84.264C112.059 84.5733 111.771 84.9787 111.579 85.48C111.387 85.9707 111.291 86.4987 111.291 87.064C111.291 87.6293 111.387 88.1627 111.579 88.664C111.771 89.1547 112.064 89.5547 112.459 89.864C112.854 90.1627 113.339 90.312 113.915 90.312C114.342 90.312 114.715 90.2373 115.035 90.088C115.366 89.928 115.734 89.6293 116.139 89.192C116.224 89.1067 116.304 89.064 116.379 89.064C116.464 89.064 116.539 89.096 116.603 89.16L116.827 89.336C116.902 89.4 116.939 89.4747 116.939 89.56C116.939 89.6453 116.891 89.7467 116.795 89.864C116.347 90.3547 115.899 90.7013 115.451 90.904C115.003 91.1067 114.496 91.208 113.931 91.208ZM128.013 83.8C128.119 83.8 128.194 83.832 128.237 83.896C128.29 83.96 128.306 84.0453 128.285 84.152L127.485 87.976C127.41 88.296 127.373 88.5733 127.373 88.808C127.373 89.6293 127.778 90.04 128.589 90.04C128.983 90.04 129.346 89.9067 129.677 89.64C130.007 89.3627 130.269 88.968 130.461 88.456C130.653 87.944 130.749 87.3413 130.749 86.648C130.749 85.4533 130.493 84.44 129.981 83.608C129.469 82.7653 128.786 82.1307 127.933 81.704C127.09 81.2773 126.157 81.064 125.133 81.064C123.959 81.064 122.919 81.3413 122.013 81.896C121.106 82.44 120.402 83.192 119.901 84.152C119.399 85.1013 119.149 86.1627 119.149 87.336C119.149 88.4773 119.389 89.5013 119.869 90.408C120.349 91.304 121.058 92.008 121.997 92.52C122.935 93.0427 124.066 93.304 125.389 93.304H128.477C128.69 93.304 128.797 93.4107 128.797 93.624V93.72C128.797 93.9333 128.69 94.04 128.477 94.04H125.149C123.741 94.04 122.514 93.752 121.469 93.176C120.434 92.6107 119.639 91.8213 119.085 90.808C118.541 89.784 118.269 88.616 118.269 87.304C118.269 85.9707 118.546 84.776 119.101 83.72C119.655 82.6533 120.45 81.8213 121.485 81.224C122.519 80.616 123.719 80.312 125.085 80.312C126.354 80.312 127.485 80.5733 128.477 81.096C129.469 81.608 130.242 82.3387 130.797 83.288C131.351 84.2373 131.629 85.3413 131.629 86.6C131.629 87.4427 131.495 88.1787 131.229 88.808C130.962 89.4373 130.594 89.928 130.125 90.28C129.655 90.6213 129.122 90.792 128.525 90.792C127.842 90.792 127.346 90.6267 127.037 90.296C126.738 89.9547 126.573 89.5707 126.541 89.144C126.199 89.6773 125.805 90.088 125.357 90.376C124.909 90.6533 124.375 90.792 123.757 90.792C123.053 90.792 122.498 90.584 122.093 90.168C121.687 89.7413 121.485 89.1493 121.485 88.392C121.485 87.6453 121.639 86.9093 121.949 86.184C122.269 85.448 122.717 84.8453 123.293 84.376C123.869 83.9067 124.525 83.672 125.261 83.672C125.815 83.672 126.258 83.7947 126.589 84.04C126.93 84.2747 127.143 84.5947 127.229 85L127.405 84.088C127.437 83.896 127.554 83.8 127.757 83.8H128.013ZM123.885 89.976C124.514 89.976 125.042 89.7573 125.469 89.32C125.906 88.872 126.231 88.344 126.445 87.736C126.658 87.1173 126.765 86.568 126.765 86.088C126.765 85.544 126.653 85.1387 126.429 84.872C126.205 84.5947 125.826 84.456 125.293 84.456C124.749 84.456 124.258 84.648 123.821 85.032C123.394 85.416 123.058 85.9067 122.813 86.504C122.578 87.1013 122.461 87.6987 122.461 88.296C122.461 88.8613 122.583 89.2827 122.829 89.56C123.085 89.8373 123.437 89.976 123.885 89.976ZM136.614 80.328C136.134 80.328 135.793 80.456 135.59 80.712C135.387 80.9573 135.286 81.3733 135.286 81.96V83.112H137.046C137.259 83.112 137.366 83.2187 137.366 83.432V83.592C137.366 83.8053 137.259 83.912 137.046 83.912H135.286V90.68C135.286 90.8933 135.179 91 134.966 91H134.55C134.337 91 134.23 90.8933 134.23 90.68V83.912H133.046C132.833 83.912 132.726 83.8053 132.726 83.592V83.432C132.726 83.2187 132.833 83.112 133.046 83.112H134.23V81.784C134.23 81.048 134.422 80.472 134.806 80.056C135.201 79.64 135.761 79.432 136.486 79.432C136.891 79.432 137.307 79.4907 137.734 79.608C137.937 79.672 138.011 79.8053 137.958 80.008L137.894 80.232C137.841 80.3813 137.734 80.456 137.574 80.456C137.542 80.456 137.473 80.4453 137.366 80.424C137.131 80.36 136.881 80.328 136.614 80.328ZM139.446 81.112C139.233 81.112 139.052 81.0373 138.902 80.888C138.764 80.7387 138.694 80.5573 138.694 80.344C138.694 80.1307 138.764 79.9547 138.902 79.816C139.052 79.6773 139.233 79.608 139.446 79.608C139.67 79.608 139.852 79.6773 139.99 79.816C140.14 79.9547 140.214 80.1307 140.214 80.344C140.214 80.5573 140.14 80.7387 139.99 80.888C139.852 81.0373 139.67 81.112 139.446 81.112ZM139.238 91C139.025 91 138.918 90.8933 138.918 90.68V83.432C138.918 83.2187 139.025 83.112 139.238 83.112H139.654C139.868 83.112 139.974 83.2187 139.974 83.432V90.68C139.974 90.8933 139.868 91 139.654 91H139.238ZM145.845 82.92C146.773 82.92 147.471 83.176 147.941 83.688C148.421 84.2 148.661 84.84 148.661 85.608V90.68C148.661 90.8933 148.554 91 148.341 91H147.925C147.711 91 147.605 90.8933 147.605 90.68V85.96C147.605 85.256 147.434 84.7227 147.093 84.36C146.751 83.9973 146.261 83.816 145.621 83.816C145.215 83.816 144.842 83.9173 144.501 84.12C144.159 84.312 143.887 84.5787 143.685 84.92C143.482 85.2613 143.381 85.6347 143.381 86.04V90.68C143.381 90.8933 143.274 91 143.061 91H142.645C142.431 91 142.325 90.8933 142.325 90.68V83.432C142.325 83.2187 142.431 83.112 142.645 83.112H142.997C143.21 83.112 143.317 83.2187 143.317 83.432V84.2C143.583 83.7733 143.935 83.4533 144.373 83.24C144.81 83.0267 145.301 82.92 145.845 82.92ZM154.516 82.92C155.445 82.92 156.143 83.176 156.613 83.688C157.093 84.2 157.333 84.84 157.333 85.608V90.68C157.333 90.8933 157.226 91 157.013 91H156.597C156.383 91 156.277 90.8933 156.277 90.68V85.96C156.277 85.256 156.106 84.7227 155.765 84.36C155.423 83.9973 154.933 83.816 154.293 83.816C153.887 83.816 153.514 83.9173 153.173 84.12C152.831 84.312 152.559 84.5787 152.357 84.92C152.154 85.2613 152.053 85.6347 152.053 86.04V90.68C152.053 90.8933 151.946 91 151.733 91H151.317C151.103 91 150.997 90.8933 150.997 90.68V83.432C150.997 83.2187 151.103 83.112 151.317 83.112H151.669C151.882 83.112 151.989 83.2187 151.989 83.432V84.2C152.255 83.7733 152.607 83.4533 153.045 83.24C153.482 83.0267 153.973 82.92 154.516 82.92ZM160.1 91.112C159.876 91.112 159.684 91.032 159.524 90.872C159.364 90.712 159.284 90.52 159.284 90.296C159.284 90.072 159.364 89.88 159.524 89.72C159.684 89.56 159.876 89.48 160.1 89.48C160.324 89.48 160.516 89.56 160.676 89.72C160.836 89.88 160.916 90.072 160.916 90.296C160.916 90.52 160.836 90.712 160.676 90.872C160.516 91.032 160.324 91.112 160.1 91.112ZM166.423 82.92C167.351 82.92 168.049 83.176 168.519 83.688C168.999 84.2 169.239 84.84 169.239 85.608V90.68C169.239 90.8933 169.132 91 168.919 91H168.503C168.289 91 168.183 90.8933 168.183 90.68V85.96C168.183 85.256 168.012 84.7227 167.671 84.36C167.329 83.9973 166.839 83.816 166.199 83.816C165.793 83.816 165.42 83.9173 165.079 84.12C164.737 84.312 164.465 84.5787 164.263 84.92C164.06 85.2613 163.959 85.6347 163.959 86.04V90.68C163.959 90.8933 163.852 91 163.639 91H163.223C163.009 91 162.903 90.8933 162.903 90.68V83.432C162.903 83.2187 163.009 83.112 163.223 83.112H163.575C163.788 83.112 163.895 83.2187 163.895 83.432V84.2C164.161 83.7733 164.513 83.4533 164.951 83.24C165.388 83.0267 165.879 82.92 166.423 82.92ZM174.839 91.208C174.103 91.208 173.447 91.032 172.871 90.68C172.295 90.328 171.847 89.8427 171.527 89.224C171.207 88.5947 171.047 87.8747 171.047 87.064C171.047 86.2533 171.207 85.5387 171.527 84.92C171.847 84.2907 172.295 83.8 172.871 83.448C173.447 83.096 174.103 82.92 174.839 82.92C175.575 82.92 176.231 83.096 176.807 83.448C177.383 83.8 177.831 84.2907 178.151 84.92C178.471 85.5387 178.631 86.2533 178.631 87.064C178.631 87.8747 178.471 88.5947 178.151 89.224C177.831 89.8427 177.383 90.328 176.807 90.68C176.231 91.032 175.575 91.208 174.839 91.208ZM174.839 90.328C175.66 90.328 176.316 90.0293 176.807 89.432C177.297 88.824 177.543 88.0347 177.543 87.064C177.543 86.0933 177.297 85.3093 176.807 84.712C176.316 84.104 175.66 83.8 174.839 83.8C174.017 83.8 173.361 84.104 172.871 84.712C172.38 85.3093 172.135 86.0933 172.135 87.064C172.135 88.0347 172.38 88.824 172.871 89.432C173.361 90.0293 174.017 90.328 174.839 90.328Z" fill="#464646"/>
</g>
<rect x="70.5" y="62.5" width="202" height="47" rx="3.5" stroke="#C3CCD9"/>
<path d="M71.568 164C71.4187 164 71.2973 163.958 71.204 163.874C71.12 163.781 71.078 163.659 71.078 163.51V154.55C71.078 154.391 71.12 154.27 71.204 154.186C71.2973 154.102 71.4187 154.06 71.568 154.06H75.586C76.5753 154.06 77.364 154.335 77.952 154.886C78.54 155.427 78.834 156.169 78.834 157.112C78.834 158.055 78.54 158.797 77.952 159.338C77.364 159.879 76.5753 160.15 75.586 160.15H72.674V163.51C72.674 163.659 72.632 163.781 72.548 163.874C72.464 163.958 72.3427 164 72.184 164H71.568ZM75.334 158.82C75.9313 158.82 76.398 158.675 76.734 158.386C77.0793 158.087 77.252 157.663 77.252 157.112C77.252 156.552 77.0793 156.127 76.734 155.838C76.398 155.539 75.9313 155.39 75.334 155.39H72.674V158.82H75.334ZM82.8851 156.888C83.8185 156.888 84.5371 157.107 85.0411 157.546C85.5451 157.975 85.7971 158.549 85.7971 159.268V163.51C85.7971 163.659 85.7551 163.781 85.6711 163.874C85.5871 163.958 85.4658 164 85.3071 164H84.9431C84.7938 164 84.6725 163.958 84.5791 163.874C84.4951 163.781 84.4531 163.659 84.4531 163.51V163.202C84.2291 163.529 83.9211 163.781 83.5291 163.958C83.1371 164.135 82.6798 164.224 82.1571 164.224C81.4385 164.224 80.8458 164.065 80.3791 163.748C79.9218 163.421 79.6931 162.931 79.6931 162.278C79.6931 161.55 79.9638 161.013 80.5051 160.668C81.0558 160.313 81.8165 160.047 82.7871 159.87L84.3691 159.576V159.324C84.3691 158.941 84.2338 158.647 83.9631 158.442C83.7018 158.227 83.3518 158.12 82.9131 158.12C82.5398 158.12 82.2131 158.185 81.9331 158.316C81.6625 158.437 81.3685 158.643 81.0511 158.932C80.9298 159.035 80.8131 159.086 80.7011 159.086C80.5891 159.086 80.4725 159.035 80.3511 158.932L80.1271 158.736C80.0058 158.624 79.9451 158.503 79.9451 158.372C79.9451 158.251 80.0011 158.134 80.1131 158.022C80.5145 157.639 80.9391 157.355 81.3871 157.168C81.8351 156.981 82.3345 156.888 82.8851 156.888ZM82.3671 163.034C82.9271 163.034 83.3985 162.885 83.7811 162.586C84.1731 162.287 84.3691 161.858 84.3691 161.298V160.654L83.1511 160.906C82.4698 161.046 81.9658 161.205 81.6391 161.382C81.3125 161.559 81.1491 161.83 81.1491 162.194C81.1491 162.455 81.2565 162.661 81.4711 162.81C81.6858 162.959 81.9845 163.034 82.3671 163.034ZM90.1527 164.21C89.5833 164.21 89.0747 164.14 88.6267 164C88.188 163.851 87.74 163.594 87.2827 163.23C87.1427 163.127 87.0727 163.011 87.0727 162.88C87.0727 162.777 87.124 162.665 87.2267 162.544L87.4367 162.306C87.5487 162.175 87.67 162.11 87.8007 162.11C87.9033 162.11 88.0153 162.157 88.1367 162.25C88.5287 162.539 88.874 162.74 89.1727 162.852C89.4713 162.955 89.8073 163.006 90.1807 163.006C90.582 163.006 90.9087 162.927 91.1607 162.768C91.422 162.6 91.5527 162.376 91.5527 162.096C91.5527 161.881 91.478 161.713 91.3287 161.592C91.1887 161.461 91.002 161.363 90.7687 161.298C90.5353 161.223 90.19 161.139 89.7327 161.046C89.0887 160.906 88.5847 160.757 88.2207 160.598C87.866 160.43 87.6093 160.22 87.4507 159.968C87.292 159.716 87.2127 159.394 87.2127 159.002C87.2127 158.601 87.3247 158.241 87.5487 157.924C87.782 157.607 88.104 157.355 88.5147 157.168C88.9347 156.981 89.4247 156.888 89.9847 156.888C90.4887 156.888 90.9367 156.944 91.3287 157.056C91.73 157.168 92.122 157.359 92.5047 157.63C92.654 157.742 92.7287 157.868 92.7287 158.008C92.7287 158.101 92.682 158.209 92.5887 158.33L92.4067 158.554C92.304 158.685 92.178 158.75 92.0287 158.75C91.9167 158.75 91.8093 158.713 91.7067 158.638C91.3987 158.433 91.114 158.293 90.8527 158.218C90.5913 158.134 90.2973 158.092 89.9707 158.092C89.5693 158.092 89.2473 158.171 89.0047 158.33C88.762 158.489 88.6407 158.694 88.6407 158.946C88.6407 159.114 88.6967 159.249 88.8087 159.352C88.93 159.445 89.098 159.529 89.3127 159.604C89.5367 159.669 89.8867 159.753 90.3627 159.856C91.0067 159.996 91.5153 160.155 91.8887 160.332C92.2713 160.5 92.5513 160.719 92.7287 160.99C92.9153 161.251 93.0087 161.592 93.0087 162.012C93.0087 162.665 92.7473 163.197 92.2247 163.608C91.7113 164.009 91.0207 164.21 90.1527 164.21ZM96.9476 164.21C96.3783 164.21 95.8696 164.14 95.4216 164C94.9829 163.851 94.5349 163.594 94.0776 163.23C93.9376 163.127 93.8676 163.011 93.8676 162.88C93.8676 162.777 93.9189 162.665 94.0216 162.544L94.2316 162.306C94.3436 162.175 94.4649 162.11 94.5956 162.11C94.6983 162.11 94.8103 162.157 94.9316 162.25C95.3236 162.539 95.6689 162.74 95.9676 162.852C96.2663 162.955 96.6023 163.006 96.9756 163.006C97.3769 163.006 97.7036 162.927 97.9556 162.768C98.2169 162.6 98.3476 162.376 98.3476 162.096C98.3476 161.881 98.2729 161.713 98.1236 161.592C97.9836 161.461 97.7969 161.363 97.5636 161.298C97.3303 161.223 96.9849 161.139 96.5276 161.046C95.8836 160.906 95.3796 160.757 95.0156 160.598C94.6609 160.43 94.4043 160.22 94.2456 159.968C94.0869 159.716 94.0076 159.394 94.0076 159.002C94.0076 158.601 94.1196 158.241 94.3436 157.924C94.5769 157.607 94.8989 157.355 95.3096 157.168C95.7296 156.981 96.2196 156.888 96.7796 156.888C97.2836 156.888 97.7316 156.944 98.1236 157.056C98.5249 157.168 98.9169 157.359 99.2996 157.63C99.4489 157.742 99.5236 157.868 99.5236 158.008C99.5236 158.101 99.4769 158.209 99.3836 158.33L99.2016 158.554C99.0989 158.685 98.9729 158.75 98.8236 158.75C98.7116 158.75 98.6043 158.713 98.5016 158.638C98.1936 158.433 97.9089 158.293 97.6476 158.218C97.3863 158.134 97.0923 158.092 96.7656 158.092C96.3643 158.092 96.0423 158.171 95.7996 158.33C95.5569 158.489 95.4356 158.694 95.4356 158.946C95.4356 159.114 95.4916 159.249 95.6036 159.352C95.7249 159.445 95.8929 159.529 96.1076 159.604C96.3316 159.669 96.6816 159.753 97.1576 159.856C97.8016 159.996 98.3103 160.155 98.6836 160.332C99.0663 160.5 99.3463 160.719 99.5236 160.99C99.7103 161.251 99.8036 161.592 99.8036 162.012C99.8036 162.665 99.5423 163.197 99.0196 163.608C98.5063 164.009 97.8156 164.21 96.9476 164.21ZM108.825 157.518C108.891 157.238 109.073 157.098 109.371 157.098H109.889C110.029 157.098 110.137 157.131 110.211 157.196C110.295 157.252 110.337 157.341 110.337 157.462C110.337 157.49 110.328 157.551 110.309 157.644L108.643 163.58C108.578 163.86 108.396 164 108.097 164H107.187C106.907 164 106.725 163.86 106.641 163.58L106.179 161.956C105.974 161.237 105.745 160.337 105.493 159.254L105.423 158.946C105.171 160.085 104.929 161.093 104.695 161.97L104.261 163.58C104.196 163.86 104.014 164 103.715 164H102.819C102.539 164 102.357 163.86 102.273 163.58L100.593 157.644C100.575 157.551 100.565 157.49 100.565 157.462C100.565 157.341 100.603 157.252 100.677 157.196C100.761 157.131 100.873 157.098 101.013 157.098H101.559C101.858 157.098 102.04 157.238 102.105 157.518L102.609 159.506C102.805 160.234 103.034 161.205 103.295 162.418L103.351 162.698C103.622 161.447 103.874 160.383 104.107 159.506L104.639 157.518C104.705 157.238 104.887 157.098 105.185 157.098H105.717C106.016 157.098 106.198 157.238 106.263 157.518L106.809 159.506C107.071 160.477 107.332 161.541 107.593 162.698C107.789 161.699 108.032 160.635 108.321 159.506L108.825 157.518ZM114.581 164.21C113.9 164.21 113.293 164.056 112.761 163.748C112.238 163.44 111.828 163.011 111.529 162.46C111.23 161.9 111.081 161.261 111.081 160.542C111.081 159.823 111.23 159.189 111.529 158.638C111.828 158.087 112.238 157.658 112.761 157.35C113.293 157.042 113.9 156.888 114.581 156.888C115.253 156.888 115.855 157.042 116.387 157.35C116.919 157.658 117.334 158.092 117.633 158.652C117.932 159.203 118.081 159.833 118.081 160.542C118.081 161.261 117.932 161.9 117.633 162.46C117.334 163.011 116.919 163.44 116.387 163.748C115.855 164.056 115.253 164.21 114.581 164.21ZM114.581 162.964C115.178 162.964 115.659 162.745 116.023 162.306C116.387 161.858 116.569 161.27 116.569 160.542C116.569 159.823 116.387 159.245 116.023 158.806C115.659 158.367 115.178 158.148 114.581 158.148C113.984 158.148 113.503 158.367 113.139 158.806C112.775 159.245 112.593 159.823 112.593 160.542C112.593 161.27 112.775 161.858 113.139 162.306C113.503 162.745 113.984 162.964 114.581 162.964ZM122.497 157.028C122.702 157.028 122.912 157.051 123.127 157.098C123.379 157.154 123.505 157.303 123.505 157.546C123.505 157.611 123.5 157.658 123.491 157.686L123.421 158.022C123.365 158.283 123.225 158.414 123.001 158.414L122.875 158.4C122.707 158.372 122.558 158.358 122.427 158.358C121.96 158.358 121.582 158.545 121.293 158.918C121.013 159.282 120.873 159.791 120.873 160.444V163.51C120.873 163.659 120.831 163.781 120.747 163.874C120.663 163.958 120.542 164 120.383 164H119.879C119.73 164 119.608 163.958 119.515 163.874C119.431 163.781 119.389 163.659 119.389 163.51V157.588C119.389 157.429 119.431 157.308 119.515 157.224C119.608 157.14 119.73 157.098 119.879 157.098H120.285C120.444 157.098 120.565 157.14 120.649 157.224C120.733 157.308 120.775 157.429 120.775 157.588V158.134C120.943 157.789 121.172 157.518 121.461 157.322C121.75 157.126 122.096 157.028 122.497 157.028ZM129.114 154.536C129.114 154.377 129.156 154.256 129.24 154.172C129.334 154.088 129.455 154.046 129.604 154.046H130.108C130.267 154.046 130.388 154.088 130.472 154.172C130.556 154.256 130.598 154.377 130.598 154.536V163.51C130.598 163.659 130.556 163.781 130.472 163.874C130.388 163.958 130.267 164 130.108 164H129.702C129.553 164 129.432 163.958 129.338 163.874C129.254 163.781 129.212 163.659 129.212 163.51V163.02C128.727 163.804 127.966 164.196 126.93 164.196C126.352 164.196 125.829 164.047 125.362 163.748C124.905 163.449 124.546 163.025 124.284 162.474C124.023 161.923 123.892 161.284 123.892 160.556C123.892 159.837 124.023 159.203 124.284 158.652C124.555 158.101 124.924 157.677 125.39 157.378C125.857 157.079 126.38 156.93 126.958 156.93C127.91 156.93 128.629 157.261 129.114 157.924V154.536ZM127.238 162.922C127.808 162.922 128.274 162.712 128.638 162.292C129.002 161.863 129.184 161.284 129.184 160.556C129.184 159.828 129.002 159.254 128.638 158.834C128.274 158.414 127.808 158.204 127.238 158.204C126.688 158.204 126.244 158.419 125.908 158.848C125.572 159.277 125.404 159.847 125.404 160.556C125.404 161.275 125.568 161.849 125.894 162.278C126.23 162.707 126.678 162.922 127.238 162.922Z" fill="#464646"/>
<rect x="70.5" y="172.5" width="202" height="47" rx="3.5" fill="white"/>
<g clip-path="url(#clip1_899_28614)">
<path d="M81.92 198.888C81.4293 198.888 80.976 198.765 80.56 198.52C80.1547 198.275 79.8293 197.944 79.584 197.528C79.3493 197.112 79.232 196.664 79.232 196.184C79.232 195.693 79.3493 195.245 79.584 194.84C79.8293 194.424 80.1547 194.099 80.56 193.864C80.976 193.619 81.4293 193.496 81.92 193.496C82.4 193.496 82.848 193.619 83.264 193.864C83.68 194.099 84.0107 194.424 84.256 194.84C84.5013 195.245 84.624 195.693 84.624 196.184C84.624 196.664 84.5013 197.112 84.256 197.528C84.0107 197.944 83.68 198.275 83.264 198.52C82.848 198.765 82.4 198.888 81.92 198.888ZM89.7794 198.888C89.2887 198.888 88.8354 198.765 88.4194 198.52C88.014 198.275 87.6887 197.944 87.4434 197.528C87.2087 197.112 87.0914 196.664 87.0914 196.184C87.0914 195.693 87.2087 195.245 87.4434 194.84C87.6887 194.424 88.014 194.099 88.4194 193.864C88.8354 193.619 89.2887 193.496 89.7794 193.496C90.2594 193.496 90.7074 193.619 91.1234 193.864C91.5394 194.099 91.87 194.424 92.1154 194.84C92.3607 195.245 92.4834 195.693 92.4834 196.184C92.4834 196.664 92.3607 197.112 92.1154 197.528C91.87 197.944 91.5394 198.275 91.1234 198.52C90.7074 198.765 90.2594 198.888 89.7794 198.888ZM97.6388 198.888C97.1481 198.888 96.6948 198.765 96.2788 198.52C95.8734 198.275 95.5481 197.944 95.3028 197.528C95.0681 197.112 94.9508 196.664 94.9508 196.184C94.9508 195.693 95.0681 195.245 95.3028 194.84C95.5481 194.424 95.8734 194.099 96.2788 193.864C96.6948 193.619 97.1481 193.496 97.6388 193.496C98.1188 193.496 98.5668 193.619 98.9828 193.864C99.3988 194.099 99.7294 194.424 99.9748 194.84C100.22 195.245 100.343 195.693 100.343 196.184C100.343 196.664 100.22 197.112 99.9748 197.528C99.7294 197.944 99.3988 198.275 98.9828 198.52C98.5668 198.765 98.1188 198.888 97.6388 198.888ZM105.498 198.888C105.007 198.888 104.554 198.765 104.138 198.52C103.733 198.275 103.407 197.944 103.162 197.528C102.927 197.112 102.81 196.664 102.81 196.184C102.81 195.693 102.927 195.245 103.162 194.84C103.407 194.424 103.733 194.099 104.138 193.864C104.554 193.619 105.007 193.496 105.498 193.496C105.978 193.496 106.426 193.619 106.842 193.864C107.258 194.099 107.589 194.424 107.834 194.84C108.079 195.245 108.202 195.693 108.202 196.184C108.202 196.664 108.079 197.112 107.834 197.528C107.589 197.944 107.258 198.275 106.842 198.52C106.426 198.765 105.978 198.888 105.498 198.888ZM113.358 198.888C112.867 198.888 112.414 198.765 111.998 198.52C111.592 198.275 111.267 197.944 111.022 197.528C110.787 197.112 110.67 196.664 110.67 196.184C110.67 195.693 110.787 195.245 111.022 194.84C111.267 194.424 111.592 194.099 111.998 193.864C112.414 193.619 112.867 193.496 113.358 193.496C113.838 193.496 114.286 193.619 114.702 193.864C115.118 194.099 115.448 194.424 115.694 194.84C115.939 195.245 116.062 195.693 116.062 196.184C116.062 196.664 115.939 197.112 115.694 197.528C115.448 197.944 115.118 198.275 114.702 198.52C114.286 198.765 113.838 198.888 113.358 198.888ZM121.217 198.888C120.726 198.888 120.273 198.765 119.857 198.52C119.452 198.275 119.126 197.944 118.881 197.528C118.646 197.112 118.529 196.664 118.529 196.184C118.529 195.693 118.646 195.245 118.881 194.84C119.126 194.424 119.452 194.099 119.857 193.864C120.273 193.619 120.726 193.496 121.217 193.496C121.697 193.496 122.145 193.619 122.561 193.864C122.977 194.099 123.308 194.424 123.553 194.84C123.798 195.245 123.921 195.693 123.921 196.184C123.921 196.664 123.798 197.112 123.553 197.528C123.308 197.944 122.977 198.275 122.561 198.52C122.145 198.765 121.697 198.888 121.217 198.888ZM129.076 198.888C128.586 198.888 128.132 198.765 127.716 198.52C127.311 198.275 126.986 197.944 126.74 197.528C126.506 197.112 126.388 196.664 126.388 196.184C126.388 195.693 126.506 195.245 126.74 194.84C126.986 194.424 127.311 194.099 127.716 193.864C128.132 193.619 128.586 193.496 129.076 193.496C129.556 193.496 130.004 193.619 130.42 193.864C130.836 194.099 131.167 194.424 131.412 194.84C131.658 195.245 131.78 195.693 131.78 196.184C131.78 196.664 131.658 197.112 131.412 197.528C131.167 197.944 130.836 198.275 130.42 198.52C130.004 198.765 129.556 198.888 129.076 198.888ZM136.936 198.888C136.445 198.888 135.992 198.765 135.576 198.52C135.17 198.275 134.845 197.944 134.6 197.528C134.365 197.112 134.248 196.664 134.248 196.184C134.248 195.693 134.365 195.245 134.6 194.84C134.845 194.424 135.17 194.099 135.576 193.864C135.992 193.619 136.445 193.496 136.936 193.496C137.416 193.496 137.864 193.619 138.28 193.864C138.696 194.099 139.026 194.424 139.272 194.84C139.517 195.245 139.64 195.693 139.64 196.184C139.64 196.664 139.517 197.112 139.272 197.528C139.026 197.944 138.696 198.275 138.28 198.52C137.864 198.765 137.416 198.888 136.936 198.888ZM144.795 198.888C144.304 198.888 143.851 198.765 143.435 198.52C143.03 198.275 142.704 197.944 142.459 197.528C142.224 197.112 142.107 196.664 142.107 196.184C142.107 195.693 142.224 195.245 142.459 194.84C142.704 194.424 143.03 194.099 143.435 193.864C143.851 193.619 144.304 193.496 144.795 193.496C145.275 193.496 145.723 193.619 146.139 193.864C146.555 194.099 146.886 194.424 147.131 194.84C147.376 195.245 147.499 195.693 147.499 196.184C147.499 196.664 147.376 197.112 147.131 197.528C146.886 197.944 146.555 198.275 146.139 198.52C145.723 198.765 145.275 198.888 144.795 198.888ZM152.654 198.888C152.164 198.888 151.71 198.765 151.294 198.52C150.889 198.275 150.564 197.944 150.318 197.528C150.084 197.112 149.966 196.664 149.966 196.184C149.966 195.693 150.084 195.245 150.318 194.84C150.564 194.424 150.889 194.099 151.294 193.864C151.71 193.619 152.164 193.496 152.654 193.496C153.134 193.496 153.582 193.619 153.998 193.864C154.414 194.099 154.745 194.424 154.99 194.84C155.236 195.245 155.358 195.693 155.358 196.184C155.358 196.664 155.236 197.112 154.99 197.528C154.745 197.944 154.414 198.275 153.998 198.52C153.582 198.765 153.134 198.888 152.654 198.888ZM160.514 198.888C160.023 198.888 159.57 198.765 159.154 198.52C158.748 198.275 158.423 197.944 158.178 197.528C157.943 197.112 157.826 196.664 157.826 196.184C157.826 195.693 157.943 195.245 158.178 194.84C158.423 194.424 158.748 194.099 159.154 193.864C159.57 193.619 160.023 193.496 160.514 193.496C160.994 193.496 161.442 193.619 161.858 193.864C162.274 194.099 162.604 194.424 162.85 194.84C163.095 195.245 163.218 195.693 163.218 196.184C163.218 196.664 163.095 197.112 162.85 197.528C162.604 197.944 162.274 198.275 161.858 198.52C161.442 198.765 160.994 198.888 160.514 198.888ZM168.373 198.888C167.882 198.888 167.429 198.765 167.013 198.52C166.608 198.275 166.282 197.944 166.037 197.528C165.802 197.112 165.685 196.664 165.685 196.184C165.685 195.693 165.802 195.245 166.037 194.84C166.282 194.424 166.608 194.099 167.013 193.864C167.429 193.619 167.882 193.496 168.373 193.496C168.853 193.496 169.301 193.619 169.717 193.864C170.133 194.099 170.464 194.424 170.709 194.84C170.954 195.245 171.077 195.693 171.077 196.184C171.077 196.664 170.954 197.112 170.709 197.528C170.464 197.944 170.133 198.275 169.717 198.52C169.301 198.765 168.853 198.888 168.373 198.888Z" fill="#464646"/>
</g>
<rect x="70.5" y="172.5" width="202" height="47" rx="3.5" stroke="#C3CCD9"/>
<defs>
<clipPath id="clip0_899_28614">
<rect width="187" height="22" fill="white" transform="translate(78 75)"/>
</clipPath>
<clipPath id="clip1_899_28614">
<rect width="187" height="22" fill="white" transform="translate(78 185)"/>
</clipPath>
</defs>
</svg>
