<svg width="344" height="186" viewBox="0 0 344 186" fill="none" xmlns="http://www.w3.org/2000/svg">
<path d="M71.568 54C71.4187 54 71.2973 53.958 71.204 53.874C71.12 53.7807 71.078 53.6593 71.078 53.51V44.55C71.078 44.3913 71.12 44.27 71.204 44.186C71.2973 44.102 71.4187 44.06 71.568 44.06H75.586C76.5753 44.06 77.364 44.3353 77.952 44.886C78.54 45.4273 78.834 46.1693 78.834 47.112C78.834 48.0547 78.54 48.7967 77.952 49.338C77.364 49.8793 76.5753 50.15 75.586 50.15H72.674V53.51C72.674 53.6593 72.632 53.7807 72.548 53.874C72.464 53.958 72.3427 54 72.184 54H71.568ZM75.334 48.82C75.9313 48.82 76.398 48.6753 76.734 48.386C77.0793 48.0873 77.252 47.6627 77.252 47.112C77.252 46.552 77.0793 46.1273 76.734 45.838C76.398 45.5393 75.9313 45.39 75.334 45.39H72.674V48.82H75.334ZM82.8851 46.888C83.8185 46.888 84.5371 47.1073 85.0411 47.546C85.5451 47.9753 85.7971 48.5493 85.7971 49.268V53.51C85.7971 53.6593 85.7551 53.7807 85.6711 53.874C85.5871 53.958 85.4658 54 85.3071 54H84.9431C84.7938 54 84.6725 53.958 84.5791 53.874C84.4951 53.7807 84.4531 53.6593 84.4531 53.51V53.202C84.2291 53.5287 83.9211 53.7807 83.5291 53.958C83.1371 54.1353 82.6798 54.224 82.1571 54.224C81.4385 54.224 80.8458 54.0653 80.3791 53.748C79.9218 53.4213 79.6931 52.9313 79.6931 52.278C79.6931 51.55 79.9638 51.0133 80.5051 50.668C81.0558 50.3133 81.8165 50.0473 82.7871 49.87L84.3691 49.576V49.324C84.3691 48.9413 84.2338 48.6473 83.9631 48.442C83.7018 48.2273 83.3518 48.12 82.9131 48.12C82.5398 48.12 82.2131 48.1853 81.9331 48.316C81.6625 48.4373 81.3685 48.6427 81.0511 48.932C80.9298 49.0347 80.8131 49.086 80.7011 49.086C80.5891 49.086 80.4725 49.0347 80.3511 48.932L80.1271 48.736C80.0058 48.624 79.9451 48.5027 79.9451 48.372C79.9451 48.2507 80.0011 48.134 80.1131 48.022C80.5145 47.6393 80.9391 47.3547 81.3871 47.168C81.8351 46.9813 82.3345 46.888 82.8851 46.888ZM82.3671 53.034C82.9271 53.034 83.3985 52.8847 83.7811 52.586C84.1731 52.2873 84.3691 51.858 84.3691 51.298V50.654L83.1511 50.906C82.4698 51.046 81.9658 51.2047 81.6391 51.382C81.3125 51.5593 81.1491 51.83 81.1491 52.194C81.1491 52.4553 81.2565 52.6607 81.4711 52.81C81.6858 52.9593 81.9845 53.034 82.3671 53.034ZM90.1527 54.21C89.5833 54.21 89.0747 54.14 88.6267 54C88.188 53.8507 87.74 53.594 87.2827 53.23C87.1427 53.1273 87.0727 53.0107 87.0727 52.88C87.0727 52.7773 87.124 52.6653 87.2267 52.544L87.4367 52.306C87.5487 52.1753 87.67 52.11 87.8007 52.11C87.9033 52.11 88.0153 52.1567 88.1367 52.25C88.5287 52.5393 88.874 52.74 89.1727 52.852C89.4713 52.9547 89.8073 53.006 90.1807 53.006C90.582 53.006 90.9087 52.9267 91.1607 52.768C91.422 52.6 91.5527 52.376 91.5527 52.096C91.5527 51.8813 91.478 51.7133 91.3287 51.592C91.1887 51.4613 91.002 51.3633 90.7687 51.298C90.5353 51.2233 90.19 51.1393 89.7327 51.046C89.0887 50.906 88.5847 50.7567 88.2207 50.598C87.866 50.43 87.6093 50.22 87.4507 49.968C87.292 49.716 87.2127 49.394 87.2127 49.002C87.2127 48.6007 87.3247 48.2413 87.5487 47.924C87.782 47.6067 88.104 47.3547 88.5147 47.168C88.9347 46.9813 89.4247 46.888 89.9847 46.888C90.4887 46.888 90.9367 46.944 91.3287 47.056C91.73 47.168 92.122 47.3593 92.5047 47.63C92.654 47.742 92.7287 47.868 92.7287 48.008C92.7287 48.1013 92.682 48.2087 92.5887 48.33L92.4067 48.554C92.304 48.6847 92.178 48.75 92.0287 48.75C91.9167 48.75 91.8093 48.7127 91.7067 48.638C91.3987 48.4327 91.114 48.2927 90.8527 48.218C90.5913 48.134 90.2973 48.092 89.9707 48.092C89.5693 48.092 89.2473 48.1713 89.0047 48.33C88.762 48.4887 88.6407 48.694 88.6407 48.946C88.6407 49.114 88.6967 49.2493 88.8087 49.352C88.93 49.4453 89.098 49.5293 89.3127 49.604C89.5367 49.6693 89.8867 49.7533 90.3627 49.856C91.0067 49.996 91.5153 50.1547 91.8887 50.332C92.2713 50.5 92.5513 50.7193 92.7287 50.99C92.9153 51.2513 93.0087 51.592 93.0087 52.012C93.0087 52.6653 92.7473 53.1973 92.2247 53.608C91.7113 54.0093 91.0207 54.21 90.1527 54.21ZM96.9476 54.21C96.3783 54.21 95.8696 54.14 95.4216 54C94.9829 53.8507 94.5349 53.594 94.0776 53.23C93.9376 53.1273 93.8676 53.0107 93.8676 52.88C93.8676 52.7773 93.9189 52.6653 94.0216 52.544L94.2316 52.306C94.3436 52.1753 94.4649 52.11 94.5956 52.11C94.6983 52.11 94.8103 52.1567 94.9316 52.25C95.3236 52.5393 95.6689 52.74 95.9676 52.852C96.2663 52.9547 96.6023 53.006 96.9756 53.006C97.3769 53.006 97.7036 52.9267 97.9556 52.768C98.2169 52.6 98.3476 52.376 98.3476 52.096C98.3476 51.8813 98.2729 51.7133 98.1236 51.592C97.9836 51.4613 97.7969 51.3633 97.5636 51.298C97.3303 51.2233 96.9849 51.1393 96.5276 51.046C95.8836 50.906 95.3796 50.7567 95.0156 50.598C94.6609 50.43 94.4043 50.22 94.2456 49.968C94.0869 49.716 94.0076 49.394 94.0076 49.002C94.0076 48.6007 94.1196 48.2413 94.3436 47.924C94.5769 47.6067 94.8989 47.3547 95.3096 47.168C95.7296 46.9813 96.2196 46.888 96.7796 46.888C97.2836 46.888 97.7316 46.944 98.1236 47.056C98.5249 47.168 98.9169 47.3593 99.2996 47.63C99.4489 47.742 99.5236 47.868 99.5236 48.008C99.5236 48.1013 99.4769 48.2087 99.3836 48.33L99.2016 48.554C99.0989 48.6847 98.9729 48.75 98.8236 48.75C98.7116 48.75 98.6043 48.7127 98.5016 48.638C98.1936 48.4327 97.9089 48.2927 97.6476 48.218C97.3863 48.134 97.0923 48.092 96.7656 48.092C96.3643 48.092 96.0423 48.1713 95.7996 48.33C95.5569 48.4887 95.4356 48.694 95.4356 48.946C95.4356 49.114 95.4916 49.2493 95.6036 49.352C95.7249 49.4453 95.8929 49.5293 96.1076 49.604C96.3316 49.6693 96.6816 49.7533 97.1576 49.856C97.8016 49.996 98.3103 50.1547 98.6836 50.332C99.0663 50.5 99.3463 50.7193 99.5236 50.99C99.7103 51.2513 99.8036 51.592 99.8036 52.012C99.8036 52.6653 99.5423 53.1973 99.0196 53.608C98.5063 54.0093 97.8156 54.21 96.9476 54.21ZM108.825 47.518C108.891 47.238 109.073 47.098 109.371 47.098H109.889C110.029 47.098 110.137 47.1307 110.211 47.196C110.295 47.252 110.337 47.3407 110.337 47.462C110.337 47.49 110.328 47.5507 110.309 47.644L108.643 53.58C108.578 53.86 108.396 54 108.097 54H107.187C106.907 54 106.725 53.86 106.641 53.58L106.179 51.956C105.974 51.2373 105.745 50.3367 105.493 49.254L105.423 48.946C105.171 50.0847 104.929 51.0927 104.695 51.97L104.261 53.58C104.196 53.86 104.014 54 103.715 54H102.819C102.539 54 102.357 53.86 102.273 53.58L100.593 47.644C100.575 47.5507 100.565 47.49 100.565 47.462C100.565 47.3407 100.603 47.252 100.677 47.196C100.761 47.1307 100.873 47.098 101.013 47.098H101.559C101.858 47.098 102.04 47.238 102.105 47.518L102.609 49.506C102.805 50.234 103.034 51.2047 103.295 52.418L103.351 52.698C103.622 51.4473 103.874 50.3833 104.107 49.506L104.639 47.518C104.705 47.238 104.887 47.098 105.185 47.098H105.717C106.016 47.098 106.198 47.238 106.263 47.518L106.809 49.506C107.071 50.4767 107.332 51.5407 107.593 52.698C107.789 51.6993 108.032 50.6353 108.321 49.506L108.825 47.518ZM114.581 54.21C113.9 54.21 113.293 54.056 112.761 53.748C112.238 53.44 111.828 53.0107 111.529 52.46C111.23 51.9 111.081 51.2607 111.081 50.542C111.081 49.8233 111.23 49.1887 111.529 48.638C111.828 48.0873 112.238 47.658 112.761 47.35C113.293 47.042 113.9 46.888 114.581 46.888C115.253 46.888 115.855 47.042 116.387 47.35C116.919 47.658 117.334 48.092 117.633 48.652C117.932 49.2027 118.081 49.8327 118.081 50.542C118.081 51.2607 117.932 51.9 117.633 52.46C117.334 53.0107 116.919 53.44 116.387 53.748C115.855 54.056 115.253 54.21 114.581 54.21ZM114.581 52.964C115.178 52.964 115.659 52.7447 116.023 52.306C116.387 51.858 116.569 51.27 116.569 50.542C116.569 49.8233 116.387 49.2447 116.023 48.806C115.659 48.3673 115.178 48.148 114.581 48.148C113.984 48.148 113.503 48.3673 113.139 48.806C112.775 49.2447 112.593 49.8233 112.593 50.542C112.593 51.27 112.775 51.858 113.139 52.306C113.503 52.7447 113.984 52.964 114.581 52.964ZM122.497 47.028C122.702 47.028 122.912 47.0513 123.127 47.098C123.379 47.154 123.505 47.3033 123.505 47.546C123.505 47.6113 123.5 47.658 123.491 47.686L123.421 48.022C123.365 48.2833 123.225 48.414 123.001 48.414L122.875 48.4C122.707 48.372 122.558 48.358 122.427 48.358C121.96 48.358 121.582 48.5447 121.293 48.918C121.013 49.282 120.873 49.7907 120.873 50.444V53.51C120.873 53.6593 120.831 53.7807 120.747 53.874C120.663 53.958 120.542 54 120.383 54H119.879C119.73 54 119.608 53.958 119.515 53.874C119.431 53.7807 119.389 53.6593 119.389 53.51V47.588C119.389 47.4293 119.431 47.308 119.515 47.224C119.608 47.14 119.73 47.098 119.879 47.098H120.285C120.444 47.098 120.565 47.14 120.649 47.224C120.733 47.308 120.775 47.4293 120.775 47.588V48.134C120.943 47.7887 121.172 47.518 121.461 47.322C121.75 47.126 122.096 47.028 122.497 47.028ZM129.114 44.536C129.114 44.3773 129.156 44.256 129.24 44.172C129.334 44.088 129.455 44.046 129.604 44.046H130.108C130.267 44.046 130.388 44.088 130.472 44.172C130.556 44.256 130.598 44.3773 130.598 44.536V53.51C130.598 53.6593 130.556 53.7807 130.472 53.874C130.388 53.958 130.267 54 130.108 54H129.702C129.553 54 129.432 53.958 129.338 53.874C129.254 53.7807 129.212 53.6593 129.212 53.51V53.02C128.727 53.804 127.966 54.196 126.93 54.196C126.352 54.196 125.829 54.0467 125.362 53.748C124.905 53.4493 124.546 53.0247 124.284 52.474C124.023 51.9233 123.892 51.284 123.892 50.556C123.892 49.8373 124.023 49.2027 124.284 48.652C124.555 48.1013 124.924 47.6767 125.39 47.378C125.857 47.0793 126.38 46.93 126.958 46.93C127.91 46.93 128.629 47.2613 129.114 47.924V44.536ZM127.238 52.922C127.808 52.922 128.274 52.712 128.638 52.292C129.002 51.8627 129.184 51.284 129.184 50.556C129.184 49.828 129.002 49.254 128.638 48.834C128.274 48.414 127.808 48.204 127.238 48.204C126.688 48.204 126.244 48.4187 125.908 48.848C125.572 49.2773 125.404 49.8467 125.404 50.556C125.404 51.2747 125.568 51.8487 125.894 52.278C126.23 52.7073 126.678 52.922 127.238 52.922Z" fill="#464646"/>
<rect x="70.5" y="62.5" width="202" height="47" rx="3.5" fill="white"/>
<g clip-path="url(#clip0_899_60760)">
<path d="M82.96 82.936C83.6213 82.936 84.2133 83.112 84.736 83.464C85.2693 83.8053 85.6853 84.2907 85.984 84.92C86.2827 85.5387 86.432 86.248 86.432 87.048C86.432 87.8587 86.2827 88.5787 85.984 89.208C85.6853 89.8373 85.2747 90.328 84.752 90.68C84.2293 91.0213 83.632 91.192 82.96 91.192C81.7227 91.192 80.816 90.7387 80.24 89.832V93.624C80.24 93.8373 80.1333 93.944 79.92 93.944H79.504C79.2907 93.944 79.184 93.8373 79.184 93.624V83.432C79.184 83.2187 79.2907 83.112 79.504 83.112H79.856C80.0693 83.112 80.176 83.2187 80.176 83.432V84.44C80.464 83.9493 80.8427 83.576 81.312 83.32C81.7813 83.064 82.3307 82.936 82.96 82.936ZM82.88 90.296C83.6267 90.296 84.224 89.9973 84.672 89.4C85.12 88.8027 85.344 88.0187 85.344 87.048C85.344 86.088 85.12 85.3147 84.672 84.728C84.224 84.1307 83.6267 83.832 82.88 83.832C82.08 83.832 81.4293 84.12 80.928 84.696C80.4373 85.2613 80.192 86.0453 80.192 87.048C80.192 88.0507 80.4427 88.8453 80.944 89.432C81.4453 90.008 82.0907 90.296 82.88 90.296ZM93.429 83.432C93.429 83.2187 93.5357 83.112 93.749 83.112H94.165C94.3783 83.112 94.485 83.2187 94.485 83.432V90.68C94.485 90.8933 94.3783 91 94.165 91H93.829C93.6157 91 93.509 90.8933 93.509 90.68V89.96C93.2743 90.376 92.9383 90.6907 92.501 90.904C92.0743 91.1067 91.605 91.208 91.093 91.208C90.133 91.208 89.4237 90.968 88.965 90.488C88.5063 89.9973 88.277 89.368 88.277 88.6V83.432C88.277 83.2187 88.3837 83.112 88.597 83.112H89.013C89.2263 83.112 89.333 83.2187 89.333 83.432V88.376C89.333 89.0053 89.4877 89.4853 89.797 89.816C90.117 90.136 90.5703 90.296 91.157 90.296C91.8183 90.296 92.3623 90.0933 92.789 89.688C93.2157 89.2827 93.429 88.7067 93.429 87.96V83.432ZM99.6079 91.208C98.9572 91.208 98.3812 91.1173 97.8799 90.936C97.3892 90.744 96.8719 90.424 96.3279 89.976C96.2319 89.912 96.1839 89.8373 96.1839 89.752C96.1839 89.6773 96.2212 89.6027 96.2959 89.528L96.5039 89.304C96.5679 89.2187 96.6479 89.176 96.7439 89.176C96.8185 89.176 96.8879 89.208 96.9519 89.272C97.4639 89.6667 97.9172 89.944 98.3119 90.104C98.7065 90.2533 99.1385 90.328 99.6079 90.328C100.195 90.328 100.675 90.2 101.048 89.944C101.421 89.6773 101.608 89.32 101.608 88.872C101.608 88.424 101.416 88.0933 101.032 87.88C100.648 87.6667 100.056 87.4747 99.2559 87.304C98.5519 87.1547 97.9972 87 97.5919 86.84C97.1972 86.6693 96.9039 86.456 96.7119 86.2C96.5199 85.944 96.4239 85.608 96.4239 85.192C96.4239 84.5093 96.7012 83.96 97.2559 83.544C97.8105 83.128 98.5092 82.92 99.3519 82.92C99.9279 82.92 100.44 82.9947 100.888 83.144C101.347 83.2827 101.805 83.5173 102.264 83.848C102.36 83.9227 102.408 84.0027 102.408 84.088C102.408 84.1413 102.381 84.2107 102.328 84.296L102.136 84.536C102.083 84.6213 102.008 84.664 101.912 84.664C101.827 84.664 101.752 84.6373 101.688 84.584C101.251 84.2747 100.861 84.0667 100.52 83.96C100.189 83.8533 99.8105 83.8 99.3839 83.8C98.7972 83.8 98.3279 83.928 97.9759 84.184C97.6239 84.44 97.4479 84.7653 97.4479 85.16C97.4479 85.4053 97.5279 85.6027 97.6879 85.752C97.8479 85.9013 98.0772 86.0293 98.3759 86.136C98.6745 86.232 99.1119 86.344 99.6879 86.472C100.755 86.7067 101.512 86.9947 101.96 87.336C102.419 87.6773 102.648 88.1733 102.648 88.824C102.648 89.5387 102.365 90.1147 101.8 90.552C101.235 90.9893 100.504 91.208 99.6079 91.208ZM110.178 89.128C110.253 89.0533 110.333 89.016 110.418 89.016C110.493 89.016 110.562 89.048 110.626 89.112L110.834 89.304C110.909 89.3787 110.946 89.4587 110.946 89.544C110.946 89.608 110.914 89.6827 110.85 89.768C110.327 90.2907 109.821 90.664 109.33 90.888C108.839 91.1013 108.29 91.208 107.682 91.208C106.914 91.208 106.247 91.0373 105.682 90.696C105.117 90.3547 104.679 89.88 104.37 89.272C104.061 88.6533 103.906 87.9387 103.906 87.128C103.906 86.3067 104.055 85.5813 104.354 84.952C104.663 84.312 105.095 83.816 105.65 83.464C106.205 83.1013 106.845 82.92 107.57 82.92C108.647 82.92 109.495 83.256 110.114 83.928C110.733 84.6 111.042 85.5067 111.042 86.648V86.84C111.031 86.936 110.994 87.0107 110.93 87.064C110.877 87.1173 110.802 87.144 110.706 87.144H104.978C105.01 88.04 105.245 88.7973 105.682 89.416C106.13 90.024 106.797 90.328 107.682 90.328C108.162 90.328 108.583 90.2427 108.946 90.072C109.319 89.8907 109.73 89.576 110.178 89.128ZM107.57 83.8C106.866 83.8 106.285 84.0187 105.826 84.456C105.378 84.8827 105.106 85.512 105.01 86.344H109.986C109.965 85.5653 109.741 84.9467 109.314 84.488C108.887 84.0293 108.306 83.8 107.57 83.8ZM115.926 80.328C115.446 80.328 115.105 80.456 114.902 80.712C114.7 80.9573 114.598 81.3733 114.598 81.96V83.112H116.358C116.572 83.112 116.678 83.2187 116.678 83.432V83.592C116.678 83.8053 116.572 83.912 116.358 83.912H114.598V90.68C114.598 90.8933 114.492 91 114.278 91H113.862C113.649 91 113.542 90.8933 113.542 90.68V83.912H112.358C112.145 83.912 112.038 83.8053 112.038 83.592V83.432C112.038 83.2187 112.145 83.112 112.358 83.112H113.542V81.784C113.542 81.048 113.734 80.472 114.118 80.056C114.513 79.64 115.073 79.432 115.798 79.432C116.204 79.432 116.62 79.4907 117.046 79.608C117.249 79.672 117.324 79.8053 117.27 80.008L117.206 80.232C117.153 80.3813 117.046 80.456 116.886 80.456C116.854 80.456 116.785 80.4453 116.678 80.424C116.444 80.36 116.193 80.328 115.926 80.328ZM118.759 81.112C118.546 81.112 118.364 81.0373 118.215 80.888C118.076 80.7387 118.007 80.5573 118.007 80.344C118.007 80.1307 118.076 79.9547 118.215 79.816C118.364 79.6773 118.546 79.608 118.759 79.608C118.983 79.608 119.164 79.6773 119.303 79.816C119.452 79.9547 119.527 80.1307 119.527 80.344C119.527 80.5573 119.452 80.7387 119.303 80.888C119.164 81.0373 118.983 81.112 118.759 81.112ZM118.551 91C118.338 91 118.231 90.8933 118.231 90.68V83.432C118.231 83.2187 118.338 83.112 118.551 83.112H118.967C119.18 83.112 119.287 83.2187 119.287 83.432V90.68C119.287 90.8933 119.18 91 118.967 91H118.551ZM125.157 82.92C126.085 82.92 126.784 83.176 127.253 83.688C127.733 84.2 127.973 84.84 127.973 85.608V90.68C127.973 90.8933 127.866 91 127.653 91H127.237C127.024 91 126.917 90.8933 126.917 90.68V85.96C126.917 85.256 126.746 84.7227 126.405 84.36C126.064 83.9973 125.573 83.816 124.933 83.816C124.528 83.816 124.154 83.9173 123.813 84.12C123.472 84.312 123.2 84.5787 122.997 84.92C122.794 85.2613 122.693 85.6347 122.693 86.04V90.68C122.693 90.8933 122.586 91 122.373 91H121.957C121.744 91 121.637 90.8933 121.637 90.68V83.432C121.637 83.2187 121.744 83.112 121.957 83.112H122.309C122.522 83.112 122.629 83.2187 122.629 83.432V84.2C122.896 83.7733 123.248 83.4533 123.685 83.24C124.122 83.0267 124.613 82.92 125.157 82.92ZM133.829 82.92C134.757 82.92 135.456 83.176 135.925 83.688C136.405 84.2 136.645 84.84 136.645 85.608V90.68C136.645 90.8933 136.538 91 136.325 91H135.909C135.696 91 135.589 90.8933 135.589 90.68V85.96C135.589 85.256 135.418 84.7227 135.077 84.36C134.736 83.9973 134.245 83.816 133.605 83.816C133.2 83.816 132.826 83.9173 132.485 84.12C132.144 84.312 131.872 84.5787 131.669 84.92C131.466 85.2613 131.365 85.6347 131.365 86.04V90.68C131.365 90.8933 131.258 91 131.045 91H130.629C130.416 91 130.309 90.8933 130.309 90.68V83.432C130.309 83.2187 130.416 83.112 130.629 83.112H130.981C131.194 83.112 131.301 83.2187 131.301 83.432V84.2C131.568 83.7733 131.92 83.4533 132.357 83.24C132.794 83.0267 133.285 82.92 133.829 82.92ZM141.765 79.768C141.882 79.6827 142.016 79.64 142.165 79.64H142.421C142.634 79.64 142.741 79.7467 142.741 79.96V90.68C142.741 90.8933 142.634 91 142.421 91H141.989C141.776 91 141.669 90.8933 141.669 90.68V81.016L139.253 82.744C139.178 82.7973 139.109 82.824 139.045 82.824C138.949 82.824 138.869 82.776 138.805 82.68L138.645 82.44C138.602 82.3867 138.581 82.3227 138.581 82.248C138.581 82.152 138.629 82.0667 138.725 81.992L141.765 79.768ZM155.841 83.8C155.948 83.8 156.022 83.832 156.065 83.896C156.118 83.96 156.134 84.0453 156.113 84.152L155.313 87.976C155.238 88.296 155.201 88.5733 155.201 88.808C155.201 89.6293 155.606 90.04 156.417 90.04C156.812 90.04 157.174 89.9067 157.505 89.64C157.836 89.3627 158.097 88.968 158.289 88.456C158.481 87.944 158.577 87.3413 158.577 86.648C158.577 85.4533 158.321 84.44 157.809 83.608C157.297 82.7653 156.614 82.1307 155.761 81.704C154.918 81.2773 153.985 81.064 152.961 81.064C151.788 81.064 150.748 81.3413 149.841 81.896C148.934 82.44 148.23 83.192 147.729 84.152C147.228 85.1013 146.977 86.1627 146.977 87.336C146.977 88.4773 147.217 89.5013 147.697 90.408C148.177 91.304 148.886 92.008 149.825 92.52C150.764 93.0427 151.894 93.304 153.217 93.304H156.305C156.518 93.304 156.625 93.4107 156.625 93.624V93.72C156.625 93.9333 156.518 94.04 156.305 94.04H152.977C151.569 94.04 150.342 93.752 149.297 93.176C148.262 92.6107 147.468 91.8213 146.913 90.808C146.369 89.784 146.097 88.616 146.097 87.304C146.097 85.9707 146.374 84.776 146.929 83.72C147.484 82.6533 148.278 81.8213 149.313 81.224C150.348 80.616 151.548 80.312 152.913 80.312C154.182 80.312 155.313 80.5733 156.305 81.096C157.297 81.608 158.07 82.3387 158.625 83.288C159.18 84.2373 159.457 85.3413 159.457 86.6C159.457 87.4427 159.324 88.1787 159.057 88.808C158.79 89.4373 158.422 89.928 157.953 90.28C157.484 90.6213 156.95 90.792 156.353 90.792C155.67 90.792 155.174 90.6267 154.865 90.296C154.566 89.9547 154.401 89.5707 154.369 89.144C154.028 89.6773 153.633 90.088 153.185 90.376C152.737 90.6533 152.204 90.792 151.585 90.792C150.881 90.792 150.326 90.584 149.921 90.168C149.516 89.7413 149.313 89.1493 149.313 88.392C149.313 87.6453 149.468 86.9093 149.777 86.184C150.097 85.448 150.545 84.8453 151.121 84.376C151.697 83.9067 152.353 83.672 153.089 83.672C153.644 83.672 154.086 83.7947 154.417 84.04C154.758 84.2747 154.972 84.5947 155.057 85L155.233 84.088C155.265 83.896 155.382 83.8 155.585 83.8H155.841ZM151.713 89.976C152.342 89.976 152.87 89.7573 153.297 89.32C153.734 88.872 154.06 88.344 154.273 87.736C154.486 87.1173 154.593 86.568 154.593 86.088C154.593 85.544 154.481 85.1387 154.257 84.872C154.033 84.5947 153.654 84.456 153.121 84.456C152.577 84.456 152.086 84.648 151.649 85.032C151.222 85.416 150.886 85.9067 150.641 86.504C150.406 87.1013 150.289 87.6987 150.289 88.296C150.289 88.8613 150.412 89.2827 150.657 89.56C150.913 89.8373 151.265 89.976 151.713 89.976ZM167.098 83.432C167.098 83.2187 167.205 83.112 167.418 83.112H167.754C167.967 83.112 168.074 83.2187 168.074 83.432V90.92C168.074 91.912 167.775 92.6907 167.178 93.256C166.581 93.832 165.743 94.12 164.666 94.12C163.503 94.12 162.431 93.7893 161.45 93.128C161.343 93.064 161.29 92.984 161.29 92.888C161.29 92.8133 161.311 92.7493 161.354 92.696L161.546 92.424C161.61 92.3173 161.695 92.264 161.802 92.264C161.845 92.264 161.909 92.2853 161.994 92.328C162.463 92.6267 162.901 92.8507 163.306 93C163.722 93.1493 164.175 93.224 164.666 93.224C165.37 93.224 165.941 93.0267 166.378 92.632C166.815 92.248 167.034 91.6507 167.034 90.84V89.56C166.458 90.488 165.583 90.952 164.41 90.952C163.727 90.952 163.125 90.7813 162.602 90.44C162.079 90.088 161.674 89.608 161.386 89C161.109 88.392 160.97 87.704 160.97 86.936C160.97 86.168 161.109 85.48 161.386 84.872C161.674 84.264 162.079 83.7893 162.602 83.448C163.125 83.096 163.727 82.92 164.41 82.92C165.029 82.92 165.562 83.0533 166.01 83.32C166.469 83.576 166.831 83.944 167.098 84.424V83.432ZM164.522 90.056C165.29 90.056 165.903 89.768 166.362 89.192C166.821 88.6053 167.05 87.8533 167.05 86.936C167.05 86.0187 166.821 85.272 166.362 84.696C165.903 84.1093 165.29 83.816 164.522 83.816C163.743 83.816 163.135 84.104 162.698 84.68C162.271 85.256 162.058 86.008 162.058 86.936C162.058 87.864 162.271 88.616 162.698 89.192C163.135 89.768 163.743 90.056 164.522 90.056ZM178.466 82.92C179.319 82.92 179.97 83.1653 180.418 83.656C180.876 84.136 181.106 84.7547 181.106 85.512V90.68C181.106 90.8933 180.999 91 180.786 91H180.37C180.156 91 180.05 90.8933 180.05 90.68V85.8C180.05 85.16 179.9 84.6693 179.602 84.328C179.314 83.9867 178.882 83.816 178.306 83.816C177.698 83.816 177.212 84.0187 176.85 84.424C176.487 84.8293 176.306 85.352 176.306 85.992V90.68C176.306 90.8933 176.199 91 175.986 91H175.57C175.356 91 175.25 90.8933 175.25 90.68V85.8C175.25 85.16 175.1 84.6693 174.802 84.328C174.514 83.9867 174.076 83.816 173.49 83.816C172.946 83.816 172.492 83.9867 172.13 84.328C171.778 84.6693 171.57 85.1173 171.506 85.672V90.68C171.506 90.8933 171.399 91 171.186 91H170.77C170.556 91 170.45 90.8933 170.45 90.68V83.432C170.45 83.2187 170.556 83.112 170.77 83.112H171.122C171.335 83.112 171.442 83.2187 171.442 83.432V84.088C171.922 83.3093 172.684 82.92 173.73 82.92C174.274 82.92 174.738 83.0427 175.122 83.288C175.516 83.5227 175.81 83.8427 176.002 84.248C176.567 83.3627 177.388 82.92 178.466 82.92ZM186.474 82.92C187.445 82.92 188.202 83.1547 188.746 83.624C189.29 84.0827 189.562 84.6907 189.562 85.448V90.68C189.562 90.8933 189.455 91 189.242 91H188.922C188.709 91 188.602 90.8933 188.602 90.68V89.96C188.335 90.3867 187.957 90.7067 187.466 90.92C186.986 91.1333 186.447 91.24 185.85 91.24C185.018 91.24 184.341 91.064 183.818 90.712C183.295 90.36 183.034 89.816 183.034 89.08C183.034 88.4933 183.199 88.024 183.53 87.672C183.861 87.3093 184.293 87.0373 184.826 86.856C185.359 86.664 186.026 86.4933 186.826 86.344L188.554 86.04V85.528C188.554 84.984 188.367 84.5627 187.994 84.264C187.621 83.9547 187.13 83.8 186.522 83.8C186.063 83.8 185.647 83.8853 185.274 84.056C184.901 84.2267 184.501 84.52 184.074 84.936C183.999 85.0107 183.919 85.048 183.834 85.048C183.759 85.048 183.69 85.016 183.626 84.952L183.418 84.76C183.343 84.6853 183.306 84.6053 183.306 84.52C183.306 84.424 183.343 84.3387 183.418 84.264C183.866 83.7947 184.335 83.4533 184.826 83.24C185.327 83.0267 185.877 82.92 186.474 82.92ZM185.898 90.36C186.666 90.36 187.301 90.1573 187.802 89.752C188.303 89.3467 188.554 88.8293 188.554 88.2V86.856L187.066 87.144C186.373 87.2827 185.823 87.416 185.418 87.544C185.013 87.672 184.687 87.8587 184.442 88.104C184.197 88.3493 184.074 88.6693 184.074 89.064C184.074 89.4693 184.234 89.7893 184.554 90.024C184.885 90.248 185.333 90.36 185.898 90.36ZM192.431 81.112C192.217 81.112 192.036 81.0373 191.887 80.888C191.748 80.7387 191.679 80.5573 191.679 80.344C191.679 80.1307 191.748 79.9547 191.887 79.816C192.036 79.6773 192.217 79.608 192.431 79.608C192.655 79.608 192.836 79.6773 192.975 79.816C193.124 79.9547 193.199 80.1307 193.199 80.344C193.199 80.5573 193.124 80.7387 192.975 80.888C192.836 81.0373 192.655 81.112 192.431 81.112ZM192.223 91C192.009 91 191.903 90.8933 191.903 90.68V83.432C191.903 83.2187 192.009 83.112 192.223 83.112H192.639C192.852 83.112 192.959 83.2187 192.959 83.432V90.68C192.959 90.8933 192.852 91 192.639 91H192.223ZM195.645 91C195.432 91 195.325 90.8933 195.325 90.68V79.96C195.325 79.7467 195.432 79.64 195.645 79.64H196.061C196.274 79.64 196.381 79.7467 196.381 79.96V90.68C196.381 90.8933 196.274 91 196.061 91H195.645ZM199.194 91.112C198.97 91.112 198.778 91.032 198.618 90.872C198.458 90.712 198.378 90.52 198.378 90.296C198.378 90.072 198.458 89.88 198.618 89.72C198.778 89.56 198.97 89.48 199.194 89.48C199.418 89.48 199.61 89.56 199.77 89.72C199.93 89.88 200.01 90.072 200.01 90.296C200.01 90.52 199.93 90.712 199.77 90.872C199.61 91.032 199.418 91.112 199.194 91.112ZM205.04 91.208C204.283 91.208 203.622 91.0373 203.056 90.696C202.502 90.344 202.07 89.8587 201.76 89.24C201.462 88.6107 201.312 87.8853 201.312 87.064C201.312 86.2533 201.462 85.5333 201.76 84.904C202.07 84.2747 202.502 83.7893 203.056 83.448C203.622 83.096 204.272 82.92 205.008 82.92C205.606 82.92 206.128 83.0213 206.576 83.224C207.024 83.416 207.456 83.736 207.872 84.184C207.936 84.248 207.968 84.3173 207.968 84.392C207.968 84.488 207.926 84.568 207.84 84.632L207.616 84.84C207.552 84.904 207.478 84.936 207.392 84.936C207.318 84.936 207.238 84.8933 207.152 84.808C206.779 84.4347 206.422 84.1733 206.08 84.024C205.75 83.8747 205.382 83.8 204.976 83.8C204.422 83.8 203.947 83.9547 203.552 84.264C203.168 84.5733 202.88 84.9787 202.688 85.48C202.496 85.9707 202.4 86.4987 202.4 87.064C202.4 87.6293 202.496 88.1627 202.688 88.664C202.88 89.1547 203.174 89.5547 203.568 89.864C203.963 90.1627 204.448 90.312 205.024 90.312C205.451 90.312 205.824 90.2373 206.144 90.088C206.475 89.928 206.843 89.6293 207.248 89.192C207.334 89.1067 207.414 89.064 207.488 89.064C207.574 89.064 207.648 89.096 207.712 89.16L207.936 89.336C208.011 89.4 208.048 89.4747 208.048 89.56C208.048 89.6453 208 89.7467 207.904 89.864C207.456 90.3547 207.008 90.7013 206.56 90.904C206.112 91.1067 205.606 91.208 205.04 91.208ZM212.87 91.208C212.134 91.208 211.478 91.032 210.902 90.68C210.326 90.328 209.878 89.8427 209.558 89.224C209.238 88.5947 209.078 87.8747 209.078 87.064C209.078 86.2533 209.238 85.5387 209.558 84.92C209.878 84.2907 210.326 83.8 210.902 83.448C211.478 83.096 212.134 82.92 212.87 82.92C213.606 82.92 214.262 83.096 214.838 83.448C215.414 83.8 215.862 84.2907 216.182 84.92C216.502 85.5387 216.662 86.2533 216.662 87.064C216.662 87.8747 216.502 88.5947 216.182 89.224C215.862 89.8427 215.414 90.328 214.838 90.68C214.262 91.032 213.606 91.208 212.87 91.208ZM212.87 90.328C213.691 90.328 214.347 90.0293 214.838 89.432C215.329 88.824 215.574 88.0347 215.574 87.064C215.574 86.0933 215.329 85.3093 214.838 84.712C214.347 84.104 213.691 83.8 212.87 83.8C212.049 83.8 211.393 84.104 210.902 84.712C210.411 85.3093 210.166 86.0933 210.166 87.064C210.166 88.0347 210.411 88.824 210.902 89.432C211.393 90.0293 212.049 90.328 212.87 90.328ZM226.513 82.92C227.366 82.92 228.017 83.1653 228.465 83.656C228.923 84.136 229.153 84.7547 229.153 85.512V90.68C229.153 90.8933 229.046 91 228.833 91H228.417C228.203 91 228.097 90.8933 228.097 90.68V85.8C228.097 85.16 227.947 84.6693 227.649 84.328C227.361 83.9867 226.929 83.816 226.352 83.816C225.745 83.816 225.259 84.0187 224.897 84.424C224.534 84.8293 224.353 85.352 224.353 85.992V90.68C224.353 90.8933 224.246 91 224.033 91H223.617C223.403 91 223.297 90.8933 223.297 90.68V85.8C223.297 85.16 223.147 84.6693 222.849 84.328C222.561 83.9867 222.123 83.816 221.536 83.816C220.993 83.816 220.539 83.9867 220.177 84.328C219.825 84.6693 219.617 85.1173 219.553 85.672V90.68C219.553 90.8933 219.446 91 219.233 91H218.817C218.603 91 218.497 90.8933 218.497 90.68V83.432C218.497 83.2187 218.603 83.112 218.817 83.112H219.169C219.382 83.112 219.489 83.2187 219.489 83.432V84.088C219.969 83.3093 220.731 82.92 221.777 82.92C222.321 82.92 222.785 83.0427 223.169 83.288C223.563 83.5227 223.857 83.8427 224.049 84.248C224.614 83.3627 225.435 82.92 226.513 82.92Z" fill="#C3CCD9"/>
</g>
<rect x="70.5" y="62.5" width="202" height="47" rx="3.5" stroke="#C3CCD9"/>
<path d="M71.272 126C71.112 126 71.032 125.92 71.032 125.76V117.72C71.032 117.56 71.112 117.48 71.272 117.48H74.5C75.324 117.48 75.988 117.696 76.492 118.128C76.996 118.56 77.248 119.172 77.248 119.964C77.248 120.756 76.996 121.372 76.492 121.812C75.988 122.244 75.324 122.46 74.5 122.46H71.884V125.76C71.884 125.92 71.804 126 71.644 126H71.272ZM74.392 121.752C75.016 121.752 75.508 121.6 75.868 121.296C76.228 120.992 76.408 120.548 76.408 119.964C76.408 119.388 76.228 118.948 75.868 118.644C75.508 118.34 75.016 118.188 74.392 118.188H71.884V121.752H74.392ZM80.5039 119.94C81.2319 119.94 81.7999 120.116 82.2079 120.468C82.6159 120.812 82.8199 121.268 82.8199 121.836V125.76C82.8199 125.92 82.7399 126 82.5799 126H82.3399C82.1799 126 82.0999 125.92 82.0999 125.76V125.22C81.8999 125.54 81.6159 125.78 81.2479 125.94C80.8879 126.1 80.4839 126.18 80.0359 126.18C79.4119 126.18 78.9039 126.048 78.5119 125.784C78.1199 125.52 77.9239 125.112 77.9239 124.56C77.9239 124.12 78.0479 123.768 78.2959 123.504C78.5439 123.232 78.8679 123.028 79.2679 122.892C79.6679 122.748 80.1679 122.62 80.7679 122.508L82.0639 122.28V121.896C82.0639 121.488 81.9239 121.172 81.6439 120.948C81.3639 120.716 80.9959 120.6 80.5399 120.6C80.1959 120.6 79.8839 120.664 79.6039 120.792C79.3239 120.92 79.0239 121.14 78.7039 121.452C78.6479 121.508 78.5879 121.536 78.5239 121.536C78.4679 121.536 78.4159 121.512 78.3679 121.464L78.2119 121.32C78.1559 121.264 78.1279 121.204 78.1279 121.14C78.1279 121.068 78.1559 121.004 78.2119 120.948C78.5479 120.596 78.8999 120.34 79.2679 120.18C79.6439 120.02 80.0559 119.94 80.5039 119.94ZM80.0719 125.52C80.6479 125.52 81.1239 125.368 81.4999 125.064C81.8759 124.76 82.0639 124.372 82.0639 123.9V122.892L80.9479 123.108C80.4279 123.212 80.0159 123.312 79.7119 123.408C79.4079 123.504 79.1639 123.644 78.9799 123.828C78.7959 124.012 78.7039 124.252 78.7039 124.548C78.7039 124.852 78.8239 125.092 79.0639 125.268C79.3119 125.436 79.6479 125.52 80.0719 125.52ZM86.6395 126.156C86.1515 126.156 85.7195 126.088 85.3435 125.952C84.9755 125.808 84.5875 125.568 84.1795 125.232C84.1075 125.184 84.0715 125.128 84.0715 125.064C84.0715 125.008 84.0995 124.952 84.1555 124.896L84.3115 124.728C84.3595 124.664 84.4195 124.632 84.4915 124.632C84.5475 124.632 84.5995 124.656 84.6475 124.704C85.0315 125 85.3715 125.208 85.6675 125.328C85.9635 125.44 86.2875 125.496 86.6395 125.496C87.0795 125.496 87.4395 125.4 87.7195 125.208C87.9995 125.008 88.1395 124.74 88.1395 124.404C88.1395 124.068 87.9955 123.82 87.7075 123.66C87.4195 123.5 86.9755 123.356 86.3755 123.228C85.8475 123.116 85.4315 123 85.1275 122.88C84.8315 122.752 84.6115 122.592 84.4675 122.4C84.3235 122.208 84.2515 121.956 84.2515 121.644C84.2515 121.132 84.4595 120.72 84.8755 120.408C85.2915 120.096 85.8155 119.94 86.4475 119.94C86.8795 119.94 87.2635 119.996 87.5995 120.108C87.9435 120.212 88.2875 120.388 88.6315 120.636C88.7035 120.692 88.7395 120.752 88.7395 120.816C88.7395 120.856 88.7195 120.908 88.6795 120.972L88.5355 121.152C88.4955 121.216 88.4395 121.248 88.3675 121.248C88.3035 121.248 88.2475 121.228 88.1995 121.188C87.8715 120.956 87.5795 120.8 87.3235 120.72C87.0755 120.64 86.7915 120.6 86.4715 120.6C86.0315 120.6 85.6795 120.696 85.4155 120.888C85.1515 121.08 85.0195 121.324 85.0195 121.62C85.0195 121.804 85.0795 121.952 85.1995 122.064C85.3195 122.176 85.4915 122.272 85.7155 122.352C85.9395 122.424 86.2675 122.508 86.6995 122.604C87.4995 122.78 88.0675 122.996 88.4035 123.252C88.7475 123.508 88.9195 123.88 88.9195 124.368C88.9195 124.904 88.7075 125.336 88.2835 125.664C87.8595 125.992 87.3115 126.156 86.6395 126.156ZM92.3231 126.156C91.8351 126.156 91.4031 126.088 91.0271 125.952C90.6591 125.808 90.2711 125.568 89.8631 125.232C89.7911 125.184 89.7551 125.128 89.7551 125.064C89.7551 125.008 89.7831 124.952 89.8391 124.896L89.9951 124.728C90.0431 124.664 90.1031 124.632 90.1751 124.632C90.2311 124.632 90.2831 124.656 90.3311 124.704C90.7151 125 91.0551 125.208 91.3511 125.328C91.6471 125.44 91.9711 125.496 92.3231 125.496C92.7631 125.496 93.1231 125.4 93.4031 125.208C93.6831 125.008 93.8231 124.74 93.8231 124.404C93.8231 124.068 93.6791 123.82 93.3911 123.66C93.1031 123.5 92.6591 123.356 92.0591 123.228C91.5311 123.116 91.1151 123 90.8111 122.88C90.5151 122.752 90.2951 122.592 90.1511 122.4C90.0071 122.208 89.9351 121.956 89.9351 121.644C89.9351 121.132 90.1431 120.72 90.5591 120.408C90.9751 120.096 91.4991 119.94 92.1311 119.94C92.5631 119.94 92.9471 119.996 93.2831 120.108C93.6271 120.212 93.9711 120.388 94.3151 120.636C94.3871 120.692 94.4231 120.752 94.4231 120.816C94.4231 120.856 94.4031 120.908 94.3631 120.972L94.2191 121.152C94.1791 121.216 94.1231 121.248 94.0511 121.248C93.9871 121.248 93.9311 121.228 93.8831 121.188C93.5551 120.956 93.2631 120.8 93.0071 120.72C92.7591 120.64 92.4751 120.6 92.1551 120.6C91.7151 120.6 91.3631 120.696 91.0991 120.888C90.8351 121.08 90.7031 121.324 90.7031 121.62C90.7031 121.804 90.7631 121.952 90.8831 122.064C91.0031 122.176 91.1751 122.272 91.3991 122.352C91.6231 122.424 91.9511 122.508 92.3831 122.604C93.1831 122.78 93.7511 122.996 94.0871 123.252C94.4311 123.508 94.6031 123.88 94.6031 124.368C94.6031 124.904 94.3911 125.336 93.9671 125.664C93.5431 125.992 92.9951 126.156 92.3231 126.156ZM102.496 120.288C102.528 120.152 102.62 120.084 102.772 120.084H103.096C103.184 120.084 103.244 120.108 103.276 120.156C103.316 120.204 103.324 120.268 103.3 120.348L101.752 125.796C101.72 125.932 101.628 126 101.476 126H100.936C100.8 126 100.712 125.932 100.672 125.796L100.12 123.96C99.8318 123 99.5638 122.016 99.3158 121.008C99.0758 121.984 98.8118 122.976 98.5238 123.984L97.9958 125.796C97.9638 125.932 97.8718 126 97.7198 126H97.2038C97.0518 126 96.9598 125.932 96.9278 125.796L95.3798 120.348C95.3718 120.332 95.3678 120.304 95.3678 120.264C95.3678 120.208 95.3878 120.164 95.4278 120.132C95.4678 120.1 95.5198 120.084 95.5838 120.084H95.9078C96.0598 120.084 96.1518 120.152 96.1838 120.288L96.7598 122.412C97.0238 123.38 97.2678 124.344 97.4918 125.304C97.6678 124.592 97.9278 123.628 98.2718 122.412L98.8838 120.288C98.9158 120.152 99.0078 120.084 99.1598 120.084H99.5198C99.6638 120.084 99.7518 120.152 99.7838 120.288L100.408 122.412C100.68 123.396 100.936 124.364 101.176 125.316C101.36 124.516 101.608 123.548 101.92 122.412L102.496 120.288ZM106.91 126.156C106.358 126.156 105.866 126.024 105.434 125.76C105.002 125.496 104.666 125.132 104.426 124.668C104.186 124.196 104.066 123.656 104.066 123.048C104.066 122.44 104.186 121.904 104.426 121.44C104.666 120.968 105.002 120.6 105.434 120.336C105.866 120.072 106.358 119.94 106.91 119.94C107.462 119.94 107.954 120.072 108.386 120.336C108.818 120.6 109.154 120.968 109.394 121.44C109.634 121.904 109.754 122.44 109.754 123.048C109.754 123.656 109.634 124.196 109.394 124.668C109.154 125.132 108.818 125.496 108.386 125.76C107.954 126.024 107.462 126.156 106.91 126.156ZM106.91 125.496C107.526 125.496 108.018 125.272 108.386 124.824C108.754 124.368 108.938 123.776 108.938 123.048C108.938 122.32 108.754 121.732 108.386 121.284C108.018 120.828 107.526 120.6 106.91 120.6C106.294 120.6 105.802 120.828 105.434 121.284C105.066 121.732 104.882 122.32 104.882 123.048C104.882 123.776 105.066 124.368 105.434 124.824C105.802 125.272 106.294 125.496 106.91 125.496ZM113.338 120.036C113.538 120.036 113.774 120.068 114.046 120.132C114.19 120.18 114.246 120.28 114.214 120.432L114.166 120.624C114.126 120.776 114.026 120.832 113.866 120.792C113.674 120.744 113.498 120.72 113.338 120.72C112.93 120.72 112.59 120.896 112.318 121.248C112.054 121.6 111.922 122.088 111.922 122.712V125.76C111.922 125.92 111.842 126 111.682 126H111.37C111.21 126 111.13 125.92 111.13 125.76V120.324C111.13 120.164 111.21 120.084 111.37 120.084H111.634C111.794 120.084 111.874 120.164 111.874 120.324V120.984C112.01 120.688 112.202 120.456 112.45 120.288C112.706 120.12 113.002 120.036 113.338 120.036ZM119.234 117.72C119.234 117.56 119.314 117.48 119.474 117.48H119.786C119.946 117.48 120.026 117.56 120.026 117.72V125.76C120.026 125.92 119.946 126 119.786 126H119.534C119.374 126 119.294 125.92 119.294 125.76V124.98C119.078 125.356 118.794 125.644 118.442 125.844C118.09 126.044 117.674 126.144 117.194 126.144C116.69 126.144 116.242 126.016 115.85 125.76C115.458 125.496 115.15 125.132 114.926 124.668C114.702 124.196 114.59 123.656 114.59 123.048C114.59 122.44 114.702 121.904 114.926 121.44C115.158 120.968 115.474 120.604 115.874 120.348C116.274 120.084 116.722 119.952 117.218 119.952C118.13 119.952 118.802 120.292 119.234 120.972V117.72ZM117.254 125.472C117.854 125.472 118.338 125.26 118.706 124.836C119.082 124.404 119.27 123.808 119.27 123.048C119.27 122.296 119.082 121.704 118.706 121.272C118.338 120.84 117.854 120.624 117.254 120.624C116.702 120.624 116.254 120.848 115.91 121.296C115.574 121.744 115.406 122.328 115.406 123.048C115.406 123.776 115.574 124.364 115.91 124.812C116.246 125.252 116.694 125.472 117.254 125.472ZM130.584 119.94C131.224 119.94 131.712 120.124 132.048 120.492C132.392 120.852 132.564 121.316 132.564 121.884V125.76C132.564 125.92 132.484 126 132.324 126H132.012C131.852 126 131.772 125.92 131.772 125.76V122.1C131.772 121.62 131.66 121.252 131.436 120.996C131.22 120.74 130.896 120.612 130.464 120.612C130.008 120.612 129.644 120.764 129.372 121.068C129.1 121.372 128.964 121.764 128.964 122.244V125.76C128.964 125.92 128.884 126 128.724 126H128.412C128.252 126 128.172 125.92 128.172 125.76V122.1C128.172 121.62 128.06 121.252 127.836 120.996C127.62 120.74 127.292 120.612 126.852 120.612C126.444 120.612 126.104 120.74 125.832 120.996C125.568 121.252 125.412 121.588 125.364 122.004V125.76C125.364 125.92 125.284 126 125.124 126H124.812C124.652 126 124.572 125.92 124.572 125.76V120.324C124.572 120.164 124.652 120.084 124.812 120.084H125.076C125.236 120.084 125.316 120.164 125.316 120.324V120.816C125.676 120.232 126.248 119.94 127.032 119.94C127.44 119.94 127.788 120.032 128.076 120.216C128.372 120.392 128.592 120.632 128.736 120.936C129.16 120.272 129.776 119.94 130.584 119.94ZM138.115 120.324C138.115 120.164 138.195 120.084 138.355 120.084H138.667C138.827 120.084 138.907 120.164 138.907 120.324V125.76C138.907 125.92 138.827 126 138.667 126H138.415C138.255 126 138.175 125.92 138.175 125.76V125.22C137.999 125.532 137.747 125.768 137.419 125.928C137.099 126.08 136.747 126.156 136.363 126.156C135.643 126.156 135.111 125.976 134.767 125.616C134.423 125.248 134.251 124.776 134.251 124.2V120.324C134.251 120.164 134.331 120.084 134.491 120.084H134.803C134.963 120.084 135.043 120.164 135.043 120.324V124.032C135.043 124.504 135.159 124.864 135.391 125.112C135.631 125.352 135.971 125.472 136.411 125.472C136.907 125.472 137.315 125.32 137.635 125.016C137.955 124.712 138.115 124.28 138.115 123.72V120.324ZM142.749 126.156C142.261 126.156 141.829 126.088 141.453 125.952C141.085 125.808 140.697 125.568 140.289 125.232C140.217 125.184 140.181 125.128 140.181 125.064C140.181 125.008 140.209 124.952 140.265 124.896L140.421 124.728C140.469 124.664 140.529 124.632 140.601 124.632C140.657 124.632 140.709 124.656 140.757 124.704C141.141 125 141.481 125.208 141.777 125.328C142.073 125.44 142.397 125.496 142.749 125.496C143.189 125.496 143.549 125.4 143.829 125.208C144.109 125.008 144.249 124.74 144.249 124.404C144.249 124.068 144.105 123.82 143.817 123.66C143.529 123.5 143.085 123.356 142.485 123.228C141.957 123.116 141.541 123 141.237 122.88C140.941 122.752 140.721 122.592 140.577 122.4C140.433 122.208 140.361 121.956 140.361 121.644C140.361 121.132 140.569 120.72 140.985 120.408C141.401 120.096 141.925 119.94 142.557 119.94C142.989 119.94 143.373 119.996 143.709 120.108C144.053 120.212 144.397 120.388 144.741 120.636C144.813 120.692 144.849 120.752 144.849 120.816C144.849 120.856 144.829 120.908 144.789 120.972L144.645 121.152C144.605 121.216 144.549 121.248 144.477 121.248C144.413 121.248 144.357 121.228 144.309 121.188C143.981 120.956 143.689 120.8 143.433 120.72C143.185 120.64 142.901 120.6 142.581 120.6C142.141 120.6 141.789 120.696 141.525 120.888C141.261 121.08 141.129 121.324 141.129 121.62C141.129 121.804 141.189 121.952 141.309 122.064C141.429 122.176 141.601 122.272 141.825 122.352C142.049 122.424 142.377 122.508 142.809 122.604C143.609 122.78 144.177 122.996 144.513 123.252C144.857 123.508 145.029 123.88 145.029 124.368C145.029 124.904 144.817 125.336 144.393 125.664C143.969 125.992 143.421 126.156 142.749 126.156ZM149.009 125.34C149.033 125.332 149.065 125.328 149.105 125.328C149.153 125.328 149.197 125.344 149.237 125.376C149.277 125.408 149.301 125.452 149.309 125.508L149.345 125.676C149.353 125.692 149.357 125.72 149.357 125.76C149.357 125.872 149.297 125.94 149.177 125.964C148.889 126.052 148.581 126.096 148.253 126.096C147.733 126.096 147.361 125.98 147.137 125.748C146.921 125.508 146.813 125.164 146.813 124.716V120.684H145.925C145.765 120.684 145.685 120.604 145.685 120.444V120.324C145.685 120.164 145.765 120.084 145.925 120.084H146.813V118.26C146.813 118.1 146.893 118.02 147.053 118.02H147.365C147.525 118.02 147.605 118.1 147.605 118.26V120.084H149.045C149.205 120.084 149.285 120.164 149.285 120.324V120.444C149.285 120.604 149.205 120.684 149.045 120.684H147.605V124.62C147.605 124.916 147.661 125.124 147.773 125.244C147.885 125.364 148.077 125.424 148.349 125.424C148.541 125.424 148.761 125.396 149.009 125.34ZM156.091 119.952C156.595 119.952 157.043 120.084 157.435 120.348C157.835 120.604 158.143 120.968 158.359 121.44C158.583 121.904 158.695 122.44 158.695 123.048C158.695 123.656 158.583 124.196 158.359 124.668C158.135 125.132 157.823 125.496 157.423 125.76C157.031 126.016 156.587 126.144 156.091 126.144C155.139 126.144 154.443 125.776 154.003 125.04V125.76C154.003 125.92 153.923 126 153.763 126H153.499C153.339 126 153.259 125.92 153.259 125.76V117.708C153.259 117.548 153.339 117.468 153.499 117.468H153.811C153.971 117.468 154.051 117.548 154.051 117.708V121.02C154.491 120.308 155.171 119.952 156.091 119.952ZM156.031 125.472C156.583 125.472 157.027 125.248 157.363 124.8C157.707 124.352 157.879 123.768 157.879 123.048C157.879 122.328 157.707 121.744 157.363 121.296C157.027 120.848 156.583 120.624 156.031 120.624C155.439 120.624 154.955 120.84 154.579 121.272C154.203 121.704 154.015 122.296 154.015 123.048C154.015 123.808 154.199 124.404 154.567 124.836C154.943 125.26 155.431 125.472 156.031 125.472ZM164.481 124.596C164.537 124.54 164.597 124.512 164.661 124.512C164.717 124.512 164.769 124.536 164.817 124.584L164.973 124.728C165.029 124.784 165.057 124.844 165.057 124.908C165.057 124.956 165.033 125.012 164.985 125.076C164.593 125.468 164.213 125.748 163.845 125.916C163.477 126.076 163.065 126.156 162.609 126.156C162.033 126.156 161.533 126.028 161.109 125.772C160.685 125.516 160.357 125.16 160.125 124.704C159.893 124.24 159.777 123.704 159.777 123.096C159.777 122.48 159.889 121.936 160.113 121.464C160.345 120.984 160.669 120.612 161.085 120.348C161.501 120.076 161.981 119.94 162.525 119.94C163.333 119.94 163.969 120.192 164.433 120.696C164.897 121.2 165.129 121.88 165.129 122.736V122.88C165.121 122.952 165.093 123.008 165.045 123.048C165.005 123.088 164.949 123.108 164.877 123.108H160.581C160.605 123.78 160.781 124.348 161.109 124.812C161.445 125.268 161.945 125.496 162.609 125.496C162.969 125.496 163.285 125.432 163.557 125.304C163.837 125.168 164.145 124.932 164.481 124.596ZM162.525 120.6C161.997 120.6 161.561 120.764 161.217 121.092C160.881 121.412 160.677 121.884 160.605 122.508H164.337C164.321 121.924 164.153 121.46 163.833 121.116C163.513 120.772 163.077 120.6 162.525 120.6ZM171.594 119.94C172.322 119.94 172.89 120.116 173.298 120.468C173.706 120.812 173.91 121.268 173.91 121.836V125.76C173.91 125.92 173.83 126 173.67 126H173.43C173.27 126 173.19 125.92 173.19 125.76V125.22C172.99 125.54 172.706 125.78 172.338 125.94C171.978 126.1 171.574 126.18 171.126 126.18C170.502 126.18 169.994 126.048 169.602 125.784C169.21 125.52 169.014 125.112 169.014 124.56C169.014 124.12 169.138 123.768 169.386 123.504C169.634 123.232 169.958 123.028 170.358 122.892C170.758 122.748 171.258 122.62 171.858 122.508L173.154 122.28V121.896C173.154 121.488 173.014 121.172 172.734 120.948C172.454 120.716 172.086 120.6 171.63 120.6C171.286 120.6 170.974 120.664 170.694 120.792C170.414 120.92 170.114 121.14 169.794 121.452C169.738 121.508 169.678 121.536 169.614 121.536C169.558 121.536 169.506 121.512 169.458 121.464L169.302 121.32C169.246 121.264 169.218 121.204 169.218 121.14C169.218 121.068 169.246 121.004 169.302 120.948C169.638 120.596 169.99 120.34 170.358 120.18C170.734 120.02 171.146 119.94 171.594 119.94ZM171.162 125.52C171.738 125.52 172.214 125.368 172.59 125.064C172.966 124.76 173.154 124.372 173.154 123.9V122.892L172.038 123.108C171.518 123.212 171.106 123.312 170.802 123.408C170.498 123.504 170.254 123.644 170.07 123.828C169.886 124.012 169.794 124.252 169.794 124.548C169.794 124.852 169.914 125.092 170.154 125.268C170.402 125.436 170.738 125.52 171.162 125.52ZM178.165 125.34C178.189 125.332 178.221 125.328 178.261 125.328C178.309 125.328 178.353 125.344 178.393 125.376C178.433 125.408 178.457 125.452 178.465 125.508L178.501 125.676C178.509 125.692 178.513 125.72 178.513 125.76C178.513 125.872 178.453 125.94 178.333 125.964C178.045 126.052 177.737 126.096 177.409 126.096C176.889 126.096 176.517 125.98 176.293 125.748C176.077 125.508 175.969 125.164 175.969 124.716V120.684H175.081C174.921 120.684 174.841 120.604 174.841 120.444V120.324C174.841 120.164 174.921 120.084 175.081 120.084H175.969V118.26C175.969 118.1 176.049 118.02 176.209 118.02H176.521C176.681 118.02 176.761 118.1 176.761 118.26V120.084H178.201C178.361 120.084 178.441 120.164 178.441 120.324V120.444C178.441 120.604 178.361 120.684 178.201 120.684H176.761V124.62C176.761 124.916 176.817 125.124 176.929 125.244C177.041 125.364 177.233 125.424 177.505 125.424C177.697 125.424 177.917 125.396 178.165 125.34ZM182.667 126C182.507 126 182.427 125.92 182.427 125.76V117.72C182.427 117.56 182.507 117.48 182.667 117.48H182.979C183.139 117.48 183.219 117.56 183.219 117.72V125.76C183.219 125.92 183.139 126 182.979 126H182.667ZM189.313 124.596C189.369 124.54 189.429 124.512 189.493 124.512C189.549 124.512 189.601 124.536 189.649 124.584L189.805 124.728C189.861 124.784 189.889 124.844 189.889 124.908C189.889 124.956 189.865 125.012 189.817 125.076C189.425 125.468 189.045 125.748 188.677 125.916C188.309 126.076 187.897 126.156 187.441 126.156C186.865 126.156 186.365 126.028 185.941 125.772C185.517 125.516 185.189 125.16 184.957 124.704C184.725 124.24 184.609 123.704 184.609 123.096C184.609 122.48 184.721 121.936 184.945 121.464C185.177 120.984 185.501 120.612 185.917 120.348C186.333 120.076 186.813 119.94 187.357 119.94C188.165 119.94 188.801 120.192 189.265 120.696C189.729 121.2 189.961 121.88 189.961 122.736V122.88C189.953 122.952 189.925 123.008 189.877 123.048C189.837 123.088 189.781 123.108 189.709 123.108H185.413C185.437 123.78 185.613 124.348 185.941 124.812C186.277 125.268 186.777 125.496 187.441 125.496C187.801 125.496 188.117 125.432 188.389 125.304C188.669 125.168 188.977 124.932 189.313 124.596ZM187.357 120.6C186.829 120.6 186.393 120.764 186.049 121.092C185.713 121.412 185.509 121.884 185.437 122.508H189.169C189.153 121.924 188.985 121.46 188.665 121.116C188.345 120.772 187.909 120.6 187.357 120.6ZM193.555 119.94C194.283 119.94 194.851 120.116 195.259 120.468C195.667 120.812 195.871 121.268 195.871 121.836V125.76C195.871 125.92 195.791 126 195.631 126H195.391C195.231 126 195.151 125.92 195.151 125.76V125.22C194.951 125.54 194.667 125.78 194.299 125.94C193.939 126.1 193.535 126.18 193.087 126.18C192.463 126.18 191.955 126.048 191.563 125.784C191.171 125.52 190.975 125.112 190.975 124.56C190.975 124.12 191.099 123.768 191.347 123.504C191.595 123.232 191.919 123.028 192.319 122.892C192.719 122.748 193.219 122.62 193.819 122.508L195.115 122.28V121.896C195.115 121.488 194.975 121.172 194.695 120.948C194.415 120.716 194.047 120.6 193.591 120.6C193.247 120.6 192.935 120.664 192.655 120.792C192.375 120.92 192.075 121.14 191.755 121.452C191.699 121.508 191.639 121.536 191.575 121.536C191.519 121.536 191.467 121.512 191.419 121.464L191.263 121.32C191.207 121.264 191.179 121.204 191.179 121.14C191.179 121.068 191.207 121.004 191.263 120.948C191.599 120.596 191.951 120.34 192.319 120.18C192.695 120.02 193.107 119.94 193.555 119.94ZM193.123 125.52C193.699 125.52 194.175 125.368 194.551 125.064C194.927 124.76 195.115 124.372 195.115 123.9V122.892L193.999 123.108C193.479 123.212 193.067 123.312 192.763 123.408C192.459 123.504 192.215 123.644 192.031 123.828C191.847 124.012 191.755 124.252 191.755 124.548C191.755 124.852 191.875 125.092 192.115 125.268C192.363 125.436 192.699 125.52 193.123 125.52ZM199.69 126.156C199.202 126.156 198.77 126.088 198.394 125.952C198.026 125.808 197.638 125.568 197.23 125.232C197.158 125.184 197.122 125.128 197.122 125.064C197.122 125.008 197.15 124.952 197.206 124.896L197.362 124.728C197.41 124.664 197.47 124.632 197.542 124.632C197.598 124.632 197.65 124.656 197.698 124.704C198.082 125 198.422 125.208 198.718 125.328C199.014 125.44 199.338 125.496 199.69 125.496C200.13 125.496 200.49 125.4 200.77 125.208C201.05 125.008 201.19 124.74 201.19 124.404C201.19 124.068 201.046 123.82 200.758 123.66C200.47 123.5 200.026 123.356 199.426 123.228C198.898 123.116 198.482 123 198.178 122.88C197.882 122.752 197.662 122.592 197.518 122.4C197.374 122.208 197.302 121.956 197.302 121.644C197.302 121.132 197.51 120.72 197.926 120.408C198.342 120.096 198.866 119.94 199.498 119.94C199.93 119.94 200.314 119.996 200.65 120.108C200.994 120.212 201.338 120.388 201.682 120.636C201.754 120.692 201.79 120.752 201.79 120.816C201.79 120.856 201.77 120.908 201.73 120.972L201.586 121.152C201.546 121.216 201.49 121.248 201.418 121.248C201.354 121.248 201.298 121.228 201.25 121.188C200.922 120.956 200.63 120.8 200.374 120.72C200.126 120.64 199.842 120.6 199.522 120.6C199.082 120.6 198.73 120.696 198.466 120.888C198.202 121.08 198.07 121.324 198.07 121.62C198.07 121.804 198.13 121.952 198.25 122.064C198.37 122.176 198.542 122.272 198.766 122.352C198.99 122.424 199.318 122.508 199.75 122.604C200.55 122.78 201.118 122.996 201.454 123.252C201.798 123.508 201.97 123.88 201.97 124.368C201.97 124.904 201.758 125.336 201.334 125.664C200.91 125.992 200.362 126.156 199.69 126.156ZM205.95 125.34C205.974 125.332 206.006 125.328 206.046 125.328C206.094 125.328 206.138 125.344 206.178 125.376C206.218 125.408 206.242 125.452 206.25 125.508L206.286 125.676C206.294 125.692 206.298 125.72 206.298 125.76C206.298 125.872 206.238 125.94 206.118 125.964C205.83 126.052 205.522 126.096 205.194 126.096C204.674 126.096 204.302 125.98 204.078 125.748C203.862 125.508 203.754 125.164 203.754 124.716V120.684H202.866C202.706 120.684 202.626 120.604 202.626 120.444V120.324C202.626 120.164 202.706 120.084 202.866 120.084H203.754V118.26C203.754 118.1 203.834 118.02 203.994 118.02H204.306C204.466 118.02 204.546 118.1 204.546 118.26V120.084H205.986C206.146 120.084 206.226 120.164 206.226 120.324V120.444C206.226 120.604 206.146 120.684 205.986 120.684H204.546V124.62C204.546 124.916 204.602 125.124 204.714 125.244C204.826 125.364 205.018 125.424 205.29 125.424C205.482 125.424 205.702 125.396 205.95 125.34ZM214.293 121.392C214.837 121.584 215.257 121.884 215.553 122.292C215.849 122.692 215.997 123.16 215.997 123.696C215.997 124.168 215.873 124.596 215.625 124.98C215.377 125.356 215.021 125.652 214.557 125.868C214.093 126.084 213.545 126.192 212.913 126.192C212.281 126.192 211.733 126.084 211.269 125.868C210.805 125.652 210.449 125.356 210.201 124.98C209.953 124.596 209.829 124.168 209.829 123.696C209.829 123.16 209.977 122.692 210.273 122.292C210.569 121.884 210.989 121.584 211.533 121.392C211.141 121.216 210.833 120.972 210.609 120.66C210.385 120.34 210.273 119.964 210.273 119.532C210.273 119.1 210.385 118.716 210.609 118.38C210.833 118.044 211.145 117.784 211.545 117.6C211.945 117.408 212.401 117.312 212.913 117.312C213.425 117.312 213.881 117.408 214.281 117.6C214.681 117.784 214.993 118.044 215.217 118.38C215.441 118.716 215.553 119.1 215.553 119.532C215.553 119.964 215.441 120.34 215.217 120.66C214.993 120.972 214.685 121.216 214.293 121.392ZM211.065 119.508C211.065 119.988 211.233 120.372 211.569 120.66C211.913 120.948 212.361 121.092 212.913 121.092C213.465 121.092 213.909 120.948 214.245 120.66C214.589 120.372 214.761 119.988 214.761 119.508C214.761 119.06 214.593 118.696 214.257 118.416C213.929 118.128 213.481 117.984 212.913 117.984C212.345 117.984 211.893 118.128 211.557 118.416C211.229 118.696 211.065 119.06 211.065 119.508ZM212.913 125.484C213.609 125.484 214.157 125.316 214.557 124.98C214.965 124.636 215.169 124.2 215.169 123.672C215.169 123.104 214.965 122.644 214.557 122.292C214.149 121.94 213.601 121.764 212.913 121.764C212.225 121.764 211.677 121.94 211.269 122.292C210.861 122.644 210.657 123.104 210.657 123.672C210.657 124.2 210.857 124.636 211.257 124.98C211.665 125.316 212.217 125.484 212.913 125.484ZM222.55 126.156C221.982 126.156 221.486 126.028 221.062 125.772C220.646 125.508 220.322 125.144 220.09 124.68C219.866 124.208 219.754 123.664 219.754 123.048C219.754 122.44 219.866 121.9 220.09 121.428C220.322 120.956 220.646 120.592 221.062 120.336C221.486 120.072 221.974 119.94 222.526 119.94C222.974 119.94 223.366 120.016 223.702 120.168C224.038 120.312 224.362 120.552 224.674 120.888C224.722 120.936 224.746 120.988 224.746 121.044C224.746 121.116 224.714 121.176 224.65 121.224L224.482 121.38C224.434 121.428 224.378 121.452 224.314 121.452C224.258 121.452 224.198 121.42 224.134 121.356C223.854 121.076 223.586 120.88 223.33 120.768C223.082 120.656 222.806 120.6 222.502 120.6C222.086 120.6 221.73 120.716 221.434 120.948C221.146 121.18 220.93 121.484 220.786 121.86C220.642 122.228 220.57 122.624 220.57 123.048C220.57 123.472 220.642 123.872 220.786 124.248C220.93 124.616 221.15 124.916 221.446 125.148C221.742 125.372 222.106 125.484 222.538 125.484C222.858 125.484 223.138 125.428 223.378 125.316C223.626 125.196 223.902 124.972 224.206 124.644C224.27 124.58 224.33 124.548 224.386 124.548C224.45 124.548 224.506 124.572 224.554 124.62L224.722 124.752C224.778 124.8 224.806 124.856 224.806 124.92C224.806 124.984 224.77 125.06 224.698 125.148C224.362 125.516 224.026 125.776 223.69 125.928C223.354 126.08 222.974 126.156 222.55 126.156ZM228.731 119.94C229.419 119.94 229.943 120.136 230.303 120.528C230.663 120.912 230.843 121.388 230.843 121.956V125.76C230.843 125.92 230.763 126 230.603 126H230.291C230.131 126 230.051 125.92 230.051 125.76V122.22C230.051 121.692 229.923 121.292 229.667 121.02C229.411 120.748 229.043 120.612 228.563 120.612C228.259 120.612 227.979 120.688 227.723 120.84C227.467 120.984 227.263 121.184 227.111 121.44C226.959 121.696 226.883 121.976 226.883 122.28V125.76C226.883 125.92 226.803 126 226.643 126H226.331C226.171 126 226.091 125.92 226.091 125.76V117.72C226.091 117.56 226.171 117.48 226.331 117.48H226.643C226.803 117.48 226.883 117.56 226.883 117.72V120.852C227.075 120.548 227.331 120.32 227.651 120.168C227.979 120.016 228.339 119.94 228.731 119.94ZM234.875 119.94C235.603 119.94 236.171 120.116 236.579 120.468C236.987 120.812 237.191 121.268 237.191 121.836V125.76C237.191 125.92 237.111 126 236.951 126H236.711C236.551 126 236.471 125.92 236.471 125.76V125.22C236.271 125.54 235.987 125.78 235.619 125.94C235.259 126.1 234.855 126.18 234.407 126.18C233.783 126.18 233.275 126.048 232.883 125.784C232.491 125.52 232.295 125.112 232.295 124.56C232.295 124.12 232.419 123.768 232.667 123.504C232.915 123.232 233.239 123.028 233.639 122.892C234.039 122.748 234.539 122.62 235.139 122.508L236.435 122.28V121.896C236.435 121.488 236.295 121.172 236.015 120.948C235.735 120.716 235.367 120.6 234.911 120.6C234.567 120.6 234.255 120.664 233.975 120.792C233.695 120.92 233.395 121.14 233.075 121.452C233.019 121.508 232.959 121.536 232.895 121.536C232.839 121.536 232.787 121.512 232.739 121.464L232.583 121.32C232.527 121.264 232.499 121.204 232.499 121.14C232.499 121.068 232.527 121.004 232.583 120.948C232.919 120.596 233.271 120.34 233.639 120.18C234.015 120.02 234.427 119.94 234.875 119.94ZM234.443 125.52C235.019 125.52 235.495 125.368 235.871 125.064C236.247 124.76 236.435 124.372 236.435 123.9V122.892L235.319 123.108C234.799 123.212 234.387 123.312 234.083 123.408C233.779 123.504 233.535 123.644 233.351 123.828C233.167 124.012 233.075 124.252 233.075 124.548C233.075 124.852 233.195 125.092 233.435 125.268C233.683 125.436 234.019 125.52 234.443 125.52ZM241.155 120.036C241.355 120.036 241.591 120.068 241.863 120.132C242.007 120.18 242.063 120.28 242.031 120.432L241.983 120.624C241.943 120.776 241.843 120.832 241.683 120.792C241.491 120.744 241.315 120.72 241.155 120.72C240.747 120.72 240.407 120.896 240.135 121.248C239.871 121.6 239.739 122.088 239.739 122.712V125.76C239.739 125.92 239.659 126 239.499 126H239.187C239.027 126 238.947 125.92 238.947 125.76V120.324C238.947 120.164 239.027 120.084 239.187 120.084H239.451C239.611 120.084 239.691 120.164 239.691 120.324V120.984C239.827 120.688 240.019 120.456 240.267 120.288C240.523 120.12 240.819 120.036 241.155 120.036ZM245.234 119.94C245.962 119.94 246.53 120.116 246.938 120.468C247.346 120.812 247.55 121.268 247.55 121.836V125.76C247.55 125.92 247.47 126 247.31 126H247.07C246.91 126 246.83 125.92 246.83 125.76V125.22C246.63 125.54 246.346 125.78 245.978 125.94C245.618 126.1 245.214 126.18 244.766 126.18C244.142 126.18 243.634 126.048 243.242 125.784C242.85 125.52 242.654 125.112 242.654 124.56C242.654 124.12 242.778 123.768 243.026 123.504C243.274 123.232 243.598 123.028 243.998 122.892C244.398 122.748 244.898 122.62 245.498 122.508L246.794 122.28V121.896C246.794 121.488 246.654 121.172 246.374 120.948C246.094 120.716 245.726 120.6 245.27 120.6C244.926 120.6 244.614 120.664 244.334 120.792C244.054 120.92 243.754 121.14 243.434 121.452C243.378 121.508 243.318 121.536 243.254 121.536C243.198 121.536 243.146 121.512 243.098 121.464L242.942 121.32C242.886 121.264 242.858 121.204 242.858 121.14C242.858 121.068 242.886 121.004 242.942 120.948C243.278 120.596 243.63 120.34 243.998 120.18C244.374 120.02 244.786 119.94 245.234 119.94ZM244.802 125.52C245.378 125.52 245.854 125.368 246.23 125.064C246.606 124.76 246.794 124.372 246.794 123.9V122.892L245.678 123.108C245.158 123.212 244.746 123.312 244.442 123.408C244.138 123.504 243.894 123.644 243.71 123.828C243.526 124.012 243.434 124.252 243.434 124.548C243.434 124.852 243.554 125.092 243.794 125.268C244.042 125.436 244.378 125.52 244.802 125.52ZM251.706 126.156C251.138 126.156 250.642 126.028 250.218 125.772C249.802 125.508 249.478 125.144 249.246 124.68C249.022 124.208 248.91 123.664 248.91 123.048C248.91 122.44 249.022 121.9 249.246 121.428C249.478 120.956 249.802 120.592 250.218 120.336C250.642 120.072 251.13 119.94 251.682 119.94C252.13 119.94 252.522 120.016 252.858 120.168C253.194 120.312 253.518 120.552 253.83 120.888C253.878 120.936 253.902 120.988 253.902 121.044C253.902 121.116 253.87 121.176 253.806 121.224L253.638 121.38C253.59 121.428 253.534 121.452 253.47 121.452C253.414 121.452 253.354 121.42 253.29 121.356C253.01 121.076 252.742 120.88 252.486 120.768C252.238 120.656 251.962 120.6 251.658 120.6C251.242 120.6 250.886 120.716 250.59 120.948C250.302 121.18 250.086 121.484 249.942 121.86C249.798 122.228 249.726 122.624 249.726 123.048C249.726 123.472 249.798 123.872 249.942 124.248C250.086 124.616 250.306 124.916 250.602 125.148C250.898 125.372 251.262 125.484 251.694 125.484C252.014 125.484 252.294 125.428 252.534 125.316C252.782 125.196 253.058 124.972 253.362 124.644C253.426 124.58 253.486 124.548 253.542 124.548C253.606 124.548 253.662 124.572 253.71 124.62L253.878 124.752C253.934 124.8 253.962 124.856 253.962 124.92C253.962 124.984 253.926 125.06 253.854 125.148C253.518 125.516 253.182 125.776 252.846 125.928C252.51 126.08 252.13 126.156 251.706 126.156ZM257.947 125.34C257.971 125.332 258.003 125.328 258.043 125.328C258.091 125.328 258.135 125.344 258.175 125.376C258.215 125.408 258.239 125.452 258.247 125.508L258.283 125.676C258.291 125.692 258.295 125.72 258.295 125.76C258.295 125.872 258.235 125.94 258.115 125.964C257.827 126.052 257.519 126.096 257.191 126.096C256.671 126.096 256.299 125.98 256.075 125.748C255.859 125.508 255.751 125.164 255.751 124.716V120.684H254.863C254.703 120.684 254.623 120.604 254.623 120.444V120.324C254.623 120.164 254.703 120.084 254.863 120.084H255.751V118.26C255.751 118.1 255.831 118.02 255.991 118.02H256.303C256.463 118.02 256.543 118.1 256.543 118.26V120.084H257.983C258.143 120.084 258.223 120.164 258.223 120.324V120.444C258.223 120.604 258.143 120.684 257.983 120.684H256.543V124.62C256.543 124.916 256.599 125.124 256.711 125.244C256.823 125.364 257.015 125.424 257.287 125.424C257.479 125.424 257.699 125.396 257.947 125.34ZM263.516 124.596C263.572 124.54 263.632 124.512 263.696 124.512C263.752 124.512 263.804 124.536 263.852 124.584L264.008 124.728C264.064 124.784 264.092 124.844 264.092 124.908C264.092 124.956 264.068 125.012 264.02 125.076C263.628 125.468 263.248 125.748 262.88 125.916C262.512 126.076 262.1 126.156 261.644 126.156C261.068 126.156 260.568 126.028 260.144 125.772C259.72 125.516 259.392 125.16 259.16 124.704C258.928 124.24 258.812 123.704 258.812 123.096C258.812 122.48 258.924 121.936 259.148 121.464C259.38 120.984 259.704 120.612 260.12 120.348C260.536 120.076 261.016 119.94 261.56 119.94C262.368 119.94 263.004 120.192 263.468 120.696C263.932 121.2 264.164 121.88 264.164 122.736V122.88C264.156 122.952 264.128 123.008 264.08 123.048C264.04 123.088 263.984 123.108 263.912 123.108H259.616C259.64 123.78 259.816 124.348 260.144 124.812C260.48 125.268 260.98 125.496 261.644 125.496C262.004 125.496 262.32 125.432 262.592 125.304C262.872 125.168 263.18 124.932 263.516 124.596ZM261.56 120.6C261.032 120.6 260.596 120.764 260.252 121.092C259.916 121.412 259.712 121.884 259.64 122.508H263.372C263.356 121.924 263.188 121.46 262.868 121.116C262.548 120.772 262.112 120.6 261.56 120.6ZM267.791 120.036C267.991 120.036 268.227 120.068 268.499 120.132C268.643 120.18 268.699 120.28 268.667 120.432L268.619 120.624C268.579 120.776 268.479 120.832 268.319 120.792C268.127 120.744 267.951 120.72 267.791 120.72C267.383 120.72 267.043 120.896 266.771 121.248C266.507 121.6 266.375 122.088 266.375 122.712V125.76C266.375 125.92 266.295 126 266.135 126H265.823C265.663 126 265.583 125.92 265.583 125.76V120.324C265.583 120.164 265.663 120.084 265.823 120.084H266.087C266.247 120.084 266.327 120.164 266.327 120.324V120.984C266.463 120.688 266.655 120.456 266.903 120.288C267.159 120.12 267.455 120.036 267.791 120.036ZM271.632 126.156C271.144 126.156 270.712 126.088 270.336 125.952C269.968 125.808 269.58 125.568 269.172 125.232C269.1 125.184 269.064 125.128 269.064 125.064C269.064 125.008 269.092 124.952 269.148 124.896L269.304 124.728C269.352 124.664 269.412 124.632 269.484 124.632C269.54 124.632 269.592 124.656 269.64 124.704C270.024 125 270.364 125.208 270.66 125.328C270.956 125.44 271.28 125.496 271.632 125.496C272.072 125.496 272.432 125.4 272.712 125.208C272.992 125.008 273.132 124.74 273.132 124.404C273.132 124.068 272.988 123.82 272.7 123.66C272.412 123.5 271.968 123.356 271.368 123.228C270.84 123.116 270.424 123 270.12 122.88C269.824 122.752 269.604 122.592 269.46 122.4C269.316 122.208 269.244 121.956 269.244 121.644C269.244 121.132 269.452 120.72 269.868 120.408C270.284 120.096 270.808 119.94 271.44 119.94C271.872 119.94 272.256 119.996 272.592 120.108C272.936 120.212 273.28 120.388 273.624 120.636C273.696 120.692 273.732 120.752 273.732 120.816C273.732 120.856 273.712 120.908 273.672 120.972L273.528 121.152C273.488 121.216 273.432 121.248 273.36 121.248C273.296 121.248 273.24 121.228 273.192 121.188C272.864 120.956 272.572 120.8 272.316 120.72C272.068 120.64 271.784 120.6 271.464 120.6C271.024 120.6 270.672 120.696 270.408 120.888C270.144 121.08 270.012 121.324 270.012 121.62C270.012 121.804 270.072 121.952 270.192 122.064C270.312 122.176 270.484 122.272 270.708 122.352C270.932 122.424 271.26 122.508 271.692 122.604C272.492 122.78 273.06 122.996 273.396 123.252C273.74 123.508 273.912 123.88 273.912 124.368C273.912 124.904 273.7 125.336 273.276 125.664C272.852 125.992 272.304 126.156 271.632 126.156ZM73.168 135.94C73.896 135.94 74.464 136.116 74.872 136.468C75.28 136.812 75.484 137.268 75.484 137.836V141.76C75.484 141.92 75.404 142 75.244 142H75.004C74.844 142 74.764 141.92 74.764 141.76V141.22C74.564 141.54 74.28 141.78 73.912 141.94C73.552 142.1 73.148 142.18 72.7 142.18C72.076 142.18 71.568 142.048 71.176 141.784C70.784 141.52 70.588 141.112 70.588 140.56C70.588 140.12 70.712 139.768 70.96 139.504C71.208 139.232 71.532 139.028 71.932 138.892C72.332 138.748 72.832 138.62 73.432 138.508L74.728 138.28V137.896C74.728 137.488 74.588 137.172 74.308 136.948C74.028 136.716 73.66 136.6 73.204 136.6C72.86 136.6 72.548 136.664 72.268 136.792C71.988 136.92 71.688 137.14 71.368 137.452C71.312 137.508 71.252 137.536 71.188 137.536C71.132 137.536 71.08 137.512 71.032 137.464L70.876 137.32C70.82 137.264 70.792 137.204 70.792 137.14C70.792 137.068 70.82 137.004 70.876 136.948C71.212 136.596 71.564 136.34 71.932 136.18C72.308 136.02 72.72 135.94 73.168 135.94ZM72.736 141.52C73.312 141.52 73.788 141.368 74.164 141.064C74.54 140.76 74.728 140.372 74.728 139.9V138.892L73.612 139.108C73.092 139.212 72.68 139.312 72.376 139.408C72.072 139.504 71.828 139.644 71.644 139.828C71.46 140.012 71.368 140.252 71.368 140.548C71.368 140.852 71.488 141.092 71.728 141.268C71.976 141.436 72.312 141.52 72.736 141.52ZM79.8796 135.94C80.5756 135.94 81.0996 136.132 81.4516 136.516C81.8116 136.9 81.9916 137.38 81.9916 137.956V141.76C81.9916 141.92 81.9116 142 81.7516 142H81.4396C81.2796 142 81.1996 141.92 81.1996 141.76V138.22C81.1996 137.692 81.0716 137.292 80.8156 137.02C80.5596 136.748 80.1916 136.612 79.7116 136.612C79.4076 136.612 79.1276 136.688 78.8716 136.84C78.6156 136.984 78.4116 137.184 78.2596 137.44C78.1076 137.696 78.0316 137.976 78.0316 138.28V141.76C78.0316 141.92 77.9516 142 77.7916 142H77.4796C77.3196 142 77.2396 141.92 77.2396 141.76V136.324C77.2396 136.164 77.3196 136.084 77.4796 136.084H77.7436C77.9036 136.084 77.9836 136.164 77.9836 136.324V136.9C78.1836 136.58 78.4476 136.34 78.7756 136.18C79.1036 136.02 79.4716 135.94 79.8796 135.94ZM88.0155 133.72C88.0155 133.56 88.0955 133.48 88.2555 133.48H88.5675C88.7275 133.48 88.8075 133.56 88.8075 133.72V141.76C88.8075 141.92 88.7275 142 88.5675 142H88.3155C88.1555 142 88.0755 141.92 88.0755 141.76V140.98C87.8595 141.356 87.5755 141.644 87.2235 141.844C86.8715 142.044 86.4555 142.144 85.9755 142.144C85.4715 142.144 85.0235 142.016 84.6315 141.76C84.2395 141.496 83.9315 141.132 83.7075 140.668C83.4835 140.196 83.3715 139.656 83.3715 139.048C83.3715 138.44 83.4835 137.904 83.7075 137.44C83.9395 136.968 84.2555 136.604 84.6555 136.348C85.0555 136.084 85.5035 135.952 85.9995 135.952C86.9115 135.952 87.5835 136.292 88.0155 136.972V133.72ZM86.0355 141.472C86.6355 141.472 87.1195 141.26 87.4875 140.836C87.8635 140.404 88.0515 139.808 88.0515 139.048C88.0515 138.296 87.8635 137.704 87.4875 137.272C87.1195 136.84 86.6355 136.624 86.0355 136.624C85.4835 136.624 85.0355 136.848 84.6915 137.296C84.3555 137.744 84.1875 138.328 84.1875 139.048C84.1875 139.776 84.3555 140.364 84.6915 140.812C85.0275 141.252 85.4755 141.472 86.0355 141.472ZM95.7528 142.156C95.1848 142.156 94.6888 142.028 94.2648 141.772C93.8488 141.508 93.5248 141.144 93.2928 140.68C93.0688 140.208 92.9568 139.664 92.9568 139.048C92.9568 138.44 93.0688 137.9 93.2928 137.428C93.5248 136.956 93.8488 136.592 94.2648 136.336C94.6888 136.072 95.1768 135.94 95.7288 135.94C96.1768 135.94 96.5688 136.016 96.9048 136.168C97.2408 136.312 97.5648 136.552 97.8768 136.888C97.9248 136.936 97.9488 136.988 97.9488 137.044C97.9488 137.116 97.9168 137.176 97.8528 137.224L97.6848 137.38C97.6368 137.428 97.5808 137.452 97.5168 137.452C97.4608 137.452 97.4008 137.42 97.3368 137.356C97.0568 137.076 96.7888 136.88 96.5328 136.768C96.2848 136.656 96.0088 136.6 95.7048 136.6C95.2888 136.6 94.9328 136.716 94.6368 136.948C94.3488 137.18 94.1328 137.484 93.9888 137.86C93.8448 138.228 93.7728 138.624 93.7728 139.048C93.7728 139.472 93.8448 139.872 93.9888 140.248C94.1328 140.616 94.3528 140.916 94.6488 141.148C94.9448 141.372 95.3088 141.484 95.7408 141.484C96.0608 141.484 96.3408 141.428 96.5808 141.316C96.8288 141.196 97.1048 140.972 97.4088 140.644C97.4728 140.58 97.5328 140.548 97.5888 140.548C97.6528 140.548 97.7088 140.572 97.7568 140.62L97.9248 140.752C97.9808 140.8 98.0088 140.856 98.0088 140.92C98.0088 140.984 97.9728 141.06 97.9008 141.148C97.5648 141.516 97.2288 141.776 96.8928 141.928C96.5568 142.08 96.1768 142.156 95.7528 142.156ZM101.625 142.156C101.073 142.156 100.581 142.024 100.149 141.76C99.7171 141.496 99.3811 141.132 99.1411 140.668C98.9011 140.196 98.7811 139.656 98.7811 139.048C98.7811 138.44 98.9011 137.904 99.1411 137.44C99.3811 136.968 99.7171 136.6 100.149 136.336C100.581 136.072 101.073 135.94 101.625 135.94C102.177 135.94 102.669 136.072 103.101 136.336C103.533 136.6 103.869 136.968 104.109 137.44C104.349 137.904 104.469 138.44 104.469 139.048C104.469 139.656 104.349 140.196 104.109 140.668C103.869 141.132 103.533 141.496 103.101 141.76C102.669 142.024 102.177 142.156 101.625 142.156ZM101.625 141.496C102.241 141.496 102.733 141.272 103.101 140.824C103.469 140.368 103.653 139.776 103.653 139.048C103.653 138.32 103.469 137.732 103.101 137.284C102.733 136.828 102.241 136.6 101.625 136.6C101.009 136.6 100.517 136.828 100.149 137.284C99.7811 137.732 99.5971 138.32 99.5971 139.048C99.5971 139.776 99.7811 140.368 100.149 140.824C100.517 141.272 101.009 141.496 101.625 141.496ZM108.485 135.94C109.181 135.94 109.705 136.132 110.057 136.516C110.417 136.9 110.597 137.38 110.597 137.956V141.76C110.597 141.92 110.517 142 110.357 142H110.045C109.885 142 109.805 141.92 109.805 141.76V138.22C109.805 137.692 109.677 137.292 109.421 137.02C109.165 136.748 108.797 136.612 108.317 136.612C108.013 136.612 107.733 136.688 107.477 136.84C107.221 136.984 107.017 137.184 106.865 137.44C106.713 137.696 106.637 137.976 106.637 138.28V141.76C106.637 141.92 106.557 142 106.397 142H106.085C105.925 142 105.845 141.92 105.845 141.76V136.324C105.845 136.164 105.925 136.084 106.085 136.084H106.349C106.509 136.084 106.589 136.164 106.589 136.324V136.9C106.789 136.58 107.053 136.34 107.381 136.18C107.709 136.02 108.077 135.94 108.485 135.94ZM114.849 141.34C114.873 141.332 114.905 141.328 114.945 141.328C114.993 141.328 115.037 141.344 115.077 141.376C115.117 141.408 115.141 141.452 115.149 141.508L115.185 141.676C115.193 141.692 115.197 141.72 115.197 141.76C115.197 141.872 115.137 141.94 115.017 141.964C114.729 142.052 114.421 142.096 114.093 142.096C113.573 142.096 113.201 141.98 112.977 141.748C112.761 141.508 112.653 141.164 112.653 140.716V136.684H111.765C111.605 136.684 111.525 136.604 111.525 136.444V136.324C111.525 136.164 111.605 136.084 111.765 136.084H112.653V134.26C112.653 134.1 112.733 134.02 112.893 134.02H113.205C113.365 134.02 113.445 134.1 113.445 134.26V136.084H114.885C115.045 136.084 115.125 136.164 115.125 136.324V136.444C115.125 136.604 115.045 136.684 114.885 136.684H113.445V140.62C113.445 140.916 113.501 141.124 113.613 141.244C113.725 141.364 113.917 141.424 114.189 141.424C114.381 141.424 114.601 141.396 114.849 141.34ZM118.625 135.94C119.353 135.94 119.921 136.116 120.329 136.468C120.737 136.812 120.941 137.268 120.941 137.836V141.76C120.941 141.92 120.861 142 120.701 142H120.461C120.301 142 120.221 141.92 120.221 141.76V141.22C120.021 141.54 119.737 141.78 119.369 141.94C119.009 142.1 118.605 142.18 118.157 142.18C117.533 142.18 117.025 142.048 116.633 141.784C116.241 141.52 116.045 141.112 116.045 140.56C116.045 140.12 116.169 139.768 116.417 139.504C116.665 139.232 116.989 139.028 117.389 138.892C117.789 138.748 118.289 138.62 118.889 138.508L120.185 138.28V137.896C120.185 137.488 120.045 137.172 119.765 136.948C119.485 136.716 119.117 136.6 118.661 136.6C118.317 136.6 118.005 136.664 117.725 136.792C117.445 136.92 117.145 137.14 116.825 137.452C116.769 137.508 116.709 137.536 116.645 137.536C116.589 137.536 116.537 137.512 116.489 137.464L116.333 137.32C116.277 137.264 116.249 137.204 116.249 137.14C116.249 137.068 116.277 137.004 116.333 136.948C116.669 136.596 117.021 136.34 117.389 136.18C117.765 136.02 118.177 135.94 118.625 135.94ZM118.193 141.52C118.769 141.52 119.245 141.368 119.621 141.064C119.997 140.76 120.185 140.372 120.185 139.9V138.892L119.069 139.108C118.549 139.212 118.137 139.312 117.833 139.408C117.529 139.504 117.285 139.644 117.101 139.828C116.917 140.012 116.825 140.252 116.825 140.548C116.825 140.852 116.945 141.092 117.185 141.268C117.433 141.436 117.769 141.52 118.193 141.52ZM123.093 134.584C122.933 134.584 122.797 134.528 122.685 134.416C122.581 134.304 122.529 134.168 122.529 134.008C122.529 133.848 122.581 133.716 122.685 133.612C122.797 133.508 122.933 133.456 123.093 133.456C123.261 133.456 123.397 133.508 123.501 133.612C123.613 133.716 123.669 133.848 123.669 134.008C123.669 134.168 123.613 134.304 123.501 134.416C123.397 134.528 123.261 134.584 123.093 134.584ZM122.937 142C122.777 142 122.697 141.92 122.697 141.76V136.324C122.697 136.164 122.777 136.084 122.937 136.084H123.249C123.409 136.084 123.489 136.164 123.489 136.324V141.76C123.489 141.92 123.409 142 123.249 142H122.937ZM127.891 135.94C128.587 135.94 129.111 136.132 129.463 136.516C129.823 136.9 130.003 137.38 130.003 137.956V141.76C130.003 141.92 129.923 142 129.763 142H129.451C129.291 142 129.211 141.92 129.211 141.76V138.22C129.211 137.692 129.083 137.292 128.827 137.02C128.571 136.748 128.203 136.612 127.723 136.612C127.419 136.612 127.139 136.688 126.883 136.84C126.627 136.984 126.423 137.184 126.271 137.44C126.119 137.696 126.043 137.976 126.043 138.28V141.76C126.043 141.92 125.963 142 125.803 142H125.491C125.331 142 125.251 141.92 125.251 141.76V136.324C125.251 136.164 125.331 136.084 125.491 136.084H125.755C125.915 136.084 125.995 136.164 125.995 136.324V136.9C126.195 136.58 126.459 136.34 126.787 136.18C127.115 136.02 127.483 135.94 127.891 135.94ZM136.801 135.94C137.529 135.94 138.097 136.116 138.505 136.468C138.913 136.812 139.117 137.268 139.117 137.836V141.76C139.117 141.92 139.037 142 138.877 142H138.637C138.477 142 138.397 141.92 138.397 141.76V141.22C138.197 141.54 137.913 141.78 137.545 141.94C137.185 142.1 136.781 142.18 136.333 142.18C135.709 142.18 135.201 142.048 134.809 141.784C134.417 141.52 134.221 141.112 134.221 140.56C134.221 140.12 134.345 139.768 134.593 139.504C134.841 139.232 135.165 139.028 135.565 138.892C135.965 138.748 136.465 138.62 137.065 138.508L138.361 138.28V137.896C138.361 137.488 138.221 137.172 137.941 136.948C137.661 136.716 137.293 136.6 136.837 136.6C136.493 136.6 136.181 136.664 135.901 136.792C135.621 136.92 135.321 137.14 135.001 137.452C134.945 137.508 134.885 137.536 134.821 137.536C134.765 137.536 134.713 137.512 134.665 137.464L134.509 137.32C134.453 137.264 134.425 137.204 134.425 137.14C134.425 137.068 134.453 137.004 134.509 136.948C134.845 136.596 135.197 136.34 135.565 136.18C135.941 136.02 136.353 135.94 136.801 135.94ZM136.369 141.52C136.945 141.52 137.421 141.368 137.797 141.064C138.173 140.76 138.361 140.372 138.361 139.9V138.892L137.245 139.108C136.725 139.212 136.313 139.312 136.009 139.408C135.705 139.504 135.461 139.644 135.277 139.828C135.093 140.012 135.001 140.252 135.001 140.548C135.001 140.852 135.121 141.092 135.361 141.268C135.609 141.436 135.945 141.52 136.369 141.52ZM143.372 141.34C143.396 141.332 143.428 141.328 143.468 141.328C143.516 141.328 143.56 141.344 143.6 141.376C143.64 141.408 143.664 141.452 143.672 141.508L143.708 141.676C143.716 141.692 143.72 141.72 143.72 141.76C143.72 141.872 143.66 141.94 143.54 141.964C143.252 142.052 142.944 142.096 142.616 142.096C142.096 142.096 141.724 141.98 141.5 141.748C141.284 141.508 141.176 141.164 141.176 140.716V136.684H140.288C140.128 136.684 140.048 136.604 140.048 136.444V136.324C140.048 136.164 140.128 136.084 140.288 136.084H141.176V134.26C141.176 134.1 141.256 134.02 141.416 134.02H141.728C141.888 134.02 141.968 134.1 141.968 134.26V136.084H143.408C143.568 136.084 143.648 136.164 143.648 136.324V136.444C143.648 136.604 143.568 136.684 143.408 136.684H141.968V140.62C141.968 140.916 142.024 141.124 142.136 141.244C142.248 141.364 142.44 141.424 142.712 141.424C142.904 141.424 143.124 141.396 143.372 141.34ZM147.874 142C147.714 142 147.634 141.92 147.634 141.76V133.72C147.634 133.56 147.714 133.48 147.874 133.48H148.186C148.346 133.48 148.426 133.56 148.426 133.72V141.76C148.426 141.92 148.346 142 148.186 142H147.874ZM154.52 140.596C154.576 140.54 154.636 140.512 154.7 140.512C154.756 140.512 154.808 140.536 154.856 140.584L155.012 140.728C155.068 140.784 155.096 140.844 155.096 140.908C155.096 140.956 155.072 141.012 155.024 141.076C154.632 141.468 154.252 141.748 153.884 141.916C153.516 142.076 153.104 142.156 152.648 142.156C152.072 142.156 151.572 142.028 151.148 141.772C150.724 141.516 150.396 141.16 150.164 140.704C149.932 140.24 149.816 139.704 149.816 139.096C149.816 138.48 149.928 137.936 150.152 137.464C150.384 136.984 150.708 136.612 151.124 136.348C151.54 136.076 152.02 135.94 152.564 135.94C153.372 135.94 154.008 136.192 154.472 136.696C154.936 137.2 155.168 137.88 155.168 138.736V138.88C155.16 138.952 155.132 139.008 155.084 139.048C155.044 139.088 154.988 139.108 154.916 139.108H150.62C150.644 139.78 150.82 140.348 151.148 140.812C151.484 141.268 151.984 141.496 152.648 141.496C153.008 141.496 153.324 141.432 153.596 141.304C153.876 141.168 154.184 140.932 154.52 140.596ZM152.564 136.6C152.036 136.6 151.6 136.764 151.256 137.092C150.92 137.412 150.716 137.884 150.644 138.508H154.376C154.36 137.924 154.192 137.46 153.872 137.116C153.552 136.772 153.116 136.6 152.564 136.6ZM158.762 135.94C159.49 135.94 160.058 136.116 160.466 136.468C160.874 136.812 161.078 137.268 161.078 137.836V141.76C161.078 141.92 160.998 142 160.838 142H160.598C160.438 142 160.358 141.92 160.358 141.76V141.22C160.158 141.54 159.874 141.78 159.506 141.94C159.146 142.1 158.742 142.18 158.294 142.18C157.67 142.18 157.162 142.048 156.77 141.784C156.378 141.52 156.182 141.112 156.182 140.56C156.182 140.12 156.306 139.768 156.554 139.504C156.802 139.232 157.126 139.028 157.526 138.892C157.926 138.748 158.426 138.62 159.026 138.508L160.322 138.28V137.896C160.322 137.488 160.182 137.172 159.902 136.948C159.622 136.716 159.254 136.6 158.798 136.6C158.454 136.6 158.142 136.664 157.862 136.792C157.582 136.92 157.282 137.14 156.962 137.452C156.906 137.508 156.846 137.536 156.782 137.536C156.726 137.536 156.674 137.512 156.626 137.464L156.47 137.32C156.414 137.264 156.386 137.204 156.386 137.14C156.386 137.068 156.414 137.004 156.47 136.948C156.806 136.596 157.158 136.34 157.526 136.18C157.902 136.02 158.314 135.94 158.762 135.94ZM158.33 141.52C158.906 141.52 159.382 141.368 159.758 141.064C160.134 140.76 160.322 140.372 160.322 139.9V138.892L159.206 139.108C158.686 139.212 158.274 139.312 157.97 139.408C157.666 139.504 157.422 139.644 157.238 139.828C157.054 140.012 156.962 140.252 156.962 140.548C156.962 140.852 157.082 141.092 157.322 141.268C157.57 141.436 157.906 141.52 158.33 141.52ZM164.897 142.156C164.409 142.156 163.977 142.088 163.601 141.952C163.233 141.808 162.845 141.568 162.437 141.232C162.365 141.184 162.329 141.128 162.329 141.064C162.329 141.008 162.357 140.952 162.413 140.896L162.569 140.728C162.617 140.664 162.677 140.632 162.749 140.632C162.805 140.632 162.857 140.656 162.905 140.704C163.289 141 163.629 141.208 163.925 141.328C164.221 141.44 164.545 141.496 164.897 141.496C165.337 141.496 165.697 141.4 165.977 141.208C166.257 141.008 166.397 140.74 166.397 140.404C166.397 140.068 166.253 139.82 165.965 139.66C165.677 139.5 165.233 139.356 164.633 139.228C164.105 139.116 163.689 139 163.385 138.88C163.089 138.752 162.869 138.592 162.725 138.4C162.581 138.208 162.509 137.956 162.509 137.644C162.509 137.132 162.717 136.72 163.133 136.408C163.549 136.096 164.073 135.94 164.705 135.94C165.137 135.94 165.521 135.996 165.857 136.108C166.201 136.212 166.545 136.388 166.889 136.636C166.961 136.692 166.997 136.752 166.997 136.816C166.997 136.856 166.977 136.908 166.937 136.972L166.793 137.152C166.753 137.216 166.697 137.248 166.625 137.248C166.561 137.248 166.505 137.228 166.457 137.188C166.129 136.956 165.837 136.8 165.581 136.72C165.333 136.64 165.049 136.6 164.729 136.6C164.289 136.6 163.937 136.696 163.673 136.888C163.409 137.08 163.277 137.324 163.277 137.62C163.277 137.804 163.337 137.952 163.457 138.064C163.577 138.176 163.749 138.272 163.973 138.352C164.197 138.424 164.525 138.508 164.957 138.604C165.757 138.78 166.325 138.996 166.661 139.252C167.005 139.508 167.177 139.88 167.177 140.368C167.177 140.904 166.965 141.336 166.541 141.664C166.117 141.992 165.569 142.156 164.897 142.156ZM171.157 141.34C171.181 141.332 171.213 141.328 171.253 141.328C171.301 141.328 171.345 141.344 171.385 141.376C171.425 141.408 171.449 141.452 171.457 141.508L171.493 141.676C171.501 141.692 171.505 141.72 171.505 141.76C171.505 141.872 171.445 141.94 171.325 141.964C171.037 142.052 170.729 142.096 170.401 142.096C169.881 142.096 169.509 141.98 169.285 141.748C169.069 141.508 168.961 141.164 168.961 140.716V136.684H168.073C167.913 136.684 167.833 136.604 167.833 136.444V136.324C167.833 136.164 167.913 136.084 168.073 136.084H168.961V134.26C168.961 134.1 169.041 134.02 169.201 134.02H169.513C169.673 134.02 169.753 134.1 169.753 134.26V136.084H171.193C171.353 136.084 171.433 136.164 171.433 136.324V136.444C171.433 136.604 171.353 136.684 171.193 136.684H169.753V140.62C169.753 140.916 169.809 141.124 169.921 141.244C170.033 141.364 170.225 141.424 170.497 141.424C170.689 141.424 170.909 141.396 171.157 141.34ZM177.856 142.156C177.304 142.156 176.812 142.024 176.38 141.76C175.948 141.496 175.612 141.132 175.372 140.668C175.132 140.196 175.012 139.656 175.012 139.048C175.012 138.44 175.132 137.904 175.372 137.44C175.612 136.968 175.948 136.6 176.38 136.336C176.812 136.072 177.304 135.94 177.856 135.94C178.408 135.94 178.9 136.072 179.332 136.336C179.764 136.6 180.1 136.968 180.34 137.44C180.58 137.904 180.7 138.44 180.7 139.048C180.7 139.656 180.58 140.196 180.34 140.668C180.1 141.132 179.764 141.496 179.332 141.76C178.9 142.024 178.408 142.156 177.856 142.156ZM177.856 141.496C178.472 141.496 178.964 141.272 179.332 140.824C179.7 140.368 179.884 139.776 179.884 139.048C179.884 138.32 179.7 137.732 179.332 137.284C178.964 136.828 178.472 136.6 177.856 136.6C177.24 136.6 176.748 136.828 176.38 137.284C176.012 137.732 175.828 138.32 175.828 139.048C175.828 139.776 176.012 140.368 176.38 140.824C176.748 141.272 177.24 141.496 177.856 141.496ZM184.715 135.94C185.412 135.94 185.936 136.132 186.288 136.516C186.648 136.9 186.828 137.38 186.828 137.956V141.76C186.828 141.92 186.748 142 186.588 142H186.276C186.116 142 186.036 141.92 186.036 141.76V138.22C186.036 137.692 185.908 137.292 185.652 137.02C185.396 136.748 185.028 136.612 184.548 136.612C184.244 136.612 183.964 136.688 183.708 136.84C183.452 136.984 183.248 137.184 183.096 137.44C182.944 137.696 182.868 137.976 182.868 138.28V141.76C182.868 141.92 182.788 142 182.628 142H182.316C182.156 142 182.076 141.92 182.076 141.76V136.324C182.076 136.164 182.156 136.084 182.316 136.084H182.58C182.74 136.084 182.82 136.164 182.82 136.324V136.9C183.02 136.58 183.284 136.34 183.612 136.18C183.94 136.02 184.308 135.94 184.715 135.94ZM192.887 140.596C192.943 140.54 193.003 140.512 193.067 140.512C193.123 140.512 193.175 140.536 193.223 140.584L193.379 140.728C193.435 140.784 193.463 140.844 193.463 140.908C193.463 140.956 193.439 141.012 193.391 141.076C192.999 141.468 192.619 141.748 192.251 141.916C191.883 142.076 191.471 142.156 191.015 142.156C190.439 142.156 189.939 142.028 189.515 141.772C189.091 141.516 188.763 141.16 188.531 140.704C188.299 140.24 188.183 139.704 188.183 139.096C188.183 138.48 188.295 137.936 188.519 137.464C188.751 136.984 189.075 136.612 189.491 136.348C189.907 136.076 190.387 135.94 190.931 135.94C191.739 135.94 192.375 136.192 192.839 136.696C193.303 137.2 193.535 137.88 193.535 138.736V138.88C193.527 138.952 193.499 139.008 193.451 139.048C193.411 139.088 193.355 139.108 193.283 139.108H188.987C189.011 139.78 189.187 140.348 189.515 140.812C189.851 141.268 190.351 141.496 191.015 141.496C191.375 141.496 191.691 141.432 191.963 141.304C192.243 141.168 192.551 140.932 192.887 140.596ZM190.931 136.6C190.403 136.6 189.967 136.764 189.623 137.092C189.287 137.412 189.083 137.884 189.011 138.508H192.743C192.727 137.924 192.559 137.46 192.239 137.116C191.919 136.772 191.483 136.6 190.931 136.6ZM200.36 135.94C201.056 135.94 201.58 136.132 201.932 136.516C202.292 136.9 202.472 137.38 202.472 137.956V141.76C202.472 141.92 202.392 142 202.232 142H201.92C201.76 142 201.68 141.92 201.68 141.76V138.22C201.68 137.692 201.552 137.292 201.296 137.02C201.04 136.748 200.672 136.612 200.192 136.612C199.888 136.612 199.608 136.688 199.352 136.84C199.096 136.984 198.892 137.184 198.74 137.44C198.588 137.696 198.512 137.976 198.512 138.28V141.76C198.512 141.92 198.432 142 198.272 142H197.96C197.8 142 197.72 141.92 197.72 141.76V136.324C197.72 136.164 197.8 136.084 197.96 136.084H198.224C198.384 136.084 198.464 136.164 198.464 136.324V136.9C198.664 136.58 198.928 136.34 199.256 136.18C199.584 136.02 199.952 135.94 200.36 135.94ZM208.029 136.324C208.029 136.164 208.109 136.084 208.269 136.084H208.581C208.741 136.084 208.821 136.164 208.821 136.324V141.76C208.821 141.92 208.741 142 208.581 142H208.329C208.169 142 208.089 141.92 208.089 141.76V141.22C207.913 141.532 207.661 141.768 207.333 141.928C207.013 142.08 206.661 142.156 206.277 142.156C205.557 142.156 205.025 141.976 204.681 141.616C204.337 141.248 204.165 140.776 204.165 140.2V136.324C204.165 136.164 204.245 136.084 204.405 136.084H204.717C204.877 136.084 204.957 136.164 204.957 136.324V140.032C204.957 140.504 205.073 140.864 205.305 141.112C205.545 141.352 205.885 141.472 206.325 141.472C206.821 141.472 207.229 141.32 207.549 141.016C207.869 140.712 208.029 140.28 208.029 139.72V136.324ZM216.611 135.94C217.251 135.94 217.739 136.124 218.075 136.492C218.419 136.852 218.591 137.316 218.591 137.884V141.76C218.591 141.92 218.511 142 218.351 142H218.039C217.879 142 217.799 141.92 217.799 141.76V138.1C217.799 137.62 217.687 137.252 217.463 136.996C217.247 136.74 216.923 136.612 216.491 136.612C216.035 136.612 215.671 136.764 215.399 137.068C215.127 137.372 214.991 137.764 214.991 138.244V141.76C214.991 141.92 214.911 142 214.751 142H214.439C214.279 142 214.199 141.92 214.199 141.76V138.1C214.199 137.62 214.087 137.252 213.863 136.996C213.647 136.74 213.319 136.612 212.879 136.612C212.471 136.612 212.131 136.74 211.859 136.996C211.595 137.252 211.439 137.588 211.391 138.004V141.76C211.391 141.92 211.311 142 211.151 142H210.839C210.679 142 210.599 141.92 210.599 141.76V136.324C210.599 136.164 210.679 136.084 210.839 136.084H211.103C211.263 136.084 211.343 136.164 211.343 136.324V136.816C211.703 136.232 212.275 135.94 213.059 135.94C213.467 135.94 213.815 136.032 214.103 136.216C214.399 136.392 214.619 136.632 214.763 136.936C215.187 136.272 215.803 135.94 216.611 135.94ZM223.169 135.952C223.673 135.952 224.121 136.084 224.513 136.348C224.913 136.604 225.221 136.968 225.437 137.44C225.661 137.904 225.773 138.44 225.773 139.048C225.773 139.656 225.661 140.196 225.437 140.668C225.213 141.132 224.901 141.496 224.501 141.76C224.109 142.016 223.665 142.144 223.169 142.144C222.217 142.144 221.521 141.776 221.081 141.04V141.76C221.081 141.92 221.001 142 220.841 142H220.577C220.417 142 220.337 141.92 220.337 141.76V133.708C220.337 133.548 220.417 133.468 220.577 133.468H220.889C221.049 133.468 221.129 133.548 221.129 133.708V137.02C221.569 136.308 222.249 135.952 223.169 135.952ZM223.109 141.472C223.661 141.472 224.105 141.248 224.441 140.8C224.785 140.352 224.957 139.768 224.957 139.048C224.957 138.328 224.785 137.744 224.441 137.296C224.105 136.848 223.661 136.624 223.109 136.624C222.517 136.624 222.033 136.84 221.657 137.272C221.281 137.704 221.093 138.296 221.093 139.048C221.093 139.808 221.277 140.404 221.645 140.836C222.021 141.26 222.509 141.472 223.109 141.472ZM231.559 140.596C231.615 140.54 231.675 140.512 231.739 140.512C231.795 140.512 231.847 140.536 231.895 140.584L232.051 140.728C232.107 140.784 232.135 140.844 232.135 140.908C232.135 140.956 232.111 141.012 232.063 141.076C231.671 141.468 231.291 141.748 230.923 141.916C230.555 142.076 230.143 142.156 229.687 142.156C229.111 142.156 228.611 142.028 228.187 141.772C227.763 141.516 227.435 141.16 227.203 140.704C226.971 140.24 226.855 139.704 226.855 139.096C226.855 138.48 226.967 137.936 227.191 137.464C227.423 136.984 227.747 136.612 228.163 136.348C228.579 136.076 229.059 135.94 229.603 135.94C230.411 135.94 231.047 136.192 231.511 136.696C231.975 137.2 232.207 137.88 232.207 138.736V138.88C232.199 138.952 232.171 139.008 232.123 139.048C232.083 139.088 232.027 139.108 231.955 139.108H227.659C227.683 139.78 227.859 140.348 228.187 140.812C228.523 141.268 229.023 141.496 229.687 141.496C230.047 141.496 230.363 141.432 230.635 141.304C230.915 141.168 231.223 140.932 231.559 140.596ZM229.603 136.6C229.075 136.6 228.639 136.764 228.295 137.092C227.959 137.412 227.755 137.884 227.683 138.508H231.415C231.399 137.924 231.231 137.46 230.911 137.116C230.591 136.772 230.155 136.6 229.603 136.6ZM235.834 136.036C236.034 136.036 236.27 136.068 236.542 136.132C236.686 136.18 236.742 136.28 236.71 136.432L236.662 136.624C236.622 136.776 236.522 136.832 236.362 136.792C236.17 136.744 235.994 136.72 235.834 136.72C235.426 136.72 235.086 136.896 234.814 137.248C234.55 137.6 234.418 138.088 234.418 138.712V141.76C234.418 141.92 234.338 142 234.178 142H233.866C233.706 142 233.626 141.92 233.626 141.76V136.324C233.626 136.164 233.706 136.084 233.866 136.084H234.13C234.29 136.084 234.37 136.164 234.37 136.324V136.984C234.506 136.688 234.698 136.456 234.946 136.288C235.202 136.12 235.498 136.036 235.834 136.036ZM237.267 142.084C237.099 142.084 236.955 142.024 236.835 141.904C236.715 141.784 236.655 141.64 236.655 141.472C236.655 141.304 236.715 141.16 236.835 141.04C236.955 140.92 237.099 140.86 237.267 140.86C237.435 140.86 237.579 140.92 237.699 141.04C237.819 141.16 237.879 141.304 237.879 141.472C237.879 141.64 237.819 141.784 237.699 141.904C237.579 142.024 237.435 142.084 237.267 142.084Z" fill="#464646"/>
<defs>
<clipPath id="clip0_899_60760">
<rect width="187" height="22" fill="white" transform="translate(78 75)"/>
</clipPath>
</defs>
</svg>
