<svg width="344" height="260" viewBox="0 0 344 260" fill="none" xmlns="http://www.w3.org/2000/svg">
<path d="M71.568 54C71.4187 54 71.2973 53.958 71.204 53.874C71.12 53.7807 71.078 53.6593 71.078 53.51V44.55C71.078 44.3913 71.12 44.27 71.204 44.186C71.2973 44.102 71.4187 44.06 71.568 44.06H77.378C77.5367 44.06 77.658 44.102 77.742 44.186C77.826 44.27 77.868 44.3913 77.868 44.55V44.914C77.868 45.0633 77.826 45.1847 77.742 45.278C77.658 45.362 77.5367 45.404 77.378 45.404H72.674V48.204H77.028C77.1867 48.204 77.308 48.246 77.392 48.33C77.476 48.414 77.518 48.5353 77.518 48.694V49.058C77.518 49.2073 77.476 49.3287 77.392 49.422C77.308 49.506 77.1867 49.548 77.028 49.548H72.674V52.656H77.518C77.6767 52.656 77.798 52.698 77.882 52.782C77.966 52.866 78.008 52.9873 78.008 53.146V53.51C78.008 53.6593 77.966 53.7807 77.882 53.874C77.798 53.958 77.6767 54 77.518 54H71.568ZM86.9143 46.888C87.6516 46.888 88.221 47.098 88.6223 47.518C89.0236 47.9287 89.2243 48.484 89.2243 49.184V53.51C89.2243 53.6593 89.1823 53.7807 89.0983 53.874C89.0143 53.958 88.893 54 88.7343 54H88.2303C88.081 54 87.9596 53.958 87.8663 53.874C87.7823 53.7807 87.7403 53.6593 87.7403 53.51V49.632C87.7403 49.1747 87.6376 48.8153 87.4323 48.554C87.227 48.2927 86.9143 48.162 86.4943 48.162C86.065 48.162 85.7243 48.3067 85.4723 48.596C85.2296 48.8853 85.1083 49.2587 85.1083 49.716V53.51C85.1083 53.6593 85.0663 53.7807 84.9823 53.874C84.8983 53.958 84.777 54 84.6183 54H84.1143C83.965 54 83.8436 53.958 83.7503 53.874C83.6663 53.7807 83.6243 53.6593 83.6243 53.51V49.632C83.6243 49.1747 83.5216 48.8153 83.3163 48.554C83.1203 48.2927 82.8123 48.162 82.3923 48.162C81.9816 48.162 81.6503 48.2973 81.3983 48.568C81.1463 48.8387 81.011 49.1887 80.9923 49.618V53.51C80.9923 53.6593 80.9503 53.7807 80.8663 53.874C80.7823 53.958 80.661 54 80.5023 54H79.9983C79.849 54 79.7276 53.958 79.6343 53.874C79.5503 53.7807 79.5083 53.6593 79.5083 53.51V47.588C79.5083 47.4293 79.5503 47.308 79.6343 47.224C79.7276 47.14 79.849 47.098 79.9983 47.098H80.4043C80.563 47.098 80.6843 47.14 80.7683 47.224C80.8523 47.308 80.8943 47.4293 80.8943 47.588V47.896C81.3236 47.224 81.9863 46.888 82.8823 46.888C83.3303 46.888 83.7223 46.9813 84.0583 47.168C84.3943 47.3547 84.651 47.616 84.8283 47.952C85.3043 47.2427 85.9996 46.888 86.9143 46.888ZM93.8363 46.888C94.7696 46.888 95.4883 47.1073 95.9923 47.546C96.4963 47.9753 96.7483 48.5493 96.7483 49.268V53.51C96.7483 53.6593 96.7063 53.7807 96.6223 53.874C96.5383 53.958 96.417 54 96.2583 54H95.8943C95.745 54 95.6236 53.958 95.5303 53.874C95.4463 53.7807 95.4043 53.6593 95.4043 53.51V53.202C95.1803 53.5287 94.8723 53.7807 94.4803 53.958C94.0883 54.1353 93.631 54.224 93.1083 54.224C92.3896 54.224 91.797 54.0653 91.3303 53.748C90.873 53.4213 90.6443 52.9313 90.6443 52.278C90.6443 51.55 90.915 51.0133 91.4563 50.668C92.007 50.3133 92.7676 50.0473 93.7383 49.87L95.3203 49.576V49.324C95.3203 48.9413 95.185 48.6473 94.9143 48.442C94.653 48.2273 94.303 48.12 93.8643 48.12C93.491 48.12 93.1643 48.1853 92.8843 48.316C92.6136 48.4373 92.3196 48.6427 92.0023 48.932C91.881 49.0347 91.7643 49.086 91.6523 49.086C91.5403 49.086 91.4236 49.0347 91.3023 48.932L91.0783 48.736C90.957 48.624 90.8963 48.5027 90.8963 48.372C90.8963 48.2507 90.9523 48.134 91.0643 48.022C91.4656 47.6393 91.8903 47.3547 92.3383 47.168C92.7863 46.9813 93.2856 46.888 93.8363 46.888ZM93.3183 53.034C93.8783 53.034 94.3496 52.8847 94.7323 52.586C95.1243 52.2873 95.3203 51.858 95.3203 51.298V50.654L94.1023 50.906C93.421 51.046 92.917 51.2047 92.5903 51.382C92.2636 51.5593 92.1003 51.83 92.1003 52.194C92.1003 52.4553 92.2076 52.6607 92.4223 52.81C92.637 52.9593 92.9356 53.034 93.3183 53.034ZM99.1998 45.754C98.9292 45.754 98.7005 45.6653 98.5138 45.488C98.3272 45.3013 98.2338 45.082 98.2338 44.83C98.2338 44.5687 98.3272 44.3493 98.5138 44.172C98.7005 43.9947 98.9292 43.906 99.1998 43.906C99.4705 43.906 99.6992 43.9947 99.8858 44.172C100.073 44.3493 100.166 44.5687 100.166 44.83C100.166 45.082 100.073 45.3013 99.8858 45.488C99.6992 45.6653 99.4705 45.754 99.1998 45.754ZM98.9338 54C98.7845 54 98.6632 53.958 98.5698 53.874C98.4858 53.7807 98.4438 53.6593 98.4438 53.51V47.588C98.4438 47.4293 98.4858 47.308 98.5698 47.224C98.6632 47.14 98.7845 47.098 98.9338 47.098H99.4378C99.5965 47.098 99.7178 47.14 99.8018 47.224C99.8858 47.308 99.9278 47.4293 99.9278 47.588V53.51C99.9278 53.6593 99.8858 53.7807 99.8018 53.874C99.7178 53.958 99.5965 54 99.4378 54H98.9338ZM102.189 54C102.04 54 101.918 53.958 101.825 53.874C101.741 53.7807 101.699 53.6593 101.699 53.51V44.55C101.699 44.3913 101.741 44.27 101.825 44.186C101.918 44.102 102.04 44.06 102.189 44.06H102.693C102.852 44.06 102.973 44.102 103.057 44.186C103.141 44.27 103.183 44.3913 103.183 44.55V53.51C103.183 53.6593 103.141 53.7807 103.057 53.874C102.973 53.958 102.852 54 102.693 54H102.189Z" fill="#464646"/>
<rect x="70.5" y="62.5" width="202" height="47" rx="3.5" fill="white"/>
<g clip-path="url(#clip0_899_38198)">
<path d="M82.192 80.328C81.712 80.328 81.3707 80.456 81.168 80.712C80.9653 80.9573 80.864 81.3733 80.864 81.96V83.112H82.624C82.8373 83.112 82.944 83.2187 82.944 83.432V83.592C82.944 83.8053 82.8373 83.912 82.624 83.912H80.864V90.68C80.864 90.8933 80.7573 91 80.544 91H80.128C79.9147 91 79.808 90.8933 79.808 90.68V83.912H78.624C78.4107 83.912 78.304 83.8053 78.304 83.592V83.432C78.304 83.2187 78.4107 83.112 78.624 83.112H79.808V81.784C79.808 81.048 80 80.472 80.384 80.056C80.7787 79.64 81.3387 79.432 82.064 79.432C82.4693 79.432 82.8853 79.4907 83.312 79.608C83.5147 79.672 83.5893 79.8053 83.536 80.008L83.472 80.232C83.4187 80.3813 83.312 80.456 83.152 80.456C83.12 80.456 83.0507 80.4453 82.944 80.424C82.7093 80.36 82.4587 80.328 82.192 80.328ZM87.224 82.92C88.1947 82.92 88.952 83.1547 89.496 83.624C90.04 84.0827 90.312 84.6907 90.312 85.448V90.68C90.312 90.8933 90.2053 91 89.992 91H89.672C89.4587 91 89.352 90.8933 89.352 90.68V89.96C89.0853 90.3867 88.7067 90.7067 88.216 90.92C87.736 91.1333 87.1973 91.24 86.6 91.24C85.768 91.24 85.0907 91.064 84.568 90.712C84.0453 90.36 83.784 89.816 83.784 89.08C83.784 88.4933 83.9493 88.024 84.28 87.672C84.6107 87.3093 85.0427 87.0373 85.576 86.856C86.1093 86.664 86.776 86.4933 87.576 86.344L89.304 86.04V85.528C89.304 84.984 89.1173 84.5627 88.744 84.264C88.3707 83.9547 87.88 83.8 87.272 83.8C86.8133 83.8 86.3973 83.8853 86.024 84.056C85.6507 84.2267 85.2507 84.52 84.824 84.936C84.7493 85.0107 84.6693 85.048 84.584 85.048C84.5093 85.048 84.44 85.016 84.376 84.952L84.168 84.76C84.0933 84.6853 84.056 84.6053 84.056 84.52C84.056 84.424 84.0933 84.3387 84.168 84.264C84.616 83.7947 85.0853 83.4533 85.576 83.24C86.0773 83.0267 86.6267 82.92 87.224 82.92ZM86.648 90.36C87.416 90.36 88.0507 90.1573 88.552 89.752C89.0533 89.3467 89.304 88.8293 89.304 88.2V86.856L87.816 87.144C87.1227 87.2827 86.5733 87.416 86.168 87.544C85.7627 87.672 85.4373 87.8587 85.192 88.104C84.9467 88.3493 84.824 88.6693 84.824 89.064C84.824 89.4693 84.984 89.7893 85.304 90.024C85.6347 90.248 86.0827 90.36 86.648 90.36ZM96.4288 82.936C97.1008 82.936 97.6981 83.112 98.2208 83.464C98.7541 83.8053 99.1648 84.2907 99.4528 84.92C99.7514 85.5387 99.9008 86.2533 99.9008 87.064C99.9008 87.8747 99.7514 88.5947 99.4528 89.224C99.1541 89.8427 98.7381 90.328 98.2048 90.68C97.6821 91.0213 97.0901 91.192 96.4288 91.192C95.1594 91.192 94.2314 90.7013 93.6448 89.72V90.68C93.6448 90.8933 93.5381 91 93.3248 91H92.9728C92.7594 91 92.6528 90.8933 92.6528 90.68V79.944C92.6528 79.7307 92.7594 79.624 92.9728 79.624H93.3888C93.6021 79.624 93.7088 79.7307 93.7088 79.944V84.36C94.2954 83.4107 95.2021 82.936 96.4288 82.936ZM96.3488 90.296C97.0848 90.296 97.6768 89.9973 98.1248 89.4C98.5834 88.8027 98.8128 88.024 98.8128 87.064C98.8128 86.104 98.5834 85.3253 98.1248 84.728C97.6768 84.1307 97.0848 83.832 96.3488 83.832C95.5594 83.832 94.9141 84.12 94.4128 84.696C93.9114 85.272 93.6608 86.0613 93.6608 87.064C93.6608 88.0773 93.9061 88.872 94.3968 89.448C94.8981 90.0133 95.5488 90.296 96.3488 90.296ZM104.722 83.048C104.988 83.048 105.303 83.0907 105.666 83.176C105.858 83.24 105.932 83.3733 105.89 83.576L105.826 83.832C105.772 84.0347 105.639 84.1093 105.426 84.056C105.17 83.992 104.935 83.96 104.722 83.96C104.178 83.96 103.724 84.1947 103.362 84.664C103.01 85.1333 102.834 85.784 102.834 86.616V90.68C102.834 90.8933 102.727 91 102.514 91H102.098C101.884 91 101.778 90.8933 101.778 90.68V83.432C101.778 83.2187 101.884 83.112 102.098 83.112H102.45C102.663 83.112 102.77 83.2187 102.77 83.432V84.312C102.951 83.9173 103.207 83.608 103.538 83.384C103.879 83.16 104.274 83.048 104.722 83.048ZM107.853 81.112C107.639 81.112 107.458 81.0373 107.309 80.888C107.17 80.7387 107.101 80.5573 107.101 80.344C107.101 80.1307 107.17 79.9547 107.309 79.816C107.458 79.6773 107.639 79.608 107.853 79.608C108.077 79.608 108.258 79.6773 108.397 79.816C108.546 79.9547 108.621 80.1307 108.621 80.344C108.621 80.5573 108.546 80.7387 108.397 80.888C108.258 81.0373 108.077 81.112 107.853 81.112ZM107.645 91C107.431 91 107.325 90.8933 107.325 90.68V83.432C107.325 83.2187 107.431 83.112 107.645 83.112H108.061C108.274 83.112 108.381 83.2187 108.381 83.432V90.68C108.381 90.8933 108.274 91 108.061 91H107.645ZM113.931 91.208C113.174 91.208 112.512 91.0373 111.947 90.696C111.392 90.344 110.96 89.8587 110.651 89.24C110.352 88.6107 110.203 87.8853 110.203 87.064C110.203 86.2533 110.352 85.5333 110.651 84.904C110.96 84.2747 111.392 83.7893 111.947 83.448C112.512 83.096 113.163 82.92 113.899 82.92C114.496 82.92 115.019 83.0213 115.467 83.224C115.915 83.416 116.347 83.736 116.763 84.184C116.827 84.248 116.859 84.3173 116.859 84.392C116.859 84.488 116.816 84.568 116.731 84.632L116.507 84.84C116.443 84.904 116.368 84.936 116.283 84.936C116.208 84.936 116.128 84.8933 116.043 84.808C115.67 84.4347 115.312 84.1733 114.971 84.024C114.64 83.8747 114.272 83.8 113.867 83.8C113.312 83.8 112.838 83.9547 112.443 84.264C112.059 84.5733 111.771 84.9787 111.579 85.48C111.387 85.9707 111.291 86.4987 111.291 87.064C111.291 87.6293 111.387 88.1627 111.579 88.664C111.771 89.1547 112.064 89.5547 112.459 89.864C112.854 90.1627 113.339 90.312 113.915 90.312C114.342 90.312 114.715 90.2373 115.035 90.088C115.366 89.928 115.734 89.6293 116.139 89.192C116.224 89.1067 116.304 89.064 116.379 89.064C116.464 89.064 116.539 89.096 116.603 89.16L116.827 89.336C116.902 89.4 116.939 89.4747 116.939 89.56C116.939 89.6453 116.891 89.7467 116.795 89.864C116.347 90.3547 115.899 90.7013 115.451 90.904C115.003 91.1067 114.496 91.208 113.931 91.208ZM128.013 83.8C128.119 83.8 128.194 83.832 128.237 83.896C128.29 83.96 128.306 84.0453 128.285 84.152L127.485 87.976C127.41 88.296 127.373 88.5733 127.373 88.808C127.373 89.6293 127.778 90.04 128.589 90.04C128.983 90.04 129.346 89.9067 129.677 89.64C130.007 89.3627 130.269 88.968 130.461 88.456C130.653 87.944 130.749 87.3413 130.749 86.648C130.749 85.4533 130.493 84.44 129.981 83.608C129.469 82.7653 128.786 82.1307 127.933 81.704C127.09 81.2773 126.157 81.064 125.133 81.064C123.959 81.064 122.919 81.3413 122.013 81.896C121.106 82.44 120.402 83.192 119.901 84.152C119.399 85.1013 119.149 86.1627 119.149 87.336C119.149 88.4773 119.389 89.5013 119.869 90.408C120.349 91.304 121.058 92.008 121.997 92.52C122.935 93.0427 124.066 93.304 125.389 93.304H128.477C128.69 93.304 128.797 93.4107 128.797 93.624V93.72C128.797 93.9333 128.69 94.04 128.477 94.04H125.149C123.741 94.04 122.514 93.752 121.469 93.176C120.434 92.6107 119.639 91.8213 119.085 90.808C118.541 89.784 118.269 88.616 118.269 87.304C118.269 85.9707 118.546 84.776 119.101 83.72C119.655 82.6533 120.45 81.8213 121.485 81.224C122.519 80.616 123.719 80.312 125.085 80.312C126.354 80.312 127.485 80.5733 128.477 81.096C129.469 81.608 130.242 82.3387 130.797 83.288C131.351 84.2373 131.629 85.3413 131.629 86.6C131.629 87.4427 131.495 88.1787 131.229 88.808C130.962 89.4373 130.594 89.928 130.125 90.28C129.655 90.6213 129.122 90.792 128.525 90.792C127.842 90.792 127.346 90.6267 127.037 90.296C126.738 89.9547 126.573 89.5707 126.541 89.144C126.199 89.6773 125.805 90.088 125.357 90.376C124.909 90.6533 124.375 90.792 123.757 90.792C123.053 90.792 122.498 90.584 122.093 90.168C121.687 89.7413 121.485 89.1493 121.485 88.392C121.485 87.6453 121.639 86.9093 121.949 86.184C122.269 85.448 122.717 84.8453 123.293 84.376C123.869 83.9067 124.525 83.672 125.261 83.672C125.815 83.672 126.258 83.7947 126.589 84.04C126.93 84.2747 127.143 84.5947 127.229 85L127.405 84.088C127.437 83.896 127.554 83.8 127.757 83.8H128.013ZM123.885 89.976C124.514 89.976 125.042 89.7573 125.469 89.32C125.906 88.872 126.231 88.344 126.445 87.736C126.658 87.1173 126.765 86.568 126.765 86.088C126.765 85.544 126.653 85.1387 126.429 84.872C126.205 84.5947 125.826 84.456 125.293 84.456C124.749 84.456 124.258 84.648 123.821 85.032C123.394 85.416 123.058 85.9067 122.813 86.504C122.578 87.1013 122.461 87.6987 122.461 88.296C122.461 88.8613 122.583 89.2827 122.829 89.56C123.085 89.8373 123.437 89.976 123.885 89.976ZM136.614 80.328C136.134 80.328 135.793 80.456 135.59 80.712C135.387 80.9573 135.286 81.3733 135.286 81.96V83.112H137.046C137.259 83.112 137.366 83.2187 137.366 83.432V83.592C137.366 83.8053 137.259 83.912 137.046 83.912H135.286V90.68C135.286 90.8933 135.179 91 134.966 91H134.55C134.337 91 134.23 90.8933 134.23 90.68V83.912H133.046C132.833 83.912 132.726 83.8053 132.726 83.592V83.432C132.726 83.2187 132.833 83.112 133.046 83.112H134.23V81.784C134.23 81.048 134.422 80.472 134.806 80.056C135.201 79.64 135.761 79.432 136.486 79.432C136.891 79.432 137.307 79.4907 137.734 79.608C137.937 79.672 138.011 79.8053 137.958 80.008L137.894 80.232C137.841 80.3813 137.734 80.456 137.574 80.456C137.542 80.456 137.473 80.4453 137.366 80.424C137.131 80.36 136.881 80.328 136.614 80.328ZM139.446 81.112C139.233 81.112 139.052 81.0373 138.902 80.888C138.764 80.7387 138.694 80.5573 138.694 80.344C138.694 80.1307 138.764 79.9547 138.902 79.816C139.052 79.6773 139.233 79.608 139.446 79.608C139.67 79.608 139.852 79.6773 139.99 79.816C140.14 79.9547 140.214 80.1307 140.214 80.344C140.214 80.5573 140.14 80.7387 139.99 80.888C139.852 81.0373 139.67 81.112 139.446 81.112ZM139.238 91C139.025 91 138.918 90.8933 138.918 90.68V83.432C138.918 83.2187 139.025 83.112 139.238 83.112H139.654C139.868 83.112 139.974 83.2187 139.974 83.432V90.68C139.974 90.8933 139.868 91 139.654 91H139.238ZM145.845 82.92C146.773 82.92 147.471 83.176 147.941 83.688C148.421 84.2 148.661 84.84 148.661 85.608V90.68C148.661 90.8933 148.554 91 148.341 91H147.925C147.711 91 147.605 90.8933 147.605 90.68V85.96C147.605 85.256 147.434 84.7227 147.093 84.36C146.751 83.9973 146.261 83.816 145.621 83.816C145.215 83.816 144.842 83.9173 144.501 84.12C144.159 84.312 143.887 84.5787 143.685 84.92C143.482 85.2613 143.381 85.6347 143.381 86.04V90.68C143.381 90.8933 143.274 91 143.061 91H142.645C142.431 91 142.325 90.8933 142.325 90.68V83.432C142.325 83.2187 142.431 83.112 142.645 83.112H142.997C143.21 83.112 143.317 83.2187 143.317 83.432V84.2C143.583 83.7733 143.935 83.4533 144.373 83.24C144.81 83.0267 145.301 82.92 145.845 82.92ZM154.516 82.92C155.445 82.92 156.143 83.176 156.613 83.688C157.093 84.2 157.333 84.84 157.333 85.608V90.68C157.333 90.8933 157.226 91 157.013 91H156.597C156.383 91 156.277 90.8933 156.277 90.68V85.96C156.277 85.256 156.106 84.7227 155.765 84.36C155.423 83.9973 154.933 83.816 154.293 83.816C153.887 83.816 153.514 83.9173 153.173 84.12C152.831 84.312 152.559 84.5787 152.357 84.92C152.154 85.2613 152.053 85.6347 152.053 86.04V90.68C152.053 90.8933 151.946 91 151.733 91H151.317C151.103 91 150.997 90.8933 150.997 90.68V83.432C150.997 83.2187 151.103 83.112 151.317 83.112H151.669C151.882 83.112 151.989 83.2187 151.989 83.432V84.2C152.255 83.7733 152.607 83.4533 153.045 83.24C153.482 83.0267 153.973 82.92 154.516 82.92ZM160.1 91.112C159.876 91.112 159.684 91.032 159.524 90.872C159.364 90.712 159.284 90.52 159.284 90.296C159.284 90.072 159.364 89.88 159.524 89.72C159.684 89.56 159.876 89.48 160.1 89.48C160.324 89.48 160.516 89.56 160.676 89.72C160.836 89.88 160.916 90.072 160.916 90.296C160.916 90.52 160.836 90.712 160.676 90.872C160.516 91.032 160.324 91.112 160.1 91.112ZM166.423 82.92C167.351 82.92 168.049 83.176 168.519 83.688C168.999 84.2 169.239 84.84 169.239 85.608V90.68C169.239 90.8933 169.132 91 168.919 91H168.503C168.289 91 168.183 90.8933 168.183 90.68V85.96C168.183 85.256 168.012 84.7227 167.671 84.36C167.329 83.9973 166.839 83.816 166.199 83.816C165.793 83.816 165.42 83.9173 165.079 84.12C164.737 84.312 164.465 84.5787 164.263 84.92C164.06 85.2613 163.959 85.6347 163.959 86.04V90.68C163.959 90.8933 163.852 91 163.639 91H163.223C163.009 91 162.903 90.8933 162.903 90.68V83.432C162.903 83.2187 163.009 83.112 163.223 83.112H163.575C163.788 83.112 163.895 83.2187 163.895 83.432V84.2C164.161 83.7733 164.513 83.4533 164.951 83.24C165.388 83.0267 165.879 82.92 166.423 82.92ZM174.839 91.208C174.103 91.208 173.447 91.032 172.871 90.68C172.295 90.328 171.847 89.8427 171.527 89.224C171.207 88.5947 171.047 87.8747 171.047 87.064C171.047 86.2533 171.207 85.5387 171.527 84.92C171.847 84.2907 172.295 83.8 172.871 83.448C173.447 83.096 174.103 82.92 174.839 82.92C175.575 82.92 176.231 83.096 176.807 83.448C177.383 83.8 177.831 84.2907 178.151 84.92C178.471 85.5387 178.631 86.2533 178.631 87.064C178.631 87.8747 178.471 88.5947 178.151 89.224C177.831 89.8427 177.383 90.328 176.807 90.68C176.231 91.032 175.575 91.208 174.839 91.208ZM174.839 90.328C175.66 90.328 176.316 90.0293 176.807 89.432C177.297 88.824 177.543 88.0347 177.543 87.064C177.543 86.0933 177.297 85.3093 176.807 84.712C176.316 84.104 175.66 83.8 174.839 83.8C174.017 83.8 173.361 84.104 172.871 84.712C172.38 85.3093 172.135 86.0933 172.135 87.064C172.135 88.0347 172.38 88.824 172.871 89.432C173.361 90.0293 174.017 90.328 174.839 90.328Z" fill="#464646"/>
</g>
<rect x="70.5" y="62.5" width="202" height="47" rx="3.5" stroke="#C3CCD9"/>
<path d="M73.92 164C73.7707 164 73.6493 163.958 73.556 163.874C73.472 163.781 73.43 163.659 73.43 163.51V155.418H70.882C70.7327 155.418 70.6113 155.376 70.518 155.292C70.434 155.199 70.392 155.077 70.392 154.928V154.55C70.392 154.391 70.434 154.27 70.518 154.186C70.6113 154.102 70.7327 154.06 70.882 154.06H77.56C77.7187 154.06 77.84 154.102 77.924 154.186C78.008 154.27 78.05 154.391 78.05 154.55V154.928C78.05 155.077 78.008 155.199 77.924 155.292C77.84 155.376 77.7187 155.418 77.56 155.418H75.026V163.51C75.026 163.659 74.984 163.781 74.9 163.874C74.816 163.958 74.6947 164 74.536 164H73.92ZM82.6046 162.236C82.7259 162.133 82.8426 162.082 82.9546 162.082C83.0666 162.082 83.1833 162.143 83.3046 162.264L83.5006 162.474C83.6033 162.595 83.6546 162.712 83.6546 162.824C83.6546 162.945 83.5939 163.062 83.4726 163.174C83.0433 163.547 82.6139 163.813 82.1846 163.972C81.7646 164.131 81.2979 164.21 80.7846 164.21C80.0659 164.21 79.4406 164.061 78.9086 163.762C78.3859 163.463 77.9799 163.043 77.6906 162.502C77.4106 161.951 77.2706 161.317 77.2706 160.598C77.2706 159.889 77.4059 159.254 77.6766 158.694C77.9566 158.125 78.3486 157.681 78.8526 157.364C79.3659 157.047 79.9633 156.888 80.6446 156.888C81.6619 156.888 82.4459 157.191 82.9966 157.798C83.5473 158.395 83.8226 159.221 83.8226 160.276V160.402C83.8133 160.551 83.7666 160.668 83.6826 160.752C83.5986 160.836 83.4773 160.878 83.3186 160.878H78.7266C78.7826 161.494 78.9833 161.998 79.3286 162.39C79.6833 162.773 80.1779 162.964 80.8126 162.964C81.1579 162.964 81.4613 162.913 81.7226 162.81C81.9839 162.698 82.2779 162.507 82.6046 162.236ZM80.6166 158.064C80.1033 158.064 79.6879 158.218 79.3706 158.526C79.0626 158.825 78.8619 159.249 78.7686 159.8H82.3666C82.3293 159.259 82.1613 158.834 81.8626 158.526C81.5639 158.218 81.1486 158.064 80.6166 158.064ZM85.7281 164C85.5788 164 85.4575 163.958 85.3641 163.874C85.2801 163.781 85.2381 163.659 85.2381 163.51V154.55C85.2381 154.391 85.2801 154.27 85.3641 154.186C85.4575 154.102 85.5788 154.06 85.7281 154.06H86.2321C86.3908 154.06 86.5121 154.102 86.5961 154.186C86.6801 154.27 86.7221 154.391 86.7221 154.55V163.51C86.7221 163.659 86.6801 163.781 86.5961 163.874C86.5121 163.958 86.3908 164 86.2321 164H85.7281ZM93.4327 162.236C93.5541 162.133 93.6707 162.082 93.7827 162.082C93.8947 162.082 94.0114 162.143 94.1327 162.264L94.3287 162.474C94.4314 162.595 94.4827 162.712 94.4827 162.824C94.4827 162.945 94.4221 163.062 94.3007 163.174C93.8714 163.547 93.4421 163.813 93.0127 163.972C92.5927 164.131 92.1261 164.21 91.6127 164.21C90.8941 164.21 90.2687 164.061 89.7367 163.762C89.2141 163.463 88.8081 163.043 88.5187 162.502C88.2387 161.951 88.0987 161.317 88.0987 160.598C88.0987 159.889 88.2341 159.254 88.5047 158.694C88.7847 158.125 89.1767 157.681 89.6807 157.364C90.1941 157.047 90.7914 156.888 91.4727 156.888C92.4901 156.888 93.2741 157.191 93.8247 157.798C94.3754 158.395 94.6507 159.221 94.6507 160.276V160.402C94.6414 160.551 94.5947 160.668 94.5107 160.752C94.4267 160.836 94.3054 160.878 94.1467 160.878H89.5547C89.6107 161.494 89.8114 161.998 90.1567 162.39C90.5114 162.773 91.0061 162.964 91.6407 162.964C91.9861 162.964 92.2894 162.913 92.5507 162.81C92.8121 162.698 93.1061 162.507 93.4327 162.236ZM91.4447 158.064C90.9314 158.064 90.5161 158.218 90.1987 158.526C89.8907 158.825 89.6901 159.249 89.5967 159.8H93.1947C93.1574 159.259 92.9894 158.834 92.6907 158.526C92.3921 158.218 91.9767 158.064 91.4447 158.064ZM99.6783 156.916C100.266 156.916 100.789 157.065 101.246 157.364C101.713 157.663 102.077 158.087 102.338 158.638C102.6 159.189 102.73 159.823 102.73 160.542C102.73 161.27 102.6 161.909 102.338 162.46C102.077 163.011 101.713 163.435 101.246 163.734C100.78 164.033 100.257 164.182 99.6783 164.182C98.7076 164.182 97.9796 163.846 97.4943 163.174V165.988C97.4943 166.147 97.4523 166.268 97.3683 166.352C97.2843 166.436 97.1629 166.478 97.0042 166.478H96.5003C96.3509 166.478 96.2296 166.436 96.1363 166.352C96.0523 166.268 96.0103 166.147 96.0103 165.988V157.588C96.0103 157.429 96.0523 157.308 96.1363 157.224C96.2296 157.14 96.3509 157.098 96.5003 157.098H96.9062C97.0649 157.098 97.1863 157.14 97.2703 157.224C97.3543 157.308 97.3963 157.429 97.3963 157.588V158.106C97.8909 157.313 98.6516 156.916 99.6783 156.916ZM99.3703 162.894C99.9303 162.894 100.378 162.684 100.714 162.264C101.05 161.835 101.218 161.261 101.218 160.542C101.218 159.833 101.05 159.263 100.714 158.834C100.388 158.405 99.9443 158.19 99.3843 158.19C98.8149 158.19 98.3483 158.4 97.9843 158.82C97.6203 159.24 97.4383 159.814 97.4383 160.542C97.4383 161.27 97.6203 161.844 97.9843 162.264C98.3483 162.684 98.8103 162.894 99.3703 162.894ZM107.591 156.888C108.384 156.888 108.991 157.112 109.411 157.56C109.84 157.999 110.055 158.568 110.055 159.268V163.51C110.055 163.659 110.013 163.781 109.929 163.874C109.845 163.958 109.723 164 109.565 164H109.061C108.911 164 108.79 163.958 108.697 163.874C108.613 163.781 108.571 163.659 108.571 163.51V159.73C108.571 159.226 108.445 158.839 108.193 158.568C107.95 158.297 107.6 158.162 107.143 158.162C106.695 158.162 106.317 158.316 106.009 158.624C105.71 158.932 105.561 159.319 105.561 159.786V163.51C105.561 163.659 105.519 163.781 105.435 163.874C105.351 163.958 105.229 164 105.071 164H104.567C104.417 164 104.296 163.958 104.203 163.874C104.119 163.781 104.077 163.659 104.077 163.51V154.55C104.077 154.391 104.119 154.27 104.203 154.186C104.296 154.102 104.417 154.06 104.567 154.06H105.071C105.229 154.06 105.351 154.102 105.435 154.186C105.519 154.27 105.561 154.391 105.561 154.55V157.812C105.785 157.513 106.069 157.285 106.415 157.126C106.769 156.967 107.161 156.888 107.591 156.888ZM114.868 164.21C114.187 164.21 113.58 164.056 113.048 163.748C112.526 163.44 112.115 163.011 111.816 162.46C111.518 161.9 111.368 161.261 111.368 160.542C111.368 159.823 111.518 159.189 111.816 158.638C112.115 158.087 112.526 157.658 113.048 157.35C113.58 157.042 114.187 156.888 114.868 156.888C115.54 156.888 116.142 157.042 116.674 157.35C117.206 157.658 117.622 158.092 117.92 158.652C118.219 159.203 118.368 159.833 118.368 160.542C118.368 161.261 118.219 161.9 117.92 162.46C117.622 163.011 117.206 163.44 116.674 163.748C116.142 164.056 115.54 164.21 114.868 164.21ZM114.868 162.964C115.466 162.964 115.946 162.745 116.31 162.306C116.674 161.858 116.856 161.27 116.856 160.542C116.856 159.823 116.674 159.245 116.31 158.806C115.946 158.367 115.466 158.148 114.868 158.148C114.271 158.148 113.79 158.367 113.426 158.806C113.062 159.245 112.88 159.823 112.88 160.542C112.88 161.27 113.062 161.858 113.426 162.306C113.79 162.745 114.271 162.964 114.868 162.964ZM123.19 156.888C123.984 156.888 124.59 157.112 125.01 157.56C125.44 157.999 125.654 158.568 125.654 159.268V163.51C125.654 163.659 125.612 163.781 125.528 163.874C125.444 163.958 125.323 164 125.164 164H124.66C124.511 164 124.39 163.958 124.296 163.874C124.212 163.781 124.17 163.659 124.17 163.51V159.73C124.17 159.226 124.044 158.839 123.792 158.568C123.55 158.297 123.2 158.162 122.742 158.162C122.294 158.162 121.916 158.316 121.608 158.624C121.31 158.932 121.16 159.319 121.16 159.786V163.51C121.16 163.659 121.118 163.781 121.034 163.874C120.95 163.958 120.829 164 120.67 164H120.166C120.017 164 119.896 163.958 119.802 163.874C119.718 163.781 119.676 163.659 119.676 163.51V157.588C119.676 157.429 119.718 157.308 119.802 157.224C119.896 157.14 120.017 157.098 120.166 157.098H120.572C120.731 157.098 120.852 157.14 120.936 157.224C121.02 157.308 121.062 157.429 121.062 157.588V157.952C121.286 157.607 121.58 157.345 121.944 157.168C122.308 156.981 122.724 156.888 123.19 156.888ZM132.302 162.236C132.423 162.133 132.54 162.082 132.652 162.082C132.764 162.082 132.881 162.143 133.002 162.264L133.198 162.474C133.301 162.595 133.352 162.712 133.352 162.824C133.352 162.945 133.291 163.062 133.17 163.174C132.741 163.547 132.311 163.813 131.882 163.972C131.462 164.131 130.995 164.21 130.482 164.21C129.763 164.21 129.138 164.061 128.606 163.762C128.083 163.463 127.677 163.043 127.388 162.502C127.108 161.951 126.968 161.317 126.968 160.598C126.968 159.889 127.103 159.254 127.374 158.694C127.654 158.125 128.046 157.681 128.55 157.364C129.063 157.047 129.661 156.888 130.342 156.888C131.359 156.888 132.143 157.191 132.694 157.798C133.245 158.395 133.52 159.221 133.52 160.276V160.402C133.511 160.551 133.464 160.668 133.38 160.752C133.296 160.836 133.175 160.878 133.016 160.878H128.424C128.48 161.494 128.681 161.998 129.026 162.39C129.381 162.773 129.875 162.964 130.51 162.964C130.855 162.964 131.159 162.913 131.42 162.81C131.681 162.698 131.975 162.507 132.302 162.236ZM130.314 158.064C129.801 158.064 129.385 158.218 129.068 158.526C128.76 158.825 128.559 159.249 128.466 159.8H132.064C132.027 159.259 131.859 158.834 131.56 158.526C131.261 158.218 130.846 158.064 130.314 158.064ZM141.524 156.888C142.318 156.888 142.924 157.112 143.344 157.56C143.774 157.999 143.988 158.568 143.988 159.268V163.51C143.988 163.659 143.946 163.781 143.862 163.874C143.778 163.958 143.657 164 143.498 164H142.994C142.845 164 142.724 163.958 142.63 163.874C142.546 163.781 142.504 163.659 142.504 163.51V159.73C142.504 159.226 142.378 158.839 142.126 158.568C141.884 158.297 141.534 158.162 141.076 158.162C140.628 158.162 140.25 158.316 139.942 158.624C139.644 158.932 139.494 159.319 139.494 159.786V163.51C139.494 163.659 139.452 163.781 139.368 163.874C139.284 163.958 139.163 164 139.004 164H138.5C138.351 164 138.23 163.958 138.136 163.874C138.052 163.781 138.01 163.659 138.01 163.51V157.588C138.01 157.429 138.052 157.308 138.136 157.224C138.23 157.14 138.351 157.098 138.5 157.098H138.906C139.065 157.098 139.186 157.14 139.27 157.224C139.354 157.308 139.396 157.429 139.396 157.588V157.952C139.62 157.607 139.914 157.345 140.278 157.168C140.642 156.981 141.058 156.888 141.524 156.888ZM150.049 157.588C150.049 157.429 150.091 157.308 150.175 157.224C150.268 157.14 150.389 157.098 150.539 157.098H151.043C151.201 157.098 151.323 157.14 151.407 157.224C151.491 157.308 151.533 157.429 151.533 157.588V163.51C151.533 163.659 151.491 163.781 151.407 163.874C151.323 163.958 151.201 164 151.043 164H150.665C150.515 164 150.394 163.958 150.301 163.874C150.217 163.781 150.175 163.659 150.175 163.51V163.188C149.988 163.505 149.717 163.757 149.363 163.944C149.008 164.121 148.588 164.21 148.103 164.21C147.281 164.21 146.67 164.009 146.269 163.608C145.867 163.197 145.667 162.656 145.667 161.984V157.588C145.667 157.429 145.709 157.308 145.793 157.224C145.886 157.14 146.007 157.098 146.157 157.098H146.66C146.819 157.098 146.941 157.14 147.025 157.224C147.109 157.308 147.151 157.429 147.151 157.588V161.592C147.151 162.021 147.258 162.353 147.473 162.586C147.697 162.81 148.019 162.922 148.439 162.922C148.924 162.922 149.311 162.782 149.601 162.502C149.899 162.222 150.049 161.816 150.049 161.284V157.588ZM160.647 156.888C161.384 156.888 161.953 157.098 162.355 157.518C162.756 157.929 162.957 158.484 162.957 159.184V163.51C162.957 163.659 162.915 163.781 162.831 163.874C162.747 163.958 162.625 164 162.467 164H161.963C161.813 164 161.692 163.958 161.599 163.874C161.515 163.781 161.473 163.659 161.473 163.51V159.632C161.473 159.175 161.37 158.815 161.165 158.554C160.959 158.293 160.647 158.162 160.227 158.162C159.797 158.162 159.457 158.307 159.205 158.596C158.962 158.885 158.841 159.259 158.841 159.716V163.51C158.841 163.659 158.799 163.781 158.715 163.874C158.631 163.958 158.509 164 158.351 164H157.847C157.697 164 157.576 163.958 157.483 163.874C157.399 163.781 157.357 163.659 157.357 163.51V159.632C157.357 159.175 157.254 158.815 157.049 158.554C156.853 158.293 156.545 158.162 156.125 158.162C155.714 158.162 155.383 158.297 155.131 158.568C154.879 158.839 154.743 159.189 154.725 159.618V163.51C154.725 163.659 154.683 163.781 154.599 163.874C154.515 163.958 154.393 164 154.235 164H153.731C153.581 164 153.46 163.958 153.367 163.874C153.283 163.781 153.241 163.659 153.241 163.51V157.588C153.241 157.429 153.283 157.308 153.367 157.224C153.46 157.14 153.581 157.098 153.731 157.098H154.137C154.295 157.098 154.417 157.14 154.501 157.224C154.585 157.308 154.627 157.429 154.627 157.588V157.896C155.056 157.224 155.719 156.888 156.615 156.888C157.063 156.888 157.455 156.981 157.791 157.168C158.127 157.355 158.383 157.616 158.561 157.952C159.037 157.243 159.732 156.888 160.647 156.888ZM168.325 156.916C168.913 156.916 169.435 157.065 169.893 157.364C170.359 157.663 170.723 158.087 170.985 158.638C171.246 159.189 171.377 159.823 171.377 160.542C171.377 161.27 171.246 161.909 170.985 162.46C170.723 163.011 170.359 163.435 169.893 163.734C169.426 164.033 168.903 164.182 168.325 164.182C167.289 164.182 166.528 163.795 166.043 163.02V163.51C166.043 163.659 166.001 163.781 165.917 163.874C165.833 163.958 165.711 164 165.553 164H165.147C164.997 164 164.876 163.958 164.783 163.874C164.699 163.781 164.657 163.659 164.657 163.51V154.55C164.657 154.391 164.699 154.27 164.783 154.186C164.876 154.102 164.997 154.06 165.147 154.06H165.651C165.809 154.06 165.931 154.102 166.015 154.186C166.099 154.27 166.141 154.391 166.141 154.55V157.966C166.635 157.266 167.363 156.916 168.325 156.916ZM168.017 162.894C168.577 162.894 169.025 162.684 169.361 162.264C169.697 161.835 169.865 161.261 169.865 160.542C169.865 159.833 169.697 159.263 169.361 158.834C169.034 158.405 168.591 158.19 168.031 158.19C167.461 158.19 166.995 158.405 166.631 158.834C166.267 159.254 166.085 159.823 166.085 160.542C166.085 161.279 166.267 161.858 166.631 162.278C166.995 162.689 167.457 162.894 168.017 162.894ZM177.747 162.236C177.869 162.133 177.985 162.082 178.097 162.082C178.209 162.082 178.326 162.143 178.447 162.264L178.643 162.474C178.746 162.595 178.797 162.712 178.797 162.824C178.797 162.945 178.737 163.062 178.615 163.174C178.186 163.547 177.757 163.813 177.327 163.972C176.907 164.131 176.441 164.21 175.927 164.21C175.209 164.21 174.583 164.061 174.051 163.762C173.529 163.463 173.123 163.043 172.833 162.502C172.553 161.951 172.413 161.317 172.413 160.598C172.413 159.889 172.549 159.254 172.819 158.694C173.099 158.125 173.491 157.681 173.995 157.364C174.509 157.047 175.106 156.888 175.787 156.888C176.805 156.888 177.589 157.191 178.139 157.798C178.69 158.395 178.965 159.221 178.965 160.276V160.402C178.956 160.551 178.909 160.668 178.825 160.752C178.741 160.836 178.62 160.878 178.461 160.878H173.869C173.925 161.494 174.126 161.998 174.471 162.39C174.826 162.773 175.321 162.964 175.955 162.964C176.301 162.964 176.604 162.913 176.865 162.81C177.127 162.698 177.421 162.507 177.747 162.236ZM175.759 158.064C175.246 158.064 174.831 158.218 174.513 158.526C174.205 158.825 174.005 159.249 173.911 159.8H177.509C177.472 159.259 177.304 158.834 177.005 158.526C176.707 158.218 176.291 158.064 175.759 158.064ZM183.433 157.028C183.638 157.028 183.848 157.051 184.063 157.098C184.315 157.154 184.441 157.303 184.441 157.546C184.441 157.611 184.436 157.658 184.427 157.686L184.357 158.022C184.301 158.283 184.161 158.414 183.937 158.414L183.811 158.4C183.643 158.372 183.493 158.358 183.363 158.358C182.896 158.358 182.518 158.545 182.229 158.918C181.949 159.282 181.809 159.791 181.809 160.444V163.51C181.809 163.659 181.767 163.781 181.683 163.874C181.599 163.958 181.477 164 181.319 164H180.815C180.665 164 180.544 163.958 180.451 163.874C180.367 163.781 180.325 163.659 180.325 163.51V157.588C180.325 157.429 180.367 157.308 180.451 157.224C180.544 157.14 180.665 157.098 180.815 157.098H181.221C181.379 157.098 181.501 157.14 181.585 157.224C181.669 157.308 181.711 157.429 181.711 157.588V158.134C181.879 157.789 182.107 157.518 182.397 157.322C182.686 157.126 183.031 157.028 183.433 157.028Z" fill="#464646"/>
<rect x="70.5" y="172.5" width="112" height="47" rx="3.5" fill="white"/>
<g clip-path="url(#clip1_899_38198)">
<path d="M82.64 189.4C83.4933 189.4 84.224 189.592 84.832 189.976C85.44 190.349 85.8987 190.861 86.208 191.512C86.5173 192.163 86.672 192.893 86.672 193.704C86.672 194.557 86.5227 195.352 86.224 196.088C85.9253 196.824 85.5253 197.507 85.024 198.136C84.5333 198.765 83.9147 199.437 83.168 200.152L82.448 200.84C82.3413 200.947 82.2133 201 82.064 201H81.424C81.2427 201 81.152 200.941 81.152 200.824C81.152 200.76 81.1947 200.685 81.28 200.6L82.288 199.672C83.9093 198.189 84.944 196.851 85.392 195.656C85.0827 196.083 84.6773 196.424 84.176 196.68C83.6747 196.925 83.104 197.048 82.464 197.048C81.6853 197.048 81.008 196.877 80.432 196.536C79.856 196.184 79.4133 195.72 79.104 195.144C78.8053 194.557 78.656 193.923 78.656 193.24C78.656 192.557 78.816 191.923 79.136 191.336C79.456 190.749 79.9147 190.28 80.512 189.928C81.12 189.576 81.8293 189.4 82.64 189.4ZM82.544 196.12C83.152 196.12 83.68 195.992 84.128 195.736C84.5867 195.48 84.9333 195.133 85.168 194.696C85.4133 194.259 85.536 193.768 85.536 193.224C85.536 192.68 85.4187 192.189 85.184 191.752C84.9493 191.304 84.6133 190.957 84.176 190.712C83.7387 190.456 83.2267 190.328 82.64 190.328C81.7547 190.328 81.0507 190.6 80.528 191.144C80.016 191.688 79.76 192.381 79.76 193.224C79.76 194.067 80.0053 194.76 80.496 195.304C80.9867 195.848 81.6693 196.12 82.544 196.12ZM94.14 194.856C94.8653 195.112 95.4253 195.512 95.82 196.056C96.2147 196.589 96.412 197.213 96.412 197.928C96.412 198.557 96.2467 199.128 95.916 199.64C95.5853 200.141 95.1107 200.536 94.492 200.824C93.8733 201.112 93.1427 201.256 92.3 201.256C91.4573 201.256 90.7267 201.112 90.108 200.824C89.4893 200.536 89.0147 200.141 88.684 199.64C88.3533 199.128 88.188 198.557 88.188 197.928C88.188 197.213 88.3853 196.589 88.78 196.056C89.1747 195.512 89.7347 195.112 90.46 194.856C89.9373 194.621 89.5267 194.296 89.228 193.88C88.9293 193.453 88.78 192.952 88.78 192.376C88.78 191.8 88.9293 191.288 89.228 190.84C89.5267 190.392 89.9427 190.045 90.476 189.8C91.0093 189.544 91.6173 189.416 92.3 189.416C92.9827 189.416 93.5907 189.544 94.124 189.8C94.6573 190.045 95.0733 190.392 95.372 190.84C95.6707 191.288 95.82 191.8 95.82 192.376C95.82 192.952 95.6707 193.453 95.372 193.88C95.0733 194.296 94.6627 194.621 94.14 194.856ZM89.836 192.344C89.836 192.984 90.06 193.496 90.508 193.88C90.9667 194.264 91.564 194.456 92.3 194.456C93.036 194.456 93.628 194.264 94.076 193.88C94.5347 193.496 94.764 192.984 94.764 192.344C94.764 191.747 94.54 191.261 94.092 190.888C93.6547 190.504 93.0573 190.312 92.3 190.312C91.5427 190.312 90.94 190.504 90.492 190.888C90.0547 191.261 89.836 191.747 89.836 192.344ZM92.3 200.312C93.228 200.312 93.9587 200.088 94.492 199.64C95.036 199.181 95.308 198.6 95.308 197.896C95.308 197.139 95.036 196.525 94.492 196.056C93.948 195.587 93.2173 195.352 92.3 195.352C91.3827 195.352 90.652 195.587 90.108 196.056C89.564 196.525 89.292 197.139 89.292 197.896C89.292 198.6 89.5587 199.181 90.092 199.64C90.636 200.088 91.372 200.312 92.3 200.312ZM101.102 189.96C101.102 189.747 101.208 189.64 101.422 189.64H108.686C108.899 189.64 109.006 189.747 109.006 189.96V190.184C109.006 190.344 108.958 190.477 108.862 190.584C107.795 191.928 106.84 193.507 105.998 195.32C105.166 197.123 104.611 198.92 104.334 200.712C104.302 200.904 104.184 201 103.982 201H103.486C103.379 201 103.299 200.973 103.246 200.92C103.192 200.856 103.171 200.771 103.182 200.664C103.48 198.925 104.062 197.139 104.926 195.304C105.79 193.469 106.744 191.885 107.79 190.552H101.422C101.208 190.552 101.102 190.445 101.102 190.232V189.96ZM114.073 193.576C114.852 193.576 115.529 193.752 116.105 194.104C116.681 194.445 117.118 194.909 117.417 195.496C117.726 196.072 117.881 196.707 117.881 197.4C117.881 198.083 117.721 198.717 117.401 199.304C117.081 199.891 116.617 200.36 116.009 200.712C115.412 201.064 114.708 201.24 113.897 201.24C113.044 201.24 112.313 201.048 111.705 200.664C111.097 200.28 110.638 199.763 110.329 199.112C110.02 198.461 109.865 197.731 109.865 196.92C109.865 195.683 110.164 194.573 110.761 193.592C111.369 192.6 112.238 191.56 113.369 190.472L114.089 189.8C114.196 189.693 114.324 189.64 114.473 189.64H115.113C115.294 189.64 115.385 189.699 115.385 189.816C115.385 189.88 115.342 189.955 115.257 190.04L114.249 190.968C112.638 192.461 111.604 193.789 111.145 194.952C111.454 194.525 111.86 194.189 112.361 193.944C112.862 193.699 113.433 193.576 114.073 193.576ZM113.897 200.312C114.484 200.312 114.996 200.184 115.433 199.928C115.87 199.672 116.201 199.325 116.425 198.888C116.66 198.451 116.777 197.96 116.777 197.416C116.777 196.573 116.532 195.88 116.041 195.336C115.55 194.792 114.868 194.52 113.993 194.52C113.374 194.52 112.841 194.648 112.393 194.904C111.945 195.149 111.598 195.496 111.353 195.944C111.118 196.381 111.001 196.872 111.001 197.416C111.001 197.96 111.118 198.451 111.353 198.888C111.588 199.325 111.924 199.672 112.361 199.928C112.798 200.184 113.31 200.312 113.897 200.312ZM127.211 193.672C127.947 193.672 128.592 193.827 129.147 194.136C129.712 194.435 130.149 194.861 130.459 195.416C130.768 195.971 130.923 196.611 130.923 197.336C130.923 197.987 130.768 198.611 130.459 199.208C130.149 199.805 129.701 200.291 129.115 200.664C128.528 201.037 127.84 201.224 127.051 201.224C126.283 201.224 125.616 201.128 125.051 200.936C124.496 200.744 123.867 200.413 123.163 199.944C123.056 199.88 123.003 199.795 123.003 199.688C123.003 199.613 123.024 199.549 123.067 199.496L123.275 199.208C123.339 199.112 123.413 199.064 123.499 199.064C123.563 199.064 123.637 199.091 123.723 199.144C124.373 199.581 124.928 199.885 125.387 200.056C125.856 200.227 126.373 200.312 126.939 200.312C127.536 200.312 128.053 200.179 128.491 199.912C128.928 199.635 129.259 199.272 129.483 198.824C129.717 198.365 129.835 197.869 129.835 197.336C129.835 196.483 129.595 195.816 129.115 195.336C128.645 194.856 127.968 194.616 127.083 194.616C126.133 194.616 125.339 194.904 124.699 195.48C124.581 195.587 124.443 195.629 124.283 195.608L123.931 195.56C123.835 195.549 123.76 195.512 123.707 195.448C123.653 195.384 123.632 195.304 123.643 195.208L124.075 189.944C124.085 189.848 124.117 189.773 124.171 189.72C124.235 189.667 124.315 189.64 124.411 189.64H130.107C130.32 189.64 130.427 189.747 130.427 189.96V190.248C130.427 190.461 130.32 190.568 130.107 190.568H125.019L124.683 194.504C124.981 194.259 125.344 194.061 125.771 193.912C126.208 193.752 126.688 193.672 127.211 193.672ZM140.69 197.336C140.904 197.336 141.01 197.443 141.01 197.656V197.928C141.01 198.141 140.904 198.248 140.69 198.248H139.266V200.68C139.266 200.893 139.16 201 138.946 201H138.53C138.317 201 138.21 200.893 138.21 200.68V198.248H132.706C132.493 198.248 132.386 198.141 132.386 197.928V197.512C132.386 197.395 132.424 197.267 132.498 197.128L137.074 189.848C137.16 189.709 137.288 189.64 137.458 189.64H137.97C138.056 189.64 138.125 189.661 138.178 189.704C138.232 189.736 138.258 189.784 138.258 189.848C138.258 189.88 138.237 189.939 138.194 190.024L133.57 197.336H138.21V194.92C138.21 194.707 138.317 194.6 138.53 194.6H138.946C139.16 194.6 139.266 194.707 139.266 194.92V197.336H140.69ZM146.03 194.248C147.161 194.248 148.078 194.536 148.782 195.112C149.486 195.688 149.838 196.509 149.838 197.576C149.838 198.173 149.689 198.755 149.39 199.32C149.102 199.885 148.67 200.349 148.094 200.712C147.518 201.064 146.825 201.24 146.014 201.24C145.342 201.24 144.697 201.144 144.078 200.952C143.47 200.749 142.846 200.445 142.206 200.04C142.099 199.976 142.046 199.891 142.046 199.784C142.046 199.709 142.067 199.645 142.11 199.592L142.318 199.304C142.382 199.208 142.462 199.16 142.558 199.16C142.643 199.16 142.713 199.181 142.766 199.224C143.395 199.619 143.95 199.901 144.43 200.072C144.921 200.232 145.438 200.312 145.982 200.312C146.537 200.312 147.022 200.195 147.438 199.96C147.854 199.715 148.174 199.389 148.398 198.984C148.633 198.568 148.75 198.104 148.75 197.592C148.75 196.824 148.505 196.221 148.014 195.784C147.523 195.347 146.793 195.128 145.822 195.128C145.417 195.128 145.059 195.171 144.75 195.256C144.718 195.267 144.675 195.272 144.622 195.272C144.505 195.272 144.409 195.219 144.334 195.112L144.158 194.872C144.105 194.787 144.078 194.712 144.078 194.648C144.078 194.563 144.115 194.488 144.19 194.424L148.222 190.568H142.814C142.601 190.568 142.494 190.461 142.494 190.248V189.96C142.494 189.747 142.601 189.64 142.814 189.64H149.246C149.459 189.64 149.566 189.747 149.566 189.96V190.312C149.566 190.461 149.507 190.595 149.39 190.712L145.646 194.264L146.03 194.248ZM158.832 200.072C159.045 200.072 159.152 200.179 159.152 200.392V200.68C159.152 200.893 159.045 201 158.832 201H151.728C151.514 201 151.408 200.893 151.408 200.68V200.616C151.408 199.837 151.541 199.181 151.808 198.648C152.085 198.104 152.442 197.645 152.88 197.272C153.328 196.899 153.941 196.472 154.72 195.992C154.794 195.939 155.072 195.773 155.552 195.496C156.117 195.176 156.56 194.899 156.88 194.664C157.2 194.429 157.466 194.141 157.68 193.8C157.893 193.448 158 193.037 158 192.568C158 191.853 157.76 191.304 157.28 190.92C156.8 190.536 156.218 190.344 155.536 190.344C154.874 190.344 154.325 190.483 153.888 190.76C153.45 191.037 152.944 191.517 152.368 192.2C152.293 192.296 152.202 192.344 152.096 192.344C152.042 192.344 151.978 192.317 151.904 192.264L151.632 192.056C151.536 191.971 151.488 191.885 151.488 191.8C151.488 191.747 151.514 191.683 151.568 191.608C152.133 190.893 152.72 190.349 153.328 189.976C153.946 189.603 154.672 189.416 155.504 189.416C156.197 189.416 156.816 189.549 157.36 189.816C157.904 190.072 158.325 190.44 158.624 190.92C158.933 191.389 159.088 191.923 159.088 192.52C159.088 193.149 158.954 193.693 158.688 194.152C158.432 194.6 158.106 194.973 157.712 195.272C157.317 195.56 156.784 195.901 156.112 196.296L155.312 196.776C154.64 197.192 154.128 197.533 153.776 197.8C153.424 198.056 153.13 198.371 152.896 198.744C152.661 199.107 152.522 199.549 152.48 200.072H158.832Z" fill="#464646"/>
</g>
<rect x="70.5" y="172.5" width="112" height="47" rx="3.5" stroke="#C3CCD9"/>
<defs>
<clipPath id="clip0_899_38198">
<rect width="187" height="22" fill="white" transform="translate(78 75)"/>
</clipPath>
<clipPath id="clip1_899_38198">
<rect width="97" height="22" fill="white" transform="translate(78 185)"/>
</clipPath>
</defs>
</svg>
