<svg width="344" height="168" viewBox="0 0 344 168" fill="none" xmlns="http://www.w3.org/2000/svg">
<path d="M71.568 63C71.4187 63 71.2973 62.958 71.204 62.874C71.12 62.7807 71.078 62.6593 71.078 62.51V53.55C71.078 53.3913 71.12 53.27 71.204 53.186C71.2973 53.102 71.4187 53.06 71.568 53.06H77.378C77.5367 53.06 77.658 53.102 77.742 53.186C77.826 53.27 77.868 53.3913 77.868 53.55V53.914C77.868 54.0633 77.826 54.1847 77.742 54.278C77.658 54.362 77.5367 54.404 77.378 54.404H72.674V57.204H77.028C77.1867 57.204 77.308 57.246 77.392 57.33C77.476 57.414 77.518 57.5353 77.518 57.694V58.058C77.518 58.2073 77.476 58.3287 77.392 58.422C77.308 58.506 77.1867 58.548 77.028 58.548H72.674V61.656H77.518C77.6767 61.656 77.798 61.698 77.882 61.782C77.966 61.866 78.008 61.9873 78.008 62.146V62.51C78.008 62.6593 77.966 62.7807 77.882 62.874C77.798 62.958 77.6767 63 77.518 63H71.568ZM86.9143 55.888C87.6516 55.888 88.221 56.098 88.6223 56.518C89.0236 56.9287 89.2243 57.484 89.2243 58.184V62.51C89.2243 62.6593 89.1823 62.7807 89.0983 62.874C89.0143 62.958 88.893 63 88.7343 63H88.2303C88.081 63 87.9596 62.958 87.8663 62.874C87.7823 62.7807 87.7403 62.6593 87.7403 62.51V58.632C87.7403 58.1747 87.6376 57.8153 87.4323 57.554C87.227 57.2927 86.9143 57.162 86.4943 57.162C86.065 57.162 85.7243 57.3067 85.4723 57.596C85.2296 57.8853 85.1083 58.2587 85.1083 58.716V62.51C85.1083 62.6593 85.0663 62.7807 84.9823 62.874C84.8983 62.958 84.777 63 84.6183 63H84.1143C83.965 63 83.8436 62.958 83.7503 62.874C83.6663 62.7807 83.6243 62.6593 83.6243 62.51V58.632C83.6243 58.1747 83.5216 57.8153 83.3163 57.554C83.1203 57.2927 82.8123 57.162 82.3923 57.162C81.9816 57.162 81.6503 57.2973 81.3983 57.568C81.1463 57.8387 81.011 58.1887 80.9923 58.618V62.51C80.9923 62.6593 80.9503 62.7807 80.8663 62.874C80.7823 62.958 80.661 63 80.5023 63H79.9983C79.849 63 79.7276 62.958 79.6343 62.874C79.5503 62.7807 79.5083 62.6593 79.5083 62.51V56.588C79.5083 56.4293 79.5503 56.308 79.6343 56.224C79.7276 56.14 79.849 56.098 79.9983 56.098H80.4043C80.563 56.098 80.6843 56.14 80.7683 56.224C80.8523 56.308 80.8943 56.4293 80.8943 56.588V56.896C81.3236 56.224 81.9863 55.888 82.8823 55.888C83.3303 55.888 83.7223 55.9813 84.0583 56.168C84.3943 56.3547 84.651 56.616 84.8283 56.952C85.3043 56.2427 85.9996 55.888 86.9143 55.888ZM93.8363 55.888C94.7696 55.888 95.4883 56.1073 95.9923 56.546C96.4963 56.9753 96.7483 57.5493 96.7483 58.268V62.51C96.7483 62.6593 96.7063 62.7807 96.6223 62.874C96.5383 62.958 96.417 63 96.2583 63H95.8943C95.745 63 95.6236 62.958 95.5303 62.874C95.4463 62.7807 95.4043 62.6593 95.4043 62.51V62.202C95.1803 62.5287 94.8723 62.7807 94.4803 62.958C94.0883 63.1353 93.631 63.224 93.1083 63.224C92.3896 63.224 91.797 63.0653 91.3303 62.748C90.873 62.4213 90.6443 61.9313 90.6443 61.278C90.6443 60.55 90.915 60.0133 91.4563 59.668C92.007 59.3133 92.7676 59.0473 93.7383 58.87L95.3203 58.576V58.324C95.3203 57.9413 95.185 57.6473 94.9143 57.442C94.653 57.2273 94.303 57.12 93.8643 57.12C93.491 57.12 93.1643 57.1853 92.8843 57.316C92.6136 57.4373 92.3196 57.6427 92.0023 57.932C91.881 58.0347 91.7643 58.086 91.6523 58.086C91.5403 58.086 91.4236 58.0347 91.3023 57.932L91.0783 57.736C90.957 57.624 90.8963 57.5027 90.8963 57.372C90.8963 57.2507 90.9523 57.134 91.0643 57.022C91.4656 56.6393 91.8903 56.3547 92.3383 56.168C92.7863 55.9813 93.2856 55.888 93.8363 55.888ZM93.3183 62.034C93.8783 62.034 94.3496 61.8847 94.7323 61.586C95.1243 61.2873 95.3203 60.858 95.3203 60.298V59.654L94.1023 59.906C93.421 60.046 92.917 60.2047 92.5903 60.382C92.2636 60.5593 92.1003 60.83 92.1003 61.194C92.1003 61.4553 92.2076 61.6607 92.4223 61.81C92.637 61.9593 92.9356 62.034 93.3183 62.034ZM99.1998 54.754C98.9292 54.754 98.7005 54.6653 98.5138 54.488C98.3272 54.3013 98.2338 54.082 98.2338 53.83C98.2338 53.5687 98.3272 53.3493 98.5138 53.172C98.7005 52.9947 98.9292 52.906 99.1998 52.906C99.4705 52.906 99.6992 52.9947 99.8858 53.172C100.073 53.3493 100.166 53.5687 100.166 53.83C100.166 54.082 100.073 54.3013 99.8858 54.488C99.6992 54.6653 99.4705 54.754 99.1998 54.754ZM98.9338 63C98.7845 63 98.6632 62.958 98.5698 62.874C98.4858 62.7807 98.4438 62.6593 98.4438 62.51V56.588C98.4438 56.4293 98.4858 56.308 98.5698 56.224C98.6632 56.14 98.7845 56.098 98.9338 56.098H99.4378C99.5965 56.098 99.7178 56.14 99.8018 56.224C99.8858 56.308 99.9278 56.4293 99.9278 56.588V62.51C99.9278 62.6593 99.8858 62.7807 99.8018 62.874C99.7178 62.958 99.5965 63 99.4378 63H98.9338ZM102.189 63C102.04 63 101.918 62.958 101.825 62.874C101.741 62.7807 101.699 62.6593 101.699 62.51V53.55C101.699 53.3913 101.741 53.27 101.825 53.186C101.918 53.102 102.04 53.06 102.189 53.06H102.693C102.852 53.06 102.973 53.102 103.057 53.186C103.141 53.27 103.183 53.3913 103.183 53.55V62.51C103.183 62.6593 103.141 62.7807 103.057 62.874C102.973 62.958 102.852 63 102.693 63H102.189Z" fill="#464646"/>
<rect x="70.5" y="71.5" width="202" height="47" rx="3.5" fill="#ECECEC"/>
<g clip-path="url(#clip0_899_47767)">
<path d="M82.96 91.936C83.6213 91.936 84.2133 92.112 84.736 92.464C85.2693 92.8053 85.6853 93.2907 85.984 93.92C86.2827 94.5387 86.432 95.248 86.432 96.048C86.432 96.8587 86.2827 97.5787 85.984 98.208C85.6853 98.8373 85.2747 99.328 84.752 99.68C84.2293 100.021 83.632 100.192 82.96 100.192C81.7227 100.192 80.816 99.7387 80.24 98.832V102.624C80.24 102.837 80.1333 102.944 79.92 102.944H79.504C79.2907 102.944 79.184 102.837 79.184 102.624V92.432C79.184 92.2187 79.2907 92.112 79.504 92.112H79.856C80.0693 92.112 80.176 92.2187 80.176 92.432V93.44C80.464 92.9493 80.8427 92.576 81.312 92.32C81.7813 92.064 82.3307 91.936 82.96 91.936ZM82.88 99.296C83.6267 99.296 84.224 98.9973 84.672 98.4C85.12 97.8027 85.344 97.0187 85.344 96.048C85.344 95.088 85.12 94.3147 84.672 93.728C84.224 93.1307 83.6267 92.832 82.88 92.832C82.08 92.832 81.4293 93.12 80.928 93.696C80.4373 94.2613 80.192 95.0453 80.192 96.048C80.192 97.0507 80.4427 97.8453 80.944 98.432C81.4453 99.008 82.0907 99.296 82.88 99.296ZM93.429 92.432C93.429 92.2187 93.5357 92.112 93.749 92.112H94.165C94.3783 92.112 94.485 92.2187 94.485 92.432V99.68C94.485 99.8933 94.3783 100 94.165 100H93.829C93.6157 100 93.509 99.8933 93.509 99.68V98.96C93.2743 99.376 92.9383 99.6907 92.501 99.904C92.0743 100.107 91.605 100.208 91.093 100.208C90.133 100.208 89.4237 99.968 88.965 99.488C88.5063 98.9973 88.277 98.368 88.277 97.6V92.432C88.277 92.2187 88.3837 92.112 88.597 92.112H89.013C89.2263 92.112 89.333 92.2187 89.333 92.432V97.376C89.333 98.0053 89.4877 98.4853 89.797 98.816C90.117 99.136 90.5703 99.296 91.157 99.296C91.8183 99.296 92.3623 99.0933 92.789 98.688C93.2157 98.2827 93.429 97.7067 93.429 96.96V92.432ZM99.6079 100.208C98.9572 100.208 98.3812 100.117 97.8799 99.936C97.3892 99.744 96.8719 99.424 96.3279 98.976C96.2319 98.912 96.1839 98.8373 96.1839 98.752C96.1839 98.6773 96.2212 98.6027 96.2959 98.528L96.5039 98.304C96.5679 98.2187 96.6479 98.176 96.7439 98.176C96.8185 98.176 96.8879 98.208 96.9519 98.272C97.4639 98.6667 97.9172 98.944 98.3119 99.104C98.7065 99.2533 99.1385 99.328 99.6079 99.328C100.195 99.328 100.675 99.2 101.048 98.944C101.421 98.6773 101.608 98.32 101.608 97.872C101.608 97.424 101.416 97.0933 101.032 96.88C100.648 96.6667 100.056 96.4747 99.2559 96.304C98.5519 96.1547 97.9972 96 97.5919 95.84C97.1972 95.6693 96.9039 95.456 96.7119 95.2C96.5199 94.944 96.4239 94.608 96.4239 94.192C96.4239 93.5093 96.7012 92.96 97.2559 92.544C97.8105 92.128 98.5092 91.92 99.3519 91.92C99.9279 91.92 100.44 91.9947 100.888 92.144C101.347 92.2827 101.805 92.5173 102.264 92.848C102.36 92.9227 102.408 93.0027 102.408 93.088C102.408 93.1413 102.381 93.2107 102.328 93.296L102.136 93.536C102.083 93.6213 102.008 93.664 101.912 93.664C101.827 93.664 101.752 93.6373 101.688 93.584C101.251 93.2747 100.861 93.0667 100.52 92.96C100.189 92.8533 99.8105 92.8 99.3839 92.8C98.7972 92.8 98.3279 92.928 97.9759 93.184C97.6239 93.44 97.4479 93.7653 97.4479 94.16C97.4479 94.4053 97.5279 94.6027 97.6879 94.752C97.8479 94.9013 98.0772 95.0293 98.3759 95.136C98.6745 95.232 99.1119 95.344 99.6879 95.472C100.755 95.7067 101.512 95.9947 101.96 96.336C102.419 96.6773 102.648 97.1733 102.648 97.824C102.648 98.5387 102.365 99.1147 101.8 99.552C101.235 99.9893 100.504 100.208 99.6079 100.208ZM110.178 98.128C110.253 98.0533 110.333 98.016 110.418 98.016C110.493 98.016 110.562 98.048 110.626 98.112L110.834 98.304C110.909 98.3787 110.946 98.4587 110.946 98.544C110.946 98.608 110.914 98.6827 110.85 98.768C110.327 99.2907 109.821 99.664 109.33 99.888C108.839 100.101 108.29 100.208 107.682 100.208C106.914 100.208 106.247 100.037 105.682 99.696C105.117 99.3547 104.679 98.88 104.37 98.272C104.061 97.6533 103.906 96.9387 103.906 96.128C103.906 95.3067 104.055 94.5813 104.354 93.952C104.663 93.312 105.095 92.816 105.65 92.464C106.205 92.1013 106.845 91.92 107.57 91.92C108.647 91.92 109.495 92.256 110.114 92.928C110.733 93.6 111.042 94.5067 111.042 95.648V95.84C111.031 95.936 110.994 96.0107 110.93 96.064C110.877 96.1173 110.802 96.144 110.706 96.144H104.978C105.01 97.04 105.245 97.7973 105.682 98.416C106.13 99.024 106.797 99.328 107.682 99.328C108.162 99.328 108.583 99.2427 108.946 99.072C109.319 98.8907 109.73 98.576 110.178 98.128ZM107.57 92.8C106.866 92.8 106.285 93.0187 105.826 93.456C105.378 93.8827 105.106 94.512 105.01 95.344H109.986C109.965 94.5653 109.741 93.9467 109.314 93.488C108.887 93.0293 108.306 92.8 107.57 92.8ZM115.926 89.328C115.446 89.328 115.105 89.456 114.902 89.712C114.7 89.9573 114.598 90.3733 114.598 90.96V92.112H116.358C116.572 92.112 116.678 92.2187 116.678 92.432V92.592C116.678 92.8053 116.572 92.912 116.358 92.912H114.598V99.68C114.598 99.8933 114.492 100 114.278 100H113.862C113.649 100 113.542 99.8933 113.542 99.68V92.912H112.358C112.145 92.912 112.038 92.8053 112.038 92.592V92.432C112.038 92.2187 112.145 92.112 112.358 92.112H113.542V90.784C113.542 90.048 113.734 89.472 114.118 89.056C114.513 88.64 115.073 88.432 115.798 88.432C116.204 88.432 116.62 88.4907 117.046 88.608C117.249 88.672 117.324 88.8053 117.27 89.008L117.206 89.232C117.153 89.3813 117.046 89.456 116.886 89.456C116.854 89.456 116.785 89.4453 116.678 89.424C116.444 89.36 116.193 89.328 115.926 89.328ZM118.759 90.112C118.546 90.112 118.364 90.0373 118.215 89.888C118.076 89.7387 118.007 89.5573 118.007 89.344C118.007 89.1307 118.076 88.9547 118.215 88.816C118.364 88.6773 118.546 88.608 118.759 88.608C118.983 88.608 119.164 88.6773 119.303 88.816C119.452 88.9547 119.527 89.1307 119.527 89.344C119.527 89.5573 119.452 89.7387 119.303 89.888C119.164 90.0373 118.983 90.112 118.759 90.112ZM118.551 100C118.338 100 118.231 99.8933 118.231 99.68V92.432C118.231 92.2187 118.338 92.112 118.551 92.112H118.967C119.18 92.112 119.287 92.2187 119.287 92.432V99.68C119.287 99.8933 119.18 100 118.967 100H118.551ZM125.157 91.92C126.085 91.92 126.784 92.176 127.253 92.688C127.733 93.2 127.973 93.84 127.973 94.608V99.68C127.973 99.8933 127.866 100 127.653 100H127.237C127.024 100 126.917 99.8933 126.917 99.68V94.96C126.917 94.256 126.746 93.7227 126.405 93.36C126.064 92.9973 125.573 92.816 124.933 92.816C124.528 92.816 124.154 92.9173 123.813 93.12C123.472 93.312 123.2 93.5787 122.997 93.92C122.794 94.2613 122.693 94.6347 122.693 95.04V99.68C122.693 99.8933 122.586 100 122.373 100H121.957C121.744 100 121.637 99.8933 121.637 99.68V92.432C121.637 92.2187 121.744 92.112 121.957 92.112H122.309C122.522 92.112 122.629 92.2187 122.629 92.432V93.2C122.896 92.7733 123.248 92.4533 123.685 92.24C124.122 92.0267 124.613 91.92 125.157 91.92ZM133.829 91.92C134.757 91.92 135.456 92.176 135.925 92.688C136.405 93.2 136.645 93.84 136.645 94.608V99.68C136.645 99.8933 136.538 100 136.325 100H135.909C135.696 100 135.589 99.8933 135.589 99.68V94.96C135.589 94.256 135.418 93.7227 135.077 93.36C134.736 92.9973 134.245 92.816 133.605 92.816C133.2 92.816 132.826 92.9173 132.485 93.12C132.144 93.312 131.872 93.5787 131.669 93.92C131.466 94.2613 131.365 94.6347 131.365 95.04V99.68C131.365 99.8933 131.258 100 131.045 100H130.629C130.416 100 130.309 99.8933 130.309 99.68V92.432C130.309 92.2187 130.416 92.112 130.629 92.112H130.981C131.194 92.112 131.301 92.2187 131.301 92.432V93.2C131.568 92.7733 131.92 92.4533 132.357 92.24C132.794 92.0267 133.285 91.92 133.829 91.92ZM148.341 92.8C148.448 92.8 148.522 92.832 148.565 92.896C148.618 92.96 148.634 93.0453 148.613 93.152L147.813 96.976C147.738 97.296 147.701 97.5733 147.701 97.808C147.701 98.6293 148.106 99.04 148.917 99.04C149.312 99.04 149.674 98.9067 150.005 98.64C150.336 98.3627 150.597 97.968 150.789 97.456C150.981 96.944 151.077 96.3413 151.077 95.648C151.077 94.4533 150.821 93.44 150.309 92.608C149.797 91.7653 149.114 91.1307 148.261 90.704C147.418 90.2773 146.485 90.064 145.461 90.064C144.288 90.064 143.248 90.3413 142.341 90.896C141.434 91.44 140.73 92.192 140.229 93.152C139.728 94.1013 139.477 95.1627 139.477 96.336C139.477 97.4773 139.717 98.5013 140.197 99.408C140.677 100.304 141.386 101.008 142.325 101.52C143.264 102.043 144.394 102.304 145.717 102.304H148.805C149.018 102.304 149.125 102.411 149.125 102.624V102.72C149.125 102.933 149.018 103.04 148.805 103.04H145.477C144.069 103.04 142.842 102.752 141.797 102.176C140.762 101.611 139.968 100.821 139.413 99.808C138.869 98.784 138.597 97.616 138.597 96.304C138.597 94.9707 138.874 93.776 139.429 92.72C139.984 91.6533 140.778 90.8213 141.813 90.224C142.848 89.616 144.048 89.312 145.413 89.312C146.682 89.312 147.813 89.5733 148.805 90.096C149.797 90.608 150.57 91.3387 151.125 92.288C151.68 93.2373 151.957 94.3413 151.957 95.6C151.957 96.4427 151.824 97.1787 151.557 97.808C151.29 98.4373 150.922 98.928 150.453 99.28C149.984 99.6213 149.45 99.792 148.853 99.792C148.17 99.792 147.674 99.6267 147.365 99.296C147.066 98.9547 146.901 98.5707 146.869 98.144C146.528 98.6773 146.133 99.088 145.685 99.376C145.237 99.6533 144.704 99.792 144.085 99.792C143.381 99.792 142.826 99.584 142.421 99.168C142.016 98.7413 141.813 98.1493 141.813 97.392C141.813 96.6453 141.968 95.9093 142.277 95.184C142.597 94.448 143.045 93.8453 143.621 93.376C144.197 92.9067 144.853 92.672 145.589 92.672C146.144 92.672 146.586 92.7947 146.917 93.04C147.258 93.2747 147.472 93.5947 147.557 94L147.733 93.088C147.765 92.896 147.882 92.8 148.085 92.8H148.341ZM144.213 98.976C144.842 98.976 145.37 98.7573 145.797 98.32C146.234 97.872 146.56 97.344 146.773 96.736C146.986 96.1173 147.093 95.568 147.093 95.088C147.093 94.544 146.981 94.1387 146.757 93.872C146.533 93.5947 146.154 93.456 145.621 93.456C145.077 93.456 144.586 93.648 144.149 94.032C143.722 94.416 143.386 94.9067 143.141 95.504C142.906 96.1013 142.789 96.6987 142.789 97.296C142.789 97.8613 142.912 98.2827 143.157 98.56C143.413 98.8373 143.765 98.976 144.213 98.976ZM156.942 89.328C156.462 89.328 156.121 89.456 155.918 89.712C155.715 89.9573 155.614 90.3733 155.614 90.96V92.112H157.374C157.587 92.112 157.694 92.2187 157.694 92.432V92.592C157.694 92.8053 157.587 92.912 157.374 92.912H155.614V99.68C155.614 99.8933 155.507 100 155.294 100H154.878C154.665 100 154.558 99.8933 154.558 99.68V92.912H153.374C153.161 92.912 153.054 92.8053 153.054 92.592V92.432C153.054 92.2187 153.161 92.112 153.374 92.112H154.558V90.784C154.558 90.048 154.75 89.472 155.134 89.056C155.529 88.64 156.089 88.432 156.814 88.432C157.219 88.432 157.635 88.4907 158.062 88.608C158.265 88.672 158.339 88.8053 158.286 89.008L158.222 89.232C158.169 89.3813 158.062 89.456 157.902 89.456C157.87 89.456 157.801 89.4453 157.694 89.424C157.459 89.36 157.209 89.328 156.942 89.328ZM159.775 90.112C159.561 90.112 159.38 90.0373 159.231 89.888C159.092 89.7387 159.023 89.5573 159.023 89.344C159.023 89.1307 159.092 88.9547 159.231 88.816C159.38 88.6773 159.561 88.608 159.775 88.608C159.999 88.608 160.18 88.6773 160.319 88.816C160.468 88.9547 160.543 89.1307 160.543 89.344C160.543 89.5573 160.468 89.7387 160.319 89.888C160.18 90.0373 159.999 90.112 159.775 90.112ZM159.567 100C159.353 100 159.247 99.8933 159.247 99.68V92.432C159.247 92.2187 159.353 92.112 159.567 92.112H159.983C160.196 92.112 160.303 92.2187 160.303 92.432V99.68C160.303 99.8933 160.196 100 159.983 100H159.567ZM166.173 91.92C167.101 91.92 167.799 92.176 168.269 92.688C168.749 93.2 168.989 93.84 168.989 94.608V99.68C168.989 99.8933 168.882 100 168.669 100H168.253C168.039 100 167.933 99.8933 167.933 99.68V94.96C167.933 94.256 167.762 93.7227 167.421 93.36C167.079 92.9973 166.589 92.816 165.949 92.816C165.543 92.816 165.17 92.9173 164.829 93.12C164.487 93.312 164.215 93.5787 164.013 93.92C163.81 94.2613 163.709 94.6347 163.709 95.04V99.68C163.709 99.8933 163.602 100 163.389 100H162.973C162.759 100 162.653 99.8933 162.653 99.68V92.432C162.653 92.2187 162.759 92.112 162.973 92.112H163.325C163.538 92.112 163.645 92.2187 163.645 92.432V93.2C163.911 92.7733 164.263 92.4533 164.701 92.24C165.138 92.0267 165.629 91.92 166.173 91.92ZM174.845 91.92C175.773 91.92 176.471 92.176 176.941 92.688C177.421 93.2 177.661 93.84 177.661 94.608V99.68C177.661 99.8933 177.554 100 177.341 100H176.925C176.711 100 176.605 99.8933 176.605 99.68V94.96C176.605 94.256 176.434 93.7227 176.093 93.36C175.751 92.9973 175.261 92.816 174.621 92.816C174.215 92.816 173.842 92.9173 173.501 93.12C173.159 93.312 172.887 93.5787 172.685 93.92C172.482 94.2613 172.381 94.6347 172.381 95.04V99.68C172.381 99.8933 172.274 100 172.061 100H171.645C171.431 100 171.325 99.8933 171.325 99.68V92.432C171.325 92.2187 171.431 92.112 171.645 92.112H171.997C172.21 92.112 172.317 92.2187 172.317 92.432V93.2C172.583 92.7733 172.935 92.4533 173.373 92.24C173.81 92.0267 174.301 91.92 174.845 91.92ZM180.429 100.112C180.205 100.112 180.013 100.032 179.853 99.872C179.693 99.712 179.613 99.52 179.613 99.296C179.613 99.072 179.693 98.88 179.853 98.72C180.013 98.56 180.205 98.48 180.429 98.48C180.653 98.48 180.845 98.56 181.005 98.72C181.165 98.88 181.245 99.072 181.245 99.296C181.245 99.52 181.165 99.712 181.005 99.872C180.845 100.032 180.653 100.112 180.429 100.112ZM186.751 91.92C187.679 91.92 188.378 92.176 188.847 92.688C189.327 93.2 189.567 93.84 189.567 94.608V99.68C189.567 99.8933 189.46 100 189.247 100H188.831C188.618 100 188.511 99.8933 188.511 99.68V94.96C188.511 94.256 188.34 93.7227 187.999 93.36C187.658 92.9973 187.167 92.816 186.527 92.816C186.122 92.816 185.748 92.9173 185.407 93.12C185.066 93.312 184.794 93.5787 184.591 93.92C184.388 94.2613 184.287 94.6347 184.287 95.04V99.68C184.287 99.8933 184.18 100 183.967 100H183.551C183.338 100 183.231 99.8933 183.231 99.68V92.432C183.231 92.2187 183.338 92.112 183.551 92.112H183.903C184.116 92.112 184.223 92.2187 184.223 92.432V93.2C184.49 92.7733 184.842 92.4533 185.279 92.24C185.716 92.0267 186.207 91.92 186.751 91.92ZM195.167 100.208C194.431 100.208 193.775 100.032 193.199 99.68C192.623 99.328 192.175 98.8427 191.855 98.224C191.535 97.5947 191.375 96.8747 191.375 96.064C191.375 95.2533 191.535 94.5387 191.855 93.92C192.175 93.2907 192.623 92.8 193.199 92.448C193.775 92.096 194.431 91.92 195.167 91.92C195.903 91.92 196.559 92.096 197.135 92.448C197.711 92.8 198.159 93.2907 198.479 93.92C198.799 94.5387 198.959 95.2533 198.959 96.064C198.959 96.8747 198.799 97.5947 198.479 98.224C198.159 98.8427 197.711 99.328 197.135 99.68C196.559 100.032 195.903 100.208 195.167 100.208ZM195.167 99.328C195.988 99.328 196.644 99.0293 197.135 98.432C197.625 97.824 197.871 97.0347 197.871 96.064C197.871 95.0933 197.625 94.3093 197.135 93.712C196.644 93.104 195.988 92.8 195.167 92.8C194.345 92.8 193.689 93.104 193.199 93.712C192.708 94.3093 192.463 95.0933 192.463 96.064C192.463 97.0347 192.708 97.824 193.199 98.432C193.689 99.0293 194.345 99.328 195.167 99.328Z" fill="#C3CCD9"/>
</g>
<rect x="70.5" y="71.5" width="202" height="47" rx="3.5" stroke="#C3CCD9"/>
<defs>
<clipPath id="clip0_899_47767">
<rect width="187" height="22" fill="white" transform="translate(78 84)"/>
</clipPath>
</defs>
</svg>
