<svg width="344" height="280" viewBox="0 0 344 280" fill="none" xmlns="http://www.w3.org/2000/svg">
<path d="M72.568 54C72.4187 54 72.2973 53.958 72.204 53.874C72.12 53.7807 72.078 53.6593 72.078 53.51V44.55C72.078 44.3913 72.12 44.27 72.204 44.186C72.2973 44.102 72.4187 44.06 72.568 44.06H76.586C77.5753 44.06 78.364 44.3353 78.952 44.886C79.54 45.4273 79.834 46.1693 79.834 47.112C79.834 48.0547 79.54 48.7967 78.952 49.338C78.364 49.8793 77.5753 50.15 76.586 50.15H73.674V53.51C73.674 53.6593 73.632 53.7807 73.548 53.874C73.464 53.958 73.3427 54 73.184 54H72.568ZM76.334 48.82C76.9313 48.82 77.398 48.6753 77.734 48.386C78.0793 48.0873 78.252 47.6627 78.252 47.112C78.252 46.552 78.0793 46.1273 77.734 45.838C77.398 45.5393 76.9313 45.39 76.334 45.39H73.674V48.82H76.334ZM83.8851 46.888C84.8185 46.888 85.5371 47.1073 86.0411 47.546C86.5451 47.9753 86.7971 48.5493 86.7971 49.268V53.51C86.7971 53.6593 86.7551 53.7807 86.6711 53.874C86.5871 53.958 86.4658 54 86.3071 54H85.9431C85.7938 54 85.6725 53.958 85.5791 53.874C85.4951 53.7807 85.4531 53.6593 85.4531 53.51V53.202C85.2291 53.5287 84.9211 53.7807 84.5291 53.958C84.1371 54.1353 83.6798 54.224 83.1571 54.224C82.4385 54.224 81.8458 54.0653 81.3791 53.748C80.9218 53.4213 80.6931 52.9313 80.6931 52.278C80.6931 51.55 80.9638 51.0133 81.5051 50.668C82.0558 50.3133 82.8165 50.0473 83.7871 49.87L85.3691 49.576V49.324C85.3691 48.9413 85.2338 48.6473 84.9631 48.442C84.7018 48.2273 84.3518 48.12 83.9131 48.12C83.5398 48.12 83.2131 48.1853 82.9331 48.316C82.6625 48.4373 82.3685 48.6427 82.0511 48.932C81.9298 49.0347 81.8131 49.086 81.7011 49.086C81.5891 49.086 81.4725 49.0347 81.3511 48.932L81.1271 48.736C81.0058 48.624 80.9451 48.5027 80.9451 48.372C80.9451 48.2507 81.0011 48.134 81.1131 48.022C81.5145 47.6393 81.9391 47.3547 82.3871 47.168C82.8351 46.9813 83.3345 46.888 83.8851 46.888ZM83.3671 53.034C83.9271 53.034 84.3985 52.8847 84.7811 52.586C85.1731 52.2873 85.3691 51.858 85.3691 51.298V50.654L84.1511 50.906C83.4698 51.046 82.9658 51.2047 82.6391 51.382C82.3125 51.5593 82.1491 51.83 82.1491 52.194C82.1491 52.4553 82.2565 52.6607 82.4711 52.81C82.6858 52.9593 82.9845 53.034 83.3671 53.034ZM91.1527 54.21C90.5833 54.21 90.0747 54.14 89.6267 54C89.188 53.8507 88.74 53.594 88.2827 53.23C88.1427 53.1273 88.0727 53.0107 88.0727 52.88C88.0727 52.7773 88.124 52.6653 88.2267 52.544L88.4367 52.306C88.5487 52.1753 88.67 52.11 88.8007 52.11C88.9033 52.11 89.0153 52.1567 89.1367 52.25C89.5287 52.5393 89.874 52.74 90.1727 52.852C90.4713 52.9547 90.8073 53.006 91.1807 53.006C91.582 53.006 91.9087 52.9267 92.1607 52.768C92.422 52.6 92.5527 52.376 92.5527 52.096C92.5527 51.8813 92.478 51.7133 92.3287 51.592C92.1887 51.4613 92.002 51.3633 91.7687 51.298C91.5353 51.2233 91.19 51.1393 90.7327 51.046C90.0887 50.906 89.5847 50.7567 89.2207 50.598C88.866 50.43 88.6093 50.22 88.4507 49.968C88.292 49.716 88.2127 49.394 88.2127 49.002C88.2127 48.6007 88.3247 48.2413 88.5487 47.924C88.782 47.6067 89.104 47.3547 89.5147 47.168C89.9347 46.9813 90.4247 46.888 90.9847 46.888C91.4887 46.888 91.9367 46.944 92.3287 47.056C92.73 47.168 93.122 47.3593 93.5047 47.63C93.654 47.742 93.7287 47.868 93.7287 48.008C93.7287 48.1013 93.682 48.2087 93.5887 48.33L93.4067 48.554C93.304 48.6847 93.178 48.75 93.0287 48.75C92.9167 48.75 92.8093 48.7127 92.7067 48.638C92.3987 48.4327 92.114 48.2927 91.8527 48.218C91.5913 48.134 91.2973 48.092 90.9707 48.092C90.5693 48.092 90.2473 48.1713 90.0047 48.33C89.762 48.4887 89.6407 48.694 89.6407 48.946C89.6407 49.114 89.6967 49.2493 89.8087 49.352C89.93 49.4453 90.098 49.5293 90.3127 49.604C90.5367 49.6693 90.8867 49.7533 91.3627 49.856C92.0067 49.996 92.5153 50.1547 92.8887 50.332C93.2713 50.5 93.5513 50.7193 93.7287 50.99C93.9153 51.2513 94.0087 51.592 94.0087 52.012C94.0087 52.6653 93.7473 53.1973 93.2247 53.608C92.7113 54.0093 92.0207 54.21 91.1527 54.21ZM97.9476 54.21C97.3783 54.21 96.8696 54.14 96.4216 54C95.9829 53.8507 95.5349 53.594 95.0776 53.23C94.9376 53.1273 94.8676 53.0107 94.8676 52.88C94.8676 52.7773 94.9189 52.6653 95.0216 52.544L95.2316 52.306C95.3436 52.1753 95.4649 52.11 95.5956 52.11C95.6983 52.11 95.8103 52.1567 95.9316 52.25C96.3236 52.5393 96.6689 52.74 96.9676 52.852C97.2663 52.9547 97.6023 53.006 97.9756 53.006C98.3769 53.006 98.7036 52.9267 98.9556 52.768C99.2169 52.6 99.3476 52.376 99.3476 52.096C99.3476 51.8813 99.2729 51.7133 99.1236 51.592C98.9836 51.4613 98.7969 51.3633 98.5636 51.298C98.3303 51.2233 97.9849 51.1393 97.5276 51.046C96.8836 50.906 96.3796 50.7567 96.0156 50.598C95.6609 50.43 95.4043 50.22 95.2456 49.968C95.0869 49.716 95.0076 49.394 95.0076 49.002C95.0076 48.6007 95.1196 48.2413 95.3436 47.924C95.5769 47.6067 95.8989 47.3547 96.3096 47.168C96.7296 46.9813 97.2196 46.888 97.7796 46.888C98.2836 46.888 98.7316 46.944 99.1236 47.056C99.5249 47.168 99.9169 47.3593 100.3 47.63C100.449 47.742 100.524 47.868 100.524 48.008C100.524 48.1013 100.477 48.2087 100.384 48.33L100.202 48.554C100.099 48.6847 99.9729 48.75 99.8236 48.75C99.7116 48.75 99.6043 48.7127 99.5016 48.638C99.1936 48.4327 98.9089 48.2927 98.6476 48.218C98.3863 48.134 98.0923 48.092 97.7656 48.092C97.3643 48.092 97.0423 48.1713 96.7996 48.33C96.5569 48.4887 96.4356 48.694 96.4356 48.946C96.4356 49.114 96.4916 49.2493 96.6036 49.352C96.7249 49.4453 96.8929 49.5293 97.1076 49.604C97.3316 49.6693 97.6816 49.7533 98.1576 49.856C98.8016 49.996 99.3103 50.1547 99.6836 50.332C100.066 50.5 100.346 50.7193 100.524 50.99C100.71 51.2513 100.804 51.592 100.804 52.012C100.804 52.6653 100.542 53.1973 100.02 53.608C99.5063 54.0093 98.8156 54.21 97.9476 54.21ZM109.825 47.518C109.891 47.238 110.073 47.098 110.371 47.098H110.889C111.029 47.098 111.137 47.1307 111.211 47.196C111.295 47.252 111.337 47.3407 111.337 47.462C111.337 47.49 111.328 47.5507 111.309 47.644L109.643 53.58C109.578 53.86 109.396 54 109.097 54H108.187C107.907 54 107.725 53.86 107.641 53.58L107.179 51.956C106.974 51.2373 106.745 50.3367 106.493 49.254L106.423 48.946C106.171 50.0847 105.929 51.0927 105.695 51.97L105.261 53.58C105.196 53.86 105.014 54 104.715 54H103.819C103.539 54 103.357 53.86 103.273 53.58L101.593 47.644C101.575 47.5507 101.565 47.49 101.565 47.462C101.565 47.3407 101.603 47.252 101.677 47.196C101.761 47.1307 101.873 47.098 102.013 47.098H102.559C102.858 47.098 103.04 47.238 103.105 47.518L103.609 49.506C103.805 50.234 104.034 51.2047 104.295 52.418L104.351 52.698C104.622 51.4473 104.874 50.3833 105.107 49.506L105.639 47.518C105.705 47.238 105.887 47.098 106.185 47.098H106.717C107.016 47.098 107.198 47.238 107.263 47.518L107.809 49.506C108.071 50.4767 108.332 51.5407 108.593 52.698C108.789 51.6993 109.032 50.6353 109.321 49.506L109.825 47.518ZM115.581 54.21C114.9 54.21 114.293 54.056 113.761 53.748C113.238 53.44 112.828 53.0107 112.529 52.46C112.23 51.9 112.081 51.2607 112.081 50.542C112.081 49.8233 112.23 49.1887 112.529 48.638C112.828 48.0873 113.238 47.658 113.761 47.35C114.293 47.042 114.9 46.888 115.581 46.888C116.253 46.888 116.855 47.042 117.387 47.35C117.919 47.658 118.334 48.092 118.633 48.652C118.932 49.2027 119.081 49.8327 119.081 50.542C119.081 51.2607 118.932 51.9 118.633 52.46C118.334 53.0107 117.919 53.44 117.387 53.748C116.855 54.056 116.253 54.21 115.581 54.21ZM115.581 52.964C116.178 52.964 116.659 52.7447 117.023 52.306C117.387 51.858 117.569 51.27 117.569 50.542C117.569 49.8233 117.387 49.2447 117.023 48.806C116.659 48.3673 116.178 48.148 115.581 48.148C114.984 48.148 114.503 48.3673 114.139 48.806C113.775 49.2447 113.593 49.8233 113.593 50.542C113.593 51.27 113.775 51.858 114.139 52.306C114.503 52.7447 114.984 52.964 115.581 52.964ZM123.497 47.028C123.702 47.028 123.912 47.0513 124.127 47.098C124.379 47.154 124.505 47.3033 124.505 47.546C124.505 47.6113 124.5 47.658 124.491 47.686L124.421 48.022C124.365 48.2833 124.225 48.414 124.001 48.414L123.875 48.4C123.707 48.372 123.558 48.358 123.427 48.358C122.96 48.358 122.582 48.5447 122.293 48.918C122.013 49.282 121.873 49.7907 121.873 50.444V53.51C121.873 53.6593 121.831 53.7807 121.747 53.874C121.663 53.958 121.542 54 121.383 54H120.879C120.73 54 120.608 53.958 120.515 53.874C120.431 53.7807 120.389 53.6593 120.389 53.51V47.588C120.389 47.4293 120.431 47.308 120.515 47.224C120.608 47.14 120.73 47.098 120.879 47.098H121.285C121.444 47.098 121.565 47.14 121.649 47.224C121.733 47.308 121.775 47.4293 121.775 47.588V48.134C121.943 47.7887 122.172 47.518 122.461 47.322C122.75 47.126 123.096 47.028 123.497 47.028ZM130.114 44.536C130.114 44.3773 130.156 44.256 130.24 44.172C130.334 44.088 130.455 44.046 130.604 44.046H131.108C131.267 44.046 131.388 44.088 131.472 44.172C131.556 44.256 131.598 44.3773 131.598 44.536V53.51C131.598 53.6593 131.556 53.7807 131.472 53.874C131.388 53.958 131.267 54 131.108 54H130.702C130.553 54 130.432 53.958 130.338 53.874C130.254 53.7807 130.212 53.6593 130.212 53.51V53.02C129.727 53.804 128.966 54.196 127.93 54.196C127.352 54.196 126.829 54.0467 126.362 53.748C125.905 53.4493 125.546 53.0247 125.284 52.474C125.023 51.9233 124.892 51.284 124.892 50.556C124.892 49.8373 125.023 49.2027 125.284 48.652C125.555 48.1013 125.924 47.6767 126.39 47.378C126.857 47.0793 127.38 46.93 127.958 46.93C128.91 46.93 129.629 47.2613 130.114 47.924V44.536ZM128.238 52.922C128.808 52.922 129.274 52.712 129.638 52.292C130.002 51.8627 130.184 51.284 130.184 50.556C130.184 49.828 130.002 49.254 129.638 48.834C129.274 48.414 128.808 48.204 128.238 48.204C127.688 48.204 127.244 48.4187 126.908 48.848C126.572 49.2773 126.404 49.8467 126.404 50.556C126.404 51.2747 126.568 51.8487 126.894 52.278C127.23 52.7073 127.678 52.922 128.238 52.922Z" fill="#464646"/>
<rect x="71.5" y="62.5" width="202" height="47" rx="3.5" fill="white"/>
<rect x="71.5" y="62.5" width="202" height="47" rx="3.5" stroke="#C3CCD9"/>
<path d="M72.272 126C72.112 126 72.032 125.92 72.032 125.76V117.72C72.032 117.56 72.112 117.48 72.272 117.48H75.5C76.324 117.48 76.988 117.696 77.492 118.128C77.996 118.56 78.248 119.172 78.248 119.964C78.248 120.756 77.996 121.372 77.492 121.812C76.988 122.244 76.324 122.46 75.5 122.46H72.884V125.76C72.884 125.92 72.804 126 72.644 126H72.272ZM75.392 121.752C76.016 121.752 76.508 121.6 76.868 121.296C77.228 120.992 77.408 120.548 77.408 119.964C77.408 119.388 77.228 118.948 76.868 118.644C76.508 118.34 76.016 118.188 75.392 118.188H72.884V121.752H75.392ZM81.5039 119.94C82.2319 119.94 82.7999 120.116 83.2079 120.468C83.6159 120.812 83.8199 121.268 83.8199 121.836V125.76C83.8199 125.92 83.7399 126 83.5799 126H83.3399C83.1799 126 83.0999 125.92 83.0999 125.76V125.22C82.8999 125.54 82.6159 125.78 82.2479 125.94C81.8879 126.1 81.4839 126.18 81.0359 126.18C80.4119 126.18 79.9039 126.048 79.5119 125.784C79.1199 125.52 78.9239 125.112 78.9239 124.56C78.9239 124.12 79.0479 123.768 79.2959 123.504C79.5439 123.232 79.8679 123.028 80.2679 122.892C80.6679 122.748 81.1679 122.62 81.7679 122.508L83.0639 122.28V121.896C83.0639 121.488 82.9239 121.172 82.6439 120.948C82.3639 120.716 81.9959 120.6 81.5399 120.6C81.1959 120.6 80.8839 120.664 80.6039 120.792C80.3239 120.92 80.0239 121.14 79.7039 121.452C79.6479 121.508 79.5879 121.536 79.5239 121.536C79.4679 121.536 79.4159 121.512 79.3679 121.464L79.2119 121.32C79.1559 121.264 79.1279 121.204 79.1279 121.14C79.1279 121.068 79.1559 121.004 79.2119 120.948C79.5479 120.596 79.8999 120.34 80.2679 120.18C80.6439 120.02 81.0559 119.94 81.5039 119.94ZM81.0719 125.52C81.6479 125.52 82.1239 125.368 82.4999 125.064C82.8759 124.76 83.0639 124.372 83.0639 123.9V122.892L81.9479 123.108C81.4279 123.212 81.0159 123.312 80.7119 123.408C80.4079 123.504 80.1639 123.644 79.9799 123.828C79.7959 124.012 79.7039 124.252 79.7039 124.548C79.7039 124.852 79.8239 125.092 80.0639 125.268C80.3119 125.436 80.6479 125.52 81.0719 125.52ZM87.6395 126.156C87.1515 126.156 86.7195 126.088 86.3435 125.952C85.9755 125.808 85.5875 125.568 85.1795 125.232C85.1075 125.184 85.0715 125.128 85.0715 125.064C85.0715 125.008 85.0995 124.952 85.1555 124.896L85.3115 124.728C85.3595 124.664 85.4195 124.632 85.4915 124.632C85.5475 124.632 85.5995 124.656 85.6475 124.704C86.0315 125 86.3715 125.208 86.6675 125.328C86.9635 125.44 87.2875 125.496 87.6395 125.496C88.0795 125.496 88.4395 125.4 88.7195 125.208C88.9995 125.008 89.1395 124.74 89.1395 124.404C89.1395 124.068 88.9955 123.82 88.7075 123.66C88.4195 123.5 87.9755 123.356 87.3755 123.228C86.8475 123.116 86.4315 123 86.1275 122.88C85.8315 122.752 85.6115 122.592 85.4675 122.4C85.3235 122.208 85.2515 121.956 85.2515 121.644C85.2515 121.132 85.4595 120.72 85.8755 120.408C86.2915 120.096 86.8155 119.94 87.4475 119.94C87.8795 119.94 88.2635 119.996 88.5995 120.108C88.9435 120.212 89.2875 120.388 89.6315 120.636C89.7035 120.692 89.7395 120.752 89.7395 120.816C89.7395 120.856 89.7195 120.908 89.6795 120.972L89.5355 121.152C89.4955 121.216 89.4395 121.248 89.3675 121.248C89.3035 121.248 89.2475 121.228 89.1995 121.188C88.8715 120.956 88.5795 120.8 88.3235 120.72C88.0755 120.64 87.7915 120.6 87.4715 120.6C87.0315 120.6 86.6795 120.696 86.4155 120.888C86.1515 121.08 86.0195 121.324 86.0195 121.62C86.0195 121.804 86.0795 121.952 86.1995 122.064C86.3195 122.176 86.4915 122.272 86.7155 122.352C86.9395 122.424 87.2675 122.508 87.6995 122.604C88.4995 122.78 89.0675 122.996 89.4035 123.252C89.7475 123.508 89.9195 123.88 89.9195 124.368C89.9195 124.904 89.7075 125.336 89.2835 125.664C88.8595 125.992 88.3115 126.156 87.6395 126.156ZM93.3231 126.156C92.8351 126.156 92.4031 126.088 92.0271 125.952C91.6591 125.808 91.2711 125.568 90.8631 125.232C90.7911 125.184 90.7551 125.128 90.7551 125.064C90.7551 125.008 90.7831 124.952 90.8391 124.896L90.9951 124.728C91.0431 124.664 91.1031 124.632 91.1751 124.632C91.2311 124.632 91.2831 124.656 91.3311 124.704C91.7151 125 92.0551 125.208 92.3511 125.328C92.6471 125.44 92.9711 125.496 93.3231 125.496C93.7631 125.496 94.1231 125.4 94.4031 125.208C94.6831 125.008 94.8231 124.74 94.8231 124.404C94.8231 124.068 94.6791 123.82 94.3911 123.66C94.1031 123.5 93.6591 123.356 93.0591 123.228C92.5311 123.116 92.1151 123 91.8111 122.88C91.5151 122.752 91.2951 122.592 91.1511 122.4C91.0071 122.208 90.9351 121.956 90.9351 121.644C90.9351 121.132 91.1431 120.72 91.5591 120.408C91.9751 120.096 92.4991 119.94 93.1311 119.94C93.5631 119.94 93.9471 119.996 94.2831 120.108C94.6271 120.212 94.9711 120.388 95.3151 120.636C95.3871 120.692 95.4231 120.752 95.4231 120.816C95.4231 120.856 95.4031 120.908 95.3631 120.972L95.2191 121.152C95.1791 121.216 95.1231 121.248 95.0511 121.248C94.9871 121.248 94.9311 121.228 94.8831 121.188C94.5551 120.956 94.2631 120.8 94.0071 120.72C93.7591 120.64 93.4751 120.6 93.1551 120.6C92.7151 120.6 92.3631 120.696 92.0991 120.888C91.8351 121.08 91.7031 121.324 91.7031 121.62C91.7031 121.804 91.7631 121.952 91.8831 122.064C92.0031 122.176 92.1751 122.272 92.3991 122.352C92.6231 122.424 92.9511 122.508 93.3831 122.604C94.1831 122.78 94.7511 122.996 95.0871 123.252C95.4311 123.508 95.6031 123.88 95.6031 124.368C95.6031 124.904 95.3911 125.336 94.9671 125.664C94.5431 125.992 93.9951 126.156 93.3231 126.156ZM103.496 120.288C103.528 120.152 103.62 120.084 103.772 120.084H104.096C104.184 120.084 104.244 120.108 104.276 120.156C104.316 120.204 104.324 120.268 104.3 120.348L102.752 125.796C102.72 125.932 102.628 126 102.476 126H101.936C101.8 126 101.712 125.932 101.672 125.796L101.12 123.96C100.832 123 100.564 122.016 100.316 121.008C100.076 121.984 99.8118 122.976 99.5238 123.984L98.9958 125.796C98.9638 125.932 98.8718 126 98.7198 126H98.2038C98.0518 126 97.9598 125.932 97.9278 125.796L96.3798 120.348C96.3718 120.332 96.3678 120.304 96.3678 120.264C96.3678 120.208 96.3878 120.164 96.4278 120.132C96.4678 120.1 96.5198 120.084 96.5838 120.084H96.9078C97.0598 120.084 97.1518 120.152 97.1838 120.288L97.7598 122.412C98.0238 123.38 98.2678 124.344 98.4918 125.304C98.6678 124.592 98.9278 123.628 99.2718 122.412L99.8838 120.288C99.9158 120.152 100.008 120.084 100.16 120.084H100.52C100.664 120.084 100.752 120.152 100.784 120.288L101.408 122.412C101.68 123.396 101.936 124.364 102.176 125.316C102.36 124.516 102.608 123.548 102.92 122.412L103.496 120.288ZM107.91 126.156C107.358 126.156 106.866 126.024 106.434 125.76C106.002 125.496 105.666 125.132 105.426 124.668C105.186 124.196 105.066 123.656 105.066 123.048C105.066 122.44 105.186 121.904 105.426 121.44C105.666 120.968 106.002 120.6 106.434 120.336C106.866 120.072 107.358 119.94 107.91 119.94C108.462 119.94 108.954 120.072 109.386 120.336C109.818 120.6 110.154 120.968 110.394 121.44C110.634 121.904 110.754 122.44 110.754 123.048C110.754 123.656 110.634 124.196 110.394 124.668C110.154 125.132 109.818 125.496 109.386 125.76C108.954 126.024 108.462 126.156 107.91 126.156ZM107.91 125.496C108.526 125.496 109.018 125.272 109.386 124.824C109.754 124.368 109.938 123.776 109.938 123.048C109.938 122.32 109.754 121.732 109.386 121.284C109.018 120.828 108.526 120.6 107.91 120.6C107.294 120.6 106.802 120.828 106.434 121.284C106.066 121.732 105.882 122.32 105.882 123.048C105.882 123.776 106.066 124.368 106.434 124.824C106.802 125.272 107.294 125.496 107.91 125.496ZM114.338 120.036C114.538 120.036 114.774 120.068 115.046 120.132C115.19 120.18 115.246 120.28 115.214 120.432L115.166 120.624C115.126 120.776 115.026 120.832 114.866 120.792C114.674 120.744 114.498 120.72 114.338 120.72C113.93 120.72 113.59 120.896 113.318 121.248C113.054 121.6 112.922 122.088 112.922 122.712V125.76C112.922 125.92 112.842 126 112.682 126H112.37C112.21 126 112.13 125.92 112.13 125.76V120.324C112.13 120.164 112.21 120.084 112.37 120.084H112.634C112.794 120.084 112.874 120.164 112.874 120.324V120.984C113.01 120.688 113.202 120.456 113.45 120.288C113.706 120.12 114.002 120.036 114.338 120.036ZM120.234 117.72C120.234 117.56 120.314 117.48 120.474 117.48H120.786C120.946 117.48 121.026 117.56 121.026 117.72V125.76C121.026 125.92 120.946 126 120.786 126H120.534C120.374 126 120.294 125.92 120.294 125.76V124.98C120.078 125.356 119.794 125.644 119.442 125.844C119.09 126.044 118.674 126.144 118.194 126.144C117.69 126.144 117.242 126.016 116.85 125.76C116.458 125.496 116.15 125.132 115.926 124.668C115.702 124.196 115.59 123.656 115.59 123.048C115.59 122.44 115.702 121.904 115.926 121.44C116.158 120.968 116.474 120.604 116.874 120.348C117.274 120.084 117.722 119.952 118.218 119.952C119.13 119.952 119.802 120.292 120.234 120.972V117.72ZM118.254 125.472C118.854 125.472 119.338 125.26 119.706 124.836C120.082 124.404 120.27 123.808 120.27 123.048C120.27 122.296 120.082 121.704 119.706 121.272C119.338 120.84 118.854 120.624 118.254 120.624C117.702 120.624 117.254 120.848 116.91 121.296C116.574 121.744 116.406 122.328 116.406 123.048C116.406 123.776 116.574 124.364 116.91 124.812C117.246 125.252 117.694 125.472 118.254 125.472ZM124.87 126.156C124.382 126.156 123.95 126.088 123.574 125.952C123.206 125.808 122.818 125.568 122.41 125.232C122.338 125.184 122.302 125.128 122.302 125.064C122.302 125.008 122.33 124.952 122.386 124.896L122.542 124.728C122.59 124.664 122.65 124.632 122.722 124.632C122.778 124.632 122.83 124.656 122.878 124.704C123.262 125 123.602 125.208 123.898 125.328C124.194 125.44 124.518 125.496 124.87 125.496C125.31 125.496 125.67 125.4 125.95 125.208C126.23 125.008 126.37 124.74 126.37 124.404C126.37 124.068 126.226 123.82 125.938 123.66C125.65 123.5 125.206 123.356 124.606 123.228C124.078 123.116 123.662 123 123.358 122.88C123.062 122.752 122.842 122.592 122.698 122.4C122.554 122.208 122.482 121.956 122.482 121.644C122.482 121.132 122.69 120.72 123.106 120.408C123.522 120.096 124.046 119.94 124.678 119.94C125.11 119.94 125.494 119.996 125.83 120.108C126.174 120.212 126.518 120.388 126.862 120.636C126.934 120.692 126.97 120.752 126.97 120.816C126.97 120.856 126.95 120.908 126.91 120.972L126.766 121.152C126.726 121.216 126.67 121.248 126.598 121.248C126.534 121.248 126.478 121.228 126.43 121.188C126.102 120.956 125.81 120.8 125.554 120.72C125.306 120.64 125.022 120.6 124.702 120.6C124.262 120.6 123.91 120.696 123.646 120.888C123.382 121.08 123.25 121.324 123.25 121.62C123.25 121.804 123.31 121.952 123.43 122.064C123.55 122.176 123.722 122.272 123.946 122.352C124.17 122.424 124.498 122.508 124.93 122.604C125.73 122.78 126.298 122.996 126.634 123.252C126.978 123.508 127.15 123.88 127.15 124.368C127.15 124.904 126.938 125.336 126.514 125.664C126.09 125.992 125.542 126.156 124.87 126.156ZM137.267 119.94C137.907 119.94 138.395 120.124 138.731 120.492C139.075 120.852 139.247 121.316 139.247 121.884V125.76C139.247 125.92 139.167 126 139.007 126H138.695C138.535 126 138.455 125.92 138.455 125.76V122.1C138.455 121.62 138.343 121.252 138.119 120.996C137.903 120.74 137.579 120.612 137.147 120.612C136.691 120.612 136.327 120.764 136.055 121.068C135.783 121.372 135.647 121.764 135.647 122.244V125.76C135.647 125.92 135.567 126 135.407 126H135.095C134.935 126 134.855 125.92 134.855 125.76V122.1C134.855 121.62 134.743 121.252 134.519 120.996C134.303 120.74 133.975 120.612 133.535 120.612C133.127 120.612 132.787 120.74 132.515 120.996C132.251 121.252 132.095 121.588 132.047 122.004V125.76C132.047 125.92 131.967 126 131.807 126H131.495C131.335 126 131.255 125.92 131.255 125.76V120.324C131.255 120.164 131.335 120.084 131.495 120.084H131.759C131.919 120.084 131.999 120.164 131.999 120.324V120.816C132.359 120.232 132.931 119.94 133.715 119.94C134.123 119.94 134.471 120.032 134.759 120.216C135.055 120.392 135.275 120.632 135.419 120.936C135.843 120.272 136.459 119.94 137.267 119.94ZM144.798 120.324C144.798 120.164 144.878 120.084 145.038 120.084H145.35C145.51 120.084 145.59 120.164 145.59 120.324V125.76C145.59 125.92 145.51 126 145.35 126H145.098C144.938 126 144.858 125.92 144.858 125.76V125.22C144.682 125.532 144.43 125.768 144.102 125.928C143.782 126.08 143.43 126.156 143.046 126.156C142.326 126.156 141.794 125.976 141.45 125.616C141.106 125.248 140.934 124.776 140.934 124.2V120.324C140.934 120.164 141.014 120.084 141.174 120.084H141.486C141.646 120.084 141.726 120.164 141.726 120.324V124.032C141.726 124.504 141.842 124.864 142.074 125.112C142.314 125.352 142.654 125.472 143.094 125.472C143.59 125.472 143.998 125.32 144.318 125.016C144.638 124.712 144.798 124.28 144.798 123.72V120.324ZM149.432 126.156C148.944 126.156 148.512 126.088 148.136 125.952C147.768 125.808 147.38 125.568 146.972 125.232C146.9 125.184 146.864 125.128 146.864 125.064C146.864 125.008 146.892 124.952 146.948 124.896L147.104 124.728C147.152 124.664 147.212 124.632 147.284 124.632C147.34 124.632 147.392 124.656 147.44 124.704C147.824 125 148.164 125.208 148.46 125.328C148.756 125.44 149.08 125.496 149.432 125.496C149.872 125.496 150.232 125.4 150.512 125.208C150.792 125.008 150.932 124.74 150.932 124.404C150.932 124.068 150.788 123.82 150.5 123.66C150.212 123.5 149.768 123.356 149.168 123.228C148.64 123.116 148.224 123 147.92 122.88C147.624 122.752 147.404 122.592 147.26 122.4C147.116 122.208 147.044 121.956 147.044 121.644C147.044 121.132 147.252 120.72 147.668 120.408C148.084 120.096 148.608 119.94 149.24 119.94C149.672 119.94 150.056 119.996 150.392 120.108C150.736 120.212 151.08 120.388 151.424 120.636C151.496 120.692 151.532 120.752 151.532 120.816C151.532 120.856 151.512 120.908 151.472 120.972L151.328 121.152C151.288 121.216 151.232 121.248 151.16 121.248C151.096 121.248 151.04 121.228 150.992 121.188C150.664 120.956 150.372 120.8 150.116 120.72C149.868 120.64 149.584 120.6 149.264 120.6C148.824 120.6 148.472 120.696 148.208 120.888C147.944 121.08 147.812 121.324 147.812 121.62C147.812 121.804 147.872 121.952 147.992 122.064C148.112 122.176 148.284 122.272 148.508 122.352C148.732 122.424 149.06 122.508 149.492 122.604C150.292 122.78 150.86 122.996 151.196 123.252C151.54 123.508 151.712 123.88 151.712 124.368C151.712 124.904 151.5 125.336 151.076 125.664C150.652 125.992 150.104 126.156 149.432 126.156ZM155.693 125.34C155.717 125.332 155.749 125.328 155.789 125.328C155.837 125.328 155.881 125.344 155.921 125.376C155.961 125.408 155.985 125.452 155.993 125.508L156.029 125.676C156.037 125.692 156.041 125.72 156.041 125.76C156.041 125.872 155.981 125.94 155.861 125.964C155.573 126.052 155.265 126.096 154.937 126.096C154.417 126.096 154.045 125.98 153.821 125.748C153.605 125.508 153.497 125.164 153.497 124.716V120.684H152.609C152.449 120.684 152.369 120.604 152.369 120.444V120.324C152.369 120.164 152.449 120.084 152.609 120.084H153.497V118.26C153.497 118.1 153.577 118.02 153.737 118.02H154.049C154.209 118.02 154.289 118.1 154.289 118.26V120.084H155.729C155.889 120.084 155.969 120.164 155.969 120.324V120.444C155.969 120.604 155.889 120.684 155.729 120.684H154.289V124.62C154.289 124.916 154.345 125.124 154.457 125.244C154.569 125.364 154.761 125.424 155.033 125.424C155.225 125.424 155.445 125.396 155.693 125.34ZM162.775 119.952C163.279 119.952 163.727 120.084 164.119 120.348C164.519 120.604 164.827 120.968 165.043 121.44C165.267 121.904 165.379 122.44 165.379 123.048C165.379 123.656 165.267 124.196 165.043 124.668C164.819 125.132 164.507 125.496 164.107 125.76C163.715 126.016 163.271 126.144 162.775 126.144C161.823 126.144 161.127 125.776 160.687 125.04V125.76C160.687 125.92 160.607 126 160.447 126H160.183C160.023 126 159.943 125.92 159.943 125.76V117.708C159.943 117.548 160.023 117.468 160.183 117.468H160.495C160.655 117.468 160.735 117.548 160.735 117.708V121.02C161.175 120.308 161.855 119.952 162.775 119.952ZM162.715 125.472C163.267 125.472 163.711 125.248 164.047 124.8C164.391 124.352 164.563 123.768 164.563 123.048C164.563 122.328 164.391 121.744 164.047 121.296C163.711 120.848 163.267 120.624 162.715 120.624C162.123 120.624 161.639 120.84 161.263 121.272C160.887 121.704 160.699 122.296 160.699 123.048C160.699 123.808 160.883 124.404 161.251 124.836C161.627 125.26 162.115 125.472 162.715 125.472ZM171.165 124.596C171.221 124.54 171.281 124.512 171.345 124.512C171.401 124.512 171.453 124.536 171.501 124.584L171.657 124.728C171.713 124.784 171.741 124.844 171.741 124.908C171.741 124.956 171.717 125.012 171.669 125.076C171.277 125.468 170.897 125.748 170.529 125.916C170.161 126.076 169.749 126.156 169.293 126.156C168.717 126.156 168.217 126.028 167.793 125.772C167.369 125.516 167.041 125.16 166.809 124.704C166.577 124.24 166.461 123.704 166.461 123.096C166.461 122.48 166.573 121.936 166.797 121.464C167.029 120.984 167.353 120.612 167.769 120.348C168.185 120.076 168.665 119.94 169.209 119.94C170.017 119.94 170.653 120.192 171.117 120.696C171.581 121.2 171.813 121.88 171.813 122.736V122.88C171.805 122.952 171.777 123.008 171.729 123.048C171.689 123.088 171.633 123.108 171.561 123.108H167.265C167.289 123.78 167.465 124.348 167.793 124.812C168.129 125.268 168.629 125.496 169.293 125.496C169.653 125.496 169.969 125.432 170.241 125.304C170.521 125.168 170.829 124.932 171.165 124.596ZM169.209 120.6C168.681 120.6 168.245 120.764 167.901 121.092C167.565 121.412 167.361 121.884 167.289 122.508H171.021C171.005 121.924 170.837 121.46 170.517 121.116C170.197 120.772 169.761 120.6 169.209 120.6ZM178.277 119.94C179.005 119.94 179.573 120.116 179.981 120.468C180.389 120.812 180.593 121.268 180.593 121.836V125.76C180.593 125.92 180.513 126 180.353 126H180.113C179.953 126 179.873 125.92 179.873 125.76V125.22C179.673 125.54 179.389 125.78 179.021 125.94C178.661 126.1 178.257 126.18 177.809 126.18C177.185 126.18 176.677 126.048 176.285 125.784C175.893 125.52 175.697 125.112 175.697 124.56C175.697 124.12 175.821 123.768 176.069 123.504C176.317 123.232 176.641 123.028 177.041 122.892C177.441 122.748 177.941 122.62 178.541 122.508L179.837 122.28V121.896C179.837 121.488 179.697 121.172 179.417 120.948C179.137 120.716 178.769 120.6 178.313 120.6C177.969 120.6 177.657 120.664 177.377 120.792C177.097 120.92 176.797 121.14 176.477 121.452C176.421 121.508 176.361 121.536 176.297 121.536C176.241 121.536 176.189 121.512 176.141 121.464L175.985 121.32C175.929 121.264 175.901 121.204 175.901 121.14C175.901 121.068 175.929 121.004 175.985 120.948C176.321 120.596 176.673 120.34 177.041 120.18C177.417 120.02 177.829 119.94 178.277 119.94ZM177.845 125.52C178.421 125.52 178.897 125.368 179.273 125.064C179.649 124.76 179.837 124.372 179.837 123.9V122.892L178.721 123.108C178.201 123.212 177.789 123.312 177.485 123.408C177.181 123.504 176.937 123.644 176.753 123.828C176.569 124.012 176.477 124.252 176.477 124.548C176.477 124.852 176.597 125.092 176.837 125.268C177.085 125.436 177.421 125.52 177.845 125.52ZM184.849 125.34C184.873 125.332 184.905 125.328 184.945 125.328C184.993 125.328 185.037 125.344 185.077 125.376C185.117 125.408 185.141 125.452 185.149 125.508L185.185 125.676C185.193 125.692 185.197 125.72 185.197 125.76C185.197 125.872 185.137 125.94 185.017 125.964C184.729 126.052 184.421 126.096 184.093 126.096C183.573 126.096 183.201 125.98 182.977 125.748C182.761 125.508 182.653 125.164 182.653 124.716V120.684H181.765C181.605 120.684 181.525 120.604 181.525 120.444V120.324C181.525 120.164 181.605 120.084 181.765 120.084H182.653V118.26C182.653 118.1 182.733 118.02 182.893 118.02H183.205C183.365 118.02 183.445 118.1 183.445 118.26V120.084H184.885C185.045 120.084 185.125 120.164 185.125 120.324V120.444C185.125 120.604 185.045 120.684 184.885 120.684H183.445V124.62C183.445 124.916 183.501 125.124 183.613 125.244C183.725 125.364 183.917 125.424 184.189 125.424C184.381 125.424 184.601 125.396 184.849 125.34ZM189.351 126C189.191 126 189.111 125.92 189.111 125.76V117.72C189.111 117.56 189.191 117.48 189.351 117.48H189.663C189.823 117.48 189.903 117.56 189.903 117.72V125.76C189.903 125.92 189.823 126 189.663 126H189.351ZM195.997 124.596C196.053 124.54 196.113 124.512 196.177 124.512C196.233 124.512 196.285 124.536 196.333 124.584L196.489 124.728C196.545 124.784 196.573 124.844 196.573 124.908C196.573 124.956 196.549 125.012 196.501 125.076C196.109 125.468 195.729 125.748 195.361 125.916C194.993 126.076 194.581 126.156 194.125 126.156C193.549 126.156 193.049 126.028 192.625 125.772C192.201 125.516 191.873 125.16 191.641 124.704C191.409 124.24 191.293 123.704 191.293 123.096C191.293 122.48 191.405 121.936 191.629 121.464C191.861 120.984 192.185 120.612 192.601 120.348C193.017 120.076 193.497 119.94 194.041 119.94C194.849 119.94 195.485 120.192 195.949 120.696C196.413 121.2 196.645 121.88 196.645 122.736V122.88C196.637 122.952 196.609 123.008 196.561 123.048C196.521 123.088 196.465 123.108 196.393 123.108H192.097C192.121 123.78 192.297 124.348 192.625 124.812C192.961 125.268 193.461 125.496 194.125 125.496C194.485 125.496 194.801 125.432 195.073 125.304C195.353 125.168 195.661 124.932 195.997 124.596ZM194.041 120.6C193.513 120.6 193.077 120.764 192.733 121.092C192.397 121.412 192.193 121.884 192.121 122.508H195.853C195.837 121.924 195.669 121.46 195.349 121.116C195.029 120.772 194.593 120.6 194.041 120.6ZM200.238 119.94C200.966 119.94 201.534 120.116 201.942 120.468C202.35 120.812 202.554 121.268 202.554 121.836V125.76C202.554 125.92 202.474 126 202.314 126H202.074C201.914 126 201.834 125.92 201.834 125.76V125.22C201.634 125.54 201.35 125.78 200.982 125.94C200.622 126.1 200.218 126.18 199.77 126.18C199.146 126.18 198.638 126.048 198.246 125.784C197.854 125.52 197.658 125.112 197.658 124.56C197.658 124.12 197.782 123.768 198.03 123.504C198.278 123.232 198.602 123.028 199.002 122.892C199.402 122.748 199.902 122.62 200.502 122.508L201.798 122.28V121.896C201.798 121.488 201.658 121.172 201.378 120.948C201.098 120.716 200.73 120.6 200.274 120.6C199.93 120.6 199.618 120.664 199.338 120.792C199.058 120.92 198.758 121.14 198.438 121.452C198.382 121.508 198.322 121.536 198.258 121.536C198.202 121.536 198.15 121.512 198.102 121.464L197.946 121.32C197.89 121.264 197.862 121.204 197.862 121.14C197.862 121.068 197.89 121.004 197.946 120.948C198.282 120.596 198.634 120.34 199.002 120.18C199.378 120.02 199.79 119.94 200.238 119.94ZM199.806 125.52C200.382 125.52 200.858 125.368 201.234 125.064C201.61 124.76 201.798 124.372 201.798 123.9V122.892L200.682 123.108C200.162 123.212 199.75 123.312 199.446 123.408C199.142 123.504 198.898 123.644 198.714 123.828C198.53 124.012 198.438 124.252 198.438 124.548C198.438 124.852 198.558 125.092 198.798 125.268C199.046 125.436 199.382 125.52 199.806 125.52ZM206.374 126.156C205.886 126.156 205.454 126.088 205.078 125.952C204.71 125.808 204.322 125.568 203.914 125.232C203.842 125.184 203.806 125.128 203.806 125.064C203.806 125.008 203.834 124.952 203.89 124.896L204.046 124.728C204.094 124.664 204.154 124.632 204.226 124.632C204.282 124.632 204.334 124.656 204.382 124.704C204.766 125 205.106 125.208 205.402 125.328C205.698 125.44 206.022 125.496 206.374 125.496C206.814 125.496 207.174 125.4 207.454 125.208C207.734 125.008 207.874 124.74 207.874 124.404C207.874 124.068 207.73 123.82 207.442 123.66C207.154 123.5 206.71 123.356 206.11 123.228C205.582 123.116 205.166 123 204.862 122.88C204.566 122.752 204.346 122.592 204.202 122.4C204.058 122.208 203.986 121.956 203.986 121.644C203.986 121.132 204.194 120.72 204.61 120.408C205.026 120.096 205.55 119.94 206.182 119.94C206.614 119.94 206.998 119.996 207.334 120.108C207.678 120.212 208.022 120.388 208.366 120.636C208.438 120.692 208.474 120.752 208.474 120.816C208.474 120.856 208.454 120.908 208.414 120.972L208.27 121.152C208.23 121.216 208.174 121.248 208.102 121.248C208.038 121.248 207.982 121.228 207.934 121.188C207.606 120.956 207.314 120.8 207.058 120.72C206.81 120.64 206.526 120.6 206.206 120.6C205.766 120.6 205.414 120.696 205.15 120.888C204.886 121.08 204.754 121.324 204.754 121.62C204.754 121.804 204.814 121.952 204.934 122.064C205.054 122.176 205.226 122.272 205.45 122.352C205.674 122.424 206.002 122.508 206.434 122.604C207.234 122.78 207.802 122.996 208.138 123.252C208.482 123.508 208.654 123.88 208.654 124.368C208.654 124.904 208.442 125.336 208.018 125.664C207.594 125.992 207.046 126.156 206.374 126.156ZM212.634 125.34C212.658 125.332 212.69 125.328 212.73 125.328C212.778 125.328 212.822 125.344 212.862 125.376C212.902 125.408 212.926 125.452 212.934 125.508L212.97 125.676C212.978 125.692 212.982 125.72 212.982 125.76C212.982 125.872 212.922 125.94 212.802 125.964C212.514 126.052 212.206 126.096 211.878 126.096C211.358 126.096 210.986 125.98 210.762 125.748C210.546 125.508 210.438 125.164 210.438 124.716V120.684H209.55C209.39 120.684 209.31 120.604 209.31 120.444V120.324C209.31 120.164 209.39 120.084 209.55 120.084H210.438V118.26C210.438 118.1 210.518 118.02 210.678 118.02H210.99C211.15 118.02 211.23 118.1 211.23 118.26V120.084H212.67C212.83 120.084 212.91 120.164 212.91 120.324V120.444C212.91 120.604 212.83 120.684 212.67 120.684H211.23V124.62C211.23 124.916 211.286 125.124 211.398 125.244C211.51 125.364 211.702 125.424 211.974 125.424C212.166 125.424 212.386 125.396 212.634 125.34ZM220.976 121.392C221.52 121.584 221.94 121.884 222.236 122.292C222.532 122.692 222.68 123.16 222.68 123.696C222.68 124.168 222.556 124.596 222.308 124.98C222.06 125.356 221.704 125.652 221.24 125.868C220.776 126.084 220.228 126.192 219.596 126.192C218.964 126.192 218.416 126.084 217.952 125.868C217.488 125.652 217.132 125.356 216.884 124.98C216.636 124.596 216.512 124.168 216.512 123.696C216.512 123.16 216.66 122.692 216.956 122.292C217.252 121.884 217.672 121.584 218.216 121.392C217.824 121.216 217.516 120.972 217.292 120.66C217.068 120.34 216.956 119.964 216.956 119.532C216.956 119.1 217.068 118.716 217.292 118.38C217.516 118.044 217.828 117.784 218.228 117.6C218.628 117.408 219.084 117.312 219.596 117.312C220.108 117.312 220.564 117.408 220.964 117.6C221.364 117.784 221.676 118.044 221.9 118.38C222.124 118.716 222.236 119.1 222.236 119.532C222.236 119.964 222.124 120.34 221.9 120.66C221.676 120.972 221.368 121.216 220.976 121.392ZM217.748 119.508C217.748 119.988 217.916 120.372 218.252 120.66C218.596 120.948 219.044 121.092 219.596 121.092C220.148 121.092 220.592 120.948 220.928 120.66C221.272 120.372 221.444 119.988 221.444 119.508C221.444 119.06 221.276 118.696 220.94 118.416C220.612 118.128 220.164 117.984 219.596 117.984C219.028 117.984 218.576 118.128 218.24 118.416C217.912 118.696 217.748 119.06 217.748 119.508ZM219.596 125.484C220.292 125.484 220.84 125.316 221.24 124.98C221.648 124.636 221.852 124.2 221.852 123.672C221.852 123.104 221.648 122.644 221.24 122.292C220.832 121.94 220.284 121.764 219.596 121.764C218.908 121.764 218.36 121.94 217.952 122.292C217.544 122.644 217.34 123.104 217.34 123.672C217.34 124.2 217.54 124.636 217.94 124.98C218.348 125.316 218.9 125.484 219.596 125.484ZM229.233 126.156C228.665 126.156 228.169 126.028 227.745 125.772C227.329 125.508 227.005 125.144 226.773 124.68C226.549 124.208 226.437 123.664 226.437 123.048C226.437 122.44 226.549 121.9 226.773 121.428C227.005 120.956 227.329 120.592 227.745 120.336C228.169 120.072 228.657 119.94 229.209 119.94C229.657 119.94 230.049 120.016 230.385 120.168C230.721 120.312 231.045 120.552 231.357 120.888C231.405 120.936 231.429 120.988 231.429 121.044C231.429 121.116 231.397 121.176 231.333 121.224L231.165 121.38C231.117 121.428 231.061 121.452 230.997 121.452C230.941 121.452 230.881 121.42 230.817 121.356C230.537 121.076 230.269 120.88 230.013 120.768C229.765 120.656 229.489 120.6 229.185 120.6C228.769 120.6 228.413 120.716 228.117 120.948C227.829 121.18 227.613 121.484 227.469 121.86C227.325 122.228 227.253 122.624 227.253 123.048C227.253 123.472 227.325 123.872 227.469 124.248C227.613 124.616 227.833 124.916 228.129 125.148C228.425 125.372 228.789 125.484 229.221 125.484C229.541 125.484 229.821 125.428 230.061 125.316C230.309 125.196 230.585 124.972 230.889 124.644C230.953 124.58 231.013 124.548 231.069 124.548C231.133 124.548 231.189 124.572 231.237 124.62L231.405 124.752C231.461 124.8 231.489 124.856 231.489 124.92C231.489 124.984 231.453 125.06 231.381 125.148C231.045 125.516 230.709 125.776 230.373 125.928C230.037 126.08 229.657 126.156 229.233 126.156ZM235.415 119.94C236.103 119.94 236.627 120.136 236.987 120.528C237.347 120.912 237.527 121.388 237.527 121.956V125.76C237.527 125.92 237.447 126 237.287 126H236.975C236.815 126 236.735 125.92 236.735 125.76V122.22C236.735 121.692 236.607 121.292 236.351 121.02C236.095 120.748 235.727 120.612 235.247 120.612C234.943 120.612 234.663 120.688 234.407 120.84C234.151 120.984 233.947 121.184 233.795 121.44C233.643 121.696 233.567 121.976 233.567 122.28V125.76C233.567 125.92 233.487 126 233.327 126H233.015C232.855 126 232.775 125.92 232.775 125.76V117.72C232.775 117.56 232.855 117.48 233.015 117.48H233.327C233.487 117.48 233.567 117.56 233.567 117.72V120.852C233.759 120.548 234.015 120.32 234.335 120.168C234.663 120.016 235.023 119.94 235.415 119.94ZM241.559 119.94C242.287 119.94 242.855 120.116 243.263 120.468C243.671 120.812 243.875 121.268 243.875 121.836V125.76C243.875 125.92 243.795 126 243.635 126H243.395C243.235 126 243.155 125.92 243.155 125.76V125.22C242.955 125.54 242.671 125.78 242.303 125.94C241.943 126.1 241.539 126.18 241.091 126.18C240.467 126.18 239.959 126.048 239.567 125.784C239.175 125.52 238.979 125.112 238.979 124.56C238.979 124.12 239.103 123.768 239.351 123.504C239.599 123.232 239.923 123.028 240.323 122.892C240.723 122.748 241.223 122.62 241.823 122.508L243.119 122.28V121.896C243.119 121.488 242.979 121.172 242.699 120.948C242.419 120.716 242.051 120.6 241.595 120.6C241.251 120.6 240.939 120.664 240.659 120.792C240.379 120.92 240.079 121.14 239.759 121.452C239.703 121.508 239.643 121.536 239.579 121.536C239.523 121.536 239.471 121.512 239.423 121.464L239.267 121.32C239.211 121.264 239.183 121.204 239.183 121.14C239.183 121.068 239.211 121.004 239.267 120.948C239.603 120.596 239.955 120.34 240.323 120.18C240.699 120.02 241.111 119.94 241.559 119.94ZM241.127 125.52C241.703 125.52 242.179 125.368 242.555 125.064C242.931 124.76 243.119 124.372 243.119 123.9V122.892L242.003 123.108C241.483 123.212 241.071 123.312 240.767 123.408C240.463 123.504 240.219 123.644 240.035 123.828C239.851 124.012 239.759 124.252 239.759 124.548C239.759 124.852 239.879 125.092 240.119 125.268C240.367 125.436 240.703 125.52 241.127 125.52ZM247.838 120.036C248.038 120.036 248.274 120.068 248.546 120.132C248.69 120.18 248.746 120.28 248.714 120.432L248.666 120.624C248.626 120.776 248.526 120.832 248.366 120.792C248.174 120.744 247.998 120.72 247.838 120.72C247.43 120.72 247.09 120.896 246.818 121.248C246.554 121.6 246.422 122.088 246.422 122.712V125.76C246.422 125.92 246.342 126 246.182 126H245.87C245.71 126 245.63 125.92 245.63 125.76V120.324C245.63 120.164 245.71 120.084 245.87 120.084H246.134C246.294 120.084 246.374 120.164 246.374 120.324V120.984C246.51 120.688 246.702 120.456 246.95 120.288C247.206 120.12 247.502 120.036 247.838 120.036ZM251.918 119.94C252.646 119.94 253.214 120.116 253.622 120.468C254.03 120.812 254.234 121.268 254.234 121.836V125.76C254.234 125.92 254.154 126 253.994 126H253.754C253.594 126 253.514 125.92 253.514 125.76V125.22C253.314 125.54 253.03 125.78 252.662 125.94C252.302 126.1 251.898 126.18 251.45 126.18C250.826 126.18 250.318 126.048 249.926 125.784C249.534 125.52 249.338 125.112 249.338 124.56C249.338 124.12 249.462 123.768 249.71 123.504C249.958 123.232 250.282 123.028 250.682 122.892C251.082 122.748 251.582 122.62 252.182 122.508L253.478 122.28V121.896C253.478 121.488 253.338 121.172 253.058 120.948C252.778 120.716 252.41 120.6 251.954 120.6C251.61 120.6 251.298 120.664 251.018 120.792C250.738 120.92 250.438 121.14 250.118 121.452C250.062 121.508 250.002 121.536 249.938 121.536C249.882 121.536 249.83 121.512 249.782 121.464L249.626 121.32C249.57 121.264 249.542 121.204 249.542 121.14C249.542 121.068 249.57 121.004 249.626 120.948C249.962 120.596 250.314 120.34 250.682 120.18C251.058 120.02 251.47 119.94 251.918 119.94ZM251.486 125.52C252.062 125.52 252.538 125.368 252.914 125.064C253.29 124.76 253.478 124.372 253.478 123.9V122.892L252.362 123.108C251.842 123.212 251.43 123.312 251.126 123.408C250.822 123.504 250.578 123.644 250.394 123.828C250.21 124.012 250.118 124.252 250.118 124.548C250.118 124.852 250.238 125.092 250.478 125.268C250.726 125.436 251.062 125.52 251.486 125.52ZM258.39 126.156C257.822 126.156 257.326 126.028 256.902 125.772C256.486 125.508 256.162 125.144 255.93 124.68C255.706 124.208 255.594 123.664 255.594 123.048C255.594 122.44 255.706 121.9 255.93 121.428C256.162 120.956 256.486 120.592 256.902 120.336C257.326 120.072 257.814 119.94 258.366 119.94C258.814 119.94 259.206 120.016 259.542 120.168C259.878 120.312 260.202 120.552 260.514 120.888C260.562 120.936 260.586 120.988 260.586 121.044C260.586 121.116 260.554 121.176 260.49 121.224L260.322 121.38C260.274 121.428 260.218 121.452 260.154 121.452C260.098 121.452 260.038 121.42 259.974 121.356C259.694 121.076 259.426 120.88 259.17 120.768C258.922 120.656 258.646 120.6 258.342 120.6C257.926 120.6 257.57 120.716 257.274 120.948C256.986 121.18 256.77 121.484 256.626 121.86C256.482 122.228 256.41 122.624 256.41 123.048C256.41 123.472 256.482 123.872 256.626 124.248C256.77 124.616 256.99 124.916 257.286 125.148C257.582 125.372 257.946 125.484 258.378 125.484C258.698 125.484 258.978 125.428 259.218 125.316C259.466 125.196 259.742 124.972 260.046 124.644C260.11 124.58 260.17 124.548 260.226 124.548C260.29 124.548 260.346 124.572 260.394 124.62L260.562 124.752C260.618 124.8 260.646 124.856 260.646 124.92C260.646 124.984 260.61 125.06 260.538 125.148C260.202 125.516 259.866 125.776 259.53 125.928C259.194 126.08 258.814 126.156 258.39 126.156ZM264.63 125.34C264.654 125.332 264.686 125.328 264.726 125.328C264.774 125.328 264.818 125.344 264.858 125.376C264.898 125.408 264.922 125.452 264.93 125.508L264.966 125.676C264.974 125.692 264.978 125.72 264.978 125.76C264.978 125.872 264.918 125.94 264.798 125.964C264.51 126.052 264.202 126.096 263.874 126.096C263.354 126.096 262.982 125.98 262.758 125.748C262.542 125.508 262.434 125.164 262.434 124.716V120.684H261.546C261.386 120.684 261.306 120.604 261.306 120.444V120.324C261.306 120.164 261.386 120.084 261.546 120.084H262.434V118.26C262.434 118.1 262.514 118.02 262.674 118.02H262.986C263.146 118.02 263.226 118.1 263.226 118.26V120.084H264.666C264.826 120.084 264.906 120.164 264.906 120.324V120.444C264.906 120.604 264.826 120.684 264.666 120.684H263.226V124.62C263.226 124.916 263.282 125.124 263.394 125.244C263.506 125.364 263.698 125.424 263.97 125.424C264.162 125.424 264.382 125.396 264.63 125.34ZM270.2 124.596C270.256 124.54 270.316 124.512 270.38 124.512C270.436 124.512 270.488 124.536 270.536 124.584L270.692 124.728C270.748 124.784 270.776 124.844 270.776 124.908C270.776 124.956 270.752 125.012 270.704 125.076C270.312 125.468 269.932 125.748 269.564 125.916C269.196 126.076 268.784 126.156 268.328 126.156C267.752 126.156 267.252 126.028 266.828 125.772C266.404 125.516 266.076 125.16 265.844 124.704C265.612 124.24 265.496 123.704 265.496 123.096C265.496 122.48 265.608 121.936 265.832 121.464C266.064 120.984 266.388 120.612 266.804 120.348C267.22 120.076 267.7 119.94 268.244 119.94C269.052 119.94 269.688 120.192 270.152 120.696C270.616 121.2 270.848 121.88 270.848 122.736V122.88C270.84 122.952 270.812 123.008 270.764 123.048C270.724 123.088 270.668 123.108 270.596 123.108H266.3C266.324 123.78 266.5 124.348 266.828 124.812C267.164 125.268 267.664 125.496 268.328 125.496C268.688 125.496 269.004 125.432 269.276 125.304C269.556 125.168 269.864 124.932 270.2 124.596ZM268.244 120.6C267.716 120.6 267.28 120.764 266.936 121.092C266.6 121.412 266.396 121.884 266.324 122.508H270.056C270.04 121.924 269.872 121.46 269.552 121.116C269.232 120.772 268.796 120.6 268.244 120.6ZM274.475 120.036C274.675 120.036 274.911 120.068 275.183 120.132C275.327 120.18 275.383 120.28 275.351 120.432L275.303 120.624C275.263 120.776 275.163 120.832 275.003 120.792C274.811 120.744 274.635 120.72 274.475 120.72C274.067 120.72 273.727 120.896 273.455 121.248C273.191 121.6 273.059 122.088 273.059 122.712V125.76C273.059 125.92 272.979 126 272.819 126H272.507C272.347 126 272.267 125.92 272.267 125.76V120.324C272.267 120.164 272.347 120.084 272.507 120.084H272.771C272.931 120.084 273.011 120.164 273.011 120.324V120.984C273.147 120.688 273.339 120.456 273.587 120.288C273.843 120.12 274.139 120.036 274.475 120.036ZM278.315 126.156C277.827 126.156 277.395 126.088 277.019 125.952C276.651 125.808 276.263 125.568 275.855 125.232C275.783 125.184 275.747 125.128 275.747 125.064C275.747 125.008 275.775 124.952 275.831 124.896L275.987 124.728C276.035 124.664 276.095 124.632 276.167 124.632C276.223 124.632 276.275 124.656 276.323 124.704C276.707 125 277.047 125.208 277.343 125.328C277.639 125.44 277.963 125.496 278.315 125.496C278.755 125.496 279.115 125.4 279.395 125.208C279.675 125.008 279.815 124.74 279.815 124.404C279.815 124.068 279.671 123.82 279.383 123.66C279.095 123.5 278.651 123.356 278.051 123.228C277.523 123.116 277.107 123 276.803 122.88C276.507 122.752 276.287 122.592 276.143 122.4C275.999 122.208 275.927 121.956 275.927 121.644C275.927 121.132 276.135 120.72 276.551 120.408C276.967 120.096 277.491 119.94 278.123 119.94C278.555 119.94 278.939 119.996 279.275 120.108C279.619 120.212 279.963 120.388 280.307 120.636C280.379 120.692 280.415 120.752 280.415 120.816C280.415 120.856 280.395 120.908 280.355 120.972L280.211 121.152C280.171 121.216 280.115 121.248 280.043 121.248C279.979 121.248 279.923 121.228 279.875 121.188C279.547 120.956 279.255 120.8 278.999 120.72C278.751 120.64 278.467 120.6 278.147 120.6C277.707 120.6 277.355 120.696 277.091 120.888C276.827 121.08 276.695 121.324 276.695 121.62C276.695 121.804 276.755 121.952 276.875 122.064C276.995 122.176 277.167 122.272 277.391 122.352C277.615 122.424 277.943 122.508 278.375 122.604C279.175 122.78 279.743 122.996 280.079 123.252C280.423 123.508 280.595 123.88 280.595 124.368C280.595 124.904 280.383 125.336 279.959 125.664C279.535 125.992 278.987 126.156 278.315 126.156ZM282.259 126.084C282.091 126.084 281.947 126.024 281.827 125.904C281.707 125.784 281.647 125.64 281.647 125.472C281.647 125.304 281.707 125.16 281.827 125.04C281.947 124.92 282.091 124.86 282.259 124.86C282.427 124.86 282.571 124.92 282.691 125.04C282.811 125.16 282.871 125.304 282.871 125.472C282.871 125.64 282.811 125.784 282.691 125.904C282.571 126.024 282.427 126.084 282.259 126.084Z" fill="#464646"/>
<path d="M72.568 164C72.4187 164 72.2973 163.958 72.204 163.874C72.12 163.781 72.078 163.659 72.078 163.51V154.55C72.078 154.391 72.12 154.27 72.204 154.186C72.2973 154.102 72.4187 154.06 72.568 154.06H76.586C77.5753 154.06 78.364 154.335 78.952 154.886C79.54 155.427 79.834 156.169 79.834 157.112C79.834 158.055 79.54 158.797 78.952 159.338C78.364 159.879 77.5753 160.15 76.586 160.15H73.674V163.51C73.674 163.659 73.632 163.781 73.548 163.874C73.464 163.958 73.3427 164 73.184 164H72.568ZM76.334 158.82C76.9313 158.82 77.398 158.675 77.734 158.386C78.0793 158.087 78.252 157.663 78.252 157.112C78.252 156.552 78.0793 156.127 77.734 155.838C77.398 155.539 76.9313 155.39 76.334 155.39H73.674V158.82H76.334ZM83.8851 156.888C84.8185 156.888 85.5371 157.107 86.0411 157.546C86.5451 157.975 86.7971 158.549 86.7971 159.268V163.51C86.7971 163.659 86.7551 163.781 86.6711 163.874C86.5871 163.958 86.4658 164 86.3071 164H85.9431C85.7938 164 85.6725 163.958 85.5791 163.874C85.4951 163.781 85.4531 163.659 85.4531 163.51V163.202C85.2291 163.529 84.9211 163.781 84.5291 163.958C84.1371 164.135 83.6798 164.224 83.1571 164.224C82.4385 164.224 81.8458 164.065 81.3791 163.748C80.9218 163.421 80.6931 162.931 80.6931 162.278C80.6931 161.55 80.9638 161.013 81.5051 160.668C82.0558 160.313 82.8165 160.047 83.7871 159.87L85.3691 159.576V159.324C85.3691 158.941 85.2338 158.647 84.9631 158.442C84.7018 158.227 84.3518 158.12 83.9131 158.12C83.5398 158.12 83.2131 158.185 82.9331 158.316C82.6625 158.437 82.3685 158.643 82.0511 158.932C81.9298 159.035 81.8131 159.086 81.7011 159.086C81.5891 159.086 81.4725 159.035 81.3511 158.932L81.1271 158.736C81.0058 158.624 80.9451 158.503 80.9451 158.372C80.9451 158.251 81.0011 158.134 81.1131 158.022C81.5145 157.639 81.9391 157.355 82.3871 157.168C82.8351 156.981 83.3345 156.888 83.8851 156.888ZM83.3671 163.034C83.9271 163.034 84.3985 162.885 84.7811 162.586C85.1731 162.287 85.3691 161.858 85.3691 161.298V160.654L84.1511 160.906C83.4698 161.046 82.9658 161.205 82.6391 161.382C82.3125 161.559 82.1491 161.83 82.1491 162.194C82.1491 162.455 82.2565 162.661 82.4711 162.81C82.6858 162.959 82.9845 163.034 83.3671 163.034ZM91.1527 164.21C90.5833 164.21 90.0747 164.14 89.6267 164C89.188 163.851 88.74 163.594 88.2827 163.23C88.1427 163.127 88.0727 163.011 88.0727 162.88C88.0727 162.777 88.124 162.665 88.2267 162.544L88.4367 162.306C88.5487 162.175 88.67 162.11 88.8007 162.11C88.9033 162.11 89.0153 162.157 89.1367 162.25C89.5287 162.539 89.874 162.74 90.1727 162.852C90.4713 162.955 90.8073 163.006 91.1807 163.006C91.582 163.006 91.9087 162.927 92.1607 162.768C92.422 162.6 92.5527 162.376 92.5527 162.096C92.5527 161.881 92.478 161.713 92.3287 161.592C92.1887 161.461 92.002 161.363 91.7687 161.298C91.5353 161.223 91.19 161.139 90.7327 161.046C90.0887 160.906 89.5847 160.757 89.2207 160.598C88.866 160.43 88.6093 160.22 88.4507 159.968C88.292 159.716 88.2127 159.394 88.2127 159.002C88.2127 158.601 88.3247 158.241 88.5487 157.924C88.782 157.607 89.104 157.355 89.5147 157.168C89.9347 156.981 90.4247 156.888 90.9847 156.888C91.4887 156.888 91.9367 156.944 92.3287 157.056C92.73 157.168 93.122 157.359 93.5047 157.63C93.654 157.742 93.7287 157.868 93.7287 158.008C93.7287 158.101 93.682 158.209 93.5887 158.33L93.4067 158.554C93.304 158.685 93.178 158.75 93.0287 158.75C92.9167 158.75 92.8093 158.713 92.7067 158.638C92.3987 158.433 92.114 158.293 91.8527 158.218C91.5913 158.134 91.2973 158.092 90.9707 158.092C90.5693 158.092 90.2473 158.171 90.0047 158.33C89.762 158.489 89.6407 158.694 89.6407 158.946C89.6407 159.114 89.6967 159.249 89.8087 159.352C89.93 159.445 90.098 159.529 90.3127 159.604C90.5367 159.669 90.8867 159.753 91.3627 159.856C92.0067 159.996 92.5153 160.155 92.8887 160.332C93.2713 160.5 93.5513 160.719 93.7287 160.99C93.9153 161.251 94.0087 161.592 94.0087 162.012C94.0087 162.665 93.7473 163.197 93.2247 163.608C92.7113 164.009 92.0207 164.21 91.1527 164.21ZM97.9476 164.21C97.3783 164.21 96.8696 164.14 96.4216 164C95.9829 163.851 95.5349 163.594 95.0776 163.23C94.9376 163.127 94.8676 163.011 94.8676 162.88C94.8676 162.777 94.9189 162.665 95.0216 162.544L95.2316 162.306C95.3436 162.175 95.4649 162.11 95.5956 162.11C95.6983 162.11 95.8103 162.157 95.9316 162.25C96.3236 162.539 96.6689 162.74 96.9676 162.852C97.2663 162.955 97.6023 163.006 97.9756 163.006C98.3769 163.006 98.7036 162.927 98.9556 162.768C99.2169 162.6 99.3476 162.376 99.3476 162.096C99.3476 161.881 99.2729 161.713 99.1236 161.592C98.9836 161.461 98.7969 161.363 98.5636 161.298C98.3303 161.223 97.9849 161.139 97.5276 161.046C96.8836 160.906 96.3796 160.757 96.0156 160.598C95.6609 160.43 95.4043 160.22 95.2456 159.968C95.0869 159.716 95.0076 159.394 95.0076 159.002C95.0076 158.601 95.1196 158.241 95.3436 157.924C95.5769 157.607 95.8989 157.355 96.3096 157.168C96.7296 156.981 97.2196 156.888 97.7796 156.888C98.2836 156.888 98.7316 156.944 99.1236 157.056C99.5249 157.168 99.9169 157.359 100.3 157.63C100.449 157.742 100.524 157.868 100.524 158.008C100.524 158.101 100.477 158.209 100.384 158.33L100.202 158.554C100.099 158.685 99.9729 158.75 99.8236 158.75C99.7116 158.75 99.6043 158.713 99.5016 158.638C99.1936 158.433 98.9089 158.293 98.6476 158.218C98.3863 158.134 98.0923 158.092 97.7656 158.092C97.3643 158.092 97.0423 158.171 96.7996 158.33C96.5569 158.489 96.4356 158.694 96.4356 158.946C96.4356 159.114 96.4916 159.249 96.6036 159.352C96.7249 159.445 96.8929 159.529 97.1076 159.604C97.3316 159.669 97.6816 159.753 98.1576 159.856C98.8016 159.996 99.3103 160.155 99.6836 160.332C100.066 160.5 100.346 160.719 100.524 160.99C100.71 161.251 100.804 161.592 100.804 162.012C100.804 162.665 100.542 163.197 100.02 163.608C99.5063 164.009 98.8156 164.21 97.9476 164.21ZM109.825 157.518C109.891 157.238 110.073 157.098 110.371 157.098H110.889C111.029 157.098 111.137 157.131 111.211 157.196C111.295 157.252 111.337 157.341 111.337 157.462C111.337 157.49 111.328 157.551 111.309 157.644L109.643 163.58C109.578 163.86 109.396 164 109.097 164H108.187C107.907 164 107.725 163.86 107.641 163.58L107.179 161.956C106.974 161.237 106.745 160.337 106.493 159.254L106.423 158.946C106.171 160.085 105.929 161.093 105.695 161.97L105.261 163.58C105.196 163.86 105.014 164 104.715 164H103.819C103.539 164 103.357 163.86 103.273 163.58L101.593 157.644C101.575 157.551 101.565 157.49 101.565 157.462C101.565 157.341 101.603 157.252 101.677 157.196C101.761 157.131 101.873 157.098 102.013 157.098H102.559C102.858 157.098 103.04 157.238 103.105 157.518L103.609 159.506C103.805 160.234 104.034 161.205 104.295 162.418L104.351 162.698C104.622 161.447 104.874 160.383 105.107 159.506L105.639 157.518C105.705 157.238 105.887 157.098 106.185 157.098H106.717C107.016 157.098 107.198 157.238 107.263 157.518L107.809 159.506C108.071 160.477 108.332 161.541 108.593 162.698C108.789 161.699 109.032 160.635 109.321 159.506L109.825 157.518ZM115.581 164.21C114.9 164.21 114.293 164.056 113.761 163.748C113.238 163.44 112.828 163.011 112.529 162.46C112.23 161.9 112.081 161.261 112.081 160.542C112.081 159.823 112.23 159.189 112.529 158.638C112.828 158.087 113.238 157.658 113.761 157.35C114.293 157.042 114.9 156.888 115.581 156.888C116.253 156.888 116.855 157.042 117.387 157.35C117.919 157.658 118.334 158.092 118.633 158.652C118.932 159.203 119.081 159.833 119.081 160.542C119.081 161.261 118.932 161.9 118.633 162.46C118.334 163.011 117.919 163.44 117.387 163.748C116.855 164.056 116.253 164.21 115.581 164.21ZM115.581 162.964C116.178 162.964 116.659 162.745 117.023 162.306C117.387 161.858 117.569 161.27 117.569 160.542C117.569 159.823 117.387 159.245 117.023 158.806C116.659 158.367 116.178 158.148 115.581 158.148C114.984 158.148 114.503 158.367 114.139 158.806C113.775 159.245 113.593 159.823 113.593 160.542C113.593 161.27 113.775 161.858 114.139 162.306C114.503 162.745 114.984 162.964 115.581 162.964ZM123.497 157.028C123.702 157.028 123.912 157.051 124.127 157.098C124.379 157.154 124.505 157.303 124.505 157.546C124.505 157.611 124.5 157.658 124.491 157.686L124.421 158.022C124.365 158.283 124.225 158.414 124.001 158.414L123.875 158.4C123.707 158.372 123.558 158.358 123.427 158.358C122.96 158.358 122.582 158.545 122.293 158.918C122.013 159.282 121.873 159.791 121.873 160.444V163.51C121.873 163.659 121.831 163.781 121.747 163.874C121.663 163.958 121.542 164 121.383 164H120.879C120.73 164 120.608 163.958 120.515 163.874C120.431 163.781 120.389 163.659 120.389 163.51V157.588C120.389 157.429 120.431 157.308 120.515 157.224C120.608 157.14 120.73 157.098 120.879 157.098H121.285C121.444 157.098 121.565 157.14 121.649 157.224C121.733 157.308 121.775 157.429 121.775 157.588V158.134C121.943 157.789 122.172 157.518 122.461 157.322C122.75 157.126 123.096 157.028 123.497 157.028ZM130.114 154.536C130.114 154.377 130.156 154.256 130.24 154.172C130.334 154.088 130.455 154.046 130.604 154.046H131.108C131.267 154.046 131.388 154.088 131.472 154.172C131.556 154.256 131.598 154.377 131.598 154.536V163.51C131.598 163.659 131.556 163.781 131.472 163.874C131.388 163.958 131.267 164 131.108 164H130.702C130.553 164 130.432 163.958 130.338 163.874C130.254 163.781 130.212 163.659 130.212 163.51V163.02C129.727 163.804 128.966 164.196 127.93 164.196C127.352 164.196 126.829 164.047 126.362 163.748C125.905 163.449 125.546 163.025 125.284 162.474C125.023 161.923 124.892 161.284 124.892 160.556C124.892 159.837 125.023 159.203 125.284 158.652C125.555 158.101 125.924 157.677 126.39 157.378C126.857 157.079 127.38 156.93 127.958 156.93C128.91 156.93 129.629 157.261 130.114 157.924V154.536ZM128.238 162.922C128.808 162.922 129.274 162.712 129.638 162.292C130.002 161.863 130.184 161.284 130.184 160.556C130.184 159.828 130.002 159.254 129.638 158.834C129.274 158.414 128.808 158.204 128.238 158.204C127.688 158.204 127.244 158.419 126.908 158.848C126.572 159.277 126.404 159.847 126.404 160.556C126.404 161.275 126.568 161.849 126.894 162.278C127.23 162.707 127.678 162.922 128.238 162.922Z" fill="#D91F0A"/>
<rect x="71.5" y="172.5" width="202" height="47" rx="3.5" fill="white"/>
<rect x="71.5" y="172.5" width="202" height="47" rx="3.5" stroke="#D91F0A"/>
<path d="M72.272 236C72.112 236 72.032 235.92 72.032 235.76V227.72C72.032 227.56 72.112 227.48 72.272 227.48H75.5C76.324 227.48 76.988 227.696 77.492 228.128C77.996 228.56 78.248 229.172 78.248 229.964C78.248 230.756 77.996 231.372 77.492 231.812C76.988 232.244 76.324 232.46 75.5 232.46H72.884V235.76C72.884 235.92 72.804 236 72.644 236H72.272ZM75.392 231.752C76.016 231.752 76.508 231.6 76.868 231.296C77.228 230.992 77.408 230.548 77.408 229.964C77.408 229.388 77.228 228.948 76.868 228.644C76.508 228.34 76.016 228.188 75.392 228.188H72.884V231.752H75.392ZM81.5039 229.94C82.2319 229.94 82.7999 230.116 83.2079 230.468C83.6159 230.812 83.8199 231.268 83.8199 231.836V235.76C83.8199 235.92 83.7399 236 83.5799 236H83.3399C83.1799 236 83.0999 235.92 83.0999 235.76V235.22C82.8999 235.54 82.6159 235.78 82.2479 235.94C81.8879 236.1 81.4839 236.18 81.0359 236.18C80.4119 236.18 79.9039 236.048 79.5119 235.784C79.1199 235.52 78.9239 235.112 78.9239 234.56C78.9239 234.12 79.0479 233.768 79.2959 233.504C79.5439 233.232 79.8679 233.028 80.2679 232.892C80.6679 232.748 81.1679 232.62 81.7679 232.508L83.0639 232.28V231.896C83.0639 231.488 82.9239 231.172 82.6439 230.948C82.3639 230.716 81.9959 230.6 81.5399 230.6C81.1959 230.6 80.8839 230.664 80.6039 230.792C80.3239 230.92 80.0239 231.14 79.7039 231.452C79.6479 231.508 79.5879 231.536 79.5239 231.536C79.4679 231.536 79.4159 231.512 79.3679 231.464L79.2119 231.32C79.1559 231.264 79.1279 231.204 79.1279 231.14C79.1279 231.068 79.1559 231.004 79.2119 230.948C79.5479 230.596 79.8999 230.34 80.2679 230.18C80.6439 230.02 81.0559 229.94 81.5039 229.94ZM81.0719 235.52C81.6479 235.52 82.1239 235.368 82.4999 235.064C82.8759 234.76 83.0639 234.372 83.0639 233.9V232.892L81.9479 233.108C81.4279 233.212 81.0159 233.312 80.7119 233.408C80.4079 233.504 80.1639 233.644 79.9799 233.828C79.7959 234.012 79.7039 234.252 79.7039 234.548C79.7039 234.852 79.8239 235.092 80.0639 235.268C80.3119 235.436 80.6479 235.52 81.0719 235.52ZM87.6395 236.156C87.1515 236.156 86.7195 236.088 86.3435 235.952C85.9755 235.808 85.5875 235.568 85.1795 235.232C85.1075 235.184 85.0715 235.128 85.0715 235.064C85.0715 235.008 85.0995 234.952 85.1555 234.896L85.3115 234.728C85.3595 234.664 85.4195 234.632 85.4915 234.632C85.5475 234.632 85.5995 234.656 85.6475 234.704C86.0315 235 86.3715 235.208 86.6675 235.328C86.9635 235.44 87.2875 235.496 87.6395 235.496C88.0795 235.496 88.4395 235.4 88.7195 235.208C88.9995 235.008 89.1395 234.74 89.1395 234.404C89.1395 234.068 88.9955 233.82 88.7075 233.66C88.4195 233.5 87.9755 233.356 87.3755 233.228C86.8475 233.116 86.4315 233 86.1275 232.88C85.8315 232.752 85.6115 232.592 85.4675 232.4C85.3235 232.208 85.2515 231.956 85.2515 231.644C85.2515 231.132 85.4595 230.72 85.8755 230.408C86.2915 230.096 86.8155 229.94 87.4475 229.94C87.8795 229.94 88.2635 229.996 88.5995 230.108C88.9435 230.212 89.2875 230.388 89.6315 230.636C89.7035 230.692 89.7395 230.752 89.7395 230.816C89.7395 230.856 89.7195 230.908 89.6795 230.972L89.5355 231.152C89.4955 231.216 89.4395 231.248 89.3675 231.248C89.3035 231.248 89.2475 231.228 89.1995 231.188C88.8715 230.956 88.5795 230.8 88.3235 230.72C88.0755 230.64 87.7915 230.6 87.4715 230.6C87.0315 230.6 86.6795 230.696 86.4155 230.888C86.1515 231.08 86.0195 231.324 86.0195 231.62C86.0195 231.804 86.0795 231.952 86.1995 232.064C86.3195 232.176 86.4915 232.272 86.7155 232.352C86.9395 232.424 87.2675 232.508 87.6995 232.604C88.4995 232.78 89.0675 232.996 89.4035 233.252C89.7475 233.508 89.9195 233.88 89.9195 234.368C89.9195 234.904 89.7075 235.336 89.2835 235.664C88.8595 235.992 88.3115 236.156 87.6395 236.156ZM93.3231 236.156C92.8351 236.156 92.4031 236.088 92.0271 235.952C91.6591 235.808 91.2711 235.568 90.8631 235.232C90.7911 235.184 90.7551 235.128 90.7551 235.064C90.7551 235.008 90.7831 234.952 90.8391 234.896L90.9951 234.728C91.0431 234.664 91.1031 234.632 91.1751 234.632C91.2311 234.632 91.2831 234.656 91.3311 234.704C91.7151 235 92.0551 235.208 92.3511 235.328C92.6471 235.44 92.9711 235.496 93.3231 235.496C93.7631 235.496 94.1231 235.4 94.4031 235.208C94.6831 235.008 94.8231 234.74 94.8231 234.404C94.8231 234.068 94.6791 233.82 94.3911 233.66C94.1031 233.5 93.6591 233.356 93.0591 233.228C92.5311 233.116 92.1151 233 91.8111 232.88C91.5151 232.752 91.2951 232.592 91.1511 232.4C91.0071 232.208 90.9351 231.956 90.9351 231.644C90.9351 231.132 91.1431 230.72 91.5591 230.408C91.9751 230.096 92.4991 229.94 93.1311 229.94C93.5631 229.94 93.9471 229.996 94.2831 230.108C94.6271 230.212 94.9711 230.388 95.3151 230.636C95.3871 230.692 95.4231 230.752 95.4231 230.816C95.4231 230.856 95.4031 230.908 95.3631 230.972L95.2191 231.152C95.1791 231.216 95.1231 231.248 95.0511 231.248C94.9871 231.248 94.9311 231.228 94.8831 231.188C94.5551 230.956 94.2631 230.8 94.0071 230.72C93.7591 230.64 93.4751 230.6 93.1551 230.6C92.7151 230.6 92.3631 230.696 92.0991 230.888C91.8351 231.08 91.7031 231.324 91.7031 231.62C91.7031 231.804 91.7631 231.952 91.8831 232.064C92.0031 232.176 92.1751 232.272 92.3991 232.352C92.6231 232.424 92.9511 232.508 93.3831 232.604C94.1831 232.78 94.7511 232.996 95.0871 233.252C95.4311 233.508 95.6031 233.88 95.6031 234.368C95.6031 234.904 95.3911 235.336 94.9671 235.664C94.5431 235.992 93.9951 236.156 93.3231 236.156ZM103.496 230.288C103.528 230.152 103.62 230.084 103.772 230.084H104.096C104.184 230.084 104.244 230.108 104.276 230.156C104.316 230.204 104.324 230.268 104.3 230.348L102.752 235.796C102.72 235.932 102.628 236 102.476 236H101.936C101.8 236 101.712 235.932 101.672 235.796L101.12 233.96C100.832 233 100.564 232.016 100.316 231.008C100.076 231.984 99.8118 232.976 99.5238 233.984L98.9958 235.796C98.9638 235.932 98.8718 236 98.7198 236H98.2038C98.0518 236 97.9598 235.932 97.9278 235.796L96.3798 230.348C96.3718 230.332 96.3678 230.304 96.3678 230.264C96.3678 230.208 96.3878 230.164 96.4278 230.132C96.4678 230.1 96.5198 230.084 96.5838 230.084H96.9078C97.0598 230.084 97.1518 230.152 97.1838 230.288L97.7598 232.412C98.0238 233.38 98.2678 234.344 98.4918 235.304C98.6678 234.592 98.9278 233.628 99.2718 232.412L99.8838 230.288C99.9158 230.152 100.008 230.084 100.16 230.084H100.52C100.664 230.084 100.752 230.152 100.784 230.288L101.408 232.412C101.68 233.396 101.936 234.364 102.176 235.316C102.36 234.516 102.608 233.548 102.92 232.412L103.496 230.288ZM107.91 236.156C107.358 236.156 106.866 236.024 106.434 235.76C106.002 235.496 105.666 235.132 105.426 234.668C105.186 234.196 105.066 233.656 105.066 233.048C105.066 232.44 105.186 231.904 105.426 231.44C105.666 230.968 106.002 230.6 106.434 230.336C106.866 230.072 107.358 229.94 107.91 229.94C108.462 229.94 108.954 230.072 109.386 230.336C109.818 230.6 110.154 230.968 110.394 231.44C110.634 231.904 110.754 232.44 110.754 233.048C110.754 233.656 110.634 234.196 110.394 234.668C110.154 235.132 109.818 235.496 109.386 235.76C108.954 236.024 108.462 236.156 107.91 236.156ZM107.91 235.496C108.526 235.496 109.018 235.272 109.386 234.824C109.754 234.368 109.938 233.776 109.938 233.048C109.938 232.32 109.754 231.732 109.386 231.284C109.018 230.828 108.526 230.6 107.91 230.6C107.294 230.6 106.802 230.828 106.434 231.284C106.066 231.732 105.882 232.32 105.882 233.048C105.882 233.776 106.066 234.368 106.434 234.824C106.802 235.272 107.294 235.496 107.91 235.496ZM114.338 230.036C114.538 230.036 114.774 230.068 115.046 230.132C115.19 230.18 115.246 230.28 115.214 230.432L115.166 230.624C115.126 230.776 115.026 230.832 114.866 230.792C114.674 230.744 114.498 230.72 114.338 230.72C113.93 230.72 113.59 230.896 113.318 231.248C113.054 231.6 112.922 232.088 112.922 232.712V235.76C112.922 235.92 112.842 236 112.682 236H112.37C112.21 236 112.13 235.92 112.13 235.76V230.324C112.13 230.164 112.21 230.084 112.37 230.084H112.634C112.794 230.084 112.874 230.164 112.874 230.324V230.984C113.01 230.688 113.202 230.456 113.45 230.288C113.706 230.12 114.002 230.036 114.338 230.036ZM120.234 227.72C120.234 227.56 120.314 227.48 120.474 227.48H120.786C120.946 227.48 121.026 227.56 121.026 227.72V235.76C121.026 235.92 120.946 236 120.786 236H120.534C120.374 236 120.294 235.92 120.294 235.76V234.98C120.078 235.356 119.794 235.644 119.442 235.844C119.09 236.044 118.674 236.144 118.194 236.144C117.69 236.144 117.242 236.016 116.85 235.76C116.458 235.496 116.15 235.132 115.926 234.668C115.702 234.196 115.59 233.656 115.59 233.048C115.59 232.44 115.702 231.904 115.926 231.44C116.158 230.968 116.474 230.604 116.874 230.348C117.274 230.084 117.722 229.952 118.218 229.952C119.13 229.952 119.802 230.292 120.234 230.972V227.72ZM118.254 235.472C118.854 235.472 119.338 235.26 119.706 234.836C120.082 234.404 120.27 233.808 120.27 233.048C120.27 232.296 120.082 231.704 119.706 231.272C119.338 230.84 118.854 230.624 118.254 230.624C117.702 230.624 117.254 230.848 116.91 231.296C116.574 231.744 116.406 232.328 116.406 233.048C116.406 233.776 116.574 234.364 116.91 234.812C117.246 235.252 117.694 235.472 118.254 235.472ZM124.87 236.156C124.382 236.156 123.95 236.088 123.574 235.952C123.206 235.808 122.818 235.568 122.41 235.232C122.338 235.184 122.302 235.128 122.302 235.064C122.302 235.008 122.33 234.952 122.386 234.896L122.542 234.728C122.59 234.664 122.65 234.632 122.722 234.632C122.778 234.632 122.83 234.656 122.878 234.704C123.262 235 123.602 235.208 123.898 235.328C124.194 235.44 124.518 235.496 124.87 235.496C125.31 235.496 125.67 235.4 125.95 235.208C126.23 235.008 126.37 234.74 126.37 234.404C126.37 234.068 126.226 233.82 125.938 233.66C125.65 233.5 125.206 233.356 124.606 233.228C124.078 233.116 123.662 233 123.358 232.88C123.062 232.752 122.842 232.592 122.698 232.4C122.554 232.208 122.482 231.956 122.482 231.644C122.482 231.132 122.69 230.72 123.106 230.408C123.522 230.096 124.046 229.94 124.678 229.94C125.11 229.94 125.494 229.996 125.83 230.108C126.174 230.212 126.518 230.388 126.862 230.636C126.934 230.692 126.97 230.752 126.97 230.816C126.97 230.856 126.95 230.908 126.91 230.972L126.766 231.152C126.726 231.216 126.67 231.248 126.598 231.248C126.534 231.248 126.478 231.228 126.43 231.188C126.102 230.956 125.81 230.8 125.554 230.72C125.306 230.64 125.022 230.6 124.702 230.6C124.262 230.6 123.91 230.696 123.646 230.888C123.382 231.08 123.25 231.324 123.25 231.62C123.25 231.804 123.31 231.952 123.43 232.064C123.55 232.176 123.722 232.272 123.946 232.352C124.17 232.424 124.498 232.508 124.93 232.604C125.73 232.78 126.298 232.996 126.634 233.252C126.978 233.508 127.15 233.88 127.15 234.368C127.15 234.904 126.938 235.336 126.514 235.664C126.09 235.992 125.542 236.156 124.87 236.156ZM137.267 229.94C137.907 229.94 138.395 230.124 138.731 230.492C139.075 230.852 139.247 231.316 139.247 231.884V235.76C139.247 235.92 139.167 236 139.007 236H138.695C138.535 236 138.455 235.92 138.455 235.76V232.1C138.455 231.62 138.343 231.252 138.119 230.996C137.903 230.74 137.579 230.612 137.147 230.612C136.691 230.612 136.327 230.764 136.055 231.068C135.783 231.372 135.647 231.764 135.647 232.244V235.76C135.647 235.92 135.567 236 135.407 236H135.095C134.935 236 134.855 235.92 134.855 235.76V232.1C134.855 231.62 134.743 231.252 134.519 230.996C134.303 230.74 133.975 230.612 133.535 230.612C133.127 230.612 132.787 230.74 132.515 230.996C132.251 231.252 132.095 231.588 132.047 232.004V235.76C132.047 235.92 131.967 236 131.807 236H131.495C131.335 236 131.255 235.92 131.255 235.76V230.324C131.255 230.164 131.335 230.084 131.495 230.084H131.759C131.919 230.084 131.999 230.164 131.999 230.324V230.816C132.359 230.232 132.931 229.94 133.715 229.94C134.123 229.94 134.471 230.032 134.759 230.216C135.055 230.392 135.275 230.632 135.419 230.936C135.843 230.272 136.459 229.94 137.267 229.94ZM144.798 230.324C144.798 230.164 144.878 230.084 145.038 230.084H145.35C145.51 230.084 145.59 230.164 145.59 230.324V235.76C145.59 235.92 145.51 236 145.35 236H145.098C144.938 236 144.858 235.92 144.858 235.76V235.22C144.682 235.532 144.43 235.768 144.102 235.928C143.782 236.08 143.43 236.156 143.046 236.156C142.326 236.156 141.794 235.976 141.45 235.616C141.106 235.248 140.934 234.776 140.934 234.2V230.324C140.934 230.164 141.014 230.084 141.174 230.084H141.486C141.646 230.084 141.726 230.164 141.726 230.324V234.032C141.726 234.504 141.842 234.864 142.074 235.112C142.314 235.352 142.654 235.472 143.094 235.472C143.59 235.472 143.998 235.32 144.318 235.016C144.638 234.712 144.798 234.28 144.798 233.72V230.324ZM149.432 236.156C148.944 236.156 148.512 236.088 148.136 235.952C147.768 235.808 147.38 235.568 146.972 235.232C146.9 235.184 146.864 235.128 146.864 235.064C146.864 235.008 146.892 234.952 146.948 234.896L147.104 234.728C147.152 234.664 147.212 234.632 147.284 234.632C147.34 234.632 147.392 234.656 147.44 234.704C147.824 235 148.164 235.208 148.46 235.328C148.756 235.44 149.08 235.496 149.432 235.496C149.872 235.496 150.232 235.4 150.512 235.208C150.792 235.008 150.932 234.74 150.932 234.404C150.932 234.068 150.788 233.82 150.5 233.66C150.212 233.5 149.768 233.356 149.168 233.228C148.64 233.116 148.224 233 147.92 232.88C147.624 232.752 147.404 232.592 147.26 232.4C147.116 232.208 147.044 231.956 147.044 231.644C147.044 231.132 147.252 230.72 147.668 230.408C148.084 230.096 148.608 229.94 149.24 229.94C149.672 229.94 150.056 229.996 150.392 230.108C150.736 230.212 151.08 230.388 151.424 230.636C151.496 230.692 151.532 230.752 151.532 230.816C151.532 230.856 151.512 230.908 151.472 230.972L151.328 231.152C151.288 231.216 151.232 231.248 151.16 231.248C151.096 231.248 151.04 231.228 150.992 231.188C150.664 230.956 150.372 230.8 150.116 230.72C149.868 230.64 149.584 230.6 149.264 230.6C148.824 230.6 148.472 230.696 148.208 230.888C147.944 231.08 147.812 231.324 147.812 231.62C147.812 231.804 147.872 231.952 147.992 232.064C148.112 232.176 148.284 232.272 148.508 232.352C148.732 232.424 149.06 232.508 149.492 232.604C150.292 232.78 150.86 232.996 151.196 233.252C151.54 233.508 151.712 233.88 151.712 234.368C151.712 234.904 151.5 235.336 151.076 235.664C150.652 235.992 150.104 236.156 149.432 236.156ZM155.693 235.34C155.717 235.332 155.749 235.328 155.789 235.328C155.837 235.328 155.881 235.344 155.921 235.376C155.961 235.408 155.985 235.452 155.993 235.508L156.029 235.676C156.037 235.692 156.041 235.72 156.041 235.76C156.041 235.872 155.981 235.94 155.861 235.964C155.573 236.052 155.265 236.096 154.937 236.096C154.417 236.096 154.045 235.98 153.821 235.748C153.605 235.508 153.497 235.164 153.497 234.716V230.684H152.609C152.449 230.684 152.369 230.604 152.369 230.444V230.324C152.369 230.164 152.449 230.084 152.609 230.084H153.497V228.26C153.497 228.1 153.577 228.02 153.737 228.02H154.049C154.209 228.02 154.289 228.1 154.289 228.26V230.084H155.729C155.889 230.084 155.969 230.164 155.969 230.324V230.444C155.969 230.604 155.889 230.684 155.729 230.684H154.289V234.62C154.289 234.916 154.345 235.124 154.457 235.244C154.569 235.364 154.761 235.424 155.033 235.424C155.225 235.424 155.445 235.396 155.693 235.34ZM162.775 229.952C163.279 229.952 163.727 230.084 164.119 230.348C164.519 230.604 164.827 230.968 165.043 231.44C165.267 231.904 165.379 232.44 165.379 233.048C165.379 233.656 165.267 234.196 165.043 234.668C164.819 235.132 164.507 235.496 164.107 235.76C163.715 236.016 163.271 236.144 162.775 236.144C161.823 236.144 161.127 235.776 160.687 235.04V235.76C160.687 235.92 160.607 236 160.447 236H160.183C160.023 236 159.943 235.92 159.943 235.76V227.708C159.943 227.548 160.023 227.468 160.183 227.468H160.495C160.655 227.468 160.735 227.548 160.735 227.708V231.02C161.175 230.308 161.855 229.952 162.775 229.952ZM162.715 235.472C163.267 235.472 163.711 235.248 164.047 234.8C164.391 234.352 164.563 233.768 164.563 233.048C164.563 232.328 164.391 231.744 164.047 231.296C163.711 230.848 163.267 230.624 162.715 230.624C162.123 230.624 161.639 230.84 161.263 231.272C160.887 231.704 160.699 232.296 160.699 233.048C160.699 233.808 160.883 234.404 161.251 234.836C161.627 235.26 162.115 235.472 162.715 235.472ZM171.165 234.596C171.221 234.54 171.281 234.512 171.345 234.512C171.401 234.512 171.453 234.536 171.501 234.584L171.657 234.728C171.713 234.784 171.741 234.844 171.741 234.908C171.741 234.956 171.717 235.012 171.669 235.076C171.277 235.468 170.897 235.748 170.529 235.916C170.161 236.076 169.749 236.156 169.293 236.156C168.717 236.156 168.217 236.028 167.793 235.772C167.369 235.516 167.041 235.16 166.809 234.704C166.577 234.24 166.461 233.704 166.461 233.096C166.461 232.48 166.573 231.936 166.797 231.464C167.029 230.984 167.353 230.612 167.769 230.348C168.185 230.076 168.665 229.94 169.209 229.94C170.017 229.94 170.653 230.192 171.117 230.696C171.581 231.2 171.813 231.88 171.813 232.736V232.88C171.805 232.952 171.777 233.008 171.729 233.048C171.689 233.088 171.633 233.108 171.561 233.108H167.265C167.289 233.78 167.465 234.348 167.793 234.812C168.129 235.268 168.629 235.496 169.293 235.496C169.653 235.496 169.969 235.432 170.241 235.304C170.521 235.168 170.829 234.932 171.165 234.596ZM169.209 230.6C168.681 230.6 168.245 230.764 167.901 231.092C167.565 231.412 167.361 231.884 167.289 232.508H171.021C171.005 231.924 170.837 231.46 170.517 231.116C170.197 230.772 169.761 230.6 169.209 230.6ZM178.277 229.94C179.005 229.94 179.573 230.116 179.981 230.468C180.389 230.812 180.593 231.268 180.593 231.836V235.76C180.593 235.92 180.513 236 180.353 236H180.113C179.953 236 179.873 235.92 179.873 235.76V235.22C179.673 235.54 179.389 235.78 179.021 235.94C178.661 236.1 178.257 236.18 177.809 236.18C177.185 236.18 176.677 236.048 176.285 235.784C175.893 235.52 175.697 235.112 175.697 234.56C175.697 234.12 175.821 233.768 176.069 233.504C176.317 233.232 176.641 233.028 177.041 232.892C177.441 232.748 177.941 232.62 178.541 232.508L179.837 232.28V231.896C179.837 231.488 179.697 231.172 179.417 230.948C179.137 230.716 178.769 230.6 178.313 230.6C177.969 230.6 177.657 230.664 177.377 230.792C177.097 230.92 176.797 231.14 176.477 231.452C176.421 231.508 176.361 231.536 176.297 231.536C176.241 231.536 176.189 231.512 176.141 231.464L175.985 231.32C175.929 231.264 175.901 231.204 175.901 231.14C175.901 231.068 175.929 231.004 175.985 230.948C176.321 230.596 176.673 230.34 177.041 230.18C177.417 230.02 177.829 229.94 178.277 229.94ZM177.845 235.52C178.421 235.52 178.897 235.368 179.273 235.064C179.649 234.76 179.837 234.372 179.837 233.9V232.892L178.721 233.108C178.201 233.212 177.789 233.312 177.485 233.408C177.181 233.504 176.937 233.644 176.753 233.828C176.569 234.012 176.477 234.252 176.477 234.548C176.477 234.852 176.597 235.092 176.837 235.268C177.085 235.436 177.421 235.52 177.845 235.52ZM184.849 235.34C184.873 235.332 184.905 235.328 184.945 235.328C184.993 235.328 185.037 235.344 185.077 235.376C185.117 235.408 185.141 235.452 185.149 235.508L185.185 235.676C185.193 235.692 185.197 235.72 185.197 235.76C185.197 235.872 185.137 235.94 185.017 235.964C184.729 236.052 184.421 236.096 184.093 236.096C183.573 236.096 183.201 235.98 182.977 235.748C182.761 235.508 182.653 235.164 182.653 234.716V230.684H181.765C181.605 230.684 181.525 230.604 181.525 230.444V230.324C181.525 230.164 181.605 230.084 181.765 230.084H182.653V228.26C182.653 228.1 182.733 228.02 182.893 228.02H183.205C183.365 228.02 183.445 228.1 183.445 228.26V230.084H184.885C185.045 230.084 185.125 230.164 185.125 230.324V230.444C185.125 230.604 185.045 230.684 184.885 230.684H183.445V234.62C183.445 234.916 183.501 235.124 183.613 235.244C183.725 235.364 183.917 235.424 184.189 235.424C184.381 235.424 184.601 235.396 184.849 235.34ZM189.351 236C189.191 236 189.111 235.92 189.111 235.76V227.72C189.111 227.56 189.191 227.48 189.351 227.48H189.663C189.823 227.48 189.903 227.56 189.903 227.72V235.76C189.903 235.92 189.823 236 189.663 236H189.351ZM195.997 234.596C196.053 234.54 196.113 234.512 196.177 234.512C196.233 234.512 196.285 234.536 196.333 234.584L196.489 234.728C196.545 234.784 196.573 234.844 196.573 234.908C196.573 234.956 196.549 235.012 196.501 235.076C196.109 235.468 195.729 235.748 195.361 235.916C194.993 236.076 194.581 236.156 194.125 236.156C193.549 236.156 193.049 236.028 192.625 235.772C192.201 235.516 191.873 235.16 191.641 234.704C191.409 234.24 191.293 233.704 191.293 233.096C191.293 232.48 191.405 231.936 191.629 231.464C191.861 230.984 192.185 230.612 192.601 230.348C193.017 230.076 193.497 229.94 194.041 229.94C194.849 229.94 195.485 230.192 195.949 230.696C196.413 231.2 196.645 231.88 196.645 232.736V232.88C196.637 232.952 196.609 233.008 196.561 233.048C196.521 233.088 196.465 233.108 196.393 233.108H192.097C192.121 233.78 192.297 234.348 192.625 234.812C192.961 235.268 193.461 235.496 194.125 235.496C194.485 235.496 194.801 235.432 195.073 235.304C195.353 235.168 195.661 234.932 195.997 234.596ZM194.041 230.6C193.513 230.6 193.077 230.764 192.733 231.092C192.397 231.412 192.193 231.884 192.121 232.508H195.853C195.837 231.924 195.669 231.46 195.349 231.116C195.029 230.772 194.593 230.6 194.041 230.6ZM200.238 229.94C200.966 229.94 201.534 230.116 201.942 230.468C202.35 230.812 202.554 231.268 202.554 231.836V235.76C202.554 235.92 202.474 236 202.314 236H202.074C201.914 236 201.834 235.92 201.834 235.76V235.22C201.634 235.54 201.35 235.78 200.982 235.94C200.622 236.1 200.218 236.18 199.77 236.18C199.146 236.18 198.638 236.048 198.246 235.784C197.854 235.52 197.658 235.112 197.658 234.56C197.658 234.12 197.782 233.768 198.03 233.504C198.278 233.232 198.602 233.028 199.002 232.892C199.402 232.748 199.902 232.62 200.502 232.508L201.798 232.28V231.896C201.798 231.488 201.658 231.172 201.378 230.948C201.098 230.716 200.73 230.6 200.274 230.6C199.93 230.6 199.618 230.664 199.338 230.792C199.058 230.92 198.758 231.14 198.438 231.452C198.382 231.508 198.322 231.536 198.258 231.536C198.202 231.536 198.15 231.512 198.102 231.464L197.946 231.32C197.89 231.264 197.862 231.204 197.862 231.14C197.862 231.068 197.89 231.004 197.946 230.948C198.282 230.596 198.634 230.34 199.002 230.18C199.378 230.02 199.79 229.94 200.238 229.94ZM199.806 235.52C200.382 235.52 200.858 235.368 201.234 235.064C201.61 234.76 201.798 234.372 201.798 233.9V232.892L200.682 233.108C200.162 233.212 199.75 233.312 199.446 233.408C199.142 233.504 198.898 233.644 198.714 233.828C198.53 234.012 198.438 234.252 198.438 234.548C198.438 234.852 198.558 235.092 198.798 235.268C199.046 235.436 199.382 235.52 199.806 235.52ZM206.374 236.156C205.886 236.156 205.454 236.088 205.078 235.952C204.71 235.808 204.322 235.568 203.914 235.232C203.842 235.184 203.806 235.128 203.806 235.064C203.806 235.008 203.834 234.952 203.89 234.896L204.046 234.728C204.094 234.664 204.154 234.632 204.226 234.632C204.282 234.632 204.334 234.656 204.382 234.704C204.766 235 205.106 235.208 205.402 235.328C205.698 235.44 206.022 235.496 206.374 235.496C206.814 235.496 207.174 235.4 207.454 235.208C207.734 235.008 207.874 234.74 207.874 234.404C207.874 234.068 207.73 233.82 207.442 233.66C207.154 233.5 206.71 233.356 206.11 233.228C205.582 233.116 205.166 233 204.862 232.88C204.566 232.752 204.346 232.592 204.202 232.4C204.058 232.208 203.986 231.956 203.986 231.644C203.986 231.132 204.194 230.72 204.61 230.408C205.026 230.096 205.55 229.94 206.182 229.94C206.614 229.94 206.998 229.996 207.334 230.108C207.678 230.212 208.022 230.388 208.366 230.636C208.438 230.692 208.474 230.752 208.474 230.816C208.474 230.856 208.454 230.908 208.414 230.972L208.27 231.152C208.23 231.216 208.174 231.248 208.102 231.248C208.038 231.248 207.982 231.228 207.934 231.188C207.606 230.956 207.314 230.8 207.058 230.72C206.81 230.64 206.526 230.6 206.206 230.6C205.766 230.6 205.414 230.696 205.15 230.888C204.886 231.08 204.754 231.324 204.754 231.62C204.754 231.804 204.814 231.952 204.934 232.064C205.054 232.176 205.226 232.272 205.45 232.352C205.674 232.424 206.002 232.508 206.434 232.604C207.234 232.78 207.802 232.996 208.138 233.252C208.482 233.508 208.654 233.88 208.654 234.368C208.654 234.904 208.442 235.336 208.018 235.664C207.594 235.992 207.046 236.156 206.374 236.156ZM212.634 235.34C212.658 235.332 212.69 235.328 212.73 235.328C212.778 235.328 212.822 235.344 212.862 235.376C212.902 235.408 212.926 235.452 212.934 235.508L212.97 235.676C212.978 235.692 212.982 235.72 212.982 235.76C212.982 235.872 212.922 235.94 212.802 235.964C212.514 236.052 212.206 236.096 211.878 236.096C211.358 236.096 210.986 235.98 210.762 235.748C210.546 235.508 210.438 235.164 210.438 234.716V230.684H209.55C209.39 230.684 209.31 230.604 209.31 230.444V230.324C209.31 230.164 209.39 230.084 209.55 230.084H210.438V228.26C210.438 228.1 210.518 228.02 210.678 228.02H210.99C211.15 228.02 211.23 228.1 211.23 228.26V230.084H212.67C212.83 230.084 212.91 230.164 212.91 230.324V230.444C212.91 230.604 212.83 230.684 212.67 230.684H211.23V234.62C211.23 234.916 211.286 235.124 211.398 235.244C211.51 235.364 211.702 235.424 211.974 235.424C212.166 235.424 212.386 235.396 212.634 235.34ZM220.976 231.392C221.52 231.584 221.94 231.884 222.236 232.292C222.532 232.692 222.68 233.16 222.68 233.696C222.68 234.168 222.556 234.596 222.308 234.98C222.06 235.356 221.704 235.652 221.24 235.868C220.776 236.084 220.228 236.192 219.596 236.192C218.964 236.192 218.416 236.084 217.952 235.868C217.488 235.652 217.132 235.356 216.884 234.98C216.636 234.596 216.512 234.168 216.512 233.696C216.512 233.16 216.66 232.692 216.956 232.292C217.252 231.884 217.672 231.584 218.216 231.392C217.824 231.216 217.516 230.972 217.292 230.66C217.068 230.34 216.956 229.964 216.956 229.532C216.956 229.1 217.068 228.716 217.292 228.38C217.516 228.044 217.828 227.784 218.228 227.6C218.628 227.408 219.084 227.312 219.596 227.312C220.108 227.312 220.564 227.408 220.964 227.6C221.364 227.784 221.676 228.044 221.9 228.38C222.124 228.716 222.236 229.1 222.236 229.532C222.236 229.964 222.124 230.34 221.9 230.66C221.676 230.972 221.368 231.216 220.976 231.392ZM217.748 229.508C217.748 229.988 217.916 230.372 218.252 230.66C218.596 230.948 219.044 231.092 219.596 231.092C220.148 231.092 220.592 230.948 220.928 230.66C221.272 230.372 221.444 229.988 221.444 229.508C221.444 229.06 221.276 228.696 220.94 228.416C220.612 228.128 220.164 227.984 219.596 227.984C219.028 227.984 218.576 228.128 218.24 228.416C217.912 228.696 217.748 229.06 217.748 229.508ZM219.596 235.484C220.292 235.484 220.84 235.316 221.24 234.98C221.648 234.636 221.852 234.2 221.852 233.672C221.852 233.104 221.648 232.644 221.24 232.292C220.832 231.94 220.284 231.764 219.596 231.764C218.908 231.764 218.36 231.94 217.952 232.292C217.544 232.644 217.34 233.104 217.34 233.672C217.34 234.2 217.54 234.636 217.94 234.98C218.348 235.316 218.9 235.484 219.596 235.484ZM229.233 236.156C228.665 236.156 228.169 236.028 227.745 235.772C227.329 235.508 227.005 235.144 226.773 234.68C226.549 234.208 226.437 233.664 226.437 233.048C226.437 232.44 226.549 231.9 226.773 231.428C227.005 230.956 227.329 230.592 227.745 230.336C228.169 230.072 228.657 229.94 229.209 229.94C229.657 229.94 230.049 230.016 230.385 230.168C230.721 230.312 231.045 230.552 231.357 230.888C231.405 230.936 231.429 230.988 231.429 231.044C231.429 231.116 231.397 231.176 231.333 231.224L231.165 231.38C231.117 231.428 231.061 231.452 230.997 231.452C230.941 231.452 230.881 231.42 230.817 231.356C230.537 231.076 230.269 230.88 230.013 230.768C229.765 230.656 229.489 230.6 229.185 230.6C228.769 230.6 228.413 230.716 228.117 230.948C227.829 231.18 227.613 231.484 227.469 231.86C227.325 232.228 227.253 232.624 227.253 233.048C227.253 233.472 227.325 233.872 227.469 234.248C227.613 234.616 227.833 234.916 228.129 235.148C228.425 235.372 228.789 235.484 229.221 235.484C229.541 235.484 229.821 235.428 230.061 235.316C230.309 235.196 230.585 234.972 230.889 234.644C230.953 234.58 231.013 234.548 231.069 234.548C231.133 234.548 231.189 234.572 231.237 234.62L231.405 234.752C231.461 234.8 231.489 234.856 231.489 234.92C231.489 234.984 231.453 235.06 231.381 235.148C231.045 235.516 230.709 235.776 230.373 235.928C230.037 236.08 229.657 236.156 229.233 236.156ZM235.415 229.94C236.103 229.94 236.627 230.136 236.987 230.528C237.347 230.912 237.527 231.388 237.527 231.956V235.76C237.527 235.92 237.447 236 237.287 236H236.975C236.815 236 236.735 235.92 236.735 235.76V232.22C236.735 231.692 236.607 231.292 236.351 231.02C236.095 230.748 235.727 230.612 235.247 230.612C234.943 230.612 234.663 230.688 234.407 230.84C234.151 230.984 233.947 231.184 233.795 231.44C233.643 231.696 233.567 231.976 233.567 232.28V235.76C233.567 235.92 233.487 236 233.327 236H233.015C232.855 236 232.775 235.92 232.775 235.76V227.72C232.775 227.56 232.855 227.48 233.015 227.48H233.327C233.487 227.48 233.567 227.56 233.567 227.72V230.852C233.759 230.548 234.015 230.32 234.335 230.168C234.663 230.016 235.023 229.94 235.415 229.94ZM241.559 229.94C242.287 229.94 242.855 230.116 243.263 230.468C243.671 230.812 243.875 231.268 243.875 231.836V235.76C243.875 235.92 243.795 236 243.635 236H243.395C243.235 236 243.155 235.92 243.155 235.76V235.22C242.955 235.54 242.671 235.78 242.303 235.94C241.943 236.1 241.539 236.18 241.091 236.18C240.467 236.18 239.959 236.048 239.567 235.784C239.175 235.52 238.979 235.112 238.979 234.56C238.979 234.12 239.103 233.768 239.351 233.504C239.599 233.232 239.923 233.028 240.323 232.892C240.723 232.748 241.223 232.62 241.823 232.508L243.119 232.28V231.896C243.119 231.488 242.979 231.172 242.699 230.948C242.419 230.716 242.051 230.6 241.595 230.6C241.251 230.6 240.939 230.664 240.659 230.792C240.379 230.92 240.079 231.14 239.759 231.452C239.703 231.508 239.643 231.536 239.579 231.536C239.523 231.536 239.471 231.512 239.423 231.464L239.267 231.32C239.211 231.264 239.183 231.204 239.183 231.14C239.183 231.068 239.211 231.004 239.267 230.948C239.603 230.596 239.955 230.34 240.323 230.18C240.699 230.02 241.111 229.94 241.559 229.94ZM241.127 235.52C241.703 235.52 242.179 235.368 242.555 235.064C242.931 234.76 243.119 234.372 243.119 233.9V232.892L242.003 233.108C241.483 233.212 241.071 233.312 240.767 233.408C240.463 233.504 240.219 233.644 240.035 233.828C239.851 234.012 239.759 234.252 239.759 234.548C239.759 234.852 239.879 235.092 240.119 235.268C240.367 235.436 240.703 235.52 241.127 235.52ZM247.838 230.036C248.038 230.036 248.274 230.068 248.546 230.132C248.69 230.18 248.746 230.28 248.714 230.432L248.666 230.624C248.626 230.776 248.526 230.832 248.366 230.792C248.174 230.744 247.998 230.72 247.838 230.72C247.43 230.72 247.09 230.896 246.818 231.248C246.554 231.6 246.422 232.088 246.422 232.712V235.76C246.422 235.92 246.342 236 246.182 236H245.87C245.71 236 245.63 235.92 245.63 235.76V230.324C245.63 230.164 245.71 230.084 245.87 230.084H246.134C246.294 230.084 246.374 230.164 246.374 230.324V230.984C246.51 230.688 246.702 230.456 246.95 230.288C247.206 230.12 247.502 230.036 247.838 230.036ZM251.918 229.94C252.646 229.94 253.214 230.116 253.622 230.468C254.03 230.812 254.234 231.268 254.234 231.836V235.76C254.234 235.92 254.154 236 253.994 236H253.754C253.594 236 253.514 235.92 253.514 235.76V235.22C253.314 235.54 253.03 235.78 252.662 235.94C252.302 236.1 251.898 236.18 251.45 236.18C250.826 236.18 250.318 236.048 249.926 235.784C249.534 235.52 249.338 235.112 249.338 234.56C249.338 234.12 249.462 233.768 249.71 233.504C249.958 233.232 250.282 233.028 250.682 232.892C251.082 232.748 251.582 232.62 252.182 232.508L253.478 232.28V231.896C253.478 231.488 253.338 231.172 253.058 230.948C252.778 230.716 252.41 230.6 251.954 230.6C251.61 230.6 251.298 230.664 251.018 230.792C250.738 230.92 250.438 231.14 250.118 231.452C250.062 231.508 250.002 231.536 249.938 231.536C249.882 231.536 249.83 231.512 249.782 231.464L249.626 231.32C249.57 231.264 249.542 231.204 249.542 231.14C249.542 231.068 249.57 231.004 249.626 230.948C249.962 230.596 250.314 230.34 250.682 230.18C251.058 230.02 251.47 229.94 251.918 229.94ZM251.486 235.52C252.062 235.52 252.538 235.368 252.914 235.064C253.29 234.76 253.478 234.372 253.478 233.9V232.892L252.362 233.108C251.842 233.212 251.43 233.312 251.126 233.408C250.822 233.504 250.578 233.644 250.394 233.828C250.21 234.012 250.118 234.252 250.118 234.548C250.118 234.852 250.238 235.092 250.478 235.268C250.726 235.436 251.062 235.52 251.486 235.52ZM258.39 236.156C257.822 236.156 257.326 236.028 256.902 235.772C256.486 235.508 256.162 235.144 255.93 234.68C255.706 234.208 255.594 233.664 255.594 233.048C255.594 232.44 255.706 231.9 255.93 231.428C256.162 230.956 256.486 230.592 256.902 230.336C257.326 230.072 257.814 229.94 258.366 229.94C258.814 229.94 259.206 230.016 259.542 230.168C259.878 230.312 260.202 230.552 260.514 230.888C260.562 230.936 260.586 230.988 260.586 231.044C260.586 231.116 260.554 231.176 260.49 231.224L260.322 231.38C260.274 231.428 260.218 231.452 260.154 231.452C260.098 231.452 260.038 231.42 259.974 231.356C259.694 231.076 259.426 230.88 259.17 230.768C258.922 230.656 258.646 230.6 258.342 230.6C257.926 230.6 257.57 230.716 257.274 230.948C256.986 231.18 256.77 231.484 256.626 231.86C256.482 232.228 256.41 232.624 256.41 233.048C256.41 233.472 256.482 233.872 256.626 234.248C256.77 234.616 256.99 234.916 257.286 235.148C257.582 235.372 257.946 235.484 258.378 235.484C258.698 235.484 258.978 235.428 259.218 235.316C259.466 235.196 259.742 234.972 260.046 234.644C260.11 234.58 260.17 234.548 260.226 234.548C260.29 234.548 260.346 234.572 260.394 234.62L260.562 234.752C260.618 234.8 260.646 234.856 260.646 234.92C260.646 234.984 260.61 235.06 260.538 235.148C260.202 235.516 259.866 235.776 259.53 235.928C259.194 236.08 258.814 236.156 258.39 236.156ZM264.63 235.34C264.654 235.332 264.686 235.328 264.726 235.328C264.774 235.328 264.818 235.344 264.858 235.376C264.898 235.408 264.922 235.452 264.93 235.508L264.966 235.676C264.974 235.692 264.978 235.72 264.978 235.76C264.978 235.872 264.918 235.94 264.798 235.964C264.51 236.052 264.202 236.096 263.874 236.096C263.354 236.096 262.982 235.98 262.758 235.748C262.542 235.508 262.434 235.164 262.434 234.716V230.684H261.546C261.386 230.684 261.306 230.604 261.306 230.444V230.324C261.306 230.164 261.386 230.084 261.546 230.084H262.434V228.26C262.434 228.1 262.514 228.02 262.674 228.02H262.986C263.146 228.02 263.226 228.1 263.226 228.26V230.084H264.666C264.826 230.084 264.906 230.164 264.906 230.324V230.444C264.906 230.604 264.826 230.684 264.666 230.684H263.226V234.62C263.226 234.916 263.282 235.124 263.394 235.244C263.506 235.364 263.698 235.424 263.97 235.424C264.162 235.424 264.382 235.396 264.63 235.34ZM270.2 234.596C270.256 234.54 270.316 234.512 270.38 234.512C270.436 234.512 270.488 234.536 270.536 234.584L270.692 234.728C270.748 234.784 270.776 234.844 270.776 234.908C270.776 234.956 270.752 235.012 270.704 235.076C270.312 235.468 269.932 235.748 269.564 235.916C269.196 236.076 268.784 236.156 268.328 236.156C267.752 236.156 267.252 236.028 266.828 235.772C266.404 235.516 266.076 235.16 265.844 234.704C265.612 234.24 265.496 233.704 265.496 233.096C265.496 232.48 265.608 231.936 265.832 231.464C266.064 230.984 266.388 230.612 266.804 230.348C267.22 230.076 267.7 229.94 268.244 229.94C269.052 229.94 269.688 230.192 270.152 230.696C270.616 231.2 270.848 231.88 270.848 232.736V232.88C270.84 232.952 270.812 233.008 270.764 233.048C270.724 233.088 270.668 233.108 270.596 233.108H266.3C266.324 233.78 266.5 234.348 266.828 234.812C267.164 235.268 267.664 235.496 268.328 235.496C268.688 235.496 269.004 235.432 269.276 235.304C269.556 235.168 269.864 234.932 270.2 234.596ZM268.244 230.6C267.716 230.6 267.28 230.764 266.936 231.092C266.6 231.412 266.396 231.884 266.324 232.508H270.056C270.04 231.924 269.872 231.46 269.552 231.116C269.232 230.772 268.796 230.6 268.244 230.6ZM274.475 230.036C274.675 230.036 274.911 230.068 275.183 230.132C275.327 230.18 275.383 230.28 275.351 230.432L275.303 230.624C275.263 230.776 275.163 230.832 275.003 230.792C274.811 230.744 274.635 230.72 274.475 230.72C274.067 230.72 273.727 230.896 273.455 231.248C273.191 231.6 273.059 232.088 273.059 232.712V235.76C273.059 235.92 272.979 236 272.819 236H272.507C272.347 236 272.267 235.92 272.267 235.76V230.324C272.267 230.164 272.347 230.084 272.507 230.084H272.771C272.931 230.084 273.011 230.164 273.011 230.324V230.984C273.147 230.688 273.339 230.456 273.587 230.288C273.843 230.12 274.139 230.036 274.475 230.036ZM278.315 236.156C277.827 236.156 277.395 236.088 277.019 235.952C276.651 235.808 276.263 235.568 275.855 235.232C275.783 235.184 275.747 235.128 275.747 235.064C275.747 235.008 275.775 234.952 275.831 234.896L275.987 234.728C276.035 234.664 276.095 234.632 276.167 234.632C276.223 234.632 276.275 234.656 276.323 234.704C276.707 235 277.047 235.208 277.343 235.328C277.639 235.44 277.963 235.496 278.315 235.496C278.755 235.496 279.115 235.4 279.395 235.208C279.675 235.008 279.815 234.74 279.815 234.404C279.815 234.068 279.671 233.82 279.383 233.66C279.095 233.5 278.651 233.356 278.051 233.228C277.523 233.116 277.107 233 276.803 232.88C276.507 232.752 276.287 232.592 276.143 232.4C275.999 232.208 275.927 231.956 275.927 231.644C275.927 231.132 276.135 230.72 276.551 230.408C276.967 230.096 277.491 229.94 278.123 229.94C278.555 229.94 278.939 229.996 279.275 230.108C279.619 230.212 279.963 230.388 280.307 230.636C280.379 230.692 280.415 230.752 280.415 230.816C280.415 230.856 280.395 230.908 280.355 230.972L280.211 231.152C280.171 231.216 280.115 231.248 280.043 231.248C279.979 231.248 279.923 231.228 279.875 231.188C279.547 230.956 279.255 230.8 278.999 230.72C278.751 230.64 278.467 230.6 278.147 230.6C277.707 230.6 277.355 230.696 277.091 230.888C276.827 231.08 276.695 231.324 276.695 231.62C276.695 231.804 276.755 231.952 276.875 232.064C276.995 232.176 277.167 232.272 277.391 232.352C277.615 232.424 277.943 232.508 278.375 232.604C279.175 232.78 279.743 232.996 280.079 233.252C280.423 233.508 280.595 233.88 280.595 234.368C280.595 234.904 280.383 235.336 279.959 235.664C279.535 235.992 278.987 236.156 278.315 236.156ZM282.259 236.084C282.091 236.084 281.947 236.024 281.827 235.904C281.707 235.784 281.647 235.64 281.647 235.472C281.647 235.304 281.707 235.16 281.827 235.04C281.947 234.92 282.091 234.86 282.259 234.86C282.427 234.86 282.571 234.92 282.691 235.04C282.811 235.16 282.871 235.304 282.871 235.472C282.871 235.64 282.811 235.784 282.691 235.904C282.571 236.024 282.427 236.084 282.259 236.084Z" fill="#D91F0A"/>
</svg>
