<svg width="344" height="170" viewBox="0 0 344 170" fill="none" xmlns="http://www.w3.org/2000/svg">
<path d="M72.568 64C72.4187 64 72.2973 63.958 72.204 63.874C72.12 63.7807 72.078 63.6593 72.078 63.51V54.55C72.078 54.3913 72.12 54.27 72.204 54.186C72.2973 54.102 72.4187 54.06 72.568 54.06H78.378C78.5367 54.06 78.658 54.102 78.742 54.186C78.826 54.27 78.868 54.3913 78.868 54.55V54.914C78.868 55.0633 78.826 55.1847 78.742 55.278C78.658 55.362 78.5367 55.404 78.378 55.404H73.674V58.442H78C78.1587 58.442 78.28 58.484 78.364 58.568C78.448 58.652 78.49 58.7733 78.49 58.932V59.282C78.49 59.4313 78.448 59.5527 78.364 59.646C78.28 59.73 78.1587 59.772 78 59.772H73.674V63.51C73.674 63.6593 73.632 63.7807 73.548 63.874C73.464 63.958 73.3427 64 73.184 64H72.568ZM81.0045 55.754C80.7339 55.754 80.5052 55.6653 80.3185 55.488C80.1319 55.3013 80.0385 55.082 80.0385 54.83C80.0385 54.5687 80.1319 54.3493 80.3185 54.172C80.5052 53.9947 80.7339 53.906 81.0045 53.906C81.2752 53.906 81.5039 53.9947 81.6905 54.172C81.8772 54.3493 81.9705 54.5687 81.9705 54.83C81.9705 55.082 81.8772 55.3013 81.6905 55.488C81.5039 55.6653 81.2752 55.754 81.0045 55.754ZM80.7385 64C80.5892 64 80.4679 63.958 80.3745 63.874C80.2905 63.7807 80.2485 63.6593 80.2485 63.51V57.588C80.2485 57.4293 80.2905 57.308 80.3745 57.224C80.4679 57.14 80.5892 57.098 80.7385 57.098H81.2425C81.4012 57.098 81.5225 57.14 81.6065 57.224C81.6905 57.308 81.7325 57.4293 81.7325 57.588V63.51C81.7325 63.6593 81.6905 63.7807 81.6065 63.874C81.5225 63.958 81.4012 64 81.2425 64H80.7385ZM86.5558 57.028C86.7611 57.028 86.9711 57.0513 87.1858 57.098C87.4378 57.154 87.5638 57.3033 87.5638 57.546C87.5638 57.6113 87.5591 57.658 87.5498 57.686L87.4798 58.022C87.4238 58.2833 87.2838 58.414 87.0598 58.414L86.9338 58.4C86.7658 58.372 86.6164 58.358 86.4858 58.358C86.0191 58.358 85.6411 58.5447 85.3518 58.918C85.0718 59.282 84.9318 59.7907 84.9318 60.444V63.51C84.9318 63.6593 84.8898 63.7807 84.8058 63.874C84.7218 63.958 84.6004 64 84.4417 64H83.9378C83.7884 64 83.6671 63.958 83.5738 63.874C83.4898 63.7807 83.4478 63.6593 83.4478 63.51V57.588C83.4478 57.4293 83.4898 57.308 83.5738 57.224C83.6671 57.14 83.7884 57.098 83.9378 57.098H84.3438C84.5024 57.098 84.6238 57.14 84.7078 57.224C84.7918 57.308 84.8338 57.4293 84.8338 57.588V58.134C85.0018 57.7887 85.2304 57.518 85.5198 57.322C85.8091 57.126 86.1544 57.028 86.5558 57.028ZM91.1117 64.21C90.5423 64.21 90.0337 64.14 89.5857 64C89.147 63.8507 88.699 63.594 88.2417 63.23C88.1017 63.1273 88.0317 63.0107 88.0317 62.88C88.0317 62.7773 88.083 62.6653 88.1857 62.544L88.3957 62.306C88.5077 62.1753 88.629 62.11 88.7597 62.11C88.8623 62.11 88.9743 62.1567 89.0957 62.25C89.4877 62.5393 89.833 62.74 90.1317 62.852C90.4303 62.9547 90.7663 63.006 91.1397 63.006C91.541 63.006 91.8677 62.9267 92.1197 62.768C92.381 62.6 92.5117 62.376 92.5117 62.096C92.5117 61.8813 92.437 61.7133 92.2877 61.592C92.1477 61.4613 91.961 61.3633 91.7277 61.298C91.4943 61.2233 91.149 61.1393 90.6917 61.046C90.0477 60.906 89.5437 60.7567 89.1797 60.598C88.825 60.43 88.5683 60.22 88.4097 59.968C88.251 59.716 88.1717 59.394 88.1717 59.002C88.1717 58.6007 88.2837 58.2413 88.5077 57.924C88.741 57.6067 89.063 57.3547 89.4737 57.168C89.8937 56.9813 90.3837 56.888 90.9437 56.888C91.4477 56.888 91.8957 56.944 92.2877 57.056C92.689 57.168 93.081 57.3593 93.4637 57.63C93.613 57.742 93.6877 57.868 93.6877 58.008C93.6877 58.1013 93.641 58.2087 93.5477 58.33L93.3657 58.554C93.263 58.6847 93.137 58.75 92.9877 58.75C92.8757 58.75 92.7683 58.7127 92.6657 58.638C92.3577 58.4327 92.073 58.2927 91.8117 58.218C91.5503 58.134 91.2563 58.092 90.9297 58.092C90.5283 58.092 90.2063 58.1713 89.9637 58.33C89.721 58.4887 89.5997 58.694 89.5997 58.946C89.5997 59.114 89.6557 59.2493 89.7677 59.352C89.889 59.4453 90.057 59.5293 90.2717 59.604C90.4957 59.6693 90.8457 59.7533 91.3217 59.856C91.9657 59.996 92.4743 60.1547 92.8477 60.332C93.2303 60.5 93.5103 60.7193 93.6877 60.99C93.8743 61.2513 93.9677 61.592 93.9677 62.012C93.9677 62.6653 93.7063 63.1973 93.1837 63.608C92.6703 64.0093 91.9797 64.21 91.1117 64.21ZM98.5512 62.824C98.5792 62.8147 98.6212 62.81 98.6772 62.81C98.9106 62.81 99.0506 62.9453 99.0972 63.216L99.1392 63.44C99.1486 63.468 99.1532 63.5147 99.1532 63.58C99.1532 63.8133 99.0226 63.9627 98.7612 64.028C98.3879 64.112 98.0472 64.154 97.7392 64.154C97.0766 64.154 96.5959 64 96.2972 63.692C96.0079 63.384 95.8632 62.922 95.8632 62.306V58.232H95.0932C94.9439 58.232 94.8226 58.19 94.7292 58.106C94.6452 58.0127 94.6032 57.8913 94.6032 57.742V57.588C94.6032 57.4293 94.6452 57.308 94.7292 57.224C94.8226 57.14 94.9439 57.098 95.0932 57.098H95.8632V55.362C95.8632 55.2033 95.9052 55.082 95.9892 54.998C96.0826 54.914 96.2039 54.872 96.3532 54.872H96.8572C97.0159 54.872 97.1372 54.914 97.2212 54.998C97.3052 55.082 97.3472 55.2033 97.3472 55.362V57.098H98.6072C98.7659 57.098 98.8872 57.14 98.9712 57.224C99.0552 57.308 99.0972 57.4293 99.0972 57.588V57.742C99.0972 57.8913 99.0552 58.0127 98.9712 58.106C98.8872 58.19 98.7659 58.232 98.6072 58.232H97.3472V62.124C97.3472 62.3947 97.4032 62.586 97.5152 62.698C97.6366 62.81 97.8279 62.866 98.0892 62.866C98.2012 62.866 98.3552 62.852 98.5512 62.824ZM110.282 54.55C110.282 54.3913 110.324 54.27 110.408 54.186C110.501 54.102 110.622 54.06 110.772 54.06H111.346C111.504 54.06 111.626 54.102 111.71 54.186C111.794 54.27 111.836 54.3913 111.836 54.55V63.51C111.836 63.6593 111.794 63.7807 111.71 63.874C111.626 63.958 111.504 64 111.346 64H110.478C110.216 64 110.02 63.8927 109.89 63.678L107.342 59.702C106.371 58.19 105.643 56.9953 105.158 56.118C105.204 57.1167 105.228 58.4093 105.228 59.996V63.51C105.228 63.6593 105.186 63.7807 105.102 63.874C105.018 63.958 104.896 64 104.738 64H104.164C104.014 64 103.893 63.958 103.8 63.874C103.716 63.7807 103.674 63.6593 103.674 63.51V54.55C103.674 54.3913 103.716 54.27 103.8 54.186C103.893 54.102 104.014 54.06 104.164 54.06H105.06C105.321 54.06 105.517 54.1673 105.648 54.382L108.28 58.512C109.213 59.968 109.899 61.088 110.338 61.872C110.3 60.8733 110.282 59.6413 110.282 58.176V54.55ZM116.684 56.888C117.617 56.888 118.336 57.1073 118.84 57.546C119.344 57.9753 119.596 58.5493 119.596 59.268V63.51C119.596 63.6593 119.554 63.7807 119.47 63.874C119.386 63.958 119.265 64 119.106 64H118.742C118.593 64 118.471 63.958 118.378 63.874C118.294 63.7807 118.252 63.6593 118.252 63.51V63.202C118.028 63.5287 117.72 63.7807 117.328 63.958C116.936 64.1353 116.479 64.224 115.956 64.224C115.237 64.224 114.645 64.0653 114.178 63.748C113.721 63.4213 113.492 62.9313 113.492 62.278C113.492 61.55 113.763 61.0133 114.304 60.668C114.855 60.3133 115.615 60.0473 116.586 59.87L118.168 59.576V59.324C118.168 58.9413 118.033 58.6473 117.762 58.442C117.501 58.2273 117.151 58.12 116.712 58.12C116.339 58.12 116.012 58.1853 115.732 58.316C115.461 58.4373 115.167 58.6427 114.85 58.932C114.729 59.0347 114.612 59.086 114.5 59.086C114.388 59.086 114.271 59.0347 114.15 58.932L113.926 58.736C113.805 58.624 113.744 58.5027 113.744 58.372C113.744 58.2507 113.8 58.134 113.912 58.022C114.313 57.6393 114.738 57.3547 115.186 57.168C115.634 56.9813 116.133 56.888 116.684 56.888ZM116.166 63.034C116.726 63.034 117.197 62.8847 117.58 62.586C117.972 62.2873 118.168 61.858 118.168 61.298V60.654L116.95 60.906C116.269 61.046 115.765 61.2047 115.438 61.382C115.111 61.5593 114.948 61.83 114.948 62.194C114.948 62.4553 115.055 62.6607 115.27 62.81C115.485 62.9593 115.783 63.034 116.166 63.034ZM128.698 56.888C129.435 56.888 130.004 57.098 130.406 57.518C130.807 57.9287 131.008 58.484 131.008 59.184V63.51C131.008 63.6593 130.966 63.7807 130.882 63.874C130.798 63.958 130.676 64 130.518 64H130.014C129.864 64 129.743 63.958 129.65 63.874C129.566 63.7807 129.524 63.6593 129.524 63.51V59.632C129.524 59.1747 129.421 58.8153 129.216 58.554C129.01 58.2927 128.698 58.162 128.278 58.162C127.848 58.162 127.508 58.3067 127.256 58.596C127.013 58.8853 126.892 59.2587 126.892 59.716V63.51C126.892 63.6593 126.85 63.7807 126.766 63.874C126.682 63.958 126.56 64 126.402 64H125.898C125.748 64 125.627 63.958 125.534 63.874C125.45 63.7807 125.408 63.6593 125.408 63.51V59.632C125.408 59.1747 125.305 58.8153 125.1 58.554C124.904 58.2927 124.596 58.162 124.176 58.162C123.765 58.162 123.434 58.2973 123.182 58.568C122.93 58.8387 122.794 59.1887 122.776 59.618V63.51C122.776 63.6593 122.734 63.7807 122.65 63.874C122.566 63.958 122.444 64 122.285 64H121.782C121.632 64 121.511 63.958 121.418 63.874C121.334 63.7807 121.292 63.6593 121.292 63.51V57.588C121.292 57.4293 121.334 57.308 121.418 57.224C121.511 57.14 121.632 57.098 121.782 57.098H122.188C122.346 57.098 122.468 57.14 122.552 57.224C122.636 57.308 122.678 57.4293 122.678 57.588V57.896C123.107 57.224 123.77 56.888 124.666 56.888C125.114 56.888 125.506 56.9813 125.842 57.168C126.178 57.3547 126.434 57.616 126.612 57.952C127.088 57.2427 127.783 56.888 128.698 56.888ZM137.65 62.236C137.771 62.1333 137.888 62.082 138 62.082C138.112 62.082 138.228 62.1427 138.35 62.264L138.546 62.474C138.648 62.5953 138.7 62.712 138.7 62.824C138.7 62.9453 138.639 63.062 138.518 63.174C138.088 63.5473 137.659 63.8133 137.23 63.972C136.81 64.1307 136.343 64.21 135.83 64.21C135.111 64.21 134.486 64.0607 133.954 63.762C133.431 63.4633 133.025 63.0433 132.736 62.502C132.456 61.9513 132.316 61.3167 132.316 60.598C132.316 59.8887 132.451 59.254 132.722 58.694C133.002 58.1247 133.394 57.6813 133.898 57.364C134.411 57.0467 135.008 56.888 135.69 56.888C136.707 56.888 137.491 57.1913 138.042 57.798C138.592 58.3953 138.868 59.2213 138.868 60.276V60.402C138.858 60.5513 138.812 60.668 138.728 60.752C138.644 60.836 138.522 60.878 138.364 60.878H133.772C133.828 61.494 134.028 61.998 134.374 62.39C134.728 62.7727 135.223 62.964 135.858 62.964C136.203 62.964 136.506 62.9127 136.768 62.81C137.029 62.698 137.323 62.5067 137.65 62.236ZM135.662 58.064C135.148 58.064 134.733 58.218 134.416 58.526C134.108 58.8247 133.907 59.2493 133.814 59.8H137.412C137.374 59.2587 137.206 58.834 136.908 58.526C136.609 58.218 136.194 58.064 135.662 58.064Z" fill="#464646"/>
<rect x="71.5" y="72.5" width="202" height="47" rx="3.5" fill="white"/>
<rect x="71.5" y="72.5" width="202" height="47" rx="3.5" stroke="#C3CCD9"/>
</svg>
