<svg width="76" height="31" viewBox="0 0 76 31" fill="none" xmlns="http://www.w3.org/2000/svg">
<path d="M1.20571 24.4578C0.838272 24.4578 0.539725 24.3544 0.310073 24.1477C0.103387 23.9181 4.37522e-05 23.6195 4.37522e-05 23.2521V1.20556C4.37522e-05 0.815153 0.103387 0.516606 0.310073 0.30992C0.539725 0.103233 0.838272 -0.000110151 1.20571 -0.000110151H2.72141C3.11182 -0.000110151 3.41037 0.103233 3.61706 0.30992C3.82374 0.516606 3.92708 0.815153 3.92708 1.20556V23.2521C3.92708 23.6195 3.82374 23.9181 3.61706 24.1477C3.41037 24.3544 3.11182 24.4578 2.72141 24.4578H1.20571ZM17.5762 6.95833C19.5282 6.95833 21.021 7.5095 22.0544 8.61182C23.1108 9.69118 23.639 11.0921 23.639 12.8144V23.2521C23.639 23.6195 23.5356 23.9181 23.329 24.1477C23.1223 24.3544 22.8237 24.4578 22.4333 24.4578H21.1932C20.8258 24.4578 20.5272 24.3544 20.2976 24.1477C20.0909 23.9181 19.9875 23.6195 19.9875 23.2521V13.9512C19.9875 12.7111 19.6775 11.758 19.0574 11.0921C18.4603 10.4261 17.5992 10.0931 16.4739 10.0931C15.3715 10.0931 14.4414 10.472 13.6836 11.2298C12.9487 11.9877 12.5813 12.9408 12.5813 14.089V23.2521C12.5813 23.6195 12.4779 23.9181 12.2712 24.1477C12.0646 24.3544 11.766 24.4578 11.3756 24.4578H10.1355C9.76804 24.4578 9.46949 24.3544 9.23984 24.1477C9.03315 23.9181 8.92981 23.6195 8.92981 23.2521V8.68072C8.92981 8.29031 9.03315 7.99176 9.23984 7.78508C9.46949 7.57839 9.76804 7.47505 10.1355 7.47505H11.1345C11.5249 7.47505 11.8234 7.57839 12.0301 7.78508C12.2368 7.99176 12.3401 8.29031 12.3401 8.68072V9.57636C12.8913 8.72665 13.6147 8.08362 14.5103 7.64729C15.406 7.18798 16.4279 6.95833 17.5762 6.95833ZM36.861 7.02723C38.3078 7.02723 39.5938 7.39467 40.7191 8.12955C41.8674 8.86444 42.763 9.90935 43.4061 11.2643C44.0491 12.6192 44.3706 14.1809 44.3706 15.9492C44.3706 17.7405 44.0491 19.3136 43.4061 20.6685C42.763 22.0235 41.8674 23.0684 40.7191 23.8033C39.5709 24.5382 38.2848 24.9056 36.861 24.9056C34.4726 24.9056 32.6813 24.0789 31.4871 22.4254V29.3494C31.4871 29.7398 31.3838 30.0383 31.1771 30.245C30.9704 30.4517 30.6719 30.555 30.2815 30.555H29.0414C28.6739 30.555 28.3754 30.4517 28.1457 30.245C27.939 30.0383 27.8357 29.7398 27.8357 29.3494V8.68072C27.8357 8.29031 27.939 7.99176 28.1457 7.78508C28.3754 7.57839 28.6739 7.47505 29.0414 7.47505H30.0403C30.4308 7.47505 30.7293 7.57839 30.936 7.78508C31.1427 7.99176 31.246 8.29031 31.246 8.68072V9.95528C32.4632 8.00324 34.3348 7.02723 36.861 7.02723ZM36.1031 21.7364C37.4811 21.7364 38.5834 21.2197 39.4101 20.1863C40.2369 19.1299 40.6502 17.7175 40.6502 15.9492C40.6502 14.2038 40.2369 12.803 39.4101 11.7466C38.6063 10.6902 37.5155 10.162 36.1376 10.162C34.7367 10.162 33.5885 10.6787 32.6928 11.7121C31.7972 12.7455 31.3494 14.1579 31.3494 15.9492C31.3494 17.7405 31.7972 19.1528 32.6928 20.1863C33.5885 21.2197 34.7252 21.7364 36.1031 21.7364ZM58.4656 8.68072C58.4656 8.29031 58.569 7.99176 58.7757 7.78508C59.0053 7.57839 59.3039 7.47505 59.6713 7.47505H60.9114C61.3018 7.47505 61.6004 7.57839 61.8071 7.78508C62.0138 7.99176 62.1171 8.29031 62.1171 8.68072V23.2521C62.1171 23.6195 62.0138 23.9181 61.8071 24.1477C61.6004 24.3544 61.3018 24.4578 60.9114 24.4578H59.9813C59.6139 24.4578 59.3154 24.3544 59.0857 24.1477C58.879 23.9181 58.7757 23.6195 58.7757 23.2521V22.4598C58.3164 23.2406 57.6504 23.8607 56.7777 24.32C55.905 24.7563 54.8716 24.9745 53.6774 24.9745C51.6565 24.9745 50.1523 24.4807 49.1648 23.4932C48.1773 22.4828 47.6835 21.1508 47.6835 19.4973V8.68072C47.6835 8.29031 47.7868 7.99176 47.9935 7.78508C48.2232 7.57839 48.5217 7.47505 48.8892 7.47505H50.1293C50.5197 7.47505 50.8182 7.57839 51.0249 7.78508C51.2316 7.99176 51.335 8.29031 51.335 8.68072V18.5328C51.335 19.5892 51.5991 20.4044 52.1273 20.9786C52.6784 21.5297 53.4707 21.8053 54.5042 21.8053C55.6983 21.8053 56.6514 21.4608 57.3633 20.7719C58.0982 20.0829 58.4656 19.0839 58.4656 17.7749V8.68072ZM74.5188 21.5642C74.5877 21.5412 74.6911 21.5297 74.8288 21.5297C75.403 21.5297 75.7475 21.8627 75.8623 22.5287L75.9656 23.0799C75.9886 23.1488 76.0001 23.2636 76.0001 23.4243C76.0001 23.9985 75.6786 24.3659 75.0355 24.5267C74.1169 24.7334 73.2787 24.8367 72.5209 24.8367C70.8903 24.8367 69.7076 24.4578 68.9727 23.6999C68.2608 22.9421 67.9049 21.8053 67.9049 20.2896V10.2653H66.0102C65.6428 10.2653 65.3442 10.162 65.1146 9.95528C64.9079 9.72563 64.8046 9.42708 64.8046 9.05964V8.68072C64.8046 8.29031 64.9079 7.99176 65.1146 7.78508C65.3442 7.57839 65.6428 7.47505 66.0102 7.47505H67.9049V3.20353C67.9049 2.81312 68.0082 2.51458 68.2149 2.30789C68.4445 2.1012 68.7431 1.99786 69.1105 1.99786H70.3506C70.7411 1.99786 71.0396 2.1012 71.2463 2.30789C71.453 2.51458 71.5563 2.81312 71.5563 3.20353V7.47505H74.6566C75.047 7.47505 75.3456 7.57839 75.5523 7.78508C75.7589 7.99176 75.8623 8.29031 75.8623 8.68072V9.05964C75.8623 9.42708 75.7589 9.72563 75.5523 9.95528C75.3456 10.162 75.047 10.2653 74.6566 10.2653H71.5563V19.8418C71.5563 20.5078 71.6941 20.9786 71.9697 21.2541C72.2682 21.5297 72.739 21.6675 73.382 21.6675C73.6576 21.6675 74.0366 21.6331 74.5188 21.5642Z" fill="#464646"/>
</svg>
