<svg width="344" height="168" viewBox="0 0 344 168" fill="none" xmlns="http://www.w3.org/2000/svg">
<rect x="70.5" y="60.5" width="202" height="47" rx="3.5" fill="white"/>
<g clip-path="url(#clip0_899_67126)">
<path d="M79.696 89C79.4827 89 79.376 88.8933 79.376 88.68V77.96C79.376 77.7467 79.4827 77.64 79.696 77.64H84C85.0987 77.64 85.984 77.928 86.656 78.504C87.328 79.08 87.664 79.896 87.664 80.952C87.664 82.008 87.328 82.8293 86.656 83.416C85.984 83.992 85.0987 84.28 84 84.28H80.512V88.68C80.512 88.8933 80.4053 89 80.192 89H79.696ZM83.856 83.336C84.688 83.336 85.344 83.1333 85.824 82.728C86.304 82.3227 86.544 81.7307 86.544 80.952C86.544 80.184 86.304 79.5973 85.824 79.192C85.344 78.7867 84.688 78.584 83.856 78.584H80.512V83.336H83.856ZM94.4915 81.432C94.4915 81.2187 94.5982 81.112 94.8115 81.112H95.2275C95.4408 81.112 95.5475 81.2187 95.5475 81.432V88.68C95.5475 88.8933 95.4408 89 95.2275 89H94.8915C94.6782 89 94.5715 88.8933 94.5715 88.68V87.96C94.3368 88.376 94.0008 88.6907 93.5635 88.904C93.1368 89.1067 92.6675 89.208 92.1555 89.208C91.1955 89.208 90.4862 88.968 90.0275 88.488C89.5688 87.9973 89.3395 87.368 89.3395 86.6V81.432C89.3395 81.2187 89.4462 81.112 89.6595 81.112H90.0755C90.2888 81.112 90.3955 81.2187 90.3955 81.432V86.376C90.3955 87.0053 90.5502 87.4853 90.8595 87.816C91.1795 88.136 91.6328 88.296 92.2195 88.296C92.8808 88.296 93.4248 88.0933 93.8515 87.688C94.2782 87.2827 94.4915 86.7067 94.4915 85.96V81.432ZM100.67 89.208C100.02 89.208 99.4437 89.1173 98.9424 88.936C98.4517 88.744 97.9344 88.424 97.3904 87.976C97.2944 87.912 97.2464 87.8373 97.2464 87.752C97.2464 87.6773 97.2837 87.6027 97.3584 87.528L97.5664 87.304C97.6304 87.2187 97.7104 87.176 97.8064 87.176C97.881 87.176 97.9504 87.208 98.0144 87.272C98.5264 87.6667 98.9797 87.944 99.3744 88.104C99.769 88.2533 100.201 88.328 100.67 88.328C101.257 88.328 101.737 88.2 102.11 87.944C102.484 87.6773 102.67 87.32 102.67 86.872C102.67 86.424 102.478 86.0933 102.094 85.88C101.71 85.6667 101.118 85.4747 100.318 85.304C99.6144 85.1547 99.0597 85 98.6544 84.84C98.2597 84.6693 97.9664 84.456 97.7744 84.2C97.5824 83.944 97.4864 83.608 97.4864 83.192C97.4864 82.5093 97.7637 81.96 98.3184 81.544C98.873 81.128 99.5717 80.92 100.414 80.92C100.99 80.92 101.502 80.9947 101.95 81.144C102.409 81.2827 102.868 81.5173 103.326 81.848C103.422 81.9227 103.47 82.0027 103.47 82.088C103.47 82.1413 103.444 82.2107 103.39 82.296L103.198 82.536C103.145 82.6213 103.07 82.664 102.974 82.664C102.889 82.664 102.814 82.6373 102.75 82.584C102.313 82.2747 101.924 82.0667 101.582 81.96C101.252 81.8533 100.873 81.8 100.446 81.8C99.8597 81.8 99.3904 81.928 99.0384 82.184C98.6864 82.44 98.5104 82.7653 98.5104 83.16C98.5104 83.4053 98.5904 83.6027 98.7504 83.752C98.9104 83.9013 99.1397 84.0293 99.4384 84.136C99.737 84.232 100.174 84.344 100.75 84.472C101.817 84.7067 102.574 84.9947 103.022 85.336C103.481 85.6773 103.71 86.1733 103.71 86.824C103.71 87.5387 103.428 88.1147 102.862 88.552C102.297 88.9893 101.566 89.208 100.67 89.208ZM111.241 87.128C111.315 87.0533 111.395 87.016 111.481 87.016C111.555 87.016 111.625 87.048 111.689 87.112L111.897 87.304C111.971 87.3787 112.009 87.4587 112.009 87.544C112.009 87.608 111.977 87.6827 111.913 87.768C111.39 88.2907 110.883 88.664 110.393 88.888C109.902 89.1013 109.353 89.208 108.745 89.208C107.977 89.208 107.31 89.0373 106.745 88.696C106.179 88.3547 105.742 87.88 105.433 87.272C105.123 86.6533 104.969 85.9387 104.969 85.128C104.969 84.3067 105.118 83.5813 105.417 82.952C105.726 82.312 106.158 81.816 106.713 81.464C107.267 81.1013 107.907 80.92 108.633 80.92C109.71 80.92 110.558 81.256 111.177 81.928C111.795 82.6 112.105 83.5067 112.105 84.648V84.84C112.094 84.936 112.057 85.0107 111.993 85.064C111.939 85.1173 111.865 85.144 111.769 85.144H106.041C106.073 86.04 106.307 86.7973 106.745 87.416C107.193 88.024 107.859 88.328 108.745 88.328C109.225 88.328 109.646 88.2427 110.009 88.072C110.382 87.8907 110.793 87.576 111.241 87.128ZM108.633 81.8C107.929 81.8 107.347 82.0187 106.889 82.456C106.441 82.8827 106.169 83.512 106.073 84.344H111.049C111.027 83.5653 110.803 82.9467 110.377 82.488C109.95 82.0293 109.369 81.8 108.633 81.8ZM116.989 78.328C116.509 78.328 116.168 78.456 115.965 78.712C115.762 78.9573 115.661 79.3733 115.661 79.96V81.112H117.421C117.634 81.112 117.741 81.2187 117.741 81.432V81.592C117.741 81.8053 117.634 81.912 117.421 81.912H115.661V88.68C115.661 88.8933 115.554 89 115.341 89H114.925C114.712 89 114.605 88.8933 114.605 88.68V81.912H113.421C113.208 81.912 113.101 81.8053 113.101 81.592V81.432C113.101 81.2187 113.208 81.112 113.421 81.112H114.605V79.784C114.605 79.048 114.797 78.472 115.181 78.056C115.576 77.64 116.136 77.432 116.861 77.432C117.266 77.432 117.682 77.4907 118.109 77.608C118.312 77.672 118.386 77.8053 118.333 78.008L118.269 78.232C118.216 78.3813 118.109 78.456 117.949 78.456C117.917 78.456 117.848 78.4453 117.741 78.424C117.506 78.36 117.256 78.328 116.989 78.328ZM119.821 79.112C119.608 79.112 119.427 79.0373 119.277 78.888C119.139 78.7387 119.069 78.5573 119.069 78.344C119.069 78.1307 119.139 77.9547 119.277 77.816C119.427 77.6773 119.608 77.608 119.821 77.608C120.045 77.608 120.227 77.6773 120.365 77.816C120.515 77.9547 120.589 78.1307 120.589 78.344C120.589 78.5573 120.515 78.7387 120.365 78.888C120.227 79.0373 120.045 79.112 119.821 79.112ZM119.613 89C119.4 89 119.293 88.8933 119.293 88.68V81.432C119.293 81.2187 119.4 81.112 119.613 81.112H120.029C120.243 81.112 120.349 81.2187 120.349 81.432V88.68C120.349 88.8933 120.243 89 120.029 89H119.613ZM126.22 80.92C127.148 80.92 127.846 81.176 128.316 81.688C128.796 82.2 129.036 82.84 129.036 83.608V88.68C129.036 88.8933 128.929 89 128.716 89H128.3C128.086 89 127.98 88.8933 127.98 88.68V83.96C127.98 83.256 127.809 82.7227 127.468 82.36C127.126 81.9973 126.636 81.816 125.996 81.816C125.59 81.816 125.217 81.9173 124.876 82.12C124.534 82.312 124.262 82.5787 124.06 82.92C123.857 83.2613 123.756 83.6347 123.756 84.04V88.68C123.756 88.8933 123.649 89 123.436 89H123.02C122.806 89 122.7 88.8933 122.7 88.68V81.432C122.7 81.2187 122.806 81.112 123.02 81.112H123.372C123.585 81.112 123.692 81.2187 123.692 81.432V82.2C123.958 81.7733 124.31 81.4533 124.748 81.24C125.185 81.0267 125.676 80.92 126.22 80.92ZM134.891 80.92C135.82 80.92 136.518 81.176 136.988 81.688C137.468 82.2 137.708 82.84 137.708 83.608V88.68C137.708 88.8933 137.601 89 137.388 89H136.972C136.758 89 136.652 88.8933 136.652 88.68V83.96C136.652 83.256 136.481 82.7227 136.14 82.36C135.798 81.9973 135.308 81.816 134.668 81.816C134.262 81.816 133.889 81.9173 133.548 82.12C133.206 82.312 132.934 82.5787 132.732 82.92C132.529 83.2613 132.428 83.6347 132.428 84.04V88.68C132.428 88.8933 132.321 89 132.108 89H131.692C131.478 89 131.372 88.8933 131.372 88.68V81.432C131.372 81.2187 131.478 81.112 131.692 81.112H132.044C132.257 81.112 132.364 81.2187 132.364 81.432V82.2C132.63 81.7733 132.982 81.4533 133.42 81.24C133.857 81.0267 134.348 80.92 134.891 80.92ZM149.403 81.8C149.51 81.8 149.585 81.832 149.627 81.896C149.681 81.96 149.697 82.0453 149.675 82.152L148.875 85.976C148.801 86.296 148.763 86.5733 148.763 86.808C148.763 87.6293 149.169 88.04 149.979 88.04C150.374 88.04 150.737 87.9067 151.067 87.64C151.398 87.3627 151.659 86.968 151.851 86.456C152.043 85.944 152.139 85.3413 152.139 84.648C152.139 83.4533 151.883 82.44 151.371 81.608C150.859 80.7653 150.177 80.1307 149.323 79.704C148.481 79.2773 147.547 79.064 146.523 79.064C145.35 79.064 144.31 79.3413 143.403 79.896C142.497 80.44 141.793 81.192 141.291 82.152C140.79 83.1013 140.539 84.1627 140.539 85.336C140.539 86.4773 140.779 87.5013 141.259 88.408C141.739 89.304 142.449 90.008 143.387 90.52C144.326 91.0427 145.457 91.304 146.779 91.304H149.867C150.081 91.304 150.187 91.4107 150.187 91.624V91.72C150.187 91.9333 150.081 92.04 149.867 92.04H146.539C145.131 92.04 143.905 91.752 142.859 91.176C141.825 90.6107 141.03 89.8213 140.475 88.808C139.931 87.784 139.659 86.616 139.659 85.304C139.659 83.9707 139.937 82.776 140.491 81.72C141.046 80.6533 141.841 79.8213 142.875 79.224C143.91 78.616 145.11 78.312 146.475 78.312C147.745 78.312 148.875 78.5733 149.867 79.096C150.859 79.608 151.633 80.3387 152.187 81.288C152.742 82.2373 153.019 83.3413 153.019 84.6C153.019 85.4427 152.886 86.1787 152.619 86.808C152.353 87.4373 151.985 87.928 151.515 88.28C151.046 88.6213 150.513 88.792 149.915 88.792C149.233 88.792 148.737 88.6267 148.427 88.296C148.129 87.9547 147.963 87.5707 147.931 87.144C147.59 87.6773 147.195 88.088 146.747 88.376C146.299 88.6533 145.766 88.792 145.147 88.792C144.443 88.792 143.889 88.584 143.483 88.168C143.078 87.7413 142.875 87.1493 142.875 86.392C142.875 85.6453 143.03 84.9093 143.339 84.184C143.659 83.448 144.107 82.8453 144.683 82.376C145.259 81.9067 145.915 81.672 146.651 81.672C147.206 81.672 147.649 81.7947 147.979 82.04C148.321 82.2747 148.534 82.5947 148.619 83L148.795 82.088C148.827 81.896 148.945 81.8 149.147 81.8H149.403ZM145.275 87.976C145.905 87.976 146.433 87.7573 146.859 87.32C147.297 86.872 147.622 86.344 147.835 85.736C148.049 85.1173 148.155 84.568 148.155 84.088C148.155 83.544 148.043 83.1387 147.819 82.872C147.595 82.5947 147.217 82.456 146.683 82.456C146.139 82.456 145.649 82.648 145.211 83.032C144.785 83.416 144.449 83.9067 144.203 84.504C143.969 85.1013 143.851 85.6987 143.851 86.296C143.851 86.8613 143.974 87.2827 144.219 87.56C144.475 87.8373 144.827 87.976 145.275 87.976ZM158.005 78.328C157.525 78.328 157.183 78.456 156.981 78.712C156.778 78.9573 156.677 79.3733 156.677 79.96V81.112H158.437C158.65 81.112 158.757 81.2187 158.757 81.432V81.592C158.757 81.8053 158.65 81.912 158.437 81.912H156.677V88.68C156.677 88.8933 156.57 89 156.357 89H155.941C155.727 89 155.621 88.8933 155.621 88.68V81.912H154.437C154.223 81.912 154.117 81.8053 154.117 81.592V81.432C154.117 81.2187 154.223 81.112 154.437 81.112H155.621V79.784C155.621 79.048 155.813 78.472 156.197 78.056C156.591 77.64 157.151 77.432 157.877 77.432C158.282 77.432 158.698 77.4907 159.125 77.608C159.327 77.672 159.402 77.8053 159.349 78.008L159.285 78.232C159.231 78.3813 159.125 78.456 158.965 78.456C158.933 78.456 158.863 78.4453 158.757 78.424C158.522 78.36 158.271 78.328 158.005 78.328ZM160.837 79.112C160.624 79.112 160.442 79.0373 160.293 78.888C160.154 78.7387 160.085 78.5573 160.085 78.344C160.085 78.1307 160.154 77.9547 160.293 77.816C160.442 77.6773 160.624 77.608 160.837 77.608C161.061 77.608 161.242 77.6773 161.381 77.816C161.53 77.9547 161.605 78.1307 161.605 78.344C161.605 78.5573 161.53 78.7387 161.381 78.888C161.242 79.0373 161.061 79.112 160.837 79.112ZM160.629 89C160.416 89 160.309 88.8933 160.309 88.68V81.432C160.309 81.2187 160.416 81.112 160.629 81.112H161.045C161.258 81.112 161.365 81.2187 161.365 81.432V88.68C161.365 88.8933 161.258 89 161.045 89H160.629ZM167.235 80.92C168.163 80.92 168.862 81.176 169.331 81.688C169.811 82.2 170.051 82.84 170.051 83.608V88.68C170.051 88.8933 169.945 89 169.731 89H169.315C169.102 89 168.995 88.8933 168.995 88.68V83.96C168.995 83.256 168.825 82.7227 168.483 82.36C168.142 81.9973 167.651 81.816 167.011 81.816C166.606 81.816 166.233 81.9173 165.891 82.12C165.55 82.312 165.278 82.5787 165.075 82.92C164.873 83.2613 164.771 83.6347 164.771 84.04V88.68C164.771 88.8933 164.665 89 164.451 89H164.035C163.822 89 163.715 88.8933 163.715 88.68V81.432C163.715 81.2187 163.822 81.112 164.035 81.112H164.387C164.601 81.112 164.707 81.2187 164.707 81.432V82.2C164.974 81.7733 165.326 81.4533 165.763 81.24C166.201 81.0267 166.691 80.92 167.235 80.92ZM175.907 80.92C176.835 80.92 177.534 81.176 178.003 81.688C178.483 82.2 178.723 82.84 178.723 83.608V88.68C178.723 88.8933 178.616 89 178.403 89H177.987C177.774 89 177.667 88.8933 177.667 88.68V83.96C177.667 83.256 177.496 82.7227 177.155 82.36C176.814 81.9973 176.323 81.816 175.683 81.816C175.278 81.816 174.904 81.9173 174.563 82.12C174.222 82.312 173.95 82.5787 173.747 82.92C173.544 83.2613 173.443 83.6347 173.443 84.04V88.68C173.443 88.8933 173.336 89 173.123 89H172.707C172.494 89 172.387 88.8933 172.387 88.68V81.432C172.387 81.2187 172.494 81.112 172.707 81.112H173.059C173.272 81.112 173.379 81.2187 173.379 81.432V82.2C173.646 81.7733 173.998 81.4533 174.435 81.24C174.872 81.0267 175.363 80.92 175.907 80.92ZM181.491 89.112C181.267 89.112 181.075 89.032 180.915 88.872C180.755 88.712 180.675 88.52 180.675 88.296C180.675 88.072 180.755 87.88 180.915 87.72C181.075 87.56 181.267 87.48 181.491 87.48C181.715 87.48 181.907 87.56 182.067 87.72C182.227 87.88 182.307 88.072 182.307 88.296C182.307 88.52 182.227 88.712 182.067 88.872C181.907 89.032 181.715 89.112 181.491 89.112ZM187.813 80.92C188.741 80.92 189.44 81.176 189.909 81.688C190.389 82.2 190.629 82.84 190.629 83.608V88.68C190.629 88.8933 190.523 89 190.309 89H189.893C189.68 89 189.573 88.8933 189.573 88.68V83.96C189.573 83.256 189.403 82.7227 189.061 82.36C188.72 81.9973 188.229 81.816 187.589 81.816C187.184 81.816 186.811 81.9173 186.469 82.12C186.128 82.312 185.856 82.5787 185.653 82.92C185.451 83.2613 185.349 83.6347 185.349 84.04V88.68C185.349 88.8933 185.243 89 185.029 89H184.613C184.4 89 184.293 88.8933 184.293 88.68V81.432C184.293 81.2187 184.4 81.112 184.613 81.112H184.965C185.179 81.112 185.285 81.2187 185.285 81.432V82.2C185.552 81.7733 185.904 81.4533 186.341 81.24C186.779 81.0267 187.269 80.92 187.813 80.92ZM196.229 89.208C195.493 89.208 194.837 89.032 194.261 88.68C193.685 88.328 193.237 87.8427 192.917 87.224C192.597 86.5947 192.437 85.8747 192.437 85.064C192.437 84.2533 192.597 83.5387 192.917 82.92C193.237 82.2907 193.685 81.8 194.261 81.448C194.837 81.096 195.493 80.92 196.229 80.92C196.965 80.92 197.621 81.096 198.197 81.448C198.773 81.8 199.221 82.2907 199.541 82.92C199.861 83.5387 200.021 84.2533 200.021 85.064C200.021 85.8747 199.861 86.5947 199.541 87.224C199.221 87.8427 198.773 88.328 198.197 88.68C197.621 89.032 196.965 89.208 196.229 89.208ZM196.229 88.328C197.051 88.328 197.707 88.0293 198.197 87.432C198.688 86.824 198.933 86.0347 198.933 85.064C198.933 84.0933 198.688 83.3093 198.197 82.712C197.707 82.104 197.051 81.8 196.229 81.8C195.408 81.8 194.752 82.104 194.261 82.712C193.771 83.3093 193.525 84.0933 193.525 85.064C193.525 86.0347 193.771 86.824 194.261 87.432C194.752 88.0293 195.408 88.328 196.229 88.328Z" fill="#C3CCD9"/>
</g>
<rect x="70.5" y="60.5" width="202" height="47" rx="3.5" stroke="#C3CCD9"/>
<defs>
<clipPath id="clip0_899_67126">
<rect width="187" height="22" fill="white" transform="translate(78 73)"/>
</clipPath>
</defs>
</svg>
