<svg width="344" height="260" viewBox="0 0 344 260" fill="none" xmlns="http://www.w3.org/2000/svg">
<path d="M77.686 44.55C77.686 44.3913 77.728 44.27 77.812 44.186C77.9053 44.102 78.0267 44.06 78.176 44.06H78.75C78.9087 44.06 79.03 44.102 79.114 44.186C79.198 44.27 79.24 44.3913 79.24 44.55V53.51C79.24 53.6593 79.198 53.7807 79.114 53.874C79.03 53.958 78.9087 54 78.75 54H77.882C77.6207 54 77.4247 53.8927 77.294 53.678L74.746 49.702C73.7753 48.19 73.0473 46.9953 72.562 46.118C72.6087 47.1167 72.632 48.4093 72.632 49.996V53.51C72.632 53.6593 72.59 53.7807 72.506 53.874C72.422 53.958 72.3007 54 72.142 54H71.568C71.4187 54 71.2973 53.958 71.204 53.874C71.12 53.7807 71.078 53.6593 71.078 53.51V44.55C71.078 44.3913 71.12 44.27 71.204 44.186C71.2973 44.102 71.4187 44.06 71.568 44.06H72.464C72.7253 44.06 72.9213 44.1673 73.052 44.382L75.684 48.512C76.6173 49.968 77.3033 51.088 77.742 51.872C77.7047 50.8733 77.686 49.6413 77.686 48.176V44.55ZM84.0883 46.888C85.0216 46.888 85.7403 47.1073 86.2443 47.546C86.7483 47.9753 87.0003 48.5493 87.0003 49.268V53.51C87.0003 53.6593 86.9583 53.7807 86.8743 53.874C86.7903 53.958 86.6689 54 86.5103 54H86.1463C85.9969 54 85.8756 53.958 85.7823 53.874C85.6983 53.7807 85.6563 53.6593 85.6563 53.51V53.202C85.4323 53.5287 85.1243 53.7807 84.7323 53.958C84.3403 54.1353 83.8829 54.224 83.3603 54.224C82.6416 54.224 82.0489 54.0653 81.5823 53.748C81.1249 53.4213 80.8963 52.9313 80.8963 52.278C80.8963 51.55 81.1669 51.0133 81.7083 50.668C82.2589 50.3133 83.0196 50.0473 83.9903 49.87L85.5723 49.576V49.324C85.5723 48.9413 85.4369 48.6473 85.1663 48.442C84.9049 48.2273 84.5549 48.12 84.1163 48.12C83.7429 48.12 83.4163 48.1853 83.1363 48.316C82.8656 48.4373 82.5716 48.6427 82.2543 48.932C82.1329 49.0347 82.0163 49.086 81.9043 49.086C81.7923 49.086 81.6756 49.0347 81.5543 48.932L81.3303 48.736C81.2089 48.624 81.1483 48.5027 81.1483 48.372C81.1483 48.2507 81.2043 48.134 81.3163 48.022C81.7176 47.6393 82.1423 47.3547 82.5903 47.168C83.0383 46.9813 83.5376 46.888 84.0883 46.888ZM83.5703 53.034C84.1303 53.034 84.6016 52.8847 84.9843 52.586C85.3763 52.2873 85.5723 51.858 85.5723 51.298V50.654L84.3543 50.906C83.6729 51.046 83.1689 51.2047 82.8423 51.382C82.5156 51.5593 82.3523 51.83 82.3523 52.194C82.3523 52.4553 82.4596 52.6607 82.6743 52.81C82.8889 52.9593 83.1876 53.034 83.5703 53.034ZM96.1018 46.888C96.8391 46.888 97.4085 47.098 97.8098 47.518C98.2111 47.9287 98.4118 48.484 98.4118 49.184V53.51C98.4118 53.6593 98.3698 53.7807 98.2858 53.874C98.2018 53.958 98.0805 54 97.9218 54H97.4178C97.2685 54 97.1471 53.958 97.0538 53.874C96.9698 53.7807 96.9278 53.6593 96.9278 53.51V49.632C96.9278 49.1747 96.8251 48.8153 96.6198 48.554C96.4145 48.2927 96.1018 48.162 95.6818 48.162C95.2525 48.162 94.9118 48.3067 94.6598 48.596C94.4171 48.8853 94.2958 49.2587 94.2958 49.716V53.51C94.2958 53.6593 94.2538 53.7807 94.1698 53.874C94.0858 53.958 93.9645 54 93.8058 54H93.3018C93.1525 54 93.0311 53.958 92.9378 53.874C92.8538 53.7807 92.8118 53.6593 92.8118 53.51V49.632C92.8118 49.1747 92.7091 48.8153 92.5038 48.554C92.3078 48.2927 91.9998 48.162 91.5798 48.162C91.1691 48.162 90.8378 48.2973 90.5858 48.568C90.3338 48.8387 90.1985 49.1887 90.1798 49.618V53.51C90.1798 53.6593 90.1378 53.7807 90.0538 53.874C89.9698 53.958 89.8485 54 89.6898 54H89.1858C89.0365 54 88.9151 53.958 88.8218 53.874C88.7378 53.7807 88.6958 53.6593 88.6958 53.51V47.588C88.6958 47.4293 88.7378 47.308 88.8218 47.224C88.9151 47.14 89.0365 47.098 89.1858 47.098H89.5918C89.7505 47.098 89.8718 47.14 89.9558 47.224C90.0398 47.308 90.0818 47.4293 90.0818 47.588V47.896C90.5111 47.224 91.1738 46.888 92.0698 46.888C92.5178 46.888 92.9098 46.9813 93.2458 47.168C93.5818 47.3547 93.8385 47.616 94.0158 47.952C94.4918 47.2427 95.1871 46.888 96.1018 46.888ZM105.054 52.236C105.175 52.1333 105.292 52.082 105.404 52.082C105.516 52.082 105.632 52.1427 105.754 52.264L105.95 52.474C106.052 52.5953 106.104 52.712 106.104 52.824C106.104 52.9453 106.043 53.062 105.922 53.174C105.492 53.5473 105.063 53.8133 104.634 53.972C104.214 54.1307 103.747 54.21 103.234 54.21C102.515 54.21 101.89 54.0607 101.358 53.762C100.835 53.4633 100.429 53.0433 100.14 52.502C99.8598 51.9513 99.7198 51.3167 99.7198 50.598C99.7198 49.8887 99.8551 49.254 100.126 48.694C100.406 48.1247 100.798 47.6813 101.302 47.364C101.815 47.0467 102.412 46.888 103.094 46.888C104.111 46.888 104.895 47.1913 105.446 47.798C105.996 48.3953 106.272 49.2213 106.272 50.276V50.402C106.262 50.5513 106.216 50.668 106.132 50.752C106.048 50.836 105.926 50.878 105.768 50.878H101.176C101.232 51.494 101.432 51.998 101.778 52.39C102.132 52.7727 102.627 52.964 103.262 52.964C103.607 52.964 103.91 52.9127 104.172 52.81C104.433 52.698 104.727 52.5067 105.054 52.236ZM103.066 48.064C102.552 48.064 102.137 48.218 101.82 48.526C101.512 48.8247 101.311 49.2493 101.218 49.8H104.816C104.778 49.2587 104.61 48.834 104.312 48.526C104.013 48.218 103.598 48.064 103.066 48.064Z" fill="#464646"/>
<rect x="70.5" y="62.5" width="202" height="47" rx="3.5" fill="white"/>
<rect x="70.5" y="62.5" width="202" height="47" rx="3.5" stroke="#C3CCD9"/>
<path d="M71.568 164C71.4187 164 71.2973 163.958 71.204 163.874C71.12 163.781 71.078 163.659 71.078 163.51V154.55C71.078 154.391 71.12 154.27 71.204 154.186C71.2973 154.102 71.4187 154.06 71.568 154.06H77.378C77.5367 154.06 77.658 154.102 77.742 154.186C77.826 154.27 77.868 154.391 77.868 154.55V154.914C77.868 155.063 77.826 155.185 77.742 155.278C77.658 155.362 77.5367 155.404 77.378 155.404H72.674V158.204H77.028C77.1867 158.204 77.308 158.246 77.392 158.33C77.476 158.414 77.518 158.535 77.518 158.694V159.058C77.518 159.207 77.476 159.329 77.392 159.422C77.308 159.506 77.1867 159.548 77.028 159.548H72.674V162.656H77.518C77.6767 162.656 77.798 162.698 77.882 162.782C77.966 162.866 78.008 162.987 78.008 163.146V163.51C78.008 163.659 77.966 163.781 77.882 163.874C77.798 163.958 77.6767 164 77.518 164H71.568ZM86.9143 156.888C87.6516 156.888 88.221 157.098 88.6223 157.518C89.0236 157.929 89.2243 158.484 89.2243 159.184V163.51C89.2243 163.659 89.1823 163.781 89.0983 163.874C89.0143 163.958 88.893 164 88.7343 164H88.2303C88.081 164 87.9596 163.958 87.8663 163.874C87.7823 163.781 87.7403 163.659 87.7403 163.51V159.632C87.7403 159.175 87.6376 158.815 87.4323 158.554C87.227 158.293 86.9143 158.162 86.4943 158.162C86.065 158.162 85.7243 158.307 85.4723 158.596C85.2296 158.885 85.1083 159.259 85.1083 159.716V163.51C85.1083 163.659 85.0663 163.781 84.9823 163.874C84.8983 163.958 84.777 164 84.6183 164H84.1143C83.965 164 83.8436 163.958 83.7503 163.874C83.6663 163.781 83.6243 163.659 83.6243 163.51V159.632C83.6243 159.175 83.5216 158.815 83.3163 158.554C83.1203 158.293 82.8123 158.162 82.3923 158.162C81.9816 158.162 81.6503 158.297 81.3983 158.568C81.1463 158.839 81.011 159.189 80.9923 159.618V163.51C80.9923 163.659 80.9503 163.781 80.8663 163.874C80.7823 163.958 80.661 164 80.5023 164H79.9983C79.849 164 79.7276 163.958 79.6343 163.874C79.5503 163.781 79.5083 163.659 79.5083 163.51V157.588C79.5083 157.429 79.5503 157.308 79.6343 157.224C79.7276 157.14 79.849 157.098 79.9983 157.098H80.4043C80.563 157.098 80.6843 157.14 80.7683 157.224C80.8523 157.308 80.8943 157.429 80.8943 157.588V157.896C81.3236 157.224 81.9863 156.888 82.8823 156.888C83.3303 156.888 83.7223 156.981 84.0583 157.168C84.3943 157.355 84.651 157.616 84.8283 157.952C85.3043 157.243 85.9996 156.888 86.9143 156.888ZM93.8363 156.888C94.7696 156.888 95.4883 157.107 95.9923 157.546C96.4963 157.975 96.7483 158.549 96.7483 159.268V163.51C96.7483 163.659 96.7063 163.781 96.6223 163.874C96.5383 163.958 96.417 164 96.2583 164H95.8943C95.745 164 95.6236 163.958 95.5303 163.874C95.4463 163.781 95.4043 163.659 95.4043 163.51V163.202C95.1803 163.529 94.8723 163.781 94.4803 163.958C94.0883 164.135 93.631 164.224 93.1083 164.224C92.3896 164.224 91.797 164.065 91.3303 163.748C90.873 163.421 90.6443 162.931 90.6443 162.278C90.6443 161.55 90.915 161.013 91.4563 160.668C92.007 160.313 92.7676 160.047 93.7383 159.87L95.3203 159.576V159.324C95.3203 158.941 95.185 158.647 94.9143 158.442C94.653 158.227 94.303 158.12 93.8643 158.12C93.491 158.12 93.1643 158.185 92.8843 158.316C92.6136 158.437 92.3196 158.643 92.0023 158.932C91.881 159.035 91.7643 159.086 91.6523 159.086C91.5403 159.086 91.4236 159.035 91.3023 158.932L91.0783 158.736C90.957 158.624 90.8963 158.503 90.8963 158.372C90.8963 158.251 90.9523 158.134 91.0643 158.022C91.4656 157.639 91.8903 157.355 92.3383 157.168C92.7863 156.981 93.2856 156.888 93.8363 156.888ZM93.3183 163.034C93.8783 163.034 94.3496 162.885 94.7323 162.586C95.1243 162.287 95.3203 161.858 95.3203 161.298V160.654L94.1023 160.906C93.421 161.046 92.917 161.205 92.5903 161.382C92.2636 161.559 92.1003 161.83 92.1003 162.194C92.1003 162.455 92.2076 162.661 92.4223 162.81C92.637 162.959 92.9356 163.034 93.3183 163.034ZM99.1998 155.754C98.9292 155.754 98.7005 155.665 98.5138 155.488C98.3272 155.301 98.2338 155.082 98.2338 154.83C98.2338 154.569 98.3272 154.349 98.5138 154.172C98.7005 153.995 98.9292 153.906 99.1998 153.906C99.4705 153.906 99.6992 153.995 99.8858 154.172C100.073 154.349 100.166 154.569 100.166 154.83C100.166 155.082 100.073 155.301 99.8858 155.488C99.6992 155.665 99.4705 155.754 99.1998 155.754ZM98.9338 164C98.7845 164 98.6632 163.958 98.5698 163.874C98.4858 163.781 98.4438 163.659 98.4438 163.51V157.588C98.4438 157.429 98.4858 157.308 98.5698 157.224C98.6632 157.14 98.7845 157.098 98.9338 157.098H99.4378C99.5965 157.098 99.7178 157.14 99.8018 157.224C99.8858 157.308 99.9278 157.429 99.9278 157.588V163.51C99.9278 163.659 99.8858 163.781 99.8018 163.874C99.7178 163.958 99.5965 164 99.4378 164H98.9338ZM102.189 164C102.04 164 101.918 163.958 101.825 163.874C101.741 163.781 101.699 163.659 101.699 163.51V154.55C101.699 154.391 101.741 154.27 101.825 154.186C101.918 154.102 102.04 154.06 102.189 154.06H102.693C102.852 154.06 102.973 154.102 103.057 154.186C103.141 154.27 103.183 154.391 103.183 154.55V163.51C103.183 163.659 103.141 163.781 103.057 163.874C102.973 163.958 102.852 164 102.693 164H102.189Z" fill="#464646"/>
<path d="M116.552 165.872C116.504 165.92 116.448 165.944 116.384 165.944C116.32 165.944 116.264 165.912 116.216 165.848C115.488 165.032 114.928 164.184 114.536 163.304C114.152 162.424 113.96 161.428 113.96 160.316C113.96 159.204 114.152 158.208 114.536 157.328C114.928 156.448 115.488 155.6 116.216 154.784C116.264 154.72 116.32 154.688 116.384 154.688C116.448 154.688 116.504 154.712 116.552 154.76L116.708 154.904C116.772 154.952 116.804 155.012 116.804 155.084C116.804 155.14 116.78 155.192 116.732 155.24C116.076 156.04 115.584 156.84 115.256 157.64C114.936 158.44 114.776 159.332 114.776 160.316C114.776 161.292 114.94 162.184 115.268 162.992C115.596 163.792 116.084 164.592 116.732 165.392C116.78 165.44 116.804 165.492 116.804 165.548C116.804 165.62 116.772 165.68 116.708 165.728L116.552 165.872ZM120.227 164.156C119.675 164.156 119.183 164.024 118.751 163.76C118.319 163.496 117.983 163.132 117.743 162.668C117.503 162.196 117.383 161.656 117.383 161.048C117.383 160.44 117.503 159.904 117.743 159.44C117.983 158.968 118.319 158.6 118.751 158.336C119.183 158.072 119.675 157.94 120.227 157.94C120.779 157.94 121.271 158.072 121.703 158.336C122.135 158.6 122.471 158.968 122.711 159.44C122.951 159.904 123.071 160.44 123.071 161.048C123.071 161.656 122.951 162.196 122.711 162.668C122.471 163.132 122.135 163.496 121.703 163.76C121.271 164.024 120.779 164.156 120.227 164.156ZM120.227 163.496C120.843 163.496 121.335 163.272 121.703 162.824C122.071 162.368 122.255 161.776 122.255 161.048C122.255 160.32 122.071 159.732 121.703 159.284C121.335 158.828 120.843 158.6 120.227 158.6C119.611 158.6 119.119 158.828 118.751 159.284C118.383 159.732 118.199 160.32 118.199 161.048C118.199 161.776 118.383 162.368 118.751 162.824C119.119 163.272 119.611 163.496 120.227 163.496ZM127.279 157.952C127.775 157.952 128.219 158.084 128.611 158.348C129.011 158.604 129.323 158.968 129.547 159.44C129.771 159.904 129.883 160.436 129.883 161.036C129.883 161.644 129.771 162.184 129.547 162.656C129.323 163.128 129.015 163.496 128.623 163.76C128.231 164.016 127.783 164.144 127.279 164.144C126.351 164.144 125.671 163.804 125.239 163.124V165.968C125.239 166.128 125.159 166.208 124.999 166.208H124.687C124.527 166.208 124.447 166.128 124.447 165.968V158.324C124.447 158.164 124.527 158.084 124.687 158.084H124.951C125.111 158.084 125.191 158.164 125.191 158.324V159.08C125.407 158.712 125.691 158.432 126.043 158.24C126.395 158.048 126.807 157.952 127.279 157.952ZM127.219 163.472C127.779 163.472 128.227 163.248 128.563 162.8C128.899 162.352 129.067 161.764 129.067 161.036C129.067 160.316 128.899 159.736 128.563 159.296C128.227 158.848 127.779 158.624 127.219 158.624C126.619 158.624 126.131 158.84 125.755 159.272C125.387 159.696 125.203 160.284 125.203 161.036C125.203 161.788 125.391 162.384 125.767 162.824C126.143 163.256 126.627 163.472 127.219 163.472ZM133.779 163.34C133.803 163.332 133.835 163.328 133.875 163.328C133.923 163.328 133.967 163.344 134.007 163.376C134.047 163.408 134.071 163.452 134.079 163.508L134.115 163.676C134.123 163.692 134.127 163.72 134.127 163.76C134.127 163.872 134.067 163.94 133.947 163.964C133.659 164.052 133.351 164.096 133.023 164.096C132.503 164.096 132.131 163.98 131.907 163.748C131.691 163.508 131.583 163.164 131.583 162.716V158.684H130.695C130.535 158.684 130.455 158.604 130.455 158.444V158.324C130.455 158.164 130.535 158.084 130.695 158.084H131.583V156.26C131.583 156.1 131.663 156.02 131.823 156.02H132.135C132.295 156.02 132.375 156.1 132.375 156.26V158.084H133.815C133.975 158.084 134.055 158.164 134.055 158.324V158.444C134.055 158.604 133.975 158.684 133.815 158.684H132.375V162.62C132.375 162.916 132.431 163.124 132.543 163.244C132.655 163.364 132.847 163.424 133.119 163.424C133.311 163.424 133.531 163.396 133.779 163.34ZM135.659 156.584C135.499 156.584 135.363 156.528 135.251 156.416C135.147 156.304 135.095 156.168 135.095 156.008C135.095 155.848 135.147 155.716 135.251 155.612C135.363 155.508 135.499 155.456 135.659 155.456C135.827 155.456 135.963 155.508 136.067 155.612C136.179 155.716 136.235 155.848 136.235 156.008C136.235 156.168 136.179 156.304 136.067 156.416C135.963 156.528 135.827 156.584 135.659 156.584ZM135.503 164C135.343 164 135.263 163.92 135.263 163.76V158.324C135.263 158.164 135.343 158.084 135.503 158.084H135.815C135.975 158.084 136.055 158.164 136.055 158.324V163.76C136.055 163.92 135.975 164 135.815 164H135.503ZM140.266 164.156C139.714 164.156 139.222 164.024 138.79 163.76C138.358 163.496 138.022 163.132 137.782 162.668C137.542 162.196 137.422 161.656 137.422 161.048C137.422 160.44 137.542 159.904 137.782 159.44C138.022 158.968 138.358 158.6 138.79 158.336C139.222 158.072 139.714 157.94 140.266 157.94C140.818 157.94 141.31 158.072 141.742 158.336C142.174 158.6 142.51 158.968 142.75 159.44C142.99 159.904 143.11 160.44 143.11 161.048C143.11 161.656 142.99 162.196 142.75 162.668C142.51 163.132 142.174 163.496 141.742 163.76C141.31 164.024 140.818 164.156 140.266 164.156ZM140.266 163.496C140.882 163.496 141.374 163.272 141.742 162.824C142.11 162.368 142.294 161.776 142.294 161.048C142.294 160.32 142.11 159.732 141.742 159.284C141.374 158.828 140.882 158.6 140.266 158.6C139.65 158.6 139.158 158.828 138.79 159.284C138.422 159.732 138.238 160.32 138.238 161.048C138.238 161.776 138.422 162.368 138.79 162.824C139.158 163.272 139.65 163.496 140.266 163.496ZM147.126 157.94C147.822 157.94 148.346 158.132 148.698 158.516C149.058 158.9 149.238 159.38 149.238 159.956V163.76C149.238 163.92 149.158 164 148.998 164H148.686C148.526 164 148.446 163.92 148.446 163.76V160.22C148.446 159.692 148.318 159.292 148.062 159.02C147.806 158.748 147.438 158.612 146.958 158.612C146.654 158.612 146.374 158.688 146.118 158.84C145.862 158.984 145.658 159.184 145.506 159.44C145.354 159.696 145.278 159.976 145.278 160.28V163.76C145.278 163.92 145.198 164 145.038 164H144.726C144.566 164 144.486 163.92 144.486 163.76V158.324C144.486 158.164 144.566 158.084 144.726 158.084H144.99C145.15 158.084 145.23 158.164 145.23 158.324V158.9C145.43 158.58 145.694 158.34 146.022 158.18C146.35 158.02 146.718 157.94 147.126 157.94ZM153.27 157.94C153.998 157.94 154.566 158.116 154.974 158.468C155.382 158.812 155.586 159.268 155.586 159.836V163.76C155.586 163.92 155.506 164 155.346 164H155.106C154.946 164 154.866 163.92 154.866 163.76V163.22C154.666 163.54 154.382 163.78 154.014 163.94C153.654 164.1 153.25 164.18 152.802 164.18C152.178 164.18 151.67 164.048 151.278 163.784C150.886 163.52 150.69 163.112 150.69 162.56C150.69 162.12 150.814 161.768 151.062 161.504C151.31 161.232 151.634 161.028 152.034 160.892C152.434 160.748 152.934 160.62 153.534 160.508L154.83 160.28V159.896C154.83 159.488 154.69 159.172 154.41 158.948C154.13 158.716 153.762 158.6 153.306 158.6C152.962 158.6 152.65 158.664 152.37 158.792C152.09 158.92 151.79 159.14 151.47 159.452C151.414 159.508 151.354 159.536 151.29 159.536C151.234 159.536 151.182 159.512 151.134 159.464L150.978 159.32C150.922 159.264 150.894 159.204 150.894 159.14C150.894 159.068 150.922 159.004 150.978 158.948C151.314 158.596 151.666 158.34 152.034 158.18C152.41 158.02 152.822 157.94 153.27 157.94ZM152.838 163.52C153.414 163.52 153.89 163.368 154.266 163.064C154.642 162.76 154.83 162.372 154.83 161.9V160.892L153.714 161.108C153.194 161.212 152.782 161.312 152.478 161.408C152.174 161.504 151.93 161.644 151.746 161.828C151.562 162.012 151.47 162.252 151.47 162.548C151.47 162.852 151.59 163.092 151.83 163.268C152.078 163.436 152.414 163.52 152.838 163.52ZM157.593 164C157.433 164 157.353 163.92 157.353 163.76V155.72C157.353 155.56 157.433 155.48 157.593 155.48H157.905C158.065 155.48 158.145 155.56 158.145 155.72V163.76C158.145 163.92 158.065 164 157.905 164H157.593ZM159.835 165.848C159.787 165.912 159.731 165.944 159.667 165.944C159.603 165.944 159.547 165.92 159.499 165.872L159.343 165.728C159.279 165.68 159.247 165.62 159.247 165.548C159.247 165.492 159.271 165.44 159.319 165.392C159.975 164.592 160.467 163.792 160.795 162.992C161.123 162.192 161.287 161.3 161.287 160.316C161.287 159.34 161.123 158.448 160.795 157.64C160.467 156.832 159.975 156.032 159.319 155.24C159.279 155.192 159.259 155.14 159.259 155.084C159.259 155.012 159.287 154.952 159.343 154.904L159.499 154.76C159.547 154.712 159.603 154.688 159.667 154.688C159.731 154.688 159.787 154.72 159.835 154.784C160.563 155.6 161.119 156.448 161.503 157.328C161.895 158.208 162.091 159.204 162.091 160.316C162.091 161.428 161.895 162.424 161.503 163.304C161.119 164.184 160.563 165.032 159.835 165.848Z" fill="#767676"/>
<rect x="70.5" y="172.5" width="202" height="47" rx="3.5" fill="white"/>
<g clip-path="url(#clip0_899_41396)">
<path d="M82.704 192.92C83.632 192.92 84.3307 193.176 84.8 193.688C85.28 194.2 85.52 194.84 85.52 195.608V200.68C85.52 200.893 85.4133 201 85.2 201H84.784C84.5707 201 84.464 200.893 84.464 200.68V195.96C84.464 195.256 84.2933 194.723 83.952 194.36C83.6107 193.997 83.12 193.816 82.48 193.816C82.0747 193.816 81.7013 193.917 81.36 194.12C81.0187 194.312 80.7467 194.579 80.544 194.92C80.3413 195.261 80.24 195.635 80.24 196.04V200.68C80.24 200.893 80.1333 201 79.92 201H79.504C79.2907 201 79.184 200.893 79.184 200.68V193.432C79.184 193.219 79.2907 193.112 79.504 193.112H79.856C80.0693 193.112 80.176 193.219 80.176 193.432V194.2C80.4427 193.773 80.7947 193.453 81.232 193.24C81.6693 193.027 82.16 192.92 82.704 192.92ZM90.8959 192.92C91.8665 192.92 92.6239 193.155 93.1679 193.624C93.7119 194.083 93.9839 194.691 93.9839 195.448V200.68C93.9839 200.893 93.8772 201 93.6639 201H93.3439C93.1305 201 93.0239 200.893 93.0239 200.68V199.96C92.7572 200.387 92.3785 200.707 91.8879 200.92C91.4079 201.133 90.8692 201.24 90.2719 201.24C89.4399 201.24 88.7625 201.064 88.2399 200.712C87.7172 200.36 87.4559 199.816 87.4559 199.08C87.4559 198.493 87.6212 198.024 87.9519 197.672C88.2825 197.309 88.7145 197.037 89.2479 196.856C89.7812 196.664 90.4479 196.493 91.2479 196.344L92.9759 196.04V195.528C92.9759 194.984 92.7892 194.563 92.4159 194.264C92.0425 193.955 91.5519 193.8 90.9439 193.8C90.4852 193.8 90.0692 193.885 89.6959 194.056C89.3225 194.227 88.9225 194.52 88.4959 194.936C88.4212 195.011 88.3412 195.048 88.2559 195.048C88.1812 195.048 88.1119 195.016 88.0479 194.952L87.8399 194.76C87.7652 194.685 87.7279 194.605 87.7279 194.52C87.7279 194.424 87.7652 194.339 87.8399 194.264C88.2879 193.795 88.7572 193.453 89.2479 193.24C89.7492 193.027 90.2985 192.92 90.8959 192.92ZM90.3199 200.36C91.0879 200.36 91.7225 200.157 92.2239 199.752C92.7252 199.347 92.9759 198.829 92.9759 198.2V196.856L91.4879 197.144C90.7945 197.283 90.2452 197.416 89.8399 197.544C89.4345 197.672 89.1092 197.859 88.8639 198.104C88.6185 198.349 88.4959 198.669 88.4959 199.064C88.4959 199.469 88.6559 199.789 88.9759 200.024C89.3065 200.248 89.7545 200.36 90.3199 200.36ZM104.341 192.92C105.194 192.92 105.845 193.165 106.293 193.656C106.751 194.136 106.981 194.755 106.981 195.512V200.68C106.981 200.893 106.874 201 106.661 201H106.245C106.031 201 105.925 200.893 105.925 200.68V195.8C105.925 195.16 105.775 194.669 105.477 194.328C105.189 193.987 104.757 193.816 104.181 193.816C103.573 193.816 103.087 194.019 102.725 194.424C102.362 194.829 102.181 195.352 102.181 195.992V200.68C102.181 200.893 102.074 201 101.861 201H101.445C101.231 201 101.125 200.893 101.125 200.68V195.8C101.125 195.16 100.975 194.669 100.677 194.328C100.389 193.987 99.9513 193.816 99.3646 193.816C98.8206 193.816 98.3673 193.987 98.0046 194.328C97.6526 194.669 97.4446 195.117 97.3806 195.672V200.68C97.3806 200.893 97.274 201 97.0606 201H96.6446C96.4313 201 96.3246 200.893 96.3246 200.68V193.432C96.3246 193.219 96.4313 193.112 96.6446 193.112H96.9966C97.21 193.112 97.3166 193.219 97.3166 193.432V194.088C97.7966 193.309 98.5593 192.92 99.6046 192.92C100.149 192.92 100.613 193.043 100.997 193.288C101.391 193.523 101.685 193.843 101.877 194.248C102.442 193.363 103.263 192.92 104.341 192.92ZM115.053 199.128C115.128 199.053 115.208 199.016 115.293 199.016C115.368 199.016 115.437 199.048 115.501 199.112L115.709 199.304C115.784 199.379 115.821 199.459 115.821 199.544C115.821 199.608 115.789 199.683 115.725 199.768C115.202 200.291 114.696 200.664 114.205 200.888C113.714 201.101 113.165 201.208 112.557 201.208C111.789 201.208 111.122 201.037 110.557 200.696C109.992 200.355 109.554 199.88 109.245 199.272C108.936 198.653 108.781 197.939 108.781 197.128C108.781 196.307 108.93 195.581 109.229 194.952C109.538 194.312 109.97 193.816 110.525 193.464C111.08 193.101 111.72 192.92 112.445 192.92C113.522 192.92 114.37 193.256 114.989 193.928C115.608 194.6 115.917 195.507 115.917 196.648V196.84C115.906 196.936 115.869 197.011 115.805 197.064C115.752 197.117 115.677 197.144 115.581 197.144H109.853C109.885 198.04 110.12 198.797 110.557 199.416C111.005 200.024 111.672 200.328 112.557 200.328C113.037 200.328 113.458 200.243 113.821 200.072C114.194 199.891 114.605 199.576 115.053 199.128ZM112.445 193.8C111.741 193.8 111.16 194.019 110.701 194.456C110.253 194.883 109.981 195.512 109.885 196.344H114.861C114.84 195.565 114.616 194.947 114.189 194.488C113.762 194.029 113.181 193.8 112.445 193.8ZM127.169 193.8C127.276 193.8 127.35 193.832 127.393 193.896C127.446 193.96 127.462 194.045 127.441 194.152L126.641 197.976C126.566 198.296 126.529 198.573 126.529 198.808C126.529 199.629 126.934 200.04 127.745 200.04C128.14 200.04 128.502 199.907 128.833 199.64C129.164 199.363 129.425 198.968 129.617 198.456C129.809 197.944 129.905 197.341 129.905 196.648C129.905 195.453 129.649 194.44 129.137 193.608C128.625 192.765 127.942 192.131 127.089 191.704C126.246 191.277 125.313 191.064 124.289 191.064C123.116 191.064 122.076 191.341 121.169 191.896C120.262 192.44 119.558 193.192 119.057 194.152C118.556 195.101 118.305 196.163 118.305 197.336C118.305 198.477 118.545 199.501 119.025 200.408C119.505 201.304 120.214 202.008 121.153 202.52C122.092 203.043 123.222 203.304 124.545 203.304H127.633C127.846 203.304 127.953 203.411 127.953 203.624V203.72C127.953 203.933 127.846 204.04 127.633 204.04H124.305C122.897 204.04 121.67 203.752 120.625 203.176C119.59 202.611 118.796 201.821 118.241 200.808C117.697 199.784 117.425 198.616 117.425 197.304C117.425 195.971 117.702 194.776 118.257 193.72C118.812 192.653 119.606 191.821 120.641 191.224C121.676 190.616 122.876 190.312 124.241 190.312C125.51 190.312 126.641 190.573 127.633 191.096C128.625 191.608 129.398 192.339 129.953 193.288C130.508 194.237 130.785 195.341 130.785 196.6C130.785 197.443 130.652 198.179 130.385 198.808C130.118 199.437 129.75 199.928 129.281 200.28C128.812 200.621 128.278 200.792 127.681 200.792C126.998 200.792 126.502 200.627 126.193 200.296C125.894 199.955 125.729 199.571 125.697 199.144C125.356 199.677 124.961 200.088 124.513 200.376C124.065 200.653 123.532 200.792 122.913 200.792C122.209 200.792 121.654 200.584 121.249 200.168C120.844 199.741 120.641 199.149 120.641 198.392C120.641 197.645 120.796 196.909 121.105 196.184C121.425 195.448 121.873 194.845 122.449 194.376C123.025 193.907 123.681 193.672 124.417 193.672C124.972 193.672 125.414 193.795 125.745 194.04C126.086 194.275 126.3 194.595 126.385 195L126.561 194.088C126.593 193.896 126.71 193.8 126.913 193.8H127.169ZM123.041 199.976C123.67 199.976 124.198 199.757 124.625 199.32C125.062 198.872 125.388 198.344 125.601 197.736C125.814 197.117 125.921 196.568 125.921 196.088C125.921 195.544 125.809 195.139 125.585 194.872C125.361 194.595 124.982 194.456 124.449 194.456C123.905 194.456 123.414 194.648 122.977 195.032C122.55 195.416 122.214 195.907 121.969 196.504C121.734 197.101 121.617 197.699 121.617 198.296C121.617 198.861 121.74 199.283 121.985 199.56C122.241 199.837 122.593 199.976 123.041 199.976ZM135.77 190.328C135.29 190.328 134.949 190.456 134.746 190.712C134.543 190.957 134.442 191.373 134.442 191.96V193.112H136.202C136.415 193.112 136.522 193.219 136.522 193.432V193.592C136.522 193.805 136.415 193.912 136.202 193.912H134.442V200.68C134.442 200.893 134.335 201 134.122 201H133.706C133.493 201 133.386 200.893 133.386 200.68V193.912H132.202C131.989 193.912 131.882 193.805 131.882 193.592V193.432C131.882 193.219 131.989 193.112 132.202 193.112H133.386V191.784C133.386 191.048 133.578 190.472 133.962 190.056C134.357 189.64 134.917 189.432 135.642 189.432C136.047 189.432 136.463 189.491 136.89 189.608C137.093 189.672 137.167 189.805 137.114 190.008L137.05 190.232C136.997 190.381 136.89 190.456 136.73 190.456C136.698 190.456 136.629 190.445 136.522 190.424C136.287 190.36 136.037 190.328 135.77 190.328ZM138.603 191.112C138.389 191.112 138.208 191.037 138.059 190.888C137.92 190.739 137.851 190.557 137.851 190.344C137.851 190.131 137.92 189.955 138.059 189.816C138.208 189.677 138.389 189.608 138.603 189.608C138.827 189.608 139.008 189.677 139.147 189.816C139.296 189.955 139.371 190.131 139.371 190.344C139.371 190.557 139.296 190.739 139.147 190.888C139.008 191.037 138.827 191.112 138.603 191.112ZM138.395 201C138.181 201 138.075 200.893 138.075 200.68V193.432C138.075 193.219 138.181 193.112 138.395 193.112H138.811C139.024 193.112 139.131 193.219 139.131 193.432V200.68C139.131 200.893 139.024 201 138.811 201H138.395ZM145.001 192.92C145.929 192.92 146.628 193.176 147.097 193.688C147.577 194.2 147.817 194.84 147.817 195.608V200.68C147.817 200.893 147.71 201 147.497 201H147.081C146.868 201 146.761 200.893 146.761 200.68V195.96C146.761 195.256 146.59 194.723 146.249 194.36C145.908 193.997 145.417 193.816 144.777 193.816C144.372 193.816 143.998 193.917 143.657 194.12C143.316 194.312 143.044 194.579 142.841 194.92C142.638 195.261 142.537 195.635 142.537 196.04V200.68C142.537 200.893 142.43 201 142.217 201H141.801C141.588 201 141.481 200.893 141.481 200.68V193.432C141.481 193.219 141.588 193.112 141.801 193.112H142.153C142.366 193.112 142.473 193.219 142.473 193.432V194.2C142.74 193.773 143.092 193.453 143.529 193.24C143.966 193.027 144.457 192.92 145.001 192.92ZM153.673 192.92C154.601 192.92 155.299 193.176 155.769 193.688C156.249 194.2 156.489 194.84 156.489 195.608V200.68C156.489 200.893 156.382 201 156.169 201H155.753C155.539 201 155.433 200.893 155.433 200.68V195.96C155.433 195.256 155.262 194.723 154.921 194.36C154.579 193.997 154.089 193.816 153.449 193.816C153.043 193.816 152.67 193.917 152.329 194.12C151.987 194.312 151.715 194.579 151.513 194.92C151.31 195.261 151.209 195.635 151.209 196.04V200.68C151.209 200.893 151.102 201 150.889 201H150.473C150.259 201 150.153 200.893 150.153 200.68V193.432C150.153 193.219 150.259 193.112 150.473 193.112H150.825C151.038 193.112 151.145 193.219 151.145 193.432V194.2C151.411 193.773 151.763 193.453 152.201 193.24C152.638 193.027 153.129 192.92 153.673 192.92ZM159.257 201.112C159.033 201.112 158.841 201.032 158.681 200.872C158.521 200.712 158.441 200.52 158.441 200.296C158.441 200.072 158.521 199.88 158.681 199.72C158.841 199.56 159.033 199.48 159.257 199.48C159.481 199.48 159.673 199.56 159.833 199.72C159.993 199.88 160.073 200.072 160.073 200.296C160.073 200.52 159.993 200.712 159.833 200.872C159.673 201.032 159.481 201.112 159.257 201.112ZM165.579 192.92C166.507 192.92 167.206 193.176 167.675 193.688C168.155 194.2 168.395 194.84 168.395 195.608V200.68C168.395 200.893 168.288 201 168.075 201H167.659C167.446 201 167.339 200.893 167.339 200.68V195.96C167.339 195.256 167.168 194.723 166.827 194.36C166.486 193.997 165.995 193.816 165.355 193.816C164.95 193.816 164.576 193.917 164.235 194.12C163.894 194.312 163.622 194.579 163.419 194.92C163.216 195.261 163.115 195.635 163.115 196.04V200.68C163.115 200.893 163.008 201 162.795 201H162.379C162.166 201 162.059 200.893 162.059 200.68V193.432C162.059 193.219 162.166 193.112 162.379 193.112H162.731C162.944 193.112 163.051 193.219 163.051 193.432V194.2C163.318 193.773 163.67 193.453 164.107 193.24C164.544 193.027 165.035 192.92 165.579 192.92ZM173.995 201.208C173.259 201.208 172.603 201.032 172.027 200.68C171.451 200.328 171.003 199.843 170.683 199.224C170.363 198.595 170.203 197.875 170.203 197.064C170.203 196.253 170.363 195.539 170.683 194.92C171.003 194.291 171.451 193.8 172.027 193.448C172.603 193.096 173.259 192.92 173.995 192.92C174.731 192.92 175.387 193.096 175.963 193.448C176.539 193.8 176.987 194.291 177.307 194.92C177.627 195.539 177.787 196.253 177.787 197.064C177.787 197.875 177.627 198.595 177.307 199.224C176.987 199.843 176.539 200.328 175.963 200.68C175.387 201.032 174.731 201.208 173.995 201.208ZM173.995 200.328C174.816 200.328 175.472 200.029 175.963 199.432C176.454 198.824 176.699 198.035 176.699 197.064C176.699 196.093 176.454 195.309 175.963 194.712C175.472 194.104 174.816 193.8 173.995 193.8C173.174 193.8 172.518 194.104 172.027 194.712C171.536 195.309 171.291 196.093 171.291 197.064C171.291 198.035 171.536 198.824 172.027 199.432C172.518 200.029 173.174 200.328 173.995 200.328Z" fill="#C3CCD9"/>
</g>
<rect x="70.5" y="172.5" width="202" height="47" rx="3.5" stroke="#C3CCD9"/>
<defs>
<clipPath id="clip0_899_41396">
<rect width="187" height="22" fill="white" transform="translate(78 185)"/>
</clipPath>
</defs>
</svg>
