<svg width="344" height="168" viewBox="0 0 344 168" fill="none" xmlns="http://www.w3.org/2000/svg">
<path d="M71.568 63C71.4187 63 71.2973 62.958 71.204 62.874C71.12 62.7807 71.078 62.6593 71.078 62.51V53.55C71.078 53.3913 71.12 53.27 71.204 53.186C71.2973 53.102 71.4187 53.06 71.568 53.06H77.378C77.5367 53.06 77.658 53.102 77.742 53.186C77.826 53.27 77.868 53.3913 77.868 53.55V53.914C77.868 54.0633 77.826 54.1847 77.742 54.278C77.658 54.362 77.5367 54.404 77.378 54.404H72.674V57.204H77.028C77.1867 57.204 77.308 57.246 77.392 57.33C77.476 57.414 77.518 57.5353 77.518 57.694V58.058C77.518 58.2073 77.476 58.3287 77.392 58.422C77.308 58.506 77.1867 58.548 77.028 58.548H72.674V61.656H77.518C77.6767 61.656 77.798 61.698 77.882 61.782C77.966 61.866 78.008 61.9873 78.008 62.146V62.51C78.008 62.6593 77.966 62.7807 77.882 62.874C77.798 62.958 77.6767 63 77.518 63H71.568ZM86.9143 55.888C87.6516 55.888 88.221 56.098 88.6223 56.518C89.0236 56.9287 89.2243 57.484 89.2243 58.184V62.51C89.2243 62.6593 89.1823 62.7807 89.0983 62.874C89.0143 62.958 88.893 63 88.7343 63H88.2303C88.081 63 87.9596 62.958 87.8663 62.874C87.7823 62.7807 87.7403 62.6593 87.7403 62.51V58.632C87.7403 58.1747 87.6376 57.8153 87.4323 57.554C87.227 57.2927 86.9143 57.162 86.4943 57.162C86.065 57.162 85.7243 57.3067 85.4723 57.596C85.2296 57.8853 85.1083 58.2587 85.1083 58.716V62.51C85.1083 62.6593 85.0663 62.7807 84.9823 62.874C84.8983 62.958 84.777 63 84.6183 63H84.1143C83.965 63 83.8436 62.958 83.7503 62.874C83.6663 62.7807 83.6243 62.6593 83.6243 62.51V58.632C83.6243 58.1747 83.5216 57.8153 83.3163 57.554C83.1203 57.2927 82.8123 57.162 82.3923 57.162C81.9816 57.162 81.6503 57.2973 81.3983 57.568C81.1463 57.8387 81.011 58.1887 80.9923 58.618V62.51C80.9923 62.6593 80.9503 62.7807 80.8663 62.874C80.7823 62.958 80.661 63 80.5023 63H79.9983C79.849 63 79.7276 62.958 79.6343 62.874C79.5503 62.7807 79.5083 62.6593 79.5083 62.51V56.588C79.5083 56.4293 79.5503 56.308 79.6343 56.224C79.7276 56.14 79.849 56.098 79.9983 56.098H80.4043C80.563 56.098 80.6843 56.14 80.7683 56.224C80.8523 56.308 80.8943 56.4293 80.8943 56.588V56.896C81.3236 56.224 81.9863 55.888 82.8823 55.888C83.3303 55.888 83.7223 55.9813 84.0583 56.168C84.3943 56.3547 84.651 56.616 84.8283 56.952C85.3043 56.2427 85.9996 55.888 86.9143 55.888ZM93.8363 55.888C94.7696 55.888 95.4883 56.1073 95.9923 56.546C96.4963 56.9753 96.7483 57.5493 96.7483 58.268V62.51C96.7483 62.6593 96.7063 62.7807 96.6223 62.874C96.5383 62.958 96.417 63 96.2583 63H95.8943C95.745 63 95.6236 62.958 95.5303 62.874C95.4463 62.7807 95.4043 62.6593 95.4043 62.51V62.202C95.1803 62.5287 94.8723 62.7807 94.4803 62.958C94.0883 63.1353 93.631 63.224 93.1083 63.224C92.3896 63.224 91.797 63.0653 91.3303 62.748C90.873 62.4213 90.6443 61.9313 90.6443 61.278C90.6443 60.55 90.915 60.0133 91.4563 59.668C92.007 59.3133 92.7676 59.0473 93.7383 58.87L95.3203 58.576V58.324C95.3203 57.9413 95.185 57.6473 94.9143 57.442C94.653 57.2273 94.303 57.12 93.8643 57.12C93.491 57.12 93.1643 57.1853 92.8843 57.316C92.6136 57.4373 92.3196 57.6427 92.0023 57.932C91.881 58.0347 91.7643 58.086 91.6523 58.086C91.5403 58.086 91.4236 58.0347 91.3023 57.932L91.0783 57.736C90.957 57.624 90.8963 57.5027 90.8963 57.372C90.8963 57.2507 90.9523 57.134 91.0643 57.022C91.4656 56.6393 91.8903 56.3547 92.3383 56.168C92.7863 55.9813 93.2856 55.888 93.8363 55.888ZM93.3183 62.034C93.8783 62.034 94.3496 61.8847 94.7323 61.586C95.1243 61.2873 95.3203 60.858 95.3203 60.298V59.654L94.1023 59.906C93.421 60.046 92.917 60.2047 92.5903 60.382C92.2636 60.5593 92.1003 60.83 92.1003 61.194C92.1003 61.4553 92.2076 61.6607 92.4223 61.81C92.637 61.9593 92.9356 62.034 93.3183 62.034ZM99.1998 54.754C98.9292 54.754 98.7005 54.6653 98.5138 54.488C98.3272 54.3013 98.2338 54.082 98.2338 53.83C98.2338 53.5687 98.3272 53.3493 98.5138 53.172C98.7005 52.9947 98.9292 52.906 99.1998 52.906C99.4705 52.906 99.6992 52.9947 99.8858 53.172C100.073 53.3493 100.166 53.5687 100.166 53.83C100.166 54.082 100.073 54.3013 99.8858 54.488C99.6992 54.6653 99.4705 54.754 99.1998 54.754ZM98.9338 63C98.7845 63 98.6632 62.958 98.5698 62.874C98.4858 62.7807 98.4438 62.6593 98.4438 62.51V56.588C98.4438 56.4293 98.4858 56.308 98.5698 56.224C98.6632 56.14 98.7845 56.098 98.9338 56.098H99.4378C99.5965 56.098 99.7178 56.14 99.8018 56.224C99.8858 56.308 99.9278 56.4293 99.9278 56.588V62.51C99.9278 62.6593 99.8858 62.7807 99.8018 62.874C99.7178 62.958 99.5965 63 99.4378 63H98.9338ZM102.189 63C102.04 63 101.918 62.958 101.825 62.874C101.741 62.7807 101.699 62.6593 101.699 62.51V53.55C101.699 53.3913 101.741 53.27 101.825 53.186C101.918 53.102 102.04 53.06 102.189 53.06H102.693C102.852 53.06 102.973 53.102 103.057 53.186C103.141 53.27 103.183 53.3913 103.183 53.55V62.51C103.183 62.6593 103.141 62.7807 103.057 62.874C102.973 62.958 102.852 63 102.693 63H102.189Z" fill="#464646"/>
<rect x="70.5" y="71.5" width="202" height="47" rx="3.5" fill="white"/>
<g clip-path="url(#clip0_899_25410)">
<path d="M82.192 89.328C81.712 89.328 81.3707 89.456 81.168 89.712C80.9653 89.9573 80.864 90.3733 80.864 90.96V92.112H82.624C82.8373 92.112 82.944 92.2187 82.944 92.432V92.592C82.944 92.8053 82.8373 92.912 82.624 92.912H80.864V99.68C80.864 99.8933 80.7573 100 80.544 100H80.128C79.9147 100 79.808 99.8933 79.808 99.68V92.912H78.624C78.4107 92.912 78.304 92.8053 78.304 92.592V92.432C78.304 92.2187 78.4107 92.112 78.624 92.112H79.808V90.784C79.808 90.048 80 89.472 80.384 89.056C80.7787 88.64 81.3387 88.432 82.064 88.432C82.4693 88.432 82.8853 88.4907 83.312 88.608C83.5147 88.672 83.5893 88.8053 83.536 89.008L83.472 89.232C83.4187 89.3813 83.312 89.456 83.152 89.456C83.12 89.456 83.0507 89.4453 82.944 89.424C82.7093 89.36 82.4587 89.328 82.192 89.328ZM87.224 91.92C88.1947 91.92 88.952 92.1547 89.496 92.624C90.04 93.0827 90.312 93.6907 90.312 94.448V99.68C90.312 99.8933 90.2053 100 89.992 100H89.672C89.4587 100 89.352 99.8933 89.352 99.68V98.96C89.0853 99.3867 88.7067 99.7067 88.216 99.92C87.736 100.133 87.1973 100.24 86.6 100.24C85.768 100.24 85.0907 100.064 84.568 99.712C84.0453 99.36 83.784 98.816 83.784 98.08C83.784 97.4933 83.9493 97.024 84.28 96.672C84.6107 96.3093 85.0427 96.0373 85.576 95.856C86.1093 95.664 86.776 95.4933 87.576 95.344L89.304 95.04V94.528C89.304 93.984 89.1173 93.5627 88.744 93.264C88.3707 92.9547 87.88 92.8 87.272 92.8C86.8133 92.8 86.3973 92.8853 86.024 93.056C85.6507 93.2267 85.2507 93.52 84.824 93.936C84.7493 94.0107 84.6693 94.048 84.584 94.048C84.5093 94.048 84.44 94.016 84.376 93.952L84.168 93.76C84.0933 93.6853 84.056 93.6053 84.056 93.52C84.056 93.424 84.0933 93.3387 84.168 93.264C84.616 92.7947 85.0853 92.4533 85.576 92.24C86.0773 92.0267 86.6267 91.92 87.224 91.92ZM86.648 99.36C87.416 99.36 88.0507 99.1573 88.552 98.752C89.0533 98.3467 89.304 97.8293 89.304 97.2V95.856L87.816 96.144C87.1227 96.2827 86.5733 96.416 86.168 96.544C85.7627 96.672 85.4373 96.8587 85.192 97.104C84.9467 97.3493 84.824 97.6693 84.824 98.064C84.824 98.4693 84.984 98.7893 85.304 99.024C85.6347 99.248 86.0827 99.36 86.648 99.36ZM96.4288 91.936C97.1008 91.936 97.6981 92.112 98.2208 92.464C98.7541 92.8053 99.1648 93.2907 99.4528 93.92C99.7514 94.5387 99.9008 95.2533 99.9008 96.064C99.9008 96.8747 99.7514 97.5947 99.4528 98.224C99.1541 98.8427 98.7381 99.328 98.2048 99.68C97.6821 100.021 97.0901 100.192 96.4288 100.192C95.1594 100.192 94.2314 99.7013 93.6448 98.72V99.68C93.6448 99.8933 93.5381 100 93.3248 100H92.9728C92.7594 100 92.6528 99.8933 92.6528 99.68V88.944C92.6528 88.7307 92.7594 88.624 92.9728 88.624H93.3888C93.6021 88.624 93.7088 88.7307 93.7088 88.944V93.36C94.2954 92.4107 95.2021 91.936 96.4288 91.936ZM96.3488 99.296C97.0848 99.296 97.6768 98.9973 98.1248 98.4C98.5834 97.8027 98.8128 97.024 98.8128 96.064C98.8128 95.104 98.5834 94.3253 98.1248 93.728C97.6768 93.1307 97.0848 92.832 96.3488 92.832C95.5594 92.832 94.9141 93.12 94.4128 93.696C93.9114 94.272 93.6608 95.0613 93.6608 96.064C93.6608 97.0773 93.9061 97.872 94.3968 98.448C94.8981 99.0133 95.5488 99.296 96.3488 99.296ZM104.722 92.048C104.988 92.048 105.303 92.0907 105.666 92.176C105.858 92.24 105.932 92.3733 105.89 92.576L105.826 92.832C105.772 93.0347 105.639 93.1093 105.426 93.056C105.17 92.992 104.935 92.96 104.722 92.96C104.178 92.96 103.724 93.1947 103.362 93.664C103.01 94.1333 102.834 94.784 102.834 95.616V99.68C102.834 99.8933 102.727 100 102.514 100H102.098C101.884 100 101.778 99.8933 101.778 99.68V92.432C101.778 92.2187 101.884 92.112 102.098 92.112H102.45C102.663 92.112 102.77 92.2187 102.77 92.432V93.312C102.951 92.9173 103.207 92.608 103.538 92.384C103.879 92.16 104.274 92.048 104.722 92.048ZM107.853 90.112C107.639 90.112 107.458 90.0373 107.309 89.888C107.17 89.7387 107.101 89.5573 107.101 89.344C107.101 89.1307 107.17 88.9547 107.309 88.816C107.458 88.6773 107.639 88.608 107.853 88.608C108.077 88.608 108.258 88.6773 108.397 88.816C108.546 88.9547 108.621 89.1307 108.621 89.344C108.621 89.5573 108.546 89.7387 108.397 89.888C108.258 90.0373 108.077 90.112 107.853 90.112ZM107.645 100C107.431 100 107.325 99.8933 107.325 99.68V92.432C107.325 92.2187 107.431 92.112 107.645 92.112H108.061C108.274 92.112 108.381 92.2187 108.381 92.432V99.68C108.381 99.8933 108.274 100 108.061 100H107.645ZM113.931 100.208C113.174 100.208 112.512 100.037 111.947 99.696C111.392 99.344 110.96 98.8587 110.651 98.24C110.352 97.6107 110.203 96.8853 110.203 96.064C110.203 95.2533 110.352 94.5333 110.651 93.904C110.96 93.2747 111.392 92.7893 111.947 92.448C112.512 92.096 113.163 91.92 113.899 91.92C114.496 91.92 115.019 92.0213 115.467 92.224C115.915 92.416 116.347 92.736 116.763 93.184C116.827 93.248 116.859 93.3173 116.859 93.392C116.859 93.488 116.816 93.568 116.731 93.632L116.507 93.84C116.443 93.904 116.368 93.936 116.283 93.936C116.208 93.936 116.128 93.8933 116.043 93.808C115.67 93.4347 115.312 93.1733 114.971 93.024C114.64 92.8747 114.272 92.8 113.867 92.8C113.312 92.8 112.838 92.9547 112.443 93.264C112.059 93.5733 111.771 93.9787 111.579 94.48C111.387 94.9707 111.291 95.4987 111.291 96.064C111.291 96.6293 111.387 97.1627 111.579 97.664C111.771 98.1547 112.064 98.5547 112.459 98.864C112.854 99.1627 113.339 99.312 113.915 99.312C114.342 99.312 114.715 99.2373 115.035 99.088C115.366 98.928 115.734 98.6293 116.139 98.192C116.224 98.1067 116.304 98.064 116.379 98.064C116.464 98.064 116.539 98.096 116.603 98.16L116.827 98.336C116.902 98.4 116.939 98.4747 116.939 98.56C116.939 98.6453 116.891 98.7467 116.795 98.864C116.347 99.3547 115.899 99.7013 115.451 99.904C115.003 100.107 114.496 100.208 113.931 100.208ZM128.013 92.8C128.119 92.8 128.194 92.832 128.237 92.896C128.29 92.96 128.306 93.0453 128.285 93.152L127.485 96.976C127.41 97.296 127.373 97.5733 127.373 97.808C127.373 98.6293 127.778 99.04 128.589 99.04C128.983 99.04 129.346 98.9067 129.677 98.64C130.007 98.3627 130.269 97.968 130.461 97.456C130.653 96.944 130.749 96.3413 130.749 95.648C130.749 94.4533 130.493 93.44 129.981 92.608C129.469 91.7653 128.786 91.1307 127.933 90.704C127.09 90.2773 126.157 90.064 125.133 90.064C123.959 90.064 122.919 90.3413 122.013 90.896C121.106 91.44 120.402 92.192 119.901 93.152C119.399 94.1013 119.149 95.1627 119.149 96.336C119.149 97.4773 119.389 98.5013 119.869 99.408C120.349 100.304 121.058 101.008 121.997 101.52C122.935 102.043 124.066 102.304 125.389 102.304H128.477C128.69 102.304 128.797 102.411 128.797 102.624V102.72C128.797 102.933 128.69 103.04 128.477 103.04H125.149C123.741 103.04 122.514 102.752 121.469 102.176C120.434 101.611 119.639 100.821 119.085 99.808C118.541 98.784 118.269 97.616 118.269 96.304C118.269 94.9707 118.546 93.776 119.101 92.72C119.655 91.6533 120.45 90.8213 121.485 90.224C122.519 89.616 123.719 89.312 125.085 89.312C126.354 89.312 127.485 89.5733 128.477 90.096C129.469 90.608 130.242 91.3387 130.797 92.288C131.351 93.2373 131.629 94.3413 131.629 95.6C131.629 96.4427 131.495 97.1787 131.229 97.808C130.962 98.4373 130.594 98.928 130.125 99.28C129.655 99.6213 129.122 99.792 128.525 99.792C127.842 99.792 127.346 99.6267 127.037 99.296C126.738 98.9547 126.573 98.5707 126.541 98.144C126.199 98.6773 125.805 99.088 125.357 99.376C124.909 99.6533 124.375 99.792 123.757 99.792C123.053 99.792 122.498 99.584 122.093 99.168C121.687 98.7413 121.485 98.1493 121.485 97.392C121.485 96.6453 121.639 95.9093 121.949 95.184C122.269 94.448 122.717 93.8453 123.293 93.376C123.869 92.9067 124.525 92.672 125.261 92.672C125.815 92.672 126.258 92.7947 126.589 93.04C126.93 93.2747 127.143 93.5947 127.229 94L127.405 93.088C127.437 92.896 127.554 92.8 127.757 92.8H128.013ZM123.885 98.976C124.514 98.976 125.042 98.7573 125.469 98.32C125.906 97.872 126.231 97.344 126.445 96.736C126.658 96.1173 126.765 95.568 126.765 95.088C126.765 94.544 126.653 94.1387 126.429 93.872C126.205 93.5947 125.826 93.456 125.293 93.456C124.749 93.456 124.258 93.648 123.821 94.032C123.394 94.416 123.058 94.9067 122.813 95.504C122.578 96.1013 122.461 96.6987 122.461 97.296C122.461 97.8613 122.583 98.2827 122.829 98.56C123.085 98.8373 123.437 98.976 123.885 98.976ZM136.614 89.328C136.134 89.328 135.793 89.456 135.59 89.712C135.387 89.9573 135.286 90.3733 135.286 90.96V92.112H137.046C137.259 92.112 137.366 92.2187 137.366 92.432V92.592C137.366 92.8053 137.259 92.912 137.046 92.912H135.286V99.68C135.286 99.8933 135.179 100 134.966 100H134.55C134.337 100 134.23 99.8933 134.23 99.68V92.912H133.046C132.833 92.912 132.726 92.8053 132.726 92.592V92.432C132.726 92.2187 132.833 92.112 133.046 92.112H134.23V90.784C134.23 90.048 134.422 89.472 134.806 89.056C135.201 88.64 135.761 88.432 136.486 88.432C136.891 88.432 137.307 88.4907 137.734 88.608C137.937 88.672 138.011 88.8053 137.958 89.008L137.894 89.232C137.841 89.3813 137.734 89.456 137.574 89.456C137.542 89.456 137.473 89.4453 137.366 89.424C137.131 89.36 136.881 89.328 136.614 89.328ZM139.446 90.112C139.233 90.112 139.052 90.0373 138.902 89.888C138.764 89.7387 138.694 89.5573 138.694 89.344C138.694 89.1307 138.764 88.9547 138.902 88.816C139.052 88.6773 139.233 88.608 139.446 88.608C139.67 88.608 139.852 88.6773 139.99 88.816C140.14 88.9547 140.214 89.1307 140.214 89.344C140.214 89.5573 140.14 89.7387 139.99 89.888C139.852 90.0373 139.67 90.112 139.446 90.112ZM139.238 100C139.025 100 138.918 99.8933 138.918 99.68V92.432C138.918 92.2187 139.025 92.112 139.238 92.112H139.654C139.868 92.112 139.974 92.2187 139.974 92.432V99.68C139.974 99.8933 139.868 100 139.654 100H139.238ZM145.845 91.92C146.773 91.92 147.471 92.176 147.941 92.688C148.421 93.2 148.661 93.84 148.661 94.608V99.68C148.661 99.8933 148.554 100 148.341 100H147.925C147.711 100 147.605 99.8933 147.605 99.68V94.96C147.605 94.256 147.434 93.7227 147.093 93.36C146.751 92.9973 146.261 92.816 145.621 92.816C145.215 92.816 144.842 92.9173 144.501 93.12C144.159 93.312 143.887 93.5787 143.685 93.92C143.482 94.2613 143.381 94.6347 143.381 95.04V99.68C143.381 99.8933 143.274 100 143.061 100H142.645C142.431 100 142.325 99.8933 142.325 99.68V92.432C142.325 92.2187 142.431 92.112 142.645 92.112H142.997C143.21 92.112 143.317 92.2187 143.317 92.432V93.2C143.583 92.7733 143.935 92.4533 144.373 92.24C144.81 92.0267 145.301 91.92 145.845 91.92ZM154.516 91.92C155.445 91.92 156.143 92.176 156.613 92.688C157.093 93.2 157.333 93.84 157.333 94.608V99.68C157.333 99.8933 157.226 100 157.013 100H156.597C156.383 100 156.277 99.8933 156.277 99.68V94.96C156.277 94.256 156.106 93.7227 155.765 93.36C155.423 92.9973 154.933 92.816 154.293 92.816C153.887 92.816 153.514 92.9173 153.173 93.12C152.831 93.312 152.559 93.5787 152.357 93.92C152.154 94.2613 152.053 94.6347 152.053 95.04V99.68C152.053 99.8933 151.946 100 151.733 100H151.317C151.103 100 150.997 99.8933 150.997 99.68V92.432C150.997 92.2187 151.103 92.112 151.317 92.112H151.669C151.882 92.112 151.989 92.2187 151.989 92.432V93.2C152.255 92.7733 152.607 92.4533 153.045 92.24C153.482 92.0267 153.973 91.92 154.516 91.92ZM160.1 100.112C159.876 100.112 159.684 100.032 159.524 99.872C159.364 99.712 159.284 99.52 159.284 99.296C159.284 99.072 159.364 98.88 159.524 98.72C159.684 98.56 159.876 98.48 160.1 98.48C160.324 98.48 160.516 98.56 160.676 98.72C160.836 98.88 160.916 99.072 160.916 99.296C160.916 99.52 160.836 99.712 160.676 99.872C160.516 100.032 160.324 100.112 160.1 100.112ZM166.423 91.92C167.351 91.92 168.049 92.176 168.519 92.688C168.999 93.2 169.239 93.84 169.239 94.608V99.68C169.239 99.8933 169.132 100 168.919 100H168.503C168.289 100 168.183 99.8933 168.183 99.68V94.96C168.183 94.256 168.012 93.7227 167.671 93.36C167.329 92.9973 166.839 92.816 166.199 92.816C165.793 92.816 165.42 92.9173 165.079 93.12C164.737 93.312 164.465 93.5787 164.263 93.92C164.06 94.2613 163.959 94.6347 163.959 95.04V99.68C163.959 99.8933 163.852 100 163.639 100H163.223C163.009 100 162.903 99.8933 162.903 99.68V92.432C162.903 92.2187 163.009 92.112 163.223 92.112H163.575C163.788 92.112 163.895 92.2187 163.895 92.432V93.2C164.161 92.7733 164.513 92.4533 164.951 92.24C165.388 92.0267 165.879 91.92 166.423 91.92ZM174.839 100.208C174.103 100.208 173.447 100.032 172.871 99.68C172.295 99.328 171.847 98.8427 171.527 98.224C171.207 97.5947 171.047 96.8747 171.047 96.064C171.047 95.2533 171.207 94.5387 171.527 93.92C171.847 93.2907 172.295 92.8 172.871 92.448C173.447 92.096 174.103 91.92 174.839 91.92C175.575 91.92 176.231 92.096 176.807 92.448C177.383 92.8 177.831 93.2907 178.151 93.92C178.471 94.5387 178.631 95.2533 178.631 96.064C178.631 96.8747 178.471 97.5947 178.151 98.224C177.831 98.8427 177.383 99.328 176.807 99.68C176.231 100.032 175.575 100.208 174.839 100.208ZM174.839 99.328C175.66 99.328 176.316 99.0293 176.807 98.432C177.297 97.824 177.543 97.0347 177.543 96.064C177.543 95.0933 177.297 94.3093 176.807 93.712C176.316 93.104 175.66 92.8 174.839 92.8C174.017 92.8 173.361 93.104 172.871 93.712C172.38 94.3093 172.135 95.0933 172.135 96.064C172.135 97.0347 172.38 97.824 172.871 98.432C173.361 99.0293 174.017 99.328 174.839 99.328Z" fill="#464646"/>
</g>
<rect x="70.5" y="71.5" width="202" height="47" rx="3.5" stroke="#C3CCD9"/>
<defs>
<clipPath id="clip0_899_25410">
<rect width="187" height="22" fill="white" transform="translate(78 84)"/>
</clipPath>
</defs>
</svg>
