<svg width="1080" height="1080" viewBox="0 0 1080 1080" fill="none" xmlns="http://www.w3.org/2000/svg">
<rect width="1080" height="1080" fill="#0063FB"/>
<path d="M122.464 238C122.229 238 122.039 237.934 121.892 237.802C121.76 237.655 121.694 237.465 121.694 237.23V223.15C121.694 222.901 121.76 222.71 121.892 222.578C122.039 222.446 122.229 222.38 122.464 222.38H127.766C129.233 222.38 130.487 222.71 131.528 223.37C132.584 224.03 133.383 224.954 133.926 226.142C134.483 227.315 134.762 228.665 134.762 230.19C134.762 231.715 134.483 233.072 133.926 234.26C133.383 235.433 132.584 236.35 131.528 237.01C130.487 237.67 129.233 238 127.766 238H122.464ZM127.392 235.888C128.888 235.888 130.061 235.397 130.912 234.414C131.777 233.417 132.21 232.009 132.21 230.19C132.21 228.371 131.777 226.971 130.912 225.988C130.061 224.991 128.888 224.492 127.392 224.492H124.202V235.888H127.392ZM138.062 238C137.827 238 137.636 237.934 137.49 237.802C137.358 237.655 137.292 237.465 137.292 237.23V223.15C137.292 222.901 137.358 222.71 137.49 222.578C137.636 222.446 137.827 222.38 138.062 222.38H147.192C147.441 222.38 147.632 222.446 147.764 222.578C147.896 222.71 147.962 222.901 147.962 223.15V223.722C147.962 223.957 147.896 224.147 147.764 224.294C147.632 224.426 147.441 224.492 147.192 224.492H139.8V228.892H146.642C146.891 228.892 147.082 228.958 147.214 229.09C147.346 229.222 147.412 229.413 147.412 229.662V230.234C147.412 230.469 147.346 230.659 147.214 230.806C147.082 230.938 146.891 231.004 146.642 231.004H139.8V235.888H147.412C147.661 235.888 147.852 235.954 147.984 236.086C148.116 236.218 148.182 236.409 148.182 236.658V237.23C148.182 237.465 148.116 237.655 147.984 237.802C147.852 237.934 147.661 238 147.412 238H138.062ZM151.661 238C151.427 238 151.236 237.934 151.089 237.802C150.957 237.655 150.891 237.465 150.891 237.23V223.15C150.891 222.901 150.957 222.71 151.089 222.578C151.236 222.446 151.427 222.38 151.661 222.38H160.791C161.041 222.38 161.231 222.446 161.363 222.578C161.495 222.71 161.561 222.901 161.561 223.15V223.722C161.561 223.957 161.495 224.147 161.363 224.294C161.231 224.426 161.041 224.492 160.791 224.492H153.399V229.266H160.197C160.447 229.266 160.637 229.332 160.769 229.464C160.901 229.596 160.967 229.787 160.967 230.036V230.586C160.967 230.821 160.901 231.011 160.769 231.158C160.637 231.29 160.447 231.356 160.197 231.356H153.399V237.23C153.399 237.465 153.333 237.655 153.201 237.802C153.069 237.934 152.879 238 152.629 238H151.661ZM165.007 238C164.772 238 164.581 237.934 164.435 237.802C164.303 237.655 164.237 237.465 164.237 237.23V223.15C164.237 222.901 164.303 222.71 164.435 222.578C164.581 222.446 164.772 222.38 165.007 222.38H165.975C166.224 222.38 166.415 222.446 166.547 222.578C166.679 222.71 166.745 222.901 166.745 223.15V237.23C166.745 237.465 166.679 237.655 166.547 237.802C166.415 237.934 166.224 238 165.975 238H165.007ZM180.676 223.15C180.676 222.901 180.742 222.71 180.874 222.578C181.02 222.446 181.211 222.38 181.446 222.38H182.348C182.597 222.38 182.788 222.446 182.92 222.578C183.052 222.71 183.118 222.901 183.118 223.15V237.23C183.118 237.465 183.052 237.655 182.92 237.802C182.788 237.934 182.597 238 182.348 238H180.984C180.573 238 180.265 237.831 180.06 237.494L176.056 231.246C174.53 228.87 173.386 226.993 172.624 225.614C172.697 227.183 172.734 229.215 172.734 231.708V237.23C172.734 237.465 172.668 237.655 172.536 237.802C172.404 237.934 172.213 238 171.964 238H171.062C170.827 238 170.636 237.934 170.49 237.802C170.358 237.655 170.292 237.465 170.292 237.23V223.15C170.292 222.901 170.358 222.71 170.49 222.578C170.636 222.446 170.827 222.38 171.062 222.38H172.47C172.88 222.38 173.188 222.549 173.394 222.886L177.53 229.376C178.996 231.664 180.074 233.424 180.764 234.656C180.705 233.087 180.676 231.151 180.676 228.848V223.15ZM187.436 238C187.202 238 187.011 237.934 186.864 237.802C186.732 237.655 186.666 237.465 186.666 237.23V223.15C186.666 222.901 186.732 222.71 186.864 222.578C187.011 222.446 187.202 222.38 187.436 222.38H188.404C188.654 222.38 188.844 222.446 188.976 222.578C189.108 222.71 189.174 222.901 189.174 223.15V237.23C189.174 237.465 189.108 237.655 188.976 237.802C188.844 237.934 188.654 238 188.404 238H187.436ZM197.187 238C196.953 238 196.762 237.934 196.615 237.802C196.483 237.655 196.417 237.465 196.417 237.23V224.514H192.413C192.179 224.514 191.988 224.448 191.841 224.316C191.709 224.169 191.643 223.979 191.643 223.744V223.15C191.643 222.901 191.709 222.71 191.841 222.578C191.988 222.446 192.179 222.38 192.413 222.38H202.907C203.157 222.38 203.347 222.446 203.479 222.578C203.611 222.71 203.677 222.901 203.677 223.15V223.744C203.677 223.979 203.611 224.169 203.479 224.316C203.347 224.448 203.157 224.514 202.907 224.514H198.925V237.23C198.925 237.465 198.859 237.655 198.727 237.802C198.595 237.934 198.405 238 198.155 238H197.187ZM206.901 238C206.667 238 206.476 237.934 206.329 237.802C206.197 237.655 206.131 237.465 206.131 237.23V223.15C206.131 222.901 206.197 222.71 206.329 222.578C206.476 222.446 206.667 222.38 206.901 222.38H207.869C208.119 222.38 208.309 222.446 208.441 222.578C208.573 222.71 208.639 222.901 208.639 223.15V237.23C208.639 237.465 208.573 237.655 208.441 237.802C208.309 237.934 208.119 238 207.869 238H206.901ZM218.896 238.352C217.356 238.352 216.014 238 214.87 237.296C213.726 236.592 212.846 235.624 212.23 234.392C211.629 233.145 211.328 231.745 211.328 230.19C211.328 228.635 211.629 227.242 212.23 226.01C212.846 224.763 213.726 223.788 214.87 223.084C216.014 222.38 217.356 222.028 218.896 222.028C220.422 222.028 221.756 222.38 222.9 223.084C224.044 223.788 224.917 224.763 225.518 226.01C226.134 227.242 226.442 228.635 226.442 230.19C226.442 231.745 226.134 233.145 225.518 234.392C224.917 235.624 224.044 236.592 222.9 237.296C221.756 238 220.422 238.352 218.896 238.352ZM218.896 236.152C219.879 236.152 220.744 235.903 221.492 235.404C222.255 234.905 222.842 234.209 223.252 233.314C223.663 232.405 223.868 231.363 223.868 230.19C223.868 229.017 223.663 227.983 223.252 227.088C222.842 226.179 222.255 225.475 221.492 224.976C220.744 224.477 219.879 224.228 218.896 224.228C217.899 224.228 217.019 224.477 216.256 224.976C215.508 225.475 214.929 226.179 214.518 227.088C214.108 227.983 213.902 229.017 213.902 230.19C213.902 231.363 214.108 232.405 214.518 233.314C214.929 234.209 215.508 234.905 216.256 235.404C217.019 235.903 217.899 236.152 218.896 236.152ZM239.328 223.15C239.328 222.901 239.394 222.71 239.526 222.578C239.673 222.446 239.863 222.38 240.098 222.38H241C241.249 222.38 241.44 222.446 241.572 222.578C241.704 222.71 241.77 222.901 241.77 223.15V237.23C241.77 237.465 241.704 237.655 241.572 237.802C241.44 237.934 241.249 238 241 238H239.636C239.225 238 238.917 237.831 238.712 237.494L234.708 231.246C233.183 228.87 232.039 226.993 231.276 225.614C231.349 227.183 231.386 229.215 231.386 231.708V237.23C231.386 237.465 231.32 237.655 231.188 237.802C231.056 237.934 230.865 238 230.616 238H229.714C229.479 238 229.289 237.934 229.142 237.802C229.01 237.655 228.944 237.465 228.944 237.23V223.15C228.944 222.901 229.01 222.71 229.142 222.578C229.289 222.446 229.479 222.38 229.714 222.38H231.122C231.533 222.38 231.841 222.549 232.046 222.886L236.182 229.376C237.649 231.664 238.727 233.424 239.416 234.656C239.357 233.087 239.328 231.151 239.328 228.848V223.15ZM250.349 232.698C250.114 232.698 249.923 232.632 249.777 232.5C249.645 232.353 249.579 232.163 249.579 231.928V231.378C249.579 231.129 249.645 230.938 249.777 230.806C249.923 230.674 250.114 230.608 250.349 230.608H255.387C255.636 230.608 255.827 230.674 255.959 230.806C256.091 230.938 256.157 231.129 256.157 231.378V231.928C256.157 232.163 256.091 232.353 255.959 232.5C255.827 232.632 255.636 232.698 255.387 232.698H250.349ZM269.464 238.352C268.261 238.352 267.183 238.183 266.23 237.846C265.291 237.494 264.323 236.907 263.326 236.086C263.12 235.925 263.018 235.734 263.018 235.514C263.018 235.323 263.091 235.147 263.238 234.986L263.744 234.392C263.905 234.187 264.088 234.084 264.294 234.084C264.455 234.084 264.638 234.165 264.844 234.326C265.724 235.03 266.508 235.514 267.198 235.778C267.902 236.042 268.672 236.174 269.508 236.174C270.52 236.174 271.341 235.947 271.972 235.492C272.602 235.023 272.918 234.385 272.918 233.578C272.918 233.05 272.756 232.639 272.434 232.346C272.111 232.038 271.693 231.803 271.18 231.642C270.681 231.481 269.867 231.268 268.738 231.004C267.374 230.681 266.31 230.329 265.548 229.948C264.785 229.567 264.235 229.112 263.898 228.584C263.575 228.041 263.414 227.359 263.414 226.538C263.414 225.673 263.663 224.895 264.162 224.206C264.66 223.517 265.342 222.981 266.208 222.6C267.088 222.219 268.07 222.028 269.156 222.028C270.256 222.028 271.224 222.175 272.06 222.468C272.91 222.761 273.761 223.238 274.612 223.898C274.832 224.074 274.942 224.257 274.942 224.448C274.942 224.609 274.868 224.785 274.722 224.976L274.238 225.548C274.062 225.753 273.878 225.856 273.688 225.856C273.512 225.856 273.328 225.783 273.138 225.636C272.434 225.093 271.781 224.719 271.18 224.514C270.578 224.309 269.896 224.206 269.134 224.206C268.166 224.206 267.381 224.419 266.78 224.844C266.178 225.269 265.878 225.805 265.878 226.45C265.878 226.919 266.017 227.293 266.296 227.572C266.574 227.851 266.978 228.078 267.506 228.254C268.034 228.43 268.848 228.643 269.948 228.892C271.282 229.215 272.338 229.559 273.116 229.926C273.893 230.278 274.472 230.733 274.854 231.29C275.235 231.847 275.426 232.559 275.426 233.424C275.426 234.392 275.176 235.25 274.678 235.998C274.179 236.746 273.482 237.325 272.588 237.736C271.693 238.147 270.652 238.352 269.464 238.352ZM278.874 238C278.639 238 278.449 237.934 278.302 237.802C278.17 237.655 278.104 237.465 278.104 237.23V223.15C278.104 222.901 278.17 222.71 278.302 222.578C278.449 222.446 278.639 222.38 278.874 222.38H279.842C280.091 222.38 280.282 222.446 280.414 222.578C280.546 222.71 280.612 222.901 280.612 223.15V237.23C280.612 237.465 280.546 237.655 280.414 237.802C280.282 237.934 280.091 238 279.842 238H278.874ZM294.543 223.15C294.543 222.901 294.609 222.71 294.741 222.578C294.888 222.446 295.078 222.38 295.313 222.38H296.215C296.464 222.38 296.655 222.446 296.787 222.578C296.919 222.71 296.985 222.901 296.985 223.15V237.23C296.985 237.465 296.919 237.655 296.787 237.802C296.655 237.934 296.464 238 296.215 238H294.851C294.44 238 294.132 237.831 293.927 237.494L289.923 231.246C288.398 228.87 287.254 226.993 286.491 225.614C286.564 227.183 286.601 229.215 286.601 231.708V237.23C286.601 237.465 286.535 237.655 286.403 237.802C286.271 237.934 286.08 238 285.831 238H284.929C284.694 238 284.504 237.934 284.357 237.802C284.225 237.655 284.159 237.465 284.159 237.23V223.15C284.159 222.901 284.225 222.71 284.357 222.578C284.504 222.446 284.694 222.38 284.929 222.38H286.337C286.748 222.38 287.056 222.549 287.261 222.886L291.397 229.376C292.864 231.664 293.942 233.424 294.631 234.656C294.572 233.087 294.543 231.151 294.543 228.848V223.15ZM307.442 231.708C307.207 231.708 307.016 231.642 306.87 231.51C306.738 231.363 306.672 231.173 306.672 230.938V230.366C306.672 230.117 306.738 229.926 306.87 229.794C307.016 229.662 307.207 229.596 307.442 229.596H312.964C313.213 229.596 313.404 229.662 313.536 229.794C313.668 229.926 313.734 230.117 313.734 230.366V237.23C313.734 237.465 313.668 237.655 313.536 237.802C313.404 237.934 313.213 238 312.964 238H312.502C312.018 238 311.754 237.758 311.71 237.274L311.622 236.284C310.683 237.648 309.128 238.33 306.958 238.33C305.403 238.33 304.068 237.985 302.954 237.296C301.839 236.607 300.988 235.646 300.402 234.414C299.815 233.182 299.522 231.767 299.522 230.168C299.522 228.613 299.83 227.22 300.446 225.988C301.062 224.756 301.949 223.795 303.108 223.106C304.266 222.402 305.638 222.05 307.222 222.05C308.41 222.05 309.473 222.241 310.412 222.622C311.35 222.989 312.274 223.59 313.184 224.426C313.374 224.602 313.47 224.785 313.47 224.976C313.47 225.167 313.382 225.35 313.206 225.526L312.678 226.054C312.487 226.245 312.304 226.34 312.128 226.34C311.937 226.34 311.754 226.252 311.578 226.076C310.815 225.416 310.104 224.947 309.444 224.668C308.784 224.375 308.036 224.228 307.2 224.228C306.188 224.228 305.293 224.47 304.516 224.954C303.753 225.438 303.152 226.127 302.712 227.022C302.286 227.917 302.074 228.973 302.074 230.19C302.074 231.422 302.279 232.485 302.69 233.38C303.1 234.275 303.68 234.964 304.428 235.448C305.19 235.917 306.085 236.152 307.112 236.152C308.417 236.152 309.458 235.8 310.236 235.096C311.028 234.377 311.424 233.402 311.424 232.17V231.708H307.442ZM322.777 238.352C320.826 238.352 319.33 237.897 318.289 236.988C317.248 236.064 316.727 234.693 316.727 232.874V223.15C316.727 222.901 316.793 222.71 316.925 222.578C317.072 222.446 317.262 222.38 317.497 222.38H318.465C318.714 222.38 318.905 222.446 319.037 222.578C319.169 222.71 319.235 222.901 319.235 223.15V232.764C319.235 233.864 319.528 234.707 320.115 235.294C320.716 235.866 321.604 236.152 322.777 236.152C323.95 236.152 324.83 235.866 325.417 235.294C326.018 234.707 326.319 233.864 326.319 232.764V223.15C326.319 222.901 326.385 222.71 326.517 222.578C326.664 222.446 326.854 222.38 327.089 222.38H328.079C328.328 222.38 328.519 222.446 328.651 222.578C328.783 222.71 328.849 222.901 328.849 223.15V232.874C328.849 234.693 328.328 236.064 327.287 236.988C326.246 237.897 324.742 238.352 322.777 238.352ZM332.903 238C332.669 238 332.478 237.934 332.331 237.802C332.199 237.655 332.133 237.465 332.133 237.23V223.15C332.133 222.901 332.199 222.71 332.331 222.578C332.478 222.446 332.669 222.38 332.903 222.38H333.871C334.121 222.38 334.311 222.446 334.443 222.578C334.575 222.71 334.641 222.901 334.641 223.15V235.866H340.999C341.249 235.866 341.439 235.932 341.571 236.064C341.703 236.196 341.769 236.387 341.769 236.636V237.23C341.769 237.465 341.703 237.655 341.571 237.802C341.439 237.934 341.249 238 340.999 238H332.903ZM355.814 238C355.374 238 355.081 237.795 354.934 237.384L353.9 234.414H346.992L345.958 237.384C345.812 237.795 345.518 238 345.078 238H344.154C343.934 238 343.758 237.956 343.626 237.868C343.509 237.765 343.45 237.626 343.45 237.45C343.45 237.362 343.472 237.252 343.516 237.12L348.62 222.996C348.767 222.585 349.06 222.38 349.5 222.38H351.458C351.898 222.38 352.192 222.585 352.338 222.996L357.442 237.12C357.486 237.252 357.508 237.362 357.508 237.45C357.508 237.626 357.442 237.765 357.31 237.868C357.193 237.956 357.024 238 356.804 238H355.814ZM353.196 232.324L352.514 230.388C352.5 230.359 352.338 229.897 352.03 229.002C351.253 226.802 350.725 225.233 350.446 224.294C350.021 225.643 349.456 227.315 348.752 229.31L348.378 230.41L347.718 232.324H353.196ZM371.752 237.076C371.855 237.237 371.906 237.384 371.906 237.516C371.906 237.663 371.848 237.78 371.73 237.868C371.613 237.956 371.452 238 371.246 238H370.146C369.736 238 369.428 237.831 369.222 237.494L365.592 231.95H362.27V237.23C362.27 237.465 362.204 237.655 362.072 237.802C361.94 237.934 361.75 238 361.5 238H360.532C360.298 238 360.107 237.934 359.96 237.802C359.828 237.655 359.762 237.465 359.762 237.23V223.15C359.762 222.901 359.828 222.71 359.96 222.578C360.107 222.446 360.298 222.38 360.532 222.38H366.692C367.675 222.38 368.555 222.578 369.332 222.974C370.11 223.355 370.711 223.913 371.136 224.646C371.576 225.365 371.796 226.208 371.796 227.176C371.796 228.349 371.474 229.347 370.828 230.168C370.183 230.975 369.318 231.51 368.232 231.774L371.752 237.076ZM362.27 229.86H366.274C367.213 229.86 367.954 229.633 368.496 229.178C369.054 228.709 369.332 228.041 369.332 227.176C369.332 226.296 369.054 225.629 368.496 225.174C367.954 224.705 367.213 224.47 366.274 224.47H362.27V229.86ZM389.998 223.15C389.998 222.901 390.064 222.71 390.196 222.578C390.343 222.446 390.533 222.38 390.768 222.38H391.67C391.919 222.38 392.11 222.446 392.242 222.578C392.374 222.71 392.44 222.901 392.44 223.15V237.23C392.44 237.465 392.374 237.655 392.242 237.802C392.11 237.934 391.919 238 391.67 238H390.306C389.895 238 389.587 237.831 389.382 237.494L385.378 231.246C383.853 228.87 382.709 226.993 381.946 225.614C382.019 227.183 382.056 229.215 382.056 231.708V237.23C382.056 237.465 381.99 237.655 381.858 237.802C381.726 237.934 381.535 238 381.286 238H380.384C380.149 238 379.959 237.934 379.812 237.802C379.68 237.655 379.614 237.465 379.614 237.23V223.15C379.614 222.901 379.68 222.71 379.812 222.578C379.959 222.446 380.149 222.38 380.384 222.38H381.792C382.203 222.38 382.511 222.549 382.716 222.886L386.852 229.376C388.319 231.664 389.397 233.424 390.086 234.656C390.027 233.087 389.998 231.151 389.998 228.848V223.15ZM402.545 238.352C401.005 238.352 399.663 238 398.519 237.296C397.375 236.592 396.495 235.624 395.879 234.392C395.277 233.145 394.977 231.745 394.977 230.19C394.977 228.635 395.277 227.242 395.879 226.01C396.495 224.763 397.375 223.788 398.519 223.084C399.663 222.38 401.005 222.028 402.545 222.028C404.07 222.028 405.405 222.38 406.549 223.084C407.693 223.788 408.565 224.763 409.167 226.01C409.783 227.242 410.091 228.635 410.091 230.19C410.091 231.745 409.783 233.145 409.167 234.392C408.565 235.624 407.693 236.592 406.549 237.296C405.405 238 404.07 238.352 402.545 238.352ZM402.545 236.152C403.527 236.152 404.393 235.903 405.141 235.404C405.903 234.905 406.49 234.209 406.901 233.314C407.311 232.405 407.517 231.363 407.517 230.19C407.517 229.017 407.311 227.983 406.901 227.088C406.49 226.179 405.903 225.475 405.141 224.976C404.393 224.477 403.527 224.228 402.545 224.228C401.547 224.228 400.667 224.477 399.905 224.976C399.157 225.475 398.577 226.179 398.167 227.088C397.756 227.983 397.551 229.017 397.551 230.19C397.551 231.363 397.756 232.405 398.167 233.314C398.577 234.209 399.157 234.905 399.905 235.404C400.667 235.903 401.547 236.152 402.545 236.152ZM418.554 238.352C416.604 238.352 415.108 237.897 414.066 236.988C413.025 236.064 412.504 234.693 412.504 232.874V223.15C412.504 222.901 412.57 222.71 412.702 222.578C412.849 222.446 413.04 222.38 413.274 222.38H414.242C414.492 222.38 414.682 222.446 414.814 222.578C414.946 222.71 415.012 222.901 415.012 223.15V232.764C415.012 233.864 415.306 234.707 415.892 235.294C416.494 235.866 417.381 236.152 418.554 236.152C419.728 236.152 420.608 235.866 421.194 235.294C421.796 234.707 422.096 233.864 422.096 232.764V223.15C422.096 222.901 422.162 222.71 422.294 222.578C422.441 222.446 422.632 222.38 422.866 222.38H423.856C424.106 222.38 424.296 222.446 424.428 222.578C424.56 222.71 424.626 222.901 424.626 223.15V232.874C424.626 234.693 424.106 236.064 423.064 236.988C422.023 237.897 420.52 238.352 418.554 238.352ZM438.295 223.15C438.295 222.901 438.361 222.71 438.493 222.578C438.639 222.446 438.83 222.38 439.065 222.38H439.967C440.216 222.38 440.407 222.446 440.539 222.578C440.671 222.71 440.737 222.901 440.737 223.15V237.23C440.737 237.465 440.671 237.655 440.539 237.802C440.407 237.934 440.216 238 439.967 238H438.603C438.192 238 437.884 237.831 437.679 237.494L433.675 231.246C432.149 228.87 431.005 226.993 430.243 225.614C430.316 227.183 430.353 229.215 430.353 231.708V237.23C430.353 237.465 430.287 237.655 430.155 237.802C430.023 237.934 429.832 238 429.583 238H428.681C428.446 238 428.255 237.934 428.109 237.802C427.977 237.655 427.911 237.465 427.911 237.23V223.15C427.911 222.901 427.977 222.71 428.109 222.578C428.255 222.446 428.446 222.38 428.681 222.38H430.089C430.499 222.38 430.807 222.549 431.013 222.886L435.149 229.376C436.615 231.664 437.693 233.424 438.383 234.656C438.324 233.087 438.295 231.151 438.295 228.848V223.15Z" fill="white"/>
<path d="M135.68 324C135.083 324 134.597 323.832 134.224 323.496C133.888 323.123 133.72 322.637 133.72 322.04V289.672H123.528C122.931 289.672 122.445 289.504 122.072 289.168C121.736 288.795 121.568 288.309 121.568 287.712V286.2C121.568 285.565 121.736 285.08 122.072 284.744C122.445 284.408 122.931 284.24 123.528 284.24H150.24C150.875 284.24 151.36 284.408 151.696 284.744C152.032 285.08 152.2 285.565 152.2 286.2V287.712C152.2 288.309 152.032 288.795 151.696 289.168C151.36 289.504 150.875 289.672 150.24 289.672H140.104V322.04C140.104 322.637 139.936 323.123 139.6 323.496C139.264 323.832 138.779 324 138.144 324H135.68ZM171.214 295.552C174.388 295.552 176.814 296.448 178.494 298.24C180.212 299.995 181.07 302.272 181.07 305.072V322.04C181.07 322.637 180.902 323.123 180.566 323.496C180.23 323.832 179.745 324 179.11 324H177.094C176.497 324 176.012 323.832 175.638 323.496C175.302 323.123 175.134 322.637 175.134 322.04V306.92C175.134 304.904 174.63 303.355 173.622 302.272C172.652 301.189 171.252 300.648 169.422 300.648C167.63 300.648 166.118 301.264 164.886 302.496C163.692 303.728 163.094 305.277 163.094 307.144V322.04C163.094 322.637 162.926 323.123 162.59 323.496C162.254 323.832 161.769 324 161.134 324H159.118C158.521 324 158.036 323.832 157.662 323.496C157.326 323.123 157.158 322.637 157.158 322.04V286.2C157.158 285.565 157.326 285.08 157.662 284.744C158.036 284.408 158.521 284.24 159.118 284.24H161.134C161.769 284.24 162.254 284.408 162.59 284.744C162.926 285.08 163.094 285.565 163.094 286.2V299.248C163.99 298.053 165.129 297.139 166.51 296.504C167.929 295.869 169.497 295.552 171.214 295.552ZM207.661 316.944C208.146 316.533 208.613 316.328 209.061 316.328C209.509 316.328 209.975 316.571 210.461 317.056L211.245 317.896C211.655 318.381 211.861 318.848 211.861 319.296C211.861 319.781 211.618 320.248 211.133 320.696C209.415 322.189 207.698 323.253 205.981 323.888C204.301 324.523 202.434 324.84 200.381 324.84C197.506 324.84 195.005 324.243 192.877 323.048C190.786 321.853 189.162 320.173 188.005 318.008C186.885 315.805 186.325 313.267 186.325 310.392C186.325 307.555 186.866 305.016 187.949 302.776C189.069 300.499 190.637 298.725 192.653 297.456C194.706 296.187 197.095 295.552 199.821 295.552C203.89 295.552 207.026 296.765 209.229 299.192C211.431 301.581 212.533 304.885 212.533 309.104V309.608C212.495 310.205 212.309 310.672 211.973 311.008C211.637 311.344 211.151 311.512 210.517 311.512H192.149C192.373 313.976 193.175 315.992 194.557 317.56C195.975 319.091 197.954 319.856 200.493 319.856C201.874 319.856 203.087 319.651 204.133 319.24C205.178 318.792 206.354 318.027 207.661 316.944ZM199.709 300.256C197.655 300.256 195.994 300.872 194.725 302.104C193.493 303.299 192.69 304.997 192.317 307.2H206.709C206.559 305.035 205.887 303.336 204.693 302.104C203.498 300.872 201.837 300.256 199.709 300.256ZM242.646 288.384C241.339 288.384 240.387 288.701 239.79 289.336C239.193 289.971 238.894 291.053 238.894 292.584V296.392H243.43C244.065 296.392 244.55 296.56 244.886 296.896C245.222 297.232 245.39 297.717 245.39 298.352V298.968C245.39 299.565 245.222 300.051 244.886 300.424C244.55 300.76 244.065 300.928 243.43 300.928H238.894V322.04C238.894 322.637 238.726 323.123 238.39 323.496C238.054 323.832 237.569 324 236.934 324H234.918C234.321 324 233.835 323.832 233.462 323.496C233.126 323.123 232.958 322.637 232.958 322.04V300.928H229.99C229.393 300.928 228.907 300.76 228.534 300.424C228.198 300.051 228.03 299.565 228.03 298.968V298.352C228.03 297.717 228.198 297.232 228.534 296.896C228.907 296.56 229.393 296.392 229.99 296.392H232.958V292.192C232.958 289.317 233.686 287.152 235.142 285.696C236.635 284.203 238.782 283.456 241.582 283.456C242.851 283.456 244.139 283.587 245.446 283.848C246.417 284.109 246.902 284.707 246.902 285.64C246.902 285.901 246.883 286.107 246.846 286.256L246.678 287.04C246.454 288.011 245.726 288.496 244.494 288.496L243.822 288.44C243.561 288.403 243.169 288.384 242.646 288.384ZM260.955 295.552C264.688 295.552 267.563 296.429 269.579 298.184C271.595 299.901 272.603 302.197 272.603 305.072V322.04C272.603 322.637 272.435 323.123 272.099 323.496C271.763 323.832 271.277 324 270.643 324H269.187C268.589 324 268.104 323.832 267.731 323.496C267.395 323.123 267.227 322.637 267.227 322.04V320.808C266.331 322.115 265.099 323.123 263.531 323.832C261.963 324.541 260.133 324.896 258.043 324.896C255.168 324.896 252.797 324.261 250.931 322.992C249.101 321.685 248.187 319.725 248.187 317.112C248.187 314.2 249.269 312.053 251.435 310.672C253.637 309.253 256.68 308.189 260.563 307.48L266.891 306.304V305.296C266.891 303.765 266.349 302.589 265.267 301.768C264.221 300.909 262.821 300.48 261.067 300.48C259.573 300.48 258.267 300.741 257.147 301.264C256.064 301.749 254.888 302.571 253.619 303.728C253.133 304.139 252.667 304.344 252.219 304.344C251.771 304.344 251.304 304.139 250.819 303.728L249.923 302.944C249.437 302.496 249.195 302.011 249.195 301.488C249.195 301.003 249.419 300.536 249.867 300.088C251.472 298.557 253.171 297.419 254.963 296.672C256.755 295.925 258.752 295.552 260.955 295.552ZM258.883 320.136C261.123 320.136 263.008 319.539 264.539 318.344C266.107 317.149 266.891 315.432 266.891 313.192V310.616L262.019 311.624C259.293 312.184 257.277 312.819 255.971 313.528C254.664 314.237 254.011 315.32 254.011 316.776C254.011 317.821 254.44 318.643 255.299 319.24C256.157 319.837 257.352 320.136 258.883 320.136ZM294.057 295.664C296.409 295.664 298.499 296.261 300.329 297.456C302.195 298.651 303.651 300.349 304.697 302.552C305.742 304.755 306.265 307.293 306.265 310.168C306.265 313.08 305.742 315.637 304.697 317.84C303.651 320.043 302.195 321.741 300.329 322.936C298.462 324.131 296.371 324.728 294.057 324.728C289.913 324.728 286.87 323.179 284.929 320.08V322.04C284.929 322.637 284.761 323.123 284.425 323.496C284.089 323.832 283.603 324 282.969 324H281.345C280.747 324 280.262 323.832 279.889 323.496C279.553 323.123 279.385 322.637 279.385 322.04V286.2C279.385 285.565 279.553 285.08 279.889 284.744C280.262 284.408 280.747 284.24 281.345 284.24H283.361C283.995 284.24 284.481 284.408 284.817 284.744C285.153 285.08 285.321 285.565 285.321 286.2V299.864C287.299 297.064 290.211 295.664 294.057 295.664ZM292.825 319.576C295.065 319.576 296.857 318.736 298.201 317.056C299.545 315.339 300.217 313.043 300.217 310.168C300.217 307.331 299.545 305.053 298.201 303.336C296.894 301.619 295.121 300.76 292.881 300.76C290.603 300.76 288.737 301.619 287.281 303.336C285.825 305.016 285.097 307.293 285.097 310.168C285.097 313.117 285.825 315.432 287.281 317.112C288.737 318.755 290.585 319.576 292.825 319.576ZM324.082 296.112C324.904 296.112 325.744 296.205 326.602 296.392C327.61 296.616 328.114 297.213 328.114 298.184C328.114 298.445 328.096 298.632 328.058 298.744L327.778 300.088C327.554 301.133 326.994 301.656 326.098 301.656L325.594 301.6C324.922 301.488 324.325 301.432 323.802 301.432C321.936 301.432 320.424 302.179 319.266 303.672C318.146 305.128 317.586 307.163 317.586 309.776V322.04C317.586 322.637 317.418 323.123 317.082 323.496C316.746 323.832 316.261 324 315.626 324H313.61C313.013 324 312.528 323.832 312.154 323.496C311.818 323.123 311.65 322.637 311.65 322.04V298.352C311.65 297.717 311.818 297.232 312.154 296.896C312.528 296.56 313.013 296.392 313.61 296.392H315.234C315.869 296.392 316.354 296.56 316.69 296.896C317.026 297.232 317.194 297.717 317.194 298.352V300.536C317.866 299.155 318.781 298.072 319.938 297.288C321.096 296.504 322.477 296.112 324.082 296.112ZM335.456 291.016C334.373 291.016 333.458 290.661 332.712 289.952C331.965 289.205 331.592 288.328 331.592 287.32C331.592 286.275 331.965 285.397 332.712 284.688C333.458 283.979 334.373 283.624 335.456 283.624C336.538 283.624 337.453 283.979 338.2 284.688C338.946 285.397 339.32 286.275 339.32 287.32C339.32 288.328 338.946 289.205 338.2 289.952C337.453 290.661 336.538 291.016 335.456 291.016ZM334.392 324C333.794 324 333.309 323.832 332.936 323.496C332.6 323.123 332.432 322.637 332.432 322.04V298.352C332.432 297.717 332.6 297.232 332.936 296.896C333.309 296.56 333.794 296.392 334.392 296.392H336.408C337.042 296.392 337.528 296.56 337.864 296.896C338.2 297.232 338.368 297.717 338.368 298.352V322.04C338.368 322.637 338.2 323.123 337.864 323.496C337.528 323.832 337.042 324 336.408 324H334.392ZM357.381 324.84C354.655 324.84 352.247 324.243 350.157 323.048C348.103 321.853 346.498 320.155 345.341 317.952C344.221 315.712 343.66 313.117 343.66 310.168C343.66 307.219 344.239 304.643 345.397 302.44C346.554 300.237 348.178 298.539 350.269 297.344C352.359 296.149 354.767 295.552 357.493 295.552C359.471 295.552 361.245 295.851 362.813 296.448C364.418 297.008 365.949 297.979 367.405 299.36C367.853 299.808 368.077 300.275 368.077 300.76C368.077 301.208 367.834 301.675 367.349 302.16L366.397 303.112C365.986 303.523 365.538 303.728 365.053 303.728C364.567 303.728 364.063 303.504 363.541 303.056C362.458 302.123 361.431 301.488 360.461 301.152C359.527 300.779 358.519 300.592 357.437 300.592C354.973 300.592 353.069 301.507 351.725 303.336C350.381 305.165 349.709 307.443 349.709 310.168C349.709 312.893 350.381 315.189 351.725 317.056C353.069 318.885 354.973 319.8 357.437 319.8C358.631 319.8 359.733 319.576 360.741 319.128C361.749 318.643 362.831 317.84 363.989 316.72C364.474 316.235 364.978 315.992 365.501 315.992C365.949 315.992 366.378 316.179 366.789 316.552L367.741 317.336C368.226 317.747 368.469 318.213 368.469 318.736C368.469 319.296 368.189 319.893 367.629 320.528C366.098 322.096 364.511 323.216 362.869 323.888C361.263 324.523 359.434 324.84 357.381 324.84ZM398.403 324.84C395.677 324.84 393.251 324.224 391.123 322.992C389.032 321.76 387.389 320.043 386.195 317.84C385 315.6 384.403 313.043 384.403 310.168C384.403 307.293 385 304.755 386.195 302.552C387.389 300.349 389.032 298.632 391.123 297.4C393.251 296.168 395.677 295.552 398.403 295.552C401.091 295.552 403.499 296.168 405.627 297.4C407.755 298.632 409.416 300.368 410.611 302.608C411.805 304.811 412.403 307.331 412.403 310.168C412.403 313.043 411.805 315.6 410.611 317.84C409.416 320.043 407.755 321.76 405.627 322.992C403.499 324.224 401.091 324.84 398.403 324.84ZM398.403 319.856C400.792 319.856 402.715 318.979 404.171 317.224C405.627 315.432 406.355 313.08 406.355 310.168C406.355 307.293 405.627 304.979 404.171 303.224C402.715 301.469 400.792 300.592 398.403 300.592C396.013 300.592 394.091 301.469 392.635 303.224C391.179 304.979 390.451 307.293 390.451 310.168C390.451 313.08 391.179 315.432 392.635 317.224C394.091 318.979 396.013 319.856 398.403 319.856ZM429.24 288.384C427.933 288.384 426.981 288.701 426.384 289.336C425.787 289.971 425.488 291.053 425.488 292.584V296.392H430.024C430.659 296.392 431.144 296.56 431.48 296.896C431.816 297.232 431.984 297.717 431.984 298.352V298.968C431.984 299.565 431.816 300.051 431.48 300.424C431.144 300.76 430.659 300.928 430.024 300.928H425.488V322.04C425.488 322.637 425.32 323.123 424.984 323.496C424.648 323.832 424.163 324 423.528 324H421.512C420.915 324 420.429 323.832 420.056 323.496C419.72 323.123 419.552 322.637 419.552 322.04V300.928H416.584C415.987 300.928 415.501 300.76 415.128 300.424C414.792 300.051 414.624 299.565 414.624 298.968V298.352C414.624 297.717 414.792 297.232 415.128 296.896C415.501 296.56 415.987 296.392 416.584 296.392H419.552V292.192C419.552 289.317 420.28 287.152 421.736 285.696C423.229 284.203 425.376 283.456 428.176 283.456C429.445 283.456 430.733 283.587 432.04 283.848C433.011 284.109 433.496 284.707 433.496 285.64C433.496 285.901 433.477 286.107 433.44 286.256L433.272 287.04C433.048 288.011 432.32 288.496 431.088 288.496L430.416 288.44C430.155 288.403 429.763 288.384 429.24 288.384ZM460.619 295.552C464.352 295.552 467.227 296.429 469.243 298.184C471.259 299.901 472.267 302.197 472.267 305.072V322.04C472.267 322.637 472.099 323.123 471.763 323.496C471.427 323.832 470.941 324 470.307 324H468.851C468.253 324 467.768 323.832 467.395 323.496C467.059 323.123 466.891 322.637 466.891 322.04V320.808C465.995 322.115 464.763 323.123 463.195 323.832C461.627 324.541 459.797 324.896 457.707 324.896C454.832 324.896 452.461 324.261 450.595 322.992C448.765 321.685 447.851 319.725 447.851 317.112C447.851 314.2 448.933 312.053 451.099 310.672C453.301 309.253 456.344 308.189 460.227 307.48L466.555 306.304V305.296C466.555 303.765 466.013 302.589 464.931 301.768C463.885 300.909 462.485 300.48 460.731 300.48C459.237 300.48 457.931 300.741 456.811 301.264C455.728 301.749 454.552 302.571 453.283 303.728C452.797 304.139 452.331 304.344 451.883 304.344C451.435 304.344 450.968 304.139 450.483 303.728L449.587 302.944C449.101 302.496 448.859 302.011 448.859 301.488C448.859 301.003 449.083 300.536 449.531 300.088C451.136 298.557 452.835 297.419 454.627 296.672C456.419 295.925 458.416 295.552 460.619 295.552ZM458.547 320.136C460.787 320.136 462.672 319.539 464.203 318.344C465.771 317.149 466.555 315.432 466.555 313.192V310.616L461.683 311.624C458.957 312.184 456.941 312.819 455.635 313.528C454.328 314.237 453.675 315.32 453.675 316.776C453.675 317.821 454.104 318.643 454.963 319.24C455.821 319.837 457.016 320.136 458.547 320.136ZM506.244 295.664C508.596 295.664 510.687 296.261 512.516 297.456C514.383 298.651 515.839 300.349 516.884 302.552C517.93 304.755 518.452 307.293 518.452 310.168C518.452 313.08 517.93 315.637 516.884 317.84C515.839 320.043 514.383 321.741 512.516 322.936C510.65 324.131 508.559 324.728 506.244 324.728C502.1 324.728 499.058 323.179 497.116 320.08V322.04C497.116 322.637 496.948 323.123 496.612 323.496C496.276 323.832 495.791 324 495.156 324H493.532C492.935 324 492.45 323.832 492.076 323.496C491.74 323.123 491.572 322.637 491.572 322.04V286.2C491.572 285.565 491.74 285.08 492.076 284.744C492.45 284.408 492.935 284.24 493.532 284.24H495.548C496.183 284.24 496.668 284.408 497.004 284.744C497.34 285.08 497.508 285.565 497.508 286.2V299.864C499.487 297.064 502.399 295.664 506.244 295.664ZM505.012 319.576C507.252 319.576 509.044 318.736 510.388 317.056C511.732 315.339 512.404 313.043 512.404 310.168C512.404 307.331 511.732 305.053 510.388 303.336C509.082 301.619 507.308 300.76 505.068 300.76C502.791 300.76 500.924 301.619 499.468 303.336C498.012 305.016 497.284 307.293 497.284 310.168C497.284 313.117 498.012 315.432 499.468 317.112C500.924 318.755 502.772 319.576 505.012 319.576ZM541.366 298.352C541.366 297.717 541.534 297.232 541.87 296.896C542.243 296.56 542.729 296.392 543.326 296.392H545.342C545.977 296.392 546.462 296.56 546.798 296.896C547.134 297.232 547.302 297.717 547.302 298.352V322.04C547.302 322.637 547.134 323.123 546.798 323.496C546.462 323.832 545.977 324 545.342 324H543.83C543.233 324 542.747 323.832 542.374 323.496C542.038 323.123 541.87 322.637 541.87 322.04V320.752C541.123 322.021 540.041 323.029 538.622 323.776C537.203 324.485 535.523 324.84 533.582 324.84C530.297 324.84 527.851 324.037 526.246 322.432C524.641 320.789 523.838 318.624 523.838 315.936V298.352C523.838 297.717 524.006 297.232 524.342 296.896C524.715 296.56 525.201 296.392 525.798 296.392H527.814C528.449 296.392 528.934 296.56 529.27 296.896C529.606 297.232 529.774 297.717 529.774 298.352V314.368C529.774 316.085 530.203 317.411 531.062 318.344C531.958 319.24 533.246 319.688 534.926 319.688C536.867 319.688 538.417 319.128 539.574 318.008C540.769 316.888 541.366 315.264 541.366 313.136V298.352ZM557.159 291.016C556.076 291.016 555.161 290.661 554.415 289.952C553.668 289.205 553.295 288.328 553.295 287.32C553.295 286.275 553.668 285.397 554.415 284.688C555.161 283.979 556.076 283.624 557.159 283.624C558.241 283.624 559.156 283.979 559.903 284.688C560.649 285.397 561.023 286.275 561.023 287.32C561.023 288.328 560.649 289.205 559.903 289.952C559.156 290.661 558.241 291.016 557.159 291.016ZM556.095 324C555.497 324 555.012 323.832 554.639 323.496C554.303 323.123 554.135 322.637 554.135 322.04V298.352C554.135 297.717 554.303 297.232 554.639 296.896C555.012 296.56 555.497 296.392 556.095 296.392H558.111C558.745 296.392 559.231 296.56 559.567 296.896C559.903 297.232 560.071 297.717 560.071 298.352V322.04C560.071 322.637 559.903 323.123 559.567 323.496C559.231 323.832 558.745 324 558.111 324H556.095ZM569.116 324C568.518 324 568.033 323.832 567.66 323.496C567.324 323.123 567.156 322.637 567.156 322.04V286.2C567.156 285.565 567.324 285.08 567.66 284.744C568.033 284.408 568.518 284.24 569.116 284.24H571.132C571.766 284.24 572.252 284.408 572.588 284.744C572.924 285.08 573.092 285.565 573.092 286.2V322.04C573.092 322.637 572.924 323.123 572.588 323.496C572.252 323.832 571.766 324 571.132 324H569.116ZM599.598 286.144C599.598 285.509 599.766 285.024 600.102 284.688C600.475 284.352 600.961 284.184 601.558 284.184H603.574C604.209 284.184 604.694 284.352 605.03 284.688C605.366 285.024 605.534 285.509 605.534 286.144V322.04C605.534 322.637 605.366 323.123 605.03 323.496C604.694 323.832 604.209 324 603.574 324H601.95C601.353 324 600.867 323.832 600.494 323.496C600.158 323.123 599.99 322.637 599.99 322.04V320.08C598.049 323.216 595.006 324.784 590.862 324.784C588.547 324.784 586.457 324.187 584.59 322.992C582.761 321.797 581.323 320.099 580.278 317.896C579.233 315.693 578.71 313.136 578.71 310.224C578.71 307.349 579.233 304.811 580.278 302.608C581.361 300.405 582.835 298.707 584.702 297.512C586.569 296.317 588.659 295.72 590.974 295.72C594.782 295.72 597.657 297.045 599.598 299.696V286.144ZM592.094 319.688C594.371 319.688 596.238 318.848 597.694 317.168C599.15 315.451 599.878 313.136 599.878 310.224C599.878 307.312 599.15 305.016 597.694 303.336C596.238 301.656 594.371 300.816 592.094 300.816C589.891 300.816 588.118 301.675 586.774 303.392C585.43 305.109 584.758 307.387 584.758 310.224C584.758 313.099 585.411 315.395 586.718 317.112C588.062 318.829 589.854 319.688 592.094 319.688ZM615.456 291.016C614.373 291.016 613.458 290.661 612.712 289.952C611.965 289.205 611.592 288.328 611.592 287.32C611.592 286.275 611.965 285.397 612.712 284.688C613.458 283.979 614.373 283.624 615.456 283.624C616.538 283.624 617.453 283.979 618.2 284.688C618.946 285.397 619.32 286.275 619.32 287.32C619.32 288.328 618.946 289.205 618.2 289.952C617.453 290.661 616.538 291.016 615.456 291.016ZM614.392 324C613.794 324 613.309 323.832 612.936 323.496C612.6 323.123 612.432 322.637 612.432 322.04V298.352C612.432 297.717 612.6 297.232 612.936 296.896C613.309 296.56 613.794 296.392 614.392 296.392H616.408C617.042 296.392 617.528 296.56 617.864 296.896C618.2 297.232 618.368 297.717 618.368 298.352V322.04C618.368 322.637 618.2 323.123 617.864 323.496C617.528 323.832 617.042 324 616.408 324H614.392ZM639.285 295.552C642.458 295.552 644.885 296.448 646.565 298.24C648.282 299.995 649.141 302.272 649.141 305.072V322.04C649.141 322.637 648.973 323.123 648.637 323.496C648.301 323.832 647.815 324 647.181 324H645.165C644.567 324 644.082 323.832 643.709 323.496C643.373 323.123 643.205 322.637 643.205 322.04V306.92C643.205 304.904 642.701 303.355 641.693 302.272C640.722 301.189 639.322 300.648 637.493 300.648C635.701 300.648 634.189 301.264 632.957 302.496C631.762 303.728 631.165 305.277 631.165 307.144V322.04C631.165 322.637 630.997 323.123 630.661 323.496C630.325 323.832 629.839 324 629.204 324H627.189C626.591 324 626.106 323.832 625.733 323.496C625.397 323.123 625.229 322.637 625.229 322.04V298.352C625.229 297.717 625.397 297.232 625.733 296.896C626.106 296.56 626.591 296.392 627.189 296.392H628.812C629.447 296.392 629.933 296.56 630.269 296.896C630.605 297.232 630.773 297.717 630.773 298.352V299.808C631.669 298.427 632.845 297.381 634.301 296.672C635.757 295.925 637.418 295.552 639.285 295.552ZM675.395 298.184C675.395 297.624 675.563 297.195 675.899 296.896C676.272 296.56 676.758 296.392 677.355 296.392H678.923C679.558 296.392 680.043 296.56 680.379 296.896C680.715 297.232 680.883 297.717 680.883 298.352V322.992C680.883 326.688 679.688 329.563 677.299 331.616C674.947 333.669 671.811 334.696 667.891 334.696C663.971 334.696 660.275 333.688 656.803 331.672C656.094 331.299 655.739 330.795 655.739 330.16C655.739 329.824 655.888 329.413 656.187 328.928L656.915 327.864C657.326 327.229 657.83 326.912 658.427 326.912C658.838 326.912 659.248 327.043 659.659 327.304C661.152 328.163 662.534 328.779 663.803 329.152C665.072 329.563 666.416 329.768 667.835 329.768C670 329.768 671.736 329.171 673.043 327.976C674.387 326.819 675.059 324.989 675.059 322.488V319.52C673.192 322.171 670.392 323.496 666.659 323.496C664.344 323.496 662.254 322.917 660.387 321.76C658.558 320.565 657.12 318.923 656.075 316.832C655.067 314.704 654.563 312.277 654.563 309.552C654.563 306.827 655.067 304.419 656.075 302.328C657.12 300.2 658.558 298.539 660.387 297.344C662.254 296.149 664.344 295.552 666.659 295.552C670.616 295.552 673.528 297.027 675.395 299.976V298.184ZM667.835 318.512C670 318.512 671.774 317.691 673.155 316.048C674.536 314.368 675.227 312.203 675.227 309.552C675.227 306.939 674.536 304.811 673.155 303.168C671.811 301.488 670.038 300.648 667.835 300.648C665.595 300.648 663.822 301.469 662.515 303.112C661.208 304.755 660.555 306.901 660.555 309.552C660.555 312.24 661.208 314.405 662.515 316.048C663.822 317.691 665.595 318.512 667.835 318.512ZM703.284 291.016C702.201 291.016 701.286 290.661 700.54 289.952C699.793 289.205 699.42 288.328 699.42 287.32C699.42 286.275 699.793 285.397 700.54 284.688C701.286 283.979 702.201 283.624 703.284 283.624C704.366 283.624 705.281 283.979 706.028 284.688C706.774 285.397 707.148 286.275 707.148 287.32C707.148 288.328 706.774 289.205 706.028 289.952C705.281 290.661 704.366 291.016 703.284 291.016ZM702.22 324C701.622 324 701.137 323.832 700.764 323.496C700.428 323.123 700.26 322.637 700.26 322.04V298.352C700.26 297.717 700.428 297.232 700.764 296.896C701.137 296.56 701.622 296.392 702.22 296.392H704.236C704.87 296.392 705.356 296.56 705.692 296.896C706.028 297.232 706.196 297.717 706.196 298.352V322.04C706.196 322.637 706.028 323.123 705.692 323.496C705.356 323.832 704.87 324 704.236 324H702.22ZM723.697 324.84C721.419 324.84 719.385 324.56 717.593 324C715.838 323.403 714.046 322.376 712.217 320.92C711.657 320.509 711.377 320.043 711.377 319.52C711.377 319.109 711.582 318.661 711.993 318.176L712.833 317.224C713.281 316.701 713.766 316.44 714.289 316.44C714.699 316.44 715.147 316.627 715.633 317C717.201 318.157 718.582 318.96 719.777 319.408C720.971 319.819 722.315 320.024 723.809 320.024C725.414 320.024 726.721 319.707 727.729 319.072C728.774 318.4 729.297 317.504 729.297 316.384C729.297 315.525 728.998 314.853 728.401 314.368C727.841 313.845 727.094 313.453 726.161 313.192C725.227 312.893 723.846 312.557 722.017 312.184C719.441 311.624 717.425 311.027 715.969 310.392C714.55 309.72 713.523 308.88 712.889 307.872C712.254 306.864 711.937 305.576 711.937 304.008C711.937 302.403 712.385 300.965 713.281 299.696C714.214 298.427 715.502 297.419 717.145 296.672C718.825 295.925 720.785 295.552 723.025 295.552C725.041 295.552 726.833 295.776 728.401 296.224C730.006 296.672 731.574 297.437 733.105 298.52C733.702 298.968 734.001 299.472 734.001 300.032C734.001 300.405 733.814 300.835 733.441 301.32L732.713 302.216C732.302 302.739 731.798 303 731.201 303C730.753 303 730.323 302.851 729.913 302.552C728.681 301.731 727.542 301.171 726.497 300.872C725.451 300.536 724.275 300.368 722.969 300.368C721.363 300.368 720.075 300.685 719.105 301.32C718.134 301.955 717.649 302.776 717.649 303.784C717.649 304.456 717.873 304.997 718.321 305.408C718.806 305.781 719.478 306.117 720.337 306.416C721.233 306.677 722.633 307.013 724.537 307.424C727.113 307.984 729.147 308.619 730.641 309.328C732.171 310 733.291 310.877 734.001 311.96C734.747 313.005 735.121 314.368 735.121 316.048C735.121 318.661 734.075 320.789 731.985 322.432C729.931 324.037 727.169 324.84 723.697 324.84ZM755.784 291.016C754.701 291.016 753.786 290.661 753.04 289.952C752.293 289.205 751.92 288.328 751.92 287.32C751.92 286.275 752.293 285.397 753.04 284.688C753.786 283.979 754.701 283.624 755.784 283.624C756.866 283.624 757.781 283.979 758.528 284.688C759.274 285.397 759.648 286.275 759.648 287.32C759.648 288.328 759.274 289.205 758.528 289.952C757.781 290.661 756.866 291.016 755.784 291.016ZM754.72 324C754.122 324 753.637 323.832 753.264 323.496C752.928 323.123 752.76 322.637 752.76 322.04V298.352C752.76 297.717 752.928 297.232 753.264 296.896C753.637 296.56 754.122 296.392 754.72 296.392H756.736C757.37 296.392 757.856 296.56 758.192 296.896C758.528 297.232 758.696 297.717 758.696 298.352V322.04C758.696 322.637 758.528 323.123 758.192 323.496C757.856 323.832 757.37 324 756.736 324H754.72ZM778.885 319.296C778.997 319.259 779.165 319.24 779.389 319.24C780.322 319.24 780.882 319.781 781.069 320.864L781.237 321.76C781.274 321.872 781.293 322.059 781.293 322.32C781.293 323.253 780.77 323.851 779.725 324.112C778.231 324.448 776.869 324.616 775.637 324.616C772.986 324.616 771.063 324 769.869 322.768C768.711 321.536 768.133 319.688 768.133 317.224V300.928H765.053C764.455 300.928 763.97 300.76 763.597 300.424C763.261 300.051 763.093 299.565 763.093 298.968V298.352C763.093 297.717 763.261 297.232 763.597 296.896C763.97 296.56 764.455 296.392 765.053 296.392H768.133V289.448C768.133 288.813 768.301 288.328 768.637 287.992C769.01 287.656 769.495 287.488 770.093 287.488H772.109C772.743 287.488 773.229 287.656 773.565 287.992C773.901 288.328 774.069 288.813 774.069 289.448V296.392H779.109C779.743 296.392 780.229 296.56 780.565 296.896C780.901 297.232 781.069 297.717 781.069 298.352V298.968C781.069 299.565 780.901 300.051 780.565 300.424C780.229 300.76 779.743 300.928 779.109 300.928H774.069V316.496C774.069 317.579 774.293 318.344 774.741 318.792C775.226 319.24 775.991 319.464 777.037 319.464C777.485 319.464 778.101 319.408 778.885 319.296ZM797.033 324.84C794.755 324.84 792.721 324.56 790.929 324C789.174 323.403 787.382 322.376 785.553 320.92C784.993 320.509 784.713 320.043 784.713 319.52C784.713 319.109 784.918 318.661 785.329 318.176L786.169 317.224C786.617 316.701 787.102 316.44 787.625 316.44C788.035 316.44 788.483 316.627 788.969 317C790.537 318.157 791.918 318.96 793.113 319.408C794.307 319.819 795.651 320.024 797.145 320.024C798.75 320.024 800.057 319.707 801.065 319.072C802.11 318.4 802.633 317.504 802.633 316.384C802.633 315.525 802.334 314.853 801.737 314.368C801.177 313.845 800.43 313.453 799.497 313.192C798.563 312.893 797.182 312.557 795.353 312.184C792.777 311.624 790.761 311.027 789.305 310.392C787.886 309.72 786.859 308.88 786.225 307.872C785.59 306.864 785.273 305.576 785.273 304.008C785.273 302.403 785.721 300.965 786.617 299.696C787.55 298.427 788.838 297.419 790.481 296.672C792.161 295.925 794.121 295.552 796.361 295.552C798.377 295.552 800.169 295.776 801.737 296.224C803.342 296.672 804.91 297.437 806.441 298.52C807.038 298.968 807.337 299.472 807.337 300.032C807.337 300.405 807.15 300.835 806.777 301.32L806.049 302.216C805.638 302.739 805.134 303 804.537 303C804.089 303 803.659 302.851 803.249 302.552C802.017 301.731 800.878 301.171 799.833 300.872C798.787 300.536 797.611 300.368 796.305 300.368C794.699 300.368 793.411 300.685 792.441 301.32C791.47 301.955 790.985 302.776 790.985 303.784C790.985 304.456 791.209 304.997 791.657 305.408C792.142 305.781 792.814 306.117 793.673 306.416C794.569 306.677 795.969 307.013 797.873 307.424C800.449 307.984 802.483 308.619 803.977 309.328C805.507 310 806.627 310.877 807.337 311.96C808.083 313.005 808.457 314.368 808.457 316.048C808.457 318.661 807.411 320.789 805.321 322.432C803.267 324.037 800.505 324.84 797.033 324.84ZM154.496 370.072C154.757 368.952 155.485 368.392 156.68 368.392H158.752C159.312 368.392 159.741 368.523 160.04 368.784C160.376 369.008 160.544 369.363 160.544 369.848C160.544 369.96 160.507 370.203 160.432 370.576L153.768 394.32C153.507 395.44 152.779 396 151.584 396H147.944C146.824 396 146.096 395.44 145.76 394.32L143.912 387.824C143.091 384.949 142.176 381.347 141.168 377.016L140.888 375.784C139.88 380.339 138.909 384.371 137.976 387.88L136.24 394.32C135.979 395.44 135.251 396 134.056 396H130.472C129.352 396 128.624 395.44 128.288 394.32L121.568 370.576C121.493 370.203 121.456 369.96 121.456 369.848C121.456 369.363 121.605 369.008 121.904 368.784C122.24 368.523 122.688 368.392 123.248 368.392H125.432C126.627 368.392 127.355 368.952 127.616 370.072L129.632 378.024C130.416 380.936 131.331 384.819 132.376 389.672L132.6 390.792C133.683 385.789 134.691 381.533 135.624 378.024L137.752 370.072C138.013 368.952 138.741 368.392 139.936 368.392H142.064C143.259 368.392 143.987 368.952 144.248 370.072L146.432 378.024C147.477 381.907 148.523 386.163 149.568 390.792C150.352 386.797 151.323 382.541 152.48 378.024L154.496 370.072ZM176.845 367.552C180.579 367.552 183.453 368.429 185.469 370.184C187.485 371.901 188.493 374.197 188.493 377.072V394.04C188.493 394.637 188.325 395.123 187.989 395.496C187.653 395.832 187.168 396 186.533 396H185.077C184.48 396 183.995 395.832 183.621 395.496C183.285 395.123 183.117 394.637 183.117 394.04V392.808C182.221 394.115 180.989 395.123 179.421 395.832C177.853 396.541 176.024 396.896 173.933 396.896C171.059 396.896 168.688 396.261 166.821 394.992C164.992 393.685 164.077 391.725 164.077 389.112C164.077 386.2 165.16 384.053 167.325 382.672C169.528 381.253 172.571 380.189 176.453 379.48L182.781 378.304V377.296C182.781 375.765 182.24 374.589 181.157 373.768C180.112 372.909 178.712 372.48 176.957 372.48C175.464 372.48 174.157 372.741 173.037 373.264C171.955 373.749 170.779 374.571 169.509 375.728C169.024 376.139 168.557 376.344 168.109 376.344C167.661 376.344 167.195 376.139 166.709 375.728L165.813 374.944C165.328 374.496 165.085 374.011 165.085 373.488C165.085 373.003 165.309 372.536 165.757 372.088C167.363 370.557 169.061 369.419 170.853 368.672C172.645 367.925 174.643 367.552 176.845 367.552ZM174.773 392.136C177.013 392.136 178.899 391.539 180.429 390.344C181.997 389.149 182.781 387.432 182.781 385.192V382.616L177.909 383.624C175.184 384.184 173.168 384.819 171.861 385.528C170.555 386.237 169.901 387.32 169.901 388.776C169.901 389.821 170.331 390.643 171.189 391.24C172.048 391.837 173.243 392.136 174.773 392.136ZM197.459 396C196.862 396 196.377 395.832 196.003 395.496C195.667 395.123 195.499 394.637 195.499 394.04V358.2C195.499 357.565 195.667 357.08 196.003 356.744C196.377 356.408 196.862 356.24 197.459 356.24H199.475C200.11 356.24 200.595 356.408 200.931 356.744C201.267 357.08 201.435 357.565 201.435 358.2V394.04C201.435 394.637 201.267 395.123 200.931 395.496C200.595 395.832 200.11 396 199.475 396H197.459ZM210.694 396C210.096 396 209.611 395.832 209.238 395.496C208.902 395.123 208.734 394.637 208.734 394.04V358.2C208.734 357.565 208.902 357.08 209.238 356.744C209.611 356.408 210.096 356.24 210.694 356.24H212.71C213.344 356.24 213.83 356.408 214.166 356.744C214.502 357.08 214.67 357.565 214.67 358.2V394.04C214.67 394.637 214.502 395.123 214.166 395.496C213.83 395.832 213.344 396 212.71 396H210.694ZM232.384 396.84C230.107 396.84 228.072 396.56 226.28 396C224.525 395.403 222.733 394.376 220.904 392.92C220.344 392.509 220.064 392.043 220.064 391.52C220.064 391.109 220.269 390.661 220.68 390.176L221.52 389.224C221.968 388.701 222.453 388.44 222.976 388.44C223.387 388.44 223.835 388.627 224.32 389C225.888 390.157 227.269 390.96 228.464 391.408C229.659 391.819 231.003 392.024 232.496 392.024C234.101 392.024 235.408 391.707 236.416 391.072C237.461 390.4 237.984 389.504 237.984 388.384C237.984 387.525 237.685 386.853 237.088 386.368C236.528 385.845 235.781 385.453 234.848 385.192C233.915 384.893 232.533 384.557 230.704 384.184C228.128 383.624 226.112 383.027 224.656 382.392C223.237 381.72 222.211 380.88 221.576 379.872C220.941 378.864 220.624 377.576 220.624 376.008C220.624 374.403 221.072 372.965 221.968 371.696C222.901 370.427 224.189 369.419 225.832 368.672C227.512 367.925 229.472 367.552 231.712 367.552C233.728 367.552 235.52 367.776 237.088 368.224C238.693 368.672 240.261 369.437 241.792 370.52C242.389 370.968 242.688 371.472 242.688 372.032C242.688 372.405 242.501 372.835 242.128 373.32L241.4 374.216C240.989 374.739 240.485 375 239.888 375C239.44 375 239.011 374.851 238.6 374.552C237.368 373.731 236.229 373.171 235.184 372.872C234.139 372.536 232.963 372.368 231.656 372.368C230.051 372.368 228.763 372.685 227.792 373.32C226.821 373.955 226.336 374.776 226.336 375.784C226.336 376.456 226.56 376.997 227.008 377.408C227.493 377.781 228.165 378.117 229.024 378.416C229.92 378.677 231.32 379.013 233.224 379.424C235.8 379.984 237.835 380.619 239.328 381.328C240.859 382 241.979 382.877 242.688 383.96C243.435 385.005 243.808 386.368 243.808 388.048C243.808 390.661 242.763 392.789 240.672 394.432C238.619 396.037 235.856 396.84 232.384 396.84ZM252.116 388.44C253.46 388.44 254.58 388.944 255.476 389.952C256.372 390.923 256.82 392.323 256.82 394.152C256.82 396.243 256.26 398.184 255.14 399.976C254.057 401.768 252.526 402.963 250.548 403.56C250.249 403.635 250.044 403.672 249.932 403.672C249.446 403.672 249.073 403.485 248.812 403.112C248.55 402.776 248.42 402.328 248.42 401.768C248.42 401.619 248.513 401.469 248.7 401.32C248.886 401.208 249.092 401.077 249.316 400.928C249.577 400.816 249.82 400.704 250.044 400.592C250.79 400.219 251.444 399.659 252.004 398.912C252.601 398.203 252.974 397.344 253.124 396.336C252.788 396.448 252.452 396.504 252.116 396.504C250.921 396.504 249.932 396.131 249.148 395.384C248.364 394.637 247.972 393.667 247.972 392.472C247.972 391.352 248.382 390.4 249.204 389.616C250.025 388.832 250.996 388.44 252.116 388.44ZM286.457 368.112C287.279 368.112 288.119 368.205 288.977 368.392C289.985 368.616 290.489 369.213 290.489 370.184C290.489 370.445 290.471 370.632 290.433 370.744L290.153 372.088C289.929 373.133 289.369 373.656 288.473 373.656L287.969 373.6C287.297 373.488 286.7 373.432 286.177 373.432C284.311 373.432 282.799 374.179 281.641 375.672C280.521 377.128 279.961 379.163 279.961 381.776V394.04C279.961 394.637 279.793 395.123 279.457 395.496C279.121 395.832 278.636 396 278.001 396H275.985C275.388 396 274.903 395.832 274.529 395.496C274.193 395.123 274.025 394.637 274.025 394.04V370.352C274.025 369.717 274.193 369.232 274.529 368.896C274.903 368.56 275.388 368.392 275.985 368.392H277.609C278.244 368.392 278.729 368.56 279.065 368.896C279.401 369.232 279.569 369.717 279.569 370.352V372.536C280.241 371.155 281.156 370.072 282.313 369.288C283.471 368.504 284.852 368.112 286.457 368.112ZM305.926 396.84C303.201 396.84 300.774 396.224 298.646 394.992C296.555 393.76 294.913 392.043 293.718 389.84C292.523 387.6 291.926 385.043 291.926 382.168C291.926 379.293 292.523 376.755 293.718 374.552C294.913 372.349 296.555 370.632 298.646 369.4C300.774 368.168 303.201 367.552 305.926 367.552C308.614 367.552 311.022 368.168 313.15 369.4C315.278 370.632 316.939 372.368 318.134 374.608C319.329 376.811 319.926 379.331 319.926 382.168C319.926 385.043 319.329 387.6 318.134 389.84C316.939 392.043 315.278 393.76 313.15 394.992C311.022 396.224 308.614 396.84 305.926 396.84ZM305.926 391.856C308.315 391.856 310.238 390.979 311.694 389.224C313.15 387.432 313.878 385.08 313.878 382.168C313.878 379.293 313.15 376.979 311.694 375.224C310.238 373.469 308.315 372.592 305.926 372.592C303.537 372.592 301.614 373.469 300.158 375.224C298.702 376.979 297.974 379.293 297.974 382.168C297.974 385.08 298.702 387.432 300.158 389.224C301.614 390.979 303.537 391.856 305.926 391.856ZM337.918 396.84C335.193 396.84 332.766 396.224 330.638 394.992C328.548 393.76 326.905 392.043 325.71 389.84C324.516 387.6 323.918 385.043 323.918 382.168C323.918 379.293 324.516 376.755 325.71 374.552C326.905 372.349 328.548 370.632 330.638 369.4C332.766 368.168 335.193 367.552 337.918 367.552C340.606 367.552 343.014 368.168 345.142 369.4C347.27 370.632 348.932 372.368 350.126 374.608C351.321 376.811 351.918 379.331 351.918 382.168C351.918 385.043 351.321 387.6 350.126 389.84C348.932 392.043 347.27 393.76 345.142 394.992C343.014 396.224 340.606 396.84 337.918 396.84ZM337.918 391.856C340.308 391.856 342.23 390.979 343.686 389.224C345.142 387.432 345.87 385.08 345.87 382.168C345.87 379.293 345.142 376.979 343.686 375.224C342.23 373.469 340.308 372.592 337.918 372.592C335.529 372.592 333.606 373.469 332.15 375.224C330.694 376.979 329.966 379.293 329.966 382.168C329.966 385.08 330.694 387.432 332.15 389.224C333.606 390.979 335.529 391.856 337.918 391.856ZM368.756 360.384C367.449 360.384 366.497 360.701 365.9 361.336C365.302 361.971 365.004 363.053 365.004 364.584V368.392H369.54C370.174 368.392 370.66 368.56 370.996 368.896C371.332 369.232 371.5 369.717 371.5 370.352V370.968C371.5 371.565 371.332 372.051 370.996 372.424C370.66 372.76 370.174 372.928 369.54 372.928H365.004V394.04C365.004 394.637 364.836 395.123 364.5 395.496C364.164 395.832 363.678 396 363.044 396H361.028C360.43 396 359.945 395.832 359.572 395.496C359.236 395.123 359.068 394.637 359.068 394.04V372.928H356.1C355.502 372.928 355.017 372.76 354.644 372.424C354.308 372.051 354.14 371.565 354.14 370.968V370.352C354.14 369.717 354.308 369.232 354.644 368.896C355.017 368.56 355.502 368.392 356.1 368.392H359.068V364.192C359.068 361.317 359.796 359.152 361.252 357.696C362.745 356.203 364.892 355.456 367.692 355.456C368.961 355.456 370.249 355.587 371.556 355.848C372.526 356.109 373.012 356.707 373.012 357.64C373.012 357.901 372.993 358.107 372.956 358.256L372.788 359.04C372.564 360.011 371.836 360.496 370.604 360.496L369.932 360.44C369.67 360.403 369.278 360.384 368.756 360.384ZM376.913 388.44C378.257 388.44 379.377 388.944 380.273 389.952C381.169 390.923 381.617 392.323 381.617 394.152C381.617 396.243 381.057 398.184 379.937 399.976C378.854 401.768 377.323 402.963 375.345 403.56C375.046 403.635 374.841 403.672 374.729 403.672C374.243 403.672 373.87 403.485 373.609 403.112C373.347 402.776 373.217 402.328 373.217 401.768C373.217 401.619 373.31 401.469 373.497 401.32C373.683 401.208 373.889 401.077 374.113 400.928C374.374 400.816 374.617 400.704 374.841 400.592C375.587 400.219 376.241 399.659 376.801 398.912C377.398 398.203 377.771 397.344 377.921 396.336C377.585 396.448 377.249 396.504 376.913 396.504C375.718 396.504 374.729 396.131 373.945 395.384C373.161 394.637 372.769 393.667 372.769 392.472C372.769 391.352 373.179 390.4 374.001 389.616C374.822 388.832 375.793 388.44 376.913 388.44ZM410.47 367.552C414.204 367.552 417.078 368.429 419.094 370.184C421.11 371.901 422.118 374.197 422.118 377.072V394.04C422.118 394.637 421.95 395.123 421.614 395.496C421.278 395.832 420.793 396 420.158 396H418.702C418.105 396 417.62 395.832 417.246 395.496C416.91 395.123 416.742 394.637 416.742 394.04V392.808C415.846 394.115 414.614 395.123 413.046 395.832C411.478 396.541 409.649 396.896 407.558 396.896C404.684 396.896 402.313 396.261 400.446 394.992C398.617 393.685 397.702 391.725 397.702 389.112C397.702 386.2 398.785 384.053 400.95 382.672C403.153 381.253 406.196 380.189 410.078 379.48L416.406 378.304V377.296C416.406 375.765 415.865 374.589 414.782 373.768C413.737 372.909 412.337 372.48 410.582 372.48C409.089 372.48 407.782 372.741 406.662 373.264C405.58 373.749 404.404 374.571 403.134 375.728C402.649 376.139 402.182 376.344 401.734 376.344C401.286 376.344 400.82 376.139 400.334 375.728L399.438 374.944C398.953 374.496 398.71 374.011 398.71 373.488C398.71 373.003 398.934 372.536 399.382 372.088C400.988 370.557 402.686 369.419 404.478 368.672C406.27 367.925 408.268 367.552 410.47 367.552ZM408.398 392.136C410.638 392.136 412.524 391.539 414.054 390.344C415.622 389.149 416.406 387.432 416.406 385.192V382.616L411.534 383.624C408.809 384.184 406.793 384.819 405.486 385.528C404.18 386.237 403.526 387.32 403.526 388.776C403.526 389.821 403.956 390.643 404.814 391.24C405.673 391.837 406.868 392.136 408.398 392.136ZM442.956 367.552C446.13 367.552 448.556 368.448 450.236 370.24C451.954 371.995 452.812 374.272 452.812 377.072V394.04C452.812 394.637 452.644 395.123 452.308 395.496C451.972 395.832 451.487 396 450.852 396H448.836C448.239 396 447.754 395.832 447.38 395.496C447.044 395.123 446.876 394.637 446.876 394.04V378.92C446.876 376.904 446.372 375.355 445.364 374.272C444.394 373.189 442.994 372.648 441.164 372.648C439.372 372.648 437.86 373.264 436.628 374.496C435.434 375.728 434.836 377.277 434.836 379.144V394.04C434.836 394.637 434.668 395.123 434.332 395.496C433.996 395.832 433.511 396 432.876 396H430.86C430.263 396 429.778 395.832 429.404 395.496C429.068 395.123 428.9 394.637 428.9 394.04V370.352C428.9 369.717 429.068 369.232 429.404 368.896C429.778 368.56 430.263 368.392 430.86 368.392H432.484C433.119 368.392 433.604 368.56 433.94 368.896C434.276 369.232 434.444 369.717 434.444 370.352V371.808C435.34 370.427 436.516 369.381 437.972 368.672C439.428 367.925 441.09 367.552 442.956 367.552ZM479.067 358.144C479.067 357.509 479.235 357.024 479.571 356.688C479.944 356.352 480.429 356.184 481.027 356.184H483.043C483.677 356.184 484.163 356.352 484.499 356.688C484.835 357.024 485.003 357.509 485.003 358.144V394.04C485.003 394.637 484.835 395.123 484.499 395.496C484.163 395.832 483.677 396 483.043 396H481.419C480.821 396 480.336 395.832 479.963 395.496C479.627 395.123 479.459 394.637 479.459 394.04V392.08C477.517 395.216 474.475 396.784 470.331 396.784C468.016 396.784 465.925 396.187 464.059 394.992C462.229 393.797 460.792 392.099 459.747 389.896C458.701 387.693 458.179 385.136 458.179 382.224C458.179 379.349 458.701 376.811 459.747 374.608C460.829 372.405 462.304 370.707 464.171 369.512C466.037 368.317 468.128 367.72 470.443 367.72C474.251 367.72 477.125 369.045 479.067 371.696V358.144ZM471.563 391.688C473.84 391.688 475.707 390.848 477.163 389.168C478.619 387.451 479.347 385.136 479.347 382.224C479.347 379.312 478.619 377.016 477.163 375.336C475.707 373.656 473.84 372.816 471.563 372.816C469.36 372.816 467.587 373.675 466.243 375.392C464.899 377.109 464.227 379.387 464.227 382.224C464.227 385.099 464.88 387.395 466.187 389.112C467.531 390.829 469.323 391.688 471.563 391.688ZM517.752 391.296C517.864 391.259 518.032 391.24 518.256 391.24C519.189 391.24 519.749 391.781 519.936 392.864L520.104 393.76C520.141 393.872 520.16 394.059 520.16 394.32C520.16 395.253 519.637 395.851 518.592 396.112C517.098 396.448 515.736 396.616 514.504 396.616C511.853 396.616 509.93 396 508.736 394.768C507.578 393.536 507 391.688 507 389.224V372.928H503.92C503.322 372.928 502.837 372.76 502.464 372.424C502.128 372.051 501.96 371.565 501.96 370.968V370.352C501.96 369.717 502.128 369.232 502.464 368.896C502.837 368.56 503.322 368.392 503.92 368.392H507V361.448C507 360.813 507.168 360.328 507.504 359.992C507.877 359.656 508.362 359.488 508.96 359.488H510.976C511.61 359.488 512.096 359.656 512.432 359.992C512.768 360.328 512.936 360.813 512.936 361.448V368.392H517.976C518.61 368.392 519.096 368.56 519.432 368.896C519.768 369.232 519.936 369.717 519.936 370.352V370.968C519.936 371.565 519.768 372.051 519.432 372.424C519.096 372.76 518.61 372.928 517.976 372.928H512.936V388.496C512.936 389.579 513.16 390.344 513.608 390.792C514.093 391.24 514.858 391.464 515.904 391.464C516.352 391.464 516.968 391.408 517.752 391.296ZM538.878 367.552C542.052 367.552 544.478 368.448 546.158 370.24C547.876 371.995 548.734 374.272 548.734 377.072V394.04C548.734 394.637 548.566 395.123 548.23 395.496C547.894 395.832 547.409 396 546.774 396H544.758C544.161 396 543.676 395.832 543.302 395.496C542.966 395.123 542.798 394.637 542.798 394.04V378.92C542.798 376.904 542.294 375.355 541.286 374.272C540.316 373.189 538.916 372.648 537.086 372.648C535.294 372.648 533.782 373.264 532.55 374.496C531.356 375.728 530.758 377.277 530.758 379.144V394.04C530.758 394.637 530.59 395.123 530.254 395.496C529.918 395.832 529.433 396 528.798 396H526.782C526.185 396 525.7 395.832 525.326 395.496C524.99 395.123 524.822 394.637 524.822 394.04V358.2C524.822 357.565 524.99 357.08 525.326 356.744C525.7 356.408 526.185 356.24 526.782 356.24H528.798C529.433 356.24 529.918 356.408 530.254 356.744C530.59 357.08 530.758 357.565 530.758 358.2V371.248C531.654 370.053 532.793 369.139 534.174 368.504C535.593 367.869 537.161 367.552 538.878 367.552ZM575.325 388.944C575.81 388.533 576.277 388.328 576.725 388.328C577.173 388.328 577.639 388.571 578.125 389.056L578.909 389.896C579.319 390.381 579.525 390.848 579.525 391.296C579.525 391.781 579.282 392.248 578.797 392.696C577.079 394.189 575.362 395.253 573.645 395.888C571.965 396.523 570.098 396.84 568.045 396.84C565.17 396.84 562.669 396.243 560.541 395.048C558.45 393.853 556.826 392.173 555.669 390.008C554.549 387.805 553.989 385.267 553.989 382.392C553.989 379.555 554.53 377.016 555.613 374.776C556.733 372.499 558.301 370.725 560.317 369.456C562.37 368.187 564.759 367.552 567.485 367.552C571.554 367.552 574.69 368.765 576.893 371.192C579.095 373.581 580.197 376.885 580.197 381.104V381.608C580.159 382.205 579.973 382.672 579.637 383.008C579.301 383.344 578.815 383.512 578.181 383.512H559.813C560.037 385.976 560.839 387.992 562.221 389.56C563.639 391.091 565.618 391.856 568.157 391.856C569.538 391.856 570.751 391.651 571.797 391.24C572.842 390.792 574.018 390.027 575.325 388.944ZM567.373 372.256C565.319 372.256 563.658 372.872 562.389 374.104C561.157 375.299 560.354 376.997 559.981 379.2H574.373C574.223 377.035 573.551 375.336 572.357 374.104C571.162 372.872 569.501 372.256 567.373 372.256ZM627.782 367.552C630.732 367.552 633.009 368.392 634.614 370.072C636.22 371.715 637.022 373.936 637.022 376.736V394.04C637.022 394.637 636.854 395.123 636.518 395.496C636.182 395.832 635.697 396 635.062 396H633.046C632.449 396 631.964 395.832 631.59 395.496C631.254 395.123 631.086 394.637 631.086 394.04V378.528C631.086 376.699 630.676 375.261 629.854 374.216C629.033 373.171 627.782 372.648 626.102 372.648C624.385 372.648 623.022 373.227 622.014 374.384C621.044 375.541 620.558 377.035 620.558 378.864V394.04C620.558 394.637 620.39 395.123 620.054 395.496C619.718 395.832 619.233 396 618.598 396H616.582C615.985 396 615.5 395.832 615.126 395.496C614.79 395.123 614.622 394.637 614.622 394.04V378.528C614.622 376.699 614.212 375.261 613.39 374.216C612.606 373.171 611.374 372.648 609.694 372.648C608.052 372.648 606.726 373.189 605.718 374.272C604.71 375.355 604.169 376.755 604.094 378.472V394.04C604.094 394.637 603.926 395.123 603.59 395.496C603.254 395.832 602.769 396 602.134 396H600.118C599.521 396 599.036 395.832 598.662 395.496C598.326 395.123 598.158 394.637 598.158 394.04V370.352C598.158 369.717 598.326 369.232 598.662 368.896C599.036 368.56 599.521 368.392 600.118 368.392H601.742C602.377 368.392 602.862 368.56 603.198 368.896C603.534 369.232 603.702 369.717 603.702 370.352V371.584C605.42 368.896 608.07 367.552 611.654 367.552C613.446 367.552 615.014 367.925 616.358 368.672C617.702 369.419 618.729 370.464 619.438 371.808C621.342 368.971 624.124 367.552 627.782 367.552ZM655.47 367.552C659.204 367.552 662.078 368.429 664.094 370.184C666.11 371.901 667.118 374.197 667.118 377.072V394.04C667.118 394.637 666.95 395.123 666.614 395.496C666.278 395.832 665.793 396 665.158 396H663.702C663.105 396 662.62 395.832 662.246 395.496C661.91 395.123 661.742 394.637 661.742 394.04V392.808C660.846 394.115 659.614 395.123 658.046 395.832C656.478 396.541 654.649 396.896 652.558 396.896C649.684 396.896 647.313 396.261 645.446 394.992C643.617 393.685 642.702 391.725 642.702 389.112C642.702 386.2 643.785 384.053 645.95 382.672C648.153 381.253 651.196 380.189 655.078 379.48L661.406 378.304V377.296C661.406 375.765 660.865 374.589 659.782 373.768C658.737 372.909 657.337 372.48 655.582 372.48C654.089 372.48 652.782 372.741 651.662 373.264C650.58 373.749 649.404 374.571 648.134 375.728C647.649 376.139 647.182 376.344 646.734 376.344C646.286 376.344 645.82 376.139 645.334 375.728L644.438 374.944C643.953 374.496 643.71 374.011 643.71 373.488C643.71 373.003 643.934 372.536 644.382 372.088C645.988 370.557 647.686 369.419 649.478 368.672C651.27 367.925 653.268 367.552 655.47 367.552ZM653.398 392.136C655.638 392.136 657.524 391.539 659.054 390.344C660.622 389.149 661.406 387.432 661.406 385.192V382.616L656.534 383.624C653.809 384.184 651.793 384.819 650.486 385.528C649.18 386.237 648.526 387.32 648.526 388.776C648.526 389.821 648.956 390.643 649.814 391.24C650.673 391.837 651.868 392.136 653.398 392.136ZM686.627 391.296C686.739 391.259 686.907 391.24 687.131 391.24C688.064 391.24 688.624 391.781 688.811 392.864L688.979 393.76C689.016 393.872 689.035 394.059 689.035 394.32C689.035 395.253 688.512 395.851 687.467 396.112C685.973 396.448 684.611 396.616 683.379 396.616C680.728 396.616 678.805 396 677.611 394.768C676.453 393.536 675.875 391.688 675.875 389.224V372.928H672.795C672.197 372.928 671.712 372.76 671.339 372.424C671.003 372.051 670.835 371.565 670.835 370.968V370.352C670.835 369.717 671.003 369.232 671.339 368.896C671.712 368.56 672.197 368.392 672.795 368.392H675.875V361.448C675.875 360.813 676.043 360.328 676.379 359.992C676.752 359.656 677.237 359.488 677.835 359.488H679.851C680.485 359.488 680.971 359.656 681.307 359.992C681.643 360.328 681.811 360.813 681.811 361.448V368.392H686.851C687.485 368.392 687.971 368.56 688.307 368.896C688.643 369.232 688.811 369.717 688.811 370.352V370.968C688.811 371.565 688.643 372.051 688.307 372.424C687.971 372.76 687.485 372.928 686.851 372.928H681.811V388.496C681.811 389.579 682.035 390.344 682.483 390.792C682.968 391.24 683.733 391.464 684.779 391.464C685.227 391.464 685.843 391.408 686.627 391.296ZM712.59 388.944C713.076 388.533 713.542 388.328 713.99 388.328C714.438 388.328 714.905 388.571 715.39 389.056L716.174 389.896C716.585 390.381 716.79 390.848 716.79 391.296C716.79 391.781 716.548 392.248 716.062 392.696C714.345 394.189 712.628 395.253 710.91 395.888C709.23 396.523 707.364 396.84 705.31 396.84C702.436 396.84 699.934 396.243 697.806 395.048C695.716 393.853 694.092 392.173 692.934 390.008C691.814 387.805 691.254 385.267 691.254 382.392C691.254 379.555 691.796 377.016 692.878 374.776C693.998 372.499 695.566 370.725 697.582 369.456C699.636 368.187 702.025 367.552 704.75 367.552C708.82 367.552 711.956 368.765 714.158 371.192C716.361 373.581 717.462 376.885 717.462 381.104V381.608C717.425 382.205 717.238 382.672 716.902 383.008C716.566 383.344 716.081 383.512 715.446 383.512H697.078C697.302 385.976 698.105 387.992 699.486 389.56C700.905 391.091 702.884 391.856 705.422 391.856C706.804 391.856 708.017 391.651 709.062 391.24C710.108 390.792 711.284 390.027 712.59 388.944ZM704.638 372.256C702.585 372.256 700.924 372.872 699.654 374.104C698.422 375.299 697.62 376.997 697.246 379.2H711.638C711.489 377.035 710.817 375.336 709.622 374.104C708.428 372.872 706.766 372.256 704.638 372.256ZM735.332 368.112C736.154 368.112 736.994 368.205 737.852 368.392C738.86 368.616 739.364 369.213 739.364 370.184C739.364 370.445 739.346 370.632 739.308 370.744L739.028 372.088C738.804 373.133 738.244 373.656 737.348 373.656L736.844 373.6C736.172 373.488 735.575 373.432 735.052 373.432C733.186 373.432 731.674 374.179 730.516 375.672C729.396 377.128 728.836 379.163 728.836 381.776V394.04C728.836 394.637 728.668 395.123 728.332 395.496C727.996 395.832 727.511 396 726.876 396H724.86C724.263 396 723.778 395.832 723.404 395.496C723.068 395.123 722.9 394.637 722.9 394.04V370.352C722.9 369.717 723.068 369.232 723.404 368.896C723.778 368.56 724.263 368.392 724.86 368.392H726.484C727.119 368.392 727.604 368.56 727.94 368.896C728.276 369.232 728.444 369.717 728.444 370.352V372.536C729.116 371.155 730.031 370.072 731.188 369.288C732.346 368.504 733.727 368.112 735.332 368.112ZM746.706 363.016C745.623 363.016 744.708 362.661 743.962 361.952C743.215 361.205 742.842 360.328 742.842 359.32C742.842 358.275 743.215 357.397 743.962 356.688C744.708 355.979 745.623 355.624 746.706 355.624C747.788 355.624 748.703 355.979 749.45 356.688C750.196 357.397 750.57 358.275 750.57 359.32C750.57 360.328 750.196 361.205 749.45 361.952C748.703 362.661 747.788 363.016 746.706 363.016ZM745.642 396C745.044 396 744.559 395.832 744.186 395.496C743.85 395.123 743.682 394.637 743.682 394.04V370.352C743.682 369.717 743.85 369.232 744.186 368.896C744.559 368.56 745.044 368.392 745.642 368.392H747.658C748.292 368.392 748.778 368.56 749.114 368.896C749.45 369.232 749.618 369.717 749.618 370.352V394.04C749.618 394.637 749.45 395.123 749.114 395.496C748.778 395.832 748.292 396 747.658 396H745.642ZM768.127 367.552C771.86 367.552 774.735 368.429 776.751 370.184C778.767 371.901 779.775 374.197 779.775 377.072V394.04C779.775 394.637 779.607 395.123 779.271 395.496C778.935 395.832 778.449 396 777.815 396H776.359C775.761 396 775.276 395.832 774.903 395.496C774.567 395.123 774.399 394.637 774.399 394.04V392.808C773.503 394.115 772.271 395.123 770.703 395.832C769.135 396.541 767.305 396.896 765.215 396.896C762.34 396.896 759.969 396.261 758.103 394.992C756.273 393.685 755.359 391.725 755.359 389.112C755.359 386.2 756.441 384.053 758.607 382.672C760.809 381.253 763.852 380.189 767.735 379.48L774.063 378.304V377.296C774.063 375.765 773.521 374.589 772.439 373.768C771.393 372.909 769.993 372.48 768.239 372.48C766.745 372.48 765.439 372.741 764.319 373.264C763.236 373.749 762.06 374.571 760.791 375.728C760.305 376.139 759.839 376.344 759.391 376.344C758.943 376.344 758.476 376.139 757.991 375.728L757.095 374.944C756.609 374.496 756.367 374.011 756.367 373.488C756.367 373.003 756.591 372.536 757.039 372.088C758.644 370.557 760.343 369.419 762.135 368.672C763.927 367.925 765.924 367.552 768.127 367.552ZM766.055 392.136C768.295 392.136 770.18 391.539 771.711 390.344C773.279 389.149 774.063 387.432 774.063 385.192V382.616L769.191 383.624C766.465 384.184 764.449 384.819 763.143 385.528C761.836 386.237 761.183 387.32 761.183 388.776C761.183 389.821 761.612 390.643 762.471 391.24C763.329 391.837 764.524 392.136 766.055 392.136ZM788.741 396C788.143 396 787.658 395.832 787.285 395.496C786.949 395.123 786.781 394.637 786.781 394.04V358.2C786.781 357.565 786.949 357.08 787.285 356.744C787.658 356.408 788.143 356.24 788.741 356.24H790.757C791.391 356.24 791.877 356.408 792.213 356.744C792.549 357.08 792.717 357.565 792.717 358.2V394.04C792.717 394.637 792.549 395.123 792.213 395.496C791.877 395.832 791.391 396 790.757 396H788.741ZM810.431 396.84C808.154 396.84 806.119 396.56 804.327 396C802.572 395.403 800.78 394.376 798.951 392.92C798.391 392.509 798.111 392.043 798.111 391.52C798.111 391.109 798.316 390.661 798.727 390.176L799.567 389.224C800.015 388.701 800.5 388.44 801.023 388.44C801.434 388.44 801.882 388.627 802.367 389C803.935 390.157 805.316 390.96 806.511 391.408C807.706 391.819 809.05 392.024 810.543 392.024C812.148 392.024 813.455 391.707 814.463 391.072C815.508 390.4 816.031 389.504 816.031 388.384C816.031 387.525 815.732 386.853 815.135 386.368C814.575 385.845 813.828 385.453 812.895 385.192C811.962 384.893 810.58 384.557 808.751 384.184C806.175 383.624 804.159 383.027 802.703 382.392C801.284 381.72 800.258 380.88 799.623 379.872C798.988 378.864 798.671 377.576 798.671 376.008C798.671 374.403 799.119 372.965 800.015 371.696C800.948 370.427 802.236 369.419 803.879 368.672C805.559 367.925 807.519 367.552 809.759 367.552C811.775 367.552 813.567 367.776 815.135 368.224C816.74 368.672 818.308 369.437 819.839 370.52C820.436 370.968 820.735 371.472 820.735 372.032C820.735 372.405 820.548 372.835 820.175 373.32L819.447 374.216C819.036 374.739 818.532 375 817.935 375C817.487 375 817.058 374.851 816.647 374.552C815.415 373.731 814.276 373.171 813.231 372.872C812.186 372.536 811.01 372.368 809.703 372.368C808.098 372.368 806.81 372.685 805.839 373.32C804.868 373.955 804.383 374.776 804.383 375.784C804.383 376.456 804.607 376.997 805.055 377.408C805.54 377.781 806.212 378.117 807.071 378.416C807.967 378.677 809.367 379.013 811.271 379.424C813.847 379.984 815.882 380.619 817.375 381.328C818.906 382 820.026 382.877 820.735 383.96C821.482 385.005 821.855 386.368 821.855 388.048C821.855 390.661 820.81 392.789 818.719 394.432C816.666 396.037 813.903 396.84 810.431 396.84ZM870.574 370.072C870.835 368.952 871.563 368.392 872.758 368.392H874.83C875.39 368.392 875.819 368.523 876.118 368.784C876.454 369.008 876.622 369.363 876.622 369.848C876.622 369.96 876.585 370.203 876.51 370.576L869.846 394.32C869.585 395.44 868.857 396 867.662 396H864.022C862.902 396 862.174 395.44 861.838 394.32L859.99 387.824C859.169 384.949 858.254 381.347 857.246 377.016L856.966 375.784C855.958 380.339 854.987 384.371 854.054 387.88L852.318 394.32C852.057 395.44 851.329 396 850.134 396H846.55C845.43 396 844.702 395.44 844.366 394.32L837.646 370.576C837.571 370.203 837.534 369.96 837.534 369.848C837.534 369.363 837.683 369.008 837.982 368.784C838.318 368.523 838.766 368.392 839.326 368.392H841.51C842.705 368.392 843.433 368.952 843.694 370.072L845.71 378.024C846.494 380.936 847.409 384.819 848.454 389.672L848.678 390.792C849.761 385.789 850.769 381.533 851.702 378.024L853.83 370.072C854.091 368.952 854.819 368.392 856.014 368.392H858.142C859.337 368.392 860.065 368.952 860.326 370.072L862.51 378.024C863.555 381.907 864.601 386.163 865.646 390.792C866.43 386.797 867.401 382.541 868.558 378.024L870.574 370.072ZM884.573 363.016C883.49 363.016 882.575 362.661 881.829 361.952C881.082 361.205 880.709 360.328 880.709 359.32C880.709 358.275 881.082 357.397 881.829 356.688C882.575 355.979 883.49 355.624 884.573 355.624C885.655 355.624 886.57 355.979 887.317 356.688C888.063 357.397 888.437 358.275 888.437 359.32C888.437 360.328 888.063 361.205 887.317 361.952C886.57 362.661 885.655 363.016 884.573 363.016ZM883.509 396C882.911 396 882.426 395.832 882.053 395.496C881.717 395.123 881.549 394.637 881.549 394.04V370.352C881.549 369.717 881.717 369.232 882.053 368.896C882.426 368.56 882.911 368.392 883.509 368.392H885.525C886.159 368.392 886.645 368.56 886.981 368.896C887.317 369.232 887.485 369.717 887.485 370.352V394.04C887.485 394.637 887.317 395.123 886.981 395.496C886.645 395.832 886.159 396 885.525 396H883.509ZM907.674 391.296C907.786 391.259 907.954 391.24 908.178 391.24C909.111 391.24 909.671 391.781 909.858 392.864L910.026 393.76C910.063 393.872 910.082 394.059 910.082 394.32C910.082 395.253 909.559 395.851 908.514 396.112C907.02 396.448 905.658 396.616 904.426 396.616C901.775 396.616 899.852 396 898.658 394.768C897.5 393.536 896.922 391.688 896.922 389.224V372.928H893.842C893.244 372.928 892.759 372.76 892.386 372.424C892.05 372.051 891.882 371.565 891.882 370.968V370.352C891.882 369.717 892.05 369.232 892.386 368.896C892.759 368.56 893.244 368.392 893.842 368.392H896.922V361.448C896.922 360.813 897.09 360.328 897.426 359.992C897.799 359.656 898.284 359.488 898.882 359.488H900.898C901.532 359.488 902.018 359.656 902.354 359.992C902.69 360.328 902.858 360.813 902.858 361.448V368.392H907.898C908.532 368.392 909.018 368.56 909.354 368.896C909.69 369.232 909.858 369.717 909.858 370.352V370.968C909.858 371.565 909.69 372.051 909.354 372.424C909.018 372.76 908.532 372.928 907.898 372.928H902.858V388.496C902.858 389.579 903.082 390.344 903.53 390.792C904.015 391.24 904.78 391.464 905.826 391.464C906.274 391.464 906.89 391.408 907.674 391.296ZM928.8 367.552C931.973 367.552 934.4 368.448 936.08 370.24C937.797 371.995 938.656 374.272 938.656 377.072V394.04C938.656 394.637 938.488 395.123 938.152 395.496C937.816 395.832 937.331 396 936.696 396H934.68C934.083 396 933.597 395.832 933.224 395.496C932.888 395.123 932.72 394.637 932.72 394.04V378.92C932.72 376.904 932.216 375.355 931.208 374.272C930.237 373.189 928.837 372.648 927.008 372.648C925.216 372.648 923.704 373.264 922.472 374.496C921.277 375.728 920.68 377.277 920.68 379.144V394.04C920.68 394.637 920.512 395.123 920.176 395.496C919.84 395.832 919.355 396 918.72 396H916.704C916.107 396 915.621 395.832 915.248 395.496C914.912 395.123 914.744 394.637 914.744 394.04V358.2C914.744 357.565 914.912 357.08 915.248 356.744C915.621 356.408 916.107 356.24 916.704 356.24H918.72C919.355 356.24 919.84 356.408 920.176 356.744C920.512 357.08 920.68 357.565 920.68 358.2V371.248C921.576 370.053 922.715 369.139 924.096 368.504C925.515 367.869 927.083 367.552 928.8 367.552ZM154.496 442.072C154.757 440.952 155.485 440.392 156.68 440.392H158.752C159.312 440.392 159.741 440.523 160.04 440.784C160.376 441.008 160.544 441.363 160.544 441.848C160.544 441.96 160.507 442.203 160.432 442.576L153.768 466.32C153.507 467.44 152.779 468 151.584 468H147.944C146.824 468 146.096 467.44 145.76 466.32L143.912 459.824C143.091 456.949 142.176 453.347 141.168 449.016L140.888 447.784C139.88 452.339 138.909 456.371 137.976 459.88L136.24 466.32C135.979 467.44 135.251 468 134.056 468H130.472C129.352 468 128.624 467.44 128.288 466.32L121.568 442.576C121.493 442.203 121.456 441.96 121.456 441.848C121.456 441.363 121.605 441.008 121.904 440.784C122.24 440.523 122.688 440.392 123.248 440.392H125.432C126.627 440.392 127.355 440.952 127.616 442.072L129.632 450.024C130.416 452.936 131.331 456.819 132.376 461.672L132.6 462.792C133.683 457.789 134.691 453.533 135.624 450.024L137.752 442.072C138.013 440.952 138.741 440.392 139.936 440.392H142.064C143.259 440.392 143.987 440.952 144.248 442.072L146.432 450.024C147.477 453.907 148.523 458.163 149.568 462.792C150.352 458.797 151.323 454.541 152.48 450.024L154.496 442.072ZM179.527 439.552C182.7 439.552 185.127 440.448 186.807 442.24C188.524 443.995 189.383 446.272 189.383 449.072V466.04C189.383 466.637 189.215 467.123 188.879 467.496C188.543 467.832 188.057 468 187.423 468H185.407C184.809 468 184.324 467.832 183.951 467.496C183.615 467.123 183.447 466.637 183.447 466.04V450.92C183.447 448.904 182.943 447.355 181.935 446.272C180.964 445.189 179.564 444.648 177.735 444.648C175.943 444.648 174.431 445.264 173.199 446.496C172.004 447.728 171.407 449.277 171.407 451.144V466.04C171.407 466.637 171.239 467.123 170.903 467.496C170.567 467.832 170.081 468 169.447 468H167.431C166.833 468 166.348 467.832 165.975 467.496C165.639 467.123 165.471 466.637 165.471 466.04V430.2C165.471 429.565 165.639 429.08 165.975 428.744C166.348 428.408 166.833 428.24 167.431 428.24H169.447C170.081 428.24 170.567 428.408 170.903 428.744C171.239 429.08 171.407 429.565 171.407 430.2V443.248C172.303 442.053 173.441 441.139 174.823 440.504C176.241 439.869 177.809 439.552 179.527 439.552ZM199.229 435.016C198.146 435.016 197.232 434.661 196.485 433.952C195.738 433.205 195.365 432.328 195.365 431.32C195.365 430.275 195.738 429.397 196.485 428.688C197.232 427.979 198.146 427.624 199.229 427.624C200.312 427.624 201.226 427.979 201.973 428.688C202.72 429.397 203.093 430.275 203.093 431.32C203.093 432.328 202.72 433.205 201.973 433.952C201.226 434.661 200.312 435.016 199.229 435.016ZM198.165 468C197.568 468 197.082 467.832 196.709 467.496C196.373 467.123 196.205 466.637 196.205 466.04V442.352C196.205 441.717 196.373 441.232 196.709 440.896C197.082 440.56 197.568 440.392 198.165 440.392H200.181C200.816 440.392 201.301 440.56 201.637 440.896C201.973 441.232 202.141 441.717 202.141 442.352V466.04C202.141 466.637 201.973 467.123 201.637 467.496C201.301 467.832 200.816 468 200.181 468H198.165ZM221.154 468.84C218.429 468.84 216.021 468.243 213.93 467.048C211.877 465.853 210.271 464.155 209.114 461.952C207.994 459.712 207.434 457.117 207.434 454.168C207.434 451.219 208.013 448.643 209.17 446.44C210.327 444.237 211.951 442.539 214.042 441.344C216.133 440.149 218.541 439.552 221.266 439.552C223.245 439.552 225.018 439.851 226.586 440.448C228.191 441.008 229.722 441.979 231.178 443.36C231.626 443.808 231.85 444.275 231.85 444.76C231.85 445.208 231.607 445.675 231.122 446.16L230.17 447.112C229.759 447.523 229.311 447.728 228.826 447.728C228.341 447.728 227.837 447.504 227.314 447.056C226.231 446.123 225.205 445.488 224.234 445.152C223.301 444.779 222.293 444.592 221.21 444.592C218.746 444.592 216.842 445.507 215.498 447.336C214.154 449.165 213.482 451.443 213.482 454.168C213.482 456.893 214.154 459.189 215.498 461.056C216.842 462.885 218.746 463.8 221.21 463.8C222.405 463.8 223.506 463.576 224.514 463.128C225.522 462.643 226.605 461.84 227.762 460.72C228.247 460.235 228.751 459.992 229.274 459.992C229.722 459.992 230.151 460.179 230.562 460.552L231.514 461.336C231.999 461.747 232.242 462.213 232.242 462.736C232.242 463.296 231.962 463.893 231.402 464.528C229.871 466.096 228.285 467.216 226.642 467.888C225.037 468.523 223.207 468.84 221.154 468.84ZM251.277 439.552C254.45 439.552 256.877 440.448 258.557 442.24C260.274 443.995 261.133 446.272 261.133 449.072V466.04C261.133 466.637 260.965 467.123 260.629 467.496C260.293 467.832 259.807 468 259.173 468H257.157C256.559 468 256.074 467.832 255.701 467.496C255.365 467.123 255.197 466.637 255.197 466.04V450.92C255.197 448.904 254.693 447.355 253.685 446.272C252.714 445.189 251.314 444.648 249.485 444.648C247.693 444.648 246.181 445.264 244.949 446.496C243.754 447.728 243.157 449.277 243.157 451.144V466.04C243.157 466.637 242.989 467.123 242.653 467.496C242.317 467.832 241.831 468 241.197 468H239.181C238.583 468 238.098 467.832 237.725 467.496C237.389 467.123 237.221 466.637 237.221 466.04V430.2C237.221 429.565 237.389 429.08 237.725 428.744C238.098 428.408 238.583 428.24 239.181 428.24H241.197C241.831 428.24 242.317 428.408 242.653 428.744C242.989 429.08 243.157 429.565 243.157 430.2V443.248C244.053 442.053 245.191 441.139 246.573 440.504C247.991 439.869 249.559 439.552 251.277 439.552ZM283.503 435.016C282.42 435.016 281.505 434.661 280.758 433.952C280.012 433.205 279.639 432.328 279.639 431.32C279.639 430.275 280.012 429.397 280.758 428.688C281.505 427.979 282.42 427.624 283.503 427.624C284.585 427.624 285.5 427.979 286.247 428.688C286.993 429.397 287.367 430.275 287.367 431.32C287.367 432.328 286.993 433.205 286.247 433.952C285.5 434.661 284.585 435.016 283.503 435.016ZM282.439 468C281.841 468 281.356 467.832 280.983 467.496C280.647 467.123 280.479 466.637 280.479 466.04V442.352C280.479 441.717 280.647 441.232 280.983 440.896C281.356 440.56 281.841 440.392 282.439 440.392H284.454C285.089 440.392 285.575 440.56 285.911 440.896C286.247 441.232 286.415 441.717 286.415 442.352V466.04C286.415 466.637 286.247 467.123 285.911 467.496C285.575 467.832 285.089 468 284.454 468H282.439ZM306.603 463.296C306.715 463.259 306.883 463.24 307.107 463.24C308.041 463.24 308.601 463.781 308.787 464.864L308.955 465.76C308.993 465.872 309.011 466.059 309.011 466.32C309.011 467.253 308.489 467.851 307.443 468.112C305.95 468.448 304.587 468.616 303.355 468.616C300.705 468.616 298.782 468 297.587 466.768C296.43 465.536 295.851 463.688 295.851 461.224V444.928H292.771C292.174 444.928 291.689 444.76 291.315 444.424C290.979 444.051 290.811 443.565 290.811 442.968V442.352C290.811 441.717 290.979 441.232 291.315 440.896C291.689 440.56 292.174 440.392 292.771 440.392H295.851V433.448C295.851 432.813 296.019 432.328 296.355 431.992C296.729 431.656 297.214 431.488 297.811 431.488H299.827C300.462 431.488 300.947 431.656 301.283 431.992C301.619 432.328 301.787 432.813 301.787 433.448V440.392H306.827C307.462 440.392 307.947 440.56 308.283 440.896C308.619 441.232 308.787 441.717 308.787 442.352V442.968C308.787 443.565 308.619 444.051 308.283 444.424C307.947 444.76 307.462 444.928 306.827 444.928H301.787V460.496C301.787 461.579 302.011 462.344 302.459 462.792C302.945 463.24 303.71 463.464 304.755 463.464C305.203 463.464 305.819 463.408 306.603 463.296ZM329.221 435.016C328.139 435.016 327.224 434.661 326.477 433.952C325.731 433.205 325.357 432.328 325.357 431.32C325.357 430.275 325.731 429.397 326.477 428.688C327.224 427.979 328.139 427.624 329.221 427.624C330.304 427.624 331.219 427.979 331.965 428.688C332.712 429.397 333.085 430.275 333.085 431.32C333.085 432.328 332.712 433.205 331.965 433.952C331.219 434.661 330.304 435.016 329.221 435.016ZM328.157 468C327.56 468 327.075 467.832 326.701 467.496C326.365 467.123 326.197 466.637 326.197 466.04V442.352C326.197 441.717 326.365 441.232 326.701 440.896C327.075 440.56 327.56 440.392 328.157 440.392H330.173C330.808 440.392 331.293 440.56 331.629 440.896C331.965 441.232 332.133 441.717 332.133 442.352V466.04C332.133 466.637 331.965 467.123 331.629 467.496C331.293 467.832 330.808 468 330.173 468H328.157ZM349.634 468.84C347.357 468.84 345.322 468.56 343.53 468C341.775 467.403 339.983 466.376 338.154 464.92C337.594 464.509 337.314 464.043 337.314 463.52C337.314 463.109 337.519 462.661 337.93 462.176L338.77 461.224C339.218 460.701 339.703 460.44 340.226 460.44C340.637 460.44 341.085 460.627 341.57 461C343.138 462.157 344.519 462.96 345.714 463.408C346.909 463.819 348.253 464.024 349.746 464.024C351.351 464.024 352.658 463.707 353.666 463.072C354.711 462.4 355.234 461.504 355.234 460.384C355.234 459.525 354.935 458.853 354.338 458.368C353.778 457.845 353.031 457.453 352.098 457.192C351.165 456.893 349.783 456.557 347.954 456.184C345.378 455.624 343.362 455.027 341.906 454.392C340.487 453.72 339.461 452.88 338.826 451.872C338.191 450.864 337.874 449.576 337.874 448.008C337.874 446.403 338.322 444.965 339.218 443.696C340.151 442.427 341.439 441.419 343.082 440.672C344.762 439.925 346.722 439.552 348.962 439.552C350.978 439.552 352.77 439.776 354.338 440.224C355.943 440.672 357.511 441.437 359.042 442.52C359.639 442.968 359.938 443.472 359.938 444.032C359.938 444.405 359.751 444.835 359.378 445.32L358.65 446.216C358.239 446.739 357.735 447 357.138 447C356.69 447 356.261 446.851 355.85 446.552C354.618 445.731 353.479 445.171 352.434 444.872C351.389 444.536 350.213 444.368 348.906 444.368C347.301 444.368 346.013 444.685 345.042 445.32C344.071 445.955 343.586 446.776 343.586 447.784C343.586 448.456 343.81 448.997 344.258 449.408C344.743 449.781 345.415 450.117 346.274 450.416C347.17 450.677 348.57 451.013 350.474 451.424C353.05 451.984 355.085 452.619 356.578 453.328C358.109 454 359.229 454.877 359.938 455.96C360.685 457.005 361.058 458.368 361.058 460.048C361.058 462.661 360.013 464.789 357.922 466.432C355.869 468.037 353.106 468.84 349.634 468.84ZM393.369 439.664C395.721 439.664 397.812 440.261 399.641 441.456C401.508 442.651 402.964 444.349 404.009 446.552C405.055 448.755 405.577 451.293 405.577 454.168C405.577 457.08 405.055 459.637 404.009 461.84C402.964 464.043 401.508 465.741 399.641 466.936C397.775 468.131 395.684 468.728 393.369 468.728C389.225 468.728 386.183 467.179 384.241 464.08V466.04C384.241 466.637 384.073 467.123 383.737 467.496C383.401 467.832 382.916 468 382.281 468H380.657C380.06 468 379.575 467.832 379.201 467.496C378.865 467.123 378.697 466.637 378.697 466.04V430.2C378.697 429.565 378.865 429.08 379.201 428.744C379.575 428.408 380.06 428.24 380.657 428.24H382.673C383.308 428.24 383.793 428.408 384.129 428.744C384.465 429.08 384.633 429.565 384.633 430.2V443.864C386.612 441.064 389.524 439.664 393.369 439.664ZM392.137 463.576C394.377 463.576 396.169 462.736 397.513 461.056C398.857 459.339 399.529 457.043 399.529 454.168C399.529 451.331 398.857 449.053 397.513 447.336C396.207 445.619 394.433 444.76 392.193 444.76C389.916 444.76 388.049 445.619 386.593 447.336C385.137 449.016 384.409 451.293 384.409 454.168C384.409 457.117 385.137 459.432 386.593 461.112C388.049 462.755 389.897 463.576 392.137 463.576ZM428.491 442.352C428.491 441.717 428.659 441.232 428.995 440.896C429.368 440.56 429.854 440.392 430.451 440.392H432.467C433.102 440.392 433.587 440.56 433.923 440.896C434.259 441.232 434.427 441.717 434.427 442.352V466.04C434.427 466.637 434.259 467.123 433.923 467.496C433.587 467.832 433.102 468 432.467 468H430.955C430.358 468 429.872 467.832 429.499 467.496C429.163 467.123 428.995 466.637 428.995 466.04V464.752C428.248 466.021 427.166 467.029 425.747 467.776C424.328 468.485 422.648 468.84 420.707 468.84C417.422 468.84 414.976 468.037 413.371 466.432C411.766 464.789 410.963 462.624 410.963 459.936V442.352C410.963 441.717 411.131 441.232 411.467 440.896C411.84 440.56 412.326 440.392 412.923 440.392H414.939C415.574 440.392 416.059 440.56 416.395 440.896C416.731 441.232 416.899 441.717 416.899 442.352V458.368C416.899 460.085 417.328 461.411 418.187 462.344C419.083 463.24 420.371 463.688 422.051 463.688C423.992 463.688 425.542 463.128 426.699 462.008C427.894 460.888 428.491 459.264 428.491 457.136V442.352ZM444.284 435.016C443.201 435.016 442.286 434.661 441.54 433.952C440.793 433.205 440.42 432.328 440.42 431.32C440.42 430.275 440.793 429.397 441.54 428.688C442.286 427.979 443.201 427.624 444.284 427.624C445.366 427.624 446.281 427.979 447.028 428.688C447.774 429.397 448.148 430.275 448.148 431.32C448.148 432.328 447.774 433.205 447.028 433.952C446.281 434.661 445.366 435.016 444.284 435.016ZM443.22 468C442.622 468 442.137 467.832 441.764 467.496C441.428 467.123 441.26 466.637 441.26 466.04V442.352C441.26 441.717 441.428 441.232 441.764 440.896C442.137 440.56 442.622 440.392 443.22 440.392H445.236C445.87 440.392 446.356 440.56 446.692 440.896C447.028 441.232 447.196 441.717 447.196 442.352V466.04C447.196 466.637 447.028 467.123 446.692 467.496C446.356 467.832 445.87 468 445.236 468H443.22ZM456.241 468C455.643 468 455.158 467.832 454.785 467.496C454.449 467.123 454.281 466.637 454.281 466.04V430.2C454.281 429.565 454.449 429.08 454.785 428.744C455.158 428.408 455.643 428.24 456.241 428.24H458.257C458.891 428.24 459.377 428.408 459.713 428.744C460.049 429.08 460.217 429.565 460.217 430.2V466.04C460.217 466.637 460.049 467.123 459.713 467.496C459.377 467.832 458.891 468 458.257 468H456.241ZM480.619 463.296C480.731 463.259 480.899 463.24 481.123 463.24C482.056 463.24 482.616 463.781 482.803 464.864L482.971 465.76C483.008 465.872 483.027 466.059 483.027 466.32C483.027 467.253 482.504 467.851 481.459 468.112C479.966 468.448 478.603 468.616 477.371 468.616C474.72 468.616 472.798 468 471.603 466.768C470.446 465.536 469.867 463.688 469.867 461.224V444.928H466.787C466.19 444.928 465.704 444.76 465.331 444.424C464.995 444.051 464.827 443.565 464.827 442.968V442.352C464.827 441.717 464.995 441.232 465.331 440.896C465.704 440.56 466.19 440.392 466.787 440.392H469.867V433.448C469.867 432.813 470.035 432.328 470.371 431.992C470.744 431.656 471.23 431.488 471.827 431.488H473.843C474.478 431.488 474.963 431.656 475.299 431.992C475.635 432.328 475.803 432.813 475.803 433.448V440.392H480.843C481.478 440.392 481.963 440.56 482.299 440.896C482.635 441.232 482.803 441.717 482.803 442.352V442.968C482.803 443.565 482.635 444.051 482.299 444.424C481.963 444.76 481.478 444.928 480.843 444.928H475.803V460.496C475.803 461.579 476.027 462.344 476.475 462.792C476.96 463.24 477.726 463.464 478.771 463.464C479.219 463.464 479.835 463.408 480.619 463.296ZM491.919 468.56C490.799 468.56 489.829 468.168 489.007 467.384C488.223 466.563 487.831 465.573 487.831 464.416C487.831 463.333 488.223 462.4 489.007 461.616C489.829 460.795 490.799 460.384 491.919 460.384C493.039 460.384 493.991 460.795 494.775 461.616C495.597 462.4 496.007 463.333 496.007 464.416C496.007 465.573 495.597 466.563 494.775 467.384C493.991 468.168 493.039 468.56 491.919 468.56Z" fill="white"/>
<rect x="120" y="120" width="57" height="57" rx="28.5" fill="#003280"/>
<path d="M148.972 145.482C150.491 145.482 151.851 145.765 153.052 146.332C154.253 146.876 155.194 147.692 155.874 148.78C156.554 149.845 156.894 151.126 156.894 152.622C156.894 153.937 156.565 155.206 155.908 156.43C155.251 157.631 154.265 158.617 152.95 159.388C151.635 160.159 150.071 160.544 148.258 160.544C146.83 160.544 145.481 160.363 144.212 160C142.965 159.615 141.662 159.003 140.302 158.164C139.894 157.892 139.69 157.586 139.69 157.246C139.69 157.042 139.781 156.793 139.962 156.498L140.438 155.784C140.665 155.421 140.971 155.24 141.356 155.24C141.583 155.24 141.832 155.308 142.104 155.444C143.26 156.124 144.303 156.623 145.232 156.94C146.161 157.235 147.136 157.382 148.156 157.382C149.675 157.382 150.887 156.94 151.794 156.056C152.701 155.172 153.154 154.039 153.154 152.656C153.154 151.273 152.689 150.197 151.76 149.426C150.831 148.655 149.539 148.27 147.884 148.27C147.181 148.27 146.547 148.327 145.98 148.44C145.753 148.485 145.595 148.508 145.504 148.508C145.051 148.508 144.688 148.304 144.416 147.896L144.008 147.352C143.827 147.103 143.736 146.865 143.736 146.638C143.736 146.321 143.895 146.003 144.212 145.686L151.658 138.988H141.696C141.333 138.988 141.039 138.886 140.812 138.682C140.608 138.455 140.506 138.161 140.506 137.798V137.05C140.506 136.665 140.608 136.37 140.812 136.166C141.039 135.962 141.333 135.86 141.696 135.86H154.922C155.307 135.86 155.602 135.962 155.806 136.166C156.01 136.37 156.112 136.665 156.112 137.05V138.036C156.112 138.603 155.897 139.09 155.466 139.498L148.802 145.482H148.972Z" fill="white"/>
</svg>
