<svg width="344" height="200" viewBox="0 0 344 200" fill="none" xmlns="http://www.w3.org/2000/svg">
<g clip-path="url(#clip0_1840_23820)">
<rect width="344" height="200" fill="#F5F5F5"/>
<g filter="url(#filter0_dd_1840_23820)">
<rect x="40" y="40" width="264" height="305" rx="7.15932" fill="white"/>
<path d="M282.549 53.3965C282.287 53.1344 281.862 53.1344 281.6 53.3965C281.338 53.6587 281.338 54.0836 281.6 54.3457L285.152 57.8983L281.6 61.4508C281.338 61.7129 281.338 62.1379 281.6 62.4C281.862 62.6621 282.287 62.6621 282.549 62.4L286.102 58.8475L289.654 62.4C289.916 62.6621 290.341 62.6621 290.603 62.4C290.865 62.1379 290.865 61.7129 290.603 61.4508L287.051 57.8983L290.603 54.3457C290.865 54.0836 290.865 53.6587 290.603 53.3965C290.341 53.1344 289.916 53.1344 289.654 53.3965L286.102 56.9491L282.549 53.3965Z" fill="#767676"/>
<path d="M74.15 87.6373C73.94 87.6373 73.7694 87.5783 73.6381 87.4601C73.52 87.3289 73.4609 87.1583 73.4609 86.9482V75.5685H69.8777C69.6677 75.5685 69.497 75.5094 69.3658 75.3913C69.2477 75.2601 69.1886 75.0894 69.1886 74.8794V74.3478C69.1886 74.1247 69.2477 73.9541 69.3658 73.8359C69.497 73.7178 69.6677 73.6588 69.8777 73.6588H79.2689C79.4921 73.6588 79.6627 73.7178 79.7808 73.8359C79.8989 73.9541 79.958 74.1247 79.958 74.3478V74.8794C79.958 75.0894 79.8989 75.2601 79.7808 75.3913C79.6627 75.5094 79.4921 75.5685 79.2689 75.5685H75.7054V86.9482C75.7054 87.1583 75.6463 87.3289 75.5282 87.4601C75.41 87.5783 75.2394 87.6373 75.0163 87.6373H74.15ZM82.7643 76.041C82.3837 76.041 82.0621 75.9163 81.7996 75.6669C81.5371 75.4044 81.4059 75.096 81.4059 74.7416C81.4059 74.3741 81.5371 74.0656 81.7996 73.8163C82.0621 73.5669 82.3837 73.4422 82.7643 73.4422C83.145 73.4422 83.4665 73.5669 83.7291 73.8163C83.9916 74.0656 84.1228 74.3741 84.1228 74.7416C84.1228 75.096 83.9916 75.4044 83.7291 75.6669C83.4665 75.9163 83.145 76.041 82.7643 76.041ZM82.3903 87.6373C82.1803 87.6373 82.0096 87.5783 81.8784 87.4601C81.7602 87.3289 81.7012 87.1583 81.7012 86.9482V78.6202C81.7012 78.397 81.7602 78.2264 81.8784 78.1083C82.0096 77.9901 82.1803 77.9311 82.3903 77.9311H83.099C83.3222 77.9311 83.4928 77.9901 83.6109 78.1083C83.7291 78.2264 83.7881 78.397 83.7881 78.6202V86.9482C83.7881 87.1583 83.7291 87.3289 83.6109 87.4601C83.4928 87.5783 83.3222 87.6373 83.099 87.6373H82.3903ZM90.886 85.9835C90.9254 85.9704 90.9844 85.9638 91.0632 85.9638C91.3913 85.9638 91.5882 86.1542 91.6538 86.5348L91.7129 86.8498C91.726 86.8892 91.7326 86.9548 91.7326 87.0467C91.7326 87.3748 91.5488 87.5848 91.1813 87.6767C90.6563 87.7948 90.1772 87.8539 89.7441 87.8539C88.8122 87.8539 88.1362 87.6373 87.7162 87.2042C87.3093 86.7711 87.1059 86.1213 87.1059 85.2551V79.5258H86.023C85.813 79.5258 85.6424 79.4668 85.5111 79.3486C85.393 79.2174 85.3339 79.0467 85.3339 78.8367V78.6202C85.3339 78.397 85.393 78.2264 85.5111 78.1083C85.6424 77.9901 85.813 77.9311 86.023 77.9311H87.1059V75.4897C87.1059 75.2666 87.1649 75.096 87.2831 74.9779C87.4143 74.8597 87.585 74.8007 87.795 74.8007H88.5037C88.7269 74.8007 88.8975 74.8597 89.0156 74.9779C89.1338 75.096 89.1928 75.2666 89.1928 75.4897V77.9311H90.9647C91.1879 77.9311 91.3585 77.9901 91.4766 78.1083C91.5948 78.2264 91.6538 78.397 91.6538 78.6202V78.8367C91.6538 79.0467 91.5948 79.2174 91.4766 79.3486C91.3585 79.4668 91.1879 79.5258 90.9647 79.5258H89.1928V84.9991C89.1928 85.3798 89.2716 85.6488 89.4291 85.8063C89.5997 85.9638 89.8688 86.0426 90.2363 86.0426C90.3938 86.0426 90.6104 86.0229 90.886 85.9835ZM94.1396 87.6373C93.9296 87.6373 93.759 87.5783 93.6277 87.4601C93.5096 87.3289 93.4505 87.1583 93.4505 86.9482V74.3478C93.4505 74.1247 93.5096 73.9541 93.6277 73.8359C93.759 73.7178 93.9296 73.6588 94.1396 73.6588H94.8484C95.0715 73.6588 95.2422 73.7178 95.3603 73.8359C95.4784 73.9541 95.5375 74.1247 95.5375 74.3478V86.9482C95.5375 87.1583 95.4784 87.3289 95.3603 87.4601C95.2422 87.5783 95.0715 87.6373 94.8484 87.6373H94.1396ZM104.975 85.1566C105.145 85.0122 105.309 84.9401 105.467 84.9401C105.624 84.9401 105.788 85.0254 105.959 85.196L106.235 85.4913C106.379 85.662 106.451 85.826 106.451 85.9835C106.451 86.1542 106.366 86.3182 106.195 86.4757C105.591 87.0007 104.988 87.3748 104.384 87.598C103.793 87.8211 103.137 87.9327 102.415 87.9327C101.404 87.9327 100.525 87.7226 99.7769 87.3026C99.0419 86.8826 98.4709 86.292 98.064 85.5307C97.6703 84.7563 97.4734 83.8638 97.4734 82.8531C97.4734 81.8556 97.6637 80.9631 98.0443 80.1755C98.4381 79.3749 98.9894 78.7514 99.6981 78.3052C100.42 77.8589 101.26 77.6358 102.218 77.6358C103.649 77.6358 104.751 78.0623 105.526 78.9155C106.3 79.7555 106.687 80.9171 106.687 82.4003V82.5775C106.674 82.7875 106.609 82.9516 106.491 83.0697C106.372 83.1878 106.202 83.2469 105.979 83.2469H99.5209C99.5997 84.1132 99.8819 84.8219 100.368 85.3732C100.866 85.9113 101.562 86.1804 102.454 86.1804C102.94 86.1804 103.367 86.1082 103.734 85.9638C104.102 85.8063 104.515 85.5373 104.975 85.1566ZM102.179 79.2896C101.457 79.2896 100.873 79.5061 100.427 79.9393C99.9935 80.3593 99.7113 80.9565 99.58 81.7309H104.64C104.587 80.9696 104.351 80.3724 103.931 79.9393C103.511 79.5061 102.927 79.2896 102.179 79.2896Z" fill="#464646"/>
<path d="M73.9782 117.011C73.0045 117.011 72.1645 116.787 71.4581 116.338C70.7517 115.88 70.2124 115.25 69.8401 114.448C69.4678 113.647 69.2817 112.735 69.2817 111.714C69.2817 110.683 69.4678 109.766 69.8401 108.964C70.2124 108.162 70.7565 107.537 71.4724 107.089C72.1979 106.64 73.0666 106.416 74.0784 106.416C74.6607 106.416 75.2048 106.511 75.7107 106.702C76.2167 106.883 76.756 107.198 77.3287 107.647C77.4147 107.704 77.4576 107.771 77.4576 107.847C77.4576 107.905 77.429 107.972 77.3717 108.048L77.1712 108.306C77.114 108.382 77.0471 108.42 76.9708 108.42C76.8944 108.42 76.8228 108.392 76.756 108.334C76.2405 107.933 75.7728 107.661 75.3528 107.518C74.9423 107.365 74.5175 107.289 74.0784 107.289C73.3052 107.289 72.6322 107.48 72.0595 107.862C71.4963 108.234 71.062 108.754 70.7565 109.423C70.451 110.091 70.2983 110.854 70.2983 111.714C70.2983 112.563 70.451 113.327 70.7565 114.004C71.062 114.673 71.4915 115.198 72.0452 115.58C72.5988 115.952 73.2384 116.138 73.9639 116.138C74.5366 116.138 75.0425 116.028 75.4816 115.809C75.9303 115.58 76.4076 115.226 76.9135 114.749C76.9899 114.692 77.0567 114.663 77.114 114.663C77.1903 114.663 77.2619 114.697 77.3287 114.763L77.5578 115.021C77.6151 115.078 77.6438 115.14 77.6438 115.207C77.6438 115.293 77.596 115.379 77.5006 115.465C76.9087 116.028 76.3455 116.429 75.811 116.668C75.2764 116.897 74.6655 117.011 73.9782 117.011ZM82.1683 116.983C81.5097 116.983 80.9226 116.825 80.4071 116.51C79.8917 116.195 79.4907 115.761 79.2044 115.207C78.918 114.644 78.7748 114 78.7748 113.274C78.7748 112.549 78.918 111.909 79.2044 111.356C79.4907 110.792 79.8917 110.353 80.4071 110.038C80.9226 109.723 81.5097 109.566 82.1683 109.566C82.827 109.566 83.4141 109.723 83.9295 110.038C84.445 110.353 84.8459 110.792 85.1323 111.356C85.4187 111.909 85.5619 112.549 85.5619 113.274C85.5619 114 85.4187 114.644 85.1323 115.207C84.8459 115.761 84.445 116.195 83.9295 116.51C83.4141 116.825 82.827 116.983 82.1683 116.983ZM82.1683 116.195C82.9034 116.195 83.4904 115.928 83.9295 115.393C84.3686 114.849 84.5882 114.143 84.5882 113.274C84.5882 112.406 84.3686 111.704 83.9295 111.169C83.4904 110.625 82.9034 110.353 82.1683 110.353C81.4333 110.353 80.8462 110.625 80.4071 111.169C79.968 111.704 79.7485 112.406 79.7485 113.274C79.7485 114.143 79.968 114.849 80.4071 115.393C80.8462 115.928 81.4333 116.195 82.1683 116.195ZM90.3538 109.566C91.1843 109.566 91.8095 109.795 92.2295 110.253C92.6591 110.711 92.8739 111.284 92.8739 111.971V116.51C92.8739 116.701 92.7784 116.797 92.5875 116.797H92.2152C92.0243 116.797 91.9288 116.701 91.9288 116.51V112.286C91.9288 111.656 91.7761 111.179 91.4706 110.854C91.1652 110.53 90.7261 110.368 90.1533 110.368C89.7906 110.368 89.4565 110.458 89.151 110.64C88.8456 110.811 88.6021 111.05 88.4208 111.356C88.2394 111.661 88.1487 111.995 88.1487 112.358V116.51C88.1487 116.701 88.0533 116.797 87.8623 116.797H87.4901C87.2991 116.797 87.2037 116.701 87.2037 116.51V110.024C87.2037 109.833 87.2991 109.738 87.4901 109.738H87.8051C87.996 109.738 88.0914 109.833 88.0914 110.024V110.711C88.3301 110.329 88.6451 110.043 89.0365 109.852C89.4279 109.661 89.867 109.566 90.3538 109.566ZM97.9473 116.009C97.9759 116 98.0141 115.995 98.0618 115.995C98.1191 115.995 98.1716 116.014 98.2193 116.052C98.267 116.09 98.2957 116.143 98.3052 116.21L98.3482 116.41C98.3577 116.429 98.3625 116.463 98.3625 116.51C98.3625 116.644 98.2909 116.725 98.1477 116.754C97.8041 116.859 97.4366 116.911 97.0452 116.911C96.4247 116.911 95.9808 116.773 95.7135 116.496C95.4558 116.21 95.3269 115.799 95.3269 115.265V110.453H94.2674C94.0765 110.453 93.981 110.358 93.981 110.167V110.024C93.981 109.833 94.0765 109.738 94.2674 109.738H95.3269V107.561C95.3269 107.37 95.4224 107.275 95.6133 107.275H95.9856C96.1765 107.275 96.272 107.37 96.272 107.561V109.738H97.9902C98.1811 109.738 98.2766 109.833 98.2766 110.024V110.167C98.2766 110.358 98.1811 110.453 97.9902 110.453H96.272V115.15C96.272 115.503 96.3388 115.751 96.4724 115.895C96.6061 116.038 96.8352 116.109 97.1597 116.109C97.3888 116.109 97.6513 116.076 97.9473 116.009ZM104.593 115.121C104.66 115.055 104.732 115.021 104.808 115.021C104.875 115.021 104.937 115.05 104.994 115.107L105.18 115.279C105.247 115.346 105.281 115.417 105.281 115.494C105.281 115.551 105.252 115.618 105.195 115.694C104.727 116.162 104.273 116.496 103.834 116.696C103.395 116.887 102.904 116.983 102.36 116.983C101.672 116.983 101.076 116.83 100.57 116.525C100.064 116.219 99.6724 115.794 99.3956 115.25C99.1187 114.697 98.9803 114.057 98.9803 113.332C98.9803 112.596 99.114 111.947 99.3812 111.384C99.6581 110.811 100.045 110.368 100.541 110.053C101.037 109.728 101.61 109.566 102.259 109.566C103.223 109.566 103.982 109.866 104.536 110.468C105.09 111.069 105.366 111.881 105.366 112.902V113.074C105.357 113.16 105.323 113.227 105.266 113.274C105.218 113.322 105.152 113.346 105.066 113.346H99.9397C99.9683 114.148 100.178 114.825 100.57 115.379C100.971 115.923 101.567 116.195 102.36 116.195C102.789 116.195 103.166 116.119 103.491 115.966C103.825 115.804 104.192 115.522 104.593 115.121ZM102.259 110.353C101.629 110.353 101.109 110.549 100.699 110.94C100.298 111.322 100.054 111.885 99.9683 112.63H104.421C104.402 111.933 104.202 111.379 103.82 110.969C103.438 110.558 102.918 110.353 102.259 110.353ZM110.21 109.566C111.04 109.566 111.665 109.795 112.085 110.253C112.515 110.711 112.73 111.284 112.73 111.971V116.51C112.73 116.701 112.634 116.797 112.443 116.797H112.071C111.88 116.797 111.785 116.701 111.785 116.51V112.286C111.785 111.656 111.632 111.179 111.327 110.854C111.021 110.53 110.582 110.368 110.009 110.368C109.647 110.368 109.312 110.458 109.007 110.64C108.701 110.811 108.458 111.05 108.277 111.356C108.095 111.661 108.005 111.995 108.005 112.358V116.51C108.005 116.701 107.909 116.797 107.718 116.797H107.346C107.155 116.797 107.06 116.701 107.06 116.51V110.024C107.06 109.833 107.155 109.738 107.346 109.738H107.661C107.852 109.738 107.947 109.833 107.947 110.024V110.711C108.186 110.329 108.501 110.043 108.892 109.852C109.284 109.661 109.723 109.566 110.21 109.566ZM117.803 116.009C117.832 116 117.87 115.995 117.918 115.995C117.975 115.995 118.028 116.014 118.075 116.052C118.123 116.09 118.152 116.143 118.161 116.21L118.204 116.41C118.214 116.429 118.218 116.463 118.218 116.51C118.218 116.644 118.147 116.725 118.004 116.754C117.66 116.859 117.292 116.911 116.901 116.911C116.281 116.911 115.837 116.773 115.569 116.496C115.312 116.21 115.183 115.799 115.183 115.265V110.453H114.123C113.932 110.453 113.837 110.358 113.837 110.167V110.024C113.837 109.833 113.932 109.738 114.123 109.738H115.183V107.561C115.183 107.37 115.278 107.275 115.469 107.275H115.842C116.032 107.275 116.128 107.37 116.128 107.561V109.738H117.846C118.037 109.738 118.133 109.833 118.133 110.024V110.167C118.133 110.358 118.037 110.453 117.846 110.453H116.128V115.15C116.128 115.503 116.195 115.751 116.328 115.895C116.462 116.038 116.691 116.109 117.016 116.109C117.245 116.109 117.507 116.076 117.803 116.009ZM123.347 107.948C123.156 107.948 122.994 107.881 122.86 107.747C122.736 107.614 122.674 107.451 122.674 107.26C122.674 107.069 122.736 106.912 122.86 106.788C122.994 106.664 123.156 106.602 123.347 106.602C123.547 106.602 123.71 106.664 123.834 106.788C123.967 106.912 124.034 107.069 124.034 107.26C124.034 107.451 123.967 107.614 123.834 107.747C123.71 107.881 123.547 107.948 123.347 107.948ZM123.161 116.797C122.97 116.797 122.874 116.701 122.874 116.51V110.024C122.874 109.833 122.97 109.738 123.161 109.738H123.533C123.724 109.738 123.819 109.833 123.819 110.024V116.51C123.819 116.701 123.724 116.797 123.533 116.797H123.161ZM129.073 109.566C129.903 109.566 130.529 109.795 130.949 110.253C131.378 110.711 131.593 111.284 131.593 111.971V116.51C131.593 116.701 131.497 116.797 131.307 116.797H130.934C130.743 116.797 130.648 116.701 130.648 116.51V112.286C130.648 111.656 130.495 111.179 130.19 110.854C129.884 110.53 129.445 110.368 128.872 110.368C128.51 110.368 128.176 110.458 127.87 110.64C127.565 110.811 127.321 111.05 127.14 111.356C126.958 111.661 126.868 111.995 126.868 112.358V116.51C126.868 116.701 126.772 116.797 126.581 116.797H126.209C126.018 116.797 125.923 116.701 125.923 116.51V110.024C125.923 109.833 126.018 109.738 126.209 109.738H126.524C126.715 109.738 126.811 109.833 126.811 110.024V110.711C127.049 110.329 127.364 110.043 127.756 109.852C128.147 109.661 128.586 109.566 129.073 109.566ZM136.207 107.246C135.778 107.246 135.472 107.361 135.291 107.59C135.11 107.809 135.019 108.182 135.019 108.707V109.738H136.594C136.785 109.738 136.88 109.833 136.88 110.024V110.167C136.88 110.358 136.785 110.453 136.594 110.453H135.019V116.51C135.019 116.701 134.924 116.797 134.733 116.797H134.36C134.169 116.797 134.074 116.701 134.074 116.51V110.453H133.014C132.823 110.453 132.728 110.358 132.728 110.167V110.024C132.728 109.833 132.823 109.738 133.014 109.738H134.074V108.549C134.074 107.89 134.246 107.375 134.589 107.003C134.943 106.63 135.444 106.444 136.093 106.444C136.456 106.444 136.828 106.497 137.21 106.602C137.391 106.659 137.458 106.778 137.41 106.96L137.353 107.16C137.305 107.294 137.21 107.361 137.067 107.361C137.038 107.361 136.976 107.351 136.88 107.332C136.67 107.275 136.446 107.246 136.207 107.246ZM140.771 116.983C140.113 116.983 139.526 116.825 139.01 116.51C138.495 116.195 138.094 115.761 137.807 115.207C137.521 114.644 137.378 114 137.378 113.274C137.378 112.549 137.521 111.909 137.807 111.356C138.094 110.792 138.495 110.353 139.01 110.038C139.526 109.723 140.113 109.566 140.771 109.566C141.43 109.566 142.017 109.723 142.532 110.038C143.048 110.353 143.449 110.792 143.735 111.356C144.022 111.909 144.165 112.549 144.165 113.274C144.165 114 144.022 114.644 143.735 115.207C143.449 115.761 143.048 116.195 142.532 116.51C142.017 116.825 141.43 116.983 140.771 116.983ZM140.771 116.195C141.506 116.195 142.093 115.928 142.532 115.393C142.972 114.849 143.191 114.143 143.191 113.274C143.191 112.406 142.972 111.704 142.532 111.169C142.093 110.625 141.506 110.353 140.771 110.353C140.036 110.353 139.449 110.625 139.01 111.169C138.571 111.704 138.351 112.406 138.351 113.274C138.351 114.143 138.571 114.849 139.01 115.393C139.449 115.928 140.036 116.195 140.771 116.195ZM148.441 109.68C148.68 109.68 148.962 109.718 149.286 109.795C149.458 109.852 149.525 109.971 149.487 110.153L149.429 110.382C149.382 110.563 149.262 110.63 149.071 110.582C148.842 110.525 148.632 110.496 148.441 110.496C147.954 110.496 147.549 110.706 147.224 111.126C146.909 111.546 146.752 112.129 146.752 112.873V116.51C146.752 116.701 146.656 116.797 146.465 116.797H146.093C145.902 116.797 145.807 116.701 145.807 116.51V110.024C145.807 109.833 145.902 109.738 146.093 109.738H146.408C146.599 109.738 146.694 109.833 146.694 110.024V110.811C146.857 110.458 147.086 110.181 147.382 109.981C147.687 109.78 148.04 109.68 148.441 109.68ZM157.944 109.566C158.708 109.566 159.29 109.785 159.691 110.224C160.102 110.654 160.307 111.208 160.307 111.885V116.51C160.307 116.701 160.211 116.797 160.02 116.797H159.648C159.457 116.797 159.362 116.701 159.362 116.51V112.143C159.362 111.57 159.228 111.131 158.961 110.826C158.703 110.52 158.317 110.368 157.801 110.368C157.257 110.368 156.823 110.549 156.498 110.912C156.174 111.274 156.011 111.742 156.011 112.315V116.51C156.011 116.701 155.916 116.797 155.725 116.797H155.353C155.162 116.797 155.066 116.701 155.066 116.51V112.143C155.066 111.57 154.933 111.131 154.665 110.826C154.408 110.52 154.016 110.368 153.491 110.368C153.004 110.368 152.599 110.52 152.274 110.826C151.959 111.131 151.773 111.532 151.716 112.029V116.51C151.716 116.701 151.62 116.797 151.429 116.797H151.057C150.866 116.797 150.771 116.701 150.771 116.51V110.024C150.771 109.833 150.866 109.738 151.057 109.738H151.372C151.563 109.738 151.658 109.833 151.658 110.024V110.611C152.088 109.914 152.77 109.566 153.706 109.566C154.193 109.566 154.608 109.675 154.952 109.895C155.305 110.105 155.567 110.391 155.739 110.754C156.245 109.962 156.98 109.566 157.944 109.566ZM165.111 109.566C165.98 109.566 166.658 109.776 167.144 110.196C167.631 110.606 167.875 111.15 167.875 111.828V116.51C167.875 116.701 167.779 116.797 167.588 116.797H167.302C167.111 116.797 167.015 116.701 167.015 116.51V115.866C166.777 116.248 166.438 116.534 165.999 116.725C165.569 116.916 165.087 117.011 164.553 117.011C163.808 117.011 163.202 116.854 162.734 116.539C162.266 116.224 162.033 115.737 162.033 115.078C162.033 114.553 162.181 114.133 162.476 113.818C162.772 113.494 163.159 113.25 163.636 113.088C164.114 112.916 164.71 112.764 165.426 112.63L166.973 112.358V111.9C166.973 111.413 166.805 111.036 166.471 110.768C166.137 110.492 165.698 110.353 165.154 110.353C164.744 110.353 164.371 110.43 164.037 110.582C163.703 110.735 163.345 110.998 162.963 111.37C162.896 111.437 162.825 111.47 162.749 111.47C162.682 111.47 162.62 111.441 162.562 111.384L162.376 111.212C162.309 111.146 162.276 111.074 162.276 110.998C162.276 110.912 162.309 110.835 162.376 110.768C162.777 110.348 163.197 110.043 163.636 109.852C164.085 109.661 164.577 109.566 165.111 109.566ZM164.596 116.224C165.283 116.224 165.851 116.043 166.3 115.68C166.748 115.317 166.973 114.854 166.973 114.291V113.088L165.641 113.346C165.02 113.47 164.529 113.589 164.166 113.704C163.803 113.818 163.512 113.985 163.293 114.205C163.073 114.425 162.963 114.711 162.963 115.064C162.963 115.427 163.106 115.713 163.393 115.923C163.689 116.124 164.09 116.224 164.596 116.224ZM172.952 116.009C172.981 116 173.019 115.995 173.067 115.995C173.124 115.995 173.177 116.014 173.224 116.052C173.272 116.09 173.301 116.143 173.31 116.21L173.353 116.41C173.363 116.429 173.368 116.463 173.368 116.51C173.368 116.644 173.296 116.725 173.153 116.754C172.809 116.859 172.442 116.911 172.05 116.911C171.43 116.911 170.986 116.773 170.719 116.496C170.461 116.21 170.332 115.799 170.332 115.265V110.453H169.272C169.082 110.453 168.986 110.358 168.986 110.167V110.024C168.986 109.833 169.082 109.738 169.272 109.738H170.332V107.561C170.332 107.37 170.427 107.275 170.618 107.275H170.991C171.182 107.275 171.277 107.37 171.277 107.561V109.738H172.995C173.186 109.738 173.282 109.833 173.282 110.024V110.167C173.282 110.358 173.186 110.453 172.995 110.453H171.277V115.15C171.277 115.503 171.344 115.751 171.478 115.895C171.611 116.038 171.84 116.109 172.165 116.109C172.394 116.109 172.656 116.076 172.952 116.009ZM175.196 107.948C175.005 107.948 174.843 107.881 174.709 107.747C174.585 107.614 174.523 107.451 174.523 107.26C174.523 107.069 174.585 106.912 174.709 106.788C174.843 106.664 175.005 106.602 175.196 106.602C175.397 106.602 175.559 106.664 175.683 106.788C175.817 106.912 175.883 107.069 175.883 107.26C175.883 107.451 175.817 107.614 175.683 107.747C175.559 107.881 175.397 107.948 175.196 107.948ZM175.01 116.797C174.819 116.797 174.724 116.701 174.724 116.51V110.024C174.724 109.833 174.819 109.738 175.01 109.738H175.382C175.573 109.738 175.669 109.833 175.669 110.024V116.51C175.669 116.701 175.573 116.797 175.382 116.797H175.01ZM180.693 116.983C180.034 116.983 179.447 116.825 178.932 116.51C178.416 116.195 178.015 115.761 177.729 115.207C177.443 114.644 177.299 114 177.299 113.274C177.299 112.549 177.443 111.909 177.729 111.356C178.015 110.792 178.416 110.353 178.932 110.038C179.447 109.723 180.034 109.566 180.693 109.566C181.352 109.566 181.939 109.723 182.454 110.038C182.97 110.353 183.37 110.792 183.657 111.356C183.943 111.909 184.086 112.549 184.086 113.274C184.086 114 183.943 114.644 183.657 115.207C183.37 115.761 182.97 116.195 182.454 116.51C181.939 116.825 181.352 116.983 180.693 116.983ZM180.693 116.195C181.428 116.195 182.015 115.928 182.454 115.393C182.893 114.849 183.113 114.143 183.113 113.274C183.113 112.406 182.893 111.704 182.454 111.169C182.015 110.625 181.428 110.353 180.693 110.353C179.958 110.353 179.371 110.625 178.932 111.169C178.493 111.704 178.273 112.406 178.273 113.274C178.273 114.143 178.493 114.849 178.932 115.393C179.371 115.928 179.958 116.195 180.693 116.195ZM188.878 109.566C189.709 109.566 190.334 109.795 190.754 110.253C191.184 110.711 191.398 111.284 191.398 111.971V116.51C191.398 116.701 191.303 116.797 191.112 116.797H190.74C190.549 116.797 190.453 116.701 190.453 116.51V112.286C190.453 111.656 190.301 111.179 189.995 110.854C189.69 110.53 189.251 110.368 188.678 110.368C188.315 110.368 187.981 110.458 187.676 110.64C187.37 110.811 187.127 111.05 186.945 111.356C186.764 111.661 186.673 111.995 186.673 112.358V116.51C186.673 116.701 186.578 116.797 186.387 116.797H186.015C185.824 116.797 185.728 116.701 185.728 116.51V110.024C185.728 109.833 185.824 109.738 186.015 109.738H186.33C186.521 109.738 186.616 109.833 186.616 110.024V110.711C186.855 110.329 187.17 110.043 187.561 109.852C187.952 109.661 188.392 109.566 188.878 109.566ZM201.858 110.024C201.858 109.833 201.953 109.738 202.144 109.738H202.445C202.636 109.738 202.731 109.833 202.731 110.024V116.725C202.731 117.613 202.464 118.31 201.929 118.816C201.395 119.331 200.645 119.589 199.681 119.589C198.641 119.589 197.681 119.293 196.803 118.701C196.708 118.644 196.66 118.572 196.66 118.486C196.66 118.419 196.679 118.362 196.717 118.314L196.889 118.071C196.946 117.976 197.023 117.928 197.118 117.928C197.156 117.928 197.214 117.947 197.29 117.985C197.71 118.252 198.101 118.453 198.464 118.586C198.836 118.72 199.242 118.787 199.681 118.787C200.311 118.787 200.822 118.61 201.213 118.257C201.605 117.913 201.8 117.379 201.8 116.653V115.508C201.285 116.338 200.502 116.754 199.452 116.754C198.841 116.754 198.302 116.601 197.834 116.295C197.366 115.98 197.004 115.551 196.746 115.007C196.498 114.463 196.374 113.847 196.374 113.16C196.374 112.472 196.498 111.857 196.746 111.313C197.004 110.768 197.366 110.344 197.834 110.038C198.302 109.723 198.841 109.566 199.452 109.566C200.006 109.566 200.483 109.685 200.884 109.924C201.294 110.153 201.619 110.482 201.858 110.912V110.024ZM199.552 115.952C200.24 115.952 200.789 115.694 201.199 115.179C201.609 114.654 201.815 113.981 201.815 113.16C201.815 112.339 201.609 111.671 201.199 111.155C200.789 110.63 200.24 110.368 199.552 110.368C198.856 110.368 198.311 110.625 197.92 111.141C197.538 111.656 197.347 112.329 197.347 113.16C197.347 113.99 197.538 114.663 197.92 115.179C198.311 115.694 198.856 115.952 199.552 115.952ZM207.778 116.983C207.119 116.983 206.532 116.825 206.017 116.51C205.501 116.195 205.1 115.761 204.814 115.207C204.528 114.644 204.385 114 204.385 113.274C204.385 112.549 204.528 111.909 204.814 111.356C205.1 110.792 205.501 110.353 206.017 110.038C206.532 109.723 207.119 109.566 207.778 109.566C208.437 109.566 209.024 109.723 209.539 110.038C210.055 110.353 210.456 110.792 210.742 111.356C211.028 111.909 211.172 112.549 211.172 113.274C211.172 114 211.028 114.644 210.742 115.207C210.456 115.761 210.055 116.195 209.539 116.51C209.024 116.825 208.437 116.983 207.778 116.983ZM207.778 116.195C208.513 116.195 209.1 115.928 209.539 115.393C209.978 114.849 210.198 114.143 210.198 113.274C210.198 112.406 209.978 111.704 209.539 111.169C209.1 110.625 208.513 110.353 207.778 110.353C207.043 110.353 206.456 110.625 206.017 111.169C205.578 111.704 205.358 112.406 205.358 113.274C205.358 114.143 205.578 114.849 206.017 115.393C206.456 115.928 207.043 116.195 207.778 116.195ZM218.038 115.121C218.105 115.055 218.176 115.021 218.253 115.021C218.319 115.021 218.381 115.05 218.439 115.107L218.625 115.279C218.692 115.346 218.725 115.417 218.725 115.494C218.725 115.551 218.696 115.618 218.639 115.694C218.171 116.162 217.718 116.496 217.279 116.696C216.84 116.887 216.348 116.983 215.804 116.983C215.117 116.983 214.52 116.83 214.014 116.525C213.508 116.219 213.117 115.794 212.84 115.25C212.563 114.697 212.425 114.057 212.425 113.332C212.425 112.596 212.558 111.947 212.826 111.384C213.103 110.811 213.489 110.368 213.986 110.053C214.482 109.728 215.055 109.566 215.704 109.566C216.668 109.566 217.427 109.866 217.98 110.468C218.534 111.069 218.811 111.881 218.811 112.902V113.074C218.801 113.16 218.768 113.227 218.711 113.274C218.663 113.322 218.596 113.346 218.51 113.346H213.384C213.413 114.148 213.623 114.825 214.014 115.379C214.415 115.923 215.012 116.195 215.804 116.195C216.234 116.195 216.611 116.119 216.935 115.966C217.269 115.804 217.637 115.522 218.038 115.121ZM215.704 110.353C215.074 110.353 214.554 110.549 214.143 110.94C213.742 111.322 213.499 111.885 213.413 112.63H217.866C217.847 111.933 217.646 111.379 217.265 110.969C216.883 110.558 216.362 110.353 215.704 110.353ZM223.023 116.983C222.441 116.983 221.925 116.902 221.476 116.739C221.037 116.568 220.574 116.281 220.088 115.88C220.002 115.823 219.959 115.756 219.959 115.68C219.959 115.613 219.992 115.546 220.059 115.479L220.245 115.279C220.302 115.202 220.374 115.164 220.46 115.164C220.527 115.164 220.589 115.193 220.646 115.25C221.104 115.603 221.51 115.852 221.863 115.995C222.216 116.128 222.603 116.195 223.023 116.195C223.548 116.195 223.977 116.081 224.312 115.852C224.646 115.613 224.813 115.293 224.813 114.892C224.813 114.491 224.641 114.195 224.297 114.004C223.954 113.814 223.424 113.642 222.708 113.489C222.078 113.355 221.581 113.217 221.219 113.074C220.866 112.921 220.603 112.73 220.431 112.501C220.259 112.272 220.173 111.971 220.173 111.599C220.173 110.988 220.422 110.496 220.918 110.124C221.414 109.752 222.04 109.566 222.794 109.566C223.309 109.566 223.767 109.633 224.168 109.766C224.579 109.89 224.989 110.1 225.4 110.396C225.486 110.463 225.529 110.535 225.529 110.611C225.529 110.659 225.505 110.721 225.457 110.797L225.285 111.012C225.237 111.088 225.171 111.126 225.085 111.126C225.008 111.126 224.942 111.103 224.884 111.055C224.493 110.778 224.144 110.592 223.839 110.496C223.543 110.401 223.204 110.353 222.822 110.353C222.297 110.353 221.877 110.468 221.562 110.697C221.247 110.926 221.09 111.217 221.09 111.57C221.09 111.79 221.161 111.966 221.305 112.1C221.448 112.234 221.653 112.348 221.92 112.444C222.188 112.53 222.579 112.63 223.094 112.744C224.049 112.954 224.727 113.212 225.128 113.518C225.538 113.823 225.743 114.267 225.743 114.849C225.743 115.489 225.49 116.004 224.984 116.396C224.479 116.787 223.825 116.983 223.023 116.983ZM233.792 109.566C234.613 109.566 235.238 109.8 235.668 110.267C236.097 110.726 236.312 111.293 236.312 111.971V116.51C236.312 116.701 236.217 116.797 236.026 116.797H235.653C235.462 116.797 235.367 116.701 235.367 116.51V112.286C235.367 111.656 235.214 111.179 234.909 110.854C234.603 110.53 234.164 110.368 233.591 110.368C233.229 110.368 232.895 110.458 232.589 110.64C232.284 110.811 232.04 111.05 231.859 111.356C231.678 111.661 231.587 111.995 231.587 112.358V116.51C231.587 116.701 231.491 116.797 231.3 116.797H230.928C230.737 116.797 230.642 116.701 230.642 116.51V106.917C230.642 106.726 230.737 106.63 230.928 106.63H231.3C231.491 106.63 231.587 106.726 231.587 106.917V110.654C231.816 110.291 232.121 110.019 232.503 109.838C232.895 109.656 233.324 109.566 233.792 109.566ZM243.543 115.121C243.61 115.055 243.681 115.021 243.758 115.021C243.824 115.021 243.886 115.05 243.944 115.107L244.13 115.279C244.197 115.346 244.23 115.417 244.23 115.494C244.23 115.551 244.201 115.618 244.144 115.694C243.676 116.162 243.223 116.496 242.784 116.696C242.345 116.887 241.853 116.983 241.309 116.983C240.622 116.983 240.025 116.83 239.519 116.525C239.013 116.219 238.622 115.794 238.345 115.25C238.068 114.697 237.93 114.057 237.93 113.332C237.93 112.596 238.064 111.947 238.331 111.384C238.608 110.811 238.994 110.368 239.491 110.053C239.987 109.728 240.56 109.566 241.209 109.566C242.173 109.566 242.932 109.866 243.486 110.468C244.039 111.069 244.316 111.881 244.316 112.902V113.074C244.306 113.16 244.273 113.227 244.216 113.274C244.168 113.322 244.101 113.346 244.015 113.346H238.889C238.918 114.148 239.128 114.825 239.519 115.379C239.92 115.923 240.517 116.195 241.309 116.195C241.739 116.195 242.116 116.119 242.44 115.966C242.774 115.804 243.142 115.522 243.543 115.121ZM241.209 110.353C240.579 110.353 240.059 110.549 239.648 110.94C239.247 111.322 239.004 111.885 238.918 112.63H243.371C243.352 111.933 243.151 111.379 242.77 110.969C242.388 110.558 241.868 110.353 241.209 110.353ZM248.644 109.68C248.882 109.68 249.164 109.718 249.489 109.795C249.66 109.852 249.727 109.971 249.689 110.153L249.632 110.382C249.584 110.563 249.465 110.63 249.274 110.582C249.045 110.525 248.835 110.496 248.644 110.496C248.157 110.496 247.751 110.706 247.427 111.126C247.112 111.546 246.954 112.129 246.954 112.873V116.51C246.954 116.701 246.859 116.797 246.668 116.797H246.296C246.105 116.797 246.009 116.701 246.009 116.51V110.024C246.009 109.833 246.105 109.738 246.296 109.738H246.611C246.801 109.738 246.897 109.833 246.897 110.024V110.811C247.059 110.458 247.288 110.181 247.584 109.981C247.89 109.78 248.243 109.68 248.644 109.68ZM255.722 115.121C255.789 115.055 255.86 115.021 255.937 115.021C256.004 115.021 256.066 115.05 256.123 115.107L256.309 115.279C256.376 115.346 256.409 115.417 256.409 115.494C256.409 115.551 256.381 115.618 256.323 115.694C255.856 116.162 255.402 116.496 254.963 116.696C254.524 116.887 254.032 116.983 253.488 116.983C252.801 116.983 252.204 116.83 251.698 116.525C251.193 116.219 250.801 115.794 250.524 115.25C250.248 114.697 250.109 114.057 250.109 113.332C250.109 112.596 250.243 111.947 250.51 111.384C250.787 110.811 251.173 110.368 251.67 110.053C252.166 109.728 252.739 109.566 253.388 109.566C254.352 109.566 255.111 109.866 255.665 110.468C256.218 111.069 256.495 111.881 256.495 112.902V113.074C256.486 113.16 256.452 113.227 256.395 113.274C256.347 113.322 256.28 113.346 256.195 113.346H251.068C251.097 114.148 251.307 114.825 251.698 115.379C252.099 115.923 252.696 116.195 253.488 116.195C253.918 116.195 254.295 116.119 254.62 115.966C254.954 115.804 255.321 115.522 255.722 115.121ZM253.388 110.353C252.758 110.353 252.238 110.549 251.827 110.94C251.426 111.322 251.183 111.885 251.097 112.63H255.55C255.531 111.933 255.331 111.379 254.949 110.969C254.567 110.558 254.047 110.353 253.388 110.353Z" fill="#464646"/>
</g>
</g>
<defs>
<filter id="filter0_dd_1840_23820" x="32" y="35" width="280" height="321" filterUnits="userSpaceOnUse" color-interpolation-filters="sRGB">
<feFlood flood-opacity="0" result="BackgroundImageFix"/>
<feColorMatrix in="SourceAlpha" type="matrix" values="0 0 0 0 0 0 0 0 0 0 0 0 0 0 0 0 0 0 127 0" result="hardAlpha"/>
<feOffset dy="3"/>
<feGaussianBlur stdDeviation="3"/>
<feColorMatrix type="matrix" values="0 0 0 0 0.272549 0 0 0 0 0.272549 0 0 0 0 0.272549 0 0 0 0.16 0"/>
<feBlend mode="normal" in2="BackgroundImageFix" result="effect1_dropShadow_1840_23820"/>
<feColorMatrix in="SourceAlpha" type="matrix" values="0 0 0 0 0 0 0 0 0 0 0 0 0 0 0 0 0 0 127 0" result="hardAlpha"/>
<feOffset dy="3"/>
<feGaussianBlur stdDeviation="4"/>
<feColorMatrix type="matrix" values="0 0 0 0 0.272549 0 0 0 0 0.272549 0 0 0 0 0.272549 0 0 0 0.24 0"/>
<feBlend mode="normal" in2="effect1_dropShadow_1840_23820" result="effect2_dropShadow_1840_23820"/>
<feBlend mode="normal" in="SourceGraphic" in2="effect2_dropShadow_1840_23820" result="shape"/>
</filter>
<clipPath id="clip0_1840_23820">
<rect width="344" height="200" fill="white"/>
</clipPath>
</defs>
</svg>
