<svg width="344" height="220" viewBox="0 0 344 220" fill="none" xmlns="http://www.w3.org/2000/svg">
<g clip-path="url(#clip0_1855_23964)">
<rect width="344" height="220" fill="#F5F5F5"/>
<g filter="url(#filter0_dd_1855_23964)">
<rect x="40" y="-170" width="264" height="350" rx="7.15932" fill="white"/>
<path d="M70.8424 32.4575C70.6324 32.4575 70.4618 32.3985 70.3305 32.2803C70.2124 32.1491 70.1533 31.9784 70.1533 31.7684V19.168C70.1533 18.9449 70.2124 18.7743 70.3305 18.6561C70.4618 18.538 70.6324 18.4789 70.8424 18.4789H75.5872C76.8998 18.4789 78.022 18.7743 78.9539 19.3649C79.8989 19.9556 80.6143 20.7825 81.0999 21.8456C81.5987 22.8956 81.8481 24.1032 81.8481 25.4682C81.8481 26.8333 81.5987 28.0474 81.0999 29.1105C80.6143 30.1606 79.8989 30.9809 78.9539 31.5716C78.022 32.1622 76.8998 32.4575 75.5872 32.4575H70.8424ZM75.2525 30.5675C76.5913 30.5675 77.6414 30.1278 78.4026 29.2484C79.177 28.3558 79.5642 27.0958 79.5642 25.4682C79.5642 23.8407 79.177 22.5872 78.4026 21.7078C77.6414 20.8153 76.5913 20.369 75.2525 20.369H72.3978V30.5675H75.2525ZM91.016 29.9768C91.1866 29.8324 91.3507 29.7602 91.5082 29.7602C91.6657 29.7602 91.8297 29.8456 92.0004 30.0162L92.276 30.3115C92.4204 30.4821 92.4926 30.6462 92.4926 30.8037C92.4926 30.9743 92.4073 31.1384 92.2366 31.2959C91.6329 31.8209 91.0291 32.195 90.4253 32.4181C89.8347 32.6413 89.1784 32.7528 88.4565 32.7528C87.4459 32.7528 86.5665 32.5428 85.8183 32.1228C85.0833 31.7028 84.5123 31.1122 84.1054 30.3509C83.7117 29.5765 83.5148 28.684 83.5148 27.6733C83.5148 26.6758 83.7051 25.7832 84.0857 24.9957C84.4795 24.1951 85.0308 23.5716 85.7396 23.1253C86.4614 22.6791 87.3015 22.4559 88.2596 22.4559C89.6903 22.4559 90.7928 22.8825 91.5672 23.7357C92.3416 24.5757 92.7288 25.7373 92.7288 27.2205V27.3977C92.7157 27.6077 92.6501 27.7717 92.532 27.8899C92.4138 28.008 92.2432 28.0671 92.0201 28.0671H85.5624C85.6411 28.9333 85.9233 29.6421 86.4089 30.1934C86.9077 30.7315 87.6034 31.0006 88.4959 31.0006C88.9815 31.0006 89.4081 30.9284 89.7756 30.784C90.1431 30.6265 90.5566 30.3575 91.016 29.9768ZM88.2203 24.1097C87.4984 24.1097 86.9143 24.3263 86.468 24.7595C86.0349 25.1795 85.7527 25.7767 85.6214 26.5511H90.6813C90.6288 25.7898 90.3925 25.1926 89.9725 24.7595C89.5525 24.3263 88.9684 24.1097 88.2203 24.1097ZM95.4086 32.4575C95.1986 32.4575 95.0279 32.3985 94.8967 32.2803C94.7786 32.1491 94.7195 31.9784 94.7195 31.7684V19.168C94.7195 18.9449 94.7786 18.7743 94.8967 18.6561C95.0279 18.538 95.1986 18.4789 95.4086 18.4789H96.1174C96.3405 18.4789 96.5111 18.538 96.6292 18.6561C96.7474 18.7743 96.8064 18.9449 96.8064 19.168V31.7684C96.8064 31.9784 96.7474 32.1491 96.6292 32.2803C96.5111 32.3985 96.3405 32.4575 96.1174 32.4575H95.4086ZM106.244 29.9768C106.414 29.8324 106.578 29.7602 106.736 29.7602C106.893 29.7602 107.057 29.8456 107.228 30.0162L107.504 30.3115C107.648 30.4821 107.72 30.6462 107.72 30.8037C107.72 30.9743 107.635 31.1384 107.464 31.2959C106.86 31.8209 106.257 32.195 105.653 32.4181C105.062 32.6413 104.406 32.7528 103.684 32.7528C102.673 32.7528 101.794 32.5428 101.046 32.1228C100.311 31.7028 99.7399 31.1122 99.333 30.3509C98.9392 29.5765 98.7423 28.684 98.7423 27.6733C98.7423 26.6758 98.9327 25.7832 99.3133 24.9957C99.7071 24.1951 100.258 23.5716 100.967 23.1253C101.689 22.6791 102.529 22.4559 103.487 22.4559C104.918 22.4559 106.02 22.8825 106.795 23.7357C107.569 24.5757 107.956 25.7373 107.956 27.2205V27.3977C107.943 27.6077 107.878 27.7717 107.759 27.8899C107.641 28.008 107.471 28.0671 107.248 28.0671H100.79C100.869 28.9333 101.151 29.6421 101.636 30.1934C102.135 30.7315 102.831 31.0006 103.723 31.0006C104.209 31.0006 104.636 30.9284 105.003 30.784C105.371 30.6265 105.784 30.3575 106.244 29.9768ZM103.448 24.1097C102.726 24.1097 102.142 24.3263 101.696 24.7595C101.262 25.1795 100.98 25.7767 100.849 26.5511H105.909C105.856 25.7898 105.62 25.1926 105.2 24.7595C104.78 24.3263 104.196 24.1097 103.448 24.1097ZM114.439 30.8037C114.478 30.7906 114.537 30.784 114.616 30.784C114.944 30.784 115.141 30.9743 115.207 31.355L115.266 31.67C115.279 31.7094 115.285 31.775 115.285 31.8669C115.285 32.195 115.102 32.405 114.734 32.4969C114.209 32.615 113.73 32.6741 113.297 32.6741C112.365 32.6741 111.689 32.4575 111.269 32.0244C110.862 31.5912 110.659 30.9415 110.659 30.0753V24.346H109.576C109.366 24.346 109.195 24.2869 109.064 24.1688C108.946 24.0376 108.887 23.8669 108.887 23.6569V23.4404C108.887 23.2172 108.946 23.0466 109.064 22.9285C109.195 22.8103 109.366 22.7513 109.576 22.7513H110.659V20.3099C110.659 20.0868 110.718 19.9162 110.836 19.798C110.967 19.6799 111.138 19.6209 111.348 19.6209H112.056C112.28 19.6209 112.45 19.6799 112.568 19.798C112.686 19.9162 112.746 20.0868 112.746 20.3099V22.7513H114.517C114.741 22.7513 114.911 22.8103 115.029 22.9285C115.147 23.0466 115.207 23.2172 115.207 23.4404V23.6569C115.207 23.8669 115.147 24.0376 115.029 24.1688C114.911 24.2869 114.741 24.346 114.517 24.346H112.746V29.8193C112.746 30.1999 112.824 30.469 112.982 30.6265C113.152 30.784 113.421 30.8628 113.789 30.8628C113.946 30.8628 114.163 30.8431 114.439 30.8037ZM123.567 29.9768C123.737 29.8324 123.901 29.7602 124.059 29.7602C124.216 29.7602 124.381 29.8456 124.551 30.0162L124.827 30.3115C124.971 30.4821 125.043 30.6462 125.043 30.8037C125.043 30.9743 124.958 31.1384 124.787 31.2959C124.184 31.8209 123.58 32.195 122.976 32.4181C122.385 32.6413 121.729 32.7528 121.007 32.7528C119.997 32.7528 119.117 32.5428 118.369 32.1228C117.634 31.7028 117.063 31.1122 116.656 30.3509C116.262 29.5765 116.066 28.684 116.066 27.6733C116.066 26.6758 116.256 25.7832 116.637 24.9957C117.03 24.1951 117.582 23.5716 118.29 23.1253C119.012 22.6791 119.852 22.4559 120.81 22.4559C122.241 22.4559 123.344 22.8825 124.118 23.7357C124.892 24.5757 125.28 25.7373 125.28 27.2205V27.3977C125.267 27.6077 125.201 27.7717 125.083 27.8899C124.965 28.008 124.794 28.0671 124.571 28.0671H118.113C118.192 28.9333 118.474 29.6421 118.96 30.1934C119.459 30.7315 120.154 31.0006 121.047 31.0006C121.532 31.0006 121.959 30.9284 122.326 30.784C122.694 30.6265 123.107 30.3575 123.567 29.9768ZM120.771 24.1097C120.049 24.1097 119.465 24.3263 119.019 24.7595C118.586 25.1795 118.303 25.7767 118.172 26.5511H123.232C123.18 25.7898 122.943 25.1926 122.523 24.7595C122.103 24.3263 121.519 24.1097 120.771 24.1097ZM135.867 32.7528C134.909 32.7528 134.062 32.5428 133.327 32.1228C132.605 31.7028 132.041 31.1056 131.634 30.3312C131.24 29.5437 131.043 28.6315 131.043 27.5945C131.043 26.5576 131.247 25.652 131.654 24.8776C132.06 24.1032 132.631 23.506 133.366 23.086C134.101 22.666 134.948 22.4559 135.906 22.4559C136.602 22.4559 137.225 22.5609 137.777 22.771C138.341 22.9678 138.879 23.3091 139.391 23.7947C139.548 23.9522 139.627 24.1163 139.627 24.2869C139.627 24.4444 139.542 24.6085 139.371 24.7791L139.037 25.1138C138.892 25.2582 138.735 25.3304 138.564 25.3304C138.393 25.3304 138.216 25.2517 138.032 25.0942C137.652 24.766 137.291 24.5429 136.95 24.4248C136.621 24.2935 136.267 24.2279 135.886 24.2279C135.02 24.2279 134.351 24.5495 133.878 25.1926C133.406 25.8357 133.169 26.6364 133.169 27.5945C133.169 28.5527 133.406 29.3599 133.878 30.0162C134.351 30.6593 135.02 30.9809 135.886 30.9809C136.306 30.9809 136.694 30.9022 137.048 30.7447C137.402 30.574 137.783 30.2918 138.19 29.8981C138.361 29.7274 138.538 29.6421 138.722 29.6421C138.879 29.6421 139.03 29.7077 139.174 29.839L139.509 30.1146C139.68 30.259 139.765 30.4231 139.765 30.6068C139.765 30.8037 139.667 31.0137 139.47 31.2369C138.932 31.7881 138.374 32.1819 137.796 32.4181C137.232 32.6413 136.589 32.7528 135.867 32.7528ZM145.675 32.7528C144.717 32.7528 143.863 32.5363 143.115 32.1031C142.38 31.67 141.803 31.0662 141.383 30.2918C140.963 29.5043 140.753 28.6052 140.753 27.5945C140.753 26.5839 140.963 25.6914 141.383 24.917C141.803 24.1426 142.38 23.5388 143.115 23.1057C143.863 22.6725 144.717 22.4559 145.675 22.4559C146.62 22.4559 147.466 22.6725 148.214 23.1057C148.963 23.5388 149.547 24.1491 149.967 24.9367C150.387 25.7111 150.597 26.597 150.597 27.5945C150.597 28.6052 150.387 29.5043 149.967 30.2918C149.547 31.0662 148.963 31.67 148.214 32.1031C147.466 32.5363 146.62 32.7528 145.675 32.7528ZM145.675 31.0006C146.515 31.0006 147.191 30.6922 147.703 30.0753C148.214 29.4452 148.47 28.6183 148.47 27.5945C148.47 26.5839 148.214 25.7701 147.703 25.1532C147.191 24.5363 146.515 24.2279 145.675 24.2279C144.835 24.2279 144.159 24.5363 143.647 25.1532C143.135 25.7701 142.879 26.5839 142.879 27.5945C142.879 28.6183 143.135 29.4452 143.647 30.0753C144.159 30.6922 144.835 31.0006 145.675 31.0006ZM157.378 22.4559C158.494 22.4559 159.347 22.771 159.937 23.401C160.541 24.0179 160.843 24.8185 160.843 25.8029V31.7684C160.843 31.9784 160.784 32.1491 160.666 32.2803C160.548 32.3985 160.377 32.4575 160.154 32.4575H159.445C159.235 32.4575 159.065 32.3985 158.933 32.2803C158.815 32.1491 158.756 31.9784 158.756 31.7684V26.4526C158.756 25.7439 158.579 25.1992 158.224 24.8185C157.883 24.4379 157.391 24.2476 156.748 24.2476C156.118 24.2476 155.586 24.4641 155.153 24.8973C154.733 25.3304 154.523 25.8751 154.523 26.5314V31.7684C154.523 31.9784 154.464 32.1491 154.346 32.2803C154.228 32.3985 154.057 32.4575 153.834 32.4575H153.125C152.915 32.4575 152.745 32.3985 152.613 32.2803C152.495 32.1491 152.436 31.9784 152.436 31.7684V23.4404C152.436 23.2172 152.495 23.0466 152.613 22.9285C152.745 22.8103 152.915 22.7513 153.125 22.7513H153.696C153.919 22.7513 154.09 22.8103 154.208 22.9285C154.326 23.0466 154.385 23.2172 154.385 23.4404V23.9522C154.7 23.4666 155.114 23.0991 155.626 22.8497C156.138 22.5872 156.722 22.4559 157.378 22.4559ZM168.918 23.3222C169.036 22.9416 169.292 22.7513 169.686 22.7513H170.414C170.821 22.7513 171.024 22.9153 171.024 23.2435C171.024 23.3353 171.005 23.4338 170.965 23.5388L168.111 31.9063C167.992 32.2738 167.73 32.4575 167.323 32.4575H165.925C165.518 32.4575 165.256 32.2738 165.138 31.9063L162.283 23.5388C162.243 23.4338 162.224 23.3353 162.224 23.2435C162.224 22.9153 162.427 22.7513 162.834 22.7513H163.622C164.015 22.7513 164.271 22.9416 164.389 23.3222L165.295 26.1376C165.886 28.0277 166.339 29.5634 166.654 30.7447C167.074 29.1827 167.526 27.6471 168.012 26.1376L168.918 23.3222ZM179.497 29.9768C179.668 29.8324 179.832 29.7602 179.989 29.7602C180.147 29.7602 180.311 29.8456 180.482 30.0162L180.757 30.3115C180.902 30.4821 180.974 30.6462 180.974 30.8037C180.974 30.9743 180.889 31.1384 180.718 31.2959C180.114 31.8209 179.51 32.195 178.907 32.4181C178.316 32.6413 177.66 32.7528 176.938 32.7528C175.927 32.7528 175.048 32.5428 174.3 32.1228C173.565 31.7028 172.994 31.1122 172.587 30.3509C172.193 29.5765 171.996 28.684 171.996 27.6733C171.996 26.6758 172.186 25.7832 172.567 24.9957C172.961 24.1951 173.512 23.5716 174.221 23.1253C174.943 22.6791 175.783 22.4559 176.741 22.4559C178.172 22.4559 179.274 22.8825 180.048 23.7357C180.823 24.5757 181.21 25.7373 181.21 27.2205V27.3977C181.197 27.6077 181.131 27.7717 181.013 27.8899C180.895 28.008 180.724 28.0671 180.501 28.0671H174.044C174.122 28.9333 174.405 29.6421 174.89 30.1934C175.389 30.7315 176.085 31.0006 176.977 31.0006C177.463 31.0006 177.889 30.9284 178.257 30.784C178.624 30.6265 179.038 30.3575 179.497 29.9768ZM176.702 24.1097C175.98 24.1097 175.396 24.3263 174.949 24.7595C174.516 25.1795 174.234 25.7767 174.103 26.5511H179.163C179.11 25.7898 178.874 25.1926 178.454 24.7595C178.034 24.3263 177.45 24.1097 176.702 24.1097ZM187.493 22.6528C187.782 22.6528 188.077 22.6856 188.379 22.7513C188.733 22.83 188.91 23.04 188.91 23.3813C188.91 23.4732 188.904 23.5388 188.891 23.5782L188.792 24.0507C188.713 24.4182 188.517 24.602 188.202 24.602L188.024 24.5823C187.788 24.5429 187.578 24.5232 187.394 24.5232C186.738 24.5232 186.206 24.7857 185.8 25.3107C185.406 25.8226 185.209 26.538 185.209 27.4567V31.7684C185.209 31.9784 185.15 32.1491 185.032 32.2803C184.914 32.3985 184.743 32.4575 184.52 32.4575H183.811C183.601 32.4575 183.43 32.3985 183.299 32.2803C183.181 32.1491 183.122 31.9784 183.122 31.7684V23.4404C183.122 23.2172 183.181 23.0466 183.299 22.9285C183.43 22.8103 183.601 22.7513 183.811 22.7513H184.382C184.605 22.7513 184.776 22.8103 184.894 22.9285C185.012 23.0466 185.071 23.2172 185.071 23.4404V24.2082C185.307 23.7225 185.629 23.3419 186.036 23.0663C186.443 22.7906 186.928 22.6528 187.493 22.6528ZM193.9 32.7528C193.099 32.7528 192.384 32.6544 191.754 32.4575C191.137 32.2475 190.507 31.8866 189.864 31.3747C189.667 31.2303 189.568 31.0662 189.568 30.8825C189.568 30.7381 189.641 30.5806 189.785 30.41L190.08 30.0753C190.238 29.8915 190.408 29.7996 190.592 29.7996C190.736 29.7996 190.894 29.8652 191.065 29.9965C191.616 30.4034 192.102 30.6856 192.522 30.8431C192.942 30.9875 193.414 31.0597 193.939 31.0597C194.503 31.0597 194.963 30.9481 195.317 30.725C195.685 30.4887 195.869 30.1737 195.869 29.7799C195.869 29.478 195.764 29.2418 195.554 29.0712C195.357 28.8874 195.094 28.7496 194.766 28.6577C194.438 28.5527 193.952 28.4346 193.309 28.3033C192.403 28.1064 191.695 27.8964 191.183 27.6733C190.684 27.437 190.323 27.1417 190.1 26.7873C189.877 26.4329 189.765 25.9801 189.765 25.4289C189.765 24.8645 189.923 24.3591 190.238 23.9129C190.566 23.4666 191.019 23.1122 191.596 22.8497C192.187 22.5872 192.876 22.4559 193.663 22.4559C194.372 22.4559 195.002 22.5347 195.554 22.6922C196.118 22.8497 196.669 23.1188 197.207 23.4994C197.417 23.6569 197.522 23.8341 197.522 24.031C197.522 24.1623 197.457 24.3132 197.325 24.4838L197.069 24.7988C196.925 24.9826 196.748 25.0745 196.538 25.0745C196.38 25.0745 196.229 25.022 196.085 24.917C195.652 24.6282 195.252 24.4313 194.884 24.3263C194.517 24.2082 194.103 24.1491 193.644 24.1491C193.079 24.1491 192.627 24.2607 192.285 24.4838C191.944 24.707 191.773 24.9957 191.773 25.3501C191.773 25.5864 191.852 25.7767 192.01 25.9211C192.18 26.0523 192.417 26.1704 192.718 26.2754C193.033 26.3673 193.526 26.4855 194.195 26.6298C195.101 26.8267 195.816 27.0498 196.341 27.2992C196.879 27.5355 197.273 27.8439 197.522 28.2246C197.785 28.5921 197.916 29.0712 197.916 29.6618C197.916 30.5806 197.549 31.3287 196.814 31.9063C196.092 32.4706 195.12 32.7528 193.9 32.7528ZM203.887 22.4559C205.199 22.4559 206.21 22.7644 206.919 23.3813C207.627 23.9851 207.982 24.7923 207.982 25.8029V31.7684C207.982 31.9784 207.923 32.1491 207.805 32.2803C207.686 32.3985 207.516 32.4575 207.293 32.4575H206.781C206.571 32.4575 206.4 32.3985 206.269 32.2803C206.151 32.1491 206.092 31.9784 206.092 31.7684V31.3353C205.777 31.7947 205.344 32.1491 204.792 32.3985C204.241 32.6478 203.598 32.7725 202.863 32.7725C201.852 32.7725 201.019 32.5494 200.362 32.1031C199.719 31.6437 199.398 30.9547 199.398 30.0359C199.398 29.0121 199.778 28.2574 200.54 27.7717C201.314 27.273 202.384 26.8989 203.749 26.6495L205.974 26.2361V25.8817C205.974 25.3435 205.783 24.9301 205.403 24.6413C205.035 24.3394 204.543 24.1885 203.926 24.1885C203.401 24.1885 202.942 24.2804 202.548 24.4641C202.167 24.6348 201.754 24.9235 201.308 25.3304C201.137 25.4748 200.973 25.547 200.815 25.547C200.658 25.547 200.494 25.4748 200.323 25.3304L200.008 25.0548C199.837 24.8973 199.752 24.7266 199.752 24.5429C199.752 24.3723 199.831 24.2082 199.988 24.0507C200.553 23.5125 201.15 23.1122 201.78 22.8497C202.41 22.5872 203.112 22.4559 203.887 22.4559ZM203.158 31.099C203.946 31.099 204.609 30.889 205.147 30.469C205.698 30.049 205.974 29.4452 205.974 28.6577V27.7521L204.261 28.1064C203.303 28.3033 202.594 28.5265 202.134 28.7758C201.675 29.0252 201.445 29.4059 201.445 29.9177C201.445 30.2853 201.596 30.574 201.898 30.784C202.2 30.994 202.62 31.099 203.158 31.099ZM214.841 30.8037C214.88 30.7906 214.939 30.784 215.018 30.784C215.346 30.784 215.543 30.9743 215.608 31.355L215.667 31.67C215.681 31.7094 215.687 31.775 215.687 31.8669C215.687 32.195 215.503 32.405 215.136 32.4969C214.611 32.615 214.132 32.6741 213.699 32.6741C212.767 32.6741 212.091 32.4575 211.671 32.0244C211.264 31.5912 211.06 30.9415 211.06 30.0753V24.346H209.978C209.768 24.346 209.597 24.2869 209.466 24.1688C209.348 24.0376 209.288 23.8669 209.288 23.6569V23.4404C209.288 23.2172 209.348 23.0466 209.466 22.9285C209.597 22.8103 209.768 22.7513 209.978 22.7513H211.06V20.3099C211.06 20.0868 211.119 19.9162 211.238 19.798C211.369 19.6799 211.539 19.6209 211.749 19.6209H212.458C212.681 19.6209 212.852 19.6799 212.97 19.798C213.088 19.9162 213.147 20.0868 213.147 20.3099V22.7513H214.919C215.142 22.7513 215.313 22.8103 215.431 22.9285C215.549 23.0466 215.608 23.2172 215.608 23.4404V23.6569C215.608 23.8669 215.549 24.0376 215.431 24.1688C215.313 24.2869 215.142 24.346 214.919 24.346H213.147V29.8193C213.147 30.1999 213.226 30.469 213.384 30.6265C213.554 30.784 213.823 30.8628 214.191 30.8628C214.348 30.8628 214.565 30.8431 214.841 30.8037ZM218.389 20.8612C218.009 20.8612 217.687 20.7365 217.425 20.4871C217.162 20.2246 217.031 19.9162 217.031 19.5618C217.031 19.1943 217.162 18.8858 217.425 18.6364C217.687 18.3871 218.009 18.2624 218.389 18.2624C218.77 18.2624 219.092 18.3871 219.354 18.6364C219.617 18.8858 219.748 19.1943 219.748 19.5618C219.748 19.9162 219.617 20.2246 219.354 20.4871C219.092 20.7365 218.77 20.8612 218.389 20.8612ZM218.015 32.4575C217.805 32.4575 217.635 32.3985 217.503 32.2803C217.385 32.1491 217.326 31.9784 217.326 31.7684V23.4404C217.326 23.2172 217.385 23.0466 217.503 22.9285C217.635 22.8103 217.805 22.7513 218.015 22.7513H218.724C218.947 22.7513 219.118 22.8103 219.236 22.9285C219.354 23.0466 219.413 23.2172 219.413 23.4404V31.7684C219.413 31.9784 219.354 32.1491 219.236 32.2803C219.118 32.3985 218.947 32.4575 218.724 32.4575H218.015ZM226.196 32.7528C225.238 32.7528 224.385 32.5363 223.637 32.1031C222.902 31.67 222.324 31.0662 221.904 30.2918C221.484 29.5043 221.274 28.6052 221.274 27.5945C221.274 26.5839 221.484 25.6914 221.904 24.917C222.324 24.1426 222.902 23.5388 223.637 23.1057C224.385 22.6725 225.238 22.4559 226.196 22.4559C227.141 22.4559 227.988 22.6725 228.736 23.1057C229.484 23.5388 230.068 24.1491 230.488 24.9367C230.908 25.7111 231.118 26.597 231.118 27.5945C231.118 28.6052 230.908 29.5043 230.488 30.2918C230.068 31.0662 229.484 31.67 228.736 32.1031C227.988 32.5363 227.141 32.7528 226.196 32.7528ZM226.196 31.0006C227.036 31.0006 227.712 30.6922 228.224 30.0753C228.736 29.4452 228.992 28.6183 228.992 27.5945C228.992 26.5839 228.736 25.7701 228.224 25.1532C227.712 24.5363 227.036 24.2279 226.196 24.2279C225.356 24.2279 224.68 24.5363 224.168 25.1532C223.656 25.7701 223.4 26.5839 223.4 27.5945C223.4 28.6183 223.656 29.4452 224.168 30.0753C224.68 30.6922 225.356 31.0006 226.196 31.0006ZM237.899 22.4559C239.015 22.4559 239.868 22.771 240.459 23.401C241.063 24.0179 241.364 24.8185 241.364 25.8029V31.7684C241.364 31.9784 241.305 32.1491 241.187 32.2803C241.069 32.3985 240.898 32.4575 240.675 32.4575H239.967C239.757 32.4575 239.586 32.3985 239.455 32.2803C239.337 32.1491 239.277 31.9784 239.277 31.7684V26.4526C239.277 25.7439 239.1 25.1992 238.746 24.8185C238.405 24.4379 237.912 24.2476 237.269 24.2476C236.639 24.2476 236.108 24.4641 235.675 24.8973C235.255 25.3304 235.045 25.8751 235.045 26.5314V31.7684C235.045 31.9784 234.985 32.1491 234.867 32.2803C234.749 32.3985 234.579 32.4575 234.355 32.4575H233.647C233.437 32.4575 233.266 32.3985 233.135 32.2803C233.017 32.1491 232.958 31.9784 232.958 31.7684V23.4404C232.958 23.2172 233.017 23.0466 233.135 22.9285C233.266 22.8103 233.437 22.7513 233.647 22.7513H234.218C234.441 22.7513 234.611 22.8103 234.73 22.9285C234.848 23.0466 234.907 23.2172 234.907 23.4404V23.9522C235.222 23.4666 235.635 23.0991 236.147 22.8497C236.659 22.5872 237.243 22.4559 237.899 22.4559Z" fill="#464646"/>
<path d="M72.6609 61.6169C72.47 61.6169 72.3745 61.5215 72.3745 61.3306V52.2955H69.3819C69.191 52.2955 69.0955 52.2 69.0955 52.0091V51.7371C69.0955 51.5462 69.191 51.4507 69.3819 51.4507H76.3694C76.5603 51.4507 76.6558 51.5462 76.6558 51.7371V52.0091C76.6558 52.2 76.5603 52.2955 76.3694 52.2955H73.3911V61.3306C73.3911 61.5215 73.2957 61.6169 73.1047 61.6169H72.6609ZM81.3207 54.386C82.1417 54.386 82.7669 54.6199 83.1965 55.0876C83.626 55.5458 83.8408 56.1138 83.8408 56.7916V61.3306C83.8408 61.5215 83.7454 61.6169 83.5544 61.6169H83.1822C82.9912 61.6169 82.8958 61.5215 82.8958 61.3306V57.1066C82.8958 56.4766 82.7431 55.9993 82.4376 55.6747C82.1321 55.3501 81.693 55.1879 81.1203 55.1879C80.7575 55.1879 80.4234 55.2786 80.118 55.4599C79.8125 55.6318 79.5691 55.8704 79.3877 56.1759C79.2064 56.4813 79.1157 56.8154 79.1157 57.1782V61.3306C79.1157 61.5215 79.0202 61.6169 78.8293 61.6169H78.457C78.2661 61.6169 78.1706 61.5215 78.1706 61.3306V51.7371C78.1706 51.5462 78.2661 51.4507 78.457 51.4507H78.8293C79.0202 51.4507 79.1157 51.5462 79.1157 51.7371V55.4742C79.3448 55.1115 79.6502 54.8395 80.0321 54.6581C80.4234 54.4767 80.853 54.386 81.3207 54.386ZM91.0716 59.9417C91.1384 59.8748 91.21 59.8414 91.2864 59.8414C91.3532 59.8414 91.4153 59.8701 91.4725 59.9273L91.6587 60.0992C91.7255 60.166 91.7589 60.2376 91.7589 60.3139C91.7589 60.3712 91.7303 60.438 91.673 60.5144C91.2053 60.9822 90.7518 61.3163 90.3127 61.5167C89.8736 61.7076 89.382 61.8031 88.8379 61.8031C88.1506 61.8031 87.554 61.6504 87.0481 61.3449C86.5422 61.0394 86.1508 60.6146 85.874 60.0705C85.5971 59.5169 85.4587 58.8773 85.4587 58.1518C85.4587 57.4168 85.5924 56.7677 85.8596 56.2045C86.1365 55.6318 86.5231 55.1879 87.0194 54.8729C87.5158 54.5483 88.0886 54.386 88.7377 54.386C89.7018 54.386 90.4607 54.6867 91.0143 55.2881C91.568 55.8895 91.8448 56.7009 91.8448 57.7223V57.8941C91.8353 57.98 91.8019 58.0468 91.7446 58.0946C91.6969 58.1423 91.6301 58.1662 91.5441 58.1662H86.4181C86.4467 58.968 86.6567 59.6457 87.0481 60.1994C87.449 60.7435 88.0456 61.0156 88.8379 61.0156C89.2675 61.0156 89.6445 60.9392 89.9691 60.7865C90.3032 60.6242 90.6707 60.3426 91.0716 59.9417ZM88.7377 55.1736C88.1077 55.1736 87.5874 55.3692 87.177 55.7606C86.776 56.1424 86.5326 56.7056 86.4467 57.4502H90.8998C90.8807 56.7534 90.6802 56.1997 90.2984 55.7893C89.9166 55.3788 89.3963 55.1736 88.7377 55.1736ZM99.759 61.8031C99.1004 61.8031 98.5133 61.6456 97.9978 61.3306C97.4823 61.0156 97.0814 60.5812 96.7951 60.0276C96.5087 59.4644 96.3655 58.82 96.3655 58.0946C96.3655 57.3691 96.5087 56.7295 96.7951 56.1759C97.0814 55.6127 97.4823 55.1736 97.9978 54.8585C98.5133 54.5435 99.1004 54.386 99.759 54.386C100.418 54.386 101.005 54.5435 101.52 54.8585C102.036 55.1736 102.437 55.6127 102.723 56.1759C103.009 56.7295 103.153 57.3691 103.153 58.0946C103.153 58.82 103.009 59.4644 102.723 60.0276C102.437 60.5812 102.036 61.0156 101.52 61.3306C101.005 61.6456 100.418 61.8031 99.759 61.8031ZM99.759 61.0156C100.494 61.0156 101.081 60.7483 101.52 60.2137C101.959 59.6696 102.179 58.9632 102.179 58.0946C102.179 57.2259 101.959 56.5243 101.52 55.9897C101.081 55.4456 100.494 55.1736 99.759 55.1736C99.024 55.1736 98.4369 55.4456 97.9978 55.9897C97.5587 56.5243 97.3392 57.2259 97.3392 58.0946C97.3392 58.9632 97.5587 59.6696 97.9978 60.2137C98.4369 60.7483 99.024 61.0156 99.759 61.0156ZM107.429 54.5006C107.668 54.5006 107.949 54.5388 108.274 54.6151C108.446 54.6724 108.512 54.7917 108.474 54.9731L108.417 55.2022C108.369 55.3836 108.25 55.4504 108.059 55.4027C107.83 55.3454 107.62 55.3167 107.429 55.3167C106.942 55.3167 106.536 55.5267 106.212 55.9468C105.897 56.3668 105.739 56.9491 105.739 57.6936V61.3306C105.739 61.5215 105.644 61.6169 105.453 61.6169H105.081C104.89 61.6169 104.794 61.5215 104.794 61.3306V54.8442C104.794 54.6533 104.89 54.5579 105.081 54.5579H105.396C105.587 54.5579 105.682 54.6533 105.682 54.8442V55.6318C105.844 55.2786 106.073 55.0017 106.369 54.8013C106.675 54.6008 107.028 54.5006 107.429 54.5006ZM110.231 52.768C110.04 52.768 109.878 52.7012 109.744 52.5676C109.62 52.4339 109.558 52.2716 109.558 52.0807C109.558 51.8898 109.62 51.7323 109.744 51.6082C109.878 51.4841 110.04 51.4221 110.231 51.4221C110.431 51.4221 110.594 51.4841 110.718 51.6082C110.851 51.7323 110.918 51.8898 110.918 52.0807C110.918 52.2716 110.851 52.4339 110.718 52.5676C110.594 52.7012 110.431 52.768 110.231 52.768ZM110.045 61.6169C109.854 61.6169 109.758 61.5215 109.758 61.3306V54.8442C109.758 54.6533 109.854 54.5579 110.045 54.5579H110.417C110.608 54.5579 110.703 54.6533 110.703 54.8442V61.3306C110.703 61.5215 110.608 61.6169 110.417 61.6169H110.045ZM117.875 54.8442C117.875 54.6533 117.971 54.5579 118.162 54.5579H118.463C118.653 54.5579 118.749 54.6533 118.749 54.8442V61.5454C118.749 62.4331 118.482 63.1299 117.947 63.6359C117.412 64.1513 116.663 64.4091 115.699 64.4091C114.659 64.4091 113.699 64.1132 112.821 63.5213C112.726 63.464 112.678 63.3925 112.678 63.3065C112.678 63.2397 112.697 63.1824 112.735 63.1347L112.907 62.8913C112.964 62.7958 113.041 62.7481 113.136 62.7481C113.174 62.7481 113.231 62.7672 113.308 62.8054C113.728 63.0727 114.119 63.2731 114.482 63.4068C114.854 63.5404 115.26 63.6072 115.699 63.6072C116.329 63.6072 116.84 63.4306 117.231 63.0774C117.622 62.7338 117.818 62.1992 117.818 61.4738V60.3283C117.303 61.1587 116.52 61.574 115.47 61.574C114.859 61.574 114.32 61.4213 113.852 61.1158C113.384 60.8008 113.021 60.3712 112.764 59.8271C112.516 59.283 112.391 58.6673 112.391 57.98C112.391 57.2927 112.516 56.677 112.764 56.1329C113.021 55.5888 113.384 55.164 113.852 54.8585C114.32 54.5435 114.859 54.386 115.47 54.386C116.024 54.386 116.501 54.5054 116.902 54.744C117.312 54.9731 117.637 55.3024 117.875 55.732V54.8442ZM115.57 60.7721C116.257 60.7721 116.806 60.5144 117.217 59.9989C117.627 59.4739 117.832 58.8009 117.832 57.98C117.832 57.1591 117.627 56.4909 117.217 55.9754C116.806 55.4504 116.257 55.1879 115.57 55.1879C114.873 55.1879 114.329 55.4456 113.938 55.9611C113.556 56.4766 113.365 57.1495 113.365 57.98C113.365 58.8105 113.556 59.4835 113.938 59.9989C114.329 60.5144 114.873 60.7721 115.57 60.7721ZM121.347 52.768C121.156 52.768 120.994 52.7012 120.861 52.5676C120.736 52.4339 120.674 52.2716 120.674 52.0807C120.674 51.8898 120.736 51.7323 120.861 51.6082C120.994 51.4841 121.156 51.4221 121.347 51.4221C121.548 51.4221 121.71 51.4841 121.834 51.6082C121.968 51.7323 122.035 51.8898 122.035 52.0807C122.035 52.2716 121.968 52.4339 121.834 52.5676C121.71 52.7012 121.548 52.768 121.347 52.768ZM121.161 61.6169C120.97 61.6169 120.875 61.5215 120.875 61.3306V54.8442C120.875 54.6533 120.97 54.5579 121.161 54.5579H121.534C121.724 54.5579 121.82 54.6533 121.82 54.8442V61.3306C121.82 61.5215 121.724 61.6169 121.534 61.6169H121.161ZM127.073 54.386C127.904 54.386 128.529 54.6151 128.949 55.0733C129.379 55.5315 129.593 56.1043 129.593 56.7916V61.3306C129.593 61.5215 129.498 61.6169 129.307 61.6169H128.935C128.744 61.6169 128.648 61.5215 128.648 61.3306V57.1066C128.648 56.4766 128.496 55.9993 128.19 55.6747C127.885 55.3501 127.446 55.1879 126.873 55.1879C126.51 55.1879 126.176 55.2786 125.871 55.4599C125.565 55.6318 125.322 55.8704 125.14 56.1759C124.959 56.4813 124.868 56.8154 124.868 57.1782V61.3306C124.868 61.5215 124.773 61.6169 124.582 61.6169H124.21C124.019 61.6169 123.923 61.5215 123.923 61.3306V54.8442C123.923 54.6533 124.019 54.5579 124.21 54.5579H124.525C124.715 54.5579 124.811 54.6533 124.811 54.8442V55.5315C125.05 55.1497 125.365 54.8633 125.756 54.6724C126.147 54.4815 126.586 54.386 127.073 54.386ZM134.404 54.386C135.273 54.386 135.951 54.596 136.438 55.016C136.924 55.4265 137.168 55.9706 137.168 56.6484V61.3306C137.168 61.5215 137.072 61.6169 136.881 61.6169H136.595C136.404 61.6169 136.309 61.5215 136.309 61.3306V60.6862C136.07 61.0681 135.731 61.3544 135.292 61.5454C134.863 61.7363 134.38 61.8317 133.846 61.8317C133.101 61.8317 132.495 61.6742 132.027 61.3592C131.56 61.0442 131.326 60.5574 131.326 59.8987C131.326 59.3737 131.474 58.9537 131.77 58.6387C132.066 58.3141 132.452 58.0707 132.929 57.9084C133.407 57.7366 134.003 57.5839 134.719 57.4502L136.266 57.1782V56.72C136.266 56.2331 136.099 55.8561 135.765 55.5888C135.43 55.312 134.991 55.1736 134.447 55.1736C134.037 55.1736 133.665 55.2499 133.33 55.4027C132.996 55.5554 132.638 55.8179 132.257 56.1902C132.19 56.257 132.118 56.2904 132.042 56.2904C131.975 56.2904 131.913 56.2618 131.856 56.2045L131.669 56.0327C131.603 55.9659 131.569 55.8943 131.569 55.8179C131.569 55.732 131.603 55.6556 131.669 55.5888C132.07 55.1688 132.49 54.8633 132.929 54.6724C133.378 54.4815 133.87 54.386 134.404 54.386ZM133.889 61.0442C134.576 61.0442 135.144 60.8628 135.593 60.5001C136.041 60.1374 136.266 59.6744 136.266 59.1112V57.9084L134.934 58.1662C134.314 58.2902 133.822 58.4096 133.459 58.5241C133.097 58.6387 132.805 58.8057 132.586 59.0253C132.366 59.2448 132.257 59.5312 132.257 59.8844C132.257 60.2471 132.4 60.5335 132.686 60.7435C132.982 60.944 133.383 61.0442 133.889 61.0442ZM139.563 61.6169C139.372 61.6169 139.277 61.5215 139.277 61.3306V51.7371C139.277 51.5462 139.372 51.4507 139.563 51.4507H139.936C140.126 51.4507 140.222 51.5462 140.222 51.7371V61.3306C140.222 61.5215 140.126 61.6169 139.936 61.6169H139.563ZM149.032 54.4003C149.624 54.4003 150.154 54.5579 150.621 54.8729C151.099 55.1783 151.471 55.6127 151.738 56.1759C152.006 56.7295 152.139 57.3643 152.139 58.0802C152.139 58.8057 152.006 59.4501 151.738 60.0133C151.471 60.5765 151.103 61.0156 150.636 61.3306C150.168 61.636 149.633 61.7888 149.032 61.7888C147.925 61.7888 147.113 61.3831 146.598 60.5717V63.9652C146.598 64.1561 146.502 64.2516 146.311 64.2516H145.939C145.748 64.2516 145.653 64.1561 145.653 63.9652V54.8442C145.653 54.6533 145.748 54.5579 145.939 54.5579H146.254C146.445 54.5579 146.541 54.6533 146.541 54.8442V55.7463C146.798 55.3072 147.137 54.9731 147.557 54.744C147.977 54.5149 148.469 54.4003 149.032 54.4003ZM148.96 60.9869C149.629 60.9869 150.163 60.7196 150.564 60.1851C150.965 59.6505 151.166 58.9489 151.166 58.0802C151.166 57.2211 150.965 56.5291 150.564 56.004C150.163 55.4695 149.629 55.2022 148.96 55.2022C148.245 55.2022 147.662 55.4599 147.214 55.9754C146.774 56.4813 146.555 57.1829 146.555 58.0802C146.555 58.9775 146.779 59.6887 147.228 60.2137C147.677 60.7292 148.254 60.9869 148.96 60.9869ZM156.824 61.8031C156.165 61.8031 155.578 61.6456 155.063 61.3306C154.547 61.0156 154.146 60.5812 153.86 60.0276C153.574 59.4644 153.43 58.82 153.43 58.0946C153.43 57.3691 153.574 56.7295 153.86 56.1759C154.146 55.6127 154.547 55.1736 155.063 54.8585C155.578 54.5435 156.165 54.386 156.824 54.386C157.483 54.386 158.07 54.5435 158.585 54.8585C159.101 55.1736 159.501 55.6127 159.788 56.1759C160.074 56.7295 160.217 57.3691 160.217 58.0946C160.217 58.82 160.074 59.4644 159.788 60.0276C159.501 60.5812 159.101 61.0156 158.585 61.3306C158.07 61.6456 157.483 61.8031 156.824 61.8031ZM156.824 61.0156C157.559 61.0156 158.146 60.7483 158.585 60.2137C159.024 59.6696 159.244 58.9632 159.244 58.0946C159.244 57.2259 159.024 56.5243 158.585 55.9897C158.146 55.4456 157.559 55.1736 156.824 55.1736C156.089 55.1736 155.502 55.4456 155.063 55.9897C154.624 56.5243 154.404 57.2259 154.404 58.0946C154.404 58.9632 154.624 59.6696 155.063 60.2137C155.502 60.7483 156.089 61.0156 156.824 61.0156ZM164.322 61.8031C163.74 61.8031 163.224 61.7219 162.776 61.5597C162.336 61.3878 161.874 61.1015 161.387 60.7006C161.301 60.6433 161.258 60.5765 161.258 60.5001C161.258 60.4333 161.291 60.3664 161.358 60.2996L161.544 60.0992C161.601 60.0228 161.673 59.9846 161.759 59.9846C161.826 59.9846 161.888 60.0133 161.945 60.0705C162.403 60.4237 162.809 60.6719 163.162 60.8151C163.515 60.9487 163.902 61.0156 164.322 61.0156C164.847 61.0156 165.277 60.901 165.611 60.6719C165.945 60.4333 166.112 60.1135 166.112 59.7126C166.112 59.3116 165.94 59.0157 165.596 58.8248C165.253 58.6339 164.723 58.4621 164.007 58.3093C163.377 58.1757 162.881 58.0373 162.518 57.8941C162.165 57.7414 161.902 57.5504 161.73 57.3214C161.559 57.0923 161.473 56.7916 161.473 56.4193C161.473 55.8083 161.721 55.3167 162.217 54.9445C162.714 54.5722 163.339 54.386 164.093 54.386C164.608 54.386 165.067 54.4528 165.467 54.5865C165.878 54.7106 166.288 54.9206 166.699 55.2165C166.785 55.2833 166.828 55.3549 166.828 55.4313C166.828 55.479 166.804 55.5411 166.756 55.6174L166.584 55.8322C166.537 55.9086 166.47 55.9468 166.384 55.9468C166.308 55.9468 166.241 55.9229 166.183 55.8752C165.792 55.5983 165.444 55.4122 165.138 55.3167C164.842 55.2213 164.503 55.1736 164.122 55.1736C163.597 55.1736 163.177 55.2881 162.861 55.5172C162.546 55.7463 162.389 56.0374 162.389 56.3906C162.389 56.6102 162.461 56.7868 162.604 56.9204C162.747 57.0541 162.952 57.1686 163.219 57.2641C163.487 57.35 163.878 57.4502 164.394 57.5648C165.348 57.7748 166.026 58.0325 166.427 58.338C166.837 58.6434 167.043 59.0873 167.043 59.6696C167.043 60.3092 166.79 60.8246 166.284 61.216C165.778 61.6074 165.124 61.8031 164.322 61.8031ZM171.792 60.8294C171.82 60.8199 171.859 60.8151 171.906 60.8151C171.964 60.8151 172.016 60.8342 172.064 60.8724C172.112 60.9106 172.14 60.9631 172.15 61.0299L172.193 61.2303C172.202 61.2494 172.207 61.2828 172.207 61.3306C172.207 61.4642 172.135 61.5454 171.992 61.574C171.649 61.679 171.281 61.7315 170.89 61.7315C170.269 61.7315 169.825 61.5931 169.558 61.3163C169.3 61.0299 169.171 60.6194 169.171 60.0848V55.2738H168.112C167.921 55.2738 167.825 55.1783 167.825 54.9874V54.8442C167.825 54.6533 167.921 54.5579 168.112 54.5579H169.171V52.3814C169.171 52.1905 169.267 52.095 169.458 52.095H169.83C170.021 52.095 170.116 52.1905 170.116 52.3814V54.5579H171.835C172.026 54.5579 172.121 54.6533 172.121 54.8442V54.9874C172.121 55.1783 172.026 55.2738 171.835 55.2738H170.116V59.9703C170.116 60.3235 170.183 60.5717 170.317 60.7149C170.451 60.8581 170.68 60.9296 171.004 60.9296C171.233 60.9296 171.496 60.8962 171.792 60.8294ZM179.584 54.386C180.452 54.386 181.13 54.596 181.617 55.016C182.104 55.4265 182.347 55.9706 182.347 56.6484V61.3306C182.347 61.5215 182.252 61.6169 182.061 61.6169H181.774C181.583 61.6169 181.488 61.5215 181.488 61.3306V60.6862C181.249 61.0681 180.91 61.3544 180.471 61.5454C180.042 61.7363 179.56 61.8317 179.025 61.8317C178.281 61.8317 177.674 61.6742 177.207 61.3592C176.739 61.0442 176.505 60.5574 176.505 59.8987C176.505 59.3737 176.653 58.9537 176.949 58.6387C177.245 58.3141 177.631 58.0707 178.109 57.9084C178.586 57.7366 179.183 57.5839 179.899 57.4502L181.445 57.1782V56.72C181.445 56.2331 181.278 55.8561 180.944 55.5888C180.61 55.312 180.171 55.1736 179.627 55.1736C179.216 55.1736 178.844 55.2499 178.51 55.4027C178.176 55.5554 177.818 55.8179 177.436 56.1902C177.369 56.257 177.297 56.2904 177.221 56.2904C177.154 56.2904 177.092 56.2618 177.035 56.2045L176.849 56.0327C176.782 55.9659 176.748 55.8943 176.748 55.8179C176.748 55.732 176.782 55.6556 176.849 55.5888C177.25 55.1688 177.67 54.8633 178.109 54.6724C178.557 54.4815 179.049 54.386 179.584 54.386ZM179.068 61.0442C179.755 61.0442 180.323 60.8628 180.772 60.5001C181.221 60.1374 181.445 59.6744 181.445 59.1112V57.9084L180.113 58.1662C179.493 58.2902 179.001 58.4096 178.639 58.5241C178.276 58.6387 177.985 58.8057 177.765 59.0253C177.546 59.2448 177.436 59.5312 177.436 59.8844C177.436 60.2471 177.579 60.5335 177.865 60.7435C178.161 60.944 178.562 61.0442 179.068 61.0442ZM187.592 54.386C188.422 54.386 189.048 54.6151 189.468 55.0733C189.897 55.5315 190.112 56.1043 190.112 56.7916V61.3306C190.112 61.5215 190.017 61.6169 189.826 61.6169H189.453C189.262 61.6169 189.167 61.5215 189.167 61.3306V57.1066C189.167 56.4766 189.014 55.9993 188.709 55.6747C188.403 55.3501 187.964 55.1879 187.391 55.1879C187.029 55.1879 186.695 55.2786 186.389 55.4599C186.084 55.6318 185.84 55.8704 185.659 56.1759C185.478 56.4813 185.387 56.8154 185.387 57.1782V61.3306C185.387 61.5215 185.291 61.6169 185.1 61.6169H184.728C184.537 61.6169 184.442 61.5215 184.442 61.3306V54.8442C184.442 54.6533 184.537 54.5579 184.728 54.5579H185.043C185.234 54.5579 185.33 54.6533 185.33 54.8442V55.5315C185.568 55.1497 185.883 54.8633 186.275 54.6724C186.666 54.4815 187.105 54.386 187.592 54.386ZM197.3 51.7371C197.3 51.5462 197.395 51.4507 197.586 51.4507H197.959C198.149 51.4507 198.245 51.5462 198.245 51.7371V61.3306C198.245 61.5215 198.149 61.6169 197.959 61.6169H197.658C197.467 61.6169 197.371 61.5215 197.371 61.3306V60.3999C197.114 60.8485 196.775 61.1922 196.355 61.4308C195.935 61.6694 195.438 61.7888 194.866 61.7888C194.264 61.7888 193.73 61.636 193.262 61.3306C192.794 61.0156 192.427 60.5812 192.159 60.0276C191.892 59.4644 191.759 58.82 191.759 58.0946C191.759 57.3691 191.892 56.7295 192.159 56.1759C192.436 55.6127 192.813 55.1783 193.291 54.8729C193.768 54.5579 194.302 54.4003 194.894 54.4003C195.983 54.4003 196.784 54.806 197.3 55.6174V51.7371ZM194.937 60.9869C195.653 60.9869 196.231 60.734 196.67 60.228C197.118 59.7126 197.343 59.0014 197.343 58.0946C197.343 57.1973 197.118 56.4909 196.67 55.9754C196.231 55.4599 195.653 55.2022 194.937 55.2022C194.279 55.2022 193.744 55.4695 193.334 56.004C192.933 56.5386 192.732 57.2354 192.732 58.0946C192.732 58.9632 192.933 59.6648 193.334 60.1994C193.735 60.7244 194.269 60.9869 194.937 60.9869ZM206.389 54.386C207.258 54.386 207.935 54.596 208.422 55.016C208.909 55.4265 209.153 55.9706 209.153 56.6484V61.3306C209.153 61.5215 209.057 61.6169 208.866 61.6169H208.58C208.389 61.6169 208.293 61.5215 208.293 61.3306V60.6862C208.055 61.0681 207.716 61.3544 207.277 61.5454C206.847 61.7363 206.365 61.8317 205.831 61.8317C205.086 61.8317 204.48 61.6742 204.012 61.3592C203.544 61.0442 203.311 60.5574 203.311 59.8987C203.311 59.3737 203.459 58.9537 203.754 58.6387C204.05 58.3141 204.437 58.0707 204.914 57.9084C205.392 57.7366 205.988 57.5839 206.704 57.4502L208.25 57.1782V56.72C208.25 56.2331 208.083 55.8561 207.749 55.5888C207.415 55.312 206.976 55.1736 206.432 55.1736C206.022 55.1736 205.649 55.2499 205.315 55.4027C204.981 55.5554 204.623 55.8179 204.241 56.1902C204.174 56.257 204.103 56.2904 204.026 56.2904C203.96 56.2904 203.898 56.2618 203.84 56.2045L203.654 56.0327C203.587 55.9659 203.554 55.8943 203.554 55.8179C203.554 55.732 203.587 55.6556 203.654 55.5888C204.055 55.1688 204.475 54.8633 204.914 54.6724C205.363 54.4815 205.854 54.386 206.389 54.386ZM205.874 61.0442C206.561 61.0442 207.129 60.8628 207.578 60.5001C208.026 60.1374 208.25 59.6744 208.25 59.1112V57.9084L206.919 58.1662C206.298 58.2902 205.807 58.4096 205.444 58.5241C205.081 58.6387 204.79 58.8057 204.571 59.0253C204.351 59.2448 204.241 59.5312 204.241 59.8844C204.241 60.2471 204.384 60.5335 204.671 60.7435C204.967 60.944 205.368 61.0442 205.874 61.0442ZM211.548 61.6169C211.357 61.6169 211.262 61.5215 211.262 61.3306V51.7371C211.262 51.5462 211.357 51.4507 211.548 51.4507H211.92C212.111 51.4507 212.207 51.5462 212.207 51.7371V61.3306C212.207 61.5215 212.111 61.6169 211.92 61.6169H211.548ZM214.638 61.6169C214.447 61.6169 214.352 61.5215 214.352 61.3306V51.7371C214.352 51.5462 214.447 51.4507 214.638 51.4507H215.011C215.201 51.4507 215.297 51.5462 215.297 51.7371V61.3306C215.297 61.5215 215.201 61.6169 215.011 61.6169H214.638ZM223.362 54.5006C223.601 54.5006 223.883 54.5388 224.207 54.6151C224.379 54.6724 224.446 54.7917 224.408 54.9731L224.35 55.2022C224.303 55.3836 224.183 55.4504 223.992 55.4027C223.763 55.3454 223.553 55.3167 223.362 55.3167C222.876 55.3167 222.47 55.5267 222.145 55.9468C221.83 56.3668 221.673 56.9491 221.673 57.6936V61.3306C221.673 61.5215 221.577 61.6169 221.386 61.6169H221.014C220.823 61.6169 220.728 61.5215 220.728 61.3306V54.8442C220.728 54.6533 220.823 54.5579 221.014 54.5579H221.329C221.52 54.5579 221.616 54.6533 221.616 54.8442V55.6318C221.778 55.2786 222.007 55.0017 222.303 54.8013C222.608 54.6008 222.962 54.5006 223.362 54.5006ZM230.441 59.9417C230.508 59.8748 230.579 59.8414 230.655 59.8414C230.722 59.8414 230.784 59.8701 230.842 59.9273L231.028 60.0992C231.095 60.166 231.128 60.2376 231.128 60.3139C231.128 60.3712 231.099 60.438 231.042 60.5144C230.574 60.9822 230.121 61.3163 229.682 61.5167C229.243 61.7076 228.751 61.8031 228.207 61.8031C227.52 61.8031 226.923 61.6504 226.417 61.3449C225.911 61.0394 225.52 60.6146 225.243 60.0705C224.966 59.5169 224.828 58.8773 224.828 58.1518C224.828 57.4168 224.961 56.7677 225.229 56.2045C225.506 55.6318 225.892 55.1879 226.389 54.8729C226.885 54.5483 227.458 54.386 228.107 54.386C229.071 54.386 229.83 54.6867 230.383 55.2881C230.937 55.8895 231.214 56.7009 231.214 57.7223V57.8941C231.204 57.98 231.171 58.0468 231.114 58.0946C231.066 58.1423 230.999 58.1662 230.913 58.1662H225.787C225.816 58.968 226.026 59.6457 226.417 60.1994C226.818 60.7435 227.415 61.0156 228.207 61.0156C228.637 61.0156 229.014 60.9392 229.338 60.7865C229.672 60.6242 230.04 60.3426 230.441 59.9417ZM228.107 55.1736C227.477 55.1736 226.956 55.3692 226.546 55.7606C226.145 56.1424 225.902 56.7056 225.816 57.4502H230.269C230.25 56.7534 230.049 56.1997 229.667 55.7893C229.286 55.3788 228.765 55.1736 228.107 55.1736ZM236.286 54.4003C236.878 54.4003 237.408 54.5579 237.876 54.8729C238.353 55.1783 238.725 55.6127 238.992 56.1759C239.26 56.7295 239.393 57.3643 239.393 58.0802C239.393 58.8057 239.26 59.4501 238.992 60.0133C238.725 60.5765 238.358 61.0156 237.89 61.3306C237.422 61.636 236.888 61.7888 236.286 61.7888C235.179 61.7888 234.368 61.3831 233.852 60.5717V63.9652C233.852 64.1561 233.757 64.2516 233.566 64.2516H233.193C233.003 64.2516 232.907 64.1561 232.907 63.9652V54.8442C232.907 54.6533 233.003 54.5579 233.193 54.5579H233.508C233.699 54.5579 233.795 54.6533 233.795 54.8442V55.7463C234.053 55.3072 234.391 54.9731 234.811 54.744C235.231 54.5149 235.723 54.4003 236.286 54.4003ZM236.215 60.9869C236.883 60.9869 237.417 60.7196 237.818 60.1851C238.219 59.6505 238.42 58.9489 238.42 58.0802C238.42 57.2211 238.219 56.5291 237.818 56.004C237.417 55.4695 236.883 55.2022 236.215 55.2022C235.499 55.2022 234.916 55.4599 234.468 55.9754C234.029 56.4813 233.809 57.1829 233.809 58.0802C233.809 58.9775 234.033 59.6887 234.482 60.2137C234.931 60.7292 235.508 60.9869 236.215 60.9869ZM241.374 61.6169C241.183 61.6169 241.087 61.5215 241.087 61.3306V51.7371C241.087 51.5462 241.183 51.4507 241.374 51.4507H241.746C241.937 51.4507 242.033 51.5462 242.033 51.7371V61.3306C242.033 61.5215 241.937 61.6169 241.746 61.6169H241.374ZM244.636 52.768C244.445 52.768 244.283 52.7012 244.149 52.5676C244.025 52.4339 243.963 52.2716 243.963 52.0807C243.963 51.8898 244.025 51.7323 244.149 51.6082C244.283 51.4841 244.445 51.4221 244.636 51.4221C244.836 51.4221 244.999 51.4841 245.123 51.6082C245.256 51.7323 245.323 51.8898 245.323 52.0807C245.323 52.2716 245.256 52.4339 245.123 52.5676C244.999 52.7012 244.836 52.768 244.636 52.768ZM244.45 61.6169C244.259 61.6169 244.163 61.5215 244.163 61.3306V54.8442C244.163 54.6533 244.259 54.5579 244.45 54.5579H244.822C245.013 54.5579 245.108 54.6533 245.108 54.8442V61.3306C245.108 61.5215 245.013 61.6169 244.822 61.6169H244.45ZM252.352 59.9417C252.419 59.8748 252.491 59.8414 252.567 59.8414C252.634 59.8414 252.696 59.8701 252.753 59.9273L252.939 60.0992C253.006 60.166 253.039 60.2376 253.039 60.3139C253.039 60.3712 253.011 60.438 252.954 60.5144C252.486 60.9822 252.032 61.3163 251.593 61.5167C251.154 61.7076 250.663 61.8031 250.118 61.8031C249.431 61.8031 248.835 61.6504 248.329 61.3449C247.823 61.0394 247.431 60.6146 247.154 60.0705C246.878 59.5169 246.739 58.8773 246.739 58.1518C246.739 57.4168 246.873 56.7677 247.14 56.2045C247.417 55.6318 247.804 55.1879 248.3 54.8729C248.796 54.5483 249.369 54.386 250.018 54.386C250.982 54.386 251.741 54.6867 252.295 55.2881C252.849 55.8895 253.125 56.7009 253.125 57.7223V57.8941C253.116 57.98 253.082 58.0468 253.025 58.0946C252.977 58.1423 252.911 58.1662 252.825 58.1662H247.699C247.727 58.968 247.937 59.6457 248.329 60.1994C248.73 60.7435 249.326 61.0156 250.118 61.0156C250.548 61.0156 250.925 60.9392 251.25 60.7865C251.584 60.6242 251.951 60.3426 252.352 59.9417ZM250.018 55.1736C249.388 55.1736 248.868 55.3692 248.457 55.7606C248.057 56.1424 247.813 56.7056 247.727 57.4502H252.18C252.161 56.7534 251.961 56.1997 251.579 55.7893C251.197 55.3788 250.677 55.1736 250.018 55.1736ZM257.337 61.8031C256.755 61.8031 256.239 61.7219 255.791 61.5597C255.352 61.3878 254.889 61.1015 254.402 60.7006C254.316 60.6433 254.273 60.5765 254.273 60.5001C254.273 60.4333 254.306 60.3664 254.373 60.2996L254.559 60.0992C254.617 60.0228 254.688 59.9846 254.774 59.9846C254.841 59.9846 254.903 60.0133 254.96 60.0705C255.419 60.4237 255.824 60.6719 256.177 60.8151C256.531 60.9487 256.917 61.0156 257.337 61.0156C257.862 61.0156 258.292 60.901 258.626 60.6719C258.96 60.4333 259.127 60.1135 259.127 59.7126C259.127 59.3116 258.955 59.0157 258.612 58.8248C258.268 58.6339 257.738 58.4621 257.022 58.3093C256.392 58.1757 255.896 58.0373 255.533 57.8941C255.18 57.7414 254.917 57.5504 254.746 57.3214C254.574 57.0923 254.488 56.7916 254.488 56.4193C254.488 55.8083 254.736 55.3167 255.232 54.9445C255.729 54.5722 256.354 54.386 257.108 54.386C257.624 54.386 258.082 54.4528 258.483 54.5865C258.893 54.7106 259.304 54.9206 259.714 55.2165C259.8 55.2833 259.843 55.3549 259.843 55.4313C259.843 55.479 259.819 55.5411 259.771 55.6174L259.6 55.8322C259.552 55.9086 259.485 55.9468 259.399 55.9468C259.323 55.9468 259.256 55.9229 259.199 55.8752C258.807 55.5983 258.459 55.4122 258.153 55.3167C257.857 55.2213 257.519 55.1736 257.137 55.1736C256.612 55.1736 256.192 55.2881 255.877 55.5172C255.562 55.7463 255.404 56.0374 255.404 56.3906C255.404 56.6102 255.476 56.7868 255.619 56.9204C255.762 57.0541 255.967 57.1686 256.235 57.2641C256.502 57.35 256.893 57.4502 257.409 57.5648C258.363 57.7748 259.041 58.0325 259.442 58.338C259.853 58.6434 260.058 59.0873 260.058 59.6696C260.058 60.3092 259.805 60.8246 259.299 61.216C258.793 61.6074 258.139 61.8031 257.337 61.8031ZM77.5722 73.8013C77.6103 73.639 77.7201 73.5579 77.9015 73.5579H78.2881C78.3931 73.5579 78.4647 73.5865 78.5029 73.6438C78.5506 73.701 78.5601 73.7774 78.5315 73.8729L76.6844 80.3735C76.6462 80.5358 76.5364 80.6169 76.3551 80.6169H75.7107C75.5485 80.6169 75.4435 80.5358 75.3957 80.3735L74.7371 78.1828C74.3934 77.0373 74.0736 75.8632 73.7777 74.6604C73.4913 75.825 73.1763 77.0086 72.8327 78.2114L72.2027 80.3735C72.1645 80.5358 72.0547 80.6169 71.8733 80.6169H71.2576C71.0763 80.6169 70.9665 80.5358 70.9283 80.3735L69.0812 73.8729C69.0717 73.8538 69.0669 73.8204 69.0669 73.7726C69.0669 73.7058 69.0908 73.6533 69.1385 73.6151C69.1862 73.5769 69.2483 73.5579 69.3246 73.5579H69.7112C69.8926 73.5579 70.0024 73.639 70.0406 73.8013L70.7279 76.3357C71.0429 77.4907 71.334 78.641 71.6013 79.7865C71.8113 78.9369 72.1215 77.7866 72.532 76.3357L73.2623 73.8013C73.3004 73.639 73.4102 73.5579 73.5916 73.5579H74.0211C74.193 73.5579 74.298 73.639 74.3361 73.8013L75.0807 76.3357C75.4053 77.5098 75.7107 78.6648 75.9971 79.8008C76.2167 78.8462 76.5126 77.6912 76.8849 76.3357L77.5722 73.8013ZM80.5029 71.768C80.312 71.768 80.1497 71.7012 80.0161 71.5676C79.892 71.4339 79.8299 71.2716 79.8299 71.0807C79.8299 70.8898 79.892 70.7323 80.0161 70.6082C80.1497 70.4841 80.312 70.4221 80.5029 70.4221C80.7034 70.4221 80.8656 70.4841 80.9897 70.6082C81.1234 70.7323 81.1902 70.8898 81.1902 71.0807C81.1902 71.2716 81.1234 71.4339 80.9897 71.5676C80.8656 71.7012 80.7034 71.768 80.5029 71.768ZM80.3168 80.6169C80.1258 80.6169 80.0304 80.5215 80.0304 80.3306V73.8442C80.0304 73.6533 80.1258 73.5579 80.3168 73.5579H80.689C80.88 73.5579 80.9754 73.6533 80.9754 73.8442V80.3306C80.9754 80.5215 80.88 80.6169 80.689 80.6169H80.3168ZM83.3794 80.6169C83.1885 80.6169 83.093 80.5215 83.093 80.3306V70.7371C83.093 70.5462 83.1885 70.4507 83.3794 70.4507H83.7517C83.9426 70.4507 84.038 70.5462 84.038 70.7371V80.3306C84.038 80.5215 83.9426 80.6169 83.7517 80.6169H83.3794ZM86.4696 80.6169C86.2787 80.6169 86.1833 80.5215 86.1833 80.3306V70.7371C86.1833 70.5462 86.2787 70.4507 86.4696 70.4507H86.8419C87.0328 70.4507 87.1283 70.5462 87.1283 70.7371V80.3306C87.1283 80.5215 87.0328 80.6169 86.8419 80.6169H86.4696ZM95.9384 73.4003C96.5398 73.4003 97.0743 73.5579 97.5421 73.8729C98.0194 74.1783 98.3869 74.6127 98.6446 75.1759C98.9119 75.7295 99.0455 76.3691 99.0455 77.0946C99.0455 77.82 98.9119 78.4644 98.6446 79.0276C98.3773 79.5812 98.0051 80.0156 97.5278 80.3306C97.06 80.636 96.5302 80.7888 95.9384 80.7888C94.8025 80.7888 93.972 80.3497 93.447 79.4715V80.3306C93.447 80.5215 93.3515 80.6169 93.1606 80.6169H92.8456C92.6547 80.6169 92.5592 80.5215 92.5592 80.3306V70.7228C92.5592 70.5318 92.6547 70.4364 92.8456 70.4364H93.2179C93.4088 70.4364 93.5042 70.5318 93.5042 70.7228V74.6747C94.0292 73.8251 94.8406 73.4003 95.9384 73.4003ZM95.8668 79.9869C96.5255 79.9869 97.0553 79.7196 97.4562 79.1851C97.8666 78.6505 98.0719 77.9537 98.0719 77.0946C98.0719 76.2354 97.8666 75.5386 97.4562 75.004C97.0553 74.4695 96.5255 74.2022 95.8668 74.2022C95.1604 74.2022 94.5829 74.4599 94.1342 74.9754C93.6856 75.4909 93.4613 76.1973 93.4613 77.0946C93.4613 78.0014 93.6808 78.7126 94.1199 79.228C94.5686 79.734 95.1509 79.9869 95.8668 79.9869ZM105.95 78.9417C106.016 78.8748 106.088 78.8414 106.164 78.8414C106.231 78.8414 106.293 78.8701 106.351 78.9273L106.537 79.0992C106.603 79.166 106.637 79.2376 106.637 79.3139C106.637 79.3712 106.608 79.438 106.551 79.5144C106.083 79.9822 105.63 80.3163 105.191 80.5167C104.752 80.7076 104.26 80.8031 103.716 80.8031C103.029 80.8031 102.432 80.6504 101.926 80.3449C101.42 80.0394 101.029 79.6146 100.752 79.0705C100.475 78.5169 100.337 77.8773 100.337 77.1518C100.337 76.4168 100.47 75.7677 100.738 75.2045C101.014 74.6318 101.401 74.1879 101.897 73.8729C102.394 73.5483 102.967 73.386 103.616 73.386C104.58 73.386 105.339 73.6867 105.892 74.2881C106.446 74.8895 106.723 75.7009 106.723 76.7223V76.8941C106.713 76.98 106.68 77.0468 106.623 77.0946C106.575 77.1423 106.508 77.1662 106.422 77.1662H101.296C101.325 77.968 101.535 78.6457 101.926 79.1994C102.327 79.7435 102.924 80.0156 103.716 80.0156C104.145 80.0156 104.522 79.9392 104.847 79.7865C105.181 79.6242 105.549 79.3426 105.95 78.9417ZM103.616 74.1736C102.986 74.1736 102.465 74.3692 102.055 74.7606C101.654 75.1424 101.411 75.7056 101.325 76.4502H105.778C105.759 75.7534 105.558 75.1997 105.176 74.7893C104.795 74.3788 104.274 74.1736 103.616 74.1736ZM116.813 70.7371C116.813 70.5462 116.909 70.4507 117.1 70.4507H117.472C117.663 70.4507 117.758 70.5462 117.758 70.7371V80.3306C117.758 80.5215 117.663 80.6169 117.472 80.6169H117.171C116.98 80.6169 116.885 80.5215 116.885 80.3306V79.3999C116.627 79.8485 116.288 80.1922 115.868 80.4308C115.448 80.6694 114.952 80.7888 114.379 80.7888C113.778 80.7888 113.243 80.636 112.776 80.3306C112.308 80.0156 111.94 79.5812 111.673 79.0276C111.406 78.4644 111.272 77.82 111.272 77.0946C111.272 76.3691 111.406 75.7295 111.673 75.1759C111.95 74.6127 112.327 74.1783 112.804 73.8729C113.281 73.5579 113.816 73.4003 114.408 73.4003C115.496 73.4003 116.298 73.806 116.813 74.6174V70.7371ZM114.451 79.9869C115.167 79.9869 115.744 79.734 116.183 79.228C116.632 78.7126 116.856 78.0014 116.856 77.0946C116.856 76.1973 116.632 75.4909 116.183 74.9754C115.744 74.4599 115.167 74.2022 114.451 74.2022C113.792 74.2022 113.258 74.4695 112.847 75.004C112.446 75.5386 112.246 76.2354 112.246 77.0946C112.246 77.9632 112.446 78.6648 112.847 79.1994C113.248 79.7244 113.783 79.9869 114.451 79.9869ZM125.022 78.9417C125.089 78.8748 125.161 78.8414 125.237 78.8414C125.304 78.8414 125.366 78.8701 125.423 78.9273L125.61 79.0992C125.676 79.166 125.71 79.2376 125.71 79.3139C125.71 79.3712 125.681 79.438 125.624 79.5144C125.156 79.9822 124.703 80.3163 124.264 80.5167C123.824 80.7076 123.333 80.8031 122.789 80.8031C122.101 80.8031 121.505 80.6504 120.999 80.3449C120.493 80.0394 120.102 79.6146 119.825 79.0705C119.548 78.5169 119.41 77.8773 119.41 77.1518C119.41 76.4168 119.543 75.7677 119.81 75.2045C120.087 74.6318 120.474 74.1879 120.97 73.8729C121.467 73.5483 122.039 73.386 122.689 73.386C123.653 73.386 124.412 73.6867 124.965 74.2881C125.519 74.8895 125.796 75.7009 125.796 76.7223V76.8941C125.786 76.98 125.753 77.0468 125.695 77.0946C125.648 77.1423 125.581 77.1662 125.495 77.1662H120.369C120.398 77.968 120.608 78.6457 120.999 79.1994C121.4 79.7435 121.996 80.0156 122.789 80.0156C123.218 80.0156 123.595 79.9392 123.92 79.7865C124.254 79.6242 124.622 79.3426 125.022 78.9417ZM122.689 74.1736C122.059 74.1736 121.538 74.3692 121.128 74.7606C120.727 75.1424 120.483 75.7056 120.398 76.4502H124.851C124.832 75.7534 124.631 75.1997 124.249 74.7893C123.867 74.3788 123.347 74.1736 122.689 74.1736ZM127.79 80.6169C127.599 80.6169 127.503 80.5215 127.503 80.3306V70.7371C127.503 70.5462 127.599 70.4507 127.79 70.4507H128.162C128.353 70.4507 128.448 70.5462 128.448 70.7371V80.3306C128.448 80.5215 128.353 80.6169 128.162 80.6169H127.79ZM135.72 78.9417C135.786 78.8748 135.858 78.8414 135.934 78.8414C136.001 78.8414 136.063 78.8701 136.12 78.9273L136.307 79.0992C136.373 79.166 136.407 79.2376 136.407 79.3139C136.407 79.3712 136.378 79.438 136.321 79.5144C135.853 79.9822 135.4 80.3163 134.961 80.5167C134.522 80.7076 134.03 80.8031 133.486 80.8031C132.799 80.8031 132.202 80.6504 131.696 80.3449C131.19 80.0394 130.799 79.6146 130.522 79.0705C130.245 78.5169 130.107 77.8773 130.107 77.1518C130.107 76.4168 130.24 75.7677 130.508 75.2045C130.784 74.6318 131.171 74.1879 131.667 73.8729C132.164 73.5483 132.736 73.386 133.386 73.386C134.35 73.386 135.109 73.6867 135.662 74.2881C136.216 74.8895 136.493 75.7009 136.493 76.7223V76.8941C136.483 76.98 136.45 77.0468 136.392 77.0946C136.345 77.1423 136.278 77.1662 136.192 77.1662H131.066C131.095 77.968 131.305 78.6457 131.696 79.1994C132.097 79.7435 132.693 80.0156 133.486 80.0156C133.915 80.0156 134.292 79.9392 134.617 79.7865C134.951 79.6242 135.319 79.3426 135.72 78.9417ZM133.386 74.1736C132.756 74.1736 132.235 74.3692 131.825 74.7606C131.424 75.1424 131.18 75.7056 131.095 76.4502H135.548C135.529 75.7534 135.328 75.1997 134.946 74.7893C134.564 74.3788 134.044 74.1736 133.386 74.1736ZM141.295 79.8294C141.323 79.8199 141.362 79.8151 141.409 79.8151C141.467 79.8151 141.519 79.8342 141.567 79.8724C141.614 79.9106 141.643 79.9631 141.653 80.0299L141.696 80.2303C141.705 80.2494 141.71 80.2828 141.71 80.3306C141.71 80.4642 141.638 80.5454 141.495 80.574C141.152 80.679 140.784 80.7315 140.393 80.7315C139.772 80.7315 139.328 80.5931 139.061 80.3163C138.803 80.0299 138.674 79.6194 138.674 79.0848V74.2738H137.615C137.424 74.2738 137.328 74.1783 137.328 73.9874V73.8442C137.328 73.6533 137.424 73.5579 137.615 73.5579H138.674V71.3814C138.674 71.1905 138.77 71.095 138.961 71.095H139.333C139.524 71.095 139.619 71.1905 139.619 71.3814V73.5579H141.338C141.529 73.5579 141.624 73.6533 141.624 73.8442V73.9874C141.624 74.1783 141.529 74.2738 141.338 74.2738H139.619V78.9703C139.619 79.3235 139.686 79.5717 139.82 79.7149C139.954 79.8581 140.183 79.9296 140.507 79.9296C140.736 79.9296 140.999 79.8962 141.295 79.8294ZM147.941 78.9417C148.008 78.8748 148.079 78.8414 148.155 78.8414C148.222 78.8414 148.284 78.8701 148.342 78.9273L148.528 79.0992C148.595 79.166 148.628 79.2376 148.628 79.3139C148.628 79.3712 148.599 79.438 148.542 79.5144C148.074 79.9822 147.621 80.3163 147.182 80.5167C146.743 80.7076 146.251 80.8031 145.707 80.8031C145.02 80.8031 144.423 80.6504 143.917 80.3449C143.411 80.0394 143.02 79.6146 142.743 79.0705C142.466 78.5169 142.328 77.8773 142.328 77.1518C142.328 76.4168 142.461 75.7677 142.729 75.2045C143.006 74.6318 143.392 74.1879 143.889 73.8729C144.385 73.5483 144.958 73.386 145.607 73.386C146.571 73.386 147.33 73.6867 147.883 74.2881C148.437 74.8895 148.714 75.7009 148.714 76.7223V76.8941C148.704 76.98 148.671 77.0468 148.614 77.0946C148.566 77.1423 148.499 77.1662 148.413 77.1662H143.287C143.316 77.968 143.526 78.6457 143.917 79.1994C144.318 79.7435 144.915 80.0156 145.707 80.0156C146.137 80.0156 146.514 79.9392 146.838 79.7865C147.172 79.6242 147.54 79.3426 147.941 78.9417ZM145.607 74.1736C144.977 74.1736 144.456 74.3692 144.046 74.7606C143.645 75.1424 143.402 75.7056 143.316 76.4502H147.769C147.75 75.7534 147.549 75.1997 147.167 74.7893C146.786 74.3788 146.265 74.1736 145.607 74.1736ZM155.518 70.7371C155.518 70.5462 155.614 70.4507 155.805 70.4507H156.177C156.368 70.4507 156.464 70.5462 156.464 70.7371V80.3306C156.464 80.5215 156.368 80.6169 156.177 80.6169H155.876C155.686 80.6169 155.59 80.5215 155.59 80.3306V79.3999C155.332 79.8485 154.993 80.1922 154.573 80.4308C154.153 80.6694 153.657 80.7888 153.084 80.7888C152.483 80.7888 151.948 80.636 151.481 80.3306C151.013 80.0156 150.645 79.5812 150.378 79.0276C150.111 78.4644 149.977 77.82 149.977 77.0946C149.977 76.3691 150.111 75.7295 150.378 75.1759C150.655 74.6127 151.032 74.1783 151.509 73.8729C151.987 73.5579 152.521 73.4003 153.113 73.4003C154.201 73.4003 155.003 73.806 155.518 74.6174V70.7371ZM153.156 79.9869C153.872 79.9869 154.449 79.734 154.888 79.228C155.337 78.7126 155.561 78.0014 155.561 77.0946C155.561 76.1973 155.337 75.4909 154.888 74.9754C154.449 74.4599 153.872 74.2022 153.156 74.2022C152.497 74.2022 151.963 74.4695 151.552 75.004C151.151 75.5386 150.951 76.2354 150.951 77.0946C150.951 77.9632 151.151 78.6648 151.552 79.1994C151.953 79.7244 152.488 79.9869 153.156 79.9869ZM158.974 80.7172C158.773 80.7172 158.601 80.6456 158.458 80.5024C158.315 80.3592 158.244 80.1874 158.244 79.9869C158.244 79.7865 158.315 79.6146 158.458 79.4715C158.601 79.3283 158.773 79.2567 158.974 79.2567C159.174 79.2567 159.346 79.3283 159.489 79.4715C159.632 79.6146 159.704 79.7865 159.704 79.9869C159.704 80.1874 159.632 80.3592 159.489 80.5024C159.346 80.6456 159.174 80.7172 158.974 80.7172Z" fill="#464646"/>
<path d="M99.0155 134.958C98.0036 134.958 97.1254 134.729 96.3809 134.271C95.6458 133.812 95.0779 133.182 94.6769 132.381C94.2856 131.569 94.0899 130.653 94.0899 129.631C94.0899 128.61 94.2856 127.703 94.6769 126.911C95.0683 126.109 95.6363 125.479 96.3809 125.021C97.1254 124.563 98.018 124.333 99.0585 124.333C99.6885 124.333 100.261 124.424 100.777 124.605C101.292 124.777 101.812 125.068 102.337 125.479C102.481 125.593 102.552 125.722 102.552 125.866C102.552 125.961 102.504 126.071 102.409 126.195L102.094 126.567C101.979 126.701 101.86 126.768 101.736 126.768C101.641 126.768 101.521 126.72 101.378 126.624C100.949 126.29 100.552 126.061 100.19 125.937C99.8364 125.813 99.4546 125.751 99.0441 125.751C98.3759 125.751 97.7936 125.913 97.2973 126.238C96.8009 126.562 96.4191 127.021 96.1518 127.612C95.8845 128.195 95.7508 128.868 95.7508 129.631C95.7508 130.395 95.8845 131.073 96.1518 131.665C96.4191 132.256 96.7961 132.719 97.2829 133.053C97.7698 133.378 98.3377 133.54 98.9869 133.54C99.4737 133.54 99.908 133.454 100.29 133.283C100.672 133.111 101.087 132.834 101.536 132.452C101.66 132.347 101.779 132.295 101.894 132.295C102.018 132.295 102.137 132.361 102.252 132.495L102.567 132.853C102.662 132.958 102.71 133.068 102.71 133.182C102.71 133.345 102.633 133.488 102.481 133.612C101.927 134.089 101.378 134.433 100.834 134.643C100.299 134.853 99.6932 134.958 99.0155 134.958ZM107.144 127.455C108.098 127.455 108.833 127.679 109.349 128.128C109.864 128.567 110.122 129.154 110.122 129.889V134.228C110.122 134.38 110.079 134.504 109.993 134.6C109.907 134.686 109.783 134.729 109.621 134.729H109.249C109.096 134.729 108.972 134.686 108.876 134.6C108.79 134.504 108.747 134.38 108.747 134.228V133.913C108.518 134.247 108.203 134.504 107.802 134.686C107.401 134.867 106.934 134.958 106.399 134.958C105.664 134.958 105.058 134.796 104.581 134.471C104.113 134.137 103.879 133.636 103.879 132.968C103.879 132.223 104.156 131.674 104.71 131.321C105.273 130.958 106.051 130.686 107.043 130.505L108.661 130.204V129.946C108.661 129.555 108.523 129.254 108.246 129.044C107.979 128.825 107.621 128.715 107.172 128.715C106.79 128.715 106.456 128.782 106.17 128.915C105.893 129.039 105.592 129.249 105.268 129.545C105.144 129.65 105.025 129.703 104.91 129.703C104.795 129.703 104.676 129.65 104.552 129.545L104.323 129.345C104.199 129.23 104.137 129.106 104.137 128.973C104.137 128.849 104.194 128.729 104.309 128.615C104.719 128.223 105.153 127.932 105.612 127.741C106.07 127.55 106.58 127.455 107.144 127.455ZM106.614 133.741C107.187 133.741 107.669 133.588 108.06 133.283C108.461 132.977 108.661 132.538 108.661 131.965V131.307L107.416 131.564C106.719 131.708 106.203 131.87 105.869 132.051C105.535 132.233 105.368 132.509 105.368 132.882C105.368 133.149 105.478 133.359 105.697 133.512C105.917 133.664 106.223 133.741 106.614 133.741ZM115.45 127.455C116.261 127.455 116.882 127.684 117.311 128.142C117.751 128.591 117.97 129.173 117.97 129.889V134.228C117.97 134.38 117.927 134.504 117.841 134.6C117.755 134.686 117.631 134.729 117.469 134.729H116.954C116.801 134.729 116.677 134.686 116.581 134.6C116.495 134.504 116.452 134.38 116.452 134.228V130.362C116.452 129.846 116.323 129.45 116.066 129.173C115.818 128.896 115.46 128.758 114.992 128.758C114.534 128.758 114.147 128.915 113.832 129.23C113.527 129.545 113.374 129.942 113.374 130.419V134.228C113.374 134.38 113.331 134.504 113.245 134.6C113.159 134.686 113.035 134.729 112.873 134.729H112.357C112.204 134.729 112.08 134.686 111.985 134.6C111.899 134.504 111.856 134.38 111.856 134.228V128.171C111.856 128.009 111.899 127.884 111.985 127.799C112.08 127.713 112.204 127.67 112.357 127.67H112.772C112.935 127.67 113.059 127.713 113.145 127.799C113.231 127.884 113.274 128.009 113.274 128.171V128.543C113.503 128.19 113.803 127.923 114.176 127.741C114.548 127.55 114.973 127.455 115.45 127.455ZM122.822 134.944C122.125 134.944 121.509 134.791 120.975 134.485C120.45 134.18 120.039 133.746 119.743 133.182C119.457 132.61 119.314 131.946 119.314 131.192C119.314 130.438 119.462 129.779 119.758 129.216C120.053 128.653 120.469 128.219 121.003 127.913C121.538 127.608 122.153 127.455 122.85 127.455C123.356 127.455 123.81 127.531 124.211 127.684C124.621 127.827 125.012 128.075 125.385 128.429C125.499 128.543 125.557 128.662 125.557 128.787C125.557 128.901 125.495 129.02 125.37 129.144L125.127 129.388C125.022 129.493 124.907 129.545 124.783 129.545C124.659 129.545 124.53 129.488 124.397 129.374C124.12 129.135 123.857 128.973 123.609 128.887C123.371 128.791 123.113 128.744 122.836 128.744C122.206 128.744 121.719 128.977 121.376 129.445C121.032 129.913 120.86 130.495 120.86 131.192C120.86 131.889 121.032 132.476 121.376 132.953C121.719 133.421 122.206 133.655 122.836 133.655C123.141 133.655 123.423 133.598 123.681 133.483C123.939 133.359 124.215 133.154 124.511 132.867C124.635 132.743 124.764 132.681 124.898 132.681C125.012 132.681 125.122 132.729 125.227 132.824L125.471 133.025C125.595 133.13 125.657 133.249 125.657 133.383C125.657 133.526 125.585 133.679 125.442 133.841C125.051 134.242 124.645 134.528 124.225 134.7C123.814 134.862 123.347 134.944 122.822 134.944ZM131.83 132.925C131.955 132.82 132.074 132.767 132.188 132.767C132.303 132.767 132.422 132.829 132.546 132.953L132.747 133.168C132.852 133.292 132.904 133.411 132.904 133.526C132.904 133.65 132.842 133.769 132.718 133.884C132.279 134.266 131.84 134.538 131.401 134.7C130.971 134.862 130.494 134.944 129.969 134.944C129.234 134.944 128.594 134.791 128.05 134.485C127.516 134.18 127.101 133.75 126.805 133.197C126.518 132.633 126.375 131.984 126.375 131.249C126.375 130.524 126.513 129.875 126.79 129.302C127.077 128.72 127.478 128.266 127.993 127.942C128.518 127.617 129.129 127.455 129.826 127.455C130.866 127.455 131.668 127.765 132.231 128.386C132.795 128.997 133.076 129.841 133.076 130.92V131.049C133.067 131.202 133.019 131.321 132.933 131.407C132.847 131.493 132.723 131.536 132.561 131.536H127.864C127.921 132.166 128.127 132.681 128.48 133.082C128.843 133.473 129.349 133.669 129.998 133.669C130.351 133.669 130.661 133.617 130.928 133.512C131.196 133.397 131.496 133.201 131.83 132.925ZM129.797 128.658C129.272 128.658 128.847 128.815 128.523 129.13C128.208 129.436 128.003 129.87 127.907 130.433H131.587C131.549 129.88 131.377 129.445 131.072 129.13C130.766 128.815 130.341 128.658 129.797 128.658ZM135.025 134.729C134.872 134.729 134.748 134.686 134.653 134.6C134.567 134.504 134.524 134.38 134.524 134.228V125.064C134.524 124.901 134.567 124.777 134.653 124.691C134.748 124.605 134.872 124.563 135.025 124.563H135.541C135.703 124.563 135.827 124.605 135.913 124.691C135.999 124.777 136.042 124.901 136.042 125.064V134.228C136.042 134.38 135.999 134.504 135.913 134.6C135.827 134.686 135.703 134.729 135.541 134.729H135.025Z" fill="#0063FB"/>
</g>
<rect x="168.637" y="109" width="45.6373" height="41.2678" rx="7" fill="#0063FB"/>
<path d="M189.817 124.969C189.817 124.806 189.86 124.682 189.946 124.596C190.041 124.511 190.165 124.468 190.318 124.468H190.905C191.067 124.468 191.191 124.511 191.277 124.596C191.363 124.682 191.406 124.806 191.406 124.969V134.133C191.406 134.285 191.363 134.409 191.277 134.505C191.191 134.591 191.067 134.634 190.905 134.634H190.017C189.75 134.634 189.55 134.524 189.416 134.304L186.81 130.238C185.817 128.692 185.073 127.47 184.576 126.572C184.624 127.594 184.648 128.916 184.648 130.539V134.133C184.648 134.285 184.605 134.409 184.519 134.505C184.433 134.591 184.309 134.634 184.147 134.634H183.56C183.407 134.634 183.283 134.591 183.187 134.505C183.101 134.409 183.058 134.285 183.058 134.133V124.969C183.058 124.806 183.101 124.682 183.187 124.596C183.283 124.511 183.407 124.468 183.56 124.468H184.476C184.743 124.468 184.944 124.577 185.077 124.797L187.769 129.021C188.724 130.51 189.425 131.656 189.874 132.457C189.836 131.436 189.817 130.176 189.817 128.677V124.969ZM196.565 134.849C195.868 134.849 195.248 134.691 194.704 134.376C194.169 134.061 193.749 133.622 193.444 133.059C193.138 132.486 192.986 131.832 192.986 131.097C192.986 130.362 193.138 129.713 193.444 129.15C193.749 128.587 194.169 128.147 194.704 127.832C195.248 127.517 195.868 127.36 196.565 127.36C197.253 127.36 197.868 127.517 198.412 127.832C198.957 128.147 199.381 128.591 199.687 129.164C199.992 129.727 200.145 130.372 200.145 131.097C200.145 131.832 199.992 132.486 199.687 133.059C199.381 133.622 198.957 134.061 198.412 134.376C197.868 134.691 197.253 134.849 196.565 134.849ZM196.565 133.574C197.176 133.574 197.668 133.35 198.04 132.901C198.412 132.443 198.599 131.842 198.599 131.097C198.599 130.362 198.412 129.77 198.04 129.322C197.668 128.873 197.176 128.649 196.565 128.649C195.954 128.649 195.463 128.873 195.09 129.322C194.718 129.77 194.532 130.362 194.532 131.097C194.532 131.842 194.718 132.443 195.09 132.901C195.463 133.35 195.954 133.574 196.565 133.574Z" fill="white"/>
<rect x="168.637" y="109" width="45.6373" height="41.2678" rx="7" stroke="#0063FB" stroke-width="2"/>
<rect x="224.275" y="109" width="49.6373" height="41.2678" rx="7" fill="#0063FB"/>
<path d="M244.667 124.811C244.81 124.582 245.01 124.468 245.268 124.468H245.927C246.06 124.468 246.165 124.496 246.242 124.553C246.318 124.611 246.356 124.687 246.356 124.783C246.356 124.868 246.323 124.964 246.256 125.069L243.034 130.324V134.133C243.034 134.285 242.991 134.409 242.905 134.505C242.82 134.591 242.695 134.634 242.533 134.634H241.889C241.736 134.634 241.612 134.591 241.517 134.505C241.431 134.409 241.388 134.285 241.388 134.133V130.31L238.18 125.069C238.114 124.964 238.08 124.868 238.08 124.783C238.08 124.687 238.118 124.611 238.195 124.553C238.271 124.496 238.376 124.468 238.51 124.468H239.211C239.469 124.468 239.669 124.582 239.813 124.811L242.247 128.892L244.667 124.811ZM251.24 132.83C251.364 132.725 251.483 132.672 251.598 132.672C251.712 132.672 251.832 132.734 251.956 132.858L252.156 133.073C252.261 133.197 252.314 133.316 252.314 133.431C252.314 133.555 252.252 133.674 252.128 133.789C251.688 134.171 251.249 134.443 250.81 134.605C250.381 134.767 249.903 134.849 249.378 134.849C248.643 134.849 248.004 134.696 247.46 134.39C246.925 134.085 246.51 133.655 246.214 133.102C245.928 132.538 245.784 131.889 245.784 131.154C245.784 130.429 245.923 129.78 246.2 129.207C246.486 128.625 246.887 128.171 247.402 127.847C247.927 127.522 248.538 127.36 249.235 127.36C250.276 127.36 251.078 127.67 251.641 128.291C252.204 128.902 252.486 129.746 252.486 130.825V130.954C252.476 131.107 252.428 131.226 252.342 131.312C252.256 131.398 252.132 131.441 251.97 131.441H247.274C247.331 132.071 247.536 132.586 247.889 132.987C248.252 133.379 248.758 133.574 249.407 133.574C249.76 133.574 250.07 133.522 250.338 133.417C250.605 133.302 250.906 133.106 251.24 132.83ZM249.207 128.563C248.682 128.563 248.257 128.72 247.932 129.035C247.617 129.341 247.412 129.775 247.317 130.338H250.996C250.958 129.785 250.786 129.35 250.481 129.035C250.175 128.72 249.751 128.563 249.207 128.563ZM256.625 134.849C256.042 134.849 255.522 134.777 255.064 134.634C254.615 134.481 254.157 134.219 253.689 133.846C253.546 133.741 253.474 133.622 253.474 133.488C253.474 133.383 253.527 133.269 253.632 133.145L253.847 132.901C253.961 132.768 254.085 132.701 254.219 132.701C254.324 132.701 254.439 132.749 254.563 132.844C254.964 133.14 255.317 133.345 255.622 133.46C255.928 133.565 256.271 133.617 256.653 133.617C257.064 133.617 257.398 133.536 257.655 133.374C257.923 133.202 258.056 132.973 258.056 132.686C258.056 132.467 257.98 132.295 257.827 132.171C257.684 132.037 257.493 131.937 257.255 131.87C257.016 131.794 256.663 131.708 256.195 131.613C255.536 131.469 255.021 131.317 254.649 131.154C254.286 130.983 254.023 130.768 253.861 130.51C253.699 130.252 253.618 129.923 253.618 129.522C253.618 129.112 253.732 128.744 253.961 128.419C254.2 128.095 254.529 127.837 254.949 127.646C255.379 127.455 255.88 127.36 256.453 127.36C256.968 127.36 257.426 127.417 257.827 127.532C258.238 127.646 258.639 127.842 259.03 128.119C259.183 128.233 259.259 128.362 259.259 128.505C259.259 128.601 259.211 128.711 259.116 128.835L258.93 129.064C258.825 129.197 258.696 129.264 258.543 129.264C258.429 129.264 258.319 129.226 258.214 129.15C257.899 128.94 257.608 128.797 257.34 128.72C257.073 128.634 256.772 128.591 256.438 128.591C256.028 128.591 255.699 128.672 255.45 128.835C255.202 128.997 255.078 129.207 255.078 129.465C255.078 129.637 255.135 129.775 255.25 129.88C255.374 129.975 255.546 130.061 255.765 130.138C255.995 130.205 256.352 130.29 256.839 130.395C257.498 130.539 258.018 130.701 258.4 130.882C258.791 131.054 259.078 131.278 259.259 131.555C259.45 131.823 259.546 132.171 259.546 132.601C259.546 133.269 259.278 133.813 258.744 134.233C258.219 134.643 257.512 134.849 256.625 134.849Z" fill="white"/>
<rect x="224.275" y="109" width="49.6373" height="41.2678" rx="7" stroke="#0063FB" stroke-width="2"/>
<rect x="89" y="109" width="69.6373" height="41.2678" rx="7" fill="#0063FB"/>
<path d="M111.21 124.883C111.296 124.606 111.487 124.468 111.783 124.468H113.416C113.578 124.468 113.702 124.511 113.788 124.596C113.874 124.682 113.917 124.806 113.917 124.969V134.133C113.917 134.285 113.874 134.409 113.788 134.505C113.702 134.591 113.578 134.634 113.416 134.634H112.828C112.676 134.634 112.552 134.591 112.456 134.505C112.37 134.409 112.327 134.285 112.327 134.133V129.522C112.327 128.949 112.337 128.09 112.356 126.945L112.37 125.699C112.256 126.062 111.984 126.887 111.554 128.176L111.11 129.522L109.535 134.219C109.449 134.495 109.258 134.634 108.962 134.634H108.404C108.108 134.634 107.917 134.5 107.831 134.233L106.228 129.522C105.664 127.899 105.24 126.625 104.953 125.699C104.972 127.379 104.982 128.653 104.982 129.522V134.133C104.982 134.285 104.939 134.409 104.853 134.505C104.767 134.591 104.643 134.634 104.481 134.634H103.922C103.77 134.634 103.645 134.591 103.55 134.505C103.464 134.409 103.421 134.285 103.421 134.133V124.969C103.421 124.806 103.464 124.682 103.55 124.596C103.645 124.511 103.77 124.468 103.922 124.468H105.583C105.879 124.468 106.07 124.601 106.156 124.868L107.488 128.792C108.051 130.472 108.452 131.746 108.69 132.615C108.996 131.546 109.397 130.271 109.893 128.792L111.21 124.883ZM118.867 127.36C119.822 127.36 120.557 127.584 121.072 128.033C121.587 128.472 121.845 129.059 121.845 129.794V134.133C121.845 134.285 121.802 134.409 121.716 134.505C121.63 134.591 121.506 134.634 121.344 134.634H120.972C120.819 134.634 120.695 134.591 120.599 134.505C120.514 134.409 120.471 134.285 120.471 134.133V133.818C120.242 134.152 119.927 134.409 119.526 134.591C119.125 134.772 118.657 134.863 118.122 134.863C117.387 134.863 116.781 134.701 116.304 134.376C115.836 134.042 115.602 133.541 115.602 132.873C115.602 132.128 115.879 131.579 116.433 131.226C116.996 130.863 117.774 130.591 118.767 130.41L120.385 130.109V129.851C120.385 129.46 120.246 129.159 119.969 128.949C119.702 128.73 119.344 128.62 118.896 128.62C118.514 128.62 118.18 128.687 117.893 128.82C117.616 128.945 117.316 129.155 116.991 129.45C116.867 129.555 116.748 129.608 116.633 129.608C116.519 129.608 116.399 129.555 116.275 129.45L116.046 129.25C115.922 129.135 115.86 129.011 115.86 128.878C115.86 128.754 115.917 128.634 116.032 128.52C116.442 128.128 116.877 127.837 117.335 127.646C117.793 127.455 118.304 127.36 118.867 127.36ZM118.337 133.646C118.91 133.646 119.392 133.493 119.783 133.188C120.184 132.882 120.385 132.443 120.385 131.87V131.212L119.139 131.469C118.442 131.613 117.927 131.775 117.593 131.956C117.258 132.138 117.091 132.414 117.091 132.787C117.091 133.054 117.201 133.264 117.421 133.417C117.64 133.569 117.946 133.646 118.337 133.646ZM127.331 127.389C127.932 127.389 128.467 127.541 128.935 127.847C129.412 128.152 129.784 128.587 130.051 129.15C130.319 129.713 130.452 130.362 130.452 131.097C130.452 131.842 130.319 132.496 130.051 133.059C129.784 133.622 129.412 134.056 128.935 134.362C128.457 134.667 127.923 134.82 127.331 134.82C126.271 134.82 125.493 134.424 124.997 133.631V134.133C124.997 134.285 124.954 134.409 124.868 134.505C124.782 134.591 124.658 134.634 124.496 134.634H124.08C123.928 134.634 123.804 134.591 123.708 134.505C123.622 134.409 123.579 134.285 123.579 134.133V124.969C123.579 124.806 123.622 124.682 123.708 124.596C123.804 124.511 123.928 124.468 124.08 124.468H124.596C124.758 124.468 124.882 124.511 124.968 124.596C125.054 124.682 125.097 124.806 125.097 124.969V128.462C125.603 127.747 126.348 127.389 127.331 127.389ZM127.016 133.503C127.589 133.503 128.047 133.288 128.39 132.858C128.734 132.419 128.906 131.832 128.906 131.097C128.906 130.372 128.734 129.789 128.39 129.35C128.056 128.911 127.603 128.692 127.03 128.692C126.448 128.692 125.971 128.911 125.598 129.35C125.226 129.78 125.04 130.362 125.04 131.097C125.04 131.851 125.226 132.443 125.598 132.873C125.971 133.293 126.443 133.503 127.016 133.503ZM136.968 132.83C137.092 132.725 137.211 132.672 137.326 132.672C137.44 132.672 137.56 132.734 137.684 132.858L137.884 133.073C137.989 133.197 138.042 133.316 138.042 133.431C138.042 133.555 137.98 133.674 137.855 133.789C137.416 134.171 136.977 134.443 136.538 134.605C136.109 134.767 135.631 134.849 135.106 134.849C134.371 134.849 133.732 134.696 133.188 134.39C132.653 134.085 132.238 133.655 131.942 133.102C131.655 132.538 131.512 131.889 131.512 131.154C131.512 130.429 131.651 129.78 131.928 129.207C132.214 128.625 132.615 128.171 133.13 127.847C133.655 127.522 134.266 127.36 134.963 127.36C136.004 127.36 136.805 127.67 137.369 128.291C137.932 128.902 138.213 129.746 138.213 130.825V130.954C138.204 131.107 138.156 131.226 138.07 131.312C137.984 131.398 137.86 131.441 137.698 131.441H133.001C133.059 132.071 133.264 132.586 133.617 132.987C133.98 133.379 134.486 133.574 135.135 133.574C135.488 133.574 135.798 133.522 136.066 133.417C136.333 133.302 136.634 133.106 136.968 132.83ZM134.934 128.563C134.409 128.563 133.985 128.72 133.66 129.035C133.345 129.341 133.14 129.775 133.044 130.338H136.724C136.686 129.785 136.514 129.35 136.209 129.035C135.903 128.72 135.479 128.563 134.934 128.563ZM141.152 131.67C140.99 131.67 140.866 131.636 140.78 131.57C140.694 131.493 140.651 131.388 140.651 131.255C140.651 130.882 140.68 130.582 140.737 130.353C140.804 130.123 140.933 129.89 141.123 129.651C141.314 129.412 141.615 129.116 142.026 128.763C142.216 128.601 142.307 128.525 142.298 128.534C142.67 128.219 142.942 127.952 143.114 127.732C143.295 127.503 143.386 127.231 143.386 126.916C143.386 126.534 143.238 126.229 142.942 126C142.646 125.761 142.259 125.642 141.782 125.642C141.429 125.642 141.095 125.709 140.78 125.842C140.465 125.976 140.107 126.191 139.706 126.486C139.591 126.572 139.477 126.615 139.362 126.615C139.229 126.615 139.105 126.549 138.99 126.415L138.732 126.114C138.637 126.009 138.589 125.899 138.589 125.785C138.589 125.642 138.656 125.518 138.79 125.413C139.276 125.012 139.763 124.716 140.25 124.525C140.746 124.334 141.276 124.238 141.839 124.238C142.765 124.238 143.524 124.477 144.116 124.954C144.708 125.422 145.004 126.071 145.004 126.902C145.004 127.274 144.932 127.608 144.789 127.904C144.655 128.19 144.479 128.448 144.259 128.677C144.049 128.897 143.753 129.169 143.371 129.493L143.142 129.694C142.732 130.057 142.45 130.338 142.298 130.539C142.145 130.739 142.045 130.997 141.997 131.312C141.987 131.426 141.935 131.517 141.839 131.584C141.753 131.641 141.634 131.67 141.481 131.67H141.152ZM141.295 134.777C141.009 134.777 140.761 134.677 140.551 134.476C140.341 134.266 140.236 134.013 140.236 133.717C140.236 133.441 140.341 133.202 140.551 133.001C140.761 132.791 141.009 132.686 141.295 132.686C141.582 132.686 141.825 132.791 142.026 133.001C142.236 133.202 142.341 133.441 142.341 133.717C142.341 134.013 142.236 134.266 142.026 134.476C141.825 134.677 141.582 134.777 141.295 134.777Z" fill="white"/>
<rect x="89" y="109" width="69.6373" height="41.2678" rx="7" stroke="#0063FB" stroke-width="2"/>
</g>
<defs>
<filter id="filter0_dd_1855_23964" x="32" y="-175" width="280" height="366" filterUnits="userSpaceOnUse" color-interpolation-filters="sRGB">
<feFlood flood-opacity="0" result="BackgroundImageFix"/>
<feColorMatrix in="SourceAlpha" type="matrix" values="0 0 0 0 0 0 0 0 0 0 0 0 0 0 0 0 0 0 127 0" result="hardAlpha"/>
<feOffset dy="3"/>
<feGaussianBlur stdDeviation="3"/>
<feColorMatrix type="matrix" values="0 0 0 0 0.272549 0 0 0 0 0.272549 0 0 0 0 0.272549 0 0 0 0.16 0"/>
<feBlend mode="normal" in2="BackgroundImageFix" result="effect1_dropShadow_1855_23964"/>
<feColorMatrix in="SourceAlpha" type="matrix" values="0 0 0 0 0 0 0 0 0 0 0 0 0 0 0 0 0 0 127 0" result="hardAlpha"/>
<feOffset dy="3"/>
<feGaussianBlur stdDeviation="4"/>
<feColorMatrix type="matrix" values="0 0 0 0 0.272549 0 0 0 0 0.272549 0 0 0 0 0.272549 0 0 0 0.24 0"/>
<feBlend mode="normal" in2="effect1_dropShadow_1855_23964" result="effect2_dropShadow_1855_23964"/>
<feBlend mode="normal" in="SourceGraphic" in2="effect2_dropShadow_1855_23964" result="shape"/>
</filter>
<clipPath id="clip0_1855_23964">
<rect width="344" height="220" fill="white"/>
</clipPath>
</defs>
</svg>
