<svg width="344" height="220" viewBox="0 0 344 220" fill="none" xmlns="http://www.w3.org/2000/svg">
<g clip-path="url(#clip0_1856_23999)">
<rect width="344" height="220" fill="#F5F5F5"/>
<g filter="url(#filter0_dd_1856_23999)">
<rect x="40" y="-170" width="264" height="350" rx="8" fill="white"/>
<path d="M80.8833 31.6306C80.9752 31.775 81.0212 31.9063 81.0212 32.0244C81.0212 32.1556 80.9687 32.2606 80.8637 32.3394C80.7587 32.4181 80.6143 32.4575 80.4305 32.4575H79.4461C79.0786 32.4575 78.803 32.3066 78.6192 32.0047L75.3707 27.0433H72.3978V31.7684C72.3978 31.9784 72.3387 32.1491 72.2206 32.2803C72.1024 32.3985 71.9318 32.4575 71.7087 32.4575H70.8424C70.6324 32.4575 70.4618 32.3985 70.3305 32.2803C70.2124 32.1491 70.1533 31.9784 70.1533 31.7684V19.168C70.1533 18.9449 70.2124 18.7743 70.3305 18.6561C70.4618 18.538 70.6324 18.4789 70.8424 18.4789H76.3551C77.2345 18.4789 78.022 18.6561 78.7177 19.0105C79.4133 19.3518 79.9514 19.8505 80.3321 20.5068C80.7258 21.15 80.9227 21.9047 80.9227 22.771C80.9227 23.821 80.634 24.7135 80.0564 25.4485C79.4789 26.1704 78.7045 26.6495 77.7332 26.8858L80.8833 31.6306ZM72.3978 25.1729H75.981C76.821 25.1729 77.4839 24.9695 77.9695 24.5626C78.4683 24.1426 78.7177 23.5454 78.7177 22.771C78.7177 21.9834 78.4683 21.3862 77.9695 20.9793C77.4839 20.5593 76.821 20.3493 75.981 20.3493H72.3978V25.1729ZM87.1999 22.4559C88.5124 22.4559 89.5231 22.7644 90.2318 23.3813C90.9406 23.9851 91.295 24.7923 91.295 25.8029V31.7684C91.295 31.9784 91.2359 32.1491 91.1178 32.2803C90.9997 32.3985 90.829 32.4575 90.6059 32.4575H90.094C89.884 32.4575 89.7134 32.3985 89.5821 32.2803C89.464 32.1491 89.4049 31.9784 89.4049 31.7684V31.3353C89.0899 31.7947 88.6568 32.1491 88.1055 32.3985C87.5542 32.6478 86.9111 32.7725 86.1761 32.7725C85.1654 32.7725 84.332 32.5494 83.6757 32.1031C83.0325 31.6437 82.711 30.9547 82.711 30.0359C82.711 29.0121 83.0916 28.2574 83.8529 27.7717C84.6273 27.273 85.697 26.8989 87.062 26.6495L89.2868 26.2361V25.8817C89.2868 25.3435 89.0965 24.9301 88.7158 24.6413C88.3483 24.3394 87.8561 24.1885 87.2392 24.1885C86.7142 24.1885 86.2548 24.2804 85.8611 24.4641C85.4804 24.6348 85.067 24.9235 84.6207 25.3304C84.4501 25.4748 84.286 25.547 84.1285 25.547C83.971 25.547 83.8069 25.4748 83.6363 25.3304L83.3213 25.0548C83.1507 24.8973 83.0653 24.7266 83.0653 24.5429C83.0653 24.3723 83.1441 24.2082 83.3016 24.0507C83.866 23.5125 84.4632 23.1122 85.0932 22.8497C85.7232 22.5872 86.4255 22.4559 87.1999 22.4559ZM86.4714 31.099C87.2589 31.099 87.9218 30.889 88.4599 30.469C89.0112 30.049 89.2868 29.4452 89.2868 28.6577V27.7521L87.5739 28.1064C86.6158 28.3033 85.907 28.5265 85.4476 28.7758C84.9882 29.0252 84.7585 29.4059 84.7585 29.9177C84.7585 30.2853 84.9095 30.574 85.2114 30.784C85.5132 30.994 85.9333 31.099 86.4714 31.099ZM98.1537 30.8037C98.1931 30.7906 98.2521 30.784 98.3309 30.784C98.659 30.784 98.8559 30.9743 98.9215 31.355L98.9806 31.67C98.9937 31.7094 99.0003 31.775 99.0003 31.8669C99.0003 32.195 98.8165 32.405 98.449 32.4969C97.924 32.615 97.4449 32.6741 97.0118 32.6741C96.0799 32.6741 95.4039 32.4575 94.9839 32.0244C94.577 31.5912 94.3736 30.9415 94.3736 30.0753V24.346H93.2907C93.0807 24.346 92.9101 24.2869 92.7788 24.1688C92.6607 24.0376 92.6016 23.8669 92.6016 23.6569V23.4404C92.6016 23.2172 92.6607 23.0466 92.7788 22.9285C92.9101 22.8103 93.0807 22.7513 93.2907 22.7513H94.3736V20.3099C94.3736 20.0868 94.4326 19.9162 94.5508 19.798C94.682 19.6799 94.8526 19.6209 95.0627 19.6209H95.7714C95.9946 19.6209 96.1652 19.6799 96.2833 19.798C96.4014 19.9162 96.4605 20.0868 96.4605 20.3099V22.7513H98.2324C98.4556 22.7513 98.6262 22.8103 98.7443 22.9285C98.8625 23.0466 98.9215 23.2172 98.9215 23.4404V23.6569C98.9215 23.8669 98.8625 24.0376 98.7443 24.1688C98.6262 24.2869 98.4556 24.346 98.2324 24.346H96.4605V29.8193C96.4605 30.1999 96.5393 30.469 96.6968 30.6265C96.8674 30.784 97.1365 30.8628 97.504 30.8628C97.6615 30.8628 97.8781 30.8431 98.1537 30.8037ZM107.282 29.9768C107.452 29.8324 107.616 29.7602 107.774 29.7602C107.931 29.7602 108.096 29.8456 108.266 30.0162L108.542 30.3115C108.686 30.4821 108.758 30.6462 108.758 30.8037C108.758 30.9743 108.673 31.1384 108.502 31.2959C107.899 31.8209 107.295 32.195 106.691 32.4181C106.1 32.6413 105.444 32.7528 104.722 32.7528C103.712 32.7528 102.832 32.5428 102.084 32.1228C101.349 31.7028 100.778 31.1122 100.371 30.3509C99.9775 29.5765 99.7806 28.684 99.7806 27.6733C99.7806 26.6758 99.9709 25.7832 100.352 24.9957C100.745 24.1951 101.297 23.5716 102.005 23.1253C102.727 22.6791 103.567 22.4559 104.525 22.4559C105.956 22.4559 107.059 22.8825 107.833 23.7357C108.607 24.5757 108.995 25.7373 108.995 27.2205V27.3977C108.981 27.6077 108.916 27.7717 108.798 27.8899C108.68 28.008 108.509 28.0671 108.286 28.0671H101.828C101.907 28.9333 102.189 29.6421 102.675 30.1934C103.173 30.7315 103.869 31.0006 104.762 31.0006C105.247 31.0006 105.674 30.9284 106.041 30.784C106.409 30.6265 106.822 30.3575 107.282 29.9768ZM104.486 24.1097C103.764 24.1097 103.18 24.3263 102.734 24.7595C102.301 25.1795 102.018 25.7767 101.887 26.5511H106.947C106.895 25.7898 106.658 25.1926 106.238 24.7595C105.818 24.3263 105.234 24.1097 104.486 24.1097ZM119.995 30.8037C120.035 30.7906 120.094 30.784 120.172 30.784C120.501 30.784 120.697 30.9743 120.763 31.355L120.822 31.67C120.835 31.7094 120.842 31.775 120.842 31.8669C120.842 32.195 120.658 32.405 120.291 32.4969C119.766 32.615 119.286 32.6741 118.853 32.6741C117.921 32.6741 117.245 32.4575 116.825 32.0244C116.419 31.5912 116.215 30.9415 116.215 30.0753V24.346H115.132C114.922 24.346 114.752 24.2869 114.62 24.1688C114.502 24.0376 114.443 23.8669 114.443 23.6569V23.4404C114.443 23.2172 114.502 23.0466 114.62 22.9285C114.752 22.8103 114.922 22.7513 115.132 22.7513H116.215V20.3099C116.215 20.0868 116.274 19.9162 116.392 19.798C116.524 19.6799 116.694 19.6209 116.904 19.6209H117.613C117.836 19.6209 118.007 19.6799 118.125 19.798C118.243 19.9162 118.302 20.0868 118.302 20.3099V22.7513H120.074C120.297 22.7513 120.468 22.8103 120.586 22.9285C120.704 23.0466 120.763 23.2172 120.763 23.4404V23.6569C120.763 23.8669 120.704 24.0376 120.586 24.1688C120.468 24.2869 120.297 24.346 120.074 24.346H118.302V29.8193C118.302 30.1999 118.381 30.469 118.538 30.6265C118.709 30.784 118.978 30.8628 119.346 30.8628C119.503 30.8628 119.72 30.8431 119.995 30.8037ZM127.423 22.4559C128.538 22.4559 129.392 22.771 129.982 23.401C130.586 24.0179 130.888 24.8185 130.888 25.8029V31.7684C130.888 31.9784 130.829 32.1491 130.711 32.2803C130.593 32.3985 130.422 32.4575 130.199 32.4575H129.49C129.28 32.4575 129.109 32.3985 128.978 32.2803C128.86 32.1491 128.801 31.9784 128.801 31.7684V26.4526C128.801 25.7439 128.624 25.1992 128.269 24.8185C127.928 24.4379 127.436 24.2476 126.793 24.2476C126.163 24.2476 125.631 24.4641 125.198 24.8973C124.778 25.3304 124.568 25.8751 124.568 26.5314V31.7684C124.568 31.9784 124.509 32.1491 124.391 32.2803C124.273 32.3985 124.102 32.4575 123.879 32.4575H123.17C122.96 32.4575 122.789 32.3985 122.658 32.2803C122.54 32.1491 122.481 31.9784 122.481 31.7684V19.168C122.481 18.9449 122.54 18.7743 122.658 18.6561C122.789 18.538 122.96 18.4789 123.17 18.4789H123.879C124.102 18.4789 124.273 18.538 124.391 18.6561C124.509 18.7743 124.568 18.9449 124.568 19.168V23.7554C124.883 23.3353 125.283 23.0138 125.769 22.7906C126.268 22.5675 126.819 22.4559 127.423 22.4559ZM134.35 20.8612C133.969 20.8612 133.647 20.7365 133.385 20.4871C133.122 20.2246 132.991 19.9162 132.991 19.5618C132.991 19.1943 133.122 18.8858 133.385 18.6364C133.647 18.3871 133.969 18.2624 134.35 18.2624C134.73 18.2624 135.052 18.3871 135.314 18.6364C135.577 18.8858 135.708 19.1943 135.708 19.5618C135.708 19.9162 135.577 20.2246 135.314 20.4871C135.052 20.7365 134.73 20.8612 134.35 20.8612ZM133.975 32.4575C133.765 32.4575 133.595 32.3985 133.464 32.2803C133.345 32.1491 133.286 31.9784 133.286 31.7684V23.4404C133.286 23.2172 133.345 23.0466 133.464 22.9285C133.595 22.8103 133.765 22.7513 133.975 22.7513H134.684C134.907 22.7513 135.078 22.8103 135.196 22.9285C135.314 23.0466 135.373 23.2172 135.373 23.4404V31.7684C135.373 31.9784 135.314 32.1491 135.196 32.2803C135.078 32.3985 134.907 32.4575 134.684 32.4575H133.975ZM141.526 32.7528C140.726 32.7528 140.01 32.6544 139.38 32.4575C138.763 32.2475 138.133 31.8866 137.49 31.3747C137.293 31.2303 137.195 31.0662 137.195 30.8825C137.195 30.7381 137.267 30.5806 137.411 30.41L137.707 30.0753C137.864 29.8915 138.035 29.7996 138.219 29.7996C138.363 29.7996 138.52 29.8652 138.691 29.9965C139.242 30.4034 139.728 30.6856 140.148 30.8431C140.568 30.9875 141.041 31.0597 141.566 31.0597C142.13 31.0597 142.589 30.9481 142.944 30.725C143.311 30.4887 143.495 30.1737 143.495 29.7799C143.495 29.478 143.39 29.2418 143.18 29.0712C142.983 28.8874 142.721 28.7496 142.392 28.6577C142.064 28.5527 141.579 28.4346 140.936 28.3033C140.03 28.1064 139.321 27.8964 138.809 27.6733C138.31 27.437 137.95 27.1417 137.726 26.7873C137.503 26.4329 137.392 25.9801 137.392 25.4289C137.392 24.8645 137.549 24.3591 137.864 23.9129C138.192 23.4666 138.645 23.1122 139.223 22.8497C139.813 22.5872 140.502 22.4559 141.29 22.4559C141.999 22.4559 142.629 22.5347 143.18 22.6922C143.744 22.8497 144.296 23.1188 144.834 23.4994C145.044 23.6569 145.149 23.8341 145.149 24.031C145.149 24.1623 145.083 24.3132 144.952 24.4838L144.696 24.7988C144.552 24.9826 144.374 25.0745 144.164 25.0745C144.007 25.0745 143.856 25.022 143.712 24.917C143.278 24.6282 142.878 24.4313 142.511 24.3263C142.143 24.2082 141.73 24.1491 141.27 24.1491C140.706 24.1491 140.253 24.2607 139.912 24.4838C139.57 24.707 139.4 24.9957 139.4 25.3501C139.4 25.5864 139.479 25.7767 139.636 25.9211C139.807 26.0523 140.043 26.1704 140.345 26.2754C140.66 26.3673 141.152 26.4855 141.822 26.6298C142.727 26.8267 143.442 27.0498 143.968 27.2992C144.506 27.5355 144.899 27.8439 145.149 28.2246C145.411 28.5921 145.543 29.0712 145.543 29.6618C145.543 30.5806 145.175 31.3287 144.44 31.9063C143.718 32.4706 142.747 32.7528 141.526 32.7528ZM155.839 22.4559C157.152 22.4559 158.162 22.7644 158.871 23.3813C159.58 23.9851 159.934 24.7923 159.934 25.8029V31.7684C159.934 31.9784 159.875 32.1491 159.757 32.2803C159.639 32.3985 159.468 32.4575 159.245 32.4575H158.733C158.523 32.4575 158.353 32.3985 158.221 32.2803C158.103 32.1491 158.044 31.9784 158.044 31.7684V31.3353C157.729 31.7947 157.296 32.1491 156.745 32.3985C156.194 32.6478 155.55 32.7725 154.815 32.7725C153.805 32.7725 152.971 32.5494 152.315 32.1031C151.672 31.6437 151.35 30.9547 151.35 30.0359C151.35 29.0121 151.731 28.2574 152.492 27.7717C153.267 27.273 154.336 26.8989 155.701 26.6495L157.926 26.2361V25.8817C157.926 25.3435 157.736 24.9301 157.355 24.6413C156.988 24.3394 156.495 24.1885 155.879 24.1885C155.354 24.1885 154.894 24.2804 154.5 24.4641C154.12 24.6348 153.706 24.9235 153.26 25.3304C153.089 25.4748 152.925 25.547 152.768 25.547C152.61 25.547 152.446 25.4748 152.276 25.3304L151.961 25.0548C151.79 24.8973 151.705 24.7266 151.705 24.5429C151.705 24.3723 151.783 24.2082 151.941 24.0507C152.505 23.5125 153.103 23.1122 153.733 22.8497C154.363 22.5872 155.065 22.4559 155.839 22.4559ZM155.111 31.099C155.898 31.099 156.561 30.889 157.099 30.469C157.65 30.049 157.926 29.4452 157.926 28.6577V27.7521L156.213 28.1064C155.255 28.3033 154.546 28.5265 154.087 28.7758C153.628 29.0252 153.398 29.4059 153.398 29.9177C153.398 30.2853 153.549 30.574 153.851 30.784C154.153 30.994 154.573 31.099 155.111 31.099ZM167.477 22.4953C168.304 22.4953 169.039 22.7053 169.682 23.1253C170.338 23.5454 170.85 24.1426 171.218 24.917C171.585 25.6914 171.769 26.5839 171.769 27.5945C171.769 28.6183 171.585 29.5174 171.218 30.2918C170.85 31.0662 170.338 31.6634 169.682 32.0834C169.026 32.5035 168.291 32.7135 167.477 32.7135C166.112 32.7135 165.088 32.241 164.406 31.2959V35.2532C164.406 35.4764 164.347 35.647 164.228 35.7651C164.11 35.8833 163.94 35.9423 163.717 35.9423H163.008C162.798 35.9423 162.627 35.8833 162.496 35.7651C162.378 35.647 162.319 35.4764 162.319 35.2532V23.4404C162.319 23.2172 162.378 23.0466 162.496 22.9285C162.627 22.8103 162.798 22.7513 163.008 22.7513H163.579C163.802 22.7513 163.973 22.8103 164.091 22.9285C164.209 23.0466 164.268 23.2172 164.268 23.4404V24.1688C164.963 23.0532 166.033 22.4953 167.477 22.4953ZM167.044 30.9022C167.831 30.9022 168.461 30.6068 168.934 30.0162C169.406 29.4124 169.643 28.6052 169.643 27.5945C169.643 26.597 169.406 25.7964 168.934 25.1926C168.475 24.5888 167.851 24.2869 167.064 24.2869C166.263 24.2869 165.607 24.5823 165.095 25.1729C164.583 25.7636 164.327 26.5708 164.327 27.5945C164.327 28.6183 164.583 29.4255 165.095 30.0162C165.607 30.6068 166.256 30.9022 167.044 30.9022ZM178.821 22.4953C179.648 22.4953 180.383 22.7053 181.026 23.1253C181.682 23.5454 182.194 24.1426 182.561 24.917C182.929 25.6914 183.113 26.5839 183.113 27.5945C183.113 28.6183 182.929 29.5174 182.561 30.2918C182.194 31.0662 181.682 31.6634 181.026 32.0834C180.37 32.5035 179.635 32.7135 178.821 32.7135C177.456 32.7135 176.432 32.241 175.749 31.2959V35.2532C175.749 35.4764 175.69 35.647 175.572 35.7651C175.454 35.8833 175.283 35.9423 175.06 35.9423H174.352C174.142 35.9423 173.971 35.8833 173.84 35.7651C173.722 35.647 173.662 35.4764 173.662 35.2532V23.4404C173.662 23.2172 173.722 23.0466 173.84 22.9285C173.971 22.8103 174.142 22.7513 174.352 22.7513H174.922C175.146 22.7513 175.316 22.8103 175.434 22.9285C175.553 23.0466 175.612 23.2172 175.612 23.4404V24.1688C176.307 23.0532 177.377 22.4953 178.821 22.4953ZM178.388 30.9022C179.175 30.9022 179.805 30.6068 180.278 30.0162C180.75 29.4124 180.986 28.6052 180.986 27.5945C180.986 26.597 180.75 25.7964 180.278 25.1926C179.818 24.5888 179.195 24.2869 178.407 24.2869C177.607 24.2869 176.95 24.5823 176.438 25.1729C175.927 25.7636 175.671 26.5708 175.671 27.5945C175.671 28.6183 175.927 29.4255 176.438 30.0162C176.95 30.6068 177.6 30.9022 178.388 30.9022Z" fill="#464646"/>
<path d="M70.2553 61.6169C70.0644 61.6169 69.969 61.5215 69.969 61.3306V51.7371C69.969 51.5462 70.0644 51.4507 70.2553 51.4507H70.6992C70.8901 51.4507 70.9856 51.5462 70.9856 51.7371V61.3306C70.9856 61.5215 70.8901 61.6169 70.6992 61.6169H70.2553ZM76.0664 52.0664C75.6368 52.0664 75.3313 52.181 75.15 52.4101C74.9686 52.6296 74.8779 53.0019 74.8779 53.5269V54.5579H76.453C76.6439 54.5579 76.7393 54.6533 76.7393 54.8442V54.9874C76.7393 55.1783 76.6439 55.2738 76.453 55.2738H74.8779V61.3306C74.8779 61.5215 74.7825 61.6169 74.5915 61.6169H74.2193C74.0283 61.6169 73.9329 61.5215 73.9329 61.3306V55.2738H72.8733C72.6824 55.2738 72.5869 55.1783 72.5869 54.9874V54.8442C72.5869 54.6533 72.6824 54.5579 72.8733 54.5579H73.9329V53.3694C73.9329 52.7107 74.1047 52.1953 74.4483 51.823C74.8015 51.4507 75.3027 51.2646 75.9518 51.2646C76.3145 51.2646 76.6868 51.3171 77.0687 51.4221C77.25 51.4793 77.3169 51.5987 77.2691 51.78L77.2118 51.9805C77.1641 52.1141 77.0687 52.181 76.9255 52.181C76.8968 52.181 76.8348 52.1714 76.7393 52.1523C76.5293 52.095 76.305 52.0664 76.0664 52.0664ZM85.6704 54.7869C85.7276 54.6342 85.8374 54.5579 85.9997 54.5579H86.3863C86.4627 54.5579 86.5247 54.5769 86.5724 54.6151C86.6202 54.6533 86.644 54.7058 86.644 54.7726L86.6154 54.8872L83.8519 62.6908C83.6992 63.1204 83.5512 63.4545 83.408 63.6931C83.2648 63.9318 83.0691 64.1132 82.821 64.2373C82.5823 64.3614 82.2673 64.4234 81.8759 64.4234C81.6277 64.4234 81.4082 64.4043 81.2173 64.3661C81.1218 64.3566 81.055 64.3184 81.0168 64.2516C80.9882 64.1848 80.9834 64.1084 81.0025 64.0225L81.0454 63.8363C81.0836 63.6645 81.1934 63.5881 81.3748 63.6072C81.5466 63.6359 81.6946 63.6502 81.8186 63.6502C82.1241 63.6502 82.3628 63.5643 82.5346 63.3925C82.7159 63.2206 82.8878 62.8961 83.0501 62.4188L83.1789 62.0179L80.6588 54.8872L80.6302 54.7726C80.6302 54.7058 80.6541 54.6533 80.7018 54.6151C80.7495 54.5769 80.8116 54.5579 80.8879 54.5579H81.3032C81.4559 54.5579 81.5609 54.6342 81.6182 54.7869L82.42 57.1495C82.4964 57.3882 82.6873 57.9561 82.9928 58.8534L83.6371 60.7865C83.9521 59.8987 84.3674 58.6768 84.8828 57.1209L85.6704 54.7869ZM90.8798 61.8031C90.2211 61.8031 89.6341 61.6456 89.1186 61.3306C88.6031 61.0156 88.2022 60.5812 87.9158 60.0276C87.6294 59.4644 87.4863 58.82 87.4863 58.0946C87.4863 57.3691 87.6294 56.7295 87.9158 56.1759C88.2022 55.6127 88.6031 55.1736 89.1186 54.8585C89.6341 54.5435 90.2211 54.386 90.8798 54.386C91.5384 54.386 92.1255 54.5435 92.641 54.8585C93.1564 55.1736 93.5574 55.6127 93.8437 56.1759C94.1301 56.7295 94.2733 57.3691 94.2733 58.0946C94.2733 58.82 94.1301 59.4644 93.8437 60.0276C93.5574 60.5812 93.1564 61.0156 92.641 61.3306C92.1255 61.6456 91.5384 61.8031 90.8798 61.8031ZM90.8798 61.0156C91.6148 61.0156 92.2019 60.7483 92.641 60.2137C93.0801 59.6696 93.2996 58.9632 93.2996 58.0946C93.2996 57.2259 93.0801 56.5243 92.641 55.9897C92.2019 55.4456 91.6148 55.1736 90.8798 55.1736C90.1448 55.1736 89.5577 55.4456 89.1186 55.9897C88.6795 56.5243 88.4599 57.2259 88.4599 58.0946C88.4599 58.9632 88.6795 59.6696 89.1186 60.2137C89.5577 60.7483 90.1448 61.0156 90.8798 61.0156ZM100.497 54.8442C100.497 54.6533 100.593 54.5579 100.783 54.5579H101.156C101.347 54.5579 101.442 54.6533 101.442 54.8442V61.3306C101.442 61.5215 101.347 61.6169 101.156 61.6169H100.855C100.664 61.6169 100.569 61.5215 100.569 61.3306V60.6862C100.359 61.0585 100.058 61.3401 99.6666 61.531C99.2848 61.7124 98.8648 61.8031 98.4066 61.8031C97.5475 61.8031 96.9127 61.5883 96.5022 61.1587C96.0917 60.7196 95.8865 60.1564 95.8865 59.4691V54.8442C95.8865 54.6533 95.9819 54.5579 96.1729 54.5579H96.5451C96.7361 54.5579 96.8315 54.6533 96.8315 54.8442V59.2687C96.8315 59.8319 96.9699 60.2614 97.2468 60.5574C97.5331 60.8437 97.9388 60.9869 98.4638 60.9869C99.0557 60.9869 99.5425 60.8056 99.9243 60.4428C100.306 60.0801 100.497 59.5646 100.497 58.8964V54.8442ZM112.004 59.9417C112.071 59.8748 112.143 59.8414 112.219 59.8414C112.286 59.8414 112.348 59.8701 112.405 59.9273L112.591 60.0992C112.658 60.166 112.692 60.2376 112.692 60.3139C112.692 60.3712 112.663 60.438 112.606 60.5144C112.138 60.9822 111.684 61.3163 111.245 61.5167C110.806 61.7076 110.315 61.8031 109.771 61.8031C109.083 61.8031 108.487 61.6504 107.981 61.3449C107.475 61.0394 107.083 60.6146 106.807 60.0705C106.53 59.5169 106.391 58.8773 106.391 58.1518C106.391 57.4168 106.525 56.7677 106.792 56.2045C107.069 55.6318 107.456 55.1879 107.952 54.8729C108.448 54.5483 109.021 54.386 109.67 54.386C110.634 54.386 111.393 54.6867 111.947 55.2881C112.501 55.8895 112.777 56.7009 112.777 57.7223V57.8941C112.768 57.98 112.734 58.0468 112.677 58.0946C112.629 58.1423 112.563 58.1662 112.477 58.1662H107.351C107.379 58.968 107.589 59.6457 107.981 60.1994C108.382 60.7435 108.978 61.0156 109.771 61.0156C110.2 61.0156 110.577 60.9392 110.902 60.7865C111.236 60.6242 111.603 60.3426 112.004 59.9417ZM109.67 55.1736C109.04 55.1736 108.52 55.3692 108.11 55.7606C107.709 56.1424 107.465 56.7056 107.379 57.4502H111.832C111.813 56.7534 111.613 56.1997 111.231 55.7893C110.849 55.3788 110.329 55.1736 109.67 55.1736ZM117.621 54.386C118.451 54.386 119.076 54.6151 119.496 55.0733C119.926 55.5315 120.141 56.1043 120.141 56.7916V61.3306C120.141 61.5215 120.045 61.6169 119.854 61.6169H119.482C119.291 61.6169 119.196 61.5215 119.196 61.3306V57.1066C119.196 56.4766 119.043 55.9993 118.738 55.6747C118.432 55.3501 117.993 55.1879 117.42 55.1879C117.058 55.1879 116.723 55.2786 116.418 55.4599C116.113 55.6318 115.869 55.8704 115.688 56.1759C115.506 56.4813 115.416 56.8154 115.416 57.1782V61.3306C115.416 61.5215 115.32 61.6169 115.129 61.6169H114.757C114.566 61.6169 114.471 61.5215 114.471 61.3306V54.8442C114.471 54.6533 114.566 54.5579 114.757 54.5579H115.072C115.263 54.5579 115.358 54.6533 115.358 54.8442V55.5315C115.597 55.1497 115.912 54.8633 116.303 54.6724C116.695 54.4815 117.134 54.386 117.621 54.386ZM122.747 52.768C122.556 52.768 122.394 52.7012 122.26 52.5676C122.136 52.4339 122.074 52.2716 122.074 52.0807C122.074 51.8898 122.136 51.7323 122.26 51.6082C122.394 51.4841 122.556 51.4221 122.747 51.4221C122.947 51.4221 123.109 51.4841 123.234 51.6082C123.367 51.7323 123.434 51.8898 123.434 52.0807C123.434 52.2716 123.367 52.4339 123.234 52.5676C123.109 52.7012 122.947 52.768 122.747 52.768ZM121.315 64.4234C121 64.4234 120.647 64.3804 120.255 64.2945C120.083 64.2373 120.021 64.1179 120.069 63.9366L120.126 63.7361C120.145 63.6502 120.188 63.5881 120.255 63.55C120.313 63.5213 120.384 63.5166 120.47 63.5356C120.747 63.6025 121.014 63.6359 121.272 63.6359C121.644 63.6359 121.902 63.5213 122.045 63.2922C122.198 63.0727 122.274 62.7338 122.274 62.2756V54.8442C122.274 54.6533 122.37 54.5579 122.561 54.5579H122.933C123.124 54.5579 123.219 54.6533 123.219 54.8442V62.3042C123.219 62.982 123.062 63.5022 122.747 63.865C122.441 64.2373 121.964 64.4234 121.315 64.4234ZM128.242 61.8031C127.584 61.8031 126.997 61.6456 126.481 61.3306C125.966 61.0156 125.565 60.5812 125.279 60.0276C124.992 59.4644 124.849 58.82 124.849 58.0946C124.849 57.3691 124.992 56.7295 125.279 56.1759C125.565 55.6127 125.966 55.1736 126.481 54.8585C126.997 54.5435 127.584 54.386 128.242 54.386C128.901 54.386 129.488 54.5435 130.004 54.8585C130.519 55.1736 130.92 55.6127 131.206 56.1759C131.493 56.7295 131.636 57.3691 131.636 58.0946C131.636 58.82 131.493 59.4644 131.206 60.0276C130.92 60.5812 130.519 61.0156 130.004 61.3306C129.488 61.6456 128.901 61.8031 128.242 61.8031ZM128.242 61.0156C128.978 61.0156 129.565 60.7483 130.004 60.2137C130.443 59.6696 130.662 58.9632 130.662 58.0946C130.662 57.2259 130.443 56.5243 130.004 55.9897C129.565 55.4456 128.978 55.1736 128.242 55.1736C127.507 55.1736 126.92 55.4456 126.481 55.9897C126.042 56.5243 125.823 57.2259 125.823 58.0946C125.823 58.9632 126.042 59.6696 126.481 60.2137C126.92 60.7483 127.507 61.0156 128.242 61.0156ZM137.547 54.7869C137.605 54.6342 137.715 54.5579 137.877 54.5579H138.263C138.34 54.5579 138.402 54.5769 138.45 54.6151C138.497 54.6533 138.521 54.7058 138.521 54.7726L138.493 54.8872L135.729 62.6908C135.576 63.1204 135.428 63.4545 135.285 63.6931C135.142 63.9318 134.946 64.1132 134.698 64.2373C134.459 64.3614 134.144 64.4234 133.753 64.4234C133.505 64.4234 133.285 64.4043 133.094 64.3661C132.999 64.3566 132.932 64.3184 132.894 64.2516C132.865 64.1848 132.861 64.1084 132.88 64.0225L132.923 63.8363C132.961 63.6645 133.071 63.5881 133.252 63.6072C133.424 63.6359 133.572 63.6502 133.696 63.6502C134.001 63.6502 134.24 63.5643 134.412 63.3925C134.593 63.2206 134.765 62.8961 134.927 62.4188L135.056 62.0179L132.536 54.8872L132.507 54.7726C132.507 54.7058 132.531 54.6533 132.579 54.6151C132.627 54.5769 132.689 54.5579 132.765 54.5579H133.18C133.333 54.5579 133.438 54.6342 133.495 54.7869L134.297 57.1495C134.374 57.3882 134.564 57.9561 134.87 58.8534L135.514 60.7865C135.829 59.8987 136.244 58.6768 136.76 57.1209L137.547 54.7869ZM146.029 61.8031C145.37 61.8031 144.783 61.6456 144.268 61.3306C143.752 61.0156 143.351 60.5812 143.065 60.0276C142.779 59.4644 142.635 58.82 142.635 58.0946C142.635 57.3691 142.779 56.7295 143.065 56.1759C143.351 55.6127 143.752 55.1736 144.268 54.8585C144.783 54.5435 145.37 54.386 146.029 54.386C146.688 54.386 147.275 54.5435 147.79 54.8585C148.306 55.1736 148.707 55.6127 148.993 56.1759C149.279 56.7295 149.422 57.3691 149.422 58.0946C149.422 58.82 149.279 59.4644 148.993 60.0276C148.707 60.5812 148.306 61.0156 147.79 61.3306C147.275 61.6456 146.688 61.8031 146.029 61.8031ZM146.029 61.0156C146.764 61.0156 147.351 60.7483 147.79 60.2137C148.229 59.6696 148.449 58.9632 148.449 58.0946C148.449 57.2259 148.229 56.5243 147.79 55.9897C147.351 55.4456 146.764 55.1736 146.029 55.1736C145.294 55.1736 144.707 55.4456 144.268 55.9897C143.829 56.5243 143.609 57.2259 143.609 58.0946C143.609 58.9632 143.829 59.6696 144.268 60.2137C144.707 60.7483 145.294 61.0156 146.029 61.0156ZM155.646 54.8442C155.646 54.6533 155.742 54.5579 155.933 54.5579H156.305C156.496 54.5579 156.591 54.6533 156.591 54.8442V61.3306C156.591 61.5215 156.496 61.6169 156.305 61.6169H156.004C155.813 61.6169 155.718 61.5215 155.718 61.3306V60.6862C155.508 61.0585 155.207 61.3401 154.816 61.531C154.434 61.7124 154.014 61.8031 153.556 61.8031C152.697 61.8031 152.062 61.5883 151.651 61.1587C151.241 60.7196 151.036 60.1564 151.036 59.4691V54.8442C151.036 54.6533 151.131 54.5579 151.322 54.5579H151.694C151.885 54.5579 151.981 54.6533 151.981 54.8442V59.2687C151.981 59.8319 152.119 60.2614 152.396 60.5574C152.682 60.8437 153.088 60.9869 153.613 60.9869C154.205 60.9869 154.692 60.8056 155.073 60.4428C155.455 60.0801 155.646 59.5646 155.646 58.8964V54.8442ZM161.348 54.5006C161.586 54.5006 161.868 54.5388 162.192 54.6151C162.364 54.6724 162.431 54.7917 162.393 54.9731L162.336 55.2022C162.288 55.3836 162.169 55.4504 161.978 55.4027C161.749 55.3454 161.539 55.3167 161.348 55.3167C160.861 55.3167 160.455 55.5267 160.131 55.9468C159.816 56.3668 159.658 56.9491 159.658 57.6936V61.3306C159.658 61.5215 159.563 61.6169 159.372 61.6169H158.999C158.808 61.6169 158.713 61.5215 158.713 61.3306V54.8442C158.713 54.6533 158.808 54.5579 158.999 54.5579H159.314C159.505 54.5579 159.601 54.6533 159.601 54.8442V55.6318C159.763 55.2786 159.992 55.0017 160.288 54.8013C160.594 54.6008 160.947 54.5006 161.348 54.5006ZM169.698 54.386C170.566 54.386 171.244 54.596 171.731 55.016C172.218 55.4265 172.461 55.9706 172.461 56.6484V61.3306C172.461 61.5215 172.366 61.6169 172.175 61.6169H171.888C171.697 61.6169 171.602 61.5215 171.602 61.3306V60.6862C171.363 61.0681 171.024 61.3544 170.585 61.5454C170.156 61.7363 169.674 61.8317 169.139 61.8317C168.395 61.8317 167.788 61.6742 167.321 61.3592C166.853 61.0442 166.619 60.5574 166.619 59.8987C166.619 59.3737 166.767 58.9537 167.063 58.6387C167.359 58.3141 167.745 58.0707 168.223 57.9084C168.7 57.7366 169.297 57.5839 170.013 57.4502L171.559 57.1782V56.72C171.559 56.2331 171.392 55.8561 171.058 55.5888C170.724 55.312 170.285 55.1736 169.74 55.1736C169.33 55.1736 168.958 55.2499 168.624 55.4027C168.29 55.5554 167.932 55.8179 167.55 56.1902C167.483 56.257 167.411 56.2904 167.335 56.2904C167.268 56.2904 167.206 56.2618 167.149 56.2045L166.963 56.0327C166.896 55.9659 166.862 55.8943 166.862 55.8179C166.862 55.732 166.896 55.6556 166.963 55.5888C167.364 55.1688 167.784 54.8633 168.223 54.6724C168.671 54.4815 169.163 54.386 169.698 54.386ZM169.182 61.0442C169.869 61.0442 170.437 60.8628 170.886 60.5001C171.335 60.1374 171.559 59.6744 171.559 59.1112V57.9084L170.227 58.1662C169.607 58.2902 169.115 58.4096 168.753 58.5241C168.39 58.6387 168.099 58.8057 167.879 59.0253C167.66 59.2448 167.55 59.5312 167.55 59.8844C167.55 60.2471 167.693 60.5335 167.979 60.7435C168.275 60.944 168.676 61.0442 169.182 61.0442ZM177.935 54.4003C178.527 54.4003 179.057 54.5579 179.524 54.8729C180.002 55.1783 180.374 55.6127 180.641 56.1759C180.909 56.7295 181.042 57.3643 181.042 58.0802C181.042 58.8057 180.909 59.4501 180.641 60.0133C180.374 60.5765 180.006 61.0156 179.539 61.3306C179.071 61.636 178.536 61.7888 177.935 61.7888C176.828 61.7888 176.016 61.3831 175.501 60.5717V63.9652C175.501 64.1561 175.405 64.2516 175.214 64.2516H174.842C174.651 64.2516 174.556 64.1561 174.556 63.9652V54.8442C174.556 54.6533 174.651 54.5579 174.842 54.5579H175.157C175.348 54.5579 175.444 54.6533 175.444 54.8442V55.7463C175.701 55.3072 176.04 54.9731 176.46 54.744C176.88 54.5149 177.372 54.4003 177.935 54.4003ZM177.863 60.9869C178.532 60.9869 179.066 60.7196 179.467 60.1851C179.868 59.6505 180.068 58.9489 180.068 58.0802C180.068 57.2211 179.868 56.5291 179.467 56.004C179.066 55.4695 178.532 55.2022 177.863 55.2022C177.147 55.2022 176.565 55.4599 176.117 55.9754C175.677 56.4813 175.458 57.1829 175.458 58.0802C175.458 58.9775 175.682 59.6887 176.131 60.2137C176.58 60.7292 177.157 60.9869 177.863 60.9869ZM186.101 54.4003C186.693 54.4003 187.223 54.5579 187.69 54.8729C188.168 55.1783 188.54 55.6127 188.807 56.1759C189.075 56.7295 189.208 57.3643 189.208 58.0802C189.208 58.8057 189.075 59.4501 188.807 60.0133C188.54 60.5765 188.173 61.0156 187.705 61.3306C187.237 61.636 186.702 61.7888 186.101 61.7888C184.994 61.7888 184.182 61.3831 183.667 60.5717V63.9652C183.667 64.1561 183.571 64.2516 183.381 64.2516H183.008C182.817 64.2516 182.722 64.1561 182.722 63.9652V54.8442C182.722 54.6533 182.817 54.5579 183.008 54.5579H183.323C183.514 54.5579 183.61 54.6533 183.61 54.8442V55.7463C183.867 55.3072 184.206 54.9731 184.626 54.744C185.046 54.5149 185.538 54.4003 186.101 54.4003ZM186.03 60.9869C186.698 60.9869 187.232 60.7196 187.633 60.1851C188.034 59.6505 188.235 58.9489 188.235 58.0802C188.235 57.2211 188.034 56.5291 187.633 56.004C187.232 55.4695 186.698 55.2022 186.03 55.2022C185.314 55.2022 184.731 55.4599 184.283 55.9754C183.844 56.4813 183.624 57.1829 183.624 58.0802C183.624 58.9775 183.848 59.6887 184.297 60.2137C184.746 60.7292 185.323 60.9869 186.03 60.9869ZM191.135 60.2567C191.393 60.2567 191.603 60.3569 191.765 60.5574C191.937 60.7483 192.023 61.0394 192.023 61.4308C192.023 61.8222 191.908 62.204 191.679 62.5763C191.459 62.9581 191.154 63.2015 190.762 63.3065L190.691 63.3209C190.615 63.3209 190.552 63.2922 190.505 63.235C190.467 63.1872 190.447 63.1204 190.447 63.0345C190.447 62.9772 190.467 62.9295 190.505 62.8913C190.543 62.8627 190.6 62.8293 190.677 62.7911C190.868 62.7052 191.03 62.562 191.163 62.3615C191.297 62.1611 191.373 61.932 191.393 61.6742C191.307 61.7029 191.216 61.7172 191.12 61.7172C190.92 61.7172 190.748 61.6504 190.605 61.5167C190.471 61.3831 190.405 61.2112 190.405 61.0012C190.405 60.7912 190.476 60.6146 190.619 60.4715C190.762 60.3283 190.934 60.2567 191.135 60.2567ZM204.678 54.8013C204.716 54.639 204.826 54.5579 205.007 54.5579H205.394C205.499 54.5579 205.571 54.5865 205.609 54.6438C205.657 54.701 205.666 54.7774 205.637 54.8729L203.79 61.3735C203.752 61.5358 203.642 61.6169 203.461 61.6169H202.817C202.654 61.6169 202.549 61.5358 202.502 61.3735L201.843 59.1828C201.499 58.0373 201.18 56.8632 200.884 55.6604C200.597 56.825 200.282 58.0086 199.939 59.2114L199.309 61.3735C199.27 61.5358 199.161 61.6169 198.979 61.6169H198.364C198.182 61.6169 198.072 61.5358 198.034 61.3735L196.187 54.8729C196.178 54.8538 196.173 54.8204 196.173 54.7726C196.173 54.7058 196.197 54.6533 196.244 54.6151C196.292 54.5769 196.354 54.5579 196.431 54.5579H196.817C196.999 54.5579 197.108 54.639 197.146 54.8013L197.834 57.3357C198.149 58.4907 198.44 59.641 198.707 60.7865C198.917 59.9369 199.227 58.7866 199.638 57.3357L200.368 54.8013C200.406 54.639 200.516 54.5579 200.698 54.5579H201.127C201.299 54.5579 201.404 54.639 201.442 54.8013L202.187 57.3357C202.511 58.5098 202.817 59.6648 203.103 60.8008C203.323 59.8462 203.619 58.6912 203.991 57.3357L204.678 54.8013ZM209.945 61.8031C209.287 61.8031 208.7 61.6456 208.184 61.3306C207.669 61.0156 207.268 60.5812 206.981 60.0276C206.695 59.4644 206.552 58.82 206.552 58.0946C206.552 57.3691 206.695 56.7295 206.981 56.1759C207.268 55.6127 207.669 55.1736 208.184 54.8585C208.7 54.5435 209.287 54.386 209.945 54.386C210.604 54.386 211.191 54.5435 211.707 54.8585C212.222 55.1736 212.623 55.6127 212.909 56.1759C213.196 56.7295 213.339 57.3691 213.339 58.0946C213.339 58.82 213.196 59.4644 212.909 60.0276C212.623 60.5812 212.222 61.0156 211.707 61.3306C211.191 61.6456 210.604 61.8031 209.945 61.8031ZM209.945 61.0156C210.68 61.0156 211.268 60.7483 211.707 60.2137C212.146 59.6696 212.365 58.9632 212.365 58.0946C212.365 57.2259 212.146 56.5243 211.707 55.9897C211.268 55.4456 210.68 55.1736 209.945 55.1736C209.21 55.1736 208.623 55.4456 208.184 55.9897C207.745 56.5243 207.526 57.2259 207.526 58.0946C207.526 58.9632 207.745 59.6696 208.184 60.2137C208.623 60.7483 209.21 61.0156 209.945 61.0156ZM219.563 54.8442C219.563 54.6533 219.658 54.5579 219.849 54.5579H220.221C220.412 54.5579 220.508 54.6533 220.508 54.8442V61.3306C220.508 61.5215 220.412 61.6169 220.221 61.6169H219.921C219.73 61.6169 219.634 61.5215 219.634 61.3306V60.6862C219.424 61.0585 219.124 61.3401 218.732 61.531C218.35 61.7124 217.93 61.8031 217.472 61.8031C216.613 61.8031 215.978 61.5883 215.568 61.1587C215.157 60.7196 214.952 60.1564 214.952 59.4691V54.8442C214.952 54.6533 215.048 54.5579 215.239 54.5579H215.611C215.802 54.5579 215.897 54.6533 215.897 54.8442V59.2687C215.897 59.8319 216.036 60.2614 216.312 60.5574C216.599 60.8437 217.005 60.9869 217.53 60.9869C218.121 60.9869 218.608 60.8056 218.99 60.4428C219.372 60.0801 219.563 59.5646 219.563 58.8964V54.8442ZM222.93 61.6169C222.739 61.6169 222.644 61.5215 222.644 61.3306V51.7371C222.644 51.5462 222.739 51.4507 222.93 51.4507H223.303C223.493 51.4507 223.589 51.5462 223.589 51.7371V61.3306C223.589 61.5215 223.493 61.6169 223.303 61.6169H222.93ZM230.817 51.7371C230.817 51.5462 230.913 51.4507 231.104 51.4507H231.476C231.667 51.4507 231.762 51.5462 231.762 51.7371V61.3306C231.762 61.5215 231.667 61.6169 231.476 61.6169H231.175C230.984 61.6169 230.889 61.5215 230.889 61.3306V60.3999C230.631 60.8485 230.292 61.1922 229.872 61.4308C229.452 61.6694 228.956 61.7888 228.383 61.7888C227.782 61.7888 227.247 61.636 226.779 61.3306C226.312 61.0156 225.944 60.5812 225.677 60.0276C225.41 59.4644 225.276 58.82 225.276 58.0946C225.276 57.3691 225.41 56.7295 225.677 56.1759C225.954 55.6127 226.331 55.1783 226.808 54.8729C227.285 54.5579 227.82 54.4003 228.412 54.4003C229.5 54.4003 230.302 54.806 230.817 55.6174V51.7371ZM228.455 60.9869C229.171 60.9869 229.748 60.734 230.187 60.228C230.636 59.7126 230.86 59.0014 230.86 58.0946C230.86 57.1973 230.636 56.4909 230.187 55.9754C229.748 55.4599 229.171 55.2022 228.455 55.2022C227.796 55.2022 227.261 55.4695 226.851 56.004C226.45 56.5386 226.25 57.2354 226.25 58.0946C226.25 58.9632 226.45 59.6648 226.851 60.1994C227.252 60.7244 227.786 60.9869 228.455 60.9869ZM241.428 54.7869C241.485 54.6342 241.595 54.5579 241.757 54.5579H242.143C242.22 54.5579 242.282 54.5769 242.33 54.6151C242.377 54.6533 242.401 54.7058 242.401 54.7726L242.373 54.8872L239.609 62.6908C239.456 63.1204 239.308 63.4545 239.165 63.6931C239.022 63.9318 238.826 64.1132 238.578 64.2373C238.34 64.3614 238.025 64.4234 237.633 64.4234C237.385 64.4234 237.165 64.4043 236.974 64.3661C236.879 64.3566 236.812 64.3184 236.774 64.2516C236.745 64.1848 236.741 64.1084 236.76 64.0225L236.803 63.8363C236.841 63.6645 236.951 63.5881 237.132 63.6072C237.304 63.6359 237.452 63.6502 237.576 63.6502C237.881 63.6502 238.12 63.5643 238.292 63.3925C238.473 63.2206 238.645 62.8961 238.807 62.4188L238.936 62.0179L236.416 54.8872L236.387 54.7726C236.387 54.7058 236.411 54.6533 236.459 54.6151C236.507 54.5769 236.569 54.5579 236.645 54.5579H237.06C237.213 54.5579 237.318 54.6342 237.375 54.7869L238.177 57.1495C238.254 57.3882 238.445 57.9561 238.75 58.8534L239.394 60.7865C239.709 59.8987 240.125 58.6768 240.64 57.1209L241.428 54.7869ZM246.637 61.8031C245.978 61.8031 245.391 61.6456 244.876 61.3306C244.36 61.0156 243.959 60.5812 243.673 60.0276C243.387 59.4644 243.243 58.82 243.243 58.0946C243.243 57.3691 243.387 56.7295 243.673 56.1759C243.959 55.6127 244.36 55.1736 244.876 54.8585C245.391 54.5435 245.978 54.386 246.637 54.386C247.296 54.386 247.883 54.5435 248.398 54.8585C248.914 55.1736 249.315 55.6127 249.601 56.1759C249.887 56.7295 250.03 57.3691 250.03 58.0946C250.03 58.82 249.887 59.4644 249.601 60.0276C249.315 60.5812 248.914 61.0156 248.398 61.3306C247.883 61.6456 247.296 61.8031 246.637 61.8031ZM246.637 61.0156C247.372 61.0156 247.959 60.7483 248.398 60.2137C248.837 59.6696 249.057 58.9632 249.057 58.0946C249.057 57.2259 248.837 56.5243 248.398 55.9897C247.959 55.4456 247.372 55.1736 246.637 55.1736C245.902 55.1736 245.315 55.4456 244.876 55.9897C244.437 56.5243 244.217 57.2259 244.217 58.0946C244.217 58.9632 244.437 59.6696 244.876 60.2137C245.315 60.7483 245.902 61.0156 246.637 61.0156ZM256.254 54.8442C256.254 54.6533 256.35 54.5579 256.541 54.5579H256.913C257.104 54.5579 257.199 54.6533 257.199 54.8442V61.3306C257.199 61.5215 257.104 61.6169 256.913 61.6169H256.612C256.421 61.6169 256.326 61.5215 256.326 61.3306V60.6862C256.116 61.0585 255.815 61.3401 255.424 61.531C255.042 61.7124 254.622 61.8031 254.164 61.8031C253.305 61.8031 252.67 61.5883 252.259 61.1587C251.849 60.7196 251.644 60.1564 251.644 59.4691V54.8442C251.644 54.6533 251.739 54.5579 251.93 54.5579H252.302C252.493 54.5579 252.589 54.6533 252.589 54.8442V59.2687C252.589 59.8319 252.727 60.2614 253.004 60.5574C253.29 60.8437 253.696 60.9869 254.221 60.9869C254.813 60.9869 255.3 60.8056 255.682 60.4428C256.063 60.0801 256.254 59.5646 256.254 58.8964V54.8442ZM76.8705 73.386C77.6342 73.386 78.2165 73.6056 78.6174 74.0447C79.0279 74.4742 79.2331 75.0279 79.2331 75.7056V80.3306C79.2331 80.5215 79.1377 80.6169 78.9468 80.6169H78.5745C78.3836 80.6169 78.2881 80.5215 78.2881 80.3306V75.9634C78.2881 75.3906 78.1545 74.9515 77.8872 74.6461C77.6294 74.3406 77.2428 74.1879 76.7274 74.1879C76.1833 74.1879 75.7489 74.3692 75.4244 74.732C75.0998 75.0947 74.9375 75.5625 74.9375 76.1352V80.3306C74.9375 80.5215 74.8421 80.6169 74.6512 80.6169H74.2789C74.088 80.6169 73.9925 80.5215 73.9925 80.3306V75.9634C73.9925 75.3906 73.8589 74.9515 73.5916 74.6461C73.3338 74.3406 72.9425 74.1879 72.4175 74.1879C71.9306 74.1879 71.5249 74.3406 71.2004 74.6461C70.8854 74.9515 70.6992 75.3525 70.6419 75.8488V80.3306C70.6419 80.5215 70.5465 80.6169 70.3556 80.6169H69.9833C69.7924 80.6169 69.6969 80.5215 69.6969 80.3306V73.8442C69.6969 73.6533 69.7924 73.5579 69.9833 73.5579H70.2983C70.4892 73.5579 70.5847 73.6533 70.5847 73.8442V74.4313C71.0142 73.7344 71.6967 73.386 72.6322 73.386C73.1191 73.386 73.5343 73.4958 73.878 73.7154C74.2311 73.9254 74.4937 74.2117 74.6655 74.5745C75.1714 73.7822 75.9064 73.386 76.8705 73.386ZM81.7893 71.768C81.5984 71.768 81.4361 71.7012 81.3025 71.5676C81.1784 71.4339 81.1164 71.2716 81.1164 71.0807C81.1164 70.8898 81.1784 70.7323 81.3025 70.6082C81.4361 70.4841 81.5984 70.4221 81.7893 70.4221C81.9898 70.4221 82.1521 70.4841 82.2762 70.6082C82.4098 70.7323 82.4766 70.8898 82.4766 71.0807C82.4766 71.2716 82.4098 71.4339 82.2762 71.5676C82.1521 71.7012 81.9898 71.768 81.7893 71.768ZM81.6032 80.6169C81.4123 80.6169 81.3168 80.5215 81.3168 80.3306V73.8442C81.3168 73.6533 81.4123 73.5579 81.6032 73.5579H81.9755C82.1664 73.5579 82.2619 73.6533 82.2619 73.8442V80.3306C82.2619 80.5215 82.1664 80.6169 81.9755 80.6169H81.6032ZM87.5152 73.386C88.3457 73.386 88.971 73.6151 89.391 74.0733C89.8205 74.5315 90.0353 75.1043 90.0353 75.7916V80.3306C90.0353 80.5215 89.9399 80.6169 89.7489 80.6169H89.3767C89.1857 80.6169 89.0903 80.5215 89.0903 80.3306V76.1066C89.0903 75.4766 88.9375 74.9993 88.6321 74.6747C88.3266 74.3501 87.8875 74.1879 87.3148 74.1879C86.952 74.1879 86.6179 74.2786 86.3125 74.4599C86.007 74.6318 85.7636 74.8704 85.5822 75.1759C85.4008 75.4813 85.3102 75.8154 85.3102 76.1782V80.3306C85.3102 80.5215 85.2147 80.6169 85.0238 80.6169H84.6515C84.4606 80.6169 84.3651 80.5215 84.3651 80.3306V73.8442C84.3651 73.6533 84.4606 73.5579 84.6515 73.5579H84.9665C85.1574 73.5579 85.2529 73.6533 85.2529 73.8442V74.5315C85.4915 74.1497 85.8065 73.8633 86.1979 73.6724C86.5893 73.4815 87.0284 73.386 87.5152 73.386ZM97.2232 70.7371C97.2232 70.5462 97.3186 70.4507 97.5095 70.4507H97.8818C98.0727 70.4507 98.1682 70.5462 98.1682 70.7371V80.3306C98.1682 80.5215 98.0727 80.6169 97.8818 80.6169H97.5811C97.3902 80.6169 97.2948 80.5215 97.2948 80.3306V79.3999C97.037 79.8485 96.6981 80.1922 96.2781 80.4308C95.8581 80.6694 95.3617 80.7888 94.789 80.7888C94.1876 80.7888 93.653 80.636 93.1853 80.3306C92.7176 80.0156 92.35 79.5812 92.0828 79.0276C91.8155 78.4644 91.6818 77.82 91.6818 77.0946C91.6818 76.3691 91.8155 75.7295 92.0828 75.1759C92.3596 74.6127 92.7367 74.1783 93.2139 73.8729C93.6912 73.5579 94.2258 73.4003 94.8176 73.4003C95.9058 73.4003 96.7077 73.806 97.2232 74.6174V70.7371ZM94.8606 79.9869C95.5765 79.9869 96.154 79.734 96.5931 79.228C97.0418 78.7126 97.2661 78.0014 97.2661 77.0946C97.2661 76.1973 97.0418 75.4909 96.5931 74.9754C96.154 74.4599 95.5765 74.2022 94.8606 74.2022C94.2019 74.2022 93.6674 74.4695 93.2569 75.004C92.856 75.5386 92.6555 76.2354 92.6555 77.0946C92.6555 77.9632 92.856 78.6648 93.2569 79.1994C93.6578 79.7244 94.1924 79.9869 94.8606 79.9869ZM106.771 79.8294C106.799 79.8199 106.837 79.8151 106.885 79.8151C106.942 79.8151 106.995 79.8342 107.043 79.8724C107.09 79.9106 107.119 79.9631 107.129 80.0299L107.171 80.2303C107.181 80.2494 107.186 80.2828 107.186 80.3306C107.186 80.4642 107.114 80.5454 106.971 80.574C106.627 80.679 106.26 80.7315 105.868 80.7315C105.248 80.7315 104.804 80.5931 104.537 80.3163C104.279 80.0299 104.15 79.6194 104.15 79.0848V74.2738H103.091C102.9 74.2738 102.804 74.1783 102.804 73.9874V73.8442C102.804 73.6533 102.9 73.5579 103.091 73.5579H104.15V71.3814C104.15 71.1905 104.246 71.095 104.437 71.095H104.809C105 71.095 105.095 71.1905 105.095 71.3814V73.5579H106.814C107.004 73.5579 107.1 73.6533 107.1 73.8442V73.9874C107.1 74.1783 107.004 74.2738 106.814 74.2738H105.095V78.9703C105.095 79.3235 105.162 79.5717 105.296 79.7149C105.429 79.8581 105.658 79.9296 105.983 79.9296C106.212 79.9296 106.475 79.8962 106.771 79.8294ZM111.276 73.386C112.145 73.386 112.823 73.596 113.31 74.016C113.796 74.4265 114.04 74.9706 114.04 75.6484V80.3306C114.04 80.5215 113.944 80.6169 113.753 80.6169H113.467C113.276 80.6169 113.181 80.5215 113.181 80.3306V79.6862C112.942 80.0681 112.603 80.3544 112.164 80.5454C111.735 80.7363 111.252 80.8317 110.718 80.8317C109.973 80.8317 109.367 80.6742 108.899 80.3592C108.432 80.0442 108.198 79.5574 108.198 78.8987C108.198 78.3737 108.346 77.9537 108.642 77.6387C108.938 77.3141 109.324 77.0707 109.802 76.9084C110.279 76.7366 110.875 76.5839 111.591 76.4502L113.138 76.1782V75.72C113.138 75.2331 112.971 74.8561 112.637 74.5888C112.303 74.312 111.863 74.1736 111.319 74.1736C110.909 74.1736 110.537 74.2499 110.202 74.4027C109.868 74.5554 109.51 74.8179 109.129 75.1902C109.062 75.257 108.99 75.2904 108.914 75.2904C108.847 75.2904 108.785 75.2618 108.728 75.2045L108.541 75.0327C108.475 74.9659 108.441 74.8943 108.441 74.8179C108.441 74.732 108.475 74.6556 108.541 74.5888C108.942 74.1688 109.362 73.8633 109.802 73.6724C110.25 73.4815 110.742 73.386 111.276 73.386ZM110.761 80.0442C111.448 80.0442 112.016 79.8628 112.465 79.5001C112.913 79.1374 113.138 78.6744 113.138 78.1112V76.9084L111.806 77.1662C111.186 77.2902 110.694 77.4096 110.331 77.5241C109.969 77.6387 109.677 77.8057 109.458 78.0253C109.238 78.2448 109.129 78.5312 109.129 78.8844C109.129 79.2471 109.272 79.5335 109.558 79.7435C109.854 79.944 110.255 80.0442 110.761 80.0442ZM121.232 80.6169C121.089 80.6169 120.974 80.5549 120.888 80.4308L118.469 76.9084L117.08 78.326V80.3306C117.08 80.5215 116.984 80.6169 116.793 80.6169H116.421C116.23 80.6169 116.135 80.5215 116.135 80.3306V70.7371C116.135 70.5462 116.23 70.4507 116.421 70.4507H116.793C116.984 70.4507 117.08 70.5462 117.08 70.7371V77.2521L120.516 73.6867C120.602 73.5913 120.721 73.5435 120.874 73.5435H121.275C121.351 73.5435 121.409 73.5626 121.447 73.6008C121.495 73.6294 121.518 73.6676 121.518 73.7154C121.518 73.7631 121.49 73.8251 121.433 73.9015L119.127 76.307L121.833 80.2733C121.872 80.3401 121.891 80.3974 121.891 80.4451C121.891 80.5597 121.814 80.6169 121.662 80.6169H121.232ZM123.738 71.768C123.548 71.768 123.385 71.7012 123.252 71.5676C123.128 71.4339 123.066 71.2716 123.066 71.0807C123.066 70.8898 123.128 70.7323 123.252 70.6082C123.385 70.4841 123.548 70.4221 123.738 70.4221C123.939 70.4221 124.101 70.4841 124.225 70.6082C124.359 70.7323 124.426 70.8898 124.426 71.0807C124.426 71.2716 124.359 71.4339 124.225 71.5676C124.101 71.7012 123.939 71.768 123.738 71.768ZM123.552 80.6169C123.361 80.6169 123.266 80.5215 123.266 80.3306V73.8442C123.266 73.6533 123.361 73.5579 123.552 73.5579H123.925C124.116 73.5579 124.211 73.6533 124.211 73.8442V80.3306C124.211 80.5215 124.116 80.6169 123.925 80.6169H123.552ZM129.464 73.386C130.295 73.386 130.92 73.6151 131.34 74.0733C131.77 74.5315 131.984 75.1043 131.984 75.7916V80.3306C131.984 80.5215 131.889 80.6169 131.698 80.6169H131.326C131.135 80.6169 131.039 80.5215 131.039 80.3306V76.1066C131.039 75.4766 130.887 74.9993 130.581 74.6747C130.276 74.3501 129.837 74.1879 129.264 74.1879C128.901 74.1879 128.567 74.2786 128.262 74.4599C127.956 74.6318 127.713 74.8704 127.531 75.1759C127.35 75.4813 127.259 75.8154 127.259 76.1782V80.3306C127.259 80.5215 127.164 80.6169 126.973 80.6169H126.601C126.41 80.6169 126.314 80.5215 126.314 80.3306V73.8442C126.314 73.6533 126.41 73.5579 126.601 73.5579H126.916C127.107 73.5579 127.202 73.6533 127.202 73.8442V74.5315C127.441 74.1497 127.756 73.8633 128.147 73.6724C128.538 73.4815 128.978 73.386 129.464 73.386ZM139.144 73.8442C139.144 73.6533 139.239 73.5579 139.43 73.5579H139.731C139.922 73.5579 140.017 73.6533 140.017 73.8442V80.5454C140.017 81.4331 139.75 82.1299 139.215 82.6359C138.681 83.1513 137.931 83.4091 136.967 83.4091C135.927 83.4091 134.967 83.1132 134.089 82.5213C133.994 82.464 133.946 82.3925 133.946 82.3065C133.946 82.2397 133.965 82.1824 134.003 82.1347L134.175 81.8913C134.232 81.7958 134.309 81.7481 134.404 81.7481C134.442 81.7481 134.5 81.7672 134.576 81.8054C134.996 82.0727 135.387 82.2731 135.75 82.4068C136.122 82.5404 136.528 82.6072 136.967 82.6072C137.597 82.6072 138.108 82.4306 138.499 82.0774C138.891 81.7338 139.086 81.1992 139.086 80.4738V79.3283C138.571 80.1587 137.788 80.574 136.738 80.574C136.127 80.574 135.588 80.4213 135.12 80.1158C134.652 79.8008 134.29 79.3712 134.032 78.8271C133.784 78.283 133.66 77.6673 133.66 76.98C133.66 76.2927 133.784 75.677 134.032 75.1329C134.29 74.5888 134.652 74.164 135.12 73.8585C135.588 73.5435 136.127 73.386 136.738 73.386C137.292 73.386 137.769 73.5054 138.17 73.744C138.58 73.9731 138.905 74.3024 139.144 74.732V73.8442ZM136.838 79.7721C137.526 79.7721 138.075 79.5144 138.485 78.9989C138.895 78.4739 139.101 77.8009 139.101 76.98C139.101 76.1591 138.895 75.4909 138.485 74.9754C138.075 74.4504 137.526 74.1879 136.838 74.1879C136.142 74.1879 135.597 74.4456 135.206 74.9611C134.824 75.4766 134.633 76.1495 134.633 76.98C134.633 77.8105 134.824 78.4835 135.206 78.9989C135.597 79.5144 136.142 79.7721 136.838 79.7721ZM148.164 73.386C149.032 73.386 149.71 73.596 150.197 74.016C150.684 74.4265 150.927 74.9706 150.927 75.6484V80.3306C150.927 80.5215 150.832 80.6169 150.641 80.6169H150.354C150.163 80.6169 150.068 80.5215 150.068 80.3306V79.6862C149.829 80.0681 149.49 80.3544 149.051 80.5454C148.622 80.7363 148.14 80.8317 147.605 80.8317C146.861 80.8317 146.254 80.6742 145.787 80.3592C145.319 80.0442 145.085 79.5574 145.085 78.8987C145.085 78.3737 145.233 77.9537 145.529 77.6387C145.825 77.3141 146.212 77.0707 146.689 76.9084C147.166 76.7366 147.763 76.5839 148.479 76.4502L150.025 76.1782V75.72C150.025 75.2331 149.858 74.8561 149.524 74.5888C149.19 74.312 148.751 74.1736 148.207 74.1736C147.796 74.1736 147.424 74.2499 147.09 74.4027C146.756 74.5554 146.398 74.8179 146.016 75.1902C145.949 75.257 145.877 75.2904 145.801 75.2904C145.734 75.2904 145.672 75.2618 145.615 75.2045L145.429 75.0327C145.362 74.9659 145.329 74.8943 145.329 74.8179C145.329 74.732 145.362 74.6556 145.429 74.5888C145.83 74.1688 146.25 73.8633 146.689 73.6724C147.137 73.4815 147.629 73.386 148.164 73.386ZM147.648 80.0442C148.335 80.0442 148.903 79.8628 149.352 79.5001C149.801 79.1374 150.025 78.6744 150.025 78.1112V76.9084L148.693 77.1662C148.073 77.2902 147.581 77.4096 147.219 77.5241C146.856 77.6387 146.565 77.8057 146.345 78.0253C146.126 78.2448 146.016 78.5312 146.016 78.8844C146.016 79.2471 146.159 79.5335 146.445 79.7435C146.741 79.944 147.142 80.0442 147.648 80.0442ZM163.496 73.386C164.259 73.386 164.842 73.6056 165.242 74.0447C165.653 74.4742 165.858 75.0279 165.858 75.7056V80.3306C165.858 80.5215 165.763 80.6169 165.572 80.6169H165.199C165.009 80.6169 164.913 80.5215 164.913 80.3306V75.9634C164.913 75.3906 164.779 74.9515 164.512 74.6461C164.254 74.3406 163.868 74.1879 163.352 74.1879C162.808 74.1879 162.374 74.3692 162.049 74.732C161.725 75.0947 161.563 75.5625 161.563 76.1352V80.3306C161.563 80.5215 161.467 80.6169 161.276 80.6169H160.904C160.713 80.6169 160.618 80.5215 160.618 80.3306V75.9634C160.618 75.3906 160.484 74.9515 160.217 74.6461C159.959 74.3406 159.567 74.1879 159.042 74.1879C158.556 74.1879 158.15 74.3406 157.825 74.6461C157.51 74.9515 157.324 75.3525 157.267 75.8488V80.3306C157.267 80.5215 157.171 80.6169 156.981 80.6169H156.608C156.417 80.6169 156.322 80.5215 156.322 80.3306V73.8442C156.322 73.6533 156.417 73.5579 156.608 73.5579H156.923C157.114 73.5579 157.21 73.6533 157.21 73.8442V74.4313C157.639 73.7344 158.322 73.386 159.257 73.386C159.744 73.386 160.159 73.4958 160.503 73.7154C160.856 73.9254 161.119 74.2117 161.29 74.5745C161.796 73.7822 162.531 73.386 163.496 73.386ZM170.863 80.8031C170.204 80.8031 169.617 80.6456 169.102 80.3306C168.586 80.0156 168.185 79.5812 167.899 79.0276C167.612 78.4644 167.469 77.82 167.469 77.0946C167.469 76.3691 167.612 75.7295 167.899 75.1759C168.185 74.6127 168.586 74.1736 169.102 73.8585C169.617 73.5435 170.204 73.386 170.863 73.386C171.521 73.386 172.109 73.5435 172.624 73.8585C173.139 74.1736 173.54 74.6127 173.827 75.1759C174.113 75.7295 174.256 76.3691 174.256 77.0946C174.256 77.82 174.113 78.4644 173.827 79.0276C173.54 79.5812 173.139 80.0156 172.624 80.3306C172.109 80.6456 171.521 80.8031 170.863 80.8031ZM170.863 80.0156C171.598 80.0156 172.185 79.7483 172.624 79.2137C173.063 78.6696 173.283 77.9632 173.283 77.0946C173.283 76.2259 173.063 75.5243 172.624 74.9897C172.185 74.4456 171.598 74.1736 170.863 74.1736C170.128 74.1736 169.541 74.4456 169.102 74.9897C168.663 75.5243 168.443 76.2259 168.443 77.0946C168.443 77.9632 168.663 78.6696 169.102 79.2137C169.541 79.7483 170.128 80.0156 170.863 80.0156ZM183.072 73.386C183.835 73.386 184.418 73.6056 184.819 74.0447C185.229 74.4742 185.434 75.0279 185.434 75.7056V80.3306C185.434 80.5215 185.339 80.6169 185.148 80.6169H184.776C184.585 80.6169 184.489 80.5215 184.489 80.3306V75.9634C184.489 75.3906 184.356 74.9515 184.088 74.6461C183.831 74.3406 183.444 74.1879 182.929 74.1879C182.385 74.1879 181.95 74.3692 181.626 74.732C181.301 75.0947 181.139 75.5625 181.139 76.1352V80.3306C181.139 80.5215 181.043 80.6169 180.852 80.6169H180.48C180.289 80.6169 180.194 80.5215 180.194 80.3306V75.9634C180.194 75.3906 180.06 74.9515 179.793 74.6461C179.535 74.3406 179.144 74.1879 178.619 74.1879C178.132 74.1879 177.726 74.3406 177.402 74.6461C177.087 74.9515 176.9 75.3525 176.843 75.8488V80.3306C176.843 80.5215 176.748 80.6169 176.557 80.6169H176.185C175.994 80.6169 175.898 80.5215 175.898 80.3306V73.8442C175.898 73.6533 175.994 73.5579 176.185 73.5579H176.5C176.69 73.5579 176.786 73.6533 176.786 73.8442V74.4313C177.215 73.7344 177.898 73.386 178.834 73.386C179.32 73.386 179.736 73.4958 180.079 73.7154C180.432 73.9254 180.695 74.2117 180.867 74.5745C181.373 73.7822 182.108 73.386 183.072 73.386ZM192.658 78.9417C192.725 78.8748 192.797 78.8414 192.873 78.8414C192.94 78.8414 193.002 78.8701 193.059 78.9273L193.246 79.0992C193.312 79.166 193.346 79.2376 193.346 79.3139C193.346 79.3712 193.317 79.438 193.26 79.5144C192.792 79.9822 192.339 80.3163 191.9 80.5167C191.46 80.7076 190.969 80.8031 190.425 80.8031C189.737 80.8031 189.141 80.6504 188.635 80.3449C188.129 80.0394 187.738 79.6146 187.461 79.0705C187.184 78.5169 187.046 77.8773 187.046 77.1518C187.046 76.4168 187.179 75.7677 187.446 75.2045C187.723 74.6318 188.11 74.1879 188.606 73.8729C189.103 73.5483 189.675 73.386 190.325 73.386C191.289 73.386 192.048 73.6867 192.601 74.2881C193.155 74.8895 193.432 75.7009 193.432 76.7223V76.8941C193.422 76.98 193.389 77.0468 193.331 77.0946C193.284 77.1423 193.217 77.1662 193.131 77.1662H188.005C188.034 77.968 188.244 78.6457 188.635 79.1994C189.036 79.7435 189.632 80.0156 190.425 80.0156C190.854 80.0156 191.231 79.9392 191.556 79.7865C191.89 79.6242 192.258 79.3426 192.658 78.9417ZM190.325 74.1736C189.695 74.1736 189.174 74.3692 188.764 74.7606C188.363 75.1424 188.119 75.7056 188.034 76.4502H192.487C192.468 75.7534 192.267 75.1997 191.885 74.7893C191.503 74.3788 190.983 74.1736 190.325 74.1736ZM198.275 73.386C199.105 73.386 199.731 73.6151 200.151 74.0733C200.58 74.5315 200.795 75.1043 200.795 75.7916V80.3306C200.795 80.5215 200.7 80.6169 200.509 80.6169H200.136C199.945 80.6169 199.85 80.5215 199.85 80.3306V76.1066C199.85 75.4766 199.697 74.9993 199.392 74.6747C199.086 74.3501 198.647 74.1879 198.075 74.1879C197.712 74.1879 197.378 74.2786 197.072 74.4599C196.767 74.6318 196.523 74.8704 196.342 75.1759C196.161 75.4813 196.07 75.8154 196.07 76.1782V80.3306C196.07 80.5215 195.974 80.6169 195.784 80.6169H195.411C195.22 80.6169 195.125 80.5215 195.125 80.3306V73.8442C195.125 73.6533 195.22 73.5579 195.411 73.5579H195.726C195.917 73.5579 196.013 73.6533 196.013 73.8442V74.5315C196.251 74.1497 196.566 73.8633 196.958 73.6724C197.349 73.4815 197.788 73.386 198.275 73.386ZM205.868 79.8294C205.897 79.8199 205.935 79.8151 205.983 79.8151C206.04 79.8151 206.093 79.8342 206.141 79.8724C206.188 79.9106 206.217 79.9631 206.226 80.0299L206.269 80.2303C206.279 80.2494 206.284 80.2828 206.284 80.3306C206.284 80.4642 206.212 80.5454 206.069 80.574C205.725 80.679 205.358 80.7315 204.966 80.7315C204.346 80.7315 203.902 80.5931 203.635 80.3163C203.377 80.0299 203.248 79.6194 203.248 79.0848V74.2738H202.189C201.998 74.2738 201.902 74.1783 201.902 73.9874V73.8442C201.902 73.6533 201.998 73.5579 202.189 73.5579H203.248V71.3814C203.248 71.1905 203.344 71.095 203.535 71.095H203.907C204.098 71.095 204.193 71.1905 204.193 71.3814V73.5579H205.911C206.102 73.5579 206.198 73.6533 206.198 73.8442V73.9874C206.198 74.1783 206.102 74.2738 205.911 74.2738H204.193V78.9703C204.193 79.3235 204.26 79.5717 204.394 79.7149C204.527 79.8581 204.756 79.9296 205.081 79.9296C205.31 79.9296 205.573 79.8962 205.868 79.8294ZM214.118 79.8294C214.147 79.8199 214.185 79.8151 214.233 79.8151C214.29 79.8151 214.343 79.8342 214.391 79.8724C214.438 79.9106 214.467 79.9631 214.476 80.0299L214.519 80.2303C214.529 80.2494 214.534 80.2828 214.534 80.3306C214.534 80.4642 214.462 80.5454 214.319 80.574C213.975 80.679 213.608 80.7315 213.216 80.7315C212.596 80.7315 212.152 80.5931 211.885 80.3163C211.627 80.0299 211.498 79.6194 211.498 79.0848V74.2738H210.439C210.248 74.2738 210.152 74.1783 210.152 73.9874V73.8442C210.152 73.6533 210.248 73.5579 210.439 73.5579H211.498V71.3814C211.498 71.1905 211.594 71.095 211.785 71.095H212.157C212.348 71.095 212.443 71.1905 212.443 71.3814V73.5579H214.161C214.352 73.5579 214.448 73.6533 214.448 73.8442V73.9874C214.448 74.1783 214.352 74.2738 214.161 74.2738H212.443V78.9703C212.443 79.3235 212.51 79.5717 212.644 79.7149C212.777 79.8581 213.006 79.9296 213.331 79.9296C213.56 79.9296 213.823 79.8962 214.118 79.8294ZM218.545 80.8031C217.886 80.8031 217.299 80.6456 216.784 80.3306C216.268 80.0156 215.867 79.5812 215.581 79.0276C215.295 78.4644 215.152 77.82 215.152 77.0946C215.152 76.3691 215.295 75.7295 215.581 75.1759C215.867 74.6127 216.268 74.1736 216.784 73.8585C217.299 73.5435 217.886 73.386 218.545 73.386C219.204 73.386 219.791 73.5435 220.306 73.8585C220.822 74.1736 221.223 74.6127 221.509 75.1759C221.795 75.7295 221.939 76.3691 221.939 77.0946C221.939 77.82 221.795 78.4644 221.509 79.0276C221.223 79.5812 220.822 80.0156 220.306 80.3306C219.791 80.6456 219.204 80.8031 218.545 80.8031ZM218.545 80.0156C219.28 80.0156 219.867 79.7483 220.306 79.2137C220.745 78.6696 220.965 77.9632 220.965 77.0946C220.965 76.2259 220.745 75.5243 220.306 74.9897C219.867 74.4456 219.28 74.1736 218.545 74.1736C217.81 74.1736 217.223 74.4456 216.784 74.9897C216.345 75.5243 216.125 76.2259 216.125 77.0946C216.125 77.9632 216.345 78.6696 216.784 79.2137C217.223 79.7483 217.81 80.0156 218.545 80.0156ZM229.515 73.5006C229.754 73.5006 230.035 73.5388 230.36 73.6151C230.532 73.6724 230.598 73.7917 230.56 73.9731L230.503 74.2022C230.455 74.3836 230.336 74.4504 230.145 74.4027C229.916 74.3454 229.706 74.3167 229.515 74.3167C229.028 74.3167 228.622 74.5267 228.298 74.9468C227.983 75.3668 227.825 75.9491 227.825 76.6936V80.3306C227.825 80.5215 227.73 80.6169 227.539 80.6169H227.167C226.976 80.6169 226.88 80.5215 226.88 80.3306V73.8442C226.88 73.6533 226.976 73.5579 227.167 73.5579H227.482C227.673 73.5579 227.768 73.6533 227.768 73.8442V74.6318C227.93 74.2786 228.16 74.0017 228.455 73.8013C228.761 73.6008 229.114 73.5006 229.515 73.5006ZM234.383 73.386C235.252 73.386 235.93 73.596 236.416 74.016C236.903 74.4265 237.147 74.9706 237.147 75.6484V80.3306C237.147 80.5215 237.051 80.6169 236.86 80.6169H236.574C236.383 80.6169 236.287 80.5215 236.287 80.3306V79.6862C236.049 80.0681 235.71 80.3544 235.271 80.5454C234.841 80.7363 234.359 80.8317 233.825 80.8317C233.08 80.8317 232.474 80.6742 232.006 80.3592C231.538 80.0442 231.305 79.5574 231.305 78.8987C231.305 78.3737 231.453 77.9537 231.748 77.6387C232.044 77.3141 232.431 77.0707 232.908 76.9084C233.386 76.7366 233.982 76.5839 234.698 76.4502L236.245 76.1782V75.72C236.245 75.2331 236.077 74.8561 235.743 74.5888C235.409 74.312 234.97 74.1736 234.426 74.1736C234.016 74.1736 233.643 74.2499 233.309 74.4027C232.975 74.5554 232.617 74.8179 232.235 75.1902C232.169 75.257 232.097 75.2904 232.021 75.2904C231.954 75.2904 231.892 75.2618 231.834 75.2045L231.648 75.0327C231.581 74.9659 231.548 74.8943 231.548 74.8179C231.548 74.732 231.581 74.6556 231.648 74.5888C232.049 74.1688 232.469 73.8633 232.908 73.6724C233.357 73.4815 233.849 73.386 234.383 73.386ZM233.868 80.0442C234.555 80.0442 235.123 79.8628 235.572 79.5001C236.02 79.1374 236.245 78.6744 236.245 78.1112V76.9084L234.913 77.1662C234.292 77.2902 233.801 77.4096 233.438 77.5241C233.075 77.6387 232.784 77.8057 232.565 78.0253C232.345 78.2448 232.235 78.5312 232.235 78.8844C232.235 79.2471 232.379 79.5335 232.665 79.7435C232.961 79.944 233.362 80.0442 233.868 80.0442ZM242.224 79.8294C242.253 79.8199 242.291 79.8151 242.339 79.8151C242.396 79.8151 242.449 79.8342 242.496 79.8724C242.544 79.9106 242.573 79.9631 242.582 80.0299L242.625 80.2303C242.635 80.2494 242.64 80.2828 242.64 80.3306C242.64 80.4642 242.568 80.5454 242.425 80.574C242.081 80.679 241.714 80.7315 241.322 80.7315C240.702 80.7315 240.258 80.5931 239.991 80.3163C239.733 80.0299 239.604 79.6194 239.604 79.0848V74.2738H238.544C238.354 74.2738 238.258 74.1783 238.258 73.9874V73.8442C238.258 73.6533 238.354 73.5579 238.544 73.5579H239.604V71.3814C239.604 71.1905 239.7 71.095 239.89 71.095H240.263C240.454 71.095 240.549 71.1905 240.549 71.3814V73.5579H242.267C242.458 73.5579 242.554 73.6533 242.554 73.8442V73.9874C242.554 74.1783 242.458 74.2738 242.267 74.2738H240.549V78.9703C240.549 79.3235 240.616 79.5717 240.75 79.7149C240.883 79.8581 241.112 79.9296 241.437 79.9296C241.666 79.9296 241.928 79.8962 242.224 79.8294ZM248.87 78.9417C248.937 78.8748 249.009 78.8414 249.085 78.8414C249.152 78.8414 249.214 78.8701 249.271 78.9273L249.457 79.0992C249.524 79.166 249.558 79.2376 249.558 79.3139C249.558 79.3712 249.529 79.438 249.472 79.5144C249.004 79.9822 248.551 80.3163 248.111 80.5167C247.672 80.7076 247.181 80.8031 246.637 80.8031C245.949 80.8031 245.353 80.6504 244.847 80.3449C244.341 80.0394 243.95 79.6146 243.673 79.0705C243.396 78.5169 243.257 77.8773 243.257 77.1518C243.257 76.4168 243.391 75.7677 243.658 75.2045C243.935 74.6318 244.322 74.1879 244.818 73.8729C245.315 73.5483 245.887 73.386 246.536 73.386C247.501 73.386 248.259 73.6867 248.813 74.2881C249.367 74.8895 249.644 75.7009 249.644 76.7223V76.8941C249.634 76.98 249.601 77.0468 249.543 77.0946C249.496 77.1423 249.429 77.1662 249.343 77.1662H244.217C244.245 77.968 244.455 78.6457 244.847 79.1994C245.248 79.7435 245.844 80.0156 246.637 80.0156C247.066 80.0156 247.443 79.9392 247.768 79.7865C248.102 79.6242 248.469 79.3426 248.87 78.9417ZM246.536 74.1736C245.906 74.1736 245.386 74.3692 244.976 74.7606C244.575 75.1424 244.331 75.7056 244.245 76.4502H248.699C248.679 75.7534 248.479 75.1997 248.097 74.7893C247.715 74.3788 247.195 74.1736 246.536 74.1736ZM255.109 71.768C254.918 71.768 254.756 71.7012 254.622 71.5676C254.498 71.4339 254.436 71.2716 254.436 71.0807C254.436 70.8898 254.498 70.7323 254.622 70.6082C254.756 70.4841 254.918 70.4221 255.109 70.4221C255.31 70.4221 255.472 70.4841 255.596 70.6082C255.73 70.7323 255.797 70.8898 255.797 71.0807C255.797 71.2716 255.73 71.4339 255.596 71.5676C255.472 71.7012 255.31 71.768 255.109 71.768ZM254.923 80.6169C254.732 80.6169 254.637 80.5215 254.637 80.3306V73.8442C254.637 73.6533 254.732 73.5579 254.923 73.5579H255.295C255.486 73.5579 255.582 73.6533 255.582 73.8442V80.3306C255.582 80.5215 255.486 80.6169 255.295 80.6169H254.923ZM260.864 79.8294C260.892 79.8199 260.931 79.8151 260.978 79.8151C261.036 79.8151 261.088 79.8342 261.136 79.8724C261.184 79.9106 261.212 79.9631 261.222 80.0299L261.265 80.2303C261.274 80.2494 261.279 80.2828 261.279 80.3306C261.279 80.4642 261.207 80.5454 261.064 80.574C260.721 80.679 260.353 80.7315 259.962 80.7315C259.341 80.7315 258.897 80.5931 258.63 80.3163C258.372 80.0299 258.243 79.6194 258.243 79.0848V74.2738H257.184C256.993 74.2738 256.898 74.1783 256.898 73.9874V73.8442C256.898 73.6533 256.993 73.5579 257.184 73.5579H258.243V71.3814C258.243 71.1905 258.339 71.095 258.53 71.095H258.902C259.093 71.095 259.188 71.1905 259.188 71.3814V73.5579H260.907C261.098 73.5579 261.193 73.6533 261.193 73.8442V73.9874C261.193 74.1783 261.098 74.2738 260.907 74.2738H259.188V78.9703C259.188 79.3235 259.255 79.5717 259.389 79.7149C259.523 79.8581 259.752 79.9296 260.076 79.9296C260.305 79.9296 260.568 79.8962 260.864 79.8294ZM264.779 77.9537C264.589 77.9537 264.493 77.8582 264.493 77.6673V77.3666C264.493 76.9943 264.527 76.6889 264.593 76.4502C264.67 76.2116 264.794 75.9872 264.966 75.7772C265.147 75.5672 265.419 75.3047 265.782 74.9897C265.791 74.9802 265.882 74.9038 266.054 74.7606C266.502 74.3692 266.832 74.0351 267.042 73.7583C267.252 73.4719 267.357 73.1331 267.357 72.7417C267.357 72.2453 267.175 71.8492 266.813 71.5532C266.45 71.2573 265.968 71.1094 265.367 71.1094C264.937 71.1094 264.541 71.1905 264.178 71.3528C263.815 71.5055 263.405 71.768 262.947 72.1403C262.87 72.1976 262.804 72.2262 262.746 72.2262C262.67 72.2262 262.603 72.1928 262.546 72.126L262.331 71.8969C262.274 71.8396 262.245 71.7728 262.245 71.6964C262.245 71.6201 262.283 71.5532 262.36 71.496C262.846 71.076 263.329 70.7609 263.806 70.5509C264.283 70.3409 264.808 70.2359 265.381 70.2359C265.906 70.2359 266.393 70.3314 266.841 70.5223C267.3 70.7037 267.667 70.9853 267.944 71.3671C268.221 71.7394 268.359 72.1928 268.359 72.7274C268.359 73.2619 268.221 73.7201 267.944 74.102C267.667 74.4742 267.285 74.8704 266.798 75.2904C266.655 75.405 266.526 75.5195 266.412 75.6341C266.116 75.9204 265.896 76.14 265.753 76.2927C265.62 76.4359 265.51 76.603 265.424 76.7939C265.338 76.9848 265.285 77.2139 265.266 77.4812L265.252 77.6816C265.242 77.7675 265.209 77.8344 265.152 77.8821C265.104 77.9298 265.037 77.9537 264.951 77.9537H264.779ZM264.837 80.7172C264.636 80.7172 264.464 80.6456 264.321 80.5024C264.178 80.3592 264.106 80.1874 264.106 79.9869C264.106 79.7865 264.178 79.6146 264.321 79.4715C264.464 79.3283 264.636 79.2567 264.837 79.2567C265.037 79.2567 265.209 79.3283 265.352 79.4715C265.495 79.6146 265.567 79.7865 265.567 79.9869C265.567 80.1874 265.495 80.3592 265.352 80.5024C265.209 80.6456 265.037 80.7172 264.837 80.7172Z" fill="#464646"/>
<path d="M97.9491 125.064C97.9491 124.901 97.992 124.777 98.0779 124.691C98.1734 124.605 98.2975 124.563 98.4502 124.563H99.0373C99.1996 124.563 99.3237 124.605 99.4096 124.691C99.4955 124.777 99.5384 124.901 99.5384 125.064V134.228C99.5384 134.38 99.4955 134.504 99.4096 134.6C99.3237 134.686 99.1996 134.729 99.0373 134.729H98.1495C97.8823 134.729 97.6818 134.619 97.5481 134.399L94.9422 130.333C93.9494 128.787 93.2048 127.565 92.7084 126.667C92.7562 127.689 92.78 129.011 92.78 130.634V134.228C92.78 134.38 92.7371 134.504 92.6512 134.6C92.5653 134.686 92.4412 134.729 92.2789 134.729H91.6918C91.5391 134.729 91.415 134.686 91.3195 134.6C91.2336 134.504 91.1907 134.38 91.1907 134.228V125.064C91.1907 124.901 91.2336 124.777 91.3195 124.691C91.415 124.605 91.5391 124.563 91.6918 124.563H92.6082C92.8755 124.563 93.076 124.672 93.2096 124.892L95.9015 129.116C96.8561 130.605 97.5577 131.75 98.0063 132.552C97.9682 131.531 97.9491 130.271 97.9491 128.772V125.064ZM104.698 134.944C104.001 134.944 103.38 134.786 102.836 134.471C102.302 134.156 101.882 133.717 101.576 133.154C101.271 132.581 101.118 131.927 101.118 131.192C101.118 130.457 101.271 129.808 101.576 129.245C101.882 128.682 102.302 128.242 102.836 127.927C103.38 127.612 104.001 127.455 104.698 127.455C105.385 127.455 106.001 127.612 106.545 127.927C107.089 128.242 107.514 128.686 107.819 129.259C108.124 129.822 108.277 130.467 108.277 131.192C108.277 131.927 108.124 132.581 107.819 133.154C107.514 133.717 107.089 134.156 106.545 134.471C106.001 134.786 105.385 134.944 104.698 134.944ZM104.698 133.669C105.308 133.669 105.8 133.445 106.172 132.996C106.545 132.538 106.731 131.937 106.731 131.192C106.731 130.457 106.545 129.865 106.172 129.417C105.8 128.968 105.308 128.744 104.698 128.744C104.087 128.744 103.595 128.968 103.223 129.417C102.85 129.865 102.664 130.457 102.664 131.192C102.664 131.937 102.85 132.538 103.223 132.996C103.595 133.445 104.087 133.669 104.698 133.669ZM110.193 132.796C110.537 132.796 110.823 132.925 111.053 133.182C111.282 133.431 111.396 133.789 111.396 134.256C111.396 134.791 111.253 135.287 110.967 135.745C110.69 136.204 110.298 136.509 109.792 136.662C109.716 136.681 109.664 136.69 109.635 136.69C109.511 136.69 109.415 136.643 109.349 136.547C109.282 136.461 109.248 136.347 109.248 136.204C109.248 136.165 109.272 136.127 109.32 136.089C109.368 136.06 109.42 136.027 109.477 135.989C109.544 135.96 109.606 135.932 109.664 135.903C109.855 135.807 110.022 135.664 110.165 135.473C110.318 135.292 110.413 135.072 110.451 134.815C110.365 134.843 110.279 134.858 110.193 134.858C109.888 134.858 109.635 134.762 109.435 134.571C109.234 134.38 109.134 134.132 109.134 133.827C109.134 133.54 109.239 133.297 109.449 133.096C109.659 132.896 109.907 132.796 110.193 132.796ZM119.203 133.526C119.232 133.516 119.275 133.512 119.332 133.512C119.571 133.512 119.714 133.65 119.762 133.927L119.805 134.156C119.814 134.185 119.819 134.232 119.819 134.299C119.819 134.538 119.685 134.691 119.418 134.757C119.036 134.843 118.688 134.886 118.373 134.886C117.695 134.886 117.203 134.729 116.898 134.414C116.602 134.099 116.454 133.626 116.454 132.996V128.829H115.667C115.514 128.829 115.39 128.787 115.294 128.701C115.208 128.605 115.165 128.481 115.165 128.328V128.171C115.165 128.009 115.208 127.884 115.294 127.799C115.39 127.713 115.514 127.67 115.667 127.67H116.454V125.894C116.454 125.732 116.497 125.608 116.583 125.522C116.678 125.436 116.803 125.393 116.955 125.393H117.471C117.633 125.393 117.757 125.436 117.843 125.522C117.929 125.608 117.972 125.732 117.972 125.894V127.67H119.261C119.423 127.67 119.547 127.713 119.633 127.799C119.719 127.884 119.762 128.009 119.762 128.171V128.328C119.762 128.481 119.719 128.605 119.633 128.701C119.547 128.787 119.423 128.829 119.261 128.829H117.972V132.81C117.972 133.087 118.029 133.283 118.144 133.397C118.268 133.512 118.464 133.569 118.731 133.569C118.845 133.569 119.003 133.555 119.203 133.526ZM124.605 127.455C125.417 127.455 126.037 127.684 126.467 128.142C126.906 128.591 127.125 129.173 127.125 129.889V134.228C127.125 134.38 127.082 134.504 126.996 134.6C126.91 134.686 126.786 134.729 126.624 134.729H126.109C125.956 134.729 125.832 134.686 125.736 134.6C125.65 134.504 125.607 134.38 125.607 134.228V130.362C125.607 129.846 125.479 129.45 125.221 129.173C124.973 128.896 124.615 128.758 124.147 128.758C123.689 128.758 123.302 128.915 122.987 129.23C122.682 129.545 122.529 129.942 122.529 130.419V134.228C122.529 134.38 122.486 134.504 122.4 134.6C122.314 134.686 122.19 134.729 122.028 134.729H121.512C121.36 134.729 121.235 134.686 121.14 134.6C121.054 134.504 121.011 134.38 121.011 134.228V125.064C121.011 124.901 121.054 124.777 121.14 124.691C121.235 124.605 121.36 124.563 121.512 124.563H122.028C122.19 124.563 122.314 124.605 122.4 124.691C122.486 124.777 122.529 124.901 122.529 125.064V128.4C122.758 128.094 123.049 127.861 123.402 127.698C123.765 127.536 124.166 127.455 124.605 127.455ZM131.848 127.455C132.802 127.455 133.538 127.679 134.053 128.128C134.568 128.567 134.826 129.154 134.826 129.889V134.228C134.826 134.38 134.783 134.504 134.697 134.6C134.611 134.686 134.487 134.729 134.325 134.729H133.953C133.8 134.729 133.676 134.686 133.58 134.6C133.495 134.504 133.452 134.38 133.452 134.228V133.913C133.222 134.247 132.907 134.504 132.507 134.686C132.106 134.867 131.638 134.958 131.103 134.958C130.368 134.958 129.762 134.796 129.285 134.471C128.817 134.137 128.583 133.636 128.583 132.968C128.583 132.223 128.86 131.674 129.414 131.321C129.977 130.958 130.755 130.686 131.748 130.505L133.366 130.204V129.946C133.366 129.555 133.227 129.254 132.95 129.044C132.683 128.825 132.325 128.715 131.877 128.715C131.495 128.715 131.161 128.782 130.874 128.915C130.597 129.039 130.297 129.249 129.972 129.545C129.848 129.65 129.729 129.703 129.614 129.703C129.5 129.703 129.38 129.65 129.256 129.545L129.027 129.345C128.903 129.23 128.841 129.106 128.841 128.973C128.841 128.849 128.898 128.729 129.013 128.615C129.423 128.223 129.858 127.932 130.316 127.741C130.774 127.55 131.285 127.455 131.848 127.455ZM131.318 133.741C131.891 133.741 132.373 133.588 132.764 133.283C133.165 132.977 133.366 132.538 133.366 131.965V131.307L132.12 131.564C131.423 131.708 130.908 131.87 130.574 132.051C130.239 132.233 130.072 132.509 130.072 132.882C130.072 133.149 130.182 133.359 130.402 133.512C130.621 133.664 130.927 133.741 131.318 133.741ZM140.154 127.455C140.966 127.455 141.586 127.684 142.016 128.142C142.455 128.591 142.674 129.173 142.674 129.889V134.228C142.674 134.38 142.631 134.504 142.545 134.6C142.46 134.686 142.335 134.729 142.173 134.729H141.658C141.505 134.729 141.381 134.686 141.285 134.6C141.2 134.504 141.157 134.38 141.157 134.228V130.362C141.157 129.846 141.028 129.45 140.77 129.173C140.522 128.896 140.164 128.758 139.696 128.758C139.238 128.758 138.851 128.915 138.536 129.23C138.231 129.545 138.078 129.942 138.078 130.419V134.228C138.078 134.38 138.035 134.504 137.949 134.6C137.863 134.686 137.739 134.729 137.577 134.729H137.061C136.909 134.729 136.785 134.686 136.689 134.6C136.603 134.504 136.56 134.38 136.56 134.228V128.171C136.56 128.009 136.603 127.884 136.689 127.799C136.785 127.713 136.909 127.67 137.061 127.67H137.477C137.639 127.67 137.763 127.713 137.849 127.799C137.935 127.884 137.978 128.009 137.978 128.171V128.543C138.207 128.19 138.508 127.923 138.88 127.741C139.252 127.55 139.677 127.455 140.154 127.455ZM149.645 134.729C149.378 134.729 149.177 134.619 149.044 134.399L147.068 131.335L145.937 132.481V134.228C145.937 134.38 145.894 134.504 145.808 134.6C145.722 134.686 145.598 134.729 145.435 134.729H144.92C144.767 134.729 144.643 134.686 144.548 134.6C144.462 134.504 144.419 134.38 144.419 134.228V125.064C144.419 124.901 144.462 124.777 144.548 124.691C144.643 124.605 144.767 124.563 144.92 124.563H145.435C145.598 124.563 145.722 124.605 145.808 124.691C145.894 124.777 145.937 124.901 145.937 125.064V130.805L148.643 127.942C148.815 127.76 149.025 127.67 149.273 127.67H149.817C149.96 127.67 150.065 127.698 150.132 127.756C150.208 127.803 150.246 127.87 150.246 127.956C150.246 128.071 150.194 128.18 150.089 128.285L148.113 130.347L150.547 134.127C150.614 134.232 150.647 134.328 150.647 134.414C150.647 134.509 150.609 134.586 150.533 134.643C150.456 134.7 150.351 134.729 150.218 134.729H149.645ZM154.494 134.944C153.912 134.944 153.392 134.872 152.934 134.729C152.485 134.576 152.027 134.314 151.559 133.941C151.416 133.836 151.344 133.717 151.344 133.583C151.344 133.478 151.397 133.364 151.502 133.24L151.717 132.996C151.831 132.863 151.955 132.796 152.089 132.796C152.194 132.796 152.308 132.843 152.433 132.939C152.833 133.235 153.187 133.44 153.492 133.555C153.798 133.66 154.141 133.712 154.523 133.712C154.934 133.712 155.268 133.631 155.525 133.469C155.793 133.297 155.926 133.068 155.926 132.781C155.926 132.562 155.85 132.39 155.697 132.266C155.554 132.132 155.363 132.032 155.124 131.965C154.886 131.889 154.533 131.803 154.065 131.708C153.406 131.564 152.891 131.412 152.518 131.249C152.156 131.078 151.893 130.863 151.731 130.605C151.569 130.347 151.487 130.018 151.487 129.617C151.487 129.207 151.602 128.839 151.831 128.514C152.07 128.19 152.399 127.932 152.819 127.741C153.249 127.55 153.75 127.455 154.323 127.455C154.838 127.455 155.296 127.512 155.697 127.627C156.108 127.741 156.509 127.937 156.9 128.214C157.053 128.328 157.129 128.457 157.129 128.6C157.129 128.696 157.081 128.806 156.986 128.93L156.8 129.159C156.695 129.292 156.566 129.359 156.413 129.359C156.299 129.359 156.189 129.321 156.084 129.245C155.769 129.035 155.478 128.892 155.21 128.815C154.943 128.729 154.642 128.686 154.308 128.686C153.898 128.686 153.568 128.767 153.32 128.93C153.072 129.092 152.948 129.302 152.948 129.56C152.948 129.732 153.005 129.87 153.12 129.975C153.244 130.07 153.416 130.156 153.635 130.233C153.864 130.3 154.222 130.385 154.709 130.49C155.368 130.634 155.888 130.796 156.27 130.977C156.661 131.149 156.948 131.373 157.129 131.65C157.32 131.918 157.415 132.266 157.415 132.696C157.415 133.364 157.148 133.908 156.614 134.328C156.089 134.738 155.382 134.944 154.494 134.944Z" fill="#0063FB"/>
<rect x="187.62" y="108.99" width="86.8475" height="41.478" rx="6.26441" fill="#0063FB"/>
<path d="M209.95 134.127C210.017 134.232 210.05 134.328 210.05 134.414C210.05 134.509 210.012 134.586 209.936 134.643C209.86 134.7 209.755 134.729 209.621 134.729H208.905C208.638 134.729 208.437 134.619 208.304 134.399L205.941 130.791H203.779V134.228C203.779 134.38 203.736 134.504 203.65 134.6C203.564 134.686 203.44 134.729 203.278 134.729H202.648C202.495 134.729 202.371 134.686 202.275 134.6C202.19 134.504 202.147 134.38 202.147 134.228V125.064C202.147 124.901 202.19 124.777 202.275 124.691C202.371 124.605 202.495 124.563 202.648 124.563H206.657C207.297 124.563 207.869 124.691 208.375 124.949C208.881 125.197 209.273 125.56 209.549 126.037C209.836 126.505 209.979 127.054 209.979 127.684C209.979 128.448 209.769 129.097 209.349 129.631C208.929 130.156 208.366 130.505 207.659 130.677L209.95 134.127ZM203.779 129.431H206.385C206.996 129.431 207.478 129.283 207.831 128.987C208.194 128.682 208.375 128.247 208.375 127.684C208.375 127.111 208.194 126.677 207.831 126.381C207.478 126.076 206.996 125.923 206.385 125.923H203.779V129.431ZM214.544 127.455C215.499 127.455 216.234 127.679 216.749 128.128C217.265 128.567 217.522 129.154 217.522 129.889V134.228C217.522 134.38 217.479 134.504 217.393 134.6C217.308 134.686 217.183 134.729 217.021 134.729H216.649C216.496 134.729 216.372 134.686 216.277 134.6C216.191 134.504 216.148 134.38 216.148 134.228V133.913C215.919 134.247 215.604 134.504 215.203 134.686C214.802 134.867 214.334 134.958 213.8 134.958C213.064 134.958 212.458 134.796 211.981 134.471C211.513 134.137 211.279 133.636 211.279 132.968C211.279 132.223 211.556 131.674 212.11 131.321C212.673 130.958 213.451 130.686 214.444 130.505L216.062 130.204V129.946C216.062 129.555 215.923 129.254 215.647 129.044C215.379 128.825 215.021 128.715 214.573 128.715C214.191 128.715 213.857 128.782 213.57 128.915C213.294 129.039 212.993 129.249 212.668 129.545C212.544 129.65 212.425 129.703 212.31 129.703C212.196 129.703 212.077 129.65 211.952 129.545L211.723 129.345C211.599 129.23 211.537 129.106 211.537 128.973C211.537 128.849 211.594 128.729 211.709 128.615C212.119 128.223 212.554 127.932 213.012 127.741C213.47 127.55 213.981 127.455 214.544 127.455ZM214.014 133.741C214.587 133.741 215.069 133.588 215.46 133.283C215.861 132.977 216.062 132.538 216.062 131.965V131.307L214.816 131.564C214.119 131.708 213.604 131.87 213.27 132.051C212.936 132.233 212.769 132.509 212.769 132.882C212.769 133.149 212.878 133.359 213.098 133.512C213.317 133.664 213.623 133.741 214.014 133.741ZM222.511 133.526C222.539 133.516 222.582 133.512 222.639 133.512C222.878 133.512 223.021 133.65 223.069 133.927L223.112 134.156C223.121 134.185 223.126 134.232 223.126 134.299C223.126 134.538 222.993 134.691 222.725 134.757C222.343 134.843 221.995 134.886 221.68 134.886C221.002 134.886 220.511 134.729 220.205 134.414C219.909 134.099 219.761 133.626 219.761 132.996V128.829H218.974C218.821 128.829 218.697 128.787 218.602 128.701C218.516 128.605 218.473 128.481 218.473 128.328V128.171C218.473 128.009 218.516 127.884 218.602 127.799C218.697 127.713 218.821 127.67 218.974 127.67H219.761V125.894C219.761 125.732 219.804 125.608 219.89 125.522C219.986 125.436 220.11 125.393 220.262 125.393H220.778C220.94 125.393 221.064 125.436 221.15 125.522C221.236 125.608 221.279 125.732 221.279 125.894V127.67H222.568C222.73 127.67 222.854 127.713 222.94 127.799C223.026 127.884 223.069 128.009 223.069 128.171V128.328C223.069 128.481 223.026 128.605 222.94 128.701C222.854 128.787 222.73 128.829 222.568 128.829H221.279V132.81C221.279 133.087 221.336 133.283 221.451 133.397C221.575 133.512 221.771 133.569 222.038 133.569C222.153 133.569 222.31 133.555 222.511 133.526ZM229.149 132.925C229.273 132.82 229.393 132.767 229.507 132.767C229.622 132.767 229.741 132.829 229.865 132.953L230.065 133.168C230.171 133.292 230.223 133.411 230.223 133.526C230.223 133.65 230.161 133.769 230.037 133.884C229.598 134.266 229.159 134.538 228.72 134.7C228.29 134.862 227.813 134.944 227.288 134.944C226.553 134.944 225.913 134.791 225.369 134.485C224.834 134.18 224.419 133.75 224.123 133.197C223.837 132.633 223.694 131.984 223.694 131.249C223.694 130.524 223.832 129.875 224.109 129.302C224.395 128.72 224.796 128.266 225.312 127.942C225.837 127.617 226.448 127.455 227.144 127.455C228.185 127.455 228.987 127.765 229.55 128.386C230.113 128.997 230.395 129.841 230.395 130.92V131.049C230.385 131.202 230.338 131.321 230.252 131.407C230.166 131.493 230.042 131.536 229.879 131.536H225.183C225.24 132.166 225.445 132.681 225.799 133.082C226.161 133.473 226.667 133.669 227.316 133.669C227.67 133.669 227.98 133.617 228.247 133.512C228.514 133.397 228.815 133.201 229.149 132.925ZM227.116 128.658C226.591 128.658 226.166 128.815 225.841 129.13C225.526 129.436 225.321 129.87 225.226 130.433H228.906C228.868 129.88 228.696 129.445 228.39 129.13C228.085 128.815 227.66 128.658 227.116 128.658ZM238.581 127.455C239.393 127.455 240.013 127.684 240.443 128.142C240.882 128.591 241.101 129.173 241.101 129.889V134.228C241.101 134.38 241.059 134.504 240.973 134.6C240.887 134.686 240.763 134.729 240.6 134.729H240.085C239.932 134.729 239.808 134.686 239.713 134.6C239.627 134.504 239.584 134.38 239.584 134.228V130.362C239.584 129.846 239.455 129.45 239.197 129.173C238.949 128.896 238.591 128.758 238.123 128.758C237.665 128.758 237.278 128.915 236.963 129.23C236.658 129.545 236.505 129.942 236.505 130.419V134.228C236.505 134.38 236.462 134.504 236.376 134.6C236.29 134.686 236.166 134.729 236.004 134.729H235.489C235.336 134.729 235.212 134.686 235.116 134.6C235.03 134.504 234.987 134.38 234.987 134.228V128.171C234.987 128.009 235.03 127.884 235.116 127.799C235.212 127.713 235.336 127.67 235.489 127.67H235.904C236.066 127.67 236.19 127.713 236.276 127.799C236.362 127.884 236.405 128.009 236.405 128.171V128.543C236.634 128.19 236.935 127.923 237.307 127.741C237.679 127.55 238.104 127.455 238.581 127.455ZM246.025 134.944C245.328 134.944 244.707 134.786 244.163 134.471C243.629 134.156 243.209 133.717 242.903 133.154C242.598 132.581 242.445 131.927 242.445 131.192C242.445 130.457 242.598 129.808 242.903 129.245C243.209 128.682 243.629 128.242 244.163 127.927C244.707 127.612 245.328 127.455 246.025 127.455C246.712 127.455 247.328 127.612 247.872 127.927C248.416 128.242 248.841 128.686 249.146 129.259C249.452 129.822 249.604 130.467 249.604 131.192C249.604 131.927 249.452 132.581 249.146 133.154C248.841 133.717 248.416 134.156 247.872 134.471C247.328 134.786 246.712 134.944 246.025 134.944ZM246.025 133.669C246.636 133.669 247.127 133.445 247.499 132.996C247.872 132.538 248.058 131.937 248.058 131.192C248.058 130.457 247.872 129.865 247.499 129.417C247.127 128.968 246.636 128.744 246.025 128.744C245.414 128.744 244.922 128.968 244.55 129.417C244.178 129.865 243.991 130.457 243.991 131.192C243.991 131.937 244.178 132.538 244.55 132.996C244.922 133.445 245.414 133.669 246.025 133.669ZM258.791 128.099C258.858 127.813 259.044 127.67 259.349 127.67H259.879C260.022 127.67 260.132 127.703 260.209 127.77C260.295 127.827 260.337 127.918 260.337 128.042C260.337 128.071 260.328 128.133 260.309 128.228L258.605 134.299C258.538 134.586 258.352 134.729 258.046 134.729H257.116C256.829 134.729 256.643 134.586 256.557 134.299L256.085 132.638C255.875 131.903 255.641 130.982 255.383 129.875L255.312 129.56C255.054 130.724 254.806 131.755 254.567 132.653L254.123 134.299C254.056 134.586 253.87 134.729 253.565 134.729H252.648C252.362 134.729 252.176 134.586 252.09 134.299L250.372 128.228C250.353 128.133 250.343 128.071 250.343 128.042C250.343 127.918 250.381 127.827 250.458 127.77C250.544 127.703 250.658 127.67 250.801 127.67H251.36C251.665 127.67 251.851 127.813 251.918 128.099L252.434 130.132C252.634 130.877 252.868 131.87 253.135 133.111L253.192 133.397C253.469 132.118 253.727 131.03 253.966 130.132L254.51 128.099C254.577 127.813 254.763 127.67 255.068 127.67H255.612C255.918 127.67 256.104 127.813 256.171 128.099L256.729 130.132C256.996 131.125 257.264 132.213 257.531 133.397C257.731 132.376 257.98 131.288 258.276 130.132L258.791 128.099Z" fill="white"/>
<rect x="187.62" y="108.99" width="86.8475" height="41.478" rx="6.26441" stroke="#0063FB" stroke-width="1.78983"/>
</g>
</g>
<defs>
<filter id="filter0_dd_1856_23999" x="32" y="-175" width="280" height="366" filterUnits="userSpaceOnUse" color-interpolation-filters="sRGB">
<feFlood flood-opacity="0" result="BackgroundImageFix"/>
<feColorMatrix in="SourceAlpha" type="matrix" values="0 0 0 0 0 0 0 0 0 0 0 0 0 0 0 0 0 0 127 0" result="hardAlpha"/>
<feOffset dy="3"/>
<feGaussianBlur stdDeviation="3"/>
<feColorMatrix type="matrix" values="0 0 0 0 0.272549 0 0 0 0 0.272549 0 0 0 0 0.272549 0 0 0 0.16 0"/>
<feBlend mode="normal" in2="BackgroundImageFix" result="effect1_dropShadow_1856_23999"/>
<feColorMatrix in="SourceAlpha" type="matrix" values="0 0 0 0 0 0 0 0 0 0 0 0 0 0 0 0 0 0 127 0" result="hardAlpha"/>
<feOffset dy="3"/>
<feGaussianBlur stdDeviation="4"/>
<feColorMatrix type="matrix" values="0 0 0 0 0.272549 0 0 0 0 0.272549 0 0 0 0 0.272549 0 0 0 0.24 0"/>
<feBlend mode="normal" in2="effect1_dropShadow_1856_23999" result="effect2_dropShadow_1856_23999"/>
<feBlend mode="normal" in="SourceGraphic" in2="effect2_dropShadow_1856_23999" result="shape"/>
</filter>
<clipPath id="clip0_1856_23999">
<rect width="344" height="220" fill="white"/>
</clipPath>
</defs>
</svg>
