<svg width="344" height="320" viewBox="0 0 344 320" fill="none" xmlns="http://www.w3.org/2000/svg">
<rect width="344" height="320" fill="#F5F5F5"/>
<g filter="url(#filter0_dd_1838_18704)">
<rect x="83.5278" y="40" width="175.944" height="239.716" rx="4.77137" fill="white"/>
<path d="M245.176 48.9282C245.002 48.7535 244.718 48.7535 244.544 48.9282C244.369 49.1029 244.369 49.3861 244.544 49.5608L246.911 51.9284L244.544 54.296C244.369 54.4707 244.369 54.7539 244.544 54.9286C244.718 55.1033 245.002 55.1033 245.176 54.9286L247.544 52.561L249.911 54.9286C250.086 55.1033 250.369 55.1033 250.544 54.9286C250.719 54.7539 250.719 54.4707 250.544 54.296L248.176 51.9284L250.544 49.5608C250.719 49.3861 250.719 49.1029 250.544 48.9282C250.369 48.7535 250.086 48.7535 249.911 48.9282L247.544 51.2958L245.176 48.9282Z" fill="#767676"/>
<rect width="137.773" height="93.6382" transform="translate(102.613 59.0855)" fill="#F1F5F9"/>
<path d="M164.641 101.431C167.276 101.431 169.413 99.2952 169.413 96.6601C169.413 94.0249 167.276 91.8887 164.641 91.8887C162.006 91.8887 159.87 94.0249 159.87 96.6601C159.87 99.2952 162.006 101.431 164.641 101.431Z" stroke="#C3CCD9" stroke-width="1.19284" stroke-linecap="round" stroke-linejoin="round"/>
<path d="M186.709 119.324L178.149 105.356C177.959 105.07 177.702 104.834 177.401 104.67C177.1 104.506 176.763 104.418 176.42 104.414C176.077 104.41 175.739 104.49 175.434 104.647C175.129 104.805 174.867 105.034 174.67 105.317L169.069 113.347L165.596 110.552C165.368 110.369 165.105 110.236 164.823 110.16C164.541 110.084 164.246 110.069 163.957 110.114C163.669 110.159 163.393 110.263 163.146 110.421C162.9 110.579 162.69 110.787 162.528 111.031L156.888 119.324" stroke="#C3CCD9" stroke-width="1.19284" stroke-linecap="round" stroke-linejoin="round"/>
<path d="M106.287 175.266C106.147 175.266 106.034 175.227 105.946 175.148C105.867 175.061 105.828 174.947 105.828 174.807V167.223H103.44C103.3 167.223 103.186 167.184 103.099 167.105C103.02 167.018 102.981 166.904 102.981 166.764V166.41C102.981 166.261 103.02 166.147 103.099 166.068C103.186 165.99 103.3 165.95 103.44 165.95H109.699C109.847 165.95 109.961 165.99 110.04 166.068C110.119 166.147 110.158 166.261 110.158 166.41V166.764C110.158 166.904 110.119 167.018 110.04 167.105C109.961 167.184 109.847 167.223 109.699 167.223H107.324V174.807C107.324 174.947 107.284 175.061 107.206 175.148C107.127 175.227 107.013 175.266 106.865 175.266H106.287ZM112.028 167.538C111.775 167.538 111.56 167.455 111.385 167.289C111.21 167.114 111.123 166.908 111.123 166.672C111.123 166.427 111.21 166.222 111.385 166.055C111.56 165.889 111.775 165.806 112.028 165.806C112.282 165.806 112.496 165.889 112.671 166.055C112.846 166.222 112.934 166.427 112.934 166.672C112.934 166.908 112.846 167.114 112.671 167.289C112.496 167.455 112.282 167.538 112.028 167.538ZM111.779 175.266C111.639 175.266 111.525 175.227 111.438 175.148C111.359 175.061 111.32 174.947 111.32 174.807V169.257C111.32 169.108 111.359 168.994 111.438 168.916C111.525 168.837 111.639 168.798 111.779 168.798H112.251C112.4 168.798 112.514 168.837 112.593 168.916C112.671 168.994 112.711 169.108 112.711 169.257V174.807C112.711 174.947 112.671 175.061 112.593 175.148C112.514 175.227 112.4 175.266 112.251 175.266H111.779ZM117.441 174.164C117.467 174.156 117.507 174.151 117.559 174.151C117.778 174.151 117.909 174.278 117.953 174.532L117.992 174.742C118.001 174.768 118.005 174.812 118.005 174.873C118.005 175.091 117.883 175.231 117.638 175.293C117.288 175.371 116.969 175.411 116.68 175.411C116.059 175.411 115.608 175.266 115.329 174.978C115.057 174.689 114.922 174.256 114.922 173.679V169.86H114.2C114.06 169.86 113.946 169.821 113.859 169.742C113.78 169.655 113.741 169.541 113.741 169.401V169.257C113.741 169.108 113.78 168.994 113.859 168.916C113.946 168.837 114.06 168.798 114.2 168.798H114.922V167.171C114.922 167.022 114.961 166.908 115.04 166.829C115.127 166.751 115.241 166.711 115.381 166.711H115.853C116.002 166.711 116.116 166.751 116.195 166.829C116.273 166.908 116.313 167.022 116.313 167.171V168.798H117.494C117.642 168.798 117.756 168.837 117.835 168.916C117.913 168.994 117.953 169.108 117.953 169.257V169.401C117.953 169.541 117.913 169.655 117.835 169.742C117.756 169.821 117.642 169.86 117.494 169.86H116.313V173.508C116.313 173.762 116.365 173.941 116.47 174.046C116.584 174.151 116.763 174.204 117.008 174.204C117.113 174.204 117.257 174.191 117.441 174.164ZM119.609 175.266C119.469 175.266 119.356 175.227 119.268 175.148C119.19 175.061 119.15 174.947 119.15 174.807V166.41C119.15 166.261 119.19 166.147 119.268 166.068C119.356 165.99 119.469 165.95 119.609 165.95H120.082C120.231 165.95 120.344 165.99 120.423 166.068C120.502 166.147 120.541 166.261 120.541 166.41V174.807C120.541 174.947 120.502 175.061 120.423 175.148C120.344 175.227 120.231 175.266 120.082 175.266H119.609ZM126.83 173.613C126.944 173.517 127.054 173.469 127.158 173.469C127.263 173.469 127.373 173.526 127.487 173.639L127.67 173.836C127.766 173.95 127.815 174.059 127.815 174.164C127.815 174.278 127.758 174.387 127.644 174.492C127.242 174.842 126.839 175.091 126.437 175.24C126.043 175.389 125.606 175.463 125.125 175.463C124.451 175.463 123.865 175.323 123.366 175.043C122.877 174.763 122.496 174.37 122.225 173.862C121.962 173.346 121.831 172.752 121.831 172.078C121.831 171.413 121.958 170.818 122.212 170.293C122.474 169.76 122.842 169.344 123.314 169.047C123.795 168.75 124.355 168.601 124.993 168.601C125.947 168.601 126.682 168.885 127.198 169.454C127.714 170.014 127.972 170.788 127.972 171.776V171.894C127.963 172.034 127.92 172.144 127.841 172.222C127.762 172.301 127.648 172.34 127.5 172.34H123.196C123.248 172.918 123.436 173.39 123.76 173.758C124.092 174.116 124.556 174.295 125.151 174.295C125.475 174.295 125.759 174.247 126.004 174.151C126.249 174.046 126.524 173.867 126.83 173.613ZM124.967 169.703C124.486 169.703 124.097 169.847 123.799 170.136C123.511 170.416 123.323 170.814 123.235 171.33H126.607C126.572 170.823 126.415 170.425 126.135 170.136C125.855 169.847 125.466 169.703 124.967 169.703Z" fill="#464646"/>
<path d="M106.173 194.181C105.524 194.181 104.964 194.031 104.493 193.732C104.022 193.427 103.663 193.007 103.415 192.473C103.167 191.938 103.043 191.331 103.043 190.65C103.043 189.963 103.167 189.352 103.415 188.818C103.663 188.284 104.026 187.867 104.503 187.568C104.986 187.269 105.565 187.119 106.24 187.119C106.628 187.119 106.99 187.183 107.327 187.31C107.665 187.431 108.024 187.641 108.406 187.94C108.463 187.978 108.492 188.023 108.492 188.074C108.492 188.112 108.473 188.156 108.434 188.207L108.301 188.379C108.263 188.43 108.218 188.455 108.167 188.455C108.116 188.455 108.069 188.436 108.024 188.398C107.68 188.131 107.369 187.95 107.089 187.854C106.815 187.752 106.532 187.701 106.24 187.701C105.724 187.701 105.276 187.829 104.894 188.083C104.519 188.331 104.229 188.678 104.026 189.123C103.822 189.569 103.72 190.078 103.72 190.65C103.72 191.216 103.822 191.725 104.026 192.177C104.229 192.622 104.515 192.972 104.884 193.227C105.253 193.475 105.68 193.599 106.163 193.599C106.545 193.599 106.882 193.526 107.175 193.379C107.474 193.227 107.792 192.991 108.129 192.673C108.18 192.635 108.224 192.616 108.263 192.616C108.313 192.616 108.361 192.638 108.406 192.683L108.558 192.855C108.597 192.893 108.616 192.934 108.616 192.979C108.616 193.036 108.584 193.093 108.52 193.15C108.126 193.526 107.75 193.793 107.394 193.952C107.038 194.105 106.631 194.181 106.173 194.181ZM111.631 194.162C111.192 194.162 110.801 194.057 110.457 193.847C110.114 193.637 109.847 193.348 109.656 192.979C109.465 192.603 109.369 192.174 109.369 191.69C109.369 191.207 109.465 190.781 109.656 190.412C109.847 190.036 110.114 189.744 110.457 189.534C110.801 189.324 111.192 189.219 111.631 189.219C112.07 189.219 112.461 189.324 112.805 189.534C113.148 189.744 113.416 190.036 113.606 190.412C113.797 190.781 113.893 191.207 113.893 191.69C113.893 192.174 113.797 192.603 113.606 192.979C113.416 193.348 113.148 193.637 112.805 193.847C112.461 194.057 112.07 194.162 111.631 194.162ZM111.631 193.637C112.121 193.637 112.512 193.459 112.805 193.103C113.098 192.74 113.244 192.269 113.244 191.69C113.244 191.111 113.098 190.644 112.805 190.288C112.512 189.925 112.121 189.744 111.631 189.744C111.141 189.744 110.75 189.925 110.457 190.288C110.165 190.644 110.018 191.111 110.018 191.69C110.018 192.269 110.165 192.74 110.457 193.103C110.75 193.459 111.141 193.637 111.631 193.637ZM117.086 189.219C117.64 189.219 118.057 189.371 118.336 189.677C118.623 189.982 118.766 190.364 118.766 190.822V193.847C118.766 193.974 118.702 194.038 118.575 194.038H118.327C118.2 194.038 118.136 193.974 118.136 193.847V191.032C118.136 190.612 118.034 190.294 117.831 190.078C117.627 189.861 117.334 189.753 116.953 189.753C116.711 189.753 116.488 189.814 116.285 189.934C116.081 190.049 115.919 190.208 115.798 190.412C115.677 190.615 115.617 190.838 115.617 191.08V193.847C115.617 193.974 115.553 194.038 115.426 194.038H115.178C115.051 194.038 114.987 193.974 114.987 193.847V189.524C114.987 189.397 115.051 189.333 115.178 189.333H115.388C115.515 189.333 115.579 189.397 115.579 189.524V189.982C115.738 189.728 115.948 189.537 116.208 189.41C116.469 189.282 116.762 189.219 117.086 189.219ZM122.147 193.513C122.166 193.507 122.192 193.503 122.223 193.503C122.262 193.503 122.297 193.516 122.328 193.542C122.36 193.567 122.379 193.602 122.386 193.647L122.414 193.78C122.421 193.793 122.424 193.815 122.424 193.847C122.424 193.936 122.376 193.99 122.281 194.009C122.052 194.079 121.807 194.114 121.546 194.114C121.132 194.114 120.837 194.022 120.658 193.837C120.487 193.647 120.401 193.373 120.401 193.017V189.81H119.695C119.567 189.81 119.504 189.747 119.504 189.62V189.524C119.504 189.397 119.567 189.333 119.695 189.333H120.401V187.883C120.401 187.756 120.464 187.692 120.592 187.692H120.84C120.967 187.692 121.031 187.756 121.031 187.883V189.333H122.176C122.303 189.333 122.367 189.397 122.367 189.524V189.62C122.367 189.747 122.303 189.81 122.176 189.81H121.031V192.94C121.031 193.176 121.075 193.341 121.164 193.437C121.253 193.532 121.406 193.58 121.622 193.58C121.775 193.58 121.95 193.558 122.147 193.513ZM126.576 192.921C126.621 192.877 126.669 192.855 126.719 192.855C126.764 192.855 126.805 192.874 126.844 192.912L126.968 193.026C127.012 193.071 127.034 193.119 127.034 193.169C127.034 193.208 127.015 193.252 126.977 193.303C126.665 193.615 126.363 193.837 126.071 193.971C125.778 194.098 125.45 194.162 125.088 194.162C124.63 194.162 124.232 194.06 123.895 193.857C123.558 193.653 123.297 193.37 123.112 193.007C122.928 192.638 122.836 192.212 122.836 191.728C122.836 191.239 122.925 190.806 123.103 190.431C123.287 190.049 123.545 189.753 123.876 189.543C124.207 189.327 124.588 189.219 125.021 189.219C125.663 189.219 126.169 189.419 126.538 189.82C126.907 190.221 127.092 190.761 127.092 191.442V191.557C127.085 191.614 127.063 191.659 127.025 191.69C126.993 191.722 126.948 191.738 126.891 191.738H123.475C123.494 192.272 123.634 192.724 123.895 193.093C124.162 193.456 124.56 193.637 125.088 193.637C125.374 193.637 125.625 193.586 125.842 193.484C126.064 193.376 126.309 193.189 126.576 192.921ZM125.021 189.744C124.601 189.744 124.254 189.874 123.981 190.135C123.713 190.389 123.551 190.765 123.494 191.261H126.462C126.449 190.796 126.315 190.427 126.061 190.154C125.807 189.88 125.46 189.744 125.021 189.744ZM130.319 189.219C130.873 189.219 131.29 189.371 131.57 189.677C131.856 189.982 131.999 190.364 131.999 190.822V193.847C131.999 193.974 131.935 194.038 131.808 194.038H131.56C131.433 194.038 131.369 193.974 131.369 193.847V191.032C131.369 190.612 131.267 190.294 131.064 190.078C130.86 189.861 130.568 189.753 130.186 189.753C129.944 189.753 129.721 189.814 129.518 189.934C129.314 190.049 129.152 190.208 129.031 190.412C128.91 190.615 128.85 190.838 128.85 191.08V193.847C128.85 193.974 128.786 194.038 128.659 194.038H128.411C128.284 194.038 128.22 193.974 128.22 193.847V189.524C128.22 189.397 128.284 189.333 128.411 189.333H128.621C128.748 189.333 128.812 189.397 128.812 189.524V189.982C128.971 189.728 129.181 189.537 129.442 189.41C129.702 189.282 129.995 189.219 130.319 189.219ZM135.38 193.513C135.399 193.507 135.425 193.503 135.457 193.503C135.495 193.503 135.53 193.516 135.561 193.542C135.593 193.567 135.612 193.602 135.619 193.647L135.647 193.78C135.654 193.793 135.657 193.815 135.657 193.847C135.657 193.936 135.609 193.99 135.514 194.009C135.285 194.079 135.04 194.114 134.779 194.114C134.365 194.114 134.07 194.022 133.891 193.837C133.72 193.647 133.634 193.373 133.634 193.017V189.81H132.928C132.8 189.81 132.737 189.747 132.737 189.62V189.524C132.737 189.397 132.8 189.333 132.928 189.333H133.634V187.883C133.634 187.756 133.697 187.692 133.825 187.692H134.073C134.2 187.692 134.264 187.756 134.264 187.883V189.333H135.409C135.536 189.333 135.6 189.397 135.6 189.524V189.62C135.6 189.747 135.536 189.81 135.409 189.81H134.264V192.94C134.264 193.176 134.308 193.341 134.397 193.437C134.486 193.532 134.639 193.58 134.855 193.58C135.008 193.58 135.183 193.558 135.38 193.513ZM139.075 188.14C138.948 188.14 138.839 188.096 138.75 188.007C138.668 187.918 138.626 187.81 138.626 187.682C138.626 187.555 138.668 187.45 138.75 187.367C138.839 187.285 138.948 187.243 139.075 187.243C139.208 187.243 139.317 187.285 139.399 187.367C139.488 187.45 139.533 187.555 139.533 187.682C139.533 187.81 139.488 187.918 139.399 188.007C139.317 188.096 139.208 188.14 139.075 188.14ZM138.951 194.038C138.824 194.038 138.76 193.974 138.76 193.847V189.524C138.76 189.397 138.824 189.333 138.951 189.333H139.199C139.326 189.333 139.39 189.397 139.39 189.524V193.847C139.39 193.974 139.326 194.038 139.199 194.038H138.951ZM142.891 189.219C143.444 189.219 143.861 189.371 144.141 189.677C144.427 189.982 144.57 190.364 144.57 190.822V193.847C144.57 193.974 144.507 194.038 144.38 194.038H144.131C144.004 194.038 143.941 193.974 143.941 193.847V191.032C143.941 190.612 143.839 190.294 143.635 190.078C143.432 189.861 143.139 189.753 142.757 189.753C142.516 189.753 142.293 189.814 142.089 189.934C141.886 190.049 141.724 190.208 141.603 190.412C141.482 190.615 141.421 190.838 141.421 191.08V193.847C141.421 193.974 141.358 194.038 141.23 194.038H140.982C140.855 194.038 140.792 193.974 140.792 193.847V189.524C140.792 189.397 140.855 189.333 140.982 189.333H141.192C141.32 189.333 141.383 189.397 141.383 189.524V189.982C141.542 189.728 141.752 189.537 142.013 189.41C142.274 189.282 142.566 189.219 142.891 189.219ZM147.646 187.673C147.36 187.673 147.156 187.749 147.035 187.902C146.914 188.048 146.854 188.296 146.854 188.646V189.333H147.903C148.031 189.333 148.094 189.397 148.094 189.524V189.62C148.094 189.747 148.031 189.81 147.903 189.81H146.854V193.847C146.854 193.974 146.79 194.038 146.663 194.038H146.415C146.288 194.038 146.224 193.974 146.224 193.847V189.81H145.518C145.391 189.81 145.327 189.747 145.327 189.62V189.524C145.327 189.397 145.391 189.333 145.518 189.333H146.224V188.541C146.224 188.102 146.338 187.759 146.567 187.511C146.803 187.262 147.137 187.138 147.569 187.138C147.811 187.138 148.059 187.173 148.314 187.243C148.435 187.282 148.479 187.361 148.447 187.482L148.409 187.616C148.377 187.705 148.314 187.749 148.218 187.749C148.199 187.749 148.158 187.743 148.094 187.73C147.954 187.692 147.805 187.673 147.646 187.673ZM150.687 194.162C150.248 194.162 149.857 194.057 149.514 193.847C149.17 193.637 148.903 193.348 148.712 192.979C148.521 192.603 148.426 192.174 148.426 191.69C148.426 191.207 148.521 190.781 148.712 190.412C148.903 190.036 149.17 189.744 149.514 189.534C149.857 189.324 150.248 189.219 150.687 189.219C151.126 189.219 151.518 189.324 151.861 189.534C152.205 189.744 152.472 190.036 152.663 190.412C152.854 190.781 152.949 191.207 152.949 191.69C152.949 192.174 152.854 192.603 152.663 192.979C152.472 193.348 152.205 193.637 151.861 193.847C151.518 194.057 151.126 194.162 150.687 194.162ZM150.687 193.637C151.177 193.637 151.569 193.459 151.861 193.103C152.154 192.74 152.3 192.269 152.3 191.69C152.3 191.111 152.154 190.644 151.861 190.288C151.569 189.925 151.177 189.744 150.687 189.744C150.198 189.744 149.806 189.925 149.514 190.288C149.221 190.644 149.075 191.111 149.075 191.69C149.075 192.269 149.221 192.74 149.514 193.103C149.806 193.459 150.198 193.637 150.687 193.637ZM155.799 189.295C155.958 189.295 156.146 189.321 156.362 189.371C156.477 189.41 156.521 189.489 156.496 189.61L156.458 189.763C156.426 189.884 156.346 189.928 156.219 189.896C156.066 189.858 155.926 189.839 155.799 189.839C155.475 189.839 155.204 189.979 154.988 190.259C154.778 190.539 154.673 190.927 154.673 191.423V193.847C154.673 193.974 154.609 194.038 154.482 194.038H154.234C154.107 194.038 154.043 193.974 154.043 193.847V189.524C154.043 189.397 154.107 189.333 154.234 189.333H154.444C154.571 189.333 154.635 189.397 154.635 189.524V190.049C154.743 189.814 154.896 189.629 155.093 189.495C155.297 189.362 155.532 189.295 155.799 189.295ZM162.132 189.219C162.641 189.219 163.029 189.365 163.297 189.658C163.57 189.944 163.707 190.313 163.707 190.765V193.847C163.707 193.974 163.643 194.038 163.516 194.038H163.268C163.141 194.038 163.077 193.974 163.077 193.847V190.936C163.077 190.555 162.988 190.262 162.81 190.059C162.638 189.855 162.381 189.753 162.037 189.753C161.674 189.753 161.385 189.874 161.169 190.116C160.952 190.358 160.844 190.669 160.844 191.051V193.847C160.844 193.974 160.781 194.038 160.653 194.038H160.405C160.278 194.038 160.214 193.974 160.214 193.847V190.936C160.214 190.555 160.125 190.262 159.947 190.059C159.775 189.855 159.515 189.753 159.165 189.753C158.84 189.753 158.57 189.855 158.354 190.059C158.144 190.262 158.02 190.529 157.981 190.86V193.847C157.981 193.974 157.918 194.038 157.79 194.038H157.542C157.415 194.038 157.352 193.974 157.352 193.847V189.524C157.352 189.397 157.415 189.333 157.542 189.333H157.752C157.88 189.333 157.943 189.397 157.943 189.524V189.915C158.229 189.451 158.684 189.219 159.308 189.219C159.632 189.219 159.909 189.292 160.138 189.438C160.373 189.578 160.548 189.769 160.663 190.011C161 189.483 161.49 189.219 162.132 189.219ZM166.909 189.219C167.488 189.219 167.939 189.359 168.264 189.639C168.588 189.912 168.751 190.275 168.751 190.726V193.847C168.751 193.974 168.687 194.038 168.56 194.038H168.369C168.242 194.038 168.178 193.974 168.178 193.847V193.418C168.019 193.672 167.793 193.863 167.5 193.99C167.214 194.117 166.893 194.181 166.537 194.181C166.04 194.181 165.636 194.076 165.325 193.866C165.013 193.656 164.857 193.332 164.857 192.893C164.857 192.543 164.956 192.263 165.153 192.053C165.35 191.837 165.608 191.674 165.926 191.566C166.244 191.452 166.642 191.35 167.119 191.261L168.149 191.08V190.774C168.149 190.45 168.038 190.198 167.815 190.02C167.593 189.836 167.3 189.744 166.937 189.744C166.664 189.744 166.416 189.794 166.193 189.896C165.97 189.998 165.732 190.173 165.477 190.421C165.433 190.466 165.385 190.488 165.334 190.488C165.29 190.488 165.248 190.469 165.21 190.431L165.086 190.316C165.042 190.272 165.019 190.224 165.019 190.173C165.019 190.116 165.042 190.065 165.086 190.02C165.353 189.74 165.633 189.537 165.926 189.41C166.225 189.282 166.553 189.219 166.909 189.219ZM166.565 193.656C167.023 193.656 167.402 193.535 167.701 193.293C168 193.052 168.149 192.743 168.149 192.368V191.566L167.262 191.738C166.848 191.821 166.521 191.9 166.279 191.977C166.037 192.053 165.843 192.164 165.697 192.311C165.551 192.457 165.477 192.648 165.477 192.883C165.477 193.125 165.573 193.316 165.764 193.456C165.961 193.589 166.228 193.656 166.565 193.656ZM172.135 193.513C172.154 193.507 172.179 193.503 172.211 193.503C172.249 193.503 172.284 193.516 172.316 193.542C172.348 193.567 172.367 193.602 172.373 193.647L172.402 193.78C172.408 193.793 172.411 193.815 172.411 193.847C172.411 193.936 172.364 193.99 172.268 194.009C172.039 194.079 171.794 194.114 171.533 194.114C171.12 194.114 170.824 194.022 170.646 193.837C170.474 193.647 170.388 193.373 170.388 193.017V189.81H169.682C169.555 189.81 169.491 189.747 169.491 189.62V189.524C169.491 189.397 169.555 189.333 169.682 189.333H170.388V187.883C170.388 187.756 170.452 187.692 170.579 187.692H170.827C170.955 187.692 171.018 187.756 171.018 187.883V189.333H172.163C172.291 189.333 172.354 189.397 172.354 189.524V189.62C172.354 189.747 172.291 189.81 172.163 189.81H171.018V192.94C171.018 193.176 171.063 193.341 171.152 193.437C171.241 193.532 171.394 193.58 171.61 193.58C171.762 193.58 171.937 193.558 172.135 193.513ZM173.63 188.14C173.503 188.14 173.395 188.096 173.306 188.007C173.223 187.918 173.182 187.81 173.182 187.682C173.182 187.555 173.223 187.45 173.306 187.367C173.395 187.285 173.503 187.243 173.63 187.243C173.764 187.243 173.872 187.285 173.954 187.367C174.044 187.45 174.088 187.555 174.088 187.682C174.088 187.81 174.044 187.918 173.954 188.007C173.872 188.096 173.764 188.14 173.63 188.14ZM173.506 194.038C173.379 194.038 173.315 193.974 173.315 193.847V189.524C173.315 189.397 173.379 189.333 173.506 189.333H173.754C173.881 189.333 173.945 189.397 173.945 189.524V193.847C173.945 193.974 173.881 194.038 173.754 194.038H173.506ZM177.293 194.162C176.854 194.162 176.463 194.057 176.12 193.847C175.776 193.637 175.509 193.348 175.318 192.979C175.127 192.603 175.032 192.174 175.032 191.69C175.032 191.207 175.127 190.781 175.318 190.412C175.509 190.036 175.776 189.744 176.12 189.534C176.463 189.324 176.854 189.219 177.293 189.219C177.732 189.219 178.124 189.324 178.467 189.534C178.811 189.744 179.078 190.036 179.269 190.412C179.46 190.781 179.555 191.207 179.555 191.69C179.555 192.174 179.46 192.603 179.269 192.979C179.078 193.348 178.811 193.637 178.467 193.847C178.124 194.057 177.732 194.162 177.293 194.162ZM177.293 193.637C177.783 193.637 178.175 193.459 178.467 193.103C178.76 192.74 178.906 192.269 178.906 191.69C178.906 191.111 178.76 190.644 178.467 190.288C178.175 189.925 177.783 189.744 177.293 189.744C176.804 189.744 176.412 189.925 176.12 190.288C175.827 190.644 175.681 191.111 175.681 191.69C175.681 192.269 175.827 192.74 176.12 193.103C176.412 193.459 176.804 193.637 177.293 193.637ZM182.749 189.219C183.302 189.219 183.719 189.371 183.999 189.677C184.285 189.982 184.428 190.364 184.428 190.822V193.847C184.428 193.974 184.365 194.038 184.237 194.038H183.989C183.862 194.038 183.798 193.974 183.798 193.847V191.032C183.798 190.612 183.697 190.294 183.493 190.078C183.289 189.861 182.997 189.753 182.615 189.753C182.373 189.753 182.151 189.814 181.947 189.934C181.743 190.049 181.581 190.208 181.46 190.412C181.34 190.615 181.279 190.838 181.279 191.08V193.847C181.279 193.974 181.215 194.038 181.088 194.038H180.84C180.713 194.038 180.649 193.974 180.649 193.847V189.524C180.649 189.397 180.713 189.333 180.84 189.333H181.05C181.177 189.333 181.241 189.397 181.241 189.524V189.982C181.4 189.728 181.61 189.537 181.871 189.41C182.132 189.282 182.424 189.219 182.749 189.219ZM191.399 189.524C191.399 189.397 191.462 189.333 191.59 189.333H191.79C191.917 189.333 191.981 189.397 191.981 189.524V193.99C191.981 194.582 191.803 195.046 191.446 195.383C191.09 195.727 190.591 195.899 189.948 195.899C189.255 195.899 188.615 195.701 188.03 195.307C187.967 195.269 187.935 195.221 187.935 195.164C187.935 195.119 187.947 195.081 187.973 195.049L188.087 194.887C188.126 194.824 188.177 194.792 188.24 194.792C188.266 194.792 188.304 194.804 188.355 194.83C188.635 195.008 188.895 195.142 189.137 195.231C189.385 195.32 189.656 195.364 189.948 195.364C190.368 195.364 190.709 195.247 190.969 195.011C191.23 194.782 191.361 194.426 191.361 193.942V193.179C191.017 193.732 190.495 194.009 189.796 194.009C189.388 194.009 189.029 193.907 188.717 193.704C188.406 193.494 188.164 193.208 187.992 192.845C187.827 192.482 187.744 192.072 187.744 191.614C187.744 191.156 187.827 190.746 187.992 190.383C188.164 190.02 188.406 189.737 188.717 189.534C189.029 189.324 189.388 189.219 189.796 189.219C190.165 189.219 190.483 189.298 190.75 189.457C191.023 189.61 191.24 189.829 191.399 190.116V189.524ZM189.862 193.475C190.32 193.475 190.686 193.303 190.96 192.959C191.233 192.61 191.37 192.161 191.37 191.614C191.37 191.067 191.233 190.622 190.96 190.278C190.686 189.928 190.32 189.753 189.862 189.753C189.398 189.753 189.035 189.925 188.775 190.268C188.52 190.612 188.393 191.06 188.393 191.614C188.393 192.167 188.52 192.616 188.775 192.959C189.035 193.303 189.398 193.475 189.862 193.475ZM195.344 194.162C194.906 194.162 194.514 194.057 194.171 193.847C193.827 193.637 193.56 193.348 193.369 192.979C193.178 192.603 193.083 192.174 193.083 191.69C193.083 191.207 193.178 190.781 193.369 190.412C193.56 190.036 193.827 189.744 194.171 189.534C194.514 189.324 194.906 189.219 195.344 189.219C195.783 189.219 196.175 189.324 196.518 189.534C196.862 189.744 197.129 190.036 197.32 190.412C197.511 190.781 197.606 191.207 197.606 191.69C197.606 192.174 197.511 192.603 197.32 192.979C197.129 193.348 196.862 193.637 196.518 193.847C196.175 194.057 195.783 194.162 195.344 194.162ZM195.344 193.637C195.834 193.637 196.226 193.459 196.518 193.103C196.811 192.74 196.957 192.269 196.957 191.69C196.957 191.111 196.811 190.644 196.518 190.288C196.226 189.925 195.834 189.744 195.344 189.744C194.855 189.744 194.463 189.925 194.171 190.288C193.878 190.644 193.732 191.111 193.732 191.69C193.732 192.269 193.878 192.74 194.171 193.103C194.463 193.459 194.855 193.637 195.344 193.637ZM202.182 192.921C202.227 192.877 202.274 192.855 202.325 192.855C202.37 192.855 202.411 192.874 202.449 192.912L202.573 193.026C202.618 193.071 202.64 193.119 202.64 193.169C202.64 193.208 202.621 193.252 202.583 193.303C202.271 193.615 201.969 193.837 201.676 193.971C201.384 194.098 201.056 194.162 200.693 194.162C200.235 194.162 199.838 194.06 199.501 193.857C199.163 193.653 198.903 193.37 198.718 193.007C198.534 192.638 198.441 192.212 198.441 191.728C198.441 191.239 198.53 190.806 198.709 190.431C198.893 190.049 199.151 189.753 199.481 189.543C199.812 189.327 200.194 189.219 200.627 189.219C201.269 189.219 201.775 189.419 202.144 189.82C202.513 190.221 202.697 190.761 202.697 191.442V191.557C202.691 191.614 202.669 191.659 202.631 191.69C202.599 191.722 202.554 191.738 202.497 191.738H199.081C199.1 192.272 199.24 192.724 199.501 193.093C199.768 193.456 200.165 193.637 200.693 193.637C200.98 193.637 201.231 193.586 201.447 193.484C201.67 193.376 201.915 193.189 202.182 192.921ZM200.627 189.744C200.207 189.744 199.86 189.874 199.586 190.135C199.319 190.389 199.157 190.765 199.1 191.261H202.068C202.055 190.796 201.921 190.427 201.667 190.154C201.412 189.88 201.066 189.744 200.627 189.744ZM205.504 194.162C205.116 194.162 204.773 194.108 204.474 194C204.181 193.885 203.873 193.694 203.548 193.427C203.491 193.389 203.462 193.344 203.462 193.293C203.462 193.249 203.485 193.204 203.529 193.16L203.653 193.026C203.691 192.975 203.739 192.95 203.796 192.95C203.841 192.95 203.882 192.969 203.92 193.007C204.226 193.243 204.496 193.408 204.731 193.503C204.967 193.592 205.225 193.637 205.504 193.637C205.854 193.637 206.141 193.561 206.363 193.408C206.586 193.249 206.697 193.036 206.697 192.769C206.697 192.501 206.583 192.304 206.354 192.177C206.125 192.05 205.772 191.935 205.295 191.833C204.875 191.744 204.544 191.652 204.302 191.557C204.067 191.455 203.892 191.328 203.777 191.175C203.663 191.022 203.605 190.822 203.605 190.574C203.605 190.167 203.771 189.839 204.102 189.591C204.432 189.343 204.849 189.219 205.352 189.219C205.695 189.219 206.001 189.263 206.268 189.352C206.541 189.435 206.815 189.575 207.089 189.772C207.146 189.817 207.174 189.864 207.174 189.915C207.174 189.947 207.159 189.989 207.127 190.039L207.012 190.183C206.98 190.233 206.936 190.259 206.879 190.259C206.828 190.259 206.783 190.243 206.745 190.211C206.484 190.027 206.252 189.903 206.048 189.839C205.851 189.775 205.625 189.744 205.371 189.744C205.021 189.744 204.741 189.82 204.531 189.973C204.321 190.125 204.216 190.319 204.216 190.555C204.216 190.701 204.264 190.819 204.359 190.908C204.455 190.997 204.592 191.073 204.77 191.137C204.948 191.194 205.209 191.261 205.552 191.337C206.188 191.477 206.64 191.649 206.907 191.853C207.181 192.056 207.318 192.352 207.318 192.74C207.318 193.166 207.149 193.51 206.812 193.771C206.475 194.031 206.039 194.162 205.504 194.162ZM212.682 189.219C213.229 189.219 213.645 189.375 213.932 189.686C214.218 189.992 214.361 190.37 214.361 190.822V193.847C214.361 193.974 214.297 194.038 214.17 194.038H213.922C213.795 194.038 213.731 193.974 213.731 193.847V191.032C213.731 190.612 213.629 190.294 213.426 190.078C213.222 189.861 212.93 189.753 212.548 189.753C212.306 189.753 212.084 189.814 211.88 189.934C211.676 190.049 211.514 190.208 211.393 190.412C211.272 190.615 211.212 190.838 211.212 191.08V193.847C211.212 193.974 211.148 194.038 211.021 194.038H210.773C210.646 194.038 210.582 193.974 210.582 193.847V187.453C210.582 187.326 210.646 187.262 210.773 187.262H211.021C211.148 187.262 211.212 187.326 211.212 187.453V189.944C211.365 189.702 211.568 189.521 211.823 189.4C212.084 189.279 212.37 189.219 212.682 189.219ZM219.18 192.921C219.225 192.877 219.272 192.855 219.323 192.855C219.368 192.855 219.409 192.874 219.447 192.912L219.571 193.026C219.616 193.071 219.638 193.119 219.638 193.169C219.638 193.208 219.619 193.252 219.581 193.303C219.269 193.615 218.967 193.837 218.674 193.971C218.382 194.098 218.054 194.162 217.691 194.162C217.233 194.162 216.836 194.06 216.499 193.857C216.161 193.653 215.901 193.37 215.716 193.007C215.532 192.638 215.439 192.212 215.439 191.728C215.439 191.239 215.528 190.806 215.707 190.431C215.891 190.049 216.149 189.753 216.48 189.543C216.81 189.327 217.192 189.219 217.625 189.219C218.267 189.219 218.773 189.419 219.142 189.82C219.511 190.221 219.695 190.761 219.695 191.442V191.557C219.689 191.614 219.667 191.659 219.629 191.69C219.597 191.722 219.552 191.738 219.495 191.738H216.079C216.098 192.272 216.238 192.724 216.499 193.093C216.766 193.456 217.163 193.637 217.691 193.637C217.978 193.637 218.229 193.586 218.445 193.484C218.668 193.376 218.913 193.189 219.18 192.921ZM217.625 189.744C217.205 189.744 216.858 189.874 216.584 190.135C216.317 190.389 216.155 190.765 216.098 191.261H219.066C219.053 190.796 218.919 190.427 218.665 190.154C218.41 189.88 218.064 189.744 217.625 189.744ZM222.58 189.295C222.739 189.295 222.926 189.321 223.143 189.371C223.257 189.41 223.302 189.489 223.276 189.61L223.238 189.763C223.206 189.884 223.127 189.928 223 189.896C222.847 189.858 222.707 189.839 222.58 189.839C222.255 189.839 221.985 189.979 221.769 190.259C221.559 190.539 221.454 190.927 221.454 191.423V193.847C221.454 193.974 221.39 194.038 221.263 194.038H221.015C220.887 194.038 220.824 193.974 220.824 193.847V189.524C220.824 189.397 220.887 189.333 221.015 189.333H221.225C221.352 189.333 221.415 189.397 221.415 189.524V190.049C221.524 189.814 221.676 189.629 221.874 189.495C222.077 189.362 222.313 189.295 222.58 189.295ZM227.297 192.921C227.342 192.877 227.389 192.855 227.44 192.855C227.485 192.855 227.526 192.874 227.564 192.912L227.688 193.026C227.733 193.071 227.755 193.119 227.755 193.169C227.755 193.208 227.736 193.252 227.698 193.303C227.386 193.615 227.084 193.837 226.791 193.971C226.499 194.098 226.171 194.162 225.808 194.162C225.35 194.162 224.953 194.06 224.616 193.857C224.278 193.653 224.018 193.37 223.833 193.007C223.649 192.638 223.556 192.212 223.556 191.728C223.556 191.239 223.645 190.806 223.823 190.431C224.008 190.049 224.266 189.753 224.596 189.543C224.927 189.327 225.309 189.219 225.742 189.219C226.384 189.219 226.89 189.419 227.259 189.82C227.628 190.221 227.812 190.761 227.812 191.442V191.557C227.806 191.614 227.784 191.659 227.746 191.69C227.714 191.722 227.669 191.738 227.612 191.738H224.196C224.215 192.272 224.355 192.724 224.616 193.093C224.883 193.456 225.28 193.637 225.808 193.637C226.095 193.637 226.346 193.586 226.562 193.484C226.785 193.376 227.03 193.189 227.297 192.921ZM225.742 189.744C225.322 189.744 224.975 189.874 224.701 190.135C224.434 190.389 224.272 190.765 224.215 191.261H227.183C227.17 190.796 227.036 190.427 226.782 190.154C226.527 189.88 226.181 189.744 225.742 189.744Z" fill="#464646"/>
<path d="M103.625 212.809C103.498 212.809 103.434 212.746 103.434 212.618V206.225C103.434 206.097 103.498 206.034 103.625 206.034H103.921C104.048 206.034 104.111 206.097 104.111 206.225V212.246H107.156C107.283 212.246 107.346 212.31 107.346 212.437V212.618C107.346 212.746 107.283 212.809 107.156 212.809H103.625ZM108.629 206.912C108.502 206.912 108.394 206.867 108.305 206.778C108.222 206.689 108.181 206.581 108.181 206.454C108.181 206.326 108.222 206.222 108.305 206.139C108.394 206.056 108.502 206.015 108.629 206.015C108.763 206.015 108.871 206.056 108.954 206.139C109.043 206.222 109.087 206.326 109.087 206.454C109.087 206.581 109.043 206.689 108.954 206.778C108.871 206.867 108.763 206.912 108.629 206.912ZM108.505 212.809C108.378 212.809 108.314 212.746 108.314 212.618V208.295C108.314 208.168 108.378 208.105 108.505 208.105H108.753C108.881 208.105 108.944 208.168 108.944 208.295V212.618C108.944 212.746 108.881 212.809 108.753 212.809H108.505ZM112.445 207.99C112.999 207.99 113.416 208.143 113.696 208.448C113.982 208.754 114.125 209.135 114.125 209.593V212.618C114.125 212.746 114.061 212.809 113.934 212.809H113.686C113.559 212.809 113.495 212.746 113.495 212.618V209.803C113.495 209.383 113.393 209.065 113.19 208.849C112.986 208.633 112.694 208.525 112.312 208.525C112.07 208.525 111.847 208.585 111.644 208.706C111.44 208.82 111.278 208.979 111.157 209.183C111.036 209.387 110.976 209.609 110.976 209.851V212.618C110.976 212.746 110.912 212.809 110.785 212.809H110.537C110.41 212.809 110.346 212.746 110.346 212.618V208.295C110.346 208.168 110.41 208.105 110.537 208.105H110.747C110.874 208.105 110.938 208.168 110.938 208.295V208.754C111.097 208.499 111.307 208.308 111.568 208.181C111.828 208.054 112.121 207.99 112.445 207.99ZM118.915 212.809C118.82 212.809 118.744 212.768 118.686 212.685L117.074 210.338L116.148 211.282V212.618C116.148 212.746 116.084 212.809 115.957 212.809H115.709C115.582 212.809 115.518 212.746 115.518 212.618V206.225C115.518 206.097 115.582 206.034 115.709 206.034H115.957C116.084 206.034 116.148 206.097 116.148 206.225V210.567L118.438 208.191C118.495 208.127 118.575 208.095 118.677 208.095H118.944C118.995 208.095 119.033 208.108 119.058 208.133C119.09 208.152 119.106 208.178 119.106 208.21C119.106 208.241 119.087 208.283 119.049 208.334L117.513 209.937L119.316 212.58C119.342 212.625 119.354 212.663 119.354 212.695C119.354 212.771 119.303 212.809 119.202 212.809H118.915ZM124.589 214.298C124.55 214.336 124.506 214.355 124.455 214.355C124.404 214.355 124.36 214.33 124.321 214.279C123.743 213.63 123.297 212.956 122.985 212.256C122.68 211.556 122.527 210.764 122.527 209.88C122.527 208.995 122.68 208.203 122.985 207.503C123.297 206.804 123.743 206.129 124.321 205.48C124.36 205.429 124.404 205.404 124.455 205.404C124.506 205.404 124.55 205.423 124.589 205.461L124.713 205.576C124.764 205.614 124.789 205.662 124.789 205.719C124.789 205.763 124.77 205.805 124.732 205.843C124.21 206.479 123.819 207.115 123.558 207.752C123.304 208.388 123.176 209.097 123.176 209.88C123.176 210.656 123.307 211.365 123.568 212.008C123.828 212.644 124.216 213.28 124.732 213.916C124.77 213.954 124.789 213.996 124.789 214.04C124.789 214.097 124.764 214.145 124.713 214.183L124.589 214.298ZM128.539 212.952C127.897 212.952 127.337 212.803 126.86 212.504C126.383 212.198 126.017 211.779 125.762 211.244C125.508 210.71 125.381 210.102 125.381 209.422C125.381 208.741 125.508 208.133 125.762 207.599C126.017 207.064 126.383 206.648 126.86 206.349C127.337 206.043 127.897 205.891 128.539 205.891C129.182 205.891 129.742 206.043 130.219 206.349C130.696 206.648 131.062 207.064 131.316 207.599C131.571 208.133 131.698 208.741 131.698 209.422C131.698 210.102 131.571 210.71 131.316 211.244C131.062 211.779 130.696 212.198 130.219 212.504C129.742 212.803 129.182 212.952 128.539 212.952ZM128.539 212.37C129.029 212.37 129.462 212.246 129.837 211.998C130.212 211.744 130.502 211.394 130.705 210.948C130.915 210.497 131.02 209.988 131.02 209.422C131.02 208.855 130.915 208.35 130.705 207.904C130.502 207.453 130.212 207.103 129.837 206.855C129.462 206.6 129.029 206.473 128.539 206.473C128.049 206.473 127.617 206.6 127.241 206.855C126.866 207.103 126.573 207.453 126.363 207.904C126.16 208.35 126.058 208.855 126.058 209.422C126.058 209.988 126.16 210.497 126.363 210.948C126.573 211.394 126.866 211.744 127.241 211.998C127.617 212.246 128.049 212.37 128.539 212.37ZM135.076 208C135.47 208 135.823 208.105 136.135 208.315C136.453 208.518 136.701 208.808 136.879 209.183C137.057 209.552 137.147 209.975 137.147 210.452C137.147 210.936 137.057 211.365 136.879 211.74C136.701 212.116 136.456 212.408 136.145 212.618C135.833 212.822 135.477 212.924 135.076 212.924C134.338 212.924 133.797 212.653 133.454 212.113V214.374C133.454 214.501 133.39 214.565 133.263 214.565H133.015C132.887 214.565 132.824 214.501 132.824 214.374V208.295C132.824 208.168 132.887 208.105 133.015 208.105H133.224C133.352 208.105 133.415 208.168 133.415 208.295V208.897C133.587 208.604 133.813 208.381 134.093 208.229C134.373 208.076 134.7 208 135.076 208ZM135.028 212.389C135.473 212.389 135.83 212.211 136.097 211.855C136.364 211.499 136.498 211.031 136.498 210.452C136.498 209.88 136.364 209.418 136.097 209.068C135.83 208.712 135.473 208.534 135.028 208.534C134.551 208.534 134.163 208.706 133.864 209.049C133.571 209.387 133.425 209.854 133.425 210.452C133.425 211.05 133.574 211.524 133.873 211.874C134.172 212.218 134.557 212.389 135.028 212.389ZM140.245 212.284C140.264 212.278 140.289 212.275 140.321 212.275C140.359 212.275 140.394 212.288 140.426 212.313C140.458 212.338 140.477 212.373 140.483 212.418L140.512 212.552C140.518 212.564 140.521 212.587 140.521 212.618C140.521 212.707 140.474 212.761 140.378 212.781C140.149 212.851 139.904 212.886 139.644 212.886C139.23 212.886 138.934 212.793 138.756 212.609C138.584 212.418 138.498 212.144 138.498 211.788V208.582H137.792C137.665 208.582 137.601 208.518 137.601 208.391V208.295C137.601 208.168 137.665 208.105 137.792 208.105H138.498V206.654C138.498 206.527 138.562 206.463 138.689 206.463H138.937C139.065 206.463 139.128 206.527 139.128 206.654V208.105H140.273C140.401 208.105 140.464 208.168 140.464 208.295V208.391C140.464 208.518 140.401 208.582 140.273 208.582H139.128V211.712C139.128 211.947 139.173 212.113 139.262 212.208C139.351 212.303 139.504 212.351 139.72 212.351C139.873 212.351 140.048 212.329 140.245 212.284ZM141.74 206.912C141.613 206.912 141.505 206.867 141.416 206.778C141.333 206.689 141.292 206.581 141.292 206.454C141.292 206.326 141.333 206.222 141.416 206.139C141.505 206.056 141.613 206.015 141.74 206.015C141.874 206.015 141.982 206.056 142.065 206.139C142.154 206.222 142.198 206.326 142.198 206.454C142.198 206.581 142.154 206.689 142.065 206.778C141.982 206.867 141.874 206.912 141.74 206.912ZM141.616 212.809C141.489 212.809 141.425 212.746 141.425 212.618V208.295C141.425 208.168 141.489 208.105 141.616 208.105H141.864C141.991 208.105 142.055 208.168 142.055 208.295V212.618C142.055 212.746 141.991 212.809 141.864 212.809H141.616ZM145.403 212.933C144.965 212.933 144.573 212.828 144.23 212.618C143.886 212.408 143.619 212.119 143.428 211.75C143.237 211.375 143.142 210.945 143.142 210.462C143.142 209.978 143.237 209.552 143.428 209.183C143.619 208.808 143.886 208.515 144.23 208.305C144.573 208.095 144.965 207.99 145.403 207.99C145.842 207.99 146.234 208.095 146.577 208.305C146.921 208.515 147.188 208.808 147.379 209.183C147.57 209.552 147.665 209.978 147.665 210.462C147.665 210.945 147.57 211.375 147.379 211.75C147.188 212.119 146.921 212.408 146.577 212.618C146.234 212.828 145.842 212.933 145.403 212.933ZM145.403 212.408C145.893 212.408 146.285 212.23 146.577 211.874C146.87 211.511 147.016 211.041 147.016 210.462C147.016 209.883 146.87 209.415 146.577 209.059C146.285 208.696 145.893 208.515 145.403 208.515C144.914 208.515 144.522 208.696 144.23 209.059C143.937 209.415 143.791 209.883 143.791 210.462C143.791 211.041 143.937 211.511 144.23 211.874C144.522 212.23 144.914 212.408 145.403 212.408ZM150.859 207.99C151.412 207.99 151.829 208.143 152.109 208.448C152.395 208.754 152.538 209.135 152.538 209.593V212.618C152.538 212.746 152.475 212.809 152.347 212.809H152.099C151.972 212.809 151.908 212.746 151.908 212.618V209.803C151.908 209.383 151.807 209.065 151.603 208.849C151.399 208.633 151.107 208.525 150.725 208.525C150.483 208.525 150.261 208.585 150.057 208.706C149.854 208.82 149.691 208.979 149.57 209.183C149.45 209.387 149.389 209.609 149.389 209.851V212.618C149.389 212.746 149.326 212.809 149.198 212.809H148.95C148.823 212.809 148.759 212.746 148.759 212.618V208.295C148.759 208.168 148.823 208.105 148.95 208.105H149.16C149.287 208.105 149.351 208.168 149.351 208.295V208.754C149.51 208.499 149.72 208.308 149.981 208.181C150.242 208.054 150.534 207.99 150.859 207.99ZM155.745 207.99C156.323 207.99 156.775 208.13 157.1 208.41C157.424 208.684 157.586 209.046 157.586 209.498V212.618C157.586 212.746 157.523 212.809 157.395 212.809H157.205C157.077 212.809 157.014 212.746 157.014 212.618V212.189C156.855 212.443 156.629 212.634 156.336 212.761C156.05 212.889 155.729 212.952 155.372 212.952C154.876 212.952 154.472 212.847 154.16 212.637C153.849 212.427 153.693 212.103 153.693 211.664C153.693 211.314 153.791 211.034 153.989 210.824C154.186 210.608 154.444 210.446 154.762 210.338C155.08 210.223 155.477 210.121 155.954 210.032L156.985 209.851V209.546C156.985 209.221 156.874 208.97 156.651 208.792C156.428 208.607 156.136 208.515 155.773 208.515C155.5 208.515 155.251 208.566 155.029 208.668C154.806 208.769 154.568 208.944 154.313 209.193C154.269 209.237 154.221 209.259 154.17 209.259C154.125 209.259 154.084 209.24 154.046 209.202L153.922 209.088C153.877 209.043 153.855 208.995 153.855 208.944C153.855 208.887 153.877 208.836 153.922 208.792C154.189 208.512 154.469 208.308 154.762 208.181C155.061 208.054 155.388 207.99 155.745 207.99ZM155.401 212.427C155.859 212.427 156.238 212.307 156.537 212.065C156.836 211.823 156.985 211.515 156.985 211.139V210.338L156.098 210.509C155.684 210.592 155.356 210.672 155.115 210.748C154.873 210.824 154.679 210.936 154.533 211.082C154.386 211.228 154.313 211.419 154.313 211.655C154.313 211.896 154.409 212.087 154.599 212.227C154.797 212.361 155.064 212.427 155.401 212.427ZM159.183 212.809C159.056 212.809 158.992 212.746 158.992 212.618V206.225C158.992 206.097 159.056 206.034 159.183 206.034H159.431C159.558 206.034 159.622 206.097 159.622 206.225V212.618C159.622 212.746 159.558 212.809 159.431 212.809H159.183ZM160.966 214.279C160.927 214.33 160.883 214.355 160.832 214.355C160.781 214.355 160.737 214.336 160.698 214.298L160.574 214.183C160.523 214.145 160.498 214.097 160.498 214.04C160.498 213.996 160.517 213.954 160.555 213.916C161.077 213.28 161.468 212.644 161.729 212.008C161.99 211.371 162.12 210.662 162.12 209.88C162.12 209.103 161.99 208.394 161.729 207.752C161.468 207.109 161.077 206.473 160.555 205.843C160.523 205.805 160.507 205.763 160.507 205.719C160.507 205.662 160.53 205.614 160.574 205.576L160.698 205.461C160.737 205.423 160.781 205.404 160.832 205.404C160.883 205.404 160.927 205.429 160.966 205.48C161.544 206.129 161.987 206.804 162.292 207.503C162.604 208.203 162.76 208.995 162.76 209.88C162.76 210.764 162.604 211.556 162.292 212.256C161.987 212.956 161.544 213.63 160.966 214.279Z" fill="#0063FB"/>
<path d="M105.336 249.029C104.815 249.029 104.347 248.956 103.933 248.81C103.526 248.657 103.106 248.403 102.674 248.047C102.585 247.977 102.54 247.894 102.54 247.798C102.54 247.716 102.572 247.639 102.636 247.569L102.855 247.312C102.925 247.223 103.005 247.178 103.094 247.178C103.164 247.178 103.243 247.213 103.332 247.283C103.714 247.589 104.054 247.798 104.353 247.913C104.659 248.027 104.993 248.085 105.355 248.085C105.794 248.085 106.15 247.986 106.424 247.789C106.698 247.585 106.834 247.309 106.834 246.959C106.834 246.73 106.764 246.552 106.624 246.424C106.484 246.291 106.303 246.189 106.081 246.119C105.864 246.049 105.511 245.957 105.021 245.842C104.43 245.702 103.968 245.55 103.638 245.384C103.307 245.219 103.068 245.022 102.922 244.793C102.782 244.557 102.712 244.261 102.712 243.905C102.712 243.53 102.82 243.193 103.036 242.893C103.253 242.594 103.549 242.362 103.924 242.197C104.306 242.031 104.732 241.949 105.203 241.949C105.68 241.949 106.1 242.012 106.462 242.14C106.831 242.267 107.2 242.474 107.569 242.76C107.665 242.836 107.712 242.916 107.712 242.998C107.712 243.068 107.681 243.145 107.617 243.227L107.407 243.476C107.331 243.565 107.251 243.609 107.168 243.609C107.092 243.609 107.013 243.577 106.93 243.514C106.624 243.278 106.341 243.116 106.081 243.027C105.82 242.938 105.524 242.893 105.193 242.893C104.773 242.893 104.433 242.986 104.172 243.17C103.911 243.355 103.781 243.587 103.781 243.867C103.781 244.07 103.841 244.233 103.962 244.354C104.083 244.474 104.258 244.573 104.487 244.649C104.716 244.726 105.069 244.818 105.546 244.926C106.125 245.066 106.583 245.216 106.92 245.375C107.257 245.527 107.509 245.725 107.674 245.966C107.84 246.208 107.922 246.517 107.922 246.892C107.922 247.312 107.814 247.684 107.598 248.008C107.382 248.333 107.079 248.584 106.691 248.762C106.303 248.94 105.851 249.029 105.336 249.029ZM112.27 247.674C112.353 247.604 112.433 247.569 112.509 247.569C112.585 247.569 112.665 247.611 112.748 247.693L112.881 247.837C112.951 247.919 112.986 247.999 112.986 248.075C112.986 248.158 112.945 248.237 112.862 248.314C112.569 248.568 112.277 248.75 111.984 248.858C111.698 248.966 111.38 249.02 111.03 249.02C110.54 249.02 110.114 248.918 109.751 248.715C109.395 248.511 109.118 248.225 108.921 247.856C108.73 247.48 108.635 247.048 108.635 246.558C108.635 246.074 108.727 245.642 108.911 245.26C109.102 244.872 109.369 244.57 109.713 244.354C110.063 244.137 110.47 244.029 110.934 244.029C111.628 244.029 112.162 244.236 112.538 244.649C112.913 245.057 113.101 245.62 113.101 246.338V246.424C113.094 246.526 113.062 246.606 113.005 246.663C112.948 246.72 112.865 246.749 112.757 246.749H109.627C109.665 247.169 109.802 247.512 110.037 247.779C110.279 248.04 110.616 248.171 111.049 248.171C111.284 248.171 111.491 248.136 111.669 248.066C111.847 247.989 112.048 247.859 112.27 247.674ZM110.915 244.831C110.565 244.831 110.282 244.936 110.066 245.146C109.856 245.349 109.719 245.639 109.656 246.014H112.108C112.083 245.645 111.968 245.356 111.765 245.146C111.561 244.936 111.278 244.831 110.915 244.831ZM116.117 249.02C115.652 249.02 115.242 248.918 114.886 248.715C114.536 248.511 114.262 248.222 114.065 247.846C113.874 247.464 113.779 247.022 113.779 246.52C113.779 246.017 113.877 245.578 114.075 245.203C114.272 244.827 114.549 244.538 114.905 244.334C115.261 244.131 115.671 244.029 116.136 244.029C116.473 244.029 116.775 244.08 117.042 244.182C117.316 244.277 117.577 244.443 117.825 244.678C117.901 244.754 117.939 244.834 117.939 244.917C117.939 244.993 117.898 245.072 117.815 245.155L117.653 245.317C117.583 245.387 117.507 245.422 117.424 245.422C117.341 245.422 117.255 245.384 117.166 245.308C116.982 245.149 116.807 245.041 116.642 244.983C116.483 244.92 116.311 244.888 116.126 244.888C115.706 244.888 115.382 245.044 115.153 245.356C114.924 245.667 114.809 246.055 114.809 246.52C114.809 246.984 114.924 247.375 115.153 247.693C115.382 248.005 115.706 248.161 116.126 248.161C116.33 248.161 116.518 248.123 116.689 248.047C116.861 247.964 117.046 247.827 117.243 247.636C117.325 247.554 117.411 247.512 117.5 247.512C117.577 247.512 117.65 247.544 117.72 247.608L117.882 247.741C117.965 247.811 118.006 247.891 118.006 247.98C118.006 248.075 117.958 248.177 117.863 248.285C117.602 248.552 117.332 248.743 117.052 248.858C116.778 248.966 116.467 249.02 116.117 249.02ZM120.871 249.02C120.406 249.02 119.993 248.915 119.63 248.705C119.274 248.495 118.994 248.202 118.79 247.827C118.587 247.445 118.485 247.01 118.485 246.52C118.485 246.03 118.587 245.597 118.79 245.222C118.994 244.847 119.274 244.554 119.63 244.344C119.993 244.134 120.406 244.029 120.871 244.029C121.329 244.029 121.739 244.134 122.102 244.344C122.464 244.554 122.747 244.85 122.951 245.231C123.154 245.607 123.256 246.036 123.256 246.52C123.256 247.01 123.154 247.445 122.951 247.827C122.747 248.202 122.464 248.495 122.102 248.705C121.739 248.915 121.329 249.02 120.871 249.02ZM120.871 248.171C121.278 248.171 121.605 248.021 121.853 247.722C122.102 247.417 122.226 247.016 122.226 246.52C122.226 246.03 122.102 245.635 121.853 245.336C121.605 245.037 121.278 244.888 120.871 244.888C120.463 244.888 120.136 245.037 119.888 245.336C119.64 245.635 119.516 246.03 119.516 246.52C119.516 247.016 119.64 247.417 119.888 247.722C120.136 248.021 120.463 248.171 120.871 248.171ZM126.543 244.029C127.084 244.029 127.497 244.182 127.784 244.487C128.076 244.786 128.223 245.174 128.223 245.651V248.543C128.223 248.645 128.194 248.727 128.137 248.791C128.079 248.848 127.997 248.877 127.889 248.877H127.545C127.443 248.877 127.361 248.848 127.297 248.791C127.24 248.727 127.211 248.645 127.211 248.543V245.966C127.211 245.623 127.125 245.359 126.953 245.174C126.788 244.99 126.549 244.897 126.238 244.897C125.932 244.897 125.675 245.002 125.465 245.212C125.261 245.422 125.159 245.686 125.159 246.004V248.543C125.159 248.645 125.131 248.727 125.073 248.791C125.016 248.848 124.934 248.877 124.825 248.877H124.482C124.38 248.877 124.297 248.848 124.234 248.791C124.176 248.727 124.148 248.645 124.148 248.543V244.506C124.148 244.398 124.176 244.315 124.234 244.258C124.297 244.201 124.38 244.172 124.482 244.172H124.759C124.867 244.172 124.949 244.201 125.007 244.258C125.064 244.315 125.093 244.398 125.093 244.506V244.754C125.245 244.519 125.446 244.341 125.694 244.22C125.942 244.093 126.225 244.029 126.543 244.029ZM132.697 242.426C132.697 242.318 132.725 242.235 132.782 242.178C132.846 242.121 132.929 242.092 133.03 242.092H133.374C133.482 242.092 133.565 242.121 133.622 242.178C133.679 242.235 133.708 242.318 133.708 242.426V248.543C133.708 248.645 133.679 248.727 133.622 248.791C133.565 248.848 133.482 248.877 133.374 248.877H133.097C132.996 248.877 132.913 248.848 132.849 248.791C132.792 248.727 132.763 248.645 132.763 248.543V248.209C132.432 248.743 131.914 249.01 131.208 249.01C130.813 249.01 130.457 248.909 130.139 248.705C129.827 248.501 129.582 248.212 129.404 247.837C129.226 247.461 129.137 247.026 129.137 246.529C129.137 246.039 129.226 245.607 129.404 245.231C129.589 244.856 129.84 244.567 130.158 244.363C130.476 244.16 130.832 244.058 131.227 244.058C131.876 244.058 132.366 244.284 132.697 244.735V242.426ZM131.418 248.142C131.806 248.142 132.124 247.999 132.372 247.713C132.62 247.42 132.744 247.026 132.744 246.529C132.744 246.033 132.62 245.642 132.372 245.356C132.124 245.069 131.806 244.926 131.418 244.926C131.042 244.926 130.74 245.072 130.511 245.365C130.282 245.658 130.168 246.046 130.168 246.529C130.168 247.019 130.279 247.41 130.502 247.703C130.731 247.996 131.036 248.142 131.418 248.142ZM136.868 244.029C137.505 244.029 137.994 244.179 138.338 244.478C138.681 244.77 138.853 245.161 138.853 245.651V248.543C138.853 248.645 138.825 248.727 138.767 248.791C138.71 248.848 138.627 248.877 138.519 248.877H138.271C138.169 248.877 138.087 248.848 138.023 248.791C137.966 248.727 137.937 248.645 137.937 248.543V248.333C137.784 248.556 137.574 248.727 137.307 248.848C137.04 248.969 136.728 249.029 136.372 249.029C135.882 249.029 135.478 248.921 135.16 248.705C134.848 248.482 134.693 248.148 134.693 247.703C134.693 247.207 134.877 246.841 135.246 246.606C135.621 246.364 136.14 246.183 136.802 246.062L137.88 245.861V245.69C137.88 245.429 137.788 245.228 137.603 245.088C137.425 244.942 137.186 244.869 136.887 244.869C136.633 244.869 136.41 244.913 136.219 245.002C136.035 245.085 135.835 245.225 135.618 245.422C135.536 245.492 135.456 245.527 135.38 245.527C135.303 245.527 135.224 245.492 135.141 245.422L134.988 245.289C134.906 245.212 134.864 245.13 134.864 245.041C134.864 244.958 134.903 244.878 134.979 244.802C135.252 244.541 135.542 244.347 135.847 244.22C136.153 244.093 136.493 244.029 136.868 244.029ZM136.515 248.218C136.897 248.218 137.218 248.117 137.479 247.913C137.746 247.709 137.88 247.417 137.88 247.035V246.596L137.05 246.768C136.585 246.863 136.242 246.971 136.019 247.092C135.796 247.213 135.685 247.398 135.685 247.646C135.685 247.824 135.758 247.964 135.905 248.066C136.051 248.167 136.254 248.218 136.515 248.218ZM142.127 244.125C142.267 244.125 142.411 244.14 142.557 244.172C142.729 244.21 142.814 244.312 142.814 244.478C142.814 244.522 142.811 244.554 142.805 244.573L142.757 244.802C142.719 244.98 142.624 245.069 142.471 245.069L142.385 245.06C142.271 245.041 142.169 245.031 142.08 245.031C141.762 245.031 141.504 245.158 141.307 245.413C141.116 245.661 141.02 246.008 141.02 246.453V248.543C141.02 248.645 140.992 248.727 140.935 248.791C140.877 248.848 140.795 248.877 140.686 248.877H140.343C140.241 248.877 140.158 248.848 140.095 248.791C140.038 248.727 140.009 248.645 140.009 248.543V244.506C140.009 244.398 140.038 244.315 140.095 244.258C140.158 244.201 140.241 244.172 140.343 244.172H140.62C140.728 244.172 140.811 244.201 140.868 244.258C140.925 244.315 140.954 244.398 140.954 244.506V244.878C141.068 244.643 141.224 244.459 141.421 244.325C141.618 244.191 141.854 244.125 142.127 244.125ZM146.618 244.449C146.676 244.264 146.8 244.172 146.991 244.172H147.334C147.43 244.172 147.503 244.194 147.554 244.239C147.605 244.284 147.63 244.344 147.63 244.42C147.63 244.459 147.62 244.503 147.601 244.554L145.893 249.459C145.741 249.904 145.55 250.219 145.321 250.404C145.098 250.594 144.78 250.69 144.366 250.69C144.176 250.69 144.013 250.677 143.88 250.652C143.791 250.645 143.724 250.614 143.679 250.556C143.635 250.505 143.613 250.442 143.613 250.365C143.613 250.321 143.616 250.286 143.622 250.26L143.651 250.136C143.695 249.958 143.791 249.869 143.937 249.869C143.994 249.869 144.048 249.872 144.099 249.879C144.15 249.885 144.201 249.888 144.252 249.888C144.436 249.888 144.589 249.841 144.71 249.745C144.837 249.65 144.942 249.475 145.025 249.22L145.053 249.144L143.422 244.554C143.403 244.503 143.393 244.455 143.393 244.411C143.393 244.334 143.418 244.277 143.469 244.239C143.527 244.194 143.603 244.172 143.698 244.172H144.061C144.258 244.172 144.385 244.264 144.443 244.449L144.815 245.565C145.095 246.367 145.333 247.102 145.531 247.77L145.807 246.921C145.852 246.787 145.919 246.577 146.008 246.291C146.097 246.004 146.176 245.76 146.246 245.556L146.618 244.449Z" fill="#0063FB"/>
<rect x="167.898" y="231.72" width="71.8927" height="28.3141" rx="4.17495" fill="#0063FB"/>
<path d="M177.913 248.877C177.811 248.877 177.728 248.848 177.665 248.791C177.607 248.727 177.579 248.645 177.579 248.543V242.435C177.579 242.327 177.607 242.245 177.665 242.187C177.728 242.13 177.811 242.101 177.913 242.101H180.652C181.326 242.101 181.863 242.289 182.264 242.664C182.665 243.033 182.865 243.539 182.865 244.182C182.865 244.824 182.665 245.33 182.264 245.699C181.863 246.068 181.326 246.253 180.652 246.253H178.667V248.543C178.667 248.645 178.638 248.727 178.581 248.791C178.524 248.848 178.441 248.877 178.333 248.877H177.913ZM180.48 245.346C180.887 245.346 181.205 245.247 181.434 245.05C181.669 244.847 181.787 244.557 181.787 244.182C181.787 243.8 181.669 243.511 181.434 243.313C181.205 243.11 180.887 243.008 180.48 243.008H178.667V245.346H180.48ZM185.882 244.125C186.022 244.125 186.165 244.14 186.311 244.172C186.483 244.21 186.569 244.312 186.569 244.478C186.569 244.522 186.565 244.554 186.559 244.573L186.511 244.802C186.473 244.98 186.378 245.069 186.225 245.069L186.139 245.06C186.025 245.041 185.923 245.031 185.834 245.031C185.516 245.031 185.258 245.158 185.061 245.413C184.87 245.661 184.775 246.008 184.775 246.453V248.543C184.775 248.645 184.746 248.727 184.689 248.791C184.631 248.848 184.549 248.877 184.441 248.877H184.097C183.995 248.877 183.913 248.848 183.849 248.791C183.792 248.727 183.763 248.645 183.763 248.543V244.506C183.763 244.398 183.792 244.315 183.849 244.258C183.913 244.201 183.995 244.172 184.097 244.172H184.374C184.482 244.172 184.565 244.201 184.622 244.258C184.679 244.315 184.708 244.398 184.708 244.506V244.878C184.822 244.643 184.978 244.459 185.175 244.325C185.373 244.191 185.608 244.125 185.882 244.125ZM187.82 243.256C187.635 243.256 187.479 243.196 187.352 243.075C187.225 242.948 187.161 242.798 187.161 242.626C187.161 242.448 187.225 242.299 187.352 242.178C187.479 242.057 187.635 241.996 187.82 241.996C188.004 241.996 188.16 242.057 188.287 242.178C188.414 242.299 188.478 242.448 188.478 242.626C188.478 242.798 188.414 242.948 188.287 243.075C188.16 243.196 188.004 243.256 187.82 243.256ZM187.638 248.877C187.537 248.877 187.454 248.848 187.39 248.791C187.333 248.727 187.304 248.645 187.304 248.543V244.506C187.304 244.398 187.333 244.315 187.39 244.258C187.454 244.201 187.537 244.172 187.638 244.172H187.982C188.09 244.172 188.173 244.201 188.23 244.258C188.287 244.315 188.316 244.398 188.316 244.506V248.543C188.316 248.645 188.287 248.727 188.23 248.791C188.173 248.848 188.09 248.877 187.982 248.877H187.638ZM194.533 244.029C195.036 244.029 195.424 244.172 195.697 244.459C195.971 244.738 196.108 245.117 196.108 245.594V248.543C196.108 248.645 196.079 248.727 196.022 248.791C195.965 248.848 195.882 248.877 195.774 248.877H195.43C195.328 248.877 195.246 248.848 195.182 248.791C195.125 248.727 195.096 248.645 195.096 248.543V245.899C195.096 245.588 195.026 245.343 194.886 245.165C194.746 244.987 194.533 244.897 194.247 244.897C193.954 244.897 193.722 244.996 193.55 245.193C193.385 245.391 193.302 245.645 193.302 245.957V248.543C193.302 248.645 193.273 248.727 193.216 248.791C193.159 248.848 193.076 248.877 192.968 248.877H192.625C192.523 248.877 192.44 248.848 192.376 248.791C192.319 248.727 192.291 248.645 192.291 248.543V245.899C192.291 245.588 192.221 245.343 192.081 245.165C191.947 244.987 191.737 244.897 191.451 244.897C191.171 244.897 190.945 244.99 190.773 245.174C190.602 245.359 190.509 245.597 190.497 245.89V248.543C190.497 248.645 190.468 248.727 190.411 248.791C190.353 248.848 190.271 248.877 190.163 248.877H189.819C189.717 248.877 189.635 248.848 189.571 248.791C189.514 248.727 189.485 248.645 189.485 248.543V244.506C189.485 244.398 189.514 244.315 189.571 244.258C189.635 244.201 189.717 244.172 189.819 244.172H190.096C190.204 244.172 190.287 244.201 190.344 244.258C190.401 244.315 190.43 244.398 190.43 244.506V244.716C190.722 244.258 191.174 244.029 191.785 244.029C192.09 244.029 192.357 244.093 192.586 244.22C192.815 244.347 192.99 244.525 193.111 244.754C193.436 244.271 193.91 244.029 194.533 244.029ZM199.251 244.029C199.888 244.029 200.377 244.179 200.721 244.478C201.064 244.77 201.236 245.161 201.236 245.651V248.543C201.236 248.645 201.208 248.727 201.15 248.791C201.093 248.848 201.01 248.877 200.902 248.877H200.654C200.552 248.877 200.47 248.848 200.406 248.791C200.349 248.727 200.32 248.645 200.32 248.543V248.333C200.167 248.556 199.957 248.727 199.69 248.848C199.423 248.969 199.111 249.029 198.755 249.029C198.265 249.029 197.861 248.921 197.543 248.705C197.231 248.482 197.076 248.148 197.076 247.703C197.076 247.207 197.26 246.841 197.629 246.606C198.004 246.364 198.523 246.183 199.185 246.062L200.263 245.861V245.69C200.263 245.429 200.171 245.228 199.986 245.088C199.808 244.942 199.569 244.869 199.27 244.869C199.016 244.869 198.793 244.913 198.602 245.002C198.418 245.085 198.218 245.225 198.001 245.422C197.919 245.492 197.839 245.527 197.763 245.527C197.686 245.527 197.607 245.492 197.524 245.422L197.371 245.289C197.289 245.212 197.247 245.13 197.247 245.041C197.247 244.958 197.286 244.878 197.362 244.802C197.635 244.541 197.925 244.347 198.23 244.22C198.536 244.093 198.876 244.029 199.251 244.029ZM198.898 248.218C199.28 248.218 199.601 248.117 199.862 247.913C200.129 247.709 200.263 247.417 200.263 247.035V246.596L199.433 246.768C198.968 246.863 198.625 246.971 198.402 247.092C198.179 247.213 198.068 247.398 198.068 247.646C198.068 247.824 198.141 247.964 198.288 248.066C198.434 248.167 198.637 248.218 198.898 248.218ZM204.51 244.125C204.65 244.125 204.794 244.14 204.94 244.172C205.112 244.21 205.198 244.312 205.198 244.478C205.198 244.522 205.194 244.554 205.188 244.573L205.14 244.802C205.102 244.98 205.007 245.069 204.854 245.069L204.768 245.06C204.654 245.041 204.552 245.031 204.463 245.031C204.145 245.031 203.887 245.158 203.69 245.413C203.499 245.661 203.403 246.008 203.403 246.453V248.543C203.403 248.645 203.375 248.727 203.318 248.791C203.26 248.848 203.178 248.877 203.069 248.877H202.726C202.624 248.877 202.541 248.848 202.478 248.791C202.421 248.727 202.392 248.645 202.392 248.543V244.506C202.392 244.398 202.421 244.315 202.478 244.258C202.541 244.201 202.624 244.172 202.726 244.172H203.003C203.111 244.172 203.194 244.201 203.251 244.258C203.308 244.315 203.337 244.398 203.337 244.506V244.878C203.451 244.643 203.607 244.459 203.804 244.325C204.001 244.191 204.237 244.125 204.51 244.125ZM209.001 244.449C209.059 244.264 209.183 244.172 209.374 244.172H209.717C209.813 244.172 209.886 244.194 209.937 244.239C209.988 244.284 210.013 244.344 210.013 244.42C210.013 244.459 210.003 244.503 209.984 244.554L208.276 249.459C208.124 249.904 207.933 250.219 207.704 250.404C207.481 250.594 207.163 250.69 206.749 250.69C206.559 250.69 206.396 250.677 206.263 250.652C206.174 250.645 206.107 250.614 206.062 250.556C206.018 250.505 205.996 250.442 205.996 250.365C205.996 250.321 205.999 250.286 206.005 250.26L206.034 250.136C206.078 249.958 206.174 249.869 206.32 249.869C206.377 249.869 206.431 249.872 206.482 249.879C206.533 249.885 206.584 249.888 206.635 249.888C206.819 249.888 206.972 249.841 207.093 249.745C207.22 249.65 207.325 249.475 207.408 249.22L207.436 249.144L205.805 244.554C205.786 244.503 205.776 244.455 205.776 244.411C205.776 244.334 205.801 244.277 205.852 244.239C205.91 244.194 205.986 244.172 206.081 244.172H206.444C206.641 244.172 206.768 244.264 206.826 244.449L207.198 245.565C207.478 246.367 207.716 247.102 207.914 247.77L208.19 246.921C208.235 246.787 208.302 246.577 208.391 246.291C208.48 246.004 208.559 245.76 208.629 245.556L209.001 244.449ZM215.939 249.029C215.265 249.029 214.679 248.877 214.183 248.571C213.693 248.266 213.315 247.846 213.048 247.312C212.787 246.771 212.656 246.16 212.656 245.48C212.656 244.799 212.787 244.194 213.048 243.666C213.309 243.132 213.687 242.712 214.183 242.407C214.679 242.101 215.274 241.949 215.968 241.949C216.388 241.949 216.769 242.009 217.113 242.13C217.456 242.245 217.803 242.439 218.153 242.712C218.248 242.789 218.296 242.874 218.296 242.97C218.296 243.033 218.264 243.107 218.201 243.189L217.991 243.437C217.914 243.526 217.835 243.571 217.752 243.571C217.689 243.571 217.609 243.539 217.514 243.476C217.227 243.253 216.963 243.1 216.722 243.018C216.486 242.935 216.232 242.893 215.958 242.893C215.513 242.893 215.125 243.002 214.794 243.218C214.463 243.434 214.209 243.74 214.031 244.134C213.852 244.522 213.763 244.971 213.763 245.48C213.763 245.989 213.852 246.44 214.031 246.835C214.209 247.229 214.46 247.538 214.784 247.76C215.109 247.977 215.487 248.085 215.92 248.085C216.245 248.085 216.534 248.027 216.788 247.913C217.043 247.798 217.32 247.614 217.619 247.36C217.701 247.29 217.781 247.255 217.857 247.255C217.94 247.255 218.019 247.299 218.096 247.388L218.306 247.627C218.369 247.697 218.401 247.77 218.401 247.846C218.401 247.954 218.35 248.05 218.248 248.132C217.88 248.451 217.514 248.68 217.151 248.82C216.795 248.96 216.391 249.029 215.939 249.029ZM221.536 248.877C221.434 248.877 221.351 248.848 221.288 248.791C221.23 248.727 221.202 248.645 221.202 248.543V243.027H219.465C219.363 243.027 219.28 242.998 219.217 242.941C219.16 242.878 219.131 242.795 219.131 242.693V242.435C219.131 242.327 219.16 242.245 219.217 242.187C219.28 242.13 219.363 242.101 219.465 242.101H224.017C224.125 242.101 224.208 242.13 224.265 242.187C224.322 242.245 224.351 242.327 224.351 242.435V242.693C224.351 242.795 224.322 242.878 224.265 242.941C224.208 242.998 224.125 243.027 224.017 243.027H222.29V248.543C222.29 248.645 222.261 248.727 222.204 248.791C222.146 248.848 222.064 248.877 221.956 248.877H221.536ZM229.395 248.877C229.204 248.877 229.077 248.788 229.013 248.61L228.565 247.321H225.569L225.12 248.61C225.056 248.788 224.929 248.877 224.738 248.877H224.338C224.242 248.877 224.166 248.858 224.108 248.82C224.058 248.775 224.032 248.715 224.032 248.638C224.032 248.6 224.042 248.552 224.061 248.495L226.275 242.369C226.338 242.191 226.466 242.101 226.656 242.101H227.506C227.697 242.101 227.824 242.191 227.887 242.369L230.101 248.495C230.12 248.552 230.13 248.6 230.13 248.638C230.13 248.715 230.101 248.775 230.044 248.82C229.993 248.858 229.92 248.877 229.825 248.877H229.395ZM228.26 246.415L227.964 245.575C227.957 245.562 227.887 245.362 227.754 244.974C227.417 244.02 227.188 243.339 227.067 242.932C226.882 243.517 226.637 244.242 226.332 245.107L226.17 245.585L225.883 246.415H228.26Z" fill="white"/>
<rect x="167.898" y="231.72" width="71.8927" height="28.3141" rx="4.17495" stroke="#0063FB" stroke-width="1.19284"/>
</g>
<defs>
<filter id="filter0_dd_1838_18704" x="75.5278" y="35" width="191.944" height="255.716" filterUnits="userSpaceOnUse" color-interpolation-filters="sRGB">
<feFlood flood-opacity="0" result="BackgroundImageFix"/>
<feColorMatrix in="SourceAlpha" type="matrix" values="0 0 0 0 0 0 0 0 0 0 0 0 0 0 0 0 0 0 127 0" result="hardAlpha"/>
<feOffset dy="3"/>
<feGaussianBlur stdDeviation="3"/>
<feColorMatrix type="matrix" values="0 0 0 0 0.272549 0 0 0 0 0.272549 0 0 0 0 0.272549 0 0 0 0.16 0"/>
<feBlend mode="normal" in2="BackgroundImageFix" result="effect1_dropShadow_1838_18704"/>
<feColorMatrix in="SourceAlpha" type="matrix" values="0 0 0 0 0 0 0 0 0 0 0 0 0 0 0 0 0 0 127 0" result="hardAlpha"/>
<feOffset dy="3"/>
<feGaussianBlur stdDeviation="4"/>
<feColorMatrix type="matrix" values="0 0 0 0 0.272549 0 0 0 0 0.272549 0 0 0 0 0.272549 0 0 0 0.24 0"/>
<feBlend mode="normal" in2="effect1_dropShadow_1838_18704" result="effect2_dropShadow_1838_18704"/>
<feBlend mode="normal" in="SourceGraphic" in2="effect2_dropShadow_1838_18704" result="shape"/>
</filter>
</defs>
</svg>
