<svg width="344" height="220" viewBox="0 0 344 220" fill="none" xmlns="http://www.w3.org/2000/svg">
<g clip-path="url(#clip0_1855_24292)">
<rect width="344" height="220" fill="#F5F5F5"/>
<g filter="url(#filter0_dd_1855_24292)">
<rect x="40" y="-170" width="264" height="350" rx="7.15932" fill="white"/>
<path d="M70.8424 32.4575C70.6324 32.4575 70.4618 32.3985 70.3305 32.2803C70.2124 32.1491 70.1533 31.9784 70.1533 31.7684V19.168C70.1533 18.9449 70.2124 18.7743 70.3305 18.6561C70.4618 18.538 70.6324 18.4789 70.8424 18.4789H75.5872C76.8998 18.4789 78.022 18.7743 78.9539 19.3649C79.8989 19.9556 80.6143 20.7825 81.0999 21.8456C81.5987 22.8956 81.8481 24.1032 81.8481 25.4682C81.8481 26.8333 81.5987 28.0474 81.0999 29.1105C80.6143 30.1606 79.8989 30.9809 78.9539 31.5716C78.022 32.1622 76.8998 32.4575 75.5872 32.4575H70.8424ZM75.2525 30.5675C76.5913 30.5675 77.6414 30.1278 78.4026 29.2484C79.177 28.3558 79.5642 27.0958 79.5642 25.4682C79.5642 23.8407 79.177 22.5872 78.4026 21.7078C77.6414 20.8153 76.5913 20.369 75.2525 20.369H72.3978V30.5675H75.2525ZM91.016 29.9768C91.1866 29.8324 91.3507 29.7602 91.5082 29.7602C91.6657 29.7602 91.8297 29.8456 92.0004 30.0162L92.276 30.3115C92.4204 30.4821 92.4926 30.6462 92.4926 30.8037C92.4926 30.9743 92.4073 31.1384 92.2366 31.2959C91.6329 31.8209 91.0291 32.195 90.4253 32.4181C89.8347 32.6413 89.1784 32.7528 88.4565 32.7528C87.4459 32.7528 86.5665 32.5428 85.8183 32.1228C85.0833 31.7028 84.5123 31.1122 84.1054 30.3509C83.7117 29.5765 83.5148 28.684 83.5148 27.6733C83.5148 26.6758 83.7051 25.7832 84.0857 24.9957C84.4795 24.1951 85.0308 23.5716 85.7396 23.1253C86.4614 22.6791 87.3015 22.4559 88.2596 22.4559C89.6903 22.4559 90.7928 22.8825 91.5672 23.7357C92.3416 24.5757 92.7288 25.7373 92.7288 27.2205V27.3977C92.7157 27.6077 92.6501 27.7717 92.532 27.8899C92.4138 28.008 92.2432 28.0671 92.0201 28.0671H85.5624C85.6411 28.9333 85.9233 29.6421 86.4089 30.1934C86.9077 30.7315 87.6034 31.0006 88.4959 31.0006C88.9815 31.0006 89.4081 30.9284 89.7756 30.784C90.1431 30.6265 90.5566 30.3575 91.016 29.9768ZM88.2203 24.1097C87.4984 24.1097 86.9143 24.3263 86.468 24.7595C86.0349 25.1795 85.7527 25.7767 85.6214 26.5511H90.6813C90.6288 25.7898 90.3925 25.1926 89.9725 24.7595C89.5525 24.3263 88.9684 24.1097 88.2203 24.1097ZM95.4086 32.4575C95.1986 32.4575 95.0279 32.3985 94.8967 32.2803C94.7786 32.1491 94.7195 31.9784 94.7195 31.7684V19.168C94.7195 18.9449 94.7786 18.7743 94.8967 18.6561C95.0279 18.538 95.1986 18.4789 95.4086 18.4789H96.1174C96.3405 18.4789 96.5111 18.538 96.6292 18.6561C96.7474 18.7743 96.8064 18.9449 96.8064 19.168V31.7684C96.8064 31.9784 96.7474 32.1491 96.6292 32.2803C96.5111 32.3985 96.3405 32.4575 96.1174 32.4575H95.4086ZM106.244 29.9768C106.414 29.8324 106.578 29.7602 106.736 29.7602C106.893 29.7602 107.057 29.8456 107.228 30.0162L107.504 30.3115C107.648 30.4821 107.72 30.6462 107.72 30.8037C107.72 30.9743 107.635 31.1384 107.464 31.2959C106.86 31.8209 106.257 32.195 105.653 32.4181C105.062 32.6413 104.406 32.7528 103.684 32.7528C102.673 32.7528 101.794 32.5428 101.046 32.1228C100.311 31.7028 99.7399 31.1122 99.333 30.3509C98.9392 29.5765 98.7423 28.684 98.7423 27.6733C98.7423 26.6758 98.9327 25.7832 99.3133 24.9957C99.7071 24.1951 100.258 23.5716 100.967 23.1253C101.689 22.6791 102.529 22.4559 103.487 22.4559C104.918 22.4559 106.02 22.8825 106.795 23.7357C107.569 24.5757 107.956 25.7373 107.956 27.2205V27.3977C107.943 27.6077 107.878 27.7717 107.759 27.8899C107.641 28.008 107.471 28.0671 107.248 28.0671H100.79C100.869 28.9333 101.151 29.6421 101.636 30.1934C102.135 30.7315 102.831 31.0006 103.723 31.0006C104.209 31.0006 104.636 30.9284 105.003 30.784C105.371 30.6265 105.784 30.3575 106.244 29.9768ZM103.448 24.1097C102.726 24.1097 102.142 24.3263 101.696 24.7595C101.262 25.1795 100.98 25.7767 100.849 26.5511H105.909C105.856 25.7898 105.62 25.1926 105.2 24.7595C104.78 24.3263 104.196 24.1097 103.448 24.1097ZM114.439 30.8037C114.478 30.7906 114.537 30.784 114.616 30.784C114.944 30.784 115.141 30.9743 115.207 31.355L115.266 31.67C115.279 31.7094 115.285 31.775 115.285 31.8669C115.285 32.195 115.102 32.405 114.734 32.4969C114.209 32.615 113.73 32.6741 113.297 32.6741C112.365 32.6741 111.689 32.4575 111.269 32.0244C110.862 31.5912 110.659 30.9415 110.659 30.0753V24.346H109.576C109.366 24.346 109.195 24.2869 109.064 24.1688C108.946 24.0376 108.887 23.8669 108.887 23.6569V23.4404C108.887 23.2172 108.946 23.0466 109.064 22.9285C109.195 22.8103 109.366 22.7513 109.576 22.7513H110.659V20.3099C110.659 20.0868 110.718 19.9162 110.836 19.798C110.967 19.6799 111.138 19.6209 111.348 19.6209H112.056C112.28 19.6209 112.45 19.6799 112.568 19.798C112.686 19.9162 112.746 20.0868 112.746 20.3099V22.7513H114.517C114.741 22.7513 114.911 22.8103 115.029 22.9285C115.147 23.0466 115.207 23.2172 115.207 23.4404V23.6569C115.207 23.8669 115.147 24.0376 115.029 24.1688C114.911 24.2869 114.741 24.346 114.517 24.346H112.746V29.8193C112.746 30.1999 112.824 30.469 112.982 30.6265C113.152 30.784 113.421 30.8628 113.789 30.8628C113.946 30.8628 114.163 30.8431 114.439 30.8037ZM123.567 29.9768C123.737 29.8324 123.901 29.7602 124.059 29.7602C124.216 29.7602 124.381 29.8456 124.551 30.0162L124.827 30.3115C124.971 30.4821 125.043 30.6462 125.043 30.8037C125.043 30.9743 124.958 31.1384 124.787 31.2959C124.184 31.8209 123.58 32.195 122.976 32.4181C122.385 32.6413 121.729 32.7528 121.007 32.7528C119.997 32.7528 119.117 32.5428 118.369 32.1228C117.634 31.7028 117.063 31.1122 116.656 30.3509C116.262 29.5765 116.066 28.684 116.066 27.6733C116.066 26.6758 116.256 25.7832 116.637 24.9957C117.03 24.1951 117.582 23.5716 118.29 23.1253C119.012 22.6791 119.852 22.4559 120.81 22.4559C122.241 22.4559 123.344 22.8825 124.118 23.7357C124.892 24.5757 125.28 25.7373 125.28 27.2205V27.3977C125.267 27.6077 125.201 27.7717 125.083 27.8899C124.965 28.008 124.794 28.0671 124.571 28.0671H118.113C118.192 28.9333 118.474 29.6421 118.96 30.1934C119.459 30.7315 120.154 31.0006 121.047 31.0006C121.532 31.0006 121.959 30.9284 122.326 30.784C122.694 30.6265 123.107 30.3575 123.567 29.9768ZM120.771 24.1097C120.049 24.1097 119.465 24.3263 119.019 24.7595C118.586 25.1795 118.303 25.7767 118.172 26.5511H123.232C123.18 25.7898 122.943 25.1926 122.523 24.7595C122.103 24.3263 121.519 24.1097 120.771 24.1097ZM135.867 32.7528C134.909 32.7528 134.062 32.5428 133.327 32.1228C132.605 31.7028 132.041 31.1056 131.634 30.3312C131.24 29.5437 131.043 28.6315 131.043 27.5945C131.043 26.5576 131.247 25.652 131.654 24.8776C132.06 24.1032 132.631 23.506 133.366 23.086C134.101 22.666 134.948 22.4559 135.906 22.4559C136.602 22.4559 137.225 22.5609 137.777 22.771C138.341 22.9678 138.879 23.3091 139.391 23.7947C139.548 23.9522 139.627 24.1163 139.627 24.2869C139.627 24.4444 139.542 24.6085 139.371 24.7791L139.037 25.1138C138.892 25.2582 138.735 25.3304 138.564 25.3304C138.393 25.3304 138.216 25.2517 138.032 25.0942C137.652 24.766 137.291 24.5429 136.95 24.4248C136.621 24.2935 136.267 24.2279 135.886 24.2279C135.02 24.2279 134.351 24.5495 133.878 25.1926C133.406 25.8357 133.169 26.6364 133.169 27.5945C133.169 28.5527 133.406 29.3599 133.878 30.0162C134.351 30.6593 135.02 30.9809 135.886 30.9809C136.306 30.9809 136.694 30.9022 137.048 30.7447C137.402 30.574 137.783 30.2918 138.19 29.8981C138.361 29.7274 138.538 29.6421 138.722 29.6421C138.879 29.6421 139.03 29.7077 139.174 29.839L139.509 30.1146C139.68 30.259 139.765 30.4231 139.765 30.6068C139.765 30.8037 139.667 31.0137 139.47 31.2369C138.932 31.7881 138.374 32.1819 137.796 32.4181C137.232 32.6413 136.589 32.7528 135.867 32.7528ZM145.675 32.7528C144.717 32.7528 143.863 32.5363 143.115 32.1031C142.38 31.67 141.803 31.0662 141.383 30.2918C140.963 29.5043 140.753 28.6052 140.753 27.5945C140.753 26.5839 140.963 25.6914 141.383 24.917C141.803 24.1426 142.38 23.5388 143.115 23.1057C143.863 22.6725 144.717 22.4559 145.675 22.4559C146.62 22.4559 147.466 22.6725 148.214 23.1057C148.963 23.5388 149.547 24.1491 149.967 24.9367C150.387 25.7111 150.597 26.597 150.597 27.5945C150.597 28.6052 150.387 29.5043 149.967 30.2918C149.547 31.0662 148.963 31.67 148.214 32.1031C147.466 32.5363 146.62 32.7528 145.675 32.7528ZM145.675 31.0006C146.515 31.0006 147.191 30.6922 147.703 30.0753C148.214 29.4452 148.47 28.6183 148.47 27.5945C148.47 26.5839 148.214 25.7701 147.703 25.1532C147.191 24.5363 146.515 24.2279 145.675 24.2279C144.835 24.2279 144.159 24.5363 143.647 25.1532C143.135 25.7701 142.879 26.5839 142.879 27.5945C142.879 28.6183 143.135 29.4452 143.647 30.0753C144.159 30.6922 144.835 31.0006 145.675 31.0006ZM157.378 22.4559C158.494 22.4559 159.347 22.771 159.937 23.401C160.541 24.0179 160.843 24.8185 160.843 25.8029V31.7684C160.843 31.9784 160.784 32.1491 160.666 32.2803C160.548 32.3985 160.377 32.4575 160.154 32.4575H159.445C159.235 32.4575 159.065 32.3985 158.933 32.2803C158.815 32.1491 158.756 31.9784 158.756 31.7684V26.4526C158.756 25.7439 158.579 25.1992 158.224 24.8185C157.883 24.4379 157.391 24.2476 156.748 24.2476C156.118 24.2476 155.586 24.4641 155.153 24.8973C154.733 25.3304 154.523 25.8751 154.523 26.5314V31.7684C154.523 31.9784 154.464 32.1491 154.346 32.2803C154.228 32.3985 154.057 32.4575 153.834 32.4575H153.125C152.915 32.4575 152.745 32.3985 152.613 32.2803C152.495 32.1491 152.436 31.9784 152.436 31.7684V23.4404C152.436 23.2172 152.495 23.0466 152.613 22.9285C152.745 22.8103 152.915 22.7513 153.125 22.7513H153.696C153.919 22.7513 154.09 22.8103 154.208 22.9285C154.326 23.0466 154.385 23.2172 154.385 23.4404V23.9522C154.7 23.4666 155.114 23.0991 155.626 22.8497C156.138 22.5872 156.722 22.4559 157.378 22.4559ZM168.918 23.3222C169.036 22.9416 169.292 22.7513 169.686 22.7513H170.414C170.821 22.7513 171.024 22.9153 171.024 23.2435C171.024 23.3353 171.005 23.4338 170.965 23.5388L168.111 31.9063C167.992 32.2738 167.73 32.4575 167.323 32.4575H165.925C165.518 32.4575 165.256 32.2738 165.138 31.9063L162.283 23.5388C162.243 23.4338 162.224 23.3353 162.224 23.2435C162.224 22.9153 162.427 22.7513 162.834 22.7513H163.622C164.015 22.7513 164.271 22.9416 164.389 23.3222L165.295 26.1376C165.886 28.0277 166.339 29.5634 166.654 30.7447C167.074 29.1827 167.526 27.6471 168.012 26.1376L168.918 23.3222ZM179.497 29.9768C179.668 29.8324 179.832 29.7602 179.989 29.7602C180.147 29.7602 180.311 29.8456 180.482 30.0162L180.757 30.3115C180.902 30.4821 180.974 30.6462 180.974 30.8037C180.974 30.9743 180.889 31.1384 180.718 31.2959C180.114 31.8209 179.51 32.195 178.907 32.4181C178.316 32.6413 177.66 32.7528 176.938 32.7528C175.927 32.7528 175.048 32.5428 174.3 32.1228C173.565 31.7028 172.994 31.1122 172.587 30.3509C172.193 29.5765 171.996 28.684 171.996 27.6733C171.996 26.6758 172.186 25.7832 172.567 24.9957C172.961 24.1951 173.512 23.5716 174.221 23.1253C174.943 22.6791 175.783 22.4559 176.741 22.4559C178.172 22.4559 179.274 22.8825 180.048 23.7357C180.823 24.5757 181.21 25.7373 181.21 27.2205V27.3977C181.197 27.6077 181.131 27.7717 181.013 27.8899C180.895 28.008 180.724 28.0671 180.501 28.0671H174.044C174.122 28.9333 174.405 29.6421 174.89 30.1934C175.389 30.7315 176.085 31.0006 176.977 31.0006C177.463 31.0006 177.889 30.9284 178.257 30.784C178.624 30.6265 179.038 30.3575 179.497 29.9768ZM176.702 24.1097C175.98 24.1097 175.396 24.3263 174.949 24.7595C174.516 25.1795 174.234 25.7767 174.103 26.5511H179.163C179.11 25.7898 178.874 25.1926 178.454 24.7595C178.034 24.3263 177.45 24.1097 176.702 24.1097ZM187.493 22.6528C187.782 22.6528 188.077 22.6856 188.379 22.7513C188.733 22.83 188.91 23.04 188.91 23.3813C188.91 23.4732 188.904 23.5388 188.891 23.5782L188.792 24.0507C188.713 24.4182 188.517 24.602 188.202 24.602L188.024 24.5823C187.788 24.5429 187.578 24.5232 187.394 24.5232C186.738 24.5232 186.206 24.7857 185.8 25.3107C185.406 25.8226 185.209 26.538 185.209 27.4567V31.7684C185.209 31.9784 185.15 32.1491 185.032 32.2803C184.914 32.3985 184.743 32.4575 184.52 32.4575H183.811C183.601 32.4575 183.43 32.3985 183.299 32.2803C183.181 32.1491 183.122 31.9784 183.122 31.7684V23.4404C183.122 23.2172 183.181 23.0466 183.299 22.9285C183.43 22.8103 183.601 22.7513 183.811 22.7513H184.382C184.605 22.7513 184.776 22.8103 184.894 22.9285C185.012 23.0466 185.071 23.2172 185.071 23.4404V24.2082C185.307 23.7225 185.629 23.3419 186.036 23.0663C186.443 22.7906 186.928 22.6528 187.493 22.6528ZM193.9 32.7528C193.099 32.7528 192.384 32.6544 191.754 32.4575C191.137 32.2475 190.507 31.8866 189.864 31.3747C189.667 31.2303 189.568 31.0662 189.568 30.8825C189.568 30.7381 189.641 30.5806 189.785 30.41L190.08 30.0753C190.238 29.8915 190.408 29.7996 190.592 29.7996C190.736 29.7996 190.894 29.8652 191.065 29.9965C191.616 30.4034 192.102 30.6856 192.522 30.8431C192.942 30.9875 193.414 31.0597 193.939 31.0597C194.503 31.0597 194.963 30.9481 195.317 30.725C195.685 30.4887 195.869 30.1737 195.869 29.7799C195.869 29.478 195.764 29.2418 195.554 29.0712C195.357 28.8874 195.094 28.7496 194.766 28.6577C194.438 28.5527 193.952 28.4346 193.309 28.3033C192.403 28.1064 191.695 27.8964 191.183 27.6733C190.684 27.437 190.323 27.1417 190.1 26.7873C189.877 26.4329 189.765 25.9801 189.765 25.4289C189.765 24.8645 189.923 24.3591 190.238 23.9129C190.566 23.4666 191.019 23.1122 191.596 22.8497C192.187 22.5872 192.876 22.4559 193.663 22.4559C194.372 22.4559 195.002 22.5347 195.554 22.6922C196.118 22.8497 196.669 23.1188 197.207 23.4994C197.417 23.6569 197.522 23.8341 197.522 24.031C197.522 24.1623 197.457 24.3132 197.325 24.4838L197.069 24.7988C196.925 24.9826 196.748 25.0745 196.538 25.0745C196.38 25.0745 196.229 25.022 196.085 24.917C195.652 24.6282 195.252 24.4313 194.884 24.3263C194.517 24.2082 194.103 24.1491 193.644 24.1491C193.079 24.1491 192.627 24.2607 192.285 24.4838C191.944 24.707 191.773 24.9957 191.773 25.3501C191.773 25.5864 191.852 25.7767 192.01 25.9211C192.18 26.0523 192.417 26.1704 192.718 26.2754C193.033 26.3673 193.526 26.4855 194.195 26.6298C195.101 26.8267 195.816 27.0498 196.341 27.2992C196.879 27.5355 197.273 27.8439 197.522 28.2246C197.785 28.5921 197.916 29.0712 197.916 29.6618C197.916 30.5806 197.549 31.3287 196.814 31.9063C196.092 32.4706 195.12 32.7528 193.9 32.7528ZM203.887 22.4559C205.199 22.4559 206.21 22.7644 206.919 23.3813C207.627 23.9851 207.982 24.7923 207.982 25.8029V31.7684C207.982 31.9784 207.923 32.1491 207.805 32.2803C207.686 32.3985 207.516 32.4575 207.293 32.4575H206.781C206.571 32.4575 206.4 32.3985 206.269 32.2803C206.151 32.1491 206.092 31.9784 206.092 31.7684V31.3353C205.777 31.7947 205.344 32.1491 204.792 32.3985C204.241 32.6478 203.598 32.7725 202.863 32.7725C201.852 32.7725 201.019 32.5494 200.362 32.1031C199.719 31.6437 199.398 30.9547 199.398 30.0359C199.398 29.0121 199.778 28.2574 200.54 27.7717C201.314 27.273 202.384 26.8989 203.749 26.6495L205.974 26.2361V25.8817C205.974 25.3435 205.783 24.9301 205.403 24.6413C205.035 24.3394 204.543 24.1885 203.926 24.1885C203.401 24.1885 202.942 24.2804 202.548 24.4641C202.167 24.6348 201.754 24.9235 201.308 25.3304C201.137 25.4748 200.973 25.547 200.815 25.547C200.658 25.547 200.494 25.4748 200.323 25.3304L200.008 25.0548C199.837 24.8973 199.752 24.7266 199.752 24.5429C199.752 24.3723 199.831 24.2082 199.988 24.0507C200.553 23.5125 201.15 23.1122 201.78 22.8497C202.41 22.5872 203.112 22.4559 203.887 22.4559ZM203.158 31.099C203.946 31.099 204.609 30.889 205.147 30.469C205.698 30.049 205.974 29.4452 205.974 28.6577V27.7521L204.261 28.1064C203.303 28.3033 202.594 28.5265 202.134 28.7758C201.675 29.0252 201.445 29.4059 201.445 29.9177C201.445 30.2853 201.596 30.574 201.898 30.784C202.2 30.994 202.62 31.099 203.158 31.099ZM214.841 30.8037C214.88 30.7906 214.939 30.784 215.018 30.784C215.346 30.784 215.543 30.9743 215.608 31.355L215.667 31.67C215.681 31.7094 215.687 31.775 215.687 31.8669C215.687 32.195 215.503 32.405 215.136 32.4969C214.611 32.615 214.132 32.6741 213.699 32.6741C212.767 32.6741 212.091 32.4575 211.671 32.0244C211.264 31.5912 211.06 30.9415 211.06 30.0753V24.346H209.978C209.768 24.346 209.597 24.2869 209.466 24.1688C209.348 24.0376 209.288 23.8669 209.288 23.6569V23.4404C209.288 23.2172 209.348 23.0466 209.466 22.9285C209.597 22.8103 209.768 22.7513 209.978 22.7513H211.06V20.3099C211.06 20.0868 211.119 19.9162 211.238 19.798C211.369 19.6799 211.539 19.6209 211.749 19.6209H212.458C212.681 19.6209 212.852 19.6799 212.97 19.798C213.088 19.9162 213.147 20.0868 213.147 20.3099V22.7513H214.919C215.142 22.7513 215.313 22.8103 215.431 22.9285C215.549 23.0466 215.608 23.2172 215.608 23.4404V23.6569C215.608 23.8669 215.549 24.0376 215.431 24.1688C215.313 24.2869 215.142 24.346 214.919 24.346H213.147V29.8193C213.147 30.1999 213.226 30.469 213.384 30.6265C213.554 30.784 213.823 30.8628 214.191 30.8628C214.348 30.8628 214.565 30.8431 214.841 30.8037ZM218.389 20.8612C218.009 20.8612 217.687 20.7365 217.425 20.4871C217.162 20.2246 217.031 19.9162 217.031 19.5618C217.031 19.1943 217.162 18.8858 217.425 18.6364C217.687 18.3871 218.009 18.2624 218.389 18.2624C218.77 18.2624 219.092 18.3871 219.354 18.6364C219.617 18.8858 219.748 19.1943 219.748 19.5618C219.748 19.9162 219.617 20.2246 219.354 20.4871C219.092 20.7365 218.77 20.8612 218.389 20.8612ZM218.015 32.4575C217.805 32.4575 217.635 32.3985 217.503 32.2803C217.385 32.1491 217.326 31.9784 217.326 31.7684V23.4404C217.326 23.2172 217.385 23.0466 217.503 22.9285C217.635 22.8103 217.805 22.7513 218.015 22.7513H218.724C218.947 22.7513 219.118 22.8103 219.236 22.9285C219.354 23.0466 219.413 23.2172 219.413 23.4404V31.7684C219.413 31.9784 219.354 32.1491 219.236 32.2803C219.118 32.3985 218.947 32.4575 218.724 32.4575H218.015ZM226.196 32.7528C225.238 32.7528 224.385 32.5363 223.637 32.1031C222.902 31.67 222.324 31.0662 221.904 30.2918C221.484 29.5043 221.274 28.6052 221.274 27.5945C221.274 26.5839 221.484 25.6914 221.904 24.917C222.324 24.1426 222.902 23.5388 223.637 23.1057C224.385 22.6725 225.238 22.4559 226.196 22.4559C227.141 22.4559 227.988 22.6725 228.736 23.1057C229.484 23.5388 230.068 24.1491 230.488 24.9367C230.908 25.7111 231.118 26.597 231.118 27.5945C231.118 28.6052 230.908 29.5043 230.488 30.2918C230.068 31.0662 229.484 31.67 228.736 32.1031C227.988 32.5363 227.141 32.7528 226.196 32.7528ZM226.196 31.0006C227.036 31.0006 227.712 30.6922 228.224 30.0753C228.736 29.4452 228.992 28.6183 228.992 27.5945C228.992 26.5839 228.736 25.7701 228.224 25.1532C227.712 24.5363 227.036 24.2279 226.196 24.2279C225.356 24.2279 224.68 24.5363 224.168 25.1532C223.656 25.7701 223.4 26.5839 223.4 27.5945C223.4 28.6183 223.656 29.4452 224.168 30.0753C224.68 30.6922 225.356 31.0006 226.196 31.0006ZM237.899 22.4559C239.015 22.4559 239.868 22.771 240.459 23.401C241.063 24.0179 241.364 24.8185 241.364 25.8029V31.7684C241.364 31.9784 241.305 32.1491 241.187 32.2803C241.069 32.3985 240.898 32.4575 240.675 32.4575H239.967C239.757 32.4575 239.586 32.3985 239.455 32.2803C239.337 32.1491 239.277 31.9784 239.277 31.7684V26.4526C239.277 25.7439 239.1 25.1992 238.746 24.8185C238.405 24.4379 237.912 24.2476 237.269 24.2476C236.639 24.2476 236.108 24.4641 235.675 24.8973C235.255 25.3304 235.045 25.8751 235.045 26.5314V31.7684C235.045 31.9784 234.985 32.1491 234.867 32.2803C234.749 32.3985 234.579 32.4575 234.355 32.4575H233.647C233.437 32.4575 233.266 32.3985 233.135 32.2803C233.017 32.1491 232.958 31.9784 232.958 31.7684V23.4404C232.958 23.2172 233.017 23.0466 233.135 22.9285C233.266 22.8103 233.437 22.7513 233.647 22.7513H234.218C234.441 22.7513 234.611 22.8103 234.73 22.9285C234.848 23.0466 234.907 23.2172 234.907 23.4404V23.9522C235.222 23.4666 235.635 23.0991 236.147 22.8497C236.659 22.5872 237.243 22.4559 237.899 22.4559Z" fill="#464646"/>
<path d="M72.6609 61.6169C72.47 61.6169 72.3745 61.5215 72.3745 61.3306V52.2955H69.3819C69.191 52.2955 69.0955 52.2 69.0955 52.0091V51.7371C69.0955 51.5462 69.191 51.4507 69.3819 51.4507H76.3694C76.5603 51.4507 76.6558 51.5462 76.6558 51.7371V52.0091C76.6558 52.2 76.5603 52.2955 76.3694 52.2955H73.3911V61.3306C73.3911 61.5215 73.2957 61.6169 73.1047 61.6169H72.6609ZM81.3207 54.386C82.1417 54.386 82.7669 54.6199 83.1965 55.0876C83.626 55.5458 83.8408 56.1138 83.8408 56.7916V61.3306C83.8408 61.5215 83.7454 61.6169 83.5544 61.6169H83.1822C82.9912 61.6169 82.8958 61.5215 82.8958 61.3306V57.1066C82.8958 56.4766 82.7431 55.9993 82.4376 55.6747C82.1321 55.3501 81.693 55.1879 81.1203 55.1879C80.7575 55.1879 80.4234 55.2786 80.118 55.4599C79.8125 55.6318 79.5691 55.8704 79.3877 56.1759C79.2064 56.4813 79.1157 56.8154 79.1157 57.1782V61.3306C79.1157 61.5215 79.0202 61.6169 78.8293 61.6169H78.457C78.2661 61.6169 78.1706 61.5215 78.1706 61.3306V51.7371C78.1706 51.5462 78.2661 51.4507 78.457 51.4507H78.8293C79.0202 51.4507 79.1157 51.5462 79.1157 51.7371V55.4742C79.3448 55.1115 79.6502 54.8395 80.0321 54.6581C80.4234 54.4767 80.853 54.386 81.3207 54.386ZM91.0716 59.9417C91.1384 59.8748 91.21 59.8414 91.2864 59.8414C91.3532 59.8414 91.4153 59.8701 91.4725 59.9273L91.6587 60.0992C91.7255 60.166 91.7589 60.2376 91.7589 60.3139C91.7589 60.3712 91.7303 60.438 91.673 60.5144C91.2053 60.9822 90.7518 61.3163 90.3127 61.5167C89.8736 61.7076 89.382 61.8031 88.8379 61.8031C88.1506 61.8031 87.554 61.6504 87.0481 61.3449C86.5422 61.0394 86.1508 60.6146 85.874 60.0705C85.5971 59.5169 85.4587 58.8773 85.4587 58.1518C85.4587 57.4168 85.5924 56.7677 85.8596 56.2045C86.1365 55.6318 86.5231 55.1879 87.0194 54.8729C87.5158 54.5483 88.0886 54.386 88.7377 54.386C89.7018 54.386 90.4607 54.6867 91.0143 55.2881C91.568 55.8895 91.8448 56.7009 91.8448 57.7223V57.8941C91.8353 57.98 91.8019 58.0468 91.7446 58.0946C91.6969 58.1423 91.6301 58.1662 91.5441 58.1662H86.4181C86.4467 58.968 86.6567 59.6457 87.0481 60.1994C87.449 60.7435 88.0456 61.0156 88.8379 61.0156C89.2675 61.0156 89.6445 60.9392 89.9691 60.7865C90.3032 60.6242 90.6707 60.3426 91.0716 59.9417ZM88.7377 55.1736C88.1077 55.1736 87.5874 55.3692 87.177 55.7606C86.776 56.1424 86.5326 56.7056 86.4467 57.4502H90.8998C90.8807 56.7534 90.6802 56.1997 90.2984 55.7893C89.9166 55.3788 89.3963 55.1736 88.7377 55.1736ZM99.759 61.8031C99.1004 61.8031 98.5133 61.6456 97.9978 61.3306C97.4823 61.0156 97.0814 60.5812 96.7951 60.0276C96.5087 59.4644 96.3655 58.82 96.3655 58.0946C96.3655 57.3691 96.5087 56.7295 96.7951 56.1759C97.0814 55.6127 97.4823 55.1736 97.9978 54.8585C98.5133 54.5435 99.1004 54.386 99.759 54.386C100.418 54.386 101.005 54.5435 101.52 54.8585C102.036 55.1736 102.437 55.6127 102.723 56.1759C103.009 56.7295 103.153 57.3691 103.153 58.0946C103.153 58.82 103.009 59.4644 102.723 60.0276C102.437 60.5812 102.036 61.0156 101.52 61.3306C101.005 61.6456 100.418 61.8031 99.759 61.8031ZM99.759 61.0156C100.494 61.0156 101.081 60.7483 101.52 60.2137C101.959 59.6696 102.179 58.9632 102.179 58.0946C102.179 57.2259 101.959 56.5243 101.52 55.9897C101.081 55.4456 100.494 55.1736 99.759 55.1736C99.024 55.1736 98.4369 55.4456 97.9978 55.9897C97.5587 56.5243 97.3392 57.2259 97.3392 58.0946C97.3392 58.9632 97.5587 59.6696 97.9978 60.2137C98.4369 60.7483 99.024 61.0156 99.759 61.0156ZM107.429 54.5006C107.668 54.5006 107.949 54.5388 108.274 54.6151C108.446 54.6724 108.512 54.7917 108.474 54.9731L108.417 55.2022C108.369 55.3836 108.25 55.4504 108.059 55.4027C107.83 55.3454 107.62 55.3167 107.429 55.3167C106.942 55.3167 106.536 55.5267 106.212 55.9468C105.897 56.3668 105.739 56.9491 105.739 57.6936V61.3306C105.739 61.5215 105.644 61.6169 105.453 61.6169H105.081C104.89 61.6169 104.794 61.5215 104.794 61.3306V54.8442C104.794 54.6533 104.89 54.5579 105.081 54.5579H105.396C105.587 54.5579 105.682 54.6533 105.682 54.8442V55.6318C105.844 55.2786 106.073 55.0017 106.369 54.8013C106.675 54.6008 107.028 54.5006 107.429 54.5006ZM110.231 52.768C110.04 52.768 109.878 52.7012 109.744 52.5676C109.62 52.4339 109.558 52.2716 109.558 52.0807C109.558 51.8898 109.62 51.7323 109.744 51.6082C109.878 51.4841 110.04 51.4221 110.231 51.4221C110.431 51.4221 110.594 51.4841 110.718 51.6082C110.851 51.7323 110.918 51.8898 110.918 52.0807C110.918 52.2716 110.851 52.4339 110.718 52.5676C110.594 52.7012 110.431 52.768 110.231 52.768ZM110.045 61.6169C109.854 61.6169 109.758 61.5215 109.758 61.3306V54.8442C109.758 54.6533 109.854 54.5579 110.045 54.5579H110.417C110.608 54.5579 110.703 54.6533 110.703 54.8442V61.3306C110.703 61.5215 110.608 61.6169 110.417 61.6169H110.045ZM117.875 54.8442C117.875 54.6533 117.971 54.5579 118.162 54.5579H118.463C118.653 54.5579 118.749 54.6533 118.749 54.8442V61.5454C118.749 62.4331 118.482 63.1299 117.947 63.6359C117.412 64.1513 116.663 64.4091 115.699 64.4091C114.659 64.4091 113.699 64.1132 112.821 63.5213C112.726 63.464 112.678 63.3925 112.678 63.3065C112.678 63.2397 112.697 63.1824 112.735 63.1347L112.907 62.8913C112.964 62.7958 113.041 62.7481 113.136 62.7481C113.174 62.7481 113.231 62.7672 113.308 62.8054C113.728 63.0727 114.119 63.2731 114.482 63.4068C114.854 63.5404 115.26 63.6072 115.699 63.6072C116.329 63.6072 116.84 63.4306 117.231 63.0774C117.622 62.7338 117.818 62.1992 117.818 61.4738V60.3283C117.303 61.1587 116.52 61.574 115.47 61.574C114.859 61.574 114.32 61.4213 113.852 61.1158C113.384 60.8008 113.021 60.3712 112.764 59.8271C112.516 59.283 112.391 58.6673 112.391 57.98C112.391 57.2927 112.516 56.677 112.764 56.1329C113.021 55.5888 113.384 55.164 113.852 54.8585C114.32 54.5435 114.859 54.386 115.47 54.386C116.024 54.386 116.501 54.5054 116.902 54.744C117.312 54.9731 117.637 55.3024 117.875 55.732V54.8442ZM115.57 60.7721C116.257 60.7721 116.806 60.5144 117.217 59.9989C117.627 59.4739 117.832 58.8009 117.832 57.98C117.832 57.1591 117.627 56.4909 117.217 55.9754C116.806 55.4504 116.257 55.1879 115.57 55.1879C114.873 55.1879 114.329 55.4456 113.938 55.9611C113.556 56.4766 113.365 57.1495 113.365 57.98C113.365 58.8105 113.556 59.4835 113.938 59.9989C114.329 60.5144 114.873 60.7721 115.57 60.7721ZM121.347 52.768C121.156 52.768 120.994 52.7012 120.861 52.5676C120.736 52.4339 120.674 52.2716 120.674 52.0807C120.674 51.8898 120.736 51.7323 120.861 51.6082C120.994 51.4841 121.156 51.4221 121.347 51.4221C121.548 51.4221 121.71 51.4841 121.834 51.6082C121.968 51.7323 122.035 51.8898 122.035 52.0807C122.035 52.2716 121.968 52.4339 121.834 52.5676C121.71 52.7012 121.548 52.768 121.347 52.768ZM121.161 61.6169C120.97 61.6169 120.875 61.5215 120.875 61.3306V54.8442C120.875 54.6533 120.97 54.5579 121.161 54.5579H121.534C121.724 54.5579 121.82 54.6533 121.82 54.8442V61.3306C121.82 61.5215 121.724 61.6169 121.534 61.6169H121.161ZM127.073 54.386C127.904 54.386 128.529 54.6151 128.949 55.0733C129.379 55.5315 129.593 56.1043 129.593 56.7916V61.3306C129.593 61.5215 129.498 61.6169 129.307 61.6169H128.935C128.744 61.6169 128.648 61.5215 128.648 61.3306V57.1066C128.648 56.4766 128.496 55.9993 128.19 55.6747C127.885 55.3501 127.446 55.1879 126.873 55.1879C126.51 55.1879 126.176 55.2786 125.871 55.4599C125.565 55.6318 125.322 55.8704 125.14 56.1759C124.959 56.4813 124.868 56.8154 124.868 57.1782V61.3306C124.868 61.5215 124.773 61.6169 124.582 61.6169H124.21C124.019 61.6169 123.923 61.5215 123.923 61.3306V54.8442C123.923 54.6533 124.019 54.5579 124.21 54.5579H124.525C124.715 54.5579 124.811 54.6533 124.811 54.8442V55.5315C125.05 55.1497 125.365 54.8633 125.756 54.6724C126.147 54.4815 126.586 54.386 127.073 54.386ZM134.404 54.386C135.273 54.386 135.951 54.596 136.438 55.016C136.924 55.4265 137.168 55.9706 137.168 56.6484V61.3306C137.168 61.5215 137.072 61.6169 136.881 61.6169H136.595C136.404 61.6169 136.309 61.5215 136.309 61.3306V60.6862C136.07 61.0681 135.731 61.3544 135.292 61.5454C134.863 61.7363 134.38 61.8317 133.846 61.8317C133.101 61.8317 132.495 61.6742 132.027 61.3592C131.56 61.0442 131.326 60.5574 131.326 59.8987C131.326 59.3737 131.474 58.9537 131.77 58.6387C132.066 58.3141 132.452 58.0707 132.929 57.9084C133.407 57.7366 134.003 57.5839 134.719 57.4502L136.266 57.1782V56.72C136.266 56.2331 136.099 55.8561 135.765 55.5888C135.43 55.312 134.991 55.1736 134.447 55.1736C134.037 55.1736 133.665 55.2499 133.33 55.4027C132.996 55.5554 132.638 55.8179 132.257 56.1902C132.19 56.257 132.118 56.2904 132.042 56.2904C131.975 56.2904 131.913 56.2618 131.856 56.2045L131.669 56.0327C131.603 55.9659 131.569 55.8943 131.569 55.8179C131.569 55.732 131.603 55.6556 131.669 55.5888C132.07 55.1688 132.49 54.8633 132.929 54.6724C133.378 54.4815 133.87 54.386 134.404 54.386ZM133.889 61.0442C134.576 61.0442 135.144 60.8628 135.593 60.5001C136.041 60.1374 136.266 59.6744 136.266 59.1112V57.9084L134.934 58.1662C134.314 58.2902 133.822 58.4096 133.459 58.5241C133.097 58.6387 132.805 58.8057 132.586 59.0253C132.366 59.2448 132.257 59.5312 132.257 59.8844C132.257 60.2471 132.4 60.5335 132.686 60.7435C132.982 60.944 133.383 61.0442 133.889 61.0442ZM139.563 61.6169C139.372 61.6169 139.277 61.5215 139.277 61.3306V51.7371C139.277 51.5462 139.372 51.4507 139.563 51.4507H139.936C140.126 51.4507 140.222 51.5462 140.222 51.7371V61.3306C140.222 61.5215 140.126 61.6169 139.936 61.6169H139.563ZM149.032 54.4003C149.624 54.4003 150.154 54.5579 150.621 54.8729C151.099 55.1783 151.471 55.6127 151.738 56.1759C152.006 56.7295 152.139 57.3643 152.139 58.0802C152.139 58.8057 152.006 59.4501 151.738 60.0133C151.471 60.5765 151.103 61.0156 150.636 61.3306C150.168 61.636 149.633 61.7888 149.032 61.7888C147.925 61.7888 147.113 61.3831 146.598 60.5717V63.9652C146.598 64.1561 146.502 64.2516 146.311 64.2516H145.939C145.748 64.2516 145.653 64.1561 145.653 63.9652V54.8442C145.653 54.6533 145.748 54.5579 145.939 54.5579H146.254C146.445 54.5579 146.541 54.6533 146.541 54.8442V55.7463C146.798 55.3072 147.137 54.9731 147.557 54.744C147.977 54.5149 148.469 54.4003 149.032 54.4003ZM148.96 60.9869C149.629 60.9869 150.163 60.7196 150.564 60.1851C150.965 59.6505 151.166 58.9489 151.166 58.0802C151.166 57.2211 150.965 56.5291 150.564 56.004C150.163 55.4695 149.629 55.2022 148.96 55.2022C148.245 55.2022 147.662 55.4599 147.214 55.9754C146.774 56.4813 146.555 57.1829 146.555 58.0802C146.555 58.9775 146.779 59.6887 147.228 60.2137C147.677 60.7292 148.254 60.9869 148.96 60.9869ZM156.824 61.8031C156.165 61.8031 155.578 61.6456 155.063 61.3306C154.547 61.0156 154.146 60.5812 153.86 60.0276C153.574 59.4644 153.43 58.82 153.43 58.0946C153.43 57.3691 153.574 56.7295 153.86 56.1759C154.146 55.6127 154.547 55.1736 155.063 54.8585C155.578 54.5435 156.165 54.386 156.824 54.386C157.483 54.386 158.07 54.5435 158.585 54.8585C159.101 55.1736 159.501 55.6127 159.788 56.1759C160.074 56.7295 160.217 57.3691 160.217 58.0946C160.217 58.82 160.074 59.4644 159.788 60.0276C159.501 60.5812 159.101 61.0156 158.585 61.3306C158.07 61.6456 157.483 61.8031 156.824 61.8031ZM156.824 61.0156C157.559 61.0156 158.146 60.7483 158.585 60.2137C159.024 59.6696 159.244 58.9632 159.244 58.0946C159.244 57.2259 159.024 56.5243 158.585 55.9897C158.146 55.4456 157.559 55.1736 156.824 55.1736C156.089 55.1736 155.502 55.4456 155.063 55.9897C154.624 56.5243 154.404 57.2259 154.404 58.0946C154.404 58.9632 154.624 59.6696 155.063 60.2137C155.502 60.7483 156.089 61.0156 156.824 61.0156ZM164.322 61.8031C163.74 61.8031 163.224 61.7219 162.776 61.5597C162.336 61.3878 161.874 61.1015 161.387 60.7006C161.301 60.6433 161.258 60.5765 161.258 60.5001C161.258 60.4333 161.291 60.3664 161.358 60.2996L161.544 60.0992C161.601 60.0228 161.673 59.9846 161.759 59.9846C161.826 59.9846 161.888 60.0133 161.945 60.0705C162.403 60.4237 162.809 60.6719 163.162 60.8151C163.515 60.9487 163.902 61.0156 164.322 61.0156C164.847 61.0156 165.277 60.901 165.611 60.6719C165.945 60.4333 166.112 60.1135 166.112 59.7126C166.112 59.3116 165.94 59.0157 165.596 58.8248C165.253 58.6339 164.723 58.4621 164.007 58.3093C163.377 58.1757 162.881 58.0373 162.518 57.8941C162.165 57.7414 161.902 57.5504 161.73 57.3214C161.559 57.0923 161.473 56.7916 161.473 56.4193C161.473 55.8083 161.721 55.3167 162.217 54.9445C162.714 54.5722 163.339 54.386 164.093 54.386C164.608 54.386 165.067 54.4528 165.467 54.5865C165.878 54.7106 166.288 54.9206 166.699 55.2165C166.785 55.2833 166.828 55.3549 166.828 55.4313C166.828 55.479 166.804 55.5411 166.756 55.6174L166.584 55.8322C166.537 55.9086 166.47 55.9468 166.384 55.9468C166.308 55.9468 166.241 55.9229 166.183 55.8752C165.792 55.5983 165.444 55.4122 165.138 55.3167C164.842 55.2213 164.503 55.1736 164.122 55.1736C163.597 55.1736 163.177 55.2881 162.861 55.5172C162.546 55.7463 162.389 56.0374 162.389 56.3906C162.389 56.6102 162.461 56.7868 162.604 56.9204C162.747 57.0541 162.952 57.1686 163.219 57.2641C163.487 57.35 163.878 57.4502 164.394 57.5648C165.348 57.7748 166.026 58.0325 166.427 58.338C166.837 58.6434 167.043 59.0873 167.043 59.6696C167.043 60.3092 166.79 60.8246 166.284 61.216C165.778 61.6074 165.124 61.8031 164.322 61.8031ZM171.792 60.8294C171.82 60.8199 171.859 60.8151 171.906 60.8151C171.964 60.8151 172.016 60.8342 172.064 60.8724C172.112 60.9106 172.14 60.9631 172.15 61.0299L172.193 61.2303C172.202 61.2494 172.207 61.2828 172.207 61.3306C172.207 61.4642 172.135 61.5454 171.992 61.574C171.649 61.679 171.281 61.7315 170.89 61.7315C170.269 61.7315 169.825 61.5931 169.558 61.3163C169.3 61.0299 169.171 60.6194 169.171 60.0848V55.2738H168.112C167.921 55.2738 167.825 55.1783 167.825 54.9874V54.8442C167.825 54.6533 167.921 54.5579 168.112 54.5579H169.171V52.3814C169.171 52.1905 169.267 52.095 169.458 52.095H169.83C170.021 52.095 170.116 52.1905 170.116 52.3814V54.5579H171.835C172.026 54.5579 172.121 54.6533 172.121 54.8442V54.9874C172.121 55.1783 172.026 55.2738 171.835 55.2738H170.116V59.9703C170.116 60.3235 170.183 60.5717 170.317 60.7149C170.451 60.8581 170.68 60.9296 171.004 60.9296C171.233 60.9296 171.496 60.8962 171.792 60.8294ZM179.584 54.386C180.452 54.386 181.13 54.596 181.617 55.016C182.104 55.4265 182.347 55.9706 182.347 56.6484V61.3306C182.347 61.5215 182.252 61.6169 182.061 61.6169H181.774C181.583 61.6169 181.488 61.5215 181.488 61.3306V60.6862C181.249 61.0681 180.91 61.3544 180.471 61.5454C180.042 61.7363 179.56 61.8317 179.025 61.8317C178.281 61.8317 177.674 61.6742 177.207 61.3592C176.739 61.0442 176.505 60.5574 176.505 59.8987C176.505 59.3737 176.653 58.9537 176.949 58.6387C177.245 58.3141 177.631 58.0707 178.109 57.9084C178.586 57.7366 179.183 57.5839 179.899 57.4502L181.445 57.1782V56.72C181.445 56.2331 181.278 55.8561 180.944 55.5888C180.61 55.312 180.171 55.1736 179.627 55.1736C179.216 55.1736 178.844 55.2499 178.51 55.4027C178.176 55.5554 177.818 55.8179 177.436 56.1902C177.369 56.257 177.297 56.2904 177.221 56.2904C177.154 56.2904 177.092 56.2618 177.035 56.2045L176.849 56.0327C176.782 55.9659 176.748 55.8943 176.748 55.8179C176.748 55.732 176.782 55.6556 176.849 55.5888C177.25 55.1688 177.67 54.8633 178.109 54.6724C178.557 54.4815 179.049 54.386 179.584 54.386ZM179.068 61.0442C179.755 61.0442 180.323 60.8628 180.772 60.5001C181.221 60.1374 181.445 59.6744 181.445 59.1112V57.9084L180.113 58.1662C179.493 58.2902 179.001 58.4096 178.639 58.5241C178.276 58.6387 177.985 58.8057 177.765 59.0253C177.546 59.2448 177.436 59.5312 177.436 59.8844C177.436 60.2471 177.579 60.5335 177.865 60.7435C178.161 60.944 178.562 61.0442 179.068 61.0442ZM187.592 54.386C188.422 54.386 189.048 54.6151 189.468 55.0733C189.897 55.5315 190.112 56.1043 190.112 56.7916V61.3306C190.112 61.5215 190.017 61.6169 189.826 61.6169H189.453C189.262 61.6169 189.167 61.5215 189.167 61.3306V57.1066C189.167 56.4766 189.014 55.9993 188.709 55.6747C188.403 55.3501 187.964 55.1879 187.391 55.1879C187.029 55.1879 186.695 55.2786 186.389 55.4599C186.084 55.6318 185.84 55.8704 185.659 56.1759C185.478 56.4813 185.387 56.8154 185.387 57.1782V61.3306C185.387 61.5215 185.291 61.6169 185.1 61.6169H184.728C184.537 61.6169 184.442 61.5215 184.442 61.3306V54.8442C184.442 54.6533 184.537 54.5579 184.728 54.5579H185.043C185.234 54.5579 185.33 54.6533 185.33 54.8442V55.5315C185.568 55.1497 185.883 54.8633 186.275 54.6724C186.666 54.4815 187.105 54.386 187.592 54.386ZM197.3 51.7371C197.3 51.5462 197.395 51.4507 197.586 51.4507H197.959C198.149 51.4507 198.245 51.5462 198.245 51.7371V61.3306C198.245 61.5215 198.149 61.6169 197.959 61.6169H197.658C197.467 61.6169 197.371 61.5215 197.371 61.3306V60.3999C197.114 60.8485 196.775 61.1922 196.355 61.4308C195.935 61.6694 195.438 61.7888 194.866 61.7888C194.264 61.7888 193.73 61.636 193.262 61.3306C192.794 61.0156 192.427 60.5812 192.159 60.0276C191.892 59.4644 191.759 58.82 191.759 58.0946C191.759 57.3691 191.892 56.7295 192.159 56.1759C192.436 55.6127 192.813 55.1783 193.291 54.8729C193.768 54.5579 194.302 54.4003 194.894 54.4003C195.983 54.4003 196.784 54.806 197.3 55.6174V51.7371ZM194.937 60.9869C195.653 60.9869 196.231 60.734 196.67 60.228C197.118 59.7126 197.343 59.0014 197.343 58.0946C197.343 57.1973 197.118 56.4909 196.67 55.9754C196.231 55.4599 195.653 55.2022 194.937 55.2022C194.279 55.2022 193.744 55.4695 193.334 56.004C192.933 56.5386 192.732 57.2354 192.732 58.0946C192.732 58.9632 192.933 59.6648 193.334 60.1994C193.735 60.7244 194.269 60.9869 194.937 60.9869ZM206.389 54.386C207.258 54.386 207.935 54.596 208.422 55.016C208.909 55.4265 209.153 55.9706 209.153 56.6484V61.3306C209.153 61.5215 209.057 61.6169 208.866 61.6169H208.58C208.389 61.6169 208.293 61.5215 208.293 61.3306V60.6862C208.055 61.0681 207.716 61.3544 207.277 61.5454C206.847 61.7363 206.365 61.8317 205.831 61.8317C205.086 61.8317 204.48 61.6742 204.012 61.3592C203.544 61.0442 203.311 60.5574 203.311 59.8987C203.311 59.3737 203.459 58.9537 203.754 58.6387C204.05 58.3141 204.437 58.0707 204.914 57.9084C205.392 57.7366 205.988 57.5839 206.704 57.4502L208.25 57.1782V56.72C208.25 56.2331 208.083 55.8561 207.749 55.5888C207.415 55.312 206.976 55.1736 206.432 55.1736C206.022 55.1736 205.649 55.2499 205.315 55.4027C204.981 55.5554 204.623 55.8179 204.241 56.1902C204.174 56.257 204.103 56.2904 204.026 56.2904C203.96 56.2904 203.898 56.2618 203.84 56.2045L203.654 56.0327C203.587 55.9659 203.554 55.8943 203.554 55.8179C203.554 55.732 203.587 55.6556 203.654 55.5888C204.055 55.1688 204.475 54.8633 204.914 54.6724C205.363 54.4815 205.854 54.386 206.389 54.386ZM205.874 61.0442C206.561 61.0442 207.129 60.8628 207.578 60.5001C208.026 60.1374 208.25 59.6744 208.25 59.1112V57.9084L206.919 58.1662C206.298 58.2902 205.807 58.4096 205.444 58.5241C205.081 58.6387 204.79 58.8057 204.571 59.0253C204.351 59.2448 204.241 59.5312 204.241 59.8844C204.241 60.2471 204.384 60.5335 204.671 60.7435C204.967 60.944 205.368 61.0442 205.874 61.0442ZM211.548 61.6169C211.357 61.6169 211.262 61.5215 211.262 61.3306V51.7371C211.262 51.5462 211.357 51.4507 211.548 51.4507H211.92C212.111 51.4507 212.207 51.5462 212.207 51.7371V61.3306C212.207 61.5215 212.111 61.6169 211.92 61.6169H211.548ZM214.638 61.6169C214.447 61.6169 214.352 61.5215 214.352 61.3306V51.7371C214.352 51.5462 214.447 51.4507 214.638 51.4507H215.011C215.201 51.4507 215.297 51.5462 215.297 51.7371V61.3306C215.297 61.5215 215.201 61.6169 215.011 61.6169H214.638ZM223.362 54.5006C223.601 54.5006 223.883 54.5388 224.207 54.6151C224.379 54.6724 224.446 54.7917 224.408 54.9731L224.35 55.2022C224.303 55.3836 224.183 55.4504 223.992 55.4027C223.763 55.3454 223.553 55.3167 223.362 55.3167C222.876 55.3167 222.47 55.5267 222.145 55.9468C221.83 56.3668 221.673 56.9491 221.673 57.6936V61.3306C221.673 61.5215 221.577 61.6169 221.386 61.6169H221.014C220.823 61.6169 220.728 61.5215 220.728 61.3306V54.8442C220.728 54.6533 220.823 54.5579 221.014 54.5579H221.329C221.52 54.5579 221.616 54.6533 221.616 54.8442V55.6318C221.778 55.2786 222.007 55.0017 222.303 54.8013C222.608 54.6008 222.962 54.5006 223.362 54.5006ZM230.441 59.9417C230.508 59.8748 230.579 59.8414 230.655 59.8414C230.722 59.8414 230.784 59.8701 230.842 59.9273L231.028 60.0992C231.095 60.166 231.128 60.2376 231.128 60.3139C231.128 60.3712 231.099 60.438 231.042 60.5144C230.574 60.9822 230.121 61.3163 229.682 61.5167C229.243 61.7076 228.751 61.8031 228.207 61.8031C227.52 61.8031 226.923 61.6504 226.417 61.3449C225.911 61.0394 225.52 60.6146 225.243 60.0705C224.966 59.5169 224.828 58.8773 224.828 58.1518C224.828 57.4168 224.961 56.7677 225.229 56.2045C225.506 55.6318 225.892 55.1879 226.389 54.8729C226.885 54.5483 227.458 54.386 228.107 54.386C229.071 54.386 229.83 54.6867 230.383 55.2881C230.937 55.8895 231.214 56.7009 231.214 57.7223V57.8941C231.204 57.98 231.171 58.0468 231.114 58.0946C231.066 58.1423 230.999 58.1662 230.913 58.1662H225.787C225.816 58.968 226.026 59.6457 226.417 60.1994C226.818 60.7435 227.415 61.0156 228.207 61.0156C228.637 61.0156 229.014 60.9392 229.338 60.7865C229.672 60.6242 230.04 60.3426 230.441 59.9417ZM228.107 55.1736C227.477 55.1736 226.956 55.3692 226.546 55.7606C226.145 56.1424 225.902 56.7056 225.816 57.4502H230.269C230.25 56.7534 230.049 56.1997 229.667 55.7893C229.286 55.3788 228.765 55.1736 228.107 55.1736ZM236.286 54.4003C236.878 54.4003 237.408 54.5579 237.876 54.8729C238.353 55.1783 238.725 55.6127 238.992 56.1759C239.26 56.7295 239.393 57.3643 239.393 58.0802C239.393 58.8057 239.26 59.4501 238.992 60.0133C238.725 60.5765 238.358 61.0156 237.89 61.3306C237.422 61.636 236.888 61.7888 236.286 61.7888C235.179 61.7888 234.368 61.3831 233.852 60.5717V63.9652C233.852 64.1561 233.757 64.2516 233.566 64.2516H233.193C233.003 64.2516 232.907 64.1561 232.907 63.9652V54.8442C232.907 54.6533 233.003 54.5579 233.193 54.5579H233.508C233.699 54.5579 233.795 54.6533 233.795 54.8442V55.7463C234.053 55.3072 234.391 54.9731 234.811 54.744C235.231 54.5149 235.723 54.4003 236.286 54.4003ZM236.215 60.9869C236.883 60.9869 237.417 60.7196 237.818 60.1851C238.219 59.6505 238.42 58.9489 238.42 58.0802C238.42 57.2211 238.219 56.5291 237.818 56.004C237.417 55.4695 236.883 55.2022 236.215 55.2022C235.499 55.2022 234.916 55.4599 234.468 55.9754C234.029 56.4813 233.809 57.1829 233.809 58.0802C233.809 58.9775 234.033 59.6887 234.482 60.2137C234.931 60.7292 235.508 60.9869 236.215 60.9869ZM241.374 61.6169C241.183 61.6169 241.087 61.5215 241.087 61.3306V51.7371C241.087 51.5462 241.183 51.4507 241.374 51.4507H241.746C241.937 51.4507 242.033 51.5462 242.033 51.7371V61.3306C242.033 61.5215 241.937 61.6169 241.746 61.6169H241.374ZM244.636 52.768C244.445 52.768 244.283 52.7012 244.149 52.5676C244.025 52.4339 243.963 52.2716 243.963 52.0807C243.963 51.8898 244.025 51.7323 244.149 51.6082C244.283 51.4841 244.445 51.4221 244.636 51.4221C244.836 51.4221 244.999 51.4841 245.123 51.6082C245.256 51.7323 245.323 51.8898 245.323 52.0807C245.323 52.2716 245.256 52.4339 245.123 52.5676C244.999 52.7012 244.836 52.768 244.636 52.768ZM244.45 61.6169C244.259 61.6169 244.163 61.5215 244.163 61.3306V54.8442C244.163 54.6533 244.259 54.5579 244.45 54.5579H244.822C245.013 54.5579 245.108 54.6533 245.108 54.8442V61.3306C245.108 61.5215 245.013 61.6169 244.822 61.6169H244.45ZM252.352 59.9417C252.419 59.8748 252.491 59.8414 252.567 59.8414C252.634 59.8414 252.696 59.8701 252.753 59.9273L252.939 60.0992C253.006 60.166 253.039 60.2376 253.039 60.3139C253.039 60.3712 253.011 60.438 252.954 60.5144C252.486 60.9822 252.032 61.3163 251.593 61.5167C251.154 61.7076 250.663 61.8031 250.118 61.8031C249.431 61.8031 248.835 61.6504 248.329 61.3449C247.823 61.0394 247.431 60.6146 247.154 60.0705C246.878 59.5169 246.739 58.8773 246.739 58.1518C246.739 57.4168 246.873 56.7677 247.14 56.2045C247.417 55.6318 247.804 55.1879 248.3 54.8729C248.796 54.5483 249.369 54.386 250.018 54.386C250.982 54.386 251.741 54.6867 252.295 55.2881C252.849 55.8895 253.125 56.7009 253.125 57.7223V57.8941C253.116 57.98 253.082 58.0468 253.025 58.0946C252.977 58.1423 252.911 58.1662 252.825 58.1662H247.699C247.727 58.968 247.937 59.6457 248.329 60.1994C248.73 60.7435 249.326 61.0156 250.118 61.0156C250.548 61.0156 250.925 60.9392 251.25 60.7865C251.584 60.6242 251.951 60.3426 252.352 59.9417ZM250.018 55.1736C249.388 55.1736 248.868 55.3692 248.457 55.7606C248.057 56.1424 247.813 56.7056 247.727 57.4502H252.18C252.161 56.7534 251.961 56.1997 251.579 55.7893C251.197 55.3788 250.677 55.1736 250.018 55.1736ZM257.337 61.8031C256.755 61.8031 256.239 61.7219 255.791 61.5597C255.352 61.3878 254.889 61.1015 254.402 60.7006C254.316 60.6433 254.273 60.5765 254.273 60.5001C254.273 60.4333 254.306 60.3664 254.373 60.2996L254.559 60.0992C254.617 60.0228 254.688 59.9846 254.774 59.9846C254.841 59.9846 254.903 60.0133 254.96 60.0705C255.419 60.4237 255.824 60.6719 256.177 60.8151C256.531 60.9487 256.917 61.0156 257.337 61.0156C257.862 61.0156 258.292 60.901 258.626 60.6719C258.96 60.4333 259.127 60.1135 259.127 59.7126C259.127 59.3116 258.955 59.0157 258.612 58.8248C258.268 58.6339 257.738 58.4621 257.022 58.3093C256.392 58.1757 255.896 58.0373 255.533 57.8941C255.18 57.7414 254.917 57.5504 254.746 57.3214C254.574 57.0923 254.488 56.7916 254.488 56.4193C254.488 55.8083 254.736 55.3167 255.232 54.9445C255.729 54.5722 256.354 54.386 257.108 54.386C257.624 54.386 258.082 54.4528 258.483 54.5865C258.893 54.7106 259.304 54.9206 259.714 55.2165C259.8 55.2833 259.843 55.3549 259.843 55.4313C259.843 55.479 259.819 55.5411 259.771 55.6174L259.6 55.8322C259.552 55.9086 259.485 55.9468 259.399 55.9468C259.323 55.9468 259.256 55.9229 259.199 55.8752C258.807 55.5983 258.459 55.4122 258.153 55.3167C257.857 55.2213 257.519 55.1736 257.137 55.1736C256.612 55.1736 256.192 55.2881 255.877 55.5172C255.562 55.7463 255.404 56.0374 255.404 56.3906C255.404 56.6102 255.476 56.7868 255.619 56.9204C255.762 57.0541 255.967 57.1686 256.235 57.2641C256.502 57.35 256.893 57.4502 257.409 57.5648C258.363 57.7748 259.041 58.0325 259.442 58.338C259.853 58.6434 260.058 59.0873 260.058 59.6696C260.058 60.3092 259.805 60.8246 259.299 61.216C258.793 61.6074 258.139 61.8031 257.337 61.8031ZM77.5722 73.8013C77.6103 73.639 77.7201 73.5579 77.9015 73.5579H78.2881C78.3931 73.5579 78.4647 73.5865 78.5029 73.6438C78.5506 73.701 78.5601 73.7774 78.5315 73.8729L76.6844 80.3735C76.6462 80.5358 76.5364 80.6169 76.3551 80.6169H75.7107C75.5485 80.6169 75.4435 80.5358 75.3957 80.3735L74.7371 78.1828C74.3934 77.0373 74.0736 75.8632 73.7777 74.6604C73.4913 75.825 73.1763 77.0086 72.8327 78.2114L72.2027 80.3735C72.1645 80.5358 72.0547 80.6169 71.8733 80.6169H71.2576C71.0763 80.6169 70.9665 80.5358 70.9283 80.3735L69.0812 73.8729C69.0717 73.8538 69.0669 73.8204 69.0669 73.7726C69.0669 73.7058 69.0908 73.6533 69.1385 73.6151C69.1862 73.5769 69.2483 73.5579 69.3246 73.5579H69.7112C69.8926 73.5579 70.0024 73.639 70.0406 73.8013L70.7279 76.3357C71.0429 77.4907 71.334 78.641 71.6013 79.7865C71.8113 78.9369 72.1215 77.7866 72.532 76.3357L73.2623 73.8013C73.3004 73.639 73.4102 73.5579 73.5916 73.5579H74.0211C74.193 73.5579 74.298 73.639 74.3361 73.8013L75.0807 76.3357C75.4053 77.5098 75.7107 78.6648 75.9971 79.8008C76.2167 78.8462 76.5126 77.6912 76.8849 76.3357L77.5722 73.8013ZM80.5029 71.768C80.312 71.768 80.1497 71.7012 80.0161 71.5676C79.892 71.4339 79.8299 71.2716 79.8299 71.0807C79.8299 70.8898 79.892 70.7323 80.0161 70.6082C80.1497 70.4841 80.312 70.4221 80.5029 70.4221C80.7034 70.4221 80.8656 70.4841 80.9897 70.6082C81.1234 70.7323 81.1902 70.8898 81.1902 71.0807C81.1902 71.2716 81.1234 71.4339 80.9897 71.5676C80.8656 71.7012 80.7034 71.768 80.5029 71.768ZM80.3168 80.6169C80.1258 80.6169 80.0304 80.5215 80.0304 80.3306V73.8442C80.0304 73.6533 80.1258 73.5579 80.3168 73.5579H80.689C80.88 73.5579 80.9754 73.6533 80.9754 73.8442V80.3306C80.9754 80.5215 80.88 80.6169 80.689 80.6169H80.3168ZM83.3794 80.6169C83.1885 80.6169 83.093 80.5215 83.093 80.3306V70.7371C83.093 70.5462 83.1885 70.4507 83.3794 70.4507H83.7517C83.9426 70.4507 84.038 70.5462 84.038 70.7371V80.3306C84.038 80.5215 83.9426 80.6169 83.7517 80.6169H83.3794ZM86.4696 80.6169C86.2787 80.6169 86.1833 80.5215 86.1833 80.3306V70.7371C86.1833 70.5462 86.2787 70.4507 86.4696 70.4507H86.8419C87.0328 70.4507 87.1283 70.5462 87.1283 70.7371V80.3306C87.1283 80.5215 87.0328 80.6169 86.8419 80.6169H86.4696ZM95.9384 73.4003C96.5398 73.4003 97.0743 73.5579 97.5421 73.8729C98.0194 74.1783 98.3869 74.6127 98.6446 75.1759C98.9119 75.7295 99.0455 76.3691 99.0455 77.0946C99.0455 77.82 98.9119 78.4644 98.6446 79.0276C98.3773 79.5812 98.0051 80.0156 97.5278 80.3306C97.06 80.636 96.5302 80.7888 95.9384 80.7888C94.8025 80.7888 93.972 80.3497 93.447 79.4715V80.3306C93.447 80.5215 93.3515 80.6169 93.1606 80.6169H92.8456C92.6547 80.6169 92.5592 80.5215 92.5592 80.3306V70.7228C92.5592 70.5318 92.6547 70.4364 92.8456 70.4364H93.2179C93.4088 70.4364 93.5042 70.5318 93.5042 70.7228V74.6747C94.0292 73.8251 94.8406 73.4003 95.9384 73.4003ZM95.8668 79.9869C96.5255 79.9869 97.0553 79.7196 97.4562 79.1851C97.8666 78.6505 98.0719 77.9537 98.0719 77.0946C98.0719 76.2354 97.8666 75.5386 97.4562 75.004C97.0553 74.4695 96.5255 74.2022 95.8668 74.2022C95.1604 74.2022 94.5829 74.4599 94.1342 74.9754C93.6856 75.4909 93.4613 76.1973 93.4613 77.0946C93.4613 78.0014 93.6808 78.7126 94.1199 79.228C94.5686 79.734 95.1509 79.9869 95.8668 79.9869ZM105.95 78.9417C106.016 78.8748 106.088 78.8414 106.164 78.8414C106.231 78.8414 106.293 78.8701 106.351 78.9273L106.537 79.0992C106.603 79.166 106.637 79.2376 106.637 79.3139C106.637 79.3712 106.608 79.438 106.551 79.5144C106.083 79.9822 105.63 80.3163 105.191 80.5167C104.752 80.7076 104.26 80.8031 103.716 80.8031C103.029 80.8031 102.432 80.6504 101.926 80.3449C101.42 80.0394 101.029 79.6146 100.752 79.0705C100.475 78.5169 100.337 77.8773 100.337 77.1518C100.337 76.4168 100.47 75.7677 100.738 75.2045C101.014 74.6318 101.401 74.1879 101.897 73.8729C102.394 73.5483 102.967 73.386 103.616 73.386C104.58 73.386 105.339 73.6867 105.892 74.2881C106.446 74.8895 106.723 75.7009 106.723 76.7223V76.8941C106.713 76.98 106.68 77.0468 106.623 77.0946C106.575 77.1423 106.508 77.1662 106.422 77.1662H101.296C101.325 77.968 101.535 78.6457 101.926 79.1994C102.327 79.7435 102.924 80.0156 103.716 80.0156C104.145 80.0156 104.522 79.9392 104.847 79.7865C105.181 79.6242 105.549 79.3426 105.95 78.9417ZM103.616 74.1736C102.986 74.1736 102.465 74.3692 102.055 74.7606C101.654 75.1424 101.411 75.7056 101.325 76.4502H105.778C105.759 75.7534 105.558 75.1997 105.176 74.7893C104.795 74.3788 104.274 74.1736 103.616 74.1736ZM116.813 70.7371C116.813 70.5462 116.909 70.4507 117.1 70.4507H117.472C117.663 70.4507 117.758 70.5462 117.758 70.7371V80.3306C117.758 80.5215 117.663 80.6169 117.472 80.6169H117.171C116.98 80.6169 116.885 80.5215 116.885 80.3306V79.3999C116.627 79.8485 116.288 80.1922 115.868 80.4308C115.448 80.6694 114.952 80.7888 114.379 80.7888C113.778 80.7888 113.243 80.636 112.776 80.3306C112.308 80.0156 111.94 79.5812 111.673 79.0276C111.406 78.4644 111.272 77.82 111.272 77.0946C111.272 76.3691 111.406 75.7295 111.673 75.1759C111.95 74.6127 112.327 74.1783 112.804 73.8729C113.281 73.5579 113.816 73.4003 114.408 73.4003C115.496 73.4003 116.298 73.806 116.813 74.6174V70.7371ZM114.451 79.9869C115.167 79.9869 115.744 79.734 116.183 79.228C116.632 78.7126 116.856 78.0014 116.856 77.0946C116.856 76.1973 116.632 75.4909 116.183 74.9754C115.744 74.4599 115.167 74.2022 114.451 74.2022C113.792 74.2022 113.258 74.4695 112.847 75.004C112.446 75.5386 112.246 76.2354 112.246 77.0946C112.246 77.9632 112.446 78.6648 112.847 79.1994C113.248 79.7244 113.783 79.9869 114.451 79.9869ZM125.022 78.9417C125.089 78.8748 125.161 78.8414 125.237 78.8414C125.304 78.8414 125.366 78.8701 125.423 78.9273L125.61 79.0992C125.676 79.166 125.71 79.2376 125.71 79.3139C125.71 79.3712 125.681 79.438 125.624 79.5144C125.156 79.9822 124.703 80.3163 124.264 80.5167C123.824 80.7076 123.333 80.8031 122.789 80.8031C122.101 80.8031 121.505 80.6504 120.999 80.3449C120.493 80.0394 120.102 79.6146 119.825 79.0705C119.548 78.5169 119.41 77.8773 119.41 77.1518C119.41 76.4168 119.543 75.7677 119.81 75.2045C120.087 74.6318 120.474 74.1879 120.97 73.8729C121.467 73.5483 122.039 73.386 122.689 73.386C123.653 73.386 124.412 73.6867 124.965 74.2881C125.519 74.8895 125.796 75.7009 125.796 76.7223V76.8941C125.786 76.98 125.753 77.0468 125.695 77.0946C125.648 77.1423 125.581 77.1662 125.495 77.1662H120.369C120.398 77.968 120.608 78.6457 120.999 79.1994C121.4 79.7435 121.996 80.0156 122.789 80.0156C123.218 80.0156 123.595 79.9392 123.92 79.7865C124.254 79.6242 124.622 79.3426 125.022 78.9417ZM122.689 74.1736C122.059 74.1736 121.538 74.3692 121.128 74.7606C120.727 75.1424 120.483 75.7056 120.398 76.4502H124.851C124.832 75.7534 124.631 75.1997 124.249 74.7893C123.867 74.3788 123.347 74.1736 122.689 74.1736ZM127.79 80.6169C127.599 80.6169 127.503 80.5215 127.503 80.3306V70.7371C127.503 70.5462 127.599 70.4507 127.79 70.4507H128.162C128.353 70.4507 128.448 70.5462 128.448 70.7371V80.3306C128.448 80.5215 128.353 80.6169 128.162 80.6169H127.79ZM135.72 78.9417C135.786 78.8748 135.858 78.8414 135.934 78.8414C136.001 78.8414 136.063 78.8701 136.12 78.9273L136.307 79.0992C136.373 79.166 136.407 79.2376 136.407 79.3139C136.407 79.3712 136.378 79.438 136.321 79.5144C135.853 79.9822 135.4 80.3163 134.961 80.5167C134.522 80.7076 134.03 80.8031 133.486 80.8031C132.799 80.8031 132.202 80.6504 131.696 80.3449C131.19 80.0394 130.799 79.6146 130.522 79.0705C130.245 78.5169 130.107 77.8773 130.107 77.1518C130.107 76.4168 130.24 75.7677 130.508 75.2045C130.784 74.6318 131.171 74.1879 131.667 73.8729C132.164 73.5483 132.736 73.386 133.386 73.386C134.35 73.386 135.109 73.6867 135.662 74.2881C136.216 74.8895 136.493 75.7009 136.493 76.7223V76.8941C136.483 76.98 136.45 77.0468 136.392 77.0946C136.345 77.1423 136.278 77.1662 136.192 77.1662H131.066C131.095 77.968 131.305 78.6457 131.696 79.1994C132.097 79.7435 132.693 80.0156 133.486 80.0156C133.915 80.0156 134.292 79.9392 134.617 79.7865C134.951 79.6242 135.319 79.3426 135.72 78.9417ZM133.386 74.1736C132.756 74.1736 132.235 74.3692 131.825 74.7606C131.424 75.1424 131.18 75.7056 131.095 76.4502H135.548C135.529 75.7534 135.328 75.1997 134.946 74.7893C134.564 74.3788 134.044 74.1736 133.386 74.1736ZM141.295 79.8294C141.323 79.8199 141.362 79.8151 141.409 79.8151C141.467 79.8151 141.519 79.8342 141.567 79.8724C141.614 79.9106 141.643 79.9631 141.653 80.0299L141.696 80.2303C141.705 80.2494 141.71 80.2828 141.71 80.3306C141.71 80.4642 141.638 80.5454 141.495 80.574C141.152 80.679 140.784 80.7315 140.393 80.7315C139.772 80.7315 139.328 80.5931 139.061 80.3163C138.803 80.0299 138.674 79.6194 138.674 79.0848V74.2738H137.615C137.424 74.2738 137.328 74.1783 137.328 73.9874V73.8442C137.328 73.6533 137.424 73.5579 137.615 73.5579H138.674V71.3814C138.674 71.1905 138.77 71.095 138.961 71.095H139.333C139.524 71.095 139.619 71.1905 139.619 71.3814V73.5579H141.338C141.529 73.5579 141.624 73.6533 141.624 73.8442V73.9874C141.624 74.1783 141.529 74.2738 141.338 74.2738H139.619V78.9703C139.619 79.3235 139.686 79.5717 139.82 79.7149C139.954 79.8581 140.183 79.9296 140.507 79.9296C140.736 79.9296 140.999 79.8962 141.295 79.8294ZM147.941 78.9417C148.008 78.8748 148.079 78.8414 148.155 78.8414C148.222 78.8414 148.284 78.8701 148.342 78.9273L148.528 79.0992C148.595 79.166 148.628 79.2376 148.628 79.3139C148.628 79.3712 148.599 79.438 148.542 79.5144C148.074 79.9822 147.621 80.3163 147.182 80.5167C146.743 80.7076 146.251 80.8031 145.707 80.8031C145.02 80.8031 144.423 80.6504 143.917 80.3449C143.411 80.0394 143.02 79.6146 142.743 79.0705C142.466 78.5169 142.328 77.8773 142.328 77.1518C142.328 76.4168 142.461 75.7677 142.729 75.2045C143.006 74.6318 143.392 74.1879 143.889 73.8729C144.385 73.5483 144.958 73.386 145.607 73.386C146.571 73.386 147.33 73.6867 147.883 74.2881C148.437 74.8895 148.714 75.7009 148.714 76.7223V76.8941C148.704 76.98 148.671 77.0468 148.614 77.0946C148.566 77.1423 148.499 77.1662 148.413 77.1662H143.287C143.316 77.968 143.526 78.6457 143.917 79.1994C144.318 79.7435 144.915 80.0156 145.707 80.0156C146.137 80.0156 146.514 79.9392 146.838 79.7865C147.172 79.6242 147.54 79.3426 147.941 78.9417ZM145.607 74.1736C144.977 74.1736 144.456 74.3692 144.046 74.7606C143.645 75.1424 143.402 75.7056 143.316 76.4502H147.769C147.75 75.7534 147.549 75.1997 147.167 74.7893C146.786 74.3788 146.265 74.1736 145.607 74.1736ZM155.518 70.7371C155.518 70.5462 155.614 70.4507 155.805 70.4507H156.177C156.368 70.4507 156.464 70.5462 156.464 70.7371V80.3306C156.464 80.5215 156.368 80.6169 156.177 80.6169H155.876C155.686 80.6169 155.59 80.5215 155.59 80.3306V79.3999C155.332 79.8485 154.993 80.1922 154.573 80.4308C154.153 80.6694 153.657 80.7888 153.084 80.7888C152.483 80.7888 151.948 80.636 151.481 80.3306C151.013 80.0156 150.645 79.5812 150.378 79.0276C150.111 78.4644 149.977 77.82 149.977 77.0946C149.977 76.3691 150.111 75.7295 150.378 75.1759C150.655 74.6127 151.032 74.1783 151.509 73.8729C151.987 73.5579 152.521 73.4003 153.113 73.4003C154.201 73.4003 155.003 73.806 155.518 74.6174V70.7371ZM153.156 79.9869C153.872 79.9869 154.449 79.734 154.888 79.228C155.337 78.7126 155.561 78.0014 155.561 77.0946C155.561 76.1973 155.337 75.4909 154.888 74.9754C154.449 74.4599 153.872 74.2022 153.156 74.2022C152.497 74.2022 151.963 74.4695 151.552 75.004C151.151 75.5386 150.951 76.2354 150.951 77.0946C150.951 77.9632 151.151 78.6648 151.552 79.1994C151.953 79.7244 152.488 79.9869 153.156 79.9869ZM158.974 80.7172C158.773 80.7172 158.601 80.6456 158.458 80.5024C158.315 80.3592 158.244 80.1874 158.244 79.9869C158.244 79.7865 158.315 79.6146 158.458 79.4715C158.601 79.3283 158.773 79.2567 158.974 79.2567C159.174 79.2567 159.346 79.3283 159.489 79.4715C159.632 79.6146 159.704 79.7865 159.704 79.9869C159.704 80.1874 159.632 80.3592 159.489 80.5024C159.346 80.6456 159.174 80.7172 158.974 80.7172Z" fill="#464646"/>
<path d="M137.558 134.958C136.546 134.958 135.668 134.729 134.923 134.271C134.188 133.812 133.62 133.182 133.219 132.381C132.828 131.569 132.632 130.653 132.632 129.631C132.632 128.61 132.828 127.703 133.219 126.911C133.611 126.109 134.179 125.479 134.923 125.021C135.668 124.563 136.56 124.333 137.601 124.333C138.231 124.333 138.804 124.424 139.319 124.605C139.835 124.777 140.355 125.068 140.88 125.479C141.023 125.593 141.095 125.722 141.095 125.866C141.095 125.961 141.047 126.071 140.951 126.195L140.636 126.567C140.522 126.701 140.402 126.768 140.278 126.768C140.183 126.768 140.064 126.72 139.92 126.624C139.491 126.29 139.095 126.061 138.732 125.937C138.379 125.813 137.997 125.751 137.586 125.751C136.918 125.751 136.336 125.913 135.84 126.238C135.343 126.562 134.961 127.021 134.694 127.612C134.427 128.195 134.293 128.868 134.293 129.631C134.293 130.395 134.427 131.073 134.694 131.665C134.961 132.256 135.338 132.719 135.825 133.053C136.312 133.378 136.88 133.54 137.529 133.54C138.016 133.54 138.45 133.454 138.832 133.283C139.214 133.111 139.629 132.834 140.078 132.452C140.202 132.347 140.321 132.295 140.436 132.295C140.56 132.295 140.679 132.361 140.794 132.495L141.109 132.853C141.204 132.958 141.252 133.068 141.252 133.182C141.252 133.345 141.176 133.488 141.023 133.612C140.469 134.089 139.92 134.433 139.376 134.643C138.842 134.853 138.236 134.958 137.558 134.958ZM145.686 127.455C146.641 127.455 147.376 127.679 147.891 128.128C148.407 128.567 148.664 129.154 148.664 129.889V134.228C148.664 134.38 148.621 134.504 148.535 134.6C148.45 134.686 148.325 134.729 148.163 134.729H147.791C147.638 134.729 147.514 134.686 147.419 134.6C147.333 134.504 147.29 134.38 147.29 134.228V133.913C147.061 134.247 146.746 134.504 146.345 134.686C145.944 134.867 145.476 134.958 144.941 134.958C144.206 134.958 143.6 134.796 143.123 134.471C142.655 134.137 142.421 133.636 142.421 132.968C142.421 132.223 142.698 131.674 143.252 131.321C143.815 130.958 144.593 130.686 145.586 130.505L147.204 130.204V129.946C147.204 129.555 147.065 129.254 146.789 129.044C146.521 128.825 146.163 128.715 145.715 128.715C145.333 128.715 144.999 128.782 144.712 128.915C144.436 129.039 144.135 129.249 143.81 129.545C143.686 129.65 143.567 129.703 143.452 129.703C143.338 129.703 143.218 129.65 143.094 129.545L142.865 129.345C142.741 129.23 142.679 129.106 142.679 128.973C142.679 128.849 142.736 128.729 142.851 128.615C143.261 128.223 143.696 127.932 144.154 127.741C144.612 127.55 145.123 127.455 145.686 127.455ZM145.156 133.741C145.729 133.741 146.211 133.588 146.602 133.283C147.003 132.977 147.204 132.538 147.204 131.965V131.307L145.958 131.564C145.261 131.708 144.746 131.87 144.412 132.051C144.078 132.233 143.911 132.509 143.911 132.882C143.911 133.149 144.02 133.359 144.24 133.512C144.459 133.664 144.765 133.741 145.156 133.741ZM153.992 127.455C154.804 127.455 155.424 127.684 155.854 128.142C156.293 128.591 156.512 129.173 156.512 129.889V134.228C156.512 134.38 156.47 134.504 156.384 134.6C156.298 134.686 156.174 134.729 156.011 134.729H155.496C155.343 134.729 155.219 134.686 155.124 134.6C155.038 134.504 154.995 134.38 154.995 134.228V130.362C154.995 129.846 154.866 129.45 154.608 129.173C154.36 128.896 154.002 128.758 153.534 128.758C153.076 128.758 152.689 128.915 152.374 129.23C152.069 129.545 151.916 129.942 151.916 130.419V134.228C151.916 134.38 151.873 134.504 151.787 134.6C151.701 134.686 151.577 134.729 151.415 134.729H150.9C150.747 134.729 150.623 134.686 150.527 134.6C150.441 134.504 150.398 134.38 150.398 134.228V128.171C150.398 128.009 150.441 127.884 150.527 127.799C150.623 127.713 150.747 127.67 150.9 127.67H151.315C151.477 127.67 151.601 127.713 151.687 127.799C151.773 127.884 151.816 128.009 151.816 128.171V128.543C152.045 128.19 152.346 127.923 152.718 127.741C153.09 127.55 153.515 127.455 153.992 127.455ZM161.364 134.944C160.667 134.944 160.052 134.791 159.517 134.485C158.992 134.18 158.581 133.746 158.286 133.182C157.999 132.61 157.856 131.946 157.856 131.192C157.856 130.438 158.004 129.779 158.3 129.216C158.596 128.653 159.011 128.219 159.546 127.913C160.08 127.608 160.696 127.455 161.393 127.455C161.899 127.455 162.352 127.531 162.753 127.684C163.163 127.827 163.555 128.075 163.927 128.429C164.042 128.543 164.099 128.662 164.099 128.787C164.099 128.901 164.037 129.02 163.913 129.144L163.669 129.388C163.564 129.493 163.45 129.545 163.326 129.545C163.202 129.545 163.073 129.488 162.939 129.374C162.662 129.135 162.4 128.973 162.152 128.887C161.913 128.791 161.655 128.744 161.378 128.744C160.748 128.744 160.262 128.977 159.918 129.445C159.574 129.913 159.402 130.495 159.402 131.192C159.402 131.889 159.574 132.476 159.918 132.953C160.262 133.421 160.748 133.655 161.378 133.655C161.684 133.655 161.965 133.598 162.223 133.483C162.481 133.359 162.758 133.154 163.054 132.867C163.178 132.743 163.307 132.681 163.44 132.681C163.555 132.681 163.665 132.729 163.77 132.824L164.013 133.025C164.137 133.13 164.199 133.249 164.199 133.383C164.199 133.526 164.128 133.679 163.984 133.841C163.593 134.242 163.187 134.528 162.767 134.7C162.357 134.862 161.889 134.944 161.364 134.944ZM170.373 132.925C170.497 132.82 170.616 132.767 170.731 132.767C170.845 132.767 170.965 132.829 171.089 132.953L171.289 133.168C171.394 133.292 171.447 133.411 171.447 133.526C171.447 133.65 171.385 133.769 171.261 133.884C170.821 134.266 170.382 134.538 169.943 134.7C169.514 134.862 169.036 134.944 168.511 134.944C167.776 134.944 167.137 134.791 166.593 134.485C166.058 134.18 165.643 133.75 165.347 133.197C165.061 132.633 164.917 131.984 164.917 131.249C164.917 130.524 165.056 129.875 165.333 129.302C165.619 128.72 166.02 128.266 166.535 127.942C167.06 127.617 167.671 127.455 168.368 127.455C169.409 127.455 170.211 127.765 170.774 128.386C171.337 128.997 171.619 129.841 171.619 130.92V131.049C171.609 131.202 171.561 131.321 171.475 131.407C171.389 131.493 171.265 131.536 171.103 131.536H166.407C166.464 132.166 166.669 132.681 167.022 133.082C167.385 133.473 167.891 133.669 168.54 133.669C168.893 133.669 169.203 133.617 169.471 133.512C169.738 133.397 170.039 133.201 170.373 132.925ZM168.34 128.658C167.815 128.658 167.39 128.815 167.065 129.13C166.75 129.436 166.545 129.87 166.45 130.433H170.129C170.091 129.88 169.919 129.445 169.614 129.13C169.308 128.815 168.884 128.658 168.34 128.658ZM173.567 134.729C173.415 134.729 173.291 134.686 173.195 134.6C173.109 134.504 173.066 134.38 173.066 134.228V125.064C173.066 124.901 173.109 124.777 173.195 124.691C173.291 124.605 173.415 124.563 173.567 124.563H174.083C174.245 124.563 174.369 124.605 174.455 124.691C174.541 124.777 174.584 124.901 174.584 125.064V134.228C174.584 134.38 174.541 134.504 174.455 134.6C174.369 134.686 174.245 134.729 174.083 134.729H173.567Z" fill="#0063FB"/>
<rect x="205.62" y="108.99" width="68.8475" height="41.478" rx="6.26441" fill="#0063FB"/>
<path d="M220.648 134.729C220.495 134.729 220.371 134.686 220.275 134.6C220.19 134.504 220.147 134.38 220.147 134.228V125.064C220.147 124.901 220.19 124.777 220.275 124.691C220.371 124.605 220.495 124.563 220.648 124.563H224.099C225.053 124.563 225.869 124.777 226.547 125.207C227.234 125.636 227.755 126.238 228.108 127.011C228.471 127.775 228.652 128.653 228.652 129.646C228.652 130.638 228.471 131.521 228.108 132.295C227.755 133.058 227.234 133.655 226.547 134.084C225.869 134.514 225.053 134.729 224.099 134.729H220.648ZM223.855 133.354C224.829 133.354 225.592 133.034 226.146 132.395C226.709 131.746 226.991 130.829 226.991 129.646C226.991 128.462 226.709 127.55 226.146 126.911C225.592 126.262 224.829 125.937 223.855 125.937H221.779V133.354H223.855ZM235.319 132.925C235.444 132.82 235.563 132.767 235.677 132.767C235.792 132.767 235.911 132.829 236.035 132.953L236.236 133.168C236.341 133.292 236.393 133.411 236.393 133.526C236.393 133.65 236.331 133.769 236.207 133.884C235.768 134.266 235.329 134.538 234.89 134.7C234.46 134.862 233.983 134.944 233.458 134.944C232.723 134.944 232.083 134.791 231.539 134.485C231.005 134.18 230.59 133.75 230.294 133.197C230.007 132.633 229.864 131.984 229.864 131.249C229.864 130.524 230.002 129.875 230.279 129.302C230.566 128.72 230.967 128.266 231.482 127.942C232.007 127.617 232.618 127.455 233.315 127.455C234.355 127.455 235.157 127.765 235.72 128.386C236.284 128.997 236.565 129.841 236.565 130.92V131.049C236.556 131.202 236.508 131.321 236.422 131.407C236.336 131.493 236.212 131.536 236.05 131.536H231.353C231.41 132.166 231.616 132.681 231.969 133.082C232.332 133.473 232.838 133.669 233.487 133.669C233.84 133.669 234.15 133.617 234.417 133.512C234.685 133.397 234.985 133.201 235.319 132.925ZM233.286 128.658C232.761 128.658 232.336 128.815 232.012 129.13C231.697 129.436 231.492 129.87 231.396 130.433H235.076C235.038 129.88 234.866 129.445 234.561 129.13C234.255 128.815 233.83 128.658 233.286 128.658ZM238.514 134.729C238.361 134.729 238.237 134.686 238.142 134.6C238.056 134.504 238.013 134.38 238.013 134.228V125.064C238.013 124.901 238.056 124.777 238.142 124.691C238.237 124.605 238.361 124.563 238.514 124.563H239.03C239.192 124.563 239.316 124.605 239.402 124.691C239.488 124.777 239.531 124.901 239.531 125.064V134.228C239.531 134.38 239.488 134.504 239.402 134.6C239.316 134.686 239.192 134.729 239.03 134.729H238.514ZM246.394 132.925C246.518 132.82 246.637 132.767 246.752 132.767C246.867 132.767 246.986 132.829 247.11 132.953L247.31 133.168C247.415 133.292 247.468 133.411 247.468 133.526C247.468 133.65 247.406 133.769 247.282 133.884C246.843 134.266 246.404 134.538 245.964 134.7C245.535 134.862 245.058 134.944 244.533 134.944C243.798 134.944 243.158 134.791 242.614 134.485C242.079 134.18 241.664 133.75 241.368 133.197C241.082 132.633 240.939 131.984 240.939 131.249C240.939 130.524 241.077 129.875 241.354 129.302C241.64 128.72 242.041 128.266 242.557 127.942C243.082 127.617 243.693 127.455 244.389 127.455C245.43 127.455 246.232 127.765 246.795 128.386C247.358 128.997 247.64 129.841 247.64 130.92V131.049C247.63 131.202 247.582 131.321 247.497 131.407C247.411 131.493 247.287 131.536 247.124 131.536H242.428C242.485 132.166 242.69 132.681 243.043 133.082C243.406 133.473 243.912 133.669 244.561 133.669C244.914 133.669 245.225 133.617 245.492 133.512C245.759 133.397 246.06 133.201 246.394 132.925ZM244.361 128.658C243.836 128.658 243.411 128.815 243.086 129.13C242.771 129.436 242.566 129.87 242.471 130.433H246.151C246.112 129.88 245.941 129.445 245.635 129.13C245.33 128.815 244.905 128.658 244.361 128.658ZM252.354 133.526C252.383 133.516 252.426 133.512 252.483 133.512C252.722 133.512 252.865 133.65 252.913 133.927L252.956 134.156C252.965 134.185 252.97 134.232 252.97 134.299C252.97 134.538 252.836 134.691 252.569 134.757C252.187 134.843 251.839 134.886 251.524 134.886C250.846 134.886 250.354 134.729 250.049 134.414C249.753 134.099 249.605 133.626 249.605 132.996V128.829H248.817C248.665 128.829 248.541 128.787 248.445 128.701C248.359 128.605 248.316 128.481 248.316 128.328V128.171C248.316 128.009 248.359 127.884 248.445 127.799C248.541 127.713 248.665 127.67 248.817 127.67H249.605V125.894C249.605 125.732 249.648 125.608 249.734 125.522C249.829 125.436 249.953 125.393 250.106 125.393H250.622C250.784 125.393 250.908 125.436 250.994 125.522C251.08 125.608 251.123 125.732 251.123 125.894V127.67H252.411C252.574 127.67 252.698 127.713 252.784 127.799C252.87 127.884 252.913 128.009 252.913 128.171V128.328C252.913 128.481 252.87 128.605 252.784 128.701C252.698 128.787 252.574 128.829 252.411 128.829H251.123V132.81C251.123 133.087 251.18 133.283 251.295 133.397C251.419 133.512 251.614 133.569 251.882 133.569C251.996 133.569 252.154 133.555 252.354 133.526ZM258.993 132.925C259.117 132.82 259.236 132.767 259.351 132.767C259.465 132.767 259.585 132.829 259.709 132.953L259.909 133.168C260.014 133.292 260.067 133.411 260.067 133.526C260.067 133.65 260.005 133.769 259.881 133.884C259.441 134.266 259.002 134.538 258.563 134.7C258.134 134.862 257.656 134.944 257.131 134.944C256.396 134.944 255.757 134.791 255.213 134.485C254.678 134.18 254.263 133.75 253.967 133.197C253.681 132.633 253.537 131.984 253.537 131.249C253.537 130.524 253.676 129.875 253.953 129.302C254.239 128.72 254.64 128.266 255.155 127.942C255.68 127.617 256.291 127.455 256.988 127.455C258.029 127.455 258.83 127.765 259.394 128.386C259.957 128.997 260.238 129.841 260.238 130.92V131.049C260.229 131.202 260.181 131.321 260.095 131.407C260.009 131.493 259.885 131.536 259.723 131.536H255.026C255.084 132.166 255.289 132.681 255.642 133.082C256.005 133.473 256.511 133.669 257.16 133.669C257.513 133.669 257.823 133.617 258.091 133.512C258.358 133.397 258.659 133.201 258.993 132.925ZM256.959 128.658C256.434 128.658 256.01 128.815 255.685 129.13C255.37 129.436 255.165 129.87 255.069 130.433H258.749C258.711 129.88 258.539 129.445 258.234 129.13C257.928 128.815 257.504 128.658 256.959 128.658Z" fill="white"/>
<rect x="205.62" y="108.99" width="68.8475" height="41.478" rx="6.26441" stroke="#0063FB" stroke-width="1.78983"/>
</g>
</g>
<defs>
<filter id="filter0_dd_1855_24292" x="32" y="-175" width="280" height="366" filterUnits="userSpaceOnUse" color-interpolation-filters="sRGB">
<feFlood flood-opacity="0" result="BackgroundImageFix"/>
<feColorMatrix in="SourceAlpha" type="matrix" values="0 0 0 0 0 0 0 0 0 0 0 0 0 0 0 0 0 0 127 0" result="hardAlpha"/>
<feOffset dy="3"/>
<feGaussianBlur stdDeviation="3"/>
<feColorMatrix type="matrix" values="0 0 0 0 0.272549 0 0 0 0 0.272549 0 0 0 0 0.272549 0 0 0 0.16 0"/>
<feBlend mode="normal" in2="BackgroundImageFix" result="effect1_dropShadow_1855_24292"/>
<feColorMatrix in="SourceAlpha" type="matrix" values="0 0 0 0 0 0 0 0 0 0 0 0 0 0 0 0 0 0 127 0" result="hardAlpha"/>
<feOffset dy="3"/>
<feGaussianBlur stdDeviation="4"/>
<feColorMatrix type="matrix" values="0 0 0 0 0.272549 0 0 0 0 0.272549 0 0 0 0 0.272549 0 0 0 0.24 0"/>
<feBlend mode="normal" in2="effect1_dropShadow_1855_24292" result="effect2_dropShadow_1855_24292"/>
<feBlend mode="normal" in="SourceGraphic" in2="effect2_dropShadow_1855_24292" result="shape"/>
</filter>
<clipPath id="clip0_1855_24292">
<rect width="344" height="220" fill="white"/>
</clipPath>
</defs>
</svg>
