<svg width="344" height="282" viewBox="0 0 344 282" fill="none" xmlns="http://www.w3.org/2000/svg">
<rect width="344" height="282" fill="#F5F5F5"/>
<g filter="url(#filter0_dd_1840_24181)">
<rect x="40.25" y="40" width="263.5" height="202.119" rx="7.14576" fill="white"/>
<path d="M282.34 53.3713C282.078 53.1096 281.654 53.1096 281.392 53.3713C281.131 53.6329 281.131 54.057 281.392 54.3187L284.938 57.8645L281.392 61.4102C281.131 61.6719 281.131 62.096 281.392 62.3577C281.654 62.6193 282.078 62.6193 282.34 62.3577L285.886 58.8119L289.431 62.3577C289.693 62.6193 290.117 62.6193 290.379 62.3577C290.64 62.096 290.64 61.6719 290.379 61.4102L286.833 57.8645L290.379 54.3187C290.64 54.057 290.64 53.6329 290.379 53.3713C290.117 53.1096 289.693 53.1096 289.431 53.3713L285.886 56.9171L282.34 53.3713Z" fill="#767676"/>
<path d="M74.3352 87.583C74.1256 87.583 73.9553 87.5241 73.8243 87.4062C73.7064 87.2751 73.6475 87.1048 73.6475 86.8952V75.537H70.071C69.8614 75.537 69.6911 75.4781 69.5601 75.3602C69.4422 75.2292 69.3832 75.0589 69.3832 74.8493V74.3187C69.3832 74.096 69.4422 73.9257 69.5601 73.8078C69.6911 73.6899 69.8614 73.6309 70.071 73.6309H79.4445C79.6672 73.6309 79.8375 73.6899 79.9554 73.8078C80.0733 73.9257 80.1322 74.096 80.1322 74.3187V74.8493C80.1322 75.0589 80.0733 75.2292 79.9554 75.3602C79.8375 75.4781 79.6672 75.537 79.4445 75.537H75.8877V86.8952C75.8877 87.1048 75.8287 87.2751 75.7108 87.4062C75.5929 87.5241 75.4226 87.583 75.1999 87.583H74.3352ZM82.9333 76.0087C82.5533 76.0087 82.2324 75.8842 81.9704 75.6353C81.7084 75.3733 81.5774 75.0654 81.5774 74.7117C81.5774 74.3449 81.7084 74.037 81.9704 73.7881C82.2324 73.5392 82.5533 73.4147 82.9333 73.4147C83.3132 73.4147 83.6341 73.5392 83.8962 73.7881C84.1582 74.037 84.2892 74.3449 84.2892 74.7117C84.2892 75.0654 84.1582 75.3733 83.8962 75.6353C83.6341 75.8842 83.3132 76.0087 82.9333 76.0087ZM82.5599 87.583C82.3503 87.583 82.18 87.5241 82.049 87.4062C81.9311 87.2751 81.8721 87.1048 81.8721 86.8952V78.5829C81.8721 78.3602 81.9311 78.1899 82.049 78.072C82.18 77.9541 82.3503 77.8951 82.5599 77.8951H83.2673C83.49 77.8951 83.6603 77.9541 83.7782 78.072C83.8962 78.1899 83.9551 78.3602 83.9551 78.5829V86.8952C83.9551 87.1048 83.8962 87.2751 83.7782 87.4062C83.6603 87.5241 83.49 87.583 83.2673 87.583H82.5599ZM91.0395 85.9323C91.0788 85.9192 91.1378 85.9127 91.2164 85.9127C91.5439 85.9127 91.7404 86.1026 91.8059 86.4826L91.8649 86.797C91.878 86.8363 91.8845 86.9018 91.8845 86.9935C91.8845 87.321 91.7011 87.5306 91.3343 87.6223C90.8103 87.7402 90.3321 87.7992 89.8998 87.7992C88.9697 87.7992 88.295 87.583 87.8758 87.1507C87.4696 86.7184 87.2666 86.0699 87.2666 85.2053V79.4869H86.1858C85.9762 79.4869 85.8059 79.4279 85.6749 79.31C85.557 79.179 85.498 79.0087 85.498 78.7991V78.5829C85.498 78.3602 85.557 78.1899 85.6749 78.072C85.8059 77.9541 85.9762 77.8951 86.1858 77.8951H87.2666V75.4584C87.2666 75.2357 87.3255 75.0654 87.4434 74.9475C87.5744 74.8296 87.7447 74.7707 87.9544 74.7707H88.6618C88.8845 74.7707 89.0548 74.8296 89.1727 74.9475C89.2906 75.0654 89.3496 75.2357 89.3496 75.4584V77.8951H91.1181C91.3409 77.8951 91.5112 77.9541 91.6291 78.072C91.747 78.1899 91.8059 78.3602 91.8059 78.5829V78.7991C91.8059 79.0087 91.747 79.179 91.6291 79.31C91.5112 79.4279 91.3409 79.4869 91.1181 79.4869H89.3496V84.9498C89.3496 85.3297 89.4282 85.5983 89.5854 85.7555C89.7557 85.9127 90.0242 85.9913 90.3911 85.9913C90.5483 85.9913 90.7644 85.9716 91.0395 85.9323ZM94.287 87.583C94.0774 87.583 93.9071 87.5241 93.7761 87.4062C93.6582 87.2751 93.5992 87.1048 93.5992 86.8952V74.3187C93.5992 74.096 93.6582 73.9257 93.7761 73.8078C93.9071 73.6899 94.0774 73.6309 94.287 73.6309H94.9944C95.2171 73.6309 95.3874 73.6899 95.5054 73.8078C95.6233 73.9257 95.6822 74.096 95.6822 74.3187V86.8952C95.6822 87.1048 95.6233 87.2751 95.5054 87.4062C95.3874 87.5241 95.2171 87.583 94.9944 87.583H94.287ZM105.101 85.107C105.272 84.9629 105.435 84.8908 105.593 84.8908C105.75 84.8908 105.914 84.976 106.084 85.1463L106.359 85.4411C106.503 85.6114 106.575 85.7751 106.575 85.9323C106.575 86.1026 106.49 86.2664 106.32 86.4236C105.717 86.9476 105.115 87.321 104.512 87.5437C103.922 87.7664 103.267 87.8778 102.547 87.8778C101.538 87.8778 100.66 87.6682 99.9136 87.2489C99.18 86.8297 98.6101 86.2402 98.204 85.4804C97.8109 84.7074 97.6144 83.8166 97.6144 82.8079C97.6144 81.8122 97.8044 80.9214 98.1843 80.1353C98.5773 79.3362 99.1276 78.7139 99.835 78.2685C100.556 77.8231 101.394 77.6004 102.35 77.6004C103.778 77.6004 104.879 78.0261 105.652 78.8777C106.425 79.7161 106.811 80.8755 106.811 82.3559V82.5327C106.798 82.7423 106.732 82.9061 106.615 83.024C106.497 83.1419 106.326 83.2009 106.104 83.2009H99.6581C99.7367 84.0655 100.018 84.7729 100.503 85.3232C101.001 85.8603 101.695 86.1288 102.586 86.1288C103.071 86.1288 103.497 86.0568 103.863 85.9127C104.23 85.7555 104.643 85.4869 105.101 85.107ZM102.311 79.251C101.59 79.251 101.007 79.4672 100.562 79.8995C100.13 80.3187 99.8481 80.9148 99.7171 81.6878H104.767C104.715 80.9279 104.479 80.3318 104.06 79.8995C103.641 79.4672 103.058 79.251 102.311 79.251Z" fill="#464646"/>
<path d="M74.1637 116.943C73.1919 116.943 72.3535 116.719 71.6484 116.271C70.9434 115.814 70.4051 115.185 70.0335 114.385C69.6619 113.585 69.4761 112.675 69.4761 111.655C69.4761 110.626 69.6619 109.712 70.0335 108.911C70.4051 108.111 70.9482 107.487 71.6627 107.039C72.3868 106.591 73.2539 106.367 74.2638 106.367C74.845 106.367 75.3881 106.463 75.893 106.653C76.398 106.834 76.9363 107.149 77.508 107.596C77.5937 107.654 77.6366 107.72 77.6366 107.797C77.6366 107.854 77.608 107.92 77.5508 107.997L77.3508 108.254C77.2936 108.33 77.2269 108.368 77.1507 108.368C77.0745 108.368 77.003 108.34 76.9363 108.282C76.4218 107.882 75.955 107.611 75.5357 107.468C75.126 107.315 74.7021 107.239 74.2638 107.239C73.492 107.239 72.8203 107.43 72.2487 107.811C71.6865 108.182 71.253 108.702 70.9482 109.369C70.6433 110.036 70.4908 110.798 70.4908 111.655C70.4908 112.503 70.6433 113.265 70.9482 113.942C71.253 114.609 71.6818 115.133 72.2344 115.514C72.787 115.886 73.4254 116.071 74.1495 116.071C74.7211 116.071 75.2261 115.962 75.6644 115.743C76.1122 115.514 76.5885 115.161 77.0935 114.685C77.1697 114.628 77.2364 114.599 77.2936 114.599C77.3698 114.599 77.4413 114.633 77.508 114.699L77.7366 114.957C77.7938 115.014 77.8224 115.076 77.8224 115.142C77.8224 115.228 77.7747 115.314 77.6795 115.4C77.0887 115.962 76.5266 116.362 75.9931 116.6C75.4595 116.829 74.8497 116.943 74.1637 116.943ZM82.3384 116.915C81.681 116.915 81.095 116.757 80.5805 116.443C80.066 116.129 79.6659 115.695 79.38 115.142C79.0942 114.58 78.9513 113.937 78.9513 113.213C78.9513 112.489 79.0942 111.851 79.38 111.298C79.6659 110.736 80.066 110.298 80.5805 109.983C81.095 109.669 81.681 109.512 82.3384 109.512C82.9958 109.512 83.5818 109.669 84.0962 109.983C84.6107 110.298 85.0109 110.736 85.2967 111.298C85.5826 111.851 85.7255 112.489 85.7255 113.213C85.7255 113.937 85.5826 114.58 85.2967 115.142C85.0109 115.695 84.6107 116.129 84.0962 116.443C83.5818 116.757 82.9958 116.915 82.3384 116.915ZM82.3384 116.129C83.072 116.129 83.658 115.862 84.0962 115.328C84.5345 114.785 84.7537 114.08 84.7537 113.213C84.7537 112.346 84.5345 111.646 84.0962 111.112C83.658 110.569 83.072 110.298 82.3384 110.298C81.6048 110.298 81.0188 110.569 80.5805 111.112C80.1423 111.646 79.9231 112.346 79.9231 113.213C79.9231 114.08 80.1423 114.785 80.5805 115.328C81.0188 115.862 81.6048 116.129 82.3384 116.129ZM90.5083 109.512C91.3373 109.512 91.9613 109.74 92.3805 110.198C92.8093 110.655 93.0237 111.227 93.0237 111.913V116.443C93.0237 116.633 92.9284 116.729 92.7378 116.729H92.3662C92.1757 116.729 92.0804 116.633 92.0804 116.443V112.227C92.0804 111.598 91.928 111.122 91.6231 110.798C91.3182 110.474 90.8799 110.312 90.3083 110.312C89.9462 110.312 89.6127 110.402 89.3079 110.583C89.003 110.755 88.76 110.993 88.579 111.298C88.398 111.603 88.3074 111.936 88.3074 112.298V116.443C88.3074 116.633 88.2122 116.729 88.0216 116.729H87.65C87.4595 116.729 87.3642 116.633 87.3642 116.443V109.969C87.3642 109.778 87.4595 109.683 87.65 109.683H87.9645C88.155 109.683 88.2503 109.778 88.2503 109.969V110.655C88.4885 110.274 88.8029 109.988 89.1935 109.797C89.5842 109.607 90.0224 109.512 90.5083 109.512ZM98.0874 115.943C98.116 115.933 98.1541 115.928 98.2018 115.928C98.2589 115.928 98.3113 115.947 98.359 115.986C98.4066 116.024 98.4352 116.076 98.4447 116.143L98.4876 116.343C98.4971 116.362 98.5019 116.395 98.5019 116.443C98.5019 116.576 98.4304 116.657 98.2875 116.686C97.9445 116.791 97.5777 116.843 97.1871 116.843C96.5678 116.843 96.1247 116.705 95.8579 116.429C95.6007 116.143 95.4721 115.733 95.4721 115.2V110.398H94.4145C94.224 110.398 94.1287 110.302 94.1287 110.112V109.969C94.1287 109.778 94.224 109.683 94.4145 109.683H95.4721V107.511C95.4721 107.32 95.5674 107.225 95.7579 107.225H96.1295C96.32 107.225 96.4153 107.32 96.4153 107.511V109.683H98.1303C98.3209 109.683 98.4161 109.778 98.4161 109.969V110.112C98.4161 110.302 98.3209 110.398 98.1303 110.398H96.4153V115.085C96.4153 115.438 96.482 115.685 96.6154 115.828C96.7488 115.971 96.9775 116.043 97.3014 116.043C97.5301 116.043 97.7921 116.009 98.0874 115.943ZM104.721 115.057C104.788 114.99 104.859 114.957 104.935 114.957C105.002 114.957 105.064 114.985 105.121 115.042L105.307 115.214C105.373 115.281 105.407 115.352 105.407 115.428C105.407 115.485 105.378 115.552 105.321 115.628C104.854 116.095 104.402 116.429 103.963 116.629C103.525 116.819 103.034 116.915 102.491 116.915C101.805 116.915 101.21 116.762 100.705 116.457C100.2 116.152 99.8093 115.728 99.533 115.185C99.2567 114.633 99.1185 113.994 99.1185 113.27C99.1185 112.537 99.2519 111.889 99.5187 111.327C99.795 110.755 100.181 110.312 100.676 109.997C101.172 109.674 101.743 109.512 102.391 109.512C103.354 109.512 104.111 109.812 104.664 110.412C105.216 111.012 105.493 111.822 105.493 112.841V113.013C105.483 113.099 105.45 113.165 105.393 113.213C105.345 113.261 105.278 113.285 105.192 113.285H100.076C100.105 114.085 100.314 114.761 100.705 115.314C101.105 115.857 101.701 116.129 102.491 116.129C102.92 116.129 103.296 116.052 103.62 115.9C103.954 115.738 104.321 115.457 104.721 115.057ZM102.391 110.298C101.762 110.298 101.243 110.493 100.834 110.884C100.433 111.265 100.19 111.827 100.105 112.57H104.549C104.53 111.874 104.33 111.322 103.949 110.912C103.568 110.502 103.049 110.298 102.391 110.298ZM110.327 109.512C111.156 109.512 111.78 109.74 112.199 110.198C112.628 110.655 112.842 111.227 112.842 111.913V116.443C112.842 116.633 112.747 116.729 112.556 116.729H112.185C111.994 116.729 111.899 116.633 111.899 116.443V112.227C111.899 111.598 111.746 111.122 111.441 110.798C111.137 110.474 110.698 110.312 110.127 110.312C109.765 110.312 109.431 110.402 109.126 110.583C108.821 110.755 108.578 110.993 108.397 111.298C108.216 111.603 108.126 111.936 108.126 112.298V116.443C108.126 116.633 108.03 116.729 107.84 116.729H107.468C107.278 116.729 107.183 116.633 107.183 116.443V109.969C107.183 109.778 107.278 109.683 107.468 109.683H107.783C107.973 109.683 108.069 109.778 108.069 109.969V110.655C108.307 110.274 108.621 109.988 109.012 109.797C109.402 109.607 109.841 109.512 110.327 109.512ZM117.906 115.943C117.934 115.933 117.972 115.928 118.02 115.928C118.077 115.928 118.13 115.947 118.177 115.986C118.225 116.024 118.254 116.076 118.263 116.143L118.306 116.343C118.315 116.362 118.32 116.395 118.32 116.443C118.32 116.576 118.249 116.657 118.106 116.686C117.763 116.791 117.396 116.843 117.005 116.843C116.386 116.843 115.943 116.705 115.676 116.429C115.419 116.143 115.29 115.733 115.29 115.2V110.398H114.233C114.042 110.398 113.947 110.302 113.947 110.112V109.969C113.947 109.778 114.042 109.683 114.233 109.683H115.29V107.511C115.29 107.32 115.386 107.225 115.576 107.225H115.948C116.138 107.225 116.234 107.32 116.234 107.511V109.683H117.949C118.139 109.683 118.234 109.778 118.234 109.969V110.112C118.234 110.302 118.139 110.398 117.949 110.398H116.234V115.085C116.234 115.438 116.3 115.685 116.434 115.828C116.567 115.971 116.796 116.043 117.12 116.043C117.348 116.043 117.61 116.009 117.906 115.943ZM123.439 107.897C123.248 107.897 123.087 107.83 122.953 107.697C122.829 107.563 122.767 107.401 122.767 107.211C122.767 107.02 122.829 106.863 122.953 106.739C123.087 106.615 123.248 106.553 123.439 106.553C123.639 106.553 123.801 106.615 123.925 106.739C124.058 106.863 124.125 107.02 124.125 107.211C124.125 107.401 124.058 107.563 123.925 107.697C123.801 107.83 123.639 107.897 123.439 107.897ZM123.253 116.729C123.063 116.729 122.967 116.633 122.967 116.443V109.969C122.967 109.778 123.063 109.683 123.253 109.683H123.625C123.815 109.683 123.911 109.778 123.911 109.969V116.443C123.911 116.633 123.815 116.729 123.625 116.729H123.253ZM129.154 109.512C129.983 109.512 130.607 109.74 131.026 110.198C131.455 110.655 131.669 111.227 131.669 111.913V116.443C131.669 116.633 131.574 116.729 131.384 116.729H131.012C130.821 116.729 130.726 116.633 130.726 116.443V112.227C130.726 111.598 130.574 111.122 130.269 110.798C129.964 110.474 129.526 110.312 128.954 110.312C128.592 110.312 128.258 110.402 127.954 110.583C127.649 110.755 127.406 110.993 127.225 111.298C127.044 111.603 126.953 111.936 126.953 112.298V116.443C126.953 116.633 126.858 116.729 126.667 116.729H126.296C126.105 116.729 126.01 116.633 126.01 116.443V109.969C126.01 109.778 126.105 109.683 126.296 109.683H126.61C126.801 109.683 126.896 109.778 126.896 109.969V110.655C127.134 110.274 127.449 109.988 127.839 109.797C128.23 109.607 128.668 109.512 129.154 109.512ZM136.275 107.196C135.846 107.196 135.542 107.311 135.361 107.539C135.179 107.758 135.089 108.13 135.089 108.654V109.683H136.661C136.852 109.683 136.947 109.778 136.947 109.969V110.112C136.947 110.302 136.852 110.398 136.661 110.398H135.089V116.443C135.089 116.633 134.994 116.729 134.803 116.729H134.432C134.241 116.729 134.146 116.633 134.146 116.443V110.398H133.088C132.898 110.398 132.802 110.302 132.802 110.112V109.969C132.802 109.778 132.898 109.683 133.088 109.683H134.146V108.497C134.146 107.839 134.317 107.325 134.66 106.953C135.013 106.582 135.513 106.396 136.161 106.396C136.523 106.396 136.894 106.448 137.276 106.553C137.457 106.61 137.523 106.729 137.476 106.91L137.418 107.111C137.371 107.244 137.276 107.311 137.133 107.311C137.104 107.311 137.042 107.301 136.947 107.282C136.737 107.225 136.513 107.196 136.275 107.196ZM140.83 116.915C140.173 116.915 139.587 116.757 139.073 116.443C138.558 116.129 138.158 115.695 137.872 115.142C137.586 114.58 137.443 113.937 137.443 113.213C137.443 112.489 137.586 111.851 137.872 111.298C138.158 110.736 138.558 110.298 139.073 109.983C139.587 109.669 140.173 109.512 140.83 109.512C141.488 109.512 142.074 109.669 142.588 109.983C143.103 110.298 143.503 110.736 143.789 111.298C144.075 111.851 144.217 112.489 144.217 113.213C144.217 113.937 144.075 114.58 143.789 115.142C143.503 115.695 143.103 116.129 142.588 116.443C142.074 116.757 141.488 116.915 140.83 116.915ZM140.83 116.129C141.564 116.129 142.15 115.862 142.588 115.328C143.027 114.785 143.246 114.08 143.246 113.213C143.246 112.346 143.027 111.646 142.588 111.112C142.15 110.569 141.564 110.298 140.83 110.298C140.097 110.298 139.511 110.569 139.073 111.112C138.634 111.646 138.415 112.346 138.415 113.213C138.415 114.08 138.634 114.785 139.073 115.328C139.511 115.862 140.097 116.129 140.83 116.129ZM148.486 109.626C148.724 109.626 149.005 109.664 149.329 109.74C149.501 109.797 149.567 109.916 149.529 110.097L149.472 110.326C149.424 110.507 149.305 110.574 149.115 110.526C148.886 110.469 148.676 110.44 148.486 110.44C148 110.44 147.595 110.65 147.271 111.069C146.957 111.489 146.799 112.07 146.799 112.813V116.443C146.799 116.633 146.704 116.729 146.514 116.729H146.142C145.951 116.729 145.856 116.633 145.856 116.443V109.969C145.856 109.778 145.951 109.683 146.142 109.683H146.456C146.647 109.683 146.742 109.778 146.742 109.969V110.755C146.904 110.402 147.133 110.126 147.428 109.926C147.733 109.726 148.086 109.626 148.486 109.626ZM157.971 109.512C158.733 109.512 159.314 109.731 159.714 110.169C160.124 110.598 160.329 111.15 160.329 111.827V116.443C160.329 116.633 160.234 116.729 160.043 116.729H159.672C159.481 116.729 159.386 116.633 159.386 116.443V112.084C159.386 111.512 159.252 111.074 158.986 110.769C158.728 110.464 158.342 110.312 157.828 110.312C157.285 110.312 156.851 110.493 156.527 110.855C156.203 111.217 156.041 111.684 156.041 112.256V116.443C156.041 116.633 155.946 116.729 155.756 116.729H155.384C155.194 116.729 155.098 116.633 155.098 116.443V112.084C155.098 111.512 154.965 111.074 154.698 110.769C154.441 110.464 154.05 110.312 153.526 110.312C153.04 110.312 152.635 110.464 152.311 110.769C151.997 111.074 151.811 111.474 151.754 111.97V116.443C151.754 116.633 151.659 116.729 151.468 116.729H151.097C150.906 116.729 150.811 116.633 150.811 116.443V109.969C150.811 109.778 150.906 109.683 151.097 109.683H151.411C151.602 109.683 151.697 109.778 151.697 109.969V110.555C152.126 109.859 152.807 109.512 153.741 109.512C154.226 109.512 154.641 109.621 154.984 109.84C155.336 110.05 155.598 110.336 155.77 110.698C156.275 109.907 157.009 109.512 157.971 109.512ZM165.124 109.512C165.991 109.512 166.668 109.721 167.153 110.14C167.639 110.55 167.882 111.093 167.882 111.77V116.443C167.882 116.633 167.787 116.729 167.597 116.729H167.311C167.12 116.729 167.025 116.633 167.025 116.443V115.8C166.787 116.181 166.448 116.467 166.01 116.657C165.581 116.848 165.1 116.943 164.567 116.943C163.824 116.943 163.219 116.786 162.752 116.472C162.285 116.157 162.051 115.671 162.051 115.014C162.051 114.49 162.199 114.071 162.494 113.756C162.79 113.432 163.176 113.189 163.652 113.027C164.128 112.856 164.724 112.703 165.438 112.57L166.982 112.298V111.841C166.982 111.355 166.815 110.979 166.482 110.712C166.148 110.436 165.71 110.298 165.167 110.298C164.757 110.298 164.386 110.374 164.052 110.526C163.719 110.679 163.361 110.941 162.98 111.312C162.914 111.379 162.842 111.412 162.766 111.412C162.699 111.412 162.637 111.384 162.58 111.327L162.394 111.155C162.328 111.088 162.294 111.017 162.294 110.941C162.294 110.855 162.328 110.779 162.394 110.712C162.795 110.293 163.214 109.988 163.652 109.797C164.1 109.607 164.591 109.512 165.124 109.512ZM164.61 116.157C165.296 116.157 165.862 115.976 166.31 115.614C166.758 115.252 166.982 114.79 166.982 114.228V113.027L165.653 113.285C165.034 113.408 164.543 113.527 164.181 113.642C163.819 113.756 163.528 113.923 163.309 114.142C163.09 114.361 162.98 114.647 162.98 114.999C162.98 115.362 163.123 115.647 163.409 115.857C163.704 116.057 164.105 116.157 164.61 116.157ZM172.95 115.943C172.979 115.933 173.017 115.928 173.065 115.928C173.122 115.928 173.174 115.947 173.222 115.986C173.27 116.024 173.298 116.076 173.308 116.143L173.351 116.343C173.36 116.362 173.365 116.395 173.365 116.443C173.365 116.576 173.293 116.657 173.151 116.686C172.808 116.791 172.441 116.843 172.05 116.843C171.431 116.843 170.988 116.705 170.721 116.429C170.464 116.143 170.335 115.733 170.335 115.2V110.398H169.278C169.087 110.398 168.992 110.302 168.992 110.112V109.969C168.992 109.778 169.087 109.683 169.278 109.683H170.335V107.511C170.335 107.32 170.43 107.225 170.621 107.225H170.993C171.183 107.225 171.278 107.32 171.278 107.511V109.683H172.993C173.184 109.683 173.279 109.778 173.279 109.969V110.112C173.279 110.302 173.184 110.398 172.993 110.398H171.278V115.085C171.278 115.438 171.345 115.685 171.478 115.828C171.612 115.971 171.84 116.043 172.164 116.043C172.393 116.043 172.655 116.009 172.95 115.943ZM175.19 107.897C174.999 107.897 174.837 107.83 174.704 107.697C174.58 107.563 174.518 107.401 174.518 107.211C174.518 107.02 174.58 106.863 174.704 106.739C174.837 106.615 174.999 106.553 175.19 106.553C175.39 106.553 175.552 106.615 175.676 106.739C175.809 106.863 175.876 107.02 175.876 107.211C175.876 107.401 175.809 107.563 175.676 107.697C175.552 107.83 175.39 107.897 175.19 107.897ZM175.004 116.729C174.814 116.729 174.718 116.633 174.718 116.443V109.969C174.718 109.778 174.814 109.683 175.004 109.683H175.376C175.566 109.683 175.662 109.778 175.662 109.969V116.443C175.662 116.633 175.566 116.729 175.376 116.729H175.004ZM180.676 116.915C180.019 116.915 179.433 116.757 178.919 116.443C178.404 116.129 178.004 115.695 177.718 115.142C177.432 114.58 177.289 113.937 177.289 113.213C177.289 112.489 177.432 111.851 177.718 111.298C178.004 110.736 178.404 110.298 178.919 109.983C179.433 109.669 180.019 109.512 180.676 109.512C181.334 109.512 181.92 109.669 182.434 109.983C182.949 110.298 183.349 110.736 183.635 111.298C183.921 111.851 184.063 112.489 184.063 113.213C184.063 113.937 183.921 114.58 183.635 115.142C183.349 115.695 182.949 116.129 182.434 116.443C181.92 116.757 181.334 116.915 180.676 116.915ZM180.676 116.129C181.41 116.129 181.996 115.862 182.434 115.328C182.873 114.785 183.092 114.08 183.092 113.213C183.092 112.346 182.873 111.646 182.434 111.112C181.996 110.569 181.41 110.298 180.676 110.298C179.943 110.298 179.357 110.569 178.919 111.112C178.48 111.646 178.261 112.346 178.261 113.213C178.261 114.08 178.48 114.785 178.919 115.328C179.357 115.862 179.943 116.129 180.676 116.129ZM188.846 109.512C189.675 109.512 190.299 109.74 190.719 110.198C191.147 110.655 191.362 111.227 191.362 111.913V116.443C191.362 116.633 191.266 116.729 191.076 116.729H190.704C190.514 116.729 190.418 116.633 190.418 116.443V112.227C190.418 111.598 190.266 111.122 189.961 110.798C189.656 110.474 189.218 110.312 188.646 110.312C188.284 110.312 187.951 110.402 187.646 110.583C187.341 110.755 187.098 110.993 186.917 111.298C186.736 111.603 186.645 111.936 186.645 112.298V116.443C186.645 116.633 186.55 116.729 186.36 116.729H185.988C185.797 116.729 185.702 116.633 185.702 116.443V109.969C185.702 109.778 185.797 109.683 185.988 109.683H186.302C186.493 109.683 186.588 109.778 186.588 109.969V110.655C186.826 110.274 187.141 109.988 187.532 109.797C187.922 109.607 188.36 109.512 188.846 109.512ZM201.801 109.969C201.801 109.778 201.896 109.683 202.087 109.683H202.387C202.578 109.683 202.673 109.778 202.673 109.969V116.657C202.673 117.543 202.406 118.239 201.872 118.744C201.339 119.258 200.591 119.516 199.629 119.516C198.59 119.516 197.633 119.22 196.756 118.63C196.661 118.572 196.613 118.501 196.613 118.415C196.613 118.348 196.632 118.291 196.67 118.244L196.842 118.001C196.899 117.905 196.975 117.858 197.071 117.858C197.109 117.858 197.166 117.877 197.242 117.915C197.661 118.182 198.052 118.382 198.414 118.515C198.786 118.649 199.19 118.715 199.629 118.715C200.258 118.715 200.767 118.539 201.158 118.186C201.549 117.843 201.744 117.31 201.744 116.586V115.443C201.229 116.271 200.448 116.686 199.4 116.686C198.79 116.686 198.252 116.533 197.785 116.229C197.318 115.914 196.956 115.485 196.699 114.942C196.451 114.399 196.327 113.785 196.327 113.099C196.327 112.413 196.451 111.798 196.699 111.255C196.956 110.712 197.318 110.288 197.785 109.983C198.252 109.669 198.79 109.512 199.4 109.512C199.953 109.512 200.429 109.631 200.829 109.869C201.239 110.097 201.563 110.426 201.801 110.855V109.969ZM199.5 115.886C200.186 115.886 200.734 115.628 201.144 115.114C201.553 114.59 201.758 113.918 201.758 113.099C201.758 112.279 201.553 111.612 201.144 111.098C200.734 110.574 200.186 110.312 199.5 110.312C198.805 110.312 198.262 110.569 197.871 111.084C197.49 111.598 197.299 112.27 197.299 113.099C197.299 113.928 197.49 114.599 197.871 115.114C198.262 115.628 198.805 115.886 199.5 115.886ZM207.71 116.915C207.053 116.915 206.467 116.757 205.952 116.443C205.438 116.129 205.038 115.695 204.752 115.142C204.466 114.58 204.323 113.937 204.323 113.213C204.323 112.489 204.466 111.851 204.752 111.298C205.038 110.736 205.438 110.298 205.952 109.983C206.467 109.669 207.053 109.512 207.71 109.512C208.368 109.512 208.954 109.669 209.468 109.983C209.983 110.298 210.383 110.736 210.669 111.298C210.954 111.851 211.097 112.489 211.097 113.213C211.097 113.937 210.954 114.58 210.669 115.142C210.383 115.695 209.983 116.129 209.468 116.443C208.954 116.757 208.368 116.915 207.71 116.915ZM207.71 116.129C208.444 116.129 209.03 115.862 209.468 115.328C209.906 114.785 210.126 114.08 210.126 113.213C210.126 112.346 209.906 111.646 209.468 111.112C209.03 110.569 208.444 110.298 207.71 110.298C206.977 110.298 206.391 110.569 205.952 111.112C205.514 111.646 205.295 112.346 205.295 113.213C205.295 114.08 205.514 114.785 205.952 115.328C206.391 115.862 206.977 116.129 207.71 116.129ZM217.95 115.057C218.017 114.99 218.089 114.957 218.165 114.957C218.232 114.957 218.293 114.985 218.351 115.042L218.536 115.214C218.603 115.281 218.636 115.352 218.636 115.428C218.636 115.485 218.608 115.552 218.551 115.628C218.084 116.095 217.631 116.429 217.193 116.629C216.755 116.819 216.264 116.915 215.721 116.915C215.035 116.915 214.44 116.762 213.935 116.457C213.43 116.152 213.039 115.728 212.763 115.185C212.486 114.633 212.348 113.994 212.348 113.27C212.348 112.537 212.482 111.889 212.748 111.327C213.025 110.755 213.411 110.312 213.906 109.997C214.401 109.674 214.973 109.512 215.621 109.512C216.583 109.512 217.341 109.812 217.893 110.412C218.446 111.012 218.722 111.822 218.722 112.841V113.013C218.713 113.099 218.679 113.165 218.622 113.213C218.575 113.261 218.508 113.285 218.422 113.285H213.306C213.334 114.085 213.544 114.761 213.935 115.314C214.335 115.857 214.93 116.129 215.721 116.129C216.15 116.129 216.526 116.052 216.85 115.9C217.183 115.738 217.55 115.457 217.95 115.057ZM215.621 110.298C214.992 110.298 214.473 110.493 214.063 110.884C213.663 111.265 213.42 111.827 213.334 112.57H217.779C217.76 111.874 217.56 111.322 217.179 110.912C216.798 110.502 216.278 110.298 215.621 110.298ZM222.926 116.915C222.345 116.915 221.83 116.834 221.383 116.672C220.944 116.5 220.482 116.214 219.996 115.814C219.911 115.757 219.868 115.69 219.868 115.614C219.868 115.547 219.901 115.481 219.968 115.414L220.154 115.214C220.211 115.138 220.282 115.1 220.368 115.1C220.435 115.1 220.497 115.128 220.554 115.185C221.011 115.538 221.416 115.786 221.769 115.928C222.121 116.062 222.507 116.129 222.926 116.129C223.45 116.129 223.879 116.014 224.212 115.786C224.546 115.547 224.713 115.228 224.713 114.828C224.713 114.428 224.541 114.132 224.198 113.942C223.855 113.751 223.326 113.58 222.612 113.427C221.983 113.294 221.487 113.156 221.125 113.013C220.773 112.861 220.511 112.67 220.339 112.441C220.168 112.213 220.082 111.913 220.082 111.541C220.082 110.931 220.33 110.44 220.825 110.069C221.321 109.697 221.945 109.512 222.697 109.512C223.212 109.512 223.669 109.578 224.069 109.712C224.479 109.835 224.889 110.045 225.299 110.34C225.384 110.407 225.427 110.479 225.427 110.555C225.427 110.602 225.403 110.664 225.356 110.741L225.184 110.955C225.137 111.031 225.07 111.069 224.984 111.069C224.908 111.069 224.841 111.045 224.784 110.998C224.393 110.722 224.046 110.536 223.741 110.44C223.445 110.345 223.107 110.298 222.726 110.298C222.202 110.298 221.783 110.412 221.468 110.641C221.154 110.869 220.997 111.16 220.997 111.512C220.997 111.731 221.068 111.908 221.211 112.041C221.354 112.175 221.559 112.289 221.826 112.384C222.092 112.47 222.483 112.57 222.998 112.684C223.95 112.894 224.627 113.151 225.027 113.456C225.437 113.761 225.642 114.204 225.642 114.785C225.642 115.423 225.389 115.938 224.884 116.329C224.379 116.719 223.726 116.915 222.926 116.915ZM233.675 109.512C234.494 109.512 235.118 109.745 235.547 110.212C235.976 110.669 236.19 111.236 236.19 111.913V116.443C236.19 116.633 236.095 116.729 235.904 116.729H235.533C235.342 116.729 235.247 116.633 235.247 116.443V112.227C235.247 111.598 235.094 111.122 234.79 110.798C234.485 110.474 234.046 110.312 233.475 110.312C233.113 110.312 232.779 110.402 232.474 110.583C232.169 110.755 231.926 110.993 231.745 111.298C231.564 111.603 231.474 111.936 231.474 112.298V116.443C231.474 116.633 231.379 116.729 231.188 116.729H230.817C230.626 116.729 230.531 116.633 230.531 116.443V106.868C230.531 106.677 230.626 106.582 230.817 106.582H231.188C231.379 106.582 231.474 106.677 231.474 106.868V110.598C231.703 110.236 232.007 109.964 232.389 109.783C232.779 109.602 233.208 109.512 233.675 109.512ZM243.407 115.057C243.474 114.99 243.545 114.957 243.622 114.957C243.688 114.957 243.75 114.985 243.807 115.042L243.993 115.214C244.06 115.281 244.093 115.352 244.093 115.428C244.093 115.485 244.065 115.552 244.007 115.628C243.541 116.095 243.088 116.429 242.65 116.629C242.212 116.819 241.721 116.915 241.178 116.915C240.492 116.915 239.896 116.762 239.391 116.457C238.886 116.152 238.496 115.728 238.219 115.185C237.943 114.633 237.805 113.994 237.805 113.27C237.805 112.537 237.938 111.889 238.205 111.327C238.481 110.755 238.867 110.312 239.363 109.997C239.858 109.674 240.43 109.512 241.078 109.512C242.04 109.512 242.797 109.812 243.35 110.412C243.903 111.012 244.179 111.822 244.179 112.841V113.013C244.169 113.099 244.136 113.165 244.079 113.213C244.031 113.261 243.965 113.285 243.879 113.285H238.762C238.791 114.085 239.001 114.761 239.391 115.314C239.791 115.857 240.387 116.129 241.178 116.129C241.607 116.129 241.983 116.052 242.307 115.9C242.64 115.738 243.007 115.457 243.407 115.057ZM241.078 110.298C240.449 110.298 239.93 110.493 239.52 110.884C239.12 111.265 238.877 111.827 238.791 112.57H243.236C243.217 111.874 243.017 111.322 242.635 110.912C242.254 110.502 241.735 110.298 241.078 110.298ZM248.499 109.626C248.737 109.626 249.018 109.664 249.342 109.74C249.513 109.797 249.58 109.916 249.542 110.097L249.485 110.326C249.437 110.507 249.318 110.574 249.127 110.526C248.899 110.469 248.689 110.44 248.499 110.44C248.013 110.44 247.608 110.65 247.284 111.069C246.969 111.489 246.812 112.07 246.812 112.813V116.443C246.812 116.633 246.717 116.729 246.526 116.729H246.155C245.964 116.729 245.869 116.633 245.869 116.443V109.969C245.869 109.778 245.964 109.683 246.155 109.683H246.469C246.66 109.683 246.755 109.778 246.755 109.969V110.755C246.917 110.402 247.146 110.126 247.441 109.926C247.746 109.726 248.098 109.626 248.499 109.626ZM255.563 115.057C255.63 114.99 255.702 114.957 255.778 114.957C255.844 114.957 255.906 114.985 255.964 115.042L256.149 115.214C256.216 115.281 256.249 115.352 256.249 115.428C256.249 115.485 256.221 115.552 256.164 115.628C255.697 116.095 255.244 116.429 254.806 116.629C254.368 116.819 253.877 116.915 253.334 116.915C252.648 116.915 252.052 116.762 251.547 116.457C251.043 116.152 250.652 115.728 250.376 115.185C250.099 114.633 249.961 113.994 249.961 113.27C249.961 112.537 250.095 111.889 250.361 111.327C250.638 110.755 251.023 110.312 251.519 109.997C252.014 109.674 252.586 109.512 253.234 109.512C254.196 109.512 254.954 109.812 255.506 110.412C256.059 111.012 256.335 111.822 256.335 112.841V113.013C256.326 113.099 256.292 113.165 256.235 113.213C256.187 113.261 256.121 113.285 256.035 113.285H250.919C250.947 114.085 251.157 114.761 251.547 115.314C251.948 115.857 252.543 116.129 253.334 116.129C253.763 116.129 254.139 116.052 254.463 115.9C254.796 115.738 255.163 115.457 255.563 115.057ZM253.234 110.298C252.605 110.298 252.086 110.493 251.676 110.884C251.276 111.265 251.033 111.827 250.947 112.57H255.392C255.373 111.874 255.173 111.322 254.792 110.912C254.411 110.502 253.891 110.298 253.234 110.298Z" fill="#464646"/>
<path d="M70.3479 143.875C70.1574 143.875 70.0621 143.779 70.0621 143.589V134.013C70.0621 133.823 70.1574 133.728 70.3479 133.728H70.7909C70.9815 133.728 71.0768 133.823 71.0768 134.013V143.031H75.6358C75.8263 143.031 75.9216 143.127 75.9216 143.317V143.589C75.9216 143.779 75.8263 143.875 75.6358 143.875H70.3479ZM77.8429 135.042C77.6524 135.042 77.4904 134.976 77.357 134.842C77.2332 134.709 77.1712 134.547 77.1712 134.356C77.1712 134.166 77.2332 134.009 77.357 133.885C77.4904 133.761 77.6524 133.699 77.8429 133.699C78.043 133.699 78.205 133.761 78.3288 133.885C78.4622 134.009 78.5289 134.166 78.5289 134.356C78.5289 134.547 78.4622 134.709 78.3288 134.842C78.205 134.976 78.043 135.042 77.8429 135.042ZM77.6571 143.875C77.4666 143.875 77.3713 143.779 77.3713 143.589V137.115C77.3713 136.924 77.4666 136.829 77.6571 136.829H78.0287C78.2193 136.829 78.3145 136.924 78.3145 137.115V143.589C78.3145 143.779 78.2193 143.875 78.0287 143.875H77.6571ZM83.558 136.657C84.3869 136.657 85.0109 136.886 85.4302 137.343C85.8589 137.801 86.0733 138.372 86.0733 139.058V143.589C86.0733 143.779 85.978 143.875 85.7874 143.875H85.4159C85.2253 143.875 85.13 143.779 85.13 143.589V139.373C85.13 138.744 84.9776 138.267 84.6727 137.944C84.3678 137.62 83.9295 137.458 83.3579 137.458C82.9958 137.458 82.6624 137.548 82.3575 137.729C82.0526 137.901 81.8096 138.139 81.6286 138.444C81.4476 138.749 81.3571 139.082 81.3571 139.444V143.589C81.3571 143.779 81.2618 143.875 81.0712 143.875H80.6997C80.5091 143.875 80.4138 143.779 80.4138 143.589V137.115C80.4138 136.924 80.5091 136.829 80.6997 136.829H81.0141C81.2046 136.829 81.2999 136.924 81.2999 137.115V137.801C81.5381 137.42 81.8525 137.134 82.2431 136.943C82.6338 136.753 83.0721 136.657 83.558 136.657ZM93.2475 143.875C93.1046 143.875 92.9903 143.813 92.9045 143.689L90.4892 140.173L89.103 141.588V143.589C89.103 143.779 89.0077 143.875 88.8171 143.875H88.4456C88.255 143.875 88.1597 143.779 88.1597 143.589V134.013C88.1597 133.823 88.255 133.728 88.4456 133.728H88.8171C89.0077 133.728 89.103 133.823 89.103 134.013V140.516L92.5329 136.957C92.6187 136.862 92.7378 136.814 92.8902 136.814H93.2904C93.3666 136.814 93.4238 136.834 93.4619 136.872C93.5095 136.9 93.5333 136.938 93.5333 136.986C93.5333 137.034 93.5048 137.096 93.4476 137.172L91.1467 139.573L93.8478 143.532C93.8859 143.598 93.9049 143.655 93.9049 143.703C93.9049 143.817 93.8287 143.875 93.6763 143.875H93.2475ZM101.744 146.104C101.687 146.161 101.62 146.19 101.544 146.19C101.468 146.19 101.401 146.152 101.344 146.075C100.477 145.104 99.8099 144.094 99.3431 143.046C98.8857 141.998 98.6571 140.811 98.6571 139.487C98.6571 138.163 98.8857 136.976 99.3431 135.928C99.8099 134.88 100.477 133.87 101.344 132.899C101.401 132.822 101.468 132.784 101.544 132.784C101.62 132.784 101.687 132.813 101.744 132.87L101.93 133.042C102.006 133.099 102.044 133.17 102.044 133.256C102.044 133.323 102.016 133.385 101.958 133.442C101.177 134.394 100.591 135.347 100.201 136.3C99.8195 137.253 99.6289 138.315 99.6289 139.487C99.6289 140.649 99.8242 141.712 100.215 142.674C100.605 143.627 101.187 144.58 101.958 145.532C102.016 145.589 102.044 145.651 102.044 145.718C102.044 145.804 102.006 145.875 101.93 145.932L101.744 146.104ZM107.661 144.089C106.698 144.089 105.86 143.865 105.145 143.417C104.431 142.96 103.883 142.331 103.502 141.531C103.121 140.73 102.93 139.82 102.93 138.801C102.93 137.782 103.121 136.872 103.502 136.071C103.883 135.271 104.431 134.647 105.145 134.199C105.86 133.742 106.698 133.513 107.661 133.513C108.623 133.513 109.461 133.742 110.176 134.199C110.89 134.647 111.438 135.271 111.819 136.071C112.2 136.872 112.391 137.782 112.391 138.801C112.391 139.82 112.2 140.73 111.819 141.531C111.438 142.331 110.89 142.96 110.176 143.417C109.461 143.865 108.623 144.089 107.661 144.089ZM107.661 143.217C108.394 143.217 109.042 143.031 109.604 142.66C110.166 142.279 110.6 141.755 110.905 141.088C111.219 140.411 111.376 139.649 111.376 138.801C111.376 137.953 111.219 137.196 110.905 136.529C110.6 135.852 110.166 135.328 109.604 134.957C109.042 134.575 108.394 134.385 107.661 134.385C106.927 134.385 106.279 134.575 105.717 134.957C105.155 135.328 104.716 135.852 104.402 136.529C104.097 137.196 103.945 137.953 103.945 138.801C103.945 139.649 104.097 140.411 104.402 141.088C104.716 141.755 105.155 142.279 105.717 142.66C106.279 143.031 106.927 143.217 107.661 143.217ZM117.45 136.672C118.041 136.672 118.569 136.829 119.036 137.143C119.513 137.448 119.884 137.882 120.151 138.444C120.418 138.996 120.551 139.63 120.551 140.345C120.551 141.069 120.418 141.712 120.151 142.274C119.884 142.836 119.517 143.274 119.051 143.589C118.584 143.894 118.05 144.046 117.45 144.046C116.345 144.046 115.535 143.641 115.02 142.831V146.218C115.02 146.409 114.925 146.504 114.734 146.504H114.363C114.172 146.504 114.077 146.409 114.077 146.218V137.115C114.077 136.924 114.172 136.829 114.363 136.829H114.677C114.868 136.829 114.963 136.924 114.963 137.115V138.015C115.22 137.577 115.559 137.243 115.978 137.015C116.397 136.786 116.888 136.672 117.45 136.672ZM117.378 143.246C118.045 143.246 118.579 142.979 118.979 142.445C119.379 141.912 119.579 141.212 119.579 140.345C119.579 139.487 119.379 138.796 118.979 138.272C118.579 137.739 118.045 137.472 117.378 137.472C116.664 137.472 116.083 137.729 115.635 138.244C115.197 138.749 114.977 139.449 114.977 140.345C114.977 141.24 115.201 141.95 115.649 142.474C116.097 142.988 116.673 143.246 117.378 143.246ZM125.191 143.088C125.22 143.079 125.258 143.074 125.305 143.074C125.363 143.074 125.415 143.093 125.463 143.131C125.51 143.169 125.539 143.222 125.548 143.289L125.591 143.489C125.601 143.508 125.606 143.541 125.606 143.589C125.606 143.722 125.534 143.803 125.391 143.832C125.048 143.936 124.681 143.989 124.291 143.989C123.671 143.989 123.228 143.851 122.962 143.574C122.704 143.289 122.576 142.879 122.576 142.345V137.543H121.518C121.328 137.543 121.232 137.448 121.232 137.258V137.115C121.232 136.924 121.328 136.829 121.518 136.829H122.576V134.656C122.576 134.466 122.671 134.371 122.862 134.371H123.233C123.424 134.371 123.519 134.466 123.519 134.656V136.829H125.234C125.425 136.829 125.52 136.924 125.52 137.115V137.258C125.52 137.448 125.425 137.543 125.234 137.543H123.519V142.231C123.519 142.584 123.586 142.831 123.719 142.974C123.852 143.117 124.081 143.189 124.405 143.189C124.634 143.189 124.896 143.155 125.191 143.088ZM127.431 135.042C127.24 135.042 127.078 134.976 126.945 134.842C126.821 134.709 126.759 134.547 126.759 134.356C126.759 134.166 126.821 134.009 126.945 133.885C127.078 133.761 127.24 133.699 127.431 133.699C127.631 133.699 127.793 133.761 127.917 133.885C128.05 134.009 128.117 134.166 128.117 134.356C128.117 134.547 128.05 134.709 127.917 134.842C127.793 134.976 127.631 135.042 127.431 135.042ZM127.245 143.875C127.054 143.875 126.959 143.779 126.959 143.589V137.115C126.959 136.924 127.054 136.829 127.245 136.829H127.616C127.807 136.829 127.902 136.924 127.902 137.115V143.589C127.902 143.779 127.807 143.875 127.616 143.875H127.245ZM132.917 144.06C132.26 144.06 131.674 143.903 131.159 143.589C130.645 143.274 130.244 142.841 129.959 142.288C129.673 141.726 129.53 141.083 129.53 140.359C129.53 139.635 129.673 138.996 129.959 138.444C130.244 137.882 130.645 137.443 131.159 137.129C131.674 136.814 132.26 136.657 132.917 136.657C133.574 136.657 134.16 136.814 134.675 137.129C135.189 137.443 135.59 137.882 135.875 138.444C136.161 138.996 136.304 139.635 136.304 140.359C136.304 141.083 136.161 141.726 135.875 142.288C135.59 142.841 135.189 143.274 134.675 143.589C134.16 143.903 133.574 144.06 132.917 144.06ZM132.917 143.274C133.651 143.274 134.237 143.007 134.675 142.474C135.113 141.931 135.332 141.226 135.332 140.359C135.332 139.492 135.113 138.791 134.675 138.258C134.237 137.715 133.651 137.443 132.917 137.443C132.183 137.443 131.597 137.715 131.159 138.258C130.721 138.791 130.502 139.492 130.502 140.359C130.502 141.226 130.721 141.931 131.159 142.474C131.597 143.007 132.183 143.274 132.917 143.274ZM141.087 136.657C141.916 136.657 142.54 136.886 142.959 137.343C143.388 137.801 143.602 138.372 143.602 139.058V143.589C143.602 143.779 143.507 143.875 143.316 143.875H142.945C142.754 143.875 142.659 143.779 142.659 143.589V139.373C142.659 138.744 142.507 138.267 142.202 137.944C141.897 137.62 141.459 137.458 140.887 137.458C140.525 137.458 140.191 137.548 139.886 137.729C139.582 137.901 139.339 138.139 139.158 138.444C138.977 138.749 138.886 139.082 138.886 139.444V143.589C138.886 143.779 138.791 143.875 138.6 143.875H138.229C138.038 143.875 137.943 143.779 137.943 143.589V137.115C137.943 136.924 138.038 136.829 138.229 136.829H138.543C138.734 136.829 138.829 136.924 138.829 137.115V137.801C139.067 137.42 139.381 137.134 139.772 136.943C140.163 136.753 140.601 136.657 141.087 136.657ZM148.404 136.657C149.271 136.657 149.948 136.867 150.433 137.286C150.919 137.696 151.162 138.239 151.162 138.915V143.589C151.162 143.779 151.067 143.875 150.877 143.875H150.591C150.4 143.875 150.305 143.779 150.305 143.589V142.946C150.067 143.327 149.728 143.613 149.29 143.803C148.861 143.994 148.38 144.089 147.847 144.089C147.104 144.089 146.499 143.932 146.032 143.617C145.565 143.303 145.331 142.817 145.331 142.16C145.331 141.636 145.479 141.216 145.774 140.902C146.07 140.578 146.456 140.335 146.932 140.173C147.408 140.002 148.004 139.849 148.719 139.716L150.262 139.444V138.987C150.262 138.501 150.095 138.125 149.762 137.858C149.428 137.581 148.99 137.443 148.447 137.443C148.037 137.443 147.666 137.52 147.332 137.672C146.999 137.824 146.641 138.086 146.26 138.458C146.194 138.525 146.122 138.558 146.046 138.558C145.979 138.558 145.917 138.529 145.86 138.472L145.674 138.301C145.608 138.234 145.574 138.163 145.574 138.086C145.574 138.001 145.608 137.924 145.674 137.858C146.075 137.439 146.494 137.134 146.932 136.943C147.38 136.753 147.871 136.657 148.404 136.657ZM147.89 143.303C148.576 143.303 149.142 143.122 149.59 142.76C150.038 142.398 150.262 141.936 150.262 141.373V140.173L148.933 140.43C148.314 140.554 147.823 140.673 147.461 140.788C147.099 140.902 146.808 141.069 146.589 141.288C146.37 141.507 146.26 141.793 146.26 142.145C146.26 142.507 146.403 142.793 146.689 143.003C146.984 143.203 147.385 143.303 147.89 143.303ZM153.553 143.875C153.363 143.875 153.267 143.779 153.267 143.589V134.013C153.267 133.823 153.363 133.728 153.553 133.728H153.925C154.115 133.728 154.211 133.823 154.211 134.013V143.589C154.211 143.779 154.115 143.875 153.925 143.875H153.553ZM156.223 146.075C156.166 146.152 156.099 146.19 156.023 146.19C155.947 146.19 155.88 146.161 155.823 146.104L155.637 145.932C155.561 145.875 155.523 145.804 155.523 145.718C155.523 145.651 155.552 145.589 155.609 145.532C156.39 144.58 156.976 143.627 157.367 142.674C157.757 141.721 157.953 140.659 157.953 139.487C157.953 138.325 157.757 137.262 157.367 136.3C156.976 135.338 156.39 134.385 155.609 133.442C155.561 133.385 155.537 133.323 155.537 133.256C155.537 133.17 155.571 133.099 155.637 133.042L155.823 132.87C155.88 132.813 155.947 132.784 156.023 132.784C156.099 132.784 156.166 132.822 156.223 132.899C157.09 133.87 157.752 134.88 158.21 135.928C158.677 136.976 158.91 138.163 158.91 139.487C158.91 140.811 158.677 141.998 158.21 143.046C157.752 144.094 157.09 145.104 156.223 146.075Z" fill="#0063FB"/>
<path d="M72.6742 197.152C71.8929 197.152 71.1926 197.043 70.5733 196.824C69.9636 196.595 69.3347 196.214 68.6868 195.68C68.5535 195.575 68.4868 195.452 68.4868 195.309C68.4868 195.185 68.5344 195.07 68.6297 194.966L68.9584 194.58C69.0632 194.446 69.1823 194.38 69.3157 194.38C69.4205 194.38 69.5396 194.432 69.673 194.537C70.2446 194.994 70.7544 195.309 71.2022 195.48C71.6595 195.652 72.1597 195.737 72.7028 195.737C73.3602 195.737 73.8937 195.59 74.3034 195.294C74.7131 194.989 74.918 194.575 74.918 194.051C74.918 193.708 74.8131 193.441 74.6035 193.251C74.3939 193.051 74.1224 192.898 73.7889 192.793C73.465 192.689 72.9362 192.55 72.2026 192.379C71.3165 192.169 70.6257 191.941 70.1303 191.693C69.6349 191.445 69.2776 191.15 69.0584 190.807C68.8488 190.454 68.744 190.011 68.744 189.478C68.744 188.916 68.906 188.411 69.2299 187.963C69.5539 187.515 69.9969 187.167 70.559 186.92C71.1307 186.672 71.7691 186.548 72.4741 186.548C73.1887 186.548 73.8175 186.643 74.3606 186.834C74.9132 187.024 75.4658 187.334 76.0184 187.763C76.1613 187.877 76.2328 187.996 76.2328 188.12C76.2328 188.225 76.1851 188.339 76.0899 188.463L75.7754 188.835C75.6611 188.968 75.542 189.035 75.4182 189.035C75.3038 189.035 75.1847 188.987 75.0609 188.892C74.6035 188.539 74.1796 188.296 73.7889 188.163C73.3983 188.029 72.9553 187.963 72.4598 187.963C71.831 187.963 71.3213 188.101 70.9306 188.377C70.54 188.654 70.3447 189.001 70.3447 189.421C70.3447 189.725 70.4352 189.968 70.6162 190.149C70.7972 190.33 71.0592 190.478 71.4022 190.592C71.7452 190.707 72.274 190.845 72.9886 191.007C73.8556 191.217 74.5416 191.44 75.0466 191.679C75.5515 191.907 75.9279 192.203 76.1756 192.565C76.4233 192.927 76.5472 193.389 76.5472 193.951C76.5472 194.58 76.3852 195.137 76.0613 195.623C75.7373 196.109 75.2848 196.485 74.7036 196.752C74.1224 197.019 73.4459 197.152 72.6742 197.152ZM83.0591 195.123C83.183 195.018 83.3021 194.966 83.4164 194.966C83.5307 194.966 83.6498 195.028 83.7737 195.151L83.9738 195.366C84.0786 195.49 84.131 195.609 84.131 195.723C84.131 195.847 84.069 195.966 83.9452 196.08C83.5069 196.461 83.0686 196.733 82.6304 196.895C82.2016 197.057 81.7252 197.138 81.2012 197.138C80.4676 197.138 79.8292 196.986 79.2861 196.681C78.7526 196.376 78.3381 195.947 78.0428 195.394C77.7569 194.832 77.614 194.184 77.614 193.451C77.614 192.727 77.7522 192.079 78.0285 191.507C78.3143 190.926 78.7145 190.473 79.229 190.149C79.753 189.825 80.3628 189.663 81.0583 189.663C82.0968 189.663 82.8971 189.973 83.4593 190.592C84.0214 191.202 84.3025 192.045 84.3025 193.122V193.251C84.2929 193.403 84.2453 193.522 84.1595 193.608C84.0738 193.694 83.9499 193.737 83.788 193.737H79.1003C79.1575 194.365 79.3624 194.88 79.7149 195.28C80.0769 195.671 80.5819 195.866 81.2298 195.866C81.5823 195.866 81.892 195.814 82.1587 195.709C82.4255 195.594 82.7256 195.399 83.0591 195.123ZM81.0297 190.864C80.5057 190.864 80.0817 191.021 79.7578 191.336C79.4433 191.64 79.2385 192.074 79.1432 192.636H82.8161C82.778 192.084 82.6065 191.65 82.3016 191.336C81.9968 191.021 81.5728 190.864 81.0297 190.864ZM88.8195 197.138C88.124 197.138 87.5094 196.986 86.9759 196.681C86.4518 196.376 86.0422 195.942 85.7468 195.38C85.461 194.808 85.3181 194.146 85.3181 193.394C85.3181 192.641 85.4657 191.983 85.7611 191.421C86.0564 190.859 86.4709 190.426 87.0045 190.121C87.538 189.816 88.1525 189.663 88.8481 189.663C89.353 189.663 89.8056 189.74 90.2058 189.892C90.6154 190.035 91.0061 190.283 91.3777 190.635C91.492 190.75 91.5492 190.869 91.5492 190.993C91.5492 191.107 91.4872 191.226 91.3634 191.35L91.1204 191.593C91.0156 191.698 90.9013 191.75 90.7774 191.75C90.6536 191.75 90.5249 191.693 90.3915 191.579C90.1152 191.34 89.8532 191.178 89.6055 191.093C89.3673 190.997 89.1101 190.95 88.8338 190.95C88.2049 190.95 87.719 191.183 87.376 191.65C87.033 192.117 86.8615 192.698 86.8615 193.394C86.8615 194.089 87.033 194.675 87.376 195.151C87.719 195.618 88.2049 195.852 88.8338 195.852C89.1387 195.852 89.4197 195.795 89.677 195.68C89.9342 195.556 90.2105 195.352 90.5059 195.066C90.6297 194.942 90.7584 194.88 90.8917 194.88C91.0061 194.88 91.1157 194.928 91.2205 195.023L91.4634 195.223C91.5873 195.328 91.6492 195.447 91.6492 195.58C91.6492 195.723 91.5777 195.876 91.4348 196.038C91.0442 196.438 90.6393 196.724 90.22 196.895C89.8104 197.057 89.3435 197.138 88.8195 197.138ZM95.939 197.138C95.2435 197.138 94.6242 196.981 94.0811 196.666C93.5476 196.352 93.1283 195.914 92.8235 195.352C92.5186 194.78 92.3661 194.127 92.3661 193.394C92.3661 192.66 92.5186 192.012 92.8235 191.45C93.1283 190.888 93.5476 190.45 94.0811 190.135C94.6242 189.821 95.2435 189.663 95.939 189.663C96.625 189.663 97.2395 189.821 97.7826 190.135C98.3257 190.45 98.7497 190.893 99.0546 191.464C99.3594 192.026 99.5119 192.669 99.5119 193.394C99.5119 194.127 99.3594 194.78 99.0546 195.352C98.7497 195.914 98.3257 196.352 97.7826 196.666C97.2395 196.981 96.625 197.138 95.939 197.138ZM95.939 195.866C96.5488 195.866 97.0395 195.642 97.411 195.194C97.7826 194.737 97.9684 194.137 97.9684 193.394C97.9684 192.66 97.7826 192.069 97.411 191.621C97.0395 191.174 96.5488 190.95 95.939 190.95C95.3292 190.95 94.8386 191.174 94.467 191.621C94.0954 192.069 93.9096 192.66 93.9096 193.394C93.9096 194.137 94.0954 194.737 94.467 195.194C94.8386 195.642 95.3292 195.866 95.939 195.866ZM104.434 189.663C105.244 189.663 105.863 189.892 106.292 190.349C106.73 190.797 106.95 191.378 106.95 192.093V196.423C106.95 196.576 106.907 196.7 106.821 196.795C106.735 196.881 106.611 196.924 106.449 196.924H105.935C105.782 196.924 105.659 196.881 105.563 196.795C105.478 196.7 105.435 196.576 105.435 196.423V192.565C105.435 192.05 105.306 191.655 105.049 191.378C104.801 191.102 104.444 190.964 103.977 190.964C103.52 190.964 103.134 191.121 102.819 191.436C102.514 191.75 102.362 192.145 102.362 192.622V196.423C102.362 196.576 102.319 196.7 102.233 196.795C102.148 196.881 102.024 196.924 101.862 196.924H101.347C101.195 196.924 101.071 196.881 100.976 196.795C100.89 196.7 100.847 196.576 100.847 196.423V190.378C100.847 190.216 100.89 190.092 100.976 190.006C101.071 189.921 101.195 189.878 101.347 189.878H101.762C101.924 189.878 102.048 189.921 102.133 190.006C102.219 190.092 102.262 190.216 102.262 190.378V190.75C102.491 190.397 102.791 190.13 103.162 189.949C103.534 189.759 103.958 189.663 104.434 189.663ZM113.65 187.263C113.65 187.101 113.693 186.977 113.779 186.891C113.874 186.805 113.998 186.762 114.15 186.762H114.665C114.827 186.762 114.95 186.805 115.036 186.891C115.122 186.977 115.165 187.101 115.165 187.263V196.423C115.165 196.576 115.122 196.7 115.036 196.795C114.95 196.881 114.827 196.924 114.665 196.924H114.25C114.098 196.924 113.974 196.881 113.879 196.795C113.793 196.7 113.75 196.576 113.75 196.423V195.923C113.254 196.724 112.478 197.124 111.42 197.124C110.83 197.124 110.296 196.971 109.82 196.666C109.353 196.361 108.986 195.928 108.719 195.366C108.453 194.804 108.319 194.151 108.319 193.408C108.319 192.674 108.453 192.026 108.719 191.464C108.996 190.902 109.372 190.469 109.848 190.164C110.325 189.859 110.858 189.706 111.449 189.706C112.421 189.706 113.154 190.045 113.65 190.721V187.263ZM111.735 195.823C112.316 195.823 112.792 195.609 113.164 195.18C113.536 194.742 113.721 194.151 113.721 193.408C113.721 192.665 113.536 192.079 113.164 191.65C112.792 191.221 112.316 191.007 111.735 191.007C111.173 191.007 110.72 191.226 110.377 191.664C110.034 192.103 109.863 192.684 109.863 193.408C109.863 194.141 110.029 194.727 110.363 195.166C110.706 195.604 111.163 195.823 111.735 195.823ZM119.898 189.663C120.851 189.663 121.584 189.887 122.099 190.335C122.613 190.773 122.87 191.359 122.87 192.093V196.423C122.87 196.576 122.828 196.7 122.742 196.795C122.656 196.881 122.532 196.924 122.37 196.924H121.999C121.846 196.924 121.722 196.881 121.627 196.795C121.541 196.7 121.498 196.576 121.498 196.423V196.109C121.27 196.442 120.955 196.7 120.555 196.881C120.155 197.062 119.688 197.152 119.155 197.152C118.421 197.152 117.816 196.99 117.34 196.666C116.873 196.333 116.639 195.833 116.639 195.166C116.639 194.423 116.916 193.875 117.468 193.522C118.03 193.16 118.807 192.889 119.798 192.708L121.413 192.407V192.15C121.413 191.76 121.274 191.459 120.998 191.25C120.731 191.031 120.374 190.921 119.926 190.921C119.545 190.921 119.212 190.988 118.926 191.121C118.65 191.245 118.349 191.455 118.026 191.75C117.902 191.855 117.783 191.907 117.668 191.907C117.554 191.907 117.435 191.855 117.311 191.75L117.082 191.55C116.958 191.436 116.897 191.312 116.897 191.178C116.897 191.055 116.954 190.935 117.068 190.821C117.478 190.43 117.911 190.14 118.369 189.949C118.826 189.759 119.336 189.663 119.898 189.663ZM119.369 195.937C119.941 195.937 120.422 195.785 120.812 195.48C121.213 195.175 121.413 194.737 121.413 194.165V193.508L120.169 193.765C119.474 193.908 118.959 194.07 118.626 194.251C118.292 194.432 118.126 194.708 118.126 195.08C118.126 195.347 118.235 195.556 118.454 195.709C118.673 195.861 118.978 195.937 119.369 195.937ZM127.774 189.806C127.984 189.806 128.198 189.83 128.417 189.878C128.674 189.935 128.803 190.087 128.803 190.335C128.803 190.402 128.798 190.45 128.789 190.478L128.717 190.821C128.66 191.088 128.517 191.221 128.288 191.221L128.16 191.207C127.988 191.178 127.836 191.164 127.702 191.164C127.226 191.164 126.84 191.355 126.545 191.736C126.259 192.107 126.116 192.627 126.116 193.294V196.423C126.116 196.576 126.073 196.7 125.987 196.795C125.902 196.881 125.778 196.924 125.616 196.924H125.101C124.949 196.924 124.825 196.881 124.73 196.795C124.644 196.7 124.601 196.576 124.601 196.423V190.378C124.601 190.216 124.644 190.092 124.73 190.006C124.825 189.921 124.949 189.878 125.101 189.878H125.516C125.678 189.878 125.802 189.921 125.887 190.006C125.973 190.092 126.016 190.216 126.016 190.378V190.935C126.188 190.583 126.421 190.307 126.716 190.107C127.012 189.906 127.364 189.806 127.774 189.806ZM134.5 190.292C134.586 190.016 134.771 189.878 135.057 189.878H135.572C135.715 189.878 135.824 189.911 135.9 189.978C135.977 190.045 136.015 190.135 136.015 190.249C136.015 190.307 136 190.373 135.972 190.45L133.414 197.795C133.185 198.462 132.899 198.934 132.556 199.21C132.223 199.496 131.746 199.639 131.127 199.639C130.841 199.639 130.598 199.62 130.398 199.582C130.265 199.572 130.165 199.525 130.098 199.439C130.031 199.363 129.998 199.267 129.998 199.153C129.998 199.086 130.003 199.034 130.012 198.996L130.055 198.81C130.122 198.543 130.265 198.41 130.484 198.41C130.57 198.41 130.651 198.415 130.727 198.424C130.803 198.434 130.879 198.438 130.956 198.438C131.232 198.438 131.461 198.367 131.642 198.224C131.832 198.081 131.989 197.819 132.113 197.438L132.156 197.324L129.712 190.45C129.684 190.373 129.669 190.302 129.669 190.235C129.669 190.121 129.707 190.035 129.784 189.978C129.869 189.911 129.984 189.878 130.127 189.878H130.67C130.965 189.878 131.156 190.016 131.241 190.292L131.799 191.964C132.218 193.165 132.575 194.265 132.871 195.266L133.285 193.994C133.352 193.794 133.452 193.479 133.585 193.051C133.719 192.622 133.838 192.255 133.943 191.95L134.5 190.292Z" fill="#0063FB"/>
<rect x="166.477" y="171.205" width="107.797" height="41.4373" rx="6.25254" fill="#0063FB"/>
<path d="M181.476 196.924C181.324 196.924 181.2 196.881 181.104 196.795C181.019 196.7 180.976 196.576 180.976 196.423V187.277C180.976 187.115 181.019 186.991 181.104 186.905C181.2 186.819 181.324 186.777 181.476 186.777H185.578C186.588 186.777 187.393 187.058 187.993 187.62C188.593 188.172 188.893 188.93 188.893 189.892C188.893 190.854 188.593 191.612 187.993 192.165C187.393 192.717 186.588 192.993 185.578 192.993H182.605V196.423C182.605 196.576 182.562 196.7 182.476 196.795C182.391 196.881 182.267 196.924 182.105 196.924H181.476ZM185.32 191.636C185.93 191.636 186.407 191.488 186.75 191.193C187.102 190.888 187.278 190.454 187.278 189.892C187.278 189.32 187.102 188.887 186.75 188.592C186.407 188.287 185.93 188.134 185.32 188.134H182.605V191.636H185.32ZM193.41 189.806C193.62 189.806 193.834 189.83 194.053 189.878C194.311 189.935 194.439 190.087 194.439 190.335C194.439 190.402 194.435 190.45 194.425 190.478L194.354 190.821C194.296 191.088 194.153 191.221 193.925 191.221L193.796 191.207C193.625 191.178 193.472 191.164 193.339 191.164C192.862 191.164 192.477 191.355 192.181 191.736C191.895 192.107 191.753 192.627 191.753 193.294V196.423C191.753 196.576 191.71 196.7 191.624 196.795C191.538 196.881 191.414 196.924 191.252 196.924H190.738C190.585 196.924 190.462 196.881 190.366 196.795C190.28 196.7 190.238 196.576 190.238 196.423V190.378C190.238 190.216 190.28 190.092 190.366 190.006C190.462 189.921 190.585 189.878 190.738 189.878H191.152C191.314 189.878 191.438 189.921 191.524 190.006C191.61 190.092 191.652 190.216 191.652 190.378V190.935C191.824 190.583 192.057 190.307 192.353 190.107C192.648 189.906 193.001 189.806 193.41 189.806ZM196.313 188.506C196.037 188.506 195.803 188.415 195.613 188.234C195.422 188.044 195.327 187.82 195.327 187.563C195.327 187.296 195.422 187.072 195.613 186.891C195.803 186.71 196.037 186.619 196.313 186.619C196.589 186.619 196.823 186.71 197.013 186.891C197.204 187.072 197.299 187.296 197.299 187.563C197.299 187.82 197.204 188.044 197.013 188.234C196.823 188.415 196.589 188.506 196.313 188.506ZM196.041 196.924C195.889 196.924 195.765 196.881 195.67 196.795C195.584 196.7 195.541 196.576 195.541 196.423V190.378C195.541 190.216 195.584 190.092 195.67 190.006C195.765 189.921 195.889 189.878 196.041 189.878H196.556C196.718 189.878 196.842 189.921 196.927 190.006C197.013 190.092 197.056 190.216 197.056 190.378V196.423C197.056 196.576 197.013 196.7 196.927 196.795C196.842 196.881 196.718 196.924 196.556 196.924H196.041ZM206.367 189.663C207.12 189.663 207.701 189.878 208.111 190.307C208.52 190.726 208.725 191.293 208.725 192.007V196.423C208.725 196.576 208.682 196.7 208.597 196.795C208.511 196.881 208.387 196.924 208.225 196.924H207.711C207.558 196.924 207.434 196.881 207.339 196.795C207.253 196.7 207.21 196.576 207.21 196.423V192.465C207.21 191.998 207.106 191.631 206.896 191.364C206.686 191.097 206.367 190.964 205.938 190.964C205.5 190.964 205.152 191.112 204.895 191.407C204.647 191.702 204.524 192.084 204.524 192.55V196.423C204.524 196.576 204.481 196.7 204.395 196.795C204.309 196.881 204.185 196.924 204.023 196.924H203.509C203.356 196.924 203.233 196.881 203.137 196.795C203.052 196.7 203.009 196.576 203.009 196.423V192.465C203.009 191.998 202.904 191.631 202.694 191.364C202.494 191.097 202.18 190.964 201.751 190.964C201.332 190.964 200.994 191.102 200.736 191.378C200.479 191.655 200.341 192.012 200.322 192.45V196.423C200.322 196.576 200.279 196.7 200.193 196.795C200.107 196.881 199.984 196.924 199.822 196.924H199.307C199.155 196.924 199.031 196.881 198.936 196.795C198.85 196.7 198.807 196.576 198.807 196.423V190.378C198.807 190.216 198.85 190.092 198.936 190.006C199.031 189.921 199.155 189.878 199.307 189.878H199.722C199.884 189.878 200.007 189.921 200.093 190.006C200.179 190.092 200.222 190.216 200.222 190.378V190.692C200.66 190.006 201.337 189.663 202.251 189.663C202.709 189.663 203.109 189.759 203.452 189.949C203.795 190.14 204.057 190.407 204.238 190.75C204.724 190.026 205.433 189.663 206.367 189.663ZM213.433 189.663C214.386 189.663 215.12 189.887 215.634 190.335C216.149 190.773 216.406 191.359 216.406 192.093V196.423C216.406 196.576 216.363 196.7 216.277 196.795C216.192 196.881 216.068 196.924 215.906 196.924H215.534C215.382 196.924 215.258 196.881 215.163 196.795C215.077 196.7 215.034 196.576 215.034 196.423V196.109C214.805 196.442 214.491 196.7 214.091 196.881C213.691 197.062 213.224 197.152 212.69 197.152C211.957 197.152 211.352 196.99 210.875 196.666C210.408 196.333 210.175 195.833 210.175 195.166C210.175 194.423 210.451 193.875 211.004 193.522C211.566 193.16 212.342 192.889 213.333 192.708L214.948 192.407V192.15C214.948 191.76 214.81 191.459 214.534 191.25C214.267 191.031 213.91 190.921 213.462 190.921C213.081 190.921 212.747 190.988 212.461 191.121C212.185 191.245 211.885 191.455 211.561 191.75C211.437 191.855 211.318 191.907 211.204 191.907C211.09 191.907 210.97 191.855 210.847 191.75L210.618 191.55C210.494 191.436 210.432 191.312 210.432 191.178C210.432 191.055 210.489 190.935 210.604 190.821C211.013 190.43 211.447 190.14 211.904 189.949C212.361 189.759 212.871 189.663 213.433 189.663ZM212.905 195.937C213.476 195.937 213.957 195.785 214.348 195.48C214.748 195.175 214.948 194.737 214.948 194.165V193.508L213.705 193.765C213.009 193.908 212.495 194.07 212.161 194.251C211.828 194.432 211.661 194.708 211.661 195.08C211.661 195.347 211.771 195.556 211.99 195.709C212.209 195.861 212.514 195.937 212.905 195.937ZM221.31 189.806C221.519 189.806 221.733 189.83 221.953 189.878C222.21 189.935 222.339 190.087 222.339 190.335C222.339 190.402 222.334 190.45 222.324 190.478L222.253 190.821C222.196 191.088 222.053 191.221 221.824 191.221L221.695 191.207C221.524 191.178 221.371 191.164 221.238 191.164C220.762 191.164 220.376 191.355 220.08 191.736C219.795 192.107 219.652 192.627 219.652 193.294V196.423C219.652 196.576 219.609 196.7 219.523 196.795C219.437 196.881 219.313 196.924 219.151 196.924H218.637C218.485 196.924 218.361 196.881 218.265 196.795C218.18 196.7 218.137 196.576 218.137 196.423V190.378C218.137 190.216 218.18 190.092 218.265 190.006C218.361 189.921 218.485 189.878 218.637 189.878H219.051C219.213 189.878 219.337 189.921 219.423 190.006C219.509 190.092 219.552 190.216 219.552 190.378V190.935C219.723 190.583 219.957 190.307 220.252 190.107C220.547 189.906 220.9 189.806 221.31 189.806ZM228.035 190.292C228.121 190.016 228.307 189.878 228.593 189.878H229.107C229.25 189.878 229.36 189.911 229.436 189.978C229.512 190.045 229.55 190.135 229.55 190.249C229.55 190.307 229.536 190.373 229.507 190.45L226.949 197.795C226.721 198.462 226.435 198.934 226.092 199.21C225.758 199.496 225.282 199.639 224.663 199.639C224.377 199.639 224.134 199.62 223.934 199.582C223.8 199.572 223.7 199.525 223.634 199.439C223.567 199.363 223.534 199.267 223.534 199.153C223.534 199.086 223.538 199.034 223.548 198.996L223.591 198.81C223.657 198.543 223.8 198.41 224.02 198.41C224.105 198.41 224.186 198.415 224.263 198.424C224.339 198.434 224.415 198.438 224.491 198.438C224.767 198.438 224.996 198.367 225.177 198.224C225.368 198.081 225.525 197.819 225.649 197.438L225.692 197.324L223.248 190.45C223.219 190.373 223.205 190.302 223.205 190.235C223.205 190.121 223.243 190.035 223.319 189.978C223.405 189.911 223.519 189.878 223.662 189.878H224.205C224.501 189.878 224.691 190.016 224.777 190.292L225.334 191.964C225.754 193.165 226.111 194.265 226.406 195.266L226.821 193.994C226.887 193.794 226.987 193.479 227.121 193.051C227.254 192.622 227.373 192.255 227.478 191.95L228.035 190.292ZM238.426 197.152C237.416 197.152 236.539 196.924 235.796 196.466C235.062 196.009 234.495 195.38 234.095 194.58C233.705 193.77 233.509 192.855 233.509 191.836C233.509 190.816 233.705 189.911 234.095 189.12C234.486 188.32 235.053 187.691 235.796 187.234C236.539 186.777 237.43 186.548 238.468 186.548C239.097 186.548 239.669 186.638 240.183 186.819C240.698 186.991 241.217 187.282 241.741 187.691C241.884 187.806 241.956 187.934 241.956 188.077C241.956 188.172 241.908 188.282 241.813 188.406L241.498 188.777C241.384 188.911 241.265 188.977 241.141 188.977C241.046 188.977 240.927 188.93 240.784 188.835C240.355 188.501 239.959 188.272 239.597 188.149C239.245 188.025 238.864 187.963 238.454 187.963C237.787 187.963 237.206 188.125 236.711 188.449C236.215 188.773 235.834 189.23 235.567 189.821C235.3 190.402 235.167 191.074 235.167 191.836C235.167 192.598 235.3 193.274 235.567 193.865C235.834 194.456 236.21 194.918 236.696 195.251C237.182 195.575 237.749 195.737 238.397 195.737C238.883 195.737 239.316 195.652 239.697 195.48C240.079 195.309 240.493 195.032 240.941 194.651C241.065 194.546 241.184 194.494 241.298 194.494C241.422 194.494 241.541 194.561 241.655 194.694L241.97 195.051C242.065 195.156 242.113 195.266 242.113 195.38C242.113 195.542 242.037 195.685 241.884 195.809C241.331 196.285 240.784 196.628 240.241 196.838C239.707 197.047 239.102 197.152 238.426 197.152ZM246.807 196.924C246.655 196.924 246.531 196.881 246.436 196.795C246.35 196.7 246.307 196.576 246.307 196.423V188.163H243.706C243.553 188.163 243.43 188.12 243.334 188.034C243.249 187.939 243.206 187.815 243.206 187.663V187.277C243.206 187.115 243.249 186.991 243.334 186.905C243.43 186.819 243.553 186.777 243.706 186.777H250.523C250.685 186.777 250.809 186.819 250.895 186.905C250.98 186.991 251.023 187.115 251.023 187.277V187.663C251.023 187.815 250.98 187.939 250.895 188.034C250.809 188.12 250.685 188.163 250.523 188.163H247.936V196.423C247.936 196.576 247.893 196.7 247.808 196.795C247.722 196.881 247.598 196.924 247.436 196.924H246.807ZM258.578 196.924C258.292 196.924 258.101 196.79 258.006 196.523L257.334 194.594H252.847L252.175 196.523C252.08 196.79 251.889 196.924 251.603 196.924H251.003C250.86 196.924 250.746 196.895 250.66 196.838C250.584 196.771 250.546 196.681 250.546 196.566C250.546 196.509 250.56 196.438 250.589 196.352L253.904 187.177C254 186.91 254.19 186.777 254.476 186.777H255.748C256.034 186.777 256.224 186.91 256.32 187.177L259.635 196.352C259.664 196.438 259.678 196.509 259.678 196.566C259.678 196.681 259.635 196.771 259.55 196.838C259.473 196.895 259.364 196.924 259.221 196.924H258.578ZM256.877 193.236L256.434 191.979C256.424 191.96 256.32 191.66 256.12 191.078C255.615 189.649 255.272 188.63 255.091 188.02C254.814 188.897 254.447 189.983 253.99 191.278L253.747 191.993L253.318 193.236H256.877Z" fill="white"/>
<rect x="166.477" y="171.205" width="107.797" height="41.4373" rx="6.25254" stroke="#0063FB" stroke-width="1.78644"/>
</g>
<defs>
<filter id="filter0_dd_1840_24181" x="32.25" y="35" width="279.5" height="218.119" filterUnits="userSpaceOnUse" color-interpolation-filters="sRGB">
<feFlood flood-opacity="0" result="BackgroundImageFix"/>
<feColorMatrix in="SourceAlpha" type="matrix" values="0 0 0 0 0 0 0 0 0 0 0 0 0 0 0 0 0 0 127 0" result="hardAlpha"/>
<feOffset dy="3"/>
<feGaussianBlur stdDeviation="3"/>
<feColorMatrix type="matrix" values="0 0 0 0 0.272549 0 0 0 0 0.272549 0 0 0 0 0.272549 0 0 0 0.16 0"/>
<feBlend mode="normal" in2="BackgroundImageFix" result="effect1_dropShadow_1840_24181"/>
<feColorMatrix in="SourceAlpha" type="matrix" values="0 0 0 0 0 0 0 0 0 0 0 0 0 0 0 0 0 0 127 0" result="hardAlpha"/>
<feOffset dy="3"/>
<feGaussianBlur stdDeviation="4"/>
<feColorMatrix type="matrix" values="0 0 0 0 0.272549 0 0 0 0 0.272549 0 0 0 0 0.272549 0 0 0 0.24 0"/>
<feBlend mode="normal" in2="effect1_dropShadow_1840_24181" result="effect2_dropShadow_1840_24181"/>
<feBlend mode="normal" in="SourceGraphic" in2="effect2_dropShadow_1840_24181" result="shape"/>
</filter>
</defs>
</svg>
