<svg width="344" height="168" viewBox="0 0 344 168" fill="none" xmlns="http://www.w3.org/2000/svg">
<rect width="344" height="168" fill="#F5F5F5"/>
<rect x="138.5" y="77.5" width="15" height="15" rx="7.5" fill="white" stroke="#767676"/>
<path d="M163.696 91C163.483 91 163.376 90.8933 163.376 90.68V79.96C163.376 79.7467 163.483 79.64 163.696 79.64H164.192C164.405 79.64 164.512 79.7467 164.512 79.96V90.056H169.616C169.829 90.056 169.936 90.1627 169.936 90.376V90.68C169.936 90.8933 169.829 91 169.616 91H163.696ZM174.74 82.92C175.71 82.92 176.468 83.1547 177.012 83.624C177.556 84.0827 177.828 84.6907 177.828 85.448V90.68C177.828 90.8933 177.721 91 177.508 91H177.188C176.974 91 176.868 90.8933 176.868 90.68V89.96C176.601 90.3867 176.222 90.7067 175.732 90.92C175.252 91.1333 174.713 91.24 174.116 91.24C173.284 91.24 172.606 91.064 172.084 90.712C171.561 90.36 171.3 89.816 171.3 89.08C171.3 88.4933 171.465 88.024 171.796 87.672C172.126 87.3093 172.558 87.0373 173.092 86.856C173.625 86.664 174.292 86.4933 175.092 86.344L176.82 86.04V85.528C176.82 84.984 176.633 84.5627 176.26 84.264C175.886 83.9547 175.396 83.8 174.788 83.8C174.329 83.8 173.913 83.8853 173.54 84.056C173.166 84.2267 172.766 84.52 172.34 84.936C172.265 85.0107 172.185 85.048 172.1 85.048C172.025 85.048 171.956 85.016 171.892 84.952L171.684 84.76C171.609 84.6853 171.572 84.6053 171.572 84.52C171.572 84.424 171.609 84.3387 171.684 84.264C172.132 83.7947 172.601 83.4533 173.092 83.24C173.593 83.0267 174.142 82.92 174.74 82.92ZM174.164 90.36C174.932 90.36 175.566 90.1573 176.068 89.752C176.569 89.3467 176.82 88.8293 176.82 88.2V86.856L175.332 87.144C174.638 87.2827 174.089 87.416 173.684 87.544C173.278 87.672 172.953 87.8587 172.708 88.104C172.462 88.3493 172.34 88.6693 172.34 89.064C172.34 89.4693 172.5 89.7893 172.82 90.024C173.15 90.248 173.598 90.36 174.164 90.36ZM183.944 82.936C184.616 82.936 185.214 83.112 185.736 83.464C186.27 83.8053 186.68 84.2907 186.968 84.92C187.267 85.5387 187.416 86.2533 187.416 87.064C187.416 87.8747 187.267 88.5947 186.968 89.224C186.67 89.8427 186.254 90.328 185.72 90.68C185.198 91.0213 184.606 91.192 183.944 91.192C182.675 91.192 181.747 90.7013 181.16 89.72V90.68C181.16 90.8933 181.054 91 180.84 91H180.488C180.275 91 180.168 90.8933 180.168 90.68V79.944C180.168 79.7307 180.275 79.624 180.488 79.624H180.904C181.118 79.624 181.224 79.7307 181.224 79.944V84.36C181.811 83.4107 182.718 82.936 183.944 82.936ZM183.864 90.296C184.6 90.296 185.192 89.9973 185.64 89.4C186.099 88.8027 186.328 88.024 186.328 87.064C186.328 86.104 186.099 85.3253 185.64 84.728C185.192 84.1307 184.6 83.832 183.864 83.832C183.075 83.832 182.43 84.12 181.928 84.696C181.427 85.272 181.176 86.0613 181.176 87.064C181.176 88.0773 181.422 88.872 181.912 89.448C182.414 90.0133 183.064 90.296 183.864 90.296ZM195.131 89.128C195.206 89.0533 195.286 89.016 195.371 89.016C195.446 89.016 195.515 89.048 195.579 89.112L195.787 89.304C195.862 89.3787 195.899 89.4587 195.899 89.544C195.899 89.608 195.867 89.6827 195.803 89.768C195.28 90.2907 194.774 90.664 194.283 90.888C193.792 91.1013 193.243 91.208 192.635 91.208C191.867 91.208 191.2 91.0373 190.635 90.696C190.07 90.3547 189.632 89.88 189.323 89.272C189.014 88.6533 188.859 87.9387 188.859 87.128C188.859 86.3067 189.008 85.5813 189.307 84.952C189.616 84.312 190.048 83.816 190.603 83.464C191.158 83.1013 191.798 82.92 192.523 82.92C193.6 82.92 194.448 83.256 195.067 83.928C195.686 84.6 195.995 85.5067 195.995 86.648V86.84C195.984 86.936 195.947 87.0107 195.883 87.064C195.83 87.1173 195.755 87.144 195.659 87.144H189.931C189.963 88.04 190.198 88.7973 190.635 89.416C191.083 90.024 191.75 90.328 192.635 90.328C193.115 90.328 193.536 90.2427 193.899 90.072C194.272 89.8907 194.683 89.576 195.131 89.128ZM192.523 83.8C191.819 83.8 191.238 84.0187 190.779 84.456C190.331 84.8827 190.059 85.512 189.963 86.344H194.939C194.918 85.5653 194.694 84.9467 194.267 84.488C193.84 84.0293 193.259 83.8 192.523 83.8ZM198.223 91C198.01 91 197.903 90.8933 197.903 90.68V79.96C197.903 79.7467 198.01 79.64 198.223 79.64H198.639C198.852 79.64 198.959 79.7467 198.959 79.96V90.68C198.959 90.8933 198.852 91 198.639 91H198.223Z" fill="#464646"/>
<rect x="134.5" y="73.5" width="70" height="23" stroke="#06BEFB"/>
</svg>
