<svg width="344" height="166" viewBox="0 0 344 166" fill="none" xmlns="http://www.w3.org/2000/svg">
<rect width="344" height="166" fill="#F5F5F5"/>
<rect x="43.5" y="44.5" width="15" height="15" rx="7.5" fill="white" stroke="#767676"/>
<path d="M77.304 46.896C77.368 46.7253 77.4907 46.64 77.672 46.64H78.92C79.1333 46.64 79.24 46.7467 79.24 46.96V57.68C79.24 57.8933 79.1333 58 78.92 58H78.456C78.2427 58 78.136 57.8933 78.136 57.68V52.368C78.136 51.2267 78.1467 49.5787 78.168 47.424C77.7307 48.672 77.1333 50.32 76.376 52.368L74.408 57.744C74.344 57.9147 74.2213 58 74.04 58H73.576C73.3947 58 73.272 57.9147 73.208 57.744L71.192 52.352C70.7653 51.2427 70.1733 49.6 69.416 47.424C69.4373 49.5787 69.448 51.232 69.448 52.384V57.68C69.448 57.8933 69.3413 58 69.128 58H68.696C68.4827 58 68.376 57.8933 68.376 57.68V46.96C68.376 46.7467 68.4827 46.64 68.696 46.64H69.928C70.1093 46.64 70.232 46.7253 70.296 46.896L72.12 51.808C72.9627 54.1013 73.528 55.7173 73.816 56.656C74.0827 55.76 74.5413 54.4213 75.192 52.64C75.2347 52.5227 75.2827 52.3947 75.336 52.256C75.3893 52.1173 75.4427 51.968 75.496 51.808L77.304 46.896ZM85.0574 58.208C84.3214 58.208 83.6654 58.032 83.0894 57.68C82.5134 57.328 82.0654 56.8427 81.7454 56.224C81.4254 55.5947 81.2654 54.8747 81.2654 54.064C81.2654 53.2533 81.4254 52.5387 81.7454 51.92C82.0654 51.2907 82.5134 50.8 83.0894 50.448C83.6654 50.096 84.3214 49.92 85.0574 49.92C85.7934 49.92 86.4494 50.096 87.0254 50.448C87.6014 50.8 88.0494 51.2907 88.3694 51.92C88.6894 52.5387 88.8494 53.2533 88.8494 54.064C88.8494 54.8747 88.6894 55.5947 88.3694 56.224C88.0494 56.8427 87.6014 57.328 87.0254 57.68C86.4494 58.032 85.7934 58.208 85.0574 58.208ZM85.0574 57.328C85.8787 57.328 86.5347 57.0293 87.0254 56.432C87.516 55.824 87.7614 55.0347 87.7614 54.064C87.7614 53.0933 87.516 52.3093 87.0254 51.712C86.5347 51.104 85.8787 50.8 85.0574 50.8C84.236 50.8 83.58 51.104 83.0894 51.712C82.5987 52.3093 82.3534 53.0933 82.3534 54.064C82.3534 55.0347 82.5987 55.824 83.0894 56.432C83.58 57.0293 84.236 57.328 85.0574 57.328ZM96.4738 46.96C96.4738 46.7467 96.5804 46.64 96.7938 46.64H97.2098C97.4231 46.64 97.5298 46.7467 97.5298 46.96V57.68C97.5298 57.8933 97.4231 58 97.2098 58H96.8738C96.6604 58 96.5538 57.8933 96.5538 57.68V56.64C96.2658 57.1413 95.8871 57.5253 95.4178 57.792C94.9484 58.0587 94.3938 58.192 93.7538 58.192C93.0818 58.192 92.4844 58.0213 91.9618 57.68C91.4391 57.328 91.0284 56.8427 90.7298 56.224C90.4311 55.5947 90.2818 54.8747 90.2818 54.064C90.2818 53.2533 90.4311 52.5387 90.7298 51.92C91.0391 51.2907 91.4604 50.8053 91.9938 50.464C92.5271 50.112 93.1244 49.936 93.7858 49.936C95.0018 49.936 95.8978 50.3893 96.4738 51.296V46.96ZM93.8338 57.296C94.6338 57.296 95.2791 57.0133 95.7698 56.448C96.2711 55.872 96.5218 55.0773 96.5218 54.064C96.5218 53.0613 96.2711 52.272 95.7698 51.696C95.2791 51.12 94.6338 50.832 93.8338 50.832C93.0978 50.832 92.5004 51.1307 92.0418 51.728C91.5938 52.3253 91.3698 53.104 91.3698 54.064C91.3698 55.0347 91.5938 55.8187 92.0418 56.416C92.4898 57.0027 93.0871 57.296 93.8338 57.296ZM105.647 56.128C105.721 56.0533 105.801 56.016 105.887 56.016C105.961 56.016 106.031 56.048 106.095 56.112L106.303 56.304C106.377 56.3787 106.415 56.4587 106.415 56.544C106.415 56.608 106.383 56.6827 106.319 56.768C105.796 57.2907 105.289 57.664 104.799 57.888C104.308 58.1013 103.759 58.208 103.151 58.208C102.383 58.208 101.716 58.0373 101.151 57.696C100.585 57.3547 100.148 56.88 99.8388 56.272C99.5294 55.6533 99.3748 54.9387 99.3748 54.128C99.3748 53.3067 99.5241 52.5813 99.8228 51.952C100.132 51.312 100.564 50.816 101.119 50.464C101.673 50.1013 102.313 49.92 103.039 49.92C104.116 49.92 104.964 50.256 105.583 50.928C106.201 51.6 106.511 52.5067 106.511 53.648V53.84C106.5 53.936 106.463 54.0107 106.399 54.064C106.345 54.1173 106.271 54.144 106.175 54.144H100.447C100.479 55.04 100.713 55.7973 101.151 56.416C101.599 57.024 102.265 57.328 103.151 57.328C103.631 57.328 104.052 57.2427 104.415 57.072C104.788 56.8907 105.199 56.576 105.647 56.128ZM103.039 50.8C102.335 50.8 101.753 51.0187 101.295 51.456C100.847 51.8827 100.575 52.512 100.479 53.344H105.455C105.433 52.5653 105.209 51.9467 104.783 51.488C104.356 51.0293 103.775 50.8 103.039 50.8ZM108.739 58C108.525 58 108.419 57.8933 108.419 57.68V46.96C108.419 46.7467 108.525 46.64 108.739 46.64H109.155C109.368 46.64 109.475 46.7467 109.475 46.96V57.68C109.475 57.8933 109.368 58 109.155 58H108.739ZM123.719 57.616C123.762 57.6693 123.783 57.728 123.783 57.792C123.783 57.9307 123.693 58 123.511 58H122.967C122.797 58 122.663 57.9307 122.567 57.792L119.271 52.848L115.975 57.792C115.879 57.9307 115.746 58 115.575 58H115.015C114.834 58 114.743 57.9307 114.743 57.792C114.743 57.728 114.765 57.6693 114.807 57.616L118.583 52.048L115.175 47.024C115.133 46.9707 115.111 46.912 115.111 46.848C115.111 46.7093 115.202 46.64 115.383 46.64H115.943C116.103 46.64 116.231 46.7093 116.327 46.848L119.303 51.28L122.231 46.848C122.327 46.7093 122.461 46.64 122.631 46.64H123.175C123.357 46.64 123.447 46.7093 123.447 46.848C123.447 46.912 123.426 46.9707 123.383 47.024L119.975 52.048L123.719 57.616ZM132.428 46.848C132.502 46.7093 132.63 46.64 132.812 46.64H133.356C133.537 46.64 133.628 46.7093 133.628 46.848C133.628 46.912 133.606 46.9707 133.564 47.024L129.772 53.12V57.68C129.772 57.8933 129.665 58 129.452 58H128.956C128.742 58 128.636 57.8933 128.636 57.68V53.104L124.876 47.024C124.833 46.9707 124.812 46.912 124.812 46.848C124.812 46.7093 124.902 46.64 125.084 46.64H125.644C125.825 46.64 125.953 46.7093 126.028 46.848L129.228 52.112L132.428 46.848ZM142.958 46.64C143.171 46.64 143.278 46.7467 143.278 46.96V47.296C143.278 47.4453 143.235 47.5787 143.15 47.696L136.078 57.056H142.926C143.139 57.056 143.246 57.1627 143.246 57.376V57.68C143.246 57.8933 143.139 58 142.926 58H135.054C134.84 58 134.734 57.8933 134.734 57.68V57.344C134.734 57.1947 134.776 57.0613 134.862 56.944L141.934 47.584H135.39C135.176 47.584 135.07 47.4773 135.07 47.264V46.96C135.07 46.7467 135.176 46.64 135.39 46.64H142.958ZM152.057 58.208C151.321 58.208 150.665 58.032 150.089 57.68C149.513 57.328 149.065 56.8427 148.745 56.224C148.425 55.5947 148.265 54.8747 148.265 54.064C148.265 53.2533 148.425 52.5387 148.745 51.92C149.065 51.2907 149.513 50.8 150.089 50.448C150.665 50.096 151.321 49.92 152.057 49.92C152.793 49.92 153.449 50.096 154.025 50.448C154.601 50.8 155.049 51.2907 155.369 51.92C155.689 52.5387 155.849 53.2533 155.849 54.064C155.849 54.8747 155.689 55.5947 155.369 56.224C155.049 56.8427 154.601 57.328 154.025 57.68C153.449 58.032 152.793 58.208 152.057 58.208ZM152.057 57.328C152.879 57.328 153.535 57.0293 154.025 56.432C154.516 55.824 154.761 55.0347 154.761 54.064C154.761 53.0933 154.516 52.3093 154.025 51.712C153.535 51.104 152.879 50.8 152.057 50.8C151.236 50.8 150.58 51.104 150.089 51.712C149.599 52.3093 149.353 53.0933 149.353 54.064C149.353 55.0347 149.599 55.824 150.089 56.432C150.58 57.0293 151.236 57.328 152.057 57.328ZM161.204 49.92C162.132 49.92 162.831 50.176 163.3 50.688C163.78 51.2 164.02 51.84 164.02 52.608V57.68C164.02 57.8933 163.913 58 163.7 58H163.284C163.071 58 162.964 57.8933 162.964 57.68V52.96C162.964 52.256 162.793 51.7227 162.452 51.36C162.111 50.9973 161.62 50.816 160.98 50.816C160.575 50.816 160.201 50.9173 159.86 51.12C159.519 51.312 159.247 51.5787 159.044 51.92C158.841 52.2613 158.74 52.6347 158.74 53.04V57.68C158.74 57.8933 158.633 58 158.42 58H158.004C157.791 58 157.684 57.8933 157.684 57.68V50.432C157.684 50.2187 157.791 50.112 158.004 50.112H158.356C158.569 50.112 158.676 50.2187 158.676 50.432V51.2C158.943 50.7733 159.295 50.4533 159.732 50.24C160.169 50.0267 160.66 49.92 161.204 49.92ZM166.692 58C166.479 58 166.372 57.8933 166.372 57.68V46.96C166.372 46.7467 166.479 46.64 166.692 46.64H167.108C167.321 46.64 167.428 46.7467 167.428 46.96V57.68C167.428 57.8933 167.321 58 167.108 58H166.692ZM174.705 50.368C174.769 50.1973 174.892 50.112 175.073 50.112H175.505C175.59 50.112 175.66 50.1333 175.713 50.176C175.766 50.2187 175.793 50.2773 175.793 50.352L175.761 50.48L172.673 59.2C172.502 59.68 172.337 60.0533 172.177 60.32C172.017 60.5867 171.798 60.7893 171.521 60.928C171.254 61.0667 170.902 61.136 170.465 61.136C170.188 61.136 169.942 61.1147 169.729 61.072C169.622 61.0613 169.548 61.0187 169.505 60.944C169.473 60.8693 169.468 60.784 169.489 60.688L169.537 60.48C169.58 60.288 169.702 60.2027 169.905 60.224C170.097 60.256 170.262 60.272 170.401 60.272C170.742 60.272 171.009 60.176 171.201 59.984C171.404 59.792 171.596 59.4293 171.777 58.896L171.921 58.448L169.105 50.48L169.073 50.352C169.073 50.2773 169.1 50.2187 169.153 50.176C169.206 50.1333 169.276 50.112 169.361 50.112H169.825C169.996 50.112 170.113 50.1973 170.177 50.368L171.073 53.008C171.158 53.2747 171.372 53.9093 171.713 54.912L172.433 57.072C172.785 56.08 173.249 54.7147 173.825 52.976L174.705 50.368Z" fill="#464646"/>
<rect x="43" y="84" width="16" height="16" rx="8" fill="#0063FB"/>
<rect x="47.2666" y="88.2667" width="7.46667" height="7.46667" rx="3.73333" fill="white"/>
<path d="M77.304 86.896C77.368 86.7253 77.4907 86.64 77.672 86.64H78.92C79.1333 86.64 79.24 86.7467 79.24 86.96V97.68C79.24 97.8933 79.1333 98 78.92 98H78.456C78.2427 98 78.136 97.8933 78.136 97.68V92.368C78.136 91.2267 78.1467 89.5787 78.168 87.424C77.7307 88.672 77.1333 90.32 76.376 92.368L74.408 97.744C74.344 97.9147 74.2213 98 74.04 98H73.576C73.3947 98 73.272 97.9147 73.208 97.744L71.192 92.352C70.7653 91.2427 70.1733 89.6 69.416 87.424C69.4373 89.5787 69.448 91.232 69.448 92.384V97.68C69.448 97.8933 69.3413 98 69.128 98H68.696C68.4827 98 68.376 97.8933 68.376 97.68V86.96C68.376 86.7467 68.4827 86.64 68.696 86.64H69.928C70.1093 86.64 70.232 86.7253 70.296 86.896L72.12 91.808C72.9627 94.1013 73.528 95.7173 73.816 96.656C74.0827 95.76 74.5413 94.4213 75.192 92.64C75.2347 92.5227 75.2827 92.3947 75.336 92.256C75.3893 92.1173 75.4427 91.968 75.496 91.808L77.304 86.896ZM85.0574 98.208C84.3214 98.208 83.6654 98.032 83.0894 97.68C82.5134 97.328 82.0654 96.8427 81.7454 96.224C81.4254 95.5947 81.2654 94.8747 81.2654 94.064C81.2654 93.2533 81.4254 92.5387 81.7454 91.92C82.0654 91.2907 82.5134 90.8 83.0894 90.448C83.6654 90.096 84.3214 89.92 85.0574 89.92C85.7934 89.92 86.4494 90.096 87.0254 90.448C87.6014 90.8 88.0494 91.2907 88.3694 91.92C88.6894 92.5387 88.8494 93.2533 88.8494 94.064C88.8494 94.8747 88.6894 95.5947 88.3694 96.224C88.0494 96.8427 87.6014 97.328 87.0254 97.68C86.4494 98.032 85.7934 98.208 85.0574 98.208ZM85.0574 97.328C85.8787 97.328 86.5347 97.0293 87.0254 96.432C87.516 95.824 87.7614 95.0347 87.7614 94.064C87.7614 93.0933 87.516 92.3093 87.0254 91.712C86.5347 91.104 85.8787 90.8 85.0574 90.8C84.236 90.8 83.58 91.104 83.0894 91.712C82.5987 92.3093 82.3534 93.0933 82.3534 94.064C82.3534 95.0347 82.5987 95.824 83.0894 96.432C83.58 97.0293 84.236 97.328 85.0574 97.328ZM96.4738 86.96C96.4738 86.7467 96.5804 86.64 96.7938 86.64H97.2098C97.4231 86.64 97.5298 86.7467 97.5298 86.96V97.68C97.5298 97.8933 97.4231 98 97.2098 98H96.8738C96.6604 98 96.5538 97.8933 96.5538 97.68V96.64C96.2658 97.1413 95.8871 97.5253 95.4178 97.792C94.9484 98.0587 94.3938 98.192 93.7538 98.192C93.0818 98.192 92.4844 98.0213 91.9618 97.68C91.4391 97.328 91.0284 96.8427 90.7298 96.224C90.4311 95.5947 90.2818 94.8747 90.2818 94.064C90.2818 93.2533 90.4311 92.5387 90.7298 91.92C91.0391 91.2907 91.4604 90.8053 91.9938 90.464C92.5271 90.112 93.1244 89.936 93.7858 89.936C95.0018 89.936 95.8978 90.3893 96.4738 91.296V86.96ZM93.8338 97.296C94.6338 97.296 95.2791 97.0133 95.7698 96.448C96.2711 95.872 96.5218 95.0773 96.5218 94.064C96.5218 93.0613 96.2711 92.272 95.7698 91.696C95.2791 91.12 94.6338 90.832 93.8338 90.832C93.0978 90.832 92.5004 91.1307 92.0418 91.728C91.5938 92.3253 91.3698 93.104 91.3698 94.064C91.3698 95.0347 91.5938 95.8187 92.0418 96.416C92.4898 97.0027 93.0871 97.296 93.8338 97.296ZM105.647 96.128C105.721 96.0533 105.801 96.016 105.887 96.016C105.961 96.016 106.031 96.048 106.095 96.112L106.303 96.304C106.377 96.3787 106.415 96.4587 106.415 96.544C106.415 96.608 106.383 96.6827 106.319 96.768C105.796 97.2907 105.289 97.664 104.799 97.888C104.308 98.1013 103.759 98.208 103.151 98.208C102.383 98.208 101.716 98.0373 101.151 97.696C100.585 97.3547 100.148 96.88 99.8388 96.272C99.5294 95.6533 99.3748 94.9387 99.3748 94.128C99.3748 93.3067 99.5241 92.5813 99.8228 91.952C100.132 91.312 100.564 90.816 101.119 90.464C101.673 90.1013 102.313 89.92 103.039 89.92C104.116 89.92 104.964 90.256 105.583 90.928C106.201 91.6 106.511 92.5067 106.511 93.648V93.84C106.5 93.936 106.463 94.0107 106.399 94.064C106.345 94.1173 106.271 94.144 106.175 94.144H100.447C100.479 95.04 100.713 95.7973 101.151 96.416C101.599 97.024 102.265 97.328 103.151 97.328C103.631 97.328 104.052 97.2427 104.415 97.072C104.788 96.8907 105.199 96.576 105.647 96.128ZM103.039 90.8C102.335 90.8 101.753 91.0187 101.295 91.456C100.847 91.8827 100.575 92.512 100.479 93.344H105.455C105.433 92.5653 105.209 91.9467 104.783 91.488C104.356 91.0293 103.775 90.8 103.039 90.8ZM108.739 98C108.525 98 108.419 97.8933 108.419 97.68V86.96C108.419 86.7467 108.525 86.64 108.739 86.64H109.155C109.368 86.64 109.475 86.7467 109.475 86.96V97.68C109.475 97.8933 109.368 98 109.155 98H108.739ZM123.719 97.616C123.762 97.6693 123.783 97.728 123.783 97.792C123.783 97.9307 123.693 98 123.511 98H122.967C122.797 98 122.663 97.9307 122.567 97.792L119.271 92.848L115.975 97.792C115.879 97.9307 115.746 98 115.575 98H115.015C114.834 98 114.743 97.9307 114.743 97.792C114.743 97.728 114.765 97.6693 114.807 97.616L118.583 92.048L115.175 87.024C115.133 86.9707 115.111 86.912 115.111 86.848C115.111 86.7093 115.202 86.64 115.383 86.64H115.943C116.103 86.64 116.231 86.7093 116.327 86.848L119.303 91.28L122.231 86.848C122.327 86.7093 122.461 86.64 122.631 86.64H123.175C123.357 86.64 123.447 86.7093 123.447 86.848C123.447 86.912 123.426 86.9707 123.383 87.024L119.975 92.048L123.719 97.616ZM132.428 86.848C132.502 86.7093 132.63 86.64 132.812 86.64H133.356C133.537 86.64 133.628 86.7093 133.628 86.848C133.628 86.912 133.606 86.9707 133.564 87.024L129.772 93.12V97.68C129.772 97.8933 129.665 98 129.452 98H128.956C128.742 98 128.636 97.8933 128.636 97.68V93.104L124.876 87.024C124.833 86.9707 124.812 86.912 124.812 86.848C124.812 86.7093 124.902 86.64 125.084 86.64H125.644C125.825 86.64 125.953 86.7093 126.028 86.848L129.228 92.112L132.428 86.848ZM142.958 86.64C143.171 86.64 143.278 86.7467 143.278 86.96V87.296C143.278 87.4453 143.235 87.5787 143.15 87.696L136.078 97.056H142.926C143.139 97.056 143.246 97.1627 143.246 97.376V97.68C143.246 97.8933 143.139 98 142.926 98H135.054C134.84 98 134.734 97.8933 134.734 97.68V97.344C134.734 97.1947 134.776 97.0613 134.862 96.944L141.934 87.584H135.39C135.176 87.584 135.07 87.4773 135.07 87.264V86.96C135.07 86.7467 135.176 86.64 135.39 86.64H142.958ZM157.593 90.384C157.636 90.2027 157.759 90.112 157.961 90.112H158.393C158.511 90.112 158.591 90.144 158.633 90.208C158.687 90.272 158.697 90.3573 158.665 90.464L156.601 97.728C156.559 97.9093 156.436 98 156.233 98H155.513C155.332 98 155.215 97.9093 155.161 97.728L154.425 95.28C154.041 94 153.684 92.688 153.353 91.344C153.033 92.6453 152.681 93.968 152.297 95.312L151.593 97.728C151.551 97.9093 151.428 98 151.225 98H150.537C150.335 98 150.212 97.9093 150.169 97.728L148.105 90.464C148.095 90.4427 148.089 90.4053 148.089 90.352C148.089 90.2773 148.116 90.2187 148.169 90.176C148.223 90.1333 148.292 90.112 148.377 90.112H148.809C149.012 90.112 149.135 90.2027 149.177 90.384L149.945 93.216C150.297 94.5067 150.623 95.792 150.921 97.072C151.156 96.1227 151.503 94.8373 151.961 93.216L152.777 90.384C152.82 90.2027 152.943 90.112 153.145 90.112H153.625C153.817 90.112 153.935 90.2027 153.977 90.384L154.809 93.216C155.172 94.528 155.513 95.8187 155.833 97.088C156.079 96.0213 156.409 94.7307 156.825 93.216L157.593 90.384ZM160.868 88.112C160.655 88.112 160.474 88.0373 160.324 87.888C160.186 87.7387 160.116 87.5573 160.116 87.344C160.116 87.1307 160.186 86.9547 160.324 86.816C160.474 86.6773 160.655 86.608 160.868 86.608C161.092 86.608 161.274 86.6773 161.412 86.816C161.562 86.9547 161.636 87.1307 161.636 87.344C161.636 87.5573 161.562 87.7387 161.412 87.888C161.274 88.0373 161.092 88.112 160.868 88.112ZM160.66 98C160.447 98 160.34 97.8933 160.34 97.68V90.432C160.34 90.2187 160.447 90.112 160.66 90.112H161.076C161.29 90.112 161.396 90.2187 161.396 90.432V97.68C161.396 97.8933 161.29 98 161.076 98H160.66ZM167.299 97.12C167.331 97.1093 167.373 97.104 167.427 97.104C167.491 97.104 167.549 97.1253 167.603 97.168C167.656 97.2107 167.688 97.2693 167.699 97.344L167.747 97.568C167.757 97.5893 167.763 97.6267 167.763 97.68C167.763 97.8293 167.683 97.92 167.523 97.952C167.139 98.0693 166.728 98.128 166.291 98.128C165.597 98.128 165.101 97.9733 164.803 97.664C164.515 97.344 164.371 96.8853 164.371 96.288V90.912H163.187C162.973 90.912 162.867 90.8053 162.867 90.592V90.432C162.867 90.2187 162.973 90.112 163.187 90.112H164.371V87.68C164.371 87.4667 164.477 87.36 164.691 87.36H165.107C165.32 87.36 165.427 87.4667 165.427 87.68V90.112H167.347C167.56 90.112 167.667 90.2187 167.667 90.432V90.592C167.667 90.8053 167.56 90.912 167.347 90.912H165.427V96.16C165.427 96.5547 165.501 96.832 165.651 96.992C165.8 97.152 166.056 97.232 166.419 97.232C166.675 97.232 166.968 97.1947 167.299 97.12ZM172.798 89.92C173.715 89.92 174.414 90.1813 174.894 90.704C175.374 91.216 175.614 91.8507 175.614 92.608V97.68C175.614 97.8933 175.507 98 175.294 98H174.878C174.664 98 174.558 97.8933 174.558 97.68V92.96C174.558 92.256 174.387 91.7227 174.046 91.36C173.704 90.9973 173.214 90.816 172.574 90.816C172.168 90.816 171.795 90.9173 171.454 91.12C171.112 91.312 170.84 91.5787 170.638 91.92C170.435 92.2613 170.334 92.6347 170.334 93.04V97.68C170.334 97.8933 170.227 98 170.014 98H169.598C169.384 98 169.278 97.8933 169.278 97.68V86.96C169.278 86.7467 169.384 86.64 169.598 86.64H170.014C170.227 86.64 170.334 86.7467 170.334 86.96V91.136C170.59 90.7307 170.931 90.4267 171.358 90.224C171.795 90.0213 172.275 89.92 172.798 89.92ZM184.389 98.208C183.738 98.208 183.162 98.1173 182.661 97.936C182.17 97.744 181.653 97.424 181.109 96.976C181.013 96.912 180.965 96.8373 180.965 96.752C180.965 96.6773 181.002 96.6027 181.077 96.528L181.285 96.304C181.349 96.2187 181.429 96.176 181.525 96.176C181.6 96.176 181.669 96.208 181.733 96.272C182.245 96.6667 182.698 96.944 183.093 97.104C183.488 97.2533 183.92 97.328 184.389 97.328C184.976 97.328 185.456 97.2 185.829 96.944C186.202 96.6773 186.389 96.32 186.389 95.872C186.389 95.424 186.197 95.0933 185.813 94.88C185.429 94.6667 184.837 94.4747 184.037 94.304C183.333 94.1547 182.778 94 182.373 93.84C181.978 93.6693 181.685 93.456 181.493 93.2C181.301 92.944 181.205 92.608 181.205 92.192C181.205 91.5093 181.482 90.96 182.037 90.544C182.592 90.128 183.29 89.92 184.133 89.92C184.709 89.92 185.221 89.9947 185.669 90.144C186.128 90.2827 186.586 90.5173 187.045 90.848C187.141 90.9227 187.189 91.0027 187.189 91.088C187.189 91.1413 187.162 91.2107 187.109 91.296L186.917 91.536C186.864 91.6213 186.789 91.664 186.693 91.664C186.608 91.664 186.533 91.6373 186.469 91.584C186.032 91.2747 185.642 91.0667 185.301 90.96C184.97 90.8533 184.592 90.8 184.165 90.8C183.578 90.8 183.109 90.928 182.757 91.184C182.405 91.44 182.229 91.7653 182.229 92.16C182.229 92.4053 182.309 92.6027 182.469 92.752C182.629 92.9013 182.858 93.0293 183.157 93.136C183.456 93.232 183.893 93.344 184.469 93.472C185.536 93.7067 186.293 93.9947 186.741 94.336C187.2 94.6773 187.429 95.1733 187.429 95.824C187.429 96.5387 187.146 97.1147 186.581 97.552C186.016 97.9893 185.285 98.208 184.389 98.208ZM192.991 89.936C193.653 89.936 194.245 90.112 194.767 90.464C195.301 90.8053 195.717 91.2907 196.015 91.92C196.314 92.5387 196.463 93.248 196.463 94.048C196.463 94.8587 196.314 95.5787 196.015 96.208C195.717 96.8373 195.306 97.328 194.783 97.68C194.261 98.0213 193.663 98.192 192.991 98.192C191.754 98.192 190.847 97.7387 190.271 96.832V100.624C190.271 100.837 190.165 100.944 189.951 100.944H189.535C189.322 100.944 189.215 100.837 189.215 100.624V90.432C189.215 90.2187 189.322 90.112 189.535 90.112H189.887C190.101 90.112 190.207 90.2187 190.207 90.432V91.44C190.495 90.9493 190.874 90.576 191.343 90.32C191.813 90.064 192.362 89.936 192.991 89.936ZM192.911 97.296C193.658 97.296 194.255 96.9973 194.703 96.4C195.151 95.8027 195.375 95.0187 195.375 94.048C195.375 93.088 195.151 92.3147 194.703 91.728C194.255 91.1307 193.658 90.832 192.911 90.832C192.111 90.832 191.461 91.12 190.959 91.696C190.469 92.2613 190.223 93.0453 190.223 94.048C190.223 95.0507 190.474 95.8453 190.975 96.432C191.477 97.008 192.122 97.296 192.911 97.296ZM201.38 89.92C202.351 89.92 203.108 90.1547 203.652 90.624C204.196 91.0827 204.468 91.6907 204.468 92.448V97.68C204.468 97.8933 204.362 98 204.148 98H203.828C203.615 98 203.508 97.8933 203.508 97.68V96.96C203.242 97.3867 202.863 97.7067 202.372 97.92C201.892 98.1333 201.354 98.24 200.756 98.24C199.924 98.24 199.247 98.064 198.724 97.712C198.202 97.36 197.94 96.816 197.94 96.08C197.94 95.4933 198.106 95.024 198.436 94.672C198.767 94.3093 199.199 94.0373 199.732 93.856C200.266 93.664 200.932 93.4933 201.732 93.344L203.46 93.04V92.528C203.46 91.984 203.274 91.5627 202.9 91.264C202.527 90.9547 202.036 90.8 201.428 90.8C200.97 90.8 200.554 90.8853 200.18 91.056C199.807 91.2267 199.407 91.52 198.98 91.936C198.906 92.0107 198.826 92.048 198.74 92.048C198.666 92.048 198.596 92.016 198.532 91.952L198.324 91.76C198.25 91.6853 198.212 91.6053 198.212 91.52C198.212 91.424 198.25 91.3387 198.324 91.264C198.772 90.7947 199.242 90.4533 199.732 90.24C200.234 90.0267 200.783 89.92 201.38 89.92ZM200.804 97.36C201.572 97.36 202.207 97.1573 202.708 96.752C203.21 96.3467 203.46 95.8293 203.46 95.2V93.856L201.972 94.144C201.279 94.2827 200.73 94.416 200.324 94.544C199.919 94.672 199.594 94.8587 199.348 95.104C199.103 95.3493 198.98 95.6693 198.98 96.064C198.98 96.4693 199.14 96.7893 199.46 97.024C199.791 97.248 200.239 97.36 200.804 97.36ZM209.753 90.048C210.02 90.048 210.334 90.0907 210.697 90.176C210.889 90.24 210.964 90.3733 210.921 90.576L210.857 90.832C210.804 91.0347 210.67 91.1093 210.457 91.056C210.201 90.992 209.966 90.96 209.753 90.96C209.209 90.96 208.756 91.1947 208.393 91.664C208.041 92.1333 207.865 92.784 207.865 93.616V97.68C207.865 97.8933 207.758 98 207.545 98H207.129C206.916 98 206.809 97.8933 206.809 97.68V90.432C206.809 90.2187 206.916 90.112 207.129 90.112H207.481C207.694 90.112 207.801 90.2187 207.801 90.432V91.312C207.982 90.9173 208.238 90.608 208.569 90.384C208.91 90.16 209.305 90.048 209.753 90.048ZM217.662 96.128C217.737 96.0533 217.817 96.016 217.902 96.016C217.977 96.016 218.046 96.048 218.11 96.112L218.318 96.304C218.393 96.3787 218.43 96.4587 218.43 96.544C218.43 96.608 218.398 96.6827 218.334 96.768C217.812 97.2907 217.305 97.664 216.814 97.888C216.324 98.1013 215.774 98.208 215.166 98.208C214.398 98.208 213.732 98.0373 213.166 97.696C212.601 97.3547 212.164 96.88 211.854 96.272C211.545 95.6533 211.39 94.9387 211.39 94.128C211.39 93.3067 211.54 92.5813 211.838 91.952C212.148 91.312 212.58 90.816 213.134 90.464C213.689 90.1013 214.329 89.92 215.054 89.92C216.132 89.92 216.98 90.256 217.598 90.928C218.217 91.6 218.526 92.5067 218.526 93.648V93.84C218.516 93.936 218.478 94.0107 218.414 94.064C218.361 94.1173 218.286 94.144 218.19 94.144H212.462C212.494 95.04 212.729 95.7973 213.166 96.416C213.614 97.024 214.281 97.328 215.166 97.328C215.646 97.328 216.068 97.2427 216.43 97.072C216.804 96.8907 217.214 96.576 217.662 96.128ZM215.054 90.8C214.35 90.8 213.769 91.0187 213.31 91.456C212.862 91.8827 212.59 92.512 212.494 93.344H217.47C217.449 92.5653 217.225 91.9467 216.798 91.488C216.372 91.0293 215.79 90.8 215.054 90.8ZM232.906 90.384C232.949 90.2027 233.071 90.112 233.274 90.112H233.706C233.823 90.112 233.903 90.144 233.946 90.208C233.999 90.272 234.01 90.3573 233.978 90.464L231.914 97.728C231.871 97.9093 231.749 98 231.546 98H230.826C230.645 98 230.527 97.9093 230.474 97.728L229.738 95.28C229.354 94 228.997 92.688 228.666 91.344C228.346 92.6453 227.994 93.968 227.61 95.312L226.906 97.728C226.863 97.9093 226.741 98 226.538 98H225.85C225.647 98 225.525 97.9093 225.482 97.728L223.418 90.464C223.407 90.4427 223.402 90.4053 223.402 90.352C223.402 90.2773 223.429 90.2187 223.482 90.176C223.535 90.1333 223.605 90.112 223.69 90.112H224.122C224.325 90.112 224.447 90.2027 224.49 90.384L225.258 93.216C225.61 94.5067 225.935 95.792 226.234 97.072C226.469 96.1227 226.815 94.8373 227.274 93.216L228.09 90.384C228.133 90.2027 228.255 90.112 228.458 90.112H228.938C229.13 90.112 229.247 90.2027 229.29 90.384L230.122 93.216C230.485 94.528 230.826 95.8187 231.146 97.088C231.391 96.0213 231.722 94.7307 232.138 93.216L232.906 90.384ZM239.173 89.92C240.09 89.92 240.789 90.1813 241.269 90.704C241.749 91.216 241.989 91.8507 241.989 92.608V97.68C241.989 97.8933 241.882 98 241.669 98H241.253C241.039 98 240.933 97.8933 240.933 97.68V92.96C240.933 92.256 240.762 91.7227 240.421 91.36C240.079 90.9973 239.589 90.816 238.949 90.816C238.543 90.816 238.17 90.9173 237.829 91.12C237.487 91.312 237.215 91.5787 237.013 91.92C236.81 92.2613 236.709 92.6347 236.709 93.04V97.68C236.709 97.8933 236.602 98 236.389 98H235.973C235.759 98 235.653 97.8933 235.653 97.68V86.96C235.653 86.7467 235.759 86.64 235.973 86.64H236.389C236.602 86.64 236.709 86.7467 236.709 86.96V91.136C236.965 90.7307 237.306 90.4267 237.733 90.224C238.17 90.0213 238.65 89.92 239.173 89.92ZM250.069 96.128C250.143 96.0533 250.223 96.016 250.309 96.016C250.383 96.016 250.453 96.048 250.517 96.112L250.725 96.304C250.799 96.3787 250.837 96.4587 250.837 96.544C250.837 96.608 250.805 96.6827 250.741 96.768C250.218 97.2907 249.711 97.664 249.221 97.888C248.73 98.1013 248.181 98.208 247.573 98.208C246.805 98.208 246.138 98.0373 245.573 97.696C245.007 97.3547 244.57 96.88 244.261 96.272C243.951 95.6533 243.797 94.9387 243.797 94.128C243.797 93.3067 243.946 92.5813 244.245 91.952C244.554 91.312 244.986 90.816 245.541 90.464C246.095 90.1013 246.735 89.92 247.461 89.92C248.538 89.92 249.386 90.256 250.005 90.928C250.623 91.6 250.933 92.5067 250.933 93.648V93.84C250.922 93.936 250.885 94.0107 250.821 94.064C250.767 94.1173 250.693 94.144 250.597 94.144H244.869C244.901 95.04 245.135 95.7973 245.573 96.416C246.021 97.024 246.687 97.328 247.573 97.328C248.053 97.328 248.474 97.2427 248.837 97.072C249.21 96.8907 249.621 96.576 250.069 96.128ZM247.461 90.8C246.757 90.8 246.175 91.0187 245.717 91.456C245.269 91.8827 244.997 92.512 244.901 93.344H249.877C249.855 92.5653 249.631 91.9467 249.205 91.488C248.778 91.0293 248.197 90.8 247.461 90.8ZM258.584 96.128C258.659 96.0533 258.739 96.016 258.824 96.016C258.899 96.016 258.968 96.048 259.032 96.112L259.24 96.304C259.315 96.3787 259.352 96.4587 259.352 96.544C259.352 96.608 259.32 96.6827 259.256 96.768C258.734 97.2907 258.227 97.664 257.736 97.888C257.246 98.1013 256.696 98.208 256.088 98.208C255.32 98.208 254.654 98.0373 254.088 97.696C253.523 97.3547 253.086 96.88 252.776 96.272C252.467 95.6533 252.312 94.9387 252.312 94.128C252.312 93.3067 252.462 92.5813 252.76 91.952C253.07 91.312 253.502 90.816 254.056 90.464C254.611 90.1013 255.251 89.92 255.976 89.92C257.054 89.92 257.902 90.256 258.52 90.928C259.139 91.6 259.448 92.5067 259.448 93.648V93.84C259.438 93.936 259.4 94.0107 259.336 94.064C259.283 94.1173 259.208 94.144 259.112 94.144H253.384C253.416 95.04 253.651 95.7973 254.088 96.416C254.536 97.024 255.203 97.328 256.088 97.328C256.568 97.328 256.99 97.2427 257.352 97.072C257.726 96.8907 258.136 96.576 258.584 96.128ZM255.976 90.8C255.272 90.8 254.691 91.0187 254.232 91.456C253.784 91.8827 253.512 92.512 253.416 93.344H258.392C258.371 92.5653 258.147 91.9467 257.72 91.488C257.294 91.0293 256.712 90.8 255.976 90.8ZM261.676 98C261.463 98 261.356 97.8933 261.356 97.68V86.96C261.356 86.7467 261.463 86.64 261.676 86.64H262.092C262.306 86.64 262.412 86.7467 262.412 86.96V97.68C262.412 97.8933 262.306 98 262.092 98H261.676ZM267.545 98.208C266.895 98.208 266.319 98.1173 265.817 97.936C265.327 97.744 264.809 97.424 264.265 96.976C264.169 96.912 264.121 96.8373 264.121 96.752C264.121 96.6773 264.159 96.6027 264.233 96.528L264.441 96.304C264.505 96.2187 264.585 96.176 264.681 96.176C264.756 96.176 264.825 96.208 264.889 96.272C265.401 96.6667 265.855 96.944 266.249 97.104C266.644 97.2533 267.076 97.328 267.545 97.328C268.132 97.328 268.612 97.2 268.985 96.944C269.359 96.6773 269.545 96.32 269.545 95.872C269.545 95.424 269.353 95.0933 268.969 94.88C268.585 94.6667 267.993 94.4747 267.193 94.304C266.489 94.1547 265.935 94 265.529 93.84C265.135 93.6693 264.841 93.456 264.649 93.2C264.457 92.944 264.361 92.608 264.361 92.192C264.361 91.5093 264.639 90.96 265.193 90.544C265.748 90.128 266.447 89.92 267.289 89.92C267.865 89.92 268.377 89.9947 268.825 90.144C269.284 90.2827 269.743 90.5173 270.201 90.848C270.297 90.9227 270.345 91.0027 270.345 91.088C270.345 91.1413 270.319 91.2107 270.265 91.296L270.073 91.536C270.02 91.6213 269.945 91.664 269.849 91.664C269.764 91.664 269.689 91.6373 269.625 91.584C269.188 91.2747 268.799 91.0667 268.457 90.96C268.127 90.8533 267.748 90.8 267.321 90.8C266.735 90.8 266.265 90.928 265.913 91.184C265.561 91.44 265.385 91.7653 265.385 92.16C265.385 92.4053 265.465 92.6027 265.625 92.752C265.785 92.9013 266.015 93.0293 266.313 93.136C266.612 93.232 267.049 93.344 267.625 93.472C268.692 93.7067 269.449 93.9947 269.897 94.336C270.356 94.6773 270.585 95.1733 270.585 95.824C270.585 96.5387 270.303 97.1147 269.737 97.552C269.172 97.9893 268.441 98.208 267.545 98.208ZM279.099 89.92C280.07 89.92 280.827 90.1547 281.371 90.624C281.915 91.0827 282.187 91.6907 282.187 92.448V97.68C282.187 97.8933 282.08 98 281.867 98H281.547C281.334 98 281.227 97.8933 281.227 97.68V96.96C280.96 97.3867 280.582 97.7067 280.091 97.92C279.611 98.1333 279.072 98.24 278.475 98.24C277.643 98.24 276.966 98.064 276.443 97.712C275.92 97.36 275.659 96.816 275.659 96.08C275.659 95.4933 275.824 95.024 276.155 94.672C276.486 94.3093 276.918 94.0373 277.451 93.856C277.984 93.664 278.651 93.4933 279.451 93.344L281.179 93.04V92.528C281.179 91.984 280.992 91.5627 280.619 91.264C280.246 90.9547 279.755 90.8 279.147 90.8C278.688 90.8 278.272 90.8853 277.899 91.056C277.526 91.2267 277.126 91.52 276.699 91.936C276.624 92.0107 276.544 92.048 276.459 92.048C276.384 92.048 276.315 92.016 276.251 91.952L276.043 91.76C275.968 91.6853 275.931 91.6053 275.931 91.52C275.931 91.424 275.968 91.3387 276.043 91.264C276.491 90.7947 276.96 90.4533 277.451 90.24C277.952 90.0267 278.502 89.92 279.099 89.92ZM278.523 97.36C279.291 97.36 279.926 97.1573 280.427 96.752C280.928 96.3467 281.179 95.8293 281.179 95.2V93.856L279.691 94.144C278.998 94.2827 278.448 94.416 278.043 94.544C277.638 94.672 277.312 94.8587 277.067 95.104C276.822 95.3493 276.699 95.6693 276.699 96.064C276.699 96.4693 276.859 96.7893 277.179 97.024C277.51 97.248 277.958 97.36 278.523 97.36ZM288.048 89.92C288.976 89.92 289.674 90.176 290.144 90.688C290.624 91.2 290.864 91.84 290.864 92.608V97.68C290.864 97.8933 290.757 98 290.544 98H290.128C289.914 98 289.808 97.8933 289.808 97.68V92.96C289.808 92.256 289.637 91.7227 289.296 91.36C288.954 90.9973 288.464 90.816 287.824 90.816C287.418 90.816 287.045 90.9173 286.704 91.12C286.362 91.312 286.09 91.5787 285.888 91.92C285.685 92.2613 285.584 92.6347 285.584 93.04V97.68C285.584 97.8933 285.477 98 285.264 98H284.848C284.634 98 284.528 97.8933 284.528 97.68V90.432C284.528 90.2187 284.634 90.112 284.848 90.112H285.2C285.413 90.112 285.52 90.2187 285.52 90.432V91.2C285.786 90.7733 286.138 90.4533 286.576 90.24C287.013 90.0267 287.504 89.92 288.048 89.92ZM298.896 86.96C298.896 86.7467 299.002 86.64 299.216 86.64H299.632C299.845 86.64 299.952 86.7467 299.952 86.96V97.68C299.952 97.8933 299.845 98 299.632 98H299.296C299.082 98 298.976 97.8933 298.976 97.68V96.64C298.688 97.1413 298.309 97.5253 297.84 97.792C297.37 98.0587 296.816 98.192 296.176 98.192C295.504 98.192 294.906 98.0213 294.384 97.68C293.861 97.328 293.45 96.8427 293.152 96.224C292.853 95.5947 292.704 94.8747 292.704 94.064C292.704 93.2533 292.853 92.5387 293.152 91.92C293.461 91.2907 293.882 90.8053 294.416 90.464C294.949 90.112 295.546 89.936 296.208 89.936C297.424 89.936 298.32 90.3893 298.896 91.296V86.96ZM296.256 97.296C297.056 97.296 297.701 97.0133 298.192 96.448C298.693 95.872 298.944 95.0773 298.944 94.064C298.944 93.0613 298.693 92.272 298.192 91.696C297.701 91.12 297.056 90.832 296.256 90.832C295.52 90.832 294.922 91.1307 294.464 91.728C294.016 92.3253 293.792 93.104 293.792 94.064C293.792 95.0347 294.016 95.8187 294.464 96.416C294.912 97.0027 295.509 97.296 296.256 97.296ZM75.144 119.072C75.3573 119.072 75.464 119.179 75.464 119.392V119.68C75.464 119.893 75.3573 120 75.144 120H68.04C67.8267 120 67.72 119.893 67.72 119.68V119.616C67.72 118.837 67.8533 118.181 68.12 117.648C68.3973 117.104 68.7547 116.645 69.192 116.272C69.64 115.899 70.2533 115.472 71.032 114.992C71.1067 114.939 71.384 114.773 71.864 114.496C72.4293 114.176 72.872 113.899 73.192 113.664C73.512 113.429 73.7787 113.141 73.992 112.8C74.2053 112.448 74.312 112.037 74.312 111.568C74.312 110.853 74.072 110.304 73.592 109.92C73.112 109.536 72.5307 109.344 71.848 109.344C71.1867 109.344 70.6373 109.483 70.2 109.76C69.7627 110.037 69.256 110.517 68.68 111.2C68.6053 111.296 68.5147 111.344 68.408 111.344C68.3547 111.344 68.2907 111.317 68.216 111.264L67.944 111.056C67.848 110.971 67.8 110.885 67.8 110.8C67.8 110.747 67.8267 110.683 67.88 110.608C68.4453 109.893 69.032 109.349 69.64 108.976C70.2587 108.603 70.984 108.416 71.816 108.416C72.5093 108.416 73.128 108.549 73.672 108.816C74.216 109.072 74.6373 109.44 74.936 109.92C75.2453 110.389 75.4 110.923 75.4 111.52C75.4 112.149 75.2667 112.693 75 113.152C74.744 113.6 74.4187 113.973 74.024 114.272C73.6293 114.56 73.096 114.901 72.424 115.296L71.624 115.776C70.952 116.192 70.44 116.533 70.088 116.8C69.736 117.056 69.4427 117.371 69.208 117.744C68.9733 118.107 68.8347 118.549 68.792 119.072H75.144ZM84.7881 111.936C85.4601 111.936 86.0575 112.112 86.5801 112.464C87.1135 112.805 87.5241 113.291 87.8121 113.92C88.1108 114.539 88.2601 115.253 88.2601 116.064C88.2601 116.875 88.1108 117.595 87.8121 118.224C87.5135 118.843 87.0975 119.328 86.5641 119.68C86.0415 120.021 85.4495 120.192 84.7881 120.192C83.5188 120.192 82.5908 119.701 82.0041 118.72V119.68C82.0041 119.893 81.8975 120 81.6841 120H81.3321C81.1188 120 81.0121 119.893 81.0121 119.68V108.944C81.0121 108.731 81.1188 108.624 81.3321 108.624H81.7481C81.9615 108.624 82.0681 108.731 82.0681 108.944V113.36C82.6548 112.411 83.5615 111.936 84.7881 111.936ZM84.7081 119.296C85.4441 119.296 86.0361 118.997 86.4841 118.4C86.9428 117.803 87.1721 117.024 87.1721 116.064C87.1721 115.104 86.9428 114.325 86.4841 113.728C86.0361 113.131 85.4441 112.832 84.7081 112.832C83.9188 112.832 83.2735 113.12 82.7721 113.696C82.2708 114.272 82.0201 115.061 82.0201 116.064C82.0201 117.077 82.2655 117.872 82.7561 118.448C83.2575 119.013 83.9081 119.296 84.7081 119.296ZM93.1771 111.92C94.1478 111.92 94.9051 112.155 95.4491 112.624C95.9931 113.083 96.2651 113.691 96.2651 114.448V119.68C96.2651 119.893 96.1585 120 95.9451 120H95.6251C95.4118 120 95.3051 119.893 95.3051 119.68V118.96C95.0385 119.387 94.6598 119.707 94.1691 119.92C93.6891 120.133 93.1505 120.24 92.5531 120.24C91.7211 120.24 91.0438 120.064 90.5211 119.712C89.9985 119.36 89.7371 118.816 89.7371 118.08C89.7371 117.493 89.9025 117.024 90.2331 116.672C90.5638 116.309 90.9958 116.037 91.5291 115.856C92.0625 115.664 92.7291 115.493 93.5291 115.344L95.2571 115.04V114.528C95.2571 113.984 95.0705 113.563 94.6971 113.264C94.3238 112.955 93.8331 112.8 93.2251 112.8C92.7665 112.8 92.3505 112.885 91.9771 113.056C91.6038 113.227 91.2038 113.52 90.7771 113.936C90.7025 114.011 90.6225 114.048 90.5371 114.048C90.4625 114.048 90.3931 114.016 90.3291 113.952L90.1211 113.76C90.0465 113.685 90.0091 113.605 90.0091 113.52C90.0091 113.424 90.0465 113.339 90.1211 113.264C90.5691 112.795 91.0385 112.453 91.5291 112.24C92.0305 112.027 92.5798 111.92 93.1771 111.92ZM92.6011 119.36C93.3691 119.36 94.0038 119.157 94.5051 118.752C95.0065 118.347 95.2571 117.829 95.2571 117.2V115.856L93.7691 116.144C93.0758 116.283 92.5265 116.416 92.1211 116.544C91.7158 116.672 91.3905 116.859 91.1451 117.104C90.8998 117.349 90.7771 117.669 90.7771 118.064C90.7771 118.469 90.9371 118.789 91.2571 119.024C91.5878 119.248 92.0358 119.36 92.6011 119.36ZM101.939 119.12C101.971 119.109 102.014 119.104 102.067 119.104C102.131 119.104 102.19 119.125 102.243 119.168C102.296 119.211 102.328 119.269 102.339 119.344L102.387 119.568C102.398 119.589 102.403 119.627 102.403 119.68C102.403 119.829 102.323 119.92 102.163 119.952C101.779 120.069 101.368 120.128 100.931 120.128C100.238 120.128 99.7418 119.973 99.4431 119.664C99.1551 119.344 99.0111 118.885 99.0111 118.288V112.912H97.8271C97.6138 112.912 97.5071 112.805 97.5071 112.592V112.432C97.5071 112.219 97.6138 112.112 97.8271 112.112H99.0111V109.68C99.0111 109.467 99.1178 109.36 99.3311 109.36H99.7471C99.9605 109.36 100.067 109.467 100.067 109.68V112.112H101.987C102.2 112.112 102.307 112.219 102.307 112.432V112.592C102.307 112.805 102.2 112.912 101.987 112.912H100.067V118.16C100.067 118.555 100.142 118.832 100.291 118.992C100.44 119.152 100.696 119.232 101.059 119.232C101.315 119.232 101.608 119.195 101.939 119.12ZM107.502 119.12C107.534 119.109 107.576 119.104 107.63 119.104C107.694 119.104 107.752 119.125 107.806 119.168C107.859 119.211 107.891 119.269 107.902 119.344L107.95 119.568C107.96 119.589 107.966 119.627 107.966 119.68C107.966 119.829 107.886 119.92 107.726 119.952C107.342 120.069 106.931 120.128 106.494 120.128C105.8 120.128 105.304 119.973 105.006 119.664C104.718 119.344 104.574 118.885 104.574 118.288V112.912H103.39C103.176 112.912 103.07 112.805 103.07 112.592V112.432C103.07 112.219 103.176 112.112 103.39 112.112H104.574V109.68C104.574 109.467 104.68 109.36 104.894 109.36H105.31C105.523 109.36 105.63 109.467 105.63 109.68V112.112H107.55C107.763 112.112 107.87 112.219 107.87 112.432V112.592C107.87 112.805 107.763 112.912 107.55 112.912H105.63V118.16C105.63 118.555 105.704 118.832 105.854 118.992C106.003 119.152 106.259 119.232 106.622 119.232C106.878 119.232 107.171 119.195 107.502 119.12ZM114.928 118.128C115.003 118.053 115.083 118.016 115.168 118.016C115.243 118.016 115.312 118.048 115.376 118.112L115.584 118.304C115.659 118.379 115.696 118.459 115.696 118.544C115.696 118.608 115.664 118.683 115.6 118.768C115.077 119.291 114.571 119.664 114.08 119.888C113.589 120.101 113.04 120.208 112.432 120.208C111.664 120.208 110.997 120.037 110.432 119.696C109.867 119.355 109.429 118.88 109.12 118.272C108.811 117.653 108.656 116.939 108.656 116.128C108.656 115.307 108.805 114.581 109.104 113.952C109.413 113.312 109.845 112.816 110.4 112.464C110.955 112.101 111.595 111.92 112.32 111.92C113.397 111.92 114.245 112.256 114.864 112.928C115.483 113.6 115.792 114.507 115.792 115.648V115.84C115.781 115.936 115.744 116.011 115.68 116.064C115.627 116.117 115.552 116.144 115.456 116.144H109.728C109.76 117.04 109.995 117.797 110.432 118.416C110.88 119.024 111.547 119.328 112.432 119.328C112.912 119.328 113.333 119.243 113.696 119.072C114.069 118.891 114.48 118.576 114.928 118.128ZM112.32 112.8C111.616 112.8 111.035 113.019 110.576 113.456C110.128 113.883 109.856 114.512 109.76 115.344H114.736C114.715 114.565 114.491 113.947 114.064 113.488C113.637 113.029 113.056 112.8 112.32 112.8ZM120.628 112.048C120.895 112.048 121.209 112.091 121.572 112.176C121.764 112.24 121.839 112.373 121.796 112.576L121.732 112.832C121.679 113.035 121.545 113.109 121.332 113.056C121.076 112.992 120.841 112.96 120.628 112.96C120.084 112.96 119.631 113.195 119.268 113.664C118.916 114.133 118.74 114.784 118.74 115.616V119.68C118.74 119.893 118.633 120 118.42 120H118.004C117.791 120 117.684 119.893 117.684 119.68V112.432C117.684 112.219 117.791 112.112 118.004 112.112H118.356C118.569 112.112 118.676 112.219 118.676 112.432V113.312C118.857 112.917 119.113 112.608 119.444 112.384C119.785 112.16 120.18 112.048 120.628 112.048ZM123.759 110.112C123.546 110.112 123.364 110.037 123.215 109.888C123.076 109.739 123.007 109.557 123.007 109.344C123.007 109.131 123.076 108.955 123.215 108.816C123.364 108.677 123.546 108.608 123.759 108.608C123.983 108.608 124.164 108.677 124.303 108.816C124.452 108.955 124.527 109.131 124.527 109.344C124.527 109.557 124.452 109.739 124.303 109.888C124.164 110.037 123.983 110.112 123.759 110.112ZM123.551 120C123.338 120 123.231 119.893 123.231 119.68V112.432C123.231 112.219 123.338 112.112 123.551 112.112H123.967C124.18 112.112 124.287 112.219 124.287 112.432V119.68C124.287 119.893 124.18 120 123.967 120H123.551ZM132.381 118.128C132.456 118.053 132.536 118.016 132.621 118.016C132.696 118.016 132.765 118.048 132.829 118.112L133.037 118.304C133.112 118.379 133.149 118.459 133.149 118.544C133.149 118.608 133.117 118.683 133.053 118.768C132.53 119.291 132.024 119.664 131.533 119.888C131.042 120.101 130.493 120.208 129.885 120.208C129.117 120.208 128.45 120.037 127.885 119.696C127.32 119.355 126.882 118.88 126.573 118.272C126.264 117.653 126.109 116.939 126.109 116.128C126.109 115.307 126.258 114.581 126.557 113.952C126.866 113.312 127.298 112.816 127.853 112.464C128.408 112.101 129.048 111.92 129.773 111.92C130.85 111.92 131.698 112.256 132.317 112.928C132.936 113.6 133.245 114.507 133.245 115.648V115.84C133.234 115.936 133.197 116.011 133.133 116.064C133.08 116.117 133.005 116.144 132.909 116.144H127.181C127.213 117.04 127.448 117.797 127.885 118.416C128.333 119.024 129 119.328 129.885 119.328C130.365 119.328 130.786 119.243 131.149 119.072C131.522 118.891 131.933 118.576 132.381 118.128ZM129.773 112.8C129.069 112.8 128.488 113.019 128.029 113.456C127.581 113.883 127.309 114.512 127.213 115.344H132.189C132.168 114.565 131.944 113.947 131.517 113.488C131.09 113.029 130.509 112.8 129.773 112.8ZM137.952 120.208C137.301 120.208 136.725 120.117 136.224 119.936C135.733 119.744 135.216 119.424 134.672 118.976C134.576 118.912 134.528 118.837 134.528 118.752C134.528 118.677 134.565 118.603 134.64 118.528L134.848 118.304C134.912 118.219 134.992 118.176 135.088 118.176C135.162 118.176 135.232 118.208 135.296 118.272C135.808 118.667 136.261 118.944 136.656 119.104C137.05 119.253 137.482 119.328 137.952 119.328C138.538 119.328 139.018 119.2 139.392 118.944C139.765 118.677 139.952 118.32 139.952 117.872C139.952 117.424 139.76 117.093 139.376 116.88C138.992 116.667 138.4 116.475 137.6 116.304C136.896 116.155 136.341 116 135.936 115.84C135.541 115.669 135.248 115.456 135.056 115.2C134.864 114.944 134.768 114.608 134.768 114.192C134.768 113.509 135.045 112.96 135.6 112.544C136.154 112.128 136.853 111.92 137.696 111.92C138.272 111.92 138.784 111.995 139.232 112.144C139.69 112.283 140.149 112.517 140.608 112.848C140.704 112.923 140.752 113.003 140.752 113.088C140.752 113.141 140.725 113.211 140.672 113.296L140.48 113.536C140.426 113.621 140.352 113.664 140.256 113.664C140.17 113.664 140.096 113.637 140.032 113.584C139.594 113.275 139.205 113.067 138.864 112.96C138.533 112.853 138.154 112.8 137.728 112.8C137.141 112.8 136.672 112.928 136.32 113.184C135.968 113.44 135.792 113.765 135.792 114.16C135.792 114.405 135.872 114.603 136.032 114.752C136.192 114.901 136.421 115.029 136.72 115.136C137.018 115.232 137.456 115.344 138.032 115.472C139.098 115.707 139.856 115.995 140.304 116.336C140.762 116.677 140.992 117.173 140.992 117.824C140.992 118.539 140.709 119.115 140.144 119.552C139.578 119.989 138.848 120.208 137.952 120.208Z" fill="#464646"/>
</svg>
