<svg width="344" height="224" viewBox="0 0 344 224" fill="none" xmlns="http://www.w3.org/2000/svg">
<rect width="344" height="224" fill="#F5F5F5"/>
<rect x="94.5" y="88.5" width="15" height="15" rx="7.5" fill="white" stroke="#767676"/>
<path d="M123.136 102.24C122.293 102.24 121.531 102.112 120.848 101.856C120.176 101.589 119.467 101.157 118.72 100.56C118.624 100.475 118.576 100.395 118.576 100.32C118.576 100.256 118.608 100.187 118.672 100.112L118.928 99.808C118.981 99.7227 119.061 99.68 119.168 99.68C119.253 99.68 119.323 99.7067 119.376 99.76C120.133 100.347 120.795 100.747 121.36 100.96C121.925 101.163 122.517 101.264 123.136 101.264C124 101.264 124.704 101.051 125.248 100.624C125.792 100.187 126.064 99.5947 126.064 98.848C126.064 98.368 125.936 97.984 125.68 97.696C125.424 97.408 125.072 97.184 124.624 97.024C124.187 96.864 123.563 96.6933 122.752 96.512C121.781 96.2987 121.024 96.0693 120.48 95.824C119.947 95.5787 119.557 95.2693 119.312 94.896C119.067 94.5227 118.944 94.0427 118.944 93.456C118.944 92.8373 119.12 92.2987 119.472 91.84C119.835 91.3707 120.315 91.0133 120.912 90.768C121.509 90.5227 122.155 90.4 122.848 90.4C123.605 90.4 124.293 90.512 124.912 90.736C125.541 90.96 126.16 91.3173 126.768 91.808C126.864 91.872 126.912 91.9467 126.912 92.032C126.912 92.096 126.88 92.1707 126.816 92.256L126.576 92.544C126.523 92.6293 126.443 92.672 126.336 92.672C126.251 92.672 126.176 92.6453 126.112 92.592C125.568 92.144 125.04 91.8293 124.528 91.648C124.027 91.4667 123.472 91.376 122.864 91.376C122.309 91.376 121.819 91.4667 121.392 91.648C120.965 91.8187 120.629 92.0587 120.384 92.368C120.149 92.6773 120.032 93.0293 120.032 93.424C120.032 93.8507 120.149 94.192 120.384 94.448C120.629 94.704 120.965 94.9067 121.392 95.056C121.829 95.2053 122.464 95.376 123.296 95.568C124.256 95.792 125.013 96.0427 125.568 96.32C126.133 96.5973 126.544 96.9387 126.8 97.344C127.056 97.7387 127.184 98.2293 127.184 98.816C127.184 99.4987 127.008 100.101 126.656 100.624C126.315 101.136 125.835 101.536 125.216 101.824C124.597 102.101 123.904 102.24 123.136 102.24ZM137.138 93.92C137.991 93.92 138.642 94.1653 139.09 94.656C139.548 95.136 139.778 95.7547 139.778 96.512V101.68C139.778 101.893 139.671 102 139.458 102H139.042C138.828 102 138.722 101.893 138.722 101.68V96.8C138.722 96.16 138.572 95.6693 138.274 95.328C137.986 94.9867 137.554 94.816 136.977 94.816C136.37 94.816 135.884 95.0187 135.522 95.424C135.159 95.8293 134.978 96.352 134.978 96.992V101.68C134.978 101.893 134.871 102 134.658 102H134.242C134.028 102 133.922 101.893 133.922 101.68V96.8C133.922 96.16 133.772 95.6693 133.474 95.328C133.186 94.9867 132.748 94.816 132.161 94.816C131.618 94.816 131.164 94.9867 130.802 95.328C130.45 95.6693 130.242 96.1173 130.178 96.672V101.68C130.178 101.893 130.071 102 129.858 102H129.442C129.228 102 129.122 101.893 129.122 101.68V94.432C129.122 94.2187 129.228 94.112 129.442 94.112H129.794C130.007 94.112 130.114 94.2187 130.114 94.432V95.088C130.594 94.3093 131.356 93.92 132.402 93.92C132.946 93.92 133.41 94.0427 133.794 94.288C134.188 94.5227 134.482 94.8427 134.674 95.248C135.239 94.3627 136.06 93.92 137.138 93.92ZM145.146 93.92C146.117 93.92 146.874 94.1547 147.418 94.624C147.962 95.0827 148.234 95.6907 148.234 96.448V101.68C148.234 101.893 148.127 102 147.914 102H147.594C147.381 102 147.274 101.893 147.274 101.68V100.96C147.007 101.387 146.629 101.707 146.138 101.92C145.658 102.133 145.119 102.24 144.522 102.24C143.69 102.24 143.013 102.064 142.49 101.712C141.967 101.36 141.706 100.816 141.706 100.08C141.706 99.4933 141.871 99.024 142.202 98.672C142.533 98.3093 142.965 98.0373 143.498 97.856C144.031 97.664 144.698 97.4933 145.498 97.344L147.226 97.04V96.528C147.226 95.984 147.039 95.5627 146.666 95.264C146.293 94.9547 145.802 94.8 145.194 94.8C144.735 94.8 144.319 94.8853 143.946 95.056C143.573 95.2267 143.173 95.52 142.746 95.936C142.671 96.0107 142.591 96.048 142.506 96.048C142.431 96.048 142.362 96.016 142.298 95.952L142.09 95.76C142.015 95.6853 141.978 95.6053 141.978 95.52C141.978 95.424 142.015 95.3387 142.09 95.264C142.538 94.7947 143.007 94.4533 143.498 94.24C143.999 94.0267 144.549 93.92 145.146 93.92ZM144.57 101.36C145.338 101.36 145.973 101.157 146.474 100.752C146.975 100.347 147.226 99.8293 147.226 99.2V97.856L145.738 98.144C145.045 98.2827 144.495 98.416 144.09 98.544C143.685 98.672 143.359 98.8587 143.114 99.104C142.869 99.3493 142.746 99.6693 142.746 100.064C142.746 100.469 142.906 100.789 143.226 101.024C143.557 101.248 144.005 101.36 144.57 101.36ZM150.911 102C150.697 102 150.591 101.893 150.591 101.68V90.96C150.591 90.7467 150.697 90.64 150.911 90.64H151.327C151.54 90.64 151.647 90.7467 151.647 90.96V101.68C151.647 101.893 151.54 102 151.327 102H150.911ZM154.364 102C154.15 102 154.044 101.893 154.044 101.68V90.96C154.044 90.7467 154.15 90.64 154.364 90.64H154.78C154.993 90.64 155.1 90.7467 155.1 90.96V101.68C155.1 101.893 154.993 102 154.78 102H154.364Z" fill="#464646"/>
<rect x="94.5" y="126.5" width="15" height="15" rx="7.5" fill="white" stroke="#767676"/>
<path d="M128.304 128.896C128.368 128.725 128.491 128.64 128.672 128.64H129.92C130.133 128.64 130.24 128.747 130.24 128.96V139.68C130.24 139.893 130.133 140 129.92 140H129.456C129.243 140 129.136 139.893 129.136 139.68V134.368C129.136 133.227 129.147 131.579 129.168 129.424C128.731 130.672 128.133 132.32 127.376 134.368L125.408 139.744C125.344 139.915 125.221 140 125.04 140H124.576C124.395 140 124.272 139.915 124.208 139.744L122.192 134.352C121.765 133.243 121.173 131.6 120.416 129.424C120.437 131.579 120.448 133.232 120.448 134.384V139.68C120.448 139.893 120.341 140 120.128 140H119.696C119.483 140 119.376 139.893 119.376 139.68V128.96C119.376 128.747 119.483 128.64 119.696 128.64H120.928C121.109 128.64 121.232 128.725 121.296 128.896L123.12 133.808C123.963 136.101 124.528 137.717 124.816 138.656C125.083 137.76 125.541 136.421 126.192 134.64C126.235 134.523 126.283 134.395 126.336 134.256C126.389 134.117 126.443 133.968 126.496 133.808L128.304 128.896ZM138.537 138.128C138.612 138.053 138.692 138.016 138.777 138.016C138.852 138.016 138.921 138.048 138.985 138.112L139.193 138.304C139.268 138.379 139.305 138.459 139.305 138.544C139.305 138.608 139.273 138.683 139.209 138.768C138.687 139.291 138.18 139.664 137.689 139.888C137.199 140.101 136.649 140.208 136.041 140.208C135.273 140.208 134.607 140.037 134.041 139.696C133.476 139.355 133.039 138.88 132.729 138.272C132.42 137.653 132.265 136.939 132.265 136.128C132.265 135.307 132.415 134.581 132.713 133.952C133.023 133.312 133.455 132.816 134.009 132.464C134.564 132.101 135.204 131.92 135.929 131.92C137.007 131.92 137.855 132.256 138.473 132.928C139.092 133.6 139.401 134.507 139.401 135.648V135.84C139.391 135.936 139.353 136.011 139.289 136.064C139.236 136.117 139.161 136.144 139.065 136.144H133.337C133.369 137.04 133.604 137.797 134.041 138.416C134.489 139.024 135.156 139.328 136.041 139.328C136.521 139.328 136.943 139.243 137.305 139.072C137.679 138.891 138.089 138.576 138.537 138.128ZM135.929 132.8C135.225 132.8 134.644 133.019 134.185 133.456C133.737 133.883 133.465 134.512 133.369 135.344H138.345C138.324 134.565 138.1 133.947 137.673 133.488C137.247 133.029 136.665 132.8 135.929 132.8ZM147.005 128.96C147.005 128.747 147.112 128.64 147.325 128.64H147.741C147.954 128.64 148.061 128.747 148.061 128.96V139.68C148.061 139.893 147.954 140 147.741 140H147.405C147.192 140 147.085 139.893 147.085 139.68V138.64C146.797 139.141 146.418 139.525 145.949 139.792C145.48 140.059 144.925 140.192 144.285 140.192C143.613 140.192 143.016 140.021 142.493 139.68C141.97 139.328 141.56 138.843 141.261 138.224C140.962 137.595 140.813 136.875 140.813 136.064C140.813 135.253 140.962 134.539 141.261 133.92C141.57 133.291 141.992 132.805 142.525 132.464C143.058 132.112 143.656 131.936 144.317 131.936C145.533 131.936 146.429 132.389 147.005 133.296V128.96ZM144.365 139.296C145.165 139.296 145.81 139.013 146.301 138.448C146.802 137.872 147.053 137.077 147.053 136.064C147.053 135.061 146.802 134.272 146.301 133.696C145.81 133.12 145.165 132.832 144.365 132.832C143.629 132.832 143.032 133.131 142.573 133.728C142.125 134.325 141.901 135.104 141.901 136.064C141.901 137.035 142.125 137.819 142.573 138.416C143.021 139.003 143.618 139.296 144.365 139.296ZM150.962 130.112C150.749 130.112 150.567 130.037 150.418 129.888C150.279 129.739 150.21 129.557 150.21 129.344C150.21 129.131 150.279 128.955 150.418 128.816C150.567 128.677 150.749 128.608 150.962 128.608C151.186 128.608 151.367 128.677 151.506 128.816C151.655 128.955 151.73 129.131 151.73 129.344C151.73 129.557 151.655 129.739 151.506 129.888C151.367 130.037 151.186 130.112 150.962 130.112ZM150.754 140C150.541 140 150.434 139.893 150.434 139.68V132.432C150.434 132.219 150.541 132.112 150.754 132.112H151.17C151.383 132.112 151.49 132.219 151.49 132.432V139.68C151.49 139.893 151.383 140 151.17 140H150.754ZM158.96 132.432C158.96 132.219 159.067 132.112 159.28 132.112H159.696C159.91 132.112 160.016 132.219 160.016 132.432V139.68C160.016 139.893 159.91 140 159.696 140H159.36C159.147 140 159.04 139.893 159.04 139.68V138.96C158.806 139.376 158.47 139.691 158.032 139.904C157.606 140.107 157.136 140.208 156.624 140.208C155.664 140.208 154.955 139.968 154.496 139.488C154.038 138.997 153.808 138.368 153.808 137.6V132.432C153.808 132.219 153.915 132.112 154.128 132.112H154.544C154.758 132.112 154.864 132.219 154.864 132.432V137.376C154.864 138.005 155.019 138.485 155.328 138.816C155.648 139.136 156.102 139.296 156.688 139.296C157.35 139.296 157.894 139.093 158.32 138.688C158.747 138.283 158.96 137.707 158.96 136.96V132.432ZM170.403 131.92C171.256 131.92 171.907 132.165 172.355 132.656C172.814 133.136 173.043 133.755 173.043 134.512V139.68C173.043 139.893 172.936 140 172.723 140H172.307C172.094 140 171.987 139.893 171.987 139.68V134.8C171.987 134.16 171.838 133.669 171.539 133.328C171.251 132.987 170.819 132.816 170.243 132.816C169.635 132.816 169.15 133.019 168.787 133.424C168.424 133.829 168.243 134.352 168.243 134.992V139.68C168.243 139.893 168.136 140 167.923 140H167.507C167.294 140 167.187 139.893 167.187 139.68V134.8C167.187 134.16 167.038 133.669 166.739 133.328C166.451 132.987 166.014 132.816 165.427 132.816C164.883 132.816 164.43 132.987 164.067 133.328C163.715 133.669 163.507 134.117 163.443 134.672V139.68C163.443 139.893 163.336 140 163.123 140H162.707C162.494 140 162.387 139.893 162.387 139.68V132.432C162.387 132.219 162.494 132.112 162.707 132.112H163.059C163.272 132.112 163.379 132.219 163.379 132.432V133.088C163.859 132.309 164.622 131.92 165.667 131.92C166.211 131.92 166.675 132.043 167.059 132.288C167.454 132.523 167.747 132.843 167.939 133.248C168.504 132.363 169.326 131.92 170.403 131.92Z" fill="#464646"/>
<rect x="94.5" y="164.5" width="15" height="15" rx="7.5" fill="white" stroke="#767676"/>
<path d="M119.696 178C119.483 178 119.376 177.893 119.376 177.68V166.96C119.376 166.747 119.483 166.64 119.696 166.64H120.192C120.405 166.64 120.512 166.747 120.512 166.96V177.056H125.616C125.829 177.056 125.936 177.163 125.936 177.376V177.68C125.936 177.893 125.829 178 125.616 178H119.696ZM130.74 169.92C131.71 169.92 132.468 170.155 133.012 170.624C133.556 171.083 133.828 171.691 133.828 172.448V177.68C133.828 177.893 133.721 178 133.508 178H133.188C132.974 178 132.868 177.893 132.868 177.68V176.96C132.601 177.387 132.222 177.707 131.732 177.92C131.252 178.133 130.713 178.24 130.116 178.24C129.284 178.24 128.606 178.064 128.084 177.712C127.561 177.36 127.3 176.816 127.3 176.08C127.3 175.493 127.465 175.024 127.796 174.672C128.126 174.309 128.558 174.037 129.092 173.856C129.625 173.664 130.292 173.493 131.092 173.344L132.82 173.04V172.528C132.82 171.984 132.633 171.563 132.26 171.264C131.886 170.955 131.396 170.8 130.788 170.8C130.329 170.8 129.913 170.885 129.54 171.056C129.166 171.227 128.766 171.52 128.34 171.936C128.265 172.011 128.185 172.048 128.1 172.048C128.025 172.048 127.956 172.016 127.892 171.952L127.684 171.76C127.609 171.685 127.572 171.605 127.572 171.52C127.572 171.424 127.609 171.339 127.684 171.264C128.132 170.795 128.601 170.453 129.092 170.24C129.593 170.027 130.142 169.92 130.74 169.92ZM130.164 177.36C130.932 177.36 131.566 177.157 132.068 176.752C132.569 176.347 132.82 175.829 132.82 175.2V173.856L131.332 174.144C130.638 174.283 130.089 174.416 129.684 174.544C129.278 174.672 128.953 174.859 128.708 175.104C128.462 175.349 128.34 175.669 128.34 176.064C128.34 176.469 128.5 176.789 128.82 177.024C129.15 177.248 129.598 177.36 130.164 177.36ZM139.112 170.048C139.379 170.048 139.694 170.091 140.056 170.176C140.248 170.24 140.323 170.373 140.28 170.576L140.216 170.832C140.163 171.035 140.03 171.109 139.816 171.056C139.56 170.992 139.326 170.96 139.112 170.96C138.568 170.96 138.115 171.195 137.752 171.664C137.4 172.133 137.224 172.784 137.224 173.616V177.68C137.224 177.893 137.118 178 136.904 178H136.488C136.275 178 136.168 177.893 136.168 177.68V170.432C136.168 170.219 136.275 170.112 136.488 170.112H136.84C137.054 170.112 137.16 170.219 137.16 170.432V171.312C137.342 170.917 137.598 170.608 137.928 170.384C138.27 170.16 138.664 170.048 139.112 170.048ZM146.942 170.432C146.942 170.219 147.048 170.112 147.262 170.112H147.598C147.811 170.112 147.918 170.219 147.918 170.432V177.92C147.918 178.912 147.619 179.691 147.022 180.256C146.424 180.832 145.587 181.12 144.51 181.12C143.347 181.12 142.275 180.789 141.294 180.128C141.187 180.064 141.134 179.984 141.134 179.888C141.134 179.813 141.155 179.749 141.198 179.696L141.39 179.424C141.454 179.317 141.539 179.264 141.646 179.264C141.688 179.264 141.752 179.285 141.838 179.328C142.307 179.627 142.744 179.851 143.15 180C143.566 180.149 144.019 180.224 144.51 180.224C145.214 180.224 145.784 180.027 146.222 179.632C146.659 179.248 146.878 178.651 146.878 177.84V176.56C146.302 177.488 145.427 177.952 144.254 177.952C143.571 177.952 142.968 177.781 142.446 177.44C141.923 177.088 141.518 176.608 141.23 176C140.952 175.392 140.814 174.704 140.814 173.936C140.814 173.168 140.952 172.48 141.23 171.872C141.518 171.264 141.923 170.789 142.446 170.448C142.968 170.096 143.571 169.92 144.254 169.92C144.872 169.92 145.406 170.053 145.854 170.32C146.312 170.576 146.675 170.944 146.942 171.424V170.432ZM144.366 177.056C145.134 177.056 145.747 176.768 146.206 176.192C146.664 175.605 146.894 174.853 146.894 173.936C146.894 173.019 146.664 172.272 146.206 171.696C145.747 171.109 145.134 170.816 144.366 170.816C143.587 170.816 142.979 171.104 142.542 171.68C142.115 172.256 141.902 173.008 141.902 173.936C141.902 174.864 142.115 175.616 142.542 176.192C142.979 176.768 143.587 177.056 144.366 177.056ZM156.037 176.128C156.112 176.053 156.192 176.016 156.277 176.016C156.352 176.016 156.421 176.048 156.485 176.112L156.693 176.304C156.768 176.379 156.805 176.459 156.805 176.544C156.805 176.608 156.773 176.683 156.709 176.768C156.187 177.291 155.68 177.664 155.189 177.888C154.699 178.101 154.149 178.208 153.541 178.208C152.773 178.208 152.107 178.037 151.541 177.696C150.976 177.355 150.539 176.88 150.229 176.272C149.92 175.653 149.765 174.939 149.765 174.128C149.765 173.307 149.915 172.581 150.213 171.952C150.523 171.312 150.955 170.816 151.509 170.464C152.064 170.101 152.704 169.92 153.429 169.92C154.507 169.92 155.355 170.256 155.973 170.928C156.592 171.6 156.901 172.507 156.901 173.648V173.84C156.891 173.936 156.853 174.011 156.789 174.064C156.736 174.117 156.661 174.144 156.565 174.144H150.837C150.869 175.04 151.104 175.797 151.541 176.416C151.989 177.024 152.656 177.328 153.541 177.328C154.021 177.328 154.443 177.243 154.805 177.072C155.179 176.891 155.589 176.576 156.037 176.128ZM153.429 170.8C152.725 170.8 152.144 171.019 151.685 171.456C151.237 171.883 150.965 172.512 150.869 173.344H155.845C155.824 172.565 155.6 171.947 155.173 171.488C154.747 171.029 154.165 170.8 153.429 170.8Z" fill="#464646"/>
<path d="M99.232 56.256C98.3573 56.256 97.5733 56.1333 96.88 55.888C96.1973 55.632 95.4933 55.2053 94.768 54.608C94.6187 54.4907 94.544 54.352 94.544 54.192C94.544 54.0533 94.5973 53.9253 94.704 53.808L95.072 53.376C95.1893 53.2267 95.3227 53.152 95.472 53.152C95.5893 53.152 95.7227 53.2107 95.872 53.328C96.512 53.84 97.0827 54.192 97.584 54.384C98.096 54.576 98.656 54.672 99.264 54.672C100 54.672 100.597 54.5067 101.056 54.176C101.515 53.8347 101.744 53.3707 101.744 52.784C101.744 52.4 101.627 52.1013 101.392 51.888C101.157 51.664 100.853 51.4933 100.48 51.376C100.117 51.2587 99.5253 51.104 98.704 50.912C97.712 50.6773 96.9387 50.4213 96.384 50.144C95.8293 49.8667 95.4293 49.536 95.184 49.152C94.9493 48.7573 94.832 48.2613 94.832 47.664C94.832 47.0347 95.0133 46.4693 95.376 45.968C95.7387 45.4667 96.2347 45.0773 96.864 44.8C97.504 44.5227 98.2187 44.384 99.008 44.384C99.808 44.384 100.512 44.4907 101.12 44.704C101.739 44.9173 102.357 45.264 102.976 45.744C103.136 45.872 103.216 46.0053 103.216 46.144C103.216 46.2613 103.163 46.3893 103.056 46.528L102.704 46.944C102.576 47.0933 102.443 47.168 102.304 47.168C102.176 47.168 102.043 47.1147 101.904 47.008C101.392 46.6133 100.917 46.3413 100.48 46.192C100.043 46.0427 99.5467 45.968 98.992 45.968C98.288 45.968 97.7173 46.1227 97.28 46.432C96.8427 46.7413 96.624 47.1307 96.624 47.6C96.624 47.9413 96.7253 48.2133 96.928 48.416C97.1307 48.6187 97.424 48.784 97.808 48.912C98.192 49.04 98.784 49.1947 99.584 49.376C100.555 49.6107 101.323 49.8613 101.888 50.128C102.453 50.384 102.875 50.7147 103.152 51.12C103.429 51.5253 103.568 52.0427 103.568 52.672C103.568 53.376 103.387 54 103.024 54.544C102.661 55.088 102.155 55.5093 101.504 55.808C100.853 56.1067 100.096 56.256 99.232 56.256ZM106.012 46.576C105.703 46.576 105.441 46.4747 105.228 46.272C105.015 46.0587 104.908 45.808 104.908 45.52C104.908 45.2213 105.015 44.9707 105.228 44.768C105.441 44.5653 105.703 44.464 106.012 44.464C106.321 44.464 106.583 44.5653 106.796 44.768C107.009 44.9707 107.116 45.2213 107.116 45.52C107.116 45.808 107.009 46.0587 106.796 46.272C106.583 46.4747 106.321 46.576 106.012 46.576ZM105.708 56C105.537 56 105.399 55.952 105.292 55.856C105.196 55.7493 105.148 55.6107 105.148 55.44V48.672C105.148 48.4907 105.196 48.352 105.292 48.256C105.399 48.16 105.537 48.112 105.708 48.112H106.284C106.465 48.112 106.604 48.16 106.7 48.256C106.796 48.352 106.844 48.4907 106.844 48.672V55.44C106.844 55.6107 106.796 55.7493 106.7 55.856C106.604 55.952 106.465 56 106.284 56H105.708ZM114.276 48.112C114.457 48.112 114.596 48.16 114.692 48.256C114.788 48.352 114.836 48.4907 114.836 48.672V48.976C114.836 49.2427 114.751 49.4773 114.58 49.68L110.484 54.608H114.276C114.457 54.608 114.596 54.656 114.692 54.752C114.788 54.848 114.836 54.9867 114.836 55.168V55.44C114.836 55.6107 114.788 55.7493 114.692 55.856C114.596 55.952 114.457 56 114.276 56H108.948C108.777 56 108.639 55.952 108.532 55.856C108.436 55.7493 108.388 55.6107 108.388 55.44V55.12C108.388 54.8533 108.473 54.6187 108.644 54.416L112.756 49.488H109.22C109.049 49.488 108.911 49.44 108.804 49.344C108.708 49.2373 108.66 49.0987 108.66 48.928V48.672C108.66 48.4907 108.708 48.352 108.804 48.256C108.911 48.16 109.049 48.112 109.22 48.112H114.276ZM121.843 53.984C121.981 53.8667 122.115 53.808 122.243 53.808C122.371 53.808 122.504 53.8773 122.643 54.016L122.867 54.256C122.984 54.3947 123.043 54.528 123.043 54.656C123.043 54.7947 122.973 54.928 122.835 55.056C122.344 55.4827 121.853 55.7867 121.363 55.968C120.883 56.1493 120.349 56.24 119.763 56.24C118.941 56.24 118.227 56.0693 117.619 55.728C117.021 55.3867 116.557 54.9067 116.227 54.288C115.907 53.6587 115.747 52.9333 115.747 52.112C115.747 51.3013 115.901 50.576 116.211 49.936C116.531 49.2853 116.979 48.7787 117.555 48.416C118.141 48.0533 118.824 47.872 119.603 47.872C120.765 47.872 121.661 48.2187 122.291 48.912C122.92 49.5947 123.235 50.5387 123.235 51.744V51.888C123.224 52.0587 123.171 52.192 123.075 52.288C122.979 52.384 122.84 52.432 122.659 52.432H117.411C117.475 53.136 117.704 53.712 118.099 54.16C118.504 54.5973 119.069 54.816 119.795 54.816C120.189 54.816 120.536 54.7573 120.835 54.64C121.133 54.512 121.469 54.2933 121.843 53.984ZM119.571 49.216C118.984 49.216 118.509 49.392 118.147 49.744C117.795 50.0853 117.565 50.5707 117.459 51.2H121.571C121.528 50.5813 121.336 50.096 120.995 49.744C120.653 49.392 120.179 49.216 119.571 49.216Z" fill="#464646"/>
</svg>
