<svg width="344" height="320" viewBox="0 0 344 320" fill="none" xmlns="http://www.w3.org/2000/svg">
<rect width="344" height="320" fill="#F5F5F5"/>
<rect x="94" y="117" width="16" height="16" rx="8" fill="#0063FB"/>
<rect x="98.2666" y="121.267" width="7.46667" height="7.46667" rx="3.73333" fill="white"/>
<path d="M123.136 131.24C122.293 131.24 121.531 131.112 120.848 130.856C120.176 130.589 119.467 130.157 118.72 129.56C118.624 129.475 118.576 129.395 118.576 129.32C118.576 129.256 118.608 129.187 118.672 129.112L118.928 128.808C118.981 128.723 119.061 128.68 119.168 128.68C119.253 128.68 119.323 128.707 119.376 128.76C120.133 129.347 120.795 129.747 121.36 129.96C121.925 130.163 122.517 130.264 123.136 130.264C124 130.264 124.704 130.051 125.248 129.624C125.792 129.187 126.064 128.595 126.064 127.848C126.064 127.368 125.936 126.984 125.68 126.696C125.424 126.408 125.072 126.184 124.624 126.024C124.187 125.864 123.563 125.693 122.752 125.512C121.781 125.299 121.024 125.069 120.48 124.824C119.947 124.579 119.557 124.269 119.312 123.896C119.067 123.523 118.944 123.043 118.944 122.456C118.944 121.837 119.12 121.299 119.472 120.84C119.835 120.371 120.315 120.013 120.912 119.768C121.509 119.523 122.155 119.4 122.848 119.4C123.605 119.4 124.293 119.512 124.912 119.736C125.541 119.96 126.16 120.317 126.768 120.808C126.864 120.872 126.912 120.947 126.912 121.032C126.912 121.096 126.88 121.171 126.816 121.256L126.576 121.544C126.523 121.629 126.443 121.672 126.336 121.672C126.251 121.672 126.176 121.645 126.112 121.592C125.568 121.144 125.04 120.829 124.528 120.648C124.027 120.467 123.472 120.376 122.864 120.376C122.309 120.376 121.819 120.467 121.392 120.648C120.965 120.819 120.629 121.059 120.384 121.368C120.149 121.677 120.032 122.029 120.032 122.424C120.032 122.851 120.149 123.192 120.384 123.448C120.629 123.704 120.965 123.907 121.392 124.056C121.829 124.205 122.464 124.376 123.296 124.568C124.256 124.792 125.013 125.043 125.568 125.32C126.133 125.597 126.544 125.939 126.8 126.344C127.056 126.739 127.184 127.229 127.184 127.816C127.184 128.499 127.008 129.101 126.656 129.624C126.315 130.136 125.835 130.536 125.216 130.824C124.597 131.101 123.904 131.24 123.136 131.24ZM137.138 122.92C137.991 122.92 138.642 123.165 139.09 123.656C139.548 124.136 139.778 124.755 139.778 125.512V130.68C139.778 130.893 139.671 131 139.458 131H139.042C138.828 131 138.722 130.893 138.722 130.68V125.8C138.722 125.16 138.572 124.669 138.274 124.328C137.986 123.987 137.554 123.816 136.977 123.816C136.37 123.816 135.884 124.019 135.522 124.424C135.159 124.829 134.978 125.352 134.978 125.992V130.68C134.978 130.893 134.871 131 134.658 131H134.242C134.028 131 133.922 130.893 133.922 130.68V125.8C133.922 125.16 133.772 124.669 133.474 124.328C133.186 123.987 132.748 123.816 132.161 123.816C131.618 123.816 131.164 123.987 130.802 124.328C130.45 124.669 130.242 125.117 130.178 125.672V130.68C130.178 130.893 130.071 131 129.858 131H129.442C129.228 131 129.122 130.893 129.122 130.68V123.432C129.122 123.219 129.228 123.112 129.442 123.112H129.794C130.007 123.112 130.114 123.219 130.114 123.432V124.088C130.594 123.309 131.356 122.92 132.402 122.92C132.946 122.92 133.41 123.043 133.794 123.288C134.188 123.523 134.482 123.843 134.674 124.248C135.239 123.363 136.06 122.92 137.138 122.92ZM145.146 122.92C146.117 122.92 146.874 123.155 147.418 123.624C147.962 124.083 148.234 124.691 148.234 125.448V130.68C148.234 130.893 148.127 131 147.914 131H147.594C147.381 131 147.274 130.893 147.274 130.68V129.96C147.007 130.387 146.629 130.707 146.138 130.92C145.658 131.133 145.119 131.24 144.522 131.24C143.69 131.24 143.013 131.064 142.49 130.712C141.967 130.36 141.706 129.816 141.706 129.08C141.706 128.493 141.871 128.024 142.202 127.672C142.533 127.309 142.965 127.037 143.498 126.856C144.031 126.664 144.698 126.493 145.498 126.344L147.226 126.04V125.528C147.226 124.984 147.039 124.563 146.666 124.264C146.293 123.955 145.802 123.8 145.194 123.8C144.735 123.8 144.319 123.885 143.946 124.056C143.573 124.227 143.173 124.52 142.746 124.936C142.671 125.011 142.591 125.048 142.506 125.048C142.431 125.048 142.362 125.016 142.298 124.952L142.09 124.76C142.015 124.685 141.978 124.605 141.978 124.52C141.978 124.424 142.015 124.339 142.09 124.264C142.538 123.795 143.007 123.453 143.498 123.24C143.999 123.027 144.549 122.92 145.146 122.92ZM144.57 130.36C145.338 130.36 145.973 130.157 146.474 129.752C146.975 129.347 147.226 128.829 147.226 128.2V126.856L145.738 127.144C145.045 127.283 144.495 127.416 144.09 127.544C143.685 127.672 143.359 127.859 143.114 128.104C142.869 128.349 142.746 128.669 142.746 129.064C142.746 129.469 142.906 129.789 143.226 130.024C143.557 130.248 144.005 130.36 144.57 130.36ZM150.911 131C150.697 131 150.591 130.893 150.591 130.68V119.96C150.591 119.747 150.697 119.64 150.911 119.64H151.327C151.54 119.64 151.647 119.747 151.647 119.96V130.68C151.647 130.893 151.54 131 151.327 131H150.911ZM154.364 131C154.15 131 154.044 130.893 154.044 130.68V119.96C154.044 119.747 154.15 119.64 154.364 119.64H154.78C154.993 119.64 155.1 119.747 155.1 119.96V130.68C155.1 130.893 154.993 131 154.78 131H154.364Z" fill="#464646"/>
<rect x="94.5" y="155.5" width="15" height="15" rx="7.5" fill="white" stroke="#767676"/>
<path d="M128.304 157.896C128.368 157.725 128.491 157.64 128.672 157.64H129.92C130.133 157.64 130.24 157.747 130.24 157.96V168.68C130.24 168.893 130.133 169 129.92 169H129.456C129.243 169 129.136 168.893 129.136 168.68V163.368C129.136 162.227 129.147 160.579 129.168 158.424C128.731 159.672 128.133 161.32 127.376 163.368L125.408 168.744C125.344 168.915 125.221 169 125.04 169H124.576C124.395 169 124.272 168.915 124.208 168.744L122.192 163.352C121.765 162.243 121.173 160.6 120.416 158.424C120.437 160.579 120.448 162.232 120.448 163.384V168.68C120.448 168.893 120.341 169 120.128 169H119.696C119.483 169 119.376 168.893 119.376 168.68V157.96C119.376 157.747 119.483 157.64 119.696 157.64H120.928C121.109 157.64 121.232 157.725 121.296 157.896L123.12 162.808C123.963 165.101 124.528 166.717 124.816 167.656C125.083 166.76 125.541 165.421 126.192 163.64C126.235 163.523 126.283 163.395 126.336 163.256C126.389 163.117 126.443 162.968 126.496 162.808L128.304 157.896ZM138.537 167.128C138.612 167.053 138.692 167.016 138.777 167.016C138.852 167.016 138.921 167.048 138.985 167.112L139.193 167.304C139.268 167.379 139.305 167.459 139.305 167.544C139.305 167.608 139.273 167.683 139.209 167.768C138.687 168.291 138.18 168.664 137.689 168.888C137.199 169.101 136.649 169.208 136.041 169.208C135.273 169.208 134.607 169.037 134.041 168.696C133.476 168.355 133.039 167.88 132.729 167.272C132.42 166.653 132.265 165.939 132.265 165.128C132.265 164.307 132.415 163.581 132.713 162.952C133.023 162.312 133.455 161.816 134.009 161.464C134.564 161.101 135.204 160.92 135.929 160.92C137.007 160.92 137.855 161.256 138.473 161.928C139.092 162.6 139.401 163.507 139.401 164.648V164.84C139.391 164.936 139.353 165.011 139.289 165.064C139.236 165.117 139.161 165.144 139.065 165.144H133.337C133.369 166.04 133.604 166.797 134.041 167.416C134.489 168.024 135.156 168.328 136.041 168.328C136.521 168.328 136.943 168.243 137.305 168.072C137.679 167.891 138.089 167.576 138.537 167.128ZM135.929 161.8C135.225 161.8 134.644 162.019 134.185 162.456C133.737 162.883 133.465 163.512 133.369 164.344H138.345C138.324 163.565 138.1 162.947 137.673 162.488C137.247 162.029 136.665 161.8 135.929 161.8ZM147.005 157.96C147.005 157.747 147.112 157.64 147.325 157.64H147.741C147.954 157.64 148.061 157.747 148.061 157.96V168.68C148.061 168.893 147.954 169 147.741 169H147.405C147.192 169 147.085 168.893 147.085 168.68V167.64C146.797 168.141 146.418 168.525 145.949 168.792C145.48 169.059 144.925 169.192 144.285 169.192C143.613 169.192 143.016 169.021 142.493 168.68C141.97 168.328 141.56 167.843 141.261 167.224C140.962 166.595 140.813 165.875 140.813 165.064C140.813 164.253 140.962 163.539 141.261 162.92C141.57 162.291 141.992 161.805 142.525 161.464C143.058 161.112 143.656 160.936 144.317 160.936C145.533 160.936 146.429 161.389 147.005 162.296V157.96ZM144.365 168.296C145.165 168.296 145.81 168.013 146.301 167.448C146.802 166.872 147.053 166.077 147.053 165.064C147.053 164.061 146.802 163.272 146.301 162.696C145.81 162.12 145.165 161.832 144.365 161.832C143.629 161.832 143.032 162.131 142.573 162.728C142.125 163.325 141.901 164.104 141.901 165.064C141.901 166.035 142.125 166.819 142.573 167.416C143.021 168.003 143.618 168.296 144.365 168.296ZM150.962 159.112C150.749 159.112 150.567 159.037 150.418 158.888C150.279 158.739 150.21 158.557 150.21 158.344C150.21 158.131 150.279 157.955 150.418 157.816C150.567 157.677 150.749 157.608 150.962 157.608C151.186 157.608 151.367 157.677 151.506 157.816C151.655 157.955 151.73 158.131 151.73 158.344C151.73 158.557 151.655 158.739 151.506 158.888C151.367 159.037 151.186 159.112 150.962 159.112ZM150.754 169C150.541 169 150.434 168.893 150.434 168.68V161.432C150.434 161.219 150.541 161.112 150.754 161.112H151.17C151.383 161.112 151.49 161.219 151.49 161.432V168.68C151.49 168.893 151.383 169 151.17 169H150.754ZM158.96 161.432C158.96 161.219 159.067 161.112 159.28 161.112H159.696C159.91 161.112 160.016 161.219 160.016 161.432V168.68C160.016 168.893 159.91 169 159.696 169H159.36C159.147 169 159.04 168.893 159.04 168.68V167.96C158.806 168.376 158.47 168.691 158.032 168.904C157.606 169.107 157.136 169.208 156.624 169.208C155.664 169.208 154.955 168.968 154.496 168.488C154.038 167.997 153.808 167.368 153.808 166.6V161.432C153.808 161.219 153.915 161.112 154.128 161.112H154.544C154.758 161.112 154.864 161.219 154.864 161.432V166.376C154.864 167.005 155.019 167.485 155.328 167.816C155.648 168.136 156.102 168.296 156.688 168.296C157.35 168.296 157.894 168.093 158.32 167.688C158.747 167.283 158.96 166.707 158.96 165.96V161.432ZM170.403 160.92C171.256 160.92 171.907 161.165 172.355 161.656C172.814 162.136 173.043 162.755 173.043 163.512V168.68C173.043 168.893 172.936 169 172.723 169H172.307C172.094 169 171.987 168.893 171.987 168.68V163.8C171.987 163.16 171.838 162.669 171.539 162.328C171.251 161.987 170.819 161.816 170.243 161.816C169.635 161.816 169.15 162.019 168.787 162.424C168.424 162.829 168.243 163.352 168.243 163.992V168.68C168.243 168.893 168.136 169 167.923 169H167.507C167.294 169 167.187 168.893 167.187 168.68V163.8C167.187 163.16 167.038 162.669 166.739 162.328C166.451 161.987 166.014 161.816 165.427 161.816C164.883 161.816 164.43 161.987 164.067 162.328C163.715 162.669 163.507 163.117 163.443 163.672V168.68C163.443 168.893 163.336 169 163.123 169H162.707C162.494 169 162.387 168.893 162.387 168.68V161.432C162.387 161.219 162.494 161.112 162.707 161.112H163.059C163.272 161.112 163.379 161.219 163.379 161.432V162.088C163.859 161.309 164.622 160.92 165.667 160.92C166.211 160.92 166.675 161.043 167.059 161.288C167.454 161.523 167.747 161.843 167.939 162.248C168.504 161.363 169.326 160.92 170.403 160.92Z" fill="#464646"/>
<rect x="94.5" y="193.5" width="15" height="15" rx="7.5" fill="white" stroke="#767676"/>
<path d="M119.696 207C119.483 207 119.376 206.893 119.376 206.68V195.96C119.376 195.747 119.483 195.64 119.696 195.64H120.192C120.405 195.64 120.512 195.747 120.512 195.96V206.056H125.616C125.829 206.056 125.936 206.163 125.936 206.376V206.68C125.936 206.893 125.829 207 125.616 207H119.696ZM130.74 198.92C131.71 198.92 132.468 199.155 133.012 199.624C133.556 200.083 133.828 200.691 133.828 201.448V206.68C133.828 206.893 133.721 207 133.508 207H133.188C132.974 207 132.868 206.893 132.868 206.68V205.96C132.601 206.387 132.222 206.707 131.732 206.92C131.252 207.133 130.713 207.24 130.116 207.24C129.284 207.24 128.606 207.064 128.084 206.712C127.561 206.36 127.3 205.816 127.3 205.08C127.3 204.493 127.465 204.024 127.796 203.672C128.126 203.309 128.558 203.037 129.092 202.856C129.625 202.664 130.292 202.493 131.092 202.344L132.82 202.04V201.528C132.82 200.984 132.633 200.563 132.26 200.264C131.886 199.955 131.396 199.8 130.788 199.8C130.329 199.8 129.913 199.885 129.54 200.056C129.166 200.227 128.766 200.52 128.34 200.936C128.265 201.011 128.185 201.048 128.1 201.048C128.025 201.048 127.956 201.016 127.892 200.952L127.684 200.76C127.609 200.685 127.572 200.605 127.572 200.52C127.572 200.424 127.609 200.339 127.684 200.264C128.132 199.795 128.601 199.453 129.092 199.24C129.593 199.027 130.142 198.92 130.74 198.92ZM130.164 206.36C130.932 206.36 131.566 206.157 132.068 205.752C132.569 205.347 132.82 204.829 132.82 204.2V202.856L131.332 203.144C130.638 203.283 130.089 203.416 129.684 203.544C129.278 203.672 128.953 203.859 128.708 204.104C128.462 204.349 128.34 204.669 128.34 205.064C128.34 205.469 128.5 205.789 128.82 206.024C129.15 206.248 129.598 206.36 130.164 206.36ZM139.112 199.048C139.379 199.048 139.694 199.091 140.056 199.176C140.248 199.24 140.323 199.373 140.28 199.576L140.216 199.832C140.163 200.035 140.03 200.109 139.816 200.056C139.56 199.992 139.326 199.96 139.112 199.96C138.568 199.96 138.115 200.195 137.752 200.664C137.4 201.133 137.224 201.784 137.224 202.616V206.68C137.224 206.893 137.118 207 136.904 207H136.488C136.275 207 136.168 206.893 136.168 206.68V199.432C136.168 199.219 136.275 199.112 136.488 199.112H136.84C137.054 199.112 137.16 199.219 137.16 199.432V200.312C137.342 199.917 137.598 199.608 137.928 199.384C138.27 199.16 138.664 199.048 139.112 199.048ZM146.942 199.432C146.942 199.219 147.048 199.112 147.262 199.112H147.598C147.811 199.112 147.918 199.219 147.918 199.432V206.92C147.918 207.912 147.619 208.691 147.022 209.256C146.424 209.832 145.587 210.12 144.51 210.12C143.347 210.12 142.275 209.789 141.294 209.128C141.187 209.064 141.134 208.984 141.134 208.888C141.134 208.813 141.155 208.749 141.198 208.696L141.39 208.424C141.454 208.317 141.539 208.264 141.646 208.264C141.688 208.264 141.752 208.285 141.838 208.328C142.307 208.627 142.744 208.851 143.15 209C143.566 209.149 144.019 209.224 144.51 209.224C145.214 209.224 145.784 209.027 146.222 208.632C146.659 208.248 146.878 207.651 146.878 206.84V205.56C146.302 206.488 145.427 206.952 144.254 206.952C143.571 206.952 142.968 206.781 142.446 206.44C141.923 206.088 141.518 205.608 141.23 205C140.952 204.392 140.814 203.704 140.814 202.936C140.814 202.168 140.952 201.48 141.23 200.872C141.518 200.264 141.923 199.789 142.446 199.448C142.968 199.096 143.571 198.92 144.254 198.92C144.872 198.92 145.406 199.053 145.854 199.32C146.312 199.576 146.675 199.944 146.942 200.424V199.432ZM144.366 206.056C145.134 206.056 145.747 205.768 146.206 205.192C146.664 204.605 146.894 203.853 146.894 202.936C146.894 202.019 146.664 201.272 146.206 200.696C145.747 200.109 145.134 199.816 144.366 199.816C143.587 199.816 142.979 200.104 142.542 200.68C142.115 201.256 141.902 202.008 141.902 202.936C141.902 203.864 142.115 204.616 142.542 205.192C142.979 205.768 143.587 206.056 144.366 206.056ZM156.037 205.128C156.112 205.053 156.192 205.016 156.277 205.016C156.352 205.016 156.421 205.048 156.485 205.112L156.693 205.304C156.768 205.379 156.805 205.459 156.805 205.544C156.805 205.608 156.773 205.683 156.709 205.768C156.187 206.291 155.68 206.664 155.189 206.888C154.699 207.101 154.149 207.208 153.541 207.208C152.773 207.208 152.107 207.037 151.541 206.696C150.976 206.355 150.539 205.88 150.229 205.272C149.92 204.653 149.765 203.939 149.765 203.128C149.765 202.307 149.915 201.581 150.213 200.952C150.523 200.312 150.955 199.816 151.509 199.464C152.064 199.101 152.704 198.92 153.429 198.92C154.507 198.92 155.355 199.256 155.973 199.928C156.592 200.6 156.901 201.507 156.901 202.648V202.84C156.891 202.936 156.853 203.011 156.789 203.064C156.736 203.117 156.661 203.144 156.565 203.144H150.837C150.869 204.04 151.104 204.797 151.541 205.416C151.989 206.024 152.656 206.328 153.541 206.328C154.021 206.328 154.443 206.243 154.805 206.072C155.179 205.891 155.589 205.576 156.037 205.128ZM153.429 199.8C152.725 199.8 152.144 200.019 151.685 200.456C151.237 200.883 150.965 201.512 150.869 202.344H155.845C155.824 201.565 155.6 200.947 155.173 200.488C154.747 200.029 154.165 199.8 153.429 199.8Z" fill="#464646"/>
<rect x="94.5" y="231.5" width="15" height="15" rx="7.5" fill="white" stroke="#767676"/>
<path d="M119.696 245C119.483 245 119.376 244.893 119.376 244.68V233.96C119.376 233.747 119.483 233.64 119.696 233.64H126.416C126.629 233.64 126.736 233.747 126.736 233.96V234.264C126.736 234.477 126.629 234.584 126.416 234.584H120.512V238.696H125.968C126.181 238.696 126.288 238.803 126.288 239.016V239.304C126.288 239.517 126.181 239.624 125.968 239.624H120.512V244.056H126.544C126.757 244.056 126.864 244.163 126.864 244.376V244.68C126.864 244.893 126.757 245 126.544 245H119.696ZM134.57 244.616C134.612 244.691 134.634 244.755 134.634 244.808C134.634 244.936 134.548 245 134.378 245H133.898C133.738 245 133.61 244.931 133.514 244.792L131.338 241.592L129.178 244.792C129.082 244.931 128.954 245 128.794 245H128.346C128.26 245 128.191 244.984 128.138 244.952C128.095 244.909 128.074 244.861 128.074 244.808C128.074 244.733 128.095 244.669 128.138 244.616L130.73 240.888L128.346 237.496C128.303 237.443 128.282 237.384 128.282 237.32C128.282 237.181 128.372 237.112 128.554 237.112H129.018C129.178 237.112 129.306 237.181 129.402 237.32L131.354 240.184L133.29 237.32C133.386 237.181 133.514 237.112 133.674 237.112H134.106C134.191 237.112 134.255 237.133 134.298 237.176C134.351 237.208 134.378 237.251 134.378 237.304C134.378 237.379 134.356 237.443 134.314 237.496L131.978 240.84L134.57 244.616ZM139.877 244.12C139.909 244.109 139.951 244.104 140.005 244.104C140.069 244.104 140.127 244.125 140.181 244.168C140.234 244.211 140.266 244.269 140.277 244.344L140.325 244.568C140.335 244.589 140.341 244.627 140.341 244.68C140.341 244.829 140.261 244.92 140.101 244.952C139.717 245.069 139.306 245.128 138.869 245.128C138.175 245.128 137.679 244.973 137.381 244.664C137.093 244.344 136.949 243.885 136.949 243.288V237.912H135.765C135.551 237.912 135.445 237.805 135.445 237.592V237.432C135.445 237.219 135.551 237.112 135.765 237.112H136.949V234.68C136.949 234.467 137.055 234.36 137.269 234.36H137.685C137.898 234.36 138.005 234.467 138.005 234.68V237.112H139.925C140.138 237.112 140.245 237.219 140.245 237.432V237.592C140.245 237.805 140.138 237.912 139.925 237.912H138.005V243.16C138.005 243.555 138.079 243.832 138.229 243.992C138.378 244.152 138.634 244.232 138.997 244.232C139.253 244.232 139.546 244.195 139.877 244.12ZM144.8 237.048C145.067 237.048 145.381 237.091 145.744 237.176C145.936 237.24 146.011 237.373 145.968 237.576L145.904 237.832C145.851 238.035 145.717 238.109 145.504 238.056C145.248 237.992 145.013 237.96 144.8 237.96C144.256 237.96 143.803 238.195 143.44 238.664C143.088 239.133 142.912 239.784 142.912 240.616V244.68C142.912 244.893 142.805 245 142.592 245H142.176C141.963 245 141.856 244.893 141.856 244.68V237.432C141.856 237.219 141.963 237.112 142.176 237.112H142.528C142.741 237.112 142.848 237.219 142.848 237.432V238.312C143.029 237.917 143.285 237.608 143.616 237.384C143.957 237.16 144.352 237.048 144.8 237.048ZM150.24 236.92C151.21 236.92 151.968 237.155 152.512 237.624C153.056 238.083 153.328 238.691 153.328 239.448V244.68C153.328 244.893 153.221 245 153.008 245H152.688C152.474 245 152.368 244.893 152.368 244.68V243.96C152.101 244.387 151.722 244.707 151.232 244.92C150.752 245.133 150.213 245.24 149.616 245.24C148.784 245.24 148.106 245.064 147.584 244.712C147.061 244.36 146.8 243.816 146.8 243.08C146.8 242.493 146.965 242.024 147.296 241.672C147.626 241.309 148.058 241.037 148.592 240.856C149.125 240.664 149.792 240.493 150.592 240.344L152.32 240.04V239.528C152.32 238.984 152.133 238.563 151.76 238.264C151.386 237.955 150.896 237.8 150.288 237.8C149.829 237.8 149.413 237.885 149.04 238.056C148.666 238.227 148.266 238.52 147.84 238.936C147.765 239.011 147.685 239.048 147.6 239.048C147.525 239.048 147.456 239.016 147.392 238.952L147.184 238.76C147.109 238.685 147.072 238.605 147.072 238.52C147.072 238.424 147.109 238.339 147.184 238.264C147.632 237.795 148.101 237.453 148.592 237.24C149.093 237.027 149.642 236.92 150.24 236.92ZM149.664 244.36C150.432 244.36 151.066 244.157 151.568 243.752C152.069 243.347 152.32 242.829 152.32 242.2V240.856L150.832 241.144C150.138 241.283 149.589 241.416 149.184 241.544C148.778 241.672 148.453 241.859 148.208 242.104C147.962 242.349 147.84 242.669 147.84 243.064C147.84 243.469 148 243.789 148.32 244.024C148.65 244.248 149.098 244.36 149.664 244.36ZM155.686 240.888C155.473 240.888 155.366 240.781 155.366 240.568V240.264C155.366 240.051 155.473 239.944 155.686 239.944H159.558C159.772 239.944 159.878 240.051 159.878 240.264V240.568C159.878 240.781 159.772 240.888 159.558 240.888H155.686ZM162.364 245C162.15 245 162.044 244.893 162.044 244.68V233.96C162.044 233.747 162.15 233.64 162.364 233.64H162.78C162.993 233.64 163.1 233.747 163.1 233.96V244.68C163.1 244.893 162.993 245 162.78 245H162.364ZM168.521 236.92C169.492 236.92 170.249 237.155 170.793 237.624C171.337 238.083 171.609 238.691 171.609 239.448V244.68C171.609 244.893 171.502 245 171.289 245H170.969C170.756 245 170.649 244.893 170.649 244.68V243.96C170.382 244.387 170.004 244.707 169.513 244.92C169.033 245.133 168.494 245.24 167.897 245.24C167.065 245.24 166.388 245.064 165.865 244.712C165.342 244.36 165.081 243.816 165.081 243.08C165.081 242.493 165.246 242.024 165.577 241.672C165.908 241.309 166.34 241.037 166.873 240.856C167.406 240.664 168.073 240.493 168.873 240.344L170.601 240.04V239.528C170.601 238.984 170.414 238.563 170.041 238.264C169.668 237.955 169.177 237.8 168.569 237.8C168.11 237.8 167.694 237.885 167.321 238.056C166.948 238.227 166.548 238.52 166.121 238.936C166.046 239.011 165.966 239.048 165.881 239.048C165.806 239.048 165.737 239.016 165.673 238.952L165.465 238.76C165.39 238.685 165.353 238.605 165.353 238.52C165.353 238.424 165.39 238.339 165.465 238.264C165.913 237.795 166.382 237.453 166.873 237.24C167.374 237.027 167.924 236.92 168.521 236.92ZM167.945 244.36C168.713 244.36 169.348 244.157 169.849 243.752C170.35 243.347 170.601 242.829 170.601 242.2V240.856L169.113 241.144C168.42 241.283 167.87 241.416 167.465 241.544C167.06 241.672 166.734 241.859 166.489 242.104C166.244 242.349 166.121 242.669 166.121 243.064C166.121 243.469 166.281 243.789 166.601 244.024C166.932 244.248 167.38 244.36 167.945 244.36ZM176.894 237.048C177.16 237.048 177.475 237.091 177.838 237.176C178.03 237.24 178.104 237.373 178.062 237.576L177.998 237.832C177.944 238.035 177.811 238.109 177.598 238.056C177.342 237.992 177.107 237.96 176.894 237.96C176.35 237.96 175.896 238.195 175.534 238.664C175.182 239.133 175.006 239.784 175.006 240.616V244.68C175.006 244.893 174.899 245 174.686 245H174.27C174.056 245 173.95 244.893 173.95 244.68V237.432C173.95 237.219 174.056 237.112 174.27 237.112H174.622C174.835 237.112 174.942 237.219 174.942 237.432V238.312C175.123 237.917 175.379 237.608 175.71 237.384C176.051 237.16 176.446 237.048 176.894 237.048ZM184.723 237.432C184.723 237.219 184.83 237.112 185.043 237.112H185.379C185.592 237.112 185.699 237.219 185.699 237.432V244.92C185.699 245.912 185.4 246.691 184.803 247.256C184.206 247.832 183.368 248.12 182.291 248.12C181.128 248.12 180.056 247.789 179.075 247.128C178.968 247.064 178.915 246.984 178.915 246.888C178.915 246.813 178.936 246.749 178.979 246.696L179.171 246.424C179.235 246.317 179.32 246.264 179.427 246.264C179.47 246.264 179.534 246.285 179.619 246.328C180.088 246.627 180.526 246.851 180.931 247C181.347 247.149 181.8 247.224 182.291 247.224C182.995 247.224 183.566 247.027 184.003 246.632C184.44 246.248 184.659 245.651 184.659 244.84V243.56C184.083 244.488 183.208 244.952 182.035 244.952C181.352 244.952 180.75 244.781 180.227 244.44C179.704 244.088 179.299 243.608 179.011 243C178.734 242.392 178.595 241.704 178.595 240.936C178.595 240.168 178.734 239.48 179.011 238.872C179.299 238.264 179.704 237.789 180.227 237.448C180.75 237.096 181.352 236.92 182.035 236.92C182.654 236.92 183.187 237.053 183.635 237.32C184.094 237.576 184.456 237.944 184.723 238.424V237.432ZM182.147 244.056C182.915 244.056 183.528 243.768 183.987 243.192C184.446 242.605 184.675 241.853 184.675 240.936C184.675 240.019 184.446 239.272 183.987 238.696C183.528 238.109 182.915 237.816 182.147 237.816C181.368 237.816 180.76 238.104 180.323 238.68C179.896 239.256 179.683 240.008 179.683 240.936C179.683 241.864 179.896 242.616 180.323 243.192C180.76 243.768 181.368 244.056 182.147 244.056ZM193.819 243.128C193.893 243.053 193.973 243.016 194.059 243.016C194.133 243.016 194.203 243.048 194.267 243.112L194.475 243.304C194.549 243.379 194.587 243.459 194.587 243.544C194.587 243.608 194.555 243.683 194.491 243.768C193.968 244.291 193.461 244.664 192.971 244.888C192.48 245.101 191.931 245.208 191.323 245.208C190.555 245.208 189.888 245.037 189.323 244.696C188.757 244.355 188.32 243.88 188.011 243.272C187.701 242.653 187.547 241.939 187.547 241.128C187.547 240.307 187.696 239.581 187.995 238.952C188.304 238.312 188.736 237.816 189.291 237.464C189.845 237.101 190.485 236.92 191.211 236.92C192.288 236.92 193.136 237.256 193.755 237.928C194.373 238.6 194.683 239.507 194.683 240.648V240.84C194.672 240.936 194.635 241.011 194.571 241.064C194.517 241.117 194.443 241.144 194.347 241.144H188.619C188.651 242.04 188.885 242.797 189.323 243.416C189.771 244.024 190.437 244.328 191.323 244.328C191.803 244.328 192.224 244.243 192.587 244.072C192.96 243.891 193.371 243.576 193.819 243.128ZM191.211 237.8C190.507 237.8 189.925 238.019 189.467 238.456C189.019 238.883 188.747 239.512 188.651 240.344H193.627C193.605 239.565 193.381 238.947 192.955 238.488C192.528 238.029 191.947 237.8 191.211 237.8Z" fill="#464646"/>
<path d="M99.232 85.256C98.3573 85.256 97.5733 85.1333 96.88 84.888C96.1973 84.632 95.4933 84.2053 94.768 83.608C94.6187 83.4907 94.544 83.352 94.544 83.192C94.544 83.0533 94.5973 82.9253 94.704 82.808L95.072 82.376C95.1893 82.2267 95.3227 82.152 95.472 82.152C95.5893 82.152 95.7227 82.2107 95.872 82.328C96.512 82.84 97.0827 83.192 97.584 83.384C98.096 83.576 98.656 83.672 99.264 83.672C100 83.672 100.597 83.5067 101.056 83.176C101.515 82.8347 101.744 82.3707 101.744 81.784C101.744 81.4 101.627 81.1013 101.392 80.888C101.157 80.664 100.853 80.4933 100.48 80.376C100.117 80.2587 99.5253 80.104 98.704 79.912C97.712 79.6773 96.9387 79.4213 96.384 79.144C95.8293 78.8667 95.4293 78.536 95.184 78.152C94.9493 77.7573 94.832 77.2613 94.832 76.664C94.832 76.0347 95.0133 75.4693 95.376 74.968C95.7387 74.4667 96.2347 74.0773 96.864 73.8C97.504 73.5227 98.2187 73.384 99.008 73.384C99.808 73.384 100.512 73.4907 101.12 73.704C101.739 73.9173 102.357 74.264 102.976 74.744C103.136 74.872 103.216 75.0053 103.216 75.144C103.216 75.2613 103.163 75.3893 103.056 75.528L102.704 75.944C102.576 76.0933 102.443 76.168 102.304 76.168C102.176 76.168 102.043 76.1147 101.904 76.008C101.392 75.6133 100.917 75.3413 100.48 75.192C100.043 75.0427 99.5467 74.968 98.992 74.968C98.288 74.968 97.7173 75.1227 97.28 75.432C96.8427 75.7413 96.624 76.1307 96.624 76.6C96.624 76.9413 96.7253 77.2133 96.928 77.416C97.1307 77.6187 97.424 77.784 97.808 77.912C98.192 78.04 98.784 78.1947 99.584 78.376C100.555 78.6107 101.323 78.8613 101.888 79.128C102.453 79.384 102.875 79.7147 103.152 80.12C103.429 80.5253 103.568 81.0427 103.568 81.672C103.568 82.376 103.387 83 103.024 83.544C102.661 84.088 102.155 84.5093 101.504 84.808C100.853 85.1067 100.096 85.256 99.232 85.256ZM106.012 75.576C105.703 75.576 105.441 75.4747 105.228 75.272C105.015 75.0587 104.908 74.808 104.908 74.52C104.908 74.2213 105.015 73.9707 105.228 73.768C105.441 73.5653 105.703 73.464 106.012 73.464C106.321 73.464 106.583 73.5653 106.796 73.768C107.009 73.9707 107.116 74.2213 107.116 74.52C107.116 74.808 107.009 75.0587 106.796 75.272C106.583 75.4747 106.321 75.576 106.012 75.576ZM105.708 85C105.537 85 105.399 84.952 105.292 84.856C105.196 84.7493 105.148 84.6107 105.148 84.44V77.672C105.148 77.4907 105.196 77.352 105.292 77.256C105.399 77.16 105.537 77.112 105.708 77.112H106.284C106.465 77.112 106.604 77.16 106.7 77.256C106.796 77.352 106.844 77.4907 106.844 77.672V84.44C106.844 84.6107 106.796 84.7493 106.7 84.856C106.604 84.952 106.465 85 106.284 85H105.708ZM114.276 77.112C114.457 77.112 114.596 77.16 114.692 77.256C114.788 77.352 114.836 77.4907 114.836 77.672V77.976C114.836 78.2427 114.751 78.4773 114.58 78.68L110.484 83.608H114.276C114.457 83.608 114.596 83.656 114.692 83.752C114.788 83.848 114.836 83.9867 114.836 84.168V84.44C114.836 84.6107 114.788 84.7493 114.692 84.856C114.596 84.952 114.457 85 114.276 85H108.948C108.777 85 108.639 84.952 108.532 84.856C108.436 84.7493 108.388 84.6107 108.388 84.44V84.12C108.388 83.8533 108.473 83.6187 108.644 83.416L112.756 78.488H109.22C109.049 78.488 108.911 78.44 108.804 78.344C108.708 78.2373 108.66 78.0987 108.66 77.928V77.672C108.66 77.4907 108.708 77.352 108.804 77.256C108.911 77.16 109.049 77.112 109.22 77.112H114.276ZM121.843 82.984C121.981 82.8667 122.115 82.808 122.243 82.808C122.371 82.808 122.504 82.8773 122.643 83.016L122.867 83.256C122.984 83.3947 123.043 83.528 123.043 83.656C123.043 83.7947 122.973 83.928 122.835 84.056C122.344 84.4827 121.853 84.7867 121.363 84.968C120.883 85.1493 120.349 85.24 119.763 85.24C118.941 85.24 118.227 85.0693 117.619 84.728C117.021 84.3867 116.557 83.9067 116.227 83.288C115.907 82.6587 115.747 81.9333 115.747 81.112C115.747 80.3013 115.901 79.576 116.211 78.936C116.531 78.2853 116.979 77.7787 117.555 77.416C118.141 77.0533 118.824 76.872 119.603 76.872C120.765 76.872 121.661 77.2187 122.291 77.912C122.92 78.5947 123.235 79.5387 123.235 80.744V80.888C123.224 81.0587 123.171 81.192 123.075 81.288C122.979 81.384 122.84 81.432 122.659 81.432H117.411C117.475 82.136 117.704 82.712 118.099 83.16C118.504 83.5973 119.069 83.816 119.795 83.816C120.189 83.816 120.536 83.7573 120.835 83.64C121.133 83.512 121.469 83.2933 121.843 82.984ZM119.571 78.216C118.984 78.216 118.509 78.392 118.147 78.744C117.795 79.0853 117.565 79.5707 117.459 80.2H121.571C121.528 79.5813 121.336 79.096 120.995 78.744C120.653 78.392 120.179 78.216 119.571 78.216Z" fill="#464646"/>
</svg>
