<svg width="344" height="224" viewBox="0 0 344 224" fill="none" xmlns="http://www.w3.org/2000/svg">
<rect width="344" height="224" fill="#F5F5F5"/>
<rect x="94.5" y="88.5" width="15" height="15" rx="7.5" fill="white" stroke="#767676"/>
<path d="M127.648 101.616C127.691 101.669 127.712 101.728 127.712 101.792C127.712 101.931 127.621 102 127.44 102H126.848C126.688 102 126.56 101.931 126.464 101.792L123.424 97.28H120.512V101.68C120.512 101.893 120.405 102 120.192 102H119.696C119.483 102 119.376 101.893 119.376 101.68V90.96C119.376 90.7467 119.483 90.64 119.696 90.64H123.872C124.96 90.64 125.84 90.9333 126.512 91.52C127.184 92.096 127.52 92.9067 127.52 93.952C127.52 94.8693 127.259 95.6107 126.736 96.176C126.224 96.7413 125.531 97.088 124.656 97.216L127.648 101.616ZM120.512 96.336H123.696C124.539 96.336 125.2 96.1333 125.68 95.728C126.16 95.3227 126.4 94.7307 126.4 93.952C126.4 93.184 126.155 92.5973 125.664 92.192C125.184 91.7867 124.523 91.584 123.68 91.584H120.512V96.336ZM135.162 100.128C135.237 100.053 135.317 100.016 135.402 100.016C135.477 100.016 135.546 100.048 135.61 100.112L135.818 100.304C135.893 100.379 135.93 100.459 135.93 100.544C135.93 100.608 135.898 100.683 135.834 100.768C135.312 101.291 134.805 101.664 134.314 101.888C133.824 102.101 133.274 102.208 132.666 102.208C131.898 102.208 131.232 102.037 130.666 101.696C130.101 101.355 129.664 100.88 129.354 100.272C129.045 99.6533 128.89 98.9387 128.89 98.128C128.89 97.3067 129.04 96.5813 129.338 95.952C129.648 95.312 130.08 94.816 130.634 94.464C131.189 94.1013 131.829 93.92 132.554 93.92C133.632 93.92 134.48 94.256 135.098 94.928C135.717 95.6 136.026 96.5067 136.026 97.648V97.84C136.016 97.936 135.978 98.0107 135.914 98.064C135.861 98.1173 135.786 98.144 135.69 98.144H129.962C129.994 99.04 130.229 99.7973 130.666 100.416C131.114 101.024 131.781 101.328 132.666 101.328C133.146 101.328 133.568 101.243 133.93 101.072C134.304 100.891 134.714 100.576 135.162 100.128ZM132.554 94.8C131.85 94.8 131.269 95.0187 130.81 95.456C130.362 95.8827 130.09 96.512 129.994 97.344H134.97C134.949 96.5653 134.725 95.9467 134.298 95.488C133.872 95.0293 133.29 94.8 132.554 94.8ZM140.818 93.92C141.788 93.92 142.546 94.1547 143.09 94.624C143.634 95.0827 143.906 95.6907 143.906 96.448V101.68C143.906 101.893 143.799 102 143.586 102H143.266C143.052 102 142.946 101.893 142.946 101.68V100.96C142.679 101.387 142.3 101.707 141.81 101.92C141.33 102.133 140.791 102.24 140.194 102.24C139.362 102.24 138.684 102.064 138.162 101.712C137.639 101.36 137.378 100.816 137.378 100.08C137.378 99.4933 137.543 99.024 137.874 98.672C138.204 98.3093 138.636 98.0373 139.17 97.856C139.703 97.664 140.37 97.4933 141.17 97.344L142.898 97.04V96.528C142.898 95.984 142.711 95.5627 142.338 95.264C141.964 94.9547 141.474 94.8 140.866 94.8C140.407 94.8 139.991 94.8853 139.618 95.056C139.244 95.2267 138.844 95.52 138.418 95.936C138.343 96.0107 138.263 96.048 138.178 96.048C138.103 96.048 138.034 96.016 137.97 95.952L137.762 95.76C137.687 95.6853 137.65 95.6053 137.65 95.52C137.65 95.424 137.687 95.3387 137.762 95.264C138.21 94.7947 138.679 94.4533 139.17 94.24C139.671 94.0267 140.22 93.92 140.818 93.92ZM140.242 101.36C141.01 101.36 141.644 101.157 142.146 100.752C142.647 100.347 142.898 99.8293 142.898 99.2V97.856L141.41 98.144C140.716 98.2827 140.167 98.416 139.762 98.544C139.356 98.672 139.031 98.8587 138.786 99.104C138.54 99.3493 138.418 99.6693 138.418 100.064C138.418 100.469 138.578 100.789 138.898 101.024C139.228 101.248 139.676 101.36 140.242 101.36ZM151.943 90.96C151.943 90.7467 152.049 90.64 152.263 90.64H152.679C152.892 90.64 152.999 90.7467 152.999 90.96V101.68C152.999 101.893 152.892 102 152.679 102H152.343C152.129 102 152.023 101.893 152.023 101.68V100.64C151.735 101.141 151.356 101.525 150.887 101.792C150.417 102.059 149.863 102.192 149.223 102.192C148.551 102.192 147.953 102.021 147.431 101.68C146.908 101.328 146.497 100.843 146.199 100.224C145.9 99.5947 145.751 98.8747 145.751 98.064C145.751 97.2533 145.9 96.5387 146.199 95.92C146.508 95.2907 146.929 94.8053 147.463 94.464C147.996 94.112 148.593 93.936 149.255 93.936C150.471 93.936 151.367 94.3893 151.943 95.296V90.96ZM149.303 101.296C150.103 101.296 150.748 101.013 151.239 100.448C151.74 99.872 151.991 99.0773 151.991 98.064C151.991 97.0613 151.74 96.272 151.239 95.696C150.748 95.12 150.103 94.832 149.303 94.832C148.567 94.832 147.969 95.1307 147.511 95.728C147.063 96.3253 146.839 97.104 146.839 98.064C146.839 99.0347 147.063 99.8187 147.511 100.416C147.959 101.003 148.556 101.296 149.303 101.296ZM155.9 92.112C155.686 92.112 155.505 92.0373 155.356 91.888C155.217 91.7387 155.148 91.5573 155.148 91.344C155.148 91.1307 155.217 90.9547 155.356 90.816C155.505 90.6773 155.686 90.608 155.9 90.608C156.124 90.608 156.305 90.6773 156.444 90.816C156.593 90.9547 156.668 91.1307 156.668 91.344C156.668 91.5573 156.593 91.7387 156.444 91.888C156.305 92.0373 156.124 92.112 155.9 92.112ZM155.692 102C155.478 102 155.372 101.893 155.372 101.68V94.432C155.372 94.2187 155.478 94.112 155.692 94.112H156.108C156.321 94.112 156.428 94.2187 156.428 94.432V101.68C156.428 101.893 156.321 102 156.108 102H155.692ZM162.298 93.92C163.226 93.92 163.924 94.176 164.394 94.688C164.874 95.2 165.114 95.84 165.114 96.608V101.68C165.114 101.893 165.007 102 164.794 102H164.378C164.164 102 164.058 101.893 164.058 101.68V96.96C164.058 96.256 163.887 95.7227 163.546 95.36C163.204 94.9973 162.714 94.816 162.074 94.816C161.668 94.816 161.295 94.9173 160.954 95.12C160.612 95.312 160.34 95.5787 160.138 95.92C159.935 96.2613 159.834 96.6347 159.834 97.04V101.68C159.834 101.893 159.727 102 159.514 102H159.098C158.884 102 158.778 101.893 158.778 101.68V94.432C158.778 94.2187 158.884 94.112 159.098 94.112H159.45C159.663 94.112 159.77 94.2187 159.77 94.432V95.2C160.036 94.7733 160.388 94.4533 160.826 94.24C161.263 94.0267 161.754 93.92 162.298 93.92ZM173.114 94.432C173.114 94.2187 173.22 94.112 173.434 94.112H173.77C173.983 94.112 174.09 94.2187 174.09 94.432V101.92C174.09 102.912 173.791 103.691 173.194 104.256C172.596 104.832 171.759 105.12 170.682 105.12C169.519 105.12 168.447 104.789 167.466 104.128C167.359 104.064 167.306 103.984 167.306 103.888C167.306 103.813 167.327 103.749 167.37 103.696L167.562 103.424C167.626 103.317 167.711 103.264 167.818 103.264C167.86 103.264 167.924 103.285 168.01 103.328C168.479 103.627 168.916 103.851 169.322 104C169.738 104.149 170.191 104.224 170.682 104.224C171.386 104.224 171.956 104.027 172.394 103.632C172.831 103.248 173.05 102.651 173.05 101.84V100.56C172.474 101.488 171.599 101.952 170.426 101.952C169.743 101.952 169.14 101.781 168.618 101.44C168.095 101.088 167.69 100.608 167.402 100C167.124 99.392 166.986 98.704 166.986 97.936C166.986 97.168 167.124 96.48 167.402 95.872C167.69 95.264 168.095 94.7893 168.618 94.448C169.14 94.096 169.743 93.92 170.426 93.92C171.044 93.92 171.578 94.0533 172.026 94.32C172.484 94.576 172.847 94.944 173.114 95.424V94.432ZM170.538 101.056C171.306 101.056 171.919 100.768 172.378 100.192C172.836 99.6053 173.066 98.8533 173.066 97.936C173.066 97.0187 172.836 96.272 172.378 95.696C171.919 95.1093 171.306 94.816 170.538 94.816C169.759 94.816 169.151 95.104 168.714 95.68C168.287 96.256 168.074 97.008 168.074 97.936C168.074 98.864 168.287 99.616 168.714 100.192C169.151 100.768 169.759 101.056 170.538 101.056Z" fill="#464646"/>
<rect x="94.5" y="126.5" width="15" height="15" rx="7.5" fill="white" stroke="#767676"/>
<path d="M128.304 128.896C128.368 128.725 128.491 128.64 128.672 128.64H129.92C130.133 128.64 130.24 128.747 130.24 128.96V139.68C130.24 139.893 130.133 140 129.92 140H129.456C129.243 140 129.136 139.893 129.136 139.68V134.368C129.136 133.227 129.147 131.579 129.168 129.424C128.731 130.672 128.133 132.32 127.376 134.368L125.408 139.744C125.344 139.915 125.221 140 125.04 140H124.576C124.395 140 124.272 139.915 124.208 139.744L122.192 134.352C121.765 133.243 121.173 131.6 120.416 129.424C120.437 131.579 120.448 133.232 120.448 134.384V139.68C120.448 139.893 120.341 140 120.128 140H119.696C119.483 140 119.376 139.893 119.376 139.68V128.96C119.376 128.747 119.483 128.64 119.696 128.64H120.928C121.109 128.64 121.232 128.725 121.296 128.896L123.12 133.808C123.963 136.101 124.528 137.717 124.816 138.656C125.083 137.76 125.541 136.421 126.192 134.64C126.235 134.523 126.283 134.395 126.336 134.256C126.389 134.117 126.443 133.968 126.496 133.808L128.304 128.896ZM137.913 132.432C137.913 132.219 138.02 132.112 138.233 132.112H138.649C138.863 132.112 138.969 132.219 138.969 132.432V139.68C138.969 139.893 138.863 140 138.649 140H138.313C138.1 140 137.993 139.893 137.993 139.68V138.96C137.759 139.376 137.423 139.691 136.985 139.904C136.559 140.107 136.089 140.208 135.577 140.208C134.617 140.208 133.908 139.968 133.449 139.488C132.991 138.997 132.761 138.368 132.761 137.6V132.432C132.761 132.219 132.868 132.112 133.081 132.112H133.497C133.711 132.112 133.817 132.219 133.817 132.432V137.376C133.817 138.005 133.972 138.485 134.281 138.816C134.601 139.136 135.055 139.296 135.641 139.296C136.303 139.296 136.847 139.093 137.273 138.688C137.7 138.283 137.913 137.707 137.913 136.96V132.432ZM144.092 140.208C143.442 140.208 142.866 140.117 142.364 139.936C141.874 139.744 141.356 139.424 140.812 138.976C140.716 138.912 140.668 138.837 140.668 138.752C140.668 138.677 140.706 138.603 140.78 138.528L140.988 138.304C141.052 138.219 141.132 138.176 141.228 138.176C141.303 138.176 141.372 138.208 141.436 138.272C141.948 138.667 142.402 138.944 142.796 139.104C143.191 139.253 143.623 139.328 144.092 139.328C144.679 139.328 145.159 139.2 145.532 138.944C145.906 138.677 146.092 138.32 146.092 137.872C146.092 137.424 145.9 137.093 145.516 136.88C145.132 136.667 144.54 136.475 143.74 136.304C143.036 136.155 142.482 136 142.076 135.84C141.682 135.669 141.388 135.456 141.196 135.2C141.004 134.944 140.908 134.608 140.908 134.192C140.908 133.509 141.186 132.96 141.74 132.544C142.295 132.128 142.994 131.92 143.836 131.92C144.412 131.92 144.924 131.995 145.372 132.144C145.831 132.283 146.29 132.517 146.748 132.848C146.844 132.923 146.892 133.003 146.892 133.088C146.892 133.141 146.866 133.211 146.812 133.296L146.62 133.536C146.567 133.621 146.492 133.664 146.396 133.664C146.311 133.664 146.236 133.637 146.172 133.584C145.735 133.275 145.346 133.067 145.004 132.96C144.674 132.853 144.295 132.8 143.868 132.8C143.282 132.8 142.812 132.928 142.46 133.184C142.108 133.44 141.932 133.765 141.932 134.16C141.932 134.405 142.012 134.603 142.172 134.752C142.332 134.901 142.562 135.029 142.86 135.136C143.159 135.232 143.596 135.344 144.172 135.472C145.239 135.707 145.996 135.995 146.444 136.336C146.903 136.677 147.132 137.173 147.132 137.824C147.132 138.539 146.85 139.115 146.284 139.552C145.719 139.989 144.988 140.208 144.092 140.208ZM149.446 130.112C149.233 130.112 149.052 130.037 148.902 129.888C148.764 129.739 148.694 129.557 148.694 129.344C148.694 129.131 148.764 128.955 148.902 128.816C149.052 128.677 149.233 128.608 149.446 128.608C149.67 128.608 149.852 128.677 149.99 128.816C150.14 128.955 150.214 129.131 150.214 129.344C150.214 129.557 150.14 129.739 149.99 129.888C149.852 130.037 149.67 130.112 149.446 130.112ZM149.238 140C149.025 140 148.918 139.893 148.918 139.68V132.432C148.918 132.219 149.025 132.112 149.238 132.112H149.654C149.868 132.112 149.974 132.219 149.974 132.432V139.68C149.974 139.893 149.868 140 149.654 140H149.238ZM155.525 140.208C154.767 140.208 154.106 140.037 153.541 139.696C152.986 139.344 152.554 138.859 152.245 138.24C151.946 137.611 151.797 136.885 151.797 136.064C151.797 135.253 151.946 134.533 152.245 133.904C152.554 133.275 152.986 132.789 153.541 132.448C154.106 132.096 154.757 131.92 155.493 131.92C156.09 131.92 156.613 132.021 157.061 132.224C157.509 132.416 157.941 132.736 158.357 133.184C158.421 133.248 158.453 133.317 158.453 133.392C158.453 133.488 158.41 133.568 158.325 133.632L158.101 133.84C158.037 133.904 157.962 133.936 157.877 133.936C157.802 133.936 157.722 133.893 157.637 133.808C157.263 133.435 156.906 133.173 156.565 133.024C156.234 132.875 155.866 132.8 155.461 132.8C154.906 132.8 154.431 132.955 154.037 133.264C153.653 133.573 153.365 133.979 153.173 134.48C152.981 134.971 152.885 135.499 152.885 136.064C152.885 136.629 152.981 137.163 153.173 137.664C153.365 138.155 153.658 138.555 154.053 138.864C154.447 139.163 154.933 139.312 155.509 139.312C155.935 139.312 156.309 139.237 156.629 139.088C156.959 138.928 157.327 138.629 157.733 138.192C157.818 138.107 157.898 138.064 157.973 138.064C158.058 138.064 158.133 138.096 158.197 138.16L158.421 138.336C158.495 138.4 158.533 138.475 158.533 138.56C158.533 138.645 158.485 138.747 158.389 138.864C157.941 139.355 157.493 139.701 157.045 139.904C156.597 140.107 156.09 140.208 155.525 140.208Z" fill="#464646"/>
<rect x="94.5" y="164.5" width="15" height="15" rx="7.5" fill="white" stroke="#767676"/>
<path d="M122.496 178C122.283 178 122.176 177.893 122.176 177.68V167.584H118.832C118.619 167.584 118.512 167.477 118.512 167.264V166.96C118.512 166.747 118.619 166.64 118.832 166.64H126.64C126.853 166.64 126.96 166.747 126.96 166.96V167.264C126.96 167.477 126.853 167.584 126.64 167.584H123.312V177.68C123.312 177.893 123.205 178 122.992 178H122.496ZM130.316 170.048C130.582 170.048 130.897 170.091 131.26 170.176C131.452 170.24 131.526 170.373 131.484 170.576L131.42 170.832C131.366 171.035 131.233 171.109 131.02 171.056C130.764 170.992 130.529 170.96 130.316 170.96C129.772 170.96 129.318 171.195 128.956 171.664C128.604 172.133 128.428 172.784 128.428 173.616V177.68C128.428 177.893 128.321 178 128.108 178H127.692C127.478 178 127.372 177.893 127.372 177.68V170.432C127.372 170.219 127.478 170.112 127.692 170.112H128.044C128.257 170.112 128.364 170.219 128.364 170.432V171.312C128.545 170.917 128.801 170.608 129.132 170.384C129.473 170.16 129.868 170.048 130.316 170.048ZM135.755 169.92C136.726 169.92 137.483 170.155 138.027 170.624C138.571 171.083 138.843 171.691 138.843 172.448V177.68C138.843 177.893 138.737 178 138.523 178H138.203C137.99 178 137.883 177.893 137.883 177.68V176.96C137.617 177.387 137.238 177.707 136.747 177.92C136.267 178.133 135.729 178.24 135.131 178.24C134.299 178.24 133.622 178.064 133.099 177.712C132.577 177.36 132.315 176.816 132.315 176.08C132.315 175.493 132.481 175.024 132.811 174.672C133.142 174.309 133.574 174.037 134.107 173.856C134.641 173.664 135.307 173.493 136.107 173.344L137.835 173.04V172.528C137.835 171.984 137.649 171.563 137.275 171.264C136.902 170.955 136.411 170.8 135.803 170.8C135.345 170.8 134.929 170.885 134.555 171.056C134.182 171.227 133.782 171.52 133.355 171.936C133.281 172.011 133.201 172.048 133.115 172.048C133.041 172.048 132.971 172.016 132.907 171.952L132.699 171.76C132.625 171.685 132.587 171.605 132.587 171.52C132.587 171.424 132.625 171.339 132.699 171.264C133.147 170.795 133.617 170.453 134.107 170.24C134.609 170.027 135.158 169.92 135.755 169.92ZM135.179 177.36C135.947 177.36 136.582 177.157 137.083 176.752C137.585 176.347 137.835 175.829 137.835 175.2V173.856L136.347 174.144C135.654 174.283 135.105 174.416 134.699 174.544C134.294 174.672 133.969 174.859 133.723 175.104C133.478 175.349 133.355 175.669 133.355 176.064C133.355 176.469 133.515 176.789 133.835 177.024C134.166 177.248 134.614 177.36 135.179 177.36ZM145.876 170.368C145.94 170.197 146.063 170.112 146.244 170.112H146.66C146.745 170.112 146.815 170.133 146.868 170.176C146.921 170.219 146.948 170.277 146.948 170.352L146.916 170.48L144.372 177.744C144.308 177.915 144.185 178 144.004 178H143.156C142.975 178 142.852 177.915 142.788 177.744L140.26 170.48L140.228 170.352C140.228 170.277 140.255 170.219 140.308 170.176C140.361 170.133 140.431 170.112 140.516 170.112H140.948C141.129 170.112 141.252 170.197 141.316 170.368L142.292 173.184C142.697 174.357 143.129 175.707 143.588 177.232C143.609 177.168 143.668 176.987 143.764 176.688C144.201 175.248 144.58 174.08 144.9 173.184L145.876 170.368ZM154.162 176.128C154.237 176.053 154.317 176.016 154.402 176.016C154.477 176.016 154.546 176.048 154.61 176.112L154.818 176.304C154.893 176.379 154.93 176.459 154.93 176.544C154.93 176.608 154.898 176.683 154.834 176.768C154.312 177.291 153.805 177.664 153.314 177.888C152.824 178.101 152.274 178.208 151.666 178.208C150.898 178.208 150.232 178.037 149.666 177.696C149.101 177.355 148.664 176.88 148.354 176.272C148.045 175.653 147.89 174.939 147.89 174.128C147.89 173.307 148.04 172.581 148.338 171.952C148.648 171.312 149.08 170.816 149.634 170.464C150.189 170.101 150.829 169.92 151.554 169.92C152.632 169.92 153.48 170.256 154.098 170.928C154.717 171.6 155.026 172.507 155.026 173.648V173.84C155.016 173.936 154.978 174.011 154.914 174.064C154.861 174.117 154.786 174.144 154.69 174.144H148.962C148.994 175.04 149.229 175.797 149.666 176.416C150.114 177.024 150.781 177.328 151.666 177.328C152.146 177.328 152.568 177.243 152.93 177.072C153.304 176.891 153.714 176.576 154.162 176.128ZM151.554 170.8C150.85 170.8 150.269 171.019 149.81 171.456C149.362 171.883 149.09 172.512 148.994 173.344H153.97C153.949 172.565 153.725 171.947 153.298 171.488C152.872 171.029 152.29 170.8 151.554 170.8ZM157.254 178C157.041 178 156.934 177.893 156.934 177.68V166.96C156.934 166.747 157.041 166.64 157.254 166.64H157.67C157.884 166.64 157.99 166.747 157.99 166.96V177.68C157.99 177.893 157.884 178 157.67 178H157.254Z" fill="#464646"/>
<path d="M99.232 56.256C98.3573 56.256 97.5733 56.1333 96.88 55.888C96.1973 55.632 95.4933 55.2053 94.768 54.608C94.6187 54.4907 94.544 54.352 94.544 54.192C94.544 54.0533 94.5973 53.9253 94.704 53.808L95.072 53.376C95.1893 53.2267 95.3227 53.152 95.472 53.152C95.5893 53.152 95.7227 53.2107 95.872 53.328C96.512 53.84 97.0827 54.192 97.584 54.384C98.096 54.576 98.656 54.672 99.264 54.672C100 54.672 100.597 54.5067 101.056 54.176C101.515 53.8347 101.744 53.3707 101.744 52.784C101.744 52.4 101.627 52.1013 101.392 51.888C101.157 51.664 100.853 51.4933 100.48 51.376C100.117 51.2587 99.5253 51.104 98.704 50.912C97.712 50.6773 96.9387 50.4213 96.384 50.144C95.8293 49.8667 95.4293 49.536 95.184 49.152C94.9493 48.7573 94.832 48.2613 94.832 47.664C94.832 47.0347 95.0133 46.4693 95.376 45.968C95.7387 45.4667 96.2347 45.0773 96.864 44.8C97.504 44.5227 98.2187 44.384 99.008 44.384C99.808 44.384 100.512 44.4907 101.12 44.704C101.739 44.9173 102.357 45.264 102.976 45.744C103.136 45.872 103.216 46.0053 103.216 46.144C103.216 46.2613 103.163 46.3893 103.056 46.528L102.704 46.944C102.576 47.0933 102.443 47.168 102.304 47.168C102.176 47.168 102.043 47.1147 101.904 47.008C101.392 46.6133 100.917 46.3413 100.48 46.192C100.043 46.0427 99.5467 45.968 98.992 45.968C98.288 45.968 97.7173 46.1227 97.28 46.432C96.8427 46.7413 96.624 47.1307 96.624 47.6C96.624 47.9413 96.7253 48.2133 96.928 48.416C97.1307 48.6187 97.424 48.784 97.808 48.912C98.192 49.04 98.784 49.1947 99.584 49.376C100.555 49.6107 101.323 49.8613 101.888 50.128C102.453 50.384 102.875 50.7147 103.152 51.12C103.429 51.5253 103.568 52.0427 103.568 52.672C103.568 53.376 103.387 54 103.024 54.544C102.661 55.088 102.155 55.5093 101.504 55.808C100.853 56.1067 100.096 56.256 99.232 56.256ZM106.012 46.576C105.703 46.576 105.441 46.4747 105.228 46.272C105.015 46.0587 104.908 45.808 104.908 45.52C104.908 45.2213 105.015 44.9707 105.228 44.768C105.441 44.5653 105.703 44.464 106.012 44.464C106.321 44.464 106.583 44.5653 106.796 44.768C107.009 44.9707 107.116 45.2213 107.116 45.52C107.116 45.808 107.009 46.0587 106.796 46.272C106.583 46.4747 106.321 46.576 106.012 46.576ZM105.708 56C105.537 56 105.399 55.952 105.292 55.856C105.196 55.7493 105.148 55.6107 105.148 55.44V48.672C105.148 48.4907 105.196 48.352 105.292 48.256C105.399 48.16 105.537 48.112 105.708 48.112H106.284C106.465 48.112 106.604 48.16 106.7 48.256C106.796 48.352 106.844 48.4907 106.844 48.672V55.44C106.844 55.6107 106.796 55.7493 106.7 55.856C106.604 55.952 106.465 56 106.284 56H105.708ZM114.276 48.112C114.457 48.112 114.596 48.16 114.692 48.256C114.788 48.352 114.836 48.4907 114.836 48.672V48.976C114.836 49.2427 114.751 49.4773 114.58 49.68L110.484 54.608H114.276C114.457 54.608 114.596 54.656 114.692 54.752C114.788 54.848 114.836 54.9867 114.836 55.168V55.44C114.836 55.6107 114.788 55.7493 114.692 55.856C114.596 55.952 114.457 56 114.276 56H108.948C108.777 56 108.639 55.952 108.532 55.856C108.436 55.7493 108.388 55.6107 108.388 55.44V55.12C108.388 54.8533 108.473 54.6187 108.644 54.416L112.756 49.488H109.22C109.049 49.488 108.911 49.44 108.804 49.344C108.708 49.2373 108.66 49.0987 108.66 48.928V48.672C108.66 48.4907 108.708 48.352 108.804 48.256C108.911 48.16 109.049 48.112 109.22 48.112H114.276ZM121.843 53.984C121.981 53.8667 122.115 53.808 122.243 53.808C122.371 53.808 122.504 53.8773 122.643 54.016L122.867 54.256C122.984 54.3947 123.043 54.528 123.043 54.656C123.043 54.7947 122.973 54.928 122.835 55.056C122.344 55.4827 121.853 55.7867 121.363 55.968C120.883 56.1493 120.349 56.24 119.763 56.24C118.941 56.24 118.227 56.0693 117.619 55.728C117.021 55.3867 116.557 54.9067 116.227 54.288C115.907 53.6587 115.747 52.9333 115.747 52.112C115.747 51.3013 115.901 50.576 116.211 49.936C116.531 49.2853 116.979 48.7787 117.555 48.416C118.141 48.0533 118.824 47.872 119.603 47.872C120.765 47.872 121.661 48.2187 122.291 48.912C122.92 49.5947 123.235 50.5387 123.235 51.744V51.888C123.224 52.0587 123.171 52.192 123.075 52.288C122.979 52.384 122.84 52.432 122.659 52.432H117.411C117.475 53.136 117.704 53.712 118.099 54.16C118.504 54.5973 119.069 54.816 119.795 54.816C120.189 54.816 120.536 54.7573 120.835 54.64C121.133 54.512 121.469 54.2933 121.843 53.984ZM119.571 49.216C118.984 49.216 118.509 49.392 118.147 49.744C117.795 50.0853 117.565 50.5707 117.459 51.2H121.571C121.528 50.5813 121.336 50.096 120.995 49.744C120.653 49.392 120.179 49.216 119.571 49.216Z" fill="#464646"/>
</svg>
