<svg width="344" height="172" viewBox="0 0 344 172" fill="none" xmlns="http://www.w3.org/2000/svg">
<rect width="344" height="172" fill="#F5F5F5"/>
<rect x="72.5" y="74.5" width="15" height="15" rx="7.5" fill="white" stroke="#767676"/>
<path d="M105.136 76.96C105.136 76.7467 105.243 76.64 105.456 76.64H105.92C106.133 76.64 106.24 76.7467 106.24 76.96V87.68C106.24 87.8933 106.133 88 105.92 88H105.2C105.029 88 104.896 87.9307 104.8 87.792L101.36 82.576L101.168 82.272C99.888 80.352 98.9707 78.9387 98.416 78.032C98.4587 79.28 98.48 80.72 98.48 82.352V87.68C98.48 87.8933 98.3733 88 98.16 88H97.696C97.4827 88 97.376 87.8933 97.376 87.68V76.96C97.376 76.7467 97.4827 76.64 97.696 76.64H98.416C98.5867 76.64 98.72 76.7093 98.816 76.848L102.24 82.048L102.848 82.992C103.925 84.624 104.709 85.84 105.2 86.64C105.157 85.3707 105.136 83.9253 105.136 82.304V76.96ZM112.057 88.208C111.321 88.208 110.665 88.032 110.089 87.68C109.513 87.328 109.065 86.8427 108.745 86.224C108.425 85.5947 108.265 84.8747 108.265 84.064C108.265 83.2533 108.425 82.5387 108.745 81.92C109.065 81.2907 109.513 80.8 110.089 80.448C110.665 80.096 111.321 79.92 112.057 79.92C112.793 79.92 113.449 80.096 114.025 80.448C114.601 80.8 115.049 81.2907 115.369 81.92C115.689 82.5387 115.849 83.2533 115.849 84.064C115.849 84.8747 115.689 85.5947 115.369 86.224C115.049 86.8427 114.601 87.328 114.025 87.68C113.449 88.032 112.793 88.208 112.057 88.208ZM112.057 87.328C112.879 87.328 113.535 87.0293 114.025 86.432C114.516 85.824 114.761 85.0347 114.761 84.064C114.761 83.0933 114.516 82.3093 114.025 81.712C113.535 81.104 112.879 80.8 112.057 80.8C111.236 80.8 110.58 81.104 110.089 81.712C109.599 82.3093 109.353 83.0933 109.353 84.064C109.353 85.0347 109.599 85.824 110.089 86.432C110.58 87.0293 111.236 87.328 112.057 87.328ZM121.002 87.12C121.034 87.1093 121.076 87.104 121.13 87.104C121.194 87.104 121.252 87.1253 121.306 87.168C121.359 87.2107 121.391 87.2693 121.402 87.344L121.45 87.568C121.46 87.5893 121.466 87.6267 121.466 87.68C121.466 87.8293 121.386 87.92 121.226 87.952C120.842 88.0693 120.431 88.128 119.994 88.128C119.3 88.128 118.804 87.9733 118.506 87.664C118.218 87.344 118.074 86.8853 118.074 86.288V80.912H116.89C116.676 80.912 116.57 80.8053 116.57 80.592V80.432C116.57 80.2187 116.676 80.112 116.89 80.112H118.074V77.68C118.074 77.4667 118.18 77.36 118.394 77.36H118.81C119.023 77.36 119.13 77.4667 119.13 77.68V80.112H121.05C121.263 80.112 121.37 80.2187 121.37 80.432V80.592C121.37 80.8053 121.263 80.912 121.05 80.912H119.13V86.16C119.13 86.5547 119.204 86.832 119.354 86.992C119.503 87.152 119.759 87.232 120.122 87.232C120.378 87.232 120.671 87.1947 121.002 87.12ZM129.42 88.208C128.77 88.208 128.194 88.1173 127.692 87.936C127.202 87.744 126.684 87.424 126.14 86.976C126.044 86.912 125.996 86.8373 125.996 86.752C125.996 86.6773 126.034 86.6027 126.108 86.528L126.316 86.304C126.38 86.2187 126.46 86.176 126.556 86.176C126.631 86.176 126.7 86.208 126.764 86.272C127.276 86.6667 127.73 86.944 128.124 87.104C128.519 87.2533 128.951 87.328 129.42 87.328C130.007 87.328 130.487 87.2 130.86 86.944C131.234 86.6773 131.42 86.32 131.42 85.872C131.42 85.424 131.228 85.0933 130.844 84.88C130.46 84.6667 129.868 84.4747 129.068 84.304C128.364 84.1547 127.81 84 127.404 83.84C127.01 83.6693 126.716 83.456 126.524 83.2C126.332 82.944 126.236 82.608 126.236 82.192C126.236 81.5093 126.514 80.96 127.068 80.544C127.623 80.128 128.322 79.92 129.164 79.92C129.74 79.92 130.252 79.9947 130.7 80.144C131.159 80.2827 131.618 80.5173 132.076 80.848C132.172 80.9227 132.22 81.0027 132.22 81.088C132.22 81.1413 132.194 81.2107 132.14 81.296L131.948 81.536C131.895 81.6213 131.82 81.664 131.724 81.664C131.639 81.664 131.564 81.6373 131.5 81.584C131.063 81.2747 130.674 81.0667 130.332 80.96C130.002 80.8533 129.623 80.8 129.196 80.8C128.61 80.8 128.14 80.928 127.788 81.184C127.436 81.44 127.26 81.7653 127.26 82.16C127.26 82.4053 127.34 82.6027 127.5 82.752C127.66 82.9013 127.89 83.0293 128.188 83.136C128.487 83.232 128.924 83.344 129.5 83.472C130.567 83.7067 131.324 83.9947 131.772 84.336C132.231 84.6773 132.46 85.1733 132.46 85.824C132.46 86.5387 132.178 87.1147 131.612 87.552C131.047 87.9893 130.316 88.208 129.42 88.208ZM139.991 86.128C140.065 86.0533 140.145 86.016 140.231 86.016C140.305 86.016 140.375 86.048 140.439 86.112L140.647 86.304C140.721 86.3787 140.759 86.4587 140.759 86.544C140.759 86.608 140.727 86.6827 140.663 86.768C140.14 87.2907 139.633 87.664 139.143 87.888C138.652 88.1013 138.103 88.208 137.495 88.208C136.727 88.208 136.06 88.0373 135.495 87.696C134.929 87.3547 134.492 86.88 134.183 86.272C133.873 85.6533 133.719 84.9387 133.719 84.128C133.719 83.3067 133.868 82.5813 134.167 81.952C134.476 81.312 134.908 80.816 135.463 80.464C136.017 80.1013 136.657 79.92 137.383 79.92C138.46 79.92 139.308 80.256 139.927 80.928C140.545 81.6 140.855 82.5067 140.855 83.648V83.84C140.844 83.936 140.807 84.0107 140.743 84.064C140.689 84.1173 140.615 84.144 140.519 84.144H134.791C134.823 85.04 135.057 85.7973 135.495 86.416C135.943 87.024 136.609 87.328 137.495 87.328C137.975 87.328 138.396 87.2427 138.759 87.072C139.132 86.8907 139.543 86.576 139.991 86.128ZM137.383 80.8C136.679 80.8 136.097 81.0187 135.639 81.456C135.191 81.8827 134.919 82.512 134.823 83.344H139.799C139.777 82.5653 139.553 81.9467 139.127 81.488C138.7 81.0293 138.119 80.8 137.383 80.8ZM143.083 88C142.869 88 142.763 87.8933 142.763 87.68V76.96C142.763 76.7467 142.869 76.64 143.083 76.64H143.499C143.712 76.64 143.819 76.7467 143.819 76.96V87.68C143.819 87.8933 143.712 88 143.499 88H143.083ZM151.944 86.128C152.018 86.0533 152.098 86.016 152.184 86.016C152.258 86.016 152.328 86.048 152.392 86.112L152.6 86.304C152.674 86.3787 152.712 86.4587 152.712 86.544C152.712 86.608 152.68 86.6827 152.616 86.768C152.093 87.2907 151.586 87.664 151.096 87.888C150.605 88.1013 150.056 88.208 149.448 88.208C148.68 88.208 148.013 88.0373 147.448 87.696C146.882 87.3547 146.445 86.88 146.136 86.272C145.826 85.6533 145.672 84.9387 145.672 84.128C145.672 83.3067 145.821 82.5813 146.12 81.952C146.429 81.312 146.861 80.816 147.416 80.464C147.97 80.1013 148.61 79.92 149.336 79.92C150.413 79.92 151.261 80.256 151.88 80.928C152.498 81.6 152.808 82.5067 152.808 83.648V83.84C152.797 83.936 152.76 84.0107 152.696 84.064C152.642 84.1173 152.568 84.144 152.472 84.144H146.744C146.776 85.04 147.01 85.7973 147.448 86.416C147.896 87.024 148.562 87.328 149.448 87.328C149.928 87.328 150.349 87.2427 150.712 87.072C151.085 86.8907 151.496 86.576 151.944 86.128ZM149.336 80.8C148.632 80.8 148.05 81.0187 147.592 81.456C147.144 81.8827 146.872 82.512 146.776 83.344H151.752C151.73 82.5653 151.506 81.9467 151.08 81.488C150.653 81.0293 150.072 80.8 149.336 80.8ZM157.915 88.208C157.158 88.208 156.497 88.0373 155.931 87.696C155.377 87.344 154.945 86.8587 154.635 86.24C154.337 85.6107 154.187 84.8853 154.187 84.064C154.187 83.2533 154.337 82.5333 154.635 81.904C154.945 81.2747 155.377 80.7893 155.931 80.448C156.497 80.096 157.147 79.92 157.883 79.92C158.481 79.92 159.003 80.0213 159.451 80.224C159.899 80.416 160.331 80.736 160.747 81.184C160.811 81.248 160.843 81.3173 160.843 81.392C160.843 81.488 160.801 81.568 160.715 81.632L160.491 81.84C160.427 81.904 160.353 81.936 160.267 81.936C160.193 81.936 160.113 81.8933 160.027 81.808C159.654 81.4347 159.297 81.1733 158.955 81.024C158.625 80.8747 158.257 80.8 157.851 80.8C157.297 80.8 156.822 80.9547 156.427 81.264C156.043 81.5733 155.755 81.9787 155.563 82.48C155.371 82.9707 155.275 83.4987 155.275 84.064C155.275 84.6293 155.371 85.1627 155.563 85.664C155.755 86.1547 156.049 86.5547 156.443 86.864C156.838 87.1627 157.323 87.312 157.899 87.312C158.326 87.312 158.699 87.2373 159.019 87.088C159.35 86.928 159.718 86.6293 160.123 86.192C160.209 86.1067 160.289 86.064 160.363 86.064C160.449 86.064 160.523 86.096 160.587 86.16L160.811 86.336C160.886 86.4 160.923 86.4747 160.923 86.56C160.923 86.6453 160.875 86.7467 160.779 86.864C160.331 87.3547 159.883 87.7013 159.435 87.904C158.987 88.1067 158.481 88.208 157.915 88.208ZM166.236 87.12C166.268 87.1093 166.311 87.104 166.364 87.104C166.428 87.104 166.487 87.1253 166.54 87.168C166.593 87.2107 166.625 87.2693 166.636 87.344L166.684 87.568C166.695 87.5893 166.7 87.6267 166.7 87.68C166.7 87.8293 166.62 87.92 166.46 87.952C166.076 88.0693 165.665 88.128 165.228 88.128C164.535 88.128 164.039 87.9733 163.74 87.664C163.452 87.344 163.308 86.8853 163.308 86.288V80.912H162.124C161.911 80.912 161.804 80.8053 161.804 80.592V80.432C161.804 80.2187 161.911 80.112 162.124 80.112H163.308V77.68C163.308 77.4667 163.415 77.36 163.628 77.36H164.044C164.257 77.36 164.364 77.4667 164.364 77.68V80.112H166.284C166.497 80.112 166.604 80.2187 166.604 80.432V80.592C166.604 80.8053 166.497 80.912 166.284 80.912H164.364V86.16C164.364 86.5547 164.439 86.832 164.588 86.992C164.737 87.152 164.993 87.232 165.356 87.232C165.612 87.232 165.905 87.1947 166.236 87.12ZM173.662 86.128C173.737 86.0533 173.817 86.016 173.902 86.016C173.977 86.016 174.046 86.048 174.11 86.112L174.318 86.304C174.393 86.3787 174.43 86.4587 174.43 86.544C174.43 86.608 174.398 86.6827 174.334 86.768C173.812 87.2907 173.305 87.664 172.814 87.888C172.324 88.1013 171.774 88.208 171.166 88.208C170.398 88.208 169.732 88.0373 169.166 87.696C168.601 87.3547 168.164 86.88 167.854 86.272C167.545 85.6533 167.39 84.9387 167.39 84.128C167.39 83.3067 167.54 82.5813 167.838 81.952C168.148 81.312 168.58 80.816 169.134 80.464C169.689 80.1013 170.329 79.92 171.054 79.92C172.132 79.92 172.98 80.256 173.598 80.928C174.217 81.6 174.526 82.5067 174.526 83.648V83.84C174.516 83.936 174.478 84.0107 174.414 84.064C174.361 84.1173 174.286 84.144 174.19 84.144H168.462C168.494 85.04 168.729 85.7973 169.166 86.416C169.614 87.024 170.281 87.328 171.166 87.328C171.646 87.328 172.068 87.2427 172.43 87.072C172.804 86.8907 173.214 86.576 173.662 86.128ZM171.054 80.8C170.35 80.8 169.769 81.0187 169.31 81.456C168.862 81.8827 168.59 82.512 168.494 83.344H173.47C173.449 82.5653 173.225 81.9467 172.798 81.488C172.372 81.0293 171.79 80.8 171.054 80.8ZM182.13 76.96C182.13 76.7467 182.237 76.64 182.45 76.64H182.866C183.079 76.64 183.186 76.7467 183.186 76.96V87.68C183.186 87.8933 183.079 88 182.866 88H182.53C182.317 88 182.21 87.8933 182.21 87.68V86.64C181.922 87.1413 181.543 87.5253 181.074 87.792C180.605 88.0587 180.05 88.192 179.41 88.192C178.738 88.192 178.141 88.0213 177.618 87.68C177.095 87.328 176.685 86.8427 176.386 86.224C176.087 85.5947 175.938 84.8747 175.938 84.064C175.938 83.2533 176.087 82.5387 176.386 81.92C176.695 81.2907 177.117 80.8053 177.65 80.464C178.183 80.112 178.781 79.936 179.442 79.936C180.658 79.936 181.554 80.3893 182.13 81.296V76.96ZM179.49 87.296C180.29 87.296 180.935 87.0133 181.426 86.448C181.927 85.872 182.178 85.0773 182.178 84.064C182.178 83.0613 181.927 82.272 181.426 81.696C180.935 81.12 180.29 80.832 179.49 80.832C178.754 80.832 178.157 81.1307 177.698 81.728C177.25 82.3253 177.026 83.104 177.026 84.064C177.026 85.0347 177.25 85.8187 177.698 86.416C178.146 87.0027 178.743 87.296 179.49 87.296Z" fill="#464646"/>
<rect x="72.5" y="112.5" width="15" height="15" rx="7.5" fill="white" stroke="#767676"/>
<path d="M101.136 126.24C100.293 126.24 99.5307 126.112 98.848 125.856C98.176 125.589 97.4667 125.157 96.72 124.56C96.624 124.475 96.576 124.395 96.576 124.32C96.576 124.256 96.608 124.187 96.672 124.112L96.928 123.808C96.9813 123.723 97.0613 123.68 97.168 123.68C97.2533 123.68 97.3227 123.707 97.376 123.76C98.1333 124.347 98.7947 124.747 99.36 124.96C99.9253 125.163 100.517 125.264 101.136 125.264C102 125.264 102.704 125.051 103.248 124.624C103.792 124.187 104.064 123.595 104.064 122.848C104.064 122.368 103.936 121.984 103.68 121.696C103.424 121.408 103.072 121.184 102.624 121.024C102.187 120.864 101.563 120.693 100.752 120.512C99.7813 120.299 99.024 120.069 98.48 119.824C97.9467 119.579 97.5573 119.269 97.312 118.896C97.0667 118.523 96.944 118.043 96.944 117.456C96.944 116.837 97.12 116.299 97.472 115.84C97.8347 115.371 98.3147 115.013 98.912 114.768C99.5093 114.523 100.155 114.4 100.848 114.4C101.605 114.4 102.293 114.512 102.912 114.736C103.541 114.96 104.16 115.317 104.768 115.808C104.864 115.872 104.912 115.947 104.912 116.032C104.912 116.096 104.88 116.171 104.816 116.256L104.576 116.544C104.523 116.629 104.443 116.672 104.336 116.672C104.251 116.672 104.176 116.645 104.112 116.592C103.568 116.144 103.04 115.829 102.528 115.648C102.027 115.467 101.472 115.376 100.864 115.376C100.309 115.376 99.8187 115.467 99.392 115.648C98.9653 115.819 98.6293 116.059 98.384 116.368C98.1493 116.677 98.032 117.029 98.032 117.424C98.032 117.851 98.1493 118.192 98.384 118.448C98.6293 118.704 98.9653 118.907 99.392 119.056C99.8293 119.205 100.464 119.376 101.296 119.568C102.256 119.792 103.013 120.043 103.568 120.32C104.133 120.597 104.544 120.939 104.8 121.344C105.056 121.739 105.184 122.229 105.184 122.816C105.184 123.499 105.008 124.101 104.656 124.624C104.315 125.136 103.835 125.536 103.216 125.824C102.597 126.101 101.904 126.24 101.136 126.24ZM112.897 124.128C112.971 124.053 113.051 124.016 113.137 124.016C113.211 124.016 113.281 124.048 113.345 124.112L113.553 124.304C113.627 124.379 113.665 124.459 113.665 124.544C113.665 124.608 113.633 124.683 113.569 124.768C113.046 125.291 112.539 125.664 112.049 125.888C111.558 126.101 111.009 126.208 110.401 126.208C109.633 126.208 108.966 126.037 108.401 125.696C107.835 125.355 107.398 124.88 107.089 124.272C106.779 123.653 106.625 122.939 106.625 122.128C106.625 121.307 106.774 120.581 107.073 119.952C107.382 119.312 107.814 118.816 108.369 118.464C108.923 118.101 109.563 117.92 110.289 117.92C111.366 117.92 112.214 118.256 112.833 118.928C113.451 119.6 113.761 120.507 113.761 121.648V121.84C113.75 121.936 113.713 122.011 113.649 122.064C113.595 122.117 113.521 122.144 113.425 122.144H107.697C107.729 123.04 107.963 123.797 108.401 124.416C108.849 125.024 109.515 125.328 110.401 125.328C110.881 125.328 111.302 125.243 111.665 125.072C112.038 124.891 112.449 124.576 112.897 124.128ZM110.289 118.8C109.585 118.8 109.003 119.019 108.545 119.456C108.097 119.883 107.825 120.512 107.729 121.344H112.705C112.683 120.565 112.459 119.947 112.033 119.488C111.606 119.029 111.025 118.8 110.289 118.8ZM115.989 126C115.775 126 115.669 125.893 115.669 125.68V114.96C115.669 114.747 115.775 114.64 115.989 114.64H116.405C116.618 114.64 116.725 114.747 116.725 114.96V125.68C116.725 125.893 116.618 126 116.405 126H115.989ZM124.85 124.128C124.925 124.053 125.005 124.016 125.09 124.016C125.165 124.016 125.234 124.048 125.298 124.112L125.506 124.304C125.581 124.379 125.618 124.459 125.618 124.544C125.618 124.608 125.586 124.683 125.522 124.768C124.999 125.291 124.493 125.664 124.002 125.888C123.511 126.101 122.962 126.208 122.354 126.208C121.586 126.208 120.919 126.037 120.354 125.696C119.789 125.355 119.351 124.88 119.042 124.272C118.733 123.653 118.578 122.939 118.578 122.128C118.578 121.307 118.727 120.581 119.026 119.952C119.335 119.312 119.767 118.816 120.322 118.464C120.877 118.101 121.517 117.92 122.242 117.92C123.319 117.92 124.167 118.256 124.786 118.928C125.405 119.6 125.714 120.507 125.714 121.648V121.84C125.703 121.936 125.666 122.011 125.602 122.064C125.549 122.117 125.474 122.144 125.378 122.144H119.65C119.682 123.04 119.917 123.797 120.354 124.416C120.802 125.024 121.469 125.328 122.354 125.328C122.834 125.328 123.255 125.243 123.618 125.072C123.991 124.891 124.402 124.576 124.85 124.128ZM122.242 118.8C121.538 118.8 120.957 119.019 120.498 119.456C120.05 119.883 119.778 120.512 119.682 121.344H124.658C124.637 120.565 124.413 119.947 123.986 119.488C123.559 119.029 122.978 118.8 122.242 118.8ZM130.822 126.208C130.064 126.208 129.403 126.037 128.838 125.696C128.283 125.344 127.851 124.859 127.542 124.24C127.243 123.611 127.094 122.885 127.094 122.064C127.094 121.253 127.243 120.533 127.542 119.904C127.851 119.275 128.283 118.789 128.838 118.448C129.403 118.096 130.054 117.92 130.79 117.92C131.387 117.92 131.91 118.021 132.358 118.224C132.806 118.416 133.238 118.736 133.654 119.184C133.718 119.248 133.75 119.317 133.75 119.392C133.75 119.488 133.707 119.568 133.622 119.632L133.398 119.84C133.334 119.904 133.259 119.936 133.174 119.936C133.099 119.936 133.019 119.893 132.934 119.808C132.56 119.435 132.203 119.173 131.862 119.024C131.531 118.875 131.163 118.8 130.758 118.8C130.203 118.8 129.728 118.955 129.334 119.264C128.95 119.573 128.662 119.979 128.47 120.48C128.278 120.971 128.182 121.499 128.182 122.064C128.182 122.629 128.278 123.163 128.47 123.664C128.662 124.155 128.955 124.555 129.35 124.864C129.744 125.163 130.23 125.312 130.806 125.312C131.232 125.312 131.606 125.237 131.926 125.088C132.256 124.928 132.624 124.629 133.03 124.192C133.115 124.107 133.195 124.064 133.27 124.064C133.355 124.064 133.43 124.096 133.494 124.16L133.718 124.336C133.792 124.4 133.83 124.475 133.83 124.56C133.83 124.645 133.782 124.747 133.686 124.864C133.238 125.355 132.79 125.701 132.342 125.904C131.894 126.107 131.387 126.208 130.822 126.208ZM139.142 125.12C139.174 125.109 139.217 125.104 139.27 125.104C139.334 125.104 139.393 125.125 139.446 125.168C139.5 125.211 139.532 125.269 139.542 125.344L139.59 125.568C139.601 125.589 139.606 125.627 139.606 125.68C139.606 125.829 139.526 125.92 139.366 125.952C138.982 126.069 138.572 126.128 138.134 126.128C137.441 126.128 136.945 125.973 136.646 125.664C136.358 125.344 136.214 124.885 136.214 124.288V118.912H135.03C134.817 118.912 134.71 118.805 134.71 118.592V118.432C134.71 118.219 134.817 118.112 135.03 118.112H136.214V115.68C136.214 115.467 136.321 115.36 136.534 115.36H136.95C137.164 115.36 137.27 115.467 137.27 115.68V118.112H139.19C139.404 118.112 139.51 118.219 139.51 118.432V118.592C139.51 118.805 139.404 118.912 139.19 118.912H137.27V124.16C137.27 124.555 137.345 124.832 137.494 124.992C137.644 125.152 137.9 125.232 138.262 125.232C138.518 125.232 138.812 125.195 139.142 125.12ZM146.569 124.128C146.643 124.053 146.723 124.016 146.809 124.016C146.883 124.016 146.953 124.048 147.017 124.112L147.225 124.304C147.299 124.379 147.337 124.459 147.337 124.544C147.337 124.608 147.305 124.683 147.241 124.768C146.718 125.291 146.211 125.664 145.721 125.888C145.23 126.101 144.681 126.208 144.073 126.208C143.305 126.208 142.638 126.037 142.073 125.696C141.507 125.355 141.07 124.88 140.761 124.272C140.451 123.653 140.297 122.939 140.297 122.128C140.297 121.307 140.446 120.581 140.745 119.952C141.054 119.312 141.486 118.816 142.041 118.464C142.595 118.101 143.235 117.92 143.961 117.92C145.038 117.92 145.886 118.256 146.505 118.928C147.123 119.6 147.433 120.507 147.433 121.648V121.84C147.422 121.936 147.385 122.011 147.321 122.064C147.267 122.117 147.193 122.144 147.097 122.144H141.369C141.401 123.04 141.635 123.797 142.073 124.416C142.521 125.024 143.187 125.328 144.073 125.328C144.553 125.328 144.974 125.243 145.337 125.072C145.71 124.891 146.121 124.576 146.569 124.128ZM143.961 118.8C143.257 118.8 142.675 119.019 142.217 119.456C141.769 119.883 141.497 120.512 141.401 121.344H146.377C146.355 120.565 146.131 119.947 145.705 119.488C145.278 119.029 144.697 118.8 143.961 118.8ZM155.036 114.96C155.036 114.747 155.143 114.64 155.356 114.64H155.772C155.986 114.64 156.092 114.747 156.092 114.96V125.68C156.092 125.893 155.986 126 155.772 126H155.436C155.223 126 155.116 125.893 155.116 125.68V124.64C154.828 125.141 154.45 125.525 153.98 125.792C153.511 126.059 152.956 126.192 152.316 126.192C151.644 126.192 151.047 126.021 150.524 125.68C150.002 125.328 149.591 124.843 149.292 124.224C148.994 123.595 148.844 122.875 148.844 122.064C148.844 121.253 148.994 120.539 149.292 119.92C149.602 119.291 150.023 118.805 150.556 118.464C151.09 118.112 151.687 117.936 152.348 117.936C153.564 117.936 154.46 118.389 155.036 119.296V114.96ZM152.396 125.296C153.196 125.296 153.842 125.013 154.332 124.448C154.834 123.872 155.084 123.077 155.084 122.064C155.084 121.061 154.834 120.272 154.332 119.696C153.842 119.12 153.196 118.832 152.396 118.832C151.66 118.832 151.063 119.131 150.604 119.728C150.156 120.325 149.932 121.104 149.932 122.064C149.932 123.035 150.156 123.819 150.604 124.416C151.052 125.003 151.65 125.296 152.396 125.296Z" fill="#464646"/>
<rect x="212.5" y="74.5" width="15" height="15" rx="7.5" fill="white" stroke="#767676"/>
<rect x="212" y="112" width="16" height="16" rx="8" fill="#0063FB"/>
<rect x="216.267" y="116.267" width="7.46667" height="7.46667" rx="3.73333" fill="white"/>
<path d="M81.792 43.684C81.832 43.548 81.92 43.48 82.056 43.48H82.404C82.484 43.48 82.544 43.504 82.584 43.552C82.624 43.6 82.636 43.664 82.62 43.744L80.676 51.796C80.636 51.932 80.548 52 80.412 52H79.752C79.6 52 79.508 51.932 79.476 51.796L78.384 47.776C78.04 46.488 77.764 45.408 77.556 44.536C77.332 45.52 77.06 46.604 76.74 47.788L75.648 51.796C75.616 51.932 75.524 52 75.372 52H74.676C74.54 52 74.452 51.932 74.412 51.796L72.468 43.744L72.456 43.672C72.456 43.544 72.532 43.48 72.684 43.48H73.056C73.192 43.48 73.28 43.548 73.32 43.684L74.292 47.776C74.556 48.888 74.812 50.04 75.06 51.232C75.364 49.96 75.66 48.808 75.948 47.776L77.076 43.684C77.108 43.548 77.2 43.48 77.352 43.48H77.808C77.96 43.48 78.052 43.548 78.084 43.684L79.188 47.776C79.5 48.92 79.792 50.064 80.064 51.208C80.272 50.152 80.524 49.008 80.82 47.776L81.792 43.684ZM84.3699 44.584C84.2099 44.584 84.0739 44.528 83.9619 44.416C83.8579 44.304 83.8059 44.168 83.8059 44.008C83.8059 43.848 83.8579 43.716 83.9619 43.612C84.0739 43.508 84.2099 43.456 84.3699 43.456C84.5379 43.456 84.6739 43.508 84.7779 43.612C84.8899 43.716 84.9459 43.848 84.9459 44.008C84.9459 44.168 84.8899 44.304 84.7779 44.416C84.6739 44.528 84.5379 44.584 84.3699 44.584ZM84.2139 52C84.0539 52 83.9739 51.92 83.9739 51.76V46.324C83.9739 46.164 84.0539 46.084 84.2139 46.084H84.5259C84.6859 46.084 84.7659 46.164 84.7659 46.324V51.76C84.7659 51.92 84.6859 52 84.5259 52H84.2139ZM89.1926 51.34C89.2166 51.332 89.2486 51.328 89.2886 51.328C89.3366 51.328 89.3806 51.344 89.4206 51.376C89.4606 51.408 89.4846 51.452 89.4926 51.508L89.5286 51.676C89.5366 51.692 89.5406 51.72 89.5406 51.76C89.5406 51.872 89.4806 51.94 89.3606 51.964C89.0726 52.052 88.7646 52.096 88.4366 52.096C87.9166 52.096 87.5446 51.98 87.3206 51.748C87.1046 51.508 86.9966 51.164 86.9966 50.716V46.684H86.1086C85.9486 46.684 85.8686 46.604 85.8686 46.444V46.324C85.8686 46.164 85.9486 46.084 86.1086 46.084H86.9966V44.26C86.9966 44.1 87.0766 44.02 87.2366 44.02H87.5486C87.7086 44.02 87.7886 44.1 87.7886 44.26V46.084H89.2286C89.3886 46.084 89.4686 46.164 89.4686 46.324V46.444C89.4686 46.604 89.3886 46.684 89.2286 46.684H87.7886V50.62C87.7886 50.916 87.8446 51.124 87.9566 51.244C88.0686 51.364 88.2606 51.424 88.5326 51.424C88.7246 51.424 88.9446 51.396 89.1926 51.34ZM93.3171 45.94C94.0051 45.94 94.5291 46.136 94.8891 46.528C95.2491 46.912 95.4291 47.388 95.4291 47.956V51.76C95.4291 51.92 95.3491 52 95.1891 52H94.8771C94.7171 52 94.6371 51.92 94.6371 51.76V48.22C94.6371 47.692 94.5091 47.292 94.2531 47.02C93.9971 46.748 93.6291 46.612 93.1491 46.612C92.8451 46.612 92.5651 46.688 92.3091 46.84C92.0531 46.984 91.8491 47.184 91.6971 47.44C91.5451 47.696 91.4691 47.976 91.4691 48.28V51.76C91.4691 51.92 91.3891 52 91.2291 52H90.9171C90.7571 52 90.6771 51.92 90.6771 51.76V43.72C90.6771 43.56 90.7571 43.48 90.9171 43.48H91.2291C91.3891 43.48 91.4691 43.56 91.4691 43.72V46.852C91.6611 46.548 91.9171 46.32 92.2371 46.168C92.5651 46.016 92.9251 45.94 93.3171 45.94ZM100.199 52C100.039 52 99.9586 51.92 99.9586 51.76V43.72C99.9586 43.56 100.039 43.48 100.199 43.48H100.511C100.671 43.48 100.751 43.56 100.751 43.72V51.76C100.751 51.92 100.671 52 100.511 52H100.199ZM104.816 45.94C105.544 45.94 106.112 46.116 106.52 46.468C106.928 46.812 107.132 47.268 107.132 47.836V51.76C107.132 51.92 107.052 52 106.892 52H106.652C106.492 52 106.412 51.92 106.412 51.76V51.22C106.212 51.54 105.928 51.78 105.56 51.94C105.2 52.1 104.796 52.18 104.348 52.18C103.724 52.18 103.216 52.048 102.824 51.784C102.432 51.52 102.236 51.112 102.236 50.56C102.236 50.12 102.36 49.768 102.608 49.504C102.856 49.232 103.18 49.028 103.58 48.892C103.98 48.748 104.48 48.62 105.08 48.508L106.376 48.28V47.896C106.376 47.488 106.236 47.172 105.956 46.948C105.676 46.716 105.308 46.6 104.852 46.6C104.508 46.6 104.196 46.664 103.916 46.792C103.636 46.92 103.336 47.14 103.016 47.452C102.96 47.508 102.9 47.536 102.836 47.536C102.78 47.536 102.728 47.512 102.68 47.464L102.524 47.32C102.468 47.264 102.44 47.204 102.44 47.14C102.44 47.068 102.468 47.004 102.524 46.948C102.86 46.596 103.212 46.34 103.58 46.18C103.956 46.02 104.368 45.94 104.816 45.94ZM104.384 51.52C104.96 51.52 105.436 51.368 105.812 51.064C106.188 50.76 106.376 50.372 106.376 49.9V48.892L105.26 49.108C104.74 49.212 104.328 49.312 104.024 49.408C103.72 49.504 103.476 49.644 103.292 49.828C103.108 50.012 103.016 50.252 103.016 50.548C103.016 50.852 103.136 51.092 103.376 51.268C103.624 51.436 103.96 51.52 104.384 51.52ZM111.72 45.952C112.224 45.952 112.672 46.084 113.064 46.348C113.464 46.604 113.772 46.968 113.988 47.44C114.212 47.904 114.324 48.44 114.324 49.048C114.324 49.656 114.212 50.196 113.988 50.668C113.764 51.132 113.452 51.496 113.052 51.76C112.66 52.016 112.216 52.144 111.72 52.144C110.768 52.144 110.072 51.776 109.632 51.04V51.76C109.632 51.92 109.552 52 109.392 52H109.128C108.968 52 108.888 51.92 108.888 51.76V43.708C108.888 43.548 108.968 43.468 109.128 43.468H109.44C109.6 43.468 109.68 43.548 109.68 43.708V47.02C110.12 46.308 110.8 45.952 111.72 45.952ZM111.66 51.472C112.212 51.472 112.656 51.248 112.992 50.8C113.336 50.352 113.508 49.768 113.508 49.048C113.508 48.328 113.336 47.744 112.992 47.296C112.656 46.848 112.212 46.624 111.66 46.624C111.068 46.624 110.584 46.84 110.208 47.272C109.832 47.704 109.644 48.296 109.644 49.048C109.644 49.808 109.828 50.404 110.196 50.836C110.572 51.26 111.06 51.472 111.66 51.472ZM120.11 50.596C120.166 50.54 120.226 50.512 120.29 50.512C120.346 50.512 120.398 50.536 120.446 50.584L120.602 50.728C120.658 50.784 120.686 50.844 120.686 50.908C120.686 50.956 120.662 51.012 120.614 51.076C120.222 51.468 119.842 51.748 119.474 51.916C119.106 52.076 118.694 52.156 118.238 52.156C117.662 52.156 117.162 52.028 116.738 51.772C116.314 51.516 115.986 51.16 115.754 50.704C115.522 50.24 115.406 49.704 115.406 49.096C115.406 48.48 115.518 47.936 115.742 47.464C115.974 46.984 116.298 46.612 116.714 46.348C117.13 46.076 117.61 45.94 118.154 45.94C118.962 45.94 119.598 46.192 120.062 46.696C120.526 47.2 120.758 47.88 120.758 48.736V48.88C120.75 48.952 120.722 49.008 120.674 49.048C120.634 49.088 120.578 49.108 120.506 49.108H116.21C116.234 49.78 116.41 50.348 116.738 50.812C117.074 51.268 117.574 51.496 118.238 51.496C118.598 51.496 118.914 51.432 119.186 51.304C119.466 51.168 119.774 50.932 120.11 50.596ZM118.154 46.6C117.626 46.6 117.19 46.764 116.846 47.092C116.51 47.412 116.306 47.884 116.234 48.508H119.966C119.95 47.924 119.782 47.46 119.462 47.116C119.142 46.772 118.706 46.6 118.154 46.6ZM122.429 52C122.269 52 122.189 51.92 122.189 51.76V43.72C122.189 43.56 122.269 43.48 122.429 43.48H122.741C122.901 43.48 122.981 43.56 122.981 43.72V51.76C122.981 51.92 122.901 52 122.741 52H122.429Z" fill="#767676"/>
<path d="M215.852 52.18C215.22 52.18 214.648 52.084 214.136 51.892C213.632 51.692 213.1 51.368 212.54 50.92C212.468 50.856 212.432 50.796 212.432 50.74C212.432 50.692 212.456 50.64 212.504 50.584L212.696 50.356C212.736 50.292 212.796 50.26 212.876 50.26C212.94 50.26 212.992 50.28 213.032 50.32C213.6 50.76 214.096 51.06 214.52 51.22C214.944 51.372 215.388 51.448 215.852 51.448C216.5 51.448 217.028 51.288 217.436 50.968C217.844 50.64 218.048 50.196 218.048 49.636C218.048 49.276 217.952 48.988 217.76 48.772C217.568 48.556 217.304 48.388 216.968 48.268C216.64 48.148 216.172 48.02 215.564 47.884C214.836 47.724 214.268 47.552 213.86 47.368C213.46 47.184 213.168 46.952 212.984 46.672C212.8 46.392 212.708 46.032 212.708 45.592C212.708 45.128 212.84 44.724 213.104 44.38C213.376 44.028 213.736 43.76 214.184 43.576C214.632 43.392 215.116 43.3 215.636 43.3C216.204 43.3 216.72 43.384 217.184 43.552C217.656 43.72 218.12 43.988 218.576 44.356C218.648 44.404 218.684 44.46 218.684 44.524C218.684 44.572 218.66 44.628 218.612 44.692L218.432 44.908C218.392 44.972 218.332 45.004 218.252 45.004C218.188 45.004 218.132 44.984 218.084 44.944C217.676 44.608 217.28 44.372 216.896 44.236C216.52 44.1 216.104 44.032 215.648 44.032C215.232 44.032 214.864 44.1 214.544 44.236C214.224 44.364 213.972 44.544 213.788 44.776C213.612 45.008 213.524 45.272 213.524 45.568C213.524 45.888 213.612 46.144 213.788 46.336C213.972 46.528 214.224 46.68 214.544 46.792C214.872 46.904 215.348 47.032 215.972 47.176C216.692 47.344 217.26 47.532 217.676 47.74C218.1 47.948 218.408 48.204 218.6 48.508C218.792 48.804 218.888 49.172 218.888 49.612C218.888 50.124 218.756 50.576 218.492 50.968C218.236 51.352 217.876 51.652 217.412 51.868C216.948 52.076 216.428 52.18 215.852 52.18ZM222.876 51.34C222.9 51.332 222.932 51.328 222.972 51.328C223.02 51.328 223.064 51.344 223.104 51.376C223.144 51.408 223.168 51.452 223.176 51.508L223.212 51.676C223.22 51.692 223.224 51.72 223.224 51.76C223.224 51.872 223.164 51.94 223.044 51.964C222.756 52.052 222.448 52.096 222.12 52.096C221.6 52.096 221.228 51.98 221.004 51.748C220.788 51.508 220.68 51.164 220.68 50.716V46.684H219.792C219.632 46.684 219.552 46.604 219.552 46.444V46.324C219.552 46.164 219.632 46.084 219.792 46.084H220.68V44.26C220.68 44.1 220.76 44.02 220.92 44.02H221.232C221.392 44.02 221.472 44.1 221.472 44.26V46.084H222.912C223.072 46.084 223.152 46.164 223.152 46.324V46.444C223.152 46.604 223.072 46.684 222.912 46.684H221.472V50.62C221.472 50.916 221.528 51.124 221.64 51.244C221.752 51.364 221.944 51.424 222.216 51.424C222.408 51.424 222.628 51.396 222.876 51.34ZM226.652 45.94C227.38 45.94 227.948 46.116 228.356 46.468C228.764 46.812 228.968 47.268 228.968 47.836V51.76C228.968 51.92 228.888 52 228.728 52H228.488C228.328 52 228.248 51.92 228.248 51.76V51.22C228.048 51.54 227.764 51.78 227.396 51.94C227.036 52.1 226.632 52.18 226.184 52.18C225.56 52.18 225.052 52.048 224.66 51.784C224.268 51.52 224.072 51.112 224.072 50.56C224.072 50.12 224.196 49.768 224.444 49.504C224.692 49.232 225.016 49.028 225.416 48.892C225.816 48.748 226.316 48.62 226.916 48.508L228.212 48.28V47.896C228.212 47.488 228.072 47.172 227.792 46.948C227.512 46.716 227.144 46.6 226.688 46.6C226.344 46.6 226.032 46.664 225.752 46.792C225.472 46.92 225.172 47.14 224.852 47.452C224.796 47.508 224.736 47.536 224.672 47.536C224.616 47.536 224.564 47.512 224.516 47.464L224.36 47.32C224.304 47.264 224.276 47.204 224.276 47.14C224.276 47.068 224.304 47.004 224.36 46.948C224.696 46.596 225.048 46.34 225.416 46.18C225.792 46.02 226.204 45.94 226.652 45.94ZM226.22 51.52C226.796 51.52 227.272 51.368 227.648 51.064C228.024 50.76 228.212 50.372 228.212 49.9V48.892L227.096 49.108C226.576 49.212 226.164 49.312 225.86 49.408C225.556 49.504 225.312 49.644 225.128 49.828C224.944 50.012 224.852 50.252 224.852 50.548C224.852 50.852 224.972 51.092 225.212 51.268C225.46 51.436 225.796 51.52 226.22 51.52ZM233.364 45.94C234.06 45.94 234.584 46.132 234.936 46.516C235.296 46.9 235.476 47.38 235.476 47.956V51.76C235.476 51.92 235.396 52 235.236 52H234.924C234.764 52 234.684 51.92 234.684 51.76V48.22C234.684 47.692 234.556 47.292 234.3 47.02C234.044 46.748 233.676 46.612 233.196 46.612C232.892 46.612 232.612 46.688 232.356 46.84C232.1 46.984 231.896 47.184 231.744 47.44C231.592 47.696 231.516 47.976 231.516 48.28V51.76C231.516 51.92 231.436 52 231.276 52H230.964C230.804 52 230.724 51.92 230.724 51.76V46.324C230.724 46.164 230.804 46.084 230.964 46.084H231.228C231.388 46.084 231.468 46.164 231.468 46.324V46.9C231.668 46.58 231.932 46.34 232.26 46.18C232.588 46.02 232.956 45.94 233.364 45.94ZM241.5 43.72C241.5 43.56 241.58 43.48 241.74 43.48H242.052C242.212 43.48 242.292 43.56 242.292 43.72V51.76C242.292 51.92 242.212 52 242.052 52H241.8C241.64 52 241.56 51.92 241.56 51.76V50.98C241.344 51.356 241.06 51.644 240.708 51.844C240.356 52.044 239.94 52.144 239.46 52.144C238.956 52.144 238.508 52.016 238.116 51.76C237.724 51.496 237.416 51.132 237.192 50.668C236.968 50.196 236.856 49.656 236.856 49.048C236.856 48.44 236.968 47.904 237.192 47.44C237.424 46.968 237.74 46.604 238.14 46.348C238.54 46.084 238.988 45.952 239.484 45.952C240.396 45.952 241.068 46.292 241.5 46.972V43.72ZM239.52 51.472C240.12 51.472 240.604 51.26 240.972 50.836C241.348 50.404 241.536 49.808 241.536 49.048C241.536 48.296 241.348 47.704 240.972 47.272C240.604 46.84 240.12 46.624 239.52 46.624C238.968 46.624 238.52 46.848 238.176 47.296C237.84 47.744 237.672 48.328 237.672 49.048C237.672 49.776 237.84 50.364 238.176 50.812C238.512 51.252 238.96 51.472 239.52 51.472ZM246.352 45.94C247.08 45.94 247.648 46.116 248.056 46.468C248.464 46.812 248.668 47.268 248.668 47.836V51.76C248.668 51.92 248.588 52 248.428 52H248.188C248.028 52 247.948 51.92 247.948 51.76V51.22C247.748 51.54 247.464 51.78 247.096 51.94C246.736 52.1 246.332 52.18 245.884 52.18C245.26 52.18 244.752 52.048 244.36 51.784C243.968 51.52 243.772 51.112 243.772 50.56C243.772 50.12 243.896 49.768 244.144 49.504C244.392 49.232 244.716 49.028 245.116 48.892C245.516 48.748 246.016 48.62 246.616 48.508L247.912 48.28V47.896C247.912 47.488 247.772 47.172 247.492 46.948C247.212 46.716 246.844 46.6 246.388 46.6C246.044 46.6 245.732 46.664 245.452 46.792C245.172 46.92 244.872 47.14 244.552 47.452C244.496 47.508 244.436 47.536 244.372 47.536C244.316 47.536 244.264 47.512 244.216 47.464L244.06 47.32C244.004 47.264 243.976 47.204 243.976 47.14C243.976 47.068 244.004 47.004 244.06 46.948C244.396 46.596 244.748 46.34 245.116 46.18C245.492 46.02 245.904 45.94 246.352 45.94ZM245.92 51.52C246.496 51.52 246.972 51.368 247.348 51.064C247.724 50.76 247.912 50.372 247.912 49.9V48.892L246.796 49.108C246.276 49.212 245.864 49.312 245.56 49.408C245.256 49.504 245.012 49.644 244.828 49.828C244.644 50.012 244.552 50.252 244.552 50.548C244.552 50.852 244.672 51.092 244.912 51.268C245.16 51.436 245.496 51.52 245.92 51.52ZM250.675 52C250.515 52 250.435 51.92 250.435 51.76V43.72C250.435 43.56 250.515 43.48 250.675 43.48H250.987C251.147 43.48 251.227 43.56 251.227 43.72V51.76C251.227 51.92 251.147 52 250.987 52H250.675ZM255.461 52.156C254.909 52.156 254.417 52.024 253.985 51.76C253.553 51.496 253.217 51.132 252.977 50.668C252.737 50.196 252.617 49.656 252.617 49.048C252.617 48.44 252.737 47.904 252.977 47.44C253.217 46.968 253.553 46.6 253.985 46.336C254.417 46.072 254.909 45.94 255.461 45.94C256.013 45.94 256.505 46.072 256.937 46.336C257.369 46.6 257.705 46.968 257.945 47.44C258.185 47.904 258.305 48.44 258.305 49.048C258.305 49.656 258.185 50.196 257.945 50.668C257.705 51.132 257.369 51.496 256.937 51.76C256.505 52.024 256.013 52.156 255.461 52.156ZM255.461 51.496C256.077 51.496 256.569 51.272 256.937 50.824C257.305 50.368 257.489 49.776 257.489 49.048C257.489 48.32 257.305 47.732 256.937 47.284C256.569 46.828 256.077 46.6 255.461 46.6C254.845 46.6 254.353 46.828 253.985 47.284C253.617 47.732 253.433 48.32 253.433 49.048C253.433 49.776 253.617 50.368 253.985 50.824C254.353 51.272 254.845 51.496 255.461 51.496ZM262.321 45.94C263.017 45.94 263.541 46.132 263.893 46.516C264.253 46.9 264.433 47.38 264.433 47.956V51.76C264.433 51.92 264.353 52 264.193 52H263.881C263.721 52 263.641 51.92 263.641 51.76V48.22C263.641 47.692 263.513 47.292 263.257 47.02C263.001 46.748 262.633 46.612 262.153 46.612C261.849 46.612 261.569 46.688 261.313 46.84C261.057 46.984 260.853 47.184 260.701 47.44C260.549 47.696 260.473 47.976 260.473 48.28V51.76C260.473 51.92 260.393 52 260.233 52H259.921C259.761 52 259.681 51.92 259.681 51.76V46.324C259.681 46.164 259.761 46.084 259.921 46.084H260.185C260.345 46.084 260.425 46.164 260.425 46.324V46.9C260.625 46.58 260.889 46.34 261.217 46.18C261.545 46.02 261.913 45.94 262.321 45.94ZM270.493 50.596C270.549 50.54 270.609 50.512 270.673 50.512C270.729 50.512 270.781 50.536 270.829 50.584L270.985 50.728C271.041 50.784 271.069 50.844 271.069 50.908C271.069 50.956 271.045 51.012 270.997 51.076C270.605 51.468 270.225 51.748 269.857 51.916C269.489 52.076 269.077 52.156 268.621 52.156C268.045 52.156 267.545 52.028 267.121 51.772C266.697 51.516 266.369 51.16 266.137 50.704C265.905 50.24 265.789 49.704 265.789 49.096C265.789 48.48 265.901 47.936 266.125 47.464C266.357 46.984 266.681 46.612 267.097 46.348C267.513 46.076 267.993 45.94 268.537 45.94C269.345 45.94 269.981 46.192 270.445 46.696C270.909 47.2 271.141 47.88 271.141 48.736V48.88C271.133 48.952 271.105 49.008 271.057 49.048C271.017 49.088 270.961 49.108 270.889 49.108H266.593C266.617 49.78 266.793 50.348 267.121 50.812C267.457 51.268 267.957 51.496 268.621 51.496C268.981 51.496 269.297 51.432 269.569 51.304C269.849 51.168 270.157 50.932 270.493 50.596ZM268.537 46.6C268.009 46.6 267.573 46.764 267.229 47.092C266.893 47.412 266.689 47.884 266.617 48.508H270.349C270.333 47.924 270.165 47.46 269.845 47.116C269.525 46.772 269.089 46.6 268.537 46.6Z" fill="#767676"/>
</svg>
