<svg width="344" height="320" viewBox="0 0 344 320" fill="none" xmlns="http://www.w3.org/2000/svg">
<rect width="344" height="320" fill="#F5F5F5"/>
<rect x="170.5" y="134.5" width="15" height="15" rx="7.5" fill="white" stroke="#767676"/>
<path d="M200.016 148.24C198.939 148.24 198 147.989 197.2 147.488C196.4 146.976 195.787 146.272 195.36 145.376C194.933 144.48 194.72 143.461 194.72 142.32C194.72 141.179 194.933 140.16 195.36 139.264C195.787 138.368 196.4 137.669 197.2 137.168C198 136.656 198.939 136.4 200.016 136.4C201.093 136.4 202.032 136.656 202.832 137.168C203.632 137.669 204.245 138.368 204.672 139.264C205.099 140.16 205.312 141.179 205.312 142.32C205.312 143.461 205.099 144.48 204.672 145.376C204.245 146.272 203.632 146.976 202.832 147.488C202.032 147.989 201.093 148.24 200.016 148.24ZM200.016 147.264C200.837 147.264 201.563 147.056 202.192 146.64C202.821 146.213 203.307 145.627 203.648 144.88C204 144.123 204.176 143.269 204.176 142.32C204.176 141.371 204 140.523 203.648 139.776C203.307 139.019 202.821 138.432 202.192 138.016C201.563 137.589 200.837 137.376 200.016 137.376C199.195 137.376 198.469 137.589 197.84 138.016C197.211 138.432 196.72 139.019 196.368 139.776C196.027 140.523 195.856 141.371 195.856 142.32C195.856 143.269 196.027 144.123 196.368 144.88C196.72 145.627 197.211 146.213 197.84 146.64C198.469 147.056 199.195 147.264 200.016 147.264ZM210.976 139.936C211.637 139.936 212.229 140.112 212.752 140.464C213.285 140.805 213.701 141.291 214 141.92C214.298 142.539 214.448 143.248 214.448 144.048C214.448 144.859 214.298 145.579 214 146.208C213.701 146.837 213.29 147.328 212.768 147.68C212.245 148.021 211.648 148.192 210.976 148.192C209.738 148.192 208.832 147.739 208.256 146.832V150.624C208.256 150.837 208.149 150.944 207.936 150.944H207.52C207.306 150.944 207.2 150.837 207.2 150.624V140.432C207.2 140.219 207.306 140.112 207.52 140.112H207.872C208.085 140.112 208.192 140.219 208.192 140.432V141.44C208.48 140.949 208.858 140.576 209.328 140.32C209.797 140.064 210.346 139.936 210.976 139.936ZM210.896 147.296C211.642 147.296 212.24 146.997 212.688 146.4C213.136 145.803 213.36 145.019 213.36 144.048C213.36 143.088 213.136 142.315 212.688 141.728C212.24 141.131 211.642 140.832 210.896 140.832C210.096 140.832 209.445 141.12 208.944 141.696C208.453 142.261 208.208 143.045 208.208 144.048C208.208 145.051 208.458 145.845 208.96 146.432C209.461 147.008 210.106 147.296 210.896 147.296ZM219.642 147.12C219.674 147.109 219.717 147.104 219.77 147.104C219.834 147.104 219.893 147.125 219.946 147.168C220 147.211 220.032 147.269 220.042 147.344L220.09 147.568C220.101 147.589 220.106 147.627 220.106 147.68C220.106 147.829 220.026 147.92 219.866 147.952C219.482 148.069 219.072 148.128 218.634 148.128C217.941 148.128 217.445 147.973 217.146 147.664C216.858 147.344 216.714 146.885 216.714 146.288V140.912H215.53C215.317 140.912 215.21 140.805 215.21 140.592V140.432C215.21 140.219 215.317 140.112 215.53 140.112H216.714V137.68C216.714 137.467 216.821 137.36 217.034 137.36H217.45C217.664 137.36 217.77 137.467 217.77 137.68V140.112H219.69C219.904 140.112 220.01 140.219 220.01 140.432V140.592C220.01 140.805 219.904 140.912 219.69 140.912H217.77V146.16C217.77 146.555 217.845 146.832 217.994 146.992C218.144 147.152 218.4 147.232 218.762 147.232C219.018 147.232 219.312 147.195 219.642 147.12ZM222.15 138.112C221.936 138.112 221.755 138.037 221.606 137.888C221.467 137.739 221.398 137.557 221.398 137.344C221.398 137.131 221.467 136.955 221.606 136.816C221.755 136.677 221.936 136.608 222.15 136.608C222.374 136.608 222.555 136.677 222.694 136.816C222.843 136.955 222.918 137.131 222.918 137.344C222.918 137.557 222.843 137.739 222.694 137.888C222.555 138.037 222.374 138.112 222.15 138.112ZM221.942 148C221.728 148 221.622 147.893 221.622 147.68V140.432C221.622 140.219 221.728 140.112 221.942 140.112H222.358C222.571 140.112 222.678 140.219 222.678 140.432V147.68C222.678 147.893 222.571 148 222.358 148H221.942ZM228.292 148.208C227.556 148.208 226.9 148.032 226.324 147.68C225.748 147.328 225.3 146.843 224.98 146.224C224.66 145.595 224.5 144.875 224.5 144.064C224.5 143.253 224.66 142.539 224.98 141.92C225.3 141.291 225.748 140.8 226.324 140.448C226.9 140.096 227.556 139.92 228.292 139.92C229.028 139.92 229.684 140.096 230.26 140.448C230.836 140.8 231.284 141.291 231.604 141.92C231.924 142.539 232.084 143.253 232.084 144.064C232.084 144.875 231.924 145.595 231.604 146.224C231.284 146.843 230.836 147.328 230.26 147.68C229.684 148.032 229.028 148.208 228.292 148.208ZM228.292 147.328C229.113 147.328 229.769 147.029 230.26 146.432C230.75 145.824 230.996 145.035 230.996 144.064C230.996 143.093 230.75 142.309 230.26 141.712C229.769 141.104 229.113 140.8 228.292 140.8C227.47 140.8 226.814 141.104 226.324 141.712C225.833 142.309 225.588 143.093 225.588 144.064C225.588 145.035 225.833 145.824 226.324 146.432C226.814 147.029 227.47 147.328 228.292 147.328ZM237.438 139.92C238.366 139.92 239.065 140.176 239.534 140.688C240.014 141.2 240.254 141.84 240.254 142.608V147.68C240.254 147.893 240.148 148 239.934 148H239.518C239.305 148 239.198 147.893 239.198 147.68V142.96C239.198 142.256 239.028 141.723 238.686 141.36C238.345 140.997 237.854 140.816 237.214 140.816C236.809 140.816 236.436 140.917 236.094 141.12C235.753 141.312 235.481 141.579 235.278 141.92C235.076 142.261 234.974 142.635 234.974 143.04V147.68C234.974 147.893 234.868 148 234.654 148H234.238C234.025 148 233.918 147.893 233.918 147.68V140.432C233.918 140.219 234.025 140.112 234.238 140.112H234.59C234.804 140.112 234.91 140.219 234.91 140.432V141.2C235.177 140.773 235.529 140.453 235.966 140.24C236.404 140.027 236.894 139.92 237.438 139.92ZM249.062 136.768C249.179 136.683 249.312 136.64 249.462 136.64H249.718C249.931 136.64 250.038 136.747 250.038 136.96V147.68C250.038 147.893 249.931 148 249.718 148H249.286C249.072 148 248.966 147.893 248.966 147.68V138.016L246.55 139.744C246.475 139.797 246.406 139.824 246.342 139.824C246.246 139.824 246.166 139.776 246.102 139.68L245.942 139.44C245.899 139.387 245.878 139.323 245.878 139.248C245.878 139.152 245.926 139.067 246.022 138.992L249.062 136.768Z" fill="#464646"/>
<rect x="170" y="172" width="16" height="16" rx="8" fill="#0063FB"/>
<rect x="174.267" y="176.267" width="7.46667" height="7.46667" rx="3.73333" fill="white"/>
<path d="M200.016 186.24C198.939 186.24 198 185.989 197.2 185.488C196.4 184.976 195.787 184.272 195.36 183.376C194.933 182.48 194.72 181.461 194.72 180.32C194.72 179.179 194.933 178.16 195.36 177.264C195.787 176.368 196.4 175.669 197.2 175.168C198 174.656 198.939 174.4 200.016 174.4C201.093 174.4 202.032 174.656 202.832 175.168C203.632 175.669 204.245 176.368 204.672 177.264C205.099 178.16 205.312 179.179 205.312 180.32C205.312 181.461 205.099 182.48 204.672 183.376C204.245 184.272 203.632 184.976 202.832 185.488C202.032 185.989 201.093 186.24 200.016 186.24ZM200.016 185.264C200.837 185.264 201.563 185.056 202.192 184.64C202.821 184.213 203.307 183.627 203.648 182.88C204 182.123 204.176 181.269 204.176 180.32C204.176 179.371 204 178.523 203.648 177.776C203.307 177.019 202.821 176.432 202.192 176.016C201.563 175.589 200.837 175.376 200.016 175.376C199.195 175.376 198.469 175.589 197.84 176.016C197.211 176.432 196.72 177.019 196.368 177.776C196.027 178.523 195.856 179.371 195.856 180.32C195.856 181.269 196.027 182.123 196.368 182.88C196.72 183.627 197.211 184.213 197.84 184.64C198.469 185.056 199.195 185.264 200.016 185.264ZM210.976 177.936C211.637 177.936 212.229 178.112 212.752 178.464C213.285 178.805 213.701 179.291 214 179.92C214.298 180.539 214.448 181.248 214.448 182.048C214.448 182.859 214.298 183.579 214 184.208C213.701 184.837 213.29 185.328 212.768 185.68C212.245 186.021 211.648 186.192 210.976 186.192C209.738 186.192 208.832 185.739 208.256 184.832V188.624C208.256 188.837 208.149 188.944 207.936 188.944H207.52C207.306 188.944 207.2 188.837 207.2 188.624V178.432C207.2 178.219 207.306 178.112 207.52 178.112H207.872C208.085 178.112 208.192 178.219 208.192 178.432V179.44C208.48 178.949 208.858 178.576 209.328 178.32C209.797 178.064 210.346 177.936 210.976 177.936ZM210.896 185.296C211.642 185.296 212.24 184.997 212.688 184.4C213.136 183.803 213.36 183.019 213.36 182.048C213.36 181.088 213.136 180.315 212.688 179.728C212.24 179.131 211.642 178.832 210.896 178.832C210.096 178.832 209.445 179.12 208.944 179.696C208.453 180.261 208.208 181.045 208.208 182.048C208.208 183.051 208.458 183.845 208.96 184.432C209.461 185.008 210.106 185.296 210.896 185.296ZM219.642 185.12C219.674 185.109 219.717 185.104 219.77 185.104C219.834 185.104 219.893 185.125 219.946 185.168C220 185.211 220.032 185.269 220.042 185.344L220.09 185.568C220.101 185.589 220.106 185.627 220.106 185.68C220.106 185.829 220.026 185.92 219.866 185.952C219.482 186.069 219.072 186.128 218.634 186.128C217.941 186.128 217.445 185.973 217.146 185.664C216.858 185.344 216.714 184.885 216.714 184.288V178.912H215.53C215.317 178.912 215.21 178.805 215.21 178.592V178.432C215.21 178.219 215.317 178.112 215.53 178.112H216.714V175.68C216.714 175.467 216.821 175.36 217.034 175.36H217.45C217.664 175.36 217.77 175.467 217.77 175.68V178.112H219.69C219.904 178.112 220.01 178.219 220.01 178.432V178.592C220.01 178.805 219.904 178.912 219.69 178.912H217.77V184.16C217.77 184.555 217.845 184.832 217.994 184.992C218.144 185.152 218.4 185.232 218.762 185.232C219.018 185.232 219.312 185.195 219.642 185.12ZM222.15 176.112C221.936 176.112 221.755 176.037 221.606 175.888C221.467 175.739 221.398 175.557 221.398 175.344C221.398 175.131 221.467 174.955 221.606 174.816C221.755 174.677 221.936 174.608 222.15 174.608C222.374 174.608 222.555 174.677 222.694 174.816C222.843 174.955 222.918 175.131 222.918 175.344C222.918 175.557 222.843 175.739 222.694 175.888C222.555 176.037 222.374 176.112 222.15 176.112ZM221.942 186C221.728 186 221.622 185.893 221.622 185.68V178.432C221.622 178.219 221.728 178.112 221.942 178.112H222.358C222.571 178.112 222.678 178.219 222.678 178.432V185.68C222.678 185.893 222.571 186 222.358 186H221.942ZM228.292 186.208C227.556 186.208 226.9 186.032 226.324 185.68C225.748 185.328 225.3 184.843 224.98 184.224C224.66 183.595 224.5 182.875 224.5 182.064C224.5 181.253 224.66 180.539 224.98 179.92C225.3 179.291 225.748 178.8 226.324 178.448C226.9 178.096 227.556 177.92 228.292 177.92C229.028 177.92 229.684 178.096 230.26 178.448C230.836 178.8 231.284 179.291 231.604 179.92C231.924 180.539 232.084 181.253 232.084 182.064C232.084 182.875 231.924 183.595 231.604 184.224C231.284 184.843 230.836 185.328 230.26 185.68C229.684 186.032 229.028 186.208 228.292 186.208ZM228.292 185.328C229.113 185.328 229.769 185.029 230.26 184.432C230.75 183.824 230.996 183.035 230.996 182.064C230.996 181.093 230.75 180.309 230.26 179.712C229.769 179.104 229.113 178.8 228.292 178.8C227.47 178.8 226.814 179.104 226.324 179.712C225.833 180.309 225.588 181.093 225.588 182.064C225.588 183.035 225.833 183.824 226.324 184.432C226.814 185.029 227.47 185.328 228.292 185.328ZM237.438 177.92C238.366 177.92 239.065 178.176 239.534 178.688C240.014 179.2 240.254 179.84 240.254 180.608V185.68C240.254 185.893 240.148 186 239.934 186H239.518C239.305 186 239.198 185.893 239.198 185.68V180.96C239.198 180.256 239.028 179.723 238.686 179.36C238.345 178.997 237.854 178.816 237.214 178.816C236.809 178.816 236.436 178.917 236.094 179.12C235.753 179.312 235.481 179.579 235.278 179.92C235.076 180.261 234.974 180.635 234.974 181.04V185.68C234.974 185.893 234.868 186 234.654 186H234.238C234.025 186 233.918 185.893 233.918 185.68V178.432C233.918 178.219 234.025 178.112 234.238 178.112H234.59C234.804 178.112 234.91 178.219 234.91 178.432V179.2C235.177 178.773 235.529 178.453 235.966 178.24C236.404 178.027 236.894 177.92 237.438 177.92ZM253.238 185.072C253.451 185.072 253.558 185.179 253.558 185.392V185.68C253.558 185.893 253.451 186 253.238 186H246.134C245.92 186 245.814 185.893 245.814 185.68V185.616C245.814 184.837 245.947 184.181 246.214 183.648C246.491 183.104 246.848 182.645 247.286 182.272C247.734 181.899 248.347 181.472 249.126 180.992C249.2 180.939 249.478 180.773 249.958 180.496C250.523 180.176 250.966 179.899 251.286 179.664C251.606 179.429 251.872 179.141 252.086 178.8C252.299 178.448 252.406 178.037 252.406 177.568C252.406 176.853 252.166 176.304 251.686 175.92C251.206 175.536 250.624 175.344 249.942 175.344C249.28 175.344 248.731 175.483 248.294 175.76C247.856 176.037 247.35 176.517 246.774 177.2C246.699 177.296 246.608 177.344 246.502 177.344C246.448 177.344 246.384 177.317 246.31 177.264L246.038 177.056C245.942 176.971 245.894 176.885 245.894 176.8C245.894 176.747 245.92 176.683 245.974 176.608C246.539 175.893 247.126 175.349 247.734 174.976C248.352 174.603 249.078 174.416 249.91 174.416C250.603 174.416 251.222 174.549 251.766 174.816C252.31 175.072 252.731 175.44 253.03 175.92C253.339 176.389 253.494 176.923 253.494 177.52C253.494 178.149 253.36 178.693 253.094 179.152C252.838 179.6 252.512 179.973 252.118 180.272C251.723 180.56 251.19 180.901 250.518 181.296L249.718 181.776C249.046 182.192 248.534 182.533 248.182 182.8C247.83 183.056 247.536 183.371 247.302 183.744C247.067 184.107 246.928 184.549 246.886 185.072H253.238Z" fill="#464646"/>
<path d="M86.5708 139.72C86.5708 139.56 86.6508 139.48 86.8108 139.48H87.1588C87.3188 139.48 87.3988 139.56 87.3988 139.72V147.76C87.3988 147.92 87.3188 148 87.1588 148H86.6188C86.4908 148 86.3908 147.948 86.3188 147.844L83.7388 143.932L83.5948 143.704C82.6348 142.264 81.9468 141.204 81.5308 140.524C81.5628 141.46 81.5788 142.54 81.5788 143.764V147.76C81.5788 147.92 81.4988 148 81.3388 148H80.9908C80.8308 148 80.7508 147.92 80.7508 147.76V139.72C80.7508 139.56 80.8308 139.48 80.9908 139.48H81.5308C81.6588 139.48 81.7588 139.532 81.8308 139.636L84.3988 143.536L84.8548 144.244C85.6628 145.468 86.2508 146.38 86.6188 146.98C86.5868 146.028 86.5708 144.944 86.5708 143.728V139.72ZM91.7618 148.156C91.2098 148.156 90.7178 148.024 90.2858 147.76C89.8538 147.496 89.5178 147.132 89.2778 146.668C89.0378 146.196 88.9178 145.656 88.9178 145.048C88.9178 144.44 89.0378 143.904 89.2778 143.44C89.5178 142.968 89.8538 142.6 90.2858 142.336C90.7178 142.072 91.2098 141.94 91.7618 141.94C92.3138 141.94 92.8058 142.072 93.2378 142.336C93.6698 142.6 94.0058 142.968 94.2458 143.44C94.4858 143.904 94.6058 144.44 94.6058 145.048C94.6058 145.656 94.4858 146.196 94.2458 146.668C94.0058 147.132 93.6698 147.496 93.2378 147.76C92.8058 148.024 92.3138 148.156 91.7618 148.156ZM91.7618 147.496C92.3778 147.496 92.8698 147.272 93.2378 146.824C93.6058 146.368 93.7898 145.776 93.7898 145.048C93.7898 144.32 93.6058 143.732 93.2378 143.284C92.8698 142.828 92.3778 142.6 91.7618 142.6C91.1458 142.6 90.6538 142.828 90.2858 143.284C89.9178 143.732 89.7338 144.32 89.7338 145.048C89.7338 145.776 89.9178 146.368 90.2858 146.824C90.6538 147.272 91.1458 147.496 91.7618 147.496ZM98.47 147.34C98.494 147.332 98.526 147.328 98.566 147.328C98.614 147.328 98.658 147.344 98.698 147.376C98.738 147.408 98.762 147.452 98.77 147.508L98.806 147.676C98.814 147.692 98.818 147.72 98.818 147.76C98.818 147.872 98.758 147.94 98.638 147.964C98.35 148.052 98.042 148.096 97.714 148.096C97.194 148.096 96.822 147.98 96.598 147.748C96.382 147.508 96.274 147.164 96.274 146.716V142.684H95.386C95.226 142.684 95.146 142.604 95.146 142.444V142.324C95.146 142.164 95.226 142.084 95.386 142.084H96.274V140.26C96.274 140.1 96.354 140.02 96.514 140.02H96.826C96.986 140.02 97.066 140.1 97.066 140.26V142.084H98.506C98.666 142.084 98.746 142.164 98.746 142.324V142.444C98.746 142.604 98.666 142.684 98.506 142.684H97.066V146.62C97.066 146.916 97.122 147.124 97.234 147.244C97.346 147.364 97.538 147.424 97.81 147.424C98.002 147.424 98.222 147.396 98.47 147.34ZM104.784 148.156C104.296 148.156 103.864 148.088 103.488 147.952C103.12 147.808 102.732 147.568 102.324 147.232C102.252 147.184 102.216 147.128 102.216 147.064C102.216 147.008 102.244 146.952 102.3 146.896L102.456 146.728C102.504 146.664 102.564 146.632 102.636 146.632C102.692 146.632 102.744 146.656 102.792 146.704C103.176 147 103.516 147.208 103.812 147.328C104.108 147.44 104.432 147.496 104.784 147.496C105.224 147.496 105.584 147.4 105.864 147.208C106.144 147.008 106.284 146.74 106.284 146.404C106.284 146.068 106.14 145.82 105.852 145.66C105.564 145.5 105.12 145.356 104.52 145.228C103.992 145.116 103.576 145 103.272 144.88C102.976 144.752 102.756 144.592 102.612 144.4C102.468 144.208 102.396 143.956 102.396 143.644C102.396 143.132 102.604 142.72 103.02 142.408C103.436 142.096 103.96 141.94 104.592 141.94C105.024 141.94 105.408 141.996 105.744 142.108C106.088 142.212 106.432 142.388 106.776 142.636C106.848 142.692 106.884 142.752 106.884 142.816C106.884 142.856 106.864 142.908 106.824 142.972L106.68 143.152C106.64 143.216 106.584 143.248 106.512 143.248C106.448 143.248 106.392 143.228 106.344 143.188C106.016 142.956 105.724 142.8 105.468 142.72C105.22 142.64 104.936 142.6 104.616 142.6C104.176 142.6 103.824 142.696 103.56 142.888C103.296 143.08 103.164 143.324 103.164 143.62C103.164 143.804 103.224 143.952 103.344 144.064C103.464 144.176 103.636 144.272 103.86 144.352C104.084 144.424 104.412 144.508 104.844 144.604C105.644 144.78 106.212 144.996 106.548 145.252C106.892 145.508 107.064 145.88 107.064 146.368C107.064 146.904 106.852 147.336 106.428 147.664C106.004 147.992 105.456 148.156 104.784 148.156ZM112.712 146.596C112.768 146.54 112.828 146.512 112.892 146.512C112.948 146.512 113 146.536 113.048 146.584L113.204 146.728C113.26 146.784 113.288 146.844 113.288 146.908C113.288 146.956 113.264 147.012 113.216 147.076C112.824 147.468 112.444 147.748 112.076 147.916C111.708 148.076 111.296 148.156 110.84 148.156C110.264 148.156 109.764 148.028 109.34 147.772C108.916 147.516 108.588 147.16 108.356 146.704C108.124 146.24 108.008 145.704 108.008 145.096C108.008 144.48 108.12 143.936 108.344 143.464C108.576 142.984 108.9 142.612 109.316 142.348C109.732 142.076 110.212 141.94 110.756 141.94C111.564 141.94 112.2 142.192 112.664 142.696C113.128 143.2 113.36 143.88 113.36 144.736V144.88C113.352 144.952 113.324 145.008 113.276 145.048C113.236 145.088 113.18 145.108 113.108 145.108H108.812C108.836 145.78 109.012 146.348 109.34 146.812C109.676 147.268 110.176 147.496 110.84 147.496C111.2 147.496 111.516 147.432 111.788 147.304C112.068 147.168 112.376 146.932 112.712 146.596ZM110.756 142.6C110.228 142.6 109.792 142.764 109.448 143.092C109.112 143.412 108.908 143.884 108.836 144.508H112.568C112.552 143.924 112.384 143.46 112.064 143.116C111.744 142.772 111.308 142.6 110.756 142.6ZM115.031 148C114.871 148 114.791 147.92 114.791 147.76V139.72C114.791 139.56 114.871 139.48 115.031 139.48H115.343C115.503 139.48 115.583 139.56 115.583 139.72V147.76C115.583 147.92 115.503 148 115.343 148H115.031ZM121.676 146.596C121.732 146.54 121.792 146.512 121.856 146.512C121.912 146.512 121.964 146.536 122.012 146.584L122.168 146.728C122.224 146.784 122.252 146.844 122.252 146.908C122.252 146.956 122.228 147.012 122.18 147.076C121.788 147.468 121.408 147.748 121.04 147.916C120.672 148.076 120.26 148.156 119.804 148.156C119.228 148.156 118.728 148.028 118.304 147.772C117.88 147.516 117.552 147.16 117.32 146.704C117.088 146.24 116.972 145.704 116.972 145.096C116.972 144.48 117.084 143.936 117.308 143.464C117.54 142.984 117.864 142.612 118.28 142.348C118.696 142.076 119.176 141.94 119.72 141.94C120.528 141.94 121.164 142.192 121.628 142.696C122.092 143.2 122.324 143.88 122.324 144.736V144.88C122.316 144.952 122.288 145.008 122.24 145.048C122.2 145.088 122.144 145.108 122.072 145.108H117.776C117.8 145.78 117.976 146.348 118.304 146.812C118.64 147.268 119.14 147.496 119.804 147.496C120.164 147.496 120.48 147.432 120.752 147.304C121.032 147.168 121.34 146.932 121.676 146.596ZM119.72 142.6C119.192 142.6 118.756 142.764 118.412 143.092C118.076 143.412 117.872 143.884 117.8 144.508H121.532C121.516 143.924 121.348 143.46 121.028 143.116C120.708 142.772 120.272 142.6 119.72 142.6ZM126.155 148.156C125.587 148.156 125.091 148.028 124.667 147.772C124.251 147.508 123.927 147.144 123.695 146.68C123.471 146.208 123.359 145.664 123.359 145.048C123.359 144.44 123.471 143.9 123.695 143.428C123.927 142.956 124.251 142.592 124.667 142.336C125.091 142.072 125.579 141.94 126.131 141.94C126.579 141.94 126.971 142.016 127.307 142.168C127.643 142.312 127.967 142.552 128.279 142.888C128.327 142.936 128.351 142.988 128.351 143.044C128.351 143.116 128.319 143.176 128.255 143.224L128.087 143.38C128.039 143.428 127.983 143.452 127.919 143.452C127.863 143.452 127.803 143.42 127.739 143.356C127.459 143.076 127.191 142.88 126.935 142.768C126.687 142.656 126.411 142.6 126.107 142.6C125.691 142.6 125.335 142.716 125.039 142.948C124.751 143.18 124.535 143.484 124.391 143.86C124.247 144.228 124.175 144.624 124.175 145.048C124.175 145.472 124.247 145.872 124.391 146.248C124.535 146.616 124.755 146.916 125.051 147.148C125.347 147.372 125.711 147.484 126.143 147.484C126.463 147.484 126.743 147.428 126.983 147.316C127.231 147.196 127.507 146.972 127.811 146.644C127.875 146.58 127.935 146.548 127.991 146.548C128.055 146.548 128.111 146.572 128.159 146.62L128.327 146.752C128.383 146.8 128.411 146.856 128.411 146.92C128.411 146.984 128.375 147.06 128.303 147.148C127.967 147.516 127.631 147.776 127.295 147.928C126.959 148.08 126.579 148.156 126.155 148.156ZM132.396 147.34C132.42 147.332 132.452 147.328 132.492 147.328C132.54 147.328 132.584 147.344 132.624 147.376C132.664 147.408 132.688 147.452 132.696 147.508L132.732 147.676C132.74 147.692 132.744 147.72 132.744 147.76C132.744 147.872 132.684 147.94 132.564 147.964C132.276 148.052 131.968 148.096 131.64 148.096C131.12 148.096 130.748 147.98 130.524 147.748C130.308 147.508 130.2 147.164 130.2 146.716V142.684H129.312C129.152 142.684 129.072 142.604 129.072 142.444V142.324C129.072 142.164 129.152 142.084 129.312 142.084H130.2V140.26C130.2 140.1 130.28 140.02 130.44 140.02H130.752C130.912 140.02 130.992 140.1 130.992 140.26V142.084H132.432C132.592 142.084 132.672 142.164 132.672 142.324V142.444C132.672 142.604 132.592 142.684 132.432 142.684H130.992V146.62C130.992 146.916 131.048 147.124 131.16 147.244C131.272 147.364 131.464 147.424 131.736 147.424C131.928 147.424 132.148 147.396 132.396 147.34ZM137.966 146.596C138.022 146.54 138.082 146.512 138.146 146.512C138.202 146.512 138.254 146.536 138.302 146.584L138.458 146.728C138.514 146.784 138.542 146.844 138.542 146.908C138.542 146.956 138.518 147.012 138.47 147.076C138.078 147.468 137.698 147.748 137.33 147.916C136.962 148.076 136.55 148.156 136.094 148.156C135.518 148.156 135.018 148.028 134.594 147.772C134.17 147.516 133.842 147.16 133.61 146.704C133.378 146.24 133.262 145.704 133.262 145.096C133.262 144.48 133.374 143.936 133.598 143.464C133.83 142.984 134.154 142.612 134.57 142.348C134.986 142.076 135.466 141.94 136.01 141.94C136.818 141.94 137.454 142.192 137.918 142.696C138.382 143.2 138.614 143.88 138.614 144.736V144.88C138.606 144.952 138.578 145.008 138.53 145.048C138.49 145.088 138.434 145.108 138.362 145.108H134.066C134.09 145.78 134.266 146.348 134.594 146.812C134.93 147.268 135.43 147.496 136.094 147.496C136.454 147.496 136.77 147.432 137.042 147.304C137.322 147.168 137.63 146.932 137.966 146.596ZM136.01 142.6C135.482 142.6 135.046 142.764 134.702 143.092C134.366 143.412 134.162 143.884 134.09 144.508H137.822C137.806 143.924 137.638 143.46 137.318 143.116C136.998 142.772 136.562 142.6 136.01 142.6ZM144.316 139.72C144.316 139.56 144.396 139.48 144.556 139.48H144.868C145.028 139.48 145.108 139.56 145.108 139.72V147.76C145.108 147.92 145.028 148 144.868 148H144.616C144.456 148 144.376 147.92 144.376 147.76V146.98C144.16 147.356 143.876 147.644 143.524 147.844C143.172 148.044 142.756 148.144 142.276 148.144C141.772 148.144 141.324 148.016 140.932 147.76C140.54 147.496 140.232 147.132 140.008 146.668C139.784 146.196 139.672 145.656 139.672 145.048C139.672 144.44 139.784 143.904 140.008 143.44C140.24 142.968 140.556 142.604 140.956 142.348C141.356 142.084 141.804 141.952 142.3 141.952C143.212 141.952 143.884 142.292 144.316 142.972V139.72ZM142.336 147.472C142.936 147.472 143.42 147.26 143.788 146.836C144.164 146.404 144.352 145.808 144.352 145.048C144.352 144.296 144.164 143.704 143.788 143.272C143.42 142.84 142.936 142.624 142.336 142.624C141.784 142.624 141.336 142.848 140.992 143.296C140.656 143.744 140.488 144.328 140.488 145.048C140.488 145.776 140.656 146.364 140.992 146.812C141.328 147.252 141.776 147.472 142.336 147.472Z" fill="#767676"/>
<path d="M103.891 186.18C103.259 186.18 102.687 186.084 102.175 185.892C101.671 185.692 101.139 185.368 100.579 184.92C100.507 184.856 100.471 184.796 100.471 184.74C100.471 184.692 100.495 184.64 100.543 184.584L100.735 184.356C100.775 184.292 100.835 184.26 100.915 184.26C100.979 184.26 101.031 184.28 101.071 184.32C101.639 184.76 102.135 185.06 102.559 185.22C102.983 185.372 103.427 185.448 103.891 185.448C104.539 185.448 105.067 185.288 105.475 184.968C105.883 184.64 106.087 184.196 106.087 183.636C106.087 183.276 105.991 182.988 105.799 182.772C105.607 182.556 105.343 182.388 105.007 182.268C104.679 182.148 104.211 182.02 103.603 181.884C102.875 181.724 102.307 181.552 101.899 181.368C101.499 181.184 101.207 180.952 101.023 180.672C100.839 180.392 100.747 180.032 100.747 179.592C100.747 179.128 100.879 178.724 101.143 178.38C101.415 178.028 101.775 177.76 102.223 177.576C102.671 177.392 103.155 177.3 103.675 177.3C104.243 177.3 104.759 177.384 105.223 177.552C105.695 177.72 106.159 177.988 106.615 178.356C106.687 178.404 106.723 178.46 106.723 178.524C106.723 178.572 106.699 178.628 106.651 178.692L106.471 178.908C106.431 178.972 106.371 179.004 106.291 179.004C106.227 179.004 106.171 178.984 106.123 178.944C105.715 178.608 105.319 178.372 104.935 178.236C104.559 178.1 104.143 178.032 103.687 178.032C103.271 178.032 102.903 178.1 102.583 178.236C102.263 178.364 102.011 178.544 101.827 178.776C101.651 179.008 101.563 179.272 101.563 179.568C101.563 179.888 101.651 180.144 101.827 180.336C102.011 180.528 102.263 180.68 102.583 180.792C102.911 180.904 103.387 181.032 104.011 181.176C104.731 181.344 105.299 181.532 105.715 181.74C106.139 181.948 106.447 182.204 106.639 182.508C106.831 182.804 106.927 183.172 106.927 183.612C106.927 184.124 106.795 184.576 106.531 184.968C106.275 185.352 105.915 185.652 105.451 185.868C104.987 186.076 104.467 186.18 103.891 186.18ZM112.712 184.596C112.768 184.54 112.828 184.512 112.892 184.512C112.948 184.512 113 184.536 113.048 184.584L113.204 184.728C113.26 184.784 113.288 184.844 113.288 184.908C113.288 184.956 113.264 185.012 113.216 185.076C112.824 185.468 112.444 185.748 112.076 185.916C111.708 186.076 111.296 186.156 110.84 186.156C110.264 186.156 109.764 186.028 109.34 185.772C108.916 185.516 108.588 185.16 108.356 184.704C108.124 184.24 108.008 183.704 108.008 183.096C108.008 182.48 108.12 181.936 108.344 181.464C108.576 180.984 108.9 180.612 109.316 180.348C109.732 180.076 110.212 179.94 110.756 179.94C111.564 179.94 112.2 180.192 112.664 180.696C113.128 181.2 113.36 181.88 113.36 182.736V182.88C113.352 182.952 113.324 183.008 113.276 183.048C113.236 183.088 113.18 183.108 113.108 183.108H108.812C108.836 183.78 109.012 184.348 109.34 184.812C109.676 185.268 110.176 185.496 110.84 185.496C111.2 185.496 111.516 185.432 111.788 185.304C112.068 185.168 112.376 184.932 112.712 184.596ZM110.756 180.6C110.228 180.6 109.792 180.764 109.448 181.092C109.112 181.412 108.908 181.884 108.836 182.508H112.568C112.552 181.924 112.384 181.46 112.064 181.116C111.744 180.772 111.308 180.6 110.756 180.6ZM115.031 186C114.871 186 114.791 185.92 114.791 185.76V177.72C114.791 177.56 114.871 177.48 115.031 177.48H115.343C115.503 177.48 115.583 177.56 115.583 177.72V185.76C115.583 185.92 115.503 186 115.343 186H115.031ZM121.676 184.596C121.732 184.54 121.792 184.512 121.856 184.512C121.912 184.512 121.964 184.536 122.012 184.584L122.168 184.728C122.224 184.784 122.252 184.844 122.252 184.908C122.252 184.956 122.228 185.012 122.18 185.076C121.788 185.468 121.408 185.748 121.04 185.916C120.672 186.076 120.26 186.156 119.804 186.156C119.228 186.156 118.728 186.028 118.304 185.772C117.88 185.516 117.552 185.16 117.32 184.704C117.088 184.24 116.972 183.704 116.972 183.096C116.972 182.48 117.084 181.936 117.308 181.464C117.54 180.984 117.864 180.612 118.28 180.348C118.696 180.076 119.176 179.94 119.72 179.94C120.528 179.94 121.164 180.192 121.628 180.696C122.092 181.2 122.324 181.88 122.324 182.736V182.88C122.316 182.952 122.288 183.008 122.24 183.048C122.2 183.088 122.144 183.108 122.072 183.108H117.776C117.8 183.78 117.976 184.348 118.304 184.812C118.64 185.268 119.14 185.496 119.804 185.496C120.164 185.496 120.48 185.432 120.752 185.304C121.032 185.168 121.34 184.932 121.676 184.596ZM119.72 180.6C119.192 180.6 118.756 180.764 118.412 181.092C118.076 181.412 117.872 181.884 117.8 182.508H121.532C121.516 181.924 121.348 181.46 121.028 181.116C120.708 180.772 120.272 180.6 119.72 180.6ZM126.155 186.156C125.587 186.156 125.091 186.028 124.667 185.772C124.251 185.508 123.927 185.144 123.695 184.68C123.471 184.208 123.359 183.664 123.359 183.048C123.359 182.44 123.471 181.9 123.695 181.428C123.927 180.956 124.251 180.592 124.667 180.336C125.091 180.072 125.579 179.94 126.131 179.94C126.579 179.94 126.971 180.016 127.307 180.168C127.643 180.312 127.967 180.552 128.279 180.888C128.327 180.936 128.351 180.988 128.351 181.044C128.351 181.116 128.319 181.176 128.255 181.224L128.087 181.38C128.039 181.428 127.983 181.452 127.919 181.452C127.863 181.452 127.803 181.42 127.739 181.356C127.459 181.076 127.191 180.88 126.935 180.768C126.687 180.656 126.411 180.6 126.107 180.6C125.691 180.6 125.335 180.716 125.039 180.948C124.751 181.18 124.535 181.484 124.391 181.86C124.247 182.228 124.175 182.624 124.175 183.048C124.175 183.472 124.247 183.872 124.391 184.248C124.535 184.616 124.755 184.916 125.051 185.148C125.347 185.372 125.711 185.484 126.143 185.484C126.463 185.484 126.743 185.428 126.983 185.316C127.231 185.196 127.507 184.972 127.811 184.644C127.875 184.58 127.935 184.548 127.991 184.548C128.055 184.548 128.111 184.572 128.159 184.62L128.327 184.752C128.383 184.8 128.411 184.856 128.411 184.92C128.411 184.984 128.375 185.06 128.303 185.148C127.967 185.516 127.631 185.776 127.295 185.928C126.959 186.08 126.579 186.156 126.155 186.156ZM132.396 185.34C132.42 185.332 132.452 185.328 132.492 185.328C132.54 185.328 132.584 185.344 132.624 185.376C132.664 185.408 132.688 185.452 132.696 185.508L132.732 185.676C132.74 185.692 132.744 185.72 132.744 185.76C132.744 185.872 132.684 185.94 132.564 185.964C132.276 186.052 131.968 186.096 131.64 186.096C131.12 186.096 130.748 185.98 130.524 185.748C130.308 185.508 130.2 185.164 130.2 184.716V180.684H129.312C129.152 180.684 129.072 180.604 129.072 180.444V180.324C129.072 180.164 129.152 180.084 129.312 180.084H130.2V178.26C130.2 178.1 130.28 178.02 130.44 178.02H130.752C130.912 178.02 130.992 178.1 130.992 178.26V180.084H132.432C132.592 180.084 132.672 180.164 132.672 180.324V180.444C132.672 180.604 132.592 180.684 132.432 180.684H130.992V184.62C130.992 184.916 131.048 185.124 131.16 185.244C131.272 185.364 131.464 185.424 131.736 185.424C131.928 185.424 132.148 185.396 132.396 185.34ZM137.966 184.596C138.022 184.54 138.082 184.512 138.146 184.512C138.202 184.512 138.254 184.536 138.302 184.584L138.458 184.728C138.514 184.784 138.542 184.844 138.542 184.908C138.542 184.956 138.518 185.012 138.47 185.076C138.078 185.468 137.698 185.748 137.33 185.916C136.962 186.076 136.55 186.156 136.094 186.156C135.518 186.156 135.018 186.028 134.594 185.772C134.17 185.516 133.842 185.16 133.61 184.704C133.378 184.24 133.262 183.704 133.262 183.096C133.262 182.48 133.374 181.936 133.598 181.464C133.83 180.984 134.154 180.612 134.57 180.348C134.986 180.076 135.466 179.94 136.01 179.94C136.818 179.94 137.454 180.192 137.918 180.696C138.382 181.2 138.614 181.88 138.614 182.736V182.88C138.606 182.952 138.578 183.008 138.53 183.048C138.49 183.088 138.434 183.108 138.362 183.108H134.066C134.09 183.78 134.266 184.348 134.594 184.812C134.93 185.268 135.43 185.496 136.094 185.496C136.454 185.496 136.77 185.432 137.042 185.304C137.322 185.168 137.63 184.932 137.966 184.596ZM136.01 180.6C135.482 180.6 135.046 180.764 134.702 181.092C134.366 181.412 134.162 181.884 134.09 182.508H137.822C137.806 181.924 137.638 181.46 137.318 181.116C136.998 180.772 136.562 180.6 136.01 180.6ZM144.316 177.72C144.316 177.56 144.396 177.48 144.556 177.48H144.868C145.028 177.48 145.108 177.56 145.108 177.72V185.76C145.108 185.92 145.028 186 144.868 186H144.616C144.456 186 144.376 185.92 144.376 185.76V184.98C144.16 185.356 143.876 185.644 143.524 185.844C143.172 186.044 142.756 186.144 142.276 186.144C141.772 186.144 141.324 186.016 140.932 185.76C140.54 185.496 140.232 185.132 140.008 184.668C139.784 184.196 139.672 183.656 139.672 183.048C139.672 182.44 139.784 181.904 140.008 181.44C140.24 180.968 140.556 180.604 140.956 180.348C141.356 180.084 141.804 179.952 142.3 179.952C143.212 179.952 143.884 180.292 144.316 180.972V177.72ZM142.336 185.472C142.936 185.472 143.42 185.26 143.788 184.836C144.164 184.404 144.352 183.808 144.352 183.048C144.352 182.296 144.164 181.704 143.788 181.272C143.42 180.84 142.936 180.624 142.336 180.624C141.784 180.624 141.336 180.848 140.992 181.296C140.656 181.744 140.488 182.328 140.488 183.048C140.488 183.776 140.656 184.364 140.992 184.812C141.328 185.252 141.776 185.472 142.336 185.472Z" fill="#767676"/>
<path d="M205.463 73C205.303 73 205.223 72.92 205.223 72.76V64.72C205.223 64.56 205.303 64.48 205.463 64.48H205.835C205.995 64.48 206.075 64.56 206.075 64.72V72.292H209.903C210.063 72.292 210.143 72.372 210.143 72.532V72.76C210.143 72.92 210.063 73 209.903 73H205.463ZM213.746 66.94C214.474 66.94 215.042 67.116 215.45 67.468C215.858 67.812 216.062 68.268 216.062 68.836V72.76C216.062 72.92 215.982 73 215.822 73H215.582C215.422 73 215.342 72.92 215.342 72.76V72.22C215.142 72.54 214.858 72.78 214.49 72.94C214.13 73.1 213.726 73.18 213.278 73.18C212.654 73.18 212.146 73.048 211.754 72.784C211.362 72.52 211.166 72.112 211.166 71.56C211.166 71.12 211.29 70.768 211.538 70.504C211.786 70.232 212.11 70.028 212.51 69.892C212.91 69.748 213.41 69.62 214.01 69.508L215.306 69.28V68.896C215.306 68.488 215.166 68.172 214.886 67.948C214.606 67.716 214.238 67.6 213.782 67.6C213.438 67.6 213.126 67.664 212.846 67.792C212.566 67.92 212.266 68.14 211.946 68.452C211.89 68.508 211.83 68.536 211.766 68.536C211.71 68.536 211.658 68.512 211.61 68.464L211.454 68.32C211.398 68.264 211.37 68.204 211.37 68.14C211.37 68.068 211.398 68.004 211.454 67.948C211.79 67.596 212.142 67.34 212.51 67.18C212.886 67.02 213.298 66.94 213.746 66.94ZM213.314 72.52C213.89 72.52 214.366 72.368 214.742 72.064C215.118 71.76 215.306 71.372 215.306 70.9V69.892L214.19 70.108C213.67 70.212 213.258 70.312 212.954 70.408C212.65 70.504 212.406 70.644 212.222 70.828C212.038 71.012 211.946 71.252 211.946 71.548C211.946 71.852 212.066 72.092 212.306 72.268C212.554 72.436 212.89 72.52 213.314 72.52ZM220.65 66.952C221.154 66.952 221.602 67.084 221.994 67.348C222.394 67.604 222.702 67.968 222.918 68.44C223.142 68.904 223.254 69.44 223.254 70.048C223.254 70.656 223.142 71.196 222.918 71.668C222.694 72.132 222.382 72.496 221.982 72.76C221.59 73.016 221.146 73.144 220.65 73.144C219.698 73.144 219.002 72.776 218.562 72.04V72.76C218.562 72.92 218.482 73 218.322 73H218.058C217.898 73 217.818 72.92 217.818 72.76V64.708C217.818 64.548 217.898 64.468 218.058 64.468H218.37C218.53 64.468 218.61 64.548 218.61 64.708V68.02C219.05 67.308 219.73 66.952 220.65 66.952ZM220.59 72.472C221.142 72.472 221.586 72.248 221.922 71.8C222.266 71.352 222.438 70.768 222.438 70.048C222.438 69.328 222.266 68.744 221.922 68.296C221.586 67.848 221.142 67.624 220.59 67.624C219.998 67.624 219.514 67.84 219.138 68.272C218.762 68.704 218.574 69.296 218.574 70.048C218.574 70.808 218.758 71.404 219.126 71.836C219.502 72.26 219.99 72.472 220.59 72.472ZM229.04 71.596C229.096 71.54 229.156 71.512 229.22 71.512C229.276 71.512 229.328 71.536 229.376 71.584L229.532 71.728C229.588 71.784 229.616 71.844 229.616 71.908C229.616 71.956 229.592 72.012 229.544 72.076C229.152 72.468 228.772 72.748 228.404 72.916C228.036 73.076 227.624 73.156 227.168 73.156C226.592 73.156 226.092 73.028 225.668 72.772C225.244 72.516 224.916 72.16 224.684 71.704C224.452 71.24 224.336 70.704 224.336 70.096C224.336 69.48 224.448 68.936 224.672 68.464C224.904 67.984 225.228 67.612 225.644 67.348C226.06 67.076 226.54 66.94 227.084 66.94C227.892 66.94 228.528 67.192 228.992 67.696C229.456 68.2 229.688 68.88 229.688 69.736V69.88C229.68 69.952 229.652 70.008 229.604 70.048C229.564 70.088 229.508 70.108 229.436 70.108H225.14C225.164 70.78 225.34 71.348 225.668 71.812C226.004 72.268 226.504 72.496 227.168 72.496C227.528 72.496 227.844 72.432 228.116 72.304C228.396 72.168 228.704 71.932 229.04 71.596ZM227.084 67.6C226.556 67.6 226.12 67.764 225.776 68.092C225.44 68.412 225.236 68.884 225.164 69.508H228.896C228.88 68.924 228.712 68.46 228.392 68.116C228.072 67.772 227.636 67.6 227.084 67.6ZM231.359 73C231.199 73 231.119 72.92 231.119 72.76V64.72C231.119 64.56 231.199 64.48 231.359 64.48H231.671C231.831 64.48 231.911 64.56 231.911 64.72V72.76C231.911 72.92 231.831 73 231.671 73H231.359Z" fill="#464646"/>
<path d="M218 123C218 123.552 218.448 124 219 124C219.552 124 220 123.552 220 123L218 123ZM218 81L218 123L220 123L220 81L218 81Z" fill="#06BEFB"/>
<circle cx="219" cy="126" r="3" fill="#06BEFB"/>
</svg>
