<svg width="344" height="224" viewBox="0 0 344 224" fill="none" xmlns="http://www.w3.org/2000/svg">
<rect width="344" height="224" fill="#F5F5F5"/>
<rect x="94.5" y="88.5" width="15" height="15" rx="7.5" fill="white" stroke="#767676"/>
<path d="M123.136 102.24C122.293 102.24 121.531 102.112 120.848 101.856C120.176 101.589 119.467 101.157 118.72 100.56C118.624 100.475 118.576 100.395 118.576 100.32C118.576 100.256 118.608 100.187 118.672 100.112L118.928 99.808C118.981 99.7227 119.061 99.68 119.168 99.68C119.253 99.68 119.323 99.7067 119.376 99.76C120.133 100.347 120.795 100.747 121.36 100.96C121.925 101.163 122.517 101.264 123.136 101.264C124 101.264 124.704 101.051 125.248 100.624C125.792 100.187 126.064 99.5947 126.064 98.848C126.064 98.368 125.936 97.984 125.68 97.696C125.424 97.408 125.072 97.184 124.624 97.024C124.187 96.864 123.563 96.6933 122.752 96.512C121.781 96.2987 121.024 96.0693 120.48 95.824C119.947 95.5787 119.557 95.2693 119.312 94.896C119.067 94.5227 118.944 94.0427 118.944 93.456C118.944 92.8373 119.12 92.2987 119.472 91.84C119.835 91.3707 120.315 91.0133 120.912 90.768C121.509 90.5227 122.155 90.4 122.848 90.4C123.605 90.4 124.293 90.512 124.912 90.736C125.541 90.96 126.16 91.3173 126.768 91.808C126.864 91.872 126.912 91.9467 126.912 92.032C126.912 92.096 126.88 92.1707 126.816 92.256L126.576 92.544C126.523 92.6293 126.443 92.672 126.336 92.672C126.251 92.672 126.176 92.6453 126.112 92.592C125.568 92.144 125.04 91.8293 124.528 91.648C124.027 91.4667 123.472 91.376 122.864 91.376C122.309 91.376 121.819 91.4667 121.392 91.648C120.965 91.8187 120.629 92.0587 120.384 92.368C120.149 92.6773 120.032 93.0293 120.032 93.424C120.032 93.8507 120.149 94.192 120.384 94.448C120.629 94.704 120.965 94.9067 121.392 95.056C121.829 95.2053 122.464 95.376 123.296 95.568C124.256 95.792 125.013 96.0427 125.568 96.32C126.133 96.5973 126.544 96.9387 126.8 97.344C127.056 97.7387 127.184 98.2293 127.184 98.816C127.184 99.4987 127.008 100.101 126.656 100.624C126.315 101.136 125.835 101.536 125.216 101.824C124.597 102.101 123.904 102.24 123.136 102.24ZM137.138 93.92C137.991 93.92 138.642 94.1653 139.09 94.656C139.548 95.136 139.778 95.7547 139.778 96.512V101.68C139.778 101.893 139.671 102 139.458 102H139.042C138.828 102 138.722 101.893 138.722 101.68V96.8C138.722 96.16 138.572 95.6693 138.274 95.328C137.986 94.9867 137.554 94.816 136.977 94.816C136.37 94.816 135.884 95.0187 135.522 95.424C135.159 95.8293 134.978 96.352 134.978 96.992V101.68C134.978 101.893 134.871 102 134.658 102H134.242C134.028 102 133.922 101.893 133.922 101.68V96.8C133.922 96.16 133.772 95.6693 133.474 95.328C133.186 94.9867 132.748 94.816 132.161 94.816C131.618 94.816 131.164 94.9867 130.802 95.328C130.45 95.6693 130.242 96.1173 130.178 96.672V101.68C130.178 101.893 130.071 102 129.858 102H129.442C129.228 102 129.122 101.893 129.122 101.68V94.432C129.122 94.2187 129.228 94.112 129.442 94.112H129.794C130.007 94.112 130.114 94.2187 130.114 94.432V95.088C130.594 94.3093 131.356 93.92 132.402 93.92C132.946 93.92 133.41 94.0427 133.794 94.288C134.188 94.5227 134.482 94.8427 134.674 95.248C135.239 94.3627 136.06 93.92 137.138 93.92ZM145.146 93.92C146.117 93.92 146.874 94.1547 147.418 94.624C147.962 95.0827 148.234 95.6907 148.234 96.448V101.68C148.234 101.893 148.127 102 147.914 102H147.594C147.381 102 147.274 101.893 147.274 101.68V100.96C147.007 101.387 146.629 101.707 146.138 101.92C145.658 102.133 145.119 102.24 144.522 102.24C143.69 102.24 143.013 102.064 142.49 101.712C141.967 101.36 141.706 100.816 141.706 100.08C141.706 99.4933 141.871 99.024 142.202 98.672C142.533 98.3093 142.965 98.0373 143.498 97.856C144.031 97.664 144.698 97.4933 145.498 97.344L147.226 97.04V96.528C147.226 95.984 147.039 95.5627 146.666 95.264C146.293 94.9547 145.802 94.8 145.194 94.8C144.735 94.8 144.319 94.8853 143.946 95.056C143.573 95.2267 143.173 95.52 142.746 95.936C142.671 96.0107 142.591 96.048 142.506 96.048C142.431 96.048 142.362 96.016 142.298 95.952L142.09 95.76C142.015 95.6853 141.978 95.6053 141.978 95.52C141.978 95.424 142.015 95.3387 142.09 95.264C142.538 94.7947 143.007 94.4533 143.498 94.24C143.999 94.0267 144.549 93.92 145.146 93.92ZM144.57 101.36C145.338 101.36 145.973 101.157 146.474 100.752C146.975 100.347 147.226 99.8293 147.226 99.2V97.856L145.738 98.144C145.045 98.2827 144.495 98.416 144.09 98.544C143.685 98.672 143.359 98.8587 143.114 99.104C142.869 99.3493 142.746 99.6693 142.746 100.064C142.746 100.469 142.906 100.789 143.226 101.024C143.557 101.248 144.005 101.36 144.57 101.36ZM150.911 102C150.697 102 150.591 101.893 150.591 101.68V90.96C150.591 90.7467 150.697 90.64 150.911 90.64H151.327C151.54 90.64 151.647 90.7467 151.647 90.96V101.68C151.647 101.893 151.54 102 151.327 102H150.911ZM154.364 102C154.15 102 154.044 101.893 154.044 101.68V90.96C154.044 90.7467 154.15 90.64 154.364 90.64H154.78C154.993 90.64 155.1 90.7467 155.1 90.96V101.68C155.1 101.893 154.993 102 154.78 102H154.364Z" fill="#464646"/>
<rect x="94.5" y="126.5" width="15" height="15" rx="7.5" fill="white" stroke="#767676"/>
<path d="M128.304 128.896C128.368 128.725 128.491 128.64 128.672 128.64H129.92C130.133 128.64 130.24 128.747 130.24 128.96V139.68C130.24 139.893 130.133 140 129.92 140H129.456C129.243 140 129.136 139.893 129.136 139.68V134.368C129.136 133.227 129.147 131.579 129.168 129.424C128.731 130.672 128.133 132.32 127.376 134.368L125.408 139.744C125.344 139.915 125.221 140 125.04 140H124.576C124.395 140 124.272 139.915 124.208 139.744L122.192 134.352C121.765 133.243 121.173 131.6 120.416 129.424C120.437 131.579 120.448 133.232 120.448 134.384V139.68C120.448 139.893 120.341 140 120.128 140H119.696C119.483 140 119.376 139.893 119.376 139.68V128.96C119.376 128.747 119.483 128.64 119.696 128.64H120.928C121.109 128.64 121.232 128.725 121.296 128.896L123.12 133.808C123.963 136.101 124.528 137.717 124.816 138.656C125.083 137.76 125.541 136.421 126.192 134.64C126.235 134.523 126.283 134.395 126.336 134.256C126.389 134.117 126.443 133.968 126.496 133.808L128.304 128.896ZM138.537 138.128C138.612 138.053 138.692 138.016 138.777 138.016C138.852 138.016 138.921 138.048 138.985 138.112L139.193 138.304C139.268 138.379 139.305 138.459 139.305 138.544C139.305 138.608 139.273 138.683 139.209 138.768C138.687 139.291 138.18 139.664 137.689 139.888C137.199 140.101 136.649 140.208 136.041 140.208C135.273 140.208 134.607 140.037 134.041 139.696C133.476 139.355 133.039 138.88 132.729 138.272C132.42 137.653 132.265 136.939 132.265 136.128C132.265 135.307 132.415 134.581 132.713 133.952C133.023 133.312 133.455 132.816 134.009 132.464C134.564 132.101 135.204 131.92 135.929 131.92C137.007 131.92 137.855 132.256 138.473 132.928C139.092 133.6 139.401 134.507 139.401 135.648V135.84C139.391 135.936 139.353 136.011 139.289 136.064C139.236 136.117 139.161 136.144 139.065 136.144H133.337C133.369 137.04 133.604 137.797 134.041 138.416C134.489 139.024 135.156 139.328 136.041 139.328C136.521 139.328 136.943 139.243 137.305 139.072C137.679 138.891 138.089 138.576 138.537 138.128ZM135.929 132.8C135.225 132.8 134.644 133.019 134.185 133.456C133.737 133.883 133.465 134.512 133.369 135.344H138.345C138.324 134.565 138.1 133.947 137.673 133.488C137.247 133.029 136.665 132.8 135.929 132.8ZM147.005 128.96C147.005 128.747 147.112 128.64 147.325 128.64H147.741C147.954 128.64 148.061 128.747 148.061 128.96V139.68C148.061 139.893 147.954 140 147.741 140H147.405C147.192 140 147.085 139.893 147.085 139.68V138.64C146.797 139.141 146.418 139.525 145.949 139.792C145.48 140.059 144.925 140.192 144.285 140.192C143.613 140.192 143.016 140.021 142.493 139.68C141.97 139.328 141.56 138.843 141.261 138.224C140.962 137.595 140.813 136.875 140.813 136.064C140.813 135.253 140.962 134.539 141.261 133.92C141.57 133.291 141.992 132.805 142.525 132.464C143.058 132.112 143.656 131.936 144.317 131.936C145.533 131.936 146.429 132.389 147.005 133.296V128.96ZM144.365 139.296C145.165 139.296 145.81 139.013 146.301 138.448C146.802 137.872 147.053 137.077 147.053 136.064C147.053 135.061 146.802 134.272 146.301 133.696C145.81 133.12 145.165 132.832 144.365 132.832C143.629 132.832 143.032 133.131 142.573 133.728C142.125 134.325 141.901 135.104 141.901 136.064C141.901 137.035 142.125 137.819 142.573 138.416C143.021 139.003 143.618 139.296 144.365 139.296ZM150.962 130.112C150.749 130.112 150.567 130.037 150.418 129.888C150.279 129.739 150.21 129.557 150.21 129.344C150.21 129.131 150.279 128.955 150.418 128.816C150.567 128.677 150.749 128.608 150.962 128.608C151.186 128.608 151.367 128.677 151.506 128.816C151.655 128.955 151.73 129.131 151.73 129.344C151.73 129.557 151.655 129.739 151.506 129.888C151.367 130.037 151.186 130.112 150.962 130.112ZM150.754 140C150.541 140 150.434 139.893 150.434 139.68V132.432C150.434 132.219 150.541 132.112 150.754 132.112H151.17C151.383 132.112 151.49 132.219 151.49 132.432V139.68C151.49 139.893 151.383 140 151.17 140H150.754ZM158.96 132.432C158.96 132.219 159.067 132.112 159.28 132.112H159.696C159.91 132.112 160.016 132.219 160.016 132.432V139.68C160.016 139.893 159.91 140 159.696 140H159.36C159.147 140 159.04 139.893 159.04 139.68V138.96C158.806 139.376 158.47 139.691 158.032 139.904C157.606 140.107 157.136 140.208 156.624 140.208C155.664 140.208 154.955 139.968 154.496 139.488C154.038 138.997 153.808 138.368 153.808 137.6V132.432C153.808 132.219 153.915 132.112 154.128 132.112H154.544C154.758 132.112 154.864 132.219 154.864 132.432V137.376C154.864 138.005 155.019 138.485 155.328 138.816C155.648 139.136 156.102 139.296 156.688 139.296C157.35 139.296 157.894 139.093 158.32 138.688C158.747 138.283 158.96 137.707 158.96 136.96V132.432ZM170.403 131.92C171.256 131.92 171.907 132.165 172.355 132.656C172.814 133.136 173.043 133.755 173.043 134.512V139.68C173.043 139.893 172.936 140 172.723 140H172.307C172.094 140 171.987 139.893 171.987 139.68V134.8C171.987 134.16 171.838 133.669 171.539 133.328C171.251 132.987 170.819 132.816 170.243 132.816C169.635 132.816 169.15 133.019 168.787 133.424C168.424 133.829 168.243 134.352 168.243 134.992V139.68C168.243 139.893 168.136 140 167.923 140H167.507C167.294 140 167.187 139.893 167.187 139.68V134.8C167.187 134.16 167.038 133.669 166.739 133.328C166.451 132.987 166.014 132.816 165.427 132.816C164.883 132.816 164.43 132.987 164.067 133.328C163.715 133.669 163.507 134.117 163.443 134.672V139.68C163.443 139.893 163.336 140 163.123 140H162.707C162.494 140 162.387 139.893 162.387 139.68V132.432C162.387 132.219 162.494 132.112 162.707 132.112H163.059C163.272 132.112 163.379 132.219 163.379 132.432V133.088C163.859 132.309 164.622 131.92 165.667 131.92C166.211 131.92 166.675 132.043 167.059 132.288C167.454 132.523 167.747 132.843 167.939 133.248C168.504 132.363 169.326 131.92 170.403 131.92Z" fill="#464646"/>
<rect x="94.5" y="164.5" width="15" height="15" rx="7.5" fill="white" stroke="#767676"/>
<path d="M119.696 178C119.483 178 119.376 177.893 119.376 177.68V166.96C119.376 166.747 119.483 166.64 119.696 166.64H120.192C120.405 166.64 120.512 166.747 120.512 166.96V177.056H125.616C125.829 177.056 125.936 177.163 125.936 177.376V177.68C125.936 177.893 125.829 178 125.616 178H119.696ZM130.74 169.92C131.71 169.92 132.468 170.155 133.012 170.624C133.556 171.083 133.828 171.691 133.828 172.448V177.68C133.828 177.893 133.721 178 133.508 178H133.188C132.974 178 132.868 177.893 132.868 177.68V176.96C132.601 177.387 132.222 177.707 131.732 177.92C131.252 178.133 130.713 178.24 130.116 178.24C129.284 178.24 128.606 178.064 128.084 177.712C127.561 177.36 127.3 176.816 127.3 176.08C127.3 175.493 127.465 175.024 127.796 174.672C128.126 174.309 128.558 174.037 129.092 173.856C129.625 173.664 130.292 173.493 131.092 173.344L132.82 173.04V172.528C132.82 171.984 132.633 171.563 132.26 171.264C131.886 170.955 131.396 170.8 130.788 170.8C130.329 170.8 129.913 170.885 129.54 171.056C129.166 171.227 128.766 171.52 128.34 171.936C128.265 172.011 128.185 172.048 128.1 172.048C128.025 172.048 127.956 172.016 127.892 171.952L127.684 171.76C127.609 171.685 127.572 171.605 127.572 171.52C127.572 171.424 127.609 171.339 127.684 171.264C128.132 170.795 128.601 170.453 129.092 170.24C129.593 170.027 130.142 169.92 130.74 169.92ZM130.164 177.36C130.932 177.36 131.566 177.157 132.068 176.752C132.569 176.347 132.82 175.829 132.82 175.2V173.856L131.332 174.144C130.638 174.283 130.089 174.416 129.684 174.544C129.278 174.672 128.953 174.859 128.708 175.104C128.462 175.349 128.34 175.669 128.34 176.064C128.34 176.469 128.5 176.789 128.82 177.024C129.15 177.248 129.598 177.36 130.164 177.36ZM139.112 170.048C139.379 170.048 139.694 170.091 140.056 170.176C140.248 170.24 140.323 170.373 140.28 170.576L140.216 170.832C140.163 171.035 140.03 171.109 139.816 171.056C139.56 170.992 139.326 170.96 139.112 170.96C138.568 170.96 138.115 171.195 137.752 171.664C137.4 172.133 137.224 172.784 137.224 173.616V177.68C137.224 177.893 137.118 178 136.904 178H136.488C136.275 178 136.168 177.893 136.168 177.68V170.432C136.168 170.219 136.275 170.112 136.488 170.112H136.84C137.054 170.112 137.16 170.219 137.16 170.432V171.312C137.342 170.917 137.598 170.608 137.928 170.384C138.27 170.16 138.664 170.048 139.112 170.048ZM146.942 170.432C146.942 170.219 147.048 170.112 147.262 170.112H147.598C147.811 170.112 147.918 170.219 147.918 170.432V177.92C147.918 178.912 147.619 179.691 147.022 180.256C146.424 180.832 145.587 181.12 144.51 181.12C143.347 181.12 142.275 180.789 141.294 180.128C141.187 180.064 141.134 179.984 141.134 179.888C141.134 179.813 141.155 179.749 141.198 179.696L141.39 179.424C141.454 179.317 141.539 179.264 141.646 179.264C141.688 179.264 141.752 179.285 141.838 179.328C142.307 179.627 142.744 179.851 143.15 180C143.566 180.149 144.019 180.224 144.51 180.224C145.214 180.224 145.784 180.027 146.222 179.632C146.659 179.248 146.878 178.651 146.878 177.84V176.56C146.302 177.488 145.427 177.952 144.254 177.952C143.571 177.952 142.968 177.781 142.446 177.44C141.923 177.088 141.518 176.608 141.23 176C140.952 175.392 140.814 174.704 140.814 173.936C140.814 173.168 140.952 172.48 141.23 171.872C141.518 171.264 141.923 170.789 142.446 170.448C142.968 170.096 143.571 169.92 144.254 169.92C144.872 169.92 145.406 170.053 145.854 170.32C146.312 170.576 146.675 170.944 146.942 171.424V170.432ZM144.366 177.056C145.134 177.056 145.747 176.768 146.206 176.192C146.664 175.605 146.894 174.853 146.894 173.936C146.894 173.019 146.664 172.272 146.206 171.696C145.747 171.109 145.134 170.816 144.366 170.816C143.587 170.816 142.979 171.104 142.542 171.68C142.115 172.256 141.902 173.008 141.902 173.936C141.902 174.864 142.115 175.616 142.542 176.192C142.979 176.768 143.587 177.056 144.366 177.056ZM156.037 176.128C156.112 176.053 156.192 176.016 156.277 176.016C156.352 176.016 156.421 176.048 156.485 176.112L156.693 176.304C156.768 176.379 156.805 176.459 156.805 176.544C156.805 176.608 156.773 176.683 156.709 176.768C156.187 177.291 155.68 177.664 155.189 177.888C154.699 178.101 154.149 178.208 153.541 178.208C152.773 178.208 152.107 178.037 151.541 177.696C150.976 177.355 150.539 176.88 150.229 176.272C149.92 175.653 149.765 174.939 149.765 174.128C149.765 173.307 149.915 172.581 150.213 171.952C150.523 171.312 150.955 170.816 151.509 170.464C152.064 170.101 152.704 169.92 153.429 169.92C154.507 169.92 155.355 170.256 155.973 170.928C156.592 171.6 156.901 172.507 156.901 173.648V173.84C156.891 173.936 156.853 174.011 156.789 174.064C156.736 174.117 156.661 174.144 156.565 174.144H150.837C150.869 175.04 151.104 175.797 151.541 176.416C151.989 177.024 152.656 177.328 153.541 177.328C154.021 177.328 154.443 177.243 154.805 177.072C155.179 176.891 155.589 176.576 156.037 176.128ZM153.429 170.8C152.725 170.8 152.144 171.019 151.685 171.456C151.237 171.883 150.965 172.512 150.869 173.344H155.845C155.824 172.565 155.6 171.947 155.173 171.488C154.747 171.029 154.165 170.8 153.429 170.8Z" fill="#464646"/>
<path d="M98.48 56C98.3093 56 98.1707 55.952 98.064 55.856C97.968 55.7493 97.92 55.6107 97.92 55.44V46.192H95.008C94.8373 46.192 94.6987 46.144 94.592 46.048C94.496 45.9413 94.448 45.8027 94.448 45.632V45.2C94.448 45.0187 94.496 44.88 94.592 44.784C94.6987 44.688 94.8373 44.64 95.008 44.64H102.64C102.821 44.64 102.96 44.688 103.056 44.784C103.152 44.88 103.2 45.0187 103.2 45.2V45.632C103.2 45.8027 103.152 45.9413 103.056 46.048C102.96 46.144 102.821 46.192 102.64 46.192H99.744V55.44C99.744 55.6107 99.696 55.7493 99.6 55.856C99.504 55.952 99.3653 56 99.184 56H98.48ZM103.049 52.144C102.878 52.144 102.74 52.096 102.633 52C102.537 51.8933 102.489 51.7547 102.489 51.584V51.184C102.489 51.0027 102.537 50.864 102.633 50.768C102.74 50.672 102.878 50.624 103.049 50.624H106.713C106.894 50.624 107.033 50.672 107.129 50.768C107.225 50.864 107.273 51.0027 107.273 51.184V51.584C107.273 51.7547 107.225 51.8933 107.129 52C107.033 52.096 106.894 52.144 106.713 52.144H103.049ZM112.157 56.24C111.506 56.24 110.925 56.16 110.413 56C109.911 55.8293 109.399 55.536 108.877 55.12C108.717 55.0027 108.637 54.8693 108.637 54.72C108.637 54.6027 108.695 54.4747 108.813 54.336L109.053 54.064C109.181 53.9147 109.319 53.84 109.469 53.84C109.586 53.84 109.714 53.8933 109.853 54C110.301 54.3307 110.695 54.56 111.037 54.688C111.378 54.8053 111.762 54.864 112.189 54.864C112.647 54.864 113.021 54.7733 113.309 54.592C113.607 54.4 113.757 54.144 113.757 53.824C113.757 53.5787 113.671 53.3867 113.501 53.248C113.341 53.0987 113.127 52.9867 112.861 52.912C112.594 52.8267 112.199 52.7307 111.677 52.624C110.941 52.464 110.365 52.2933 109.949 52.112C109.543 51.92 109.25 51.68 109.069 51.392C108.887 51.104 108.797 50.736 108.797 50.288C108.797 49.8293 108.925 49.4187 109.181 49.056C109.447 48.6933 109.815 48.4053 110.285 48.192C110.765 47.9787 111.325 47.872 111.965 47.872C112.541 47.872 113.053 47.936 113.501 48.064C113.959 48.192 114.407 48.4107 114.845 48.72C115.015 48.848 115.101 48.992 115.101 49.152C115.101 49.2587 115.047 49.3813 114.941 49.52L114.733 49.776C114.615 49.9253 114.471 50 114.301 50C114.173 50 114.05 49.9573 113.933 49.872C113.581 49.6373 113.255 49.4773 112.957 49.392C112.658 49.296 112.322 49.248 111.949 49.248C111.49 49.248 111.122 49.3387 110.845 49.52C110.567 49.7013 110.429 49.936 110.429 50.224C110.429 50.416 110.493 50.5707 110.621 50.688C110.759 50.7947 110.951 50.8907 111.197 50.976C111.453 51.0507 111.853 51.1467 112.397 51.264C113.133 51.424 113.714 51.6053 114.141 51.808C114.578 52 114.898 52.2507 115.101 52.56C115.314 52.8587 115.421 53.248 115.421 53.728C115.421 54.4747 115.122 55.0827 114.525 55.552C113.938 56.0107 113.149 56.24 112.157 56.24ZM120.898 47.872C121.805 47.872 122.498 48.128 122.978 48.64C123.469 49.1413 123.714 49.792 123.714 50.592V55.44C123.714 55.6107 123.666 55.7493 123.57 55.856C123.474 55.952 123.336 56 123.154 56H122.578C122.408 56 122.269 55.952 122.162 55.856C122.066 55.7493 122.018 55.6107 122.018 55.44V51.12C122.018 50.544 121.874 50.1013 121.586 49.792C121.309 49.4827 120.909 49.328 120.386 49.328C119.874 49.328 119.442 49.504 119.09 49.856C118.749 50.208 118.578 50.6507 118.578 51.184V55.44C118.578 55.6107 118.53 55.7493 118.434 55.856C118.338 55.952 118.2 56 118.018 56H117.442C117.272 56 117.133 55.952 117.026 55.856C116.93 55.7493 116.882 55.6107 116.882 55.44V45.2C116.882 45.0187 116.93 44.88 117.026 44.784C117.133 44.688 117.272 44.64 117.442 44.64H118.018C118.2 44.64 118.338 44.688 118.434 44.784C118.53 44.88 118.578 45.0187 118.578 45.2V48.928C118.834 48.5867 119.16 48.3253 119.554 48.144C119.96 47.9627 120.408 47.872 120.898 47.872ZM126.528 46.576C126.218 46.576 125.957 46.4747 125.743 46.272C125.53 46.0587 125.424 45.808 125.424 45.52C125.424 45.2213 125.53 44.9707 125.743 44.768C125.957 44.5653 126.218 44.464 126.528 44.464C126.837 44.464 127.098 44.5653 127.312 44.768C127.525 44.9707 127.632 45.2213 127.632 45.52C127.632 45.808 127.525 46.0587 127.312 46.272C127.098 46.4747 126.837 46.576 126.528 46.576ZM126.224 56C126.053 56 125.914 55.952 125.808 55.856C125.712 55.7493 125.664 55.6107 125.664 55.44V48.672C125.664 48.4907 125.712 48.352 125.808 48.256C125.914 48.16 126.053 48.112 126.224 48.112H126.799C126.981 48.112 127.12 48.16 127.216 48.256C127.312 48.352 127.36 48.4907 127.36 48.672V55.44C127.36 55.6107 127.312 55.7493 127.216 55.856C127.12 55.952 126.981 56 126.799 56H126.224ZM132.872 48.032C133.106 48.032 133.346 48.0587 133.592 48.112C133.88 48.176 134.024 48.3467 134.024 48.624C134.024 48.6987 134.018 48.752 134.008 48.784L133.928 49.168C133.864 49.4667 133.704 49.616 133.448 49.616L133.304 49.6C133.112 49.568 132.941 49.552 132.792 49.552C132.258 49.552 131.826 49.7653 131.496 50.192C131.176 50.608 131.016 51.1893 131.016 51.936V55.44C131.016 55.6107 130.968 55.7493 130.872 55.856C130.776 55.952 130.637 56 130.456 56H129.88C129.709 56 129.57 55.952 129.464 55.856C129.368 55.7493 129.32 55.6107 129.32 55.44V48.672C129.32 48.4907 129.368 48.352 129.464 48.256C129.57 48.16 129.709 48.112 129.88 48.112H130.344C130.525 48.112 130.664 48.16 130.76 48.256C130.856 48.352 130.904 48.4907 130.904 48.672V49.296C131.096 48.9013 131.357 48.592 131.688 48.368C132.018 48.144 132.413 48.032 132.872 48.032ZM139.253 54.656C139.285 54.6453 139.333 54.64 139.397 54.64C139.663 54.64 139.823 54.7947 139.877 55.104L139.925 55.36C139.935 55.392 139.941 55.4453 139.941 55.52C139.941 55.7867 139.791 55.9573 139.493 56.032C139.066 56.128 138.677 56.176 138.325 56.176C137.567 56.176 137.018 56 136.677 55.648C136.346 55.296 136.181 54.768 136.181 54.064V49.408H135.301C135.13 49.408 134.991 49.36 134.885 49.264C134.789 49.1573 134.741 49.0187 134.741 48.848V48.672C134.741 48.4907 134.789 48.352 134.885 48.256C134.991 48.16 135.13 48.112 135.301 48.112H136.181V46.128C136.181 45.9467 136.229 45.808 136.325 45.712C136.431 45.616 136.57 45.568 136.741 45.568H137.317C137.498 45.568 137.637 45.616 137.733 45.712C137.829 45.808 137.877 45.9467 137.877 46.128V48.112H139.317C139.498 48.112 139.637 48.16 139.733 48.256C139.829 48.352 139.877 48.4907 139.877 48.672V48.848C139.877 49.0187 139.829 49.1573 139.733 49.264C139.637 49.36 139.498 49.408 139.317 49.408H137.877V53.856C137.877 54.1653 137.941 54.384 138.069 54.512C138.207 54.64 138.426 54.704 138.725 54.704C138.853 54.704 139.029 54.688 139.253 54.656ZM147.891 56.24C147.24 56.24 146.659 56.16 146.147 56C145.646 55.8293 145.134 55.536 144.611 55.12C144.451 55.0027 144.371 54.8693 144.371 54.72C144.371 54.6027 144.43 54.4747 144.547 54.336L144.787 54.064C144.915 53.9147 145.054 53.84 145.203 53.84C145.32 53.84 145.448 53.8933 145.587 54C146.035 54.3307 146.43 54.56 146.771 54.688C147.112 54.8053 147.496 54.864 147.923 54.864C148.382 54.864 148.755 54.7733 149.043 54.592C149.342 54.4 149.491 54.144 149.491 53.824C149.491 53.5787 149.406 53.3867 149.235 53.248C149.075 53.0987 148.862 52.9867 148.595 52.912C148.328 52.8267 147.934 52.7307 147.411 52.624C146.675 52.464 146.099 52.2933 145.683 52.112C145.278 51.92 144.984 51.68 144.803 51.392C144.622 51.104 144.531 50.736 144.531 50.288C144.531 49.8293 144.659 49.4187 144.915 49.056C145.182 48.6933 145.55 48.4053 146.019 48.192C146.499 47.9787 147.059 47.872 147.699 47.872C148.275 47.872 148.787 47.936 149.235 48.064C149.694 48.192 150.142 48.4107 150.579 48.72C150.75 48.848 150.835 48.992 150.835 49.152C150.835 49.2587 150.782 49.3813 150.675 49.52L150.467 49.776C150.35 49.9253 150.206 50 150.035 50C149.907 50 149.784 49.9573 149.667 49.872C149.315 49.6373 148.99 49.4773 148.691 49.392C148.392 49.296 148.056 49.248 147.683 49.248C147.224 49.248 146.856 49.3387 146.579 49.52C146.302 49.7013 146.163 49.936 146.163 50.224C146.163 50.416 146.227 50.5707 146.355 50.688C146.494 50.7947 146.686 50.8907 146.931 50.976C147.187 51.0507 147.587 51.1467 148.131 51.264C148.867 51.424 149.448 51.6053 149.875 51.808C150.312 52 150.632 52.2507 150.835 52.56C151.048 52.8587 151.155 53.248 151.155 53.728C151.155 54.4747 150.856 55.0827 150.259 55.552C149.672 56.0107 148.883 56.24 147.891 56.24ZM153.481 46.576C153.171 46.576 152.91 46.4747 152.697 46.272C152.483 46.0587 152.377 45.808 152.377 45.52C152.377 45.2213 152.483 44.9707 152.697 44.768C152.91 44.5653 153.171 44.464 153.481 44.464C153.79 44.464 154.051 44.5653 154.265 44.768C154.478 44.9707 154.585 45.2213 154.585 45.52C154.585 45.808 154.478 46.0587 154.265 46.272C154.051 46.4747 153.79 46.576 153.481 46.576ZM153.177 56C153.006 56 152.867 55.952 152.761 55.856C152.665 55.7493 152.617 55.6107 152.617 55.44V48.672C152.617 48.4907 152.665 48.352 152.761 48.256C152.867 48.16 153.006 48.112 153.177 48.112H153.753C153.934 48.112 154.073 48.16 154.169 48.256C154.265 48.352 154.313 48.4907 154.313 48.672V55.44C154.313 55.6107 154.265 55.7493 154.169 55.856C154.073 55.952 153.934 56 153.753 56H153.177ZM161.745 48.112C161.926 48.112 162.065 48.16 162.161 48.256C162.257 48.352 162.305 48.4907 162.305 48.672V48.976C162.305 49.2427 162.22 49.4773 162.049 49.68L157.953 54.608H161.745C161.926 54.608 162.065 54.656 162.161 54.752C162.257 54.848 162.305 54.9867 162.305 55.168V55.44C162.305 55.6107 162.257 55.7493 162.161 55.856C162.065 55.952 161.926 56 161.745 56H156.417C156.246 56 156.108 55.952 156.001 55.856C155.905 55.7493 155.857 55.6107 155.857 55.44V55.12C155.857 54.8533 155.942 54.6187 156.113 54.416L160.225 49.488H156.689C156.518 49.488 156.38 49.44 156.273 49.344C156.177 49.2373 156.129 49.0987 156.129 48.928V48.672C156.129 48.4907 156.177 48.352 156.273 48.256C156.38 48.16 156.518 48.112 156.689 48.112H161.745ZM169.312 53.984C169.45 53.8667 169.584 53.808 169.712 53.808C169.84 53.808 169.973 53.8773 170.112 54.016L170.336 54.256C170.453 54.3947 170.512 54.528 170.512 54.656C170.512 54.7947 170.442 54.928 170.304 55.056C169.813 55.4827 169.322 55.7867 168.832 55.968C168.352 56.1493 167.818 56.24 167.232 56.24C166.41 56.24 165.696 56.0693 165.088 55.728C164.49 55.3867 164.026 54.9067 163.696 54.288C163.376 53.6587 163.215 52.9333 163.215 52.112C163.215 51.3013 163.37 50.576 163.68 49.936C164 49.2853 164.448 48.7787 165.024 48.416C165.61 48.0533 166.293 47.872 167.072 47.872C168.234 47.872 169.13 48.2187 169.76 48.912C170.389 49.5947 170.704 50.5387 170.704 51.744V51.888C170.693 52.0587 170.64 52.192 170.544 52.288C170.448 52.384 170.309 52.432 170.128 52.432H164.88C164.944 53.136 165.173 53.712 165.568 54.16C165.973 54.5973 166.538 54.816 167.264 54.816C167.658 54.816 168.005 54.7573 168.304 54.64C168.602 54.512 168.938 54.2933 169.312 53.984ZM167.04 49.216C166.453 49.216 165.978 49.392 165.616 49.744C165.264 50.0853 165.034 50.5707 164.928 51.2H169.04C168.997 50.5813 168.805 50.096 168.464 49.744C168.122 49.392 167.648 49.216 167.04 49.216Z" fill="#464646"/>
</svg>
