<svg width="344" height="178" viewBox="0 0 344 178" fill="none" xmlns="http://www.w3.org/2000/svg">
<rect width="344" height="178" fill="#F5F5F5"/>
<rect x="94.5" y="42.5" width="15" height="15" rx="7.5" fill="white" stroke="#767676"/>
<path d="M123.136 56.24C122.293 56.24 121.531 56.112 120.848 55.856C120.176 55.5893 119.467 55.1573 118.72 54.56C118.624 54.4747 118.576 54.3947 118.576 54.32C118.576 54.256 118.608 54.1867 118.672 54.112L118.928 53.808C118.981 53.7227 119.061 53.68 119.168 53.68C119.253 53.68 119.323 53.7067 119.376 53.76C120.133 54.3467 120.795 54.7467 121.36 54.96C121.925 55.1627 122.517 55.264 123.136 55.264C124 55.264 124.704 55.0507 125.248 54.624C125.792 54.1867 126.064 53.5947 126.064 52.848C126.064 52.368 125.936 51.984 125.68 51.696C125.424 51.408 125.072 51.184 124.624 51.024C124.187 50.864 123.563 50.6933 122.752 50.512C121.781 50.2987 121.024 50.0693 120.48 49.824C119.947 49.5787 119.557 49.2693 119.312 48.896C119.067 48.5227 118.944 48.0427 118.944 47.456C118.944 46.8373 119.12 46.2987 119.472 45.84C119.835 45.3707 120.315 45.0133 120.912 44.768C121.509 44.5227 122.155 44.4 122.848 44.4C123.605 44.4 124.293 44.512 124.912 44.736C125.541 44.96 126.16 45.3173 126.768 45.808C126.864 45.872 126.912 45.9467 126.912 46.032C126.912 46.096 126.88 46.1707 126.816 46.256L126.576 46.544C126.523 46.6293 126.443 46.672 126.336 46.672C126.251 46.672 126.176 46.6453 126.112 46.592C125.568 46.144 125.04 45.8293 124.528 45.648C124.027 45.4667 123.472 45.376 122.864 45.376C122.309 45.376 121.819 45.4667 121.392 45.648C120.965 45.8187 120.629 46.0587 120.384 46.368C120.149 46.6773 120.032 47.0293 120.032 47.424C120.032 47.8507 120.149 48.192 120.384 48.448C120.629 48.704 120.965 48.9067 121.392 49.056C121.829 49.2053 122.464 49.376 123.296 49.568C124.256 49.792 125.013 50.0427 125.568 50.32C126.133 50.5973 126.544 50.9387 126.8 51.344C127.056 51.7387 127.184 52.2293 127.184 52.816C127.184 53.4987 127.008 54.1013 126.656 54.624C126.315 55.136 125.835 55.536 125.216 55.824C124.597 56.1013 123.904 56.24 123.136 56.24ZM137.138 47.92C137.991 47.92 138.642 48.1653 139.09 48.656C139.548 49.136 139.778 49.7547 139.778 50.512V55.68C139.778 55.8933 139.671 56 139.458 56H139.042C138.828 56 138.722 55.8933 138.722 55.68V50.8C138.722 50.16 138.572 49.6693 138.274 49.328C137.986 48.9867 137.554 48.816 136.977 48.816C136.37 48.816 135.884 49.0187 135.522 49.424C135.159 49.8293 134.978 50.352 134.978 50.992V55.68C134.978 55.8933 134.871 56 134.658 56H134.242C134.028 56 133.922 55.8933 133.922 55.68V50.8C133.922 50.16 133.772 49.6693 133.474 49.328C133.186 48.9867 132.748 48.816 132.161 48.816C131.618 48.816 131.164 48.9867 130.802 49.328C130.45 49.6693 130.242 50.1173 130.178 50.672V55.68C130.178 55.8933 130.071 56 129.858 56H129.442C129.228 56 129.122 55.8933 129.122 55.68V48.432C129.122 48.2187 129.228 48.112 129.442 48.112H129.794C130.007 48.112 130.114 48.2187 130.114 48.432V49.088C130.594 48.3093 131.356 47.92 132.402 47.92C132.946 47.92 133.41 48.0427 133.794 48.288C134.188 48.5227 134.482 48.8427 134.674 49.248C135.239 48.3627 136.06 47.92 137.138 47.92ZM145.146 47.92C146.117 47.92 146.874 48.1547 147.418 48.624C147.962 49.0827 148.234 49.6907 148.234 50.448V55.68C148.234 55.8933 148.127 56 147.914 56H147.594C147.381 56 147.274 55.8933 147.274 55.68V54.96C147.007 55.3867 146.629 55.7067 146.138 55.92C145.658 56.1333 145.119 56.24 144.522 56.24C143.69 56.24 143.013 56.064 142.49 55.712C141.967 55.36 141.706 54.816 141.706 54.08C141.706 53.4933 141.871 53.024 142.202 52.672C142.533 52.3093 142.965 52.0373 143.498 51.856C144.031 51.664 144.698 51.4933 145.498 51.344L147.226 51.04V50.528C147.226 49.984 147.039 49.5627 146.666 49.264C146.293 48.9547 145.802 48.8 145.194 48.8C144.735 48.8 144.319 48.8853 143.946 49.056C143.573 49.2267 143.173 49.52 142.746 49.936C142.671 50.0107 142.591 50.048 142.506 50.048C142.431 50.048 142.362 50.016 142.298 49.952L142.09 49.76C142.015 49.6853 141.978 49.6053 141.978 49.52C141.978 49.424 142.015 49.3387 142.09 49.264C142.538 48.7947 143.007 48.4533 143.498 48.24C143.999 48.0267 144.549 47.92 145.146 47.92ZM144.57 55.36C145.338 55.36 145.973 55.1573 146.474 54.752C146.975 54.3467 147.226 53.8293 147.226 53.2V51.856L145.738 52.144C145.045 52.2827 144.495 52.416 144.09 52.544C143.685 52.672 143.359 52.8587 143.114 53.104C142.869 53.3493 142.746 53.6693 142.746 54.064C142.746 54.4693 142.906 54.7893 143.226 55.024C143.557 55.248 144.005 55.36 144.57 55.36ZM150.911 56C150.697 56 150.591 55.8933 150.591 55.68V44.96C150.591 44.7467 150.697 44.64 150.911 44.64H151.327C151.54 44.64 151.647 44.7467 151.647 44.96V55.68C151.647 55.8933 151.54 56 151.327 56H150.911ZM154.364 56C154.15 56 154.044 55.8933 154.044 55.68V44.96C154.044 44.7467 154.15 44.64 154.364 44.64H154.78C154.993 44.64 155.1 44.7467 155.1 44.96V55.68C155.1 55.8933 154.993 56 154.78 56H154.364Z" fill="#464646"/>
<rect x="94.5" y="80.5" width="15" height="15" rx="7.5" fill="white" stroke="#767676"/>
<path d="M128.304 82.896C128.368 82.7253 128.491 82.64 128.672 82.64H129.92C130.133 82.64 130.24 82.7467 130.24 82.96V93.68C130.24 93.8933 130.133 94 129.92 94H129.456C129.243 94 129.136 93.8933 129.136 93.68V88.368C129.136 87.2267 129.147 85.5787 129.168 83.424C128.731 84.672 128.133 86.32 127.376 88.368L125.408 93.744C125.344 93.9147 125.221 94 125.04 94H124.576C124.395 94 124.272 93.9147 124.208 93.744L122.192 88.352C121.765 87.2427 121.173 85.6 120.416 83.424C120.437 85.5787 120.448 87.232 120.448 88.384V93.68C120.448 93.8933 120.341 94 120.128 94H119.696C119.483 94 119.376 93.8933 119.376 93.68V82.96C119.376 82.7467 119.483 82.64 119.696 82.64H120.928C121.109 82.64 121.232 82.7253 121.296 82.896L123.12 87.808C123.963 90.1013 124.528 91.7173 124.816 92.656C125.083 91.76 125.541 90.4213 126.192 88.64C126.235 88.5227 126.283 88.3947 126.336 88.256C126.389 88.1173 126.443 87.968 126.496 87.808L128.304 82.896ZM138.537 92.128C138.612 92.0533 138.692 92.016 138.777 92.016C138.852 92.016 138.921 92.048 138.985 92.112L139.193 92.304C139.268 92.3787 139.305 92.4587 139.305 92.544C139.305 92.608 139.273 92.6827 139.209 92.768C138.687 93.2907 138.18 93.664 137.689 93.888C137.199 94.1013 136.649 94.208 136.041 94.208C135.273 94.208 134.607 94.0373 134.041 93.696C133.476 93.3547 133.039 92.88 132.729 92.272C132.42 91.6533 132.265 90.9387 132.265 90.128C132.265 89.3067 132.415 88.5813 132.713 87.952C133.023 87.312 133.455 86.816 134.009 86.464C134.564 86.1013 135.204 85.92 135.929 85.92C137.007 85.92 137.855 86.256 138.473 86.928C139.092 87.6 139.401 88.5067 139.401 89.648V89.84C139.391 89.936 139.353 90.0107 139.289 90.064C139.236 90.1173 139.161 90.144 139.065 90.144H133.337C133.369 91.04 133.604 91.7973 134.041 92.416C134.489 93.024 135.156 93.328 136.041 93.328C136.521 93.328 136.943 93.2427 137.305 93.072C137.679 92.8907 138.089 92.576 138.537 92.128ZM135.929 86.8C135.225 86.8 134.644 87.0187 134.185 87.456C133.737 87.8827 133.465 88.512 133.369 89.344H138.345C138.324 88.5653 138.1 87.9467 137.673 87.488C137.247 87.0293 136.665 86.8 135.929 86.8ZM147.005 82.96C147.005 82.7467 147.112 82.64 147.325 82.64H147.741C147.954 82.64 148.061 82.7467 148.061 82.96V93.68C148.061 93.8933 147.954 94 147.741 94H147.405C147.192 94 147.085 93.8933 147.085 93.68V92.64C146.797 93.1413 146.418 93.5253 145.949 93.792C145.48 94.0587 144.925 94.192 144.285 94.192C143.613 94.192 143.016 94.0213 142.493 93.68C141.97 93.328 141.56 92.8427 141.261 92.224C140.962 91.5947 140.813 90.8747 140.813 90.064C140.813 89.2533 140.962 88.5387 141.261 87.92C141.57 87.2907 141.992 86.8053 142.525 86.464C143.058 86.112 143.656 85.936 144.317 85.936C145.533 85.936 146.429 86.3893 147.005 87.296V82.96ZM144.365 93.296C145.165 93.296 145.81 93.0133 146.301 92.448C146.802 91.872 147.053 91.0773 147.053 90.064C147.053 89.0613 146.802 88.272 146.301 87.696C145.81 87.12 145.165 86.832 144.365 86.832C143.629 86.832 143.032 87.1307 142.573 87.728C142.125 88.3253 141.901 89.104 141.901 90.064C141.901 91.0347 142.125 91.8187 142.573 92.416C143.021 93.0027 143.618 93.296 144.365 93.296ZM150.962 84.112C150.749 84.112 150.567 84.0373 150.418 83.888C150.279 83.7387 150.21 83.5573 150.21 83.344C150.21 83.1307 150.279 82.9547 150.418 82.816C150.567 82.6773 150.749 82.608 150.962 82.608C151.186 82.608 151.367 82.6773 151.506 82.816C151.655 82.9547 151.73 83.1307 151.73 83.344C151.73 83.5573 151.655 83.7387 151.506 83.888C151.367 84.0373 151.186 84.112 150.962 84.112ZM150.754 94C150.541 94 150.434 93.8933 150.434 93.68V86.432C150.434 86.2187 150.541 86.112 150.754 86.112H151.17C151.383 86.112 151.49 86.2187 151.49 86.432V93.68C151.49 93.8933 151.383 94 151.17 94H150.754ZM158.96 86.432C158.96 86.2187 159.067 86.112 159.28 86.112H159.696C159.91 86.112 160.016 86.2187 160.016 86.432V93.68C160.016 93.8933 159.91 94 159.696 94H159.36C159.147 94 159.04 93.8933 159.04 93.68V92.96C158.806 93.376 158.47 93.6907 158.032 93.904C157.606 94.1067 157.136 94.208 156.624 94.208C155.664 94.208 154.955 93.968 154.496 93.488C154.038 92.9973 153.808 92.368 153.808 91.6V86.432C153.808 86.2187 153.915 86.112 154.128 86.112H154.544C154.758 86.112 154.864 86.2187 154.864 86.432V91.376C154.864 92.0053 155.019 92.4853 155.328 92.816C155.648 93.136 156.102 93.296 156.688 93.296C157.35 93.296 157.894 93.0933 158.32 92.688C158.747 92.2827 158.96 91.7067 158.96 90.96V86.432ZM170.403 85.92C171.256 85.92 171.907 86.1653 172.355 86.656C172.814 87.136 173.043 87.7547 173.043 88.512V93.68C173.043 93.8933 172.936 94 172.723 94H172.307C172.094 94 171.987 93.8933 171.987 93.68V88.8C171.987 88.16 171.838 87.6693 171.539 87.328C171.251 86.9867 170.819 86.816 170.243 86.816C169.635 86.816 169.15 87.0187 168.787 87.424C168.424 87.8293 168.243 88.352 168.243 88.992V93.68C168.243 93.8933 168.136 94 167.923 94H167.507C167.294 94 167.187 93.8933 167.187 93.68V88.8C167.187 88.16 167.038 87.6693 166.739 87.328C166.451 86.9867 166.014 86.816 165.427 86.816C164.883 86.816 164.43 86.9867 164.067 87.328C163.715 87.6693 163.507 88.1173 163.443 88.672V93.68C163.443 93.8933 163.336 94 163.123 94H162.707C162.494 94 162.387 93.8933 162.387 93.68V86.432C162.387 86.2187 162.494 86.112 162.707 86.112H163.059C163.272 86.112 163.379 86.2187 163.379 86.432V87.088C163.859 86.3093 164.622 85.92 165.667 85.92C166.211 85.92 166.675 86.0427 167.059 86.288C167.454 86.5227 167.747 86.8427 167.939 87.248C168.504 86.3627 169.326 85.92 170.403 85.92Z" fill="#464646"/>
<rect x="94.5" y="118.5" width="15" height="15" rx="7.5" fill="white" stroke="#767676"/>
<path d="M119.696 132C119.483 132 119.376 131.893 119.376 131.68V120.96C119.376 120.747 119.483 120.64 119.696 120.64H120.192C120.405 120.64 120.512 120.747 120.512 120.96V131.056H125.616C125.829 131.056 125.936 131.163 125.936 131.376V131.68C125.936 131.893 125.829 132 125.616 132H119.696ZM130.74 123.92C131.71 123.92 132.468 124.155 133.012 124.624C133.556 125.083 133.828 125.691 133.828 126.448V131.68C133.828 131.893 133.721 132 133.508 132H133.188C132.974 132 132.868 131.893 132.868 131.68V130.96C132.601 131.387 132.222 131.707 131.732 131.92C131.252 132.133 130.713 132.24 130.116 132.24C129.284 132.24 128.606 132.064 128.084 131.712C127.561 131.36 127.3 130.816 127.3 130.08C127.3 129.493 127.465 129.024 127.796 128.672C128.126 128.309 128.558 128.037 129.092 127.856C129.625 127.664 130.292 127.493 131.092 127.344L132.82 127.04V126.528C132.82 125.984 132.633 125.563 132.26 125.264C131.886 124.955 131.396 124.8 130.788 124.8C130.329 124.8 129.913 124.885 129.54 125.056C129.166 125.227 128.766 125.52 128.34 125.936C128.265 126.011 128.185 126.048 128.1 126.048C128.025 126.048 127.956 126.016 127.892 125.952L127.684 125.76C127.609 125.685 127.572 125.605 127.572 125.52C127.572 125.424 127.609 125.339 127.684 125.264C128.132 124.795 128.601 124.453 129.092 124.24C129.593 124.027 130.142 123.92 130.74 123.92ZM130.164 131.36C130.932 131.36 131.566 131.157 132.068 130.752C132.569 130.347 132.82 129.829 132.82 129.2V127.856L131.332 128.144C130.638 128.283 130.089 128.416 129.684 128.544C129.278 128.672 128.953 128.859 128.708 129.104C128.462 129.349 128.34 129.669 128.34 130.064C128.34 130.469 128.5 130.789 128.82 131.024C129.15 131.248 129.598 131.36 130.164 131.36ZM139.112 124.048C139.379 124.048 139.694 124.091 140.056 124.176C140.248 124.24 140.323 124.373 140.28 124.576L140.216 124.832C140.163 125.035 140.03 125.109 139.816 125.056C139.56 124.992 139.326 124.96 139.112 124.96C138.568 124.96 138.115 125.195 137.752 125.664C137.4 126.133 137.224 126.784 137.224 127.616V131.68C137.224 131.893 137.118 132 136.904 132H136.488C136.275 132 136.168 131.893 136.168 131.68V124.432C136.168 124.219 136.275 124.112 136.488 124.112H136.84C137.054 124.112 137.16 124.219 137.16 124.432V125.312C137.342 124.917 137.598 124.608 137.928 124.384C138.27 124.16 138.664 124.048 139.112 124.048ZM146.942 124.432C146.942 124.219 147.048 124.112 147.262 124.112H147.598C147.811 124.112 147.918 124.219 147.918 124.432V131.92C147.918 132.912 147.619 133.691 147.022 134.256C146.424 134.832 145.587 135.12 144.51 135.12C143.347 135.12 142.275 134.789 141.294 134.128C141.187 134.064 141.134 133.984 141.134 133.888C141.134 133.813 141.155 133.749 141.198 133.696L141.39 133.424C141.454 133.317 141.539 133.264 141.646 133.264C141.688 133.264 141.752 133.285 141.838 133.328C142.307 133.627 142.744 133.851 143.15 134C143.566 134.149 144.019 134.224 144.51 134.224C145.214 134.224 145.784 134.027 146.222 133.632C146.659 133.248 146.878 132.651 146.878 131.84V130.56C146.302 131.488 145.427 131.952 144.254 131.952C143.571 131.952 142.968 131.781 142.446 131.44C141.923 131.088 141.518 130.608 141.23 130C140.952 129.392 140.814 128.704 140.814 127.936C140.814 127.168 140.952 126.48 141.23 125.872C141.518 125.264 141.923 124.789 142.446 124.448C142.968 124.096 143.571 123.92 144.254 123.92C144.872 123.92 145.406 124.053 145.854 124.32C146.312 124.576 146.675 124.944 146.942 125.424V124.432ZM144.366 131.056C145.134 131.056 145.747 130.768 146.206 130.192C146.664 129.605 146.894 128.853 146.894 127.936C146.894 127.019 146.664 126.272 146.206 125.696C145.747 125.109 145.134 124.816 144.366 124.816C143.587 124.816 142.979 125.104 142.542 125.68C142.115 126.256 141.902 127.008 141.902 127.936C141.902 128.864 142.115 129.616 142.542 130.192C142.979 130.768 143.587 131.056 144.366 131.056ZM156.037 130.128C156.112 130.053 156.192 130.016 156.277 130.016C156.352 130.016 156.421 130.048 156.485 130.112L156.693 130.304C156.768 130.379 156.805 130.459 156.805 130.544C156.805 130.608 156.773 130.683 156.709 130.768C156.187 131.291 155.68 131.664 155.189 131.888C154.699 132.101 154.149 132.208 153.541 132.208C152.773 132.208 152.107 132.037 151.541 131.696C150.976 131.355 150.539 130.88 150.229 130.272C149.92 129.653 149.765 128.939 149.765 128.128C149.765 127.307 149.915 126.581 150.213 125.952C150.523 125.312 150.955 124.816 151.509 124.464C152.064 124.101 152.704 123.92 153.429 123.92C154.507 123.92 155.355 124.256 155.973 124.928C156.592 125.6 156.901 126.507 156.901 127.648V127.84C156.891 127.936 156.853 128.011 156.789 128.064C156.736 128.117 156.661 128.144 156.565 128.144H150.837C150.869 129.04 151.104 129.797 151.541 130.416C151.989 131.024 152.656 131.328 153.541 131.328C154.021 131.328 154.443 131.243 154.805 131.072C155.179 130.891 155.589 130.576 156.037 130.128ZM153.429 124.8C152.725 124.8 152.144 125.019 151.685 125.456C151.237 125.883 150.965 126.512 150.869 127.344H155.845C155.824 126.565 155.6 125.947 155.173 125.488C154.747 125.029 154.165 124.8 153.429 124.8Z" fill="#464646"/>
</svg>
