<svg width="344" height="168" viewBox="0 0 344 168" fill="none" xmlns="http://www.w3.org/2000/svg">
<rect width="344" height="168" fill="#F5F5F5"/>
<rect x="111.5" y="56.5" width="15" height="15" rx="7.5" fill="white" stroke="#C3CCD9"/>
<path d="M144.136 58.96C144.136 58.7467 144.243 58.64 144.456 58.64H144.92C145.133 58.64 145.24 58.7467 145.24 58.96V69.68C145.24 69.8933 145.133 70 144.92 70H144.2C144.029 70 143.896 69.9307 143.8 69.792L140.36 64.576L140.168 64.272C138.888 62.352 137.971 60.9387 137.416 60.032C137.459 61.28 137.48 62.72 137.48 64.352V69.68C137.48 69.8933 137.373 70 137.16 70H136.696C136.483 70 136.376 69.8933 136.376 69.68V58.96C136.376 58.7467 136.483 58.64 136.696 58.64H137.416C137.587 58.64 137.72 58.7093 137.816 58.848L141.24 64.048L141.848 64.992C142.925 66.624 143.709 67.84 144.2 68.64C144.157 67.3707 144.136 65.9253 144.136 64.304V58.96ZM151.057 70.208C150.321 70.208 149.665 70.032 149.089 69.68C148.513 69.328 148.065 68.8427 147.745 68.224C147.425 67.5947 147.265 66.8747 147.265 66.064C147.265 65.2533 147.425 64.5387 147.745 63.92C148.065 63.2907 148.513 62.8 149.089 62.448C149.665 62.096 150.321 61.92 151.057 61.92C151.793 61.92 152.449 62.096 153.025 62.448C153.601 62.8 154.049 63.2907 154.369 63.92C154.689 64.5387 154.849 65.2533 154.849 66.064C154.849 66.8747 154.689 67.5947 154.369 68.224C154.049 68.8427 153.601 69.328 153.025 69.68C152.449 70.032 151.793 70.208 151.057 70.208ZM151.057 69.328C151.879 69.328 152.535 69.0293 153.025 68.432C153.516 67.824 153.761 67.0347 153.761 66.064C153.761 65.0933 153.516 64.3093 153.025 63.712C152.535 63.104 151.879 62.8 151.057 62.8C150.236 62.8 149.58 63.104 149.089 63.712C148.599 64.3093 148.353 65.0933 148.353 66.064C148.353 67.0347 148.599 67.824 149.089 68.432C149.58 69.0293 150.236 69.328 151.057 69.328ZM160.002 69.12C160.034 69.1093 160.076 69.104 160.13 69.104C160.194 69.104 160.252 69.1253 160.306 69.168C160.359 69.2107 160.391 69.2693 160.402 69.344L160.45 69.568C160.46 69.5893 160.466 69.6267 160.466 69.68C160.466 69.8293 160.386 69.92 160.226 69.952C159.842 70.0693 159.431 70.128 158.994 70.128C158.3 70.128 157.804 69.9733 157.506 69.664C157.218 69.344 157.074 68.8853 157.074 68.288V62.912H155.89C155.676 62.912 155.57 62.8053 155.57 62.592V62.432C155.57 62.2187 155.676 62.112 155.89 62.112H157.074V59.68C157.074 59.4667 157.18 59.36 157.394 59.36H157.81C158.023 59.36 158.13 59.4667 158.13 59.68V62.112H160.05C160.263 62.112 160.37 62.2187 160.37 62.432V62.592C160.37 62.8053 160.263 62.912 160.05 62.912H158.13V68.16C158.13 68.5547 158.204 68.832 158.354 68.992C158.503 69.152 158.759 69.232 159.122 69.232C159.378 69.232 159.671 69.1947 160.002 69.12ZM168.42 70.208C167.77 70.208 167.194 70.1173 166.692 69.936C166.202 69.744 165.684 69.424 165.14 68.976C165.044 68.912 164.996 68.8373 164.996 68.752C164.996 68.6773 165.034 68.6027 165.108 68.528L165.316 68.304C165.38 68.2187 165.46 68.176 165.556 68.176C165.631 68.176 165.7 68.208 165.764 68.272C166.276 68.6667 166.73 68.944 167.124 69.104C167.519 69.2533 167.951 69.328 168.42 69.328C169.007 69.328 169.487 69.2 169.86 68.944C170.234 68.6773 170.42 68.32 170.42 67.872C170.42 67.424 170.228 67.0933 169.844 66.88C169.46 66.6667 168.868 66.4747 168.068 66.304C167.364 66.1547 166.81 66 166.404 65.84C166.01 65.6693 165.716 65.456 165.524 65.2C165.332 64.944 165.236 64.608 165.236 64.192C165.236 63.5093 165.514 62.96 166.068 62.544C166.623 62.128 167.322 61.92 168.164 61.92C168.74 61.92 169.252 61.9947 169.7 62.144C170.159 62.2827 170.618 62.5173 171.076 62.848C171.172 62.9227 171.22 63.0027 171.22 63.088C171.22 63.1413 171.194 63.2107 171.14 63.296L170.948 63.536C170.895 63.6213 170.82 63.664 170.724 63.664C170.639 63.664 170.564 63.6373 170.5 63.584C170.063 63.2747 169.674 63.0667 169.332 62.96C169.002 62.8533 168.623 62.8 168.196 62.8C167.61 62.8 167.14 62.928 166.788 63.184C166.436 63.44 166.26 63.7653 166.26 64.16C166.26 64.4053 166.34 64.6027 166.5 64.752C166.66 64.9013 166.89 65.0293 167.188 65.136C167.487 65.232 167.924 65.344 168.5 65.472C169.567 65.7067 170.324 65.9947 170.772 66.336C171.231 66.6773 171.46 67.1733 171.46 67.824C171.46 68.5387 171.178 69.1147 170.612 69.552C170.047 69.9893 169.316 70.208 168.42 70.208ZM178.991 68.128C179.065 68.0533 179.145 68.016 179.231 68.016C179.305 68.016 179.375 68.048 179.439 68.112L179.647 68.304C179.721 68.3787 179.759 68.4587 179.759 68.544C179.759 68.608 179.727 68.6827 179.663 68.768C179.14 69.2907 178.633 69.664 178.143 69.888C177.652 70.1013 177.103 70.208 176.495 70.208C175.727 70.208 175.06 70.0373 174.495 69.696C173.929 69.3547 173.492 68.88 173.183 68.272C172.873 67.6533 172.719 66.9387 172.719 66.128C172.719 65.3067 172.868 64.5813 173.167 63.952C173.476 63.312 173.908 62.816 174.463 62.464C175.017 62.1013 175.657 61.92 176.383 61.92C177.46 61.92 178.308 62.256 178.927 62.928C179.545 63.6 179.855 64.5067 179.855 65.648V65.84C179.844 65.936 179.807 66.0107 179.743 66.064C179.689 66.1173 179.615 66.144 179.519 66.144H173.791C173.823 67.04 174.057 67.7973 174.495 68.416C174.943 69.024 175.609 69.328 176.495 69.328C176.975 69.328 177.396 69.2427 177.759 69.072C178.132 68.8907 178.543 68.576 178.991 68.128ZM176.383 62.8C175.679 62.8 175.097 63.0187 174.639 63.456C174.191 63.8827 173.919 64.512 173.823 65.344H178.799C178.777 64.5653 178.553 63.9467 178.127 63.488C177.7 63.0293 177.119 62.8 176.383 62.8ZM182.083 70C181.869 70 181.763 69.8933 181.763 69.68V58.96C181.763 58.7467 181.869 58.64 182.083 58.64H182.499C182.712 58.64 182.819 58.7467 182.819 58.96V69.68C182.819 69.8933 182.712 70 182.499 70H182.083ZM190.944 68.128C191.018 68.0533 191.098 68.016 191.184 68.016C191.258 68.016 191.328 68.048 191.392 68.112L191.6 68.304C191.674 68.3787 191.712 68.4587 191.712 68.544C191.712 68.608 191.68 68.6827 191.616 68.768C191.093 69.2907 190.586 69.664 190.096 69.888C189.605 70.1013 189.056 70.208 188.448 70.208C187.68 70.208 187.013 70.0373 186.448 69.696C185.882 69.3547 185.445 68.88 185.136 68.272C184.826 67.6533 184.672 66.9387 184.672 66.128C184.672 65.3067 184.821 64.5813 185.12 63.952C185.429 63.312 185.861 62.816 186.416 62.464C186.97 62.1013 187.61 61.92 188.336 61.92C189.413 61.92 190.261 62.256 190.88 62.928C191.498 63.6 191.808 64.5067 191.808 65.648V65.84C191.797 65.936 191.76 66.0107 191.696 66.064C191.642 66.1173 191.568 66.144 191.472 66.144H185.744C185.776 67.04 186.01 67.7973 186.448 68.416C186.896 69.024 187.562 69.328 188.448 69.328C188.928 69.328 189.349 69.2427 189.712 69.072C190.085 68.8907 190.496 68.576 190.944 68.128ZM188.336 62.8C187.632 62.8 187.05 63.0187 186.592 63.456C186.144 63.8827 185.872 64.512 185.776 65.344H190.752C190.73 64.5653 190.506 63.9467 190.08 63.488C189.653 63.0293 189.072 62.8 188.336 62.8ZM196.915 70.208C196.158 70.208 195.497 70.0373 194.931 69.696C194.377 69.344 193.945 68.8587 193.635 68.24C193.337 67.6107 193.187 66.8853 193.187 66.064C193.187 65.2533 193.337 64.5333 193.635 63.904C193.945 63.2747 194.377 62.7893 194.931 62.448C195.497 62.096 196.147 61.92 196.883 61.92C197.481 61.92 198.003 62.0213 198.451 62.224C198.899 62.416 199.331 62.736 199.747 63.184C199.811 63.248 199.843 63.3173 199.843 63.392C199.843 63.488 199.801 63.568 199.715 63.632L199.491 63.84C199.427 63.904 199.353 63.936 199.267 63.936C199.193 63.936 199.113 63.8933 199.027 63.808C198.654 63.4347 198.297 63.1733 197.955 63.024C197.625 62.8747 197.257 62.8 196.851 62.8C196.297 62.8 195.822 62.9547 195.427 63.264C195.043 63.5733 194.755 63.9787 194.563 64.48C194.371 64.9707 194.275 65.4987 194.275 66.064C194.275 66.6293 194.371 67.1627 194.563 67.664C194.755 68.1547 195.049 68.5547 195.443 68.864C195.838 69.1627 196.323 69.312 196.899 69.312C197.326 69.312 197.699 69.2373 198.019 69.088C198.35 68.928 198.718 68.6293 199.123 68.192C199.209 68.1067 199.289 68.064 199.363 68.064C199.449 68.064 199.523 68.096 199.587 68.16L199.811 68.336C199.886 68.4 199.923 68.4747 199.923 68.56C199.923 68.6453 199.875 68.7467 199.779 68.864C199.331 69.3547 198.883 69.7013 198.435 69.904C197.987 70.1067 197.481 70.208 196.915 70.208ZM205.236 69.12C205.268 69.1093 205.311 69.104 205.364 69.104C205.428 69.104 205.487 69.1253 205.54 69.168C205.593 69.2107 205.625 69.2693 205.636 69.344L205.684 69.568C205.695 69.5893 205.7 69.6267 205.7 69.68C205.7 69.8293 205.62 69.92 205.46 69.952C205.076 70.0693 204.665 70.128 204.228 70.128C203.535 70.128 203.039 69.9733 202.74 69.664C202.452 69.344 202.308 68.8853 202.308 68.288V62.912H201.124C200.911 62.912 200.804 62.8053 200.804 62.592V62.432C200.804 62.2187 200.911 62.112 201.124 62.112H202.308V59.68C202.308 59.4667 202.415 59.36 202.628 59.36H203.044C203.257 59.36 203.364 59.4667 203.364 59.68V62.112H205.284C205.497 62.112 205.604 62.2187 205.604 62.432V62.592C205.604 62.8053 205.497 62.912 205.284 62.912H203.364V68.16C203.364 68.5547 203.439 68.832 203.588 68.992C203.737 69.152 203.993 69.232 204.356 69.232C204.612 69.232 204.905 69.1947 205.236 69.12ZM212.662 68.128C212.737 68.0533 212.817 68.016 212.902 68.016C212.977 68.016 213.046 68.048 213.11 68.112L213.318 68.304C213.393 68.3787 213.43 68.4587 213.43 68.544C213.43 68.608 213.398 68.6827 213.334 68.768C212.812 69.2907 212.305 69.664 211.814 69.888C211.324 70.1013 210.774 70.208 210.166 70.208C209.398 70.208 208.732 70.0373 208.166 69.696C207.601 69.3547 207.164 68.88 206.854 68.272C206.545 67.6533 206.39 66.9387 206.39 66.128C206.39 65.3067 206.54 64.5813 206.838 63.952C207.148 63.312 207.58 62.816 208.134 62.464C208.689 62.1013 209.329 61.92 210.054 61.92C211.132 61.92 211.98 62.256 212.598 62.928C213.217 63.6 213.526 64.5067 213.526 65.648V65.84C213.516 65.936 213.478 66.0107 213.414 66.064C213.361 66.1173 213.286 66.144 213.19 66.144H207.462C207.494 67.04 207.729 67.7973 208.166 68.416C208.614 69.024 209.281 69.328 210.166 69.328C210.646 69.328 211.068 69.2427 211.43 69.072C211.804 68.8907 212.214 68.576 212.662 68.128ZM210.054 62.8C209.35 62.8 208.769 63.0187 208.31 63.456C207.862 63.8827 207.59 64.512 207.494 65.344H212.47C212.449 64.5653 212.225 63.9467 211.798 63.488C211.372 63.0293 210.79 62.8 210.054 62.8ZM221.13 58.96C221.13 58.7467 221.237 58.64 221.45 58.64H221.866C222.079 58.64 222.186 58.7467 222.186 58.96V69.68C222.186 69.8933 222.079 70 221.866 70H221.53C221.317 70 221.21 69.8933 221.21 69.68V68.64C220.922 69.1413 220.543 69.5253 220.074 69.792C219.605 70.0587 219.05 70.192 218.41 70.192C217.738 70.192 217.141 70.0213 216.618 69.68C216.095 69.328 215.685 68.8427 215.386 68.224C215.087 67.5947 214.938 66.8747 214.938 66.064C214.938 65.2533 215.087 64.5387 215.386 63.92C215.695 63.2907 216.117 62.8053 216.65 62.464C217.183 62.112 217.781 61.936 218.442 61.936C219.658 61.936 220.554 62.3893 221.13 63.296V58.96ZM218.49 69.296C219.29 69.296 219.935 69.0133 220.426 68.448C220.927 67.872 221.178 67.0773 221.178 66.064C221.178 65.0613 220.927 64.272 220.426 63.696C219.935 63.12 219.29 62.832 218.49 62.832C217.754 62.832 217.157 63.1307 216.698 63.728C216.25 64.3253 216.026 65.104 216.026 66.064C216.026 67.0347 216.25 67.8187 216.698 68.416C217.146 69.0027 217.743 69.296 218.49 69.296Z" fill="#C3CCD9"/>
<rect x="111" y="94" width="16" height="16" rx="8" fill="#C3CCD9"/>
<rect x="115.267" y="98.2666" width="7.46667" height="7.46667" rx="3.73333" fill="white"/>
<path d="M140.136 108.24C139.293 108.24 138.531 108.112 137.848 107.856C137.176 107.589 136.467 107.157 135.72 106.56C135.624 106.475 135.576 106.395 135.576 106.32C135.576 106.256 135.608 106.187 135.672 106.112L135.928 105.808C135.981 105.723 136.061 105.68 136.168 105.68C136.253 105.68 136.323 105.707 136.376 105.76C137.133 106.347 137.795 106.747 138.36 106.96C138.925 107.163 139.517 107.264 140.136 107.264C141 107.264 141.704 107.051 142.248 106.624C142.792 106.187 143.064 105.595 143.064 104.848C143.064 104.368 142.936 103.984 142.68 103.696C142.424 103.408 142.072 103.184 141.624 103.024C141.187 102.864 140.563 102.693 139.752 102.512C138.781 102.299 138.024 102.069 137.48 101.824C136.947 101.579 136.557 101.269 136.312 100.896C136.067 100.523 135.944 100.043 135.944 99.456C135.944 98.8373 136.12 98.2987 136.472 97.84C136.835 97.3707 137.315 97.0133 137.912 96.768C138.509 96.5227 139.155 96.4 139.848 96.4C140.605 96.4 141.293 96.512 141.912 96.736C142.541 96.96 143.16 97.3173 143.768 97.808C143.864 97.872 143.912 97.9467 143.912 98.032C143.912 98.096 143.88 98.1707 143.816 98.256L143.576 98.544C143.523 98.6293 143.443 98.672 143.336 98.672C143.251 98.672 143.176 98.6453 143.112 98.592C142.568 98.144 142.04 97.8293 141.528 97.648C141.027 97.4667 140.472 97.376 139.864 97.376C139.309 97.376 138.819 97.4667 138.392 97.648C137.965 97.8187 137.629 98.0587 137.384 98.368C137.149 98.6773 137.032 99.0293 137.032 99.424C137.032 99.8507 137.149 100.192 137.384 100.448C137.629 100.704 137.965 100.907 138.392 101.056C138.829 101.205 139.464 101.376 140.296 101.568C141.256 101.792 142.013 102.043 142.568 102.32C143.133 102.597 143.544 102.939 143.8 103.344C144.056 103.739 144.184 104.229 144.184 104.816C144.184 105.499 144.008 106.101 143.656 106.624C143.315 107.136 142.835 107.536 142.216 107.824C141.597 108.101 140.904 108.24 140.136 108.24ZM151.897 106.128C151.971 106.053 152.051 106.016 152.137 106.016C152.211 106.016 152.281 106.048 152.345 106.112L152.553 106.304C152.627 106.379 152.665 106.459 152.665 106.544C152.665 106.608 152.633 106.683 152.569 106.768C152.046 107.291 151.539 107.664 151.049 107.888C150.558 108.101 150.009 108.208 149.401 108.208C148.633 108.208 147.966 108.037 147.401 107.696C146.835 107.355 146.398 106.88 146.089 106.272C145.779 105.653 145.625 104.939 145.625 104.128C145.625 103.307 145.774 102.581 146.073 101.952C146.382 101.312 146.814 100.816 147.369 100.464C147.923 100.101 148.563 99.92 149.289 99.92C150.366 99.92 151.214 100.256 151.833 100.928C152.451 101.6 152.761 102.507 152.761 103.648V103.84C152.75 103.936 152.713 104.011 152.649 104.064C152.595 104.117 152.521 104.144 152.425 104.144H146.697C146.729 105.04 146.963 105.797 147.401 106.416C147.849 107.024 148.515 107.328 149.401 107.328C149.881 107.328 150.302 107.243 150.665 107.072C151.038 106.891 151.449 106.576 151.897 106.128ZM149.289 100.8C148.585 100.8 148.003 101.019 147.545 101.456C147.097 101.883 146.825 102.512 146.729 103.344H151.705C151.683 102.565 151.459 101.947 151.033 101.488C150.606 101.029 150.025 100.8 149.289 100.8ZM154.989 108C154.775 108 154.669 107.893 154.669 107.68V96.96C154.669 96.7467 154.775 96.64 154.989 96.64H155.405C155.618 96.64 155.725 96.7467 155.725 96.96V107.68C155.725 107.893 155.618 108 155.405 108H154.989ZM163.85 106.128C163.925 106.053 164.005 106.016 164.09 106.016C164.165 106.016 164.234 106.048 164.298 106.112L164.506 106.304C164.581 106.379 164.618 106.459 164.618 106.544C164.618 106.608 164.586 106.683 164.522 106.768C163.999 107.291 163.493 107.664 163.002 107.888C162.511 108.101 161.962 108.208 161.354 108.208C160.586 108.208 159.919 108.037 159.354 107.696C158.789 107.355 158.351 106.88 158.042 106.272C157.733 105.653 157.578 104.939 157.578 104.128C157.578 103.307 157.727 102.581 158.026 101.952C158.335 101.312 158.767 100.816 159.322 100.464C159.877 100.101 160.517 99.92 161.242 99.92C162.319 99.92 163.167 100.256 163.786 100.928C164.405 101.6 164.714 102.507 164.714 103.648V103.84C164.703 103.936 164.666 104.011 164.602 104.064C164.549 104.117 164.474 104.144 164.378 104.144H158.65C158.682 105.04 158.917 105.797 159.354 106.416C159.802 107.024 160.469 107.328 161.354 107.328C161.834 107.328 162.255 107.243 162.618 107.072C162.991 106.891 163.402 106.576 163.85 106.128ZM161.242 100.8C160.538 100.8 159.957 101.019 159.498 101.456C159.05 101.883 158.778 102.512 158.682 103.344H163.658C163.637 102.565 163.413 101.947 162.986 101.488C162.559 101.029 161.978 100.8 161.242 100.8ZM169.822 108.208C169.064 108.208 168.403 108.037 167.838 107.696C167.283 107.344 166.851 106.859 166.542 106.24C166.243 105.611 166.094 104.885 166.094 104.064C166.094 103.253 166.243 102.533 166.542 101.904C166.851 101.275 167.283 100.789 167.838 100.448C168.403 100.096 169.054 99.92 169.79 99.92C170.387 99.92 170.91 100.021 171.358 100.224C171.806 100.416 172.238 100.736 172.654 101.184C172.718 101.248 172.75 101.317 172.75 101.392C172.75 101.488 172.707 101.568 172.622 101.632L172.398 101.84C172.334 101.904 172.259 101.936 172.174 101.936C172.099 101.936 172.019 101.893 171.934 101.808C171.56 101.435 171.203 101.173 170.862 101.024C170.531 100.875 170.163 100.8 169.758 100.8C169.203 100.8 168.728 100.955 168.334 101.264C167.95 101.573 167.662 101.979 167.47 102.48C167.278 102.971 167.182 103.499 167.182 104.064C167.182 104.629 167.278 105.163 167.47 105.664C167.662 106.155 167.955 106.555 168.35 106.864C168.744 107.163 169.23 107.312 169.806 107.312C170.232 107.312 170.606 107.237 170.926 107.088C171.256 106.928 171.624 106.629 172.03 106.192C172.115 106.107 172.195 106.064 172.27 106.064C172.355 106.064 172.43 106.096 172.494 106.16L172.718 106.336C172.792 106.4 172.83 106.475 172.83 106.56C172.83 106.645 172.782 106.747 172.686 106.864C172.238 107.355 171.79 107.701 171.342 107.904C170.894 108.107 170.387 108.208 169.822 108.208ZM178.142 107.12C178.174 107.109 178.217 107.104 178.27 107.104C178.334 107.104 178.393 107.125 178.446 107.168C178.5 107.211 178.532 107.269 178.542 107.344L178.59 107.568C178.601 107.589 178.606 107.627 178.606 107.68C178.606 107.829 178.526 107.92 178.366 107.952C177.982 108.069 177.572 108.128 177.134 108.128C176.441 108.128 175.945 107.973 175.646 107.664C175.358 107.344 175.214 106.885 175.214 106.288V100.912H174.03C173.817 100.912 173.71 100.805 173.71 100.592V100.432C173.71 100.219 173.817 100.112 174.03 100.112H175.214V97.68C175.214 97.4667 175.321 97.36 175.534 97.36H175.95C176.164 97.36 176.27 97.4667 176.27 97.68V100.112H178.19C178.404 100.112 178.51 100.219 178.51 100.432V100.592C178.51 100.805 178.404 100.912 178.19 100.912H176.27V106.16C176.27 106.555 176.345 106.832 176.494 106.992C176.644 107.152 176.9 107.232 177.262 107.232C177.518 107.232 177.812 107.195 178.142 107.12ZM185.569 106.128C185.643 106.053 185.723 106.016 185.809 106.016C185.883 106.016 185.953 106.048 186.017 106.112L186.225 106.304C186.299 106.379 186.337 106.459 186.337 106.544C186.337 106.608 186.305 106.683 186.241 106.768C185.718 107.291 185.211 107.664 184.721 107.888C184.23 108.101 183.681 108.208 183.073 108.208C182.305 108.208 181.638 108.037 181.073 107.696C180.507 107.355 180.07 106.88 179.761 106.272C179.451 105.653 179.297 104.939 179.297 104.128C179.297 103.307 179.446 102.581 179.745 101.952C180.054 101.312 180.486 100.816 181.041 100.464C181.595 100.101 182.235 99.92 182.961 99.92C184.038 99.92 184.886 100.256 185.505 100.928C186.123 101.6 186.433 102.507 186.433 103.648V103.84C186.422 103.936 186.385 104.011 186.321 104.064C186.267 104.117 186.193 104.144 186.097 104.144H180.369C180.401 105.04 180.635 105.797 181.073 106.416C181.521 107.024 182.187 107.328 183.073 107.328C183.553 107.328 183.974 107.243 184.337 107.072C184.71 106.891 185.121 106.576 185.569 106.128ZM182.961 100.8C182.257 100.8 181.675 101.019 181.217 101.456C180.769 101.883 180.497 102.512 180.401 103.344H185.377C185.355 102.565 185.131 101.947 184.705 101.488C184.278 101.029 183.697 100.8 182.961 100.8ZM194.036 96.96C194.036 96.7467 194.143 96.64 194.356 96.64H194.772C194.986 96.64 195.092 96.7467 195.092 96.96V107.68C195.092 107.893 194.986 108 194.772 108H194.436C194.223 108 194.116 107.893 194.116 107.68V106.64C193.828 107.141 193.45 107.525 192.98 107.792C192.511 108.059 191.956 108.192 191.316 108.192C190.644 108.192 190.047 108.021 189.524 107.68C189.002 107.328 188.591 106.843 188.292 106.224C187.994 105.595 187.844 104.875 187.844 104.064C187.844 103.253 187.994 102.539 188.292 101.92C188.602 101.291 189.023 100.805 189.556 100.464C190.09 100.112 190.687 99.936 191.348 99.936C192.564 99.936 193.46 100.389 194.036 101.296V96.96ZM191.396 107.296C192.196 107.296 192.842 107.013 193.332 106.448C193.834 105.872 194.084 105.077 194.084 104.064C194.084 103.061 193.834 102.272 193.332 101.696C192.842 101.12 192.196 100.832 191.396 100.832C190.66 100.832 190.063 101.131 189.604 101.728C189.156 102.325 188.932 103.104 188.932 104.064C188.932 105.035 189.156 105.819 189.604 106.416C190.052 107.003 190.65 107.296 191.396 107.296Z" fill="#C3CCD9"/>
</svg>
