<svg width="344" height="416" viewBox="0 0 344 416" fill="none" xmlns="http://www.w3.org/2000/svg">
<rect width="344" height="416" fill="#F5F5F5"/>
<rect x="48.5" y="140.5" width="247" height="47" rx="3.5" fill="white"/>
<g clip-path="url(#clip0_1806_18487)">
<path d="M57.808 169C57.5947 169 57.488 168.893 57.488 168.68V157.96C57.488 157.747 57.5947 157.64 57.808 157.64H58.304C58.5173 157.64 58.624 157.747 58.624 157.96V168.68C58.624 168.893 58.5173 169 58.304 169H57.808ZM68.0209 160.92C68.9915 160.92 69.7489 161.155 70.2929 161.624C70.8369 162.083 71.1089 162.691 71.1089 163.448V168.68C71.1089 168.893 71.0022 169 70.7889 169H70.4689C70.2555 169 70.1489 168.893 70.1489 168.68V167.96C69.8822 168.387 69.5035 168.707 69.0129 168.92C68.5329 169.133 67.9942 169.24 67.3969 169.24C66.5649 169.24 65.8875 169.064 65.3649 168.712C64.8422 168.36 64.5809 167.816 64.5809 167.08C64.5809 166.493 64.7462 166.024 65.0769 165.672C65.4075 165.309 65.8395 165.037 66.3729 164.856C66.9062 164.664 67.5729 164.493 68.3729 164.344L70.1009 164.04V163.528C70.1009 162.984 69.9142 162.563 69.5409 162.264C69.1675 161.955 68.6769 161.8 68.0689 161.8C67.6102 161.8 67.1942 161.885 66.8209 162.056C66.4475 162.227 66.0475 162.52 65.6209 162.936C65.5462 163.011 65.4662 163.048 65.3809 163.048C65.3062 163.048 65.2369 163.016 65.1729 162.952L64.9649 162.76C64.8902 162.685 64.8529 162.605 64.8529 162.52C64.8529 162.424 64.8902 162.339 64.9649 162.264C65.4129 161.795 65.8822 161.453 66.3729 161.24C66.8742 161.027 67.4235 160.92 68.0209 160.92ZM67.4449 168.36C68.2129 168.36 68.8475 168.157 69.3489 167.752C69.8502 167.347 70.1009 166.829 70.1009 166.2V164.856L68.6129 165.144C67.9195 165.283 67.3702 165.416 66.9649 165.544C66.5595 165.672 66.2342 165.859 65.9889 166.104C65.7435 166.349 65.6209 166.669 65.6209 167.064C65.6209 167.469 65.7809 167.789 66.1009 168.024C66.4315 168.248 66.8795 168.36 67.4449 168.36ZM81.4656 160.92C82.319 160.92 82.9696 161.165 83.4176 161.656C83.8763 162.136 84.1056 162.755 84.1056 163.512V168.68C84.1056 168.893 83.999 169 83.7856 169H83.3696C83.1563 169 83.0496 168.893 83.0496 168.68V163.8C83.0496 163.16 82.9003 162.669 82.6016 162.328C82.3136 161.987 81.8816 161.816 81.3056 161.816C80.6976 161.816 80.2123 162.019 79.8496 162.424C79.487 162.829 79.3056 163.352 79.3056 163.992V168.68C79.3056 168.893 79.199 169 78.9856 169H78.5696C78.3563 169 78.2496 168.893 78.2496 168.68V163.8C78.2496 163.16 78.1003 162.669 77.8016 162.328C77.5136 161.987 77.0763 161.816 76.4896 161.816C75.9456 161.816 75.4923 161.987 75.1296 162.328C74.7776 162.669 74.5696 163.117 74.5056 163.672V168.68C74.5056 168.893 74.399 169 74.1856 169H73.7696C73.5563 169 73.4496 168.893 73.4496 168.68V161.432C73.4496 161.219 73.5563 161.112 73.7696 161.112H74.1216C74.335 161.112 74.4416 161.219 74.4416 161.432V162.088C74.9216 161.309 75.6843 160.92 76.7296 160.92C77.2736 160.92 77.7376 161.043 78.1216 161.288C78.5163 161.523 78.8096 161.843 79.0016 162.248C79.567 161.363 80.3883 160.92 81.4656 160.92ZM93.1615 160.92C94.1322 160.92 94.8895 161.155 95.4335 161.624C95.9775 162.083 96.2495 162.691 96.2495 163.448V168.68C96.2495 168.893 96.1428 169 95.9295 169H95.6095C95.3962 169 95.2895 168.893 95.2895 168.68V167.96C95.0228 168.387 94.6442 168.707 94.1535 168.92C93.6735 169.133 93.1348 169.24 92.5375 169.24C91.7055 169.24 91.0282 169.064 90.5055 168.712C89.9828 168.36 89.7215 167.816 89.7215 167.08C89.7215 166.493 89.8868 166.024 90.2175 165.672C90.5482 165.309 90.9802 165.037 91.5135 164.856C92.0468 164.664 92.7135 164.493 93.5135 164.344L95.2415 164.04V163.528C95.2415 162.984 95.0548 162.563 94.6815 162.264C94.3082 161.955 93.8175 161.8 93.2095 161.8C92.7508 161.8 92.3348 161.885 91.9615 162.056C91.5882 162.227 91.1882 162.52 90.7615 162.936C90.6868 163.011 90.6068 163.048 90.5215 163.048C90.4468 163.048 90.3775 163.016 90.3135 162.952L90.1055 162.76C90.0308 162.685 89.9935 162.605 89.9935 162.52C89.9935 162.424 90.0308 162.339 90.1055 162.264C90.5535 161.795 91.0228 161.453 91.5135 161.24C92.0148 161.027 92.5642 160.92 93.1615 160.92ZM92.5855 168.36C93.3535 168.36 93.9882 168.157 94.4895 167.752C94.9908 167.347 95.2415 166.829 95.2415 166.2V164.856L93.7535 165.144C93.0602 165.283 92.5108 165.416 92.1055 165.544C91.7002 165.672 91.3748 165.859 91.1295 166.104C90.8842 166.349 90.7615 166.669 90.7615 167.064C90.7615 167.469 90.9215 167.789 91.2415 168.024C91.5722 168.248 92.0202 168.36 92.5855 168.36ZM106.054 160.936C106.715 160.936 107.307 161.112 107.83 161.464C108.363 161.805 108.779 162.291 109.078 162.92C109.376 163.539 109.526 164.248 109.526 165.048C109.526 165.859 109.376 166.579 109.078 167.208C108.779 167.837 108.368 168.328 107.846 168.68C107.323 169.021 106.726 169.192 106.054 169.192C104.816 169.192 103.91 168.739 103.334 167.832V171.624C103.334 171.837 103.227 171.944 103.014 171.944H102.598C102.384 171.944 102.278 171.837 102.278 171.624V161.432C102.278 161.219 102.384 161.112 102.598 161.112H102.95C103.163 161.112 103.27 161.219 103.27 161.432V162.44C103.558 161.949 103.936 161.576 104.406 161.32C104.875 161.064 105.424 160.936 106.054 160.936ZM105.974 168.296C106.72 168.296 107.318 167.997 107.766 167.4C108.214 166.803 108.438 166.019 108.438 165.048C108.438 164.088 108.214 163.315 107.766 162.728C107.318 162.131 106.72 161.832 105.974 161.832C105.174 161.832 104.523 162.12 104.022 162.696C103.531 163.261 103.286 164.045 103.286 165.048C103.286 166.051 103.536 166.845 104.038 167.432C104.539 168.008 105.184 168.296 105.974 168.296ZM111.739 169C111.525 169 111.419 168.893 111.419 168.68V157.96C111.419 157.747 111.525 157.64 111.739 157.64H112.155C112.368 157.64 112.475 157.747 112.475 157.96V168.68C112.475 168.893 112.368 169 112.155 169H111.739ZM117.896 160.92C118.867 160.92 119.624 161.155 120.168 161.624C120.712 162.083 120.984 162.691 120.984 163.448V168.68C120.984 168.893 120.877 169 120.664 169H120.344C120.131 169 120.024 168.893 120.024 168.68V167.96C119.757 168.387 119.379 168.707 118.888 168.92C118.408 169.133 117.869 169.24 117.272 169.24C116.44 169.24 115.763 169.064 115.24 168.712C114.717 168.36 114.456 167.816 114.456 167.08C114.456 166.493 114.621 166.024 114.952 165.672C115.283 165.309 115.715 165.037 116.248 164.856C116.781 164.664 117.448 164.493 118.248 164.344L119.976 164.04V163.528C119.976 162.984 119.789 162.563 119.416 162.264C119.043 161.955 118.552 161.8 117.944 161.8C117.485 161.8 117.069 161.885 116.696 162.056C116.323 162.227 115.923 162.52 115.496 162.936C115.421 163.011 115.341 163.048 115.256 163.048C115.181 163.048 115.112 163.016 115.048 162.952L114.84 162.76C114.765 162.685 114.728 162.605 114.728 162.52C114.728 162.424 114.765 162.339 114.84 162.264C115.288 161.795 115.757 161.453 116.248 161.24C116.749 161.027 117.299 160.92 117.896 160.92ZM117.32 168.36C118.088 168.36 118.723 168.157 119.224 167.752C119.725 167.347 119.976 166.829 119.976 166.2V164.856L118.488 165.144C117.795 165.283 117.245 165.416 116.84 165.544C116.435 165.672 116.109 165.859 115.864 166.104C115.619 166.349 115.496 166.669 115.496 167.064C115.496 167.469 115.656 167.789 115.976 168.024C116.307 168.248 116.755 168.36 117.32 168.36ZM126.525 169.208C125.767 169.208 125.106 169.037 124.541 168.696C123.986 168.344 123.554 167.859 123.245 167.24C122.946 166.611 122.797 165.885 122.797 165.064C122.797 164.253 122.946 163.533 123.245 162.904C123.554 162.275 123.986 161.789 124.541 161.448C125.106 161.096 125.757 160.92 126.493 160.92C127.09 160.92 127.613 161.021 128.061 161.224C128.509 161.416 128.941 161.736 129.357 162.184C129.421 162.248 129.453 162.317 129.453 162.392C129.453 162.488 129.41 162.568 129.325 162.632L129.101 162.84C129.037 162.904 128.962 162.936 128.877 162.936C128.802 162.936 128.722 162.893 128.637 162.808C128.263 162.435 127.906 162.173 127.565 162.024C127.234 161.875 126.866 161.8 126.461 161.8C125.906 161.8 125.431 161.955 125.037 162.264C124.653 162.573 124.365 162.979 124.173 163.48C123.981 163.971 123.885 164.499 123.885 165.064C123.885 165.629 123.981 166.163 124.173 166.664C124.365 167.155 124.658 167.555 125.053 167.864C125.447 168.163 125.933 168.312 126.509 168.312C126.935 168.312 127.309 168.237 127.629 168.088C127.959 167.928 128.327 167.629 128.733 167.192C128.818 167.107 128.898 167.064 128.973 167.064C129.058 167.064 129.133 167.096 129.197 167.16L129.421 167.336C129.495 167.4 129.533 167.475 129.533 167.56C129.533 167.645 129.485 167.747 129.389 167.864C128.941 168.355 128.493 168.701 128.045 168.904C127.597 169.107 127.09 169.208 126.525 169.208ZM136.834 167.128C136.909 167.053 136.989 167.016 137.074 167.016C137.149 167.016 137.218 167.048 137.282 167.112L137.49 167.304C137.565 167.379 137.602 167.459 137.602 167.544C137.602 167.608 137.57 167.683 137.506 167.768C136.984 168.291 136.477 168.664 135.986 168.888C135.496 169.101 134.946 169.208 134.338 169.208C133.57 169.208 132.904 169.037 132.338 168.696C131.773 168.355 131.336 167.88 131.026 167.272C130.717 166.653 130.562 165.939 130.562 165.128C130.562 164.307 130.712 163.581 131.01 162.952C131.32 162.312 131.752 161.816 132.306 161.464C132.861 161.101 133.501 160.92 134.226 160.92C135.304 160.92 136.152 161.256 136.77 161.928C137.389 162.6 137.698 163.507 137.698 164.648V164.84C137.688 164.936 137.65 165.011 137.586 165.064C137.533 165.117 137.458 165.144 137.362 165.144H131.634C131.666 166.04 131.901 166.797 132.338 167.416C132.786 168.024 133.453 168.328 134.338 168.328C134.818 168.328 135.24 168.243 135.602 168.072C135.976 167.891 136.386 167.576 136.834 167.128ZM134.226 161.8C133.522 161.8 132.941 162.019 132.482 162.456C132.034 162.883 131.762 163.512 131.666 164.344H136.642C136.621 163.565 136.397 162.947 135.97 162.488C135.544 162.029 134.962 161.8 134.226 161.8ZM143.11 160.92C144.028 160.92 144.726 161.181 145.206 161.704C145.686 162.216 145.926 162.851 145.926 163.608V168.68C145.926 168.893 145.82 169 145.606 169H145.19C144.977 169 144.87 168.893 144.87 168.68V163.96C144.87 163.256 144.7 162.723 144.358 162.36C144.017 161.997 143.526 161.816 142.886 161.816C142.481 161.816 142.108 161.917 141.766 162.12C141.425 162.312 141.153 162.579 140.95 162.92C140.748 163.261 140.646 163.635 140.646 164.04V168.68C140.646 168.893 140.54 169 140.326 169H139.91C139.697 169 139.59 168.893 139.59 168.68V157.96C139.59 157.747 139.697 157.64 139.91 157.64H140.326C140.54 157.64 140.646 157.747 140.646 157.96V162.136C140.902 161.731 141.244 161.427 141.67 161.224C142.108 161.021 142.588 160.92 143.11 160.92ZM151.526 169.208C150.79 169.208 150.134 169.032 149.558 168.68C148.982 168.328 148.534 167.843 148.214 167.224C147.894 166.595 147.734 165.875 147.734 165.064C147.734 164.253 147.894 163.539 148.214 162.92C148.534 162.291 148.982 161.8 149.558 161.448C150.134 161.096 150.79 160.92 151.526 160.92C152.262 160.92 152.918 161.096 153.494 161.448C154.07 161.8 154.518 162.291 154.838 162.92C155.158 163.539 155.318 164.253 155.318 165.064C155.318 165.875 155.158 166.595 154.838 167.224C154.518 167.843 154.07 168.328 153.494 168.68C152.918 169.032 152.262 169.208 151.526 169.208ZM151.526 168.328C152.347 168.328 153.003 168.029 153.494 167.432C153.985 166.824 154.23 166.035 154.23 165.064C154.23 164.093 153.985 163.309 153.494 162.712C153.003 162.104 152.347 161.8 151.526 161.8C150.705 161.8 150.049 162.104 149.558 162.712C149.067 163.309 148.822 164.093 148.822 165.064C148.822 166.035 149.067 166.824 149.558 167.432C150.049 168.029 150.705 168.328 151.526 168.328ZM157.489 169C157.275 169 157.169 168.893 157.169 168.68V157.96C157.169 157.747 157.275 157.64 157.489 157.64H157.905C158.118 157.64 158.225 157.747 158.225 157.96V168.68C158.225 168.893 158.118 169 157.905 169H157.489ZM166.302 157.96C166.302 157.747 166.409 157.64 166.622 157.64H167.038C167.251 157.64 167.358 157.747 167.358 157.96V168.68C167.358 168.893 167.251 169 167.038 169H166.702C166.489 169 166.382 168.893 166.382 168.68V167.64C166.094 168.141 165.715 168.525 165.246 168.792C164.777 169.059 164.222 169.192 163.582 169.192C162.91 169.192 162.313 169.021 161.79 168.68C161.267 168.328 160.857 167.843 160.558 167.224C160.259 166.595 160.11 165.875 160.11 165.064C160.11 164.253 160.259 163.539 160.558 162.92C160.867 162.291 161.289 161.805 161.822 161.464C162.355 161.112 162.953 160.936 163.614 160.936C164.83 160.936 165.726 161.389 166.302 162.296V157.96ZM163.662 168.296C164.462 168.296 165.107 168.013 165.598 167.448C166.099 166.872 166.35 166.077 166.35 165.064C166.35 164.061 166.099 163.272 165.598 162.696C165.107 162.12 164.462 161.832 163.662 161.832C162.926 161.832 162.329 162.131 161.87 162.728C161.422 163.325 161.198 164.104 161.198 165.064C161.198 166.035 161.422 166.819 161.87 167.416C162.318 168.003 162.915 168.296 163.662 168.296ZM175.475 167.128C175.55 167.053 175.63 167.016 175.715 167.016C175.79 167.016 175.859 167.048 175.923 167.112L176.131 167.304C176.206 167.379 176.243 167.459 176.243 167.544C176.243 167.608 176.211 167.683 176.147 167.768C175.624 168.291 175.118 168.664 174.627 168.888C174.136 169.101 173.587 169.208 172.979 169.208C172.211 169.208 171.544 169.037 170.979 168.696C170.414 168.355 169.976 167.88 169.667 167.272C169.358 166.653 169.203 165.939 169.203 165.128C169.203 164.307 169.352 163.581 169.651 162.952C169.96 162.312 170.392 161.816 170.947 161.464C171.502 161.101 172.142 160.92 172.867 160.92C173.944 160.92 174.792 161.256 175.411 161.928C176.03 162.6 176.339 163.507 176.339 164.648V164.84C176.328 164.936 176.291 165.011 176.227 165.064C176.174 165.117 176.099 165.144 176.003 165.144H170.275C170.307 166.04 170.542 166.797 170.979 167.416C171.427 168.024 172.094 168.328 172.979 168.328C173.459 168.328 173.88 168.243 174.243 168.072C174.616 167.891 175.027 167.576 175.475 167.128ZM172.867 161.8C172.163 161.8 171.582 162.019 171.123 162.456C170.675 162.883 170.403 163.512 170.307 164.344H175.283C175.262 163.565 175.038 162.947 174.611 162.488C174.184 162.029 173.603 161.8 172.867 161.8ZM181.175 161.048C181.442 161.048 181.756 161.091 182.119 161.176C182.311 161.24 182.386 161.373 182.343 161.576L182.279 161.832C182.226 162.035 182.092 162.109 181.879 162.056C181.623 161.992 181.388 161.96 181.175 161.96C180.631 161.96 180.178 162.195 179.815 162.664C179.463 163.133 179.287 163.784 179.287 164.616V168.68C179.287 168.893 179.18 169 178.967 169H178.551C178.338 169 178.231 168.893 178.231 168.68V161.432C178.231 161.219 178.338 161.112 178.551 161.112H178.903C179.116 161.112 179.223 161.219 179.223 161.432V162.312C179.404 161.917 179.66 161.608 179.991 161.384C180.332 161.16 180.727 161.048 181.175 161.048ZM191.017 168.12C191.049 168.109 191.092 168.104 191.145 168.104C191.209 168.104 191.268 168.125 191.321 168.168C191.375 168.211 191.407 168.269 191.417 168.344L191.465 168.568C191.476 168.589 191.481 168.627 191.481 168.68C191.481 168.829 191.401 168.92 191.241 168.952C190.857 169.069 190.447 169.128 190.009 169.128C189.316 169.128 188.82 168.973 188.521 168.664C188.233 168.344 188.089 167.885 188.089 167.288V161.912H186.905C186.692 161.912 186.585 161.805 186.585 161.592V161.432C186.585 161.219 186.692 161.112 186.905 161.112H188.089V158.68C188.089 158.467 188.196 158.36 188.409 158.36H188.825C189.039 158.36 189.145 158.467 189.145 158.68V161.112H191.065C191.279 161.112 191.385 161.219 191.385 161.432V161.592C191.385 161.805 191.279 161.912 191.065 161.912H189.145V167.16C189.145 167.555 189.22 167.832 189.369 167.992C189.519 168.152 189.775 168.232 190.137 168.232C190.393 168.232 190.687 168.195 191.017 168.12ZM198.444 167.128C198.518 167.053 198.598 167.016 198.684 167.016C198.758 167.016 198.828 167.048 198.892 167.112L199.1 167.304C199.174 167.379 199.212 167.459 199.212 167.544C199.212 167.608 199.18 167.683 199.116 167.768C198.593 168.291 198.086 168.664 197.596 168.888C197.105 169.101 196.556 169.208 195.948 169.208C195.18 169.208 194.513 169.037 193.948 168.696C193.382 168.355 192.945 167.88 192.636 167.272C192.326 166.653 192.172 165.939 192.172 165.128C192.172 164.307 192.321 163.581 192.62 162.952C192.929 162.312 193.361 161.816 193.916 161.464C194.47 161.101 195.11 160.92 195.836 160.92C196.913 160.92 197.761 161.256 198.38 161.928C198.998 162.6 199.308 163.507 199.308 164.648V164.84C199.297 164.936 199.26 165.011 199.196 165.064C199.142 165.117 199.068 165.144 198.972 165.144H193.244C193.276 166.04 193.51 166.797 193.948 167.416C194.396 168.024 195.062 168.328 195.948 168.328C196.428 168.328 196.849 168.243 197.212 168.072C197.585 167.891 197.996 167.576 198.444 167.128ZM195.836 161.8C195.132 161.8 194.55 162.019 194.092 162.456C193.644 162.883 193.372 163.512 193.276 164.344H198.252C198.23 163.565 198.006 162.947 197.58 162.488C197.153 162.029 196.572 161.8 195.836 161.8ZM206.789 168.616C206.831 168.691 206.853 168.755 206.853 168.808C206.853 168.936 206.767 169 206.597 169H206.117C205.957 169 205.829 168.931 205.733 168.792L203.557 165.592L201.397 168.792C201.301 168.931 201.173 169 201.013 169H200.565C200.479 169 200.41 168.984 200.357 168.952C200.314 168.909 200.293 168.861 200.293 168.808C200.293 168.733 200.314 168.669 200.357 168.616L202.949 164.888L200.565 161.496C200.522 161.443 200.501 161.384 200.501 161.32C200.501 161.181 200.591 161.112 200.773 161.112H201.237C201.397 161.112 201.525 161.181 201.621 161.32L203.573 164.184L205.509 161.32C205.605 161.181 205.733 161.112 205.893 161.112H206.325C206.41 161.112 206.474 161.133 206.517 161.176C206.57 161.208 206.597 161.251 206.597 161.304C206.597 161.379 206.575 161.443 206.533 161.496L204.197 164.84L206.789 168.616ZM212.095 168.12C212.127 168.109 212.17 168.104 212.223 168.104C212.287 168.104 212.346 168.125 212.399 168.168C212.453 168.211 212.485 168.269 212.495 168.344L212.543 168.568C212.554 168.589 212.559 168.627 212.559 168.68C212.559 168.829 212.479 168.92 212.319 168.952C211.935 169.069 211.525 169.128 211.087 169.128C210.394 169.128 209.898 168.973 209.599 168.664C209.311 168.344 209.167 167.885 209.167 167.288V161.912H207.983C207.77 161.912 207.663 161.805 207.663 161.592V161.432C207.663 161.219 207.77 161.112 207.983 161.112H209.167V158.68C209.167 158.467 209.274 158.36 209.487 158.36H209.903C210.117 158.36 210.223 158.467 210.223 158.68V161.112H212.143C212.357 161.112 212.463 161.219 212.463 161.432V161.592C212.463 161.805 212.357 161.912 212.143 161.912H210.223V167.16C210.223 167.555 210.298 167.832 210.447 167.992C210.597 168.152 210.853 168.232 211.215 168.232C211.471 168.232 211.765 168.195 212.095 168.12ZM214.819 169.112C214.595 169.112 214.403 169.032 214.243 168.872C214.083 168.712 214.003 168.52 214.003 168.296C214.003 168.072 214.083 167.88 214.243 167.72C214.403 167.56 214.595 167.48 214.819 167.48C215.043 167.48 215.235 167.56 215.395 167.72C215.555 167.88 215.635 168.072 215.635 168.296C215.635 168.52 215.555 168.712 215.395 168.872C215.235 169.032 215.043 169.112 214.819 169.112ZM218.054 169.112C217.83 169.112 217.638 169.032 217.478 168.872C217.318 168.712 217.238 168.52 217.238 168.296C217.238 168.072 217.318 167.88 217.478 167.72C217.638 167.56 217.83 167.48 218.054 167.48C218.278 167.48 218.47 167.56 218.63 167.72C218.79 167.88 218.87 168.072 218.87 168.296C218.87 168.52 218.79 168.712 218.63 168.872C218.47 169.032 218.278 169.112 218.054 169.112Z" fill="#C3CCD9"/>
<path d="M280.796 167.803C283.685 166.575 285.032 163.238 283.804 160.349C282.576 157.46 279.239 156.113 276.349 157.341C273.46 158.569 272.114 161.906 273.341 164.795C274.569 167.684 277.907 169.031 280.796 167.803Z" stroke="#767676" stroke-width="1.5" stroke-linecap="round" stroke-linejoin="round"/>
<path d="M283 167L287 171" stroke="#767676" stroke-width="1.5" stroke-linecap="round" stroke-linejoin="round"/>
</g>
<rect x="48.5" y="140.5" width="247" height="47" rx="3.5" stroke="#C3CCD9"/>
<rect x="48.5" y="228.5" width="247" height="47" rx="3.5" fill="white"/>
<g clip-path="url(#clip1_1806_18487)">
<path d="M61.968 257.24C60.88 257.24 59.9413 256.989 59.152 256.488C58.3627 255.976 57.76 255.272 57.344 254.376C56.928 253.48 56.72 252.461 56.72 251.32C56.72 250.168 56.928 249.144 57.344 248.248C57.76 247.352 58.368 246.653 59.168 246.152C59.9787 245.651 60.9493 245.4 62.08 245.4C62.7307 245.4 63.3387 245.507 63.904 245.72C64.4693 245.923 65.072 246.275 65.712 246.776C65.808 246.84 65.856 246.915 65.856 247C65.856 247.064 65.824 247.139 65.76 247.224L65.536 247.512C65.472 247.597 65.3973 247.64 65.312 247.64C65.2267 247.64 65.1467 247.608 65.072 247.544C64.496 247.096 63.9733 246.792 63.504 246.632C63.0453 246.461 62.5707 246.376 62.08 246.376C61.216 246.376 60.464 246.589 59.824 247.016C59.1947 247.432 58.7093 248.013 58.368 248.76C58.0267 249.507 57.856 250.36 57.856 251.32C57.856 252.269 58.0267 253.123 58.368 253.88C58.7093 254.627 59.1893 255.213 59.808 255.64C60.4267 256.056 61.1413 256.264 61.952 256.264C62.592 256.264 63.1573 256.141 63.648 255.896C64.1493 255.64 64.6827 255.245 65.248 254.712C65.3333 254.648 65.408 254.616 65.472 254.616C65.5573 254.616 65.6373 254.653 65.712 254.728L65.968 255.016C66.032 255.08 66.064 255.149 66.064 255.224C66.064 255.32 66.0107 255.416 65.904 255.512C65.2427 256.141 64.6133 256.589 64.016 256.856C63.4187 257.112 62.736 257.24 61.968 257.24ZM70.9115 248.92C71.8822 248.92 72.6395 249.155 73.1835 249.624C73.7275 250.083 73.9995 250.691 73.9995 251.448V256.68C73.9995 256.893 73.8928 257 73.6795 257H73.3595C73.1462 257 73.0395 256.893 73.0395 256.68V255.96C72.7728 256.387 72.3942 256.707 71.9035 256.92C71.4235 257.133 70.8848 257.24 70.2875 257.24C69.4555 257.24 68.7782 257.064 68.2555 256.712C67.7328 256.36 67.4715 255.816 67.4715 255.08C67.4715 254.493 67.6368 254.024 67.9675 253.672C68.2982 253.309 68.7302 253.037 69.2635 252.856C69.7968 252.664 70.4635 252.493 71.2635 252.344L72.9915 252.04V251.528C72.9915 250.984 72.8048 250.563 72.4315 250.264C72.0582 249.955 71.5675 249.8 70.9595 249.8C70.5008 249.8 70.0848 249.885 69.7115 250.056C69.3382 250.227 68.9382 250.52 68.5115 250.936C68.4368 251.011 68.3568 251.048 68.2715 251.048C68.1968 251.048 68.1275 251.016 68.0635 250.952L67.8555 250.76C67.7808 250.685 67.7435 250.605 67.7435 250.52C67.7435 250.424 67.7808 250.339 67.8555 250.264C68.3035 249.795 68.7728 249.453 69.2635 249.24C69.7648 249.027 70.3142 248.92 70.9115 248.92ZM70.3355 256.36C71.1035 256.36 71.7382 256.157 72.2395 255.752C72.7408 255.347 72.9915 254.829 72.9915 254.2V252.856L71.5035 253.144C70.8102 253.283 70.2608 253.416 69.8555 253.544C69.4502 253.672 69.1248 253.859 68.8795 254.104C68.6342 254.349 68.5115 254.669 68.5115 255.064C68.5115 255.469 68.6715 255.789 68.9915 256.024C69.3222 256.248 69.7702 256.36 70.3355 256.36ZM79.6735 256.12C79.7055 256.109 79.7482 256.104 79.8015 256.104C79.8655 256.104 79.9242 256.125 79.9775 256.168C80.0308 256.211 80.0628 256.269 80.0735 256.344L80.1215 256.568C80.1322 256.589 80.1375 256.627 80.1375 256.68C80.1375 256.829 80.0575 256.92 79.8975 256.952C79.5135 257.069 79.1028 257.128 78.6655 257.128C77.9722 257.128 77.4762 256.973 77.1775 256.664C76.8895 256.344 76.7455 255.885 76.7455 255.288V249.912H75.5615C75.3482 249.912 75.2415 249.805 75.2415 249.592V249.432C75.2415 249.219 75.3482 249.112 75.5615 249.112H76.7455V246.68C76.7455 246.467 76.8522 246.36 77.0655 246.36H77.4815C77.6948 246.36 77.8015 246.467 77.8015 246.68V249.112H79.7215C79.9348 249.112 80.0415 249.219 80.0415 249.432V249.592C80.0415 249.805 79.9348 249.912 79.7215 249.912H77.8015V255.16C77.8015 255.555 77.8762 255.832 78.0255 255.992C78.1748 256.152 78.4308 256.232 78.7935 256.232C79.0495 256.232 79.3428 256.195 79.6735 256.12ZM88.8602 248.92C89.7776 248.92 90.4763 249.181 90.9563 249.704C91.4363 250.216 91.6763 250.851 91.6763 251.608V256.68C91.6763 256.893 91.5696 257 91.3563 257H90.9403C90.7269 257 90.6203 256.893 90.6203 256.68V251.96C90.6203 251.256 90.4496 250.723 90.1083 250.36C89.7669 249.997 89.2763 249.816 88.6363 249.816C88.2309 249.816 87.8576 249.917 87.5163 250.12C87.1749 250.312 86.9029 250.579 86.7003 250.92C86.4976 251.261 86.3963 251.635 86.3963 252.04V256.68C86.3963 256.893 86.2896 257 86.0763 257H85.6603C85.4469 257 85.3403 256.893 85.3403 256.68V245.96C85.3403 245.747 85.4469 245.64 85.6603 245.64H86.0763C86.2896 245.64 86.3963 245.747 86.3963 245.96V250.136C86.6523 249.731 86.9936 249.427 87.4203 249.224C87.8576 249.021 88.3376 248.92 88.8602 248.92ZM97.2761 257.208C96.5401 257.208 95.8841 257.032 95.3081 256.68C94.7321 256.328 94.2841 255.843 93.9641 255.224C93.6441 254.595 93.4841 253.875 93.4841 253.064C93.4841 252.253 93.6441 251.539 93.9641 250.92C94.2841 250.291 94.7321 249.8 95.3081 249.448C95.8841 249.096 96.5401 248.92 97.2761 248.92C98.0121 248.92 98.6681 249.096 99.2441 249.448C99.8201 249.8 100.268 250.291 100.588 250.92C100.908 251.539 101.068 252.253 101.068 253.064C101.068 253.875 100.908 254.595 100.588 255.224C100.268 255.843 99.8201 256.328 99.2441 256.68C98.6681 257.032 98.0121 257.208 97.2761 257.208ZM97.2761 256.328C98.0975 256.328 98.7535 256.029 99.2441 255.432C99.7348 254.824 99.9801 254.035 99.9801 253.064C99.9801 252.093 99.7348 251.309 99.2441 250.712C98.7535 250.104 98.0975 249.8 97.2761 249.8C96.4548 249.8 95.7988 250.104 95.3081 250.712C94.8175 251.309 94.5721 252.093 94.5721 253.064C94.5721 254.035 94.8175 254.824 95.3081 255.432C95.7988 256.029 96.4548 256.328 97.2761 256.328ZM108.023 249.432C108.023 249.219 108.129 249.112 108.343 249.112H108.759C108.972 249.112 109.079 249.219 109.079 249.432V256.68C109.079 256.893 108.972 257 108.759 257H108.423C108.209 257 108.103 256.893 108.103 256.68V255.96C107.868 256.376 107.532 256.691 107.095 256.904C106.668 257.107 106.199 257.208 105.687 257.208C104.727 257.208 104.017 256.968 103.559 256.488C103.1 255.997 102.871 255.368 102.871 254.6V249.432C102.871 249.219 102.977 249.112 103.191 249.112H103.607C103.82 249.112 103.927 249.219 103.927 249.432V254.376C103.927 255.005 104.081 255.485 104.391 255.816C104.711 256.136 105.164 256.296 105.751 256.296C106.412 256.296 106.956 256.093 107.383 255.688C107.809 255.283 108.023 254.707 108.023 253.96V249.432ZM114.202 257.208C113.551 257.208 112.975 257.117 112.474 256.936C111.983 256.744 111.466 256.424 110.922 255.976C110.826 255.912 110.778 255.837 110.778 255.752C110.778 255.677 110.815 255.603 110.89 255.528L111.098 255.304C111.162 255.219 111.242 255.176 111.338 255.176C111.412 255.176 111.482 255.208 111.546 255.272C112.058 255.667 112.511 255.944 112.906 256.104C113.3 256.253 113.732 256.328 114.202 256.328C114.788 256.328 115.268 256.2 115.642 255.944C116.015 255.677 116.202 255.32 116.202 254.872C116.202 254.424 116.01 254.093 115.626 253.88C115.242 253.667 114.65 253.475 113.85 253.304C113.146 253.155 112.591 253 112.186 252.84C111.791 252.669 111.498 252.456 111.306 252.2C111.114 251.944 111.018 251.608 111.018 251.192C111.018 250.509 111.295 249.96 111.85 249.544C112.404 249.128 113.103 248.92 113.946 248.92C114.522 248.92 115.034 248.995 115.482 249.144C115.94 249.283 116.399 249.517 116.858 249.848C116.954 249.923 117.002 250.003 117.002 250.088C117.002 250.141 116.975 250.211 116.922 250.296L116.73 250.536C116.676 250.621 116.602 250.664 116.506 250.664C116.42 250.664 116.346 250.637 116.282 250.584C115.844 250.275 115.455 250.067 115.114 249.96C114.783 249.853 114.404 249.8 113.978 249.8C113.391 249.8 112.922 249.928 112.57 250.184C112.218 250.44 112.042 250.765 112.042 251.16C112.042 251.405 112.122 251.603 112.282 251.752C112.442 251.901 112.671 252.029 112.97 252.136C113.268 252.232 113.706 252.344 114.282 252.472C115.348 252.707 116.106 252.995 116.554 253.336C117.012 253.677 117.242 254.173 117.242 254.824C117.242 255.539 116.959 256.115 116.394 256.552C115.828 256.989 115.098 257.208 114.202 257.208ZM124.772 255.128C124.846 255.053 124.926 255.016 125.012 255.016C125.086 255.016 125.156 255.048 125.22 255.112L125.428 255.304C125.502 255.379 125.54 255.459 125.54 255.544C125.54 255.608 125.508 255.683 125.444 255.768C124.921 256.291 124.414 256.664 123.924 256.888C123.433 257.101 122.884 257.208 122.276 257.208C121.508 257.208 120.841 257.037 120.276 256.696C119.71 256.355 119.273 255.88 118.964 255.272C118.654 254.653 118.5 253.939 118.5 253.128C118.5 252.307 118.649 251.581 118.948 250.952C119.257 250.312 119.689 249.816 120.244 249.464C120.798 249.101 121.438 248.92 122.164 248.92C123.241 248.92 124.089 249.256 124.708 249.928C125.326 250.6 125.636 251.507 125.636 252.648V252.84C125.625 252.936 125.588 253.011 125.524 253.064C125.47 253.117 125.396 253.144 125.3 253.144H119.572C119.604 254.04 119.838 254.797 120.276 255.416C120.724 256.024 121.39 256.328 122.276 256.328C122.756 256.328 123.177 256.243 123.54 256.072C123.913 255.891 124.324 255.576 124.772 255.128ZM122.164 249.8C121.46 249.8 120.878 250.019 120.42 250.456C119.972 250.883 119.7 251.512 119.604 252.344H124.58C124.558 251.565 124.334 250.947 123.908 250.488C123.481 250.029 122.9 249.8 122.164 249.8Z" fill="#464646"/>
<path d="M280.796 255.803C283.685 254.575 285.032 251.238 283.804 248.349C282.576 245.46 279.239 244.113 276.349 245.341C273.46 246.569 272.114 249.906 273.341 252.795C274.569 255.684 277.907 257.031 280.796 255.803Z" stroke="#767676" stroke-width="1.5" stroke-linecap="round" stroke-linejoin="round"/>
<path d="M283 255L287 259" stroke="#767676" stroke-width="1.5" stroke-linecap="round" stroke-linejoin="round"/>
</g>
<rect x="48.5" y="228.5" width="247" height="47" rx="3.5" stroke="#C3CCD9"/>
<line x1="127.5" y1="240.5" x2="127.5" y2="263.5" stroke="#464646" stroke-linecap="round"/>
<defs>
<clipPath id="clip0_1806_18487">
<rect width="232" height="22" fill="white" transform="translate(56 153)"/>
</clipPath>
<clipPath id="clip1_1806_18487">
<rect width="232" height="22" fill="white" transform="translate(56 241)"/>
</clipPath>
</defs>
</svg>
