<svg width="344" height="320" viewBox="0 0 344 320" fill="none" xmlns="http://www.w3.org/2000/svg">
<rect width="344" height="320" fill="#F5F5F5"/>
<rect x="48.5" y="136.5" width="247" height="47" rx="3.5" fill="white"/>
<g clip-path="url(#clip0_1806_18547)">
<path d="M57.808 165C57.5947 165 57.488 164.893 57.488 164.68V153.96C57.488 153.747 57.5947 153.64 57.808 153.64H58.304C58.5173 153.64 58.624 153.747 58.624 153.96V164.68C58.624 164.893 58.5173 165 58.304 165H57.808ZM68.0209 156.92C68.9915 156.92 69.7489 157.155 70.2929 157.624C70.8369 158.083 71.1089 158.691 71.1089 159.448V164.68C71.1089 164.893 71.0022 165 70.7889 165H70.4689C70.2555 165 70.1489 164.893 70.1489 164.68V163.96C69.8822 164.387 69.5035 164.707 69.0129 164.92C68.5329 165.133 67.9942 165.24 67.3969 165.24C66.5649 165.24 65.8875 165.064 65.3649 164.712C64.8422 164.36 64.5809 163.816 64.5809 163.08C64.5809 162.493 64.7462 162.024 65.0769 161.672C65.4075 161.309 65.8395 161.037 66.3729 160.856C66.9062 160.664 67.5729 160.493 68.3729 160.344L70.1009 160.04V159.528C70.1009 158.984 69.9142 158.563 69.5409 158.264C69.1675 157.955 68.6769 157.8 68.0689 157.8C67.6102 157.8 67.1942 157.885 66.8209 158.056C66.4475 158.227 66.0475 158.52 65.6209 158.936C65.5462 159.011 65.4662 159.048 65.3809 159.048C65.3062 159.048 65.2369 159.016 65.1729 158.952L64.9649 158.76C64.8902 158.685 64.8529 158.605 64.8529 158.52C64.8529 158.424 64.8902 158.339 64.9649 158.264C65.4129 157.795 65.8822 157.453 66.3729 157.24C66.8742 157.027 67.4235 156.92 68.0209 156.92ZM67.4449 164.36C68.2129 164.36 68.8475 164.157 69.3489 163.752C69.8502 163.347 70.1009 162.829 70.1009 162.2V160.856L68.6129 161.144C67.9195 161.283 67.3702 161.416 66.9649 161.544C66.5595 161.672 66.2342 161.859 65.9889 162.104C65.7435 162.349 65.6209 162.669 65.6209 163.064C65.6209 163.469 65.7809 163.789 66.1009 164.024C66.4315 164.248 66.8795 164.36 67.4449 164.36ZM81.4656 156.92C82.319 156.92 82.9696 157.165 83.4176 157.656C83.8763 158.136 84.1056 158.755 84.1056 159.512V164.68C84.1056 164.893 83.999 165 83.7856 165H83.3696C83.1563 165 83.0496 164.893 83.0496 164.68V159.8C83.0496 159.16 82.9003 158.669 82.6016 158.328C82.3136 157.987 81.8816 157.816 81.3056 157.816C80.6976 157.816 80.2123 158.019 79.8496 158.424C79.487 158.829 79.3056 159.352 79.3056 159.992V164.68C79.3056 164.893 79.199 165 78.9856 165H78.5696C78.3563 165 78.2496 164.893 78.2496 164.68V159.8C78.2496 159.16 78.1003 158.669 77.8016 158.328C77.5136 157.987 77.0763 157.816 76.4896 157.816C75.9456 157.816 75.4923 157.987 75.1296 158.328C74.7776 158.669 74.5696 159.117 74.5056 159.672V164.68C74.5056 164.893 74.399 165 74.1856 165H73.7696C73.5563 165 73.4496 164.893 73.4496 164.68V157.432C73.4496 157.219 73.5563 157.112 73.7696 157.112H74.1216C74.335 157.112 74.4416 157.219 74.4416 157.432V158.088C74.9216 157.309 75.6843 156.92 76.7296 156.92C77.2736 156.92 77.7376 157.043 78.1216 157.288C78.5163 157.523 78.8096 157.843 79.0016 158.248C79.567 157.363 80.3883 156.92 81.4656 156.92ZM93.1615 156.92C94.1322 156.92 94.8895 157.155 95.4335 157.624C95.9775 158.083 96.2495 158.691 96.2495 159.448V164.68C96.2495 164.893 96.1428 165 95.9295 165H95.6095C95.3962 165 95.2895 164.893 95.2895 164.68V163.96C95.0228 164.387 94.6442 164.707 94.1535 164.92C93.6735 165.133 93.1348 165.24 92.5375 165.24C91.7055 165.24 91.0282 165.064 90.5055 164.712C89.9828 164.36 89.7215 163.816 89.7215 163.08C89.7215 162.493 89.8868 162.024 90.2175 161.672C90.5482 161.309 90.9802 161.037 91.5135 160.856C92.0468 160.664 92.7135 160.493 93.5135 160.344L95.2415 160.04V159.528C95.2415 158.984 95.0548 158.563 94.6815 158.264C94.3082 157.955 93.8175 157.8 93.2095 157.8C92.7508 157.8 92.3348 157.885 91.9615 158.056C91.5882 158.227 91.1882 158.52 90.7615 158.936C90.6868 159.011 90.6068 159.048 90.5215 159.048C90.4468 159.048 90.3775 159.016 90.3135 158.952L90.1055 158.76C90.0308 158.685 89.9935 158.605 89.9935 158.52C89.9935 158.424 90.0308 158.339 90.1055 158.264C90.5535 157.795 91.0228 157.453 91.5135 157.24C92.0148 157.027 92.5642 156.92 93.1615 156.92ZM92.5855 164.36C93.3535 164.36 93.9882 164.157 94.4895 163.752C94.9908 163.347 95.2415 162.829 95.2415 162.2V160.856L93.7535 161.144C93.0602 161.283 92.5108 161.416 92.1055 161.544C91.7002 161.672 91.3748 161.859 91.1295 162.104C90.8842 162.349 90.7615 162.669 90.7615 163.064C90.7615 163.469 90.9215 163.789 91.2415 164.024C91.5722 164.248 92.0202 164.36 92.5855 164.36ZM106.054 156.936C106.715 156.936 107.307 157.112 107.83 157.464C108.363 157.805 108.779 158.291 109.078 158.92C109.376 159.539 109.526 160.248 109.526 161.048C109.526 161.859 109.376 162.579 109.078 163.208C108.779 163.837 108.368 164.328 107.846 164.68C107.323 165.021 106.726 165.192 106.054 165.192C104.816 165.192 103.91 164.739 103.334 163.832V167.624C103.334 167.837 103.227 167.944 103.014 167.944H102.598C102.384 167.944 102.278 167.837 102.278 167.624V157.432C102.278 157.219 102.384 157.112 102.598 157.112H102.95C103.163 157.112 103.27 157.219 103.27 157.432V158.44C103.558 157.949 103.936 157.576 104.406 157.32C104.875 157.064 105.424 156.936 106.054 156.936ZM105.974 164.296C106.72 164.296 107.318 163.997 107.766 163.4C108.214 162.803 108.438 162.019 108.438 161.048C108.438 160.088 108.214 159.315 107.766 158.728C107.318 158.131 106.72 157.832 105.974 157.832C105.174 157.832 104.523 158.12 104.022 158.696C103.531 159.261 103.286 160.045 103.286 161.048C103.286 162.051 103.536 162.845 104.038 163.432C104.539 164.008 105.184 164.296 105.974 164.296ZM111.739 165C111.525 165 111.419 164.893 111.419 164.68V153.96C111.419 153.747 111.525 153.64 111.739 153.64H112.155C112.368 153.64 112.475 153.747 112.475 153.96V164.68C112.475 164.893 112.368 165 112.155 165H111.739ZM117.896 156.92C118.867 156.92 119.624 157.155 120.168 157.624C120.712 158.083 120.984 158.691 120.984 159.448V164.68C120.984 164.893 120.877 165 120.664 165H120.344C120.131 165 120.024 164.893 120.024 164.68V163.96C119.757 164.387 119.379 164.707 118.888 164.92C118.408 165.133 117.869 165.24 117.272 165.24C116.44 165.24 115.763 165.064 115.24 164.712C114.717 164.36 114.456 163.816 114.456 163.08C114.456 162.493 114.621 162.024 114.952 161.672C115.283 161.309 115.715 161.037 116.248 160.856C116.781 160.664 117.448 160.493 118.248 160.344L119.976 160.04V159.528C119.976 158.984 119.789 158.563 119.416 158.264C119.043 157.955 118.552 157.8 117.944 157.8C117.485 157.8 117.069 157.885 116.696 158.056C116.323 158.227 115.923 158.52 115.496 158.936C115.421 159.011 115.341 159.048 115.256 159.048C115.181 159.048 115.112 159.016 115.048 158.952L114.84 158.76C114.765 158.685 114.728 158.605 114.728 158.52C114.728 158.424 114.765 158.339 114.84 158.264C115.288 157.795 115.757 157.453 116.248 157.24C116.749 157.027 117.299 156.92 117.896 156.92ZM117.32 164.36C118.088 164.36 118.723 164.157 119.224 163.752C119.725 163.347 119.976 162.829 119.976 162.2V160.856L118.488 161.144C117.795 161.283 117.245 161.416 116.84 161.544C116.435 161.672 116.109 161.859 115.864 162.104C115.619 162.349 115.496 162.669 115.496 163.064C115.496 163.469 115.656 163.789 115.976 164.024C116.307 164.248 116.755 164.36 117.32 164.36ZM126.525 165.208C125.767 165.208 125.106 165.037 124.541 164.696C123.986 164.344 123.554 163.859 123.245 163.24C122.946 162.611 122.797 161.885 122.797 161.064C122.797 160.253 122.946 159.533 123.245 158.904C123.554 158.275 123.986 157.789 124.541 157.448C125.106 157.096 125.757 156.92 126.493 156.92C127.09 156.92 127.613 157.021 128.061 157.224C128.509 157.416 128.941 157.736 129.357 158.184C129.421 158.248 129.453 158.317 129.453 158.392C129.453 158.488 129.41 158.568 129.325 158.632L129.101 158.84C129.037 158.904 128.962 158.936 128.877 158.936C128.802 158.936 128.722 158.893 128.637 158.808C128.263 158.435 127.906 158.173 127.565 158.024C127.234 157.875 126.866 157.8 126.461 157.8C125.906 157.8 125.431 157.955 125.037 158.264C124.653 158.573 124.365 158.979 124.173 159.48C123.981 159.971 123.885 160.499 123.885 161.064C123.885 161.629 123.981 162.163 124.173 162.664C124.365 163.155 124.658 163.555 125.053 163.864C125.447 164.163 125.933 164.312 126.509 164.312C126.935 164.312 127.309 164.237 127.629 164.088C127.959 163.928 128.327 163.629 128.733 163.192C128.818 163.107 128.898 163.064 128.973 163.064C129.058 163.064 129.133 163.096 129.197 163.16L129.421 163.336C129.495 163.4 129.533 163.475 129.533 163.56C129.533 163.645 129.485 163.747 129.389 163.864C128.941 164.355 128.493 164.701 128.045 164.904C127.597 165.107 127.09 165.208 126.525 165.208ZM136.834 163.128C136.909 163.053 136.989 163.016 137.074 163.016C137.149 163.016 137.218 163.048 137.282 163.112L137.49 163.304C137.565 163.379 137.602 163.459 137.602 163.544C137.602 163.608 137.57 163.683 137.506 163.768C136.984 164.291 136.477 164.664 135.986 164.888C135.496 165.101 134.946 165.208 134.338 165.208C133.57 165.208 132.904 165.037 132.338 164.696C131.773 164.355 131.336 163.88 131.026 163.272C130.717 162.653 130.562 161.939 130.562 161.128C130.562 160.307 130.712 159.581 131.01 158.952C131.32 158.312 131.752 157.816 132.306 157.464C132.861 157.101 133.501 156.92 134.226 156.92C135.304 156.92 136.152 157.256 136.77 157.928C137.389 158.6 137.698 159.507 137.698 160.648V160.84C137.688 160.936 137.65 161.011 137.586 161.064C137.533 161.117 137.458 161.144 137.362 161.144H131.634C131.666 162.04 131.901 162.797 132.338 163.416C132.786 164.024 133.453 164.328 134.338 164.328C134.818 164.328 135.24 164.243 135.602 164.072C135.976 163.891 136.386 163.576 136.834 163.128ZM134.226 157.8C133.522 157.8 132.941 158.019 132.482 158.456C132.034 158.883 131.762 159.512 131.666 160.344H136.642C136.621 159.565 136.397 158.947 135.97 158.488C135.544 158.029 134.962 157.8 134.226 157.8ZM143.11 156.92C144.028 156.92 144.726 157.181 145.206 157.704C145.686 158.216 145.926 158.851 145.926 159.608V164.68C145.926 164.893 145.82 165 145.606 165H145.19C144.977 165 144.87 164.893 144.87 164.68V159.96C144.87 159.256 144.7 158.723 144.358 158.36C144.017 157.997 143.526 157.816 142.886 157.816C142.481 157.816 142.108 157.917 141.766 158.12C141.425 158.312 141.153 158.579 140.95 158.92C140.748 159.261 140.646 159.635 140.646 160.04V164.68C140.646 164.893 140.54 165 140.326 165H139.91C139.697 165 139.59 164.893 139.59 164.68V153.96C139.59 153.747 139.697 153.64 139.91 153.64H140.326C140.54 153.64 140.646 153.747 140.646 153.96V158.136C140.902 157.731 141.244 157.427 141.67 157.224C142.108 157.021 142.588 156.92 143.11 156.92ZM151.526 165.208C150.79 165.208 150.134 165.032 149.558 164.68C148.982 164.328 148.534 163.843 148.214 163.224C147.894 162.595 147.734 161.875 147.734 161.064C147.734 160.253 147.894 159.539 148.214 158.92C148.534 158.291 148.982 157.8 149.558 157.448C150.134 157.096 150.79 156.92 151.526 156.92C152.262 156.92 152.918 157.096 153.494 157.448C154.07 157.8 154.518 158.291 154.838 158.92C155.158 159.539 155.318 160.253 155.318 161.064C155.318 161.875 155.158 162.595 154.838 163.224C154.518 163.843 154.07 164.328 153.494 164.68C152.918 165.032 152.262 165.208 151.526 165.208ZM151.526 164.328C152.347 164.328 153.003 164.029 153.494 163.432C153.985 162.824 154.23 162.035 154.23 161.064C154.23 160.093 153.985 159.309 153.494 158.712C153.003 158.104 152.347 157.8 151.526 157.8C150.705 157.8 150.049 158.104 149.558 158.712C149.067 159.309 148.822 160.093 148.822 161.064C148.822 162.035 149.067 162.824 149.558 163.432C150.049 164.029 150.705 164.328 151.526 164.328ZM157.489 165C157.275 165 157.169 164.893 157.169 164.68V153.96C157.169 153.747 157.275 153.64 157.489 153.64H157.905C158.118 153.64 158.225 153.747 158.225 153.96V164.68C158.225 164.893 158.118 165 157.905 165H157.489ZM166.302 153.96C166.302 153.747 166.409 153.64 166.622 153.64H167.038C167.251 153.64 167.358 153.747 167.358 153.96V164.68C167.358 164.893 167.251 165 167.038 165H166.702C166.489 165 166.382 164.893 166.382 164.68V163.64C166.094 164.141 165.715 164.525 165.246 164.792C164.777 165.059 164.222 165.192 163.582 165.192C162.91 165.192 162.313 165.021 161.79 164.68C161.267 164.328 160.857 163.843 160.558 163.224C160.259 162.595 160.11 161.875 160.11 161.064C160.11 160.253 160.259 159.539 160.558 158.92C160.867 158.291 161.289 157.805 161.822 157.464C162.355 157.112 162.953 156.936 163.614 156.936C164.83 156.936 165.726 157.389 166.302 158.296V153.96ZM163.662 164.296C164.462 164.296 165.107 164.013 165.598 163.448C166.099 162.872 166.35 162.077 166.35 161.064C166.35 160.061 166.099 159.272 165.598 158.696C165.107 158.12 164.462 157.832 163.662 157.832C162.926 157.832 162.329 158.131 161.87 158.728C161.422 159.325 161.198 160.104 161.198 161.064C161.198 162.035 161.422 162.819 161.87 163.416C162.318 164.003 162.915 164.296 163.662 164.296ZM175.475 163.128C175.55 163.053 175.63 163.016 175.715 163.016C175.79 163.016 175.859 163.048 175.923 163.112L176.131 163.304C176.206 163.379 176.243 163.459 176.243 163.544C176.243 163.608 176.211 163.683 176.147 163.768C175.624 164.291 175.118 164.664 174.627 164.888C174.136 165.101 173.587 165.208 172.979 165.208C172.211 165.208 171.544 165.037 170.979 164.696C170.414 164.355 169.976 163.88 169.667 163.272C169.358 162.653 169.203 161.939 169.203 161.128C169.203 160.307 169.352 159.581 169.651 158.952C169.96 158.312 170.392 157.816 170.947 157.464C171.502 157.101 172.142 156.92 172.867 156.92C173.944 156.92 174.792 157.256 175.411 157.928C176.03 158.6 176.339 159.507 176.339 160.648V160.84C176.328 160.936 176.291 161.011 176.227 161.064C176.174 161.117 176.099 161.144 176.003 161.144H170.275C170.307 162.04 170.542 162.797 170.979 163.416C171.427 164.024 172.094 164.328 172.979 164.328C173.459 164.328 173.88 164.243 174.243 164.072C174.616 163.891 175.027 163.576 175.475 163.128ZM172.867 157.8C172.163 157.8 171.582 158.019 171.123 158.456C170.675 158.883 170.403 159.512 170.307 160.344H175.283C175.262 159.565 175.038 158.947 174.611 158.488C174.184 158.029 173.603 157.8 172.867 157.8ZM181.175 157.048C181.442 157.048 181.756 157.091 182.119 157.176C182.311 157.24 182.386 157.373 182.343 157.576L182.279 157.832C182.226 158.035 182.092 158.109 181.879 158.056C181.623 157.992 181.388 157.96 181.175 157.96C180.631 157.96 180.178 158.195 179.815 158.664C179.463 159.133 179.287 159.784 179.287 160.616V164.68C179.287 164.893 179.18 165 178.967 165H178.551C178.338 165 178.231 164.893 178.231 164.68V157.432C178.231 157.219 178.338 157.112 178.551 157.112H178.903C179.116 157.112 179.223 157.219 179.223 157.432V158.312C179.404 157.917 179.66 157.608 179.991 157.384C180.332 157.16 180.727 157.048 181.175 157.048ZM191.017 164.12C191.049 164.109 191.092 164.104 191.145 164.104C191.209 164.104 191.268 164.125 191.321 164.168C191.375 164.211 191.407 164.269 191.417 164.344L191.465 164.568C191.476 164.589 191.481 164.627 191.481 164.68C191.481 164.829 191.401 164.92 191.241 164.952C190.857 165.069 190.447 165.128 190.009 165.128C189.316 165.128 188.82 164.973 188.521 164.664C188.233 164.344 188.089 163.885 188.089 163.288V157.912H186.905C186.692 157.912 186.585 157.805 186.585 157.592V157.432C186.585 157.219 186.692 157.112 186.905 157.112H188.089V154.68C188.089 154.467 188.196 154.36 188.409 154.36H188.825C189.039 154.36 189.145 154.467 189.145 154.68V157.112H191.065C191.279 157.112 191.385 157.219 191.385 157.432V157.592C191.385 157.805 191.279 157.912 191.065 157.912H189.145V163.16C189.145 163.555 189.22 163.832 189.369 163.992C189.519 164.152 189.775 164.232 190.137 164.232C190.393 164.232 190.687 164.195 191.017 164.12ZM198.444 163.128C198.518 163.053 198.598 163.016 198.684 163.016C198.758 163.016 198.828 163.048 198.892 163.112L199.1 163.304C199.174 163.379 199.212 163.459 199.212 163.544C199.212 163.608 199.18 163.683 199.116 163.768C198.593 164.291 198.086 164.664 197.596 164.888C197.105 165.101 196.556 165.208 195.948 165.208C195.18 165.208 194.513 165.037 193.948 164.696C193.382 164.355 192.945 163.88 192.636 163.272C192.326 162.653 192.172 161.939 192.172 161.128C192.172 160.307 192.321 159.581 192.62 158.952C192.929 158.312 193.361 157.816 193.916 157.464C194.47 157.101 195.11 156.92 195.836 156.92C196.913 156.92 197.761 157.256 198.38 157.928C198.998 158.6 199.308 159.507 199.308 160.648V160.84C199.297 160.936 199.26 161.011 199.196 161.064C199.142 161.117 199.068 161.144 198.972 161.144H193.244C193.276 162.04 193.51 162.797 193.948 163.416C194.396 164.024 195.062 164.328 195.948 164.328C196.428 164.328 196.849 164.243 197.212 164.072C197.585 163.891 197.996 163.576 198.444 163.128ZM195.836 157.8C195.132 157.8 194.55 158.019 194.092 158.456C193.644 158.883 193.372 159.512 193.276 160.344H198.252C198.23 159.565 198.006 158.947 197.58 158.488C197.153 158.029 196.572 157.8 195.836 157.8ZM206.789 164.616C206.831 164.691 206.853 164.755 206.853 164.808C206.853 164.936 206.767 165 206.597 165H206.117C205.957 165 205.829 164.931 205.733 164.792L203.557 161.592L201.397 164.792C201.301 164.931 201.173 165 201.013 165H200.565C200.479 165 200.41 164.984 200.357 164.952C200.314 164.909 200.293 164.861 200.293 164.808C200.293 164.733 200.314 164.669 200.357 164.616L202.949 160.888L200.565 157.496C200.522 157.443 200.501 157.384 200.501 157.32C200.501 157.181 200.591 157.112 200.773 157.112H201.237C201.397 157.112 201.525 157.181 201.621 157.32L203.573 160.184L205.509 157.32C205.605 157.181 205.733 157.112 205.893 157.112H206.325C206.41 157.112 206.474 157.133 206.517 157.176C206.57 157.208 206.597 157.251 206.597 157.304C206.597 157.379 206.575 157.443 206.533 157.496L204.197 160.84L206.789 164.616ZM212.095 164.12C212.127 164.109 212.17 164.104 212.223 164.104C212.287 164.104 212.346 164.125 212.399 164.168C212.453 164.211 212.485 164.269 212.495 164.344L212.543 164.568C212.554 164.589 212.559 164.627 212.559 164.68C212.559 164.829 212.479 164.92 212.319 164.952C211.935 165.069 211.525 165.128 211.087 165.128C210.394 165.128 209.898 164.973 209.599 164.664C209.311 164.344 209.167 163.885 209.167 163.288V157.912H207.983C207.77 157.912 207.663 157.805 207.663 157.592V157.432C207.663 157.219 207.77 157.112 207.983 157.112H209.167V154.68C209.167 154.467 209.274 154.36 209.487 154.36H209.903C210.117 154.36 210.223 154.467 210.223 154.68V157.112H212.143C212.357 157.112 212.463 157.219 212.463 157.432V157.592C212.463 157.805 212.357 157.912 212.143 157.912H210.223V163.16C210.223 163.555 210.298 163.832 210.447 163.992C210.597 164.152 210.853 164.232 211.215 164.232C211.471 164.232 211.765 164.195 212.095 164.12ZM214.819 165.112C214.595 165.112 214.403 165.032 214.243 164.872C214.083 164.712 214.003 164.52 214.003 164.296C214.003 164.072 214.083 163.88 214.243 163.72C214.403 163.56 214.595 163.48 214.819 163.48C215.043 163.48 215.235 163.56 215.395 163.72C215.555 163.88 215.635 164.072 215.635 164.296C215.635 164.52 215.555 164.712 215.395 164.872C215.235 165.032 215.043 165.112 214.819 165.112ZM218.054 165.112C217.83 165.112 217.638 165.032 217.478 164.872C217.318 164.712 217.238 164.52 217.238 164.296C217.238 164.072 217.318 163.88 217.478 163.72C217.638 163.56 217.83 163.48 218.054 163.48C218.278 163.48 218.47 163.56 218.63 163.72C218.79 163.88 218.87 164.072 218.87 164.296C218.87 164.52 218.79 164.712 218.63 164.872C218.47 165.032 218.278 165.112 218.054 165.112Z" fill="#C3CCD9"/>
<path d="M280.796 163.803C283.685 162.575 285.032 159.238 283.804 156.349C282.576 153.46 279.239 152.113 276.349 153.341C273.46 154.569 272.114 157.906 273.341 160.795C274.569 163.684 277.907 165.031 280.796 163.803Z" stroke="#767676" stroke-width="1.5" stroke-linecap="round" stroke-linejoin="round"/>
<path d="M283 163L287 167" stroke="#767676" stroke-width="1.5" stroke-linecap="round" stroke-linejoin="round"/>
</g>
<rect x="48.5" y="136.5" width="247" height="47" rx="3.5" stroke="#C3CCD9"/>
<path d="M62.24 229.672C62.288 229.544 62.38 229.48 62.516 229.48H62.888C62.952 229.48 63.004 229.496 63.044 229.528C63.084 229.56 63.104 229.604 63.104 229.66L63.08 229.756L60.32 237.808C60.272 237.936 60.18 238 60.044 238H59.372C59.236 238 59.144 237.936 59.096 237.808L56.336 229.756L56.312 229.66C56.312 229.604 56.332 229.56 56.372 229.528C56.412 229.496 56.464 229.48 56.528 229.48H56.9C57.036 229.48 57.128 229.544 57.176 229.672L58.568 233.764C59.104 235.316 59.488 236.504 59.72 237.328C59.944 236.52 60.324 235.336 60.86 233.776L62.24 229.672ZM66.0821 231.94C66.8101 231.94 67.3781 232.116 67.7861 232.468C68.1941 232.812 68.3981 233.268 68.3981 233.836V237.76C68.3981 237.92 68.3181 238 68.1581 238H67.9181C67.7581 238 67.6781 237.92 67.6781 237.76V237.22C67.4781 237.54 67.1941 237.78 66.8261 237.94C66.4661 238.1 66.0621 238.18 65.6141 238.18C64.9901 238.18 64.4821 238.048 64.0901 237.784C63.6981 237.52 63.5021 237.112 63.5021 236.56C63.5021 236.12 63.6261 235.768 63.8741 235.504C64.1221 235.232 64.4461 235.028 64.8461 234.892C65.2461 234.748 65.7461 234.62 66.3461 234.508L67.6421 234.28V233.896C67.6421 233.488 67.5021 233.172 67.2221 232.948C66.9421 232.716 66.5741 232.6 66.1181 232.6C65.7741 232.6 65.4621 232.664 65.1821 232.792C64.9021 232.92 64.6021 233.14 64.2821 233.452C64.2261 233.508 64.1661 233.536 64.1021 233.536C64.0461 233.536 63.9941 233.512 63.9461 233.464L63.7901 233.32C63.7341 233.264 63.7061 233.204 63.7061 233.14C63.7061 233.068 63.7341 233.004 63.7901 232.948C64.1261 232.596 64.4781 232.34 64.8461 232.18C65.2221 232.02 65.6341 231.94 66.0821 231.94ZM65.6501 237.52C66.2261 237.52 66.7021 237.368 67.0781 237.064C67.4541 236.76 67.6421 236.372 67.6421 235.9V234.892L66.5261 235.108C66.0061 235.212 65.5941 235.312 65.2901 235.408C64.9861 235.504 64.7421 235.644 64.5581 235.828C64.3741 236.012 64.2821 236.252 64.2821 236.548C64.2821 236.852 64.4021 237.092 64.6421 237.268C64.8901 237.436 65.2261 237.52 65.6501 237.52ZM70.4056 238C70.2456 238 70.1656 237.92 70.1656 237.76V229.72C70.1656 229.56 70.2456 229.48 70.4056 229.48H70.7176C70.8776 229.48 70.9576 229.56 70.9576 229.72V237.76C70.9576 237.92 70.8776 238 70.7176 238H70.4056ZM76.5835 232.324C76.5835 232.164 76.6635 232.084 76.8235 232.084H77.1355C77.2955 232.084 77.3755 232.164 77.3755 232.324V237.76C77.3755 237.92 77.2955 238 77.1355 238H76.8835C76.7235 238 76.6435 237.92 76.6435 237.76V237.22C76.4675 237.532 76.2155 237.768 75.8875 237.928C75.5675 238.08 75.2155 238.156 74.8315 238.156C74.1115 238.156 73.5795 237.976 73.2355 237.616C72.8915 237.248 72.7195 236.776 72.7195 236.2V232.324C72.7195 232.164 72.7995 232.084 72.9595 232.084H73.2715C73.4315 232.084 73.5115 232.164 73.5115 232.324V236.032C73.5115 236.504 73.6275 236.864 73.8595 237.112C74.0995 237.352 74.4395 237.472 74.8795 237.472C75.3755 237.472 75.7835 237.32 76.1035 237.016C76.4235 236.712 76.5835 236.28 76.5835 235.72V232.324ZM83.4616 236.596C83.5176 236.54 83.5776 236.512 83.6416 236.512C83.6976 236.512 83.7496 236.536 83.7976 236.584L83.9536 236.728C84.0096 236.784 84.0376 236.844 84.0376 236.908C84.0376 236.956 84.0136 237.012 83.9656 237.076C83.5736 237.468 83.1936 237.748 82.8256 237.916C82.4576 238.076 82.0456 238.156 81.5896 238.156C81.0136 238.156 80.5136 238.028 80.0896 237.772C79.6656 237.516 79.3376 237.16 79.1056 236.704C78.8736 236.24 78.7576 235.704 78.7576 235.096C78.7576 234.48 78.8696 233.936 79.0936 233.464C79.3256 232.984 79.6496 232.612 80.0656 232.348C80.4816 232.076 80.9616 231.94 81.5056 231.94C82.3136 231.94 82.9496 232.192 83.4136 232.696C83.8776 233.2 84.1096 233.88 84.1096 234.736V234.88C84.1016 234.952 84.0736 235.008 84.0256 235.048C83.9856 235.088 83.9296 235.108 83.8576 235.108H79.5616C79.5856 235.78 79.7616 236.348 80.0896 236.812C80.4256 237.268 80.9256 237.496 81.5896 237.496C81.9496 237.496 82.2656 237.432 82.5376 237.304C82.8176 237.168 83.1256 236.932 83.4616 236.596ZM81.5056 232.6C80.9776 232.6 80.5416 232.764 80.1976 233.092C79.8616 233.412 79.6576 233.884 79.5856 234.508H83.3176C83.3016 233.924 83.1336 233.46 82.8136 233.116C82.4936 232.772 82.0576 232.6 81.5056 232.6ZM90.9583 239.872C90.9103 239.92 90.8543 239.944 90.7903 239.944C90.7263 239.944 90.6703 239.912 90.6223 239.848C89.8943 239.032 89.3343 238.184 88.9423 237.304C88.5583 236.424 88.3663 235.428 88.3663 234.316C88.3663 233.204 88.5583 232.208 88.9423 231.328C89.3343 230.448 89.8943 229.6 90.6223 228.784C90.6703 228.72 90.7263 228.688 90.7903 228.688C90.8543 228.688 90.9103 228.712 90.9583 228.76L91.1143 228.904C91.1783 228.952 91.2103 229.012 91.2103 229.084C91.2103 229.14 91.1863 229.192 91.1383 229.24C90.4823 230.04 89.9903 230.84 89.6623 231.64C89.3423 232.44 89.1823 233.332 89.1823 234.316C89.1823 235.292 89.3463 236.184 89.6743 236.992C90.0023 237.792 90.4903 238.592 91.1383 239.392C91.1863 239.44 91.2103 239.492 91.2103 239.548C91.2103 239.62 91.1783 239.68 91.1143 239.728L90.9583 239.872ZM94.6329 238.156C94.0809 238.156 93.5889 238.024 93.1569 237.76C92.7249 237.496 92.3889 237.132 92.1489 236.668C91.9089 236.196 91.7889 235.656 91.7889 235.048C91.7889 234.44 91.9089 233.904 92.1489 233.44C92.3889 232.968 92.7249 232.6 93.1569 232.336C93.5889 232.072 94.0809 231.94 94.6329 231.94C95.1849 231.94 95.6769 232.072 96.1089 232.336C96.5409 232.6 96.8769 232.968 97.1169 233.44C97.3569 233.904 97.4769 234.44 97.4769 235.048C97.4769 235.656 97.3569 236.196 97.1169 236.668C96.8769 237.132 96.5409 237.496 96.1089 237.76C95.6769 238.024 95.1849 238.156 94.6329 238.156ZM94.6329 237.496C95.2489 237.496 95.7409 237.272 96.1089 236.824C96.4769 236.368 96.6609 235.776 96.6609 235.048C96.6609 234.32 96.4769 233.732 96.1089 233.284C95.7409 232.828 95.2489 232.6 94.6329 232.6C94.0169 232.6 93.5249 232.828 93.1569 233.284C92.7889 233.732 92.6049 234.32 92.6049 235.048C92.6049 235.776 92.7889 236.368 93.1569 236.824C93.5249 237.272 94.0169 237.496 94.6329 237.496ZM101.061 232.036C101.261 232.036 101.497 232.068 101.769 232.132C101.913 232.18 101.969 232.28 101.937 232.432L101.889 232.624C101.849 232.776 101.749 232.832 101.589 232.792C101.397 232.744 101.221 232.72 101.061 232.72C100.653 232.72 100.313 232.896 100.041 233.248C99.7768 233.6 99.6448 234.088 99.6448 234.712V237.76C99.6448 237.92 99.5648 238 99.4048 238H99.0928C98.9328 238 98.8528 237.92 98.8528 237.76V232.324C98.8528 232.164 98.9328 232.084 99.0928 232.084H99.3568C99.5168 232.084 99.5968 232.164 99.5968 232.324V232.984C99.7328 232.688 99.9248 232.456 100.173 232.288C100.429 232.12 100.725 232.036 101.061 232.036ZM108.611 231.952C109.107 231.952 109.551 232.084 109.943 232.348C110.343 232.604 110.655 232.968 110.879 233.44C111.103 233.904 111.215 234.436 111.215 235.036C111.215 235.644 111.103 236.184 110.879 236.656C110.655 237.128 110.347 237.496 109.955 237.76C109.563 238.016 109.115 238.144 108.611 238.144C107.683 238.144 107.003 237.804 106.571 237.124V239.968C106.571 240.128 106.491 240.208 106.331 240.208H106.019C105.859 240.208 105.779 240.128 105.779 239.968V232.324C105.779 232.164 105.859 232.084 106.019 232.084H106.283C106.443 232.084 106.523 232.164 106.523 232.324V233.08C106.739 232.712 107.023 232.432 107.375 232.24C107.727 232.048 108.139 231.952 108.611 231.952ZM108.551 237.472C109.111 237.472 109.559 237.248 109.895 236.8C110.231 236.352 110.399 235.764 110.399 235.036C110.399 234.316 110.231 233.736 109.895 233.296C109.559 232.848 109.111 232.624 108.551 232.624C107.951 232.624 107.463 232.84 107.087 233.272C106.719 233.696 106.535 234.284 106.535 235.036C106.535 235.788 106.723 236.384 107.099 236.824C107.475 237.256 107.959 237.472 108.551 237.472ZM112.874 238C112.714 238 112.634 237.92 112.634 237.76V229.72C112.634 229.56 112.714 229.48 112.874 229.48H113.186C113.346 229.48 113.426 229.56 113.426 229.72V237.76C113.426 237.92 113.346 238 113.186 238H112.874ZM117.492 231.94C118.22 231.94 118.788 232.116 119.196 232.468C119.604 232.812 119.808 233.268 119.808 233.836V237.76C119.808 237.92 119.728 238 119.568 238H119.328C119.168 238 119.088 237.92 119.088 237.76V237.22C118.888 237.54 118.604 237.78 118.236 237.94C117.876 238.1 117.472 238.18 117.024 238.18C116.4 238.18 115.892 238.048 115.5 237.784C115.108 237.52 114.912 237.112 114.912 236.56C114.912 236.12 115.036 235.768 115.284 235.504C115.532 235.232 115.856 235.028 116.256 234.892C116.656 234.748 117.156 234.62 117.756 234.508L119.052 234.28V233.896C119.052 233.488 118.912 233.172 118.632 232.948C118.352 232.716 117.984 232.6 117.528 232.6C117.184 232.6 116.872 232.664 116.592 232.792C116.312 232.92 116.012 233.14 115.692 233.452C115.636 233.508 115.576 233.536 115.512 233.536C115.456 233.536 115.404 233.512 115.356 233.464L115.2 233.32C115.144 233.264 115.116 233.204 115.116 233.14C115.116 233.068 115.144 233.004 115.2 232.948C115.536 232.596 115.888 232.34 116.256 232.18C116.632 232.02 117.044 231.94 117.492 231.94ZM117.06 237.52C117.636 237.52 118.112 237.368 118.488 237.064C118.864 236.76 119.052 236.372 119.052 235.9V234.892L117.936 235.108C117.416 235.212 117.004 235.312 116.7 235.408C116.396 235.504 116.152 235.644 115.968 235.828C115.784 236.012 115.692 236.252 115.692 236.548C115.692 236.852 115.812 237.092 116.052 237.268C116.3 237.436 116.636 237.52 117.06 237.52ZM123.964 238.156C123.396 238.156 122.9 238.028 122.476 237.772C122.06 237.508 121.736 237.144 121.504 236.68C121.28 236.208 121.168 235.664 121.168 235.048C121.168 234.44 121.28 233.9 121.504 233.428C121.736 232.956 122.06 232.592 122.476 232.336C122.9 232.072 123.388 231.94 123.94 231.94C124.388 231.94 124.78 232.016 125.116 232.168C125.452 232.312 125.776 232.552 126.088 232.888C126.136 232.936 126.16 232.988 126.16 233.044C126.16 233.116 126.128 233.176 126.064 233.224L125.896 233.38C125.848 233.428 125.792 233.452 125.728 233.452C125.672 233.452 125.612 233.42 125.548 233.356C125.268 233.076 125 232.88 124.744 232.768C124.496 232.656 124.22 232.6 123.916 232.6C123.5 232.6 123.144 232.716 122.848 232.948C122.56 233.18 122.344 233.484 122.2 233.86C122.056 234.228 121.984 234.624 121.984 235.048C121.984 235.472 122.056 235.872 122.2 236.248C122.344 236.616 122.564 236.916 122.86 237.148C123.156 237.372 123.52 237.484 123.952 237.484C124.272 237.484 124.552 237.428 124.792 237.316C125.04 237.196 125.316 236.972 125.62 236.644C125.684 236.58 125.744 236.548 125.8 236.548C125.864 236.548 125.92 236.572 125.968 236.62L126.136 236.752C126.192 236.8 126.22 236.856 126.22 236.92C126.22 236.984 126.184 237.06 126.112 237.148C125.776 237.516 125.44 237.776 125.104 237.928C124.768 238.08 124.388 238.156 123.964 238.156ZM131.696 236.596C131.752 236.54 131.812 236.512 131.876 236.512C131.932 236.512 131.984 236.536 132.032 236.584L132.188 236.728C132.244 236.784 132.272 236.844 132.272 236.908C132.272 236.956 132.248 237.012 132.2 237.076C131.808 237.468 131.428 237.748 131.06 237.916C130.692 238.076 130.28 238.156 129.824 238.156C129.248 238.156 128.748 238.028 128.324 237.772C127.9 237.516 127.572 237.16 127.34 236.704C127.108 236.24 126.992 235.704 126.992 235.096C126.992 234.48 127.104 233.936 127.328 233.464C127.56 232.984 127.884 232.612 128.3 232.348C128.716 232.076 129.196 231.94 129.74 231.94C130.548 231.94 131.184 232.192 131.648 232.696C132.112 233.2 132.344 233.88 132.344 234.736V234.88C132.336 234.952 132.308 235.008 132.26 235.048C132.22 235.088 132.164 235.108 132.092 235.108H127.796C127.82 235.78 127.996 236.348 128.324 236.812C128.66 237.268 129.16 237.496 129.824 237.496C130.184 237.496 130.5 237.432 130.772 237.304C131.052 237.168 131.36 236.932 131.696 236.596ZM129.74 232.6C129.212 232.6 128.776 232.764 128.432 233.092C128.096 233.412 127.892 233.884 127.82 234.508H131.552C131.536 233.924 131.368 233.46 131.048 233.116C130.728 232.772 130.292 232.6 129.74 232.6ZM136.403 231.94C137.091 231.94 137.615 232.136 137.975 232.528C138.335 232.912 138.515 233.388 138.515 233.956V237.76C138.515 237.92 138.435 238 138.275 238H137.963C137.803 238 137.723 237.92 137.723 237.76V234.22C137.723 233.692 137.595 233.292 137.339 233.02C137.083 232.748 136.715 232.612 136.235 232.612C135.931 232.612 135.651 232.688 135.395 232.84C135.139 232.984 134.935 233.184 134.783 233.44C134.631 233.696 134.555 233.976 134.555 234.28V237.76C134.555 237.92 134.475 238 134.315 238H134.003C133.843 238 133.763 237.92 133.763 237.76V229.72C133.763 229.56 133.843 229.48 134.003 229.48H134.315C134.475 229.48 134.555 229.56 134.555 229.72V232.852C134.747 232.548 135.003 232.32 135.323 232.168C135.651 232.016 136.011 231.94 136.403 231.94ZM142.715 238.156C142.163 238.156 141.671 238.024 141.239 237.76C140.807 237.496 140.471 237.132 140.231 236.668C139.991 236.196 139.871 235.656 139.871 235.048C139.871 234.44 139.991 233.904 140.231 233.44C140.471 232.968 140.807 232.6 141.239 232.336C141.671 232.072 142.163 231.94 142.715 231.94C143.267 231.94 143.759 232.072 144.191 232.336C144.623 232.6 144.959 232.968 145.199 233.44C145.439 233.904 145.559 234.44 145.559 235.048C145.559 235.656 145.439 236.196 145.199 236.668C144.959 237.132 144.623 237.496 144.191 237.76C143.759 238.024 143.267 238.156 142.715 238.156ZM142.715 237.496C143.331 237.496 143.823 237.272 144.191 236.824C144.559 236.368 144.743 235.776 144.743 235.048C144.743 234.32 144.559 233.732 144.191 233.284C143.823 232.828 143.331 232.6 142.715 232.6C142.099 232.6 141.607 232.828 141.239 233.284C140.871 233.732 140.687 234.32 140.687 235.048C140.687 235.776 140.871 236.368 141.239 236.824C141.607 237.272 142.099 237.496 142.715 237.496ZM147.187 238C147.027 238 146.947 237.92 146.947 237.76V229.72C146.947 229.56 147.027 229.48 147.187 229.48H147.499C147.659 229.48 147.739 229.56 147.739 229.72V237.76C147.739 237.92 147.659 238 147.499 238H147.187ZM153.797 229.72C153.797 229.56 153.877 229.48 154.037 229.48H154.349C154.509 229.48 154.589 229.56 154.589 229.72V237.76C154.589 237.92 154.509 238 154.349 238H154.097C153.937 238 153.857 237.92 153.857 237.76V236.98C153.641 237.356 153.357 237.644 153.005 237.844C152.653 238.044 152.237 238.144 151.757 238.144C151.253 238.144 150.805 238.016 150.413 237.76C150.021 237.496 149.713 237.132 149.489 236.668C149.265 236.196 149.153 235.656 149.153 235.048C149.153 234.44 149.265 233.904 149.489 233.44C149.721 232.968 150.037 232.604 150.437 232.348C150.837 232.084 151.285 231.952 151.781 231.952C152.693 231.952 153.365 232.292 153.797 232.972V229.72ZM151.817 237.472C152.417 237.472 152.901 237.26 153.269 236.836C153.645 236.404 153.833 235.808 153.833 235.048C153.833 234.296 153.645 233.704 153.269 233.272C152.901 232.84 152.417 232.624 151.817 232.624C151.265 232.624 150.817 232.848 150.473 233.296C150.137 233.744 149.969 234.328 149.969 235.048C149.969 235.776 150.137 236.364 150.473 236.812C150.809 237.252 151.257 237.472 151.817 237.472ZM160.676 236.596C160.732 236.54 160.792 236.512 160.856 236.512C160.912 236.512 160.964 236.536 161.012 236.584L161.168 236.728C161.224 236.784 161.252 236.844 161.252 236.908C161.252 236.956 161.228 237.012 161.18 237.076C160.788 237.468 160.408 237.748 160.04 237.916C159.672 238.076 159.26 238.156 158.804 238.156C158.228 238.156 157.728 238.028 157.304 237.772C156.88 237.516 156.552 237.16 156.32 236.704C156.088 236.24 155.972 235.704 155.972 235.096C155.972 234.48 156.084 233.936 156.308 233.464C156.54 232.984 156.864 232.612 157.28 232.348C157.696 232.076 158.176 231.94 158.72 231.94C159.528 231.94 160.164 232.192 160.628 232.696C161.092 233.2 161.324 233.88 161.324 234.736V234.88C161.316 234.952 161.288 235.008 161.24 235.048C161.2 235.088 161.144 235.108 161.072 235.108H156.776C156.8 235.78 156.976 236.348 157.304 236.812C157.64 237.268 158.14 237.496 158.804 237.496C159.164 237.496 159.48 237.432 159.752 237.304C160.032 237.168 160.34 236.932 160.676 236.596ZM158.72 232.6C158.192 232.6 157.756 232.764 157.412 233.092C157.076 233.412 156.872 233.884 156.8 234.508H160.532C160.516 233.924 160.348 233.46 160.028 233.116C159.708 232.772 159.272 232.6 158.72 232.6ZM164.951 232.036C165.151 232.036 165.387 232.068 165.659 232.132C165.803 232.18 165.859 232.28 165.827 232.432L165.779 232.624C165.739 232.776 165.639 232.832 165.479 232.792C165.287 232.744 165.111 232.72 164.951 232.72C164.543 232.72 164.203 232.896 163.931 233.248C163.667 233.6 163.535 234.088 163.535 234.712V237.76C163.535 237.92 163.455 238 163.295 238H162.983C162.823 238 162.743 237.92 162.743 237.76V232.324C162.743 232.164 162.823 232.084 162.983 232.084H163.247C163.407 232.084 163.487 232.164 163.487 232.324V232.984C163.623 232.688 163.815 232.456 164.063 232.288C164.319 232.12 164.615 232.036 164.951 232.036ZM166.808 239.848C166.76 239.912 166.704 239.944 166.64 239.944C166.576 239.944 166.52 239.92 166.472 239.872L166.316 239.728C166.252 239.68 166.22 239.62 166.22 239.548C166.22 239.492 166.244 239.44 166.292 239.392C166.948 238.592 167.44 237.792 167.768 236.992C168.096 236.192 168.26 235.3 168.26 234.316C168.26 233.34 168.096 232.448 167.768 231.64C167.44 230.832 166.948 230.032 166.292 229.24C166.252 229.192 166.232 229.14 166.232 229.084C166.232 229.012 166.26 228.952 166.316 228.904L166.472 228.76C166.52 228.712 166.576 228.688 166.64 228.688C166.704 228.688 166.76 228.72 166.808 228.784C167.536 229.6 168.092 230.448 168.476 231.328C168.868 232.208 169.064 233.204 169.064 234.316C169.064 235.428 168.868 236.424 168.476 237.304C168.092 238.184 167.536 239.032 166.808 239.848Z" fill="#464646"/>
<path d="M232.272 108C232.112 108 232.032 107.92 232.032 107.76V99.72C232.032 99.56 232.112 99.48 232.272 99.48H237.312C237.472 99.48 237.552 99.56 237.552 99.72V99.948C237.552 100.108 237.472 100.188 237.312 100.188H232.884V103.428H236.94C237.1 103.428 237.18 103.508 237.18 103.668V103.896C237.18 104.056 237.1 104.136 236.94 104.136H232.884V107.76C232.884 107.92 232.804 108 232.644 108H232.272ZM239.327 100.584C239.167 100.584 239.031 100.528 238.919 100.416C238.815 100.304 238.763 100.168 238.763 100.008C238.763 99.848 238.815 99.716 238.919 99.612C239.031 99.508 239.167 99.456 239.327 99.456C239.495 99.456 239.631 99.508 239.735 99.612C239.847 99.716 239.903 99.848 239.903 100.008C239.903 100.168 239.847 100.304 239.735 100.416C239.631 100.528 239.495 100.584 239.327 100.584ZM239.171 108C239.011 108 238.931 107.92 238.931 107.76V102.324C238.931 102.164 239.011 102.084 239.171 102.084H239.483C239.643 102.084 239.723 102.164 239.723 102.324V107.76C239.723 107.92 239.643 108 239.483 108H239.171ZM245.794 106.596C245.85 106.54 245.91 106.512 245.974 106.512C246.03 106.512 246.082 106.536 246.13 106.584L246.286 106.728C246.342 106.784 246.37 106.844 246.37 106.908C246.37 106.956 246.346 107.012 246.298 107.076C245.906 107.468 245.526 107.748 245.158 107.916C244.79 108.076 244.378 108.156 243.922 108.156C243.346 108.156 242.846 108.028 242.422 107.772C241.998 107.516 241.67 107.16 241.438 106.704C241.206 106.24 241.09 105.704 241.09 105.096C241.09 104.48 241.202 103.936 241.426 103.464C241.658 102.984 241.982 102.612 242.398 102.348C242.814 102.076 243.294 101.94 243.838 101.94C244.646 101.94 245.282 102.192 245.746 102.696C246.21 103.2 246.442 103.88 246.442 104.736V104.88C246.434 104.952 246.406 105.008 246.358 105.048C246.318 105.088 246.262 105.108 246.19 105.108H241.894C241.918 105.78 242.094 106.348 242.422 106.812C242.758 107.268 243.258 107.496 243.922 107.496C244.282 107.496 244.598 107.432 244.87 107.304C245.15 107.168 245.458 106.932 245.794 106.596ZM243.838 102.6C243.31 102.6 242.874 102.764 242.53 103.092C242.194 103.412 241.99 103.884 241.918 104.508H245.65C245.634 103.924 245.466 103.46 245.146 103.116C244.826 102.772 244.39 102.6 243.838 102.6ZM248.113 108C247.953 108 247.873 107.92 247.873 107.76V99.72C247.873 99.56 247.953 99.48 248.113 99.48H248.425C248.585 99.48 248.665 99.56 248.665 99.72V107.76C248.665 107.92 248.585 108 248.425 108H248.113ZM254.723 99.72C254.723 99.56 254.803 99.48 254.963 99.48H255.275C255.435 99.48 255.515 99.56 255.515 99.72V107.76C255.515 107.92 255.435 108 255.275 108H255.023C254.863 108 254.783 107.92 254.783 107.76V106.98C254.567 107.356 254.283 107.644 253.931 107.844C253.579 108.044 253.163 108.144 252.683 108.144C252.179 108.144 251.731 108.016 251.339 107.76C250.947 107.496 250.639 107.132 250.415 106.668C250.191 106.196 250.079 105.656 250.079 105.048C250.079 104.44 250.191 103.904 250.415 103.44C250.647 102.968 250.963 102.604 251.363 102.348C251.763 102.084 252.211 101.952 252.707 101.952C253.619 101.952 254.291 102.292 254.723 102.972V99.72ZM252.743 107.472C253.343 107.472 253.827 107.26 254.195 106.836C254.571 106.404 254.759 105.808 254.759 105.048C254.759 104.296 254.571 103.704 254.195 103.272C253.827 102.84 253.343 102.624 252.743 102.624C252.191 102.624 251.743 102.848 251.399 103.296C251.063 103.744 250.895 104.328 250.895 105.048C250.895 105.776 251.063 106.364 251.399 106.812C251.735 107.252 252.183 107.472 252.743 107.472Z" fill="#464646"/>
<path d="M243 154C243 154.552 243.448 155 244 155C244.552 155 245 154.552 245 154L243 154ZM243 116L243 154L245 154L245 116L243 116Z" fill="#06BEFB"/>
<circle cx="244" cy="157" r="3" fill="#06BEFB"/>
<path d="M278 142C278 142.552 278.448 143 279 143C279.552 143 280 142.552 280 142L278 142ZM278 84L278 142L280 142L280 84L278 84Z" fill="#06BEFB"/>
<circle cx="279" cy="145" r="3" fill="#06BEFB"/>
<path d="M254.006 76.18C253.374 76.18 252.802 76.084 252.29 75.892C251.786 75.692 251.254 75.368 250.694 74.92C250.622 74.856 250.586 74.796 250.586 74.74C250.586 74.692 250.61 74.64 250.658 74.584L250.85 74.356C250.89 74.292 250.95 74.26 251.03 74.26C251.094 74.26 251.146 74.28 251.186 74.32C251.754 74.76 252.25 75.06 252.674 75.22C253.098 75.372 253.542 75.448 254.006 75.448C254.654 75.448 255.182 75.288 255.59 74.968C255.998 74.64 256.202 74.196 256.202 73.636C256.202 73.276 256.106 72.988 255.914 72.772C255.722 72.556 255.458 72.388 255.122 72.268C254.794 72.148 254.326 72.02 253.718 71.884C252.99 71.724 252.422 71.552 252.014 71.368C251.614 71.184 251.322 70.952 251.138 70.672C250.954 70.392 250.862 70.032 250.862 69.592C250.862 69.128 250.994 68.724 251.258 68.38C251.53 68.028 251.89 67.76 252.338 67.576C252.786 67.392 253.27 67.3 253.79 67.3C254.358 67.3 254.874 67.384 255.338 67.552C255.81 67.72 256.274 67.988 256.73 68.356C256.802 68.404 256.838 68.46 256.838 68.524C256.838 68.572 256.814 68.628 256.766 68.692L256.586 68.908C256.546 68.972 256.486 69.004 256.406 69.004C256.342 69.004 256.286 68.984 256.238 68.944C255.83 68.608 255.434 68.372 255.05 68.236C254.674 68.1 254.258 68.032 253.802 68.032C253.386 68.032 253.018 68.1 252.698 68.236C252.378 68.364 252.126 68.544 251.942 68.776C251.766 69.008 251.678 69.272 251.678 69.568C251.678 69.888 251.766 70.144 251.942 70.336C252.126 70.528 252.378 70.68 252.698 70.792C253.026 70.904 253.502 71.032 254.126 71.176C254.846 71.344 255.414 71.532 255.83 71.74C256.254 71.948 256.562 72.204 256.754 72.508C256.946 72.804 257.042 73.172 257.042 73.612C257.042 74.124 256.91 74.576 256.646 74.968C256.39 75.352 256.03 75.652 255.566 75.868C255.102 76.076 254.582 76.18 254.006 76.18ZM262.827 74.596C262.883 74.54 262.943 74.512 263.007 74.512C263.063 74.512 263.115 74.536 263.163 74.584L263.319 74.728C263.375 74.784 263.403 74.844 263.403 74.908C263.403 74.956 263.379 75.012 263.331 75.076C262.939 75.468 262.559 75.748 262.191 75.916C261.823 76.076 261.411 76.156 260.955 76.156C260.379 76.156 259.879 76.028 259.455 75.772C259.031 75.516 258.703 75.16 258.471 74.704C258.239 74.24 258.123 73.704 258.123 73.096C258.123 72.48 258.235 71.936 258.459 71.464C258.691 70.984 259.015 70.612 259.431 70.348C259.847 70.076 260.327 69.94 260.871 69.94C261.679 69.94 262.315 70.192 262.779 70.696C263.243 71.2 263.475 71.88 263.475 72.736V72.88C263.467 72.952 263.439 73.008 263.391 73.048C263.351 73.088 263.295 73.108 263.223 73.108H258.927C258.951 73.78 259.127 74.348 259.455 74.812C259.791 75.268 260.291 75.496 260.955 75.496C261.315 75.496 261.631 75.432 261.903 75.304C262.183 75.168 262.491 74.932 262.827 74.596ZM260.871 70.6C260.343 70.6 259.907 70.764 259.563 71.092C259.227 71.412 259.023 71.884 258.951 72.508H262.683C262.667 71.924 262.499 71.46 262.179 71.116C261.859 70.772 261.423 70.6 260.871 70.6ZM267.068 69.94C267.796 69.94 268.364 70.116 268.772 70.468C269.18 70.812 269.384 71.268 269.384 71.836V75.76C269.384 75.92 269.304 76 269.144 76H268.904C268.744 76 268.664 75.92 268.664 75.76V75.22C268.464 75.54 268.18 75.78 267.812 75.94C267.452 76.1 267.048 76.18 266.6 76.18C265.976 76.18 265.468 76.048 265.076 75.784C264.684 75.52 264.488 75.112 264.488 74.56C264.488 74.12 264.612 73.768 264.86 73.504C265.108 73.232 265.432 73.028 265.832 72.892C266.232 72.748 266.732 72.62 267.332 72.508L268.628 72.28V71.896C268.628 71.488 268.488 71.172 268.208 70.948C267.928 70.716 267.56 70.6 267.104 70.6C266.76 70.6 266.448 70.664 266.168 70.792C265.888 70.92 265.588 71.14 265.268 71.452C265.212 71.508 265.152 71.536 265.088 71.536C265.032 71.536 264.98 71.512 264.932 71.464L264.776 71.32C264.72 71.264 264.692 71.204 264.692 71.14C264.692 71.068 264.72 71.004 264.776 70.948C265.112 70.596 265.464 70.34 265.832 70.18C266.208 70.02 266.62 69.94 267.068 69.94ZM266.636 75.52C267.212 75.52 267.688 75.368 268.064 75.064C268.44 74.76 268.628 74.372 268.628 73.9V72.892L267.512 73.108C266.992 73.212 266.58 73.312 266.276 73.408C265.972 73.504 265.728 73.644 265.544 73.828C265.36 74.012 265.268 74.252 265.268 74.548C265.268 74.852 265.388 75.092 265.628 75.268C265.876 75.436 266.212 75.52 266.636 75.52ZM273.348 70.036C273.548 70.036 273.784 70.068 274.056 70.132C274.2 70.18 274.256 70.28 274.224 70.432L274.176 70.624C274.136 70.776 274.036 70.832 273.876 70.792C273.684 70.744 273.508 70.72 273.348 70.72C272.94 70.72 272.6 70.896 272.328 71.248C272.064 71.6 271.932 72.088 271.932 72.712V75.76C271.932 75.92 271.852 76 271.692 76H271.38C271.22 76 271.14 75.92 271.14 75.76V70.324C271.14 70.164 271.22 70.084 271.38 70.084H271.644C271.804 70.084 271.884 70.164 271.884 70.324V70.984C272.02 70.688 272.212 70.456 272.46 70.288C272.716 70.12 273.012 70.036 273.348 70.036ZM277.372 76.156C276.804 76.156 276.308 76.028 275.884 75.772C275.468 75.508 275.144 75.144 274.912 74.68C274.688 74.208 274.576 73.664 274.576 73.048C274.576 72.44 274.688 71.9 274.912 71.428C275.144 70.956 275.468 70.592 275.884 70.336C276.308 70.072 276.796 69.94 277.348 69.94C277.796 69.94 278.188 70.016 278.524 70.168C278.86 70.312 279.184 70.552 279.496 70.888C279.544 70.936 279.568 70.988 279.568 71.044C279.568 71.116 279.536 71.176 279.472 71.224L279.304 71.38C279.256 71.428 279.2 71.452 279.136 71.452C279.08 71.452 279.02 71.42 278.956 71.356C278.676 71.076 278.408 70.88 278.152 70.768C277.904 70.656 277.628 70.6 277.324 70.6C276.908 70.6 276.552 70.716 276.256 70.948C275.968 71.18 275.752 71.484 275.608 71.86C275.464 72.228 275.392 72.624 275.392 73.048C275.392 73.472 275.464 73.872 275.608 74.248C275.752 74.616 275.972 74.916 276.268 75.148C276.564 75.372 276.928 75.484 277.36 75.484C277.68 75.484 277.96 75.428 278.2 75.316C278.448 75.196 278.724 74.972 279.028 74.644C279.092 74.58 279.152 74.548 279.208 74.548C279.272 74.548 279.328 74.572 279.376 74.62L279.544 74.752C279.6 74.8 279.628 74.856 279.628 74.92C279.628 74.984 279.592 75.06 279.52 75.148C279.184 75.516 278.848 75.776 278.512 75.928C278.176 76.08 277.796 76.156 277.372 76.156ZM283.553 69.94C284.241 69.94 284.765 70.136 285.125 70.528C285.485 70.912 285.665 71.388 285.665 71.956V75.76C285.665 75.92 285.585 76 285.425 76H285.113C284.953 76 284.873 75.92 284.873 75.76V72.22C284.873 71.692 284.745 71.292 284.489 71.02C284.233 70.748 283.865 70.612 283.385 70.612C283.081 70.612 282.801 70.688 282.545 70.84C282.289 70.984 282.085 71.184 281.933 71.44C281.781 71.696 281.705 71.976 281.705 72.28V75.76C281.705 75.92 281.625 76 281.465 76H281.153C280.993 76 280.913 75.92 280.913 75.76V67.72C280.913 67.56 280.993 67.48 281.153 67.48H281.465C281.625 67.48 281.705 67.56 281.705 67.72V70.852C281.897 70.548 282.153 70.32 282.473 70.168C282.801 70.016 283.161 69.94 283.553 69.94ZM290.579 68.584C290.419 68.584 290.283 68.528 290.171 68.416C290.067 68.304 290.015 68.168 290.015 68.008C290.015 67.848 290.067 67.716 290.171 67.612C290.283 67.508 290.419 67.456 290.579 67.456C290.747 67.456 290.883 67.508 290.987 67.612C291.099 67.716 291.155 67.848 291.155 68.008C291.155 68.168 291.099 68.304 290.987 68.416C290.883 68.528 290.747 68.584 290.579 68.584ZM290.423 76C290.263 76 290.183 75.92 290.183 75.76V70.324C290.183 70.164 290.263 70.084 290.423 70.084H290.735C290.895 70.084 290.975 70.164 290.975 70.324V75.76C290.975 75.92 290.895 76 290.735 76H290.423ZM295.138 76.156C294.57 76.156 294.074 76.028 293.65 75.772C293.234 75.508 292.91 75.144 292.678 74.68C292.454 74.208 292.342 73.664 292.342 73.048C292.342 72.44 292.454 71.9 292.678 71.428C292.91 70.956 293.234 70.592 293.65 70.336C294.074 70.072 294.562 69.94 295.114 69.94C295.562 69.94 295.954 70.016 296.29 70.168C296.626 70.312 296.95 70.552 297.262 70.888C297.31 70.936 297.334 70.988 297.334 71.044C297.334 71.116 297.302 71.176 297.238 71.224L297.07 71.38C297.022 71.428 296.966 71.452 296.902 71.452C296.846 71.452 296.786 71.42 296.722 71.356C296.442 71.076 296.174 70.88 295.918 70.768C295.67 70.656 295.394 70.6 295.09 70.6C294.674 70.6 294.318 70.716 294.022 70.948C293.734 71.18 293.518 71.484 293.374 71.86C293.23 72.228 293.158 72.624 293.158 73.048C293.158 73.472 293.23 73.872 293.374 74.248C293.518 74.616 293.738 74.916 294.034 75.148C294.33 75.372 294.694 75.484 295.126 75.484C295.446 75.484 295.726 75.428 295.966 75.316C296.214 75.196 296.49 74.972 296.794 74.644C296.858 74.58 296.918 74.548 296.974 74.548C297.038 74.548 297.094 74.572 297.142 74.62L297.31 74.752C297.366 74.8 297.394 74.856 297.394 74.92C297.394 74.984 297.358 75.06 297.286 75.148C296.95 75.516 296.614 75.776 296.278 75.928C295.942 76.08 295.562 76.156 295.138 76.156ZM301.01 76.156C300.458 76.156 299.966 76.024 299.534 75.76C299.102 75.496 298.766 75.132 298.526 74.668C298.286 74.196 298.166 73.656 298.166 73.048C298.166 72.44 298.286 71.904 298.526 71.44C298.766 70.968 299.102 70.6 299.534 70.336C299.966 70.072 300.458 69.94 301.01 69.94C301.562 69.94 302.054 70.072 302.486 70.336C302.918 70.6 303.254 70.968 303.494 71.44C303.734 71.904 303.854 72.44 303.854 73.048C303.854 73.656 303.734 74.196 303.494 74.668C303.254 75.132 302.918 75.496 302.486 75.76C302.054 76.024 301.562 76.156 301.01 76.156ZM301.01 75.496C301.626 75.496 302.118 75.272 302.486 74.824C302.854 74.368 303.038 73.776 303.038 73.048C303.038 72.32 302.854 71.732 302.486 71.284C302.118 70.828 301.626 70.6 301.01 70.6C300.394 70.6 299.902 70.828 299.534 71.284C299.166 71.732 298.982 72.32 298.982 73.048C298.982 73.776 299.166 74.368 299.534 74.824C299.902 75.272 300.394 75.496 301.01 75.496ZM307.87 69.94C308.566 69.94 309.09 70.132 309.442 70.516C309.802 70.9 309.982 71.38 309.982 71.956V75.76C309.982 75.92 309.902 76 309.742 76H309.43C309.27 76 309.19 75.92 309.19 75.76V72.22C309.19 71.692 309.062 71.292 308.806 71.02C308.55 70.748 308.182 70.612 307.702 70.612C307.398 70.612 307.118 70.688 306.862 70.84C306.606 70.984 306.402 71.184 306.25 71.44C306.098 71.696 306.022 71.976 306.022 72.28V75.76C306.022 75.92 305.942 76 305.782 76H305.47C305.31 76 305.23 75.92 305.23 75.76V70.324C305.23 70.164 305.31 70.084 305.47 70.084H305.734C305.894 70.084 305.974 70.164 305.974 70.324V70.9C306.174 70.58 306.438 70.34 306.766 70.18C307.094 70.02 307.462 69.94 307.87 69.94Z" fill="#464646"/>
<path d="M60 177C60 176.448 59.5523 176 59 176C58.4477 176 58 176.448 58 177L60 177ZM60 222L60 177L58 177L58 222L60 222Z" fill="#06BEFB"/>
<circle cx="59" cy="174" r="3" transform="rotate(180 59 174)" fill="#06BEFB"/>
<defs>
<clipPath id="clip0_1806_18547">
<rect width="232" height="22" fill="white" transform="translate(56 149)"/>
</clipPath>
</defs>
</svg>
