<svg width="344" height="170" viewBox="0 0 344 170" fill="none" xmlns="http://www.w3.org/2000/svg">
<rect width="344" height="170" fill="#F5F5F5"/>
<path d="M75.348 54.224C74.3587 54.224 73.5 54 72.772 53.552C72.0533 53.104 71.498 52.488 71.106 51.704C70.7233 50.9107 70.532 50.0147 70.532 49.016C70.532 48.0173 70.7233 47.1307 71.106 46.356C71.4887 45.572 72.044 44.956 72.772 44.508C73.5 44.06 74.3727 43.836 75.39 43.836C76.006 43.836 76.566 43.9247 77.07 44.102C77.574 44.27 78.0827 44.5547 78.596 44.956C78.736 45.068 78.806 45.194 78.806 45.334C78.806 45.4273 78.7593 45.5347 78.666 45.656L78.358 46.02C78.246 46.1507 78.1293 46.216 78.008 46.216C77.9147 46.216 77.798 46.1693 77.658 46.076C77.238 45.7493 76.8507 45.5253 76.496 45.404C76.1507 45.2827 75.7773 45.222 75.376 45.222C74.7227 45.222 74.1533 45.3807 73.668 45.698C73.1827 46.0153 72.8093 46.4633 72.548 47.042C72.2867 47.6113 72.156 48.2693 72.156 49.016C72.156 49.7627 72.2867 50.4253 72.548 51.004C72.8093 51.5827 73.178 52.0353 73.654 52.362C74.13 52.6793 74.6853 52.838 75.32 52.838C75.796 52.838 76.2207 52.754 76.594 52.586C76.9673 52.418 77.3733 52.1473 77.812 51.774C77.9333 51.6713 78.05 51.62 78.162 51.62C78.2833 51.62 78.4 51.6853 78.512 51.816L78.82 52.166C78.9133 52.2687 78.96 52.376 78.96 52.488C78.96 52.6467 78.8853 52.7867 78.736 52.908C78.1947 53.3747 77.658 53.7107 77.126 53.916C76.6033 54.1213 76.0107 54.224 75.348 54.224ZM83.3956 54.21C82.7143 54.21 82.1076 54.056 81.5756 53.748C81.0529 53.44 80.6423 53.0107 80.3436 52.46C80.0449 51.9 79.8956 51.2607 79.8956 50.542C79.8956 49.8233 80.0449 49.1887 80.3436 48.638C80.6423 48.0873 81.0529 47.658 81.5756 47.35C82.1076 47.042 82.7143 46.888 83.3956 46.888C84.0676 46.888 84.6696 47.042 85.2016 47.35C85.7336 47.658 86.1489 48.092 86.4476 48.652C86.7463 49.2027 86.8956 49.8327 86.8956 50.542C86.8956 51.2607 86.7463 51.9 86.4476 52.46C86.1489 53.0107 85.7336 53.44 85.2016 53.748C84.6696 54.056 84.0676 54.21 83.3956 54.21ZM83.3956 52.964C83.9929 52.964 84.4736 52.7447 84.8376 52.306C85.2016 51.858 85.3836 51.27 85.3836 50.542C85.3836 49.8233 85.2016 49.2447 84.8376 48.806C84.4736 48.3673 83.9929 48.148 83.3956 48.148C82.7983 48.148 82.3176 48.3673 81.9536 48.806C81.5896 49.2447 81.4076 49.8233 81.4076 50.542C81.4076 51.27 81.5896 51.858 81.9536 52.306C82.3176 52.7447 82.7983 52.964 83.3956 52.964ZM92.5856 47.588C92.5856 47.4293 92.6276 47.308 92.7116 47.224C92.8049 47.14 92.9263 47.098 93.0756 47.098H93.5796C93.7383 47.098 93.8596 47.14 93.9436 47.224C94.0276 47.308 94.0696 47.4293 94.0696 47.588V53.51C94.0696 53.6593 94.0276 53.7807 93.9436 53.874C93.8596 53.958 93.7383 54 93.5796 54H93.2016C93.0523 54 92.9309 53.958 92.8376 53.874C92.7536 53.7807 92.7116 53.6593 92.7116 53.51V53.188C92.5249 53.5053 92.2543 53.7573 91.8996 53.944C91.5449 54.1213 91.1249 54.21 90.6396 54.21C89.8183 54.21 89.2069 54.0093 88.8056 53.608C88.4043 53.1973 88.2036 52.656 88.2036 51.984V47.588C88.2036 47.4293 88.2456 47.308 88.3296 47.224C88.4229 47.14 88.5443 47.098 88.6936 47.098H89.1976C89.3563 47.098 89.4776 47.14 89.5616 47.224C89.6456 47.308 89.6876 47.4293 89.6876 47.588V51.592C89.6876 52.0213 89.7949 52.3527 90.0096 52.586C90.2336 52.81 90.5556 52.922 90.9756 52.922C91.4609 52.922 91.8483 52.782 92.1376 52.502C92.4363 52.222 92.5856 51.816 92.5856 51.284V47.588ZM99.2918 46.888C100.085 46.888 100.692 47.112 101.112 47.56C101.541 47.9987 101.756 48.568 101.756 49.268V53.51C101.756 53.6593 101.714 53.7807 101.63 53.874C101.546 53.958 101.424 54 101.266 54H100.762C100.612 54 100.491 53.958 100.398 53.874C100.314 53.7807 100.272 53.6593 100.272 53.51V49.73C100.272 49.226 100.146 48.8387 99.8938 48.568C99.6512 48.2973 99.3012 48.162 98.8438 48.162C98.3958 48.162 98.0178 48.316 97.7098 48.624C97.4112 48.932 97.2618 49.3193 97.2618 49.786V53.51C97.2618 53.6593 97.2198 53.7807 97.1358 53.874C97.0518 53.958 96.9305 54 96.7718 54H96.2678C96.1185 54 95.9972 53.958 95.9038 53.874C95.8198 53.7807 95.7778 53.6593 95.7778 53.51V47.588C95.7778 47.4293 95.8198 47.308 95.9038 47.224C95.9972 47.14 96.1185 47.098 96.2678 47.098H96.6738C96.8325 47.098 96.9538 47.14 97.0378 47.224C97.1218 47.308 97.1638 47.4293 97.1638 47.588V47.952C97.3878 47.6067 97.6818 47.3453 98.0458 47.168C98.4098 46.9813 98.8252 46.888 99.2918 46.888ZM106.643 52.824C106.671 52.8147 106.713 52.81 106.769 52.81C107.002 52.81 107.142 52.9453 107.189 53.216L107.231 53.44C107.24 53.468 107.245 53.5147 107.245 53.58C107.245 53.8133 107.114 53.9627 106.853 54.028C106.48 54.112 106.139 54.154 105.831 54.154C105.168 54.154 104.688 54 104.389 53.692C104.1 53.384 103.955 52.922 103.955 52.306V48.232H103.185C103.036 48.232 102.914 48.19 102.821 48.106C102.737 48.0127 102.695 47.8913 102.695 47.742V47.588C102.695 47.4293 102.737 47.308 102.821 47.224C102.914 47.14 103.036 47.098 103.185 47.098H103.955V45.362C103.955 45.2033 103.997 45.082 104.081 44.998C104.174 44.914 104.296 44.872 104.445 44.872H104.949C105.108 44.872 105.229 44.914 105.313 44.998C105.397 45.082 105.439 45.2033 105.439 45.362V47.098H106.699C106.858 47.098 106.979 47.14 107.063 47.224C107.147 47.308 107.189 47.4293 107.189 47.588V47.742C107.189 47.8913 107.147 48.0127 107.063 48.106C106.979 48.19 106.858 48.232 106.699 48.232H105.439V52.124C105.439 52.3947 105.495 52.586 105.607 52.698C105.728 52.81 105.92 52.866 106.181 52.866C106.293 52.866 106.447 52.852 106.643 52.824ZM111.519 47.028C111.724 47.028 111.934 47.0513 112.149 47.098C112.401 47.154 112.527 47.3033 112.527 47.546C112.527 47.6113 112.522 47.658 112.513 47.686L112.443 48.022C112.387 48.2833 112.247 48.414 112.023 48.414L111.897 48.4C111.729 48.372 111.579 48.358 111.449 48.358C110.982 48.358 110.604 48.5447 110.315 48.918C110.035 49.282 109.895 49.7907 109.895 50.444V53.51C109.895 53.6593 109.853 53.7807 109.769 53.874C109.685 53.958 109.563 54 109.405 54H108.901C108.751 54 108.63 53.958 108.537 53.874C108.453 53.7807 108.411 53.6593 108.411 53.51V47.588C108.411 47.4293 108.453 47.308 108.537 47.224C108.63 47.14 108.751 47.098 108.901 47.098H109.307C109.465 47.098 109.587 47.14 109.671 47.224C109.755 47.308 109.797 47.4293 109.797 47.588V48.134C109.965 47.7887 110.193 47.518 110.483 47.322C110.772 47.126 111.117 47.028 111.519 47.028ZM118.107 47.504C118.191 47.2333 118.373 47.098 118.653 47.098H119.157C119.297 47.098 119.405 47.1307 119.479 47.196C119.554 47.2613 119.591 47.35 119.591 47.462C119.591 47.518 119.577 47.5833 119.549 47.658L117.043 54.854C116.819 55.5073 116.539 55.9693 116.203 56.24C115.877 56.52 115.41 56.66 114.803 56.66C114.523 56.66 114.285 56.6413 114.089 56.604C113.959 56.5947 113.861 56.548 113.795 56.464C113.73 56.3893 113.697 56.296 113.697 56.184C113.697 56.1187 113.702 56.0673 113.711 56.03L113.753 55.848C113.819 55.5867 113.959 55.456 114.173 55.456C114.257 55.456 114.337 55.4607 114.411 55.47C114.486 55.4793 114.561 55.484 114.635 55.484C114.906 55.484 115.13 55.414 115.307 55.274C115.494 55.134 115.648 54.8773 115.769 54.504L115.811 54.392L113.417 47.658C113.389 47.5833 113.375 47.5133 113.375 47.448C113.375 47.336 113.413 47.252 113.487 47.196C113.571 47.1307 113.683 47.098 113.823 47.098H114.355C114.645 47.098 114.831 47.2333 114.915 47.504L115.461 49.142C115.872 50.318 116.222 51.396 116.511 52.376L116.917 51.13C116.983 50.934 117.081 50.626 117.211 50.206C117.342 49.786 117.459 49.4267 117.561 49.128L118.107 47.504Z" fill="#D91F0A"/>
<path d="M131.552 55.872C131.504 55.92 131.448 55.944 131.384 55.944C131.32 55.944 131.264 55.912 131.216 55.848C130.488 55.032 129.928 54.184 129.536 53.304C129.152 52.424 128.96 51.428 128.96 50.316C128.96 49.204 129.152 48.208 129.536 47.328C129.928 46.448 130.488 45.6 131.216 44.784C131.264 44.72 131.32 44.688 131.384 44.688C131.448 44.688 131.504 44.712 131.552 44.76L131.708 44.904C131.772 44.952 131.804 45.012 131.804 45.084C131.804 45.14 131.78 45.192 131.732 45.24C131.076 46.04 130.584 46.84 130.256 47.64C129.936 48.44 129.776 49.332 129.776 50.316C129.776 51.292 129.94 52.184 130.268 52.992C130.596 53.792 131.084 54.592 131.732 55.392C131.78 55.44 131.804 55.492 131.804 55.548C131.804 55.62 131.772 55.68 131.708 55.728L131.552 55.872ZM135.227 54.156C134.675 54.156 134.183 54.024 133.751 53.76C133.319 53.496 132.983 53.132 132.743 52.668C132.503 52.196 132.383 51.656 132.383 51.048C132.383 50.44 132.503 49.904 132.743 49.44C132.983 48.968 133.319 48.6 133.751 48.336C134.183 48.072 134.675 47.94 135.227 47.94C135.779 47.94 136.271 48.072 136.703 48.336C137.135 48.6 137.471 48.968 137.711 49.44C137.951 49.904 138.071 50.44 138.071 51.048C138.071 51.656 137.951 52.196 137.711 52.668C137.471 53.132 137.135 53.496 136.703 53.76C136.271 54.024 135.779 54.156 135.227 54.156ZM135.227 53.496C135.843 53.496 136.335 53.272 136.703 52.824C137.071 52.368 137.255 51.776 137.255 51.048C137.255 50.32 137.071 49.732 136.703 49.284C136.335 48.828 135.843 48.6 135.227 48.6C134.611 48.6 134.119 48.828 133.751 49.284C133.383 49.732 133.199 50.32 133.199 51.048C133.199 51.776 133.383 52.368 133.751 52.824C134.119 53.272 134.611 53.496 135.227 53.496ZM142.279 47.952C142.775 47.952 143.219 48.084 143.611 48.348C144.011 48.604 144.323 48.968 144.547 49.44C144.771 49.904 144.883 50.436 144.883 51.036C144.883 51.644 144.771 52.184 144.547 52.656C144.323 53.128 144.015 53.496 143.623 53.76C143.231 54.016 142.783 54.144 142.279 54.144C141.351 54.144 140.671 53.804 140.239 53.124V55.968C140.239 56.128 140.159 56.208 139.999 56.208H139.687C139.527 56.208 139.447 56.128 139.447 55.968V48.324C139.447 48.164 139.527 48.084 139.687 48.084H139.951C140.111 48.084 140.191 48.164 140.191 48.324V49.08C140.407 48.712 140.691 48.432 141.043 48.24C141.395 48.048 141.807 47.952 142.279 47.952ZM142.219 53.472C142.779 53.472 143.227 53.248 143.563 52.8C143.899 52.352 144.067 51.764 144.067 51.036C144.067 50.316 143.899 49.736 143.563 49.296C143.227 48.848 142.779 48.624 142.219 48.624C141.619 48.624 141.131 48.84 140.755 49.272C140.387 49.696 140.203 50.284 140.203 51.036C140.203 51.788 140.391 52.384 140.767 52.824C141.143 53.256 141.627 53.472 142.219 53.472ZM148.779 53.34C148.803 53.332 148.835 53.328 148.875 53.328C148.923 53.328 148.967 53.344 149.007 53.376C149.047 53.408 149.071 53.452 149.079 53.508L149.115 53.676C149.123 53.692 149.127 53.72 149.127 53.76C149.127 53.872 149.067 53.94 148.947 53.964C148.659 54.052 148.351 54.096 148.023 54.096C147.503 54.096 147.131 53.98 146.907 53.748C146.691 53.508 146.583 53.164 146.583 52.716V48.684H145.695C145.535 48.684 145.455 48.604 145.455 48.444V48.324C145.455 48.164 145.535 48.084 145.695 48.084H146.583V46.26C146.583 46.1 146.663 46.02 146.823 46.02H147.135C147.295 46.02 147.375 46.1 147.375 46.26V48.084H148.815C148.975 48.084 149.055 48.164 149.055 48.324V48.444C149.055 48.604 148.975 48.684 148.815 48.684H147.375V52.62C147.375 52.916 147.431 53.124 147.543 53.244C147.655 53.364 147.847 53.424 148.119 53.424C148.311 53.424 148.531 53.396 148.779 53.34ZM150.659 46.584C150.499 46.584 150.363 46.528 150.251 46.416C150.147 46.304 150.095 46.168 150.095 46.008C150.095 45.848 150.147 45.716 150.251 45.612C150.363 45.508 150.499 45.456 150.659 45.456C150.827 45.456 150.963 45.508 151.067 45.612C151.179 45.716 151.235 45.848 151.235 46.008C151.235 46.168 151.179 46.304 151.067 46.416C150.963 46.528 150.827 46.584 150.659 46.584ZM150.503 54C150.343 54 150.263 53.92 150.263 53.76V48.324C150.263 48.164 150.343 48.084 150.503 48.084H150.815C150.975 48.084 151.055 48.164 151.055 48.324V53.76C151.055 53.92 150.975 54 150.815 54H150.503ZM155.266 54.156C154.714 54.156 154.222 54.024 153.79 53.76C153.358 53.496 153.022 53.132 152.782 52.668C152.542 52.196 152.422 51.656 152.422 51.048C152.422 50.44 152.542 49.904 152.782 49.44C153.022 48.968 153.358 48.6 153.79 48.336C154.222 48.072 154.714 47.94 155.266 47.94C155.818 47.94 156.31 48.072 156.742 48.336C157.174 48.6 157.51 48.968 157.75 49.44C157.99 49.904 158.11 50.44 158.11 51.048C158.11 51.656 157.99 52.196 157.75 52.668C157.51 53.132 157.174 53.496 156.742 53.76C156.31 54.024 155.818 54.156 155.266 54.156ZM155.266 53.496C155.882 53.496 156.374 53.272 156.742 52.824C157.11 52.368 157.294 51.776 157.294 51.048C157.294 50.32 157.11 49.732 156.742 49.284C156.374 48.828 155.882 48.6 155.266 48.6C154.65 48.6 154.158 48.828 153.79 49.284C153.422 49.732 153.238 50.32 153.238 51.048C153.238 51.776 153.422 52.368 153.79 52.824C154.158 53.272 154.65 53.496 155.266 53.496ZM162.126 47.94C162.822 47.94 163.346 48.132 163.698 48.516C164.058 48.9 164.238 49.38 164.238 49.956V53.76C164.238 53.92 164.158 54 163.998 54H163.686C163.526 54 163.446 53.92 163.446 53.76V50.22C163.446 49.692 163.318 49.292 163.062 49.02C162.806 48.748 162.438 48.612 161.958 48.612C161.654 48.612 161.374 48.688 161.118 48.84C160.862 48.984 160.658 49.184 160.506 49.44C160.354 49.696 160.278 49.976 160.278 50.28V53.76C160.278 53.92 160.198 54 160.038 54H159.726C159.566 54 159.486 53.92 159.486 53.76V48.324C159.486 48.164 159.566 48.084 159.726 48.084H159.99C160.15 48.084 160.23 48.164 160.23 48.324V48.9C160.43 48.58 160.694 48.34 161.022 48.18C161.35 48.02 161.718 47.94 162.126 47.94ZM168.27 47.94C168.998 47.94 169.566 48.116 169.974 48.468C170.382 48.812 170.586 49.268 170.586 49.836V53.76C170.586 53.92 170.506 54 170.346 54H170.106C169.946 54 169.866 53.92 169.866 53.76V53.22C169.666 53.54 169.382 53.78 169.014 53.94C168.654 54.1 168.25 54.18 167.802 54.18C167.178 54.18 166.67 54.048 166.278 53.784C165.886 53.52 165.69 53.112 165.69 52.56C165.69 52.12 165.814 51.768 166.062 51.504C166.31 51.232 166.634 51.028 167.034 50.892C167.434 50.748 167.934 50.62 168.534 50.508L169.83 50.28V49.896C169.83 49.488 169.69 49.172 169.41 48.948C169.13 48.716 168.762 48.6 168.306 48.6C167.962 48.6 167.65 48.664 167.37 48.792C167.09 48.92 166.79 49.14 166.47 49.452C166.414 49.508 166.354 49.536 166.29 49.536C166.234 49.536 166.182 49.512 166.134 49.464L165.978 49.32C165.922 49.264 165.894 49.204 165.894 49.14C165.894 49.068 165.922 49.004 165.978 48.948C166.314 48.596 166.666 48.34 167.034 48.18C167.41 48.02 167.822 47.94 168.27 47.94ZM167.838 53.52C168.414 53.52 168.89 53.368 169.266 53.064C169.642 52.76 169.83 52.372 169.83 51.9V50.892L168.714 51.108C168.194 51.212 167.782 51.312 167.478 51.408C167.174 51.504 166.93 51.644 166.746 51.828C166.562 52.012 166.47 52.252 166.47 52.548C166.47 52.852 166.59 53.092 166.83 53.268C167.078 53.436 167.414 53.52 167.838 53.52ZM172.593 54C172.433 54 172.353 53.92 172.353 53.76V45.72C172.353 45.56 172.433 45.48 172.593 45.48H172.905C173.065 45.48 173.145 45.56 173.145 45.72V53.76C173.145 53.92 173.065 54 172.905 54H172.593ZM174.835 55.848C174.787 55.912 174.731 55.944 174.667 55.944C174.603 55.944 174.547 55.92 174.499 55.872L174.343 55.728C174.279 55.68 174.247 55.62 174.247 55.548C174.247 55.492 174.271 55.44 174.319 55.392C174.975 54.592 175.467 53.792 175.795 52.992C176.123 52.192 176.287 51.3 176.287 50.316C176.287 49.34 176.123 48.448 175.795 47.64C175.467 46.832 174.975 46.032 174.319 45.24C174.279 45.192 174.259 45.14 174.259 45.084C174.259 45.012 174.287 44.952 174.343 44.904L174.499 44.76C174.547 44.712 174.603 44.688 174.667 44.688C174.731 44.688 174.787 44.72 174.835 44.784C175.563 45.6 176.119 46.448 176.503 47.328C176.895 48.208 177.091 49.204 177.091 50.316C177.091 51.428 176.895 52.424 176.503 53.304C176.119 54.184 175.563 55.032 174.835 55.848Z" fill="#767676"/>
<rect x="70.5" y="62.5" width="202" height="47" rx="3.5" fill="white"/>
<path d="M83.136 91.24C82.2933 91.24 81.5307 91.112 80.848 90.856C80.176 90.5893 79.4667 90.1573 78.72 89.56C78.624 89.4747 78.576 89.3947 78.576 89.32C78.576 89.256 78.608 89.1867 78.672 89.112L78.928 88.808C78.9813 88.7227 79.0613 88.68 79.168 88.68C79.2533 88.68 79.3227 88.7067 79.376 88.76C80.1333 89.3467 80.7947 89.7467 81.36 89.96C81.9253 90.1627 82.5173 90.264 83.136 90.264C84 90.264 84.704 90.0507 85.248 89.624C85.792 89.1867 86.064 88.5947 86.064 87.848C86.064 87.368 85.936 86.984 85.68 86.696C85.424 86.408 85.072 86.184 84.624 86.024C84.1867 85.864 83.5627 85.6933 82.752 85.512C81.7813 85.2987 81.024 85.0693 80.48 84.824C79.9467 84.5787 79.5573 84.2693 79.312 83.896C79.0667 83.5227 78.944 83.0427 78.944 82.456C78.944 81.8373 79.12 81.2987 79.472 80.84C79.8347 80.3707 80.3147 80.0133 80.912 79.768C81.5093 79.5227 82.1547 79.4 82.848 79.4C83.6053 79.4 84.2933 79.512 84.912 79.736C85.5413 79.96 86.16 80.3173 86.768 80.808C86.864 80.872 86.912 80.9467 86.912 81.032C86.912 81.096 86.88 81.1707 86.816 81.256L86.576 81.544C86.5227 81.6293 86.4427 81.672 86.336 81.672C86.2507 81.672 86.176 81.6453 86.112 81.592C85.568 81.144 85.04 80.8293 84.528 80.648C84.0267 80.4667 83.472 80.376 82.864 80.376C82.3093 80.376 81.8187 80.4667 81.392 80.648C80.9653 80.8187 80.6293 81.0587 80.384 81.368C80.1493 81.6773 80.032 82.0293 80.032 82.424C80.032 82.8507 80.1493 83.192 80.384 83.448C80.6293 83.704 80.9653 83.9067 81.392 84.056C81.8293 84.2053 82.464 84.376 83.296 84.568C84.256 84.792 85.0133 85.0427 85.568 85.32C86.1333 85.5973 86.544 85.9387 86.8 86.344C87.056 86.7387 87.184 87.2293 87.184 87.816C87.184 88.4987 87.008 89.1013 86.656 89.624C86.3147 90.136 85.8347 90.536 85.216 90.824C84.5973 91.1013 83.904 91.24 83.136 91.24ZM94.8968 89.128C94.9714 89.0533 95.0514 89.016 95.1368 89.016C95.2114 89.016 95.2808 89.048 95.3448 89.112L95.5528 89.304C95.6274 89.3787 95.6648 89.4587 95.6648 89.544C95.6648 89.608 95.6328 89.6827 95.5688 89.768C95.0461 90.2907 94.5394 90.664 94.0488 90.888C93.5581 91.1013 93.0088 91.208 92.4008 91.208C91.6328 91.208 90.9661 91.0373 90.4008 90.696C89.8354 90.3547 89.3981 89.88 89.0888 89.272C88.7794 88.6533 88.6248 87.9387 88.6248 87.128C88.6248 86.3067 88.7741 85.5813 89.0728 84.952C89.3821 84.312 89.8141 83.816 90.3688 83.464C90.9234 83.1013 91.5634 82.92 92.2888 82.92C93.3661 82.92 94.2141 83.256 94.8328 83.928C95.4514 84.6 95.7608 85.5067 95.7608 86.648V86.84C95.7501 86.936 95.7128 87.0107 95.6488 87.064C95.5954 87.1173 95.5208 87.144 95.4248 87.144H89.6968C89.7288 88.04 89.9634 88.7973 90.4008 89.416C90.8488 90.024 91.5154 90.328 92.4008 90.328C92.8808 90.328 93.3021 90.2427 93.6648 90.072C94.0381 89.8907 94.4488 89.576 94.8968 89.128ZM92.2888 83.8C91.5848 83.8 91.0034 84.0187 90.5448 84.456C90.0968 84.8827 89.8248 85.512 89.7288 86.344H94.7048C94.6834 85.5653 94.4594 84.9467 94.0328 84.488C93.6061 84.0293 93.0248 83.8 92.2888 83.8ZM97.9888 91C97.7754 91 97.6688 90.8933 97.6688 90.68V79.96C97.6688 79.7467 97.7754 79.64 97.9888 79.64H98.4048C98.6181 79.64 98.7248 79.7467 98.7248 79.96V90.68C98.7248 90.8933 98.6181 91 98.4048 91H97.9888ZM106.85 89.128C106.925 89.0533 107.005 89.016 107.09 89.016C107.165 89.016 107.234 89.048 107.298 89.112L107.506 89.304C107.581 89.3787 107.618 89.4587 107.618 89.544C107.618 89.608 107.586 89.6827 107.522 89.768C106.999 90.2907 106.493 90.664 106.002 90.888C105.511 91.1013 104.962 91.208 104.354 91.208C103.586 91.208 102.919 91.0373 102.354 90.696C101.789 90.3547 101.351 89.88 101.042 89.272C100.733 88.6533 100.578 87.9387 100.578 87.128C100.578 86.3067 100.727 85.5813 101.026 84.952C101.335 84.312 101.767 83.816 102.322 83.464C102.877 83.1013 103.517 82.92 104.242 82.92C105.319 82.92 106.167 83.256 106.786 83.928C107.405 84.6 107.714 85.5067 107.714 86.648V86.84C107.703 86.936 107.666 87.0107 107.602 87.064C107.549 87.1173 107.474 87.144 107.378 87.144H101.65C101.682 88.04 101.917 88.7973 102.354 89.416C102.802 90.024 103.469 90.328 104.354 90.328C104.834 90.328 105.255 90.2427 105.618 90.072C105.991 89.8907 106.402 89.576 106.85 89.128ZM104.242 83.8C103.538 83.8 102.957 84.0187 102.498 84.456C102.05 84.8827 101.778 85.512 101.682 86.344H106.658C106.637 85.5653 106.413 84.9467 105.986 84.488C105.559 84.0293 104.978 83.8 104.242 83.8ZM112.822 91.208C112.064 91.208 111.403 91.0373 110.838 90.696C110.283 90.344 109.851 89.8587 109.542 89.24C109.243 88.6107 109.094 87.8853 109.094 87.064C109.094 86.2533 109.243 85.5333 109.542 84.904C109.851 84.2747 110.283 83.7893 110.838 83.448C111.403 83.096 112.054 82.92 112.79 82.92C113.387 82.92 113.91 83.0213 114.358 83.224C114.806 83.416 115.238 83.736 115.654 84.184C115.718 84.248 115.75 84.3173 115.75 84.392C115.75 84.488 115.707 84.568 115.622 84.632L115.398 84.84C115.334 84.904 115.259 84.936 115.174 84.936C115.099 84.936 115.019 84.8933 114.934 84.808C114.56 84.4347 114.203 84.1733 113.862 84.024C113.531 83.8747 113.163 83.8 112.758 83.8C112.203 83.8 111.728 83.9547 111.334 84.264C110.95 84.5733 110.662 84.9787 110.47 85.48C110.278 85.9707 110.182 86.4987 110.182 87.064C110.182 87.6293 110.278 88.1627 110.47 88.664C110.662 89.1547 110.955 89.5547 111.35 89.864C111.744 90.1627 112.23 90.312 112.806 90.312C113.232 90.312 113.606 90.2373 113.926 90.088C114.256 89.928 114.624 89.6293 115.03 89.192C115.115 89.1067 115.195 89.064 115.27 89.064C115.355 89.064 115.43 89.096 115.494 89.16L115.718 89.336C115.792 89.4 115.83 89.4747 115.83 89.56C115.83 89.6453 115.782 89.7467 115.686 89.864C115.238 90.3547 114.79 90.7013 114.342 90.904C113.894 91.1067 113.387 91.208 112.822 91.208ZM121.142 90.12C121.174 90.1093 121.217 90.104 121.27 90.104C121.334 90.104 121.393 90.1253 121.446 90.168C121.5 90.2107 121.532 90.2693 121.542 90.344L121.59 90.568C121.601 90.5893 121.606 90.6267 121.606 90.68C121.606 90.8293 121.526 90.92 121.366 90.952C120.982 91.0693 120.572 91.128 120.134 91.128C119.441 91.128 118.945 90.9733 118.646 90.664C118.358 90.344 118.214 89.8853 118.214 89.288V83.912H117.03C116.817 83.912 116.71 83.8053 116.71 83.592V83.432C116.71 83.2187 116.817 83.112 117.03 83.112H118.214V80.68C118.214 80.4667 118.321 80.36 118.534 80.36H118.95C119.164 80.36 119.27 80.4667 119.27 80.68V83.112H121.19C121.404 83.112 121.51 83.2187 121.51 83.432V83.592C121.51 83.8053 121.404 83.912 121.19 83.912H119.27V89.16C119.27 89.5547 119.345 89.832 119.494 89.992C119.644 90.152 119.9 90.232 120.262 90.232C120.518 90.232 120.812 90.1947 121.142 90.12ZM129.849 82.92C130.82 82.92 131.577 83.1547 132.121 83.624C132.665 84.0827 132.937 84.6907 132.937 85.448V90.68C132.937 90.8933 132.83 91 132.617 91H132.297C132.084 91 131.977 90.8933 131.977 90.68V89.96C131.71 90.3867 131.332 90.7067 130.841 90.92C130.361 91.1333 129.822 91.24 129.225 91.24C128.393 91.24 127.716 91.064 127.193 90.712C126.67 90.36 126.409 89.816 126.409 89.08C126.409 88.4933 126.574 88.024 126.905 87.672C127.236 87.3093 127.668 87.0373 128.201 86.856C128.734 86.664 129.401 86.4933 130.201 86.344L131.929 86.04V85.528C131.929 84.984 131.742 84.5627 131.369 84.264C130.996 83.9547 130.505 83.8 129.897 83.8C129.438 83.8 129.022 83.8853 128.649 84.056C128.276 84.2267 127.876 84.52 127.449 84.936C127.374 85.0107 127.294 85.048 127.209 85.048C127.134 85.048 127.065 85.016 127.001 84.952L126.793 84.76C126.718 84.6853 126.681 84.6053 126.681 84.52C126.681 84.424 126.718 84.3387 126.793 84.264C127.241 83.7947 127.71 83.4533 128.201 83.24C128.702 83.0267 129.252 82.92 129.849 82.92ZM129.273 90.36C130.041 90.36 130.676 90.1573 131.177 89.752C131.678 89.3467 131.929 88.8293 131.929 88.2V86.856L130.441 87.144C129.748 87.2827 129.198 87.416 128.793 87.544C128.388 87.672 128.062 87.8587 127.817 88.104C127.572 88.3493 127.449 88.6693 127.449 89.064C127.449 89.4693 127.609 89.7893 127.929 90.024C128.26 90.248 128.708 90.36 129.273 90.36ZM142.165 91.208C141.408 91.208 140.747 91.0373 140.181 90.696C139.627 90.344 139.195 89.8587 138.885 89.24C138.587 88.6107 138.437 87.8853 138.437 87.064C138.437 86.2533 138.587 85.5333 138.885 84.904C139.195 84.2747 139.627 83.7893 140.181 83.448C140.747 83.096 141.397 82.92 142.133 82.92C142.731 82.92 143.253 83.0213 143.701 83.224C144.149 83.416 144.581 83.736 144.997 84.184C145.061 84.248 145.093 84.3173 145.093 84.392C145.093 84.488 145.051 84.568 144.965 84.632L144.741 84.84C144.677 84.904 144.603 84.936 144.517 84.936C144.443 84.936 144.363 84.8933 144.277 84.808C143.904 84.4347 143.547 84.1733 143.205 84.024C142.875 83.8747 142.507 83.8 142.101 83.8C141.547 83.8 141.072 83.9547 140.677 84.264C140.293 84.5733 140.005 84.9787 139.813 85.48C139.621 85.9707 139.525 86.4987 139.525 87.064C139.525 87.6293 139.621 88.1627 139.813 88.664C140.005 89.1547 140.299 89.5547 140.693 89.864C141.088 90.1627 141.573 90.312 142.149 90.312C142.576 90.312 142.949 90.2373 143.269 90.088C143.6 89.928 143.968 89.6293 144.373 89.192C144.459 89.1067 144.539 89.064 144.613 89.064C144.699 89.064 144.773 89.096 144.837 89.16L145.061 89.336C145.136 89.4 145.173 89.4747 145.173 89.56C145.173 89.6453 145.125 89.7467 145.029 89.864C144.581 90.3547 144.133 90.7013 143.685 90.904C143.237 91.1067 142.731 91.208 142.165 91.208ZM149.995 91.208C149.259 91.208 148.603 91.032 148.027 90.68C147.451 90.328 147.003 89.8427 146.683 89.224C146.363 88.5947 146.203 87.8747 146.203 87.064C146.203 86.2533 146.363 85.5387 146.683 84.92C147.003 84.2907 147.451 83.8 148.027 83.448C148.603 83.096 149.259 82.92 149.995 82.92C150.731 82.92 151.387 83.096 151.963 83.448C152.539 83.8 152.987 84.2907 153.307 84.92C153.627 85.5387 153.787 86.2533 153.787 87.064C153.787 87.8747 153.627 88.5947 153.307 89.224C152.987 89.8427 152.539 90.328 151.963 90.68C151.387 91.032 150.731 91.208 149.995 91.208ZM149.995 90.328C150.816 90.328 151.472 90.0293 151.963 89.432C152.454 88.824 152.699 88.0347 152.699 87.064C152.699 86.0933 152.454 85.3093 151.963 84.712C151.472 84.104 150.816 83.8 149.995 83.8C149.174 83.8 148.518 84.104 148.027 84.712C147.536 85.3093 147.291 86.0933 147.291 87.064C147.291 88.0347 147.536 88.824 148.027 89.432C148.518 90.0293 149.174 90.328 149.995 90.328ZM160.742 83.432C160.742 83.2187 160.848 83.112 161.062 83.112H161.478C161.691 83.112 161.798 83.2187 161.798 83.432V90.68C161.798 90.8933 161.691 91 161.478 91H161.142C160.928 91 160.822 90.8933 160.822 90.68V89.96C160.587 90.376 160.251 90.6907 159.814 90.904C159.387 91.1067 158.918 91.208 158.406 91.208C157.446 91.208 156.736 90.968 156.278 90.488C155.819 89.9973 155.59 89.368 155.59 88.6V83.432C155.59 83.2187 155.696 83.112 155.91 83.112H156.326C156.539 83.112 156.646 83.2187 156.646 83.432V88.376C156.646 89.0053 156.8 89.4853 157.11 89.816C157.43 90.136 157.883 90.296 158.47 90.296C159.131 90.296 159.675 90.0933 160.102 89.688C160.528 89.2827 160.742 88.7067 160.742 87.96V83.432ZM167.688 82.92C168.616 82.92 169.315 83.176 169.784 83.688C170.264 84.2 170.504 84.84 170.504 85.608V90.68C170.504 90.8933 170.398 91 170.184 91H169.768C169.555 91 169.448 90.8933 169.448 90.68V85.96C169.448 85.256 169.278 84.7227 168.936 84.36C168.595 83.9973 168.104 83.816 167.464 83.816C167.059 83.816 166.686 83.9173 166.344 84.12C166.003 84.312 165.731 84.5787 165.528 84.92C165.326 85.2613 165.224 85.6347 165.224 86.04V90.68C165.224 90.8933 165.118 91 164.904 91H164.488C164.275 91 164.168 90.8933 164.168 90.68V83.432C164.168 83.2187 164.275 83.112 164.488 83.112H164.84C165.054 83.112 165.16 83.2187 165.16 83.432V84.2C165.427 83.7733 165.779 83.4533 166.216 83.24C166.654 83.0267 167.144 82.92 167.688 82.92ZM176.174 90.12C176.206 90.1093 176.248 90.104 176.302 90.104C176.366 90.104 176.424 90.1253 176.478 90.168C176.531 90.2107 176.563 90.2693 176.574 90.344L176.622 90.568C176.632 90.5893 176.638 90.6267 176.638 90.68C176.638 90.8293 176.558 90.92 176.398 90.952C176.014 91.0693 175.603 91.128 175.166 91.128C174.472 91.128 173.976 90.9733 173.678 90.664C173.39 90.344 173.246 89.8853 173.246 89.288V83.912H172.062C171.848 83.912 171.742 83.8053 171.742 83.592V83.432C171.742 83.2187 171.848 83.112 172.062 83.112H173.246V80.68C173.246 80.4667 173.352 80.36 173.566 80.36H173.982C174.195 80.36 174.302 80.4667 174.302 80.68V83.112H176.222C176.435 83.112 176.542 83.2187 176.542 83.432V83.592C176.542 83.8053 176.435 83.912 176.222 83.912H174.302V89.16C174.302 89.5547 174.376 89.832 174.526 89.992C174.675 90.152 174.931 90.232 175.294 90.232C175.55 90.232 175.843 90.1947 176.174 90.12ZM181.097 83.048C181.363 83.048 181.678 83.0907 182.041 83.176C182.233 83.24 182.307 83.3733 182.265 83.576L182.201 83.832C182.147 84.0347 182.014 84.1093 181.801 84.056C181.545 83.992 181.31 83.96 181.097 83.96C180.553 83.96 180.099 84.1947 179.737 84.664C179.385 85.1333 179.209 85.784 179.209 86.616V90.68C179.209 90.8933 179.102 91 178.889 91H178.473C178.259 91 178.153 90.8933 178.153 90.68V83.432C178.153 83.2187 178.259 83.112 178.473 83.112H178.825C179.038 83.112 179.145 83.2187 179.145 83.432V84.312C179.326 83.9173 179.582 83.608 179.913 83.384C180.254 83.16 180.649 83.048 181.097 83.048ZM188.877 83.368C188.941 83.1973 189.064 83.112 189.245 83.112H189.677C189.762 83.112 189.832 83.1333 189.885 83.176C189.938 83.2187 189.965 83.2773 189.965 83.352L189.933 83.48L186.845 92.2C186.674 92.68 186.509 93.0533 186.349 93.32C186.189 93.5867 185.97 93.7893 185.693 93.928C185.426 94.0667 185.074 94.136 184.637 94.136C184.36 94.136 184.114 94.1147 183.901 94.072C183.794 94.0613 183.72 94.0187 183.677 93.944C183.645 93.8693 183.64 93.784 183.661 93.688L183.709 93.48C183.752 93.288 183.874 93.2027 184.077 93.224C184.269 93.256 184.434 93.272 184.573 93.272C184.914 93.272 185.181 93.176 185.373 92.984C185.576 92.792 185.768 92.4293 185.949 91.896L186.093 91.448L183.277 83.48L183.245 83.352C183.245 83.2773 183.272 83.2187 183.325 83.176C183.378 83.1333 183.448 83.112 183.533 83.112H183.997C184.168 83.112 184.285 83.1973 184.349 83.368L185.245 86.008C185.33 86.2747 185.544 86.9093 185.885 87.912L186.605 90.072C186.957 89.08 187.421 87.7147 187.997 85.976L188.877 83.368Z" fill="#767676"/>
<path d="M251.5 83.5L257 89L262.5 83.5" stroke="#464646" stroke-width="1.5" stroke-linecap="round" stroke-linejoin="round"/>
<rect x="70.5" y="62.5" width="202" height="47" rx="3.5" stroke="#D91F0A"/>
<path d="M73.852 126.18C73.22 126.18 72.648 126.084 72.136 125.892C71.632 125.692 71.1 125.368 70.54 124.92C70.468 124.856 70.432 124.796 70.432 124.74C70.432 124.692 70.456 124.64 70.504 124.584L70.696 124.356C70.736 124.292 70.796 124.26 70.876 124.26C70.94 124.26 70.992 124.28 71.032 124.32C71.6 124.76 72.096 125.06 72.52 125.22C72.944 125.372 73.388 125.448 73.852 125.448C74.5 125.448 75.028 125.288 75.436 124.968C75.844 124.64 76.048 124.196 76.048 123.636C76.048 123.276 75.952 122.988 75.76 122.772C75.568 122.556 75.304 122.388 74.968 122.268C74.64 122.148 74.172 122.02 73.564 121.884C72.836 121.724 72.268 121.552 71.86 121.368C71.46 121.184 71.168 120.952 70.984 120.672C70.8 120.392 70.708 120.032 70.708 119.592C70.708 119.128 70.84 118.724 71.104 118.38C71.376 118.028 71.736 117.76 72.184 117.576C72.632 117.392 73.116 117.3 73.636 117.3C74.204 117.3 74.72 117.384 75.184 117.552C75.656 117.72 76.12 117.988 76.576 118.356C76.648 118.404 76.684 118.46 76.684 118.524C76.684 118.572 76.66 118.628 76.612 118.692L76.432 118.908C76.392 118.972 76.332 119.004 76.252 119.004C76.188 119.004 76.132 118.984 76.084 118.944C75.676 118.608 75.28 118.372 74.896 118.236C74.52 118.1 74.104 118.032 73.648 118.032C73.232 118.032 72.864 118.1 72.544 118.236C72.224 118.364 71.972 118.544 71.788 118.776C71.612 119.008 71.524 119.272 71.524 119.568C71.524 119.888 71.612 120.144 71.788 120.336C71.972 120.528 72.224 120.68 72.544 120.792C72.872 120.904 73.348 121.032 73.972 121.176C74.692 121.344 75.26 121.532 75.676 121.74C76.1 121.948 76.408 122.204 76.6 122.508C76.792 122.804 76.888 123.172 76.888 123.612C76.888 124.124 76.756 124.576 76.492 124.968C76.236 125.352 75.876 125.652 75.412 125.868C74.948 126.076 74.428 126.18 73.852 126.18ZM82.6726 124.596C82.7286 124.54 82.7886 124.512 82.8526 124.512C82.9086 124.512 82.9606 124.536 83.0086 124.584L83.1646 124.728C83.2206 124.784 83.2486 124.844 83.2486 124.908C83.2486 124.956 83.2246 125.012 83.1766 125.076C82.7846 125.468 82.4046 125.748 82.0366 125.916C81.6686 126.076 81.2566 126.156 80.8006 126.156C80.2246 126.156 79.7246 126.028 79.3006 125.772C78.8766 125.516 78.5486 125.16 78.3166 124.704C78.0846 124.24 77.9686 123.704 77.9686 123.096C77.9686 122.48 78.0806 121.936 78.3046 121.464C78.5366 120.984 78.8606 120.612 79.2766 120.348C79.6926 120.076 80.1726 119.94 80.7166 119.94C81.5246 119.94 82.1606 120.192 82.6246 120.696C83.0886 121.2 83.3206 121.88 83.3206 122.736V122.88C83.3126 122.952 83.2846 123.008 83.2366 123.048C83.1966 123.088 83.1406 123.108 83.0686 123.108H78.7726C78.7966 123.78 78.9726 124.348 79.3006 124.812C79.6366 125.268 80.1366 125.496 80.8006 125.496C81.1606 125.496 81.4766 125.432 81.7486 125.304C82.0286 125.168 82.3366 124.932 82.6726 124.596ZM80.7166 120.6C80.1886 120.6 79.7526 120.764 79.4086 121.092C79.0726 121.412 78.8686 121.884 78.7966 122.508H82.5286C82.5126 121.924 82.3446 121.46 82.0246 121.116C81.7046 120.772 81.2686 120.6 80.7166 120.6ZM84.9916 126C84.8316 126 84.7516 125.92 84.7516 125.76V117.72C84.7516 117.56 84.8316 117.48 84.9916 117.48H85.3036C85.4636 117.48 85.5436 117.56 85.5436 117.72V125.76C85.5436 125.92 85.4636 126 85.3036 126H84.9916ZM91.6374 124.596C91.6934 124.54 91.7534 124.512 91.8174 124.512C91.8734 124.512 91.9254 124.536 91.9734 124.584L92.1294 124.728C92.1854 124.784 92.2134 124.844 92.2134 124.908C92.2134 124.956 92.1894 125.012 92.1414 125.076C91.7494 125.468 91.3694 125.748 91.0014 125.916C90.6334 126.076 90.2214 126.156 89.7654 126.156C89.1894 126.156 88.6894 126.028 88.2654 125.772C87.8414 125.516 87.5134 125.16 87.2814 124.704C87.0494 124.24 86.9334 123.704 86.9334 123.096C86.9334 122.48 87.0454 121.936 87.2694 121.464C87.5014 120.984 87.8254 120.612 88.2414 120.348C88.6574 120.076 89.1374 119.94 89.6814 119.94C90.4894 119.94 91.1254 120.192 91.5894 120.696C92.0534 121.2 92.2854 121.88 92.2854 122.736V122.88C92.2774 122.952 92.2494 123.008 92.2014 123.048C92.1614 123.088 92.1054 123.108 92.0334 123.108H87.7374C87.7614 123.78 87.9374 124.348 88.2654 124.812C88.6014 125.268 89.1014 125.496 89.7654 125.496C90.1254 125.496 90.4414 125.432 90.7134 125.304C90.9934 125.168 91.3014 124.932 91.6374 124.596ZM89.6814 120.6C89.1534 120.6 88.7174 120.764 88.3734 121.092C88.0374 121.412 87.8334 121.884 87.7614 122.508H91.4934C91.4774 121.924 91.3094 121.46 90.9894 121.116C90.6694 120.772 90.2334 120.6 89.6814 120.6ZM96.1161 126.156C95.5481 126.156 95.0521 126.028 94.6281 125.772C94.2121 125.508 93.8881 125.144 93.6561 124.68C93.4321 124.208 93.3201 123.664 93.3201 123.048C93.3201 122.44 93.4321 121.9 93.6561 121.428C93.8881 120.956 94.2121 120.592 94.6281 120.336C95.0521 120.072 95.5401 119.94 96.0921 119.94C96.5401 119.94 96.9321 120.016 97.2681 120.168C97.6041 120.312 97.9281 120.552 98.2401 120.888C98.2881 120.936 98.3121 120.988 98.3121 121.044C98.3121 121.116 98.2801 121.176 98.2161 121.224L98.0481 121.38C98.0001 121.428 97.9441 121.452 97.8801 121.452C97.8241 121.452 97.7641 121.42 97.7001 121.356C97.4201 121.076 97.1521 120.88 96.8961 120.768C96.6481 120.656 96.3721 120.6 96.0681 120.6C95.6521 120.6 95.2961 120.716 95.0001 120.948C94.7121 121.18 94.4961 121.484 94.3521 121.86C94.2081 122.228 94.1361 122.624 94.1361 123.048C94.1361 123.472 94.2081 123.872 94.3521 124.248C94.4961 124.616 94.7161 124.916 95.0121 125.148C95.3081 125.372 95.6721 125.484 96.1041 125.484C96.4241 125.484 96.7041 125.428 96.9441 125.316C97.1921 125.196 97.4681 124.972 97.7721 124.644C97.8361 124.58 97.8961 124.548 97.9521 124.548C98.0161 124.548 98.0721 124.572 98.1201 124.62L98.2881 124.752C98.3441 124.8 98.3721 124.856 98.3721 124.92C98.3721 124.984 98.3361 125.06 98.2641 125.148C97.9281 125.516 97.5921 125.776 97.2561 125.928C96.9201 126.08 96.5401 126.156 96.1161 126.156ZM102.357 125.34C102.381 125.332 102.413 125.328 102.453 125.328C102.501 125.328 102.545 125.344 102.585 125.376C102.625 125.408 102.649 125.452 102.657 125.508L102.693 125.676C102.701 125.692 102.705 125.72 102.705 125.76C102.705 125.872 102.645 125.94 102.525 125.964C102.237 126.052 101.929 126.096 101.601 126.096C101.081 126.096 100.709 125.98 100.485 125.748C100.269 125.508 100.161 125.164 100.161 124.716V120.684H99.2727C99.1127 120.684 99.0327 120.604 99.0327 120.444V120.324C99.0327 120.164 99.1127 120.084 99.2727 120.084H100.161V118.26C100.161 118.1 100.241 118.02 100.401 118.02H100.713C100.873 118.02 100.953 118.1 100.953 118.26V120.084H102.393C102.553 120.084 102.633 120.164 102.633 120.324V120.444C102.633 120.604 102.553 120.684 102.393 120.684H100.953V124.62C100.953 124.916 101.009 125.124 101.121 125.244C101.233 125.364 101.425 125.424 101.697 125.424C101.889 125.424 102.109 125.396 102.357 125.34ZM108.887 119.94C109.615 119.94 110.183 120.116 110.591 120.468C110.999 120.812 111.203 121.268 111.203 121.836V125.76C111.203 125.92 111.123 126 110.963 126H110.723C110.563 126 110.483 125.92 110.483 125.76V125.22C110.283 125.54 109.999 125.78 109.631 125.94C109.271 126.1 108.867 126.18 108.419 126.18C107.795 126.18 107.287 126.048 106.895 125.784C106.503 125.52 106.307 125.112 106.307 124.56C106.307 124.12 106.431 123.768 106.679 123.504C106.927 123.232 107.251 123.028 107.651 122.892C108.051 122.748 108.551 122.62 109.151 122.508L110.447 122.28V121.896C110.447 121.488 110.307 121.172 110.027 120.948C109.747 120.716 109.379 120.6 108.923 120.6C108.579 120.6 108.267 120.664 107.987 120.792C107.707 120.92 107.407 121.14 107.087 121.452C107.031 121.508 106.971 121.536 106.907 121.536C106.851 121.536 106.799 121.512 106.751 121.464L106.595 121.32C106.539 121.264 106.511 121.204 106.511 121.14C106.511 121.068 106.539 121.004 106.595 120.948C106.931 120.596 107.283 120.34 107.651 120.18C108.027 120.02 108.439 119.94 108.887 119.94ZM108.455 125.52C109.031 125.52 109.507 125.368 109.883 125.064C110.259 124.76 110.447 124.372 110.447 123.9V122.892L109.331 123.108C108.811 123.212 108.399 123.312 108.095 123.408C107.791 123.504 107.547 123.644 107.363 123.828C107.179 124.012 107.087 124.252 107.087 124.548C107.087 124.852 107.207 125.092 107.447 125.268C107.695 125.436 108.031 125.52 108.455 125.52ZM118.124 126.156C117.556 126.156 117.06 126.028 116.636 125.772C116.22 125.508 115.896 125.144 115.664 124.68C115.44 124.208 115.328 123.664 115.328 123.048C115.328 122.44 115.44 121.9 115.664 121.428C115.896 120.956 116.22 120.592 116.636 120.336C117.06 120.072 117.548 119.94 118.1 119.94C118.548 119.94 118.94 120.016 119.276 120.168C119.612 120.312 119.936 120.552 120.248 120.888C120.296 120.936 120.32 120.988 120.32 121.044C120.32 121.116 120.288 121.176 120.224 121.224L120.056 121.38C120.008 121.428 119.952 121.452 119.888 121.452C119.832 121.452 119.772 121.42 119.708 121.356C119.428 121.076 119.16 120.88 118.904 120.768C118.656 120.656 118.38 120.6 118.076 120.6C117.66 120.6 117.304 120.716 117.008 120.948C116.72 121.18 116.504 121.484 116.36 121.86C116.216 122.228 116.144 122.624 116.144 123.048C116.144 123.472 116.216 123.872 116.36 124.248C116.504 124.616 116.724 124.916 117.02 125.148C117.316 125.372 117.68 125.484 118.112 125.484C118.432 125.484 118.712 125.428 118.952 125.316C119.2 125.196 119.476 124.972 119.78 124.644C119.844 124.58 119.904 124.548 119.96 124.548C120.024 124.548 120.08 124.572 120.128 124.62L120.296 124.752C120.352 124.8 120.38 124.856 120.38 124.92C120.38 124.984 120.344 125.06 120.272 125.148C119.936 125.516 119.6 125.776 119.264 125.928C118.928 126.08 118.548 126.156 118.124 126.156ZM123.996 126.156C123.444 126.156 122.952 126.024 122.52 125.76C122.088 125.496 121.752 125.132 121.512 124.668C121.272 124.196 121.152 123.656 121.152 123.048C121.152 122.44 121.272 121.904 121.512 121.44C121.752 120.968 122.088 120.6 122.52 120.336C122.952 120.072 123.444 119.94 123.996 119.94C124.548 119.94 125.04 120.072 125.472 120.336C125.904 120.6 126.24 120.968 126.48 121.44C126.72 121.904 126.84 122.44 126.84 123.048C126.84 123.656 126.72 124.196 126.48 124.668C126.24 125.132 125.904 125.496 125.472 125.76C125.04 126.024 124.548 126.156 123.996 126.156ZM123.996 125.496C124.612 125.496 125.104 125.272 125.472 124.824C125.84 124.368 126.024 123.776 126.024 123.048C126.024 122.32 125.84 121.732 125.472 121.284C125.104 120.828 124.612 120.6 123.996 120.6C123.38 120.6 122.888 120.828 122.52 121.284C122.152 121.732 121.968 122.32 121.968 123.048C121.968 123.776 122.152 124.368 122.52 124.824C122.888 125.272 123.38 125.496 123.996 125.496ZM132.056 120.324C132.056 120.164 132.136 120.084 132.296 120.084H132.608C132.768 120.084 132.848 120.164 132.848 120.324V125.76C132.848 125.92 132.768 126 132.608 126H132.356C132.196 126 132.116 125.92 132.116 125.76V125.22C131.94 125.532 131.688 125.768 131.36 125.928C131.04 126.08 130.688 126.156 130.304 126.156C129.584 126.156 129.052 125.976 128.708 125.616C128.364 125.248 128.192 124.776 128.192 124.2V120.324C128.192 120.164 128.272 120.084 128.432 120.084H128.744C128.904 120.084 128.984 120.164 128.984 120.324V124.032C128.984 124.504 129.1 124.864 129.332 125.112C129.572 125.352 129.912 125.472 130.352 125.472C130.848 125.472 131.256 125.32 131.576 125.016C131.896 124.712 132.056 124.28 132.056 123.72V120.324ZM137.266 119.94C137.962 119.94 138.486 120.132 138.838 120.516C139.198 120.9 139.378 121.38 139.378 121.956V125.76C139.378 125.92 139.298 126 139.138 126H138.826C138.666 126 138.586 125.92 138.586 125.76V122.22C138.586 121.692 138.458 121.292 138.202 121.02C137.946 120.748 137.578 120.612 137.098 120.612C136.794 120.612 136.514 120.688 136.258 120.84C136.002 120.984 135.798 121.184 135.646 121.44C135.494 121.696 135.418 121.976 135.418 122.28V125.76C135.418 125.92 135.338 126 135.178 126H134.866C134.706 126 134.626 125.92 134.626 125.76V120.324C134.626 120.164 134.706 120.084 134.866 120.084H135.13C135.29 120.084 135.37 120.164 135.37 120.324V120.9C135.57 120.58 135.834 120.34 136.162 120.18C136.49 120.02 136.858 119.94 137.266 119.94ZM143.63 125.34C143.654 125.332 143.686 125.328 143.726 125.328C143.774 125.328 143.818 125.344 143.858 125.376C143.898 125.408 143.922 125.452 143.93 125.508L143.966 125.676C143.974 125.692 143.978 125.72 143.978 125.76C143.978 125.872 143.918 125.94 143.798 125.964C143.51 126.052 143.202 126.096 142.874 126.096C142.354 126.096 141.982 125.98 141.758 125.748C141.542 125.508 141.434 125.164 141.434 124.716V120.684H140.546C140.386 120.684 140.306 120.604 140.306 120.444V120.324C140.306 120.164 140.386 120.084 140.546 120.084H141.434V118.26C141.434 118.1 141.514 118.02 141.674 118.02H141.986C142.146 118.02 142.226 118.1 142.226 118.26V120.084H143.666C143.826 120.084 143.906 120.164 143.906 120.324V120.444C143.906 120.604 143.826 120.684 143.666 120.684H142.226V124.62C142.226 124.916 142.282 125.124 142.394 125.244C142.506 125.364 142.698 125.424 142.97 125.424C143.162 125.424 143.382 125.396 143.63 125.34ZM147.323 120.036C147.523 120.036 147.759 120.068 148.031 120.132C148.175 120.18 148.231 120.28 148.199 120.432L148.151 120.624C148.111 120.776 148.011 120.832 147.851 120.792C147.659 120.744 147.483 120.72 147.323 120.72C146.915 120.72 146.575 120.896 146.303 121.248C146.039 121.6 145.907 122.088 145.907 122.712V125.76C145.907 125.92 145.827 126 145.667 126H145.355C145.195 126 145.115 125.92 145.115 125.76V120.324C145.115 120.164 145.195 120.084 145.355 120.084H145.619C145.779 120.084 145.859 120.164 145.859 120.324V120.984C145.995 120.688 146.187 120.456 146.435 120.288C146.691 120.12 146.987 120.036 147.323 120.036ZM153.158 120.276C153.206 120.148 153.298 120.084 153.434 120.084H153.758C153.822 120.084 153.874 120.1 153.914 120.132C153.954 120.164 153.974 120.208 153.974 120.264L153.95 120.36L151.634 126.9C151.506 127.26 151.382 127.54 151.262 127.74C151.142 127.94 150.978 128.092 150.77 128.196C150.57 128.3 150.306 128.352 149.978 128.352C149.77 128.352 149.586 128.336 149.426 128.304C149.346 128.296 149.29 128.264 149.258 128.208C149.234 128.152 149.23 128.088 149.246 128.016L149.282 127.86C149.314 127.716 149.406 127.652 149.558 127.668C149.702 127.692 149.826 127.704 149.93 127.704C150.186 127.704 150.386 127.632 150.53 127.488C150.682 127.344 150.826 127.072 150.962 126.672L151.07 126.336L148.958 120.36L148.934 120.264C148.934 120.208 148.954 120.164 148.994 120.132C149.034 120.1 149.086 120.084 149.15 120.084H149.498C149.626 120.084 149.714 120.148 149.762 120.276L150.434 122.256C150.498 122.456 150.658 122.932 150.914 123.684L151.454 125.304C151.718 124.56 152.066 123.536 152.498 122.232L153.158 120.276Z" fill="#D91F0A"/>
</svg>
