<svg width="344" height="170" viewBox="0 0 344 170" fill="none" xmlns="http://www.w3.org/2000/svg">
<rect width="344" height="170" fill="#F5F5F5"/>
<path d="M71.568 54C71.4187 54 71.2973 53.958 71.204 53.874C71.12 53.7807 71.078 53.6593 71.078 53.51V44.55C71.078 44.3913 71.12 44.27 71.204 44.186C71.2973 44.102 71.4187 44.06 71.568 44.06H75.586C76.5753 44.06 77.364 44.3353 77.952 44.886C78.54 45.4273 78.834 46.1693 78.834 47.112C78.834 48.0547 78.54 48.7967 77.952 49.338C77.364 49.8793 76.5753 50.15 75.586 50.15H72.674V53.51C72.674 53.6593 72.632 53.7807 72.548 53.874C72.464 53.958 72.3427 54 72.184 54H71.568ZM75.334 48.82C75.9313 48.82 76.398 48.6753 76.734 48.386C77.0793 48.0873 77.252 47.6627 77.252 47.112C77.252 46.552 77.0793 46.1273 76.734 45.838C76.398 45.5393 75.9313 45.39 75.334 45.39H72.674V48.82H75.334ZM83.2589 47.028C83.4642 47.028 83.6742 47.0513 83.8889 47.098C84.1409 47.154 84.2669 47.3033 84.2669 47.546C84.2669 47.6113 84.2622 47.658 84.2529 47.686L84.1829 48.022C84.1269 48.2833 83.9869 48.414 83.7629 48.414L83.6369 48.4C83.4689 48.372 83.3195 48.358 83.1889 48.358C82.7222 48.358 82.3442 48.5447 82.0549 48.918C81.7749 49.282 81.6349 49.7907 81.6349 50.444V53.51C81.6349 53.6593 81.5929 53.7807 81.5089 53.874C81.4249 53.958 81.3035 54 81.1449 54H80.6409C80.4915 54 80.3702 53.958 80.2769 53.874C80.1929 53.7807 80.1509 53.6593 80.1509 53.51V47.588C80.1509 47.4293 80.1929 47.308 80.2769 47.224C80.3702 47.14 80.4915 47.098 80.6409 47.098H81.0469C81.2055 47.098 81.3269 47.14 81.4109 47.224C81.4949 47.308 81.5369 47.4293 81.5369 47.588V48.134C81.7049 47.7887 81.9335 47.518 82.2229 47.322C82.5122 47.126 82.8575 47.028 83.2589 47.028ZM89.9601 52.236C90.0814 52.1333 90.1981 52.082 90.3101 52.082C90.4221 52.082 90.5387 52.1427 90.6601 52.264L90.8561 52.474C90.9587 52.5953 91.0101 52.712 91.0101 52.824C91.0101 52.9453 90.9494 53.062 90.8281 53.174C90.3987 53.5473 89.9694 53.8133 89.5401 53.972C89.1201 54.1307 88.6534 54.21 88.1401 54.21C87.4214 54.21 86.7961 54.0607 86.2641 53.762C85.7414 53.4633 85.3354 53.0433 85.0461 52.502C84.7661 51.9513 84.6261 51.3167 84.6261 50.598C84.6261 49.8887 84.7614 49.254 85.0321 48.694C85.3121 48.1247 85.7041 47.6813 86.2081 47.364C86.7214 47.0467 87.3187 46.888 88.0001 46.888C89.0174 46.888 89.8014 47.1913 90.3521 47.798C90.9027 48.3953 91.1781 49.2213 91.1781 50.276V50.402C91.1687 50.5513 91.1221 50.668 91.0381 50.752C90.9541 50.836 90.8327 50.878 90.6741 50.878H86.0821C86.1381 51.494 86.3387 51.998 86.6841 52.39C87.0387 52.7727 87.5334 52.964 88.1681 52.964C88.5134 52.964 88.8167 52.9127 89.0781 52.81C89.3394 52.698 89.6334 52.5067 89.9601 52.236ZM87.9721 48.064C87.4587 48.064 87.0434 48.218 86.7261 48.526C86.4181 48.8247 86.2174 49.2493 86.1241 49.8H89.7221C89.6847 49.2587 89.5167 48.834 89.2181 48.526C88.9194 48.218 88.5041 48.064 87.9721 48.064ZM95.5346 45.096C95.2079 45.096 94.9699 45.1753 94.8206 45.334C94.6712 45.4927 94.5966 45.7633 94.5966 46.146V47.098H95.7306C95.8892 47.098 96.0106 47.14 96.0946 47.224C96.1786 47.308 96.2206 47.4293 96.2206 47.588V47.742C96.2206 47.8913 96.1786 48.0127 96.0946 48.106C96.0106 48.19 95.8892 48.232 95.7306 48.232H94.5966V53.51C94.5966 53.6593 94.5546 53.7807 94.4706 53.874C94.3866 53.958 94.2652 54 94.1066 54H93.6026C93.4532 54 93.3319 53.958 93.2386 53.874C93.1546 53.7807 93.1126 53.6593 93.1126 53.51V48.232H92.3706C92.2212 48.232 92.0999 48.19 92.0066 48.106C91.9226 48.0127 91.8806 47.8913 91.8806 47.742V47.588C91.8806 47.4293 91.9226 47.308 92.0066 47.224C92.0999 47.14 92.2212 47.098 92.3706 47.098H93.1126V46.048C93.1126 45.3293 93.2946 44.788 93.6586 44.424C94.0319 44.0507 94.5686 43.864 95.2686 43.864C95.5859 43.864 95.9079 43.8967 96.2346 43.962C96.4772 44.0273 96.5986 44.1767 96.5986 44.41C96.5986 44.4753 96.5939 44.5267 96.5846 44.564L96.5426 44.76C96.4866 45.0027 96.3046 45.124 95.9966 45.124L95.8286 45.11C95.7632 45.1007 95.6652 45.096 95.5346 45.096ZM102.005 52.236C102.126 52.1333 102.243 52.082 102.355 52.082C102.467 52.082 102.584 52.1427 102.705 52.264L102.901 52.474C103.004 52.5953 103.055 52.712 103.055 52.824C103.055 52.9453 102.994 53.062 102.873 53.174C102.444 53.5473 102.014 53.8133 101.585 53.972C101.165 54.1307 100.698 54.21 100.185 54.21C99.4663 54.21 98.841 54.0607 98.309 53.762C97.7863 53.4633 97.3803 53.0433 97.091 52.502C96.811 51.9513 96.671 51.3167 96.671 50.598C96.671 49.8887 96.8063 49.254 97.077 48.694C97.357 48.1247 97.749 47.6813 98.253 47.364C98.7663 47.0467 99.3637 46.888 100.045 46.888C101.062 46.888 101.846 47.1913 102.397 47.798C102.948 48.3953 103.223 49.2213 103.223 50.276V50.402C103.214 50.5513 103.167 50.668 103.083 50.752C102.999 50.836 102.878 50.878 102.719 50.878H98.127C98.183 51.494 98.3837 51.998 98.729 52.39C99.0837 52.7727 99.5783 52.964 100.213 52.964C100.558 52.964 100.862 52.9127 101.123 52.81C101.384 52.698 101.678 52.5067 102.005 52.236ZM100.017 48.064C99.5037 48.064 99.0883 48.218 98.771 48.526C98.463 48.8247 98.2623 49.2493 98.169 49.8H101.767C101.73 49.2587 101.562 48.834 101.263 48.526C100.964 48.218 100.549 48.064 100.017 48.064ZM107.691 47.028C107.896 47.028 108.106 47.0513 108.321 47.098C108.573 47.154 108.699 47.3033 108.699 47.546C108.699 47.6113 108.694 47.658 108.685 47.686L108.615 48.022C108.559 48.2833 108.419 48.414 108.195 48.414L108.069 48.4C107.901 48.372 107.751 48.358 107.621 48.358C107.154 48.358 106.776 48.5447 106.487 48.918C106.207 49.282 106.067 49.7907 106.067 50.444V53.51C106.067 53.6593 106.025 53.7807 105.941 53.874C105.857 53.958 105.735 54 105.577 54H105.073C104.923 54 104.802 53.958 104.709 53.874C104.625 53.7807 104.583 53.6593 104.583 53.51V47.588C104.583 47.4293 104.625 47.308 104.709 47.224C104.802 47.14 104.923 47.098 105.073 47.098H105.479C105.637 47.098 105.759 47.14 105.843 47.224C105.927 47.308 105.969 47.4293 105.969 47.588V48.134C106.137 47.7887 106.365 47.518 106.655 47.322C106.944 47.126 107.289 47.028 107.691 47.028ZM112.886 47.028C113.091 47.028 113.301 47.0513 113.516 47.098C113.768 47.154 113.894 47.3033 113.894 47.546C113.894 47.6113 113.889 47.658 113.88 47.686L113.81 48.022C113.754 48.2833 113.614 48.414 113.39 48.414L113.264 48.4C113.096 48.372 112.946 48.358 112.816 48.358C112.349 48.358 111.971 48.5447 111.682 48.918C111.402 49.282 111.262 49.7907 111.262 50.444V53.51C111.262 53.6593 111.22 53.7807 111.136 53.874C111.052 53.958 110.93 54 110.772 54H110.268C110.118 54 109.997 53.958 109.904 53.874C109.82 53.7807 109.778 53.6593 109.778 53.51V47.588C109.778 47.4293 109.82 47.308 109.904 47.224C109.997 47.14 110.118 47.098 110.268 47.098H110.674C110.832 47.098 110.954 47.14 111.038 47.224C111.122 47.308 111.164 47.4293 111.164 47.588V48.134C111.332 47.7887 111.56 47.518 111.85 47.322C112.139 47.126 112.484 47.028 112.886 47.028ZM119.587 52.236C119.708 52.1333 119.825 52.082 119.937 52.082C120.049 52.082 120.166 52.1427 120.287 52.264L120.483 52.474C120.586 52.5953 120.637 52.712 120.637 52.824C120.637 52.9453 120.576 53.062 120.455 53.174C120.026 53.5473 119.596 53.8133 119.167 53.972C118.747 54.1307 118.28 54.21 117.767 54.21C117.048 54.21 116.423 54.0607 115.891 53.762C115.368 53.4633 114.962 53.0433 114.673 52.502C114.393 51.9513 114.253 51.3167 114.253 50.598C114.253 49.8887 114.388 49.254 114.659 48.694C114.939 48.1247 115.331 47.6813 115.835 47.364C116.348 47.0467 116.946 46.888 117.627 46.888C118.644 46.888 119.428 47.1913 119.979 47.798C120.53 48.3953 120.805 49.2213 120.805 50.276V50.402C120.796 50.5513 120.749 50.668 120.665 50.752C120.581 50.836 120.46 50.878 120.301 50.878H115.709C115.765 51.494 115.966 51.998 116.311 52.39C116.666 52.7727 117.16 52.964 117.795 52.964C118.14 52.964 118.444 52.9127 118.705 52.81C118.966 52.698 119.26 52.5067 119.587 52.236ZM117.599 48.064C117.086 48.064 116.67 48.218 116.353 48.526C116.045 48.8247 115.844 49.2493 115.751 49.8H119.349C119.312 49.2587 119.144 48.834 118.845 48.526C118.546 48.218 118.131 48.064 117.599 48.064ZM127.05 44.536C127.05 44.3773 127.092 44.256 127.176 44.172C127.269 44.088 127.391 44.046 127.54 44.046H128.044C128.203 44.046 128.324 44.088 128.408 44.172C128.492 44.256 128.534 44.3773 128.534 44.536V53.51C128.534 53.6593 128.492 53.7807 128.408 53.874C128.324 53.958 128.203 54 128.044 54H127.638C127.489 54 127.367 53.958 127.274 53.874C127.19 53.7807 127.148 53.6593 127.148 53.51V53.02C126.663 53.804 125.902 54.196 124.866 54.196C124.287 54.196 123.765 54.0467 123.298 53.748C122.841 53.4493 122.481 53.0247 122.22 52.474C121.959 51.9233 121.828 51.284 121.828 50.556C121.828 49.8373 121.959 49.2027 122.22 48.652C122.491 48.1013 122.859 47.6767 123.326 47.378C123.793 47.0793 124.315 46.93 124.894 46.93C125.846 46.93 126.565 47.2613 127.05 47.924V44.536ZM125.174 52.922C125.743 52.922 126.21 52.712 126.574 52.292C126.938 51.8627 127.12 51.284 127.12 50.556C127.12 49.828 126.938 49.254 126.574 48.834C126.21 48.414 125.743 48.204 125.174 48.204C124.623 48.204 124.18 48.4187 123.844 48.848C123.508 49.2773 123.34 49.8467 123.34 50.556C123.34 51.2747 123.503 51.8487 123.83 52.278C124.166 52.7073 124.614 52.922 125.174 52.922ZM136.427 54.21C135.746 54.21 135.144 54.0607 134.621 53.762C134.108 53.4633 133.706 53.0387 133.417 52.488C133.137 51.928 132.997 51.2793 132.997 50.542C132.997 49.8047 133.142 49.1607 133.431 48.61C133.72 48.0593 134.126 47.6347 134.649 47.336C135.172 47.0373 135.774 46.888 136.455 46.888C136.95 46.888 137.393 46.9627 137.785 47.112C138.186 47.252 138.569 47.4947 138.933 47.84C139.045 47.952 139.101 48.0687 139.101 48.19C139.101 48.302 139.04 48.4187 138.919 48.54L138.681 48.778C138.578 48.8807 138.466 48.932 138.345 48.932C138.224 48.932 138.098 48.876 137.967 48.764C137.696 48.5307 137.44 48.372 137.197 48.288C136.964 48.1947 136.712 48.148 136.441 48.148C135.825 48.148 135.349 48.3767 135.013 48.834C134.677 49.2913 134.509 49.8607 134.509 50.542C134.509 51.2233 134.677 51.7973 135.013 52.264C135.349 52.7213 135.825 52.95 136.441 52.95C136.74 52.95 137.015 52.894 137.267 52.782C137.519 52.6607 137.79 52.46 138.079 52.18C138.2 52.0587 138.326 51.998 138.457 51.998C138.569 51.998 138.676 52.0447 138.779 52.138L139.017 52.334C139.138 52.4367 139.199 52.5533 139.199 52.684C139.199 52.824 139.129 52.9733 138.989 53.132C138.606 53.524 138.21 53.804 137.799 53.972C137.398 54.1307 136.94 54.21 136.427 54.21ZM143.401 54.21C142.72 54.21 142.113 54.056 141.581 53.748C141.059 53.44 140.648 53.0107 140.349 52.46C140.051 51.9 139.901 51.2607 139.901 50.542C139.901 49.8233 140.051 49.1887 140.349 48.638C140.648 48.0873 141.059 47.658 141.581 47.35C142.113 47.042 142.72 46.888 143.401 46.888C144.073 46.888 144.675 47.042 145.207 47.35C145.739 47.658 146.155 48.092 146.453 48.652C146.752 49.2027 146.901 49.8327 146.901 50.542C146.901 51.2607 146.752 51.9 146.453 52.46C146.155 53.0107 145.739 53.44 145.207 53.748C144.675 54.056 144.073 54.21 143.401 54.21ZM143.401 52.964C143.999 52.964 144.479 52.7447 144.843 52.306C145.207 51.858 145.389 51.27 145.389 50.542C145.389 49.8233 145.207 49.2447 144.843 48.806C144.479 48.3673 143.999 48.148 143.401 48.148C142.804 48.148 142.323 48.3673 141.959 48.806C141.595 49.2447 141.413 49.8233 141.413 50.542C141.413 51.27 141.595 51.858 141.959 52.306C142.323 52.7447 142.804 52.964 143.401 52.964ZM151.723 46.888C152.517 46.888 153.123 47.112 153.543 47.56C153.973 47.9987 154.187 48.568 154.187 49.268V53.51C154.187 53.6593 154.145 53.7807 154.061 53.874C153.977 53.958 153.856 54 153.697 54H153.193C153.044 54 152.923 53.958 152.829 53.874C152.745 53.7807 152.703 53.6593 152.703 53.51V49.73C152.703 49.226 152.577 48.8387 152.325 48.568C152.083 48.2973 151.733 48.162 151.275 48.162C150.827 48.162 150.449 48.316 150.141 48.624C149.843 48.932 149.693 49.3193 149.693 49.786V53.51C149.693 53.6593 149.651 53.7807 149.567 53.874C149.483 53.958 149.362 54 149.203 54H148.699C148.55 54 148.429 53.958 148.335 53.874C148.251 53.7807 148.209 53.6593 148.209 53.51V47.588C148.209 47.4293 148.251 47.308 148.335 47.224C148.429 47.14 148.55 47.098 148.699 47.098H149.105C149.264 47.098 149.385 47.14 149.469 47.224C149.553 47.308 149.595 47.4293 149.595 47.588V47.952C149.819 47.6067 150.113 47.3453 150.477 47.168C150.841 46.9813 151.257 46.888 151.723 46.888ZM159.075 52.824C159.103 52.8147 159.145 52.81 159.201 52.81C159.434 52.81 159.574 52.9453 159.621 53.216L159.663 53.44C159.672 53.468 159.677 53.5147 159.677 53.58C159.677 53.8133 159.546 53.9627 159.285 54.028C158.911 54.112 158.571 54.154 158.263 54.154C157.6 54.154 157.119 54 156.821 53.692C156.531 53.384 156.387 52.922 156.387 52.306V48.232H155.617C155.467 48.232 155.346 48.19 155.253 48.106C155.169 48.0127 155.127 47.8913 155.127 47.742V47.588C155.127 47.4293 155.169 47.308 155.253 47.224C155.346 47.14 155.467 47.098 155.617 47.098H156.387V45.362C156.387 45.2033 156.429 45.082 156.513 44.998C156.606 44.914 156.727 44.872 156.877 44.872H157.381C157.539 44.872 157.661 44.914 157.745 44.998C157.829 45.082 157.871 45.2033 157.871 45.362V47.098H159.131C159.289 47.098 159.411 47.14 159.495 47.224C159.579 47.308 159.621 47.4293 159.621 47.588V47.742C159.621 47.8913 159.579 48.0127 159.495 48.106C159.411 48.19 159.289 48.232 159.131 48.232H157.871V52.124C157.871 52.3947 157.927 52.586 158.039 52.698C158.16 52.81 158.351 52.866 158.613 52.866C158.725 52.866 158.879 52.852 159.075 52.824ZM163.768 46.888C164.701 46.888 165.42 47.1073 165.924 47.546C166.428 47.9753 166.68 48.5493 166.68 49.268V53.51C166.68 53.6593 166.638 53.7807 166.554 53.874C166.47 53.958 166.349 54 166.19 54H165.826C165.677 54 165.555 53.958 165.462 53.874C165.378 53.7807 165.336 53.6593 165.336 53.51V53.202C165.112 53.5287 164.804 53.7807 164.412 53.958C164.02 54.1353 163.563 54.224 163.04 54.224C162.321 54.224 161.729 54.0653 161.262 53.748C160.805 53.4213 160.576 52.9313 160.576 52.278C160.576 51.55 160.847 51.0133 161.388 50.668C161.939 50.3133 162.699 50.0473 163.67 49.87L165.252 49.576V49.324C165.252 48.9413 165.117 48.6473 164.846 48.442C164.585 48.2273 164.235 48.12 163.796 48.12C163.423 48.12 163.096 48.1853 162.816 48.316C162.545 48.4373 162.251 48.6427 161.934 48.932C161.813 49.0347 161.696 49.086 161.584 49.086C161.472 49.086 161.355 49.0347 161.234 48.932L161.01 48.736C160.889 48.624 160.828 48.5027 160.828 48.372C160.828 48.2507 160.884 48.134 160.996 48.022C161.397 47.6393 161.822 47.3547 162.27 47.168C162.718 46.9813 163.217 46.888 163.768 46.888ZM163.25 53.034C163.81 53.034 164.281 52.8847 164.664 52.586C165.056 52.2873 165.252 51.858 165.252 51.298V50.654L164.034 50.906C163.353 51.046 162.849 51.2047 162.522 51.382C162.195 51.5593 162.032 51.83 162.032 52.194C162.032 52.4553 162.139 52.6607 162.354 52.81C162.569 52.9593 162.867 53.034 163.25 53.034ZM171.413 54.21C170.732 54.21 170.13 54.0607 169.607 53.762C169.094 53.4633 168.693 53.0387 168.403 52.488C168.123 51.928 167.983 51.2793 167.983 50.542C167.983 49.8047 168.128 49.1607 168.417 48.61C168.707 48.0593 169.113 47.6347 169.635 47.336C170.158 47.0373 170.76 46.888 171.441 46.888C171.936 46.888 172.379 46.9627 172.771 47.112C173.173 47.252 173.555 47.4947 173.919 47.84C174.031 47.952 174.087 48.0687 174.087 48.19C174.087 48.302 174.027 48.4187 173.905 48.54L173.667 48.778C173.565 48.8807 173.453 48.932 173.331 48.932C173.21 48.932 173.084 48.876 172.953 48.764C172.683 48.5307 172.426 48.372 172.183 48.288C171.95 48.1947 171.698 48.148 171.427 48.148C170.811 48.148 170.335 48.3767 169.999 48.834C169.663 49.2913 169.495 49.8607 169.495 50.542C169.495 51.2233 169.663 51.7973 169.999 52.264C170.335 52.7213 170.811 52.95 171.427 52.95C171.726 52.95 172.001 52.894 172.253 52.782C172.505 52.6607 172.776 52.46 173.065 52.18C173.187 52.0587 173.313 51.998 173.443 51.998C173.555 51.998 173.663 52.0447 173.765 52.138L174.003 52.334C174.125 52.4367 174.185 52.5533 174.185 52.684C174.185 52.824 174.115 52.9733 173.975 53.132C173.593 53.524 173.196 53.804 172.785 53.972C172.384 54.1307 171.927 54.21 171.413 54.21ZM178.803 52.824C178.831 52.8147 178.873 52.81 178.929 52.81C179.163 52.81 179.303 52.9453 179.349 53.216L179.391 53.44C179.401 53.468 179.405 53.5147 179.405 53.58C179.405 53.8133 179.275 53.9627 179.013 54.028C178.64 54.112 178.299 54.154 177.991 54.154C177.329 54.154 176.848 54 176.549 53.692C176.26 53.384 176.115 52.922 176.115 52.306V48.232H175.345C175.196 48.232 175.075 48.19 174.981 48.106C174.897 48.0127 174.855 47.8913 174.855 47.742V47.588C174.855 47.4293 174.897 47.308 174.981 47.224C175.075 47.14 175.196 47.098 175.345 47.098H176.115V45.362C176.115 45.2033 176.157 45.082 176.241 44.998C176.335 44.914 176.456 44.872 176.605 44.872H177.109C177.268 44.872 177.389 44.914 177.473 44.998C177.557 45.082 177.599 45.2033 177.599 45.362V47.098H178.859C179.018 47.098 179.139 47.14 179.223 47.224C179.307 47.308 179.349 47.4293 179.349 47.588V47.742C179.349 47.8913 179.307 48.0127 179.223 48.106C179.139 48.19 179.018 48.232 178.859 48.232H177.599V52.124C177.599 52.3947 177.655 52.586 177.767 52.698C177.889 52.81 178.08 52.866 178.341 52.866C178.453 52.866 178.607 52.852 178.803 52.824ZM191.108 46.888C191.845 46.888 192.414 47.098 192.816 47.518C193.217 47.9287 193.418 48.484 193.418 49.184V53.51C193.418 53.6593 193.376 53.7807 193.292 53.874C193.208 53.958 193.086 54 192.928 54H192.424C192.274 54 192.153 53.958 192.06 53.874C191.976 53.7807 191.934 53.6593 191.934 53.51V49.632C191.934 49.1747 191.831 48.8153 191.626 48.554C191.42 48.2927 191.108 48.162 190.688 48.162C190.258 48.162 189.918 48.3067 189.666 48.596C189.423 48.8853 189.302 49.2587 189.302 49.716V53.51C189.302 53.6593 189.26 53.7807 189.176 53.874C189.092 53.958 188.97 54 188.812 54H188.308C188.158 54 188.037 53.958 187.944 53.874C187.86 53.7807 187.818 53.6593 187.818 53.51V49.632C187.818 49.1747 187.715 48.8153 187.51 48.554C187.314 48.2927 187.006 48.162 186.586 48.162C186.175 48.162 185.844 48.2973 185.592 48.568C185.34 48.8387 185.204 49.1887 185.186 49.618V53.51C185.186 53.6593 185.144 53.7807 185.06 53.874C184.976 53.958 184.854 54 184.696 54H184.192C184.042 54 183.921 53.958 183.828 53.874C183.744 53.7807 183.702 53.6593 183.702 53.51V47.588C183.702 47.4293 183.744 47.308 183.828 47.224C183.921 47.14 184.042 47.098 184.192 47.098H184.598C184.756 47.098 184.878 47.14 184.962 47.224C185.046 47.308 185.088 47.4293 185.088 47.588V47.896C185.517 47.224 186.18 46.888 187.076 46.888C187.524 46.888 187.916 46.9813 188.252 47.168C188.588 47.3547 188.844 47.616 189.022 47.952C189.498 47.2427 190.193 46.888 191.108 46.888ZM200.06 52.236C200.181 52.1333 200.298 52.082 200.41 52.082C200.522 52.082 200.638 52.1427 200.76 52.264L200.956 52.474C201.058 52.5953 201.11 52.712 201.11 52.824C201.11 52.9453 201.049 53.062 200.928 53.174C200.498 53.5473 200.069 53.8133 199.64 53.972C199.22 54.1307 198.753 54.21 198.24 54.21C197.521 54.21 196.896 54.0607 196.364 53.762C195.841 53.4633 195.435 53.0433 195.146 52.502C194.866 51.9513 194.726 51.3167 194.726 50.598C194.726 49.8887 194.861 49.254 195.132 48.694C195.412 48.1247 195.804 47.6813 196.308 47.364C196.821 47.0467 197.418 46.888 198.1 46.888C199.117 46.888 199.901 47.1913 200.452 47.798C201.002 48.3953 201.278 49.2213 201.278 50.276V50.402C201.268 50.5513 201.222 50.668 201.138 50.752C201.054 50.836 200.932 50.878 200.774 50.878H196.182C196.238 51.494 196.438 51.998 196.784 52.39C197.138 52.7727 197.633 52.964 198.268 52.964C198.613 52.964 198.916 52.9127 199.178 52.81C199.439 52.698 199.733 52.5067 200.06 52.236ZM198.072 48.064C197.558 48.064 197.143 48.218 196.826 48.526C196.518 48.8247 196.317 49.2493 196.224 49.8H199.822C199.784 49.2587 199.616 48.834 199.318 48.526C199.019 48.218 198.604 48.064 198.072 48.064ZM205.887 52.824C205.915 52.8147 205.957 52.81 206.013 52.81C206.247 52.81 206.387 52.9453 206.433 53.216L206.475 53.44C206.485 53.468 206.489 53.5147 206.489 53.58C206.489 53.8133 206.359 53.9627 206.097 54.028C205.724 54.112 205.383 54.154 205.075 54.154C204.413 54.154 203.932 54 203.633 53.692C203.344 53.384 203.199 52.922 203.199 52.306V48.232H202.429C202.28 48.232 202.159 48.19 202.065 48.106C201.981 48.0127 201.939 47.8913 201.939 47.742V47.588C201.939 47.4293 201.981 47.308 202.065 47.224C202.159 47.14 202.28 47.098 202.429 47.098H203.199V45.362C203.199 45.2033 203.241 45.082 203.325 44.998C203.419 44.914 203.54 44.872 203.689 44.872H204.193C204.352 44.872 204.473 44.914 204.557 44.998C204.641 45.082 204.683 45.2033 204.683 45.362V47.098H205.943C206.102 47.098 206.223 47.14 206.307 47.224C206.391 47.308 206.433 47.4293 206.433 47.588V47.742C206.433 47.8913 206.391 48.0127 206.307 48.106C206.223 48.19 206.102 48.232 205.943 48.232H204.683V52.124C204.683 52.3947 204.739 52.586 204.851 52.698C204.973 52.81 205.164 52.866 205.425 52.866C205.537 52.866 205.691 52.852 205.887 52.824ZM211.169 46.888C211.962 46.888 212.569 47.112 212.989 47.56C213.418 47.9987 213.633 48.568 213.633 49.268V53.51C213.633 53.6593 213.591 53.7807 213.507 53.874C213.423 53.958 213.301 54 213.143 54H212.639C212.489 54 212.368 53.958 212.275 53.874C212.191 53.7807 212.149 53.6593 212.149 53.51V49.73C212.149 49.226 212.023 48.8387 211.771 48.568C211.528 48.2973 211.178 48.162 210.721 48.162C210.273 48.162 209.895 48.316 209.587 48.624C209.288 48.932 209.139 49.3193 209.139 49.786V53.51C209.139 53.6593 209.097 53.7807 209.013 53.874C208.929 53.958 208.807 54 208.649 54H208.145C207.995 54 207.874 53.958 207.781 53.874C207.697 53.7807 207.655 53.6593 207.655 53.51V44.55C207.655 44.3913 207.697 44.27 207.781 44.186C207.874 44.102 207.995 44.06 208.145 44.06H208.649C208.807 44.06 208.929 44.102 209.013 44.186C209.097 44.27 209.139 44.3913 209.139 44.55V47.812C209.363 47.5133 209.647 47.2847 209.993 47.126C210.347 46.9673 210.739 46.888 211.169 46.888ZM218.446 54.21C217.765 54.21 217.158 54.056 216.626 53.748C216.104 53.44 215.693 53.0107 215.394 52.46C215.096 51.9 214.946 51.2607 214.946 50.542C214.946 49.8233 215.096 49.1887 215.394 48.638C215.693 48.0873 216.104 47.658 216.626 47.35C217.158 47.042 217.765 46.888 218.446 46.888C219.118 46.888 219.72 47.042 220.252 47.35C220.784 47.658 221.2 48.092 221.498 48.652C221.797 49.2027 221.946 49.8327 221.946 50.542C221.946 51.2607 221.797 51.9 221.498 52.46C221.2 53.0107 220.784 53.44 220.252 53.748C219.72 54.056 219.118 54.21 218.446 54.21ZM218.446 52.964C219.044 52.964 219.524 52.7447 219.888 52.306C220.252 51.858 220.434 51.27 220.434 50.542C220.434 49.8233 220.252 49.2447 219.888 48.806C219.524 48.3673 219.044 48.148 218.446 48.148C217.849 48.148 217.368 48.3673 217.004 48.806C216.64 49.2447 216.458 49.8233 216.458 50.542C216.458 51.27 216.64 51.858 217.004 52.306C217.368 52.7447 217.849 52.964 218.446 52.964ZM228.194 44.536C228.194 44.3773 228.236 44.256 228.32 44.172C228.414 44.088 228.535 44.046 228.684 44.046H229.188C229.347 44.046 229.468 44.088 229.552 44.172C229.636 44.256 229.678 44.3773 229.678 44.536V53.51C229.678 53.6593 229.636 53.7807 229.552 53.874C229.468 53.958 229.347 54 229.188 54H228.782C228.633 54 228.512 53.958 228.418 53.874C228.334 53.7807 228.292 53.6593 228.292 53.51V53.02C227.807 53.804 227.046 54.196 226.01 54.196C225.432 54.196 224.909 54.0467 224.442 53.748C223.985 53.4493 223.626 53.0247 223.364 52.474C223.103 51.9233 222.972 51.284 222.972 50.556C222.972 49.8373 223.103 49.2027 223.364 48.652C223.635 48.1013 224.004 47.6767 224.47 47.378C224.937 47.0793 225.46 46.93 226.038 46.93C226.99 46.93 227.709 47.2613 228.194 47.924V44.536ZM226.318 52.922C226.888 52.922 227.354 52.712 227.718 52.292C228.082 51.8627 228.264 51.284 228.264 50.556C228.264 49.828 228.082 49.254 227.718 48.834C227.354 48.414 226.888 48.204 226.318 48.204C225.768 48.204 225.324 48.4187 224.988 48.848C224.652 49.2773 224.484 49.8467 224.484 50.556C224.484 51.2747 224.648 51.8487 224.974 52.278C225.31 52.7073 225.758 52.922 226.318 52.922Z" fill="#464646"/>
<rect x="70.5" y="62.5" width="203" height="47" rx="3.5" fill="white"/>
<path d="M83.136 91.24C82.2933 91.24 81.5307 91.112 80.848 90.856C80.176 90.5893 79.4667 90.1573 78.72 89.56C78.624 89.4747 78.576 89.3947 78.576 89.32C78.576 89.256 78.608 89.1867 78.672 89.112L78.928 88.808C78.9813 88.7227 79.0613 88.68 79.168 88.68C79.2533 88.68 79.3227 88.7067 79.376 88.76C80.1333 89.3467 80.7947 89.7467 81.36 89.96C81.9253 90.1627 82.5173 90.264 83.136 90.264C84 90.264 84.704 90.0507 85.248 89.624C85.792 89.1867 86.064 88.5947 86.064 87.848C86.064 87.368 85.936 86.984 85.68 86.696C85.424 86.408 85.072 86.184 84.624 86.024C84.1867 85.864 83.5627 85.6933 82.752 85.512C81.7813 85.2987 81.024 85.0693 80.48 84.824C79.9467 84.5787 79.5573 84.2693 79.312 83.896C79.0667 83.5227 78.944 83.0427 78.944 82.456C78.944 81.8373 79.12 81.2987 79.472 80.84C79.8347 80.3707 80.3147 80.0133 80.912 79.768C81.5093 79.5227 82.1547 79.4 82.848 79.4C83.6053 79.4 84.2933 79.512 84.912 79.736C85.5413 79.96 86.16 80.3173 86.768 80.808C86.864 80.872 86.912 80.9467 86.912 81.032C86.912 81.096 86.88 81.1707 86.816 81.256L86.576 81.544C86.5227 81.6293 86.4427 81.672 86.336 81.672C86.2507 81.672 86.176 81.6453 86.112 81.592C85.568 81.144 85.04 80.8293 84.528 80.648C84.0267 80.4667 83.472 80.376 82.864 80.376C82.3093 80.376 81.8187 80.4667 81.392 80.648C80.9653 80.8187 80.6293 81.0587 80.384 81.368C80.1493 81.6773 80.032 82.0293 80.032 82.424C80.032 82.8507 80.1493 83.192 80.384 83.448C80.6293 83.704 80.9653 83.9067 81.392 84.056C81.8293 84.2053 82.464 84.376 83.296 84.568C84.256 84.792 85.0133 85.0427 85.568 85.32C86.1333 85.5973 86.544 85.9387 86.8 86.344C87.056 86.7387 87.184 87.2293 87.184 87.816C87.184 88.4987 87.008 89.1013 86.656 89.624C86.3147 90.136 85.8347 90.536 85.216 90.824C84.5973 91.1013 83.904 91.24 83.136 91.24ZM94.8968 89.128C94.9714 89.0533 95.0514 89.016 95.1368 89.016C95.2114 89.016 95.2808 89.048 95.3448 89.112L95.5528 89.304C95.6274 89.3787 95.6648 89.4587 95.6648 89.544C95.6648 89.608 95.6328 89.6827 95.5688 89.768C95.0461 90.2907 94.5394 90.664 94.0488 90.888C93.5581 91.1013 93.0088 91.208 92.4008 91.208C91.6328 91.208 90.9661 91.0373 90.4008 90.696C89.8354 90.3547 89.3981 89.88 89.0888 89.272C88.7794 88.6533 88.6248 87.9387 88.6248 87.128C88.6248 86.3067 88.7741 85.5813 89.0728 84.952C89.3821 84.312 89.8141 83.816 90.3688 83.464C90.9234 83.1013 91.5634 82.92 92.2888 82.92C93.3661 82.92 94.2141 83.256 94.8328 83.928C95.4514 84.6 95.7608 85.5067 95.7608 86.648V86.84C95.7501 86.936 95.7128 87.0107 95.6488 87.064C95.5954 87.1173 95.5208 87.144 95.4248 87.144H89.6968C89.7288 88.04 89.9634 88.7973 90.4008 89.416C90.8488 90.024 91.5154 90.328 92.4008 90.328C92.8808 90.328 93.3021 90.2427 93.6648 90.072C94.0381 89.8907 94.4488 89.576 94.8968 89.128ZM92.2888 83.8C91.5848 83.8 91.0034 84.0187 90.5448 84.456C90.0968 84.8827 89.8248 85.512 89.7288 86.344H94.7048C94.6834 85.5653 94.4594 84.9467 94.0328 84.488C93.6061 84.0293 93.0248 83.8 92.2888 83.8ZM97.9888 91C97.7754 91 97.6688 90.8933 97.6688 90.68V79.96C97.6688 79.7467 97.7754 79.64 97.9888 79.64H98.4048C98.6181 79.64 98.7248 79.7467 98.7248 79.96V90.68C98.7248 90.8933 98.6181 91 98.4048 91H97.9888ZM106.85 89.128C106.925 89.0533 107.005 89.016 107.09 89.016C107.165 89.016 107.234 89.048 107.298 89.112L107.506 89.304C107.581 89.3787 107.618 89.4587 107.618 89.544C107.618 89.608 107.586 89.6827 107.522 89.768C106.999 90.2907 106.493 90.664 106.002 90.888C105.511 91.1013 104.962 91.208 104.354 91.208C103.586 91.208 102.919 91.0373 102.354 90.696C101.789 90.3547 101.351 89.88 101.042 89.272C100.733 88.6533 100.578 87.9387 100.578 87.128C100.578 86.3067 100.727 85.5813 101.026 84.952C101.335 84.312 101.767 83.816 102.322 83.464C102.877 83.1013 103.517 82.92 104.242 82.92C105.319 82.92 106.167 83.256 106.786 83.928C107.405 84.6 107.714 85.5067 107.714 86.648V86.84C107.703 86.936 107.666 87.0107 107.602 87.064C107.549 87.1173 107.474 87.144 107.378 87.144H101.65C101.682 88.04 101.917 88.7973 102.354 89.416C102.802 90.024 103.469 90.328 104.354 90.328C104.834 90.328 105.255 90.2427 105.618 90.072C105.991 89.8907 106.402 89.576 106.85 89.128ZM104.242 83.8C103.538 83.8 102.957 84.0187 102.498 84.456C102.05 84.8827 101.778 85.512 101.682 86.344H106.658C106.637 85.5653 106.413 84.9467 105.986 84.488C105.559 84.0293 104.978 83.8 104.242 83.8ZM112.822 91.208C112.064 91.208 111.403 91.0373 110.838 90.696C110.283 90.344 109.851 89.8587 109.542 89.24C109.243 88.6107 109.094 87.8853 109.094 87.064C109.094 86.2533 109.243 85.5333 109.542 84.904C109.851 84.2747 110.283 83.7893 110.838 83.448C111.403 83.096 112.054 82.92 112.79 82.92C113.387 82.92 113.91 83.0213 114.358 83.224C114.806 83.416 115.238 83.736 115.654 84.184C115.718 84.248 115.75 84.3173 115.75 84.392C115.75 84.488 115.707 84.568 115.622 84.632L115.398 84.84C115.334 84.904 115.259 84.936 115.174 84.936C115.099 84.936 115.019 84.8933 114.934 84.808C114.56 84.4347 114.203 84.1733 113.862 84.024C113.531 83.8747 113.163 83.8 112.758 83.8C112.203 83.8 111.728 83.9547 111.334 84.264C110.95 84.5733 110.662 84.9787 110.47 85.48C110.278 85.9707 110.182 86.4987 110.182 87.064C110.182 87.6293 110.278 88.1627 110.47 88.664C110.662 89.1547 110.955 89.5547 111.35 89.864C111.744 90.1627 112.23 90.312 112.806 90.312C113.232 90.312 113.606 90.2373 113.926 90.088C114.256 89.928 114.624 89.6293 115.03 89.192C115.115 89.1067 115.195 89.064 115.27 89.064C115.355 89.064 115.43 89.096 115.494 89.16L115.718 89.336C115.792 89.4 115.83 89.4747 115.83 89.56C115.83 89.6453 115.782 89.7467 115.686 89.864C115.238 90.3547 114.79 90.7013 114.342 90.904C113.894 91.1067 113.387 91.208 112.822 91.208ZM121.142 90.12C121.174 90.1093 121.217 90.104 121.27 90.104C121.334 90.104 121.393 90.1253 121.446 90.168C121.5 90.2107 121.532 90.2693 121.542 90.344L121.59 90.568C121.601 90.5893 121.606 90.6267 121.606 90.68C121.606 90.8293 121.526 90.92 121.366 90.952C120.982 91.0693 120.572 91.128 120.134 91.128C119.441 91.128 118.945 90.9733 118.646 90.664C118.358 90.344 118.214 89.8853 118.214 89.288V83.912H117.03C116.817 83.912 116.71 83.8053 116.71 83.592V83.432C116.71 83.2187 116.817 83.112 117.03 83.112H118.214V80.68C118.214 80.4667 118.321 80.36 118.534 80.36H118.95C119.164 80.36 119.27 80.4667 119.27 80.68V83.112H121.19C121.404 83.112 121.51 83.2187 121.51 83.432V83.592C121.51 83.8053 121.404 83.912 121.19 83.912H119.27V89.16C119.27 89.5547 119.345 89.832 119.494 89.992C119.644 90.152 119.9 90.232 120.262 90.232C120.518 90.232 120.812 90.1947 121.142 90.12ZM130.009 91.208C129.252 91.208 128.59 91.0373 128.025 90.696C127.47 90.344 127.038 89.8587 126.729 89.24C126.43 88.6107 126.281 87.8853 126.281 87.064C126.281 86.2533 126.43 85.5333 126.729 84.904C127.038 84.2747 127.47 83.7893 128.025 83.448C128.59 83.096 129.241 82.92 129.977 82.92C130.574 82.92 131.097 83.0213 131.545 83.224C131.993 83.416 132.425 83.736 132.841 84.184C132.905 84.248 132.937 84.3173 132.937 84.392C132.937 84.488 132.894 84.568 132.809 84.632L132.585 84.84C132.521 84.904 132.446 84.936 132.361 84.936C132.286 84.936 132.206 84.8933 132.121 84.808C131.748 84.4347 131.39 84.1733 131.049 84.024C130.718 83.8747 130.35 83.8 129.945 83.8C129.39 83.8 128.916 83.9547 128.521 84.264C128.137 84.5733 127.849 84.9787 127.657 85.48C127.465 85.9707 127.369 86.4987 127.369 87.064C127.369 87.6293 127.465 88.1627 127.657 88.664C127.849 89.1547 128.142 89.5547 128.537 89.864C128.932 90.1627 129.417 90.312 129.993 90.312C130.42 90.312 130.793 90.2373 131.113 90.088C131.444 89.928 131.812 89.6293 132.217 89.192C132.302 89.1067 132.382 89.064 132.457 89.064C132.542 89.064 132.617 89.096 132.681 89.16L132.905 89.336C132.98 89.4 133.017 89.4747 133.017 89.56C133.017 89.6453 132.969 89.7467 132.873 89.864C132.425 90.3547 131.977 90.7013 131.529 90.904C131.081 91.1067 130.574 91.208 130.009 91.208ZM137.839 91.208C137.103 91.208 136.447 91.032 135.871 90.68C135.295 90.328 134.847 89.8427 134.527 89.224C134.207 88.5947 134.047 87.8747 134.047 87.064C134.047 86.2533 134.207 85.5387 134.527 84.92C134.847 84.2907 135.295 83.8 135.871 83.448C136.447 83.096 137.103 82.92 137.839 82.92C138.575 82.92 139.231 83.096 139.807 83.448C140.383 83.8 140.831 84.2907 141.151 84.92C141.471 85.5387 141.631 86.2533 141.631 87.064C141.631 87.8747 141.471 88.5947 141.151 89.224C140.831 89.8427 140.383 90.328 139.807 90.68C139.231 91.032 138.575 91.208 137.839 91.208ZM137.839 90.328C138.66 90.328 139.316 90.0293 139.807 89.432C140.297 88.824 140.543 88.0347 140.543 87.064C140.543 86.0933 140.297 85.3093 139.807 84.712C139.316 84.104 138.66 83.8 137.839 83.8C137.017 83.8 136.361 84.104 135.871 84.712C135.38 85.3093 135.135 86.0933 135.135 87.064C135.135 88.0347 135.38 88.824 135.871 89.432C136.361 90.0293 137.017 90.328 137.839 90.328ZM146.985 82.92C147.913 82.92 148.612 83.176 149.081 83.688C149.561 84.2 149.801 84.84 149.801 85.608V90.68C149.801 90.8933 149.695 91 149.481 91H149.065C148.852 91 148.745 90.8933 148.745 90.68V85.96C148.745 85.256 148.575 84.7227 148.233 84.36C147.892 83.9973 147.401 83.816 146.761 83.816C146.356 83.816 145.983 83.9173 145.641 84.12C145.3 84.312 145.028 84.5787 144.825 84.92C144.623 85.2613 144.521 85.6347 144.521 86.04V90.68C144.521 90.8933 144.415 91 144.201 91H143.785C143.572 91 143.465 90.8933 143.465 90.68V83.432C143.465 83.2187 143.572 83.112 143.785 83.112H144.137C144.351 83.112 144.457 83.2187 144.457 83.432V84.2C144.724 83.7733 145.076 83.4533 145.513 83.24C145.951 83.0267 146.441 82.92 146.985 82.92ZM155.47 90.12C155.502 90.1093 155.545 90.104 155.598 90.104C155.662 90.104 155.721 90.1253 155.774 90.168C155.828 90.2107 155.86 90.2693 155.87 90.344L155.918 90.568C155.929 90.5893 155.934 90.6267 155.934 90.68C155.934 90.8293 155.854 90.92 155.694 90.952C155.31 91.0693 154.9 91.128 154.462 91.128C153.769 91.128 153.273 90.9733 152.974 90.664C152.686 90.344 152.542 89.8853 152.542 89.288V83.912H151.358C151.145 83.912 151.038 83.8053 151.038 83.592V83.432C151.038 83.2187 151.145 83.112 151.358 83.112H152.542V80.68C152.542 80.4667 152.649 80.36 152.862 80.36H153.278C153.492 80.36 153.598 80.4667 153.598 80.68V83.112H155.518C155.732 83.112 155.838 83.2187 155.838 83.432V83.592C155.838 83.8053 155.732 83.912 155.518 83.912H153.598V89.16C153.598 89.5547 153.673 89.832 153.822 89.992C153.972 90.152 154.228 90.232 154.59 90.232C154.846 90.232 155.14 90.1947 155.47 90.12ZM160.505 82.92C161.476 82.92 162.233 83.1547 162.777 83.624C163.321 84.0827 163.593 84.6907 163.593 85.448V90.68C163.593 90.8933 163.487 91 163.273 91H162.953C162.74 91 162.633 90.8933 162.633 90.68V89.96C162.367 90.3867 161.988 90.7067 161.497 90.92C161.017 91.1333 160.479 91.24 159.881 91.24C159.049 91.24 158.372 91.064 157.849 90.712C157.327 90.36 157.065 89.816 157.065 89.08C157.065 88.4933 157.231 88.024 157.561 87.672C157.892 87.3093 158.324 87.0373 158.857 86.856C159.391 86.664 160.057 86.4933 160.857 86.344L162.585 86.04V85.528C162.585 84.984 162.399 84.5627 162.025 84.264C161.652 83.9547 161.161 83.8 160.553 83.8C160.095 83.8 159.679 83.8853 159.305 84.056C158.932 84.2267 158.532 84.52 158.105 84.936C158.031 85.0107 157.951 85.048 157.865 85.048C157.791 85.048 157.721 85.016 157.657 84.952L157.449 84.76C157.375 84.6853 157.337 84.6053 157.337 84.52C157.337 84.424 157.375 84.3387 157.449 84.264C157.897 83.7947 158.367 83.4533 158.857 83.24C159.359 83.0267 159.908 82.92 160.505 82.92ZM159.929 90.36C160.697 90.36 161.332 90.1573 161.833 89.752C162.335 89.3467 162.585 88.8293 162.585 88.2V86.856L161.097 87.144C160.404 87.2827 159.855 87.416 159.449 87.544C159.044 87.672 158.719 87.8587 158.473 88.104C158.228 88.3493 158.105 88.6693 158.105 89.064C158.105 89.4693 158.265 89.7893 158.585 90.024C158.916 90.248 159.364 90.36 159.929 90.36ZM169.134 91.208C168.377 91.208 167.715 91.0373 167.15 90.696C166.595 90.344 166.163 89.8587 165.854 89.24C165.555 88.6107 165.406 87.8853 165.406 87.064C165.406 86.2533 165.555 85.5333 165.854 84.904C166.163 84.2747 166.595 83.7893 167.15 83.448C167.715 83.096 168.366 82.92 169.102 82.92C169.699 82.92 170.222 83.0213 170.67 83.224C171.118 83.416 171.55 83.736 171.966 84.184C172.03 84.248 172.062 84.3173 172.062 84.392C172.062 84.488 172.019 84.568 171.934 84.632L171.71 84.84C171.646 84.904 171.571 84.936 171.486 84.936C171.411 84.936 171.331 84.8933 171.246 84.808C170.873 84.4347 170.515 84.1733 170.174 84.024C169.843 83.8747 169.475 83.8 169.07 83.8C168.515 83.8 168.041 83.9547 167.646 84.264C167.262 84.5733 166.974 84.9787 166.782 85.48C166.59 85.9707 166.494 86.4987 166.494 87.064C166.494 87.6293 166.59 88.1627 166.782 88.664C166.974 89.1547 167.267 89.5547 167.662 89.864C168.057 90.1627 168.542 90.312 169.118 90.312C169.545 90.312 169.918 90.2373 170.238 90.088C170.569 89.928 170.937 89.6293 171.342 89.192C171.427 89.1067 171.507 89.064 171.582 89.064C171.667 89.064 171.742 89.096 171.806 89.16L172.03 89.336C172.105 89.4 172.142 89.4747 172.142 89.56C172.142 89.6453 172.094 89.7467 171.998 89.864C171.55 90.3547 171.102 90.7013 170.654 90.904C170.206 91.1067 169.699 91.208 169.134 91.208ZM177.455 90.12C177.487 90.1093 177.529 90.104 177.583 90.104C177.647 90.104 177.705 90.1253 177.759 90.168C177.812 90.2107 177.844 90.2693 177.855 90.344L177.903 90.568C177.913 90.5893 177.919 90.6267 177.919 90.68C177.919 90.8293 177.839 90.92 177.679 90.952C177.295 91.0693 176.884 91.128 176.447 91.128C175.753 91.128 175.257 90.9733 174.959 90.664C174.671 90.344 174.527 89.8853 174.527 89.288V83.912H173.343C173.129 83.912 173.023 83.8053 173.023 83.592V83.432C173.023 83.2187 173.129 83.112 173.343 83.112H174.527V80.68C174.527 80.4667 174.633 80.36 174.847 80.36H175.263C175.476 80.36 175.583 80.4667 175.583 80.68V83.112H177.503C177.716 83.112 177.823 83.2187 177.823 83.432V83.592C177.823 83.8053 177.716 83.912 177.503 83.912H175.583V89.16C175.583 89.5547 175.657 89.832 175.807 89.992C175.956 90.152 176.212 90.232 176.575 90.232C176.831 90.232 177.124 90.1947 177.455 90.12ZM191.138 82.92C191.991 82.92 192.642 83.1653 193.09 83.656C193.548 84.136 193.778 84.7547 193.778 85.512V90.68C193.778 90.8933 193.671 91 193.458 91H193.042C192.828 91 192.722 90.8933 192.722 90.68V85.8C192.722 85.16 192.572 84.6693 192.274 84.328C191.986 83.9867 191.554 83.816 190.977 83.816C190.37 83.816 189.884 84.0187 189.522 84.424C189.159 84.8293 188.978 85.352 188.978 85.992V90.68C188.978 90.8933 188.871 91 188.658 91H188.242C188.028 91 187.922 90.8933 187.922 90.68V85.8C187.922 85.16 187.772 84.6693 187.474 84.328C187.186 83.9867 186.748 83.816 186.161 83.816C185.618 83.816 185.164 83.9867 184.802 84.328C184.45 84.6693 184.242 85.1173 184.178 85.672V90.68C184.178 90.8933 184.071 91 183.858 91H183.442C183.228 91 183.122 90.8933 183.122 90.68V83.432C183.122 83.2187 183.228 83.112 183.442 83.112H183.794C184.007 83.112 184.114 83.2187 184.114 83.432V84.088C184.594 83.3093 185.356 82.92 186.402 82.92C186.946 82.92 187.41 83.0427 187.794 83.288C188.188 83.5227 188.482 83.8427 188.674 84.248C189.239 83.3627 190.06 82.92 191.138 82.92ZM201.85 89.128C201.925 89.0533 202.005 89.016 202.09 89.016C202.165 89.016 202.234 89.048 202.298 89.112L202.506 89.304C202.581 89.3787 202.618 89.4587 202.618 89.544C202.618 89.608 202.586 89.6827 202.522 89.768C201.999 90.2907 201.493 90.664 201.002 90.888C200.511 91.1013 199.962 91.208 199.354 91.208C198.586 91.208 197.919 91.0373 197.354 90.696C196.789 90.3547 196.351 89.88 196.042 89.272C195.733 88.6533 195.578 87.9387 195.578 87.128C195.578 86.3067 195.727 85.5813 196.026 84.952C196.335 84.312 196.767 83.816 197.322 83.464C197.877 83.1013 198.517 82.92 199.242 82.92C200.319 82.92 201.167 83.256 201.786 83.928C202.405 84.6 202.714 85.5067 202.714 86.648V86.84C202.703 86.936 202.666 87.0107 202.602 87.064C202.549 87.1173 202.474 87.144 202.378 87.144H196.65C196.682 88.04 196.917 88.7973 197.354 89.416C197.802 90.024 198.469 90.328 199.354 90.328C199.834 90.328 200.255 90.2427 200.618 90.072C200.991 89.8907 201.402 89.576 201.85 89.128ZM199.242 83.8C198.538 83.8 197.957 84.0187 197.498 84.456C197.05 84.8827 196.778 85.512 196.682 86.344H201.658C201.637 85.5653 201.413 84.9467 200.986 84.488C200.559 84.0293 199.978 83.8 199.242 83.8ZM208.08 90.12C208.112 90.1093 208.154 90.104 208.208 90.104C208.272 90.104 208.33 90.1253 208.384 90.168C208.437 90.2107 208.469 90.2693 208.48 90.344L208.528 90.568C208.538 90.5893 208.544 90.6267 208.544 90.68C208.544 90.8293 208.464 90.92 208.304 90.952C207.92 91.0693 207.509 91.128 207.072 91.128C206.378 91.128 205.882 90.9733 205.584 90.664C205.296 90.344 205.152 89.8853 205.152 89.288V83.912H203.968C203.754 83.912 203.648 83.8053 203.648 83.592V83.432C203.648 83.2187 203.754 83.112 203.968 83.112H205.152V80.68C205.152 80.4667 205.258 80.36 205.472 80.36H205.888C206.101 80.36 206.208 80.4667 206.208 80.68V83.112H208.128C208.341 83.112 208.448 83.2187 208.448 83.432V83.592C208.448 83.8053 208.341 83.912 208.128 83.912H206.208V89.16C206.208 89.5547 206.282 89.832 206.432 89.992C206.581 90.152 206.837 90.232 207.2 90.232C207.456 90.232 207.749 90.1947 208.08 90.12ZM213.579 82.92C214.496 82.92 215.195 83.1813 215.675 83.704C216.155 84.216 216.395 84.8507 216.395 85.608V90.68C216.395 90.8933 216.288 91 216.075 91H215.659C215.446 91 215.339 90.8933 215.339 90.68V85.96C215.339 85.256 215.168 84.7227 214.827 84.36C214.486 83.9973 213.995 83.816 213.355 83.816C212.95 83.816 212.576 83.9173 212.235 84.12C211.894 84.312 211.622 84.5787 211.419 84.92C211.216 85.2613 211.115 85.6347 211.115 86.04V90.68C211.115 90.8933 211.008 91 210.795 91H210.379C210.166 91 210.059 90.8933 210.059 90.68V79.96C210.059 79.7467 210.166 79.64 210.379 79.64H210.795C211.008 79.64 211.115 79.7467 211.115 79.96V84.136C211.371 83.7307 211.712 83.4267 212.139 83.224C212.576 83.0213 213.056 82.92 213.579 82.92ZM221.995 91.208C221.259 91.208 220.603 91.032 220.027 90.68C219.451 90.328 219.003 89.8427 218.683 89.224C218.363 88.5947 218.203 87.8747 218.203 87.064C218.203 86.2533 218.363 85.5387 218.683 84.92C219.003 84.2907 219.451 83.8 220.027 83.448C220.603 83.096 221.259 82.92 221.995 82.92C222.731 82.92 223.387 83.096 223.963 83.448C224.539 83.8 224.987 84.2907 225.307 84.92C225.627 85.5387 225.787 86.2533 225.787 87.064C225.787 87.8747 225.627 88.5947 225.307 89.224C224.987 89.8427 224.539 90.328 223.963 90.68C223.387 91.032 222.731 91.208 221.995 91.208ZM221.995 90.328C222.816 90.328 223.472 90.0293 223.963 89.432C224.454 88.824 224.699 88.0347 224.699 87.064C224.699 86.0933 224.454 85.3093 223.963 84.712C223.472 84.104 222.816 83.8 221.995 83.8C221.174 83.8 220.518 84.104 220.027 84.712C219.536 85.3093 219.291 86.0933 219.291 87.064C219.291 88.0347 219.536 88.824 220.027 89.432C220.518 90.0293 221.174 90.328 221.995 90.328ZM233.411 79.96C233.411 79.7467 233.518 79.64 233.731 79.64H234.147C234.361 79.64 234.467 79.7467 234.467 79.96V90.68C234.467 90.8933 234.361 91 234.147 91H233.811C233.598 91 233.491 90.8933 233.491 90.68V89.64C233.203 90.1413 232.825 90.5253 232.355 90.792C231.886 91.0587 231.331 91.192 230.691 91.192C230.019 91.192 229.422 91.0213 228.899 90.68C228.377 90.328 227.966 89.8427 227.667 89.224C227.369 88.5947 227.219 87.8747 227.219 87.064C227.219 86.2533 227.369 85.5387 227.667 84.92C227.977 84.2907 228.398 83.8053 228.931 83.464C229.465 83.112 230.062 82.936 230.723 82.936C231.939 82.936 232.835 83.3893 233.411 84.296V79.96ZM230.771 90.296C231.571 90.296 232.217 90.0133 232.707 89.448C233.209 88.872 233.459 88.0773 233.459 87.064C233.459 86.0613 233.209 85.272 232.707 84.696C232.217 84.12 231.571 83.832 230.771 83.832C230.035 83.832 229.438 84.1307 228.979 84.728C228.531 85.3253 228.307 86.104 228.307 87.064C228.307 88.0347 228.531 88.8187 228.979 89.416C229.427 90.0027 230.025 90.296 230.771 90.296Z" fill="#767676"/>
<path d="M252.5 83.5L258 89L263.5 83.5" stroke="#464646" stroke-width="1.5" stroke-linecap="round" stroke-linejoin="round"/>
<rect x="70.5" y="62.5" width="203" height="47" rx="3.5" stroke="#C3CCD9"/>
<path d="M74.476 126.18C73.66 126.18 72.956 125.992 72.364 125.616C71.772 125.232 71.32 124.704 71.008 124.032C70.696 123.36 70.54 122.596 70.54 121.74C70.54 120.876 70.696 120.108 71.008 119.436C71.32 118.764 71.776 118.24 72.376 117.864C72.984 117.488 73.712 117.3 74.56 117.3C75.048 117.3 75.504 117.38 75.928 117.54C76.352 117.692 76.804 117.956 77.284 118.332C77.356 118.38 77.392 118.436 77.392 118.5C77.392 118.548 77.368 118.604 77.32 118.668L77.152 118.884C77.104 118.948 77.048 118.98 76.984 118.98C76.92 118.98 76.86 118.956 76.804 118.908C76.372 118.572 75.98 118.344 75.628 118.224C75.284 118.096 74.928 118.032 74.56 118.032C73.912 118.032 73.348 118.192 72.868 118.512C72.396 118.824 72.032 119.26 71.776 119.82C71.52 120.38 71.392 121.02 71.392 121.74C71.392 122.452 71.52 123.092 71.776 123.66C72.032 124.22 72.392 124.66 72.856 124.98C73.32 125.292 73.856 125.448 74.464 125.448C74.944 125.448 75.368 125.356 75.736 125.172C76.112 124.98 76.512 124.684 76.936 124.284C77 124.236 77.056 124.212 77.104 124.212C77.168 124.212 77.228 124.24 77.284 124.296L77.476 124.512C77.524 124.56 77.548 124.612 77.548 124.668C77.548 124.74 77.508 124.812 77.428 124.884C76.932 125.356 76.46 125.692 76.012 125.892C75.564 126.084 75.052 126.18 74.476 126.18ZM81.4616 119.94C82.1496 119.94 82.6736 120.136 83.0336 120.528C83.3936 120.912 83.5736 121.388 83.5736 121.956V125.76C83.5736 125.92 83.4936 126 83.3336 126H83.0216C82.8616 126 82.7816 125.92 82.7816 125.76V122.22C82.7816 121.692 82.6536 121.292 82.3976 121.02C82.1416 120.748 81.7736 120.612 81.2936 120.612C80.9896 120.612 80.7096 120.688 80.4536 120.84C80.1976 120.984 79.9936 121.184 79.8416 121.44C79.6896 121.696 79.6136 121.976 79.6136 122.28V125.76C79.6136 125.92 79.5336 126 79.3736 126H79.0616C78.9016 126 78.8216 125.92 78.8216 125.76V117.72C78.8216 117.56 78.9016 117.48 79.0616 117.48H79.3736C79.5336 117.48 79.6136 117.56 79.6136 117.72V120.852C79.8056 120.548 80.0616 120.32 80.3816 120.168C80.7096 120.016 81.0696 119.94 81.4616 119.94ZM87.7735 126.156C87.2215 126.156 86.7295 126.024 86.2975 125.76C85.8655 125.496 85.5295 125.132 85.2895 124.668C85.0495 124.196 84.9295 123.656 84.9295 123.048C84.9295 122.44 85.0495 121.904 85.2895 121.44C85.5295 120.968 85.8655 120.6 86.2975 120.336C86.7295 120.072 87.2215 119.94 87.7735 119.94C88.3255 119.94 88.8175 120.072 89.2495 120.336C89.6815 120.6 90.0175 120.968 90.2575 121.44C90.4975 121.904 90.6175 122.44 90.6175 123.048C90.6175 123.656 90.4975 124.196 90.2575 124.668C90.0175 125.132 89.6815 125.496 89.2495 125.76C88.8175 126.024 88.3255 126.156 87.7735 126.156ZM87.7735 125.496C88.3895 125.496 88.8815 125.272 89.2495 124.824C89.6175 124.368 89.8015 123.776 89.8015 123.048C89.8015 122.32 89.6175 121.732 89.2495 121.284C88.8815 120.828 88.3895 120.6 87.7735 120.6C87.1575 120.6 86.6655 120.828 86.2975 121.284C85.9295 121.732 85.7455 122.32 85.7455 123.048C85.7455 123.776 85.9295 124.368 86.2975 124.824C86.6655 125.272 87.1575 125.496 87.7735 125.496ZM94.5118 126.156C93.9598 126.156 93.4678 126.024 93.0358 125.76C92.6038 125.496 92.2678 125.132 92.0278 124.668C91.7878 124.196 91.6678 123.656 91.6678 123.048C91.6678 122.44 91.7878 121.904 92.0278 121.44C92.2678 120.968 92.6038 120.6 93.0358 120.336C93.4678 120.072 93.9598 119.94 94.5118 119.94C95.0638 119.94 95.5558 120.072 95.9878 120.336C96.4198 120.6 96.7558 120.968 96.9958 121.44C97.2358 121.904 97.3558 122.44 97.3558 123.048C97.3558 123.656 97.2358 124.196 96.9958 124.668C96.7558 125.132 96.4198 125.496 95.9878 125.76C95.5558 126.024 95.0638 126.156 94.5118 126.156ZM94.5118 125.496C95.1278 125.496 95.6198 125.272 95.9878 124.824C96.3558 124.368 96.5398 123.776 96.5398 123.048C96.5398 122.32 96.3558 121.732 95.9878 121.284C95.6198 120.828 95.1278 120.6 94.5118 120.6C93.8958 120.6 93.4038 120.828 93.0358 121.284C92.6678 121.732 92.4838 122.32 92.4838 123.048C92.4838 123.776 92.6678 124.368 93.0358 124.824C93.4038 125.272 93.8958 125.496 94.5118 125.496ZM100.796 126.156C100.308 126.156 99.8758 126.088 99.4998 125.952C99.1318 125.808 98.7438 125.568 98.3358 125.232C98.2638 125.184 98.2278 125.128 98.2278 125.064C98.2278 125.008 98.2558 124.952 98.3118 124.896L98.4678 124.728C98.5158 124.664 98.5758 124.632 98.6478 124.632C98.7038 124.632 98.7558 124.656 98.8038 124.704C99.1878 125 99.5278 125.208 99.8238 125.328C100.12 125.44 100.444 125.496 100.796 125.496C101.236 125.496 101.596 125.4 101.876 125.208C102.156 125.008 102.296 124.74 102.296 124.404C102.296 124.068 102.152 123.82 101.864 123.66C101.576 123.5 101.132 123.356 100.532 123.228C100.004 123.116 99.5878 123 99.2838 122.88C98.9878 122.752 98.7678 122.592 98.6238 122.4C98.4798 122.208 98.4078 121.956 98.4078 121.644C98.4078 121.132 98.6158 120.72 99.0318 120.408C99.4478 120.096 99.9718 119.94 100.604 119.94C101.036 119.94 101.42 119.996 101.756 120.108C102.1 120.212 102.444 120.388 102.788 120.636C102.86 120.692 102.896 120.752 102.896 120.816C102.896 120.856 102.876 120.908 102.836 120.972L102.692 121.152C102.652 121.216 102.596 121.248 102.524 121.248C102.46 121.248 102.404 121.228 102.356 121.188C102.028 120.956 101.736 120.8 101.48 120.72C101.232 120.64 100.948 120.6 100.628 120.6C100.188 120.6 99.8358 120.696 99.5718 120.888C99.3078 121.08 99.1758 121.324 99.1758 121.62C99.1758 121.804 99.2358 121.952 99.3558 122.064C99.4758 122.176 99.6478 122.272 99.8718 122.352C100.096 122.424 100.424 122.508 100.856 122.604C101.656 122.78 102.224 122.996 102.56 123.252C102.904 123.508 103.076 123.88 103.076 124.368C103.076 124.904 102.864 125.336 102.44 125.664C102.016 125.992 101.468 126.156 100.796 126.156ZM108.723 124.596C108.779 124.54 108.839 124.512 108.903 124.512C108.959 124.512 109.011 124.536 109.059 124.584L109.215 124.728C109.271 124.784 109.299 124.844 109.299 124.908C109.299 124.956 109.275 125.012 109.227 125.076C108.835 125.468 108.455 125.748 108.087 125.916C107.719 126.076 107.307 126.156 106.851 126.156C106.275 126.156 105.775 126.028 105.351 125.772C104.927 125.516 104.599 125.16 104.367 124.704C104.135 124.24 104.019 123.704 104.019 123.096C104.019 122.48 104.131 121.936 104.355 121.464C104.587 120.984 104.911 120.612 105.327 120.348C105.743 120.076 106.223 119.94 106.767 119.94C107.575 119.94 108.211 120.192 108.675 120.696C109.139 121.2 109.371 121.88 109.371 122.736V122.88C109.363 122.952 109.335 123.008 109.287 123.048C109.247 123.088 109.191 123.108 109.119 123.108H104.823C104.847 123.78 105.023 124.348 105.351 124.812C105.687 125.268 106.187 125.496 106.851 125.496C107.211 125.496 107.527 125.432 107.799 125.304C108.079 125.168 108.387 124.932 108.723 124.596ZM106.767 120.6C106.239 120.6 105.803 120.764 105.459 121.092C105.123 121.412 104.919 121.884 104.847 122.508H108.579C108.563 121.924 108.395 121.46 108.075 121.116C107.755 120.772 107.319 120.6 106.767 120.6ZM117.111 120.276C117.159 120.148 117.251 120.084 117.387 120.084H117.711C117.775 120.084 117.827 120.1 117.867 120.132C117.907 120.164 117.927 120.208 117.927 120.264L117.903 120.36L115.587 126.9C115.459 127.26 115.335 127.54 115.215 127.74C115.095 127.94 114.931 128.092 114.723 128.196C114.523 128.3 114.259 128.352 113.931 128.352C113.723 128.352 113.539 128.336 113.379 128.304C113.299 128.296 113.243 128.264 113.211 128.208C113.187 128.152 113.183 128.088 113.199 128.016L113.235 127.86C113.267 127.716 113.359 127.652 113.511 127.668C113.655 127.692 113.779 127.704 113.883 127.704C114.139 127.704 114.339 127.632 114.483 127.488C114.635 127.344 114.779 127.072 114.915 126.672L115.023 126.336L112.911 120.36L112.887 120.264C112.887 120.208 112.907 120.164 112.947 120.132C112.987 120.1 113.039 120.084 113.103 120.084H113.451C113.579 120.084 113.667 120.148 113.715 120.276L114.387 122.256C114.451 122.456 114.611 122.932 114.867 123.684L115.407 125.304C115.671 124.56 116.019 123.536 116.451 122.232L117.111 120.276ZM121.477 126.156C120.925 126.156 120.433 126.024 120.001 125.76C119.569 125.496 119.233 125.132 118.993 124.668C118.753 124.196 118.633 123.656 118.633 123.048C118.633 122.44 118.753 121.904 118.993 121.44C119.233 120.968 119.569 120.6 120.001 120.336C120.433 120.072 120.925 119.94 121.477 119.94C122.029 119.94 122.521 120.072 122.953 120.336C123.385 120.6 123.721 120.968 123.961 121.44C124.201 121.904 124.321 122.44 124.321 123.048C124.321 123.656 124.201 124.196 123.961 124.668C123.721 125.132 123.385 125.496 122.953 125.76C122.521 126.024 122.029 126.156 121.477 126.156ZM121.477 125.496C122.093 125.496 122.585 125.272 122.953 124.824C123.321 124.368 123.505 123.776 123.505 123.048C123.505 122.32 123.321 121.732 122.953 121.284C122.585 120.828 122.093 120.6 121.477 120.6C120.861 120.6 120.369 120.828 120.001 121.284C119.633 121.732 119.449 122.32 119.449 123.048C119.449 123.776 119.633 124.368 120.001 124.824C120.369 125.272 120.861 125.496 121.477 125.496ZM129.537 120.324C129.537 120.164 129.617 120.084 129.777 120.084H130.089C130.249 120.084 130.329 120.164 130.329 120.324V125.76C130.329 125.92 130.249 126 130.089 126H129.837C129.677 126 129.597 125.92 129.597 125.76V125.22C129.421 125.532 129.169 125.768 128.841 125.928C128.521 126.08 128.169 126.156 127.785 126.156C127.065 126.156 126.533 125.976 126.189 125.616C125.845 125.248 125.673 124.776 125.673 124.2V120.324C125.673 120.164 125.753 120.084 125.913 120.084H126.225C126.385 120.084 126.465 120.164 126.465 120.324V124.032C126.465 124.504 126.581 124.864 126.813 125.112C127.053 125.352 127.393 125.472 127.833 125.472C128.329 125.472 128.737 125.32 129.057 125.016C129.377 124.712 129.537 124.28 129.537 123.72V120.324ZM134.315 120.036C134.515 120.036 134.751 120.068 135.023 120.132C135.167 120.18 135.223 120.28 135.191 120.432L135.143 120.624C135.103 120.776 135.003 120.832 134.843 120.792C134.651 120.744 134.475 120.72 134.315 120.72C133.907 120.72 133.567 120.896 133.295 121.248C133.031 121.6 132.899 122.088 132.899 122.712V125.76C132.899 125.92 132.819 126 132.659 126H132.347C132.187 126 132.107 125.92 132.107 125.76V120.324C132.107 120.164 132.187 120.084 132.347 120.084H132.611C132.771 120.084 132.851 120.164 132.851 120.324V120.984C132.987 120.688 133.179 120.456 133.427 120.288C133.683 120.12 133.979 120.036 134.315 120.036ZM141.865 119.952C142.361 119.952 142.805 120.084 143.197 120.348C143.597 120.604 143.909 120.968 144.133 121.44C144.357 121.904 144.469 122.436 144.469 123.036C144.469 123.644 144.357 124.184 144.133 124.656C143.909 125.128 143.601 125.496 143.209 125.76C142.817 126.016 142.369 126.144 141.865 126.144C140.937 126.144 140.257 125.804 139.825 125.124V127.968C139.825 128.128 139.745 128.208 139.585 128.208H139.273C139.113 128.208 139.033 128.128 139.033 127.968V120.324C139.033 120.164 139.113 120.084 139.273 120.084H139.537C139.697 120.084 139.777 120.164 139.777 120.324V121.08C139.993 120.712 140.277 120.432 140.629 120.24C140.981 120.048 141.393 119.952 141.865 119.952ZM141.805 125.472C142.365 125.472 142.813 125.248 143.149 124.8C143.485 124.352 143.653 123.764 143.653 123.036C143.653 122.316 143.485 121.736 143.149 121.296C142.813 120.848 142.365 120.624 141.805 120.624C141.205 120.624 140.717 120.84 140.341 121.272C139.973 121.696 139.789 122.284 139.789 123.036C139.789 123.788 139.977 124.384 140.353 124.824C140.729 125.256 141.213 125.472 141.805 125.472ZM148.084 120.036C148.284 120.036 148.52 120.068 148.792 120.132C148.936 120.18 148.992 120.28 148.96 120.432L148.912 120.624C148.872 120.776 148.772 120.832 148.612 120.792C148.42 120.744 148.244 120.72 148.084 120.72C147.676 120.72 147.336 120.896 147.064 121.248C146.8 121.6 146.668 122.088 146.668 122.712V125.76C146.668 125.92 146.588 126 146.428 126H146.116C145.956 126 145.876 125.92 145.876 125.76V120.324C145.876 120.164 145.956 120.084 146.116 120.084H146.38C146.54 120.084 146.62 120.164 146.62 120.324V120.984C146.756 120.688 146.948 120.456 147.196 120.288C147.452 120.12 147.748 120.036 148.084 120.036ZM154.016 124.596C154.072 124.54 154.132 124.512 154.196 124.512C154.252 124.512 154.304 124.536 154.352 124.584L154.508 124.728C154.564 124.784 154.592 124.844 154.592 124.908C154.592 124.956 154.568 125.012 154.52 125.076C154.128 125.468 153.748 125.748 153.38 125.916C153.012 126.076 152.6 126.156 152.144 126.156C151.568 126.156 151.068 126.028 150.644 125.772C150.22 125.516 149.892 125.16 149.66 124.704C149.428 124.24 149.312 123.704 149.312 123.096C149.312 122.48 149.424 121.936 149.648 121.464C149.88 120.984 150.204 120.612 150.62 120.348C151.036 120.076 151.516 119.94 152.06 119.94C152.868 119.94 153.504 120.192 153.968 120.696C154.432 121.2 154.664 121.88 154.664 122.736V122.88C154.656 122.952 154.628 123.008 154.58 123.048C154.54 123.088 154.484 123.108 154.412 123.108H150.116C150.14 123.78 150.316 124.348 150.644 124.812C150.98 125.268 151.48 125.496 152.144 125.496C152.504 125.496 152.82 125.432 153.092 125.304C153.372 125.168 153.68 124.932 154.016 124.596ZM152.06 120.6C151.532 120.6 151.096 120.764 150.752 121.092C150.416 121.412 150.212 121.884 150.14 122.508H153.872C153.856 121.924 153.688 121.46 153.368 121.116C153.048 120.772 152.612 120.6 152.06 120.6ZM158.328 117.996C157.968 117.996 157.712 118.092 157.56 118.284C157.408 118.468 157.332 118.78 157.332 119.22V120.084H158.652C158.812 120.084 158.892 120.164 158.892 120.324V120.444C158.892 120.604 158.812 120.684 158.652 120.684H157.332V125.76C157.332 125.92 157.252 126 157.092 126H156.78C156.62 126 156.54 125.92 156.54 125.76V120.684H155.652C155.492 120.684 155.412 120.604 155.412 120.444V120.324C155.412 120.164 155.492 120.084 155.652 120.084H156.54V119.088C156.54 118.536 156.684 118.104 156.972 117.792C157.268 117.48 157.688 117.324 158.232 117.324C158.536 117.324 158.848 117.368 159.168 117.456C159.32 117.504 159.376 117.604 159.336 117.756L159.288 117.924C159.248 118.036 159.168 118.092 159.048 118.092C159.024 118.092 158.972 118.084 158.892 118.068C158.716 118.02 158.528 117.996 158.328 117.996ZM162.382 117.996C162.022 117.996 161.766 118.092 161.614 118.284C161.462 118.468 161.386 118.78 161.386 119.22V120.084H162.706C162.866 120.084 162.946 120.164 162.946 120.324V120.444C162.946 120.604 162.866 120.684 162.706 120.684H161.386V125.76C161.386 125.92 161.306 126 161.146 126H160.834C160.674 126 160.594 125.92 160.594 125.76V120.684H159.706C159.546 120.684 159.466 120.604 159.466 120.444V120.324C159.466 120.164 159.546 120.084 159.706 120.084H160.594V119.088C160.594 118.536 160.738 118.104 161.026 117.792C161.322 117.48 161.742 117.324 162.286 117.324C162.59 117.324 162.902 117.368 163.222 117.456C163.374 117.504 163.43 117.604 163.39 117.756L163.342 117.924C163.302 118.036 163.222 118.092 163.102 118.092C163.078 118.092 163.026 118.084 162.946 118.068C162.77 118.02 162.582 117.996 162.382 117.996ZM168.067 124.596C168.123 124.54 168.183 124.512 168.247 124.512C168.303 124.512 168.355 124.536 168.403 124.584L168.559 124.728C168.615 124.784 168.643 124.844 168.643 124.908C168.643 124.956 168.619 125.012 168.571 125.076C168.179 125.468 167.799 125.748 167.431 125.916C167.063 126.076 166.651 126.156 166.195 126.156C165.619 126.156 165.119 126.028 164.695 125.772C164.271 125.516 163.943 125.16 163.711 124.704C163.479 124.24 163.363 123.704 163.363 123.096C163.363 122.48 163.475 121.936 163.699 121.464C163.931 120.984 164.255 120.612 164.671 120.348C165.087 120.076 165.567 119.94 166.111 119.94C166.919 119.94 167.555 120.192 168.019 120.696C168.483 121.2 168.715 121.88 168.715 122.736V122.88C168.707 122.952 168.679 123.008 168.631 123.048C168.591 123.088 168.535 123.108 168.463 123.108H164.167C164.191 123.78 164.367 124.348 164.695 124.812C165.031 125.268 165.531 125.496 166.195 125.496C166.555 125.496 166.871 125.432 167.143 125.304C167.423 125.168 167.731 124.932 168.067 124.596ZM166.111 120.6C165.583 120.6 165.147 120.764 164.803 121.092C164.467 121.412 164.263 121.884 164.191 122.508H167.923C167.907 121.924 167.739 121.46 167.419 121.116C167.099 120.772 166.663 120.6 166.111 120.6ZM172.342 120.036C172.542 120.036 172.778 120.068 173.05 120.132C173.194 120.18 173.25 120.28 173.218 120.432L173.17 120.624C173.13 120.776 173.03 120.832 172.87 120.792C172.678 120.744 172.502 120.72 172.342 120.72C171.934 120.72 171.594 120.896 171.322 121.248C171.058 121.6 170.926 122.088 170.926 122.712V125.76C170.926 125.92 170.846 126 170.686 126H170.374C170.214 126 170.134 125.92 170.134 125.76V120.324C170.134 120.164 170.214 120.084 170.374 120.084H170.638C170.798 120.084 170.878 120.164 170.878 120.324V120.984C171.014 120.688 171.206 120.456 171.454 120.288C171.71 120.12 172.006 120.036 172.342 120.036ZM178.274 124.596C178.33 124.54 178.39 124.512 178.454 124.512C178.51 124.512 178.562 124.536 178.61 124.584L178.766 124.728C178.822 124.784 178.85 124.844 178.85 124.908C178.85 124.956 178.826 125.012 178.778 125.076C178.386 125.468 178.006 125.748 177.638 125.916C177.27 126.076 176.858 126.156 176.402 126.156C175.826 126.156 175.326 126.028 174.902 125.772C174.478 125.516 174.15 125.16 173.918 124.704C173.686 124.24 173.57 123.704 173.57 123.096C173.57 122.48 173.682 121.936 173.906 121.464C174.138 120.984 174.462 120.612 174.878 120.348C175.294 120.076 175.774 119.94 176.318 119.94C177.126 119.94 177.762 120.192 178.226 120.696C178.69 121.2 178.922 121.88 178.922 122.736V122.88C178.914 122.952 178.886 123.008 178.838 123.048C178.798 123.088 178.742 123.108 178.67 123.108H174.374C174.398 123.78 174.574 124.348 174.902 124.812C175.238 125.268 175.738 125.496 176.402 125.496C176.762 125.496 177.078 125.432 177.35 125.304C177.63 125.168 177.938 124.932 178.274 124.596ZM176.318 120.6C175.79 120.6 175.354 120.764 175.01 121.092C174.674 121.412 174.47 121.884 174.398 122.508H178.13C178.114 121.924 177.946 121.46 177.626 121.116C177.306 120.772 176.87 120.6 176.318 120.6ZM184.625 117.72C184.625 117.56 184.705 117.48 184.865 117.48H185.177C185.337 117.48 185.417 117.56 185.417 117.72V125.76C185.417 125.92 185.337 126 185.177 126H184.925C184.765 126 184.685 125.92 184.685 125.76V124.98C184.469 125.356 184.185 125.644 183.833 125.844C183.481 126.044 183.065 126.144 182.585 126.144C182.081 126.144 181.633 126.016 181.241 125.76C180.849 125.496 180.541 125.132 180.317 124.668C180.093 124.196 179.981 123.656 179.981 123.048C179.981 122.44 180.093 121.904 180.317 121.44C180.549 120.968 180.865 120.604 181.265 120.348C181.665 120.084 182.113 119.952 182.609 119.952C183.521 119.952 184.193 120.292 184.625 120.972V117.72ZM182.645 125.472C183.245 125.472 183.729 125.26 184.097 124.836C184.473 124.404 184.661 123.808 184.661 123.048C184.661 122.296 184.473 121.704 184.097 121.272C183.729 120.84 183.245 120.624 182.645 120.624C182.093 120.624 181.645 120.848 181.301 121.296C180.965 121.744 180.797 122.328 180.797 123.048C180.797 123.776 180.965 124.364 181.301 124.812C181.637 125.252 182.085 125.472 182.645 125.472ZM192.362 126.156C191.794 126.156 191.298 126.028 190.874 125.772C190.458 125.508 190.134 125.144 189.902 124.68C189.678 124.208 189.566 123.664 189.566 123.048C189.566 122.44 189.678 121.9 189.902 121.428C190.134 120.956 190.458 120.592 190.874 120.336C191.298 120.072 191.786 119.94 192.338 119.94C192.786 119.94 193.178 120.016 193.514 120.168C193.85 120.312 194.174 120.552 194.486 120.888C194.534 120.936 194.558 120.988 194.558 121.044C194.558 121.116 194.526 121.176 194.462 121.224L194.294 121.38C194.246 121.428 194.19 121.452 194.126 121.452C194.07 121.452 194.01 121.42 193.946 121.356C193.666 121.076 193.398 120.88 193.142 120.768C192.894 120.656 192.618 120.6 192.314 120.6C191.898 120.6 191.542 120.716 191.246 120.948C190.958 121.18 190.742 121.484 190.598 121.86C190.454 122.228 190.382 122.624 190.382 123.048C190.382 123.472 190.454 123.872 190.598 124.248C190.742 124.616 190.962 124.916 191.258 125.148C191.554 125.372 191.918 125.484 192.35 125.484C192.67 125.484 192.95 125.428 193.19 125.316C193.438 125.196 193.714 124.972 194.018 124.644C194.082 124.58 194.142 124.548 194.198 124.548C194.262 124.548 194.318 124.572 194.366 124.62L194.534 124.752C194.59 124.8 194.618 124.856 194.618 124.92C194.618 124.984 194.582 125.06 194.51 125.148C194.174 125.516 193.838 125.776 193.502 125.928C193.166 126.08 192.786 126.156 192.362 126.156ZM198.234 126.156C197.682 126.156 197.19 126.024 196.758 125.76C196.326 125.496 195.99 125.132 195.75 124.668C195.51 124.196 195.39 123.656 195.39 123.048C195.39 122.44 195.51 121.904 195.75 121.44C195.99 120.968 196.326 120.6 196.758 120.336C197.19 120.072 197.682 119.94 198.234 119.94C198.786 119.94 199.278 120.072 199.71 120.336C200.142 120.6 200.478 120.968 200.718 121.44C200.958 121.904 201.078 122.44 201.078 123.048C201.078 123.656 200.958 124.196 200.718 124.668C200.478 125.132 200.142 125.496 199.71 125.76C199.278 126.024 198.786 126.156 198.234 126.156ZM198.234 125.496C198.85 125.496 199.342 125.272 199.71 124.824C200.078 124.368 200.262 123.776 200.262 123.048C200.262 122.32 200.078 121.732 199.71 121.284C199.342 120.828 198.85 120.6 198.234 120.6C197.618 120.6 197.126 120.828 196.758 121.284C196.39 121.732 196.206 122.32 196.206 123.048C196.206 123.776 196.39 124.368 196.758 124.824C197.126 125.272 197.618 125.496 198.234 125.496ZM205.094 119.94C205.79 119.94 206.314 120.132 206.666 120.516C207.026 120.9 207.206 121.38 207.206 121.956V125.76C207.206 125.92 207.126 126 206.966 126H206.654C206.494 126 206.414 125.92 206.414 125.76V122.22C206.414 121.692 206.286 121.292 206.03 121.02C205.774 120.748 205.406 120.612 204.926 120.612C204.622 120.612 204.342 120.688 204.086 120.84C203.83 120.984 203.626 121.184 203.474 121.44C203.322 121.696 203.246 121.976 203.246 122.28V125.76C203.246 125.92 203.166 126 203.006 126H202.694C202.534 126 202.454 125.92 202.454 125.76V120.324C202.454 120.164 202.534 120.084 202.694 120.084H202.958C203.118 120.084 203.198 120.164 203.198 120.324V120.9C203.398 120.58 203.662 120.34 203.99 120.18C204.318 120.02 204.686 119.94 205.094 119.94ZM211.458 125.34C211.482 125.332 211.514 125.328 211.554 125.328C211.602 125.328 211.646 125.344 211.686 125.376C211.726 125.408 211.75 125.452 211.758 125.508L211.794 125.676C211.802 125.692 211.806 125.72 211.806 125.76C211.806 125.872 211.746 125.94 211.626 125.964C211.338 126.052 211.03 126.096 210.702 126.096C210.182 126.096 209.81 125.98 209.586 125.748C209.37 125.508 209.262 125.164 209.262 124.716V120.684H208.374C208.214 120.684 208.134 120.604 208.134 120.444V120.324C208.134 120.164 208.214 120.084 208.374 120.084H209.262V118.26C209.262 118.1 209.342 118.02 209.502 118.02H209.814C209.974 118.02 210.054 118.1 210.054 118.26V120.084H211.494C211.654 120.084 211.734 120.164 211.734 120.324V120.444C211.734 120.604 211.654 120.684 211.494 120.684H210.054V124.62C210.054 124.916 210.11 125.124 210.222 125.244C210.334 125.364 210.526 125.424 210.798 125.424C210.99 125.424 211.21 125.396 211.458 125.34ZM215.234 119.94C215.962 119.94 216.53 120.116 216.938 120.468C217.346 120.812 217.55 121.268 217.55 121.836V125.76C217.55 125.92 217.47 126 217.31 126H217.07C216.91 126 216.83 125.92 216.83 125.76V125.22C216.63 125.54 216.346 125.78 215.978 125.94C215.618 126.1 215.214 126.18 214.766 126.18C214.142 126.18 213.634 126.048 213.242 125.784C212.85 125.52 212.654 125.112 212.654 124.56C212.654 124.12 212.778 123.768 213.026 123.504C213.274 123.232 213.598 123.028 213.998 122.892C214.398 122.748 214.898 122.62 215.498 122.508L216.794 122.28V121.896C216.794 121.488 216.654 121.172 216.374 120.948C216.094 120.716 215.726 120.6 215.27 120.6C214.926 120.6 214.614 120.664 214.334 120.792C214.054 120.92 213.754 121.14 213.434 121.452C213.378 121.508 213.318 121.536 213.254 121.536C213.198 121.536 213.146 121.512 213.098 121.464L212.942 121.32C212.886 121.264 212.858 121.204 212.858 121.14C212.858 121.068 212.886 121.004 212.942 120.948C213.278 120.596 213.63 120.34 213.998 120.18C214.374 120.02 214.786 119.94 215.234 119.94ZM214.802 125.52C215.378 125.52 215.854 125.368 216.23 125.064C216.606 124.76 216.794 124.372 216.794 123.9V122.892L215.678 123.108C215.158 123.212 214.746 123.312 214.442 123.408C214.138 123.504 213.894 123.644 213.71 123.828C213.526 124.012 213.434 124.252 213.434 124.548C213.434 124.852 213.554 125.092 213.794 125.268C214.042 125.436 214.378 125.52 214.802 125.52ZM221.706 126.156C221.138 126.156 220.642 126.028 220.218 125.772C219.802 125.508 219.478 125.144 219.246 124.68C219.022 124.208 218.91 123.664 218.91 123.048C218.91 122.44 219.022 121.9 219.246 121.428C219.478 120.956 219.802 120.592 220.218 120.336C220.642 120.072 221.13 119.94 221.682 119.94C222.13 119.94 222.522 120.016 222.858 120.168C223.194 120.312 223.518 120.552 223.83 120.888C223.878 120.936 223.902 120.988 223.902 121.044C223.902 121.116 223.87 121.176 223.806 121.224L223.638 121.38C223.59 121.428 223.534 121.452 223.47 121.452C223.414 121.452 223.354 121.42 223.29 121.356C223.01 121.076 222.742 120.88 222.486 120.768C222.238 120.656 221.962 120.6 221.658 120.6C221.242 120.6 220.886 120.716 220.59 120.948C220.302 121.18 220.086 121.484 219.942 121.86C219.798 122.228 219.726 122.624 219.726 123.048C219.726 123.472 219.798 123.872 219.942 124.248C220.086 124.616 220.306 124.916 220.602 125.148C220.898 125.372 221.262 125.484 221.694 125.484C222.014 125.484 222.294 125.428 222.534 125.316C222.782 125.196 223.058 124.972 223.362 124.644C223.426 124.58 223.486 124.548 223.542 124.548C223.606 124.548 223.662 124.572 223.71 124.62L223.878 124.752C223.934 124.8 223.962 124.856 223.962 124.92C223.962 124.984 223.926 125.06 223.854 125.148C223.518 125.516 223.182 125.776 222.846 125.928C222.51 126.08 222.13 126.156 221.706 126.156ZM227.947 125.34C227.971 125.332 228.003 125.328 228.043 125.328C228.091 125.328 228.135 125.344 228.175 125.376C228.215 125.408 228.239 125.452 228.247 125.508L228.283 125.676C228.291 125.692 228.295 125.72 228.295 125.76C228.295 125.872 228.235 125.94 228.115 125.964C227.827 126.052 227.519 126.096 227.191 126.096C226.671 126.096 226.299 125.98 226.075 125.748C225.859 125.508 225.751 125.164 225.751 124.716V120.684H224.863C224.703 120.684 224.623 120.604 224.623 120.444V120.324C224.623 120.164 224.703 120.084 224.863 120.084H225.751V118.26C225.751 118.1 225.831 118.02 225.991 118.02H226.303C226.463 118.02 226.543 118.1 226.543 118.26V120.084H227.983C228.143 120.084 228.223 120.164 228.223 120.324V120.444C228.223 120.604 228.143 120.684 227.983 120.684H226.543V124.62C226.543 124.916 226.599 125.124 226.711 125.244C226.823 125.364 227.015 125.424 227.287 125.424C227.479 125.424 227.699 125.396 227.947 125.34ZM238.209 119.94C238.849 119.94 239.337 120.124 239.673 120.492C240.017 120.852 240.189 121.316 240.189 121.884V125.76C240.189 125.92 240.109 126 239.949 126H239.637C239.477 126 239.397 125.92 239.397 125.76V122.1C239.397 121.62 239.285 121.252 239.061 120.996C238.845 120.74 238.521 120.612 238.089 120.612C237.633 120.612 237.269 120.764 236.997 121.068C236.725 121.372 236.589 121.764 236.589 122.244V125.76C236.589 125.92 236.509 126 236.349 126H236.037C235.877 126 235.797 125.92 235.797 125.76V122.1C235.797 121.62 235.685 121.252 235.461 120.996C235.245 120.74 234.917 120.612 234.477 120.612C234.069 120.612 233.729 120.74 233.457 120.996C233.193 121.252 233.037 121.588 232.989 122.004V125.76C232.989 125.92 232.909 126 232.749 126H232.437C232.277 126 232.197 125.92 232.197 125.76V120.324C232.197 120.164 232.277 120.084 232.437 120.084H232.701C232.861 120.084 232.941 120.164 232.941 120.324V120.816C233.301 120.232 233.873 119.94 234.657 119.94C235.065 119.94 235.413 120.032 235.701 120.216C235.997 120.392 236.217 120.632 236.361 120.936C236.785 120.272 237.401 119.94 238.209 119.94ZM246.243 124.596C246.299 124.54 246.359 124.512 246.423 124.512C246.479 124.512 246.531 124.536 246.579 124.584L246.735 124.728C246.791 124.784 246.819 124.844 246.819 124.908C246.819 124.956 246.795 125.012 246.747 125.076C246.355 125.468 245.975 125.748 245.607 125.916C245.239 126.076 244.827 126.156 244.371 126.156C243.795 126.156 243.295 126.028 242.871 125.772C242.447 125.516 242.119 125.16 241.887 124.704C241.655 124.24 241.539 123.704 241.539 123.096C241.539 122.48 241.651 121.936 241.875 121.464C242.107 120.984 242.431 120.612 242.847 120.348C243.263 120.076 243.743 119.94 244.287 119.94C245.095 119.94 245.731 120.192 246.195 120.696C246.659 121.2 246.891 121.88 246.891 122.736V122.88C246.883 122.952 246.855 123.008 246.807 123.048C246.767 123.088 246.711 123.108 246.639 123.108H242.343C242.367 123.78 242.543 124.348 242.871 124.812C243.207 125.268 243.707 125.496 244.371 125.496C244.731 125.496 245.047 125.432 245.319 125.304C245.599 125.168 245.907 124.932 246.243 124.596ZM244.287 120.6C243.759 120.6 243.323 120.764 242.979 121.092C242.643 121.412 242.439 121.884 242.367 122.508H246.099C246.083 121.924 245.915 121.46 245.595 121.116C245.275 120.772 244.839 120.6 244.287 120.6ZM250.915 125.34C250.939 125.332 250.971 125.328 251.011 125.328C251.059 125.328 251.103 125.344 251.143 125.376C251.183 125.408 251.207 125.452 251.215 125.508L251.251 125.676C251.259 125.692 251.263 125.72 251.263 125.76C251.263 125.872 251.203 125.94 251.083 125.964C250.795 126.052 250.487 126.096 250.159 126.096C249.639 126.096 249.267 125.98 249.043 125.748C248.827 125.508 248.719 125.164 248.719 124.716V120.684H247.831C247.671 120.684 247.591 120.604 247.591 120.444V120.324C247.591 120.164 247.671 120.084 247.831 120.084H248.719V118.26C248.719 118.1 248.799 118.02 248.959 118.02H249.271C249.431 118.02 249.511 118.1 249.511 118.26V120.084H250.951C251.111 120.084 251.191 120.164 251.191 120.324V120.444C251.191 120.604 251.111 120.684 250.951 120.684H249.511V124.62C249.511 124.916 249.567 125.124 249.679 125.244C249.791 125.364 249.983 125.424 250.255 125.424C250.447 125.424 250.667 125.396 250.915 125.34ZM255.04 119.94C255.728 119.94 256.252 120.136 256.612 120.528C256.972 120.912 257.152 121.388 257.152 121.956V125.76C257.152 125.92 257.072 126 256.912 126H256.6C256.44 126 256.36 125.92 256.36 125.76V122.22C256.36 121.692 256.232 121.292 255.976 121.02C255.72 120.748 255.352 120.612 254.872 120.612C254.568 120.612 254.288 120.688 254.032 120.84C253.776 120.984 253.572 121.184 253.42 121.44C253.268 121.696 253.192 121.976 253.192 122.28V125.76C253.192 125.92 253.112 126 252.952 126H252.64C252.48 126 252.4 125.92 252.4 125.76V117.72C252.4 117.56 252.48 117.48 252.64 117.48H252.952C253.112 117.48 253.192 117.56 253.192 117.72V120.852C253.384 120.548 253.64 120.32 253.96 120.168C254.288 120.016 254.648 119.94 255.04 119.94ZM261.352 126.156C260.8 126.156 260.308 126.024 259.876 125.76C259.444 125.496 259.108 125.132 258.868 124.668C258.628 124.196 258.508 123.656 258.508 123.048C258.508 122.44 258.628 121.904 258.868 121.44C259.108 120.968 259.444 120.6 259.876 120.336C260.308 120.072 260.8 119.94 261.352 119.94C261.904 119.94 262.396 120.072 262.828 120.336C263.26 120.6 263.596 120.968 263.836 121.44C264.076 121.904 264.196 122.44 264.196 123.048C264.196 123.656 264.076 124.196 263.836 124.668C263.596 125.132 263.26 125.496 262.828 125.76C262.396 126.024 261.904 126.156 261.352 126.156ZM261.352 125.496C261.968 125.496 262.46 125.272 262.828 124.824C263.196 124.368 263.38 123.776 263.38 123.048C263.38 122.32 263.196 121.732 262.828 121.284C262.46 120.828 261.968 120.6 261.352 120.6C260.736 120.6 260.244 120.828 259.876 121.284C259.508 121.732 259.324 122.32 259.324 123.048C259.324 123.776 259.508 124.368 259.876 124.824C260.244 125.272 260.736 125.496 261.352 125.496ZM269.914 117.72C269.914 117.56 269.994 117.48 270.154 117.48H270.466C270.626 117.48 270.706 117.56 270.706 117.72V125.76C270.706 125.92 270.626 126 270.466 126H270.214C270.054 126 269.974 125.92 269.974 125.76V124.98C269.758 125.356 269.474 125.644 269.122 125.844C268.77 126.044 268.354 126.144 267.874 126.144C267.37 126.144 266.922 126.016 266.53 125.76C266.138 125.496 265.83 125.132 265.606 124.668C265.382 124.196 265.27 123.656 265.27 123.048C265.27 122.44 265.382 121.904 265.606 121.44C265.838 120.968 266.154 120.604 266.554 120.348C266.954 120.084 267.402 119.952 267.898 119.952C268.81 119.952 269.482 120.292 269.914 120.972V117.72ZM267.934 125.472C268.534 125.472 269.018 125.26 269.386 124.836C269.762 124.404 269.95 123.808 269.95 123.048C269.95 122.296 269.762 121.704 269.386 121.272C269.018 120.84 268.534 120.624 267.934 120.624C267.382 120.624 266.934 120.848 266.59 121.296C266.254 121.744 266.086 122.328 266.086 123.048C266.086 123.776 266.254 124.364 266.59 124.812C266.926 125.252 267.374 125.472 267.934 125.472Z" fill="#464646"/>
</svg>
