<svg width="344" height="150" viewBox="0 0 344 150" fill="none" xmlns="http://www.w3.org/2000/svg">
<rect width="344" height="150" fill="#F5F5F5"/>
<path d="M75.348 54.224C74.3587 54.224 73.5 54 72.772 53.552C72.0533 53.104 71.498 52.488 71.106 51.704C70.7233 50.9107 70.532 50.0147 70.532 49.016C70.532 48.0173 70.7233 47.1307 71.106 46.356C71.4887 45.572 72.044 44.956 72.772 44.508C73.5 44.06 74.3727 43.836 75.39 43.836C76.006 43.836 76.566 43.9247 77.07 44.102C77.574 44.27 78.0827 44.5547 78.596 44.956C78.736 45.068 78.806 45.194 78.806 45.334C78.806 45.4273 78.7593 45.5347 78.666 45.656L78.358 46.02C78.246 46.1507 78.1293 46.216 78.008 46.216C77.9147 46.216 77.798 46.1693 77.658 46.076C77.238 45.7493 76.8507 45.5253 76.496 45.404C76.1507 45.2827 75.7773 45.222 75.376 45.222C74.7227 45.222 74.1533 45.3807 73.668 45.698C73.1827 46.0153 72.8093 46.4633 72.548 47.042C72.2867 47.6113 72.156 48.2693 72.156 49.016C72.156 49.7627 72.2867 50.4253 72.548 51.004C72.8093 51.5827 73.178 52.0353 73.654 52.362C74.13 52.6793 74.6853 52.838 75.32 52.838C75.796 52.838 76.2207 52.754 76.594 52.586C76.9673 52.418 77.3733 52.1473 77.812 51.774C77.9333 51.6713 78.05 51.62 78.162 51.62C78.2833 51.62 78.4 51.6853 78.512 51.816L78.82 52.166C78.9133 52.2687 78.96 52.376 78.96 52.488C78.96 52.6467 78.8853 52.7867 78.736 52.908C78.1947 53.3747 77.658 53.7107 77.126 53.916C76.6033 54.1213 76.0107 54.224 75.348 54.224ZM83.3956 54.21C82.7143 54.21 82.1076 54.056 81.5756 53.748C81.0529 53.44 80.6423 53.0107 80.3436 52.46C80.0449 51.9 79.8956 51.2607 79.8956 50.542C79.8956 49.8233 80.0449 49.1887 80.3436 48.638C80.6423 48.0873 81.0529 47.658 81.5756 47.35C82.1076 47.042 82.7143 46.888 83.3956 46.888C84.0676 46.888 84.6696 47.042 85.2016 47.35C85.7336 47.658 86.1489 48.092 86.4476 48.652C86.7463 49.2027 86.8956 49.8327 86.8956 50.542C86.8956 51.2607 86.7463 51.9 86.4476 52.46C86.1489 53.0107 85.7336 53.44 85.2016 53.748C84.6696 54.056 84.0676 54.21 83.3956 54.21ZM83.3956 52.964C83.9929 52.964 84.4736 52.7447 84.8376 52.306C85.2016 51.858 85.3836 51.27 85.3836 50.542C85.3836 49.8233 85.2016 49.2447 84.8376 48.806C84.4736 48.3673 83.9929 48.148 83.3956 48.148C82.7983 48.148 82.3176 48.3673 81.9536 48.806C81.5896 49.2447 81.4076 49.8233 81.4076 50.542C81.4076 51.27 81.5896 51.858 81.9536 52.306C82.3176 52.7447 82.7983 52.964 83.3956 52.964ZM92.5856 47.588C92.5856 47.4293 92.6276 47.308 92.7116 47.224C92.8049 47.14 92.9263 47.098 93.0756 47.098H93.5796C93.7383 47.098 93.8596 47.14 93.9436 47.224C94.0276 47.308 94.0696 47.4293 94.0696 47.588V53.51C94.0696 53.6593 94.0276 53.7807 93.9436 53.874C93.8596 53.958 93.7383 54 93.5796 54H93.2016C93.0523 54 92.9309 53.958 92.8376 53.874C92.7536 53.7807 92.7116 53.6593 92.7116 53.51V53.188C92.5249 53.5053 92.2543 53.7573 91.8996 53.944C91.5449 54.1213 91.1249 54.21 90.6396 54.21C89.8183 54.21 89.2069 54.0093 88.8056 53.608C88.4043 53.1973 88.2036 52.656 88.2036 51.984V47.588C88.2036 47.4293 88.2456 47.308 88.3296 47.224C88.4229 47.14 88.5443 47.098 88.6936 47.098H89.1976C89.3563 47.098 89.4776 47.14 89.5616 47.224C89.6456 47.308 89.6876 47.4293 89.6876 47.588V51.592C89.6876 52.0213 89.7949 52.3527 90.0096 52.586C90.2336 52.81 90.5556 52.922 90.9756 52.922C91.4609 52.922 91.8483 52.782 92.1376 52.502C92.4363 52.222 92.5856 51.816 92.5856 51.284V47.588ZM99.2918 46.888C100.085 46.888 100.692 47.112 101.112 47.56C101.541 47.9987 101.756 48.568 101.756 49.268V53.51C101.756 53.6593 101.714 53.7807 101.63 53.874C101.546 53.958 101.424 54 101.266 54H100.762C100.612 54 100.491 53.958 100.398 53.874C100.314 53.7807 100.272 53.6593 100.272 53.51V49.73C100.272 49.226 100.146 48.8387 99.8938 48.568C99.6512 48.2973 99.3012 48.162 98.8438 48.162C98.3958 48.162 98.0178 48.316 97.7098 48.624C97.4112 48.932 97.2618 49.3193 97.2618 49.786V53.51C97.2618 53.6593 97.2198 53.7807 97.1358 53.874C97.0518 53.958 96.9305 54 96.7718 54H96.2678C96.1185 54 95.9972 53.958 95.9038 53.874C95.8198 53.7807 95.7778 53.6593 95.7778 53.51V47.588C95.7778 47.4293 95.8198 47.308 95.9038 47.224C95.9972 47.14 96.1185 47.098 96.2678 47.098H96.6738C96.8325 47.098 96.9538 47.14 97.0378 47.224C97.1218 47.308 97.1638 47.4293 97.1638 47.588V47.952C97.3878 47.6067 97.6818 47.3453 98.0458 47.168C98.4098 46.9813 98.8252 46.888 99.2918 46.888ZM106.643 52.824C106.671 52.8147 106.713 52.81 106.769 52.81C107.002 52.81 107.142 52.9453 107.189 53.216L107.231 53.44C107.24 53.468 107.245 53.5147 107.245 53.58C107.245 53.8133 107.114 53.9627 106.853 54.028C106.48 54.112 106.139 54.154 105.831 54.154C105.168 54.154 104.688 54 104.389 53.692C104.1 53.384 103.955 52.922 103.955 52.306V48.232H103.185C103.036 48.232 102.914 48.19 102.821 48.106C102.737 48.0127 102.695 47.8913 102.695 47.742V47.588C102.695 47.4293 102.737 47.308 102.821 47.224C102.914 47.14 103.036 47.098 103.185 47.098H103.955V45.362C103.955 45.2033 103.997 45.082 104.081 44.998C104.174 44.914 104.296 44.872 104.445 44.872H104.949C105.108 44.872 105.229 44.914 105.313 44.998C105.397 45.082 105.439 45.2033 105.439 45.362V47.098H106.699C106.858 47.098 106.979 47.14 107.063 47.224C107.147 47.308 107.189 47.4293 107.189 47.588V47.742C107.189 47.8913 107.147 48.0127 107.063 48.106C106.979 48.19 106.858 48.232 106.699 48.232H105.439V52.124C105.439 52.3947 105.495 52.586 105.607 52.698C105.728 52.81 105.92 52.866 106.181 52.866C106.293 52.866 106.447 52.852 106.643 52.824ZM111.519 47.028C111.724 47.028 111.934 47.0513 112.149 47.098C112.401 47.154 112.527 47.3033 112.527 47.546C112.527 47.6113 112.522 47.658 112.513 47.686L112.443 48.022C112.387 48.2833 112.247 48.414 112.023 48.414L111.897 48.4C111.729 48.372 111.579 48.358 111.449 48.358C110.982 48.358 110.604 48.5447 110.315 48.918C110.035 49.282 109.895 49.7907 109.895 50.444V53.51C109.895 53.6593 109.853 53.7807 109.769 53.874C109.685 53.958 109.563 54 109.405 54H108.901C108.751 54 108.63 53.958 108.537 53.874C108.453 53.7807 108.411 53.6593 108.411 53.51V47.588C108.411 47.4293 108.453 47.308 108.537 47.224C108.63 47.14 108.751 47.098 108.901 47.098H109.307C109.465 47.098 109.587 47.14 109.671 47.224C109.755 47.308 109.797 47.4293 109.797 47.588V48.134C109.965 47.7887 110.193 47.518 110.483 47.322C110.772 47.126 111.117 47.028 111.519 47.028ZM118.107 47.504C118.191 47.2333 118.373 47.098 118.653 47.098H119.157C119.297 47.098 119.405 47.1307 119.479 47.196C119.554 47.2613 119.591 47.35 119.591 47.462C119.591 47.518 119.577 47.5833 119.549 47.658L117.043 54.854C116.819 55.5073 116.539 55.9693 116.203 56.24C115.877 56.52 115.41 56.66 114.803 56.66C114.523 56.66 114.285 56.6413 114.089 56.604C113.959 56.5947 113.861 56.548 113.795 56.464C113.73 56.3893 113.697 56.296 113.697 56.184C113.697 56.1187 113.702 56.0673 113.711 56.03L113.753 55.848C113.819 55.5867 113.959 55.456 114.173 55.456C114.257 55.456 114.337 55.4607 114.411 55.47C114.486 55.4793 114.561 55.484 114.635 55.484C114.906 55.484 115.13 55.414 115.307 55.274C115.494 55.134 115.648 54.8773 115.769 54.504L115.811 54.392L113.417 47.658C113.389 47.5833 113.375 47.5133 113.375 47.448C113.375 47.336 113.413 47.252 113.487 47.196C113.571 47.1307 113.683 47.098 113.823 47.098H114.355C114.645 47.098 114.831 47.2333 114.915 47.504L115.461 49.142C115.872 50.318 116.222 51.396 116.511 52.376L116.917 51.13C116.983 50.934 117.081 50.626 117.211 50.206C117.342 49.786 117.459 49.4267 117.561 49.128L118.107 47.504ZM126.9 54.21C126.218 54.21 125.612 54.056 125.08 53.748C124.557 53.44 124.146 53.0107 123.848 52.46C123.549 51.9 123.399 51.2607 123.399 50.542C123.399 49.8233 123.549 49.1887 123.848 48.638C124.146 48.0873 124.557 47.658 125.08 47.35C125.612 47.042 126.218 46.888 126.9 46.888C127.572 46.888 128.174 47.042 128.706 47.35C129.238 47.658 129.653 48.092 129.952 48.652C130.25 49.2027 130.4 49.8327 130.4 50.542C130.4 51.2607 130.25 51.9 129.952 52.46C129.653 53.0107 129.238 53.44 128.706 53.748C128.174 54.056 127.572 54.21 126.9 54.21ZM126.9 52.964C127.497 52.964 127.978 52.7447 128.342 52.306C128.706 51.858 128.888 51.27 128.888 50.542C128.888 49.8233 128.706 49.2447 128.342 48.806C127.978 48.3673 127.497 48.148 126.9 48.148C126.302 48.148 125.822 48.3673 125.458 48.806C125.094 49.2447 124.912 49.8233 124.912 50.542C124.912 51.27 125.094 51.858 125.458 52.306C125.822 52.7447 126.302 52.964 126.9 52.964ZM134.609 45.096C134.282 45.096 134.044 45.1753 133.895 45.334C133.745 45.4927 133.671 45.7633 133.671 46.146V47.098H134.805C134.963 47.098 135.085 47.14 135.169 47.224C135.253 47.308 135.295 47.4293 135.295 47.588V47.742C135.295 47.8913 135.253 48.0127 135.169 48.106C135.085 48.19 134.963 48.232 134.805 48.232H133.671V53.51C133.671 53.6593 133.629 53.7807 133.545 53.874C133.461 53.958 133.339 54 133.181 54H132.677C132.527 54 132.406 53.958 132.313 53.874C132.229 53.7807 132.187 53.6593 132.187 53.51V48.232H131.445C131.295 48.232 131.174 48.19 131.081 48.106C130.997 48.0127 130.955 47.8913 130.955 47.742V47.588C130.955 47.4293 130.997 47.308 131.081 47.224C131.174 47.14 131.295 47.098 131.445 47.098H132.187V46.048C132.187 45.3293 132.369 44.788 132.733 44.424C133.106 44.0507 133.643 43.864 134.343 43.864C134.66 43.864 134.982 43.8967 135.309 43.962C135.551 44.0273 135.673 44.1767 135.673 44.41C135.673 44.4753 135.668 44.5267 135.659 44.564L135.617 44.76C135.561 45.0027 135.379 45.124 135.071 45.124L134.903 45.11C134.837 45.1007 134.739 45.096 134.609 45.096ZM143.21 46.916C143.798 46.916 144.32 47.0653 144.778 47.364C145.244 47.6627 145.608 48.0873 145.87 48.638C146.131 49.1887 146.262 49.8233 146.262 50.542C146.262 51.27 146.131 51.9093 145.87 52.46C145.608 53.0107 145.244 53.4353 144.778 53.734C144.311 54.0327 143.788 54.182 143.21 54.182C142.174 54.182 141.413 53.7947 140.928 53.02V53.51C140.928 53.6593 140.886 53.7807 140.802 53.874C140.718 53.958 140.596 54 140.438 54H140.032C139.882 54 139.761 53.958 139.668 53.874C139.584 53.7807 139.542 53.6593 139.542 53.51V44.55C139.542 44.3913 139.584 44.27 139.668 44.186C139.761 44.102 139.882 44.06 140.032 44.06H140.535C140.694 44.06 140.816 44.102 140.9 44.186C140.984 44.27 141.026 44.3913 141.026 44.55V47.966C141.52 47.266 142.248 46.916 143.21 46.916ZM142.902 52.894C143.462 52.894 143.91 52.684 144.246 52.264C144.582 51.8347 144.75 51.2607 144.75 50.542C144.75 49.8327 144.582 49.2633 144.246 48.834C143.919 48.4047 143.476 48.19 142.916 48.19C142.346 48.19 141.88 48.4047 141.516 48.834C141.152 49.254 140.97 49.8233 140.97 50.542C140.97 51.2793 141.152 51.858 141.516 52.278C141.88 52.6887 142.342 52.894 142.902 52.894ZM148.364 45.754C148.093 45.754 147.865 45.6653 147.678 45.488C147.491 45.3013 147.398 45.082 147.398 44.83C147.398 44.5687 147.491 44.3493 147.678 44.172C147.865 43.9947 148.093 43.906 148.364 43.906C148.635 43.906 148.863 43.9947 149.05 44.172C149.237 44.3493 149.33 44.5687 149.33 44.83C149.33 45.082 149.237 45.3013 149.05 45.488C148.863 45.6653 148.635 45.754 148.364 45.754ZM148.098 54C147.949 54 147.827 53.958 147.734 53.874C147.65 53.7807 147.608 53.6593 147.608 53.51V47.588C147.608 47.4293 147.65 47.308 147.734 47.224C147.827 47.14 147.949 47.098 148.098 47.098H148.602C148.761 47.098 148.882 47.14 148.966 47.224C149.05 47.308 149.092 47.4293 149.092 47.588V53.51C149.092 53.6593 149.05 53.7807 148.966 53.874C148.882 53.958 148.761 54 148.602 54H148.098ZM153.915 47.028C154.12 47.028 154.33 47.0513 154.545 47.098C154.797 47.154 154.923 47.3033 154.923 47.546C154.923 47.6113 154.918 47.658 154.909 47.686L154.839 48.022C154.783 48.2833 154.643 48.414 154.419 48.414L154.293 48.4C154.125 48.372 153.976 48.358 153.845 48.358C153.378 48.358 153 48.5447 152.711 48.918C152.431 49.282 152.291 49.7907 152.291 50.444V53.51C152.291 53.6593 152.249 53.7807 152.165 53.874C152.081 53.958 151.96 54 151.801 54H151.297C151.148 54 151.026 53.958 150.933 53.874C150.849 53.7807 150.807 53.6593 150.807 53.51V47.588C150.807 47.4293 150.849 47.308 150.933 47.224C151.026 47.14 151.148 47.098 151.297 47.098H151.703C151.862 47.098 151.983 47.14 152.067 47.224C152.151 47.308 152.193 47.4293 152.193 47.588V48.134C152.361 47.7887 152.59 47.518 152.879 47.322C153.168 47.126 153.514 47.028 153.915 47.028ZM159.499 52.824C159.527 52.8147 159.569 52.81 159.625 52.81C159.858 52.81 159.998 52.9453 160.045 53.216L160.087 53.44C160.096 53.468 160.101 53.5147 160.101 53.58C160.101 53.8133 159.97 53.9627 159.709 54.028C159.335 54.112 158.995 54.154 158.687 54.154C158.024 54.154 157.543 54 157.245 53.692C156.955 53.384 156.811 52.922 156.811 52.306V48.232H156.041C155.891 48.232 155.77 48.19 155.677 48.106C155.593 48.0127 155.551 47.8913 155.551 47.742V47.588C155.551 47.4293 155.593 47.308 155.677 47.224C155.77 47.14 155.891 47.098 156.041 47.098H156.811V45.362C156.811 45.2033 156.853 45.082 156.937 44.998C157.03 44.914 157.151 44.872 157.301 44.872H157.805C157.963 44.872 158.085 44.914 158.169 44.998C158.253 45.082 158.295 45.2033 158.295 45.362V47.098H159.555C159.713 47.098 159.835 47.14 159.919 47.224C160.003 47.308 160.045 47.4293 160.045 47.588V47.742C160.045 47.8913 160.003 48.0127 159.919 48.106C159.835 48.19 159.713 48.232 159.555 48.232H158.295V52.124C158.295 52.3947 158.351 52.586 158.463 52.698C158.584 52.81 158.775 52.866 159.037 52.866C159.149 52.866 159.303 52.852 159.499 52.824ZM164.78 46.888C165.573 46.888 166.18 47.112 166.6 47.56C167.029 47.9987 167.244 48.568 167.244 49.268V53.51C167.244 53.6593 167.202 53.7807 167.118 53.874C167.034 53.958 166.913 54 166.754 54H166.25C166.101 54 165.979 53.958 165.886 53.874C165.802 53.7807 165.76 53.6593 165.76 53.51V49.73C165.76 49.226 165.634 48.8387 165.382 48.568C165.139 48.2973 164.789 48.162 164.332 48.162C163.884 48.162 163.506 48.316 163.198 48.624C162.899 48.932 162.75 49.3193 162.75 49.786V53.51C162.75 53.6593 162.708 53.7807 162.624 53.874C162.54 53.958 162.419 54 162.26 54H161.756C161.607 54 161.485 53.958 161.392 53.874C161.308 53.7807 161.266 53.6593 161.266 53.51V44.55C161.266 44.3913 161.308 44.27 161.392 44.186C161.485 44.102 161.607 44.06 161.756 44.06H162.26C162.419 44.06 162.54 44.102 162.624 44.186C162.708 44.27 162.75 44.3913 162.75 44.55V47.812C162.974 47.5133 163.259 47.2847 163.604 47.126C163.959 46.9673 164.351 46.888 164.78 46.888Z" fill="#464646"/>
<rect x="70.5" y="62.5" width="203" height="47" rx="3.5" fill="white"/>
<path d="M83.136 91.24C82.2933 91.24 81.5307 91.112 80.848 90.856C80.176 90.5893 79.4667 90.1573 78.72 89.56C78.624 89.4747 78.576 89.3947 78.576 89.32C78.576 89.256 78.608 89.1867 78.672 89.112L78.928 88.808C78.9813 88.7227 79.0613 88.68 79.168 88.68C79.2533 88.68 79.3227 88.7067 79.376 88.76C80.1333 89.3467 80.7947 89.7467 81.36 89.96C81.9253 90.1627 82.5173 90.264 83.136 90.264C84 90.264 84.704 90.0507 85.248 89.624C85.792 89.1867 86.064 88.5947 86.064 87.848C86.064 87.368 85.936 86.984 85.68 86.696C85.424 86.408 85.072 86.184 84.624 86.024C84.1867 85.864 83.5627 85.6933 82.752 85.512C81.7813 85.2987 81.024 85.0693 80.48 84.824C79.9467 84.5787 79.5573 84.2693 79.312 83.896C79.0667 83.5227 78.944 83.0427 78.944 82.456C78.944 81.8373 79.12 81.2987 79.472 80.84C79.8347 80.3707 80.3147 80.0133 80.912 79.768C81.5093 79.5227 82.1547 79.4 82.848 79.4C83.6053 79.4 84.2933 79.512 84.912 79.736C85.5413 79.96 86.16 80.3173 86.768 80.808C86.864 80.872 86.912 80.9467 86.912 81.032C86.912 81.096 86.88 81.1707 86.816 81.256L86.576 81.544C86.5227 81.6293 86.4427 81.672 86.336 81.672C86.2507 81.672 86.176 81.6453 86.112 81.592C85.568 81.144 85.04 80.8293 84.528 80.648C84.0267 80.4667 83.472 80.376 82.864 80.376C82.3093 80.376 81.8187 80.4667 81.392 80.648C80.9653 80.8187 80.6293 81.0587 80.384 81.368C80.1493 81.6773 80.032 82.0293 80.032 82.424C80.032 82.8507 80.1493 83.192 80.384 83.448C80.6293 83.704 80.9653 83.9067 81.392 84.056C81.8293 84.2053 82.464 84.376 83.296 84.568C84.256 84.792 85.0133 85.0427 85.568 85.32C86.1333 85.5973 86.544 85.9387 86.8 86.344C87.056 86.7387 87.184 87.2293 87.184 87.816C87.184 88.4987 87.008 89.1013 86.656 89.624C86.3147 90.136 85.8347 90.536 85.216 90.824C84.5973 91.1013 83.904 91.24 83.136 91.24ZM94.8968 89.128C94.9714 89.0533 95.0514 89.016 95.1368 89.016C95.2114 89.016 95.2808 89.048 95.3448 89.112L95.5528 89.304C95.6274 89.3787 95.6648 89.4587 95.6648 89.544C95.6648 89.608 95.6328 89.6827 95.5688 89.768C95.0461 90.2907 94.5394 90.664 94.0488 90.888C93.5581 91.1013 93.0088 91.208 92.4008 91.208C91.6328 91.208 90.9661 91.0373 90.4008 90.696C89.8354 90.3547 89.3981 89.88 89.0888 89.272C88.7794 88.6533 88.6248 87.9387 88.6248 87.128C88.6248 86.3067 88.7741 85.5813 89.0728 84.952C89.3821 84.312 89.8141 83.816 90.3688 83.464C90.9234 83.1013 91.5634 82.92 92.2888 82.92C93.3661 82.92 94.2141 83.256 94.8328 83.928C95.4514 84.6 95.7608 85.5067 95.7608 86.648V86.84C95.7501 86.936 95.7128 87.0107 95.6488 87.064C95.5954 87.1173 95.5208 87.144 95.4248 87.144H89.6968C89.7288 88.04 89.9634 88.7973 90.4008 89.416C90.8488 90.024 91.5154 90.328 92.4008 90.328C92.8808 90.328 93.3021 90.2427 93.6648 90.072C94.0381 89.8907 94.4488 89.576 94.8968 89.128ZM92.2888 83.8C91.5848 83.8 91.0034 84.0187 90.5448 84.456C90.0968 84.8827 89.8248 85.512 89.7288 86.344H94.7048C94.6834 85.5653 94.4594 84.9467 94.0328 84.488C93.6061 84.0293 93.0248 83.8 92.2888 83.8ZM97.9888 91C97.7754 91 97.6688 90.8933 97.6688 90.68V79.96C97.6688 79.7467 97.7754 79.64 97.9888 79.64H98.4048C98.6181 79.64 98.7248 79.7467 98.7248 79.96V90.68C98.7248 90.8933 98.6181 91 98.4048 91H97.9888ZM106.85 89.128C106.925 89.0533 107.005 89.016 107.09 89.016C107.165 89.016 107.234 89.048 107.298 89.112L107.506 89.304C107.581 89.3787 107.618 89.4587 107.618 89.544C107.618 89.608 107.586 89.6827 107.522 89.768C106.999 90.2907 106.493 90.664 106.002 90.888C105.511 91.1013 104.962 91.208 104.354 91.208C103.586 91.208 102.919 91.0373 102.354 90.696C101.789 90.3547 101.351 89.88 101.042 89.272C100.733 88.6533 100.578 87.9387 100.578 87.128C100.578 86.3067 100.727 85.5813 101.026 84.952C101.335 84.312 101.767 83.816 102.322 83.464C102.877 83.1013 103.517 82.92 104.242 82.92C105.319 82.92 106.167 83.256 106.786 83.928C107.405 84.6 107.714 85.5067 107.714 86.648V86.84C107.703 86.936 107.666 87.0107 107.602 87.064C107.549 87.1173 107.474 87.144 107.378 87.144H101.65C101.682 88.04 101.917 88.7973 102.354 89.416C102.802 90.024 103.469 90.328 104.354 90.328C104.834 90.328 105.255 90.2427 105.618 90.072C105.991 89.8907 106.402 89.576 106.85 89.128ZM104.242 83.8C103.538 83.8 102.957 84.0187 102.498 84.456C102.05 84.8827 101.778 85.512 101.682 86.344H106.658C106.637 85.5653 106.413 84.9467 105.986 84.488C105.559 84.0293 104.978 83.8 104.242 83.8ZM112.822 91.208C112.064 91.208 111.403 91.0373 110.838 90.696C110.283 90.344 109.851 89.8587 109.542 89.24C109.243 88.6107 109.094 87.8853 109.094 87.064C109.094 86.2533 109.243 85.5333 109.542 84.904C109.851 84.2747 110.283 83.7893 110.838 83.448C111.403 83.096 112.054 82.92 112.79 82.92C113.387 82.92 113.91 83.0213 114.358 83.224C114.806 83.416 115.238 83.736 115.654 84.184C115.718 84.248 115.75 84.3173 115.75 84.392C115.75 84.488 115.707 84.568 115.622 84.632L115.398 84.84C115.334 84.904 115.259 84.936 115.174 84.936C115.099 84.936 115.019 84.8933 114.934 84.808C114.56 84.4347 114.203 84.1733 113.862 84.024C113.531 83.8747 113.163 83.8 112.758 83.8C112.203 83.8 111.728 83.9547 111.334 84.264C110.95 84.5733 110.662 84.9787 110.47 85.48C110.278 85.9707 110.182 86.4987 110.182 87.064C110.182 87.6293 110.278 88.1627 110.47 88.664C110.662 89.1547 110.955 89.5547 111.35 89.864C111.744 90.1627 112.23 90.312 112.806 90.312C113.232 90.312 113.606 90.2373 113.926 90.088C114.256 89.928 114.624 89.6293 115.03 89.192C115.115 89.1067 115.195 89.064 115.27 89.064C115.355 89.064 115.43 89.096 115.494 89.16L115.718 89.336C115.792 89.4 115.83 89.4747 115.83 89.56C115.83 89.6453 115.782 89.7467 115.686 89.864C115.238 90.3547 114.79 90.7013 114.342 90.904C113.894 91.1067 113.387 91.208 112.822 91.208ZM121.142 90.12C121.174 90.1093 121.217 90.104 121.27 90.104C121.334 90.104 121.393 90.1253 121.446 90.168C121.5 90.2107 121.532 90.2693 121.542 90.344L121.59 90.568C121.601 90.5893 121.606 90.6267 121.606 90.68C121.606 90.8293 121.526 90.92 121.366 90.952C120.982 91.0693 120.572 91.128 120.134 91.128C119.441 91.128 118.945 90.9733 118.646 90.664C118.358 90.344 118.214 89.8853 118.214 89.288V83.912H117.03C116.817 83.912 116.71 83.8053 116.71 83.592V83.432C116.71 83.2187 116.817 83.112 117.03 83.112H118.214V80.68C118.214 80.4667 118.321 80.36 118.534 80.36H118.95C119.164 80.36 119.27 80.4667 119.27 80.68V83.112H121.19C121.404 83.112 121.51 83.2187 121.51 83.432V83.592C121.51 83.8053 121.404 83.912 121.19 83.912H119.27V89.16C119.27 89.5547 119.345 89.832 119.494 89.992C119.644 90.152 119.9 90.232 120.262 90.232C120.518 90.232 120.812 90.1947 121.142 90.12ZM129.849 82.92C130.82 82.92 131.577 83.1547 132.121 83.624C132.665 84.0827 132.937 84.6907 132.937 85.448V90.68C132.937 90.8933 132.83 91 132.617 91H132.297C132.084 91 131.977 90.8933 131.977 90.68V89.96C131.71 90.3867 131.332 90.7067 130.841 90.92C130.361 91.1333 129.822 91.24 129.225 91.24C128.393 91.24 127.716 91.064 127.193 90.712C126.67 90.36 126.409 89.816 126.409 89.08C126.409 88.4933 126.574 88.024 126.905 87.672C127.236 87.3093 127.668 87.0373 128.201 86.856C128.734 86.664 129.401 86.4933 130.201 86.344L131.929 86.04V85.528C131.929 84.984 131.742 84.5627 131.369 84.264C130.996 83.9547 130.505 83.8 129.897 83.8C129.438 83.8 129.022 83.8853 128.649 84.056C128.276 84.2267 127.876 84.52 127.449 84.936C127.374 85.0107 127.294 85.048 127.209 85.048C127.134 85.048 127.065 85.016 127.001 84.952L126.793 84.76C126.718 84.6853 126.681 84.6053 126.681 84.52C126.681 84.424 126.718 84.3387 126.793 84.264C127.241 83.7947 127.71 83.4533 128.201 83.24C128.702 83.0267 129.252 82.92 129.849 82.92ZM129.273 90.36C130.041 90.36 130.676 90.1573 131.177 89.752C131.678 89.3467 131.929 88.8293 131.929 88.2V86.856L130.441 87.144C129.748 87.2827 129.198 87.416 128.793 87.544C128.388 87.672 128.062 87.8587 127.817 88.104C127.572 88.3493 127.449 88.6693 127.449 89.064C127.449 89.4693 127.609 89.7893 127.929 90.024C128.26 90.248 128.708 90.36 129.273 90.36ZM143.749 91.24C142.661 91.24 141.723 90.9893 140.933 90.488C140.144 89.976 139.541 89.272 139.125 88.376C138.709 87.48 138.501 86.4613 138.501 85.32C138.501 84.168 138.709 83.144 139.125 82.248C139.541 81.352 140.149 80.6533 140.949 80.152C141.76 79.6507 142.731 79.4 143.861 79.4C144.512 79.4 145.12 79.5067 145.685 79.72C146.251 79.9227 146.853 80.2747 147.493 80.776C147.589 80.84 147.637 80.9147 147.637 81C147.637 81.064 147.605 81.1387 147.541 81.224L147.317 81.512C147.253 81.5973 147.179 81.64 147.093 81.64C147.008 81.64 146.928 81.608 146.853 81.544C146.277 81.096 145.755 80.792 145.285 80.632C144.827 80.4613 144.352 80.376 143.861 80.376C142.997 80.376 142.245 80.5893 141.605 81.016C140.976 81.432 140.491 82.0133 140.149 82.76C139.808 83.5067 139.637 84.36 139.637 85.32C139.637 86.2693 139.808 87.1227 140.149 87.88C140.491 88.6267 140.971 89.2133 141.589 89.64C142.208 90.056 142.923 90.264 143.733 90.264C144.373 90.264 144.939 90.1413 145.429 89.896C145.931 89.64 146.464 89.2453 147.029 88.712C147.115 88.648 147.189 88.616 147.253 88.616C147.339 88.616 147.419 88.6533 147.493 88.728L147.749 89.016C147.813 89.08 147.845 89.1493 147.845 89.224C147.845 89.32 147.792 89.416 147.685 89.512C147.024 90.1413 146.395 90.5893 145.797 90.856C145.2 91.112 144.517 91.24 143.749 91.24ZM152.901 91.208C152.165 91.208 151.509 91.032 150.933 90.68C150.357 90.328 149.909 89.8427 149.589 89.224C149.269 88.5947 149.109 87.8747 149.109 87.064C149.109 86.2533 149.269 85.5387 149.589 84.92C149.909 84.2907 150.357 83.8 150.933 83.448C151.509 83.096 152.165 82.92 152.901 82.92C153.637 82.92 154.293 83.096 154.869 83.448C155.445 83.8 155.893 84.2907 156.213 84.92C156.533 85.5387 156.693 86.2533 156.693 87.064C156.693 87.8747 156.533 88.5947 156.213 89.224C155.893 89.8427 155.445 90.328 154.869 90.68C154.293 91.032 153.637 91.208 152.901 91.208ZM152.901 90.328C153.722 90.328 154.378 90.0293 154.869 89.432C155.36 88.824 155.605 88.0347 155.605 87.064C155.605 86.0933 155.36 85.3093 154.869 84.712C154.378 84.104 153.722 83.8 152.901 83.8C152.08 83.8 151.424 84.104 150.933 84.712C150.442 85.3093 150.197 86.0933 150.197 87.064C150.197 88.0347 150.442 88.824 150.933 89.432C151.424 90.0293 152.08 90.328 152.901 90.328ZM163.648 83.432C163.648 83.2187 163.754 83.112 163.968 83.112H164.384C164.597 83.112 164.704 83.2187 164.704 83.432V90.68C164.704 90.8933 164.597 91 164.384 91H164.048C163.834 91 163.728 90.8933 163.728 90.68V89.96C163.493 90.376 163.157 90.6907 162.72 90.904C162.293 91.1067 161.824 91.208 161.312 91.208C160.352 91.208 159.642 90.968 159.184 90.488C158.725 89.9973 158.496 89.368 158.496 88.6V83.432C158.496 83.2187 158.602 83.112 158.816 83.112H159.232C159.445 83.112 159.552 83.2187 159.552 83.432V88.376C159.552 89.0053 159.706 89.4853 160.016 89.816C160.336 90.136 160.789 90.296 161.376 90.296C162.037 90.296 162.581 90.0933 163.008 89.688C163.434 89.2827 163.648 88.7067 163.648 87.96V83.432ZM170.595 82.92C171.523 82.92 172.221 83.176 172.691 83.688C173.171 84.2 173.411 84.84 173.411 85.608V90.68C173.411 90.8933 173.304 91 173.091 91H172.675C172.461 91 172.355 90.8933 172.355 90.68V85.96C172.355 85.256 172.184 84.7227 171.843 84.36C171.501 83.9973 171.011 83.816 170.371 83.816C169.965 83.816 169.592 83.9173 169.251 84.12C168.909 84.312 168.637 84.5787 168.435 84.92C168.232 85.2613 168.131 85.6347 168.131 86.04V90.68C168.131 90.8933 168.024 91 167.811 91H167.395C167.181 91 167.075 90.8933 167.075 90.68V83.432C167.075 83.2187 167.181 83.112 167.395 83.112H167.747C167.96 83.112 168.067 83.2187 168.067 83.432V84.2C168.333 83.7733 168.685 83.4533 169.123 83.24C169.56 83.0267 170.051 82.92 170.595 82.92ZM179.08 90.12C179.112 90.1093 179.154 90.104 179.208 90.104C179.272 90.104 179.33 90.1253 179.384 90.168C179.437 90.2107 179.469 90.2693 179.48 90.344L179.528 90.568C179.538 90.5893 179.544 90.6267 179.544 90.68C179.544 90.8293 179.464 90.92 179.304 90.952C178.92 91.0693 178.509 91.128 178.072 91.128C177.378 91.128 176.882 90.9733 176.584 90.664C176.296 90.344 176.152 89.8853 176.152 89.288V83.912H174.968C174.754 83.912 174.648 83.8053 174.648 83.592V83.432C174.648 83.2187 174.754 83.112 174.968 83.112H176.152V80.68C176.152 80.4667 176.258 80.36 176.472 80.36H176.888C177.101 80.36 177.208 80.4667 177.208 80.68V83.112H179.128C179.341 83.112 179.448 83.2187 179.448 83.432V83.592C179.448 83.8053 179.341 83.912 179.128 83.912H177.208V89.16C177.208 89.5547 177.282 89.832 177.432 89.992C177.581 90.152 177.837 90.232 178.2 90.232C178.456 90.232 178.749 90.1947 179.08 90.12ZM184.003 83.048C184.27 83.048 184.584 83.0907 184.947 83.176C185.139 83.24 185.214 83.3733 185.171 83.576L185.107 83.832C185.054 84.0347 184.92 84.1093 184.707 84.056C184.451 83.992 184.216 83.96 184.003 83.96C183.459 83.96 183.006 84.1947 182.643 84.664C182.291 85.1333 182.115 85.784 182.115 86.616V90.68C182.115 90.8933 182.008 91 181.795 91H181.379C181.166 91 181.059 90.8933 181.059 90.68V83.432C181.059 83.2187 181.166 83.112 181.379 83.112H181.731C181.944 83.112 182.051 83.2187 182.051 83.432V84.312C182.232 83.9173 182.488 83.608 182.819 83.384C183.16 83.16 183.555 83.048 184.003 83.048ZM191.783 83.368C191.847 83.1973 191.97 83.112 192.151 83.112H192.583C192.668 83.112 192.738 83.1333 192.791 83.176C192.844 83.2187 192.871 83.2773 192.871 83.352L192.839 83.48L189.751 92.2C189.58 92.68 189.415 93.0533 189.255 93.32C189.095 93.5867 188.876 93.7893 188.599 93.928C188.332 94.0667 187.98 94.136 187.543 94.136C187.266 94.136 187.02 94.1147 186.807 94.072C186.7 94.0613 186.626 94.0187 186.583 93.944C186.551 93.8693 186.546 93.784 186.567 93.688L186.615 93.48C186.658 93.288 186.78 93.2027 186.983 93.224C187.175 93.256 187.34 93.272 187.479 93.272C187.82 93.272 188.087 93.176 188.279 92.984C188.482 92.792 188.674 92.4293 188.855 91.896L188.999 91.448L186.183 83.48L186.151 83.352C186.151 83.2773 186.178 83.2187 186.231 83.176C186.284 83.1333 186.354 83.112 186.439 83.112H186.903C187.074 83.112 187.191 83.1973 187.255 83.368L188.151 86.008C188.236 86.2747 188.45 86.9093 188.791 87.912L189.511 90.072C189.863 89.08 190.327 87.7147 190.903 85.976L191.783 83.368Z" fill="#767676"/>
<path d="M252.5 83.5L258 89L263.5 83.5" stroke="#464646" stroke-width="1.5" stroke-linecap="round" stroke-linejoin="round"/>
<rect x="70.5" y="62.5" width="203" height="47" rx="3.5" stroke="#C3CCD9"/>
</svg>
