<svg width="344" height="244" viewBox="0 0 344 244" fill="none" xmlns="http://www.w3.org/2000/svg">
<rect width="344" height="244" fill="#F5F5F5"/>
<path d="M71.568 54C71.4187 54 71.2973 53.958 71.204 53.874C71.12 53.7807 71.078 53.6593 71.078 53.51V44.55C71.078 44.3913 71.12 44.27 71.204 44.186C71.2973 44.102 71.4187 44.06 71.568 44.06H77.378C77.5367 44.06 77.658 44.102 77.742 44.186C77.826 44.27 77.868 44.3913 77.868 44.55V44.914C77.868 45.0633 77.826 45.1847 77.742 45.278C77.658 45.362 77.5367 45.404 77.378 45.404H72.674V48.204H77.028C77.1867 48.204 77.308 48.246 77.392 48.33C77.476 48.414 77.518 48.5353 77.518 48.694V49.058C77.518 49.2073 77.476 49.3287 77.392 49.422C77.308 49.506 77.1867 49.548 77.028 49.548H72.674V52.656H77.518C77.6767 52.656 77.798 52.698 77.882 52.782C77.966 52.866 78.008 52.9873 78.008 53.146V53.51C78.008 53.6593 77.966 53.7807 77.882 53.874C77.798 53.958 77.6767 54 77.518 54H71.568ZM85.0383 53.412C85.113 53.5333 85.1503 53.6313 85.1503 53.706C85.1503 53.7993 85.113 53.874 85.0383 53.93C84.9636 53.9767 84.861 54 84.7303 54H84.1843C83.923 54 83.727 53.8927 83.5963 53.678L82.0983 51.424L80.6003 53.678C80.4696 53.8927 80.2736 54 80.0123 54H79.5083C79.3683 54 79.261 53.9767 79.1863 53.93C79.1116 53.874 79.0743 53.7993 79.0743 53.706C79.0743 53.6313 79.1116 53.5333 79.1863 53.412L81.2723 50.388L79.3963 47.686C79.3216 47.5647 79.2843 47.4667 79.2843 47.392C79.2843 47.2987 79.3216 47.2287 79.3963 47.182C79.471 47.126 79.5783 47.098 79.7183 47.098H80.2363C80.4883 47.098 80.6843 47.2007 80.8243 47.406L82.1263 49.338L83.4003 47.42C83.531 47.2053 83.727 47.098 83.9883 47.098H84.4783C84.609 47.098 84.7116 47.126 84.7863 47.182C84.861 47.238 84.8983 47.3127 84.8983 47.406C84.8983 47.4807 84.861 47.5787 84.7863 47.7L82.9523 50.332L85.0383 53.412ZM90.0806 46.916C90.6686 46.916 91.1913 47.0653 91.6486 47.364C92.1153 47.6627 92.4793 48.0873 92.7406 48.638C93.0019 49.1887 93.1326 49.8233 93.1326 50.542C93.1326 51.27 93.0019 51.9093 92.7406 52.46C92.4793 53.0107 92.1153 53.4353 91.6486 53.734C91.1819 54.0327 90.6593 54.182 90.0806 54.182C89.1099 54.182 88.3819 53.846 87.8966 53.174V55.988C87.8966 56.1467 87.8546 56.268 87.7706 56.352C87.6866 56.436 87.5653 56.478 87.4066 56.478H86.9026C86.7533 56.478 86.6319 56.436 86.5386 56.352C86.4546 56.268 86.4126 56.1467 86.4126 55.988V47.588C86.4126 47.4293 86.4546 47.308 86.5386 47.224C86.6319 47.14 86.7533 47.098 86.9026 47.098H87.3086C87.4673 47.098 87.5886 47.14 87.6726 47.224C87.7566 47.308 87.7986 47.4293 87.7986 47.588V48.106C88.2933 47.3127 89.0539 46.916 90.0806 46.916ZM89.7726 52.894C90.3326 52.894 90.7806 52.684 91.1166 52.264C91.4526 51.8347 91.6206 51.2607 91.6206 50.542C91.6206 49.8327 91.4526 49.2633 91.1166 48.834C90.7899 48.4047 90.3466 48.19 89.7866 48.19C89.2173 48.19 88.7506 48.4 88.3866 48.82C88.0226 49.24 87.8406 49.814 87.8406 50.542C87.8406 51.27 88.0226 51.844 88.3866 52.264C88.7506 52.684 89.2126 52.894 89.7726 52.894ZM97.669 54.21C96.9877 54.21 96.381 54.056 95.849 53.748C95.3264 53.44 94.9157 53.0107 94.617 52.46C94.3184 51.9 94.169 51.2607 94.169 50.542C94.169 49.8233 94.3184 49.1887 94.617 48.638C94.9157 48.0873 95.3264 47.658 95.849 47.35C96.381 47.042 96.9877 46.888 97.669 46.888C98.341 46.888 98.943 47.042 99.475 47.35C100.007 47.658 100.422 48.092 100.721 48.652C101.02 49.2027 101.169 49.8327 101.169 50.542C101.169 51.2607 101.02 51.9 100.721 52.46C100.422 53.0107 100.007 53.44 99.475 53.748C98.943 54.056 98.341 54.21 97.669 54.21ZM97.669 52.964C98.2664 52.964 98.747 52.7447 99.111 52.306C99.475 51.858 99.657 51.27 99.657 50.542C99.657 49.8233 99.475 49.2447 99.111 48.806C98.747 48.3673 98.2664 48.148 97.669 48.148C97.0717 48.148 96.591 48.3673 96.227 48.806C95.863 49.2447 95.681 49.8233 95.681 50.542C95.681 51.27 95.863 51.858 96.227 52.306C96.591 52.7447 97.0717 52.964 97.669 52.964ZM105.585 47.028C105.79 47.028 106 47.0513 106.215 47.098C106.467 47.154 106.593 47.3033 106.593 47.546C106.593 47.6113 106.588 47.658 106.579 47.686L106.509 48.022C106.453 48.2833 106.313 48.414 106.089 48.414L105.963 48.4C105.795 48.372 105.646 48.358 105.515 48.358C105.048 48.358 104.67 48.5447 104.381 48.918C104.101 49.282 103.961 49.7907 103.961 50.444V53.51C103.961 53.6593 103.919 53.7807 103.835 53.874C103.751 53.958 103.63 54 103.471 54H102.967C102.818 54 102.696 53.958 102.603 53.874C102.519 53.7807 102.477 53.6593 102.477 53.51V47.588C102.477 47.4293 102.519 47.308 102.603 47.224C102.696 47.14 102.818 47.098 102.967 47.098H103.373C103.532 47.098 103.653 47.14 103.737 47.224C103.821 47.308 103.863 47.4293 103.863 47.588V48.134C104.031 47.7887 104.26 47.518 104.549 47.322C104.838 47.126 105.184 47.028 105.585 47.028ZM111.168 52.824C111.196 52.8147 111.238 52.81 111.294 52.81C111.528 52.81 111.668 52.9453 111.714 53.216L111.756 53.44C111.766 53.468 111.77 53.5147 111.77 53.58C111.77 53.8133 111.64 53.9627 111.378 54.028C111.005 54.112 110.664 54.154 110.356 54.154C109.694 54.154 109.213 54 108.914 53.692C108.625 53.384 108.48 52.922 108.48 52.306V48.232H107.71C107.561 48.232 107.44 48.19 107.346 48.106C107.262 48.0127 107.22 47.8913 107.22 47.742V47.588C107.22 47.4293 107.262 47.308 107.346 47.224C107.44 47.14 107.561 47.098 107.71 47.098H108.48V45.362C108.48 45.2033 108.522 45.082 108.606 44.998C108.7 44.914 108.821 44.872 108.97 44.872H109.474C109.633 44.872 109.754 44.914 109.838 44.998C109.922 45.082 109.964 45.2033 109.964 45.362V47.098H111.224C111.383 47.098 111.504 47.14 111.588 47.224C111.672 47.308 111.714 47.4293 111.714 47.588V47.742C111.714 47.8913 111.672 48.0127 111.588 48.106C111.504 48.19 111.383 48.232 111.224 48.232H109.964V52.124C109.964 52.3947 110.02 52.586 110.132 52.698C110.254 52.81 110.445 52.866 110.706 52.866C110.818 52.866 110.972 52.852 111.168 52.824ZM119.105 45.096C118.778 45.096 118.54 45.1753 118.391 45.334C118.242 45.4927 118.167 45.7633 118.167 46.146V47.098H119.301C119.46 47.098 119.581 47.14 119.665 47.224C119.749 47.308 119.791 47.4293 119.791 47.588V47.742C119.791 47.8913 119.749 48.0127 119.665 48.106C119.581 48.19 119.46 48.232 119.301 48.232H118.167V53.51C118.167 53.6593 118.125 53.7807 118.041 53.874C117.957 53.958 117.836 54 117.677 54H117.173C117.024 54 116.902 53.958 116.809 53.874C116.725 53.7807 116.683 53.6593 116.683 53.51V48.232H115.941C115.792 48.232 115.67 48.19 115.577 48.106C115.493 48.0127 115.451 47.8913 115.451 47.742V47.588C115.451 47.4293 115.493 47.308 115.577 47.224C115.67 47.14 115.792 47.098 115.941 47.098H116.683V46.048C116.683 45.3293 116.865 44.788 117.229 44.424C117.602 44.0507 118.139 43.864 118.839 43.864C119.156 43.864 119.478 43.8967 119.805 43.962C120.048 44.0273 120.169 44.1767 120.169 44.41C120.169 44.4753 120.164 44.5267 120.155 44.564L120.113 44.76C120.057 45.0027 119.875 45.124 119.567 45.124L119.399 45.11C119.334 45.1007 119.236 45.096 119.105 45.096ZM121.663 45.754C121.392 45.754 121.163 45.6653 120.977 45.488C120.79 45.3013 120.697 45.082 120.697 44.83C120.697 44.5687 120.79 44.3493 120.977 44.172C121.163 43.9947 121.392 43.906 121.663 43.906C121.933 43.906 122.162 43.9947 122.349 44.172C122.535 44.3493 122.629 44.5687 122.629 44.83C122.629 45.082 122.535 45.3013 122.349 45.488C122.162 45.6653 121.933 45.754 121.663 45.754ZM121.397 54C121.247 54 121.126 53.958 121.033 53.874C120.949 53.7807 120.907 53.6593 120.907 53.51V47.588C120.907 47.4293 120.949 47.308 121.033 47.224C121.126 47.14 121.247 47.098 121.397 47.098H121.901C122.059 47.098 122.181 47.14 122.265 47.224C122.349 47.308 122.391 47.4293 122.391 47.588V53.51C122.391 53.6593 122.349 53.7807 122.265 53.874C122.181 53.958 122.059 54 121.901 54H121.397ZM124.652 54C124.503 54 124.381 53.958 124.288 53.874C124.204 53.7807 124.162 53.6593 124.162 53.51V44.55C124.162 44.3913 124.204 44.27 124.288 44.186C124.381 44.102 124.503 44.06 124.652 44.06H125.156C125.315 44.06 125.436 44.102 125.52 44.186C125.604 44.27 125.646 44.3913 125.646 44.55V53.51C125.646 53.6593 125.604 53.7807 125.52 53.874C125.436 53.958 125.315 54 125.156 54H124.652ZM132.357 52.236C132.478 52.1333 132.595 52.082 132.707 52.082C132.819 52.082 132.935 52.1427 133.057 52.264L133.253 52.474C133.355 52.5953 133.407 52.712 133.407 52.824C133.407 52.9453 133.346 53.062 133.225 53.174C132.795 53.5473 132.366 53.8133 131.937 53.972C131.517 54.1307 131.05 54.21 130.537 54.21C129.818 54.21 129.193 54.0607 128.661 53.762C128.138 53.4633 127.732 53.0433 127.443 52.502C127.163 51.9513 127.023 51.3167 127.023 50.598C127.023 49.8887 127.158 49.254 127.429 48.694C127.709 48.1247 128.101 47.6813 128.605 47.364C129.118 47.0467 129.715 46.888 130.397 46.888C131.414 46.888 132.198 47.1913 132.749 47.798C133.299 48.3953 133.575 49.2213 133.575 50.276V50.402C133.565 50.5513 133.519 50.668 133.435 50.752C133.351 50.836 133.229 50.878 133.071 50.878H128.479C128.535 51.494 128.735 51.998 129.081 52.39C129.435 52.7727 129.93 52.964 130.565 52.964C130.91 52.964 131.213 52.9127 131.475 52.81C131.736 52.698 132.03 52.5067 132.357 52.236ZM130.369 48.064C129.855 48.064 129.44 48.218 129.123 48.526C128.815 48.8247 128.614 49.2493 128.521 49.8H132.119C132.081 49.2587 131.913 48.834 131.615 48.526C131.316 48.218 130.901 48.064 130.369 48.064ZM140.725 54.21C140.156 54.21 139.647 54.14 139.199 54C138.76 53.8507 138.312 53.594 137.855 53.23C137.715 53.1273 137.645 53.0107 137.645 52.88C137.645 52.7773 137.696 52.6653 137.799 52.544L138.009 52.306C138.121 52.1753 138.242 52.11 138.373 52.11C138.476 52.11 138.588 52.1567 138.709 52.25C139.101 52.5393 139.446 52.74 139.745 52.852C140.044 52.9547 140.38 53.006 140.753 53.006C141.154 53.006 141.481 52.9267 141.733 52.768C141.994 52.6 142.125 52.376 142.125 52.096C142.125 51.8813 142.05 51.7133 141.901 51.592C141.761 51.4613 141.574 51.3633 141.341 51.298C141.108 51.2233 140.762 51.1393 140.305 51.046C139.661 50.906 139.157 50.7567 138.793 50.598C138.438 50.43 138.182 50.22 138.023 49.968C137.864 49.716 137.785 49.394 137.785 49.002C137.785 48.6007 137.897 48.2413 138.121 47.924C138.354 47.6067 138.676 47.3547 139.087 47.168C139.507 46.9813 139.997 46.888 140.557 46.888C141.061 46.888 141.509 46.944 141.901 47.056C142.302 47.168 142.694 47.3593 143.077 47.63C143.226 47.742 143.301 47.868 143.301 48.008C143.301 48.1013 143.254 48.2087 143.161 48.33L142.979 48.554C142.876 48.6847 142.75 48.75 142.601 48.75C142.489 48.75 142.382 48.7127 142.279 48.638C141.971 48.4327 141.686 48.2927 141.425 48.218C141.164 48.134 140.87 48.092 140.543 48.092C140.142 48.092 139.82 48.1713 139.577 48.33C139.334 48.4887 139.213 48.694 139.213 48.946C139.213 49.114 139.269 49.2493 139.381 49.352C139.502 49.4453 139.67 49.5293 139.885 49.604C140.109 49.6693 140.459 49.7533 140.935 49.856C141.579 49.996 142.088 50.1547 142.461 50.332C142.844 50.5 143.124 50.7193 143.301 50.99C143.488 51.2513 143.581 51.592 143.581 52.012C143.581 52.6653 143.32 53.1973 142.797 53.608C142.284 54.0093 141.593 54.21 140.725 54.21ZM145.616 45.754C145.345 45.754 145.117 45.6653 144.93 45.488C144.743 45.3013 144.65 45.082 144.65 44.83C144.65 44.5687 144.743 44.3493 144.93 44.172C145.117 43.9947 145.345 43.906 145.616 43.906C145.887 43.906 146.115 43.9947 146.302 44.172C146.489 44.3493 146.582 44.5687 146.582 44.83C146.582 45.082 146.489 45.3013 146.302 45.488C146.115 45.6653 145.887 45.754 145.616 45.754ZM145.35 54C145.201 54 145.079 53.958 144.986 53.874C144.902 53.7807 144.86 53.6593 144.86 53.51V47.588C144.86 47.4293 144.902 47.308 144.986 47.224C145.079 47.14 145.201 47.098 145.35 47.098H145.854C146.013 47.098 146.134 47.14 146.218 47.224C146.302 47.308 146.344 47.4293 146.344 47.588V53.51C146.344 53.6593 146.302 53.7807 146.218 53.874C146.134 53.958 146.013 54 145.854 54H145.35ZM152.847 47.098C153.006 47.098 153.127 47.14 153.211 47.224C153.295 47.308 153.337 47.4293 153.337 47.588V47.854C153.337 48.0873 153.262 48.2927 153.113 48.47L149.529 52.782H152.847C153.006 52.782 153.127 52.824 153.211 52.908C153.295 52.992 153.337 53.1133 153.337 53.272V53.51C153.337 53.6593 153.295 53.7807 153.211 53.874C153.127 53.958 153.006 54 152.847 54H148.185C148.036 54 147.914 53.958 147.821 53.874C147.737 53.7807 147.695 53.6593 147.695 53.51V53.23C147.695 52.9967 147.77 52.7913 147.919 52.614L151.517 48.302H148.423C148.274 48.302 148.152 48.26 148.059 48.176C147.975 48.0827 147.933 47.9613 147.933 47.812V47.588C147.933 47.4293 147.975 47.308 148.059 47.224C148.152 47.14 148.274 47.098 148.423 47.098H152.847ZM159.468 52.236C159.589 52.1333 159.706 52.082 159.818 52.082C159.93 52.082 160.047 52.1427 160.168 52.264L160.364 52.474C160.467 52.5953 160.518 52.712 160.518 52.824C160.518 52.9453 160.457 53.062 160.336 53.174C159.907 53.5473 159.477 53.8133 159.048 53.972C158.628 54.1307 158.161 54.21 157.648 54.21C156.929 54.21 156.304 54.0607 155.772 53.762C155.249 53.4633 154.843 53.0433 154.554 52.502C154.274 51.9513 154.134 51.3167 154.134 50.598C154.134 49.8887 154.269 49.254 154.54 48.694C154.82 48.1247 155.212 47.6813 155.716 47.364C156.229 47.0467 156.827 46.888 157.508 46.888C158.525 46.888 159.309 47.1913 159.86 47.798C160.411 48.3953 160.686 49.2213 160.686 50.276V50.402C160.677 50.5513 160.63 50.668 160.546 50.752C160.462 50.836 160.341 50.878 160.182 50.878H155.59C155.646 51.494 155.847 51.998 156.192 52.39C156.547 52.7727 157.041 52.964 157.676 52.964C158.021 52.964 158.325 52.9127 158.586 52.81C158.847 52.698 159.141 52.5067 159.468 52.236ZM157.48 48.064C156.967 48.064 156.551 48.218 156.234 48.526C155.926 48.8247 155.725 49.2493 155.632 49.8H159.23C159.193 49.2587 159.025 48.834 158.726 48.526C158.427 48.218 158.012 48.064 157.48 48.064Z" fill="#464646"/>
<rect x="71" y="63" width="202" height="46" rx="3" fill="white"/>
<path d="M83.968 91.24C82.88 91.24 81.9413 90.9893 81.152 90.488C80.3627 89.976 79.76 89.272 79.344 88.376C78.928 87.48 78.72 86.4613 78.72 85.32C78.72 84.168 78.928 83.144 79.344 82.248C79.76 81.352 80.368 80.6533 81.168 80.152C81.9787 79.6507 82.9493 79.4 84.08 79.4C84.7307 79.4 85.3387 79.5067 85.904 79.72C86.4693 79.9227 87.072 80.2747 87.712 80.776C87.808 80.84 87.856 80.9147 87.856 81C87.856 81.064 87.824 81.1387 87.76 81.224L87.536 81.512C87.472 81.5973 87.3973 81.64 87.312 81.64C87.2267 81.64 87.1467 81.608 87.072 81.544C86.496 81.096 85.9733 80.792 85.504 80.632C85.0453 80.4613 84.5707 80.376 84.08 80.376C83.216 80.376 82.464 80.5893 81.824 81.016C81.1947 81.432 80.7093 82.0133 80.368 82.76C80.0267 83.5067 79.856 84.36 79.856 85.32C79.856 86.2693 80.0267 87.1227 80.368 87.88C80.7093 88.6267 81.1893 89.2133 81.808 89.64C82.4267 90.056 83.1413 90.264 83.952 90.264C84.592 90.264 85.1573 90.1413 85.648 89.896C86.1493 89.64 86.6827 89.2453 87.248 88.712C87.3333 88.648 87.408 88.616 87.472 88.616C87.5573 88.616 87.6373 88.6533 87.712 88.728L87.968 89.016C88.032 89.08 88.064 89.1493 88.064 89.224C88.064 89.32 88.0107 89.416 87.904 89.512C87.2427 90.1413 86.6133 90.5893 86.016 90.856C85.4187 91.112 84.736 91.24 83.968 91.24ZM93.2821 82.92C94.1995 82.92 94.8981 83.1813 95.3781 83.704C95.8581 84.216 96.0981 84.8507 96.0981 85.608V90.68C96.0981 90.8933 95.9915 91 95.7781 91H95.3621C95.1488 91 95.0421 90.8933 95.0421 90.68V85.96C95.0421 85.256 94.8715 84.7227 94.5301 84.36C94.1888 83.9973 93.6981 83.816 93.0581 83.816C92.6528 83.816 92.2795 83.9173 91.9381 84.12C91.5968 84.312 91.3248 84.5787 91.1221 84.92C90.9195 85.2613 90.8181 85.6347 90.8181 86.04V90.68C90.8181 90.8933 90.7115 91 90.4981 91H90.0821C89.8688 91 89.7621 90.8933 89.7621 90.68V79.96C89.7621 79.7467 89.8688 79.64 90.0821 79.64H90.4981C90.7115 79.64 90.8181 79.7467 90.8181 79.96V84.136C91.0741 83.7307 91.4155 83.4267 91.8421 83.224C92.2795 83.0213 92.7595 82.92 93.2821 82.92ZM101.698 91.208C100.962 91.208 100.306 91.032 99.73 90.68C99.154 90.328 98.706 89.8427 98.386 89.224C98.066 88.5947 97.906 87.8747 97.906 87.064C97.906 86.2533 98.066 85.5387 98.386 84.92C98.706 84.2907 99.154 83.8 99.73 83.448C100.306 83.096 100.962 82.92 101.698 82.92C102.434 82.92 103.09 83.096 103.666 83.448C104.242 83.8 104.69 84.2907 105.01 84.92C105.33 85.5387 105.49 86.2533 105.49 87.064C105.49 87.8747 105.33 88.5947 105.01 89.224C104.69 89.8427 104.242 90.328 103.666 90.68C103.09 91.032 102.434 91.208 101.698 91.208ZM101.698 90.328C102.519 90.328 103.175 90.0293 103.666 89.432C104.157 88.824 104.402 88.0347 104.402 87.064C104.402 86.0933 104.157 85.3093 103.666 84.712C103.175 84.104 102.519 83.8 101.698 83.8C100.877 83.8 100.221 84.104 99.73 84.712C99.2393 85.3093 98.994 86.0933 98.994 87.064C98.994 88.0347 99.2393 88.824 99.73 89.432C100.221 90.0293 100.877 90.328 101.698 90.328ZM110.682 91.208C109.946 91.208 109.29 91.032 108.714 90.68C108.138 90.328 107.69 89.8427 107.37 89.224C107.05 88.5947 106.89 87.8747 106.89 87.064C106.89 86.2533 107.05 85.5387 107.37 84.92C107.69 84.2907 108.138 83.8 108.714 83.448C109.29 83.096 109.946 82.92 110.682 82.92C111.418 82.92 112.074 83.096 112.65 83.448C113.226 83.8 113.674 84.2907 113.994 84.92C114.314 85.5387 114.474 86.2533 114.474 87.064C114.474 87.8747 114.314 88.5947 113.994 89.224C113.674 89.8427 113.226 90.328 112.65 90.68C112.074 91.032 111.418 91.208 110.682 91.208ZM110.682 90.328C111.504 90.328 112.16 90.0293 112.65 89.432C113.141 88.824 113.386 88.0347 113.386 87.064C113.386 86.0933 113.141 85.3093 112.65 84.712C112.16 84.104 111.504 83.8 110.682 83.8C109.861 83.8 109.205 84.104 108.714 84.712C108.224 85.3093 107.978 86.0933 107.978 87.064C107.978 88.0347 108.224 88.824 108.714 89.432C109.205 90.0293 109.861 90.328 110.682 90.328ZM119.061 91.208C118.41 91.208 117.834 91.1173 117.333 90.936C116.842 90.744 116.325 90.424 115.781 89.976C115.685 89.912 115.637 89.8373 115.637 89.752C115.637 89.6773 115.674 89.6027 115.749 89.528L115.957 89.304C116.021 89.2187 116.101 89.176 116.197 89.176C116.272 89.176 116.341 89.208 116.405 89.272C116.917 89.6667 117.37 89.944 117.765 90.104C118.16 90.2533 118.592 90.328 119.061 90.328C119.648 90.328 120.128 90.2 120.501 89.944C120.874 89.6773 121.061 89.32 121.061 88.872C121.061 88.424 120.869 88.0933 120.485 87.88C120.101 87.6667 119.509 87.4747 118.709 87.304C118.005 87.1547 117.45 87 117.045 86.84C116.65 86.6693 116.357 86.456 116.165 86.2C115.973 85.944 115.877 85.608 115.877 85.192C115.877 84.5093 116.154 83.96 116.709 83.544C117.264 83.128 117.962 82.92 118.805 82.92C119.381 82.92 119.893 82.9947 120.341 83.144C120.8 83.2827 121.258 83.5173 121.717 83.848C121.813 83.9227 121.861 84.0027 121.861 84.088C121.861 84.1413 121.834 84.2107 121.781 84.296L121.589 84.536C121.536 84.6213 121.461 84.664 121.365 84.664C121.28 84.664 121.205 84.6373 121.141 84.584C120.704 84.2747 120.314 84.0667 119.973 83.96C119.642 83.8533 119.264 83.8 118.837 83.8C118.25 83.8 117.781 83.928 117.429 84.184C117.077 84.44 116.901 84.7653 116.901 85.16C116.901 85.4053 116.981 85.6027 117.141 85.752C117.301 85.9013 117.53 86.0293 117.829 86.136C118.128 86.232 118.565 86.344 119.141 86.472C120.208 86.7067 120.965 86.9947 121.413 87.336C121.872 87.6773 122.101 88.1733 122.101 88.824C122.101 89.5387 121.818 90.1147 121.253 90.552C120.688 90.9893 119.957 91.208 119.061 91.208ZM129.631 89.128C129.706 89.0533 129.786 89.016 129.871 89.016C129.946 89.016 130.015 89.048 130.079 89.112L130.287 89.304C130.362 89.3787 130.399 89.4587 130.399 89.544C130.399 89.608 130.367 89.6827 130.303 89.768C129.78 90.2907 129.274 90.664 128.783 90.888C128.292 91.1013 127.743 91.208 127.135 91.208C126.367 91.208 125.7 91.0373 125.135 90.696C124.57 90.3547 124.132 89.88 123.823 89.272C123.514 88.6533 123.359 87.9387 123.359 87.128C123.359 86.3067 123.508 85.5813 123.807 84.952C124.116 84.312 124.548 83.816 125.103 83.464C125.658 83.1013 126.298 82.92 127.023 82.92C128.1 82.92 128.948 83.256 129.567 83.928C130.186 84.6 130.495 85.5067 130.495 86.648V86.84C130.484 86.936 130.447 87.0107 130.383 87.064C130.33 87.1173 130.255 87.144 130.159 87.144H124.431C124.463 88.04 124.698 88.7973 125.135 89.416C125.583 90.024 126.25 90.328 127.135 90.328C127.615 90.328 128.036 90.2427 128.399 90.072C128.772 89.8907 129.183 89.576 129.631 89.128ZM127.023 83.8C126.319 83.8 125.738 84.0187 125.279 84.456C124.831 84.8827 124.559 85.512 124.463 86.344H129.439C129.418 85.5653 129.194 84.9467 128.767 84.488C128.34 84.0293 127.759 83.8 127.023 83.8ZM139.339 91.208C138.603 91.208 137.947 91.032 137.371 90.68C136.795 90.328 136.347 89.8427 136.027 89.224C135.707 88.5947 135.547 87.8747 135.547 87.064C135.547 86.2533 135.707 85.5387 136.027 84.92C136.347 84.2907 136.795 83.8 137.371 83.448C137.947 83.096 138.603 82.92 139.339 82.92C140.075 82.92 140.731 83.096 141.307 83.448C141.883 83.8 142.331 84.2907 142.651 84.92C142.971 85.5387 143.131 86.2533 143.131 87.064C143.131 87.8747 142.971 88.5947 142.651 89.224C142.331 89.8427 141.883 90.328 141.307 90.68C140.731 91.032 140.075 91.208 139.339 91.208ZM139.339 90.328C140.16 90.328 140.816 90.0293 141.307 89.432C141.797 88.824 142.043 88.0347 142.043 87.064C142.043 86.0933 141.797 85.3093 141.307 84.712C140.816 84.104 140.16 83.8 139.339 83.8C138.517 83.8 137.861 84.104 137.371 84.712C136.88 85.3093 136.635 86.0933 136.635 87.064C136.635 88.0347 136.88 88.824 137.371 89.432C137.861 90.0293 138.517 90.328 139.339 90.328ZM148.485 82.92C149.413 82.92 150.112 83.176 150.581 83.688C151.061 84.2 151.301 84.84 151.301 85.608V90.68C151.301 90.8933 151.195 91 150.981 91H150.565C150.352 91 150.245 90.8933 150.245 90.68V85.96C150.245 85.256 150.075 84.7227 149.733 84.36C149.392 83.9973 148.901 83.816 148.261 83.816C147.856 83.816 147.483 83.9173 147.141 84.12C146.8 84.312 146.528 84.5787 146.325 84.92C146.123 85.2613 146.021 85.6347 146.021 86.04V90.68C146.021 90.8933 145.915 91 145.701 91H145.285C145.072 91 144.965 90.8933 144.965 90.68V83.432C144.965 83.2187 145.072 83.112 145.285 83.112H145.637C145.851 83.112 145.957 83.2187 145.957 83.432V84.2C146.224 83.7733 146.576 83.4533 147.013 83.24C147.451 83.0267 147.941 82.92 148.485 82.92ZM159.381 89.128C159.456 89.0533 159.536 89.016 159.621 89.016C159.696 89.016 159.765 89.048 159.829 89.112L160.037 89.304C160.112 89.3787 160.149 89.4587 160.149 89.544C160.149 89.608 160.117 89.6827 160.053 89.768C159.53 90.2907 159.024 90.664 158.533 90.888C158.042 91.1013 157.493 91.208 156.885 91.208C156.117 91.208 155.45 91.0373 154.885 90.696C154.32 90.3547 153.882 89.88 153.573 89.272C153.264 88.6533 153.109 87.9387 153.109 87.128C153.109 86.3067 153.258 85.5813 153.557 84.952C153.866 84.312 154.298 83.816 154.853 83.464C155.408 83.1013 156.048 82.92 156.773 82.92C157.85 82.92 158.698 83.256 159.317 83.928C159.936 84.6 160.245 85.5067 160.245 86.648V86.84C160.234 86.936 160.197 87.0107 160.133 87.064C160.08 87.1173 160.005 87.144 159.909 87.144H154.181C154.213 88.04 154.448 88.7973 154.885 89.416C155.333 90.024 156 90.328 156.885 90.328C157.365 90.328 157.786 90.2427 158.149 90.072C158.522 89.8907 158.933 89.576 159.381 89.128ZM156.773 83.8C156.069 83.8 155.488 84.0187 155.029 84.456C154.581 84.8827 154.309 85.512 154.213 86.344H159.189C159.168 85.5653 158.944 84.9467 158.517 84.488C158.09 84.0293 157.509 83.8 156.773 83.8Z" fill="#767676"/>
<path d="M252.5 83.5L258 89L263.5 83.5" stroke="#464646" stroke-width="1.5" stroke-linecap="round" stroke-linejoin="round"/>
<rect x="71" y="63" width="202" height="46" rx="3" stroke="#0063FB" stroke-width="2"/>
<g filter="url(#filter0_dd_1501_18128)">
<g clip-path="url(#clip0_1501_18128)">
<rect width="204" height="92" transform="translate(70 112)" fill="white"/>
<rect width="204" height="30" transform="translate(70 112)" fill="white"/>
<path d="M83.136 132.24C82.2933 132.24 81.5307 132.112 80.848 131.856C80.176 131.589 79.4667 131.157 78.72 130.56C78.624 130.475 78.576 130.395 78.576 130.32C78.576 130.256 78.608 130.187 78.672 130.112L78.928 129.808C78.9813 129.723 79.0613 129.68 79.168 129.68C79.2533 129.68 79.3227 129.707 79.376 129.76C80.1333 130.347 80.7947 130.747 81.36 130.96C81.9253 131.163 82.5173 131.264 83.136 131.264C84 131.264 84.704 131.051 85.248 130.624C85.792 130.187 86.064 129.595 86.064 128.848C86.064 128.368 85.936 127.984 85.68 127.696C85.424 127.408 85.072 127.184 84.624 127.024C84.1867 126.864 83.5627 126.693 82.752 126.512C81.7813 126.299 81.024 126.069 80.48 125.824C79.9467 125.579 79.5573 125.269 79.312 124.896C79.0667 124.523 78.944 124.043 78.944 123.456C78.944 122.837 79.12 122.299 79.472 121.84C79.8347 121.371 80.3147 121.013 80.912 120.768C81.5093 120.523 82.1547 120.4 82.848 120.4C83.6053 120.4 84.2933 120.512 84.912 120.736C85.5413 120.96 86.16 121.317 86.768 121.808C86.864 121.872 86.912 121.947 86.912 122.032C86.912 122.096 86.88 122.171 86.816 122.256L86.576 122.544C86.5227 122.629 86.4427 122.672 86.336 122.672C86.2507 122.672 86.176 122.645 86.112 122.592C85.568 122.144 85.04 121.829 84.528 121.648C84.0267 121.467 83.472 121.376 82.864 121.376C82.3093 121.376 81.8187 121.467 81.392 121.648C80.9653 121.819 80.6293 122.059 80.384 122.368C80.1493 122.677 80.032 123.029 80.032 123.424C80.032 123.851 80.1493 124.192 80.384 124.448C80.6293 124.704 80.9653 124.907 81.392 125.056C81.8293 125.205 82.464 125.376 83.296 125.568C84.256 125.792 85.0133 126.043 85.568 126.32C86.1333 126.597 86.544 126.939 86.8 127.344C87.056 127.739 87.184 128.229 87.184 128.816C87.184 129.499 87.008 130.101 86.656 130.624C86.3147 131.136 85.8347 131.536 85.216 131.824C84.5973 132.101 83.904 132.24 83.136 132.24ZM97.1375 123.92C97.9908 123.92 98.6415 124.165 99.0895 124.656C99.5482 125.136 99.7775 125.755 99.7775 126.512V131.68C99.7775 131.893 99.6708 132 99.4575 132H99.0415C98.8282 132 98.7215 131.893 98.7215 131.68V126.8C98.7215 126.16 98.5722 125.669 98.2735 125.328C97.9855 124.987 97.5535 124.816 96.9775 124.816C96.3695 124.816 95.8842 125.019 95.5215 125.424C95.1588 125.829 94.9775 126.352 94.9775 126.992V131.68C94.9775 131.893 94.8708 132 94.6575 132H94.2415C94.0282 132 93.9215 131.893 93.9215 131.68V126.8C93.9215 126.16 93.7722 125.669 93.4735 125.328C93.1855 124.987 92.7482 124.816 92.1615 124.816C91.6175 124.816 91.1642 124.987 90.8015 125.328C90.4495 125.669 90.2415 126.117 90.1775 126.672V131.68C90.1775 131.893 90.0708 132 89.8575 132H89.4415C89.2282 132 89.1215 131.893 89.1215 131.68V124.432C89.1215 124.219 89.2282 124.112 89.4415 124.112H89.7935C90.0068 124.112 90.1135 124.219 90.1135 124.432V125.088C90.5935 124.309 91.3562 123.92 92.4015 123.92C92.9455 123.92 93.4095 124.043 93.7935 124.288C94.1882 124.523 94.4815 124.843 94.6735 125.248C95.2388 124.363 96.0602 123.92 97.1375 123.92ZM105.146 123.92C106.117 123.92 106.874 124.155 107.418 124.624C107.962 125.083 108.234 125.691 108.234 126.448V131.68C108.234 131.893 108.127 132 107.914 132H107.594C107.381 132 107.274 131.893 107.274 131.68V130.96C107.007 131.387 106.629 131.707 106.138 131.92C105.658 132.133 105.119 132.24 104.522 132.24C103.69 132.24 103.013 132.064 102.49 131.712C101.967 131.36 101.706 130.816 101.706 130.08C101.706 129.493 101.871 129.024 102.202 128.672C102.533 128.309 102.965 128.037 103.498 127.856C104.031 127.664 104.698 127.493 105.498 127.344L107.226 127.04V126.528C107.226 125.984 107.039 125.563 106.666 125.264C106.293 124.955 105.802 124.8 105.194 124.8C104.735 124.8 104.319 124.885 103.946 125.056C103.573 125.227 103.173 125.52 102.746 125.936C102.671 126.011 102.591 126.048 102.506 126.048C102.431 126.048 102.362 126.016 102.298 125.952L102.09 125.76C102.015 125.685 101.978 125.605 101.978 125.52C101.978 125.424 102.015 125.339 102.09 125.264C102.538 124.795 103.007 124.453 103.498 124.24C103.999 124.027 104.549 123.92 105.146 123.92ZM104.57 131.36C105.338 131.36 105.973 131.157 106.474 130.752C106.975 130.347 107.226 129.829 107.226 129.2V127.856L105.738 128.144C105.045 128.283 104.495 128.416 104.09 128.544C103.685 128.672 103.359 128.859 103.114 129.104C102.869 129.349 102.746 129.669 102.746 130.064C102.746 130.469 102.906 130.789 103.226 131.024C103.557 131.248 104.005 131.36 104.57 131.36ZM110.911 132C110.697 132 110.591 131.893 110.591 131.68V120.96C110.591 120.747 110.697 120.64 110.911 120.64H111.327C111.54 120.64 111.647 120.747 111.647 120.96V131.68C111.647 131.893 111.54 132 111.327 132H110.911ZM114.364 132C114.15 132 114.044 131.893 114.044 131.68V120.96C114.044 120.747 114.15 120.64 114.364 120.64H114.78C114.993 120.64 115.1 120.747 115.1 120.96V131.68C115.1 131.893 114.993 132 114.78 132H114.364Z" fill="#464646"/>
<path d="M88.304 150.896C88.368 150.725 88.4907 150.64 88.672 150.64H89.92C90.1333 150.64 90.24 150.747 90.24 150.96V161.68C90.24 161.893 90.1333 162 89.92 162H89.456C89.2427 162 89.136 161.893 89.136 161.68V156.368C89.136 155.227 89.1467 153.579 89.168 151.424C88.7307 152.672 88.1333 154.32 87.376 156.368L85.408 161.744C85.344 161.915 85.2213 162 85.04 162H84.576C84.3947 162 84.272 161.915 84.208 161.744L82.192 156.352C81.7653 155.243 81.1733 153.6 80.416 151.424C80.4373 153.579 80.448 155.232 80.448 156.384V161.68C80.448 161.893 80.3413 162 80.128 162H79.696C79.4827 162 79.376 161.893 79.376 161.68V150.96C79.376 150.747 79.4827 150.64 79.696 150.64H80.928C81.1093 150.64 81.232 150.725 81.296 150.896L83.12 155.808C83.9627 158.101 84.528 159.717 84.816 160.656C85.0827 159.76 85.5413 158.421 86.192 156.64C86.2347 156.523 86.2827 156.395 86.336 156.256C86.3893 156.117 86.4427 155.968 86.496 155.808L88.304 150.896ZM98.5374 160.128C98.612 160.053 98.692 160.016 98.7774 160.016C98.852 160.016 98.9214 160.048 98.9854 160.112L99.1934 160.304C99.268 160.379 99.3054 160.459 99.3054 160.544C99.3054 160.608 99.2734 160.683 99.2094 160.768C98.6867 161.291 98.18 161.664 97.6894 161.888C97.1987 162.101 96.6494 162.208 96.0414 162.208C95.2734 162.208 94.6067 162.037 94.0414 161.696C93.476 161.355 93.0387 160.88 92.7294 160.272C92.42 159.653 92.2654 158.939 92.2654 158.128C92.2654 157.307 92.4147 156.581 92.7134 155.952C93.0227 155.312 93.4547 154.816 94.0094 154.464C94.564 154.101 95.204 153.92 95.9294 153.92C97.0067 153.92 97.8547 154.256 98.4734 154.928C99.092 155.6 99.4014 156.507 99.4014 157.648V157.84C99.3907 157.936 99.3534 158.011 99.2894 158.064C99.236 158.117 99.1614 158.144 99.0654 158.144H93.3374C93.3694 159.04 93.604 159.797 94.0414 160.416C94.4894 161.024 95.156 161.328 96.0414 161.328C96.5214 161.328 96.9427 161.243 97.3054 161.072C97.6787 160.891 98.0894 160.576 98.5374 160.128ZM95.9294 154.8C95.2254 154.8 94.644 155.019 94.1854 155.456C93.7374 155.883 93.4654 156.512 93.3694 157.344H98.3454C98.324 156.565 98.1 155.947 97.6734 155.488C97.2467 155.029 96.6654 154.8 95.9294 154.8ZM107.005 150.96C107.005 150.747 107.112 150.64 107.325 150.64H107.741C107.954 150.64 108.061 150.747 108.061 150.96V161.68C108.061 161.893 107.954 162 107.741 162H107.405C107.192 162 107.085 161.893 107.085 161.68V160.64C106.797 161.141 106.418 161.525 105.949 161.792C105.48 162.059 104.925 162.192 104.285 162.192C103.613 162.192 103.016 162.021 102.493 161.68C101.97 161.328 101.56 160.843 101.261 160.224C100.962 159.595 100.813 158.875 100.813 158.064C100.813 157.253 100.962 156.539 101.261 155.92C101.57 155.291 101.992 154.805 102.525 154.464C103.058 154.112 103.656 153.936 104.317 153.936C105.533 153.936 106.429 154.389 107.005 155.296V150.96ZM104.365 161.296C105.165 161.296 105.81 161.013 106.301 160.448C106.802 159.872 107.053 159.077 107.053 158.064C107.053 157.061 106.802 156.272 106.301 155.696C105.81 155.12 105.165 154.832 104.365 154.832C103.629 154.832 103.032 155.131 102.573 155.728C102.125 156.325 101.901 157.104 101.901 158.064C101.901 159.035 102.125 159.819 102.573 160.416C103.021 161.003 103.618 161.296 104.365 161.296ZM110.962 152.112C110.749 152.112 110.567 152.037 110.418 151.888C110.279 151.739 110.21 151.557 110.21 151.344C110.21 151.131 110.279 150.955 110.418 150.816C110.567 150.677 110.749 150.608 110.962 150.608C111.186 150.608 111.367 150.677 111.506 150.816C111.655 150.955 111.73 151.131 111.73 151.344C111.73 151.557 111.655 151.739 111.506 151.888C111.367 152.037 111.186 152.112 110.962 152.112ZM110.754 162C110.541 162 110.434 161.893 110.434 161.68V154.432C110.434 154.219 110.541 154.112 110.754 154.112H111.17C111.383 154.112 111.49 154.219 111.49 154.432V161.68C111.49 161.893 111.383 162 111.17 162H110.754ZM118.96 154.432C118.96 154.219 119.067 154.112 119.28 154.112H119.696C119.91 154.112 120.016 154.219 120.016 154.432V161.68C120.016 161.893 119.91 162 119.696 162H119.36C119.147 162 119.04 161.893 119.04 161.68V160.96C118.806 161.376 118.47 161.691 118.032 161.904C117.606 162.107 117.136 162.208 116.624 162.208C115.664 162.208 114.955 161.968 114.496 161.488C114.038 160.997 113.808 160.368 113.808 159.6V154.432C113.808 154.219 113.915 154.112 114.128 154.112H114.544C114.758 154.112 114.864 154.219 114.864 154.432V159.376C114.864 160.005 115.019 160.485 115.328 160.816C115.648 161.136 116.102 161.296 116.688 161.296C117.35 161.296 117.894 161.093 118.32 160.688C118.747 160.283 118.96 159.707 118.96 158.96V154.432ZM130.403 153.92C131.256 153.92 131.907 154.165 132.355 154.656C132.814 155.136 133.043 155.755 133.043 156.512V161.68C133.043 161.893 132.936 162 132.723 162H132.307C132.094 162 131.987 161.893 131.987 161.68V156.8C131.987 156.16 131.838 155.669 131.539 155.328C131.251 154.987 130.819 154.816 130.243 154.816C129.635 154.816 129.15 155.019 128.787 155.424C128.424 155.829 128.243 156.352 128.243 156.992V161.68C128.243 161.893 128.136 162 127.923 162H127.507C127.294 162 127.187 161.893 127.187 161.68V156.8C127.187 156.16 127.038 155.669 126.739 155.328C126.451 154.987 126.014 154.816 125.427 154.816C124.883 154.816 124.43 154.987 124.067 155.328C123.715 155.669 123.507 156.117 123.443 156.672V161.68C123.443 161.893 123.336 162 123.123 162H122.707C122.494 162 122.387 161.893 122.387 161.68V154.432C122.387 154.219 122.494 154.112 122.707 154.112H123.059C123.272 154.112 123.379 154.219 123.379 154.432V155.088C123.859 154.309 124.622 153.92 125.667 153.92C126.211 153.92 126.675 154.043 127.059 154.288C127.454 154.523 127.747 154.843 127.939 155.248C128.504 154.363 129.326 153.92 130.403 153.92Z" fill="#464646"/>
<path d="M79.696 192C79.4827 192 79.376 191.893 79.376 191.68V180.96C79.376 180.747 79.4827 180.64 79.696 180.64H80.192C80.4053 180.64 80.512 180.747 80.512 180.96V191.056H85.616C85.8293 191.056 85.936 191.163 85.936 191.376V191.68C85.936 191.893 85.8293 192 85.616 192H79.696ZM90.7396 183.92C91.7103 183.92 92.4676 184.155 93.0116 184.624C93.5556 185.083 93.8276 185.691 93.8276 186.448V191.68C93.8276 191.893 93.721 192 93.5076 192H93.1876C92.9743 192 92.8676 191.893 92.8676 191.68V190.96C92.601 191.387 92.2223 191.707 91.7316 191.92C91.2516 192.133 90.713 192.24 90.1156 192.24C89.2836 192.24 88.6063 192.064 88.0836 191.712C87.561 191.36 87.2996 190.816 87.2996 190.08C87.2996 189.493 87.465 189.024 87.7956 188.672C88.1263 188.309 88.5583 188.037 89.0916 187.856C89.625 187.664 90.2916 187.493 91.0916 187.344L92.8196 187.04V186.528C92.8196 185.984 92.633 185.563 92.2596 185.264C91.8863 184.955 91.3956 184.8 90.7876 184.8C90.329 184.8 89.913 184.885 89.5396 185.056C89.1663 185.227 88.7663 185.52 88.3396 185.936C88.265 186.011 88.185 186.048 88.0996 186.048C88.025 186.048 87.9556 186.016 87.8916 185.952L87.6836 185.76C87.609 185.685 87.5716 185.605 87.5716 185.52C87.5716 185.424 87.609 185.339 87.6836 185.264C88.1316 184.795 88.601 184.453 89.0916 184.24C89.593 184.027 90.1423 183.92 90.7396 183.92ZM90.1636 191.36C90.9316 191.36 91.5663 191.157 92.0676 190.752C92.569 190.347 92.8196 189.829 92.8196 189.2V187.856L91.3316 188.144C90.6383 188.283 90.089 188.416 89.6836 188.544C89.2783 188.672 88.953 188.859 88.7076 189.104C88.4623 189.349 88.3396 189.669 88.3396 190.064C88.3396 190.469 88.4996 190.789 88.8196 191.024C89.1503 191.248 89.5983 191.36 90.1636 191.36ZM99.1124 184.048C99.379 184.048 99.6937 184.091 100.056 184.176C100.248 184.24 100.323 184.373 100.28 184.576L100.216 184.832C100.163 185.035 100.03 185.109 99.8164 185.056C99.5604 184.992 99.3257 184.96 99.1124 184.96C98.5684 184.96 98.115 185.195 97.7524 185.664C97.4004 186.133 97.2244 186.784 97.2244 187.616V191.68C97.2244 191.893 97.1177 192 96.9044 192H96.4884C96.275 192 96.1684 191.893 96.1684 191.68V184.432C96.1684 184.219 96.275 184.112 96.4884 184.112H96.8404C97.0537 184.112 97.1604 184.219 97.1604 184.432V185.312C97.3417 184.917 97.5977 184.608 97.9284 184.384C98.2697 184.16 98.6644 184.048 99.1124 184.048ZM106.942 184.432C106.942 184.219 107.048 184.112 107.262 184.112H107.598C107.811 184.112 107.918 184.219 107.918 184.432V191.92C107.918 192.912 107.619 193.691 107.022 194.256C106.424 194.832 105.587 195.12 104.51 195.12C103.347 195.12 102.275 194.789 101.294 194.128C101.187 194.064 101.134 193.984 101.134 193.888C101.134 193.813 101.155 193.749 101.198 193.696L101.39 193.424C101.454 193.317 101.539 193.264 101.646 193.264C101.688 193.264 101.752 193.285 101.838 193.328C102.307 193.627 102.744 193.851 103.15 194C103.566 194.149 104.019 194.224 104.51 194.224C105.214 194.224 105.784 194.027 106.222 193.632C106.659 193.248 106.878 192.651 106.878 191.84V190.56C106.302 191.488 105.427 191.952 104.254 191.952C103.571 191.952 102.968 191.781 102.446 191.44C101.923 191.088 101.518 190.608 101.23 190C100.952 189.392 100.814 188.704 100.814 187.936C100.814 187.168 100.952 186.48 101.23 185.872C101.518 185.264 101.923 184.789 102.446 184.448C102.968 184.096 103.571 183.92 104.254 183.92C104.872 183.92 105.406 184.053 105.854 184.32C106.312 184.576 106.675 184.944 106.942 185.424V184.432ZM104.366 191.056C105.134 191.056 105.747 190.768 106.206 190.192C106.664 189.605 106.894 188.853 106.894 187.936C106.894 187.019 106.664 186.272 106.206 185.696C105.747 185.109 105.134 184.816 104.366 184.816C103.587 184.816 102.979 185.104 102.542 185.68C102.115 186.256 101.902 187.008 101.902 187.936C101.902 188.864 102.115 189.616 102.542 190.192C102.979 190.768 103.587 191.056 104.366 191.056ZM116.037 190.128C116.112 190.053 116.192 190.016 116.277 190.016C116.352 190.016 116.421 190.048 116.485 190.112L116.693 190.304C116.768 190.379 116.805 190.459 116.805 190.544C116.805 190.608 116.773 190.683 116.709 190.768C116.187 191.291 115.68 191.664 115.189 191.888C114.699 192.101 114.149 192.208 113.541 192.208C112.773 192.208 112.107 192.037 111.541 191.696C110.976 191.355 110.539 190.88 110.229 190.272C109.92 189.653 109.765 188.939 109.765 188.128C109.765 187.307 109.915 186.581 110.213 185.952C110.523 185.312 110.955 184.816 111.509 184.464C112.064 184.101 112.704 183.92 113.429 183.92C114.507 183.92 115.355 184.256 115.973 184.928C116.592 185.6 116.901 186.507 116.901 187.648V187.84C116.891 187.936 116.853 188.011 116.789 188.064C116.736 188.117 116.661 188.144 116.565 188.144H110.837C110.869 189.04 111.104 189.797 111.541 190.416C111.989 191.024 112.656 191.328 113.541 191.328C114.021 191.328 114.443 191.243 114.805 191.072C115.179 190.891 115.589 190.576 116.037 190.128ZM113.429 184.8C112.725 184.8 112.144 185.019 111.685 185.456C111.237 185.883 110.965 186.512 110.869 187.344H115.845C115.824 186.565 115.6 185.947 115.173 185.488C114.747 185.029 114.165 184.8 113.429 184.8Z" fill="#464646"/>
</g>
</g>
<defs>
<filter id="filter0_dd_1501_18128" x="62" y="107" width="220" height="108" filterUnits="userSpaceOnUse" color-interpolation-filters="sRGB">
<feFlood flood-opacity="0" result="BackgroundImageFix"/>
<feColorMatrix in="SourceAlpha" type="matrix" values="0 0 0 0 0 0 0 0 0 0 0 0 0 0 0 0 0 0 127 0" result="hardAlpha"/>
<feOffset dy="3"/>
<feGaussianBlur stdDeviation="3"/>
<feColorMatrix type="matrix" values="0 0 0 0 0.272549 0 0 0 0 0.272549 0 0 0 0 0.272549 0 0 0 0.16 0"/>
<feBlend mode="normal" in2="BackgroundImageFix" result="effect1_dropShadow_1501_18128"/>
<feColorMatrix in="SourceAlpha" type="matrix" values="0 0 0 0 0 0 0 0 0 0 0 0 0 0 0 0 0 0 127 0" result="hardAlpha"/>
<feOffset dy="3"/>
<feGaussianBlur stdDeviation="4"/>
<feColorMatrix type="matrix" values="0 0 0 0 0.272549 0 0 0 0 0.272549 0 0 0 0 0.272549 0 0 0 0.24 0"/>
<feBlend mode="normal" in2="effect1_dropShadow_1501_18128" result="effect2_dropShadow_1501_18128"/>
<feBlend mode="normal" in="SourceGraphic" in2="effect2_dropShadow_1501_18128" result="shape"/>
</filter>
<clipPath id="clip0_1501_18128">
<rect x="70" y="112" width="204" height="92" rx="4" fill="white"/>
</clipPath>
</defs>
</svg>
