<svg width="344" height="168" viewBox="0 0 344 168" fill="none" xmlns="http://www.w3.org/2000/svg">
<rect width="344" height="168" fill="#F5F5F5"/>
<path d="M75.348 63.224C74.3587 63.224 73.5 63 72.772 62.552C72.0533 62.104 71.498 61.488 71.106 60.704C70.7233 59.9107 70.532 59.0147 70.532 58.016C70.532 57.0173 70.7233 56.1307 71.106 55.356C71.4887 54.572 72.044 53.956 72.772 53.508C73.5 53.06 74.3727 52.836 75.39 52.836C76.006 52.836 76.566 52.9247 77.07 53.102C77.574 53.27 78.0827 53.5547 78.596 53.956C78.736 54.068 78.806 54.194 78.806 54.334C78.806 54.4273 78.7593 54.5347 78.666 54.656L78.358 55.02C78.246 55.1507 78.1293 55.216 78.008 55.216C77.9147 55.216 77.798 55.1693 77.658 55.076C77.238 54.7493 76.8507 54.5253 76.496 54.404C76.1507 54.2827 75.7773 54.222 75.376 54.222C74.7227 54.222 74.1533 54.3807 73.668 54.698C73.1827 55.0153 72.8093 55.4633 72.548 56.042C72.2867 56.6113 72.156 57.2693 72.156 58.016C72.156 58.7627 72.2867 59.4253 72.548 60.004C72.8093 60.5827 73.178 61.0353 73.654 61.362C74.13 61.6793 74.6853 61.838 75.32 61.838C75.796 61.838 76.2207 61.754 76.594 61.586C76.9673 61.418 77.3733 61.1473 77.812 60.774C77.9333 60.6713 78.05 60.62 78.162 60.62C78.2833 60.62 78.4 60.6853 78.512 60.816L78.82 61.166C78.9133 61.2687 78.96 61.376 78.96 61.488C78.96 61.6467 78.8853 61.7867 78.736 61.908C78.1947 62.3747 77.658 62.7107 77.126 62.916C76.6033 63.1213 76.0107 63.224 75.348 63.224ZM83.3956 63.21C82.7143 63.21 82.1076 63.056 81.5756 62.748C81.0529 62.44 80.6423 62.0107 80.3436 61.46C80.0449 60.9 79.8956 60.2607 79.8956 59.542C79.8956 58.8233 80.0449 58.1887 80.3436 57.638C80.6423 57.0873 81.0529 56.658 81.5756 56.35C82.1076 56.042 82.7143 55.888 83.3956 55.888C84.0676 55.888 84.6696 56.042 85.2016 56.35C85.7336 56.658 86.1489 57.092 86.4476 57.652C86.7463 58.2027 86.8956 58.8327 86.8956 59.542C86.8956 60.2607 86.7463 60.9 86.4476 61.46C86.1489 62.0107 85.7336 62.44 85.2016 62.748C84.6696 63.056 84.0676 63.21 83.3956 63.21ZM83.3956 61.964C83.9929 61.964 84.4736 61.7447 84.8376 61.306C85.2016 60.858 85.3836 60.27 85.3836 59.542C85.3836 58.8233 85.2016 58.2447 84.8376 57.806C84.4736 57.3673 83.9929 57.148 83.3956 57.148C82.7983 57.148 82.3176 57.3673 81.9536 57.806C81.5896 58.2447 81.4076 58.8233 81.4076 59.542C81.4076 60.27 81.5896 60.858 81.9536 61.306C82.3176 61.7447 82.7983 61.964 83.3956 61.964ZM92.5856 56.588C92.5856 56.4293 92.6276 56.308 92.7116 56.224C92.8049 56.14 92.9263 56.098 93.0756 56.098H93.5796C93.7383 56.098 93.8596 56.14 93.9436 56.224C94.0276 56.308 94.0696 56.4293 94.0696 56.588V62.51C94.0696 62.6593 94.0276 62.7807 93.9436 62.874C93.8596 62.958 93.7383 63 93.5796 63H93.2016C93.0523 63 92.9309 62.958 92.8376 62.874C92.7536 62.7807 92.7116 62.6593 92.7116 62.51V62.188C92.5249 62.5053 92.2543 62.7573 91.8996 62.944C91.5449 63.1213 91.1249 63.21 90.6396 63.21C89.8183 63.21 89.2069 63.0093 88.8056 62.608C88.4043 62.1973 88.2036 61.656 88.2036 60.984V56.588C88.2036 56.4293 88.2456 56.308 88.3296 56.224C88.4229 56.14 88.5443 56.098 88.6936 56.098H89.1976C89.3563 56.098 89.4776 56.14 89.5616 56.224C89.6456 56.308 89.6876 56.4293 89.6876 56.588V60.592C89.6876 61.0213 89.7949 61.3527 90.0096 61.586C90.2336 61.81 90.5556 61.922 90.9756 61.922C91.4609 61.922 91.8483 61.782 92.1376 61.502C92.4363 61.222 92.5856 60.816 92.5856 60.284V56.588ZM99.2918 55.888C100.085 55.888 100.692 56.112 101.112 56.56C101.541 56.9987 101.756 57.568 101.756 58.268V62.51C101.756 62.6593 101.714 62.7807 101.63 62.874C101.546 62.958 101.424 63 101.266 63H100.762C100.612 63 100.491 62.958 100.398 62.874C100.314 62.7807 100.272 62.6593 100.272 62.51V58.73C100.272 58.226 100.146 57.8387 99.8938 57.568C99.6512 57.2973 99.3012 57.162 98.8438 57.162C98.3958 57.162 98.0178 57.316 97.7098 57.624C97.4112 57.932 97.2618 58.3193 97.2618 58.786V62.51C97.2618 62.6593 97.2198 62.7807 97.1358 62.874C97.0518 62.958 96.9305 63 96.7718 63H96.2678C96.1185 63 95.9972 62.958 95.9038 62.874C95.8198 62.7807 95.7778 62.6593 95.7778 62.51V56.588C95.7778 56.4293 95.8198 56.308 95.9038 56.224C95.9972 56.14 96.1185 56.098 96.2678 56.098H96.6738C96.8325 56.098 96.9538 56.14 97.0378 56.224C97.1218 56.308 97.1638 56.4293 97.1638 56.588V56.952C97.3878 56.6067 97.6818 56.3453 98.0458 56.168C98.4098 55.9813 98.8252 55.888 99.2918 55.888ZM106.643 61.824C106.671 61.8147 106.713 61.81 106.769 61.81C107.002 61.81 107.142 61.9453 107.189 62.216L107.231 62.44C107.24 62.468 107.245 62.5147 107.245 62.58C107.245 62.8133 107.114 62.9627 106.853 63.028C106.48 63.112 106.139 63.154 105.831 63.154C105.168 63.154 104.688 63 104.389 62.692C104.1 62.384 103.955 61.922 103.955 61.306V57.232H103.185C103.036 57.232 102.914 57.19 102.821 57.106C102.737 57.0127 102.695 56.8913 102.695 56.742V56.588C102.695 56.4293 102.737 56.308 102.821 56.224C102.914 56.14 103.036 56.098 103.185 56.098H103.955V54.362C103.955 54.2033 103.997 54.082 104.081 53.998C104.174 53.914 104.296 53.872 104.445 53.872H104.949C105.108 53.872 105.229 53.914 105.313 53.998C105.397 54.082 105.439 54.2033 105.439 54.362V56.098H106.699C106.858 56.098 106.979 56.14 107.063 56.224C107.147 56.308 107.189 56.4293 107.189 56.588V56.742C107.189 56.8913 107.147 57.0127 107.063 57.106C106.979 57.19 106.858 57.232 106.699 57.232H105.439V61.124C105.439 61.3947 105.495 61.586 105.607 61.698C105.728 61.81 105.92 61.866 106.181 61.866C106.293 61.866 106.447 61.852 106.643 61.824ZM111.519 56.028C111.724 56.028 111.934 56.0513 112.149 56.098C112.401 56.154 112.527 56.3033 112.527 56.546C112.527 56.6113 112.522 56.658 112.513 56.686L112.443 57.022C112.387 57.2833 112.247 57.414 112.023 57.414L111.897 57.4C111.729 57.372 111.579 57.358 111.449 57.358C110.982 57.358 110.604 57.5447 110.315 57.918C110.035 58.282 109.895 58.7907 109.895 59.444V62.51C109.895 62.6593 109.853 62.7807 109.769 62.874C109.685 62.958 109.563 63 109.405 63H108.901C108.751 63 108.63 62.958 108.537 62.874C108.453 62.7807 108.411 62.6593 108.411 62.51V56.588C108.411 56.4293 108.453 56.308 108.537 56.224C108.63 56.14 108.751 56.098 108.901 56.098H109.307C109.465 56.098 109.587 56.14 109.671 56.224C109.755 56.308 109.797 56.4293 109.797 56.588V57.134C109.965 56.7887 110.193 56.518 110.483 56.322C110.772 56.126 111.117 56.028 111.519 56.028ZM118.107 56.504C118.191 56.2333 118.373 56.098 118.653 56.098H119.157C119.297 56.098 119.405 56.1307 119.479 56.196C119.554 56.2613 119.591 56.35 119.591 56.462C119.591 56.518 119.577 56.5833 119.549 56.658L117.043 63.854C116.819 64.5073 116.539 64.9693 116.203 65.24C115.877 65.52 115.41 65.66 114.803 65.66C114.523 65.66 114.285 65.6413 114.089 65.604C113.959 65.5947 113.861 65.548 113.795 65.464C113.73 65.3893 113.697 65.296 113.697 65.184C113.697 65.1187 113.702 65.0673 113.711 65.03L113.753 64.848C113.819 64.5867 113.959 64.456 114.173 64.456C114.257 64.456 114.337 64.4607 114.411 64.47C114.486 64.4793 114.561 64.484 114.635 64.484C114.906 64.484 115.13 64.414 115.307 64.274C115.494 64.134 115.648 63.8773 115.769 63.504L115.811 63.392L113.417 56.658C113.389 56.5833 113.375 56.5133 113.375 56.448C113.375 56.336 113.413 56.252 113.487 56.196C113.571 56.1307 113.683 56.098 113.823 56.098H114.355C114.645 56.098 114.831 56.2333 114.915 56.504L115.461 58.142C115.872 59.318 116.222 60.396 116.511 61.376L116.917 60.13C116.983 59.934 117.081 59.626 117.211 59.206C117.342 58.786 117.459 58.4267 117.561 58.128L118.107 56.504Z" fill="#464646"/>
<rect x="70.5" y="71.5" width="202" height="47" rx="3.5" fill="white"/>
<path d="M87.136 88.96C87.136 88.7467 87.2427 88.64 87.456 88.64H87.92C88.1333 88.64 88.24 88.7467 88.24 88.96V99.68C88.24 99.8933 88.1333 100 87.92 100H87.2C87.0293 100 86.896 99.9307 86.8 99.792L83.36 94.576L83.168 94.272C81.888 92.352 80.9707 90.9387 80.416 90.032C80.4587 91.28 80.48 92.72 80.48 94.352V99.68C80.48 99.8933 80.3733 100 80.16 100H79.696C79.4827 100 79.376 99.8933 79.376 99.68V88.96C79.376 88.7467 79.4827 88.64 79.696 88.64H80.416C80.5867 88.64 80.72 88.7093 80.816 88.848L84.24 94.048L84.848 94.992C85.9253 96.624 86.7093 97.84 87.2 98.64C87.1573 97.3707 87.136 95.9253 87.136 94.304V88.96ZM94.0574 100.208C93.3214 100.208 92.6654 100.032 92.0894 99.68C91.5134 99.328 91.0654 98.8427 90.7454 98.224C90.4254 97.5947 90.2654 96.8747 90.2654 96.064C90.2654 95.2533 90.4254 94.5387 90.7454 93.92C91.0654 93.2907 91.5134 92.8 92.0894 92.448C92.6654 92.096 93.3214 91.92 94.0574 91.92C94.7934 91.92 95.4494 92.096 96.0254 92.448C96.6014 92.8 97.0494 93.2907 97.3694 93.92C97.6894 94.5387 97.8494 95.2533 97.8494 96.064C97.8494 96.8747 97.6894 97.5947 97.3694 98.224C97.0494 98.8427 96.6014 99.328 96.0254 99.68C95.4494 100.032 94.7934 100.208 94.0574 100.208ZM94.0574 99.328C94.8787 99.328 95.5347 99.0293 96.0254 98.432C96.516 97.824 96.7614 97.0347 96.7614 96.064C96.7614 95.0933 96.516 94.3093 96.0254 93.712C95.5347 93.104 94.8787 92.8 94.0574 92.8C93.236 92.8 92.58 93.104 92.0894 93.712C91.5987 94.3093 91.3534 95.0933 91.3534 96.064C91.3534 97.0347 91.5987 97.824 92.0894 98.432C92.58 99.0293 93.236 99.328 94.0574 99.328ZM102.628 92.048C102.895 92.048 103.209 92.0907 103.572 92.176C103.764 92.24 103.839 92.3733 103.796 92.576L103.732 92.832C103.679 93.0347 103.545 93.1093 103.332 93.056C103.076 92.992 102.841 92.96 102.628 92.96C102.084 92.96 101.631 93.1947 101.268 93.664C100.916 94.1333 100.74 94.784 100.74 95.616V99.68C100.74 99.8933 100.633 100 100.42 100H100.004C99.7907 100 99.684 99.8933 99.684 99.68V92.432C99.684 92.2187 99.7907 92.112 100.004 92.112H100.356C100.569 92.112 100.676 92.2187 100.676 92.432V93.312C100.857 92.9173 101.113 92.608 101.444 92.384C101.785 92.16 102.18 92.048 102.628 92.048ZM114.281 92.384C114.324 92.2027 114.446 92.112 114.649 92.112H115.081C115.198 92.112 115.278 92.144 115.321 92.208C115.374 92.272 115.385 92.3573 115.353 92.464L113.289 99.728C113.246 99.9093 113.124 100 112.921 100H112.201C112.02 100 111.902 99.9093 111.849 99.728L111.113 97.28C110.729 96 110.372 94.688 110.041 93.344C109.721 94.6453 109.369 95.968 108.985 97.312L108.281 99.728C108.238 99.9093 108.116 100 107.913 100H107.225C107.022 100 106.9 99.9093 106.857 99.728L104.793 92.464C104.782 92.4427 104.777 92.4053 104.777 92.352C104.777 92.2773 104.804 92.2187 104.857 92.176C104.91 92.1333 104.98 92.112 105.065 92.112H105.497C105.7 92.112 105.822 92.2027 105.865 92.384L106.633 95.216C106.985 96.5067 107.31 97.792 107.609 99.072C107.844 98.1227 108.19 96.8373 108.649 95.216L109.465 92.384C109.508 92.2027 109.63 92.112 109.833 92.112H110.313C110.505 92.112 110.622 92.2027 110.665 92.384L111.497 95.216C111.86 96.528 112.201 97.8187 112.521 99.088C112.766 98.0213 113.097 96.7307 113.513 95.216L114.281 92.384ZM120.005 91.92C120.976 91.92 121.733 92.1547 122.277 92.624C122.821 93.0827 123.093 93.6907 123.093 94.448V99.68C123.093 99.8933 122.987 100 122.773 100H122.453C122.24 100 122.133 99.8933 122.133 99.68V98.96C121.867 99.3867 121.488 99.7067 120.997 99.92C120.517 100.133 119.979 100.24 119.381 100.24C118.549 100.24 117.872 100.064 117.349 99.712C116.827 99.36 116.565 98.816 116.565 98.08C116.565 97.4933 116.731 97.024 117.061 96.672C117.392 96.3093 117.824 96.0373 118.357 95.856C118.891 95.664 119.557 95.4933 120.357 95.344L122.085 95.04V94.528C122.085 93.984 121.899 93.5627 121.525 93.264C121.152 92.9547 120.661 92.8 120.053 92.8C119.595 92.8 119.179 92.8853 118.805 93.056C118.432 93.2267 118.032 93.52 117.605 93.936C117.531 94.0107 117.451 94.048 117.365 94.048C117.291 94.048 117.221 94.016 117.157 93.952L116.949 93.76C116.875 93.6853 116.837 93.6053 116.837 93.52C116.837 93.424 116.875 93.3387 116.949 93.264C117.397 92.7947 117.867 92.4533 118.357 92.24C118.859 92.0267 119.408 91.92 120.005 91.92ZM119.429 99.36C120.197 99.36 120.832 99.1573 121.333 98.752C121.835 98.3467 122.085 97.8293 122.085 97.2V95.856L120.597 96.144C119.904 96.2827 119.355 96.416 118.949 96.544C118.544 96.672 118.219 96.8587 117.973 97.104C117.728 97.3493 117.605 97.6693 117.605 98.064C117.605 98.4693 117.765 98.7893 118.085 99.024C118.416 99.248 118.864 99.36 119.429 99.36ZM130.111 92.368C130.175 92.1973 130.298 92.112 130.479 92.112H130.911C130.997 92.112 131.066 92.1333 131.119 92.176C131.173 92.2187 131.199 92.2773 131.199 92.352L131.167 92.48L128.079 101.2C127.909 101.68 127.743 102.053 127.583 102.32C127.423 102.587 127.205 102.789 126.927 102.928C126.661 103.067 126.309 103.136 125.871 103.136C125.594 103.136 125.349 103.115 125.135 103.072C125.029 103.061 124.954 103.019 124.911 102.944C124.879 102.869 124.874 102.784 124.895 102.688L124.943 102.48C124.986 102.288 125.109 102.203 125.311 102.224C125.503 102.256 125.669 102.272 125.807 102.272C126.149 102.272 126.415 102.176 126.607 101.984C126.81 101.792 127.002 101.429 127.183 100.896L127.327 100.448L124.511 92.48L124.479 92.352C124.479 92.2773 124.506 92.2187 124.559 92.176C124.613 92.1333 124.682 92.112 124.767 92.112H125.231C125.402 92.112 125.519 92.1973 125.583 92.368L126.479 95.008C126.565 95.2747 126.778 95.9093 127.119 96.912L127.839 99.072C128.191 98.08 128.655 96.7147 129.231 94.976L130.111 92.368Z" fill="#464646"/>
<path d="M251.5 92.5L257 98L262.5 92.5" stroke="#464646" stroke-width="1.5" stroke-linecap="round" stroke-linejoin="round"/>
<rect x="70.5" y="71.5" width="202" height="47" rx="3.5" stroke="#C3CCD9"/>
</svg>
