<svg width="344" height="260" viewBox="0 0 344 260" fill="none" xmlns="http://www.w3.org/2000/svg">
<rect width="344" height="260" fill="#F5F5F5"/>
<path d="M75.348 54.224C74.3587 54.224 73.5 54 72.772 53.552C72.0533 53.104 71.498 52.488 71.106 51.704C70.7233 50.9107 70.532 50.0147 70.532 49.016C70.532 48.0173 70.7233 47.1307 71.106 46.356C71.4887 45.572 72.044 44.956 72.772 44.508C73.5 44.06 74.3727 43.836 75.39 43.836C76.006 43.836 76.566 43.9247 77.07 44.102C77.574 44.27 78.0827 44.5547 78.596 44.956C78.736 45.068 78.806 45.194 78.806 45.334C78.806 45.4273 78.7593 45.5347 78.666 45.656L78.358 46.02C78.246 46.1507 78.1293 46.216 78.008 46.216C77.9147 46.216 77.798 46.1693 77.658 46.076C77.238 45.7493 76.8507 45.5253 76.496 45.404C76.1507 45.2827 75.7773 45.222 75.376 45.222C74.7227 45.222 74.1533 45.3807 73.668 45.698C73.1827 46.0153 72.8093 46.4633 72.548 47.042C72.2867 47.6113 72.156 48.2693 72.156 49.016C72.156 49.7627 72.2867 50.4253 72.548 51.004C72.8093 51.5827 73.178 52.0353 73.654 52.362C74.13 52.6793 74.6853 52.838 75.32 52.838C75.796 52.838 76.2207 52.754 76.594 52.586C76.9673 52.418 77.3733 52.1473 77.812 51.774C77.9333 51.6713 78.05 51.62 78.162 51.62C78.2833 51.62 78.4 51.6853 78.512 51.816L78.82 52.166C78.9133 52.2687 78.96 52.376 78.96 52.488C78.96 52.6467 78.8853 52.7867 78.736 52.908C78.1947 53.3747 77.658 53.7107 77.126 53.916C76.6033 54.1213 76.0107 54.224 75.348 54.224ZM83.3956 54.21C82.7143 54.21 82.1076 54.056 81.5756 53.748C81.0529 53.44 80.6423 53.0107 80.3436 52.46C80.0449 51.9 79.8956 51.2607 79.8956 50.542C79.8956 49.8233 80.0449 49.1887 80.3436 48.638C80.6423 48.0873 81.0529 47.658 81.5756 47.35C82.1076 47.042 82.7143 46.888 83.3956 46.888C84.0676 46.888 84.6696 47.042 85.2016 47.35C85.7336 47.658 86.1489 48.092 86.4476 48.652C86.7463 49.2027 86.8956 49.8327 86.8956 50.542C86.8956 51.2607 86.7463 51.9 86.4476 52.46C86.1489 53.0107 85.7336 53.44 85.2016 53.748C84.6696 54.056 84.0676 54.21 83.3956 54.21ZM83.3956 52.964C83.9929 52.964 84.4736 52.7447 84.8376 52.306C85.2016 51.858 85.3836 51.27 85.3836 50.542C85.3836 49.8233 85.2016 49.2447 84.8376 48.806C84.4736 48.3673 83.9929 48.148 83.3956 48.148C82.7983 48.148 82.3176 48.3673 81.9536 48.806C81.5896 49.2447 81.4076 49.8233 81.4076 50.542C81.4076 51.27 81.5896 51.858 81.9536 52.306C82.3176 52.7447 82.7983 52.964 83.3956 52.964ZM92.5856 47.588C92.5856 47.4293 92.6276 47.308 92.7116 47.224C92.8049 47.14 92.9263 47.098 93.0756 47.098H93.5796C93.7383 47.098 93.8596 47.14 93.9436 47.224C94.0276 47.308 94.0696 47.4293 94.0696 47.588V53.51C94.0696 53.6593 94.0276 53.7807 93.9436 53.874C93.8596 53.958 93.7383 54 93.5796 54H93.2016C93.0523 54 92.9309 53.958 92.8376 53.874C92.7536 53.7807 92.7116 53.6593 92.7116 53.51V53.188C92.5249 53.5053 92.2543 53.7573 91.8996 53.944C91.5449 54.1213 91.1249 54.21 90.6396 54.21C89.8183 54.21 89.2069 54.0093 88.8056 53.608C88.4043 53.1973 88.2036 52.656 88.2036 51.984V47.588C88.2036 47.4293 88.2456 47.308 88.3296 47.224C88.4229 47.14 88.5443 47.098 88.6936 47.098H89.1976C89.3563 47.098 89.4776 47.14 89.5616 47.224C89.6456 47.308 89.6876 47.4293 89.6876 47.588V51.592C89.6876 52.0213 89.7949 52.3527 90.0096 52.586C90.2336 52.81 90.5556 52.922 90.9756 52.922C91.4609 52.922 91.8483 52.782 92.1376 52.502C92.4363 52.222 92.5856 51.816 92.5856 51.284V47.588ZM99.2918 46.888C100.085 46.888 100.692 47.112 101.112 47.56C101.541 47.9987 101.756 48.568 101.756 49.268V53.51C101.756 53.6593 101.714 53.7807 101.63 53.874C101.546 53.958 101.424 54 101.266 54H100.762C100.612 54 100.491 53.958 100.398 53.874C100.314 53.7807 100.272 53.6593 100.272 53.51V49.73C100.272 49.226 100.146 48.8387 99.8938 48.568C99.6512 48.2973 99.3012 48.162 98.8438 48.162C98.3958 48.162 98.0178 48.316 97.7098 48.624C97.4112 48.932 97.2618 49.3193 97.2618 49.786V53.51C97.2618 53.6593 97.2198 53.7807 97.1358 53.874C97.0518 53.958 96.9305 54 96.7718 54H96.2678C96.1185 54 95.9972 53.958 95.9038 53.874C95.8198 53.7807 95.7778 53.6593 95.7778 53.51V47.588C95.7778 47.4293 95.8198 47.308 95.9038 47.224C95.9972 47.14 96.1185 47.098 96.2678 47.098H96.6738C96.8325 47.098 96.9538 47.14 97.0378 47.224C97.1218 47.308 97.1638 47.4293 97.1638 47.588V47.952C97.3878 47.6067 97.6818 47.3453 98.0458 47.168C98.4098 46.9813 98.8252 46.888 99.2918 46.888ZM106.643 52.824C106.671 52.8147 106.713 52.81 106.769 52.81C107.002 52.81 107.142 52.9453 107.189 53.216L107.231 53.44C107.24 53.468 107.245 53.5147 107.245 53.58C107.245 53.8133 107.114 53.9627 106.853 54.028C106.48 54.112 106.139 54.154 105.831 54.154C105.168 54.154 104.688 54 104.389 53.692C104.1 53.384 103.955 52.922 103.955 52.306V48.232H103.185C103.036 48.232 102.914 48.19 102.821 48.106C102.737 48.0127 102.695 47.8913 102.695 47.742V47.588C102.695 47.4293 102.737 47.308 102.821 47.224C102.914 47.14 103.036 47.098 103.185 47.098H103.955V45.362C103.955 45.2033 103.997 45.082 104.081 44.998C104.174 44.914 104.296 44.872 104.445 44.872H104.949C105.108 44.872 105.229 44.914 105.313 44.998C105.397 45.082 105.439 45.2033 105.439 45.362V47.098H106.699C106.858 47.098 106.979 47.14 107.063 47.224C107.147 47.308 107.189 47.4293 107.189 47.588V47.742C107.189 47.8913 107.147 48.0127 107.063 48.106C106.979 48.19 106.858 48.232 106.699 48.232H105.439V52.124C105.439 52.3947 105.495 52.586 105.607 52.698C105.728 52.81 105.92 52.866 106.181 52.866C106.293 52.866 106.447 52.852 106.643 52.824ZM111.519 47.028C111.724 47.028 111.934 47.0513 112.149 47.098C112.401 47.154 112.527 47.3033 112.527 47.546C112.527 47.6113 112.522 47.658 112.513 47.686L112.443 48.022C112.387 48.2833 112.247 48.414 112.023 48.414L111.897 48.4C111.729 48.372 111.579 48.358 111.449 48.358C110.982 48.358 110.604 48.5447 110.315 48.918C110.035 49.282 109.895 49.7907 109.895 50.444V53.51C109.895 53.6593 109.853 53.7807 109.769 53.874C109.685 53.958 109.563 54 109.405 54H108.901C108.751 54 108.63 53.958 108.537 53.874C108.453 53.7807 108.411 53.6593 108.411 53.51V47.588C108.411 47.4293 108.453 47.308 108.537 47.224C108.63 47.14 108.751 47.098 108.901 47.098H109.307C109.465 47.098 109.587 47.14 109.671 47.224C109.755 47.308 109.797 47.4293 109.797 47.588V48.134C109.965 47.7887 110.193 47.518 110.483 47.322C110.772 47.126 111.117 47.028 111.519 47.028ZM118.107 47.504C118.191 47.2333 118.373 47.098 118.653 47.098H119.157C119.297 47.098 119.405 47.1307 119.479 47.196C119.554 47.2613 119.591 47.35 119.591 47.462C119.591 47.518 119.577 47.5833 119.549 47.658L117.043 54.854C116.819 55.5073 116.539 55.9693 116.203 56.24C115.877 56.52 115.41 56.66 114.803 56.66C114.523 56.66 114.285 56.6413 114.089 56.604C113.959 56.5947 113.861 56.548 113.795 56.464C113.73 56.3893 113.697 56.296 113.697 56.184C113.697 56.1187 113.702 56.0673 113.711 56.03L113.753 55.848C113.819 55.5867 113.959 55.456 114.173 55.456C114.257 55.456 114.337 55.4607 114.411 55.47C114.486 55.4793 114.561 55.484 114.635 55.484C114.906 55.484 115.13 55.414 115.307 55.274C115.494 55.134 115.648 54.8773 115.769 54.504L115.811 54.392L113.417 47.658C113.389 47.5833 113.375 47.5133 113.375 47.448C113.375 47.336 113.413 47.252 113.487 47.196C113.571 47.1307 113.683 47.098 113.823 47.098H114.355C114.645 47.098 114.831 47.2333 114.915 47.504L115.461 49.142C115.872 50.318 116.222 51.396 116.511 52.376L116.917 51.13C116.983 50.934 117.081 50.626 117.211 50.206C117.342 49.786 117.459 49.4267 117.561 49.128L118.107 47.504Z" fill="#464646"/>
<rect x="70.5" y="62.5" width="202" height="47" rx="3.5" fill="white"/>
<path d="M87.136 79.96C87.136 79.7467 87.2427 79.64 87.456 79.64H87.92C88.1333 79.64 88.24 79.7467 88.24 79.96V90.68C88.24 90.8933 88.1333 91 87.92 91H87.2C87.0293 91 86.896 90.9307 86.8 90.792L83.36 85.576L83.168 85.272C81.888 83.352 80.9707 81.9387 80.416 81.032C80.4587 82.28 80.48 83.72 80.48 85.352V90.68C80.48 90.8933 80.3733 91 80.16 91H79.696C79.4827 91 79.376 90.8933 79.376 90.68V79.96C79.376 79.7467 79.4827 79.64 79.696 79.64H80.416C80.5867 79.64 80.72 79.7093 80.816 79.848L84.24 85.048L84.848 85.992C85.9253 87.624 86.7093 88.84 87.2 89.64C87.1573 88.3707 87.136 86.9253 87.136 85.304V79.96ZM94.0574 91.208C93.3214 91.208 92.6654 91.032 92.0894 90.68C91.5134 90.328 91.0654 89.8427 90.7454 89.224C90.4254 88.5947 90.2654 87.8747 90.2654 87.064C90.2654 86.2533 90.4254 85.5387 90.7454 84.92C91.0654 84.2907 91.5134 83.8 92.0894 83.448C92.6654 83.096 93.3214 82.92 94.0574 82.92C94.7934 82.92 95.4494 83.096 96.0254 83.448C96.6014 83.8 97.0494 84.2907 97.3694 84.92C97.6894 85.5387 97.8494 86.2533 97.8494 87.064C97.8494 87.8747 97.6894 88.5947 97.3694 89.224C97.0494 89.8427 96.6014 90.328 96.0254 90.68C95.4494 91.032 94.7934 91.208 94.0574 91.208ZM94.0574 90.328C94.8787 90.328 95.5347 90.0293 96.0254 89.432C96.516 88.824 96.7614 88.0347 96.7614 87.064C96.7614 86.0933 96.516 85.3093 96.0254 84.712C95.5347 84.104 94.8787 83.8 94.0574 83.8C93.236 83.8 92.58 84.104 92.0894 84.712C91.5987 85.3093 91.3534 86.0933 91.3534 87.064C91.3534 88.0347 91.5987 88.824 92.0894 89.432C92.58 90.0293 93.236 90.328 94.0574 90.328ZM102.628 83.048C102.895 83.048 103.209 83.0907 103.572 83.176C103.764 83.24 103.839 83.3733 103.796 83.576L103.732 83.832C103.679 84.0347 103.545 84.1093 103.332 84.056C103.076 83.992 102.841 83.96 102.628 83.96C102.084 83.96 101.631 84.1947 101.268 84.664C100.916 85.1333 100.74 85.784 100.74 86.616V90.68C100.74 90.8933 100.633 91 100.42 91H100.004C99.7907 91 99.684 90.8933 99.684 90.68V83.432C99.684 83.2187 99.7907 83.112 100.004 83.112H100.356C100.569 83.112 100.676 83.2187 100.676 83.432V84.312C100.857 83.9173 101.113 83.608 101.444 83.384C101.785 83.16 102.18 83.048 102.628 83.048ZM114.281 83.384C114.324 83.2027 114.446 83.112 114.649 83.112H115.081C115.198 83.112 115.278 83.144 115.321 83.208C115.374 83.272 115.385 83.3573 115.353 83.464L113.289 90.728C113.246 90.9093 113.124 91 112.921 91H112.201C112.02 91 111.902 90.9093 111.849 90.728L111.113 88.28C110.729 87 110.372 85.688 110.041 84.344C109.721 85.6453 109.369 86.968 108.985 88.312L108.281 90.728C108.238 90.9093 108.116 91 107.913 91H107.225C107.022 91 106.9 90.9093 106.857 90.728L104.793 83.464C104.782 83.4427 104.777 83.4053 104.777 83.352C104.777 83.2773 104.804 83.2187 104.857 83.176C104.91 83.1333 104.98 83.112 105.065 83.112H105.497C105.7 83.112 105.822 83.2027 105.865 83.384L106.633 86.216C106.985 87.5067 107.31 88.792 107.609 90.072C107.844 89.1227 108.19 87.8373 108.649 86.216L109.465 83.384C109.508 83.2027 109.63 83.112 109.833 83.112H110.313C110.505 83.112 110.622 83.2027 110.665 83.384L111.497 86.216C111.86 87.528 112.201 88.8187 112.521 90.088C112.766 89.0213 113.097 87.7307 113.513 86.216L114.281 83.384ZM120.005 82.92C120.976 82.92 121.733 83.1547 122.277 83.624C122.821 84.0827 123.093 84.6907 123.093 85.448V90.68C123.093 90.8933 122.987 91 122.773 91H122.453C122.24 91 122.133 90.8933 122.133 90.68V89.96C121.867 90.3867 121.488 90.7067 120.997 90.92C120.517 91.1333 119.979 91.24 119.381 91.24C118.549 91.24 117.872 91.064 117.349 90.712C116.827 90.36 116.565 89.816 116.565 89.08C116.565 88.4933 116.731 88.024 117.061 87.672C117.392 87.3093 117.824 87.0373 118.357 86.856C118.891 86.664 119.557 86.4933 120.357 86.344L122.085 86.04V85.528C122.085 84.984 121.899 84.5627 121.525 84.264C121.152 83.9547 120.661 83.8 120.053 83.8C119.595 83.8 119.179 83.8853 118.805 84.056C118.432 84.2267 118.032 84.52 117.605 84.936C117.531 85.0107 117.451 85.048 117.365 85.048C117.291 85.048 117.221 85.016 117.157 84.952L116.949 84.76C116.875 84.6853 116.837 84.6053 116.837 84.52C116.837 84.424 116.875 84.3387 116.949 84.264C117.397 83.7947 117.867 83.4533 118.357 83.24C118.859 83.0267 119.408 82.92 120.005 82.92ZM119.429 90.36C120.197 90.36 120.832 90.1573 121.333 89.752C121.835 89.3467 122.085 88.8293 122.085 88.2V86.856L120.597 87.144C119.904 87.2827 119.355 87.416 118.949 87.544C118.544 87.672 118.219 87.8587 117.973 88.104C117.728 88.3493 117.605 88.6693 117.605 89.064C117.605 89.4693 117.765 89.7893 118.085 90.024C118.416 90.248 118.864 90.36 119.429 90.36ZM130.111 83.368C130.175 83.1973 130.298 83.112 130.479 83.112H130.911C130.997 83.112 131.066 83.1333 131.119 83.176C131.173 83.2187 131.199 83.2773 131.199 83.352L131.167 83.48L128.079 92.2C127.909 92.68 127.743 93.0533 127.583 93.32C127.423 93.5867 127.205 93.7893 126.927 93.928C126.661 94.0667 126.309 94.136 125.871 94.136C125.594 94.136 125.349 94.1147 125.135 94.072C125.029 94.0613 124.954 94.0187 124.911 93.944C124.879 93.8693 124.874 93.784 124.895 93.688L124.943 93.48C124.986 93.288 125.109 93.2027 125.311 93.224C125.503 93.256 125.669 93.272 125.807 93.272C126.149 93.272 126.415 93.176 126.607 92.984C126.81 92.792 127.002 92.4293 127.183 91.896L127.327 91.448L124.511 83.48L124.479 83.352C124.479 83.2773 124.506 83.2187 124.559 83.176C124.613 83.1333 124.682 83.112 124.767 83.112H125.231C125.402 83.112 125.519 83.1973 125.583 83.368L126.479 86.008C126.565 86.2747 126.778 86.9093 127.119 87.912L127.839 90.072C128.191 89.08 128.655 87.7147 129.231 85.976L130.111 83.368Z" fill="#464646"/>
<path d="M251.5 83.5L257 89L262.5 83.5" stroke="#464646" stroke-width="1.5" stroke-linecap="round" stroke-linejoin="round"/>
<rect x="70.5" y="62.5" width="202" height="47" rx="3.5" stroke="#C3CCD9"/>
<path d="M74.578 164.224C73.8127 164.224 73.1267 164.117 72.52 163.902C71.9227 163.678 71.3067 163.305 70.672 162.782C70.5413 162.679 70.476 162.558 70.476 162.418C70.476 162.297 70.5227 162.185 70.616 162.082L70.938 161.704C71.0407 161.573 71.1573 161.508 71.288 161.508C71.3907 161.508 71.5073 161.559 71.638 161.662C72.198 162.11 72.6973 162.418 73.136 162.586C73.584 162.754 74.074 162.838 74.606 162.838C75.25 162.838 75.7727 162.693 76.174 162.404C76.5753 162.105 76.776 161.699 76.776 161.186C76.776 160.85 76.6733 160.589 76.468 160.402C76.2627 160.206 75.9967 160.057 75.67 159.954C75.3527 159.851 74.8347 159.716 74.116 159.548C73.248 159.343 72.5713 159.119 72.086 158.876C71.6007 158.633 71.2507 158.344 71.036 158.008C70.8307 157.663 70.728 157.229 70.728 156.706C70.728 156.155 70.8867 155.661 71.204 155.222C71.5213 154.783 71.9553 154.443 72.506 154.2C73.066 153.957 73.6913 153.836 74.382 153.836C75.082 153.836 75.698 153.929 76.23 154.116C76.7713 154.303 77.3127 154.606 77.854 155.026C77.994 155.138 78.064 155.255 78.064 155.376C78.064 155.479 78.0173 155.591 77.924 155.712L77.616 156.076C77.504 156.207 77.3873 156.272 77.266 156.272C77.154 156.272 77.0373 156.225 76.916 156.132C76.468 155.787 76.0527 155.549 75.67 155.418C75.2873 155.287 74.8533 155.222 74.368 155.222C73.752 155.222 73.2527 155.357 72.87 155.628C72.4873 155.899 72.296 156.239 72.296 156.65C72.296 156.949 72.3847 157.187 72.562 157.364C72.7393 157.541 72.996 157.686 73.332 157.798C73.668 157.91 74.186 158.045 74.886 158.204C75.7353 158.409 76.4073 158.629 76.902 158.862C77.3967 159.086 77.7653 159.375 78.008 159.73C78.2507 160.085 78.372 160.537 78.372 161.088C78.372 161.704 78.2133 162.25 77.896 162.726C77.5787 163.202 77.1353 163.571 76.566 163.832C75.9967 164.093 75.334 164.224 74.578 164.224ZM80.5104 155.754C80.2397 155.754 80.0111 155.665 79.8244 155.488C79.6377 155.301 79.5444 155.082 79.5444 154.83C79.5444 154.569 79.6377 154.349 79.8244 154.172C80.0111 153.995 80.2397 153.906 80.5104 153.906C80.7811 153.906 81.0097 153.995 81.1964 154.172C81.3831 154.349 81.4764 154.569 81.4764 154.83C81.4764 155.082 81.3831 155.301 81.1964 155.488C81.0097 155.665 80.7811 155.754 80.5104 155.754ZM80.2444 164C80.0951 164 79.9737 163.958 79.8804 163.874C79.7964 163.781 79.7544 163.659 79.7544 163.51V157.588C79.7544 157.429 79.7964 157.308 79.8804 157.224C79.9737 157.14 80.0951 157.098 80.2444 157.098H80.7484C80.9071 157.098 81.0284 157.14 81.1124 157.224C81.1964 157.308 81.2384 157.429 81.2384 157.588V163.51C81.2384 163.659 81.1964 163.781 81.1124 163.874C81.0284 163.958 80.9071 164 80.7484 164H80.2444ZM87.7416 157.098C87.9003 157.098 88.0216 157.14 88.1056 157.224C88.1896 157.308 88.2316 157.429 88.2316 157.588V157.854C88.2316 158.087 88.1569 158.293 88.0076 158.47L84.4236 162.782H87.7416C87.9003 162.782 88.0216 162.824 88.1056 162.908C88.1896 162.992 88.2316 163.113 88.2316 163.272V163.51C88.2316 163.659 88.1896 163.781 88.1056 163.874C88.0216 163.958 87.9003 164 87.7416 164H83.0796C82.9303 164 82.8089 163.958 82.7156 163.874C82.6316 163.781 82.5896 163.659 82.5896 163.51V163.23C82.5896 162.997 82.6643 162.791 82.8136 162.614L86.4116 158.302H83.3176C83.1683 158.302 83.0469 158.26 82.9536 158.176C82.8696 158.083 82.8276 157.961 82.8276 157.812V157.588C82.8276 157.429 82.8696 157.308 82.9536 157.224C83.0469 157.14 83.1683 157.098 83.3176 157.098H87.7416ZM94.3624 162.236C94.4837 162.133 94.6004 162.082 94.7124 162.082C94.8244 162.082 94.9411 162.143 95.0624 162.264L95.2584 162.474C95.3611 162.595 95.4124 162.712 95.4124 162.824C95.4124 162.945 95.3517 163.062 95.2304 163.174C94.8011 163.547 94.3717 163.813 93.9424 163.972C93.5224 164.131 93.0557 164.21 92.5424 164.21C91.8237 164.21 91.1984 164.061 90.6664 163.762C90.1437 163.463 89.7377 163.043 89.4484 162.502C89.1684 161.951 89.0284 161.317 89.0284 160.598C89.0284 159.889 89.1637 159.254 89.4344 158.694C89.7144 158.125 90.1064 157.681 90.6104 157.364C91.1237 157.047 91.7211 156.888 92.4024 156.888C93.4197 156.888 94.2037 157.191 94.7544 157.798C95.3051 158.395 95.5804 159.221 95.5804 160.276V160.402C95.5711 160.551 95.5244 160.668 95.4404 160.752C95.3564 160.836 95.2351 160.878 95.0764 160.878H90.4844C90.5404 161.494 90.7411 161.998 91.0864 162.39C91.4411 162.773 91.9357 162.964 92.5704 162.964C92.9157 162.964 93.2191 162.913 93.4804 162.81C93.7417 162.698 94.0357 162.507 94.3624 162.236ZM92.3744 158.064C91.8611 158.064 91.4457 158.218 91.1284 158.526C90.8204 158.825 90.6197 159.249 90.5264 159.8H94.1244C94.0871 159.259 93.9191 158.834 93.6204 158.526C93.3217 158.218 92.9064 158.064 92.3744 158.064Z" fill="#464646"/>
<rect x="70.5" y="172.5" width="146" height="47" rx="3.5" fill="white"/>
<path d="M79.696 201C79.4827 201 79.376 200.893 79.376 200.68V189.96C79.376 189.747 79.4827 189.64 79.696 189.64H80.192C80.4053 189.64 80.512 189.747 80.512 189.96V200.056H85.616C85.8293 200.056 85.936 200.163 85.936 200.376V200.68C85.936 200.893 85.8293 201 85.616 201H79.696ZM90.7396 192.92C91.7103 192.92 92.4676 193.155 93.0116 193.624C93.5556 194.083 93.8276 194.691 93.8276 195.448V200.68C93.8276 200.893 93.721 201 93.5076 201H93.1876C92.9743 201 92.8676 200.893 92.8676 200.68V199.96C92.601 200.387 92.2223 200.707 91.7316 200.92C91.2516 201.133 90.713 201.24 90.1156 201.24C89.2836 201.24 88.6063 201.064 88.0836 200.712C87.561 200.36 87.2996 199.816 87.2996 199.08C87.2996 198.493 87.465 198.024 87.7956 197.672C88.1263 197.309 88.5583 197.037 89.0916 196.856C89.625 196.664 90.2916 196.493 91.0916 196.344L92.8196 196.04V195.528C92.8196 194.984 92.633 194.563 92.2596 194.264C91.8863 193.955 91.3956 193.8 90.7876 193.8C90.329 193.8 89.913 193.885 89.5396 194.056C89.1663 194.227 88.7663 194.52 88.3396 194.936C88.265 195.011 88.185 195.048 88.0996 195.048C88.025 195.048 87.9556 195.016 87.8916 194.952L87.6836 194.76C87.609 194.685 87.5716 194.605 87.5716 194.52C87.5716 194.424 87.609 194.339 87.6836 194.264C88.1316 193.795 88.601 193.453 89.0916 193.24C89.593 193.027 90.1423 192.92 90.7396 192.92ZM90.1636 200.36C90.9316 200.36 91.5663 200.157 92.0676 199.752C92.569 199.347 92.8196 198.829 92.8196 198.2V196.856L91.3316 197.144C90.6383 197.283 90.089 197.416 89.6836 197.544C89.2783 197.672 88.953 197.859 88.7076 198.104C88.4623 198.349 88.3396 198.669 88.3396 199.064C88.3396 199.469 88.4996 199.789 88.8196 200.024C89.1503 200.248 89.5983 200.36 90.1636 200.36ZM99.1124 193.048C99.379 193.048 99.6937 193.091 100.056 193.176C100.248 193.24 100.323 193.373 100.28 193.576L100.216 193.832C100.163 194.035 100.03 194.109 99.8164 194.056C99.5604 193.992 99.3257 193.96 99.1124 193.96C98.5684 193.96 98.115 194.195 97.7524 194.664C97.4004 195.133 97.2244 195.784 97.2244 196.616V200.68C97.2244 200.893 97.1177 201 96.9044 201H96.4884C96.275 201 96.1684 200.893 96.1684 200.68V193.432C96.1684 193.219 96.275 193.112 96.4884 193.112H96.8404C97.0537 193.112 97.1604 193.219 97.1604 193.432V194.312C97.3417 193.917 97.5977 193.608 97.9284 193.384C98.2697 193.16 98.6644 193.048 99.1124 193.048ZM106.942 193.432C106.942 193.219 107.048 193.112 107.262 193.112H107.598C107.811 193.112 107.918 193.219 107.918 193.432V200.92C107.918 201.912 107.619 202.691 107.022 203.256C106.424 203.832 105.587 204.12 104.51 204.12C103.347 204.12 102.275 203.789 101.294 203.128C101.187 203.064 101.134 202.984 101.134 202.888C101.134 202.813 101.155 202.749 101.198 202.696L101.39 202.424C101.454 202.317 101.539 202.264 101.646 202.264C101.688 202.264 101.752 202.285 101.838 202.328C102.307 202.627 102.744 202.851 103.15 203C103.566 203.149 104.019 203.224 104.51 203.224C105.214 203.224 105.784 203.027 106.222 202.632C106.659 202.248 106.878 201.651 106.878 200.84V199.56C106.302 200.488 105.427 200.952 104.254 200.952C103.571 200.952 102.968 200.781 102.446 200.44C101.923 200.088 101.518 199.608 101.23 199C100.952 198.392 100.814 197.704 100.814 196.936C100.814 196.168 100.952 195.48 101.23 194.872C101.518 194.264 101.923 193.789 102.446 193.448C102.968 193.096 103.571 192.92 104.254 192.92C104.872 192.92 105.406 193.053 105.854 193.32C106.312 193.576 106.675 193.944 106.942 194.424V193.432ZM104.366 200.056C105.134 200.056 105.747 199.768 106.206 199.192C106.664 198.605 106.894 197.853 106.894 196.936C106.894 196.019 106.664 195.272 106.206 194.696C105.747 194.109 105.134 193.816 104.366 193.816C103.587 193.816 102.979 194.104 102.542 194.68C102.115 195.256 101.902 196.008 101.902 196.936C101.902 197.864 102.115 198.616 102.542 199.192C102.979 199.768 103.587 200.056 104.366 200.056ZM116.037 199.128C116.112 199.053 116.192 199.016 116.277 199.016C116.352 199.016 116.421 199.048 116.485 199.112L116.693 199.304C116.768 199.379 116.805 199.459 116.805 199.544C116.805 199.608 116.773 199.683 116.709 199.768C116.187 200.291 115.68 200.664 115.189 200.888C114.699 201.101 114.149 201.208 113.541 201.208C112.773 201.208 112.107 201.037 111.541 200.696C110.976 200.355 110.539 199.88 110.229 199.272C109.92 198.653 109.765 197.939 109.765 197.128C109.765 196.307 109.915 195.581 110.213 194.952C110.523 194.312 110.955 193.816 111.509 193.464C112.064 193.101 112.704 192.92 113.429 192.92C114.507 192.92 115.355 193.256 115.973 193.928C116.592 194.6 116.901 195.507 116.901 196.648V196.84C116.891 196.936 116.853 197.011 116.789 197.064C116.736 197.117 116.661 197.144 116.565 197.144H110.837C110.869 198.04 111.104 198.797 111.541 199.416C111.989 200.024 112.656 200.328 113.541 200.328C114.021 200.328 114.443 200.243 114.805 200.072C115.179 199.891 115.589 199.576 116.037 199.128ZM113.429 193.8C112.725 193.8 112.144 194.019 111.685 194.456C111.237 194.883 110.965 195.512 110.869 196.344H115.845C115.824 195.565 115.6 194.947 115.173 194.488C114.747 194.029 114.165 193.8 113.429 193.8Z" fill="#464646"/>
<path d="M195.5 193.5L201 199L206.5 193.5" stroke="#464646" stroke-width="1.5" stroke-linecap="round" stroke-linejoin="round"/>
<rect x="70.5" y="172.5" width="146" height="47" rx="3.5" stroke="#C3CCD9"/>
</svg>
