<svg width="344" height="168" viewBox="0 0 344 168" fill="none" xmlns="http://www.w3.org/2000/svg">
<rect width="344" height="168" fill="#F5F5F5"/>
<path d="M75.348 63.224C74.3587 63.224 73.5 63 72.772 62.552C72.0533 62.104 71.498 61.488 71.106 60.704C70.7233 59.9107 70.532 59.0147 70.532 58.016C70.532 57.0173 70.7233 56.1307 71.106 55.356C71.4887 54.572 72.044 53.956 72.772 53.508C73.5 53.06 74.3727 52.836 75.39 52.836C76.006 52.836 76.566 52.9247 77.07 53.102C77.574 53.27 78.0827 53.5547 78.596 53.956C78.736 54.068 78.806 54.194 78.806 54.334C78.806 54.4273 78.7593 54.5347 78.666 54.656L78.358 55.02C78.246 55.1507 78.1293 55.216 78.008 55.216C77.9147 55.216 77.798 55.1693 77.658 55.076C77.238 54.7493 76.8507 54.5253 76.496 54.404C76.1507 54.2827 75.7773 54.222 75.376 54.222C74.7227 54.222 74.1533 54.3807 73.668 54.698C73.1827 55.0153 72.8093 55.4633 72.548 56.042C72.2867 56.6113 72.156 57.2693 72.156 58.016C72.156 58.7627 72.2867 59.4253 72.548 60.004C72.8093 60.5827 73.178 61.0353 73.654 61.362C74.13 61.6793 74.6853 61.838 75.32 61.838C75.796 61.838 76.2207 61.754 76.594 61.586C76.9673 61.418 77.3733 61.1473 77.812 60.774C77.9333 60.6713 78.05 60.62 78.162 60.62C78.2833 60.62 78.4 60.6853 78.512 60.816L78.82 61.166C78.9133 61.2687 78.96 61.376 78.96 61.488C78.96 61.6467 78.8853 61.7867 78.736 61.908C78.1947 62.3747 77.658 62.7107 77.126 62.916C76.6033 63.1213 76.0107 63.224 75.348 63.224ZM83.3956 63.21C82.7143 63.21 82.1076 63.056 81.5756 62.748C81.0529 62.44 80.6423 62.0107 80.3436 61.46C80.0449 60.9 79.8956 60.2607 79.8956 59.542C79.8956 58.8233 80.0449 58.1887 80.3436 57.638C80.6423 57.0873 81.0529 56.658 81.5756 56.35C82.1076 56.042 82.7143 55.888 83.3956 55.888C84.0676 55.888 84.6696 56.042 85.2016 56.35C85.7336 56.658 86.1489 57.092 86.4476 57.652C86.7463 58.2027 86.8956 58.8327 86.8956 59.542C86.8956 60.2607 86.7463 60.9 86.4476 61.46C86.1489 62.0107 85.7336 62.44 85.2016 62.748C84.6696 63.056 84.0676 63.21 83.3956 63.21ZM83.3956 61.964C83.9929 61.964 84.4736 61.7447 84.8376 61.306C85.2016 60.858 85.3836 60.27 85.3836 59.542C85.3836 58.8233 85.2016 58.2447 84.8376 57.806C84.4736 57.3673 83.9929 57.148 83.3956 57.148C82.7983 57.148 82.3176 57.3673 81.9536 57.806C81.5896 58.2447 81.4076 58.8233 81.4076 59.542C81.4076 60.27 81.5896 60.858 81.9536 61.306C82.3176 61.7447 82.7983 61.964 83.3956 61.964ZM92.5856 56.588C92.5856 56.4293 92.6276 56.308 92.7116 56.224C92.8049 56.14 92.9263 56.098 93.0756 56.098H93.5796C93.7383 56.098 93.8596 56.14 93.9436 56.224C94.0276 56.308 94.0696 56.4293 94.0696 56.588V62.51C94.0696 62.6593 94.0276 62.7807 93.9436 62.874C93.8596 62.958 93.7383 63 93.5796 63H93.2016C93.0523 63 92.9309 62.958 92.8376 62.874C92.7536 62.7807 92.7116 62.6593 92.7116 62.51V62.188C92.5249 62.5053 92.2543 62.7573 91.8996 62.944C91.5449 63.1213 91.1249 63.21 90.6396 63.21C89.8183 63.21 89.2069 63.0093 88.8056 62.608C88.4043 62.1973 88.2036 61.656 88.2036 60.984V56.588C88.2036 56.4293 88.2456 56.308 88.3296 56.224C88.4229 56.14 88.5443 56.098 88.6936 56.098H89.1976C89.3563 56.098 89.4776 56.14 89.5616 56.224C89.6456 56.308 89.6876 56.4293 89.6876 56.588V60.592C89.6876 61.0213 89.7949 61.3527 90.0096 61.586C90.2336 61.81 90.5556 61.922 90.9756 61.922C91.4609 61.922 91.8483 61.782 92.1376 61.502C92.4363 61.222 92.5856 60.816 92.5856 60.284V56.588ZM99.2918 55.888C100.085 55.888 100.692 56.112 101.112 56.56C101.541 56.9987 101.756 57.568 101.756 58.268V62.51C101.756 62.6593 101.714 62.7807 101.63 62.874C101.546 62.958 101.424 63 101.266 63H100.762C100.612 63 100.491 62.958 100.398 62.874C100.314 62.7807 100.272 62.6593 100.272 62.51V58.73C100.272 58.226 100.146 57.8387 99.8938 57.568C99.6512 57.2973 99.3012 57.162 98.8438 57.162C98.3958 57.162 98.0178 57.316 97.7098 57.624C97.4112 57.932 97.2618 58.3193 97.2618 58.786V62.51C97.2618 62.6593 97.2198 62.7807 97.1358 62.874C97.0518 62.958 96.9305 63 96.7718 63H96.2678C96.1185 63 95.9972 62.958 95.9038 62.874C95.8198 62.7807 95.7778 62.6593 95.7778 62.51V56.588C95.7778 56.4293 95.8198 56.308 95.9038 56.224C95.9972 56.14 96.1185 56.098 96.2678 56.098H96.6738C96.8325 56.098 96.9538 56.14 97.0378 56.224C97.1218 56.308 97.1638 56.4293 97.1638 56.588V56.952C97.3878 56.6067 97.6818 56.3453 98.0458 56.168C98.4098 55.9813 98.8252 55.888 99.2918 55.888ZM106.643 61.824C106.671 61.8147 106.713 61.81 106.769 61.81C107.002 61.81 107.142 61.9453 107.189 62.216L107.231 62.44C107.24 62.468 107.245 62.5147 107.245 62.58C107.245 62.8133 107.114 62.9627 106.853 63.028C106.48 63.112 106.139 63.154 105.831 63.154C105.168 63.154 104.688 63 104.389 62.692C104.1 62.384 103.955 61.922 103.955 61.306V57.232H103.185C103.036 57.232 102.914 57.19 102.821 57.106C102.737 57.0127 102.695 56.8913 102.695 56.742V56.588C102.695 56.4293 102.737 56.308 102.821 56.224C102.914 56.14 103.036 56.098 103.185 56.098H103.955V54.362C103.955 54.2033 103.997 54.082 104.081 53.998C104.174 53.914 104.296 53.872 104.445 53.872H104.949C105.108 53.872 105.229 53.914 105.313 53.998C105.397 54.082 105.439 54.2033 105.439 54.362V56.098H106.699C106.858 56.098 106.979 56.14 107.063 56.224C107.147 56.308 107.189 56.4293 107.189 56.588V56.742C107.189 56.8913 107.147 57.0127 107.063 57.106C106.979 57.19 106.858 57.232 106.699 57.232H105.439V61.124C105.439 61.3947 105.495 61.586 105.607 61.698C105.728 61.81 105.92 61.866 106.181 61.866C106.293 61.866 106.447 61.852 106.643 61.824ZM111.519 56.028C111.724 56.028 111.934 56.0513 112.149 56.098C112.401 56.154 112.527 56.3033 112.527 56.546C112.527 56.6113 112.522 56.658 112.513 56.686L112.443 57.022C112.387 57.2833 112.247 57.414 112.023 57.414L111.897 57.4C111.729 57.372 111.579 57.358 111.449 57.358C110.982 57.358 110.604 57.5447 110.315 57.918C110.035 58.282 109.895 58.7907 109.895 59.444V62.51C109.895 62.6593 109.853 62.7807 109.769 62.874C109.685 62.958 109.563 63 109.405 63H108.901C108.751 63 108.63 62.958 108.537 62.874C108.453 62.7807 108.411 62.6593 108.411 62.51V56.588C108.411 56.4293 108.453 56.308 108.537 56.224C108.63 56.14 108.751 56.098 108.901 56.098H109.307C109.465 56.098 109.587 56.14 109.671 56.224C109.755 56.308 109.797 56.4293 109.797 56.588V57.134C109.965 56.7887 110.193 56.518 110.483 56.322C110.772 56.126 111.117 56.028 111.519 56.028ZM118.107 56.504C118.191 56.2333 118.373 56.098 118.653 56.098H119.157C119.297 56.098 119.405 56.1307 119.479 56.196C119.554 56.2613 119.591 56.35 119.591 56.462C119.591 56.518 119.577 56.5833 119.549 56.658L117.043 63.854C116.819 64.5073 116.539 64.9693 116.203 65.24C115.877 65.52 115.41 65.66 114.803 65.66C114.523 65.66 114.285 65.6413 114.089 65.604C113.959 65.5947 113.861 65.548 113.795 65.464C113.73 65.3893 113.697 65.296 113.697 65.184C113.697 65.1187 113.702 65.0673 113.711 65.03L113.753 64.848C113.819 64.5867 113.959 64.456 114.173 64.456C114.257 64.456 114.337 64.4607 114.411 64.47C114.486 64.4793 114.561 64.484 114.635 64.484C114.906 64.484 115.13 64.414 115.307 64.274C115.494 64.134 115.648 63.8773 115.769 63.504L115.811 63.392L113.417 56.658C113.389 56.5833 113.375 56.5133 113.375 56.448C113.375 56.336 113.413 56.252 113.487 56.196C113.571 56.1307 113.683 56.098 113.823 56.098H114.355C114.645 56.098 114.831 56.2333 114.915 56.504L115.461 58.142C115.872 59.318 116.222 60.396 116.511 61.376L116.917 60.13C116.983 59.934 117.081 59.626 117.211 59.206C117.342 58.786 117.459 58.4267 117.561 58.128L118.107 56.504Z" fill="#464646"/>
<path d="M79.136 88.96C79.136 88.7467 79.2427 88.64 79.456 88.64H79.92C80.1333 88.64 80.24 88.7467 80.24 88.96V99.68C80.24 99.8933 80.1333 100 79.92 100H79.2C79.0293 100 78.896 99.9307 78.8 99.792L75.36 94.576L75.168 94.272C73.888 92.352 72.9707 90.9387 72.416 90.032C72.4587 91.28 72.48 92.72 72.48 94.352V99.68C72.48 99.8933 72.3733 100 72.16 100H71.696C71.4827 100 71.376 99.8933 71.376 99.68V88.96C71.376 88.7467 71.4827 88.64 71.696 88.64H72.416C72.5867 88.64 72.72 88.7093 72.816 88.848L76.24 94.048L76.848 94.992C77.9253 96.624 78.7093 97.84 79.2 98.64C79.1573 97.3707 79.136 95.9253 79.136 94.304V88.96ZM86.0574 100.208C85.3214 100.208 84.6654 100.032 84.0894 99.68C83.5134 99.328 83.0654 98.8427 82.7454 98.224C82.4254 97.5947 82.2654 96.8747 82.2654 96.064C82.2654 95.2533 82.4254 94.5387 82.7454 93.92C83.0654 93.2907 83.5134 92.8 84.0894 92.448C84.6654 92.096 85.3214 91.92 86.0574 91.92C86.7934 91.92 87.4494 92.096 88.0254 92.448C88.6014 92.8 89.0494 93.2907 89.3694 93.92C89.6894 94.5387 89.8494 95.2533 89.8494 96.064C89.8494 96.8747 89.6894 97.5947 89.3694 98.224C89.0494 98.8427 88.6014 99.328 88.0254 99.68C87.4494 100.032 86.7934 100.208 86.0574 100.208ZM86.0574 99.328C86.8787 99.328 87.5347 99.0293 88.0254 98.432C88.516 97.824 88.7614 97.0347 88.7614 96.064C88.7614 95.0933 88.516 94.3093 88.0254 93.712C87.5347 93.104 86.8787 92.8 86.0574 92.8C85.236 92.8 84.58 93.104 84.0894 93.712C83.5987 94.3093 83.3534 95.0933 83.3534 96.064C83.3534 97.0347 83.5987 97.824 84.0894 98.432C84.58 99.0293 85.236 99.328 86.0574 99.328ZM94.628 92.048C94.8947 92.048 95.2093 92.0907 95.572 92.176C95.764 92.24 95.8387 92.3733 95.796 92.576L95.732 92.832C95.6787 93.0347 95.5453 93.1093 95.332 93.056C95.076 92.992 94.8413 92.96 94.628 92.96C94.084 92.96 93.6307 93.1947 93.268 93.664C92.916 94.1333 92.74 94.784 92.74 95.616V99.68C92.74 99.8933 92.6333 100 92.42 100H92.004C91.7907 100 91.684 99.8933 91.684 99.68V92.432C91.684 92.2187 91.7907 92.112 92.004 92.112H92.356C92.5693 92.112 92.676 92.2187 92.676 92.432V93.312C92.8573 92.9173 93.1133 92.608 93.444 92.384C93.7853 92.16 94.18 92.048 94.628 92.048ZM106.281 92.384C106.324 92.2027 106.446 92.112 106.649 92.112H107.081C107.198 92.112 107.278 92.144 107.321 92.208C107.374 92.272 107.385 92.3573 107.353 92.464L105.289 99.728C105.246 99.9093 105.124 100 104.921 100H104.201C104.02 100 103.902 99.9093 103.849 99.728L103.113 97.28C102.729 96 102.372 94.688 102.041 93.344C101.721 94.6453 101.369 95.968 100.985 97.312L100.281 99.728C100.238 99.9093 100.116 100 99.9129 100H99.2249C99.0222 100 98.8995 99.9093 98.8569 99.728L96.7929 92.464C96.7822 92.4427 96.7769 92.4053 96.7769 92.352C96.7769 92.2773 96.8035 92.2187 96.8569 92.176C96.9102 92.1333 96.9795 92.112 97.0649 92.112H97.4969C97.6995 92.112 97.8222 92.2027 97.8649 92.384L98.6329 95.216C98.9849 96.5067 99.3102 97.792 99.6089 99.072C99.8435 98.1227 100.19 96.8373 100.649 95.216L101.465 92.384C101.508 92.2027 101.63 92.112 101.833 92.112H102.313C102.505 92.112 102.622 92.2027 102.665 92.384L103.497 95.216C103.86 96.528 104.201 97.8187 104.521 99.088C104.766 98.0213 105.097 96.7307 105.513 95.216L106.281 92.384ZM112.005 91.92C112.976 91.92 113.733 92.1547 114.277 92.624C114.821 93.0827 115.093 93.6907 115.093 94.448V99.68C115.093 99.8933 114.987 100 114.773 100H114.453C114.24 100 114.133 99.8933 114.133 99.68V98.96C113.867 99.3867 113.488 99.7067 112.997 99.92C112.517 100.133 111.979 100.24 111.381 100.24C110.549 100.24 109.872 100.064 109.349 99.712C108.827 99.36 108.565 98.816 108.565 98.08C108.565 97.4933 108.731 97.024 109.061 96.672C109.392 96.3093 109.824 96.0373 110.357 95.856C110.891 95.664 111.557 95.4933 112.357 95.344L114.085 95.04V94.528C114.085 93.984 113.899 93.5627 113.525 93.264C113.152 92.9547 112.661 92.8 112.053 92.8C111.595 92.8 111.179 92.8853 110.805 93.056C110.432 93.2267 110.032 93.52 109.605 93.936C109.531 94.0107 109.451 94.048 109.365 94.048C109.291 94.048 109.221 94.016 109.157 93.952L108.949 93.76C108.875 93.6853 108.837 93.6053 108.837 93.52C108.837 93.424 108.875 93.3387 108.949 93.264C109.397 92.7947 109.867 92.4533 110.357 92.24C110.859 92.0267 111.408 91.92 112.005 91.92ZM111.429 99.36C112.197 99.36 112.832 99.1573 113.333 98.752C113.835 98.3467 114.085 97.8293 114.085 97.2V95.856L112.597 96.144C111.904 96.2827 111.355 96.416 110.949 96.544C110.544 96.672 110.219 96.8587 109.973 97.104C109.728 97.3493 109.605 97.6693 109.605 98.064C109.605 98.4693 109.765 98.7893 110.085 99.024C110.416 99.248 110.864 99.36 111.429 99.36ZM122.111 92.368C122.175 92.1973 122.298 92.112 122.479 92.112H122.911C122.997 92.112 123.066 92.1333 123.119 92.176C123.173 92.2187 123.199 92.2773 123.199 92.352L123.167 92.48L120.079 101.2C119.909 101.68 119.743 102.053 119.583 102.32C119.423 102.587 119.205 102.789 118.927 102.928C118.661 103.067 118.309 103.136 117.871 103.136C117.594 103.136 117.349 103.115 117.135 103.072C117.029 103.061 116.954 103.019 116.911 102.944C116.879 102.869 116.874 102.784 116.895 102.688L116.943 102.48C116.986 102.288 117.109 102.203 117.311 102.224C117.503 102.256 117.669 102.272 117.807 102.272C118.149 102.272 118.415 102.176 118.607 101.984C118.81 101.792 119.002 101.429 119.183 100.896L119.327 100.448L116.511 92.48L116.479 92.352C116.479 92.2773 116.506 92.2187 116.559 92.176C116.613 92.1333 116.682 92.112 116.767 92.112H117.231C117.402 92.112 117.519 92.1973 117.583 92.368L118.479 95.008C118.565 95.2747 118.778 95.9093 119.119 96.912L119.839 99.072C120.191 98.08 120.655 96.7147 121.231 94.976L122.111 92.368Z" fill="#464646"/>
</svg>
