<svg width="344" height="260" viewBox="0 0 344 260" fill="none" xmlns="http://www.w3.org/2000/svg">
<rect width="344" height="260" fill="#F5F5F5"/>
<path d="M74.578 54.224C73.8127 54.224 73.1267 54.1167 72.52 53.902C71.9227 53.678 71.3067 53.3047 70.672 52.782C70.5413 52.6793 70.476 52.558 70.476 52.418C70.476 52.2967 70.5227 52.1847 70.616 52.082L70.938 51.704C71.0407 51.5733 71.1573 51.508 71.288 51.508C71.3907 51.508 71.5073 51.5593 71.638 51.662C72.198 52.11 72.6973 52.418 73.136 52.586C73.584 52.754 74.074 52.838 74.606 52.838C75.25 52.838 75.7727 52.6933 76.174 52.404C76.5753 52.1053 76.776 51.6993 76.776 51.186C76.776 50.85 76.6733 50.5887 76.468 50.402C76.2627 50.206 75.9967 50.0567 75.67 49.954C75.3527 49.8513 74.8347 49.716 74.116 49.548C73.248 49.3427 72.5713 49.1187 72.086 48.876C71.6007 48.6333 71.2507 48.344 71.036 48.008C70.8307 47.6627 70.728 47.2287 70.728 46.706C70.728 46.1553 70.8867 45.6607 71.204 45.222C71.5213 44.7833 71.9553 44.4427 72.506 44.2C73.066 43.9573 73.6913 43.836 74.382 43.836C75.082 43.836 75.698 43.9293 76.23 44.116C76.7713 44.3027 77.3127 44.606 77.854 45.026C77.994 45.138 78.064 45.2547 78.064 45.376C78.064 45.4787 78.0173 45.5907 77.924 45.712L77.616 46.076C77.504 46.2067 77.3873 46.272 77.266 46.272C77.154 46.272 77.0373 46.2253 76.916 46.132C76.468 45.7867 76.0527 45.5487 75.67 45.418C75.2873 45.2873 74.8533 45.222 74.368 45.222C73.752 45.222 73.2527 45.3573 72.87 45.628C72.4873 45.8987 72.296 46.2393 72.296 46.65C72.296 46.9487 72.3847 47.1867 72.562 47.364C72.7393 47.5413 72.996 47.686 73.332 47.798C73.668 47.91 74.186 48.0453 74.886 48.204C75.7353 48.4093 76.4073 48.6287 76.902 48.862C77.3967 49.086 77.7653 49.3753 78.008 49.73C78.2507 50.0847 78.372 50.5373 78.372 51.088C78.372 51.704 78.2133 52.25 77.896 52.726C77.5787 53.202 77.1353 53.5707 76.566 53.832C75.9967 54.0933 75.334 54.224 74.578 54.224ZM80.5104 45.754C80.2397 45.754 80.0111 45.6653 79.8244 45.488C79.6377 45.3013 79.5444 45.082 79.5444 44.83C79.5444 44.5687 79.6377 44.3493 79.8244 44.172C80.0111 43.9947 80.2397 43.906 80.5104 43.906C80.7811 43.906 81.0097 43.9947 81.1964 44.172C81.3831 44.3493 81.4764 44.5687 81.4764 44.83C81.4764 45.082 81.3831 45.3013 81.1964 45.488C81.0097 45.6653 80.7811 45.754 80.5104 45.754ZM80.2444 54C80.0951 54 79.9737 53.958 79.8804 53.874C79.7964 53.7807 79.7544 53.6593 79.7544 53.51V47.588C79.7544 47.4293 79.7964 47.308 79.8804 47.224C79.9737 47.14 80.0951 47.098 80.2444 47.098H80.7484C80.9071 47.098 81.0284 47.14 81.1124 47.224C81.1964 47.308 81.2384 47.4293 81.2384 47.588V53.51C81.2384 53.6593 81.1964 53.7807 81.1124 53.874C81.0284 53.958 80.9071 54 80.7484 54H80.2444ZM87.7416 47.098C87.9003 47.098 88.0216 47.14 88.1056 47.224C88.1896 47.308 88.2316 47.4293 88.2316 47.588V47.854C88.2316 48.0873 88.1569 48.2927 88.0076 48.47L84.4236 52.782H87.7416C87.9003 52.782 88.0216 52.824 88.1056 52.908C88.1896 52.992 88.2316 53.1133 88.2316 53.272V53.51C88.2316 53.6593 88.1896 53.7807 88.1056 53.874C88.0216 53.958 87.9003 54 87.7416 54H83.0796C82.9303 54 82.8089 53.958 82.7156 53.874C82.6316 53.7807 82.5896 53.6593 82.5896 53.51V53.23C82.5896 52.9967 82.6643 52.7913 82.8136 52.614L86.4116 48.302H83.3176C83.1683 48.302 83.0469 48.26 82.9536 48.176C82.8696 48.0827 82.8276 47.9613 82.8276 47.812V47.588C82.8276 47.4293 82.8696 47.308 82.9536 47.224C83.0469 47.14 83.1683 47.098 83.3176 47.098H87.7416ZM94.3624 52.236C94.4837 52.1333 94.6004 52.082 94.7124 52.082C94.8244 52.082 94.9411 52.1427 95.0624 52.264L95.2584 52.474C95.3611 52.5953 95.4124 52.712 95.4124 52.824C95.4124 52.9453 95.3517 53.062 95.2304 53.174C94.8011 53.5473 94.3717 53.8133 93.9424 53.972C93.5224 54.1307 93.0557 54.21 92.5424 54.21C91.8237 54.21 91.1984 54.0607 90.6664 53.762C90.1437 53.4633 89.7377 53.0433 89.4484 52.502C89.1684 51.9513 89.0284 51.3167 89.0284 50.598C89.0284 49.8887 89.1637 49.254 89.4344 48.694C89.7144 48.1247 90.1064 47.6813 90.6104 47.364C91.1237 47.0467 91.7211 46.888 92.4024 46.888C93.4197 46.888 94.2037 47.1913 94.7544 47.798C95.3051 48.3953 95.5804 49.2213 95.5804 50.276V50.402C95.5711 50.5513 95.5244 50.668 95.4404 50.752C95.3564 50.836 95.2351 50.878 95.0764 50.878H90.4844C90.5404 51.494 90.7411 51.998 91.0864 52.39C91.4411 52.7727 91.9357 52.964 92.5704 52.964C92.9157 52.964 93.2191 52.9127 93.4804 52.81C93.7417 52.698 94.0357 52.5067 94.3624 52.236ZM92.3744 48.064C91.8611 48.064 91.4457 48.218 91.1284 48.526C90.8204 48.8247 90.6197 49.2493 90.5264 49.8H94.1244C94.0871 49.2587 93.9191 48.834 93.6204 48.526C93.3217 48.218 92.9064 48.064 92.3744 48.064Z" fill="#464646"/>
<rect x="70.5" y="62.5" width="203" height="47" rx="3.5" fill="white"/>
<path d="M83.136 91.24C82.2933 91.24 81.5307 91.112 80.848 90.856C80.176 90.5893 79.4667 90.1573 78.72 89.56C78.624 89.4747 78.576 89.3947 78.576 89.32C78.576 89.256 78.608 89.1867 78.672 89.112L78.928 88.808C78.9813 88.7227 79.0613 88.68 79.168 88.68C79.2533 88.68 79.3227 88.7067 79.376 88.76C80.1333 89.3467 80.7947 89.7467 81.36 89.96C81.9253 90.1627 82.5173 90.264 83.136 90.264C84 90.264 84.704 90.0507 85.248 89.624C85.792 89.1867 86.064 88.5947 86.064 87.848C86.064 87.368 85.936 86.984 85.68 86.696C85.424 86.408 85.072 86.184 84.624 86.024C84.1867 85.864 83.5627 85.6933 82.752 85.512C81.7813 85.2987 81.024 85.0693 80.48 84.824C79.9467 84.5787 79.5573 84.2693 79.312 83.896C79.0667 83.5227 78.944 83.0427 78.944 82.456C78.944 81.8373 79.12 81.2987 79.472 80.84C79.8347 80.3707 80.3147 80.0133 80.912 79.768C81.5093 79.5227 82.1547 79.4 82.848 79.4C83.6053 79.4 84.2933 79.512 84.912 79.736C85.5413 79.96 86.16 80.3173 86.768 80.808C86.864 80.872 86.912 80.9467 86.912 81.032C86.912 81.096 86.88 81.1707 86.816 81.256L86.576 81.544C86.5227 81.6293 86.4427 81.672 86.336 81.672C86.2507 81.672 86.176 81.6453 86.112 81.592C85.568 81.144 85.04 80.8293 84.528 80.648C84.0267 80.4667 83.472 80.376 82.864 80.376C82.3093 80.376 81.8187 80.4667 81.392 80.648C80.9653 80.8187 80.6293 81.0587 80.384 81.368C80.1493 81.6773 80.032 82.0293 80.032 82.424C80.032 82.8507 80.1493 83.192 80.384 83.448C80.6293 83.704 80.9653 83.9067 81.392 84.056C81.8293 84.2053 82.464 84.376 83.296 84.568C84.256 84.792 85.0133 85.0427 85.568 85.32C86.1333 85.5973 86.544 85.9387 86.8 86.344C87.056 86.7387 87.184 87.2293 87.184 87.816C87.184 88.4987 87.008 89.1013 86.656 89.624C86.3147 90.136 85.8347 90.536 85.216 90.824C84.5973 91.1013 83.904 91.24 83.136 91.24ZM94.8968 89.128C94.9714 89.0533 95.0514 89.016 95.1368 89.016C95.2114 89.016 95.2808 89.048 95.3448 89.112L95.5528 89.304C95.6274 89.3787 95.6648 89.4587 95.6648 89.544C95.6648 89.608 95.6328 89.6827 95.5688 89.768C95.0461 90.2907 94.5394 90.664 94.0488 90.888C93.5581 91.1013 93.0088 91.208 92.4008 91.208C91.6328 91.208 90.9661 91.0373 90.4008 90.696C89.8354 90.3547 89.3981 89.88 89.0888 89.272C88.7794 88.6533 88.6248 87.9387 88.6248 87.128C88.6248 86.3067 88.7741 85.5813 89.0728 84.952C89.3821 84.312 89.8141 83.816 90.3688 83.464C90.9234 83.1013 91.5634 82.92 92.2888 82.92C93.3661 82.92 94.2141 83.256 94.8328 83.928C95.4514 84.6 95.7608 85.5067 95.7608 86.648V86.84C95.7501 86.936 95.7128 87.0107 95.6488 87.064C95.5954 87.1173 95.5208 87.144 95.4248 87.144H89.6968C89.7288 88.04 89.9634 88.7973 90.4008 89.416C90.8488 90.024 91.5154 90.328 92.4008 90.328C92.8808 90.328 93.3021 90.2427 93.6648 90.072C94.0381 89.8907 94.4488 89.576 94.8968 89.128ZM92.2888 83.8C91.5848 83.8 91.0034 84.0187 90.5448 84.456C90.0968 84.8827 89.8248 85.512 89.7288 86.344H94.7048C94.6834 85.5653 94.4594 84.9467 94.0328 84.488C93.6061 84.0293 93.0248 83.8 92.2888 83.8ZM97.9888 91C97.7754 91 97.6688 90.8933 97.6688 90.68V79.96C97.6688 79.7467 97.7754 79.64 97.9888 79.64H98.4048C98.6181 79.64 98.7248 79.7467 98.7248 79.96V90.68C98.7248 90.8933 98.6181 91 98.4048 91H97.9888ZM106.85 89.128C106.925 89.0533 107.005 89.016 107.09 89.016C107.165 89.016 107.234 89.048 107.298 89.112L107.506 89.304C107.581 89.3787 107.618 89.4587 107.618 89.544C107.618 89.608 107.586 89.6827 107.522 89.768C106.999 90.2907 106.493 90.664 106.002 90.888C105.511 91.1013 104.962 91.208 104.354 91.208C103.586 91.208 102.919 91.0373 102.354 90.696C101.789 90.3547 101.351 89.88 101.042 89.272C100.733 88.6533 100.578 87.9387 100.578 87.128C100.578 86.3067 100.727 85.5813 101.026 84.952C101.335 84.312 101.767 83.816 102.322 83.464C102.877 83.1013 103.517 82.92 104.242 82.92C105.319 82.92 106.167 83.256 106.786 83.928C107.405 84.6 107.714 85.5067 107.714 86.648V86.84C107.703 86.936 107.666 87.0107 107.602 87.064C107.549 87.1173 107.474 87.144 107.378 87.144H101.65C101.682 88.04 101.917 88.7973 102.354 89.416C102.802 90.024 103.469 90.328 104.354 90.328C104.834 90.328 105.255 90.2427 105.618 90.072C105.991 89.8907 106.402 89.576 106.85 89.128ZM104.242 83.8C103.538 83.8 102.957 84.0187 102.498 84.456C102.05 84.8827 101.778 85.512 101.682 86.344H106.658C106.637 85.5653 106.413 84.9467 105.986 84.488C105.559 84.0293 104.978 83.8 104.242 83.8ZM112.822 91.208C112.064 91.208 111.403 91.0373 110.838 90.696C110.283 90.344 109.851 89.8587 109.542 89.24C109.243 88.6107 109.094 87.8853 109.094 87.064C109.094 86.2533 109.243 85.5333 109.542 84.904C109.851 84.2747 110.283 83.7893 110.838 83.448C111.403 83.096 112.054 82.92 112.79 82.92C113.387 82.92 113.91 83.0213 114.358 83.224C114.806 83.416 115.238 83.736 115.654 84.184C115.718 84.248 115.75 84.3173 115.75 84.392C115.75 84.488 115.707 84.568 115.622 84.632L115.398 84.84C115.334 84.904 115.259 84.936 115.174 84.936C115.099 84.936 115.019 84.8933 114.934 84.808C114.56 84.4347 114.203 84.1733 113.862 84.024C113.531 83.8747 113.163 83.8 112.758 83.8C112.203 83.8 111.728 83.9547 111.334 84.264C110.95 84.5733 110.662 84.9787 110.47 85.48C110.278 85.9707 110.182 86.4987 110.182 87.064C110.182 87.6293 110.278 88.1627 110.47 88.664C110.662 89.1547 110.955 89.5547 111.35 89.864C111.744 90.1627 112.23 90.312 112.806 90.312C113.232 90.312 113.606 90.2373 113.926 90.088C114.256 89.928 114.624 89.6293 115.03 89.192C115.115 89.1067 115.195 89.064 115.27 89.064C115.355 89.064 115.43 89.096 115.494 89.16L115.718 89.336C115.792 89.4 115.83 89.4747 115.83 89.56C115.83 89.6453 115.782 89.7467 115.686 89.864C115.238 90.3547 114.79 90.7013 114.342 90.904C113.894 91.1067 113.387 91.208 112.822 91.208ZM121.142 90.12C121.174 90.1093 121.217 90.104 121.27 90.104C121.334 90.104 121.393 90.1253 121.446 90.168C121.5 90.2107 121.532 90.2693 121.542 90.344L121.59 90.568C121.601 90.5893 121.606 90.6267 121.606 90.68C121.606 90.8293 121.526 90.92 121.366 90.952C120.982 91.0693 120.572 91.128 120.134 91.128C119.441 91.128 118.945 90.9733 118.646 90.664C118.358 90.344 118.214 89.8853 118.214 89.288V83.912H117.03C116.817 83.912 116.71 83.8053 116.71 83.592V83.432C116.71 83.2187 116.817 83.112 117.03 83.112H118.214V80.68C118.214 80.4667 118.321 80.36 118.534 80.36H118.95C119.164 80.36 119.27 80.4667 119.27 80.68V83.112H121.19C121.404 83.112 121.51 83.2187 121.51 83.432V83.592C121.51 83.8053 121.404 83.912 121.19 83.912H119.27V89.16C119.27 89.5547 119.345 89.832 119.494 89.992C119.644 90.152 119.9 90.232 120.262 90.232C120.518 90.232 120.812 90.1947 121.142 90.12ZM129.849 82.92C130.82 82.92 131.577 83.1547 132.121 83.624C132.665 84.0827 132.937 84.6907 132.937 85.448V90.68C132.937 90.8933 132.83 91 132.617 91H132.297C132.084 91 131.977 90.8933 131.977 90.68V89.96C131.71 90.3867 131.332 90.7067 130.841 90.92C130.361 91.1333 129.822 91.24 129.225 91.24C128.393 91.24 127.716 91.064 127.193 90.712C126.67 90.36 126.409 89.816 126.409 89.08C126.409 88.4933 126.574 88.024 126.905 87.672C127.236 87.3093 127.668 87.0373 128.201 86.856C128.734 86.664 129.401 86.4933 130.201 86.344L131.929 86.04V85.528C131.929 84.984 131.742 84.5627 131.369 84.264C130.996 83.9547 130.505 83.8 129.897 83.8C129.438 83.8 129.022 83.8853 128.649 84.056C128.276 84.2267 127.876 84.52 127.449 84.936C127.374 85.0107 127.294 85.048 127.209 85.048C127.134 85.048 127.065 85.016 127.001 84.952L126.793 84.76C126.718 84.6853 126.681 84.6053 126.681 84.52C126.681 84.424 126.718 84.3387 126.793 84.264C127.241 83.7947 127.71 83.4533 128.201 83.24C128.702 83.0267 129.252 82.92 129.849 82.92ZM129.273 90.36C130.041 90.36 130.676 90.1573 131.177 89.752C131.678 89.3467 131.929 88.8293 131.929 88.2V86.856L130.441 87.144C129.748 87.2827 129.198 87.416 128.793 87.544C128.388 87.672 128.062 87.8587 127.817 88.104C127.572 88.3493 127.449 88.6693 127.449 89.064C127.449 89.4693 127.609 89.7893 127.929 90.024C128.26 90.248 128.708 90.36 129.273 90.36ZM141.717 91.208C141.067 91.208 140.491 91.1173 139.989 90.936C139.499 90.744 138.981 90.424 138.437 89.976C138.341 89.912 138.293 89.8373 138.293 89.752C138.293 89.6773 138.331 89.6027 138.405 89.528L138.613 89.304C138.677 89.2187 138.757 89.176 138.853 89.176C138.928 89.176 138.997 89.208 139.061 89.272C139.573 89.6667 140.027 89.944 140.421 90.104C140.816 90.2533 141.248 90.328 141.717 90.328C142.304 90.328 142.784 90.2 143.157 89.944C143.531 89.6773 143.717 89.32 143.717 88.872C143.717 88.424 143.525 88.0933 143.141 87.88C142.757 87.6667 142.165 87.4747 141.365 87.304C140.661 87.1547 140.107 87 139.701 86.84C139.307 86.6693 139.013 86.456 138.821 86.2C138.629 85.944 138.533 85.608 138.533 85.192C138.533 84.5093 138.811 83.96 139.365 83.544C139.92 83.128 140.619 82.92 141.461 82.92C142.037 82.92 142.549 82.9947 142.997 83.144C143.456 83.2827 143.915 83.5173 144.373 83.848C144.469 83.9227 144.517 84.0027 144.517 84.088C144.517 84.1413 144.491 84.2107 144.437 84.296L144.245 84.536C144.192 84.6213 144.117 84.664 144.021 84.664C143.936 84.664 143.861 84.6373 143.797 84.584C143.36 84.2747 142.971 84.0667 142.629 83.96C142.299 83.8533 141.92 83.8 141.493 83.8C140.907 83.8 140.437 83.928 140.085 84.184C139.733 84.44 139.557 84.7653 139.557 85.16C139.557 85.4053 139.637 85.6027 139.797 85.752C139.957 85.9013 140.187 86.0293 140.485 86.136C140.784 86.232 141.221 86.344 141.797 86.472C142.864 86.7067 143.621 86.9947 144.069 87.336C144.528 87.6773 144.757 88.1733 144.757 88.824C144.757 89.5387 144.475 90.1147 143.909 90.552C143.344 90.9893 142.613 91.208 141.717 91.208ZM147.071 81.112C146.858 81.112 146.677 81.0373 146.527 80.888C146.389 80.7387 146.319 80.5573 146.319 80.344C146.319 80.1307 146.389 79.9547 146.527 79.816C146.677 79.6773 146.858 79.608 147.071 79.608C147.295 79.608 147.477 79.6773 147.615 79.816C147.765 79.9547 147.839 80.1307 147.839 80.344C147.839 80.5573 147.765 80.7387 147.615 80.888C147.477 81.0373 147.295 81.112 147.071 81.112ZM146.863 91C146.65 91 146.543 90.8933 146.543 90.68V83.432C146.543 83.2187 146.65 83.112 146.863 83.112H147.279C147.493 83.112 147.599 83.2187 147.599 83.432V90.68C147.599 90.8933 147.493 91 147.279 91H146.863ZM155.342 83.112C155.555 83.112 155.662 83.2187 155.662 83.432V83.656C155.662 83.7947 155.614 83.928 155.518 84.056L150.75 90.12H155.342C155.555 90.12 155.662 90.2267 155.662 90.44V90.68C155.662 90.8933 155.555 91 155.342 91H149.742C149.528 91 149.422 90.8933 149.422 90.68V90.44C149.422 90.3013 149.47 90.168 149.566 90.04L154.334 83.992H150.046C149.832 83.992 149.726 83.8853 149.726 83.672V83.432C149.726 83.2187 149.832 83.112 150.046 83.112H155.342ZM162.944 89.128C163.018 89.0533 163.098 89.016 163.184 89.016C163.258 89.016 163.328 89.048 163.392 89.112L163.6 89.304C163.674 89.3787 163.712 89.4587 163.712 89.544C163.712 89.608 163.68 89.6827 163.616 89.768C163.093 90.2907 162.586 90.664 162.096 90.888C161.605 91.1013 161.056 91.208 160.448 91.208C159.68 91.208 159.013 91.0373 158.448 90.696C157.882 90.3547 157.445 89.88 157.136 89.272C156.826 88.6533 156.672 87.9387 156.672 87.128C156.672 86.3067 156.821 85.5813 157.12 84.952C157.429 84.312 157.861 83.816 158.416 83.464C158.97 83.1013 159.61 82.92 160.336 82.92C161.413 82.92 162.261 83.256 162.88 83.928C163.498 84.6 163.808 85.5067 163.808 86.648V86.84C163.797 86.936 163.76 87.0107 163.696 87.064C163.642 87.1173 163.568 87.144 163.472 87.144H157.744C157.776 88.04 158.01 88.7973 158.448 89.416C158.896 90.024 159.562 90.328 160.448 90.328C160.928 90.328 161.349 90.2427 161.712 90.072C162.085 89.8907 162.496 89.576 162.944 89.128ZM160.336 83.8C159.632 83.8 159.05 84.0187 158.592 84.456C158.144 84.8827 157.872 85.512 157.776 86.344H162.752C162.73 85.5653 162.506 84.9467 162.08 84.488C161.653 84.0293 161.072 83.8 160.336 83.8Z" fill="#767676"/>
<path d="M252.5 83.5L258 89L263.5 83.5" stroke="#464646" stroke-width="1.5" stroke-linecap="round" stroke-linejoin="round"/>
<rect x="70.5" y="62.5" width="203" height="47" rx="3.5" stroke="#C3CCD9"/>
<path d="M71.568 164C71.4187 164 71.2973 163.958 71.204 163.874C71.12 163.781 71.078 163.659 71.078 163.51V154.55C71.078 154.391 71.12 154.27 71.204 154.186C71.2973 154.102 71.4187 154.06 71.568 154.06H75.586C76.5753 154.06 77.364 154.335 77.952 154.886C78.54 155.427 78.834 156.169 78.834 157.112C78.834 158.055 78.54 158.797 77.952 159.338C77.364 159.879 76.5753 160.15 75.586 160.15H72.674V163.51C72.674 163.659 72.632 163.781 72.548 163.874C72.464 163.958 72.3427 164 72.184 164H71.568ZM75.334 158.82C75.9313 158.82 76.398 158.675 76.734 158.386C77.0793 158.087 77.252 157.663 77.252 157.112C77.252 156.552 77.0793 156.127 76.734 155.838C76.398 155.539 75.9313 155.39 75.334 155.39H72.674V158.82H75.334ZM83.2589 157.028C83.4642 157.028 83.6742 157.051 83.8889 157.098C84.1409 157.154 84.2669 157.303 84.2669 157.546C84.2669 157.611 84.2622 157.658 84.2529 157.686L84.1829 158.022C84.1269 158.283 83.9869 158.414 83.7629 158.414L83.6369 158.4C83.4689 158.372 83.3195 158.358 83.1889 158.358C82.7222 158.358 82.3442 158.545 82.0549 158.918C81.7749 159.282 81.6349 159.791 81.6349 160.444V163.51C81.6349 163.659 81.5929 163.781 81.5089 163.874C81.4249 163.958 81.3035 164 81.1449 164H80.6409C80.4915 164 80.3702 163.958 80.2769 163.874C80.1929 163.781 80.1509 163.659 80.1509 163.51V157.588C80.1509 157.429 80.1929 157.308 80.2769 157.224C80.3702 157.14 80.4915 157.098 80.6409 157.098H81.0469C81.2055 157.098 81.3269 157.14 81.4109 157.224C81.4949 157.308 81.5369 157.429 81.5369 157.588V158.134C81.7049 157.789 81.9335 157.518 82.2229 157.322C82.5122 157.126 82.8575 157.028 83.2589 157.028ZM89.9601 162.236C90.0814 162.133 90.1981 162.082 90.3101 162.082C90.4221 162.082 90.5387 162.143 90.6601 162.264L90.8561 162.474C90.9587 162.595 91.0101 162.712 91.0101 162.824C91.0101 162.945 90.9494 163.062 90.8281 163.174C90.3987 163.547 89.9694 163.813 89.5401 163.972C89.1201 164.131 88.6534 164.21 88.1401 164.21C87.4214 164.21 86.7961 164.061 86.2641 163.762C85.7414 163.463 85.3354 163.043 85.0461 162.502C84.7661 161.951 84.6261 161.317 84.6261 160.598C84.6261 159.889 84.7614 159.254 85.0321 158.694C85.3121 158.125 85.7041 157.681 86.2081 157.364C86.7214 157.047 87.3187 156.888 88.0001 156.888C89.0174 156.888 89.8014 157.191 90.3521 157.798C90.9027 158.395 91.1781 159.221 91.1781 160.276V160.402C91.1687 160.551 91.1221 160.668 91.0381 160.752C90.9541 160.836 90.8327 160.878 90.6741 160.878H86.0821C86.1381 161.494 86.3387 161.998 86.6841 162.39C87.0387 162.773 87.5334 162.964 88.1681 162.964C88.5134 162.964 88.8167 162.913 89.0781 162.81C89.3394 162.698 89.6334 162.507 89.9601 162.236ZM87.9721 158.064C87.4587 158.064 87.0434 158.218 86.7261 158.526C86.4181 158.825 86.2174 159.249 86.1241 159.8H89.7221C89.6847 159.259 89.5167 158.834 89.2181 158.526C88.9194 158.218 88.5041 158.064 87.9721 158.064ZM95.5346 155.096C95.2079 155.096 94.9699 155.175 94.8206 155.334C94.6712 155.493 94.5966 155.763 94.5966 156.146V157.098H95.7306C95.8892 157.098 96.0106 157.14 96.0946 157.224C96.1786 157.308 96.2206 157.429 96.2206 157.588V157.742C96.2206 157.891 96.1786 158.013 96.0946 158.106C96.0106 158.19 95.8892 158.232 95.7306 158.232H94.5966V163.51C94.5966 163.659 94.5546 163.781 94.4706 163.874C94.3866 163.958 94.2652 164 94.1066 164H93.6026C93.4532 164 93.3319 163.958 93.2386 163.874C93.1546 163.781 93.1126 163.659 93.1126 163.51V158.232H92.3706C92.2212 158.232 92.0999 158.19 92.0066 158.106C91.9226 158.013 91.8806 157.891 91.8806 157.742V157.588C91.8806 157.429 91.9226 157.308 92.0066 157.224C92.0999 157.14 92.2212 157.098 92.3706 157.098H93.1126V156.048C93.1126 155.329 93.2946 154.788 93.6586 154.424C94.0319 154.051 94.5686 153.864 95.2686 153.864C95.5859 153.864 95.9079 153.897 96.2346 153.962C96.4772 154.027 96.5986 154.177 96.5986 154.41C96.5986 154.475 96.5939 154.527 96.5846 154.564L96.5426 154.76C96.4866 155.003 96.3046 155.124 95.9966 155.124L95.8286 155.11C95.7632 155.101 95.6652 155.096 95.5346 155.096ZM102.005 162.236C102.126 162.133 102.243 162.082 102.355 162.082C102.467 162.082 102.584 162.143 102.705 162.264L102.901 162.474C103.004 162.595 103.055 162.712 103.055 162.824C103.055 162.945 102.994 163.062 102.873 163.174C102.444 163.547 102.014 163.813 101.585 163.972C101.165 164.131 100.698 164.21 100.185 164.21C99.4663 164.21 98.841 164.061 98.309 163.762C97.7863 163.463 97.3803 163.043 97.091 162.502C96.811 161.951 96.671 161.317 96.671 160.598C96.671 159.889 96.8063 159.254 97.077 158.694C97.357 158.125 97.749 157.681 98.253 157.364C98.7663 157.047 99.3637 156.888 100.045 156.888C101.062 156.888 101.846 157.191 102.397 157.798C102.948 158.395 103.223 159.221 103.223 160.276V160.402C103.214 160.551 103.167 160.668 103.083 160.752C102.999 160.836 102.878 160.878 102.719 160.878H98.127C98.183 161.494 98.3837 161.998 98.729 162.39C99.0837 162.773 99.5783 162.964 100.213 162.964C100.558 162.964 100.862 162.913 101.123 162.81C101.384 162.698 101.678 162.507 102.005 162.236ZM100.017 158.064C99.5037 158.064 99.0883 158.218 98.771 158.526C98.463 158.825 98.2623 159.249 98.169 159.8H101.767C101.73 159.259 101.562 158.834 101.263 158.526C100.964 158.218 100.549 158.064 100.017 158.064ZM107.691 157.028C107.896 157.028 108.106 157.051 108.321 157.098C108.573 157.154 108.699 157.303 108.699 157.546C108.699 157.611 108.694 157.658 108.685 157.686L108.615 158.022C108.559 158.283 108.419 158.414 108.195 158.414L108.069 158.4C107.901 158.372 107.751 158.358 107.621 158.358C107.154 158.358 106.776 158.545 106.487 158.918C106.207 159.282 106.067 159.791 106.067 160.444V163.51C106.067 163.659 106.025 163.781 105.941 163.874C105.857 163.958 105.735 164 105.577 164H105.073C104.923 164 104.802 163.958 104.709 163.874C104.625 163.781 104.583 163.659 104.583 163.51V157.588C104.583 157.429 104.625 157.308 104.709 157.224C104.802 157.14 104.923 157.098 105.073 157.098H105.479C105.637 157.098 105.759 157.14 105.843 157.224C105.927 157.308 105.969 157.429 105.969 157.588V158.134C106.137 157.789 106.365 157.518 106.655 157.322C106.944 157.126 107.289 157.028 107.691 157.028ZM112.886 157.028C113.091 157.028 113.301 157.051 113.516 157.098C113.768 157.154 113.894 157.303 113.894 157.546C113.894 157.611 113.889 157.658 113.88 157.686L113.81 158.022C113.754 158.283 113.614 158.414 113.39 158.414L113.264 158.4C113.096 158.372 112.946 158.358 112.816 158.358C112.349 158.358 111.971 158.545 111.682 158.918C111.402 159.282 111.262 159.791 111.262 160.444V163.51C111.262 163.659 111.22 163.781 111.136 163.874C111.052 163.958 110.93 164 110.772 164H110.268C110.118 164 109.997 163.958 109.904 163.874C109.82 163.781 109.778 163.659 109.778 163.51V157.588C109.778 157.429 109.82 157.308 109.904 157.224C109.997 157.14 110.118 157.098 110.268 157.098H110.674C110.832 157.098 110.954 157.14 111.038 157.224C111.122 157.308 111.164 157.429 111.164 157.588V158.134C111.332 157.789 111.56 157.518 111.85 157.322C112.139 157.126 112.484 157.028 112.886 157.028ZM119.587 162.236C119.708 162.133 119.825 162.082 119.937 162.082C120.049 162.082 120.166 162.143 120.287 162.264L120.483 162.474C120.586 162.595 120.637 162.712 120.637 162.824C120.637 162.945 120.576 163.062 120.455 163.174C120.026 163.547 119.596 163.813 119.167 163.972C118.747 164.131 118.28 164.21 117.767 164.21C117.048 164.21 116.423 164.061 115.891 163.762C115.368 163.463 114.962 163.043 114.673 162.502C114.393 161.951 114.253 161.317 114.253 160.598C114.253 159.889 114.388 159.254 114.659 158.694C114.939 158.125 115.331 157.681 115.835 157.364C116.348 157.047 116.946 156.888 117.627 156.888C118.644 156.888 119.428 157.191 119.979 157.798C120.53 158.395 120.805 159.221 120.805 160.276V160.402C120.796 160.551 120.749 160.668 120.665 160.752C120.581 160.836 120.46 160.878 120.301 160.878H115.709C115.765 161.494 115.966 161.998 116.311 162.39C116.666 162.773 117.16 162.964 117.795 162.964C118.14 162.964 118.444 162.913 118.705 162.81C118.966 162.698 119.26 162.507 119.587 162.236ZM117.599 158.064C117.086 158.064 116.67 158.218 116.353 158.526C116.045 158.825 115.844 159.249 115.751 159.8H119.349C119.312 159.259 119.144 158.834 118.845 158.526C118.546 158.218 118.131 158.064 117.599 158.064ZM127.05 154.536C127.05 154.377 127.092 154.256 127.176 154.172C127.269 154.088 127.391 154.046 127.54 154.046H128.044C128.203 154.046 128.324 154.088 128.408 154.172C128.492 154.256 128.534 154.377 128.534 154.536V163.51C128.534 163.659 128.492 163.781 128.408 163.874C128.324 163.958 128.203 164 128.044 164H127.638C127.489 164 127.367 163.958 127.274 163.874C127.19 163.781 127.148 163.659 127.148 163.51V163.02C126.663 163.804 125.902 164.196 124.866 164.196C124.287 164.196 123.765 164.047 123.298 163.748C122.841 163.449 122.481 163.025 122.22 162.474C121.959 161.923 121.828 161.284 121.828 160.556C121.828 159.837 121.959 159.203 122.22 158.652C122.491 158.101 122.859 157.677 123.326 157.378C123.793 157.079 124.315 156.93 124.894 156.93C125.846 156.93 126.565 157.261 127.05 157.924V154.536ZM125.174 162.922C125.743 162.922 126.21 162.712 126.574 162.292C126.938 161.863 127.12 161.284 127.12 160.556C127.12 159.828 126.938 159.254 126.574 158.834C126.21 158.414 125.743 158.204 125.174 158.204C124.623 158.204 124.18 158.419 123.844 158.848C123.508 159.277 123.34 159.847 123.34 160.556C123.34 161.275 123.503 161.849 123.83 162.278C124.166 162.707 124.614 162.922 125.174 162.922ZM136.427 164.21C135.746 164.21 135.144 164.061 134.621 163.762C134.108 163.463 133.706 163.039 133.417 162.488C133.137 161.928 132.997 161.279 132.997 160.542C132.997 159.805 133.142 159.161 133.431 158.61C133.72 158.059 134.126 157.635 134.649 157.336C135.172 157.037 135.774 156.888 136.455 156.888C136.95 156.888 137.393 156.963 137.785 157.112C138.186 157.252 138.569 157.495 138.933 157.84C139.045 157.952 139.101 158.069 139.101 158.19C139.101 158.302 139.04 158.419 138.919 158.54L138.681 158.778C138.578 158.881 138.466 158.932 138.345 158.932C138.224 158.932 138.098 158.876 137.967 158.764C137.696 158.531 137.44 158.372 137.197 158.288C136.964 158.195 136.712 158.148 136.441 158.148C135.825 158.148 135.349 158.377 135.013 158.834C134.677 159.291 134.509 159.861 134.509 160.542C134.509 161.223 134.677 161.797 135.013 162.264C135.349 162.721 135.825 162.95 136.441 162.95C136.74 162.95 137.015 162.894 137.267 162.782C137.519 162.661 137.79 162.46 138.079 162.18C138.2 162.059 138.326 161.998 138.457 161.998C138.569 161.998 138.676 162.045 138.779 162.138L139.017 162.334C139.138 162.437 139.199 162.553 139.199 162.684C139.199 162.824 139.129 162.973 138.989 163.132C138.606 163.524 138.21 163.804 137.799 163.972C137.398 164.131 136.94 164.21 136.427 164.21ZM143.401 164.21C142.72 164.21 142.113 164.056 141.581 163.748C141.059 163.44 140.648 163.011 140.349 162.46C140.051 161.9 139.901 161.261 139.901 160.542C139.901 159.823 140.051 159.189 140.349 158.638C140.648 158.087 141.059 157.658 141.581 157.35C142.113 157.042 142.72 156.888 143.401 156.888C144.073 156.888 144.675 157.042 145.207 157.35C145.739 157.658 146.155 158.092 146.453 158.652C146.752 159.203 146.901 159.833 146.901 160.542C146.901 161.261 146.752 161.9 146.453 162.46C146.155 163.011 145.739 163.44 145.207 163.748C144.675 164.056 144.073 164.21 143.401 164.21ZM143.401 162.964C143.999 162.964 144.479 162.745 144.843 162.306C145.207 161.858 145.389 161.27 145.389 160.542C145.389 159.823 145.207 159.245 144.843 158.806C144.479 158.367 143.999 158.148 143.401 158.148C142.804 158.148 142.323 158.367 141.959 158.806C141.595 159.245 141.413 159.823 141.413 160.542C141.413 161.27 141.595 161.858 141.959 162.306C142.323 162.745 142.804 162.964 143.401 162.964ZM148.755 164C148.606 164 148.485 163.958 148.391 163.874C148.307 163.781 148.265 163.659 148.265 163.51V154.55C148.265 154.391 148.307 154.27 148.391 154.186C148.485 154.102 148.606 154.06 148.755 154.06H149.259C149.418 154.06 149.539 154.102 149.623 154.186C149.707 154.27 149.749 154.391 149.749 154.55V163.51C149.749 163.659 149.707 163.781 149.623 163.874C149.539 163.958 149.418 164 149.259 164H148.755ZM154.626 164.21C153.945 164.21 153.338 164.056 152.806 163.748C152.283 163.44 151.873 163.011 151.574 162.46C151.275 161.9 151.126 161.261 151.126 160.542C151.126 159.823 151.275 159.189 151.574 158.638C151.873 158.087 152.283 157.658 152.806 157.35C153.338 157.042 153.945 156.888 154.626 156.888C155.298 156.888 155.9 157.042 156.432 157.35C156.964 157.658 157.379 158.092 157.678 158.652C157.977 159.203 158.126 159.833 158.126 160.542C158.126 161.261 157.977 161.9 157.678 162.46C157.379 163.011 156.964 163.44 156.432 163.748C155.9 164.056 155.298 164.21 154.626 164.21ZM154.626 162.964C155.223 162.964 155.704 162.745 156.068 162.306C156.432 161.858 156.614 161.27 156.614 160.542C156.614 159.823 156.432 159.245 156.068 158.806C155.704 158.367 155.223 158.148 154.626 158.148C154.029 158.148 153.548 158.367 153.184 158.806C152.82 159.245 152.638 159.823 152.638 160.542C152.638 161.27 152.82 161.858 153.184 162.306C153.548 162.745 154.029 162.964 154.626 162.964ZM162.542 157.028C162.747 157.028 162.957 157.051 163.172 157.098C163.424 157.154 163.55 157.303 163.55 157.546C163.55 157.611 163.545 157.658 163.536 157.686L163.466 158.022C163.41 158.283 163.27 158.414 163.046 158.414L162.92 158.4C162.752 158.372 162.603 158.358 162.472 158.358C162.005 158.358 161.627 158.545 161.338 158.918C161.058 159.282 160.918 159.791 160.918 160.444V163.51C160.918 163.659 160.876 163.781 160.792 163.874C160.708 163.958 160.587 164 160.428 164H159.924C159.775 164 159.653 163.958 159.56 163.874C159.476 163.781 159.434 163.659 159.434 163.51V157.588C159.434 157.429 159.476 157.308 159.56 157.224C159.653 157.14 159.775 157.098 159.924 157.098H160.33C160.489 157.098 160.61 157.14 160.694 157.224C160.778 157.308 160.82 157.429 160.82 157.588V158.134C160.988 157.789 161.217 157.518 161.506 157.322C161.795 157.126 162.141 157.028 162.542 157.028Z" fill="#464646"/>
<path d="M175.552 165.872C175.504 165.92 175.448 165.944 175.384 165.944C175.32 165.944 175.264 165.912 175.216 165.848C174.488 165.032 173.928 164.184 173.536 163.304C173.152 162.424 172.96 161.428 172.96 160.316C172.96 159.204 173.152 158.208 173.536 157.328C173.928 156.448 174.488 155.6 175.216 154.784C175.264 154.72 175.32 154.688 175.384 154.688C175.448 154.688 175.504 154.712 175.552 154.76L175.708 154.904C175.772 154.952 175.804 155.012 175.804 155.084C175.804 155.14 175.78 155.192 175.732 155.24C175.076 156.04 174.584 156.84 174.256 157.64C173.936 158.44 173.776 159.332 173.776 160.316C173.776 161.292 173.94 162.184 174.268 162.992C174.596 163.792 175.084 164.592 175.732 165.392C175.78 165.44 175.804 165.492 175.804 165.548C175.804 165.62 175.772 165.68 175.708 165.728L175.552 165.872ZM179.227 164.156C178.675 164.156 178.183 164.024 177.751 163.76C177.319 163.496 176.983 163.132 176.743 162.668C176.503 162.196 176.383 161.656 176.383 161.048C176.383 160.44 176.503 159.904 176.743 159.44C176.983 158.968 177.319 158.6 177.751 158.336C178.183 158.072 178.675 157.94 179.227 157.94C179.779 157.94 180.271 158.072 180.703 158.336C181.135 158.6 181.471 158.968 181.711 159.44C181.951 159.904 182.071 160.44 182.071 161.048C182.071 161.656 181.951 162.196 181.711 162.668C181.471 163.132 181.135 163.496 180.703 163.76C180.271 164.024 179.779 164.156 179.227 164.156ZM179.227 163.496C179.843 163.496 180.335 163.272 180.703 162.824C181.071 162.368 181.255 161.776 181.255 161.048C181.255 160.32 181.071 159.732 180.703 159.284C180.335 158.828 179.843 158.6 179.227 158.6C178.611 158.6 178.119 158.828 177.751 159.284C177.383 159.732 177.199 160.32 177.199 161.048C177.199 161.776 177.383 162.368 177.751 162.824C178.119 163.272 178.611 163.496 179.227 163.496ZM186.279 157.952C186.775 157.952 187.219 158.084 187.611 158.348C188.011 158.604 188.323 158.968 188.547 159.44C188.771 159.904 188.883 160.436 188.883 161.036C188.883 161.644 188.771 162.184 188.547 162.656C188.323 163.128 188.015 163.496 187.623 163.76C187.231 164.016 186.783 164.144 186.279 164.144C185.351 164.144 184.671 163.804 184.239 163.124V165.968C184.239 166.128 184.159 166.208 183.999 166.208H183.687C183.527 166.208 183.447 166.128 183.447 165.968V158.324C183.447 158.164 183.527 158.084 183.687 158.084H183.951C184.111 158.084 184.191 158.164 184.191 158.324V159.08C184.407 158.712 184.691 158.432 185.043 158.24C185.395 158.048 185.807 157.952 186.279 157.952ZM186.219 163.472C186.779 163.472 187.227 163.248 187.563 162.8C187.899 162.352 188.067 161.764 188.067 161.036C188.067 160.316 187.899 159.736 187.563 159.296C187.227 158.848 186.779 158.624 186.219 158.624C185.619 158.624 185.131 158.84 184.755 159.272C184.387 159.696 184.203 160.284 184.203 161.036C184.203 161.788 184.391 162.384 184.767 162.824C185.143 163.256 185.627 163.472 186.219 163.472ZM192.779 163.34C192.803 163.332 192.835 163.328 192.875 163.328C192.923 163.328 192.967 163.344 193.007 163.376C193.047 163.408 193.071 163.452 193.079 163.508L193.115 163.676C193.123 163.692 193.127 163.72 193.127 163.76C193.127 163.872 193.067 163.94 192.947 163.964C192.659 164.052 192.351 164.096 192.023 164.096C191.503 164.096 191.131 163.98 190.907 163.748C190.691 163.508 190.583 163.164 190.583 162.716V158.684H189.695C189.535 158.684 189.455 158.604 189.455 158.444V158.324C189.455 158.164 189.535 158.084 189.695 158.084H190.583V156.26C190.583 156.1 190.663 156.02 190.823 156.02H191.135C191.295 156.02 191.375 156.1 191.375 156.26V158.084H192.815C192.975 158.084 193.055 158.164 193.055 158.324V158.444C193.055 158.604 192.975 158.684 192.815 158.684H191.375V162.62C191.375 162.916 191.431 163.124 191.543 163.244C191.655 163.364 191.847 163.424 192.119 163.424C192.311 163.424 192.531 163.396 192.779 163.34ZM194.659 156.584C194.499 156.584 194.363 156.528 194.251 156.416C194.147 156.304 194.095 156.168 194.095 156.008C194.095 155.848 194.147 155.716 194.251 155.612C194.363 155.508 194.499 155.456 194.659 155.456C194.827 155.456 194.963 155.508 195.067 155.612C195.179 155.716 195.235 155.848 195.235 156.008C195.235 156.168 195.179 156.304 195.067 156.416C194.963 156.528 194.827 156.584 194.659 156.584ZM194.503 164C194.343 164 194.263 163.92 194.263 163.76V158.324C194.263 158.164 194.343 158.084 194.503 158.084H194.815C194.975 158.084 195.055 158.164 195.055 158.324V163.76C195.055 163.92 194.975 164 194.815 164H194.503ZM199.266 164.156C198.714 164.156 198.222 164.024 197.79 163.76C197.358 163.496 197.022 163.132 196.782 162.668C196.542 162.196 196.422 161.656 196.422 161.048C196.422 160.44 196.542 159.904 196.782 159.44C197.022 158.968 197.358 158.6 197.79 158.336C198.222 158.072 198.714 157.94 199.266 157.94C199.818 157.94 200.31 158.072 200.742 158.336C201.174 158.6 201.51 158.968 201.75 159.44C201.99 159.904 202.11 160.44 202.11 161.048C202.11 161.656 201.99 162.196 201.75 162.668C201.51 163.132 201.174 163.496 200.742 163.76C200.31 164.024 199.818 164.156 199.266 164.156ZM199.266 163.496C199.882 163.496 200.374 163.272 200.742 162.824C201.11 162.368 201.294 161.776 201.294 161.048C201.294 160.32 201.11 159.732 200.742 159.284C200.374 158.828 199.882 158.6 199.266 158.6C198.65 158.6 198.158 158.828 197.79 159.284C197.422 159.732 197.238 160.32 197.238 161.048C197.238 161.776 197.422 162.368 197.79 162.824C198.158 163.272 198.65 163.496 199.266 163.496ZM206.126 157.94C206.822 157.94 207.346 158.132 207.698 158.516C208.058 158.9 208.238 159.38 208.238 159.956V163.76C208.238 163.92 208.158 164 207.998 164H207.686C207.526 164 207.446 163.92 207.446 163.76V160.22C207.446 159.692 207.318 159.292 207.062 159.02C206.806 158.748 206.438 158.612 205.958 158.612C205.654 158.612 205.374 158.688 205.118 158.84C204.862 158.984 204.658 159.184 204.506 159.44C204.354 159.696 204.278 159.976 204.278 160.28V163.76C204.278 163.92 204.198 164 204.038 164H203.726C203.566 164 203.486 163.92 203.486 163.76V158.324C203.486 158.164 203.566 158.084 203.726 158.084H203.99C204.15 158.084 204.23 158.164 204.23 158.324V158.9C204.43 158.58 204.694 158.34 205.022 158.18C205.35 158.02 205.718 157.94 206.126 157.94ZM212.27 157.94C212.998 157.94 213.566 158.116 213.974 158.468C214.382 158.812 214.586 159.268 214.586 159.836V163.76C214.586 163.92 214.506 164 214.346 164H214.106C213.946 164 213.866 163.92 213.866 163.76V163.22C213.666 163.54 213.382 163.78 213.014 163.94C212.654 164.1 212.25 164.18 211.802 164.18C211.178 164.18 210.67 164.048 210.278 163.784C209.886 163.52 209.69 163.112 209.69 162.56C209.69 162.12 209.814 161.768 210.062 161.504C210.31 161.232 210.634 161.028 211.034 160.892C211.434 160.748 211.934 160.62 212.534 160.508L213.83 160.28V159.896C213.83 159.488 213.69 159.172 213.41 158.948C213.13 158.716 212.762 158.6 212.306 158.6C211.962 158.6 211.65 158.664 211.37 158.792C211.09 158.92 210.79 159.14 210.47 159.452C210.414 159.508 210.354 159.536 210.29 159.536C210.234 159.536 210.182 159.512 210.134 159.464L209.978 159.32C209.922 159.264 209.894 159.204 209.894 159.14C209.894 159.068 209.922 159.004 209.978 158.948C210.314 158.596 210.666 158.34 211.034 158.18C211.41 158.02 211.822 157.94 212.27 157.94ZM211.838 163.52C212.414 163.52 212.89 163.368 213.266 163.064C213.642 162.76 213.83 162.372 213.83 161.9V160.892L212.714 161.108C212.194 161.212 211.782 161.312 211.478 161.408C211.174 161.504 210.93 161.644 210.746 161.828C210.562 162.012 210.47 162.252 210.47 162.548C210.47 162.852 210.59 163.092 210.83 163.268C211.078 163.436 211.414 163.52 211.838 163.52ZM216.593 164C216.433 164 216.353 163.92 216.353 163.76V155.72C216.353 155.56 216.433 155.48 216.593 155.48H216.905C217.065 155.48 217.145 155.56 217.145 155.72V163.76C217.145 163.92 217.065 164 216.905 164H216.593ZM218.835 165.848C218.787 165.912 218.731 165.944 218.667 165.944C218.603 165.944 218.547 165.92 218.499 165.872L218.343 165.728C218.279 165.68 218.247 165.62 218.247 165.548C218.247 165.492 218.271 165.44 218.319 165.392C218.975 164.592 219.467 163.792 219.795 162.992C220.123 162.192 220.287 161.3 220.287 160.316C220.287 159.34 220.123 158.448 219.795 157.64C219.467 156.832 218.975 156.032 218.319 155.24C218.279 155.192 218.259 155.14 218.259 155.084C218.259 155.012 218.287 154.952 218.343 154.904L218.499 154.76C218.547 154.712 218.603 154.688 218.667 154.688C218.731 154.688 218.787 154.72 218.835 154.784C219.563 155.6 220.119 156.448 220.503 157.328C220.895 158.208 221.091 159.204 221.091 160.316C221.091 161.428 220.895 162.424 220.503 163.304C220.119 164.184 219.563 165.032 218.835 165.848Z" fill="#767676"/>
<rect x="70.5" y="172.5" width="203" height="47" rx="3.5" fill="white"/>
<path d="M83.136 201.24C82.2933 201.24 81.5307 201.112 80.848 200.856C80.176 200.589 79.4667 200.157 78.72 199.56C78.624 199.475 78.576 199.395 78.576 199.32C78.576 199.256 78.608 199.187 78.672 199.112L78.928 198.808C78.9813 198.723 79.0613 198.68 79.168 198.68C79.2533 198.68 79.3227 198.707 79.376 198.76C80.1333 199.347 80.7947 199.747 81.36 199.96C81.9253 200.163 82.5173 200.264 83.136 200.264C84 200.264 84.704 200.051 85.248 199.624C85.792 199.187 86.064 198.595 86.064 197.848C86.064 197.368 85.936 196.984 85.68 196.696C85.424 196.408 85.072 196.184 84.624 196.024C84.1867 195.864 83.5627 195.693 82.752 195.512C81.7813 195.299 81.024 195.069 80.48 194.824C79.9467 194.579 79.5573 194.269 79.312 193.896C79.0667 193.523 78.944 193.043 78.944 192.456C78.944 191.837 79.12 191.299 79.472 190.84C79.8347 190.371 80.3147 190.013 80.912 189.768C81.5093 189.523 82.1547 189.4 82.848 189.4C83.6053 189.4 84.2933 189.512 84.912 189.736C85.5413 189.96 86.16 190.317 86.768 190.808C86.864 190.872 86.912 190.947 86.912 191.032C86.912 191.096 86.88 191.171 86.816 191.256L86.576 191.544C86.5227 191.629 86.4427 191.672 86.336 191.672C86.2507 191.672 86.176 191.645 86.112 191.592C85.568 191.144 85.04 190.829 84.528 190.648C84.0267 190.467 83.472 190.376 82.864 190.376C82.3093 190.376 81.8187 190.467 81.392 190.648C80.9653 190.819 80.6293 191.059 80.384 191.368C80.1493 191.677 80.032 192.029 80.032 192.424C80.032 192.851 80.1493 193.192 80.384 193.448C80.6293 193.704 80.9653 193.907 81.392 194.056C81.8293 194.205 82.464 194.376 83.296 194.568C84.256 194.792 85.0133 195.043 85.568 195.32C86.1333 195.597 86.544 195.939 86.8 196.344C87.056 196.739 87.184 197.229 87.184 197.816C87.184 198.499 87.008 199.101 86.656 199.624C86.3147 200.136 85.8347 200.536 85.216 200.824C84.5973 201.101 83.904 201.24 83.136 201.24ZM94.8968 199.128C94.9714 199.053 95.0514 199.016 95.1368 199.016C95.2114 199.016 95.2808 199.048 95.3448 199.112L95.5528 199.304C95.6274 199.379 95.6648 199.459 95.6648 199.544C95.6648 199.608 95.6328 199.683 95.5688 199.768C95.0461 200.291 94.5394 200.664 94.0488 200.888C93.5581 201.101 93.0088 201.208 92.4008 201.208C91.6328 201.208 90.9661 201.037 90.4008 200.696C89.8354 200.355 89.3981 199.88 89.0888 199.272C88.7794 198.653 88.6248 197.939 88.6248 197.128C88.6248 196.307 88.7741 195.581 89.0728 194.952C89.3821 194.312 89.8141 193.816 90.3688 193.464C90.9234 193.101 91.5634 192.92 92.2888 192.92C93.3661 192.92 94.2141 193.256 94.8328 193.928C95.4514 194.6 95.7608 195.507 95.7608 196.648V196.84C95.7501 196.936 95.7128 197.011 95.6488 197.064C95.5954 197.117 95.5208 197.144 95.4248 197.144H89.6968C89.7288 198.04 89.9634 198.797 90.4008 199.416C90.8488 200.024 91.5154 200.328 92.4008 200.328C92.8808 200.328 93.3021 200.243 93.6648 200.072C94.0381 199.891 94.4488 199.576 94.8968 199.128ZM92.2888 193.8C91.5848 193.8 91.0034 194.019 90.5448 194.456C90.0968 194.883 89.8248 195.512 89.7288 196.344H94.7048C94.6834 195.565 94.4594 194.947 94.0328 194.488C93.6061 194.029 93.0248 193.8 92.2888 193.8ZM97.9888 201C97.7754 201 97.6688 200.893 97.6688 200.68V189.96C97.6688 189.747 97.7754 189.64 97.9888 189.64H98.4048C98.6181 189.64 98.7248 189.747 98.7248 189.96V200.68C98.7248 200.893 98.6181 201 98.4048 201H97.9888ZM106.85 199.128C106.925 199.053 107.005 199.016 107.09 199.016C107.165 199.016 107.234 199.048 107.298 199.112L107.506 199.304C107.581 199.379 107.618 199.459 107.618 199.544C107.618 199.608 107.586 199.683 107.522 199.768C106.999 200.291 106.493 200.664 106.002 200.888C105.511 201.101 104.962 201.208 104.354 201.208C103.586 201.208 102.919 201.037 102.354 200.696C101.789 200.355 101.351 199.88 101.042 199.272C100.733 198.653 100.578 197.939 100.578 197.128C100.578 196.307 100.727 195.581 101.026 194.952C101.335 194.312 101.767 193.816 102.322 193.464C102.877 193.101 103.517 192.92 104.242 192.92C105.319 192.92 106.167 193.256 106.786 193.928C107.405 194.6 107.714 195.507 107.714 196.648V196.84C107.703 196.936 107.666 197.011 107.602 197.064C107.549 197.117 107.474 197.144 107.378 197.144H101.65C101.682 198.04 101.917 198.797 102.354 199.416C102.802 200.024 103.469 200.328 104.354 200.328C104.834 200.328 105.255 200.243 105.618 200.072C105.991 199.891 106.402 199.576 106.85 199.128ZM104.242 193.8C103.538 193.8 102.957 194.019 102.498 194.456C102.05 194.883 101.778 195.512 101.682 196.344H106.658C106.637 195.565 106.413 194.947 105.986 194.488C105.559 194.029 104.978 193.8 104.242 193.8ZM112.822 201.208C112.064 201.208 111.403 201.037 110.838 200.696C110.283 200.344 109.851 199.859 109.542 199.24C109.243 198.611 109.094 197.885 109.094 197.064C109.094 196.253 109.243 195.533 109.542 194.904C109.851 194.275 110.283 193.789 110.838 193.448C111.403 193.096 112.054 192.92 112.79 192.92C113.387 192.92 113.91 193.021 114.358 193.224C114.806 193.416 115.238 193.736 115.654 194.184C115.718 194.248 115.75 194.317 115.75 194.392C115.75 194.488 115.707 194.568 115.622 194.632L115.398 194.84C115.334 194.904 115.259 194.936 115.174 194.936C115.099 194.936 115.019 194.893 114.934 194.808C114.56 194.435 114.203 194.173 113.862 194.024C113.531 193.875 113.163 193.8 112.758 193.8C112.203 193.8 111.728 193.955 111.334 194.264C110.95 194.573 110.662 194.979 110.47 195.48C110.278 195.971 110.182 196.499 110.182 197.064C110.182 197.629 110.278 198.163 110.47 198.664C110.662 199.155 110.955 199.555 111.35 199.864C111.744 200.163 112.23 200.312 112.806 200.312C113.232 200.312 113.606 200.237 113.926 200.088C114.256 199.928 114.624 199.629 115.03 199.192C115.115 199.107 115.195 199.064 115.27 199.064C115.355 199.064 115.43 199.096 115.494 199.16L115.718 199.336C115.792 199.4 115.83 199.475 115.83 199.56C115.83 199.645 115.782 199.747 115.686 199.864C115.238 200.355 114.79 200.701 114.342 200.904C113.894 201.107 113.387 201.208 112.822 201.208ZM121.142 200.12C121.174 200.109 121.217 200.104 121.27 200.104C121.334 200.104 121.393 200.125 121.446 200.168C121.5 200.211 121.532 200.269 121.542 200.344L121.59 200.568C121.601 200.589 121.606 200.627 121.606 200.68C121.606 200.829 121.526 200.92 121.366 200.952C120.982 201.069 120.572 201.128 120.134 201.128C119.441 201.128 118.945 200.973 118.646 200.664C118.358 200.344 118.214 199.885 118.214 199.288V193.912H117.03C116.817 193.912 116.71 193.805 116.71 193.592V193.432C116.71 193.219 116.817 193.112 117.03 193.112H118.214V190.68C118.214 190.467 118.321 190.36 118.534 190.36H118.95C119.164 190.36 119.27 190.467 119.27 190.68V193.112H121.19C121.404 193.112 121.51 193.219 121.51 193.432V193.592C121.51 193.805 121.404 193.912 121.19 193.912H119.27V199.16C119.27 199.555 119.345 199.832 119.494 199.992C119.644 200.152 119.9 200.232 120.262 200.232C120.518 200.232 120.812 200.195 121.142 200.12ZM129.849 192.92C130.82 192.92 131.577 193.155 132.121 193.624C132.665 194.083 132.937 194.691 132.937 195.448V200.68C132.937 200.893 132.83 201 132.617 201H132.297C132.084 201 131.977 200.893 131.977 200.68V199.96C131.71 200.387 131.332 200.707 130.841 200.92C130.361 201.133 129.822 201.24 129.225 201.24C128.393 201.24 127.716 201.064 127.193 200.712C126.67 200.36 126.409 199.816 126.409 199.08C126.409 198.493 126.574 198.024 126.905 197.672C127.236 197.309 127.668 197.037 128.201 196.856C128.734 196.664 129.401 196.493 130.201 196.344L131.929 196.04V195.528C131.929 194.984 131.742 194.563 131.369 194.264C130.996 193.955 130.505 193.8 129.897 193.8C129.438 193.8 129.022 193.885 128.649 194.056C128.276 194.227 127.876 194.52 127.449 194.936C127.374 195.011 127.294 195.048 127.209 195.048C127.134 195.048 127.065 195.016 127.001 194.952L126.793 194.76C126.718 194.685 126.681 194.605 126.681 194.52C126.681 194.424 126.718 194.339 126.793 194.264C127.241 193.795 127.71 193.453 128.201 193.24C128.702 193.027 129.252 192.92 129.849 192.92ZM129.273 200.36C130.041 200.36 130.676 200.157 131.177 199.752C131.678 199.347 131.929 198.829 131.929 198.2V196.856L130.441 197.144C129.748 197.283 129.198 197.416 128.793 197.544C128.388 197.672 128.062 197.859 127.817 198.104C127.572 198.349 127.449 198.669 127.449 199.064C127.449 199.469 127.609 199.789 127.929 200.024C128.26 200.248 128.708 200.36 129.273 200.36ZM142.165 201.208C141.408 201.208 140.747 201.037 140.181 200.696C139.627 200.344 139.195 199.859 138.885 199.24C138.587 198.611 138.437 197.885 138.437 197.064C138.437 196.253 138.587 195.533 138.885 194.904C139.195 194.275 139.627 193.789 140.181 193.448C140.747 193.096 141.397 192.92 142.133 192.92C142.731 192.92 143.253 193.021 143.701 193.224C144.149 193.416 144.581 193.736 144.997 194.184C145.061 194.248 145.093 194.317 145.093 194.392C145.093 194.488 145.051 194.568 144.965 194.632L144.741 194.84C144.677 194.904 144.603 194.936 144.517 194.936C144.443 194.936 144.363 194.893 144.277 194.808C143.904 194.435 143.547 194.173 143.205 194.024C142.875 193.875 142.507 193.8 142.101 193.8C141.547 193.8 141.072 193.955 140.677 194.264C140.293 194.573 140.005 194.979 139.813 195.48C139.621 195.971 139.525 196.499 139.525 197.064C139.525 197.629 139.621 198.163 139.813 198.664C140.005 199.155 140.299 199.555 140.693 199.864C141.088 200.163 141.573 200.312 142.149 200.312C142.576 200.312 142.949 200.237 143.269 200.088C143.6 199.928 143.968 199.629 144.373 199.192C144.459 199.107 144.539 199.064 144.613 199.064C144.699 199.064 144.773 199.096 144.837 199.16L145.061 199.336C145.136 199.4 145.173 199.475 145.173 199.56C145.173 199.645 145.125 199.747 145.029 199.864C144.581 200.355 144.133 200.701 143.685 200.904C143.237 201.107 142.731 201.208 142.165 201.208ZM149.995 201.208C149.259 201.208 148.603 201.032 148.027 200.68C147.451 200.328 147.003 199.843 146.683 199.224C146.363 198.595 146.203 197.875 146.203 197.064C146.203 196.253 146.363 195.539 146.683 194.92C147.003 194.291 147.451 193.8 148.027 193.448C148.603 193.096 149.259 192.92 149.995 192.92C150.731 192.92 151.387 193.096 151.963 193.448C152.539 193.8 152.987 194.291 153.307 194.92C153.627 195.539 153.787 196.253 153.787 197.064C153.787 197.875 153.627 198.595 153.307 199.224C152.987 199.843 152.539 200.328 151.963 200.68C151.387 201.032 150.731 201.208 149.995 201.208ZM149.995 200.328C150.816 200.328 151.472 200.029 151.963 199.432C152.454 198.824 152.699 198.035 152.699 197.064C152.699 196.093 152.454 195.309 151.963 194.712C151.472 194.104 150.816 193.8 149.995 193.8C149.174 193.8 148.518 194.104 148.027 194.712C147.536 195.309 147.291 196.093 147.291 197.064C147.291 198.035 147.536 198.824 148.027 199.432C148.518 200.029 149.174 200.328 149.995 200.328ZM155.958 201C155.744 201 155.638 200.893 155.638 200.68V189.96C155.638 189.747 155.744 189.64 155.958 189.64H156.374C156.587 189.64 156.694 189.747 156.694 189.96V200.68C156.694 200.893 156.587 201 156.374 201H155.958ZM162.339 201.208C161.603 201.208 160.947 201.032 160.371 200.68C159.795 200.328 159.347 199.843 159.027 199.224C158.707 198.595 158.547 197.875 158.547 197.064C158.547 196.253 158.707 195.539 159.027 194.92C159.347 194.291 159.795 193.8 160.371 193.448C160.947 193.096 161.603 192.92 162.339 192.92C163.075 192.92 163.731 193.096 164.307 193.448C164.883 193.8 165.331 194.291 165.651 194.92C165.971 195.539 166.131 196.253 166.131 197.064C166.131 197.875 165.971 198.595 165.651 199.224C165.331 199.843 164.883 200.328 164.307 200.68C163.731 201.032 163.075 201.208 162.339 201.208ZM162.339 200.328C163.16 200.328 163.816 200.029 164.307 199.432C164.797 198.824 165.043 198.035 165.043 197.064C165.043 196.093 164.797 195.309 164.307 194.712C163.816 194.104 163.16 193.8 162.339 193.8C161.517 193.8 160.861 194.104 160.371 194.712C159.88 195.309 159.635 196.093 159.635 197.064C159.635 198.035 159.88 198.824 160.371 199.432C160.861 200.029 161.517 200.328 162.339 200.328ZM170.909 193.048C171.176 193.048 171.491 193.091 171.853 193.176C172.045 193.24 172.12 193.373 172.077 193.576L172.013 193.832C171.96 194.035 171.827 194.109 171.613 194.056C171.357 193.992 171.123 193.96 170.909 193.96C170.365 193.96 169.912 194.195 169.549 194.664C169.197 195.133 169.021 195.784 169.021 196.616V200.68C169.021 200.893 168.915 201 168.701 201H168.285C168.072 201 167.965 200.893 167.965 200.68V193.432C167.965 193.219 168.072 193.112 168.285 193.112H168.637C168.851 193.112 168.957 193.219 168.957 193.432V194.312C169.139 193.917 169.395 193.608 169.725 193.384C170.067 193.16 170.461 193.048 170.909 193.048Z" fill="#767676"/>
<path d="M252.5 193.5L258 199L263.5 193.5" stroke="#464646" stroke-width="1.5" stroke-linecap="round" stroke-linejoin="round"/>
<rect x="70.5" y="172.5" width="203" height="47" rx="3.5" stroke="#C3CCD9"/>
</svg>
