<svg width="344" height="170" viewBox="0 0 344 170" fill="none" xmlns="http://www.w3.org/2000/svg">
<rect width="344" height="170" fill="#F5F5F5"/>
<path d="M71.568 54C71.4187 54 71.2973 53.958 71.204 53.874C71.12 53.7807 71.078 53.6593 71.078 53.51V44.55C71.078 44.3913 71.12 44.27 71.204 44.186C71.2973 44.102 71.4187 44.06 71.568 44.06H75.586C76.5753 44.06 77.364 44.3353 77.952 44.886C78.54 45.4273 78.834 46.1693 78.834 47.112C78.834 48.0547 78.54 48.7967 77.952 49.338C77.364 49.8793 76.5753 50.15 75.586 50.15H72.674V53.51C72.674 53.6593 72.632 53.7807 72.548 53.874C72.464 53.958 72.3427 54 72.184 54H71.568ZM75.334 48.82C75.9313 48.82 76.398 48.6753 76.734 48.386C77.0793 48.0873 77.252 47.6627 77.252 47.112C77.252 46.552 77.0793 46.1273 76.734 45.838C76.398 45.5393 75.9313 45.39 75.334 45.39H72.674V48.82H75.334ZM83.2589 47.028C83.4642 47.028 83.6742 47.0513 83.8889 47.098C84.1409 47.154 84.2669 47.3033 84.2669 47.546C84.2669 47.6113 84.2622 47.658 84.2529 47.686L84.1829 48.022C84.1269 48.2833 83.9869 48.414 83.7629 48.414L83.6369 48.4C83.4689 48.372 83.3195 48.358 83.1889 48.358C82.7222 48.358 82.3442 48.5447 82.0549 48.918C81.7749 49.282 81.6349 49.7907 81.6349 50.444V53.51C81.6349 53.6593 81.5929 53.7807 81.5089 53.874C81.4249 53.958 81.3035 54 81.1449 54H80.6409C80.4915 54 80.3702 53.958 80.2769 53.874C80.1929 53.7807 80.1509 53.6593 80.1509 53.51V47.588C80.1509 47.4293 80.1929 47.308 80.2769 47.224C80.3702 47.14 80.4915 47.098 80.6409 47.098H81.0469C81.2055 47.098 81.3269 47.14 81.4109 47.224C81.4949 47.308 81.5369 47.4293 81.5369 47.588V48.134C81.7049 47.7887 81.9335 47.518 82.2229 47.322C82.5122 47.126 82.8575 47.028 83.2589 47.028ZM89.9601 52.236C90.0814 52.1333 90.1981 52.082 90.3101 52.082C90.4221 52.082 90.5387 52.1427 90.6601 52.264L90.8561 52.474C90.9587 52.5953 91.0101 52.712 91.0101 52.824C91.0101 52.9453 90.9494 53.062 90.8281 53.174C90.3987 53.5473 89.9694 53.8133 89.5401 53.972C89.1201 54.1307 88.6534 54.21 88.1401 54.21C87.4214 54.21 86.7961 54.0607 86.2641 53.762C85.7414 53.4633 85.3354 53.0433 85.0461 52.502C84.7661 51.9513 84.6261 51.3167 84.6261 50.598C84.6261 49.8887 84.7614 49.254 85.0321 48.694C85.3121 48.1247 85.7041 47.6813 86.2081 47.364C86.7214 47.0467 87.3187 46.888 88.0001 46.888C89.0174 46.888 89.8014 47.1913 90.3521 47.798C90.9027 48.3953 91.1781 49.2213 91.1781 50.276V50.402C91.1687 50.5513 91.1221 50.668 91.0381 50.752C90.9541 50.836 90.8327 50.878 90.6741 50.878H86.0821C86.1381 51.494 86.3387 51.998 86.6841 52.39C87.0387 52.7727 87.5334 52.964 88.1681 52.964C88.5134 52.964 88.8167 52.9127 89.0781 52.81C89.3394 52.698 89.6334 52.5067 89.9601 52.236ZM87.9721 48.064C87.4587 48.064 87.0434 48.218 86.7261 48.526C86.4181 48.8247 86.2174 49.2493 86.1241 49.8H89.7221C89.6847 49.2587 89.5167 48.834 89.2181 48.526C88.9194 48.218 88.5041 48.064 87.9721 48.064ZM95.5346 45.096C95.2079 45.096 94.9699 45.1753 94.8206 45.334C94.6712 45.4927 94.5966 45.7633 94.5966 46.146V47.098H95.7306C95.8892 47.098 96.0106 47.14 96.0946 47.224C96.1786 47.308 96.2206 47.4293 96.2206 47.588V47.742C96.2206 47.8913 96.1786 48.0127 96.0946 48.106C96.0106 48.19 95.8892 48.232 95.7306 48.232H94.5966V53.51C94.5966 53.6593 94.5546 53.7807 94.4706 53.874C94.3866 53.958 94.2652 54 94.1066 54H93.6026C93.4532 54 93.3319 53.958 93.2386 53.874C93.1546 53.7807 93.1126 53.6593 93.1126 53.51V48.232H92.3706C92.2212 48.232 92.0999 48.19 92.0066 48.106C91.9226 48.0127 91.8806 47.8913 91.8806 47.742V47.588C91.8806 47.4293 91.9226 47.308 92.0066 47.224C92.0999 47.14 92.2212 47.098 92.3706 47.098H93.1126V46.048C93.1126 45.3293 93.2946 44.788 93.6586 44.424C94.0319 44.0507 94.5686 43.864 95.2686 43.864C95.5859 43.864 95.9079 43.8967 96.2346 43.962C96.4772 44.0273 96.5986 44.1767 96.5986 44.41C96.5986 44.4753 96.5939 44.5267 96.5846 44.564L96.5426 44.76C96.4866 45.0027 96.3046 45.124 95.9966 45.124L95.8286 45.11C95.7632 45.1007 95.6652 45.096 95.5346 45.096ZM102.005 52.236C102.126 52.1333 102.243 52.082 102.355 52.082C102.467 52.082 102.584 52.1427 102.705 52.264L102.901 52.474C103.004 52.5953 103.055 52.712 103.055 52.824C103.055 52.9453 102.994 53.062 102.873 53.174C102.444 53.5473 102.014 53.8133 101.585 53.972C101.165 54.1307 100.698 54.21 100.185 54.21C99.4663 54.21 98.841 54.0607 98.309 53.762C97.7863 53.4633 97.3803 53.0433 97.091 52.502C96.811 51.9513 96.671 51.3167 96.671 50.598C96.671 49.8887 96.8063 49.254 97.077 48.694C97.357 48.1247 97.749 47.6813 98.253 47.364C98.7663 47.0467 99.3637 46.888 100.045 46.888C101.062 46.888 101.846 47.1913 102.397 47.798C102.948 48.3953 103.223 49.2213 103.223 50.276V50.402C103.214 50.5513 103.167 50.668 103.083 50.752C102.999 50.836 102.878 50.878 102.719 50.878H98.127C98.183 51.494 98.3837 51.998 98.729 52.39C99.0837 52.7727 99.5783 52.964 100.213 52.964C100.558 52.964 100.862 52.9127 101.123 52.81C101.384 52.698 101.678 52.5067 102.005 52.236ZM100.017 48.064C99.5037 48.064 99.0883 48.218 98.771 48.526C98.463 48.8247 98.2623 49.2493 98.169 49.8H101.767C101.73 49.2587 101.562 48.834 101.263 48.526C100.964 48.218 100.549 48.064 100.017 48.064ZM107.691 47.028C107.896 47.028 108.106 47.0513 108.321 47.098C108.573 47.154 108.699 47.3033 108.699 47.546C108.699 47.6113 108.694 47.658 108.685 47.686L108.615 48.022C108.559 48.2833 108.419 48.414 108.195 48.414L108.069 48.4C107.901 48.372 107.751 48.358 107.621 48.358C107.154 48.358 106.776 48.5447 106.487 48.918C106.207 49.282 106.067 49.7907 106.067 50.444V53.51C106.067 53.6593 106.025 53.7807 105.941 53.874C105.857 53.958 105.735 54 105.577 54H105.073C104.923 54 104.802 53.958 104.709 53.874C104.625 53.7807 104.583 53.6593 104.583 53.51V47.588C104.583 47.4293 104.625 47.308 104.709 47.224C104.802 47.14 104.923 47.098 105.073 47.098H105.479C105.637 47.098 105.759 47.14 105.843 47.224C105.927 47.308 105.969 47.4293 105.969 47.588V48.134C106.137 47.7887 106.365 47.518 106.655 47.322C106.944 47.126 107.289 47.028 107.691 47.028ZM112.886 47.028C113.091 47.028 113.301 47.0513 113.516 47.098C113.768 47.154 113.894 47.3033 113.894 47.546C113.894 47.6113 113.889 47.658 113.88 47.686L113.81 48.022C113.754 48.2833 113.614 48.414 113.39 48.414L113.264 48.4C113.096 48.372 112.946 48.358 112.816 48.358C112.349 48.358 111.971 48.5447 111.682 48.918C111.402 49.282 111.262 49.7907 111.262 50.444V53.51C111.262 53.6593 111.22 53.7807 111.136 53.874C111.052 53.958 110.93 54 110.772 54H110.268C110.118 54 109.997 53.958 109.904 53.874C109.82 53.7807 109.778 53.6593 109.778 53.51V47.588C109.778 47.4293 109.82 47.308 109.904 47.224C109.997 47.14 110.118 47.098 110.268 47.098H110.674C110.832 47.098 110.954 47.14 111.038 47.224C111.122 47.308 111.164 47.4293 111.164 47.588V48.134C111.332 47.7887 111.56 47.518 111.85 47.322C112.139 47.126 112.484 47.028 112.886 47.028ZM119.587 52.236C119.708 52.1333 119.825 52.082 119.937 52.082C120.049 52.082 120.166 52.1427 120.287 52.264L120.483 52.474C120.586 52.5953 120.637 52.712 120.637 52.824C120.637 52.9453 120.576 53.062 120.455 53.174C120.026 53.5473 119.596 53.8133 119.167 53.972C118.747 54.1307 118.28 54.21 117.767 54.21C117.048 54.21 116.423 54.0607 115.891 53.762C115.368 53.4633 114.962 53.0433 114.673 52.502C114.393 51.9513 114.253 51.3167 114.253 50.598C114.253 49.8887 114.388 49.254 114.659 48.694C114.939 48.1247 115.331 47.6813 115.835 47.364C116.348 47.0467 116.946 46.888 117.627 46.888C118.644 46.888 119.428 47.1913 119.979 47.798C120.53 48.3953 120.805 49.2213 120.805 50.276V50.402C120.796 50.5513 120.749 50.668 120.665 50.752C120.581 50.836 120.46 50.878 120.301 50.878H115.709C115.765 51.494 115.966 51.998 116.311 52.39C116.666 52.7727 117.16 52.964 117.795 52.964C118.14 52.964 118.444 52.9127 118.705 52.81C118.966 52.698 119.26 52.5067 119.587 52.236ZM117.599 48.064C117.086 48.064 116.67 48.218 116.353 48.526C116.045 48.8247 115.844 49.2493 115.751 49.8H119.349C119.312 49.2587 119.144 48.834 118.845 48.526C118.546 48.218 118.131 48.064 117.599 48.064ZM127.05 44.536C127.05 44.3773 127.092 44.256 127.176 44.172C127.269 44.088 127.391 44.046 127.54 44.046H128.044C128.203 44.046 128.324 44.088 128.408 44.172C128.492 44.256 128.534 44.3773 128.534 44.536V53.51C128.534 53.6593 128.492 53.7807 128.408 53.874C128.324 53.958 128.203 54 128.044 54H127.638C127.489 54 127.367 53.958 127.274 53.874C127.19 53.7807 127.148 53.6593 127.148 53.51V53.02C126.663 53.804 125.902 54.196 124.866 54.196C124.287 54.196 123.765 54.0467 123.298 53.748C122.841 53.4493 122.481 53.0247 122.22 52.474C121.959 51.9233 121.828 51.284 121.828 50.556C121.828 49.8373 121.959 49.2027 122.22 48.652C122.491 48.1013 122.859 47.6767 123.326 47.378C123.793 47.0793 124.315 46.93 124.894 46.93C125.846 46.93 126.565 47.2613 127.05 47.924V44.536ZM125.174 52.922C125.743 52.922 126.21 52.712 126.574 52.292C126.938 51.8627 127.12 51.284 127.12 50.556C127.12 49.828 126.938 49.254 126.574 48.834C126.21 48.414 125.743 48.204 125.174 48.204C124.623 48.204 124.18 48.4187 123.844 48.848C123.508 49.2773 123.34 49.8467 123.34 50.556C123.34 51.2747 123.503 51.8487 123.83 52.278C124.166 52.7073 124.614 52.922 125.174 52.922ZM136.427 54.21C135.746 54.21 135.144 54.0607 134.621 53.762C134.108 53.4633 133.706 53.0387 133.417 52.488C133.137 51.928 132.997 51.2793 132.997 50.542C132.997 49.8047 133.142 49.1607 133.431 48.61C133.72 48.0593 134.126 47.6347 134.649 47.336C135.172 47.0373 135.774 46.888 136.455 46.888C136.95 46.888 137.393 46.9627 137.785 47.112C138.186 47.252 138.569 47.4947 138.933 47.84C139.045 47.952 139.101 48.0687 139.101 48.19C139.101 48.302 139.04 48.4187 138.919 48.54L138.681 48.778C138.578 48.8807 138.466 48.932 138.345 48.932C138.224 48.932 138.098 48.876 137.967 48.764C137.696 48.5307 137.44 48.372 137.197 48.288C136.964 48.1947 136.712 48.148 136.441 48.148C135.825 48.148 135.349 48.3767 135.013 48.834C134.677 49.2913 134.509 49.8607 134.509 50.542C134.509 51.2233 134.677 51.7973 135.013 52.264C135.349 52.7213 135.825 52.95 136.441 52.95C136.74 52.95 137.015 52.894 137.267 52.782C137.519 52.6607 137.79 52.46 138.079 52.18C138.2 52.0587 138.326 51.998 138.457 51.998C138.569 51.998 138.676 52.0447 138.779 52.138L139.017 52.334C139.138 52.4367 139.199 52.5533 139.199 52.684C139.199 52.824 139.129 52.9733 138.989 53.132C138.606 53.524 138.21 53.804 137.799 53.972C137.398 54.1307 136.94 54.21 136.427 54.21ZM143.401 54.21C142.72 54.21 142.113 54.056 141.581 53.748C141.059 53.44 140.648 53.0107 140.349 52.46C140.051 51.9 139.901 51.2607 139.901 50.542C139.901 49.8233 140.051 49.1887 140.349 48.638C140.648 48.0873 141.059 47.658 141.581 47.35C142.113 47.042 142.72 46.888 143.401 46.888C144.073 46.888 144.675 47.042 145.207 47.35C145.739 47.658 146.155 48.092 146.453 48.652C146.752 49.2027 146.901 49.8327 146.901 50.542C146.901 51.2607 146.752 51.9 146.453 52.46C146.155 53.0107 145.739 53.44 145.207 53.748C144.675 54.056 144.073 54.21 143.401 54.21ZM143.401 52.964C143.999 52.964 144.479 52.7447 144.843 52.306C145.207 51.858 145.389 51.27 145.389 50.542C145.389 49.8233 145.207 49.2447 144.843 48.806C144.479 48.3673 143.999 48.148 143.401 48.148C142.804 48.148 142.323 48.3673 141.959 48.806C141.595 49.2447 141.413 49.8233 141.413 50.542C141.413 51.27 141.595 51.858 141.959 52.306C142.323 52.7447 142.804 52.964 143.401 52.964ZM151.723 46.888C152.517 46.888 153.123 47.112 153.543 47.56C153.973 47.9987 154.187 48.568 154.187 49.268V53.51C154.187 53.6593 154.145 53.7807 154.061 53.874C153.977 53.958 153.856 54 153.697 54H153.193C153.044 54 152.923 53.958 152.829 53.874C152.745 53.7807 152.703 53.6593 152.703 53.51V49.73C152.703 49.226 152.577 48.8387 152.325 48.568C152.083 48.2973 151.733 48.162 151.275 48.162C150.827 48.162 150.449 48.316 150.141 48.624C149.843 48.932 149.693 49.3193 149.693 49.786V53.51C149.693 53.6593 149.651 53.7807 149.567 53.874C149.483 53.958 149.362 54 149.203 54H148.699C148.55 54 148.429 53.958 148.335 53.874C148.251 53.7807 148.209 53.6593 148.209 53.51V47.588C148.209 47.4293 148.251 47.308 148.335 47.224C148.429 47.14 148.55 47.098 148.699 47.098H149.105C149.264 47.098 149.385 47.14 149.469 47.224C149.553 47.308 149.595 47.4293 149.595 47.588V47.952C149.819 47.6067 150.113 47.3453 150.477 47.168C150.841 46.9813 151.257 46.888 151.723 46.888ZM159.075 52.824C159.103 52.8147 159.145 52.81 159.201 52.81C159.434 52.81 159.574 52.9453 159.621 53.216L159.663 53.44C159.672 53.468 159.677 53.5147 159.677 53.58C159.677 53.8133 159.546 53.9627 159.285 54.028C158.911 54.112 158.571 54.154 158.263 54.154C157.6 54.154 157.119 54 156.821 53.692C156.531 53.384 156.387 52.922 156.387 52.306V48.232H155.617C155.467 48.232 155.346 48.19 155.253 48.106C155.169 48.0127 155.127 47.8913 155.127 47.742V47.588C155.127 47.4293 155.169 47.308 155.253 47.224C155.346 47.14 155.467 47.098 155.617 47.098H156.387V45.362C156.387 45.2033 156.429 45.082 156.513 44.998C156.606 44.914 156.727 44.872 156.877 44.872H157.381C157.539 44.872 157.661 44.914 157.745 44.998C157.829 45.082 157.871 45.2033 157.871 45.362V47.098H159.131C159.289 47.098 159.411 47.14 159.495 47.224C159.579 47.308 159.621 47.4293 159.621 47.588V47.742C159.621 47.8913 159.579 48.0127 159.495 48.106C159.411 48.19 159.289 48.232 159.131 48.232H157.871V52.124C157.871 52.3947 157.927 52.586 158.039 52.698C158.16 52.81 158.351 52.866 158.613 52.866C158.725 52.866 158.879 52.852 159.075 52.824ZM163.768 46.888C164.701 46.888 165.42 47.1073 165.924 47.546C166.428 47.9753 166.68 48.5493 166.68 49.268V53.51C166.68 53.6593 166.638 53.7807 166.554 53.874C166.47 53.958 166.349 54 166.19 54H165.826C165.677 54 165.555 53.958 165.462 53.874C165.378 53.7807 165.336 53.6593 165.336 53.51V53.202C165.112 53.5287 164.804 53.7807 164.412 53.958C164.02 54.1353 163.563 54.224 163.04 54.224C162.321 54.224 161.729 54.0653 161.262 53.748C160.805 53.4213 160.576 52.9313 160.576 52.278C160.576 51.55 160.847 51.0133 161.388 50.668C161.939 50.3133 162.699 50.0473 163.67 49.87L165.252 49.576V49.324C165.252 48.9413 165.117 48.6473 164.846 48.442C164.585 48.2273 164.235 48.12 163.796 48.12C163.423 48.12 163.096 48.1853 162.816 48.316C162.545 48.4373 162.251 48.6427 161.934 48.932C161.813 49.0347 161.696 49.086 161.584 49.086C161.472 49.086 161.355 49.0347 161.234 48.932L161.01 48.736C160.889 48.624 160.828 48.5027 160.828 48.372C160.828 48.2507 160.884 48.134 160.996 48.022C161.397 47.6393 161.822 47.3547 162.27 47.168C162.718 46.9813 163.217 46.888 163.768 46.888ZM163.25 53.034C163.81 53.034 164.281 52.8847 164.664 52.586C165.056 52.2873 165.252 51.858 165.252 51.298V50.654L164.034 50.906C163.353 51.046 162.849 51.2047 162.522 51.382C162.195 51.5593 162.032 51.83 162.032 52.194C162.032 52.4553 162.139 52.6607 162.354 52.81C162.569 52.9593 162.867 53.034 163.25 53.034ZM171.413 54.21C170.732 54.21 170.13 54.0607 169.607 53.762C169.094 53.4633 168.693 53.0387 168.403 52.488C168.123 51.928 167.983 51.2793 167.983 50.542C167.983 49.8047 168.128 49.1607 168.417 48.61C168.707 48.0593 169.113 47.6347 169.635 47.336C170.158 47.0373 170.76 46.888 171.441 46.888C171.936 46.888 172.379 46.9627 172.771 47.112C173.173 47.252 173.555 47.4947 173.919 47.84C174.031 47.952 174.087 48.0687 174.087 48.19C174.087 48.302 174.027 48.4187 173.905 48.54L173.667 48.778C173.565 48.8807 173.453 48.932 173.331 48.932C173.21 48.932 173.084 48.876 172.953 48.764C172.683 48.5307 172.426 48.372 172.183 48.288C171.95 48.1947 171.698 48.148 171.427 48.148C170.811 48.148 170.335 48.3767 169.999 48.834C169.663 49.2913 169.495 49.8607 169.495 50.542C169.495 51.2233 169.663 51.7973 169.999 52.264C170.335 52.7213 170.811 52.95 171.427 52.95C171.726 52.95 172.001 52.894 172.253 52.782C172.505 52.6607 172.776 52.46 173.065 52.18C173.187 52.0587 173.313 51.998 173.443 51.998C173.555 51.998 173.663 52.0447 173.765 52.138L174.003 52.334C174.125 52.4367 174.185 52.5533 174.185 52.684C174.185 52.824 174.115 52.9733 173.975 53.132C173.593 53.524 173.196 53.804 172.785 53.972C172.384 54.1307 171.927 54.21 171.413 54.21ZM178.803 52.824C178.831 52.8147 178.873 52.81 178.929 52.81C179.163 52.81 179.303 52.9453 179.349 53.216L179.391 53.44C179.401 53.468 179.405 53.5147 179.405 53.58C179.405 53.8133 179.275 53.9627 179.013 54.028C178.64 54.112 178.299 54.154 177.991 54.154C177.329 54.154 176.848 54 176.549 53.692C176.26 53.384 176.115 52.922 176.115 52.306V48.232H175.345C175.196 48.232 175.075 48.19 174.981 48.106C174.897 48.0127 174.855 47.8913 174.855 47.742V47.588C174.855 47.4293 174.897 47.308 174.981 47.224C175.075 47.14 175.196 47.098 175.345 47.098H176.115V45.362C176.115 45.2033 176.157 45.082 176.241 44.998C176.335 44.914 176.456 44.872 176.605 44.872H177.109C177.268 44.872 177.389 44.914 177.473 44.998C177.557 45.082 177.599 45.2033 177.599 45.362V47.098H178.859C179.018 47.098 179.139 47.14 179.223 47.224C179.307 47.308 179.349 47.4293 179.349 47.588V47.742C179.349 47.8913 179.307 48.0127 179.223 48.106C179.139 48.19 179.018 48.232 178.859 48.232H177.599V52.124C177.599 52.3947 177.655 52.586 177.767 52.698C177.889 52.81 178.08 52.866 178.341 52.866C178.453 52.866 178.607 52.852 178.803 52.824ZM191.108 46.888C191.845 46.888 192.414 47.098 192.816 47.518C193.217 47.9287 193.418 48.484 193.418 49.184V53.51C193.418 53.6593 193.376 53.7807 193.292 53.874C193.208 53.958 193.086 54 192.928 54H192.424C192.274 54 192.153 53.958 192.06 53.874C191.976 53.7807 191.934 53.6593 191.934 53.51V49.632C191.934 49.1747 191.831 48.8153 191.626 48.554C191.42 48.2927 191.108 48.162 190.688 48.162C190.258 48.162 189.918 48.3067 189.666 48.596C189.423 48.8853 189.302 49.2587 189.302 49.716V53.51C189.302 53.6593 189.26 53.7807 189.176 53.874C189.092 53.958 188.97 54 188.812 54H188.308C188.158 54 188.037 53.958 187.944 53.874C187.86 53.7807 187.818 53.6593 187.818 53.51V49.632C187.818 49.1747 187.715 48.8153 187.51 48.554C187.314 48.2927 187.006 48.162 186.586 48.162C186.175 48.162 185.844 48.2973 185.592 48.568C185.34 48.8387 185.204 49.1887 185.186 49.618V53.51C185.186 53.6593 185.144 53.7807 185.06 53.874C184.976 53.958 184.854 54 184.696 54H184.192C184.042 54 183.921 53.958 183.828 53.874C183.744 53.7807 183.702 53.6593 183.702 53.51V47.588C183.702 47.4293 183.744 47.308 183.828 47.224C183.921 47.14 184.042 47.098 184.192 47.098H184.598C184.756 47.098 184.878 47.14 184.962 47.224C185.046 47.308 185.088 47.4293 185.088 47.588V47.896C185.517 47.224 186.18 46.888 187.076 46.888C187.524 46.888 187.916 46.9813 188.252 47.168C188.588 47.3547 188.844 47.616 189.022 47.952C189.498 47.2427 190.193 46.888 191.108 46.888ZM200.06 52.236C200.181 52.1333 200.298 52.082 200.41 52.082C200.522 52.082 200.638 52.1427 200.76 52.264L200.956 52.474C201.058 52.5953 201.11 52.712 201.11 52.824C201.11 52.9453 201.049 53.062 200.928 53.174C200.498 53.5473 200.069 53.8133 199.64 53.972C199.22 54.1307 198.753 54.21 198.24 54.21C197.521 54.21 196.896 54.0607 196.364 53.762C195.841 53.4633 195.435 53.0433 195.146 52.502C194.866 51.9513 194.726 51.3167 194.726 50.598C194.726 49.8887 194.861 49.254 195.132 48.694C195.412 48.1247 195.804 47.6813 196.308 47.364C196.821 47.0467 197.418 46.888 198.1 46.888C199.117 46.888 199.901 47.1913 200.452 47.798C201.002 48.3953 201.278 49.2213 201.278 50.276V50.402C201.268 50.5513 201.222 50.668 201.138 50.752C201.054 50.836 200.932 50.878 200.774 50.878H196.182C196.238 51.494 196.438 51.998 196.784 52.39C197.138 52.7727 197.633 52.964 198.268 52.964C198.613 52.964 198.916 52.9127 199.178 52.81C199.439 52.698 199.733 52.5067 200.06 52.236ZM198.072 48.064C197.558 48.064 197.143 48.218 196.826 48.526C196.518 48.8247 196.317 49.2493 196.224 49.8H199.822C199.784 49.2587 199.616 48.834 199.318 48.526C199.019 48.218 198.604 48.064 198.072 48.064ZM205.887 52.824C205.915 52.8147 205.957 52.81 206.013 52.81C206.247 52.81 206.387 52.9453 206.433 53.216L206.475 53.44C206.485 53.468 206.489 53.5147 206.489 53.58C206.489 53.8133 206.359 53.9627 206.097 54.028C205.724 54.112 205.383 54.154 205.075 54.154C204.413 54.154 203.932 54 203.633 53.692C203.344 53.384 203.199 52.922 203.199 52.306V48.232H202.429C202.28 48.232 202.159 48.19 202.065 48.106C201.981 48.0127 201.939 47.8913 201.939 47.742V47.588C201.939 47.4293 201.981 47.308 202.065 47.224C202.159 47.14 202.28 47.098 202.429 47.098H203.199V45.362C203.199 45.2033 203.241 45.082 203.325 44.998C203.419 44.914 203.54 44.872 203.689 44.872H204.193C204.352 44.872 204.473 44.914 204.557 44.998C204.641 45.082 204.683 45.2033 204.683 45.362V47.098H205.943C206.102 47.098 206.223 47.14 206.307 47.224C206.391 47.308 206.433 47.4293 206.433 47.588V47.742C206.433 47.8913 206.391 48.0127 206.307 48.106C206.223 48.19 206.102 48.232 205.943 48.232H204.683V52.124C204.683 52.3947 204.739 52.586 204.851 52.698C204.973 52.81 205.164 52.866 205.425 52.866C205.537 52.866 205.691 52.852 205.887 52.824ZM211.169 46.888C211.962 46.888 212.569 47.112 212.989 47.56C213.418 47.9987 213.633 48.568 213.633 49.268V53.51C213.633 53.6593 213.591 53.7807 213.507 53.874C213.423 53.958 213.301 54 213.143 54H212.639C212.489 54 212.368 53.958 212.275 53.874C212.191 53.7807 212.149 53.6593 212.149 53.51V49.73C212.149 49.226 212.023 48.8387 211.771 48.568C211.528 48.2973 211.178 48.162 210.721 48.162C210.273 48.162 209.895 48.316 209.587 48.624C209.288 48.932 209.139 49.3193 209.139 49.786V53.51C209.139 53.6593 209.097 53.7807 209.013 53.874C208.929 53.958 208.807 54 208.649 54H208.145C207.995 54 207.874 53.958 207.781 53.874C207.697 53.7807 207.655 53.6593 207.655 53.51V44.55C207.655 44.3913 207.697 44.27 207.781 44.186C207.874 44.102 207.995 44.06 208.145 44.06H208.649C208.807 44.06 208.929 44.102 209.013 44.186C209.097 44.27 209.139 44.3913 209.139 44.55V47.812C209.363 47.5133 209.647 47.2847 209.993 47.126C210.347 46.9673 210.739 46.888 211.169 46.888ZM218.446 54.21C217.765 54.21 217.158 54.056 216.626 53.748C216.104 53.44 215.693 53.0107 215.394 52.46C215.096 51.9 214.946 51.2607 214.946 50.542C214.946 49.8233 215.096 49.1887 215.394 48.638C215.693 48.0873 216.104 47.658 216.626 47.35C217.158 47.042 217.765 46.888 218.446 46.888C219.118 46.888 219.72 47.042 220.252 47.35C220.784 47.658 221.2 48.092 221.498 48.652C221.797 49.2027 221.946 49.8327 221.946 50.542C221.946 51.2607 221.797 51.9 221.498 52.46C221.2 53.0107 220.784 53.44 220.252 53.748C219.72 54.056 219.118 54.21 218.446 54.21ZM218.446 52.964C219.044 52.964 219.524 52.7447 219.888 52.306C220.252 51.858 220.434 51.27 220.434 50.542C220.434 49.8233 220.252 49.2447 219.888 48.806C219.524 48.3673 219.044 48.148 218.446 48.148C217.849 48.148 217.368 48.3673 217.004 48.806C216.64 49.2447 216.458 49.8233 216.458 50.542C216.458 51.27 216.64 51.858 217.004 52.306C217.368 52.7447 217.849 52.964 218.446 52.964ZM228.194 44.536C228.194 44.3773 228.236 44.256 228.32 44.172C228.414 44.088 228.535 44.046 228.684 44.046H229.188C229.347 44.046 229.468 44.088 229.552 44.172C229.636 44.256 229.678 44.3773 229.678 44.536V53.51C229.678 53.6593 229.636 53.7807 229.552 53.874C229.468 53.958 229.347 54 229.188 54H228.782C228.633 54 228.512 53.958 228.418 53.874C228.334 53.7807 228.292 53.6593 228.292 53.51V53.02C227.807 53.804 227.046 54.196 226.01 54.196C225.432 54.196 224.909 54.0467 224.442 53.748C223.985 53.4493 223.626 53.0247 223.364 52.474C223.103 51.9233 222.972 51.284 222.972 50.556C222.972 49.8373 223.103 49.2027 223.364 48.652C223.635 48.1013 224.004 47.6767 224.47 47.378C224.937 47.0793 225.46 46.93 226.038 46.93C226.99 46.93 227.709 47.2613 228.194 47.924V44.536ZM226.318 52.922C226.888 52.922 227.354 52.712 227.718 52.292C228.082 51.8627 228.264 51.284 228.264 50.556C228.264 49.828 228.082 49.254 227.718 48.834C227.354 48.414 226.888 48.204 226.318 48.204C225.768 48.204 225.324 48.4187 224.988 48.848C224.652 49.2773 224.484 49.8467 224.484 50.556C224.484 51.2747 224.648 51.8487 224.974 52.278C225.31 52.7073 225.758 52.922 226.318 52.922Z" fill="#D91F0A"/>
<rect x="70.5" y="62.5" width="203" height="47" rx="3.5" fill="white"/>
<path d="M83.136 91.24C82.2933 91.24 81.5307 91.112 80.848 90.856C80.176 90.5893 79.4667 90.1573 78.72 89.56C78.624 89.4747 78.576 89.3947 78.576 89.32C78.576 89.256 78.608 89.1867 78.672 89.112L78.928 88.808C78.9813 88.7227 79.0613 88.68 79.168 88.68C79.2533 88.68 79.3227 88.7067 79.376 88.76C80.1333 89.3467 80.7947 89.7467 81.36 89.96C81.9253 90.1627 82.5173 90.264 83.136 90.264C84 90.264 84.704 90.0507 85.248 89.624C85.792 89.1867 86.064 88.5947 86.064 87.848C86.064 87.368 85.936 86.984 85.68 86.696C85.424 86.408 85.072 86.184 84.624 86.024C84.1867 85.864 83.5627 85.6933 82.752 85.512C81.7813 85.2987 81.024 85.0693 80.48 84.824C79.9467 84.5787 79.5573 84.2693 79.312 83.896C79.0667 83.5227 78.944 83.0427 78.944 82.456C78.944 81.8373 79.12 81.2987 79.472 80.84C79.8347 80.3707 80.3147 80.0133 80.912 79.768C81.5093 79.5227 82.1547 79.4 82.848 79.4C83.6053 79.4 84.2933 79.512 84.912 79.736C85.5413 79.96 86.16 80.3173 86.768 80.808C86.864 80.872 86.912 80.9467 86.912 81.032C86.912 81.096 86.88 81.1707 86.816 81.256L86.576 81.544C86.5227 81.6293 86.4427 81.672 86.336 81.672C86.2507 81.672 86.176 81.6453 86.112 81.592C85.568 81.144 85.04 80.8293 84.528 80.648C84.0267 80.4667 83.472 80.376 82.864 80.376C82.3093 80.376 81.8187 80.4667 81.392 80.648C80.9653 80.8187 80.6293 81.0587 80.384 81.368C80.1493 81.6773 80.032 82.0293 80.032 82.424C80.032 82.8507 80.1493 83.192 80.384 83.448C80.6293 83.704 80.9653 83.9067 81.392 84.056C81.8293 84.2053 82.464 84.376 83.296 84.568C84.256 84.792 85.0133 85.0427 85.568 85.32C86.1333 85.5973 86.544 85.9387 86.8 86.344C87.056 86.7387 87.184 87.2293 87.184 87.816C87.184 88.4987 87.008 89.1013 86.656 89.624C86.3147 90.136 85.8347 90.536 85.216 90.824C84.5973 91.1013 83.904 91.24 83.136 91.24ZM94.8968 89.128C94.9714 89.0533 95.0514 89.016 95.1368 89.016C95.2114 89.016 95.2808 89.048 95.3448 89.112L95.5528 89.304C95.6274 89.3787 95.6648 89.4587 95.6648 89.544C95.6648 89.608 95.6328 89.6827 95.5688 89.768C95.0461 90.2907 94.5394 90.664 94.0488 90.888C93.5581 91.1013 93.0088 91.208 92.4008 91.208C91.6328 91.208 90.9661 91.0373 90.4008 90.696C89.8354 90.3547 89.3981 89.88 89.0888 89.272C88.7794 88.6533 88.6248 87.9387 88.6248 87.128C88.6248 86.3067 88.7741 85.5813 89.0728 84.952C89.3821 84.312 89.8141 83.816 90.3688 83.464C90.9234 83.1013 91.5634 82.92 92.2888 82.92C93.3661 82.92 94.2141 83.256 94.8328 83.928C95.4514 84.6 95.7608 85.5067 95.7608 86.648V86.84C95.7501 86.936 95.7128 87.0107 95.6488 87.064C95.5954 87.1173 95.5208 87.144 95.4248 87.144H89.6968C89.7288 88.04 89.9634 88.7973 90.4008 89.416C90.8488 90.024 91.5154 90.328 92.4008 90.328C92.8808 90.328 93.3021 90.2427 93.6648 90.072C94.0381 89.8907 94.4488 89.576 94.8968 89.128ZM92.2888 83.8C91.5848 83.8 91.0034 84.0187 90.5448 84.456C90.0968 84.8827 89.8248 85.512 89.7288 86.344H94.7048C94.6834 85.5653 94.4594 84.9467 94.0328 84.488C93.6061 84.0293 93.0248 83.8 92.2888 83.8ZM97.9888 91C97.7754 91 97.6688 90.8933 97.6688 90.68V79.96C97.6688 79.7467 97.7754 79.64 97.9888 79.64H98.4048C98.6181 79.64 98.7248 79.7467 98.7248 79.96V90.68C98.7248 90.8933 98.6181 91 98.4048 91H97.9888ZM106.85 89.128C106.925 89.0533 107.005 89.016 107.09 89.016C107.165 89.016 107.234 89.048 107.298 89.112L107.506 89.304C107.581 89.3787 107.618 89.4587 107.618 89.544C107.618 89.608 107.586 89.6827 107.522 89.768C106.999 90.2907 106.493 90.664 106.002 90.888C105.511 91.1013 104.962 91.208 104.354 91.208C103.586 91.208 102.919 91.0373 102.354 90.696C101.789 90.3547 101.351 89.88 101.042 89.272C100.733 88.6533 100.578 87.9387 100.578 87.128C100.578 86.3067 100.727 85.5813 101.026 84.952C101.335 84.312 101.767 83.816 102.322 83.464C102.877 83.1013 103.517 82.92 104.242 82.92C105.319 82.92 106.167 83.256 106.786 83.928C107.405 84.6 107.714 85.5067 107.714 86.648V86.84C107.703 86.936 107.666 87.0107 107.602 87.064C107.549 87.1173 107.474 87.144 107.378 87.144H101.65C101.682 88.04 101.917 88.7973 102.354 89.416C102.802 90.024 103.469 90.328 104.354 90.328C104.834 90.328 105.255 90.2427 105.618 90.072C105.991 89.8907 106.402 89.576 106.85 89.128ZM104.242 83.8C103.538 83.8 102.957 84.0187 102.498 84.456C102.05 84.8827 101.778 85.512 101.682 86.344H106.658C106.637 85.5653 106.413 84.9467 105.986 84.488C105.559 84.0293 104.978 83.8 104.242 83.8ZM112.822 91.208C112.064 91.208 111.403 91.0373 110.838 90.696C110.283 90.344 109.851 89.8587 109.542 89.24C109.243 88.6107 109.094 87.8853 109.094 87.064C109.094 86.2533 109.243 85.5333 109.542 84.904C109.851 84.2747 110.283 83.7893 110.838 83.448C111.403 83.096 112.054 82.92 112.79 82.92C113.387 82.92 113.91 83.0213 114.358 83.224C114.806 83.416 115.238 83.736 115.654 84.184C115.718 84.248 115.75 84.3173 115.75 84.392C115.75 84.488 115.707 84.568 115.622 84.632L115.398 84.84C115.334 84.904 115.259 84.936 115.174 84.936C115.099 84.936 115.019 84.8933 114.934 84.808C114.56 84.4347 114.203 84.1733 113.862 84.024C113.531 83.8747 113.163 83.8 112.758 83.8C112.203 83.8 111.728 83.9547 111.334 84.264C110.95 84.5733 110.662 84.9787 110.47 85.48C110.278 85.9707 110.182 86.4987 110.182 87.064C110.182 87.6293 110.278 88.1627 110.47 88.664C110.662 89.1547 110.955 89.5547 111.35 89.864C111.744 90.1627 112.23 90.312 112.806 90.312C113.232 90.312 113.606 90.2373 113.926 90.088C114.256 89.928 114.624 89.6293 115.03 89.192C115.115 89.1067 115.195 89.064 115.27 89.064C115.355 89.064 115.43 89.096 115.494 89.16L115.718 89.336C115.792 89.4 115.83 89.4747 115.83 89.56C115.83 89.6453 115.782 89.7467 115.686 89.864C115.238 90.3547 114.79 90.7013 114.342 90.904C113.894 91.1067 113.387 91.208 112.822 91.208ZM121.142 90.12C121.174 90.1093 121.217 90.104 121.27 90.104C121.334 90.104 121.393 90.1253 121.446 90.168C121.5 90.2107 121.532 90.2693 121.542 90.344L121.59 90.568C121.601 90.5893 121.606 90.6267 121.606 90.68C121.606 90.8293 121.526 90.92 121.366 90.952C120.982 91.0693 120.572 91.128 120.134 91.128C119.441 91.128 118.945 90.9733 118.646 90.664C118.358 90.344 118.214 89.8853 118.214 89.288V83.912H117.03C116.817 83.912 116.71 83.8053 116.71 83.592V83.432C116.71 83.2187 116.817 83.112 117.03 83.112H118.214V80.68C118.214 80.4667 118.321 80.36 118.534 80.36H118.95C119.164 80.36 119.27 80.4667 119.27 80.68V83.112H121.19C121.404 83.112 121.51 83.2187 121.51 83.432V83.592C121.51 83.8053 121.404 83.912 121.19 83.912H119.27V89.16C119.27 89.5547 119.345 89.832 119.494 89.992C119.644 90.152 119.9 90.232 120.262 90.232C120.518 90.232 120.812 90.1947 121.142 90.12ZM130.009 91.208C129.252 91.208 128.59 91.0373 128.025 90.696C127.47 90.344 127.038 89.8587 126.729 89.24C126.43 88.6107 126.281 87.8853 126.281 87.064C126.281 86.2533 126.43 85.5333 126.729 84.904C127.038 84.2747 127.47 83.7893 128.025 83.448C128.59 83.096 129.241 82.92 129.977 82.92C130.574 82.92 131.097 83.0213 131.545 83.224C131.993 83.416 132.425 83.736 132.841 84.184C132.905 84.248 132.937 84.3173 132.937 84.392C132.937 84.488 132.894 84.568 132.809 84.632L132.585 84.84C132.521 84.904 132.446 84.936 132.361 84.936C132.286 84.936 132.206 84.8933 132.121 84.808C131.748 84.4347 131.39 84.1733 131.049 84.024C130.718 83.8747 130.35 83.8 129.945 83.8C129.39 83.8 128.916 83.9547 128.521 84.264C128.137 84.5733 127.849 84.9787 127.657 85.48C127.465 85.9707 127.369 86.4987 127.369 87.064C127.369 87.6293 127.465 88.1627 127.657 88.664C127.849 89.1547 128.142 89.5547 128.537 89.864C128.932 90.1627 129.417 90.312 129.993 90.312C130.42 90.312 130.793 90.2373 131.113 90.088C131.444 89.928 131.812 89.6293 132.217 89.192C132.302 89.1067 132.382 89.064 132.457 89.064C132.542 89.064 132.617 89.096 132.681 89.16L132.905 89.336C132.98 89.4 133.017 89.4747 133.017 89.56C133.017 89.6453 132.969 89.7467 132.873 89.864C132.425 90.3547 131.977 90.7013 131.529 90.904C131.081 91.1067 130.574 91.208 130.009 91.208ZM137.839 91.208C137.103 91.208 136.447 91.032 135.871 90.68C135.295 90.328 134.847 89.8427 134.527 89.224C134.207 88.5947 134.047 87.8747 134.047 87.064C134.047 86.2533 134.207 85.5387 134.527 84.92C134.847 84.2907 135.295 83.8 135.871 83.448C136.447 83.096 137.103 82.92 137.839 82.92C138.575 82.92 139.231 83.096 139.807 83.448C140.383 83.8 140.831 84.2907 141.151 84.92C141.471 85.5387 141.631 86.2533 141.631 87.064C141.631 87.8747 141.471 88.5947 141.151 89.224C140.831 89.8427 140.383 90.328 139.807 90.68C139.231 91.032 138.575 91.208 137.839 91.208ZM137.839 90.328C138.66 90.328 139.316 90.0293 139.807 89.432C140.297 88.824 140.543 88.0347 140.543 87.064C140.543 86.0933 140.297 85.3093 139.807 84.712C139.316 84.104 138.66 83.8 137.839 83.8C137.017 83.8 136.361 84.104 135.871 84.712C135.38 85.3093 135.135 86.0933 135.135 87.064C135.135 88.0347 135.38 88.824 135.871 89.432C136.361 90.0293 137.017 90.328 137.839 90.328ZM146.985 82.92C147.913 82.92 148.612 83.176 149.081 83.688C149.561 84.2 149.801 84.84 149.801 85.608V90.68C149.801 90.8933 149.695 91 149.481 91H149.065C148.852 91 148.745 90.8933 148.745 90.68V85.96C148.745 85.256 148.575 84.7227 148.233 84.36C147.892 83.9973 147.401 83.816 146.761 83.816C146.356 83.816 145.983 83.9173 145.641 84.12C145.3 84.312 145.028 84.5787 144.825 84.92C144.623 85.2613 144.521 85.6347 144.521 86.04V90.68C144.521 90.8933 144.415 91 144.201 91H143.785C143.572 91 143.465 90.8933 143.465 90.68V83.432C143.465 83.2187 143.572 83.112 143.785 83.112H144.137C144.351 83.112 144.457 83.2187 144.457 83.432V84.2C144.724 83.7733 145.076 83.4533 145.513 83.24C145.951 83.0267 146.441 82.92 146.985 82.92ZM155.47 90.12C155.502 90.1093 155.545 90.104 155.598 90.104C155.662 90.104 155.721 90.1253 155.774 90.168C155.828 90.2107 155.86 90.2693 155.87 90.344L155.918 90.568C155.929 90.5893 155.934 90.6267 155.934 90.68C155.934 90.8293 155.854 90.92 155.694 90.952C155.31 91.0693 154.9 91.128 154.462 91.128C153.769 91.128 153.273 90.9733 152.974 90.664C152.686 90.344 152.542 89.8853 152.542 89.288V83.912H151.358C151.145 83.912 151.038 83.8053 151.038 83.592V83.432C151.038 83.2187 151.145 83.112 151.358 83.112H152.542V80.68C152.542 80.4667 152.649 80.36 152.862 80.36H153.278C153.492 80.36 153.598 80.4667 153.598 80.68V83.112H155.518C155.732 83.112 155.838 83.2187 155.838 83.432V83.592C155.838 83.8053 155.732 83.912 155.518 83.912H153.598V89.16C153.598 89.5547 153.673 89.832 153.822 89.992C153.972 90.152 154.228 90.232 154.59 90.232C154.846 90.232 155.14 90.1947 155.47 90.12ZM160.505 82.92C161.476 82.92 162.233 83.1547 162.777 83.624C163.321 84.0827 163.593 84.6907 163.593 85.448V90.68C163.593 90.8933 163.487 91 163.273 91H162.953C162.74 91 162.633 90.8933 162.633 90.68V89.96C162.367 90.3867 161.988 90.7067 161.497 90.92C161.017 91.1333 160.479 91.24 159.881 91.24C159.049 91.24 158.372 91.064 157.849 90.712C157.327 90.36 157.065 89.816 157.065 89.08C157.065 88.4933 157.231 88.024 157.561 87.672C157.892 87.3093 158.324 87.0373 158.857 86.856C159.391 86.664 160.057 86.4933 160.857 86.344L162.585 86.04V85.528C162.585 84.984 162.399 84.5627 162.025 84.264C161.652 83.9547 161.161 83.8 160.553 83.8C160.095 83.8 159.679 83.8853 159.305 84.056C158.932 84.2267 158.532 84.52 158.105 84.936C158.031 85.0107 157.951 85.048 157.865 85.048C157.791 85.048 157.721 85.016 157.657 84.952L157.449 84.76C157.375 84.6853 157.337 84.6053 157.337 84.52C157.337 84.424 157.375 84.3387 157.449 84.264C157.897 83.7947 158.367 83.4533 158.857 83.24C159.359 83.0267 159.908 82.92 160.505 82.92ZM159.929 90.36C160.697 90.36 161.332 90.1573 161.833 89.752C162.335 89.3467 162.585 88.8293 162.585 88.2V86.856L161.097 87.144C160.404 87.2827 159.855 87.416 159.449 87.544C159.044 87.672 158.719 87.8587 158.473 88.104C158.228 88.3493 158.105 88.6693 158.105 89.064C158.105 89.4693 158.265 89.7893 158.585 90.024C158.916 90.248 159.364 90.36 159.929 90.36ZM169.134 91.208C168.377 91.208 167.715 91.0373 167.15 90.696C166.595 90.344 166.163 89.8587 165.854 89.24C165.555 88.6107 165.406 87.8853 165.406 87.064C165.406 86.2533 165.555 85.5333 165.854 84.904C166.163 84.2747 166.595 83.7893 167.15 83.448C167.715 83.096 168.366 82.92 169.102 82.92C169.699 82.92 170.222 83.0213 170.67 83.224C171.118 83.416 171.55 83.736 171.966 84.184C172.03 84.248 172.062 84.3173 172.062 84.392C172.062 84.488 172.019 84.568 171.934 84.632L171.71 84.84C171.646 84.904 171.571 84.936 171.486 84.936C171.411 84.936 171.331 84.8933 171.246 84.808C170.873 84.4347 170.515 84.1733 170.174 84.024C169.843 83.8747 169.475 83.8 169.07 83.8C168.515 83.8 168.041 83.9547 167.646 84.264C167.262 84.5733 166.974 84.9787 166.782 85.48C166.59 85.9707 166.494 86.4987 166.494 87.064C166.494 87.6293 166.59 88.1627 166.782 88.664C166.974 89.1547 167.267 89.5547 167.662 89.864C168.057 90.1627 168.542 90.312 169.118 90.312C169.545 90.312 169.918 90.2373 170.238 90.088C170.569 89.928 170.937 89.6293 171.342 89.192C171.427 89.1067 171.507 89.064 171.582 89.064C171.667 89.064 171.742 89.096 171.806 89.16L172.03 89.336C172.105 89.4 172.142 89.4747 172.142 89.56C172.142 89.6453 172.094 89.7467 171.998 89.864C171.55 90.3547 171.102 90.7013 170.654 90.904C170.206 91.1067 169.699 91.208 169.134 91.208ZM177.455 90.12C177.487 90.1093 177.529 90.104 177.583 90.104C177.647 90.104 177.705 90.1253 177.759 90.168C177.812 90.2107 177.844 90.2693 177.855 90.344L177.903 90.568C177.913 90.5893 177.919 90.6267 177.919 90.68C177.919 90.8293 177.839 90.92 177.679 90.952C177.295 91.0693 176.884 91.128 176.447 91.128C175.753 91.128 175.257 90.9733 174.959 90.664C174.671 90.344 174.527 89.8853 174.527 89.288V83.912H173.343C173.129 83.912 173.023 83.8053 173.023 83.592V83.432C173.023 83.2187 173.129 83.112 173.343 83.112H174.527V80.68C174.527 80.4667 174.633 80.36 174.847 80.36H175.263C175.476 80.36 175.583 80.4667 175.583 80.68V83.112H177.503C177.716 83.112 177.823 83.2187 177.823 83.432V83.592C177.823 83.8053 177.716 83.912 177.503 83.912H175.583V89.16C175.583 89.5547 175.657 89.832 175.807 89.992C175.956 90.152 176.212 90.232 176.575 90.232C176.831 90.232 177.124 90.1947 177.455 90.12ZM191.138 82.92C191.991 82.92 192.642 83.1653 193.09 83.656C193.548 84.136 193.778 84.7547 193.778 85.512V90.68C193.778 90.8933 193.671 91 193.458 91H193.042C192.828 91 192.722 90.8933 192.722 90.68V85.8C192.722 85.16 192.572 84.6693 192.274 84.328C191.986 83.9867 191.554 83.816 190.977 83.816C190.37 83.816 189.884 84.0187 189.522 84.424C189.159 84.8293 188.978 85.352 188.978 85.992V90.68C188.978 90.8933 188.871 91 188.658 91H188.242C188.028 91 187.922 90.8933 187.922 90.68V85.8C187.922 85.16 187.772 84.6693 187.474 84.328C187.186 83.9867 186.748 83.816 186.161 83.816C185.618 83.816 185.164 83.9867 184.802 84.328C184.45 84.6693 184.242 85.1173 184.178 85.672V90.68C184.178 90.8933 184.071 91 183.858 91H183.442C183.228 91 183.122 90.8933 183.122 90.68V83.432C183.122 83.2187 183.228 83.112 183.442 83.112H183.794C184.007 83.112 184.114 83.2187 184.114 83.432V84.088C184.594 83.3093 185.356 82.92 186.402 82.92C186.946 82.92 187.41 83.0427 187.794 83.288C188.188 83.5227 188.482 83.8427 188.674 84.248C189.239 83.3627 190.06 82.92 191.138 82.92ZM201.85 89.128C201.925 89.0533 202.005 89.016 202.09 89.016C202.165 89.016 202.234 89.048 202.298 89.112L202.506 89.304C202.581 89.3787 202.618 89.4587 202.618 89.544C202.618 89.608 202.586 89.6827 202.522 89.768C201.999 90.2907 201.493 90.664 201.002 90.888C200.511 91.1013 199.962 91.208 199.354 91.208C198.586 91.208 197.919 91.0373 197.354 90.696C196.789 90.3547 196.351 89.88 196.042 89.272C195.733 88.6533 195.578 87.9387 195.578 87.128C195.578 86.3067 195.727 85.5813 196.026 84.952C196.335 84.312 196.767 83.816 197.322 83.464C197.877 83.1013 198.517 82.92 199.242 82.92C200.319 82.92 201.167 83.256 201.786 83.928C202.405 84.6 202.714 85.5067 202.714 86.648V86.84C202.703 86.936 202.666 87.0107 202.602 87.064C202.549 87.1173 202.474 87.144 202.378 87.144H196.65C196.682 88.04 196.917 88.7973 197.354 89.416C197.802 90.024 198.469 90.328 199.354 90.328C199.834 90.328 200.255 90.2427 200.618 90.072C200.991 89.8907 201.402 89.576 201.85 89.128ZM199.242 83.8C198.538 83.8 197.957 84.0187 197.498 84.456C197.05 84.8827 196.778 85.512 196.682 86.344H201.658C201.637 85.5653 201.413 84.9467 200.986 84.488C200.559 84.0293 199.978 83.8 199.242 83.8ZM208.08 90.12C208.112 90.1093 208.154 90.104 208.208 90.104C208.272 90.104 208.33 90.1253 208.384 90.168C208.437 90.2107 208.469 90.2693 208.48 90.344L208.528 90.568C208.538 90.5893 208.544 90.6267 208.544 90.68C208.544 90.8293 208.464 90.92 208.304 90.952C207.92 91.0693 207.509 91.128 207.072 91.128C206.378 91.128 205.882 90.9733 205.584 90.664C205.296 90.344 205.152 89.8853 205.152 89.288V83.912H203.968C203.754 83.912 203.648 83.8053 203.648 83.592V83.432C203.648 83.2187 203.754 83.112 203.968 83.112H205.152V80.68C205.152 80.4667 205.258 80.36 205.472 80.36H205.888C206.101 80.36 206.208 80.4667 206.208 80.68V83.112H208.128C208.341 83.112 208.448 83.2187 208.448 83.432V83.592C208.448 83.8053 208.341 83.912 208.128 83.912H206.208V89.16C206.208 89.5547 206.282 89.832 206.432 89.992C206.581 90.152 206.837 90.232 207.2 90.232C207.456 90.232 207.749 90.1947 208.08 90.12ZM213.579 82.92C214.496 82.92 215.195 83.1813 215.675 83.704C216.155 84.216 216.395 84.8507 216.395 85.608V90.68C216.395 90.8933 216.288 91 216.075 91H215.659C215.446 91 215.339 90.8933 215.339 90.68V85.96C215.339 85.256 215.168 84.7227 214.827 84.36C214.486 83.9973 213.995 83.816 213.355 83.816C212.95 83.816 212.576 83.9173 212.235 84.12C211.894 84.312 211.622 84.5787 211.419 84.92C211.216 85.2613 211.115 85.6347 211.115 86.04V90.68C211.115 90.8933 211.008 91 210.795 91H210.379C210.166 91 210.059 90.8933 210.059 90.68V79.96C210.059 79.7467 210.166 79.64 210.379 79.64H210.795C211.008 79.64 211.115 79.7467 211.115 79.96V84.136C211.371 83.7307 211.712 83.4267 212.139 83.224C212.576 83.0213 213.056 82.92 213.579 82.92ZM221.995 91.208C221.259 91.208 220.603 91.032 220.027 90.68C219.451 90.328 219.003 89.8427 218.683 89.224C218.363 88.5947 218.203 87.8747 218.203 87.064C218.203 86.2533 218.363 85.5387 218.683 84.92C219.003 84.2907 219.451 83.8 220.027 83.448C220.603 83.096 221.259 82.92 221.995 82.92C222.731 82.92 223.387 83.096 223.963 83.448C224.539 83.8 224.987 84.2907 225.307 84.92C225.627 85.5387 225.787 86.2533 225.787 87.064C225.787 87.8747 225.627 88.5947 225.307 89.224C224.987 89.8427 224.539 90.328 223.963 90.68C223.387 91.032 222.731 91.208 221.995 91.208ZM221.995 90.328C222.816 90.328 223.472 90.0293 223.963 89.432C224.454 88.824 224.699 88.0347 224.699 87.064C224.699 86.0933 224.454 85.3093 223.963 84.712C223.472 84.104 222.816 83.8 221.995 83.8C221.174 83.8 220.518 84.104 220.027 84.712C219.536 85.3093 219.291 86.0933 219.291 87.064C219.291 88.0347 219.536 88.824 220.027 89.432C220.518 90.0293 221.174 90.328 221.995 90.328ZM233.411 79.96C233.411 79.7467 233.518 79.64 233.731 79.64H234.147C234.361 79.64 234.467 79.7467 234.467 79.96V90.68C234.467 90.8933 234.361 91 234.147 91H233.811C233.598 91 233.491 90.8933 233.491 90.68V89.64C233.203 90.1413 232.825 90.5253 232.355 90.792C231.886 91.0587 231.331 91.192 230.691 91.192C230.019 91.192 229.422 91.0213 228.899 90.68C228.377 90.328 227.966 89.8427 227.667 89.224C227.369 88.5947 227.219 87.8747 227.219 87.064C227.219 86.2533 227.369 85.5387 227.667 84.92C227.977 84.2907 228.398 83.8053 228.931 83.464C229.465 83.112 230.062 82.936 230.723 82.936C231.939 82.936 232.835 83.3893 233.411 84.296V79.96ZM230.771 90.296C231.571 90.296 232.217 90.0133 232.707 89.448C233.209 88.872 233.459 88.0773 233.459 87.064C233.459 86.0613 233.209 85.272 232.707 84.696C232.217 84.12 231.571 83.832 230.771 83.832C230.035 83.832 229.438 84.1307 228.979 84.728C228.531 85.3253 228.307 86.104 228.307 87.064C228.307 88.0347 228.531 88.8187 228.979 89.416C229.427 90.0027 230.025 90.296 230.771 90.296Z" fill="#767676"/>
<path d="M252.5 83.5L258 89L263.5 83.5" stroke="#464646" stroke-width="1.5" stroke-linecap="round" stroke-linejoin="round"/>
<rect x="70.5" y="62.5" width="203" height="47" rx="3.5" stroke="#D91F0A"/>
<path d="M71.356 126C71.196 126 71.116 125.92 71.116 125.76V117.72C71.116 117.56 71.196 117.48 71.356 117.48H71.728C71.888 117.48 71.968 117.56 71.968 117.72V125.76C71.968 125.92 71.888 126 71.728 126H71.356ZM76.61 119.94C77.306 119.94 77.83 120.132 78.182 120.516C78.542 120.9 78.722 121.38 78.722 121.956V125.76C78.722 125.92 78.642 126 78.482 126H78.17C78.01 126 77.93 125.92 77.93 125.76V122.22C77.93 121.692 77.802 121.292 77.546 121.02C77.29 120.748 76.922 120.612 76.442 120.612C76.138 120.612 75.858 120.688 75.602 120.84C75.346 120.984 75.142 121.184 74.99 121.44C74.838 121.696 74.762 121.976 74.762 122.28V125.76C74.762 125.92 74.682 126 74.522 126H74.21C74.05 126 73.97 125.92 73.97 125.76V120.324C73.97 120.164 74.05 120.084 74.21 120.084H74.474C74.634 120.084 74.714 120.164 74.714 120.324V120.9C74.914 120.58 75.178 120.34 75.506 120.18C75.834 120.02 76.202 119.94 76.61 119.94ZM83.993 120.276C84.041 120.148 84.133 120.084 84.269 120.084H84.581C84.645 120.084 84.697 120.1 84.737 120.132C84.777 120.164 84.797 120.208 84.797 120.264L84.773 120.36L82.865 125.808C82.817 125.936 82.725 126 82.589 126H81.953C81.817 126 81.725 125.936 81.677 125.808L79.781 120.36L79.757 120.264C79.757 120.208 79.777 120.164 79.817 120.132C79.857 120.1 79.909 120.084 79.973 120.084H80.297C80.433 120.084 80.525 120.148 80.573 120.276L81.305 122.388C81.609 123.268 81.933 124.28 82.277 125.424C82.293 125.376 82.337 125.24 82.409 125.016C82.737 123.936 83.021 123.06 83.261 122.388L83.993 120.276ZM88.1914 119.94C88.9194 119.94 89.4874 120.116 89.8954 120.468C90.3034 120.812 90.5074 121.268 90.5074 121.836V125.76C90.5074 125.92 90.4274 126 90.2674 126H90.0274C89.8674 126 89.7874 125.92 89.7874 125.76V125.22C89.5874 125.54 89.3034 125.78 88.9354 125.94C88.5754 126.1 88.1714 126.18 87.7234 126.18C87.0994 126.18 86.5914 126.048 86.1994 125.784C85.8074 125.52 85.6114 125.112 85.6114 124.56C85.6114 124.12 85.7354 123.768 85.9834 123.504C86.2314 123.232 86.5554 123.028 86.9554 122.892C87.3554 122.748 87.8554 122.62 88.4554 122.508L89.7514 122.28V121.896C89.7514 121.488 89.6114 121.172 89.3314 120.948C89.0514 120.716 88.6834 120.6 88.2274 120.6C87.8834 120.6 87.5714 120.664 87.2914 120.792C87.0114 120.92 86.7114 121.14 86.3914 121.452C86.3354 121.508 86.2754 121.536 86.2114 121.536C86.1554 121.536 86.1034 121.512 86.0554 121.464L85.8994 121.32C85.8434 121.264 85.8154 121.204 85.8154 121.14C85.8154 121.068 85.8434 121.004 85.8994 120.948C86.2354 120.596 86.5874 120.34 86.9554 120.18C87.3314 120.02 87.7434 119.94 88.1914 119.94ZM87.7594 125.52C88.3354 125.52 88.8114 125.368 89.1874 125.064C89.5634 124.76 89.7514 124.372 89.7514 123.9V122.892L88.6354 123.108C88.1154 123.212 87.7034 123.312 87.3994 123.408C87.0954 123.504 86.8514 123.644 86.6674 123.828C86.4834 124.012 86.3914 124.252 86.3914 124.548C86.3914 124.852 86.5114 125.092 86.7514 125.268C86.9994 125.436 87.3354 125.52 87.7594 125.52ZM92.515 126C92.355 126 92.275 125.92 92.275 125.76V117.72C92.275 117.56 92.355 117.48 92.515 117.48H92.827C92.987 117.48 93.067 117.56 93.067 117.72V125.76C93.067 125.92 92.987 126 92.827 126H92.515ZM95.2488 118.584C95.0888 118.584 94.9528 118.528 94.8408 118.416C94.7368 118.304 94.6848 118.168 94.6848 118.008C94.6848 117.848 94.7368 117.716 94.8408 117.612C94.9528 117.508 95.0888 117.456 95.2488 117.456C95.4168 117.456 95.5528 117.508 95.6568 117.612C95.7688 117.716 95.8248 117.848 95.8248 118.008C95.8248 118.168 95.7688 118.304 95.6568 118.416C95.5528 118.528 95.4168 118.584 95.2488 118.584ZM95.0928 126C94.9328 126 94.8528 125.92 94.8528 125.76V120.324C94.8528 120.164 94.9328 120.084 95.0928 120.084H95.4048C95.5648 120.084 95.6448 120.164 95.6448 120.324V125.76C95.6448 125.92 95.5648 126 95.4048 126H95.0928ZM101.68 117.72C101.68 117.56 101.76 117.48 101.92 117.48H102.232C102.392 117.48 102.472 117.56 102.472 117.72V125.76C102.472 125.92 102.392 126 102.232 126H101.98C101.82 126 101.74 125.92 101.74 125.76V124.98C101.524 125.356 101.24 125.644 100.888 125.844C100.536 126.044 100.12 126.144 99.6395 126.144C99.1355 126.144 98.6875 126.016 98.2955 125.76C97.9035 125.496 97.5955 125.132 97.3715 124.668C97.1475 124.196 97.0355 123.656 97.0355 123.048C97.0355 122.44 97.1475 121.904 97.3715 121.44C97.6035 120.968 97.9195 120.604 98.3195 120.348C98.7195 120.084 99.1675 119.952 99.6635 119.952C100.576 119.952 101.248 120.292 101.68 120.972V117.72ZM99.6995 125.472C100.3 125.472 100.784 125.26 101.152 124.836C101.528 124.404 101.716 123.808 101.716 123.048C101.716 122.296 101.528 121.704 101.152 121.272C100.784 120.84 100.3 120.624 99.6995 120.624C99.1475 120.624 98.6995 120.848 98.3555 121.296C98.0195 121.744 97.8515 122.328 97.8515 123.048C97.8515 123.776 98.0195 124.364 98.3555 124.812C98.6915 125.252 99.1395 125.472 99.6995 125.472ZM109.273 117.996C108.913 117.996 108.657 118.092 108.505 118.284C108.353 118.468 108.277 118.78 108.277 119.22V120.084H109.597C109.757 120.084 109.837 120.164 109.837 120.324V120.444C109.837 120.604 109.757 120.684 109.597 120.684H108.277V125.76C108.277 125.92 108.197 126 108.037 126H107.725C107.565 126 107.485 125.92 107.485 125.76V120.684H106.597C106.437 120.684 106.357 120.604 106.357 120.444V120.324C106.357 120.164 106.437 120.084 106.597 120.084H107.485V119.088C107.485 118.536 107.629 118.104 107.917 117.792C108.213 117.48 108.633 117.324 109.177 117.324C109.481 117.324 109.793 117.368 110.113 117.456C110.265 117.504 110.321 117.604 110.281 117.756L110.233 117.924C110.193 118.036 110.113 118.092 109.993 118.092C109.969 118.092 109.917 118.084 109.837 118.068C109.661 118.02 109.473 117.996 109.273 117.996ZM111.397 118.584C111.237 118.584 111.101 118.528 110.989 118.416C110.885 118.304 110.833 118.168 110.833 118.008C110.833 117.848 110.885 117.716 110.989 117.612C111.101 117.508 111.237 117.456 111.397 117.456C111.565 117.456 111.701 117.508 111.805 117.612C111.917 117.716 111.973 117.848 111.973 118.008C111.973 118.168 111.917 118.304 111.805 118.416C111.701 118.528 111.565 118.584 111.397 118.584ZM111.241 126C111.081 126 111.001 125.92 111.001 125.76V120.324C111.001 120.164 111.081 120.084 111.241 120.084H111.553C111.713 120.084 111.793 120.164 111.793 120.324V125.76C111.793 125.92 111.713 126 111.553 126H111.241ZM117.864 124.596C117.92 124.54 117.98 124.512 118.044 124.512C118.1 124.512 118.152 124.536 118.2 124.584L118.356 124.728C118.412 124.784 118.44 124.844 118.44 124.908C118.44 124.956 118.416 125.012 118.368 125.076C117.976 125.468 117.596 125.748 117.228 125.916C116.86 126.076 116.448 126.156 115.992 126.156C115.416 126.156 114.916 126.028 114.492 125.772C114.068 125.516 113.74 125.16 113.508 124.704C113.276 124.24 113.16 123.704 113.16 123.096C113.16 122.48 113.272 121.936 113.496 121.464C113.728 120.984 114.052 120.612 114.468 120.348C114.884 120.076 115.364 119.94 115.908 119.94C116.716 119.94 117.352 120.192 117.816 120.696C118.28 121.2 118.512 121.88 118.512 122.736V122.88C118.504 122.952 118.476 123.008 118.428 123.048C118.388 123.088 118.332 123.108 118.26 123.108H113.964C113.988 123.78 114.164 124.348 114.492 124.812C114.828 125.268 115.328 125.496 115.992 125.496C116.352 125.496 116.668 125.432 116.94 125.304C117.22 125.168 117.528 124.932 117.864 124.596ZM115.908 120.6C115.38 120.6 114.944 120.764 114.6 121.092C114.264 121.412 114.06 121.884 113.988 122.508H117.72C117.704 121.924 117.536 121.46 117.216 121.116C116.896 120.772 116.46 120.6 115.908 120.6ZM120.183 126C120.023 126 119.943 125.92 119.943 125.76V117.72C119.943 117.56 120.023 117.48 120.183 117.48H120.495C120.655 117.48 120.735 117.56 120.735 117.72V125.76C120.735 125.92 120.655 126 120.495 126H120.183ZM126.793 117.72C126.793 117.56 126.873 117.48 127.033 117.48H127.345C127.505 117.48 127.585 117.56 127.585 117.72V125.76C127.585 125.92 127.505 126 127.345 126H127.093C126.933 126 126.853 125.92 126.853 125.76V124.98C126.637 125.356 126.353 125.644 126.001 125.844C125.649 126.044 125.233 126.144 124.753 126.144C124.249 126.144 123.801 126.016 123.409 125.76C123.017 125.496 122.709 125.132 122.485 124.668C122.261 124.196 122.149 123.656 122.149 123.048C122.149 122.44 122.261 121.904 122.485 121.44C122.717 120.968 123.033 120.604 123.433 120.348C123.833 120.084 124.281 119.952 124.777 119.952C125.689 119.952 126.361 120.292 126.793 120.972V117.72ZM124.813 125.472C125.413 125.472 125.897 125.26 126.265 124.836C126.641 124.404 126.829 123.808 126.829 123.048C126.829 122.296 126.641 121.704 126.265 121.272C125.897 120.84 125.413 120.624 124.813 120.624C124.261 120.624 123.813 120.848 123.469 121.296C123.133 121.744 122.965 122.328 122.965 123.048C122.965 123.776 123.133 124.364 123.469 124.812C123.805 125.252 124.253 125.472 124.813 125.472Z" fill="#D91F0A"/>
</svg>
