<svg width="344" height="260" viewBox="0 0 344 260" fill="none" xmlns="http://www.w3.org/2000/svg">
<rect width="344" height="260" fill="#F5F5F5"/>
<path d="M75.348 54.224C74.3587 54.224 73.5 54 72.772 53.552C72.0533 53.104 71.498 52.488 71.106 51.704C70.7233 50.9107 70.532 50.0147 70.532 49.016C70.532 48.0173 70.7233 47.1307 71.106 46.356C71.4887 45.572 72.044 44.956 72.772 44.508C73.5 44.06 74.3727 43.836 75.39 43.836C76.006 43.836 76.566 43.9247 77.07 44.102C77.574 44.27 78.0827 44.5547 78.596 44.956C78.736 45.068 78.806 45.194 78.806 45.334C78.806 45.4273 78.7593 45.5347 78.666 45.656L78.358 46.02C78.246 46.1507 78.1293 46.216 78.008 46.216C77.9147 46.216 77.798 46.1693 77.658 46.076C77.238 45.7493 76.8507 45.5253 76.496 45.404C76.1507 45.2827 75.7773 45.222 75.376 45.222C74.7227 45.222 74.1533 45.3807 73.668 45.698C73.1827 46.0153 72.8093 46.4633 72.548 47.042C72.2867 47.6113 72.156 48.2693 72.156 49.016C72.156 49.7627 72.2867 50.4253 72.548 51.004C72.8093 51.5827 73.178 52.0353 73.654 52.362C74.13 52.6793 74.6853 52.838 75.32 52.838C75.796 52.838 76.2207 52.754 76.594 52.586C76.9673 52.418 77.3733 52.1473 77.812 51.774C77.9333 51.6713 78.05 51.62 78.162 51.62C78.2833 51.62 78.4 51.6853 78.512 51.816L78.82 52.166C78.9133 52.2687 78.96 52.376 78.96 52.488C78.96 52.6467 78.8853 52.7867 78.736 52.908C78.1947 53.3747 77.658 53.7107 77.126 53.916C76.6033 54.1213 76.0107 54.224 75.348 54.224ZM83.3956 54.21C82.7143 54.21 82.1076 54.056 81.5756 53.748C81.0529 53.44 80.6423 53.0107 80.3436 52.46C80.0449 51.9 79.8956 51.2607 79.8956 50.542C79.8956 49.8233 80.0449 49.1887 80.3436 48.638C80.6423 48.0873 81.0529 47.658 81.5756 47.35C82.1076 47.042 82.7143 46.888 83.3956 46.888C84.0676 46.888 84.6696 47.042 85.2016 47.35C85.7336 47.658 86.1489 48.092 86.4476 48.652C86.7463 49.2027 86.8956 49.8327 86.8956 50.542C86.8956 51.2607 86.7463 51.9 86.4476 52.46C86.1489 53.0107 85.7336 53.44 85.2016 53.748C84.6696 54.056 84.0676 54.21 83.3956 54.21ZM83.3956 52.964C83.9929 52.964 84.4736 52.7447 84.8376 52.306C85.2016 51.858 85.3836 51.27 85.3836 50.542C85.3836 49.8233 85.2016 49.2447 84.8376 48.806C84.4736 48.3673 83.9929 48.148 83.3956 48.148C82.7983 48.148 82.3176 48.3673 81.9536 48.806C81.5896 49.2447 81.4076 49.8233 81.4076 50.542C81.4076 51.27 81.5896 51.858 81.9536 52.306C82.3176 52.7447 82.7983 52.964 83.3956 52.964ZM92.5856 47.588C92.5856 47.4293 92.6276 47.308 92.7116 47.224C92.8049 47.14 92.9263 47.098 93.0756 47.098H93.5796C93.7383 47.098 93.8596 47.14 93.9436 47.224C94.0276 47.308 94.0696 47.4293 94.0696 47.588V53.51C94.0696 53.6593 94.0276 53.7807 93.9436 53.874C93.8596 53.958 93.7383 54 93.5796 54H93.2016C93.0523 54 92.9309 53.958 92.8376 53.874C92.7536 53.7807 92.7116 53.6593 92.7116 53.51V53.188C92.5249 53.5053 92.2543 53.7573 91.8996 53.944C91.5449 54.1213 91.1249 54.21 90.6396 54.21C89.8183 54.21 89.2069 54.0093 88.8056 53.608C88.4043 53.1973 88.2036 52.656 88.2036 51.984V47.588C88.2036 47.4293 88.2456 47.308 88.3296 47.224C88.4229 47.14 88.5443 47.098 88.6936 47.098H89.1976C89.3563 47.098 89.4776 47.14 89.5616 47.224C89.6456 47.308 89.6876 47.4293 89.6876 47.588V51.592C89.6876 52.0213 89.7949 52.3527 90.0096 52.586C90.2336 52.81 90.5556 52.922 90.9756 52.922C91.4609 52.922 91.8483 52.782 92.1376 52.502C92.4363 52.222 92.5856 51.816 92.5856 51.284V47.588ZM99.2918 46.888C100.085 46.888 100.692 47.112 101.112 47.56C101.541 47.9987 101.756 48.568 101.756 49.268V53.51C101.756 53.6593 101.714 53.7807 101.63 53.874C101.546 53.958 101.424 54 101.266 54H100.762C100.612 54 100.491 53.958 100.398 53.874C100.314 53.7807 100.272 53.6593 100.272 53.51V49.73C100.272 49.226 100.146 48.8387 99.8938 48.568C99.6512 48.2973 99.3012 48.162 98.8438 48.162C98.3958 48.162 98.0178 48.316 97.7098 48.624C97.4112 48.932 97.2618 49.3193 97.2618 49.786V53.51C97.2618 53.6593 97.2198 53.7807 97.1358 53.874C97.0518 53.958 96.9305 54 96.7718 54H96.2678C96.1185 54 95.9972 53.958 95.9038 53.874C95.8198 53.7807 95.7778 53.6593 95.7778 53.51V47.588C95.7778 47.4293 95.8198 47.308 95.9038 47.224C95.9972 47.14 96.1185 47.098 96.2678 47.098H96.6738C96.8325 47.098 96.9538 47.14 97.0378 47.224C97.1218 47.308 97.1638 47.4293 97.1638 47.588V47.952C97.3878 47.6067 97.6818 47.3453 98.0458 47.168C98.4098 46.9813 98.8252 46.888 99.2918 46.888ZM106.643 52.824C106.671 52.8147 106.713 52.81 106.769 52.81C107.002 52.81 107.142 52.9453 107.189 53.216L107.231 53.44C107.24 53.468 107.245 53.5147 107.245 53.58C107.245 53.8133 107.114 53.9627 106.853 54.028C106.48 54.112 106.139 54.154 105.831 54.154C105.168 54.154 104.688 54 104.389 53.692C104.1 53.384 103.955 52.922 103.955 52.306V48.232H103.185C103.036 48.232 102.914 48.19 102.821 48.106C102.737 48.0127 102.695 47.8913 102.695 47.742V47.588C102.695 47.4293 102.737 47.308 102.821 47.224C102.914 47.14 103.036 47.098 103.185 47.098H103.955V45.362C103.955 45.2033 103.997 45.082 104.081 44.998C104.174 44.914 104.296 44.872 104.445 44.872H104.949C105.108 44.872 105.229 44.914 105.313 44.998C105.397 45.082 105.439 45.2033 105.439 45.362V47.098H106.699C106.858 47.098 106.979 47.14 107.063 47.224C107.147 47.308 107.189 47.4293 107.189 47.588V47.742C107.189 47.8913 107.147 48.0127 107.063 48.106C106.979 48.19 106.858 48.232 106.699 48.232H105.439V52.124C105.439 52.3947 105.495 52.586 105.607 52.698C105.728 52.81 105.92 52.866 106.181 52.866C106.293 52.866 106.447 52.852 106.643 52.824ZM111.519 47.028C111.724 47.028 111.934 47.0513 112.149 47.098C112.401 47.154 112.527 47.3033 112.527 47.546C112.527 47.6113 112.522 47.658 112.513 47.686L112.443 48.022C112.387 48.2833 112.247 48.414 112.023 48.414L111.897 48.4C111.729 48.372 111.579 48.358 111.449 48.358C110.982 48.358 110.604 48.5447 110.315 48.918C110.035 49.282 109.895 49.7907 109.895 50.444V53.51C109.895 53.6593 109.853 53.7807 109.769 53.874C109.685 53.958 109.563 54 109.405 54H108.901C108.751 54 108.63 53.958 108.537 53.874C108.453 53.7807 108.411 53.6593 108.411 53.51V47.588C108.411 47.4293 108.453 47.308 108.537 47.224C108.63 47.14 108.751 47.098 108.901 47.098H109.307C109.465 47.098 109.587 47.14 109.671 47.224C109.755 47.308 109.797 47.4293 109.797 47.588V48.134C109.965 47.7887 110.193 47.518 110.483 47.322C110.772 47.126 111.117 47.028 111.519 47.028ZM118.107 47.504C118.191 47.2333 118.373 47.098 118.653 47.098H119.157C119.297 47.098 119.405 47.1307 119.479 47.196C119.554 47.2613 119.591 47.35 119.591 47.462C119.591 47.518 119.577 47.5833 119.549 47.658L117.043 54.854C116.819 55.5073 116.539 55.9693 116.203 56.24C115.877 56.52 115.41 56.66 114.803 56.66C114.523 56.66 114.285 56.6413 114.089 56.604C113.959 56.5947 113.861 56.548 113.795 56.464C113.73 56.3893 113.697 56.296 113.697 56.184C113.697 56.1187 113.702 56.0673 113.711 56.03L113.753 55.848C113.819 55.5867 113.959 55.456 114.173 55.456C114.257 55.456 114.337 55.4607 114.411 55.47C114.486 55.4793 114.561 55.484 114.635 55.484C114.906 55.484 115.13 55.414 115.307 55.274C115.494 55.134 115.648 54.8773 115.769 54.504L115.811 54.392L113.417 47.658C113.389 47.5833 113.375 47.5133 113.375 47.448C113.375 47.336 113.413 47.252 113.487 47.196C113.571 47.1307 113.683 47.098 113.823 47.098H114.355C114.645 47.098 114.831 47.2333 114.915 47.504L115.461 49.142C115.872 50.318 116.222 51.396 116.511 52.376L116.917 51.13C116.983 50.934 117.081 50.626 117.211 50.206C117.342 49.786 117.459 49.4267 117.561 49.128L118.107 47.504Z" fill="#464646"/>
<rect x="70.5" y="62.5" width="202" height="47" rx="3.5" fill="white"/>
<path d="M83.136 91.24C82.2933 91.24 81.5307 91.112 80.848 90.856C80.176 90.5893 79.4667 90.1573 78.72 89.56C78.624 89.4747 78.576 89.3947 78.576 89.32C78.576 89.256 78.608 89.1867 78.672 89.112L78.928 88.808C78.9813 88.7227 79.0613 88.68 79.168 88.68C79.2533 88.68 79.3227 88.7067 79.376 88.76C80.1333 89.3467 80.7947 89.7467 81.36 89.96C81.9253 90.1627 82.5173 90.264 83.136 90.264C84 90.264 84.704 90.0507 85.248 89.624C85.792 89.1867 86.064 88.5947 86.064 87.848C86.064 87.368 85.936 86.984 85.68 86.696C85.424 86.408 85.072 86.184 84.624 86.024C84.1867 85.864 83.5627 85.6933 82.752 85.512C81.7813 85.2987 81.024 85.0693 80.48 84.824C79.9467 84.5787 79.5573 84.2693 79.312 83.896C79.0667 83.5227 78.944 83.0427 78.944 82.456C78.944 81.8373 79.12 81.2987 79.472 80.84C79.8347 80.3707 80.3147 80.0133 80.912 79.768C81.5093 79.5227 82.1547 79.4 82.848 79.4C83.6053 79.4 84.2933 79.512 84.912 79.736C85.5413 79.96 86.16 80.3173 86.768 80.808C86.864 80.872 86.912 80.9467 86.912 81.032C86.912 81.096 86.88 81.1707 86.816 81.256L86.576 81.544C86.5227 81.6293 86.4427 81.672 86.336 81.672C86.2507 81.672 86.176 81.6453 86.112 81.592C85.568 81.144 85.04 80.8293 84.528 80.648C84.0267 80.4667 83.472 80.376 82.864 80.376C82.3093 80.376 81.8187 80.4667 81.392 80.648C80.9653 80.8187 80.6293 81.0587 80.384 81.368C80.1493 81.6773 80.032 82.0293 80.032 82.424C80.032 82.8507 80.1493 83.192 80.384 83.448C80.6293 83.704 80.9653 83.9067 81.392 84.056C81.8293 84.2053 82.464 84.376 83.296 84.568C84.256 84.792 85.0133 85.0427 85.568 85.32C86.1333 85.5973 86.544 85.9387 86.8 86.344C87.056 86.7387 87.184 87.2293 87.184 87.816C87.184 88.4987 87.008 89.1013 86.656 89.624C86.3147 90.136 85.8347 90.536 85.216 90.824C84.5973 91.1013 83.904 91.24 83.136 91.24ZM94.8968 89.128C94.9714 89.0533 95.0514 89.016 95.1368 89.016C95.2114 89.016 95.2808 89.048 95.3448 89.112L95.5528 89.304C95.6274 89.3787 95.6648 89.4587 95.6648 89.544C95.6648 89.608 95.6328 89.6827 95.5688 89.768C95.0461 90.2907 94.5394 90.664 94.0488 90.888C93.5581 91.1013 93.0088 91.208 92.4008 91.208C91.6328 91.208 90.9661 91.0373 90.4008 90.696C89.8354 90.3547 89.3981 89.88 89.0888 89.272C88.7794 88.6533 88.6248 87.9387 88.6248 87.128C88.6248 86.3067 88.7741 85.5813 89.0728 84.952C89.3821 84.312 89.8141 83.816 90.3688 83.464C90.9234 83.1013 91.5634 82.92 92.2888 82.92C93.3661 82.92 94.2141 83.256 94.8328 83.928C95.4514 84.6 95.7608 85.5067 95.7608 86.648V86.84C95.7501 86.936 95.7128 87.0107 95.6488 87.064C95.5954 87.1173 95.5208 87.144 95.4248 87.144H89.6968C89.7288 88.04 89.9634 88.7973 90.4008 89.416C90.8488 90.024 91.5154 90.328 92.4008 90.328C92.8808 90.328 93.3021 90.2427 93.6648 90.072C94.0381 89.8907 94.4488 89.576 94.8968 89.128ZM92.2888 83.8C91.5848 83.8 91.0034 84.0187 90.5448 84.456C90.0968 84.8827 89.8248 85.512 89.7288 86.344H94.7048C94.6834 85.5653 94.4594 84.9467 94.0328 84.488C93.6061 84.0293 93.0248 83.8 92.2888 83.8ZM97.9888 91C97.7754 91 97.6688 90.8933 97.6688 90.68V79.96C97.6688 79.7467 97.7754 79.64 97.9888 79.64H98.4048C98.6181 79.64 98.7248 79.7467 98.7248 79.96V90.68C98.7248 90.8933 98.6181 91 98.4048 91H97.9888ZM106.85 89.128C106.925 89.0533 107.005 89.016 107.09 89.016C107.165 89.016 107.234 89.048 107.298 89.112L107.506 89.304C107.581 89.3787 107.618 89.4587 107.618 89.544C107.618 89.608 107.586 89.6827 107.522 89.768C106.999 90.2907 106.493 90.664 106.002 90.888C105.511 91.1013 104.962 91.208 104.354 91.208C103.586 91.208 102.919 91.0373 102.354 90.696C101.789 90.3547 101.351 89.88 101.042 89.272C100.733 88.6533 100.578 87.9387 100.578 87.128C100.578 86.3067 100.727 85.5813 101.026 84.952C101.335 84.312 101.767 83.816 102.322 83.464C102.877 83.1013 103.517 82.92 104.242 82.92C105.319 82.92 106.167 83.256 106.786 83.928C107.405 84.6 107.714 85.5067 107.714 86.648V86.84C107.703 86.936 107.666 87.0107 107.602 87.064C107.549 87.1173 107.474 87.144 107.378 87.144H101.65C101.682 88.04 101.917 88.7973 102.354 89.416C102.802 90.024 103.469 90.328 104.354 90.328C104.834 90.328 105.255 90.2427 105.618 90.072C105.991 89.8907 106.402 89.576 106.85 89.128ZM104.242 83.8C103.538 83.8 102.957 84.0187 102.498 84.456C102.05 84.8827 101.778 85.512 101.682 86.344H106.658C106.637 85.5653 106.413 84.9467 105.986 84.488C105.559 84.0293 104.978 83.8 104.242 83.8ZM112.822 91.208C112.064 91.208 111.403 91.0373 110.838 90.696C110.283 90.344 109.851 89.8587 109.542 89.24C109.243 88.6107 109.094 87.8853 109.094 87.064C109.094 86.2533 109.243 85.5333 109.542 84.904C109.851 84.2747 110.283 83.7893 110.838 83.448C111.403 83.096 112.054 82.92 112.79 82.92C113.387 82.92 113.91 83.0213 114.358 83.224C114.806 83.416 115.238 83.736 115.654 84.184C115.718 84.248 115.75 84.3173 115.75 84.392C115.75 84.488 115.707 84.568 115.622 84.632L115.398 84.84C115.334 84.904 115.259 84.936 115.174 84.936C115.099 84.936 115.019 84.8933 114.934 84.808C114.56 84.4347 114.203 84.1733 113.862 84.024C113.531 83.8747 113.163 83.8 112.758 83.8C112.203 83.8 111.728 83.9547 111.334 84.264C110.95 84.5733 110.662 84.9787 110.47 85.48C110.278 85.9707 110.182 86.4987 110.182 87.064C110.182 87.6293 110.278 88.1627 110.47 88.664C110.662 89.1547 110.955 89.5547 111.35 89.864C111.744 90.1627 112.23 90.312 112.806 90.312C113.232 90.312 113.606 90.2373 113.926 90.088C114.256 89.928 114.624 89.6293 115.03 89.192C115.115 89.1067 115.195 89.064 115.27 89.064C115.355 89.064 115.43 89.096 115.494 89.16L115.718 89.336C115.792 89.4 115.83 89.4747 115.83 89.56C115.83 89.6453 115.782 89.7467 115.686 89.864C115.238 90.3547 114.79 90.7013 114.342 90.904C113.894 91.1067 113.387 91.208 112.822 91.208ZM121.142 90.12C121.174 90.1093 121.217 90.104 121.27 90.104C121.334 90.104 121.393 90.1253 121.446 90.168C121.5 90.2107 121.532 90.2693 121.542 90.344L121.59 90.568C121.601 90.5893 121.606 90.6267 121.606 90.68C121.606 90.8293 121.526 90.92 121.366 90.952C120.982 91.0693 120.572 91.128 120.134 91.128C119.441 91.128 118.945 90.9733 118.646 90.664C118.358 90.344 118.214 89.8853 118.214 89.288V83.912H117.03C116.817 83.912 116.71 83.8053 116.71 83.592V83.432C116.71 83.2187 116.817 83.112 117.03 83.112H118.214V80.68C118.214 80.4667 118.321 80.36 118.534 80.36H118.95C119.164 80.36 119.27 80.4667 119.27 80.68V83.112H121.19C121.404 83.112 121.51 83.2187 121.51 83.432V83.592C121.51 83.8053 121.404 83.912 121.19 83.912H119.27V89.16C119.27 89.5547 119.345 89.832 119.494 89.992C119.644 90.152 119.9 90.232 120.262 90.232C120.518 90.232 120.812 90.1947 121.142 90.12ZM129.849 82.92C130.82 82.92 131.577 83.1547 132.121 83.624C132.665 84.0827 132.937 84.6907 132.937 85.448V90.68C132.937 90.8933 132.83 91 132.617 91H132.297C132.084 91 131.977 90.8933 131.977 90.68V89.96C131.71 90.3867 131.332 90.7067 130.841 90.92C130.361 91.1333 129.822 91.24 129.225 91.24C128.393 91.24 127.716 91.064 127.193 90.712C126.67 90.36 126.409 89.816 126.409 89.08C126.409 88.4933 126.574 88.024 126.905 87.672C127.236 87.3093 127.668 87.0373 128.201 86.856C128.734 86.664 129.401 86.4933 130.201 86.344L131.929 86.04V85.528C131.929 84.984 131.742 84.5627 131.369 84.264C130.996 83.9547 130.505 83.8 129.897 83.8C129.438 83.8 129.022 83.8853 128.649 84.056C128.276 84.2267 127.876 84.52 127.449 84.936C127.374 85.0107 127.294 85.048 127.209 85.048C127.134 85.048 127.065 85.016 127.001 84.952L126.793 84.76C126.718 84.6853 126.681 84.6053 126.681 84.52C126.681 84.424 126.718 84.3387 126.793 84.264C127.241 83.7947 127.71 83.4533 128.201 83.24C128.702 83.0267 129.252 82.92 129.849 82.92ZM129.273 90.36C130.041 90.36 130.676 90.1573 131.177 89.752C131.678 89.3467 131.929 88.8293 131.929 88.2V86.856L130.441 87.144C129.748 87.2827 129.198 87.416 128.793 87.544C128.388 87.672 128.062 87.8587 127.817 88.104C127.572 88.3493 127.449 88.6693 127.449 89.064C127.449 89.4693 127.609 89.7893 127.929 90.024C128.26 90.248 128.708 90.36 129.273 90.36ZM142.165 91.208C141.408 91.208 140.747 91.0373 140.181 90.696C139.627 90.344 139.195 89.8587 138.885 89.24C138.587 88.6107 138.437 87.8853 138.437 87.064C138.437 86.2533 138.587 85.5333 138.885 84.904C139.195 84.2747 139.627 83.7893 140.181 83.448C140.747 83.096 141.397 82.92 142.133 82.92C142.731 82.92 143.253 83.0213 143.701 83.224C144.149 83.416 144.581 83.736 144.997 84.184C145.061 84.248 145.093 84.3173 145.093 84.392C145.093 84.488 145.051 84.568 144.965 84.632L144.741 84.84C144.677 84.904 144.603 84.936 144.517 84.936C144.443 84.936 144.363 84.8933 144.277 84.808C143.904 84.4347 143.547 84.1733 143.205 84.024C142.875 83.8747 142.507 83.8 142.101 83.8C141.547 83.8 141.072 83.9547 140.677 84.264C140.293 84.5733 140.005 84.9787 139.813 85.48C139.621 85.9707 139.525 86.4987 139.525 87.064C139.525 87.6293 139.621 88.1627 139.813 88.664C140.005 89.1547 140.299 89.5547 140.693 89.864C141.088 90.1627 141.573 90.312 142.149 90.312C142.576 90.312 142.949 90.2373 143.269 90.088C143.6 89.928 143.968 89.6293 144.373 89.192C144.459 89.1067 144.539 89.064 144.613 89.064C144.699 89.064 144.773 89.096 144.837 89.16L145.061 89.336C145.136 89.4 145.173 89.4747 145.173 89.56C145.173 89.6453 145.125 89.7467 145.029 89.864C144.581 90.3547 144.133 90.7013 143.685 90.904C143.237 91.1067 142.731 91.208 142.165 91.208ZM149.995 91.208C149.259 91.208 148.603 91.032 148.027 90.68C147.451 90.328 147.003 89.8427 146.683 89.224C146.363 88.5947 146.203 87.8747 146.203 87.064C146.203 86.2533 146.363 85.5387 146.683 84.92C147.003 84.2907 147.451 83.8 148.027 83.448C148.603 83.096 149.259 82.92 149.995 82.92C150.731 82.92 151.387 83.096 151.963 83.448C152.539 83.8 152.987 84.2907 153.307 84.92C153.627 85.5387 153.787 86.2533 153.787 87.064C153.787 87.8747 153.627 88.5947 153.307 89.224C152.987 89.8427 152.539 90.328 151.963 90.68C151.387 91.032 150.731 91.208 149.995 91.208ZM149.995 90.328C150.816 90.328 151.472 90.0293 151.963 89.432C152.454 88.824 152.699 88.0347 152.699 87.064C152.699 86.0933 152.454 85.3093 151.963 84.712C151.472 84.104 150.816 83.8 149.995 83.8C149.174 83.8 148.518 84.104 148.027 84.712C147.536 85.3093 147.291 86.0933 147.291 87.064C147.291 88.0347 147.536 88.824 148.027 89.432C148.518 90.0293 149.174 90.328 149.995 90.328ZM160.742 83.432C160.742 83.2187 160.848 83.112 161.062 83.112H161.478C161.691 83.112 161.798 83.2187 161.798 83.432V90.68C161.798 90.8933 161.691 91 161.478 91H161.142C160.928 91 160.822 90.8933 160.822 90.68V89.96C160.587 90.376 160.251 90.6907 159.814 90.904C159.387 91.1067 158.918 91.208 158.406 91.208C157.446 91.208 156.736 90.968 156.278 90.488C155.819 89.9973 155.59 89.368 155.59 88.6V83.432C155.59 83.2187 155.696 83.112 155.91 83.112H156.326C156.539 83.112 156.646 83.2187 156.646 83.432V88.376C156.646 89.0053 156.8 89.4853 157.11 89.816C157.43 90.136 157.883 90.296 158.47 90.296C159.131 90.296 159.675 90.0933 160.102 89.688C160.528 89.2827 160.742 88.7067 160.742 87.96V83.432ZM167.688 82.92C168.616 82.92 169.315 83.176 169.784 83.688C170.264 84.2 170.504 84.84 170.504 85.608V90.68C170.504 90.8933 170.398 91 170.184 91H169.768C169.555 91 169.448 90.8933 169.448 90.68V85.96C169.448 85.256 169.278 84.7227 168.936 84.36C168.595 83.9973 168.104 83.816 167.464 83.816C167.059 83.816 166.686 83.9173 166.344 84.12C166.003 84.312 165.731 84.5787 165.528 84.92C165.326 85.2613 165.224 85.6347 165.224 86.04V90.68C165.224 90.8933 165.118 91 164.904 91H164.488C164.275 91 164.168 90.8933 164.168 90.68V83.432C164.168 83.2187 164.275 83.112 164.488 83.112H164.84C165.054 83.112 165.16 83.2187 165.16 83.432V84.2C165.427 83.7733 165.779 83.4533 166.216 83.24C166.654 83.0267 167.144 82.92 167.688 82.92ZM176.174 90.12C176.206 90.1093 176.248 90.104 176.302 90.104C176.366 90.104 176.424 90.1253 176.478 90.168C176.531 90.2107 176.563 90.2693 176.574 90.344L176.622 90.568C176.632 90.5893 176.638 90.6267 176.638 90.68C176.638 90.8293 176.558 90.92 176.398 90.952C176.014 91.0693 175.603 91.128 175.166 91.128C174.472 91.128 173.976 90.9733 173.678 90.664C173.39 90.344 173.246 89.8853 173.246 89.288V83.912H172.062C171.848 83.912 171.742 83.8053 171.742 83.592V83.432C171.742 83.2187 171.848 83.112 172.062 83.112H173.246V80.68C173.246 80.4667 173.352 80.36 173.566 80.36H173.982C174.195 80.36 174.302 80.4667 174.302 80.68V83.112H176.222C176.435 83.112 176.542 83.2187 176.542 83.432V83.592C176.542 83.8053 176.435 83.912 176.222 83.912H174.302V89.16C174.302 89.5547 174.376 89.832 174.526 89.992C174.675 90.152 174.931 90.232 175.294 90.232C175.55 90.232 175.843 90.1947 176.174 90.12ZM181.097 83.048C181.363 83.048 181.678 83.0907 182.041 83.176C182.233 83.24 182.307 83.3733 182.265 83.576L182.201 83.832C182.147 84.0347 182.014 84.1093 181.801 84.056C181.545 83.992 181.31 83.96 181.097 83.96C180.553 83.96 180.099 84.1947 179.737 84.664C179.385 85.1333 179.209 85.784 179.209 86.616V90.68C179.209 90.8933 179.102 91 178.889 91H178.473C178.259 91 178.153 90.8933 178.153 90.68V83.432C178.153 83.2187 178.259 83.112 178.473 83.112H178.825C179.038 83.112 179.145 83.2187 179.145 83.432V84.312C179.326 83.9173 179.582 83.608 179.913 83.384C180.254 83.16 180.649 83.048 181.097 83.048ZM188.877 83.368C188.941 83.1973 189.064 83.112 189.245 83.112H189.677C189.762 83.112 189.832 83.1333 189.885 83.176C189.938 83.2187 189.965 83.2773 189.965 83.352L189.933 83.48L186.845 92.2C186.674 92.68 186.509 93.0533 186.349 93.32C186.189 93.5867 185.97 93.7893 185.693 93.928C185.426 94.0667 185.074 94.136 184.637 94.136C184.36 94.136 184.114 94.1147 183.901 94.072C183.794 94.0613 183.72 94.0187 183.677 93.944C183.645 93.8693 183.64 93.784 183.661 93.688L183.709 93.48C183.752 93.288 183.874 93.2027 184.077 93.224C184.269 93.256 184.434 93.272 184.573 93.272C184.914 93.272 185.181 93.176 185.373 92.984C185.576 92.792 185.768 92.4293 185.949 91.896L186.093 91.448L183.277 83.48L183.245 83.352C183.245 83.2773 183.272 83.2187 183.325 83.176C183.378 83.1333 183.448 83.112 183.533 83.112H183.997C184.168 83.112 184.285 83.1973 184.349 83.368L185.245 86.008C185.33 86.2747 185.544 86.9093 185.885 87.912L186.605 90.072C186.957 89.08 187.421 87.7147 187.997 85.976L188.877 83.368Z" fill="#767676"/>
<path d="M251.5 83.5L257 89L262.5 83.5" stroke="#464646" stroke-width="1.5" stroke-linecap="round" stroke-linejoin="round"/>
<rect x="70.5" y="62.5" width="202" height="47" rx="3.5" stroke="#C3CCD9"/>
<path d="M75.348 164.224C74.3587 164.224 73.5 164 72.772 163.552C72.0533 163.104 71.498 162.488 71.106 161.704C70.7233 160.911 70.532 160.015 70.532 159.016C70.532 158.017 70.7233 157.131 71.106 156.356C71.4887 155.572 72.044 154.956 72.772 154.508C73.5 154.06 74.3727 153.836 75.39 153.836C76.006 153.836 76.566 153.925 77.07 154.102C77.574 154.27 78.0827 154.555 78.596 154.956C78.736 155.068 78.806 155.194 78.806 155.334C78.806 155.427 78.7593 155.535 78.666 155.656L78.358 156.02C78.246 156.151 78.1293 156.216 78.008 156.216C77.9147 156.216 77.798 156.169 77.658 156.076C77.238 155.749 76.8507 155.525 76.496 155.404C76.1507 155.283 75.7773 155.222 75.376 155.222C74.7227 155.222 74.1533 155.381 73.668 155.698C73.1827 156.015 72.8093 156.463 72.548 157.042C72.2867 157.611 72.156 158.269 72.156 159.016C72.156 159.763 72.2867 160.425 72.548 161.004C72.8093 161.583 73.178 162.035 73.654 162.362C74.13 162.679 74.6853 162.838 75.32 162.838C75.796 162.838 76.2207 162.754 76.594 162.586C76.9673 162.418 77.3733 162.147 77.812 161.774C77.9333 161.671 78.05 161.62 78.162 161.62C78.2833 161.62 78.4 161.685 78.512 161.816L78.82 162.166C78.9133 162.269 78.96 162.376 78.96 162.488C78.96 162.647 78.8853 162.787 78.736 162.908C78.1947 163.375 77.658 163.711 77.126 163.916C76.6033 164.121 76.0107 164.224 75.348 164.224ZM83.3956 164.21C82.7143 164.21 82.1076 164.056 81.5756 163.748C81.0529 163.44 80.6423 163.011 80.3436 162.46C80.0449 161.9 79.8956 161.261 79.8956 160.542C79.8956 159.823 80.0449 159.189 80.3436 158.638C80.6423 158.087 81.0529 157.658 81.5756 157.35C82.1076 157.042 82.7143 156.888 83.3956 156.888C84.0676 156.888 84.6696 157.042 85.2016 157.35C85.7336 157.658 86.1489 158.092 86.4476 158.652C86.7463 159.203 86.8956 159.833 86.8956 160.542C86.8956 161.261 86.7463 161.9 86.4476 162.46C86.1489 163.011 85.7336 163.44 85.2016 163.748C84.6696 164.056 84.0676 164.21 83.3956 164.21ZM83.3956 162.964C83.9929 162.964 84.4736 162.745 84.8376 162.306C85.2016 161.858 85.3836 161.27 85.3836 160.542C85.3836 159.823 85.2016 159.245 84.8376 158.806C84.4736 158.367 83.9929 158.148 83.3956 158.148C82.7983 158.148 82.3176 158.367 81.9536 158.806C81.5896 159.245 81.4076 159.823 81.4076 160.542C81.4076 161.27 81.5896 161.858 81.9536 162.306C82.3176 162.745 82.7983 162.964 83.3956 162.964ZM92.5856 157.588C92.5856 157.429 92.6276 157.308 92.7116 157.224C92.8049 157.14 92.9263 157.098 93.0756 157.098H93.5796C93.7383 157.098 93.8596 157.14 93.9436 157.224C94.0276 157.308 94.0696 157.429 94.0696 157.588V163.51C94.0696 163.659 94.0276 163.781 93.9436 163.874C93.8596 163.958 93.7383 164 93.5796 164H93.2016C93.0523 164 92.9309 163.958 92.8376 163.874C92.7536 163.781 92.7116 163.659 92.7116 163.51V163.188C92.5249 163.505 92.2543 163.757 91.8996 163.944C91.5449 164.121 91.1249 164.21 90.6396 164.21C89.8183 164.21 89.2069 164.009 88.8056 163.608C88.4043 163.197 88.2036 162.656 88.2036 161.984V157.588C88.2036 157.429 88.2456 157.308 88.3296 157.224C88.4229 157.14 88.5443 157.098 88.6936 157.098H89.1976C89.3563 157.098 89.4776 157.14 89.5616 157.224C89.6456 157.308 89.6876 157.429 89.6876 157.588V161.592C89.6876 162.021 89.7949 162.353 90.0096 162.586C90.2336 162.81 90.5556 162.922 90.9756 162.922C91.4609 162.922 91.8483 162.782 92.1376 162.502C92.4363 162.222 92.5856 161.816 92.5856 161.284V157.588ZM99.2918 156.888C100.085 156.888 100.692 157.112 101.112 157.56C101.541 157.999 101.756 158.568 101.756 159.268V163.51C101.756 163.659 101.714 163.781 101.63 163.874C101.546 163.958 101.424 164 101.266 164H100.762C100.612 164 100.491 163.958 100.398 163.874C100.314 163.781 100.272 163.659 100.272 163.51V159.73C100.272 159.226 100.146 158.839 99.8938 158.568C99.6512 158.297 99.3012 158.162 98.8438 158.162C98.3958 158.162 98.0178 158.316 97.7098 158.624C97.4112 158.932 97.2618 159.319 97.2618 159.786V163.51C97.2618 163.659 97.2198 163.781 97.1358 163.874C97.0518 163.958 96.9305 164 96.7718 164H96.2678C96.1185 164 95.9972 163.958 95.9038 163.874C95.8198 163.781 95.7778 163.659 95.7778 163.51V157.588C95.7778 157.429 95.8198 157.308 95.9038 157.224C95.9972 157.14 96.1185 157.098 96.2678 157.098H96.6738C96.8325 157.098 96.9538 157.14 97.0378 157.224C97.1218 157.308 97.1638 157.429 97.1638 157.588V157.952C97.3878 157.607 97.6818 157.345 98.0458 157.168C98.4098 156.981 98.8252 156.888 99.2918 156.888ZM106.643 162.824C106.671 162.815 106.713 162.81 106.769 162.81C107.002 162.81 107.142 162.945 107.189 163.216L107.231 163.44C107.24 163.468 107.245 163.515 107.245 163.58C107.245 163.813 107.114 163.963 106.853 164.028C106.48 164.112 106.139 164.154 105.831 164.154C105.168 164.154 104.688 164 104.389 163.692C104.1 163.384 103.955 162.922 103.955 162.306V158.232H103.185C103.036 158.232 102.914 158.19 102.821 158.106C102.737 158.013 102.695 157.891 102.695 157.742V157.588C102.695 157.429 102.737 157.308 102.821 157.224C102.914 157.14 103.036 157.098 103.185 157.098H103.955V155.362C103.955 155.203 103.997 155.082 104.081 154.998C104.174 154.914 104.296 154.872 104.445 154.872H104.949C105.108 154.872 105.229 154.914 105.313 154.998C105.397 155.082 105.439 155.203 105.439 155.362V157.098H106.699C106.858 157.098 106.979 157.14 107.063 157.224C107.147 157.308 107.189 157.429 107.189 157.588V157.742C107.189 157.891 107.147 158.013 107.063 158.106C106.979 158.19 106.858 158.232 106.699 158.232H105.439V162.124C105.439 162.395 105.495 162.586 105.607 162.698C105.728 162.81 105.92 162.866 106.181 162.866C106.293 162.866 106.447 162.852 106.643 162.824ZM111.519 157.028C111.724 157.028 111.934 157.051 112.149 157.098C112.401 157.154 112.527 157.303 112.527 157.546C112.527 157.611 112.522 157.658 112.513 157.686L112.443 158.022C112.387 158.283 112.247 158.414 112.023 158.414L111.897 158.4C111.729 158.372 111.579 158.358 111.449 158.358C110.982 158.358 110.604 158.545 110.315 158.918C110.035 159.282 109.895 159.791 109.895 160.444V163.51C109.895 163.659 109.853 163.781 109.769 163.874C109.685 163.958 109.563 164 109.405 164H108.901C108.751 164 108.63 163.958 108.537 163.874C108.453 163.781 108.411 163.659 108.411 163.51V157.588C108.411 157.429 108.453 157.308 108.537 157.224C108.63 157.14 108.751 157.098 108.901 157.098H109.307C109.465 157.098 109.587 157.14 109.671 157.224C109.755 157.308 109.797 157.429 109.797 157.588V158.134C109.965 157.789 110.193 157.518 110.483 157.322C110.772 157.126 111.117 157.028 111.519 157.028ZM118.107 157.504C118.191 157.233 118.373 157.098 118.653 157.098H119.157C119.297 157.098 119.405 157.131 119.479 157.196C119.554 157.261 119.591 157.35 119.591 157.462C119.591 157.518 119.577 157.583 119.549 157.658L117.043 164.854C116.819 165.507 116.539 165.969 116.203 166.24C115.877 166.52 115.41 166.66 114.803 166.66C114.523 166.66 114.285 166.641 114.089 166.604C113.959 166.595 113.861 166.548 113.795 166.464C113.73 166.389 113.697 166.296 113.697 166.184C113.697 166.119 113.702 166.067 113.711 166.03L113.753 165.848C113.819 165.587 113.959 165.456 114.173 165.456C114.257 165.456 114.337 165.461 114.411 165.47C114.486 165.479 114.561 165.484 114.635 165.484C114.906 165.484 115.13 165.414 115.307 165.274C115.494 165.134 115.648 164.877 115.769 164.504L115.811 164.392L113.417 157.658C113.389 157.583 113.375 157.513 113.375 157.448C113.375 157.336 113.413 157.252 113.487 157.196C113.571 157.131 113.683 157.098 113.823 157.098H114.355C114.645 157.098 114.831 157.233 114.915 157.504L115.461 159.142C115.872 160.318 116.222 161.396 116.511 162.376L116.917 161.13C116.983 160.934 117.081 160.626 117.211 160.206C117.342 159.786 117.459 159.427 117.561 159.128L118.107 157.504Z" fill="#464646"/>
<rect x="70.5" y="172.5" width="202" height="47" rx="3.5" fill="white"/>
<path d="M87.136 189.96C87.136 189.747 87.2427 189.64 87.456 189.64H87.92C88.1333 189.64 88.24 189.747 88.24 189.96V200.68C88.24 200.893 88.1333 201 87.92 201H87.2C87.0293 201 86.896 200.931 86.8 200.792L83.36 195.576L83.168 195.272C81.888 193.352 80.9707 191.939 80.416 191.032C80.4587 192.28 80.48 193.72 80.48 195.352V200.68C80.48 200.893 80.3733 201 80.16 201H79.696C79.4827 201 79.376 200.893 79.376 200.68V189.96C79.376 189.747 79.4827 189.64 79.696 189.64H80.416C80.5867 189.64 80.72 189.709 80.816 189.848L84.24 195.048L84.848 195.992C85.9253 197.624 86.7093 198.84 87.2 199.64C87.1573 198.371 87.136 196.925 87.136 195.304V189.96ZM94.0574 201.208C93.3214 201.208 92.6654 201.032 92.0894 200.68C91.5134 200.328 91.0654 199.843 90.7454 199.224C90.4254 198.595 90.2654 197.875 90.2654 197.064C90.2654 196.253 90.4254 195.539 90.7454 194.92C91.0654 194.291 91.5134 193.8 92.0894 193.448C92.6654 193.096 93.3214 192.92 94.0574 192.92C94.7934 192.92 95.4494 193.096 96.0254 193.448C96.6014 193.8 97.0494 194.291 97.3694 194.92C97.6894 195.539 97.8494 196.253 97.8494 197.064C97.8494 197.875 97.6894 198.595 97.3694 199.224C97.0494 199.843 96.6014 200.328 96.0254 200.68C95.4494 201.032 94.7934 201.208 94.0574 201.208ZM94.0574 200.328C94.8787 200.328 95.5347 200.029 96.0254 199.432C96.516 198.824 96.7614 198.035 96.7614 197.064C96.7614 196.093 96.516 195.309 96.0254 194.712C95.5347 194.104 94.8787 193.8 94.0574 193.8C93.236 193.8 92.58 194.104 92.0894 194.712C91.5987 195.309 91.3534 196.093 91.3534 197.064C91.3534 198.035 91.5987 198.824 92.0894 199.432C92.58 200.029 93.236 200.328 94.0574 200.328ZM102.628 193.048C102.895 193.048 103.209 193.091 103.572 193.176C103.764 193.24 103.839 193.373 103.796 193.576L103.732 193.832C103.679 194.035 103.545 194.109 103.332 194.056C103.076 193.992 102.841 193.96 102.628 193.96C102.084 193.96 101.631 194.195 101.268 194.664C100.916 195.133 100.74 195.784 100.74 196.616V200.68C100.74 200.893 100.633 201 100.42 201H100.004C99.7907 201 99.684 200.893 99.684 200.68V193.432C99.684 193.219 99.7907 193.112 100.004 193.112H100.356C100.569 193.112 100.676 193.219 100.676 193.432V194.312C100.857 193.917 101.113 193.608 101.444 193.384C101.785 193.16 102.18 193.048 102.628 193.048ZM114.281 193.384C114.324 193.203 114.446 193.112 114.649 193.112H115.081C115.198 193.112 115.278 193.144 115.321 193.208C115.374 193.272 115.385 193.357 115.353 193.464L113.289 200.728C113.246 200.909 113.124 201 112.921 201H112.201C112.02 201 111.902 200.909 111.849 200.728L111.113 198.28C110.729 197 110.372 195.688 110.041 194.344C109.721 195.645 109.369 196.968 108.985 198.312L108.281 200.728C108.238 200.909 108.116 201 107.913 201H107.225C107.022 201 106.9 200.909 106.857 200.728L104.793 193.464C104.782 193.443 104.777 193.405 104.777 193.352C104.777 193.277 104.804 193.219 104.857 193.176C104.91 193.133 104.98 193.112 105.065 193.112H105.497C105.7 193.112 105.822 193.203 105.865 193.384L106.633 196.216C106.985 197.507 107.31 198.792 107.609 200.072C107.844 199.123 108.19 197.837 108.649 196.216L109.465 193.384C109.508 193.203 109.63 193.112 109.833 193.112H110.313C110.505 193.112 110.622 193.203 110.665 193.384L111.497 196.216C111.86 197.528 112.201 198.819 112.521 200.088C112.766 199.021 113.097 197.731 113.513 196.216L114.281 193.384ZM120.005 192.92C120.976 192.92 121.733 193.155 122.277 193.624C122.821 194.083 123.093 194.691 123.093 195.448V200.68C123.093 200.893 122.987 201 122.773 201H122.453C122.24 201 122.133 200.893 122.133 200.68V199.96C121.867 200.387 121.488 200.707 120.997 200.92C120.517 201.133 119.979 201.24 119.381 201.24C118.549 201.24 117.872 201.064 117.349 200.712C116.827 200.36 116.565 199.816 116.565 199.08C116.565 198.493 116.731 198.024 117.061 197.672C117.392 197.309 117.824 197.037 118.357 196.856C118.891 196.664 119.557 196.493 120.357 196.344L122.085 196.04V195.528C122.085 194.984 121.899 194.563 121.525 194.264C121.152 193.955 120.661 193.8 120.053 193.8C119.595 193.8 119.179 193.885 118.805 194.056C118.432 194.227 118.032 194.52 117.605 194.936C117.531 195.011 117.451 195.048 117.365 195.048C117.291 195.048 117.221 195.016 117.157 194.952L116.949 194.76C116.875 194.685 116.837 194.605 116.837 194.52C116.837 194.424 116.875 194.339 116.949 194.264C117.397 193.795 117.867 193.453 118.357 193.24C118.859 193.027 119.408 192.92 120.005 192.92ZM119.429 200.36C120.197 200.36 120.832 200.157 121.333 199.752C121.835 199.347 122.085 198.829 122.085 198.2V196.856L120.597 197.144C119.904 197.283 119.355 197.416 118.949 197.544C118.544 197.672 118.219 197.859 117.973 198.104C117.728 198.349 117.605 198.669 117.605 199.064C117.605 199.469 117.765 199.789 118.085 200.024C118.416 200.248 118.864 200.36 119.429 200.36ZM130.111 193.368C130.175 193.197 130.298 193.112 130.479 193.112H130.911C130.997 193.112 131.066 193.133 131.119 193.176C131.173 193.219 131.199 193.277 131.199 193.352L131.167 193.48L128.079 202.2C127.909 202.68 127.743 203.053 127.583 203.32C127.423 203.587 127.205 203.789 126.927 203.928C126.661 204.067 126.309 204.136 125.871 204.136C125.594 204.136 125.349 204.115 125.135 204.072C125.029 204.061 124.954 204.019 124.911 203.944C124.879 203.869 124.874 203.784 124.895 203.688L124.943 203.48C124.986 203.288 125.109 203.203 125.311 203.224C125.503 203.256 125.669 203.272 125.807 203.272C126.149 203.272 126.415 203.176 126.607 202.984C126.81 202.792 127.002 202.429 127.183 201.896L127.327 201.448L124.511 193.48L124.479 193.352C124.479 193.277 124.506 193.219 124.559 193.176C124.613 193.133 124.682 193.112 124.767 193.112H125.231C125.402 193.112 125.519 193.197 125.583 193.368L126.479 196.008C126.565 196.275 126.778 196.909 127.119 197.912L127.839 200.072C128.191 199.08 128.655 197.715 129.231 195.976L130.111 193.368Z" fill="#464646"/>
<path d="M251.5 193.5L257 199L262.5 193.5" stroke="#464646" stroke-width="1.5" stroke-linecap="round" stroke-linejoin="round"/>
<rect x="70.5" y="172.5" width="202" height="47" rx="3.5" stroke="#C3CCD9"/>
</svg>
