<svg width="344" height="168" viewBox="0 0 344 168" fill="none" xmlns="http://www.w3.org/2000/svg">
<rect width="344" height="168" fill="#F5F5F5"/>
<path d="M75.348 63.224C74.3587 63.224 73.5 63 72.772 62.552C72.0533 62.104 71.498 61.488 71.106 60.704C70.7233 59.9107 70.532 59.0147 70.532 58.016C70.532 57.0173 70.7233 56.1307 71.106 55.356C71.4887 54.572 72.044 53.956 72.772 53.508C73.5 53.06 74.3727 52.836 75.39 52.836C76.006 52.836 76.566 52.9247 77.07 53.102C77.574 53.27 78.0827 53.5547 78.596 53.956C78.736 54.068 78.806 54.194 78.806 54.334C78.806 54.4273 78.7593 54.5347 78.666 54.656L78.358 55.02C78.246 55.1507 78.1293 55.216 78.008 55.216C77.9147 55.216 77.798 55.1693 77.658 55.076C77.238 54.7493 76.8507 54.5253 76.496 54.404C76.1507 54.2827 75.7773 54.222 75.376 54.222C74.7227 54.222 74.1533 54.3807 73.668 54.698C73.1827 55.0153 72.8093 55.4633 72.548 56.042C72.2867 56.6113 72.156 57.2693 72.156 58.016C72.156 58.7627 72.2867 59.4253 72.548 60.004C72.8093 60.5827 73.178 61.0353 73.654 61.362C74.13 61.6793 74.6853 61.838 75.32 61.838C75.796 61.838 76.2207 61.754 76.594 61.586C76.9673 61.418 77.3733 61.1473 77.812 60.774C77.9333 60.6713 78.05 60.62 78.162 60.62C78.2833 60.62 78.4 60.6853 78.512 60.816L78.82 61.166C78.9133 61.2687 78.96 61.376 78.96 61.488C78.96 61.6467 78.8853 61.7867 78.736 61.908C78.1947 62.3747 77.658 62.7107 77.126 62.916C76.6033 63.1213 76.0107 63.224 75.348 63.224ZM83.3956 63.21C82.7143 63.21 82.1076 63.056 81.5756 62.748C81.0529 62.44 80.6423 62.0107 80.3436 61.46C80.0449 60.9 79.8956 60.2607 79.8956 59.542C79.8956 58.8233 80.0449 58.1887 80.3436 57.638C80.6423 57.0873 81.0529 56.658 81.5756 56.35C82.1076 56.042 82.7143 55.888 83.3956 55.888C84.0676 55.888 84.6696 56.042 85.2016 56.35C85.7336 56.658 86.1489 57.092 86.4476 57.652C86.7463 58.2027 86.8956 58.8327 86.8956 59.542C86.8956 60.2607 86.7463 60.9 86.4476 61.46C86.1489 62.0107 85.7336 62.44 85.2016 62.748C84.6696 63.056 84.0676 63.21 83.3956 63.21ZM83.3956 61.964C83.9929 61.964 84.4736 61.7447 84.8376 61.306C85.2016 60.858 85.3836 60.27 85.3836 59.542C85.3836 58.8233 85.2016 58.2447 84.8376 57.806C84.4736 57.3673 83.9929 57.148 83.3956 57.148C82.7983 57.148 82.3176 57.3673 81.9536 57.806C81.5896 58.2447 81.4076 58.8233 81.4076 59.542C81.4076 60.27 81.5896 60.858 81.9536 61.306C82.3176 61.7447 82.7983 61.964 83.3956 61.964ZM92.5856 56.588C92.5856 56.4293 92.6276 56.308 92.7116 56.224C92.8049 56.14 92.9263 56.098 93.0756 56.098H93.5796C93.7383 56.098 93.8596 56.14 93.9436 56.224C94.0276 56.308 94.0696 56.4293 94.0696 56.588V62.51C94.0696 62.6593 94.0276 62.7807 93.9436 62.874C93.8596 62.958 93.7383 63 93.5796 63H93.2016C93.0523 63 92.9309 62.958 92.8376 62.874C92.7536 62.7807 92.7116 62.6593 92.7116 62.51V62.188C92.5249 62.5053 92.2543 62.7573 91.8996 62.944C91.5449 63.1213 91.1249 63.21 90.6396 63.21C89.8183 63.21 89.2069 63.0093 88.8056 62.608C88.4043 62.1973 88.2036 61.656 88.2036 60.984V56.588C88.2036 56.4293 88.2456 56.308 88.3296 56.224C88.4229 56.14 88.5443 56.098 88.6936 56.098H89.1976C89.3563 56.098 89.4776 56.14 89.5616 56.224C89.6456 56.308 89.6876 56.4293 89.6876 56.588V60.592C89.6876 61.0213 89.7949 61.3527 90.0096 61.586C90.2336 61.81 90.5556 61.922 90.9756 61.922C91.4609 61.922 91.8483 61.782 92.1376 61.502C92.4363 61.222 92.5856 60.816 92.5856 60.284V56.588ZM99.2918 55.888C100.085 55.888 100.692 56.112 101.112 56.56C101.541 56.9987 101.756 57.568 101.756 58.268V62.51C101.756 62.6593 101.714 62.7807 101.63 62.874C101.546 62.958 101.424 63 101.266 63H100.762C100.612 63 100.491 62.958 100.398 62.874C100.314 62.7807 100.272 62.6593 100.272 62.51V58.73C100.272 58.226 100.146 57.8387 99.8938 57.568C99.6512 57.2973 99.3012 57.162 98.8438 57.162C98.3958 57.162 98.0178 57.316 97.7098 57.624C97.4112 57.932 97.2618 58.3193 97.2618 58.786V62.51C97.2618 62.6593 97.2198 62.7807 97.1358 62.874C97.0518 62.958 96.9305 63 96.7718 63H96.2678C96.1185 63 95.9972 62.958 95.9038 62.874C95.8198 62.7807 95.7778 62.6593 95.7778 62.51V56.588C95.7778 56.4293 95.8198 56.308 95.9038 56.224C95.9972 56.14 96.1185 56.098 96.2678 56.098H96.6738C96.8325 56.098 96.9538 56.14 97.0378 56.224C97.1218 56.308 97.1638 56.4293 97.1638 56.588V56.952C97.3878 56.6067 97.6818 56.3453 98.0458 56.168C98.4098 55.9813 98.8252 55.888 99.2918 55.888ZM106.643 61.824C106.671 61.8147 106.713 61.81 106.769 61.81C107.002 61.81 107.142 61.9453 107.189 62.216L107.231 62.44C107.24 62.468 107.245 62.5147 107.245 62.58C107.245 62.8133 107.114 62.9627 106.853 63.028C106.48 63.112 106.139 63.154 105.831 63.154C105.168 63.154 104.688 63 104.389 62.692C104.1 62.384 103.955 61.922 103.955 61.306V57.232H103.185C103.036 57.232 102.914 57.19 102.821 57.106C102.737 57.0127 102.695 56.8913 102.695 56.742V56.588C102.695 56.4293 102.737 56.308 102.821 56.224C102.914 56.14 103.036 56.098 103.185 56.098H103.955V54.362C103.955 54.2033 103.997 54.082 104.081 53.998C104.174 53.914 104.296 53.872 104.445 53.872H104.949C105.108 53.872 105.229 53.914 105.313 53.998C105.397 54.082 105.439 54.2033 105.439 54.362V56.098H106.699C106.858 56.098 106.979 56.14 107.063 56.224C107.147 56.308 107.189 56.4293 107.189 56.588V56.742C107.189 56.8913 107.147 57.0127 107.063 57.106C106.979 57.19 106.858 57.232 106.699 57.232H105.439V61.124C105.439 61.3947 105.495 61.586 105.607 61.698C105.728 61.81 105.92 61.866 106.181 61.866C106.293 61.866 106.447 61.852 106.643 61.824ZM111.519 56.028C111.724 56.028 111.934 56.0513 112.149 56.098C112.401 56.154 112.527 56.3033 112.527 56.546C112.527 56.6113 112.522 56.658 112.513 56.686L112.443 57.022C112.387 57.2833 112.247 57.414 112.023 57.414L111.897 57.4C111.729 57.372 111.579 57.358 111.449 57.358C110.982 57.358 110.604 57.5447 110.315 57.918C110.035 58.282 109.895 58.7907 109.895 59.444V62.51C109.895 62.6593 109.853 62.7807 109.769 62.874C109.685 62.958 109.563 63 109.405 63H108.901C108.751 63 108.63 62.958 108.537 62.874C108.453 62.7807 108.411 62.6593 108.411 62.51V56.588C108.411 56.4293 108.453 56.308 108.537 56.224C108.63 56.14 108.751 56.098 108.901 56.098H109.307C109.465 56.098 109.587 56.14 109.671 56.224C109.755 56.308 109.797 56.4293 109.797 56.588V57.134C109.965 56.7887 110.193 56.518 110.483 56.322C110.772 56.126 111.117 56.028 111.519 56.028ZM118.107 56.504C118.191 56.2333 118.373 56.098 118.653 56.098H119.157C119.297 56.098 119.405 56.1307 119.479 56.196C119.554 56.2613 119.591 56.35 119.591 56.462C119.591 56.518 119.577 56.5833 119.549 56.658L117.043 63.854C116.819 64.5073 116.539 64.9693 116.203 65.24C115.877 65.52 115.41 65.66 114.803 65.66C114.523 65.66 114.285 65.6413 114.089 65.604C113.959 65.5947 113.861 65.548 113.795 65.464C113.73 65.3893 113.697 65.296 113.697 65.184C113.697 65.1187 113.702 65.0673 113.711 65.03L113.753 64.848C113.819 64.5867 113.959 64.456 114.173 64.456C114.257 64.456 114.337 64.4607 114.411 64.47C114.486 64.4793 114.561 64.484 114.635 64.484C114.906 64.484 115.13 64.414 115.307 64.274C115.494 64.134 115.648 63.8773 115.769 63.504L115.811 63.392L113.417 56.658C113.389 56.5833 113.375 56.5133 113.375 56.448C113.375 56.336 113.413 56.252 113.487 56.196C113.571 56.1307 113.683 56.098 113.823 56.098H114.355C114.645 56.098 114.831 56.2333 114.915 56.504L115.461 58.142C115.872 59.318 116.222 60.396 116.511 61.376L116.917 60.13C116.983 59.934 117.081 59.626 117.211 59.206C117.342 58.786 117.459 58.4267 117.561 58.128L118.107 56.504Z" fill="#464646"/>
<rect x="70.5" y="71.5" width="202" height="47" rx="3.5" fill="white"/>
<path d="M83.136 100.24C82.2933 100.24 81.5307 100.112 80.848 99.856C80.176 99.5893 79.4667 99.1573 78.72 98.56C78.624 98.4747 78.576 98.3947 78.576 98.32C78.576 98.256 78.608 98.1867 78.672 98.112L78.928 97.808C78.9813 97.7227 79.0613 97.68 79.168 97.68C79.2533 97.68 79.3227 97.7067 79.376 97.76C80.1333 98.3467 80.7947 98.7467 81.36 98.96C81.9253 99.1627 82.5173 99.264 83.136 99.264C84 99.264 84.704 99.0507 85.248 98.624C85.792 98.1867 86.064 97.5947 86.064 96.848C86.064 96.368 85.936 95.984 85.68 95.696C85.424 95.408 85.072 95.184 84.624 95.024C84.1867 94.864 83.5627 94.6933 82.752 94.512C81.7813 94.2987 81.024 94.0693 80.48 93.824C79.9467 93.5787 79.5573 93.2693 79.312 92.896C79.0667 92.5227 78.944 92.0427 78.944 91.456C78.944 90.8373 79.12 90.2987 79.472 89.84C79.8347 89.3707 80.3147 89.0133 80.912 88.768C81.5093 88.5227 82.1547 88.4 82.848 88.4C83.6053 88.4 84.2933 88.512 84.912 88.736C85.5413 88.96 86.16 89.3173 86.768 89.808C86.864 89.872 86.912 89.9467 86.912 90.032C86.912 90.096 86.88 90.1707 86.816 90.256L86.576 90.544C86.5227 90.6293 86.4427 90.672 86.336 90.672C86.2507 90.672 86.176 90.6453 86.112 90.592C85.568 90.144 85.04 89.8293 84.528 89.648C84.0267 89.4667 83.472 89.376 82.864 89.376C82.3093 89.376 81.8187 89.4667 81.392 89.648C80.9653 89.8187 80.6293 90.0587 80.384 90.368C80.1493 90.6773 80.032 91.0293 80.032 91.424C80.032 91.8507 80.1493 92.192 80.384 92.448C80.6293 92.704 80.9653 92.9067 81.392 93.056C81.8293 93.2053 82.464 93.376 83.296 93.568C84.256 93.792 85.0133 94.0427 85.568 94.32C86.1333 94.5973 86.544 94.9387 86.8 95.344C87.056 95.7387 87.184 96.2293 87.184 96.816C87.184 97.4987 87.008 98.1013 86.656 98.624C86.3147 99.136 85.8347 99.536 85.216 99.824C84.5973 100.101 83.904 100.24 83.136 100.24ZM94.8968 98.128C94.9714 98.0533 95.0514 98.016 95.1368 98.016C95.2114 98.016 95.2808 98.048 95.3448 98.112L95.5528 98.304C95.6274 98.3787 95.6648 98.4587 95.6648 98.544C95.6648 98.608 95.6328 98.6827 95.5688 98.768C95.0461 99.2907 94.5394 99.664 94.0488 99.888C93.5581 100.101 93.0088 100.208 92.4008 100.208C91.6328 100.208 90.9661 100.037 90.4008 99.696C89.8354 99.3547 89.3981 98.88 89.0888 98.272C88.7794 97.6533 88.6248 96.9387 88.6248 96.128C88.6248 95.3067 88.7741 94.5813 89.0728 93.952C89.3821 93.312 89.8141 92.816 90.3688 92.464C90.9234 92.1013 91.5634 91.92 92.2888 91.92C93.3661 91.92 94.2141 92.256 94.8328 92.928C95.4514 93.6 95.7608 94.5067 95.7608 95.648V95.84C95.7501 95.936 95.7128 96.0107 95.6488 96.064C95.5954 96.1173 95.5208 96.144 95.4248 96.144H89.6968C89.7288 97.04 89.9634 97.7973 90.4008 98.416C90.8488 99.024 91.5154 99.328 92.4008 99.328C92.8808 99.328 93.3021 99.2427 93.6648 99.072C94.0381 98.8907 94.4488 98.576 94.8968 98.128ZM92.2888 92.8C91.5848 92.8 91.0034 93.0187 90.5448 93.456C90.0968 93.8827 89.8248 94.512 89.7288 95.344H94.7048C94.6834 94.5653 94.4594 93.9467 94.0328 93.488C93.6061 93.0293 93.0248 92.8 92.2888 92.8ZM97.9888 100C97.7754 100 97.6688 99.8933 97.6688 99.68V88.96C97.6688 88.7467 97.7754 88.64 97.9888 88.64H98.4048C98.6181 88.64 98.7248 88.7467 98.7248 88.96V99.68C98.7248 99.8933 98.6181 100 98.4048 100H97.9888ZM106.85 98.128C106.925 98.0533 107.005 98.016 107.09 98.016C107.165 98.016 107.234 98.048 107.298 98.112L107.506 98.304C107.581 98.3787 107.618 98.4587 107.618 98.544C107.618 98.608 107.586 98.6827 107.522 98.768C106.999 99.2907 106.493 99.664 106.002 99.888C105.511 100.101 104.962 100.208 104.354 100.208C103.586 100.208 102.919 100.037 102.354 99.696C101.789 99.3547 101.351 98.88 101.042 98.272C100.733 97.6533 100.578 96.9387 100.578 96.128C100.578 95.3067 100.727 94.5813 101.026 93.952C101.335 93.312 101.767 92.816 102.322 92.464C102.877 92.1013 103.517 91.92 104.242 91.92C105.319 91.92 106.167 92.256 106.786 92.928C107.405 93.6 107.714 94.5067 107.714 95.648V95.84C107.703 95.936 107.666 96.0107 107.602 96.064C107.549 96.1173 107.474 96.144 107.378 96.144H101.65C101.682 97.04 101.917 97.7973 102.354 98.416C102.802 99.024 103.469 99.328 104.354 99.328C104.834 99.328 105.255 99.2427 105.618 99.072C105.991 98.8907 106.402 98.576 106.85 98.128ZM104.242 92.8C103.538 92.8 102.957 93.0187 102.498 93.456C102.05 93.8827 101.778 94.512 101.682 95.344H106.658C106.637 94.5653 106.413 93.9467 105.986 93.488C105.559 93.0293 104.978 92.8 104.242 92.8ZM112.822 100.208C112.064 100.208 111.403 100.037 110.838 99.696C110.283 99.344 109.851 98.8587 109.542 98.24C109.243 97.6107 109.094 96.8853 109.094 96.064C109.094 95.2533 109.243 94.5333 109.542 93.904C109.851 93.2747 110.283 92.7893 110.838 92.448C111.403 92.096 112.054 91.92 112.79 91.92C113.387 91.92 113.91 92.0213 114.358 92.224C114.806 92.416 115.238 92.736 115.654 93.184C115.718 93.248 115.75 93.3173 115.75 93.392C115.75 93.488 115.707 93.568 115.622 93.632L115.398 93.84C115.334 93.904 115.259 93.936 115.174 93.936C115.099 93.936 115.019 93.8933 114.934 93.808C114.56 93.4347 114.203 93.1733 113.862 93.024C113.531 92.8747 113.163 92.8 112.758 92.8C112.203 92.8 111.728 92.9547 111.334 93.264C110.95 93.5733 110.662 93.9787 110.47 94.48C110.278 94.9707 110.182 95.4987 110.182 96.064C110.182 96.6293 110.278 97.1627 110.47 97.664C110.662 98.1547 110.955 98.5547 111.35 98.864C111.744 99.1627 112.23 99.312 112.806 99.312C113.232 99.312 113.606 99.2373 113.926 99.088C114.256 98.928 114.624 98.6293 115.03 98.192C115.115 98.1067 115.195 98.064 115.27 98.064C115.355 98.064 115.43 98.096 115.494 98.16L115.718 98.336C115.792 98.4 115.83 98.4747 115.83 98.56C115.83 98.6453 115.782 98.7467 115.686 98.864C115.238 99.3547 114.79 99.7013 114.342 99.904C113.894 100.107 113.387 100.208 112.822 100.208ZM121.142 99.12C121.174 99.1093 121.217 99.104 121.27 99.104C121.334 99.104 121.393 99.1253 121.446 99.168C121.5 99.2107 121.532 99.2693 121.542 99.344L121.59 99.568C121.601 99.5893 121.606 99.6267 121.606 99.68C121.606 99.8293 121.526 99.92 121.366 99.952C120.982 100.069 120.572 100.128 120.134 100.128C119.441 100.128 118.945 99.9733 118.646 99.664C118.358 99.344 118.214 98.8853 118.214 98.288V92.912H117.03C116.817 92.912 116.71 92.8053 116.71 92.592V92.432C116.71 92.2187 116.817 92.112 117.03 92.112H118.214V89.68C118.214 89.4667 118.321 89.36 118.534 89.36H118.95C119.164 89.36 119.27 89.4667 119.27 89.68V92.112H121.19C121.404 92.112 121.51 92.2187 121.51 92.432V92.592C121.51 92.8053 121.404 92.912 121.19 92.912H119.27V98.16C119.27 98.5547 119.345 98.832 119.494 98.992C119.644 99.152 119.9 99.232 120.262 99.232C120.518 99.232 120.812 99.1947 121.142 99.12ZM129.849 91.92C130.82 91.92 131.577 92.1547 132.121 92.624C132.665 93.0827 132.937 93.6907 132.937 94.448V99.68C132.937 99.8933 132.83 100 132.617 100H132.297C132.084 100 131.977 99.8933 131.977 99.68V98.96C131.71 99.3867 131.332 99.7067 130.841 99.92C130.361 100.133 129.822 100.24 129.225 100.24C128.393 100.24 127.716 100.064 127.193 99.712C126.67 99.36 126.409 98.816 126.409 98.08C126.409 97.4933 126.574 97.024 126.905 96.672C127.236 96.3093 127.668 96.0373 128.201 95.856C128.734 95.664 129.401 95.4933 130.201 95.344L131.929 95.04V94.528C131.929 93.984 131.742 93.5627 131.369 93.264C130.996 92.9547 130.505 92.8 129.897 92.8C129.438 92.8 129.022 92.8853 128.649 93.056C128.276 93.2267 127.876 93.52 127.449 93.936C127.374 94.0107 127.294 94.048 127.209 94.048C127.134 94.048 127.065 94.016 127.001 93.952L126.793 93.76C126.718 93.6853 126.681 93.6053 126.681 93.52C126.681 93.424 126.718 93.3387 126.793 93.264C127.241 92.7947 127.71 92.4533 128.201 92.24C128.702 92.0267 129.252 91.92 129.849 91.92ZM129.273 99.36C130.041 99.36 130.676 99.1573 131.177 98.752C131.678 98.3467 131.929 97.8293 131.929 97.2V95.856L130.441 96.144C129.748 96.2827 129.198 96.416 128.793 96.544C128.388 96.672 128.062 96.8587 127.817 97.104C127.572 97.3493 127.449 97.6693 127.449 98.064C127.449 98.4693 127.609 98.7893 127.929 99.024C128.26 99.248 128.708 99.36 129.273 99.36ZM142.165 100.208C141.408 100.208 140.747 100.037 140.181 99.696C139.627 99.344 139.195 98.8587 138.885 98.24C138.587 97.6107 138.437 96.8853 138.437 96.064C138.437 95.2533 138.587 94.5333 138.885 93.904C139.195 93.2747 139.627 92.7893 140.181 92.448C140.747 92.096 141.397 91.92 142.133 91.92C142.731 91.92 143.253 92.0213 143.701 92.224C144.149 92.416 144.581 92.736 144.997 93.184C145.061 93.248 145.093 93.3173 145.093 93.392C145.093 93.488 145.051 93.568 144.965 93.632L144.741 93.84C144.677 93.904 144.603 93.936 144.517 93.936C144.443 93.936 144.363 93.8933 144.277 93.808C143.904 93.4347 143.547 93.1733 143.205 93.024C142.875 92.8747 142.507 92.8 142.101 92.8C141.547 92.8 141.072 92.9547 140.677 93.264C140.293 93.5733 140.005 93.9787 139.813 94.48C139.621 94.9707 139.525 95.4987 139.525 96.064C139.525 96.6293 139.621 97.1627 139.813 97.664C140.005 98.1547 140.299 98.5547 140.693 98.864C141.088 99.1627 141.573 99.312 142.149 99.312C142.576 99.312 142.949 99.2373 143.269 99.088C143.6 98.928 143.968 98.6293 144.373 98.192C144.459 98.1067 144.539 98.064 144.613 98.064C144.699 98.064 144.773 98.096 144.837 98.16L145.061 98.336C145.136 98.4 145.173 98.4747 145.173 98.56C145.173 98.6453 145.125 98.7467 145.029 98.864C144.581 99.3547 144.133 99.7013 143.685 99.904C143.237 100.107 142.731 100.208 142.165 100.208ZM149.995 100.208C149.259 100.208 148.603 100.032 148.027 99.68C147.451 99.328 147.003 98.8427 146.683 98.224C146.363 97.5947 146.203 96.8747 146.203 96.064C146.203 95.2533 146.363 94.5387 146.683 93.92C147.003 93.2907 147.451 92.8 148.027 92.448C148.603 92.096 149.259 91.92 149.995 91.92C150.731 91.92 151.387 92.096 151.963 92.448C152.539 92.8 152.987 93.2907 153.307 93.92C153.627 94.5387 153.787 95.2533 153.787 96.064C153.787 96.8747 153.627 97.5947 153.307 98.224C152.987 98.8427 152.539 99.328 151.963 99.68C151.387 100.032 150.731 100.208 149.995 100.208ZM149.995 99.328C150.816 99.328 151.472 99.0293 151.963 98.432C152.454 97.824 152.699 97.0347 152.699 96.064C152.699 95.0933 152.454 94.3093 151.963 93.712C151.472 93.104 150.816 92.8 149.995 92.8C149.174 92.8 148.518 93.104 148.027 93.712C147.536 94.3093 147.291 95.0933 147.291 96.064C147.291 97.0347 147.536 97.824 148.027 98.432C148.518 99.0293 149.174 99.328 149.995 99.328ZM160.742 92.432C160.742 92.2187 160.848 92.112 161.062 92.112H161.478C161.691 92.112 161.798 92.2187 161.798 92.432V99.68C161.798 99.8933 161.691 100 161.478 100H161.142C160.928 100 160.822 99.8933 160.822 99.68V98.96C160.587 99.376 160.251 99.6907 159.814 99.904C159.387 100.107 158.918 100.208 158.406 100.208C157.446 100.208 156.736 99.968 156.278 99.488C155.819 98.9973 155.59 98.368 155.59 97.6V92.432C155.59 92.2187 155.696 92.112 155.91 92.112H156.326C156.539 92.112 156.646 92.2187 156.646 92.432V97.376C156.646 98.0053 156.8 98.4853 157.11 98.816C157.43 99.136 157.883 99.296 158.47 99.296C159.131 99.296 159.675 99.0933 160.102 98.688C160.528 98.2827 160.742 97.7067 160.742 96.96V92.432ZM167.688 91.92C168.616 91.92 169.315 92.176 169.784 92.688C170.264 93.2 170.504 93.84 170.504 94.608V99.68C170.504 99.8933 170.398 100 170.184 100H169.768C169.555 100 169.448 99.8933 169.448 99.68V94.96C169.448 94.256 169.278 93.7227 168.936 93.36C168.595 92.9973 168.104 92.816 167.464 92.816C167.059 92.816 166.686 92.9173 166.344 93.12C166.003 93.312 165.731 93.5787 165.528 93.92C165.326 94.2613 165.224 94.6347 165.224 95.04V99.68C165.224 99.8933 165.118 100 164.904 100H164.488C164.275 100 164.168 99.8933 164.168 99.68V92.432C164.168 92.2187 164.275 92.112 164.488 92.112H164.84C165.054 92.112 165.16 92.2187 165.16 92.432V93.2C165.427 92.7733 165.779 92.4533 166.216 92.24C166.654 92.0267 167.144 91.92 167.688 91.92ZM176.174 99.12C176.206 99.1093 176.248 99.104 176.302 99.104C176.366 99.104 176.424 99.1253 176.478 99.168C176.531 99.2107 176.563 99.2693 176.574 99.344L176.622 99.568C176.632 99.5893 176.638 99.6267 176.638 99.68C176.638 99.8293 176.558 99.92 176.398 99.952C176.014 100.069 175.603 100.128 175.166 100.128C174.472 100.128 173.976 99.9733 173.678 99.664C173.39 99.344 173.246 98.8853 173.246 98.288V92.912H172.062C171.848 92.912 171.742 92.8053 171.742 92.592V92.432C171.742 92.2187 171.848 92.112 172.062 92.112H173.246V89.68C173.246 89.4667 173.352 89.36 173.566 89.36H173.982C174.195 89.36 174.302 89.4667 174.302 89.68V92.112H176.222C176.435 92.112 176.542 92.2187 176.542 92.432V92.592C176.542 92.8053 176.435 92.912 176.222 92.912H174.302V98.16C174.302 98.5547 174.376 98.832 174.526 98.992C174.675 99.152 174.931 99.232 175.294 99.232C175.55 99.232 175.843 99.1947 176.174 99.12ZM181.097 92.048C181.363 92.048 181.678 92.0907 182.041 92.176C182.233 92.24 182.307 92.3733 182.265 92.576L182.201 92.832C182.147 93.0347 182.014 93.1093 181.801 93.056C181.545 92.992 181.31 92.96 181.097 92.96C180.553 92.96 180.099 93.1947 179.737 93.664C179.385 94.1333 179.209 94.784 179.209 95.616V99.68C179.209 99.8933 179.102 100 178.889 100H178.473C178.259 100 178.153 99.8933 178.153 99.68V92.432C178.153 92.2187 178.259 92.112 178.473 92.112H178.825C179.038 92.112 179.145 92.2187 179.145 92.432V93.312C179.326 92.9173 179.582 92.608 179.913 92.384C180.254 92.16 180.649 92.048 181.097 92.048ZM188.877 92.368C188.941 92.1973 189.064 92.112 189.245 92.112H189.677C189.762 92.112 189.832 92.1333 189.885 92.176C189.938 92.2187 189.965 92.2773 189.965 92.352L189.933 92.48L186.845 101.2C186.674 101.68 186.509 102.053 186.349 102.32C186.189 102.587 185.97 102.789 185.693 102.928C185.426 103.067 185.074 103.136 184.637 103.136C184.36 103.136 184.114 103.115 183.901 103.072C183.794 103.061 183.72 103.019 183.677 102.944C183.645 102.869 183.64 102.784 183.661 102.688L183.709 102.48C183.752 102.288 183.874 102.203 184.077 102.224C184.269 102.256 184.434 102.272 184.573 102.272C184.914 102.272 185.181 102.176 185.373 101.984C185.576 101.792 185.768 101.429 185.949 100.896L186.093 100.448L183.277 92.48L183.245 92.352C183.245 92.2773 183.272 92.2187 183.325 92.176C183.378 92.1333 183.448 92.112 183.533 92.112H183.997C184.168 92.112 184.285 92.1973 184.349 92.368L185.245 95.008C185.33 95.2747 185.544 95.9093 185.885 96.912L186.605 99.072C186.957 98.08 187.421 96.7147 187.997 94.976L188.877 92.368Z" fill="#767676"/>
<path d="M251.5 92.5L257 98L262.5 92.5" stroke="#464646" stroke-width="1.5" stroke-linecap="round" stroke-linejoin="round"/>
<rect x="70.5" y="71.5" width="202" height="47" rx="3.5" stroke="#C3CCD9"/>
</svg>
