<svg width="344" height="128" viewBox="0 0 344 128" fill="none" xmlns="http://www.w3.org/2000/svg">
<rect width="344" height="128" fill="#F5F5F5"/>
<rect x="70.5" y="40.5" width="203" height="47" rx="3.5" fill="white"/>
<path d="M87.136 57.96C87.136 57.7467 87.2427 57.64 87.456 57.64H87.92C88.1333 57.64 88.24 57.7467 88.24 57.96V68.68C88.24 68.8933 88.1333 69 87.92 69H87.2C87.0293 69 86.896 68.9307 86.8 68.792L83.36 63.576L83.168 63.272C81.888 61.352 80.9707 59.9387 80.416 59.032C80.4587 60.28 80.48 61.72 80.48 63.352V68.68C80.48 68.8933 80.3733 69 80.16 69H79.696C79.4827 69 79.376 68.8933 79.376 68.68V57.96C79.376 57.7467 79.4827 57.64 79.696 57.64H80.416C80.5867 57.64 80.72 57.7093 80.816 57.848L84.24 63.048L84.848 63.992C85.9253 65.624 86.7093 66.84 87.2 67.64C87.1573 66.3707 87.136 64.9253 87.136 63.304V57.96ZM94.0574 69.208C93.3214 69.208 92.6654 69.032 92.0894 68.68C91.5134 68.328 91.0654 67.8427 90.7454 67.224C90.4254 66.5947 90.2654 65.8747 90.2654 65.064C90.2654 64.2533 90.4254 63.5387 90.7454 62.92C91.0654 62.2907 91.5134 61.8 92.0894 61.448C92.6654 61.096 93.3214 60.92 94.0574 60.92C94.7934 60.92 95.4494 61.096 96.0254 61.448C96.6014 61.8 97.0494 62.2907 97.3694 62.92C97.6894 63.5387 97.8494 64.2533 97.8494 65.064C97.8494 65.8747 97.6894 66.5947 97.3694 67.224C97.0494 67.8427 96.6014 68.328 96.0254 68.68C95.4494 69.032 94.7934 69.208 94.0574 69.208ZM94.0574 68.328C94.8787 68.328 95.5347 68.0293 96.0254 67.432C96.516 66.824 96.7614 66.0347 96.7614 65.064C96.7614 64.0933 96.516 63.3093 96.0254 62.712C95.5347 62.104 94.8787 61.8 94.0574 61.8C93.236 61.8 92.58 62.104 92.0894 62.712C91.5987 63.3093 91.3534 64.0933 91.3534 65.064C91.3534 66.0347 91.5987 66.824 92.0894 67.432C92.58 68.0293 93.236 68.328 94.0574 68.328ZM102.628 61.048C102.895 61.048 103.209 61.0907 103.572 61.176C103.764 61.24 103.839 61.3733 103.796 61.576L103.732 61.832C103.679 62.0347 103.545 62.1093 103.332 62.056C103.076 61.992 102.841 61.96 102.628 61.96C102.084 61.96 101.631 62.1947 101.268 62.664C100.916 63.1333 100.74 63.784 100.74 64.616V68.68C100.74 68.8933 100.633 69 100.42 69H100.004C99.7907 69 99.684 68.8933 99.684 68.68V61.432C99.684 61.2187 99.7907 61.112 100.004 61.112H100.356C100.569 61.112 100.676 61.2187 100.676 61.432V62.312C100.857 61.9173 101.113 61.608 101.444 61.384C101.785 61.16 102.18 61.048 102.628 61.048ZM114.281 61.384C114.324 61.2027 114.446 61.112 114.649 61.112H115.081C115.198 61.112 115.278 61.144 115.321 61.208C115.374 61.272 115.385 61.3573 115.353 61.464L113.289 68.728C113.246 68.9093 113.124 69 112.921 69H112.201C112.02 69 111.902 68.9093 111.849 68.728L111.113 66.28C110.729 65 110.372 63.688 110.041 62.344C109.721 63.6453 109.369 64.968 108.985 66.312L108.281 68.728C108.238 68.9093 108.116 69 107.913 69H107.225C107.022 69 106.9 68.9093 106.857 68.728L104.793 61.464C104.782 61.4427 104.777 61.4053 104.777 61.352C104.777 61.2773 104.804 61.2187 104.857 61.176C104.91 61.1333 104.98 61.112 105.065 61.112H105.497C105.7 61.112 105.822 61.2027 105.865 61.384L106.633 64.216C106.985 65.5067 107.31 66.792 107.609 68.072C107.844 67.1227 108.19 65.8373 108.649 64.216L109.465 61.384C109.508 61.2027 109.63 61.112 109.833 61.112H110.313C110.505 61.112 110.622 61.2027 110.665 61.384L111.497 64.216C111.86 65.528 112.201 66.8187 112.521 68.088C112.766 67.0213 113.097 65.7307 113.513 64.216L114.281 61.384ZM120.005 60.92C120.976 60.92 121.733 61.1547 122.277 61.624C122.821 62.0827 123.093 62.6907 123.093 63.448V68.68C123.093 68.8933 122.987 69 122.773 69H122.453C122.24 69 122.133 68.8933 122.133 68.68V67.96C121.867 68.3867 121.488 68.7067 120.997 68.92C120.517 69.1333 119.979 69.24 119.381 69.24C118.549 69.24 117.872 69.064 117.349 68.712C116.827 68.36 116.565 67.816 116.565 67.08C116.565 66.4933 116.731 66.024 117.061 65.672C117.392 65.3093 117.824 65.0373 118.357 64.856C118.891 64.664 119.557 64.4933 120.357 64.344L122.085 64.04V63.528C122.085 62.984 121.899 62.5627 121.525 62.264C121.152 61.9547 120.661 61.8 120.053 61.8C119.595 61.8 119.179 61.8853 118.805 62.056C118.432 62.2267 118.032 62.52 117.605 62.936C117.531 63.0107 117.451 63.048 117.365 63.048C117.291 63.048 117.221 63.016 117.157 62.952L116.949 62.76C116.875 62.6853 116.837 62.6053 116.837 62.52C116.837 62.424 116.875 62.3387 116.949 62.264C117.397 61.7947 117.867 61.4533 118.357 61.24C118.859 61.0267 119.408 60.92 120.005 60.92ZM119.429 68.36C120.197 68.36 120.832 68.1573 121.333 67.752C121.835 67.3467 122.085 66.8293 122.085 66.2V64.856L120.597 65.144C119.904 65.2827 119.355 65.416 118.949 65.544C118.544 65.672 118.219 65.8587 117.973 66.104C117.728 66.3493 117.605 66.6693 117.605 67.064C117.605 67.4693 117.765 67.7893 118.085 68.024C118.416 68.248 118.864 68.36 119.429 68.36ZM130.111 61.368C130.175 61.1973 130.298 61.112 130.479 61.112H130.911C130.997 61.112 131.066 61.1333 131.119 61.176C131.173 61.2187 131.199 61.2773 131.199 61.352L131.167 61.48L128.079 70.2C127.909 70.68 127.743 71.0533 127.583 71.32C127.423 71.5867 127.205 71.7893 126.927 71.928C126.661 72.0667 126.309 72.136 125.871 72.136C125.594 72.136 125.349 72.1147 125.135 72.072C125.029 72.0613 124.954 72.0187 124.911 71.944C124.879 71.8693 124.874 71.784 124.895 71.688L124.943 71.48C124.986 71.288 125.109 71.2027 125.311 71.224C125.503 71.256 125.669 71.272 125.807 71.272C126.149 71.272 126.415 71.176 126.607 70.984C126.81 70.792 127.002 70.4293 127.183 69.896L127.327 69.448L124.511 61.48L124.479 61.352C124.479 61.2773 124.506 61.2187 124.559 61.176C124.613 61.1333 124.682 61.112 124.767 61.112H125.231C125.402 61.112 125.519 61.1973 125.583 61.368L126.479 64.008C126.565 64.2747 126.778 64.9093 127.119 65.912L127.839 68.072C128.191 67.08 128.655 65.7147 129.231 63.976L130.111 61.368Z" fill="#464646"/>
<path d="M252.5 61.5L258 67L263.5 61.5" stroke="#464646" stroke-width="1.5" stroke-linecap="round" stroke-linejoin="round"/>
<rect x="70.5" y="40.5" width="203" height="47" rx="3.5" stroke="#C3CCD9"/>
</svg>
