<svg width="344" height="168" viewBox="0 0 344 168" fill="none" xmlns="http://www.w3.org/2000/svg">
<rect width="344" height="168" fill="#F5F5F5"/>
<path d="M58.578 63.224C57.8127 63.224 57.1267 63.1167 56.52 62.902C55.9227 62.678 55.3067 62.3047 54.672 61.782C54.5413 61.6793 54.476 61.558 54.476 61.418C54.476 61.2967 54.5227 61.1847 54.616 61.082L54.938 60.704C55.0407 60.5733 55.1573 60.508 55.288 60.508C55.3907 60.508 55.5073 60.5593 55.638 60.662C56.198 61.11 56.6973 61.418 57.136 61.586C57.584 61.754 58.074 61.838 58.606 61.838C59.25 61.838 59.7727 61.6933 60.174 61.404C60.5753 61.1053 60.776 60.6993 60.776 60.186C60.776 59.85 60.6733 59.5887 60.468 59.402C60.2627 59.206 59.9967 59.0567 59.67 58.954C59.3527 58.8513 58.8347 58.716 58.116 58.548C57.248 58.3427 56.5713 58.1187 56.086 57.876C55.6007 57.6333 55.2507 57.344 55.036 57.008C54.8307 56.6627 54.728 56.2287 54.728 55.706C54.728 55.1553 54.8867 54.6607 55.204 54.222C55.5213 53.7833 55.9553 53.4427 56.506 53.2C57.066 52.9573 57.6913 52.836 58.382 52.836C59.082 52.836 59.698 52.9293 60.23 53.116C60.7713 53.3027 61.3127 53.606 61.854 54.026C61.994 54.138 62.064 54.2547 62.064 54.376C62.064 54.4787 62.0173 54.5907 61.924 54.712L61.616 55.076C61.504 55.2067 61.3873 55.272 61.266 55.272C61.154 55.272 61.0373 55.2253 60.916 55.132C60.468 54.7867 60.0527 54.5487 59.67 54.418C59.2873 54.2873 58.8533 54.222 58.368 54.222C57.752 54.222 57.2527 54.3573 56.87 54.628C56.4873 54.8987 56.296 55.2393 56.296 55.65C56.296 55.9487 56.3847 56.1867 56.562 56.364C56.7393 56.5413 56.996 56.686 57.332 56.798C57.668 56.91 58.186 57.0453 58.886 57.204C59.7353 57.4093 60.4073 57.6287 60.902 57.862C61.3967 58.086 61.7653 58.3753 62.008 58.73C62.2507 59.0847 62.372 59.5373 62.372 60.088C62.372 60.704 62.2133 61.25 61.896 61.726C61.5787 62.202 61.1353 62.5707 60.566 62.832C59.9967 63.0933 59.334 63.224 58.578 63.224ZM64.5104 54.754C64.2397 54.754 64.0111 54.6653 63.8244 54.488C63.6377 54.3013 63.5444 54.082 63.5444 53.83C63.5444 53.5687 63.6377 53.3493 63.8244 53.172C64.0111 52.9947 64.2397 52.906 64.5104 52.906C64.7811 52.906 65.0097 52.9947 65.1964 53.172C65.3831 53.3493 65.4764 53.5687 65.4764 53.83C65.4764 54.082 65.3831 54.3013 65.1964 54.488C65.0097 54.6653 64.7811 54.754 64.5104 54.754ZM64.2444 63C64.0951 63 63.9737 62.958 63.8804 62.874C63.7964 62.7807 63.7544 62.6593 63.7544 62.51V56.588C63.7544 56.4293 63.7964 56.308 63.8804 56.224C63.9737 56.14 64.0951 56.098 64.2444 56.098H64.7484C64.9071 56.098 65.0284 56.14 65.1124 56.224C65.1964 56.308 65.2384 56.4293 65.2384 56.588V62.51C65.2384 62.6593 65.1964 62.7807 65.1124 62.874C65.0284 62.958 64.9071 63 64.7484 63H64.2444ZM71.7416 56.098C71.9003 56.098 72.0216 56.14 72.1056 56.224C72.1896 56.308 72.2316 56.4293 72.2316 56.588V56.854C72.2316 57.0873 72.1569 57.2927 72.0076 57.47L68.4236 61.782H71.7416C71.9003 61.782 72.0216 61.824 72.1056 61.908C72.1896 61.992 72.2316 62.1133 72.2316 62.272V62.51C72.2316 62.6593 72.1896 62.7807 72.1056 62.874C72.0216 62.958 71.9003 63 71.7416 63H67.0796C66.9303 63 66.8089 62.958 66.7156 62.874C66.6316 62.7807 66.5896 62.6593 66.5896 62.51V62.23C66.5896 61.9967 66.6643 61.7913 66.8136 61.614L70.4116 57.302H67.3176C67.1683 57.302 67.0469 57.26 66.9536 57.176C66.8696 57.0827 66.8276 56.9613 66.8276 56.812V56.588C66.8276 56.4293 66.8696 56.308 66.9536 56.224C67.0469 56.14 67.1683 56.098 67.3176 56.098H71.7416ZM78.3624 61.236C78.4837 61.1333 78.6004 61.082 78.7124 61.082C78.8244 61.082 78.9411 61.1427 79.0624 61.264L79.2584 61.474C79.3611 61.5953 79.4124 61.712 79.4124 61.824C79.4124 61.9453 79.3517 62.062 79.2304 62.174C78.8011 62.5473 78.3717 62.8133 77.9424 62.972C77.5224 63.1307 77.0557 63.21 76.5424 63.21C75.8237 63.21 75.1984 63.0607 74.6664 62.762C74.1437 62.4633 73.7377 62.0433 73.4484 61.502C73.1684 60.9513 73.0284 60.3167 73.0284 59.598C73.0284 58.8887 73.1637 58.254 73.4344 57.694C73.7144 57.1247 74.1064 56.6813 74.6104 56.364C75.1237 56.0467 75.7211 55.888 76.4024 55.888C77.4197 55.888 78.2037 56.1913 78.7544 56.798C79.3051 57.3953 79.5804 58.2213 79.5804 59.276V59.402C79.5711 59.5513 79.5244 59.668 79.4404 59.752C79.3564 59.836 79.2351 59.878 79.0764 59.878H74.4844C74.5404 60.494 74.7411 60.998 75.0864 61.39C75.4411 61.7727 75.9357 61.964 76.5704 61.964C76.9157 61.964 77.2191 61.9127 77.4804 61.81C77.7417 61.698 78.0357 61.5067 78.3624 61.236ZM76.3744 57.064C75.8611 57.064 75.4457 57.218 75.1284 57.526C74.8204 57.8247 74.6197 58.2493 74.5264 58.8H78.1244C78.0871 58.2587 77.9191 57.834 77.6204 57.526C77.3217 57.218 76.9064 57.064 76.3744 57.064Z" fill="#464646"/>
<rect x="54.5" y="71.5" width="85" height="47" rx="3.5" fill="white"/>
<path d="M70.784 96.336C70.9973 96.336 71.104 96.4427 71.104 96.656V96.928C71.104 97.1413 70.9973 97.248 70.784 97.248H69.36V99.68C69.36 99.8933 69.2533 100 69.04 100H68.624C68.4107 100 68.304 99.8933 68.304 99.68V97.248H62.8C62.5867 97.248 62.48 97.1413 62.48 96.928V96.512C62.48 96.3947 62.5173 96.2667 62.592 96.128L67.168 88.848C67.2533 88.7093 67.3813 88.64 67.552 88.64H68.064C68.1493 88.64 68.2187 88.6613 68.272 88.704C68.3253 88.736 68.352 88.784 68.352 88.848C68.352 88.88 68.3307 88.9387 68.288 89.024L63.664 96.336H68.304V93.92C68.304 93.7067 68.4107 93.6 68.624 93.6H69.04C69.2533 93.6 69.36 93.7067 69.36 93.92V96.336H70.784ZM76.3358 92.672C77.0718 92.672 77.7171 92.8267 78.2718 93.136C78.8371 93.4347 79.2744 93.8613 79.5838 94.416C79.8931 94.9707 80.0478 95.6107 80.0478 96.336C80.0478 96.9867 79.8931 97.6107 79.5838 98.208C79.2744 98.8053 78.8264 99.2907 78.2398 99.664C77.6531 100.037 76.9651 100.224 76.1758 100.224C75.4078 100.224 74.7411 100.128 74.1758 99.936C73.6211 99.744 72.9918 99.4133 72.2878 98.944C72.1811 98.88 72.1278 98.7947 72.1278 98.688C72.1278 98.6133 72.1491 98.5493 72.1918 98.496L72.3997 98.208C72.4638 98.112 72.5384 98.064 72.6238 98.064C72.6878 98.064 72.7624 98.0907 72.8478 98.144C73.4984 98.5813 74.0531 98.8853 74.5118 99.056C74.9811 99.2267 75.4984 99.312 76.0638 99.312C76.6611 99.312 77.1784 99.1787 77.6158 98.912C78.0531 98.6347 78.3838 98.272 78.6078 97.824C78.8424 97.3653 78.9598 96.8693 78.9598 96.336C78.9598 95.4827 78.7198 94.816 78.2398 94.336C77.7704 93.856 77.0931 93.616 76.2078 93.616C75.2584 93.616 74.4638 93.904 73.8238 94.48C73.7064 94.5867 73.5678 94.6293 73.4078 94.608L73.0558 94.56C72.9598 94.5493 72.8851 94.512 72.8318 94.448C72.7784 94.384 72.7571 94.304 72.7678 94.208L73.1998 88.944C73.2104 88.848 73.2424 88.7733 73.2958 88.72C73.3598 88.6667 73.4398 88.64 73.5358 88.64H79.2318C79.4451 88.64 79.5518 88.7467 79.5518 88.96V89.248C79.5518 89.4613 79.4451 89.568 79.2318 89.568H74.1438L73.8078 93.504C74.1064 93.2587 74.4691 93.0613 74.8958 92.912C75.3331 92.752 75.8131 92.672 76.3358 92.672Z" fill="#767676"/>
<path d="M118.5 92.5L124 98L129.5 92.5" stroke="#464646" stroke-width="1.5" stroke-linecap="round" stroke-linejoin="round"/>
<rect x="54.5" y="71.5" width="85" height="47" rx="3.5" stroke="#C3CCD9"/>
</svg>
