<svg width="344" height="150" viewBox="0 0 344 150" fill="none" xmlns="http://www.w3.org/2000/svg">
<rect width="344" height="150" fill="#F5F5F5"/>
<path d="M75.348 54.224C74.3587 54.224 73.5 54 72.772 53.552C72.0533 53.104 71.498 52.488 71.106 51.704C70.7233 50.9107 70.532 50.0147 70.532 49.016C70.532 48.0173 70.7233 47.1307 71.106 46.356C71.4887 45.572 72.044 44.956 72.772 44.508C73.5 44.06 74.3727 43.836 75.39 43.836C76.006 43.836 76.566 43.9247 77.07 44.102C77.574 44.27 78.0827 44.5547 78.596 44.956C78.736 45.068 78.806 45.194 78.806 45.334C78.806 45.4273 78.7593 45.5347 78.666 45.656L78.358 46.02C78.246 46.1507 78.1293 46.216 78.008 46.216C77.9147 46.216 77.798 46.1693 77.658 46.076C77.238 45.7493 76.8507 45.5253 76.496 45.404C76.1507 45.2827 75.7773 45.222 75.376 45.222C74.7227 45.222 74.1533 45.3807 73.668 45.698C73.1827 46.0153 72.8093 46.4633 72.548 47.042C72.2867 47.6113 72.156 48.2693 72.156 49.016C72.156 49.7627 72.2867 50.4253 72.548 51.004C72.8093 51.5827 73.178 52.0353 73.654 52.362C74.13 52.6793 74.6853 52.838 75.32 52.838C75.796 52.838 76.2207 52.754 76.594 52.586C76.9673 52.418 77.3733 52.1473 77.812 51.774C77.9333 51.6713 78.05 51.62 78.162 51.62C78.2833 51.62 78.4 51.6853 78.512 51.816L78.82 52.166C78.9133 52.2687 78.96 52.376 78.96 52.488C78.96 52.6467 78.8853 52.7867 78.736 52.908C78.1947 53.3747 77.658 53.7107 77.126 53.916C76.6033 54.1213 76.0107 54.224 75.348 54.224ZM83.3956 54.21C82.7143 54.21 82.1076 54.056 81.5756 53.748C81.0529 53.44 80.6423 53.0107 80.3436 52.46C80.0449 51.9 79.8956 51.2607 79.8956 50.542C79.8956 49.8233 80.0449 49.1887 80.3436 48.638C80.6423 48.0873 81.0529 47.658 81.5756 47.35C82.1076 47.042 82.7143 46.888 83.3956 46.888C84.0676 46.888 84.6696 47.042 85.2016 47.35C85.7336 47.658 86.1489 48.092 86.4476 48.652C86.7463 49.2027 86.8956 49.8327 86.8956 50.542C86.8956 51.2607 86.7463 51.9 86.4476 52.46C86.1489 53.0107 85.7336 53.44 85.2016 53.748C84.6696 54.056 84.0676 54.21 83.3956 54.21ZM83.3956 52.964C83.9929 52.964 84.4736 52.7447 84.8376 52.306C85.2016 51.858 85.3836 51.27 85.3836 50.542C85.3836 49.8233 85.2016 49.2447 84.8376 48.806C84.4736 48.3673 83.9929 48.148 83.3956 48.148C82.7983 48.148 82.3176 48.3673 81.9536 48.806C81.5896 49.2447 81.4076 49.8233 81.4076 50.542C81.4076 51.27 81.5896 51.858 81.9536 52.306C82.3176 52.7447 82.7983 52.964 83.3956 52.964ZM92.5856 47.588C92.5856 47.4293 92.6276 47.308 92.7116 47.224C92.8049 47.14 92.9263 47.098 93.0756 47.098H93.5796C93.7383 47.098 93.8596 47.14 93.9436 47.224C94.0276 47.308 94.0696 47.4293 94.0696 47.588V53.51C94.0696 53.6593 94.0276 53.7807 93.9436 53.874C93.8596 53.958 93.7383 54 93.5796 54H93.2016C93.0523 54 92.9309 53.958 92.8376 53.874C92.7536 53.7807 92.7116 53.6593 92.7116 53.51V53.188C92.5249 53.5053 92.2543 53.7573 91.8996 53.944C91.5449 54.1213 91.1249 54.21 90.6396 54.21C89.8183 54.21 89.2069 54.0093 88.8056 53.608C88.4043 53.1973 88.2036 52.656 88.2036 51.984V47.588C88.2036 47.4293 88.2456 47.308 88.3296 47.224C88.4229 47.14 88.5443 47.098 88.6936 47.098H89.1976C89.3563 47.098 89.4776 47.14 89.5616 47.224C89.6456 47.308 89.6876 47.4293 89.6876 47.588V51.592C89.6876 52.0213 89.7949 52.3527 90.0096 52.586C90.2336 52.81 90.5556 52.922 90.9756 52.922C91.4609 52.922 91.8483 52.782 92.1376 52.502C92.4363 52.222 92.5856 51.816 92.5856 51.284V47.588ZM99.2918 46.888C100.085 46.888 100.692 47.112 101.112 47.56C101.541 47.9987 101.756 48.568 101.756 49.268V53.51C101.756 53.6593 101.714 53.7807 101.63 53.874C101.546 53.958 101.424 54 101.266 54H100.762C100.612 54 100.491 53.958 100.398 53.874C100.314 53.7807 100.272 53.6593 100.272 53.51V49.73C100.272 49.226 100.146 48.8387 99.8938 48.568C99.6512 48.2973 99.3012 48.162 98.8438 48.162C98.3958 48.162 98.0178 48.316 97.7098 48.624C97.4112 48.932 97.2618 49.3193 97.2618 49.786V53.51C97.2618 53.6593 97.2198 53.7807 97.1358 53.874C97.0518 53.958 96.9305 54 96.7718 54H96.2678C96.1185 54 95.9972 53.958 95.9038 53.874C95.8198 53.7807 95.7778 53.6593 95.7778 53.51V47.588C95.7778 47.4293 95.8198 47.308 95.9038 47.224C95.9972 47.14 96.1185 47.098 96.2678 47.098H96.6738C96.8325 47.098 96.9538 47.14 97.0378 47.224C97.1218 47.308 97.1638 47.4293 97.1638 47.588V47.952C97.3878 47.6067 97.6818 47.3453 98.0458 47.168C98.4098 46.9813 98.8252 46.888 99.2918 46.888ZM106.643 52.824C106.671 52.8147 106.713 52.81 106.769 52.81C107.002 52.81 107.142 52.9453 107.189 53.216L107.231 53.44C107.24 53.468 107.245 53.5147 107.245 53.58C107.245 53.8133 107.114 53.9627 106.853 54.028C106.48 54.112 106.139 54.154 105.831 54.154C105.168 54.154 104.688 54 104.389 53.692C104.1 53.384 103.955 52.922 103.955 52.306V48.232H103.185C103.036 48.232 102.914 48.19 102.821 48.106C102.737 48.0127 102.695 47.8913 102.695 47.742V47.588C102.695 47.4293 102.737 47.308 102.821 47.224C102.914 47.14 103.036 47.098 103.185 47.098H103.955V45.362C103.955 45.2033 103.997 45.082 104.081 44.998C104.174 44.914 104.296 44.872 104.445 44.872H104.949C105.108 44.872 105.229 44.914 105.313 44.998C105.397 45.082 105.439 45.2033 105.439 45.362V47.098H106.699C106.858 47.098 106.979 47.14 107.063 47.224C107.147 47.308 107.189 47.4293 107.189 47.588V47.742C107.189 47.8913 107.147 48.0127 107.063 48.106C106.979 48.19 106.858 48.232 106.699 48.232H105.439V52.124C105.439 52.3947 105.495 52.586 105.607 52.698C105.728 52.81 105.92 52.866 106.181 52.866C106.293 52.866 106.447 52.852 106.643 52.824ZM111.519 47.028C111.724 47.028 111.934 47.0513 112.149 47.098C112.401 47.154 112.527 47.3033 112.527 47.546C112.527 47.6113 112.522 47.658 112.513 47.686L112.443 48.022C112.387 48.2833 112.247 48.414 112.023 48.414L111.897 48.4C111.729 48.372 111.579 48.358 111.449 48.358C110.982 48.358 110.604 48.5447 110.315 48.918C110.035 49.282 109.895 49.7907 109.895 50.444V53.51C109.895 53.6593 109.853 53.7807 109.769 53.874C109.685 53.958 109.563 54 109.405 54H108.901C108.751 54 108.63 53.958 108.537 53.874C108.453 53.7807 108.411 53.6593 108.411 53.51V47.588C108.411 47.4293 108.453 47.308 108.537 47.224C108.63 47.14 108.751 47.098 108.901 47.098H109.307C109.465 47.098 109.587 47.14 109.671 47.224C109.755 47.308 109.797 47.4293 109.797 47.588V48.134C109.965 47.7887 110.193 47.518 110.483 47.322C110.772 47.126 111.117 47.028 111.519 47.028ZM118.107 47.504C118.191 47.2333 118.373 47.098 118.653 47.098H119.157C119.297 47.098 119.405 47.1307 119.479 47.196C119.554 47.2613 119.591 47.35 119.591 47.462C119.591 47.518 119.577 47.5833 119.549 47.658L117.043 54.854C116.819 55.5073 116.539 55.9693 116.203 56.24C115.877 56.52 115.41 56.66 114.803 56.66C114.523 56.66 114.285 56.6413 114.089 56.604C113.959 56.5947 113.861 56.548 113.795 56.464C113.73 56.3893 113.697 56.296 113.697 56.184C113.697 56.1187 113.702 56.0673 113.711 56.03L113.753 55.848C113.819 55.5867 113.959 55.456 114.173 55.456C114.257 55.456 114.337 55.4607 114.411 55.47C114.486 55.4793 114.561 55.484 114.635 55.484C114.906 55.484 115.13 55.414 115.307 55.274C115.494 55.134 115.648 54.8773 115.769 54.504L115.811 54.392L113.417 47.658C113.389 47.5833 113.375 47.5133 113.375 47.448C113.375 47.336 113.413 47.252 113.487 47.196C113.571 47.1307 113.683 47.098 113.823 47.098H114.355C114.645 47.098 114.831 47.2333 114.915 47.504L115.461 49.142C115.872 50.318 116.222 51.396 116.511 52.376L116.917 51.13C116.983 50.934 117.081 50.626 117.211 50.206C117.342 49.786 117.459 49.4267 117.561 49.128L118.107 47.504Z" fill="#464646"/>
<rect x="70.5" y="62.5" width="203" height="47" rx="3.5" fill="white"/>
<path d="M87.136 79.96C87.136 79.7467 87.2427 79.64 87.456 79.64H87.92C88.1333 79.64 88.24 79.7467 88.24 79.96V90.68C88.24 90.8933 88.1333 91 87.92 91H87.2C87.0293 91 86.896 90.9307 86.8 90.792L83.36 85.576L83.168 85.272C81.888 83.352 80.9707 81.9387 80.416 81.032C80.4587 82.28 80.48 83.72 80.48 85.352V90.68C80.48 90.8933 80.3733 91 80.16 91H79.696C79.4827 91 79.376 90.8933 79.376 90.68V79.96C79.376 79.7467 79.4827 79.64 79.696 79.64H80.416C80.5867 79.64 80.72 79.7093 80.816 79.848L84.24 85.048L84.848 85.992C85.9253 87.624 86.7093 88.84 87.2 89.64C87.1573 88.3707 87.136 86.9253 87.136 85.304V79.96ZM96.5374 89.128C96.612 89.0533 96.692 89.016 96.7774 89.016C96.852 89.016 96.9214 89.048 96.9854 89.112L97.1934 89.304C97.268 89.3787 97.3054 89.4587 97.3054 89.544C97.3054 89.608 97.2734 89.6827 97.2094 89.768C96.6867 90.2907 96.18 90.664 95.6894 90.888C95.1987 91.1013 94.6494 91.208 94.0414 91.208C93.2734 91.208 92.6067 91.0373 92.0414 90.696C91.476 90.3547 91.0387 89.88 90.7294 89.272C90.42 88.6533 90.2654 87.9387 90.2654 87.128C90.2654 86.3067 90.4147 85.5813 90.7134 84.952C91.0227 84.312 91.4547 83.816 92.0094 83.464C92.564 83.1013 93.204 82.92 93.9294 82.92C95.0067 82.92 95.8547 83.256 96.4734 83.928C97.092 84.6 97.4014 85.5067 97.4014 86.648V86.84C97.3907 86.936 97.3534 87.0107 97.2894 87.064C97.236 87.1173 97.1614 87.144 97.0654 87.144H91.3374C91.3694 88.04 91.604 88.7973 92.0414 89.416C92.4894 90.024 93.156 90.328 94.0414 90.328C94.5214 90.328 94.9427 90.2427 95.3054 90.072C95.6787 89.8907 96.0894 89.576 96.5374 89.128ZM93.9294 83.8C93.2254 83.8 92.644 84.0187 92.1854 84.456C91.7374 84.8827 91.4654 85.512 91.3694 86.344H96.3454C96.324 85.5653 96.1 84.9467 95.6734 84.488C95.2467 84.0293 94.6654 83.8 93.9294 83.8ZM108.062 83.384C108.105 83.2027 108.227 83.112 108.43 83.112H108.862C108.979 83.112 109.059 83.144 109.102 83.208C109.155 83.272 109.166 83.3573 109.134 83.464L107.07 90.728C107.027 90.9093 106.905 91 106.702 91H105.982C105.801 91 105.683 90.9093 105.63 90.728L104.894 88.28C104.51 87 104.153 85.688 103.822 84.344C103.502 85.6453 103.15 86.968 102.766 88.312L102.062 90.728C102.019 90.9093 101.897 91 101.694 91H101.006C100.803 91 100.681 90.9093 100.638 90.728L98.5741 83.464C98.5635 83.4427 98.5581 83.4053 98.5581 83.352C98.5581 83.2773 98.5848 83.2187 98.6381 83.176C98.6915 83.1333 98.7608 83.112 98.8461 83.112H99.2781C99.4808 83.112 99.6035 83.2027 99.6461 83.384L100.414 86.216C100.766 87.5067 101.091 88.792 101.39 90.072C101.625 89.1227 101.971 87.8373 102.43 86.216L103.246 83.384C103.289 83.2027 103.411 83.112 103.614 83.112H104.094C104.286 83.112 104.403 83.2027 104.446 83.384L105.278 86.216C105.641 87.528 105.982 88.8187 106.302 90.088C106.547 89.0213 106.878 87.7307 107.294 86.216L108.062 83.384ZM122.177 79.64C122.39 79.64 122.497 79.7467 122.497 79.96V80.296C122.497 80.4453 122.454 80.5787 122.369 80.696L115.297 90.056H122.145C122.358 90.056 122.465 90.1627 122.465 90.376V90.68C122.465 90.8933 122.358 91 122.145 91H114.273C114.059 91 113.953 90.8933 113.953 90.68V90.344C113.953 90.1947 113.995 90.0613 114.081 89.944L121.153 80.584H114.609C114.395 80.584 114.289 80.4773 114.289 80.264V79.96C114.289 79.7467 114.395 79.64 114.609 79.64H122.177ZM129.662 89.128C129.737 89.0533 129.817 89.016 129.902 89.016C129.977 89.016 130.046 89.048 130.11 89.112L130.318 89.304C130.393 89.3787 130.43 89.4587 130.43 89.544C130.43 89.608 130.398 89.6827 130.334 89.768C129.812 90.2907 129.305 90.664 128.814 90.888C128.324 91.1013 127.774 91.208 127.166 91.208C126.398 91.208 125.732 91.0373 125.166 90.696C124.601 90.3547 124.164 89.88 123.854 89.272C123.545 88.6533 123.39 87.9387 123.39 87.128C123.39 86.3067 123.54 85.5813 123.838 84.952C124.148 84.312 124.58 83.816 125.134 83.464C125.689 83.1013 126.329 82.92 127.054 82.92C128.132 82.92 128.98 83.256 129.598 83.928C130.217 84.6 130.526 85.5067 130.526 86.648V86.84C130.516 86.936 130.478 87.0107 130.414 87.064C130.361 87.1173 130.286 87.144 130.19 87.144H124.462C124.494 88.04 124.729 88.7973 125.166 89.416C125.614 90.024 126.281 90.328 127.166 90.328C127.646 90.328 128.068 90.2427 128.43 90.072C128.804 89.8907 129.214 89.576 129.662 89.128ZM127.054 83.8C126.35 83.8 125.769 84.0187 125.31 84.456C124.862 84.8827 124.59 85.512 124.494 86.344H129.47C129.449 85.5653 129.225 84.9467 128.798 84.488C128.372 84.0293 127.79 83.8 127.054 83.8ZM135.318 82.92C136.288 82.92 137.046 83.1547 137.59 83.624C138.134 84.0827 138.406 84.6907 138.406 85.448V90.68C138.406 90.8933 138.299 91 138.086 91H137.766C137.552 91 137.446 90.8933 137.446 90.68V89.96C137.179 90.3867 136.8 90.7067 136.31 90.92C135.83 91.1333 135.291 91.24 134.694 91.24C133.862 91.24 133.184 91.064 132.662 90.712C132.139 90.36 131.878 89.816 131.878 89.08C131.878 88.4933 132.043 88.024 132.374 87.672C132.704 87.3093 133.136 87.0373 133.67 86.856C134.203 86.664 134.87 86.4933 135.67 86.344L137.398 86.04V85.528C137.398 84.984 137.211 84.5627 136.838 84.264C136.464 83.9547 135.974 83.8 135.366 83.8C134.907 83.8 134.491 83.8853 134.118 84.056C133.744 84.2267 133.344 84.52 132.918 84.936C132.843 85.0107 132.763 85.048 132.678 85.048C132.603 85.048 132.534 85.016 132.47 84.952L132.262 84.76C132.187 84.6853 132.15 84.6053 132.15 84.52C132.15 84.424 132.187 84.3387 132.262 84.264C132.71 83.7947 133.179 83.4533 133.67 83.24C134.171 83.0267 134.72 82.92 135.318 82.92ZM134.742 90.36C135.51 90.36 136.144 90.1573 136.646 89.752C137.147 89.3467 137.398 88.8293 137.398 88.2V86.856L135.91 87.144C135.216 87.2827 134.667 87.416 134.262 87.544C133.856 87.672 133.531 87.8587 133.286 88.104C133.04 88.3493 132.918 88.6693 132.918 89.064C132.918 89.4693 133.078 89.7893 133.398 90.024C133.728 90.248 134.176 90.36 134.742 90.36ZM141.083 91C140.869 91 140.763 90.8933 140.763 90.68V79.96C140.763 79.7467 140.869 79.64 141.083 79.64H141.499C141.712 79.64 141.819 79.7467 141.819 79.96V90.68C141.819 90.8933 141.712 91 141.499 91H141.083ZM147.24 82.92C148.21 82.92 148.968 83.1547 149.512 83.624C150.056 84.0827 150.328 84.6907 150.328 85.448V90.68C150.328 90.8933 150.221 91 150.008 91H149.688C149.474 91 149.368 90.8933 149.368 90.68V89.96C149.101 90.3867 148.722 90.7067 148.232 90.92C147.752 91.1333 147.213 91.24 146.616 91.24C145.784 91.24 145.106 91.064 144.584 90.712C144.061 90.36 143.8 89.816 143.8 89.08C143.8 88.4933 143.965 88.024 144.296 87.672C144.626 87.3093 145.058 87.0373 145.592 86.856C146.125 86.664 146.792 86.4933 147.592 86.344L149.32 86.04V85.528C149.32 84.984 149.133 84.5627 148.76 84.264C148.386 83.9547 147.896 83.8 147.288 83.8C146.829 83.8 146.413 83.8853 146.04 84.056C145.666 84.2267 145.266 84.52 144.84 84.936C144.765 85.0107 144.685 85.048 144.6 85.048C144.525 85.048 144.456 85.016 144.392 84.952L144.184 84.76C144.109 84.6853 144.072 84.6053 144.072 84.52C144.072 84.424 144.109 84.3387 144.184 84.264C144.632 83.7947 145.101 83.4533 145.592 83.24C146.093 83.0267 146.642 82.92 147.24 82.92ZM146.664 90.36C147.432 90.36 148.066 90.1573 148.568 89.752C149.069 89.3467 149.32 88.8293 149.32 88.2V86.856L147.832 87.144C147.138 87.2827 146.589 87.416 146.184 87.544C145.778 87.672 145.453 87.8587 145.208 88.104C144.962 88.3493 144.84 88.6693 144.84 89.064C144.84 89.4693 145 89.7893 145.32 90.024C145.65 90.248 146.098 90.36 146.664 90.36ZM156.188 82.92C157.116 82.92 157.815 83.176 158.284 83.688C158.764 84.2 159.004 84.84 159.004 85.608V90.68C159.004 90.8933 158.898 91 158.684 91H158.268C158.055 91 157.948 90.8933 157.948 90.68V85.96C157.948 85.256 157.778 84.7227 157.436 84.36C157.095 83.9973 156.604 83.816 155.964 83.816C155.559 83.816 155.186 83.9173 154.844 84.12C154.503 84.312 154.231 84.5787 154.028 84.92C153.826 85.2613 153.724 85.6347 153.724 86.04V90.68C153.724 90.8933 153.618 91 153.404 91H152.988C152.775 91 152.668 90.8933 152.668 90.68V83.432C152.668 83.2187 152.775 83.112 152.988 83.112H153.34C153.554 83.112 153.66 83.2187 153.66 83.432V84.2C153.927 83.7733 154.279 83.4533 154.716 83.24C155.154 83.0267 155.644 82.92 156.188 82.92ZM167.036 79.96C167.036 79.7467 167.143 79.64 167.356 79.64H167.772C167.986 79.64 168.092 79.7467 168.092 79.96V90.68C168.092 90.8933 167.986 91 167.772 91H167.436C167.223 91 167.116 90.8933 167.116 90.68V89.64C166.828 90.1413 166.45 90.5253 165.98 90.792C165.511 91.0587 164.956 91.192 164.316 91.192C163.644 91.192 163.047 91.0213 162.524 90.68C162.002 90.328 161.591 89.8427 161.292 89.224C160.994 88.5947 160.844 87.8747 160.844 87.064C160.844 86.2533 160.994 85.5387 161.292 84.92C161.602 84.2907 162.023 83.8053 162.556 83.464C163.09 83.112 163.687 82.936 164.348 82.936C165.564 82.936 166.46 83.3893 167.036 84.296V79.96ZM164.396 90.296C165.196 90.296 165.842 90.0133 166.332 89.448C166.834 88.872 167.084 88.0773 167.084 87.064C167.084 86.0613 166.834 85.272 166.332 84.696C165.842 84.12 165.196 83.832 164.396 83.832C163.66 83.832 163.063 84.1307 162.604 84.728C162.156 85.3253 161.932 86.104 161.932 87.064C161.932 88.0347 162.156 88.8187 162.604 89.416C163.052 90.0027 163.65 90.296 164.396 90.296Z" fill="#464646"/>
<path d="M252.5 83.5L258 89L263.5 83.5" stroke="#464646" stroke-width="1.5" stroke-linecap="round" stroke-linejoin="round"/>
<rect x="70.5" y="62.5" width="203" height="47" rx="3.5" stroke="#C3CCD9"/>
</svg>
