<svg width="344" height="320" viewBox="0 0 344 320" fill="none" xmlns="http://www.w3.org/2000/svg">
<rect width="344" height="320" fill="#F5F5F5"/>
<path d="M74.4634 55C74.3034 55 74.2234 54.92 74.2234 54.76V46.72C74.2234 46.56 74.3034 46.48 74.4634 46.48H74.8354C74.9954 46.48 75.0754 46.56 75.0754 46.72V54.292H78.9034C79.0634 54.292 79.1434 54.372 79.1434 54.532V54.76C79.1434 54.92 79.0634 55 78.9034 55H74.4634ZM82.7461 48.94C83.4741 48.94 84.0421 49.116 84.4501 49.468C84.8581 49.812 85.0621 50.268 85.0621 50.836V54.76C85.0621 54.92 84.9821 55 84.8221 55H84.5821C84.4221 55 84.3421 54.92 84.3421 54.76V54.22C84.1421 54.54 83.8581 54.78 83.4901 54.94C83.1301 55.1 82.7261 55.18 82.2781 55.18C81.6541 55.18 81.1461 55.048 80.7541 54.784C80.3621 54.52 80.1661 54.112 80.1661 53.56C80.1661 53.12 80.2901 52.768 80.5381 52.504C80.7861 52.232 81.1101 52.028 81.5101 51.892C81.9101 51.748 82.4101 51.62 83.0101 51.508L84.3061 51.28V50.896C84.3061 50.488 84.1661 50.172 83.8861 49.948C83.6061 49.716 83.2381 49.6 82.7821 49.6C82.4381 49.6 82.1261 49.664 81.8461 49.792C81.5661 49.92 81.2661 50.14 80.9461 50.452C80.8901 50.508 80.8301 50.536 80.7661 50.536C80.7101 50.536 80.6581 50.512 80.6101 50.464L80.4541 50.32C80.3981 50.264 80.3701 50.204 80.3701 50.14C80.3701 50.068 80.3981 50.004 80.4541 49.948C80.7901 49.596 81.1421 49.34 81.5101 49.18C81.8861 49.02 82.2981 48.94 82.7461 48.94ZM82.3141 54.52C82.8901 54.52 83.3661 54.368 83.7421 54.064C84.1181 53.76 84.3061 53.372 84.3061 52.9V51.892L83.1901 52.108C82.6701 52.212 82.2581 52.312 81.9541 52.408C81.6501 52.504 81.4061 52.644 81.2221 52.828C81.0381 53.012 80.9461 53.252 80.9461 53.548C80.9461 53.852 81.0661 54.092 81.3061 54.268C81.5541 54.436 81.8901 54.52 82.3141 54.52ZM89.6497 48.952C90.1537 48.952 90.6017 49.084 90.9937 49.348C91.3937 49.604 91.7017 49.968 91.9177 50.44C92.1417 50.904 92.2537 51.44 92.2537 52.048C92.2537 52.656 92.1417 53.196 91.9177 53.668C91.6937 54.132 91.3817 54.496 90.9817 54.76C90.5897 55.016 90.1457 55.144 89.6497 55.144C88.6977 55.144 88.0017 54.776 87.5617 54.04V54.76C87.5617 54.92 87.4817 55 87.3217 55H87.0577C86.8977 55 86.8177 54.92 86.8177 54.76V46.708C86.8177 46.548 86.8977 46.468 87.0577 46.468H87.3697C87.5297 46.468 87.6097 46.548 87.6097 46.708V50.02C88.0497 49.308 88.7297 48.952 89.6497 48.952ZM89.5897 54.472C90.1417 54.472 90.5857 54.248 90.9217 53.8C91.2657 53.352 91.4377 52.768 91.4377 52.048C91.4377 51.328 91.2657 50.744 90.9217 50.296C90.5857 49.848 90.1417 49.624 89.5897 49.624C88.9977 49.624 88.5137 49.84 88.1377 50.272C87.7617 50.704 87.5737 51.296 87.5737 52.048C87.5737 52.808 87.7577 53.404 88.1257 53.836C88.5017 54.26 88.9897 54.472 89.5897 54.472ZM98.0398 53.596C98.0958 53.54 98.1558 53.512 98.2198 53.512C98.2758 53.512 98.3278 53.536 98.3758 53.584L98.5318 53.728C98.5878 53.784 98.6158 53.844 98.6158 53.908C98.6158 53.956 98.5918 54.012 98.5438 54.076C98.1518 54.468 97.7718 54.748 97.4038 54.916C97.0358 55.076 96.6238 55.156 96.1678 55.156C95.5918 55.156 95.0918 55.028 94.6678 54.772C94.2438 54.516 93.9158 54.16 93.6838 53.704C93.4518 53.24 93.3358 52.704 93.3358 52.096C93.3358 51.48 93.4478 50.936 93.6718 50.464C93.9038 49.984 94.2278 49.612 94.6438 49.348C95.0598 49.076 95.5398 48.94 96.0838 48.94C96.8918 48.94 97.5278 49.192 97.9918 49.696C98.4558 50.2 98.6878 50.88 98.6878 51.736V51.88C98.6798 51.952 98.6518 52.008 98.6038 52.048C98.5638 52.088 98.5078 52.108 98.4358 52.108H94.1398C94.1638 52.78 94.3398 53.348 94.6678 53.812C95.0038 54.268 95.5038 54.496 96.1678 54.496C96.5278 54.496 96.8438 54.432 97.1158 54.304C97.3958 54.168 97.7038 53.932 98.0398 53.596ZM96.0838 49.6C95.5558 49.6 95.1198 49.764 94.7758 50.092C94.4398 50.412 94.2358 50.884 94.1638 51.508H97.8958C97.8798 50.924 97.7118 50.46 97.3918 50.116C97.0718 49.772 96.6358 49.6 96.0838 49.6ZM100.359 55C100.199 55 100.119 54.92 100.119 54.76V46.72C100.119 46.56 100.199 46.48 100.359 46.48H100.671C100.831 46.48 100.911 46.56 100.911 46.72V54.76C100.911 54.92 100.831 55 100.671 55H100.359Z" fill="#464646"/>
<path d="M120.764 80.18C119.956 80.18 119.252 79.992 118.652 79.616C118.052 79.232 117.592 78.704 117.272 78.032C116.952 77.36 116.792 76.596 116.792 75.74C116.792 74.884 116.952 74.12 117.272 73.448C117.592 72.776 118.052 72.252 118.652 71.876C119.252 71.492 119.956 71.3 120.764 71.3C121.572 71.3 122.276 71.492 122.876 71.876C123.476 72.252 123.936 72.776 124.256 73.448C124.576 74.12 124.736 74.884 124.736 75.74C124.736 76.596 124.576 77.36 124.256 78.032C123.936 78.704 123.476 79.232 122.876 79.616C122.276 79.992 121.572 80.18 120.764 80.18ZM120.764 79.448C121.38 79.448 121.924 79.292 122.396 78.98C122.868 78.66 123.232 78.22 123.488 77.66C123.752 77.092 123.884 76.452 123.884 75.74C123.884 75.028 123.752 74.392 123.488 73.832C123.232 73.264 122.868 72.824 122.396 72.512C121.924 72.192 121.38 72.032 120.764 72.032C120.148 72.032 119.604 72.192 119.132 72.512C118.66 72.824 118.292 73.264 118.028 73.832C117.772 74.392 117.644 75.028 117.644 75.74C117.644 76.452 117.772 77.092 118.028 77.66C118.292 78.22 118.66 78.66 119.132 78.98C119.604 79.292 120.148 79.448 120.764 79.448ZM128.984 73.952C129.48 73.952 129.924 74.084 130.316 74.348C130.716 74.604 131.028 74.968 131.252 75.44C131.476 75.904 131.588 76.436 131.588 77.036C131.588 77.644 131.476 78.184 131.252 78.656C131.028 79.128 130.72 79.496 130.328 79.76C129.936 80.016 129.488 80.144 128.984 80.144C128.056 80.144 127.376 79.804 126.944 79.124V81.968C126.944 82.128 126.864 82.208 126.704 82.208H126.392C126.232 82.208 126.152 82.128 126.152 81.968V74.324C126.152 74.164 126.232 74.084 126.392 74.084H126.656C126.816 74.084 126.896 74.164 126.896 74.324V75.08C127.112 74.712 127.396 74.432 127.748 74.24C128.1 74.048 128.512 73.952 128.984 73.952ZM128.924 79.472C129.484 79.472 129.932 79.248 130.268 78.8C130.604 78.352 130.772 77.764 130.772 77.036C130.772 76.316 130.604 75.736 130.268 75.296C129.932 74.848 129.484 74.624 128.924 74.624C128.324 74.624 127.836 74.84 127.46 75.272C127.092 75.696 126.908 76.284 126.908 77.036C126.908 77.788 127.096 78.384 127.472 78.824C127.848 79.256 128.332 79.472 128.924 79.472ZM135.484 79.34C135.508 79.332 135.54 79.328 135.58 79.328C135.628 79.328 135.672 79.344 135.712 79.376C135.752 79.408 135.776 79.452 135.784 79.508L135.82 79.676C135.828 79.692 135.832 79.72 135.832 79.76C135.832 79.872 135.772 79.94 135.652 79.964C135.364 80.052 135.056 80.096 134.728 80.096C134.208 80.096 133.836 79.98 133.612 79.748C133.396 79.508 133.288 79.164 133.288 78.716V74.684H132.4C132.24 74.684 132.16 74.604 132.16 74.444V74.324C132.16 74.164 132.24 74.084 132.4 74.084H133.288V72.26C133.288 72.1 133.368 72.02 133.528 72.02H133.84C134 72.02 134.08 72.1 134.08 72.26V74.084H135.52C135.68 74.084 135.76 74.164 135.76 74.324V74.444C135.76 74.604 135.68 74.684 135.52 74.684H134.08V78.62C134.08 78.916 134.136 79.124 134.248 79.244C134.36 79.364 134.552 79.424 134.824 79.424C135.016 79.424 135.236 79.396 135.484 79.34ZM137.364 72.584C137.204 72.584 137.068 72.528 136.956 72.416C136.852 72.304 136.8 72.168 136.8 72.008C136.8 71.848 136.852 71.716 136.956 71.612C137.068 71.508 137.204 71.456 137.364 71.456C137.532 71.456 137.668 71.508 137.772 71.612C137.884 71.716 137.94 71.848 137.94 72.008C137.94 72.168 137.884 72.304 137.772 72.416C137.668 72.528 137.532 72.584 137.364 72.584ZM137.208 80C137.048 80 136.968 79.92 136.968 79.76V74.324C136.968 74.164 137.048 74.084 137.208 74.084H137.52C137.68 74.084 137.76 74.164 137.76 74.324V79.76C137.76 79.92 137.68 80 137.52 80H137.208ZM141.971 80.156C141.419 80.156 140.927 80.024 140.495 79.76C140.063 79.496 139.727 79.132 139.487 78.668C139.247 78.196 139.127 77.656 139.127 77.048C139.127 76.44 139.247 75.904 139.487 75.44C139.727 74.968 140.063 74.6 140.495 74.336C140.927 74.072 141.419 73.94 141.971 73.94C142.523 73.94 143.015 74.072 143.447 74.336C143.879 74.6 144.215 74.968 144.455 75.44C144.695 75.904 144.815 76.44 144.815 77.048C144.815 77.656 144.695 78.196 144.455 78.668C144.215 79.132 143.879 79.496 143.447 79.76C143.015 80.024 142.523 80.156 141.971 80.156ZM141.971 79.496C142.587 79.496 143.079 79.272 143.447 78.824C143.815 78.368 143.999 77.776 143.999 77.048C143.999 76.32 143.815 75.732 143.447 75.284C143.079 74.828 142.587 74.6 141.971 74.6C141.355 74.6 140.863 74.828 140.495 75.284C140.127 75.732 139.943 76.32 139.943 77.048C139.943 77.776 140.127 78.368 140.495 78.824C140.863 79.272 141.355 79.496 141.971 79.496ZM148.831 73.94C149.527 73.94 150.051 74.132 150.403 74.516C150.763 74.9 150.943 75.38 150.943 75.956V79.76C150.943 79.92 150.863 80 150.703 80H150.391C150.231 80 150.151 79.92 150.151 79.76V76.22C150.151 75.692 150.023 75.292 149.767 75.02C149.511 74.748 149.143 74.612 148.663 74.612C148.359 74.612 148.079 74.688 147.823 74.84C147.567 74.984 147.363 75.184 147.211 75.44C147.059 75.696 146.983 75.976 146.983 76.28V79.76C146.983 79.92 146.903 80 146.743 80H146.431C146.271 80 146.191 79.92 146.191 79.76V74.324C146.191 74.164 146.271 74.084 146.431 74.084H146.695C146.855 74.084 146.935 74.164 146.935 74.324V74.9C147.135 74.58 147.399 74.34 147.727 74.18C148.055 74.02 148.423 73.94 148.831 73.94ZM154.975 73.94C155.703 73.94 156.271 74.116 156.679 74.468C157.087 74.812 157.291 75.268 157.291 75.836V79.76C157.291 79.92 157.211 80 157.051 80H156.811C156.651 80 156.571 79.92 156.571 79.76V79.22C156.371 79.54 156.087 79.78 155.719 79.94C155.359 80.1 154.955 80.18 154.507 80.18C153.883 80.18 153.375 80.048 152.983 79.784C152.591 79.52 152.395 79.112 152.395 78.56C152.395 78.12 152.519 77.768 152.767 77.504C153.015 77.232 153.339 77.028 153.739 76.892C154.139 76.748 154.639 76.62 155.239 76.508L156.535 76.28V75.896C156.535 75.488 156.395 75.172 156.115 74.948C155.835 74.716 155.467 74.6 155.011 74.6C154.667 74.6 154.355 74.664 154.075 74.792C153.795 74.92 153.495 75.14 153.175 75.452C153.119 75.508 153.059 75.536 152.995 75.536C152.939 75.536 152.887 75.512 152.839 75.464L152.683 75.32C152.627 75.264 152.599 75.204 152.599 75.14C152.599 75.068 152.627 75.004 152.683 74.948C153.019 74.596 153.371 74.34 153.739 74.18C154.115 74.02 154.527 73.94 154.975 73.94ZM154.543 79.52C155.119 79.52 155.595 79.368 155.971 79.064C156.347 78.76 156.535 78.372 156.535 77.9V76.892L155.419 77.108C154.899 77.212 154.487 77.312 154.183 77.408C153.879 77.504 153.635 77.644 153.451 77.828C153.267 78.012 153.175 78.252 153.175 78.548C153.175 78.852 153.295 79.092 153.535 79.268C153.783 79.436 154.119 79.52 154.543 79.52ZM159.298 80C159.138 80 159.058 79.92 159.058 79.76V71.72C159.058 71.56 159.138 71.48 159.298 71.48H159.61C159.77 71.48 159.85 71.56 159.85 71.72V79.76C159.85 79.92 159.77 80 159.61 80H159.298Z" fill="#464646"/>
<path d="M37.2622 271C37.1022 271 37.0222 270.92 37.0222 270.76V262.72C37.0222 262.56 37.1022 262.48 37.2622 262.48H37.6342C37.7942 262.48 37.8742 262.56 37.8742 262.72V266.248H42.7942V262.72C42.7942 262.56 42.8742 262.48 43.0342 262.48H43.4062C43.5662 262.48 43.6462 262.56 43.6462 262.72V270.76C43.6462 270.92 43.5662 271 43.4062 271H43.0342C42.8742 271 42.7942 270.92 42.7942 270.76V266.956H37.8742V270.76C37.8742 270.92 37.7942 271 37.6342 271H37.2622ZM49.8698 269.596C49.9258 269.54 49.9858 269.512 50.0498 269.512C50.1058 269.512 50.1578 269.536 50.2058 269.584L50.3618 269.728C50.4178 269.784 50.4458 269.844 50.4458 269.908C50.4458 269.956 50.4218 270.012 50.3738 270.076C49.9818 270.468 49.6018 270.748 49.2338 270.916C48.8658 271.076 48.4538 271.156 47.9978 271.156C47.4218 271.156 46.9218 271.028 46.4978 270.772C46.0738 270.516 45.7458 270.16 45.5138 269.704C45.2818 269.24 45.1658 268.704 45.1658 268.096C45.1658 267.48 45.2778 266.936 45.5018 266.464C45.7338 265.984 46.0578 265.612 46.4738 265.348C46.8898 265.076 47.3698 264.94 47.9138 264.94C48.7218 264.94 49.3578 265.192 49.8218 265.696C50.2858 266.2 50.5178 266.88 50.5178 267.736V267.88C50.5098 267.952 50.4818 268.008 50.4338 268.048C50.3938 268.088 50.3378 268.108 50.2658 268.108H45.9698C45.9938 268.78 46.1698 269.348 46.4978 269.812C46.8338 270.268 47.3338 270.496 47.9978 270.496C48.3578 270.496 48.6738 270.432 48.9458 270.304C49.2258 270.168 49.5338 269.932 49.8698 269.596ZM47.9138 265.6C47.3858 265.6 46.9498 265.764 46.6058 266.092C46.2698 266.412 46.0658 266.884 45.9938 267.508H49.7258C49.7098 266.924 49.5418 266.46 49.2218 266.116C48.9018 265.772 48.4658 265.6 47.9138 265.6ZM52.1888 271C52.0288 271 51.9488 270.92 51.9488 270.76V262.72C51.9488 262.56 52.0288 262.48 52.1888 262.48H52.5008C52.6608 262.48 52.7408 262.56 52.7408 262.72V270.76C52.7408 270.92 52.6608 271 52.5008 271H52.1888ZM57.3587 264.952C57.8547 264.952 58.2987 265.084 58.6907 265.348C59.0907 265.604 59.4027 265.968 59.6267 266.44C59.8507 266.904 59.9627 267.436 59.9627 268.036C59.9627 268.644 59.8507 269.184 59.6267 269.656C59.4027 270.128 59.0947 270.496 58.7027 270.76C58.3107 271.016 57.8627 271.144 57.3587 271.144C56.4307 271.144 55.7507 270.804 55.3187 270.124V272.968C55.3187 273.128 55.2387 273.208 55.0787 273.208H54.7667C54.6067 273.208 54.5267 273.128 54.5267 272.968V265.324C54.5267 265.164 54.6067 265.084 54.7667 265.084H55.0307C55.1907 265.084 55.2707 265.164 55.2707 265.324V266.08C55.4867 265.712 55.7707 265.432 56.1227 265.24C56.4747 265.048 56.8867 264.952 57.3587 264.952ZM57.2987 270.472C57.8587 270.472 58.3067 270.248 58.6427 269.8C58.9787 269.352 59.1467 268.764 59.1467 268.036C59.1467 267.316 58.9787 266.736 58.6427 266.296C58.3067 265.848 57.8587 265.624 57.2987 265.624C56.6987 265.624 56.2107 265.84 55.8347 266.272C55.4667 266.696 55.2827 267.284 55.2827 268.036C55.2827 268.788 55.4707 269.384 55.8467 269.824C56.2227 270.256 56.7067 270.472 57.2987 270.472ZM66.8 270.34C66.824 270.332 66.856 270.328 66.896 270.328C66.944 270.328 66.988 270.344 67.028 270.376C67.068 270.408 67.092 270.452 67.1 270.508L67.136 270.676C67.144 270.692 67.148 270.72 67.148 270.76C67.148 270.872 67.088 270.94 66.968 270.964C66.68 271.052 66.372 271.096 66.044 271.096C65.524 271.096 65.152 270.98 64.928 270.748C64.712 270.508 64.604 270.164 64.604 269.716V265.684H63.716C63.556 265.684 63.476 265.604 63.476 265.444V265.324C63.476 265.164 63.556 265.084 63.716 265.084H64.604V263.26C64.604 263.1 64.684 263.02 64.844 263.02H65.156C65.316 263.02 65.396 263.1 65.396 263.26V265.084H66.836C66.996 265.084 67.076 265.164 67.076 265.324V265.444C67.076 265.604 66.996 265.684 66.836 265.684H65.396V269.62C65.396 269.916 65.452 270.124 65.564 270.244C65.676 270.364 65.868 270.424 66.14 270.424C66.332 270.424 66.552 270.396 66.8 270.34ZM72.3698 269.596C72.4258 269.54 72.4858 269.512 72.5498 269.512C72.6058 269.512 72.6578 269.536 72.7058 269.584L72.8618 269.728C72.9178 269.784 72.9458 269.844 72.9458 269.908C72.9458 269.956 72.9218 270.012 72.8738 270.076C72.4818 270.468 72.1018 270.748 71.7338 270.916C71.3658 271.076 70.9538 271.156 70.4978 271.156C69.9218 271.156 69.4218 271.028 68.9978 270.772C68.5738 270.516 68.2458 270.16 68.0138 269.704C67.7818 269.24 67.6658 268.704 67.6658 268.096C67.6658 267.48 67.7778 266.936 68.0018 266.464C68.2338 265.984 68.5578 265.612 68.9738 265.348C69.3898 265.076 69.8698 264.94 70.4138 264.94C71.2218 264.94 71.8578 265.192 72.3218 265.696C72.7858 266.2 73.0178 266.88 73.0178 267.736V267.88C73.0098 267.952 72.9818 268.008 72.9338 268.048C72.8938 268.088 72.8378 268.108 72.7658 268.108H68.4698C68.4938 268.78 68.6698 269.348 68.9978 269.812C69.3338 270.268 69.8338 270.496 70.4978 270.496C70.8578 270.496 71.1738 270.432 71.4458 270.304C71.7258 270.168 72.0338 269.932 72.3698 269.596ZM70.4138 265.6C69.8858 265.6 69.4498 265.764 69.1058 266.092C68.7698 266.412 68.5658 266.884 68.4938 267.508H72.2258C72.2098 266.924 72.0418 266.46 71.7218 266.116C71.4018 265.772 70.9658 265.6 70.4138 265.6ZM78.6285 270.712C78.6605 270.768 78.6765 270.816 78.6765 270.856C78.6765 270.952 78.6125 271 78.4845 271H78.1245C78.0045 271 77.9085 270.948 77.8365 270.844L76.2045 268.444L74.5845 270.844C74.5125 270.948 74.4165 271 74.2965 271H73.9605C73.8965 271 73.8445 270.988 73.8045 270.964C73.7725 270.932 73.7565 270.896 73.7565 270.856C73.7565 270.8 73.7725 270.752 73.8045 270.712L75.7485 267.916L73.9605 265.372C73.9285 265.332 73.9125 265.288 73.9125 265.24C73.9125 265.136 73.9805 265.084 74.1165 265.084H74.4645C74.5845 265.084 74.6805 265.136 74.7525 265.24L76.2165 267.388L77.6685 265.24C77.7405 265.136 77.8365 265.084 77.9565 265.084H78.2805C78.3445 265.084 78.3925 265.1 78.4245 265.132C78.4645 265.156 78.4845 265.188 78.4845 265.228C78.4845 265.284 78.4685 265.332 78.4365 265.372L76.6845 267.88L78.6285 270.712ZM82.6086 270.34C82.6326 270.332 82.6646 270.328 82.7046 270.328C82.7526 270.328 82.7966 270.344 82.8366 270.376C82.8766 270.408 82.9006 270.452 82.9086 270.508L82.9446 270.676C82.9526 270.692 82.9566 270.72 82.9566 270.76C82.9566 270.872 82.8966 270.94 82.7766 270.964C82.4886 271.052 82.1806 271.096 81.8526 271.096C81.3326 271.096 80.9606 270.98 80.7366 270.748C80.5206 270.508 80.4126 270.164 80.4126 269.716V265.684H79.5246C79.3646 265.684 79.2846 265.604 79.2846 265.444V265.324C79.2846 265.164 79.3646 265.084 79.5246 265.084H80.4126V263.26C80.4126 263.1 80.4926 263.02 80.6526 263.02H80.9646C81.1246 263.02 81.2046 263.1 81.2046 263.26V265.084H82.6446C82.8046 265.084 82.8846 265.164 82.8846 265.324V265.444C82.8846 265.604 82.8046 265.684 82.6446 265.684H81.2046V269.62C81.2046 269.916 81.2606 270.124 81.3726 270.244C81.4846 270.364 81.6766 270.424 81.9486 270.424C82.1406 270.424 82.3606 270.396 82.6086 270.34ZM89.5227 272.872C89.4747 272.92 89.4187 272.944 89.3547 272.944C89.2907 272.944 89.2347 272.912 89.1867 272.848C88.4587 272.032 87.8987 271.184 87.5067 270.304C87.1227 269.424 86.9307 268.428 86.9307 267.316C86.9307 266.204 87.1227 265.208 87.5067 264.328C87.8987 263.448 88.4587 262.6 89.1867 261.784C89.2347 261.72 89.2907 261.688 89.3547 261.688C89.4187 261.688 89.4747 261.712 89.5227 261.76L89.6787 261.904C89.7427 261.952 89.7747 262.012 89.7747 262.084C89.7747 262.14 89.7507 262.192 89.7027 262.24C89.0467 263.04 88.5547 263.84 88.2267 264.64C87.9067 265.44 87.7467 266.332 87.7467 267.316C87.7467 268.292 87.9107 269.184 88.2387 269.992C88.5667 270.792 89.0547 271.592 89.7027 272.392C89.7507 272.44 89.7747 272.492 89.7747 272.548C89.7747 272.62 89.7427 272.68 89.6787 272.728L89.5227 272.872ZM95.0213 262.72C95.0213 262.56 95.1013 262.48 95.2613 262.48H95.5733C95.7333 262.48 95.8133 262.56 95.8133 262.72V270.76C95.8133 270.92 95.7333 271 95.5733 271H95.3213C95.1613 271 95.0813 270.92 95.0813 270.76V269.98C94.8653 270.356 94.5813 270.644 94.2293 270.844C93.8773 271.044 93.4613 271.144 92.9813 271.144C92.4773 271.144 92.0293 271.016 91.6373 270.76C91.2453 270.496 90.9373 270.132 90.7133 269.668C90.4893 269.196 90.3773 268.656 90.3773 268.048C90.3773 267.44 90.4893 266.904 90.7133 266.44C90.9453 265.968 91.2613 265.604 91.6613 265.348C92.0613 265.084 92.5093 264.952 93.0053 264.952C93.9173 264.952 94.5893 265.292 95.0213 265.972V262.72ZM93.0413 270.472C93.6413 270.472 94.1253 270.26 94.4933 269.836C94.8693 269.404 95.0573 268.808 95.0573 268.048C95.0573 267.296 94.8693 266.704 94.4933 266.272C94.1253 265.84 93.6413 265.624 93.0413 265.624C92.4893 265.624 92.0413 265.848 91.6973 266.296C91.3613 266.744 91.1933 267.328 91.1933 268.048C91.1933 268.776 91.3613 269.364 91.6973 269.812C92.0333 270.252 92.4813 270.472 93.0413 270.472ZM101.901 269.596C101.957 269.54 102.017 269.512 102.081 269.512C102.137 269.512 102.189 269.536 102.237 269.584L102.393 269.728C102.449 269.784 102.477 269.844 102.477 269.908C102.477 269.956 102.453 270.012 102.405 270.076C102.013 270.468 101.633 270.748 101.265 270.916C100.897 271.076 100.485 271.156 100.029 271.156C99.4531 271.156 98.9531 271.028 98.5291 270.772C98.1051 270.516 97.7771 270.16 97.5451 269.704C97.3131 269.24 97.1971 268.704 97.1971 268.096C97.1971 267.48 97.3091 266.936 97.5331 266.464C97.7651 265.984 98.0891 265.612 98.5051 265.348C98.9211 265.076 99.4011 264.94 99.9451 264.94C100.753 264.94 101.389 265.192 101.853 265.696C102.317 266.2 102.549 266.88 102.549 267.736V267.88C102.541 267.952 102.513 268.008 102.465 268.048C102.425 268.088 102.369 268.108 102.297 268.108H98.0011C98.0251 268.78 98.2011 269.348 98.5291 269.812C98.8651 270.268 99.3651 270.496 100.029 270.496C100.389 270.496 100.705 270.432 100.977 270.304C101.257 270.168 101.565 269.932 101.901 269.596ZM99.9451 265.6C99.4171 265.6 98.9811 265.764 98.6371 266.092C98.3011 266.412 98.0971 266.884 98.0251 267.508H101.757C101.741 266.924 101.573 266.46 101.253 266.116C100.933 265.772 100.497 265.6 99.9451 265.6ZM106.079 271.156C105.591 271.156 105.159 271.088 104.783 270.952C104.415 270.808 104.027 270.568 103.619 270.232C103.547 270.184 103.511 270.128 103.511 270.064C103.511 270.008 103.539 269.952 103.595 269.896L103.751 269.728C103.799 269.664 103.859 269.632 103.931 269.632C103.987 269.632 104.039 269.656 104.087 269.704C104.471 270 104.811 270.208 105.107 270.328C105.403 270.44 105.727 270.496 106.079 270.496C106.519 270.496 106.879 270.4 107.159 270.208C107.439 270.008 107.579 269.74 107.579 269.404C107.579 269.068 107.435 268.82 107.147 268.66C106.859 268.5 106.415 268.356 105.815 268.228C105.287 268.116 104.871 268 104.567 267.88C104.271 267.752 104.051 267.592 103.907 267.4C103.763 267.208 103.691 266.956 103.691 266.644C103.691 266.132 103.899 265.72 104.315 265.408C104.731 265.096 105.255 264.94 105.887 264.94C106.319 264.94 106.703 264.996 107.039 265.108C107.383 265.212 107.727 265.388 108.071 265.636C108.143 265.692 108.179 265.752 108.179 265.816C108.179 265.856 108.159 265.908 108.119 265.972L107.975 266.152C107.935 266.216 107.879 266.248 107.807 266.248C107.743 266.248 107.687 266.228 107.639 266.188C107.311 265.956 107.019 265.8 106.763 265.72C106.515 265.64 106.231 265.6 105.911 265.6C105.471 265.6 105.119 265.696 104.855 265.888C104.591 266.08 104.459 266.324 104.459 266.62C104.459 266.804 104.519 266.952 104.639 267.064C104.759 267.176 104.931 267.272 105.155 267.352C105.379 267.424 105.707 267.508 106.139 267.604C106.939 267.78 107.507 267.996 107.843 268.252C108.187 268.508 108.359 268.88 108.359 269.368C108.359 269.904 108.147 270.336 107.723 270.664C107.299 270.992 106.751 271.156 106.079 271.156ZM112.099 271.156C111.531 271.156 111.035 271.028 110.611 270.772C110.195 270.508 109.871 270.144 109.639 269.68C109.415 269.208 109.303 268.664 109.303 268.048C109.303 267.44 109.415 266.9 109.639 266.428C109.871 265.956 110.195 265.592 110.611 265.336C111.035 265.072 111.523 264.94 112.075 264.94C112.523 264.94 112.915 265.016 113.251 265.168C113.587 265.312 113.911 265.552 114.223 265.888C114.271 265.936 114.295 265.988 114.295 266.044C114.295 266.116 114.263 266.176 114.199 266.224L114.031 266.38C113.983 266.428 113.927 266.452 113.863 266.452C113.807 266.452 113.747 266.42 113.683 266.356C113.403 266.076 113.135 265.88 112.879 265.768C112.631 265.656 112.355 265.6 112.051 265.6C111.635 265.6 111.279 265.716 110.983 265.948C110.695 266.18 110.479 266.484 110.335 266.86C110.191 267.228 110.119 267.624 110.119 268.048C110.119 268.472 110.191 268.872 110.335 269.248C110.479 269.616 110.699 269.916 110.995 270.148C111.291 270.372 111.655 270.484 112.087 270.484C112.407 270.484 112.687 270.428 112.927 270.316C113.175 270.196 113.451 269.972 113.755 269.644C113.819 269.58 113.879 269.548 113.935 269.548C113.999 269.548 114.055 269.572 114.103 269.62L114.271 269.752C114.327 269.8 114.355 269.856 114.355 269.92C114.355 269.984 114.319 270.06 114.247 270.148C113.911 270.516 113.575 270.776 113.239 270.928C112.903 271.08 112.523 271.156 112.099 271.156ZM117.848 265.036C118.048 265.036 118.284 265.068 118.556 265.132C118.7 265.18 118.756 265.28 118.724 265.432L118.676 265.624C118.636 265.776 118.536 265.832 118.376 265.792C118.184 265.744 118.008 265.72 117.848 265.72C117.44 265.72 117.1 265.896 116.828 266.248C116.564 266.6 116.432 267.088 116.432 267.712V270.76C116.432 270.92 116.352 271 116.192 271H115.88C115.72 271 115.64 270.92 115.64 270.76V265.324C115.64 265.164 115.72 265.084 115.88 265.084H116.144C116.304 265.084 116.384 265.164 116.384 265.324V265.984C116.52 265.688 116.712 265.456 116.96 265.288C117.216 265.12 117.512 265.036 117.848 265.036ZM120.196 263.584C120.036 263.584 119.9 263.528 119.788 263.416C119.684 263.304 119.632 263.168 119.632 263.008C119.632 262.848 119.684 262.716 119.788 262.612C119.9 262.508 120.036 262.456 120.196 262.456C120.364 262.456 120.5 262.508 120.604 262.612C120.716 262.716 120.772 262.848 120.772 263.008C120.772 263.168 120.716 263.304 120.604 263.416C120.5 263.528 120.364 263.584 120.196 263.584ZM120.04 271C119.88 271 119.8 270.92 119.8 270.76V265.324C119.8 265.164 119.88 265.084 120.04 265.084H120.352C120.512 265.084 120.592 265.164 120.592 265.324V270.76C120.592 270.92 120.512 271 120.352 271H120.04ZM125.187 264.952C125.683 264.952 126.127 265.084 126.519 265.348C126.919 265.604 127.231 265.968 127.455 266.44C127.679 266.904 127.791 267.436 127.791 268.036C127.791 268.644 127.679 269.184 127.455 269.656C127.231 270.128 126.923 270.496 126.531 270.76C126.139 271.016 125.691 271.144 125.187 271.144C124.259 271.144 123.579 270.804 123.147 270.124V272.968C123.147 273.128 123.067 273.208 122.907 273.208H122.595C122.435 273.208 122.355 273.128 122.355 272.968V265.324C122.355 265.164 122.435 265.084 122.595 265.084H122.859C123.019 265.084 123.099 265.164 123.099 265.324V266.08C123.315 265.712 123.599 265.432 123.951 265.24C124.303 265.048 124.715 264.952 125.187 264.952ZM125.127 270.472C125.687 270.472 126.135 270.248 126.471 269.8C126.807 269.352 126.975 268.764 126.975 268.036C126.975 267.316 126.807 266.736 126.471 266.296C126.135 265.848 125.687 265.624 125.127 265.624C124.527 265.624 124.039 265.84 123.663 266.272C123.295 266.696 123.111 267.284 123.111 268.036C123.111 268.788 123.299 269.384 123.675 269.824C124.051 270.256 124.535 270.472 125.127 270.472ZM131.687 270.34C131.711 270.332 131.743 270.328 131.783 270.328C131.831 270.328 131.875 270.344 131.915 270.376C131.955 270.408 131.979 270.452 131.987 270.508L132.023 270.676C132.031 270.692 132.035 270.72 132.035 270.76C132.035 270.872 131.975 270.94 131.855 270.964C131.567 271.052 131.259 271.096 130.931 271.096C130.411 271.096 130.039 270.98 129.815 270.748C129.599 270.508 129.491 270.164 129.491 269.716V265.684H128.603C128.443 265.684 128.363 265.604 128.363 265.444V265.324C128.363 265.164 128.443 265.084 128.603 265.084H129.491V263.26C129.491 263.1 129.571 263.02 129.731 263.02H130.043C130.203 263.02 130.283 263.1 130.283 263.26V265.084H131.723C131.883 265.084 131.963 265.164 131.963 265.324V265.444C131.963 265.604 131.883 265.684 131.723 265.684H130.283V269.62C130.283 269.916 130.339 270.124 130.451 270.244C130.563 270.364 130.755 270.424 131.027 270.424C131.219 270.424 131.439 270.396 131.687 270.34ZM133.567 263.584C133.407 263.584 133.271 263.528 133.159 263.416C133.055 263.304 133.003 263.168 133.003 263.008C133.003 262.848 133.055 262.716 133.159 262.612C133.271 262.508 133.407 262.456 133.567 262.456C133.735 262.456 133.871 262.508 133.975 262.612C134.087 262.716 134.143 262.848 134.143 263.008C134.143 263.168 134.087 263.304 133.975 263.416C133.871 263.528 133.735 263.584 133.567 263.584ZM133.411 271C133.251 271 133.171 270.92 133.171 270.76V265.324C133.171 265.164 133.251 265.084 133.411 265.084H133.723C133.883 265.084 133.963 265.164 133.963 265.324V270.76C133.963 270.92 133.883 271 133.723 271H133.411ZM138.174 271.156C137.622 271.156 137.13 271.024 136.698 270.76C136.266 270.496 135.93 270.132 135.69 269.668C135.45 269.196 135.33 268.656 135.33 268.048C135.33 267.44 135.45 266.904 135.69 266.44C135.93 265.968 136.266 265.6 136.698 265.336C137.13 265.072 137.622 264.94 138.174 264.94C138.726 264.94 139.218 265.072 139.65 265.336C140.082 265.6 140.418 265.968 140.658 266.44C140.898 266.904 141.018 267.44 141.018 268.048C141.018 268.656 140.898 269.196 140.658 269.668C140.418 270.132 140.082 270.496 139.65 270.76C139.218 271.024 138.726 271.156 138.174 271.156ZM138.174 270.496C138.79 270.496 139.282 270.272 139.65 269.824C140.018 269.368 140.202 268.776 140.202 268.048C140.202 267.32 140.018 266.732 139.65 266.284C139.282 265.828 138.79 265.6 138.174 265.6C137.558 265.6 137.066 265.828 136.698 266.284C136.33 266.732 136.146 267.32 136.146 268.048C136.146 268.776 136.33 269.368 136.698 269.824C137.066 270.272 137.558 270.496 138.174 270.496ZM145.034 264.94C145.73 264.94 146.254 265.132 146.606 265.516C146.966 265.9 147.146 266.38 147.146 266.956V270.76C147.146 270.92 147.066 271 146.906 271H146.594C146.434 271 146.354 270.92 146.354 270.76V267.22C146.354 266.692 146.226 266.292 145.97 266.02C145.714 265.748 145.346 265.612 144.866 265.612C144.562 265.612 144.282 265.688 144.026 265.84C143.77 265.984 143.566 266.184 143.414 266.44C143.262 266.696 143.186 266.976 143.186 267.28V270.76C143.186 270.92 143.106 271 142.946 271H142.634C142.474 271 142.394 270.92 142.394 270.76V265.324C142.394 265.164 142.474 265.084 142.634 265.084H142.898C143.058 265.084 143.138 265.164 143.138 265.324V265.9C143.338 265.58 143.602 265.34 143.93 265.18C144.258 265.02 144.626 264.94 145.034 264.94ZM49.0235 287.156C48.4715 287.156 47.9795 287.024 47.5475 286.76C47.1155 286.496 46.7795 286.132 46.5395 285.668C46.2995 285.196 46.1795 284.656 46.1795 284.048C46.1795 283.44 46.2995 282.904 46.5395 282.44C46.7795 281.968 47.1155 281.6 47.5475 281.336C47.9795 281.072 48.4715 280.94 49.0235 280.94C49.5755 280.94 50.0675 281.072 50.4995 281.336C50.9315 281.6 51.2675 281.968 51.5075 282.44C51.7475 282.904 51.8675 283.44 51.8675 284.048C51.8675 284.656 51.7475 285.196 51.5075 285.668C51.2675 286.132 50.9315 286.496 50.4995 286.76C50.0675 287.024 49.5755 287.156 49.0235 287.156ZM49.0235 286.496C49.6395 286.496 50.1315 286.272 50.4995 285.824C50.8675 285.368 51.0515 284.776 51.0515 284.048C51.0515 283.32 50.8675 282.732 50.4995 282.284C50.1315 281.828 49.6395 281.6 49.0235 281.6C48.4075 281.6 47.9155 281.828 47.5475 282.284C47.1795 282.732 46.9955 283.32 46.9955 284.048C46.9955 284.776 47.1795 285.368 47.5475 285.824C47.9155 286.272 48.4075 286.496 49.0235 286.496ZM55.4515 281.036C55.6515 281.036 55.8875 281.068 56.1595 281.132C56.3035 281.18 56.3595 281.28 56.3275 281.432L56.2795 281.624C56.2395 281.776 56.1395 281.832 55.9795 281.792C55.7875 281.744 55.6115 281.72 55.4515 281.72C55.0435 281.72 54.7035 281.896 54.4315 282.248C54.1675 282.6 54.0355 283.088 54.0355 283.712V286.76C54.0355 286.92 53.9555 287 53.7955 287H53.4835C53.3235 287 53.2435 286.92 53.2435 286.76V281.324C53.2435 281.164 53.3235 281.084 53.4835 281.084H53.7475C53.9075 281.084 53.9875 281.164 53.9875 281.324V281.984C54.1235 281.688 54.3155 281.456 54.5635 281.288C54.8195 281.12 55.1155 281.036 55.4515 281.036ZM64.4773 285.596C64.5333 285.54 64.5933 285.512 64.6573 285.512C64.7133 285.512 64.7653 285.536 64.8133 285.584L64.9693 285.728C65.0253 285.784 65.0533 285.844 65.0533 285.908C65.0533 285.956 65.0293 286.012 64.9813 286.076C64.5893 286.468 64.2093 286.748 63.8413 286.916C63.4733 287.076 63.0613 287.156 62.6053 287.156C62.0293 287.156 61.5293 287.028 61.1053 286.772C60.6813 286.516 60.3533 286.16 60.1213 285.704C59.8893 285.24 59.7733 284.704 59.7733 284.096C59.7733 283.48 59.8853 282.936 60.1093 282.464C60.3413 281.984 60.6653 281.612 61.0813 281.348C61.4973 281.076 61.9773 280.94 62.5213 280.94C63.3293 280.94 63.9653 281.192 64.4293 281.696C64.8933 282.2 65.1253 282.88 65.1253 283.736V283.88C65.1173 283.952 65.0893 284.008 65.0413 284.048C65.0013 284.088 64.9453 284.108 64.8733 284.108H60.5773C60.6013 284.78 60.7773 285.348 61.1053 285.812C61.4413 286.268 61.9413 286.496 62.6053 286.496C62.9653 286.496 63.2813 286.432 63.5533 286.304C63.8333 286.168 64.1413 285.932 64.4773 285.596ZM62.5213 281.6C61.9933 281.6 61.5573 281.764 61.2133 282.092C60.8773 282.412 60.6733 282.884 60.6013 283.508H64.3333C64.3173 282.924 64.1493 282.46 63.8293 282.116C63.5093 281.772 63.0733 281.6 62.5213 281.6ZM68.7523 281.036C68.9523 281.036 69.1883 281.068 69.4603 281.132C69.6043 281.18 69.6603 281.28 69.6283 281.432L69.5803 281.624C69.5403 281.776 69.4403 281.832 69.2803 281.792C69.0883 281.744 68.9123 281.72 68.7523 281.72C68.3443 281.72 68.0043 281.896 67.7323 282.248C67.4683 282.6 67.3363 283.088 67.3363 283.712V286.76C67.3363 286.92 67.2563 287 67.0963 287H66.7843C66.6243 287 66.5443 286.92 66.5443 286.76V281.324C66.5443 281.164 66.6243 281.084 66.7843 281.084H67.0483C67.2083 281.084 67.2883 281.164 67.2883 281.324V281.984C67.4243 281.688 67.6163 281.456 67.8643 281.288C68.1203 281.12 68.4163 281.036 68.7523 281.036ZM72.9124 281.036C73.1124 281.036 73.3484 281.068 73.6204 281.132C73.7644 281.18 73.8204 281.28 73.7884 281.432L73.7404 281.624C73.7004 281.776 73.6004 281.832 73.4404 281.792C73.2484 281.744 73.0724 281.72 72.9124 281.72C72.5044 281.72 72.1644 281.896 71.8924 282.248C71.6284 282.6 71.4964 283.088 71.4964 283.712V286.76C71.4964 286.92 71.4164 287 71.2564 287H70.9444C70.7844 287 70.7044 286.92 70.7044 286.76V281.324C70.7044 281.164 70.7844 281.084 70.9444 281.084H71.2084C71.3684 281.084 71.4484 281.164 71.4484 281.324V281.984C71.5844 281.688 71.7764 281.456 72.0244 281.288C72.2804 281.12 72.5764 281.036 72.9124 281.036ZM76.9844 287.156C76.4324 287.156 75.9404 287.024 75.5084 286.76C75.0764 286.496 74.7404 286.132 74.5004 285.668C74.2604 285.196 74.1404 284.656 74.1404 284.048C74.1404 283.44 74.2604 282.904 74.5004 282.44C74.7404 281.968 75.0764 281.6 75.5084 281.336C75.9404 281.072 76.4324 280.94 76.9844 280.94C77.5364 280.94 78.0284 281.072 78.4604 281.336C78.8924 281.6 79.2284 281.968 79.4684 282.44C79.7084 282.904 79.8284 283.44 79.8284 284.048C79.8284 284.656 79.7084 285.196 79.4684 285.668C79.2284 286.132 78.8924 286.496 78.4604 286.76C78.0284 287.024 77.5364 287.156 76.9844 287.156ZM76.9844 286.496C77.6004 286.496 78.0924 286.272 78.4604 285.824C78.8284 285.368 79.0124 284.776 79.0124 284.048C79.0124 283.32 78.8284 282.732 78.4604 282.284C78.0924 281.828 77.6004 281.6 76.9844 281.6C76.3684 281.6 75.8764 281.828 75.5084 282.284C75.1404 282.732 74.9564 283.32 74.9564 284.048C74.9564 284.776 75.1404 285.368 75.5084 285.824C75.8764 286.272 76.3684 286.496 76.9844 286.496ZM83.4124 281.036C83.6124 281.036 83.8484 281.068 84.1204 281.132C84.2644 281.18 84.3204 281.28 84.2884 281.432L84.2404 281.624C84.2004 281.776 84.1004 281.832 83.9404 281.792C83.7484 281.744 83.5724 281.72 83.4124 281.72C83.0044 281.72 82.6644 281.896 82.3924 282.248C82.1284 282.6 81.9964 283.088 81.9964 283.712V286.76C81.9964 286.92 81.9164 287 81.7564 287H81.4444C81.2844 287 81.2044 286.92 81.2044 286.76V281.324C81.2044 281.164 81.2844 281.084 81.4444 281.084H81.7084C81.8684 281.084 81.9484 281.164 81.9484 281.324V281.984C82.0844 281.688 82.2764 281.456 82.5244 281.288C82.7804 281.12 83.0764 281.036 83.4124 281.036ZM94.1422 280.94C94.7822 280.94 95.2702 281.124 95.6062 281.492C95.9502 281.852 96.1222 282.316 96.1222 282.884V286.76C96.1222 286.92 96.0422 287 95.8822 287H95.5702C95.4102 287 95.3302 286.92 95.3302 286.76V283.1C95.3302 282.62 95.2182 282.252 94.9942 281.996C94.7782 281.74 94.4542 281.612 94.0222 281.612C93.5662 281.612 93.2022 281.764 92.9302 282.068C92.6582 282.372 92.5222 282.764 92.5222 283.244V286.76C92.5222 286.92 92.4422 287 92.2822 287H91.9702C91.8102 287 91.7302 286.92 91.7302 286.76V283.1C91.7302 282.62 91.6182 282.252 91.3942 281.996C91.1782 281.74 90.8502 281.612 90.4102 281.612C90.0022 281.612 89.6622 281.74 89.3902 281.996C89.1262 282.252 88.9702 282.588 88.9222 283.004V286.76C88.9222 286.92 88.8422 287 88.6822 287H88.3702C88.2102 287 88.1302 286.92 88.1302 286.76V281.324C88.1302 281.164 88.2102 281.084 88.3702 281.084H88.6342C88.7942 281.084 88.8742 281.164 88.8742 281.324V281.816C89.2342 281.232 89.8062 280.94 90.5902 280.94C90.9982 280.94 91.3462 281.032 91.6342 281.216C91.9302 281.392 92.1502 281.632 92.2942 281.936C92.7182 281.272 93.3342 280.94 94.1422 280.94ZM102.176 285.596C102.232 285.54 102.292 285.512 102.356 285.512C102.412 285.512 102.464 285.536 102.512 285.584L102.668 285.728C102.724 285.784 102.752 285.844 102.752 285.908C102.752 285.956 102.728 286.012 102.68 286.076C102.288 286.468 101.908 286.748 101.54 286.916C101.172 287.076 100.76 287.156 100.304 287.156C99.7285 287.156 99.2285 287.028 98.8045 286.772C98.3805 286.516 98.0525 286.16 97.8205 285.704C97.5885 285.24 97.4725 284.704 97.4725 284.096C97.4725 283.48 97.5845 282.936 97.8085 282.464C98.0405 281.984 98.3645 281.612 98.7805 281.348C99.1965 281.076 99.6765 280.94 100.22 280.94C101.028 280.94 101.664 281.192 102.128 281.696C102.592 282.2 102.824 282.88 102.824 283.736V283.88C102.816 283.952 102.788 284.008 102.74 284.048C102.7 284.088 102.644 284.108 102.572 284.108H98.2765C98.3005 284.78 98.4765 285.348 98.8045 285.812C99.1405 286.268 99.6405 286.496 100.304 286.496C100.664 286.496 100.98 286.432 101.252 286.304C101.532 286.168 101.84 285.932 102.176 285.596ZM100.22 281.6C99.6925 281.6 99.2565 281.764 98.9125 282.092C98.5765 282.412 98.3725 282.884 98.3005 283.508H102.032C102.016 282.924 101.848 282.46 101.528 282.116C101.208 281.772 100.772 281.6 100.22 281.6ZM106.354 287.156C105.866 287.156 105.434 287.088 105.058 286.952C104.69 286.808 104.302 286.568 103.894 286.232C103.822 286.184 103.786 286.128 103.786 286.064C103.786 286.008 103.814 285.952 103.87 285.896L104.026 285.728C104.074 285.664 104.134 285.632 104.206 285.632C104.262 285.632 104.314 285.656 104.362 285.704C104.746 286 105.086 286.208 105.382 286.328C105.678 286.44 106.002 286.496 106.354 286.496C106.794 286.496 107.154 286.4 107.434 286.208C107.714 286.008 107.854 285.74 107.854 285.404C107.854 285.068 107.71 284.82 107.422 284.66C107.134 284.5 106.69 284.356 106.09 284.228C105.562 284.116 105.146 284 104.842 283.88C104.546 283.752 104.326 283.592 104.182 283.4C104.038 283.208 103.966 282.956 103.966 282.644C103.966 282.132 104.174 281.72 104.59 281.408C105.006 281.096 105.53 280.94 106.162 280.94C106.594 280.94 106.978 280.996 107.314 281.108C107.658 281.212 108.002 281.388 108.346 281.636C108.418 281.692 108.454 281.752 108.454 281.816C108.454 281.856 108.434 281.908 108.394 281.972L108.25 282.152C108.21 282.216 108.154 282.248 108.082 282.248C108.018 282.248 107.962 282.228 107.914 282.188C107.586 281.956 107.294 281.8 107.038 281.72C106.79 281.64 106.506 281.6 106.186 281.6C105.746 281.6 105.394 281.696 105.13 281.888C104.866 282.08 104.734 282.324 104.734 282.62C104.734 282.804 104.794 282.952 104.914 283.064C105.034 283.176 105.206 283.272 105.43 283.352C105.654 283.424 105.982 283.508 106.414 283.604C107.214 283.78 107.782 283.996 108.118 284.252C108.462 284.508 108.634 284.88 108.634 285.368C108.634 285.904 108.422 286.336 107.998 286.664C107.574 286.992 107.026 287.156 106.354 287.156ZM112.038 287.156C111.55 287.156 111.118 287.088 110.742 286.952C110.374 286.808 109.986 286.568 109.578 286.232C109.506 286.184 109.47 286.128 109.47 286.064C109.47 286.008 109.498 285.952 109.554 285.896L109.71 285.728C109.758 285.664 109.818 285.632 109.89 285.632C109.946 285.632 109.998 285.656 110.046 285.704C110.43 286 110.77 286.208 111.066 286.328C111.362 286.44 111.686 286.496 112.038 286.496C112.478 286.496 112.838 286.4 113.118 286.208C113.398 286.008 113.538 285.74 113.538 285.404C113.538 285.068 113.394 284.82 113.106 284.66C112.818 284.5 112.374 284.356 111.774 284.228C111.246 284.116 110.83 284 110.526 283.88C110.23 283.752 110.01 283.592 109.866 283.4C109.722 283.208 109.65 282.956 109.65 282.644C109.65 282.132 109.858 281.72 110.274 281.408C110.69 281.096 111.214 280.94 111.846 280.94C112.278 280.94 112.662 280.996 112.998 281.108C113.342 281.212 113.686 281.388 114.03 281.636C114.102 281.692 114.138 281.752 114.138 281.816C114.138 281.856 114.118 281.908 114.078 281.972L113.934 282.152C113.894 282.216 113.838 282.248 113.766 282.248C113.702 282.248 113.646 282.228 113.598 282.188C113.27 281.956 112.978 281.8 112.722 281.72C112.474 281.64 112.19 281.6 111.87 281.6C111.43 281.6 111.078 281.696 110.814 281.888C110.55 282.08 110.418 282.324 110.418 282.62C110.418 282.804 110.478 282.952 110.598 283.064C110.718 283.176 110.89 283.272 111.114 283.352C111.338 283.424 111.666 283.508 112.098 283.604C112.898 283.78 113.466 283.996 113.802 284.252C114.146 284.508 114.318 284.88 114.318 285.368C114.318 285.904 114.106 286.336 113.682 286.664C113.258 286.992 112.71 287.156 112.038 287.156ZM117.984 280.94C118.712 280.94 119.28 281.116 119.688 281.468C120.096 281.812 120.3 282.268 120.3 282.836V286.76C120.3 286.92 120.22 287 120.06 287H119.82C119.66 287 119.58 286.92 119.58 286.76V286.22C119.38 286.54 119.096 286.78 118.728 286.94C118.368 287.1 117.964 287.18 117.516 287.18C116.892 287.18 116.384 287.048 115.992 286.784C115.6 286.52 115.404 286.112 115.404 285.56C115.404 285.12 115.528 284.768 115.776 284.504C116.024 284.232 116.348 284.028 116.748 283.892C117.148 283.748 117.648 283.62 118.248 283.508L119.544 283.28V282.896C119.544 282.488 119.404 282.172 119.124 281.948C118.844 281.716 118.476 281.6 118.02 281.6C117.676 281.6 117.364 281.664 117.084 281.792C116.804 281.92 116.504 282.14 116.184 282.452C116.128 282.508 116.068 282.536 116.004 282.536C115.948 282.536 115.896 282.512 115.848 282.464L115.692 282.32C115.636 282.264 115.608 282.204 115.608 282.14C115.608 282.068 115.636 282.004 115.692 281.948C116.028 281.596 116.38 281.34 116.748 281.18C117.124 281.02 117.536 280.94 117.984 280.94ZM117.552 286.52C118.128 286.52 118.604 286.368 118.98 286.064C119.356 285.76 119.544 285.372 119.544 284.9V283.892L118.428 284.108C117.908 284.212 117.496 284.312 117.192 284.408C116.888 284.504 116.644 284.644 116.46 284.828C116.276 285.012 116.184 285.252 116.184 285.548C116.184 285.852 116.304 286.092 116.544 286.268C116.792 286.436 117.128 286.52 117.552 286.52ZM126.304 281.324C126.304 281.164 126.384 281.084 126.544 281.084H126.796C126.956 281.084 127.036 281.164 127.036 281.324V286.94C127.036 287.684 126.812 288.268 126.364 288.692C125.916 289.124 125.288 289.34 124.48 289.34C123.608 289.34 122.804 289.092 122.068 288.596C121.988 288.548 121.948 288.488 121.948 288.416C121.948 288.36 121.964 288.312 121.996 288.272L122.14 288.068C122.188 287.988 122.252 287.948 122.332 287.948C122.364 287.948 122.412 287.964 122.476 287.996C122.828 288.22 123.156 288.388 123.46 288.5C123.772 288.612 124.112 288.668 124.48 288.668C125.008 288.668 125.436 288.52 125.764 288.224C126.092 287.936 126.256 287.488 126.256 286.88V285.92C125.824 286.616 125.168 286.964 124.288 286.964C123.776 286.964 123.324 286.836 122.932 286.58C122.54 286.316 122.236 285.956 122.02 285.5C121.812 285.044 121.708 284.528 121.708 283.952C121.708 283.376 121.812 282.86 122.02 282.404C122.236 281.948 122.54 281.592 122.932 281.336C123.324 281.072 123.776 280.94 124.288 280.94C124.752 280.94 125.152 281.04 125.488 281.24C125.832 281.432 126.104 281.708 126.304 282.068V281.324ZM124.372 286.292C124.948 286.292 125.408 286.076 125.752 285.644C126.096 285.204 126.268 284.64 126.268 283.952C126.268 283.264 126.096 282.704 125.752 282.272C125.408 281.832 124.948 281.612 124.372 281.612C123.788 281.612 123.332 281.828 123.004 282.26C122.684 282.692 122.524 283.256 122.524 283.952C122.524 284.648 122.684 285.212 123.004 285.644C123.332 286.076 123.788 286.292 124.372 286.292ZM133.126 285.596C133.182 285.54 133.242 285.512 133.306 285.512C133.362 285.512 133.414 285.536 133.462 285.584L133.618 285.728C133.674 285.784 133.702 285.844 133.702 285.908C133.702 285.956 133.678 286.012 133.63 286.076C133.238 286.468 132.858 286.748 132.49 286.916C132.122 287.076 131.71 287.156 131.254 287.156C130.678 287.156 130.178 287.028 129.754 286.772C129.33 286.516 129.002 286.16 128.77 285.704C128.538 285.24 128.422 284.704 128.422 284.096C128.422 283.48 128.534 282.936 128.758 282.464C128.99 281.984 129.314 281.612 129.73 281.348C130.146 281.076 130.626 280.94 131.17 280.94C131.978 280.94 132.614 281.192 133.078 281.696C133.542 282.2 133.774 282.88 133.774 283.736V283.88C133.766 283.952 133.738 284.008 133.69 284.048C133.65 284.088 133.594 284.108 133.522 284.108H129.226C129.25 284.78 129.426 285.348 129.754 285.812C130.09 286.268 130.59 286.496 131.254 286.496C131.614 286.496 131.93 286.432 132.202 286.304C132.482 286.168 132.79 285.932 133.126 285.596ZM131.17 281.6C130.642 281.6 130.206 281.764 129.862 282.092C129.526 282.412 129.322 282.884 129.25 283.508H132.982C132.966 282.924 132.798 282.46 132.478 282.116C132.158 281.772 131.722 281.6 131.17 281.6ZM135.097 288.848C135.049 288.912 134.993 288.944 134.929 288.944C134.865 288.944 134.809 288.92 134.761 288.872L134.605 288.728C134.541 288.68 134.509 288.62 134.509 288.548C134.509 288.492 134.533 288.44 134.581 288.392C135.237 287.592 135.729 286.792 136.057 285.992C136.385 285.192 136.549 284.3 136.549 283.316C136.549 282.34 136.385 281.448 136.057 280.64C135.729 279.832 135.237 279.032 134.581 278.24C134.541 278.192 134.521 278.14 134.521 278.084C134.521 278.012 134.549 277.952 134.605 277.904L134.761 277.76C134.809 277.712 134.865 277.688 134.929 277.688C134.993 277.688 135.049 277.72 135.097 277.784C135.825 278.6 136.381 279.448 136.765 280.328C137.157 281.208 137.353 282.204 137.353 283.316C137.353 284.428 137.157 285.424 136.765 286.304C136.381 287.184 135.825 288.032 135.097 288.848Z" fill="#464646"/>
<path d="M142.424 239C142.264 239 142.184 238.92 142.184 238.76V230.72C142.184 230.56 142.264 230.48 142.424 230.48H147.464C147.624 230.48 147.704 230.56 147.704 230.72V230.948C147.704 231.108 147.624 231.188 147.464 231.188H143.036V234.428H147.092C147.252 234.428 147.332 234.508 147.332 234.668V234.896C147.332 235.056 147.252 235.136 147.092 235.136H143.036V238.76C143.036 238.92 142.956 239 142.796 239H142.424ZM149.479 231.584C149.319 231.584 149.183 231.528 149.071 231.416C148.967 231.304 148.915 231.168 148.915 231.008C148.915 230.848 148.967 230.716 149.071 230.612C149.183 230.508 149.319 230.456 149.479 230.456C149.647 230.456 149.783 230.508 149.887 230.612C149.999 230.716 150.055 230.848 150.055 231.008C150.055 231.168 149.999 231.304 149.887 231.416C149.783 231.528 149.647 231.584 149.479 231.584ZM149.323 239C149.163 239 149.083 238.92 149.083 238.76V233.324C149.083 233.164 149.163 233.084 149.323 233.084H149.635C149.795 233.084 149.875 233.164 149.875 233.324V238.76C149.875 238.92 149.795 239 149.635 239H149.323ZM155.946 237.596C156.002 237.54 156.062 237.512 156.126 237.512C156.182 237.512 156.234 237.536 156.282 237.584L156.438 237.728C156.494 237.784 156.522 237.844 156.522 237.908C156.522 237.956 156.498 238.012 156.45 238.076C156.058 238.468 155.678 238.748 155.31 238.916C154.942 239.076 154.53 239.156 154.074 239.156C153.498 239.156 152.998 239.028 152.574 238.772C152.15 238.516 151.822 238.16 151.59 237.704C151.358 237.24 151.242 236.704 151.242 236.096C151.242 235.48 151.354 234.936 151.578 234.464C151.81 233.984 152.134 233.612 152.55 233.348C152.966 233.076 153.446 232.94 153.99 232.94C154.798 232.94 155.434 233.192 155.898 233.696C156.362 234.2 156.594 234.88 156.594 235.736V235.88C156.586 235.952 156.558 236.008 156.51 236.048C156.47 236.088 156.414 236.108 156.342 236.108H152.046C152.07 236.78 152.246 237.348 152.574 237.812C152.91 238.268 153.41 238.496 154.074 238.496C154.434 238.496 154.75 238.432 155.022 238.304C155.302 238.168 155.61 237.932 155.946 237.596ZM153.99 233.6C153.462 233.6 153.026 233.764 152.682 234.092C152.346 234.412 152.142 234.884 152.07 235.508H155.802C155.786 234.924 155.618 234.46 155.298 234.116C154.978 233.772 154.542 233.6 153.99 233.6ZM158.265 239C158.105 239 158.025 238.92 158.025 238.76V230.72C158.025 230.56 158.105 230.48 158.265 230.48H158.577C158.737 230.48 158.817 230.56 158.817 230.72V238.76C158.817 238.92 158.737 239 158.577 239H158.265ZM164.875 230.72C164.875 230.56 164.955 230.48 165.115 230.48H165.427C165.587 230.48 165.667 230.56 165.667 230.72V238.76C165.667 238.92 165.587 239 165.427 239H165.175C165.015 239 164.935 238.92 164.935 238.76V237.98C164.719 238.356 164.435 238.644 164.083 238.844C163.731 239.044 163.315 239.144 162.835 239.144C162.331 239.144 161.883 239.016 161.491 238.76C161.099 238.496 160.791 238.132 160.567 237.668C160.343 237.196 160.231 236.656 160.231 236.048C160.231 235.44 160.343 234.904 160.567 234.44C160.799 233.968 161.115 233.604 161.515 233.348C161.915 233.084 162.363 232.952 162.859 232.952C163.771 232.952 164.443 233.292 164.875 233.972V230.72ZM162.895 238.472C163.495 238.472 163.979 238.26 164.347 237.836C164.723 237.404 164.911 236.808 164.911 236.048C164.911 235.296 164.723 234.704 164.347 234.272C163.979 233.84 163.495 233.624 162.895 233.624C162.343 233.624 161.895 233.848 161.551 234.296C161.215 234.744 161.047 235.328 161.047 236.048C161.047 236.776 161.215 237.364 161.551 237.812C161.887 238.252 162.335 238.472 162.895 238.472ZM173.044 232.952C173.548 232.952 173.996 233.084 174.388 233.348C174.788 233.604 175.096 233.968 175.312 234.44C175.536 234.904 175.648 235.44 175.648 236.048C175.648 236.656 175.536 237.196 175.312 237.668C175.088 238.132 174.776 238.496 174.376 238.76C173.984 239.016 173.54 239.144 173.044 239.144C172.092 239.144 171.396 238.776 170.956 238.04V238.76C170.956 238.92 170.876 239 170.716 239H170.452C170.292 239 170.212 238.92 170.212 238.76V230.708C170.212 230.548 170.292 230.468 170.452 230.468H170.764C170.924 230.468 171.004 230.548 171.004 230.708V234.02C171.444 233.308 172.124 232.952 173.044 232.952ZM172.984 238.472C173.536 238.472 173.98 238.248 174.316 237.8C174.66 237.352 174.832 236.768 174.832 236.048C174.832 235.328 174.66 234.744 174.316 234.296C173.98 233.848 173.536 233.624 172.984 233.624C172.392 233.624 171.908 233.84 171.532 234.272C171.156 234.704 170.968 235.296 170.968 236.048C170.968 236.808 171.152 237.404 171.52 237.836C171.896 238.26 172.384 238.472 172.984 238.472ZM180.896 233.324C180.896 233.164 180.976 233.084 181.136 233.084H181.448C181.608 233.084 181.688 233.164 181.688 233.324V238.76C181.688 238.92 181.608 239 181.448 239H181.196C181.036 239 180.956 238.92 180.956 238.76V238.22C180.78 238.532 180.528 238.768 180.2 238.928C179.88 239.08 179.528 239.156 179.144 239.156C178.424 239.156 177.892 238.976 177.548 238.616C177.204 238.248 177.032 237.776 177.032 237.2V233.324C177.032 233.164 177.112 233.084 177.272 233.084H177.584C177.744 233.084 177.824 233.164 177.824 233.324V237.032C177.824 237.504 177.94 237.864 178.172 238.112C178.412 238.352 178.752 238.472 179.192 238.472C179.688 238.472 180.096 238.32 180.416 238.016C180.736 237.712 180.896 237.28 180.896 236.72V233.324ZM186.13 238.34C186.154 238.332 186.186 238.328 186.226 238.328C186.274 238.328 186.318 238.344 186.358 238.376C186.398 238.408 186.422 238.452 186.43 238.508L186.466 238.676C186.474 238.692 186.478 238.72 186.478 238.76C186.478 238.872 186.418 238.94 186.298 238.964C186.01 239.052 185.702 239.096 185.374 239.096C184.854 239.096 184.482 238.98 184.258 238.748C184.042 238.508 183.934 238.164 183.934 237.716V233.684H183.046C182.886 233.684 182.806 233.604 182.806 233.444V233.324C182.806 233.164 182.886 233.084 183.046 233.084H183.934V231.26C183.934 231.1 184.014 231.02 184.174 231.02H184.486C184.646 231.02 184.726 231.1 184.726 231.26V233.084H186.166C186.326 233.084 186.406 233.164 186.406 233.324V233.444C186.406 233.604 186.326 233.684 186.166 233.684H184.726V237.62C184.726 237.916 184.782 238.124 184.894 238.244C185.006 238.364 185.198 238.424 185.47 238.424C185.662 238.424 185.882 238.396 186.13 238.34ZM190.302 238.34C190.326 238.332 190.358 238.328 190.398 238.328C190.446 238.328 190.49 238.344 190.53 238.376C190.57 238.408 190.594 238.452 190.602 238.508L190.638 238.676C190.646 238.692 190.65 238.72 190.65 238.76C190.65 238.872 190.59 238.94 190.47 238.964C190.182 239.052 189.874 239.096 189.546 239.096C189.026 239.096 188.654 238.98 188.43 238.748C188.214 238.508 188.106 238.164 188.106 237.716V233.684H187.218C187.058 233.684 186.978 233.604 186.978 233.444V233.324C186.978 233.164 187.058 233.084 187.218 233.084H188.106V231.26C188.106 231.1 188.186 231.02 188.346 231.02H188.658C188.818 231.02 188.898 231.1 188.898 231.26V233.084H190.338C190.498 233.084 190.578 233.164 190.578 233.324V233.444C190.578 233.604 190.498 233.684 190.338 233.684H188.898V237.62C188.898 237.916 188.954 238.124 189.066 238.244C189.178 238.364 189.37 238.424 189.642 238.424C189.834 238.424 190.054 238.396 190.302 238.34ZM194.012 239.156C193.46 239.156 192.968 239.024 192.536 238.76C192.104 238.496 191.768 238.132 191.528 237.668C191.288 237.196 191.168 236.656 191.168 236.048C191.168 235.44 191.288 234.904 191.528 234.44C191.768 233.968 192.104 233.6 192.536 233.336C192.968 233.072 193.46 232.94 194.012 232.94C194.564 232.94 195.056 233.072 195.488 233.336C195.92 233.6 196.256 233.968 196.496 234.44C196.736 234.904 196.856 235.44 196.856 236.048C196.856 236.656 196.736 237.196 196.496 237.668C196.256 238.132 195.92 238.496 195.488 238.76C195.056 239.024 194.564 239.156 194.012 239.156ZM194.012 238.496C194.628 238.496 195.12 238.272 195.488 237.824C195.856 237.368 196.04 236.776 196.04 236.048C196.04 235.32 195.856 234.732 195.488 234.284C195.12 233.828 194.628 233.6 194.012 233.6C193.396 233.6 192.904 233.828 192.536 234.284C192.168 234.732 191.984 235.32 191.984 236.048C191.984 236.776 192.168 237.368 192.536 237.824C192.904 238.272 193.396 238.496 194.012 238.496ZM200.872 232.94C201.568 232.94 202.092 233.132 202.444 233.516C202.804 233.9 202.984 234.38 202.984 234.956V238.76C202.984 238.92 202.904 239 202.744 239H202.432C202.272 239 202.192 238.92 202.192 238.76V235.22C202.192 234.692 202.064 234.292 201.808 234.02C201.552 233.748 201.184 233.612 200.704 233.612C200.4 233.612 200.12 233.688 199.864 233.84C199.608 233.984 199.404 234.184 199.252 234.44C199.1 234.696 199.024 234.976 199.024 235.28V238.76C199.024 238.92 198.944 239 198.784 239H198.472C198.312 239 198.232 238.92 198.232 238.76V233.324C198.232 233.164 198.312 233.084 198.472 233.084H198.736C198.896 233.084 198.976 233.164 198.976 233.324V233.9C199.176 233.58 199.44 233.34 199.768 233.18C200.096 233.02 200.464 232.94 200.872 232.94Z" fill="#464646"/>
<path d="M238.761 239.18C237.945 239.18 237.241 238.992 236.649 238.616C236.057 238.232 235.605 237.704 235.293 237.032C234.981 236.36 234.825 235.596 234.825 234.74C234.825 233.876 234.981 233.108 235.293 232.436C235.605 231.764 236.061 231.24 236.661 230.864C237.269 230.488 237.997 230.3 238.845 230.3C239.333 230.3 239.789 230.38 240.213 230.54C240.637 230.692 241.089 230.956 241.569 231.332C241.641 231.38 241.677 231.436 241.677 231.5C241.677 231.548 241.653 231.604 241.605 231.668L241.437 231.884C241.389 231.948 241.333 231.98 241.269 231.98C241.205 231.98 241.145 231.956 241.089 231.908C240.657 231.572 240.265 231.344 239.913 231.224C239.569 231.096 239.213 231.032 238.845 231.032C238.197 231.032 237.633 231.192 237.153 231.512C236.681 231.824 236.317 232.26 236.061 232.82C235.805 233.38 235.677 234.02 235.677 234.74C235.677 235.452 235.805 236.092 236.061 236.66C236.317 237.22 236.677 237.66 237.141 237.98C237.605 238.292 238.141 238.448 238.749 238.448C239.229 238.448 239.653 238.356 240.021 238.172C240.397 237.98 240.797 237.684 241.221 237.284C241.285 237.236 241.341 237.212 241.389 237.212C241.453 237.212 241.513 237.24 241.569 237.296L241.761 237.512C241.809 237.56 241.833 237.612 241.833 237.668C241.833 237.74 241.793 237.812 241.713 237.884C241.217 238.356 240.745 238.692 240.297 238.892C239.849 239.084 239.337 239.18 238.761 239.18ZM245.747 232.94C246.435 232.94 246.959 233.136 247.319 233.528C247.679 233.912 247.859 234.388 247.859 234.956V238.76C247.859 238.92 247.779 239 247.619 239H247.307C247.147 239 247.067 238.92 247.067 238.76V235.22C247.067 234.692 246.939 234.292 246.683 234.02C246.427 233.748 246.059 233.612 245.579 233.612C245.275 233.612 244.995 233.688 244.739 233.84C244.483 233.984 244.279 234.184 244.127 234.44C243.975 234.696 243.899 234.976 243.899 235.28V238.76C243.899 238.92 243.819 239 243.659 239H243.347C243.187 239 243.107 238.92 243.107 238.76V230.72C243.107 230.56 243.187 230.48 243.347 230.48H243.659C243.819 230.48 243.899 230.56 243.899 230.72V233.852C244.091 233.548 244.347 233.32 244.667 233.168C244.995 233.016 245.355 232.94 245.747 232.94ZM253.919 237.596C253.975 237.54 254.035 237.512 254.099 237.512C254.155 237.512 254.207 237.536 254.255 237.584L254.411 237.728C254.467 237.784 254.495 237.844 254.495 237.908C254.495 237.956 254.471 238.012 254.423 238.076C254.031 238.468 253.651 238.748 253.283 238.916C252.915 239.076 252.503 239.156 252.047 239.156C251.471 239.156 250.971 239.028 250.547 238.772C250.123 238.516 249.795 238.16 249.563 237.704C249.331 237.24 249.215 236.704 249.215 236.096C249.215 235.48 249.327 234.936 249.551 234.464C249.783 233.984 250.107 233.612 250.523 233.348C250.939 233.076 251.419 232.94 251.963 232.94C252.771 232.94 253.407 233.192 253.871 233.696C254.335 234.2 254.567 234.88 254.567 235.736V235.88C254.559 235.952 254.531 236.008 254.483 236.048C254.443 236.088 254.387 236.108 254.315 236.108H250.019C250.043 236.78 250.219 237.348 250.547 237.812C250.883 238.268 251.383 238.496 252.047 238.496C252.407 238.496 252.723 238.432 252.995 238.304C253.275 238.168 253.583 237.932 253.919 237.596ZM251.963 233.6C251.435 233.6 250.999 233.764 250.655 234.092C250.319 234.412 250.115 234.884 250.043 235.508H253.775C253.759 234.924 253.591 234.46 253.271 234.116C252.951 233.772 252.515 233.6 251.963 233.6ZM259.61 233.276C259.658 233.148 259.75 233.084 259.886 233.084H260.198C260.262 233.084 260.314 233.1 260.354 233.132C260.394 233.164 260.414 233.208 260.414 233.264L260.39 233.36L258.482 238.808C258.434 238.936 258.342 239 258.206 239H257.57C257.434 239 257.342 238.936 257.294 238.808L255.398 233.36L255.374 233.264C255.374 233.208 255.394 233.164 255.434 233.132C255.474 233.1 255.526 233.084 255.59 233.084H255.914C256.05 233.084 256.142 233.148 256.19 233.276L256.922 235.388C257.226 236.268 257.55 237.28 257.894 238.424C257.91 238.376 257.954 238.24 258.026 238.016C258.354 236.936 258.638 236.06 258.878 235.388L259.61 233.276ZM263.807 233.036C264.007 233.036 264.243 233.068 264.515 233.132C264.659 233.18 264.715 233.28 264.683 233.432L264.635 233.624C264.595 233.776 264.495 233.832 264.335 233.792C264.143 233.744 263.967 233.72 263.807 233.72C263.399 233.72 263.059 233.896 262.787 234.248C262.523 234.6 262.391 235.088 262.391 235.712V238.76C262.391 238.92 262.311 239 262.151 239H261.839C261.679 239 261.599 238.92 261.599 238.76V233.324C261.599 233.164 261.679 233.084 261.839 233.084H262.103C262.263 233.084 262.343 233.164 262.343 233.324V233.984C262.479 233.688 262.671 233.456 262.919 233.288C263.175 233.12 263.471 233.036 263.807 233.036ZM267.879 239.156C267.327 239.156 266.835 239.024 266.403 238.76C265.971 238.496 265.635 238.132 265.395 237.668C265.155 237.196 265.035 236.656 265.035 236.048C265.035 235.44 265.155 234.904 265.395 234.44C265.635 233.968 265.971 233.6 266.403 233.336C266.835 233.072 267.327 232.94 267.879 232.94C268.431 232.94 268.923 233.072 269.355 233.336C269.787 233.6 270.123 233.968 270.363 234.44C270.603 234.904 270.723 235.44 270.723 236.048C270.723 236.656 270.603 237.196 270.363 237.668C270.123 238.132 269.787 238.496 269.355 238.76C268.923 239.024 268.431 239.156 267.879 239.156ZM267.879 238.496C268.495 238.496 268.987 238.272 269.355 237.824C269.723 237.368 269.907 236.776 269.907 236.048C269.907 235.32 269.723 234.732 269.355 234.284C268.987 233.828 268.495 233.6 267.879 233.6C267.263 233.6 266.771 233.828 266.403 234.284C266.035 234.732 265.851 235.32 265.851 236.048C265.851 236.776 266.035 237.368 266.403 237.824C266.771 238.272 267.263 238.496 267.879 238.496ZM274.739 232.94C275.435 232.94 275.959 233.132 276.311 233.516C276.671 233.9 276.851 234.38 276.851 234.956V238.76C276.851 238.92 276.771 239 276.611 239H276.299C276.139 239 276.059 238.92 276.059 238.76V235.22C276.059 234.692 275.931 234.292 275.675 234.02C275.419 233.748 275.051 233.612 274.571 233.612C274.267 233.612 273.987 233.688 273.731 233.84C273.475 233.984 273.271 234.184 273.119 234.44C272.967 234.696 272.891 234.976 272.891 235.28V238.76C272.891 238.92 272.811 239 272.651 239H272.339C272.179 239 272.099 238.92 272.099 238.76V233.324C272.099 233.164 272.179 233.084 272.339 233.084H272.603C272.763 233.084 272.843 233.164 272.843 233.324V233.9C273.043 233.58 273.307 233.34 273.635 233.18C273.963 233.02 274.331 232.94 274.739 232.94Z" fill="#464646"/>
<path d="M87 105C87 105.552 87.4477 106 88 106C88.5523 106 89 105.552 89 105L87 105ZM87 63L87 105L89 105L89 63L87 63Z" fill="#06BEFB"/>
<circle cx="88" cy="108" r="3" fill="#06BEFB"/>
<path d="M138 105C138 105.552 138.448 106 139 106C139.552 106 140 105.552 140 105L138 105ZM138 88L138 105L140 105L140 88L138 88Z" fill="#06BEFB"/>
<circle cx="139" cy="108" r="3" fill="#06BEFB"/>
<path d="M94 213C94 212.448 93.5523 212 93 212C92.4477 212 92 212.448 92 213L94 213ZM94 255L94 213L92 213L92 255L94 255Z" fill="#06BEFB"/>
<circle cx="93" cy="210" r="3" transform="rotate(180 93 210)" fill="#06BEFB"/>
<path d="M71.568 129C71.4187 129 71.2973 128.958 71.204 128.874C71.12 128.781 71.078 128.659 71.078 128.51V119.55C71.078 119.391 71.12 119.27 71.204 119.186C71.2973 119.102 71.4187 119.06 71.568 119.06H72.184C72.3427 119.06 72.464 119.102 72.548 119.186C72.632 119.27 72.674 119.391 72.674 119.55V127.642H76.72C76.8787 127.642 77 127.684 77.084 127.768C77.168 127.852 77.21 127.973 77.21 128.132V128.51C77.21 128.659 77.168 128.781 77.084 128.874C77 128.958 76.8787 129 76.72 129H71.568ZM81.5043 121.888C82.4376 121.888 83.1563 122.107 83.6603 122.546C84.1643 122.975 84.4163 123.549 84.4163 124.268V128.51C84.4163 128.659 84.3743 128.781 84.2903 128.874C84.2063 128.958 84.0849 129 83.9263 129H83.5623C83.4129 129 83.2916 128.958 83.1983 128.874C83.1143 128.781 83.0723 128.659 83.0723 128.51V128.202C82.8483 128.529 82.5403 128.781 82.1483 128.958C81.7563 129.135 81.2989 129.224 80.7763 129.224C80.0576 129.224 79.4649 129.065 78.9983 128.748C78.5409 128.421 78.3123 127.931 78.3123 127.278C78.3123 126.55 78.5829 126.013 79.1243 125.668C79.6749 125.313 80.4356 125.047 81.4063 124.87L82.9883 124.576V124.324C82.9883 123.941 82.8529 123.647 82.5823 123.442C82.3209 123.227 81.9709 123.12 81.5323 123.12C81.1589 123.12 80.8323 123.185 80.5523 123.316C80.2816 123.437 79.9876 123.643 79.6703 123.932C79.5489 124.035 79.4323 124.086 79.3203 124.086C79.2083 124.086 79.0916 124.035 78.9703 123.932L78.7463 123.736C78.6249 123.624 78.5643 123.503 78.5643 123.372C78.5643 123.251 78.6203 123.134 78.7323 123.022C79.1336 122.639 79.5583 122.355 80.0063 122.168C80.4543 121.981 80.9536 121.888 81.5043 121.888ZM80.9863 128.034C81.5463 128.034 82.0176 127.885 82.4003 127.586C82.7923 127.287 82.9883 126.858 82.9883 126.298V125.654L81.7703 125.906C81.0889 126.046 80.5849 126.205 80.2583 126.382C79.9316 126.559 79.7683 126.83 79.7683 127.194C79.7683 127.455 79.8756 127.661 80.0903 127.81C80.3049 127.959 80.6036 128.034 80.9863 128.034ZM89.7798 121.916C90.3678 121.916 90.8905 122.065 91.3478 122.364C91.8145 122.663 92.1785 123.087 92.4398 123.638C92.7011 124.189 92.8318 124.823 92.8318 125.542C92.8318 126.27 92.7011 126.909 92.4398 127.46C92.1785 128.011 91.8145 128.435 91.3478 128.734C90.8811 129.033 90.3585 129.182 89.7798 129.182C88.7438 129.182 87.9831 128.795 87.4978 128.02V128.51C87.4978 128.659 87.4558 128.781 87.3718 128.874C87.2878 128.958 87.1665 129 87.0078 129H86.6018C86.4525 129 86.3311 128.958 86.2378 128.874C86.1538 128.781 86.1118 128.659 86.1118 128.51V119.55C86.1118 119.391 86.1538 119.27 86.2378 119.186C86.3311 119.102 86.4525 119.06 86.6018 119.06H87.1058C87.2645 119.06 87.3858 119.102 87.4698 119.186C87.5538 119.27 87.5958 119.391 87.5958 119.55V122.966C88.0905 122.266 88.8185 121.916 89.7798 121.916ZM89.4718 127.894C90.0318 127.894 90.4798 127.684 90.8158 127.264C91.1518 126.835 91.3198 126.261 91.3198 125.542C91.3198 124.833 91.1518 124.263 90.8158 123.834C90.4891 123.405 90.0458 123.19 89.4858 123.19C88.9165 123.19 88.4498 123.405 88.0858 123.834C87.7218 124.254 87.5398 124.823 87.5398 125.542C87.5398 126.279 87.7218 126.858 88.0858 127.278C88.4498 127.689 88.9118 127.894 89.4718 127.894ZM99.2023 127.236C99.3236 127.133 99.4403 127.082 99.5523 127.082C99.6643 127.082 99.7809 127.143 99.9023 127.264L100.098 127.474C100.201 127.595 100.252 127.712 100.252 127.824C100.252 127.945 100.192 128.062 100.07 128.174C99.6409 128.547 99.2116 128.813 98.7823 128.972C98.3623 129.131 97.8956 129.21 97.3823 129.21C96.6636 129.21 96.0383 129.061 95.5063 128.762C94.9836 128.463 94.5776 128.043 94.2883 127.502C94.0083 126.951 93.8682 126.317 93.8682 125.598C93.8682 124.889 94.0036 124.254 94.2743 123.694C94.5543 123.125 94.9463 122.681 95.4503 122.364C95.9636 122.047 96.5609 121.888 97.2423 121.888C98.2596 121.888 99.0436 122.191 99.5943 122.798C100.145 123.395 100.42 124.221 100.42 125.276V125.402C100.411 125.551 100.364 125.668 100.28 125.752C100.196 125.836 100.075 125.878 99.9163 125.878H95.3243C95.3803 126.494 95.5809 126.998 95.9263 127.39C96.2809 127.773 96.7756 127.964 97.4103 127.964C97.7556 127.964 98.0589 127.913 98.3203 127.81C98.5816 127.698 98.8756 127.507 99.2023 127.236ZM97.2143 123.064C96.7009 123.064 96.2856 123.218 95.9683 123.526C95.6603 123.825 95.4596 124.249 95.3663 124.8H98.9643C98.9269 124.259 98.7589 123.834 98.4603 123.526C98.1616 123.218 97.7463 123.064 97.2143 123.064ZM102.326 129C102.176 129 102.055 128.958 101.962 128.874C101.878 128.781 101.836 128.659 101.836 128.51V119.55C101.836 119.391 101.878 119.27 101.962 119.186C102.055 119.102 102.176 119.06 102.326 119.06H102.83C102.988 119.06 103.11 119.102 103.194 119.186C103.278 119.27 103.32 119.391 103.32 119.55V128.51C103.32 128.659 103.278 128.781 103.194 128.874C103.11 128.958 102.988 129 102.83 129H102.326Z" fill="#464646"/>
<path d="M116.552 130.872C116.504 130.92 116.448 130.944 116.384 130.944C116.32 130.944 116.264 130.912 116.216 130.848C115.488 130.032 114.928 129.184 114.536 128.304C114.152 127.424 113.96 126.428 113.96 125.316C113.96 124.204 114.152 123.208 114.536 122.328C114.928 121.448 115.488 120.6 116.216 119.784C116.264 119.72 116.32 119.688 116.384 119.688C116.448 119.688 116.504 119.712 116.552 119.76L116.708 119.904C116.772 119.952 116.804 120.012 116.804 120.084C116.804 120.14 116.78 120.192 116.732 120.24C116.076 121.04 115.584 121.84 115.256 122.64C114.936 123.44 114.776 124.332 114.776 125.316C114.776 126.292 114.94 127.184 115.268 127.992C115.596 128.792 116.084 129.592 116.732 130.392C116.78 130.44 116.804 130.492 116.804 130.548C116.804 130.62 116.772 130.68 116.708 130.728L116.552 130.872ZM120.227 129.156C119.675 129.156 119.183 129.024 118.751 128.76C118.319 128.496 117.983 128.132 117.743 127.668C117.503 127.196 117.383 126.656 117.383 126.048C117.383 125.44 117.503 124.904 117.743 124.44C117.983 123.968 118.319 123.6 118.751 123.336C119.183 123.072 119.675 122.94 120.227 122.94C120.779 122.94 121.271 123.072 121.703 123.336C122.135 123.6 122.471 123.968 122.711 124.44C122.951 124.904 123.071 125.44 123.071 126.048C123.071 126.656 122.951 127.196 122.711 127.668C122.471 128.132 122.135 128.496 121.703 128.76C121.271 129.024 120.779 129.156 120.227 129.156ZM120.227 128.496C120.843 128.496 121.335 128.272 121.703 127.824C122.071 127.368 122.255 126.776 122.255 126.048C122.255 125.32 122.071 124.732 121.703 124.284C121.335 123.828 120.843 123.6 120.227 123.6C119.611 123.6 119.119 123.828 118.751 124.284C118.383 124.732 118.199 125.32 118.199 126.048C118.199 126.776 118.383 127.368 118.751 127.824C119.119 128.272 119.611 128.496 120.227 128.496ZM127.279 122.952C127.775 122.952 128.219 123.084 128.611 123.348C129.011 123.604 129.323 123.968 129.547 124.44C129.771 124.904 129.883 125.436 129.883 126.036C129.883 126.644 129.771 127.184 129.547 127.656C129.323 128.128 129.015 128.496 128.623 128.76C128.231 129.016 127.783 129.144 127.279 129.144C126.351 129.144 125.671 128.804 125.239 128.124V130.968C125.239 131.128 125.159 131.208 124.999 131.208H124.687C124.527 131.208 124.447 131.128 124.447 130.968V123.324C124.447 123.164 124.527 123.084 124.687 123.084H124.951C125.111 123.084 125.191 123.164 125.191 123.324V124.08C125.407 123.712 125.691 123.432 126.043 123.24C126.395 123.048 126.807 122.952 127.279 122.952ZM127.219 128.472C127.779 128.472 128.227 128.248 128.563 127.8C128.899 127.352 129.067 126.764 129.067 126.036C129.067 125.316 128.899 124.736 128.563 124.296C128.227 123.848 127.779 123.624 127.219 123.624C126.619 123.624 126.131 123.84 125.755 124.272C125.387 124.696 125.203 125.284 125.203 126.036C125.203 126.788 125.391 127.384 125.767 127.824C126.143 128.256 126.627 128.472 127.219 128.472ZM133.779 128.34C133.803 128.332 133.835 128.328 133.875 128.328C133.923 128.328 133.967 128.344 134.007 128.376C134.047 128.408 134.071 128.452 134.079 128.508L134.115 128.676C134.123 128.692 134.127 128.72 134.127 128.76C134.127 128.872 134.067 128.94 133.947 128.964C133.659 129.052 133.351 129.096 133.023 129.096C132.503 129.096 132.131 128.98 131.907 128.748C131.691 128.508 131.583 128.164 131.583 127.716V123.684H130.695C130.535 123.684 130.455 123.604 130.455 123.444V123.324C130.455 123.164 130.535 123.084 130.695 123.084H131.583V121.26C131.583 121.1 131.663 121.02 131.823 121.02H132.135C132.295 121.02 132.375 121.1 132.375 121.26V123.084H133.815C133.975 123.084 134.055 123.164 134.055 123.324V123.444C134.055 123.604 133.975 123.684 133.815 123.684H132.375V127.62C132.375 127.916 132.431 128.124 132.543 128.244C132.655 128.364 132.847 128.424 133.119 128.424C133.311 128.424 133.531 128.396 133.779 128.34ZM135.659 121.584C135.499 121.584 135.363 121.528 135.251 121.416C135.147 121.304 135.095 121.168 135.095 121.008C135.095 120.848 135.147 120.716 135.251 120.612C135.363 120.508 135.499 120.456 135.659 120.456C135.827 120.456 135.963 120.508 136.067 120.612C136.179 120.716 136.235 120.848 136.235 121.008C136.235 121.168 136.179 121.304 136.067 121.416C135.963 121.528 135.827 121.584 135.659 121.584ZM135.503 129C135.343 129 135.263 128.92 135.263 128.76V123.324C135.263 123.164 135.343 123.084 135.503 123.084H135.815C135.975 123.084 136.055 123.164 136.055 123.324V128.76C136.055 128.92 135.975 129 135.815 129H135.503ZM140.266 129.156C139.714 129.156 139.222 129.024 138.79 128.76C138.358 128.496 138.022 128.132 137.782 127.668C137.542 127.196 137.422 126.656 137.422 126.048C137.422 125.44 137.542 124.904 137.782 124.44C138.022 123.968 138.358 123.6 138.79 123.336C139.222 123.072 139.714 122.94 140.266 122.94C140.818 122.94 141.31 123.072 141.742 123.336C142.174 123.6 142.51 123.968 142.75 124.44C142.99 124.904 143.11 125.44 143.11 126.048C143.11 126.656 142.99 127.196 142.75 127.668C142.51 128.132 142.174 128.496 141.742 128.76C141.31 129.024 140.818 129.156 140.266 129.156ZM140.266 128.496C140.882 128.496 141.374 128.272 141.742 127.824C142.11 127.368 142.294 126.776 142.294 126.048C142.294 125.32 142.11 124.732 141.742 124.284C141.374 123.828 140.882 123.6 140.266 123.6C139.65 123.6 139.158 123.828 138.79 124.284C138.422 124.732 138.238 125.32 138.238 126.048C138.238 126.776 138.422 127.368 138.79 127.824C139.158 128.272 139.65 128.496 140.266 128.496ZM147.126 122.94C147.822 122.94 148.346 123.132 148.698 123.516C149.058 123.9 149.238 124.38 149.238 124.956V128.76C149.238 128.92 149.158 129 148.998 129H148.686C148.526 129 148.446 128.92 148.446 128.76V125.22C148.446 124.692 148.318 124.292 148.062 124.02C147.806 123.748 147.438 123.612 146.958 123.612C146.654 123.612 146.374 123.688 146.118 123.84C145.862 123.984 145.658 124.184 145.506 124.44C145.354 124.696 145.278 124.976 145.278 125.28V128.76C145.278 128.92 145.198 129 145.038 129H144.726C144.566 129 144.486 128.92 144.486 128.76V123.324C144.486 123.164 144.566 123.084 144.726 123.084H144.99C145.15 123.084 145.23 123.164 145.23 123.324V123.9C145.43 123.58 145.694 123.34 146.022 123.18C146.35 123.02 146.718 122.94 147.126 122.94ZM153.27 122.94C153.998 122.94 154.566 123.116 154.974 123.468C155.382 123.812 155.586 124.268 155.586 124.836V128.76C155.586 128.92 155.506 129 155.346 129H155.106C154.946 129 154.866 128.92 154.866 128.76V128.22C154.666 128.54 154.382 128.78 154.014 128.94C153.654 129.1 153.25 129.18 152.802 129.18C152.178 129.18 151.67 129.048 151.278 128.784C150.886 128.52 150.69 128.112 150.69 127.56C150.69 127.12 150.814 126.768 151.062 126.504C151.31 126.232 151.634 126.028 152.034 125.892C152.434 125.748 152.934 125.62 153.534 125.508L154.83 125.28V124.896C154.83 124.488 154.69 124.172 154.41 123.948C154.13 123.716 153.762 123.6 153.306 123.6C152.962 123.6 152.65 123.664 152.37 123.792C152.09 123.92 151.79 124.14 151.47 124.452C151.414 124.508 151.354 124.536 151.29 124.536C151.234 124.536 151.182 124.512 151.134 124.464L150.978 124.32C150.922 124.264 150.894 124.204 150.894 124.14C150.894 124.068 150.922 124.004 150.978 123.948C151.314 123.596 151.666 123.34 152.034 123.18C152.41 123.02 152.822 122.94 153.27 122.94ZM152.838 128.52C153.414 128.52 153.89 128.368 154.266 128.064C154.642 127.76 154.83 127.372 154.83 126.9V125.892L153.714 126.108C153.194 126.212 152.782 126.312 152.478 126.408C152.174 126.504 151.93 126.644 151.746 126.828C151.562 127.012 151.47 127.252 151.47 127.548C151.47 127.852 151.59 128.092 151.83 128.268C152.078 128.436 152.414 128.52 152.838 128.52ZM157.593 129C157.433 129 157.353 128.92 157.353 128.76V120.72C157.353 120.56 157.433 120.48 157.593 120.48H157.905C158.065 120.48 158.145 120.56 158.145 120.72V128.76C158.145 128.92 158.065 129 157.905 129H157.593ZM159.835 130.848C159.787 130.912 159.731 130.944 159.667 130.944C159.603 130.944 159.547 130.92 159.499 130.872L159.343 130.728C159.279 130.68 159.247 130.62 159.247 130.548C159.247 130.492 159.271 130.44 159.319 130.392C159.975 129.592 160.467 128.792 160.795 127.992C161.123 127.192 161.287 126.3 161.287 125.316C161.287 124.34 161.123 123.448 160.795 122.64C160.467 121.832 159.975 121.032 159.319 120.24C159.279 120.192 159.259 120.14 159.259 120.084C159.259 120.012 159.287 119.952 159.343 119.904L159.499 119.76C159.547 119.712 159.603 119.688 159.667 119.688C159.731 119.688 159.787 119.72 159.835 119.784C160.563 120.6 161.119 121.448 161.503 122.328C161.895 123.208 162.091 124.204 162.091 125.316C162.091 126.428 161.895 127.424 161.503 128.304C161.119 129.184 160.563 130.032 159.835 130.848Z" fill="#767676"/>
<rect x="70.5" y="137.5" width="202" height="47" rx="3.5" fill="white"/>
<path d="M83.968 166.24C82.88 166.24 81.9413 165.989 81.152 165.488C80.3627 164.976 79.76 164.272 79.344 163.376C78.928 162.48 78.72 161.461 78.72 160.32C78.72 159.168 78.928 158.144 79.344 157.248C79.76 156.352 80.368 155.653 81.168 155.152C81.9787 154.651 82.9493 154.4 84.08 154.4C84.7307 154.4 85.3387 154.507 85.904 154.72C86.4693 154.923 87.072 155.275 87.712 155.776C87.808 155.84 87.856 155.915 87.856 156C87.856 156.064 87.824 156.139 87.76 156.224L87.536 156.512C87.472 156.597 87.3973 156.64 87.312 156.64C87.2267 156.64 87.1467 156.608 87.072 156.544C86.496 156.096 85.9733 155.792 85.504 155.632C85.0453 155.461 84.5707 155.376 84.08 155.376C83.216 155.376 82.464 155.589 81.824 156.016C81.1947 156.432 80.7093 157.013 80.368 157.76C80.0267 158.507 79.856 159.36 79.856 160.32C79.856 161.269 80.0267 162.123 80.368 162.88C80.7093 163.627 81.1893 164.213 81.808 164.64C82.4267 165.056 83.1413 165.264 83.952 165.264C84.592 165.264 85.1573 165.141 85.648 164.896C86.1493 164.64 86.6827 164.245 87.248 163.712C87.3333 163.648 87.408 163.616 87.472 163.616C87.5573 163.616 87.6373 163.653 87.712 163.728L87.968 164.016C88.032 164.08 88.064 164.149 88.064 164.224C88.064 164.32 88.0107 164.416 87.904 164.512C87.2427 165.141 86.6133 165.589 86.016 165.856C85.4187 166.112 84.736 166.24 83.968 166.24ZM93.2821 157.92C94.1995 157.92 94.8981 158.181 95.3781 158.704C95.8581 159.216 96.0981 159.851 96.0981 160.608V165.68C96.0981 165.893 95.9915 166 95.7781 166H95.3621C95.1488 166 95.0421 165.893 95.0421 165.68V160.96C95.0421 160.256 94.8715 159.723 94.5301 159.36C94.1888 158.997 93.6981 158.816 93.0581 158.816C92.6528 158.816 92.2795 158.917 91.9381 159.12C91.5968 159.312 91.3248 159.579 91.1221 159.92C90.9195 160.261 90.8181 160.635 90.8181 161.04V165.68C90.8181 165.893 90.7115 166 90.4981 166H90.0821C89.8688 166 89.7621 165.893 89.7621 165.68V154.96C89.7621 154.747 89.8688 154.64 90.0821 154.64H90.4981C90.7115 154.64 90.8181 154.747 90.8181 154.96V159.136C91.0741 158.731 91.4155 158.427 91.8421 158.224C92.2795 158.021 92.7595 157.92 93.2821 157.92ZM101.698 166.208C100.962 166.208 100.306 166.032 99.73 165.68C99.154 165.328 98.706 164.843 98.386 164.224C98.066 163.595 97.906 162.875 97.906 162.064C97.906 161.253 98.066 160.539 98.386 159.92C98.706 159.291 99.154 158.8 99.73 158.448C100.306 158.096 100.962 157.92 101.698 157.92C102.434 157.92 103.09 158.096 103.666 158.448C104.242 158.8 104.69 159.291 105.01 159.92C105.33 160.539 105.49 161.253 105.49 162.064C105.49 162.875 105.33 163.595 105.01 164.224C104.69 164.843 104.242 165.328 103.666 165.68C103.09 166.032 102.434 166.208 101.698 166.208ZM101.698 165.328C102.519 165.328 103.175 165.029 103.666 164.432C104.157 163.824 104.402 163.035 104.402 162.064C104.402 161.093 104.157 160.309 103.666 159.712C103.175 159.104 102.519 158.8 101.698 158.8C100.877 158.8 100.221 159.104 99.73 159.712C99.2393 160.309 98.994 161.093 98.994 162.064C98.994 163.035 99.2393 163.824 99.73 164.432C100.221 165.029 100.877 165.328 101.698 165.328ZM110.682 166.208C109.946 166.208 109.29 166.032 108.714 165.68C108.138 165.328 107.69 164.843 107.37 164.224C107.05 163.595 106.89 162.875 106.89 162.064C106.89 161.253 107.05 160.539 107.37 159.92C107.69 159.291 108.138 158.8 108.714 158.448C109.29 158.096 109.946 157.92 110.682 157.92C111.418 157.92 112.074 158.096 112.65 158.448C113.226 158.8 113.674 159.291 113.994 159.92C114.314 160.539 114.474 161.253 114.474 162.064C114.474 162.875 114.314 163.595 113.994 164.224C113.674 164.843 113.226 165.328 112.65 165.68C112.074 166.032 111.418 166.208 110.682 166.208ZM110.682 165.328C111.504 165.328 112.16 165.029 112.65 164.432C113.141 163.824 113.386 163.035 113.386 162.064C113.386 161.093 113.141 160.309 112.65 159.712C112.16 159.104 111.504 158.8 110.682 158.8C109.861 158.8 109.205 159.104 108.714 159.712C108.224 160.309 107.978 161.093 107.978 162.064C107.978 163.035 108.224 163.824 108.714 164.432C109.205 165.029 109.861 165.328 110.682 165.328ZM119.061 166.208C118.41 166.208 117.834 166.117 117.333 165.936C116.842 165.744 116.325 165.424 115.781 164.976C115.685 164.912 115.637 164.837 115.637 164.752C115.637 164.677 115.674 164.603 115.749 164.528L115.957 164.304C116.021 164.219 116.101 164.176 116.197 164.176C116.272 164.176 116.341 164.208 116.405 164.272C116.917 164.667 117.37 164.944 117.765 165.104C118.16 165.253 118.592 165.328 119.061 165.328C119.648 165.328 120.128 165.2 120.501 164.944C120.874 164.677 121.061 164.32 121.061 163.872C121.061 163.424 120.869 163.093 120.485 162.88C120.101 162.667 119.509 162.475 118.709 162.304C118.005 162.155 117.45 162 117.045 161.84C116.65 161.669 116.357 161.456 116.165 161.2C115.973 160.944 115.877 160.608 115.877 160.192C115.877 159.509 116.154 158.96 116.709 158.544C117.264 158.128 117.962 157.92 118.805 157.92C119.381 157.92 119.893 157.995 120.341 158.144C120.8 158.283 121.258 158.517 121.717 158.848C121.813 158.923 121.861 159.003 121.861 159.088C121.861 159.141 121.834 159.211 121.781 159.296L121.589 159.536C121.536 159.621 121.461 159.664 121.365 159.664C121.28 159.664 121.205 159.637 121.141 159.584C120.704 159.275 120.314 159.067 119.973 158.96C119.642 158.853 119.264 158.8 118.837 158.8C118.25 158.8 117.781 158.928 117.429 159.184C117.077 159.44 116.901 159.765 116.901 160.16C116.901 160.405 116.981 160.603 117.141 160.752C117.301 160.901 117.53 161.029 117.829 161.136C118.128 161.232 118.565 161.344 119.141 161.472C120.208 161.707 120.965 161.995 121.413 162.336C121.872 162.677 122.101 163.173 122.101 163.824C122.101 164.539 121.818 165.115 121.253 165.552C120.688 165.989 119.957 166.208 119.061 166.208ZM129.631 164.128C129.706 164.053 129.786 164.016 129.871 164.016C129.946 164.016 130.015 164.048 130.079 164.112L130.287 164.304C130.362 164.379 130.399 164.459 130.399 164.544C130.399 164.608 130.367 164.683 130.303 164.768C129.78 165.291 129.274 165.664 128.783 165.888C128.292 166.101 127.743 166.208 127.135 166.208C126.367 166.208 125.7 166.037 125.135 165.696C124.57 165.355 124.132 164.88 123.823 164.272C123.514 163.653 123.359 162.939 123.359 162.128C123.359 161.307 123.508 160.581 123.807 159.952C124.116 159.312 124.548 158.816 125.103 158.464C125.658 158.101 126.298 157.92 127.023 157.92C128.1 157.92 128.948 158.256 129.567 158.928C130.186 159.6 130.495 160.507 130.495 161.648V161.84C130.484 161.936 130.447 162.011 130.383 162.064C130.33 162.117 130.255 162.144 130.159 162.144H124.431C124.463 163.04 124.698 163.797 125.135 164.416C125.583 165.024 126.25 165.328 127.135 165.328C127.615 165.328 128.036 165.243 128.399 165.072C128.772 164.891 129.183 164.576 129.631 164.128ZM127.023 158.8C126.319 158.8 125.738 159.019 125.279 159.456C124.831 159.883 124.559 160.512 124.463 161.344H129.439C129.418 160.565 129.194 159.947 128.767 159.488C128.34 159.029 127.759 158.8 127.023 158.8ZM139.339 166.208C138.603 166.208 137.947 166.032 137.371 165.68C136.795 165.328 136.347 164.843 136.027 164.224C135.707 163.595 135.547 162.875 135.547 162.064C135.547 161.253 135.707 160.539 136.027 159.92C136.347 159.291 136.795 158.8 137.371 158.448C137.947 158.096 138.603 157.92 139.339 157.92C140.075 157.92 140.731 158.096 141.307 158.448C141.883 158.8 142.331 159.291 142.651 159.92C142.971 160.539 143.131 161.253 143.131 162.064C143.131 162.875 142.971 163.595 142.651 164.224C142.331 164.843 141.883 165.328 141.307 165.68C140.731 166.032 140.075 166.208 139.339 166.208ZM139.339 165.328C140.16 165.328 140.816 165.029 141.307 164.432C141.797 163.824 142.043 163.035 142.043 162.064C142.043 161.093 141.797 160.309 141.307 159.712C140.816 159.104 140.16 158.8 139.339 158.8C138.517 158.8 137.861 159.104 137.371 159.712C136.88 160.309 136.635 161.093 136.635 162.064C136.635 163.035 136.88 163.824 137.371 164.432C137.861 165.029 138.517 165.328 139.339 165.328ZM148.485 157.92C149.413 157.92 150.112 158.176 150.581 158.688C151.061 159.2 151.301 159.84 151.301 160.608V165.68C151.301 165.893 151.195 166 150.981 166H150.565C150.352 166 150.245 165.893 150.245 165.68V160.96C150.245 160.256 150.075 159.723 149.733 159.36C149.392 158.997 148.901 158.816 148.261 158.816C147.856 158.816 147.483 158.917 147.141 159.12C146.8 159.312 146.528 159.579 146.325 159.92C146.123 160.261 146.021 160.635 146.021 161.04V165.68C146.021 165.893 145.915 166 145.701 166H145.285C145.072 166 144.965 165.893 144.965 165.68V158.432C144.965 158.219 145.072 158.112 145.285 158.112H145.637C145.851 158.112 145.957 158.219 145.957 158.432V159.2C146.224 158.773 146.576 158.453 147.013 158.24C147.451 158.027 147.941 157.92 148.485 157.92ZM159.381 164.128C159.456 164.053 159.536 164.016 159.621 164.016C159.696 164.016 159.765 164.048 159.829 164.112L160.037 164.304C160.112 164.379 160.149 164.459 160.149 164.544C160.149 164.608 160.117 164.683 160.053 164.768C159.53 165.291 159.024 165.664 158.533 165.888C158.042 166.101 157.493 166.208 156.885 166.208C156.117 166.208 155.45 166.037 154.885 165.696C154.32 165.355 153.882 164.88 153.573 164.272C153.264 163.653 153.109 162.939 153.109 162.128C153.109 161.307 153.258 160.581 153.557 159.952C153.866 159.312 154.298 158.816 154.853 158.464C155.408 158.101 156.048 157.92 156.773 157.92C157.85 157.92 158.698 158.256 159.317 158.928C159.936 159.6 160.245 160.507 160.245 161.648V161.84C160.234 161.936 160.197 162.011 160.133 162.064C160.08 162.117 160.005 162.144 159.909 162.144H154.181C154.213 163.04 154.448 163.797 154.885 164.416C155.333 165.024 156 165.328 156.885 165.328C157.365 165.328 157.786 165.243 158.149 165.072C158.522 164.891 158.933 164.576 159.381 164.128ZM156.773 158.8C156.069 158.8 155.488 159.019 155.029 159.456C154.581 159.883 154.309 160.512 154.213 161.344H159.189C159.168 160.565 158.944 159.947 158.517 159.488C158.09 159.029 157.509 158.8 156.773 158.8Z" fill="#767676"/>
<path d="M251.5 158.5L257 164L262.5 158.5" stroke="#464646" stroke-width="1.5" stroke-linecap="round" stroke-linejoin="round"/>
<rect x="70.5" y="137.5" width="202" height="47" rx="3.5" stroke="#C3CCD9"/>
<path d="M71.272 201C71.112 201 71.032 200.92 71.032 200.76V192.72C71.032 192.56 71.112 192.48 71.272 192.48H71.644C71.804 192.48 71.884 192.56 71.884 192.72V196.248H76.804V192.72C76.804 192.56 76.884 192.48 77.044 192.48H77.416C77.576 192.48 77.656 192.56 77.656 192.72V200.76C77.656 200.92 77.576 201 77.416 201H77.044C76.884 201 76.804 200.92 76.804 200.76V196.956H71.884V200.76C71.884 200.92 71.804 201 71.644 201H71.272ZM83.8796 199.596C83.9356 199.54 83.9956 199.512 84.0596 199.512C84.1156 199.512 84.1676 199.536 84.2156 199.584L84.3716 199.728C84.4276 199.784 84.4556 199.844 84.4556 199.908C84.4556 199.956 84.4316 200.012 84.3836 200.076C83.9916 200.468 83.6116 200.748 83.2436 200.916C82.8756 201.076 82.4636 201.156 82.0076 201.156C81.4316 201.156 80.9316 201.028 80.5076 200.772C80.0836 200.516 79.7556 200.16 79.5236 199.704C79.2916 199.24 79.1756 198.704 79.1756 198.096C79.1756 197.48 79.2876 196.936 79.5116 196.464C79.7436 195.984 80.0676 195.612 80.4836 195.348C80.8996 195.076 81.3796 194.94 81.9236 194.94C82.7316 194.94 83.3676 195.192 83.8316 195.696C84.2956 196.2 84.5276 196.88 84.5276 197.736V197.88C84.5196 197.952 84.4916 198.008 84.4436 198.048C84.4036 198.088 84.3476 198.108 84.2756 198.108H79.9796C80.0036 198.78 80.1796 199.348 80.5076 199.812C80.8436 200.268 81.3436 200.496 82.0076 200.496C82.3676 200.496 82.6836 200.432 82.9556 200.304C83.2356 200.168 83.5436 199.932 83.8796 199.596ZM81.9236 195.6C81.3956 195.6 80.9596 195.764 80.6156 196.092C80.2796 196.412 80.0756 196.884 80.0036 197.508H83.7356C83.7196 196.924 83.5516 196.46 83.2316 196.116C82.9116 195.772 82.4756 195.6 81.9236 195.6ZM86.1986 201C86.0386 201 85.9586 200.92 85.9586 200.76V192.72C85.9586 192.56 86.0386 192.48 86.1986 192.48H86.5106C86.6706 192.48 86.7506 192.56 86.7506 192.72V200.76C86.7506 200.92 86.6706 201 86.5106 201H86.1986ZM91.3684 194.952C91.8644 194.952 92.3084 195.084 92.7004 195.348C93.1004 195.604 93.4124 195.968 93.6364 196.44C93.8604 196.904 93.9724 197.436 93.9724 198.036C93.9724 198.644 93.8604 199.184 93.6364 199.656C93.4124 200.128 93.1044 200.496 92.7124 200.76C92.3204 201.016 91.8724 201.144 91.3684 201.144C90.4404 201.144 89.7604 200.804 89.3284 200.124V202.968C89.3284 203.128 89.2484 203.208 89.0884 203.208H88.7764C88.6164 203.208 88.5364 203.128 88.5364 202.968V195.324C88.5364 195.164 88.6164 195.084 88.7764 195.084H89.0404C89.2004 195.084 89.2804 195.164 89.2804 195.324V196.08C89.4964 195.712 89.7804 195.432 90.1324 195.24C90.4844 195.048 90.8964 194.952 91.3684 194.952ZM91.3084 200.472C91.8684 200.472 92.3164 200.248 92.6524 199.8C92.9884 199.352 93.1564 198.764 93.1564 198.036C93.1564 197.316 92.9884 196.736 92.6524 196.296C92.3164 195.848 91.8684 195.624 91.3084 195.624C90.7084 195.624 90.2204 195.84 89.8444 196.272C89.4764 196.696 89.2924 197.284 89.2924 198.036C89.2924 198.788 89.4804 199.384 89.8564 199.824C90.2324 200.256 90.7164 200.472 91.3084 200.472ZM100.81 200.34C100.834 200.332 100.866 200.328 100.906 200.328C100.954 200.328 100.998 200.344 101.038 200.376C101.078 200.408 101.102 200.452 101.11 200.508L101.146 200.676C101.154 200.692 101.158 200.72 101.158 200.76C101.158 200.872 101.098 200.94 100.978 200.964C100.69 201.052 100.382 201.096 100.054 201.096C99.5338 201.096 99.1618 200.98 98.9378 200.748C98.7218 200.508 98.6138 200.164 98.6138 199.716V195.684H97.7258C97.5658 195.684 97.4858 195.604 97.4858 195.444V195.324C97.4858 195.164 97.5658 195.084 97.7258 195.084H98.6138V193.26C98.6138 193.1 98.6938 193.02 98.8538 193.02H99.1658C99.3258 193.02 99.4058 193.1 99.4058 193.26V195.084H100.846C101.006 195.084 101.086 195.164 101.086 195.324V195.444C101.086 195.604 101.006 195.684 100.846 195.684H99.4058V199.62C99.4058 199.916 99.4618 200.124 99.5738 200.244C99.6858 200.364 99.8778 200.424 100.15 200.424C100.342 200.424 100.562 200.396 100.81 200.34ZM106.38 199.596C106.436 199.54 106.496 199.512 106.56 199.512C106.616 199.512 106.668 199.536 106.716 199.584L106.872 199.728C106.928 199.784 106.956 199.844 106.956 199.908C106.956 199.956 106.932 200.012 106.884 200.076C106.492 200.468 106.112 200.748 105.744 200.916C105.376 201.076 104.964 201.156 104.508 201.156C103.932 201.156 103.432 201.028 103.008 200.772C102.584 200.516 102.256 200.16 102.024 199.704C101.792 199.24 101.676 198.704 101.676 198.096C101.676 197.48 101.788 196.936 102.012 196.464C102.244 195.984 102.568 195.612 102.984 195.348C103.4 195.076 103.88 194.94 104.424 194.94C105.232 194.94 105.868 195.192 106.332 195.696C106.796 196.2 107.028 196.88 107.028 197.736V197.88C107.02 197.952 106.992 198.008 106.944 198.048C106.904 198.088 106.848 198.108 106.776 198.108H102.48C102.504 198.78 102.68 199.348 103.008 199.812C103.344 200.268 103.844 200.496 104.508 200.496C104.868 200.496 105.184 200.432 105.456 200.304C105.736 200.168 106.044 199.932 106.38 199.596ZM104.424 195.6C103.896 195.6 103.46 195.764 103.116 196.092C102.78 196.412 102.576 196.884 102.504 197.508H106.236C106.22 196.924 106.052 196.46 105.732 196.116C105.412 195.772 104.976 195.6 104.424 195.6ZM112.638 200.712C112.67 200.768 112.686 200.816 112.686 200.856C112.686 200.952 112.622 201 112.494 201H112.134C112.014 201 111.918 200.948 111.846 200.844L110.214 198.444L108.594 200.844C108.522 200.948 108.426 201 108.306 201H107.97C107.906 201 107.854 200.988 107.814 200.964C107.782 200.932 107.766 200.896 107.766 200.856C107.766 200.8 107.782 200.752 107.814 200.712L109.758 197.916L107.97 195.372C107.938 195.332 107.922 195.288 107.922 195.24C107.922 195.136 107.99 195.084 108.126 195.084H108.474C108.594 195.084 108.69 195.136 108.762 195.24L110.226 197.388L111.678 195.24C111.75 195.136 111.846 195.084 111.966 195.084H112.29C112.354 195.084 112.402 195.1 112.434 195.132C112.474 195.156 112.494 195.188 112.494 195.228C112.494 195.284 112.478 195.332 112.446 195.372L110.694 197.88L112.638 200.712ZM116.618 200.34C116.642 200.332 116.674 200.328 116.714 200.328C116.762 200.328 116.806 200.344 116.846 200.376C116.886 200.408 116.91 200.452 116.918 200.508L116.954 200.676C116.962 200.692 116.966 200.72 116.966 200.76C116.966 200.872 116.906 200.94 116.786 200.964C116.498 201.052 116.19 201.096 115.862 201.096C115.342 201.096 114.97 200.98 114.746 200.748C114.53 200.508 114.422 200.164 114.422 199.716V195.684H113.534C113.374 195.684 113.294 195.604 113.294 195.444V195.324C113.294 195.164 113.374 195.084 113.534 195.084H114.422V193.26C114.422 193.1 114.502 193.02 114.662 193.02H114.974C115.134 193.02 115.214 193.1 115.214 193.26V195.084H116.654C116.814 195.084 116.894 195.164 116.894 195.324V195.444C116.894 195.604 116.814 195.684 116.654 195.684H115.214V199.62C115.214 199.916 115.27 200.124 115.382 200.244C115.494 200.364 115.686 200.424 115.958 200.424C116.15 200.424 116.37 200.396 116.618 200.34Z" fill="#464646"/>
<path d="M258 175C258 174.448 257.552 174 257 174C256.448 174 256 174.448 256 175L258 175ZM258 223L258 175L256 175L256 223L258 223Z" fill="#06BEFB"/>
<circle cx="257" cy="172" r="3" transform="rotate(180 257 172)" fill="#06BEFB"/>
<path d="M174 187C174 186.448 173.552 186 173 186C172.448 186 172 186.448 172 187L174 187ZM174 223L174 187L172 187L172 223L174 223Z" fill="#06BEFB"/>
<circle cx="173" cy="184" r="3" transform="rotate(180 173 184)" fill="#06BEFB"/>
</svg>
