<svg width="344" height="150" viewBox="0 0 344 150" fill="none" xmlns="http://www.w3.org/2000/svg">
<rect width="344" height="150" fill="#F5F5F5"/>
<path d="M75.348 54.224C74.3587 54.224 73.5 54 72.772 53.552C72.0533 53.104 71.498 52.488 71.106 51.704C70.7233 50.9107 70.532 50.0147 70.532 49.016C70.532 48.0173 70.7233 47.1307 71.106 46.356C71.4887 45.572 72.044 44.956 72.772 44.508C73.5 44.06 74.3727 43.836 75.39 43.836C76.006 43.836 76.566 43.9247 77.07 44.102C77.574 44.27 78.0827 44.5547 78.596 44.956C78.736 45.068 78.806 45.194 78.806 45.334C78.806 45.4273 78.7593 45.5347 78.666 45.656L78.358 46.02C78.246 46.1507 78.1293 46.216 78.008 46.216C77.9147 46.216 77.798 46.1693 77.658 46.076C77.238 45.7493 76.8507 45.5253 76.496 45.404C76.1507 45.2827 75.7773 45.222 75.376 45.222C74.7227 45.222 74.1533 45.3807 73.668 45.698C73.1827 46.0153 72.8093 46.4633 72.548 47.042C72.2867 47.6113 72.156 48.2693 72.156 49.016C72.156 49.7627 72.2867 50.4253 72.548 51.004C72.8093 51.5827 73.178 52.0353 73.654 52.362C74.13 52.6793 74.6853 52.838 75.32 52.838C75.796 52.838 76.2207 52.754 76.594 52.586C76.9673 52.418 77.3733 52.1473 77.812 51.774C77.9333 51.6713 78.05 51.62 78.162 51.62C78.2833 51.62 78.4 51.6853 78.512 51.816L78.82 52.166C78.9133 52.2687 78.96 52.376 78.96 52.488C78.96 52.6467 78.8853 52.7867 78.736 52.908C78.1947 53.3747 77.658 53.7107 77.126 53.916C76.6033 54.1213 76.0107 54.224 75.348 54.224ZM83.3956 54.21C82.7143 54.21 82.1076 54.056 81.5756 53.748C81.0529 53.44 80.6423 53.0107 80.3436 52.46C80.0449 51.9 79.8956 51.2607 79.8956 50.542C79.8956 49.8233 80.0449 49.1887 80.3436 48.638C80.6423 48.0873 81.0529 47.658 81.5756 47.35C82.1076 47.042 82.7143 46.888 83.3956 46.888C84.0676 46.888 84.6696 47.042 85.2016 47.35C85.7336 47.658 86.1489 48.092 86.4476 48.652C86.7463 49.2027 86.8956 49.8327 86.8956 50.542C86.8956 51.2607 86.7463 51.9 86.4476 52.46C86.1489 53.0107 85.7336 53.44 85.2016 53.748C84.6696 54.056 84.0676 54.21 83.3956 54.21ZM83.3956 52.964C83.9929 52.964 84.4736 52.7447 84.8376 52.306C85.2016 51.858 85.3836 51.27 85.3836 50.542C85.3836 49.8233 85.2016 49.2447 84.8376 48.806C84.4736 48.3673 83.9929 48.148 83.3956 48.148C82.7983 48.148 82.3176 48.3673 81.9536 48.806C81.5896 49.2447 81.4076 49.8233 81.4076 50.542C81.4076 51.27 81.5896 51.858 81.9536 52.306C82.3176 52.7447 82.7983 52.964 83.3956 52.964ZM92.5856 47.588C92.5856 47.4293 92.6276 47.308 92.7116 47.224C92.8049 47.14 92.9263 47.098 93.0756 47.098H93.5796C93.7383 47.098 93.8596 47.14 93.9436 47.224C94.0276 47.308 94.0696 47.4293 94.0696 47.588V53.51C94.0696 53.6593 94.0276 53.7807 93.9436 53.874C93.8596 53.958 93.7383 54 93.5796 54H93.2016C93.0523 54 92.9309 53.958 92.8376 53.874C92.7536 53.7807 92.7116 53.6593 92.7116 53.51V53.188C92.5249 53.5053 92.2543 53.7573 91.8996 53.944C91.5449 54.1213 91.1249 54.21 90.6396 54.21C89.8183 54.21 89.2069 54.0093 88.8056 53.608C88.4043 53.1973 88.2036 52.656 88.2036 51.984V47.588C88.2036 47.4293 88.2456 47.308 88.3296 47.224C88.4229 47.14 88.5443 47.098 88.6936 47.098H89.1976C89.3563 47.098 89.4776 47.14 89.5616 47.224C89.6456 47.308 89.6876 47.4293 89.6876 47.588V51.592C89.6876 52.0213 89.7949 52.3527 90.0096 52.586C90.2336 52.81 90.5556 52.922 90.9756 52.922C91.4609 52.922 91.8483 52.782 92.1376 52.502C92.4363 52.222 92.5856 51.816 92.5856 51.284V47.588ZM99.2918 46.888C100.085 46.888 100.692 47.112 101.112 47.56C101.541 47.9987 101.756 48.568 101.756 49.268V53.51C101.756 53.6593 101.714 53.7807 101.63 53.874C101.546 53.958 101.424 54 101.266 54H100.762C100.612 54 100.491 53.958 100.398 53.874C100.314 53.7807 100.272 53.6593 100.272 53.51V49.73C100.272 49.226 100.146 48.8387 99.8938 48.568C99.6512 48.2973 99.3012 48.162 98.8438 48.162C98.3958 48.162 98.0178 48.316 97.7098 48.624C97.4112 48.932 97.2618 49.3193 97.2618 49.786V53.51C97.2618 53.6593 97.2198 53.7807 97.1358 53.874C97.0518 53.958 96.9305 54 96.7718 54H96.2678C96.1185 54 95.9972 53.958 95.9038 53.874C95.8198 53.7807 95.7778 53.6593 95.7778 53.51V47.588C95.7778 47.4293 95.8198 47.308 95.9038 47.224C95.9972 47.14 96.1185 47.098 96.2678 47.098H96.6738C96.8325 47.098 96.9538 47.14 97.0378 47.224C97.1218 47.308 97.1638 47.4293 97.1638 47.588V47.952C97.3878 47.6067 97.6818 47.3453 98.0458 47.168C98.4098 46.9813 98.8252 46.888 99.2918 46.888ZM106.643 52.824C106.671 52.8147 106.713 52.81 106.769 52.81C107.002 52.81 107.142 52.9453 107.189 53.216L107.231 53.44C107.24 53.468 107.245 53.5147 107.245 53.58C107.245 53.8133 107.114 53.9627 106.853 54.028C106.48 54.112 106.139 54.154 105.831 54.154C105.168 54.154 104.688 54 104.389 53.692C104.1 53.384 103.955 52.922 103.955 52.306V48.232H103.185C103.036 48.232 102.914 48.19 102.821 48.106C102.737 48.0127 102.695 47.8913 102.695 47.742V47.588C102.695 47.4293 102.737 47.308 102.821 47.224C102.914 47.14 103.036 47.098 103.185 47.098H103.955V45.362C103.955 45.2033 103.997 45.082 104.081 44.998C104.174 44.914 104.296 44.872 104.445 44.872H104.949C105.108 44.872 105.229 44.914 105.313 44.998C105.397 45.082 105.439 45.2033 105.439 45.362V47.098H106.699C106.858 47.098 106.979 47.14 107.063 47.224C107.147 47.308 107.189 47.4293 107.189 47.588V47.742C107.189 47.8913 107.147 48.0127 107.063 48.106C106.979 48.19 106.858 48.232 106.699 48.232H105.439V52.124C105.439 52.3947 105.495 52.586 105.607 52.698C105.728 52.81 105.92 52.866 106.181 52.866C106.293 52.866 106.447 52.852 106.643 52.824ZM111.519 47.028C111.724 47.028 111.934 47.0513 112.149 47.098C112.401 47.154 112.527 47.3033 112.527 47.546C112.527 47.6113 112.522 47.658 112.513 47.686L112.443 48.022C112.387 48.2833 112.247 48.414 112.023 48.414L111.897 48.4C111.729 48.372 111.579 48.358 111.449 48.358C110.982 48.358 110.604 48.5447 110.315 48.918C110.035 49.282 109.895 49.7907 109.895 50.444V53.51C109.895 53.6593 109.853 53.7807 109.769 53.874C109.685 53.958 109.563 54 109.405 54H108.901C108.751 54 108.63 53.958 108.537 53.874C108.453 53.7807 108.411 53.6593 108.411 53.51V47.588C108.411 47.4293 108.453 47.308 108.537 47.224C108.63 47.14 108.751 47.098 108.901 47.098H109.307C109.465 47.098 109.587 47.14 109.671 47.224C109.755 47.308 109.797 47.4293 109.797 47.588V48.134C109.965 47.7887 110.193 47.518 110.483 47.322C110.772 47.126 111.117 47.028 111.519 47.028ZM118.107 47.504C118.191 47.2333 118.373 47.098 118.653 47.098H119.157C119.297 47.098 119.405 47.1307 119.479 47.196C119.554 47.2613 119.591 47.35 119.591 47.462C119.591 47.518 119.577 47.5833 119.549 47.658L117.043 54.854C116.819 55.5073 116.539 55.9693 116.203 56.24C115.877 56.52 115.41 56.66 114.803 56.66C114.523 56.66 114.285 56.6413 114.089 56.604C113.959 56.5947 113.861 56.548 113.795 56.464C113.73 56.3893 113.697 56.296 113.697 56.184C113.697 56.1187 113.702 56.0673 113.711 56.03L113.753 55.848C113.819 55.5867 113.959 55.456 114.173 55.456C114.257 55.456 114.337 55.4607 114.411 55.47C114.486 55.4793 114.561 55.484 114.635 55.484C114.906 55.484 115.13 55.414 115.307 55.274C115.494 55.134 115.648 54.8773 115.769 54.504L115.811 54.392L113.417 47.658C113.389 47.5833 113.375 47.5133 113.375 47.448C113.375 47.336 113.413 47.252 113.487 47.196C113.571 47.1307 113.683 47.098 113.823 47.098H114.355C114.645 47.098 114.831 47.2333 114.915 47.504L115.461 49.142C115.872 50.318 116.222 51.396 116.511 52.376L116.917 51.13C116.983 50.934 117.081 50.626 117.211 50.206C117.342 49.786 117.459 49.4267 117.561 49.128L118.107 47.504ZM126.9 54.21C126.218 54.21 125.612 54.056 125.08 53.748C124.557 53.44 124.146 53.0107 123.848 52.46C123.549 51.9 123.399 51.2607 123.399 50.542C123.399 49.8233 123.549 49.1887 123.848 48.638C124.146 48.0873 124.557 47.658 125.08 47.35C125.612 47.042 126.218 46.888 126.9 46.888C127.572 46.888 128.174 47.042 128.706 47.35C129.238 47.658 129.653 48.092 129.952 48.652C130.25 49.2027 130.4 49.8327 130.4 50.542C130.4 51.2607 130.25 51.9 129.952 52.46C129.653 53.0107 129.238 53.44 128.706 53.748C128.174 54.056 127.572 54.21 126.9 54.21ZM126.9 52.964C127.497 52.964 127.978 52.7447 128.342 52.306C128.706 51.858 128.888 51.27 128.888 50.542C128.888 49.8233 128.706 49.2447 128.342 48.806C127.978 48.3673 127.497 48.148 126.9 48.148C126.302 48.148 125.822 48.3673 125.458 48.806C125.094 49.2447 124.912 49.8233 124.912 50.542C124.912 51.27 125.094 51.858 125.458 52.306C125.822 52.7447 126.302 52.964 126.9 52.964ZM134.609 45.096C134.282 45.096 134.044 45.1753 133.895 45.334C133.745 45.4927 133.671 45.7633 133.671 46.146V47.098H134.805C134.963 47.098 135.085 47.14 135.169 47.224C135.253 47.308 135.295 47.4293 135.295 47.588V47.742C135.295 47.8913 135.253 48.0127 135.169 48.106C135.085 48.19 134.963 48.232 134.805 48.232H133.671V53.51C133.671 53.6593 133.629 53.7807 133.545 53.874C133.461 53.958 133.339 54 133.181 54H132.677C132.527 54 132.406 53.958 132.313 53.874C132.229 53.7807 132.187 53.6593 132.187 53.51V48.232H131.445C131.295 48.232 131.174 48.19 131.081 48.106C130.997 48.0127 130.955 47.8913 130.955 47.742V47.588C130.955 47.4293 130.997 47.308 131.081 47.224C131.174 47.14 131.295 47.098 131.445 47.098H132.187V46.048C132.187 45.3293 132.369 44.788 132.733 44.424C133.106 44.0507 133.643 43.864 134.343 43.864C134.66 43.864 134.982 43.8967 135.309 43.962C135.551 44.0273 135.673 44.1767 135.673 44.41C135.673 44.4753 135.668 44.5267 135.659 44.564L135.617 44.76C135.561 45.0027 135.379 45.124 135.071 45.124L134.903 45.11C134.837 45.1007 134.739 45.096 134.609 45.096ZM143.21 46.916C143.798 46.916 144.32 47.0653 144.778 47.364C145.244 47.6627 145.608 48.0873 145.87 48.638C146.131 49.1887 146.262 49.8233 146.262 50.542C146.262 51.27 146.131 51.9093 145.87 52.46C145.608 53.0107 145.244 53.4353 144.778 53.734C144.311 54.0327 143.788 54.182 143.21 54.182C142.174 54.182 141.413 53.7947 140.928 53.02V53.51C140.928 53.6593 140.886 53.7807 140.802 53.874C140.718 53.958 140.596 54 140.438 54H140.032C139.882 54 139.761 53.958 139.668 53.874C139.584 53.7807 139.542 53.6593 139.542 53.51V44.55C139.542 44.3913 139.584 44.27 139.668 44.186C139.761 44.102 139.882 44.06 140.032 44.06H140.535C140.694 44.06 140.816 44.102 140.9 44.186C140.984 44.27 141.026 44.3913 141.026 44.55V47.966C141.52 47.266 142.248 46.916 143.21 46.916ZM142.902 52.894C143.462 52.894 143.91 52.684 144.246 52.264C144.582 51.8347 144.75 51.2607 144.75 50.542C144.75 49.8327 144.582 49.2633 144.246 48.834C143.919 48.4047 143.476 48.19 142.916 48.19C142.346 48.19 141.88 48.4047 141.516 48.834C141.152 49.254 140.97 49.8233 140.97 50.542C140.97 51.2793 141.152 51.858 141.516 52.278C141.88 52.6887 142.342 52.894 142.902 52.894ZM148.364 45.754C148.093 45.754 147.865 45.6653 147.678 45.488C147.491 45.3013 147.398 45.082 147.398 44.83C147.398 44.5687 147.491 44.3493 147.678 44.172C147.865 43.9947 148.093 43.906 148.364 43.906C148.635 43.906 148.863 43.9947 149.05 44.172C149.237 44.3493 149.33 44.5687 149.33 44.83C149.33 45.082 149.237 45.3013 149.05 45.488C148.863 45.6653 148.635 45.754 148.364 45.754ZM148.098 54C147.949 54 147.827 53.958 147.734 53.874C147.65 53.7807 147.608 53.6593 147.608 53.51V47.588C147.608 47.4293 147.65 47.308 147.734 47.224C147.827 47.14 147.949 47.098 148.098 47.098H148.602C148.761 47.098 148.882 47.14 148.966 47.224C149.05 47.308 149.092 47.4293 149.092 47.588V53.51C149.092 53.6593 149.05 53.7807 148.966 53.874C148.882 53.958 148.761 54 148.602 54H148.098ZM153.915 47.028C154.12 47.028 154.33 47.0513 154.545 47.098C154.797 47.154 154.923 47.3033 154.923 47.546C154.923 47.6113 154.918 47.658 154.909 47.686L154.839 48.022C154.783 48.2833 154.643 48.414 154.419 48.414L154.293 48.4C154.125 48.372 153.976 48.358 153.845 48.358C153.378 48.358 153 48.5447 152.711 48.918C152.431 49.282 152.291 49.7907 152.291 50.444V53.51C152.291 53.6593 152.249 53.7807 152.165 53.874C152.081 53.958 151.96 54 151.801 54H151.297C151.148 54 151.026 53.958 150.933 53.874C150.849 53.7807 150.807 53.6593 150.807 53.51V47.588C150.807 47.4293 150.849 47.308 150.933 47.224C151.026 47.14 151.148 47.098 151.297 47.098H151.703C151.862 47.098 151.983 47.14 152.067 47.224C152.151 47.308 152.193 47.4293 152.193 47.588V48.134C152.361 47.7887 152.59 47.518 152.879 47.322C153.168 47.126 153.514 47.028 153.915 47.028ZM159.499 52.824C159.527 52.8147 159.569 52.81 159.625 52.81C159.858 52.81 159.998 52.9453 160.045 53.216L160.087 53.44C160.096 53.468 160.101 53.5147 160.101 53.58C160.101 53.8133 159.97 53.9627 159.709 54.028C159.335 54.112 158.995 54.154 158.687 54.154C158.024 54.154 157.543 54 157.245 53.692C156.955 53.384 156.811 52.922 156.811 52.306V48.232H156.041C155.891 48.232 155.77 48.19 155.677 48.106C155.593 48.0127 155.551 47.8913 155.551 47.742V47.588C155.551 47.4293 155.593 47.308 155.677 47.224C155.77 47.14 155.891 47.098 156.041 47.098H156.811V45.362C156.811 45.2033 156.853 45.082 156.937 44.998C157.03 44.914 157.151 44.872 157.301 44.872H157.805C157.963 44.872 158.085 44.914 158.169 44.998C158.253 45.082 158.295 45.2033 158.295 45.362V47.098H159.555C159.713 47.098 159.835 47.14 159.919 47.224C160.003 47.308 160.045 47.4293 160.045 47.588V47.742C160.045 47.8913 160.003 48.0127 159.919 48.106C159.835 48.19 159.713 48.232 159.555 48.232H158.295V52.124C158.295 52.3947 158.351 52.586 158.463 52.698C158.584 52.81 158.775 52.866 159.037 52.866C159.149 52.866 159.303 52.852 159.499 52.824ZM164.78 46.888C165.573 46.888 166.18 47.112 166.6 47.56C167.029 47.9987 167.244 48.568 167.244 49.268V53.51C167.244 53.6593 167.202 53.7807 167.118 53.874C167.034 53.958 166.913 54 166.754 54H166.25C166.101 54 165.979 53.958 165.886 53.874C165.802 53.7807 165.76 53.6593 165.76 53.51V49.73C165.76 49.226 165.634 48.8387 165.382 48.568C165.139 48.2973 164.789 48.162 164.332 48.162C163.884 48.162 163.506 48.316 163.198 48.624C162.899 48.932 162.75 49.3193 162.75 49.786V53.51C162.75 53.6593 162.708 53.7807 162.624 53.874C162.54 53.958 162.419 54 162.26 54H161.756C161.607 54 161.485 53.958 161.392 53.874C161.308 53.7807 161.266 53.6593 161.266 53.51V44.55C161.266 44.3913 161.308 44.27 161.392 44.186C161.485 44.102 161.607 44.06 161.756 44.06H162.26C162.419 44.06 162.54 44.102 162.624 44.186C162.708 44.27 162.75 44.3913 162.75 44.55V47.812C162.974 47.5133 163.259 47.2847 163.604 47.126C163.959 46.9673 164.351 46.888 164.78 46.888Z" fill="#464646"/>
<rect x="70.5" y="62.5" width="203" height="47" rx="3.5" fill="white"/>
<path d="M87.136 79.96C87.136 79.7467 87.2427 79.64 87.456 79.64H87.92C88.1333 79.64 88.24 79.7467 88.24 79.96V90.68C88.24 90.8933 88.1333 91 87.92 91H87.2C87.0293 91 86.896 90.9307 86.8 90.792L83.36 85.576L83.168 85.272C81.888 83.352 80.9707 81.9387 80.416 81.032C80.4587 82.28 80.48 83.72 80.48 85.352V90.68C80.48 90.8933 80.3733 91 80.16 91H79.696C79.4827 91 79.376 90.8933 79.376 90.68V79.96C79.376 79.7467 79.4827 79.64 79.696 79.64H80.416C80.5867 79.64 80.72 79.7093 80.816 79.848L84.24 85.048L84.848 85.992C85.9253 87.624 86.7093 88.84 87.2 89.64C87.1573 88.3707 87.136 86.9253 87.136 85.304V79.96ZM94.0574 91.208C93.3214 91.208 92.6654 91.032 92.0894 90.68C91.5134 90.328 91.0654 89.8427 90.7454 89.224C90.4254 88.5947 90.2654 87.8747 90.2654 87.064C90.2654 86.2533 90.4254 85.5387 90.7454 84.92C91.0654 84.2907 91.5134 83.8 92.0894 83.448C92.6654 83.096 93.3214 82.92 94.0574 82.92C94.7934 82.92 95.4494 83.096 96.0254 83.448C96.6014 83.8 97.0494 84.2907 97.3694 84.92C97.6894 85.5387 97.8494 86.2533 97.8494 87.064C97.8494 87.8747 97.6894 88.5947 97.3694 89.224C97.0494 89.8427 96.6014 90.328 96.0254 90.68C95.4494 91.032 94.7934 91.208 94.0574 91.208ZM94.0574 90.328C94.8787 90.328 95.5347 90.0293 96.0254 89.432C96.516 88.824 96.7614 88.0347 96.7614 87.064C96.7614 86.0933 96.516 85.3093 96.0254 84.712C95.5347 84.104 94.8787 83.8 94.0574 83.8C93.236 83.8 92.58 84.104 92.0894 84.712C91.5987 85.3093 91.3534 86.0933 91.3534 87.064C91.3534 88.0347 91.5987 88.824 92.0894 89.432C92.58 90.0293 93.236 90.328 94.0574 90.328ZM102.628 83.048C102.895 83.048 103.209 83.0907 103.572 83.176C103.764 83.24 103.839 83.3733 103.796 83.576L103.732 83.832C103.679 84.0347 103.545 84.1093 103.332 84.056C103.076 83.992 102.841 83.96 102.628 83.96C102.084 83.96 101.631 84.1947 101.268 84.664C100.916 85.1333 100.74 85.784 100.74 86.616V90.68C100.74 90.8933 100.633 91 100.42 91H100.004C99.7907 91 99.684 90.8933 99.684 90.68V83.432C99.684 83.2187 99.7907 83.112 100.004 83.112H100.356C100.569 83.112 100.676 83.2187 100.676 83.432V84.312C100.857 83.9173 101.113 83.608 101.444 83.384C101.785 83.16 102.18 83.048 102.628 83.048ZM114.281 83.384C114.324 83.2027 114.446 83.112 114.649 83.112H115.081C115.198 83.112 115.278 83.144 115.321 83.208C115.374 83.272 115.385 83.3573 115.353 83.464L113.289 90.728C113.246 90.9093 113.124 91 112.921 91H112.201C112.02 91 111.902 90.9093 111.849 90.728L111.113 88.28C110.729 87 110.372 85.688 110.041 84.344C109.721 85.6453 109.369 86.968 108.985 88.312L108.281 90.728C108.238 90.9093 108.116 91 107.913 91H107.225C107.022 91 106.9 90.9093 106.857 90.728L104.793 83.464C104.782 83.4427 104.777 83.4053 104.777 83.352C104.777 83.2773 104.804 83.2187 104.857 83.176C104.91 83.1333 104.98 83.112 105.065 83.112H105.497C105.7 83.112 105.822 83.2027 105.865 83.384L106.633 86.216C106.985 87.5067 107.31 88.792 107.609 90.072C107.844 89.1227 108.19 87.8373 108.649 86.216L109.465 83.384C109.508 83.2027 109.63 83.112 109.833 83.112H110.313C110.505 83.112 110.622 83.2027 110.665 83.384L111.497 86.216C111.86 87.528 112.201 88.8187 112.521 90.088C112.766 89.0213 113.097 87.7307 113.513 86.216L114.281 83.384ZM120.005 82.92C120.976 82.92 121.733 83.1547 122.277 83.624C122.821 84.0827 123.093 84.6907 123.093 85.448V90.68C123.093 90.8933 122.987 91 122.773 91H122.453C122.24 91 122.133 90.8933 122.133 90.68V89.96C121.867 90.3867 121.488 90.7067 120.997 90.92C120.517 91.1333 119.979 91.24 119.381 91.24C118.549 91.24 117.872 91.064 117.349 90.712C116.827 90.36 116.565 89.816 116.565 89.08C116.565 88.4933 116.731 88.024 117.061 87.672C117.392 87.3093 117.824 87.0373 118.357 86.856C118.891 86.664 119.557 86.4933 120.357 86.344L122.085 86.04V85.528C122.085 84.984 121.899 84.5627 121.525 84.264C121.152 83.9547 120.661 83.8 120.053 83.8C119.595 83.8 119.179 83.8853 118.805 84.056C118.432 84.2267 118.032 84.52 117.605 84.936C117.531 85.0107 117.451 85.048 117.365 85.048C117.291 85.048 117.221 85.016 117.157 84.952L116.949 84.76C116.875 84.6853 116.837 84.6053 116.837 84.52C116.837 84.424 116.875 84.3387 116.949 84.264C117.397 83.7947 117.867 83.4533 118.357 83.24C118.859 83.0267 119.408 82.92 120.005 82.92ZM119.429 90.36C120.197 90.36 120.832 90.1573 121.333 89.752C121.835 89.3467 122.085 88.8293 122.085 88.2V86.856L120.597 87.144C119.904 87.2827 119.355 87.416 118.949 87.544C118.544 87.672 118.219 87.8587 117.973 88.104C117.728 88.3493 117.605 88.6693 117.605 89.064C117.605 89.4693 117.765 89.7893 118.085 90.024C118.416 90.248 118.864 90.36 119.429 90.36ZM130.111 83.368C130.175 83.1973 130.298 83.112 130.479 83.112H130.911C130.997 83.112 131.066 83.1333 131.119 83.176C131.173 83.2187 131.199 83.2773 131.199 83.352L131.167 83.48L128.079 92.2C127.909 92.68 127.743 93.0533 127.583 93.32C127.423 93.5867 127.205 93.7893 126.927 93.928C126.661 94.0667 126.309 94.136 125.871 94.136C125.594 94.136 125.349 94.1147 125.135 94.072C125.029 94.0613 124.954 94.0187 124.911 93.944C124.879 93.8693 124.874 93.784 124.895 93.688L124.943 93.48C124.986 93.288 125.109 93.2027 125.311 93.224C125.503 93.256 125.669 93.272 125.807 93.272C126.149 93.272 126.415 93.176 126.607 92.984C126.81 92.792 127.002 92.4293 127.183 91.896L127.327 91.448L124.511 83.48L124.479 83.352C124.479 83.2773 124.506 83.2187 124.559 83.176C124.613 83.1333 124.682 83.112 124.767 83.112H125.231C125.402 83.112 125.519 83.1973 125.583 83.368L126.479 86.008C126.565 86.2747 126.778 86.9093 127.119 87.912L127.839 90.072C128.191 89.08 128.655 87.7147 129.231 85.976L130.111 83.368Z" fill="#464646"/>
<path d="M252.5 83.5L258 89L263.5 83.5" stroke="#464646" stroke-width="1.5" stroke-linecap="round" stroke-linejoin="round"/>
<rect x="70.5" y="62.5" width="203" height="47" rx="3.5" stroke="#C3CCD9"/>
</svg>
