<svg width="344" height="168" viewBox="0 0 344 168" fill="none" xmlns="http://www.w3.org/2000/svg">
<rect width="344" height="168" fill="#F5F5F5"/>
<path d="M70 92C70 90.8954 70.8954 90 72 90H271C272.105 90 273 90.8954 273 92C273 93.1046 272.105 94 271 94H72C70.8954 94 70 93.1046 70 92Z" fill="#C2DAFE"/>
<path d="M70 92C70 90.3431 71.3431 89 73 89H116C117.657 89 119 90.3431 119 92C119 93.6569 117.657 95 116 95H73C71.3431 95 70 93.6569 70 92Z" fill="#0063FB"/>
<g filter="url(#filter0_dd_1853_23866)">
<rect x="109" y="80" width="24" height="24" rx="4" fill="#0063FB"/>
</g>
<path d="M75.136 70.24C74.2933 70.24 73.5307 70.112 72.848 69.856C72.176 69.5893 71.4667 69.1573 70.72 68.56C70.624 68.4747 70.576 68.3947 70.576 68.32C70.576 68.256 70.608 68.1867 70.672 68.112L70.928 67.808C70.9813 67.7227 71.0613 67.68 71.168 67.68C71.2533 67.68 71.3227 67.7067 71.376 67.76C72.1333 68.3467 72.7947 68.7467 73.36 68.96C73.9253 69.1627 74.5173 69.264 75.136 69.264C76 69.264 76.704 69.0507 77.248 68.624C77.792 68.1867 78.064 67.5947 78.064 66.848C78.064 66.368 77.936 65.984 77.68 65.696C77.424 65.408 77.072 65.184 76.624 65.024C76.1867 64.864 75.5627 64.6933 74.752 64.512C73.7813 64.2987 73.024 64.0693 72.48 63.824C71.9467 63.5787 71.5573 63.2693 71.312 62.896C71.0667 62.5227 70.944 62.0427 70.944 61.456C70.944 60.8373 71.12 60.2987 71.472 59.84C71.8347 59.3707 72.3147 59.0133 72.912 58.768C73.5093 58.5227 74.1547 58.4 74.848 58.4C75.6053 58.4 76.2933 58.512 76.912 58.736C77.5413 58.96 78.16 59.3173 78.768 59.808C78.864 59.872 78.912 59.9467 78.912 60.032C78.912 60.096 78.88 60.1707 78.816 60.256L78.576 60.544C78.5227 60.6293 78.4427 60.672 78.336 60.672C78.2507 60.672 78.176 60.6453 78.112 60.592C77.568 60.144 77.04 59.8293 76.528 59.648C76.0267 59.4667 75.472 59.376 74.864 59.376C74.3093 59.376 73.8187 59.4667 73.392 59.648C72.9653 59.8187 72.6293 60.0587 72.384 60.368C72.1493 60.6773 72.032 61.0293 72.032 61.424C72.032 61.8507 72.1493 62.192 72.384 62.448C72.6293 62.704 72.9653 62.9067 73.392 63.056C73.8293 63.2053 74.464 63.376 75.296 63.568C76.256 63.792 77.0133 64.0427 77.568 64.32C78.1333 64.5973 78.544 64.9387 78.8 65.344C79.056 65.7387 79.184 66.2293 79.184 66.816C79.184 67.4987 79.008 68.1013 78.656 68.624C78.3147 69.136 77.8347 69.536 77.216 69.824C76.5973 70.1013 75.904 70.24 75.136 70.24ZM81.6495 60.112C81.4362 60.112 81.2548 60.0373 81.1055 59.888C80.9668 59.7387 80.8975 59.5573 80.8975 59.344C80.8975 59.1307 80.9668 58.9547 81.1055 58.816C81.2548 58.6773 81.4362 58.608 81.6495 58.608C81.8735 58.608 82.0548 58.6773 82.1935 58.816C82.3428 58.9547 82.4175 59.1307 82.4175 59.344C82.4175 59.5573 82.3428 59.7387 82.1935 59.888C82.0548 60.0373 81.8735 60.112 81.6495 60.112ZM81.4415 70C81.2282 70 81.1215 69.8933 81.1215 69.68V62.432C81.1215 62.2187 81.2282 62.112 81.4415 62.112H81.8575C82.0708 62.112 82.1775 62.2187 82.1775 62.432V69.68C82.1775 69.8933 82.0708 70 81.8575 70H81.4415ZM89.9198 62.112C90.1331 62.112 90.2398 62.2187 90.2398 62.432V62.656C90.2398 62.7947 90.1918 62.928 90.0958 63.056L85.3278 69.12H89.9198C90.1331 69.12 90.2398 69.2267 90.2398 69.44V69.68C90.2398 69.8933 90.1331 70 89.9198 70H84.3198C84.1064 70 83.9998 69.8933 83.9998 69.68V69.44C83.9998 69.3013 84.0478 69.168 84.1438 69.04L88.9118 62.992H84.6238C84.4104 62.992 84.3038 62.8853 84.3038 62.672V62.432C84.3038 62.2187 84.4104 62.112 84.6238 62.112H89.9198ZM97.5218 68.128C97.5964 68.0533 97.6764 68.016 97.7618 68.016C97.8364 68.016 97.9058 68.048 97.9698 68.112L98.1778 68.304C98.2524 68.3787 98.2898 68.4587 98.2898 68.544C98.2898 68.608 98.2578 68.6827 98.1938 68.768C97.6711 69.2907 97.1644 69.664 96.6738 69.888C96.1831 70.1013 95.6338 70.208 95.0258 70.208C94.2578 70.208 93.5911 70.0373 93.0258 69.696C92.4604 69.3547 92.0231 68.88 91.7138 68.272C91.4044 67.6533 91.2498 66.9387 91.2498 66.128C91.2498 65.3067 91.3991 64.5813 91.6978 63.952C92.0071 63.312 92.4391 62.816 92.9938 62.464C93.5484 62.1013 94.1884 61.92 94.9138 61.92C95.9911 61.92 96.8391 62.256 97.4578 62.928C98.0764 63.6 98.3858 64.5067 98.3858 65.648V65.84C98.3751 65.936 98.3378 66.0107 98.2738 66.064C98.2204 66.1173 98.1458 66.144 98.0498 66.144H92.3218C92.3538 67.04 92.5884 67.7973 93.0258 68.416C93.4738 69.024 94.1404 69.328 95.0258 69.328C95.5058 69.328 95.9271 69.2427 96.2898 69.072C96.6631 68.8907 97.0738 68.576 97.5218 68.128ZM94.9138 62.8C94.2098 62.8 93.6284 63.0187 93.1698 63.456C92.7218 63.8827 92.4498 64.512 92.3538 65.344H97.3298C97.3084 64.5653 97.0844 63.9467 96.6578 63.488C96.2311 63.0293 95.6498 62.8 94.9138 62.8Z" fill="#464646"/>
<path d="M262.722 69.072C262.935 69.072 263.042 69.1787 263.042 69.392V69.68C263.042 69.8933 262.935 70 262.722 70H255.618C255.405 70 255.298 69.8933 255.298 69.68V69.616C255.298 68.8373 255.431 68.1813 255.698 67.648C255.975 67.104 256.333 66.6453 256.77 66.272C257.218 65.8987 257.831 65.472 258.61 64.992C258.685 64.9387 258.962 64.7733 259.442 64.496C260.007 64.176 260.45 63.8987 260.77 63.664C261.09 63.4293 261.357 63.1413 261.57 62.8C261.783 62.448 261.89 62.0373 261.89 61.568C261.89 60.8533 261.65 60.304 261.17 59.92C260.69 59.536 260.109 59.344 259.426 59.344C258.765 59.344 258.215 59.4827 257.778 59.76C257.341 60.0373 256.834 60.5173 256.258 61.2C256.183 61.296 256.093 61.344 255.986 61.344C255.933 61.344 255.869 61.3173 255.794 61.264L255.522 61.056C255.426 60.9707 255.378 60.8853 255.378 60.8C255.378 60.7467 255.405 60.6827 255.458 60.608C256.023 59.8933 256.61 59.3493 257.218 58.976C257.837 58.6027 258.562 58.416 259.394 58.416C260.087 58.416 260.706 58.5493 261.25 58.816C261.794 59.072 262.215 59.44 262.514 59.92C262.823 60.3893 262.978 60.9227 262.978 61.52C262.978 62.1493 262.845 62.6933 262.578 63.152C262.322 63.6 261.997 63.9733 261.602 64.272C261.207 64.56 260.674 64.9013 260.002 65.296L259.202 65.776C258.53 66.192 258.018 66.5333 257.666 66.8C257.314 67.056 257.021 67.3707 256.786 67.744C256.551 68.1067 256.413 68.5493 256.37 69.072H262.722ZM272.393 66.336C272.607 66.336 272.713 66.4427 272.713 66.656V66.928C272.713 67.1413 272.607 67.248 272.393 67.248H270.969V69.68C270.969 69.8933 270.863 70 270.649 70H270.233C270.02 70 269.913 69.8933 269.913 69.68V67.248H264.409C264.196 67.248 264.089 67.1413 264.089 66.928V66.512C264.089 66.3947 264.127 66.2667 264.201 66.128L268.777 58.848C268.863 58.7093 268.991 58.64 269.161 58.64H269.673C269.759 58.64 269.828 58.6613 269.881 58.704C269.935 58.736 269.961 58.784 269.961 58.848C269.961 58.88 269.94 58.9387 269.897 59.024L265.273 66.336H269.913V63.92C269.913 63.7067 270.02 63.6 270.233 63.6H270.649C270.863 63.6 270.969 63.7067 270.969 63.92V66.336H272.393Z" fill="#464646"/>
<defs>
<filter id="filter0_dd_1853_23866" x="104" y="76" width="34" height="34" filterUnits="userSpaceOnUse" color-interpolation-filters="sRGB">
<feFlood flood-opacity="0" result="BackgroundImageFix"/>
<feColorMatrix in="SourceAlpha" type="matrix" values="0 0 0 0 0 0 0 0 0 0 0 0 0 0 0 0 0 0 127 0" result="hardAlpha"/>
<feOffset dy="1"/>
<feGaussianBlur stdDeviation="0.5"/>
<feColorMatrix type="matrix" values="0 0 0 0 0.278431 0 0 0 0 0.333333 0 0 0 0 0.411765 0 0 0 0.24 0"/>
<feBlend mode="normal" in2="BackgroundImageFix" result="effect1_dropShadow_1853_23866"/>
<feColorMatrix in="SourceAlpha" type="matrix" values="0 0 0 0 0 0 0 0 0 0 0 0 0 0 0 0 0 0 127 0" result="hardAlpha"/>
<feOffset dy="1"/>
<feGaussianBlur stdDeviation="2.5"/>
<feColorMatrix type="matrix" values="0 0 0 0 0.278431 0 0 0 0 0.333333 0 0 0 0 0.411765 0 0 0 0.16 0"/>
<feBlend mode="normal" in2="effect1_dropShadow_1853_23866" result="effect2_dropShadow_1853_23866"/>
<feBlend mode="normal" in="SourceGraphic" in2="effect2_dropShadow_1853_23866" result="shape"/>
</filter>
</defs>
</svg>
