<svg width="344" height="168" viewBox="0 0 344 168" fill="none" xmlns="http://www.w3.org/2000/svg">
<rect width="344" height="168" fill="#F5F5F5"/>
<path d="M202.696 89C202.483 89 202.376 88.8933 202.376 88.68V77.96C202.376 77.7467 202.483 77.64 202.696 77.64H203.192C203.405 77.64 203.512 77.7467 203.512 77.96V88.056H208.616C208.829 88.056 208.936 88.1627 208.936 88.376V88.68C208.936 88.8933 208.829 89 208.616 89H202.696ZM211.087 79.112C210.874 79.112 210.692 79.0373 210.543 78.888C210.404 78.7387 210.335 78.5573 210.335 78.344C210.335 78.1307 210.404 77.9547 210.543 77.816C210.692 77.6773 210.874 77.608 211.087 77.608C211.311 77.608 211.492 77.6773 211.631 77.816C211.78 77.9547 211.855 78.1307 211.855 78.344C211.855 78.5573 211.78 78.7387 211.631 78.888C211.492 79.0373 211.311 79.112 211.087 79.112ZM210.879 89C210.666 89 210.559 88.8933 210.559 88.68V81.432C210.559 81.2187 210.666 81.112 210.879 81.112H211.295C211.508 81.112 211.615 81.2187 211.615 81.432V88.68C211.615 88.8933 211.508 89 211.295 89H210.879ZM217.485 80.92C218.413 80.92 219.112 81.176 219.581 81.688C220.061 82.2 220.301 82.84 220.301 83.608V88.68C220.301 88.8933 220.195 89 219.981 89H219.565C219.352 89 219.245 88.8933 219.245 88.68V83.96C219.245 83.256 219.075 82.7227 218.733 82.36C218.392 81.9973 217.901 81.816 217.261 81.816C216.856 81.816 216.483 81.9173 216.141 82.12C215.8 82.312 215.528 82.5787 215.325 82.92C215.123 83.2613 215.021 83.6347 215.021 84.04V88.68C215.021 88.8933 214.915 89 214.701 89H214.285C214.072 89 213.965 88.8933 213.965 88.68V81.432C213.965 81.2187 214.072 81.112 214.285 81.112H214.637C214.851 81.112 214.957 81.2187 214.957 81.432V82.2C215.224 81.7733 215.576 81.4533 216.013 81.24C216.451 81.0267 216.941 80.92 217.485 80.92ZM228.381 87.128C228.456 87.0533 228.536 87.016 228.621 87.016C228.696 87.016 228.765 87.048 228.829 87.112L229.037 87.304C229.112 87.3787 229.149 87.4587 229.149 87.544C229.149 87.608 229.117 87.6827 229.053 87.768C228.53 88.2907 228.024 88.664 227.533 88.888C227.042 89.1013 226.493 89.208 225.885 89.208C225.117 89.208 224.45 89.0373 223.885 88.696C223.32 88.3547 222.882 87.88 222.573 87.272C222.264 86.6533 222.109 85.9387 222.109 85.128C222.109 84.3067 222.258 83.5813 222.557 82.952C222.866 82.312 223.298 81.816 223.853 81.464C224.408 81.1013 225.048 80.92 225.773 80.92C226.85 80.92 227.698 81.256 228.317 81.928C228.936 82.6 229.245 83.5067 229.245 84.648V84.84C229.234 84.936 229.197 85.0107 229.133 85.064C229.08 85.1173 229.005 85.144 228.909 85.144H223.181C223.213 86.04 223.448 86.7973 223.885 87.416C224.333 88.024 225 88.328 225.885 88.328C226.365 88.328 226.786 88.2427 227.149 88.072C227.522 87.8907 227.933 87.576 228.381 87.128ZM225.773 81.8C225.069 81.8 224.488 82.0187 224.029 82.456C223.581 82.8827 223.309 83.512 223.213 84.344H228.189C228.168 83.5653 227.944 82.9467 227.517 82.488C227.09 82.0293 226.509 81.8 225.773 81.8ZM234.036 80.92C235.007 80.92 235.765 81.1547 236.309 81.624C236.853 82.0827 237.125 82.6907 237.125 83.448V88.68C237.125 88.8933 237.018 89 236.805 89H236.485C236.271 89 236.165 88.8933 236.165 88.68V87.96C235.898 88.3867 235.519 88.7067 235.029 88.92C234.549 89.1333 234.01 89.24 233.413 89.24C232.581 89.24 231.903 89.064 231.381 88.712C230.858 88.36 230.597 87.816 230.597 87.08C230.597 86.4933 230.762 86.024 231.093 85.672C231.423 85.3093 231.855 85.0373 232.389 84.856C232.922 84.664 233.589 84.4933 234.389 84.344L236.117 84.04V83.528C236.117 82.984 235.93 82.5627 235.557 82.264C235.183 81.9547 234.693 81.8 234.085 81.8C233.626 81.8 233.21 81.8853 232.837 82.056C232.463 82.2267 232.063 82.52 231.637 82.936C231.562 83.0107 231.482 83.048 231.397 83.048C231.322 83.048 231.253 83.016 231.189 82.952L230.981 82.76C230.906 82.6853 230.868 82.6053 230.868 82.52C230.868 82.424 230.906 82.3387 230.981 82.264C231.429 81.7947 231.898 81.4533 232.389 81.24C232.89 81.0267 233.439 80.92 234.036 80.92ZM233.461 88.36C234.229 88.36 234.863 88.1573 235.365 87.752C235.866 87.3467 236.117 86.8293 236.117 86.2V84.856L234.629 85.144C233.935 85.2827 233.386 85.416 232.981 85.544C232.575 85.672 232.25 85.8587 232.005 86.104C231.759 86.3493 231.637 86.6693 231.637 87.064C231.637 87.4693 231.797 87.7893 232.117 88.024C232.447 88.248 232.895 88.36 233.461 88.36ZM242.409 81.048C242.676 81.048 242.991 81.0907 243.353 81.176C243.545 81.24 243.62 81.3733 243.577 81.576L243.513 81.832C243.46 82.0347 243.327 82.1093 243.113 82.056C242.857 81.992 242.623 81.96 242.409 81.96C241.865 81.96 241.412 82.1947 241.049 82.664C240.697 83.1333 240.521 83.784 240.521 84.616V88.68C240.521 88.8933 240.415 89 240.201 89H239.785C239.572 89 239.465 88.8933 239.465 88.68V81.432C239.465 81.2187 239.572 81.112 239.785 81.112H240.137C240.351 81.112 240.457 81.2187 240.457 81.432V82.312C240.639 81.9173 240.895 81.608 241.225 81.384C241.567 81.16 241.961 81.048 242.409 81.048Z" fill="#464646"/>
<path d="M99 40C99 39.4477 98.5523 39 98 39C97.4477 39 97 39.4477 97 40L99 40ZM97 40L97 128L99 128L99 40L97 40Z" fill="#C3CCD9"/>
<path d="M185 129C185.552 129 186 128.552 186 128C186 127.448 185.552 127 185 127V129ZM97 129H185V127L97 127V129Z" fill="#C3CCD9"/>
<path d="M178.879 49C178.879 48.4477 178.431 48 177.879 48L168.879 48C168.326 48 167.879 48.4477 167.879 49C167.879 49.5523 168.326 50 168.879 50L176.879 50L176.879 58C176.879 58.5523 177.326 59 177.879 59C178.431 59 178.879 58.5523 178.879 58L178.879 49ZM105.293 120.172C104.902 120.562 104.902 121.195 105.293 121.586C105.683 121.976 106.317 121.976 106.707 121.586L105.293 120.172ZM177.172 48.2929L105.293 120.172L106.707 121.586L178.586 49.7071L177.172 48.2929Z" fill="#06BEFB"/>
</svg>
