<svg width="344" height="168" viewBox="0 0 344 168" fill="none" xmlns="http://www.w3.org/2000/svg">
<rect width="344" height="168" fill="#F5F5F5"/>
<path d="M70 92C70 90.8954 70.8954 90 72 90H271C272.105 90 273 90.8954 273 92C273 93.1046 272.105 94 271 94H72C70.8954 94 70 93.1046 70 92Z" fill="#C2DAFE"/>
<path d="M70 92C70 90.3431 71.3431 89 73 89H151C152.657 89 154 90.3431 154 92C154 93.6569 152.657 95 151 95H73C71.3431 95 70 93.6569 70 92Z" fill="#0063FB"/>
<g filter="url(#filter0_dd_1853_23946)">
<rect x="144" y="80" width="24" height="24" rx="4" fill="#0063FB"/>
</g>
<path d="M76.016 70.24C74.9387 70.24 74 69.9893 73.2 69.488C72.4 68.976 71.7867 68.272 71.36 67.376C70.9333 66.48 70.72 65.4613 70.72 64.32C70.72 63.1787 70.9333 62.16 71.36 61.264C71.7867 60.368 72.4 59.6693 73.2 59.168C74 58.656 74.9387 58.4 76.016 58.4C77.0933 58.4 78.032 58.656 78.832 59.168C79.632 59.6693 80.2453 60.368 80.672 61.264C81.0987 62.16 81.312 63.1787 81.312 64.32C81.312 65.4613 81.0987 66.48 80.672 67.376C80.2453 68.272 79.632 68.976 78.832 69.488C78.032 69.9893 77.0933 70.24 76.016 70.24ZM76.016 69.264C76.8373 69.264 77.5627 69.056 78.192 68.64C78.8213 68.2133 79.3067 67.6267 79.648 66.88C80 66.1227 80.176 65.2693 80.176 64.32C80.176 63.3707 80 62.5227 79.648 61.776C79.3067 61.0187 78.8213 60.432 78.192 60.016C77.5627 59.5893 76.8373 59.376 76.016 59.376C75.1947 59.376 74.4693 59.5893 73.84 60.016C73.2107 60.432 72.72 61.0187 72.368 61.776C72.0267 62.5227 71.856 63.3707 71.856 64.32C71.856 65.2693 72.0267 66.1227 72.368 66.88C72.72 67.6267 73.2107 68.2133 73.84 68.64C74.4693 69.056 75.1947 69.264 76.016 69.264ZM86.9756 61.936C87.637 61.936 88.229 62.112 88.7516 62.464C89.285 62.8053 89.701 63.2907 89.9996 63.92C90.2983 64.5387 90.4476 65.248 90.4476 66.048C90.4476 66.8587 90.2983 67.5787 89.9996 68.208C89.701 68.8373 89.2903 69.328 88.7676 69.68C88.245 70.0213 87.6476 70.192 86.9756 70.192C85.7383 70.192 84.8316 69.7387 84.2556 68.832V72.624C84.2556 72.8373 84.149 72.944 83.9356 72.944H83.5196C83.3063 72.944 83.1996 72.8373 83.1996 72.624V62.432C83.1996 62.2187 83.3063 62.112 83.5196 62.112H83.8716C84.085 62.112 84.1916 62.2187 84.1916 62.432V63.44C84.4796 62.9493 84.8583 62.576 85.3276 62.32C85.797 62.064 86.3463 61.936 86.9756 61.936ZM86.8956 69.296C87.6423 69.296 88.2396 68.9973 88.6876 68.4C89.1356 67.8027 89.3596 67.0187 89.3596 66.048C89.3596 65.088 89.1356 64.3147 88.6876 63.728C88.2396 63.1307 87.6423 62.832 86.8956 62.832C86.0956 62.832 85.445 63.12 84.9436 63.696C84.453 64.2613 84.2076 65.0453 84.2076 66.048C84.2076 67.0507 84.4583 67.8453 84.9596 68.432C85.461 69.008 86.1063 69.296 86.8956 69.296ZM95.3646 61.92C96.3353 61.92 97.0926 62.1547 97.6366 62.624C98.1806 63.0827 98.4526 63.6907 98.4526 64.448V69.68C98.4526 69.8933 98.346 70 98.1326 70H97.8126C97.5993 70 97.4926 69.8933 97.4926 69.68V68.96C97.226 69.3867 96.8473 69.7067 96.3566 69.92C95.8766 70.1333 95.338 70.24 94.7406 70.24C93.9086 70.24 93.2313 70.064 92.7086 69.712C92.186 69.36 91.9246 68.816 91.9246 68.08C91.9246 67.4933 92.09 67.024 92.4206 66.672C92.7513 66.3093 93.1833 66.0373 93.7166 65.856C94.25 65.664 94.9166 65.4933 95.7166 65.344L97.4446 65.04V64.528C97.4446 63.984 97.258 63.5627 96.8846 63.264C96.5113 62.9547 96.0206 62.8 95.4126 62.8C94.954 62.8 94.538 62.8853 94.1646 63.056C93.7913 63.2267 93.3913 63.52 92.9646 63.936C92.89 64.0107 92.81 64.048 92.7246 64.048C92.65 64.048 92.5806 64.016 92.5166 63.952L92.3086 63.76C92.234 63.6853 92.1966 63.6053 92.1966 63.52C92.1966 63.424 92.234 63.3387 92.3086 63.264C92.7566 62.7947 93.226 62.4533 93.7166 62.24C94.218 62.0267 94.7673 61.92 95.3646 61.92ZM94.7886 69.36C95.5566 69.36 96.1913 69.1573 96.6926 68.752C97.194 68.3467 97.4446 67.8293 97.4446 67.2V65.856L95.9566 66.144C95.2633 66.2827 94.714 66.416 94.3086 66.544C93.9033 66.672 93.578 66.8587 93.3326 67.104C93.0873 67.3493 92.9646 67.6693 92.9646 68.064C92.9646 68.4693 93.1246 68.7893 93.4446 69.024C93.7753 69.248 94.2233 69.36 94.7886 69.36ZM103.993 70.208C103.236 70.208 102.575 70.0373 102.009 69.696C101.455 69.344 101.023 68.8587 100.713 68.24C100.415 67.6107 100.265 66.8853 100.265 66.064C100.265 65.2533 100.415 64.5333 100.713 63.904C101.023 63.2747 101.455 62.7893 102.009 62.448C102.575 62.096 103.225 61.92 103.961 61.92C104.559 61.92 105.081 62.0213 105.529 62.224C105.977 62.416 106.409 62.736 106.825 63.184C106.889 63.248 106.921 63.3173 106.921 63.392C106.921 63.488 106.879 63.568 106.793 63.632L106.569 63.84C106.505 63.904 106.431 63.936 106.345 63.936C106.271 63.936 106.191 63.8933 106.105 63.808C105.732 63.4347 105.375 63.1733 105.033 63.024C104.703 62.8747 104.335 62.8 103.929 62.8C103.375 62.8 102.9 62.9547 102.505 63.264C102.121 63.5733 101.833 63.9787 101.641 64.48C101.449 64.9707 101.353 65.4987 101.353 66.064C101.353 66.6293 101.449 67.1627 101.641 67.664C101.833 68.1547 102.127 68.5547 102.521 68.864C102.916 69.1627 103.401 69.312 103.977 69.312C104.404 69.312 104.777 69.2373 105.097 69.088C105.428 68.928 105.796 68.6293 106.201 68.192C106.287 68.1067 106.367 68.064 106.441 68.064C106.527 68.064 106.601 68.096 106.665 68.16L106.889 68.336C106.964 68.4 107.001 68.4747 107.001 68.56C107.001 68.6453 106.953 68.7467 106.857 68.864C106.409 69.3547 105.961 69.7013 105.513 69.904C105.065 70.1067 104.559 70.208 103.993 70.208ZM109.243 60.112C109.03 60.112 108.849 60.0373 108.699 59.888C108.561 59.7387 108.491 59.5573 108.491 59.344C108.491 59.1307 108.561 58.9547 108.699 58.816C108.849 58.6773 109.03 58.608 109.243 58.608C109.467 58.608 109.649 58.6773 109.787 58.816C109.937 58.9547 110.011 59.1307 110.011 59.344C110.011 59.5573 109.937 59.7387 109.787 59.888C109.649 60.0373 109.467 60.112 109.243 60.112ZM109.035 70C108.822 70 108.715 69.8933 108.715 69.68V62.432C108.715 62.2187 108.822 62.112 109.035 62.112H109.451C109.665 62.112 109.771 62.2187 109.771 62.432V69.68C109.771 69.8933 109.665 70 109.451 70H109.035ZM115.674 69.12C115.706 69.1093 115.748 69.104 115.802 69.104C115.866 69.104 115.924 69.1253 115.978 69.168C116.031 69.2107 116.063 69.2693 116.074 69.344L116.122 69.568C116.132 69.5893 116.138 69.6267 116.138 69.68C116.138 69.8293 116.058 69.92 115.898 69.952C115.514 70.0693 115.103 70.128 114.666 70.128C113.972 70.128 113.476 69.9733 113.178 69.664C112.89 69.344 112.746 68.8853 112.746 68.288V62.912H111.562C111.348 62.912 111.242 62.8053 111.242 62.592V62.432C111.242 62.2187 111.348 62.112 111.562 62.112H112.746V59.68C112.746 59.4667 112.852 59.36 113.066 59.36H113.482C113.695 59.36 113.802 59.4667 113.802 59.68V62.112H115.722C115.935 62.112 116.042 62.2187 116.042 62.432V62.592C116.042 62.8053 115.935 62.912 115.722 62.912H113.802V68.16C113.802 68.5547 113.876 68.832 114.026 68.992C114.175 69.152 114.431 69.232 114.794 69.232C115.05 69.232 115.343 69.1947 115.674 69.12ZM122.721 62.368C122.785 62.1973 122.907 62.112 123.089 62.112H123.521C123.606 62.112 123.675 62.1333 123.729 62.176C123.782 62.2187 123.809 62.2773 123.809 62.352L123.777 62.48L120.689 71.2C120.518 71.68 120.353 72.0533 120.193 72.32C120.033 72.5867 119.814 72.7893 119.537 72.928C119.27 73.0667 118.918 73.136 118.481 73.136C118.203 73.136 117.958 73.1147 117.745 73.072C117.638 73.0613 117.563 73.0187 117.521 72.944C117.489 72.8693 117.483 72.784 117.505 72.688L117.553 72.48C117.595 72.288 117.718 72.2027 117.921 72.224C118.113 72.256 118.278 72.272 118.417 72.272C118.758 72.272 119.025 72.176 119.217 71.984C119.419 71.792 119.611 71.4293 119.793 70.896L119.937 70.448L117.121 62.48L117.089 62.352C117.089 62.2773 117.115 62.2187 117.169 62.176C117.222 62.1333 117.291 62.112 117.377 62.112H117.841C118.011 62.112 118.129 62.1973 118.193 62.368L119.089 65.008C119.174 65.2747 119.387 65.9093 119.729 66.912L120.449 69.072C120.801 68.08 121.265 66.7147 121.841 64.976L122.721 62.368Z" fill="#464646"/>
<path d="M249.097 66.336C249.31 66.336 249.417 66.4427 249.417 66.656V66.928C249.417 67.1413 249.31 67.248 249.097 67.248H247.673V69.68C247.673 69.8933 247.566 70 247.353 70H246.937C246.723 70 246.617 69.8933 246.617 69.68V67.248H241.113C240.899 67.248 240.793 67.1413 240.793 66.928V66.512C240.793 66.3947 240.83 66.2667 240.905 66.128L245.481 58.848C245.566 58.7093 245.694 58.64 245.865 58.64H246.377C246.462 58.64 246.531 58.6613 246.585 58.704C246.638 58.736 246.665 58.784 246.665 58.848C246.665 58.88 246.643 58.9387 246.601 59.024L241.977 66.336H246.617V63.92C246.617 63.7067 246.723 63.6 246.937 63.6H247.353C247.566 63.6 247.673 63.7067 247.673 63.92V66.336H249.097ZM254.644 70.24C253.897 70.24 253.241 70.0587 252.676 69.696C252.121 69.3333 251.678 68.8267 251.348 68.176C250.825 67.1413 250.564 65.856 250.564 64.32C250.564 62.7733 250.825 61.4827 251.348 60.448C251.678 59.7973 252.121 59.296 252.676 58.944C253.241 58.5813 253.897 58.4 254.644 58.4C255.39 58.4 256.041 58.5813 256.596 58.944C257.161 59.296 257.609 59.7973 257.94 60.448C258.462 61.4827 258.724 62.7733 258.724 64.32C258.724 65.856 258.462 67.1413 257.94 68.176C257.609 68.8267 257.161 69.3333 256.596 69.696C256.041 70.0587 255.39 70.24 254.644 70.24ZM254.644 69.312C255.689 69.312 256.473 68.768 256.996 67.68C257.412 66.7947 257.62 65.6747 257.62 64.32C257.62 62.944 257.412 61.8187 256.996 60.944C256.484 59.8667 255.7 59.328 254.644 59.328C253.588 59.328 252.804 59.8667 252.292 60.944C251.876 61.8187 251.668 62.944 251.668 64.32C251.668 65.6853 251.876 66.8053 252.292 67.68C252.814 68.768 253.598 69.312 254.644 69.312ZM262.766 69.968C262.702 70.064 262.622 70.112 262.526 70.112C262.451 70.112 262.387 70.0907 262.334 70.048L262.174 69.952C262.078 69.888 262.03 69.808 262.03 69.712C262.03 69.648 262.051 69.5787 262.094 69.504L269.694 58.672C269.758 58.576 269.843 58.528 269.95 58.528C270.014 58.528 270.078 58.544 270.142 58.576L270.302 58.672C270.408 58.736 270.462 58.8213 270.462 58.928C270.462 59.0027 270.44 59.0667 270.398 59.12L262.766 69.968ZM262.798 63.616C262.36 63.616 261.955 63.5147 261.582 63.312C261.219 63.0987 260.931 62.8 260.718 62.416C260.504 62.032 260.398 61.6 260.398 61.12C260.398 60.64 260.504 60.2133 260.718 59.84C260.931 59.456 261.219 59.1627 261.582 58.96C261.955 58.7467 262.36 58.64 262.798 58.64C263.235 58.64 263.635 58.7467 263.998 58.96C264.371 59.1627 264.664 59.456 264.878 59.84C265.091 60.2133 265.198 60.64 265.198 61.12C265.198 61.6 265.091 62.032 264.878 62.416C264.664 62.8 264.371 63.0987 263.998 63.312C263.635 63.5147 263.235 63.616 262.798 63.616ZM262.798 62.848C263.256 62.848 263.619 62.688 263.886 62.368C264.163 62.0373 264.302 61.6213 264.302 61.12C264.302 60.6187 264.163 60.208 263.886 59.888C263.619 59.5573 263.256 59.392 262.798 59.392C262.339 59.392 261.971 59.5573 261.694 59.888C261.427 60.208 261.294 60.6187 261.294 61.12C261.294 61.6213 261.427 62.0373 261.694 62.368C261.971 62.688 262.339 62.848 262.798 62.848ZM269.63 70.32C269.192 70.32 268.787 70.2133 268.414 70C268.051 69.7973 267.763 69.504 267.55 69.12C267.336 68.736 267.23 68.304 267.23 67.824C267.23 67.344 267.336 66.9173 267.55 66.544C267.763 66.16 268.051 65.8667 268.414 65.664C268.787 65.4507 269.192 65.344 269.63 65.344C270.067 65.344 270.467 65.4507 270.83 65.664C271.203 65.8667 271.496 66.16 271.71 66.544C271.923 66.9173 272.03 67.344 272.03 67.824C272.03 68.304 271.923 68.736 271.71 69.12C271.496 69.504 271.203 69.7973 270.83 70C270.467 70.2133 270.067 70.32 269.63 70.32ZM269.63 69.552C270.088 69.552 270.451 69.392 270.718 69.072C270.995 68.7413 271.134 68.3253 271.134 67.824C271.134 67.3227 270.995 66.912 270.718 66.592C270.451 66.2613 270.088 66.096 269.63 66.096C269.171 66.096 268.803 66.2613 268.526 66.592C268.259 66.912 268.126 67.3227 268.126 67.824C268.126 68.3253 268.259 68.7413 268.526 69.072C268.803 69.392 269.171 69.552 269.63 69.552Z" fill="#464646"/>
<defs>
<filter id="filter0_dd_1853_23946" x="139" y="76" width="34" height="34" filterUnits="userSpaceOnUse" color-interpolation-filters="sRGB">
<feFlood flood-opacity="0" result="BackgroundImageFix"/>
<feColorMatrix in="SourceAlpha" type="matrix" values="0 0 0 0 0 0 0 0 0 0 0 0 0 0 0 0 0 0 127 0" result="hardAlpha"/>
<feOffset dy="1"/>
<feGaussianBlur stdDeviation="0.5"/>
<feColorMatrix type="matrix" values="0 0 0 0 0.278431 0 0 0 0 0.333333 0 0 0 0 0.411765 0 0 0 0.24 0"/>
<feBlend mode="normal" in2="BackgroundImageFix" result="effect1_dropShadow_1853_23946"/>
<feColorMatrix in="SourceAlpha" type="matrix" values="0 0 0 0 0 0 0 0 0 0 0 0 0 0 0 0 0 0 127 0" result="hardAlpha"/>
<feOffset dy="1"/>
<feGaussianBlur stdDeviation="2.5"/>
<feColorMatrix type="matrix" values="0 0 0 0 0.278431 0 0 0 0 0.333333 0 0 0 0 0.411765 0 0 0 0.16 0"/>
<feBlend mode="normal" in2="effect1_dropShadow_1853_23946" result="effect2_dropShadow_1853_23946"/>
<feBlend mode="normal" in="SourceGraphic" in2="effect2_dropShadow_1853_23946" result="shape"/>
</filter>
</defs>
</svg>
