<svg width="344" height="320" viewBox="0 0 344 320" fill="none" xmlns="http://www.w3.org/2000/svg">
<rect width="344" height="320" fill="#F5F5F5"/>
<path d="M80 160C80 158.895 80.8954 158 82 158H281C282.105 158 283 158.895 283 160C283 161.105 282.105 162 281 162H82C80.8954 162 80 161.105 80 160Z" fill="#C2DAFE"/>
<path d="M80 160C80 158.343 81.3431 157 83 157H161C162.657 157 164 158.343 164 160C164 161.657 162.657 163 161 163H83C81.3431 163 80 161.657 80 160Z" fill="#0063FB"/>
<g filter="url(#filter0_dd_1678_18726)">
<rect x="154" y="148" width="24" height="24" rx="4" fill="#0063FB"/>
</g>
<path d="M148.598 110C148.438 110 148.358 109.92 148.358 109.76V101.72C148.358 101.56 148.438 101.48 148.598 101.48H148.97C149.13 101.48 149.21 101.56 149.21 101.72V105.248H154.13V101.72C154.13 101.56 154.21 101.48 154.37 101.48H154.742C154.902 101.48 154.982 101.56 154.982 101.72V109.76C154.982 109.92 154.902 110 154.742 110H154.37C154.21 110 154.13 109.92 154.13 109.76V105.956H149.21V109.76C149.21 109.92 149.13 110 148.97 110H148.598ZM159.178 103.94C159.906 103.94 160.474 104.116 160.882 104.468C161.29 104.812 161.494 105.268 161.494 105.836V109.76C161.494 109.92 161.414 110 161.254 110H161.014C160.854 110 160.774 109.92 160.774 109.76V109.22C160.574 109.54 160.29 109.78 159.922 109.94C159.562 110.1 159.158 110.18 158.71 110.18C158.086 110.18 157.578 110.048 157.186 109.784C156.794 109.52 156.598 109.112 156.598 108.56C156.598 108.12 156.722 107.768 156.97 107.504C157.218 107.232 157.542 107.028 157.942 106.892C158.342 106.748 158.842 106.62 159.442 106.508L160.738 106.28V105.896C160.738 105.488 160.598 105.172 160.318 104.948C160.038 104.716 159.67 104.6 159.214 104.6C158.87 104.6 158.558 104.664 158.278 104.792C157.998 104.92 157.698 105.14 157.378 105.452C157.322 105.508 157.262 105.536 157.198 105.536C157.142 105.536 157.09 105.512 157.042 105.464L156.886 105.32C156.83 105.264 156.802 105.204 156.802 105.14C156.802 105.068 156.83 105.004 156.886 104.948C157.222 104.596 157.574 104.34 157.942 104.18C158.318 104.02 158.73 103.94 159.178 103.94ZM158.746 109.52C159.322 109.52 159.798 109.368 160.174 109.064C160.55 108.76 160.738 108.372 160.738 107.9V106.892L159.622 107.108C159.102 107.212 158.69 107.312 158.386 107.408C158.082 107.504 157.838 107.644 157.654 107.828C157.47 108.012 157.378 108.252 157.378 108.548C157.378 108.852 157.498 109.092 157.738 109.268C157.986 109.436 158.322 109.52 158.746 109.52ZM165.889 103.94C166.585 103.94 167.109 104.132 167.461 104.516C167.821 104.9 168.001 105.38 168.001 105.956V109.76C168.001 109.92 167.921 110 167.761 110H167.449C167.289 110 167.209 109.92 167.209 109.76V106.22C167.209 105.692 167.081 105.292 166.825 105.02C166.569 104.748 166.201 104.612 165.721 104.612C165.417 104.612 165.137 104.688 164.881 104.84C164.625 104.984 164.421 105.184 164.269 105.44C164.117 105.696 164.041 105.976 164.041 106.28V109.76C164.041 109.92 163.961 110 163.801 110H163.489C163.329 110 163.249 109.92 163.249 109.76V104.324C163.249 104.164 163.329 104.084 163.489 104.084H163.753C163.913 104.084 163.993 104.164 163.993 104.324V104.9C164.193 104.58 164.457 104.34 164.785 104.18C165.113 104.02 165.481 103.94 165.889 103.94ZM174.025 101.72C174.025 101.56 174.105 101.48 174.265 101.48H174.577C174.737 101.48 174.817 101.56 174.817 101.72V109.76C174.817 109.92 174.737 110 174.577 110H174.325C174.165 110 174.085 109.92 174.085 109.76V108.98C173.869 109.356 173.585 109.644 173.233 109.844C172.881 110.044 172.465 110.144 171.985 110.144C171.481 110.144 171.033 110.016 170.641 109.76C170.249 109.496 169.941 109.132 169.717 108.668C169.493 108.196 169.381 107.656 169.381 107.048C169.381 106.44 169.493 105.904 169.717 105.44C169.949 104.968 170.265 104.604 170.665 104.348C171.065 104.084 171.513 103.952 172.009 103.952C172.921 103.952 173.593 104.292 174.025 104.972V101.72ZM172.045 109.472C172.645 109.472 173.129 109.26 173.497 108.836C173.873 108.404 174.061 107.808 174.061 107.048C174.061 106.296 173.873 105.704 173.497 105.272C173.129 104.84 172.645 104.624 172.045 104.624C171.493 104.624 171.045 104.848 170.701 105.296C170.365 105.744 170.197 106.328 170.197 107.048C170.197 107.776 170.365 108.364 170.701 108.812C171.037 109.252 171.485 109.472 172.045 109.472ZM176.849 110C176.689 110 176.609 109.92 176.609 109.76V101.72C176.609 101.56 176.689 101.48 176.849 101.48H177.161C177.321 101.48 177.401 101.56 177.401 101.72V109.76C177.401 109.92 177.321 110 177.161 110H176.849ZM183.495 108.596C183.551 108.54 183.611 108.512 183.675 108.512C183.731 108.512 183.783 108.536 183.831 108.584L183.987 108.728C184.043 108.784 184.071 108.844 184.071 108.908C184.071 108.956 184.047 109.012 183.999 109.076C183.607 109.468 183.227 109.748 182.859 109.916C182.491 110.076 182.079 110.156 181.623 110.156C181.047 110.156 180.547 110.028 180.123 109.772C179.699 109.516 179.371 109.16 179.139 108.704C178.907 108.24 178.791 107.704 178.791 107.096C178.791 106.48 178.903 105.936 179.127 105.464C179.359 104.984 179.683 104.612 180.099 104.348C180.515 104.076 180.995 103.94 181.539 103.94C182.347 103.94 182.983 104.192 183.447 104.696C183.911 105.2 184.143 105.88 184.143 106.736V106.88C184.135 106.952 184.107 107.008 184.059 107.048C184.019 107.088 183.963 107.108 183.891 107.108H179.595C179.619 107.78 179.795 108.348 180.123 108.812C180.459 109.268 180.959 109.496 181.623 109.496C181.983 109.496 182.299 109.432 182.571 109.304C182.851 109.168 183.159 108.932 183.495 108.596ZM181.539 104.6C181.011 104.6 180.575 104.764 180.231 105.092C179.895 105.412 179.691 105.884 179.619 106.508H183.351C183.335 105.924 183.167 105.46 182.847 105.116C182.527 104.772 182.091 104.6 181.539 104.6Z" fill="#464646"/>
<path d="M165 138C165 138.552 165.448 139 166 139C166.552 139 167 138.552 167 138L165 138ZM165 118L165 138L167 138L167 118L165 118Z" fill="#06BEFB"/>
<circle cx="166" cy="141" r="3" fill="#06BEFB"/>
<path d="M214.663 230C214.503 230 214.423 229.92 214.423 229.76V222.188H211.915C211.755 222.188 211.675 222.108 211.675 221.948V221.72C211.675 221.56 211.755 221.48 211.915 221.48H217.771C217.931 221.48 218.011 221.56 218.011 221.72V221.948C218.011 222.108 217.931 222.188 217.771 222.188H215.275V229.76C215.275 229.92 215.195 230 215.035 230H214.663ZM220.528 224.036C220.728 224.036 220.964 224.068 221.236 224.132C221.38 224.18 221.436 224.28 221.404 224.432L221.356 224.624C221.316 224.776 221.216 224.832 221.056 224.792C220.864 224.744 220.688 224.72 220.528 224.72C220.12 224.72 219.78 224.896 219.508 225.248C219.244 225.6 219.112 226.088 219.112 226.712V229.76C219.112 229.92 219.032 230 218.872 230H218.56C218.4 230 218.32 229.92 218.32 229.76V224.324C218.32 224.164 218.4 224.084 218.56 224.084H218.824C218.984 224.084 219.064 224.164 219.064 224.324V224.984C219.2 224.688 219.392 224.456 219.64 224.288C219.896 224.12 220.192 224.036 220.528 224.036ZM224.607 223.94C225.335 223.94 225.903 224.116 226.311 224.468C226.719 224.812 226.923 225.268 226.923 225.836V229.76C226.923 229.92 226.843 230 226.683 230H226.443C226.283 230 226.203 229.92 226.203 229.76V229.22C226.003 229.54 225.719 229.78 225.351 229.94C224.991 230.1 224.587 230.18 224.139 230.18C223.515 230.18 223.007 230.048 222.615 229.784C222.223 229.52 222.027 229.112 222.027 228.56C222.027 228.12 222.151 227.768 222.399 227.504C222.647 227.232 222.971 227.028 223.371 226.892C223.771 226.748 224.271 226.62 224.871 226.508L226.167 226.28V225.896C226.167 225.488 226.027 225.172 225.747 224.948C225.467 224.716 225.099 224.6 224.643 224.6C224.299 224.6 223.987 224.664 223.707 224.792C223.427 224.92 223.127 225.14 222.807 225.452C222.751 225.508 222.691 225.536 222.627 225.536C222.571 225.536 222.519 225.512 222.471 225.464L222.315 225.32C222.259 225.264 222.231 225.204 222.231 225.14C222.231 225.068 222.259 225.004 222.315 224.948C222.651 224.596 223.003 224.34 223.371 224.18C223.747 224.02 224.159 223.94 224.607 223.94ZM224.175 229.52C224.751 229.52 225.227 229.368 225.603 229.064C225.979 228.76 226.167 228.372 226.167 227.9V226.892L225.051 227.108C224.531 227.212 224.119 227.312 223.815 227.408C223.511 227.504 223.267 227.644 223.083 227.828C222.899 228.012 222.807 228.252 222.807 228.548C222.807 228.852 222.927 229.092 223.167 229.268C223.415 229.436 223.751 229.52 224.175 229.52ZM231.079 230.156C230.511 230.156 230.015 230.028 229.591 229.772C229.175 229.508 228.851 229.144 228.619 228.68C228.395 228.208 228.283 227.664 228.283 227.048C228.283 226.44 228.395 225.9 228.619 225.428C228.851 224.956 229.175 224.592 229.591 224.336C230.015 224.072 230.503 223.94 231.055 223.94C231.503 223.94 231.895 224.016 232.231 224.168C232.567 224.312 232.891 224.552 233.203 224.888C233.251 224.936 233.275 224.988 233.275 225.044C233.275 225.116 233.243 225.176 233.179 225.224L233.011 225.38C232.963 225.428 232.907 225.452 232.843 225.452C232.787 225.452 232.727 225.42 232.663 225.356C232.383 225.076 232.115 224.88 231.859 224.768C231.611 224.656 231.335 224.6 231.031 224.6C230.615 224.6 230.259 224.716 229.963 224.948C229.675 225.18 229.459 225.484 229.315 225.86C229.171 226.228 229.099 226.624 229.099 227.048C229.099 227.472 229.171 227.872 229.315 228.248C229.459 228.616 229.679 228.916 229.975 229.148C230.271 229.372 230.635 229.484 231.067 229.484C231.387 229.484 231.667 229.428 231.907 229.316C232.155 229.196 232.431 228.972 232.735 228.644C232.799 228.58 232.859 228.548 232.915 228.548C232.979 228.548 233.035 228.572 233.083 228.62L233.251 228.752C233.307 228.8 233.335 228.856 233.335 228.92C233.335 228.984 233.299 229.06 233.227 229.148C232.891 229.516 232.555 229.776 232.219 229.928C231.883 230.08 231.503 230.156 231.079 230.156ZM238.892 230C238.772 230 238.676 229.948 238.604 229.844L236.576 226.892L235.412 228.08V229.76C235.412 229.92 235.332 230 235.172 230H234.86C234.7 230 234.62 229.92 234.62 229.76V221.72C234.62 221.56 234.7 221.48 234.86 221.48H235.172C235.332 221.48 235.412 221.56 235.412 221.72V227.18L238.292 224.192C238.364 224.112 238.464 224.072 238.592 224.072H238.928C238.992 224.072 239.04 224.088 239.072 224.12C239.112 224.144 239.132 224.176 239.132 224.216C239.132 224.256 239.108 224.308 239.06 224.372L237.128 226.388L239.396 229.712C239.428 229.768 239.444 229.816 239.444 229.856C239.444 229.952 239.38 230 239.252 230H238.892Z" fill="#464646"/>
<path d="M112.383 209C112.223 209 112.143 208.92 112.143 208.76V200.72C112.143 200.56 112.223 200.48 112.383 200.48H117.423C117.583 200.48 117.663 200.56 117.663 200.72V200.948C117.663 201.108 117.583 201.188 117.423 201.188H112.995V204.428H117.051C117.211 204.428 117.291 204.508 117.291 204.668V204.896C117.291 205.056 117.211 205.136 117.051 205.136H112.995V208.76C112.995 208.92 112.915 209 112.755 209H112.383ZM119.438 201.584C119.278 201.584 119.142 201.528 119.03 201.416C118.926 201.304 118.874 201.168 118.874 201.008C118.874 200.848 118.926 200.716 119.03 200.612C119.142 200.508 119.278 200.456 119.438 200.456C119.606 200.456 119.742 200.508 119.846 200.612C119.958 200.716 120.014 200.848 120.014 201.008C120.014 201.168 119.958 201.304 119.846 201.416C119.742 201.528 119.606 201.584 119.438 201.584ZM119.282 209C119.122 209 119.042 208.92 119.042 208.76V203.324C119.042 203.164 119.122 203.084 119.282 203.084H119.594C119.754 203.084 119.834 203.164 119.834 203.324V208.76C119.834 208.92 119.754 209 119.594 209H119.282ZM121.849 209C121.689 209 121.609 208.92 121.609 208.76V200.72C121.609 200.56 121.689 200.48 121.849 200.48H122.161C122.321 200.48 122.401 200.56 122.401 200.72V208.76C122.401 208.92 122.321 209 122.161 209H121.849ZM124.439 209C124.279 209 124.199 208.92 124.199 208.76V200.72C124.199 200.56 124.279 200.48 124.439 200.48H124.751C124.911 200.48 124.991 200.56 124.991 200.72V208.76C124.991 208.92 124.911 209 124.751 209H124.439Z" fill="#464646"/>
<path d="M226 172C226 171.448 225.552 171 225 171C224.448 171 224 171.448 224 172L226 172ZM226 214L226 172L224 172L224 214L226 214Z" fill="#06BEFB"/>
<circle cx="225" cy="169" r="3" transform="rotate(-180 225 169)" fill="#06BEFB"/>
<path d="M120 173C120 172.448 119.552 172 119 172C118.448 172 118 172.448 118 173L120 173ZM120 193L120 173L118 173L118 193L120 193Z" fill="#06BEFB"/>
<circle cx="119" cy="170" r="3" transform="rotate(-180 119 170)" fill="#06BEFB"/>
<defs>
<filter id="filter0_dd_1678_18726" x="149" y="144" width="34" height="34" filterUnits="userSpaceOnUse" color-interpolation-filters="sRGB">
<feFlood flood-opacity="0" result="BackgroundImageFix"/>
<feColorMatrix in="SourceAlpha" type="matrix" values="0 0 0 0 0 0 0 0 0 0 0 0 0 0 0 0 0 0 127 0" result="hardAlpha"/>
<feOffset dy="1"/>
<feGaussianBlur stdDeviation="0.5"/>
<feColorMatrix type="matrix" values="0 0 0 0 0.278431 0 0 0 0 0.333333 0 0 0 0 0.411765 0 0 0 0.24 0"/>
<feBlend mode="normal" in2="BackgroundImageFix" result="effect1_dropShadow_1678_18726"/>
<feColorMatrix in="SourceAlpha" type="matrix" values="0 0 0 0 0 0 0 0 0 0 0 0 0 0 0 0 0 0 127 0" result="hardAlpha"/>
<feOffset dy="1"/>
<feGaussianBlur stdDeviation="2.5"/>
<feColorMatrix type="matrix" values="0 0 0 0 0.278431 0 0 0 0 0.333333 0 0 0 0 0.411765 0 0 0 0.16 0"/>
<feBlend mode="normal" in2="effect1_dropShadow_1678_18726" result="effect2_dropShadow_1678_18726"/>
<feBlend mode="normal" in="SourceGraphic" in2="effect2_dropShadow_1678_18726" result="shape"/>
</filter>
</defs>
</svg>
