<svg width="344" height="168" viewBox="0 0 344 168" fill="none" xmlns="http://www.w3.org/2000/svg">
<rect width="344" height="168" fill="#F5F5F5"/>
<path d="M56 52C56 50.8954 56.8954 50 58 50H191C192.105 50 193 50.8954 193 52C193 53.1046 192.105 54 191 54H58C56.8954 54 56 53.1046 56 52Z" fill="#C2DAFE"/>
<path d="M56 52C56 50.3431 57.3431 49 59 49H105C106.657 49 108 50.3431 108 52C108 53.6569 106.657 55 105 55H59C57.3431 55 56 53.6569 56 52Z" fill="#0063FB"/>
<g filter="url(#filter0_dd_1853_23909)">
<rect x="98" y="40" width="24" height="24" rx="4" fill="#0063FB"/>
</g>
<path d="M56 116C56 114.895 56.8954 114 58 114H286C287.105 114 288 114.895 288 116C288 117.105 287.105 118 286 118H58C56.8954 118 56 117.105 56 116Z" fill="#C2DAFE"/>
<path d="M56 116C56 114.343 57.3431 113 59 113H151C152.657 113 154 114.343 154 116C154 117.657 152.657 119 151 119H59C57.3431 119 56 117.657 56 116Z" fill="#0063FB"/>
<g filter="url(#filter1_dd_1853_23909)">
<rect x="144" y="104" width="24" height="24" rx="4" fill="#0063FB"/>
</g>
<defs>
<filter id="filter0_dd_1853_23909" x="93" y="36" width="34" height="34" filterUnits="userSpaceOnUse" color-interpolation-filters="sRGB">
<feFlood flood-opacity="0" result="BackgroundImageFix"/>
<feColorMatrix in="SourceAlpha" type="matrix" values="0 0 0 0 0 0 0 0 0 0 0 0 0 0 0 0 0 0 127 0" result="hardAlpha"/>
<feOffset dy="1"/>
<feGaussianBlur stdDeviation="0.5"/>
<feColorMatrix type="matrix" values="0 0 0 0 0.278431 0 0 0 0 0.333333 0 0 0 0 0.411765 0 0 0 0.24 0"/>
<feBlend mode="normal" in2="BackgroundImageFix" result="effect1_dropShadow_1853_23909"/>
<feColorMatrix in="SourceAlpha" type="matrix" values="0 0 0 0 0 0 0 0 0 0 0 0 0 0 0 0 0 0 127 0" result="hardAlpha"/>
<feOffset dy="1"/>
<feGaussianBlur stdDeviation="2.5"/>
<feColorMatrix type="matrix" values="0 0 0 0 0.278431 0 0 0 0 0.333333 0 0 0 0 0.411765 0 0 0 0.16 0"/>
<feBlend mode="normal" in2="effect1_dropShadow_1853_23909" result="effect2_dropShadow_1853_23909"/>
<feBlend mode="normal" in="SourceGraphic" in2="effect2_dropShadow_1853_23909" result="shape"/>
</filter>
<filter id="filter1_dd_1853_23909" x="139" y="100" width="34" height="34" filterUnits="userSpaceOnUse" color-interpolation-filters="sRGB">
<feFlood flood-opacity="0" result="BackgroundImageFix"/>
<feColorMatrix in="SourceAlpha" type="matrix" values="0 0 0 0 0 0 0 0 0 0 0 0 0 0 0 0 0 0 127 0" result="hardAlpha"/>
<feOffset dy="1"/>
<feGaussianBlur stdDeviation="0.5"/>
<feColorMatrix type="matrix" values="0 0 0 0 0.278431 0 0 0 0 0.333333 0 0 0 0 0.411765 0 0 0 0.24 0"/>
<feBlend mode="normal" in2="BackgroundImageFix" result="effect1_dropShadow_1853_23909"/>
<feColorMatrix in="SourceAlpha" type="matrix" values="0 0 0 0 0 0 0 0 0 0 0 0 0 0 0 0 0 0 127 0" result="hardAlpha"/>
<feOffset dy="1"/>
<feGaussianBlur stdDeviation="2.5"/>
<feColorMatrix type="matrix" values="0 0 0 0 0.278431 0 0 0 0 0.333333 0 0 0 0 0.411765 0 0 0 0.16 0"/>
<feBlend mode="normal" in2="effect1_dropShadow_1853_23909" result="effect2_dropShadow_1853_23909"/>
<feBlend mode="normal" in="SourceGraphic" in2="effect2_dropShadow_1853_23909" result="shape"/>
</filter>
</defs>
</svg>
