<svg width="344" height="200" viewBox="0 0 344 200" fill="none" xmlns="http://www.w3.org/2000/svg">
<rect width="344" height="200" fill="#F5F5F5"/>
<rect x="93" y="40" width="157" height="120" rx="8" fill="white"/>
<rect x="135" y="88" width="73" height="24" rx="4" fill="#B6F0FF"/>
<path d="M146.875 104.18C146.243 104.18 145.671 104.084 145.159 103.892C144.655 103.692 144.123 103.368 143.563 102.92C143.491 102.856 143.455 102.796 143.455 102.74C143.455 102.692 143.479 102.64 143.527 102.584L143.719 102.356C143.759 102.292 143.819 102.26 143.899 102.26C143.963 102.26 144.015 102.28 144.055 102.32C144.623 102.76 145.119 103.06 145.543 103.22C145.967 103.372 146.411 103.448 146.875 103.448C147.523 103.448 148.051 103.288 148.459 102.968C148.867 102.64 149.071 102.196 149.071 101.636C149.071 101.276 148.975 100.988 148.783 100.772C148.591 100.556 148.327 100.388 147.991 100.268C147.663 100.148 147.195 100.02 146.587 99.884C145.859 99.724 145.291 99.552 144.883 99.368C144.483 99.184 144.191 98.952 144.007 98.672C143.823 98.392 143.731 98.032 143.731 97.592C143.731 97.128 143.863 96.724 144.127 96.38C144.399 96.028 144.759 95.76 145.207 95.576C145.655 95.392 146.139 95.3 146.659 95.3C147.227 95.3 147.743 95.384 148.207 95.552C148.679 95.72 149.143 95.988 149.599 96.356C149.671 96.404 149.707 96.46 149.707 96.524C149.707 96.572 149.683 96.628 149.635 96.692L149.455 96.908C149.415 96.972 149.355 97.004 149.275 97.004C149.211 97.004 149.155 96.984 149.107 96.944C148.699 96.608 148.303 96.372 147.919 96.236C147.543 96.1 147.127 96.032 146.671 96.032C146.255 96.032 145.887 96.1 145.567 96.236C145.247 96.364 144.995 96.544 144.811 96.776C144.635 97.008 144.547 97.272 144.547 97.568C144.547 97.888 144.635 98.144 144.811 98.336C144.995 98.528 145.247 98.68 145.567 98.792C145.895 98.904 146.371 99.032 146.995 99.176C147.715 99.344 148.283 99.532 148.699 99.74C149.123 99.948 149.431 100.204 149.623 100.508C149.815 100.804 149.911 101.172 149.911 101.612C149.911 102.124 149.779 102.576 149.515 102.968C149.259 103.352 148.899 103.652 148.435 103.868C147.971 104.076 147.451 104.18 146.875 104.18ZM154.197 97.952C154.693 97.952 155.137 98.084 155.529 98.348C155.929 98.604 156.241 98.968 156.465 99.44C156.689 99.904 156.801 100.436 156.801 101.036C156.801 101.644 156.689 102.184 156.465 102.656C156.241 103.128 155.933 103.496 155.541 103.76C155.149 104.016 154.701 104.144 154.197 104.144C153.269 104.144 152.589 103.804 152.157 103.124V105.968C152.157 106.128 152.077 106.208 151.917 106.208H151.605C151.445 106.208 151.365 106.128 151.365 105.968V98.324C151.365 98.164 151.445 98.084 151.605 98.084H151.869C152.029 98.084 152.109 98.164 152.109 98.324V99.08C152.325 98.712 152.609 98.432 152.961 98.24C153.313 98.048 153.725 97.952 154.197 97.952ZM154.137 103.472C154.697 103.472 155.145 103.248 155.481 102.8C155.817 102.352 155.985 101.764 155.985 101.036C155.985 100.316 155.817 99.736 155.481 99.296C155.145 98.848 154.697 98.624 154.137 98.624C153.537 98.624 153.049 98.84 152.673 99.272C152.305 99.696 152.121 100.284 152.121 101.036C152.121 101.788 152.309 102.384 152.685 102.824C153.061 103.256 153.545 103.472 154.137 103.472ZM160.727 104.156C160.175 104.156 159.683 104.024 159.251 103.76C158.819 103.496 158.483 103.132 158.243 102.668C158.003 102.196 157.883 101.656 157.883 101.048C157.883 100.44 158.003 99.904 158.243 99.44C158.483 98.968 158.819 98.6 159.251 98.336C159.683 98.072 160.175 97.94 160.727 97.94C161.279 97.94 161.771 98.072 162.203 98.336C162.635 98.6 162.971 98.968 163.211 99.44C163.451 99.904 163.571 100.44 163.571 101.048C163.571 101.656 163.451 102.196 163.211 102.668C162.971 103.132 162.635 103.496 162.203 103.76C161.771 104.024 161.279 104.156 160.727 104.156ZM160.727 103.496C161.343 103.496 161.835 103.272 162.203 102.824C162.571 102.368 162.755 101.776 162.755 101.048C162.755 100.32 162.571 99.732 162.203 99.284C161.835 98.828 161.343 98.6 160.727 98.6C160.111 98.6 159.619 98.828 159.251 99.284C158.883 99.732 158.699 100.32 158.699 101.048C158.699 101.776 158.883 102.368 159.251 102.824C159.619 103.272 160.111 103.496 160.727 103.496ZM167.587 97.94C168.283 97.94 168.807 98.132 169.159 98.516C169.519 98.9 169.699 99.38 169.699 99.956V103.76C169.699 103.92 169.619 104 169.459 104H169.147C168.987 104 168.907 103.92 168.907 103.76V100.22C168.907 99.692 168.779 99.292 168.523 99.02C168.267 98.748 167.899 98.612 167.419 98.612C167.115 98.612 166.835 98.688 166.579 98.84C166.323 98.984 166.119 99.184 165.967 99.44C165.815 99.696 165.739 99.976 165.739 100.28V103.76C165.739 103.92 165.659 104 165.499 104H165.187C165.027 104 164.947 103.92 164.947 103.76V98.324C164.947 98.164 165.027 98.084 165.187 98.084H165.451C165.611 98.084 165.691 98.164 165.691 98.324V98.9C165.891 98.58 166.155 98.34 166.483 98.18C166.811 98.02 167.179 97.94 167.587 97.94ZM173.515 104.156C173.027 104.156 172.595 104.088 172.219 103.952C171.851 103.808 171.463 103.568 171.055 103.232C170.983 103.184 170.947 103.128 170.947 103.064C170.947 103.008 170.975 102.952 171.031 102.896L171.187 102.728C171.235 102.664 171.295 102.632 171.367 102.632C171.423 102.632 171.475 102.656 171.523 102.704C171.907 103 172.247 103.208 172.543 103.328C172.839 103.44 173.163 103.496 173.515 103.496C173.955 103.496 174.315 103.4 174.595 103.208C174.875 103.008 175.015 102.74 175.015 102.404C175.015 102.068 174.871 101.82 174.583 101.66C174.295 101.5 173.851 101.356 173.251 101.228C172.723 101.116 172.307 101 172.003 100.88C171.707 100.752 171.487 100.592 171.343 100.4C171.199 100.208 171.127 99.956 171.127 99.644C171.127 99.132 171.335 98.72 171.751 98.408C172.167 98.096 172.691 97.94 173.323 97.94C173.755 97.94 174.139 97.996 174.475 98.108C174.819 98.212 175.163 98.388 175.507 98.636C175.579 98.692 175.615 98.752 175.615 98.816C175.615 98.856 175.595 98.908 175.555 98.972L175.411 99.152C175.371 99.216 175.315 99.248 175.243 99.248C175.179 99.248 175.123 99.228 175.075 99.188C174.747 98.956 174.455 98.8 174.199 98.72C173.951 98.64 173.667 98.6 173.347 98.6C172.907 98.6 172.555 98.696 172.291 98.888C172.027 99.08 171.895 99.324 171.895 99.62C171.895 99.804 171.955 99.952 172.075 100.064C172.195 100.176 172.367 100.272 172.591 100.352C172.815 100.424 173.143 100.508 173.575 100.604C174.375 100.78 174.943 100.996 175.279 101.252C175.623 101.508 175.795 101.88 175.795 102.368C175.795 102.904 175.583 103.336 175.159 103.664C174.735 103.992 174.187 104.156 173.515 104.156ZM179.582 104.156C179.03 104.156 178.538 104.024 178.106 103.76C177.674 103.496 177.338 103.132 177.098 102.668C176.858 102.196 176.738 101.656 176.738 101.048C176.738 100.44 176.858 99.904 177.098 99.44C177.338 98.968 177.674 98.6 178.106 98.336C178.538 98.072 179.03 97.94 179.582 97.94C180.134 97.94 180.626 98.072 181.058 98.336C181.49 98.6 181.826 98.968 182.066 99.44C182.306 99.904 182.426 100.44 182.426 101.048C182.426 101.656 182.306 102.196 182.066 102.668C181.826 103.132 181.49 103.496 181.058 103.76C180.626 104.024 180.134 104.156 179.582 104.156ZM179.582 103.496C180.198 103.496 180.69 103.272 181.058 102.824C181.426 102.368 181.61 101.776 181.61 101.048C181.61 100.32 181.426 99.732 181.058 99.284C180.69 98.828 180.198 98.6 179.582 98.6C178.966 98.6 178.474 98.828 178.106 99.284C177.738 99.732 177.554 100.32 177.554 101.048C177.554 101.776 177.738 102.368 178.106 102.824C178.474 103.272 178.966 103.496 179.582 103.496ZM186.01 98.036C186.21 98.036 186.446 98.068 186.718 98.132C186.862 98.18 186.918 98.28 186.886 98.432L186.838 98.624C186.798 98.776 186.698 98.832 186.538 98.792C186.346 98.744 186.17 98.72 186.01 98.72C185.602 98.72 185.262 98.896 184.99 99.248C184.726 99.6 184.594 100.088 184.594 100.712V103.76C184.594 103.92 184.514 104 184.354 104H184.042C183.882 104 183.802 103.92 183.802 103.76V98.324C183.802 98.164 183.882 98.084 184.042 98.084H184.306C184.466 98.084 184.546 98.164 184.546 98.324V98.984C184.682 98.688 184.874 98.456 185.122 98.288C185.378 98.12 185.674 98.036 186.01 98.036ZM191.942 102.596C191.998 102.54 192.058 102.512 192.122 102.512C192.178 102.512 192.23 102.536 192.278 102.584L192.434 102.728C192.49 102.784 192.518 102.844 192.518 102.908C192.518 102.956 192.494 103.012 192.446 103.076C192.054 103.468 191.674 103.748 191.306 103.916C190.938 104.076 190.526 104.156 190.07 104.156C189.494 104.156 188.994 104.028 188.57 103.772C188.146 103.516 187.818 103.16 187.586 102.704C187.354 102.24 187.238 101.704 187.238 101.096C187.238 100.48 187.35 99.936 187.574 99.464C187.806 98.984 188.13 98.612 188.546 98.348C188.962 98.076 189.442 97.94 189.986 97.94C190.794 97.94 191.43 98.192 191.894 98.696C192.358 99.2 192.59 99.88 192.59 100.736V100.88C192.582 100.952 192.554 101.008 192.506 101.048C192.466 101.088 192.41 101.108 192.338 101.108H188.042C188.066 101.78 188.242 102.348 188.57 102.812C188.906 103.268 189.406 103.496 190.07 103.496C190.43 103.496 190.746 103.432 191.018 103.304C191.298 103.168 191.606 102.932 191.942 102.596ZM189.986 98.6C189.458 98.6 189.022 98.764 188.678 99.092C188.342 99.412 188.138 99.884 188.066 100.508H191.798C191.782 99.924 191.614 99.46 191.294 99.116C190.974 98.772 190.538 98.6 189.986 98.6ZM198.293 95.72C198.293 95.56 198.373 95.48 198.533 95.48H198.845C199.005 95.48 199.085 95.56 199.085 95.72V103.76C199.085 103.92 199.005 104 198.845 104H198.593C198.433 104 198.353 103.92 198.353 103.76V102.98C198.137 103.356 197.853 103.644 197.501 103.844C197.149 104.044 196.733 104.144 196.253 104.144C195.749 104.144 195.301 104.016 194.909 103.76C194.517 103.496 194.209 103.132 193.985 102.668C193.761 102.196 193.649 101.656 193.649 101.048C193.649 100.44 193.761 99.904 193.985 99.44C194.217 98.968 194.533 98.604 194.933 98.348C195.333 98.084 195.781 97.952 196.277 97.952C197.189 97.952 197.861 98.292 198.293 98.972V95.72ZM196.313 103.472C196.913 103.472 197.397 103.26 197.765 102.836C198.141 102.404 198.329 101.808 198.329 101.048C198.329 100.296 198.141 99.704 197.765 99.272C197.397 98.84 196.913 98.624 196.313 98.624C195.761 98.624 195.313 98.848 194.969 99.296C194.633 99.744 194.465 100.328 194.465 101.048C194.465 101.776 194.633 102.364 194.969 102.812C195.305 103.252 195.753 103.472 196.313 103.472Z" fill="#024764"/>
</svg>
