<svg width="344" height="288" viewBox="0 0 344 288" fill="none" xmlns="http://www.w3.org/2000/svg">
<rect width="344" height="288" fill="#F5F5F5"/>
<rect x="90" y="36" width="165" height="216" rx="8" fill="white"/>
<rect x="136" y="52" width="49" height="24" rx="4" fill="#F1F9FF"/>
<path d="M151.205 68C151.069 68 150.977 67.936 150.929 67.808L150.137 65.612H146.261L145.481 67.808C145.433 67.936 145.341 68 145.205 68H144.833C144.769 68 144.717 67.984 144.677 67.952C144.637 67.92 144.617 67.876 144.617 67.82L144.641 67.724L147.581 59.672C147.629 59.544 147.721 59.48 147.857 59.48H148.553C148.689 59.48 148.781 59.544 148.829 59.672L151.769 67.724L151.793 67.82C151.793 67.876 151.773 67.92 151.733 67.952C151.693 67.984 151.641 68 151.577 68H151.205ZM149.873 64.892L149.453 63.716L149.357 63.464C149.245 63.16 149.061 62.652 148.805 61.94C148.557 61.228 148.353 60.624 148.193 60.128C147.977 60.808 147.637 61.796 147.173 63.092C147.141 63.18 147.105 63.276 147.065 63.38C147.025 63.484 146.985 63.596 146.945 63.716L146.525 64.892H149.873ZM155.374 68.156C154.806 68.156 154.31 68.028 153.886 67.772C153.47 67.508 153.146 67.144 152.914 66.68C152.69 66.208 152.578 65.664 152.578 65.048C152.578 64.44 152.69 63.9 152.914 63.428C153.146 62.956 153.47 62.592 153.886 62.336C154.31 62.072 154.798 61.94 155.35 61.94C155.798 61.94 156.19 62.016 156.526 62.168C156.862 62.312 157.186 62.552 157.498 62.888C157.546 62.936 157.57 62.988 157.57 63.044C157.57 63.116 157.538 63.176 157.474 63.224L157.306 63.38C157.258 63.428 157.202 63.452 157.138 63.452C157.082 63.452 157.022 63.42 156.958 63.356C156.678 63.076 156.41 62.88 156.154 62.768C155.906 62.656 155.63 62.6 155.326 62.6C154.91 62.6 154.554 62.716 154.258 62.948C153.97 63.18 153.754 63.484 153.61 63.86C153.466 64.228 153.394 64.624 153.394 65.048C153.394 65.472 153.466 65.872 153.61 66.248C153.754 66.616 153.974 66.916 154.27 67.148C154.566 67.372 154.93 67.484 155.362 67.484C155.682 67.484 155.962 67.428 156.202 67.316C156.45 67.196 156.726 66.972 157.03 66.644C157.094 66.58 157.154 66.548 157.21 66.548C157.274 66.548 157.33 66.572 157.378 66.62L157.546 66.752C157.602 66.8 157.63 66.856 157.63 66.92C157.63 66.984 157.594 67.06 157.522 67.148C157.186 67.516 156.85 67.776 156.514 67.928C156.178 68.08 155.798 68.156 155.374 68.156ZM161.615 67.34C161.639 67.332 161.671 67.328 161.711 67.328C161.759 67.328 161.803 67.344 161.843 67.376C161.883 67.408 161.907 67.452 161.915 67.508L161.951 67.676C161.959 67.692 161.963 67.72 161.963 67.76C161.963 67.872 161.903 67.94 161.783 67.964C161.495 68.052 161.187 68.096 160.859 68.096C160.339 68.096 159.967 67.98 159.743 67.748C159.527 67.508 159.419 67.164 159.419 66.716V62.684H158.531C158.371 62.684 158.291 62.604 158.291 62.444V62.324C158.291 62.164 158.371 62.084 158.531 62.084H159.419V60.26C159.419 60.1 159.499 60.02 159.659 60.02H159.971C160.131 60.02 160.211 60.1 160.211 60.26V62.084H161.651C161.811 62.084 161.891 62.164 161.891 62.324V62.444C161.891 62.604 161.811 62.684 161.651 62.684H160.211V66.62C160.211 66.916 160.267 67.124 160.379 67.244C160.491 67.364 160.683 67.424 160.955 67.424C161.147 67.424 161.367 67.396 161.615 67.34ZM163.495 60.584C163.335 60.584 163.199 60.528 163.087 60.416C162.983 60.304 162.931 60.168 162.931 60.008C162.931 59.848 162.983 59.716 163.087 59.612C163.199 59.508 163.335 59.456 163.495 59.456C163.663 59.456 163.799 59.508 163.903 59.612C164.015 59.716 164.071 59.848 164.071 60.008C164.071 60.168 164.015 60.304 163.903 60.416C163.799 60.528 163.663 60.584 163.495 60.584ZM163.339 68C163.179 68 163.099 67.92 163.099 67.76V62.324C163.099 62.164 163.179 62.084 163.339 62.084H163.651C163.811 62.084 163.891 62.164 163.891 62.324V67.76C163.891 67.92 163.811 68 163.651 68H163.339ZM169.302 62.276C169.35 62.148 169.442 62.084 169.578 62.084H169.89C169.954 62.084 170.006 62.1 170.046 62.132C170.086 62.164 170.106 62.208 170.106 62.264L170.082 62.36L168.174 67.808C168.126 67.936 168.034 68 167.898 68H167.262C167.126 68 167.034 67.936 166.986 67.808L165.09 62.36L165.066 62.264C165.066 62.208 165.086 62.164 165.126 62.132C165.166 62.1 165.218 62.084 165.282 62.084H165.606C165.742 62.084 165.834 62.148 165.882 62.276L166.614 64.388C166.918 65.268 167.242 66.28 167.586 67.424C167.602 67.376 167.646 67.24 167.718 67.016C168.046 65.936 168.33 65.06 168.57 64.388L169.302 62.276ZM175.516 66.596C175.572 66.54 175.632 66.512 175.696 66.512C175.752 66.512 175.804 66.536 175.852 66.584L176.008 66.728C176.064 66.784 176.092 66.844 176.092 66.908C176.092 66.956 176.068 67.012 176.02 67.076C175.628 67.468 175.248 67.748 174.88 67.916C174.512 68.076 174.1 68.156 173.644 68.156C173.068 68.156 172.568 68.028 172.144 67.772C171.72 67.516 171.392 67.16 171.16 66.704C170.928 66.24 170.812 65.704 170.812 65.096C170.812 64.48 170.924 63.936 171.148 63.464C171.38 62.984 171.704 62.612 172.12 62.348C172.536 62.076 173.016 61.94 173.56 61.94C174.368 61.94 175.004 62.192 175.468 62.696C175.932 63.2 176.164 63.88 176.164 64.736V64.88C176.156 64.952 176.128 65.008 176.08 65.048C176.04 65.088 175.984 65.108 175.912 65.108H171.616C171.64 65.78 171.816 66.348 172.144 66.812C172.48 67.268 172.98 67.496 173.644 67.496C174.004 67.496 174.32 67.432 174.592 67.304C174.872 67.168 175.18 66.932 175.516 66.596ZM173.56 62.6C173.032 62.6 172.596 62.764 172.252 63.092C171.916 63.412 171.712 63.884 171.64 64.508H175.372C175.356 63.924 175.188 63.46 174.868 63.116C174.548 62.772 174.112 62.6 173.56 62.6Z" fill="#0F1729"/>
<rect x="136" y="84" width="67" height="24" rx="4" fill="#CDFEE5"/>
<path d="M151.052 100C150.916 100 150.824 99.936 150.776 99.808L149.984 97.612H146.108L145.328 99.808C145.28 99.936 145.188 100 145.052 100H144.68C144.616 100 144.564 99.984 144.524 99.952C144.484 99.92 144.464 99.876 144.464 99.82L144.488 99.724L147.428 91.672C147.476 91.544 147.568 91.48 147.704 91.48H148.4C148.536 91.48 148.628 91.544 148.676 91.672L151.616 99.724L151.64 99.82C151.64 99.876 151.62 99.92 151.58 99.952C151.54 99.984 151.488 100 151.424 100H151.052ZM149.72 96.892L149.3 95.716L149.204 95.464C149.092 95.16 148.908 94.652 148.652 93.94C148.404 93.228 148.2 92.624 148.04 92.128C147.824 92.808 147.484 93.796 147.02 95.092C146.988 95.18 146.952 95.276 146.912 95.38C146.872 95.484 146.832 95.596 146.792 95.716L146.372 96.892H149.72ZM155.677 93.952C156.173 93.952 156.617 94.084 157.009 94.348C157.409 94.604 157.721 94.968 157.945 95.44C158.169 95.904 158.281 96.436 158.281 97.036C158.281 97.644 158.169 98.184 157.945 98.656C157.721 99.128 157.413 99.496 157.021 99.76C156.629 100.016 156.181 100.144 155.677 100.144C154.749 100.144 154.069 99.804 153.637 99.124V101.968C153.637 102.128 153.557 102.208 153.397 102.208H153.085C152.925 102.208 152.845 102.128 152.845 101.968V94.324C152.845 94.164 152.925 94.084 153.085 94.084H153.349C153.509 94.084 153.589 94.164 153.589 94.324V95.08C153.805 94.712 154.089 94.432 154.441 94.24C154.793 94.048 155.205 93.952 155.677 93.952ZM155.617 99.472C156.177 99.472 156.625 99.248 156.961 98.8C157.297 98.352 157.465 97.764 157.465 97.036C157.465 96.316 157.297 95.736 156.961 95.296C156.625 94.848 156.177 94.624 155.617 94.624C155.017 94.624 154.529 94.84 154.153 95.272C153.785 95.696 153.601 96.284 153.601 97.036C153.601 97.788 153.789 98.384 154.165 98.824C154.541 99.256 155.025 99.472 155.617 99.472ZM162.521 93.952C163.017 93.952 163.461 94.084 163.853 94.348C164.253 94.604 164.565 94.968 164.789 95.44C165.013 95.904 165.125 96.436 165.125 97.036C165.125 97.644 165.013 98.184 164.789 98.656C164.565 99.128 164.257 99.496 163.865 99.76C163.473 100.016 163.025 100.144 162.521 100.144C161.593 100.144 160.913 99.804 160.481 99.124V101.968C160.481 102.128 160.401 102.208 160.241 102.208H159.929C159.769 102.208 159.689 102.128 159.689 101.968V94.324C159.689 94.164 159.769 94.084 159.929 94.084H160.193C160.353 94.084 160.433 94.164 160.433 94.324V95.08C160.649 94.712 160.933 94.432 161.285 94.24C161.637 94.048 162.049 93.952 162.521 93.952ZM162.461 99.472C163.021 99.472 163.469 99.248 163.805 98.8C164.141 98.352 164.309 97.764 164.309 97.036C164.309 96.316 164.141 95.736 163.805 95.296C163.469 94.848 163.021 94.624 162.461 94.624C161.861 94.624 161.373 94.84 160.997 95.272C160.629 95.696 160.445 96.284 160.445 97.036C160.445 97.788 160.633 98.384 161.009 98.824C161.385 99.256 161.869 99.472 162.461 99.472ZM168.741 94.036C168.941 94.036 169.177 94.068 169.449 94.132C169.593 94.18 169.649 94.28 169.617 94.432L169.569 94.624C169.529 94.776 169.429 94.832 169.269 94.792C169.077 94.744 168.901 94.72 168.741 94.72C168.333 94.72 167.993 94.896 167.721 95.248C167.457 95.6 167.325 96.088 167.325 96.712V99.76C167.325 99.92 167.245 100 167.085 100H166.773C166.613 100 166.533 99.92 166.533 99.76V94.324C166.533 94.164 166.613 94.084 166.773 94.084H167.037C167.197 94.084 167.277 94.164 167.277 94.324V94.984C167.413 94.688 167.605 94.456 167.853 94.288C168.109 94.12 168.405 94.036 168.741 94.036ZM172.813 100.156C172.261 100.156 171.769 100.024 171.337 99.76C170.905 99.496 170.569 99.132 170.329 98.668C170.089 98.196 169.969 97.656 169.969 97.048C169.969 96.44 170.089 95.904 170.329 95.44C170.569 94.968 170.905 94.6 171.337 94.336C171.769 94.072 172.261 93.94 172.813 93.94C173.365 93.94 173.857 94.072 174.289 94.336C174.721 94.6 175.057 94.968 175.297 95.44C175.537 95.904 175.657 96.44 175.657 97.048C175.657 97.656 175.537 98.196 175.297 98.668C175.057 99.132 174.721 99.496 174.289 99.76C173.857 100.024 173.365 100.156 172.813 100.156ZM172.813 99.496C173.429 99.496 173.921 99.272 174.289 98.824C174.657 98.368 174.841 97.776 174.841 97.048C174.841 96.32 174.657 95.732 174.289 95.284C173.921 94.828 173.429 94.6 172.813 94.6C172.197 94.6 171.705 94.828 171.337 95.284C170.969 95.732 170.785 96.32 170.785 97.048C170.785 97.776 170.969 98.368 171.337 98.824C171.705 99.272 172.197 99.496 172.813 99.496ZM180.599 94.276C180.647 94.148 180.739 94.084 180.875 94.084H181.187C181.251 94.084 181.303 94.1 181.343 94.132C181.383 94.164 181.403 94.208 181.403 94.264L181.379 94.36L179.471 99.808C179.423 99.936 179.331 100 179.195 100H178.559C178.423 100 178.331 99.936 178.283 99.808L176.387 94.36L176.363 94.264C176.363 94.208 176.383 94.164 176.423 94.132C176.463 94.1 176.515 94.084 176.579 94.084H176.903C177.039 94.084 177.131 94.148 177.179 94.276L177.911 96.388C178.215 97.268 178.539 98.28 178.883 99.424C178.899 99.376 178.943 99.24 179.015 99.016C179.343 97.936 179.627 97.06 179.867 96.388L180.599 94.276ZM186.813 98.596C186.869 98.54 186.929 98.512 186.993 98.512C187.049 98.512 187.101 98.536 187.149 98.584L187.305 98.728C187.361 98.784 187.389 98.844 187.389 98.908C187.389 98.956 187.365 99.012 187.317 99.076C186.925 99.468 186.545 99.748 186.177 99.916C185.809 100.076 185.397 100.156 184.941 100.156C184.365 100.156 183.865 100.028 183.441 99.772C183.017 99.516 182.689 99.16 182.457 98.704C182.225 98.24 182.109 97.704 182.109 97.096C182.109 96.48 182.221 95.936 182.445 95.464C182.677 94.984 183.001 94.612 183.417 94.348C183.833 94.076 184.313 93.94 184.857 93.94C185.665 93.94 186.301 94.192 186.765 94.696C187.229 95.2 187.461 95.88 187.461 96.736V96.88C187.453 96.952 187.425 97.008 187.377 97.048C187.337 97.088 187.281 97.108 187.209 97.108H182.913C182.937 97.78 183.113 98.348 183.441 98.812C183.777 99.268 184.277 99.496 184.941 99.496C185.301 99.496 185.617 99.432 185.889 99.304C186.169 99.168 186.477 98.932 186.813 98.596ZM184.857 94.6C184.329 94.6 183.893 94.764 183.549 95.092C183.213 95.412 183.009 95.884 182.937 96.508H186.669C186.653 95.924 186.485 95.46 186.165 95.116C185.845 94.772 185.409 94.6 184.857 94.6ZM193.164 91.72C193.164 91.56 193.244 91.48 193.404 91.48H193.716C193.876 91.48 193.956 91.56 193.956 91.72V99.76C193.956 99.92 193.876 100 193.716 100H193.464C193.304 100 193.224 99.92 193.224 99.76V98.98C193.008 99.356 192.724 99.644 192.372 99.844C192.02 100.044 191.604 100.144 191.124 100.144C190.62 100.144 190.172 100.016 189.78 99.76C189.388 99.496 189.08 99.132 188.856 98.668C188.632 98.196 188.52 97.656 188.52 97.048C188.52 96.44 188.632 95.904 188.856 95.44C189.088 94.968 189.404 94.604 189.804 94.348C190.204 94.084 190.652 93.952 191.148 93.952C192.06 93.952 192.732 94.292 193.164 94.972V91.72ZM191.184 99.472C191.784 99.472 192.268 99.26 192.636 98.836C193.012 98.404 193.2 97.808 193.2 97.048C193.2 96.296 193.012 95.704 192.636 95.272C192.268 94.84 191.784 94.624 191.184 94.624C190.632 94.624 190.184 94.848 189.84 95.296C189.504 95.744 189.336 96.328 189.336 97.048C189.336 97.776 189.504 98.364 189.84 98.812C190.176 99.252 190.624 99.472 191.184 99.472Z" fill="#064E3B"/>
<rect x="136" y="116" width="41" height="24" rx="4" fill="#FFF5C8"/>
<path d="M149.845 127.488C150.341 127.64 150.733 127.896 151.021 128.256C151.317 128.616 151.465 129.068 151.465 129.612C151.465 130.34 151.229 130.92 150.757 131.352C150.285 131.784 149.653 132 148.861 132H145.333C145.173 132 145.093 131.92 145.093 131.76V123.72C145.093 123.56 145.173 123.48 145.333 123.48H148.717C149.453 123.48 150.045 123.664 150.493 124.032C150.941 124.4 151.165 124.932 151.165 125.628C151.165 126.092 151.045 126.484 150.805 126.804C150.573 127.124 150.253 127.352 149.845 127.488ZM145.945 127.176H148.573C149.125 127.176 149.557 127.044 149.869 126.78C150.181 126.508 150.337 126.128 150.337 125.64C150.337 125.176 150.181 124.82 149.869 124.572C149.565 124.316 149.133 124.188 148.573 124.188H145.945V127.176ZM148.633 131.292C149.281 131.292 149.773 131.14 150.109 130.836C150.453 130.532 150.625 130.12 150.625 129.6C150.625 129.072 150.449 128.652 150.097 128.34C149.753 128.028 149.269 127.872 148.645 127.872H145.945V131.292H148.633ZM157.307 130.596C157.363 130.54 157.423 130.512 157.487 130.512C157.543 130.512 157.595 130.536 157.643 130.584L157.799 130.728C157.855 130.784 157.883 130.844 157.883 130.908C157.883 130.956 157.859 131.012 157.811 131.076C157.419 131.468 157.039 131.748 156.671 131.916C156.303 132.076 155.891 132.156 155.435 132.156C154.859 132.156 154.359 132.028 153.935 131.772C153.511 131.516 153.183 131.16 152.951 130.704C152.719 130.24 152.603 129.704 152.603 129.096C152.603 128.48 152.715 127.936 152.939 127.464C153.171 126.984 153.495 126.612 153.911 126.348C154.327 126.076 154.807 125.94 155.351 125.94C156.159 125.94 156.795 126.192 157.259 126.696C157.723 127.2 157.955 127.88 157.955 128.736V128.88C157.947 128.952 157.919 129.008 157.871 129.048C157.831 129.088 157.775 129.108 157.703 129.108H153.407C153.431 129.78 153.607 130.348 153.935 130.812C154.271 131.268 154.771 131.496 155.435 131.496C155.795 131.496 156.111 131.432 156.383 131.304C156.663 131.168 156.971 130.932 157.307 130.596ZM155.351 126.6C154.823 126.6 154.387 126.764 154.043 127.092C153.707 127.412 153.503 127.884 153.431 128.508H157.163C157.147 127.924 156.979 127.46 156.659 127.116C156.339 126.772 155.903 126.6 155.351 126.6ZM161.98 131.34C162.004 131.332 162.036 131.328 162.076 131.328C162.124 131.328 162.168 131.344 162.208 131.376C162.248 131.408 162.272 131.452 162.28 131.508L162.316 131.676C162.324 131.692 162.328 131.72 162.328 131.76C162.328 131.872 162.268 131.94 162.148 131.964C161.86 132.052 161.552 132.096 161.224 132.096C160.704 132.096 160.332 131.98 160.108 131.748C159.892 131.508 159.784 131.164 159.784 130.716V126.684H158.896C158.736 126.684 158.656 126.604 158.656 126.444V126.324C158.656 126.164 158.736 126.084 158.896 126.084H159.784V124.26C159.784 124.1 159.864 124.02 160.024 124.02H160.336C160.496 124.02 160.576 124.1 160.576 124.26V126.084H162.016C162.176 126.084 162.256 126.164 162.256 126.324V126.444C162.256 126.604 162.176 126.684 162.016 126.684H160.576V130.62C160.576 130.916 160.632 131.124 160.744 131.244C160.856 131.364 161.048 131.424 161.32 131.424C161.512 131.424 161.732 131.396 161.98 131.34ZM165.756 125.94C166.484 125.94 167.052 126.116 167.46 126.468C167.868 126.812 168.072 127.268 168.072 127.836V131.76C168.072 131.92 167.992 132 167.832 132H167.592C167.432 132 167.352 131.92 167.352 131.76V131.22C167.152 131.54 166.868 131.78 166.5 131.94C166.14 132.1 165.736 132.18 165.288 132.18C164.664 132.18 164.156 132.048 163.764 131.784C163.372 131.52 163.176 131.112 163.176 130.56C163.176 130.12 163.3 129.768 163.548 129.504C163.796 129.232 164.12 129.028 164.52 128.892C164.92 128.748 165.42 128.62 166.02 128.508L167.316 128.28V127.896C167.316 127.488 167.176 127.172 166.896 126.948C166.616 126.716 166.248 126.6 165.792 126.6C165.448 126.6 165.136 126.664 164.856 126.792C164.576 126.92 164.276 127.14 163.956 127.452C163.9 127.508 163.84 127.536 163.776 127.536C163.72 127.536 163.668 127.512 163.62 127.464L163.464 127.32C163.408 127.264 163.38 127.204 163.38 127.14C163.38 127.068 163.408 127.004 163.464 126.948C163.8 126.596 164.152 126.34 164.52 126.18C164.896 126.02 165.308 125.94 165.756 125.94ZM165.324 131.52C165.9 131.52 166.376 131.368 166.752 131.064C167.128 130.76 167.316 130.372 167.316 129.9V128.892L166.2 129.108C165.68 129.212 165.268 129.312 164.964 129.408C164.66 129.504 164.416 129.644 164.232 129.828C164.048 130.012 163.956 130.252 163.956 130.548C163.956 130.852 164.076 131.092 164.316 131.268C164.564 131.436 164.9 131.52 165.324 131.52Z" fill="#6B4206"/>
<rect x="136" y="148" width="63" height="24" rx="4" fill="#FFEFEF"/>
<path d="M151.656 163.712C151.688 163.752 151.704 163.796 151.704 163.844C151.704 163.948 151.636 164 151.5 164H151.056C150.936 164 150.84 163.948 150.768 163.844L148.488 160.46H146.304V163.76C146.304 163.92 146.224 164 146.064 164H145.692C145.532 164 145.452 163.92 145.452 163.76V155.72C145.452 155.56 145.532 155.48 145.692 155.48H148.824C149.64 155.48 150.3 155.7 150.804 156.14C151.308 156.572 151.56 157.18 151.56 157.964C151.56 158.652 151.364 159.208 150.972 159.632C150.588 160.056 150.068 160.316 149.412 160.412L151.656 163.712ZM146.304 159.752H148.692C149.324 159.752 149.82 159.6 150.18 159.296C150.54 158.992 150.72 158.548 150.72 157.964C150.72 157.388 150.536 156.948 150.168 156.644C149.808 156.34 149.312 156.188 148.68 156.188H146.304V159.752ZM157.292 162.596C157.348 162.54 157.408 162.512 157.472 162.512C157.528 162.512 157.58 162.536 157.628 162.584L157.784 162.728C157.84 162.784 157.868 162.844 157.868 162.908C157.868 162.956 157.844 163.012 157.796 163.076C157.404 163.468 157.024 163.748 156.656 163.916C156.288 164.076 155.876 164.156 155.42 164.156C154.844 164.156 154.344 164.028 153.92 163.772C153.496 163.516 153.168 163.16 152.936 162.704C152.704 162.24 152.588 161.704 152.588 161.096C152.588 160.48 152.7 159.936 152.924 159.464C153.156 158.984 153.48 158.612 153.896 158.348C154.312 158.076 154.792 157.94 155.336 157.94C156.144 157.94 156.78 158.192 157.244 158.696C157.708 159.2 157.94 159.88 157.94 160.736V160.88C157.932 160.952 157.904 161.008 157.856 161.048C157.816 161.088 157.76 161.108 157.688 161.108H153.392C153.416 161.78 153.592 162.348 153.92 162.812C154.256 163.268 154.756 163.496 155.42 163.496C155.78 163.496 156.096 163.432 156.368 163.304C156.648 163.168 156.956 162.932 157.292 162.596ZM155.336 158.6C154.808 158.6 154.372 158.764 154.028 159.092C153.692 159.412 153.488 159.884 153.416 160.508H157.148C157.132 159.924 156.964 159.46 156.644 159.116C156.324 158.772 155.888 158.6 155.336 158.6ZM159.791 156.584C159.631 156.584 159.495 156.528 159.383 156.416C159.279 156.304 159.227 156.168 159.227 156.008C159.227 155.848 159.279 155.716 159.383 155.612C159.495 155.508 159.631 155.456 159.791 155.456C159.959 155.456 160.095 155.508 160.199 155.612C160.311 155.716 160.367 155.848 160.367 156.008C160.367 156.168 160.311 156.304 160.199 156.416C160.095 156.528 159.959 156.584 159.791 156.584ZM158.591 166.352C158.327 166.352 158.031 166.316 157.703 166.244C157.559 166.196 157.507 166.096 157.547 165.944L157.595 165.776C157.611 165.704 157.647 165.652 157.703 165.62C157.751 165.596 157.811 165.592 157.883 165.608C158.115 165.664 158.339 165.692 158.555 165.692C158.867 165.692 159.083 165.596 159.203 165.404C159.331 165.22 159.395 164.936 159.395 164.552V158.324C159.395 158.164 159.475 158.084 159.635 158.084H159.947C160.107 158.084 160.187 158.164 160.187 158.324V164.576C160.187 165.144 160.055 165.58 159.791 165.884C159.535 166.196 159.135 166.352 158.591 166.352ZM166.257 162.596C166.313 162.54 166.373 162.512 166.437 162.512C166.493 162.512 166.545 162.536 166.593 162.584L166.749 162.728C166.805 162.784 166.833 162.844 166.833 162.908C166.833 162.956 166.809 163.012 166.761 163.076C166.369 163.468 165.989 163.748 165.621 163.916C165.253 164.076 164.841 164.156 164.385 164.156C163.809 164.156 163.309 164.028 162.885 163.772C162.461 163.516 162.133 163.16 161.901 162.704C161.669 162.24 161.553 161.704 161.553 161.096C161.553 160.48 161.665 159.936 161.889 159.464C162.121 158.984 162.445 158.612 162.861 158.348C163.277 158.076 163.757 157.94 164.301 157.94C165.109 157.94 165.745 158.192 166.209 158.696C166.673 159.2 166.905 159.88 166.905 160.736V160.88C166.897 160.952 166.869 161.008 166.821 161.048C166.781 161.088 166.725 161.108 166.653 161.108H162.357C162.381 161.78 162.557 162.348 162.885 162.812C163.221 163.268 163.721 163.496 164.385 163.496C164.745 163.496 165.061 163.432 165.333 163.304C165.613 163.168 165.921 162.932 166.257 162.596ZM164.301 158.6C163.773 158.6 163.337 158.764 162.993 159.092C162.657 159.412 162.453 159.884 162.381 160.508H166.113C166.097 159.924 165.929 159.46 165.609 159.116C165.289 158.772 164.853 158.6 164.301 158.6ZM170.735 164.156C170.167 164.156 169.671 164.028 169.247 163.772C168.831 163.508 168.507 163.144 168.275 162.68C168.051 162.208 167.939 161.664 167.939 161.048C167.939 160.44 168.051 159.9 168.275 159.428C168.507 158.956 168.831 158.592 169.247 158.336C169.671 158.072 170.159 157.94 170.711 157.94C171.159 157.94 171.551 158.016 171.887 158.168C172.223 158.312 172.547 158.552 172.859 158.888C172.907 158.936 172.931 158.988 172.931 159.044C172.931 159.116 172.899 159.176 172.835 159.224L172.667 159.38C172.619 159.428 172.563 159.452 172.499 159.452C172.443 159.452 172.383 159.42 172.319 159.356C172.039 159.076 171.771 158.88 171.515 158.768C171.267 158.656 170.991 158.6 170.687 158.6C170.271 158.6 169.915 158.716 169.619 158.948C169.331 159.18 169.115 159.484 168.971 159.86C168.827 160.228 168.755 160.624 168.755 161.048C168.755 161.472 168.827 161.872 168.971 162.248C169.115 162.616 169.335 162.916 169.631 163.148C169.927 163.372 170.291 163.484 170.723 163.484C171.043 163.484 171.323 163.428 171.563 163.316C171.811 163.196 172.087 162.972 172.391 162.644C172.455 162.58 172.515 162.548 172.571 162.548C172.635 162.548 172.691 162.572 172.739 162.62L172.907 162.752C172.963 162.8 172.991 162.856 172.991 162.92C172.991 162.984 172.955 163.06 172.883 163.148C172.547 163.516 172.211 163.776 171.875 163.928C171.539 164.08 171.159 164.156 170.735 164.156ZM176.976 163.34C177 163.332 177.032 163.328 177.072 163.328C177.12 163.328 177.164 163.344 177.204 163.376C177.244 163.408 177.268 163.452 177.276 163.508L177.312 163.676C177.32 163.692 177.324 163.72 177.324 163.76C177.324 163.872 177.264 163.94 177.144 163.964C176.856 164.052 176.548 164.096 176.22 164.096C175.7 164.096 175.328 163.98 175.104 163.748C174.888 163.508 174.78 163.164 174.78 162.716V158.684H173.892C173.732 158.684 173.652 158.604 173.652 158.444V158.324C173.652 158.164 173.732 158.084 173.892 158.084H174.78V156.26C174.78 156.1 174.86 156.02 175.02 156.02H175.332C175.492 156.02 175.572 156.1 175.572 156.26V158.084H177.012C177.172 158.084 177.252 158.164 177.252 158.324V158.444C177.252 158.604 177.172 158.684 177.012 158.684H175.572V162.62C175.572 162.916 175.628 163.124 175.74 163.244C175.852 163.364 176.044 163.424 176.316 163.424C176.508 163.424 176.728 163.396 176.976 163.34ZM182.546 162.596C182.602 162.54 182.662 162.512 182.726 162.512C182.782 162.512 182.834 162.536 182.882 162.584L183.038 162.728C183.094 162.784 183.122 162.844 183.122 162.908C183.122 162.956 183.098 163.012 183.05 163.076C182.658 163.468 182.278 163.748 181.91 163.916C181.542 164.076 181.13 164.156 180.674 164.156C180.098 164.156 179.598 164.028 179.174 163.772C178.75 163.516 178.422 163.16 178.19 162.704C177.958 162.24 177.842 161.704 177.842 161.096C177.842 160.48 177.954 159.936 178.178 159.464C178.41 158.984 178.734 158.612 179.15 158.348C179.566 158.076 180.046 157.94 180.59 157.94C181.398 157.94 182.034 158.192 182.498 158.696C182.962 159.2 183.194 159.88 183.194 160.736V160.88C183.186 160.952 183.158 161.008 183.11 161.048C183.07 161.088 183.014 161.108 182.942 161.108H178.646C178.67 161.78 178.846 162.348 179.174 162.812C179.51 163.268 180.01 163.496 180.674 163.496C181.034 163.496 181.35 163.432 181.622 163.304C181.902 163.168 182.21 162.932 182.546 162.596ZM180.59 158.6C180.062 158.6 179.626 158.764 179.282 159.092C178.946 159.412 178.742 159.884 178.67 160.508H182.402C182.386 159.924 182.218 159.46 181.898 159.116C181.578 158.772 181.142 158.6 180.59 158.6ZM188.896 155.72C188.896 155.56 188.976 155.48 189.136 155.48H189.448C189.608 155.48 189.688 155.56 189.688 155.72V163.76C189.688 163.92 189.608 164 189.448 164H189.196C189.036 164 188.956 163.92 188.956 163.76V162.98C188.74 163.356 188.456 163.644 188.104 163.844C187.752 164.044 187.336 164.144 186.856 164.144C186.352 164.144 185.904 164.016 185.512 163.76C185.12 163.496 184.812 163.132 184.588 162.668C184.364 162.196 184.252 161.656 184.252 161.048C184.252 160.44 184.364 159.904 184.588 159.44C184.82 158.968 185.136 158.604 185.536 158.348C185.936 158.084 186.384 157.952 186.88 157.952C187.792 157.952 188.464 158.292 188.896 158.972V155.72ZM186.916 163.472C187.516 163.472 188 163.26 188.368 162.836C188.744 162.404 188.932 161.808 188.932 161.048C188.932 160.296 188.744 159.704 188.368 159.272C188 158.84 187.516 158.624 186.916 158.624C186.364 158.624 185.916 158.848 185.572 159.296C185.236 159.744 185.068 160.328 185.068 161.048C185.068 161.776 185.236 162.364 185.572 162.812C185.908 163.252 186.356 163.472 186.916 163.472Z" fill="#801A00"/>
<rect x="136" y="180" width="62" height="24" rx="4" fill="#C3CCD9"/>
<path d="M151.189 196C151.053 196 150.961 195.936 150.913 195.808L150.121 193.612H146.245L145.465 195.808C145.417 195.936 145.325 196 145.189 196H144.817C144.753 196 144.701 195.984 144.661 195.952C144.621 195.92 144.601 195.876 144.601 195.82L144.625 195.724L147.565 187.672C147.613 187.544 147.705 187.48 147.841 187.48H148.537C148.673 187.48 148.765 187.544 148.813 187.672L151.753 195.724L151.777 195.82C151.777 195.876 151.757 195.92 151.717 195.952C151.677 195.984 151.625 196 151.561 196H151.189ZM149.857 192.892L149.437 191.716L149.341 191.464C149.229 191.16 149.045 190.652 148.789 189.94C148.541 189.228 148.337 188.624 148.177 188.128C147.961 188.808 147.621 189.796 147.157 191.092C147.125 191.18 147.089 191.276 147.049 191.38C147.009 191.484 146.969 191.596 146.929 191.716L146.509 192.892H149.857ZM155.19 190.036C155.39 190.036 155.626 190.068 155.898 190.132C156.042 190.18 156.098 190.28 156.066 190.432L156.018 190.624C155.978 190.776 155.878 190.832 155.718 190.792C155.526 190.744 155.35 190.72 155.19 190.72C154.782 190.72 154.442 190.896 154.17 191.248C153.906 191.6 153.774 192.088 153.774 192.712V195.76C153.774 195.92 153.694 196 153.534 196H153.222C153.062 196 152.982 195.92 152.982 195.76V190.324C152.982 190.164 153.062 190.084 153.222 190.084H153.486C153.646 190.084 153.726 190.164 153.726 190.324V190.984C153.862 190.688 154.054 190.456 154.302 190.288C154.558 190.12 154.854 190.036 155.19 190.036ZM159.214 196.156C158.646 196.156 158.15 196.028 157.726 195.772C157.31 195.508 156.986 195.144 156.754 194.68C156.53 194.208 156.418 193.664 156.418 193.048C156.418 192.44 156.53 191.9 156.754 191.428C156.986 190.956 157.31 190.592 157.726 190.336C158.15 190.072 158.638 189.94 159.19 189.94C159.638 189.94 160.03 190.016 160.366 190.168C160.702 190.312 161.026 190.552 161.338 190.888C161.386 190.936 161.41 190.988 161.41 191.044C161.41 191.116 161.378 191.176 161.314 191.224L161.146 191.38C161.098 191.428 161.042 191.452 160.978 191.452C160.922 191.452 160.862 191.42 160.798 191.356C160.518 191.076 160.25 190.88 159.994 190.768C159.746 190.656 159.47 190.6 159.166 190.6C158.75 190.6 158.394 190.716 158.098 190.948C157.81 191.18 157.594 191.484 157.45 191.86C157.306 192.228 157.234 192.624 157.234 193.048C157.234 193.472 157.306 193.872 157.45 194.248C157.594 194.616 157.814 194.916 158.11 195.148C158.406 195.372 158.77 195.484 159.202 195.484C159.522 195.484 159.802 195.428 160.042 195.316C160.29 195.196 160.566 194.972 160.87 194.644C160.934 194.58 160.994 194.548 161.05 194.548C161.114 194.548 161.17 194.572 161.218 194.62L161.386 194.752C161.442 194.8 161.47 194.856 161.47 194.92C161.47 194.984 161.434 195.06 161.362 195.148C161.026 195.516 160.69 195.776 160.354 195.928C160.018 196.08 159.638 196.156 159.214 196.156ZM165.395 189.94C166.083 189.94 166.607 190.136 166.967 190.528C167.327 190.912 167.507 191.388 167.507 191.956V195.76C167.507 195.92 167.427 196 167.267 196H166.955C166.795 196 166.715 195.92 166.715 195.76V192.22C166.715 191.692 166.587 191.292 166.331 191.02C166.075 190.748 165.707 190.612 165.227 190.612C164.923 190.612 164.643 190.688 164.387 190.84C164.131 190.984 163.927 191.184 163.775 191.44C163.623 191.696 163.547 191.976 163.547 192.28V195.76C163.547 195.92 163.467 196 163.307 196H162.995C162.835 196 162.755 195.92 162.755 195.76V187.72C162.755 187.56 162.835 187.48 162.995 187.48H163.307C163.467 187.48 163.547 187.56 163.547 187.72V190.852C163.739 190.548 163.995 190.32 164.315 190.168C164.643 190.016 165.003 189.94 165.395 189.94ZM169.655 188.584C169.495 188.584 169.359 188.528 169.247 188.416C169.143 188.304 169.091 188.168 169.091 188.008C169.091 187.848 169.143 187.716 169.247 187.612C169.359 187.508 169.495 187.456 169.655 187.456C169.823 187.456 169.959 187.508 170.063 187.612C170.175 187.716 170.231 187.848 170.231 188.008C170.231 188.168 170.175 188.304 170.063 188.416C169.959 188.528 169.823 188.584 169.655 188.584ZM169.499 196C169.339 196 169.259 195.92 169.259 195.76V190.324C169.259 190.164 169.339 190.084 169.499 190.084H169.811C169.971 190.084 170.051 190.164 170.051 190.324V195.76C170.051 195.92 169.971 196 169.811 196H169.499ZM175.462 190.276C175.51 190.148 175.602 190.084 175.738 190.084H176.05C176.114 190.084 176.166 190.1 176.206 190.132C176.246 190.164 176.266 190.208 176.266 190.264L176.242 190.36L174.334 195.808C174.286 195.936 174.194 196 174.058 196H173.422C173.286 196 173.194 195.936 173.146 195.808L171.25 190.36L171.226 190.264C171.226 190.208 171.246 190.164 171.286 190.132C171.326 190.1 171.378 190.084 171.442 190.084H171.766C171.902 190.084 171.994 190.148 172.042 190.276L172.774 192.388C173.078 193.268 173.402 194.28 173.746 195.424C173.762 195.376 173.806 195.24 173.878 195.016C174.206 193.936 174.49 193.06 174.73 192.388L175.462 190.276ZM181.676 194.596C181.732 194.54 181.792 194.512 181.856 194.512C181.912 194.512 181.964 194.536 182.012 194.584L182.168 194.728C182.224 194.784 182.252 194.844 182.252 194.908C182.252 194.956 182.228 195.012 182.18 195.076C181.788 195.468 181.408 195.748 181.04 195.916C180.672 196.076 180.26 196.156 179.804 196.156C179.228 196.156 178.728 196.028 178.304 195.772C177.88 195.516 177.552 195.16 177.32 194.704C177.088 194.24 176.972 193.704 176.972 193.096C176.972 192.48 177.084 191.936 177.308 191.464C177.54 190.984 177.864 190.612 178.28 190.348C178.696 190.076 179.176 189.94 179.72 189.94C180.528 189.94 181.164 190.192 181.628 190.696C182.092 191.2 182.324 191.88 182.324 192.736V192.88C182.316 192.952 182.288 193.008 182.24 193.048C182.2 193.088 182.144 193.108 182.072 193.108H177.776C177.8 193.78 177.976 194.348 178.304 194.812C178.64 195.268 179.14 195.496 179.804 195.496C180.164 195.496 180.48 195.432 180.752 195.304C181.032 195.168 181.34 194.932 181.676 194.596ZM179.72 190.6C179.192 190.6 178.756 190.764 178.412 191.092C178.076 191.412 177.872 191.884 177.8 192.508H181.532C181.516 191.924 181.348 191.46 181.028 191.116C180.708 190.772 180.272 190.6 179.72 190.6ZM188.027 187.72C188.027 187.56 188.107 187.48 188.267 187.48H188.579C188.739 187.48 188.819 187.56 188.819 187.72V195.76C188.819 195.92 188.739 196 188.579 196H188.327C188.167 196 188.087 195.92 188.087 195.76V194.98C187.871 195.356 187.587 195.644 187.235 195.844C186.883 196.044 186.467 196.144 185.987 196.144C185.483 196.144 185.035 196.016 184.643 195.76C184.251 195.496 183.943 195.132 183.719 194.668C183.495 194.196 183.383 193.656 183.383 193.048C183.383 192.44 183.495 191.904 183.719 191.44C183.951 190.968 184.267 190.604 184.667 190.348C185.067 190.084 185.515 189.952 186.011 189.952C186.923 189.952 187.595 190.292 188.027 190.972V187.72ZM186.047 195.472C186.647 195.472 187.131 195.26 187.499 194.836C187.875 194.404 188.063 193.808 188.063 193.048C188.063 192.296 187.875 191.704 187.499 191.272C187.131 190.84 186.647 190.624 186.047 190.624C185.495 190.624 185.047 190.848 184.703 191.296C184.367 191.744 184.199 192.328 184.199 193.048C184.199 193.776 184.367 194.364 184.703 194.812C185.039 195.252 185.487 195.472 186.047 195.472Z" fill="#0F1729"/>
<rect x="136" y="212" width="73" height="24" rx="4" fill="#B6F0FF"/>
<path d="M147.875 228.18C147.243 228.18 146.671 228.084 146.159 227.892C145.655 227.692 145.123 227.368 144.563 226.92C144.491 226.856 144.455 226.796 144.455 226.74C144.455 226.692 144.479 226.64 144.527 226.584L144.719 226.356C144.759 226.292 144.819 226.26 144.899 226.26C144.963 226.26 145.015 226.28 145.055 226.32C145.623 226.76 146.119 227.06 146.543 227.22C146.967 227.372 147.411 227.448 147.875 227.448C148.523 227.448 149.051 227.288 149.459 226.968C149.867 226.64 150.071 226.196 150.071 225.636C150.071 225.276 149.975 224.988 149.783 224.772C149.591 224.556 149.327 224.388 148.991 224.268C148.663 224.148 148.195 224.02 147.587 223.884C146.859 223.724 146.291 223.552 145.883 223.368C145.483 223.184 145.191 222.952 145.007 222.672C144.823 222.392 144.731 222.032 144.731 221.592C144.731 221.128 144.863 220.724 145.127 220.38C145.399 220.028 145.759 219.76 146.207 219.576C146.655 219.392 147.139 219.3 147.659 219.3C148.227 219.3 148.743 219.384 149.207 219.552C149.679 219.72 150.143 219.988 150.599 220.356C150.671 220.404 150.707 220.46 150.707 220.524C150.707 220.572 150.683 220.628 150.635 220.692L150.455 220.908C150.415 220.972 150.355 221.004 150.275 221.004C150.211 221.004 150.155 220.984 150.107 220.944C149.699 220.608 149.303 220.372 148.919 220.236C148.543 220.1 148.127 220.032 147.671 220.032C147.255 220.032 146.887 220.1 146.567 220.236C146.247 220.364 145.995 220.544 145.811 220.776C145.635 221.008 145.547 221.272 145.547 221.568C145.547 221.888 145.635 222.144 145.811 222.336C145.995 222.528 146.247 222.68 146.567 222.792C146.895 222.904 147.371 223.032 147.995 223.176C148.715 223.344 149.283 223.532 149.699 223.74C150.123 223.948 150.431 224.204 150.623 224.508C150.815 224.804 150.911 225.172 150.911 225.612C150.911 226.124 150.779 226.576 150.515 226.968C150.259 227.352 149.899 227.652 149.435 227.868C148.971 228.076 148.451 228.18 147.875 228.18ZM155.197 221.952C155.693 221.952 156.137 222.084 156.529 222.348C156.929 222.604 157.241 222.968 157.465 223.44C157.689 223.904 157.801 224.436 157.801 225.036C157.801 225.644 157.689 226.184 157.465 226.656C157.241 227.128 156.933 227.496 156.541 227.76C156.149 228.016 155.701 228.144 155.197 228.144C154.269 228.144 153.589 227.804 153.157 227.124V229.968C153.157 230.128 153.077 230.208 152.917 230.208H152.605C152.445 230.208 152.365 230.128 152.365 229.968V222.324C152.365 222.164 152.445 222.084 152.605 222.084H152.869C153.029 222.084 153.109 222.164 153.109 222.324V223.08C153.325 222.712 153.609 222.432 153.961 222.24C154.313 222.048 154.725 221.952 155.197 221.952ZM155.137 227.472C155.697 227.472 156.145 227.248 156.481 226.8C156.817 226.352 156.985 225.764 156.985 225.036C156.985 224.316 156.817 223.736 156.481 223.296C156.145 222.848 155.697 222.624 155.137 222.624C154.537 222.624 154.049 222.84 153.673 223.272C153.305 223.696 153.121 224.284 153.121 225.036C153.121 225.788 153.309 226.384 153.685 226.824C154.061 227.256 154.545 227.472 155.137 227.472ZM161.727 228.156C161.175 228.156 160.683 228.024 160.251 227.76C159.819 227.496 159.483 227.132 159.243 226.668C159.003 226.196 158.883 225.656 158.883 225.048C158.883 224.44 159.003 223.904 159.243 223.44C159.483 222.968 159.819 222.6 160.251 222.336C160.683 222.072 161.175 221.94 161.727 221.94C162.279 221.94 162.771 222.072 163.203 222.336C163.635 222.6 163.971 222.968 164.211 223.44C164.451 223.904 164.571 224.44 164.571 225.048C164.571 225.656 164.451 226.196 164.211 226.668C163.971 227.132 163.635 227.496 163.203 227.76C162.771 228.024 162.279 228.156 161.727 228.156ZM161.727 227.496C162.343 227.496 162.835 227.272 163.203 226.824C163.571 226.368 163.755 225.776 163.755 225.048C163.755 224.32 163.571 223.732 163.203 223.284C162.835 222.828 162.343 222.6 161.727 222.6C161.111 222.6 160.619 222.828 160.251 223.284C159.883 223.732 159.699 224.32 159.699 225.048C159.699 225.776 159.883 226.368 160.251 226.824C160.619 227.272 161.111 227.496 161.727 227.496ZM168.587 221.94C169.283 221.94 169.807 222.132 170.159 222.516C170.519 222.9 170.699 223.38 170.699 223.956V227.76C170.699 227.92 170.619 228 170.459 228H170.147C169.987 228 169.907 227.92 169.907 227.76V224.22C169.907 223.692 169.779 223.292 169.523 223.02C169.267 222.748 168.899 222.612 168.419 222.612C168.115 222.612 167.835 222.688 167.579 222.84C167.323 222.984 167.119 223.184 166.967 223.44C166.815 223.696 166.739 223.976 166.739 224.28V227.76C166.739 227.92 166.659 228 166.499 228H166.187C166.027 228 165.947 227.92 165.947 227.76V222.324C165.947 222.164 166.027 222.084 166.187 222.084H166.451C166.611 222.084 166.691 222.164 166.691 222.324V222.9C166.891 222.58 167.155 222.34 167.483 222.18C167.811 222.02 168.179 221.94 168.587 221.94ZM174.515 228.156C174.027 228.156 173.595 228.088 173.219 227.952C172.851 227.808 172.463 227.568 172.055 227.232C171.983 227.184 171.947 227.128 171.947 227.064C171.947 227.008 171.975 226.952 172.031 226.896L172.187 226.728C172.235 226.664 172.295 226.632 172.367 226.632C172.423 226.632 172.475 226.656 172.523 226.704C172.907 227 173.247 227.208 173.543 227.328C173.839 227.44 174.163 227.496 174.515 227.496C174.955 227.496 175.315 227.4 175.595 227.208C175.875 227.008 176.015 226.74 176.015 226.404C176.015 226.068 175.871 225.82 175.583 225.66C175.295 225.5 174.851 225.356 174.251 225.228C173.723 225.116 173.307 225 173.003 224.88C172.707 224.752 172.487 224.592 172.343 224.4C172.199 224.208 172.127 223.956 172.127 223.644C172.127 223.132 172.335 222.72 172.751 222.408C173.167 222.096 173.691 221.94 174.323 221.94C174.755 221.94 175.139 221.996 175.475 222.108C175.819 222.212 176.163 222.388 176.507 222.636C176.579 222.692 176.615 222.752 176.615 222.816C176.615 222.856 176.595 222.908 176.555 222.972L176.411 223.152C176.371 223.216 176.315 223.248 176.243 223.248C176.179 223.248 176.123 223.228 176.075 223.188C175.747 222.956 175.455 222.8 175.199 222.72C174.951 222.64 174.667 222.6 174.347 222.6C173.907 222.6 173.555 222.696 173.291 222.888C173.027 223.08 172.895 223.324 172.895 223.62C172.895 223.804 172.955 223.952 173.075 224.064C173.195 224.176 173.367 224.272 173.591 224.352C173.815 224.424 174.143 224.508 174.575 224.604C175.375 224.78 175.943 224.996 176.279 225.252C176.623 225.508 176.795 225.88 176.795 226.368C176.795 226.904 176.583 227.336 176.159 227.664C175.735 227.992 175.187 228.156 174.515 228.156ZM180.582 228.156C180.03 228.156 179.538 228.024 179.106 227.76C178.674 227.496 178.338 227.132 178.098 226.668C177.858 226.196 177.738 225.656 177.738 225.048C177.738 224.44 177.858 223.904 178.098 223.44C178.338 222.968 178.674 222.6 179.106 222.336C179.538 222.072 180.03 221.94 180.582 221.94C181.134 221.94 181.626 222.072 182.058 222.336C182.49 222.6 182.826 222.968 183.066 223.44C183.306 223.904 183.426 224.44 183.426 225.048C183.426 225.656 183.306 226.196 183.066 226.668C182.826 227.132 182.49 227.496 182.058 227.76C181.626 228.024 181.134 228.156 180.582 228.156ZM180.582 227.496C181.198 227.496 181.69 227.272 182.058 226.824C182.426 226.368 182.61 225.776 182.61 225.048C182.61 224.32 182.426 223.732 182.058 223.284C181.69 222.828 181.198 222.6 180.582 222.6C179.966 222.6 179.474 222.828 179.106 223.284C178.738 223.732 178.554 224.32 178.554 225.048C178.554 225.776 178.738 226.368 179.106 226.824C179.474 227.272 179.966 227.496 180.582 227.496ZM187.01 222.036C187.21 222.036 187.446 222.068 187.718 222.132C187.862 222.18 187.918 222.28 187.886 222.432L187.838 222.624C187.798 222.776 187.698 222.832 187.538 222.792C187.346 222.744 187.17 222.72 187.01 222.72C186.602 222.72 186.262 222.896 185.99 223.248C185.726 223.6 185.594 224.088 185.594 224.712V227.76C185.594 227.92 185.514 228 185.354 228H185.042C184.882 228 184.802 227.92 184.802 227.76V222.324C184.802 222.164 184.882 222.084 185.042 222.084H185.306C185.466 222.084 185.546 222.164 185.546 222.324V222.984C185.682 222.688 185.874 222.456 186.122 222.288C186.378 222.12 186.674 222.036 187.01 222.036ZM192.942 226.596C192.998 226.54 193.058 226.512 193.122 226.512C193.178 226.512 193.23 226.536 193.278 226.584L193.434 226.728C193.49 226.784 193.518 226.844 193.518 226.908C193.518 226.956 193.494 227.012 193.446 227.076C193.054 227.468 192.674 227.748 192.306 227.916C191.938 228.076 191.526 228.156 191.07 228.156C190.494 228.156 189.994 228.028 189.57 227.772C189.146 227.516 188.818 227.16 188.586 226.704C188.354 226.24 188.238 225.704 188.238 225.096C188.238 224.48 188.35 223.936 188.574 223.464C188.806 222.984 189.13 222.612 189.546 222.348C189.962 222.076 190.442 221.94 190.986 221.94C191.794 221.94 192.43 222.192 192.894 222.696C193.358 223.2 193.59 223.88 193.59 224.736V224.88C193.582 224.952 193.554 225.008 193.506 225.048C193.466 225.088 193.41 225.108 193.338 225.108H189.042C189.066 225.78 189.242 226.348 189.57 226.812C189.906 227.268 190.406 227.496 191.07 227.496C191.43 227.496 191.746 227.432 192.018 227.304C192.298 227.168 192.606 226.932 192.942 226.596ZM190.986 222.6C190.458 222.6 190.022 222.764 189.678 223.092C189.342 223.412 189.138 223.884 189.066 224.508H192.798C192.782 223.924 192.614 223.46 192.294 223.116C191.974 222.772 191.538 222.6 190.986 222.6ZM199.293 219.72C199.293 219.56 199.373 219.48 199.533 219.48H199.845C200.005 219.48 200.085 219.56 200.085 219.72V227.76C200.085 227.92 200.005 228 199.845 228H199.593C199.433 228 199.353 227.92 199.353 227.76V226.98C199.137 227.356 198.853 227.644 198.501 227.844C198.149 228.044 197.733 228.144 197.253 228.144C196.749 228.144 196.301 228.016 195.909 227.76C195.517 227.496 195.209 227.132 194.985 226.668C194.761 226.196 194.649 225.656 194.649 225.048C194.649 224.44 194.761 223.904 194.985 223.44C195.217 222.968 195.533 222.604 195.933 222.348C196.333 222.084 196.781 221.952 197.277 221.952C198.189 221.952 198.861 222.292 199.293 222.972V219.72ZM197.313 227.472C197.913 227.472 198.397 227.26 198.765 226.836C199.141 226.404 199.329 225.808 199.329 225.048C199.329 224.296 199.141 223.704 198.765 223.272C198.397 222.84 197.913 222.624 197.313 222.624C196.761 222.624 196.313 222.848 195.969 223.296C195.633 223.744 195.465 224.328 195.465 225.048C195.465 225.776 195.633 226.364 195.969 226.812C196.305 227.252 196.753 227.472 197.313 227.472Z" fill="#024764"/>
</svg>
