<svg width="344" height="320" viewBox="0 0 344 320" fill="none" xmlns="http://www.w3.org/2000/svg">
<rect width="344" height="320" fill="#F5F5F5"/>
<rect x="110" y="36" width="125" height="248" rx="8" fill="white"/>
<rect x="126" y="52" width="49" height="24" rx="4" fill="#F1F9FF"/>
<path d="M141.205 68C141.069 68 140.977 67.936 140.929 67.808L140.137 65.612H136.261L135.481 67.808C135.433 67.936 135.341 68 135.205 68H134.833C134.769 68 134.717 67.984 134.677 67.952C134.637 67.92 134.617 67.876 134.617 67.82L134.641 67.724L137.581 59.672C137.629 59.544 137.721 59.48 137.857 59.48H138.553C138.689 59.48 138.781 59.544 138.829 59.672L141.769 67.724L141.793 67.82C141.793 67.876 141.773 67.92 141.733 67.952C141.693 67.984 141.641 68 141.577 68H141.205ZM139.873 64.892L139.453 63.716L139.357 63.464C139.245 63.16 139.061 62.652 138.805 61.94C138.557 61.228 138.353 60.624 138.193 60.128C137.977 60.808 137.637 61.796 137.173 63.092C137.141 63.18 137.105 63.276 137.065 63.38C137.025 63.484 136.985 63.596 136.945 63.716L136.525 64.892H139.873ZM145.374 68.156C144.806 68.156 144.31 68.028 143.886 67.772C143.47 67.508 143.146 67.144 142.914 66.68C142.69 66.208 142.578 65.664 142.578 65.048C142.578 64.44 142.69 63.9 142.914 63.428C143.146 62.956 143.47 62.592 143.886 62.336C144.31 62.072 144.798 61.94 145.35 61.94C145.798 61.94 146.19 62.016 146.526 62.168C146.862 62.312 147.186 62.552 147.498 62.888C147.546 62.936 147.57 62.988 147.57 63.044C147.57 63.116 147.538 63.176 147.474 63.224L147.306 63.38C147.258 63.428 147.202 63.452 147.138 63.452C147.082 63.452 147.022 63.42 146.958 63.356C146.678 63.076 146.41 62.88 146.154 62.768C145.906 62.656 145.63 62.6 145.326 62.6C144.91 62.6 144.554 62.716 144.258 62.948C143.97 63.18 143.754 63.484 143.61 63.86C143.466 64.228 143.394 64.624 143.394 65.048C143.394 65.472 143.466 65.872 143.61 66.248C143.754 66.616 143.974 66.916 144.27 67.148C144.566 67.372 144.93 67.484 145.362 67.484C145.682 67.484 145.962 67.428 146.202 67.316C146.45 67.196 146.726 66.972 147.03 66.644C147.094 66.58 147.154 66.548 147.21 66.548C147.274 66.548 147.33 66.572 147.378 66.62L147.546 66.752C147.602 66.8 147.63 66.856 147.63 66.92C147.63 66.984 147.594 67.06 147.522 67.148C147.186 67.516 146.85 67.776 146.514 67.928C146.178 68.08 145.798 68.156 145.374 68.156ZM151.615 67.34C151.639 67.332 151.671 67.328 151.711 67.328C151.759 67.328 151.803 67.344 151.843 67.376C151.883 67.408 151.907 67.452 151.915 67.508L151.951 67.676C151.959 67.692 151.963 67.72 151.963 67.76C151.963 67.872 151.903 67.94 151.783 67.964C151.495 68.052 151.187 68.096 150.859 68.096C150.339 68.096 149.967 67.98 149.743 67.748C149.527 67.508 149.419 67.164 149.419 66.716V62.684H148.531C148.371 62.684 148.291 62.604 148.291 62.444V62.324C148.291 62.164 148.371 62.084 148.531 62.084H149.419V60.26C149.419 60.1 149.499 60.02 149.659 60.02H149.971C150.131 60.02 150.211 60.1 150.211 60.26V62.084H151.651C151.811 62.084 151.891 62.164 151.891 62.324V62.444C151.891 62.604 151.811 62.684 151.651 62.684H150.211V66.62C150.211 66.916 150.267 67.124 150.379 67.244C150.491 67.364 150.683 67.424 150.955 67.424C151.147 67.424 151.367 67.396 151.615 67.34ZM153.495 60.584C153.335 60.584 153.199 60.528 153.087 60.416C152.983 60.304 152.931 60.168 152.931 60.008C152.931 59.848 152.983 59.716 153.087 59.612C153.199 59.508 153.335 59.456 153.495 59.456C153.663 59.456 153.799 59.508 153.903 59.612C154.015 59.716 154.071 59.848 154.071 60.008C154.071 60.168 154.015 60.304 153.903 60.416C153.799 60.528 153.663 60.584 153.495 60.584ZM153.339 68C153.179 68 153.099 67.92 153.099 67.76V62.324C153.099 62.164 153.179 62.084 153.339 62.084H153.651C153.811 62.084 153.891 62.164 153.891 62.324V67.76C153.891 67.92 153.811 68 153.651 68H153.339ZM159.302 62.276C159.35 62.148 159.442 62.084 159.578 62.084H159.89C159.954 62.084 160.006 62.1 160.046 62.132C160.086 62.164 160.106 62.208 160.106 62.264L160.082 62.36L158.174 67.808C158.126 67.936 158.034 68 157.898 68H157.262C157.126 68 157.034 67.936 156.986 67.808L155.09 62.36L155.066 62.264C155.066 62.208 155.086 62.164 155.126 62.132C155.166 62.1 155.218 62.084 155.282 62.084H155.606C155.742 62.084 155.834 62.148 155.882 62.276L156.614 64.388C156.918 65.268 157.242 66.28 157.586 67.424C157.602 67.376 157.646 67.24 157.718 67.016C158.046 65.936 158.33 65.06 158.57 64.388L159.302 62.276ZM165.516 66.596C165.572 66.54 165.632 66.512 165.696 66.512C165.752 66.512 165.804 66.536 165.852 66.584L166.008 66.728C166.064 66.784 166.092 66.844 166.092 66.908C166.092 66.956 166.068 67.012 166.02 67.076C165.628 67.468 165.248 67.748 164.88 67.916C164.512 68.076 164.1 68.156 163.644 68.156C163.068 68.156 162.568 68.028 162.144 67.772C161.72 67.516 161.392 67.16 161.16 66.704C160.928 66.24 160.812 65.704 160.812 65.096C160.812 64.48 160.924 63.936 161.148 63.464C161.38 62.984 161.704 62.612 162.12 62.348C162.536 62.076 163.016 61.94 163.56 61.94C164.368 61.94 165.004 62.192 165.468 62.696C165.932 63.2 166.164 63.88 166.164 64.736V64.88C166.156 64.952 166.128 65.008 166.08 65.048C166.04 65.088 165.984 65.108 165.912 65.108H161.616C161.64 65.78 161.816 66.348 162.144 66.812C162.48 67.268 162.98 67.496 163.644 67.496C164.004 67.496 164.32 67.432 164.592 67.304C164.872 67.168 165.18 66.932 165.516 66.596ZM163.56 62.6C163.032 62.6 162.596 62.764 162.252 63.092C161.916 63.412 161.712 63.884 161.64 64.508H165.372C165.356 63.924 165.188 63.46 164.868 63.116C164.548 62.772 164.112 62.6 163.56 62.6Z" fill="#0F1729"/>
<rect x="126" y="84" width="67" height="24" rx="4" fill="#CDFEE5"/>
<path d="M141.052 100C140.916 100 140.824 99.936 140.776 99.808L139.984 97.612H136.108L135.328 99.808C135.28 99.936 135.188 100 135.052 100H134.68C134.616 100 134.564 99.984 134.524 99.952C134.484 99.92 134.464 99.876 134.464 99.82L134.488 99.724L137.428 91.672C137.476 91.544 137.568 91.48 137.704 91.48H138.4C138.536 91.48 138.628 91.544 138.676 91.672L141.616 99.724L141.64 99.82C141.64 99.876 141.62 99.92 141.58 99.952C141.54 99.984 141.488 100 141.424 100H141.052ZM139.72 96.892L139.3 95.716L139.204 95.464C139.092 95.16 138.908 94.652 138.652 93.94C138.404 93.228 138.2 92.624 138.04 92.128C137.824 92.808 137.484 93.796 137.02 95.092C136.988 95.18 136.952 95.276 136.912 95.38C136.872 95.484 136.832 95.596 136.792 95.716L136.372 96.892H139.72ZM145.677 93.952C146.173 93.952 146.617 94.084 147.009 94.348C147.409 94.604 147.721 94.968 147.945 95.44C148.169 95.904 148.281 96.436 148.281 97.036C148.281 97.644 148.169 98.184 147.945 98.656C147.721 99.128 147.413 99.496 147.021 99.76C146.629 100.016 146.181 100.144 145.677 100.144C144.749 100.144 144.069 99.804 143.637 99.124V101.968C143.637 102.128 143.557 102.208 143.397 102.208H143.085C142.925 102.208 142.845 102.128 142.845 101.968V94.324C142.845 94.164 142.925 94.084 143.085 94.084H143.349C143.509 94.084 143.589 94.164 143.589 94.324V95.08C143.805 94.712 144.089 94.432 144.441 94.24C144.793 94.048 145.205 93.952 145.677 93.952ZM145.617 99.472C146.177 99.472 146.625 99.248 146.961 98.8C147.297 98.352 147.465 97.764 147.465 97.036C147.465 96.316 147.297 95.736 146.961 95.296C146.625 94.848 146.177 94.624 145.617 94.624C145.017 94.624 144.529 94.84 144.153 95.272C143.785 95.696 143.601 96.284 143.601 97.036C143.601 97.788 143.789 98.384 144.165 98.824C144.541 99.256 145.025 99.472 145.617 99.472ZM152.521 93.952C153.017 93.952 153.461 94.084 153.853 94.348C154.253 94.604 154.565 94.968 154.789 95.44C155.013 95.904 155.125 96.436 155.125 97.036C155.125 97.644 155.013 98.184 154.789 98.656C154.565 99.128 154.257 99.496 153.865 99.76C153.473 100.016 153.025 100.144 152.521 100.144C151.593 100.144 150.913 99.804 150.481 99.124V101.968C150.481 102.128 150.401 102.208 150.241 102.208H149.929C149.769 102.208 149.689 102.128 149.689 101.968V94.324C149.689 94.164 149.769 94.084 149.929 94.084H150.193C150.353 94.084 150.433 94.164 150.433 94.324V95.08C150.649 94.712 150.933 94.432 151.285 94.24C151.637 94.048 152.049 93.952 152.521 93.952ZM152.461 99.472C153.021 99.472 153.469 99.248 153.805 98.8C154.141 98.352 154.309 97.764 154.309 97.036C154.309 96.316 154.141 95.736 153.805 95.296C153.469 94.848 153.021 94.624 152.461 94.624C151.861 94.624 151.373 94.84 150.997 95.272C150.629 95.696 150.445 96.284 150.445 97.036C150.445 97.788 150.633 98.384 151.009 98.824C151.385 99.256 151.869 99.472 152.461 99.472ZM158.741 94.036C158.941 94.036 159.177 94.068 159.449 94.132C159.593 94.18 159.649 94.28 159.617 94.432L159.569 94.624C159.529 94.776 159.429 94.832 159.269 94.792C159.077 94.744 158.901 94.72 158.741 94.72C158.333 94.72 157.993 94.896 157.721 95.248C157.457 95.6 157.325 96.088 157.325 96.712V99.76C157.325 99.92 157.245 100 157.085 100H156.773C156.613 100 156.533 99.92 156.533 99.76V94.324C156.533 94.164 156.613 94.084 156.773 94.084H157.037C157.197 94.084 157.277 94.164 157.277 94.324V94.984C157.413 94.688 157.605 94.456 157.853 94.288C158.109 94.12 158.405 94.036 158.741 94.036ZM162.813 100.156C162.261 100.156 161.769 100.024 161.337 99.76C160.905 99.496 160.569 99.132 160.329 98.668C160.089 98.196 159.969 97.656 159.969 97.048C159.969 96.44 160.089 95.904 160.329 95.44C160.569 94.968 160.905 94.6 161.337 94.336C161.769 94.072 162.261 93.94 162.813 93.94C163.365 93.94 163.857 94.072 164.289 94.336C164.721 94.6 165.057 94.968 165.297 95.44C165.537 95.904 165.657 96.44 165.657 97.048C165.657 97.656 165.537 98.196 165.297 98.668C165.057 99.132 164.721 99.496 164.289 99.76C163.857 100.024 163.365 100.156 162.813 100.156ZM162.813 99.496C163.429 99.496 163.921 99.272 164.289 98.824C164.657 98.368 164.841 97.776 164.841 97.048C164.841 96.32 164.657 95.732 164.289 95.284C163.921 94.828 163.429 94.6 162.813 94.6C162.197 94.6 161.705 94.828 161.337 95.284C160.969 95.732 160.785 96.32 160.785 97.048C160.785 97.776 160.969 98.368 161.337 98.824C161.705 99.272 162.197 99.496 162.813 99.496ZM170.599 94.276C170.647 94.148 170.739 94.084 170.875 94.084H171.187C171.251 94.084 171.303 94.1 171.343 94.132C171.383 94.164 171.403 94.208 171.403 94.264L171.379 94.36L169.471 99.808C169.423 99.936 169.331 100 169.195 100H168.559C168.423 100 168.331 99.936 168.283 99.808L166.387 94.36L166.363 94.264C166.363 94.208 166.383 94.164 166.423 94.132C166.463 94.1 166.515 94.084 166.579 94.084H166.903C167.039 94.084 167.131 94.148 167.179 94.276L167.911 96.388C168.215 97.268 168.539 98.28 168.883 99.424C168.899 99.376 168.943 99.24 169.015 99.016C169.343 97.936 169.627 97.06 169.867 96.388L170.599 94.276ZM176.813 98.596C176.869 98.54 176.929 98.512 176.993 98.512C177.049 98.512 177.101 98.536 177.149 98.584L177.305 98.728C177.361 98.784 177.389 98.844 177.389 98.908C177.389 98.956 177.365 99.012 177.317 99.076C176.925 99.468 176.545 99.748 176.177 99.916C175.809 100.076 175.397 100.156 174.941 100.156C174.365 100.156 173.865 100.028 173.441 99.772C173.017 99.516 172.689 99.16 172.457 98.704C172.225 98.24 172.109 97.704 172.109 97.096C172.109 96.48 172.221 95.936 172.445 95.464C172.677 94.984 173.001 94.612 173.417 94.348C173.833 94.076 174.313 93.94 174.857 93.94C175.665 93.94 176.301 94.192 176.765 94.696C177.229 95.2 177.461 95.88 177.461 96.736V96.88C177.453 96.952 177.425 97.008 177.377 97.048C177.337 97.088 177.281 97.108 177.209 97.108H172.913C172.937 97.78 173.113 98.348 173.441 98.812C173.777 99.268 174.277 99.496 174.941 99.496C175.301 99.496 175.617 99.432 175.889 99.304C176.169 99.168 176.477 98.932 176.813 98.596ZM174.857 94.6C174.329 94.6 173.893 94.764 173.549 95.092C173.213 95.412 173.009 95.884 172.937 96.508H176.669C176.653 95.924 176.485 95.46 176.165 95.116C175.845 94.772 175.409 94.6 174.857 94.6ZM183.164 91.72C183.164 91.56 183.244 91.48 183.404 91.48H183.716C183.876 91.48 183.956 91.56 183.956 91.72V99.76C183.956 99.92 183.876 100 183.716 100H183.464C183.304 100 183.224 99.92 183.224 99.76V98.98C183.008 99.356 182.724 99.644 182.372 99.844C182.02 100.044 181.604 100.144 181.124 100.144C180.62 100.144 180.172 100.016 179.78 99.76C179.388 99.496 179.08 99.132 178.856 98.668C178.632 98.196 178.52 97.656 178.52 97.048C178.52 96.44 178.632 95.904 178.856 95.44C179.088 94.968 179.404 94.604 179.804 94.348C180.204 94.084 180.652 93.952 181.148 93.952C182.06 93.952 182.732 94.292 183.164 94.972V91.72ZM181.184 99.472C181.784 99.472 182.268 99.26 182.636 98.836C183.012 98.404 183.2 97.808 183.2 97.048C183.2 96.296 183.012 95.704 182.636 95.272C182.268 94.84 181.784 94.624 181.184 94.624C180.632 94.624 180.184 94.848 179.84 95.296C179.504 95.744 179.336 96.328 179.336 97.048C179.336 97.776 179.504 98.364 179.84 98.812C180.176 99.252 180.624 99.472 181.184 99.472Z" fill="#064E3B"/>
<rect x="126" y="116" width="41" height="24" rx="4" fill="#FFF5C8"/>
<path d="M139.845 127.488C140.341 127.64 140.733 127.896 141.021 128.256C141.317 128.616 141.465 129.068 141.465 129.612C141.465 130.34 141.229 130.92 140.757 131.352C140.285 131.784 139.653 132 138.861 132H135.333C135.173 132 135.093 131.92 135.093 131.76V123.72C135.093 123.56 135.173 123.48 135.333 123.48H138.717C139.453 123.48 140.045 123.664 140.493 124.032C140.941 124.4 141.165 124.932 141.165 125.628C141.165 126.092 141.045 126.484 140.805 126.804C140.573 127.124 140.253 127.352 139.845 127.488ZM135.945 127.176H138.573C139.125 127.176 139.557 127.044 139.869 126.78C140.181 126.508 140.337 126.128 140.337 125.64C140.337 125.176 140.181 124.82 139.869 124.572C139.565 124.316 139.133 124.188 138.573 124.188H135.945V127.176ZM138.633 131.292C139.281 131.292 139.773 131.14 140.109 130.836C140.453 130.532 140.625 130.12 140.625 129.6C140.625 129.072 140.449 128.652 140.097 128.34C139.753 128.028 139.269 127.872 138.645 127.872H135.945V131.292H138.633ZM147.307 130.596C147.363 130.54 147.423 130.512 147.487 130.512C147.543 130.512 147.595 130.536 147.643 130.584L147.799 130.728C147.855 130.784 147.883 130.844 147.883 130.908C147.883 130.956 147.859 131.012 147.811 131.076C147.419 131.468 147.039 131.748 146.671 131.916C146.303 132.076 145.891 132.156 145.435 132.156C144.859 132.156 144.359 132.028 143.935 131.772C143.511 131.516 143.183 131.16 142.951 130.704C142.719 130.24 142.603 129.704 142.603 129.096C142.603 128.48 142.715 127.936 142.939 127.464C143.171 126.984 143.495 126.612 143.911 126.348C144.327 126.076 144.807 125.94 145.351 125.94C146.159 125.94 146.795 126.192 147.259 126.696C147.723 127.2 147.955 127.88 147.955 128.736V128.88C147.947 128.952 147.919 129.008 147.871 129.048C147.831 129.088 147.775 129.108 147.703 129.108H143.407C143.431 129.78 143.607 130.348 143.935 130.812C144.271 131.268 144.771 131.496 145.435 131.496C145.795 131.496 146.111 131.432 146.383 131.304C146.663 131.168 146.971 130.932 147.307 130.596ZM145.351 126.6C144.823 126.6 144.387 126.764 144.043 127.092C143.707 127.412 143.503 127.884 143.431 128.508H147.163C147.147 127.924 146.979 127.46 146.659 127.116C146.339 126.772 145.903 126.6 145.351 126.6ZM151.98 131.34C152.004 131.332 152.036 131.328 152.076 131.328C152.124 131.328 152.168 131.344 152.208 131.376C152.248 131.408 152.272 131.452 152.28 131.508L152.316 131.676C152.324 131.692 152.328 131.72 152.328 131.76C152.328 131.872 152.268 131.94 152.148 131.964C151.86 132.052 151.552 132.096 151.224 132.096C150.704 132.096 150.332 131.98 150.108 131.748C149.892 131.508 149.784 131.164 149.784 130.716V126.684H148.896C148.736 126.684 148.656 126.604 148.656 126.444V126.324C148.656 126.164 148.736 126.084 148.896 126.084H149.784V124.26C149.784 124.1 149.864 124.02 150.024 124.02H150.336C150.496 124.02 150.576 124.1 150.576 124.26V126.084H152.016C152.176 126.084 152.256 126.164 152.256 126.324V126.444C152.256 126.604 152.176 126.684 152.016 126.684H150.576V130.62C150.576 130.916 150.632 131.124 150.744 131.244C150.856 131.364 151.048 131.424 151.32 131.424C151.512 131.424 151.732 131.396 151.98 131.34ZM155.756 125.94C156.484 125.94 157.052 126.116 157.46 126.468C157.868 126.812 158.072 127.268 158.072 127.836V131.76C158.072 131.92 157.992 132 157.832 132H157.592C157.432 132 157.352 131.92 157.352 131.76V131.22C157.152 131.54 156.868 131.78 156.5 131.94C156.14 132.1 155.736 132.18 155.288 132.18C154.664 132.18 154.156 132.048 153.764 131.784C153.372 131.52 153.176 131.112 153.176 130.56C153.176 130.12 153.3 129.768 153.548 129.504C153.796 129.232 154.12 129.028 154.52 128.892C154.92 128.748 155.42 128.62 156.02 128.508L157.316 128.28V127.896C157.316 127.488 157.176 127.172 156.896 126.948C156.616 126.716 156.248 126.6 155.792 126.6C155.448 126.6 155.136 126.664 154.856 126.792C154.576 126.92 154.276 127.14 153.956 127.452C153.9 127.508 153.84 127.536 153.776 127.536C153.72 127.536 153.668 127.512 153.62 127.464L153.464 127.32C153.408 127.264 153.38 127.204 153.38 127.14C153.38 127.068 153.408 127.004 153.464 126.948C153.8 126.596 154.152 126.34 154.52 126.18C154.896 126.02 155.308 125.94 155.756 125.94ZM155.324 131.52C155.9 131.52 156.376 131.368 156.752 131.064C157.128 130.76 157.316 130.372 157.316 129.9V128.892L156.2 129.108C155.68 129.212 155.268 129.312 154.964 129.408C154.66 129.504 154.416 129.644 154.232 129.828C154.048 130.012 153.956 130.252 153.956 130.548C153.956 130.852 154.076 131.092 154.316 131.268C154.564 131.436 154.9 131.52 155.324 131.52Z" fill="#6B4206"/>
<rect x="126" y="148" width="63" height="24" rx="4" fill="#FFEFEF"/>
<path d="M141.656 163.712C141.688 163.752 141.704 163.796 141.704 163.844C141.704 163.948 141.636 164 141.5 164H141.056C140.936 164 140.84 163.948 140.768 163.844L138.488 160.46H136.304V163.76C136.304 163.92 136.224 164 136.064 164H135.692C135.532 164 135.452 163.92 135.452 163.76V155.72C135.452 155.56 135.532 155.48 135.692 155.48H138.824C139.64 155.48 140.3 155.7 140.804 156.14C141.308 156.572 141.56 157.18 141.56 157.964C141.56 158.652 141.364 159.208 140.972 159.632C140.588 160.056 140.068 160.316 139.412 160.412L141.656 163.712ZM136.304 159.752H138.692C139.324 159.752 139.82 159.6 140.18 159.296C140.54 158.992 140.72 158.548 140.72 157.964C140.72 157.388 140.536 156.948 140.168 156.644C139.808 156.34 139.312 156.188 138.68 156.188H136.304V159.752ZM147.292 162.596C147.348 162.54 147.408 162.512 147.472 162.512C147.528 162.512 147.58 162.536 147.628 162.584L147.784 162.728C147.84 162.784 147.868 162.844 147.868 162.908C147.868 162.956 147.844 163.012 147.796 163.076C147.404 163.468 147.024 163.748 146.656 163.916C146.288 164.076 145.876 164.156 145.42 164.156C144.844 164.156 144.344 164.028 143.92 163.772C143.496 163.516 143.168 163.16 142.936 162.704C142.704 162.24 142.588 161.704 142.588 161.096C142.588 160.48 142.7 159.936 142.924 159.464C143.156 158.984 143.48 158.612 143.896 158.348C144.312 158.076 144.792 157.94 145.336 157.94C146.144 157.94 146.78 158.192 147.244 158.696C147.708 159.2 147.94 159.88 147.94 160.736V160.88C147.932 160.952 147.904 161.008 147.856 161.048C147.816 161.088 147.76 161.108 147.688 161.108H143.392C143.416 161.78 143.592 162.348 143.92 162.812C144.256 163.268 144.756 163.496 145.42 163.496C145.78 163.496 146.096 163.432 146.368 163.304C146.648 163.168 146.956 162.932 147.292 162.596ZM145.336 158.6C144.808 158.6 144.372 158.764 144.028 159.092C143.692 159.412 143.488 159.884 143.416 160.508H147.148C147.132 159.924 146.964 159.46 146.644 159.116C146.324 158.772 145.888 158.6 145.336 158.6ZM149.791 156.584C149.631 156.584 149.495 156.528 149.383 156.416C149.279 156.304 149.227 156.168 149.227 156.008C149.227 155.848 149.279 155.716 149.383 155.612C149.495 155.508 149.631 155.456 149.791 155.456C149.959 155.456 150.095 155.508 150.199 155.612C150.311 155.716 150.367 155.848 150.367 156.008C150.367 156.168 150.311 156.304 150.199 156.416C150.095 156.528 149.959 156.584 149.791 156.584ZM148.591 166.352C148.327 166.352 148.031 166.316 147.703 166.244C147.559 166.196 147.507 166.096 147.547 165.944L147.595 165.776C147.611 165.704 147.647 165.652 147.703 165.62C147.751 165.596 147.811 165.592 147.883 165.608C148.115 165.664 148.339 165.692 148.555 165.692C148.867 165.692 149.083 165.596 149.203 165.404C149.331 165.22 149.395 164.936 149.395 164.552V158.324C149.395 158.164 149.475 158.084 149.635 158.084H149.947C150.107 158.084 150.187 158.164 150.187 158.324V164.576C150.187 165.144 150.055 165.58 149.791 165.884C149.535 166.196 149.135 166.352 148.591 166.352ZM156.257 162.596C156.313 162.54 156.373 162.512 156.437 162.512C156.493 162.512 156.545 162.536 156.593 162.584L156.749 162.728C156.805 162.784 156.833 162.844 156.833 162.908C156.833 162.956 156.809 163.012 156.761 163.076C156.369 163.468 155.989 163.748 155.621 163.916C155.253 164.076 154.841 164.156 154.385 164.156C153.809 164.156 153.309 164.028 152.885 163.772C152.461 163.516 152.133 163.16 151.901 162.704C151.669 162.24 151.553 161.704 151.553 161.096C151.553 160.48 151.665 159.936 151.889 159.464C152.121 158.984 152.445 158.612 152.861 158.348C153.277 158.076 153.757 157.94 154.301 157.94C155.109 157.94 155.745 158.192 156.209 158.696C156.673 159.2 156.905 159.88 156.905 160.736V160.88C156.897 160.952 156.869 161.008 156.821 161.048C156.781 161.088 156.725 161.108 156.653 161.108H152.357C152.381 161.78 152.557 162.348 152.885 162.812C153.221 163.268 153.721 163.496 154.385 163.496C154.745 163.496 155.061 163.432 155.333 163.304C155.613 163.168 155.921 162.932 156.257 162.596ZM154.301 158.6C153.773 158.6 153.337 158.764 152.993 159.092C152.657 159.412 152.453 159.884 152.381 160.508H156.113C156.097 159.924 155.929 159.46 155.609 159.116C155.289 158.772 154.853 158.6 154.301 158.6ZM160.735 164.156C160.167 164.156 159.671 164.028 159.247 163.772C158.831 163.508 158.507 163.144 158.275 162.68C158.051 162.208 157.939 161.664 157.939 161.048C157.939 160.44 158.051 159.9 158.275 159.428C158.507 158.956 158.831 158.592 159.247 158.336C159.671 158.072 160.159 157.94 160.711 157.94C161.159 157.94 161.551 158.016 161.887 158.168C162.223 158.312 162.547 158.552 162.859 158.888C162.907 158.936 162.931 158.988 162.931 159.044C162.931 159.116 162.899 159.176 162.835 159.224L162.667 159.38C162.619 159.428 162.563 159.452 162.499 159.452C162.443 159.452 162.383 159.42 162.319 159.356C162.039 159.076 161.771 158.88 161.515 158.768C161.267 158.656 160.991 158.6 160.687 158.6C160.271 158.6 159.915 158.716 159.619 158.948C159.331 159.18 159.115 159.484 158.971 159.86C158.827 160.228 158.755 160.624 158.755 161.048C158.755 161.472 158.827 161.872 158.971 162.248C159.115 162.616 159.335 162.916 159.631 163.148C159.927 163.372 160.291 163.484 160.723 163.484C161.043 163.484 161.323 163.428 161.563 163.316C161.811 163.196 162.087 162.972 162.391 162.644C162.455 162.58 162.515 162.548 162.571 162.548C162.635 162.548 162.691 162.572 162.739 162.62L162.907 162.752C162.963 162.8 162.991 162.856 162.991 162.92C162.991 162.984 162.955 163.06 162.883 163.148C162.547 163.516 162.211 163.776 161.875 163.928C161.539 164.08 161.159 164.156 160.735 164.156ZM166.976 163.34C167 163.332 167.032 163.328 167.072 163.328C167.12 163.328 167.164 163.344 167.204 163.376C167.244 163.408 167.268 163.452 167.276 163.508L167.312 163.676C167.32 163.692 167.324 163.72 167.324 163.76C167.324 163.872 167.264 163.94 167.144 163.964C166.856 164.052 166.548 164.096 166.22 164.096C165.7 164.096 165.328 163.98 165.104 163.748C164.888 163.508 164.78 163.164 164.78 162.716V158.684H163.892C163.732 158.684 163.652 158.604 163.652 158.444V158.324C163.652 158.164 163.732 158.084 163.892 158.084H164.78V156.26C164.78 156.1 164.86 156.02 165.02 156.02H165.332C165.492 156.02 165.572 156.1 165.572 156.26V158.084H167.012C167.172 158.084 167.252 158.164 167.252 158.324V158.444C167.252 158.604 167.172 158.684 167.012 158.684H165.572V162.62C165.572 162.916 165.628 163.124 165.74 163.244C165.852 163.364 166.044 163.424 166.316 163.424C166.508 163.424 166.728 163.396 166.976 163.34ZM172.546 162.596C172.602 162.54 172.662 162.512 172.726 162.512C172.782 162.512 172.834 162.536 172.882 162.584L173.038 162.728C173.094 162.784 173.122 162.844 173.122 162.908C173.122 162.956 173.098 163.012 173.05 163.076C172.658 163.468 172.278 163.748 171.91 163.916C171.542 164.076 171.13 164.156 170.674 164.156C170.098 164.156 169.598 164.028 169.174 163.772C168.75 163.516 168.422 163.16 168.19 162.704C167.958 162.24 167.842 161.704 167.842 161.096C167.842 160.48 167.954 159.936 168.178 159.464C168.41 158.984 168.734 158.612 169.15 158.348C169.566 158.076 170.046 157.94 170.59 157.94C171.398 157.94 172.034 158.192 172.498 158.696C172.962 159.2 173.194 159.88 173.194 160.736V160.88C173.186 160.952 173.158 161.008 173.11 161.048C173.07 161.088 173.014 161.108 172.942 161.108H168.646C168.67 161.78 168.846 162.348 169.174 162.812C169.51 163.268 170.01 163.496 170.674 163.496C171.034 163.496 171.35 163.432 171.622 163.304C171.902 163.168 172.21 162.932 172.546 162.596ZM170.59 158.6C170.062 158.6 169.626 158.764 169.282 159.092C168.946 159.412 168.742 159.884 168.67 160.508H172.402C172.386 159.924 172.218 159.46 171.898 159.116C171.578 158.772 171.142 158.6 170.59 158.6ZM178.896 155.72C178.896 155.56 178.976 155.48 179.136 155.48H179.448C179.608 155.48 179.688 155.56 179.688 155.72V163.76C179.688 163.92 179.608 164 179.448 164H179.196C179.036 164 178.956 163.92 178.956 163.76V162.98C178.74 163.356 178.456 163.644 178.104 163.844C177.752 164.044 177.336 164.144 176.856 164.144C176.352 164.144 175.904 164.016 175.512 163.76C175.12 163.496 174.812 163.132 174.588 162.668C174.364 162.196 174.252 161.656 174.252 161.048C174.252 160.44 174.364 159.904 174.588 159.44C174.82 158.968 175.136 158.604 175.536 158.348C175.936 158.084 176.384 157.952 176.88 157.952C177.792 157.952 178.464 158.292 178.896 158.972V155.72ZM176.916 163.472C177.516 163.472 178 163.26 178.368 162.836C178.744 162.404 178.932 161.808 178.932 161.048C178.932 160.296 178.744 159.704 178.368 159.272C178 158.84 177.516 158.624 176.916 158.624C176.364 158.624 175.916 158.848 175.572 159.296C175.236 159.744 175.068 160.328 175.068 161.048C175.068 161.776 175.236 162.364 175.572 162.812C175.908 163.252 176.356 163.472 176.916 163.472Z" fill="#801A00"/>
<rect x="126" y="180" width="62" height="24" rx="4" fill="#C3CCD9"/>
<path d="M141.189 196C141.053 196 140.961 195.936 140.913 195.808L140.121 193.612H136.245L135.465 195.808C135.417 195.936 135.325 196 135.189 196H134.817C134.753 196 134.701 195.984 134.661 195.952C134.621 195.92 134.601 195.876 134.601 195.82L134.625 195.724L137.565 187.672C137.613 187.544 137.705 187.48 137.841 187.48H138.537C138.673 187.48 138.765 187.544 138.813 187.672L141.753 195.724L141.777 195.82C141.777 195.876 141.757 195.92 141.717 195.952C141.677 195.984 141.625 196 141.561 196H141.189ZM139.857 192.892L139.437 191.716L139.341 191.464C139.229 191.16 139.045 190.652 138.789 189.94C138.541 189.228 138.337 188.624 138.177 188.128C137.961 188.808 137.621 189.796 137.157 191.092C137.125 191.18 137.089 191.276 137.049 191.38C137.009 191.484 136.969 191.596 136.929 191.716L136.509 192.892H139.857ZM145.19 190.036C145.39 190.036 145.626 190.068 145.898 190.132C146.042 190.18 146.098 190.28 146.066 190.432L146.018 190.624C145.978 190.776 145.878 190.832 145.718 190.792C145.526 190.744 145.35 190.72 145.19 190.72C144.782 190.72 144.442 190.896 144.17 191.248C143.906 191.6 143.774 192.088 143.774 192.712V195.76C143.774 195.92 143.694 196 143.534 196H143.222C143.062 196 142.982 195.92 142.982 195.76V190.324C142.982 190.164 143.062 190.084 143.222 190.084H143.486C143.646 190.084 143.726 190.164 143.726 190.324V190.984C143.862 190.688 144.054 190.456 144.302 190.288C144.558 190.12 144.854 190.036 145.19 190.036ZM149.214 196.156C148.646 196.156 148.15 196.028 147.726 195.772C147.31 195.508 146.986 195.144 146.754 194.68C146.53 194.208 146.418 193.664 146.418 193.048C146.418 192.44 146.53 191.9 146.754 191.428C146.986 190.956 147.31 190.592 147.726 190.336C148.15 190.072 148.638 189.94 149.19 189.94C149.638 189.94 150.03 190.016 150.366 190.168C150.702 190.312 151.026 190.552 151.338 190.888C151.386 190.936 151.41 190.988 151.41 191.044C151.41 191.116 151.378 191.176 151.314 191.224L151.146 191.38C151.098 191.428 151.042 191.452 150.978 191.452C150.922 191.452 150.862 191.42 150.798 191.356C150.518 191.076 150.25 190.88 149.994 190.768C149.746 190.656 149.47 190.6 149.166 190.6C148.75 190.6 148.394 190.716 148.098 190.948C147.81 191.18 147.594 191.484 147.45 191.86C147.306 192.228 147.234 192.624 147.234 193.048C147.234 193.472 147.306 193.872 147.45 194.248C147.594 194.616 147.814 194.916 148.11 195.148C148.406 195.372 148.77 195.484 149.202 195.484C149.522 195.484 149.802 195.428 150.042 195.316C150.29 195.196 150.566 194.972 150.87 194.644C150.934 194.58 150.994 194.548 151.05 194.548C151.114 194.548 151.17 194.572 151.218 194.62L151.386 194.752C151.442 194.8 151.47 194.856 151.47 194.92C151.47 194.984 151.434 195.06 151.362 195.148C151.026 195.516 150.69 195.776 150.354 195.928C150.018 196.08 149.638 196.156 149.214 196.156ZM155.395 189.94C156.083 189.94 156.607 190.136 156.967 190.528C157.327 190.912 157.507 191.388 157.507 191.956V195.76C157.507 195.92 157.427 196 157.267 196H156.955C156.795 196 156.715 195.92 156.715 195.76V192.22C156.715 191.692 156.587 191.292 156.331 191.02C156.075 190.748 155.707 190.612 155.227 190.612C154.923 190.612 154.643 190.688 154.387 190.84C154.131 190.984 153.927 191.184 153.775 191.44C153.623 191.696 153.547 191.976 153.547 192.28V195.76C153.547 195.92 153.467 196 153.307 196H152.995C152.835 196 152.755 195.92 152.755 195.76V187.72C152.755 187.56 152.835 187.48 152.995 187.48H153.307C153.467 187.48 153.547 187.56 153.547 187.72V190.852C153.739 190.548 153.995 190.32 154.315 190.168C154.643 190.016 155.003 189.94 155.395 189.94ZM159.655 188.584C159.495 188.584 159.359 188.528 159.247 188.416C159.143 188.304 159.091 188.168 159.091 188.008C159.091 187.848 159.143 187.716 159.247 187.612C159.359 187.508 159.495 187.456 159.655 187.456C159.823 187.456 159.959 187.508 160.063 187.612C160.175 187.716 160.231 187.848 160.231 188.008C160.231 188.168 160.175 188.304 160.063 188.416C159.959 188.528 159.823 188.584 159.655 188.584ZM159.499 196C159.339 196 159.259 195.92 159.259 195.76V190.324C159.259 190.164 159.339 190.084 159.499 190.084H159.811C159.971 190.084 160.051 190.164 160.051 190.324V195.76C160.051 195.92 159.971 196 159.811 196H159.499ZM165.462 190.276C165.51 190.148 165.602 190.084 165.738 190.084H166.05C166.114 190.084 166.166 190.1 166.206 190.132C166.246 190.164 166.266 190.208 166.266 190.264L166.242 190.36L164.334 195.808C164.286 195.936 164.194 196 164.058 196H163.422C163.286 196 163.194 195.936 163.146 195.808L161.25 190.36L161.226 190.264C161.226 190.208 161.246 190.164 161.286 190.132C161.326 190.1 161.378 190.084 161.442 190.084H161.766C161.902 190.084 161.994 190.148 162.042 190.276L162.774 192.388C163.078 193.268 163.402 194.28 163.746 195.424C163.762 195.376 163.806 195.24 163.878 195.016C164.206 193.936 164.49 193.06 164.73 192.388L165.462 190.276ZM171.676 194.596C171.732 194.54 171.792 194.512 171.856 194.512C171.912 194.512 171.964 194.536 172.012 194.584L172.168 194.728C172.224 194.784 172.252 194.844 172.252 194.908C172.252 194.956 172.228 195.012 172.18 195.076C171.788 195.468 171.408 195.748 171.04 195.916C170.672 196.076 170.26 196.156 169.804 196.156C169.228 196.156 168.728 196.028 168.304 195.772C167.88 195.516 167.552 195.16 167.32 194.704C167.088 194.24 166.972 193.704 166.972 193.096C166.972 192.48 167.084 191.936 167.308 191.464C167.54 190.984 167.864 190.612 168.28 190.348C168.696 190.076 169.176 189.94 169.72 189.94C170.528 189.94 171.164 190.192 171.628 190.696C172.092 191.2 172.324 191.88 172.324 192.736V192.88C172.316 192.952 172.288 193.008 172.24 193.048C172.2 193.088 172.144 193.108 172.072 193.108H167.776C167.8 193.78 167.976 194.348 168.304 194.812C168.64 195.268 169.14 195.496 169.804 195.496C170.164 195.496 170.48 195.432 170.752 195.304C171.032 195.168 171.34 194.932 171.676 194.596ZM169.72 190.6C169.192 190.6 168.756 190.764 168.412 191.092C168.076 191.412 167.872 191.884 167.8 192.508H171.532C171.516 191.924 171.348 191.46 171.028 191.116C170.708 190.772 170.272 190.6 169.72 190.6ZM178.027 187.72C178.027 187.56 178.107 187.48 178.267 187.48H178.579C178.739 187.48 178.819 187.56 178.819 187.72V195.76C178.819 195.92 178.739 196 178.579 196H178.327C178.167 196 178.087 195.92 178.087 195.76V194.98C177.871 195.356 177.587 195.644 177.235 195.844C176.883 196.044 176.467 196.144 175.987 196.144C175.483 196.144 175.035 196.016 174.643 195.76C174.251 195.496 173.943 195.132 173.719 194.668C173.495 194.196 173.383 193.656 173.383 193.048C173.383 192.44 173.495 191.904 173.719 191.44C173.951 190.968 174.267 190.604 174.667 190.348C175.067 190.084 175.515 189.952 176.011 189.952C176.923 189.952 177.595 190.292 178.027 190.972V187.72ZM176.047 195.472C176.647 195.472 177.131 195.26 177.499 194.836C177.875 194.404 178.063 193.808 178.063 193.048C178.063 192.296 177.875 191.704 177.499 191.272C177.131 190.84 176.647 190.624 176.047 190.624C175.495 190.624 175.047 190.848 174.703 191.296C174.367 191.744 174.199 192.328 174.199 193.048C174.199 193.776 174.367 194.364 174.703 194.812C175.039 195.252 175.487 195.472 176.047 195.472Z" fill="#0F1729"/>
<rect x="126" y="212" width="73" height="24" rx="4" fill="#B6F0FF"/>
<path d="M137.875 228.18C137.243 228.18 136.671 228.084 136.159 227.892C135.655 227.692 135.123 227.368 134.563 226.92C134.491 226.856 134.455 226.796 134.455 226.74C134.455 226.692 134.479 226.64 134.527 226.584L134.719 226.356C134.759 226.292 134.819 226.26 134.899 226.26C134.963 226.26 135.015 226.28 135.055 226.32C135.623 226.76 136.119 227.06 136.543 227.22C136.967 227.372 137.411 227.448 137.875 227.448C138.523 227.448 139.051 227.288 139.459 226.968C139.867 226.64 140.071 226.196 140.071 225.636C140.071 225.276 139.975 224.988 139.783 224.772C139.591 224.556 139.327 224.388 138.991 224.268C138.663 224.148 138.195 224.02 137.587 223.884C136.859 223.724 136.291 223.552 135.883 223.368C135.483 223.184 135.191 222.952 135.007 222.672C134.823 222.392 134.731 222.032 134.731 221.592C134.731 221.128 134.863 220.724 135.127 220.38C135.399 220.028 135.759 219.76 136.207 219.576C136.655 219.392 137.139 219.3 137.659 219.3C138.227 219.3 138.743 219.384 139.207 219.552C139.679 219.72 140.143 219.988 140.599 220.356C140.671 220.404 140.707 220.46 140.707 220.524C140.707 220.572 140.683 220.628 140.635 220.692L140.455 220.908C140.415 220.972 140.355 221.004 140.275 221.004C140.211 221.004 140.155 220.984 140.107 220.944C139.699 220.608 139.303 220.372 138.919 220.236C138.543 220.1 138.127 220.032 137.671 220.032C137.255 220.032 136.887 220.1 136.567 220.236C136.247 220.364 135.995 220.544 135.811 220.776C135.635 221.008 135.547 221.272 135.547 221.568C135.547 221.888 135.635 222.144 135.811 222.336C135.995 222.528 136.247 222.68 136.567 222.792C136.895 222.904 137.371 223.032 137.995 223.176C138.715 223.344 139.283 223.532 139.699 223.74C140.123 223.948 140.431 224.204 140.623 224.508C140.815 224.804 140.911 225.172 140.911 225.612C140.911 226.124 140.779 226.576 140.515 226.968C140.259 227.352 139.899 227.652 139.435 227.868C138.971 228.076 138.451 228.18 137.875 228.18ZM145.197 221.952C145.693 221.952 146.137 222.084 146.529 222.348C146.929 222.604 147.241 222.968 147.465 223.44C147.689 223.904 147.801 224.436 147.801 225.036C147.801 225.644 147.689 226.184 147.465 226.656C147.241 227.128 146.933 227.496 146.541 227.76C146.149 228.016 145.701 228.144 145.197 228.144C144.269 228.144 143.589 227.804 143.157 227.124V229.968C143.157 230.128 143.077 230.208 142.917 230.208H142.605C142.445 230.208 142.365 230.128 142.365 229.968V222.324C142.365 222.164 142.445 222.084 142.605 222.084H142.869C143.029 222.084 143.109 222.164 143.109 222.324V223.08C143.325 222.712 143.609 222.432 143.961 222.24C144.313 222.048 144.725 221.952 145.197 221.952ZM145.137 227.472C145.697 227.472 146.145 227.248 146.481 226.8C146.817 226.352 146.985 225.764 146.985 225.036C146.985 224.316 146.817 223.736 146.481 223.296C146.145 222.848 145.697 222.624 145.137 222.624C144.537 222.624 144.049 222.84 143.673 223.272C143.305 223.696 143.121 224.284 143.121 225.036C143.121 225.788 143.309 226.384 143.685 226.824C144.061 227.256 144.545 227.472 145.137 227.472ZM151.727 228.156C151.175 228.156 150.683 228.024 150.251 227.76C149.819 227.496 149.483 227.132 149.243 226.668C149.003 226.196 148.883 225.656 148.883 225.048C148.883 224.44 149.003 223.904 149.243 223.44C149.483 222.968 149.819 222.6 150.251 222.336C150.683 222.072 151.175 221.94 151.727 221.94C152.279 221.94 152.771 222.072 153.203 222.336C153.635 222.6 153.971 222.968 154.211 223.44C154.451 223.904 154.571 224.44 154.571 225.048C154.571 225.656 154.451 226.196 154.211 226.668C153.971 227.132 153.635 227.496 153.203 227.76C152.771 228.024 152.279 228.156 151.727 228.156ZM151.727 227.496C152.343 227.496 152.835 227.272 153.203 226.824C153.571 226.368 153.755 225.776 153.755 225.048C153.755 224.32 153.571 223.732 153.203 223.284C152.835 222.828 152.343 222.6 151.727 222.6C151.111 222.6 150.619 222.828 150.251 223.284C149.883 223.732 149.699 224.32 149.699 225.048C149.699 225.776 149.883 226.368 150.251 226.824C150.619 227.272 151.111 227.496 151.727 227.496ZM158.587 221.94C159.283 221.94 159.807 222.132 160.159 222.516C160.519 222.9 160.699 223.38 160.699 223.956V227.76C160.699 227.92 160.619 228 160.459 228H160.147C159.987 228 159.907 227.92 159.907 227.76V224.22C159.907 223.692 159.779 223.292 159.523 223.02C159.267 222.748 158.899 222.612 158.419 222.612C158.115 222.612 157.835 222.688 157.579 222.84C157.323 222.984 157.119 223.184 156.967 223.44C156.815 223.696 156.739 223.976 156.739 224.28V227.76C156.739 227.92 156.659 228 156.499 228H156.187C156.027 228 155.947 227.92 155.947 227.76V222.324C155.947 222.164 156.027 222.084 156.187 222.084H156.451C156.611 222.084 156.691 222.164 156.691 222.324V222.9C156.891 222.58 157.155 222.34 157.483 222.18C157.811 222.02 158.179 221.94 158.587 221.94ZM164.515 228.156C164.027 228.156 163.595 228.088 163.219 227.952C162.851 227.808 162.463 227.568 162.055 227.232C161.983 227.184 161.947 227.128 161.947 227.064C161.947 227.008 161.975 226.952 162.031 226.896L162.187 226.728C162.235 226.664 162.295 226.632 162.367 226.632C162.423 226.632 162.475 226.656 162.523 226.704C162.907 227 163.247 227.208 163.543 227.328C163.839 227.44 164.163 227.496 164.515 227.496C164.955 227.496 165.315 227.4 165.595 227.208C165.875 227.008 166.015 226.74 166.015 226.404C166.015 226.068 165.871 225.82 165.583 225.66C165.295 225.5 164.851 225.356 164.251 225.228C163.723 225.116 163.307 225 163.003 224.88C162.707 224.752 162.487 224.592 162.343 224.4C162.199 224.208 162.127 223.956 162.127 223.644C162.127 223.132 162.335 222.72 162.751 222.408C163.167 222.096 163.691 221.94 164.323 221.94C164.755 221.94 165.139 221.996 165.475 222.108C165.819 222.212 166.163 222.388 166.507 222.636C166.579 222.692 166.615 222.752 166.615 222.816C166.615 222.856 166.595 222.908 166.555 222.972L166.411 223.152C166.371 223.216 166.315 223.248 166.243 223.248C166.179 223.248 166.123 223.228 166.075 223.188C165.747 222.956 165.455 222.8 165.199 222.72C164.951 222.64 164.667 222.6 164.347 222.6C163.907 222.6 163.555 222.696 163.291 222.888C163.027 223.08 162.895 223.324 162.895 223.62C162.895 223.804 162.955 223.952 163.075 224.064C163.195 224.176 163.367 224.272 163.591 224.352C163.815 224.424 164.143 224.508 164.575 224.604C165.375 224.78 165.943 224.996 166.279 225.252C166.623 225.508 166.795 225.88 166.795 226.368C166.795 226.904 166.583 227.336 166.159 227.664C165.735 227.992 165.187 228.156 164.515 228.156ZM170.582 228.156C170.03 228.156 169.538 228.024 169.106 227.76C168.674 227.496 168.338 227.132 168.098 226.668C167.858 226.196 167.738 225.656 167.738 225.048C167.738 224.44 167.858 223.904 168.098 223.44C168.338 222.968 168.674 222.6 169.106 222.336C169.538 222.072 170.03 221.94 170.582 221.94C171.134 221.94 171.626 222.072 172.058 222.336C172.49 222.6 172.826 222.968 173.066 223.44C173.306 223.904 173.426 224.44 173.426 225.048C173.426 225.656 173.306 226.196 173.066 226.668C172.826 227.132 172.49 227.496 172.058 227.76C171.626 228.024 171.134 228.156 170.582 228.156ZM170.582 227.496C171.198 227.496 171.69 227.272 172.058 226.824C172.426 226.368 172.61 225.776 172.61 225.048C172.61 224.32 172.426 223.732 172.058 223.284C171.69 222.828 171.198 222.6 170.582 222.6C169.966 222.6 169.474 222.828 169.106 223.284C168.738 223.732 168.554 224.32 168.554 225.048C168.554 225.776 168.738 226.368 169.106 226.824C169.474 227.272 169.966 227.496 170.582 227.496ZM177.01 222.036C177.21 222.036 177.446 222.068 177.718 222.132C177.862 222.18 177.918 222.28 177.886 222.432L177.838 222.624C177.798 222.776 177.698 222.832 177.538 222.792C177.346 222.744 177.17 222.72 177.01 222.72C176.602 222.72 176.262 222.896 175.99 223.248C175.726 223.6 175.594 224.088 175.594 224.712V227.76C175.594 227.92 175.514 228 175.354 228H175.042C174.882 228 174.802 227.92 174.802 227.76V222.324C174.802 222.164 174.882 222.084 175.042 222.084H175.306C175.466 222.084 175.546 222.164 175.546 222.324V222.984C175.682 222.688 175.874 222.456 176.122 222.288C176.378 222.12 176.674 222.036 177.01 222.036ZM182.942 226.596C182.998 226.54 183.058 226.512 183.122 226.512C183.178 226.512 183.23 226.536 183.278 226.584L183.434 226.728C183.49 226.784 183.518 226.844 183.518 226.908C183.518 226.956 183.494 227.012 183.446 227.076C183.054 227.468 182.674 227.748 182.306 227.916C181.938 228.076 181.526 228.156 181.07 228.156C180.494 228.156 179.994 228.028 179.57 227.772C179.146 227.516 178.818 227.16 178.586 226.704C178.354 226.24 178.238 225.704 178.238 225.096C178.238 224.48 178.35 223.936 178.574 223.464C178.806 222.984 179.13 222.612 179.546 222.348C179.962 222.076 180.442 221.94 180.986 221.94C181.794 221.94 182.43 222.192 182.894 222.696C183.358 223.2 183.59 223.88 183.59 224.736V224.88C183.582 224.952 183.554 225.008 183.506 225.048C183.466 225.088 183.41 225.108 183.338 225.108H179.042C179.066 225.78 179.242 226.348 179.57 226.812C179.906 227.268 180.406 227.496 181.07 227.496C181.43 227.496 181.746 227.432 182.018 227.304C182.298 227.168 182.606 226.932 182.942 226.596ZM180.986 222.6C180.458 222.6 180.022 222.764 179.678 223.092C179.342 223.412 179.138 223.884 179.066 224.508H182.798C182.782 223.924 182.614 223.46 182.294 223.116C181.974 222.772 181.538 222.6 180.986 222.6ZM189.293 219.72C189.293 219.56 189.373 219.48 189.533 219.48H189.845C190.005 219.48 190.085 219.56 190.085 219.72V227.76C190.085 227.92 190.005 228 189.845 228H189.593C189.433 228 189.353 227.92 189.353 227.76V226.98C189.137 227.356 188.853 227.644 188.501 227.844C188.149 228.044 187.733 228.144 187.253 228.144C186.749 228.144 186.301 228.016 185.909 227.76C185.517 227.496 185.209 227.132 184.985 226.668C184.761 226.196 184.649 225.656 184.649 225.048C184.649 224.44 184.761 223.904 184.985 223.44C185.217 222.968 185.533 222.604 185.933 222.348C186.333 222.084 186.781 221.952 187.277 221.952C188.189 221.952 188.861 222.292 189.293 222.972V219.72ZM187.313 227.472C187.913 227.472 188.397 227.26 188.765 226.836C189.141 226.404 189.329 225.808 189.329 225.048C189.329 224.296 189.141 223.704 188.765 223.272C188.397 222.84 187.913 222.624 187.313 222.624C186.761 222.624 186.313 222.848 185.969 223.296C185.633 223.744 185.465 224.328 185.465 225.048C185.465 225.776 185.633 226.364 185.969 226.812C186.305 227.252 186.753 227.472 187.313 227.472Z" fill="#024764"/>
<rect x="126" y="244" width="93" height="24" rx="4" fill="#F5F5F5"/>
<path d="M141.302 260C141.166 260 141.074 259.936 141.026 259.808L140.234 257.612H136.358L135.578 259.808C135.53 259.936 135.438 260 135.302 260H134.93C134.866 260 134.814 259.984 134.774 259.952C134.734 259.92 134.714 259.876 134.714 259.82L134.738 259.724L137.678 251.672C137.726 251.544 137.818 251.48 137.954 251.48H138.65C138.786 251.48 138.878 251.544 138.926 251.672L141.866 259.724L141.89 259.82C141.89 259.876 141.87 259.92 141.83 259.952C141.79 259.984 141.738 260 141.674 260H141.302ZM139.97 256.892L139.55 255.716L139.454 255.464C139.342 255.16 139.158 254.652 138.902 253.94C138.654 253.228 138.45 252.624 138.29 252.128C138.074 252.808 137.734 253.796 137.27 255.092C137.238 255.18 137.202 255.276 137.162 255.38C137.122 255.484 137.082 255.596 137.042 255.716L136.622 256.892H139.97ZM147.344 251.72C147.344 251.56 147.424 251.48 147.584 251.48H147.896C148.056 251.48 148.136 251.56 148.136 251.72V259.76C148.136 259.92 148.056 260 147.896 260H147.644C147.484 260 147.404 259.92 147.404 259.76V258.98C147.188 259.356 146.904 259.644 146.552 259.844C146.2 260.044 145.784 260.144 145.304 260.144C144.8 260.144 144.352 260.016 143.96 259.76C143.568 259.496 143.26 259.132 143.036 258.668C142.812 258.196 142.7 257.656 142.7 257.048C142.7 256.44 142.812 255.904 143.036 255.44C143.268 254.968 143.584 254.604 143.984 254.348C144.384 254.084 144.832 253.952 145.328 253.952C146.24 253.952 146.912 254.292 147.344 254.972V251.72ZM145.364 259.472C145.964 259.472 146.448 259.26 146.816 258.836C147.192 258.404 147.38 257.808 147.38 257.048C147.38 256.296 147.192 255.704 146.816 255.272C146.448 254.84 145.964 254.624 145.364 254.624C144.812 254.624 144.364 254.848 144.02 255.296C143.684 255.744 143.516 256.328 143.516 257.048C143.516 257.776 143.684 258.364 144.02 258.812C144.356 259.252 144.804 259.472 145.364 259.472ZM153.563 254.276C153.611 254.148 153.703 254.084 153.839 254.084H154.151C154.215 254.084 154.267 254.1 154.307 254.132C154.347 254.164 154.367 254.208 154.367 254.264L154.343 254.36L152.435 259.808C152.387 259.936 152.295 260 152.159 260H151.523C151.387 260 151.295 259.936 151.247 259.808L149.351 254.36L149.327 254.264C149.327 254.208 149.347 254.164 149.387 254.132C149.427 254.1 149.479 254.084 149.543 254.084H149.867C150.003 254.084 150.095 254.148 150.143 254.276L150.875 256.388C151.179 257.268 151.503 258.28 151.847 259.424C151.863 259.376 151.907 259.24 151.979 259.016C152.307 257.936 152.591 257.06 152.831 256.388L153.563 254.276ZM159.778 258.596C159.834 258.54 159.894 258.512 159.958 258.512C160.014 258.512 160.066 258.536 160.114 258.584L160.27 258.728C160.326 258.784 160.354 258.844 160.354 258.908C160.354 258.956 160.33 259.012 160.282 259.076C159.89 259.468 159.51 259.748 159.142 259.916C158.774 260.076 158.362 260.156 157.906 260.156C157.33 260.156 156.83 260.028 156.406 259.772C155.982 259.516 155.654 259.16 155.422 258.704C155.19 258.24 155.074 257.704 155.074 257.096C155.074 256.48 155.186 255.936 155.41 255.464C155.642 254.984 155.966 254.612 156.382 254.348C156.798 254.076 157.278 253.94 157.822 253.94C158.63 253.94 159.266 254.192 159.73 254.696C160.194 255.2 160.426 255.88 160.426 256.736V256.88C160.418 256.952 160.39 257.008 160.342 257.048C160.302 257.088 160.246 257.108 160.174 257.108H155.878C155.902 257.78 156.078 258.348 156.406 258.812C156.742 259.268 157.242 259.496 157.906 259.496C158.266 259.496 158.582 259.432 158.854 259.304C159.134 259.168 159.442 258.932 159.778 258.596ZM157.822 254.6C157.294 254.6 156.858 254.764 156.514 255.092C156.178 255.412 155.974 255.884 155.902 256.508H159.634C159.618 255.924 159.45 255.46 159.13 255.116C158.81 254.772 158.374 254.6 157.822 254.6ZM164.053 254.036C164.253 254.036 164.489 254.068 164.761 254.132C164.905 254.18 164.961 254.28 164.929 254.432L164.881 254.624C164.841 254.776 164.741 254.832 164.581 254.792C164.389 254.744 164.213 254.72 164.053 254.72C163.645 254.72 163.305 254.896 163.033 255.248C162.769 255.6 162.637 256.088 162.637 256.712V259.76C162.637 259.92 162.557 260 162.397 260H162.085C161.925 260 161.845 259.92 161.845 259.76V254.324C161.845 254.164 161.925 254.084 162.085 254.084H162.349C162.509 254.084 162.589 254.164 162.589 254.324V254.984C162.725 254.688 162.917 254.456 163.165 254.288C163.421 254.12 163.717 254.036 164.053 254.036ZM168.786 259.34C168.81 259.332 168.842 259.328 168.882 259.328C168.93 259.328 168.974 259.344 169.014 259.376C169.054 259.408 169.078 259.452 169.086 259.508L169.122 259.676C169.13 259.692 169.134 259.72 169.134 259.76C169.134 259.872 169.074 259.94 168.954 259.964C168.666 260.052 168.358 260.096 168.03 260.096C167.51 260.096 167.138 259.98 166.914 259.748C166.698 259.508 166.59 259.164 166.59 258.716V254.684H165.702C165.542 254.684 165.462 254.604 165.462 254.444V254.324C165.462 254.164 165.542 254.084 165.702 254.084H166.59V252.26C166.59 252.1 166.67 252.02 166.83 252.02H167.142C167.302 252.02 167.382 252.1 167.382 252.26V254.084H168.822C168.982 254.084 169.062 254.164 169.062 254.324V254.444C169.062 254.604 168.982 254.684 168.822 254.684H167.382V258.62C167.382 258.916 167.438 259.124 167.55 259.244C167.662 259.364 167.854 259.424 168.126 259.424C168.318 259.424 168.538 259.396 168.786 259.34ZM170.667 252.584C170.507 252.584 170.371 252.528 170.259 252.416C170.155 252.304 170.103 252.168 170.103 252.008C170.103 251.848 170.155 251.716 170.259 251.612C170.371 251.508 170.507 251.456 170.667 251.456C170.835 251.456 170.971 251.508 171.075 251.612C171.187 251.716 171.243 251.848 171.243 252.008C171.243 252.168 171.187 252.304 171.075 252.416C170.971 252.528 170.835 252.584 170.667 252.584ZM170.511 260C170.351 260 170.271 259.92 170.271 259.76V254.324C170.271 254.164 170.351 254.084 170.511 254.084H170.823C170.983 254.084 171.063 254.164 171.063 254.324V259.76C171.063 259.92 170.983 260 170.823 260H170.511ZM174.89 260.156C174.402 260.156 173.97 260.088 173.594 259.952C173.226 259.808 172.838 259.568 172.43 259.232C172.358 259.184 172.322 259.128 172.322 259.064C172.322 259.008 172.35 258.952 172.406 258.896L172.562 258.728C172.61 258.664 172.67 258.632 172.742 258.632C172.798 258.632 172.85 258.656 172.898 258.704C173.282 259 173.622 259.208 173.918 259.328C174.214 259.44 174.538 259.496 174.89 259.496C175.33 259.496 175.69 259.4 175.97 259.208C176.25 259.008 176.39 258.74 176.39 258.404C176.39 258.068 176.246 257.82 175.958 257.66C175.67 257.5 175.226 257.356 174.626 257.228C174.098 257.116 173.682 257 173.378 256.88C173.082 256.752 172.862 256.592 172.718 256.4C172.574 256.208 172.502 255.956 172.502 255.644C172.502 255.132 172.71 254.72 173.126 254.408C173.542 254.096 174.066 253.94 174.698 253.94C175.13 253.94 175.514 253.996 175.85 254.108C176.194 254.212 176.538 254.388 176.882 254.636C176.954 254.692 176.99 254.752 176.99 254.816C176.99 254.856 176.97 254.908 176.93 254.972L176.786 255.152C176.746 255.216 176.69 255.248 176.618 255.248C176.554 255.248 176.498 255.228 176.45 255.188C176.122 254.956 175.83 254.8 175.574 254.72C175.326 254.64 175.042 254.6 174.722 254.6C174.282 254.6 173.93 254.696 173.666 254.888C173.402 255.08 173.27 255.324 173.27 255.62C173.27 255.804 173.33 255.952 173.45 256.064C173.57 256.176 173.742 256.272 173.966 256.352C174.19 256.424 174.518 256.508 174.95 256.604C175.75 256.78 176.318 256.996 176.654 257.252C176.998 257.508 177.17 257.88 177.17 258.368C177.17 258.904 176.958 259.336 176.534 259.664C176.11 259.992 175.562 260.156 174.89 260.156ZM182.817 258.596C182.873 258.54 182.933 258.512 182.997 258.512C183.053 258.512 183.105 258.536 183.153 258.584L183.309 258.728C183.365 258.784 183.393 258.844 183.393 258.908C183.393 258.956 183.369 259.012 183.321 259.076C182.929 259.468 182.549 259.748 182.181 259.916C181.813 260.076 181.401 260.156 180.945 260.156C180.369 260.156 179.869 260.028 179.445 259.772C179.021 259.516 178.693 259.16 178.461 258.704C178.229 258.24 178.113 257.704 178.113 257.096C178.113 256.48 178.225 255.936 178.449 255.464C178.681 254.984 179.005 254.612 179.421 254.348C179.837 254.076 180.317 253.94 180.861 253.94C181.669 253.94 182.305 254.192 182.769 254.696C183.233 255.2 183.465 255.88 183.465 256.736V256.88C183.457 256.952 183.429 257.008 183.381 257.048C183.341 257.088 183.285 257.108 183.213 257.108H178.917C178.941 257.78 179.117 258.348 179.445 258.812C179.781 259.268 180.281 259.496 180.945 259.496C181.305 259.496 181.621 259.432 181.893 259.304C182.173 259.168 182.481 258.932 182.817 258.596ZM180.861 254.6C180.333 254.6 179.897 254.764 179.553 255.092C179.217 255.412 179.013 255.884 178.941 256.508H182.673C182.657 255.924 182.489 255.46 182.169 255.116C181.849 254.772 181.413 254.6 180.861 254.6ZM190.896 253.94C191.536 253.94 192.024 254.124 192.36 254.492C192.704 254.852 192.876 255.316 192.876 255.884V259.76C192.876 259.92 192.796 260 192.636 260H192.324C192.164 260 192.084 259.92 192.084 259.76V256.1C192.084 255.62 191.972 255.252 191.748 254.996C191.532 254.74 191.208 254.612 190.776 254.612C190.32 254.612 189.956 254.764 189.684 255.068C189.412 255.372 189.276 255.764 189.276 256.244V259.76C189.276 259.92 189.196 260 189.036 260H188.724C188.564 260 188.484 259.92 188.484 259.76V256.1C188.484 255.62 188.372 255.252 188.148 254.996C187.932 254.74 187.604 254.612 187.164 254.612C186.756 254.612 186.416 254.74 186.144 254.996C185.88 255.252 185.724 255.588 185.676 256.004V259.76C185.676 259.92 185.596 260 185.436 260H185.124C184.964 260 184.884 259.92 184.884 259.76V254.324C184.884 254.164 184.964 254.084 185.124 254.084H185.388C185.548 254.084 185.628 254.164 185.628 254.324V254.816C185.988 254.232 186.56 253.94 187.344 253.94C187.752 253.94 188.1 254.032 188.388 254.216C188.684 254.392 188.904 254.632 189.048 254.936C189.472 254.272 190.088 253.94 190.896 253.94ZM198.93 258.596C198.986 258.54 199.046 258.512 199.11 258.512C199.166 258.512 199.218 258.536 199.266 258.584L199.422 258.728C199.478 258.784 199.506 258.844 199.506 258.908C199.506 258.956 199.482 259.012 199.434 259.076C199.042 259.468 198.662 259.748 198.294 259.916C197.926 260.076 197.514 260.156 197.058 260.156C196.482 260.156 195.982 260.028 195.558 259.772C195.134 259.516 194.806 259.16 194.574 258.704C194.342 258.24 194.226 257.704 194.226 257.096C194.226 256.48 194.338 255.936 194.562 255.464C194.794 254.984 195.118 254.612 195.534 254.348C195.95 254.076 196.43 253.94 196.974 253.94C197.782 253.94 198.418 254.192 198.882 254.696C199.346 255.2 199.578 255.88 199.578 256.736V256.88C199.57 256.952 199.542 257.008 199.494 257.048C199.454 257.088 199.398 257.108 199.326 257.108H195.03C195.054 257.78 195.23 258.348 195.558 258.812C195.894 259.268 196.394 259.496 197.058 259.496C197.418 259.496 197.734 259.432 198.006 259.304C198.286 259.168 198.594 258.932 198.93 258.596ZM196.974 254.6C196.446 254.6 196.01 254.764 195.666 255.092C195.33 255.412 195.126 255.884 195.054 256.508H198.786C198.77 255.924 198.602 255.46 198.282 255.116C197.962 254.772 197.526 254.6 196.974 254.6ZM203.637 253.94C204.333 253.94 204.857 254.132 205.209 254.516C205.569 254.9 205.749 255.38 205.749 255.956V259.76C205.749 259.92 205.669 260 205.509 260H205.197C205.037 260 204.957 259.92 204.957 259.76V256.22C204.957 255.692 204.829 255.292 204.573 255.02C204.317 254.748 203.949 254.612 203.469 254.612C203.165 254.612 202.885 254.688 202.629 254.84C202.373 254.984 202.169 255.184 202.017 255.44C201.865 255.696 201.789 255.976 201.789 256.28V259.76C201.789 259.92 201.709 260 201.549 260H201.237C201.077 260 200.997 259.92 200.997 259.76V254.324C200.997 254.164 201.077 254.084 201.237 254.084H201.501C201.661 254.084 201.741 254.164 201.741 254.324V254.9C201.941 254.58 202.205 254.34 202.533 254.18C202.861 254.02 203.229 253.94 203.637 253.94ZM210.001 259.34C210.025 259.332 210.057 259.328 210.097 259.328C210.145 259.328 210.189 259.344 210.229 259.376C210.269 259.408 210.293 259.452 210.301 259.508L210.337 259.676C210.345 259.692 210.349 259.72 210.349 259.76C210.349 259.872 210.289 259.94 210.169 259.964C209.881 260.052 209.573 260.096 209.245 260.096C208.725 260.096 208.353 259.98 208.129 259.748C207.913 259.508 207.805 259.164 207.805 258.716V254.684H206.917C206.757 254.684 206.677 254.604 206.677 254.444V254.324C206.677 254.164 206.757 254.084 206.917 254.084H207.805V252.26C207.805 252.1 207.885 252.02 208.045 252.02H208.357C208.517 252.02 208.597 252.1 208.597 252.26V254.084H210.037C210.197 254.084 210.277 254.164 210.277 254.324V254.444C210.277 254.604 210.197 254.684 210.037 254.684H208.597V258.62C208.597 258.916 208.653 259.124 208.765 259.244C208.877 259.364 209.069 259.424 209.341 259.424C209.533 259.424 209.753 259.396 210.001 259.34Z" fill="#464646"/>
</svg>
