<svg width="344" height="168" viewBox="0 0 344 168" fill="none" xmlns="http://www.w3.org/2000/svg">
<rect width="344" height="168" fill="#F5F5F5"/>
<rect x="126" y="71" width="46" height="26" rx="13" fill="#D4D4D4" stroke="#06BEFB" stroke-width="2"/>
<circle cx="139" cy="84" r="8" fill="white"/>
<path d="M180.696 89C180.483 89 180.376 88.8933 180.376 88.68V77.96C180.376 77.7467 180.483 77.64 180.696 77.64H181.192C181.405 77.64 181.512 77.7467 181.512 77.96V88.056H186.616C186.829 88.056 186.936 88.1627 186.936 88.376V88.68C186.936 88.8933 186.829 89 186.616 89H180.696ZM191.74 80.92C192.71 80.92 193.468 81.1547 194.012 81.624C194.556 82.0827 194.828 82.6907 194.828 83.448V88.68C194.828 88.8933 194.721 89 194.508 89H194.188C193.974 89 193.868 88.8933 193.868 88.68V87.96C193.601 88.3867 193.222 88.7067 192.732 88.92C192.252 89.1333 191.713 89.24 191.116 89.24C190.284 89.24 189.606 89.064 189.084 88.712C188.561 88.36 188.3 87.816 188.3 87.08C188.3 86.4933 188.465 86.024 188.796 85.672C189.126 85.3093 189.558 85.0373 190.092 84.856C190.625 84.664 191.292 84.4933 192.092 84.344L193.82 84.04V83.528C193.82 82.984 193.633 82.5627 193.26 82.264C192.886 81.9547 192.396 81.8 191.788 81.8C191.329 81.8 190.913 81.8853 190.54 82.056C190.166 82.2267 189.766 82.52 189.34 82.936C189.265 83.0107 189.185 83.048 189.1 83.048C189.025 83.048 188.956 83.016 188.892 82.952L188.684 82.76C188.609 82.6853 188.572 82.6053 188.572 82.52C188.572 82.424 188.609 82.3387 188.684 82.264C189.132 81.7947 189.601 81.4533 190.092 81.24C190.593 81.0267 191.142 80.92 191.74 80.92ZM191.164 88.36C191.932 88.36 192.566 88.1573 193.068 87.752C193.569 87.3467 193.82 86.8293 193.82 86.2V84.856L192.332 85.144C191.638 85.2827 191.089 85.416 190.684 85.544C190.278 85.672 189.953 85.8587 189.708 86.104C189.462 86.3493 189.34 86.6693 189.34 87.064C189.34 87.4693 189.5 87.7893 189.82 88.024C190.15 88.248 190.598 88.36 191.164 88.36ZM200.944 80.936C201.616 80.936 202.214 81.112 202.736 81.464C203.27 81.8053 203.68 82.2907 203.968 82.92C204.267 83.5387 204.416 84.2533 204.416 85.064C204.416 85.8747 204.267 86.5947 203.968 87.224C203.67 87.8427 203.254 88.328 202.72 88.68C202.198 89.0213 201.606 89.192 200.944 89.192C199.675 89.192 198.747 88.7013 198.16 87.72V88.68C198.16 88.8933 198.054 89 197.84 89H197.488C197.275 89 197.168 88.8933 197.168 88.68V77.944C197.168 77.7307 197.275 77.624 197.488 77.624H197.904C198.118 77.624 198.224 77.7307 198.224 77.944V82.36C198.811 81.4107 199.718 80.936 200.944 80.936ZM200.864 88.296C201.6 88.296 202.192 87.9973 202.64 87.4C203.099 86.8027 203.328 86.024 203.328 85.064C203.328 84.104 203.099 83.3253 202.64 82.728C202.192 82.1307 201.6 81.832 200.864 81.832C200.075 81.832 199.43 82.12 198.928 82.696C198.427 83.272 198.176 84.0613 198.176 85.064C198.176 86.0773 198.422 86.872 198.912 87.448C199.414 88.0133 200.064 88.296 200.864 88.296ZM212.131 87.128C212.206 87.0533 212.286 87.016 212.371 87.016C212.446 87.016 212.515 87.048 212.579 87.112L212.787 87.304C212.862 87.3787 212.899 87.4587 212.899 87.544C212.899 87.608 212.867 87.6827 212.803 87.768C212.28 88.2907 211.774 88.664 211.283 88.888C210.792 89.1013 210.243 89.208 209.635 89.208C208.867 89.208 208.2 89.0373 207.635 88.696C207.07 88.3547 206.632 87.88 206.323 87.272C206.014 86.6533 205.859 85.9387 205.859 85.128C205.859 84.3067 206.008 83.5813 206.307 82.952C206.616 82.312 207.048 81.816 207.603 81.464C208.158 81.1013 208.798 80.92 209.523 80.92C210.6 80.92 211.448 81.256 212.067 81.928C212.686 82.6 212.995 83.5067 212.995 84.648V84.84C212.984 84.936 212.947 85.0107 212.883 85.064C212.83 85.1173 212.755 85.144 212.659 85.144H206.931C206.963 86.04 207.198 86.7973 207.635 87.416C208.083 88.024 208.75 88.328 209.635 88.328C210.115 88.328 210.536 88.2427 210.899 88.072C211.272 87.8907 211.683 87.576 212.131 87.128ZM209.523 81.8C208.819 81.8 208.238 82.0187 207.779 82.456C207.331 82.8827 207.059 83.512 206.963 84.344H211.939C211.918 83.5653 211.694 82.9467 211.267 82.488C210.84 82.0293 210.259 81.8 209.523 81.8ZM215.223 89C215.01 89 214.903 88.8933 214.903 88.68V77.96C214.903 77.7467 215.01 77.64 215.223 77.64H215.639C215.852 77.64 215.959 77.7467 215.959 77.96V88.68C215.959 88.8933 215.852 89 215.639 89H215.223Z" fill="#464646"/>
</svg>
