<svg width="344" height="168" viewBox="0 0 344 168" fill="none" xmlns="http://www.w3.org/2000/svg">
<rect width="344" height="168" fill="#F5F5F5"/>
<rect x="127" y="52" width="44" height="24" rx="12" fill="#E2E8F0"/>
<circle cx="139" cy="64" r="8" fill="#C3CCD9"/>
<rect x="127" y="92" width="44" height="24" rx="12" fill="#E2E8F0"/>
<circle cx="159" cy="104" r="8" fill="#C3CCD9"/>
<path d="M180.696 69C180.483 69 180.376 68.8933 180.376 68.68V57.96C180.376 57.7467 180.483 57.64 180.696 57.64H181.192C181.405 57.64 181.512 57.7467 181.512 57.96V68.056H186.616C186.829 68.056 186.936 68.1627 186.936 68.376V68.68C186.936 68.8933 186.829 69 186.616 69H180.696ZM191.74 60.92C192.71 60.92 193.468 61.1547 194.012 61.624C194.556 62.0827 194.828 62.6907 194.828 63.448V68.68C194.828 68.8933 194.721 69 194.508 69H194.188C193.974 69 193.868 68.8933 193.868 68.68V67.96C193.601 68.3867 193.222 68.7067 192.732 68.92C192.252 69.1333 191.713 69.24 191.116 69.24C190.284 69.24 189.606 69.064 189.084 68.712C188.561 68.36 188.3 67.816 188.3 67.08C188.3 66.4933 188.465 66.024 188.796 65.672C189.126 65.3093 189.558 65.0373 190.092 64.856C190.625 64.664 191.292 64.4933 192.092 64.344L193.82 64.04V63.528C193.82 62.984 193.633 62.5627 193.26 62.264C192.886 61.9547 192.396 61.8 191.788 61.8C191.329 61.8 190.913 61.8853 190.54 62.056C190.166 62.2267 189.766 62.52 189.34 62.936C189.265 63.0107 189.185 63.048 189.1 63.048C189.025 63.048 188.956 63.016 188.892 62.952L188.684 62.76C188.609 62.6853 188.572 62.6053 188.572 62.52C188.572 62.424 188.609 62.3387 188.684 62.264C189.132 61.7947 189.601 61.4533 190.092 61.24C190.593 61.0267 191.142 60.92 191.74 60.92ZM191.164 68.36C191.932 68.36 192.566 68.1573 193.068 67.752C193.569 67.3467 193.82 66.8293 193.82 66.2V64.856L192.332 65.144C191.638 65.2827 191.089 65.416 190.684 65.544C190.278 65.672 189.953 65.8587 189.708 66.104C189.462 66.3493 189.34 66.6693 189.34 67.064C189.34 67.4693 189.5 67.7893 189.82 68.024C190.15 68.248 190.598 68.36 191.164 68.36ZM200.944 60.936C201.616 60.936 202.214 61.112 202.736 61.464C203.27 61.8053 203.68 62.2907 203.968 62.92C204.267 63.5387 204.416 64.2533 204.416 65.064C204.416 65.8747 204.267 66.5947 203.968 67.224C203.67 67.8427 203.254 68.328 202.72 68.68C202.198 69.0213 201.606 69.192 200.944 69.192C199.675 69.192 198.747 68.7013 198.16 67.72V68.68C198.16 68.8933 198.054 69 197.84 69H197.488C197.275 69 197.168 68.8933 197.168 68.68V57.944C197.168 57.7307 197.275 57.624 197.488 57.624H197.904C198.118 57.624 198.224 57.7307 198.224 57.944V62.36C198.811 61.4107 199.718 60.936 200.944 60.936ZM200.864 68.296C201.6 68.296 202.192 67.9973 202.64 67.4C203.099 66.8027 203.328 66.024 203.328 65.064C203.328 64.104 203.099 63.3253 202.64 62.728C202.192 62.1307 201.6 61.832 200.864 61.832C200.075 61.832 199.43 62.12 198.928 62.696C198.427 63.272 198.176 64.0613 198.176 65.064C198.176 66.0773 198.422 66.872 198.912 67.448C199.414 68.0133 200.064 68.296 200.864 68.296ZM212.131 67.128C212.206 67.0533 212.286 67.016 212.371 67.016C212.446 67.016 212.515 67.048 212.579 67.112L212.787 67.304C212.862 67.3787 212.899 67.4587 212.899 67.544C212.899 67.608 212.867 67.6827 212.803 67.768C212.28 68.2907 211.774 68.664 211.283 68.888C210.792 69.1013 210.243 69.208 209.635 69.208C208.867 69.208 208.2 69.0373 207.635 68.696C207.07 68.3547 206.632 67.88 206.323 67.272C206.014 66.6533 205.859 65.9387 205.859 65.128C205.859 64.3067 206.008 63.5813 206.307 62.952C206.616 62.312 207.048 61.816 207.603 61.464C208.158 61.1013 208.798 60.92 209.523 60.92C210.6 60.92 211.448 61.256 212.067 61.928C212.686 62.6 212.995 63.5067 212.995 64.648V64.84C212.984 64.936 212.947 65.0107 212.883 65.064C212.83 65.1173 212.755 65.144 212.659 65.144H206.931C206.963 66.04 207.198 66.7973 207.635 67.416C208.083 68.024 208.75 68.328 209.635 68.328C210.115 68.328 210.536 68.2427 210.899 68.072C211.272 67.8907 211.683 67.576 212.131 67.128ZM209.523 61.8C208.819 61.8 208.238 62.0187 207.779 62.456C207.331 62.8827 207.059 63.512 206.963 64.344H211.939C211.918 63.5653 211.694 62.9467 211.267 62.488C210.84 62.0293 210.259 61.8 209.523 61.8ZM215.223 69C215.01 69 214.903 68.8933 214.903 68.68V57.96C214.903 57.7467 215.01 57.64 215.223 57.64H215.639C215.852 57.64 215.959 57.7467 215.959 57.96V68.68C215.959 68.8933 215.852 69 215.639 69H215.223Z" fill="#C3CCD9"/>
<path d="M180.696 109C180.483 109 180.376 108.893 180.376 108.68V97.96C180.376 97.7467 180.483 97.64 180.696 97.64H181.192C181.405 97.64 181.512 97.7467 181.512 97.96V108.056H186.616C186.829 108.056 186.936 108.163 186.936 108.376V108.68C186.936 108.893 186.829 109 186.616 109H180.696ZM191.74 100.92C192.71 100.92 193.468 101.155 194.012 101.624C194.556 102.083 194.828 102.691 194.828 103.448V108.68C194.828 108.893 194.721 109 194.508 109H194.188C193.974 109 193.868 108.893 193.868 108.68V107.96C193.601 108.387 193.222 108.707 192.732 108.92C192.252 109.133 191.713 109.24 191.116 109.24C190.284 109.24 189.606 109.064 189.084 108.712C188.561 108.36 188.3 107.816 188.3 107.08C188.3 106.493 188.465 106.024 188.796 105.672C189.126 105.309 189.558 105.037 190.092 104.856C190.625 104.664 191.292 104.493 192.092 104.344L193.82 104.04V103.528C193.82 102.984 193.633 102.563 193.26 102.264C192.886 101.955 192.396 101.8 191.788 101.8C191.329 101.8 190.913 101.885 190.54 102.056C190.166 102.227 189.766 102.52 189.34 102.936C189.265 103.011 189.185 103.048 189.1 103.048C189.025 103.048 188.956 103.016 188.892 102.952L188.684 102.76C188.609 102.685 188.572 102.605 188.572 102.52C188.572 102.424 188.609 102.339 188.684 102.264C189.132 101.795 189.601 101.453 190.092 101.24C190.593 101.027 191.142 100.92 191.74 100.92ZM191.164 108.36C191.932 108.36 192.566 108.157 193.068 107.752C193.569 107.347 193.82 106.829 193.82 106.2V104.856L192.332 105.144C191.638 105.283 191.089 105.416 190.684 105.544C190.278 105.672 189.953 105.859 189.708 106.104C189.462 106.349 189.34 106.669 189.34 107.064C189.34 107.469 189.5 107.789 189.82 108.024C190.15 108.248 190.598 108.36 191.164 108.36ZM200.944 100.936C201.616 100.936 202.214 101.112 202.736 101.464C203.27 101.805 203.68 102.291 203.968 102.92C204.267 103.539 204.416 104.253 204.416 105.064C204.416 105.875 204.267 106.595 203.968 107.224C203.67 107.843 203.254 108.328 202.72 108.68C202.198 109.021 201.606 109.192 200.944 109.192C199.675 109.192 198.747 108.701 198.16 107.72V108.68C198.16 108.893 198.054 109 197.84 109H197.488C197.275 109 197.168 108.893 197.168 108.68V97.944C197.168 97.7307 197.275 97.624 197.488 97.624H197.904C198.118 97.624 198.224 97.7307 198.224 97.944V102.36C198.811 101.411 199.718 100.936 200.944 100.936ZM200.864 108.296C201.6 108.296 202.192 107.997 202.64 107.4C203.099 106.803 203.328 106.024 203.328 105.064C203.328 104.104 203.099 103.325 202.64 102.728C202.192 102.131 201.6 101.832 200.864 101.832C200.075 101.832 199.43 102.12 198.928 102.696C198.427 103.272 198.176 104.061 198.176 105.064C198.176 106.077 198.422 106.872 198.912 107.448C199.414 108.013 200.064 108.296 200.864 108.296ZM212.131 107.128C212.206 107.053 212.286 107.016 212.371 107.016C212.446 107.016 212.515 107.048 212.579 107.112L212.787 107.304C212.862 107.379 212.899 107.459 212.899 107.544C212.899 107.608 212.867 107.683 212.803 107.768C212.28 108.291 211.774 108.664 211.283 108.888C210.792 109.101 210.243 109.208 209.635 109.208C208.867 109.208 208.2 109.037 207.635 108.696C207.07 108.355 206.632 107.88 206.323 107.272C206.014 106.653 205.859 105.939 205.859 105.128C205.859 104.307 206.008 103.581 206.307 102.952C206.616 102.312 207.048 101.816 207.603 101.464C208.158 101.101 208.798 100.92 209.523 100.92C210.6 100.92 211.448 101.256 212.067 101.928C212.686 102.6 212.995 103.507 212.995 104.648V104.84C212.984 104.936 212.947 105.011 212.883 105.064C212.83 105.117 212.755 105.144 212.659 105.144H206.931C206.963 106.04 207.198 106.797 207.635 107.416C208.083 108.024 208.75 108.328 209.635 108.328C210.115 108.328 210.536 108.243 210.899 108.072C211.272 107.891 211.683 107.576 212.131 107.128ZM209.523 101.8C208.819 101.8 208.238 102.019 207.779 102.456C207.331 102.883 207.059 103.512 206.963 104.344H211.939C211.918 103.565 211.694 102.947 211.267 102.488C210.84 102.029 210.259 101.8 209.523 101.8ZM215.223 109C215.01 109 214.903 108.893 214.903 108.68V97.96C214.903 97.7467 215.01 97.64 215.223 97.64H215.639C215.852 97.64 215.959 97.7467 215.959 97.96V108.68C215.959 108.893 215.852 109 215.639 109H215.223Z" fill="#C3CCD9"/>
</svg>
