<svg width="344" height="166" viewBox="0 0 344 166" fill="none" xmlns="http://www.w3.org/2000/svg">
<rect width="344" height="166" fill="#F5F5F5"/>
<rect x="93" y="72" width="44" height="24" rx="12" fill="#0063FB"/>
<circle cx="125" cy="84" r="8" fill="white"/>
<path d="M158.056 77.912C158.109 77.7307 158.227 77.64 158.408 77.64H158.872C158.979 77.64 159.059 77.672 159.112 77.736C159.165 77.8 159.181 77.8853 159.16 77.992L156.568 88.728C156.515 88.9093 156.397 89 156.216 89H155.336C155.133 89 155.011 88.9093 154.968 88.728L153.512 83.368C153.053 81.6507 152.685 80.2107 152.408 79.048C152.109 80.36 151.747 81.8053 151.32 83.384L149.864 88.728C149.821 88.9093 149.699 89 149.496 89H148.568C148.387 89 148.269 88.9093 148.216 88.728L145.624 77.992L145.608 77.896C145.608 77.7253 145.709 77.64 145.912 77.64H146.408C146.589 77.64 146.707 77.7307 146.76 77.912L148.056 83.368C148.408 84.8507 148.749 86.3867 149.08 87.976C149.485 86.28 149.88 84.744 150.264 83.368L151.768 77.912C151.811 77.7307 151.933 77.64 152.136 77.64H152.744C152.947 77.64 153.069 77.7307 153.112 77.912L154.584 83.368C155 84.8933 155.389 86.4187 155.752 87.944C156.029 86.536 156.365 85.0107 156.76 83.368L158.056 77.912ZM161.493 79.112C161.28 79.112 161.099 79.0373 160.949 78.888C160.811 78.7387 160.741 78.5573 160.741 78.344C160.741 78.1307 160.811 77.9547 160.949 77.816C161.099 77.6773 161.28 77.608 161.493 77.608C161.717 77.608 161.899 77.6773 162.037 77.816C162.187 77.9547 162.261 78.1307 162.261 78.344C162.261 78.5573 162.187 78.7387 162.037 78.888C161.899 79.0373 161.717 79.112 161.493 79.112ZM161.285 89C161.072 89 160.965 88.8933 160.965 88.68V81.432C160.965 81.2187 161.072 81.112 161.285 81.112H161.701C161.915 81.112 162.021 81.2187 162.021 81.432V88.68C162.021 88.8933 161.915 89 161.701 89H161.285ZM167.38 78.328C166.9 78.328 166.558 78.456 166.356 78.712C166.153 78.9573 166.052 79.3733 166.052 79.96V81.112H167.812C168.025 81.112 168.132 81.2187 168.132 81.432V81.592C168.132 81.8053 168.025 81.912 167.812 81.912H166.052V88.68C166.052 88.8933 165.945 89 165.732 89H165.316C165.102 89 164.996 88.8933 164.996 88.68V81.912H163.812C163.598 81.912 163.492 81.8053 163.492 81.592V81.432C163.492 81.2187 163.598 81.112 163.812 81.112H164.996V79.784C164.996 79.048 165.188 78.472 165.572 78.056C165.966 77.64 166.526 77.432 167.252 77.432C167.657 77.432 168.073 77.4907 168.5 77.608C168.702 77.672 168.777 77.8053 168.724 78.008L168.66 78.232C168.606 78.3813 168.5 78.456 168.34 78.456C168.308 78.456 168.238 78.4453 168.132 78.424C167.897 78.36 167.646 78.328 167.38 78.328ZM170.212 79.112C169.999 79.112 169.817 79.0373 169.668 78.888C169.529 78.7387 169.46 78.5573 169.46 78.344C169.46 78.1307 169.529 77.9547 169.668 77.816C169.817 77.6773 169.999 77.608 170.212 77.608C170.436 77.608 170.617 77.6773 170.756 77.816C170.905 77.9547 170.98 78.1307 170.98 78.344C170.98 78.5573 170.905 78.7387 170.756 78.888C170.617 79.0373 170.436 79.112 170.212 79.112ZM170.004 89C169.791 89 169.684 88.8933 169.684 88.68V81.432C169.684 81.2187 169.791 81.112 170.004 81.112H170.42C170.633 81.112 170.74 81.2187 170.74 81.432V88.68C170.74 88.8933 170.633 89 170.42 89H170.004Z" fill="#464646"/>
</svg>
