<svg width="344" height="168" viewBox="0 0 344 168" fill="none" xmlns="http://www.w3.org/2000/svg">
<rect width="344" height="168" fill="#F5F5F5"/>
<rect x="93" y="72" width="44" height="24" rx="12" fill="#0063FB"/>
<circle cx="125" cy="84" r="8" fill="white"/>
<path d="M155.2 89C155.019 89 154.896 88.9147 154.832 88.744L153.776 85.816H148.608L147.568 88.744C147.504 88.9147 147.381 89 147.2 89H146.704C146.619 89 146.549 88.9787 146.496 88.936C146.443 88.8933 146.416 88.8347 146.416 88.76L146.448 88.632L150.368 77.896C150.432 77.7253 150.555 77.64 150.736 77.64H151.664C151.845 77.64 151.968 77.7253 152.032 77.896L155.952 88.632L155.984 88.76C155.984 88.8347 155.957 88.8933 155.904 88.936C155.851 88.9787 155.781 89 155.696 89H155.2ZM153.424 84.856L152.864 83.288L152.736 82.952C152.587 82.5467 152.341 81.8693 152 80.92C151.669 79.9707 151.397 79.1653 151.184 78.504C150.896 79.4107 150.443 80.728 149.824 82.456C149.781 82.5733 149.733 82.7013 149.68 82.84C149.627 82.9787 149.573 83.128 149.52 83.288L148.96 84.856H153.424ZM163.223 81.432C163.223 81.2187 163.33 81.112 163.543 81.112H163.879C164.092 81.112 164.199 81.2187 164.199 81.432V88.92C164.199 89.912 163.9 90.6907 163.303 91.256C162.706 91.832 161.868 92.12 160.791 92.12C159.628 92.12 158.556 91.7893 157.575 91.128C157.468 91.064 157.415 90.984 157.415 90.888C157.415 90.8133 157.436 90.7493 157.479 90.696L157.671 90.424C157.735 90.3173 157.82 90.264 157.927 90.264C157.97 90.264 158.034 90.2853 158.119 90.328C158.588 90.6267 159.026 90.8507 159.431 91C159.847 91.1493 160.3 91.224 160.791 91.224C161.495 91.224 162.066 91.0267 162.503 90.632C162.94 90.248 163.159 89.6507 163.159 88.84V87.56C162.583 88.488 161.708 88.952 160.535 88.952C159.852 88.952 159.25 88.7813 158.727 88.44C158.204 88.088 157.799 87.608 157.511 87C157.234 86.392 157.095 85.704 157.095 84.936C157.095 84.168 157.234 83.48 157.511 82.872C157.799 82.264 158.204 81.7893 158.727 81.448C159.25 81.096 159.852 80.92 160.535 80.92C161.154 80.92 161.687 81.0533 162.135 81.32C162.594 81.576 162.956 81.944 163.223 82.424V81.432ZM160.647 88.056C161.415 88.056 162.028 87.768 162.487 87.192C162.946 86.6053 163.175 85.8533 163.175 84.936C163.175 84.0187 162.946 83.272 162.487 82.696C162.028 82.1093 161.415 81.816 160.647 81.816C159.868 81.816 159.26 82.104 158.823 82.68C158.396 83.256 158.183 84.008 158.183 84.936C158.183 85.864 158.396 86.616 158.823 87.192C159.26 87.768 159.868 88.056 160.647 88.056ZM169.519 81.048C169.785 81.048 170.1 81.0907 170.463 81.176C170.655 81.24 170.729 81.3733 170.687 81.576L170.623 81.832C170.569 82.0347 170.436 82.1093 170.223 82.056C169.967 81.992 169.732 81.96 169.519 81.96C168.975 81.96 168.521 82.1947 168.159 82.664C167.807 83.1333 167.631 83.784 167.631 84.616V88.68C167.631 88.8933 167.524 89 167.311 89H166.895C166.681 89 166.575 88.8933 166.575 88.68V81.432C166.575 81.2187 166.681 81.112 166.895 81.112H167.247C167.46 81.112 167.567 81.2187 167.567 81.432V82.312C167.748 81.9173 168.004 81.608 168.335 81.384C168.676 81.16 169.071 81.048 169.519 81.048ZM177.428 87.128C177.503 87.0533 177.583 87.016 177.668 87.016C177.743 87.016 177.812 87.048 177.876 87.112L178.084 87.304C178.159 87.3787 178.196 87.4587 178.196 87.544C178.196 87.608 178.164 87.6827 178.1 87.768C177.577 88.2907 177.071 88.664 176.58 88.888C176.089 89.1013 175.54 89.208 174.932 89.208C174.164 89.208 173.497 89.0373 172.932 88.696C172.367 88.3547 171.929 87.88 171.62 87.272C171.311 86.6533 171.156 85.9387 171.156 85.128C171.156 84.3067 171.305 83.5813 171.604 82.952C171.913 82.312 172.345 81.816 172.9 81.464C173.455 81.1013 174.095 80.92 174.82 80.92C175.897 80.92 176.745 81.256 177.364 81.928C177.983 82.6 178.292 83.5067 178.292 84.648V84.84C178.281 84.936 178.244 85.0107 178.18 85.064C178.127 85.1173 178.052 85.144 177.956 85.144H172.228C172.26 86.04 172.495 86.7973 172.932 87.416C173.38 88.024 174.047 88.328 174.932 88.328C175.412 88.328 175.833 88.2427 176.196 88.072C176.569 87.8907 176.98 87.576 177.428 87.128ZM174.82 81.8C174.116 81.8 173.535 82.0187 173.076 82.456C172.628 82.8827 172.356 83.512 172.26 84.344H177.236C177.215 83.5653 176.991 82.9467 176.564 82.488C176.137 82.0293 175.556 81.8 174.82 81.8ZM185.944 87.128C186.018 87.0533 186.098 87.016 186.184 87.016C186.258 87.016 186.328 87.048 186.392 87.112L186.6 87.304C186.674 87.3787 186.712 87.4587 186.712 87.544C186.712 87.608 186.68 87.6827 186.616 87.768C186.093 88.2907 185.586 88.664 185.096 88.888C184.605 89.1013 184.056 89.208 183.448 89.208C182.68 89.208 182.013 89.0373 181.448 88.696C180.882 88.3547 180.445 87.88 180.136 87.272C179.826 86.6533 179.672 85.9387 179.672 85.128C179.672 84.3067 179.821 83.5813 180.12 82.952C180.429 82.312 180.861 81.816 181.416 81.464C181.97 81.1013 182.61 80.92 183.336 80.92C184.413 80.92 185.261 81.256 185.88 81.928C186.498 82.6 186.808 83.5067 186.808 84.648V84.84C186.797 84.936 186.76 85.0107 186.696 85.064C186.642 85.1173 186.568 85.144 186.472 85.144H180.744C180.776 86.04 181.01 86.7973 181.448 87.416C181.896 88.024 182.562 88.328 183.448 88.328C183.928 88.328 184.349 88.2427 184.712 88.072C185.085 87.8907 185.496 87.576 185.944 87.128ZM183.336 81.8C182.632 81.8 182.05 82.0187 181.592 82.456C181.144 82.8827 180.872 83.512 180.776 84.344H185.752C185.73 83.5653 185.506 82.9467 185.08 82.488C184.653 82.0293 184.072 81.8 183.336 81.8ZM195.939 88.12C195.971 88.1093 196.014 88.104 196.067 88.104C196.131 88.104 196.19 88.1253 196.243 88.168C196.296 88.2107 196.328 88.2693 196.339 88.344L196.387 88.568C196.398 88.5893 196.403 88.6267 196.403 88.68C196.403 88.8293 196.323 88.92 196.163 88.952C195.779 89.0693 195.368 89.128 194.931 89.128C194.238 89.128 193.742 88.9733 193.443 88.664C193.155 88.344 193.011 87.8853 193.011 87.288V81.912H191.827C191.614 81.912 191.507 81.8053 191.507 81.592V81.432C191.507 81.2187 191.614 81.112 191.827 81.112H193.011V78.68C193.011 78.4667 193.118 78.36 193.331 78.36H193.747C193.96 78.36 194.067 78.4667 194.067 78.68V81.112H195.987C196.2 81.112 196.307 81.2187 196.307 81.432V81.592C196.307 81.8053 196.2 81.912 195.987 81.912H194.067V87.16C194.067 87.5547 194.142 87.832 194.291 87.992C194.44 88.152 194.696 88.232 195.059 88.232C195.315 88.232 195.608 88.1947 195.939 88.12ZM200.886 89.208C200.15 89.208 199.494 89.032 198.918 88.68C198.342 88.328 197.894 87.8427 197.574 87.224C197.254 86.5947 197.094 85.8747 197.094 85.064C197.094 84.2533 197.254 83.5387 197.574 82.92C197.894 82.2907 198.342 81.8 198.918 81.448C199.494 81.096 200.15 80.92 200.886 80.92C201.622 80.92 202.278 81.096 202.854 81.448C203.43 81.8 203.878 82.2907 204.198 82.92C204.518 83.5387 204.678 84.2533 204.678 85.064C204.678 85.8747 204.518 86.5947 204.198 87.224C203.878 87.8427 203.43 88.328 202.854 88.68C202.278 89.032 201.622 89.208 200.886 89.208ZM200.886 88.328C201.707 88.328 202.363 88.0293 202.854 87.432C203.344 86.824 203.59 86.0347 203.59 85.064C203.59 84.0933 203.344 83.3093 202.854 82.712C202.363 82.104 201.707 81.8 200.886 81.8C200.064 81.8 199.408 82.104 198.918 82.712C198.427 83.3093 198.182 84.0933 198.182 85.064C198.182 86.0347 198.427 86.824 198.918 87.432C199.408 88.0293 200.064 88.328 200.886 88.328ZM213.752 88.12C213.784 88.1093 213.826 88.104 213.88 88.104C213.944 88.104 214.002 88.1253 214.056 88.168C214.109 88.2107 214.141 88.2693 214.152 88.344L214.2 88.568C214.21 88.5893 214.216 88.6267 214.216 88.68C214.216 88.8293 214.136 88.92 213.976 88.952C213.592 89.0693 213.181 89.128 212.744 89.128C212.05 89.128 211.554 88.9733 211.256 88.664C210.968 88.344 210.824 87.8853 210.824 87.288V81.912H209.64C209.426 81.912 209.32 81.8053 209.32 81.592V81.432C209.32 81.2187 209.426 81.112 209.64 81.112H210.824V78.68C210.824 78.4667 210.93 78.36 211.144 78.36H211.56C211.773 78.36 211.88 78.4667 211.88 78.68V81.112H213.8C214.013 81.112 214.12 81.2187 214.12 81.432V81.592C214.12 81.8053 214.013 81.912 213.8 81.912H211.88V87.16C211.88 87.5547 211.954 87.832 212.104 87.992C212.253 88.152 212.509 88.232 212.872 88.232C213.128 88.232 213.421 88.1947 213.752 88.12ZM221.178 87.128C221.253 87.0533 221.333 87.016 221.418 87.016C221.493 87.016 221.562 87.048 221.626 87.112L221.834 87.304C221.909 87.3787 221.946 87.4587 221.946 87.544C221.946 87.608 221.914 87.6827 221.85 87.768C221.327 88.2907 220.821 88.664 220.33 88.888C219.839 89.1013 219.29 89.208 218.682 89.208C217.914 89.208 217.247 89.0373 216.682 88.696C216.117 88.3547 215.679 87.88 215.37 87.272C215.061 86.6533 214.906 85.9387 214.906 85.128C214.906 84.3067 215.055 83.5813 215.354 82.952C215.663 82.312 216.095 81.816 216.65 81.464C217.205 81.1013 217.845 80.92 218.57 80.92C219.647 80.92 220.495 81.256 221.114 81.928C221.733 82.6 222.042 83.5067 222.042 84.648V84.84C222.031 84.936 221.994 85.0107 221.93 85.064C221.877 85.1173 221.802 85.144 221.706 85.144H215.978C216.01 86.04 216.245 86.7973 216.682 87.416C217.13 88.024 217.797 88.328 218.682 88.328C219.162 88.328 219.583 88.2427 219.946 88.072C220.319 87.8907 220.73 87.576 221.178 87.128ZM218.57 81.8C217.866 81.8 217.285 82.0187 216.826 82.456C216.378 82.8827 216.106 83.512 216.01 84.344H220.986C220.965 83.5653 220.741 82.9467 220.314 82.488C219.887 82.0293 219.306 81.8 218.57 81.8ZM226.878 81.048C227.145 81.048 227.459 81.0907 227.822 81.176C228.014 81.24 228.089 81.3733 228.046 81.576L227.982 81.832C227.929 82.0347 227.795 82.1093 227.582 82.056C227.326 81.992 227.091 81.96 226.878 81.96C226.334 81.96 225.881 82.1947 225.518 82.664C225.166 83.1333 224.99 83.784 224.99 84.616V88.68C224.99 88.8933 224.883 89 224.67 89H224.254C224.041 89 223.934 88.8933 223.934 88.68V81.432C223.934 81.2187 224.041 81.112 224.254 81.112H224.606C224.819 81.112 224.926 81.2187 224.926 81.432V82.312C225.107 81.9173 225.363 81.608 225.694 81.384C226.035 81.16 226.43 81.048 226.878 81.048ZM237.497 80.92C238.35 80.92 239.001 81.1653 239.449 81.656C239.908 82.136 240.137 82.7547 240.137 83.512V88.68C240.137 88.8933 240.03 89 239.817 89H239.401C239.188 89 239.081 88.8933 239.081 88.68V83.8C239.081 83.16 238.932 82.6693 238.633 82.328C238.345 81.9867 237.913 81.816 237.337 81.816C236.729 81.816 236.244 82.0187 235.881 82.424C235.518 82.8293 235.337 83.352 235.337 83.992V88.68C235.337 88.8933 235.23 89 235.017 89H234.601C234.388 89 234.281 88.8933 234.281 88.68V83.8C234.281 83.16 234.132 82.6693 233.833 82.328C233.545 81.9867 233.108 81.816 232.521 81.816C231.977 81.816 231.524 81.9867 231.161 82.328C230.809 82.6693 230.601 83.1173 230.537 83.672V88.68C230.537 88.8933 230.43 89 230.217 89H229.801C229.588 89 229.481 88.8933 229.481 88.68V81.432C229.481 81.2187 229.588 81.112 229.801 81.112H230.153C230.366 81.112 230.473 81.2187 230.473 81.432V82.088C230.953 81.3093 231.716 80.92 232.761 80.92C233.305 80.92 233.769 81.0427 234.153 81.288C234.548 81.5227 234.841 81.8427 235.033 82.248C235.598 81.3627 236.42 80.92 237.497 80.92ZM245.217 89.208C244.567 89.208 243.991 89.1173 243.489 88.936C242.999 88.744 242.481 88.424 241.937 87.976C241.841 87.912 241.793 87.8373 241.793 87.752C241.793 87.6773 241.831 87.6027 241.905 87.528L242.113 87.304C242.177 87.2187 242.257 87.176 242.353 87.176C242.428 87.176 242.497 87.208 242.561 87.272C243.073 87.6667 243.527 87.944 243.921 88.104C244.316 88.2533 244.748 88.328 245.217 88.328C245.804 88.328 246.284 88.2 246.657 87.944C247.031 87.6773 247.217 87.32 247.217 86.872C247.217 86.424 247.025 86.0933 246.641 85.88C246.257 85.6667 245.665 85.4747 244.865 85.304C244.161 85.1547 243.607 85 243.201 84.84C242.807 84.6693 242.513 84.456 242.321 84.2C242.129 83.944 242.033 83.608 242.033 83.192C242.033 82.5093 242.311 81.96 242.865 81.544C243.42 81.128 244.119 80.92 244.961 80.92C245.537 80.92 246.049 80.9947 246.497 81.144C246.956 81.2827 247.415 81.5173 247.873 81.848C247.969 81.9227 248.017 82.0027 248.017 82.088C248.017 82.1413 247.991 82.2107 247.937 82.296L247.745 82.536C247.692 82.6213 247.617 82.664 247.521 82.664C247.436 82.664 247.361 82.6373 247.297 82.584C246.86 82.2747 246.471 82.0667 246.129 81.96C245.799 81.8533 245.42 81.8 244.993 81.8C244.407 81.8 243.937 81.928 243.585 82.184C243.233 82.44 243.057 82.7653 243.057 83.16C243.057 83.4053 243.137 83.6027 243.297 83.752C243.457 83.9013 243.687 84.0293 243.985 84.136C244.284 84.232 244.721 84.344 245.297 84.472C246.364 84.7067 247.121 84.9947 247.569 85.336C248.028 85.6773 248.257 86.1733 248.257 86.824C248.257 87.5387 247.975 88.1147 247.409 88.552C246.844 88.9893 246.113 89.208 245.217 89.208Z" fill="#464646"/>
</svg>
