<svg width="344" height="168" viewBox="0 0 344 168" fill="none" xmlns="http://www.w3.org/2000/svg">
<rect width="344" height="168" fill="#F5F5F5"/>
<rect x="70" y="68" width="44" height="24" rx="12" fill="#D4D4D4"/>
<circle cx="82" cy="80" r="8" fill="white"/>
<rect x="212" y="68" width="44" height="24" rx="12" fill="#D4D4D4"/>
<circle cx="224" cy="80" r="8" fill="white"/>
<rect x="70" y="108" width="44" height="24" rx="12" fill="#0063FB"/>
<circle cx="102" cy="120" r="8" fill="white"/>
<rect x="212" y="108" width="44" height="24" rx="12" fill="#0063FB"/>
<circle cx="244" cy="120" r="8" fill="white"/>
<path d="M81.792 39.684C81.832 39.548 81.92 39.48 82.056 39.48H82.404C82.484 39.48 82.544 39.504 82.584 39.552C82.624 39.6 82.636 39.664 82.62 39.744L80.676 47.796C80.636 47.932 80.548 48 80.412 48H79.752C79.6 48 79.508 47.932 79.476 47.796L78.384 43.776C78.04 42.488 77.764 41.408 77.556 40.536C77.332 41.52 77.06 42.604 76.74 43.788L75.648 47.796C75.616 47.932 75.524 48 75.372 48H74.676C74.54 48 74.452 47.932 74.412 47.796L72.468 39.744L72.456 39.672C72.456 39.544 72.532 39.48 72.684 39.48H73.056C73.192 39.48 73.28 39.548 73.32 39.684L74.292 43.776C74.556 44.888 74.812 46.04 75.06 47.232C75.364 45.96 75.66 44.808 75.948 43.776L77.076 39.684C77.108 39.548 77.2 39.48 77.352 39.48H77.808C77.96 39.48 78.052 39.548 78.084 39.684L79.188 43.776C79.5 44.92 79.792 46.064 80.064 47.208C80.272 46.152 80.524 45.008 80.82 43.776L81.792 39.684ZM84.3699 40.584C84.2099 40.584 84.0739 40.528 83.9619 40.416C83.8579 40.304 83.8059 40.168 83.8059 40.008C83.8059 39.848 83.8579 39.716 83.9619 39.612C84.0739 39.508 84.2099 39.456 84.3699 39.456C84.5379 39.456 84.6739 39.508 84.7779 39.612C84.8899 39.716 84.9459 39.848 84.9459 40.008C84.9459 40.168 84.8899 40.304 84.7779 40.416C84.6739 40.528 84.5379 40.584 84.3699 40.584ZM84.2139 48C84.0539 48 83.9739 47.92 83.9739 47.76V42.324C83.9739 42.164 84.0539 42.084 84.2139 42.084H84.5259C84.6859 42.084 84.7659 42.164 84.7659 42.324V47.76C84.7659 47.92 84.6859 48 84.5259 48H84.2139ZM89.1926 47.34C89.2166 47.332 89.2486 47.328 89.2886 47.328C89.3366 47.328 89.3806 47.344 89.4206 47.376C89.4606 47.408 89.4846 47.452 89.4926 47.508L89.5286 47.676C89.5366 47.692 89.5406 47.72 89.5406 47.76C89.5406 47.872 89.4806 47.94 89.3606 47.964C89.0726 48.052 88.7646 48.096 88.4366 48.096C87.9166 48.096 87.5446 47.98 87.3206 47.748C87.1046 47.508 86.9966 47.164 86.9966 46.716V42.684H86.1086C85.9486 42.684 85.8686 42.604 85.8686 42.444V42.324C85.8686 42.164 85.9486 42.084 86.1086 42.084H86.9966V40.26C86.9966 40.1 87.0766 40.02 87.2366 40.02H87.5486C87.7086 40.02 87.7886 40.1 87.7886 40.26V42.084H89.2286C89.3886 42.084 89.4686 42.164 89.4686 42.324V42.444C89.4686 42.604 89.3886 42.684 89.2286 42.684H87.7886V46.62C87.7886 46.916 87.8446 47.124 87.9566 47.244C88.0686 47.364 88.2606 47.424 88.5326 47.424C88.7246 47.424 88.9446 47.396 89.1926 47.34ZM93.3171 41.94C94.0051 41.94 94.5291 42.136 94.8891 42.528C95.2491 42.912 95.4291 43.388 95.4291 43.956V47.76C95.4291 47.92 95.3491 48 95.1891 48H94.8771C94.7171 48 94.6371 47.92 94.6371 47.76V44.22C94.6371 43.692 94.5091 43.292 94.2531 43.02C93.9971 42.748 93.6291 42.612 93.1491 42.612C92.8451 42.612 92.5651 42.688 92.3091 42.84C92.0531 42.984 91.8491 43.184 91.6971 43.44C91.5451 43.696 91.4691 43.976 91.4691 44.28V47.76C91.4691 47.92 91.3891 48 91.2291 48H90.9171C90.7571 48 90.6771 47.92 90.6771 47.76V39.72C90.6771 39.56 90.7571 39.48 90.9171 39.48H91.2291C91.3891 39.48 91.4691 39.56 91.4691 39.72V42.852C91.6611 42.548 91.9171 42.32 92.2371 42.168C92.5651 42.016 92.9251 41.94 93.3171 41.94ZM100.199 48C100.039 48 99.9586 47.92 99.9586 47.76V39.72C99.9586 39.56 100.039 39.48 100.199 39.48H100.511C100.671 39.48 100.751 39.56 100.751 39.72V47.76C100.751 47.92 100.671 48 100.511 48H100.199ZM104.816 41.94C105.544 41.94 106.112 42.116 106.52 42.468C106.928 42.812 107.132 43.268 107.132 43.836V47.76C107.132 47.92 107.052 48 106.892 48H106.652C106.492 48 106.412 47.92 106.412 47.76V47.22C106.212 47.54 105.928 47.78 105.56 47.94C105.2 48.1 104.796 48.18 104.348 48.18C103.724 48.18 103.216 48.048 102.824 47.784C102.432 47.52 102.236 47.112 102.236 46.56C102.236 46.12 102.36 45.768 102.608 45.504C102.856 45.232 103.18 45.028 103.58 44.892C103.98 44.748 104.48 44.62 105.08 44.508L106.376 44.28V43.896C106.376 43.488 106.236 43.172 105.956 42.948C105.676 42.716 105.308 42.6 104.852 42.6C104.508 42.6 104.196 42.664 103.916 42.792C103.636 42.92 103.336 43.14 103.016 43.452C102.96 43.508 102.9 43.536 102.836 43.536C102.78 43.536 102.728 43.512 102.68 43.464L102.524 43.32C102.468 43.264 102.44 43.204 102.44 43.14C102.44 43.068 102.468 43.004 102.524 42.948C102.86 42.596 103.212 42.34 103.58 42.18C103.956 42.02 104.368 41.94 104.816 41.94ZM104.384 47.52C104.96 47.52 105.436 47.368 105.812 47.064C106.188 46.76 106.376 46.372 106.376 45.9V44.892L105.26 45.108C104.74 45.212 104.328 45.312 104.024 45.408C103.72 45.504 103.476 45.644 103.292 45.828C103.108 46.012 103.016 46.252 103.016 46.548C103.016 46.852 103.136 47.092 103.376 47.268C103.624 47.436 103.96 47.52 104.384 47.52ZM111.72 41.952C112.224 41.952 112.672 42.084 113.064 42.348C113.464 42.604 113.772 42.968 113.988 43.44C114.212 43.904 114.324 44.44 114.324 45.048C114.324 45.656 114.212 46.196 113.988 46.668C113.764 47.132 113.452 47.496 113.052 47.76C112.66 48.016 112.216 48.144 111.72 48.144C110.768 48.144 110.072 47.776 109.632 47.04V47.76C109.632 47.92 109.552 48 109.392 48H109.128C108.968 48 108.888 47.92 108.888 47.76V39.708C108.888 39.548 108.968 39.468 109.128 39.468H109.44C109.6 39.468 109.68 39.548 109.68 39.708V43.02C110.12 42.308 110.8 41.952 111.72 41.952ZM111.66 47.472C112.212 47.472 112.656 47.248 112.992 46.8C113.336 46.352 113.508 45.768 113.508 45.048C113.508 44.328 113.336 43.744 112.992 43.296C112.656 42.848 112.212 42.624 111.66 42.624C111.068 42.624 110.584 42.84 110.208 43.272C109.832 43.704 109.644 44.296 109.644 45.048C109.644 45.808 109.828 46.404 110.196 46.836C110.572 47.26 111.06 47.472 111.66 47.472ZM120.11 46.596C120.166 46.54 120.226 46.512 120.29 46.512C120.346 46.512 120.398 46.536 120.446 46.584L120.602 46.728C120.658 46.784 120.686 46.844 120.686 46.908C120.686 46.956 120.662 47.012 120.614 47.076C120.222 47.468 119.842 47.748 119.474 47.916C119.106 48.076 118.694 48.156 118.238 48.156C117.662 48.156 117.162 48.028 116.738 47.772C116.314 47.516 115.986 47.16 115.754 46.704C115.522 46.24 115.406 45.704 115.406 45.096C115.406 44.48 115.518 43.936 115.742 43.464C115.974 42.984 116.298 42.612 116.714 42.348C117.13 42.076 117.61 41.94 118.154 41.94C118.962 41.94 119.598 42.192 120.062 42.696C120.526 43.2 120.758 43.88 120.758 44.736V44.88C120.75 44.952 120.722 45.008 120.674 45.048C120.634 45.088 120.578 45.108 120.506 45.108H116.21C116.234 45.78 116.41 46.348 116.738 46.812C117.074 47.268 117.574 47.496 118.238 47.496C118.598 47.496 118.914 47.432 119.186 47.304C119.466 47.168 119.774 46.932 120.11 46.596ZM118.154 42.6C117.626 42.6 117.19 42.764 116.846 43.092C116.51 43.412 116.306 43.884 116.234 44.508H119.966C119.95 43.924 119.782 43.46 119.462 43.116C119.142 42.772 118.706 42.6 118.154 42.6ZM122.429 48C122.269 48 122.189 47.92 122.189 47.76V39.72C122.189 39.56 122.269 39.48 122.429 39.48H122.741C122.901 39.48 122.981 39.56 122.981 39.72V47.76C122.981 47.92 122.901 48 122.741 48H122.429Z" fill="#767676"/>
<path d="M215.852 48.18C215.22 48.18 214.648 48.084 214.136 47.892C213.632 47.692 213.1 47.368 212.54 46.92C212.468 46.856 212.432 46.796 212.432 46.74C212.432 46.692 212.456 46.64 212.504 46.584L212.696 46.356C212.736 46.292 212.796 46.26 212.876 46.26C212.94 46.26 212.992 46.28 213.032 46.32C213.6 46.76 214.096 47.06 214.52 47.22C214.944 47.372 215.388 47.448 215.852 47.448C216.5 47.448 217.028 47.288 217.436 46.968C217.844 46.64 218.048 46.196 218.048 45.636C218.048 45.276 217.952 44.988 217.76 44.772C217.568 44.556 217.304 44.388 216.968 44.268C216.64 44.148 216.172 44.02 215.564 43.884C214.836 43.724 214.268 43.552 213.86 43.368C213.46 43.184 213.168 42.952 212.984 42.672C212.8 42.392 212.708 42.032 212.708 41.592C212.708 41.128 212.84 40.724 213.104 40.38C213.376 40.028 213.736 39.76 214.184 39.576C214.632 39.392 215.116 39.3 215.636 39.3C216.204 39.3 216.72 39.384 217.184 39.552C217.656 39.72 218.12 39.988 218.576 40.356C218.648 40.404 218.684 40.46 218.684 40.524C218.684 40.572 218.66 40.628 218.612 40.692L218.432 40.908C218.392 40.972 218.332 41.004 218.252 41.004C218.188 41.004 218.132 40.984 218.084 40.944C217.676 40.608 217.28 40.372 216.896 40.236C216.52 40.1 216.104 40.032 215.648 40.032C215.232 40.032 214.864 40.1 214.544 40.236C214.224 40.364 213.972 40.544 213.788 40.776C213.612 41.008 213.524 41.272 213.524 41.568C213.524 41.888 213.612 42.144 213.788 42.336C213.972 42.528 214.224 42.68 214.544 42.792C214.872 42.904 215.348 43.032 215.972 43.176C216.692 43.344 217.26 43.532 217.676 43.74C218.1 43.948 218.408 44.204 218.6 44.508C218.792 44.804 218.888 45.172 218.888 45.612C218.888 46.124 218.756 46.576 218.492 46.968C218.236 47.352 217.876 47.652 217.412 47.868C216.948 48.076 216.428 48.18 215.852 48.18ZM222.876 47.34C222.9 47.332 222.932 47.328 222.972 47.328C223.02 47.328 223.064 47.344 223.104 47.376C223.144 47.408 223.168 47.452 223.176 47.508L223.212 47.676C223.22 47.692 223.224 47.72 223.224 47.76C223.224 47.872 223.164 47.94 223.044 47.964C222.756 48.052 222.448 48.096 222.12 48.096C221.6 48.096 221.228 47.98 221.004 47.748C220.788 47.508 220.68 47.164 220.68 46.716V42.684H219.792C219.632 42.684 219.552 42.604 219.552 42.444V42.324C219.552 42.164 219.632 42.084 219.792 42.084H220.68V40.26C220.68 40.1 220.76 40.02 220.92 40.02H221.232C221.392 40.02 221.472 40.1 221.472 40.26V42.084H222.912C223.072 42.084 223.152 42.164 223.152 42.324V42.444C223.152 42.604 223.072 42.684 222.912 42.684H221.472V46.62C221.472 46.916 221.528 47.124 221.64 47.244C221.752 47.364 221.944 47.424 222.216 47.424C222.408 47.424 222.628 47.396 222.876 47.34ZM226.652 41.94C227.38 41.94 227.948 42.116 228.356 42.468C228.764 42.812 228.968 43.268 228.968 43.836V47.76C228.968 47.92 228.888 48 228.728 48H228.488C228.328 48 228.248 47.92 228.248 47.76V47.22C228.048 47.54 227.764 47.78 227.396 47.94C227.036 48.1 226.632 48.18 226.184 48.18C225.56 48.18 225.052 48.048 224.66 47.784C224.268 47.52 224.072 47.112 224.072 46.56C224.072 46.12 224.196 45.768 224.444 45.504C224.692 45.232 225.016 45.028 225.416 44.892C225.816 44.748 226.316 44.62 226.916 44.508L228.212 44.28V43.896C228.212 43.488 228.072 43.172 227.792 42.948C227.512 42.716 227.144 42.6 226.688 42.6C226.344 42.6 226.032 42.664 225.752 42.792C225.472 42.92 225.172 43.14 224.852 43.452C224.796 43.508 224.736 43.536 224.672 43.536C224.616 43.536 224.564 43.512 224.516 43.464L224.36 43.32C224.304 43.264 224.276 43.204 224.276 43.14C224.276 43.068 224.304 43.004 224.36 42.948C224.696 42.596 225.048 42.34 225.416 42.18C225.792 42.02 226.204 41.94 226.652 41.94ZM226.22 47.52C226.796 47.52 227.272 47.368 227.648 47.064C228.024 46.76 228.212 46.372 228.212 45.9V44.892L227.096 45.108C226.576 45.212 226.164 45.312 225.86 45.408C225.556 45.504 225.312 45.644 225.128 45.828C224.944 46.012 224.852 46.252 224.852 46.548C224.852 46.852 224.972 47.092 225.212 47.268C225.46 47.436 225.796 47.52 226.22 47.52ZM233.364 41.94C234.06 41.94 234.584 42.132 234.936 42.516C235.296 42.9 235.476 43.38 235.476 43.956V47.76C235.476 47.92 235.396 48 235.236 48H234.924C234.764 48 234.684 47.92 234.684 47.76V44.22C234.684 43.692 234.556 43.292 234.3 43.02C234.044 42.748 233.676 42.612 233.196 42.612C232.892 42.612 232.612 42.688 232.356 42.84C232.1 42.984 231.896 43.184 231.744 43.44C231.592 43.696 231.516 43.976 231.516 44.28V47.76C231.516 47.92 231.436 48 231.276 48H230.964C230.804 48 230.724 47.92 230.724 47.76V42.324C230.724 42.164 230.804 42.084 230.964 42.084H231.228C231.388 42.084 231.468 42.164 231.468 42.324V42.9C231.668 42.58 231.932 42.34 232.26 42.18C232.588 42.02 232.956 41.94 233.364 41.94ZM241.5 39.72C241.5 39.56 241.58 39.48 241.74 39.48H242.052C242.212 39.48 242.292 39.56 242.292 39.72V47.76C242.292 47.92 242.212 48 242.052 48H241.8C241.64 48 241.56 47.92 241.56 47.76V46.98C241.344 47.356 241.06 47.644 240.708 47.844C240.356 48.044 239.94 48.144 239.46 48.144C238.956 48.144 238.508 48.016 238.116 47.76C237.724 47.496 237.416 47.132 237.192 46.668C236.968 46.196 236.856 45.656 236.856 45.048C236.856 44.44 236.968 43.904 237.192 43.44C237.424 42.968 237.74 42.604 238.14 42.348C238.54 42.084 238.988 41.952 239.484 41.952C240.396 41.952 241.068 42.292 241.5 42.972V39.72ZM239.52 47.472C240.12 47.472 240.604 47.26 240.972 46.836C241.348 46.404 241.536 45.808 241.536 45.048C241.536 44.296 241.348 43.704 240.972 43.272C240.604 42.84 240.12 42.624 239.52 42.624C238.968 42.624 238.52 42.848 238.176 43.296C237.84 43.744 237.672 44.328 237.672 45.048C237.672 45.776 237.84 46.364 238.176 46.812C238.512 47.252 238.96 47.472 239.52 47.472ZM246.352 41.94C247.08 41.94 247.648 42.116 248.056 42.468C248.464 42.812 248.668 43.268 248.668 43.836V47.76C248.668 47.92 248.588 48 248.428 48H248.188C248.028 48 247.948 47.92 247.948 47.76V47.22C247.748 47.54 247.464 47.78 247.096 47.94C246.736 48.1 246.332 48.18 245.884 48.18C245.26 48.18 244.752 48.048 244.36 47.784C243.968 47.52 243.772 47.112 243.772 46.56C243.772 46.12 243.896 45.768 244.144 45.504C244.392 45.232 244.716 45.028 245.116 44.892C245.516 44.748 246.016 44.62 246.616 44.508L247.912 44.28V43.896C247.912 43.488 247.772 43.172 247.492 42.948C247.212 42.716 246.844 42.6 246.388 42.6C246.044 42.6 245.732 42.664 245.452 42.792C245.172 42.92 244.872 43.14 244.552 43.452C244.496 43.508 244.436 43.536 244.372 43.536C244.316 43.536 244.264 43.512 244.216 43.464L244.06 43.32C244.004 43.264 243.976 43.204 243.976 43.14C243.976 43.068 244.004 43.004 244.06 42.948C244.396 42.596 244.748 42.34 245.116 42.18C245.492 42.02 245.904 41.94 246.352 41.94ZM245.92 47.52C246.496 47.52 246.972 47.368 247.348 47.064C247.724 46.76 247.912 46.372 247.912 45.9V44.892L246.796 45.108C246.276 45.212 245.864 45.312 245.56 45.408C245.256 45.504 245.012 45.644 244.828 45.828C244.644 46.012 244.552 46.252 244.552 46.548C244.552 46.852 244.672 47.092 244.912 47.268C245.16 47.436 245.496 47.52 245.92 47.52ZM250.675 48C250.515 48 250.435 47.92 250.435 47.76V39.72C250.435 39.56 250.515 39.48 250.675 39.48H250.987C251.147 39.48 251.227 39.56 251.227 39.72V47.76C251.227 47.92 251.147 48 250.987 48H250.675ZM255.461 48.156C254.909 48.156 254.417 48.024 253.985 47.76C253.553 47.496 253.217 47.132 252.977 46.668C252.737 46.196 252.617 45.656 252.617 45.048C252.617 44.44 252.737 43.904 252.977 43.44C253.217 42.968 253.553 42.6 253.985 42.336C254.417 42.072 254.909 41.94 255.461 41.94C256.013 41.94 256.505 42.072 256.937 42.336C257.369 42.6 257.705 42.968 257.945 43.44C258.185 43.904 258.305 44.44 258.305 45.048C258.305 45.656 258.185 46.196 257.945 46.668C257.705 47.132 257.369 47.496 256.937 47.76C256.505 48.024 256.013 48.156 255.461 48.156ZM255.461 47.496C256.077 47.496 256.569 47.272 256.937 46.824C257.305 46.368 257.489 45.776 257.489 45.048C257.489 44.32 257.305 43.732 256.937 43.284C256.569 42.828 256.077 42.6 255.461 42.6C254.845 42.6 254.353 42.828 253.985 43.284C253.617 43.732 253.433 44.32 253.433 45.048C253.433 45.776 253.617 46.368 253.985 46.824C254.353 47.272 254.845 47.496 255.461 47.496ZM262.321 41.94C263.017 41.94 263.541 42.132 263.893 42.516C264.253 42.9 264.433 43.38 264.433 43.956V47.76C264.433 47.92 264.353 48 264.193 48H263.881C263.721 48 263.641 47.92 263.641 47.76V44.22C263.641 43.692 263.513 43.292 263.257 43.02C263.001 42.748 262.633 42.612 262.153 42.612C261.849 42.612 261.569 42.688 261.313 42.84C261.057 42.984 260.853 43.184 260.701 43.44C260.549 43.696 260.473 43.976 260.473 44.28V47.76C260.473 47.92 260.393 48 260.233 48H259.921C259.761 48 259.681 47.92 259.681 47.76V42.324C259.681 42.164 259.761 42.084 259.921 42.084H260.185C260.345 42.084 260.425 42.164 260.425 42.324V42.9C260.625 42.58 260.889 42.34 261.217 42.18C261.545 42.02 261.913 41.94 262.321 41.94ZM270.493 46.596C270.549 46.54 270.609 46.512 270.673 46.512C270.729 46.512 270.781 46.536 270.829 46.584L270.985 46.728C271.041 46.784 271.069 46.844 271.069 46.908C271.069 46.956 271.045 47.012 270.997 47.076C270.605 47.468 270.225 47.748 269.857 47.916C269.489 48.076 269.077 48.156 268.621 48.156C268.045 48.156 267.545 48.028 267.121 47.772C266.697 47.516 266.369 47.16 266.137 46.704C265.905 46.24 265.789 45.704 265.789 45.096C265.789 44.48 265.901 43.936 266.125 43.464C266.357 42.984 266.681 42.612 267.097 42.348C267.513 42.076 267.993 41.94 268.537 41.94C269.345 41.94 269.981 42.192 270.445 42.696C270.909 43.2 271.141 43.88 271.141 44.736V44.88C271.133 44.952 271.105 45.008 271.057 45.048C271.017 45.088 270.961 45.108 270.889 45.108H266.593C266.617 45.78 266.793 46.348 267.121 46.812C267.457 47.268 267.957 47.496 268.621 47.496C268.981 47.496 269.297 47.432 269.569 47.304C269.849 47.168 270.157 46.932 270.493 46.596ZM268.537 42.6C268.009 42.6 267.573 42.764 267.229 43.092C266.893 43.412 266.689 43.884 266.617 44.508H270.349C270.333 43.924 270.165 43.46 269.845 43.116C269.525 42.772 269.089 42.6 268.537 42.6Z" fill="#767676"/>
<path d="M123.696 85C123.483 85 123.376 84.8933 123.376 84.68V73.96C123.376 73.7467 123.483 73.64 123.696 73.64H124.192C124.405 73.64 124.512 73.7467 124.512 73.96V84.056H129.616C129.829 84.056 129.936 84.1627 129.936 84.376V84.68C129.936 84.8933 129.829 85 129.616 85H123.696ZM134.74 76.92C135.71 76.92 136.468 77.1547 137.012 77.624C137.556 78.0827 137.828 78.6907 137.828 79.448V84.68C137.828 84.8933 137.721 85 137.508 85H137.188C136.974 85 136.868 84.8933 136.868 84.68V83.96C136.601 84.3867 136.222 84.7067 135.732 84.92C135.252 85.1333 134.713 85.24 134.116 85.24C133.284 85.24 132.606 85.064 132.084 84.712C131.561 84.36 131.3 83.816 131.3 83.08C131.3 82.4933 131.465 82.024 131.796 81.672C132.126 81.3093 132.558 81.0373 133.092 80.856C133.625 80.664 134.292 80.4933 135.092 80.344L136.82 80.04V79.528C136.82 78.984 136.633 78.5627 136.26 78.264C135.886 77.9547 135.396 77.8 134.788 77.8C134.329 77.8 133.913 77.8853 133.54 78.056C133.166 78.2267 132.766 78.52 132.34 78.936C132.265 79.0107 132.185 79.048 132.1 79.048C132.025 79.048 131.956 79.016 131.892 78.952L131.684 78.76C131.609 78.6853 131.572 78.6053 131.572 78.52C131.572 78.424 131.609 78.3387 131.684 78.264C132.132 77.7947 132.601 77.4533 133.092 77.24C133.593 77.0267 134.142 76.92 134.74 76.92ZM134.164 84.36C134.932 84.36 135.566 84.1573 136.068 83.752C136.569 83.3467 136.82 82.8293 136.82 82.2V80.856L135.332 81.144C134.638 81.2827 134.089 81.416 133.684 81.544C133.278 81.672 132.953 81.8587 132.708 82.104C132.462 82.3493 132.34 82.6693 132.34 83.064C132.34 83.4693 132.5 83.7893 132.82 84.024C133.15 84.248 133.598 84.36 134.164 84.36ZM143.944 76.936C144.616 76.936 145.214 77.112 145.736 77.464C146.27 77.8053 146.68 78.2907 146.968 78.92C147.267 79.5387 147.416 80.2533 147.416 81.064C147.416 81.8747 147.267 82.5947 146.968 83.224C146.67 83.8427 146.254 84.328 145.72 84.68C145.198 85.0213 144.606 85.192 143.944 85.192C142.675 85.192 141.747 84.7013 141.16 83.72V84.68C141.16 84.8933 141.054 85 140.84 85H140.488C140.275 85 140.168 84.8933 140.168 84.68V73.944C140.168 73.7307 140.275 73.624 140.488 73.624H140.904C141.118 73.624 141.224 73.7307 141.224 73.944V78.36C141.811 77.4107 142.718 76.936 143.944 76.936ZM143.864 84.296C144.6 84.296 145.192 83.9973 145.64 83.4C146.099 82.8027 146.328 82.024 146.328 81.064C146.328 80.104 146.099 79.3253 145.64 78.728C145.192 78.1307 144.6 77.832 143.864 77.832C143.075 77.832 142.43 78.12 141.928 78.696C141.427 79.272 141.176 80.0613 141.176 81.064C141.176 82.0773 141.422 82.872 141.912 83.448C142.414 84.0133 143.064 84.296 143.864 84.296ZM155.131 83.128C155.206 83.0533 155.286 83.016 155.371 83.016C155.446 83.016 155.515 83.048 155.579 83.112L155.787 83.304C155.862 83.3787 155.899 83.4587 155.899 83.544C155.899 83.608 155.867 83.6827 155.803 83.768C155.28 84.2907 154.774 84.664 154.283 84.888C153.792 85.1013 153.243 85.208 152.635 85.208C151.867 85.208 151.2 85.0373 150.635 84.696C150.07 84.3547 149.632 83.88 149.323 83.272C149.014 82.6533 148.859 81.9387 148.859 81.128C148.859 80.3067 149.008 79.5813 149.307 78.952C149.616 78.312 150.048 77.816 150.603 77.464C151.158 77.1013 151.798 76.92 152.523 76.92C153.6 76.92 154.448 77.256 155.067 77.928C155.686 78.6 155.995 79.5067 155.995 80.648V80.84C155.984 80.936 155.947 81.0107 155.883 81.064C155.83 81.1173 155.755 81.144 155.659 81.144H149.931C149.963 82.04 150.198 82.7973 150.635 83.416C151.083 84.024 151.75 84.328 152.635 84.328C153.115 84.328 153.536 84.2427 153.899 84.072C154.272 83.8907 154.683 83.576 155.131 83.128ZM152.523 77.8C151.819 77.8 151.238 78.0187 150.779 78.456C150.331 78.8827 150.059 79.512 149.963 80.344H154.939C154.918 79.5653 154.694 78.9467 154.267 78.488C153.84 78.0293 153.259 77.8 152.523 77.8ZM158.223 85C158.01 85 157.903 84.8933 157.903 84.68V73.96C157.903 73.7467 158.01 73.64 158.223 73.64H158.639C158.852 73.64 158.959 73.7467 158.959 73.96V84.68C158.959 84.8933 158.852 85 158.639 85H158.223Z" fill="#464646"/>
<path d="M123.696 125C123.483 125 123.376 124.893 123.376 124.68V113.96C123.376 113.747 123.483 113.64 123.696 113.64H124.192C124.405 113.64 124.512 113.747 124.512 113.96V124.056H129.616C129.829 124.056 129.936 124.163 129.936 124.376V124.68C129.936 124.893 129.829 125 129.616 125H123.696ZM134.74 116.92C135.71 116.92 136.468 117.155 137.012 117.624C137.556 118.083 137.828 118.691 137.828 119.448V124.68C137.828 124.893 137.721 125 137.508 125H137.188C136.974 125 136.868 124.893 136.868 124.68V123.96C136.601 124.387 136.222 124.707 135.732 124.92C135.252 125.133 134.713 125.24 134.116 125.24C133.284 125.24 132.606 125.064 132.084 124.712C131.561 124.36 131.3 123.816 131.3 123.08C131.3 122.493 131.465 122.024 131.796 121.672C132.126 121.309 132.558 121.037 133.092 120.856C133.625 120.664 134.292 120.493 135.092 120.344L136.82 120.04V119.528C136.82 118.984 136.633 118.563 136.26 118.264C135.886 117.955 135.396 117.8 134.788 117.8C134.329 117.8 133.913 117.885 133.54 118.056C133.166 118.227 132.766 118.52 132.34 118.936C132.265 119.011 132.185 119.048 132.1 119.048C132.025 119.048 131.956 119.016 131.892 118.952L131.684 118.76C131.609 118.685 131.572 118.605 131.572 118.52C131.572 118.424 131.609 118.339 131.684 118.264C132.132 117.795 132.601 117.453 133.092 117.24C133.593 117.027 134.142 116.92 134.74 116.92ZM134.164 124.36C134.932 124.36 135.566 124.157 136.068 123.752C136.569 123.347 136.82 122.829 136.82 122.2V120.856L135.332 121.144C134.638 121.283 134.089 121.416 133.684 121.544C133.278 121.672 132.953 121.859 132.708 122.104C132.462 122.349 132.34 122.669 132.34 123.064C132.34 123.469 132.5 123.789 132.82 124.024C133.15 124.248 133.598 124.36 134.164 124.36ZM143.944 116.936C144.616 116.936 145.214 117.112 145.736 117.464C146.27 117.805 146.68 118.291 146.968 118.92C147.267 119.539 147.416 120.253 147.416 121.064C147.416 121.875 147.267 122.595 146.968 123.224C146.67 123.843 146.254 124.328 145.72 124.68C145.198 125.021 144.606 125.192 143.944 125.192C142.675 125.192 141.747 124.701 141.16 123.72V124.68C141.16 124.893 141.054 125 140.84 125H140.488C140.275 125 140.168 124.893 140.168 124.68V113.944C140.168 113.731 140.275 113.624 140.488 113.624H140.904C141.118 113.624 141.224 113.731 141.224 113.944V118.36C141.811 117.411 142.718 116.936 143.944 116.936ZM143.864 124.296C144.6 124.296 145.192 123.997 145.64 123.4C146.099 122.803 146.328 122.024 146.328 121.064C146.328 120.104 146.099 119.325 145.64 118.728C145.192 118.131 144.6 117.832 143.864 117.832C143.075 117.832 142.43 118.12 141.928 118.696C141.427 119.272 141.176 120.061 141.176 121.064C141.176 122.077 141.422 122.872 141.912 123.448C142.414 124.013 143.064 124.296 143.864 124.296ZM155.131 123.128C155.206 123.053 155.286 123.016 155.371 123.016C155.446 123.016 155.515 123.048 155.579 123.112L155.787 123.304C155.862 123.379 155.899 123.459 155.899 123.544C155.899 123.608 155.867 123.683 155.803 123.768C155.28 124.291 154.774 124.664 154.283 124.888C153.792 125.101 153.243 125.208 152.635 125.208C151.867 125.208 151.2 125.037 150.635 124.696C150.07 124.355 149.632 123.88 149.323 123.272C149.014 122.653 148.859 121.939 148.859 121.128C148.859 120.307 149.008 119.581 149.307 118.952C149.616 118.312 150.048 117.816 150.603 117.464C151.158 117.101 151.798 116.92 152.523 116.92C153.6 116.92 154.448 117.256 155.067 117.928C155.686 118.6 155.995 119.507 155.995 120.648V120.84C155.984 120.936 155.947 121.011 155.883 121.064C155.83 121.117 155.755 121.144 155.659 121.144H149.931C149.963 122.04 150.198 122.797 150.635 123.416C151.083 124.024 151.75 124.328 152.635 124.328C153.115 124.328 153.536 124.243 153.899 124.072C154.272 123.891 154.683 123.576 155.131 123.128ZM152.523 117.8C151.819 117.8 151.238 118.019 150.779 118.456C150.331 118.883 150.059 119.512 149.963 120.344H154.939C154.918 119.565 154.694 118.947 154.267 118.488C153.84 118.029 153.259 117.8 152.523 117.8ZM158.223 125C158.01 125 157.903 124.893 157.903 124.68V113.96C157.903 113.747 158.01 113.64 158.223 113.64H158.639C158.852 113.64 158.959 113.747 158.959 113.96V124.68C158.959 124.893 158.852 125 158.639 125H158.223Z" fill="#464646"/>
</svg>
