<svg width="344" height="168" viewBox="0 0 344 168" fill="none" xmlns="http://www.w3.org/2000/svg">
<rect width="344" height="168" fill="#F5F5F5"/>
<rect x="70" y="68" width="44" height="24" rx="12" fill="#D4D4D4"/>
<circle cx="82" cy="80" r="8" fill="white"/>
<rect x="212" y="68" width="44" height="24" rx="12" fill="#0063FB"/>
<circle cx="244" cy="80" r="8" fill="white"/>
<rect x="70" y="108" width="44" height="24" rx="12" fill="#D4D4D4"/>
<circle cx="82" cy="120" r="8" fill="white"/>
<rect x="212" y="108" width="44" height="24" rx="12" fill="#0063FB"/>
<circle cx="244" cy="120" r="8" fill="white"/>
<path d="M78.852 39.72C78.852 39.56 78.932 39.48 79.092 39.48H79.44C79.6 39.48 79.68 39.56 79.68 39.72V47.76C79.68 47.92 79.6 48 79.44 48H78.9C78.772 48 78.672 47.948 78.6 47.844L76.02 43.932L75.876 43.704C74.916 42.264 74.228 41.204 73.812 40.524C73.844 41.46 73.86 42.54 73.86 43.764V47.76C73.86 47.92 73.78 48 73.62 48H73.272C73.112 48 73.032 47.92 73.032 47.76V39.72C73.032 39.56 73.112 39.48 73.272 39.48H73.812C73.94 39.48 74.04 39.532 74.112 39.636L76.68 43.536L77.136 44.244C77.944 45.468 78.532 46.38 78.9 46.98C78.868 46.028 78.852 44.944 78.852 43.728V39.72ZM84.043 48.156C83.491 48.156 82.999 48.024 82.567 47.76C82.135 47.496 81.799 47.132 81.559 46.668C81.319 46.196 81.199 45.656 81.199 45.048C81.199 44.44 81.319 43.904 81.559 43.44C81.799 42.968 82.135 42.6 82.567 42.336C82.999 42.072 83.491 41.94 84.043 41.94C84.595 41.94 85.087 42.072 85.519 42.336C85.951 42.6 86.287 42.968 86.527 43.44C86.767 43.904 86.887 44.44 86.887 45.048C86.887 45.656 86.767 46.196 86.527 46.668C86.287 47.132 85.951 47.496 85.519 47.76C85.087 48.024 84.595 48.156 84.043 48.156ZM84.043 47.496C84.659 47.496 85.151 47.272 85.519 46.824C85.887 46.368 86.071 45.776 86.071 45.048C86.071 44.32 85.887 43.732 85.519 43.284C85.151 42.828 84.659 42.6 84.043 42.6C83.427 42.6 82.935 42.828 82.567 43.284C82.199 43.732 82.015 44.32 82.015 45.048C82.015 45.776 82.199 46.368 82.567 46.824C82.935 47.272 83.427 47.496 84.043 47.496ZM90.7512 47.34C90.7752 47.332 90.8072 47.328 90.8472 47.328C90.8952 47.328 90.9392 47.344 90.9792 47.376C91.0192 47.408 91.0432 47.452 91.0512 47.508L91.0872 47.676C91.0952 47.692 91.0992 47.72 91.0992 47.76C91.0992 47.872 91.0392 47.94 90.9192 47.964C90.6312 48.052 90.3232 48.096 89.9952 48.096C89.4752 48.096 89.1032 47.98 88.8792 47.748C88.6632 47.508 88.5552 47.164 88.5552 46.716V42.684H87.6672C87.5072 42.684 87.4272 42.604 87.4272 42.444V42.324C87.4272 42.164 87.5072 42.084 87.6672 42.084H88.5552V40.26C88.5552 40.1 88.6352 40.02 88.7952 40.02H89.1072C89.2672 40.02 89.3472 40.1 89.3472 40.26V42.084H90.7872C90.9472 42.084 91.0272 42.164 91.0272 42.324V42.444C91.0272 42.604 90.9472 42.684 90.7872 42.684H89.3472V46.62C89.3472 46.916 89.4032 47.124 89.5152 47.244C89.6272 47.364 89.8192 47.424 90.0912 47.424C90.2832 47.424 90.5032 47.396 90.7512 47.34ZM97.0653 48.156C96.5773 48.156 96.1453 48.088 95.7693 47.952C95.4013 47.808 95.0133 47.568 94.6053 47.232C94.5333 47.184 94.4973 47.128 94.4973 47.064C94.4973 47.008 94.5253 46.952 94.5813 46.896L94.7373 46.728C94.7853 46.664 94.8453 46.632 94.9173 46.632C94.9733 46.632 95.0253 46.656 95.0733 46.704C95.4573 47 95.7973 47.208 96.0933 47.328C96.3893 47.44 96.7133 47.496 97.0653 47.496C97.5053 47.496 97.8653 47.4 98.1453 47.208C98.4253 47.008 98.5653 46.74 98.5653 46.404C98.5653 46.068 98.4213 45.82 98.1333 45.66C97.8453 45.5 97.4013 45.356 96.8013 45.228C96.2733 45.116 95.8573 45 95.5533 44.88C95.2573 44.752 95.0373 44.592 94.8933 44.4C94.7493 44.208 94.6773 43.956 94.6773 43.644C94.6773 43.132 94.8853 42.72 95.3013 42.408C95.7173 42.096 96.2413 41.94 96.8733 41.94C97.3053 41.94 97.6893 41.996 98.0253 42.108C98.3693 42.212 98.7133 42.388 99.0573 42.636C99.1293 42.692 99.1653 42.752 99.1653 42.816C99.1653 42.856 99.1453 42.908 99.1053 42.972L98.9613 43.152C98.9213 43.216 98.8653 43.248 98.7933 43.248C98.7293 43.248 98.6733 43.228 98.6253 43.188C98.2973 42.956 98.0053 42.8 97.7493 42.72C97.5013 42.64 97.2173 42.6 96.8973 42.6C96.4573 42.6 96.1053 42.696 95.8413 42.888C95.5773 43.08 95.4453 43.324 95.4453 43.62C95.4453 43.804 95.5053 43.952 95.6253 44.064C95.7453 44.176 95.9173 44.272 96.1413 44.352C96.3653 44.424 96.6933 44.508 97.1253 44.604C97.9253 44.78 98.4933 44.996 98.8293 45.252C99.1733 45.508 99.3453 45.88 99.3453 46.368C99.3453 46.904 99.1333 47.336 98.7093 47.664C98.2853 47.992 97.7373 48.156 97.0653 48.156ZM104.993 46.596C105.049 46.54 105.109 46.512 105.173 46.512C105.229 46.512 105.281 46.536 105.329 46.584L105.485 46.728C105.541 46.784 105.569 46.844 105.569 46.908C105.569 46.956 105.545 47.012 105.497 47.076C105.105 47.468 104.725 47.748 104.357 47.916C103.989 48.076 103.577 48.156 103.121 48.156C102.545 48.156 102.045 48.028 101.621 47.772C101.197 47.516 100.869 47.16 100.637 46.704C100.405 46.24 100.289 45.704 100.289 45.096C100.289 44.48 100.401 43.936 100.625 43.464C100.857 42.984 101.181 42.612 101.597 42.348C102.013 42.076 102.493 41.94 103.037 41.94C103.845 41.94 104.481 42.192 104.945 42.696C105.409 43.2 105.641 43.88 105.641 44.736V44.88C105.633 44.952 105.605 45.008 105.557 45.048C105.517 45.088 105.461 45.108 105.389 45.108H101.093C101.117 45.78 101.293 46.348 101.621 46.812C101.957 47.268 102.457 47.496 103.121 47.496C103.481 47.496 103.797 47.432 104.069 47.304C104.349 47.168 104.657 46.932 104.993 46.596ZM103.037 42.6C102.509 42.6 102.073 42.764 101.729 43.092C101.393 43.412 101.189 43.884 101.117 44.508H104.849C104.833 43.924 104.665 43.46 104.345 43.116C104.025 42.772 103.589 42.6 103.037 42.6ZM107.312 48C107.152 48 107.072 47.92 107.072 47.76V39.72C107.072 39.56 107.152 39.48 107.312 39.48H107.624C107.784 39.48 107.864 39.56 107.864 39.72V47.76C107.864 47.92 107.784 48 107.624 48H107.312ZM113.958 46.596C114.014 46.54 114.074 46.512 114.138 46.512C114.194 46.512 114.246 46.536 114.294 46.584L114.45 46.728C114.506 46.784 114.534 46.844 114.534 46.908C114.534 46.956 114.51 47.012 114.462 47.076C114.07 47.468 113.69 47.748 113.322 47.916C112.954 48.076 112.542 48.156 112.086 48.156C111.51 48.156 111.01 48.028 110.586 47.772C110.162 47.516 109.834 47.16 109.602 46.704C109.37 46.24 109.254 45.704 109.254 45.096C109.254 44.48 109.366 43.936 109.59 43.464C109.822 42.984 110.146 42.612 110.562 42.348C110.978 42.076 111.458 41.94 112.002 41.94C112.81 41.94 113.446 42.192 113.91 42.696C114.374 43.2 114.606 43.88 114.606 44.736V44.88C114.598 44.952 114.57 45.008 114.522 45.048C114.482 45.088 114.426 45.108 114.354 45.108H110.058C110.082 45.78 110.258 46.348 110.586 46.812C110.922 47.268 111.422 47.496 112.086 47.496C112.446 47.496 112.762 47.432 113.034 47.304C113.314 47.168 113.622 46.932 113.958 46.596ZM112.002 42.6C111.474 42.6 111.038 42.764 110.694 43.092C110.358 43.412 110.154 43.884 110.082 44.508H113.814C113.798 43.924 113.63 43.46 113.31 43.116C112.99 42.772 112.554 42.6 112.002 42.6ZM118.436 48.156C117.868 48.156 117.372 48.028 116.948 47.772C116.532 47.508 116.208 47.144 115.976 46.68C115.752 46.208 115.64 45.664 115.64 45.048C115.64 44.44 115.752 43.9 115.976 43.428C116.208 42.956 116.532 42.592 116.948 42.336C117.372 42.072 117.86 41.94 118.412 41.94C118.86 41.94 119.252 42.016 119.588 42.168C119.924 42.312 120.248 42.552 120.56 42.888C120.608 42.936 120.632 42.988 120.632 43.044C120.632 43.116 120.6 43.176 120.536 43.224L120.368 43.38C120.32 43.428 120.264 43.452 120.2 43.452C120.144 43.452 120.084 43.42 120.02 43.356C119.74 43.076 119.472 42.88 119.216 42.768C118.968 42.656 118.692 42.6 118.388 42.6C117.972 42.6 117.616 42.716 117.32 42.948C117.032 43.18 116.816 43.484 116.672 43.86C116.528 44.228 116.456 44.624 116.456 45.048C116.456 45.472 116.528 45.872 116.672 46.248C116.816 46.616 117.036 46.916 117.332 47.148C117.628 47.372 117.992 47.484 118.424 47.484C118.744 47.484 119.024 47.428 119.264 47.316C119.512 47.196 119.788 46.972 120.092 46.644C120.156 46.58 120.216 46.548 120.272 46.548C120.336 46.548 120.392 46.572 120.44 46.62L120.608 46.752C120.664 46.8 120.692 46.856 120.692 46.92C120.692 46.984 120.656 47.06 120.584 47.148C120.248 47.516 119.912 47.776 119.576 47.928C119.24 48.08 118.86 48.156 118.436 48.156ZM124.677 47.34C124.701 47.332 124.733 47.328 124.773 47.328C124.821 47.328 124.865 47.344 124.905 47.376C124.945 47.408 124.969 47.452 124.977 47.508L125.013 47.676C125.021 47.692 125.025 47.72 125.025 47.76C125.025 47.872 124.965 47.94 124.845 47.964C124.557 48.052 124.249 48.096 123.921 48.096C123.401 48.096 123.029 47.98 122.805 47.748C122.589 47.508 122.481 47.164 122.481 46.716V42.684H121.593C121.433 42.684 121.353 42.604 121.353 42.444V42.324C121.353 42.164 121.433 42.084 121.593 42.084H122.481V40.26C122.481 40.1 122.561 40.02 122.721 40.02H123.033C123.193 40.02 123.273 40.1 123.273 40.26V42.084H124.713C124.873 42.084 124.953 42.164 124.953 42.324V42.444C124.953 42.604 124.873 42.684 124.713 42.684H123.273V46.62C123.273 46.916 123.329 47.124 123.441 47.244C123.553 47.364 123.745 47.424 124.017 47.424C124.209 47.424 124.429 47.396 124.677 47.34ZM130.247 46.596C130.303 46.54 130.363 46.512 130.427 46.512C130.483 46.512 130.535 46.536 130.583 46.584L130.739 46.728C130.795 46.784 130.823 46.844 130.823 46.908C130.823 46.956 130.799 47.012 130.751 47.076C130.359 47.468 129.979 47.748 129.611 47.916C129.243 48.076 128.831 48.156 128.375 48.156C127.799 48.156 127.299 48.028 126.875 47.772C126.451 47.516 126.123 47.16 125.891 46.704C125.659 46.24 125.543 45.704 125.543 45.096C125.543 44.48 125.655 43.936 125.879 43.464C126.111 42.984 126.435 42.612 126.851 42.348C127.267 42.076 127.747 41.94 128.291 41.94C129.099 41.94 129.735 42.192 130.199 42.696C130.663 43.2 130.895 43.88 130.895 44.736V44.88C130.887 44.952 130.859 45.008 130.811 45.048C130.771 45.088 130.715 45.108 130.643 45.108H126.347C126.371 45.78 126.547 46.348 126.875 46.812C127.211 47.268 127.711 47.496 128.375 47.496C128.735 47.496 129.051 47.432 129.323 47.304C129.603 47.168 129.911 46.932 130.247 46.596ZM128.291 42.6C127.763 42.6 127.327 42.764 126.983 43.092C126.647 43.412 126.443 43.884 126.371 44.508H130.103C130.087 43.924 129.919 43.46 129.599 43.116C129.279 42.772 128.843 42.6 128.291 42.6ZM136.598 39.72C136.598 39.56 136.678 39.48 136.838 39.48H137.15C137.31 39.48 137.39 39.56 137.39 39.72V47.76C137.39 47.92 137.31 48 137.15 48H136.898C136.738 48 136.658 47.92 136.658 47.76V46.98C136.442 47.356 136.158 47.644 135.806 47.844C135.454 48.044 135.038 48.144 134.558 48.144C134.054 48.144 133.606 48.016 133.214 47.76C132.822 47.496 132.514 47.132 132.29 46.668C132.066 46.196 131.954 45.656 131.954 45.048C131.954 44.44 132.066 43.904 132.29 43.44C132.522 42.968 132.838 42.604 133.238 42.348C133.638 42.084 134.086 41.952 134.582 41.952C135.494 41.952 136.166 42.292 136.598 42.972V39.72ZM134.618 47.472C135.218 47.472 135.702 47.26 136.07 46.836C136.446 46.404 136.634 45.808 136.634 45.048C136.634 44.296 136.446 43.704 136.07 43.272C135.702 42.84 135.218 42.624 134.618 42.624C134.066 42.624 133.618 42.848 133.274 43.296C132.938 43.744 132.77 44.328 132.77 45.048C132.77 45.776 132.938 46.364 133.274 46.812C133.61 47.252 134.058 47.472 134.618 47.472Z" fill="#767676"/>
<path d="M215.852 48.18C215.22 48.18 214.648 48.084 214.136 47.892C213.632 47.692 213.1 47.368 212.54 46.92C212.468 46.856 212.432 46.796 212.432 46.74C212.432 46.692 212.456 46.64 212.504 46.584L212.696 46.356C212.736 46.292 212.796 46.26 212.876 46.26C212.94 46.26 212.992 46.28 213.032 46.32C213.6 46.76 214.096 47.06 214.52 47.22C214.944 47.372 215.388 47.448 215.852 47.448C216.5 47.448 217.028 47.288 217.436 46.968C217.844 46.64 218.048 46.196 218.048 45.636C218.048 45.276 217.952 44.988 217.76 44.772C217.568 44.556 217.304 44.388 216.968 44.268C216.64 44.148 216.172 44.02 215.564 43.884C214.836 43.724 214.268 43.552 213.86 43.368C213.46 43.184 213.168 42.952 212.984 42.672C212.8 42.392 212.708 42.032 212.708 41.592C212.708 41.128 212.84 40.724 213.104 40.38C213.376 40.028 213.736 39.76 214.184 39.576C214.632 39.392 215.116 39.3 215.636 39.3C216.204 39.3 216.72 39.384 217.184 39.552C217.656 39.72 218.12 39.988 218.576 40.356C218.648 40.404 218.684 40.46 218.684 40.524C218.684 40.572 218.66 40.628 218.612 40.692L218.432 40.908C218.392 40.972 218.332 41.004 218.252 41.004C218.188 41.004 218.132 40.984 218.084 40.944C217.676 40.608 217.28 40.372 216.896 40.236C216.52 40.1 216.104 40.032 215.648 40.032C215.232 40.032 214.864 40.1 214.544 40.236C214.224 40.364 213.972 40.544 213.788 40.776C213.612 41.008 213.524 41.272 213.524 41.568C213.524 41.888 213.612 42.144 213.788 42.336C213.972 42.528 214.224 42.68 214.544 42.792C214.872 42.904 215.348 43.032 215.972 43.176C216.692 43.344 217.26 43.532 217.676 43.74C218.1 43.948 218.408 44.204 218.6 44.508C218.792 44.804 218.888 45.172 218.888 45.612C218.888 46.124 218.756 46.576 218.492 46.968C218.236 47.352 217.876 47.652 217.412 47.868C216.948 48.076 216.428 48.18 215.852 48.18ZM224.673 46.596C224.729 46.54 224.789 46.512 224.853 46.512C224.909 46.512 224.961 46.536 225.009 46.584L225.165 46.728C225.221 46.784 225.249 46.844 225.249 46.908C225.249 46.956 225.225 47.012 225.177 47.076C224.785 47.468 224.405 47.748 224.037 47.916C223.669 48.076 223.257 48.156 222.801 48.156C222.225 48.156 221.725 48.028 221.301 47.772C220.877 47.516 220.549 47.16 220.317 46.704C220.085 46.24 219.969 45.704 219.969 45.096C219.969 44.48 220.081 43.936 220.305 43.464C220.537 42.984 220.861 42.612 221.277 42.348C221.693 42.076 222.173 41.94 222.717 41.94C223.525 41.94 224.161 42.192 224.625 42.696C225.089 43.2 225.321 43.88 225.321 44.736V44.88C225.313 44.952 225.285 45.008 225.237 45.048C225.197 45.088 225.141 45.108 225.069 45.108H220.773C220.797 45.78 220.973 46.348 221.301 46.812C221.637 47.268 222.137 47.496 222.801 47.496C223.161 47.496 223.477 47.432 223.749 47.304C224.029 47.168 224.337 46.932 224.673 46.596ZM222.717 42.6C222.189 42.6 221.753 42.764 221.409 43.092C221.073 43.412 220.869 43.884 220.797 44.508H224.529C224.513 43.924 224.345 43.46 224.025 43.116C223.705 42.772 223.269 42.6 222.717 42.6ZM226.992 48C226.832 48 226.752 47.92 226.752 47.76V39.72C226.752 39.56 226.832 39.48 226.992 39.48H227.304C227.464 39.48 227.544 39.56 227.544 39.72V47.76C227.544 47.92 227.464 48 227.304 48H226.992ZM233.637 46.596C233.693 46.54 233.753 46.512 233.817 46.512C233.873 46.512 233.925 46.536 233.973 46.584L234.129 46.728C234.185 46.784 234.213 46.844 234.213 46.908C234.213 46.956 234.189 47.012 234.141 47.076C233.749 47.468 233.369 47.748 233.001 47.916C232.633 48.076 232.221 48.156 231.765 48.156C231.189 48.156 230.689 48.028 230.265 47.772C229.841 47.516 229.513 47.16 229.281 46.704C229.049 46.24 228.933 45.704 228.933 45.096C228.933 44.48 229.045 43.936 229.269 43.464C229.501 42.984 229.825 42.612 230.241 42.348C230.657 42.076 231.137 41.94 231.681 41.94C232.489 41.94 233.125 42.192 233.589 42.696C234.053 43.2 234.285 43.88 234.285 44.736V44.88C234.277 44.952 234.249 45.008 234.201 45.048C234.161 45.088 234.105 45.108 234.033 45.108H229.737C229.761 45.78 229.937 46.348 230.265 46.812C230.601 47.268 231.101 47.496 231.765 47.496C232.125 47.496 232.441 47.432 232.713 47.304C232.993 47.168 233.301 46.932 233.637 46.596ZM231.681 42.6C231.153 42.6 230.717 42.764 230.373 43.092C230.037 43.412 229.833 43.884 229.761 44.508H233.493C233.477 43.924 233.309 43.46 232.989 43.116C232.669 42.772 232.233 42.6 231.681 42.6ZM238.116 48.156C237.548 48.156 237.052 48.028 236.628 47.772C236.212 47.508 235.888 47.144 235.656 46.68C235.432 46.208 235.32 45.664 235.32 45.048C235.32 44.44 235.432 43.9 235.656 43.428C235.888 42.956 236.212 42.592 236.628 42.336C237.052 42.072 237.54 41.94 238.092 41.94C238.54 41.94 238.932 42.016 239.268 42.168C239.604 42.312 239.928 42.552 240.24 42.888C240.288 42.936 240.312 42.988 240.312 43.044C240.312 43.116 240.28 43.176 240.216 43.224L240.048 43.38C240 43.428 239.944 43.452 239.88 43.452C239.824 43.452 239.764 43.42 239.7 43.356C239.42 43.076 239.152 42.88 238.896 42.768C238.648 42.656 238.372 42.6 238.068 42.6C237.652 42.6 237.296 42.716 237 42.948C236.712 43.18 236.496 43.484 236.352 43.86C236.208 44.228 236.136 44.624 236.136 45.048C236.136 45.472 236.208 45.872 236.352 46.248C236.496 46.616 236.716 46.916 237.012 47.148C237.308 47.372 237.672 47.484 238.104 47.484C238.424 47.484 238.704 47.428 238.944 47.316C239.192 47.196 239.468 46.972 239.772 46.644C239.836 46.58 239.896 46.548 239.952 46.548C240.016 46.548 240.072 46.572 240.12 46.62L240.288 46.752C240.344 46.8 240.372 46.856 240.372 46.92C240.372 46.984 240.336 47.06 240.264 47.148C239.928 47.516 239.592 47.776 239.256 47.928C238.92 48.08 238.54 48.156 238.116 48.156ZM244.357 47.34C244.381 47.332 244.413 47.328 244.453 47.328C244.501 47.328 244.545 47.344 244.585 47.376C244.625 47.408 244.649 47.452 244.657 47.508L244.693 47.676C244.701 47.692 244.705 47.72 244.705 47.76C244.705 47.872 244.645 47.94 244.525 47.964C244.237 48.052 243.929 48.096 243.601 48.096C243.081 48.096 242.709 47.98 242.485 47.748C242.269 47.508 242.161 47.164 242.161 46.716V42.684H241.273C241.113 42.684 241.033 42.604 241.033 42.444V42.324C241.033 42.164 241.113 42.084 241.273 42.084H242.161V40.26C242.161 40.1 242.241 40.02 242.401 40.02H242.713C242.873 40.02 242.953 40.1 242.953 40.26V42.084H244.393C244.553 42.084 244.633 42.164 244.633 42.324V42.444C244.633 42.604 244.553 42.684 244.393 42.684H242.953V46.62C242.953 46.916 243.009 47.124 243.121 47.244C243.233 47.364 243.425 47.424 243.697 47.424C243.889 47.424 244.109 47.396 244.357 47.34ZM249.926 46.596C249.982 46.54 250.042 46.512 250.106 46.512C250.162 46.512 250.214 46.536 250.262 46.584L250.418 46.728C250.474 46.784 250.502 46.844 250.502 46.908C250.502 46.956 250.478 47.012 250.43 47.076C250.038 47.468 249.658 47.748 249.29 47.916C248.922 48.076 248.51 48.156 248.054 48.156C247.478 48.156 246.978 48.028 246.554 47.772C246.13 47.516 245.802 47.16 245.57 46.704C245.338 46.24 245.222 45.704 245.222 45.096C245.222 44.48 245.334 43.936 245.558 43.464C245.79 42.984 246.114 42.612 246.53 42.348C246.946 42.076 247.426 41.94 247.97 41.94C248.778 41.94 249.414 42.192 249.878 42.696C250.342 43.2 250.574 43.88 250.574 44.736V44.88C250.566 44.952 250.538 45.008 250.49 45.048C250.45 45.088 250.394 45.108 250.322 45.108H246.026C246.05 45.78 246.226 46.348 246.554 46.812C246.89 47.268 247.39 47.496 248.054 47.496C248.414 47.496 248.73 47.432 249.002 47.304C249.282 47.168 249.59 46.932 249.926 46.596ZM247.97 42.6C247.442 42.6 247.006 42.764 246.662 43.092C246.326 43.412 246.122 43.884 246.05 44.508H249.782C249.766 43.924 249.598 43.46 249.278 43.116C248.958 42.772 248.522 42.6 247.97 42.6ZM256.277 39.72C256.277 39.56 256.357 39.48 256.517 39.48H256.829C256.989 39.48 257.069 39.56 257.069 39.72V47.76C257.069 47.92 256.989 48 256.829 48H256.577C256.417 48 256.337 47.92 256.337 47.76V46.98C256.121 47.356 255.837 47.644 255.485 47.844C255.133 48.044 254.717 48.144 254.237 48.144C253.733 48.144 253.285 48.016 252.893 47.76C252.501 47.496 252.193 47.132 251.969 46.668C251.745 46.196 251.633 45.656 251.633 45.048C251.633 44.44 251.745 43.904 251.969 43.44C252.201 42.968 252.517 42.604 252.917 42.348C253.317 42.084 253.765 41.952 254.261 41.952C255.173 41.952 255.845 42.292 256.277 42.972V39.72ZM254.297 47.472C254.897 47.472 255.381 47.26 255.749 46.836C256.125 46.404 256.313 45.808 256.313 45.048C256.313 44.296 256.125 43.704 255.749 43.272C255.381 42.84 254.897 42.624 254.297 42.624C253.745 42.624 253.297 42.848 252.953 43.296C252.617 43.744 252.449 44.328 252.449 45.048C252.449 45.776 252.617 46.364 252.953 46.812C253.289 47.252 253.737 47.472 254.297 47.472Z" fill="#767676"/>
<path d="M123.696 85C123.483 85 123.376 84.8933 123.376 84.68V73.96C123.376 73.7467 123.483 73.64 123.696 73.64H124.192C124.405 73.64 124.512 73.7467 124.512 73.96V84.056H129.616C129.829 84.056 129.936 84.1627 129.936 84.376V84.68C129.936 84.8933 129.829 85 129.616 85H123.696ZM134.74 76.92C135.71 76.92 136.468 77.1547 137.012 77.624C137.556 78.0827 137.828 78.6907 137.828 79.448V84.68C137.828 84.8933 137.721 85 137.508 85H137.188C136.974 85 136.868 84.8933 136.868 84.68V83.96C136.601 84.3867 136.222 84.7067 135.732 84.92C135.252 85.1333 134.713 85.24 134.116 85.24C133.284 85.24 132.606 85.064 132.084 84.712C131.561 84.36 131.3 83.816 131.3 83.08C131.3 82.4933 131.465 82.024 131.796 81.672C132.126 81.3093 132.558 81.0373 133.092 80.856C133.625 80.664 134.292 80.4933 135.092 80.344L136.82 80.04V79.528C136.82 78.984 136.633 78.5627 136.26 78.264C135.886 77.9547 135.396 77.8 134.788 77.8C134.329 77.8 133.913 77.8853 133.54 78.056C133.166 78.2267 132.766 78.52 132.34 78.936C132.265 79.0107 132.185 79.048 132.1 79.048C132.025 79.048 131.956 79.016 131.892 78.952L131.684 78.76C131.609 78.6853 131.572 78.6053 131.572 78.52C131.572 78.424 131.609 78.3387 131.684 78.264C132.132 77.7947 132.601 77.4533 133.092 77.24C133.593 77.0267 134.142 76.92 134.74 76.92ZM134.164 84.36C134.932 84.36 135.566 84.1573 136.068 83.752C136.569 83.3467 136.82 82.8293 136.82 82.2V80.856L135.332 81.144C134.638 81.2827 134.089 81.416 133.684 81.544C133.278 81.672 132.953 81.8587 132.708 82.104C132.462 82.3493 132.34 82.6693 132.34 83.064C132.34 83.4693 132.5 83.7893 132.82 84.024C133.15 84.248 133.598 84.36 134.164 84.36ZM143.944 76.936C144.616 76.936 145.214 77.112 145.736 77.464C146.27 77.8053 146.68 78.2907 146.968 78.92C147.267 79.5387 147.416 80.2533 147.416 81.064C147.416 81.8747 147.267 82.5947 146.968 83.224C146.67 83.8427 146.254 84.328 145.72 84.68C145.198 85.0213 144.606 85.192 143.944 85.192C142.675 85.192 141.747 84.7013 141.16 83.72V84.68C141.16 84.8933 141.054 85 140.84 85H140.488C140.275 85 140.168 84.8933 140.168 84.68V73.944C140.168 73.7307 140.275 73.624 140.488 73.624H140.904C141.118 73.624 141.224 73.7307 141.224 73.944V78.36C141.811 77.4107 142.718 76.936 143.944 76.936ZM143.864 84.296C144.6 84.296 145.192 83.9973 145.64 83.4C146.099 82.8027 146.328 82.024 146.328 81.064C146.328 80.104 146.099 79.3253 145.64 78.728C145.192 78.1307 144.6 77.832 143.864 77.832C143.075 77.832 142.43 78.12 141.928 78.696C141.427 79.272 141.176 80.0613 141.176 81.064C141.176 82.0773 141.422 82.872 141.912 83.448C142.414 84.0133 143.064 84.296 143.864 84.296ZM155.131 83.128C155.206 83.0533 155.286 83.016 155.371 83.016C155.446 83.016 155.515 83.048 155.579 83.112L155.787 83.304C155.862 83.3787 155.899 83.4587 155.899 83.544C155.899 83.608 155.867 83.6827 155.803 83.768C155.28 84.2907 154.774 84.664 154.283 84.888C153.792 85.1013 153.243 85.208 152.635 85.208C151.867 85.208 151.2 85.0373 150.635 84.696C150.07 84.3547 149.632 83.88 149.323 83.272C149.014 82.6533 148.859 81.9387 148.859 81.128C148.859 80.3067 149.008 79.5813 149.307 78.952C149.616 78.312 150.048 77.816 150.603 77.464C151.158 77.1013 151.798 76.92 152.523 76.92C153.6 76.92 154.448 77.256 155.067 77.928C155.686 78.6 155.995 79.5067 155.995 80.648V80.84C155.984 80.936 155.947 81.0107 155.883 81.064C155.83 81.1173 155.755 81.144 155.659 81.144H149.931C149.963 82.04 150.198 82.7973 150.635 83.416C151.083 84.024 151.75 84.328 152.635 84.328C153.115 84.328 153.536 84.2427 153.899 84.072C154.272 83.8907 154.683 83.576 155.131 83.128ZM152.523 77.8C151.819 77.8 151.238 78.0187 150.779 78.456C150.331 78.8827 150.059 79.512 149.963 80.344H154.939C154.918 79.5653 154.694 78.9467 154.267 78.488C153.84 78.0293 153.259 77.8 152.523 77.8ZM158.223 85C158.01 85 157.903 84.8933 157.903 84.68V73.96C157.903 73.7467 158.01 73.64 158.223 73.64H158.639C158.852 73.64 158.959 73.7467 158.959 73.96V84.68C158.959 84.8933 158.852 85 158.639 85H158.223Z" fill="#464646"/>
<path d="M123.696 125C123.483 125 123.376 124.893 123.376 124.68V113.96C123.376 113.747 123.483 113.64 123.696 113.64H124.192C124.405 113.64 124.512 113.747 124.512 113.96V124.056H129.616C129.829 124.056 129.936 124.163 129.936 124.376V124.68C129.936 124.893 129.829 125 129.616 125H123.696ZM134.74 116.92C135.71 116.92 136.468 117.155 137.012 117.624C137.556 118.083 137.828 118.691 137.828 119.448V124.68C137.828 124.893 137.721 125 137.508 125H137.188C136.974 125 136.868 124.893 136.868 124.68V123.96C136.601 124.387 136.222 124.707 135.732 124.92C135.252 125.133 134.713 125.24 134.116 125.24C133.284 125.24 132.606 125.064 132.084 124.712C131.561 124.36 131.3 123.816 131.3 123.08C131.3 122.493 131.465 122.024 131.796 121.672C132.126 121.309 132.558 121.037 133.092 120.856C133.625 120.664 134.292 120.493 135.092 120.344L136.82 120.04V119.528C136.82 118.984 136.633 118.563 136.26 118.264C135.886 117.955 135.396 117.8 134.788 117.8C134.329 117.8 133.913 117.885 133.54 118.056C133.166 118.227 132.766 118.52 132.34 118.936C132.265 119.011 132.185 119.048 132.1 119.048C132.025 119.048 131.956 119.016 131.892 118.952L131.684 118.76C131.609 118.685 131.572 118.605 131.572 118.52C131.572 118.424 131.609 118.339 131.684 118.264C132.132 117.795 132.601 117.453 133.092 117.24C133.593 117.027 134.142 116.92 134.74 116.92ZM134.164 124.36C134.932 124.36 135.566 124.157 136.068 123.752C136.569 123.347 136.82 122.829 136.82 122.2V120.856L135.332 121.144C134.638 121.283 134.089 121.416 133.684 121.544C133.278 121.672 132.953 121.859 132.708 122.104C132.462 122.349 132.34 122.669 132.34 123.064C132.34 123.469 132.5 123.789 132.82 124.024C133.15 124.248 133.598 124.36 134.164 124.36ZM143.944 116.936C144.616 116.936 145.214 117.112 145.736 117.464C146.27 117.805 146.68 118.291 146.968 118.92C147.267 119.539 147.416 120.253 147.416 121.064C147.416 121.875 147.267 122.595 146.968 123.224C146.67 123.843 146.254 124.328 145.72 124.68C145.198 125.021 144.606 125.192 143.944 125.192C142.675 125.192 141.747 124.701 141.16 123.72V124.68C141.16 124.893 141.054 125 140.84 125H140.488C140.275 125 140.168 124.893 140.168 124.68V113.944C140.168 113.731 140.275 113.624 140.488 113.624H140.904C141.118 113.624 141.224 113.731 141.224 113.944V118.36C141.811 117.411 142.718 116.936 143.944 116.936ZM143.864 124.296C144.6 124.296 145.192 123.997 145.64 123.4C146.099 122.803 146.328 122.024 146.328 121.064C146.328 120.104 146.099 119.325 145.64 118.728C145.192 118.131 144.6 117.832 143.864 117.832C143.075 117.832 142.43 118.12 141.928 118.696C141.427 119.272 141.176 120.061 141.176 121.064C141.176 122.077 141.422 122.872 141.912 123.448C142.414 124.013 143.064 124.296 143.864 124.296ZM155.131 123.128C155.206 123.053 155.286 123.016 155.371 123.016C155.446 123.016 155.515 123.048 155.579 123.112L155.787 123.304C155.862 123.379 155.899 123.459 155.899 123.544C155.899 123.608 155.867 123.683 155.803 123.768C155.28 124.291 154.774 124.664 154.283 124.888C153.792 125.101 153.243 125.208 152.635 125.208C151.867 125.208 151.2 125.037 150.635 124.696C150.07 124.355 149.632 123.88 149.323 123.272C149.014 122.653 148.859 121.939 148.859 121.128C148.859 120.307 149.008 119.581 149.307 118.952C149.616 118.312 150.048 117.816 150.603 117.464C151.158 117.101 151.798 116.92 152.523 116.92C153.6 116.92 154.448 117.256 155.067 117.928C155.686 118.6 155.995 119.507 155.995 120.648V120.84C155.984 120.936 155.947 121.011 155.883 121.064C155.83 121.117 155.755 121.144 155.659 121.144H149.931C149.963 122.04 150.198 122.797 150.635 123.416C151.083 124.024 151.75 124.328 152.635 124.328C153.115 124.328 153.536 124.243 153.899 124.072C154.272 123.891 154.683 123.576 155.131 123.128ZM152.523 117.8C151.819 117.8 151.238 118.019 150.779 118.456C150.331 118.883 150.059 119.512 149.963 120.344H154.939C154.918 119.565 154.694 118.947 154.267 118.488C153.84 118.029 153.259 117.8 152.523 117.8ZM158.223 125C158.01 125 157.903 124.893 157.903 124.68V113.96C157.903 113.747 158.01 113.64 158.223 113.64H158.639C158.852 113.64 158.959 113.747 158.959 113.96V124.68C158.959 124.893 158.852 125 158.639 125H158.223Z" fill="#464646"/>
</svg>
