<svg width="344" height="166" viewBox="0 0 344 166" fill="none" xmlns="http://www.w3.org/2000/svg">
<rect width="344" height="166" fill="#F5F5F5"/>
<path d="M104.304 66.896C104.368 66.7253 104.491 66.64 104.672 66.64H105.92C106.133 66.64 106.24 66.7467 106.24 66.96V77.68C106.24 77.8933 106.133 78 105.92 78H105.456C105.243 78 105.136 77.8933 105.136 77.68V72.368C105.136 71.2267 105.147 69.5787 105.168 67.424C104.731 68.672 104.133 70.32 103.376 72.368L101.408 77.744C101.344 77.9147 101.221 78 101.04 78H100.576C100.395 78 100.272 77.9147 100.208 77.744L98.192 72.352C97.7653 71.2427 97.1733 69.6 96.416 67.424C96.4373 69.5787 96.448 71.232 96.448 72.384V77.68C96.448 77.8933 96.3413 78 96.128 78H95.696C95.4827 78 95.376 77.8933 95.376 77.68V66.96C95.376 66.7467 95.4827 66.64 95.696 66.64H96.928C97.1093 66.64 97.232 66.7253 97.296 66.896L99.12 71.808C99.9627 74.1013 100.528 75.7173 100.816 76.656C101.083 75.76 101.541 74.4213 102.192 72.64C102.235 72.5227 102.283 72.3947 102.336 72.256C102.389 72.1173 102.443 71.968 102.496 71.808L104.304 66.896ZM112.057 78.208C111.321 78.208 110.665 78.032 110.089 77.68C109.513 77.328 109.065 76.8427 108.745 76.224C108.425 75.5947 108.265 74.8747 108.265 74.064C108.265 73.2533 108.425 72.5387 108.745 71.92C109.065 71.2907 109.513 70.8 110.089 70.448C110.665 70.096 111.321 69.92 112.057 69.92C112.793 69.92 113.449 70.096 114.025 70.448C114.601 70.8 115.049 71.2907 115.369 71.92C115.689 72.5387 115.849 73.2533 115.849 74.064C115.849 74.8747 115.689 75.5947 115.369 76.224C115.049 76.8427 114.601 77.328 114.025 77.68C113.449 78.032 112.793 78.208 112.057 78.208ZM112.057 77.328C112.879 77.328 113.535 77.0293 114.025 76.432C114.516 75.824 114.761 75.0347 114.761 74.064C114.761 73.0933 114.516 72.3093 114.025 71.712C113.535 71.104 112.879 70.8 112.057 70.8C111.236 70.8 110.58 71.104 110.089 71.712C109.599 72.3093 109.353 73.0933 109.353 74.064C109.353 75.0347 109.599 75.824 110.089 76.432C110.58 77.0293 111.236 77.328 112.057 77.328ZM123.474 66.96C123.474 66.7467 123.58 66.64 123.794 66.64H124.21C124.423 66.64 124.53 66.7467 124.53 66.96V77.68C124.53 77.8933 124.423 78 124.21 78H123.874C123.66 78 123.554 77.8933 123.554 77.68V76.64C123.266 77.1413 122.887 77.5253 122.418 77.792C121.948 78.0587 121.394 78.192 120.754 78.192C120.082 78.192 119.484 78.0213 118.962 77.68C118.439 77.328 118.028 76.8427 117.73 76.224C117.431 75.5947 117.282 74.8747 117.282 74.064C117.282 73.2533 117.431 72.5387 117.73 71.92C118.039 71.2907 118.46 70.8053 118.994 70.464C119.527 70.112 120.124 69.936 120.786 69.936C122.002 69.936 122.898 70.3893 123.474 71.296V66.96ZM120.834 77.296C121.634 77.296 122.279 77.0133 122.77 76.448C123.271 75.872 123.522 75.0773 123.522 74.064C123.522 73.0613 123.271 72.272 122.77 71.696C122.279 71.12 121.634 70.832 120.834 70.832C120.098 70.832 119.5 71.1307 119.042 71.728C118.594 72.3253 118.37 73.104 118.37 74.064C118.37 75.0347 118.594 75.8187 119.042 76.416C119.49 77.0027 120.087 77.296 120.834 77.296ZM132.647 76.128C132.721 76.0533 132.801 76.016 132.887 76.016C132.961 76.016 133.031 76.048 133.095 76.112L133.303 76.304C133.377 76.3787 133.415 76.4587 133.415 76.544C133.415 76.608 133.383 76.6827 133.319 76.768C132.796 77.2907 132.289 77.664 131.799 77.888C131.308 78.1013 130.759 78.208 130.151 78.208C129.383 78.208 128.716 78.0373 128.151 77.696C127.585 77.3547 127.148 76.88 126.839 76.272C126.529 75.6533 126.375 74.9387 126.375 74.128C126.375 73.3067 126.524 72.5813 126.823 71.952C127.132 71.312 127.564 70.816 128.119 70.464C128.673 70.1013 129.313 69.92 130.039 69.92C131.116 69.92 131.964 70.256 132.583 70.928C133.201 71.6 133.511 72.5067 133.511 73.648V73.84C133.5 73.936 133.463 74.0107 133.399 74.064C133.345 74.1173 133.271 74.144 133.175 74.144H127.447C127.479 75.04 127.713 75.7973 128.151 76.416C128.599 77.024 129.265 77.328 130.151 77.328C130.631 77.328 131.052 77.2427 131.415 77.072C131.788 76.8907 132.199 76.576 132.647 76.128ZM130.039 70.8C129.335 70.8 128.753 71.0187 128.295 71.456C127.847 71.8827 127.575 72.512 127.479 73.344H132.455C132.433 72.5653 132.209 71.9467 131.783 71.488C131.356 71.0293 130.775 70.8 130.039 70.8ZM135.739 78C135.525 78 135.419 77.8933 135.419 77.68V66.96C135.419 66.7467 135.525 66.64 135.739 66.64H136.155C136.368 66.64 136.475 66.7467 136.475 66.96V77.68C136.475 77.8933 136.368 78 136.155 78H135.739ZM150.719 77.616C150.762 77.6693 150.783 77.728 150.783 77.792C150.783 77.9307 150.693 78 150.511 78H149.967C149.797 78 149.663 77.9307 149.567 77.792L146.271 72.848L142.975 77.792C142.879 77.9307 142.746 78 142.575 78H142.015C141.834 78 141.743 77.9307 141.743 77.792C141.743 77.728 141.765 77.6693 141.807 77.616L145.583 72.048L142.175 67.024C142.133 66.9707 142.111 66.912 142.111 66.848C142.111 66.7093 142.202 66.64 142.383 66.64H142.943C143.103 66.64 143.231 66.7093 143.327 66.848L146.303 71.28L149.231 66.848C149.327 66.7093 149.461 66.64 149.631 66.64H150.175C150.357 66.64 150.447 66.7093 150.447 66.848C150.447 66.912 150.426 66.9707 150.383 67.024L146.975 72.048L150.719 77.616ZM159.428 66.848C159.502 66.7093 159.63 66.64 159.812 66.64H160.356C160.537 66.64 160.628 66.7093 160.628 66.848C160.628 66.912 160.606 66.9707 160.564 67.024L156.772 73.12V77.68C156.772 77.8933 156.665 78 156.452 78H155.956C155.742 78 155.636 77.8933 155.636 77.68V73.104L151.876 67.024C151.833 66.9707 151.812 66.912 151.812 66.848C151.812 66.7093 151.902 66.64 152.084 66.64H152.644C152.825 66.64 152.953 66.7093 153.028 66.848L156.228 72.112L159.428 66.848ZM169.958 66.64C170.171 66.64 170.278 66.7467 170.278 66.96V67.296C170.278 67.4453 170.235 67.5787 170.15 67.696L163.078 77.056H169.926C170.139 77.056 170.246 77.1627 170.246 77.376V77.68C170.246 77.8933 170.139 78 169.926 78H162.054C161.84 78 161.734 77.8933 161.734 77.68V77.344C161.734 77.1947 161.776 77.0613 161.862 76.944L168.934 67.584H162.39C162.176 67.584 162.07 67.4773 162.07 67.264V66.96C162.07 66.7467 162.176 66.64 162.39 66.64H169.958ZM184.593 70.384C184.636 70.2027 184.759 70.112 184.961 70.112H185.393C185.511 70.112 185.591 70.144 185.633 70.208C185.687 70.272 185.697 70.3573 185.665 70.464L183.601 77.728C183.559 77.9093 183.436 78 183.233 78H182.513C182.332 78 182.215 77.9093 182.161 77.728L181.425 75.28C181.041 74 180.684 72.688 180.353 71.344C180.033 72.6453 179.681 73.968 179.297 75.312L178.593 77.728C178.551 77.9093 178.428 78 178.225 78H177.537C177.335 78 177.212 77.9093 177.169 77.728L175.105 70.464C175.095 70.4427 175.089 70.4053 175.089 70.352C175.089 70.2773 175.116 70.2187 175.169 70.176C175.223 70.1333 175.292 70.112 175.377 70.112H175.809C176.012 70.112 176.135 70.2027 176.177 70.384L176.945 73.216C177.297 74.5067 177.623 75.792 177.921 77.072C178.156 76.1227 178.503 74.8373 178.961 73.216L179.777 70.384C179.82 70.2027 179.943 70.112 180.145 70.112H180.625C180.817 70.112 180.935 70.2027 180.977 70.384L181.809 73.216C182.172 74.528 182.513 75.8187 182.833 77.088C183.079 76.0213 183.409 74.7307 183.825 73.216L184.593 70.384ZM187.868 68.112C187.655 68.112 187.474 68.0373 187.324 67.888C187.186 67.7387 187.116 67.5573 187.116 67.344C187.116 67.1307 187.186 66.9547 187.324 66.816C187.474 66.6773 187.655 66.608 187.868 66.608C188.092 66.608 188.274 66.6773 188.412 66.816C188.562 66.9547 188.636 67.1307 188.636 67.344C188.636 67.5573 188.562 67.7387 188.412 67.888C188.274 68.0373 188.092 68.112 187.868 68.112ZM187.66 78C187.447 78 187.34 77.8933 187.34 77.68V70.432C187.34 70.2187 187.447 70.112 187.66 70.112H188.076C188.29 70.112 188.396 70.2187 188.396 70.432V77.68C188.396 77.8933 188.29 78 188.076 78H187.66ZM194.299 77.12C194.331 77.1093 194.373 77.104 194.427 77.104C194.491 77.104 194.549 77.1253 194.603 77.168C194.656 77.2107 194.688 77.2693 194.699 77.344L194.747 77.568C194.757 77.5893 194.763 77.6267 194.763 77.68C194.763 77.8293 194.683 77.92 194.523 77.952C194.139 78.0693 193.728 78.128 193.291 78.128C192.597 78.128 192.101 77.9733 191.803 77.664C191.515 77.344 191.371 76.8853 191.371 76.288V70.912H190.187C189.973 70.912 189.867 70.8053 189.867 70.592V70.432C189.867 70.2187 189.973 70.112 190.187 70.112H191.371V67.68C191.371 67.4667 191.477 67.36 191.691 67.36H192.107C192.32 67.36 192.427 67.4667 192.427 67.68V70.112H194.347C194.56 70.112 194.667 70.2187 194.667 70.432V70.592C194.667 70.8053 194.56 70.912 194.347 70.912H192.427V76.16C192.427 76.5547 192.501 76.832 192.651 76.992C192.8 77.152 193.056 77.232 193.419 77.232C193.675 77.232 193.968 77.1947 194.299 77.12ZM199.798 69.92C200.715 69.92 201.414 70.1813 201.894 70.704C202.374 71.216 202.614 71.8507 202.614 72.608V77.68C202.614 77.8933 202.507 78 202.294 78H201.878C201.664 78 201.558 77.8933 201.558 77.68V72.96C201.558 72.256 201.387 71.7227 201.046 71.36C200.704 70.9973 200.214 70.816 199.574 70.816C199.168 70.816 198.795 70.9173 198.454 71.12C198.112 71.312 197.84 71.5787 197.638 71.92C197.435 72.2613 197.334 72.6347 197.334 73.04V77.68C197.334 77.8933 197.227 78 197.014 78H196.598C196.384 78 196.278 77.8933 196.278 77.68V66.96C196.278 66.7467 196.384 66.64 196.598 66.64H197.014C197.227 66.64 197.334 66.7467 197.334 66.96V71.136C197.59 70.7307 197.931 70.4267 198.358 70.224C198.795 70.0213 199.275 69.92 199.798 69.92ZM211.389 78.208C210.738 78.208 210.162 78.1173 209.661 77.936C209.17 77.744 208.653 77.424 208.109 76.976C208.013 76.912 207.965 76.8373 207.965 76.752C207.965 76.6773 208.002 76.6027 208.077 76.528L208.285 76.304C208.349 76.2187 208.429 76.176 208.525 76.176C208.6 76.176 208.669 76.208 208.733 76.272C209.245 76.6667 209.698 76.944 210.093 77.104C210.488 77.2533 210.92 77.328 211.389 77.328C211.976 77.328 212.456 77.2 212.829 76.944C213.202 76.6773 213.389 76.32 213.389 75.872C213.389 75.424 213.197 75.0933 212.813 74.88C212.429 74.6667 211.837 74.4747 211.037 74.304C210.333 74.1547 209.778 74 209.373 73.84C208.978 73.6693 208.685 73.456 208.493 73.2C208.301 72.944 208.205 72.608 208.205 72.192C208.205 71.5093 208.482 70.96 209.037 70.544C209.592 70.128 210.29 69.92 211.133 69.92C211.709 69.92 212.221 69.9947 212.669 70.144C213.128 70.2827 213.586 70.5173 214.045 70.848C214.141 70.9227 214.189 71.0027 214.189 71.088C214.189 71.1413 214.162 71.2107 214.109 71.296L213.917 71.536C213.864 71.6213 213.789 71.664 213.693 71.664C213.608 71.664 213.533 71.6373 213.469 71.584C213.032 71.2747 212.642 71.0667 212.301 70.96C211.97 70.8533 211.592 70.8 211.165 70.8C210.578 70.8 210.109 70.928 209.757 71.184C209.405 71.44 209.229 71.7653 209.229 72.16C209.229 72.4053 209.309 72.6027 209.469 72.752C209.629 72.9013 209.858 73.0293 210.157 73.136C210.456 73.232 210.893 73.344 211.469 73.472C212.536 73.7067 213.293 73.9947 213.741 74.336C214.2 74.6773 214.429 75.1733 214.429 75.824C214.429 76.5387 214.146 77.1147 213.581 77.552C213.016 77.9893 212.285 78.208 211.389 78.208ZM219.991 69.936C220.653 69.936 221.245 70.112 221.767 70.464C222.301 70.8053 222.717 71.2907 223.015 71.92C223.314 72.5387 223.463 73.248 223.463 74.048C223.463 74.8587 223.314 75.5787 223.015 76.208C222.717 76.8373 222.306 77.328 221.783 77.68C221.261 78.0213 220.663 78.192 219.991 78.192C218.754 78.192 217.847 77.7387 217.271 76.832V80.624C217.271 80.8373 217.165 80.944 216.951 80.944H216.535C216.322 80.944 216.215 80.8373 216.215 80.624V70.432C216.215 70.2187 216.322 70.112 216.535 70.112H216.887C217.101 70.112 217.207 70.2187 217.207 70.432V71.44C217.495 70.9493 217.874 70.576 218.343 70.32C218.813 70.064 219.362 69.936 219.991 69.936ZM219.911 77.296C220.658 77.296 221.255 76.9973 221.703 76.4C222.151 75.8027 222.375 75.0187 222.375 74.048C222.375 73.088 222.151 72.3147 221.703 71.728C221.255 71.1307 220.658 70.832 219.911 70.832C219.111 70.832 218.461 71.12 217.959 71.696C217.469 72.2613 217.223 73.0453 217.223 74.048C217.223 75.0507 217.474 75.8453 217.975 76.432C218.477 77.008 219.122 77.296 219.911 77.296ZM228.38 69.92C229.351 69.92 230.108 70.1547 230.652 70.624C231.196 71.0827 231.468 71.6907 231.468 72.448V77.68C231.468 77.8933 231.362 78 231.148 78H230.828C230.615 78 230.508 77.8933 230.508 77.68V76.96C230.242 77.3867 229.863 77.7067 229.372 77.92C228.892 78.1333 228.354 78.24 227.756 78.24C226.924 78.24 226.247 78.064 225.724 77.712C225.202 77.36 224.94 76.816 224.94 76.08C224.94 75.4933 225.106 75.024 225.436 74.672C225.767 74.3093 226.199 74.0373 226.732 73.856C227.266 73.664 227.932 73.4933 228.732 73.344L230.46 73.04V72.528C230.46 71.984 230.274 71.5627 229.9 71.264C229.527 70.9547 229.036 70.8 228.428 70.8C227.97 70.8 227.554 70.8853 227.18 71.056C226.807 71.2267 226.407 71.52 225.98 71.936C225.906 72.0107 225.826 72.048 225.74 72.048C225.666 72.048 225.596 72.016 225.532 71.952L225.324 71.76C225.25 71.6853 225.212 71.6053 225.212 71.52C225.212 71.424 225.25 71.3387 225.324 71.264C225.772 70.7947 226.242 70.4533 226.732 70.24C227.234 70.0267 227.783 69.92 228.38 69.92ZM227.804 77.36C228.572 77.36 229.207 77.1573 229.708 76.752C230.21 76.3467 230.46 75.8293 230.46 75.2V73.856L228.972 74.144C228.279 74.2827 227.73 74.416 227.324 74.544C226.919 74.672 226.594 74.8587 226.348 75.104C226.103 75.3493 225.98 75.6693 225.98 76.064C225.98 76.4693 226.14 76.7893 226.46 77.024C226.791 77.248 227.239 77.36 227.804 77.36ZM236.753 70.048C237.02 70.048 237.334 70.0907 237.697 70.176C237.889 70.24 237.964 70.3733 237.921 70.576L237.857 70.832C237.804 71.0347 237.67 71.1093 237.457 71.056C237.201 70.992 236.966 70.96 236.753 70.96C236.209 70.96 235.756 71.1947 235.393 71.664C235.041 72.1333 234.865 72.784 234.865 73.616V77.68C234.865 77.8933 234.758 78 234.545 78H234.129C233.916 78 233.809 77.8933 233.809 77.68V70.432C233.809 70.2187 233.916 70.112 234.129 70.112H234.481C234.694 70.112 234.801 70.2187 234.801 70.432V71.312C234.982 70.9173 235.238 70.608 235.569 70.384C235.91 70.16 236.305 70.048 236.753 70.048ZM244.662 76.128C244.737 76.0533 244.817 76.016 244.902 76.016C244.977 76.016 245.046 76.048 245.11 76.112L245.318 76.304C245.393 76.3787 245.43 76.4587 245.43 76.544C245.43 76.608 245.398 76.6827 245.334 76.768C244.812 77.2907 244.305 77.664 243.814 77.888C243.324 78.1013 242.774 78.208 242.166 78.208C241.398 78.208 240.732 78.0373 240.166 77.696C239.601 77.3547 239.164 76.88 238.854 76.272C238.545 75.6533 238.39 74.9387 238.39 74.128C238.39 73.3067 238.54 72.5813 238.838 71.952C239.148 71.312 239.58 70.816 240.134 70.464C240.689 70.1013 241.329 69.92 242.054 69.92C243.132 69.92 243.98 70.256 244.598 70.928C245.217 71.6 245.526 72.5067 245.526 73.648V73.84C245.516 73.936 245.478 74.0107 245.414 74.064C245.361 74.1173 245.286 74.144 245.19 74.144H239.462C239.494 75.04 239.729 75.7973 240.166 76.416C240.614 77.024 241.281 77.328 242.166 77.328C242.646 77.328 243.068 77.2427 243.43 77.072C243.804 76.8907 244.214 76.576 244.662 76.128ZM242.054 70.8C241.35 70.8 240.769 71.0187 240.31 71.456C239.862 71.8827 239.59 72.512 239.494 73.344H244.47C244.449 72.5653 244.225 71.9467 243.798 71.488C243.372 71.0293 242.79 70.8 242.054 70.8ZM259.906 70.384C259.949 70.2027 260.071 70.112 260.274 70.112H260.706C260.823 70.112 260.903 70.144 260.946 70.208C260.999 70.272 261.01 70.3573 260.978 70.464L258.914 77.728C258.871 77.9093 258.749 78 258.546 78H257.826C257.645 78 257.527 77.9093 257.474 77.728L256.738 75.28C256.354 74 255.997 72.688 255.666 71.344C255.346 72.6453 254.994 73.968 254.61 75.312L253.906 77.728C253.863 77.9093 253.741 78 253.538 78H252.85C252.647 78 252.525 77.9093 252.482 77.728L250.418 70.464C250.407 70.4427 250.402 70.4053 250.402 70.352C250.402 70.2773 250.429 70.2187 250.482 70.176C250.535 70.1333 250.605 70.112 250.69 70.112H251.122C251.325 70.112 251.447 70.2027 251.49 70.384L252.258 73.216C252.61 74.5067 252.935 75.792 253.234 77.072C253.469 76.1227 253.815 74.8373 254.274 73.216L255.09 70.384C255.133 70.2027 255.255 70.112 255.458 70.112H255.938C256.13 70.112 256.247 70.2027 256.29 70.384L257.122 73.216C257.485 74.528 257.826 75.8187 258.146 77.088C258.391 76.0213 258.722 74.7307 259.138 73.216L259.906 70.384ZM266.173 69.92C267.09 69.92 267.789 70.1813 268.269 70.704C268.749 71.216 268.989 71.8507 268.989 72.608V77.68C268.989 77.8933 268.882 78 268.669 78H268.253C268.039 78 267.933 77.8933 267.933 77.68V72.96C267.933 72.256 267.762 71.7227 267.421 71.36C267.079 70.9973 266.589 70.816 265.949 70.816C265.543 70.816 265.17 70.9173 264.829 71.12C264.487 71.312 264.215 71.5787 264.013 71.92C263.81 72.2613 263.709 72.6347 263.709 73.04V77.68C263.709 77.8933 263.602 78 263.389 78H262.973C262.759 78 262.653 77.8933 262.653 77.68V66.96C262.653 66.7467 262.759 66.64 262.973 66.64H263.389C263.602 66.64 263.709 66.7467 263.709 66.96V71.136C263.965 70.7307 264.306 70.4267 264.733 70.224C265.17 70.0213 265.65 69.92 266.173 69.92ZM277.069 76.128C277.143 76.0533 277.223 76.016 277.309 76.016C277.383 76.016 277.453 76.048 277.517 76.112L277.725 76.304C277.799 76.3787 277.837 76.4587 277.837 76.544C277.837 76.608 277.805 76.6827 277.741 76.768C277.218 77.2907 276.711 77.664 276.221 77.888C275.73 78.1013 275.181 78.208 274.573 78.208C273.805 78.208 273.138 78.0373 272.573 77.696C272.007 77.3547 271.57 76.88 271.261 76.272C270.951 75.6533 270.797 74.9387 270.797 74.128C270.797 73.3067 270.946 72.5813 271.245 71.952C271.554 71.312 271.986 70.816 272.541 70.464C273.095 70.1013 273.735 69.92 274.461 69.92C275.538 69.92 276.386 70.256 277.005 70.928C277.623 71.6 277.933 72.5067 277.933 73.648V73.84C277.922 73.936 277.885 74.0107 277.821 74.064C277.767 74.1173 277.693 74.144 277.597 74.144H271.869C271.901 75.04 272.135 75.7973 272.573 76.416C273.021 77.024 273.687 77.328 274.573 77.328C275.053 77.328 275.474 77.2427 275.837 77.072C276.21 76.8907 276.621 76.576 277.069 76.128ZM274.461 70.8C273.757 70.8 273.175 71.0187 272.717 71.456C272.269 71.8827 271.997 72.512 271.901 73.344H276.877C276.855 72.5653 276.631 71.9467 276.205 71.488C275.778 71.0293 275.197 70.8 274.461 70.8ZM285.584 76.128C285.659 76.0533 285.739 76.016 285.824 76.016C285.899 76.016 285.968 76.048 286.032 76.112L286.24 76.304C286.315 76.3787 286.352 76.4587 286.352 76.544C286.352 76.608 286.32 76.6827 286.256 76.768C285.734 77.2907 285.227 77.664 284.736 77.888C284.246 78.1013 283.696 78.208 283.088 78.208C282.32 78.208 281.654 78.0373 281.088 77.696C280.523 77.3547 280.086 76.88 279.776 76.272C279.467 75.6533 279.312 74.9387 279.312 74.128C279.312 73.3067 279.462 72.5813 279.76 71.952C280.07 71.312 280.502 70.816 281.056 70.464C281.611 70.1013 282.251 69.92 282.976 69.92C284.054 69.92 284.902 70.256 285.52 70.928C286.139 71.6 286.448 72.5067 286.448 73.648V73.84C286.438 73.936 286.4 74.0107 286.336 74.064C286.283 74.1173 286.208 74.144 286.112 74.144H280.384C280.416 75.04 280.651 75.7973 281.088 76.416C281.536 77.024 282.203 77.328 283.088 77.328C283.568 77.328 283.99 77.2427 284.352 77.072C284.726 76.8907 285.136 76.576 285.584 76.128ZM282.976 70.8C282.272 70.8 281.691 71.0187 281.232 71.456C280.784 71.8827 280.512 72.512 280.416 73.344H285.392C285.371 72.5653 285.147 71.9467 284.72 71.488C284.294 71.0293 283.712 70.8 282.976 70.8ZM288.676 78C288.463 78 288.356 77.8933 288.356 77.68V66.96C288.356 66.7467 288.463 66.64 288.676 66.64H289.092C289.306 66.64 289.412 66.7467 289.412 66.96V77.68C289.412 77.8933 289.306 78 289.092 78H288.676ZM294.545 78.208C293.895 78.208 293.319 78.1173 292.817 77.936C292.327 77.744 291.809 77.424 291.265 76.976C291.169 76.912 291.121 76.8373 291.121 76.752C291.121 76.6773 291.159 76.6027 291.233 76.528L291.441 76.304C291.505 76.2187 291.585 76.176 291.681 76.176C291.756 76.176 291.825 76.208 291.889 76.272C292.401 76.6667 292.855 76.944 293.249 77.104C293.644 77.2533 294.076 77.328 294.545 77.328C295.132 77.328 295.612 77.2 295.985 76.944C296.359 76.6773 296.545 76.32 296.545 75.872C296.545 75.424 296.353 75.0933 295.969 74.88C295.585 74.6667 294.993 74.4747 294.193 74.304C293.489 74.1547 292.935 74 292.529 73.84C292.135 73.6693 291.841 73.456 291.649 73.2C291.457 72.944 291.361 72.608 291.361 72.192C291.361 71.5093 291.639 70.96 292.193 70.544C292.748 70.128 293.447 69.92 294.289 69.92C294.865 69.92 295.377 69.9947 295.825 70.144C296.284 70.2827 296.743 70.5173 297.201 70.848C297.297 70.9227 297.345 71.0027 297.345 71.088C297.345 71.1413 297.319 71.2107 297.265 71.296L297.073 71.536C297.02 71.6213 296.945 71.664 296.849 71.664C296.764 71.664 296.689 71.6373 296.625 71.584C296.188 71.2747 295.799 71.0667 295.457 70.96C295.127 70.8533 294.748 70.8 294.321 70.8C293.735 70.8 293.265 70.928 292.913 71.184C292.561 71.44 292.385 71.7653 292.385 72.16C292.385 72.4053 292.465 72.6027 292.625 72.752C292.785 72.9013 293.015 73.0293 293.313 73.136C293.612 73.232 294.049 73.344 294.625 73.472C295.692 73.7067 296.449 73.9947 296.897 74.336C297.356 74.6773 297.585 75.1733 297.585 75.824C297.585 76.5387 297.303 77.1147 296.737 77.552C296.172 77.9893 295.441 78.208 294.545 78.208ZM98.224 91.92C99.1947 91.92 99.952 92.1547 100.496 92.624C101.04 93.0827 101.312 93.6907 101.312 94.448V99.68C101.312 99.8933 101.205 100 100.992 100H100.672C100.459 100 100.352 99.8933 100.352 99.68V98.96C100.085 99.3867 99.7067 99.7067 99.216 99.92C98.736 100.133 98.1973 100.24 97.6 100.24C96.768 100.24 96.0907 100.064 95.568 99.712C95.0453 99.36 94.784 98.816 94.784 98.08C94.784 97.4933 94.9493 97.024 95.28 96.672C95.6107 96.3093 96.0427 96.0373 96.576 95.856C97.1093 95.664 97.776 95.4933 98.576 95.344L100.304 95.04V94.528C100.304 93.984 100.117 93.5627 99.744 93.264C99.3707 92.9547 98.88 92.8 98.272 92.8C97.8133 92.8 97.3973 92.8853 97.024 93.056C96.6507 93.2267 96.2507 93.52 95.824 93.936C95.7493 94.0107 95.6693 94.048 95.584 94.048C95.5093 94.048 95.44 94.016 95.376 93.952L95.168 93.76C95.0933 93.6853 95.056 93.6053 95.056 93.52C95.056 93.424 95.0933 93.3387 95.168 93.264C95.616 92.7947 96.0853 92.4533 96.576 92.24C97.0773 92.0267 97.6267 91.92 98.224 91.92ZM97.648 99.36C98.416 99.36 99.0507 99.1573 99.552 98.752C100.053 98.3467 100.304 97.8293 100.304 97.2V95.856L98.816 96.144C98.1227 96.2827 97.5733 96.416 97.168 96.544C96.7627 96.672 96.4373 96.8587 96.192 97.104C95.9467 97.3493 95.824 97.6693 95.824 98.064C95.824 98.4693 95.984 98.7893 96.304 99.024C96.6347 99.248 97.0827 99.36 97.648 99.36ZM107.173 91.92C108.101 91.92 108.799 92.176 109.269 92.688C109.749 93.2 109.989 93.84 109.989 94.608V99.68C109.989 99.8933 109.882 100 109.669 100H109.253C109.039 100 108.933 99.8933 108.933 99.68V94.96C108.933 94.256 108.762 93.7227 108.421 93.36C108.079 92.9973 107.589 92.816 106.949 92.816C106.543 92.816 106.17 92.9173 105.829 93.12C105.487 93.312 105.215 93.5787 105.013 93.92C104.81 94.2613 104.709 94.6347 104.709 95.04V99.68C104.709 99.8933 104.602 100 104.389 100H103.973C103.759 100 103.653 99.8933 103.653 99.68V92.432C103.653 92.2187 103.759 92.112 103.973 92.112H104.325C104.538 92.112 104.645 92.2187 104.645 92.432V93.2C104.911 92.7733 105.263 92.4533 105.701 92.24C106.138 92.0267 106.629 91.92 107.173 91.92ZM118.021 88.96C118.021 88.7467 118.127 88.64 118.341 88.64H118.757C118.97 88.64 119.077 88.7467 119.077 88.96V99.68C119.077 99.8933 118.97 100 118.757 100H118.421C118.207 100 118.101 99.8933 118.101 99.68V98.64C117.813 99.1413 117.434 99.5253 116.965 99.792C116.495 100.059 115.941 100.192 115.301 100.192C114.629 100.192 114.031 100.021 113.509 99.68C112.986 99.328 112.575 98.8427 112.277 98.224C111.978 97.5947 111.829 96.8747 111.829 96.064C111.829 95.2533 111.978 94.5387 112.277 93.92C112.586 93.2907 113.007 92.8053 113.541 92.464C114.074 92.112 114.671 91.936 115.333 91.936C116.549 91.936 117.445 92.3893 118.021 93.296V88.96ZM115.381 99.296C116.181 99.296 116.826 99.0133 117.317 98.448C117.818 97.872 118.069 97.0773 118.069 96.064C118.069 95.0613 117.818 94.272 117.317 93.696C116.826 93.12 116.181 92.832 115.381 92.832C114.645 92.832 114.047 93.1307 113.589 93.728C113.141 94.3253 112.917 95.104 112.917 96.064C112.917 97.0347 113.141 97.8187 113.589 98.416C114.037 99.0027 114.634 99.296 115.381 99.296ZM128.689 99.12C128.721 99.1093 128.764 99.104 128.817 99.104C128.881 99.104 128.94 99.1253 128.993 99.168C129.046 99.2107 129.078 99.2693 129.089 99.344L129.137 99.568C129.148 99.5893 129.153 99.6267 129.153 99.68C129.153 99.8293 129.073 99.92 128.913 99.952C128.529 100.069 128.118 100.128 127.681 100.128C126.988 100.128 126.492 99.9733 126.193 99.664C125.905 99.344 125.761 98.8853 125.761 98.288V92.912H124.577C124.364 92.912 124.257 92.8053 124.257 92.592V92.432C124.257 92.2187 124.364 92.112 124.577 92.112H125.761V89.68C125.761 89.4667 125.868 89.36 126.081 89.36H126.497C126.71 89.36 126.817 89.4667 126.817 89.68V92.112H128.737C128.95 92.112 129.057 92.2187 129.057 92.432V92.592C129.057 92.8053 128.95 92.912 128.737 92.912H126.817V98.16C126.817 98.5547 126.892 98.832 127.041 98.992C127.19 99.152 127.446 99.232 127.809 99.232C128.065 99.232 128.358 99.1947 128.689 99.12ZM139.531 92.384C139.574 92.2027 139.696 92.112 139.899 92.112H140.331C140.448 92.112 140.528 92.144 140.571 92.208C140.624 92.272 140.635 92.3573 140.603 92.464L138.539 99.728C138.496 99.9093 138.374 100 138.171 100H137.451C137.27 100 137.152 99.9093 137.099 99.728L136.363 97.28C135.979 96 135.622 94.688 135.291 93.344C134.971 94.6453 134.619 95.968 134.235 97.312L133.531 99.728C133.488 99.9093 133.366 100 133.163 100H132.475C132.272 100 132.15 99.9093 132.107 99.728L130.043 92.464C130.032 92.4427 130.027 92.4053 130.027 92.352C130.027 92.2773 130.054 92.2187 130.107 92.176C130.16 92.1333 130.23 92.112 130.315 92.112H130.747C130.95 92.112 131.072 92.2027 131.115 92.384L131.883 95.216C132.235 96.5067 132.56 97.792 132.859 99.072C133.094 98.1227 133.44 96.8373 133.899 95.216L134.715 92.384C134.758 92.2027 134.88 92.112 135.083 92.112H135.563C135.755 92.112 135.872 92.2027 135.915 92.384L136.747 95.216C137.11 96.528 137.451 97.8187 137.771 99.088C138.016 98.0213 138.347 96.7307 138.763 95.216L139.531 92.384ZM145.417 100.208C144.681 100.208 144.025 100.032 143.449 99.68C142.873 99.328 142.425 98.8427 142.105 98.224C141.785 97.5947 141.625 96.8747 141.625 96.064C141.625 95.2533 141.785 94.5387 142.105 93.92C142.425 93.2907 142.873 92.8 143.449 92.448C144.025 92.096 144.681 91.92 145.417 91.92C146.153 91.92 146.809 92.096 147.385 92.448C147.961 92.8 148.409 93.2907 148.729 93.92C149.049 94.5387 149.209 95.2533 149.209 96.064C149.209 96.8747 149.049 97.5947 148.729 98.224C148.409 98.8427 147.961 99.328 147.385 99.68C146.809 100.032 146.153 100.208 145.417 100.208ZM145.417 99.328C146.238 99.328 146.894 99.0293 147.385 98.432C147.875 97.824 148.121 97.0347 148.121 96.064C148.121 95.0933 147.875 94.3093 147.385 93.712C146.894 93.104 146.238 92.8 145.417 92.8C144.595 92.8 143.939 93.104 143.449 93.712C142.958 94.3093 142.713 95.0933 142.713 96.064C142.713 97.0347 142.958 97.824 143.449 98.432C143.939 99.0293 144.595 99.328 145.417 99.328ZM158.507 91.936C159.179 91.936 159.776 92.112 160.299 92.464C160.832 92.8053 161.243 93.2907 161.531 93.92C161.83 94.5387 161.979 95.2533 161.979 96.064C161.979 96.8747 161.83 97.5947 161.531 98.224C161.232 98.8427 160.816 99.328 160.283 99.68C159.76 100.021 159.168 100.192 158.507 100.192C157.238 100.192 156.31 99.7013 155.723 98.72V99.68C155.723 99.8933 155.616 100 155.403 100H155.051C154.838 100 154.731 99.8933 154.731 99.68V88.944C154.731 88.7307 154.838 88.624 155.051 88.624H155.467C155.68 88.624 155.787 88.7307 155.787 88.944V93.36C156.374 92.4107 157.28 91.936 158.507 91.936ZM158.427 99.296C159.163 99.296 159.755 98.9973 160.203 98.4C160.662 97.8027 160.891 97.024 160.891 96.064C160.891 95.104 160.662 94.3253 160.203 93.728C159.755 93.1307 159.163 92.832 158.427 92.832C157.638 92.832 156.992 93.12 156.491 93.696C155.99 94.272 155.739 95.0613 155.739 96.064C155.739 97.0773 155.984 97.872 156.475 98.448C156.976 99.0133 157.627 99.296 158.427 99.296ZM166.896 91.92C167.867 91.92 168.624 92.1547 169.168 92.624C169.712 93.0827 169.984 93.6907 169.984 94.448V99.68C169.984 99.8933 169.877 100 169.664 100H169.344C169.131 100 169.024 99.8933 169.024 99.68V98.96C168.757 99.3867 168.379 99.7067 167.888 99.92C167.408 100.133 166.869 100.24 166.272 100.24C165.44 100.24 164.763 100.064 164.24 99.712C163.717 99.36 163.456 98.816 163.456 98.08C163.456 97.4933 163.621 97.024 163.952 96.672C164.283 96.3093 164.715 96.0373 165.248 95.856C165.781 95.664 166.448 95.4933 167.248 95.344L168.976 95.04V94.528C168.976 93.984 168.789 93.5627 168.416 93.264C168.043 92.9547 167.552 92.8 166.944 92.8C166.485 92.8 166.069 92.8853 165.696 93.056C165.323 93.2267 164.923 93.52 164.496 93.936C164.421 94.0107 164.341 94.048 164.256 94.048C164.181 94.048 164.112 94.016 164.048 93.952L163.84 93.76C163.765 93.6853 163.728 93.6053 163.728 93.52C163.728 93.424 163.765 93.3387 163.84 93.264C164.288 92.7947 164.757 92.4533 165.248 92.24C165.749 92.0267 166.299 91.92 166.896 91.92ZM166.32 99.36C167.088 99.36 167.723 99.1573 168.224 98.752C168.725 98.3467 168.976 97.8293 168.976 97.2V95.856L167.488 96.144C166.795 96.2827 166.245 96.416 165.84 96.544C165.435 96.672 165.109 96.8587 164.864 97.104C164.619 97.3493 164.496 97.6693 164.496 98.064C164.496 98.4693 164.656 98.7893 164.976 99.024C165.307 99.248 165.755 99.36 166.32 99.36ZM175.658 99.12C175.69 99.1093 175.733 99.104 175.786 99.104C175.85 99.104 175.909 99.1253 175.962 99.168C176.015 99.2107 176.047 99.2693 176.058 99.344L176.106 99.568C176.117 99.5893 176.122 99.6267 176.122 99.68C176.122 99.8293 176.042 99.92 175.882 99.952C175.498 100.069 175.087 100.128 174.65 100.128C173.957 100.128 173.461 99.9733 173.162 99.664C172.874 99.344 172.73 98.8853 172.73 98.288V92.912H171.546C171.333 92.912 171.226 92.8053 171.226 92.592V92.432C171.226 92.2187 171.333 92.112 171.546 92.112H172.73V89.68C172.73 89.4667 172.837 89.36 173.05 89.36H173.466C173.679 89.36 173.786 89.4667 173.786 89.68V92.112H175.706C175.919 92.112 176.026 92.2187 176.026 92.432V92.592C176.026 92.8053 175.919 92.912 175.706 92.912H173.786V98.16C173.786 98.5547 173.861 98.832 174.01 98.992C174.159 99.152 174.415 99.232 174.778 99.232C175.034 99.232 175.327 99.1947 175.658 99.12ZM181.22 99.12C181.252 99.1093 181.295 99.104 181.348 99.104C181.412 99.104 181.471 99.1253 181.524 99.168C181.578 99.2107 181.61 99.2693 181.62 99.344L181.668 99.568C181.679 99.5893 181.684 99.6267 181.684 99.68C181.684 99.8293 181.604 99.92 181.444 99.952C181.06 100.069 180.65 100.128 180.212 100.128C179.519 100.128 179.023 99.9733 178.724 99.664C178.436 99.344 178.292 98.8853 178.292 98.288V92.912H177.108C176.895 92.912 176.788 92.8053 176.788 92.592V92.432C176.788 92.2187 176.895 92.112 177.108 92.112H178.292V89.68C178.292 89.4667 178.399 89.36 178.612 89.36H179.028C179.242 89.36 179.348 89.4667 179.348 89.68V92.112H181.268C181.482 92.112 181.588 92.2187 181.588 92.432V92.592C181.588 92.8053 181.482 92.912 181.268 92.912H179.348V98.16C179.348 98.5547 179.423 98.832 179.572 98.992C179.722 99.152 179.978 99.232 180.34 99.232C180.596 99.232 180.89 99.1947 181.22 99.12ZM188.647 98.128C188.721 98.0533 188.801 98.016 188.887 98.016C188.961 98.016 189.031 98.048 189.095 98.112L189.303 98.304C189.377 98.3787 189.415 98.4587 189.415 98.544C189.415 98.608 189.383 98.6827 189.319 98.768C188.796 99.2907 188.289 99.664 187.799 99.888C187.308 100.101 186.759 100.208 186.151 100.208C185.383 100.208 184.716 100.037 184.151 99.696C183.585 99.3547 183.148 98.88 182.839 98.272C182.529 97.6533 182.375 96.9387 182.375 96.128C182.375 95.3067 182.524 94.5813 182.823 93.952C183.132 93.312 183.564 92.816 184.119 92.464C184.673 92.1013 185.313 91.92 186.039 91.92C187.116 91.92 187.964 92.256 188.583 92.928C189.201 93.6 189.511 94.5067 189.511 95.648V95.84C189.5 95.936 189.463 96.0107 189.399 96.064C189.345 96.1173 189.271 96.144 189.175 96.144H183.447C183.479 97.04 183.713 97.7973 184.151 98.416C184.599 99.024 185.265 99.328 186.151 99.328C186.631 99.328 187.052 99.2427 187.415 99.072C187.788 98.8907 188.199 98.576 188.647 98.128ZM186.039 92.8C185.335 92.8 184.753 93.0187 184.295 93.456C183.847 93.8827 183.575 94.512 183.479 95.344H188.455C188.433 94.5653 188.209 93.9467 187.783 93.488C187.356 93.0293 186.775 92.8 186.039 92.8ZM194.347 92.048C194.613 92.048 194.928 92.0907 195.291 92.176C195.483 92.24 195.557 92.3733 195.515 92.576L195.451 92.832C195.397 93.0347 195.264 93.1093 195.051 93.056C194.795 92.992 194.56 92.96 194.347 92.96C193.803 92.96 193.349 93.1947 192.987 93.664C192.635 94.1333 192.459 94.784 192.459 95.616V99.68C192.459 99.8933 192.352 100 192.139 100H191.723C191.509 100 191.403 99.8933 191.403 99.68V92.432C191.403 92.2187 191.509 92.112 191.723 92.112H192.075C192.288 92.112 192.395 92.2187 192.395 92.432V93.312C192.576 92.9173 192.832 92.608 193.163 92.384C193.504 92.16 193.899 92.048 194.347 92.048ZM197.478 90.112C197.264 90.112 197.083 90.0373 196.934 89.888C196.795 89.7387 196.726 89.5573 196.726 89.344C196.726 89.1307 196.795 88.9547 196.934 88.816C197.083 88.6773 197.264 88.608 197.478 88.608C197.702 88.608 197.883 88.6773 198.022 88.816C198.171 88.9547 198.246 89.1307 198.246 89.344C198.246 89.5573 198.171 89.7387 198.022 89.888C197.883 90.0373 197.702 90.112 197.478 90.112ZM197.27 100C197.056 100 196.95 99.8933 196.95 99.68V92.432C196.95 92.2187 197.056 92.112 197.27 92.112H197.686C197.899 92.112 198.006 92.2187 198.006 92.432V99.68C198.006 99.8933 197.899 100 197.686 100H197.27ZM206.1 98.128C206.175 98.0533 206.255 98.016 206.34 98.016C206.415 98.016 206.484 98.048 206.548 98.112L206.756 98.304C206.831 98.3787 206.868 98.4587 206.868 98.544C206.868 98.608 206.836 98.6827 206.772 98.768C206.249 99.2907 205.743 99.664 205.252 99.888C204.761 100.101 204.212 100.208 203.604 100.208C202.836 100.208 202.169 100.037 201.604 99.696C201.039 99.3547 200.601 98.88 200.292 98.272C199.983 97.6533 199.828 96.9387 199.828 96.128C199.828 95.3067 199.977 94.5813 200.276 93.952C200.585 93.312 201.017 92.816 201.572 92.464C202.127 92.1013 202.767 91.92 203.492 91.92C204.569 91.92 205.417 92.256 206.036 92.928C206.655 93.6 206.964 94.5067 206.964 95.648V95.84C206.953 95.936 206.916 96.0107 206.852 96.064C206.799 96.1173 206.724 96.144 206.628 96.144H200.9C200.932 97.04 201.167 97.7973 201.604 98.416C202.052 99.024 202.719 99.328 203.604 99.328C204.084 99.328 204.505 99.2427 204.868 99.072C205.241 98.8907 205.652 98.576 206.1 98.128ZM203.492 92.8C202.788 92.8 202.207 93.0187 201.748 93.456C201.3 93.8827 201.028 94.512 200.932 95.344H205.908C205.887 94.5653 205.663 93.9467 205.236 93.488C204.809 93.0293 204.228 92.8 203.492 92.8ZM211.67 100.208C211.02 100.208 210.444 100.117 209.942 99.936C209.452 99.744 208.934 99.424 208.39 98.976C208.294 98.912 208.246 98.8373 208.246 98.752C208.246 98.6773 208.284 98.6027 208.358 98.528L208.566 98.304C208.63 98.2187 208.71 98.176 208.806 98.176C208.881 98.176 208.95 98.208 209.014 98.272C209.526 98.6667 209.98 98.944 210.374 99.104C210.769 99.2533 211.201 99.328 211.67 99.328C212.257 99.328 212.737 99.2 213.11 98.944C213.484 98.6773 213.67 98.32 213.67 97.872C213.67 97.424 213.478 97.0933 213.094 96.88C212.71 96.6667 212.118 96.4747 211.318 96.304C210.614 96.1547 210.06 96 209.654 95.84C209.26 95.6693 208.966 95.456 208.774 95.2C208.582 94.944 208.486 94.608 208.486 94.192C208.486 93.5093 208.764 92.96 209.318 92.544C209.873 92.128 210.572 91.92 211.414 91.92C211.99 91.92 212.502 91.9947 212.95 92.144C213.409 92.2827 213.868 92.5173 214.326 92.848C214.422 92.9227 214.47 93.0027 214.47 93.088C214.47 93.1413 214.444 93.2107 214.39 93.296L214.198 93.536C214.145 93.6213 214.07 93.664 213.974 93.664C213.889 93.664 213.814 93.6373 213.75 93.584C213.313 93.2747 212.924 93.0667 212.582 92.96C212.252 92.8533 211.873 92.8 211.446 92.8C210.86 92.8 210.39 92.928 210.038 93.184C209.686 93.44 209.51 93.7653 209.51 94.16C209.51 94.4053 209.59 94.6027 209.75 94.752C209.91 94.9013 210.14 95.0293 210.438 95.136C210.737 95.232 211.174 95.344 211.75 95.472C212.817 95.7067 213.574 95.9947 214.022 96.336C214.481 96.6773 214.71 97.1733 214.71 97.824C214.71 98.5387 214.428 99.1147 213.862 99.552C213.297 99.9893 212.566 100.208 211.67 100.208Z" fill="#464646"/>
<rect x="42" y="61" width="44" height="24" rx="12" fill="#0063FB"/>
<circle cx="74" cy="73" r="8" fill="white"/>
</svg>
