<svg width="344" height="320" viewBox="0 0 344 320" fill="none" xmlns="http://www.w3.org/2000/svg">
<rect width="344" height="320" fill="#F5F5F5"/>
<rect x="99" y="146" width="44" height="24" rx="12" fill="#D4D4D4"/>
<circle cx="111" cy="158" r="8" fill="white"/>
<rect x="202" y="151" width="44" height="24" rx="12" fill="#0063FB"/>
<circle cx="234" cy="163" r="8" fill="white"/>
<path d="M84.2114 77.72C84.2114 77.56 84.2914 77.48 84.4514 77.48H84.7994C84.9594 77.48 85.0394 77.56 85.0394 77.72V85.76C85.0394 85.92 84.9594 86 84.7994 86H84.2594C84.1314 86 84.0314 85.948 83.9594 85.844L81.3794 81.932L81.2354 81.704C80.2754 80.264 79.5874 79.204 79.1714 78.524C79.2034 79.46 79.2194 80.54 79.2194 81.764V85.76C79.2194 85.92 79.1394 86 78.9794 86H78.6314C78.4714 86 78.3914 85.92 78.3914 85.76V77.72C78.3914 77.56 78.4714 77.48 78.6314 77.48H79.1714C79.2994 77.48 79.3994 77.532 79.4714 77.636L82.0394 81.536L82.4954 82.244C83.3034 83.468 83.8914 84.38 84.2594 84.98C84.2274 84.028 84.2114 82.944 84.2114 81.728V77.72ZM89.4024 86.156C88.8504 86.156 88.3584 86.024 87.9264 85.76C87.4944 85.496 87.1584 85.132 86.9184 84.668C86.6784 84.196 86.5584 83.656 86.5584 83.048C86.5584 82.44 86.6784 81.904 86.9184 81.44C87.1584 80.968 87.4944 80.6 87.9264 80.336C88.3584 80.072 88.8504 79.94 89.4024 79.94C89.9544 79.94 90.4464 80.072 90.8784 80.336C91.3104 80.6 91.6464 80.968 91.8864 81.44C92.1264 81.904 92.2464 82.44 92.2464 83.048C92.2464 83.656 92.1264 84.196 91.8864 84.668C91.6464 85.132 91.3104 85.496 90.8784 85.76C90.4464 86.024 89.9544 86.156 89.4024 86.156ZM89.4024 85.496C90.0184 85.496 90.5104 85.272 90.8784 84.824C91.2464 84.368 91.4304 83.776 91.4304 83.048C91.4304 82.32 91.2464 81.732 90.8784 81.284C90.5104 80.828 90.0184 80.6 89.4024 80.6C88.7864 80.6 88.2944 80.828 87.9264 81.284C87.5584 81.732 87.3744 82.32 87.3744 83.048C87.3744 83.776 87.5584 84.368 87.9264 84.824C88.2944 85.272 88.7864 85.496 89.4024 85.496ZM96.1106 85.34C96.1346 85.332 96.1666 85.328 96.2066 85.328C96.2546 85.328 96.2986 85.344 96.3386 85.376C96.3786 85.408 96.4026 85.452 96.4106 85.508L96.4466 85.676C96.4546 85.692 96.4586 85.72 96.4586 85.76C96.4586 85.872 96.3986 85.94 96.2786 85.964C95.9906 86.052 95.6826 86.096 95.3546 86.096C94.8346 86.096 94.4626 85.98 94.2386 85.748C94.0226 85.508 93.9146 85.164 93.9146 84.716V80.684H93.0266C92.8666 80.684 92.7866 80.604 92.7866 80.444V80.324C92.7866 80.164 92.8666 80.084 93.0266 80.084H93.9146V78.26C93.9146 78.1 93.9946 78.02 94.1546 78.02H94.4666C94.6266 78.02 94.7066 78.1 94.7066 78.26V80.084H96.1466C96.3066 80.084 96.3866 80.164 96.3866 80.324V80.444C96.3866 80.604 96.3066 80.684 96.1466 80.684H94.7066V84.62C94.7066 84.916 94.7626 85.124 94.8746 85.244C94.9866 85.364 95.1786 85.424 95.4506 85.424C95.6426 85.424 95.8626 85.396 96.1106 85.34ZM102.425 86.156C101.937 86.156 101.505 86.088 101.129 85.952C100.761 85.808 100.373 85.568 99.9647 85.232C99.8927 85.184 99.8567 85.128 99.8567 85.064C99.8567 85.008 99.8847 84.952 99.9407 84.896L100.097 84.728C100.145 84.664 100.205 84.632 100.277 84.632C100.333 84.632 100.385 84.656 100.433 84.704C100.817 85 101.157 85.208 101.453 85.328C101.749 85.44 102.073 85.496 102.425 85.496C102.865 85.496 103.225 85.4 103.505 85.208C103.785 85.008 103.925 84.74 103.925 84.404C103.925 84.068 103.781 83.82 103.493 83.66C103.205 83.5 102.761 83.356 102.161 83.228C101.633 83.116 101.217 83 100.913 82.88C100.617 82.752 100.397 82.592 100.253 82.4C100.109 82.208 100.037 81.956 100.037 81.644C100.037 81.132 100.245 80.72 100.661 80.408C101.077 80.096 101.601 79.94 102.233 79.94C102.665 79.94 103.049 79.996 103.385 80.108C103.729 80.212 104.073 80.388 104.417 80.636C104.489 80.692 104.525 80.752 104.525 80.816C104.525 80.856 104.505 80.908 104.465 80.972L104.321 81.152C104.281 81.216 104.225 81.248 104.153 81.248C104.089 81.248 104.033 81.228 103.985 81.188C103.657 80.956 103.365 80.8 103.109 80.72C102.861 80.64 102.577 80.6 102.257 80.6C101.817 80.6 101.465 80.696 101.201 80.888C100.937 81.08 100.805 81.324 100.805 81.62C100.805 81.804 100.865 81.952 100.985 82.064C101.105 82.176 101.277 82.272 101.501 82.352C101.725 82.424 102.053 82.508 102.485 82.604C103.285 82.78 103.853 82.996 104.189 83.252C104.533 83.508 104.705 83.88 104.705 84.368C104.705 84.904 104.493 85.336 104.069 85.664C103.645 85.992 103.097 86.156 102.425 86.156ZM110.352 84.596C110.408 84.54 110.468 84.512 110.532 84.512C110.588 84.512 110.64 84.536 110.688 84.584L110.844 84.728C110.9 84.784 110.928 84.844 110.928 84.908C110.928 84.956 110.904 85.012 110.856 85.076C110.464 85.468 110.084 85.748 109.716 85.916C109.348 86.076 108.936 86.156 108.48 86.156C107.904 86.156 107.404 86.028 106.98 85.772C106.556 85.516 106.228 85.16 105.996 84.704C105.764 84.24 105.648 83.704 105.648 83.096C105.648 82.48 105.76 81.936 105.984 81.464C106.216 80.984 106.54 80.612 106.956 80.348C107.372 80.076 107.852 79.94 108.396 79.94C109.204 79.94 109.84 80.192 110.304 80.696C110.768 81.2 111 81.88 111 82.736V82.88C110.992 82.952 110.964 83.008 110.916 83.048C110.876 83.088 110.82 83.108 110.748 83.108H106.452C106.476 83.78 106.652 84.348 106.98 84.812C107.316 85.268 107.816 85.496 108.48 85.496C108.84 85.496 109.156 85.432 109.428 85.304C109.708 85.168 110.016 84.932 110.352 84.596ZM108.396 80.6C107.868 80.6 107.432 80.764 107.088 81.092C106.752 81.412 106.548 81.884 106.476 82.508H110.208C110.192 81.924 110.024 81.46 109.704 81.116C109.384 80.772 108.948 80.6 108.396 80.6ZM112.671 86C112.511 86 112.431 85.92 112.431 85.76V77.72C112.431 77.56 112.511 77.48 112.671 77.48H112.983C113.143 77.48 113.223 77.56 113.223 77.72V85.76C113.223 85.92 113.143 86 112.983 86H112.671ZM119.317 84.596C119.373 84.54 119.433 84.512 119.497 84.512C119.553 84.512 119.605 84.536 119.653 84.584L119.809 84.728C119.865 84.784 119.893 84.844 119.893 84.908C119.893 84.956 119.869 85.012 119.821 85.076C119.429 85.468 119.049 85.748 118.681 85.916C118.313 86.076 117.901 86.156 117.445 86.156C116.869 86.156 116.369 86.028 115.945 85.772C115.521 85.516 115.193 85.16 114.961 84.704C114.729 84.24 114.613 83.704 114.613 83.096C114.613 82.48 114.725 81.936 114.949 81.464C115.181 80.984 115.505 80.612 115.921 80.348C116.337 80.076 116.817 79.94 117.361 79.94C118.169 79.94 118.805 80.192 119.269 80.696C119.733 81.2 119.965 81.88 119.965 82.736V82.88C119.957 82.952 119.929 83.008 119.881 83.048C119.841 83.088 119.785 83.108 119.713 83.108H115.417C115.441 83.78 115.617 84.348 115.945 84.812C116.281 85.268 116.781 85.496 117.445 85.496C117.805 85.496 118.121 85.432 118.393 85.304C118.673 85.168 118.981 84.932 119.317 84.596ZM117.361 80.6C116.833 80.6 116.397 80.764 116.053 81.092C115.717 81.412 115.513 81.884 115.441 82.508H119.173C119.157 81.924 118.989 81.46 118.669 81.116C118.349 80.772 117.913 80.6 117.361 80.6ZM123.796 86.156C123.228 86.156 122.732 86.028 122.308 85.772C121.892 85.508 121.568 85.144 121.336 84.68C121.112 84.208 121 83.664 121 83.048C121 82.44 121.112 81.9 121.336 81.428C121.568 80.956 121.892 80.592 122.308 80.336C122.732 80.072 123.22 79.94 123.772 79.94C124.22 79.94 124.612 80.016 124.948 80.168C125.284 80.312 125.608 80.552 125.92 80.888C125.968 80.936 125.992 80.988 125.992 81.044C125.992 81.116 125.96 81.176 125.896 81.224L125.728 81.38C125.68 81.428 125.624 81.452 125.56 81.452C125.504 81.452 125.444 81.42 125.38 81.356C125.1 81.076 124.832 80.88 124.576 80.768C124.328 80.656 124.052 80.6 123.748 80.6C123.332 80.6 122.976 80.716 122.68 80.948C122.392 81.18 122.176 81.484 122.032 81.86C121.888 82.228 121.816 82.624 121.816 83.048C121.816 83.472 121.888 83.872 122.032 84.248C122.176 84.616 122.396 84.916 122.692 85.148C122.988 85.372 123.352 85.484 123.784 85.484C124.104 85.484 124.384 85.428 124.624 85.316C124.872 85.196 125.148 84.972 125.452 84.644C125.516 84.58 125.576 84.548 125.632 84.548C125.696 84.548 125.752 84.572 125.8 84.62L125.968 84.752C126.024 84.8 126.052 84.856 126.052 84.92C126.052 84.984 126.016 85.06 125.944 85.148C125.608 85.516 125.272 85.776 124.936 85.928C124.6 86.08 124.22 86.156 123.796 86.156ZM130.036 85.34C130.06 85.332 130.092 85.328 130.132 85.328C130.18 85.328 130.224 85.344 130.264 85.376C130.304 85.408 130.328 85.452 130.336 85.508L130.372 85.676C130.38 85.692 130.384 85.72 130.384 85.76C130.384 85.872 130.324 85.94 130.204 85.964C129.916 86.052 129.608 86.096 129.28 86.096C128.76 86.096 128.388 85.98 128.164 85.748C127.948 85.508 127.84 85.164 127.84 84.716V80.684H126.952C126.792 80.684 126.712 80.604 126.712 80.444V80.324C126.712 80.164 126.792 80.084 126.952 80.084H127.84V78.26C127.84 78.1 127.92 78.02 128.08 78.02H128.392C128.552 78.02 128.632 78.1 128.632 78.26V80.084H130.072C130.232 80.084 130.312 80.164 130.312 80.324V80.444C130.312 80.604 130.232 80.684 130.072 80.684H128.632V84.62C128.632 84.916 128.688 85.124 128.8 85.244C128.912 85.364 129.104 85.424 129.376 85.424C129.568 85.424 129.788 85.396 130.036 85.34ZM135.606 84.596C135.662 84.54 135.722 84.512 135.786 84.512C135.842 84.512 135.894 84.536 135.942 84.584L136.098 84.728C136.154 84.784 136.182 84.844 136.182 84.908C136.182 84.956 136.158 85.012 136.11 85.076C135.718 85.468 135.338 85.748 134.97 85.916C134.602 86.076 134.19 86.156 133.734 86.156C133.158 86.156 132.658 86.028 132.234 85.772C131.81 85.516 131.482 85.16 131.25 84.704C131.018 84.24 130.902 83.704 130.902 83.096C130.902 82.48 131.014 81.936 131.238 81.464C131.47 80.984 131.794 80.612 132.21 80.348C132.626 80.076 133.106 79.94 133.65 79.94C134.458 79.94 135.094 80.192 135.558 80.696C136.022 81.2 136.254 81.88 136.254 82.736V82.88C136.246 82.952 136.218 83.008 136.17 83.048C136.13 83.088 136.074 83.108 136.002 83.108H131.706C131.73 83.78 131.906 84.348 132.234 84.812C132.57 85.268 133.07 85.496 133.734 85.496C134.094 85.496 134.41 85.432 134.682 85.304C134.962 85.168 135.27 84.932 135.606 84.596ZM133.65 80.6C133.122 80.6 132.686 80.764 132.342 81.092C132.006 81.412 131.802 81.884 131.73 82.508H135.462C135.446 81.924 135.278 81.46 134.958 81.116C134.638 80.772 134.202 80.6 133.65 80.6ZM141.957 77.72C141.957 77.56 142.037 77.48 142.197 77.48H142.509C142.669 77.48 142.749 77.56 142.749 77.72V85.76C142.749 85.92 142.669 86 142.509 86H142.257C142.097 86 142.017 85.92 142.017 85.76V84.98C141.801 85.356 141.517 85.644 141.165 85.844C140.813 86.044 140.397 86.144 139.917 86.144C139.413 86.144 138.965 86.016 138.573 85.76C138.181 85.496 137.873 85.132 137.649 84.668C137.425 84.196 137.313 83.656 137.313 83.048C137.313 82.44 137.425 81.904 137.649 81.44C137.881 80.968 138.197 80.604 138.597 80.348C138.997 80.084 139.445 79.952 139.941 79.952C140.853 79.952 141.525 80.292 141.957 80.972V77.72ZM139.977 85.472C140.577 85.472 141.061 85.26 141.429 84.836C141.805 84.404 141.993 83.808 141.993 83.048C141.993 82.296 141.805 81.704 141.429 81.272C141.061 80.84 140.577 80.624 139.977 80.624C139.425 80.624 138.977 80.848 138.633 81.296C138.297 81.744 138.129 82.328 138.129 83.048C138.129 83.776 138.297 84.364 138.633 84.812C138.969 85.252 139.417 85.472 139.977 85.472Z" fill="#464646"/>
<path d="M119.663 114C119.503 114 119.423 113.92 119.423 113.76V106.188H116.915C116.755 106.188 116.675 106.108 116.675 105.948V105.72C116.675 105.56 116.755 105.48 116.915 105.48H122.771C122.931 105.48 123.011 105.56 123.011 105.72V105.948C123.011 106.108 122.931 106.188 122.771 106.188H120.275V113.76C120.275 113.92 120.195 114 120.035 114H119.663ZM125.528 108.036C125.728 108.036 125.964 108.068 126.236 108.132C126.38 108.18 126.436 108.28 126.404 108.432L126.356 108.624C126.316 108.776 126.216 108.832 126.056 108.792C125.864 108.744 125.688 108.72 125.528 108.72C125.12 108.72 124.78 108.896 124.508 109.248C124.244 109.6 124.112 110.088 124.112 110.712V113.76C124.112 113.92 124.032 114 123.872 114H123.56C123.4 114 123.32 113.92 123.32 113.76V108.324C123.32 108.164 123.4 108.084 123.56 108.084H123.824C123.984 108.084 124.064 108.164 124.064 108.324V108.984C124.2 108.688 124.392 108.456 124.64 108.288C124.896 108.12 125.192 108.036 125.528 108.036ZM129.607 107.94C130.335 107.94 130.903 108.116 131.311 108.468C131.719 108.812 131.923 109.268 131.923 109.836V113.76C131.923 113.92 131.843 114 131.683 114H131.443C131.283 114 131.203 113.92 131.203 113.76V113.22C131.003 113.54 130.719 113.78 130.351 113.94C129.991 114.1 129.587 114.18 129.139 114.18C128.515 114.18 128.007 114.048 127.615 113.784C127.223 113.52 127.027 113.112 127.027 112.56C127.027 112.12 127.151 111.768 127.399 111.504C127.647 111.232 127.971 111.028 128.371 110.892C128.771 110.748 129.271 110.62 129.871 110.508L131.167 110.28V109.896C131.167 109.488 131.027 109.172 130.747 108.948C130.467 108.716 130.099 108.6 129.643 108.6C129.299 108.6 128.987 108.664 128.707 108.792C128.427 108.92 128.127 109.14 127.807 109.452C127.751 109.508 127.691 109.536 127.627 109.536C127.571 109.536 127.519 109.512 127.471 109.464L127.315 109.32C127.259 109.264 127.231 109.204 127.231 109.14C127.231 109.068 127.259 109.004 127.315 108.948C127.651 108.596 128.003 108.34 128.371 108.18C128.747 108.02 129.159 107.94 129.607 107.94ZM129.175 113.52C129.751 113.52 130.227 113.368 130.603 113.064C130.979 112.76 131.167 112.372 131.167 111.9V110.892L130.051 111.108C129.531 111.212 129.119 111.312 128.815 111.408C128.511 111.504 128.267 111.644 128.083 111.828C127.899 112.012 127.807 112.252 127.807 112.548C127.807 112.852 127.927 113.092 128.167 113.268C128.415 113.436 128.751 113.52 129.175 113.52ZM136.079 114.156C135.511 114.156 135.015 114.028 134.591 113.772C134.175 113.508 133.851 113.144 133.619 112.68C133.395 112.208 133.283 111.664 133.283 111.048C133.283 110.44 133.395 109.9 133.619 109.428C133.851 108.956 134.175 108.592 134.591 108.336C135.015 108.072 135.503 107.94 136.055 107.94C136.503 107.94 136.895 108.016 137.231 108.168C137.567 108.312 137.891 108.552 138.203 108.888C138.251 108.936 138.275 108.988 138.275 109.044C138.275 109.116 138.243 109.176 138.179 109.224L138.011 109.38C137.963 109.428 137.907 109.452 137.843 109.452C137.787 109.452 137.727 109.42 137.663 109.356C137.383 109.076 137.115 108.88 136.859 108.768C136.611 108.656 136.335 108.6 136.031 108.6C135.615 108.6 135.259 108.716 134.963 108.948C134.675 109.18 134.459 109.484 134.315 109.86C134.171 110.228 134.099 110.624 134.099 111.048C134.099 111.472 134.171 111.872 134.315 112.248C134.459 112.616 134.679 112.916 134.975 113.148C135.271 113.372 135.635 113.484 136.067 113.484C136.387 113.484 136.667 113.428 136.907 113.316C137.155 113.196 137.431 112.972 137.735 112.644C137.799 112.58 137.859 112.548 137.915 112.548C137.979 112.548 138.035 112.572 138.083 112.62L138.251 112.752C138.307 112.8 138.335 112.856 138.335 112.92C138.335 112.984 138.299 113.06 138.227 113.148C137.891 113.516 137.555 113.776 137.219 113.928C136.883 114.08 136.503 114.156 136.079 114.156ZM143.892 114C143.772 114 143.676 113.948 143.604 113.844L141.576 110.892L140.412 112.08V113.76C140.412 113.92 140.332 114 140.172 114H139.86C139.7 114 139.62 113.92 139.62 113.76V105.72C139.62 105.56 139.7 105.48 139.86 105.48H140.172C140.332 105.48 140.412 105.56 140.412 105.72V111.18L143.292 108.192C143.364 108.112 143.464 108.072 143.592 108.072H143.928C143.992 108.072 144.04 108.088 144.072 108.12C144.112 108.144 144.132 108.176 144.132 108.216C144.132 108.256 144.108 108.308 144.06 108.372L142.128 110.388L144.396 113.712C144.428 113.768 144.444 113.816 144.444 113.856C144.444 113.952 144.38 114 144.252 114H143.892Z" fill="#464646"/>
<path d="M194.872 241.18C194.24 241.18 193.668 241.084 193.156 240.892C192.652 240.692 192.12 240.368 191.56 239.92C191.488 239.856 191.452 239.796 191.452 239.74C191.452 239.692 191.476 239.64 191.524 239.584L191.716 239.356C191.756 239.292 191.816 239.26 191.896 239.26C191.96 239.26 192.012 239.28 192.052 239.32C192.62 239.76 193.116 240.06 193.54 240.22C193.964 240.372 194.408 240.448 194.872 240.448C195.52 240.448 196.048 240.288 196.456 239.968C196.864 239.64 197.068 239.196 197.068 238.636C197.068 238.276 196.972 237.988 196.78 237.772C196.588 237.556 196.324 237.388 195.988 237.268C195.66 237.148 195.192 237.02 194.584 236.884C193.856 236.724 193.288 236.552 192.88 236.368C192.48 236.184 192.188 235.952 192.004 235.672C191.82 235.392 191.728 235.032 191.728 234.592C191.728 234.128 191.86 233.724 192.124 233.38C192.396 233.028 192.756 232.76 193.204 232.576C193.652 232.392 194.136 232.3 194.656 232.3C195.224 232.3 195.74 232.384 196.204 232.552C196.676 232.72 197.14 232.988 197.596 233.356C197.668 233.404 197.704 233.46 197.704 233.524C197.704 233.572 197.68 233.628 197.632 233.692L197.452 233.908C197.412 233.972 197.352 234.004 197.272 234.004C197.208 234.004 197.152 233.984 197.104 233.944C196.696 233.608 196.3 233.372 195.916 233.236C195.54 233.1 195.124 233.032 194.668 233.032C194.252 233.032 193.884 233.1 193.564 233.236C193.244 233.364 192.992 233.544 192.808 233.776C192.632 234.008 192.544 234.272 192.544 234.568C192.544 234.888 192.632 235.144 192.808 235.336C192.992 235.528 193.244 235.68 193.564 235.792C193.892 235.904 194.368 236.032 194.992 236.176C195.712 236.344 196.28 236.532 196.696 236.74C197.12 236.948 197.428 237.204 197.62 237.508C197.812 237.804 197.908 238.172 197.908 238.612C197.908 239.124 197.776 239.576 197.512 239.968C197.256 240.352 196.896 240.652 196.432 240.868C195.968 241.076 195.448 241.18 194.872 241.18ZM203.692 239.596C203.748 239.54 203.808 239.512 203.872 239.512C203.928 239.512 203.98 239.536 204.028 239.584L204.184 239.728C204.24 239.784 204.268 239.844 204.268 239.908C204.268 239.956 204.244 240.012 204.196 240.076C203.804 240.468 203.424 240.748 203.056 240.916C202.688 241.076 202.276 241.156 201.82 241.156C201.244 241.156 200.744 241.028 200.32 240.772C199.896 240.516 199.568 240.16 199.336 239.704C199.104 239.24 198.988 238.704 198.988 238.096C198.988 237.48 199.1 236.936 199.324 236.464C199.556 235.984 199.88 235.612 200.296 235.348C200.712 235.076 201.192 234.94 201.736 234.94C202.544 234.94 203.18 235.192 203.644 235.696C204.108 236.2 204.34 236.88 204.34 237.736V237.88C204.332 237.952 204.304 238.008 204.256 238.048C204.216 238.088 204.16 238.108 204.088 238.108H199.792C199.816 238.78 199.992 239.348 200.32 239.812C200.656 240.268 201.156 240.496 201.82 240.496C202.18 240.496 202.496 240.432 202.768 240.304C203.048 240.168 203.356 239.932 203.692 239.596ZM201.736 235.6C201.208 235.6 200.772 235.764 200.428 236.092C200.092 236.412 199.888 236.884 199.816 237.508H203.548C203.532 236.924 203.364 236.46 203.044 236.116C202.724 235.772 202.288 235.6 201.736 235.6ZM206.011 241C205.851 241 205.771 240.92 205.771 240.76V232.72C205.771 232.56 205.851 232.48 206.011 232.48H206.323C206.483 232.48 206.563 232.56 206.563 232.72V240.76C206.563 240.92 206.483 241 206.323 241H206.011ZM212.657 239.596C212.713 239.54 212.773 239.512 212.837 239.512C212.893 239.512 212.945 239.536 212.993 239.584L213.149 239.728C213.205 239.784 213.233 239.844 213.233 239.908C213.233 239.956 213.209 240.012 213.161 240.076C212.769 240.468 212.389 240.748 212.021 240.916C211.653 241.076 211.241 241.156 210.785 241.156C210.209 241.156 209.709 241.028 209.285 240.772C208.861 240.516 208.533 240.16 208.301 239.704C208.069 239.24 207.953 238.704 207.953 238.096C207.953 237.48 208.065 236.936 208.289 236.464C208.521 235.984 208.845 235.612 209.261 235.348C209.677 235.076 210.157 234.94 210.701 234.94C211.509 234.94 212.145 235.192 212.609 235.696C213.073 236.2 213.305 236.88 213.305 237.736V237.88C213.297 237.952 213.269 238.008 213.221 238.048C213.181 238.088 213.125 238.108 213.053 238.108H208.757C208.781 238.78 208.957 239.348 209.285 239.812C209.621 240.268 210.121 240.496 210.785 240.496C211.145 240.496 211.461 240.432 211.733 240.304C212.013 240.168 212.321 239.932 212.657 239.596ZM210.701 235.6C210.173 235.6 209.737 235.764 209.393 236.092C209.057 236.412 208.853 236.884 208.781 237.508H212.513C212.497 236.924 212.329 236.46 212.009 236.116C211.689 235.772 211.253 235.6 210.701 235.6ZM217.136 241.156C216.568 241.156 216.072 241.028 215.648 240.772C215.232 240.508 214.908 240.144 214.676 239.68C214.452 239.208 214.34 238.664 214.34 238.048C214.34 237.44 214.452 236.9 214.676 236.428C214.908 235.956 215.232 235.592 215.648 235.336C216.072 235.072 216.56 234.94 217.112 234.94C217.56 234.94 217.952 235.016 218.288 235.168C218.624 235.312 218.948 235.552 219.26 235.888C219.308 235.936 219.332 235.988 219.332 236.044C219.332 236.116 219.3 236.176 219.236 236.224L219.068 236.38C219.02 236.428 218.964 236.452 218.9 236.452C218.844 236.452 218.784 236.42 218.72 236.356C218.44 236.076 218.172 235.88 217.916 235.768C217.668 235.656 217.392 235.6 217.088 235.6C216.672 235.6 216.316 235.716 216.02 235.948C215.732 236.18 215.516 236.484 215.372 236.86C215.228 237.228 215.156 237.624 215.156 238.048C215.156 238.472 215.228 238.872 215.372 239.248C215.516 239.616 215.736 239.916 216.032 240.148C216.328 240.372 216.692 240.484 217.124 240.484C217.444 240.484 217.724 240.428 217.964 240.316C218.212 240.196 218.488 239.972 218.792 239.644C218.856 239.58 218.916 239.548 218.972 239.548C219.036 239.548 219.092 239.572 219.14 239.62L219.308 239.752C219.364 239.8 219.392 239.856 219.392 239.92C219.392 239.984 219.356 240.06 219.284 240.148C218.948 240.516 218.612 240.776 218.276 240.928C217.94 241.08 217.56 241.156 217.136 241.156ZM223.376 240.34C223.4 240.332 223.432 240.328 223.472 240.328C223.52 240.328 223.564 240.344 223.604 240.376C223.644 240.408 223.668 240.452 223.676 240.508L223.712 240.676C223.72 240.692 223.724 240.72 223.724 240.76C223.724 240.872 223.664 240.94 223.544 240.964C223.256 241.052 222.948 241.096 222.62 241.096C222.1 241.096 221.728 240.98 221.504 240.748C221.288 240.508 221.18 240.164 221.18 239.716V235.684H220.292C220.132 235.684 220.052 235.604 220.052 235.444V235.324C220.052 235.164 220.132 235.084 220.292 235.084H221.18V233.26C221.18 233.1 221.26 233.02 221.42 233.02H221.732C221.892 233.02 221.972 233.1 221.972 233.26V235.084H223.412C223.572 235.084 223.652 235.164 223.652 235.324V235.444C223.652 235.604 223.572 235.684 223.412 235.684H221.972V239.62C221.972 239.916 222.028 240.124 222.14 240.244C222.252 240.364 222.444 240.424 222.716 240.424C222.908 240.424 223.128 240.396 223.376 240.34ZM228.946 239.596C229.002 239.54 229.062 239.512 229.126 239.512C229.182 239.512 229.234 239.536 229.282 239.584L229.438 239.728C229.494 239.784 229.522 239.844 229.522 239.908C229.522 239.956 229.498 240.012 229.45 240.076C229.058 240.468 228.678 240.748 228.31 240.916C227.942 241.076 227.53 241.156 227.074 241.156C226.498 241.156 225.998 241.028 225.574 240.772C225.15 240.516 224.822 240.16 224.59 239.704C224.358 239.24 224.242 238.704 224.242 238.096C224.242 237.48 224.354 236.936 224.578 236.464C224.81 235.984 225.134 235.612 225.55 235.348C225.966 235.076 226.446 234.94 226.99 234.94C227.798 234.94 228.434 235.192 228.898 235.696C229.362 236.2 229.594 236.88 229.594 237.736V237.88C229.586 237.952 229.558 238.008 229.51 238.048C229.47 238.088 229.414 238.108 229.342 238.108H225.046C225.07 238.78 225.246 239.348 225.574 239.812C225.91 240.268 226.41 240.496 227.074 240.496C227.434 240.496 227.75 240.432 228.022 240.304C228.302 240.168 228.61 239.932 228.946 239.596ZM226.99 235.6C226.462 235.6 226.026 235.764 225.682 236.092C225.346 236.412 225.142 236.884 225.07 237.508H228.802C228.786 236.924 228.618 236.46 228.298 236.116C227.978 235.772 227.542 235.6 226.99 235.6ZM235.297 232.72C235.297 232.56 235.377 232.48 235.537 232.48H235.849C236.009 232.48 236.089 232.56 236.089 232.72V240.76C236.089 240.92 236.009 241 235.849 241H235.597C235.437 241 235.357 240.92 235.357 240.76V239.98C235.141 240.356 234.857 240.644 234.505 240.844C234.153 241.044 233.737 241.144 233.257 241.144C232.753 241.144 232.305 241.016 231.913 240.76C231.521 240.496 231.213 240.132 230.989 239.668C230.765 239.196 230.653 238.656 230.653 238.048C230.653 237.44 230.765 236.904 230.989 236.44C231.221 235.968 231.537 235.604 231.937 235.348C232.337 235.084 232.785 234.952 233.281 234.952C234.193 234.952 234.865 235.292 235.297 235.972V232.72ZM233.317 240.472C233.917 240.472 234.401 240.26 234.769 239.836C235.145 239.404 235.333 238.808 235.333 238.048C235.333 237.296 235.145 236.704 234.769 236.272C234.401 235.84 233.917 235.624 233.317 235.624C232.765 235.624 232.317 235.848 231.973 236.296C231.637 236.744 231.469 237.328 231.469 238.048C231.469 238.776 231.637 239.364 231.973 239.812C232.309 240.252 232.757 240.472 233.317 240.472Z" fill="#464646"/>
<path d="M218.598 216C218.438 216 218.358 215.92 218.358 215.76V207.72C218.358 207.56 218.438 207.48 218.598 207.48H218.97C219.13 207.48 219.21 207.56 219.21 207.72V211.248H224.13V207.72C224.13 207.56 224.21 207.48 224.37 207.48H224.742C224.902 207.48 224.982 207.56 224.982 207.72V215.76C224.982 215.92 224.902 216 224.742 216H224.37C224.21 216 224.13 215.92 224.13 215.76V211.956H219.21V215.76C219.21 215.92 219.13 216 218.97 216H218.598ZM229.178 209.94C229.906 209.94 230.474 210.116 230.882 210.468C231.29 210.812 231.494 211.268 231.494 211.836V215.76C231.494 215.92 231.414 216 231.254 216H231.014C230.854 216 230.774 215.92 230.774 215.76V215.22C230.574 215.54 230.29 215.78 229.922 215.94C229.562 216.1 229.158 216.18 228.71 216.18C228.086 216.18 227.578 216.048 227.186 215.784C226.794 215.52 226.598 215.112 226.598 214.56C226.598 214.12 226.722 213.768 226.97 213.504C227.218 213.232 227.542 213.028 227.942 212.892C228.342 212.748 228.842 212.62 229.442 212.508L230.738 212.28V211.896C230.738 211.488 230.598 211.172 230.318 210.948C230.038 210.716 229.67 210.6 229.214 210.6C228.87 210.6 228.558 210.664 228.278 210.792C227.998 210.92 227.698 211.14 227.378 211.452C227.322 211.508 227.262 211.536 227.198 211.536C227.142 211.536 227.09 211.512 227.042 211.464L226.886 211.32C226.83 211.264 226.802 211.204 226.802 211.14C226.802 211.068 226.83 211.004 226.886 210.948C227.222 210.596 227.574 210.34 227.942 210.18C228.318 210.02 228.73 209.94 229.178 209.94ZM228.746 215.52C229.322 215.52 229.798 215.368 230.174 215.064C230.55 214.76 230.738 214.372 230.738 213.9V212.892L229.622 213.108C229.102 213.212 228.69 213.312 228.386 213.408C228.082 213.504 227.838 213.644 227.654 213.828C227.47 214.012 227.378 214.252 227.378 214.548C227.378 214.852 227.498 215.092 227.738 215.268C227.986 215.436 228.322 215.52 228.746 215.52ZM235.889 209.94C236.585 209.94 237.109 210.132 237.461 210.516C237.821 210.9 238.001 211.38 238.001 211.956V215.76C238.001 215.92 237.921 216 237.761 216H237.449C237.289 216 237.209 215.92 237.209 215.76V212.22C237.209 211.692 237.081 211.292 236.825 211.02C236.569 210.748 236.201 210.612 235.721 210.612C235.417 210.612 235.137 210.688 234.881 210.84C234.625 210.984 234.421 211.184 234.269 211.44C234.117 211.696 234.041 211.976 234.041 212.28V215.76C234.041 215.92 233.961 216 233.801 216H233.489C233.329 216 233.249 215.92 233.249 215.76V210.324C233.249 210.164 233.329 210.084 233.489 210.084H233.753C233.913 210.084 233.993 210.164 233.993 210.324V210.9C234.193 210.58 234.457 210.34 234.785 210.18C235.113 210.02 235.481 209.94 235.889 209.94ZM244.025 207.72C244.025 207.56 244.105 207.48 244.265 207.48H244.577C244.737 207.48 244.817 207.56 244.817 207.72V215.76C244.817 215.92 244.737 216 244.577 216H244.325C244.165 216 244.085 215.92 244.085 215.76V214.98C243.869 215.356 243.585 215.644 243.233 215.844C242.881 216.044 242.465 216.144 241.985 216.144C241.481 216.144 241.033 216.016 240.641 215.76C240.249 215.496 239.941 215.132 239.717 214.668C239.493 214.196 239.381 213.656 239.381 213.048C239.381 212.44 239.493 211.904 239.717 211.44C239.949 210.968 240.265 210.604 240.665 210.348C241.065 210.084 241.513 209.952 242.009 209.952C242.921 209.952 243.593 210.292 244.025 210.972V207.72ZM242.045 215.472C242.645 215.472 243.129 215.26 243.497 214.836C243.873 214.404 244.061 213.808 244.061 213.048C244.061 212.296 243.873 211.704 243.497 211.272C243.129 210.84 242.645 210.624 242.045 210.624C241.493 210.624 241.045 210.848 240.701 211.296C240.365 211.744 240.197 212.328 240.197 213.048C240.197 213.776 240.365 214.364 240.701 214.812C241.037 215.252 241.485 215.472 242.045 215.472ZM246.849 216C246.689 216 246.609 215.92 246.609 215.76V207.72C246.609 207.56 246.689 207.48 246.849 207.48H247.161C247.321 207.48 247.401 207.56 247.401 207.72V215.76C247.401 215.92 247.321 216 247.161 216H246.849ZM253.495 214.596C253.551 214.54 253.611 214.512 253.675 214.512C253.731 214.512 253.783 214.536 253.831 214.584L253.987 214.728C254.043 214.784 254.071 214.844 254.071 214.908C254.071 214.956 254.047 215.012 253.999 215.076C253.607 215.468 253.227 215.748 252.859 215.916C252.491 216.076 252.079 216.156 251.623 216.156C251.047 216.156 250.547 216.028 250.123 215.772C249.699 215.516 249.371 215.16 249.139 214.704C248.907 214.24 248.791 213.704 248.791 213.096C248.791 212.48 248.903 211.936 249.127 211.464C249.359 210.984 249.683 210.612 250.099 210.348C250.515 210.076 250.995 209.94 251.539 209.94C252.347 209.94 252.983 210.192 253.447 210.696C253.911 211.2 254.143 211.88 254.143 212.736V212.88C254.135 212.952 254.107 213.008 254.059 213.048C254.019 213.088 253.963 213.108 253.891 213.108H249.595C249.619 213.78 249.795 214.348 250.123 214.812C250.459 215.268 250.959 215.496 251.623 215.496C251.983 215.496 252.299 215.432 252.571 215.304C252.851 215.168 253.159 214.932 253.495 214.596ZM251.539 210.6C251.011 210.6 250.575 210.764 250.231 211.092C249.895 211.412 249.691 211.884 249.619 212.508H253.351C253.335 211.924 253.167 211.46 252.847 211.116C252.527 210.772 252.091 210.6 251.539 210.6Z" fill="#464646"/>
<path d="M110 136C110 136.552 110.448 137 111 137C111.552 137 112 136.552 112 136L110 136ZM110 94L110 136L112 136L112 94L110 94Z" fill="#06BEFB"/>
<circle cx="111" cy="139" r="3" fill="#06BEFB"/>
<path d="M130 154C130 154.552 130.448 155 131 155C131.552 155 132 154.552 132 154L130 154ZM130 120L130 154L132 154L132 120L130 120Z" fill="#06BEFB"/>
<circle cx="131" cy="157" r="3" fill="#06BEFB"/>
<path d="M215 185C215 184.448 214.552 184 214 184C213.448 184 213 184.448 213 185L215 185ZM215 227L215 185L213 185L213 227L215 227Z" fill="#06BEFB"/>
<circle cx="214" cy="182" r="3" transform="rotate(180 214 182)" fill="#06BEFB"/>
<path d="M235 168C235 167.448 234.552 167 234 167C233.448 167 233 167.448 233 168L235 168ZM235 202L235 168L233 168L233 202L235 202Z" fill="#06BEFB"/>
<circle cx="234" cy="165" r="3" transform="rotate(180 234 165)" fill="#06BEFB"/>
</svg>
