<svg width="344" height="320" viewBox="0 0 344 320" fill="none" xmlns="http://www.w3.org/2000/svg">
<rect width="344" height="320" fill="#F5F5F5"/>
<rect x="78" y="96" width="44" height="24" rx="12" fill="#0063FB"/>
<circle cx="110" cy="108" r="8" fill="white"/>
<rect x="78" y="148" width="44" height="24" rx="12" fill="#D4D4D4"/>
<circle cx="90" cy="160" r="8" fill="white"/>
<rect x="78" y="200" width="44" height="24" rx="12" fill="#D4D4D4"/>
<circle cx="90" cy="212" r="8" fill="white"/>
<path d="M147.2 113C147.019 113 146.896 112.915 146.832 112.744L145.776 109.816H140.608L139.568 112.744C139.504 112.915 139.381 113 139.2 113H138.704C138.619 113 138.549 112.979 138.496 112.936C138.443 112.893 138.416 112.835 138.416 112.76L138.448 112.632L142.368 101.896C142.432 101.725 142.555 101.64 142.736 101.64H143.664C143.845 101.64 143.968 101.725 144.032 101.896L147.952 112.632L147.984 112.76C147.984 112.835 147.957 112.893 147.904 112.936C147.851 112.979 147.781 113 147.696 113H147.2ZM145.424 108.856L144.864 107.288L144.736 106.952C144.587 106.547 144.341 105.869 144 104.92C143.669 103.971 143.397 103.165 143.184 102.504C142.896 103.411 142.443 104.728 141.824 106.456C141.781 106.573 141.733 106.701 141.68 106.84C141.627 106.979 141.573 107.128 141.52 107.288L140.96 108.856H145.424ZM153.986 105.368C154.05 105.197 154.172 105.112 154.354 105.112H154.77C154.855 105.112 154.924 105.133 154.978 105.176C155.031 105.219 155.058 105.277 155.058 105.352L155.026 105.48L152.482 112.744C152.418 112.915 152.295 113 152.114 113H151.266C151.084 113 150.962 112.915 150.898 112.744L148.37 105.48L148.338 105.352C148.338 105.277 148.364 105.219 148.418 105.176C148.471 105.133 148.54 105.112 148.626 105.112H149.058C149.239 105.112 149.362 105.197 149.426 105.368L150.402 108.184C150.807 109.357 151.239 110.707 151.698 112.232C151.719 112.168 151.778 111.987 151.874 111.688C152.311 110.248 152.69 109.08 153.01 108.184L153.986 105.368ZM159.583 104.92C160.554 104.92 161.311 105.155 161.855 105.624C162.399 106.083 162.671 106.691 162.671 107.448V112.68C162.671 112.893 162.565 113 162.351 113H162.031C161.818 113 161.711 112.893 161.711 112.68V111.96C161.445 112.387 161.066 112.707 160.575 112.92C160.095 113.133 159.557 113.24 158.959 113.24C158.127 113.24 157.45 113.064 156.927 112.712C156.405 112.36 156.143 111.816 156.143 111.08C156.143 110.493 156.309 110.024 156.639 109.672C156.97 109.309 157.402 109.037 157.935 108.856C158.469 108.664 159.135 108.493 159.935 108.344L161.663 108.04V107.528C161.663 106.984 161.477 106.563 161.103 106.264C160.73 105.955 160.239 105.8 159.631 105.8C159.173 105.8 158.757 105.885 158.383 106.056C158.01 106.227 157.61 106.52 157.183 106.936C157.109 107.011 157.029 107.048 156.943 107.048C156.869 107.048 156.799 107.016 156.735 106.952L156.527 106.76C156.453 106.685 156.415 106.605 156.415 106.52C156.415 106.424 156.453 106.339 156.527 106.264C156.975 105.795 157.445 105.453 157.935 105.24C158.437 105.027 158.986 104.92 159.583 104.92ZM159.007 112.36C159.775 112.36 160.41 112.157 160.911 111.752C161.413 111.347 161.663 110.829 161.663 110.2V108.856L160.175 109.144C159.482 109.283 158.933 109.416 158.527 109.544C158.122 109.672 157.797 109.859 157.551 110.104C157.306 110.349 157.183 110.669 157.183 111.064C157.183 111.469 157.343 111.789 157.663 112.024C157.994 112.248 158.442 112.36 159.007 112.36ZM165.348 113C165.135 113 165.028 112.893 165.028 112.68V101.96C165.028 101.747 165.135 101.64 165.348 101.64H165.764C165.977 101.64 166.084 101.747 166.084 101.96V112.68C166.084 112.893 165.977 113 165.764 113H165.348ZM168.993 103.112C168.78 103.112 168.599 103.037 168.449 102.888C168.311 102.739 168.241 102.557 168.241 102.344C168.241 102.131 168.311 101.955 168.449 101.816C168.599 101.677 168.78 101.608 168.993 101.608C169.217 101.608 169.399 101.677 169.537 101.816C169.687 101.955 169.761 102.131 169.761 102.344C169.761 102.557 169.687 102.739 169.537 102.888C169.399 103.037 169.217 103.112 168.993 103.112ZM168.785 113C168.572 113 168.465 112.893 168.465 112.68V105.432C168.465 105.219 168.572 105.112 168.785 105.112H169.201C169.415 105.112 169.521 105.219 169.521 105.432V112.68C169.521 112.893 169.415 113 169.201 113H168.785ZM174.911 104.92C175.882 104.92 176.64 105.155 177.184 105.624C177.728 106.083 178 106.691 178 107.448V112.68C178 112.893 177.893 113 177.68 113H177.36C177.146 113 177.04 112.893 177.04 112.68V111.96C176.773 112.387 176.394 112.707 175.904 112.92C175.424 113.133 174.885 113.24 174.288 113.24C173.456 113.24 172.778 113.064 172.256 112.712C171.733 112.36 171.472 111.816 171.472 111.08C171.472 110.493 171.637 110.024 171.968 109.672C172.298 109.309 172.73 109.037 173.264 108.856C173.797 108.664 174.464 108.493 175.264 108.344L176.992 108.04V107.528C176.992 106.984 176.805 106.563 176.432 106.264C176.058 105.955 175.568 105.8 174.96 105.8C174.501 105.8 174.085 105.885 173.712 106.056C173.338 106.227 172.938 106.52 172.512 106.936C172.437 107.011 172.357 107.048 172.272 107.048C172.197 107.048 172.128 107.016 172.064 106.952L171.856 106.76C171.781 106.685 171.743 106.605 171.743 106.52C171.743 106.424 171.781 106.339 171.856 106.264C172.304 105.795 172.773 105.453 173.264 105.24C173.765 105.027 174.314 104.92 174.911 104.92ZM174.336 112.36C175.104 112.36 175.738 112.157 176.24 111.752C176.741 111.347 176.992 110.829 176.992 110.2V108.856L175.504 109.144C174.81 109.283 174.261 109.416 173.856 109.544C173.45 109.672 173.125 109.859 172.88 110.104C172.634 110.349 172.512 110.669 172.512 111.064C172.512 111.469 172.672 111.789 172.992 112.024C173.322 112.248 173.77 112.36 174.336 112.36ZM184.116 104.936C184.788 104.936 185.386 105.112 185.908 105.464C186.442 105.805 186.852 106.291 187.14 106.92C187.439 107.539 187.588 108.253 187.588 109.064C187.588 109.875 187.439 110.595 187.14 111.224C186.842 111.843 186.426 112.328 185.892 112.68C185.37 113.021 184.778 113.192 184.116 113.192C182.847 113.192 181.919 112.701 181.332 111.72V112.68C181.332 112.893 181.226 113 181.012 113H180.66C180.447 113 180.34 112.893 180.34 112.68V101.944C180.34 101.731 180.447 101.624 180.66 101.624H181.076C181.29 101.624 181.396 101.731 181.396 101.944V106.36C181.983 105.411 182.89 104.936 184.116 104.936ZM184.036 112.296C184.772 112.296 185.364 111.997 185.812 111.4C186.271 110.803 186.5 110.024 186.5 109.064C186.5 108.104 186.271 107.325 185.812 106.728C185.364 106.131 184.772 105.832 184.036 105.832C183.247 105.832 182.602 106.12 182.1 106.696C181.599 107.272 181.348 108.061 181.348 109.064C181.348 110.077 181.594 110.872 182.084 111.448C182.586 112.013 183.236 112.296 184.036 112.296ZM189.801 113C189.588 113 189.481 112.893 189.481 112.68V101.96C189.481 101.747 189.588 101.64 189.801 101.64H190.217C190.431 101.64 190.537 101.747 190.537 101.96V112.68C190.537 112.893 190.431 113 190.217 113H189.801ZM198.662 111.128C198.737 111.053 198.817 111.016 198.902 111.016C198.977 111.016 199.046 111.048 199.11 111.112L199.318 111.304C199.393 111.379 199.43 111.459 199.43 111.544C199.43 111.608 199.398 111.683 199.334 111.768C198.812 112.291 198.305 112.664 197.814 112.888C197.324 113.101 196.774 113.208 196.166 113.208C195.398 113.208 194.732 113.037 194.166 112.696C193.601 112.355 193.164 111.88 192.854 111.272C192.545 110.653 192.39 109.939 192.39 109.128C192.39 108.307 192.54 107.581 192.838 106.952C193.148 106.312 193.58 105.816 194.134 105.464C194.689 105.101 195.329 104.92 196.054 104.92C197.132 104.92 197.98 105.256 198.598 105.928C199.217 106.6 199.526 107.507 199.526 108.648V108.84C199.516 108.936 199.478 109.011 199.414 109.064C199.361 109.117 199.286 109.144 199.19 109.144H193.462C193.494 110.04 193.729 110.797 194.166 111.416C194.614 112.024 195.281 112.328 196.166 112.328C196.646 112.328 197.068 112.243 197.43 112.072C197.804 111.891 198.214 111.576 198.662 111.128ZM196.054 105.8C195.35 105.8 194.769 106.019 194.31 106.456C193.862 106.883 193.59 107.512 193.494 108.344H198.47C198.449 107.565 198.225 106.947 197.798 106.488C197.372 106.029 196.79 105.8 196.054 105.8ZM208.37 113.208C207.634 113.208 206.978 113.032 206.402 112.68C205.826 112.328 205.378 111.843 205.058 111.224C204.738 110.595 204.578 109.875 204.578 109.064C204.578 108.253 204.738 107.539 205.058 106.92C205.378 106.291 205.826 105.8 206.402 105.448C206.978 105.096 207.634 104.92 208.37 104.92C209.106 104.92 209.762 105.096 210.338 105.448C210.914 105.8 211.362 106.291 211.682 106.92C212.002 107.539 212.162 108.253 212.162 109.064C212.162 109.875 212.002 110.595 211.682 111.224C211.362 111.843 210.914 112.328 210.338 112.68C209.762 113.032 209.106 113.208 208.37 113.208ZM208.37 112.328C209.191 112.328 209.847 112.029 210.338 111.432C210.829 110.824 211.074 110.035 211.074 109.064C211.074 108.093 210.829 107.309 210.338 106.712C209.847 106.104 209.191 105.8 208.37 105.8C207.549 105.8 206.893 106.104 206.402 106.712C205.911 107.309 205.666 108.093 205.666 109.064C205.666 110.035 205.911 110.824 206.402 111.432C206.893 112.029 207.549 112.328 208.37 112.328ZM216.848 102.328C216.368 102.328 216.027 102.456 215.824 102.712C215.622 102.957 215.52 103.373 215.52 103.96V105.112H217.28C217.494 105.112 217.6 105.219 217.6 105.432V105.592C217.6 105.805 217.494 105.912 217.28 105.912H215.52V112.68C215.52 112.893 215.414 113 215.2 113H214.784C214.571 113 214.464 112.893 214.464 112.68V105.912H213.28C213.067 105.912 212.96 105.805 212.96 105.592V105.432C212.96 105.219 213.067 105.112 213.28 105.112H214.464V103.784C214.464 103.048 214.656 102.472 215.04 102.056C215.435 101.64 215.995 101.432 216.72 101.432C217.126 101.432 217.542 101.491 217.968 101.608C218.171 101.672 218.246 101.805 218.192 102.008L218.128 102.232C218.075 102.381 217.968 102.456 217.808 102.456C217.776 102.456 217.707 102.445 217.6 102.424C217.366 102.36 217.115 102.328 216.848 102.328ZM222.255 102.328C221.775 102.328 221.433 102.456 221.231 102.712C221.028 102.957 220.927 103.373 220.927 103.96V105.112H222.687C222.9 105.112 223.007 105.219 223.007 105.432V105.592C223.007 105.805 222.9 105.912 222.687 105.912H220.927V112.68C220.927 112.893 220.82 113 220.607 113H220.191C219.977 113 219.871 112.893 219.871 112.68V105.912H218.687C218.473 105.912 218.367 105.805 218.367 105.592V105.432C218.367 105.219 218.473 105.112 218.687 105.112H219.871V103.784C219.871 103.048 220.063 102.472 220.447 102.056C220.841 101.64 221.401 101.432 222.127 101.432C222.532 101.432 222.948 101.491 223.375 101.608C223.577 101.672 223.652 101.805 223.599 102.008L223.535 102.232C223.481 102.381 223.375 102.456 223.215 102.456C223.183 102.456 223.113 102.445 223.007 102.424C222.772 102.36 222.521 102.328 222.255 102.328ZM224.895 113C224.682 113 224.575 112.893 224.575 112.68V101.96C224.575 101.747 224.682 101.64 224.895 101.64H225.311C225.524 101.64 225.631 101.747 225.631 101.96V112.68C225.631 112.893 225.524 113 225.311 113H224.895ZM228.54 103.112C228.327 103.112 228.145 103.037 227.996 102.888C227.857 102.739 227.788 102.557 227.788 102.344C227.788 102.131 227.857 101.955 227.996 101.816C228.145 101.677 228.327 101.608 228.54 101.608C228.764 101.608 228.945 101.677 229.084 101.816C229.233 101.955 229.308 102.131 229.308 102.344C229.308 102.557 229.233 102.739 229.084 102.888C228.945 103.037 228.764 103.112 228.54 103.112ZM228.332 113C228.119 113 228.012 112.893 228.012 112.68V105.432C228.012 105.219 228.119 105.112 228.332 105.112H228.748C228.961 105.112 229.068 105.219 229.068 105.432V112.68C229.068 112.893 228.961 113 228.748 113H228.332ZM234.938 104.92C235.866 104.92 236.565 105.176 237.034 105.688C237.514 106.2 237.754 106.84 237.754 107.608V112.68C237.754 112.893 237.648 113 237.434 113H237.018C236.805 113 236.698 112.893 236.698 112.68V107.96C236.698 107.256 236.528 106.723 236.186 106.36C235.845 105.997 235.354 105.816 234.714 105.816C234.309 105.816 233.936 105.917 233.594 106.12C233.253 106.312 232.981 106.579 232.778 106.92C232.576 107.261 232.474 107.635 232.474 108.04V112.68C232.474 112.893 232.368 113 232.154 113H231.738C231.525 113 231.418 112.893 231.418 112.68V105.432C231.418 105.219 231.525 105.112 231.738 105.112H232.09C232.304 105.112 232.41 105.219 232.41 105.432V106.2C232.677 105.773 233.029 105.453 233.466 105.24C233.904 105.027 234.394 104.92 234.938 104.92ZM245.834 111.128C245.909 111.053 245.989 111.016 246.074 111.016C246.149 111.016 246.218 111.048 246.282 111.112L246.49 111.304C246.565 111.379 246.602 111.459 246.602 111.544C246.602 111.608 246.57 111.683 246.506 111.768C245.984 112.291 245.477 112.664 244.986 112.888C244.496 113.101 243.946 113.208 243.338 113.208C242.57 113.208 241.904 113.037 241.338 112.696C240.773 112.355 240.336 111.88 240.026 111.272C239.717 110.653 239.562 109.939 239.562 109.128C239.562 108.307 239.712 107.581 240.01 106.952C240.32 106.312 240.752 105.816 241.306 105.464C241.861 105.101 242.501 104.92 243.226 104.92C244.304 104.92 245.152 105.256 245.77 105.928C246.389 106.6 246.698 107.507 246.698 108.648V108.84C246.688 108.936 246.65 109.011 246.586 109.064C246.533 109.117 246.458 109.144 246.362 109.144H240.634C240.666 110.04 240.901 110.797 241.338 111.416C241.786 112.024 242.453 112.328 243.338 112.328C243.818 112.328 244.24 112.243 244.602 112.072C244.976 111.891 245.386 111.576 245.834 111.128ZM243.226 105.8C242.522 105.8 241.941 106.019 241.482 106.456C241.034 106.883 240.762 107.512 240.666 108.344H245.642C245.621 107.565 245.397 106.947 244.97 106.488C244.544 106.029 243.962 105.8 243.226 105.8Z" fill="#464646"/>
<path d="M147.648 164.616C147.691 164.669 147.712 164.728 147.712 164.792C147.712 164.931 147.621 165 147.44 165H146.848C146.688 165 146.56 164.931 146.464 164.792L143.424 160.28H140.512V164.68C140.512 164.893 140.405 165 140.192 165H139.696C139.483 165 139.376 164.893 139.376 164.68V153.96C139.376 153.747 139.483 153.64 139.696 153.64H143.872C144.96 153.64 145.84 153.933 146.512 154.52C147.184 155.096 147.52 155.907 147.52 156.952C147.52 157.869 147.259 158.611 146.736 159.176C146.224 159.741 145.531 160.088 144.656 160.216L147.648 164.616ZM140.512 159.336H143.696C144.539 159.336 145.2 159.133 145.68 158.728C146.16 158.323 146.4 157.731 146.4 156.952C146.4 156.184 146.155 155.597 145.664 155.192C145.184 154.787 144.523 154.584 143.68 154.584H140.512V159.336ZM155.162 163.128C155.237 163.053 155.317 163.016 155.402 163.016C155.477 163.016 155.546 163.048 155.61 163.112L155.818 163.304C155.893 163.379 155.93 163.459 155.93 163.544C155.93 163.608 155.898 163.683 155.834 163.768C155.312 164.291 154.805 164.664 154.314 164.888C153.824 165.101 153.274 165.208 152.666 165.208C151.898 165.208 151.232 165.037 150.666 164.696C150.101 164.355 149.664 163.88 149.354 163.272C149.045 162.653 148.89 161.939 148.89 161.128C148.89 160.307 149.04 159.581 149.338 158.952C149.648 158.312 150.08 157.816 150.634 157.464C151.189 157.101 151.829 156.92 152.554 156.92C153.632 156.92 154.48 157.256 155.098 157.928C155.717 158.6 156.026 159.507 156.026 160.648V160.84C156.016 160.936 155.978 161.011 155.914 161.064C155.861 161.117 155.786 161.144 155.69 161.144H149.962C149.994 162.04 150.229 162.797 150.666 163.416C151.114 164.024 151.781 164.328 152.666 164.328C153.146 164.328 153.568 164.243 153.93 164.072C154.304 163.891 154.714 163.576 155.162 163.128ZM152.554 157.8C151.85 157.8 151.269 158.019 150.81 158.456C150.362 158.883 150.09 159.512 149.994 160.344H154.97C154.949 159.565 154.725 158.947 154.298 158.488C153.872 158.029 153.29 157.8 152.554 157.8ZM163.71 157.432C163.71 157.219 163.817 157.112 164.03 157.112H164.366C164.579 157.112 164.686 157.219 164.686 157.432V167.624C164.686 167.837 164.579 167.944 164.366 167.944H163.95C163.737 167.944 163.63 167.837 163.63 167.624V163.8C163.054 164.728 162.153 165.192 160.926 165.192C160.265 165.192 159.667 165.021 159.134 164.68C158.611 164.328 158.195 163.837 157.886 163.208C157.587 162.579 157.438 161.859 157.438 161.048C157.438 160.248 157.587 159.539 157.886 158.92C158.195 158.291 158.611 157.805 159.134 157.464C159.667 157.112 160.265 156.936 160.926 156.936C161.566 156.936 162.121 157.069 162.59 157.336C163.059 157.592 163.433 157.965 163.71 158.456V157.432ZM160.99 164.296C161.779 164.296 162.425 164.008 162.926 163.432C163.427 162.845 163.678 162.051 163.678 161.048C163.678 160.045 163.427 159.261 162.926 158.696C162.435 158.12 161.79 157.832 160.99 157.832C160.254 157.832 159.657 158.131 159.198 158.728C158.75 159.315 158.526 160.088 158.526 161.048C158.526 161.688 158.627 162.253 158.83 162.744C159.043 163.235 159.331 163.619 159.694 163.896C160.067 164.163 160.499 164.296 160.99 164.296ZM172.179 157.432C172.179 157.219 172.286 157.112 172.499 157.112H172.915C173.128 157.112 173.235 157.219 173.235 157.432V164.68C173.235 164.893 173.128 165 172.915 165H172.579C172.366 165 172.259 164.893 172.259 164.68V163.96C172.024 164.376 171.688 164.691 171.251 164.904C170.824 165.107 170.355 165.208 169.843 165.208C168.883 165.208 168.174 164.968 167.715 164.488C167.256 163.997 167.027 163.368 167.027 162.6V157.432C167.027 157.219 167.134 157.112 167.347 157.112H167.763C167.976 157.112 168.083 157.219 168.083 157.432V162.376C168.083 163.005 168.238 163.485 168.547 163.816C168.867 164.136 169.32 164.296 169.907 164.296C170.568 164.296 171.112 164.093 171.539 163.688C171.966 163.283 172.179 162.707 172.179 161.96V157.432ZM176.134 155.112C175.921 155.112 175.739 155.037 175.59 154.888C175.451 154.739 175.382 154.557 175.382 154.344C175.382 154.131 175.451 153.955 175.59 153.816C175.739 153.677 175.921 153.608 176.134 153.608C176.358 153.608 176.539 153.677 176.678 153.816C176.827 153.955 176.902 154.131 176.902 154.344C176.902 154.557 176.827 154.739 176.678 154.888C176.539 155.037 176.358 155.112 176.134 155.112ZM175.926 165C175.713 165 175.606 164.893 175.606 164.68V157.432C175.606 157.219 175.713 157.112 175.926 157.112H176.342C176.555 157.112 176.662 157.219 176.662 157.432V164.68C176.662 164.893 176.555 165 176.342 165H175.926ZM181.956 157.048C182.223 157.048 182.537 157.091 182.9 157.176C183.092 157.24 183.167 157.373 183.124 157.576L183.06 157.832C183.007 158.035 182.873 158.109 182.66 158.056C182.404 157.992 182.169 157.96 181.956 157.96C181.412 157.96 180.959 158.195 180.596 158.664C180.244 159.133 180.068 159.784 180.068 160.616V164.68C180.068 164.893 179.961 165 179.748 165H179.332C179.119 165 179.012 164.893 179.012 164.68V157.432C179.012 157.219 179.119 157.112 179.332 157.112H179.684C179.897 157.112 180.004 157.219 180.004 157.432V158.312C180.185 157.917 180.441 157.608 180.772 157.384C181.113 157.16 181.508 157.048 181.956 157.048ZM189.866 163.128C189.94 163.053 190.02 163.016 190.106 163.016C190.18 163.016 190.25 163.048 190.314 163.112L190.522 163.304C190.596 163.379 190.634 163.459 190.634 163.544C190.634 163.608 190.602 163.683 190.538 163.768C190.015 164.291 189.508 164.664 189.018 164.888C188.527 165.101 187.978 165.208 187.37 165.208C186.602 165.208 185.935 165.037 185.37 164.696C184.804 164.355 184.367 163.88 184.058 163.272C183.748 162.653 183.594 161.939 183.594 161.128C183.594 160.307 183.743 159.581 184.042 158.952C184.351 158.312 184.783 157.816 185.338 157.464C185.892 157.101 186.532 156.92 187.258 156.92C188.335 156.92 189.183 157.256 189.802 157.928C190.42 158.6 190.73 159.507 190.73 160.648V160.84C190.719 160.936 190.682 161.011 190.618 161.064C190.564 161.117 190.49 161.144 190.394 161.144H184.666C184.698 162.04 184.932 162.797 185.37 163.416C185.818 164.024 186.484 164.328 187.37 164.328C187.85 164.328 188.271 164.243 188.634 164.072C189.007 163.891 189.418 163.576 189.866 163.128ZM187.258 157.8C186.554 157.8 185.972 158.019 185.514 158.456C185.066 158.883 184.794 159.512 184.698 160.344H189.674C189.652 159.565 189.428 158.947 189.002 158.488C188.575 158.029 187.994 157.8 187.258 157.8ZM200.085 156.936C200.746 156.936 201.338 157.112 201.861 157.464C202.394 157.805 202.81 158.291 203.109 158.92C203.408 159.539 203.557 160.248 203.557 161.048C203.557 161.859 203.408 162.579 203.109 163.208C202.81 163.837 202.4 164.328 201.877 164.68C201.354 165.021 200.757 165.192 200.085 165.192C198.848 165.192 197.941 164.739 197.365 163.832V167.624C197.365 167.837 197.258 167.944 197.045 167.944H196.629C196.416 167.944 196.309 167.837 196.309 167.624V157.432C196.309 157.219 196.416 157.112 196.629 157.112H196.981C197.194 157.112 197.301 157.219 197.301 157.432V158.44C197.589 157.949 197.968 157.576 198.437 157.32C198.906 157.064 199.456 156.936 200.085 156.936ZM200.005 164.296C200.752 164.296 201.349 163.997 201.797 163.4C202.245 162.803 202.469 162.019 202.469 161.048C202.469 160.088 202.245 159.315 201.797 158.728C201.349 158.131 200.752 157.832 200.005 157.832C199.205 157.832 198.554 158.12 198.053 158.696C197.562 159.261 197.317 160.045 197.317 161.048C197.317 162.051 197.568 162.845 198.069 163.432C198.57 164.008 199.216 164.296 200.005 164.296ZM208.474 156.92C209.445 156.92 210.202 157.155 210.746 157.624C211.29 158.083 211.562 158.691 211.562 159.448V164.68C211.562 164.893 211.455 165 211.242 165H210.922C210.709 165 210.602 164.893 210.602 164.68V163.96C210.335 164.387 209.957 164.707 209.466 164.92C208.986 165.133 208.447 165.24 207.85 165.24C207.018 165.24 206.341 165.064 205.818 164.712C205.295 164.36 205.034 163.816 205.034 163.08C205.034 162.493 205.199 162.024 205.53 161.672C205.861 161.309 206.293 161.037 206.826 160.856C207.359 160.664 208.026 160.493 208.826 160.344L210.554 160.04V159.528C210.554 158.984 210.367 158.563 209.994 158.264C209.621 157.955 209.13 157.8 208.522 157.8C208.063 157.8 207.647 157.885 207.274 158.056C206.901 158.227 206.501 158.52 206.074 158.936C205.999 159.011 205.919 159.048 205.834 159.048C205.759 159.048 205.69 159.016 205.626 158.952L205.418 158.76C205.343 158.685 205.306 158.605 205.306 158.52C205.306 158.424 205.343 158.339 205.418 158.264C205.866 157.795 206.335 157.453 206.826 157.24C207.327 157.027 207.877 156.92 208.474 156.92ZM207.898 164.36C208.666 164.36 209.301 164.157 209.802 163.752C210.303 163.347 210.554 162.829 210.554 162.2V160.856L209.066 161.144C208.373 161.283 207.823 161.416 207.418 161.544C207.013 161.672 206.687 161.859 206.442 162.104C206.197 162.349 206.074 162.669 206.074 163.064C206.074 163.469 206.234 163.789 206.554 164.024C206.885 164.248 207.333 164.36 207.898 164.36ZM216.655 165.208C216.004 165.208 215.428 165.117 214.927 164.936C214.436 164.744 213.919 164.424 213.375 163.976C213.279 163.912 213.231 163.837 213.231 163.752C213.231 163.677 213.268 163.603 213.343 163.528L213.551 163.304C213.615 163.219 213.695 163.176 213.791 163.176C213.865 163.176 213.935 163.208 213.999 163.272C214.511 163.667 214.964 163.944 215.359 164.104C215.753 164.253 216.185 164.328 216.655 164.328C217.241 164.328 217.721 164.2 218.095 163.944C218.468 163.677 218.655 163.32 218.655 162.872C218.655 162.424 218.463 162.093 218.079 161.88C217.695 161.667 217.103 161.475 216.303 161.304C215.599 161.155 215.044 161 214.639 160.84C214.244 160.669 213.951 160.456 213.759 160.2C213.567 159.944 213.471 159.608 213.471 159.192C213.471 158.509 213.748 157.96 214.303 157.544C214.857 157.128 215.556 156.92 216.399 156.92C216.975 156.92 217.487 156.995 217.935 157.144C218.393 157.283 218.852 157.517 219.311 157.848C219.407 157.923 219.455 158.003 219.455 158.088C219.455 158.141 219.428 158.211 219.375 158.296L219.183 158.536C219.129 158.621 219.055 158.664 218.959 158.664C218.873 158.664 218.799 158.637 218.735 158.584C218.297 158.275 217.908 158.067 217.567 157.96C217.236 157.853 216.857 157.8 216.431 157.8C215.844 157.8 215.375 157.928 215.023 158.184C214.671 158.44 214.495 158.765 214.495 159.16C214.495 159.405 214.575 159.603 214.735 159.752C214.895 159.901 215.124 160.029 215.423 160.136C215.721 160.232 216.159 160.344 216.735 160.472C217.801 160.707 218.559 160.995 219.007 161.336C219.465 161.677 219.695 162.173 219.695 162.824C219.695 163.539 219.412 164.115 218.847 164.552C218.281 164.989 217.551 165.208 216.655 165.208ZM224.233 165.208C223.582 165.208 223.006 165.117 222.505 164.936C222.014 164.744 221.497 164.424 220.953 163.976C220.857 163.912 220.809 163.837 220.809 163.752C220.809 163.677 220.846 163.603 220.921 163.528L221.129 163.304C221.193 163.219 221.273 163.176 221.369 163.176C221.444 163.176 221.513 163.208 221.577 163.272C222.089 163.667 222.542 163.944 222.937 164.104C223.332 164.253 223.764 164.328 224.233 164.328C224.82 164.328 225.3 164.2 225.673 163.944C226.046 163.677 226.233 163.32 226.233 162.872C226.233 162.424 226.041 162.093 225.657 161.88C225.273 161.667 224.681 161.475 223.881 161.304C223.177 161.155 222.622 161 222.217 160.84C221.822 160.669 221.529 160.456 221.337 160.2C221.145 159.944 221.049 159.608 221.049 159.192C221.049 158.509 221.326 157.96 221.881 157.544C222.436 157.128 223.134 156.92 223.977 156.92C224.553 156.92 225.065 156.995 225.513 157.144C225.972 157.283 226.43 157.517 226.889 157.848C226.985 157.923 227.033 158.003 227.033 158.088C227.033 158.141 227.006 158.211 226.953 158.296L226.761 158.536C226.708 158.621 226.633 158.664 226.537 158.664C226.452 158.664 226.377 158.637 226.313 158.584C225.876 158.275 225.486 158.067 225.145 157.96C224.814 157.853 224.436 157.8 224.009 157.8C223.422 157.8 222.953 157.928 222.601 158.184C222.249 158.44 222.073 158.765 222.073 159.16C222.073 159.405 222.153 159.603 222.313 159.752C222.473 159.901 222.702 160.029 223.001 160.136C223.3 160.232 223.737 160.344 224.313 160.472C225.38 160.707 226.137 160.995 226.585 161.336C227.044 161.677 227.273 162.173 227.273 162.824C227.273 163.539 226.99 164.115 226.425 164.552C225.86 164.989 225.129 165.208 224.233 165.208ZM237.797 157.384C237.839 157.203 237.962 157.112 238.165 157.112H238.597C238.714 157.112 238.794 157.144 238.837 157.208C238.89 157.272 238.901 157.357 238.869 157.464L236.805 164.728C236.762 164.909 236.639 165 236.437 165H235.717C235.535 165 235.418 164.909 235.365 164.728L234.629 162.28C234.245 161 233.887 159.688 233.557 158.344C233.237 159.645 232.885 160.968 232.501 162.312L231.797 164.728C231.754 164.909 231.631 165 231.429 165H230.741C230.538 165 230.415 164.909 230.373 164.728L228.309 157.464C228.298 157.443 228.293 157.405 228.293 157.352C228.293 157.277 228.319 157.219 228.373 157.176C228.426 157.133 228.495 157.112 228.581 157.112H229.013C229.215 157.112 229.338 157.203 229.381 157.384L230.149 160.216C230.501 161.507 230.826 162.792 231.125 164.072C231.359 163.123 231.706 161.837 232.165 160.216L232.981 157.384C233.023 157.203 233.146 157.112 233.349 157.112H233.829C234.021 157.112 234.138 157.203 234.181 157.384L235.013 160.216C235.375 161.528 235.717 162.819 236.036 164.088C236.282 163.021 236.613 161.731 237.029 160.216L237.797 157.384ZM243.682 165.208C242.946 165.208 242.29 165.032 241.714 164.68C241.138 164.328 240.69 163.843 240.37 163.224C240.05 162.595 239.89 161.875 239.89 161.064C239.89 160.253 240.05 159.539 240.37 158.92C240.69 158.291 241.138 157.8 241.714 157.448C242.29 157.096 242.946 156.92 243.682 156.92C244.418 156.92 245.074 157.096 245.65 157.448C246.226 157.8 246.674 158.291 246.994 158.92C247.314 159.539 247.474 160.253 247.474 161.064C247.474 161.875 247.314 162.595 246.994 163.224C246.674 163.843 246.226 164.328 245.65 164.68C245.074 165.032 244.418 165.208 243.682 165.208ZM243.682 164.328C244.504 164.328 245.16 164.029 245.65 163.432C246.141 162.824 246.386 162.035 246.386 161.064C246.386 160.093 246.141 159.309 245.65 158.712C245.16 158.104 244.504 157.8 243.682 157.8C242.861 157.8 242.205 158.104 241.714 158.712C241.224 159.309 240.978 160.093 240.978 161.064C240.978 162.035 241.224 162.824 241.714 163.432C242.205 164.029 242.861 164.328 243.682 164.328ZM252.253 157.048C252.52 157.048 252.834 157.091 253.197 157.176C253.389 157.24 253.464 157.373 253.421 157.576L253.357 157.832C253.304 158.035 253.17 158.109 252.957 158.056C252.701 157.992 252.466 157.96 252.253 157.96C251.709 157.96 251.256 158.195 250.893 158.664C250.541 159.133 250.365 159.784 250.365 160.616V164.68C250.365 164.893 250.258 165 250.045 165H249.629C249.416 165 249.309 164.893 249.309 164.68V157.432C249.309 157.219 249.416 157.112 249.629 157.112H249.981C250.194 157.112 250.301 157.219 250.301 157.432V158.312C250.482 157.917 250.738 157.608 251.069 157.384C251.41 157.16 251.805 157.048 252.253 157.048ZM260.114 153.96C260.114 153.747 260.221 153.64 260.434 153.64H260.85C261.064 153.64 261.17 153.747 261.17 153.96V164.68C261.17 164.893 261.064 165 260.85 165H260.514C260.301 165 260.194 164.893 260.194 164.68V163.64C259.906 164.141 259.528 164.525 259.058 164.792C258.589 165.059 258.034 165.192 257.394 165.192C256.722 165.192 256.125 165.021 255.602 164.68C255.08 164.328 254.669 163.843 254.37 163.224C254.072 162.595 253.922 161.875 253.922 161.064C253.922 160.253 254.072 159.539 254.37 158.92C254.68 158.291 255.101 157.805 255.634 157.464C256.168 157.112 256.765 156.936 257.426 156.936C258.642 156.936 259.538 157.389 260.114 158.296V153.96ZM257.474 164.296C258.274 164.296 258.92 164.013 259.41 163.448C259.912 162.872 260.162 162.077 260.162 161.064C260.162 160.061 259.912 159.272 259.41 158.696C258.92 158.12 258.274 157.832 257.474 157.832C256.738 157.832 256.141 158.131 255.682 158.728C255.234 159.325 255.01 160.104 255.01 161.064C255.01 162.035 255.234 162.819 255.682 163.416C256.13 164.003 256.728 164.296 257.474 164.296Z" fill="#464646"/>
<path d="M147.2 217C147.019 217 146.896 216.915 146.832 216.744L145.776 213.816H140.608L139.568 216.744C139.504 216.915 139.381 217 139.2 217H138.704C138.619 217 138.549 216.979 138.496 216.936C138.443 216.893 138.416 216.835 138.416 216.76L138.448 216.632L142.368 205.896C142.432 205.725 142.555 205.64 142.736 205.64H143.664C143.845 205.64 143.968 205.725 144.032 205.896L147.952 216.632L147.984 216.76C147.984 216.835 147.957 216.893 147.904 216.936C147.851 216.979 147.781 217 147.696 217H147.2ZM145.424 212.856L144.864 211.288L144.736 210.952C144.587 210.547 144.341 209.869 144 208.92C143.669 207.971 143.397 207.165 143.184 206.504C142.896 207.411 142.443 208.728 141.824 210.456C141.781 210.573 141.733 210.701 141.68 210.84C141.627 210.979 141.573 211.128 141.52 211.288L140.96 212.856H145.424ZM149.926 217C149.713 217 149.606 216.893 149.606 216.68V205.96C149.606 205.747 149.713 205.64 149.926 205.64H150.342C150.556 205.64 150.662 205.747 150.662 205.96V216.68C150.662 216.893 150.556 217 150.342 217H149.926ZM153.379 217C153.166 217 153.059 216.893 153.059 216.68V205.96C153.059 205.747 153.166 205.64 153.379 205.64H153.795C154.009 205.64 154.115 205.747 154.115 205.96V216.68C154.115 216.893 154.009 217 153.795 217H153.379ZM159.761 217.208C159.025 217.208 158.369 217.032 157.793 216.68C157.217 216.328 156.769 215.843 156.449 215.224C156.129 214.595 155.969 213.875 155.969 213.064C155.969 212.253 156.129 211.539 156.449 210.92C156.769 210.291 157.217 209.8 157.793 209.448C158.369 209.096 159.025 208.92 159.761 208.92C160.497 208.92 161.153 209.096 161.729 209.448C162.305 209.8 162.753 210.291 163.073 210.92C163.393 211.539 163.553 212.253 163.553 213.064C163.553 213.875 163.393 214.595 163.073 215.224C162.753 215.843 162.305 216.328 161.729 216.68C161.153 217.032 160.497 217.208 159.761 217.208ZM159.761 216.328C160.582 216.328 161.238 216.029 161.729 215.432C162.219 214.824 162.465 214.035 162.465 213.064C162.465 212.093 162.219 211.309 161.729 210.712C161.238 210.104 160.582 209.8 159.761 209.8C158.939 209.8 158.283 210.104 157.793 210.712C157.302 211.309 157.057 212.093 157.057 213.064C157.057 214.035 157.302 214.824 157.793 215.432C158.283 216.029 158.939 216.328 159.761 216.328ZM174.062 209.384C174.105 209.203 174.227 209.112 174.43 209.112H174.862C174.979 209.112 175.059 209.144 175.102 209.208C175.155 209.272 175.166 209.357 175.134 209.464L173.07 216.728C173.027 216.909 172.905 217 172.702 217H171.982C171.801 217 171.683 216.909 171.63 216.728L170.894 214.28C170.51 213 170.153 211.688 169.822 210.344C169.502 211.645 169.15 212.968 168.766 214.312L168.062 216.728C168.019 216.909 167.897 217 167.694 217H167.006C166.803 217 166.681 216.909 166.638 216.728L164.574 209.464C164.563 209.443 164.558 209.405 164.558 209.352C164.558 209.277 164.585 209.219 164.638 209.176C164.691 209.133 164.761 209.112 164.846 209.112H165.278C165.481 209.112 165.603 209.203 165.646 209.384L166.414 212.216C166.766 213.507 167.091 214.792 167.39 216.072C167.625 215.123 167.971 213.837 168.43 212.216L169.246 209.384C169.289 209.203 169.411 209.112 169.614 209.112H170.094C170.286 209.112 170.403 209.203 170.446 209.384L171.278 212.216C171.641 213.528 171.982 214.819 172.302 216.088C172.547 215.021 172.878 213.731 173.294 212.216L174.062 209.384ZM183.697 217.208C182.939 217.208 182.278 217.037 181.713 216.696C181.158 216.344 180.726 215.859 180.417 215.24C180.118 214.611 179.969 213.885 179.969 213.064C179.969 212.253 180.118 211.533 180.417 210.904C180.726 210.275 181.158 209.789 181.713 209.448C182.278 209.096 182.929 208.92 183.665 208.92C184.262 208.92 184.785 209.021 185.233 209.224C185.681 209.416 186.113 209.736 186.529 210.184C186.593 210.248 186.625 210.317 186.625 210.392C186.625 210.488 186.582 210.568 186.497 210.632L186.273 210.84C186.209 210.904 186.134 210.936 186.049 210.936C185.974 210.936 185.894 210.893 185.809 210.808C185.435 210.435 185.078 210.173 184.737 210.024C184.406 209.875 184.038 209.8 183.633 209.8C183.078 209.8 182.603 209.955 182.209 210.264C181.825 210.573 181.537 210.979 181.345 211.48C181.153 211.971 181.057 212.499 181.057 213.064C181.057 213.629 181.153 214.163 181.345 214.664C181.537 215.155 181.83 215.555 182.225 215.864C182.619 216.163 183.105 216.312 183.681 216.312C184.107 216.312 184.481 216.237 184.801 216.088C185.131 215.928 185.499 215.629 185.905 215.192C185.99 215.107 186.07 215.064 186.145 215.064C186.23 215.064 186.305 215.096 186.369 215.16L186.593 215.336C186.667 215.4 186.705 215.475 186.705 215.56C186.705 215.645 186.657 215.747 186.561 215.864C186.113 216.355 185.665 216.701 185.217 216.904C184.769 217.107 184.262 217.208 183.697 217.208ZM191.526 217.208C190.79 217.208 190.134 217.032 189.558 216.68C188.982 216.328 188.534 215.843 188.214 215.224C187.894 214.595 187.734 213.875 187.734 213.064C187.734 212.253 187.894 211.539 188.214 210.92C188.534 210.291 188.982 209.8 189.558 209.448C190.134 209.096 190.79 208.92 191.526 208.92C192.262 208.92 192.918 209.096 193.494 209.448C194.07 209.8 194.518 210.291 194.838 210.92C195.158 211.539 195.318 212.253 195.318 213.064C195.318 213.875 195.158 214.595 194.838 215.224C194.518 215.843 194.07 216.328 193.494 216.68C192.918 217.032 192.262 217.208 191.526 217.208ZM191.526 216.328C192.347 216.328 193.003 216.029 193.494 215.432C193.985 214.824 194.23 214.035 194.23 213.064C194.23 212.093 193.985 211.309 193.494 210.712C193.003 210.104 192.347 209.8 191.526 209.8C190.705 209.8 190.049 210.104 189.558 210.712C189.067 211.309 188.822 212.093 188.822 213.064C188.822 214.035 189.067 214.824 189.558 215.432C190.049 216.029 190.705 216.328 191.526 216.328ZM205.169 208.92C206.022 208.92 206.673 209.165 207.121 209.656C207.579 210.136 207.809 210.755 207.809 211.512V216.68C207.809 216.893 207.702 217 207.489 217H207.073C206.859 217 206.753 216.893 206.753 216.68V211.8C206.753 211.16 206.603 210.669 206.305 210.328C206.017 209.987 205.585 209.816 205.009 209.816C204.401 209.816 203.915 210.019 203.553 210.424C203.19 210.829 203.009 211.352 203.009 211.992V216.68C203.009 216.893 202.902 217 202.689 217H202.273C202.059 217 201.953 216.893 201.953 216.68V211.8C201.953 211.16 201.803 210.669 201.505 210.328C201.217 209.987 200.779 209.816 200.193 209.816C199.649 209.816 199.195 209.987 198.833 210.328C198.481 210.669 198.273 211.117 198.209 211.672V216.68C198.209 216.893 198.102 217 197.889 217H197.473C197.259 217 197.153 216.893 197.153 216.68V209.432C197.153 209.219 197.259 209.112 197.473 209.112H197.825C198.038 209.112 198.145 209.219 198.145 209.432V210.088C198.625 209.309 199.387 208.92 200.433 208.92C200.977 208.92 201.441 209.043 201.825 209.288C202.219 209.523 202.513 209.843 202.705 210.248C203.27 209.363 204.091 208.92 205.169 208.92ZM218.153 208.92C219.006 208.92 219.657 209.165 220.105 209.656C220.564 210.136 220.793 210.755 220.793 211.512V216.68C220.793 216.893 220.686 217 220.473 217H220.057C219.844 217 219.737 216.893 219.737 216.68V211.8C219.737 211.16 219.588 210.669 219.289 210.328C219.001 209.987 218.569 209.816 217.993 209.816C217.385 209.816 216.9 210.019 216.537 210.424C216.174 210.829 215.993 211.352 215.993 211.992V216.68C215.993 216.893 215.886 217 215.673 217H215.257C215.044 217 214.937 216.893 214.937 216.68V211.8C214.937 211.16 214.788 210.669 214.489 210.328C214.201 209.987 213.764 209.816 213.177 209.816C212.633 209.816 212.18 209.987 211.817 210.328C211.465 210.669 211.257 211.117 211.193 211.672V216.68C211.193 216.893 211.086 217 210.873 217H210.457C210.244 217 210.137 216.893 210.137 216.68V209.432C210.137 209.219 210.244 209.112 210.457 209.112H210.809C211.022 209.112 211.129 209.219 211.129 209.432V210.088C211.609 209.309 212.372 208.92 213.417 208.92C213.961 208.92 214.425 209.043 214.809 209.288C215.204 209.523 215.497 209.843 215.689 210.248C216.254 209.363 217.076 208.92 218.153 208.92ZM228.866 215.128C228.94 215.053 229.02 215.016 229.106 215.016C229.18 215.016 229.25 215.048 229.314 215.112L229.522 215.304C229.596 215.379 229.634 215.459 229.634 215.544C229.634 215.608 229.602 215.683 229.538 215.768C229.015 216.291 228.508 216.664 228.018 216.888C227.527 217.101 226.978 217.208 226.37 217.208C225.602 217.208 224.935 217.037 224.37 216.696C223.804 216.355 223.367 215.88 223.058 215.272C222.748 214.653 222.594 213.939 222.594 213.128C222.594 212.307 222.743 211.581 223.042 210.952C223.351 210.312 223.783 209.816 224.338 209.464C224.892 209.101 225.532 208.92 226.258 208.92C227.335 208.92 228.183 209.256 228.802 209.928C229.42 210.6 229.73 211.507 229.73 212.648V212.84C229.719 212.936 229.682 213.011 229.618 213.064C229.564 213.117 229.49 213.144 229.394 213.144H223.666C223.698 214.04 223.932 214.797 224.37 215.416C224.818 216.024 225.484 216.328 226.37 216.328C226.85 216.328 227.271 216.243 227.634 216.072C228.007 215.891 228.418 215.576 228.866 215.128ZM226.258 209.8C225.554 209.8 224.972 210.019 224.514 210.456C224.066 210.883 223.794 211.512 223.698 212.344H228.674C228.652 211.565 228.428 210.947 228.002 210.488C227.575 210.029 226.994 209.8 226.258 209.8ZM235.141 208.92C236.07 208.92 236.768 209.176 237.238 209.688C237.718 210.2 237.958 210.84 237.958 211.608V216.68C237.958 216.893 237.851 217 237.638 217H237.222C237.008 217 236.902 216.893 236.902 216.68V211.96C236.902 211.256 236.731 210.723 236.39 210.36C236.048 209.997 235.558 209.816 234.918 209.816C234.512 209.816 234.139 209.917 233.798 210.12C233.456 210.312 233.184 210.579 232.982 210.92C232.779 211.261 232.678 211.635 232.678 212.04V216.68C232.678 216.893 232.571 217 232.358 217H231.942C231.728 217 231.622 216.893 231.622 216.68V209.432C231.622 209.219 231.728 209.112 231.942 209.112H232.294C232.507 209.112 232.614 209.219 232.614 209.432V210.2C232.88 209.773 233.232 209.453 233.67 209.24C234.107 209.027 234.598 208.92 235.141 208.92ZM243.627 216.12C243.659 216.109 243.701 216.104 243.755 216.104C243.819 216.104 243.877 216.125 243.931 216.168C243.984 216.211 244.016 216.269 244.027 216.344L244.075 216.568C244.085 216.589 244.091 216.627 244.091 216.68C244.091 216.829 244.011 216.92 243.851 216.952C243.467 217.069 243.056 217.128 242.619 217.128C241.925 217.128 241.429 216.973 241.131 216.664C240.843 216.344 240.699 215.885 240.699 215.288V209.912H239.515C239.301 209.912 239.195 209.805 239.195 209.592V209.432C239.195 209.219 239.301 209.112 239.515 209.112H240.699V206.68C240.699 206.467 240.805 206.36 241.019 206.36H241.435C241.648 206.36 241.755 206.467 241.755 206.68V209.112H243.675C243.888 209.112 243.995 209.219 243.995 209.432V209.592C243.995 209.805 243.888 209.912 243.675 209.912H241.755V215.16C241.755 215.555 241.829 215.832 241.979 215.992C242.128 216.152 242.384 216.232 242.747 216.232C243.003 216.232 243.296 216.195 243.627 216.12ZM246.134 207.112C245.921 207.112 245.739 207.037 245.59 206.888C245.451 206.739 245.382 206.557 245.382 206.344C245.382 206.131 245.451 205.955 245.59 205.816C245.739 205.677 245.921 205.608 246.134 205.608C246.358 205.608 246.539 205.677 246.678 205.816C246.827 205.955 246.902 206.131 246.902 206.344C246.902 206.557 246.827 206.739 246.678 206.888C246.539 207.037 246.358 207.112 246.134 207.112ZM245.926 217C245.713 217 245.606 216.893 245.606 216.68V209.432C245.606 209.219 245.713 209.112 245.926 209.112H246.342C246.555 209.112 246.662 209.219 246.662 209.432V216.68C246.662 216.893 246.555 217 246.342 217H245.926ZM252.532 208.92C253.46 208.92 254.159 209.176 254.628 209.688C255.108 210.2 255.348 210.84 255.348 211.608V216.68C255.348 216.893 255.241 217 255.028 217H254.612C254.399 217 254.292 216.893 254.292 216.68V211.96C254.292 211.256 254.121 210.723 253.78 210.36C253.439 209.997 252.948 209.816 252.308 209.816C251.903 209.816 251.529 209.917 251.188 210.12C250.847 210.312 250.575 210.579 250.372 210.92C250.169 211.261 250.068 211.635 250.068 212.04V216.68C250.068 216.893 249.961 217 249.748 217H249.332C249.119 217 249.012 216.893 249.012 216.68V209.432C249.012 209.219 249.119 209.112 249.332 209.112H249.684C249.897 209.112 250.004 209.219 250.004 209.432V210.2C250.271 209.773 250.623 209.453 251.06 209.24C251.497 209.027 251.988 208.92 252.532 208.92ZM263.348 209.432C263.348 209.219 263.455 209.112 263.668 209.112H264.004C264.217 209.112 264.324 209.219 264.324 209.432V216.92C264.324 217.912 264.025 218.691 263.428 219.256C262.831 219.832 261.993 220.12 260.916 220.12C259.753 220.12 258.681 219.789 257.7 219.128C257.593 219.064 257.54 218.984 257.54 218.888C257.54 218.813 257.561 218.749 257.604 218.696L257.796 218.424C257.86 218.317 257.945 218.264 258.052 218.264C258.095 218.264 258.159 218.285 258.244 218.328C258.713 218.627 259.151 218.851 259.556 219C259.972 219.149 260.425 219.224 260.916 219.224C261.62 219.224 262.191 219.027 262.628 218.632C263.065 218.248 263.284 217.651 263.284 216.84V215.56C262.708 216.488 261.833 216.952 260.66 216.952C259.977 216.952 259.375 216.781 258.852 216.44C258.329 216.088 257.924 215.608 257.636 215C257.359 214.392 257.22 213.704 257.22 212.936C257.22 212.168 257.359 211.48 257.636 210.872C257.924 210.264 258.329 209.789 258.852 209.448C259.375 209.096 259.977 208.92 260.66 208.92C261.279 208.92 261.812 209.053 262.26 209.32C262.719 209.576 263.081 209.944 263.348 210.424V209.432ZM260.772 216.056C261.54 216.056 262.153 215.768 262.612 215.192C263.071 214.605 263.3 213.853 263.3 212.936C263.3 212.019 263.071 211.272 262.612 210.696C262.153 210.109 261.54 209.816 260.772 209.816C259.993 209.816 259.385 210.104 258.948 210.68C258.521 211.256 258.308 212.008 258.308 212.936C258.308 213.864 258.521 214.616 258.948 215.192C259.385 215.768 259.993 216.056 260.772 216.056Z" fill="#464646"/>
</svg>
