<svg width="344" height="190" viewBox="0 0 344 190" fill="none" xmlns="http://www.w3.org/2000/svg">
<rect width="344" height="190" fill="#F5F5F5"/>
<path d="M71.568 54C71.4187 54 71.2973 53.958 71.204 53.874C71.12 53.7807 71.078 53.6593 71.078 53.51V44.55C71.078 44.3913 71.12 44.27 71.204 44.186C71.2973 44.102 71.4187 44.06 71.568 44.06H72.184C72.3427 44.06 72.464 44.102 72.548 44.186C72.632 44.27 72.674 44.3913 72.674 44.55V52.642H76.72C76.8787 52.642 77 52.684 77.084 52.768C77.168 52.852 77.21 52.9733 77.21 53.132V53.51C77.21 53.6593 77.168 53.7807 77.084 53.874C77 53.958 76.8787 54 76.72 54H71.568ZM81.5043 46.888C82.4376 46.888 83.1563 47.1073 83.6603 47.546C84.1643 47.9753 84.4163 48.5493 84.4163 49.268V53.51C84.4163 53.6593 84.3743 53.7807 84.2903 53.874C84.2063 53.958 84.0849 54 83.9263 54H83.5623C83.4129 54 83.2916 53.958 83.1983 53.874C83.1143 53.7807 83.0723 53.6593 83.0723 53.51V53.202C82.8483 53.5287 82.5403 53.7807 82.1483 53.958C81.7563 54.1353 81.2989 54.224 80.7763 54.224C80.0576 54.224 79.4649 54.0653 78.9983 53.748C78.5409 53.4213 78.3123 52.9313 78.3123 52.278C78.3123 51.55 78.5829 51.0133 79.1243 50.668C79.6749 50.3133 80.4356 50.0473 81.4063 49.87L82.9883 49.576V49.324C82.9883 48.9413 82.8529 48.6473 82.5823 48.442C82.3209 48.2273 81.9709 48.12 81.5323 48.12C81.1589 48.12 80.8323 48.1853 80.5523 48.316C80.2816 48.4373 79.9876 48.6427 79.6703 48.932C79.5489 49.0347 79.4323 49.086 79.3203 49.086C79.2083 49.086 79.0916 49.0347 78.9703 48.932L78.7463 48.736C78.6249 48.624 78.5643 48.5027 78.5643 48.372C78.5643 48.2507 78.6203 48.134 78.7323 48.022C79.1336 47.6393 79.5583 47.3547 80.0063 47.168C80.4543 46.9813 80.9536 46.888 81.5043 46.888ZM80.9863 53.034C81.5463 53.034 82.0176 52.8847 82.4003 52.586C82.7923 52.2873 82.9883 51.858 82.9883 51.298V50.654L81.7703 50.906C81.0889 51.046 80.5849 51.2047 80.2583 51.382C79.9316 51.5593 79.7683 51.83 79.7683 52.194C79.7683 52.4553 79.8756 52.6607 80.0903 52.81C80.3049 52.9593 80.6036 53.034 80.9863 53.034ZM89.7798 46.916C90.3678 46.916 90.8905 47.0653 91.3478 47.364C91.8145 47.6627 92.1785 48.0873 92.4398 48.638C92.7011 49.1887 92.8318 49.8233 92.8318 50.542C92.8318 51.27 92.7011 51.9093 92.4398 52.46C92.1785 53.0107 91.8145 53.4353 91.3478 53.734C90.8811 54.0327 90.3585 54.182 89.7798 54.182C88.7438 54.182 87.9831 53.7947 87.4978 53.02V53.51C87.4978 53.6593 87.4558 53.7807 87.3718 53.874C87.2878 53.958 87.1665 54 87.0078 54H86.6018C86.4525 54 86.3311 53.958 86.2378 53.874C86.1538 53.7807 86.1118 53.6593 86.1118 53.51V44.55C86.1118 44.3913 86.1538 44.27 86.2378 44.186C86.3311 44.102 86.4525 44.06 86.6018 44.06H87.1058C87.2645 44.06 87.3858 44.102 87.4698 44.186C87.5538 44.27 87.5958 44.3913 87.5958 44.55V47.966C88.0905 47.266 88.8185 46.916 89.7798 46.916ZM89.4718 52.894C90.0318 52.894 90.4798 52.684 90.8158 52.264C91.1518 51.8347 91.3198 51.2607 91.3198 50.542C91.3198 49.8327 91.1518 49.2633 90.8158 48.834C90.4891 48.4047 90.0458 48.19 89.4858 48.19C88.9165 48.19 88.4498 48.4047 88.0858 48.834C87.7218 49.254 87.5398 49.8233 87.5398 50.542C87.5398 51.2793 87.7218 51.858 88.0858 52.278C88.4498 52.6887 88.9118 52.894 89.4718 52.894ZM99.2023 52.236C99.3236 52.1333 99.4403 52.082 99.5523 52.082C99.6643 52.082 99.7809 52.1427 99.9023 52.264L100.098 52.474C100.201 52.5953 100.252 52.712 100.252 52.824C100.252 52.9453 100.192 53.062 100.07 53.174C99.6409 53.5473 99.2116 53.8133 98.7823 53.972C98.3623 54.1307 97.8956 54.21 97.3823 54.21C96.6636 54.21 96.0383 54.0607 95.5063 53.762C94.9836 53.4633 94.5776 53.0433 94.2883 52.502C94.0083 51.9513 93.8682 51.3167 93.8682 50.598C93.8682 49.8887 94.0036 49.254 94.2743 48.694C94.5543 48.1247 94.9463 47.6813 95.4503 47.364C95.9636 47.0467 96.5609 46.888 97.2423 46.888C98.2596 46.888 99.0436 47.1913 99.5943 47.798C100.145 48.3953 100.42 49.2213 100.42 50.276V50.402C100.411 50.5513 100.364 50.668 100.28 50.752C100.196 50.836 100.075 50.878 99.9163 50.878H95.3243C95.3803 51.494 95.5809 51.998 95.9263 52.39C96.2809 52.7727 96.7756 52.964 97.4103 52.964C97.7556 52.964 98.0589 52.9127 98.3203 52.81C98.5816 52.698 98.8756 52.5067 99.2023 52.236ZM97.2143 48.064C96.7009 48.064 96.2856 48.218 95.9683 48.526C95.6603 48.8247 95.4596 49.2493 95.3663 49.8H98.9643C98.9269 49.2587 98.7589 48.834 98.4603 48.526C98.1616 48.218 97.7463 48.064 97.2143 48.064ZM102.326 54C102.176 54 102.055 53.958 101.962 53.874C101.878 53.7807 101.836 53.6593 101.836 53.51V44.55C101.836 44.3913 101.878 44.27 101.962 44.186C102.055 44.102 102.176 44.06 102.326 44.06H102.83C102.988 44.06 103.11 44.102 103.194 44.186C103.278 44.27 103.32 44.3913 103.32 44.55V53.51C103.32 53.6593 103.278 53.7807 103.194 53.874C103.11 53.958 102.988 54 102.83 54H102.326Z" fill="#464646"/>
<path d="M116.552 55.872C116.504 55.92 116.448 55.944 116.384 55.944C116.32 55.944 116.264 55.912 116.216 55.848C115.488 55.032 114.928 54.184 114.536 53.304C114.152 52.424 113.96 51.428 113.96 50.316C113.96 49.204 114.152 48.208 114.536 47.328C114.928 46.448 115.488 45.6 116.216 44.784C116.264 44.72 116.32 44.688 116.384 44.688C116.448 44.688 116.504 44.712 116.552 44.76L116.708 44.904C116.772 44.952 116.804 45.012 116.804 45.084C116.804 45.14 116.78 45.192 116.732 45.24C116.076 46.04 115.584 46.84 115.256 47.64C114.936 48.44 114.776 49.332 114.776 50.316C114.776 51.292 114.94 52.184 115.268 52.992C115.596 53.792 116.084 54.592 116.732 55.392C116.78 55.44 116.804 55.492 116.804 55.548C116.804 55.62 116.772 55.68 116.708 55.728L116.552 55.872ZM121.544 48.276C121.592 48.148 121.684 48.084 121.82 48.084H122.132C122.196 48.084 122.248 48.1 122.288 48.132C122.328 48.164 122.348 48.208 122.348 48.264L122.324 48.36L120.416 53.808C120.368 53.936 120.276 54 120.14 54H119.504C119.368 54 119.276 53.936 119.228 53.808L117.332 48.36L117.308 48.264C117.308 48.208 117.328 48.164 117.368 48.132C117.408 48.1 117.46 48.084 117.524 48.084H117.848C117.984 48.084 118.076 48.148 118.124 48.276L118.856 50.388C119.16 51.268 119.484 52.28 119.828 53.424C119.844 53.376 119.888 53.24 119.96 53.016C120.288 51.936 120.572 51.06 120.812 50.388L121.544 48.276ZM125.742 47.94C126.47 47.94 127.038 48.116 127.446 48.468C127.854 48.812 128.058 49.268 128.058 49.836V53.76C128.058 53.92 127.978 54 127.818 54H127.578C127.418 54 127.338 53.92 127.338 53.76V53.22C127.138 53.54 126.854 53.78 126.486 53.94C126.126 54.1 125.722 54.18 125.274 54.18C124.65 54.18 124.142 54.048 123.75 53.784C123.358 53.52 123.162 53.112 123.162 52.56C123.162 52.12 123.286 51.768 123.534 51.504C123.782 51.232 124.106 51.028 124.506 50.892C124.906 50.748 125.406 50.62 126.006 50.508L127.302 50.28V49.896C127.302 49.488 127.162 49.172 126.882 48.948C126.602 48.716 126.234 48.6 125.778 48.6C125.434 48.6 125.122 48.664 124.842 48.792C124.562 48.92 124.262 49.14 123.942 49.452C123.886 49.508 123.826 49.536 123.762 49.536C123.706 49.536 123.654 49.512 123.606 49.464L123.45 49.32C123.394 49.264 123.366 49.204 123.366 49.14C123.366 49.068 123.394 49.004 123.45 48.948C123.786 48.596 124.138 48.34 124.506 48.18C124.882 48.02 125.294 47.94 125.742 47.94ZM125.31 53.52C125.886 53.52 126.362 53.368 126.738 53.064C127.114 52.76 127.302 52.372 127.302 51.9V50.892L126.186 51.108C125.666 51.212 125.254 51.312 124.95 51.408C124.646 51.504 124.402 51.644 124.218 51.828C124.034 52.012 123.942 52.252 123.942 52.548C123.942 52.852 124.062 53.092 124.302 53.268C124.55 53.436 124.886 53.52 125.31 53.52ZM130.066 54C129.906 54 129.826 53.92 129.826 53.76V45.72C129.826 45.56 129.906 45.48 130.066 45.48H130.378C130.538 45.48 130.618 45.56 130.618 45.72V53.76C130.618 53.92 130.538 54 130.378 54H130.066ZM136.652 48.324C136.652 48.164 136.732 48.084 136.892 48.084H137.144C137.304 48.084 137.384 48.164 137.384 48.324V53.94C137.384 54.684 137.16 55.268 136.712 55.692C136.264 56.124 135.636 56.34 134.828 56.34C133.956 56.34 133.152 56.092 132.416 55.596C132.336 55.548 132.296 55.488 132.296 55.416C132.296 55.36 132.312 55.312 132.344 55.272L132.488 55.068C132.536 54.988 132.6 54.948 132.68 54.948C132.712 54.948 132.76 54.964 132.824 54.996C133.176 55.22 133.504 55.388 133.808 55.5C134.12 55.612 134.46 55.668 134.828 55.668C135.356 55.668 135.784 55.52 136.112 55.224C136.44 54.936 136.604 54.488 136.604 53.88V52.92C136.172 53.616 135.516 53.964 134.636 53.964C134.124 53.964 133.672 53.836 133.28 53.58C132.888 53.316 132.584 52.956 132.368 52.5C132.16 52.044 132.056 51.528 132.056 50.952C132.056 50.376 132.16 49.86 132.368 49.404C132.584 48.948 132.888 48.592 133.28 48.336C133.672 48.072 134.124 47.94 134.636 47.94C135.1 47.94 135.5 48.04 135.836 48.24C136.18 48.432 136.452 48.708 136.652 49.068V48.324ZM134.72 53.292C135.296 53.292 135.756 53.076 136.1 52.644C136.444 52.204 136.616 51.64 136.616 50.952C136.616 50.264 136.444 49.704 136.1 49.272C135.756 48.832 135.296 48.612 134.72 48.612C134.136 48.612 133.68 48.828 133.352 49.26C133.032 49.692 132.872 50.256 132.872 50.952C132.872 51.648 133.032 52.212 133.352 52.644C133.68 53.076 134.136 53.292 134.72 53.292ZM141.421 45.996C141.061 45.996 140.805 46.092 140.653 46.284C140.501 46.468 140.425 46.78 140.425 47.22V48.084H141.745C141.905 48.084 141.985 48.164 141.985 48.324V48.444C141.985 48.604 141.905 48.684 141.745 48.684H140.425V53.76C140.425 53.92 140.345 54 140.185 54H139.873C139.713 54 139.633 53.92 139.633 53.76V48.684H138.745C138.585 48.684 138.505 48.604 138.505 48.444V48.324C138.505 48.164 138.585 48.084 138.745 48.084H139.633V47.088C139.633 46.536 139.777 46.104 140.065 45.792C140.361 45.48 140.781 45.324 141.325 45.324C141.629 45.324 141.941 45.368 142.261 45.456C142.413 45.504 142.469 45.604 142.429 45.756L142.381 45.924C142.341 46.036 142.261 46.092 142.141 46.092C142.117 46.092 142.065 46.084 141.985 46.068C141.809 46.02 141.621 45.996 141.421 45.996ZM145.358 48.036C145.558 48.036 145.794 48.068 146.066 48.132C146.21 48.18 146.266 48.28 146.234 48.432L146.186 48.624C146.146 48.776 146.046 48.832 145.886 48.792C145.694 48.744 145.518 48.72 145.358 48.72C144.95 48.72 144.61 48.896 144.338 49.248C144.074 49.6 143.942 50.088 143.942 50.712V53.76C143.942 53.92 143.862 54 143.702 54H143.39C143.23 54 143.15 53.92 143.15 53.76V48.324C143.15 48.164 143.23 48.084 143.39 48.084H143.654C143.814 48.084 143.894 48.164 143.894 48.324V48.984C144.03 48.688 144.222 48.456 144.47 48.288C144.726 48.12 145.022 48.036 145.358 48.036ZM147.706 46.584C147.546 46.584 147.41 46.528 147.298 46.416C147.194 46.304 147.142 46.168 147.142 46.008C147.142 45.848 147.194 45.716 147.298 45.612C147.41 45.508 147.546 45.456 147.706 45.456C147.874 45.456 148.01 45.508 148.114 45.612C148.226 45.716 148.282 45.848 148.282 46.008C148.282 46.168 148.226 46.304 148.114 46.416C148.01 46.528 147.874 46.584 147.706 46.584ZM147.55 54C147.39 54 147.31 53.92 147.31 53.76V48.324C147.31 48.164 147.39 48.084 147.55 48.084H147.862C148.022 48.084 148.102 48.164 148.102 48.324V53.76C148.102 53.92 148.022 54 147.862 54H147.55ZM152.529 53.34C152.553 53.332 152.585 53.328 152.625 53.328C152.673 53.328 152.717 53.344 152.757 53.376C152.797 53.408 152.821 53.452 152.829 53.508L152.865 53.676C152.873 53.692 152.877 53.72 152.877 53.76C152.877 53.872 152.817 53.94 152.697 53.964C152.409 54.052 152.101 54.096 151.773 54.096C151.253 54.096 150.881 53.98 150.657 53.748C150.441 53.508 150.333 53.164 150.333 52.716V48.684H149.445C149.285 48.684 149.205 48.604 149.205 48.444V48.324C149.205 48.164 149.285 48.084 149.445 48.084H150.333V46.26C150.333 46.1 150.413 46.02 150.573 46.02H150.885C151.045 46.02 151.125 46.1 151.125 46.26V48.084H152.565C152.725 48.084 152.805 48.164 152.805 48.324V48.444C152.805 48.604 152.725 48.684 152.565 48.684H151.125V52.62C151.125 52.916 151.181 53.124 151.293 53.244C151.405 53.364 151.597 53.424 151.869 53.424C152.061 53.424 152.281 53.396 152.529 53.34ZM156.7 53.34C156.724 53.332 156.756 53.328 156.796 53.328C156.844 53.328 156.888 53.344 156.928 53.376C156.968 53.408 156.992 53.452 157 53.508L157.036 53.676C157.044 53.692 157.048 53.72 157.048 53.76C157.048 53.872 156.988 53.94 156.868 53.964C156.58 54.052 156.272 54.096 155.944 54.096C155.424 54.096 155.052 53.98 154.828 53.748C154.612 53.508 154.504 53.164 154.504 52.716V48.684H153.616C153.456 48.684 153.376 48.604 153.376 48.444V48.324C153.376 48.164 153.456 48.084 153.616 48.084H154.504V46.26C154.504 46.1 154.584 46.02 154.744 46.02H155.056C155.216 46.02 155.296 46.1 155.296 46.26V48.084H156.736C156.896 48.084 156.976 48.164 156.976 48.324V48.444C156.976 48.604 156.896 48.684 156.736 48.684H155.296V52.62C155.296 52.916 155.352 53.124 155.464 53.244C155.576 53.364 155.768 53.424 156.04 53.424C156.232 53.424 156.452 53.396 156.7 53.34ZM158.089 55.848C158.041 55.912 157.985 55.944 157.921 55.944C157.857 55.944 157.801 55.92 157.753 55.872L157.597 55.728C157.533 55.68 157.501 55.62 157.501 55.548C157.501 55.492 157.525 55.44 157.573 55.392C158.229 54.592 158.721 53.792 159.049 52.992C159.377 52.192 159.541 51.3 159.541 50.316C159.541 49.34 159.377 48.448 159.049 47.64C158.721 46.832 158.229 46.032 157.573 45.24C157.533 45.192 157.513 45.14 157.513 45.084C157.513 45.012 157.541 44.952 157.597 44.904L157.753 44.76C157.801 44.712 157.857 44.688 157.921 44.688C157.985 44.688 158.041 44.72 158.089 44.784C158.817 45.6 159.373 46.448 159.757 47.328C160.149 48.208 160.345 49.204 160.345 50.316C160.345 51.428 160.149 52.424 159.757 53.304C159.373 54.184 158.817 55.032 158.089 55.848Z" fill="#767676"/>
<rect x="70.5" y="62.5" width="202" height="87" rx="3.5" fill="white"/>
<path d="M79.696 91C79.4827 91 79.376 90.8933 79.376 90.68V79.96C79.376 79.7467 79.4827 79.64 79.696 79.64H80.192C80.4053 79.64 80.512 79.7467 80.512 79.96V84.664H87.072V79.96C87.072 79.7467 87.1787 79.64 87.392 79.64H87.888C88.1013 79.64 88.208 79.7467 88.208 79.96V90.68C88.208 90.8933 88.1013 91 87.888 91H87.392C87.1787 91 87.072 90.8933 87.072 90.68V85.608H80.512V90.68C80.512 90.8933 80.4053 91 80.192 91H79.696ZM91.2901 81.112C91.0768 81.112 90.8955 81.0373 90.7461 80.888C90.6075 80.7387 90.5381 80.5573 90.5381 80.344C90.5381 80.1307 90.6075 79.9547 90.7461 79.816C90.8955 79.6773 91.0768 79.608 91.2901 79.608C91.5141 79.608 91.6955 79.6773 91.8341 79.816C91.9835 79.9547 92.0581 80.1307 92.0581 80.344C92.0581 80.5573 91.9835 80.7387 91.8341 80.888C91.6955 81.0373 91.5141 81.112 91.2901 81.112ZM91.0821 91C90.8688 91 90.7621 90.8933 90.7621 90.68V83.432C90.7621 83.2187 90.8688 83.112 91.0821 83.112H91.4981C91.7115 83.112 91.8181 83.2187 91.8181 83.432V90.68C91.8181 90.8933 91.7115 91 91.4981 91H91.0821ZM97.6884 82.92C98.6164 82.92 99.315 83.176 99.7844 83.688C100.264 84.2 100.504 84.84 100.504 85.608V90.68C100.504 90.8933 100.398 91 100.184 91H99.7684C99.555 91 99.4484 90.8933 99.4484 90.68V85.96C99.4484 85.256 99.2777 84.7227 98.9364 84.36C98.595 83.9973 98.1044 83.816 97.4644 83.816C97.059 83.816 96.6857 83.9173 96.3444 84.12C96.003 84.312 95.731 84.5787 95.5284 84.92C95.3257 85.2613 95.2244 85.6347 95.2244 86.04V90.68C95.2244 90.8933 95.1177 91 94.9044 91H94.4884C94.275 91 94.1684 90.8933 94.1684 90.68V83.432C94.1684 83.2187 94.275 83.112 94.4884 83.112H94.8404C95.0537 83.112 95.1604 83.2187 95.1604 83.432V84.2C95.427 83.7733 95.779 83.4533 96.2164 83.24C96.6537 83.0267 97.1444 82.92 97.6884 82.92ZM106.174 90.12C106.206 90.1093 106.248 90.104 106.302 90.104C106.366 90.104 106.424 90.1253 106.478 90.168C106.531 90.2107 106.563 90.2693 106.574 90.344L106.622 90.568C106.632 90.5893 106.638 90.6267 106.638 90.68C106.638 90.8293 106.558 90.92 106.398 90.952C106.014 91.0693 105.603 91.128 105.166 91.128C104.472 91.128 103.976 90.9733 103.678 90.664C103.39 90.344 103.246 89.8853 103.246 89.288V83.912H102.062C101.848 83.912 101.742 83.8053 101.742 83.592V83.432C101.742 83.2187 101.848 83.112 102.062 83.112H103.246V80.68C103.246 80.4667 103.352 80.36 103.566 80.36H103.982C104.195 80.36 104.302 80.4667 104.302 80.68V83.112H106.222C106.435 83.112 106.542 83.2187 106.542 83.432V83.592C106.542 83.8053 106.435 83.912 106.222 83.912H104.302V89.16C104.302 89.5547 104.376 89.832 104.526 89.992C104.675 90.152 104.931 90.232 105.294 90.232C105.55 90.232 105.843 90.1947 106.174 90.12ZM108.897 91.112C108.673 91.112 108.481 91.032 108.321 90.872C108.161 90.712 108.081 90.52 108.081 90.296C108.081 90.072 108.161 89.88 108.321 89.72C108.481 89.56 108.673 89.48 108.897 89.48C109.121 89.48 109.313 89.56 109.473 89.72C109.633 89.88 109.713 90.072 109.713 90.296C109.713 90.52 109.633 90.712 109.473 90.872C109.313 91.032 109.121 91.112 108.897 91.112ZM112.132 91.112C111.908 91.112 111.716 91.032 111.556 90.872C111.396 90.712 111.316 90.52 111.316 90.296C111.316 90.072 111.396 89.88 111.556 89.72C111.716 89.56 111.908 89.48 112.132 89.48C112.356 89.48 112.548 89.56 112.708 89.72C112.868 89.88 112.948 90.072 112.948 90.296C112.948 90.52 112.868 90.712 112.708 90.872C112.548 91.032 112.356 91.112 112.132 91.112ZM115.366 91.112C115.142 91.112 114.95 91.032 114.79 90.872C114.63 90.712 114.55 90.52 114.55 90.296C114.55 90.072 114.63 89.88 114.79 89.72C114.95 89.56 115.142 89.48 115.366 89.48C115.59 89.48 115.782 89.56 115.942 89.72C116.102 89.88 116.182 90.072 116.182 90.296C116.182 90.52 116.102 90.712 115.942 90.872C115.782 91.032 115.59 91.112 115.366 91.112Z" fill="#C3CCD9"/>
<g filter="url(#filter0_d_1715_18471)">
<path d="M269 140L263 146M269 144L267 146" stroke="#767676" stroke-linecap="square"/>
</g>
<rect x="70.5" y="62.5" width="202" height="87" rx="3.5" stroke="#C3CCD9"/>
<defs>
<filter id="filter0_d_1715_18471" x="262.293" y="139.293" width="7.41431" height="8.41431" filterUnits="userSpaceOnUse" color-interpolation-filters="sRGB">
<feFlood flood-opacity="0" result="BackgroundImageFix"/>
<feColorMatrix in="SourceAlpha" type="matrix" values="0 0 0 0 0 0 0 0 0 0 0 0 0 0 0 0 0 0 127 0" result="hardAlpha"/>
<feOffset dy="1"/>
<feColorMatrix type="matrix" values="0 0 0 0 1 0 0 0 0 1 0 0 0 0 1 0 0 0 0.5 0"/>
<feBlend mode="normal" in2="BackgroundImageFix" result="effect1_dropShadow_1715_18471"/>
<feBlend mode="normal" in="SourceGraphic" in2="effect1_dropShadow_1715_18471" result="shape"/>
</filter>
</defs>
</svg>
