<svg width="344" height="190" viewBox="0 0 344 190" fill="none" xmlns="http://www.w3.org/2000/svg">
<rect width="344" height="190" fill="#F5F5F5"/>
<path d="M71.568 54C71.4187 54 71.2973 53.958 71.204 53.874C71.12 53.7807 71.078 53.6593 71.078 53.51V44.55C71.078 44.3913 71.12 44.27 71.204 44.186C71.2973 44.102 71.4187 44.06 71.568 44.06H72.184C72.3427 44.06 72.464 44.102 72.548 44.186C72.632 44.27 72.674 44.3913 72.674 44.55V52.642H76.72C76.8787 52.642 77 52.684 77.084 52.768C77.168 52.852 77.21 52.9733 77.21 53.132V53.51C77.21 53.6593 77.168 53.7807 77.084 53.874C77 53.958 76.8787 54 76.72 54H71.568ZM81.5043 46.888C82.4376 46.888 83.1563 47.1073 83.6603 47.546C84.1643 47.9753 84.4163 48.5493 84.4163 49.268V53.51C84.4163 53.6593 84.3743 53.7807 84.2903 53.874C84.2063 53.958 84.0849 54 83.9263 54H83.5623C83.4129 54 83.2916 53.958 83.1983 53.874C83.1143 53.7807 83.0723 53.6593 83.0723 53.51V53.202C82.8483 53.5287 82.5403 53.7807 82.1483 53.958C81.7563 54.1353 81.2989 54.224 80.7763 54.224C80.0576 54.224 79.4649 54.0653 78.9983 53.748C78.5409 53.4213 78.3123 52.9313 78.3123 52.278C78.3123 51.55 78.5829 51.0133 79.1243 50.668C79.6749 50.3133 80.4356 50.0473 81.4063 49.87L82.9883 49.576V49.324C82.9883 48.9413 82.8529 48.6473 82.5823 48.442C82.3209 48.2273 81.9709 48.12 81.5323 48.12C81.1589 48.12 80.8323 48.1853 80.5523 48.316C80.2816 48.4373 79.9876 48.6427 79.6703 48.932C79.5489 49.0347 79.4323 49.086 79.3203 49.086C79.2083 49.086 79.0916 49.0347 78.9703 48.932L78.7463 48.736C78.6249 48.624 78.5643 48.5027 78.5643 48.372C78.5643 48.2507 78.6203 48.134 78.7323 48.022C79.1336 47.6393 79.5583 47.3547 80.0063 47.168C80.4543 46.9813 80.9536 46.888 81.5043 46.888ZM80.9863 53.034C81.5463 53.034 82.0176 52.8847 82.4003 52.586C82.7923 52.2873 82.9883 51.858 82.9883 51.298V50.654L81.7703 50.906C81.0889 51.046 80.5849 51.2047 80.2583 51.382C79.9316 51.5593 79.7683 51.83 79.7683 52.194C79.7683 52.4553 79.8756 52.6607 80.0903 52.81C80.3049 52.9593 80.6036 53.034 80.9863 53.034ZM89.7798 46.916C90.3678 46.916 90.8905 47.0653 91.3478 47.364C91.8145 47.6627 92.1785 48.0873 92.4398 48.638C92.7011 49.1887 92.8318 49.8233 92.8318 50.542C92.8318 51.27 92.7011 51.9093 92.4398 52.46C92.1785 53.0107 91.8145 53.4353 91.3478 53.734C90.8811 54.0327 90.3585 54.182 89.7798 54.182C88.7438 54.182 87.9831 53.7947 87.4978 53.02V53.51C87.4978 53.6593 87.4558 53.7807 87.3718 53.874C87.2878 53.958 87.1665 54 87.0078 54H86.6018C86.4525 54 86.3311 53.958 86.2378 53.874C86.1538 53.7807 86.1118 53.6593 86.1118 53.51V44.55C86.1118 44.3913 86.1538 44.27 86.2378 44.186C86.3311 44.102 86.4525 44.06 86.6018 44.06H87.1058C87.2645 44.06 87.3858 44.102 87.4698 44.186C87.5538 44.27 87.5958 44.3913 87.5958 44.55V47.966C88.0905 47.266 88.8185 46.916 89.7798 46.916ZM89.4718 52.894C90.0318 52.894 90.4798 52.684 90.8158 52.264C91.1518 51.8347 91.3198 51.2607 91.3198 50.542C91.3198 49.8327 91.1518 49.2633 90.8158 48.834C90.4891 48.4047 90.0458 48.19 89.4858 48.19C88.9165 48.19 88.4498 48.4047 88.0858 48.834C87.7218 49.254 87.5398 49.8233 87.5398 50.542C87.5398 51.2793 87.7218 51.858 88.0858 52.278C88.4498 52.6887 88.9118 52.894 89.4718 52.894ZM99.2023 52.236C99.3236 52.1333 99.4403 52.082 99.5523 52.082C99.6643 52.082 99.7809 52.1427 99.9023 52.264L100.098 52.474C100.201 52.5953 100.252 52.712 100.252 52.824C100.252 52.9453 100.192 53.062 100.07 53.174C99.6409 53.5473 99.2116 53.8133 98.7823 53.972C98.3623 54.1307 97.8956 54.21 97.3823 54.21C96.6636 54.21 96.0383 54.0607 95.5063 53.762C94.9836 53.4633 94.5776 53.0433 94.2883 52.502C94.0083 51.9513 93.8682 51.3167 93.8682 50.598C93.8682 49.8887 94.0036 49.254 94.2743 48.694C94.5543 48.1247 94.9463 47.6813 95.4503 47.364C95.9636 47.0467 96.5609 46.888 97.2423 46.888C98.2596 46.888 99.0436 47.1913 99.5943 47.798C100.145 48.3953 100.42 49.2213 100.42 50.276V50.402C100.411 50.5513 100.364 50.668 100.28 50.752C100.196 50.836 100.075 50.878 99.9163 50.878H95.3243C95.3803 51.494 95.5809 51.998 95.9263 52.39C96.2809 52.7727 96.7756 52.964 97.4103 52.964C97.7556 52.964 98.0589 52.9127 98.3203 52.81C98.5816 52.698 98.8756 52.5067 99.2023 52.236ZM97.2143 48.064C96.7009 48.064 96.2856 48.218 95.9683 48.526C95.6603 48.8247 95.4596 49.2493 95.3663 49.8H98.9643C98.9269 49.2587 98.7589 48.834 98.4603 48.526C98.1616 48.218 97.7463 48.064 97.2143 48.064ZM102.326 54C102.176 54 102.055 53.958 101.962 53.874C101.878 53.7807 101.836 53.6593 101.836 53.51V44.55C101.836 44.3913 101.878 44.27 101.962 44.186C102.055 44.102 102.176 44.06 102.326 44.06H102.83C102.988 44.06 103.11 44.102 103.194 44.186C103.278 44.27 103.32 44.3913 103.32 44.55V53.51C103.32 53.6593 103.278 53.7807 103.194 53.874C103.11 53.958 102.988 54 102.83 54H102.326Z" fill="#464646"/>
<rect x="70.5" y="62.5" width="202" height="87" rx="3.5" fill="white"/>
<path d="M79.696 91C79.4827 91 79.376 90.8933 79.376 90.68V79.96C79.376 79.7467 79.4827 79.64 79.696 79.64H80.192C80.4053 79.64 80.512 79.7467 80.512 79.96V84.664H87.072V79.96C87.072 79.7467 87.1787 79.64 87.392 79.64H87.888C88.1013 79.64 88.208 79.7467 88.208 79.96V90.68C88.208 90.8933 88.1013 91 87.888 91H87.392C87.1787 91 87.072 90.8933 87.072 90.68V85.608H80.512V90.68C80.512 90.8933 80.4053 91 80.192 91H79.696ZM91.2901 81.112C91.0768 81.112 90.8955 81.0373 90.7461 80.888C90.6075 80.7387 90.5381 80.5573 90.5381 80.344C90.5381 80.1307 90.6075 79.9547 90.7461 79.816C90.8955 79.6773 91.0768 79.608 91.2901 79.608C91.5141 79.608 91.6955 79.6773 91.8341 79.816C91.9835 79.9547 92.0581 80.1307 92.0581 80.344C92.0581 80.5573 91.9835 80.7387 91.8341 80.888C91.6955 81.0373 91.5141 81.112 91.2901 81.112ZM91.0821 91C90.8688 91 90.7621 90.8933 90.7621 90.68V83.432C90.7621 83.2187 90.8688 83.112 91.0821 83.112H91.4981C91.7115 83.112 91.8181 83.2187 91.8181 83.432V90.68C91.8181 90.8933 91.7115 91 91.4981 91H91.0821ZM97.6884 82.92C98.6164 82.92 99.315 83.176 99.7844 83.688C100.264 84.2 100.504 84.84 100.504 85.608V90.68C100.504 90.8933 100.398 91 100.184 91H99.7684C99.555 91 99.4484 90.8933 99.4484 90.68V85.96C99.4484 85.256 99.2777 84.7227 98.9364 84.36C98.595 83.9973 98.1044 83.816 97.4644 83.816C97.059 83.816 96.6857 83.9173 96.3444 84.12C96.003 84.312 95.731 84.5787 95.5284 84.92C95.3257 85.2613 95.2244 85.6347 95.2244 86.04V90.68C95.2244 90.8933 95.1177 91 94.9044 91H94.4884C94.275 91 94.1684 90.8933 94.1684 90.68V83.432C94.1684 83.2187 94.275 83.112 94.4884 83.112H94.8404C95.0537 83.112 95.1604 83.2187 95.1604 83.432V84.2C95.427 83.7733 95.779 83.4533 96.2164 83.24C96.6537 83.0267 97.1444 82.92 97.6884 82.92ZM106.174 90.12C106.206 90.1093 106.248 90.104 106.302 90.104C106.366 90.104 106.424 90.1253 106.478 90.168C106.531 90.2107 106.563 90.2693 106.574 90.344L106.622 90.568C106.632 90.5893 106.638 90.6267 106.638 90.68C106.638 90.8293 106.558 90.92 106.398 90.952C106.014 91.0693 105.603 91.128 105.166 91.128C104.472 91.128 103.976 90.9733 103.678 90.664C103.39 90.344 103.246 89.8853 103.246 89.288V83.912H102.062C101.848 83.912 101.742 83.8053 101.742 83.592V83.432C101.742 83.2187 101.848 83.112 102.062 83.112H103.246V80.68C103.246 80.4667 103.352 80.36 103.566 80.36H103.982C104.195 80.36 104.302 80.4667 104.302 80.68V83.112H106.222C106.435 83.112 106.542 83.2187 106.542 83.432V83.592C106.542 83.8053 106.435 83.912 106.222 83.912H104.302V89.16C104.302 89.5547 104.376 89.832 104.526 89.992C104.675 90.152 104.931 90.232 105.294 90.232C105.55 90.232 105.843 90.1947 106.174 90.12ZM108.897 91.112C108.673 91.112 108.481 91.032 108.321 90.872C108.161 90.712 108.081 90.52 108.081 90.296C108.081 90.072 108.161 89.88 108.321 89.72C108.481 89.56 108.673 89.48 108.897 89.48C109.121 89.48 109.313 89.56 109.473 89.72C109.633 89.88 109.713 90.072 109.713 90.296C109.713 90.52 109.633 90.712 109.473 90.872C109.313 91.032 109.121 91.112 108.897 91.112ZM112.132 91.112C111.908 91.112 111.716 91.032 111.556 90.872C111.396 90.712 111.316 90.52 111.316 90.296C111.316 90.072 111.396 89.88 111.556 89.72C111.716 89.56 111.908 89.48 112.132 89.48C112.356 89.48 112.548 89.56 112.708 89.72C112.868 89.88 112.948 90.072 112.948 90.296C112.948 90.52 112.868 90.712 112.708 90.872C112.548 91.032 112.356 91.112 112.132 91.112ZM115.366 91.112C115.142 91.112 114.95 91.032 114.79 90.872C114.63 90.712 114.55 90.52 114.55 90.296C114.55 90.072 114.63 89.88 114.79 89.72C114.95 89.56 115.142 89.48 115.366 89.48C115.59 89.48 115.782 89.56 115.942 89.72C116.102 89.88 116.182 90.072 116.182 90.296C116.182 90.52 116.102 90.712 115.942 90.872C115.782 91.032 115.59 91.112 115.366 91.112Z" fill="#C3CCD9"/>
<g filter="url(#filter0_d_1715_18356)">
<path d="M269 140L263 146M269 144L267 146" stroke="#767676" stroke-linecap="square"/>
</g>
<rect x="70.5" y="62.5" width="202" height="87" rx="3.5" stroke="#C3CCD9"/>
<defs>
<filter id="filter0_d_1715_18356" x="262.293" y="139.293" width="7.41431" height="8.41406" filterUnits="userSpaceOnUse" color-interpolation-filters="sRGB">
<feFlood flood-opacity="0" result="BackgroundImageFix"/>
<feColorMatrix in="SourceAlpha" type="matrix" values="0 0 0 0 0 0 0 0 0 0 0 0 0 0 0 0 0 0 127 0" result="hardAlpha"/>
<feOffset dy="1"/>
<feColorMatrix type="matrix" values="0 0 0 0 1 0 0 0 0 1 0 0 0 0 1 0 0 0 0.5 0"/>
<feBlend mode="normal" in2="BackgroundImageFix" result="effect1_dropShadow_1715_18356"/>
<feBlend mode="normal" in="SourceGraphic" in2="effect1_dropShadow_1715_18356" result="shape"/>
</filter>
</defs>
</svg>
