<svg width="344" height="190" viewBox="0 0 344 190" fill="none" xmlns="http://www.w3.org/2000/svg">
<rect width="344" height="190" fill="#F5F5F5"/>
<path d="M71.568 54C71.4187 54 71.2973 53.958 71.204 53.874C71.12 53.7807 71.078 53.6593 71.078 53.51V44.55C71.078 44.3913 71.12 44.27 71.204 44.186C71.2973 44.102 71.4187 44.06 71.568 44.06H72.184C72.3427 44.06 72.464 44.102 72.548 44.186C72.632 44.27 72.674 44.3913 72.674 44.55V52.642H76.72C76.8787 52.642 77 52.684 77.084 52.768C77.168 52.852 77.21 52.9733 77.21 53.132V53.51C77.21 53.6593 77.168 53.7807 77.084 53.874C77 53.958 76.8787 54 76.72 54H71.568ZM81.5043 46.888C82.4376 46.888 83.1563 47.1073 83.6603 47.546C84.1643 47.9753 84.4163 48.5493 84.4163 49.268V53.51C84.4163 53.6593 84.3743 53.7807 84.2903 53.874C84.2063 53.958 84.0849 54 83.9263 54H83.5623C83.4129 54 83.2916 53.958 83.1983 53.874C83.1143 53.7807 83.0723 53.6593 83.0723 53.51V53.202C82.8483 53.5287 82.5403 53.7807 82.1483 53.958C81.7563 54.1353 81.2989 54.224 80.7763 54.224C80.0576 54.224 79.4649 54.0653 78.9983 53.748C78.5409 53.4213 78.3123 52.9313 78.3123 52.278C78.3123 51.55 78.5829 51.0133 79.1243 50.668C79.6749 50.3133 80.4356 50.0473 81.4063 49.87L82.9883 49.576V49.324C82.9883 48.9413 82.8529 48.6473 82.5823 48.442C82.3209 48.2273 81.9709 48.12 81.5323 48.12C81.1589 48.12 80.8323 48.1853 80.5523 48.316C80.2816 48.4373 79.9876 48.6427 79.6703 48.932C79.5489 49.0347 79.4323 49.086 79.3203 49.086C79.2083 49.086 79.0916 49.0347 78.9703 48.932L78.7463 48.736C78.6249 48.624 78.5643 48.5027 78.5643 48.372C78.5643 48.2507 78.6203 48.134 78.7323 48.022C79.1336 47.6393 79.5583 47.3547 80.0063 47.168C80.4543 46.9813 80.9536 46.888 81.5043 46.888ZM80.9863 53.034C81.5463 53.034 82.0176 52.8847 82.4003 52.586C82.7923 52.2873 82.9883 51.858 82.9883 51.298V50.654L81.7703 50.906C81.0889 51.046 80.5849 51.2047 80.2583 51.382C79.9316 51.5593 79.7683 51.83 79.7683 52.194C79.7683 52.4553 79.8756 52.6607 80.0903 52.81C80.3049 52.9593 80.6036 53.034 80.9863 53.034ZM89.7798 46.916C90.3678 46.916 90.8905 47.0653 91.3478 47.364C91.8145 47.6627 92.1785 48.0873 92.4398 48.638C92.7011 49.1887 92.8318 49.8233 92.8318 50.542C92.8318 51.27 92.7011 51.9093 92.4398 52.46C92.1785 53.0107 91.8145 53.4353 91.3478 53.734C90.8811 54.0327 90.3585 54.182 89.7798 54.182C88.7438 54.182 87.9831 53.7947 87.4978 53.02V53.51C87.4978 53.6593 87.4558 53.7807 87.3718 53.874C87.2878 53.958 87.1665 54 87.0078 54H86.6018C86.4525 54 86.3311 53.958 86.2378 53.874C86.1538 53.7807 86.1118 53.6593 86.1118 53.51V44.55C86.1118 44.3913 86.1538 44.27 86.2378 44.186C86.3311 44.102 86.4525 44.06 86.6018 44.06H87.1058C87.2645 44.06 87.3858 44.102 87.4698 44.186C87.5538 44.27 87.5958 44.3913 87.5958 44.55V47.966C88.0905 47.266 88.8185 46.916 89.7798 46.916ZM89.4718 52.894C90.0318 52.894 90.4798 52.684 90.8158 52.264C91.1518 51.8347 91.3198 51.2607 91.3198 50.542C91.3198 49.8327 91.1518 49.2633 90.8158 48.834C90.4891 48.4047 90.0458 48.19 89.4858 48.19C88.9165 48.19 88.4498 48.4047 88.0858 48.834C87.7218 49.254 87.5398 49.8233 87.5398 50.542C87.5398 51.2793 87.7218 51.858 88.0858 52.278C88.4498 52.6887 88.9118 52.894 89.4718 52.894ZM99.2023 52.236C99.3236 52.1333 99.4403 52.082 99.5523 52.082C99.6643 52.082 99.7809 52.1427 99.9023 52.264L100.098 52.474C100.201 52.5953 100.252 52.712 100.252 52.824C100.252 52.9453 100.192 53.062 100.07 53.174C99.6409 53.5473 99.2116 53.8133 98.7823 53.972C98.3623 54.1307 97.8956 54.21 97.3823 54.21C96.6636 54.21 96.0383 54.0607 95.5063 53.762C94.9836 53.4633 94.5776 53.0433 94.2883 52.502C94.0083 51.9513 93.8682 51.3167 93.8682 50.598C93.8682 49.8887 94.0036 49.254 94.2743 48.694C94.5543 48.1247 94.9463 47.6813 95.4503 47.364C95.9636 47.0467 96.5609 46.888 97.2423 46.888C98.2596 46.888 99.0436 47.1913 99.5943 47.798C100.145 48.3953 100.42 49.2213 100.42 50.276V50.402C100.411 50.5513 100.364 50.668 100.28 50.752C100.196 50.836 100.075 50.878 99.9163 50.878H95.3243C95.3803 51.494 95.5809 51.998 95.9263 52.39C96.2809 52.7727 96.7756 52.964 97.4103 52.964C97.7556 52.964 98.0589 52.9127 98.3203 52.81C98.5816 52.698 98.8756 52.5067 99.2023 52.236ZM97.2143 48.064C96.7009 48.064 96.2856 48.218 95.9683 48.526C95.6603 48.8247 95.4596 49.2493 95.3663 49.8H98.9643C98.9269 49.2587 98.7589 48.834 98.4603 48.526C98.1616 48.218 97.7463 48.064 97.2143 48.064ZM102.326 54C102.176 54 102.055 53.958 101.962 53.874C101.878 53.7807 101.836 53.6593 101.836 53.51V44.55C101.836 44.3913 101.878 44.27 101.962 44.186C102.055 44.102 102.176 44.06 102.326 44.06H102.83C102.988 44.06 103.11 44.102 103.194 44.186C103.278 44.27 103.32 44.3913 103.32 44.55V53.51C103.32 53.6593 103.278 53.7807 103.194 53.874C103.11 53.958 102.988 54 102.83 54H102.326Z" fill="#464646"/>
<rect x="70.5" y="62.5" width="202" height="87" rx="3.5" fill="white"/>
<path d="M79.808 91C79.5947 91 79.488 90.8933 79.488 90.68V79.96C79.488 79.7467 79.5947 79.64 79.808 79.64H80.304C80.5173 79.64 80.624 79.7467 80.624 79.96V90.68C80.624 90.8933 80.5173 91 80.304 91H79.808ZM90.0209 82.92C90.9915 82.92 91.7489 83.1547 92.2929 83.624C92.8369 84.0827 93.1089 84.6907 93.1089 85.448V90.68C93.1089 90.8933 93.0022 91 92.7889 91H92.4689C92.2555 91 92.1489 90.8933 92.1489 90.68V89.96C91.8822 90.3867 91.5035 90.7067 91.0129 90.92C90.5329 91.1333 89.9942 91.24 89.3969 91.24C88.5649 91.24 87.8875 91.064 87.3649 90.712C86.8422 90.36 86.5809 89.816 86.5809 89.08C86.5809 88.4933 86.7462 88.024 87.0769 87.672C87.4075 87.3093 87.8395 87.0373 88.3729 86.856C88.9062 86.664 89.5729 86.4933 90.3729 86.344L92.1009 86.04V85.528C92.1009 84.984 91.9142 84.5627 91.5409 84.264C91.1675 83.9547 90.6769 83.8 90.0689 83.8C89.6102 83.8 89.1942 83.8853 88.8209 84.056C88.4475 84.2267 88.0475 84.52 87.6209 84.936C87.5462 85.0107 87.4662 85.048 87.3809 85.048C87.3062 85.048 87.2369 85.016 87.1729 84.952L86.9649 84.76C86.8902 84.6853 86.8529 84.6053 86.8529 84.52C86.8529 84.424 86.8902 84.3387 86.9649 84.264C87.4129 83.7947 87.8822 83.4533 88.3729 83.24C88.8742 83.0267 89.4235 82.92 90.0209 82.92ZM89.4449 90.36C90.2129 90.36 90.8475 90.1573 91.3489 89.752C91.8502 89.3467 92.1009 88.8293 92.1009 88.2V86.856L90.6129 87.144C89.9195 87.2827 89.3702 87.416 88.9649 87.544C88.5595 87.672 88.2342 87.8587 87.9889 88.104C87.7435 88.3493 87.6209 88.6693 87.6209 89.064C87.6209 89.4693 87.7809 89.7893 88.1009 90.024C88.4315 90.248 88.8795 90.36 89.4449 90.36ZM103.466 82.92C104.319 82.92 104.97 83.1653 105.418 83.656C105.876 84.136 106.106 84.7547 106.106 85.512V90.68C106.106 90.8933 105.999 91 105.786 91H105.37C105.156 91 105.05 90.8933 105.05 90.68V85.8C105.05 85.16 104.9 84.6693 104.602 84.328C104.314 83.9867 103.882 83.816 103.306 83.816C102.698 83.816 102.212 84.0187 101.85 84.424C101.487 84.8293 101.306 85.352 101.306 85.992V90.68C101.306 90.8933 101.199 91 100.986 91H100.57C100.356 91 100.25 90.8933 100.25 90.68V85.8C100.25 85.16 100.1 84.6693 99.8016 84.328C99.5136 83.9867 99.0763 83.816 98.4896 83.816C97.9456 83.816 97.4923 83.9867 97.1296 84.328C96.7776 84.6693 96.5696 85.1173 96.5056 85.672V90.68C96.5056 90.8933 96.399 91 96.1856 91H95.7696C95.5563 91 95.4496 90.8933 95.4496 90.68V83.432C95.4496 83.2187 95.5563 83.112 95.7696 83.112H96.1216C96.335 83.112 96.4416 83.2187 96.4416 83.432V84.088C96.9216 83.3093 97.6843 82.92 98.7296 82.92C99.2736 82.92 99.7376 83.0427 100.122 83.288C100.516 83.5227 100.81 83.8427 101.002 84.248C101.567 83.3627 102.388 82.92 103.466 82.92ZM115.161 82.92C116.132 82.92 116.89 83.1547 117.434 83.624C117.978 84.0827 118.25 84.6907 118.25 85.448V90.68C118.25 90.8933 118.143 91 117.93 91H117.61C117.396 91 117.29 90.8933 117.29 90.68V89.96C117.023 90.3867 116.644 90.7067 116.154 90.92C115.674 91.1333 115.135 91.24 114.538 91.24C113.706 91.24 113.028 91.064 112.506 90.712C111.983 90.36 111.722 89.816 111.722 89.08C111.722 88.4933 111.887 88.024 112.218 87.672C112.548 87.3093 112.98 87.0373 113.514 86.856C114.047 86.664 114.714 86.4933 115.514 86.344L117.242 86.04V85.528C117.242 84.984 117.055 84.5627 116.682 84.264C116.308 83.9547 115.818 83.8 115.21 83.8C114.751 83.8 114.335 83.8853 113.962 84.056C113.588 84.2267 113.188 84.52 112.762 84.936C112.687 85.0107 112.607 85.048 112.522 85.048C112.447 85.048 112.378 85.016 112.314 84.952L112.106 84.76C112.031 84.6853 111.993 84.6053 111.993 84.52C111.993 84.424 112.031 84.3387 112.106 84.264C112.554 83.7947 113.023 83.4533 113.514 83.24C114.015 83.0267 114.564 82.92 115.161 82.92ZM114.586 90.36C115.354 90.36 115.988 90.1573 116.49 89.752C116.991 89.3467 117.242 88.8293 117.242 88.2V86.856L115.754 87.144C115.06 87.2827 114.511 87.416 114.106 87.544C113.7 87.672 113.375 87.8587 113.13 88.104C112.884 88.3493 112.762 88.6693 112.762 89.064C112.762 89.4693 112.922 89.7893 113.242 90.024C113.572 90.248 114.02 90.36 114.586 90.36ZM128.054 82.936C128.715 82.936 129.307 83.112 129.83 83.464C130.363 83.8053 130.779 84.2907 131.078 84.92C131.376 85.5387 131.526 86.248 131.526 87.048C131.526 87.8587 131.376 88.5787 131.078 89.208C130.779 89.8373 130.368 90.328 129.846 90.68C129.323 91.0213 128.726 91.192 128.054 91.192C126.816 91.192 125.91 90.7387 125.334 89.832V93.624C125.334 93.8373 125.227 93.944 125.014 93.944H124.598C124.384 93.944 124.278 93.8373 124.278 93.624V83.432C124.278 83.2187 124.384 83.112 124.598 83.112H124.95C125.163 83.112 125.27 83.2187 125.27 83.432V84.44C125.558 83.9493 125.936 83.576 126.406 83.32C126.875 83.064 127.424 82.936 128.054 82.936ZM127.974 90.296C128.72 90.296 129.318 89.9973 129.766 89.4C130.214 88.8027 130.438 88.0187 130.438 87.048C130.438 86.088 130.214 85.3147 129.766 84.728C129.318 84.1307 128.72 83.832 127.974 83.832C127.174 83.832 126.523 84.12 126.022 84.696C125.531 85.2613 125.286 86.0453 125.286 87.048C125.286 88.0507 125.536 88.8453 126.038 89.432C126.539 90.008 127.184 90.296 127.974 90.296ZM133.739 91C133.525 91 133.419 90.8933 133.419 90.68V79.96C133.419 79.7467 133.525 79.64 133.739 79.64H134.155C134.368 79.64 134.475 79.7467 134.475 79.96V90.68C134.475 90.8933 134.368 91 134.155 91H133.739ZM139.896 82.92C140.867 82.92 141.624 83.1547 142.168 83.624C142.712 84.0827 142.984 84.6907 142.984 85.448V90.68C142.984 90.8933 142.877 91 142.664 91H142.344C142.131 91 142.024 90.8933 142.024 90.68V89.96C141.757 90.3867 141.379 90.7067 140.888 90.92C140.408 91.1333 139.869 91.24 139.272 91.24C138.44 91.24 137.763 91.064 137.24 90.712C136.717 90.36 136.456 89.816 136.456 89.08C136.456 88.4933 136.621 88.024 136.952 87.672C137.283 87.3093 137.715 87.0373 138.248 86.856C138.781 86.664 139.448 86.4933 140.248 86.344L141.976 86.04V85.528C141.976 84.984 141.789 84.5627 141.416 84.264C141.043 83.9547 140.552 83.8 139.944 83.8C139.485 83.8 139.069 83.8853 138.696 84.056C138.323 84.2267 137.923 84.52 137.496 84.936C137.421 85.0107 137.341 85.048 137.256 85.048C137.181 85.048 137.112 85.016 137.048 84.952L136.84 84.76C136.765 84.6853 136.728 84.6053 136.728 84.52C136.728 84.424 136.765 84.3387 136.84 84.264C137.288 83.7947 137.757 83.4533 138.248 83.24C138.749 83.0267 139.299 82.92 139.896 82.92ZM139.32 90.36C140.088 90.36 140.723 90.1573 141.224 89.752C141.725 89.3467 141.976 88.8293 141.976 88.2V86.856L140.488 87.144C139.795 87.2827 139.245 87.416 138.84 87.544C138.435 87.672 138.109 87.8587 137.864 88.104C137.619 88.3493 137.496 88.6693 137.496 89.064C137.496 89.4693 137.656 89.7893 137.976 90.024C138.307 90.248 138.755 90.36 139.32 90.36ZM148.525 91.208C147.767 91.208 147.106 91.0373 146.541 90.696C145.986 90.344 145.554 89.8587 145.245 89.24C144.946 88.6107 144.797 87.8853 144.797 87.064C144.797 86.2533 144.946 85.5333 145.245 84.904C145.554 84.2747 145.986 83.7893 146.541 83.448C147.106 83.096 147.757 82.92 148.493 82.92C149.09 82.92 149.613 83.0213 150.061 83.224C150.509 83.416 150.941 83.736 151.357 84.184C151.421 84.248 151.453 84.3173 151.453 84.392C151.453 84.488 151.41 84.568 151.325 84.632L151.101 84.84C151.037 84.904 150.962 84.936 150.877 84.936C150.802 84.936 150.722 84.8933 150.637 84.808C150.263 84.4347 149.906 84.1733 149.565 84.024C149.234 83.8747 148.866 83.8 148.461 83.8C147.906 83.8 147.431 83.9547 147.037 84.264C146.653 84.5733 146.365 84.9787 146.173 85.48C145.981 85.9707 145.885 86.4987 145.885 87.064C145.885 87.6293 145.981 88.1627 146.173 88.664C146.365 89.1547 146.658 89.5547 147.053 89.864C147.447 90.1627 147.933 90.312 148.509 90.312C148.935 90.312 149.309 90.2373 149.629 90.088C149.959 89.928 150.327 89.6293 150.733 89.192C150.818 89.1067 150.898 89.064 150.973 89.064C151.058 89.064 151.133 89.096 151.197 89.16L151.421 89.336C151.495 89.4 151.533 89.4747 151.533 89.56C151.533 89.6453 151.485 89.7467 151.389 89.864C150.941 90.3547 150.493 90.7013 150.045 90.904C149.597 91.1067 149.09 91.208 148.525 91.208ZM158.834 89.128C158.909 89.0533 158.989 89.016 159.074 89.016C159.149 89.016 159.218 89.048 159.282 89.112L159.49 89.304C159.565 89.3787 159.602 89.4587 159.602 89.544C159.602 89.608 159.57 89.6827 159.506 89.768C158.984 90.2907 158.477 90.664 157.986 90.888C157.496 91.1013 156.946 91.208 156.338 91.208C155.57 91.208 154.904 91.0373 154.338 90.696C153.773 90.3547 153.336 89.88 153.026 89.272C152.717 88.6533 152.562 87.9387 152.562 87.128C152.562 86.3067 152.712 85.5813 153.01 84.952C153.32 84.312 153.752 83.816 154.306 83.464C154.861 83.1013 155.501 82.92 156.226 82.92C157.304 82.92 158.152 83.256 158.77 83.928C159.389 84.6 159.698 85.5067 159.698 86.648V86.84C159.688 86.936 159.65 87.0107 159.586 87.064C159.533 87.1173 159.458 87.144 159.362 87.144H153.634C153.666 88.04 153.901 88.7973 154.338 89.416C154.786 90.024 155.453 90.328 156.338 90.328C156.818 90.328 157.24 90.2427 157.602 90.072C157.976 89.8907 158.386 89.576 158.834 89.128ZM156.226 83.8C155.522 83.8 154.941 84.0187 154.482 84.456C154.034 84.8827 153.762 85.512 153.666 86.344H158.642C158.621 85.5653 158.397 84.9467 157.97 84.488C157.544 84.0293 156.962 83.8 156.226 83.8ZM165.11 82.92C166.028 82.92 166.726 83.1813 167.206 83.704C167.686 84.216 167.926 84.8507 167.926 85.608V90.68C167.926 90.8933 167.82 91 167.606 91H167.19C166.977 91 166.87 90.8933 166.87 90.68V85.96C166.87 85.256 166.7 84.7227 166.358 84.36C166.017 83.9973 165.526 83.816 164.886 83.816C164.481 83.816 164.108 83.9173 163.766 84.12C163.425 84.312 163.153 84.5787 162.95 84.92C162.748 85.2613 162.646 85.6347 162.646 86.04V90.68C162.646 90.8933 162.54 91 162.326 91H161.91C161.697 91 161.59 90.8933 161.59 90.68V79.96C161.59 79.7467 161.697 79.64 161.91 79.64H162.326C162.54 79.64 162.646 79.7467 162.646 79.96V84.136C162.902 83.7307 163.244 83.4267 163.67 83.224C164.108 83.0213 164.588 82.92 165.11 82.92ZM173.526 91.208C172.79 91.208 172.134 91.032 171.558 90.68C170.982 90.328 170.534 89.8427 170.214 89.224C169.894 88.5947 169.734 87.8747 169.734 87.064C169.734 86.2533 169.894 85.5387 170.214 84.92C170.534 84.2907 170.982 83.8 171.558 83.448C172.134 83.096 172.79 82.92 173.526 82.92C174.262 82.92 174.918 83.096 175.494 83.448C176.07 83.8 176.518 84.2907 176.838 84.92C177.158 85.5387 177.318 86.2533 177.318 87.064C177.318 87.8747 177.158 88.5947 176.838 89.224C176.518 89.8427 176.07 90.328 175.494 90.68C174.918 91.032 174.262 91.208 173.526 91.208ZM173.526 90.328C174.347 90.328 175.003 90.0293 175.494 89.432C175.985 88.824 176.23 88.0347 176.23 87.064C176.23 86.0933 175.985 85.3093 175.494 84.712C175.003 84.104 174.347 83.8 173.526 83.8C172.705 83.8 172.049 84.104 171.558 84.712C171.067 85.3093 170.822 86.0933 170.822 87.064C170.822 88.0347 171.067 88.824 171.558 89.432C172.049 90.0293 172.705 90.328 173.526 90.328ZM179.489 91C179.275 91 179.169 90.8933 179.169 90.68V79.96C179.169 79.7467 179.275 79.64 179.489 79.64H179.905C180.118 79.64 180.225 79.7467 180.225 79.96V90.68C180.225 90.8933 180.118 91 179.905 91H179.489ZM188.302 79.96C188.302 79.7467 188.409 79.64 188.622 79.64H189.038C189.251 79.64 189.358 79.7467 189.358 79.96V90.68C189.358 90.8933 189.251 91 189.038 91H188.702C188.489 91 188.382 90.8933 188.382 90.68V89.64C188.094 90.1413 187.715 90.5253 187.246 90.792C186.777 91.0587 186.222 91.192 185.582 91.192C184.91 91.192 184.313 91.0213 183.79 90.68C183.267 90.328 182.857 89.8427 182.558 89.224C182.259 88.5947 182.11 87.8747 182.11 87.064C182.11 86.2533 182.259 85.5387 182.558 84.92C182.867 84.2907 183.289 83.8053 183.822 83.464C184.355 83.112 184.953 82.936 185.614 82.936C186.83 82.936 187.726 83.3893 188.302 84.296V79.96ZM185.662 90.296C186.462 90.296 187.107 90.0133 187.598 89.448C188.099 88.872 188.35 88.0773 188.35 87.064C188.35 86.0613 188.099 85.272 187.598 84.696C187.107 84.12 186.462 83.832 185.662 83.832C184.926 83.832 184.329 84.1307 183.87 84.728C183.422 85.3253 183.198 86.104 183.198 87.064C183.198 88.0347 183.422 88.8187 183.87 89.416C184.318 90.0027 184.915 90.296 185.662 90.296ZM197.475 89.128C197.55 89.0533 197.63 89.016 197.715 89.016C197.79 89.016 197.859 89.048 197.923 89.112L198.131 89.304C198.206 89.3787 198.243 89.4587 198.243 89.544C198.243 89.608 198.211 89.6827 198.147 89.768C197.624 90.2907 197.118 90.664 196.627 90.888C196.136 91.1013 195.587 91.208 194.979 91.208C194.211 91.208 193.544 91.0373 192.979 90.696C192.414 90.3547 191.976 89.88 191.667 89.272C191.358 88.6533 191.203 87.9387 191.203 87.128C191.203 86.3067 191.352 85.5813 191.651 84.952C191.96 84.312 192.392 83.816 192.947 83.464C193.502 83.1013 194.142 82.92 194.867 82.92C195.944 82.92 196.792 83.256 197.411 83.928C198.03 84.6 198.339 85.5067 198.339 86.648V86.84C198.328 86.936 198.291 87.0107 198.227 87.064C198.174 87.1173 198.099 87.144 198.003 87.144H192.275C192.307 88.04 192.542 88.7973 192.979 89.416C193.427 90.024 194.094 90.328 194.979 90.328C195.459 90.328 195.88 90.2427 196.243 90.072C196.616 89.8907 197.027 89.576 197.475 89.128ZM194.867 83.8C194.163 83.8 193.582 84.0187 193.123 84.456C192.675 84.8827 192.403 85.512 192.307 86.344H197.283C197.262 85.5653 197.038 84.9467 196.611 84.488C196.184 84.0293 195.603 83.8 194.867 83.8ZM203.175 83.048C203.442 83.048 203.756 83.0907 204.119 83.176C204.311 83.24 204.386 83.3733 204.343 83.576L204.279 83.832C204.226 84.0347 204.092 84.1093 203.879 84.056C203.623 83.992 203.388 83.96 203.175 83.96C202.631 83.96 202.178 84.1947 201.815 84.664C201.463 85.1333 201.287 85.784 201.287 86.616V90.68C201.287 90.8933 201.18 91 200.967 91H200.551C200.338 91 200.231 90.8933 200.231 90.68V83.432C200.231 83.2187 200.338 83.112 200.551 83.112H200.903C201.116 83.112 201.223 83.2187 201.223 83.432V84.312C201.404 83.9173 201.66 83.608 201.991 83.384C202.332 83.16 202.727 83.048 203.175 83.048ZM213.017 90.12C213.049 90.1093 213.092 90.104 213.145 90.104C213.209 90.104 213.268 90.1253 213.321 90.168C213.375 90.2107 213.407 90.2693 213.417 90.344L213.465 90.568C213.476 90.5893 213.481 90.6267 213.481 90.68C213.481 90.8293 213.401 90.92 213.241 90.952C212.857 91.0693 212.447 91.128 212.009 91.128C211.316 91.128 210.82 90.9733 210.521 90.664C210.233 90.344 210.089 89.8853 210.089 89.288V83.912H208.905C208.692 83.912 208.585 83.8053 208.585 83.592V83.432C208.585 83.2187 208.692 83.112 208.905 83.112H210.089V80.68C210.089 80.4667 210.196 80.36 210.409 80.36H210.825C211.039 80.36 211.145 80.4667 211.145 80.68V83.112H213.065C213.279 83.112 213.385 83.2187 213.385 83.432V83.592C213.385 83.8053 213.279 83.912 213.065 83.912H211.145V89.16C211.145 89.5547 211.22 89.832 211.369 89.992C211.519 90.152 211.775 90.232 212.137 90.232C212.393 90.232 212.687 90.1947 213.017 90.12ZM220.444 89.128C220.518 89.0533 220.598 89.016 220.684 89.016C220.758 89.016 220.828 89.048 220.892 89.112L221.1 89.304C221.174 89.3787 221.212 89.4587 221.212 89.544C221.212 89.608 221.18 89.6827 221.116 89.768C220.593 90.2907 220.086 90.664 219.596 90.888C219.105 91.1013 218.556 91.208 217.948 91.208C217.18 91.208 216.513 91.0373 215.948 90.696C215.382 90.3547 214.945 89.88 214.636 89.272C214.326 88.6533 214.172 87.9387 214.172 87.128C214.172 86.3067 214.321 85.5813 214.62 84.952C214.929 84.312 215.361 83.816 215.916 83.464C216.47 83.1013 217.11 82.92 217.836 82.92C218.913 82.92 219.761 83.256 220.38 83.928C220.998 84.6 221.308 85.5067 221.308 86.648V86.84C221.297 86.936 221.26 87.0107 221.196 87.064C221.142 87.1173 221.068 87.144 220.972 87.144H215.244C215.276 88.04 215.51 88.7973 215.948 89.416C216.396 90.024 217.062 90.328 217.948 90.328C218.428 90.328 218.849 90.2427 219.212 90.072C219.585 89.8907 219.996 89.576 220.444 89.128ZM217.836 83.8C217.132 83.8 216.55 84.0187 216.092 84.456C215.644 84.8827 215.372 85.512 215.276 86.344H220.252C220.23 85.5653 220.006 84.9467 219.58 84.488C219.153 84.0293 218.572 83.8 217.836 83.8ZM228.789 90.616C228.831 90.6907 228.853 90.7547 228.853 90.808C228.853 90.936 228.767 91 228.597 91H228.117C227.957 91 227.829 90.9307 227.733 90.792L225.557 87.592L223.397 90.792C223.301 90.9307 223.173 91 223.013 91H222.565C222.479 91 222.41 90.984 222.357 90.952C222.314 90.9093 222.293 90.8613 222.293 90.808C222.293 90.7333 222.314 90.6693 222.357 90.616L224.949 86.888L222.565 83.496C222.522 83.4427 222.501 83.384 222.501 83.32C222.501 83.1813 222.591 83.112 222.773 83.112H223.237C223.397 83.112 223.525 83.1813 223.621 83.32L225.573 86.184L227.509 83.32C227.605 83.1813 227.733 83.112 227.893 83.112H228.325C228.41 83.112 228.474 83.1333 228.517 83.176C228.57 83.208 228.597 83.2507 228.597 83.304C228.597 83.3787 228.575 83.4427 228.533 83.496L226.197 86.84L228.789 90.616ZM234.095 90.12C234.127 90.1093 234.17 90.104 234.223 90.104C234.287 90.104 234.346 90.1253 234.399 90.168C234.453 90.2107 234.485 90.2693 234.495 90.344L234.543 90.568C234.554 90.5893 234.559 90.6267 234.559 90.68C234.559 90.8293 234.479 90.92 234.319 90.952C233.935 91.0693 233.525 91.128 233.087 91.128C232.394 91.128 231.898 90.9733 231.599 90.664C231.311 90.344 231.167 89.8853 231.167 89.288V83.912H229.983C229.77 83.912 229.663 83.8053 229.663 83.592V83.432C229.663 83.2187 229.77 83.112 229.983 83.112H231.167V80.68C231.167 80.4667 231.274 80.36 231.487 80.36H231.903C232.117 80.36 232.223 80.4667 232.223 80.68V83.112H234.143C234.357 83.112 234.463 83.2187 234.463 83.432V83.592C234.463 83.8053 234.357 83.912 234.143 83.912H232.223V89.16C232.223 89.5547 232.298 89.832 232.447 89.992C232.597 90.152 232.853 90.232 233.215 90.232C233.471 90.232 233.765 90.1947 234.095 90.12ZM236.819 91.112C236.595 91.112 236.403 91.032 236.243 90.872C236.083 90.712 236.003 90.52 236.003 90.296C236.003 90.072 236.083 89.88 236.243 89.72C236.403 89.56 236.595 89.48 236.819 89.48C237.043 89.48 237.235 89.56 237.395 89.72C237.555 89.88 237.635 90.072 237.635 90.296C237.635 90.52 237.555 90.712 237.395 90.872C237.235 91.032 237.043 91.112 236.819 91.112ZM240.054 91.112C239.83 91.112 239.638 91.032 239.478 90.872C239.318 90.712 239.238 90.52 239.238 90.296C239.238 90.072 239.318 89.88 239.478 89.72C239.638 89.56 239.83 89.48 240.054 89.48C240.278 89.48 240.47 89.56 240.63 89.72C240.79 89.88 240.87 90.072 240.87 90.296C240.87 90.52 240.79 90.712 240.63 90.872C240.47 91.032 240.278 91.112 240.054 91.112Z" fill="#C3CCD9"/>
<g filter="url(#filter0_d_1715_18395)">
<path d="M269 140L263 146M269 144L267 146" stroke="#767676" stroke-linecap="square"/>
</g>
<rect x="70.5" y="62.5" width="202" height="87" rx="3.5" stroke="#C3CCD9"/>
<defs>
<filter id="filter0_d_1715_18395" x="262.293" y="139.293" width="7.41431" height="8.41406" filterUnits="userSpaceOnUse" color-interpolation-filters="sRGB">
<feFlood flood-opacity="0" result="BackgroundImageFix"/>
<feColorMatrix in="SourceAlpha" type="matrix" values="0 0 0 0 0 0 0 0 0 0 0 0 0 0 0 0 0 0 127 0" result="hardAlpha"/>
<feOffset dy="1"/>
<feColorMatrix type="matrix" values="0 0 0 0 1 0 0 0 0 1 0 0 0 0 1 0 0 0 0.5 0"/>
<feBlend mode="normal" in2="BackgroundImageFix" result="effect1_dropShadow_1715_18395"/>
<feBlend mode="normal" in="SourceGraphic" in2="effect1_dropShadow_1715_18395" result="shape"/>
</filter>
</defs>
</svg>
