<svg width="344" height="190" viewBox="0 0 344 190" fill="none" xmlns="http://www.w3.org/2000/svg">
<rect width="344" height="190" fill="#F5F5F5"/>
<path d="M71.568 54C71.4187 54 71.2973 53.958 71.204 53.874C71.12 53.7807 71.078 53.6593 71.078 53.51V44.55C71.078 44.3913 71.12 44.27 71.204 44.186C71.2973 44.102 71.4187 44.06 71.568 44.06H72.184C72.3427 44.06 72.464 44.102 72.548 44.186C72.632 44.27 72.674 44.3913 72.674 44.55V52.642H76.72C76.8787 52.642 77 52.684 77.084 52.768C77.168 52.852 77.21 52.9733 77.21 53.132V53.51C77.21 53.6593 77.168 53.7807 77.084 53.874C77 53.958 76.8787 54 76.72 54H71.568ZM81.5043 46.888C82.4376 46.888 83.1563 47.1073 83.6603 47.546C84.1643 47.9753 84.4163 48.5493 84.4163 49.268V53.51C84.4163 53.6593 84.3743 53.7807 84.2903 53.874C84.2063 53.958 84.0849 54 83.9263 54H83.5623C83.4129 54 83.2916 53.958 83.1983 53.874C83.1143 53.7807 83.0723 53.6593 83.0723 53.51V53.202C82.8483 53.5287 82.5403 53.7807 82.1483 53.958C81.7563 54.1353 81.2989 54.224 80.7763 54.224C80.0576 54.224 79.4649 54.0653 78.9983 53.748C78.5409 53.4213 78.3123 52.9313 78.3123 52.278C78.3123 51.55 78.5829 51.0133 79.1243 50.668C79.6749 50.3133 80.4356 50.0473 81.4063 49.87L82.9883 49.576V49.324C82.9883 48.9413 82.8529 48.6473 82.5823 48.442C82.3209 48.2273 81.9709 48.12 81.5323 48.12C81.1589 48.12 80.8323 48.1853 80.5523 48.316C80.2816 48.4373 79.9876 48.6427 79.6703 48.932C79.5489 49.0347 79.4323 49.086 79.3203 49.086C79.2083 49.086 79.0916 49.0347 78.9703 48.932L78.7463 48.736C78.6249 48.624 78.5643 48.5027 78.5643 48.372C78.5643 48.2507 78.6203 48.134 78.7323 48.022C79.1336 47.6393 79.5583 47.3547 80.0063 47.168C80.4543 46.9813 80.9536 46.888 81.5043 46.888ZM80.9863 53.034C81.5463 53.034 82.0176 52.8847 82.4003 52.586C82.7923 52.2873 82.9883 51.858 82.9883 51.298V50.654L81.7703 50.906C81.0889 51.046 80.5849 51.2047 80.2583 51.382C79.9316 51.5593 79.7683 51.83 79.7683 52.194C79.7683 52.4553 79.8756 52.6607 80.0903 52.81C80.3049 52.9593 80.6036 53.034 80.9863 53.034ZM89.7798 46.916C90.3678 46.916 90.8905 47.0653 91.3478 47.364C91.8145 47.6627 92.1785 48.0873 92.4398 48.638C92.7011 49.1887 92.8318 49.8233 92.8318 50.542C92.8318 51.27 92.7011 51.9093 92.4398 52.46C92.1785 53.0107 91.8145 53.4353 91.3478 53.734C90.8811 54.0327 90.3585 54.182 89.7798 54.182C88.7438 54.182 87.9831 53.7947 87.4978 53.02V53.51C87.4978 53.6593 87.4558 53.7807 87.3718 53.874C87.2878 53.958 87.1665 54 87.0078 54H86.6018C86.4525 54 86.3311 53.958 86.2378 53.874C86.1538 53.7807 86.1118 53.6593 86.1118 53.51V44.55C86.1118 44.3913 86.1538 44.27 86.2378 44.186C86.3311 44.102 86.4525 44.06 86.6018 44.06H87.1058C87.2645 44.06 87.3858 44.102 87.4698 44.186C87.5538 44.27 87.5958 44.3913 87.5958 44.55V47.966C88.0905 47.266 88.8185 46.916 89.7798 46.916ZM89.4718 52.894C90.0318 52.894 90.4798 52.684 90.8158 52.264C91.1518 51.8347 91.3198 51.2607 91.3198 50.542C91.3198 49.8327 91.1518 49.2633 90.8158 48.834C90.4891 48.4047 90.0458 48.19 89.4858 48.19C88.9165 48.19 88.4498 48.4047 88.0858 48.834C87.7218 49.254 87.5398 49.8233 87.5398 50.542C87.5398 51.2793 87.7218 51.858 88.0858 52.278C88.4498 52.6887 88.9118 52.894 89.4718 52.894ZM99.2023 52.236C99.3236 52.1333 99.4403 52.082 99.5523 52.082C99.6643 52.082 99.7809 52.1427 99.9023 52.264L100.098 52.474C100.201 52.5953 100.252 52.712 100.252 52.824C100.252 52.9453 100.192 53.062 100.07 53.174C99.6409 53.5473 99.2116 53.8133 98.7823 53.972C98.3623 54.1307 97.8956 54.21 97.3823 54.21C96.6636 54.21 96.0383 54.0607 95.5063 53.762C94.9836 53.4633 94.5776 53.0433 94.2883 52.502C94.0083 51.9513 93.8682 51.3167 93.8682 50.598C93.8682 49.8887 94.0036 49.254 94.2743 48.694C94.5543 48.1247 94.9463 47.6813 95.4503 47.364C95.9636 47.0467 96.5609 46.888 97.2423 46.888C98.2596 46.888 99.0436 47.1913 99.5943 47.798C100.145 48.3953 100.42 49.2213 100.42 50.276V50.402C100.411 50.5513 100.364 50.668 100.28 50.752C100.196 50.836 100.075 50.878 99.9163 50.878H95.3243C95.3803 51.494 95.5809 51.998 95.9263 52.39C96.2809 52.7727 96.7756 52.964 97.4103 52.964C97.7556 52.964 98.0589 52.9127 98.3203 52.81C98.5816 52.698 98.8756 52.5067 99.2023 52.236ZM97.2143 48.064C96.7009 48.064 96.2856 48.218 95.9683 48.526C95.6603 48.8247 95.4596 49.2493 95.3663 49.8H98.9643C98.9269 49.2587 98.7589 48.834 98.4603 48.526C98.1616 48.218 97.7463 48.064 97.2143 48.064ZM102.326 54C102.176 54 102.055 53.958 101.962 53.874C101.878 53.7807 101.836 53.6593 101.836 53.51V44.55C101.836 44.3913 101.878 44.27 101.962 44.186C102.055 44.102 102.176 44.06 102.326 44.06H102.83C102.988 44.06 103.11 44.102 103.194 44.186C103.278 44.27 103.32 44.3913 103.32 44.55V53.51C103.32 53.6593 103.278 53.7807 103.194 53.874C103.11 53.958 102.988 54 102.83 54H102.326Z" fill="#464646"/>
<path d="M71.808 91C71.5947 91 71.488 90.8933 71.488 90.68V79.96C71.488 79.7467 71.5947 79.64 71.808 79.64H72.304C72.5173 79.64 72.624 79.7467 72.624 79.96V90.68C72.624 90.8933 72.5173 91 72.304 91H71.808ZM82.0209 82.92C82.9915 82.92 83.7489 83.1547 84.2929 83.624C84.8369 84.0827 85.1089 84.6907 85.1089 85.448V90.68C85.1089 90.8933 85.0022 91 84.7889 91H84.4689C84.2555 91 84.1489 90.8933 84.1489 90.68V89.96C83.8822 90.3867 83.5035 90.7067 83.0129 90.92C82.5329 91.1333 81.9942 91.24 81.3969 91.24C80.5649 91.24 79.8875 91.064 79.3649 90.712C78.8422 90.36 78.5809 89.816 78.5809 89.08C78.5809 88.4933 78.7462 88.024 79.0769 87.672C79.4075 87.3093 79.8395 87.0373 80.3729 86.856C80.9062 86.664 81.5729 86.4933 82.3729 86.344L84.1009 86.04V85.528C84.1009 84.984 83.9142 84.5627 83.5409 84.264C83.1675 83.9547 82.6769 83.8 82.0689 83.8C81.6102 83.8 81.1942 83.8853 80.8209 84.056C80.4475 84.2267 80.0475 84.52 79.6209 84.936C79.5462 85.0107 79.4662 85.048 79.3809 85.048C79.3062 85.048 79.2369 85.016 79.1729 84.952L78.9649 84.76C78.8902 84.6853 78.8529 84.6053 78.8529 84.52C78.8529 84.424 78.8902 84.3387 78.9649 84.264C79.4129 83.7947 79.8822 83.4533 80.3729 83.24C80.8742 83.0267 81.4235 82.92 82.0209 82.92ZM81.4449 90.36C82.2129 90.36 82.8475 90.1573 83.3489 89.752C83.8502 89.3467 84.1009 88.8293 84.1009 88.2V86.856L82.6129 87.144C81.9195 87.2827 81.3702 87.416 80.9649 87.544C80.5595 87.672 80.2342 87.8587 79.9889 88.104C79.7435 88.3493 79.6209 88.6693 79.6209 89.064C79.6209 89.4693 79.7809 89.7893 80.1009 90.024C80.4315 90.248 80.8795 90.36 81.4449 90.36ZM95.4656 82.92C96.319 82.92 96.9696 83.1653 97.4176 83.656C97.8763 84.136 98.1056 84.7547 98.1056 85.512V90.68C98.1056 90.8933 97.999 91 97.7856 91H97.3696C97.1563 91 97.0496 90.8933 97.0496 90.68V85.8C97.0496 85.16 96.9003 84.6693 96.6016 84.328C96.3136 83.9867 95.8816 83.816 95.3056 83.816C94.6976 83.816 94.2123 84.0187 93.8496 84.424C93.487 84.8293 93.3056 85.352 93.3056 85.992V90.68C93.3056 90.8933 93.199 91 92.9856 91H92.5696C92.3563 91 92.2496 90.8933 92.2496 90.68V85.8C92.2496 85.16 92.1003 84.6693 91.8016 84.328C91.5136 83.9867 91.0763 83.816 90.4896 83.816C89.9456 83.816 89.4923 83.9867 89.1296 84.328C88.7776 84.6693 88.5696 85.1173 88.5056 85.672V90.68C88.5056 90.8933 88.399 91 88.1856 91H87.7696C87.5563 91 87.4496 90.8933 87.4496 90.68V83.432C87.4496 83.2187 87.5563 83.112 87.7696 83.112H88.1216C88.335 83.112 88.4416 83.2187 88.4416 83.432V84.088C88.9216 83.3093 89.6843 82.92 90.7296 82.92C91.2736 82.92 91.7376 83.0427 92.1216 83.288C92.5163 83.5227 92.8096 83.8427 93.0016 84.248C93.567 83.3627 94.3883 82.92 95.4656 82.92ZM107.161 82.92C108.132 82.92 108.89 83.1547 109.434 83.624C109.978 84.0827 110.25 84.6907 110.25 85.448V90.68C110.25 90.8933 110.143 91 109.93 91H109.61C109.396 91 109.29 90.8933 109.29 90.68V89.96C109.023 90.3867 108.644 90.7067 108.154 90.92C107.674 91.1333 107.135 91.24 106.538 91.24C105.706 91.24 105.028 91.064 104.506 90.712C103.983 90.36 103.722 89.816 103.722 89.08C103.722 88.4933 103.887 88.024 104.218 87.672C104.548 87.3093 104.98 87.0373 105.514 86.856C106.047 86.664 106.714 86.4933 107.514 86.344L109.242 86.04V85.528C109.242 84.984 109.055 84.5627 108.682 84.264C108.308 83.9547 107.818 83.8 107.21 83.8C106.751 83.8 106.335 83.8853 105.962 84.056C105.588 84.2267 105.188 84.52 104.762 84.936C104.687 85.0107 104.607 85.048 104.522 85.048C104.447 85.048 104.378 85.016 104.314 84.952L104.106 84.76C104.031 84.6853 103.993 84.6053 103.993 84.52C103.993 84.424 104.031 84.3387 104.106 84.264C104.554 83.7947 105.023 83.4533 105.514 83.24C106.015 83.0267 106.564 82.92 107.161 82.92ZM106.586 90.36C107.354 90.36 107.988 90.1573 108.49 89.752C108.991 89.3467 109.242 88.8293 109.242 88.2V86.856L107.754 87.144C107.06 87.2827 106.511 87.416 106.106 87.544C105.7 87.672 105.375 87.8587 105.13 88.104C104.884 88.3493 104.762 88.6693 104.762 89.064C104.762 89.4693 104.922 89.7893 105.242 90.024C105.572 90.248 106.02 90.36 106.586 90.36ZM121.974 79.96C121.974 79.7467 122.08 79.64 122.294 79.64H122.71C122.923 79.64 123.03 79.7467 123.03 79.96V90.68C123.03 90.8933 122.923 91 122.71 91H122.374C122.16 91 122.054 90.8933 122.054 90.68V89.64C121.766 90.1413 121.387 90.5253 120.918 90.792C120.448 91.0587 119.894 91.192 119.254 91.192C118.582 91.192 117.984 91.0213 117.462 90.68C116.939 90.328 116.528 89.8427 116.23 89.224C115.931 88.5947 115.782 87.8747 115.782 87.064C115.782 86.2533 115.931 85.5387 116.23 84.92C116.539 84.2907 116.96 83.8053 117.494 83.464C118.027 83.112 118.624 82.936 119.286 82.936C120.502 82.936 121.398 83.3893 121.974 84.296V79.96ZM119.334 90.296C120.134 90.296 120.779 90.0133 121.27 89.448C121.771 88.872 122.022 88.0773 122.022 87.064C122.022 86.0613 121.771 85.272 121.27 84.696C120.779 84.12 120.134 83.832 119.334 83.832C118.598 83.832 118 84.1307 117.542 84.728C117.094 85.3253 116.87 86.104 116.87 87.064C116.87 88.0347 117.094 88.8187 117.542 89.416C117.99 90.0027 118.587 90.296 119.334 90.296ZM125.931 81.112C125.717 81.112 125.536 81.0373 125.387 80.888C125.248 80.7387 125.179 80.5573 125.179 80.344C125.179 80.1307 125.248 79.9547 125.387 79.816C125.536 79.6773 125.717 79.608 125.931 79.608C126.155 79.608 126.336 79.6773 126.475 79.816C126.624 79.9547 126.699 80.1307 126.699 80.344C126.699 80.5573 126.624 80.7387 126.475 80.888C126.336 81.0373 126.155 81.112 125.931 81.112ZM125.723 91C125.509 91 125.403 90.8933 125.403 90.68V83.432C125.403 83.2187 125.509 83.112 125.723 83.112H126.139C126.352 83.112 126.459 83.2187 126.459 83.432V90.68C126.459 90.8933 126.352 91 126.139 91H125.723ZM131.561 91.208C130.91 91.208 130.334 91.1173 129.833 90.936C129.342 90.744 128.825 90.424 128.281 89.976C128.185 89.912 128.137 89.8373 128.137 89.752C128.137 89.6773 128.174 89.6027 128.249 89.528L128.457 89.304C128.521 89.2187 128.601 89.176 128.697 89.176C128.772 89.176 128.841 89.208 128.905 89.272C129.417 89.6667 129.87 89.944 130.265 90.104C130.66 90.2533 131.092 90.328 131.561 90.328C132.148 90.328 132.628 90.2 133.001 89.944C133.374 89.6773 133.561 89.32 133.561 88.872C133.561 88.424 133.369 88.0933 132.985 87.88C132.601 87.6667 132.009 87.4747 131.209 87.304C130.505 87.1547 129.95 87 129.545 86.84C129.15 86.6693 128.857 86.456 128.665 86.2C128.473 85.944 128.377 85.608 128.377 85.192C128.377 84.5093 128.654 83.96 129.209 83.544C129.764 83.128 130.462 82.92 131.305 82.92C131.881 82.92 132.393 82.9947 132.841 83.144C133.3 83.2827 133.758 83.5173 134.217 83.848C134.313 83.9227 134.361 84.0027 134.361 84.088C134.361 84.1413 134.334 84.2107 134.281 84.296L134.089 84.536C134.036 84.6213 133.961 84.664 133.865 84.664C133.78 84.664 133.705 84.6373 133.641 84.584C133.204 84.2747 132.814 84.0667 132.473 83.96C132.142 83.8533 131.764 83.8 131.337 83.8C130.75 83.8 130.281 83.928 129.929 84.184C129.577 84.44 129.401 84.7653 129.401 85.16C129.401 85.4053 129.481 85.6027 129.641 85.752C129.801 85.9013 130.03 86.0293 130.329 86.136C130.628 86.232 131.065 86.344 131.641 86.472C132.708 86.7067 133.465 86.9947 133.913 87.336C134.372 87.6773 134.601 88.1733 134.601 88.824C134.601 89.5387 134.318 90.1147 133.753 90.552C133.188 90.9893 132.457 91.208 131.561 91.208ZM139.49 82.92C140.46 82.92 141.218 83.1547 141.762 83.624C142.306 84.0827 142.578 84.6907 142.578 85.448V90.68C142.578 90.8933 142.471 91 142.258 91H141.938C141.724 91 141.618 90.8933 141.618 90.68V89.96C141.351 90.3867 140.972 90.7067 140.482 90.92C140.002 91.1333 139.463 91.24 138.866 91.24C138.034 91.24 137.356 91.064 136.834 90.712C136.311 90.36 136.05 89.816 136.05 89.08C136.05 88.4933 136.215 88.024 136.546 87.672C136.876 87.3093 137.308 87.0373 137.842 86.856C138.375 86.664 139.042 86.4933 139.842 86.344L141.57 86.04V85.528C141.57 84.984 141.383 84.5627 141.01 84.264C140.636 83.9547 140.146 83.8 139.538 83.8C139.079 83.8 138.663 83.8853 138.29 84.056C137.916 84.2267 137.516 84.52 137.09 84.936C137.015 85.0107 136.935 85.048 136.85 85.048C136.775 85.048 136.706 85.016 136.642 84.952L136.434 84.76C136.359 84.6853 136.322 84.6053 136.322 84.52C136.322 84.424 136.359 84.3387 136.434 84.264C136.882 83.7947 137.351 83.4533 137.842 83.24C138.343 83.0267 138.892 82.92 139.49 82.92ZM138.914 90.36C139.682 90.36 140.316 90.1573 140.818 89.752C141.319 89.3467 141.57 88.8293 141.57 88.2V86.856L140.082 87.144C139.388 87.2827 138.839 87.416 138.434 87.544C138.028 87.672 137.703 87.8587 137.458 88.104C137.212 88.3493 137.09 88.6693 137.09 89.064C137.09 89.4693 137.25 89.7893 137.57 90.024C137.9 90.248 138.348 90.36 138.914 90.36ZM148.694 82.936C149.366 82.936 149.964 83.112 150.486 83.464C151.02 83.8053 151.43 84.2907 151.718 84.92C152.017 85.5387 152.166 86.2533 152.166 87.064C152.166 87.8747 152.017 88.5947 151.718 89.224C151.42 89.8427 151.004 90.328 150.47 90.68C149.948 91.0213 149.356 91.192 148.694 91.192C147.425 91.192 146.497 90.7013 145.91 89.72V90.68C145.91 90.8933 145.804 91 145.59 91H145.238C145.025 91 144.918 90.8933 144.918 90.68V79.944C144.918 79.7307 145.025 79.624 145.238 79.624H145.654C145.868 79.624 145.974 79.7307 145.974 79.944V84.36C146.561 83.4107 147.468 82.936 148.694 82.936ZM148.614 90.296C149.35 90.296 149.942 89.9973 150.39 89.4C150.849 88.8027 151.078 88.024 151.078 87.064C151.078 86.104 150.849 85.3253 150.39 84.728C149.942 84.1307 149.35 83.832 148.614 83.832C147.825 83.832 147.18 84.12 146.678 84.696C146.177 85.272 145.926 86.0613 145.926 87.064C145.926 88.0773 146.172 88.872 146.662 89.448C147.164 90.0133 147.814 90.296 148.614 90.296ZM154.379 91C154.166 91 154.059 90.8933 154.059 90.68V79.96C154.059 79.7467 154.166 79.64 154.379 79.64H154.795C155.009 79.64 155.115 79.7467 155.115 79.96V90.68C155.115 90.8933 155.009 91 154.795 91H154.379ZM163.241 89.128C163.315 89.0533 163.395 89.016 163.481 89.016C163.555 89.016 163.625 89.048 163.689 89.112L163.897 89.304C163.971 89.3787 164.009 89.4587 164.009 89.544C164.009 89.608 163.977 89.6827 163.913 89.768C163.39 90.2907 162.883 90.664 162.393 90.888C161.902 91.1013 161.353 91.208 160.745 91.208C159.977 91.208 159.31 91.0373 158.745 90.696C158.179 90.3547 157.742 89.88 157.433 89.272C157.123 88.6533 156.969 87.9387 156.969 87.128C156.969 86.3067 157.118 85.5813 157.417 84.952C157.726 84.312 158.158 83.816 158.713 83.464C159.267 83.1013 159.907 82.92 160.633 82.92C161.71 82.92 162.558 83.256 163.177 83.928C163.795 84.6 164.105 85.5067 164.105 86.648V86.84C164.094 86.936 164.057 87.0107 163.993 87.064C163.939 87.1173 163.865 87.144 163.769 87.144H158.041C158.073 88.04 158.307 88.7973 158.745 89.416C159.193 90.024 159.859 90.328 160.745 90.328C161.225 90.328 161.646 90.2427 162.009 90.072C162.382 89.8907 162.793 89.576 163.241 89.128ZM160.633 83.8C159.929 83.8 159.347 84.0187 158.889 84.456C158.441 84.8827 158.169 85.512 158.073 86.344H163.049C163.027 85.5653 162.803 84.9467 162.377 84.488C161.95 84.0293 161.369 83.8 160.633 83.8ZM171.708 79.96C171.708 79.7467 171.815 79.64 172.028 79.64H172.444C172.657 79.64 172.764 79.7467 172.764 79.96V90.68C172.764 90.8933 172.657 91 172.444 91H172.108C171.895 91 171.788 90.8933 171.788 90.68V89.64C171.5 90.1413 171.121 90.5253 170.652 90.792C170.183 91.0587 169.628 91.192 168.988 91.192C168.316 91.192 167.719 91.0213 167.196 90.68C166.673 90.328 166.263 89.8427 165.964 89.224C165.665 88.5947 165.516 87.8747 165.516 87.064C165.516 86.2533 165.665 85.5387 165.964 84.92C166.273 84.2907 166.695 83.8053 167.228 83.464C167.761 83.112 168.359 82.936 169.02 82.936C170.236 82.936 171.132 83.3893 171.708 84.296V79.96ZM169.068 90.296C169.868 90.296 170.513 90.0133 171.004 89.448C171.505 88.872 171.756 88.0773 171.756 87.064C171.756 86.0613 171.505 85.272 171.004 84.696C170.513 84.12 169.868 83.832 169.068 83.832C168.332 83.832 167.735 84.1307 167.276 84.728C166.828 85.3253 166.604 86.104 166.604 87.064C166.604 88.0347 166.828 88.8187 167.276 89.416C167.724 90.0027 168.321 90.296 169.068 90.296ZM182.377 90.12C182.409 90.1093 182.451 90.104 182.505 90.104C182.569 90.104 182.627 90.1253 182.681 90.168C182.734 90.2107 182.766 90.2693 182.777 90.344L182.825 90.568C182.835 90.5893 182.841 90.6267 182.841 90.68C182.841 90.8293 182.761 90.92 182.601 90.952C182.217 91.0693 181.806 91.128 181.369 91.128C180.675 91.128 180.179 90.9733 179.881 90.664C179.593 90.344 179.449 89.8853 179.449 89.288V83.912H178.265C178.051 83.912 177.945 83.8053 177.945 83.592V83.432C177.945 83.2187 178.051 83.112 178.265 83.112H179.449V80.68C179.449 80.4667 179.555 80.36 179.769 80.36H180.185C180.398 80.36 180.505 80.4667 180.505 80.68V83.112H182.425C182.638 83.112 182.745 83.2187 182.745 83.432V83.592C182.745 83.8053 182.638 83.912 182.425 83.912H180.505V89.16C180.505 89.5547 180.579 89.832 180.729 89.992C180.878 90.152 181.134 90.232 181.497 90.232C181.753 90.232 182.046 90.1947 182.377 90.12ZM189.803 89.128C189.878 89.0533 189.958 89.016 190.043 89.016C190.118 89.016 190.187 89.048 190.251 89.112L190.459 89.304C190.534 89.3787 190.571 89.4587 190.571 89.544C190.571 89.608 190.539 89.6827 190.475 89.768C189.952 90.2907 189.446 90.664 188.955 90.888C188.464 91.1013 187.915 91.208 187.307 91.208C186.539 91.208 185.872 91.0373 185.307 90.696C184.742 90.3547 184.304 89.88 183.995 89.272C183.686 88.6533 183.531 87.9387 183.531 87.128C183.531 86.3067 183.68 85.5813 183.979 84.952C184.288 84.312 184.72 83.816 185.275 83.464C185.83 83.1013 186.47 82.92 187.195 82.92C188.272 82.92 189.12 83.256 189.739 83.928C190.358 84.6 190.667 85.5067 190.667 86.648V86.84C190.656 86.936 190.619 87.0107 190.555 87.064C190.502 87.1173 190.427 87.144 190.331 87.144H184.603C184.635 88.04 184.87 88.7973 185.307 89.416C185.755 90.024 186.422 90.328 187.307 90.328C187.787 90.328 188.208 90.2427 188.571 90.072C188.944 89.8907 189.355 89.576 189.803 89.128ZM187.195 83.8C186.491 83.8 185.91 84.0187 185.451 84.456C185.003 84.8827 184.731 85.512 184.635 86.344H189.611C189.59 85.5653 189.366 84.9467 188.939 84.488C188.512 84.0293 187.931 83.8 187.195 83.8ZM198.148 90.616C198.191 90.6907 198.212 90.7547 198.212 90.808C198.212 90.936 198.127 91 197.956 91H197.476C197.316 91 197.188 90.9307 197.092 90.792L194.916 87.592L192.756 90.792C192.66 90.9307 192.532 91 192.372 91H191.924C191.839 91 191.769 90.984 191.716 90.952C191.673 90.9093 191.652 90.8613 191.652 90.808C191.652 90.7333 191.673 90.6693 191.716 90.616L194.308 86.888L191.924 83.496C191.881 83.4427 191.86 83.384 191.86 83.32C191.86 83.1813 191.951 83.112 192.132 83.112H192.596C192.756 83.112 192.884 83.1813 192.98 83.32L194.932 86.184L196.868 83.32C196.964 83.1813 197.092 83.112 197.252 83.112H197.684C197.769 83.112 197.833 83.1333 197.876 83.176C197.929 83.208 197.956 83.2507 197.956 83.304C197.956 83.3787 197.935 83.4427 197.892 83.496L195.556 86.84L198.148 90.616ZM203.455 90.12C203.487 90.1093 203.529 90.104 203.583 90.104C203.647 90.104 203.705 90.1253 203.759 90.168C203.812 90.2107 203.844 90.2693 203.855 90.344L203.903 90.568C203.913 90.5893 203.919 90.6267 203.919 90.68C203.919 90.8293 203.839 90.92 203.679 90.952C203.295 91.0693 202.884 91.128 202.447 91.128C201.753 91.128 201.257 90.9733 200.959 90.664C200.671 90.344 200.527 89.8853 200.527 89.288V83.912H199.343C199.129 83.912 199.023 83.8053 199.023 83.592V83.432C199.023 83.2187 199.129 83.112 199.343 83.112H200.527V80.68C200.527 80.4667 200.633 80.36 200.847 80.36H201.263C201.476 80.36 201.583 80.4667 201.583 80.68V83.112H203.503C203.716 83.112 203.823 83.2187 203.823 83.432V83.592C203.823 83.8053 203.716 83.912 203.503 83.912H201.583V89.16C201.583 89.5547 201.657 89.832 201.807 89.992C201.956 90.152 202.212 90.232 202.575 90.232C202.831 90.232 203.124 90.1947 203.455 90.12ZM212.161 82.92C213.132 82.92 213.89 83.1547 214.434 83.624C214.978 84.0827 215.25 84.6907 215.25 85.448V90.68C215.25 90.8933 215.143 91 214.93 91H214.61C214.396 91 214.29 90.8933 214.29 90.68V89.96C214.023 90.3867 213.644 90.7067 213.154 90.92C212.674 91.1333 212.135 91.24 211.538 91.24C210.706 91.24 210.028 91.064 209.506 90.712C208.983 90.36 208.722 89.816 208.722 89.08C208.722 88.4933 208.887 88.024 209.218 87.672C209.548 87.3093 209.98 87.0373 210.514 86.856C211.047 86.664 211.714 86.4933 212.514 86.344L214.242 86.04V85.528C214.242 84.984 214.055 84.5627 213.682 84.264C213.308 83.9547 212.818 83.8 212.21 83.8C211.751 83.8 211.335 83.8853 210.962 84.056C210.588 84.2267 210.188 84.52 209.762 84.936C209.687 85.0107 209.607 85.048 209.522 85.048C209.447 85.048 209.378 85.016 209.314 84.952L209.106 84.76C209.031 84.6853 208.993 84.6053 208.993 84.52C208.993 84.424 209.031 84.3387 209.106 84.264C209.554 83.7947 210.023 83.4533 210.514 83.24C211.015 83.0267 211.564 82.92 212.161 82.92ZM211.586 90.36C212.354 90.36 212.988 90.1573 213.49 89.752C213.991 89.3467 214.242 88.8293 214.242 88.2V86.856L212.754 87.144C212.06 87.2827 211.511 87.416 211.106 87.544C210.7 87.672 210.375 87.8587 210.13 88.104C209.884 88.3493 209.762 88.6693 209.762 89.064C209.762 89.4693 209.922 89.7893 210.242 90.024C210.572 90.248 211.02 90.36 211.586 90.36ZM220.534 83.048C220.801 83.048 221.116 83.0907 221.478 83.176C221.67 83.24 221.745 83.3733 221.702 83.576L221.638 83.832C221.585 84.0347 221.452 84.1093 221.238 84.056C220.982 83.992 220.748 83.96 220.534 83.96C219.99 83.96 219.537 84.1947 219.174 84.664C218.822 85.1333 218.646 85.784 218.646 86.616V90.68C218.646 90.8933 218.54 91 218.326 91H217.91C217.697 91 217.59 90.8933 217.59 90.68V83.432C217.59 83.2187 217.697 83.112 217.91 83.112H218.262C218.476 83.112 218.582 83.2187 218.582 83.432V84.312C218.764 83.9173 219.02 83.608 219.35 83.384C219.692 83.16 220.086 83.048 220.534 83.048ZM228.444 89.128C228.518 89.0533 228.598 89.016 228.684 89.016C228.758 89.016 228.828 89.048 228.892 89.112L229.1 89.304C229.174 89.3787 229.212 89.4587 229.212 89.544C229.212 89.608 229.18 89.6827 229.116 89.768C228.593 90.2907 228.086 90.664 227.596 90.888C227.105 91.1013 226.556 91.208 225.948 91.208C225.18 91.208 224.513 91.0373 223.948 90.696C223.382 90.3547 222.945 89.88 222.636 89.272C222.326 88.6533 222.172 87.9387 222.172 87.128C222.172 86.3067 222.321 85.5813 222.62 84.952C222.929 84.312 223.361 83.816 223.916 83.464C224.47 83.1013 225.11 82.92 225.836 82.92C226.913 82.92 227.761 83.256 228.38 83.928C228.998 84.6 229.308 85.5067 229.308 86.648V86.84C229.297 86.936 229.26 87.0107 229.196 87.064C229.142 87.1173 229.068 87.144 228.972 87.144H223.244C223.276 88.04 223.51 88.7973 223.948 89.416C224.396 90.024 225.062 90.328 225.948 90.328C226.428 90.328 226.849 90.2427 227.212 90.072C227.585 89.8907 227.996 89.576 228.444 89.128ZM225.836 83.8C225.132 83.8 224.55 84.0187 224.092 84.456C223.644 84.8827 223.372 85.512 223.276 86.344H228.252C228.23 85.5653 228.006 84.9467 227.58 84.488C227.153 84.0293 226.572 83.8 225.836 83.8ZM234.099 82.92C235.07 82.92 235.827 83.1547 236.371 83.624C236.915 84.0827 237.187 84.6907 237.187 85.448V90.68C237.187 90.8933 237.08 91 236.867 91H236.547C236.334 91 236.227 90.8933 236.227 90.68V89.96C235.96 90.3867 235.582 90.7067 235.091 90.92C234.611 91.1333 234.072 91.24 233.475 91.24C232.643 91.24 231.966 91.064 231.443 90.712C230.92 90.36 230.659 89.816 230.659 89.08C230.659 88.4933 230.824 88.024 231.155 87.672C231.486 87.3093 231.918 87.0373 232.451 86.856C232.984 86.664 233.651 86.4933 234.451 86.344L236.179 86.04V85.528C236.179 84.984 235.992 84.5627 235.619 84.264C235.246 83.9547 234.755 83.8 234.147 83.8C233.688 83.8 233.272 83.8853 232.899 84.056C232.526 84.2267 232.126 84.52 231.699 84.936C231.624 85.0107 231.544 85.048 231.459 85.048C231.384 85.048 231.315 85.016 231.251 84.952L231.043 84.76C230.968 84.6853 230.931 84.6053 230.931 84.52C230.931 84.424 230.968 84.3387 231.043 84.264C231.491 83.7947 231.96 83.4533 232.451 83.24C232.952 83.0267 233.502 82.92 234.099 82.92ZM233.523 90.36C234.291 90.36 234.926 90.1573 235.427 89.752C235.928 89.3467 236.179 88.8293 236.179 88.2V86.856L234.691 87.144C233.998 87.2827 233.448 87.416 233.043 87.544C232.638 87.672 232.312 87.8587 232.067 88.104C231.822 88.3493 231.699 88.6693 231.699 89.064C231.699 89.4693 231.859 89.7893 232.179 90.024C232.51 90.248 232.958 90.36 233.523 90.36Z" fill="#464646"/>
</svg>
