<svg width="344" height="190" viewBox="0 0 344 190" fill="none" xmlns="http://www.w3.org/2000/svg">
<rect width="344" height="190" fill="#F5F5F5"/>
<path d="M72.568 54C72.4187 54 72.2973 53.958 72.204 53.874C72.12 53.7807 72.078 53.6593 72.078 53.51V44.55C72.078 44.3913 72.12 44.27 72.204 44.186C72.2973 44.102 72.4187 44.06 72.568 44.06H73.184C73.3427 44.06 73.464 44.102 73.548 44.186C73.632 44.27 73.674 44.3913 73.674 44.55V48.148H78.602V44.55C78.602 44.3913 78.644 44.27 78.728 44.186C78.8213 44.102 78.9427 44.06 79.092 44.06H79.722C79.8807 44.06 80.002 44.102 80.086 44.186C80.17 44.27 80.212 44.3913 80.212 44.55V53.51C80.212 53.6593 80.17 53.7807 80.086 53.874C80.002 53.958 79.8807 54 79.722 54H79.092C78.9427 54 78.8213 53.958 78.728 53.874C78.644 53.7807 78.602 53.6593 78.602 53.51V49.492H73.674V53.51C73.674 53.6593 73.632 53.7807 73.548 53.874C73.464 53.958 73.3427 54 73.184 54H72.568ZM85.2569 54.21C84.5756 54.21 83.9689 54.056 83.4369 53.748C82.9143 53.44 82.5036 53.0107 82.2049 52.46C81.9063 51.9 81.7569 51.2607 81.7569 50.542C81.7569 49.8233 81.9063 49.1887 82.2049 48.638C82.5036 48.0873 82.9143 47.658 83.4369 47.35C83.9689 47.042 84.5756 46.888 85.2569 46.888C85.9289 46.888 86.5309 47.042 87.0629 47.35C87.5949 47.658 88.0103 48.092 88.3089 48.652C88.6076 49.2027 88.7569 49.8327 88.7569 50.542C88.7569 51.2607 88.6076 51.9 88.3089 52.46C88.0103 53.0107 87.5949 53.44 87.0629 53.748C86.5309 54.056 85.9289 54.21 85.2569 54.21ZM85.2569 52.964C85.8543 52.964 86.3349 52.7447 86.6989 52.306C87.0629 51.858 87.2449 51.27 87.2449 50.542C87.2449 49.8233 87.0629 49.2447 86.6989 48.806C86.3349 48.3673 85.8543 48.148 85.2569 48.148C84.6596 48.148 84.1789 48.3673 83.8149 48.806C83.4509 49.2447 83.2689 49.8233 83.2689 50.542C83.2689 51.27 83.4509 51.858 83.8149 52.306C84.1789 52.7447 84.6596 52.964 85.2569 52.964ZM93.7329 46.916C94.3209 46.916 94.8436 47.0653 95.3009 47.364C95.7676 47.6627 96.1316 48.0873 96.3929 48.638C96.6543 49.1887 96.7849 49.8233 96.7849 50.542C96.7849 51.27 96.6543 51.9093 96.3929 52.46C96.1316 53.0107 95.7676 53.4353 95.3009 53.734C94.8343 54.0327 94.3116 54.182 93.7329 54.182C92.6969 54.182 91.9363 53.7947 91.4509 53.02V53.51C91.4509 53.6593 91.4089 53.7807 91.3249 53.874C91.2409 53.958 91.1196 54 90.9609 54H90.5549C90.4056 54 90.2843 53.958 90.1909 53.874C90.1069 53.7807 90.0649 53.6593 90.0649 53.51V44.55C90.0649 44.3913 90.1069 44.27 90.1909 44.186C90.2843 44.102 90.4056 44.06 90.5549 44.06H91.0589C91.2176 44.06 91.3389 44.102 91.4229 44.186C91.5069 44.27 91.5489 44.3913 91.5489 44.55V47.966C92.0436 47.266 92.7716 46.916 93.7329 46.916ZM93.4249 52.894C93.9849 52.894 94.4329 52.684 94.7689 52.264C95.1049 51.8347 95.2729 51.2607 95.2729 50.542C95.2729 49.8327 95.1049 49.2633 94.7689 48.834C94.4423 48.4047 93.9989 48.19 93.4389 48.19C92.8696 48.19 92.4029 48.4047 92.0389 48.834C91.6749 49.254 91.4929 49.8233 91.4929 50.542C91.4929 51.2793 91.6749 51.858 92.0389 52.278C92.4029 52.6887 92.8649 52.894 93.4249 52.894ZM101.799 46.916C102.387 46.916 102.91 47.0653 103.367 47.364C103.834 47.6627 104.198 48.0873 104.459 48.638C104.721 49.1887 104.851 49.8233 104.851 50.542C104.851 51.27 104.721 51.9093 104.459 52.46C104.198 53.0107 103.834 53.4353 103.367 53.734C102.901 54.0327 102.378 54.182 101.799 54.182C100.763 54.182 100.003 53.7947 99.5173 53.02V53.51C99.5173 53.6593 99.4753 53.7807 99.3913 53.874C99.3073 53.958 99.186 54 99.0273 54H98.6213C98.472 54 98.3507 53.958 98.2573 53.874C98.1733 53.7807 98.1313 53.6593 98.1313 53.51V44.55C98.1313 44.3913 98.1733 44.27 98.2573 44.186C98.3507 44.102 98.472 44.06 98.6213 44.06H99.1253C99.284 44.06 99.4053 44.102 99.4893 44.186C99.5733 44.27 99.6153 44.3913 99.6153 44.55V47.966C100.11 47.266 100.838 46.916 101.799 46.916ZM101.491 52.894C102.051 52.894 102.499 52.684 102.835 52.264C103.171 51.8347 103.339 51.2607 103.339 50.542C103.339 49.8327 103.171 49.2633 102.835 48.834C102.509 48.4047 102.065 48.19 101.505 48.19C100.936 48.19 100.469 48.4047 100.105 48.834C99.7413 49.254 99.5593 49.8233 99.5593 50.542C99.5593 51.2793 99.7413 51.858 100.105 52.278C100.469 52.6887 100.931 52.894 101.491 52.894ZM106.954 45.754C106.683 45.754 106.454 45.6653 106.268 45.488C106.081 45.3013 105.988 45.082 105.988 44.83C105.988 44.5687 106.081 44.3493 106.268 44.172C106.454 43.9947 106.683 43.906 106.954 43.906C107.224 43.906 107.453 43.9947 107.64 44.172C107.826 44.3493 107.92 44.5687 107.92 44.83C107.92 45.082 107.826 45.3013 107.64 45.488C107.453 45.6653 107.224 45.754 106.954 45.754ZM106.688 54C106.538 54 106.417 53.958 106.324 53.874C106.24 53.7807 106.198 53.6593 106.198 53.51V47.588C106.198 47.4293 106.24 47.308 106.324 47.224C106.417 47.14 106.538 47.098 106.688 47.098H107.192C107.35 47.098 107.472 47.14 107.556 47.224C107.64 47.308 107.682 47.4293 107.682 47.588V53.51C107.682 53.6593 107.64 53.7807 107.556 53.874C107.472 53.958 107.35 54 107.192 54H106.688ZM114.339 52.236C114.46 52.1333 114.577 52.082 114.689 52.082C114.801 52.082 114.918 52.1427 115.039 52.264L115.235 52.474C115.338 52.5953 115.389 52.712 115.389 52.824C115.389 52.9453 115.328 53.062 115.207 53.174C114.778 53.5473 114.348 53.8133 113.919 53.972C113.499 54.1307 113.032 54.21 112.519 54.21C111.8 54.21 111.175 54.0607 110.643 53.762C110.12 53.4633 109.714 53.0433 109.425 52.502C109.145 51.9513 109.005 51.3167 109.005 50.598C109.005 49.8887 109.14 49.254 109.411 48.694C109.691 48.1247 110.083 47.6813 110.587 47.364C111.1 47.0467 111.698 46.888 112.379 46.888C113.396 46.888 114.18 47.1913 114.731 47.798C115.282 48.3953 115.557 49.2213 115.557 50.276V50.402C115.548 50.5513 115.501 50.668 115.417 50.752C115.333 50.836 115.212 50.878 115.053 50.878H110.461C110.517 51.494 110.718 51.998 111.063 52.39C111.418 52.7727 111.912 52.964 112.547 52.964C112.892 52.964 113.196 52.9127 113.457 52.81C113.718 52.698 114.012 52.5067 114.339 52.236ZM112.351 48.064C111.838 48.064 111.422 48.218 111.105 48.526C110.797 48.8247 110.596 49.2493 110.503 49.8H114.101C114.064 49.2587 113.896 48.834 113.597 48.526C113.298 48.218 112.883 48.064 112.351 48.064ZM119.604 54.21C119.035 54.21 118.526 54.14 118.078 54C117.639 53.8507 117.191 53.594 116.734 53.23C116.594 53.1273 116.524 53.0107 116.524 52.88C116.524 52.7773 116.575 52.6653 116.678 52.544L116.888 52.306C117 52.1753 117.121 52.11 117.252 52.11C117.355 52.11 117.467 52.1567 117.588 52.25C117.98 52.5393 118.325 52.74 118.624 52.852C118.923 52.9547 119.259 53.006 119.632 53.006C120.033 53.006 120.36 52.9267 120.612 52.768C120.873 52.6 121.004 52.376 121.004 52.096C121.004 51.8813 120.929 51.7133 120.78 51.592C120.64 51.4613 120.453 51.3633 120.22 51.298C119.987 51.2233 119.641 51.1393 119.184 51.046C118.54 50.906 118.036 50.7567 117.672 50.598C117.317 50.43 117.061 50.22 116.902 49.968C116.743 49.716 116.664 49.394 116.664 49.002C116.664 48.6007 116.776 48.2413 117 47.924C117.233 47.6067 117.555 47.3547 117.966 47.168C118.386 46.9813 118.876 46.888 119.436 46.888C119.94 46.888 120.388 46.944 120.78 47.056C121.181 47.168 121.573 47.3593 121.956 47.63C122.105 47.742 122.18 47.868 122.18 48.008C122.18 48.1013 122.133 48.2087 122.04 48.33L121.858 48.554C121.755 48.6847 121.629 48.75 121.48 48.75C121.368 48.75 121.261 48.7127 121.158 48.638C120.85 48.4327 120.565 48.2927 120.304 48.218C120.043 48.134 119.749 48.092 119.422 48.092C119.021 48.092 118.699 48.1713 118.456 48.33C118.213 48.4887 118.092 48.694 118.092 48.946C118.092 49.114 118.148 49.2493 118.26 49.352C118.381 49.4453 118.549 49.5293 118.764 49.604C118.988 49.6693 119.338 49.7533 119.814 49.856C120.458 49.996 120.967 50.1547 121.34 50.332C121.723 50.5 122.003 50.7193 122.18 50.99C122.367 51.2513 122.46 51.592 122.46 52.012C122.46 52.6653 122.199 53.1973 121.676 53.608C121.163 54.0093 120.472 54.21 119.604 54.21ZM129.782 46.888C130.715 46.888 131.434 47.1073 131.938 47.546C132.442 47.9753 132.694 48.5493 132.694 49.268V53.51C132.694 53.6593 132.652 53.7807 132.568 53.874C132.484 53.958 132.362 54 132.204 54H131.84C131.69 54 131.569 53.958 131.476 53.874C131.392 53.7807 131.35 53.6593 131.35 53.51V53.202C131.126 53.5287 130.818 53.7807 130.426 53.958C130.034 54.1353 129.576 54.224 129.054 54.224C128.335 54.224 127.742 54.0653 127.276 53.748C126.818 53.4213 126.59 52.9313 126.59 52.278C126.59 51.55 126.86 51.0133 127.402 50.668C127.952 50.3133 128.713 50.0473 129.684 49.87L131.266 49.576V49.324C131.266 48.9413 131.13 48.6473 130.86 48.442C130.598 48.2273 130.248 48.12 129.81 48.12C129.436 48.12 129.11 48.1853 128.83 48.316C128.559 48.4373 128.265 48.6427 127.948 48.932C127.826 49.0347 127.71 49.086 127.598 49.086C127.486 49.086 127.369 49.0347 127.248 48.932L127.024 48.736C126.902 48.624 126.842 48.5027 126.842 48.372C126.842 48.2507 126.898 48.134 127.01 48.022C127.411 47.6393 127.836 47.3547 128.284 47.168C128.732 46.9813 129.231 46.888 129.782 46.888ZM129.264 53.034C129.824 53.034 130.295 52.8847 130.678 52.586C131.07 52.2873 131.266 51.858 131.266 51.298V50.654L130.048 50.906C129.366 51.046 128.862 51.2047 128.536 51.382C128.209 51.5593 128.046 51.83 128.046 52.194C128.046 52.4553 128.153 52.6607 128.368 52.81C128.582 52.9593 128.881 53.034 129.264 53.034ZM137.903 46.888C138.696 46.888 139.303 47.112 139.723 47.56C140.152 47.9987 140.367 48.568 140.367 49.268V53.51C140.367 53.6593 140.325 53.7807 140.241 53.874C140.157 53.958 140.036 54 139.877 54H139.373C139.224 54 139.102 53.958 139.009 53.874C138.925 53.7807 138.883 53.6593 138.883 53.51V49.73C138.883 49.226 138.757 48.8387 138.505 48.568C138.262 48.2973 137.912 48.162 137.455 48.162C137.007 48.162 136.629 48.316 136.321 48.624C136.022 48.932 135.873 49.3193 135.873 49.786V53.51C135.873 53.6593 135.831 53.7807 135.747 53.874C135.663 53.958 135.542 54 135.383 54H134.879C134.73 54 134.608 53.958 134.515 53.874C134.431 53.7807 134.389 53.6593 134.389 53.51V47.588C134.389 47.4293 134.431 47.308 134.515 47.224C134.608 47.14 134.73 47.098 134.879 47.098H135.285C135.444 47.098 135.565 47.14 135.649 47.224C135.733 47.308 135.775 47.4293 135.775 47.588V47.952C135.999 47.6067 136.293 47.3453 136.657 47.168C137.021 46.9813 137.436 46.888 137.903 46.888ZM146.931 44.536C146.931 44.3773 146.973 44.256 147.057 44.172C147.15 44.088 147.271 44.046 147.421 44.046H147.925C148.083 44.046 148.205 44.088 148.289 44.172C148.373 44.256 148.415 44.3773 148.415 44.536V53.51C148.415 53.6593 148.373 53.7807 148.289 53.874C148.205 53.958 148.083 54 147.925 54H147.519C147.369 54 147.248 53.958 147.155 53.874C147.071 53.7807 147.029 53.6593 147.029 53.51V53.02C146.543 53.804 145.783 54.196 144.747 54.196C144.168 54.196 143.645 54.0467 143.179 53.748C142.721 53.4493 142.362 53.0247 142.101 52.474C141.839 51.9233 141.709 51.284 141.709 50.556C141.709 49.8373 141.839 49.2027 142.101 48.652C142.371 48.1013 142.74 47.6767 143.207 47.378C143.673 47.0793 144.196 46.93 144.775 46.93C145.727 46.93 146.445 47.2613 146.931 47.924V44.536ZM145.055 52.922C145.624 52.922 146.091 52.712 146.455 52.292C146.819 51.8627 147.001 51.284 147.001 50.556C147.001 49.828 146.819 49.254 146.455 48.834C146.091 48.414 145.624 48.204 145.055 48.204C144.504 48.204 144.061 48.4187 143.725 48.848C143.389 49.2773 143.221 49.8467 143.221 50.556C143.221 51.2747 143.384 51.8487 143.711 52.278C144.047 52.7073 144.495 52.922 145.055 52.922ZM154.082 54C153.933 54 153.811 53.958 153.718 53.874C153.634 53.7807 153.592 53.6593 153.592 53.51V44.55C153.592 44.3913 153.634 44.27 153.718 44.186C153.811 44.102 153.933 44.06 154.082 44.06H154.698C154.857 44.06 154.978 44.102 155.062 44.186C155.146 44.27 155.188 44.3913 155.188 44.55V53.51C155.188 53.6593 155.146 53.7807 155.062 53.874C154.978 53.958 154.857 54 154.698 54H154.082ZM160.735 46.888C161.529 46.888 162.135 47.112 162.555 47.56C162.985 47.9987 163.199 48.568 163.199 49.268V53.51C163.199 53.6593 163.157 53.7807 163.073 53.874C162.989 53.958 162.868 54 162.709 54H162.205C162.056 54 161.935 53.958 161.841 53.874C161.757 53.7807 161.715 53.6593 161.715 53.51V49.73C161.715 49.226 161.589 48.8387 161.337 48.568C161.095 48.2973 160.745 48.162 160.287 48.162C159.839 48.162 159.461 48.316 159.153 48.624C158.855 48.932 158.705 49.3193 158.705 49.786V53.51C158.705 53.6593 158.663 53.7807 158.579 53.874C158.495 53.958 158.374 54 158.215 54H157.711C157.562 54 157.441 53.958 157.347 53.874C157.263 53.7807 157.221 53.6593 157.221 53.51V47.588C157.221 47.4293 157.263 47.308 157.347 47.224C157.441 47.14 157.562 47.098 157.711 47.098H158.117C158.276 47.098 158.397 47.14 158.481 47.224C158.565 47.308 158.607 47.4293 158.607 47.588V47.952C158.831 47.6067 159.125 47.3453 159.489 47.168C159.853 46.9813 160.269 46.888 160.735 46.888ZM168.086 52.824C168.114 52.8147 168.156 52.81 168.212 52.81C168.446 52.81 168.586 52.9453 168.632 53.216L168.674 53.44C168.684 53.468 168.688 53.5147 168.688 53.58C168.688 53.8133 168.558 53.9627 168.296 54.028C167.923 54.112 167.582 54.154 167.274 54.154C166.612 54.154 166.131 54 165.832 53.692C165.543 53.384 165.398 52.922 165.398 52.306V48.232H164.628C164.479 48.232 164.358 48.19 164.264 48.106C164.18 48.0127 164.138 47.8913 164.138 47.742V47.588C164.138 47.4293 164.18 47.308 164.264 47.224C164.358 47.14 164.479 47.098 164.628 47.098H165.398V45.362C165.398 45.2033 165.44 45.082 165.524 44.998C165.618 44.914 165.739 44.872 165.888 44.872H166.392C166.551 44.872 166.672 44.914 166.756 44.998C166.84 45.082 166.882 45.2033 166.882 45.362V47.098H168.142C168.301 47.098 168.422 47.14 168.506 47.224C168.59 47.308 168.632 47.4293 168.632 47.588V47.742C168.632 47.8913 168.59 48.0127 168.506 48.106C168.422 48.19 168.301 48.232 168.142 48.232H166.882V52.124C166.882 52.3947 166.938 52.586 167.05 52.698C167.172 52.81 167.363 52.866 167.624 52.866C167.736 52.866 167.89 52.852 168.086 52.824ZM174.577 52.236C174.699 52.1333 174.815 52.082 174.927 52.082C175.039 52.082 175.156 52.1427 175.277 52.264L175.473 52.474C175.576 52.5953 175.627 52.712 175.627 52.824C175.627 52.9453 175.567 53.062 175.445 53.174C175.016 53.5473 174.587 53.8133 174.157 53.972C173.737 54.1307 173.271 54.21 172.757 54.21C172.039 54.21 171.413 54.0607 170.881 53.762C170.359 53.4633 169.953 53.0433 169.663 52.502C169.383 51.9513 169.243 51.3167 169.243 50.598C169.243 49.8887 169.379 49.254 169.649 48.694C169.929 48.1247 170.321 47.6813 170.825 47.364C171.339 47.0467 171.936 46.888 172.617 46.888C173.635 46.888 174.419 47.1913 174.969 47.798C175.52 48.3953 175.795 49.2213 175.795 50.276V50.402C175.786 50.5513 175.739 50.668 175.655 50.752C175.571 50.836 175.45 50.878 175.291 50.878H170.699C170.755 51.494 170.956 51.998 171.301 52.39C171.656 52.7727 172.151 52.964 172.785 52.964C173.131 52.964 173.434 52.9127 173.695 52.81C173.957 52.698 174.251 52.5067 174.577 52.236ZM172.589 48.064C172.076 48.064 171.661 48.218 171.343 48.526C171.035 48.8247 170.835 49.2493 170.741 49.8H174.339C174.302 49.2587 174.134 48.834 173.835 48.526C173.537 48.218 173.121 48.064 172.589 48.064ZM180.263 47.028C180.468 47.028 180.678 47.0513 180.893 47.098C181.145 47.154 181.271 47.3033 181.271 47.546C181.271 47.6113 181.266 47.658 181.257 47.686L181.187 48.022C181.131 48.2833 180.991 48.414 180.767 48.414L180.641 48.4C180.473 48.372 180.323 48.358 180.193 48.358C179.726 48.358 179.348 48.5447 179.059 48.918C178.779 49.282 178.639 49.7907 178.639 50.444V53.51C178.639 53.6593 178.597 53.7807 178.513 53.874C178.429 53.958 178.307 54 178.149 54H177.645C177.495 54 177.374 53.958 177.281 53.874C177.197 53.7807 177.155 53.6593 177.155 53.51V47.588C177.155 47.4293 177.197 47.308 177.281 47.224C177.374 47.14 177.495 47.098 177.645 47.098H178.051C178.209 47.098 178.331 47.14 178.415 47.224C178.499 47.308 178.541 47.4293 178.541 47.588V48.134C178.709 47.7887 178.937 47.518 179.227 47.322C179.516 47.126 179.861 47.028 180.263 47.028ZM186.964 52.236C187.085 52.1333 187.202 52.082 187.314 52.082C187.426 52.082 187.543 52.1427 187.664 52.264L187.86 52.474C187.963 52.5953 188.014 52.712 188.014 52.824C188.014 52.9453 187.953 53.062 187.832 53.174C187.403 53.5473 186.973 53.8133 186.544 53.972C186.124 54.1307 185.657 54.21 185.144 54.21C184.425 54.21 183.8 54.0607 183.268 53.762C182.745 53.4633 182.339 53.0433 182.05 52.502C181.77 51.9513 181.63 51.3167 181.63 50.598C181.63 49.8887 181.765 49.254 182.036 48.694C182.316 48.1247 182.708 47.6813 183.212 47.364C183.725 47.0467 184.323 46.888 185.004 46.888C186.021 46.888 186.805 47.1913 187.356 47.798C187.907 48.3953 188.182 49.2213 188.182 50.276V50.402C188.173 50.5513 188.126 50.668 188.042 50.752C187.958 50.836 187.837 50.878 187.678 50.878H183.086C183.142 51.494 183.343 51.998 183.688 52.39C184.043 52.7727 184.537 52.964 185.172 52.964C185.517 52.964 185.821 52.9127 186.082 52.81C186.343 52.698 186.637 52.5067 186.964 52.236ZM184.976 48.064C184.463 48.064 184.047 48.218 183.73 48.526C183.422 48.8247 183.221 49.2493 183.128 49.8H186.726C186.689 49.2587 186.521 48.834 186.222 48.526C185.923 48.218 185.508 48.064 184.976 48.064ZM192.229 54.21C191.66 54.21 191.151 54.14 190.703 54C190.264 53.8507 189.816 53.594 189.359 53.23C189.219 53.1273 189.149 53.0107 189.149 52.88C189.149 52.7773 189.2 52.6653 189.303 52.544L189.513 52.306C189.625 52.1753 189.746 52.11 189.877 52.11C189.98 52.11 190.092 52.1567 190.213 52.25C190.605 52.5393 190.95 52.74 191.249 52.852C191.548 52.9547 191.884 53.006 192.257 53.006C192.658 53.006 192.985 52.9267 193.237 52.768C193.498 52.6 193.629 52.376 193.629 52.096C193.629 51.8813 193.554 51.7133 193.405 51.592C193.265 51.4613 193.078 51.3633 192.845 51.298C192.612 51.2233 192.266 51.1393 191.809 51.046C191.165 50.906 190.661 50.7567 190.297 50.598C189.942 50.43 189.686 50.22 189.527 49.968C189.368 49.716 189.289 49.394 189.289 49.002C189.289 48.6007 189.401 48.2413 189.625 47.924C189.858 47.6067 190.18 47.3547 190.591 47.168C191.011 46.9813 191.501 46.888 192.061 46.888C192.565 46.888 193.013 46.944 193.405 47.056C193.806 47.168 194.198 47.3593 194.581 47.63C194.73 47.742 194.805 47.868 194.805 48.008C194.805 48.1013 194.758 48.2087 194.665 48.33L194.483 48.554C194.38 48.6847 194.254 48.75 194.105 48.75C193.993 48.75 193.886 48.7127 193.783 48.638C193.475 48.4327 193.19 48.2927 192.929 48.218C192.668 48.134 192.374 48.092 192.047 48.092C191.646 48.092 191.324 48.1713 191.081 48.33C190.838 48.4887 190.717 48.694 190.717 48.946C190.717 49.114 190.773 49.2493 190.885 49.352C191.006 49.4453 191.174 49.5293 191.389 49.604C191.613 49.6693 191.963 49.7533 192.439 49.856C193.083 49.996 193.592 50.1547 193.965 50.332C194.348 50.5 194.628 50.7193 194.805 50.99C194.992 51.2513 195.085 51.592 195.085 52.012C195.085 52.6653 194.824 53.1973 194.301 53.608C193.788 54.0093 193.097 54.21 192.229 54.21ZM199.668 52.824C199.696 52.8147 199.738 52.81 199.794 52.81C200.028 52.81 200.168 52.9453 200.214 53.216L200.256 53.44C200.266 53.468 200.27 53.5147 200.27 53.58C200.27 53.8133 200.14 53.9627 199.878 54.028C199.505 54.112 199.164 54.154 198.856 54.154C198.194 54.154 197.713 54 197.414 53.692C197.125 53.384 196.98 52.922 196.98 52.306V48.232H196.21C196.061 48.232 195.94 48.19 195.846 48.106C195.762 48.0127 195.72 47.8913 195.72 47.742V47.588C195.72 47.4293 195.762 47.308 195.846 47.224C195.94 47.14 196.061 47.098 196.21 47.098H196.98V45.362C196.98 45.2033 197.022 45.082 197.106 44.998C197.2 44.914 197.321 44.872 197.47 44.872H197.974C198.133 44.872 198.254 44.914 198.338 44.998C198.422 45.082 198.464 45.2033 198.464 45.362V47.098H199.724C199.883 47.098 200.004 47.14 200.088 47.224C200.172 47.308 200.214 47.4293 200.214 47.588V47.742C200.214 47.8913 200.172 48.0127 200.088 48.106C200.004 48.19 199.883 48.232 199.724 48.232H198.464V52.124C198.464 52.3947 198.52 52.586 198.632 52.698C198.754 52.81 198.945 52.866 199.206 52.866C199.318 52.866 199.472 52.852 199.668 52.824ZM204.205 54.21C203.636 54.21 203.127 54.14 202.679 54C202.241 53.8507 201.793 53.594 201.335 53.23C201.195 53.1273 201.125 53.0107 201.125 52.88C201.125 52.7773 201.177 52.6653 201.279 52.544L201.489 52.306C201.601 52.1753 201.723 52.11 201.853 52.11C201.956 52.11 202.068 52.1567 202.189 52.25C202.581 52.5393 202.927 52.74 203.225 52.852C203.524 52.9547 203.86 53.006 204.233 53.006C204.635 53.006 204.961 52.9267 205.213 52.768C205.475 52.6 205.605 52.376 205.605 52.096C205.605 51.8813 205.531 51.7133 205.381 51.592C205.241 51.4613 205.055 51.3633 204.821 51.298C204.588 51.2233 204.243 51.1393 203.785 51.046C203.141 50.906 202.637 50.7567 202.273 50.598C201.919 50.43 201.662 50.22 201.503 49.968C201.345 49.716 201.265 49.394 201.265 49.002C201.265 48.6007 201.377 48.2413 201.601 47.924C201.835 47.6067 202.157 47.3547 202.567 47.168C202.987 46.9813 203.477 46.888 204.037 46.888C204.541 46.888 204.989 46.944 205.381 47.056C205.783 47.168 206.175 47.3593 206.557 47.63C206.707 47.742 206.781 47.868 206.781 48.008C206.781 48.1013 206.735 48.2087 206.641 48.33L206.459 48.554C206.357 48.6847 206.231 48.75 206.081 48.75C205.969 48.75 205.862 48.7127 205.759 48.638C205.451 48.4327 205.167 48.2927 204.905 48.218C204.644 48.134 204.35 48.092 204.023 48.092C203.622 48.092 203.3 48.1713 203.057 48.33C202.815 48.4887 202.693 48.694 202.693 48.946C202.693 49.114 202.749 49.2493 202.861 49.352C202.983 49.4453 203.151 49.5293 203.365 49.604C203.589 49.6693 203.939 49.7533 204.415 49.856C205.059 49.996 205.568 50.1547 205.941 50.332C206.324 50.5 206.604 50.7193 206.781 50.99C206.968 51.2513 207.061 51.592 207.061 52.012C207.061 52.6653 206.8 53.1973 206.277 53.608C205.764 54.0093 205.073 54.21 204.205 54.21Z" fill="#464646"/>
<rect x="71.5" y="62.5" width="202" height="87" rx="3.5" fill="white"/>
<path d="M85.096 86.152C84.8827 86.152 84.776 86.0453 84.776 85.832V85.528C84.776 85.3147 84.8827 85.208 85.096 85.208H89.336C89.5493 85.208 89.656 85.3147 89.656 85.528V90.68C89.656 90.8933 89.5493 91 89.336 91H89.064C88.872 91 88.7653 90.8987 88.744 90.696L88.648 89.336C88.296 89.976 87.7947 90.4507 87.144 90.76C86.504 91.0693 85.7787 91.224 84.968 91.224C83.8693 91.224 82.9253 90.9787 82.136 90.488C81.3467 89.9867 80.744 89.2933 80.328 88.408C79.9227 87.512 79.72 86.4827 79.72 85.32C79.72 84.1893 79.9333 83.176 80.36 82.28C80.7973 81.384 81.4213 80.6853 82.232 80.184C83.0427 79.672 84.0027 79.416 85.112 79.416C85.976 79.416 86.7547 79.576 87.448 79.896C88.1413 80.2053 88.808 80.6907 89.448 81.352C89.5227 81.416 89.56 81.4907 89.56 81.576C89.56 81.6507 89.5227 81.7253 89.448 81.8L89.176 82.088C89.112 82.1627 89.0373 82.2 88.952 82.2C88.8773 82.2 88.8027 82.1627 88.728 82.088C88.12 81.4907 87.5387 81.0587 86.984 80.792C86.44 80.5253 85.8053 80.392 85.08 80.392C84.248 80.392 83.512 80.6 82.872 81.016C82.232 81.432 81.736 82.0187 81.384 82.776C81.032 83.5227 80.856 84.376 80.856 85.336C80.856 86.3067 81.0213 87.1653 81.352 87.912C81.6933 88.648 82.1733 89.224 82.792 89.64C83.4213 90.0453 84.1573 90.248 85 90.248C85.6933 90.248 86.3067 90.1093 86.84 89.832C87.384 89.5547 87.8107 89.1547 88.12 88.632C88.4293 88.0987 88.584 87.4693 88.584 86.744V86.152H85.096ZM94.9896 82.92C95.9603 82.92 96.7176 83.1547 97.2616 83.624C97.8056 84.0827 98.0776 84.6907 98.0776 85.448V90.68C98.0776 90.8933 97.971 91 97.7576 91H97.4376C97.2243 91 97.1176 90.8933 97.1176 90.68V89.96C96.851 90.3867 96.4723 90.7067 95.9816 90.92C95.5016 91.1333 94.963 91.24 94.3656 91.24C93.5336 91.24 92.8563 91.064 92.3336 90.712C91.811 90.36 91.5496 89.816 91.5496 89.08C91.5496 88.4933 91.715 88.024 92.0456 87.672C92.3763 87.3093 92.8083 87.0373 93.3416 86.856C93.875 86.664 94.5416 86.4933 95.3416 86.344L97.0696 86.04V85.528C97.0696 84.984 96.883 84.5627 96.5096 84.264C96.1363 83.9547 95.6456 83.8 95.0376 83.8C94.579 83.8 94.163 83.8853 93.7896 84.056C93.4163 84.2267 93.0163 84.52 92.5896 84.936C92.515 85.0107 92.435 85.048 92.3496 85.048C92.275 85.048 92.2056 85.016 92.1416 84.952L91.9336 84.76C91.859 84.6853 91.8216 84.6053 91.8216 84.52C91.8216 84.424 91.859 84.3387 91.9336 84.264C92.3816 83.7947 92.851 83.4533 93.3416 83.24C93.843 83.0267 94.3923 82.92 94.9896 82.92ZM94.4136 90.36C95.1816 90.36 95.8163 90.1573 96.3176 89.752C96.819 89.3467 97.0696 88.8293 97.0696 88.2V86.856L95.5816 87.144C94.8883 87.2827 94.339 87.416 93.9336 87.544C93.5283 87.672 93.203 87.8587 92.9576 88.104C92.7123 88.3493 92.5896 88.6693 92.5896 89.064C92.5896 89.4693 92.7496 89.7893 93.0696 90.024C93.4003 90.248 93.8483 90.36 94.4136 90.36ZM108.434 82.92C109.288 82.92 109.938 83.1653 110.386 83.656C110.845 84.136 111.074 84.7547 111.074 85.512V90.68C111.074 90.8933 110.968 91 110.754 91H110.338C110.125 91 110.018 90.8933 110.018 90.68V85.8C110.018 85.16 109.869 84.6693 109.57 84.328C109.282 83.9867 108.85 83.816 108.274 83.816C107.666 83.816 107.181 84.0187 106.818 84.424C106.456 84.8293 106.274 85.352 106.274 85.992V90.68C106.274 90.8933 106.168 91 105.954 91H105.538C105.325 91 105.218 90.8933 105.218 90.68V85.8C105.218 85.16 105.069 84.6693 104.77 84.328C104.482 83.9867 104.045 83.816 103.458 83.816C102.914 83.816 102.461 83.9867 102.098 84.328C101.746 84.6693 101.538 85.1173 101.474 85.672V90.68C101.474 90.8933 101.368 91 101.154 91H100.738C100.525 91 100.418 90.8933 100.418 90.68V83.432C100.418 83.2187 100.525 83.112 100.738 83.112H101.09C101.304 83.112 101.41 83.2187 101.41 83.432V84.088C101.89 83.3093 102.653 82.92 103.698 82.92C104.242 82.92 104.706 83.0427 105.09 83.288C105.485 83.5227 105.778 83.8427 105.97 84.248C106.536 83.3627 107.357 82.92 108.434 82.92ZM113.931 81.112C113.717 81.112 113.536 81.0373 113.387 80.888C113.248 80.7387 113.179 80.5573 113.179 80.344C113.179 80.1307 113.248 79.9547 113.387 79.816C113.536 79.6773 113.717 79.608 113.931 79.608C114.155 79.608 114.336 79.6773 114.475 79.816C114.624 79.9547 114.699 80.1307 114.699 80.344C114.699 80.5573 114.624 80.7387 114.475 80.888C114.336 81.0373 114.155 81.112 113.931 81.112ZM113.723 91C113.509 91 113.403 90.8933 113.403 90.68V83.432C113.403 83.2187 113.509 83.112 113.723 83.112H114.139C114.352 83.112 114.459 83.2187 114.459 83.432V90.68C114.459 90.8933 114.352 91 114.139 91H113.723ZM120.329 82.92C121.257 82.92 121.956 83.176 122.425 83.688C122.905 84.2 123.145 84.84 123.145 85.608V90.68C123.145 90.8933 123.038 91 122.825 91H122.409C122.196 91 122.089 90.8933 122.089 90.68V85.96C122.089 85.256 121.918 84.7227 121.577 84.36C121.236 83.9973 120.745 83.816 120.105 83.816C119.7 83.816 119.326 83.9173 118.985 84.12C118.644 84.312 118.372 84.5787 118.169 84.92C117.966 85.2613 117.865 85.6347 117.865 86.04V90.68C117.865 90.8933 117.758 91 117.545 91H117.129C116.916 91 116.809 90.8933 116.809 90.68V83.432C116.809 83.2187 116.916 83.112 117.129 83.112H117.481C117.694 83.112 117.801 83.2187 117.801 83.432V84.2C118.068 83.7733 118.42 83.4533 118.857 83.24C119.294 83.0267 119.785 82.92 120.329 82.92ZM131.145 83.432C131.145 83.2187 131.252 83.112 131.465 83.112H131.801C132.014 83.112 132.121 83.2187 132.121 83.432V90.92C132.121 91.912 131.822 92.6907 131.225 93.256C130.628 93.832 129.79 94.12 128.713 94.12C127.55 94.12 126.478 93.7893 125.497 93.128C125.39 93.064 125.337 92.984 125.337 92.888C125.337 92.8133 125.358 92.7493 125.401 92.696L125.593 92.424C125.657 92.3173 125.742 92.264 125.849 92.264C125.892 92.264 125.956 92.2853 126.041 92.328C126.51 92.6267 126.948 92.8507 127.353 93C127.769 93.1493 128.222 93.224 128.713 93.224C129.417 93.224 129.988 93.0267 130.425 92.632C130.862 92.248 131.081 91.6507 131.081 90.84V89.56C130.505 90.488 129.63 90.952 128.457 90.952C127.774 90.952 127.172 90.7813 126.649 90.44C126.126 90.088 125.721 89.608 125.433 89C125.156 88.392 125.017 87.704 125.017 86.936C125.017 86.168 125.156 85.48 125.433 84.872C125.721 84.264 126.126 83.7893 126.649 83.448C127.172 83.096 127.774 82.92 128.457 82.92C129.076 82.92 129.609 83.0533 130.057 83.32C130.516 83.576 130.878 83.944 131.145 84.424V83.432ZM128.569 90.056C129.337 90.056 129.95 89.768 130.409 89.192C130.868 88.6053 131.097 87.8533 131.097 86.936C131.097 86.0187 130.868 85.272 130.409 84.696C129.95 84.1093 129.337 83.816 128.569 83.816C127.79 83.816 127.182 84.104 126.745 84.68C126.318 85.256 126.105 86.008 126.105 86.936C126.105 87.864 126.318 88.616 126.745 89.192C127.182 89.768 127.79 90.056 128.569 90.056ZM134.929 89.48C135.217 89.48 135.451 89.592 135.633 89.816C135.825 90.0293 135.921 90.3547 135.921 90.792C135.921 91.2293 135.793 91.656 135.537 92.072C135.291 92.4987 134.95 92.7707 134.513 92.888L134.433 92.904C134.347 92.904 134.278 92.872 134.225 92.808C134.182 92.7547 134.161 92.68 134.161 92.584C134.161 92.52 134.182 92.4667 134.225 92.424C134.267 92.392 134.331 92.3547 134.417 92.312C134.63 92.216 134.811 92.056 134.961 91.832C135.11 91.608 135.195 91.352 135.217 91.064C135.121 91.096 135.019 91.112 134.913 91.112C134.689 91.112 134.497 91.0373 134.337 90.888C134.187 90.7387 134.113 90.5467 134.113 90.312C134.113 90.0773 134.193 89.88 134.353 89.72C134.513 89.56 134.705 89.48 134.929 89.48ZM149.726 90.616C149.769 90.6693 149.79 90.728 149.79 90.792C149.79 90.9307 149.699 91 149.518 91H148.926C148.766 91 148.638 90.9307 148.542 90.792L145.502 86.28H142.59V90.68C142.59 90.8933 142.483 91 142.27 91H141.774C141.561 91 141.454 90.8933 141.454 90.68V79.96C141.454 79.7467 141.561 79.64 141.774 79.64H145.95C147.038 79.64 147.918 79.9333 148.59 80.52C149.262 81.096 149.598 81.9067 149.598 82.952C149.598 83.8693 149.337 84.6107 148.814 85.176C148.302 85.7413 147.609 86.088 146.734 86.216L149.726 90.616ZM142.59 85.336H145.774C146.617 85.336 147.278 85.1333 147.758 84.728C148.238 84.3227 148.478 83.7307 148.478 82.952C148.478 82.184 148.233 81.5973 147.742 81.192C147.262 80.7867 146.601 80.584 145.758 80.584H142.59V85.336ZM156.882 83.432C156.882 83.2187 156.989 83.112 157.202 83.112H157.618C157.831 83.112 157.938 83.2187 157.938 83.432V90.68C157.938 90.8933 157.831 91 157.618 91H157.282C157.069 91 156.962 90.8933 156.962 90.68V89.96C156.727 90.376 156.391 90.6907 155.954 90.904C155.527 91.1067 155.058 91.208 154.546 91.208C153.586 91.208 152.877 90.968 152.418 90.488C151.959 89.9973 151.73 89.368 151.73 88.6V83.432C151.73 83.2187 151.837 83.112 152.05 83.112H152.466C152.679 83.112 152.786 83.2187 152.786 83.432V88.376C152.786 89.0053 152.941 89.4853 153.25 89.816C153.57 90.136 154.023 90.296 154.61 90.296C155.271 90.296 155.815 90.0933 156.242 89.688C156.669 89.2827 156.882 88.7067 156.882 87.96V83.432ZM163.829 82.92C164.757 82.92 165.456 83.176 165.925 83.688C166.405 84.2 166.645 84.84 166.645 85.608V90.68C166.645 90.8933 166.538 91 166.325 91H165.909C165.696 91 165.589 90.8933 165.589 90.68V85.96C165.589 85.256 165.418 84.7227 165.077 84.36C164.736 83.9973 164.245 83.816 163.605 83.816C163.2 83.816 162.826 83.9173 162.485 84.12C162.144 84.312 161.872 84.5787 161.669 84.92C161.466 85.2613 161.365 85.6347 161.365 86.04V90.68C161.365 90.8933 161.258 91 161.045 91H160.629C160.416 91 160.309 90.8933 160.309 90.68V83.432C160.309 83.2187 160.416 83.112 160.629 83.112H160.981C161.194 83.112 161.301 83.2187 161.301 83.432V84.2C161.568 83.7733 161.92 83.4533 162.357 83.24C162.794 83.0267 163.285 82.92 163.829 82.92ZM172.501 82.92C173.429 82.92 174.128 83.176 174.597 83.688C175.077 84.2 175.317 84.84 175.317 85.608V90.68C175.317 90.8933 175.21 91 174.997 91H174.581C174.368 91 174.261 90.8933 174.261 90.68V85.96C174.261 85.256 174.09 84.7227 173.749 84.36C173.408 83.9973 172.917 83.816 172.277 83.816C171.872 83.816 171.498 83.9173 171.157 84.12C170.816 84.312 170.544 84.5787 170.341 84.92C170.138 85.2613 170.037 85.6347 170.037 86.04V90.68C170.037 90.8933 169.93 91 169.717 91H169.301C169.088 91 168.981 90.8933 168.981 90.68V83.432C168.981 83.2187 169.088 83.112 169.301 83.112H169.653C169.866 83.112 169.973 83.2187 169.973 83.432V84.2C170.24 83.7733 170.592 83.4533 171.029 83.24C171.466 83.0267 171.957 82.92 172.501 82.92ZM178.181 81.112C177.967 81.112 177.786 81.0373 177.637 80.888C177.498 80.7387 177.429 80.5573 177.429 80.344C177.429 80.1307 177.498 79.9547 177.637 79.816C177.786 79.6773 177.967 79.608 178.181 79.608C178.405 79.608 178.586 79.6773 178.725 79.816C178.874 79.9547 178.949 80.1307 178.949 80.344C178.949 80.5573 178.874 80.7387 178.725 80.888C178.586 81.0373 178.405 81.112 178.181 81.112ZM177.973 91C177.759 91 177.653 90.8933 177.653 90.68V83.432C177.653 83.2187 177.759 83.112 177.973 83.112H178.389C178.602 83.112 178.709 83.2187 178.709 83.432V90.68C178.709 90.8933 178.602 91 178.389 91H177.973ZM184.579 82.92C185.507 82.92 186.206 83.176 186.675 83.688C187.155 84.2 187.395 84.84 187.395 85.608V90.68C187.395 90.8933 187.288 91 187.075 91H186.659C186.446 91 186.339 90.8933 186.339 90.68V85.96C186.339 85.256 186.168 84.7227 185.827 84.36C185.486 83.9973 184.995 83.816 184.355 83.816C183.95 83.816 183.576 83.9173 183.235 84.12C182.894 84.312 182.622 84.5787 182.419 84.92C182.216 85.2613 182.115 85.6347 182.115 86.04V90.68C182.115 90.8933 182.008 91 181.795 91H181.379C181.166 91 181.059 90.8933 181.059 90.68V83.432C181.059 83.2187 181.166 83.112 181.379 83.112H181.731C181.944 83.112 182.051 83.2187 182.051 83.432V84.2C182.318 83.7733 182.67 83.4533 183.107 83.24C183.544 83.0267 184.035 82.92 184.579 82.92ZM195.395 83.432C195.395 83.2187 195.502 83.112 195.715 83.112H196.051C196.264 83.112 196.371 83.2187 196.371 83.432V90.92C196.371 91.912 196.072 92.6907 195.475 93.256C194.878 93.832 194.04 94.12 192.963 94.12C191.8 94.12 190.728 93.7893 189.747 93.128C189.64 93.064 189.587 92.984 189.587 92.888C189.587 92.8133 189.608 92.7493 189.651 92.696L189.843 92.424C189.907 92.3173 189.992 92.264 190.099 92.264C190.142 92.264 190.206 92.2853 190.291 92.328C190.76 92.6267 191.198 92.8507 191.603 93C192.019 93.1493 192.472 93.224 192.963 93.224C193.667 93.224 194.238 93.0267 194.675 92.632C195.112 92.248 195.331 91.6507 195.331 90.84V89.56C194.755 90.488 193.88 90.952 192.707 90.952C192.024 90.952 191.422 90.7813 190.899 90.44C190.376 90.088 189.971 89.608 189.683 89C189.406 88.392 189.267 87.704 189.267 86.936C189.267 86.168 189.406 85.48 189.683 84.872C189.971 84.264 190.376 83.7893 190.899 83.448C191.422 83.096 192.024 82.92 192.707 82.92C193.326 82.92 193.859 83.0533 194.307 83.32C194.766 83.576 195.128 83.944 195.395 84.424V83.432ZM192.819 90.056C193.587 90.056 194.2 89.768 194.659 89.192C195.118 88.6053 195.347 87.8533 195.347 86.936C195.347 86.0187 195.118 85.272 194.659 84.696C194.2 84.1093 193.587 83.816 192.819 83.816C192.04 83.816 191.432 84.104 190.995 84.68C190.568 85.256 190.355 86.008 190.355 86.936C190.355 87.864 190.568 88.616 190.995 89.192C191.432 89.768 192.04 90.056 192.819 90.056ZM199.179 89.48C199.467 89.48 199.701 89.592 199.883 89.816C200.075 90.0293 200.171 90.3547 200.171 90.792C200.171 91.2293 200.043 91.656 199.787 92.072C199.541 92.4987 199.2 92.7707 198.763 92.888L198.683 92.904C198.597 92.904 198.528 92.872 198.475 92.808C198.432 92.7547 198.411 92.68 198.411 92.584C198.411 92.52 198.432 92.4667 198.475 92.424C198.517 92.392 198.581 92.3547 198.667 92.312C198.88 92.216 199.061 92.056 199.211 91.832C199.36 91.608 199.445 91.352 199.467 91.064C199.371 91.096 199.269 91.112 199.163 91.112C198.939 91.112 198.747 91.0373 198.587 90.888C198.437 90.7387 198.363 90.5467 198.363 90.312C198.363 90.0773 198.443 89.88 198.603 89.72C198.763 89.56 198.955 89.48 199.179 89.48ZM212.04 84.984C212.701 85.1867 213.224 85.528 213.608 86.008C214.003 86.488 214.2 87.0907 214.2 87.816C214.2 88.7867 213.885 89.56 213.256 90.136C212.627 90.712 211.784 91 210.728 91H206.024C205.811 91 205.704 90.8933 205.704 90.68V79.96C205.704 79.7467 205.811 79.64 206.024 79.64H210.536C211.517 79.64 212.307 79.8853 212.904 80.376C213.501 80.8667 213.8 81.576 213.8 82.504C213.8 83.1227 213.64 83.6453 213.32 84.072C213.011 84.4987 212.584 84.8027 212.04 84.984ZM206.84 84.568H210.344C211.08 84.568 211.656 84.392 212.072 84.04C212.488 83.6773 212.696 83.1707 212.696 82.52C212.696 81.9013 212.488 81.4267 212.072 81.096C211.667 80.7547 211.091 80.584 210.344 80.584H206.84V84.568ZM210.424 90.056C211.288 90.056 211.944 89.8533 212.392 89.448C212.851 89.0427 213.08 88.4933 213.08 87.8C213.08 87.096 212.845 86.536 212.376 86.12C211.917 85.704 211.272 85.496 210.44 85.496H206.84V90.056H210.424ZM219.161 82.92C220.132 82.92 220.89 83.1547 221.434 83.624C221.978 84.0827 222.25 84.6907 222.25 85.448V90.68C222.25 90.8933 222.143 91 221.93 91H221.61C221.396 91 221.29 90.8933 221.29 90.68V89.96C221.023 90.3867 220.644 90.7067 220.154 90.92C219.674 91.1333 219.135 91.24 218.538 91.24C217.706 91.24 217.028 91.064 216.506 90.712C215.983 90.36 215.722 89.816 215.722 89.08C215.722 88.4933 215.887 88.024 216.218 87.672C216.548 87.3093 216.98 87.0373 217.514 86.856C218.047 86.664 218.714 86.4933 219.514 86.344L221.242 86.04V85.528C221.242 84.984 221.055 84.5627 220.682 84.264C220.308 83.9547 219.818 83.8 219.21 83.8C218.751 83.8 218.335 83.8853 217.962 84.056C217.588 84.2267 217.188 84.52 216.762 84.936C216.687 85.0107 216.607 85.048 216.522 85.048C216.447 85.048 216.378 85.016 216.314 84.952L216.106 84.76C216.031 84.6853 215.993 84.6053 215.993 84.52C215.993 84.424 216.031 84.3387 216.106 84.264C216.554 83.7947 217.023 83.4533 217.514 83.24C218.015 83.0267 218.564 82.92 219.161 82.92ZM218.586 90.36C219.354 90.36 219.988 90.1573 220.49 89.752C220.991 89.3467 221.242 88.8293 221.242 88.2V86.856L219.754 87.144C219.06 87.2827 218.511 87.416 218.106 87.544C217.7 87.672 217.375 87.8587 217.13 88.104C216.884 88.3493 216.762 88.6693 216.762 89.064C216.762 89.4693 216.922 89.7893 217.242 90.024C217.572 90.248 218.02 90.36 218.586 90.36ZM230.286 91C230.126 91 229.998 90.9307 229.902 90.792L227.198 86.856L225.646 88.44V90.68C225.646 90.8933 225.54 91 225.326 91H224.91C224.697 91 224.59 90.8933 224.59 90.68V79.96C224.59 79.7467 224.697 79.64 224.91 79.64H225.326C225.54 79.64 225.646 79.7467 225.646 79.96V87.24L229.486 83.256C229.582 83.1493 229.716 83.096 229.886 83.096H230.334C230.42 83.096 230.484 83.1173 230.526 83.16C230.58 83.192 230.606 83.2347 230.606 83.288C230.606 83.3413 230.574 83.4107 230.51 83.496L227.934 86.184L230.958 90.616C231.001 90.6907 231.022 90.7547 231.022 90.808C231.022 90.936 230.937 91 230.766 91H230.286ZM233.087 81.112C232.874 81.112 232.692 81.0373 232.543 80.888C232.404 80.7387 232.335 80.5573 232.335 80.344C232.335 80.1307 232.404 79.9547 232.543 79.816C232.692 79.6773 232.874 79.608 233.087 79.608C233.311 79.608 233.492 79.6773 233.631 79.816C233.78 79.9547 233.855 80.1307 233.855 80.344C233.855 80.5573 233.78 80.7387 233.631 80.888C233.492 81.0373 233.311 81.112 233.087 81.112ZM232.879 91C232.666 91 232.559 90.8933 232.559 90.68V83.432C232.559 83.2187 232.666 83.112 232.879 83.112H233.295C233.508 83.112 233.615 83.2187 233.615 83.432V90.68C233.615 90.8933 233.508 91 233.295 91H232.879ZM239.485 82.92C240.413 82.92 241.112 83.176 241.581 83.688C242.061 84.2 242.301 84.84 242.301 85.608V90.68C242.301 90.8933 242.195 91 241.981 91H241.565C241.352 91 241.245 90.8933 241.245 90.68V85.96C241.245 85.256 241.075 84.7227 240.733 84.36C240.392 83.9973 239.901 83.816 239.261 83.816C238.856 83.816 238.483 83.9173 238.141 84.12C237.8 84.312 237.528 84.5787 237.325 84.92C237.123 85.2613 237.021 85.6347 237.021 86.04V90.68C237.021 90.8933 236.915 91 236.701 91H236.285C236.072 91 235.965 90.8933 235.965 90.68V83.432C235.965 83.2187 236.072 83.112 236.285 83.112H236.637C236.851 83.112 236.957 83.2187 236.957 83.432V84.2C237.224 83.7733 237.576 83.4533 238.013 83.24C238.451 83.0267 238.941 82.92 239.485 82.92ZM250.301 83.432C250.301 83.2187 250.408 83.112 250.621 83.112H250.957C251.17 83.112 251.277 83.2187 251.277 83.432V90.92C251.277 91.912 250.978 92.6907 250.381 93.256C249.784 93.832 248.946 94.12 247.869 94.12C246.706 94.12 245.634 93.7893 244.653 93.128C244.546 93.064 244.493 92.984 244.493 92.888C244.493 92.8133 244.514 92.7493 244.557 92.696L244.749 92.424C244.813 92.3173 244.898 92.264 245.005 92.264C245.048 92.264 245.112 92.2853 245.197 92.328C245.666 92.6267 246.104 92.8507 246.509 93C246.925 93.1493 247.378 93.224 247.869 93.224C248.573 93.224 249.144 93.0267 249.581 92.632C250.018 92.248 250.237 91.6507 250.237 90.84V89.56C249.661 90.488 248.786 90.952 247.613 90.952C246.93 90.952 246.328 90.7813 245.805 90.44C245.282 90.088 244.877 89.608 244.589 89C244.312 88.392 244.173 87.704 244.173 86.936C244.173 86.168 244.312 85.48 244.589 84.872C244.877 84.264 245.282 83.7893 245.805 83.448C246.328 83.096 246.93 82.92 247.613 82.92C248.232 82.92 248.765 83.0533 249.213 83.32C249.672 83.576 250.034 83.944 250.301 84.424V83.432ZM247.725 90.056C248.493 90.056 249.106 89.768 249.565 89.192C250.024 88.6053 250.253 87.8533 250.253 86.936C250.253 86.0187 250.024 85.272 249.565 84.696C249.106 84.1093 248.493 83.816 247.725 83.816C246.946 83.816 246.338 84.104 245.901 84.68C245.474 85.256 245.261 86.008 245.261 86.936C245.261 87.864 245.474 88.616 245.901 89.192C246.338 89.768 246.946 90.056 247.725 90.056Z" fill="#464646"/>
<g filter="url(#filter0_d_1811_19120)">
<path d="M270 140L264 146M270 144L268 146" stroke="#767676" stroke-linecap="square"/>
</g>
<rect x="71.5" y="62.5" width="202" height="87" rx="3.5" stroke="#C3CCD9"/>
<defs>
<filter id="filter0_d_1811_19120" x="263.293" y="139.293" width="7.41431" height="8.41431" filterUnits="userSpaceOnUse" color-interpolation-filters="sRGB">
<feFlood flood-opacity="0" result="BackgroundImageFix"/>
<feColorMatrix in="SourceAlpha" type="matrix" values="0 0 0 0 0 0 0 0 0 0 0 0 0 0 0 0 0 0 127 0" result="hardAlpha"/>
<feOffset dy="1"/>
<feColorMatrix type="matrix" values="0 0 0 0 1 0 0 0 0 1 0 0 0 0 1 0 0 0 0.5 0"/>
<feBlend mode="normal" in2="BackgroundImageFix" result="effect1_dropShadow_1811_19120"/>
<feBlend mode="normal" in="SourceGraphic" in2="effect1_dropShadow_1811_19120" result="shape"/>
</filter>
</defs>
</svg>
