<svg width="344" height="190" viewBox="0 0 344 190" fill="none" xmlns="http://www.w3.org/2000/svg">
<rect width="344" height="190" fill="#F5F5F5"/>
<path d="M71.568 54C71.4187 54 71.2973 53.958 71.204 53.874C71.12 53.7807 71.078 53.6593 71.078 53.51V44.55C71.078 44.3913 71.12 44.27 71.204 44.186C71.2973 44.102 71.4187 44.06 71.568 44.06H72.184C72.3427 44.06 72.464 44.102 72.548 44.186C72.632 44.27 72.674 44.3913 72.674 44.55V48.148H77.602V44.55C77.602 44.3913 77.644 44.27 77.728 44.186C77.8213 44.102 77.9427 44.06 78.092 44.06H78.722C78.8807 44.06 79.002 44.102 79.086 44.186C79.17 44.27 79.212 44.3913 79.212 44.55V53.51C79.212 53.6593 79.17 53.7807 79.086 53.874C79.002 53.958 78.8807 54 78.722 54H78.092C77.9427 54 77.8213 53.958 77.728 53.874C77.644 53.7807 77.602 53.6593 77.602 53.51V49.492H72.674V53.51C72.674 53.6593 72.632 53.7807 72.548 53.874C72.464 53.958 72.3427 54 72.184 54H71.568ZM84.2569 54.21C83.5756 54.21 82.9689 54.056 82.4369 53.748C81.9143 53.44 81.5036 53.0107 81.2049 52.46C80.9063 51.9 80.7569 51.2607 80.7569 50.542C80.7569 49.8233 80.9063 49.1887 81.2049 48.638C81.5036 48.0873 81.9143 47.658 82.4369 47.35C82.9689 47.042 83.5756 46.888 84.2569 46.888C84.9289 46.888 85.5309 47.042 86.0629 47.35C86.5949 47.658 87.0103 48.092 87.3089 48.652C87.6076 49.2027 87.7569 49.8327 87.7569 50.542C87.7569 51.2607 87.6076 51.9 87.3089 52.46C87.0103 53.0107 86.5949 53.44 86.0629 53.748C85.5309 54.056 84.9289 54.21 84.2569 54.21ZM84.2569 52.964C84.8543 52.964 85.3349 52.7447 85.6989 52.306C86.0629 51.858 86.2449 51.27 86.2449 50.542C86.2449 49.8233 86.0629 49.2447 85.6989 48.806C85.3349 48.3673 84.8543 48.148 84.2569 48.148C83.6596 48.148 83.1789 48.3673 82.8149 48.806C82.4509 49.2447 82.2689 49.8233 82.2689 50.542C82.2689 51.27 82.4509 51.858 82.8149 52.306C83.1789 52.7447 83.6596 52.964 84.2569 52.964ZM92.7329 46.916C93.3209 46.916 93.8436 47.0653 94.3009 47.364C94.7676 47.6627 95.1316 48.0873 95.3929 48.638C95.6543 49.1887 95.7849 49.8233 95.7849 50.542C95.7849 51.27 95.6543 51.9093 95.3929 52.46C95.1316 53.0107 94.7676 53.4353 94.3009 53.734C93.8343 54.0327 93.3116 54.182 92.7329 54.182C91.6969 54.182 90.9363 53.7947 90.4509 53.02V53.51C90.4509 53.6593 90.4089 53.7807 90.3249 53.874C90.2409 53.958 90.1196 54 89.9609 54H89.5549C89.4056 54 89.2843 53.958 89.1909 53.874C89.1069 53.7807 89.0649 53.6593 89.0649 53.51V44.55C89.0649 44.3913 89.1069 44.27 89.1909 44.186C89.2843 44.102 89.4056 44.06 89.5549 44.06H90.0589C90.2176 44.06 90.3389 44.102 90.4229 44.186C90.5069 44.27 90.5489 44.3913 90.5489 44.55V47.966C91.0436 47.266 91.7716 46.916 92.7329 46.916ZM92.4249 52.894C92.9849 52.894 93.4329 52.684 93.7689 52.264C94.1049 51.8347 94.2729 51.2607 94.2729 50.542C94.2729 49.8327 94.1049 49.2633 93.7689 48.834C93.4423 48.4047 92.9989 48.19 92.4389 48.19C91.8696 48.19 91.4029 48.4047 91.0389 48.834C90.6749 49.254 90.4929 49.8233 90.4929 50.542C90.4929 51.2793 90.6749 51.858 91.0389 52.278C91.4029 52.6887 91.8649 52.894 92.4249 52.894ZM100.799 46.916C101.387 46.916 101.91 47.0653 102.367 47.364C102.834 47.6627 103.198 48.0873 103.459 48.638C103.721 49.1887 103.851 49.8233 103.851 50.542C103.851 51.27 103.721 51.9093 103.459 52.46C103.198 53.0107 102.834 53.4353 102.367 53.734C101.901 54.0327 101.378 54.182 100.799 54.182C99.7633 54.182 99.0027 53.7947 98.5173 53.02V53.51C98.5173 53.6593 98.4753 53.7807 98.3913 53.874C98.3073 53.958 98.186 54 98.0273 54H97.6213C97.472 54 97.3507 53.958 97.2573 53.874C97.1733 53.7807 97.1313 53.6593 97.1313 53.51V44.55C97.1313 44.3913 97.1733 44.27 97.2573 44.186C97.3507 44.102 97.472 44.06 97.6213 44.06H98.1253C98.284 44.06 98.4053 44.102 98.4893 44.186C98.5733 44.27 98.6153 44.3913 98.6153 44.55V47.966C99.11 47.266 99.838 46.916 100.799 46.916ZM100.491 52.894C101.051 52.894 101.499 52.684 101.835 52.264C102.171 51.8347 102.339 51.2607 102.339 50.542C102.339 49.8327 102.171 49.2633 101.835 48.834C101.509 48.4047 101.065 48.19 100.505 48.19C99.936 48.19 99.4693 48.4047 99.1053 48.834C98.7413 49.254 98.5593 49.8233 98.5593 50.542C98.5593 51.2793 98.7413 51.858 99.1053 52.278C99.4693 52.6887 99.9313 52.894 100.491 52.894ZM105.954 45.754C105.683 45.754 105.454 45.6653 105.268 45.488C105.081 45.3013 104.988 45.082 104.988 44.83C104.988 44.5687 105.081 44.3493 105.268 44.172C105.454 43.9947 105.683 43.906 105.954 43.906C106.224 43.906 106.453 43.9947 106.64 44.172C106.826 44.3493 106.92 44.5687 106.92 44.83C106.92 45.082 106.826 45.3013 106.64 45.488C106.453 45.6653 106.224 45.754 105.954 45.754ZM105.688 54C105.538 54 105.417 53.958 105.324 53.874C105.24 53.7807 105.198 53.6593 105.198 53.51V47.588C105.198 47.4293 105.24 47.308 105.324 47.224C105.417 47.14 105.538 47.098 105.688 47.098H106.192C106.35 47.098 106.472 47.14 106.556 47.224C106.64 47.308 106.682 47.4293 106.682 47.588V53.51C106.682 53.6593 106.64 53.7807 106.556 53.874C106.472 53.958 106.35 54 106.192 54H105.688ZM113.339 52.236C113.46 52.1333 113.577 52.082 113.689 52.082C113.801 52.082 113.918 52.1427 114.039 52.264L114.235 52.474C114.338 52.5953 114.389 52.712 114.389 52.824C114.389 52.9453 114.328 53.062 114.207 53.174C113.778 53.5473 113.348 53.8133 112.919 53.972C112.499 54.1307 112.032 54.21 111.519 54.21C110.8 54.21 110.175 54.0607 109.643 53.762C109.12 53.4633 108.714 53.0433 108.425 52.502C108.145 51.9513 108.005 51.3167 108.005 50.598C108.005 49.8887 108.14 49.254 108.411 48.694C108.691 48.1247 109.083 47.6813 109.587 47.364C110.1 47.0467 110.698 46.888 111.379 46.888C112.396 46.888 113.18 47.1913 113.731 47.798C114.282 48.3953 114.557 49.2213 114.557 50.276V50.402C114.548 50.5513 114.501 50.668 114.417 50.752C114.333 50.836 114.212 50.878 114.053 50.878H109.461C109.517 51.494 109.718 51.998 110.063 52.39C110.418 52.7727 110.912 52.964 111.547 52.964C111.892 52.964 112.196 52.9127 112.457 52.81C112.718 52.698 113.012 52.5067 113.339 52.236ZM111.351 48.064C110.838 48.064 110.422 48.218 110.105 48.526C109.797 48.8247 109.596 49.2493 109.503 49.8H113.101C113.064 49.2587 112.896 48.834 112.597 48.526C112.298 48.218 111.883 48.064 111.351 48.064ZM118.604 54.21C118.035 54.21 117.526 54.14 117.078 54C116.639 53.8507 116.191 53.594 115.734 53.23C115.594 53.1273 115.524 53.0107 115.524 52.88C115.524 52.7773 115.575 52.6653 115.678 52.544L115.888 52.306C116 52.1753 116.121 52.11 116.252 52.11C116.355 52.11 116.467 52.1567 116.588 52.25C116.98 52.5393 117.325 52.74 117.624 52.852C117.923 52.9547 118.259 53.006 118.632 53.006C119.033 53.006 119.36 52.9267 119.612 52.768C119.873 52.6 120.004 52.376 120.004 52.096C120.004 51.8813 119.929 51.7133 119.78 51.592C119.64 51.4613 119.453 51.3633 119.22 51.298C118.987 51.2233 118.641 51.1393 118.184 51.046C117.54 50.906 117.036 50.7567 116.672 50.598C116.317 50.43 116.061 50.22 115.902 49.968C115.743 49.716 115.664 49.394 115.664 49.002C115.664 48.6007 115.776 48.2413 116 47.924C116.233 47.6067 116.555 47.3547 116.966 47.168C117.386 46.9813 117.876 46.888 118.436 46.888C118.94 46.888 119.388 46.944 119.78 47.056C120.181 47.168 120.573 47.3593 120.956 47.63C121.105 47.742 121.18 47.868 121.18 48.008C121.18 48.1013 121.133 48.2087 121.04 48.33L120.858 48.554C120.755 48.6847 120.629 48.75 120.48 48.75C120.368 48.75 120.261 48.7127 120.158 48.638C119.85 48.4327 119.565 48.2927 119.304 48.218C119.043 48.134 118.749 48.092 118.422 48.092C118.021 48.092 117.699 48.1713 117.456 48.33C117.213 48.4887 117.092 48.694 117.092 48.946C117.092 49.114 117.148 49.2493 117.26 49.352C117.381 49.4453 117.549 49.5293 117.764 49.604C117.988 49.6693 118.338 49.7533 118.814 49.856C119.458 49.996 119.967 50.1547 120.34 50.332C120.723 50.5 121.003 50.7193 121.18 50.99C121.367 51.2513 121.46 51.592 121.46 52.012C121.46 52.6653 121.199 53.1973 120.676 53.608C120.163 54.0093 119.472 54.21 118.604 54.21ZM128.782 46.888C129.715 46.888 130.434 47.1073 130.938 47.546C131.442 47.9753 131.694 48.5493 131.694 49.268V53.51C131.694 53.6593 131.652 53.7807 131.568 53.874C131.484 53.958 131.362 54 131.204 54H130.84C130.69 54 130.569 53.958 130.476 53.874C130.392 53.7807 130.35 53.6593 130.35 53.51V53.202C130.126 53.5287 129.818 53.7807 129.426 53.958C129.034 54.1353 128.576 54.224 128.054 54.224C127.335 54.224 126.742 54.0653 126.276 53.748C125.818 53.4213 125.59 52.9313 125.59 52.278C125.59 51.55 125.86 51.0133 126.402 50.668C126.952 50.3133 127.713 50.0473 128.684 49.87L130.266 49.576V49.324C130.266 48.9413 130.13 48.6473 129.86 48.442C129.598 48.2273 129.248 48.12 128.81 48.12C128.436 48.12 128.11 48.1853 127.83 48.316C127.559 48.4373 127.265 48.6427 126.948 48.932C126.826 49.0347 126.71 49.086 126.598 49.086C126.486 49.086 126.369 49.0347 126.248 48.932L126.024 48.736C125.902 48.624 125.842 48.5027 125.842 48.372C125.842 48.2507 125.898 48.134 126.01 48.022C126.411 47.6393 126.836 47.3547 127.284 47.168C127.732 46.9813 128.231 46.888 128.782 46.888ZM128.264 53.034C128.824 53.034 129.295 52.8847 129.678 52.586C130.07 52.2873 130.266 51.858 130.266 51.298V50.654L129.048 50.906C128.366 51.046 127.862 51.2047 127.536 51.382C127.209 51.5593 127.046 51.83 127.046 52.194C127.046 52.4553 127.153 52.6607 127.368 52.81C127.582 52.9593 127.881 53.034 128.264 53.034ZM136.903 46.888C137.696 46.888 138.303 47.112 138.723 47.56C139.152 47.9987 139.367 48.568 139.367 49.268V53.51C139.367 53.6593 139.325 53.7807 139.241 53.874C139.157 53.958 139.036 54 138.877 54H138.373C138.224 54 138.102 53.958 138.009 53.874C137.925 53.7807 137.883 53.6593 137.883 53.51V49.73C137.883 49.226 137.757 48.8387 137.505 48.568C137.262 48.2973 136.912 48.162 136.455 48.162C136.007 48.162 135.629 48.316 135.321 48.624C135.022 48.932 134.873 49.3193 134.873 49.786V53.51C134.873 53.6593 134.831 53.7807 134.747 53.874C134.663 53.958 134.542 54 134.383 54H133.879C133.73 54 133.608 53.958 133.515 53.874C133.431 53.7807 133.389 53.6593 133.389 53.51V47.588C133.389 47.4293 133.431 47.308 133.515 47.224C133.608 47.14 133.73 47.098 133.879 47.098H134.285C134.444 47.098 134.565 47.14 134.649 47.224C134.733 47.308 134.775 47.4293 134.775 47.588V47.952C134.999 47.6067 135.293 47.3453 135.657 47.168C136.021 46.9813 136.436 46.888 136.903 46.888ZM145.931 44.536C145.931 44.3773 145.973 44.256 146.057 44.172C146.15 44.088 146.271 44.046 146.421 44.046H146.925C147.083 44.046 147.205 44.088 147.289 44.172C147.373 44.256 147.415 44.3773 147.415 44.536V53.51C147.415 53.6593 147.373 53.7807 147.289 53.874C147.205 53.958 147.083 54 146.925 54H146.519C146.369 54 146.248 53.958 146.155 53.874C146.071 53.7807 146.029 53.6593 146.029 53.51V53.02C145.543 53.804 144.783 54.196 143.747 54.196C143.168 54.196 142.645 54.0467 142.179 53.748C141.721 53.4493 141.362 53.0247 141.101 52.474C140.839 51.9233 140.709 51.284 140.709 50.556C140.709 49.8373 140.839 49.2027 141.101 48.652C141.371 48.1013 141.74 47.6767 142.207 47.378C142.673 47.0793 143.196 46.93 143.775 46.93C144.727 46.93 145.445 47.2613 145.931 47.924V44.536ZM144.055 52.922C144.624 52.922 145.091 52.712 145.455 52.292C145.819 51.8627 146.001 51.284 146.001 50.556C146.001 49.828 145.819 49.254 145.455 48.834C145.091 48.414 144.624 48.204 144.055 48.204C143.504 48.204 143.061 48.4187 142.725 48.848C142.389 49.2773 142.221 49.8467 142.221 50.556C142.221 51.2747 142.384 51.8487 142.711 52.278C143.047 52.7073 143.495 52.922 144.055 52.922ZM153.026 45.754C152.755 45.754 152.527 45.6653 152.34 45.488C152.153 45.3013 152.06 45.082 152.06 44.83C152.06 44.5687 152.153 44.3493 152.34 44.172C152.527 43.9947 152.755 43.906 153.026 43.906C153.297 43.906 153.525 43.9947 153.712 44.172C153.899 44.3493 153.992 44.5687 153.992 44.83C153.992 45.082 153.899 45.3013 153.712 45.488C153.525 45.6653 153.297 45.754 153.026 45.754ZM152.76 54C152.611 54 152.489 53.958 152.396 53.874C152.312 53.7807 152.27 53.6593 152.27 53.51V47.588C152.27 47.4293 152.312 47.308 152.396 47.224C152.489 47.14 152.611 47.098 152.76 47.098H153.264C153.423 47.098 153.544 47.14 153.628 47.224C153.712 47.308 153.754 47.4293 153.754 47.588V53.51C153.754 53.6593 153.712 53.7807 153.628 53.874C153.544 53.958 153.423 54 153.264 54H152.76ZM158.983 46.888C159.777 46.888 160.383 47.112 160.803 47.56C161.233 47.9987 161.447 48.568 161.447 49.268V53.51C161.447 53.6593 161.405 53.7807 161.321 53.874C161.237 53.958 161.116 54 160.957 54H160.453C160.304 54 160.183 53.958 160.089 53.874C160.005 53.7807 159.963 53.6593 159.963 53.51V49.73C159.963 49.226 159.837 48.8387 159.585 48.568C159.343 48.2973 158.993 48.162 158.535 48.162C158.087 48.162 157.709 48.316 157.401 48.624C157.103 48.932 156.953 49.3193 156.953 49.786V53.51C156.953 53.6593 156.911 53.7807 156.827 53.874C156.743 53.958 156.622 54 156.463 54H155.959C155.81 54 155.689 53.958 155.595 53.874C155.511 53.7807 155.469 53.6593 155.469 53.51V47.588C155.469 47.4293 155.511 47.308 155.595 47.224C155.689 47.14 155.81 47.098 155.959 47.098H156.365C156.524 47.098 156.645 47.14 156.729 47.224C156.813 47.308 156.855 47.4293 156.855 47.588V47.952C157.079 47.6067 157.373 47.3453 157.737 47.168C158.101 46.9813 158.517 46.888 158.983 46.888ZM166.334 52.824C166.362 52.8147 166.404 52.81 166.46 52.81C166.694 52.81 166.834 52.9453 166.88 53.216L166.922 53.44C166.932 53.468 166.936 53.5147 166.936 53.58C166.936 53.8133 166.806 53.9627 166.544 54.028C166.171 54.112 165.83 54.154 165.522 54.154C164.86 54.154 164.379 54 164.08 53.692C163.791 53.384 163.646 52.922 163.646 52.306V48.232H162.876C162.727 48.232 162.606 48.19 162.512 48.106C162.428 48.0127 162.386 47.8913 162.386 47.742V47.588C162.386 47.4293 162.428 47.308 162.512 47.224C162.606 47.14 162.727 47.098 162.876 47.098H163.646V45.362C163.646 45.2033 163.688 45.082 163.772 44.998C163.866 44.914 163.987 44.872 164.136 44.872H164.64C164.799 44.872 164.92 44.914 165.004 44.998C165.088 45.082 165.13 45.2033 165.13 45.362V47.098H166.39C166.549 47.098 166.67 47.14 166.754 47.224C166.838 47.308 166.88 47.4293 166.88 47.588V47.742C166.88 47.8913 166.838 48.0127 166.754 48.106C166.67 48.19 166.549 48.232 166.39 48.232H165.13V52.124C165.13 52.3947 165.186 52.586 165.298 52.698C165.42 52.81 165.611 52.866 165.872 52.866C165.984 52.866 166.138 52.852 166.334 52.824ZM172.825 52.236C172.947 52.1333 173.063 52.082 173.175 52.082C173.287 52.082 173.404 52.1427 173.525 52.264L173.721 52.474C173.824 52.5953 173.875 52.712 173.875 52.824C173.875 52.9453 173.815 53.062 173.693 53.174C173.264 53.5473 172.835 53.8133 172.405 53.972C171.985 54.1307 171.519 54.21 171.005 54.21C170.287 54.21 169.661 54.0607 169.129 53.762C168.607 53.4633 168.201 53.0433 167.911 52.502C167.631 51.9513 167.491 51.3167 167.491 50.598C167.491 49.8887 167.627 49.254 167.897 48.694C168.177 48.1247 168.569 47.6813 169.073 47.364C169.587 47.0467 170.184 46.888 170.865 46.888C171.883 46.888 172.667 47.1913 173.217 47.798C173.768 48.3953 174.043 49.2213 174.043 50.276V50.402C174.034 50.5513 173.987 50.668 173.903 50.752C173.819 50.836 173.698 50.878 173.539 50.878H168.947C169.003 51.494 169.204 51.998 169.549 52.39C169.904 52.7727 170.399 52.964 171.033 52.964C171.379 52.964 171.682 52.9127 171.943 52.81C172.205 52.698 172.499 52.5067 172.825 52.236ZM170.837 48.064C170.324 48.064 169.909 48.218 169.591 48.526C169.283 48.8247 169.083 49.2493 168.989 49.8H172.587C172.55 49.2587 172.382 48.834 172.083 48.526C171.785 48.218 171.369 48.064 170.837 48.064ZM178.511 47.028C178.716 47.028 178.926 47.0513 179.141 47.098C179.393 47.154 179.519 47.3033 179.519 47.546C179.519 47.6113 179.514 47.658 179.505 47.686L179.435 48.022C179.379 48.2833 179.239 48.414 179.015 48.414L178.889 48.4C178.721 48.372 178.571 48.358 178.441 48.358C177.974 48.358 177.596 48.5447 177.307 48.918C177.027 49.282 176.887 49.7907 176.887 50.444V53.51C176.887 53.6593 176.845 53.7807 176.761 53.874C176.677 53.958 176.555 54 176.397 54H175.893C175.743 54 175.622 53.958 175.529 53.874C175.445 53.7807 175.403 53.6593 175.403 53.51V47.588C175.403 47.4293 175.445 47.308 175.529 47.224C175.622 47.14 175.743 47.098 175.893 47.098H176.299C176.457 47.098 176.579 47.14 176.663 47.224C176.747 47.308 176.789 47.4293 176.789 47.588V48.134C176.957 47.7887 177.185 47.518 177.475 47.322C177.764 47.126 178.109 47.028 178.511 47.028ZM185.212 52.236C185.333 52.1333 185.45 52.082 185.562 52.082C185.674 52.082 185.791 52.1427 185.912 52.264L186.108 52.474C186.211 52.5953 186.262 52.712 186.262 52.824C186.262 52.9453 186.201 53.062 186.08 53.174C185.651 53.5473 185.221 53.8133 184.792 53.972C184.372 54.1307 183.905 54.21 183.392 54.21C182.673 54.21 182.048 54.0607 181.516 53.762C180.993 53.4633 180.587 53.0433 180.298 52.502C180.018 51.9513 179.878 51.3167 179.878 50.598C179.878 49.8887 180.013 49.254 180.284 48.694C180.564 48.1247 180.956 47.6813 181.46 47.364C181.973 47.0467 182.571 46.888 183.252 46.888C184.269 46.888 185.053 47.1913 185.604 47.798C186.155 48.3953 186.43 49.2213 186.43 50.276V50.402C186.421 50.5513 186.374 50.668 186.29 50.752C186.206 50.836 186.085 50.878 185.926 50.878H181.334C181.39 51.494 181.591 51.998 181.936 52.39C182.291 52.7727 182.785 52.964 183.42 52.964C183.765 52.964 184.069 52.9127 184.33 52.81C184.591 52.698 184.885 52.5067 185.212 52.236ZM183.224 48.064C182.711 48.064 182.295 48.218 181.978 48.526C181.67 48.8247 181.469 49.2493 181.376 49.8H184.974C184.937 49.2587 184.769 48.834 184.47 48.526C184.171 48.218 183.756 48.064 183.224 48.064ZM190.477 54.21C189.908 54.21 189.399 54.14 188.951 54C188.512 53.8507 188.064 53.594 187.607 53.23C187.467 53.1273 187.397 53.0107 187.397 52.88C187.397 52.7773 187.448 52.6653 187.551 52.544L187.761 52.306C187.873 52.1753 187.994 52.11 188.125 52.11C188.228 52.11 188.34 52.1567 188.461 52.25C188.853 52.5393 189.198 52.74 189.497 52.852C189.796 52.9547 190.132 53.006 190.505 53.006C190.906 53.006 191.233 52.9267 191.485 52.768C191.746 52.6 191.877 52.376 191.877 52.096C191.877 51.8813 191.802 51.7133 191.653 51.592C191.513 51.4613 191.326 51.3633 191.093 51.298C190.86 51.2233 190.514 51.1393 190.057 51.046C189.413 50.906 188.909 50.7567 188.545 50.598C188.19 50.43 187.934 50.22 187.775 49.968C187.616 49.716 187.537 49.394 187.537 49.002C187.537 48.6007 187.649 48.2413 187.873 47.924C188.106 47.6067 188.428 47.3547 188.839 47.168C189.259 46.9813 189.749 46.888 190.309 46.888C190.813 46.888 191.261 46.944 191.653 47.056C192.054 47.168 192.446 47.3593 192.829 47.63C192.978 47.742 193.053 47.868 193.053 48.008C193.053 48.1013 193.006 48.2087 192.913 48.33L192.731 48.554C192.628 48.6847 192.502 48.75 192.353 48.75C192.241 48.75 192.134 48.7127 192.031 48.638C191.723 48.4327 191.438 48.2927 191.177 48.218C190.916 48.134 190.622 48.092 190.295 48.092C189.894 48.092 189.572 48.1713 189.329 48.33C189.086 48.4887 188.965 48.694 188.965 48.946C188.965 49.114 189.021 49.2493 189.133 49.352C189.254 49.4453 189.422 49.5293 189.637 49.604C189.861 49.6693 190.211 49.7533 190.687 49.856C191.331 49.996 191.84 50.1547 192.213 50.332C192.596 50.5 192.876 50.7193 193.053 50.99C193.24 51.2513 193.333 51.592 193.333 52.012C193.333 52.6653 193.072 53.1973 192.549 53.608C192.036 54.0093 191.345 54.21 190.477 54.21ZM197.916 52.824C197.944 52.8147 197.986 52.81 198.042 52.81C198.276 52.81 198.416 52.9453 198.462 53.216L198.504 53.44C198.514 53.468 198.518 53.5147 198.518 53.58C198.518 53.8133 198.388 53.9627 198.126 54.028C197.753 54.112 197.412 54.154 197.104 54.154C196.442 54.154 195.961 54 195.662 53.692C195.373 53.384 195.228 52.922 195.228 52.306V48.232H194.458C194.309 48.232 194.188 48.19 194.094 48.106C194.01 48.0127 193.968 47.8913 193.968 47.742V47.588C193.968 47.4293 194.01 47.308 194.094 47.224C194.188 47.14 194.309 47.098 194.458 47.098H195.228V45.362C195.228 45.2033 195.27 45.082 195.354 44.998C195.448 44.914 195.569 44.872 195.718 44.872H196.222C196.381 44.872 196.502 44.914 196.586 44.998C196.67 45.082 196.712 45.2033 196.712 45.362V47.098H197.972C198.131 47.098 198.252 47.14 198.336 47.224C198.42 47.308 198.462 47.4293 198.462 47.588V47.742C198.462 47.8913 198.42 48.0127 198.336 48.106C198.252 48.19 198.131 48.232 197.972 48.232H196.712V52.124C196.712 52.3947 196.768 52.586 196.88 52.698C197.002 52.81 197.193 52.866 197.454 52.866C197.566 52.866 197.72 52.852 197.916 52.824ZM202.453 54.21C201.884 54.21 201.375 54.14 200.927 54C200.489 53.8507 200.041 53.594 199.583 53.23C199.443 53.1273 199.373 53.0107 199.373 52.88C199.373 52.7773 199.425 52.6653 199.527 52.544L199.737 52.306C199.849 52.1753 199.971 52.11 200.101 52.11C200.204 52.11 200.316 52.1567 200.437 52.25C200.829 52.5393 201.175 52.74 201.473 52.852C201.772 52.9547 202.108 53.006 202.481 53.006C202.883 53.006 203.209 52.9267 203.461 52.768C203.723 52.6 203.853 52.376 203.853 52.096C203.853 51.8813 203.779 51.7133 203.629 51.592C203.489 51.4613 203.303 51.3633 203.069 51.298C202.836 51.2233 202.491 51.1393 202.033 51.046C201.389 50.906 200.885 50.7567 200.521 50.598C200.167 50.43 199.91 50.22 199.751 49.968C199.593 49.716 199.513 49.394 199.513 49.002C199.513 48.6007 199.625 48.2413 199.849 47.924C200.083 47.6067 200.405 47.3547 200.815 47.168C201.235 46.9813 201.725 46.888 202.285 46.888C202.789 46.888 203.237 46.944 203.629 47.056C204.031 47.168 204.423 47.3593 204.805 47.63C204.955 47.742 205.029 47.868 205.029 48.008C205.029 48.1013 204.983 48.2087 204.889 48.33L204.707 48.554C204.605 48.6847 204.479 48.75 204.329 48.75C204.217 48.75 204.11 48.7127 204.007 48.638C203.699 48.4327 203.415 48.2927 203.153 48.218C202.892 48.134 202.598 48.092 202.271 48.092C201.87 48.092 201.548 48.1713 201.305 48.33C201.063 48.4887 200.941 48.694 200.941 48.946C200.941 49.114 200.997 49.2493 201.109 49.352C201.231 49.4453 201.399 49.5293 201.613 49.604C201.837 49.6693 202.187 49.7533 202.663 49.856C203.307 49.996 203.816 50.1547 204.189 50.332C204.572 50.5 204.852 50.7193 205.029 50.99C205.216 51.2513 205.309 51.592 205.309 52.012C205.309 52.6653 205.048 53.1973 204.525 53.608C204.012 54.0093 203.321 54.21 202.453 54.21Z" fill="#464646"/>
<rect x="70.5" y="62.5" width="202" height="87" rx="3.5" fill="white"/>
<path d="M84.096 86.152C83.8827 86.152 83.776 86.0453 83.776 85.832V85.528C83.776 85.3147 83.8827 85.208 84.096 85.208H88.336C88.5493 85.208 88.656 85.3147 88.656 85.528V90.68C88.656 90.8933 88.5493 91 88.336 91H88.064C87.872 91 87.7653 90.8987 87.744 90.696L87.648 89.336C87.296 89.976 86.7947 90.4507 86.144 90.76C85.504 91.0693 84.7787 91.224 83.968 91.224C82.8693 91.224 81.9253 90.9787 81.136 90.488C80.3467 89.9867 79.744 89.2933 79.328 88.408C78.9227 87.512 78.72 86.4827 78.72 85.32C78.72 84.1893 78.9333 83.176 79.36 82.28C79.7973 81.384 80.4213 80.6853 81.232 80.184C82.0427 79.672 83.0027 79.416 84.112 79.416C84.976 79.416 85.7547 79.576 86.448 79.896C87.1413 80.2053 87.808 80.6907 88.448 81.352C88.5227 81.416 88.56 81.4907 88.56 81.576C88.56 81.6507 88.5227 81.7253 88.448 81.8L88.176 82.088C88.112 82.1627 88.0373 82.2 87.952 82.2C87.8773 82.2 87.8027 82.1627 87.728 82.088C87.12 81.4907 86.5387 81.0587 85.984 80.792C85.44 80.5253 84.8053 80.392 84.08 80.392C83.248 80.392 82.512 80.6 81.872 81.016C81.232 81.432 80.736 82.0187 80.384 82.776C80.032 83.5227 79.856 84.376 79.856 85.336C79.856 86.3067 80.0213 87.1653 80.352 87.912C80.6933 88.648 81.1733 89.224 81.792 89.64C82.4213 90.0453 83.1573 90.248 84 90.248C84.6933 90.248 85.3067 90.1093 85.84 89.832C86.384 89.5547 86.8107 89.1547 87.12 88.632C87.4293 88.0987 87.584 87.4693 87.584 86.744V86.152H84.096ZM93.9896 82.92C94.9603 82.92 95.7176 83.1547 96.2616 83.624C96.8056 84.0827 97.0776 84.6907 97.0776 85.448V90.68C97.0776 90.8933 96.971 91 96.7576 91H96.4376C96.2243 91 96.1176 90.8933 96.1176 90.68V89.96C95.851 90.3867 95.4723 90.7067 94.9816 90.92C94.5016 91.1333 93.963 91.24 93.3656 91.24C92.5336 91.24 91.8563 91.064 91.3336 90.712C90.811 90.36 90.5496 89.816 90.5496 89.08C90.5496 88.4933 90.715 88.024 91.0456 87.672C91.3763 87.3093 91.8083 87.0373 92.3416 86.856C92.875 86.664 93.5416 86.4933 94.3416 86.344L96.0696 86.04V85.528C96.0696 84.984 95.883 84.5627 95.5096 84.264C95.1363 83.9547 94.6456 83.8 94.0376 83.8C93.579 83.8 93.163 83.8853 92.7896 84.056C92.4163 84.2267 92.0163 84.52 91.5896 84.936C91.515 85.0107 91.435 85.048 91.3496 85.048C91.275 85.048 91.2056 85.016 91.1416 84.952L90.9336 84.76C90.859 84.6853 90.8216 84.6053 90.8216 84.52C90.8216 84.424 90.859 84.3387 90.9336 84.264C91.3816 83.7947 91.851 83.4533 92.3416 83.24C92.843 83.0267 93.3923 82.92 93.9896 82.92ZM93.4136 90.36C94.1816 90.36 94.8163 90.1573 95.3176 89.752C95.819 89.3467 96.0696 88.8293 96.0696 88.2V86.856L94.5816 87.144C93.8883 87.2827 93.339 87.416 92.9336 87.544C92.5283 87.672 92.203 87.8587 91.9576 88.104C91.7123 88.3493 91.5896 88.6693 91.5896 89.064C91.5896 89.4693 91.7496 89.7893 92.0696 90.024C92.4003 90.248 92.8483 90.36 93.4136 90.36ZM107.434 82.92C108.288 82.92 108.938 83.1653 109.386 83.656C109.845 84.136 110.074 84.7547 110.074 85.512V90.68C110.074 90.8933 109.968 91 109.754 91H109.338C109.125 91 109.018 90.8933 109.018 90.68V85.8C109.018 85.16 108.869 84.6693 108.57 84.328C108.282 83.9867 107.85 83.816 107.274 83.816C106.666 83.816 106.181 84.0187 105.818 84.424C105.456 84.8293 105.274 85.352 105.274 85.992V90.68C105.274 90.8933 105.168 91 104.954 91H104.538C104.325 91 104.218 90.8933 104.218 90.68V85.8C104.218 85.16 104.069 84.6693 103.77 84.328C103.482 83.9867 103.045 83.816 102.458 83.816C101.914 83.816 101.461 83.9867 101.098 84.328C100.746 84.6693 100.538 85.1173 100.474 85.672V90.68C100.474 90.8933 100.368 91 100.154 91H99.7384C99.525 91 99.4184 90.8933 99.4184 90.68V83.432C99.4184 83.2187 99.525 83.112 99.7384 83.112H100.09C100.304 83.112 100.41 83.2187 100.41 83.432V84.088C100.89 83.3093 101.653 82.92 102.698 82.92C103.242 82.92 103.706 83.0427 104.09 83.288C104.485 83.5227 104.778 83.8427 104.97 84.248C105.536 83.3627 106.357 82.92 107.434 82.92ZM112.931 81.112C112.717 81.112 112.536 81.0373 112.387 80.888C112.248 80.7387 112.179 80.5573 112.179 80.344C112.179 80.1307 112.248 79.9547 112.387 79.816C112.536 79.6773 112.717 79.608 112.931 79.608C113.155 79.608 113.336 79.6773 113.475 79.816C113.624 79.9547 113.699 80.1307 113.699 80.344C113.699 80.5573 113.624 80.7387 113.475 80.888C113.336 81.0373 113.155 81.112 112.931 81.112ZM112.723 91C112.509 91 112.403 90.8933 112.403 90.68V83.432C112.403 83.2187 112.509 83.112 112.723 83.112H113.139C113.352 83.112 113.459 83.2187 113.459 83.432V90.68C113.459 90.8933 113.352 91 113.139 91H112.723ZM119.329 82.92C120.257 82.92 120.956 83.176 121.425 83.688C121.905 84.2 122.145 84.84 122.145 85.608V90.68C122.145 90.8933 122.038 91 121.825 91H121.409C121.196 91 121.089 90.8933 121.089 90.68V85.96C121.089 85.256 120.918 84.7227 120.577 84.36C120.236 83.9973 119.745 83.816 119.105 83.816C118.7 83.816 118.326 83.9173 117.985 84.12C117.644 84.312 117.372 84.5787 117.169 84.92C116.966 85.2613 116.865 85.6347 116.865 86.04V90.68C116.865 90.8933 116.758 91 116.545 91H116.129C115.916 91 115.809 90.8933 115.809 90.68V83.432C115.809 83.2187 115.916 83.112 116.129 83.112H116.481C116.694 83.112 116.801 83.2187 116.801 83.432V84.2C117.068 83.7733 117.42 83.4533 117.857 83.24C118.294 83.0267 118.785 82.92 119.329 82.92ZM130.145 83.432C130.145 83.2187 130.252 83.112 130.465 83.112H130.801C131.014 83.112 131.121 83.2187 131.121 83.432V90.92C131.121 91.912 130.822 92.6907 130.225 93.256C129.628 93.832 128.79 94.12 127.713 94.12C126.55 94.12 125.478 93.7893 124.497 93.128C124.39 93.064 124.337 92.984 124.337 92.888C124.337 92.8133 124.358 92.7493 124.401 92.696L124.593 92.424C124.657 92.3173 124.742 92.264 124.849 92.264C124.892 92.264 124.956 92.2853 125.041 92.328C125.51 92.6267 125.948 92.8507 126.353 93C126.769 93.1493 127.222 93.224 127.713 93.224C128.417 93.224 128.988 93.0267 129.425 92.632C129.862 92.248 130.081 91.6507 130.081 90.84V89.56C129.505 90.488 128.63 90.952 127.457 90.952C126.774 90.952 126.172 90.7813 125.649 90.44C125.126 90.088 124.721 89.608 124.433 89C124.156 88.392 124.017 87.704 124.017 86.936C124.017 86.168 124.156 85.48 124.433 84.872C124.721 84.264 125.126 83.7893 125.649 83.448C126.172 83.096 126.774 82.92 127.457 82.92C128.076 82.92 128.609 83.0533 129.057 83.32C129.516 83.576 129.878 83.944 130.145 84.424V83.432ZM127.569 90.056C128.337 90.056 128.95 89.768 129.409 89.192C129.868 88.6053 130.097 87.8533 130.097 86.936C130.097 86.0187 129.868 85.272 129.409 84.696C128.95 84.1093 128.337 83.816 127.569 83.816C126.79 83.816 126.182 84.104 125.745 84.68C125.318 85.256 125.105 86.008 125.105 86.936C125.105 87.864 125.318 88.616 125.745 89.192C126.182 89.768 126.79 90.056 127.569 90.056ZM133.929 89.48C134.217 89.48 134.451 89.592 134.633 89.816C134.825 90.0293 134.921 90.3547 134.921 90.792C134.921 91.2293 134.793 91.656 134.537 92.072C134.291 92.4987 133.95 92.7707 133.513 92.888L133.433 92.904C133.347 92.904 133.278 92.872 133.225 92.808C133.182 92.7547 133.161 92.68 133.161 92.584C133.161 92.52 133.182 92.4667 133.225 92.424C133.267 92.392 133.331 92.3547 133.417 92.312C133.63 92.216 133.811 92.056 133.961 91.832C134.11 91.608 134.195 91.352 134.217 91.064C134.121 91.096 134.019 91.112 133.913 91.112C133.689 91.112 133.497 91.0373 133.337 90.888C133.187 90.7387 133.113 90.5467 133.113 90.312C133.113 90.0773 133.193 89.88 133.353 89.72C133.513 89.56 133.705 89.48 133.929 89.48ZM143.206 83.048C143.473 83.048 143.787 83.0907 144.15 83.176C144.342 83.24 144.417 83.3733 144.374 83.576L144.31 83.832C144.257 84.0347 144.123 84.1093 143.91 84.056C143.654 83.992 143.419 83.96 143.206 83.96C142.662 83.96 142.209 84.1947 141.846 84.664C141.494 85.1333 141.318 85.784 141.318 86.616V90.68C141.318 90.8933 141.211 91 140.998 91H140.582C140.369 91 140.262 90.8933 140.262 90.68V83.432C140.262 83.2187 140.369 83.112 140.582 83.112H140.934C141.147 83.112 141.254 83.2187 141.254 83.432V84.312C141.435 83.9173 141.691 83.608 142.022 83.384C142.363 83.16 142.758 83.048 143.206 83.048ZM150.929 83.432C150.929 83.2187 151.036 83.112 151.249 83.112H151.665C151.878 83.112 151.985 83.2187 151.985 83.432V90.68C151.985 90.8933 151.878 91 151.665 91H151.329C151.116 91 151.009 90.8933 151.009 90.68V89.96C150.774 90.376 150.438 90.6907 150.001 90.904C149.574 91.1067 149.105 91.208 148.593 91.208C147.633 91.208 146.924 90.968 146.465 90.488C146.006 89.9973 145.777 89.368 145.777 88.6V83.432C145.777 83.2187 145.884 83.112 146.097 83.112H146.513C146.726 83.112 146.833 83.2187 146.833 83.432V88.376C146.833 89.0053 146.988 89.4853 147.297 89.816C147.617 90.136 148.07 90.296 148.657 90.296C149.318 90.296 149.862 90.0933 150.289 89.688C150.716 89.2827 150.929 88.7067 150.929 87.96V83.432ZM157.876 82.92C158.804 82.92 159.503 83.176 159.972 83.688C160.452 84.2 160.692 84.84 160.692 85.608V90.68C160.692 90.8933 160.585 91 160.372 91H159.956C159.743 91 159.636 90.8933 159.636 90.68V85.96C159.636 85.256 159.465 84.7227 159.124 84.36C158.783 83.9973 158.292 83.816 157.652 83.816C157.247 83.816 156.873 83.9173 156.532 84.12C156.191 84.312 155.919 84.5787 155.716 84.92C155.513 85.2613 155.412 85.6347 155.412 86.04V90.68C155.412 90.8933 155.305 91 155.092 91H154.676C154.463 91 154.356 90.8933 154.356 90.68V83.432C154.356 83.2187 154.463 83.112 154.676 83.112H155.028C155.241 83.112 155.348 83.2187 155.348 83.432V84.2C155.615 83.7733 155.967 83.4533 156.404 83.24C156.841 83.0267 157.332 82.92 157.876 82.92ZM166.548 82.92C167.476 82.92 168.174 83.176 168.644 83.688C169.124 84.2 169.364 84.84 169.364 85.608V90.68C169.364 90.8933 169.257 91 169.044 91H168.628C168.414 91 168.308 90.8933 168.308 90.68V85.96C168.308 85.256 168.137 84.7227 167.796 84.36C167.454 83.9973 166.964 83.816 166.324 83.816C165.918 83.816 165.545 83.9173 165.204 84.12C164.862 84.312 164.59 84.5787 164.388 84.92C164.185 85.2613 164.084 85.6347 164.084 86.04V90.68C164.084 90.8933 163.977 91 163.764 91H163.348C163.134 91 163.028 90.8933 163.028 90.68V83.432C163.028 83.2187 163.134 83.112 163.348 83.112H163.7C163.913 83.112 164.02 83.2187 164.02 83.432V84.2C164.286 83.7733 164.638 83.4533 165.076 83.24C165.513 83.0267 166.004 82.92 166.548 82.92ZM172.228 81.112C172.014 81.112 171.833 81.0373 171.684 80.888C171.545 80.7387 171.476 80.5573 171.476 80.344C171.476 80.1307 171.545 79.9547 171.684 79.816C171.833 79.6773 172.014 79.608 172.228 79.608C172.452 79.608 172.633 79.6773 172.772 79.816C172.921 79.9547 172.996 80.1307 172.996 80.344C172.996 80.5573 172.921 80.7387 172.772 80.888C172.633 81.0373 172.452 81.112 172.228 81.112ZM172.02 91C171.806 91 171.7 90.8933 171.7 90.68V83.432C171.7 83.2187 171.806 83.112 172.02 83.112H172.436C172.649 83.112 172.756 83.2187 172.756 83.432V90.68C172.756 90.8933 172.649 91 172.436 91H172.02ZM178.626 82.92C179.554 82.92 180.253 83.176 180.722 83.688C181.202 84.2 181.442 84.84 181.442 85.608V90.68C181.442 90.8933 181.335 91 181.122 91H180.706C180.493 91 180.386 90.8933 180.386 90.68V85.96C180.386 85.256 180.215 84.7227 179.874 84.36C179.533 83.9973 179.042 83.816 178.402 83.816C177.997 83.816 177.623 83.9173 177.282 84.12C176.941 84.312 176.669 84.5787 176.466 84.92C176.263 85.2613 176.162 85.6347 176.162 86.04V90.68C176.162 90.8933 176.055 91 175.842 91H175.426C175.213 91 175.106 90.8933 175.106 90.68V83.432C175.106 83.2187 175.213 83.112 175.426 83.112H175.778C175.991 83.112 176.098 83.2187 176.098 83.432V84.2C176.365 83.7733 176.717 83.4533 177.154 83.24C177.591 83.0267 178.082 82.92 178.626 82.92ZM189.442 83.432C189.442 83.2187 189.548 83.112 189.762 83.112H190.098C190.311 83.112 190.418 83.2187 190.418 83.432V90.92C190.418 91.912 190.119 92.6907 189.522 93.256C188.924 93.832 188.087 94.12 187.01 94.12C185.847 94.12 184.775 93.7893 183.794 93.128C183.687 93.064 183.634 92.984 183.634 92.888C183.634 92.8133 183.655 92.7493 183.698 92.696L183.89 92.424C183.954 92.3173 184.039 92.264 184.146 92.264C184.188 92.264 184.252 92.2853 184.338 92.328C184.807 92.6267 185.244 92.8507 185.65 93C186.066 93.1493 186.519 93.224 187.01 93.224C187.714 93.224 188.284 93.0267 188.722 92.632C189.159 92.248 189.378 91.6507 189.378 90.84V89.56C188.802 90.488 187.927 90.952 186.754 90.952C186.071 90.952 185.468 90.7813 184.946 90.44C184.423 90.088 184.018 89.608 183.73 89C183.452 88.392 183.314 87.704 183.314 86.936C183.314 86.168 183.452 85.48 183.73 84.872C184.018 84.264 184.423 83.7893 184.946 83.448C185.468 83.096 186.071 82.92 186.754 82.92C187.372 82.92 187.906 83.0533 188.354 83.32C188.812 83.576 189.175 83.944 189.442 84.424V83.432ZM186.866 90.056C187.634 90.056 188.247 89.768 188.706 89.192C189.164 88.6053 189.394 87.8533 189.394 86.936C189.394 86.0187 189.164 85.272 188.706 84.696C188.247 84.1093 187.634 83.816 186.866 83.816C186.087 83.816 185.479 84.104 185.042 84.68C184.615 85.256 184.402 86.008 184.402 86.936C184.402 87.864 184.615 88.616 185.042 89.192C185.479 89.768 186.087 90.056 186.866 90.056ZM193.225 89.48C193.513 89.48 193.748 89.592 193.929 89.816C194.121 90.0293 194.217 90.3547 194.217 90.792C194.217 91.2293 194.089 91.656 193.833 92.072C193.588 92.4987 193.247 92.7707 192.809 92.888L192.729 92.904C192.644 92.904 192.575 92.872 192.521 92.808C192.479 92.7547 192.457 92.68 192.457 92.584C192.457 92.52 192.479 92.4667 192.521 92.424C192.564 92.392 192.628 92.3547 192.713 92.312C192.927 92.216 193.108 92.056 193.257 91.832C193.407 91.608 193.492 91.352 193.513 91.064C193.417 91.096 193.316 91.112 193.209 91.112C192.985 91.112 192.793 91.0373 192.633 90.888C192.484 90.7387 192.409 90.5467 192.409 90.312C192.409 90.0773 192.489 89.88 192.649 89.72C192.809 89.56 193.001 89.48 193.225 89.48ZM203.335 82.936C204.007 82.936 204.604 83.112 205.127 83.464C205.66 83.8053 206.071 84.2907 206.359 84.92C206.658 85.5387 206.807 86.2533 206.807 87.064C206.807 87.8747 206.658 88.5947 206.359 89.224C206.06 89.8427 205.644 90.328 205.111 90.68C204.588 91.0213 203.996 91.192 203.335 91.192C202.066 91.192 201.138 90.7013 200.551 89.72V90.68C200.551 90.8933 200.444 91 200.231 91H199.879C199.666 91 199.559 90.8933 199.559 90.68V79.944C199.559 79.7307 199.666 79.624 199.879 79.624H200.295C200.508 79.624 200.615 79.7307 200.615 79.944V84.36C201.202 83.4107 202.108 82.936 203.335 82.936ZM203.255 90.296C203.991 90.296 204.583 89.9973 205.031 89.4C205.49 88.8027 205.719 88.024 205.719 87.064C205.719 86.104 205.49 85.3253 205.031 84.728C204.583 84.1307 203.991 83.832 203.255 83.832C202.466 83.832 201.82 84.12 201.319 84.696C200.818 85.272 200.567 86.0613 200.567 87.064C200.567 88.0773 200.812 88.872 201.303 89.448C201.804 90.0133 202.455 90.296 203.255 90.296ZM211.724 82.92C212.695 82.92 213.452 83.1547 213.996 83.624C214.54 84.0827 214.812 84.6907 214.812 85.448V90.68C214.812 90.8933 214.705 91 214.492 91H214.172C213.959 91 213.852 90.8933 213.852 90.68V89.96C213.585 90.3867 213.207 90.7067 212.716 90.92C212.236 91.1333 211.697 91.24 211.1 91.24C210.268 91.24 209.591 91.064 209.068 90.712C208.545 90.36 208.284 89.816 208.284 89.08C208.284 88.4933 208.449 88.024 208.78 87.672C209.111 87.3093 209.543 87.0373 210.076 86.856C210.609 86.664 211.276 86.4933 212.076 86.344L213.804 86.04V85.528C213.804 84.984 213.617 84.5627 213.244 84.264C212.871 83.9547 212.38 83.8 211.772 83.8C211.313 83.8 210.897 83.8853 210.524 84.056C210.151 84.2267 209.751 84.52 209.324 84.936C209.249 85.0107 209.169 85.048 209.084 85.048C209.009 85.048 208.94 85.016 208.876 84.952L208.668 84.76C208.593 84.6853 208.556 84.6053 208.556 84.52C208.556 84.424 208.593 84.3387 208.668 84.264C209.116 83.7947 209.585 83.4533 210.076 83.24C210.577 83.0267 211.127 82.92 211.724 82.92ZM211.148 90.36C211.916 90.36 212.551 90.1573 213.052 89.752C213.553 89.3467 213.804 88.8293 213.804 88.2V86.856L212.316 87.144C211.623 87.2827 211.073 87.416 210.668 87.544C210.263 87.672 209.937 87.8587 209.692 88.104C209.447 88.3493 209.324 88.6693 209.324 89.064C209.324 89.4693 209.484 89.7893 209.804 90.024C210.135 90.248 210.583 90.36 211.148 90.36ZM222.849 91C222.689 91 222.561 90.9307 222.465 90.792L219.761 86.856L218.209 88.44V90.68C218.209 90.8933 218.102 91 217.889 91H217.473C217.259 91 217.153 90.8933 217.153 90.68V79.96C217.153 79.7467 217.259 79.64 217.473 79.64H217.889C218.102 79.64 218.209 79.7467 218.209 79.96V87.24L222.049 83.256C222.145 83.1493 222.278 83.096 222.449 83.096H222.897C222.982 83.096 223.046 83.1173 223.089 83.16C223.142 83.192 223.169 83.2347 223.169 83.288C223.169 83.3413 223.137 83.4107 223.073 83.496L220.497 86.184L223.521 90.616C223.563 90.6907 223.585 90.7547 223.585 90.808C223.585 90.936 223.499 91 223.329 91H222.849ZM225.65 81.112C225.436 81.112 225.255 81.0373 225.106 80.888C224.967 80.7387 224.898 80.5573 224.898 80.344C224.898 80.1307 224.967 79.9547 225.106 79.816C225.255 79.6773 225.436 79.608 225.65 79.608C225.874 79.608 226.055 79.6773 226.194 79.816C226.343 79.9547 226.418 80.1307 226.418 80.344C226.418 80.5573 226.343 80.7387 226.194 80.888C226.055 81.0373 225.874 81.112 225.65 81.112ZM225.442 91C225.228 91 225.122 90.8933 225.122 90.68V83.432C225.122 83.2187 225.228 83.112 225.442 83.112H225.858C226.071 83.112 226.178 83.2187 226.178 83.432V90.68C226.178 90.8933 226.071 91 225.858 91H225.442ZM232.048 82.92C232.976 82.92 233.674 83.176 234.144 83.688C234.624 84.2 234.864 84.84 234.864 85.608V90.68C234.864 90.8933 234.757 91 234.544 91H234.128C233.914 91 233.808 90.8933 233.808 90.68V85.96C233.808 85.256 233.637 84.7227 233.296 84.36C232.954 83.9973 232.464 83.816 231.824 83.816C231.418 83.816 231.045 83.9173 230.704 84.12C230.362 84.312 230.09 84.5787 229.888 84.92C229.685 85.2613 229.584 85.6347 229.584 86.04V90.68C229.584 90.8933 229.477 91 229.264 91H228.848C228.634 91 228.528 90.8933 228.528 90.68V83.432C228.528 83.2187 228.634 83.112 228.848 83.112H229.2C229.413 83.112 229.52 83.2187 229.52 83.432V84.2C229.786 83.7733 230.138 83.4533 230.576 83.24C231.013 83.0267 231.504 82.92 232.048 82.92ZM242.864 83.432C242.864 83.2187 242.97 83.112 243.184 83.112H243.52C243.733 83.112 243.84 83.2187 243.84 83.432V90.92C243.84 91.912 243.541 92.6907 242.944 93.256C242.346 93.832 241.509 94.12 240.432 94.12C239.269 94.12 238.197 93.7893 237.216 93.128C237.109 93.064 237.056 92.984 237.056 92.888C237.056 92.8133 237.077 92.7493 237.12 92.696L237.312 92.424C237.376 92.3173 237.461 92.264 237.568 92.264C237.61 92.264 237.674 92.2853 237.76 92.328C238.229 92.6267 238.666 92.8507 239.072 93C239.488 93.1493 239.941 93.224 240.432 93.224C241.136 93.224 241.706 93.0267 242.144 92.632C242.581 92.248 242.8 91.6507 242.8 90.84V89.56C242.224 90.488 241.349 90.952 240.176 90.952C239.493 90.952 238.89 90.7813 238.368 90.44C237.845 90.088 237.44 89.608 237.152 89C236.874 88.392 236.736 87.704 236.736 86.936C236.736 86.168 236.874 85.48 237.152 84.872C237.44 84.264 237.845 83.7893 238.368 83.448C238.89 83.096 239.493 82.92 240.176 82.92C240.794 82.92 241.328 83.0533 241.776 83.32C242.234 83.576 242.597 83.944 242.864 84.424V83.432ZM240.288 90.056C241.056 90.056 241.669 89.768 242.128 89.192C242.586 88.6053 242.816 87.8533 242.816 86.936C242.816 86.0187 242.586 85.272 242.128 84.696C241.669 84.1093 241.056 83.816 240.288 83.816C239.509 83.816 238.901 84.104 238.464 84.68C238.037 85.256 237.824 86.008 237.824 86.936C237.824 87.864 238.037 88.616 238.464 89.192C238.901 89.768 239.509 90.056 240.288 90.056Z" fill="#464646"/>
<g filter="url(#filter0_d_1811_19118)">
<path d="M269 140L263 146M269 144L267 146" stroke="#767676" stroke-linecap="square"/>
</g>
<rect x="70.5" y="62.5" width="202" height="87" rx="3.5" stroke="#C3CCD9"/>
<defs>
<filter id="filter0_d_1811_19118" x="262.293" y="139.293" width="7.41431" height="8.41431" filterUnits="userSpaceOnUse" color-interpolation-filters="sRGB">
<feFlood flood-opacity="0" result="BackgroundImageFix"/>
<feColorMatrix in="SourceAlpha" type="matrix" values="0 0 0 0 0 0 0 0 0 0 0 0 0 0 0 0 0 0 127 0" result="hardAlpha"/>
<feOffset dy="1"/>
<feColorMatrix type="matrix" values="0 0 0 0 1 0 0 0 0 1 0 0 0 0 1 0 0 0 0.5 0"/>
<feBlend mode="normal" in2="BackgroundImageFix" result="effect1_dropShadow_1811_19118"/>
<feBlend mode="normal" in="SourceGraphic" in2="effect1_dropShadow_1811_19118" result="shape"/>
</filter>
</defs>
</svg>
