<svg width="344" height="320" viewBox="0 0 344 320" fill="none" xmlns="http://www.w3.org/2000/svg">
<rect width="344" height="320" fill="#F5F5F5"/>
<path d="M71.568 109C71.4187 109 71.2973 108.958 71.204 108.874C71.12 108.781 71.078 108.659 71.078 108.51V99.55C71.078 99.3913 71.12 99.27 71.204 99.186C71.2973 99.102 71.4187 99.06 71.568 99.06H72.184C72.3427 99.06 72.464 99.102 72.548 99.186C72.632 99.27 72.674 99.3913 72.674 99.55V107.642H76.72C76.8787 107.642 77 107.684 77.084 107.768C77.168 107.852 77.21 107.973 77.21 108.132V108.51C77.21 108.659 77.168 108.781 77.084 108.874C77 108.958 76.8787 109 76.72 109H71.568ZM81.5043 101.888C82.4376 101.888 83.1563 102.107 83.6603 102.546C84.1643 102.975 84.4163 103.549 84.4163 104.268V108.51C84.4163 108.659 84.3743 108.781 84.2903 108.874C84.2063 108.958 84.0849 109 83.9263 109H83.5623C83.4129 109 83.2916 108.958 83.1983 108.874C83.1143 108.781 83.0723 108.659 83.0723 108.51V108.202C82.8483 108.529 82.5403 108.781 82.1483 108.958C81.7563 109.135 81.2989 109.224 80.7763 109.224C80.0576 109.224 79.4649 109.065 78.9983 108.748C78.5409 108.421 78.3123 107.931 78.3123 107.278C78.3123 106.55 78.5829 106.013 79.1243 105.668C79.6749 105.313 80.4356 105.047 81.4063 104.87L82.9883 104.576V104.324C82.9883 103.941 82.8529 103.647 82.5823 103.442C82.3209 103.227 81.9709 103.12 81.5323 103.12C81.1589 103.12 80.8323 103.185 80.5523 103.316C80.2816 103.437 79.9876 103.643 79.6703 103.932C79.5489 104.035 79.4323 104.086 79.3203 104.086C79.2083 104.086 79.0916 104.035 78.9703 103.932L78.7463 103.736C78.6249 103.624 78.5643 103.503 78.5643 103.372C78.5643 103.251 78.6203 103.134 78.7323 103.022C79.1336 102.639 79.5583 102.355 80.0063 102.168C80.4543 101.981 80.9536 101.888 81.5043 101.888ZM80.9863 108.034C81.5463 108.034 82.0176 107.885 82.4003 107.586C82.7923 107.287 82.9883 106.858 82.9883 106.298V105.654L81.7703 105.906C81.0889 106.046 80.5849 106.205 80.2583 106.382C79.9316 106.559 79.7683 106.83 79.7683 107.194C79.7683 107.455 79.8756 107.661 80.0903 107.81C80.3049 107.959 80.6036 108.034 80.9863 108.034ZM89.7798 101.916C90.3678 101.916 90.8905 102.065 91.3478 102.364C91.8145 102.663 92.1785 103.087 92.4398 103.638C92.7011 104.189 92.8318 104.823 92.8318 105.542C92.8318 106.27 92.7011 106.909 92.4398 107.46C92.1785 108.011 91.8145 108.435 91.3478 108.734C90.8811 109.033 90.3585 109.182 89.7798 109.182C88.7438 109.182 87.9831 108.795 87.4978 108.02V108.51C87.4978 108.659 87.4558 108.781 87.3718 108.874C87.2878 108.958 87.1665 109 87.0078 109H86.6018C86.4525 109 86.3311 108.958 86.2378 108.874C86.1538 108.781 86.1118 108.659 86.1118 108.51V99.55C86.1118 99.3913 86.1538 99.27 86.2378 99.186C86.3311 99.102 86.4525 99.06 86.6018 99.06H87.1058C87.2645 99.06 87.3858 99.102 87.4698 99.186C87.5538 99.27 87.5958 99.3913 87.5958 99.55V102.966C88.0905 102.266 88.8185 101.916 89.7798 101.916ZM89.4718 107.894C90.0318 107.894 90.4798 107.684 90.8158 107.264C91.1518 106.835 91.3198 106.261 91.3198 105.542C91.3198 104.833 91.1518 104.263 90.8158 103.834C90.4891 103.405 90.0458 103.19 89.4858 103.19C88.9165 103.19 88.4498 103.405 88.0858 103.834C87.7218 104.254 87.5398 104.823 87.5398 105.542C87.5398 106.279 87.7218 106.858 88.0858 107.278C88.4498 107.689 88.9118 107.894 89.4718 107.894ZM99.2023 107.236C99.3236 107.133 99.4403 107.082 99.5523 107.082C99.6643 107.082 99.7809 107.143 99.9023 107.264L100.098 107.474C100.201 107.595 100.252 107.712 100.252 107.824C100.252 107.945 100.192 108.062 100.07 108.174C99.6409 108.547 99.2116 108.813 98.7823 108.972C98.3623 109.131 97.8956 109.21 97.3823 109.21C96.6636 109.21 96.0383 109.061 95.5063 108.762C94.9836 108.463 94.5776 108.043 94.2883 107.502C94.0083 106.951 93.8682 106.317 93.8682 105.598C93.8682 104.889 94.0036 104.254 94.2743 103.694C94.5543 103.125 94.9463 102.681 95.4503 102.364C95.9636 102.047 96.5609 101.888 97.2423 101.888C98.2596 101.888 99.0436 102.191 99.5943 102.798C100.145 103.395 100.42 104.221 100.42 105.276V105.402C100.411 105.551 100.364 105.668 100.28 105.752C100.196 105.836 100.075 105.878 99.9163 105.878H95.3243C95.3803 106.494 95.5809 106.998 95.9263 107.39C96.2809 107.773 96.7756 107.964 97.4103 107.964C97.7556 107.964 98.0589 107.913 98.3203 107.81C98.5816 107.698 98.8756 107.507 99.2023 107.236ZM97.2143 103.064C96.7009 103.064 96.2856 103.218 95.9683 103.526C95.6603 103.825 95.4596 104.249 95.3663 104.8H98.9643C98.9269 104.259 98.7589 103.834 98.4603 103.526C98.1616 103.218 97.7463 103.064 97.2143 103.064ZM102.326 109C102.176 109 102.055 108.958 101.962 108.874C101.878 108.781 101.836 108.659 101.836 108.51V99.55C101.836 99.3913 101.878 99.27 101.962 99.186C102.055 99.102 102.176 99.06 102.326 99.06H102.83C102.988 99.06 103.11 99.102 103.194 99.186C103.278 99.27 103.32 99.3913 103.32 99.55V108.51C103.32 108.659 103.278 108.781 103.194 108.874C103.11 108.958 102.988 109 102.83 109H102.326Z" fill="#464646"/>
<rect x="70.5" y="117.5" width="202" height="87" rx="3.5" fill="white"/>
<path d="M79.696 146C79.4827 146 79.376 145.893 79.376 145.68V134.96C79.376 134.747 79.4827 134.64 79.696 134.64H80.192C80.4053 134.64 80.512 134.747 80.512 134.96V139.664H87.072V134.96C87.072 134.747 87.1787 134.64 87.392 134.64H87.888C88.1013 134.64 88.208 134.747 88.208 134.96V145.68C88.208 145.893 88.1013 146 87.888 146H87.392C87.1787 146 87.072 145.893 87.072 145.68V140.608H80.512V145.68C80.512 145.893 80.4053 146 80.192 146H79.696ZM91.2901 136.112C91.0768 136.112 90.8955 136.037 90.7461 135.888C90.6075 135.739 90.5381 135.557 90.5381 135.344C90.5381 135.131 90.6075 134.955 90.7461 134.816C90.8955 134.677 91.0768 134.608 91.2901 134.608C91.5141 134.608 91.6955 134.677 91.8341 134.816C91.9835 134.955 92.0581 135.131 92.0581 135.344C92.0581 135.557 91.9835 135.739 91.8341 135.888C91.6955 136.037 91.5141 136.112 91.2901 136.112ZM91.0821 146C90.8688 146 90.7621 145.893 90.7621 145.68V138.432C90.7621 138.219 90.8688 138.112 91.0821 138.112H91.4981C91.7115 138.112 91.8181 138.219 91.8181 138.432V145.68C91.8181 145.893 91.7115 146 91.4981 146H91.0821ZM97.6884 137.92C98.6164 137.92 99.315 138.176 99.7844 138.688C100.264 139.2 100.504 139.84 100.504 140.608V145.68C100.504 145.893 100.398 146 100.184 146H99.7684C99.555 146 99.4484 145.893 99.4484 145.68V140.96C99.4484 140.256 99.2777 139.723 98.9364 139.36C98.595 138.997 98.1044 138.816 97.4644 138.816C97.059 138.816 96.6857 138.917 96.3444 139.12C96.003 139.312 95.731 139.579 95.5284 139.92C95.3257 140.261 95.2244 140.635 95.2244 141.04V145.68C95.2244 145.893 95.1177 146 94.9044 146H94.4884C94.275 146 94.1684 145.893 94.1684 145.68V138.432C94.1684 138.219 94.275 138.112 94.4884 138.112H94.8404C95.0537 138.112 95.1604 138.219 95.1604 138.432V139.2C95.427 138.773 95.779 138.453 96.2164 138.24C96.6537 138.027 97.1444 137.92 97.6884 137.92ZM106.174 145.12C106.206 145.109 106.248 145.104 106.302 145.104C106.366 145.104 106.424 145.125 106.478 145.168C106.531 145.211 106.563 145.269 106.574 145.344L106.622 145.568C106.632 145.589 106.638 145.627 106.638 145.68C106.638 145.829 106.558 145.92 106.398 145.952C106.014 146.069 105.603 146.128 105.166 146.128C104.472 146.128 103.976 145.973 103.678 145.664C103.39 145.344 103.246 144.885 103.246 144.288V138.912H102.062C101.848 138.912 101.742 138.805 101.742 138.592V138.432C101.742 138.219 101.848 138.112 102.062 138.112H103.246V135.68C103.246 135.467 103.352 135.36 103.566 135.36H103.982C104.195 135.36 104.302 135.467 104.302 135.68V138.112H106.222C106.435 138.112 106.542 138.219 106.542 138.432V138.592C106.542 138.805 106.435 138.912 106.222 138.912H104.302V144.16C104.302 144.555 104.376 144.832 104.526 144.992C104.675 145.152 104.931 145.232 105.294 145.232C105.55 145.232 105.843 145.195 106.174 145.12ZM108.897 146.112C108.673 146.112 108.481 146.032 108.321 145.872C108.161 145.712 108.081 145.52 108.081 145.296C108.081 145.072 108.161 144.88 108.321 144.72C108.481 144.56 108.673 144.48 108.897 144.48C109.121 144.48 109.313 144.56 109.473 144.72C109.633 144.88 109.713 145.072 109.713 145.296C109.713 145.52 109.633 145.712 109.473 145.872C109.313 146.032 109.121 146.112 108.897 146.112ZM112.132 146.112C111.908 146.112 111.716 146.032 111.556 145.872C111.396 145.712 111.316 145.52 111.316 145.296C111.316 145.072 111.396 144.88 111.556 144.72C111.716 144.56 111.908 144.48 112.132 144.48C112.356 144.48 112.548 144.56 112.708 144.72C112.868 144.88 112.948 145.072 112.948 145.296C112.948 145.52 112.868 145.712 112.708 145.872C112.548 146.032 112.356 146.112 112.132 146.112ZM115.366 146.112C115.142 146.112 114.95 146.032 114.79 145.872C114.63 145.712 114.55 145.52 114.55 145.296C114.55 145.072 114.63 144.88 114.79 144.72C114.95 144.56 115.142 144.48 115.366 144.48C115.59 144.48 115.782 144.56 115.942 144.72C116.102 144.88 116.182 145.072 116.182 145.296C116.182 145.52 116.102 145.712 115.942 145.872C115.782 146.032 115.59 146.112 115.366 146.112Z" fill="#C3CCD9"/>
<g filter="url(#filter0_d_1715_18304)">
<path d="M269 195L263 201M269 199L267 201" stroke="#767676" stroke-linecap="square"/>
</g>
<rect x="70.5" y="117.5" width="202" height="87" rx="3.5" stroke="#C3CCD9"/>
<path d="M71.272 221C71.112 221 71.032 220.92 71.032 220.76V212.72C71.032 212.56 71.112 212.48 71.272 212.48H71.644C71.804 212.48 71.884 212.56 71.884 212.72V216.248H76.804V212.72C76.804 212.56 76.884 212.48 77.044 212.48H77.416C77.576 212.48 77.656 212.56 77.656 212.72V220.76C77.656 220.92 77.576 221 77.416 221H77.044C76.884 221 76.804 220.92 76.804 220.76V216.956H71.884V220.76C71.884 220.92 71.804 221 71.644 221H71.272ZM83.8796 219.596C83.9356 219.54 83.9956 219.512 84.0596 219.512C84.1156 219.512 84.1676 219.536 84.2156 219.584L84.3716 219.728C84.4276 219.784 84.4556 219.844 84.4556 219.908C84.4556 219.956 84.4316 220.012 84.3836 220.076C83.9916 220.468 83.6116 220.748 83.2436 220.916C82.8756 221.076 82.4636 221.156 82.0076 221.156C81.4316 221.156 80.9316 221.028 80.5076 220.772C80.0836 220.516 79.7556 220.16 79.5236 219.704C79.2916 219.24 79.1756 218.704 79.1756 218.096C79.1756 217.48 79.2876 216.936 79.5116 216.464C79.7436 215.984 80.0676 215.612 80.4836 215.348C80.8996 215.076 81.3796 214.94 81.9236 214.94C82.7316 214.94 83.3676 215.192 83.8316 215.696C84.2956 216.2 84.5276 216.88 84.5276 217.736V217.88C84.5196 217.952 84.4916 218.008 84.4436 218.048C84.4036 218.088 84.3476 218.108 84.2756 218.108H79.9796C80.0036 218.78 80.1796 219.348 80.5076 219.812C80.8436 220.268 81.3436 220.496 82.0076 220.496C82.3676 220.496 82.6836 220.432 82.9556 220.304C83.2356 220.168 83.5436 219.932 83.8796 219.596ZM81.9236 215.6C81.3956 215.6 80.9596 215.764 80.6156 216.092C80.2796 216.412 80.0756 216.884 80.0036 217.508H83.7356C83.7196 216.924 83.5516 216.46 83.2316 216.116C82.9116 215.772 82.4756 215.6 81.9236 215.6ZM86.1986 221C86.0386 221 85.9586 220.92 85.9586 220.76V212.72C85.9586 212.56 86.0386 212.48 86.1986 212.48H86.5106C86.6706 212.48 86.7506 212.56 86.7506 212.72V220.76C86.7506 220.92 86.6706 221 86.5106 221H86.1986ZM91.3684 214.952C91.8644 214.952 92.3084 215.084 92.7004 215.348C93.1004 215.604 93.4124 215.968 93.6364 216.44C93.8604 216.904 93.9724 217.436 93.9724 218.036C93.9724 218.644 93.8604 219.184 93.6364 219.656C93.4124 220.128 93.1044 220.496 92.7124 220.76C92.3204 221.016 91.8724 221.144 91.3684 221.144C90.4404 221.144 89.7604 220.804 89.3284 220.124V222.968C89.3284 223.128 89.2484 223.208 89.0884 223.208H88.7764C88.6164 223.208 88.5364 223.128 88.5364 222.968V215.324C88.5364 215.164 88.6164 215.084 88.7764 215.084H89.0404C89.2004 215.084 89.2804 215.164 89.2804 215.324V216.08C89.4964 215.712 89.7804 215.432 90.1324 215.24C90.4844 215.048 90.8964 214.952 91.3684 214.952ZM91.3084 220.472C91.8684 220.472 92.3164 220.248 92.6524 219.8C92.9884 219.352 93.1564 218.764 93.1564 218.036C93.1564 217.316 92.9884 216.736 92.6524 216.296C92.3164 215.848 91.8684 215.624 91.3084 215.624C90.7084 215.624 90.2204 215.84 89.8444 216.272C89.4764 216.696 89.2924 217.284 89.2924 218.036C89.2924 218.788 89.4804 219.384 89.8564 219.824C90.2324 220.256 90.7164 220.472 91.3084 220.472ZM100.81 220.34C100.834 220.332 100.866 220.328 100.906 220.328C100.954 220.328 100.998 220.344 101.038 220.376C101.078 220.408 101.102 220.452 101.11 220.508L101.146 220.676C101.154 220.692 101.158 220.72 101.158 220.76C101.158 220.872 101.098 220.94 100.978 220.964C100.69 221.052 100.382 221.096 100.054 221.096C99.5338 221.096 99.1618 220.98 98.9378 220.748C98.7218 220.508 98.6138 220.164 98.6138 219.716V215.684H97.7258C97.5658 215.684 97.4858 215.604 97.4858 215.444V215.324C97.4858 215.164 97.5658 215.084 97.7258 215.084H98.6138V213.26C98.6138 213.1 98.6938 213.02 98.8538 213.02H99.1658C99.3258 213.02 99.4058 213.1 99.4058 213.26V215.084H100.846C101.006 215.084 101.086 215.164 101.086 215.324V215.444C101.086 215.604 101.006 215.684 100.846 215.684H99.4058V219.62C99.4058 219.916 99.4618 220.124 99.5738 220.244C99.6858 220.364 99.8778 220.424 100.15 220.424C100.342 220.424 100.562 220.396 100.81 220.34ZM106.38 219.596C106.436 219.54 106.496 219.512 106.56 219.512C106.616 219.512 106.668 219.536 106.716 219.584L106.872 219.728C106.928 219.784 106.956 219.844 106.956 219.908C106.956 219.956 106.932 220.012 106.884 220.076C106.492 220.468 106.112 220.748 105.744 220.916C105.376 221.076 104.964 221.156 104.508 221.156C103.932 221.156 103.432 221.028 103.008 220.772C102.584 220.516 102.256 220.16 102.024 219.704C101.792 219.24 101.676 218.704 101.676 218.096C101.676 217.48 101.788 216.936 102.012 216.464C102.244 215.984 102.568 215.612 102.984 215.348C103.4 215.076 103.88 214.94 104.424 214.94C105.232 214.94 105.868 215.192 106.332 215.696C106.796 216.2 107.028 216.88 107.028 217.736V217.88C107.02 217.952 106.992 218.008 106.944 218.048C106.904 218.088 106.848 218.108 106.776 218.108H102.48C102.504 218.78 102.68 219.348 103.008 219.812C103.344 220.268 103.844 220.496 104.508 220.496C104.868 220.496 105.184 220.432 105.456 220.304C105.736 220.168 106.044 219.932 106.38 219.596ZM104.424 215.6C103.896 215.6 103.46 215.764 103.116 216.092C102.78 216.412 102.576 216.884 102.504 217.508H106.236C106.22 216.924 106.052 216.46 105.732 216.116C105.412 215.772 104.976 215.6 104.424 215.6ZM112.638 220.712C112.67 220.768 112.686 220.816 112.686 220.856C112.686 220.952 112.622 221 112.494 221H112.134C112.014 221 111.918 220.948 111.846 220.844L110.214 218.444L108.594 220.844C108.522 220.948 108.426 221 108.306 221H107.97C107.906 221 107.854 220.988 107.814 220.964C107.782 220.932 107.766 220.896 107.766 220.856C107.766 220.8 107.782 220.752 107.814 220.712L109.758 217.916L107.97 215.372C107.938 215.332 107.922 215.288 107.922 215.24C107.922 215.136 107.99 215.084 108.126 215.084H108.474C108.594 215.084 108.69 215.136 108.762 215.24L110.226 217.388L111.678 215.24C111.75 215.136 111.846 215.084 111.966 215.084H112.29C112.354 215.084 112.402 215.1 112.434 215.132C112.474 215.156 112.494 215.188 112.494 215.228C112.494 215.284 112.478 215.332 112.446 215.372L110.694 217.88L112.638 220.712ZM116.618 220.34C116.642 220.332 116.674 220.328 116.714 220.328C116.762 220.328 116.806 220.344 116.846 220.376C116.886 220.408 116.91 220.452 116.918 220.508L116.954 220.676C116.962 220.692 116.966 220.72 116.966 220.76C116.966 220.872 116.906 220.94 116.786 220.964C116.498 221.052 116.19 221.096 115.862 221.096C115.342 221.096 114.97 220.98 114.746 220.748C114.53 220.508 114.422 220.164 114.422 219.716V215.684H113.534C113.374 215.684 113.294 215.604 113.294 215.444V215.324C113.294 215.164 113.374 215.084 113.534 215.084H114.422V213.26C114.422 213.1 114.502 213.02 114.662 213.02H114.974C115.134 213.02 115.214 213.1 115.214 213.26V215.084H116.654C116.814 215.084 116.894 215.164 116.894 215.324V215.444C116.894 215.604 116.814 215.684 116.654 215.684H115.214V219.62C115.214 219.916 115.27 220.124 115.382 220.244C115.494 220.364 115.686 220.424 115.958 220.424C116.15 220.424 116.37 220.396 116.618 220.34Z" fill="#464646"/>
<defs>
<filter id="filter0_d_1715_18304" x="262.293" y="194.293" width="7.41431" height="8.41406" filterUnits="userSpaceOnUse" color-interpolation-filters="sRGB">
<feFlood flood-opacity="0" result="BackgroundImageFix"/>
<feColorMatrix in="SourceAlpha" type="matrix" values="0 0 0 0 0 0 0 0 0 0 0 0 0 0 0 0 0 0 127 0" result="hardAlpha"/>
<feOffset dy="1"/>
<feColorMatrix type="matrix" values="0 0 0 0 1 0 0 0 0 1 0 0 0 0 1 0 0 0 0.5 0"/>
<feBlend mode="normal" in2="BackgroundImageFix" result="effect1_dropShadow_1715_18304"/>
<feBlend mode="normal" in="SourceGraphic" in2="effect1_dropShadow_1715_18304" result="shape"/>
</filter>
</defs>
</svg>
