<svg width="344" height="364" viewBox="0 0 344 364" fill="none" xmlns="http://www.w3.org/2000/svg">
<rect width="344" height="364" fill="#F5F5F5"/>
<path d="M71.568 54C71.4187 54 71.2973 53.958 71.204 53.874C71.12 53.7807 71.078 53.6593 71.078 53.51V44.55C71.078 44.3913 71.12 44.27 71.204 44.186C71.2973 44.102 71.4187 44.06 71.568 44.06H72.184C72.3427 44.06 72.464 44.102 72.548 44.186C72.632 44.27 72.674 44.3913 72.674 44.55V52.642H76.72C76.8787 52.642 77 52.684 77.084 52.768C77.168 52.852 77.21 52.9733 77.21 53.132V53.51C77.21 53.6593 77.168 53.7807 77.084 53.874C77 53.958 76.8787 54 76.72 54H71.568ZM81.5043 46.888C82.4376 46.888 83.1563 47.1073 83.6603 47.546C84.1643 47.9753 84.4163 48.5493 84.4163 49.268V53.51C84.4163 53.6593 84.3743 53.7807 84.2903 53.874C84.2063 53.958 84.0849 54 83.9263 54H83.5623C83.4129 54 83.2916 53.958 83.1983 53.874C83.1143 53.7807 83.0723 53.6593 83.0723 53.51V53.202C82.8483 53.5287 82.5403 53.7807 82.1483 53.958C81.7563 54.1353 81.2989 54.224 80.7763 54.224C80.0576 54.224 79.4649 54.0653 78.9983 53.748C78.5409 53.4213 78.3123 52.9313 78.3123 52.278C78.3123 51.55 78.5829 51.0133 79.1243 50.668C79.6749 50.3133 80.4356 50.0473 81.4063 49.87L82.9883 49.576V49.324C82.9883 48.9413 82.8529 48.6473 82.5823 48.442C82.3209 48.2273 81.9709 48.12 81.5323 48.12C81.1589 48.12 80.8323 48.1853 80.5523 48.316C80.2816 48.4373 79.9876 48.6427 79.6703 48.932C79.5489 49.0347 79.4323 49.086 79.3203 49.086C79.2083 49.086 79.0916 49.0347 78.9703 48.932L78.7463 48.736C78.6249 48.624 78.5643 48.5027 78.5643 48.372C78.5643 48.2507 78.6203 48.134 78.7323 48.022C79.1336 47.6393 79.5583 47.3547 80.0063 47.168C80.4543 46.9813 80.9536 46.888 81.5043 46.888ZM80.9863 53.034C81.5463 53.034 82.0176 52.8847 82.4003 52.586C82.7923 52.2873 82.9883 51.858 82.9883 51.298V50.654L81.7703 50.906C81.0889 51.046 80.5849 51.2047 80.2583 51.382C79.9316 51.5593 79.7683 51.83 79.7683 52.194C79.7683 52.4553 79.8756 52.6607 80.0903 52.81C80.3049 52.9593 80.6036 53.034 80.9863 53.034ZM89.7798 46.916C90.3678 46.916 90.8905 47.0653 91.3478 47.364C91.8145 47.6627 92.1785 48.0873 92.4398 48.638C92.7011 49.1887 92.8318 49.8233 92.8318 50.542C92.8318 51.27 92.7011 51.9093 92.4398 52.46C92.1785 53.0107 91.8145 53.4353 91.3478 53.734C90.8811 54.0327 90.3585 54.182 89.7798 54.182C88.7438 54.182 87.9831 53.7947 87.4978 53.02V53.51C87.4978 53.6593 87.4558 53.7807 87.3718 53.874C87.2878 53.958 87.1665 54 87.0078 54H86.6018C86.4525 54 86.3311 53.958 86.2378 53.874C86.1538 53.7807 86.1118 53.6593 86.1118 53.51V44.55C86.1118 44.3913 86.1538 44.27 86.2378 44.186C86.3311 44.102 86.4525 44.06 86.6018 44.06H87.1058C87.2645 44.06 87.3858 44.102 87.4698 44.186C87.5538 44.27 87.5958 44.3913 87.5958 44.55V47.966C88.0905 47.266 88.8185 46.916 89.7798 46.916ZM89.4718 52.894C90.0318 52.894 90.4798 52.684 90.8158 52.264C91.1518 51.8347 91.3198 51.2607 91.3198 50.542C91.3198 49.8327 91.1518 49.2633 90.8158 48.834C90.4891 48.4047 90.0458 48.19 89.4858 48.19C88.9165 48.19 88.4498 48.4047 88.0858 48.834C87.7218 49.254 87.5398 49.8233 87.5398 50.542C87.5398 51.2793 87.7218 51.858 88.0858 52.278C88.4498 52.6887 88.9118 52.894 89.4718 52.894ZM99.2023 52.236C99.3236 52.1333 99.4403 52.082 99.5523 52.082C99.6643 52.082 99.7809 52.1427 99.9023 52.264L100.098 52.474C100.201 52.5953 100.252 52.712 100.252 52.824C100.252 52.9453 100.192 53.062 100.07 53.174C99.6409 53.5473 99.2116 53.8133 98.7823 53.972C98.3623 54.1307 97.8956 54.21 97.3823 54.21C96.6636 54.21 96.0383 54.0607 95.5063 53.762C94.9836 53.4633 94.5776 53.0433 94.2883 52.502C94.0083 51.9513 93.8682 51.3167 93.8682 50.598C93.8682 49.8887 94.0036 49.254 94.2743 48.694C94.5543 48.1247 94.9463 47.6813 95.4503 47.364C95.9636 47.0467 96.5609 46.888 97.2423 46.888C98.2596 46.888 99.0436 47.1913 99.5943 47.798C100.145 48.3953 100.42 49.2213 100.42 50.276V50.402C100.411 50.5513 100.364 50.668 100.28 50.752C100.196 50.836 100.075 50.878 99.9163 50.878H95.3243C95.3803 51.494 95.5809 51.998 95.9263 52.39C96.2809 52.7727 96.7756 52.964 97.4103 52.964C97.7556 52.964 98.0589 52.9127 98.3203 52.81C98.5816 52.698 98.8756 52.5067 99.2023 52.236ZM97.2143 48.064C96.7009 48.064 96.2856 48.218 95.9683 48.526C95.6603 48.8247 95.4596 49.2493 95.3663 49.8H98.9643C98.9269 49.2587 98.7589 48.834 98.4603 48.526C98.1616 48.218 97.7463 48.064 97.2143 48.064ZM102.326 54C102.176 54 102.055 53.958 101.962 53.874C101.878 53.7807 101.836 53.6593 101.836 53.51V44.55C101.836 44.3913 101.878 44.27 101.962 44.186C102.055 44.102 102.176 44.06 102.326 44.06H102.83C102.988 44.06 103.11 44.102 103.194 44.186C103.278 44.27 103.32 44.3913 103.32 44.55V53.51C103.32 53.6593 103.278 53.7807 103.194 53.874C103.11 53.958 102.988 54 102.83 54H102.326Z" fill="#464646"/>
<rect x="70.5" y="62.5" width="202" height="87" rx="3.5" fill="white"/>
<path d="M79.696 91C79.4827 91 79.376 90.8933 79.376 90.68V79.96C79.376 79.7467 79.4827 79.64 79.696 79.64H80.192C80.4053 79.64 80.512 79.7467 80.512 79.96V84.664H87.072V79.96C87.072 79.7467 87.1787 79.64 87.392 79.64H87.888C88.1013 79.64 88.208 79.7467 88.208 79.96V90.68C88.208 90.8933 88.1013 91 87.888 91H87.392C87.1787 91 87.072 90.8933 87.072 90.68V85.608H80.512V90.68C80.512 90.8933 80.4053 91 80.192 91H79.696ZM91.2901 81.112C91.0768 81.112 90.8955 81.0373 90.7461 80.888C90.6075 80.7387 90.5381 80.5573 90.5381 80.344C90.5381 80.1307 90.6075 79.9547 90.7461 79.816C90.8955 79.6773 91.0768 79.608 91.2901 79.608C91.5141 79.608 91.6955 79.6773 91.8341 79.816C91.9835 79.9547 92.0581 80.1307 92.0581 80.344C92.0581 80.5573 91.9835 80.7387 91.8341 80.888C91.6955 81.0373 91.5141 81.112 91.2901 81.112ZM91.0821 91C90.8688 91 90.7621 90.8933 90.7621 90.68V83.432C90.7621 83.2187 90.8688 83.112 91.0821 83.112H91.4981C91.7115 83.112 91.8181 83.2187 91.8181 83.432V90.68C91.8181 90.8933 91.7115 91 91.4981 91H91.0821ZM97.6884 82.92C98.6164 82.92 99.315 83.176 99.7844 83.688C100.264 84.2 100.504 84.84 100.504 85.608V90.68C100.504 90.8933 100.398 91 100.184 91H99.7684C99.555 91 99.4484 90.8933 99.4484 90.68V85.96C99.4484 85.256 99.2777 84.7227 98.9364 84.36C98.595 83.9973 98.1044 83.816 97.4644 83.816C97.059 83.816 96.6857 83.9173 96.3444 84.12C96.003 84.312 95.731 84.5787 95.5284 84.92C95.3257 85.2613 95.2244 85.6347 95.2244 86.04V90.68C95.2244 90.8933 95.1177 91 94.9044 91H94.4884C94.275 91 94.1684 90.8933 94.1684 90.68V83.432C94.1684 83.2187 94.275 83.112 94.4884 83.112H94.8404C95.0537 83.112 95.1604 83.2187 95.1604 83.432V84.2C95.427 83.7733 95.779 83.4533 96.2164 83.24C96.6537 83.0267 97.1444 82.92 97.6884 82.92ZM106.174 90.12C106.206 90.1093 106.248 90.104 106.302 90.104C106.366 90.104 106.424 90.1253 106.478 90.168C106.531 90.2107 106.563 90.2693 106.574 90.344L106.622 90.568C106.632 90.5893 106.638 90.6267 106.638 90.68C106.638 90.8293 106.558 90.92 106.398 90.952C106.014 91.0693 105.603 91.128 105.166 91.128C104.472 91.128 103.976 90.9733 103.678 90.664C103.39 90.344 103.246 89.8853 103.246 89.288V83.912H102.062C101.848 83.912 101.742 83.8053 101.742 83.592V83.432C101.742 83.2187 101.848 83.112 102.062 83.112H103.246V80.68C103.246 80.4667 103.352 80.36 103.566 80.36H103.982C104.195 80.36 104.302 80.4667 104.302 80.68V83.112H106.222C106.435 83.112 106.542 83.2187 106.542 83.432V83.592C106.542 83.8053 106.435 83.912 106.222 83.912H104.302V89.16C104.302 89.5547 104.376 89.832 104.526 89.992C104.675 90.152 104.931 90.232 105.294 90.232C105.55 90.232 105.843 90.1947 106.174 90.12ZM108.897 91.112C108.673 91.112 108.481 91.032 108.321 90.872C108.161 90.712 108.081 90.52 108.081 90.296C108.081 90.072 108.161 89.88 108.321 89.72C108.481 89.56 108.673 89.48 108.897 89.48C109.121 89.48 109.313 89.56 109.473 89.72C109.633 89.88 109.713 90.072 109.713 90.296C109.713 90.52 109.633 90.712 109.473 90.872C109.313 91.032 109.121 91.112 108.897 91.112ZM112.132 91.112C111.908 91.112 111.716 91.032 111.556 90.872C111.396 90.712 111.316 90.52 111.316 90.296C111.316 90.072 111.396 89.88 111.556 89.72C111.716 89.56 111.908 89.48 112.132 89.48C112.356 89.48 112.548 89.56 112.708 89.72C112.868 89.88 112.948 90.072 112.948 90.296C112.948 90.52 112.868 90.712 112.708 90.872C112.548 91.032 112.356 91.112 112.132 91.112Z" fill="#C3CCD9"/>
<g filter="url(#filter0_d_1715_18635)">
<path d="M269 140L263 146M269 144L267 146" stroke="#767676" stroke-linecap="square"/>
</g>
<rect x="70.5" y="62.5" width="202" height="87" rx="3.5" stroke="#C3CCD9"/>
<path d="M71.356 166C71.196 166 71.116 165.92 71.116 165.76V157.72C71.116 157.56 71.196 157.48 71.356 157.48H71.728C71.888 157.48 71.968 157.56 71.968 157.72V165.76C71.968 165.92 71.888 166 71.728 166H71.356ZM79.0157 159.94C79.7437 159.94 80.3117 160.116 80.7197 160.468C81.1277 160.812 81.3317 161.268 81.3317 161.836V165.76C81.3317 165.92 81.2517 166 81.0917 166H80.8517C80.6917 166 80.6117 165.92 80.6117 165.76V165.22C80.4117 165.54 80.1277 165.78 79.7597 165.94C79.3997 166.1 78.9957 166.18 78.5477 166.18C77.9237 166.18 77.4157 166.048 77.0237 165.784C76.6317 165.52 76.4357 165.112 76.4357 164.56C76.4357 164.12 76.5597 163.768 76.8077 163.504C77.0557 163.232 77.3797 163.028 77.7797 162.892C78.1797 162.748 78.6797 162.62 79.2797 162.508L80.5757 162.28V161.896C80.5757 161.488 80.4357 161.172 80.1557 160.948C79.8757 160.716 79.5077 160.6 79.0517 160.6C78.7077 160.6 78.3957 160.664 78.1157 160.792C77.8357 160.92 77.5357 161.14 77.2157 161.452C77.1597 161.508 77.0997 161.536 77.0357 161.536C76.9797 161.536 76.9277 161.512 76.8797 161.464L76.7237 161.32C76.6677 161.264 76.6397 161.204 76.6397 161.14C76.6397 161.068 76.6677 161.004 76.7237 160.948C77.0597 160.596 77.4117 160.34 77.7797 160.18C78.1557 160.02 78.5677 159.94 79.0157 159.94ZM78.5837 165.52C79.1597 165.52 79.6357 165.368 80.0117 165.064C80.3877 164.76 80.5757 164.372 80.5757 163.9V162.892L79.4597 163.108C78.9397 163.212 78.5277 163.312 78.2237 163.408C77.9197 163.504 77.6757 163.644 77.4917 163.828C77.3077 164.012 77.2157 164.252 77.2157 164.548C77.2157 164.852 77.3357 165.092 77.5757 165.268C77.8237 165.436 78.1597 165.52 78.5837 165.52ZM89.0992 159.94C89.7392 159.94 90.2272 160.124 90.5632 160.492C90.9072 160.852 91.0792 161.316 91.0792 161.884V165.76C91.0792 165.92 90.9992 166 90.8392 166H90.5272C90.3672 166 90.2872 165.92 90.2872 165.76V162.1C90.2872 161.62 90.1752 161.252 89.9512 160.996C89.7352 160.74 89.4112 160.612 88.9792 160.612C88.5232 160.612 88.1592 160.764 87.8872 161.068C87.6152 161.372 87.4792 161.764 87.4792 162.244V165.76C87.4792 165.92 87.3992 166 87.2392 166H86.9272C86.7672 166 86.6872 165.92 86.6872 165.76V162.1C86.6872 161.62 86.5752 161.252 86.3512 160.996C86.1352 160.74 85.8072 160.612 85.3672 160.612C84.9592 160.612 84.6192 160.74 84.3472 160.996C84.0832 161.252 83.9272 161.588 83.8792 162.004V165.76C83.8792 165.92 83.7992 166 83.6392 166H83.3272C83.1672 166 83.0872 165.92 83.0872 165.76V160.324C83.0872 160.164 83.1672 160.084 83.3272 160.084H83.5912C83.7512 160.084 83.8312 160.164 83.8312 160.324V160.816C84.1912 160.232 84.7632 159.94 85.5472 159.94C85.9552 159.94 86.3032 160.032 86.5912 160.216C86.8872 160.392 87.1072 160.632 87.2512 160.936C87.6752 160.272 88.2912 159.94 89.0992 159.94ZM97.8711 159.94C98.5991 159.94 99.1671 160.116 99.5751 160.468C99.9831 160.812 100.187 161.268 100.187 161.836V165.76C100.187 165.92 100.107 166 99.9471 166H99.7071C99.5471 166 99.4671 165.92 99.4671 165.76V165.22C99.2671 165.54 98.9831 165.78 98.6151 165.94C98.2551 166.1 97.8511 166.18 97.4031 166.18C96.7791 166.18 96.2711 166.048 95.8791 165.784C95.4871 165.52 95.2911 165.112 95.2911 164.56C95.2911 164.12 95.4151 163.768 95.6631 163.504C95.9111 163.232 96.2351 163.028 96.6351 162.892C97.0351 162.748 97.5351 162.62 98.1351 162.508L99.4311 162.28V161.896C99.4311 161.488 99.2911 161.172 99.0111 160.948C98.7311 160.716 98.3631 160.6 97.9071 160.6C97.5631 160.6 97.2511 160.664 96.9711 160.792C96.6911 160.92 96.3911 161.14 96.0711 161.452C96.0151 161.508 95.9551 161.536 95.8911 161.536C95.8351 161.536 95.7831 161.512 95.7351 161.464L95.5791 161.32C95.5231 161.264 95.4951 161.204 95.4951 161.14C95.4951 161.068 95.5231 161.004 95.5791 160.948C95.9151 160.596 96.2671 160.34 96.6351 160.18C97.0111 160.02 97.4231 159.94 97.8711 159.94ZM97.4391 165.52C98.0151 165.52 98.4911 165.368 98.8671 165.064C99.2431 164.76 99.4311 164.372 99.4311 163.9V162.892L98.3151 163.108C97.7951 163.212 97.3831 163.312 97.0791 163.408C96.7751 163.504 96.5311 163.644 96.3471 163.828C96.1631 164.012 96.0711 164.252 96.0711 164.548C96.0711 164.852 96.1911 165.092 96.4311 165.268C96.6791 165.436 97.0151 165.52 97.4391 165.52ZM107.348 159.94C108.036 159.94 108.56 160.136 108.92 160.528C109.28 160.912 109.46 161.388 109.46 161.956V165.76C109.46 165.92 109.38 166 109.22 166H108.908C108.748 166 108.668 165.92 108.668 165.76V162.22C108.668 161.692 108.54 161.292 108.284 161.02C108.028 160.748 107.66 160.612 107.18 160.612C106.876 160.612 106.596 160.688 106.34 160.84C106.084 160.984 105.88 161.184 105.728 161.44C105.576 161.696 105.5 161.976 105.5 162.28V165.76C105.5 165.92 105.42 166 105.26 166H104.948C104.788 166 104.708 165.92 104.708 165.76V157.72C104.708 157.56 104.788 157.48 104.948 157.48H105.26C105.42 157.48 105.5 157.56 105.5 157.72V160.852C105.692 160.548 105.948 160.32 106.268 160.168C106.596 160.016 106.956 159.94 107.348 159.94ZM115.52 164.596C115.576 164.54 115.636 164.512 115.7 164.512C115.756 164.512 115.808 164.536 115.856 164.584L116.012 164.728C116.068 164.784 116.096 164.844 116.096 164.908C116.096 164.956 116.072 165.012 116.024 165.076C115.632 165.468 115.252 165.748 114.884 165.916C114.516 166.076 114.104 166.156 113.648 166.156C113.072 166.156 112.572 166.028 112.148 165.772C111.724 165.516 111.396 165.16 111.164 164.704C110.932 164.24 110.816 163.704 110.816 163.096C110.816 162.48 110.928 161.936 111.152 161.464C111.384 160.984 111.708 160.612 112.124 160.348C112.54 160.076 113.02 159.94 113.564 159.94C114.372 159.94 115.008 160.192 115.472 160.696C115.936 161.2 116.168 161.88 116.168 162.736V162.88C116.16 162.952 116.132 163.008 116.084 163.048C116.044 163.088 115.988 163.108 115.916 163.108H111.62C111.644 163.78 111.82 164.348 112.148 164.812C112.484 165.268 112.984 165.496 113.648 165.496C114.008 165.496 114.324 165.432 114.596 165.304C114.876 165.168 115.184 164.932 115.52 164.596ZM113.564 160.6C113.036 160.6 112.6 160.764 112.256 161.092C111.92 161.412 111.716 161.884 111.644 162.508H115.376C115.36 161.924 115.192 161.46 114.872 161.116C114.552 160.772 114.116 160.6 113.564 160.6ZM117.839 166C117.679 166 117.599 165.92 117.599 165.76V157.72C117.599 157.56 117.679 157.48 117.839 157.48H118.151C118.311 157.48 118.391 157.56 118.391 157.72V165.76C118.391 165.92 118.311 166 118.151 166H117.839ZM123.009 159.952C123.505 159.952 123.949 160.084 124.341 160.348C124.741 160.604 125.053 160.968 125.277 161.44C125.501 161.904 125.613 162.436 125.613 163.036C125.613 163.644 125.501 164.184 125.277 164.656C125.053 165.128 124.745 165.496 124.353 165.76C123.961 166.016 123.513 166.144 123.009 166.144C122.081 166.144 121.401 165.804 120.969 165.124V167.968C120.969 168.128 120.889 168.208 120.729 168.208H120.417C120.257 168.208 120.177 168.128 120.177 167.968V160.324C120.177 160.164 120.257 160.084 120.417 160.084H120.681C120.841 160.084 120.921 160.164 120.921 160.324V161.08C121.137 160.712 121.421 160.432 121.773 160.24C122.125 160.048 122.537 159.952 123.009 159.952ZM122.949 165.472C123.509 165.472 123.957 165.248 124.293 164.8C124.629 164.352 124.797 163.764 124.797 163.036C124.797 162.316 124.629 161.736 124.293 161.296C123.957 160.848 123.509 160.624 122.949 160.624C122.349 160.624 121.861 160.84 121.485 161.272C121.117 161.696 120.933 162.284 120.933 163.036C120.933 163.788 121.121 164.384 121.497 164.824C121.873 165.256 122.357 165.472 122.949 165.472ZM132.45 165.34C132.474 165.332 132.506 165.328 132.546 165.328C132.594 165.328 132.638 165.344 132.678 165.376C132.718 165.408 132.742 165.452 132.75 165.508L132.786 165.676C132.794 165.692 132.798 165.72 132.798 165.76C132.798 165.872 132.738 165.94 132.618 165.964C132.33 166.052 132.022 166.096 131.694 166.096C131.174 166.096 130.802 165.98 130.578 165.748C130.362 165.508 130.254 165.164 130.254 164.716V160.684H129.366C129.206 160.684 129.126 160.604 129.126 160.444V160.324C129.126 160.164 129.206 160.084 129.366 160.084H130.254V158.26C130.254 158.1 130.334 158.02 130.494 158.02H130.806C130.966 158.02 131.046 158.1 131.046 158.26V160.084H132.486C132.646 160.084 132.726 160.164 132.726 160.324V160.444C132.726 160.604 132.646 160.684 132.486 160.684H131.046V164.62C131.046 164.916 131.102 165.124 131.214 165.244C131.326 165.364 131.518 165.424 131.79 165.424C131.982 165.424 132.202 165.396 132.45 165.34ZM138.02 164.596C138.076 164.54 138.136 164.512 138.2 164.512C138.256 164.512 138.308 164.536 138.356 164.584L138.512 164.728C138.568 164.784 138.596 164.844 138.596 164.908C138.596 164.956 138.572 165.012 138.524 165.076C138.132 165.468 137.752 165.748 137.384 165.916C137.016 166.076 136.604 166.156 136.148 166.156C135.572 166.156 135.072 166.028 134.648 165.772C134.224 165.516 133.896 165.16 133.664 164.704C133.432 164.24 133.316 163.704 133.316 163.096C133.316 162.48 133.428 161.936 133.652 161.464C133.884 160.984 134.208 160.612 134.624 160.348C135.04 160.076 135.52 159.94 136.064 159.94C136.872 159.94 137.508 160.192 137.972 160.696C138.436 161.2 138.668 161.88 138.668 162.736V162.88C138.66 162.952 138.632 163.008 138.584 163.048C138.544 163.088 138.488 163.108 138.416 163.108H134.12C134.144 163.78 134.32 164.348 134.648 164.812C134.984 165.268 135.484 165.496 136.148 165.496C136.508 165.496 136.824 165.432 137.096 165.304C137.376 165.168 137.684 164.932 138.02 164.596ZM136.064 160.6C135.536 160.6 135.1 160.764 134.756 161.092C134.42 161.412 134.216 161.884 134.144 162.508H137.876C137.86 161.924 137.692 161.46 137.372 161.116C137.052 160.772 136.616 160.6 136.064 160.6ZM144.279 165.712C144.311 165.768 144.327 165.816 144.327 165.856C144.327 165.952 144.263 166 144.135 166H143.775C143.655 166 143.559 165.948 143.487 165.844L141.855 163.444L140.235 165.844C140.163 165.948 140.067 166 139.947 166H139.611C139.547 166 139.495 165.988 139.455 165.964C139.423 165.932 139.407 165.896 139.407 165.856C139.407 165.8 139.423 165.752 139.455 165.712L141.399 162.916L139.611 160.372C139.579 160.332 139.563 160.288 139.563 160.24C139.563 160.136 139.631 160.084 139.767 160.084H140.115C140.235 160.084 140.331 160.136 140.403 160.24L141.867 162.388L143.319 160.24C143.391 160.136 143.487 160.084 143.607 160.084H143.931C143.995 160.084 144.043 160.1 144.075 160.132C144.115 160.156 144.135 160.188 144.135 160.228C144.135 160.284 144.119 160.332 144.087 160.372L142.335 162.88L144.279 165.712ZM148.259 165.34C148.283 165.332 148.315 165.328 148.355 165.328C148.403 165.328 148.447 165.344 148.487 165.376C148.527 165.408 148.551 165.452 148.559 165.508L148.595 165.676C148.603 165.692 148.607 165.72 148.607 165.76C148.607 165.872 148.547 165.94 148.427 165.964C148.139 166.052 147.831 166.096 147.503 166.096C146.983 166.096 146.611 165.98 146.387 165.748C146.171 165.508 146.063 165.164 146.063 164.716V160.684H145.175C145.015 160.684 144.935 160.604 144.935 160.444V160.324C144.935 160.164 145.015 160.084 145.175 160.084H146.063V158.26C146.063 158.1 146.143 158.02 146.303 158.02H146.615C146.775 158.02 146.855 158.1 146.855 158.26V160.084H148.295C148.455 160.084 148.535 160.164 148.535 160.324V160.444C148.535 160.604 148.455 160.684 148.295 160.684H146.855V164.62C146.855 164.916 146.911 165.124 147.023 165.244C147.135 165.364 147.327 165.424 147.599 165.424C147.791 165.424 148.011 165.396 148.259 165.34Z" fill="#464646"/>
<path d="M71.568 208C71.4187 208 71.2973 207.958 71.204 207.874C71.12 207.781 71.078 207.659 71.078 207.51V198.55C71.078 198.391 71.12 198.27 71.204 198.186C71.2973 198.102 71.4187 198.06 71.568 198.06H72.184C72.3427 198.06 72.464 198.102 72.548 198.186C72.632 198.27 72.674 198.391 72.674 198.55V206.642H76.72C76.8787 206.642 77 206.684 77.084 206.768C77.168 206.852 77.21 206.973 77.21 207.132V207.51C77.21 207.659 77.168 207.781 77.084 207.874C77 207.958 76.8787 208 76.72 208H71.568ZM81.5043 200.888C82.4376 200.888 83.1563 201.107 83.6603 201.546C84.1643 201.975 84.4163 202.549 84.4163 203.268V207.51C84.4163 207.659 84.3743 207.781 84.2903 207.874C84.2063 207.958 84.0849 208 83.9263 208H83.5623C83.4129 208 83.2916 207.958 83.1983 207.874C83.1143 207.781 83.0723 207.659 83.0723 207.51V207.202C82.8483 207.529 82.5403 207.781 82.1483 207.958C81.7563 208.135 81.2989 208.224 80.7763 208.224C80.0576 208.224 79.4649 208.065 78.9983 207.748C78.5409 207.421 78.3123 206.931 78.3123 206.278C78.3123 205.55 78.5829 205.013 79.1243 204.668C79.6749 204.313 80.4356 204.047 81.4063 203.87L82.9883 203.576V203.324C82.9883 202.941 82.8529 202.647 82.5823 202.442C82.3209 202.227 81.9709 202.12 81.5323 202.12C81.1589 202.12 80.8323 202.185 80.5523 202.316C80.2816 202.437 79.9876 202.643 79.6703 202.932C79.5489 203.035 79.4323 203.086 79.3203 203.086C79.2083 203.086 79.0916 203.035 78.9703 202.932L78.7463 202.736C78.6249 202.624 78.5643 202.503 78.5643 202.372C78.5643 202.251 78.6203 202.134 78.7323 202.022C79.1336 201.639 79.5583 201.355 80.0063 201.168C80.4543 200.981 80.9536 200.888 81.5043 200.888ZM80.9863 207.034C81.5463 207.034 82.0176 206.885 82.4003 206.586C82.7923 206.287 82.9883 205.858 82.9883 205.298V204.654L81.7703 204.906C81.0889 205.046 80.5849 205.205 80.2583 205.382C79.9316 205.559 79.7683 205.83 79.7683 206.194C79.7683 206.455 79.8756 206.661 80.0903 206.81C80.3049 206.959 80.6036 207.034 80.9863 207.034ZM89.7798 200.916C90.3678 200.916 90.8905 201.065 91.3478 201.364C91.8145 201.663 92.1785 202.087 92.4398 202.638C92.7011 203.189 92.8318 203.823 92.8318 204.542C92.8318 205.27 92.7011 205.909 92.4398 206.46C92.1785 207.011 91.8145 207.435 91.3478 207.734C90.8811 208.033 90.3585 208.182 89.7798 208.182C88.7438 208.182 87.9831 207.795 87.4978 207.02V207.51C87.4978 207.659 87.4558 207.781 87.3718 207.874C87.2878 207.958 87.1665 208 87.0078 208H86.6018C86.4525 208 86.3311 207.958 86.2378 207.874C86.1538 207.781 86.1118 207.659 86.1118 207.51V198.55C86.1118 198.391 86.1538 198.27 86.2378 198.186C86.3311 198.102 86.4525 198.06 86.6018 198.06H87.1058C87.2645 198.06 87.3858 198.102 87.4698 198.186C87.5538 198.27 87.5958 198.391 87.5958 198.55V201.966C88.0905 201.266 88.8185 200.916 89.7798 200.916ZM89.4718 206.894C90.0318 206.894 90.4798 206.684 90.8158 206.264C91.1518 205.835 91.3198 205.261 91.3198 204.542C91.3198 203.833 91.1518 203.263 90.8158 202.834C90.4891 202.405 90.0458 202.19 89.4858 202.19C88.9165 202.19 88.4498 202.405 88.0858 202.834C87.7218 203.254 87.5398 203.823 87.5398 204.542C87.5398 205.279 87.7218 205.858 88.0858 206.278C88.4498 206.689 88.9118 206.894 89.4718 206.894ZM99.2023 206.236C99.3236 206.133 99.4403 206.082 99.5523 206.082C99.6643 206.082 99.7809 206.143 99.9023 206.264L100.098 206.474C100.201 206.595 100.252 206.712 100.252 206.824C100.252 206.945 100.192 207.062 100.07 207.174C99.6409 207.547 99.2116 207.813 98.7823 207.972C98.3623 208.131 97.8956 208.21 97.3823 208.21C96.6636 208.21 96.0383 208.061 95.5063 207.762C94.9836 207.463 94.5776 207.043 94.2883 206.502C94.0083 205.951 93.8682 205.317 93.8682 204.598C93.8682 203.889 94.0036 203.254 94.2743 202.694C94.5543 202.125 94.9463 201.681 95.4503 201.364C95.9636 201.047 96.5609 200.888 97.2423 200.888C98.2596 200.888 99.0436 201.191 99.5943 201.798C100.145 202.395 100.42 203.221 100.42 204.276V204.402C100.411 204.551 100.364 204.668 100.28 204.752C100.196 204.836 100.075 204.878 99.9163 204.878H95.3243C95.3803 205.494 95.5809 205.998 95.9263 206.39C96.2809 206.773 96.7756 206.964 97.4103 206.964C97.7556 206.964 98.0589 206.913 98.3203 206.81C98.5816 206.698 98.8756 206.507 99.2023 206.236ZM97.2143 202.064C96.7009 202.064 96.2856 202.218 95.9683 202.526C95.6603 202.825 95.4596 203.249 95.3663 203.8H98.9643C98.9269 203.259 98.7589 202.834 98.4603 202.526C98.1616 202.218 97.7463 202.064 97.2143 202.064ZM102.326 208C102.176 208 102.055 207.958 101.962 207.874C101.878 207.781 101.836 207.659 101.836 207.51V198.55C101.836 198.391 101.878 198.27 101.962 198.186C102.055 198.102 102.176 198.06 102.326 198.06H102.83C102.988 198.06 103.11 198.102 103.194 198.186C103.278 198.27 103.32 198.391 103.32 198.55V207.51C103.32 207.659 103.278 207.781 103.194 207.874C103.11 207.958 102.988 208 102.83 208H102.326Z" fill="#D91F0A"/>
<rect x="70.5" y="216.5" width="202" height="87" rx="3.5" fill="white"/>
<path d="M79.808 245C79.5947 245 79.488 244.893 79.488 244.68V233.96C79.488 233.747 79.5947 233.64 79.808 233.64H80.304C80.5173 233.64 80.624 233.747 80.624 233.96V244.68C80.624 244.893 80.5173 245 80.304 245H79.808ZM90.0209 236.92C90.9915 236.92 91.7489 237.155 92.2929 237.624C92.8369 238.083 93.1089 238.691 93.1089 239.448V244.68C93.1089 244.893 93.0022 245 92.7889 245H92.4689C92.2555 245 92.1489 244.893 92.1489 244.68V243.96C91.8822 244.387 91.5035 244.707 91.0129 244.92C90.5329 245.133 89.9942 245.24 89.3969 245.24C88.5649 245.24 87.8875 245.064 87.3649 244.712C86.8422 244.36 86.5809 243.816 86.5809 243.08C86.5809 242.493 86.7462 242.024 87.0769 241.672C87.4075 241.309 87.8395 241.037 88.3729 240.856C88.9062 240.664 89.5729 240.493 90.3729 240.344L92.1009 240.04V239.528C92.1009 238.984 91.9142 238.563 91.5409 238.264C91.1675 237.955 90.6769 237.8 90.0689 237.8C89.6102 237.8 89.1942 237.885 88.8209 238.056C88.4475 238.227 88.0475 238.52 87.6209 238.936C87.5462 239.011 87.4662 239.048 87.3809 239.048C87.3062 239.048 87.2369 239.016 87.1729 238.952L86.9649 238.76C86.8902 238.685 86.8529 238.605 86.8529 238.52C86.8529 238.424 86.8902 238.339 86.9649 238.264C87.4129 237.795 87.8822 237.453 88.3729 237.24C88.8742 237.027 89.4235 236.92 90.0209 236.92ZM89.4449 244.36C90.2129 244.36 90.8475 244.157 91.3489 243.752C91.8502 243.347 92.1009 242.829 92.1009 242.2V240.856L90.6129 241.144C89.9195 241.283 89.3702 241.416 88.9649 241.544C88.5595 241.672 88.2342 241.859 87.9889 242.104C87.7435 242.349 87.6209 242.669 87.6209 243.064C87.6209 243.469 87.7809 243.789 88.1009 244.024C88.4315 244.248 88.8795 244.36 89.4449 244.36ZM103.466 236.92C104.319 236.92 104.97 237.165 105.418 237.656C105.876 238.136 106.106 238.755 106.106 239.512V244.68C106.106 244.893 105.999 245 105.786 245H105.37C105.156 245 105.05 244.893 105.05 244.68V239.8C105.05 239.16 104.9 238.669 104.602 238.328C104.314 237.987 103.882 237.816 103.306 237.816C102.698 237.816 102.212 238.019 101.85 238.424C101.487 238.829 101.306 239.352 101.306 239.992V244.68C101.306 244.893 101.199 245 100.986 245H100.57C100.356 245 100.25 244.893 100.25 244.68V239.8C100.25 239.16 100.1 238.669 99.8016 238.328C99.5136 237.987 99.0763 237.816 98.4896 237.816C97.9456 237.816 97.4923 237.987 97.1296 238.328C96.7776 238.669 96.5696 239.117 96.5056 239.672V244.68C96.5056 244.893 96.399 245 96.1856 245H95.7696C95.5563 245 95.4496 244.893 95.4496 244.68V237.432C95.4496 237.219 95.5563 237.112 95.7696 237.112H96.1216C96.335 237.112 96.4416 237.219 96.4416 237.432V238.088C96.9216 237.309 97.6843 236.92 98.7296 236.92C99.2736 236.92 99.7376 237.043 100.122 237.288C100.516 237.523 100.81 237.843 101.002 238.248C101.567 237.363 102.388 236.92 103.466 236.92ZM115.161 236.92C116.132 236.92 116.89 237.155 117.434 237.624C117.978 238.083 118.25 238.691 118.25 239.448V244.68C118.25 244.893 118.143 245 117.93 245H117.61C117.396 245 117.29 244.893 117.29 244.68V243.96C117.023 244.387 116.644 244.707 116.154 244.92C115.674 245.133 115.135 245.24 114.538 245.24C113.706 245.24 113.028 245.064 112.506 244.712C111.983 244.36 111.722 243.816 111.722 243.08C111.722 242.493 111.887 242.024 112.218 241.672C112.548 241.309 112.98 241.037 113.514 240.856C114.047 240.664 114.714 240.493 115.514 240.344L117.242 240.04V239.528C117.242 238.984 117.055 238.563 116.682 238.264C116.308 237.955 115.818 237.8 115.21 237.8C114.751 237.8 114.335 237.885 113.962 238.056C113.588 238.227 113.188 238.52 112.762 238.936C112.687 239.011 112.607 239.048 112.522 239.048C112.447 239.048 112.378 239.016 112.314 238.952L112.106 238.76C112.031 238.685 111.993 238.605 111.993 238.52C111.993 238.424 112.031 238.339 112.106 238.264C112.554 237.795 113.023 237.453 113.514 237.24C114.015 237.027 114.564 236.92 115.161 236.92ZM114.586 244.36C115.354 244.36 115.988 244.157 116.49 243.752C116.991 243.347 117.242 242.829 117.242 242.2V240.856L115.754 241.144C115.06 241.283 114.511 241.416 114.106 241.544C113.7 241.672 113.375 241.859 113.13 242.104C112.884 242.349 112.762 242.669 112.762 243.064C112.762 243.469 112.922 243.789 113.242 244.024C113.572 244.248 114.02 244.36 114.586 244.36ZM127.83 244.12C127.862 244.109 127.904 244.104 127.958 244.104C128.022 244.104 128.08 244.125 128.134 244.168C128.187 244.211 128.219 244.269 128.23 244.344L128.278 244.568C128.288 244.589 128.294 244.627 128.294 244.68C128.294 244.829 128.214 244.92 128.054 244.952C127.67 245.069 127.259 245.128 126.822 245.128C126.128 245.128 125.632 244.973 125.334 244.664C125.046 244.344 124.902 243.885 124.902 243.288V237.912H123.718C123.504 237.912 123.398 237.805 123.398 237.592V237.432C123.398 237.219 123.504 237.112 123.718 237.112H124.902V234.68C124.902 234.467 125.008 234.36 125.222 234.36H125.638C125.851 234.36 125.958 234.467 125.958 234.68V237.112H127.878C128.091 237.112 128.198 237.219 128.198 237.432V237.592C128.198 237.805 128.091 237.912 127.878 237.912H125.958V243.16C125.958 243.555 126.032 243.832 126.182 243.992C126.331 244.152 126.587 244.232 126.95 244.232C127.206 244.232 127.499 244.195 127.83 244.12ZM135.256 243.128C135.331 243.053 135.411 243.016 135.496 243.016C135.571 243.016 135.64 243.048 135.704 243.112L135.912 243.304C135.987 243.379 136.024 243.459 136.024 243.544C136.024 243.608 135.992 243.683 135.928 243.768C135.405 244.291 134.899 244.664 134.408 244.888C133.917 245.101 133.368 245.208 132.76 245.208C131.992 245.208 131.325 245.037 130.76 244.696C130.195 244.355 129.757 243.88 129.448 243.272C129.139 242.653 128.984 241.939 128.984 241.128C128.984 240.307 129.133 239.581 129.432 238.952C129.741 238.312 130.173 237.816 130.728 237.464C131.283 237.101 131.923 236.92 132.648 236.92C133.725 236.92 134.573 237.256 135.192 237.928C135.811 238.6 136.12 239.507 136.12 240.648V240.84C136.109 240.936 136.072 241.011 136.008 241.064C135.955 241.117 135.88 241.144 135.784 241.144H130.056C130.088 242.04 130.323 242.797 130.76 243.416C131.208 244.024 131.875 244.328 132.76 244.328C133.24 244.328 133.661 244.243 134.024 244.072C134.397 243.891 134.808 243.576 135.256 243.128ZM132.648 237.8C131.944 237.8 131.363 238.019 130.904 238.456C130.456 238.883 130.184 239.512 130.088 240.344H135.064C135.043 239.565 134.819 238.947 134.392 238.488C133.965 238.029 133.384 237.8 132.648 237.8ZM143.601 244.616C143.644 244.691 143.665 244.755 143.665 244.808C143.665 244.936 143.58 245 143.409 245H142.929C142.769 245 142.641 244.931 142.545 244.792L140.369 241.592L138.209 244.792C138.113 244.931 137.985 245 137.825 245H137.377C137.292 245 137.222 244.984 137.169 244.952C137.126 244.909 137.105 244.861 137.105 244.808C137.105 244.733 137.126 244.669 137.169 244.616L139.761 240.888L137.377 237.496C137.334 237.443 137.313 237.384 137.313 237.32C137.313 237.181 137.404 237.112 137.585 237.112H138.049C138.209 237.112 138.337 237.181 138.433 237.32L140.385 240.184L142.321 237.32C142.417 237.181 142.545 237.112 142.705 237.112H143.137C143.222 237.112 143.286 237.133 143.329 237.176C143.382 237.208 143.409 237.251 143.409 237.304C143.409 237.379 143.388 237.443 143.345 237.496L141.009 240.84L143.601 244.616ZM148.908 244.12C148.94 244.109 148.983 244.104 149.036 244.104C149.1 244.104 149.159 244.125 149.212 244.168C149.265 244.211 149.297 244.269 149.308 244.344L149.356 244.568C149.367 244.589 149.372 244.627 149.372 244.68C149.372 244.829 149.292 244.92 149.132 244.952C148.748 245.069 148.337 245.128 147.9 245.128C147.207 245.128 146.711 244.973 146.412 244.664C146.124 244.344 145.98 243.885 145.98 243.288V237.912H144.796C144.583 237.912 144.476 237.805 144.476 237.592V237.432C144.476 237.219 144.583 237.112 144.796 237.112H145.98V234.68C145.98 234.467 146.087 234.36 146.3 234.36H146.716C146.929 234.36 147.036 234.467 147.036 234.68V237.112H148.956C149.169 237.112 149.276 237.219 149.276 237.432V237.592C149.276 237.805 149.169 237.912 148.956 237.912H147.036V243.16C147.036 243.555 147.111 243.832 147.26 243.992C147.409 244.152 147.665 244.232 148.028 244.232C148.284 244.232 148.577 244.195 148.908 244.12ZM157.615 236.92C158.585 236.92 159.343 237.155 159.887 237.624C160.431 238.083 160.703 238.691 160.703 239.448V244.68C160.703 244.893 160.596 245 160.383 245H160.063C159.849 245 159.743 244.893 159.743 244.68V243.96C159.476 244.387 159.097 244.707 158.607 244.92C158.127 245.133 157.588 245.24 156.991 245.24C156.159 245.24 155.481 245.064 154.959 244.712C154.436 244.36 154.175 243.816 154.175 243.08C154.175 242.493 154.34 242.024 154.671 241.672C155.001 241.309 155.433 241.037 155.967 240.856C156.5 240.664 157.167 240.493 157.967 240.344L159.695 240.04V239.528C159.695 238.984 159.508 238.563 159.135 238.264C158.761 237.955 158.271 237.8 157.663 237.8C157.204 237.8 156.788 237.885 156.415 238.056C156.041 238.227 155.641 238.52 155.215 238.936C155.14 239.011 155.06 239.048 154.975 239.048C154.9 239.048 154.831 239.016 154.767 238.952L154.559 238.76C154.484 238.685 154.447 238.605 154.447 238.52C154.447 238.424 154.484 238.339 154.559 238.264C155.007 237.795 155.476 237.453 155.967 237.24C156.468 237.027 157.017 236.92 157.615 236.92ZM157.039 244.36C157.807 244.36 158.441 244.157 158.943 243.752C159.444 243.347 159.695 242.829 159.695 242.2V240.856L158.207 241.144C157.513 241.283 156.964 241.416 156.559 241.544C156.153 241.672 155.828 241.859 155.583 242.104C155.337 242.349 155.215 242.669 155.215 243.064C155.215 243.469 155.375 243.789 155.695 244.024C156.025 244.248 156.473 244.36 157.039 244.36ZM165.987 237.048C166.254 237.048 166.569 237.091 166.931 237.176C167.123 237.24 167.198 237.373 167.155 237.576L167.091 237.832C167.038 238.035 166.905 238.109 166.691 238.056C166.435 237.992 166.201 237.96 165.987 237.96C165.443 237.96 164.99 238.195 164.627 238.664C164.275 239.133 164.099 239.784 164.099 240.616V244.68C164.099 244.893 163.993 245 163.779 245H163.363C163.15 245 163.043 244.893 163.043 244.68V237.432C163.043 237.219 163.15 237.112 163.363 237.112H163.715C163.929 237.112 164.035 237.219 164.035 237.432V238.312C164.217 237.917 164.473 237.608 164.803 237.384C165.145 237.16 165.539 237.048 165.987 237.048ZM173.897 243.128C173.971 243.053 174.051 243.016 174.137 243.016C174.211 243.016 174.281 243.048 174.345 243.112L174.553 243.304C174.627 243.379 174.665 243.459 174.665 243.544C174.665 243.608 174.633 243.683 174.569 243.768C174.046 244.291 173.539 244.664 173.049 244.888C172.558 245.101 172.009 245.208 171.401 245.208C170.633 245.208 169.966 245.037 169.401 244.696C168.835 244.355 168.398 243.88 168.089 243.272C167.779 242.653 167.625 241.939 167.625 241.128C167.625 240.307 167.774 239.581 168.073 238.952C168.382 238.312 168.814 237.816 169.369 237.464C169.923 237.101 170.563 236.92 171.289 236.92C172.366 236.92 173.214 237.256 173.833 237.928C174.451 238.6 174.761 239.507 174.761 240.648V240.84C174.75 240.936 174.713 241.011 174.649 241.064C174.595 241.117 174.521 241.144 174.425 241.144H168.697C168.729 242.04 168.963 242.797 169.401 243.416C169.849 244.024 170.515 244.328 171.401 244.328C171.881 244.328 172.302 244.243 172.665 244.072C173.038 243.891 173.449 243.576 173.897 243.128ZM171.289 237.8C170.585 237.8 170.003 238.019 169.545 238.456C169.097 238.883 168.825 239.512 168.729 240.344H173.705C173.683 239.565 173.459 238.947 173.033 238.488C172.606 238.029 172.025 237.8 171.289 237.8ZM179.552 236.92C180.523 236.92 181.28 237.155 181.824 237.624C182.368 238.083 182.64 238.691 182.64 239.448V244.68C182.64 244.893 182.533 245 182.32 245H182C181.787 245 181.68 244.893 181.68 244.68V243.96C181.413 244.387 181.035 244.707 180.544 244.92C180.064 245.133 179.525 245.24 178.928 245.24C178.096 245.24 177.419 245.064 176.896 244.712C176.373 244.36 176.112 243.816 176.112 243.08C176.112 242.493 176.277 242.024 176.608 241.672C176.939 241.309 177.371 241.037 177.904 240.856C178.437 240.664 179.104 240.493 179.904 240.344L181.632 240.04V239.528C181.632 238.984 181.445 238.563 181.072 238.264C180.699 237.955 180.208 237.8 179.6 237.8C179.141 237.8 178.725 237.885 178.352 238.056C177.979 238.227 177.579 238.52 177.152 238.936C177.077 239.011 176.997 239.048 176.912 239.048C176.837 239.048 176.768 239.016 176.704 238.952L176.496 238.76C176.421 238.685 176.384 238.605 176.384 238.52C176.384 238.424 176.421 238.339 176.496 238.264C176.944 237.795 177.413 237.453 177.904 237.24C178.405 237.027 178.955 236.92 179.552 236.92ZM178.976 244.36C179.744 244.36 180.379 244.157 180.88 243.752C181.381 243.347 181.632 242.829 181.632 242.2V240.856L180.144 241.144C179.451 241.283 178.901 241.416 178.496 241.544C178.091 241.672 177.765 241.859 177.52 242.104C177.275 242.349 177.152 242.669 177.152 243.064C177.152 243.469 177.312 243.789 177.632 244.024C177.963 244.248 178.411 244.36 178.976 244.36Z" fill="#464646"/>
<g filter="url(#filter1_d_1715_18635)">
<path d="M269 294L263 300M269 298L267 300" stroke="#767676" stroke-linecap="square"/>
</g>
<rect x="70.5" y="216.5" width="202" height="87" rx="3.5" stroke="#D91F0A"/>
<path d="M71.356 320C71.196 320 71.116 319.92 71.116 319.76V311.72C71.116 311.56 71.196 311.48 71.356 311.48H71.728C71.888 311.48 71.968 311.56 71.968 311.72V319.76C71.968 319.92 71.888 320 71.728 320H71.356ZM79.0157 313.94C79.7437 313.94 80.3117 314.116 80.7197 314.468C81.1277 314.812 81.3317 315.268 81.3317 315.836V319.76C81.3317 319.92 81.2517 320 81.0917 320H80.8517C80.6917 320 80.6117 319.92 80.6117 319.76V319.22C80.4117 319.54 80.1277 319.78 79.7597 319.94C79.3997 320.1 78.9957 320.18 78.5477 320.18C77.9237 320.18 77.4157 320.048 77.0237 319.784C76.6317 319.52 76.4357 319.112 76.4357 318.56C76.4357 318.12 76.5597 317.768 76.8077 317.504C77.0557 317.232 77.3797 317.028 77.7797 316.892C78.1797 316.748 78.6797 316.62 79.2797 316.508L80.5757 316.28V315.896C80.5757 315.488 80.4357 315.172 80.1557 314.948C79.8757 314.716 79.5077 314.6 79.0517 314.6C78.7077 314.6 78.3957 314.664 78.1157 314.792C77.8357 314.92 77.5357 315.14 77.2157 315.452C77.1597 315.508 77.0997 315.536 77.0357 315.536C76.9797 315.536 76.9277 315.512 76.8797 315.464L76.7237 315.32C76.6677 315.264 76.6397 315.204 76.6397 315.14C76.6397 315.068 76.6677 315.004 76.7237 314.948C77.0597 314.596 77.4117 314.34 77.7797 314.18C78.1557 314.02 78.5677 313.94 79.0157 313.94ZM78.5837 319.52C79.1597 319.52 79.6357 319.368 80.0117 319.064C80.3877 318.76 80.5757 318.372 80.5757 317.9V316.892L79.4597 317.108C78.9397 317.212 78.5277 317.312 78.2237 317.408C77.9197 317.504 77.6757 317.644 77.4917 317.828C77.3077 318.012 77.2157 318.252 77.2157 318.548C77.2157 318.852 77.3357 319.092 77.5757 319.268C77.8237 319.436 78.1597 319.52 78.5837 319.52ZM89.0992 313.94C89.7392 313.94 90.2272 314.124 90.5632 314.492C90.9072 314.852 91.0792 315.316 91.0792 315.884V319.76C91.0792 319.92 90.9992 320 90.8392 320H90.5272C90.3672 320 90.2872 319.92 90.2872 319.76V316.1C90.2872 315.62 90.1752 315.252 89.9512 314.996C89.7352 314.74 89.4112 314.612 88.9792 314.612C88.5232 314.612 88.1592 314.764 87.8872 315.068C87.6152 315.372 87.4792 315.764 87.4792 316.244V319.76C87.4792 319.92 87.3992 320 87.2392 320H86.9272C86.7672 320 86.6872 319.92 86.6872 319.76V316.1C86.6872 315.62 86.5752 315.252 86.3512 314.996C86.1352 314.74 85.8072 314.612 85.3672 314.612C84.9592 314.612 84.6192 314.74 84.3472 314.996C84.0832 315.252 83.9272 315.588 83.8792 316.004V319.76C83.8792 319.92 83.7992 320 83.6392 320H83.3272C83.1672 320 83.0872 319.92 83.0872 319.76V314.324C83.0872 314.164 83.1672 314.084 83.3272 314.084H83.5912C83.7512 314.084 83.8312 314.164 83.8312 314.324V314.816C84.1912 314.232 84.7632 313.94 85.5472 313.94C85.9552 313.94 86.3032 314.032 86.5912 314.216C86.8872 314.392 87.1072 314.632 87.2512 314.936C87.6752 314.272 88.2912 313.94 89.0992 313.94ZM97.8711 313.94C98.5991 313.94 99.1671 314.116 99.5751 314.468C99.9831 314.812 100.187 315.268 100.187 315.836V319.76C100.187 319.92 100.107 320 99.9471 320H99.7071C99.5471 320 99.4671 319.92 99.4671 319.76V319.22C99.2671 319.54 98.9831 319.78 98.6151 319.94C98.2551 320.1 97.8511 320.18 97.4031 320.18C96.7791 320.18 96.2711 320.048 95.8791 319.784C95.4871 319.52 95.2911 319.112 95.2911 318.56C95.2911 318.12 95.4151 317.768 95.6631 317.504C95.9111 317.232 96.2351 317.028 96.6351 316.892C97.0351 316.748 97.5351 316.62 98.1351 316.508L99.4311 316.28V315.896C99.4311 315.488 99.2911 315.172 99.0111 314.948C98.7311 314.716 98.3631 314.6 97.9071 314.6C97.5631 314.6 97.2511 314.664 96.9711 314.792C96.6911 314.92 96.3911 315.14 96.0711 315.452C96.0151 315.508 95.9551 315.536 95.8911 315.536C95.8351 315.536 95.7831 315.512 95.7351 315.464L95.5791 315.32C95.5231 315.264 95.4951 315.204 95.4951 315.14C95.4951 315.068 95.5231 315.004 95.5791 314.948C95.9151 314.596 96.2671 314.34 96.6351 314.18C97.0111 314.02 97.4231 313.94 97.8711 313.94ZM97.4391 319.52C98.0151 319.52 98.4911 319.368 98.8671 319.064C99.2431 318.76 99.4311 318.372 99.4311 317.9V316.892L98.3151 317.108C97.7951 317.212 97.3831 317.312 97.0791 317.408C96.7751 317.504 96.5311 317.644 96.3471 317.828C96.1631 318.012 96.0711 318.252 96.0711 318.548C96.0711 318.852 96.1911 319.092 96.4311 319.268C96.6791 319.436 97.0151 319.52 97.4391 319.52ZM109.016 318.596C109.072 318.54 109.132 318.512 109.196 318.512C109.252 318.512 109.304 318.536 109.352 318.584L109.508 318.728C109.564 318.784 109.592 318.844 109.592 318.908C109.592 318.956 109.568 319.012 109.52 319.076C109.128 319.468 108.748 319.748 108.38 319.916C108.012 320.076 107.6 320.156 107.144 320.156C106.568 320.156 106.068 320.028 105.644 319.772C105.22 319.516 104.892 319.16 104.66 318.704C104.428 318.24 104.312 317.704 104.312 317.096C104.312 316.48 104.424 315.936 104.648 315.464C104.88 314.984 105.204 314.612 105.62 314.348C106.036 314.076 106.516 313.94 107.06 313.94C107.868 313.94 108.504 314.192 108.968 314.696C109.432 315.2 109.664 315.88 109.664 316.736V316.88C109.656 316.952 109.628 317.008 109.58 317.048C109.54 317.088 109.484 317.108 109.412 317.108H105.116C105.14 317.78 105.316 318.348 105.644 318.812C105.98 319.268 106.48 319.496 107.144 319.496C107.504 319.496 107.82 319.432 108.092 319.304C108.372 319.168 108.68 318.932 109.016 318.596ZM107.06 314.6C106.532 314.6 106.096 314.764 105.752 315.092C105.416 315.412 105.212 315.884 105.14 316.508H108.872C108.856 315.924 108.688 315.46 108.368 315.116C108.048 314.772 107.612 314.6 107.06 314.6ZM113.291 314.036C113.491 314.036 113.727 314.068 113.999 314.132C114.143 314.18 114.199 314.28 114.167 314.432L114.119 314.624C114.079 314.776 113.979 314.832 113.819 314.792C113.627 314.744 113.451 314.72 113.291 314.72C112.883 314.72 112.543 314.896 112.271 315.248C112.007 315.6 111.875 316.088 111.875 316.712V319.76C111.875 319.92 111.795 320 111.635 320H111.323C111.163 320 111.083 319.92 111.083 319.76V314.324C111.083 314.164 111.163 314.084 111.323 314.084H111.587C111.747 314.084 111.827 314.164 111.827 314.324V314.984C111.963 314.688 112.155 314.456 112.403 314.288C112.659 314.12 112.955 314.036 113.291 314.036ZM117.451 314.036C117.651 314.036 117.887 314.068 118.159 314.132C118.303 314.18 118.359 314.28 118.327 314.432L118.279 314.624C118.239 314.776 118.139 314.832 117.979 314.792C117.787 314.744 117.611 314.72 117.451 314.72C117.043 314.72 116.703 314.896 116.431 315.248C116.167 315.6 116.035 316.088 116.035 316.712V319.76C116.035 319.92 115.955 320 115.795 320H115.483C115.323 320 115.243 319.92 115.243 319.76V314.324C115.243 314.164 115.323 314.084 115.483 314.084H115.747C115.907 314.084 115.987 314.164 115.987 314.324V314.984C116.123 314.688 116.315 314.456 116.563 314.288C116.819 314.12 117.115 314.036 117.451 314.036ZM121.524 320.156C120.972 320.156 120.48 320.024 120.048 319.76C119.616 319.496 119.28 319.132 119.04 318.668C118.8 318.196 118.68 317.656 118.68 317.048C118.68 316.44 118.8 315.904 119.04 315.44C119.28 314.968 119.616 314.6 120.048 314.336C120.48 314.072 120.972 313.94 121.524 313.94C122.076 313.94 122.568 314.072 123 314.336C123.432 314.6 123.768 314.968 124.008 315.44C124.248 315.904 124.368 316.44 124.368 317.048C124.368 317.656 124.248 318.196 124.008 318.668C123.768 319.132 123.432 319.496 123 319.76C122.568 320.024 122.076 320.156 121.524 320.156ZM121.524 319.496C122.14 319.496 122.632 319.272 123 318.824C123.368 318.368 123.552 317.776 123.552 317.048C123.552 316.32 123.368 315.732 123 315.284C122.632 314.828 122.14 314.6 121.524 314.6C120.908 314.6 120.416 314.828 120.048 315.284C119.68 315.732 119.496 316.32 119.496 317.048C119.496 317.776 119.68 318.368 120.048 318.824C120.416 319.272 120.908 319.496 121.524 319.496ZM127.951 314.036C128.151 314.036 128.387 314.068 128.659 314.132C128.803 314.18 128.859 314.28 128.827 314.432L128.779 314.624C128.739 314.776 128.639 314.832 128.479 314.792C128.287 314.744 128.111 314.72 127.951 314.72C127.543 314.72 127.203 314.896 126.931 315.248C126.667 315.6 126.535 316.088 126.535 316.712V319.76C126.535 319.92 126.455 320 126.295 320H125.983C125.823 320 125.743 319.92 125.743 319.76V314.324C125.743 314.164 125.823 314.084 125.983 314.084H126.247C126.407 314.084 126.487 314.164 126.487 314.324V314.984C126.623 314.688 126.815 314.456 127.063 314.288C127.319 314.12 127.615 314.036 127.951 314.036ZM138.075 313.94C138.763 313.94 139.287 314.136 139.647 314.528C140.007 314.912 140.187 315.388 140.187 315.956V319.76C140.187 319.92 140.107 320 139.947 320H139.635C139.475 320 139.395 319.92 139.395 319.76V316.22C139.395 315.692 139.267 315.292 139.011 315.02C138.755 314.748 138.387 314.612 137.907 314.612C137.603 314.612 137.323 314.688 137.067 314.84C136.811 314.984 136.607 315.184 136.455 315.44C136.303 315.696 136.227 315.976 136.227 316.28V319.76C136.227 319.92 136.147 320 135.987 320H135.675C135.515 320 135.435 319.92 135.435 319.76V311.72C135.435 311.56 135.515 311.48 135.675 311.48H135.987C136.147 311.48 136.227 311.56 136.227 311.72V314.852C136.419 314.548 136.675 314.32 136.995 314.168C137.323 314.016 137.683 313.94 138.075 313.94ZM146.247 318.596C146.303 318.54 146.363 318.512 146.427 318.512C146.483 318.512 146.535 318.536 146.583 318.584L146.739 318.728C146.795 318.784 146.823 318.844 146.823 318.908C146.823 318.956 146.799 319.012 146.751 319.076C146.359 319.468 145.979 319.748 145.611 319.916C145.243 320.076 144.831 320.156 144.375 320.156C143.799 320.156 143.299 320.028 142.875 319.772C142.451 319.516 142.123 319.16 141.891 318.704C141.659 318.24 141.543 317.704 141.543 317.096C141.543 316.48 141.655 315.936 141.879 315.464C142.111 314.984 142.435 314.612 142.851 314.348C143.267 314.076 143.747 313.94 144.291 313.94C145.099 313.94 145.735 314.192 146.199 314.696C146.663 315.2 146.895 315.88 146.895 316.736V316.88C146.887 316.952 146.859 317.008 146.811 317.048C146.771 317.088 146.715 317.108 146.643 317.108H142.347C142.371 317.78 142.547 318.348 142.875 318.812C143.211 319.268 143.711 319.496 144.375 319.496C144.735 319.496 145.051 319.432 145.323 319.304C145.603 319.168 145.911 318.932 146.247 318.596ZM144.291 314.6C143.763 314.6 143.327 314.764 142.983 315.092C142.647 315.412 142.443 315.884 142.371 316.508H146.103C146.087 315.924 145.919 315.46 145.599 315.116C145.279 314.772 144.843 314.6 144.291 314.6ZM148.566 320C148.406 320 148.326 319.92 148.326 319.76V311.72C148.326 311.56 148.406 311.48 148.566 311.48H148.878C149.038 311.48 149.118 311.56 149.118 311.72V319.76C149.118 319.92 149.038 320 148.878 320H148.566ZM153.736 313.952C154.232 313.952 154.676 314.084 155.068 314.348C155.468 314.604 155.78 314.968 156.004 315.44C156.228 315.904 156.34 316.436 156.34 317.036C156.34 317.644 156.228 318.184 156.004 318.656C155.78 319.128 155.472 319.496 155.08 319.76C154.688 320.016 154.24 320.144 153.736 320.144C152.808 320.144 152.128 319.804 151.696 319.124V321.968C151.696 322.128 151.616 322.208 151.456 322.208H151.144C150.984 322.208 150.904 322.128 150.904 321.968V314.324C150.904 314.164 150.984 314.084 151.144 314.084H151.408C151.568 314.084 151.648 314.164 151.648 314.324V315.08C151.864 314.712 152.148 314.432 152.5 314.24C152.852 314.048 153.264 313.952 153.736 313.952ZM153.676 319.472C154.236 319.472 154.684 319.248 155.02 318.8C155.356 318.352 155.524 317.764 155.524 317.036C155.524 316.316 155.356 315.736 155.02 315.296C154.684 314.848 154.236 314.624 153.676 314.624C153.076 314.624 152.588 314.84 152.212 315.272C151.844 315.696 151.66 316.284 151.66 317.036C151.66 317.788 151.848 318.384 152.224 318.824C152.6 319.256 153.084 319.472 153.676 319.472ZM163.177 319.34C163.201 319.332 163.233 319.328 163.273 319.328C163.321 319.328 163.365 319.344 163.405 319.376C163.445 319.408 163.469 319.452 163.477 319.508L163.513 319.676C163.521 319.692 163.525 319.72 163.525 319.76C163.525 319.872 163.465 319.94 163.345 319.964C163.057 320.052 162.749 320.096 162.421 320.096C161.901 320.096 161.529 319.98 161.305 319.748C161.089 319.508 160.981 319.164 160.981 318.716V314.684H160.093C159.933 314.684 159.853 314.604 159.853 314.444V314.324C159.853 314.164 159.933 314.084 160.093 314.084H160.981V312.26C160.981 312.1 161.061 312.02 161.221 312.02H161.533C161.693 312.02 161.773 312.1 161.773 312.26V314.084H163.213C163.373 314.084 163.453 314.164 163.453 314.324V314.444C163.453 314.604 163.373 314.684 163.213 314.684H161.773V318.62C161.773 318.916 161.829 319.124 161.941 319.244C162.053 319.364 162.245 319.424 162.517 319.424C162.709 319.424 162.929 319.396 163.177 319.34ZM168.747 318.596C168.803 318.54 168.863 318.512 168.927 318.512C168.983 318.512 169.035 318.536 169.083 318.584L169.239 318.728C169.295 318.784 169.323 318.844 169.323 318.908C169.323 318.956 169.299 319.012 169.251 319.076C168.859 319.468 168.479 319.748 168.111 319.916C167.743 320.076 167.331 320.156 166.875 320.156C166.299 320.156 165.799 320.028 165.375 319.772C164.951 319.516 164.623 319.16 164.391 318.704C164.159 318.24 164.043 317.704 164.043 317.096C164.043 316.48 164.155 315.936 164.379 315.464C164.611 314.984 164.935 314.612 165.351 314.348C165.767 314.076 166.247 313.94 166.791 313.94C167.599 313.94 168.235 314.192 168.699 314.696C169.163 315.2 169.395 315.88 169.395 316.736V316.88C169.387 316.952 169.359 317.008 169.311 317.048C169.271 317.088 169.215 317.108 169.143 317.108H164.847C164.871 317.78 165.047 318.348 165.375 318.812C165.711 319.268 166.211 319.496 166.875 319.496C167.235 319.496 167.551 319.432 167.823 319.304C168.103 319.168 168.411 318.932 168.747 318.596ZM166.791 314.6C166.263 314.6 165.827 314.764 165.483 315.092C165.147 315.412 164.943 315.884 164.871 316.508H168.603C168.587 315.924 168.419 315.46 168.099 315.116C167.779 314.772 167.343 314.6 166.791 314.6ZM175.005 319.712C175.037 319.768 175.053 319.816 175.053 319.856C175.053 319.952 174.989 320 174.861 320H174.501C174.381 320 174.285 319.948 174.213 319.844L172.581 317.444L170.961 319.844C170.889 319.948 170.793 320 170.673 320H170.337C170.273 320 170.221 319.988 170.181 319.964C170.149 319.932 170.133 319.896 170.133 319.856C170.133 319.8 170.149 319.752 170.181 319.712L172.125 316.916L170.337 314.372C170.305 314.332 170.289 314.288 170.289 314.24C170.289 314.136 170.357 314.084 170.493 314.084H170.841C170.961 314.084 171.057 314.136 171.129 314.24L172.593 316.388L174.045 314.24C174.117 314.136 174.213 314.084 174.333 314.084H174.657C174.721 314.084 174.769 314.1 174.801 314.132C174.841 314.156 174.861 314.188 174.861 314.228C174.861 314.284 174.845 314.332 174.813 314.372L173.061 316.88L175.005 319.712ZM178.986 319.34C179.01 319.332 179.042 319.328 179.082 319.328C179.13 319.328 179.174 319.344 179.214 319.376C179.254 319.408 179.278 319.452 179.286 319.508L179.322 319.676C179.33 319.692 179.334 319.72 179.334 319.76C179.334 319.872 179.274 319.94 179.154 319.964C178.866 320.052 178.558 320.096 178.23 320.096C177.71 320.096 177.338 319.98 177.114 319.748C176.898 319.508 176.79 319.164 176.79 318.716V314.684H175.902C175.742 314.684 175.662 314.604 175.662 314.444V314.324C175.662 314.164 175.742 314.084 175.902 314.084H176.79V312.26C176.79 312.1 176.87 312.02 177.03 312.02H177.342C177.502 312.02 177.582 312.1 177.582 312.26V314.084H179.022C179.182 314.084 179.262 314.164 179.262 314.324V314.444C179.262 314.604 179.182 314.684 179.022 314.684H177.582V318.62C177.582 318.916 177.638 319.124 177.75 319.244C177.862 319.364 178.054 319.424 178.326 319.424C178.518 319.424 178.738 319.396 178.986 319.34Z" fill="#D91F0A"/>
<defs>
<filter id="filter0_d_1715_18635" x="262.293" y="139.293" width="7.41431" height="8.41418" filterUnits="userSpaceOnUse" color-interpolation-filters="sRGB">
<feFlood flood-opacity="0" result="BackgroundImageFix"/>
<feColorMatrix in="SourceAlpha" type="matrix" values="0 0 0 0 0 0 0 0 0 0 0 0 0 0 0 0 0 0 127 0" result="hardAlpha"/>
<feOffset dy="1"/>
<feColorMatrix type="matrix" values="0 0 0 0 1 0 0 0 0 1 0 0 0 0 1 0 0 0 0.5 0"/>
<feBlend mode="normal" in2="BackgroundImageFix" result="effect1_dropShadow_1715_18635"/>
<feBlend mode="normal" in="SourceGraphic" in2="effect1_dropShadow_1715_18635" result="shape"/>
</filter>
<filter id="filter1_d_1715_18635" x="262.293" y="293.293" width="7.41431" height="8.41418" filterUnits="userSpaceOnUse" color-interpolation-filters="sRGB">
<feFlood flood-opacity="0" result="BackgroundImageFix"/>
<feColorMatrix in="SourceAlpha" type="matrix" values="0 0 0 0 0 0 0 0 0 0 0 0 0 0 0 0 0 0 127 0" result="hardAlpha"/>
<feOffset dy="1"/>
<feColorMatrix type="matrix" values="0 0 0 0 1 0 0 0 0 1 0 0 0 0 1 0 0 0 0.5 0"/>
<feBlend mode="normal" in2="BackgroundImageFix" result="effect1_dropShadow_1715_18635"/>
<feBlend mode="normal" in="SourceGraphic" in2="effect1_dropShadow_1715_18635" result="shape"/>
</filter>
</defs>
</svg>
