<svg width="344" height="190" viewBox="0 0 344 190" fill="none" xmlns="http://www.w3.org/2000/svg">
<rect width="344" height="190" fill="#F5F5F5"/>
<rect x="70.5" y="40.5" width="202" height="73" rx="3.5" fill="white"/>
<path d="M79.696 69C79.4827 69 79.376 68.8933 79.376 68.68V57.96C79.376 57.7467 79.4827 57.64 79.696 57.64H80.192C80.4053 57.64 80.512 57.7467 80.512 57.96V62.664H87.072V57.96C87.072 57.7467 87.1787 57.64 87.392 57.64H87.888C88.1013 57.64 88.208 57.7467 88.208 57.96V68.68C88.208 68.8933 88.1013 69 87.888 69H87.392C87.1787 69 87.072 68.8933 87.072 68.68V63.608H80.512V68.68C80.512 68.8933 80.4053 69 80.192 69H79.696ZM91.2901 59.112C91.0768 59.112 90.8955 59.0373 90.7461 58.888C90.6075 58.7387 90.5381 58.5573 90.5381 58.344C90.5381 58.1307 90.6075 57.9547 90.7461 57.816C90.8955 57.6773 91.0768 57.608 91.2901 57.608C91.5141 57.608 91.6955 57.6773 91.8341 57.816C91.9835 57.9547 92.0581 58.1307 92.0581 58.344C92.0581 58.5573 91.9835 58.7387 91.8341 58.888C91.6955 59.0373 91.5141 59.112 91.2901 59.112ZM91.0821 69C90.8688 69 90.7621 68.8933 90.7621 68.68V61.432C90.7621 61.2187 90.8688 61.112 91.0821 61.112H91.4981C91.7115 61.112 91.8181 61.2187 91.8181 61.432V68.68C91.8181 68.8933 91.7115 69 91.4981 69H91.0821ZM97.6884 60.92C98.6164 60.92 99.315 61.176 99.7844 61.688C100.264 62.2 100.504 62.84 100.504 63.608V68.68C100.504 68.8933 100.398 69 100.184 69H99.7684C99.555 69 99.4484 68.8933 99.4484 68.68V63.96C99.4484 63.256 99.2777 62.7227 98.9364 62.36C98.595 61.9973 98.1044 61.816 97.4644 61.816C97.059 61.816 96.6857 61.9173 96.3444 62.12C96.003 62.312 95.731 62.5787 95.5284 62.92C95.3257 63.2613 95.2244 63.6347 95.2244 64.04V68.68C95.2244 68.8933 95.1177 69 94.9044 69H94.4884C94.275 69 94.1684 68.8933 94.1684 68.68V61.432C94.1684 61.2187 94.275 61.112 94.4884 61.112H94.8404C95.0537 61.112 95.1604 61.2187 95.1604 61.432V62.2C95.427 61.7733 95.779 61.4533 96.2164 61.24C96.6537 61.0267 97.1444 60.92 97.6884 60.92ZM106.174 68.12C106.206 68.1093 106.248 68.104 106.302 68.104C106.366 68.104 106.424 68.1253 106.478 68.168C106.531 68.2107 106.563 68.2693 106.574 68.344L106.622 68.568C106.632 68.5893 106.638 68.6267 106.638 68.68C106.638 68.8293 106.558 68.92 106.398 68.952C106.014 69.0693 105.603 69.128 105.166 69.128C104.472 69.128 103.976 68.9733 103.678 68.664C103.39 68.344 103.246 67.8853 103.246 67.288V61.912H102.062C101.848 61.912 101.742 61.8053 101.742 61.592V61.432C101.742 61.2187 101.848 61.112 102.062 61.112H103.246V58.68C103.246 58.4667 103.352 58.36 103.566 58.36H103.982C104.195 58.36 104.302 58.4667 104.302 58.68V61.112H106.222C106.435 61.112 106.542 61.2187 106.542 61.432V61.592C106.542 61.8053 106.435 61.912 106.222 61.912H104.302V67.16C104.302 67.5547 104.376 67.832 104.526 67.992C104.675 68.152 104.931 68.232 105.294 68.232C105.55 68.232 105.843 68.1947 106.174 68.12ZM108.897 69.112C108.673 69.112 108.481 69.032 108.321 68.872C108.161 68.712 108.081 68.52 108.081 68.296C108.081 68.072 108.161 67.88 108.321 67.72C108.481 67.56 108.673 67.48 108.897 67.48C109.121 67.48 109.313 67.56 109.473 67.72C109.633 67.88 109.713 68.072 109.713 68.296C109.713 68.52 109.633 68.712 109.473 68.872C109.313 69.032 109.121 69.112 108.897 69.112ZM112.132 69.112C111.908 69.112 111.716 69.032 111.556 68.872C111.396 68.712 111.316 68.52 111.316 68.296C111.316 68.072 111.396 67.88 111.556 67.72C111.716 67.56 111.908 67.48 112.132 67.48C112.356 67.48 112.548 67.56 112.708 67.72C112.868 67.88 112.948 68.072 112.948 68.296C112.948 68.52 112.868 68.712 112.708 68.872C112.548 69.032 112.356 69.112 112.132 69.112ZM115.366 69.112C115.142 69.112 114.95 69.032 114.79 68.872C114.63 68.712 114.55 68.52 114.55 68.296C114.55 68.072 114.63 67.88 114.79 67.72C114.95 67.56 115.142 67.48 115.366 67.48C115.59 67.48 115.782 67.56 115.942 67.72C116.102 67.88 116.182 68.072 116.182 68.296C116.182 68.52 116.102 68.712 115.942 68.872C115.782 69.032 115.59 69.112 115.366 69.112Z" fill="#C3CCD9"/>
<g filter="url(#filter0_d_1793_18388)">
<path d="M269 104L263 110M269 108L267 110" stroke="#767676" stroke-linecap="square"/>
</g>
<rect x="70.5" y="40.5" width="202" height="73" rx="3.5" stroke="#C3CCD9"/>
<path d="M71.356 130C71.196 130 71.116 129.92 71.116 129.76V121.72C71.116 121.56 71.196 121.48 71.356 121.48H71.728C71.888 121.48 71.968 121.56 71.968 121.72V129.76C71.968 129.92 71.888 130 71.728 130H71.356ZM74.21 121.432C74.418 121.432 74.586 121.512 74.714 121.672C74.85 121.824 74.918 122.052 74.918 122.356C74.918 122.668 74.83 122.972 74.654 123.268C74.478 123.556 74.234 123.744 73.922 123.832C73.906 123.84 73.882 123.844 73.85 123.844C73.794 123.844 73.746 123.824 73.706 123.784C73.674 123.736 73.658 123.68 73.658 123.616C73.658 123.584 73.674 123.556 73.706 123.532C73.746 123.5 73.794 123.472 73.85 123.448C74.002 123.376 74.13 123.26 74.234 123.1C74.346 122.932 74.41 122.748 74.426 122.548C74.354 122.58 74.278 122.596 74.198 122.596C74.038 122.596 73.902 122.544 73.79 122.44C73.678 122.328 73.622 122.188 73.622 122.02C73.622 121.852 73.678 121.712 73.79 121.6C73.91 121.488 74.05 121.432 74.21 121.432ZM81.9977 123.94C82.6377 123.94 83.1257 124.124 83.4617 124.492C83.8057 124.852 83.9777 125.316 83.9777 125.884V129.76C83.9777 129.92 83.8977 130 83.7377 130H83.4257C83.2657 130 83.1857 129.92 83.1857 129.76V126.1C83.1857 125.62 83.0737 125.252 82.8497 124.996C82.6337 124.74 82.3097 124.612 81.8777 124.612C81.4217 124.612 81.0577 124.764 80.7857 125.068C80.5137 125.372 80.3777 125.764 80.3777 126.244V129.76C80.3777 129.92 80.2977 130 80.1377 130H79.8257C79.6657 130 79.5857 129.92 79.5857 129.76V126.1C79.5857 125.62 79.4737 125.252 79.2497 124.996C79.0337 124.74 78.7057 124.612 78.2657 124.612C77.8577 124.612 77.5177 124.74 77.2457 124.996C76.9817 125.252 76.8257 125.588 76.7777 126.004V129.76C76.7777 129.92 76.6977 130 76.5377 130H76.2257C76.0657 130 75.9857 129.92 75.9857 129.76V124.324C75.9857 124.164 76.0657 124.084 76.2257 124.084H76.4897C76.6497 124.084 76.7297 124.164 76.7297 124.324V124.816C77.0897 124.232 77.6617 123.94 78.4457 123.94C78.8537 123.94 79.2017 124.032 79.4897 124.216C79.7857 124.392 80.0057 124.632 80.1497 124.936C80.5737 124.272 81.1897 123.94 81.9977 123.94ZM90.7696 123.94C91.4976 123.94 92.0656 124.116 92.4736 124.468C92.8816 124.812 93.0856 125.268 93.0856 125.836V129.76C93.0856 129.92 93.0056 130 92.8456 130H92.6056C92.4456 130 92.3656 129.92 92.3656 129.76V129.22C92.1656 129.54 91.8816 129.78 91.5136 129.94C91.1536 130.1 90.7496 130.18 90.3016 130.18C89.6776 130.18 89.1696 130.048 88.7776 129.784C88.3856 129.52 88.1896 129.112 88.1896 128.56C88.1896 128.12 88.3136 127.768 88.5616 127.504C88.8096 127.232 89.1336 127.028 89.5336 126.892C89.9336 126.748 90.4336 126.62 91.0336 126.508L92.3296 126.28V125.896C92.3296 125.488 92.1896 125.172 91.9096 124.948C91.6296 124.716 91.2616 124.6 90.8056 124.6C90.4616 124.6 90.1496 124.664 89.8696 124.792C89.5896 124.92 89.2896 125.14 88.9696 125.452C88.9136 125.508 88.8536 125.536 88.7896 125.536C88.7336 125.536 88.6816 125.512 88.6336 125.464L88.4776 125.32C88.4216 125.264 88.3936 125.204 88.3936 125.14C88.3936 125.068 88.4216 125.004 88.4776 124.948C88.8136 124.596 89.1656 124.34 89.5336 124.18C89.9096 124.02 90.3216 123.94 90.7696 123.94ZM90.3376 129.52C90.9136 129.52 91.3896 129.368 91.7656 129.064C92.1416 128.76 92.3296 128.372 92.3296 127.9V126.892L91.2136 127.108C90.6936 127.212 90.2816 127.312 89.9776 127.408C89.6736 127.504 89.4296 127.644 89.2456 127.828C89.0616 128.012 88.9696 128.252 88.9696 128.548C88.9696 128.852 89.0896 129.092 89.3296 129.268C89.5776 129.436 89.9136 129.52 90.3376 129.52ZM97.8588 130C97.6988 130 97.6188 129.92 97.6188 129.76V121.72C97.6188 121.56 97.6988 121.48 97.8588 121.48H98.1708C98.3308 121.48 98.4108 121.56 98.4108 121.72V129.76C98.4108 129.92 98.3308 130 98.1708 130H97.8588ZM102.645 130.156C102.093 130.156 101.601 130.024 101.169 129.76C100.737 129.496 100.401 129.132 100.161 128.668C99.9206 128.196 99.8006 127.656 99.8006 127.048C99.8006 126.44 99.9206 125.904 100.161 125.44C100.401 124.968 100.737 124.6 101.169 124.336C101.601 124.072 102.093 123.94 102.645 123.94C103.197 123.94 103.689 124.072 104.121 124.336C104.553 124.6 104.889 124.968 105.129 125.44C105.369 125.904 105.489 126.44 105.489 127.048C105.489 127.656 105.369 128.196 105.129 128.668C104.889 129.132 104.553 129.496 104.121 129.76C103.689 130.024 103.197 130.156 102.645 130.156ZM102.645 129.496C103.261 129.496 103.753 129.272 104.121 128.824C104.489 128.368 104.673 127.776 104.673 127.048C104.673 126.32 104.489 125.732 104.121 125.284C103.753 124.828 103.261 124.6 102.645 124.6C102.029 124.6 101.537 124.828 101.169 125.284C100.801 125.732 100.617 126.32 100.617 127.048C100.617 127.776 100.801 128.368 101.169 128.824C101.537 129.272 102.029 129.496 102.645 129.496ZM109.505 123.94C110.201 123.94 110.725 124.132 111.077 124.516C111.437 124.9 111.617 125.38 111.617 125.956V129.76C111.617 129.92 111.537 130 111.377 130H111.065C110.905 130 110.825 129.92 110.825 129.76V126.22C110.825 125.692 110.697 125.292 110.441 125.02C110.185 124.748 109.817 124.612 109.337 124.612C109.033 124.612 108.753 124.688 108.497 124.84C108.241 124.984 108.037 125.184 107.885 125.44C107.733 125.696 107.657 125.976 107.657 126.28V129.76C107.657 129.92 107.577 130 107.417 130H107.105C106.945 130 106.865 129.92 106.865 129.76V124.324C106.865 124.164 106.945 124.084 107.105 124.084H107.369C107.529 124.084 107.609 124.164 107.609 124.324V124.9C107.809 124.58 108.073 124.34 108.401 124.18C108.729 124.02 109.097 123.94 109.505 123.94ZM117.616 124.324C117.616 124.164 117.696 124.084 117.856 124.084H118.108C118.268 124.084 118.348 124.164 118.348 124.324V129.94C118.348 130.684 118.124 131.268 117.676 131.692C117.228 132.124 116.6 132.34 115.792 132.34C114.92 132.34 114.116 132.092 113.38 131.596C113.3 131.548 113.26 131.488 113.26 131.416C113.26 131.36 113.276 131.312 113.308 131.272L113.452 131.068C113.5 130.988 113.564 130.948 113.644 130.948C113.676 130.948 113.724 130.964 113.788 130.996C114.14 131.22 114.468 131.388 114.772 131.5C115.084 131.612 115.424 131.668 115.792 131.668C116.32 131.668 116.748 131.52 117.076 131.224C117.404 130.936 117.568 130.488 117.568 129.88V128.92C117.136 129.616 116.48 129.964 115.6 129.964C115.088 129.964 114.636 129.836 114.244 129.58C113.852 129.316 113.548 128.956 113.332 128.5C113.124 128.044 113.02 127.528 113.02 126.952C113.02 126.376 113.124 125.86 113.332 125.404C113.548 124.948 113.852 124.592 114.244 124.336C114.636 124.072 115.088 123.94 115.6 123.94C116.064 123.94 116.464 124.04 116.8 124.24C117.144 124.432 117.416 124.708 117.616 125.068V124.324ZM115.684 129.292C116.26 129.292 116.72 129.076 117.064 128.644C117.408 128.204 117.58 127.64 117.58 126.952C117.58 126.264 117.408 125.704 117.064 125.272C116.72 124.832 116.26 124.612 115.684 124.612C115.1 124.612 114.644 124.828 114.316 125.26C113.996 125.692 113.836 126.256 113.836 126.952C113.836 127.648 113.996 128.212 114.316 128.644C114.644 129.076 115.1 129.292 115.684 129.292ZM125.536 123.94C126.224 123.94 126.748 124.136 127.108 124.528C127.468 124.912 127.648 125.388 127.648 125.956V129.76C127.648 129.92 127.568 130 127.408 130H127.096C126.936 130 126.856 129.92 126.856 129.76V126.22C126.856 125.692 126.728 125.292 126.472 125.02C126.216 124.748 125.848 124.612 125.368 124.612C125.064 124.612 124.784 124.688 124.528 124.84C124.272 124.984 124.068 125.184 123.916 125.44C123.764 125.696 123.688 125.976 123.688 126.28V129.76C123.688 129.92 123.608 130 123.448 130H123.136C122.976 130 122.896 129.92 122.896 129.76V121.72C122.896 121.56 122.976 121.48 123.136 121.48H123.448C123.608 121.48 123.688 121.56 123.688 121.72V124.852C123.88 124.548 124.136 124.32 124.456 124.168C124.784 124.016 125.144 123.94 125.536 123.94ZM133.708 128.596C133.764 128.54 133.824 128.512 133.888 128.512C133.944 128.512 133.996 128.536 134.044 128.584L134.2 128.728C134.256 128.784 134.284 128.844 134.284 128.908C134.284 128.956 134.26 129.012 134.212 129.076C133.82 129.468 133.44 129.748 133.072 129.916C132.704 130.076 132.292 130.156 131.836 130.156C131.26 130.156 130.76 130.028 130.336 129.772C129.912 129.516 129.584 129.16 129.352 128.704C129.12 128.24 129.004 127.704 129.004 127.096C129.004 126.48 129.116 125.936 129.34 125.464C129.572 124.984 129.896 124.612 130.312 124.348C130.728 124.076 131.208 123.94 131.752 123.94C132.56 123.94 133.196 124.192 133.66 124.696C134.124 125.2 134.356 125.88 134.356 126.736V126.88C134.348 126.952 134.32 127.008 134.272 127.048C134.232 127.088 134.176 127.108 134.104 127.108H129.808C129.832 127.78 130.008 128.348 130.336 128.812C130.672 129.268 131.172 129.496 131.836 129.496C132.196 129.496 132.512 129.432 132.784 129.304C133.064 129.168 133.372 128.932 133.708 128.596ZM131.752 124.6C131.224 124.6 130.788 124.764 130.444 125.092C130.108 125.412 129.904 125.884 129.832 126.508H133.564C133.548 125.924 133.38 125.46 133.06 125.116C132.74 124.772 132.304 124.6 131.752 124.6ZM136.027 130C135.867 130 135.787 129.92 135.787 129.76V121.72C135.787 121.56 135.867 121.48 136.027 121.48H136.339C136.499 121.48 136.579 121.56 136.579 121.72V129.76C136.579 129.92 136.499 130 136.339 130H136.027ZM141.197 123.952C141.693 123.952 142.137 124.084 142.529 124.348C142.929 124.604 143.241 124.968 143.465 125.44C143.689 125.904 143.801 126.436 143.801 127.036C143.801 127.644 143.689 128.184 143.465 128.656C143.241 129.128 142.933 129.496 142.541 129.76C142.149 130.016 141.701 130.144 141.197 130.144C140.269 130.144 139.589 129.804 139.157 129.124V131.968C139.157 132.128 139.077 132.208 138.917 132.208H138.605C138.445 132.208 138.365 132.128 138.365 131.968V124.324C138.365 124.164 138.445 124.084 138.605 124.084H138.869C139.029 124.084 139.109 124.164 139.109 124.324V125.08C139.325 124.712 139.609 124.432 139.961 124.24C140.313 124.048 140.725 123.952 141.197 123.952ZM141.137 129.472C141.697 129.472 142.145 129.248 142.481 128.8C142.817 128.352 142.985 127.764 142.985 127.036C142.985 126.316 142.817 125.736 142.481 125.296C142.145 124.848 141.697 124.624 141.137 124.624C140.537 124.624 140.049 124.84 139.673 125.272C139.305 125.696 139.121 126.284 139.121 127.036C139.121 127.788 139.309 128.384 139.685 128.824C140.061 129.256 140.545 129.472 141.137 129.472ZM150.638 129.34C150.662 129.332 150.694 129.328 150.734 129.328C150.782 129.328 150.826 129.344 150.866 129.376C150.906 129.408 150.93 129.452 150.938 129.508L150.974 129.676C150.982 129.692 150.986 129.72 150.986 129.76C150.986 129.872 150.926 129.94 150.806 129.964C150.518 130.052 150.21 130.096 149.882 130.096C149.362 130.096 148.99 129.98 148.766 129.748C148.55 129.508 148.442 129.164 148.442 128.716V124.684H147.554C147.394 124.684 147.314 124.604 147.314 124.444V124.324C147.314 124.164 147.394 124.084 147.554 124.084H148.442V122.26C148.442 122.1 148.522 122.02 148.682 122.02H148.994C149.154 122.02 149.234 122.1 149.234 122.26V124.084H150.674C150.834 124.084 150.914 124.164 150.914 124.324V124.444C150.914 124.604 150.834 124.684 150.674 124.684H149.234V128.62C149.234 128.916 149.29 129.124 149.402 129.244C149.514 129.364 149.706 129.424 149.978 129.424C150.17 129.424 150.39 129.396 150.638 129.34ZM156.208 128.596C156.264 128.54 156.324 128.512 156.388 128.512C156.444 128.512 156.496 128.536 156.544 128.584L156.7 128.728C156.756 128.784 156.784 128.844 156.784 128.908C156.784 128.956 156.76 129.012 156.712 129.076C156.32 129.468 155.94 129.748 155.572 129.916C155.204 130.076 154.792 130.156 154.336 130.156C153.76 130.156 153.26 130.028 152.836 129.772C152.412 129.516 152.084 129.16 151.852 128.704C151.62 128.24 151.504 127.704 151.504 127.096C151.504 126.48 151.616 125.936 151.84 125.464C152.072 124.984 152.396 124.612 152.812 124.348C153.228 124.076 153.708 123.94 154.252 123.94C155.06 123.94 155.696 124.192 156.16 124.696C156.624 125.2 156.856 125.88 156.856 126.736V126.88C156.848 126.952 156.82 127.008 156.772 127.048C156.732 127.088 156.676 127.108 156.604 127.108H152.308C152.332 127.78 152.508 128.348 152.836 128.812C153.172 129.268 153.672 129.496 154.336 129.496C154.696 129.496 155.012 129.432 155.284 129.304C155.564 129.168 155.872 128.932 156.208 128.596ZM154.252 124.6C153.724 124.6 153.288 124.764 152.944 125.092C152.608 125.412 152.404 125.884 152.332 126.508H156.064C156.048 125.924 155.88 125.46 155.56 125.116C155.24 124.772 154.804 124.6 154.252 124.6ZM162.466 129.712C162.498 129.768 162.514 129.816 162.514 129.856C162.514 129.952 162.45 130 162.322 130H161.962C161.842 130 161.746 129.948 161.674 129.844L160.042 127.444L158.422 129.844C158.35 129.948 158.254 130 158.134 130H157.798C157.734 130 157.682 129.988 157.642 129.964C157.61 129.932 157.594 129.896 157.594 129.856C157.594 129.8 157.61 129.752 157.642 129.712L159.586 126.916L157.798 124.372C157.766 124.332 157.75 124.288 157.75 124.24C157.75 124.136 157.818 124.084 157.954 124.084H158.302C158.422 124.084 158.518 124.136 158.59 124.24L160.054 126.388L161.506 124.24C161.578 124.136 161.674 124.084 161.794 124.084H162.118C162.182 124.084 162.23 124.1 162.262 124.132C162.302 124.156 162.322 124.188 162.322 124.228C162.322 124.284 162.306 124.332 162.274 124.372L160.522 126.88L162.466 129.712ZM166.447 129.34C166.471 129.332 166.503 129.328 166.543 129.328C166.591 129.328 166.635 129.344 166.675 129.376C166.715 129.408 166.739 129.452 166.747 129.508L166.783 129.676C166.791 129.692 166.795 129.72 166.795 129.76C166.795 129.872 166.735 129.94 166.615 129.964C166.327 130.052 166.019 130.096 165.691 130.096C165.171 130.096 164.799 129.98 164.575 129.748C164.359 129.508 164.251 129.164 164.251 128.716V124.684H163.363C163.203 124.684 163.123 124.604 163.123 124.444V124.324C163.123 124.164 163.203 124.084 163.363 124.084H164.251V122.26C164.251 122.1 164.331 122.02 164.491 122.02H164.803C164.963 122.02 165.043 122.1 165.043 122.26V124.084H166.483C166.643 124.084 166.723 124.164 166.723 124.324V124.444C166.723 124.604 166.643 124.684 166.483 124.684H165.043V128.62C165.043 128.916 165.099 129.124 165.211 129.244C165.323 129.364 165.515 129.424 165.787 129.424C165.979 129.424 166.199 129.396 166.447 129.34ZM173.361 129.34C173.385 129.332 173.417 129.328 173.457 129.328C173.505 129.328 173.549 129.344 173.589 129.376C173.629 129.408 173.653 129.452 173.661 129.508L173.697 129.676C173.705 129.692 173.709 129.72 173.709 129.76C173.709 129.872 173.649 129.94 173.529 129.964C173.241 130.052 172.933 130.096 172.605 130.096C172.085 130.096 171.713 129.98 171.489 129.748C171.273 129.508 171.165 129.164 171.165 128.716V124.684H170.277C170.117 124.684 170.037 124.604 170.037 124.444V124.324C170.037 124.164 170.117 124.084 170.277 124.084H171.165V122.26C171.165 122.1 171.245 122.02 171.405 122.02H171.717C171.877 122.02 171.957 122.1 171.957 122.26V124.084H173.397C173.557 124.084 173.637 124.164 173.637 124.324V124.444C173.637 124.604 173.557 124.684 173.397 124.684H171.957V128.62C171.957 128.916 172.013 129.124 172.125 129.244C172.237 129.364 172.429 129.424 172.701 129.424C172.893 129.424 173.113 129.396 173.361 129.34ZM177.485 123.94C178.173 123.94 178.697 124.136 179.057 124.528C179.417 124.912 179.597 125.388 179.597 125.956V129.76C179.597 129.92 179.517 130 179.357 130H179.045C178.885 130 178.805 129.92 178.805 129.76V126.22C178.805 125.692 178.677 125.292 178.421 125.02C178.165 124.748 177.797 124.612 177.317 124.612C177.013 124.612 176.733 124.688 176.477 124.84C176.221 124.984 176.017 125.184 175.865 125.44C175.713 125.696 175.637 125.976 175.637 126.28V129.76C175.637 129.92 175.557 130 175.397 130H175.085C174.925 130 174.845 129.92 174.845 129.76V121.72C174.845 121.56 174.925 121.48 175.085 121.48H175.397C175.557 121.48 175.637 121.56 175.637 121.72V124.852C175.829 124.548 176.085 124.32 176.405 124.168C176.733 124.016 177.093 123.94 177.485 123.94ZM183.629 123.94C184.357 123.94 184.925 124.116 185.333 124.468C185.741 124.812 185.945 125.268 185.945 125.836V129.76C185.945 129.92 185.865 130 185.705 130H185.465C185.305 130 185.225 129.92 185.225 129.76V129.22C185.025 129.54 184.741 129.78 184.373 129.94C184.013 130.1 183.609 130.18 183.161 130.18C182.537 130.18 182.029 130.048 181.637 129.784C181.245 129.52 181.049 129.112 181.049 128.56C181.049 128.12 181.173 127.768 181.421 127.504C181.669 127.232 181.993 127.028 182.393 126.892C182.793 126.748 183.293 126.62 183.893 126.508L185.189 126.28V125.896C185.189 125.488 185.049 125.172 184.769 124.948C184.489 124.716 184.121 124.6 183.665 124.6C183.321 124.6 183.009 124.664 182.729 124.792C182.449 124.92 182.149 125.14 181.829 125.452C181.773 125.508 181.713 125.536 181.649 125.536C181.593 125.536 181.541 125.512 181.493 125.464L181.337 125.32C181.281 125.264 181.253 125.204 181.253 125.14C181.253 125.068 181.281 125.004 181.337 124.948C181.673 124.596 182.025 124.34 182.393 124.18C182.769 124.02 183.181 123.94 183.629 123.94ZM183.197 129.52C183.773 129.52 184.249 129.368 184.625 129.064C185.001 128.76 185.189 128.372 185.189 127.9V126.892L184.073 127.108C183.553 127.212 183.141 127.312 182.837 127.408C182.533 127.504 182.289 127.644 182.105 127.828C181.921 128.012 181.829 128.252 181.829 128.548C181.829 128.852 181.949 129.092 182.189 129.268C182.437 129.436 182.773 129.52 183.197 129.52ZM190.2 129.34C190.224 129.332 190.256 129.328 190.296 129.328C190.344 129.328 190.388 129.344 190.428 129.376C190.468 129.408 190.492 129.452 190.5 129.508L190.536 129.676C190.544 129.692 190.548 129.72 190.548 129.76C190.548 129.872 190.488 129.94 190.368 129.964C190.08 130.052 189.772 130.096 189.444 130.096C188.924 130.096 188.552 129.98 188.328 129.748C188.112 129.508 188.004 129.164 188.004 128.716V124.684H187.116C186.956 124.684 186.876 124.604 186.876 124.444V124.324C186.876 124.164 186.956 124.084 187.116 124.084H188.004V122.26C188.004 122.1 188.084 122.02 188.244 122.02H188.556C188.716 122.02 188.796 122.1 188.796 122.26V124.084H190.236C190.396 124.084 190.476 124.164 190.476 124.324V124.444C190.476 124.604 190.396 124.684 190.236 124.684H188.796V128.62C188.796 128.916 188.852 129.124 188.964 129.244C189.076 129.364 189.268 129.424 189.54 129.424C189.732 129.424 189.952 129.396 190.2 129.34ZM201.051 124.288C201.083 124.152 201.175 124.084 201.327 124.084H201.651C201.739 124.084 201.799 124.108 201.831 124.156C201.871 124.204 201.879 124.268 201.855 124.348L200.307 129.796C200.275 129.932 200.183 130 200.031 130H199.491C199.355 130 199.267 129.932 199.227 129.796L198.675 127.96C198.387 127 198.119 126.016 197.871 125.008C197.631 125.984 197.367 126.976 197.079 127.984L196.551 129.796C196.519 129.932 196.427 130 196.275 130H195.759C195.607 130 195.515 129.932 195.483 129.796L193.935 124.348C193.927 124.332 193.923 124.304 193.923 124.264C193.923 124.208 193.943 124.164 193.983 124.132C194.023 124.1 194.075 124.084 194.139 124.084H194.463C194.615 124.084 194.707 124.152 194.739 124.288L195.315 126.412C195.579 127.38 195.823 128.344 196.047 129.304C196.223 128.592 196.483 127.628 196.827 126.412L197.439 124.288C197.471 124.152 197.563 124.084 197.715 124.084H198.075C198.219 124.084 198.307 124.152 198.339 124.288L198.963 126.412C199.235 127.396 199.491 128.364 199.73 129.316C199.914 128.516 200.163 127.548 200.475 126.412L201.051 124.288ZM205.319 124.036C205.519 124.036 205.755 124.068 206.027 124.132C206.171 124.18 206.227 124.28 206.195 124.432L206.147 124.624C206.107 124.776 206.007 124.832 205.847 124.792C205.655 124.744 205.479 124.72 205.319 124.72C204.911 124.72 204.571 124.896 204.299 125.248C204.035 125.6 203.903 126.088 203.903 126.712V129.76C203.903 129.92 203.823 130 203.663 130H203.351C203.191 130 203.111 129.92 203.111 129.76V124.324C203.111 124.164 203.191 124.084 203.351 124.084H203.615C203.775 124.084 203.855 124.164 203.855 124.324V124.984C203.991 124.688 204.183 124.456 204.431 124.288C204.687 124.12 204.983 124.036 205.319 124.036ZM209.398 123.94C210.126 123.94 210.694 124.116 211.102 124.468C211.51 124.812 211.714 125.268 211.714 125.836V129.76C211.714 129.92 211.634 130 211.474 130H211.234C211.074 130 210.994 129.92 210.994 129.76V129.22C210.794 129.54 210.51 129.78 210.142 129.94C209.782 130.1 209.378 130.18 208.93 130.18C208.306 130.18 207.798 130.048 207.406 129.784C207.014 129.52 206.818 129.112 206.818 128.56C206.818 128.12 206.942 127.768 207.19 127.504C207.438 127.232 207.762 127.028 208.162 126.892C208.562 126.748 209.062 126.62 209.662 126.508L210.958 126.28V125.896C210.958 125.488 210.818 125.172 210.538 124.948C210.258 124.716 209.89 124.6 209.434 124.6C209.09 124.6 208.778 124.664 208.498 124.792C208.218 124.92 207.918 125.14 207.598 125.452C207.542 125.508 207.482 125.536 207.418 125.536C207.362 125.536 207.31 125.512 207.262 125.464L207.106 125.32C207.05 125.264 207.022 125.204 207.022 125.14C207.022 125.068 207.05 125.004 207.106 124.948C207.442 124.596 207.794 124.34 208.162 124.18C208.538 124.02 208.95 123.94 209.398 123.94ZM208.966 129.52C209.542 129.52 210.018 129.368 210.394 129.064C210.77 128.76 210.958 128.372 210.958 127.9V126.892L209.842 127.108C209.322 127.212 208.91 127.312 208.606 127.408C208.302 127.504 208.058 127.644 207.874 127.828C207.69 128.012 207.598 128.252 207.598 128.548C207.598 128.852 207.718 129.092 207.958 129.268C208.206 129.436 208.542 129.52 208.966 129.52ZM216.302 123.952C216.798 123.952 217.242 124.084 217.634 124.348C218.034 124.604 218.346 124.968 218.57 125.44C218.794 125.904 218.906 126.436 218.906 127.036C218.906 127.644 218.794 128.184 218.57 128.656C218.346 129.128 218.038 129.496 217.646 129.76C217.254 130.016 216.806 130.144 216.302 130.144C215.374 130.144 214.694 129.804 214.262 129.124V131.968C214.262 132.128 214.182 132.208 214.022 132.208H213.71C213.55 132.208 213.47 132.128 213.47 131.968V124.324C213.47 124.164 213.55 124.084 213.71 124.084H213.974C214.134 124.084 214.214 124.164 214.214 124.324V125.08C214.43 124.712 214.714 124.432 215.066 124.24C215.418 124.048 215.83 123.952 216.302 123.952ZM216.242 129.472C216.802 129.472 217.25 129.248 217.586 128.8C217.922 128.352 218.09 127.764 218.09 127.036C218.09 126.316 217.922 125.736 217.586 125.296C217.25 124.848 216.802 124.624 216.242 124.624C215.642 124.624 215.154 124.84 214.778 125.272C214.41 125.696 214.226 126.284 214.226 127.036C214.226 127.788 214.414 128.384 214.79 128.824C215.166 129.256 215.65 129.472 216.242 129.472ZM222.378 130.156C221.89 130.156 221.458 130.088 221.082 129.952C220.714 129.808 220.326 129.568 219.918 129.232C219.846 129.184 219.81 129.128 219.81 129.064C219.81 129.008 219.838 128.952 219.894 128.896L220.05 128.728C220.098 128.664 220.158 128.632 220.23 128.632C220.286 128.632 220.338 128.656 220.386 128.704C220.77 129 221.11 129.208 221.406 129.328C221.702 129.44 222.026 129.496 222.378 129.496C222.818 129.496 223.178 129.4 223.458 129.208C223.738 129.008 223.878 128.74 223.878 128.404C223.878 128.068 223.734 127.82 223.446 127.66C223.158 127.5 222.714 127.356 222.114 127.228C221.586 127.116 221.17 127 220.866 126.88C220.57 126.752 220.35 126.592 220.206 126.4C220.062 126.208 219.99 125.956 219.99 125.644C219.99 125.132 220.198 124.72 220.614 124.408C221.03 124.096 221.554 123.94 222.186 123.94C222.618 123.94 223.002 123.996 223.338 124.108C223.682 124.212 224.026 124.388 224.37 124.636C224.442 124.692 224.478 124.752 224.478 124.816C224.478 124.856 224.458 124.908 224.418 124.972L224.274 125.152C224.234 125.216 224.178 125.248 224.106 125.248C224.042 125.248 223.986 125.228 223.938 125.188C223.61 124.956 223.318 124.8 223.062 124.72C222.814 124.64 222.53 124.6 222.21 124.6C221.77 124.6 221.418 124.696 221.154 124.888C220.89 125.08 220.758 125.324 220.758 125.62C220.758 125.804 220.818 125.952 220.938 126.064C221.058 126.176 221.23 126.272 221.454 126.352C221.678 126.424 222.006 126.508 222.438 126.604C223.238 126.78 223.806 126.996 224.142 127.252C224.486 127.508 224.658 127.88 224.658 128.368C224.658 128.904 224.446 129.336 224.022 129.664C223.598 129.992 223.05 130.156 222.378 130.156ZM231.427 129.34C231.451 129.332 231.483 129.328 231.523 129.328C231.571 129.328 231.615 129.344 231.655 129.376C231.695 129.408 231.719 129.452 231.727 129.508L231.763 129.676C231.771 129.692 231.775 129.72 231.775 129.76C231.775 129.872 231.715 129.94 231.595 129.964C231.307 130.052 230.999 130.096 230.671 130.096C230.151 130.096 229.779 129.98 229.555 129.748C229.339 129.508 229.231 129.164 229.231 128.716V124.684H228.343C228.183 124.684 228.103 124.604 228.103 124.444V124.324C228.103 124.164 228.183 124.084 228.343 124.084H229.231V122.26C229.231 122.1 229.311 122.02 229.471 122.02H229.783C229.943 122.02 230.023 122.1 230.023 122.26V124.084H231.463C231.623 124.084 231.703 124.164 231.703 124.324V124.444C231.703 124.604 231.623 124.684 231.463 124.684H230.023V128.62C230.023 128.916 230.079 129.124 230.191 129.244C230.303 129.364 230.495 129.424 230.767 129.424C230.959 129.424 231.179 129.396 231.427 129.34ZM235.137 130.156C234.585 130.156 234.093 130.024 233.661 129.76C233.229 129.496 232.893 129.132 232.653 128.668C232.413 128.196 232.293 127.656 232.293 127.048C232.293 126.44 232.413 125.904 232.653 125.44C232.893 124.968 233.229 124.6 233.661 124.336C234.093 124.072 234.585 123.94 235.137 123.94C235.689 123.94 236.181 124.072 236.613 124.336C237.045 124.6 237.381 124.968 237.621 125.44C237.861 125.904 237.981 126.44 237.981 127.048C237.981 127.656 237.861 128.196 237.621 128.668C237.381 129.132 237.045 129.496 236.613 129.76C236.181 130.024 235.689 130.156 235.137 130.156ZM235.137 129.496C235.753 129.496 236.245 129.272 236.613 128.824C236.981 128.368 237.165 127.776 237.165 127.048C237.165 126.32 236.981 125.732 236.613 125.284C236.245 124.828 235.753 124.6 235.137 124.6C234.521 124.6 234.029 124.828 233.661 125.284C233.293 125.732 233.109 126.32 233.109 127.048C233.109 127.776 233.293 128.368 233.661 128.824C234.029 129.272 234.521 129.496 235.137 129.496ZM244.378 121.996C244.018 121.996 243.762 122.092 243.61 122.284C243.458 122.468 243.382 122.78 243.382 123.22V124.084H244.702C244.862 124.084 244.942 124.164 244.942 124.324V124.444C244.942 124.604 244.862 124.684 244.702 124.684H243.382V129.76C243.382 129.92 243.302 130 243.142 130H242.83C242.67 130 242.59 129.92 242.59 129.76V124.684H241.702C241.542 124.684 241.462 124.604 241.462 124.444V124.324C241.462 124.164 241.542 124.084 241.702 124.084H242.59V123.088C242.59 122.536 242.734 122.104 243.022 121.792C243.318 121.48 243.738 121.324 244.282 121.324C244.586 121.324 244.898 121.368 245.218 121.456C245.37 121.504 245.426 121.604 245.386 121.756L245.338 121.924C245.298 122.036 245.218 122.092 245.098 122.092C245.074 122.092 245.022 122.084 244.942 122.068C244.766 122.02 244.578 121.996 244.378 121.996ZM248.203 130.156C247.651 130.156 247.159 130.024 246.727 129.76C246.295 129.496 245.959 129.132 245.719 128.668C245.479 128.196 245.359 127.656 245.359 127.048C245.359 126.44 245.479 125.904 245.719 125.44C245.959 124.968 246.295 124.6 246.727 124.336C247.159 124.072 247.651 123.94 248.203 123.94C248.755 123.94 249.247 124.072 249.679 124.336C250.111 124.6 250.447 124.968 250.687 125.44C250.927 125.904 251.047 126.44 251.047 127.048C251.047 127.656 250.927 128.196 250.687 128.668C250.447 129.132 250.111 129.496 249.679 129.76C249.247 130.024 248.755 130.156 248.203 130.156ZM248.203 129.496C248.819 129.496 249.311 129.272 249.679 128.824C250.047 128.368 250.231 127.776 250.231 127.048C250.231 126.32 250.047 125.732 249.679 125.284C249.311 124.828 248.819 124.6 248.203 124.6C247.587 124.6 247.095 124.828 246.727 125.284C246.359 125.732 246.175 126.32 246.175 127.048C246.175 127.776 246.359 128.368 246.727 128.824C247.095 129.272 247.587 129.496 248.203 129.496ZM254.631 124.036C254.831 124.036 255.067 124.068 255.339 124.132C255.483 124.18 255.539 124.28 255.507 124.432L255.459 124.624C255.419 124.776 255.319 124.832 255.159 124.792C254.967 124.744 254.791 124.72 254.631 124.72C254.223 124.72 253.883 124.896 253.611 125.248C253.347 125.6 253.215 126.088 253.215 126.712V129.76C253.215 129.92 253.135 130 252.975 130H252.663C252.503 130 252.423 129.92 252.423 129.76V124.324C252.423 124.164 252.503 124.084 252.663 124.084H252.927C253.087 124.084 253.167 124.164 253.167 124.324V124.984C253.303 124.688 253.495 124.456 253.743 124.288C253.999 124.12 254.295 124.036 254.631 124.036ZM262.595 123.94C263.235 123.94 263.723 124.124 264.059 124.492C264.403 124.852 264.575 125.316 264.575 125.884V129.76C264.575 129.92 264.495 130 264.335 130H264.023C263.863 130 263.783 129.92 263.783 129.76V126.1C263.783 125.62 263.671 125.252 263.447 124.996C263.231 124.74 262.907 124.612 262.475 124.612C262.019 124.612 261.655 124.764 261.383 125.068C261.111 125.372 260.975 125.764 260.975 126.244V129.76C260.975 129.92 260.895 130 260.735 130H260.423C260.263 130 260.183 129.92 260.183 129.76V126.1C260.183 125.62 260.071 125.252 259.847 124.996C259.631 124.74 259.303 124.612 258.863 124.612C258.455 124.612 258.115 124.74 257.843 124.996C257.579 125.252 257.423 125.588 257.375 126.004V129.76C257.375 129.92 257.295 130 257.135 130H256.823C256.663 130 256.583 129.92 256.583 129.76V124.324C256.583 124.164 256.663 124.084 256.823 124.084H257.087C257.247 124.084 257.327 124.164 257.327 124.324V124.816C257.687 124.232 258.259 123.94 259.043 123.94C259.451 123.94 259.799 124.032 260.087 124.216C260.383 124.392 260.603 124.632 260.747 124.936C261.171 124.272 261.787 123.94 262.595 123.94ZM73.168 139.94C73.896 139.94 74.464 140.116 74.872 140.468C75.28 140.812 75.484 141.268 75.484 141.836V145.76C75.484 145.92 75.404 146 75.244 146H75.004C74.844 146 74.764 145.92 74.764 145.76V145.22C74.564 145.54 74.28 145.78 73.912 145.94C73.552 146.1 73.148 146.18 72.7 146.18C72.076 146.18 71.568 146.048 71.176 145.784C70.784 145.52 70.588 145.112 70.588 144.56C70.588 144.12 70.712 143.768 70.96 143.504C71.208 143.232 71.532 143.028 71.932 142.892C72.332 142.748 72.832 142.62 73.432 142.508L74.728 142.28V141.896C74.728 141.488 74.588 141.172 74.308 140.948C74.028 140.716 73.66 140.6 73.204 140.6C72.86 140.6 72.548 140.664 72.268 140.792C71.988 140.92 71.688 141.14 71.368 141.452C71.312 141.508 71.252 141.536 71.188 141.536C71.132 141.536 71.08 141.512 71.032 141.464L70.876 141.32C70.82 141.264 70.792 141.204 70.792 141.14C70.792 141.068 70.82 141.004 70.876 140.948C71.212 140.596 71.564 140.34 71.932 140.18C72.308 140.02 72.72 139.94 73.168 139.94ZM72.736 145.52C73.312 145.52 73.788 145.368 74.164 145.064C74.54 144.76 74.728 144.372 74.728 143.9V142.892L73.612 143.108C73.092 143.212 72.68 143.312 72.376 143.408C72.072 143.504 71.828 143.644 71.644 143.828C71.46 144.012 71.368 144.252 71.368 144.548C71.368 144.852 71.488 145.092 71.728 145.268C71.976 145.436 72.312 145.52 72.736 145.52ZM79.8796 139.94C80.5756 139.94 81.0996 140.132 81.4516 140.516C81.8116 140.9 81.9916 141.38 81.9916 141.956V145.76C81.9916 145.92 81.9116 146 81.7516 146H81.4396C81.2796 146 81.1996 145.92 81.1996 145.76V142.22C81.1996 141.692 81.0716 141.292 80.8156 141.02C80.5596 140.748 80.1916 140.612 79.7116 140.612C79.4076 140.612 79.1276 140.688 78.8716 140.84C78.6156 140.984 78.4116 141.184 78.2596 141.44C78.1076 141.696 78.0316 141.976 78.0316 142.28V145.76C78.0316 145.92 77.9516 146 77.7916 146H77.4796C77.3196 146 77.2396 145.92 77.2396 145.76V140.324C77.2396 140.164 77.3196 140.084 77.4796 140.084H77.7436C77.9036 140.084 77.9836 140.164 77.9836 140.324V140.9C78.1836 140.58 78.4476 140.34 78.7756 140.18C79.1036 140.02 79.4716 139.94 79.8796 139.94ZM86.1915 146.156C85.6395 146.156 85.1475 146.024 84.7155 145.76C84.2835 145.496 83.9475 145.132 83.7075 144.668C83.4675 144.196 83.3475 143.656 83.3475 143.048C83.3475 142.44 83.4675 141.904 83.7075 141.44C83.9475 140.968 84.2835 140.6 84.7155 140.336C85.1475 140.072 85.6395 139.94 86.1915 139.94C86.7435 139.94 87.2355 140.072 87.6675 140.336C88.0995 140.6 88.4355 140.968 88.6755 141.44C88.9155 141.904 89.0355 142.44 89.0355 143.048C89.0355 143.656 88.9155 144.196 88.6755 144.668C88.4355 145.132 88.0995 145.496 87.6675 145.76C87.2355 146.024 86.7435 146.156 86.1915 146.156ZM86.1915 145.496C86.8075 145.496 87.2995 145.272 87.6675 144.824C88.0355 144.368 88.2195 143.776 88.2195 143.048C88.2195 142.32 88.0355 141.732 87.6675 141.284C87.2995 140.828 86.8075 140.6 86.1915 140.6C85.5755 140.6 85.0835 140.828 84.7155 141.284C84.3475 141.732 84.1635 142.32 84.1635 143.048C84.1635 143.776 84.3475 144.368 84.7155 144.824C85.0835 145.272 85.5755 145.496 86.1915 145.496ZM92.8997 145.34C92.9237 145.332 92.9557 145.328 92.9957 145.328C93.0437 145.328 93.0877 145.344 93.1277 145.376C93.1677 145.408 93.1917 145.452 93.1997 145.508L93.2357 145.676C93.2437 145.692 93.2477 145.72 93.2477 145.76C93.2477 145.872 93.1877 145.94 93.0677 145.964C92.7797 146.052 92.4717 146.096 92.1437 146.096C91.6237 146.096 91.2517 145.98 91.0277 145.748C90.8117 145.508 90.7037 145.164 90.7037 144.716V140.684H89.8157C89.6557 140.684 89.5757 140.604 89.5757 140.444V140.324C89.5757 140.164 89.6557 140.084 89.8157 140.084H90.7037V138.26C90.7037 138.1 90.7837 138.02 90.9437 138.02H91.2557C91.4157 138.02 91.4957 138.1 91.4957 138.26V140.084H92.9357C93.0957 140.084 93.1757 140.164 93.1757 140.324V140.444C93.1757 140.604 93.0957 140.684 92.9357 140.684H91.4957V144.62C91.4957 144.916 91.5517 145.124 91.6637 145.244C91.7757 145.364 91.9677 145.424 92.2397 145.424C92.4317 145.424 92.6517 145.396 92.8997 145.34ZM97.0241 139.94C97.7121 139.94 98.2361 140.136 98.5961 140.528C98.9561 140.912 99.1361 141.388 99.1361 141.956V145.76C99.1361 145.92 99.0561 146 98.8961 146H98.5841C98.4241 146 98.3441 145.92 98.3441 145.76V142.22C98.3441 141.692 98.2161 141.292 97.9601 141.02C97.7041 140.748 97.3361 140.612 96.8561 140.612C96.5521 140.612 96.2721 140.688 96.0161 140.84C95.7601 140.984 95.5561 141.184 95.4041 141.44C95.2521 141.696 95.1761 141.976 95.1761 142.28V145.76C95.1761 145.92 95.0961 146 94.9361 146H94.6241C94.4641 146 94.3841 145.92 94.3841 145.76V137.72C94.3841 137.56 94.4641 137.48 94.6241 137.48H94.9361C95.0961 137.48 95.1761 137.56 95.1761 137.72V140.852C95.3681 140.548 95.6241 140.32 95.9441 140.168C96.2721 140.016 96.6321 139.94 97.0241 139.94ZM105.196 144.596C105.252 144.54 105.312 144.512 105.376 144.512C105.432 144.512 105.484 144.536 105.532 144.584L105.688 144.728C105.744 144.784 105.772 144.844 105.772 144.908C105.772 144.956 105.748 145.012 105.7 145.076C105.308 145.468 104.928 145.748 104.56 145.916C104.192 146.076 103.78 146.156 103.324 146.156C102.748 146.156 102.248 146.028 101.824 145.772C101.4 145.516 101.072 145.16 100.84 144.704C100.608 144.24 100.492 143.704 100.492 143.096C100.492 142.48 100.604 141.936 100.828 141.464C101.06 140.984 101.384 140.612 101.8 140.348C102.216 140.076 102.696 139.94 103.24 139.94C104.048 139.94 104.684 140.192 105.148 140.696C105.612 141.2 105.844 141.88 105.844 142.736V142.88C105.836 142.952 105.808 143.008 105.76 143.048C105.72 143.088 105.664 143.108 105.592 143.108H101.296C101.32 143.78 101.496 144.348 101.824 144.812C102.16 145.268 102.66 145.496 103.324 145.496C103.684 145.496 104 145.432 104.272 145.304C104.552 145.168 104.86 144.932 105.196 144.596ZM103.24 140.6C102.712 140.6 102.276 140.764 101.932 141.092C101.596 141.412 101.392 141.884 101.32 142.508H105.052C105.036 141.924 104.868 141.46 104.548 141.116C104.228 140.772 103.792 140.6 103.24 140.6ZM109.471 140.036C109.671 140.036 109.907 140.068 110.179 140.132C110.323 140.18 110.379 140.28 110.347 140.432L110.299 140.624C110.259 140.776 110.159 140.832 109.999 140.792C109.807 140.744 109.631 140.72 109.471 140.72C109.063 140.72 108.723 140.896 108.451 141.248C108.187 141.6 108.055 142.088 108.055 142.712V145.76C108.055 145.92 107.975 146 107.815 146H107.503C107.343 146 107.263 145.92 107.263 145.76V140.324C107.263 140.164 107.343 140.084 107.503 140.084H107.767C107.927 140.084 108.007 140.164 108.007 140.324V140.984C108.143 140.688 108.335 140.456 108.583 140.288C108.839 140.12 109.135 140.036 109.471 140.036ZM114.441 146C114.281 146 114.201 145.92 114.201 145.76V137.72C114.201 137.56 114.281 137.48 114.441 137.48H114.753C114.913 137.48 114.993 137.56 114.993 137.72V145.76C114.993 145.92 114.913 146 114.753 146H114.441ZM117.175 138.584C117.015 138.584 116.879 138.528 116.767 138.416C116.663 138.304 116.611 138.168 116.611 138.008C116.611 137.848 116.663 137.716 116.767 137.612C116.879 137.508 117.015 137.456 117.175 137.456C117.343 137.456 117.479 137.508 117.583 137.612C117.695 137.716 117.751 137.848 117.751 138.008C117.751 138.168 117.695 138.304 117.583 138.416C117.479 138.528 117.343 138.584 117.175 138.584ZM117.019 146C116.859 146 116.779 145.92 116.779 145.76V140.324C116.779 140.164 116.859 140.084 117.019 140.084H117.331C117.491 140.084 117.571 140.164 117.571 140.324V145.76C117.571 145.92 117.491 146 117.331 146H117.019ZM121.973 139.94C122.669 139.94 123.193 140.132 123.545 140.516C123.905 140.9 124.085 141.38 124.085 141.956V145.76C124.085 145.92 124.005 146 123.845 146H123.533C123.373 146 123.293 145.92 123.293 145.76V142.22C123.293 141.692 123.165 141.292 122.909 141.02C122.653 140.748 122.285 140.612 121.805 140.612C121.501 140.612 121.221 140.688 120.965 140.84C120.709 140.984 120.505 141.184 120.353 141.44C120.201 141.696 120.125 141.976 120.125 142.28V145.76C120.125 145.92 120.045 146 119.885 146H119.573C119.413 146 119.333 145.92 119.333 145.76V140.324C119.333 140.164 119.413 140.084 119.573 140.084H119.837C119.997 140.084 120.077 140.164 120.077 140.324V140.9C120.277 140.58 120.541 140.34 120.869 140.18C121.197 140.02 121.565 139.94 121.973 139.94ZM130.145 144.596C130.201 144.54 130.261 144.512 130.325 144.512C130.381 144.512 130.433 144.536 130.481 144.584L130.637 144.728C130.693 144.784 130.721 144.844 130.721 144.908C130.721 144.956 130.697 145.012 130.649 145.076C130.257 145.468 129.877 145.748 129.509 145.916C129.141 146.076 128.729 146.156 128.273 146.156C127.697 146.156 127.197 146.028 126.773 145.772C126.349 145.516 126.021 145.16 125.789 144.704C125.557 144.24 125.441 143.704 125.441 143.096C125.441 142.48 125.553 141.936 125.777 141.464C126.009 140.984 126.333 140.612 126.749 140.348C127.165 140.076 127.645 139.94 128.189 139.94C128.997 139.94 129.633 140.192 130.097 140.696C130.561 141.2 130.793 141.88 130.793 142.736V142.88C130.785 142.952 130.757 143.008 130.709 143.048C130.669 143.088 130.613 143.108 130.541 143.108H126.245C126.269 143.78 126.445 144.348 126.773 144.812C127.109 145.268 127.609 145.496 128.273 145.496C128.633 145.496 128.949 145.432 129.221 145.304C129.501 145.168 129.809 144.932 130.145 144.596ZM128.189 140.6C127.661 140.6 127.225 140.764 126.881 141.092C126.545 141.412 126.341 141.884 126.269 142.508H130.001C129.985 141.924 129.817 141.46 129.497 141.116C129.177 140.772 128.741 140.6 128.189 140.6ZM132.536 146.084C132.368 146.084 132.224 146.024 132.104 145.904C131.984 145.784 131.924 145.64 131.924 145.472C131.924 145.304 131.984 145.16 132.104 145.04C132.224 144.92 132.368 144.86 132.536 144.86C132.704 144.86 132.848 144.92 132.968 145.04C133.088 145.16 133.148 145.304 133.148 145.472C133.148 145.64 133.088 145.784 132.968 145.904C132.848 146.024 132.704 146.084 132.536 146.084Z" fill="#464646"/>
<defs>
<filter id="filter0_d_1793_18388" x="262.293" y="103.293" width="7.41431" height="8.41422" filterUnits="userSpaceOnUse" color-interpolation-filters="sRGB">
<feFlood flood-opacity="0" result="BackgroundImageFix"/>
<feColorMatrix in="SourceAlpha" type="matrix" values="0 0 0 0 0 0 0 0 0 0 0 0 0 0 0 0 0 0 127 0" result="hardAlpha"/>
<feOffset dy="1"/>
<feColorMatrix type="matrix" values="0 0 0 0 1 0 0 0 0 1 0 0 0 0 1 0 0 0 0.5 0"/>
<feBlend mode="normal" in2="BackgroundImageFix" result="effect1_dropShadow_1793_18388"/>
<feBlend mode="normal" in="SourceGraphic" in2="effect1_dropShadow_1793_18388" result="shape"/>
</filter>
</defs>
</svg>
