<svg width="344" height="210" viewBox="0 0 344 210" fill="none" xmlns="http://www.w3.org/2000/svg">
<rect width="344" height="210" fill="#F5F5F5"/>
<path d="M79.694 44.466C79.778 44.1953 79.9647 44.06 80.254 44.06H81.85C82.0087 44.06 82.13 44.102 82.214 44.186C82.298 44.27 82.34 44.3913 82.34 44.55V53.51C82.34 53.6593 82.298 53.7807 82.214 53.874C82.13 53.958 82.0087 54 81.85 54H81.276C81.1267 54 81.0053 53.958 80.912 53.874C80.828 53.7807 80.786 53.6593 80.786 53.51V49.002C80.786 48.442 80.7953 47.602 80.814 46.482L80.828 45.264C80.716 45.6187 80.45 46.426 80.03 47.686L79.596 49.002L78.056 53.594C77.972 53.8647 77.7853 54 77.496 54H76.95C76.6607 54 76.474 53.8693 76.39 53.608L74.822 49.002C74.2713 47.4153 73.856 46.1693 73.576 45.264C73.5947 46.9067 73.604 48.1527 73.604 49.002V53.51C73.604 53.6593 73.562 53.7807 73.478 53.874C73.394 53.958 73.2727 54 73.114 54H72.568C72.4187 54 72.2973 53.958 72.204 53.874C72.12 53.7807 72.078 53.6593 72.078 53.51V44.55C72.078 44.3913 72.12 44.27 72.204 44.186C72.2973 44.102 72.4187 44.06 72.568 44.06H74.192C74.4813 44.06 74.668 44.1907 74.752 44.452L76.054 48.288C76.6047 49.9307 76.9967 51.1767 77.23 52.026C77.5287 50.9807 77.9207 49.7347 78.406 48.288L79.694 44.466ZM87.1801 46.888C88.1134 46.888 88.8321 47.1073 89.3361 47.546C89.8401 47.9753 90.0921 48.5493 90.0921 49.268V53.51C90.0921 53.6593 90.0501 53.7807 89.9661 53.874C89.8821 53.958 89.7607 54 89.6021 54H89.2381C89.0887 54 88.9674 53.958 88.8741 53.874C88.7901 53.7807 88.7481 53.6593 88.7481 53.51V53.202C88.5241 53.5287 88.2161 53.7807 87.8241 53.958C87.4321 54.1353 86.9747 54.224 86.4521 54.224C85.7334 54.224 85.1407 54.0653 84.6741 53.748C84.2167 53.4213 83.9881 52.9313 83.9881 52.278C83.9881 51.55 84.2587 51.0133 84.8001 50.668C85.3507 50.3133 86.1114 50.0473 87.0821 49.87L88.6641 49.576V49.324C88.6641 48.9413 88.5287 48.6473 88.2581 48.442C87.9967 48.2273 87.6467 48.12 87.2081 48.12C86.8347 48.12 86.5081 48.1853 86.2281 48.316C85.9574 48.4373 85.6634 48.6427 85.3461 48.932C85.2247 49.0347 85.1081 49.086 84.9961 49.086C84.8841 49.086 84.7674 49.0347 84.6461 48.932L84.4221 48.736C84.3007 48.624 84.2401 48.5027 84.2401 48.372C84.2401 48.2507 84.2961 48.134 84.4081 48.022C84.8094 47.6393 85.2341 47.3547 85.6821 47.168C86.1301 46.9813 86.6294 46.888 87.1801 46.888ZM86.6621 53.034C87.2221 53.034 87.6934 52.8847 88.0761 52.586C88.4681 52.2873 88.6641 51.858 88.6641 51.298V50.654L87.4461 50.906C86.7647 51.046 86.2607 51.2047 85.9341 51.382C85.6074 51.5593 85.4441 51.83 85.4441 52.194C85.4441 52.4553 85.5514 52.6607 85.7661 52.81C85.9807 52.9593 86.2794 53.034 86.6621 53.034ZM94.8956 47.028C95.1009 47.028 95.3109 47.0513 95.5256 47.098C95.7776 47.154 95.9036 47.3033 95.9036 47.546C95.9036 47.6113 95.8989 47.658 95.8896 47.686L95.8196 48.022C95.7636 48.2833 95.6236 48.414 95.3996 48.414L95.2736 48.4C95.1056 48.372 94.9563 48.358 94.8256 48.358C94.3589 48.358 93.9809 48.5447 93.6916 48.918C93.4116 49.282 93.2716 49.7907 93.2716 50.444V53.51C93.2716 53.6593 93.2296 53.7807 93.1456 53.874C93.0616 53.958 92.9403 54 92.7816 54H92.2776C92.1283 54 92.0069 53.958 91.9136 53.874C91.8296 53.7807 91.7876 53.6593 91.7876 53.51V47.588C91.7876 47.4293 91.8296 47.308 91.9136 47.224C92.0069 47.14 92.1283 47.098 92.2776 47.098H92.6836C92.8423 47.098 92.9636 47.14 93.0476 47.224C93.1316 47.308 93.1736 47.4293 93.1736 47.588V48.134C93.3416 47.7887 93.5703 47.518 93.8596 47.322C94.1489 47.126 94.4943 47.028 94.8956 47.028ZM102.093 54C101.832 54 101.636 53.8927 101.505 53.678L99.5729 50.682L98.4669 51.802V53.51C98.4669 53.6593 98.4249 53.7807 98.3409 53.874C98.2569 53.958 98.1356 54 97.9769 54H97.4729C97.3236 54 97.2022 53.958 97.1089 53.874C97.0249 53.7807 96.9829 53.6593 96.9829 53.51V44.55C96.9829 44.3913 97.0249 44.27 97.1089 44.186C97.2022 44.102 97.3236 44.06 97.4729 44.06H97.9769C98.1356 44.06 98.2569 44.102 98.3409 44.186C98.4249 44.27 98.4669 44.3913 98.4669 44.55V50.164L101.113 47.364C101.281 47.1867 101.486 47.098 101.729 47.098H102.261C102.401 47.098 102.504 47.126 102.569 47.182C102.644 47.2287 102.681 47.294 102.681 47.378C102.681 47.49 102.63 47.5973 102.527 47.7L100.595 49.716L102.975 53.412C103.04 53.5147 103.073 53.608 103.073 53.692C103.073 53.7853 103.036 53.86 102.961 53.916C102.886 53.972 102.784 54 102.653 54H102.093ZM108.939 52.236C109.06 52.1333 109.177 52.082 109.289 52.082C109.401 52.082 109.517 52.1427 109.639 52.264L109.835 52.474C109.937 52.5953 109.989 52.712 109.989 52.824C109.989 52.9453 109.928 53.062 109.807 53.174C109.377 53.5473 108.948 53.8133 108.519 53.972C108.099 54.1307 107.632 54.21 107.119 54.21C106.4 54.21 105.775 54.0607 105.243 53.762C104.72 53.4633 104.314 53.0433 104.025 52.502C103.745 51.9513 103.605 51.3167 103.605 50.598C103.605 49.8887 103.74 49.254 104.011 48.694C104.291 48.1247 104.683 47.6813 105.187 47.364C105.7 47.0467 106.297 46.888 106.979 46.888C107.996 46.888 108.78 47.1913 109.331 47.798C109.881 48.3953 110.157 49.2213 110.157 50.276V50.402C110.147 50.5513 110.101 50.668 110.017 50.752C109.933 50.836 109.811 50.878 109.653 50.878H105.061C105.117 51.494 105.317 51.998 105.663 52.39C106.017 52.7727 106.512 52.964 107.147 52.964C107.492 52.964 107.795 52.9127 108.057 52.81C108.318 52.698 108.612 52.5067 108.939 52.236ZM106.951 48.064C106.437 48.064 106.022 48.218 105.705 48.526C105.397 48.8247 105.196 49.2493 105.103 49.8H108.701C108.663 49.2587 108.495 48.834 108.197 48.526C107.898 48.218 107.483 48.064 106.951 48.064ZM114.766 52.824C114.794 52.8147 114.836 52.81 114.892 52.81C115.125 52.81 115.265 52.9453 115.312 53.216L115.354 53.44C115.363 53.468 115.368 53.5147 115.368 53.58C115.368 53.8133 115.237 53.9627 114.976 54.028C114.603 54.112 114.262 54.154 113.954 54.154C113.291 54.154 112.811 54 112.512 53.692C112.223 53.384 112.078 52.922 112.078 52.306V48.232H111.308C111.159 48.232 111.037 48.19 110.944 48.106C110.86 48.0127 110.818 47.8913 110.818 47.742V47.588C110.818 47.4293 110.86 47.308 110.944 47.224C111.037 47.14 111.159 47.098 111.308 47.098H112.078V45.362C112.078 45.2033 112.12 45.082 112.204 44.998C112.297 44.914 112.419 44.872 112.568 44.872H113.072C113.231 44.872 113.352 44.914 113.436 44.998C113.52 45.082 113.562 45.2033 113.562 45.362V47.098H114.822C114.981 47.098 115.102 47.14 115.186 47.224C115.27 47.308 115.312 47.4293 115.312 47.588V47.742C115.312 47.8913 115.27 48.0127 115.186 48.106C115.102 48.19 114.981 48.232 114.822 48.232H113.562V52.124C113.562 52.3947 113.618 52.586 113.73 52.698C113.851 52.81 114.043 52.866 114.304 52.866C114.416 52.866 114.57 52.852 114.766 52.824ZM119.303 54.21C118.734 54.21 118.225 54.14 117.777 54C117.338 53.8507 116.89 53.594 116.433 53.23C116.293 53.1273 116.223 53.0107 116.223 52.88C116.223 52.7773 116.274 52.6653 116.377 52.544L116.587 52.306C116.699 52.1753 116.82 52.11 116.951 52.11C117.054 52.11 117.166 52.1567 117.287 52.25C117.679 52.5393 118.024 52.74 118.323 52.852C118.622 52.9547 118.958 53.006 119.331 53.006C119.732 53.006 120.059 52.9267 120.311 52.768C120.572 52.6 120.703 52.376 120.703 52.096C120.703 51.8813 120.628 51.7133 120.479 51.592C120.339 51.4613 120.152 51.3633 119.919 51.298C119.686 51.2233 119.34 51.1393 118.883 51.046C118.239 50.906 117.735 50.7567 117.371 50.598C117.016 50.43 116.76 50.22 116.601 49.968C116.442 49.716 116.363 49.394 116.363 49.002C116.363 48.6007 116.475 48.2413 116.699 47.924C116.932 47.6067 117.254 47.3547 117.665 47.168C118.085 46.9813 118.575 46.888 119.135 46.888C119.639 46.888 120.087 46.944 120.479 47.056C120.88 47.168 121.272 47.3593 121.655 47.63C121.804 47.742 121.879 47.868 121.879 48.008C121.879 48.1013 121.832 48.2087 121.739 48.33L121.557 48.554C121.454 48.6847 121.328 48.75 121.179 48.75C121.067 48.75 120.96 48.7127 120.857 48.638C120.549 48.4327 120.264 48.2927 120.003 48.218C119.742 48.134 119.448 48.092 119.121 48.092C118.72 48.092 118.398 48.1713 118.155 48.33C117.912 48.4887 117.791 48.694 117.791 48.946C117.791 49.114 117.847 49.2493 117.959 49.352C118.08 49.4453 118.248 49.5293 118.463 49.604C118.687 49.6693 119.037 49.7533 119.513 49.856C120.157 49.996 120.666 50.1547 121.039 50.332C121.422 50.5 121.702 50.7193 121.879 50.99C122.066 51.2513 122.159 51.592 122.159 52.012C122.159 52.6653 121.898 53.1973 121.375 53.608C120.862 54.0093 120.171 54.21 119.303 54.21Z" fill="#464646"/>
<rect x="71.5" y="62.5" width="202" height="87" rx="3.5" fill="white"/>
<path d="M88.648 90.616C88.6907 90.6693 88.712 90.728 88.712 90.792C88.712 90.9307 88.6213 91 88.44 91H87.848C87.688 91 87.56 90.9307 87.464 90.792L84.424 86.28H81.512V90.68C81.512 90.8933 81.4053 91 81.192 91H80.696C80.4827 91 80.376 90.8933 80.376 90.68V79.96C80.376 79.7467 80.4827 79.64 80.696 79.64H84.872C85.96 79.64 86.84 79.9333 87.512 80.52C88.184 81.096 88.52 81.9067 88.52 82.952C88.52 83.8693 88.2587 84.6107 87.736 85.176C87.224 85.7413 86.5307 86.088 85.656 86.216L88.648 90.616ZM81.512 85.336H84.696C85.5387 85.336 86.2 85.1333 86.68 84.728C87.16 84.3227 87.4 83.7307 87.4 82.952C87.4 82.184 87.1547 81.5973 86.664 81.192C86.184 80.7867 85.5227 80.584 84.68 80.584H81.512V85.336ZM96.1624 89.128C96.237 89.0533 96.317 89.016 96.4024 89.016C96.477 89.016 96.5464 89.048 96.6104 89.112L96.8184 89.304C96.893 89.3787 96.9304 89.4587 96.9304 89.544C96.9304 89.608 96.8984 89.6827 96.8344 89.768C96.3117 90.2907 95.805 90.664 95.3144 90.888C94.8237 91.1013 94.2744 91.208 93.6664 91.208C92.8984 91.208 92.2317 91.0373 91.6664 90.696C91.101 90.3547 90.6637 89.88 90.3544 89.272C90.045 88.6533 89.8904 87.9387 89.8904 87.128C89.8904 86.3067 90.0397 85.5813 90.3384 84.952C90.6477 84.312 91.0797 83.816 91.6344 83.464C92.189 83.1013 92.829 82.92 93.5544 82.92C94.6317 82.92 95.4797 83.256 96.0984 83.928C96.717 84.6 97.0264 85.5067 97.0264 86.648V86.84C97.0157 86.936 96.9784 87.0107 96.9144 87.064C96.861 87.1173 96.7864 87.144 96.6904 87.144H90.9624C90.9944 88.04 91.229 88.7973 91.6664 89.416C92.1144 90.024 92.781 90.328 93.6664 90.328C94.1464 90.328 94.5677 90.2427 94.9304 90.072C95.3037 89.8907 95.7144 89.576 96.1624 89.128ZM93.5544 83.8C92.8504 83.8 92.269 84.0187 91.8104 84.456C91.3624 84.8827 91.0904 85.512 90.9944 86.344H95.9704C95.949 85.5653 95.725 84.9467 95.2984 84.488C94.8717 84.0293 94.2904 83.8 93.5544 83.8ZM101.818 82.92C102.788 82.92 103.546 83.1547 104.09 83.624C104.634 84.0827 104.906 84.6907 104.906 85.448V90.68C104.906 90.8933 104.799 91 104.586 91H104.266C104.052 91 103.946 90.8933 103.946 90.68V89.96C103.679 90.3867 103.3 90.7067 102.81 90.92C102.33 91.1333 101.791 91.24 101.194 91.24C100.362 91.24 99.6844 91.064 99.1618 90.712C98.6391 90.36 98.3778 89.816 98.3778 89.08C98.3778 88.4933 98.5431 88.024 98.8738 87.672C99.2044 87.3093 99.6364 87.0373 100.17 86.856C100.703 86.664 101.37 86.4933 102.17 86.344L103.898 86.04V85.528C103.898 84.984 103.711 84.5627 103.338 84.264C102.964 83.9547 102.474 83.8 101.866 83.8C101.407 83.8 100.991 83.8853 100.618 84.056C100.244 84.2267 99.8444 84.52 99.4178 84.936C99.3431 85.0107 99.2631 85.048 99.1778 85.048C99.1031 85.048 99.0338 85.016 98.9698 84.952L98.7618 84.76C98.6871 84.6853 98.6497 84.6053 98.6497 84.52C98.6497 84.424 98.6871 84.3387 98.7618 84.264C99.2098 83.7947 99.6791 83.4533 100.17 83.24C100.671 83.0267 101.22 82.92 101.818 82.92ZM101.242 90.36C102.01 90.36 102.644 90.1573 103.146 89.752C103.647 89.3467 103.898 88.8293 103.898 88.2V86.856L102.41 87.144C101.716 87.2827 101.167 87.416 100.762 87.544C100.356 87.672 100.031 87.8587 99.7858 88.104C99.5404 88.3493 99.4178 88.6693 99.4178 89.064C99.4178 89.4693 99.5778 89.7893 99.8978 90.024C100.228 90.248 100.676 90.36 101.242 90.36ZM107.583 91C107.369 91 107.263 90.8933 107.263 90.68V79.96C107.263 79.7467 107.369 79.64 107.583 79.64H107.999C108.212 79.64 108.319 79.7467 108.319 79.96V90.68C108.319 90.8933 108.212 91 107.999 91H107.583ZM116.444 89.128C116.518 89.0533 116.598 89.016 116.684 89.016C116.758 89.016 116.828 89.048 116.892 89.112L117.1 89.304C117.174 89.3787 117.212 89.4587 117.212 89.544C117.212 89.608 117.18 89.6827 117.116 89.768C116.593 90.2907 116.086 90.664 115.596 90.888C115.105 91.1013 114.556 91.208 113.948 91.208C113.18 91.208 112.513 91.0373 111.948 90.696C111.382 90.3547 110.945 89.88 110.636 89.272C110.326 88.6533 110.172 87.9387 110.172 87.128C110.172 86.3067 110.321 85.5813 110.62 84.952C110.929 84.312 111.361 83.816 111.916 83.464C112.47 83.1013 113.11 82.92 113.836 82.92C114.913 82.92 115.761 83.256 116.38 83.928C116.998 84.6 117.308 85.5067 117.308 86.648V86.84C117.297 86.936 117.26 87.0107 117.196 87.064C117.142 87.1173 117.068 87.144 116.972 87.144H111.244C111.276 88.04 111.51 88.7973 111.948 89.416C112.396 90.024 113.062 90.328 113.948 90.328C114.428 90.328 114.849 90.2427 115.212 90.072C115.585 89.8907 115.996 89.576 116.444 89.128ZM113.836 83.8C113.132 83.8 112.55 84.0187 112.092 84.456C111.644 84.8827 111.372 85.512 111.276 86.344H116.252C116.23 85.5653 116.006 84.9467 115.58 84.488C115.153 84.0293 114.572 83.8 113.836 83.8ZM122.014 91.208C121.363 91.208 120.787 91.1173 120.286 90.936C119.795 90.744 119.278 90.424 118.734 89.976C118.638 89.912 118.59 89.8373 118.59 89.752C118.59 89.6773 118.627 89.6027 118.702 89.528L118.91 89.304C118.974 89.2187 119.054 89.176 119.15 89.176C119.225 89.176 119.294 89.208 119.358 89.272C119.87 89.6667 120.323 89.944 120.718 90.104C121.113 90.2533 121.545 90.328 122.014 90.328C122.601 90.328 123.081 90.2 123.454 89.944C123.827 89.6773 124.014 89.32 124.014 88.872C124.014 88.424 123.822 88.0933 123.438 87.88C123.054 87.6667 122.462 87.4747 121.662 87.304C120.958 87.1547 120.403 87 119.998 86.84C119.603 86.6693 119.31 86.456 119.118 86.2C118.926 85.944 118.83 85.608 118.83 85.192C118.83 84.5093 119.107 83.96 119.662 83.544C120.217 83.128 120.915 82.92 121.758 82.92C122.334 82.92 122.846 82.9947 123.294 83.144C123.753 83.2827 124.211 83.5173 124.67 83.848C124.766 83.9227 124.814 84.0027 124.814 84.088C124.814 84.1413 124.787 84.2107 124.734 84.296L124.542 84.536C124.489 84.6213 124.414 84.664 124.318 84.664C124.233 84.664 124.158 84.6373 124.094 84.584C123.657 84.2747 123.267 84.0667 122.926 83.96C122.595 83.8533 122.217 83.8 121.79 83.8C121.203 83.8 120.734 83.928 120.382 84.184C120.03 84.44 119.854 84.7653 119.854 85.16C119.854 85.4053 119.934 85.6027 120.094 85.752C120.254 85.9013 120.483 86.0293 120.782 86.136C121.081 86.232 121.518 86.344 122.094 86.472C123.161 86.7067 123.918 86.9947 124.366 87.336C124.825 87.6773 125.054 88.1733 125.054 88.824C125.054 89.5387 124.771 90.1147 124.206 90.552C123.641 90.9893 122.91 91.208 122.014 91.208ZM130.361 90.12C130.393 90.1093 130.436 90.104 130.489 90.104C130.553 90.104 130.612 90.1253 130.665 90.168C130.718 90.2107 130.75 90.2693 130.761 90.344L130.809 90.568C130.82 90.5893 130.825 90.6267 130.825 90.68C130.825 90.8293 130.745 90.92 130.585 90.952C130.201 91.0693 129.79 91.128 129.353 91.128C128.66 91.128 128.164 90.9733 127.865 90.664C127.577 90.344 127.433 89.8853 127.433 89.288V83.912H126.249C126.036 83.912 125.929 83.8053 125.929 83.592V83.432C125.929 83.2187 126.036 83.112 126.249 83.112H127.433V80.68C127.433 80.4667 127.54 80.36 127.753 80.36H128.169C128.382 80.36 128.489 80.4667 128.489 80.68V83.112H130.409C130.622 83.112 130.729 83.2187 130.729 83.432V83.592C130.729 83.8053 130.622 83.912 130.409 83.912H128.489V89.16C128.489 89.5547 128.564 89.832 128.713 89.992C128.862 90.152 129.118 90.232 129.481 90.232C129.737 90.232 130.03 90.1947 130.361 90.12ZM135.396 82.92C136.367 82.92 137.124 83.1547 137.668 83.624C138.212 84.0827 138.484 84.6907 138.484 85.448V90.68C138.484 90.8933 138.377 91 138.164 91H137.844C137.631 91 137.524 90.8933 137.524 90.68V89.96C137.257 90.3867 136.879 90.7067 136.388 90.92C135.908 91.1333 135.369 91.24 134.772 91.24C133.94 91.24 133.263 91.064 132.74 90.712C132.217 90.36 131.956 89.816 131.956 89.08C131.956 88.4933 132.121 88.024 132.452 87.672C132.783 87.3093 133.215 87.0373 133.748 86.856C134.281 86.664 134.948 86.4933 135.748 86.344L137.476 86.04V85.528C137.476 84.984 137.289 84.5627 136.916 84.264C136.543 83.9547 136.052 83.8 135.444 83.8C134.985 83.8 134.569 83.8853 134.196 84.056C133.823 84.2267 133.423 84.52 132.996 84.936C132.921 85.0107 132.841 85.048 132.756 85.048C132.681 85.048 132.612 85.016 132.548 84.952L132.34 84.76C132.265 84.6853 132.228 84.6053 132.228 84.52C132.228 84.424 132.265 84.3387 132.34 84.264C132.788 83.7947 133.257 83.4533 133.748 83.24C134.249 83.0267 134.799 82.92 135.396 82.92ZM134.82 90.36C135.588 90.36 136.223 90.1573 136.724 89.752C137.225 89.3467 137.476 88.8293 137.476 88.2V86.856L135.988 87.144C135.295 87.2827 134.745 87.416 134.34 87.544C133.935 87.672 133.609 87.8587 133.364 88.104C133.119 88.3493 132.996 88.6693 132.996 89.064C132.996 89.4693 133.156 89.7893 133.476 90.024C133.807 90.248 134.255 90.36 134.82 90.36ZM144.158 90.12C144.19 90.1093 144.233 90.104 144.286 90.104C144.35 90.104 144.409 90.1253 144.462 90.168C144.515 90.2107 144.547 90.2693 144.558 90.344L144.606 90.568C144.617 90.5893 144.622 90.6267 144.622 90.68C144.622 90.8293 144.542 90.92 144.382 90.952C143.998 91.0693 143.587 91.128 143.15 91.128C142.457 91.128 141.961 90.9733 141.662 90.664C141.374 90.344 141.23 89.8853 141.23 89.288V83.912H140.046C139.833 83.912 139.726 83.8053 139.726 83.592V83.432C139.726 83.2187 139.833 83.112 140.046 83.112H141.23V80.68C141.23 80.4667 141.337 80.36 141.55 80.36H141.966C142.179 80.36 142.286 80.4667 142.286 80.68V83.112H144.206C144.419 83.112 144.526 83.2187 144.526 83.432V83.592C144.526 83.8053 144.419 83.912 144.206 83.912H142.286V89.16C142.286 89.5547 142.361 89.832 142.51 89.992C142.659 90.152 142.915 90.232 143.278 90.232C143.534 90.232 143.827 90.1947 144.158 90.12ZM151.584 89.128C151.659 89.0533 151.739 89.016 151.824 89.016C151.899 89.016 151.968 89.048 152.032 89.112L152.24 89.304C152.315 89.3787 152.352 89.4587 152.352 89.544C152.352 89.608 152.32 89.6827 152.256 89.768C151.734 90.2907 151.227 90.664 150.736 90.888C150.246 91.1013 149.696 91.208 149.088 91.208C148.32 91.208 147.654 91.0373 147.088 90.696C146.523 90.3547 146.086 89.88 145.776 89.272C145.467 88.6533 145.312 87.9387 145.312 87.128C145.312 86.3067 145.462 85.5813 145.76 84.952C146.07 84.312 146.502 83.816 147.056 83.464C147.611 83.1013 148.251 82.92 148.976 82.92C150.054 82.92 150.902 83.256 151.52 83.928C152.139 84.6 152.448 85.5067 152.448 86.648V86.84C152.438 86.936 152.4 87.0107 152.336 87.064C152.283 87.1173 152.208 87.144 152.112 87.144H146.384C146.416 88.04 146.651 88.7973 147.088 89.416C147.536 90.024 148.203 90.328 149.088 90.328C149.568 90.328 149.99 90.2427 150.352 90.072C150.726 89.8907 151.136 89.576 151.584 89.128ZM148.976 83.8C148.272 83.8 147.691 84.0187 147.232 84.456C146.784 84.8827 146.512 85.512 146.416 86.344H151.392C151.371 85.5653 151.147 84.9467 150.72 84.488C150.294 84.0293 149.712 83.8 148.976 83.8ZM154.772 89.48C155.06 89.48 155.295 89.592 155.476 89.816C155.668 90.0293 155.764 90.3547 155.764 90.792C155.764 91.2293 155.636 91.656 155.38 92.072C155.135 92.4987 154.794 92.7707 154.356 92.888L154.276 92.904C154.191 92.904 154.122 92.872 154.068 92.808C154.026 92.7547 154.004 92.68 154.004 92.584C154.004 92.52 154.026 92.4667 154.068 92.424C154.111 92.392 154.175 92.3547 154.26 92.312C154.474 92.216 154.655 92.056 154.804 91.832C154.954 91.608 155.039 91.352 155.06 91.064C154.964 91.096 154.863 91.112 154.756 91.112C154.532 91.112 154.34 91.0373 154.18 90.888C154.031 90.7387 153.956 90.5467 153.956 90.312C153.956 90.0773 154.036 89.88 154.196 89.72C154.356 89.56 154.548 89.48 154.772 89.48ZM161.682 81.112C161.469 81.112 161.287 81.0373 161.138 80.888C160.999 80.7387 160.93 80.5573 160.93 80.344C160.93 80.1307 160.999 79.9547 161.138 79.816C161.287 79.6773 161.469 79.608 161.682 79.608C161.906 79.608 162.087 79.6773 162.226 79.816C162.375 79.9547 162.45 80.1307 162.45 80.344C162.45 80.5573 162.375 80.7387 162.226 80.888C162.087 81.0373 161.906 81.112 161.682 81.112ZM160.082 94.136C159.73 94.136 159.335 94.088 158.898 93.992C158.706 93.928 158.637 93.7947 158.69 93.592L158.754 93.368C158.775 93.272 158.823 93.2027 158.898 93.16C158.962 93.128 159.042 93.1227 159.138 93.144C159.447 93.2187 159.746 93.256 160.034 93.256C160.45 93.256 160.738 93.128 160.898 92.872C161.069 92.6267 161.154 92.248 161.154 91.736V83.432C161.154 83.2187 161.261 83.112 161.474 83.112H161.89C162.103 83.112 162.21 83.2187 162.21 83.432V91.768C162.21 92.5253 162.034 93.1067 161.682 93.512C161.341 93.928 160.807 94.136 160.082 94.136ZM167.823 91.208C167.087 91.208 166.431 91.032 165.855 90.68C165.279 90.328 164.831 89.8427 164.511 89.224C164.191 88.5947 164.031 87.8747 164.031 87.064C164.031 86.2533 164.191 85.5387 164.511 84.92C164.831 84.2907 165.279 83.8 165.855 83.448C166.431 83.096 167.087 82.92 167.823 82.92C168.559 82.92 169.215 83.096 169.791 83.448C170.367 83.8 170.815 84.2907 171.135 84.92C171.455 85.5387 171.615 86.2533 171.615 87.064C171.615 87.8747 171.455 88.5947 171.135 89.224C170.815 89.8427 170.367 90.328 169.791 90.68C169.215 91.032 168.559 91.208 167.823 91.208ZM167.823 90.328C168.644 90.328 169.3 90.0293 169.791 89.432C170.282 88.824 170.527 88.0347 170.527 87.064C170.527 86.0933 170.282 85.3093 169.791 84.712C169.3 84.104 168.644 83.8 167.823 83.8C167.002 83.8 166.346 84.104 165.855 84.712C165.364 85.3093 165.119 86.0933 165.119 87.064C165.119 88.0347 165.364 88.824 165.855 89.432C166.346 90.0293 167.002 90.328 167.823 90.328ZM177.226 82.936C177.898 82.936 178.495 83.112 179.018 83.464C179.551 83.8053 179.962 84.2907 180.25 84.92C180.548 85.5387 180.698 86.2533 180.698 87.064C180.698 87.8747 180.548 88.5947 180.25 89.224C179.951 89.8427 179.535 90.328 179.002 90.68C178.479 91.0213 177.887 91.192 177.226 91.192C175.956 91.192 175.028 90.7013 174.442 89.72V90.68C174.442 90.8933 174.335 91 174.122 91H173.77C173.556 91 173.45 90.8933 173.45 90.68V79.944C173.45 79.7307 173.556 79.624 173.77 79.624H174.186C174.399 79.624 174.506 79.7307 174.506 79.944V84.36C175.092 83.4107 175.999 82.936 177.226 82.936ZM177.146 90.296C177.882 90.296 178.474 89.9973 178.922 89.4C179.38 88.8027 179.61 88.024 179.61 87.064C179.61 86.104 179.38 85.3253 178.922 84.728C178.474 84.1307 177.882 83.832 177.146 83.832C176.356 83.832 175.711 84.12 175.21 84.696C174.708 85.272 174.458 86.0613 174.458 87.064C174.458 88.0773 174.703 88.872 175.194 89.448C175.695 90.0133 176.346 90.296 177.146 90.296ZM182.85 89.48C183.138 89.48 183.373 89.592 183.554 89.816C183.746 90.0293 183.842 90.3547 183.842 90.792C183.842 91.2293 183.714 91.656 183.458 92.072C183.213 92.4987 182.872 92.7707 182.434 92.888L182.354 92.904C182.269 92.904 182.2 92.872 182.146 92.808C182.104 92.7547 182.082 92.68 182.082 92.584C182.082 92.52 182.104 92.4667 182.146 92.424C182.189 92.392 182.253 92.3547 182.338 92.312C182.552 92.216 182.733 92.056 182.882 91.832C183.032 91.608 183.117 91.352 183.138 91.064C183.042 91.096 182.941 91.112 182.834 91.112C182.61 91.112 182.418 91.0373 182.258 90.888C182.109 90.7387 182.034 90.5467 182.034 90.312C182.034 90.0773 182.114 89.88 182.274 89.72C182.434 89.56 182.626 89.48 182.85 89.48ZM192.736 90.12C192.768 90.1093 192.811 90.104 192.864 90.104C192.928 90.104 192.987 90.1253 193.04 90.168C193.093 90.2107 193.125 90.2693 193.136 90.344L193.184 90.568C193.195 90.5893 193.2 90.6267 193.2 90.68C193.2 90.8293 193.12 90.92 192.96 90.952C192.576 91.0693 192.165 91.128 191.728 91.128C191.035 91.128 190.539 90.9733 190.24 90.664C189.952 90.344 189.808 89.8853 189.808 89.288V83.912H188.624C188.411 83.912 188.304 83.8053 188.304 83.592V83.432C188.304 83.2187 188.411 83.112 188.624 83.112H189.808V80.68C189.808 80.4667 189.915 80.36 190.128 80.36H190.544C190.757 80.36 190.864 80.4667 190.864 80.68V83.112H192.784C192.997 83.112 193.104 83.2187 193.104 83.432V83.592C193.104 83.8053 192.997 83.912 192.784 83.912H190.864V89.16C190.864 89.5547 190.939 89.832 191.088 89.992C191.237 90.152 191.493 90.232 191.856 90.232C192.112 90.232 192.405 90.1947 192.736 90.12ZM197.659 83.048C197.926 83.048 198.241 83.0907 198.603 83.176C198.795 83.24 198.87 83.3733 198.827 83.576L198.763 83.832C198.71 84.0347 198.577 84.1093 198.363 84.056C198.107 83.992 197.873 83.96 197.659 83.96C197.115 83.96 196.662 84.1947 196.299 84.664C195.947 85.1333 195.771 85.784 195.771 86.616V90.68C195.771 90.8933 195.665 91 195.451 91H195.035C194.822 91 194.715 90.8933 194.715 90.68V83.432C194.715 83.2187 194.822 83.112 195.035 83.112H195.387C195.601 83.112 195.707 83.2187 195.707 83.432V84.312C195.889 83.9173 196.145 83.608 196.475 83.384C196.817 83.16 197.211 83.048 197.659 83.048ZM203.099 82.92C204.07 82.92 204.827 83.1547 205.371 83.624C205.915 84.0827 206.187 84.6907 206.187 85.448V90.68C206.187 90.8933 206.08 91 205.867 91H205.547C205.334 91 205.227 90.8933 205.227 90.68V89.96C204.96 90.3867 204.582 90.7067 204.091 90.92C203.611 91.1333 203.072 91.24 202.475 91.24C201.643 91.24 200.966 91.064 200.443 90.712C199.92 90.36 199.659 89.816 199.659 89.08C199.659 88.4933 199.824 88.024 200.155 87.672C200.486 87.3093 200.918 87.0373 201.451 86.856C201.984 86.664 202.651 86.4933 203.451 86.344L205.179 86.04V85.528C205.179 84.984 204.992 84.5627 204.619 84.264C204.246 83.9547 203.755 83.8 203.147 83.8C202.688 83.8 202.272 83.8853 201.899 84.056C201.526 84.2267 201.126 84.52 200.699 84.936C200.624 85.0107 200.544 85.048 200.459 85.048C200.384 85.048 200.315 85.016 200.251 84.952L200.043 84.76C199.968 84.6853 199.931 84.6053 199.931 84.52C199.931 84.424 199.968 84.3387 200.043 84.264C200.491 83.7947 200.96 83.4533 201.451 83.24C201.952 83.0267 202.502 82.92 203.099 82.92ZM202.523 90.36C203.291 90.36 203.926 90.1573 204.427 89.752C204.928 89.3467 205.179 88.8293 205.179 88.2V86.856L203.691 87.144C202.998 87.2827 202.448 87.416 202.043 87.544C201.638 87.672 201.312 87.8587 201.067 88.104C200.822 88.3493 200.699 88.6693 200.699 89.064C200.699 89.4693 200.859 89.7893 201.179 90.024C201.51 90.248 201.958 90.36 202.523 90.36ZM213.22 83.368C213.284 83.1973 213.407 83.112 213.588 83.112H214.004C214.089 83.112 214.159 83.1333 214.212 83.176C214.265 83.2187 214.292 83.2773 214.292 83.352L214.26 83.48L211.716 90.744C211.652 90.9147 211.529 91 211.348 91H210.5C210.319 91 210.196 90.9147 210.132 90.744L207.604 83.48L207.572 83.352C207.572 83.2773 207.599 83.2187 207.652 83.176C207.705 83.1333 207.775 83.112 207.86 83.112H208.292C208.473 83.112 208.596 83.1973 208.66 83.368L209.636 86.184C210.041 87.3573 210.473 88.7067 210.932 90.232C210.953 90.168 211.012 89.9867 211.108 89.688C211.545 88.248 211.924 87.08 212.244 86.184L213.22 83.368ZM221.506 89.128C221.581 89.0533 221.661 89.016 221.746 89.016C221.821 89.016 221.89 89.048 221.954 89.112L222.162 89.304C222.237 89.3787 222.274 89.4587 222.274 89.544C222.274 89.608 222.242 89.6827 222.178 89.768C221.655 90.2907 221.149 90.664 220.658 90.888C220.167 91.1013 219.618 91.208 219.01 91.208C218.242 91.208 217.575 91.0373 217.01 90.696C216.445 90.3547 216.007 89.88 215.698 89.272C215.389 88.6533 215.234 87.9387 215.234 87.128C215.234 86.3067 215.383 85.5813 215.682 84.952C215.991 84.312 216.423 83.816 216.978 83.464C217.533 83.1013 218.173 82.92 218.898 82.92C219.975 82.92 220.823 83.256 221.442 83.928C222.061 84.6 222.37 85.5067 222.37 86.648V86.84C222.359 86.936 222.322 87.0107 222.258 87.064C222.205 87.1173 222.13 87.144 222.034 87.144H216.306C216.338 88.04 216.573 88.7973 217.01 89.416C217.458 90.024 218.125 90.328 219.01 90.328C219.49 90.328 219.911 90.2427 220.274 90.072C220.647 89.8907 221.058 89.576 221.506 89.128ZM218.898 83.8C218.194 83.8 217.613 84.0187 217.154 84.456C216.706 84.8827 216.434 85.512 216.338 86.344H221.314C221.293 85.5653 221.069 84.9467 220.642 84.488C220.215 84.0293 219.634 83.8 218.898 83.8ZM224.598 91C224.385 91 224.278 90.8933 224.278 90.68V79.96C224.278 79.7467 224.385 79.64 224.598 79.64H225.014C225.227 79.64 225.334 79.7467 225.334 79.96V90.68C225.334 90.8933 225.227 91 225.014 91H224.598ZM228.147 91.112C227.923 91.112 227.731 91.032 227.571 90.872C227.411 90.712 227.331 90.52 227.331 90.296C227.331 90.072 227.411 89.88 227.571 89.72C227.731 89.56 227.923 89.48 228.147 89.48C228.371 89.48 228.563 89.56 228.723 89.72C228.883 89.88 228.963 90.072 228.963 90.296C228.963 90.52 228.883 90.712 228.723 90.872C228.563 91.032 228.371 91.112 228.147 91.112ZM231.382 91.112C231.158 91.112 230.966 91.032 230.806 90.872C230.646 90.712 230.566 90.52 230.566 90.296C230.566 90.072 230.646 89.88 230.806 89.72C230.966 89.56 231.158 89.48 231.382 89.48C231.606 89.48 231.798 89.56 231.958 89.72C232.118 89.88 232.198 90.072 232.198 90.296C232.198 90.52 232.118 90.712 231.958 90.872C231.798 91.032 231.606 91.112 231.382 91.112Z" fill="#C3CCD9"/>
<g filter="url(#filter0_d_1811_19153)">
<path d="M270 140L264 146M270 144L268 146" stroke="#767676" stroke-linecap="square"/>
</g>
<rect x="71.5" y="62.5" width="202" height="87" rx="3.5" stroke="#C3CCD9"/>
<path d="M72.272 166C72.112 166 72.032 165.92 72.032 165.76V157.72C72.032 157.56 72.112 157.48 72.272 157.48H77.312C77.472 157.48 77.552 157.56 77.552 157.72V157.948C77.552 158.108 77.472 158.188 77.312 158.188H72.884V161.272H76.976C77.136 161.272 77.216 161.352 77.216 161.512V161.728C77.216 161.888 77.136 161.968 76.976 161.968H72.884V165.292H77.408C77.568 165.292 77.648 165.372 77.648 165.532V165.76C77.648 165.92 77.568 166 77.408 166H72.272ZM81.7233 159.94C82.4193 159.94 82.9433 160.132 83.2953 160.516C83.6553 160.9 83.8353 161.38 83.8353 161.956V165.76C83.8353 165.92 83.7553 166 83.5953 166H83.2833C83.1233 166 83.0433 165.92 83.0433 165.76V162.22C83.0433 161.692 82.9153 161.292 82.6593 161.02C82.4033 160.748 82.0353 160.612 81.5553 160.612C81.2513 160.612 80.9713 160.688 80.7153 160.84C80.4593 160.984 80.2553 161.184 80.1033 161.44C79.9513 161.696 79.8753 161.976 79.8753 162.28V165.76C79.8753 165.92 79.7953 166 79.6353 166H79.3233C79.1633 166 79.0833 165.92 79.0833 165.76V160.324C79.0833 160.164 79.1633 160.084 79.3233 160.084H79.5873C79.7473 160.084 79.8273 160.164 79.8273 160.324V160.9C80.0273 160.58 80.2913 160.34 80.6193 160.18C80.9473 160.02 81.3153 159.94 81.7233 159.94ZM88.0872 165.34C88.1112 165.332 88.1432 165.328 88.1832 165.328C88.2312 165.328 88.2752 165.344 88.3152 165.376C88.3552 165.408 88.3792 165.452 88.3872 165.508L88.4232 165.676C88.4312 165.692 88.4352 165.72 88.4352 165.76C88.4352 165.872 88.3752 165.94 88.2552 165.964C87.9672 166.052 87.6592 166.096 87.3312 166.096C86.8112 166.096 86.4392 165.98 86.2152 165.748C85.9992 165.508 85.8912 165.164 85.8912 164.716V160.684H85.0032C84.8432 160.684 84.7632 160.604 84.7632 160.444V160.324C84.7632 160.164 84.8432 160.084 85.0032 160.084H85.8912V158.26C85.8912 158.1 85.9712 158.02 86.1312 158.02H86.4432C86.6032 158.02 86.6832 158.1 86.6832 158.26V160.084H88.1232C88.2832 160.084 88.3632 160.164 88.3632 160.324V160.444C88.3632 160.604 88.2832 160.684 88.1232 160.684H86.6832V164.62C86.6832 164.916 86.7392 165.124 86.8512 165.244C86.9632 165.364 87.1552 165.424 87.4272 165.424C87.6192 165.424 87.8392 165.396 88.0872 165.34ZM93.6569 164.596C93.7129 164.54 93.7729 164.512 93.8369 164.512C93.8929 164.512 93.9449 164.536 93.9929 164.584L94.1489 164.728C94.2049 164.784 94.2329 164.844 94.2329 164.908C94.2329 164.956 94.2089 165.012 94.1609 165.076C93.7689 165.468 93.3889 165.748 93.0209 165.916C92.6529 166.076 92.2409 166.156 91.7849 166.156C91.2089 166.156 90.7089 166.028 90.2849 165.772C89.8609 165.516 89.5329 165.16 89.3009 164.704C89.0689 164.24 88.9529 163.704 88.9529 163.096C88.9529 162.48 89.0649 161.936 89.2889 161.464C89.5209 160.984 89.8449 160.612 90.2609 160.348C90.6769 160.076 91.1569 159.94 91.7009 159.94C92.5089 159.94 93.1449 160.192 93.6089 160.696C94.0729 161.2 94.3049 161.88 94.3049 162.736V162.88C94.2969 162.952 94.2689 163.008 94.2209 163.048C94.1809 163.088 94.1249 163.108 94.0529 163.108H89.7569C89.7809 163.78 89.9569 164.348 90.2849 164.812C90.6209 165.268 91.1209 165.496 91.7849 165.496C92.1449 165.496 92.4609 165.432 92.7329 165.304C93.0129 165.168 93.3209 164.932 93.6569 164.596ZM91.7009 160.6C91.1729 160.6 90.7369 160.764 90.3929 161.092C90.0569 161.412 89.8529 161.884 89.7809 162.508H93.5129C93.4969 161.924 93.3289 161.46 93.0089 161.116C92.6889 160.772 92.2529 160.6 91.7009 160.6ZM97.9319 160.036C98.1319 160.036 98.3679 160.068 98.6399 160.132C98.7839 160.18 98.8399 160.28 98.8079 160.432L98.7599 160.624C98.7199 160.776 98.6199 160.832 98.4599 160.792C98.2679 160.744 98.0919 160.72 97.9319 160.72C97.5239 160.72 97.1839 160.896 96.9119 161.248C96.6479 161.6 96.5159 162.088 96.5159 162.712V165.76C96.5159 165.92 96.4359 166 96.2759 166H95.9639C95.8039 166 95.7239 165.92 95.7239 165.76V160.324C95.7239 160.164 95.8039 160.084 95.9639 160.084H96.2279C96.3879 160.084 96.4679 160.164 96.4679 160.324V160.984C96.6039 160.688 96.7959 160.456 97.0439 160.288C97.2999 160.12 97.5959 160.036 97.9319 160.036ZM106.205 160.276C106.253 160.148 106.345 160.084 106.481 160.084H106.805C106.869 160.084 106.921 160.1 106.961 160.132C107.001 160.164 107.021 160.208 107.021 160.264L106.997 160.36L104.681 166.9C104.553 167.26 104.429 167.54 104.309 167.74C104.189 167.94 104.025 168.092 103.817 168.196C103.617 168.3 103.353 168.352 103.025 168.352C102.817 168.352 102.633 168.336 102.473 168.304C102.393 168.296 102.337 168.264 102.305 168.208C102.281 168.152 102.277 168.088 102.293 168.016L102.329 167.86C102.361 167.716 102.453 167.652 102.605 167.668C102.749 167.692 102.873 167.704 102.977 167.704C103.233 167.704 103.433 167.632 103.577 167.488C103.729 167.344 103.873 167.072 104.009 166.672L104.117 166.336L102.005 160.36L101.981 160.264C101.981 160.208 102.001 160.164 102.041 160.132C102.081 160.1 102.133 160.084 102.197 160.084H102.545C102.673 160.084 102.761 160.148 102.809 160.276L103.481 162.256C103.545 162.456 103.705 162.932 103.961 163.684L104.501 165.304C104.765 164.56 105.113 163.536 105.545 162.232L106.205 160.276ZM110.57 166.156C110.018 166.156 109.526 166.024 109.094 165.76C108.662 165.496 108.326 165.132 108.086 164.668C107.846 164.196 107.726 163.656 107.726 163.048C107.726 162.44 107.846 161.904 108.086 161.44C108.326 160.968 108.662 160.6 109.094 160.336C109.526 160.072 110.018 159.94 110.57 159.94C111.122 159.94 111.614 160.072 112.046 160.336C112.478 160.6 112.814 160.968 113.054 161.44C113.294 161.904 113.414 162.44 113.414 163.048C113.414 163.656 113.294 164.196 113.054 164.668C112.814 165.132 112.478 165.496 112.046 165.76C111.614 166.024 111.122 166.156 110.57 166.156ZM110.57 165.496C111.186 165.496 111.678 165.272 112.046 164.824C112.414 164.368 112.598 163.776 112.598 163.048C112.598 162.32 112.414 161.732 112.046 161.284C111.678 160.828 111.186 160.6 110.57 160.6C109.954 160.6 109.462 160.828 109.094 161.284C108.726 161.732 108.542 162.32 108.542 163.048C108.542 163.776 108.726 164.368 109.094 164.824C109.462 165.272 109.954 165.496 110.57 165.496ZM118.63 160.324C118.63 160.164 118.71 160.084 118.87 160.084H119.182C119.342 160.084 119.422 160.164 119.422 160.324V165.76C119.422 165.92 119.342 166 119.182 166H118.93C118.77 166 118.69 165.92 118.69 165.76V165.22C118.514 165.532 118.262 165.768 117.934 165.928C117.614 166.08 117.262 166.156 116.878 166.156C116.158 166.156 115.626 165.976 115.282 165.616C114.938 165.248 114.766 164.776 114.766 164.2V160.324C114.766 160.164 114.846 160.084 115.006 160.084H115.318C115.478 160.084 115.558 160.164 115.558 160.324V164.032C115.558 164.504 115.674 164.864 115.906 165.112C116.146 165.352 116.486 165.472 116.926 165.472C117.422 165.472 117.83 165.32 118.15 165.016C118.47 164.712 118.63 164.28 118.63 163.72V160.324ZM123.409 160.036C123.609 160.036 123.845 160.068 124.117 160.132C124.261 160.18 124.317 160.28 124.285 160.432L124.237 160.624C124.197 160.776 124.097 160.832 123.937 160.792C123.745 160.744 123.569 160.72 123.409 160.72C123.001 160.72 122.661 160.896 122.389 161.248C122.125 161.6 121.993 162.088 121.993 162.712V165.76C121.993 165.92 121.913 166 121.753 166H121.441C121.281 166 121.201 165.92 121.201 165.76V160.324C121.201 160.164 121.281 160.084 121.441 160.084H121.705C121.865 160.084 121.945 160.164 121.945 160.324V160.984C122.081 160.688 122.273 160.456 122.521 160.288C122.777 160.12 123.073 160.036 123.409 160.036ZM134.138 159.94C134.778 159.94 135.266 160.124 135.602 160.492C135.946 160.852 136.118 161.316 136.118 161.884V165.76C136.118 165.92 136.038 166 135.878 166H135.566C135.406 166 135.326 165.92 135.326 165.76V162.1C135.326 161.62 135.214 161.252 134.99 160.996C134.774 160.74 134.45 160.612 134.018 160.612C133.562 160.612 133.198 160.764 132.926 161.068C132.654 161.372 132.518 161.764 132.518 162.244V165.76C132.518 165.92 132.438 166 132.278 166H131.966C131.806 166 131.726 165.92 131.726 165.76V162.1C131.726 161.62 131.614 161.252 131.39 160.996C131.174 160.74 130.846 160.612 130.406 160.612C129.998 160.612 129.658 160.74 129.386 160.996C129.122 161.252 128.966 161.588 128.918 162.004V165.76C128.918 165.92 128.838 166 128.678 166H128.366C128.206 166 128.126 165.92 128.126 165.76V160.324C128.126 160.164 128.206 160.084 128.366 160.084H128.63C128.79 160.084 128.87 160.164 128.87 160.324V160.816C129.23 160.232 129.802 159.94 130.586 159.94C130.994 159.94 131.342 160.032 131.63 160.216C131.926 160.392 132.146 160.632 132.29 160.936C132.714 160.272 133.33 159.94 134.138 159.94ZM140.145 159.94C140.873 159.94 141.441 160.116 141.849 160.468C142.257 160.812 142.461 161.268 142.461 161.836V165.76C142.461 165.92 142.381 166 142.221 166H141.981C141.821 166 141.741 165.92 141.741 165.76V165.22C141.541 165.54 141.257 165.78 140.889 165.94C140.529 166.1 140.125 166.18 139.677 166.18C139.053 166.18 138.545 166.048 138.153 165.784C137.761 165.52 137.565 165.112 137.565 164.56C137.565 164.12 137.689 163.768 137.937 163.504C138.185 163.232 138.509 163.028 138.909 162.892C139.309 162.748 139.809 162.62 140.409 162.508L141.705 162.28V161.896C141.705 161.488 141.565 161.172 141.285 160.948C141.005 160.716 140.637 160.6 140.181 160.6C139.837 160.6 139.525 160.664 139.245 160.792C138.965 160.92 138.665 161.14 138.345 161.452C138.289 161.508 138.229 161.536 138.165 161.536C138.109 161.536 138.057 161.512 138.009 161.464L137.853 161.32C137.797 161.264 137.769 161.204 137.769 161.14C137.769 161.068 137.797 161.004 137.853 160.948C138.189 160.596 138.541 160.34 138.909 160.18C139.285 160.02 139.697 159.94 140.145 159.94ZM139.713 165.52C140.289 165.52 140.765 165.368 141.141 165.064C141.517 164.76 141.705 164.372 141.705 163.9V162.892L140.589 163.108C140.069 163.212 139.657 163.312 139.353 163.408C139.049 163.504 138.805 163.644 138.621 163.828C138.437 164.012 138.345 164.252 138.345 164.548C138.345 164.852 138.465 165.092 138.705 165.268C138.953 165.436 139.289 165.52 139.713 165.52ZM146.424 160.036C146.624 160.036 146.86 160.068 147.132 160.132C147.276 160.18 147.332 160.28 147.3 160.432L147.252 160.624C147.212 160.776 147.112 160.832 146.952 160.792C146.76 160.744 146.584 160.72 146.424 160.72C146.016 160.72 145.676 160.896 145.404 161.248C145.14 161.6 145.008 162.088 145.008 162.712V165.76C145.008 165.92 144.928 166 144.768 166H144.456C144.296 166 144.216 165.92 144.216 165.76V160.324C144.216 160.164 144.296 160.084 144.456 160.084H144.72C144.88 160.084 144.96 160.164 144.96 160.324V160.984C145.096 160.688 145.288 160.456 145.536 160.288C145.792 160.12 146.088 160.036 146.424 160.036ZM152.648 166C152.528 166 152.432 165.948 152.36 165.844L150.332 162.892L149.168 164.08V165.76C149.168 165.92 149.088 166 148.928 166H148.616C148.456 166 148.376 165.92 148.376 165.76V157.72C148.376 157.56 148.456 157.48 148.616 157.48H148.928C149.088 157.48 149.168 157.56 149.168 157.72V163.18L152.048 160.192C152.12 160.112 152.22 160.072 152.348 160.072H152.684C152.748 160.072 152.796 160.088 152.828 160.12C152.868 160.144 152.888 160.176 152.888 160.216C152.888 160.256 152.864 160.308 152.816 160.372L150.884 162.388L153.152 165.712C153.184 165.768 153.2 165.816 153.2 165.856C153.2 165.952 153.136 166 153.008 166H152.648ZM158.555 164.596C158.611 164.54 158.671 164.512 158.735 164.512C158.791 164.512 158.843 164.536 158.891 164.584L159.047 164.728C159.103 164.784 159.131 164.844 159.131 164.908C159.131 164.956 159.107 165.012 159.059 165.076C158.667 165.468 158.287 165.748 157.919 165.916C157.551 166.076 157.139 166.156 156.683 166.156C156.107 166.156 155.607 166.028 155.183 165.772C154.759 165.516 154.431 165.16 154.199 164.704C153.967 164.24 153.851 163.704 153.851 163.096C153.851 162.48 153.963 161.936 154.187 161.464C154.419 160.984 154.743 160.612 155.159 160.348C155.575 160.076 156.055 159.94 156.599 159.94C157.407 159.94 158.043 160.192 158.507 160.696C158.971 161.2 159.203 161.88 159.203 162.736V162.88C159.195 162.952 159.167 163.008 159.119 163.048C159.079 163.088 159.023 163.108 158.951 163.108H154.655C154.679 163.78 154.855 164.348 155.183 164.812C155.519 165.268 156.019 165.496 156.683 165.496C157.043 165.496 157.359 165.432 157.631 165.304C157.911 165.168 158.219 164.932 158.555 164.596ZM156.599 160.6C156.071 160.6 155.635 160.764 155.291 161.092C154.955 161.412 154.751 161.884 154.679 162.508H158.411C158.395 161.924 158.227 161.46 157.907 161.116C157.587 160.772 157.151 160.6 156.599 160.6ZM163.228 165.34C163.252 165.332 163.284 165.328 163.324 165.328C163.372 165.328 163.416 165.344 163.456 165.376C163.496 165.408 163.52 165.452 163.528 165.508L163.564 165.676C163.572 165.692 163.576 165.72 163.576 165.76C163.576 165.872 163.516 165.94 163.396 165.964C163.108 166.052 162.8 166.096 162.472 166.096C161.952 166.096 161.58 165.98 161.356 165.748C161.14 165.508 161.032 165.164 161.032 164.716V160.684H160.144C159.984 160.684 159.904 160.604 159.904 160.444V160.324C159.904 160.164 159.984 160.084 160.144 160.084H161.032V158.26C161.032 158.1 161.112 158.02 161.272 158.02H161.584C161.744 158.02 161.824 158.1 161.824 158.26V160.084H163.264C163.424 160.084 163.504 160.164 163.504 160.324V160.444C163.504 160.604 163.424 160.684 163.264 160.684H161.824V164.62C161.824 164.916 161.88 165.124 161.992 165.244C162.104 165.364 162.296 165.424 162.568 165.424C162.76 165.424 162.98 165.396 163.228 165.34ZM166.858 166.156C166.37 166.156 165.938 166.088 165.562 165.952C165.194 165.808 164.806 165.568 164.398 165.232C164.326 165.184 164.29 165.128 164.29 165.064C164.29 165.008 164.318 164.952 164.374 164.896L164.53 164.728C164.578 164.664 164.638 164.632 164.71 164.632C164.766 164.632 164.818 164.656 164.866 164.704C165.25 165 165.59 165.208 165.886 165.328C166.182 165.44 166.506 165.496 166.858 165.496C167.298 165.496 167.658 165.4 167.938 165.208C168.218 165.008 168.358 164.74 168.358 164.404C168.358 164.068 168.214 163.82 167.926 163.66C167.638 163.5 167.194 163.356 166.594 163.228C166.066 163.116 165.65 163 165.346 162.88C165.05 162.752 164.83 162.592 164.686 162.4C164.542 162.208 164.47 161.956 164.47 161.644C164.47 161.132 164.678 160.72 165.094 160.408C165.51 160.096 166.034 159.94 166.666 159.94C167.098 159.94 167.482 159.996 167.818 160.108C168.162 160.212 168.506 160.388 168.85 160.636C168.922 160.692 168.958 160.752 168.958 160.816C168.958 160.856 168.938 160.908 168.898 160.972L168.754 161.152C168.714 161.216 168.658 161.248 168.586 161.248C168.522 161.248 168.466 161.228 168.418 161.188C168.09 160.956 167.798 160.8 167.542 160.72C167.294 160.64 167.01 160.6 166.69 160.6C166.25 160.6 165.898 160.696 165.634 160.888C165.37 161.08 165.238 161.324 165.238 161.62C165.238 161.804 165.298 161.952 165.418 162.064C165.538 162.176 165.71 162.272 165.934 162.352C166.158 162.424 166.486 162.508 166.918 162.604C167.718 162.78 168.286 162.996 168.622 163.252C168.966 163.508 169.138 163.88 169.138 164.368C169.138 164.904 168.926 165.336 168.502 165.664C168.078 165.992 167.53 166.156 166.858 166.156ZM170.802 166.084C170.634 166.084 170.49 166.024 170.37 165.904C170.25 165.784 170.19 165.64 170.19 165.472C170.19 165.304 170.25 165.16 170.37 165.04C170.49 164.92 170.634 164.86 170.802 164.86C170.97 164.86 171.114 164.92 171.234 165.04C171.354 165.16 171.414 165.304 171.414 165.472C171.414 165.64 171.354 165.784 171.234 165.904C171.114 166.024 170.97 166.084 170.802 166.084Z" fill="#464646"/>
<defs>
<filter id="filter0_d_1811_19153" x="263.293" y="139.293" width="7.41431" height="8.41431" filterUnits="userSpaceOnUse" color-interpolation-filters="sRGB">
<feFlood flood-opacity="0" result="BackgroundImageFix"/>
<feColorMatrix in="SourceAlpha" type="matrix" values="0 0 0 0 0 0 0 0 0 0 0 0 0 0 0 0 0 0 127 0" result="hardAlpha"/>
<feOffset dy="1"/>
<feColorMatrix type="matrix" values="0 0 0 0 1 0 0 0 0 1 0 0 0 0 1 0 0 0 0.5 0"/>
<feBlend mode="normal" in2="BackgroundImageFix" result="effect1_dropShadow_1811_19153"/>
<feBlend mode="normal" in="SourceGraphic" in2="effect1_dropShadow_1811_19153" result="shape"/>
</filter>
</defs>
</svg>
