<svg width="344" height="190" viewBox="0 0 344 190" fill="none" xmlns="http://www.w3.org/2000/svg">
<rect width="344" height="190" fill="#F5F5F5"/>
<path d="M41.568 54C41.4187 54 41.2973 53.958 41.204 53.874C41.12 53.7807 41.078 53.6593 41.078 53.51V44.55C41.078 44.3913 41.12 44.27 41.204 44.186C41.2973 44.102 41.4187 44.06 41.568 44.06H42.184C42.3427 44.06 42.464 44.102 42.548 44.186C42.632 44.27 42.674 44.3913 42.674 44.55V52.642H46.72C46.8787 52.642 47 52.684 47.084 52.768C47.168 52.852 47.21 52.9733 47.21 53.132V53.51C47.21 53.6593 47.168 53.7807 47.084 53.874C47 53.958 46.8787 54 46.72 54H41.568ZM51.5043 46.888C52.4376 46.888 53.1563 47.1073 53.6603 47.546C54.1643 47.9753 54.4163 48.5493 54.4163 49.268V53.51C54.4163 53.6593 54.3743 53.7807 54.2903 53.874C54.2063 53.958 54.0849 54 53.9263 54H53.5623C53.4129 54 53.2916 53.958 53.1983 53.874C53.1143 53.7807 53.0723 53.6593 53.0723 53.51V53.202C52.8483 53.5287 52.5403 53.7807 52.1483 53.958C51.7563 54.1353 51.2989 54.224 50.7763 54.224C50.0576 54.224 49.4649 54.0653 48.9983 53.748C48.5409 53.4213 48.3123 52.9313 48.3123 52.278C48.3123 51.55 48.5829 51.0133 49.1243 50.668C49.6749 50.3133 50.4356 50.0473 51.4063 49.87L52.9883 49.576V49.324C52.9883 48.9413 52.8529 48.6473 52.5823 48.442C52.3209 48.2273 51.9709 48.12 51.5323 48.12C51.1589 48.12 50.8323 48.1853 50.5523 48.316C50.2816 48.4373 49.9876 48.6427 49.6703 48.932C49.5489 49.0347 49.4323 49.086 49.3203 49.086C49.2083 49.086 49.0916 49.0347 48.9703 48.932L48.7463 48.736C48.6249 48.624 48.5643 48.5027 48.5643 48.372C48.5643 48.2507 48.6203 48.134 48.7323 48.022C49.1336 47.6393 49.5583 47.3547 50.0063 47.168C50.4543 46.9813 50.9536 46.888 51.5043 46.888ZM50.9863 53.034C51.5463 53.034 52.0176 52.8847 52.4003 52.586C52.7923 52.2873 52.9883 51.858 52.9883 51.298V50.654L51.7703 50.906C51.0889 51.046 50.5849 51.2047 50.2583 51.382C49.9316 51.5593 49.7683 51.83 49.7683 52.194C49.7683 52.4553 49.8756 52.6607 50.0903 52.81C50.3049 52.9593 50.6036 53.034 50.9863 53.034ZM59.7798 46.916C60.3678 46.916 60.8905 47.0653 61.3478 47.364C61.8145 47.6627 62.1785 48.0873 62.4398 48.638C62.7011 49.1887 62.8318 49.8233 62.8318 50.542C62.8318 51.27 62.7011 51.9093 62.4398 52.46C62.1785 53.0107 61.8145 53.4353 61.3478 53.734C60.8811 54.0327 60.3585 54.182 59.7798 54.182C58.7438 54.182 57.9831 53.7947 57.4978 53.02V53.51C57.4978 53.6593 57.4558 53.7807 57.3718 53.874C57.2878 53.958 57.1665 54 57.0078 54H56.6018C56.4525 54 56.3311 53.958 56.2378 53.874C56.1538 53.7807 56.1118 53.6593 56.1118 53.51V44.55C56.1118 44.3913 56.1538 44.27 56.2378 44.186C56.3311 44.102 56.4525 44.06 56.6018 44.06H57.1058C57.2645 44.06 57.3858 44.102 57.4698 44.186C57.5538 44.27 57.5958 44.3913 57.5958 44.55V47.966C58.0905 47.266 58.8185 46.916 59.7798 46.916ZM59.4718 52.894C60.0318 52.894 60.4798 52.684 60.8158 52.264C61.1518 51.8347 61.3198 51.2607 61.3198 50.542C61.3198 49.8327 61.1518 49.2633 60.8158 48.834C60.4891 48.4047 60.0458 48.19 59.4858 48.19C58.9165 48.19 58.4498 48.4047 58.0858 48.834C57.7218 49.254 57.5398 49.8233 57.5398 50.542C57.5398 51.2793 57.7218 51.858 58.0858 52.278C58.4498 52.6887 58.9118 52.894 59.4718 52.894ZM69.2023 52.236C69.3236 52.1333 69.4403 52.082 69.5523 52.082C69.6643 52.082 69.7809 52.1427 69.9023 52.264L70.0983 52.474C70.2009 52.5953 70.2523 52.712 70.2523 52.824C70.2523 52.9453 70.1916 53.062 70.0703 53.174C69.6409 53.5473 69.2116 53.8133 68.7823 53.972C68.3623 54.1307 67.8956 54.21 67.3823 54.21C66.6636 54.21 66.0383 54.0607 65.5063 53.762C64.9836 53.4633 64.5776 53.0433 64.2883 52.502C64.0083 51.9513 63.8682 51.3167 63.8682 50.598C63.8682 49.8887 64.0036 49.254 64.2743 48.694C64.5543 48.1247 64.9463 47.6813 65.4503 47.364C65.9636 47.0467 66.5609 46.888 67.2423 46.888C68.2596 46.888 69.0436 47.1913 69.5943 47.798C70.1449 48.3953 70.4203 49.2213 70.4203 50.276V50.402C70.4109 50.5513 70.3643 50.668 70.2803 50.752C70.1963 50.836 70.0749 50.878 69.9163 50.878H65.3243C65.3803 51.494 65.5809 51.998 65.9263 52.39C66.2809 52.7727 66.7756 52.964 67.4103 52.964C67.7556 52.964 68.0589 52.9127 68.3203 52.81C68.5816 52.698 68.8756 52.5067 69.2023 52.236ZM67.2143 48.064C66.7009 48.064 66.2856 48.218 65.9683 48.526C65.6603 48.8247 65.4596 49.2493 65.3663 49.8H68.9643C68.9269 49.2587 68.7589 48.834 68.4603 48.526C68.1616 48.218 67.7463 48.064 67.2143 48.064ZM72.3258 54C72.1764 54 72.0551 53.958 71.9618 53.874C71.8778 53.7807 71.8358 53.6593 71.8358 53.51V44.55C71.8358 44.3913 71.8778 44.27 71.9618 44.186C72.0551 44.102 72.1764 44.06 72.3258 44.06H72.8298C72.9884 44.06 73.1098 44.102 73.1938 44.186C73.2778 44.27 73.3198 44.3913 73.3198 44.55V53.51C73.3198 53.6593 73.2778 53.7807 73.1938 53.874C73.1098 53.958 72.9884 54 72.8298 54H72.3258Z" fill="#464646"/>
<rect x="40.5" y="62.5" width="263" height="87" rx="3.5" fill="white"/>
<path d="M49.696 91C49.4827 91 49.376 90.8933 49.376 90.68V79.96C49.376 79.7467 49.4827 79.64 49.696 79.64H50.192C50.4053 79.64 50.512 79.7467 50.512 79.96V84.664H57.072V79.96C57.072 79.7467 57.1787 79.64 57.392 79.64H57.888C58.1013 79.64 58.208 79.7467 58.208 79.96V90.68C58.208 90.8933 58.1013 91 57.888 91H57.392C57.1787 91 57.072 90.8933 57.072 90.68V85.608H50.512V90.68C50.512 90.8933 50.4053 91 50.192 91H49.696ZM61.2901 81.112C61.0768 81.112 60.8955 81.0373 60.7461 80.888C60.6075 80.7387 60.5381 80.5573 60.5381 80.344C60.5381 80.1307 60.6075 79.9547 60.7461 79.816C60.8955 79.6773 61.0768 79.608 61.2901 79.608C61.5141 79.608 61.6955 79.6773 61.8341 79.816C61.9835 79.9547 62.0581 80.1307 62.0581 80.344C62.0581 80.5573 61.9835 80.7387 61.8341 80.888C61.6955 81.0373 61.5141 81.112 61.2901 81.112ZM61.0821 91C60.8688 91 60.7621 90.8933 60.7621 90.68V83.432C60.7621 83.2187 60.8688 83.112 61.0821 83.112H61.4981C61.7115 83.112 61.8181 83.2187 61.8181 83.432V90.68C61.8181 90.8933 61.7115 91 61.4981 91H61.0821ZM67.6884 82.92C68.6164 82.92 69.315 83.176 69.7844 83.688C70.2644 84.2 70.5044 84.84 70.5044 85.608V90.68C70.5044 90.8933 70.3977 91 70.1844 91H69.7684C69.555 91 69.4484 90.8933 69.4484 90.68V85.96C69.4484 85.256 69.2777 84.7227 68.9364 84.36C68.595 83.9973 68.1044 83.816 67.4644 83.816C67.059 83.816 66.6857 83.9173 66.3444 84.12C66.003 84.312 65.731 84.5787 65.5284 84.92C65.3257 85.2613 65.2244 85.6347 65.2244 86.04V90.68C65.2244 90.8933 65.1177 91 64.9044 91H64.4884C64.275 91 64.1684 90.8933 64.1684 90.68V83.432C64.1684 83.2187 64.275 83.112 64.4884 83.112H64.8404C65.0537 83.112 65.1604 83.2187 65.1604 83.432V84.2C65.427 83.7733 65.779 83.4533 66.2164 83.24C66.6537 83.0267 67.1444 82.92 67.6884 82.92ZM76.1735 90.12C76.2055 90.1093 76.2482 90.104 76.3015 90.104C76.3655 90.104 76.4242 90.1253 76.4775 90.168C76.5308 90.2107 76.5628 90.2693 76.5735 90.344L76.6215 90.568C76.6322 90.5893 76.6375 90.6267 76.6375 90.68C76.6375 90.8293 76.5575 90.92 76.3975 90.952C76.0135 91.0693 75.6028 91.128 75.1655 91.128C74.4722 91.128 73.9762 90.9733 73.6775 90.664C73.3895 90.344 73.2455 89.8853 73.2455 89.288V83.912H72.0615C71.8482 83.912 71.7415 83.8053 71.7415 83.592V83.432C71.7415 83.2187 71.8482 83.112 72.0615 83.112H73.2455V80.68C73.2455 80.4667 73.3522 80.36 73.5655 80.36H73.9815C74.1948 80.36 74.3015 80.4667 74.3015 80.68V83.112H76.2215C76.4348 83.112 76.5415 83.2187 76.5415 83.432V83.592C76.5415 83.8053 76.4348 83.912 76.2215 83.912H74.3015V89.16C74.3015 89.5547 74.3762 89.832 74.5255 89.992C74.6748 90.152 74.9308 90.232 75.2935 90.232C75.5495 90.232 75.8428 90.1947 76.1735 90.12ZM78.8973 91.112C78.6733 91.112 78.4813 91.032 78.3213 90.872C78.1613 90.712 78.0813 90.52 78.0813 90.296C78.0813 90.072 78.1613 89.88 78.3213 89.72C78.4813 89.56 78.6733 89.48 78.8973 89.48C79.1213 89.48 79.3133 89.56 79.4733 89.72C79.6333 89.88 79.7133 90.072 79.7133 90.296C79.7133 90.52 79.6333 90.712 79.4733 90.872C79.3133 91.032 79.1213 91.112 78.8973 91.112ZM82.1316 91.112C81.9076 91.112 81.7156 91.032 81.5556 90.872C81.3956 90.712 81.3156 90.52 81.3156 90.296C81.3156 90.072 81.3956 89.88 81.5556 89.72C81.7156 89.56 81.9076 89.48 82.1316 89.48C82.3556 89.48 82.5476 89.56 82.7076 89.72C82.8676 89.88 82.9476 90.072 82.9476 90.296C82.9476 90.52 82.8676 90.712 82.7076 90.872C82.5476 91.032 82.3556 91.112 82.1316 91.112ZM85.366 91.112C85.142 91.112 84.95 91.032 84.79 90.872C84.63 90.712 84.55 90.52 84.55 90.296C84.55 90.072 84.63 89.88 84.79 89.72C84.95 89.56 85.142 89.48 85.366 89.48C85.59 89.48 85.782 89.56 85.942 89.72C86.102 89.88 86.182 90.072 86.182 90.296C86.182 90.52 86.102 90.712 85.942 90.872C85.782 91.032 85.59 91.112 85.366 91.112Z" fill="#C3CCD9"/>
<g filter="url(#filter0_d_1715_18444)">
<path d="M300 140L294 146M300 144L298 146" stroke="#767676" stroke-linecap="square"/>
</g>
<rect x="40.5" y="62.5" width="263" height="87" rx="3.5" stroke="#C3CCD9"/>
<defs>
<filter id="filter0_d_1715_18444" x="293.293" y="139.293" width="7.41431" height="8.41431" filterUnits="userSpaceOnUse" color-interpolation-filters="sRGB">
<feFlood flood-opacity="0" result="BackgroundImageFix"/>
<feColorMatrix in="SourceAlpha" type="matrix" values="0 0 0 0 0 0 0 0 0 0 0 0 0 0 0 0 0 0 127 0" result="hardAlpha"/>
<feOffset dy="1"/>
<feColorMatrix type="matrix" values="0 0 0 0 1 0 0 0 0 1 0 0 0 0 1 0 0 0 0.5 0"/>
<feBlend mode="normal" in2="BackgroundImageFix" result="effect1_dropShadow_1715_18444"/>
<feBlend mode="normal" in="SourceGraphic" in2="effect1_dropShadow_1715_18444" result="shape"/>
</filter>
</defs>
</svg>
