<svg width="344" height="190" viewBox="0 0 344 190" fill="none" xmlns="http://www.w3.org/2000/svg">
<rect width="344" height="190" fill="#F5F5F5"/>
<path d="M71.568 54C71.4187 54 71.2973 53.958 71.204 53.874C71.12 53.7807 71.078 53.6593 71.078 53.51V44.55C71.078 44.3913 71.12 44.27 71.204 44.186C71.2973 44.102 71.4187 44.06 71.568 44.06H72.184C72.3427 44.06 72.464 44.102 72.548 44.186C72.632 44.27 72.674 44.3913 72.674 44.55V52.642H76.72C76.8787 52.642 77 52.684 77.084 52.768C77.168 52.852 77.21 52.9733 77.21 53.132V53.51C77.21 53.6593 77.168 53.7807 77.084 53.874C77 53.958 76.8787 54 76.72 54H71.568ZM81.5043 46.888C82.4376 46.888 83.1563 47.1073 83.6603 47.546C84.1643 47.9753 84.4163 48.5493 84.4163 49.268V53.51C84.4163 53.6593 84.3743 53.7807 84.2903 53.874C84.2063 53.958 84.0849 54 83.9263 54H83.5623C83.4129 54 83.2916 53.958 83.1983 53.874C83.1143 53.7807 83.0723 53.6593 83.0723 53.51V53.202C82.8483 53.5287 82.5403 53.7807 82.1483 53.958C81.7563 54.1353 81.2989 54.224 80.7763 54.224C80.0576 54.224 79.4649 54.0653 78.9983 53.748C78.5409 53.4213 78.3123 52.9313 78.3123 52.278C78.3123 51.55 78.5829 51.0133 79.1243 50.668C79.6749 50.3133 80.4356 50.0473 81.4063 49.87L82.9883 49.576V49.324C82.9883 48.9413 82.8529 48.6473 82.5823 48.442C82.3209 48.2273 81.9709 48.12 81.5323 48.12C81.1589 48.12 80.8323 48.1853 80.5523 48.316C80.2816 48.4373 79.9876 48.6427 79.6703 48.932C79.5489 49.0347 79.4323 49.086 79.3203 49.086C79.2083 49.086 79.0916 49.0347 78.9703 48.932L78.7463 48.736C78.6249 48.624 78.5643 48.5027 78.5643 48.372C78.5643 48.2507 78.6203 48.134 78.7323 48.022C79.1336 47.6393 79.5583 47.3547 80.0063 47.168C80.4543 46.9813 80.9536 46.888 81.5043 46.888ZM80.9863 53.034C81.5463 53.034 82.0176 52.8847 82.4003 52.586C82.7923 52.2873 82.9883 51.858 82.9883 51.298V50.654L81.7703 50.906C81.0889 51.046 80.5849 51.2047 80.2583 51.382C79.9316 51.5593 79.7683 51.83 79.7683 52.194C79.7683 52.4553 79.8756 52.6607 80.0903 52.81C80.3049 52.9593 80.6036 53.034 80.9863 53.034ZM89.7798 46.916C90.3678 46.916 90.8905 47.0653 91.3478 47.364C91.8145 47.6627 92.1785 48.0873 92.4398 48.638C92.7011 49.1887 92.8318 49.8233 92.8318 50.542C92.8318 51.27 92.7011 51.9093 92.4398 52.46C92.1785 53.0107 91.8145 53.4353 91.3478 53.734C90.8811 54.0327 90.3585 54.182 89.7798 54.182C88.7438 54.182 87.9831 53.7947 87.4978 53.02V53.51C87.4978 53.6593 87.4558 53.7807 87.3718 53.874C87.2878 53.958 87.1665 54 87.0078 54H86.6018C86.4525 54 86.3311 53.958 86.2378 53.874C86.1538 53.7807 86.1118 53.6593 86.1118 53.51V44.55C86.1118 44.3913 86.1538 44.27 86.2378 44.186C86.3311 44.102 86.4525 44.06 86.6018 44.06H87.1058C87.2645 44.06 87.3858 44.102 87.4698 44.186C87.5538 44.27 87.5958 44.3913 87.5958 44.55V47.966C88.0905 47.266 88.8185 46.916 89.7798 46.916ZM89.4718 52.894C90.0318 52.894 90.4798 52.684 90.8158 52.264C91.1518 51.8347 91.3198 51.2607 91.3198 50.542C91.3198 49.8327 91.1518 49.2633 90.8158 48.834C90.4891 48.4047 90.0458 48.19 89.4858 48.19C88.9165 48.19 88.4498 48.4047 88.0858 48.834C87.7218 49.254 87.5398 49.8233 87.5398 50.542C87.5398 51.2793 87.7218 51.858 88.0858 52.278C88.4498 52.6887 88.9118 52.894 89.4718 52.894ZM99.2023 52.236C99.3236 52.1333 99.4403 52.082 99.5523 52.082C99.6643 52.082 99.7809 52.1427 99.9023 52.264L100.098 52.474C100.201 52.5953 100.252 52.712 100.252 52.824C100.252 52.9453 100.192 53.062 100.07 53.174C99.6409 53.5473 99.2116 53.8133 98.7823 53.972C98.3623 54.1307 97.8956 54.21 97.3823 54.21C96.6636 54.21 96.0383 54.0607 95.5063 53.762C94.9836 53.4633 94.5776 53.0433 94.2883 52.502C94.0083 51.9513 93.8682 51.3167 93.8682 50.598C93.8682 49.8887 94.0036 49.254 94.2743 48.694C94.5543 48.1247 94.9463 47.6813 95.4503 47.364C95.9636 47.0467 96.5609 46.888 97.2423 46.888C98.2596 46.888 99.0436 47.1913 99.5943 47.798C100.145 48.3953 100.42 49.2213 100.42 50.276V50.402C100.411 50.5513 100.364 50.668 100.28 50.752C100.196 50.836 100.075 50.878 99.9163 50.878H95.3243C95.3803 51.494 95.5809 51.998 95.9263 52.39C96.2809 52.7727 96.7756 52.964 97.4103 52.964C97.7556 52.964 98.0589 52.9127 98.3203 52.81C98.5816 52.698 98.8756 52.5067 99.2023 52.236ZM97.2143 48.064C96.7009 48.064 96.2856 48.218 95.9683 48.526C95.6603 48.8247 95.4596 49.2493 95.3663 49.8H98.9643C98.9269 49.2587 98.7589 48.834 98.4603 48.526C98.1616 48.218 97.7463 48.064 97.2143 48.064ZM102.326 54C102.176 54 102.055 53.958 101.962 53.874C101.878 53.7807 101.836 53.6593 101.836 53.51V44.55C101.836 44.3913 101.878 44.27 101.962 44.186C102.055 44.102 102.176 44.06 102.326 44.06H102.83C102.988 44.06 103.11 44.102 103.194 44.186C103.278 44.27 103.32 44.3913 103.32 44.55V53.51C103.32 53.6593 103.278 53.7807 103.194 53.874C103.11 53.958 102.988 54 102.83 54H102.326Z" fill="#464646"/>
<rect x="70.5" y="62.5" width="202" height="87" rx="3.5" fill="white"/>
<path d="M79.808 91C79.5947 91 79.488 90.8933 79.488 90.68V79.96C79.488 79.7467 79.5947 79.64 79.808 79.64H80.304C80.5173 79.64 80.624 79.7467 80.624 79.96V90.68C80.624 90.8933 80.5173 91 80.304 91H79.808ZM90.0209 82.92C90.9915 82.92 91.7489 83.1547 92.2929 83.624C92.8369 84.0827 93.1089 84.6907 93.1089 85.448V90.68C93.1089 90.8933 93.0022 91 92.7889 91H92.4689C92.2555 91 92.1489 90.8933 92.1489 90.68V89.96C91.8822 90.3867 91.5035 90.7067 91.0129 90.92C90.5329 91.1333 89.9942 91.24 89.3969 91.24C88.5649 91.24 87.8875 91.064 87.3649 90.712C86.8422 90.36 86.5809 89.816 86.5809 89.08C86.5809 88.4933 86.7462 88.024 87.0769 87.672C87.4075 87.3093 87.8395 87.0373 88.3729 86.856C88.9062 86.664 89.5729 86.4933 90.3729 86.344L92.1009 86.04V85.528C92.1009 84.984 91.9142 84.5627 91.5409 84.264C91.1675 83.9547 90.6769 83.8 90.0689 83.8C89.6102 83.8 89.1942 83.8853 88.8209 84.056C88.4475 84.2267 88.0475 84.52 87.6209 84.936C87.5462 85.0107 87.4662 85.048 87.3809 85.048C87.3062 85.048 87.2369 85.016 87.1729 84.952L86.9649 84.76C86.8902 84.6853 86.8529 84.6053 86.8529 84.52C86.8529 84.424 86.8902 84.3387 86.9649 84.264C87.4129 83.7947 87.8822 83.4533 88.3729 83.24C88.8742 83.0267 89.4235 82.92 90.0209 82.92ZM89.4449 90.36C90.2129 90.36 90.8475 90.1573 91.3489 89.752C91.8502 89.3467 92.1009 88.8293 92.1009 88.2V86.856L90.6129 87.144C89.9195 87.2827 89.3702 87.416 88.9649 87.544C88.5595 87.672 88.2342 87.8587 87.9889 88.104C87.7435 88.3493 87.6209 88.6693 87.6209 89.064C87.6209 89.4693 87.7809 89.7893 88.1009 90.024C88.4315 90.248 88.8795 90.36 89.4449 90.36ZM103.466 82.92C104.319 82.92 104.97 83.1653 105.418 83.656C105.876 84.136 106.106 84.7547 106.106 85.512V90.68C106.106 90.8933 105.999 91 105.786 91H105.37C105.156 91 105.05 90.8933 105.05 90.68V85.8C105.05 85.16 104.9 84.6693 104.602 84.328C104.314 83.9867 103.882 83.816 103.306 83.816C102.698 83.816 102.212 84.0187 101.85 84.424C101.487 84.8293 101.306 85.352 101.306 85.992V90.68C101.306 90.8933 101.199 91 100.986 91H100.57C100.356 91 100.25 90.8933 100.25 90.68V85.8C100.25 85.16 100.1 84.6693 99.8016 84.328C99.5136 83.9867 99.0763 83.816 98.4896 83.816C97.9456 83.816 97.4923 83.9867 97.1296 84.328C96.7776 84.6693 96.5696 85.1173 96.5056 85.672V90.68C96.5056 90.8933 96.399 91 96.1856 91H95.7696C95.5563 91 95.4496 90.8933 95.4496 90.68V83.432C95.4496 83.2187 95.5563 83.112 95.7696 83.112H96.1216C96.335 83.112 96.4416 83.2187 96.4416 83.432V84.088C96.9216 83.3093 97.6843 82.92 98.7296 82.92C99.2736 82.92 99.7376 83.0427 100.122 83.288C100.516 83.5227 100.81 83.8427 101.002 84.248C101.567 83.3627 102.388 82.92 103.466 82.92ZM115.161 82.92C116.132 82.92 116.89 83.1547 117.434 83.624C117.978 84.0827 118.25 84.6907 118.25 85.448V90.68C118.25 90.8933 118.143 91 117.93 91H117.61C117.396 91 117.29 90.8933 117.29 90.68V89.96C117.023 90.3867 116.644 90.7067 116.154 90.92C115.674 91.1333 115.135 91.24 114.538 91.24C113.706 91.24 113.028 91.064 112.506 90.712C111.983 90.36 111.722 89.816 111.722 89.08C111.722 88.4933 111.887 88.024 112.218 87.672C112.548 87.3093 112.98 87.0373 113.514 86.856C114.047 86.664 114.714 86.4933 115.514 86.344L117.242 86.04V85.528C117.242 84.984 117.055 84.5627 116.682 84.264C116.308 83.9547 115.818 83.8 115.21 83.8C114.751 83.8 114.335 83.8853 113.962 84.056C113.588 84.2267 113.188 84.52 112.762 84.936C112.687 85.0107 112.607 85.048 112.522 85.048C112.447 85.048 112.378 85.016 112.314 84.952L112.106 84.76C112.031 84.6853 111.993 84.6053 111.993 84.52C111.993 84.424 112.031 84.3387 112.106 84.264C112.554 83.7947 113.023 83.4533 113.514 83.24C114.015 83.0267 114.564 82.92 115.161 82.92ZM114.586 90.36C115.354 90.36 115.988 90.1573 116.49 89.752C116.991 89.3467 117.242 88.8293 117.242 88.2V86.856L115.754 87.144C115.06 87.2827 114.511 87.416 114.106 87.544C113.7 87.672 113.375 87.8587 113.13 88.104C112.884 88.3493 112.762 88.6693 112.762 89.064C112.762 89.4693 112.922 89.7893 113.242 90.024C113.572 90.248 114.02 90.36 114.586 90.36ZM129.142 83.368C129.206 83.1973 129.328 83.112 129.51 83.112H129.926C130.011 83.112 130.08 83.1333 130.134 83.176C130.187 83.2187 130.214 83.2773 130.214 83.352L130.182 83.48L127.638 90.744C127.574 90.9147 127.451 91 127.27 91H126.422C126.24 91 126.118 90.9147 126.054 90.744L123.526 83.48L123.494 83.352C123.494 83.2773 123.52 83.2187 123.574 83.176C123.627 83.1333 123.696 83.112 123.782 83.112H124.214C124.395 83.112 124.518 83.1973 124.582 83.368L125.558 86.184C125.963 87.3573 126.395 88.7067 126.854 90.232C126.875 90.168 126.934 89.9867 127.03 89.688C127.467 88.248 127.846 87.08 128.166 86.184L129.142 83.368ZM134.74 82.92C135.71 82.92 136.468 83.1547 137.012 83.624C137.556 84.0827 137.828 84.6907 137.828 85.448V90.68C137.828 90.8933 137.721 91 137.508 91H137.188C136.974 91 136.868 90.8933 136.868 90.68V89.96C136.601 90.3867 136.222 90.7067 135.732 90.92C135.252 91.1333 134.713 91.24 134.116 91.24C133.284 91.24 132.606 91.064 132.084 90.712C131.561 90.36 131.3 89.816 131.3 89.08C131.3 88.4933 131.465 88.024 131.796 87.672C132.126 87.3093 132.558 87.0373 133.092 86.856C133.625 86.664 134.292 86.4933 135.092 86.344L136.82 86.04V85.528C136.82 84.984 136.633 84.5627 136.26 84.264C135.886 83.9547 135.396 83.8 134.788 83.8C134.329 83.8 133.913 83.8853 133.54 84.056C133.166 84.2267 132.766 84.52 132.34 84.936C132.265 85.0107 132.185 85.048 132.1 85.048C132.025 85.048 131.956 85.016 131.892 84.952L131.684 84.76C131.609 84.6853 131.572 84.6053 131.572 84.52C131.572 84.424 131.609 84.3387 131.684 84.264C132.132 83.7947 132.601 83.4533 133.092 83.24C133.593 83.0267 134.142 82.92 134.74 82.92ZM134.164 90.36C134.932 90.36 135.566 90.1573 136.068 89.752C136.569 89.3467 136.82 88.8293 136.82 88.2V86.856L135.332 87.144C134.638 87.2827 134.089 87.416 133.684 87.544C133.278 87.672 132.953 87.8587 132.708 88.104C132.462 88.3493 132.34 88.6693 132.34 89.064C132.34 89.4693 132.5 89.7893 132.82 90.024C133.15 90.248 133.598 90.36 134.164 90.36ZM140.504 91C140.291 91 140.184 90.8933 140.184 90.68V79.96C140.184 79.7467 140.291 79.64 140.504 79.64H140.92C141.134 79.64 141.24 79.7467 141.24 79.96V90.68C141.24 90.8933 141.134 91 140.92 91H140.504ZM148.742 83.432C148.742 83.2187 148.848 83.112 149.062 83.112H149.478C149.691 83.112 149.798 83.2187 149.798 83.432V90.68C149.798 90.8933 149.691 91 149.478 91H149.142C148.928 91 148.822 90.8933 148.822 90.68V89.96C148.587 90.376 148.251 90.6907 147.814 90.904C147.387 91.1067 146.918 91.208 146.406 91.208C145.446 91.208 144.736 90.968 144.278 90.488C143.819 89.9973 143.59 89.368 143.59 88.6V83.432C143.59 83.2187 143.696 83.112 143.91 83.112H144.326C144.539 83.112 144.646 83.2187 144.646 83.432V88.376C144.646 89.0053 144.8 89.4853 145.11 89.816C145.43 90.136 145.883 90.296 146.47 90.296C147.131 90.296 147.675 90.0933 148.102 89.688C148.528 89.2827 148.742 88.7067 148.742 87.96V83.432ZM157.912 89.128C157.987 89.0533 158.067 89.016 158.152 89.016C158.227 89.016 158.296 89.048 158.36 89.112L158.568 89.304C158.643 89.3787 158.68 89.4587 158.68 89.544C158.68 89.608 158.648 89.6827 158.584 89.768C158.062 90.2907 157.555 90.664 157.064 90.888C156.574 91.1013 156.024 91.208 155.416 91.208C154.648 91.208 153.982 91.0373 153.416 90.696C152.851 90.3547 152.414 89.88 152.104 89.272C151.795 88.6533 151.64 87.9387 151.64 87.128C151.64 86.3067 151.79 85.5813 152.088 84.952C152.398 84.312 152.83 83.816 153.384 83.464C153.939 83.1013 154.579 82.92 155.304 82.92C156.382 82.92 157.23 83.256 157.848 83.928C158.467 84.6 158.776 85.5067 158.776 86.648V86.84C158.766 86.936 158.728 87.0107 158.664 87.064C158.611 87.1173 158.536 87.144 158.44 87.144H152.712C152.744 88.04 152.979 88.7973 153.416 89.416C153.864 90.024 154.531 90.328 155.416 90.328C155.896 90.328 156.318 90.2427 156.68 90.072C157.054 89.8907 157.464 89.576 157.912 89.128ZM155.304 83.8C154.6 83.8 154.019 84.0187 153.56 84.456C153.112 84.8827 152.84 85.512 152.744 86.344H157.72C157.699 85.5653 157.475 84.9467 157.048 84.488C156.622 84.0293 156.04 83.8 155.304 83.8ZM167.908 90.12C167.94 90.1093 167.983 90.104 168.036 90.104C168.1 90.104 168.159 90.1253 168.212 90.168C168.265 90.2107 168.297 90.2693 168.308 90.344L168.356 90.568C168.367 90.5893 168.372 90.6267 168.372 90.68C168.372 90.8293 168.292 90.92 168.132 90.952C167.748 91.0693 167.337 91.128 166.9 91.128C166.207 91.128 165.711 90.9733 165.412 90.664C165.124 90.344 164.98 89.8853 164.98 89.288V83.912H163.796C163.583 83.912 163.476 83.8053 163.476 83.592V83.432C163.476 83.2187 163.583 83.112 163.796 83.112H164.98V80.68C164.98 80.4667 165.087 80.36 165.3 80.36H165.716C165.929 80.36 166.036 80.4667 166.036 80.68V83.112H167.956C168.169 83.112 168.276 83.2187 168.276 83.432V83.592C168.276 83.8053 168.169 83.912 167.956 83.912H166.036V89.16C166.036 89.5547 166.111 89.832 166.26 89.992C166.409 90.152 166.665 90.232 167.028 90.232C167.284 90.232 167.577 90.1947 167.908 90.12ZM175.334 89.128C175.409 89.0533 175.489 89.016 175.574 89.016C175.649 89.016 175.718 89.048 175.782 89.112L175.99 89.304C176.065 89.3787 176.102 89.4587 176.102 89.544C176.102 89.608 176.07 89.6827 176.006 89.768C175.484 90.2907 174.977 90.664 174.486 90.888C173.996 91.1013 173.446 91.208 172.838 91.208C172.07 91.208 171.404 91.0373 170.838 90.696C170.273 90.3547 169.836 89.88 169.526 89.272C169.217 88.6533 169.062 87.9387 169.062 87.128C169.062 86.3067 169.212 85.5813 169.51 84.952C169.82 84.312 170.252 83.816 170.806 83.464C171.361 83.1013 172.001 82.92 172.726 82.92C173.804 82.92 174.652 83.256 175.27 83.928C175.889 84.6 176.198 85.5067 176.198 86.648V86.84C176.188 86.936 176.15 87.0107 176.086 87.064C176.033 87.1173 175.958 87.144 175.862 87.144H170.134C170.166 88.04 170.401 88.7973 170.838 89.416C171.286 90.024 171.953 90.328 172.838 90.328C173.318 90.328 173.74 90.2427 174.102 90.072C174.476 89.8907 174.886 89.576 175.334 89.128ZM172.726 83.8C172.022 83.8 171.441 84.0187 170.982 84.456C170.534 84.8827 170.262 85.512 170.166 86.344H175.142C175.121 85.5653 174.897 84.9467 174.47 84.488C174.044 84.0293 173.462 83.8 172.726 83.8ZM183.679 90.616C183.722 90.6907 183.743 90.7547 183.743 90.808C183.743 90.936 183.658 91 183.487 91H183.007C182.847 91 182.719 90.9307 182.623 90.792L180.447 87.592L178.287 90.792C178.191 90.9307 178.063 91 177.903 91H177.455C177.37 91 177.3 90.984 177.247 90.952C177.204 90.9093 177.183 90.8613 177.183 90.808C177.183 90.7333 177.204 90.6693 177.247 90.616L179.839 86.888L177.455 83.496C177.412 83.4427 177.391 83.384 177.391 83.32C177.391 83.1813 177.482 83.112 177.663 83.112H178.127C178.287 83.112 178.415 83.1813 178.511 83.32L180.463 86.184L182.399 83.32C182.495 83.1813 182.623 83.112 182.783 83.112H183.215C183.3 83.112 183.364 83.1333 183.407 83.176C183.46 83.208 183.487 83.2507 183.487 83.304C183.487 83.3787 183.466 83.4427 183.423 83.496L181.087 86.84L183.679 90.616ZM188.986 90.12C189.018 90.1093 189.061 90.104 189.114 90.104C189.178 90.104 189.237 90.1253 189.29 90.168C189.343 90.2107 189.375 90.2693 189.386 90.344L189.434 90.568C189.445 90.5893 189.45 90.6267 189.45 90.68C189.45 90.8293 189.37 90.92 189.21 90.952C188.826 91.0693 188.415 91.128 187.978 91.128C187.285 91.128 186.789 90.9733 186.49 90.664C186.202 90.344 186.058 89.8853 186.058 89.288V83.912H184.874C184.661 83.912 184.554 83.8053 184.554 83.592V83.432C184.554 83.2187 184.661 83.112 184.874 83.112H186.058V80.68C186.058 80.4667 186.165 80.36 186.378 80.36H186.794C187.007 80.36 187.114 80.4667 187.114 80.68V83.112H189.034C189.247 83.112 189.354 83.2187 189.354 83.432V83.592C189.354 83.8053 189.247 83.912 189.034 83.912H187.114V89.16C187.114 89.5547 187.189 89.832 187.338 89.992C187.487 90.152 187.743 90.232 188.106 90.232C188.362 90.232 188.655 90.1947 188.986 90.12ZM191.71 91.112C191.486 91.112 191.294 91.032 191.134 90.872C190.974 90.712 190.894 90.52 190.894 90.296C190.894 90.072 190.974 89.88 191.134 89.72C191.294 89.56 191.486 89.48 191.71 89.48C191.934 89.48 192.126 89.56 192.286 89.72C192.446 89.88 192.526 90.072 192.526 90.296C192.526 90.52 192.446 90.712 192.286 90.872C192.126 91.032 191.934 91.112 191.71 91.112ZM194.944 91.112C194.72 91.112 194.528 91.032 194.368 90.872C194.208 90.712 194.128 90.52 194.128 90.296C194.128 90.072 194.208 89.88 194.368 89.72C194.528 89.56 194.72 89.48 194.944 89.48C195.168 89.48 195.36 89.56 195.52 89.72C195.68 89.88 195.76 90.072 195.76 90.296C195.76 90.52 195.68 90.712 195.52 90.872C195.36 91.032 195.168 91.112 194.944 91.112Z" fill="#464646"/>
<g filter="url(#filter0_d_1715_18403)">
<path d="M269 140L263 146M269 144L267 146" stroke="#767676" stroke-linecap="square"/>
</g>
<rect x="70.5" y="62.5" width="202" height="87" rx="3.5" stroke="#C3CCD9"/>
<defs>
<filter id="filter0_d_1715_18403" x="262.293" y="139.293" width="7.41431" height="8.41431" filterUnits="userSpaceOnUse" color-interpolation-filters="sRGB">
<feFlood flood-opacity="0" result="BackgroundImageFix"/>
<feColorMatrix in="SourceAlpha" type="matrix" values="0 0 0 0 0 0 0 0 0 0 0 0 0 0 0 0 0 0 127 0" result="hardAlpha"/>
<feOffset dy="1"/>
<feColorMatrix type="matrix" values="0 0 0 0 1 0 0 0 0 1 0 0 0 0 1 0 0 0 0.5 0"/>
<feBlend mode="normal" in2="BackgroundImageFix" result="effect1_dropShadow_1715_18403"/>
<feBlend mode="normal" in="SourceGraphic" in2="effect1_dropShadow_1715_18403" result="shape"/>
</filter>
</defs>
</svg>
