<svg width="344" height="210" viewBox="0 0 344 210" fill="none" xmlns="http://www.w3.org/2000/svg">
<rect width="344" height="210" fill="#F5F5F5"/>
<path d="M79.694 44.466C79.778 44.1953 79.9647 44.06 80.254 44.06H81.85C82.0087 44.06 82.13 44.102 82.214 44.186C82.298 44.27 82.34 44.3913 82.34 44.55V53.51C82.34 53.6593 82.298 53.7807 82.214 53.874C82.13 53.958 82.0087 54 81.85 54H81.276C81.1267 54 81.0053 53.958 80.912 53.874C80.828 53.7807 80.786 53.6593 80.786 53.51V49.002C80.786 48.442 80.7953 47.602 80.814 46.482L80.828 45.264C80.716 45.6187 80.45 46.426 80.03 47.686L79.596 49.002L78.056 53.594C77.972 53.8647 77.7853 54 77.496 54H76.95C76.6607 54 76.474 53.8693 76.39 53.608L74.822 49.002C74.2713 47.4153 73.856 46.1693 73.576 45.264C73.5947 46.9067 73.604 48.1527 73.604 49.002V53.51C73.604 53.6593 73.562 53.7807 73.478 53.874C73.394 53.958 73.2727 54 73.114 54H72.568C72.4187 54 72.2973 53.958 72.204 53.874C72.12 53.7807 72.078 53.6593 72.078 53.51V44.55C72.078 44.3913 72.12 44.27 72.204 44.186C72.2973 44.102 72.4187 44.06 72.568 44.06H74.192C74.4813 44.06 74.668 44.1907 74.752 44.452L76.054 48.288C76.6047 49.9307 76.9967 51.1767 77.23 52.026C77.5287 50.9807 77.9207 49.7347 78.406 48.288L79.694 44.466ZM87.1801 46.888C88.1134 46.888 88.8321 47.1073 89.3361 47.546C89.8401 47.9753 90.0921 48.5493 90.0921 49.268V53.51C90.0921 53.6593 90.0501 53.7807 89.9661 53.874C89.8821 53.958 89.7607 54 89.6021 54H89.2381C89.0887 54 88.9674 53.958 88.8741 53.874C88.7901 53.7807 88.7481 53.6593 88.7481 53.51V53.202C88.5241 53.5287 88.2161 53.7807 87.8241 53.958C87.4321 54.1353 86.9747 54.224 86.4521 54.224C85.7334 54.224 85.1407 54.0653 84.6741 53.748C84.2167 53.4213 83.9881 52.9313 83.9881 52.278C83.9881 51.55 84.2587 51.0133 84.8001 50.668C85.3507 50.3133 86.1114 50.0473 87.0821 49.87L88.6641 49.576V49.324C88.6641 48.9413 88.5287 48.6473 88.2581 48.442C87.9967 48.2273 87.6467 48.12 87.2081 48.12C86.8347 48.12 86.5081 48.1853 86.2281 48.316C85.9574 48.4373 85.6634 48.6427 85.3461 48.932C85.2247 49.0347 85.1081 49.086 84.9961 49.086C84.8841 49.086 84.7674 49.0347 84.6461 48.932L84.4221 48.736C84.3007 48.624 84.2401 48.5027 84.2401 48.372C84.2401 48.2507 84.2961 48.134 84.4081 48.022C84.8094 47.6393 85.2341 47.3547 85.6821 47.168C86.1301 46.9813 86.6294 46.888 87.1801 46.888ZM86.6621 53.034C87.2221 53.034 87.6934 52.8847 88.0761 52.586C88.4681 52.2873 88.6641 51.858 88.6641 51.298V50.654L87.4461 50.906C86.7647 51.046 86.2607 51.2047 85.9341 51.382C85.6074 51.5593 85.4441 51.83 85.4441 52.194C85.4441 52.4553 85.5514 52.6607 85.7661 52.81C85.9807 52.9593 86.2794 53.034 86.6621 53.034ZM94.8956 47.028C95.1009 47.028 95.3109 47.0513 95.5256 47.098C95.7776 47.154 95.9036 47.3033 95.9036 47.546C95.9036 47.6113 95.8989 47.658 95.8896 47.686L95.8196 48.022C95.7636 48.2833 95.6236 48.414 95.3996 48.414L95.2736 48.4C95.1056 48.372 94.9563 48.358 94.8256 48.358C94.3589 48.358 93.9809 48.5447 93.6916 48.918C93.4116 49.282 93.2716 49.7907 93.2716 50.444V53.51C93.2716 53.6593 93.2296 53.7807 93.1456 53.874C93.0616 53.958 92.9403 54 92.7816 54H92.2776C92.1283 54 92.0069 53.958 91.9136 53.874C91.8296 53.7807 91.7876 53.6593 91.7876 53.51V47.588C91.7876 47.4293 91.8296 47.308 91.9136 47.224C92.0069 47.14 92.1283 47.098 92.2776 47.098H92.6836C92.8423 47.098 92.9636 47.14 93.0476 47.224C93.1316 47.308 93.1736 47.4293 93.1736 47.588V48.134C93.3416 47.7887 93.5703 47.518 93.8596 47.322C94.1489 47.126 94.4943 47.028 94.8956 47.028ZM102.093 54C101.832 54 101.636 53.8927 101.505 53.678L99.5729 50.682L98.4669 51.802V53.51C98.4669 53.6593 98.4249 53.7807 98.3409 53.874C98.2569 53.958 98.1356 54 97.9769 54H97.4729C97.3236 54 97.2022 53.958 97.1089 53.874C97.0249 53.7807 96.9829 53.6593 96.9829 53.51V44.55C96.9829 44.3913 97.0249 44.27 97.1089 44.186C97.2022 44.102 97.3236 44.06 97.4729 44.06H97.9769C98.1356 44.06 98.2569 44.102 98.3409 44.186C98.4249 44.27 98.4669 44.3913 98.4669 44.55V50.164L101.113 47.364C101.281 47.1867 101.486 47.098 101.729 47.098H102.261C102.401 47.098 102.504 47.126 102.569 47.182C102.644 47.2287 102.681 47.294 102.681 47.378C102.681 47.49 102.63 47.5973 102.527 47.7L100.595 49.716L102.975 53.412C103.04 53.5147 103.073 53.608 103.073 53.692C103.073 53.7853 103.036 53.86 102.961 53.916C102.886 53.972 102.784 54 102.653 54H102.093ZM108.939 52.236C109.06 52.1333 109.177 52.082 109.289 52.082C109.401 52.082 109.517 52.1427 109.639 52.264L109.835 52.474C109.937 52.5953 109.989 52.712 109.989 52.824C109.989 52.9453 109.928 53.062 109.807 53.174C109.377 53.5473 108.948 53.8133 108.519 53.972C108.099 54.1307 107.632 54.21 107.119 54.21C106.4 54.21 105.775 54.0607 105.243 53.762C104.72 53.4633 104.314 53.0433 104.025 52.502C103.745 51.9513 103.605 51.3167 103.605 50.598C103.605 49.8887 103.74 49.254 104.011 48.694C104.291 48.1247 104.683 47.6813 105.187 47.364C105.7 47.0467 106.297 46.888 106.979 46.888C107.996 46.888 108.78 47.1913 109.331 47.798C109.881 48.3953 110.157 49.2213 110.157 50.276V50.402C110.147 50.5513 110.101 50.668 110.017 50.752C109.933 50.836 109.811 50.878 109.653 50.878H105.061C105.117 51.494 105.317 51.998 105.663 52.39C106.017 52.7727 106.512 52.964 107.147 52.964C107.492 52.964 107.795 52.9127 108.057 52.81C108.318 52.698 108.612 52.5067 108.939 52.236ZM106.951 48.064C106.437 48.064 106.022 48.218 105.705 48.526C105.397 48.8247 105.196 49.2493 105.103 49.8H108.701C108.663 49.2587 108.495 48.834 108.197 48.526C107.898 48.218 107.483 48.064 106.951 48.064ZM114.766 52.824C114.794 52.8147 114.836 52.81 114.892 52.81C115.125 52.81 115.265 52.9453 115.312 53.216L115.354 53.44C115.363 53.468 115.368 53.5147 115.368 53.58C115.368 53.8133 115.237 53.9627 114.976 54.028C114.603 54.112 114.262 54.154 113.954 54.154C113.291 54.154 112.811 54 112.512 53.692C112.223 53.384 112.078 52.922 112.078 52.306V48.232H111.308C111.159 48.232 111.037 48.19 110.944 48.106C110.86 48.0127 110.818 47.8913 110.818 47.742V47.588C110.818 47.4293 110.86 47.308 110.944 47.224C111.037 47.14 111.159 47.098 111.308 47.098H112.078V45.362C112.078 45.2033 112.12 45.082 112.204 44.998C112.297 44.914 112.419 44.872 112.568 44.872H113.072C113.231 44.872 113.352 44.914 113.436 44.998C113.52 45.082 113.562 45.2033 113.562 45.362V47.098H114.822C114.981 47.098 115.102 47.14 115.186 47.224C115.27 47.308 115.312 47.4293 115.312 47.588V47.742C115.312 47.8913 115.27 48.0127 115.186 48.106C115.102 48.19 114.981 48.232 114.822 48.232H113.562V52.124C113.562 52.3947 113.618 52.586 113.73 52.698C113.851 52.81 114.043 52.866 114.304 52.866C114.416 52.866 114.57 52.852 114.766 52.824ZM119.303 54.21C118.734 54.21 118.225 54.14 117.777 54C117.338 53.8507 116.89 53.594 116.433 53.23C116.293 53.1273 116.223 53.0107 116.223 52.88C116.223 52.7773 116.274 52.6653 116.377 52.544L116.587 52.306C116.699 52.1753 116.82 52.11 116.951 52.11C117.054 52.11 117.166 52.1567 117.287 52.25C117.679 52.5393 118.024 52.74 118.323 52.852C118.622 52.9547 118.958 53.006 119.331 53.006C119.732 53.006 120.059 52.9267 120.311 52.768C120.572 52.6 120.703 52.376 120.703 52.096C120.703 51.8813 120.628 51.7133 120.479 51.592C120.339 51.4613 120.152 51.3633 119.919 51.298C119.686 51.2233 119.34 51.1393 118.883 51.046C118.239 50.906 117.735 50.7567 117.371 50.598C117.016 50.43 116.76 50.22 116.601 49.968C116.442 49.716 116.363 49.394 116.363 49.002C116.363 48.6007 116.475 48.2413 116.699 47.924C116.932 47.6067 117.254 47.3547 117.665 47.168C118.085 46.9813 118.575 46.888 119.135 46.888C119.639 46.888 120.087 46.944 120.479 47.056C120.88 47.168 121.272 47.3593 121.655 47.63C121.804 47.742 121.879 47.868 121.879 48.008C121.879 48.1013 121.832 48.2087 121.739 48.33L121.557 48.554C121.454 48.6847 121.328 48.75 121.179 48.75C121.067 48.75 120.96 48.7127 120.857 48.638C120.549 48.4327 120.264 48.2927 120.003 48.218C119.742 48.134 119.448 48.092 119.121 48.092C118.72 48.092 118.398 48.1713 118.155 48.33C117.912 48.4887 117.791 48.694 117.791 48.946C117.791 49.114 117.847 49.2493 117.959 49.352C118.08 49.4453 118.248 49.5293 118.463 49.604C118.687 49.6693 119.037 49.7533 119.513 49.856C120.157 49.996 120.666 50.1547 121.039 50.332C121.422 50.5 121.702 50.7193 121.879 50.99C122.066 51.2513 122.159 51.592 122.159 52.012C122.159 52.6653 121.898 53.1973 121.375 53.608C120.862 54.0093 120.171 54.21 119.303 54.21Z" fill="#464646"/>
<rect x="71.5" y="62.5" width="202" height="71" rx="3.5" fill="white"/>
<path d="M88.648 90.616C88.6907 90.6693 88.712 90.728 88.712 90.792C88.712 90.9307 88.6213 91 88.44 91H87.848C87.688 91 87.56 90.9307 87.464 90.792L84.424 86.28H81.512V90.68C81.512 90.8933 81.4053 91 81.192 91H80.696C80.4827 91 80.376 90.8933 80.376 90.68V79.96C80.376 79.7467 80.4827 79.64 80.696 79.64H84.872C85.96 79.64 86.84 79.9333 87.512 80.52C88.184 81.096 88.52 81.9067 88.52 82.952C88.52 83.8693 88.2587 84.6107 87.736 85.176C87.224 85.7413 86.5307 86.088 85.656 86.216L88.648 90.616ZM81.512 85.336H84.696C85.5387 85.336 86.2 85.1333 86.68 84.728C87.16 84.3227 87.4 83.7307 87.4 82.952C87.4 82.184 87.1547 81.5973 86.664 81.192C86.184 80.7867 85.5227 80.584 84.68 80.584H81.512V85.336ZM96.1624 89.128C96.237 89.0533 96.317 89.016 96.4024 89.016C96.477 89.016 96.5464 89.048 96.6104 89.112L96.8184 89.304C96.893 89.3787 96.9304 89.4587 96.9304 89.544C96.9304 89.608 96.8984 89.6827 96.8344 89.768C96.3117 90.2907 95.805 90.664 95.3144 90.888C94.8237 91.1013 94.2744 91.208 93.6664 91.208C92.8984 91.208 92.2317 91.0373 91.6664 90.696C91.101 90.3547 90.6637 89.88 90.3544 89.272C90.045 88.6533 89.8904 87.9387 89.8904 87.128C89.8904 86.3067 90.0397 85.5813 90.3384 84.952C90.6477 84.312 91.0797 83.816 91.6344 83.464C92.189 83.1013 92.829 82.92 93.5544 82.92C94.6317 82.92 95.4797 83.256 96.0984 83.928C96.717 84.6 97.0264 85.5067 97.0264 86.648V86.84C97.0157 86.936 96.9784 87.0107 96.9144 87.064C96.861 87.1173 96.7864 87.144 96.6904 87.144H90.9624C90.9944 88.04 91.229 88.7973 91.6664 89.416C92.1144 90.024 92.781 90.328 93.6664 90.328C94.1464 90.328 94.5677 90.2427 94.9304 90.072C95.3037 89.8907 95.7144 89.576 96.1624 89.128ZM93.5544 83.8C92.8504 83.8 92.269 84.0187 91.8104 84.456C91.3624 84.8827 91.0904 85.512 90.9944 86.344H95.9704C95.949 85.5653 95.725 84.9467 95.2984 84.488C94.8717 84.0293 94.2904 83.8 93.5544 83.8ZM101.818 82.92C102.788 82.92 103.546 83.1547 104.09 83.624C104.634 84.0827 104.906 84.6907 104.906 85.448V90.68C104.906 90.8933 104.799 91 104.586 91H104.266C104.052 91 103.946 90.8933 103.946 90.68V89.96C103.679 90.3867 103.3 90.7067 102.81 90.92C102.33 91.1333 101.791 91.24 101.194 91.24C100.362 91.24 99.6844 91.064 99.1618 90.712C98.6391 90.36 98.3778 89.816 98.3778 89.08C98.3778 88.4933 98.5431 88.024 98.8738 87.672C99.2044 87.3093 99.6364 87.0373 100.17 86.856C100.703 86.664 101.37 86.4933 102.17 86.344L103.898 86.04V85.528C103.898 84.984 103.711 84.5627 103.338 84.264C102.964 83.9547 102.474 83.8 101.866 83.8C101.407 83.8 100.991 83.8853 100.618 84.056C100.244 84.2267 99.8444 84.52 99.4178 84.936C99.3431 85.0107 99.2631 85.048 99.1778 85.048C99.1031 85.048 99.0338 85.016 98.9698 84.952L98.7618 84.76C98.6871 84.6853 98.6497 84.6053 98.6497 84.52C98.6497 84.424 98.6871 84.3387 98.7618 84.264C99.2098 83.7947 99.6791 83.4533 100.17 83.24C100.671 83.0267 101.22 82.92 101.818 82.92ZM101.242 90.36C102.01 90.36 102.644 90.1573 103.146 89.752C103.647 89.3467 103.898 88.8293 103.898 88.2V86.856L102.41 87.144C101.716 87.2827 101.167 87.416 100.762 87.544C100.356 87.672 100.031 87.8587 99.7858 88.104C99.5404 88.3493 99.4178 88.6693 99.4178 89.064C99.4178 89.4693 99.5778 89.7893 99.8978 90.024C100.228 90.248 100.676 90.36 101.242 90.36ZM107.583 91C107.369 91 107.263 90.8933 107.263 90.68V79.96C107.263 79.7467 107.369 79.64 107.583 79.64H107.999C108.212 79.64 108.319 79.7467 108.319 79.96V90.68C108.319 90.8933 108.212 91 107.999 91H107.583ZM116.444 89.128C116.518 89.0533 116.598 89.016 116.684 89.016C116.758 89.016 116.828 89.048 116.892 89.112L117.1 89.304C117.174 89.3787 117.212 89.4587 117.212 89.544C117.212 89.608 117.18 89.6827 117.116 89.768C116.593 90.2907 116.086 90.664 115.596 90.888C115.105 91.1013 114.556 91.208 113.948 91.208C113.18 91.208 112.513 91.0373 111.948 90.696C111.382 90.3547 110.945 89.88 110.636 89.272C110.326 88.6533 110.172 87.9387 110.172 87.128C110.172 86.3067 110.321 85.5813 110.62 84.952C110.929 84.312 111.361 83.816 111.916 83.464C112.47 83.1013 113.11 82.92 113.836 82.92C114.913 82.92 115.761 83.256 116.38 83.928C116.998 84.6 117.308 85.5067 117.308 86.648V86.84C117.297 86.936 117.26 87.0107 117.196 87.064C117.142 87.1173 117.068 87.144 116.972 87.144H111.244C111.276 88.04 111.51 88.7973 111.948 89.416C112.396 90.024 113.062 90.328 113.948 90.328C114.428 90.328 114.849 90.2427 115.212 90.072C115.585 89.8907 115.996 89.576 116.444 89.128ZM113.836 83.8C113.132 83.8 112.55 84.0187 112.092 84.456C111.644 84.8827 111.372 85.512 111.276 86.344H116.252C116.23 85.5653 116.006 84.9467 115.58 84.488C115.153 84.0293 114.572 83.8 113.836 83.8ZM122.014 91.208C121.363 91.208 120.787 91.1173 120.286 90.936C119.795 90.744 119.278 90.424 118.734 89.976C118.638 89.912 118.59 89.8373 118.59 89.752C118.59 89.6773 118.627 89.6027 118.702 89.528L118.91 89.304C118.974 89.2187 119.054 89.176 119.15 89.176C119.225 89.176 119.294 89.208 119.358 89.272C119.87 89.6667 120.323 89.944 120.718 90.104C121.113 90.2533 121.545 90.328 122.014 90.328C122.601 90.328 123.081 90.2 123.454 89.944C123.827 89.6773 124.014 89.32 124.014 88.872C124.014 88.424 123.822 88.0933 123.438 87.88C123.054 87.6667 122.462 87.4747 121.662 87.304C120.958 87.1547 120.403 87 119.998 86.84C119.603 86.6693 119.31 86.456 119.118 86.2C118.926 85.944 118.83 85.608 118.83 85.192C118.83 84.5093 119.107 83.96 119.662 83.544C120.217 83.128 120.915 82.92 121.758 82.92C122.334 82.92 122.846 82.9947 123.294 83.144C123.753 83.2827 124.211 83.5173 124.67 83.848C124.766 83.9227 124.814 84.0027 124.814 84.088C124.814 84.1413 124.787 84.2107 124.734 84.296L124.542 84.536C124.489 84.6213 124.414 84.664 124.318 84.664C124.233 84.664 124.158 84.6373 124.094 84.584C123.657 84.2747 123.267 84.0667 122.926 83.96C122.595 83.8533 122.217 83.8 121.79 83.8C121.203 83.8 120.734 83.928 120.382 84.184C120.03 84.44 119.854 84.7653 119.854 85.16C119.854 85.4053 119.934 85.6027 120.094 85.752C120.254 85.9013 120.483 86.0293 120.782 86.136C121.081 86.232 121.518 86.344 122.094 86.472C123.161 86.7067 123.918 86.9947 124.366 87.336C124.825 87.6773 125.054 88.1733 125.054 88.824C125.054 89.5387 124.771 90.1147 124.206 90.552C123.641 90.9893 122.91 91.208 122.014 91.208ZM130.361 90.12C130.393 90.1093 130.436 90.104 130.489 90.104C130.553 90.104 130.612 90.1253 130.665 90.168C130.718 90.2107 130.75 90.2693 130.761 90.344L130.809 90.568C130.82 90.5893 130.825 90.6267 130.825 90.68C130.825 90.8293 130.745 90.92 130.585 90.952C130.201 91.0693 129.79 91.128 129.353 91.128C128.66 91.128 128.164 90.9733 127.865 90.664C127.577 90.344 127.433 89.8853 127.433 89.288V83.912H126.249C126.036 83.912 125.929 83.8053 125.929 83.592V83.432C125.929 83.2187 126.036 83.112 126.249 83.112H127.433V80.68C127.433 80.4667 127.54 80.36 127.753 80.36H128.169C128.382 80.36 128.489 80.4667 128.489 80.68V83.112H130.409C130.622 83.112 130.729 83.2187 130.729 83.432V83.592C130.729 83.8053 130.622 83.912 130.409 83.912H128.489V89.16C128.489 89.5547 128.564 89.832 128.713 89.992C128.862 90.152 129.118 90.232 129.481 90.232C129.737 90.232 130.03 90.1947 130.361 90.12ZM135.396 82.92C136.367 82.92 137.124 83.1547 137.668 83.624C138.212 84.0827 138.484 84.6907 138.484 85.448V90.68C138.484 90.8933 138.377 91 138.164 91H137.844C137.631 91 137.524 90.8933 137.524 90.68V89.96C137.257 90.3867 136.879 90.7067 136.388 90.92C135.908 91.1333 135.369 91.24 134.772 91.24C133.94 91.24 133.263 91.064 132.74 90.712C132.217 90.36 131.956 89.816 131.956 89.08C131.956 88.4933 132.121 88.024 132.452 87.672C132.783 87.3093 133.215 87.0373 133.748 86.856C134.281 86.664 134.948 86.4933 135.748 86.344L137.476 86.04V85.528C137.476 84.984 137.289 84.5627 136.916 84.264C136.543 83.9547 136.052 83.8 135.444 83.8C134.985 83.8 134.569 83.8853 134.196 84.056C133.823 84.2267 133.423 84.52 132.996 84.936C132.921 85.0107 132.841 85.048 132.756 85.048C132.681 85.048 132.612 85.016 132.548 84.952L132.34 84.76C132.265 84.6853 132.228 84.6053 132.228 84.52C132.228 84.424 132.265 84.3387 132.34 84.264C132.788 83.7947 133.257 83.4533 133.748 83.24C134.249 83.0267 134.799 82.92 135.396 82.92ZM134.82 90.36C135.588 90.36 136.223 90.1573 136.724 89.752C137.225 89.3467 137.476 88.8293 137.476 88.2V86.856L135.988 87.144C135.295 87.2827 134.745 87.416 134.34 87.544C133.935 87.672 133.609 87.8587 133.364 88.104C133.119 88.3493 132.996 88.6693 132.996 89.064C132.996 89.4693 133.156 89.7893 133.476 90.024C133.807 90.248 134.255 90.36 134.82 90.36ZM144.158 90.12C144.19 90.1093 144.233 90.104 144.286 90.104C144.35 90.104 144.409 90.1253 144.462 90.168C144.515 90.2107 144.547 90.2693 144.558 90.344L144.606 90.568C144.617 90.5893 144.622 90.6267 144.622 90.68C144.622 90.8293 144.542 90.92 144.382 90.952C143.998 91.0693 143.587 91.128 143.15 91.128C142.457 91.128 141.961 90.9733 141.662 90.664C141.374 90.344 141.23 89.8853 141.23 89.288V83.912H140.046C139.833 83.912 139.726 83.8053 139.726 83.592V83.432C139.726 83.2187 139.833 83.112 140.046 83.112H141.23V80.68C141.23 80.4667 141.337 80.36 141.55 80.36H141.966C142.179 80.36 142.286 80.4667 142.286 80.68V83.112H144.206C144.419 83.112 144.526 83.2187 144.526 83.432V83.592C144.526 83.8053 144.419 83.912 144.206 83.912H142.286V89.16C142.286 89.5547 142.361 89.832 142.51 89.992C142.659 90.152 142.915 90.232 143.278 90.232C143.534 90.232 143.827 90.1947 144.158 90.12ZM151.584 89.128C151.659 89.0533 151.739 89.016 151.824 89.016C151.899 89.016 151.968 89.048 152.032 89.112L152.24 89.304C152.315 89.3787 152.352 89.4587 152.352 89.544C152.352 89.608 152.32 89.6827 152.256 89.768C151.734 90.2907 151.227 90.664 150.736 90.888C150.246 91.1013 149.696 91.208 149.088 91.208C148.32 91.208 147.654 91.0373 147.088 90.696C146.523 90.3547 146.086 89.88 145.776 89.272C145.467 88.6533 145.312 87.9387 145.312 87.128C145.312 86.3067 145.462 85.5813 145.76 84.952C146.07 84.312 146.502 83.816 147.056 83.464C147.611 83.1013 148.251 82.92 148.976 82.92C150.054 82.92 150.902 83.256 151.52 83.928C152.139 84.6 152.448 85.5067 152.448 86.648V86.84C152.438 86.936 152.4 87.0107 152.336 87.064C152.283 87.1173 152.208 87.144 152.112 87.144H146.384C146.416 88.04 146.651 88.7973 147.088 89.416C147.536 90.024 148.203 90.328 149.088 90.328C149.568 90.328 149.99 90.2427 150.352 90.072C150.726 89.8907 151.136 89.576 151.584 89.128ZM148.976 83.8C148.272 83.8 147.691 84.0187 147.232 84.456C146.784 84.8827 146.512 85.512 146.416 86.344H151.392C151.371 85.5653 151.147 84.9467 150.72 84.488C150.294 84.0293 149.712 83.8 148.976 83.8ZM154.772 89.48C155.06 89.48 155.295 89.592 155.476 89.816C155.668 90.0293 155.764 90.3547 155.764 90.792C155.764 91.2293 155.636 91.656 155.38 92.072C155.135 92.4987 154.794 92.7707 154.356 92.888L154.276 92.904C154.191 92.904 154.122 92.872 154.068 92.808C154.026 92.7547 154.004 92.68 154.004 92.584C154.004 92.52 154.026 92.4667 154.068 92.424C154.111 92.392 154.175 92.3547 154.26 92.312C154.474 92.216 154.655 92.056 154.804 91.832C154.954 91.608 155.039 91.352 155.06 91.064C154.964 91.096 154.863 91.112 154.756 91.112C154.532 91.112 154.34 91.0373 154.18 90.888C154.031 90.7387 153.956 90.5467 153.956 90.312C153.956 90.0773 154.036 89.88 154.196 89.72C154.356 89.56 154.548 89.48 154.772 89.48ZM161.682 81.112C161.469 81.112 161.287 81.0373 161.138 80.888C160.999 80.7387 160.93 80.5573 160.93 80.344C160.93 80.1307 160.999 79.9547 161.138 79.816C161.287 79.6773 161.469 79.608 161.682 79.608C161.906 79.608 162.087 79.6773 162.226 79.816C162.375 79.9547 162.45 80.1307 162.45 80.344C162.45 80.5573 162.375 80.7387 162.226 80.888C162.087 81.0373 161.906 81.112 161.682 81.112ZM160.082 94.136C159.73 94.136 159.335 94.088 158.898 93.992C158.706 93.928 158.637 93.7947 158.69 93.592L158.754 93.368C158.775 93.272 158.823 93.2027 158.898 93.16C158.962 93.128 159.042 93.1227 159.138 93.144C159.447 93.2187 159.746 93.256 160.034 93.256C160.45 93.256 160.738 93.128 160.898 92.872C161.069 92.6267 161.154 92.248 161.154 91.736V83.432C161.154 83.2187 161.261 83.112 161.474 83.112H161.89C162.103 83.112 162.21 83.2187 162.21 83.432V91.768C162.21 92.5253 162.034 93.1067 161.682 93.512C161.341 93.928 160.807 94.136 160.082 94.136ZM167.823 91.208C167.087 91.208 166.431 91.032 165.855 90.68C165.279 90.328 164.831 89.8427 164.511 89.224C164.191 88.5947 164.031 87.8747 164.031 87.064C164.031 86.2533 164.191 85.5387 164.511 84.92C164.831 84.2907 165.279 83.8 165.855 83.448C166.431 83.096 167.087 82.92 167.823 82.92C168.559 82.92 169.215 83.096 169.791 83.448C170.367 83.8 170.815 84.2907 171.135 84.92C171.455 85.5387 171.615 86.2533 171.615 87.064C171.615 87.8747 171.455 88.5947 171.135 89.224C170.815 89.8427 170.367 90.328 169.791 90.68C169.215 91.032 168.559 91.208 167.823 91.208ZM167.823 90.328C168.644 90.328 169.3 90.0293 169.791 89.432C170.282 88.824 170.527 88.0347 170.527 87.064C170.527 86.0933 170.282 85.3093 169.791 84.712C169.3 84.104 168.644 83.8 167.823 83.8C167.002 83.8 166.346 84.104 165.855 84.712C165.364 85.3093 165.119 86.0933 165.119 87.064C165.119 88.0347 165.364 88.824 165.855 89.432C166.346 90.0293 167.002 90.328 167.823 90.328ZM177.226 82.936C177.898 82.936 178.495 83.112 179.018 83.464C179.551 83.8053 179.962 84.2907 180.25 84.92C180.548 85.5387 180.698 86.2533 180.698 87.064C180.698 87.8747 180.548 88.5947 180.25 89.224C179.951 89.8427 179.535 90.328 179.002 90.68C178.479 91.0213 177.887 91.192 177.226 91.192C175.956 91.192 175.028 90.7013 174.442 89.72V90.68C174.442 90.8933 174.335 91 174.122 91H173.77C173.556 91 173.45 90.8933 173.45 90.68V79.944C173.45 79.7307 173.556 79.624 173.77 79.624H174.186C174.399 79.624 174.506 79.7307 174.506 79.944V84.36C175.092 83.4107 175.999 82.936 177.226 82.936ZM177.146 90.296C177.882 90.296 178.474 89.9973 178.922 89.4C179.38 88.8027 179.61 88.024 179.61 87.064C179.61 86.104 179.38 85.3253 178.922 84.728C178.474 84.1307 177.882 83.832 177.146 83.832C176.356 83.832 175.711 84.12 175.21 84.696C174.708 85.272 174.458 86.0613 174.458 87.064C174.458 88.0773 174.703 88.872 175.194 89.448C175.695 90.0133 176.346 90.296 177.146 90.296ZM182.85 89.48C183.138 89.48 183.373 89.592 183.554 89.816C183.746 90.0293 183.842 90.3547 183.842 90.792C183.842 91.2293 183.714 91.656 183.458 92.072C183.213 92.4987 182.872 92.7707 182.434 92.888L182.354 92.904C182.269 92.904 182.2 92.872 182.146 92.808C182.104 92.7547 182.082 92.68 182.082 92.584C182.082 92.52 182.104 92.4667 182.146 92.424C182.189 92.392 182.253 92.3547 182.338 92.312C182.552 92.216 182.733 92.056 182.882 91.832C183.032 91.608 183.117 91.352 183.138 91.064C183.042 91.096 182.941 91.112 182.834 91.112C182.61 91.112 182.418 91.0373 182.258 90.888C182.109 90.7387 182.034 90.5467 182.034 90.312C182.034 90.0773 182.114 89.88 182.274 89.72C182.434 89.56 182.626 89.48 182.85 89.48ZM192.736 90.12C192.768 90.1093 192.811 90.104 192.864 90.104C192.928 90.104 192.987 90.1253 193.04 90.168C193.093 90.2107 193.125 90.2693 193.136 90.344L193.184 90.568C193.195 90.5893 193.2 90.6267 193.2 90.68C193.2 90.8293 193.12 90.92 192.96 90.952C192.576 91.0693 192.165 91.128 191.728 91.128C191.035 91.128 190.539 90.9733 190.24 90.664C189.952 90.344 189.808 89.8853 189.808 89.288V83.912H188.624C188.411 83.912 188.304 83.8053 188.304 83.592V83.432C188.304 83.2187 188.411 83.112 188.624 83.112H189.808V80.68C189.808 80.4667 189.915 80.36 190.128 80.36H190.544C190.757 80.36 190.864 80.4667 190.864 80.68V83.112H192.784C192.997 83.112 193.104 83.2187 193.104 83.432V83.592C193.104 83.8053 192.997 83.912 192.784 83.912H190.864V89.16C190.864 89.5547 190.939 89.832 191.088 89.992C191.237 90.152 191.493 90.232 191.856 90.232C192.112 90.232 192.405 90.1947 192.736 90.12ZM197.659 83.048C197.926 83.048 198.241 83.0907 198.603 83.176C198.795 83.24 198.87 83.3733 198.827 83.576L198.763 83.832C198.71 84.0347 198.577 84.1093 198.363 84.056C198.107 83.992 197.873 83.96 197.659 83.96C197.115 83.96 196.662 84.1947 196.299 84.664C195.947 85.1333 195.771 85.784 195.771 86.616V90.68C195.771 90.8933 195.665 91 195.451 91H195.035C194.822 91 194.715 90.8933 194.715 90.68V83.432C194.715 83.2187 194.822 83.112 195.035 83.112H195.387C195.601 83.112 195.707 83.2187 195.707 83.432V84.312C195.889 83.9173 196.145 83.608 196.475 83.384C196.817 83.16 197.211 83.048 197.659 83.048ZM203.099 82.92C204.07 82.92 204.827 83.1547 205.371 83.624C205.915 84.0827 206.187 84.6907 206.187 85.448V90.68C206.187 90.8933 206.08 91 205.867 91H205.547C205.334 91 205.227 90.8933 205.227 90.68V89.96C204.96 90.3867 204.582 90.7067 204.091 90.92C203.611 91.1333 203.072 91.24 202.475 91.24C201.643 91.24 200.966 91.064 200.443 90.712C199.92 90.36 199.659 89.816 199.659 89.08C199.659 88.4933 199.824 88.024 200.155 87.672C200.486 87.3093 200.918 87.0373 201.451 86.856C201.984 86.664 202.651 86.4933 203.451 86.344L205.179 86.04V85.528C205.179 84.984 204.992 84.5627 204.619 84.264C204.246 83.9547 203.755 83.8 203.147 83.8C202.688 83.8 202.272 83.8853 201.899 84.056C201.526 84.2267 201.126 84.52 200.699 84.936C200.624 85.0107 200.544 85.048 200.459 85.048C200.384 85.048 200.315 85.016 200.251 84.952L200.043 84.76C199.968 84.6853 199.931 84.6053 199.931 84.52C199.931 84.424 199.968 84.3387 200.043 84.264C200.491 83.7947 200.96 83.4533 201.451 83.24C201.952 83.0267 202.502 82.92 203.099 82.92ZM202.523 90.36C203.291 90.36 203.926 90.1573 204.427 89.752C204.928 89.3467 205.179 88.8293 205.179 88.2V86.856L203.691 87.144C202.998 87.2827 202.448 87.416 202.043 87.544C201.638 87.672 201.312 87.8587 201.067 88.104C200.822 88.3493 200.699 88.6693 200.699 89.064C200.699 89.4693 200.859 89.7893 201.179 90.024C201.51 90.248 201.958 90.36 202.523 90.36ZM213.22 83.368C213.284 83.1973 213.407 83.112 213.588 83.112H214.004C214.089 83.112 214.159 83.1333 214.212 83.176C214.265 83.2187 214.292 83.2773 214.292 83.352L214.26 83.48L211.716 90.744C211.652 90.9147 211.529 91 211.348 91H210.5C210.319 91 210.196 90.9147 210.132 90.744L207.604 83.48L207.572 83.352C207.572 83.2773 207.599 83.2187 207.652 83.176C207.705 83.1333 207.775 83.112 207.86 83.112H208.292C208.473 83.112 208.596 83.1973 208.66 83.368L209.636 86.184C210.041 87.3573 210.473 88.7067 210.932 90.232C210.953 90.168 211.012 89.9867 211.108 89.688C211.545 88.248 211.924 87.08 212.244 86.184L213.22 83.368ZM221.506 89.128C221.581 89.0533 221.661 89.016 221.746 89.016C221.821 89.016 221.89 89.048 221.954 89.112L222.162 89.304C222.237 89.3787 222.274 89.4587 222.274 89.544C222.274 89.608 222.242 89.6827 222.178 89.768C221.655 90.2907 221.149 90.664 220.658 90.888C220.167 91.1013 219.618 91.208 219.01 91.208C218.242 91.208 217.575 91.0373 217.01 90.696C216.445 90.3547 216.007 89.88 215.698 89.272C215.389 88.6533 215.234 87.9387 215.234 87.128C215.234 86.3067 215.383 85.5813 215.682 84.952C215.991 84.312 216.423 83.816 216.978 83.464C217.533 83.1013 218.173 82.92 218.898 82.92C219.975 82.92 220.823 83.256 221.442 83.928C222.061 84.6 222.37 85.5067 222.37 86.648V86.84C222.359 86.936 222.322 87.0107 222.258 87.064C222.205 87.1173 222.13 87.144 222.034 87.144H216.306C216.338 88.04 216.573 88.7973 217.01 89.416C217.458 90.024 218.125 90.328 219.01 90.328C219.49 90.328 219.911 90.2427 220.274 90.072C220.647 89.8907 221.058 89.576 221.506 89.128ZM218.898 83.8C218.194 83.8 217.613 84.0187 217.154 84.456C216.706 84.8827 216.434 85.512 216.338 86.344H221.314C221.293 85.5653 221.069 84.9467 220.642 84.488C220.215 84.0293 219.634 83.8 218.898 83.8ZM224.598 91C224.385 91 224.278 90.8933 224.278 90.68V79.96C224.278 79.7467 224.385 79.64 224.598 79.64H225.014C225.227 79.64 225.334 79.7467 225.334 79.96V90.68C225.334 90.8933 225.227 91 225.014 91H224.598ZM228.147 91.112C227.923 91.112 227.731 91.032 227.571 90.872C227.411 90.712 227.331 90.52 227.331 90.296C227.331 90.072 227.411 89.88 227.571 89.72C227.731 89.56 227.923 89.48 228.147 89.48C228.371 89.48 228.563 89.56 228.723 89.72C228.883 89.88 228.963 90.072 228.963 90.296C228.963 90.52 228.883 90.712 228.723 90.872C228.563 91.032 228.371 91.112 228.147 91.112ZM231.382 91.112C231.158 91.112 230.966 91.032 230.806 90.872C230.646 90.712 230.566 90.52 230.566 90.296C230.566 90.072 230.646 89.88 230.806 89.72C230.966 89.56 231.158 89.48 231.382 89.48C231.606 89.48 231.798 89.56 231.958 89.72C232.118 89.88 232.198 90.072 232.198 90.296C232.198 90.52 232.118 90.712 231.958 90.872C231.798 91.032 231.606 91.112 231.382 91.112Z" fill="#C3CCD9"/>
<g filter="url(#filter0_d_1811_19318)">
<path d="M270 124L264 130M270 128L268 130" stroke="#767676" stroke-linecap="square"/>
</g>
<rect x="71.5" y="62.5" width="202" height="71" rx="3.5" stroke="#C3CCD9"/>
<path d="M72.272 150C72.112 150 72.032 149.92 72.032 149.76V141.72C72.032 141.56 72.112 141.48 72.272 141.48H75.08C75.872 141.48 76.548 141.66 77.108 142.02C77.668 142.38 78.092 142.88 78.38 143.52C78.668 144.16 78.812 144.9 78.812 145.74C78.812 146.58 78.668 147.32 78.38 147.96C78.092 148.6 77.668 149.1 77.108 149.46C76.548 149.82 75.872 150 75.08 150H72.272ZM74.936 149.292C75.904 149.292 76.648 148.976 77.168 148.344C77.688 147.704 77.948 146.836 77.948 145.74C77.948 144.652 77.688 143.788 77.168 143.148C76.648 142.508 75.904 142.188 74.936 142.188H72.884V149.292H74.936ZM84.7038 148.596C84.7598 148.54 84.8198 148.512 84.8838 148.512C84.9398 148.512 84.9918 148.536 85.0398 148.584L85.1958 148.728C85.2518 148.784 85.2798 148.844 85.2798 148.908C85.2798 148.956 85.2558 149.012 85.2078 149.076C84.8158 149.468 84.4358 149.748 84.0678 149.916C83.6998 150.076 83.2878 150.156 82.8318 150.156C82.2558 150.156 81.7558 150.028 81.3318 149.772C80.9078 149.516 80.5798 149.16 80.3478 148.704C80.1158 148.24 79.9998 147.704 79.9998 147.096C79.9998 146.48 80.1118 145.936 80.3358 145.464C80.5678 144.984 80.8918 144.612 81.3078 144.348C81.7238 144.076 82.2038 143.94 82.7478 143.94C83.5558 143.94 84.1918 144.192 84.6558 144.696C85.1198 145.2 85.3518 145.88 85.3518 146.736V146.88C85.3438 146.952 85.3158 147.008 85.2678 147.048C85.2278 147.088 85.1718 147.108 85.0998 147.108H80.8038C80.8278 147.78 81.0038 148.348 81.3318 148.812C81.6678 149.268 82.1678 149.496 82.8318 149.496C83.1918 149.496 83.5078 149.432 83.7798 149.304C84.0598 149.168 84.3678 148.932 84.7038 148.596ZM82.7478 144.6C82.2198 144.6 81.7838 144.764 81.4398 145.092C81.1038 145.412 80.8998 145.884 80.8278 146.508H84.5598C84.5438 145.924 84.3758 145.46 84.0558 145.116C83.7358 144.772 83.2998 144.6 82.7478 144.6ZM88.8817 150.156C88.3937 150.156 87.9617 150.088 87.5857 149.952C87.2177 149.808 86.8297 149.568 86.4217 149.232C86.3497 149.184 86.3137 149.128 86.3137 149.064C86.3137 149.008 86.3417 148.952 86.3977 148.896L86.5537 148.728C86.6017 148.664 86.6617 148.632 86.7337 148.632C86.7897 148.632 86.8417 148.656 86.8897 148.704C87.2737 149 87.6137 149.208 87.9097 149.328C88.2057 149.44 88.5297 149.496 88.8817 149.496C89.3217 149.496 89.6817 149.4 89.9617 149.208C90.2417 149.008 90.3817 148.74 90.3817 148.404C90.3817 148.068 90.2377 147.82 89.9497 147.66C89.6617 147.5 89.2177 147.356 88.6177 147.228C88.0897 147.116 87.6737 147 87.3697 146.88C87.0737 146.752 86.8537 146.592 86.7097 146.4C86.5657 146.208 86.4937 145.956 86.4937 145.644C86.4937 145.132 86.7017 144.72 87.1177 144.408C87.5337 144.096 88.0577 143.94 88.6897 143.94C89.1217 143.94 89.5057 143.996 89.8417 144.108C90.1857 144.212 90.5297 144.388 90.8737 144.636C90.9457 144.692 90.9817 144.752 90.9817 144.816C90.9817 144.856 90.9617 144.908 90.9217 144.972L90.7777 145.152C90.7377 145.216 90.6817 145.248 90.6097 145.248C90.5457 145.248 90.4897 145.228 90.4417 145.188C90.1137 144.956 89.8217 144.8 89.5657 144.72C89.3177 144.64 89.0337 144.6 88.7137 144.6C88.2737 144.6 87.9217 144.696 87.6577 144.888C87.3937 145.08 87.2617 145.324 87.2617 145.62C87.2617 145.804 87.3217 145.952 87.4417 146.064C87.5617 146.176 87.7337 146.272 87.9577 146.352C88.1817 146.424 88.5097 146.508 88.9417 146.604C89.7417 146.78 90.3097 146.996 90.6457 147.252C90.9897 147.508 91.1617 147.88 91.1617 148.368C91.1617 148.904 90.9497 149.336 90.5257 149.664C90.1017 149.992 89.5537 150.156 88.8817 150.156ZM94.9013 150.156C94.3333 150.156 93.8373 150.028 93.4133 149.772C92.9973 149.508 92.6733 149.144 92.4413 148.68C92.2173 148.208 92.1053 147.664 92.1053 147.048C92.1053 146.44 92.2173 145.9 92.4413 145.428C92.6733 144.956 92.9973 144.592 93.4133 144.336C93.8373 144.072 94.3253 143.94 94.8773 143.94C95.3253 143.94 95.7173 144.016 96.0533 144.168C96.3893 144.312 96.7133 144.552 97.0253 144.888C97.0733 144.936 97.0973 144.988 97.0973 145.044C97.0973 145.116 97.0653 145.176 97.0013 145.224L96.8333 145.38C96.7853 145.428 96.7293 145.452 96.6653 145.452C96.6093 145.452 96.5493 145.42 96.4853 145.356C96.2053 145.076 95.9373 144.88 95.6813 144.768C95.4333 144.656 95.1573 144.6 94.8533 144.6C94.4373 144.6 94.0813 144.716 93.7853 144.948C93.4973 145.18 93.2813 145.484 93.1373 145.86C92.9933 146.228 92.9213 146.624 92.9213 147.048C92.9213 147.472 92.9933 147.872 93.1373 148.248C93.2813 148.616 93.5013 148.916 93.7973 149.148C94.0933 149.372 94.4573 149.484 94.8893 149.484C95.2093 149.484 95.4893 149.428 95.7293 149.316C95.9773 149.196 96.2533 148.972 96.5573 148.644C96.6213 148.58 96.6813 148.548 96.7373 148.548C96.8013 148.548 96.8573 148.572 96.9053 148.62L97.0733 148.752C97.1293 148.8 97.1573 148.856 97.1573 148.92C97.1573 148.984 97.1213 149.06 97.0493 149.148C96.7133 149.516 96.3773 149.776 96.0413 149.928C95.7053 150.08 95.3253 150.156 94.9013 150.156ZM100.651 144.036C100.851 144.036 101.087 144.068 101.359 144.132C101.503 144.18 101.559 144.28 101.527 144.432L101.479 144.624C101.439 144.776 101.339 144.832 101.179 144.792C100.987 144.744 100.811 144.72 100.651 144.72C100.243 144.72 99.9027 144.896 99.6307 145.248C99.3667 145.6 99.2347 146.088 99.2347 146.712V149.76C99.2347 149.92 99.1547 150 98.9947 150H98.6827C98.5227 150 98.4427 149.92 98.4427 149.76V144.324C98.4427 144.164 98.5227 144.084 98.6827 144.084H98.9467C99.1067 144.084 99.1867 144.164 99.1867 144.324V144.984C99.3227 144.688 99.5147 144.456 99.7627 144.288C100.019 144.12 100.315 144.036 100.651 144.036ZM102.999 142.584C102.839 142.584 102.703 142.528 102.591 142.416C102.487 142.304 102.435 142.168 102.435 142.008C102.435 141.848 102.487 141.716 102.591 141.612C102.703 141.508 102.839 141.456 102.999 141.456C103.167 141.456 103.303 141.508 103.407 141.612C103.519 141.716 103.575 141.848 103.575 142.008C103.575 142.168 103.519 142.304 103.407 142.416C103.303 142.528 103.167 142.584 102.999 142.584ZM102.843 150C102.683 150 102.603 149.92 102.603 149.76V144.324C102.603 144.164 102.683 144.084 102.843 144.084H103.155C103.315 144.084 103.395 144.164 103.395 144.324V149.76C103.395 149.92 103.315 150 103.155 150H102.843ZM107.99 143.952C108.494 143.952 108.942 144.084 109.334 144.348C109.734 144.604 110.042 144.968 110.258 145.44C110.482 145.904 110.594 146.44 110.594 147.048C110.594 147.656 110.482 148.196 110.258 148.668C110.034 149.132 109.722 149.496 109.322 149.76C108.93 150.016 108.486 150.144 107.99 150.144C107.038 150.144 106.342 149.776 105.902 149.04V149.76C105.902 149.92 105.822 150 105.662 150H105.398C105.238 150 105.158 149.92 105.158 149.76V141.708C105.158 141.548 105.238 141.468 105.398 141.468H105.71C105.87 141.468 105.95 141.548 105.95 141.708V145.02C106.39 144.308 107.07 143.952 107.99 143.952ZM107.93 149.472C108.482 149.472 108.926 149.248 109.262 148.8C109.606 148.352 109.778 147.768 109.778 147.048C109.778 146.328 109.606 145.744 109.262 145.296C108.926 144.848 108.482 144.624 107.93 144.624C107.338 144.624 106.854 144.84 106.478 145.272C106.102 145.704 105.914 146.296 105.914 147.048C105.914 147.808 106.098 148.404 106.466 148.836C106.842 149.26 107.33 149.472 107.93 149.472ZM116.38 148.596C116.436 148.54 116.496 148.512 116.56 148.512C116.616 148.512 116.668 148.536 116.716 148.584L116.872 148.728C116.928 148.784 116.956 148.844 116.956 148.908C116.956 148.956 116.932 149.012 116.884 149.076C116.492 149.468 116.112 149.748 115.744 149.916C115.376 150.076 114.964 150.156 114.508 150.156C113.932 150.156 113.432 150.028 113.008 149.772C112.584 149.516 112.256 149.16 112.024 148.704C111.792 148.24 111.676 147.704 111.676 147.096C111.676 146.48 111.788 145.936 112.012 145.464C112.244 144.984 112.568 144.612 112.984 144.348C113.4 144.076 113.88 143.94 114.424 143.94C115.232 143.94 115.868 144.192 116.332 144.696C116.796 145.2 117.028 145.88 117.028 146.736V146.88C117.02 146.952 116.992 147.008 116.944 147.048C116.904 147.088 116.848 147.108 116.776 147.108H112.48C112.504 147.78 112.68 148.348 113.008 148.812C113.344 149.268 113.844 149.496 114.508 149.496C114.868 149.496 115.184 149.432 115.456 149.304C115.736 149.168 116.044 148.932 116.38 148.596ZM114.424 144.6C113.896 144.6 113.46 144.764 113.116 145.092C112.78 145.412 112.576 145.884 112.504 146.508H116.236C116.22 145.924 116.052 145.46 115.732 145.116C115.412 144.772 114.976 144.6 114.424 144.6ZM123.876 149.34C123.9 149.332 123.932 149.328 123.972 149.328C124.02 149.328 124.064 149.344 124.104 149.376C124.144 149.408 124.168 149.452 124.176 149.508L124.212 149.676C124.22 149.692 124.224 149.72 124.224 149.76C124.224 149.872 124.164 149.94 124.044 149.964C123.756 150.052 123.448 150.096 123.12 150.096C122.6 150.096 122.228 149.98 122.004 149.748C121.788 149.508 121.68 149.164 121.68 148.716V144.684H120.792C120.632 144.684 120.552 144.604 120.552 144.444V144.324C120.552 144.164 120.632 144.084 120.792 144.084H121.68V142.26C121.68 142.1 121.76 142.02 121.92 142.02H122.232C122.392 142.02 122.472 142.1 122.472 142.26V144.084H123.912C124.072 144.084 124.152 144.164 124.152 144.324V144.444C124.152 144.604 124.072 144.684 123.912 144.684H122.472V148.62C122.472 148.916 122.528 149.124 122.64 149.244C122.752 149.364 122.944 149.424 123.216 149.424C123.408 149.424 123.628 149.396 123.876 149.34ZM128.001 143.94C128.689 143.94 129.213 144.136 129.573 144.528C129.933 144.912 130.113 145.388 130.113 145.956V149.76C130.113 149.92 130.033 150 129.873 150H129.561C129.401 150 129.321 149.92 129.321 149.76V146.22C129.321 145.692 129.193 145.292 128.937 145.02C128.681 144.748 128.313 144.612 127.833 144.612C127.529 144.612 127.249 144.688 126.993 144.84C126.737 144.984 126.533 145.184 126.381 145.44C126.229 145.696 126.153 145.976 126.153 146.28V149.76C126.153 149.92 126.073 150 125.913 150H125.601C125.441 150 125.361 149.92 125.361 149.76V141.72C125.361 141.56 125.441 141.48 125.601 141.48H125.913C126.073 141.48 126.153 141.56 126.153 141.72V144.852C126.345 144.548 126.601 144.32 126.921 144.168C127.249 144.016 127.609 143.94 128.001 143.94ZM136.173 148.596C136.229 148.54 136.289 148.512 136.353 148.512C136.409 148.512 136.461 148.536 136.509 148.584L136.665 148.728C136.721 148.784 136.749 148.844 136.749 148.908C136.749 148.956 136.725 149.012 136.677 149.076C136.285 149.468 135.905 149.748 135.537 149.916C135.169 150.076 134.757 150.156 134.301 150.156C133.725 150.156 133.225 150.028 132.801 149.772C132.377 149.516 132.049 149.16 131.817 148.704C131.585 148.24 131.469 147.704 131.469 147.096C131.469 146.48 131.581 145.936 131.805 145.464C132.037 144.984 132.361 144.612 132.777 144.348C133.193 144.076 133.673 143.94 134.217 143.94C135.025 143.94 135.661 144.192 136.125 144.696C136.589 145.2 136.821 145.88 136.821 146.736V146.88C136.813 146.952 136.785 147.008 136.737 147.048C136.697 147.088 136.641 147.108 136.569 147.108H132.273C132.297 147.78 132.473 148.348 132.801 148.812C133.137 149.268 133.637 149.496 134.301 149.496C134.661 149.496 134.977 149.432 135.249 149.304C135.529 149.168 135.837 148.932 136.173 148.596ZM134.217 144.6C133.689 144.6 133.253 144.764 132.909 145.092C132.573 145.412 132.369 145.884 132.297 146.508H136.029C136.013 145.924 135.845 145.46 135.525 145.116C135.205 144.772 134.769 144.6 134.217 144.6ZM147.017 143.94C147.657 143.94 148.145 144.124 148.481 144.492C148.825 144.852 148.997 145.316 148.997 145.884V149.76C148.997 149.92 148.917 150 148.757 150H148.445C148.285 150 148.205 149.92 148.205 149.76V146.1C148.205 145.62 148.093 145.252 147.869 144.996C147.653 144.74 147.329 144.612 146.897 144.612C146.441 144.612 146.077 144.764 145.805 145.068C145.533 145.372 145.397 145.764 145.397 146.244V149.76C145.397 149.92 145.317 150 145.157 150H144.845C144.685 150 144.605 149.92 144.605 149.76V146.1C144.605 145.62 144.493 145.252 144.269 144.996C144.053 144.74 143.725 144.612 143.285 144.612C142.877 144.612 142.537 144.74 142.265 144.996C142.001 145.252 141.845 145.588 141.797 146.004V149.76C141.797 149.92 141.717 150 141.557 150H141.245C141.085 150 141.005 149.92 141.005 149.76V144.324C141.005 144.164 141.085 144.084 141.245 144.084H141.509C141.669 144.084 141.749 144.164 141.749 144.324V144.816C142.109 144.232 142.681 143.94 143.465 143.94C143.873 143.94 144.221 144.032 144.509 144.216C144.805 144.392 145.025 144.632 145.169 144.936C145.593 144.272 146.209 143.94 147.017 143.94ZM153.023 143.94C153.751 143.94 154.319 144.116 154.727 144.468C155.135 144.812 155.339 145.268 155.339 145.836V149.76C155.339 149.92 155.259 150 155.099 150H154.859C154.699 150 154.619 149.92 154.619 149.76V149.22C154.419 149.54 154.135 149.78 153.767 149.94C153.407 150.1 153.003 150.18 152.555 150.18C151.931 150.18 151.423 150.048 151.031 149.784C150.639 149.52 150.443 149.112 150.443 148.56C150.443 148.12 150.567 147.768 150.815 147.504C151.063 147.232 151.387 147.028 151.787 146.892C152.187 146.748 152.687 146.62 153.287 146.508L154.583 146.28V145.896C154.583 145.488 154.443 145.172 154.163 144.948C153.883 144.716 153.515 144.6 153.059 144.6C152.715 144.6 152.403 144.664 152.123 144.792C151.843 144.92 151.543 145.14 151.223 145.452C151.167 145.508 151.107 145.536 151.043 145.536C150.987 145.536 150.935 145.512 150.887 145.464L150.731 145.32C150.675 145.264 150.647 145.204 150.647 145.14C150.647 145.068 150.675 145.004 150.731 144.948C151.067 144.596 151.419 144.34 151.787 144.18C152.163 144.02 152.575 143.94 153.023 143.94ZM152.591 149.52C153.167 149.52 153.643 149.368 154.019 149.064C154.395 148.76 154.583 148.372 154.583 147.9V146.892L153.467 147.108C152.947 147.212 152.535 147.312 152.231 147.408C151.927 147.504 151.683 147.644 151.499 147.828C151.315 148.012 151.223 148.252 151.223 148.548C151.223 148.852 151.343 149.092 151.583 149.268C151.831 149.436 152.167 149.52 152.591 149.52ZM159.303 144.036C159.503 144.036 159.739 144.068 160.011 144.132C160.155 144.18 160.211 144.28 160.179 144.432L160.131 144.624C160.091 144.776 159.991 144.832 159.831 144.792C159.639 144.744 159.463 144.72 159.303 144.72C158.895 144.72 158.555 144.896 158.283 145.248C158.019 145.6 157.887 146.088 157.887 146.712V149.76C157.887 149.92 157.807 150 157.647 150H157.335C157.175 150 157.095 149.92 157.095 149.76V144.324C157.095 144.164 157.175 144.084 157.335 144.084H157.599C157.759 144.084 157.839 144.164 157.839 144.324V144.984C157.975 144.688 158.167 144.456 158.415 144.288C158.671 144.12 158.967 144.036 159.303 144.036ZM165.527 150C165.407 150 165.311 149.948 165.239 149.844L163.211 146.892L162.047 148.08V149.76C162.047 149.92 161.967 150 161.807 150H161.495C161.335 150 161.255 149.92 161.255 149.76V141.72C161.255 141.56 161.335 141.48 161.495 141.48H161.807C161.967 141.48 162.047 141.56 162.047 141.72V147.18L164.927 144.192C164.999 144.112 165.099 144.072 165.227 144.072H165.563C165.627 144.072 165.675 144.088 165.707 144.12C165.747 144.144 165.767 144.176 165.767 144.216C165.767 144.256 165.743 144.308 165.695 144.372L163.763 146.388L166.031 149.712C166.063 149.768 166.079 149.816 166.079 149.856C166.079 149.952 166.015 150 165.887 150H165.527ZM171.434 148.596C171.49 148.54 171.55 148.512 171.614 148.512C171.67 148.512 171.722 148.536 171.77 148.584L171.926 148.728C171.982 148.784 172.01 148.844 172.01 148.908C172.01 148.956 171.986 149.012 171.938 149.076C171.546 149.468 171.166 149.748 170.798 149.916C170.43 150.076 170.018 150.156 169.562 150.156C168.986 150.156 168.486 150.028 168.062 149.772C167.638 149.516 167.31 149.16 167.078 148.704C166.846 148.24 166.73 147.704 166.73 147.096C166.73 146.48 166.842 145.936 167.066 145.464C167.298 144.984 167.622 144.612 168.038 144.348C168.454 144.076 168.934 143.94 169.478 143.94C170.286 143.94 170.922 144.192 171.386 144.696C171.85 145.2 172.082 145.88 172.082 146.736V146.88C172.074 146.952 172.046 147.008 171.998 147.048C171.958 147.088 171.902 147.108 171.83 147.108H167.534C167.558 147.78 167.734 148.348 168.062 148.812C168.398 149.268 168.898 149.496 169.562 149.496C169.922 149.496 170.238 149.432 170.51 149.304C170.79 149.168 171.098 148.932 171.434 148.596ZM169.478 144.6C168.95 144.6 168.514 144.764 168.17 145.092C167.834 145.412 167.63 145.884 167.558 146.508H171.29C171.274 145.924 171.106 145.46 170.786 145.116C170.466 144.772 170.03 144.6 169.478 144.6ZM176.107 149.34C176.131 149.332 176.163 149.328 176.203 149.328C176.251 149.328 176.295 149.344 176.335 149.376C176.375 149.408 176.399 149.452 176.407 149.508L176.443 149.676C176.451 149.692 176.455 149.72 176.455 149.76C176.455 149.872 176.395 149.94 176.275 149.964C175.987 150.052 175.679 150.096 175.351 150.096C174.831 150.096 174.459 149.98 174.235 149.748C174.019 149.508 173.911 149.164 173.911 148.716V144.684H173.023C172.863 144.684 172.783 144.604 172.783 144.444V144.324C172.783 144.164 172.863 144.084 173.023 144.084H173.911V142.26C173.911 142.1 173.991 142.02 174.151 142.02H174.463C174.623 142.02 174.703 142.1 174.703 142.26V144.084H176.143C176.303 144.084 176.383 144.164 176.383 144.324V144.444C176.383 144.604 176.303 144.684 176.143 144.684H174.703V148.62C174.703 148.916 174.759 149.124 174.871 149.244C174.983 149.364 175.175 149.424 175.447 149.424C175.639 149.424 175.859 149.396 176.107 149.34ZM179.737 150.156C179.249 150.156 178.817 150.088 178.441 149.952C178.073 149.808 177.685 149.568 177.277 149.232C177.205 149.184 177.169 149.128 177.169 149.064C177.169 149.008 177.197 148.952 177.253 148.896L177.409 148.728C177.457 148.664 177.517 148.632 177.589 148.632C177.645 148.632 177.697 148.656 177.745 148.704C178.129 149 178.469 149.208 178.765 149.328C179.061 149.44 179.385 149.496 179.737 149.496C180.177 149.496 180.537 149.4 180.817 149.208C181.097 149.008 181.237 148.74 181.237 148.404C181.237 148.068 181.093 147.82 180.805 147.66C180.517 147.5 180.073 147.356 179.473 147.228C178.945 147.116 178.529 147 178.225 146.88C177.929 146.752 177.709 146.592 177.565 146.4C177.421 146.208 177.349 145.956 177.349 145.644C177.349 145.132 177.557 144.72 177.973 144.408C178.389 144.096 178.913 143.94 179.545 143.94C179.977 143.94 180.361 143.996 180.697 144.108C181.041 144.212 181.385 144.388 181.729 144.636C181.801 144.692 181.837 144.752 181.837 144.816C181.837 144.856 181.817 144.908 181.777 144.972L181.633 145.152C181.593 145.216 181.537 145.248 181.465 145.248C181.401 145.248 181.345 145.228 181.297 145.188C180.969 144.956 180.677 144.8 180.421 144.72C180.173 144.64 179.889 144.6 179.569 144.6C179.129 144.6 178.777 144.696 178.513 144.888C178.249 145.08 178.117 145.324 178.117 145.62C178.117 145.804 178.177 145.952 178.297 146.064C178.417 146.176 178.589 146.272 178.813 146.352C179.037 146.424 179.365 146.508 179.797 146.604C180.597 146.78 181.165 146.996 181.501 147.252C181.845 147.508 182.017 147.88 182.017 148.368C182.017 148.904 181.805 149.336 181.381 149.664C180.957 149.992 180.409 150.156 179.737 150.156ZM189.677 144.276C189.725 144.148 189.817 144.084 189.953 144.084H190.277C190.341 144.084 190.393 144.1 190.433 144.132C190.473 144.164 190.493 144.208 190.493 144.264L190.469 144.36L188.153 150.9C188.025 151.26 187.901 151.54 187.781 151.74C187.661 151.94 187.497 152.092 187.289 152.196C187.089 152.3 186.825 152.352 186.497 152.352C186.289 152.352 186.105 152.336 185.945 152.304C185.865 152.296 185.809 152.264 185.777 152.208C185.753 152.152 185.749 152.088 185.765 152.016L185.801 151.86C185.833 151.716 185.925 151.652 186.077 151.668C186.221 151.692 186.345 151.704 186.449 151.704C186.705 151.704 186.905 151.632 187.049 151.488C187.201 151.344 187.345 151.072 187.481 150.672L187.589 150.336L185.477 144.36L185.453 144.264C185.453 144.208 185.473 144.164 185.513 144.132C185.553 144.1 185.605 144.084 185.669 144.084H186.017C186.145 144.084 186.233 144.148 186.281 144.276L186.953 146.256C187.017 146.456 187.177 146.932 187.433 147.684L187.973 149.304C188.237 148.56 188.585 147.536 189.017 146.232L189.677 144.276ZM194.043 150.156C193.491 150.156 192.999 150.024 192.567 149.76C192.135 149.496 191.799 149.132 191.559 148.668C191.319 148.196 191.199 147.656 191.199 147.048C191.199 146.44 191.319 145.904 191.559 145.44C191.799 144.968 192.135 144.6 192.567 144.336C192.999 144.072 193.491 143.94 194.043 143.94C194.595 143.94 195.087 144.072 195.519 144.336C195.951 144.6 196.287 144.968 196.527 145.44C196.767 145.904 196.887 146.44 196.887 147.048C196.887 147.656 196.767 148.196 196.527 148.668C196.287 149.132 195.951 149.496 195.519 149.76C195.087 150.024 194.595 150.156 194.043 150.156ZM194.043 149.496C194.659 149.496 195.151 149.272 195.519 148.824C195.887 148.368 196.071 147.776 196.071 147.048C196.071 146.32 195.887 145.732 195.519 145.284C195.151 144.828 194.659 144.6 194.043 144.6C193.427 144.6 192.935 144.828 192.567 145.284C192.199 145.732 192.015 146.32 192.015 147.048C192.015 147.776 192.199 148.368 192.567 148.824C192.935 149.272 193.427 149.496 194.043 149.496ZM202.103 144.324C202.103 144.164 202.183 144.084 202.343 144.084H202.655C202.815 144.084 202.895 144.164 202.895 144.324V149.76C202.895 149.92 202.815 150 202.655 150H202.403C202.243 150 202.163 149.92 202.163 149.76V149.22C201.987 149.532 201.735 149.768 201.407 149.928C201.087 150.08 200.735 150.156 200.351 150.156C199.631 150.156 199.099 149.976 198.755 149.616C198.411 149.248 198.239 148.776 198.239 148.2V144.324C198.239 144.164 198.319 144.084 198.479 144.084H198.791C198.951 144.084 199.031 144.164 199.031 144.324V148.032C199.031 148.504 199.147 148.864 199.379 149.112C199.619 149.352 199.959 149.472 200.399 149.472C200.895 149.472 201.303 149.32 201.623 149.016C201.943 148.712 202.103 148.28 202.103 147.72V144.324ZM214.039 144.288C214.071 144.152 214.163 144.084 214.315 144.084H214.639C214.727 144.084 214.787 144.108 214.819 144.156C214.859 144.204 214.867 144.268 214.843 144.348L213.295 149.796C213.263 149.932 213.171 150 213.019 150H212.479C212.343 150 212.255 149.932 212.215 149.796L211.663 147.96C211.375 147 211.107 146.016 210.859 145.008C210.619 145.984 210.355 146.976 210.067 147.984L209.539 149.796C209.507 149.932 209.415 150 209.263 150H208.747C208.595 150 208.503 149.932 208.471 149.796L206.923 144.348C206.915 144.332 206.911 144.304 206.911 144.264C206.911 144.208 206.931 144.164 206.971 144.132C207.011 144.1 207.063 144.084 207.127 144.084H207.451C207.603 144.084 207.695 144.152 207.727 144.288L208.303 146.412C208.567 147.38 208.811 148.344 209.035 149.304C209.211 148.592 209.471 147.628 209.815 146.412L210.427 144.288C210.459 144.152 210.551 144.084 210.703 144.084H211.063C211.207 144.084 211.295 144.152 211.327 144.288L211.951 146.412C212.223 147.396 212.479 148.364 212.719 149.316C212.903 148.516 213.151 147.548 213.463 146.412L214.039 144.288ZM218.453 150.156C217.901 150.156 217.409 150.024 216.977 149.76C216.545 149.496 216.209 149.132 215.969 148.668C215.729 148.196 215.609 147.656 215.609 147.048C215.609 146.44 215.729 145.904 215.969 145.44C216.209 144.968 216.545 144.6 216.977 144.336C217.409 144.072 217.901 143.94 218.453 143.94C219.005 143.94 219.497 144.072 219.929 144.336C220.361 144.6 220.697 144.968 220.937 145.44C221.177 145.904 221.297 146.44 221.297 147.048C221.297 147.656 221.177 148.196 220.937 148.668C220.697 149.132 220.361 149.496 219.929 149.76C219.497 150.024 219.005 150.156 218.453 150.156ZM218.453 149.496C219.069 149.496 219.561 149.272 219.929 148.824C220.297 148.368 220.481 147.776 220.481 147.048C220.481 146.32 220.297 145.732 219.929 145.284C219.561 144.828 219.069 144.6 218.453 144.6C217.837 144.6 217.345 144.828 216.977 145.284C216.609 145.732 216.425 146.32 216.425 147.048C216.425 147.776 216.609 148.368 216.977 148.824C217.345 149.272 217.837 149.496 218.453 149.496ZM226.513 144.324C226.513 144.164 226.593 144.084 226.753 144.084H227.065C227.225 144.084 227.305 144.164 227.305 144.324V149.76C227.305 149.92 227.225 150 227.065 150H226.813C226.653 150 226.573 149.92 226.573 149.76V149.22C226.397 149.532 226.145 149.768 225.817 149.928C225.497 150.08 225.145 150.156 224.761 150.156C224.041 150.156 223.509 149.976 223.165 149.616C222.821 149.248 222.649 148.776 222.649 148.2V144.324C222.649 144.164 222.729 144.084 222.889 144.084H223.201C223.361 144.084 223.441 144.164 223.441 144.324V148.032C223.441 148.504 223.557 148.864 223.789 149.112C224.029 149.352 224.369 149.472 224.809 149.472C225.305 149.472 225.713 149.32 226.033 149.016C226.353 148.712 226.513 148.28 226.513 147.72V144.324ZM229.335 150C229.175 150 229.095 149.92 229.095 149.76V141.72C229.095 141.56 229.175 141.48 229.335 141.48H229.647C229.807 141.48 229.887 141.56 229.887 141.72V149.76C229.887 149.92 229.807 150 229.647 150H229.335ZM235.945 141.72C235.945 141.56 236.025 141.48 236.185 141.48H236.497C236.657 141.48 236.737 141.56 236.737 141.72V149.76C236.737 149.92 236.657 150 236.497 150H236.245C236.085 150 236.005 149.92 236.005 149.76V148.98C235.789 149.356 235.505 149.644 235.153 149.844C234.801 150.044 234.385 150.144 233.905 150.144C233.401 150.144 232.953 150.016 232.561 149.76C232.169 149.496 231.861 149.132 231.637 148.668C231.413 148.196 231.301 147.656 231.301 147.048C231.301 146.44 231.413 145.904 231.637 145.44C231.869 144.968 232.185 144.604 232.585 144.348C232.985 144.084 233.433 143.952 233.929 143.952C234.841 143.952 235.513 144.292 235.945 144.972V141.72ZM233.965 149.472C234.565 149.472 235.049 149.26 235.417 148.836C235.793 148.404 235.981 147.808 235.981 147.048C235.981 146.296 235.793 145.704 235.417 145.272C235.049 144.84 234.565 144.624 233.965 144.624C233.413 144.624 232.965 144.848 232.621 145.296C232.285 145.744 232.117 146.328 232.117 147.048C232.117 147.776 232.285 148.364 232.621 148.812C232.957 149.252 233.405 149.472 233.965 149.472ZM241.535 150C241.375 150 241.295 149.92 241.295 149.76V141.72C241.295 141.56 241.375 141.48 241.535 141.48H241.847C242.007 141.48 242.087 141.56 242.087 141.72V149.76C242.087 149.92 242.007 150 241.847 150H241.535ZM244.268 142.584C244.108 142.584 243.972 142.528 243.86 142.416C243.756 142.304 243.704 142.168 243.704 142.008C243.704 141.848 243.756 141.716 243.86 141.612C243.972 141.508 244.108 141.456 244.268 141.456C244.436 141.456 244.572 141.508 244.676 141.612C244.788 141.716 244.844 141.848 244.844 142.008C244.844 142.168 244.788 142.304 244.676 142.416C244.572 142.528 244.436 142.584 244.268 142.584ZM244.112 150C243.952 150 243.872 149.92 243.872 149.76V144.324C243.872 144.164 243.952 144.084 244.112 144.084H244.424C244.584 144.084 244.664 144.164 244.664 144.324V149.76C244.664 149.92 244.584 150 244.424 150H244.112ZM250.699 150C250.579 150 250.483 149.948 250.411 149.844L248.383 146.892L247.219 148.08V149.76C247.219 149.92 247.139 150 246.979 150H246.667C246.507 150 246.427 149.92 246.427 149.76V141.72C246.427 141.56 246.507 141.48 246.667 141.48H246.979C247.139 141.48 247.219 141.56 247.219 141.72V147.18L250.099 144.192C250.171 144.112 250.271 144.072 250.399 144.072H250.735C250.799 144.072 250.847 144.088 250.879 144.12C250.919 144.144 250.939 144.176 250.939 144.216C250.939 144.256 250.915 144.308 250.867 144.372L248.935 146.388L251.203 149.712C251.235 149.768 251.251 149.816 251.251 149.856C251.251 149.952 251.187 150 251.059 150H250.699ZM256.606 148.596C256.662 148.54 256.722 148.512 256.786 148.512C256.842 148.512 256.894 148.536 256.942 148.584L257.098 148.728C257.154 148.784 257.182 148.844 257.182 148.908C257.182 148.956 257.158 149.012 257.11 149.076C256.718 149.468 256.338 149.748 255.97 149.916C255.602 150.076 255.19 150.156 254.734 150.156C254.158 150.156 253.658 150.028 253.234 149.772C252.81 149.516 252.482 149.16 252.25 148.704C252.018 148.24 251.902 147.704 251.902 147.096C251.902 146.48 252.014 145.936 252.238 145.464C252.47 144.984 252.794 144.612 253.21 144.348C253.626 144.076 254.106 143.94 254.65 143.94C255.458 143.94 256.094 144.192 256.558 144.696C257.022 145.2 257.254 145.88 257.254 146.736V146.88C257.246 146.952 257.218 147.008 257.17 147.048C257.13 147.088 257.074 147.108 257.002 147.108H252.706C252.73 147.78 252.906 148.348 253.234 148.812C253.57 149.268 254.07 149.496 254.734 149.496C255.094 149.496 255.41 149.432 255.682 149.304C255.962 149.168 256.27 148.932 256.606 148.596ZM254.65 144.6C254.122 144.6 253.686 144.764 253.342 145.092C253.006 145.412 252.802 145.884 252.73 146.508H256.462C256.446 145.924 256.278 145.46 255.958 145.116C255.638 144.772 255.202 144.6 254.65 144.6ZM264.103 149.34C264.127 149.332 264.159 149.328 264.199 149.328C264.247 149.328 264.291 149.344 264.331 149.376C264.371 149.408 264.395 149.452 264.403 149.508L264.439 149.676C264.447 149.692 264.451 149.72 264.451 149.76C264.451 149.872 264.391 149.94 264.271 149.964C263.983 150.052 263.675 150.096 263.347 150.096C262.827 150.096 262.455 149.98 262.231 149.748C262.015 149.508 261.907 149.164 261.907 148.716V144.684H261.019C260.859 144.684 260.779 144.604 260.779 144.444V144.324C260.779 144.164 260.859 144.084 261.019 144.084H261.907V142.26C261.907 142.1 261.987 142.02 262.147 142.02H262.459C262.619 142.02 262.699 142.1 262.699 142.26V144.084H264.139C264.299 144.084 264.379 144.164 264.379 144.324V144.444C264.379 144.604 264.299 144.684 264.139 144.684H262.699V148.62C262.699 148.916 262.755 149.124 262.867 149.244C262.979 149.364 263.171 149.424 263.443 149.424C263.635 149.424 263.855 149.396 264.103 149.34ZM267.813 150.156C267.261 150.156 266.769 150.024 266.337 149.76C265.905 149.496 265.569 149.132 265.329 148.668C265.089 148.196 264.969 147.656 264.969 147.048C264.969 146.44 265.089 145.904 265.329 145.44C265.569 144.968 265.905 144.6 266.337 144.336C266.769 144.072 267.261 143.94 267.813 143.94C268.365 143.94 268.857 144.072 269.289 144.336C269.721 144.6 270.057 144.968 270.297 145.44C270.537 145.904 270.657 146.44 270.657 147.048C270.657 147.656 270.537 148.196 270.297 148.668C270.057 149.132 269.721 149.496 269.289 149.76C268.857 150.024 268.365 150.156 267.813 150.156ZM267.813 149.496C268.429 149.496 268.921 149.272 269.289 148.824C269.657 148.368 269.841 147.776 269.841 147.048C269.841 146.32 269.657 145.732 269.289 145.284C268.921 144.828 268.429 144.6 267.813 144.6C267.197 144.6 266.705 144.828 266.337 145.284C265.969 145.732 265.785 146.32 265.785 147.048C265.785 147.776 265.969 148.368 266.337 148.824C266.705 149.272 267.197 149.496 267.813 149.496ZM76.196 164.596C76.252 164.54 76.312 164.512 76.376 164.512C76.432 164.512 76.484 164.536 76.532 164.584L76.688 164.728C76.744 164.784 76.772 164.844 76.772 164.908C76.772 164.956 76.748 165.012 76.7 165.076C76.308 165.468 75.928 165.748 75.56 165.916C75.192 166.076 74.78 166.156 74.324 166.156C73.748 166.156 73.248 166.028 72.824 165.772C72.4 165.516 72.072 165.16 71.84 164.704C71.608 164.24 71.492 163.704 71.492 163.096C71.492 162.48 71.604 161.936 71.828 161.464C72.06 160.984 72.384 160.612 72.8 160.348C73.216 160.076 73.696 159.94 74.24 159.94C75.048 159.94 75.684 160.192 76.148 160.696C76.612 161.2 76.844 161.88 76.844 162.736V162.88C76.836 162.952 76.808 163.008 76.76 163.048C76.72 163.088 76.664 163.108 76.592 163.108H72.296C72.32 163.78 72.496 164.348 72.824 164.812C73.16 165.268 73.66 165.496 74.324 165.496C74.684 165.496 75 165.432 75.272 165.304C75.552 165.168 75.86 164.932 76.196 164.596ZM74.24 160.6C73.712 160.6 73.276 160.764 72.932 161.092C72.596 161.412 72.392 161.884 72.32 162.508H76.052C76.036 161.924 75.868 161.46 75.548 161.116C75.228 160.772 74.792 160.6 74.24 160.6ZM82.4547 165.712C82.4867 165.768 82.5027 165.816 82.5027 165.856C82.5027 165.952 82.4387 166 82.3107 166H81.9507C81.8307 166 81.7347 165.948 81.6627 165.844L80.0307 163.444L78.4107 165.844C78.3387 165.948 78.2427 166 78.1227 166H77.7867C77.7227 166 77.6707 165.988 77.6307 165.964C77.5987 165.932 77.5827 165.896 77.5827 165.856C77.5827 165.8 77.5987 165.752 77.6307 165.712L79.5747 162.916L77.7867 160.372C77.7547 160.332 77.7387 160.288 77.7387 160.24C77.7387 160.136 77.8067 160.084 77.9427 160.084H78.2907C78.4107 160.084 78.5067 160.136 78.5787 160.24L80.0427 162.388L81.4947 160.24C81.5667 160.136 81.6627 160.084 81.7827 160.084H82.1067C82.1707 160.084 82.2187 160.1 82.2507 160.132C82.2907 160.156 82.3107 160.188 82.3107 160.228C82.3107 160.284 82.2947 160.332 82.2627 160.372L80.5107 162.88L82.4547 165.712ZM86.5559 159.952C87.0519 159.952 87.4959 160.084 87.8879 160.348C88.2879 160.604 88.5999 160.968 88.8239 161.44C89.0479 161.904 89.1599 162.436 89.1599 163.036C89.1599 163.644 89.0479 164.184 88.8239 164.656C88.5999 165.128 88.2919 165.496 87.8999 165.76C87.5079 166.016 87.0599 166.144 86.5559 166.144C85.6279 166.144 84.9479 165.804 84.5159 165.124V167.968C84.5159 168.128 84.4359 168.208 84.2759 168.208H83.9639C83.8039 168.208 83.7239 168.128 83.7239 167.968V160.324C83.7239 160.164 83.8039 160.084 83.9639 160.084H84.2279C84.3879 160.084 84.4679 160.164 84.4679 160.324V161.08C84.6839 160.712 84.9679 160.432 85.3199 160.24C85.6719 160.048 86.0839 159.952 86.5559 159.952ZM86.4959 165.472C87.0559 165.472 87.5039 165.248 87.8399 164.8C88.1759 164.352 88.3439 163.764 88.3439 163.036C88.3439 162.316 88.1759 161.736 87.8399 161.296C87.5039 160.848 87.0559 160.624 86.4959 160.624C85.8959 160.624 85.4079 160.84 85.0319 161.272C84.6639 161.696 84.4799 162.284 84.4799 163.036C84.4799 163.788 84.6679 164.384 85.0439 164.824C85.4199 165.256 85.9039 165.472 86.4959 165.472ZM90.8197 166C90.6597 166 90.5797 165.92 90.5797 165.76V157.72C90.5797 157.56 90.6597 157.48 90.8197 157.48H91.1317C91.2917 157.48 91.3717 157.56 91.3717 157.72V165.76C91.3717 165.92 91.2917 166 91.1317 166H90.8197ZM95.6055 166.156C95.0535 166.156 94.5615 166.024 94.1295 165.76C93.6975 165.496 93.3615 165.132 93.1215 164.668C92.8815 164.196 92.7615 163.656 92.7615 163.048C92.7615 162.44 92.8815 161.904 93.1215 161.44C93.3615 160.968 93.6975 160.6 94.1295 160.336C94.5615 160.072 95.0535 159.94 95.6055 159.94C96.1575 159.94 96.6495 160.072 97.0815 160.336C97.5135 160.6 97.8495 160.968 98.0895 161.44C98.3295 161.904 98.4495 162.44 98.4495 163.048C98.4495 163.656 98.3295 164.196 98.0895 164.668C97.8495 165.132 97.5135 165.496 97.0815 165.76C96.6495 166.024 96.1575 166.156 95.6055 166.156ZM95.6055 165.496C96.2215 165.496 96.7135 165.272 97.0815 164.824C97.4495 164.368 97.6335 163.776 97.6335 163.048C97.6335 162.32 97.4495 161.732 97.0815 161.284C96.7135 160.828 96.2215 160.6 95.6055 160.6C94.9895 160.6 94.4975 160.828 94.1295 161.284C93.7615 161.732 93.5775 162.32 93.5775 163.048C93.5775 163.776 93.7615 164.368 94.1295 164.824C94.4975 165.272 94.9895 165.496 95.6055 165.496ZM102.034 160.036C102.234 160.036 102.47 160.068 102.742 160.132C102.886 160.18 102.942 160.28 102.91 160.432L102.862 160.624C102.822 160.776 102.722 160.832 102.562 160.792C102.37 160.744 102.194 160.72 102.034 160.72C101.626 160.72 101.286 160.896 101.014 161.248C100.75 161.6 100.618 162.088 100.618 162.712V165.76C100.618 165.92 100.538 166 100.378 166H100.066C99.9055 166 99.8255 165.92 99.8255 165.76V160.324C99.8255 160.164 99.9055 160.084 100.066 160.084H100.33C100.49 160.084 100.57 160.164 100.57 160.324V160.984C100.706 160.688 100.898 160.456 101.146 160.288C101.402 160.12 101.698 160.036 102.034 160.036ZM107.966 164.596C108.022 164.54 108.082 164.512 108.146 164.512C108.202 164.512 108.254 164.536 108.302 164.584L108.458 164.728C108.514 164.784 108.542 164.844 108.542 164.908C108.542 164.956 108.518 165.012 108.47 165.076C108.078 165.468 107.698 165.748 107.33 165.916C106.962 166.076 106.55 166.156 106.094 166.156C105.518 166.156 105.018 166.028 104.594 165.772C104.17 165.516 103.842 165.16 103.61 164.704C103.378 164.24 103.262 163.704 103.262 163.096C103.262 162.48 103.374 161.936 103.598 161.464C103.83 160.984 104.154 160.612 104.57 160.348C104.986 160.076 105.466 159.94 106.01 159.94C106.818 159.94 107.454 160.192 107.918 160.696C108.382 161.2 108.614 161.88 108.614 162.736V162.88C108.606 162.952 108.578 163.008 108.53 163.048C108.49 163.088 108.434 163.108 108.362 163.108H104.066C104.09 163.78 104.266 164.348 104.594 164.812C104.93 165.268 105.43 165.496 106.094 165.496C106.454 165.496 106.77 165.432 107.042 165.304C107.322 165.168 107.63 164.932 107.966 164.596ZM106.01 160.6C105.482 160.6 105.046 160.764 104.702 161.092C104.366 161.412 104.162 161.884 104.09 162.508H107.822C107.806 161.924 107.638 161.46 107.318 161.116C106.998 160.772 106.562 160.6 106.01 160.6ZM115.462 165.34C115.486 165.332 115.518 165.328 115.558 165.328C115.606 165.328 115.65 165.344 115.69 165.376C115.73 165.408 115.754 165.452 115.762 165.508L115.798 165.676C115.806 165.692 115.81 165.72 115.81 165.76C115.81 165.872 115.75 165.94 115.63 165.964C115.342 166.052 115.034 166.096 114.706 166.096C114.186 166.096 113.814 165.98 113.59 165.748C113.374 165.508 113.266 165.164 113.266 164.716V160.684H112.378C112.218 160.684 112.138 160.604 112.138 160.444V160.324C112.138 160.164 112.218 160.084 112.378 160.084H113.266V158.26C113.266 158.1 113.346 158.02 113.506 158.02H113.818C113.978 158.02 114.058 158.1 114.058 158.26V160.084H115.498C115.658 160.084 115.738 160.164 115.738 160.324V160.444C115.738 160.604 115.658 160.684 115.498 160.684H114.058V164.62C114.058 164.916 114.114 165.124 114.226 165.244C114.338 165.364 114.53 165.424 114.802 165.424C114.994 165.424 115.214 165.396 115.462 165.34ZM119.155 160.036C119.355 160.036 119.591 160.068 119.863 160.132C120.007 160.18 120.063 160.28 120.031 160.432L119.983 160.624C119.943 160.776 119.843 160.832 119.683 160.792C119.491 160.744 119.315 160.72 119.155 160.72C118.747 160.72 118.407 160.896 118.135 161.248C117.871 161.6 117.739 162.088 117.739 162.712V165.76C117.739 165.92 117.659 166 117.499 166H117.187C117.027 166 116.947 165.92 116.947 165.76V160.324C116.947 160.164 117.027 160.084 117.187 160.084H117.451C117.611 160.084 117.691 160.164 117.691 160.324V160.984C117.827 160.688 118.019 160.456 118.267 160.288C118.523 160.12 118.819 160.036 119.155 160.036ZM123.227 166.156C122.675 166.156 122.183 166.024 121.751 165.76C121.319 165.496 120.983 165.132 120.743 164.668C120.503 164.196 120.383 163.656 120.383 163.048C120.383 162.44 120.503 161.904 120.743 161.44C120.983 160.968 121.319 160.6 121.751 160.336C122.183 160.072 122.675 159.94 123.227 159.94C123.779 159.94 124.271 160.072 124.703 160.336C125.135 160.6 125.471 160.968 125.711 161.44C125.951 161.904 126.071 162.44 126.071 163.048C126.071 163.656 125.951 164.196 125.711 164.668C125.471 165.132 125.135 165.496 124.703 165.76C124.271 166.024 123.779 166.156 123.227 166.156ZM123.227 165.496C123.843 165.496 124.335 165.272 124.703 164.824C125.071 164.368 125.255 163.776 125.255 163.048C125.255 162.32 125.071 161.732 124.703 161.284C124.335 160.828 123.843 160.6 123.227 160.6C122.611 160.6 122.119 160.828 121.751 161.284C121.383 161.732 121.199 162.32 121.199 163.048C121.199 163.776 121.383 164.368 121.751 164.824C122.119 165.272 122.611 165.496 123.227 165.496ZM131.287 160.324C131.287 160.164 131.367 160.084 131.527 160.084H131.839C131.999 160.084 132.079 160.164 132.079 160.324V165.76C132.079 165.92 131.999 166 131.839 166H131.587C131.427 166 131.347 165.92 131.347 165.76V165.22C131.171 165.532 130.919 165.768 130.591 165.928C130.271 166.08 129.919 166.156 129.535 166.156C128.815 166.156 128.283 165.976 127.939 165.616C127.595 165.248 127.423 164.776 127.423 164.2V160.324C127.423 160.164 127.503 160.084 127.663 160.084H127.975C128.135 160.084 128.215 160.164 128.215 160.324V164.032C128.215 164.504 128.331 164.864 128.563 165.112C128.803 165.352 129.143 165.472 129.583 165.472C130.079 165.472 130.487 165.32 130.807 165.016C131.127 164.712 131.287 164.28 131.287 163.72V160.324ZM138.105 160.324C138.105 160.164 138.185 160.084 138.345 160.084H138.597C138.757 160.084 138.837 160.164 138.837 160.324V165.94C138.837 166.684 138.613 167.268 138.165 167.692C137.717 168.124 137.089 168.34 136.281 168.34C135.409 168.34 134.605 168.092 133.869 167.596C133.789 167.548 133.749 167.488 133.749 167.416C133.749 167.36 133.765 167.312 133.797 167.272L133.941 167.068C133.989 166.988 134.053 166.948 134.133 166.948C134.165 166.948 134.213 166.964 134.277 166.996C134.629 167.22 134.957 167.388 135.261 167.5C135.573 167.612 135.913 167.668 136.281 167.668C136.809 167.668 137.237 167.52 137.565 167.224C137.893 166.936 138.057 166.488 138.057 165.88V164.92C137.625 165.616 136.969 165.964 136.089 165.964C135.577 165.964 135.125 165.836 134.733 165.58C134.341 165.316 134.037 164.956 133.821 164.5C133.613 164.044 133.509 163.528 133.509 162.952C133.509 162.376 133.613 161.86 133.821 161.404C134.037 160.948 134.341 160.592 134.733 160.336C135.125 160.072 135.577 159.94 136.089 159.94C136.553 159.94 136.953 160.04 137.289 160.24C137.633 160.432 137.905 160.708 138.105 161.068V160.324ZM136.173 165.292C136.749 165.292 137.209 165.076 137.553 164.644C137.897 164.204 138.069 163.64 138.069 162.952C138.069 162.264 137.897 161.704 137.553 161.272C137.209 160.832 136.749 160.612 136.173 160.612C135.589 160.612 135.133 160.828 134.805 161.26C134.485 161.692 134.325 162.256 134.325 162.952C134.325 163.648 134.485 164.212 134.805 164.644C135.133 165.076 135.589 165.292 136.173 165.292ZM143.258 159.94C143.946 159.94 144.47 160.136 144.83 160.528C145.19 160.912 145.37 161.388 145.37 161.956V165.76C145.37 165.92 145.29 166 145.13 166H144.818C144.658 166 144.578 165.92 144.578 165.76V162.22C144.578 161.692 144.45 161.292 144.194 161.02C143.938 160.748 143.57 160.612 143.09 160.612C142.786 160.612 142.506 160.688 142.25 160.84C141.994 160.984 141.79 161.184 141.638 161.44C141.486 161.696 141.41 161.976 141.41 162.28V165.76C141.41 165.92 141.33 166 141.17 166H140.858C140.698 166 140.618 165.92 140.618 165.76V157.72C140.618 157.56 140.698 157.48 140.858 157.48H141.17C141.33 157.48 141.41 157.56 141.41 157.72V160.852C141.602 160.548 141.858 160.32 142.178 160.168C142.506 160.016 142.866 159.94 143.258 159.94ZM150.272 166C150.112 166 150.032 165.92 150.032 165.76V157.72C150.032 157.56 150.112 157.48 150.272 157.48H155.312C155.472 157.48 155.552 157.56 155.552 157.72V157.948C155.552 158.108 155.472 158.188 155.312 158.188H150.884V161.428H154.94C155.1 161.428 155.18 161.508 155.18 161.668V161.896C155.18 162.056 155.1 162.136 154.94 162.136H150.884V165.76C150.884 165.92 150.804 166 150.644 166H150.272ZM157.399 166C157.239 166 157.159 165.92 157.159 165.76V157.72C157.159 157.56 157.239 157.48 157.399 157.48H157.771C157.931 157.48 158.011 157.56 158.011 157.72V165.76C158.011 165.92 157.931 166 157.771 166H157.399ZM165.977 157.72C165.977 157.56 166.057 157.48 166.217 157.48H166.565C166.725 157.48 166.805 157.56 166.805 157.72V165.76C166.805 165.92 166.725 166 166.565 166H166.025C165.897 166 165.797 165.948 165.725 165.844L163.145 161.932L163.001 161.704C162.041 160.264 161.353 159.204 160.937 158.524C160.969 159.46 160.985 160.54 160.985 161.764V165.76C160.985 165.92 160.905 166 160.745 166H160.397C160.237 166 160.157 165.92 160.157 165.76V157.72C160.157 157.56 160.237 157.48 160.397 157.48H160.937C161.065 157.48 161.165 157.532 161.237 157.636L163.805 161.536L164.261 162.244C165.069 163.468 165.657 164.38 166.025 164.98C165.993 164.028 165.977 162.944 165.977 161.728V157.72ZM174.684 157.72C174.684 157.56 174.764 157.48 174.924 157.48H175.272C175.432 157.48 175.512 157.56 175.512 157.72V165.76C175.512 165.92 175.432 166 175.272 166H174.732C174.604 166 174.504 165.948 174.432 165.844L171.852 161.932L171.708 161.704C170.748 160.264 170.06 159.204 169.644 158.524C169.676 159.46 169.692 160.54 169.692 161.764V165.76C169.692 165.92 169.612 166 169.452 166H169.104C168.944 166 168.864 165.92 168.864 165.76V157.72C168.864 157.56 168.944 157.48 169.104 157.48H169.644C169.772 157.48 169.872 157.532 169.944 157.636L172.512 161.536L172.968 162.244C173.776 163.468 174.364 164.38 174.732 164.98C174.7 164.028 174.684 162.944 174.684 161.728V157.72ZM177.751 166.084C177.583 166.084 177.439 166.024 177.319 165.904C177.199 165.784 177.139 165.64 177.139 165.472C177.139 165.304 177.199 165.16 177.319 165.04C177.439 164.92 177.583 164.86 177.751 164.86C177.919 164.86 178.063 164.92 178.183 165.04C178.303 165.16 178.363 165.304 178.363 165.472C178.363 165.64 178.303 165.784 178.183 165.904C178.063 166.024 177.919 166.084 177.751 166.084Z" fill="#464646"/>
<defs>
<filter id="filter0_d_1811_19318" x="263.293" y="123.293" width="7.41431" height="8.41431" filterUnits="userSpaceOnUse" color-interpolation-filters="sRGB">
<feFlood flood-opacity="0" result="BackgroundImageFix"/>
<feColorMatrix in="SourceAlpha" type="matrix" values="0 0 0 0 0 0 0 0 0 0 0 0 0 0 0 0 0 0 127 0" result="hardAlpha"/>
<feOffset dy="1"/>
<feColorMatrix type="matrix" values="0 0 0 0 1 0 0 0 0 1 0 0 0 0 1 0 0 0 0.5 0"/>
<feBlend mode="normal" in2="BackgroundImageFix" result="effect1_dropShadow_1811_19318"/>
<feBlend mode="normal" in="SourceGraphic" in2="effect1_dropShadow_1811_19318" result="shape"/>
</filter>
</defs>
</svg>
