<svg width="344" height="210" viewBox="0 0 344 210" fill="none" xmlns="http://www.w3.org/2000/svg">
<rect width="344" height="210" fill="#F5F5F5"/>
<path d="M79.694 54.466C79.778 54.1953 79.9647 54.06 80.254 54.06H81.85C82.0087 54.06 82.13 54.102 82.214 54.186C82.298 54.27 82.34 54.3913 82.34 54.55V63.51C82.34 63.6593 82.298 63.7807 82.214 63.874C82.13 63.958 82.0087 64 81.85 64H81.276C81.1267 64 81.0053 63.958 80.912 63.874C80.828 63.7807 80.786 63.6593 80.786 63.51V59.002C80.786 58.442 80.7953 57.602 80.814 56.482L80.828 55.264C80.716 55.6187 80.45 56.426 80.03 57.686L79.596 59.002L78.056 63.594C77.972 63.8647 77.7853 64 77.496 64H76.95C76.6607 64 76.474 63.8693 76.39 63.608L74.822 59.002C74.2713 57.4153 73.856 56.1693 73.576 55.264C73.5947 56.9067 73.604 58.1527 73.604 59.002V63.51C73.604 63.6593 73.562 63.7807 73.478 63.874C73.394 63.958 73.2727 64 73.114 64H72.568C72.4187 64 72.2973 63.958 72.204 63.874C72.12 63.7807 72.078 63.6593 72.078 63.51V54.55C72.078 54.3913 72.12 54.27 72.204 54.186C72.2973 54.102 72.4187 54.06 72.568 54.06H74.192C74.4813 54.06 74.668 54.1907 74.752 54.452L76.054 58.288C76.6047 59.9307 76.9967 61.1767 77.23 62.026C77.5287 60.9807 77.9207 59.7347 78.406 58.288L79.694 54.466ZM87.1801 56.888C88.1134 56.888 88.8321 57.1073 89.3361 57.546C89.8401 57.9753 90.0921 58.5493 90.0921 59.268V63.51C90.0921 63.6593 90.0501 63.7807 89.9661 63.874C89.8821 63.958 89.7607 64 89.6021 64H89.2381C89.0887 64 88.9674 63.958 88.8741 63.874C88.7901 63.7807 88.7481 63.6593 88.7481 63.51V63.202C88.5241 63.5287 88.2161 63.7807 87.8241 63.958C87.4321 64.1353 86.9747 64.224 86.4521 64.224C85.7334 64.224 85.1407 64.0653 84.6741 63.748C84.2167 63.4213 83.9881 62.9313 83.9881 62.278C83.9881 61.55 84.2587 61.0133 84.8001 60.668C85.3507 60.3133 86.1114 60.0473 87.0821 59.87L88.6641 59.576V59.324C88.6641 58.9413 88.5287 58.6473 88.2581 58.442C87.9967 58.2273 87.6467 58.12 87.2081 58.12C86.8347 58.12 86.5081 58.1853 86.2281 58.316C85.9574 58.4373 85.6634 58.6427 85.3461 58.932C85.2247 59.0347 85.1081 59.086 84.9961 59.086C84.8841 59.086 84.7674 59.0347 84.6461 58.932L84.4221 58.736C84.3007 58.624 84.2401 58.5027 84.2401 58.372C84.2401 58.2507 84.2961 58.134 84.4081 58.022C84.8094 57.6393 85.2341 57.3547 85.6821 57.168C86.1301 56.9813 86.6294 56.888 87.1801 56.888ZM86.6621 63.034C87.2221 63.034 87.6934 62.8847 88.0761 62.586C88.4681 62.2873 88.6641 61.858 88.6641 61.298V60.654L87.4461 60.906C86.7647 61.046 86.2607 61.2047 85.9341 61.382C85.6074 61.5593 85.4441 61.83 85.4441 62.194C85.4441 62.4553 85.5514 62.6607 85.7661 62.81C85.9807 62.9593 86.2794 63.034 86.6621 63.034ZM94.8956 57.028C95.1009 57.028 95.3109 57.0513 95.5256 57.098C95.7776 57.154 95.9036 57.3033 95.9036 57.546C95.9036 57.6113 95.8989 57.658 95.8896 57.686L95.8196 58.022C95.7636 58.2833 95.6236 58.414 95.3996 58.414L95.2736 58.4C95.1056 58.372 94.9563 58.358 94.8256 58.358C94.3589 58.358 93.9809 58.5447 93.6916 58.918C93.4116 59.282 93.2716 59.7907 93.2716 60.444V63.51C93.2716 63.6593 93.2296 63.7807 93.1456 63.874C93.0616 63.958 92.9403 64 92.7816 64H92.2776C92.1283 64 92.0069 63.958 91.9136 63.874C91.8296 63.7807 91.7876 63.6593 91.7876 63.51V57.588C91.7876 57.4293 91.8296 57.308 91.9136 57.224C92.0069 57.14 92.1283 57.098 92.2776 57.098H92.6836C92.8423 57.098 92.9636 57.14 93.0476 57.224C93.1316 57.308 93.1736 57.4293 93.1736 57.588V58.134C93.3416 57.7887 93.5703 57.518 93.8596 57.322C94.1489 57.126 94.4943 57.028 94.8956 57.028ZM102.093 64C101.832 64 101.636 63.8927 101.505 63.678L99.5729 60.682L98.4669 61.802V63.51C98.4669 63.6593 98.4249 63.7807 98.3409 63.874C98.2569 63.958 98.1356 64 97.9769 64H97.4729C97.3236 64 97.2022 63.958 97.1089 63.874C97.0249 63.7807 96.9829 63.6593 96.9829 63.51V54.55C96.9829 54.3913 97.0249 54.27 97.1089 54.186C97.2022 54.102 97.3236 54.06 97.4729 54.06H97.9769C98.1356 54.06 98.2569 54.102 98.3409 54.186C98.4249 54.27 98.4669 54.3913 98.4669 54.55V60.164L101.113 57.364C101.281 57.1867 101.486 57.098 101.729 57.098H102.261C102.401 57.098 102.504 57.126 102.569 57.182C102.644 57.2287 102.681 57.294 102.681 57.378C102.681 57.49 102.63 57.5973 102.527 57.7L100.595 59.716L102.975 63.412C103.04 63.5147 103.073 63.608 103.073 63.692C103.073 63.7853 103.036 63.86 102.961 63.916C102.886 63.972 102.784 64 102.653 64H102.093ZM108.939 62.236C109.06 62.1333 109.177 62.082 109.289 62.082C109.401 62.082 109.517 62.1427 109.639 62.264L109.835 62.474C109.937 62.5953 109.989 62.712 109.989 62.824C109.989 62.9453 109.928 63.062 109.807 63.174C109.377 63.5473 108.948 63.8133 108.519 63.972C108.099 64.1307 107.632 64.21 107.119 64.21C106.4 64.21 105.775 64.0607 105.243 63.762C104.72 63.4633 104.314 63.0433 104.025 62.502C103.745 61.9513 103.605 61.3167 103.605 60.598C103.605 59.8887 103.74 59.254 104.011 58.694C104.291 58.1247 104.683 57.6813 105.187 57.364C105.7 57.0467 106.297 56.888 106.979 56.888C107.996 56.888 108.78 57.1913 109.331 57.798C109.881 58.3953 110.157 59.2213 110.157 60.276V60.402C110.147 60.5513 110.101 60.668 110.017 60.752C109.933 60.836 109.811 60.878 109.653 60.878H105.061C105.117 61.494 105.317 61.998 105.663 62.39C106.017 62.7727 106.512 62.964 107.147 62.964C107.492 62.964 107.795 62.9127 108.057 62.81C108.318 62.698 108.612 62.5067 108.939 62.236ZM106.951 58.064C106.437 58.064 106.022 58.218 105.705 58.526C105.397 58.8247 105.196 59.2493 105.103 59.8H108.701C108.663 59.2587 108.495 58.834 108.197 58.526C107.898 58.218 107.483 58.064 106.951 58.064ZM114.766 62.824C114.794 62.8147 114.836 62.81 114.892 62.81C115.125 62.81 115.265 62.9453 115.312 63.216L115.354 63.44C115.363 63.468 115.368 63.5147 115.368 63.58C115.368 63.8133 115.237 63.9627 114.976 64.028C114.603 64.112 114.262 64.154 113.954 64.154C113.291 64.154 112.811 64 112.512 63.692C112.223 63.384 112.078 62.922 112.078 62.306V58.232H111.308C111.159 58.232 111.037 58.19 110.944 58.106C110.86 58.0127 110.818 57.8913 110.818 57.742V57.588C110.818 57.4293 110.86 57.308 110.944 57.224C111.037 57.14 111.159 57.098 111.308 57.098H112.078V55.362C112.078 55.2033 112.12 55.082 112.204 54.998C112.297 54.914 112.419 54.872 112.568 54.872H113.072C113.231 54.872 113.352 54.914 113.436 54.998C113.52 55.082 113.562 55.2033 113.562 55.362V57.098H114.822C114.981 57.098 115.102 57.14 115.186 57.224C115.27 57.308 115.312 57.4293 115.312 57.588V57.742C115.312 57.8913 115.27 58.0127 115.186 58.106C115.102 58.19 114.981 58.232 114.822 58.232H113.562V62.124C113.562 62.3947 113.618 62.586 113.73 62.698C113.851 62.81 114.043 62.866 114.304 62.866C114.416 62.866 114.57 62.852 114.766 62.824ZM119.303 64.21C118.734 64.21 118.225 64.14 117.777 64C117.338 63.8507 116.89 63.594 116.433 63.23C116.293 63.1273 116.223 63.0107 116.223 62.88C116.223 62.7773 116.274 62.6653 116.377 62.544L116.587 62.306C116.699 62.1753 116.82 62.11 116.951 62.11C117.054 62.11 117.166 62.1567 117.287 62.25C117.679 62.5393 118.024 62.74 118.323 62.852C118.622 62.9547 118.958 63.006 119.331 63.006C119.732 63.006 120.059 62.9267 120.311 62.768C120.572 62.6 120.703 62.376 120.703 62.096C120.703 61.8813 120.628 61.7133 120.479 61.592C120.339 61.4613 120.152 61.3633 119.919 61.298C119.686 61.2233 119.34 61.1393 118.883 61.046C118.239 60.906 117.735 60.7567 117.371 60.598C117.016 60.43 116.76 60.22 116.601 59.968C116.442 59.716 116.363 59.394 116.363 59.002C116.363 58.6007 116.475 58.2413 116.699 57.924C116.932 57.6067 117.254 57.3547 117.665 57.168C118.085 56.9813 118.575 56.888 119.135 56.888C119.639 56.888 120.087 56.944 120.479 57.056C120.88 57.168 121.272 57.3593 121.655 57.63C121.804 57.742 121.879 57.868 121.879 58.008C121.879 58.1013 121.832 58.2087 121.739 58.33L121.557 58.554C121.454 58.6847 121.328 58.75 121.179 58.75C121.067 58.75 120.96 58.7127 120.857 58.638C120.549 58.4327 120.264 58.2927 120.003 58.218C119.742 58.134 119.448 58.092 119.121 58.092C118.72 58.092 118.398 58.1713 118.155 58.33C117.912 58.4887 117.791 58.694 117.791 58.946C117.791 59.114 117.847 59.2493 117.959 59.352C118.08 59.4453 118.248 59.5293 118.463 59.604C118.687 59.6693 119.037 59.7533 119.513 59.856C120.157 59.996 120.666 60.1547 121.039 60.332C121.422 60.5 121.702 60.7193 121.879 60.99C122.066 61.2513 122.159 61.592 122.159 62.012C122.159 62.6653 121.898 63.1973 121.375 63.608C120.862 64.0093 120.171 64.21 119.303 64.21Z" fill="#464646"/>
<rect x="71.5" y="72.5" width="202" height="87" rx="3.5" fill="white"/>
<g clip-path="url(#clip0_1811_19216)">
<path d="M80.696 101C80.4827 101 80.376 100.893 80.376 100.68V89.96C80.376 89.7467 80.4827 89.64 80.696 89.64H84.44C85.496 89.64 86.3973 89.88 87.144 90.36C87.8907 90.84 88.456 91.5067 88.84 92.36C89.224 93.2133 89.416 94.2 89.416 95.32C89.416 96.44 89.224 97.4267 88.84 98.28C88.456 99.1333 87.8907 99.8 87.144 100.28C86.3973 100.76 85.496 101 84.44 101H80.696ZM84.248 100.056C85.5387 100.056 86.5307 99.6347 87.224 98.792C87.9173 97.9387 88.264 96.7813 88.264 95.32C88.264 93.8693 87.9173 92.7173 87.224 91.864C86.5307 91.0107 85.5387 90.584 84.248 90.584H81.512V100.056H84.248ZM97.2718 99.128C97.3464 99.0533 97.4264 99.016 97.5118 99.016C97.5864 99.016 97.6558 99.048 97.7198 99.112L97.9278 99.304C98.0024 99.3787 98.0398 99.4587 98.0398 99.544C98.0398 99.608 98.0078 99.6827 97.9438 99.768C97.4211 100.291 96.9144 100.664 96.4238 100.888C95.9331 101.101 95.3838 101.208 94.7758 101.208C94.0078 101.208 93.3411 101.037 92.7758 100.696C92.2104 100.355 91.7731 99.88 91.4638 99.272C91.1544 98.6533 90.9998 97.9387 90.9998 97.128C90.9998 96.3067 91.1491 95.5813 91.4478 94.952C91.7571 94.312 92.1891 93.816 92.7438 93.464C93.2984 93.1013 93.9384 92.92 94.6638 92.92C95.7411 92.92 96.5891 93.256 97.2078 93.928C97.8264 94.6 98.1358 95.5067 98.1358 96.648V96.84C98.1251 96.936 98.0878 97.0107 98.0238 97.064C97.9704 97.1173 97.8958 97.144 97.7998 97.144H92.0718C92.1038 98.04 92.3384 98.7973 92.7758 99.416C93.2238 100.024 93.8904 100.328 94.7758 100.328C95.2558 100.328 95.6771 100.243 96.0398 100.072C96.4131 99.8907 96.8238 99.576 97.2718 99.128ZM94.6638 93.8C93.9598 93.8 93.3784 94.0187 92.9198 94.456C92.4718 94.8827 92.1998 95.512 92.1038 96.344H97.0798C97.0584 95.5653 96.8344 94.9467 96.4078 94.488C95.9811 94.0293 95.3998 93.8 94.6638 93.8ZM102.842 101.208C102.192 101.208 101.616 101.117 101.114 100.936C100.624 100.744 100.106 100.424 99.5623 99.976C99.4663 99.912 99.4183 99.8373 99.4183 99.752C99.4183 99.6773 99.4556 99.6027 99.5303 99.528L99.7383 99.304C99.8023 99.2187 99.8823 99.176 99.9783 99.176C100.053 99.176 100.122 99.208 100.186 99.272C100.698 99.6667 101.152 99.944 101.546 100.104C101.941 100.253 102.373 100.328 102.842 100.328C103.429 100.328 103.909 100.2 104.282 99.944C104.656 99.6773 104.842 99.32 104.842 98.872C104.842 98.424 104.65 98.0933 104.266 97.88C103.882 97.6667 103.29 97.4747 102.49 97.304C101.786 97.1547 101.232 97 100.826 96.84C100.432 96.6693 100.138 96.456 99.9463 96.2C99.7543 95.944 99.6583 95.608 99.6583 95.192C99.6583 94.5093 99.9356 93.96 100.49 93.544C101.045 93.128 101.744 92.92 102.586 92.92C103.162 92.92 103.674 92.9947 104.122 93.144C104.581 93.2827 105.04 93.5173 105.498 93.848C105.594 93.9227 105.642 94.0027 105.642 94.088C105.642 94.1413 105.616 94.2107 105.562 94.296L105.37 94.536C105.317 94.6213 105.242 94.664 105.146 94.664C105.061 94.664 104.986 94.6373 104.922 94.584C104.485 94.2747 104.096 94.0667 103.754 93.96C103.424 93.8533 103.045 93.8 102.618 93.8C102.032 93.8 101.562 93.928 101.21 94.184C100.858 94.44 100.682 94.7653 100.682 95.16C100.682 95.4053 100.762 95.6027 100.922 95.752C101.082 95.9013 101.312 96.0293 101.61 96.136C101.909 96.232 102.346 96.344 102.922 96.472C103.989 96.7067 104.746 96.9947 105.194 97.336C105.653 97.6773 105.882 98.1733 105.882 98.824C105.882 99.5387 105.6 100.115 105.034 100.552C104.469 100.989 103.738 101.208 102.842 101.208ZM110.868 101.208C110.111 101.208 109.45 101.037 108.884 100.696C108.33 100.344 107.898 99.8587 107.588 99.24C107.29 98.6107 107.14 97.8853 107.14 97.064C107.14 96.2533 107.29 95.5333 107.588 94.904C107.898 94.2747 108.33 93.7893 108.884 93.448C109.45 93.096 110.1 92.92 110.836 92.92C111.434 92.92 111.956 93.0213 112.404 93.224C112.852 93.416 113.284 93.736 113.7 94.184C113.764 94.248 113.796 94.3173 113.796 94.392C113.796 94.488 113.754 94.568 113.668 94.632L113.444 94.84C113.38 94.904 113.306 94.936 113.22 94.936C113.146 94.936 113.066 94.8933 112.98 94.808C112.607 94.4347 112.25 94.1733 111.908 94.024C111.578 93.8747 111.21 93.8 110.804 93.8C110.25 93.8 109.775 93.9547 109.38 94.264C108.996 94.5733 108.708 94.9787 108.516 95.48C108.324 95.9707 108.228 96.4987 108.228 97.064C108.228 97.6293 108.324 98.1627 108.516 98.664C108.708 99.1547 109.002 99.5547 109.396 99.864C109.791 100.163 110.276 100.312 110.852 100.312C111.279 100.312 111.652 100.237 111.972 100.088C112.303 99.928 112.671 99.6293 113.076 99.192C113.162 99.1067 113.242 99.064 113.316 99.064C113.402 99.064 113.476 99.096 113.54 99.16L113.764 99.336C113.839 99.4 113.876 99.4747 113.876 99.56C113.876 99.6453 113.828 99.7467 113.732 99.864C113.284 100.355 112.836 100.701 112.388 100.904C111.94 101.107 111.434 101.208 110.868 101.208ZM118.534 93.048C118.801 93.048 119.116 93.0907 119.478 93.176C119.67 93.24 119.745 93.3733 119.702 93.576L119.638 93.832C119.585 94.0347 119.452 94.1093 119.238 94.056C118.982 93.992 118.748 93.96 118.534 93.96C117.99 93.96 117.537 94.1947 117.174 94.664C116.822 95.1333 116.646 95.784 116.646 96.616V100.68C116.646 100.893 116.54 101 116.326 101H115.91C115.697 101 115.59 100.893 115.59 100.68V93.432C115.59 93.2187 115.697 93.112 115.91 93.112H116.262C116.476 93.112 116.582 93.2187 116.582 93.432V94.312C116.764 93.9173 117.02 93.608 117.35 93.384C117.692 93.16 118.086 93.048 118.534 93.048ZM121.665 91.112C121.452 91.112 121.27 91.0373 121.121 90.888C120.982 90.7387 120.913 90.5573 120.913 90.344C120.913 90.1307 120.982 89.9547 121.121 89.816C121.27 89.6773 121.452 89.608 121.665 89.608C121.889 89.608 122.07 89.6773 122.209 89.816C122.358 89.9547 122.433 90.1307 122.433 90.344C122.433 90.5573 122.358 90.7387 122.209 90.888C122.07 91.0373 121.889 91.112 121.665 91.112ZM121.457 101C121.244 101 121.137 100.893 121.137 100.68V93.432C121.137 93.2187 121.244 93.112 121.457 93.112H121.873C122.086 93.112 122.193 93.2187 122.193 93.432V100.68C122.193 100.893 122.086 101 121.873 101H121.457ZM128.319 92.936C128.991 92.936 129.589 93.112 130.111 93.464C130.645 93.8053 131.055 94.2907 131.343 94.92C131.642 95.5387 131.791 96.2533 131.791 97.064C131.791 97.8747 131.642 98.5947 131.343 99.224C131.045 99.8427 130.629 100.328 130.095 100.68C129.573 101.021 128.981 101.192 128.319 101.192C127.05 101.192 126.122 100.701 125.535 99.72V100.68C125.535 100.893 125.429 101 125.215 101H124.863C124.65 101 124.543 100.893 124.543 100.68V89.944C124.543 89.7307 124.65 89.624 124.863 89.624H125.279C125.493 89.624 125.599 89.7307 125.599 89.944V94.36C126.186 93.4107 127.093 92.936 128.319 92.936ZM128.239 100.296C128.975 100.296 129.567 99.9973 130.015 99.4C130.474 98.8027 130.703 98.024 130.703 97.064C130.703 96.104 130.474 95.3253 130.015 94.728C129.567 94.1307 128.975 93.832 128.239 93.832C127.45 93.832 126.805 94.12 126.303 94.696C125.802 95.272 125.551 96.0613 125.551 97.064C125.551 98.0773 125.797 98.872 126.287 99.448C126.789 100.013 127.439 100.296 128.239 100.296ZM139.506 99.128C139.581 99.0533 139.661 99.016 139.746 99.016C139.821 99.016 139.89 99.048 139.954 99.112L140.162 99.304C140.237 99.3787 140.274 99.4587 140.274 99.544C140.274 99.608 140.242 99.6827 140.178 99.768C139.655 100.291 139.149 100.664 138.658 100.888C138.167 101.101 137.618 101.208 137.01 101.208C136.242 101.208 135.575 101.037 135.01 100.696C134.445 100.355 134.007 99.88 133.698 99.272C133.389 98.6533 133.234 97.9387 133.234 97.128C133.234 96.3067 133.383 95.5813 133.682 94.952C133.991 94.312 134.423 93.816 134.978 93.464C135.533 93.1013 136.173 92.92 136.898 92.92C137.975 92.92 138.823 93.256 139.442 93.928C140.061 94.6 140.37 95.5067 140.37 96.648V96.84C140.359 96.936 140.322 97.0107 140.258 97.064C140.205 97.1173 140.13 97.144 140.034 97.144H134.306C134.338 98.04 134.573 98.7973 135.01 99.416C135.458 100.024 136.125 100.328 137.01 100.328C137.49 100.328 137.911 100.243 138.274 100.072C138.647 99.8907 139.058 99.576 139.506 99.128ZM136.898 93.8C136.194 93.8 135.613 94.0187 135.154 94.456C134.706 94.8827 134.434 95.512 134.338 96.344H139.314C139.293 95.5653 139.069 94.9467 138.642 94.488C138.215 94.0293 137.634 93.8 136.898 93.8ZM149.502 100.12C149.534 100.109 149.576 100.104 149.63 100.104C149.694 100.104 149.752 100.125 149.806 100.168C149.859 100.211 149.891 100.269 149.902 100.344L149.95 100.568C149.96 100.589 149.966 100.627 149.966 100.68C149.966 100.829 149.886 100.92 149.726 100.952C149.342 101.069 148.931 101.128 148.494 101.128C147.8 101.128 147.304 100.973 147.006 100.664C146.718 100.344 146.574 99.8853 146.574 99.288V93.912H145.39C145.176 93.912 145.07 93.8053 145.07 93.592V93.432C145.07 93.2187 145.176 93.112 145.39 93.112H146.574V90.68C146.574 90.4667 146.68 90.36 146.894 90.36H147.31C147.523 90.36 147.63 90.4667 147.63 90.68V93.112H149.55C149.763 93.112 149.87 93.2187 149.87 93.432V93.592C149.87 93.8053 149.763 93.912 149.55 93.912H147.63V99.16C147.63 99.5547 147.704 99.832 147.854 99.992C148.003 100.152 148.259 100.232 148.622 100.232C148.878 100.232 149.171 100.195 149.502 100.12ZM155.001 92.92C155.918 92.92 156.617 93.1813 157.097 93.704C157.577 94.216 157.817 94.8507 157.817 95.608V100.68C157.817 100.893 157.71 101 157.497 101H157.081C156.868 101 156.761 100.893 156.761 100.68V95.96C156.761 95.256 156.59 94.7227 156.249 94.36C155.908 93.9973 155.417 93.816 154.777 93.816C154.372 93.816 153.998 93.9173 153.657 94.12C153.316 94.312 153.044 94.5787 152.841 94.92C152.638 95.2613 152.537 95.6347 152.537 96.04V100.68C152.537 100.893 152.43 101 152.217 101H151.801C151.588 101 151.481 100.893 151.481 100.68V89.96C151.481 89.7467 151.588 89.64 151.801 89.64H152.217C152.43 89.64 152.537 89.7467 152.537 89.96V94.136C152.793 93.7307 153.134 93.4267 153.561 93.224C153.998 93.0213 154.478 92.92 155.001 92.92ZM165.897 99.128C165.971 99.0533 166.051 99.016 166.137 99.016C166.211 99.016 166.281 99.048 166.345 99.112L166.553 99.304C166.627 99.3787 166.665 99.4587 166.665 99.544C166.665 99.608 166.633 99.6827 166.569 99.768C166.046 100.291 165.539 100.664 165.049 100.888C164.558 101.101 164.009 101.208 163.401 101.208C162.633 101.208 161.966 101.037 161.401 100.696C160.835 100.355 160.398 99.88 160.089 99.272C159.779 98.6533 159.625 97.9387 159.625 97.128C159.625 96.3067 159.774 95.5813 160.073 94.952C160.382 94.312 160.814 93.816 161.369 93.464C161.923 93.1013 162.563 92.92 163.289 92.92C164.366 92.92 165.214 93.256 165.833 93.928C166.451 94.6 166.761 95.5067 166.761 96.648V96.84C166.75 96.936 166.713 97.0107 166.649 97.064C166.595 97.1173 166.521 97.144 166.425 97.144H160.697C160.729 98.04 160.963 98.7973 161.401 99.416C161.849 100.024 162.515 100.328 163.401 100.328C163.881 100.328 164.302 100.243 164.665 100.072C165.038 99.8907 165.449 99.576 165.897 99.128ZM163.289 93.8C162.585 93.8 162.003 94.0187 161.545 94.456C161.097 94.8827 160.825 95.512 160.729 96.344H165.705C165.683 95.5653 165.459 94.9467 165.033 94.488C164.606 94.0293 164.025 93.8 163.289 93.8ZM180.356 92.92C181.21 92.92 181.86 93.1653 182.308 93.656C182.767 94.136 182.996 94.7547 182.996 95.512V100.68C182.996 100.893 182.89 101 182.676 101H182.26C182.047 101 181.94 100.893 181.94 100.68V95.8C181.94 95.16 181.791 94.6693 181.492 94.328C181.204 93.9867 180.772 93.816 180.196 93.816C179.588 93.816 179.103 94.0187 178.74 94.424C178.378 94.8293 178.196 95.352 178.196 95.992V100.68C178.196 100.893 178.09 101 177.876 101H177.46C177.247 101 177.14 100.893 177.14 100.68V95.8C177.14 95.16 176.991 94.6693 176.692 94.328C176.404 93.9867 175.967 93.816 175.38 93.816C174.836 93.816 174.383 93.9867 174.02 94.328C173.668 94.6693 173.46 95.1173 173.396 95.672V100.68C173.396 100.893 173.29 101 173.076 101H172.66C172.447 101 172.34 100.893 172.34 100.68V93.432C172.34 93.2187 172.447 93.112 172.66 93.112H173.012C173.226 93.112 173.332 93.2187 173.332 93.432V94.088C173.812 93.3093 174.575 92.92 175.62 92.92C176.164 92.92 176.628 93.0427 177.012 93.288C177.407 93.5227 177.7 93.8427 177.892 94.248C178.458 93.3627 179.279 92.92 180.356 92.92ZM188.365 92.92C189.335 92.92 190.093 93.1547 190.637 93.624C191.181 94.0827 191.453 94.6907 191.453 95.448V100.68C191.453 100.893 191.346 101 191.133 101H190.813C190.599 101 190.493 100.893 190.493 100.68V99.96C190.226 100.387 189.847 100.707 189.357 100.92C188.877 101.133 188.338 101.24 187.741 101.24C186.909 101.24 186.231 101.064 185.709 100.712C185.186 100.36 184.925 99.816 184.925 99.08C184.925 98.4933 185.09 98.024 185.421 97.672C185.751 97.3093 186.183 97.0373 186.717 96.856C187.25 96.664 187.917 96.4933 188.717 96.344L190.445 96.04V95.528C190.445 94.984 190.258 94.5627 189.885 94.264C189.511 93.9547 189.021 93.8 188.413 93.8C187.954 93.8 187.538 93.8853 187.165 94.056C186.791 94.2267 186.391 94.52 185.965 94.936C185.89 95.0107 185.81 95.048 185.725 95.048C185.65 95.048 185.581 95.016 185.517 94.952L185.309 94.76C185.234 94.6853 185.197 94.6053 185.197 94.52C185.197 94.424 185.234 94.3387 185.309 94.264C185.757 93.7947 186.226 93.4533 186.717 93.24C187.218 93.0267 187.767 92.92 188.365 92.92ZM187.789 100.36C188.557 100.36 189.191 100.157 189.693 99.752C190.194 99.3467 190.445 98.8293 190.445 98.2V96.856L188.957 97.144C188.263 97.2827 187.714 97.416 187.309 97.544C186.903 97.672 186.578 97.8587 186.333 98.104C186.087 98.3493 185.965 98.6693 185.965 99.064C185.965 99.4693 186.125 99.7893 186.445 100.024C186.775 100.248 187.223 100.36 187.789 100.36ZM196.737 93.048C197.004 93.048 197.319 93.0907 197.681 93.176C197.873 93.24 197.948 93.3733 197.905 93.576L197.841 93.832C197.788 94.0347 197.655 94.1093 197.441 94.056C197.185 93.992 196.951 93.96 196.737 93.96C196.193 93.96 195.74 94.1947 195.377 94.664C195.025 95.1333 194.849 95.784 194.849 96.616V100.68C194.849 100.893 194.743 101 194.529 101H194.113C193.9 101 193.793 100.893 193.793 100.68V93.432C193.793 93.2187 193.9 93.112 194.113 93.112H194.465C194.679 93.112 194.785 93.2187 194.785 93.432V94.312C194.967 93.9173 195.223 93.608 195.553 93.384C195.895 93.16 196.289 93.048 196.737 93.048ZM205.036 101C204.876 101 204.748 100.931 204.652 100.792L201.948 96.856L200.396 98.44V100.68C200.396 100.893 200.29 101 200.076 101H199.66C199.447 101 199.34 100.893 199.34 100.68V89.96C199.34 89.7467 199.447 89.64 199.66 89.64H200.076C200.29 89.64 200.396 89.7467 200.396 89.96V97.24L204.236 93.256C204.332 93.1493 204.466 93.096 204.636 93.096H205.084C205.17 93.096 205.234 93.1173 205.276 93.16C205.33 93.192 205.356 93.2347 205.356 93.288C205.356 93.3413 205.324 93.4107 205.26 93.496L202.684 96.184L205.708 100.616C205.751 100.691 205.772 100.755 205.772 100.808C205.772 100.936 205.687 101 205.516 101H205.036ZM212.912 99.128C212.987 99.0533 213.067 99.016 213.152 99.016C213.227 99.016 213.296 99.048 213.36 99.112L213.568 99.304C213.643 99.3787 213.68 99.4587 213.68 99.544C213.68 99.608 213.648 99.6827 213.584 99.768C213.062 100.291 212.555 100.664 212.064 100.888C211.574 101.101 211.024 101.208 210.416 101.208C209.648 101.208 208.982 101.037 208.416 100.696C207.851 100.355 207.414 99.88 207.104 99.272C206.795 98.6533 206.64 97.9387 206.64 97.128C206.64 96.3067 206.79 95.5813 207.088 94.952C207.398 94.312 207.83 93.816 208.384 93.464C208.939 93.1013 209.579 92.92 210.304 92.92C211.382 92.92 212.23 93.256 212.848 93.928C213.467 94.6 213.776 95.5067 213.776 96.648V96.84C213.766 96.936 213.728 97.0107 213.664 97.064C213.611 97.1173 213.536 97.144 213.44 97.144H207.712C207.744 98.04 207.979 98.7973 208.416 99.416C208.864 100.024 209.531 100.328 210.416 100.328C210.896 100.328 211.318 100.243 211.68 100.072C212.054 99.8907 212.464 99.576 212.912 99.128ZM210.304 93.8C209.6 93.8 209.019 94.0187 208.56 94.456C208.112 94.8827 207.84 95.512 207.744 96.344H212.72C212.699 95.5653 212.475 94.9467 212.048 94.488C211.622 94.0293 211.04 93.8 210.304 93.8ZM219.142 100.12C219.174 100.109 219.217 100.104 219.27 100.104C219.334 100.104 219.393 100.125 219.446 100.168C219.5 100.211 219.532 100.269 219.542 100.344L219.59 100.568C219.601 100.589 219.606 100.627 219.606 100.68C219.606 100.829 219.526 100.92 219.366 100.952C218.982 101.069 218.572 101.128 218.134 101.128C217.441 101.128 216.945 100.973 216.646 100.664C216.358 100.344 216.214 99.8853 216.214 99.288V93.912H215.03C214.817 93.912 214.71 93.8053 214.71 93.592V93.432C214.71 93.2187 214.817 93.112 215.03 93.112H216.214V90.68C216.214 90.4667 216.321 90.36 216.534 90.36H216.95C217.164 90.36 217.27 90.4667 217.27 90.68V93.112H219.19C219.404 93.112 219.51 93.2187 219.51 93.432V93.592C219.51 93.8053 219.404 93.912 219.19 93.912H217.27V99.16C217.27 99.5547 217.345 99.832 217.494 99.992C217.644 100.152 217.9 100.232 218.262 100.232C218.518 100.232 218.812 100.195 219.142 100.12ZM223.983 101.208C223.332 101.208 222.756 101.117 222.255 100.936C221.764 100.744 221.247 100.424 220.703 99.976C220.607 99.912 220.559 99.8373 220.559 99.752C220.559 99.6773 220.596 99.6027 220.671 99.528L220.879 99.304C220.943 99.2187 221.023 99.176 221.119 99.176C221.194 99.176 221.263 99.208 221.327 99.272C221.839 99.6667 222.292 99.944 222.687 100.104C223.082 100.253 223.514 100.328 223.983 100.328C224.57 100.328 225.05 100.2 225.423 99.944C225.796 99.6773 225.983 99.32 225.983 98.872C225.983 98.424 225.791 98.0933 225.407 97.88C225.023 97.6667 224.431 97.4747 223.631 97.304C222.927 97.1547 222.372 97 221.967 96.84C221.572 96.6693 221.279 96.456 221.087 96.2C220.895 95.944 220.799 95.608 220.799 95.192C220.799 94.5093 221.076 93.96 221.631 93.544C222.186 93.128 222.884 92.92 223.727 92.92C224.303 92.92 224.815 92.9947 225.263 93.144C225.722 93.2827 226.18 93.5173 226.639 93.848C226.735 93.9227 226.783 94.0027 226.783 94.088C226.783 94.1413 226.756 94.2107 226.703 94.296L226.511 94.536C226.458 94.6213 226.383 94.664 226.287 94.664C226.202 94.664 226.127 94.6373 226.063 94.584C225.626 94.2747 225.236 94.0667 224.895 93.96C224.564 93.8533 224.186 93.8 223.759 93.8C223.172 93.8 222.703 93.928 222.351 94.184C221.999 94.44 221.823 94.7653 221.823 95.16C221.823 95.4053 221.903 95.6027 222.063 95.752C222.223 95.9013 222.452 96.0293 222.751 96.136C223.05 96.232 223.487 96.344 224.063 96.472C225.13 96.7067 225.887 96.9947 226.335 97.336C226.794 97.6773 227.023 98.1733 227.023 98.824C227.023 99.5387 226.74 100.115 226.175 100.552C225.61 100.989 224.879 101.208 223.983 101.208ZM237.236 93.368C237.3 93.1973 237.423 93.112 237.604 93.112H238.036C238.122 93.112 238.191 93.1333 238.244 93.176C238.298 93.2187 238.324 93.2773 238.324 93.352L238.292 93.48L235.204 102.2C235.034 102.68 234.868 103.053 234.708 103.32C234.548 103.587 234.33 103.789 234.052 103.928C233.786 104.067 233.434 104.136 232.996 104.136C232.719 104.136 232.474 104.115 232.26 104.072C232.154 104.061 232.079 104.019 232.036 103.944C232.004 103.869 231.999 103.784 232.02 103.688L232.068 103.48C232.111 103.288 232.234 103.203 232.436 103.224C232.628 103.256 232.794 103.272 232.932 103.272C233.274 103.272 233.54 103.176 233.732 102.984C233.935 102.792 234.127 102.429 234.308 101.896L234.452 101.448L231.636 93.48L231.604 93.352C231.604 93.2773 231.631 93.2187 231.684 93.176C231.738 93.1333 231.807 93.112 231.892 93.112H232.356C232.527 93.112 232.644 93.1973 232.708 93.368L233.604 96.008C233.69 96.2747 233.903 96.9093 234.244 97.912L234.964 100.072C235.316 99.08 235.78 97.7147 236.356 95.976L237.236 93.368ZM243.057 101.208C242.321 101.208 241.665 101.032 241.089 100.68C240.513 100.328 240.065 99.8427 239.745 99.224C239.425 98.5947 239.265 97.8747 239.265 97.064C239.265 96.2533 239.425 95.5387 239.745 94.92C240.065 94.2907 240.513 93.8 241.089 93.448C241.665 93.096 242.321 92.92 243.057 92.92C243.793 92.92 244.449 93.096 245.025 93.448C245.601 93.8 246.049 94.2907 246.369 94.92C246.689 95.5387 246.849 96.2533 246.849 97.064C246.849 97.8747 246.689 98.5947 246.369 99.224C246.049 99.8427 245.601 100.328 245.025 100.68C244.449 101.032 243.793 101.208 243.057 101.208ZM243.057 100.328C243.879 100.328 244.535 100.029 245.025 99.432C245.516 98.824 245.761 98.0347 245.761 97.064C245.761 96.0933 245.516 95.3093 245.025 94.712C244.535 94.104 243.879 93.8 243.057 93.8C242.236 93.8 241.58 94.104 241.089 94.712C240.599 95.3093 240.353 96.0933 240.353 97.064C240.353 98.0347 240.599 98.824 241.089 99.432C241.58 100.029 242.236 100.328 243.057 100.328ZM253.804 93.432C253.804 93.2187 253.911 93.112 254.124 93.112H254.54C254.753 93.112 254.86 93.2187 254.86 93.432V100.68C254.86 100.893 254.753 101 254.54 101H254.204C253.991 101 253.884 100.893 253.884 100.68V99.96C253.649 100.376 253.313 100.691 252.876 100.904C252.449 101.107 251.98 101.208 251.468 101.208C250.508 101.208 249.799 100.968 249.34 100.488C248.881 99.9973 248.652 99.368 248.652 98.6V93.432C248.652 93.2187 248.759 93.112 248.972 93.112H249.388C249.601 93.112 249.708 93.2187 249.708 93.432V98.376C249.708 99.0053 249.863 99.4853 250.172 99.816C250.492 100.136 250.945 100.296 251.532 100.296C252.193 100.296 252.737 100.093 253.164 99.688C253.591 99.2827 253.804 98.7067 253.804 97.96V93.432ZM88.984 115.384C89.0267 115.203 89.1493 115.112 89.352 115.112H89.784C89.9013 115.112 89.9813 115.144 90.024 115.208C90.0773 115.272 90.088 115.357 90.056 115.464L87.992 122.728C87.9493 122.909 87.8267 123 87.624 123H86.904C86.7227 123 86.6053 122.909 86.552 122.728L85.816 120.28C85.432 119 85.0747 117.688 84.744 116.344C84.424 117.645 84.072 118.968 83.688 120.312L82.984 122.728C82.9413 122.909 82.8187 123 82.616 123H81.928C81.7253 123 81.6027 122.909 81.56 122.728L79.496 115.464C79.4853 115.443 79.48 115.405 79.48 115.352C79.48 115.277 79.5067 115.219 79.56 115.176C79.6133 115.133 79.6827 115.112 79.768 115.112H80.2C80.4027 115.112 80.5253 115.203 80.568 115.384L81.336 118.216C81.688 119.507 82.0133 120.792 82.312 122.072C82.5467 121.123 82.8933 119.837 83.352 118.216L84.168 115.384C84.2107 115.203 84.3333 115.112 84.536 115.112H85.016C85.208 115.112 85.3253 115.203 85.368 115.384L86.2 118.216C86.5627 119.528 86.904 120.819 87.224 122.088C87.4693 121.021 87.8 119.731 88.216 118.216L88.984 115.384ZM94.8699 123.208C94.1339 123.208 93.4779 123.032 92.9019 122.68C92.3259 122.328 91.8779 121.843 91.5579 121.224C91.2379 120.595 91.0779 119.875 91.0779 119.064C91.0779 118.253 91.2379 117.539 91.5579 116.92C91.8779 116.291 92.3259 115.8 92.9019 115.448C93.4779 115.096 94.1339 114.92 94.8699 114.92C95.6059 114.92 96.2619 115.096 96.8379 115.448C97.4139 115.8 97.8619 116.291 98.1819 116.92C98.5019 117.539 98.6619 118.253 98.6619 119.064C98.6619 119.875 98.5019 120.595 98.1819 121.224C97.8619 121.843 97.4139 122.328 96.8379 122.68C96.2619 123.032 95.6059 123.208 94.8699 123.208ZM94.8699 122.328C95.6912 122.328 96.3472 122.029 96.8379 121.432C97.3285 120.824 97.5739 120.035 97.5739 119.064C97.5739 118.093 97.3285 117.309 96.8379 116.712C96.3472 116.104 95.6912 115.8 94.8699 115.8C94.0485 115.8 93.3925 116.104 92.9019 116.712C92.4112 117.309 92.1659 118.093 92.1659 119.064C92.1659 120.035 92.4112 120.824 92.9019 121.432C93.3925 122.029 94.0485 122.328 94.8699 122.328ZM105.617 115.432C105.617 115.219 105.723 115.112 105.937 115.112H106.353C106.566 115.112 106.673 115.219 106.673 115.432V122.68C106.673 122.893 106.566 123 106.353 123H106.017C105.803 123 105.697 122.893 105.697 122.68V121.96C105.462 122.376 105.126 122.691 104.689 122.904C104.262 123.107 103.793 123.208 103.281 123.208C102.321 123.208 101.611 122.968 101.153 122.488C100.694 121.997 100.465 121.368 100.465 120.6V115.432C100.465 115.219 100.571 115.112 100.785 115.112H101.201C101.414 115.112 101.521 115.219 101.521 115.432V120.376C101.521 121.005 101.675 121.485 101.985 121.816C102.305 122.136 102.758 122.296 103.345 122.296C104.006 122.296 104.55 122.093 104.977 121.688C105.403 121.283 105.617 120.707 105.617 119.96V115.432ZM109.379 123C109.166 123 109.059 122.893 109.059 122.68V111.96C109.059 111.747 109.166 111.64 109.379 111.64H109.795C110.009 111.64 110.115 111.747 110.115 111.96V122.68C110.115 122.893 110.009 123 109.795 123H109.379ZM118.193 111.96C118.193 111.747 118.299 111.64 118.513 111.64H118.929C119.142 111.64 119.249 111.747 119.249 111.96V122.68C119.249 122.893 119.142 123 118.929 123H118.593C118.379 123 118.273 122.893 118.273 122.68V121.64C117.985 122.141 117.606 122.525 117.137 122.792C116.667 123.059 116.113 123.192 115.473 123.192C114.801 123.192 114.203 123.021 113.681 122.68C113.158 122.328 112.747 121.843 112.449 121.224C112.15 120.595 112.001 119.875 112.001 119.064C112.001 118.253 112.15 117.539 112.449 116.92C112.758 116.291 113.179 115.805 113.713 115.464C114.246 115.112 114.843 114.936 115.505 114.936C116.721 114.936 117.617 115.389 118.193 116.296V111.96ZM115.553 122.296C116.353 122.296 116.998 122.013 117.489 121.448C117.99 120.872 118.241 120.077 118.241 119.064C118.241 118.061 117.99 117.272 117.489 116.696C116.998 116.12 116.353 115.832 115.553 115.832C114.817 115.832 114.219 116.131 113.761 116.728C113.313 117.325 113.089 118.104 113.089 119.064C113.089 120.035 113.313 120.819 113.761 121.416C114.209 122.003 114.806 122.296 115.553 122.296ZM125.645 123C125.432 123 125.325 122.893 125.325 122.68V111.96C125.325 111.747 125.432 111.64 125.645 111.64H126.061C126.274 111.64 126.381 111.747 126.381 111.96V122.68C126.381 122.893 126.274 123 126.061 123H125.645ZM129.29 113.112C129.077 113.112 128.895 113.037 128.746 112.888C128.607 112.739 128.538 112.557 128.538 112.344C128.538 112.131 128.607 111.955 128.746 111.816C128.895 111.677 129.077 111.608 129.29 111.608C129.514 111.608 129.695 111.677 129.834 111.816C129.983 111.955 130.058 112.131 130.058 112.344C130.058 112.557 129.983 112.739 129.834 112.888C129.695 113.037 129.514 113.112 129.29 113.112ZM129.082 123C128.869 123 128.762 122.893 128.762 122.68V115.432C128.762 115.219 128.869 115.112 129.082 115.112H129.498C129.711 115.112 129.818 115.219 129.818 115.432V122.68C129.818 122.893 129.711 123 129.498 123H129.082ZM137.864 123C137.704 123 137.576 122.931 137.48 122.792L134.776 118.856L133.224 120.44V122.68C133.224 122.893 133.118 123 132.904 123H132.488C132.275 123 132.168 122.893 132.168 122.68V111.96C132.168 111.747 132.275 111.64 132.488 111.64H132.904C133.118 111.64 133.224 111.747 133.224 111.96V119.24L137.064 115.256C137.16 115.149 137.294 115.096 137.464 115.096H137.912C137.998 115.096 138.062 115.117 138.104 115.16C138.158 115.192 138.184 115.235 138.184 115.288C138.184 115.341 138.152 115.411 138.088 115.496L135.512 118.184L138.536 122.616C138.579 122.691 138.6 122.755 138.6 122.808C138.6 122.936 138.515 123 138.344 123H137.864ZM145.741 121.128C145.815 121.053 145.895 121.016 145.981 121.016C146.055 121.016 146.125 121.048 146.189 121.112L146.397 121.304C146.471 121.379 146.509 121.459 146.509 121.544C146.509 121.608 146.477 121.683 146.413 121.768C145.89 122.291 145.383 122.664 144.893 122.888C144.402 123.101 143.853 123.208 143.245 123.208C142.477 123.208 141.81 123.037 141.245 122.696C140.679 122.355 140.242 121.88 139.933 121.272C139.623 120.653 139.469 119.939 139.469 119.128C139.469 118.307 139.618 117.581 139.917 116.952C140.226 116.312 140.658 115.816 141.213 115.464C141.767 115.101 142.407 114.92 143.133 114.92C144.21 114.92 145.058 115.256 145.677 115.928C146.295 116.6 146.605 117.507 146.605 118.648V118.84C146.594 118.936 146.557 119.011 146.493 119.064C146.439 119.117 146.365 119.144 146.269 119.144H140.541C140.573 120.04 140.807 120.797 141.245 121.416C141.693 122.024 142.359 122.328 143.245 122.328C143.725 122.328 144.146 122.243 144.509 122.072C144.882 121.891 145.293 121.576 145.741 121.128ZM143.133 115.8C142.429 115.8 141.847 116.019 141.389 116.456C140.941 116.883 140.669 117.512 140.573 118.344H145.549C145.527 117.565 145.303 116.947 144.877 116.488C144.45 116.029 143.869 115.8 143.133 115.8ZM155.736 122.12C155.768 122.109 155.811 122.104 155.864 122.104C155.928 122.104 155.987 122.125 156.04 122.168C156.093 122.211 156.125 122.269 156.136 122.344L156.184 122.568C156.195 122.589 156.2 122.627 156.2 122.68C156.2 122.829 156.12 122.92 155.96 122.952C155.576 123.069 155.165 123.128 154.728 123.128C154.035 123.128 153.539 122.973 153.24 122.664C152.952 122.344 152.808 121.885 152.808 121.288V115.912H151.624C151.411 115.912 151.304 115.805 151.304 115.592V115.432C151.304 115.219 151.411 115.112 151.624 115.112H152.808V112.68C152.808 112.467 152.915 112.36 153.128 112.36H153.544C153.757 112.36 153.864 112.467 153.864 112.68V115.112H155.784C155.997 115.112 156.104 115.219 156.104 115.432V115.592C156.104 115.805 155.997 115.912 155.784 115.912H153.864V121.16C153.864 121.555 153.939 121.832 154.088 121.992C154.237 122.152 154.493 122.232 154.856 122.232C155.112 122.232 155.405 122.195 155.736 122.12ZM160.682 123.208C159.946 123.208 159.29 123.032 158.714 122.68C158.138 122.328 157.69 121.843 157.37 121.224C157.05 120.595 156.89 119.875 156.89 119.064C156.89 118.253 157.05 117.539 157.37 116.92C157.69 116.291 158.138 115.8 158.714 115.448C159.29 115.096 159.946 114.92 160.682 114.92C161.418 114.92 162.074 115.096 162.65 115.448C163.226 115.8 163.674 116.291 163.994 116.92C164.314 117.539 164.474 118.253 164.474 119.064C164.474 119.875 164.314 120.595 163.994 121.224C163.674 121.843 163.226 122.328 162.65 122.68C162.074 123.032 161.418 123.208 160.682 123.208ZM160.682 122.328C161.504 122.328 162.16 122.029 162.65 121.432C163.141 120.824 163.386 120.035 163.386 119.064C163.386 118.093 163.141 117.309 162.65 116.712C162.16 116.104 161.504 115.8 160.682 115.8C159.861 115.8 159.205 116.104 158.714 116.712C158.224 117.309 157.978 118.093 157.978 119.064C157.978 120.035 158.224 120.824 158.714 121.432C159.205 122.029 159.861 122.328 160.682 122.328ZM175.741 121.128C175.815 121.053 175.895 121.016 175.981 121.016C176.055 121.016 176.125 121.048 176.189 121.112L176.397 121.304C176.471 121.379 176.509 121.459 176.509 121.544C176.509 121.608 176.477 121.683 176.413 121.768C175.89 122.291 175.383 122.664 174.893 122.888C174.402 123.101 173.853 123.208 173.245 123.208C172.477 123.208 171.81 123.037 171.245 122.696C170.679 122.355 170.242 121.88 169.933 121.272C169.623 120.653 169.469 119.939 169.469 119.128C169.469 118.307 169.618 117.581 169.917 116.952C170.226 116.312 170.658 115.816 171.213 115.464C171.767 115.101 172.407 114.92 173.133 114.92C174.21 114.92 175.058 115.256 175.677 115.928C176.295 116.6 176.605 117.507 176.605 118.648V118.84C176.594 118.936 176.557 119.011 176.493 119.064C176.439 119.117 176.365 119.144 176.269 119.144H170.541C170.573 120.04 170.807 120.797 171.245 121.416C171.693 122.024 172.359 122.328 173.245 122.328C173.725 122.328 174.146 122.243 174.509 122.072C174.882 121.891 175.293 121.576 175.741 121.128ZM173.133 115.8C172.429 115.8 171.847 116.019 171.389 116.456C170.941 116.883 170.669 117.512 170.573 118.344H175.549C175.527 117.565 175.303 116.947 174.877 116.488C174.45 116.029 173.869 115.8 173.133 115.8ZM184.085 122.616C184.128 122.691 184.149 122.755 184.149 122.808C184.149 122.936 184.064 123 183.893 123H183.413C183.253 123 183.125 122.931 183.029 122.792L180.853 119.592L178.693 122.792C178.597 122.931 178.469 123 178.309 123H177.861C177.776 123 177.707 122.984 177.653 122.952C177.611 122.909 177.589 122.861 177.589 122.808C177.589 122.733 177.611 122.669 177.653 122.616L180.245 118.888L177.861 115.496C177.819 115.443 177.797 115.384 177.797 115.32C177.797 115.181 177.888 115.112 178.069 115.112H178.533C178.693 115.112 178.821 115.181 178.917 115.32L180.869 118.184L182.805 115.32C182.901 115.181 183.029 115.112 183.189 115.112H183.621C183.707 115.112 183.771 115.133 183.813 115.176C183.867 115.208 183.893 115.251 183.893 115.304C183.893 115.379 183.872 115.443 183.829 115.496L181.493 118.84L184.085 122.616ZM189.554 114.936C190.215 114.936 190.807 115.112 191.33 115.464C191.863 115.805 192.279 116.291 192.578 116.92C192.876 117.539 193.026 118.248 193.026 119.048C193.026 119.859 192.876 120.579 192.578 121.208C192.279 121.837 191.868 122.328 191.346 122.68C190.823 123.021 190.226 123.192 189.554 123.192C188.316 123.192 187.41 122.739 186.834 121.832V125.624C186.834 125.837 186.727 125.944 186.514 125.944H186.098C185.884 125.944 185.778 125.837 185.778 125.624V115.432C185.778 115.219 185.884 115.112 186.098 115.112H186.45C186.663 115.112 186.77 115.219 186.77 115.432V116.44C187.058 115.949 187.436 115.576 187.906 115.32C188.375 115.064 188.924 114.936 189.554 114.936ZM189.474 122.296C190.22 122.296 190.818 121.997 191.266 121.4C191.714 120.803 191.938 120.019 191.938 119.048C191.938 118.088 191.714 117.315 191.266 116.728C190.818 116.131 190.22 115.832 189.474 115.832C188.674 115.832 188.023 116.12 187.522 116.696C187.031 117.261 186.786 118.045 186.786 119.048C186.786 120.051 187.036 120.845 187.538 121.432C188.039 122.008 188.684 122.296 189.474 122.296ZM195.239 123C195.025 123 194.919 122.893 194.919 122.68V111.96C194.919 111.747 195.025 111.64 195.239 111.64H195.655C195.868 111.64 195.975 111.747 195.975 111.96V122.68C195.975 122.893 195.868 123 195.655 123H195.239ZM201.62 123.208C200.884 123.208 200.228 123.032 199.652 122.68C199.076 122.328 198.628 121.843 198.308 121.224C197.988 120.595 197.828 119.875 197.828 119.064C197.828 118.253 197.988 117.539 198.308 116.92C198.628 116.291 199.076 115.8 199.652 115.448C200.228 115.096 200.884 114.92 201.62 114.92C202.356 114.92 203.012 115.096 203.588 115.448C204.164 115.8 204.612 116.291 204.932 116.92C205.252 117.539 205.412 118.253 205.412 119.064C205.412 119.875 205.252 120.595 204.932 121.224C204.612 121.843 204.164 122.328 203.588 122.68C203.012 123.032 202.356 123.208 201.62 123.208ZM201.62 122.328C202.441 122.328 203.097 122.029 203.588 121.432C204.079 120.824 204.324 120.035 204.324 119.064C204.324 118.093 204.079 117.309 203.588 116.712C203.097 116.104 202.441 115.8 201.62 115.8C200.799 115.8 200.143 116.104 199.652 116.712C199.161 117.309 198.916 118.093 198.916 119.064C198.916 120.035 199.161 120.824 199.652 121.432C200.143 122.029 200.799 122.328 201.62 122.328ZM210.191 115.048C210.457 115.048 210.772 115.091 211.135 115.176C211.327 115.24 211.401 115.373 211.359 115.576L211.295 115.832C211.241 116.035 211.108 116.109 210.895 116.056C210.639 115.992 210.404 115.96 210.191 115.96C209.647 115.96 209.193 116.195 208.831 116.664C208.479 117.133 208.303 117.784 208.303 118.616V122.68C208.303 122.893 208.196 123 207.983 123H207.567C207.353 123 207.247 122.893 207.247 122.68V115.432C207.247 115.219 207.353 115.112 207.567 115.112H207.919C208.132 115.112 208.239 115.219 208.239 115.432V116.312C208.42 115.917 208.676 115.608 209.007 115.384C209.348 115.16 209.743 115.048 210.191 115.048ZM218.1 121.128C218.175 121.053 218.255 121.016 218.34 121.016C218.415 121.016 218.484 121.048 218.548 121.112L218.756 121.304C218.831 121.379 218.868 121.459 218.868 121.544C218.868 121.608 218.836 121.683 218.772 121.768C218.249 122.291 217.743 122.664 217.252 122.888C216.761 123.101 216.212 123.208 215.604 123.208C214.836 123.208 214.169 123.037 213.604 122.696C213.039 122.355 212.601 121.88 212.292 121.272C211.983 120.653 211.828 119.939 211.828 119.128C211.828 118.307 211.977 117.581 212.276 116.952C212.585 116.312 213.017 115.816 213.572 115.464C214.127 115.101 214.767 114.92 215.492 114.92C216.569 114.92 217.417 115.256 218.036 115.928C218.655 116.6 218.964 117.507 218.964 118.648V118.84C218.953 118.936 218.916 119.011 218.852 119.064C218.799 119.117 218.724 119.144 218.628 119.144H212.9C212.932 120.04 213.167 120.797 213.604 121.416C214.052 122.024 214.719 122.328 215.604 122.328C216.084 122.328 216.505 122.243 216.868 122.072C217.241 121.891 217.652 121.576 218.1 121.128ZM215.492 115.8C214.788 115.8 214.207 116.019 213.748 116.456C213.3 116.883 213.028 117.512 212.932 118.344H217.908C217.887 117.565 217.663 116.947 217.236 116.488C216.809 116.029 216.228 115.8 215.492 115.8ZM228.095 122.12C228.127 122.109 228.17 122.104 228.223 122.104C228.287 122.104 228.346 122.125 228.399 122.168C228.453 122.211 228.485 122.269 228.495 122.344L228.543 122.568C228.554 122.589 228.559 122.627 228.559 122.68C228.559 122.829 228.479 122.92 228.319 122.952C227.935 123.069 227.525 123.128 227.087 123.128C226.394 123.128 225.898 122.973 225.599 122.664C225.311 122.344 225.167 121.885 225.167 121.288V115.912H223.983C223.77 115.912 223.663 115.805 223.663 115.592V115.432C223.663 115.219 223.77 115.112 223.983 115.112H225.167V112.68C225.167 112.467 225.274 112.36 225.487 112.36H225.903C226.117 112.36 226.223 112.467 226.223 112.68V115.112H228.143C228.357 115.112 228.463 115.219 228.463 115.432V115.592C228.463 115.805 228.357 115.912 228.143 115.912H226.223V121.16C226.223 121.555 226.298 121.832 226.447 121.992C226.597 122.152 226.853 122.232 227.215 122.232C227.471 122.232 227.765 122.195 228.095 122.12ZM233.019 115.048C233.285 115.048 233.6 115.091 233.963 115.176C234.155 115.24 234.229 115.373 234.187 115.576L234.123 115.832C234.069 116.035 233.936 116.109 233.723 116.056C233.467 115.992 233.232 115.96 233.019 115.96C232.475 115.96 232.021 116.195 231.659 116.664C231.307 117.133 231.131 117.784 231.131 118.616V122.68C231.131 122.893 231.024 123 230.811 123H230.395C230.181 123 230.075 122.893 230.075 122.68V115.432C230.075 115.219 230.181 115.112 230.395 115.112H230.747C230.96 115.112 231.067 115.219 231.067 115.432V116.312C231.248 115.917 231.504 115.608 231.835 115.384C232.176 115.16 232.571 115.048 233.019 115.048ZM238.448 123.208C237.712 123.208 237.056 123.032 236.48 122.68C235.904 122.328 235.456 121.843 235.136 121.224C234.816 120.595 234.656 119.875 234.656 119.064C234.656 118.253 234.816 117.539 235.136 116.92C235.456 116.291 235.904 115.8 236.48 115.448C237.056 115.096 237.712 114.92 238.448 114.92C239.184 114.92 239.84 115.096 240.416 115.448C240.992 115.8 241.44 116.291 241.76 116.92C242.08 117.539 242.24 118.253 242.24 119.064C242.24 119.875 242.08 120.595 241.76 121.224C241.44 121.843 240.992 122.328 240.416 122.68C239.84 123.032 239.184 123.208 238.448 123.208ZM238.448 122.328C239.269 122.328 239.925 122.029 240.416 121.432C240.907 120.824 241.152 120.035 241.152 119.064C241.152 118.093 240.907 117.309 240.416 116.712C239.925 116.104 239.269 115.8 238.448 115.8C237.627 115.8 236.971 116.104 236.48 116.712C235.989 117.309 235.744 118.093 235.744 119.064C235.744 120.035 235.989 120.824 236.48 121.432C236.971 122.029 237.627 122.328 238.448 122.328ZM249.195 115.432C249.195 115.219 249.301 115.112 249.515 115.112H249.931C250.144 115.112 250.251 115.219 250.251 115.432V122.68C250.251 122.893 250.144 123 249.931 123H249.595C249.381 123 249.275 122.893 249.275 122.68V121.96C249.04 122.376 248.704 122.691 248.267 122.904C247.84 123.107 247.371 123.208 246.859 123.208C245.899 123.208 245.189 122.968 244.731 122.488C244.272 121.997 244.043 121.368 244.043 120.6V115.432C244.043 115.219 244.149 115.112 244.363 115.112H244.779C244.992 115.112 245.099 115.219 245.099 115.432V120.376C245.099 121.005 245.253 121.485 245.563 121.816C245.883 122.136 246.336 122.296 246.923 122.296C247.584 122.296 248.128 122.093 248.555 121.688C248.981 121.283 249.195 120.707 249.195 119.96V115.432ZM258.286 115.432C258.286 115.219 258.392 115.112 258.606 115.112H258.942C259.155 115.112 259.262 115.219 259.262 115.432V122.92C259.262 123.912 258.963 124.691 258.366 125.256C257.768 125.832 256.931 126.12 255.854 126.12C254.691 126.12 253.619 125.789 252.638 125.128C252.531 125.064 252.478 124.984 252.478 124.888C252.478 124.813 252.499 124.749 252.542 124.696L252.734 124.424C252.798 124.317 252.883 124.264 252.99 124.264C253.032 124.264 253.096 124.285 253.182 124.328C253.651 124.627 254.088 124.851 254.494 125C254.91 125.149 255.363 125.224 255.854 125.224C256.558 125.224 257.128 125.027 257.566 124.632C258.003 124.248 258.222 123.651 258.222 122.84V121.56C257.646 122.488 256.771 122.952 255.598 122.952C254.915 122.952 254.312 122.781 253.789 122.44C253.267 122.088 252.862 121.608 252.574 121C252.296 120.392 252.158 119.704 252.158 118.936C252.158 118.168 252.296 117.48 252.574 116.872C252.862 116.264 253.267 115.789 253.789 115.448C254.312 115.096 254.915 114.92 255.598 114.92C256.216 114.92 256.75 115.053 257.198 115.32C257.656 115.576 258.019 115.944 258.286 116.424V115.432ZM255.71 122.056C256.478 122.056 257.091 121.768 257.55 121.192C258.008 120.605 258.238 119.853 258.238 118.936C258.238 118.019 258.008 117.272 257.55 116.696C257.091 116.109 256.478 115.816 255.71 115.816C254.931 115.816 254.323 116.104 253.886 116.68C253.459 117.256 253.246 118.008 253.246 118.936C253.246 119.864 253.459 120.616 253.886 121.192C254.323 121.768 254.931 122.056 255.71 122.056ZM265.157 114.92C266.074 114.92 266.773 115.181 267.253 115.704C267.733 116.216 267.973 116.851 267.973 117.608V122.68C267.973 122.893 267.866 123 267.653 123H267.237C267.024 123 266.917 122.893 266.917 122.68V117.96C266.917 117.256 266.746 116.723 266.405 116.36C266.064 115.997 265.573 115.816 264.933 115.816C264.528 115.816 264.154 115.917 263.813 116.12C263.472 116.312 263.2 116.579 262.997 116.92C262.794 117.261 262.693 117.635 262.693 118.04V122.68C262.693 122.893 262.586 123 262.373 123H261.957C261.744 123 261.637 122.893 261.637 122.68V111.96C261.637 111.747 261.744 111.64 261.957 111.64H262.373C262.586 111.64 262.693 111.747 262.693 111.96V116.136C262.949 115.731 263.29 115.427 263.717 115.224C264.154 115.021 264.634 114.92 265.157 114.92ZM80.696 145C80.4827 145 80.376 144.893 80.376 144.68V133.96C80.376 133.747 80.4827 133.64 80.696 133.64H87.416C87.6293 133.64 87.736 133.747 87.736 133.96V134.264C87.736 134.477 87.6293 134.584 87.416 134.584H81.512V138.904H86.92C87.1333 138.904 87.24 139.011 87.24 139.224V139.528C87.24 139.741 87.1333 139.848 86.92 139.848H81.512V144.68C81.512 144.893 81.4053 145 81.192 145H80.696ZM90.1986 145C89.9853 145 89.8786 144.893 89.8786 144.68V133.96C89.8786 133.747 89.9853 133.64 90.1986 133.64H90.6946C90.908 133.64 91.0146 133.747 91.0146 133.96V144.68C91.0146 144.893 90.908 145 90.6946 145H90.1986ZM101.636 133.96C101.636 133.747 101.743 133.64 101.956 133.64H102.42C102.633 133.64 102.74 133.747 102.74 133.96V144.68C102.74 144.893 102.633 145 102.42 145H101.7C101.529 145 101.396 144.931 101.3 144.792L97.86 139.576L97.668 139.272C96.388 137.352 95.4707 135.939 94.916 135.032C94.9587 136.28 94.98 137.72 94.98 139.352V144.68C94.98 144.893 94.8733 145 94.66 145H94.196C93.9827 145 93.876 144.893 93.876 144.68V133.96C93.876 133.747 93.9827 133.64 94.196 133.64H94.916C95.0867 133.64 95.22 133.709 95.316 133.848L98.74 139.048L99.348 139.992C100.425 141.624 101.209 142.84 101.7 143.64C101.657 142.371 101.636 140.925 101.636 139.304V133.96ZM113.245 133.96C113.245 133.747 113.352 133.64 113.565 133.64H114.029C114.243 133.64 114.349 133.747 114.349 133.96V144.68C114.349 144.893 114.243 145 114.029 145H113.309C113.139 145 113.005 144.931 112.909 144.792L109.469 139.576L109.277 139.272C107.997 137.352 107.08 135.939 106.525 135.032C106.568 136.28 106.589 137.72 106.589 139.352V144.68C106.589 144.893 106.483 145 106.269 145H105.805C105.592 145 105.485 144.893 105.485 144.68V133.96C105.485 133.747 105.592 133.64 105.805 133.64H106.525C106.696 133.64 106.829 133.709 106.925 133.848L110.349 139.048L110.957 139.992C112.035 141.624 112.819 142.84 113.309 143.64C113.267 142.371 113.245 140.925 113.245 139.304V133.96ZM117.335 145.112C117.111 145.112 116.919 145.032 116.759 144.872C116.599 144.712 116.519 144.52 116.519 144.296C116.519 144.072 116.599 143.88 116.759 143.72C116.919 143.56 117.111 143.48 117.335 143.48C117.559 143.48 117.751 143.56 117.911 143.72C118.071 143.88 118.151 144.072 118.151 144.296C118.151 144.52 118.071 144.712 117.911 144.872C117.751 145.032 117.559 145.112 117.335 145.112Z" fill="#C3CCD9"/>
</g>
<g filter="url(#filter0_d_1811_19216)">
<path d="M270 150L264 156M270 154L268 156" stroke="#767676" stroke-linecap="square"/>
</g>
<rect x="71.5" y="72.5" width="202" height="87" rx="3.5" stroke="#C3CCD9"/>
<defs>
<filter id="filter0_d_1811_19216" x="263.293" y="149.293" width="7.41431" height="8.41406" filterUnits="userSpaceOnUse" color-interpolation-filters="sRGB">
<feFlood flood-opacity="0" result="BackgroundImageFix"/>
<feColorMatrix in="SourceAlpha" type="matrix" values="0 0 0 0 0 0 0 0 0 0 0 0 0 0 0 0 0 0 127 0" result="hardAlpha"/>
<feOffset dy="1"/>
<feColorMatrix type="matrix" values="0 0 0 0 1 0 0 0 0 1 0 0 0 0 1 0 0 0 0.5 0"/>
<feBlend mode="normal" in2="BackgroundImageFix" result="effect1_dropShadow_1811_19216"/>
<feBlend mode="normal" in="SourceGraphic" in2="effect1_dropShadow_1811_19216" result="shape"/>
</filter>
<clipPath id="clip0_1811_19216">
<rect width="191" height="65" fill="white" transform="translate(79 85)"/>
</clipPath>
</defs>
</svg>
