<svg width="344" height="364" viewBox="0 0 344 364" fill="none" xmlns="http://www.w3.org/2000/svg">
<rect width="344" height="364" fill="#F5F5F5"/>
<path d="M79.694 44.466C79.778 44.1953 79.9647 44.06 80.254 44.06H81.85C82.0087 44.06 82.13 44.102 82.214 44.186C82.298 44.27 82.34 44.3913 82.34 44.55V53.51C82.34 53.6593 82.298 53.7807 82.214 53.874C82.13 53.958 82.0087 54 81.85 54H81.276C81.1267 54 81.0053 53.958 80.912 53.874C80.828 53.7807 80.786 53.6593 80.786 53.51V49.002C80.786 48.442 80.7953 47.602 80.814 46.482L80.828 45.264C80.716 45.6187 80.45 46.426 80.03 47.686L79.596 49.002L78.056 53.594C77.972 53.8647 77.7853 54 77.496 54H76.95C76.6607 54 76.474 53.8693 76.39 53.608L74.822 49.002C74.2713 47.4153 73.856 46.1693 73.576 45.264C73.5947 46.9067 73.604 48.1527 73.604 49.002V53.51C73.604 53.6593 73.562 53.7807 73.478 53.874C73.394 53.958 73.2727 54 73.114 54H72.568C72.4187 54 72.2973 53.958 72.204 53.874C72.12 53.7807 72.078 53.6593 72.078 53.51V44.55C72.078 44.3913 72.12 44.27 72.204 44.186C72.2973 44.102 72.4187 44.06 72.568 44.06H74.192C74.4813 44.06 74.668 44.1907 74.752 44.452L76.054 48.288C76.6047 49.9307 76.9967 51.1767 77.23 52.026C77.5287 50.9807 77.9207 49.7347 78.406 48.288L79.694 44.466ZM87.1801 46.888C88.1134 46.888 88.8321 47.1073 89.3361 47.546C89.8401 47.9753 90.0921 48.5493 90.0921 49.268V53.51C90.0921 53.6593 90.0501 53.7807 89.9661 53.874C89.8821 53.958 89.7607 54 89.6021 54H89.2381C89.0887 54 88.9674 53.958 88.8741 53.874C88.7901 53.7807 88.7481 53.6593 88.7481 53.51V53.202C88.5241 53.5287 88.2161 53.7807 87.8241 53.958C87.4321 54.1353 86.9747 54.224 86.4521 54.224C85.7334 54.224 85.1407 54.0653 84.6741 53.748C84.2167 53.4213 83.9881 52.9313 83.9881 52.278C83.9881 51.55 84.2587 51.0133 84.8001 50.668C85.3507 50.3133 86.1114 50.0473 87.0821 49.87L88.6641 49.576V49.324C88.6641 48.9413 88.5287 48.6473 88.2581 48.442C87.9967 48.2273 87.6467 48.12 87.2081 48.12C86.8347 48.12 86.5081 48.1853 86.2281 48.316C85.9574 48.4373 85.6634 48.6427 85.3461 48.932C85.2247 49.0347 85.1081 49.086 84.9961 49.086C84.8841 49.086 84.7674 49.0347 84.6461 48.932L84.4221 48.736C84.3007 48.624 84.2401 48.5027 84.2401 48.372C84.2401 48.2507 84.2961 48.134 84.4081 48.022C84.8094 47.6393 85.2341 47.3547 85.6821 47.168C86.1301 46.9813 86.6294 46.888 87.1801 46.888ZM86.6621 53.034C87.2221 53.034 87.6934 52.8847 88.0761 52.586C88.4681 52.2873 88.6641 51.858 88.6641 51.298V50.654L87.4461 50.906C86.7647 51.046 86.2607 51.2047 85.9341 51.382C85.6074 51.5593 85.4441 51.83 85.4441 52.194C85.4441 52.4553 85.5514 52.6607 85.7661 52.81C85.9807 52.9593 86.2794 53.034 86.6621 53.034ZM94.8956 47.028C95.1009 47.028 95.3109 47.0513 95.5256 47.098C95.7776 47.154 95.9036 47.3033 95.9036 47.546C95.9036 47.6113 95.8989 47.658 95.8896 47.686L95.8196 48.022C95.7636 48.2833 95.6236 48.414 95.3996 48.414L95.2736 48.4C95.1056 48.372 94.9563 48.358 94.8256 48.358C94.3589 48.358 93.9809 48.5447 93.6916 48.918C93.4116 49.282 93.2716 49.7907 93.2716 50.444V53.51C93.2716 53.6593 93.2296 53.7807 93.1456 53.874C93.0616 53.958 92.9403 54 92.7816 54H92.2776C92.1283 54 92.0069 53.958 91.9136 53.874C91.8296 53.7807 91.7876 53.6593 91.7876 53.51V47.588C91.7876 47.4293 91.8296 47.308 91.9136 47.224C92.0069 47.14 92.1283 47.098 92.2776 47.098H92.6836C92.8423 47.098 92.9636 47.14 93.0476 47.224C93.1316 47.308 93.1736 47.4293 93.1736 47.588V48.134C93.3416 47.7887 93.5703 47.518 93.8596 47.322C94.1489 47.126 94.4943 47.028 94.8956 47.028ZM102.093 54C101.832 54 101.636 53.8927 101.505 53.678L99.5729 50.682L98.4669 51.802V53.51C98.4669 53.6593 98.4249 53.7807 98.3409 53.874C98.2569 53.958 98.1356 54 97.9769 54H97.4729C97.3236 54 97.2022 53.958 97.1089 53.874C97.0249 53.7807 96.9829 53.6593 96.9829 53.51V44.55C96.9829 44.3913 97.0249 44.27 97.1089 44.186C97.2022 44.102 97.3236 44.06 97.4729 44.06H97.9769C98.1356 44.06 98.2569 44.102 98.3409 44.186C98.4249 44.27 98.4669 44.3913 98.4669 44.55V50.164L101.113 47.364C101.281 47.1867 101.486 47.098 101.729 47.098H102.261C102.401 47.098 102.504 47.126 102.569 47.182C102.644 47.2287 102.681 47.294 102.681 47.378C102.681 47.49 102.63 47.5973 102.527 47.7L100.595 49.716L102.975 53.412C103.04 53.5147 103.073 53.608 103.073 53.692C103.073 53.7853 103.036 53.86 102.961 53.916C102.886 53.972 102.784 54 102.653 54H102.093ZM108.939 52.236C109.06 52.1333 109.177 52.082 109.289 52.082C109.401 52.082 109.517 52.1427 109.639 52.264L109.835 52.474C109.937 52.5953 109.989 52.712 109.989 52.824C109.989 52.9453 109.928 53.062 109.807 53.174C109.377 53.5473 108.948 53.8133 108.519 53.972C108.099 54.1307 107.632 54.21 107.119 54.21C106.4 54.21 105.775 54.0607 105.243 53.762C104.72 53.4633 104.314 53.0433 104.025 52.502C103.745 51.9513 103.605 51.3167 103.605 50.598C103.605 49.8887 103.74 49.254 104.011 48.694C104.291 48.1247 104.683 47.6813 105.187 47.364C105.7 47.0467 106.297 46.888 106.979 46.888C107.996 46.888 108.78 47.1913 109.331 47.798C109.881 48.3953 110.157 49.2213 110.157 50.276V50.402C110.147 50.5513 110.101 50.668 110.017 50.752C109.933 50.836 109.811 50.878 109.653 50.878H105.061C105.117 51.494 105.317 51.998 105.663 52.39C106.017 52.7727 106.512 52.964 107.147 52.964C107.492 52.964 107.795 52.9127 108.057 52.81C108.318 52.698 108.612 52.5067 108.939 52.236ZM106.951 48.064C106.437 48.064 106.022 48.218 105.705 48.526C105.397 48.8247 105.196 49.2493 105.103 49.8H108.701C108.663 49.2587 108.495 48.834 108.197 48.526C107.898 48.218 107.483 48.064 106.951 48.064ZM114.766 52.824C114.794 52.8147 114.836 52.81 114.892 52.81C115.125 52.81 115.265 52.9453 115.312 53.216L115.354 53.44C115.363 53.468 115.368 53.5147 115.368 53.58C115.368 53.8133 115.237 53.9627 114.976 54.028C114.603 54.112 114.262 54.154 113.954 54.154C113.291 54.154 112.811 54 112.512 53.692C112.223 53.384 112.078 52.922 112.078 52.306V48.232H111.308C111.159 48.232 111.037 48.19 110.944 48.106C110.86 48.0127 110.818 47.8913 110.818 47.742V47.588C110.818 47.4293 110.86 47.308 110.944 47.224C111.037 47.14 111.159 47.098 111.308 47.098H112.078V45.362C112.078 45.2033 112.12 45.082 112.204 44.998C112.297 44.914 112.419 44.872 112.568 44.872H113.072C113.231 44.872 113.352 44.914 113.436 44.998C113.52 45.082 113.562 45.2033 113.562 45.362V47.098H114.822C114.981 47.098 115.102 47.14 115.186 47.224C115.27 47.308 115.312 47.4293 115.312 47.588V47.742C115.312 47.8913 115.27 48.0127 115.186 48.106C115.102 48.19 114.981 48.232 114.822 48.232H113.562V52.124C113.562 52.3947 113.618 52.586 113.73 52.698C113.851 52.81 114.043 52.866 114.304 52.866C114.416 52.866 114.57 52.852 114.766 52.824ZM119.303 54.21C118.734 54.21 118.225 54.14 117.777 54C117.338 53.8507 116.89 53.594 116.433 53.23C116.293 53.1273 116.223 53.0107 116.223 52.88C116.223 52.7773 116.274 52.6653 116.377 52.544L116.587 52.306C116.699 52.1753 116.82 52.11 116.951 52.11C117.054 52.11 117.166 52.1567 117.287 52.25C117.679 52.5393 118.024 52.74 118.323 52.852C118.622 52.9547 118.958 53.006 119.331 53.006C119.732 53.006 120.059 52.9267 120.311 52.768C120.572 52.6 120.703 52.376 120.703 52.096C120.703 51.8813 120.628 51.7133 120.479 51.592C120.339 51.4613 120.152 51.3633 119.919 51.298C119.686 51.2233 119.34 51.1393 118.883 51.046C118.239 50.906 117.735 50.7567 117.371 50.598C117.016 50.43 116.76 50.22 116.601 49.968C116.442 49.716 116.363 49.394 116.363 49.002C116.363 48.6007 116.475 48.2413 116.699 47.924C116.932 47.6067 117.254 47.3547 117.665 47.168C118.085 46.9813 118.575 46.888 119.135 46.888C119.639 46.888 120.087 46.944 120.479 47.056C120.88 47.168 121.272 47.3593 121.655 47.63C121.804 47.742 121.879 47.868 121.879 48.008C121.879 48.1013 121.832 48.2087 121.739 48.33L121.557 48.554C121.454 48.6847 121.328 48.75 121.179 48.75C121.067 48.75 120.96 48.7127 120.857 48.638C120.549 48.4327 120.264 48.2927 120.003 48.218C119.742 48.134 119.448 48.092 119.121 48.092C118.72 48.092 118.398 48.1713 118.155 48.33C117.912 48.4887 117.791 48.694 117.791 48.946C117.791 49.114 117.847 49.2493 117.959 49.352C118.08 49.4453 118.248 49.5293 118.463 49.604C118.687 49.6693 119.037 49.7533 119.513 49.856C120.157 49.996 120.666 50.1547 121.039 50.332C121.422 50.5 121.702 50.7193 121.879 50.99C122.066 51.2513 122.159 51.592 122.159 52.012C122.159 52.6653 121.898 53.1973 121.375 53.608C120.862 54.0093 120.171 54.21 119.303 54.21Z" fill="#464646"/>
<rect x="71.5" y="62.5" width="202" height="87" rx="3.5" fill="white"/>
<g filter="url(#filter0_d_1811_19348)">
<path d="M270 140L264 146M270 144L268 146" stroke="#767676" stroke-linecap="square"/>
</g>
<rect x="71.5" y="62.5" width="202" height="87" rx="3.5" stroke="#C3CCD9"/>
<path d="M72.272 166C72.112 166 72.032 165.92 72.032 165.76V157.72C72.032 157.56 72.112 157.48 72.272 157.48H77.312C77.472 157.48 77.552 157.56 77.552 157.72V157.948C77.552 158.108 77.472 158.188 77.312 158.188H72.884V161.272H76.976C77.136 161.272 77.216 161.352 77.216 161.512V161.728C77.216 161.888 77.136 161.968 76.976 161.968H72.884V165.292H77.408C77.568 165.292 77.648 165.372 77.648 165.532V165.76C77.648 165.92 77.568 166 77.408 166H72.272ZM81.7233 159.94C82.4193 159.94 82.9433 160.132 83.2953 160.516C83.6553 160.9 83.8353 161.38 83.8353 161.956V165.76C83.8353 165.92 83.7553 166 83.5953 166H83.2833C83.1233 166 83.0433 165.92 83.0433 165.76V162.22C83.0433 161.692 82.9153 161.292 82.6593 161.02C82.4033 160.748 82.0353 160.612 81.5553 160.612C81.2513 160.612 80.9713 160.688 80.7153 160.84C80.4593 160.984 80.2553 161.184 80.1033 161.44C79.9513 161.696 79.8753 161.976 79.8753 162.28V165.76C79.8753 165.92 79.7953 166 79.6353 166H79.3233C79.1633 166 79.0833 165.92 79.0833 165.76V160.324C79.0833 160.164 79.1633 160.084 79.3233 160.084H79.5873C79.7473 160.084 79.8273 160.164 79.8273 160.324V160.9C80.0273 160.58 80.2913 160.34 80.6193 160.18C80.9473 160.02 81.3153 159.94 81.7233 159.94ZM88.0872 165.34C88.1112 165.332 88.1432 165.328 88.1832 165.328C88.2312 165.328 88.2752 165.344 88.3152 165.376C88.3552 165.408 88.3792 165.452 88.3872 165.508L88.4232 165.676C88.4312 165.692 88.4352 165.72 88.4352 165.76C88.4352 165.872 88.3752 165.94 88.2552 165.964C87.9672 166.052 87.6592 166.096 87.3312 166.096C86.8112 166.096 86.4392 165.98 86.2152 165.748C85.9992 165.508 85.8912 165.164 85.8912 164.716V160.684H85.0032C84.8432 160.684 84.7632 160.604 84.7632 160.444V160.324C84.7632 160.164 84.8432 160.084 85.0032 160.084H85.8912V158.26C85.8912 158.1 85.9712 158.02 86.1312 158.02H86.4432C86.6032 158.02 86.6832 158.1 86.6832 158.26V160.084H88.1232C88.2832 160.084 88.3632 160.164 88.3632 160.324V160.444C88.3632 160.604 88.2832 160.684 88.1232 160.684H86.6832V164.62C86.6832 164.916 86.7392 165.124 86.8512 165.244C86.9632 165.364 87.1552 165.424 87.4272 165.424C87.6192 165.424 87.8392 165.396 88.0872 165.34ZM93.6569 164.596C93.7129 164.54 93.7729 164.512 93.8369 164.512C93.8929 164.512 93.9449 164.536 93.9929 164.584L94.1489 164.728C94.2049 164.784 94.2329 164.844 94.2329 164.908C94.2329 164.956 94.2089 165.012 94.1609 165.076C93.7689 165.468 93.3889 165.748 93.0209 165.916C92.6529 166.076 92.2409 166.156 91.7849 166.156C91.2089 166.156 90.7089 166.028 90.2849 165.772C89.8609 165.516 89.5329 165.16 89.3009 164.704C89.0689 164.24 88.9529 163.704 88.9529 163.096C88.9529 162.48 89.0649 161.936 89.2889 161.464C89.5209 160.984 89.8449 160.612 90.2609 160.348C90.6769 160.076 91.1569 159.94 91.7009 159.94C92.5089 159.94 93.1449 160.192 93.6089 160.696C94.0729 161.2 94.3049 161.88 94.3049 162.736V162.88C94.2969 162.952 94.2689 163.008 94.2209 163.048C94.1809 163.088 94.1249 163.108 94.0529 163.108H89.7569C89.7809 163.78 89.9569 164.348 90.2849 164.812C90.6209 165.268 91.1209 165.496 91.7849 165.496C92.1449 165.496 92.4609 165.432 92.7329 165.304C93.0129 165.168 93.3209 164.932 93.6569 164.596ZM91.7009 160.6C91.1729 160.6 90.7369 160.764 90.3929 161.092C90.0569 161.412 89.8529 161.884 89.7809 162.508H93.5129C93.4969 161.924 93.3289 161.46 93.0089 161.116C92.6889 160.772 92.2529 160.6 91.7009 160.6ZM97.9319 160.036C98.1319 160.036 98.3679 160.068 98.6399 160.132C98.7839 160.18 98.8399 160.28 98.8079 160.432L98.7599 160.624C98.7199 160.776 98.6199 160.832 98.4599 160.792C98.2679 160.744 98.0919 160.72 97.9319 160.72C97.5239 160.72 97.1839 160.896 96.9119 161.248C96.6479 161.6 96.5159 162.088 96.5159 162.712V165.76C96.5159 165.92 96.4359 166 96.2759 166H95.9639C95.8039 166 95.7239 165.92 95.7239 165.76V160.324C95.7239 160.164 95.8039 160.084 95.9639 160.084H96.2279C96.3879 160.084 96.4679 160.164 96.4679 160.324V160.984C96.6039 160.688 96.7959 160.456 97.0439 160.288C97.2999 160.12 97.5959 160.036 97.9319 160.036ZM106.205 160.276C106.253 160.148 106.345 160.084 106.481 160.084H106.805C106.869 160.084 106.921 160.1 106.961 160.132C107.001 160.164 107.021 160.208 107.021 160.264L106.997 160.36L104.681 166.9C104.553 167.26 104.429 167.54 104.309 167.74C104.189 167.94 104.025 168.092 103.817 168.196C103.617 168.3 103.353 168.352 103.025 168.352C102.817 168.352 102.633 168.336 102.473 168.304C102.393 168.296 102.337 168.264 102.305 168.208C102.281 168.152 102.277 168.088 102.293 168.016L102.329 167.86C102.361 167.716 102.453 167.652 102.605 167.668C102.749 167.692 102.873 167.704 102.977 167.704C103.233 167.704 103.433 167.632 103.577 167.488C103.729 167.344 103.873 167.072 104.009 166.672L104.117 166.336L102.005 160.36L101.981 160.264C101.981 160.208 102.001 160.164 102.041 160.132C102.081 160.1 102.133 160.084 102.197 160.084H102.545C102.673 160.084 102.761 160.148 102.809 160.276L103.481 162.256C103.545 162.456 103.705 162.932 103.961 163.684L104.501 165.304C104.765 164.56 105.113 163.536 105.545 162.232L106.205 160.276ZM110.57 166.156C110.018 166.156 109.526 166.024 109.094 165.76C108.662 165.496 108.326 165.132 108.086 164.668C107.846 164.196 107.726 163.656 107.726 163.048C107.726 162.44 107.846 161.904 108.086 161.44C108.326 160.968 108.662 160.6 109.094 160.336C109.526 160.072 110.018 159.94 110.57 159.94C111.122 159.94 111.614 160.072 112.046 160.336C112.478 160.6 112.814 160.968 113.054 161.44C113.294 161.904 113.414 162.44 113.414 163.048C113.414 163.656 113.294 164.196 113.054 164.668C112.814 165.132 112.478 165.496 112.046 165.76C111.614 166.024 111.122 166.156 110.57 166.156ZM110.57 165.496C111.186 165.496 111.678 165.272 112.046 164.824C112.414 164.368 112.598 163.776 112.598 163.048C112.598 162.32 112.414 161.732 112.046 161.284C111.678 160.828 111.186 160.6 110.57 160.6C109.954 160.6 109.462 160.828 109.094 161.284C108.726 161.732 108.542 162.32 108.542 163.048C108.542 163.776 108.726 164.368 109.094 164.824C109.462 165.272 109.954 165.496 110.57 165.496ZM118.63 160.324C118.63 160.164 118.71 160.084 118.87 160.084H119.182C119.342 160.084 119.422 160.164 119.422 160.324V165.76C119.422 165.92 119.342 166 119.182 166H118.93C118.77 166 118.69 165.92 118.69 165.76V165.22C118.514 165.532 118.262 165.768 117.934 165.928C117.614 166.08 117.262 166.156 116.878 166.156C116.158 166.156 115.626 165.976 115.282 165.616C114.938 165.248 114.766 164.776 114.766 164.2V160.324C114.766 160.164 114.846 160.084 115.006 160.084H115.318C115.478 160.084 115.558 160.164 115.558 160.324V164.032C115.558 164.504 115.674 164.864 115.906 165.112C116.146 165.352 116.486 165.472 116.926 165.472C117.422 165.472 117.83 165.32 118.15 165.016C118.47 164.712 118.63 164.28 118.63 163.72V160.324ZM123.409 160.036C123.609 160.036 123.845 160.068 124.117 160.132C124.261 160.18 124.317 160.28 124.285 160.432L124.237 160.624C124.197 160.776 124.097 160.832 123.937 160.792C123.745 160.744 123.569 160.72 123.409 160.72C123.001 160.72 122.661 160.896 122.389 161.248C122.125 161.6 121.993 162.088 121.993 162.712V165.76C121.993 165.92 121.913 166 121.753 166H121.441C121.281 166 121.201 165.92 121.201 165.76V160.324C121.201 160.164 121.281 160.084 121.441 160.084H121.705C121.865 160.084 121.945 160.164 121.945 160.324V160.984C122.081 160.688 122.273 160.456 122.521 160.288C122.777 160.12 123.073 160.036 123.409 160.036ZM134.138 159.94C134.778 159.94 135.266 160.124 135.602 160.492C135.946 160.852 136.118 161.316 136.118 161.884V165.76C136.118 165.92 136.038 166 135.878 166H135.566C135.406 166 135.326 165.92 135.326 165.76V162.1C135.326 161.62 135.214 161.252 134.99 160.996C134.774 160.74 134.45 160.612 134.018 160.612C133.562 160.612 133.198 160.764 132.926 161.068C132.654 161.372 132.518 161.764 132.518 162.244V165.76C132.518 165.92 132.438 166 132.278 166H131.966C131.806 166 131.726 165.92 131.726 165.76V162.1C131.726 161.62 131.614 161.252 131.39 160.996C131.174 160.74 130.846 160.612 130.406 160.612C129.998 160.612 129.658 160.74 129.386 160.996C129.122 161.252 128.966 161.588 128.918 162.004V165.76C128.918 165.92 128.838 166 128.678 166H128.366C128.206 166 128.126 165.92 128.126 165.76V160.324C128.126 160.164 128.206 160.084 128.366 160.084H128.63C128.79 160.084 128.87 160.164 128.87 160.324V160.816C129.23 160.232 129.802 159.94 130.586 159.94C130.994 159.94 131.342 160.032 131.63 160.216C131.926 160.392 132.146 160.632 132.29 160.936C132.714 160.272 133.33 159.94 134.138 159.94ZM140.145 159.94C140.873 159.94 141.441 160.116 141.849 160.468C142.257 160.812 142.461 161.268 142.461 161.836V165.76C142.461 165.92 142.381 166 142.221 166H141.981C141.821 166 141.741 165.92 141.741 165.76V165.22C141.541 165.54 141.257 165.78 140.889 165.94C140.529 166.1 140.125 166.18 139.677 166.18C139.053 166.18 138.545 166.048 138.153 165.784C137.761 165.52 137.565 165.112 137.565 164.56C137.565 164.12 137.689 163.768 137.937 163.504C138.185 163.232 138.509 163.028 138.909 162.892C139.309 162.748 139.809 162.62 140.409 162.508L141.705 162.28V161.896C141.705 161.488 141.565 161.172 141.285 160.948C141.005 160.716 140.637 160.6 140.181 160.6C139.837 160.6 139.525 160.664 139.245 160.792C138.965 160.92 138.665 161.14 138.345 161.452C138.289 161.508 138.229 161.536 138.165 161.536C138.109 161.536 138.057 161.512 138.009 161.464L137.853 161.32C137.797 161.264 137.769 161.204 137.769 161.14C137.769 161.068 137.797 161.004 137.853 160.948C138.189 160.596 138.541 160.34 138.909 160.18C139.285 160.02 139.697 159.94 140.145 159.94ZM139.713 165.52C140.289 165.52 140.765 165.368 141.141 165.064C141.517 164.76 141.705 164.372 141.705 163.9V162.892L140.589 163.108C140.069 163.212 139.657 163.312 139.353 163.408C139.049 163.504 138.805 163.644 138.621 163.828C138.437 164.012 138.345 164.252 138.345 164.548C138.345 164.852 138.465 165.092 138.705 165.268C138.953 165.436 139.289 165.52 139.713 165.52ZM146.424 160.036C146.624 160.036 146.86 160.068 147.132 160.132C147.276 160.18 147.332 160.28 147.3 160.432L147.252 160.624C147.212 160.776 147.112 160.832 146.952 160.792C146.76 160.744 146.584 160.72 146.424 160.72C146.016 160.72 145.676 160.896 145.404 161.248C145.14 161.6 145.008 162.088 145.008 162.712V165.76C145.008 165.92 144.928 166 144.768 166H144.456C144.296 166 144.216 165.92 144.216 165.76V160.324C144.216 160.164 144.296 160.084 144.456 160.084H144.72C144.88 160.084 144.96 160.164 144.96 160.324V160.984C145.096 160.688 145.288 160.456 145.536 160.288C145.792 160.12 146.088 160.036 146.424 160.036ZM152.648 166C152.528 166 152.432 165.948 152.36 165.844L150.332 162.892L149.168 164.08V165.76C149.168 165.92 149.088 166 148.928 166H148.616C148.456 166 148.376 165.92 148.376 165.76V157.72C148.376 157.56 148.456 157.48 148.616 157.48H148.928C149.088 157.48 149.168 157.56 149.168 157.72V163.18L152.048 160.192C152.12 160.112 152.22 160.072 152.348 160.072H152.684C152.748 160.072 152.796 160.088 152.828 160.12C152.868 160.144 152.888 160.176 152.888 160.216C152.888 160.256 152.864 160.308 152.816 160.372L150.884 162.388L153.152 165.712C153.184 165.768 153.2 165.816 153.2 165.856C153.2 165.952 153.136 166 153.008 166H152.648ZM158.555 164.596C158.611 164.54 158.671 164.512 158.735 164.512C158.791 164.512 158.843 164.536 158.891 164.584L159.047 164.728C159.103 164.784 159.131 164.844 159.131 164.908C159.131 164.956 159.107 165.012 159.059 165.076C158.667 165.468 158.287 165.748 157.919 165.916C157.551 166.076 157.139 166.156 156.683 166.156C156.107 166.156 155.607 166.028 155.183 165.772C154.759 165.516 154.431 165.16 154.199 164.704C153.967 164.24 153.851 163.704 153.851 163.096C153.851 162.48 153.963 161.936 154.187 161.464C154.419 160.984 154.743 160.612 155.159 160.348C155.575 160.076 156.055 159.94 156.599 159.94C157.407 159.94 158.043 160.192 158.507 160.696C158.971 161.2 159.203 161.88 159.203 162.736V162.88C159.195 162.952 159.167 163.008 159.119 163.048C159.079 163.088 159.023 163.108 158.951 163.108H154.655C154.679 163.78 154.855 164.348 155.183 164.812C155.519 165.268 156.019 165.496 156.683 165.496C157.043 165.496 157.359 165.432 157.631 165.304C157.911 165.168 158.219 164.932 158.555 164.596ZM156.599 160.6C156.071 160.6 155.635 160.764 155.291 161.092C154.955 161.412 154.751 161.884 154.679 162.508H158.411C158.395 161.924 158.227 161.46 157.907 161.116C157.587 160.772 157.151 160.6 156.599 160.6ZM163.228 165.34C163.252 165.332 163.284 165.328 163.324 165.328C163.372 165.328 163.416 165.344 163.456 165.376C163.496 165.408 163.52 165.452 163.528 165.508L163.564 165.676C163.572 165.692 163.576 165.72 163.576 165.76C163.576 165.872 163.516 165.94 163.396 165.964C163.108 166.052 162.8 166.096 162.472 166.096C161.952 166.096 161.58 165.98 161.356 165.748C161.14 165.508 161.032 165.164 161.032 164.716V160.684H160.144C159.984 160.684 159.904 160.604 159.904 160.444V160.324C159.904 160.164 159.984 160.084 160.144 160.084H161.032V158.26C161.032 158.1 161.112 158.02 161.272 158.02H161.584C161.744 158.02 161.824 158.1 161.824 158.26V160.084H163.264C163.424 160.084 163.504 160.164 163.504 160.324V160.444C163.504 160.604 163.424 160.684 163.264 160.684H161.824V164.62C161.824 164.916 161.88 165.124 161.992 165.244C162.104 165.364 162.296 165.424 162.568 165.424C162.76 165.424 162.98 165.396 163.228 165.34ZM166.858 166.156C166.37 166.156 165.938 166.088 165.562 165.952C165.194 165.808 164.806 165.568 164.398 165.232C164.326 165.184 164.29 165.128 164.29 165.064C164.29 165.008 164.318 164.952 164.374 164.896L164.53 164.728C164.578 164.664 164.638 164.632 164.71 164.632C164.766 164.632 164.818 164.656 164.866 164.704C165.25 165 165.59 165.208 165.886 165.328C166.182 165.44 166.506 165.496 166.858 165.496C167.298 165.496 167.658 165.4 167.938 165.208C168.218 165.008 168.358 164.74 168.358 164.404C168.358 164.068 168.214 163.82 167.926 163.66C167.638 163.5 167.194 163.356 166.594 163.228C166.066 163.116 165.65 163 165.346 162.88C165.05 162.752 164.83 162.592 164.686 162.4C164.542 162.208 164.47 161.956 164.47 161.644C164.47 161.132 164.678 160.72 165.094 160.408C165.51 160.096 166.034 159.94 166.666 159.94C167.098 159.94 167.482 159.996 167.818 160.108C168.162 160.212 168.506 160.388 168.85 160.636C168.922 160.692 168.958 160.752 168.958 160.816C168.958 160.856 168.938 160.908 168.898 160.972L168.754 161.152C168.714 161.216 168.658 161.248 168.586 161.248C168.522 161.248 168.466 161.228 168.418 161.188C168.09 160.956 167.798 160.8 167.542 160.72C167.294 160.64 167.01 160.6 166.69 160.6C166.25 160.6 165.898 160.696 165.634 160.888C165.37 161.08 165.238 161.324 165.238 161.62C165.238 161.804 165.298 161.952 165.418 162.064C165.538 162.176 165.71 162.272 165.934 162.352C166.158 162.424 166.486 162.508 166.918 162.604C167.718 162.78 168.286 162.996 168.622 163.252C168.966 163.508 169.138 163.88 169.138 164.368C169.138 164.904 168.926 165.336 168.502 165.664C168.078 165.992 167.53 166.156 166.858 166.156ZM170.802 166.084C170.634 166.084 170.49 166.024 170.37 165.904C170.25 165.784 170.19 165.64 170.19 165.472C170.19 165.304 170.25 165.16 170.37 165.04C170.49 164.92 170.634 164.86 170.802 164.86C170.97 164.86 171.114 164.92 171.234 165.04C171.354 165.16 171.414 165.304 171.414 165.472C171.414 165.64 171.354 165.784 171.234 165.904C171.114 166.024 170.97 166.084 170.802 166.084Z" fill="#464646"/>
<path d="M79.694 198.466C79.778 198.195 79.9647 198.06 80.254 198.06H81.85C82.0087 198.06 82.13 198.102 82.214 198.186C82.298 198.27 82.34 198.391 82.34 198.55V207.51C82.34 207.659 82.298 207.781 82.214 207.874C82.13 207.958 82.0087 208 81.85 208H81.276C81.1267 208 81.0053 207.958 80.912 207.874C80.828 207.781 80.786 207.659 80.786 207.51V203.002C80.786 202.442 80.7953 201.602 80.814 200.482L80.828 199.264C80.716 199.619 80.45 200.426 80.03 201.686L79.596 203.002L78.056 207.594C77.972 207.865 77.7853 208 77.496 208H76.95C76.6607 208 76.474 207.869 76.39 207.608L74.822 203.002C74.2713 201.415 73.856 200.169 73.576 199.264C73.5947 200.907 73.604 202.153 73.604 203.002V207.51C73.604 207.659 73.562 207.781 73.478 207.874C73.394 207.958 73.2727 208 73.114 208H72.568C72.4187 208 72.2973 207.958 72.204 207.874C72.12 207.781 72.078 207.659 72.078 207.51V198.55C72.078 198.391 72.12 198.27 72.204 198.186C72.2973 198.102 72.4187 198.06 72.568 198.06H74.192C74.4813 198.06 74.668 198.191 74.752 198.452L76.054 202.288C76.6047 203.931 76.9967 205.177 77.23 206.026C77.5287 204.981 77.9207 203.735 78.406 202.288L79.694 198.466ZM87.1801 200.888C88.1134 200.888 88.8321 201.107 89.3361 201.546C89.8401 201.975 90.0921 202.549 90.0921 203.268V207.51C90.0921 207.659 90.0501 207.781 89.9661 207.874C89.8821 207.958 89.7607 208 89.6021 208H89.2381C89.0887 208 88.9674 207.958 88.8741 207.874C88.7901 207.781 88.7481 207.659 88.7481 207.51V207.202C88.5241 207.529 88.2161 207.781 87.8241 207.958C87.4321 208.135 86.9747 208.224 86.4521 208.224C85.7334 208.224 85.1407 208.065 84.6741 207.748C84.2167 207.421 83.9881 206.931 83.9881 206.278C83.9881 205.55 84.2587 205.013 84.8001 204.668C85.3507 204.313 86.1114 204.047 87.0821 203.87L88.6641 203.576V203.324C88.6641 202.941 88.5287 202.647 88.2581 202.442C87.9967 202.227 87.6467 202.12 87.2081 202.12C86.8347 202.12 86.5081 202.185 86.2281 202.316C85.9574 202.437 85.6634 202.643 85.3461 202.932C85.2247 203.035 85.1081 203.086 84.9961 203.086C84.8841 203.086 84.7674 203.035 84.6461 202.932L84.4221 202.736C84.3007 202.624 84.2401 202.503 84.2401 202.372C84.2401 202.251 84.2961 202.134 84.4081 202.022C84.8094 201.639 85.2341 201.355 85.6821 201.168C86.1301 200.981 86.6294 200.888 87.1801 200.888ZM86.6621 207.034C87.2221 207.034 87.6934 206.885 88.0761 206.586C88.4681 206.287 88.6641 205.858 88.6641 205.298V204.654L87.4461 204.906C86.7647 205.046 86.2607 205.205 85.9341 205.382C85.6074 205.559 85.4441 205.83 85.4441 206.194C85.4441 206.455 85.5514 206.661 85.7661 206.81C85.9807 206.959 86.2794 207.034 86.6621 207.034ZM94.8956 201.028C95.1009 201.028 95.3109 201.051 95.5256 201.098C95.7776 201.154 95.9036 201.303 95.9036 201.546C95.9036 201.611 95.8989 201.658 95.8896 201.686L95.8196 202.022C95.7636 202.283 95.6236 202.414 95.3996 202.414L95.2736 202.4C95.1056 202.372 94.9563 202.358 94.8256 202.358C94.3589 202.358 93.9809 202.545 93.6916 202.918C93.4116 203.282 93.2716 203.791 93.2716 204.444V207.51C93.2716 207.659 93.2296 207.781 93.1456 207.874C93.0616 207.958 92.9403 208 92.7816 208H92.2776C92.1283 208 92.0069 207.958 91.9136 207.874C91.8296 207.781 91.7876 207.659 91.7876 207.51V201.588C91.7876 201.429 91.8296 201.308 91.9136 201.224C92.0069 201.14 92.1283 201.098 92.2776 201.098H92.6836C92.8423 201.098 92.9636 201.14 93.0476 201.224C93.1316 201.308 93.1736 201.429 93.1736 201.588V202.134C93.3416 201.789 93.5703 201.518 93.8596 201.322C94.1489 201.126 94.4943 201.028 94.8956 201.028ZM102.093 208C101.832 208 101.636 207.893 101.505 207.678L99.5729 204.682L98.4669 205.802V207.51C98.4669 207.659 98.4249 207.781 98.3409 207.874C98.2569 207.958 98.1356 208 97.9769 208H97.4729C97.3236 208 97.2022 207.958 97.1089 207.874C97.0249 207.781 96.9829 207.659 96.9829 207.51V198.55C96.9829 198.391 97.0249 198.27 97.1089 198.186C97.2022 198.102 97.3236 198.06 97.4729 198.06H97.9769C98.1356 198.06 98.2569 198.102 98.3409 198.186C98.4249 198.27 98.4669 198.391 98.4669 198.55V204.164L101.113 201.364C101.281 201.187 101.486 201.098 101.729 201.098H102.261C102.401 201.098 102.504 201.126 102.569 201.182C102.644 201.229 102.681 201.294 102.681 201.378C102.681 201.49 102.63 201.597 102.527 201.7L100.595 203.716L102.975 207.412C103.04 207.515 103.073 207.608 103.073 207.692C103.073 207.785 103.036 207.86 102.961 207.916C102.886 207.972 102.784 208 102.653 208H102.093ZM108.939 206.236C109.06 206.133 109.177 206.082 109.289 206.082C109.401 206.082 109.517 206.143 109.639 206.264L109.835 206.474C109.937 206.595 109.989 206.712 109.989 206.824C109.989 206.945 109.928 207.062 109.807 207.174C109.377 207.547 108.948 207.813 108.519 207.972C108.099 208.131 107.632 208.21 107.119 208.21C106.4 208.21 105.775 208.061 105.243 207.762C104.72 207.463 104.314 207.043 104.025 206.502C103.745 205.951 103.605 205.317 103.605 204.598C103.605 203.889 103.74 203.254 104.011 202.694C104.291 202.125 104.683 201.681 105.187 201.364C105.7 201.047 106.297 200.888 106.979 200.888C107.996 200.888 108.78 201.191 109.331 201.798C109.881 202.395 110.157 203.221 110.157 204.276V204.402C110.147 204.551 110.101 204.668 110.017 204.752C109.933 204.836 109.811 204.878 109.653 204.878H105.061C105.117 205.494 105.317 205.998 105.663 206.39C106.017 206.773 106.512 206.964 107.147 206.964C107.492 206.964 107.795 206.913 108.057 206.81C108.318 206.698 108.612 206.507 108.939 206.236ZM106.951 202.064C106.437 202.064 106.022 202.218 105.705 202.526C105.397 202.825 105.196 203.249 105.103 203.8H108.701C108.663 203.259 108.495 202.834 108.197 202.526C107.898 202.218 107.483 202.064 106.951 202.064ZM114.766 206.824C114.794 206.815 114.836 206.81 114.892 206.81C115.125 206.81 115.265 206.945 115.312 207.216L115.354 207.44C115.363 207.468 115.368 207.515 115.368 207.58C115.368 207.813 115.237 207.963 114.976 208.028C114.603 208.112 114.262 208.154 113.954 208.154C113.291 208.154 112.811 208 112.512 207.692C112.223 207.384 112.078 206.922 112.078 206.306V202.232H111.308C111.159 202.232 111.037 202.19 110.944 202.106C110.86 202.013 110.818 201.891 110.818 201.742V201.588C110.818 201.429 110.86 201.308 110.944 201.224C111.037 201.14 111.159 201.098 111.308 201.098H112.078V199.362C112.078 199.203 112.12 199.082 112.204 198.998C112.297 198.914 112.419 198.872 112.568 198.872H113.072C113.231 198.872 113.352 198.914 113.436 198.998C113.52 199.082 113.562 199.203 113.562 199.362V201.098H114.822C114.981 201.098 115.102 201.14 115.186 201.224C115.27 201.308 115.312 201.429 115.312 201.588V201.742C115.312 201.891 115.27 202.013 115.186 202.106C115.102 202.19 114.981 202.232 114.822 202.232H113.562V206.124C113.562 206.395 113.618 206.586 113.73 206.698C113.851 206.81 114.043 206.866 114.304 206.866C114.416 206.866 114.57 206.852 114.766 206.824ZM119.303 208.21C118.734 208.21 118.225 208.14 117.777 208C117.338 207.851 116.89 207.594 116.433 207.23C116.293 207.127 116.223 207.011 116.223 206.88C116.223 206.777 116.274 206.665 116.377 206.544L116.587 206.306C116.699 206.175 116.82 206.11 116.951 206.11C117.054 206.11 117.166 206.157 117.287 206.25C117.679 206.539 118.024 206.74 118.323 206.852C118.622 206.955 118.958 207.006 119.331 207.006C119.732 207.006 120.059 206.927 120.311 206.768C120.572 206.6 120.703 206.376 120.703 206.096C120.703 205.881 120.628 205.713 120.479 205.592C120.339 205.461 120.152 205.363 119.919 205.298C119.686 205.223 119.34 205.139 118.883 205.046C118.239 204.906 117.735 204.757 117.371 204.598C117.016 204.43 116.76 204.22 116.601 203.968C116.442 203.716 116.363 203.394 116.363 203.002C116.363 202.601 116.475 202.241 116.699 201.924C116.932 201.607 117.254 201.355 117.665 201.168C118.085 200.981 118.575 200.888 119.135 200.888C119.639 200.888 120.087 200.944 120.479 201.056C120.88 201.168 121.272 201.359 121.655 201.63C121.804 201.742 121.879 201.868 121.879 202.008C121.879 202.101 121.832 202.209 121.739 202.33L121.557 202.554C121.454 202.685 121.328 202.75 121.179 202.75C121.067 202.75 120.96 202.713 120.857 202.638C120.549 202.433 120.264 202.293 120.003 202.218C119.742 202.134 119.448 202.092 119.121 202.092C118.72 202.092 118.398 202.171 118.155 202.33C117.912 202.489 117.791 202.694 117.791 202.946C117.791 203.114 117.847 203.249 117.959 203.352C118.08 203.445 118.248 203.529 118.463 203.604C118.687 203.669 119.037 203.753 119.513 203.856C120.157 203.996 120.666 204.155 121.039 204.332C121.422 204.5 121.702 204.719 121.879 204.99C122.066 205.251 122.159 205.592 122.159 206.012C122.159 206.665 121.898 207.197 121.375 207.608C120.862 208.009 120.171 208.21 119.303 208.21Z" fill="#D91F0A"/>
<rect x="71.5" y="216.5" width="202" height="87" rx="3.5" fill="white"/>
<g filter="url(#filter1_d_1811_19348)">
<path d="M270 294L264 300M270 298L268 300" stroke="#767676" stroke-linecap="square"/>
</g>
<rect x="71.5" y="216.5" width="202" height="87" rx="3.5" stroke="#D91F0A"/>
<path d="M72.272 320C72.112 320 72.032 319.92 72.032 319.76V311.72C72.032 311.56 72.112 311.48 72.272 311.48H77.312C77.472 311.48 77.552 311.56 77.552 311.72V311.948C77.552 312.108 77.472 312.188 77.312 312.188H72.884V315.272H76.976C77.136 315.272 77.216 315.352 77.216 315.512V315.728C77.216 315.888 77.136 315.968 76.976 315.968H72.884V319.292H77.408C77.568 319.292 77.648 319.372 77.648 319.532V319.76C77.648 319.92 77.568 320 77.408 320H72.272ZM81.7233 313.94C82.4193 313.94 82.9433 314.132 83.2953 314.516C83.6553 314.9 83.8353 315.38 83.8353 315.956V319.76C83.8353 319.92 83.7553 320 83.5953 320H83.2833C83.1233 320 83.0433 319.92 83.0433 319.76V316.22C83.0433 315.692 82.9153 315.292 82.6593 315.02C82.4033 314.748 82.0353 314.612 81.5553 314.612C81.2513 314.612 80.9713 314.688 80.7153 314.84C80.4593 314.984 80.2553 315.184 80.1033 315.44C79.9513 315.696 79.8753 315.976 79.8753 316.28V319.76C79.8753 319.92 79.7953 320 79.6353 320H79.3233C79.1633 320 79.0833 319.92 79.0833 319.76V314.324C79.0833 314.164 79.1633 314.084 79.3233 314.084H79.5873C79.7473 314.084 79.8273 314.164 79.8273 314.324V314.9C80.0273 314.58 80.2913 314.34 80.6193 314.18C80.9473 314.02 81.3153 313.94 81.7233 313.94ZM88.0872 319.34C88.1112 319.332 88.1432 319.328 88.1832 319.328C88.2312 319.328 88.2752 319.344 88.3152 319.376C88.3552 319.408 88.3792 319.452 88.3872 319.508L88.4232 319.676C88.4312 319.692 88.4352 319.72 88.4352 319.76C88.4352 319.872 88.3752 319.94 88.2552 319.964C87.9672 320.052 87.6592 320.096 87.3312 320.096C86.8112 320.096 86.4392 319.98 86.2152 319.748C85.9992 319.508 85.8912 319.164 85.8912 318.716V314.684H85.0032C84.8432 314.684 84.7632 314.604 84.7632 314.444V314.324C84.7632 314.164 84.8432 314.084 85.0032 314.084H85.8912V312.26C85.8912 312.1 85.9712 312.02 86.1312 312.02H86.4432C86.6032 312.02 86.6832 312.1 86.6832 312.26V314.084H88.1232C88.2832 314.084 88.3632 314.164 88.3632 314.324V314.444C88.3632 314.604 88.2832 314.684 88.1232 314.684H86.6832V318.62C86.6832 318.916 86.7392 319.124 86.8512 319.244C86.9632 319.364 87.1552 319.424 87.4272 319.424C87.6192 319.424 87.8392 319.396 88.0872 319.34ZM93.6569 318.596C93.7129 318.54 93.7729 318.512 93.8369 318.512C93.8929 318.512 93.9449 318.536 93.9929 318.584L94.1489 318.728C94.2049 318.784 94.2329 318.844 94.2329 318.908C94.2329 318.956 94.2089 319.012 94.1609 319.076C93.7689 319.468 93.3889 319.748 93.0209 319.916C92.6529 320.076 92.2409 320.156 91.7849 320.156C91.2089 320.156 90.7089 320.028 90.2849 319.772C89.8609 319.516 89.5329 319.16 89.3009 318.704C89.0689 318.24 88.9529 317.704 88.9529 317.096C88.9529 316.48 89.0649 315.936 89.2889 315.464C89.5209 314.984 89.8449 314.612 90.2609 314.348C90.6769 314.076 91.1569 313.94 91.7009 313.94C92.5089 313.94 93.1449 314.192 93.6089 314.696C94.0729 315.2 94.3049 315.88 94.3049 316.736V316.88C94.2969 316.952 94.2689 317.008 94.2209 317.048C94.1809 317.088 94.1249 317.108 94.0529 317.108H89.7569C89.7809 317.78 89.9569 318.348 90.2849 318.812C90.6209 319.268 91.1209 319.496 91.7849 319.496C92.1449 319.496 92.4609 319.432 92.7329 319.304C93.0129 319.168 93.3209 318.932 93.6569 318.596ZM91.7009 314.6C91.1729 314.6 90.7369 314.764 90.3929 315.092C90.0569 315.412 89.8529 315.884 89.7809 316.508H93.5129C93.4969 315.924 93.3289 315.46 93.0089 315.116C92.6889 314.772 92.2529 314.6 91.7009 314.6ZM97.9319 314.036C98.1319 314.036 98.3679 314.068 98.6399 314.132C98.7839 314.18 98.8399 314.28 98.8079 314.432L98.7599 314.624C98.7199 314.776 98.6199 314.832 98.4599 314.792C98.2679 314.744 98.0919 314.72 97.9319 314.72C97.5239 314.72 97.1839 314.896 96.9119 315.248C96.6479 315.6 96.5159 316.088 96.5159 316.712V319.76C96.5159 319.92 96.4359 320 96.2759 320H95.9639C95.8039 320 95.7239 319.92 95.7239 319.76V314.324C95.7239 314.164 95.8039 314.084 95.9639 314.084H96.2279C96.3879 314.084 96.4679 314.164 96.4679 314.324V314.984C96.6039 314.688 96.7959 314.456 97.0439 314.288C97.2999 314.12 97.5959 314.036 97.9319 314.036ZM106.205 314.276C106.253 314.148 106.345 314.084 106.481 314.084H106.805C106.869 314.084 106.921 314.1 106.961 314.132C107.001 314.164 107.021 314.208 107.021 314.264L106.997 314.36L104.681 320.9C104.553 321.26 104.429 321.54 104.309 321.74C104.189 321.94 104.025 322.092 103.817 322.196C103.617 322.3 103.353 322.352 103.025 322.352C102.817 322.352 102.633 322.336 102.473 322.304C102.393 322.296 102.337 322.264 102.305 322.208C102.281 322.152 102.277 322.088 102.293 322.016L102.329 321.86C102.361 321.716 102.453 321.652 102.605 321.668C102.749 321.692 102.873 321.704 102.977 321.704C103.233 321.704 103.433 321.632 103.577 321.488C103.729 321.344 103.873 321.072 104.009 320.672L104.117 320.336L102.005 314.36L101.981 314.264C101.981 314.208 102.001 314.164 102.041 314.132C102.081 314.1 102.133 314.084 102.197 314.084H102.545C102.673 314.084 102.761 314.148 102.809 314.276L103.481 316.256C103.545 316.456 103.705 316.932 103.961 317.684L104.501 319.304C104.765 318.56 105.113 317.536 105.545 316.232L106.205 314.276ZM110.57 320.156C110.018 320.156 109.526 320.024 109.094 319.76C108.662 319.496 108.326 319.132 108.086 318.668C107.846 318.196 107.726 317.656 107.726 317.048C107.726 316.44 107.846 315.904 108.086 315.44C108.326 314.968 108.662 314.6 109.094 314.336C109.526 314.072 110.018 313.94 110.57 313.94C111.122 313.94 111.614 314.072 112.046 314.336C112.478 314.6 112.814 314.968 113.054 315.44C113.294 315.904 113.414 316.44 113.414 317.048C113.414 317.656 113.294 318.196 113.054 318.668C112.814 319.132 112.478 319.496 112.046 319.76C111.614 320.024 111.122 320.156 110.57 320.156ZM110.57 319.496C111.186 319.496 111.678 319.272 112.046 318.824C112.414 318.368 112.598 317.776 112.598 317.048C112.598 316.32 112.414 315.732 112.046 315.284C111.678 314.828 111.186 314.6 110.57 314.6C109.954 314.6 109.462 314.828 109.094 315.284C108.726 315.732 108.542 316.32 108.542 317.048C108.542 317.776 108.726 318.368 109.094 318.824C109.462 319.272 109.954 319.496 110.57 319.496ZM118.63 314.324C118.63 314.164 118.71 314.084 118.87 314.084H119.182C119.342 314.084 119.422 314.164 119.422 314.324V319.76C119.422 319.92 119.342 320 119.182 320H118.93C118.77 320 118.69 319.92 118.69 319.76V319.22C118.514 319.532 118.262 319.768 117.934 319.928C117.614 320.08 117.262 320.156 116.878 320.156C116.158 320.156 115.626 319.976 115.282 319.616C114.938 319.248 114.766 318.776 114.766 318.2V314.324C114.766 314.164 114.846 314.084 115.006 314.084H115.318C115.478 314.084 115.558 314.164 115.558 314.324V318.032C115.558 318.504 115.674 318.864 115.906 319.112C116.146 319.352 116.486 319.472 116.926 319.472C117.422 319.472 117.83 319.32 118.15 319.016C118.47 318.712 118.63 318.28 118.63 317.72V314.324ZM123.409 314.036C123.609 314.036 123.845 314.068 124.117 314.132C124.261 314.18 124.317 314.28 124.285 314.432L124.237 314.624C124.197 314.776 124.097 314.832 123.937 314.792C123.745 314.744 123.569 314.72 123.409 314.72C123.001 314.72 122.661 314.896 122.389 315.248C122.125 315.6 121.993 316.088 121.993 316.712V319.76C121.993 319.92 121.913 320 121.753 320H121.441C121.281 320 121.201 319.92 121.201 319.76V314.324C121.201 314.164 121.281 314.084 121.441 314.084H121.705C121.865 314.084 121.945 314.164 121.945 314.324V314.984C122.081 314.688 122.273 314.456 122.521 314.288C122.777 314.12 123.073 314.036 123.409 314.036ZM134.138 313.94C134.778 313.94 135.266 314.124 135.602 314.492C135.946 314.852 136.118 315.316 136.118 315.884V319.76C136.118 319.92 136.038 320 135.878 320H135.566C135.406 320 135.326 319.92 135.326 319.76V316.1C135.326 315.62 135.214 315.252 134.99 314.996C134.774 314.74 134.45 314.612 134.018 314.612C133.562 314.612 133.198 314.764 132.926 315.068C132.654 315.372 132.518 315.764 132.518 316.244V319.76C132.518 319.92 132.438 320 132.278 320H131.966C131.806 320 131.726 319.92 131.726 319.76V316.1C131.726 315.62 131.614 315.252 131.39 314.996C131.174 314.74 130.846 314.612 130.406 314.612C129.998 314.612 129.658 314.74 129.386 314.996C129.122 315.252 128.966 315.588 128.918 316.004V319.76C128.918 319.92 128.838 320 128.678 320H128.366C128.206 320 128.126 319.92 128.126 319.76V314.324C128.126 314.164 128.206 314.084 128.366 314.084H128.63C128.79 314.084 128.87 314.164 128.87 314.324V314.816C129.23 314.232 129.802 313.94 130.586 313.94C130.994 313.94 131.342 314.032 131.63 314.216C131.926 314.392 132.146 314.632 132.29 314.936C132.714 314.272 133.33 313.94 134.138 313.94ZM140.145 313.94C140.873 313.94 141.441 314.116 141.849 314.468C142.257 314.812 142.461 315.268 142.461 315.836V319.76C142.461 319.92 142.381 320 142.221 320H141.981C141.821 320 141.741 319.92 141.741 319.76V319.22C141.541 319.54 141.257 319.78 140.889 319.94C140.529 320.1 140.125 320.18 139.677 320.18C139.053 320.18 138.545 320.048 138.153 319.784C137.761 319.52 137.565 319.112 137.565 318.56C137.565 318.12 137.689 317.768 137.937 317.504C138.185 317.232 138.509 317.028 138.909 316.892C139.309 316.748 139.809 316.62 140.409 316.508L141.705 316.28V315.896C141.705 315.488 141.565 315.172 141.285 314.948C141.005 314.716 140.637 314.6 140.181 314.6C139.837 314.6 139.525 314.664 139.245 314.792C138.965 314.92 138.665 315.14 138.345 315.452C138.289 315.508 138.229 315.536 138.165 315.536C138.109 315.536 138.057 315.512 138.009 315.464L137.853 315.32C137.797 315.264 137.769 315.204 137.769 315.14C137.769 315.068 137.797 315.004 137.853 314.948C138.189 314.596 138.541 314.34 138.909 314.18C139.285 314.02 139.697 313.94 140.145 313.94ZM139.713 319.52C140.289 319.52 140.765 319.368 141.141 319.064C141.517 318.76 141.705 318.372 141.705 317.9V316.892L140.589 317.108C140.069 317.212 139.657 317.312 139.353 317.408C139.049 317.504 138.805 317.644 138.621 317.828C138.437 318.012 138.345 318.252 138.345 318.548C138.345 318.852 138.465 319.092 138.705 319.268C138.953 319.436 139.289 319.52 139.713 319.52ZM146.424 314.036C146.624 314.036 146.86 314.068 147.132 314.132C147.276 314.18 147.332 314.28 147.3 314.432L147.252 314.624C147.212 314.776 147.112 314.832 146.952 314.792C146.76 314.744 146.584 314.72 146.424 314.72C146.016 314.72 145.676 314.896 145.404 315.248C145.14 315.6 145.008 316.088 145.008 316.712V319.76C145.008 319.92 144.928 320 144.768 320H144.456C144.296 320 144.216 319.92 144.216 319.76V314.324C144.216 314.164 144.296 314.084 144.456 314.084H144.72C144.88 314.084 144.96 314.164 144.96 314.324V314.984C145.096 314.688 145.288 314.456 145.536 314.288C145.792 314.12 146.088 314.036 146.424 314.036ZM152.648 320C152.528 320 152.432 319.948 152.36 319.844L150.332 316.892L149.168 318.08V319.76C149.168 319.92 149.088 320 148.928 320H148.616C148.456 320 148.376 319.92 148.376 319.76V311.72C148.376 311.56 148.456 311.48 148.616 311.48H148.928C149.088 311.48 149.168 311.56 149.168 311.72V317.18L152.048 314.192C152.12 314.112 152.22 314.072 152.348 314.072H152.684C152.748 314.072 152.796 314.088 152.828 314.12C152.868 314.144 152.888 314.176 152.888 314.216C152.888 314.256 152.864 314.308 152.816 314.372L150.884 316.388L153.152 319.712C153.184 319.768 153.2 319.816 153.2 319.856C153.2 319.952 153.136 320 153.008 320H152.648ZM158.555 318.596C158.611 318.54 158.671 318.512 158.735 318.512C158.791 318.512 158.843 318.536 158.891 318.584L159.047 318.728C159.103 318.784 159.131 318.844 159.131 318.908C159.131 318.956 159.107 319.012 159.059 319.076C158.667 319.468 158.287 319.748 157.919 319.916C157.551 320.076 157.139 320.156 156.683 320.156C156.107 320.156 155.607 320.028 155.183 319.772C154.759 319.516 154.431 319.16 154.199 318.704C153.967 318.24 153.851 317.704 153.851 317.096C153.851 316.48 153.963 315.936 154.187 315.464C154.419 314.984 154.743 314.612 155.159 314.348C155.575 314.076 156.055 313.94 156.599 313.94C157.407 313.94 158.043 314.192 158.507 314.696C158.971 315.2 159.203 315.88 159.203 316.736V316.88C159.195 316.952 159.167 317.008 159.119 317.048C159.079 317.088 159.023 317.108 158.951 317.108H154.655C154.679 317.78 154.855 318.348 155.183 318.812C155.519 319.268 156.019 319.496 156.683 319.496C157.043 319.496 157.359 319.432 157.631 319.304C157.911 319.168 158.219 318.932 158.555 318.596ZM156.599 314.6C156.071 314.6 155.635 314.764 155.291 315.092C154.955 315.412 154.751 315.884 154.679 316.508H158.411C158.395 315.924 158.227 315.46 157.907 315.116C157.587 314.772 157.151 314.6 156.599 314.6ZM163.228 319.34C163.252 319.332 163.284 319.328 163.324 319.328C163.372 319.328 163.416 319.344 163.456 319.376C163.496 319.408 163.52 319.452 163.528 319.508L163.564 319.676C163.572 319.692 163.576 319.72 163.576 319.76C163.576 319.872 163.516 319.94 163.396 319.964C163.108 320.052 162.8 320.096 162.472 320.096C161.952 320.096 161.58 319.98 161.356 319.748C161.14 319.508 161.032 319.164 161.032 318.716V314.684H160.144C159.984 314.684 159.904 314.604 159.904 314.444V314.324C159.904 314.164 159.984 314.084 160.144 314.084H161.032V312.26C161.032 312.1 161.112 312.02 161.272 312.02H161.584C161.744 312.02 161.824 312.1 161.824 312.26V314.084H163.264C163.424 314.084 163.504 314.164 163.504 314.324V314.444C163.504 314.604 163.424 314.684 163.264 314.684H161.824V318.62C161.824 318.916 161.88 319.124 161.992 319.244C162.104 319.364 162.296 319.424 162.568 319.424C162.76 319.424 162.98 319.396 163.228 319.34ZM166.858 320.156C166.37 320.156 165.938 320.088 165.562 319.952C165.194 319.808 164.806 319.568 164.398 319.232C164.326 319.184 164.29 319.128 164.29 319.064C164.29 319.008 164.318 318.952 164.374 318.896L164.53 318.728C164.578 318.664 164.638 318.632 164.71 318.632C164.766 318.632 164.818 318.656 164.866 318.704C165.25 319 165.59 319.208 165.886 319.328C166.182 319.44 166.506 319.496 166.858 319.496C167.298 319.496 167.658 319.4 167.938 319.208C168.218 319.008 168.358 318.74 168.358 318.404C168.358 318.068 168.214 317.82 167.926 317.66C167.638 317.5 167.194 317.356 166.594 317.228C166.066 317.116 165.65 317 165.346 316.88C165.05 316.752 164.83 316.592 164.686 316.4C164.542 316.208 164.47 315.956 164.47 315.644C164.47 315.132 164.678 314.72 165.094 314.408C165.51 314.096 166.034 313.94 166.666 313.94C167.098 313.94 167.482 313.996 167.818 314.108C168.162 314.212 168.506 314.388 168.85 314.636C168.922 314.692 168.958 314.752 168.958 314.816C168.958 314.856 168.938 314.908 168.898 314.972L168.754 315.152C168.714 315.216 168.658 315.248 168.586 315.248C168.522 315.248 168.466 315.228 168.418 315.188C168.09 314.956 167.798 314.8 167.542 314.72C167.294 314.64 167.01 314.6 166.69 314.6C166.25 314.6 165.898 314.696 165.634 314.888C165.37 315.08 165.238 315.324 165.238 315.62C165.238 315.804 165.298 315.952 165.418 316.064C165.538 316.176 165.71 316.272 165.934 316.352C166.158 316.424 166.486 316.508 166.918 316.604C167.718 316.78 168.286 316.996 168.622 317.252C168.966 317.508 169.138 317.88 169.138 318.368C169.138 318.904 168.926 319.336 168.502 319.664C168.078 319.992 167.53 320.156 166.858 320.156ZM170.802 320.084C170.634 320.084 170.49 320.024 170.37 319.904C170.25 319.784 170.19 319.64 170.19 319.472C170.19 319.304 170.25 319.16 170.37 319.04C170.49 318.92 170.634 318.86 170.802 318.86C170.97 318.86 171.114 318.92 171.234 319.04C171.354 319.16 171.414 319.304 171.414 319.472C171.414 319.64 171.354 319.784 171.234 319.904C171.114 320.024 170.97 320.084 170.802 320.084Z" fill="#D91F0A"/>
<defs>
<filter id="filter0_d_1811_19348" x="263.293" y="139.293" width="7.41431" height="8.41406" filterUnits="userSpaceOnUse" color-interpolation-filters="sRGB">
<feFlood flood-opacity="0" result="BackgroundImageFix"/>
<feColorMatrix in="SourceAlpha" type="matrix" values="0 0 0 0 0 0 0 0 0 0 0 0 0 0 0 0 0 0 127 0" result="hardAlpha"/>
<feOffset dy="1"/>
<feColorMatrix type="matrix" values="0 0 0 0 1 0 0 0 0 1 0 0 0 0 1 0 0 0 0.5 0"/>
<feBlend mode="normal" in2="BackgroundImageFix" result="effect1_dropShadow_1811_19348"/>
<feBlend mode="normal" in="SourceGraphic" in2="effect1_dropShadow_1811_19348" result="shape"/>
</filter>
<filter id="filter1_d_1811_19348" x="263.293" y="293.293" width="7.41431" height="8.41406" filterUnits="userSpaceOnUse" color-interpolation-filters="sRGB">
<feFlood flood-opacity="0" result="BackgroundImageFix"/>
<feColorMatrix in="SourceAlpha" type="matrix" values="0 0 0 0 0 0 0 0 0 0 0 0 0 0 0 0 0 0 127 0" result="hardAlpha"/>
<feOffset dy="1"/>
<feColorMatrix type="matrix" values="0 0 0 0 1 0 0 0 0 1 0 0 0 0 1 0 0 0 0.5 0"/>
<feBlend mode="normal" in2="BackgroundImageFix" result="effect1_dropShadow_1811_19348"/>
<feBlend mode="normal" in="SourceGraphic" in2="effect1_dropShadow_1811_19348" result="shape"/>
</filter>
</defs>
</svg>
