<svg width="344" height="190" viewBox="0 0 344 190" fill="none" xmlns="http://www.w3.org/2000/svg">
<rect width="344" height="190" fill="#F5F5F5"/>
<path d="M71.568 54C71.4187 54 71.2973 53.958 71.204 53.874C71.12 53.7807 71.078 53.6593 71.078 53.51V44.55C71.078 44.3913 71.12 44.27 71.204 44.186C71.2973 44.102 71.4187 44.06 71.568 44.06H72.184C72.3427 44.06 72.464 44.102 72.548 44.186C72.632 44.27 72.674 44.3913 72.674 44.55V52.642H76.72C76.8787 52.642 77 52.684 77.084 52.768C77.168 52.852 77.21 52.9733 77.21 53.132V53.51C77.21 53.6593 77.168 53.7807 77.084 53.874C77 53.958 76.8787 54 76.72 54H71.568ZM81.5043 46.888C82.4376 46.888 83.1563 47.1073 83.6603 47.546C84.1643 47.9753 84.4163 48.5493 84.4163 49.268V53.51C84.4163 53.6593 84.3743 53.7807 84.2903 53.874C84.2063 53.958 84.0849 54 83.9263 54H83.5623C83.4129 54 83.2916 53.958 83.1983 53.874C83.1143 53.7807 83.0723 53.6593 83.0723 53.51V53.202C82.8483 53.5287 82.5403 53.7807 82.1483 53.958C81.7563 54.1353 81.2989 54.224 80.7763 54.224C80.0576 54.224 79.4649 54.0653 78.9983 53.748C78.5409 53.4213 78.3123 52.9313 78.3123 52.278C78.3123 51.55 78.5829 51.0133 79.1243 50.668C79.6749 50.3133 80.4356 50.0473 81.4063 49.87L82.9883 49.576V49.324C82.9883 48.9413 82.8529 48.6473 82.5823 48.442C82.3209 48.2273 81.9709 48.12 81.5323 48.12C81.1589 48.12 80.8323 48.1853 80.5523 48.316C80.2816 48.4373 79.9876 48.6427 79.6703 48.932C79.5489 49.0347 79.4323 49.086 79.3203 49.086C79.2083 49.086 79.0916 49.0347 78.9703 48.932L78.7463 48.736C78.6249 48.624 78.5643 48.5027 78.5643 48.372C78.5643 48.2507 78.6203 48.134 78.7323 48.022C79.1336 47.6393 79.5583 47.3547 80.0063 47.168C80.4543 46.9813 80.9536 46.888 81.5043 46.888ZM80.9863 53.034C81.5463 53.034 82.0176 52.8847 82.4003 52.586C82.7923 52.2873 82.9883 51.858 82.9883 51.298V50.654L81.7703 50.906C81.0889 51.046 80.5849 51.2047 80.2583 51.382C79.9316 51.5593 79.7683 51.83 79.7683 52.194C79.7683 52.4553 79.8756 52.6607 80.0903 52.81C80.3049 52.9593 80.6036 53.034 80.9863 53.034ZM89.7798 46.916C90.3678 46.916 90.8905 47.0653 91.3478 47.364C91.8145 47.6627 92.1785 48.0873 92.4398 48.638C92.7011 49.1887 92.8318 49.8233 92.8318 50.542C92.8318 51.27 92.7011 51.9093 92.4398 52.46C92.1785 53.0107 91.8145 53.4353 91.3478 53.734C90.8811 54.0327 90.3585 54.182 89.7798 54.182C88.7438 54.182 87.9831 53.7947 87.4978 53.02V53.51C87.4978 53.6593 87.4558 53.7807 87.3718 53.874C87.2878 53.958 87.1665 54 87.0078 54H86.6018C86.4525 54 86.3311 53.958 86.2378 53.874C86.1538 53.7807 86.1118 53.6593 86.1118 53.51V44.55C86.1118 44.3913 86.1538 44.27 86.2378 44.186C86.3311 44.102 86.4525 44.06 86.6018 44.06H87.1058C87.2645 44.06 87.3858 44.102 87.4698 44.186C87.5538 44.27 87.5958 44.3913 87.5958 44.55V47.966C88.0905 47.266 88.8185 46.916 89.7798 46.916ZM89.4718 52.894C90.0318 52.894 90.4798 52.684 90.8158 52.264C91.1518 51.8347 91.3198 51.2607 91.3198 50.542C91.3198 49.8327 91.1518 49.2633 90.8158 48.834C90.4891 48.4047 90.0458 48.19 89.4858 48.19C88.9165 48.19 88.4498 48.4047 88.0858 48.834C87.7218 49.254 87.5398 49.8233 87.5398 50.542C87.5398 51.2793 87.7218 51.858 88.0858 52.278C88.4498 52.6887 88.9118 52.894 89.4718 52.894ZM99.2023 52.236C99.3236 52.1333 99.4403 52.082 99.5523 52.082C99.6643 52.082 99.7809 52.1427 99.9023 52.264L100.098 52.474C100.201 52.5953 100.252 52.712 100.252 52.824C100.252 52.9453 100.192 53.062 100.07 53.174C99.6409 53.5473 99.2116 53.8133 98.7823 53.972C98.3623 54.1307 97.8956 54.21 97.3823 54.21C96.6636 54.21 96.0383 54.0607 95.5063 53.762C94.9836 53.4633 94.5776 53.0433 94.2883 52.502C94.0083 51.9513 93.8682 51.3167 93.8682 50.598C93.8682 49.8887 94.0036 49.254 94.2743 48.694C94.5543 48.1247 94.9463 47.6813 95.4503 47.364C95.9636 47.0467 96.5609 46.888 97.2423 46.888C98.2596 46.888 99.0436 47.1913 99.5943 47.798C100.145 48.3953 100.42 49.2213 100.42 50.276V50.402C100.411 50.5513 100.364 50.668 100.28 50.752C100.196 50.836 100.075 50.878 99.9163 50.878H95.3243C95.3803 51.494 95.5809 51.998 95.9263 52.39C96.2809 52.7727 96.7756 52.964 97.4103 52.964C97.7556 52.964 98.0589 52.9127 98.3203 52.81C98.5816 52.698 98.8756 52.5067 99.2023 52.236ZM97.2143 48.064C96.7009 48.064 96.2856 48.218 95.9683 48.526C95.6603 48.8247 95.4596 49.2493 95.3663 49.8H98.9643C98.9269 49.2587 98.7589 48.834 98.4603 48.526C98.1616 48.218 97.7463 48.064 97.2143 48.064ZM102.326 54C102.176 54 102.055 53.958 101.962 53.874C101.878 53.7807 101.836 53.6593 101.836 53.51V44.55C101.836 44.3913 101.878 44.27 101.962 44.186C102.055 44.102 102.176 44.06 102.326 44.06H102.83C102.988 44.06 103.11 44.102 103.194 44.186C103.278 44.27 103.32 44.3913 103.32 44.55V53.51C103.32 53.6593 103.278 53.7807 103.194 53.874C103.11 53.958 102.988 54 102.83 54H102.326Z" fill="#D91F0A"/>
<rect x="70.5" y="62.5" width="202" height="87" rx="3.5" fill="white"/>
<path d="M79.808 91C79.5947 91 79.488 90.8933 79.488 90.68V79.96C79.488 79.7467 79.5947 79.64 79.808 79.64H80.304C80.5173 79.64 80.624 79.7467 80.624 79.96V90.68C80.624 90.8933 80.5173 91 80.304 91H79.808ZM90.0209 82.92C90.9915 82.92 91.7489 83.1547 92.2929 83.624C92.8369 84.0827 93.1089 84.6907 93.1089 85.448V90.68C93.1089 90.8933 93.0022 91 92.7889 91H92.4689C92.2555 91 92.1489 90.8933 92.1489 90.68V89.96C91.8822 90.3867 91.5035 90.7067 91.0129 90.92C90.5329 91.1333 89.9942 91.24 89.3969 91.24C88.5649 91.24 87.8875 91.064 87.3649 90.712C86.8422 90.36 86.5809 89.816 86.5809 89.08C86.5809 88.4933 86.7462 88.024 87.0769 87.672C87.4075 87.3093 87.8395 87.0373 88.3729 86.856C88.9062 86.664 89.5729 86.4933 90.3729 86.344L92.1009 86.04V85.528C92.1009 84.984 91.9142 84.5627 91.5409 84.264C91.1675 83.9547 90.6769 83.8 90.0689 83.8C89.6102 83.8 89.1942 83.8853 88.8209 84.056C88.4475 84.2267 88.0475 84.52 87.6209 84.936C87.5462 85.0107 87.4662 85.048 87.3809 85.048C87.3062 85.048 87.2369 85.016 87.1729 84.952L86.9649 84.76C86.8902 84.6853 86.8529 84.6053 86.8529 84.52C86.8529 84.424 86.8902 84.3387 86.9649 84.264C87.4129 83.7947 87.8822 83.4533 88.3729 83.24C88.8742 83.0267 89.4235 82.92 90.0209 82.92ZM89.4449 90.36C90.2129 90.36 90.8475 90.1573 91.3489 89.752C91.8502 89.3467 92.1009 88.8293 92.1009 88.2V86.856L90.6129 87.144C89.9195 87.2827 89.3702 87.416 88.9649 87.544C88.5595 87.672 88.2342 87.8587 87.9889 88.104C87.7435 88.3493 87.6209 88.6693 87.6209 89.064C87.6209 89.4693 87.7809 89.7893 88.1009 90.024C88.4315 90.248 88.8795 90.36 89.4449 90.36ZM103.466 82.92C104.319 82.92 104.97 83.1653 105.418 83.656C105.876 84.136 106.106 84.7547 106.106 85.512V90.68C106.106 90.8933 105.999 91 105.786 91H105.37C105.156 91 105.05 90.8933 105.05 90.68V85.8C105.05 85.16 104.9 84.6693 104.602 84.328C104.314 83.9867 103.882 83.816 103.306 83.816C102.698 83.816 102.212 84.0187 101.85 84.424C101.487 84.8293 101.306 85.352 101.306 85.992V90.68C101.306 90.8933 101.199 91 100.986 91H100.57C100.356 91 100.25 90.8933 100.25 90.68V85.8C100.25 85.16 100.1 84.6693 99.8016 84.328C99.5136 83.9867 99.0763 83.816 98.4896 83.816C97.9456 83.816 97.4923 83.9867 97.1296 84.328C96.7776 84.6693 96.5696 85.1173 96.5056 85.672V90.68C96.5056 90.8933 96.399 91 96.1856 91H95.7696C95.5563 91 95.4496 90.8933 95.4496 90.68V83.432C95.4496 83.2187 95.5563 83.112 95.7696 83.112H96.1216C96.335 83.112 96.4416 83.2187 96.4416 83.432V84.088C96.9216 83.3093 97.6843 82.92 98.7296 82.92C99.2736 82.92 99.7376 83.0427 100.122 83.288C100.516 83.5227 100.81 83.8427 101.002 84.248C101.567 83.3627 102.388 82.92 103.466 82.92ZM115.161 82.92C116.132 82.92 116.89 83.1547 117.434 83.624C117.978 84.0827 118.25 84.6907 118.25 85.448V90.68C118.25 90.8933 118.143 91 117.93 91H117.61C117.396 91 117.29 90.8933 117.29 90.68V89.96C117.023 90.3867 116.644 90.7067 116.154 90.92C115.674 91.1333 115.135 91.24 114.538 91.24C113.706 91.24 113.028 91.064 112.506 90.712C111.983 90.36 111.722 89.816 111.722 89.08C111.722 88.4933 111.887 88.024 112.218 87.672C112.548 87.3093 112.98 87.0373 113.514 86.856C114.047 86.664 114.714 86.4933 115.514 86.344L117.242 86.04V85.528C117.242 84.984 117.055 84.5627 116.682 84.264C116.308 83.9547 115.818 83.8 115.21 83.8C114.751 83.8 114.335 83.8853 113.962 84.056C113.588 84.2267 113.188 84.52 112.762 84.936C112.687 85.0107 112.607 85.048 112.522 85.048C112.447 85.048 112.378 85.016 112.314 84.952L112.106 84.76C112.031 84.6853 111.993 84.6053 111.993 84.52C111.993 84.424 112.031 84.3387 112.106 84.264C112.554 83.7947 113.023 83.4533 113.514 83.24C114.015 83.0267 114.564 82.92 115.161 82.92ZM114.586 90.36C115.354 90.36 115.988 90.1573 116.49 89.752C116.991 89.3467 117.242 88.8293 117.242 88.2V86.856L115.754 87.144C115.06 87.2827 114.511 87.416 114.106 87.544C113.7 87.672 113.375 87.8587 113.13 88.104C112.884 88.3493 112.762 88.6693 112.762 89.064C112.762 89.4693 112.922 89.7893 113.242 90.024C113.572 90.248 114.02 90.36 114.586 90.36ZM130.022 89.128C130.096 89.0533 130.176 89.016 130.262 89.016C130.336 89.016 130.406 89.048 130.47 89.112L130.678 89.304C130.752 89.3787 130.79 89.4587 130.79 89.544C130.79 89.608 130.758 89.6827 130.694 89.768C130.171 90.2907 129.664 90.664 129.174 90.888C128.683 91.1013 128.134 91.208 127.526 91.208C126.758 91.208 126.091 91.0373 125.526 90.696C124.96 90.3547 124.523 89.88 124.214 89.272C123.904 88.6533 123.75 87.9387 123.75 87.128C123.75 86.3067 123.899 85.5813 124.198 84.952C124.507 84.312 124.939 83.816 125.494 83.464C126.048 83.1013 126.688 82.92 127.414 82.92C128.491 82.92 129.339 83.256 129.958 83.928C130.576 84.6 130.886 85.5067 130.886 86.648V86.84C130.875 86.936 130.838 87.0107 130.774 87.064C130.72 87.1173 130.646 87.144 130.55 87.144H124.822C124.854 88.04 125.088 88.7973 125.526 89.416C125.974 90.024 126.64 90.328 127.526 90.328C128.006 90.328 128.427 90.2427 128.79 90.072C129.163 89.8907 129.574 89.576 130.022 89.128ZM127.414 83.8C126.71 83.8 126.128 84.0187 125.67 84.456C125.222 84.8827 124.95 85.512 124.854 86.344H129.83C129.808 85.5653 129.584 84.9467 129.158 84.488C128.731 84.0293 128.15 83.8 127.414 83.8ZM135.722 83.048C135.988 83.048 136.303 83.0907 136.666 83.176C136.858 83.24 136.932 83.3733 136.89 83.576L136.826 83.832C136.772 84.0347 136.639 84.1093 136.426 84.056C136.17 83.992 135.935 83.96 135.722 83.96C135.178 83.96 134.724 84.1947 134.362 84.664C134.01 85.1333 133.834 85.784 133.834 86.616V90.68C133.834 90.8933 133.727 91 133.514 91H133.098C132.884 91 132.778 90.8933 132.778 90.68V83.432C132.778 83.2187 132.884 83.112 133.098 83.112H133.45C133.663 83.112 133.77 83.2187 133.77 83.432V84.312C133.951 83.9173 134.207 83.608 134.538 83.384C134.879 83.16 135.274 83.048 135.722 83.048ZM141.269 83.048C141.535 83.048 141.85 83.0907 142.213 83.176C142.405 83.24 142.479 83.3733 142.437 83.576L142.373 83.832C142.319 84.0347 142.186 84.1093 141.973 84.056C141.717 83.992 141.482 83.96 141.269 83.96C140.725 83.96 140.271 84.1947 139.909 84.664C139.557 85.1333 139.381 85.784 139.381 86.616V90.68C139.381 90.8933 139.274 91 139.061 91H138.645C138.431 91 138.325 90.8933 138.325 90.68V83.432C138.325 83.2187 138.431 83.112 138.645 83.112H138.997C139.21 83.112 139.317 83.2187 139.317 83.432V84.312C139.498 83.9173 139.754 83.608 140.085 83.384C140.426 83.16 140.821 83.048 141.269 83.048ZM146.698 91.208C145.962 91.208 145.306 91.032 144.73 90.68C144.154 90.328 143.706 89.8427 143.386 89.224C143.066 88.5947 142.906 87.8747 142.906 87.064C142.906 86.2533 143.066 85.5387 143.386 84.92C143.706 84.2907 144.154 83.8 144.73 83.448C145.306 83.096 145.962 82.92 146.698 82.92C147.434 82.92 148.09 83.096 148.666 83.448C149.242 83.8 149.69 84.2907 150.01 84.92C150.33 85.5387 150.49 86.2533 150.49 87.064C150.49 87.8747 150.33 88.5947 150.01 89.224C149.69 89.8427 149.242 90.328 148.666 90.68C148.09 91.032 147.434 91.208 146.698 91.208ZM146.698 90.328C147.519 90.328 148.175 90.0293 148.666 89.432C149.157 88.824 149.402 88.0347 149.402 87.064C149.402 86.0933 149.157 85.3093 148.666 84.712C148.175 84.104 147.519 83.8 146.698 83.8C145.877 83.8 145.221 84.104 144.73 84.712C144.239 85.3093 143.994 86.0933 143.994 87.064C143.994 88.0347 144.239 88.824 144.73 89.432C145.221 90.0293 145.877 90.328 146.698 90.328ZM155.269 83.048C155.535 83.048 155.85 83.0907 156.213 83.176C156.405 83.24 156.479 83.3733 156.437 83.576L156.373 83.832C156.319 84.0347 156.186 84.1093 155.973 84.056C155.717 83.992 155.482 83.96 155.269 83.96C154.725 83.96 154.271 84.1947 153.909 84.664C153.557 85.1333 153.381 85.784 153.381 86.616V90.68C153.381 90.8933 153.274 91 153.061 91H152.645C152.431 91 152.325 90.8933 152.325 90.68V83.432C152.325 83.2187 152.431 83.112 152.645 83.112H152.997C153.21 83.112 153.317 83.2187 153.317 83.432V84.312C153.498 83.9173 153.754 83.608 154.085 83.384C154.426 83.16 154.821 83.048 155.269 83.048ZM165.111 90.12C165.143 90.1093 165.186 90.104 165.239 90.104C165.303 90.104 165.362 90.1253 165.415 90.168C165.468 90.2107 165.5 90.2693 165.511 90.344L165.559 90.568C165.57 90.5893 165.575 90.6267 165.575 90.68C165.575 90.8293 165.495 90.92 165.335 90.952C164.951 91.0693 164.54 91.128 164.103 91.128C163.41 91.128 162.914 90.9733 162.615 90.664C162.327 90.344 162.183 89.8853 162.183 89.288V83.912H160.999C160.786 83.912 160.679 83.8053 160.679 83.592V83.432C160.679 83.2187 160.786 83.112 160.999 83.112H162.183V80.68C162.183 80.4667 162.29 80.36 162.503 80.36H162.919C163.132 80.36 163.239 80.4667 163.239 80.68V83.112H165.159C165.372 83.112 165.479 83.2187 165.479 83.432V83.592C165.479 83.8053 165.372 83.912 165.159 83.912H163.239V89.16C163.239 89.5547 163.314 89.832 163.463 89.992C163.612 90.152 163.868 90.232 164.231 90.232C164.487 90.232 164.78 90.1947 165.111 90.12ZM172.537 89.128C172.612 89.0533 172.692 89.016 172.777 89.016C172.852 89.016 172.921 89.048 172.985 89.112L173.193 89.304C173.268 89.3787 173.305 89.4587 173.305 89.544C173.305 89.608 173.273 89.6827 173.209 89.768C172.687 90.2907 172.18 90.664 171.689 90.888C171.199 91.1013 170.649 91.208 170.041 91.208C169.273 91.208 168.607 91.0373 168.041 90.696C167.476 90.3547 167.039 89.88 166.729 89.272C166.42 88.6533 166.265 87.9387 166.265 87.128C166.265 86.3067 166.415 85.5813 166.713 84.952C167.023 84.312 167.455 83.816 168.009 83.464C168.564 83.1013 169.204 82.92 169.929 82.92C171.007 82.92 171.855 83.256 172.473 83.928C173.092 84.6 173.401 85.5067 173.401 86.648V86.84C173.391 86.936 173.353 87.0107 173.289 87.064C173.236 87.1173 173.161 87.144 173.065 87.144H167.337C167.369 88.04 167.604 88.7973 168.041 89.416C168.489 90.024 169.156 90.328 170.041 90.328C170.521 90.328 170.943 90.2427 171.305 90.072C171.679 89.8907 172.089 89.576 172.537 89.128ZM169.929 83.8C169.225 83.8 168.644 84.0187 168.185 84.456C167.737 84.8827 167.465 85.512 167.369 86.344H172.345C172.324 85.5653 172.1 84.9467 171.673 84.488C171.247 84.0293 170.665 83.8 169.929 83.8ZM180.882 90.616C180.925 90.6907 180.946 90.7547 180.946 90.808C180.946 90.936 180.861 91 180.69 91H180.21C180.05 91 179.922 90.9307 179.826 90.792L177.65 87.592L175.49 90.792C175.394 90.9307 175.266 91 175.106 91H174.658C174.573 91 174.504 90.984 174.45 90.952C174.408 90.9093 174.386 90.8613 174.386 90.808C174.386 90.7333 174.408 90.6693 174.45 90.616L177.042 86.888L174.658 83.496C174.616 83.4427 174.594 83.384 174.594 83.32C174.594 83.1813 174.685 83.112 174.866 83.112H175.33C175.49 83.112 175.618 83.1813 175.714 83.32L177.666 86.184L179.602 83.32C179.698 83.1813 179.826 83.112 179.986 83.112H180.418C180.504 83.112 180.568 83.1333 180.61 83.176C180.664 83.208 180.69 83.2507 180.69 83.304C180.69 83.3787 180.669 83.4427 180.626 83.496L178.29 86.84L180.882 90.616ZM186.189 90.12C186.221 90.1093 186.264 90.104 186.317 90.104C186.381 90.104 186.44 90.1253 186.493 90.168C186.546 90.2107 186.578 90.2693 186.589 90.344L186.637 90.568C186.648 90.5893 186.653 90.6267 186.653 90.68C186.653 90.8293 186.573 90.92 186.413 90.952C186.029 91.0693 185.618 91.128 185.181 91.128C184.488 91.128 183.992 90.9733 183.693 90.664C183.405 90.344 183.261 89.8853 183.261 89.288V83.912H182.077C181.864 83.912 181.757 83.8053 181.757 83.592V83.432C181.757 83.2187 181.864 83.112 182.077 83.112H183.261V80.68C183.261 80.4667 183.368 80.36 183.581 80.36H183.997C184.21 80.36 184.317 80.4667 184.317 80.68V83.112H186.237C186.45 83.112 186.557 83.2187 186.557 83.432V83.592C186.557 83.8053 186.45 83.912 186.237 83.912H184.317V89.16C184.317 89.5547 184.392 89.832 184.541 89.992C184.69 90.152 184.946 90.232 185.309 90.232C185.565 90.232 185.858 90.1947 186.189 90.12ZM194.896 82.92C195.867 82.92 196.624 83.1547 197.168 83.624C197.712 84.0827 197.984 84.6907 197.984 85.448V90.68C197.984 90.8933 197.877 91 197.664 91H197.344C197.131 91 197.024 90.8933 197.024 90.68V89.96C196.757 90.3867 196.379 90.7067 195.888 90.92C195.408 91.1333 194.869 91.24 194.272 91.24C193.44 91.24 192.763 91.064 192.24 90.712C191.717 90.36 191.456 89.816 191.456 89.08C191.456 88.4933 191.621 88.024 191.952 87.672C192.283 87.3093 192.715 87.0373 193.248 86.856C193.781 86.664 194.448 86.4933 195.248 86.344L196.976 86.04V85.528C196.976 84.984 196.789 84.5627 196.416 84.264C196.043 83.9547 195.552 83.8 194.944 83.8C194.485 83.8 194.069 83.8853 193.696 84.056C193.323 84.2267 192.923 84.52 192.496 84.936C192.421 85.0107 192.341 85.048 192.256 85.048C192.181 85.048 192.112 85.016 192.048 84.952L191.84 84.76C191.765 84.6853 191.728 84.6053 191.728 84.52C191.728 84.424 191.765 84.3387 191.84 84.264C192.288 83.7947 192.757 83.4533 193.248 83.24C193.749 83.0267 194.299 82.92 194.896 82.92ZM194.32 90.36C195.088 90.36 195.723 90.1573 196.224 89.752C196.725 89.3467 196.976 88.8293 196.976 88.2V86.856L195.488 87.144C194.795 87.2827 194.245 87.416 193.84 87.544C193.435 87.672 193.109 87.8587 192.864 88.104C192.619 88.3493 192.496 88.6693 192.496 89.064C192.496 89.4693 192.656 89.7893 192.976 90.024C193.307 90.248 193.755 90.36 194.32 90.36ZM203.269 83.048C203.535 83.048 203.85 83.0907 204.213 83.176C204.405 83.24 204.479 83.3733 204.437 83.576L204.373 83.832C204.319 84.0347 204.186 84.1093 203.973 84.056C203.717 83.992 203.482 83.96 203.269 83.96C202.725 83.96 202.271 84.1947 201.909 84.664C201.557 85.1333 201.381 85.784 201.381 86.616V90.68C201.381 90.8933 201.274 91 201.061 91H200.645C200.431 91 200.325 90.8933 200.325 90.68V83.432C200.325 83.2187 200.431 83.112 200.645 83.112H200.997C201.21 83.112 201.317 83.2187 201.317 83.432V84.312C201.498 83.9173 201.754 83.608 202.085 83.384C202.426 83.16 202.821 83.048 203.269 83.048ZM211.178 89.128C211.253 89.0533 211.333 89.016 211.418 89.016C211.493 89.016 211.562 89.048 211.626 89.112L211.834 89.304C211.909 89.3787 211.946 89.4587 211.946 89.544C211.946 89.608 211.914 89.6827 211.85 89.768C211.327 90.2907 210.821 90.664 210.33 90.888C209.839 91.1013 209.29 91.208 208.682 91.208C207.914 91.208 207.247 91.0373 206.682 90.696C206.117 90.3547 205.679 89.88 205.37 89.272C205.061 88.6533 204.906 87.9387 204.906 87.128C204.906 86.3067 205.055 85.5813 205.354 84.952C205.663 84.312 206.095 83.816 206.65 83.464C207.205 83.1013 207.845 82.92 208.57 82.92C209.647 82.92 210.495 83.256 211.114 83.928C211.733 84.6 212.042 85.5067 212.042 86.648V86.84C212.031 86.936 211.994 87.0107 211.93 87.064C211.877 87.1173 211.802 87.144 211.706 87.144H205.978C206.01 88.04 206.245 88.7973 206.682 89.416C207.13 90.024 207.797 90.328 208.682 90.328C209.162 90.328 209.583 90.2427 209.946 90.072C210.319 89.8907 210.73 89.576 211.178 89.128ZM208.57 83.8C207.866 83.8 207.285 84.0187 206.826 84.456C206.378 84.8827 206.106 85.512 206.01 86.344H210.986C210.965 85.5653 210.741 84.9467 210.314 84.488C209.887 84.0293 209.306 83.8 208.57 83.8ZM216.833 82.92C217.804 82.92 218.561 83.1547 219.105 83.624C219.649 84.0827 219.921 84.6907 219.921 85.448V90.68C219.921 90.8933 219.815 91 219.601 91H219.281C219.068 91 218.961 90.8933 218.961 90.68V89.96C218.695 90.3867 218.316 90.7067 217.825 90.92C217.345 91.1333 216.807 91.24 216.209 91.24C215.377 91.24 214.7 91.064 214.177 90.712C213.655 90.36 213.393 89.816 213.393 89.08C213.393 88.4933 213.559 88.024 213.889 87.672C214.22 87.3093 214.652 87.0373 215.185 86.856C215.719 86.664 216.385 86.4933 217.185 86.344L218.913 86.04V85.528C218.913 84.984 218.727 84.5627 218.353 84.264C217.98 83.9547 217.489 83.8 216.881 83.8C216.423 83.8 216.007 83.8853 215.633 84.056C215.26 84.2267 214.86 84.52 214.433 84.936C214.359 85.0107 214.279 85.048 214.193 85.048C214.119 85.048 214.049 85.016 213.985 84.952L213.777 84.76C213.703 84.6853 213.665 84.6053 213.665 84.52C213.665 84.424 213.703 84.3387 213.777 84.264C214.225 83.7947 214.695 83.4533 215.185 83.24C215.687 83.0267 216.236 82.92 216.833 82.92ZM216.257 90.36C217.025 90.36 217.66 90.1573 218.161 89.752C218.663 89.3467 218.913 88.8293 218.913 88.2V86.856L217.425 87.144C216.732 87.2827 216.183 87.416 215.777 87.544C215.372 87.672 215.047 87.8587 214.801 88.104C214.556 88.3493 214.433 88.6693 214.433 89.064C214.433 89.4693 214.593 89.7893 214.913 90.024C215.244 90.248 215.692 90.36 216.257 90.36Z" fill="#464646"/>
<g filter="url(#filter0_d_1715_18494)">
<path d="M269 140L263 146M269 144L267 146" stroke="#767676" stroke-linecap="square"/>
</g>
<rect x="70.5" y="62.5" width="202" height="87" rx="3.5" stroke="#D91F0A"/>
<defs>
<filter id="filter0_d_1715_18494" x="262.293" y="139.293" width="7.41431" height="8.41431" filterUnits="userSpaceOnUse" color-interpolation-filters="sRGB">
<feFlood flood-opacity="0" result="BackgroundImageFix"/>
<feColorMatrix in="SourceAlpha" type="matrix" values="0 0 0 0 0 0 0 0 0 0 0 0 0 0 0 0 0 0 127 0" result="hardAlpha"/>
<feOffset dy="1"/>
<feColorMatrix type="matrix" values="0 0 0 0 1 0 0 0 0 1 0 0 0 0 1 0 0 0 0.5 0"/>
<feBlend mode="normal" in2="BackgroundImageFix" result="effect1_dropShadow_1715_18494"/>
<feBlend mode="normal" in="SourceGraphic" in2="effect1_dropShadow_1715_18494" result="shape"/>
</filter>
</defs>
</svg>
