<svg width="344" height="190" viewBox="0 0 344 190" fill="none" xmlns="http://www.w3.org/2000/svg">
<rect width="344" height="190" fill="#F5F5F5"/>
<path d="M71.666 54C71.5167 54 71.3953 53.958 71.302 53.874C71.218 53.7807 71.176 53.6593 71.176 53.51V44.55C71.176 44.3913 71.218 44.27 71.302 44.186C71.3953 44.102 71.5167 44.06 71.666 44.06H72.282C72.4407 44.06 72.562 44.102 72.646 44.186C72.73 44.27 72.772 44.3913 72.772 44.55V53.51C72.772 53.6593 72.73 53.7807 72.646 53.874C72.562 53.958 72.4407 54 72.282 54H71.666ZM75.5332 44.004C75.8505 44.004 76.1118 44.1253 76.3172 44.368C76.5318 44.6013 76.6392 44.9327 76.6392 45.362C76.6392 45.8567 76.5132 46.314 76.2612 46.734C76.0092 47.154 75.6498 47.4387 75.1832 47.588C75.1085 47.6067 75.0572 47.616 75.0292 47.616C74.9078 47.616 74.8145 47.574 74.7492 47.49C74.6838 47.3967 74.6512 47.28 74.6512 47.14C74.6512 47.112 74.6698 47.084 74.7072 47.056C74.7538 47.028 74.8052 47 74.8612 46.972C74.9265 46.9347 74.9918 46.902 75.0572 46.874C75.2345 46.7807 75.3885 46.65 75.5192 46.482C75.6498 46.314 75.7338 46.1133 75.7712 45.88C75.6592 45.8987 75.5798 45.908 75.5332 45.908C75.2438 45.908 75.0058 45.824 74.8192 45.656C74.6325 45.4787 74.5392 45.25 74.5392 44.97C74.5392 44.6993 74.6372 44.4707 74.8332 44.284C75.0292 44.0973 75.2625 44.004 75.5332 44.004ZM85.0686 46.888C85.8059 46.888 86.3753 47.098 86.7766 47.518C87.1779 47.9287 87.3786 48.484 87.3786 49.184V53.51C87.3786 53.6593 87.3366 53.7807 87.2526 53.874C87.1686 53.958 87.0473 54 86.8886 54H86.3846C86.2353 54 86.1139 53.958 86.0206 53.874C85.9366 53.7807 85.8946 53.6593 85.8946 53.51V49.632C85.8946 49.1747 85.7919 48.8153 85.5866 48.554C85.3813 48.2927 85.0686 48.162 84.6486 48.162C84.2193 48.162 83.8786 48.3067 83.6266 48.596C83.3839 48.8853 83.2626 49.2587 83.2626 49.716V53.51C83.2626 53.6593 83.2206 53.7807 83.1366 53.874C83.0526 53.958 82.9313 54 82.7726 54H82.2686C82.1193 54 81.9979 53.958 81.9046 53.874C81.8206 53.7807 81.7786 53.6593 81.7786 53.51V49.632C81.7786 49.1747 81.6759 48.8153 81.4706 48.554C81.2746 48.2927 80.9666 48.162 80.5466 48.162C80.1359 48.162 79.8046 48.2973 79.5526 48.568C79.3006 48.8387 79.1653 49.1887 79.1466 49.618V53.51C79.1466 53.6593 79.1046 53.7807 79.0206 53.874C78.9366 53.958 78.8153 54 78.6566 54H78.1526C78.0033 54 77.8819 53.958 77.7886 53.874C77.7046 53.7807 77.6626 53.6593 77.6626 53.51V47.588C77.6626 47.4293 77.7046 47.308 77.7886 47.224C77.8819 47.14 78.0033 47.098 78.1526 47.098H78.5586C78.7173 47.098 78.8386 47.14 78.9226 47.224C79.0066 47.308 79.0486 47.4293 79.0486 47.588V47.896C79.4779 47.224 80.1406 46.888 81.0366 46.888C81.4846 46.888 81.8766 46.9813 82.2126 47.168C82.5486 47.3547 82.8053 47.616 82.9826 47.952C83.4586 47.2427 84.1539 46.888 85.0686 46.888ZM95.1215 46.888C96.0548 46.888 96.7735 47.1073 97.2775 47.546C97.7815 47.9753 98.0335 48.5493 98.0335 49.268V53.51C98.0335 53.6593 97.9915 53.7807 97.9075 53.874C97.8235 53.958 97.7021 54 97.5435 54H97.1795C97.0301 54 96.9088 53.958 96.8155 53.874C96.7315 53.7807 96.6895 53.6593 96.6895 53.51V53.202C96.4655 53.5287 96.1575 53.7807 95.7655 53.958C95.3735 54.1353 94.9161 54.224 94.3935 54.224C93.6748 54.224 93.0821 54.0653 92.6155 53.748C92.1581 53.4213 91.9295 52.9313 91.9295 52.278C91.9295 51.55 92.2001 51.0133 92.7415 50.668C93.2921 50.3133 94.0528 50.0473 95.0235 49.87L96.6055 49.576V49.324C96.6055 48.9413 96.4701 48.6473 96.1995 48.442C95.9381 48.2273 95.5881 48.12 95.1495 48.12C94.7761 48.12 94.4495 48.1853 94.1695 48.316C93.8988 48.4373 93.6048 48.6427 93.2875 48.932C93.1661 49.0347 93.0495 49.086 92.9375 49.086C92.8255 49.086 92.7088 49.0347 92.5875 48.932L92.3635 48.736C92.2421 48.624 92.1815 48.5027 92.1815 48.372C92.1815 48.2507 92.2375 48.134 92.3495 48.022C92.7508 47.6393 93.1755 47.3547 93.6235 47.168C94.0715 46.9813 94.5708 46.888 95.1215 46.888ZM94.6035 53.034C95.1635 53.034 95.6348 52.8847 96.0175 52.586C96.4095 52.2873 96.6055 51.858 96.6055 51.298V50.654L95.3875 50.906C94.7061 51.046 94.2021 51.2047 93.8755 51.382C93.5488 51.5593 93.3855 51.83 93.3855 52.194C93.3855 52.4553 93.4928 52.6607 93.7075 52.81C93.9221 52.9593 94.2208 53.034 94.6035 53.034ZM103.406 54C103.257 54 103.135 53.958 103.042 53.874C102.958 53.7807 102.916 53.6593 102.916 53.51V44.55C102.916 44.3913 102.958 44.27 103.042 44.186C103.135 44.102 103.257 44.06 103.406 44.06H103.91C104.069 44.06 104.19 44.102 104.274 44.186C104.358 44.27 104.4 44.3913 104.4 44.55V53.51C104.4 53.6593 104.358 53.7807 104.274 53.874C104.19 53.958 104.069 54 103.91 54H103.406ZM109.276 54.21C108.595 54.21 107.988 54.056 107.456 53.748C106.934 53.44 106.523 53.0107 106.224 52.46C105.926 51.9 105.776 51.2607 105.776 50.542C105.776 49.8233 105.926 49.1887 106.224 48.638C106.523 48.0873 106.934 47.658 107.456 47.35C107.988 47.042 108.595 46.888 109.276 46.888C109.948 46.888 110.55 47.042 111.082 47.35C111.614 47.658 112.03 48.092 112.328 48.652C112.627 49.2027 112.776 49.8327 112.776 50.542C112.776 51.2607 112.627 51.9 112.328 52.46C112.03 53.0107 111.614 53.44 111.082 53.748C110.55 54.056 109.948 54.21 109.276 54.21ZM109.276 52.964C109.874 52.964 110.354 52.7447 110.718 52.306C111.082 51.858 111.264 51.27 111.264 50.542C111.264 49.8233 111.082 49.2447 110.718 48.806C110.354 48.3673 109.874 48.148 109.276 48.148C108.679 48.148 108.198 48.3673 107.834 48.806C107.47 49.2447 107.288 49.8233 107.288 50.542C107.288 51.27 107.47 51.858 107.834 52.306C108.198 52.7447 108.679 52.964 109.276 52.964ZM117.598 46.888C118.392 46.888 118.998 47.112 119.418 47.56C119.848 47.9987 120.062 48.568 120.062 49.268V53.51C120.062 53.6593 120.02 53.7807 119.936 53.874C119.852 53.958 119.731 54 119.572 54H119.068C118.919 54 118.798 53.958 118.704 53.874C118.62 53.7807 118.578 53.6593 118.578 53.51V49.73C118.578 49.226 118.452 48.8387 118.2 48.568C117.958 48.2973 117.608 48.162 117.15 48.162C116.702 48.162 116.324 48.316 116.016 48.624C115.718 48.932 115.568 49.3193 115.568 49.786V53.51C115.568 53.6593 115.526 53.7807 115.442 53.874C115.358 53.958 115.237 54 115.078 54H114.574C114.425 54 114.304 53.958 114.21 53.874C114.126 53.7807 114.084 53.6593 114.084 53.51V47.588C114.084 47.4293 114.126 47.308 114.21 47.224C114.304 47.14 114.425 47.098 114.574 47.098H114.98C115.139 47.098 115.26 47.14 115.344 47.224C115.428 47.308 115.47 47.4293 115.47 47.588V47.952C115.694 47.6067 115.988 47.3453 116.352 47.168C116.716 46.9813 117.132 46.888 117.598 46.888ZM126.626 47.546C126.626 47.406 126.668 47.2987 126.752 47.224C126.845 47.14 126.967 47.098 127.116 47.098H127.508C127.667 47.098 127.788 47.14 127.872 47.224C127.956 47.308 127.998 47.4293 127.998 47.588V53.748C127.998 54.672 127.699 55.3907 127.102 55.904C126.514 56.4173 125.73 56.674 124.75 56.674C123.77 56.674 122.846 56.422 121.978 55.918C121.801 55.8247 121.712 55.6987 121.712 55.54C121.712 55.456 121.749 55.3533 121.824 55.232L122.006 54.966C122.109 54.8073 122.235 54.728 122.384 54.728C122.487 54.728 122.589 54.7607 122.692 54.826C123.065 55.0407 123.411 55.1947 123.728 55.288C124.045 55.3907 124.381 55.442 124.736 55.442C125.277 55.442 125.711 55.2927 126.038 54.994C126.374 54.7047 126.542 54.2473 126.542 53.622V52.88C126.075 53.5427 125.375 53.874 124.442 53.874C123.863 53.874 123.341 53.7293 122.874 53.44C122.417 53.1413 122.057 52.7307 121.796 52.208C121.544 51.676 121.418 51.0693 121.418 50.388C121.418 49.7067 121.544 49.1047 121.796 48.582C122.057 48.05 122.417 47.6347 122.874 47.336C123.341 47.0373 123.863 46.888 124.442 46.888C125.431 46.888 126.159 47.2567 126.626 47.994V47.546ZM124.736 52.628C125.277 52.628 125.721 52.4227 126.066 52.012C126.411 51.592 126.584 51.0507 126.584 50.388C126.584 49.7347 126.411 49.2027 126.066 48.792C125.73 48.372 125.287 48.162 124.736 48.162C124.176 48.162 123.733 48.3673 123.406 48.778C123.079 49.1887 122.916 49.7253 122.916 50.388C122.916 51.06 123.079 51.6013 123.406 52.012C123.733 52.4227 124.176 52.628 124.736 52.628ZM133.388 54C133.239 54 133.118 53.958 133.024 53.874C132.94 53.7807 132.898 53.6593 132.898 53.51V44.55C132.898 44.3913 132.94 44.27 133.024 44.186C133.118 44.102 133.239 44.06 133.388 44.06H133.892C134.051 44.06 134.172 44.102 134.256 44.186C134.34 44.27 134.382 44.3913 134.382 44.55V53.51C134.382 53.6593 134.34 53.7807 134.256 53.874C134.172 53.958 134.051 54 133.892 54H133.388ZM139.063 46.888C139.996 46.888 140.715 47.1073 141.219 47.546C141.723 47.9753 141.975 48.5493 141.975 49.268V53.51C141.975 53.6593 141.933 53.7807 141.849 53.874C141.765 53.958 141.644 54 141.485 54H141.121C140.972 54 140.85 53.958 140.757 53.874C140.673 53.7807 140.631 53.6593 140.631 53.51V53.202C140.407 53.5287 140.099 53.7807 139.707 53.958C139.315 54.1353 138.858 54.224 138.335 54.224C137.616 54.224 137.024 54.0653 136.557 53.748C136.1 53.4213 135.871 52.9313 135.871 52.278C135.871 51.55 136.142 51.0133 136.683 50.668C137.234 50.3133 137.994 50.0473 138.965 49.87L140.547 49.576V49.324C140.547 48.9413 140.412 48.6473 140.141 48.442C139.88 48.2273 139.53 48.12 139.091 48.12C138.718 48.12 138.391 48.1853 138.111 48.316C137.84 48.4373 137.546 48.6427 137.229 48.932C137.108 49.0347 136.991 49.086 136.879 49.086C136.767 49.086 136.65 49.0347 136.529 48.932L136.305 48.736C136.184 48.624 136.123 48.5027 136.123 48.372C136.123 48.2507 136.179 48.134 136.291 48.022C136.692 47.6393 137.117 47.3547 137.565 47.168C138.013 46.9813 138.512 46.888 139.063 46.888ZM138.545 53.034C139.105 53.034 139.576 52.8847 139.959 52.586C140.351 52.2873 140.547 51.858 140.547 51.298V50.654L139.329 50.906C138.648 51.046 138.144 51.2047 137.817 51.382C137.49 51.5593 137.327 51.83 137.327 52.194C137.327 52.4553 137.434 52.6607 137.649 52.81C137.864 52.9593 138.162 53.034 138.545 53.034ZM147.338 46.916C147.926 46.916 148.449 47.0653 148.906 47.364C149.373 47.6627 149.737 48.0873 149.998 48.638C150.26 49.1887 150.39 49.8233 150.39 50.542C150.39 51.27 150.26 51.9093 149.998 52.46C149.737 53.0107 149.373 53.4353 148.906 53.734C148.44 54.0327 147.917 54.182 147.338 54.182C146.302 54.182 145.542 53.7947 145.056 53.02V53.51C145.056 53.6593 145.014 53.7807 144.93 53.874C144.846 53.958 144.725 54 144.566 54H144.16C144.011 54 143.89 53.958 143.796 53.874C143.712 53.7807 143.67 53.6593 143.67 53.51V44.55C143.67 44.3913 143.712 44.27 143.796 44.186C143.89 44.102 144.011 44.06 144.16 44.06H144.664C144.823 44.06 144.944 44.102 145.028 44.186C145.112 44.27 145.154 44.3913 145.154 44.55V47.966C145.649 47.266 146.377 46.916 147.338 46.916ZM147.03 52.894C147.59 52.894 148.038 52.684 148.374 52.264C148.71 51.8347 148.878 51.2607 148.878 50.542C148.878 49.8327 148.71 49.2633 148.374 48.834C148.048 48.4047 147.604 48.19 147.044 48.19C146.475 48.19 146.008 48.4047 145.644 48.834C145.28 49.254 145.098 49.8233 145.098 50.542C145.098 51.2793 145.28 51.858 145.644 52.278C146.008 52.6887 146.47 52.894 147.03 52.894ZM156.761 52.236C156.882 52.1333 156.999 52.082 157.111 52.082C157.223 52.082 157.34 52.1427 157.461 52.264L157.657 52.474C157.76 52.5953 157.811 52.712 157.811 52.824C157.811 52.9453 157.75 53.062 157.629 53.174C157.2 53.5473 156.77 53.8133 156.341 53.972C155.921 54.1307 155.454 54.21 154.941 54.21C154.222 54.21 153.597 54.0607 153.065 53.762C152.542 53.4633 152.136 53.0433 151.847 52.502C151.567 51.9513 151.427 51.3167 151.427 50.598C151.427 49.8887 151.562 49.254 151.833 48.694C152.113 48.1247 152.505 47.6813 153.009 47.364C153.522 47.0467 154.12 46.888 154.801 46.888C155.818 46.888 156.602 47.1913 157.153 47.798C157.704 48.3953 157.979 49.2213 157.979 50.276V50.402C157.97 50.5513 157.923 50.668 157.839 50.752C157.755 50.836 157.634 50.878 157.475 50.878H152.883C152.939 51.494 153.14 51.998 153.485 52.39C153.84 52.7727 154.334 52.964 154.969 52.964C155.314 52.964 155.618 52.9127 155.879 52.81C156.14 52.698 156.434 52.5067 156.761 52.236ZM154.773 48.064C154.26 48.064 153.844 48.218 153.527 48.526C153.219 48.8247 153.018 49.2493 152.925 49.8H156.523C156.486 49.2587 156.318 48.834 156.019 48.526C155.72 48.218 155.305 48.064 154.773 48.064ZM159.884 54C159.735 54 159.614 53.958 159.52 53.874C159.436 53.7807 159.394 53.6593 159.394 53.51V44.55C159.394 44.3913 159.436 44.27 159.52 44.186C159.614 44.102 159.735 44.06 159.884 44.06H160.388C160.547 44.06 160.668 44.102 160.752 44.186C160.836 44.27 160.878 44.3913 160.878 44.55V53.51C160.878 53.6593 160.836 53.7807 160.752 53.874C160.668 53.958 160.547 54 160.388 54H159.884ZM169.11 52.824C169.138 52.8147 169.18 52.81 169.236 52.81C169.469 52.81 169.609 52.9453 169.656 53.216L169.698 53.44C169.707 53.468 169.712 53.5147 169.712 53.58C169.712 53.8133 169.581 53.9627 169.32 54.028C168.946 54.112 168.606 54.154 168.298 54.154C167.635 54.154 167.154 54 166.856 53.692C166.566 53.384 166.422 52.922 166.422 52.306V48.232H165.652C165.502 48.232 165.381 48.19 165.288 48.106C165.204 48.0127 165.162 47.8913 165.162 47.742V47.588C165.162 47.4293 165.204 47.308 165.288 47.224C165.381 47.14 165.502 47.098 165.652 47.098H166.422V45.362C166.422 45.2033 166.464 45.082 166.548 44.998C166.641 44.914 166.762 44.872 166.912 44.872H167.416C167.574 44.872 167.696 44.914 167.78 44.998C167.864 45.082 167.906 45.2033 167.906 45.362V47.098H169.166C169.324 47.098 169.446 47.14 169.53 47.224C169.614 47.308 169.656 47.4293 169.656 47.588V47.742C169.656 47.8913 169.614 48.0127 169.53 48.106C169.446 48.19 169.324 48.232 169.166 48.232H167.906V52.124C167.906 52.3947 167.962 52.586 168.074 52.698C168.195 52.81 168.386 52.866 168.648 52.866C168.76 52.866 168.914 52.852 169.11 52.824ZM174.391 46.888C175.185 46.888 175.791 47.112 176.211 47.56C176.641 47.9987 176.855 48.568 176.855 49.268V53.51C176.855 53.6593 176.813 53.7807 176.729 53.874C176.645 53.958 176.524 54 176.365 54H175.861C175.712 54 175.591 53.958 175.497 53.874C175.413 53.7807 175.371 53.6593 175.371 53.51V49.73C175.371 49.226 175.245 48.8387 174.993 48.568C174.751 48.2973 174.401 48.162 173.943 48.162C173.495 48.162 173.117 48.316 172.809 48.624C172.511 48.932 172.361 49.3193 172.361 49.786V53.51C172.361 53.6593 172.319 53.7807 172.235 53.874C172.151 53.958 172.03 54 171.871 54H171.367C171.218 54 171.097 53.958 171.003 53.874C170.919 53.7807 170.877 53.6593 170.877 53.51V44.55C170.877 44.3913 170.919 44.27 171.003 44.186C171.097 44.102 171.218 44.06 171.367 44.06H171.871C172.03 44.06 172.151 44.102 172.235 44.186C172.319 44.27 172.361 44.3913 172.361 44.55V47.812C172.585 47.5133 172.87 47.2847 173.215 47.126C173.57 46.9673 173.962 46.888 174.391 46.888ZM181.473 46.888C182.406 46.888 183.125 47.1073 183.629 47.546C184.133 47.9753 184.385 48.5493 184.385 49.268V53.51C184.385 53.6593 184.343 53.7807 184.259 53.874C184.175 53.958 184.054 54 183.895 54H183.531C183.382 54 183.26 53.958 183.167 53.874C183.083 53.7807 183.041 53.6593 183.041 53.51V53.202C182.817 53.5287 182.509 53.7807 182.117 53.958C181.725 54.1353 181.268 54.224 180.745 54.224C180.026 54.224 179.434 54.0653 178.967 53.748C178.51 53.4213 178.281 52.9313 178.281 52.278C178.281 51.55 178.552 51.0133 179.093 50.668C179.644 50.3133 180.404 50.0473 181.375 49.87L182.957 49.576V49.324C182.957 48.9413 182.822 48.6473 182.551 48.442C182.29 48.2273 181.94 48.12 181.501 48.12C181.128 48.12 180.801 48.1853 180.521 48.316C180.25 48.4373 179.956 48.6427 179.639 48.932C179.518 49.0347 179.401 49.086 179.289 49.086C179.177 49.086 179.06 49.0347 178.939 48.932L178.715 48.736C178.594 48.624 178.533 48.5027 178.533 48.372C178.533 48.2507 178.589 48.134 178.701 48.022C179.102 47.6393 179.527 47.3547 179.975 47.168C180.423 46.9813 180.922 46.888 181.473 46.888ZM180.955 53.034C181.515 53.034 181.986 52.8847 182.369 52.586C182.761 52.2873 182.957 51.858 182.957 51.298V50.654L181.739 50.906C181.058 51.046 180.554 51.2047 180.227 51.382C179.9 51.5593 179.737 51.83 179.737 52.194C179.737 52.4553 179.844 52.6607 180.059 52.81C180.274 52.9593 180.572 53.034 180.955 53.034ZM189.262 52.824C189.29 52.8147 189.332 52.81 189.388 52.81C189.622 52.81 189.762 52.9453 189.808 53.216L189.85 53.44C189.86 53.468 189.864 53.5147 189.864 53.58C189.864 53.8133 189.734 53.9627 189.472 54.028C189.099 54.112 188.758 54.154 188.45 54.154C187.788 54.154 187.307 54 187.008 53.692C186.719 53.384 186.574 52.922 186.574 52.306V48.232H185.804C185.655 48.232 185.534 48.19 185.44 48.106C185.356 48.0127 185.314 47.8913 185.314 47.742V47.588C185.314 47.4293 185.356 47.308 185.44 47.224C185.534 47.14 185.655 47.098 185.804 47.098H186.574V45.362C186.574 45.2033 186.616 45.082 186.7 44.998C186.794 44.914 186.915 44.872 187.064 44.872H187.568C187.727 44.872 187.848 44.914 187.932 44.998C188.016 45.082 188.058 45.2033 188.058 45.362V47.098H189.318C189.477 47.098 189.598 47.14 189.682 47.224C189.766 47.308 189.808 47.4293 189.808 47.588V47.742C189.808 47.8913 189.766 48.0127 189.682 48.106C189.598 48.19 189.477 48.232 189.318 48.232H188.058V52.124C188.058 52.3947 188.114 52.586 188.226 52.698C188.348 52.81 188.539 52.866 188.8 52.866C188.912 52.866 189.066 52.852 189.262 52.824ZM201.931 47.518C201.996 47.238 202.178 47.098 202.477 47.098H202.995C203.135 47.098 203.242 47.1307 203.317 47.196C203.401 47.252 203.443 47.3407 203.443 47.462C203.443 47.49 203.433 47.5507 203.415 47.644L201.749 53.58C201.683 53.86 201.501 54 201.203 54H200.293C200.013 54 199.831 53.86 199.747 53.58L199.285 51.956C199.079 51.2373 198.851 50.3367 198.599 49.254L198.529 48.946C198.277 50.0847 198.034 51.0927 197.801 51.97L197.367 53.58C197.301 53.86 197.119 54 196.821 54H195.925C195.645 54 195.463 53.86 195.379 53.58L193.699 47.644C193.68 47.5507 193.671 47.49 193.671 47.462C193.671 47.3407 193.708 47.252 193.783 47.196C193.867 47.1307 193.979 47.098 194.119 47.098H194.665C194.963 47.098 195.145 47.238 195.211 47.518L195.715 49.506C195.911 50.234 196.139 51.2047 196.401 52.418L196.457 52.698C196.727 51.4473 196.979 50.3833 197.213 49.506L197.745 47.518C197.81 47.238 197.992 47.098 198.291 47.098H198.823C199.121 47.098 199.303 47.238 199.369 47.518L199.915 49.506C200.176 50.4767 200.437 51.5407 200.699 52.698C200.895 51.6993 201.137 50.6353 201.427 49.506L201.931 47.518ZM207.782 47.028C207.988 47.028 208.198 47.0513 208.412 47.098C208.664 47.154 208.79 47.3033 208.79 47.546C208.79 47.6113 208.786 47.658 208.776 47.686L208.706 48.022C208.65 48.2833 208.51 48.414 208.286 48.414L208.16 48.4C207.992 48.372 207.843 48.358 207.712 48.358C207.246 48.358 206.868 48.5447 206.578 48.918C206.298 49.282 206.158 49.7907 206.158 50.444V53.51C206.158 53.6593 206.116 53.7807 206.032 53.874C205.948 53.958 205.827 54 205.668 54H205.164C205.015 54 204.894 53.958 204.8 53.874C204.716 53.7807 204.674 53.6593 204.674 53.51V47.588C204.674 47.4293 204.716 47.308 204.8 47.224C204.894 47.14 205.015 47.098 205.164 47.098H205.57C205.729 47.098 205.85 47.14 205.934 47.224C206.018 47.308 206.06 47.4293 206.06 47.588V48.134C206.228 47.7887 206.457 47.518 206.746 47.322C207.036 47.126 207.381 47.028 207.782 47.028ZM212.631 46.888C213.565 46.888 214.283 47.1073 214.787 47.546C215.291 47.9753 215.543 48.5493 215.543 49.268V53.51C215.543 53.6593 215.501 53.7807 215.417 53.874C215.333 53.958 215.212 54 215.053 54H214.689C214.54 54 214.419 53.958 214.325 53.874C214.241 53.7807 214.199 53.6593 214.199 53.51V53.202C213.975 53.5287 213.667 53.7807 213.275 53.958C212.883 54.1353 212.426 54.224 211.903 54.224C211.185 54.224 210.592 54.0653 210.125 53.748C209.668 53.4213 209.439 52.9313 209.439 52.278C209.439 51.55 209.71 51.0133 210.251 50.668C210.802 50.3133 211.563 50.0473 212.533 49.87L214.115 49.576V49.324C214.115 48.9413 213.98 48.6473 213.709 48.442C213.448 48.2273 213.098 48.12 212.659 48.12C212.286 48.12 211.959 48.1853 211.679 48.316C211.409 48.4373 211.115 48.6427 210.797 48.932C210.676 49.0347 210.559 49.086 210.447 49.086C210.335 49.086 210.219 49.0347 210.097 48.932L209.873 48.736C209.752 48.624 209.691 48.5027 209.691 48.372C209.691 48.2507 209.747 48.134 209.859 48.022C210.261 47.6393 210.685 47.3547 211.133 47.168C211.581 46.9813 212.081 46.888 212.631 46.888ZM212.113 53.034C212.673 53.034 213.145 52.8847 213.527 52.586C213.919 52.2873 214.115 51.858 214.115 51.298V50.654L212.897 50.906C212.216 51.046 211.712 51.2047 211.385 51.382C211.059 51.5593 210.895 51.83 210.895 52.194C210.895 52.4553 211.003 52.6607 211.217 52.81C211.432 52.9593 211.731 53.034 212.113 53.034ZM220.907 46.916C221.495 46.916 222.017 47.0653 222.475 47.364C222.941 47.6627 223.305 48.0873 223.567 48.638C223.828 49.1887 223.959 49.8233 223.959 50.542C223.959 51.27 223.828 51.9093 223.567 52.46C223.305 53.0107 222.941 53.4353 222.475 53.734C222.008 54.0327 221.485 54.182 220.907 54.182C219.936 54.182 219.208 53.846 218.723 53.174V55.988C218.723 56.1467 218.681 56.268 218.597 56.352C218.513 56.436 218.391 56.478 218.233 56.478H217.729C217.579 56.478 217.458 56.436 217.365 56.352C217.281 56.268 217.239 56.1467 217.239 55.988V47.588C217.239 47.4293 217.281 47.308 217.365 47.224C217.458 47.14 217.579 47.098 217.729 47.098H218.135C218.293 47.098 218.415 47.14 218.499 47.224C218.583 47.308 218.625 47.4293 218.625 47.588V48.106C219.119 47.3127 219.88 46.916 220.907 46.916ZM220.599 52.894C221.159 52.894 221.607 52.684 221.943 52.264C222.279 51.8347 222.447 51.2607 222.447 50.542C222.447 49.8327 222.279 49.2633 221.943 48.834C221.616 48.4047 221.173 48.19 220.613 48.19C220.043 48.19 219.577 48.4 219.213 48.82C218.849 49.24 218.667 49.814 218.667 50.542C218.667 51.27 218.849 51.844 219.213 52.264C219.577 52.684 220.039 52.894 220.599 52.894ZM227.965 54.21C227.396 54.21 226.887 54.14 226.439 54C226.001 53.8507 225.553 53.594 225.095 53.23C224.955 53.1273 224.885 53.0107 224.885 52.88C224.885 52.7773 224.937 52.6653 225.039 52.544L225.249 52.306C225.361 52.1753 225.483 52.11 225.613 52.11C225.716 52.11 225.828 52.1567 225.949 52.25C226.341 52.5393 226.687 52.74 226.985 52.852C227.284 52.9547 227.62 53.006 227.993 53.006C228.395 53.006 228.721 52.9267 228.973 52.768C229.235 52.6 229.365 52.376 229.365 52.096C229.365 51.8813 229.291 51.7133 229.141 51.592C229.001 51.4613 228.815 51.3633 228.581 51.298C228.348 51.2233 228.003 51.1393 227.545 51.046C226.901 50.906 226.397 50.7567 226.033 50.598C225.679 50.43 225.422 50.22 225.263 49.968C225.105 49.716 225.025 49.394 225.025 49.002C225.025 48.6007 225.137 48.2413 225.361 47.924C225.595 47.6067 225.917 47.3547 226.327 47.168C226.747 46.9813 227.237 46.888 227.797 46.888C228.301 46.888 228.749 46.944 229.141 47.056C229.543 47.168 229.935 47.3593 230.317 47.63C230.467 47.742 230.541 47.868 230.541 48.008C230.541 48.1013 230.495 48.2087 230.401 48.33L230.219 48.554C230.117 48.6847 229.991 48.75 229.841 48.75C229.729 48.75 229.622 48.7127 229.519 48.638C229.211 48.4327 228.927 48.2927 228.665 48.218C228.404 48.134 228.11 48.092 227.783 48.092C227.382 48.092 227.06 48.1713 226.817 48.33C226.575 48.4887 226.453 48.694 226.453 48.946C226.453 49.114 226.509 49.2493 226.621 49.352C226.743 49.4453 226.911 49.5293 227.125 49.604C227.349 49.6693 227.699 49.7533 228.175 49.856C228.819 49.996 229.328 50.1547 229.701 50.332C230.084 50.5 230.364 50.7193 230.541 50.99C230.728 51.2513 230.821 51.592 230.821 52.012C230.821 52.6653 230.56 53.1973 230.037 53.608C229.524 54.0093 228.833 54.21 227.965 54.21ZM238.563 52.824C238.591 52.8147 238.633 52.81 238.689 52.81C238.922 52.81 239.062 52.9453 239.109 53.216L239.151 53.44C239.16 53.468 239.165 53.5147 239.165 53.58C239.165 53.8133 239.034 53.9627 238.773 54.028C238.4 54.112 238.059 54.154 237.751 54.154C237.088 54.154 236.608 54 236.309 53.692C236.02 53.384 235.875 52.922 235.875 52.306V48.232H235.105C234.956 48.232 234.834 48.19 234.741 48.106C234.657 48.0127 234.615 47.8913 234.615 47.742V47.588C234.615 47.4293 234.657 47.308 234.741 47.224C234.834 47.14 234.956 47.098 235.105 47.098H235.875V45.362C235.875 45.2033 235.917 45.082 236.001 44.998C236.094 44.914 236.216 44.872 236.365 44.872H236.869C237.028 44.872 237.149 44.914 237.233 44.998C237.317 45.082 237.359 45.2033 237.359 45.362V47.098H238.619C238.778 47.098 238.899 47.14 238.983 47.224C239.067 47.308 239.109 47.4293 239.109 47.588V47.742C239.109 47.8913 239.067 48.0127 238.983 48.106C238.899 48.19 238.778 48.232 238.619 48.232H237.359V52.124C237.359 52.3947 237.415 52.586 237.527 52.698C237.648 52.81 237.84 52.866 238.101 52.866C238.213 52.866 238.367 52.852 238.563 52.824ZM243.22 54.21C242.538 54.21 241.932 54.056 241.4 53.748C240.877 53.44 240.466 53.0107 240.168 52.46C239.869 51.9 239.72 51.2607 239.72 50.542C239.72 49.8233 239.869 49.1887 240.168 48.638C240.466 48.0873 240.877 47.658 241.4 47.35C241.932 47.042 242.538 46.888 243.22 46.888C243.892 46.888 244.494 47.042 245.026 47.35C245.558 47.658 245.973 48.092 246.272 48.652C246.57 49.2027 246.72 49.8327 246.72 50.542C246.72 51.2607 246.57 51.9 246.272 52.46C245.973 53.0107 245.558 53.44 245.026 53.748C244.494 54.056 243.892 54.21 243.22 54.21ZM243.22 52.964C243.817 52.964 244.298 52.7447 244.662 52.306C245.026 51.858 245.208 51.27 245.208 50.542C245.208 49.8233 245.026 49.2447 244.662 48.806C244.298 48.3673 243.817 48.148 243.22 48.148C242.622 48.148 242.142 48.3673 241.778 48.806C241.414 49.2447 241.232 49.8233 241.232 50.542C241.232 51.27 241.414 51.858 241.778 52.306C242.142 52.7447 242.622 52.964 243.22 52.964ZM73.892 63.096C73.5653 63.096 73.3273 63.1753 73.178 63.334C73.0287 63.4927 72.954 63.7633 72.954 64.146V65.098H74.088C74.2467 65.098 74.368 65.14 74.452 65.224C74.536 65.308 74.578 65.4293 74.578 65.588V65.742C74.578 65.8913 74.536 66.0127 74.452 66.106C74.368 66.19 74.2467 66.232 74.088 66.232H72.954V71.51C72.954 71.6593 72.912 71.7807 72.828 71.874C72.744 71.958 72.6227 72 72.464 72H71.96C71.8107 72 71.6893 71.958 71.596 71.874C71.512 71.7807 71.47 71.6593 71.47 71.51V66.232H70.728C70.5787 66.232 70.4573 66.19 70.364 66.106C70.28 66.0127 70.238 65.8913 70.238 65.742V65.588C70.238 65.4293 70.28 65.308 70.364 65.224C70.4573 65.14 70.5787 65.098 70.728 65.098H71.47V64.048C71.47 63.3293 71.652 62.788 72.016 62.424C72.3893 62.0507 72.926 61.864 73.626 61.864C73.9433 61.864 74.2653 61.8967 74.592 61.962C74.8347 62.0273 74.956 62.1767 74.956 62.41C74.956 62.4753 74.9513 62.5267 74.942 62.564L74.9 62.76C74.844 63.0027 74.662 63.124 74.354 63.124L74.186 63.11C74.1207 63.1007 74.0227 63.096 73.892 63.096ZM78.5284 72.21C77.8471 72.21 77.2404 72.056 76.7084 71.748C76.1857 71.44 75.7751 71.0107 75.4764 70.46C75.1777 69.9 75.0284 69.2607 75.0284 68.542C75.0284 67.8233 75.1777 67.1887 75.4764 66.638C75.7751 66.0873 76.1857 65.658 76.7084 65.35C77.2404 65.042 77.8471 64.888 78.5284 64.888C79.2004 64.888 79.8024 65.042 80.3344 65.35C80.8664 65.658 81.2817 66.092 81.5804 66.652C81.8791 67.2027 82.0284 67.8327 82.0284 68.542C82.0284 69.2607 81.8791 69.9 81.5804 70.46C81.2817 71.0107 80.8664 71.44 80.3344 71.748C79.8024 72.056 79.2004 72.21 78.5284 72.21ZM78.5284 70.964C79.1257 70.964 79.6064 70.7447 79.9704 70.306C80.3344 69.858 80.5164 69.27 80.5164 68.542C80.5164 67.8233 80.3344 67.2447 79.9704 66.806C79.6064 66.3673 79.1257 66.148 78.5284 66.148C77.9311 66.148 77.4504 66.3673 77.0864 66.806C76.7224 67.2447 76.5404 67.8233 76.5404 68.542C76.5404 69.27 76.7224 69.858 77.0864 70.306C77.4504 70.7447 77.9311 70.964 78.5284 70.964ZM86.4444 65.028C86.6498 65.028 86.8598 65.0513 87.0744 65.098C87.3264 65.154 87.4524 65.3033 87.4524 65.546C87.4524 65.6113 87.4478 65.658 87.4384 65.686L87.3684 66.022C87.3124 66.2833 87.1724 66.414 86.9484 66.414L86.8224 66.4C86.6544 66.372 86.5051 66.358 86.3744 66.358C85.9078 66.358 85.5298 66.5447 85.2404 66.918C84.9604 67.282 84.8204 67.7907 84.8204 68.444V71.51C84.8204 71.6593 84.7784 71.7807 84.6944 71.874C84.6104 71.958 84.4891 72 84.3304 72H83.8264C83.6771 72 83.5558 71.958 83.4624 71.874C83.3784 71.7807 83.3364 71.6593 83.3364 71.51V65.588C83.3364 65.4293 83.3784 65.308 83.4624 65.224C83.5558 65.14 83.6771 65.098 83.8264 65.098H84.2324C84.3911 65.098 84.5124 65.14 84.5964 65.224C84.6804 65.308 84.7224 65.4293 84.7224 65.588V66.134C84.8904 65.7887 85.1191 65.518 85.4084 65.322C85.6978 65.126 86.0431 65.028 86.4444 65.028ZM95.9377 64.888C96.6751 64.888 97.2444 65.098 97.6457 65.518C98.0471 65.9287 98.2477 66.484 98.2477 67.184V71.51C98.2477 71.6593 98.2057 71.7807 98.1217 71.874C98.0377 71.958 97.9164 72 97.7577 72H97.2537C97.1044 72 96.9831 71.958 96.8897 71.874C96.8057 71.7807 96.7637 71.6593 96.7637 71.51V67.632C96.7637 67.1747 96.6611 66.8153 96.4557 66.554C96.2504 66.2927 95.9377 66.162 95.5177 66.162C95.0884 66.162 94.7477 66.3067 94.4957 66.596C94.2531 66.8853 94.1317 67.2587 94.1317 67.716V71.51C94.1317 71.6593 94.0897 71.7807 94.0057 71.874C93.9217 71.958 93.8004 72 93.6417 72H93.1377C92.9884 72 92.8671 71.958 92.7737 71.874C92.6897 71.7807 92.6477 71.6593 92.6477 71.51V67.632C92.6477 67.1747 92.5451 66.8153 92.3397 66.554C92.1437 66.2927 91.8357 66.162 91.4157 66.162C91.0051 66.162 90.6737 66.2973 90.4217 66.568C90.1697 66.8387 90.0344 67.1887 90.0157 67.618V71.51C90.0157 71.6593 89.9737 71.7807 89.8897 71.874C89.8057 71.958 89.6844 72 89.5257 72H89.0217C88.8724 72 88.7511 71.958 88.6577 71.874C88.5737 71.7807 88.5317 71.6593 88.5317 71.51V65.588C88.5317 65.4293 88.5737 65.308 88.6577 65.224C88.7511 65.14 88.8724 65.098 89.0217 65.098H89.4277C89.5864 65.098 89.7077 65.14 89.7917 65.224C89.8757 65.308 89.9177 65.4293 89.9177 65.588V65.896C90.3471 65.224 91.0097 64.888 91.9057 64.888C92.3537 64.888 92.7457 64.9813 93.0817 65.168C93.4177 65.3547 93.6744 65.616 93.8517 65.952C94.3277 65.2427 95.0231 64.888 95.9377 64.888ZM105.991 64.888C106.924 64.888 107.643 65.1073 108.147 65.546C108.651 65.9753 108.903 66.5493 108.903 67.268V71.51C108.903 71.6593 108.861 71.7807 108.777 71.874C108.693 71.958 108.571 72 108.413 72H108.049C107.899 72 107.778 71.958 107.685 71.874C107.601 71.7807 107.559 71.6593 107.559 71.51V71.202C107.335 71.5287 107.027 71.7807 106.635 71.958C106.243 72.1353 105.785 72.224 105.263 72.224C104.544 72.224 103.951 72.0653 103.485 71.748C103.027 71.4213 102.799 70.9313 102.799 70.278C102.799 69.55 103.069 69.0133 103.611 68.668C104.161 68.3133 104.922 68.0473 105.893 67.87L107.475 67.576V67.324C107.475 66.9413 107.339 66.6473 107.069 66.442C106.807 66.2273 106.457 66.12 106.019 66.12C105.645 66.12 105.319 66.1853 105.039 66.316C104.768 66.4373 104.474 66.6427 104.157 66.932C104.035 67.0347 103.919 67.086 103.807 67.086C103.695 67.086 103.578 67.0347 103.457 66.932L103.233 66.736C103.111 66.624 103.051 66.5027 103.051 66.372C103.051 66.2507 103.107 66.134 103.219 66.022C103.62 65.6393 104.045 65.3547 104.493 65.168C104.941 64.9813 105.44 64.888 105.991 64.888ZM105.473 71.034C106.033 71.034 106.504 70.8847 106.887 70.586C107.279 70.2873 107.475 69.858 107.475 69.298V68.654L106.257 68.906C105.575 69.046 105.071 69.2047 104.745 69.382C104.418 69.5593 104.255 69.83 104.255 70.194C104.255 70.4553 104.362 70.6607 104.577 70.81C104.791 70.9593 105.09 71.034 105.473 71.034ZM114.112 64.888C114.905 64.888 115.512 65.112 115.932 65.56C116.361 65.9987 116.576 66.568 116.576 67.268V71.51C116.576 71.6593 116.534 71.7807 116.45 71.874C116.366 71.958 116.245 72 116.086 72H115.582C115.433 72 115.311 71.958 115.218 71.874C115.134 71.7807 115.092 71.6593 115.092 71.51V67.73C115.092 67.226 114.966 66.8387 114.714 66.568C114.471 66.2973 114.121 66.162 113.664 66.162C113.216 66.162 112.838 66.316 112.53 66.624C112.231 66.932 112.082 67.3193 112.082 67.786V71.51C112.082 71.6593 112.04 71.7807 111.956 71.874C111.872 71.958 111.751 72 111.592 72H111.088C110.939 72 110.817 71.958 110.724 71.874C110.64 71.7807 110.598 71.6593 110.598 71.51V65.588C110.598 65.4293 110.64 65.308 110.724 65.224C110.817 65.14 110.939 65.098 111.088 65.098H111.494C111.653 65.098 111.774 65.14 111.858 65.224C111.942 65.308 111.984 65.4293 111.984 65.588V65.952C112.208 65.6067 112.502 65.3453 112.866 65.168C113.23 64.9813 113.645 64.888 114.112 64.888ZM121.39 72.21C120.708 72.21 120.102 72.056 119.57 71.748C119.047 71.44 118.636 71.0107 118.338 70.46C118.039 69.9 117.89 69.2607 117.89 68.542C117.89 67.8233 118.039 67.1887 118.338 66.638C118.636 66.0873 119.047 65.658 119.57 65.35C120.102 65.042 120.708 64.888 121.39 64.888C122.062 64.888 122.664 65.042 123.196 65.35C123.728 65.658 124.143 66.092 124.442 66.652C124.74 67.2027 124.89 67.8327 124.89 68.542C124.89 69.2607 124.74 69.9 124.442 70.46C124.143 71.0107 123.728 71.44 123.196 71.748C122.664 72.056 122.062 72.21 121.39 72.21ZM121.39 70.964C121.987 70.964 122.468 70.7447 122.832 70.306C123.196 69.858 123.378 69.27 123.378 68.542C123.378 67.8233 123.196 67.2447 122.832 66.806C122.468 66.3673 121.987 66.148 121.39 66.148C120.792 66.148 120.312 66.3673 119.948 66.806C119.584 67.2447 119.402 67.8233 119.402 68.542C119.402 69.27 119.584 69.858 119.948 70.306C120.312 70.7447 120.792 70.964 121.39 70.964ZM129.297 70.824C129.325 70.8147 129.367 70.81 129.423 70.81C129.657 70.81 129.797 70.9453 129.843 71.216L129.885 71.44C129.895 71.468 129.899 71.5147 129.899 71.58C129.899 71.8133 129.769 71.9627 129.507 72.028C129.134 72.112 128.793 72.154 128.485 72.154C127.823 72.154 127.342 72 127.043 71.692C126.754 71.384 126.609 70.922 126.609 70.306V66.232H125.839C125.69 66.232 125.569 66.19 125.475 66.106C125.391 66.0127 125.349 65.8913 125.349 65.742V65.588C125.349 65.4293 125.391 65.308 125.475 65.224C125.569 65.14 125.69 65.098 125.839 65.098H126.609V63.362C126.609 63.2033 126.651 63.082 126.735 62.998C126.829 62.914 126.95 62.872 127.099 62.872H127.603C127.762 62.872 127.883 62.914 127.967 62.998C128.051 63.082 128.093 63.2033 128.093 63.362V65.098H129.353C129.512 65.098 129.633 65.14 129.717 65.224C129.801 65.308 129.843 65.4293 129.843 65.588V65.742C129.843 65.8913 129.801 66.0127 129.717 66.106C129.633 66.19 129.512 66.232 129.353 66.232H128.093V70.124C128.093 70.3947 128.149 70.586 128.261 70.698C128.383 70.81 128.574 70.866 128.835 70.866C128.947 70.866 129.101 70.852 129.297 70.824ZM134.579 64.888C135.372 64.888 135.979 65.112 136.399 65.56C136.828 65.9987 137.043 66.568 137.043 67.268V71.51C137.043 71.6593 137.001 71.7807 136.917 71.874C136.833 71.958 136.712 72 136.553 72H136.049C135.9 72 135.778 71.958 135.685 71.874C135.601 71.7807 135.559 71.6593 135.559 71.51V67.73C135.559 67.226 135.433 66.8387 135.181 66.568C134.938 66.2973 134.588 66.162 134.131 66.162C133.683 66.162 133.305 66.316 132.997 66.624C132.698 66.932 132.549 67.3193 132.549 67.786V71.51C132.549 71.6593 132.507 71.7807 132.423 71.874C132.339 71.958 132.218 72 132.059 72H131.555C131.406 72 131.284 71.958 131.191 71.874C131.107 71.7807 131.065 71.6593 131.065 71.51V62.55C131.065 62.3913 131.107 62.27 131.191 62.186C131.284 62.102 131.406 62.06 131.555 62.06H132.059C132.218 62.06 132.339 62.102 132.423 62.186C132.507 62.27 132.549 62.3913 132.549 62.55V65.812C132.773 65.5133 133.058 65.2847 133.403 65.126C133.758 64.9673 134.15 64.888 134.579 64.888ZM143.691 70.236C143.812 70.1333 143.929 70.082 144.041 70.082C144.153 70.082 144.269 70.1427 144.391 70.264L144.587 70.474C144.689 70.5953 144.741 70.712 144.741 70.824C144.741 70.9453 144.68 71.062 144.559 71.174C144.129 71.5473 143.7 71.8133 143.271 71.972C142.851 72.1307 142.384 72.21 141.871 72.21C141.152 72.21 140.527 72.0607 139.995 71.762C139.472 71.4633 139.066 71.0433 138.777 70.502C138.497 69.9513 138.357 69.3167 138.357 68.598C138.357 67.8887 138.492 67.254 138.763 66.694C139.043 66.1247 139.435 65.6813 139.939 65.364C140.452 65.0467 141.049 64.888 141.731 64.888C142.748 64.888 143.532 65.1913 144.083 65.798C144.633 66.3953 144.909 67.2213 144.909 68.276V68.402C144.899 68.5513 144.853 68.668 144.769 68.752C144.685 68.836 144.563 68.878 144.405 68.878H139.813C139.869 69.494 140.069 69.998 140.415 70.39C140.769 70.7727 141.264 70.964 141.899 70.964C142.244 70.964 142.547 70.9127 142.809 70.81C143.07 70.698 143.364 70.5067 143.691 70.236ZM141.703 66.064C141.189 66.064 140.774 66.218 140.457 66.526C140.149 66.8247 139.948 67.2493 139.855 67.8H143.453C143.415 67.2587 143.247 66.834 142.949 66.526C142.65 66.218 142.235 66.064 141.703 66.064ZM149.376 65.028C149.581 65.028 149.791 65.0513 150.006 65.098C150.258 65.154 150.384 65.3033 150.384 65.546C150.384 65.6113 150.379 65.658 150.37 65.686L150.3 66.022C150.244 66.2833 150.104 66.414 149.88 66.414L149.754 66.4C149.586 66.372 149.437 66.358 149.306 66.358C148.839 66.358 148.461 66.5447 148.172 66.918C147.892 67.282 147.752 67.7907 147.752 68.444V71.51C147.752 71.6593 147.71 71.7807 147.626 71.874C147.542 71.958 147.421 72 147.262 72H146.758C146.609 72 146.487 71.958 146.394 71.874C146.31 71.7807 146.268 71.6593 146.268 71.51V65.588C146.268 65.4293 146.31 65.308 146.394 65.224C146.487 65.14 146.609 65.098 146.758 65.098H147.164C147.323 65.098 147.444 65.14 147.528 65.224C147.612 65.308 147.654 65.4293 147.654 65.588V66.134C147.822 65.7887 148.051 65.518 148.34 65.322C148.629 65.126 148.975 65.028 149.376 65.028ZM155.14 72C154.991 72 154.87 71.958 154.776 71.874C154.692 71.7807 154.65 71.6593 154.65 71.51V62.55C154.65 62.3913 154.692 62.27 154.776 62.186C154.87 62.102 154.991 62.06 155.14 62.06H155.644C155.803 62.06 155.924 62.102 156.008 62.186C156.092 62.27 156.134 62.3913 156.134 62.55V71.51C156.134 71.6593 156.092 71.7807 156.008 71.874C155.924 71.958 155.803 72 155.644 72H155.14ZM158.659 63.754C158.388 63.754 158.159 63.6653 157.973 63.488C157.786 63.3013 157.693 63.082 157.693 62.83C157.693 62.5687 157.786 62.3493 157.973 62.172C158.159 61.9947 158.388 61.906 158.659 61.906C158.929 61.906 159.158 61.9947 159.345 62.172C159.531 62.3493 159.625 62.5687 159.625 62.83C159.625 63.082 159.531 63.3013 159.345 63.488C159.158 63.6653 158.929 63.754 158.659 63.754ZM158.393 72C158.243 72 158.122 71.958 158.029 71.874C157.945 71.7807 157.903 71.6593 157.903 71.51V65.588C157.903 65.4293 157.945 65.308 158.029 65.224C158.122 65.14 158.243 65.098 158.393 65.098H158.897C159.055 65.098 159.177 65.14 159.261 65.224C159.345 65.308 159.387 65.4293 159.387 65.588V71.51C159.387 71.6593 159.345 71.7807 159.261 71.874C159.177 71.958 159.055 72 158.897 72H158.393ZM164.616 64.888C165.409 64.888 166.016 65.112 166.436 65.56C166.865 65.9987 167.08 66.568 167.08 67.268V71.51C167.08 71.6593 167.038 71.7807 166.954 71.874C166.87 71.958 166.749 72 166.59 72H166.086C165.937 72 165.815 71.958 165.722 71.874C165.638 71.7807 165.596 71.6593 165.596 71.51V67.73C165.596 67.226 165.47 66.8387 165.218 66.568C164.975 66.2973 164.625 66.162 164.168 66.162C163.72 66.162 163.342 66.316 163.034 66.624C162.735 66.932 162.586 67.3193 162.586 67.786V71.51C162.586 71.6593 162.544 71.7807 162.46 71.874C162.376 71.958 162.255 72 162.096 72H161.592C161.443 72 161.321 71.958 161.228 71.874C161.144 71.7807 161.102 71.6593 161.102 71.51V65.588C161.102 65.4293 161.144 65.308 161.228 65.224C161.321 65.14 161.443 65.098 161.592 65.098H161.998C162.157 65.098 162.278 65.14 162.362 65.224C162.446 65.308 162.488 65.4293 162.488 65.588V65.952C162.712 65.6067 163.006 65.3453 163.37 65.168C163.734 64.9813 164.149 64.888 164.616 64.888ZM173.728 70.236C173.849 70.1333 173.966 70.082 174.078 70.082C174.19 70.082 174.306 70.1427 174.428 70.264L174.624 70.474C174.726 70.5953 174.778 70.712 174.778 70.824C174.778 70.9453 174.717 71.062 174.596 71.174C174.166 71.5473 173.737 71.8133 173.308 71.972C172.888 72.1307 172.421 72.21 171.908 72.21C171.189 72.21 170.564 72.0607 170.032 71.762C169.509 71.4633 169.103 71.0433 168.814 70.502C168.534 69.9513 168.394 69.3167 168.394 68.598C168.394 67.8887 168.529 67.254 168.8 66.694C169.08 66.1247 169.472 65.6813 169.976 65.364C170.489 65.0467 171.086 64.888 171.768 64.888C172.785 64.888 173.569 65.1913 174.12 65.798C174.67 66.3953 174.946 67.2213 174.946 68.276V68.402C174.936 68.5513 174.89 68.668 174.806 68.752C174.722 68.836 174.6 68.878 174.442 68.878H169.85C169.906 69.494 170.106 69.998 170.452 70.39C170.806 70.7727 171.301 70.964 171.936 70.964C172.281 70.964 172.584 70.9127 172.846 70.81C173.107 70.698 173.401 70.5067 173.728 70.236ZM171.74 66.064C171.226 66.064 170.811 66.218 170.494 66.526C170.186 66.8247 169.985 67.2493 169.892 67.8H173.49C173.452 67.2587 173.284 66.834 172.986 66.526C172.687 66.218 172.272 66.064 171.74 66.064ZM177.089 72.14C176.809 72.14 176.567 72.042 176.361 71.846C176.165 71.6407 176.067 71.3933 176.067 71.104C176.067 70.8333 176.165 70.6 176.361 70.404C176.567 70.1987 176.809 70.096 177.089 70.096C177.369 70.096 177.607 70.1987 177.803 70.404C178.009 70.6 178.111 70.8333 178.111 71.104C178.111 71.3933 178.009 71.6407 177.803 71.846C177.607 72.042 177.369 72.14 177.089 72.14Z" fill="#464646"/>
<rect x="70.5" y="80.5" width="202" height="69" rx="3.5" fill="white"/>
<path d="M79.696 109C79.4827 109 79.376 108.893 79.376 108.68V97.96C79.376 97.7467 79.4827 97.64 79.696 97.64H80.192C80.4053 97.64 80.512 97.7467 80.512 97.96V102.664H87.072V97.96C87.072 97.7467 87.1787 97.64 87.392 97.64H87.888C88.1013 97.64 88.208 97.7467 88.208 97.96V108.68C88.208 108.893 88.1013 109 87.888 109H87.392C87.1787 109 87.072 108.893 87.072 108.68V103.608H80.512V108.68C80.512 108.893 80.4053 109 80.192 109H79.696ZM91.2901 99.112C91.0768 99.112 90.8955 99.0373 90.7461 98.888C90.6075 98.7387 90.5381 98.5573 90.5381 98.344C90.5381 98.1307 90.6075 97.9547 90.7461 97.816C90.8955 97.6773 91.0768 97.608 91.2901 97.608C91.5141 97.608 91.6955 97.6773 91.8341 97.816C91.9835 97.9547 92.0581 98.1307 92.0581 98.344C92.0581 98.5573 91.9835 98.7387 91.8341 98.888C91.6955 99.0373 91.5141 99.112 91.2901 99.112ZM91.0821 109C90.8688 109 90.7621 108.893 90.7621 108.68V101.432C90.7621 101.219 90.8688 101.112 91.0821 101.112H91.4981C91.7115 101.112 91.8181 101.219 91.8181 101.432V108.68C91.8181 108.893 91.7115 109 91.4981 109H91.0821ZM97.6884 100.92C98.6164 100.92 99.315 101.176 99.7844 101.688C100.264 102.2 100.504 102.84 100.504 103.608V108.68C100.504 108.893 100.398 109 100.184 109H99.7684C99.555 109 99.4484 108.893 99.4484 108.68V103.96C99.4484 103.256 99.2777 102.723 98.9364 102.36C98.595 101.997 98.1044 101.816 97.4644 101.816C97.059 101.816 96.6857 101.917 96.3444 102.12C96.003 102.312 95.731 102.579 95.5284 102.92C95.3257 103.261 95.2244 103.635 95.2244 104.04V108.68C95.2244 108.893 95.1177 109 94.9044 109H94.4884C94.275 109 94.1684 108.893 94.1684 108.68V101.432C94.1684 101.219 94.275 101.112 94.4884 101.112H94.8404C95.0537 101.112 95.1604 101.219 95.1604 101.432V102.2C95.427 101.773 95.779 101.453 96.2164 101.24C96.6537 101.027 97.1444 100.92 97.6884 100.92ZM106.174 108.12C106.206 108.109 106.248 108.104 106.302 108.104C106.366 108.104 106.424 108.125 106.478 108.168C106.531 108.211 106.563 108.269 106.574 108.344L106.622 108.568C106.632 108.589 106.638 108.627 106.638 108.68C106.638 108.829 106.558 108.92 106.398 108.952C106.014 109.069 105.603 109.128 105.166 109.128C104.472 109.128 103.976 108.973 103.678 108.664C103.39 108.344 103.246 107.885 103.246 107.288V101.912H102.062C101.848 101.912 101.742 101.805 101.742 101.592V101.432C101.742 101.219 101.848 101.112 102.062 101.112H103.246V98.68C103.246 98.4667 103.352 98.36 103.566 98.36H103.982C104.195 98.36 104.302 98.4667 104.302 98.68V101.112H106.222C106.435 101.112 106.542 101.219 106.542 101.432V101.592C106.542 101.805 106.435 101.912 106.222 101.912H104.302V107.16C104.302 107.555 104.376 107.832 104.526 107.992C104.675 108.152 104.931 108.232 105.294 108.232C105.55 108.232 105.843 108.195 106.174 108.12ZM108.897 109.112C108.673 109.112 108.481 109.032 108.321 108.872C108.161 108.712 108.081 108.52 108.081 108.296C108.081 108.072 108.161 107.88 108.321 107.72C108.481 107.56 108.673 107.48 108.897 107.48C109.121 107.48 109.313 107.56 109.473 107.72C109.633 107.88 109.713 108.072 109.713 108.296C109.713 108.52 109.633 108.712 109.473 108.872C109.313 109.032 109.121 109.112 108.897 109.112ZM112.132 109.112C111.908 109.112 111.716 109.032 111.556 108.872C111.396 108.712 111.316 108.52 111.316 108.296C111.316 108.072 111.396 107.88 111.556 107.72C111.716 107.56 111.908 107.48 112.132 107.48C112.356 107.48 112.548 107.56 112.708 107.72C112.868 107.88 112.948 108.072 112.948 108.296C112.948 108.52 112.868 108.712 112.708 108.872C112.548 109.032 112.356 109.112 112.132 109.112Z" fill="#C3CCD9"/>
<g filter="url(#filter0_d_1715_18874)">
<path d="M269 140L263 146M269 144L267 146" stroke="#767676" stroke-linecap="square"/>
</g>
<rect x="70.5" y="80.5" width="202" height="69" rx="3.5" stroke="#C3CCD9"/>
<defs>
<filter id="filter0_d_1715_18874" x="262.293" y="139.293" width="7.41431" height="8.41422" filterUnits="userSpaceOnUse" color-interpolation-filters="sRGB">
<feFlood flood-opacity="0" result="BackgroundImageFix"/>
<feColorMatrix in="SourceAlpha" type="matrix" values="0 0 0 0 0 0 0 0 0 0 0 0 0 0 0 0 0 0 127 0" result="hardAlpha"/>
<feOffset dy="1"/>
<feColorMatrix type="matrix" values="0 0 0 0 1 0 0 0 0 1 0 0 0 0 1 0 0 0 0.5 0"/>
<feBlend mode="normal" in2="BackgroundImageFix" result="effect1_dropShadow_1715_18874"/>
<feBlend mode="normal" in="SourceGraphic" in2="effect1_dropShadow_1715_18874" result="shape"/>
</filter>
</defs>
</svg>
