<svg width="344" height="190" viewBox="0 0 344 190" fill="none" xmlns="http://www.w3.org/2000/svg">
<rect width="344" height="190" fill="#F5F5F5"/>
<rect x="71.5" y="51.5" width="202" height="87" rx="3.5" fill="white"/>
<path d="M80.696 80C80.4827 80 80.376 79.8933 80.376 79.68V68.96C80.376 68.7467 80.4827 68.64 80.696 68.64H81.192C81.4053 68.64 81.512 68.7467 81.512 68.96V73.664H88.072V68.96C88.072 68.7467 88.1787 68.64 88.392 68.64H88.888C89.1013 68.64 89.208 68.7467 89.208 68.96V79.68C89.208 79.8933 89.1013 80 88.888 80H88.392C88.1787 80 88.072 79.8933 88.072 79.68V74.608H81.512V79.68C81.512 79.8933 81.4053 80 81.192 80H80.696ZM92.2901 70.112C92.0768 70.112 91.8955 70.0373 91.7461 69.888C91.6075 69.7387 91.5381 69.5573 91.5381 69.344C91.5381 69.1307 91.6075 68.9547 91.7461 68.816C91.8955 68.6773 92.0768 68.608 92.2901 68.608C92.5141 68.608 92.6955 68.6773 92.8341 68.816C92.9835 68.9547 93.0581 69.1307 93.0581 69.344C93.0581 69.5573 92.9835 69.7387 92.8341 69.888C92.6955 70.0373 92.5141 70.112 92.2901 70.112ZM92.0821 80C91.8688 80 91.7621 79.8933 91.7621 79.68V72.432C91.7621 72.2187 91.8688 72.112 92.0821 72.112H92.4981C92.7115 72.112 92.8181 72.2187 92.8181 72.432V79.68C92.8181 79.8933 92.7115 80 92.4981 80H92.0821ZM98.6884 71.92C99.6164 71.92 100.315 72.176 100.784 72.688C101.264 73.2 101.504 73.84 101.504 74.608V79.68C101.504 79.8933 101.398 80 101.184 80H100.768C100.555 80 100.448 79.8933 100.448 79.68V74.96C100.448 74.256 100.278 73.7227 99.9364 73.36C99.595 72.9973 99.1044 72.816 98.4644 72.816C98.059 72.816 97.6857 72.9173 97.3444 73.12C97.003 73.312 96.731 73.5787 96.5284 73.92C96.3257 74.2613 96.2244 74.6347 96.2244 75.04V79.68C96.2244 79.8933 96.1177 80 95.9044 80H95.4884C95.275 80 95.1684 79.8933 95.1684 79.68V72.432C95.1684 72.2187 95.275 72.112 95.4884 72.112H95.8404C96.0537 72.112 96.1604 72.2187 96.1604 72.432V73.2C96.427 72.7733 96.779 72.4533 97.2164 72.24C97.6537 72.0267 98.1444 71.92 98.6884 71.92ZM107.174 79.12C107.206 79.1093 107.248 79.104 107.302 79.104C107.366 79.104 107.424 79.1253 107.478 79.168C107.531 79.2107 107.563 79.2693 107.574 79.344L107.622 79.568C107.632 79.5893 107.638 79.6267 107.638 79.68C107.638 79.8293 107.558 79.92 107.398 79.952C107.014 80.0693 106.603 80.128 106.166 80.128C105.472 80.128 104.976 79.9733 104.678 79.664C104.39 79.344 104.246 78.8853 104.246 78.288V72.912H103.062C102.848 72.912 102.742 72.8053 102.742 72.592V72.432C102.742 72.2187 102.848 72.112 103.062 72.112H104.246V69.68C104.246 69.4667 104.352 69.36 104.566 69.36H104.982C105.195 69.36 105.302 69.4667 105.302 69.68V72.112H107.222C107.435 72.112 107.542 72.2187 107.542 72.432V72.592C107.542 72.8053 107.435 72.912 107.222 72.912H105.302V78.16C105.302 78.5547 105.376 78.832 105.526 78.992C105.675 79.152 105.931 79.232 106.294 79.232C106.55 79.232 106.843 79.1947 107.174 79.12ZM109.897 80.112C109.673 80.112 109.481 80.032 109.321 79.872C109.161 79.712 109.081 79.52 109.081 79.296C109.081 79.072 109.161 78.88 109.321 78.72C109.481 78.56 109.673 78.48 109.897 78.48C110.121 78.48 110.313 78.56 110.473 78.72C110.633 78.88 110.713 79.072 110.713 79.296C110.713 79.52 110.633 79.712 110.473 79.872C110.313 80.032 110.121 80.112 109.897 80.112ZM113.132 80.112C112.908 80.112 112.716 80.032 112.556 79.872C112.396 79.712 112.316 79.52 112.316 79.296C112.316 79.072 112.396 78.88 112.556 78.72C112.716 78.56 112.908 78.48 113.132 78.48C113.356 78.48 113.548 78.56 113.708 78.72C113.868 78.88 113.948 79.072 113.948 79.296C113.948 79.52 113.868 79.712 113.708 79.872C113.548 80.032 113.356 80.112 113.132 80.112ZM116.366 80.112C116.142 80.112 115.95 80.032 115.79 79.872C115.63 79.712 115.55 79.52 115.55 79.296C115.55 79.072 115.63 78.88 115.79 78.72C115.95 78.56 116.142 78.48 116.366 78.48C116.59 78.48 116.782 78.56 116.942 78.72C117.102 78.88 117.182 79.072 117.182 79.296C117.182 79.52 117.102 79.712 116.942 79.872C116.782 80.032 116.59 80.112 116.366 80.112Z" fill="#C3CCD9"/>
<g filter="url(#filter0_d_1811_19105)">
<path d="M270 129L264 135M270 133L268 135" stroke="#767676" stroke-linecap="square"/>
</g>
<rect x="71.5" y="51.5" width="202" height="87" rx="3.5" stroke="#C3CCD9"/>
<defs>
<filter id="filter0_d_1811_19105" x="263.293" y="128.293" width="7.41431" height="8.41418" filterUnits="userSpaceOnUse" color-interpolation-filters="sRGB">
<feFlood flood-opacity="0" result="BackgroundImageFix"/>
<feColorMatrix in="SourceAlpha" type="matrix" values="0 0 0 0 0 0 0 0 0 0 0 0 0 0 0 0 0 0 127 0" result="hardAlpha"/>
<feOffset dy="1"/>
<feColorMatrix type="matrix" values="0 0 0 0 1 0 0 0 0 1 0 0 0 0 1 0 0 0 0.5 0"/>
<feBlend mode="normal" in2="BackgroundImageFix" result="effect1_dropShadow_1811_19105"/>
<feBlend mode="normal" in="SourceGraphic" in2="effect1_dropShadow_1811_19105" result="shape"/>
</filter>
</defs>
</svg>
