<svg width="344" height="182" viewBox="0 0 344 182" fill="none" xmlns="http://www.w3.org/2000/svg">
<path d="M112 48C112 43.5817 115.582 40 120 40H232C236.418 40 240 43.5817 240 48V80C240 84.4183 236.418 88 232 88H120C115.582 88 112 84.4183 112 80V48Z" fill="#0063FB"/>
<path fill-rule="evenodd" clip-rule="evenodd" d="M136.75 57C136.75 56.5858 136.414 56.25 136 56.25C135.586 56.25 135.25 56.5858 135.25 57V66.4395L133.969 65.4143C133.645 65.1556 133.173 65.208 132.914 65.5315C132.656 65.8549 132.708 66.3269 133.031 66.5857L135.531 68.5857C135.805 68.8048 136.195 68.8048 136.469 68.5857L138.969 66.5857C139.292 66.3269 139.344 65.8549 139.086 65.5315C138.827 65.208 138.355 65.1556 138.031 65.4143L136.75 66.4395V57ZM129 70.25C128.586 70.25 128.25 70.5858 128.25 71C128.25 71.4142 128.586 71.75 129 71.75H143C143.414 71.75 143.75 71.4142 143.75 71C143.75 70.5858 143.414 70.25 143 70.25H129Z" fill="white"/>
<path d="M153.792 69C153.621 69 153.483 68.952 153.376 68.856C153.28 68.7493 153.232 68.6107 153.232 68.44V58.2C153.232 58.0187 153.28 57.88 153.376 57.784C153.483 57.688 153.621 57.64 153.792 57.64H157.648C158.715 57.64 159.627 57.88 160.384 58.36C161.152 58.84 161.733 59.512 162.128 60.376C162.533 61.2293 162.736 62.2107 162.736 63.32C162.736 64.4293 162.533 65.416 162.128 66.28C161.733 67.1333 161.152 67.8 160.384 68.28C159.627 68.76 158.715 69 157.648 69H153.792ZM157.376 67.464C158.464 67.464 159.317 67.1067 159.936 66.392C160.565 65.6667 160.88 64.6427 160.88 63.32C160.88 61.9973 160.565 60.9787 159.936 60.264C159.317 59.5387 158.464 59.176 157.376 59.176H155.056V67.464H157.376ZM168.091 69.24C167.312 69.24 166.619 69.064 166.011 68.712C165.413 68.36 164.944 67.8693 164.603 67.24C164.261 66.6 164.09 65.8693 164.09 65.048C164.09 64.2267 164.261 63.5013 164.603 62.872C164.944 62.2427 165.413 61.752 166.011 61.4C166.619 61.048 167.312 60.872 168.091 60.872C168.859 60.872 169.547 61.048 170.155 61.4C170.763 61.752 171.237 62.248 171.579 62.888C171.92 63.5173 172.091 64.2373 172.091 65.048C172.091 65.8693 171.92 66.6 171.579 67.24C171.237 67.8693 170.763 68.36 170.155 68.712C169.547 69.064 168.859 69.24 168.091 69.24ZM168.091 67.816C168.773 67.816 169.323 67.5653 169.739 67.064C170.155 66.552 170.363 65.88 170.363 65.048C170.363 64.2267 170.155 63.5653 169.739 63.064C169.323 62.5627 168.773 62.312 168.091 62.312C167.408 62.312 166.859 62.5627 166.443 63.064C166.027 63.5653 165.819 64.2267 165.819 65.048C165.819 65.88 166.027 66.552 166.443 67.064C166.859 67.5653 167.408 67.816 168.091 67.816ZM182.356 61.592C182.431 61.272 182.639 61.112 182.98 61.112H183.572C183.732 61.112 183.855 61.1493 183.94 61.224C184.036 61.288 184.084 61.3893 184.084 61.528C184.084 61.56 184.073 61.6293 184.052 61.736L182.148 68.52C182.073 68.84 181.865 69 181.524 69H180.484C180.164 69 179.956 68.84 179.86 68.52L179.332 66.664C179.097 65.8427 178.836 64.8133 178.548 63.576L178.468 63.224C178.18 64.5253 177.903 65.6773 177.636 66.68L177.14 68.52C177.065 68.84 176.857 69 176.516 69H175.492C175.172 69 174.964 68.84 174.868 68.52L172.948 61.736C172.927 61.6293 172.916 61.56 172.916 61.528C172.916 61.3893 172.959 61.288 173.044 61.224C173.14 61.1493 173.268 61.112 173.428 61.112H174.052C174.393 61.112 174.601 61.272 174.676 61.592L175.252 63.864C175.476 64.696 175.737 65.8053 176.036 67.192L176.1 67.512C176.409 66.0827 176.697 64.8667 176.964 63.864L177.572 61.592C177.647 61.272 177.855 61.112 178.196 61.112H178.804C179.145 61.112 179.353 61.272 179.428 61.592L180.052 63.864C180.351 64.9733 180.649 66.1893 180.948 67.512C181.172 66.3707 181.449 65.1547 181.78 63.864L182.356 61.592ZM189.508 60.872C190.414 60.872 191.108 61.128 191.588 61.64C192.078 62.1413 192.324 62.792 192.324 63.592V68.44C192.324 68.6107 192.276 68.7493 192.18 68.856C192.084 68.952 191.945 69 191.764 69H191.188C191.017 69 190.878 68.952 190.772 68.856C190.676 68.7493 190.628 68.6107 190.628 68.44V64.12C190.628 63.544 190.484 63.1013 190.196 62.792C189.918 62.4827 189.518 62.328 188.996 62.328C188.484 62.328 188.052 62.504 187.7 62.856C187.358 63.208 187.188 63.6507 187.188 64.184V68.44C187.188 68.6107 187.14 68.7493 187.044 68.856C186.948 68.952 186.809 69 186.628 69H186.052C185.881 69 185.742 68.952 185.636 68.856C185.54 68.7493 185.492 68.6107 185.492 68.44V61.672C185.492 61.4907 185.54 61.352 185.636 61.256C185.742 61.16 185.881 61.112 186.052 61.112H186.516C186.697 61.112 186.836 61.16 186.932 61.256C187.028 61.352 187.076 61.4907 187.076 61.672V62.088C187.332 61.6933 187.668 61.3947 188.084 61.192C188.5 60.9787 188.974 60.872 189.508 60.872ZM194.897 69C194.726 69 194.588 68.952 194.481 68.856C194.385 68.7493 194.337 68.6107 194.337 68.44V58.2C194.337 58.0187 194.385 57.88 194.481 57.784C194.588 57.688 194.726 57.64 194.897 57.64H195.473C195.654 57.64 195.793 57.688 195.889 57.784C195.985 57.88 196.033 58.0187 196.033 58.2V68.44C196.033 68.6107 195.985 68.7493 195.889 68.856C195.793 68.952 195.654 69 195.473 69H194.897ZM201.606 69.24C200.827 69.24 200.134 69.064 199.526 68.712C198.929 68.36 198.459 67.8693 198.118 67.24C197.777 66.6 197.606 65.8693 197.606 65.048C197.606 64.2267 197.777 63.5013 198.118 62.872C198.459 62.2427 198.929 61.752 199.526 61.4C200.134 61.048 200.827 60.872 201.606 60.872C202.374 60.872 203.062 61.048 203.67 61.4C204.278 61.752 204.753 62.248 205.094 62.888C205.435 63.5173 205.606 64.2373 205.606 65.048C205.606 65.8693 205.435 66.6 205.094 67.24C204.753 67.8693 204.278 68.36 203.67 68.712C203.062 69.064 202.374 69.24 201.606 69.24ZM201.606 67.816C202.289 67.816 202.838 67.5653 203.254 67.064C203.67 66.552 203.878 65.88 203.878 65.048C203.878 64.2267 203.67 63.5653 203.254 63.064C202.838 62.5627 202.289 62.312 201.606 62.312C200.923 62.312 200.374 62.5627 199.958 63.064C199.542 63.5653 199.334 64.2267 199.334 65.048C199.334 65.88 199.542 66.552 199.958 67.064C200.374 67.5653 200.923 67.816 201.606 67.816ZM210.429 60.872C211.496 60.872 212.317 61.1227 212.893 61.624C213.469 62.1147 213.757 62.7707 213.757 63.592V68.44C213.757 68.6107 213.709 68.7493 213.613 68.856C213.517 68.952 213.378 69 213.197 69H212.781C212.61 69 212.472 68.952 212.365 68.856C212.269 68.7493 212.221 68.6107 212.221 68.44V68.088C211.965 68.4613 211.613 68.7493 211.165 68.952C210.717 69.1547 210.194 69.256 209.597 69.256C208.776 69.256 208.098 69.0747 207.565 68.712C207.042 68.3387 206.781 67.7787 206.781 67.032C206.781 66.2 207.09 65.5867 207.709 65.192C208.338 64.7867 209.208 64.4827 210.317 64.28L212.125 63.944V63.656C212.125 63.2187 211.97 62.8827 211.661 62.648C211.362 62.4027 210.962 62.28 210.461 62.28C210.034 62.28 209.661 62.3547 209.341 62.504C209.032 62.6427 208.696 62.8773 208.333 63.208C208.194 63.3253 208.061 63.384 207.933 63.384C207.805 63.384 207.672 63.3253 207.533 63.208L207.277 62.984C207.138 62.856 207.069 62.7173 207.069 62.568C207.069 62.4293 207.133 62.296 207.261 62.168C207.72 61.7307 208.205 61.4053 208.717 61.192C209.229 60.9787 209.8 60.872 210.429 60.872ZM209.837 67.896C210.477 67.896 211.016 67.7253 211.453 67.384C211.901 67.0427 212.125 66.552 212.125 65.912V65.176L210.733 65.464C209.954 65.624 209.378 65.8053 209.005 66.008C208.632 66.2107 208.445 66.52 208.445 66.936C208.445 67.2347 208.568 67.4693 208.813 67.64C209.058 67.8107 209.4 67.896 209.837 67.896ZM221.247 58.184C221.247 58.0027 221.295 57.864 221.391 57.768C221.497 57.672 221.636 57.624 221.807 57.624H222.383C222.564 57.624 222.703 57.672 222.799 57.768C222.895 57.864 222.943 58.0027 222.943 58.184V68.44C222.943 68.6107 222.895 68.7493 222.799 68.856C222.703 68.952 222.564 69 222.383 69H221.919C221.748 69 221.609 68.952 221.503 68.856C221.407 68.7493 221.359 68.6107 221.359 68.44V67.88C220.804 68.776 219.935 69.224 218.751 69.224C218.089 69.224 217.492 69.0533 216.959 68.712C216.436 68.3707 216.025 67.8853 215.727 67.256C215.428 66.6267 215.279 65.896 215.279 65.064C215.279 64.2427 215.428 63.5173 215.727 62.888C216.036 62.2587 216.457 61.7733 216.991 61.432C217.524 61.0907 218.121 60.92 218.783 60.92C219.871 60.92 220.692 61.2987 221.247 62.056V58.184ZM219.103 67.768C219.753 67.768 220.287 67.528 220.703 67.048C221.119 66.5573 221.327 65.896 221.327 65.064C221.327 64.232 221.119 63.576 220.703 63.096C220.287 62.616 219.753 62.376 219.103 62.376C218.473 62.376 217.967 62.6213 217.583 63.112C217.199 63.6027 217.007 64.2533 217.007 65.064C217.007 65.8853 217.193 66.5413 217.567 67.032C217.951 67.5227 218.463 67.768 219.103 67.768Z" fill="white"/>
<path d="M120 42H232V38H120V42ZM238 48V80H242V48H238ZM232 86H120V90H232V86ZM114 80V48H110V80H114ZM120 86C116.686 86 114 83.3137 114 80H110C110 85.5228 114.477 90 120 90V86ZM238 80C238 83.3137 235.314 86 232 86V90C237.523 90 242 85.5228 242 80H238ZM232 42C235.314 42 238 44.6863 238 48H242C242 42.4772 237.523 38 232 38V42ZM120 38C114.477 38 110 42.4772 110 48H114C114 44.6863 116.686 42 120 42V38Z" fill="#0063FB"/>
<path d="M121 120C121 115.582 124.582 112 129 112H223C227.418 112 231 115.582 231 120V134C231 138.418 227.418 142 223 142H129C124.582 142 121 138.418 121 134V120Z" fill="#0063FB"/>
<path fill-rule="evenodd" clip-rule="evenodd" d="M145.75 120C145.75 119.586 145.414 119.25 145 119.25C144.586 119.25 144.25 119.586 144.25 120V129.44L142.969 128.414C142.645 128.156 142.173 128.208 141.914 128.531C141.656 128.855 141.708 129.327 142.031 129.586L144.531 131.586C144.805 131.805 145.195 131.805 145.469 131.586L147.969 129.586C148.292 129.327 148.344 128.855 148.086 128.531C147.827 128.208 147.355 128.156 147.031 128.414L145.75 129.44V120ZM138 133.25C137.586 133.25 137.25 133.586 137.25 134C137.25 134.414 137.586 134.75 138 134.75H152C152.414 134.75 152.75 134.414 152.75 134C152.75 133.586 152.414 133.25 152 133.25H138Z" fill="white"/>
<path d="M162.344 131C162.216 131 162.112 130.964 162.032 130.892C161.96 130.812 161.924 130.708 161.924 130.58V122.9C161.924 122.764 161.96 122.66 162.032 122.588C162.112 122.516 162.216 122.48 162.344 122.48H165.236C166.036 122.48 166.72 122.66 167.288 123.02C167.864 123.38 168.3 123.884 168.596 124.532C168.9 125.172 169.052 125.908 169.052 126.74C169.052 127.572 168.9 128.312 168.596 128.96C168.3 129.6 167.864 130.1 167.288 130.46C166.72 130.82 166.036 131 165.236 131H162.344ZM165.032 129.848C165.848 129.848 166.488 129.58 166.952 129.044C167.424 128.5 167.66 127.732 167.66 126.74C167.66 125.748 167.424 124.984 166.952 124.448C166.488 123.904 165.848 123.632 165.032 123.632H163.292V129.848H165.032ZM173.068 131.18C172.484 131.18 171.964 131.048 171.508 130.784C171.06 130.52 170.708 130.152 170.452 129.68C170.196 129.2 170.068 128.652 170.068 128.036C170.068 127.42 170.196 126.876 170.452 126.404C170.708 125.932 171.06 125.564 171.508 125.3C171.964 125.036 172.484 124.904 173.068 124.904C173.644 124.904 174.16 125.036 174.616 125.3C175.072 125.564 175.428 125.936 175.684 126.416C175.94 126.888 176.068 127.428 176.068 128.036C176.068 128.652 175.94 129.2 175.684 129.68C175.428 130.152 175.072 130.52 174.616 130.784C174.16 131.048 173.644 131.18 173.068 131.18ZM173.068 130.112C173.58 130.112 173.992 129.924 174.304 129.548C174.616 129.164 174.772 128.66 174.772 128.036C174.772 127.42 174.616 126.924 174.304 126.548C173.992 126.172 173.58 125.984 173.068 125.984C172.556 125.984 172.144 126.172 171.832 126.548C171.52 126.924 171.364 127.42 171.364 128.036C171.364 128.66 171.52 129.164 171.832 129.548C172.144 129.924 172.556 130.112 173.068 130.112ZM183.767 125.444C183.823 125.204 183.979 125.084 184.235 125.084H184.679C184.799 125.084 184.891 125.112 184.955 125.168C185.027 125.216 185.063 125.292 185.063 125.396C185.063 125.42 185.055 125.472 185.039 125.552L183.611 130.64C183.555 130.88 183.399 131 183.143 131H182.363C182.123 131 181.967 130.88 181.895 130.64L181.499 129.248C181.323 128.632 181.127 127.86 180.911 126.932L180.851 126.668C180.635 127.644 180.427 128.508 180.227 129.26L179.855 130.64C179.799 130.88 179.643 131 179.387 131H178.619C178.379 131 178.223 130.88 178.151 130.64L176.711 125.552C176.695 125.472 176.687 125.42 176.687 125.396C176.687 125.292 176.719 125.216 176.783 125.168C176.855 125.112 176.951 125.084 177.071 125.084H177.539C177.795 125.084 177.951 125.204 178.007 125.444L178.439 127.148C178.607 127.772 178.803 128.604 179.027 129.644L179.075 129.884C179.307 128.812 179.523 127.9 179.723 127.148L180.179 125.444C180.235 125.204 180.391 125.084 180.647 125.084H181.103C181.359 125.084 181.515 125.204 181.571 125.444L182.039 127.148C182.263 127.98 182.487 128.892 182.711 129.884C182.879 129.028 183.087 128.116 183.335 127.148L183.767 125.444ZM189.131 124.904C189.811 124.904 190.331 125.096 190.691 125.48C191.059 125.856 191.243 126.344 191.243 126.944V130.58C191.243 130.708 191.207 130.812 191.135 130.892C191.063 130.964 190.959 131 190.823 131H190.391C190.263 131 190.159 130.964 190.079 130.892C190.007 130.812 189.971 130.708 189.971 130.58V127.34C189.971 126.908 189.863 126.576 189.647 126.344C189.439 126.112 189.139 125.996 188.747 125.996C188.363 125.996 188.039 126.128 187.775 126.392C187.519 126.656 187.391 126.988 187.391 127.388V130.58C187.391 130.708 187.355 130.812 187.283 130.892C187.211 130.964 187.107 131 186.971 131H186.539C186.411 131 186.307 130.964 186.227 130.892C186.155 130.812 186.119 130.708 186.119 130.58V125.504C186.119 125.368 186.155 125.264 186.227 125.192C186.307 125.12 186.411 125.084 186.539 125.084H186.887C187.023 125.084 187.127 125.12 187.199 125.192C187.271 125.264 187.307 125.368 187.307 125.504V125.816C187.499 125.52 187.751 125.296 188.063 125.144C188.375 124.984 188.731 124.904 189.131 124.904ZM193.173 131C193.045 131 192.941 130.964 192.861 130.892C192.789 130.812 192.753 130.708 192.753 130.58V122.9C192.753 122.764 192.789 122.66 192.861 122.588C192.941 122.516 193.045 122.48 193.173 122.48H193.605C193.741 122.48 193.845 122.516 193.917 122.588C193.989 122.66 194.025 122.764 194.025 122.9V130.58C194.025 130.708 193.989 130.812 193.917 130.892C193.845 130.964 193.741 131 193.605 131H193.173ZM198.205 131.18C197.621 131.18 197.101 131.048 196.645 130.784C196.197 130.52 195.845 130.152 195.589 129.68C195.333 129.2 195.205 128.652 195.205 128.036C195.205 127.42 195.333 126.876 195.589 126.404C195.845 125.932 196.197 125.564 196.645 125.3C197.101 125.036 197.621 124.904 198.205 124.904C198.781 124.904 199.297 125.036 199.753 125.3C200.209 125.564 200.565 125.936 200.821 126.416C201.077 126.888 201.205 127.428 201.205 128.036C201.205 128.652 201.077 129.2 200.821 129.68C200.565 130.152 200.209 130.52 199.753 130.784C199.297 131.048 198.781 131.18 198.205 131.18ZM198.205 130.112C198.717 130.112 199.129 129.924 199.441 129.548C199.753 129.164 199.909 128.66 199.909 128.036C199.909 127.42 199.753 126.924 199.441 126.548C199.129 126.172 198.717 125.984 198.205 125.984C197.693 125.984 197.281 126.172 196.969 126.548C196.657 126.924 196.501 127.42 196.501 128.036C196.501 128.66 196.657 129.164 196.969 129.548C197.281 129.924 197.693 130.112 198.205 130.112ZM204.822 124.904C205.622 124.904 206.238 125.092 206.67 125.468C207.102 125.836 207.318 126.328 207.318 126.944V130.58C207.318 130.708 207.282 130.812 207.21 130.892C207.138 130.964 207.034 131 206.898 131H206.586C206.458 131 206.354 130.964 206.274 130.892C206.202 130.812 206.166 130.708 206.166 130.58V130.316C205.974 130.596 205.71 130.812 205.374 130.964C205.038 131.116 204.646 131.192 204.198 131.192C203.582 131.192 203.074 131.056 202.674 130.784C202.282 130.504 202.086 130.084 202.086 129.524C202.086 128.9 202.318 128.44 202.782 128.144C203.254 127.84 203.906 127.612 204.738 127.46L206.094 127.208V126.992C206.094 126.664 205.978 126.412 205.746 126.236C205.522 126.052 205.222 125.96 204.846 125.96C204.526 125.96 204.246 126.016 204.006 126.128C203.774 126.232 203.522 126.408 203.25 126.656C203.146 126.744 203.046 126.788 202.95 126.788C202.854 126.788 202.754 126.744 202.65 126.656L202.458 126.488C202.354 126.392 202.302 126.288 202.302 126.176C202.302 126.072 202.35 125.972 202.446 125.876C202.79 125.548 203.154 125.304 203.538 125.144C203.922 124.984 204.35 124.904 204.822 124.904ZM204.378 130.172C204.858 130.172 205.262 130.044 205.59 129.788C205.926 129.532 206.094 129.164 206.094 128.684V128.132L205.05 128.348C204.466 128.468 204.034 128.604 203.754 128.756C203.474 128.908 203.334 129.14 203.334 129.452C203.334 129.676 203.426 129.852 203.61 129.98C203.794 130.108 204.05 130.172 204.378 130.172ZM212.935 122.888C212.935 122.752 212.971 122.648 213.043 122.576C213.123 122.504 213.227 122.468 213.355 122.468H213.787C213.923 122.468 214.027 122.504 214.099 122.576C214.171 122.648 214.207 122.752 214.207 122.888V130.58C214.207 130.708 214.171 130.812 214.099 130.892C214.027 130.964 213.923 131 213.787 131H213.439C213.311 131 213.207 130.964 213.127 130.892C213.055 130.812 213.019 130.708 213.019 130.58V130.16C212.603 130.832 211.951 131.168 211.063 131.168C210.567 131.168 210.119 131.04 209.719 130.784C209.327 130.528 209.019 130.164 208.795 129.692C208.571 129.22 208.459 128.672 208.459 128.048C208.459 127.432 208.571 126.888 208.795 126.416C209.027 125.944 209.343 125.58 209.743 125.324C210.143 125.068 210.591 124.94 211.087 124.94C211.903 124.94 212.519 125.224 212.935 125.792V122.888ZM211.327 130.076C211.815 130.076 212.215 129.896 212.527 129.536C212.839 129.168 212.995 128.672 212.995 128.048C212.995 127.424 212.839 126.932 212.527 126.572C212.215 126.212 211.815 126.032 211.327 126.032C210.855 126.032 210.475 126.216 210.187 126.584C209.899 126.952 209.755 127.44 209.755 128.048C209.755 128.664 209.895 129.156 210.175 129.524C210.463 129.892 210.847 130.076 211.327 130.076Z" fill="white"/>
<path d="M129 114H223V110H129V114ZM229 120V134H233V120H229ZM223 140H129V144H223V140ZM123 134V120H119V134H123ZM129 140C125.686 140 123 137.314 123 134H119C119 139.523 123.477 144 129 144V140ZM229 134C229 137.314 226.314 140 223 140V144C228.523 144 233 139.523 233 134H229ZM223 114C226.314 114 229 116.686 229 120H233C233 114.477 228.523 110 223 110V114ZM129 110C123.477 110 119 114.477 119 120H123C123 116.686 125.686 114 129 114V110Z" fill="#0063FB"/>
</svg>
