<svg width="344" height="128" viewBox="0 0 344 128" fill="none" xmlns="http://www.w3.org/2000/svg">
<path d="M108 48C108 43.5817 111.582 40 116 40H228C232.418 40 236 43.5817 236 48V80C236 84.4183 232.418 88 228 88H116C111.582 88 108 84.4183 108 80V48Z" fill="#D9270A"/>
<path d="M125.792 69C125.621 69 125.483 68.952 125.376 68.856C125.28 68.7493 125.232 68.6107 125.232 68.44V58.2C125.232 58.0187 125.28 57.88 125.376 57.784C125.483 57.688 125.621 57.64 125.792 57.64H129.648C130.715 57.64 131.627 57.88 132.384 58.36C133.152 58.84 133.733 59.512 134.128 60.376C134.533 61.2293 134.736 62.2107 134.736 63.32C134.736 64.4293 134.533 65.416 134.128 66.28C133.733 67.1333 133.152 67.8 132.384 68.28C131.627 68.76 130.715 69 129.648 69H125.792ZM129.376 67.464C130.464 67.464 131.317 67.1067 131.936 66.392C132.565 65.6667 132.88 64.6427 132.88 63.32C132.88 61.9973 132.565 60.9787 131.936 60.264C131.317 59.5387 130.464 59.176 129.376 59.176H127.056V67.464H129.376ZM142.187 66.984C142.325 66.8667 142.459 66.808 142.587 66.808C142.715 66.808 142.848 66.8773 142.987 67.016L143.211 67.256C143.328 67.3947 143.387 67.528 143.387 67.656C143.387 67.7947 143.317 67.928 143.179 68.056C142.688 68.4827 142.197 68.7867 141.707 68.968C141.227 69.1493 140.693 69.24 140.107 69.24C139.285 69.24 138.571 69.0693 137.963 68.728C137.365 68.3867 136.901 67.9067 136.571 67.288C136.251 66.6587 136.09 65.9333 136.09 65.112C136.09 64.3013 136.245 63.576 136.555 62.936C136.875 62.2853 137.323 61.7787 137.899 61.416C138.485 61.0533 139.168 60.872 139.947 60.872C141.109 60.872 142.005 61.2187 142.635 61.912C143.264 62.5947 143.579 63.5387 143.579 64.744V64.888C143.568 65.0587 143.515 65.192 143.419 65.288C143.323 65.384 143.184 65.432 143.003 65.432H137.755C137.819 66.136 138.048 66.712 138.443 67.16C138.848 67.5973 139.413 67.816 140.139 67.816C140.533 67.816 140.88 67.7573 141.179 67.64C141.477 67.512 141.813 67.2933 142.187 66.984ZM139.915 62.216C139.328 62.216 138.853 62.392 138.491 62.744C138.139 63.0853 137.909 63.5707 137.803 64.2H141.915C141.872 63.5813 141.68 63.096 141.339 62.744C140.997 62.392 140.523 62.216 139.915 62.216ZM145.756 69C145.586 69 145.447 68.952 145.34 68.856C145.244 68.7493 145.196 68.6107 145.196 68.44V58.2C145.196 58.0187 145.244 57.88 145.34 57.784C145.447 57.688 145.586 57.64 145.756 57.64H146.332C146.514 57.64 146.652 57.688 146.748 57.784C146.844 57.88 146.892 58.0187 146.892 58.2V68.44C146.892 68.6107 146.844 68.7493 146.748 68.856C146.652 68.952 146.514 69 146.332 69H145.756ZM154.562 66.984C154.7 66.8667 154.834 66.808 154.962 66.808C155.09 66.808 155.223 66.8773 155.362 67.016L155.586 67.256C155.703 67.3947 155.762 67.528 155.762 67.656C155.762 67.7947 155.692 67.928 155.554 68.056C155.063 68.4827 154.572 68.7867 154.082 68.968C153.602 69.1493 153.068 69.24 152.482 69.24C151.66 69.24 150.946 69.0693 150.338 68.728C149.74 68.3867 149.276 67.9067 148.946 67.288C148.626 66.6587 148.465 65.9333 148.465 65.112C148.465 64.3013 148.62 63.576 148.93 62.936C149.25 62.2853 149.698 61.7787 150.274 61.416C150.86 61.0533 151.543 60.872 152.322 60.872C153.484 60.872 154.38 61.2187 155.01 61.912C155.639 62.5947 155.954 63.5387 155.954 64.744V64.888C155.943 65.0587 155.89 65.192 155.794 65.288C155.698 65.384 155.559 65.432 155.378 65.432H150.13C150.194 66.136 150.423 66.712 150.818 67.16C151.223 67.5973 151.788 67.816 152.514 67.816C152.908 67.816 153.255 67.7573 153.554 67.64C153.852 67.512 154.188 67.2933 154.562 66.984ZM152.29 62.216C151.703 62.216 151.228 62.392 150.866 62.744C150.514 63.0853 150.284 63.5707 150.178 64.2H154.29C154.247 63.5813 154.055 63.096 153.714 62.744C153.372 62.392 152.898 62.216 152.29 62.216ZM161.222 67.656C161.254 67.6453 161.302 67.64 161.366 67.64C161.632 67.64 161.792 67.7947 161.846 68.104L161.894 68.36C161.904 68.392 161.91 68.4453 161.91 68.52C161.91 68.7867 161.76 68.9573 161.462 69.032C161.035 69.128 160.646 69.176 160.294 69.176C159.536 69.176 158.987 69 158.646 68.648C158.315 68.296 158.15 67.768 158.15 67.064V62.408H157.27C157.099 62.408 156.96 62.36 156.854 62.264C156.758 62.1573 156.71 62.0187 156.71 61.848V61.672C156.71 61.4907 156.758 61.352 156.854 61.256C156.96 61.16 157.099 61.112 157.27 61.112H158.15V59.128C158.15 58.9467 158.198 58.808 158.294 58.712C158.4 58.616 158.539 58.568 158.71 58.568H159.286C159.467 58.568 159.606 58.616 159.702 58.712C159.798 58.808 159.846 58.9467 159.846 59.128V61.112H161.286C161.467 61.112 161.606 61.16 161.702 61.256C161.798 61.352 161.846 61.4907 161.846 61.672V61.848C161.846 62.0187 161.798 62.1573 161.702 62.264C161.606 62.36 161.467 62.408 161.286 62.408H159.846V66.856C159.846 67.1653 159.91 67.384 160.038 67.512C160.176 67.64 160.395 67.704 160.694 67.704C160.822 67.704 160.998 67.688 161.222 67.656ZM168.64 66.984C168.778 66.8667 168.912 66.808 169.04 66.808C169.168 66.808 169.301 66.8773 169.44 67.016L169.664 67.256C169.781 67.3947 169.84 67.528 169.84 67.656C169.84 67.7947 169.77 67.928 169.632 68.056C169.141 68.4827 168.65 68.7867 168.16 68.968C167.68 69.1493 167.146 69.24 166.56 69.24C165.738 69.24 165.024 69.0693 164.416 68.728C163.818 68.3867 163.354 67.9067 163.024 67.288C162.704 66.6587 162.544 65.9333 162.544 65.112C162.544 64.3013 162.698 63.576 163.008 62.936C163.328 62.2853 163.776 61.7787 164.352 61.416C164.938 61.0533 165.621 60.872 166.4 60.872C167.562 60.872 168.458 61.2187 169.088 61.912C169.717 62.5947 170.032 63.5387 170.032 64.744V64.888C170.021 65.0587 169.968 65.192 169.872 65.288C169.776 65.384 169.637 65.432 169.456 65.432H164.208C164.272 66.136 164.501 66.712 164.896 67.16C165.301 67.5973 165.866 67.816 166.592 67.816C166.986 67.816 167.333 67.7573 167.632 67.64C167.93 67.512 168.266 67.2933 168.64 66.984ZM166.368 62.216C165.781 62.216 165.306 62.392 164.944 62.744C164.592 63.0853 164.362 63.5707 164.256 64.2H168.368C168.325 63.5813 168.133 63.096 167.792 62.744C167.45 62.392 166.976 62.216 166.368 62.216ZM179.356 60.904C180.028 60.904 180.625 61.0747 181.148 61.416C181.681 61.7573 182.097 62.2427 182.396 62.872C182.694 63.5013 182.844 64.2267 182.844 65.048C182.844 65.88 182.694 66.6107 182.396 67.24C182.097 67.8693 181.681 68.3547 181.148 68.696C180.614 69.0373 180.017 69.208 179.356 69.208C178.246 69.208 177.414 68.824 176.86 68.056V71.272C176.86 71.4533 176.812 71.592 176.716 71.688C176.62 71.784 176.481 71.832 176.299 71.832H175.724C175.553 71.832 175.414 71.784 175.308 71.688C175.212 71.592 175.164 71.4533 175.164 71.272V61.672C175.164 61.4907 175.212 61.352 175.308 61.256C175.414 61.16 175.553 61.112 175.724 61.112H176.188C176.369 61.112 176.508 61.16 176.604 61.256C176.7 61.352 176.748 61.4907 176.748 61.672V62.264C177.313 61.3573 178.182 60.904 179.356 60.904ZM179.004 67.736C179.644 67.736 180.156 67.496 180.54 67.016C180.924 66.5253 181.116 65.8693 181.116 65.048C181.116 64.2373 180.924 63.5867 180.54 63.096C180.166 62.6053 179.66 62.36 179.02 62.36C178.369 62.36 177.836 62.6 177.42 63.08C177.004 63.56 176.796 64.216 176.796 65.048C176.796 65.88 177.004 66.536 177.42 67.016C177.836 67.496 178.364 67.736 179.004 67.736ZM187.934 61.032C188.169 61.032 188.409 61.0587 188.654 61.112C188.942 61.176 189.086 61.3467 189.086 61.624C189.086 61.6987 189.081 61.752 189.07 61.784L188.99 62.168C188.926 62.4667 188.766 62.616 188.51 62.616L188.366 62.6C188.174 62.568 188.004 62.552 187.854 62.552C187.321 62.552 186.889 62.7653 186.558 63.192C186.238 63.608 186.078 64.1893 186.078 64.936V68.44C186.078 68.6107 186.03 68.7493 185.934 68.856C185.838 68.952 185.7 69 185.518 69H184.942C184.772 69 184.633 68.952 184.526 68.856C184.43 68.7493 184.382 68.6107 184.382 68.44V61.672C184.382 61.4907 184.43 61.352 184.526 61.256C184.633 61.16 184.772 61.112 184.942 61.112H185.406C185.588 61.112 185.726 61.16 185.822 61.256C185.918 61.352 185.966 61.4907 185.966 61.672V62.296C186.158 61.9013 186.42 61.592 186.75 61.368C187.081 61.144 187.476 61.032 187.934 61.032ZM193.497 69.24C192.718 69.24 192.025 69.064 191.417 68.712C190.819 68.36 190.35 67.8693 190.009 67.24C189.667 66.6 189.497 65.8693 189.497 65.048C189.497 64.2267 189.667 63.5013 190.009 62.872C190.35 62.2427 190.819 61.752 191.417 61.4C192.025 61.048 192.718 60.872 193.497 60.872C194.265 60.872 194.953 61.048 195.561 61.4C196.169 61.752 196.643 62.248 196.985 62.888C197.326 63.5173 197.497 64.2373 197.497 65.048C197.497 65.8693 197.326 66.6 196.985 67.24C196.643 67.8693 196.169 68.36 195.561 68.712C194.953 69.064 194.265 69.24 193.497 69.24ZM193.497 67.816C194.179 67.816 194.729 67.5653 195.145 67.064C195.561 66.552 195.769 65.88 195.769 65.048C195.769 64.2267 195.561 63.5653 195.145 63.064C194.729 62.5627 194.179 62.312 193.497 62.312C192.814 62.312 192.265 62.5627 191.849 63.064C191.433 63.5653 191.225 64.2267 191.225 65.048C191.225 65.88 191.433 66.552 191.849 67.064C192.265 67.5653 192.814 67.816 193.497 67.816ZM202.307 58.824C201.934 58.824 201.662 58.9147 201.491 59.096C201.321 59.2773 201.235 59.5867 201.235 60.024V61.112H202.531C202.713 61.112 202.851 61.16 202.947 61.256C203.043 61.352 203.091 61.4907 203.091 61.672V61.848C203.091 62.0187 203.043 62.1573 202.947 62.264C202.851 62.36 202.713 62.408 202.531 62.408H201.235V68.44C201.235 68.6107 201.187 68.7493 201.091 68.856C200.995 68.952 200.857 69 200.675 69H200.099C199.929 69 199.79 68.952 199.683 68.856C199.587 68.7493 199.539 68.6107 199.539 68.44V62.408H198.691C198.521 62.408 198.382 62.36 198.275 62.264C198.179 62.1573 198.131 62.0187 198.131 61.848V61.672C198.131 61.4907 198.179 61.352 198.275 61.256C198.382 61.16 198.521 61.112 198.691 61.112H199.539V59.912C199.539 59.0907 199.747 58.472 200.163 58.056C200.59 57.6293 201.203 57.416 202.003 57.416C202.366 57.416 202.734 57.4533 203.107 57.528C203.385 57.6027 203.523 57.7733 203.523 58.04C203.523 58.1147 203.518 58.1733 203.507 58.216L203.459 58.44C203.395 58.7173 203.187 58.856 202.835 58.856L202.643 58.84C202.569 58.8293 202.457 58.824 202.307 58.824ZM205.231 59.576C204.921 59.576 204.66 59.4747 204.447 59.272C204.233 59.0587 204.127 58.808 204.127 58.52C204.127 58.2213 204.233 57.9707 204.447 57.768C204.66 57.5653 204.921 57.464 205.231 57.464C205.54 57.464 205.801 57.5653 206.015 57.768C206.228 57.9707 206.335 58.2213 206.335 58.52C206.335 58.808 206.228 59.0587 206.015 59.272C205.801 59.4747 205.54 59.576 205.231 59.576ZM204.927 69C204.756 69 204.617 68.952 204.511 68.856C204.415 68.7493 204.367 68.6107 204.367 68.44V61.672C204.367 61.4907 204.415 61.352 204.511 61.256C204.617 61.16 204.756 61.112 204.927 61.112H205.503C205.684 61.112 205.823 61.16 205.919 61.256C206.015 61.352 206.063 61.4907 206.063 61.672V68.44C206.063 68.6107 206.015 68.7493 205.919 68.856C205.823 68.952 205.684 69 205.503 69H204.927ZM208.647 69C208.476 69 208.338 68.952 208.231 68.856C208.135 68.7493 208.087 68.6107 208.087 68.44V58.2C208.087 58.0187 208.135 57.88 208.231 57.784C208.338 57.688 208.476 57.64 208.647 57.64H209.223C209.404 57.64 209.543 57.688 209.639 57.784C209.735 57.88 209.783 58.0187 209.783 58.2V68.44C209.783 68.6107 209.735 68.7493 209.639 68.856C209.543 68.952 209.404 69 209.223 69H208.647ZM217.452 66.984C217.591 66.8667 217.724 66.808 217.852 66.808C217.98 66.808 218.113 66.8773 218.252 67.016L218.476 67.256C218.593 67.3947 218.652 67.528 218.652 67.656C218.652 67.7947 218.583 67.928 218.444 68.056C217.953 68.4827 217.463 68.7867 216.972 68.968C216.492 69.1493 215.959 69.24 215.372 69.24C214.551 69.24 213.836 69.0693 213.228 68.728C212.631 68.3867 212.167 67.9067 211.836 67.288C211.516 66.6587 211.356 65.9333 211.356 65.112C211.356 64.3013 211.511 63.576 211.82 62.936C212.14 62.2853 212.588 61.7787 213.164 61.416C213.751 61.0533 214.433 60.872 215.212 60.872C216.375 60.872 217.271 61.2187 217.9 61.912C218.529 62.5947 218.844 63.5387 218.844 64.744V64.888C218.833 65.0587 218.78 65.192 218.684 65.288C218.588 65.384 218.449 65.432 218.268 65.432H213.02C213.084 66.136 213.313 66.712 213.708 67.16C214.113 67.5973 214.679 67.816 215.404 67.816C215.799 67.816 216.145 67.7573 216.444 67.64C216.743 67.512 217.079 67.2933 217.452 66.984ZM215.18 62.216C214.593 62.216 214.119 62.392 213.756 62.744C213.404 63.0853 213.175 63.5707 213.068 64.2H217.18C217.137 63.5813 216.945 63.096 216.604 62.744C216.263 62.392 215.788 62.216 215.18 62.216Z" fill="white"/>
</svg>
