<svg width="344" height="128" viewBox="0 0 344 128" fill="none" xmlns="http://www.w3.org/2000/svg">
<path d="M125 48C125 43.5817 128.582 40 133 40H231C235.418 40 239 43.5817 239 48V80C239 84.4183 235.418 88 231 88H133C128.582 88 125 84.4183 125 80V48Z" fill="#0063FB"/>
<path d="M147.368 64.424C147.197 64.424 147.059 64.376 146.952 64.28C146.856 64.1733 146.808 64.0347 146.808 63.864V63.448C146.808 63.2667 146.856 63.128 146.952 63.032C147.059 62.936 147.197 62.888 147.368 62.888H151.384C151.565 62.888 151.704 62.936 151.8 63.032C151.896 63.128 151.944 63.2667 151.944 63.448V68.44C151.944 68.6107 151.896 68.7493 151.8 68.856C151.704 68.952 151.565 69 151.384 69H151.048C150.696 69 150.504 68.824 150.472 68.472L150.408 67.752C149.725 68.744 148.595 69.24 147.016 69.24C145.885 69.24 144.915 68.9893 144.104 68.488C143.293 67.9867 142.675 67.288 142.248 66.392C141.821 65.496 141.608 64.4667 141.608 63.304C141.608 62.1733 141.832 61.16 142.28 60.264C142.728 59.368 143.373 58.6693 144.216 58.168C145.059 57.656 146.056 57.4 147.208 57.4C148.072 57.4 148.845 57.5387 149.528 57.816C150.211 58.0827 150.883 58.52 151.544 59.128C151.683 59.256 151.752 59.3893 151.752 59.528C151.752 59.6667 151.688 59.8 151.56 59.928L151.176 60.312C151.037 60.4507 150.904 60.52 150.776 60.52C150.637 60.52 150.504 60.456 150.376 60.328C149.821 59.848 149.304 59.5067 148.824 59.304C148.344 59.0907 147.8 58.984 147.192 58.984C146.456 58.984 145.805 59.16 145.24 59.512C144.685 59.864 144.248 60.3653 143.928 61.016C143.619 61.6667 143.464 62.4347 143.464 63.32C143.464 64.216 143.613 64.9893 143.912 65.64C144.211 66.2907 144.632 66.792 145.176 67.144C145.731 67.4853 146.381 67.656 147.128 67.656C148.077 67.656 148.835 67.4 149.4 66.888C149.976 66.3653 150.264 65.656 150.264 64.76V64.424H147.368ZM159.577 66.984C159.716 66.8667 159.849 66.808 159.977 66.808C160.105 66.808 160.238 66.8773 160.377 67.016L160.601 67.256C160.718 67.3947 160.777 67.528 160.777 67.656C160.777 67.7947 160.708 67.928 160.569 68.056C160.078 68.4827 159.588 68.7867 159.097 68.968C158.617 69.1493 158.084 69.24 157.497 69.24C156.676 69.24 155.961 69.0693 155.353 68.728C154.756 68.3867 154.292 67.9067 153.961 67.288C153.641 66.6587 153.481 65.9333 153.481 65.112C153.481 64.3013 153.636 63.576 153.945 62.936C154.265 62.2853 154.713 61.7787 155.289 61.416C155.876 61.0533 156.558 60.872 157.337 60.872C158.5 60.872 159.396 61.2187 160.025 61.912C160.654 62.5947 160.969 63.5387 160.969 64.744V64.888C160.958 65.0587 160.905 65.192 160.809 65.288C160.713 65.384 160.574 65.432 160.393 65.432H155.145C155.209 66.136 155.438 66.712 155.833 67.16C156.238 67.5973 156.804 67.816 157.529 67.816C157.924 67.816 158.27 67.7573 158.569 67.64C158.868 67.512 159.204 67.2933 159.577 66.984ZM157.305 62.216C156.718 62.216 156.244 62.392 155.881 62.744C155.529 63.0853 155.3 63.5707 155.193 64.2H159.305C159.262 63.5813 159.07 63.096 158.729 62.744C158.388 62.392 157.913 62.216 157.305 62.216ZM166.237 67.656C166.269 67.6453 166.317 67.64 166.381 67.64C166.648 67.64 166.808 67.7947 166.861 68.104L166.909 68.36C166.92 68.392 166.925 68.4453 166.925 68.52C166.925 68.7867 166.776 68.9573 166.477 69.032C166.05 69.128 165.661 69.176 165.309 69.176C164.552 69.176 164.002 69 163.661 68.648C163.33 68.296 163.165 67.768 163.165 67.064V62.408H162.285C162.114 62.408 161.976 62.36 161.869 62.264C161.773 62.1573 161.725 62.0187 161.725 61.848V61.672C161.725 61.4907 161.773 61.352 161.869 61.256C161.976 61.16 162.114 61.112 162.285 61.112H163.165V59.128C163.165 58.9467 163.213 58.808 163.309 58.712C163.416 58.616 163.554 58.568 163.725 58.568H164.301C164.482 58.568 164.621 58.616 164.717 58.712C164.813 58.808 164.861 58.9467 164.861 59.128V61.112H166.301C166.482 61.112 166.621 61.16 166.717 61.256C166.813 61.352 166.861 61.4907 166.861 61.672V61.848C166.861 62.0187 166.813 62.1573 166.717 62.264C166.621 62.36 166.482 62.408 166.301 62.408H164.861V66.856C164.861 67.1653 164.925 67.384 165.053 67.512C165.192 67.64 165.41 67.704 165.709 67.704C165.837 67.704 166.013 67.688 166.237 67.656ZM174.875 69.24C174.225 69.24 173.643 69.16 173.131 69C172.63 68.8293 172.118 68.536 171.595 68.12C171.435 68.0027 171.355 67.8693 171.355 67.72C171.355 67.6027 171.414 67.4747 171.531 67.336L171.771 67.064C171.899 66.9147 172.038 66.84 172.187 66.84C172.305 66.84 172.433 66.8933 172.571 67C173.019 67.3307 173.414 67.56 173.755 67.688C174.097 67.8053 174.481 67.864 174.907 67.864C175.366 67.864 175.739 67.7733 176.027 67.592C176.326 67.4 176.475 67.144 176.475 66.824C176.475 66.5787 176.39 66.3867 176.219 66.248C176.059 66.0987 175.846 65.9867 175.579 65.912C175.313 65.8267 174.918 65.7307 174.395 65.624C173.659 65.464 173.083 65.2933 172.667 65.112C172.262 64.92 171.969 64.68 171.787 64.392C171.606 64.104 171.515 63.736 171.515 63.288C171.515 62.8293 171.643 62.4187 171.899 62.056C172.166 61.6933 172.534 61.4053 173.003 61.192C173.483 60.9787 174.043 60.872 174.683 60.872C175.259 60.872 175.771 60.936 176.219 61.064C176.678 61.192 177.126 61.4107 177.563 61.72C177.734 61.848 177.819 61.992 177.819 62.152C177.819 62.2587 177.766 62.3813 177.659 62.52L177.451 62.776C177.334 62.9253 177.19 63 177.019 63C176.891 63 176.769 62.9573 176.651 62.872C176.299 62.6373 175.974 62.4773 175.675 62.392C175.377 62.296 175.041 62.248 174.667 62.248C174.209 62.248 173.841 62.3387 173.563 62.52C173.286 62.7013 173.147 62.936 173.147 63.224C173.147 63.416 173.211 63.5707 173.339 63.688C173.478 63.7947 173.67 63.8907 173.915 63.976C174.171 64.0507 174.571 64.1467 175.115 64.264C175.851 64.424 176.433 64.6053 176.859 64.808C177.297 65 177.617 65.2507 177.819 65.56C178.033 65.8587 178.139 66.248 178.139 66.728C178.139 67.4747 177.841 68.0827 177.243 68.552C176.657 69.0107 175.867 69.24 174.875 69.24ZM183.378 67.656C183.41 67.6453 183.458 67.64 183.522 67.64C183.788 67.64 183.948 67.7947 184.002 68.104L184.05 68.36C184.06 68.392 184.066 68.4453 184.066 68.52C184.066 68.7867 183.916 68.9573 183.618 69.032C183.191 69.128 182.802 69.176 182.45 69.176C181.692 69.176 181.143 69 180.802 68.648C180.471 68.296 180.306 67.768 180.306 67.064V62.408H179.426C179.255 62.408 179.116 62.36 179.01 62.264C178.914 62.1573 178.866 62.0187 178.866 61.848V61.672C178.866 61.4907 178.914 61.352 179.01 61.256C179.116 61.16 179.255 61.112 179.426 61.112H180.306V59.128C180.306 58.9467 180.354 58.808 180.45 58.712C180.556 58.616 180.695 58.568 180.866 58.568H181.442C181.623 58.568 181.762 58.616 181.858 58.712C181.954 58.808 182.002 58.9467 182.002 59.128V61.112H183.442C183.623 61.112 183.762 61.16 183.858 61.256C183.954 61.352 184.002 61.4907 184.002 61.672V61.848C184.002 62.0187 183.954 62.1573 183.858 62.264C183.762 62.36 183.623 62.408 183.442 62.408H182.002V66.856C182.002 67.1653 182.066 67.384 182.194 67.512C182.332 67.64 182.551 67.704 182.85 67.704C182.978 67.704 183.154 67.688 183.378 67.656ZM188.742 60.872C189.808 60.872 190.63 61.1227 191.206 61.624C191.782 62.1147 192.07 62.7707 192.07 63.592V68.44C192.07 68.6107 192.022 68.7493 191.926 68.856C191.83 68.952 191.691 69 191.51 69H191.094C190.923 69 190.784 68.952 190.678 68.856C190.582 68.7493 190.534 68.6107 190.534 68.44V68.088C190.278 68.4613 189.926 68.7493 189.478 68.952C189.03 69.1547 188.507 69.256 187.91 69.256C187.088 69.256 186.411 69.0747 185.878 68.712C185.355 68.3387 185.094 67.7787 185.094 67.032C185.094 66.2 185.403 65.5867 186.022 65.192C186.651 64.7867 187.52 64.4827 188.63 64.28L190.438 63.944V63.656C190.438 63.2187 190.283 62.8827 189.974 62.648C189.675 62.4027 189.275 62.28 188.774 62.28C188.347 62.28 187.974 62.3547 187.654 62.504C187.344 62.6427 187.008 62.8773 186.646 63.208C186.507 63.3253 186.374 63.384 186.246 63.384C186.118 63.384 185.984 63.3253 185.846 63.208L185.59 62.984C185.451 62.856 185.382 62.7173 185.382 62.568C185.382 62.4293 185.446 62.296 185.574 62.168C186.032 61.7307 186.518 61.4053 187.03 61.192C187.542 60.9787 188.112 60.872 188.742 60.872ZM188.15 67.896C188.79 67.896 189.328 67.7253 189.766 67.384C190.214 67.0427 190.438 66.552 190.438 65.912V65.176L189.046 65.464C188.267 65.624 187.691 65.8053 187.318 66.008C186.944 66.2107 186.758 66.52 186.758 66.936C186.758 67.2347 186.88 67.4693 187.126 67.64C187.371 67.8107 187.712 67.896 188.15 67.896ZM197.559 61.032C197.794 61.032 198.034 61.0587 198.279 61.112C198.567 61.176 198.711 61.3467 198.711 61.624C198.711 61.6987 198.706 61.752 198.695 61.784L198.615 62.168C198.551 62.4667 198.391 62.616 198.135 62.616L197.991 62.6C197.799 62.568 197.629 62.552 197.479 62.552C196.946 62.552 196.514 62.7653 196.183 63.192C195.863 63.608 195.703 64.1893 195.703 64.936V68.44C195.703 68.6107 195.655 68.7493 195.559 68.856C195.463 68.952 195.325 69 195.143 69H194.567C194.397 69 194.258 68.952 194.151 68.856C194.055 68.7493 194.007 68.6107 194.007 68.44V61.672C194.007 61.4907 194.055 61.352 194.151 61.256C194.258 61.16 194.397 61.112 194.567 61.112H195.031C195.213 61.112 195.351 61.16 195.447 61.256C195.543 61.352 195.591 61.4907 195.591 61.672V62.296C195.783 61.9013 196.045 61.592 196.375 61.368C196.706 61.144 197.101 61.032 197.559 61.032ZM203.94 67.656C203.972 67.6453 204.02 67.64 204.084 67.64C204.351 67.64 204.511 67.7947 204.564 68.104L204.612 68.36C204.623 68.392 204.628 68.4453 204.628 68.52C204.628 68.7867 204.479 68.9573 204.18 69.032C203.754 69.128 203.364 69.176 203.012 69.176C202.255 69.176 201.706 69 201.364 68.648C201.034 68.296 200.868 67.768 200.868 67.064V62.408H199.988C199.818 62.408 199.679 62.36 199.572 62.264C199.476 62.1573 199.428 62.0187 199.428 61.848V61.672C199.428 61.4907 199.476 61.352 199.572 61.256C199.679 61.16 199.818 61.112 199.988 61.112H200.868V59.128C200.868 58.9467 200.916 58.808 201.012 58.712C201.119 58.616 201.258 58.568 201.428 58.568H202.004C202.186 58.568 202.324 58.616 202.42 58.712C202.516 58.808 202.564 58.9467 202.564 59.128V61.112H204.004C204.186 61.112 204.324 61.16 204.42 61.256C204.516 61.352 204.564 61.4907 204.564 61.672V61.848C204.564 62.0187 204.516 62.1573 204.42 62.264C204.324 62.36 204.186 62.408 204.004 62.408H202.564V66.856C202.564 67.1653 202.628 67.384 202.756 67.512C202.895 67.64 203.114 67.704 203.412 67.704C203.54 67.704 203.716 67.688 203.94 67.656ZM211.358 66.984C211.497 66.8667 211.63 66.808 211.758 66.808C211.886 66.808 212.02 66.8773 212.158 67.016L212.382 67.256C212.5 67.3947 212.558 67.528 212.558 67.656C212.558 67.7947 212.489 67.928 212.35 68.056C211.86 68.4827 211.369 68.7867 210.878 68.968C210.398 69.1493 209.865 69.24 209.278 69.24C208.457 69.24 207.742 69.0693 207.134 68.728C206.537 68.3867 206.073 67.9067 205.742 67.288C205.422 66.6587 205.262 65.9333 205.262 65.112C205.262 64.3013 205.417 63.576 205.726 62.936C206.046 62.2853 206.494 61.7787 207.07 61.416C207.657 61.0533 208.34 60.872 209.118 60.872C210.281 60.872 211.177 61.2187 211.806 61.912C212.436 62.5947 212.75 63.5387 212.75 64.744V64.888C212.74 65.0587 212.686 65.192 212.59 65.288C212.494 65.384 212.356 65.432 212.174 65.432H206.926C206.99 66.136 207.22 66.712 207.614 67.16C208.02 67.5973 208.585 67.816 209.31 67.816C209.705 67.816 210.052 67.7573 210.35 67.64C210.649 67.512 210.985 67.2933 211.358 66.984ZM209.086 62.216C208.5 62.216 208.025 62.392 207.662 62.744C207.31 63.0853 207.081 63.5707 206.974 64.2H211.086C211.044 63.5813 210.852 63.096 210.51 62.744C210.169 62.392 209.694 62.216 209.086 62.216ZM219.887 58.184C219.887 58.0027 219.935 57.864 220.031 57.768C220.138 57.672 220.277 57.624 220.447 57.624H221.023C221.205 57.624 221.343 57.672 221.439 57.768C221.535 57.864 221.583 58.0027 221.583 58.184V68.44C221.583 68.6107 221.535 68.7493 221.439 68.856C221.343 68.952 221.205 69 221.023 69H220.559C220.389 69 220.25 68.952 220.143 68.856C220.047 68.7493 219.999 68.6107 219.999 68.44V67.88C219.445 68.776 218.575 69.224 217.391 69.224C216.73 69.224 216.133 69.0533 215.599 68.712C215.077 68.3707 214.666 67.8853 214.367 67.256C214.069 66.6267 213.919 65.896 213.919 65.064C213.919 64.2427 214.069 63.5173 214.367 62.888C214.677 62.2587 215.098 61.7733 215.631 61.432C216.165 61.0907 216.762 60.92 217.423 60.92C218.511 60.92 219.333 61.2987 219.887 62.056V58.184ZM217.743 67.768C218.394 67.768 218.927 67.528 219.343 67.048C219.759 66.5573 219.967 65.896 219.967 65.064C219.967 64.232 219.759 63.576 219.343 63.096C218.927 62.616 218.394 62.376 217.743 62.376C217.114 62.376 216.607 62.6213 216.223 63.112C215.839 63.6027 215.647 64.2533 215.647 65.064C215.647 65.8853 215.834 66.5413 216.207 67.032C216.591 67.5227 217.103 67.768 217.743 67.768Z" fill="white"/>
<path d="M133 42H231V38H133V42ZM237 48V80H241V48H237ZM231 86H133V90H231V86ZM127 80V48H123V80H127ZM133 86C129.686 86 127 83.3137 127 80H123C123 85.5228 127.477 90 133 90V86ZM237 80C237 83.3137 234.314 86 231 86V90C236.523 90 241 85.5228 241 80H237ZM231 42C234.314 42 237 44.6863 237 48H241C241 42.4772 236.523 38 231 38V42ZM133 38C127.477 38 123 42.4772 123 48H127C127 44.6863 129.686 42 133 42V38Z" fill="#0063FB"/>
</svg>
