<svg width="344" height="236" viewBox="0 0 344 236" fill="none" xmlns="http://www.w3.org/2000/svg">
<path d="M40 48C40 43.5817 43.5817 40 48 40H296C300.418 40 304 43.5817 304 48V102C304 106.418 300.418 110 296 110H48C43.5817 110 40 106.418 40 102V48Z" fill="#0063FB"/>
<path d="M78.1823 69.256C77.0516 69.256 76.0703 69 75.2383 68.488C74.417 67.976 73.7823 67.272 73.3343 66.376C72.897 65.4693 72.6783 64.4453 72.6783 63.304C72.6783 62.1627 72.897 61.1493 73.3343 60.264C73.7716 59.368 74.4063 58.664 75.2383 58.152C76.0703 57.64 77.0676 57.384 78.2303 57.384C78.9343 57.384 79.5743 57.4853 80.1503 57.688C80.7263 57.88 81.3076 58.2053 81.8943 58.664C82.0543 58.792 82.1343 58.936 82.1343 59.096C82.1343 59.2027 82.081 59.3253 81.9743 59.464L81.6223 59.88C81.4943 60.0293 81.361 60.104 81.2223 60.104C81.1156 60.104 80.9823 60.0507 80.8223 59.944C80.3423 59.5707 79.8996 59.3147 79.4943 59.176C79.0996 59.0373 78.673 58.968 78.2143 58.968C77.4676 58.968 76.817 59.1493 76.2623 59.512C75.7076 59.8747 75.281 60.3867 74.9823 61.048C74.6836 61.6987 74.5343 62.4507 74.5343 63.304C74.5343 64.1573 74.6836 64.9147 74.9823 65.576C75.281 66.2373 75.7023 66.7547 76.2463 67.128C76.7903 67.4907 77.425 67.672 78.1503 67.672C78.6943 67.672 79.1796 67.576 79.6063 67.384C80.033 67.192 80.497 66.8827 80.9983 66.456C81.137 66.3387 81.2703 66.28 81.3983 66.28C81.537 66.28 81.6703 66.3547 81.7983 66.504L82.1503 66.904C82.257 67.0213 82.3103 67.144 82.3103 67.272C82.3103 67.4533 82.225 67.6133 82.0543 67.752C81.4356 68.2853 80.8223 68.6693 80.2143 68.904C79.617 69.1387 78.9396 69.256 78.1823 69.256ZM87.3171 61.032C87.5517 61.032 87.7917 61.0587 88.0371 61.112C88.3251 61.176 88.4691 61.3467 88.4691 61.624C88.4691 61.6987 88.4637 61.752 88.4531 61.784L88.3731 62.168C88.3091 62.4667 88.1491 62.616 87.8931 62.616L87.7491 62.6C87.5571 62.568 87.3864 62.552 87.2371 62.552C86.7037 62.552 86.2717 62.7653 85.9411 63.192C85.6211 63.608 85.4611 64.1893 85.4611 64.936V68.44C85.4611 68.6107 85.4131 68.7493 85.3171 68.856C85.2211 68.952 85.0824 69 84.9011 69H84.3251C84.1544 69 84.0157 68.952 83.9091 68.856C83.8131 68.7493 83.7651 68.6107 83.7651 68.44V61.672C83.7651 61.4907 83.8131 61.352 83.9091 61.256C84.0157 61.16 84.1544 61.112 84.3251 61.112H84.7891C84.9704 61.112 85.1091 61.16 85.2051 61.256C85.3011 61.352 85.3491 61.4907 85.3491 61.672V62.296C85.5411 61.9013 85.8024 61.592 86.1331 61.368C86.4637 61.144 86.8584 61.032 87.3171 61.032ZM94.9756 66.984C95.1142 66.8667 95.2476 66.808 95.3756 66.808C95.5036 66.808 95.6369 66.8773 95.7756 67.016L95.9996 67.256C96.1169 67.3947 96.1756 67.528 96.1756 67.656C96.1756 67.7947 96.1062 67.928 95.9676 68.056C95.4769 68.4827 94.9862 68.7867 94.4956 68.968C94.0156 69.1493 93.4822 69.24 92.8956 69.24C92.0742 69.24 91.3596 69.0693 90.7516 68.728C90.1542 68.3867 89.6902 67.9067 89.3596 67.288C89.0396 66.6587 88.8796 65.9333 88.8796 65.112C88.8796 64.3013 89.0342 63.576 89.3436 62.936C89.6636 62.2853 90.1116 61.7787 90.6876 61.416C91.2742 61.0533 91.9569 60.872 92.7356 60.872C93.8982 60.872 94.7942 61.2187 95.4236 61.912C96.0529 62.5947 96.3676 63.5387 96.3676 64.744V64.888C96.3569 65.0587 96.3036 65.192 96.2076 65.288C96.1116 65.384 95.9729 65.432 95.7916 65.432H90.5436C90.6076 66.136 90.8369 66.712 91.2316 67.16C91.6369 67.5973 92.2022 67.816 92.9276 67.816C93.3222 67.816 93.6689 67.7573 93.9676 67.64C94.2662 67.512 94.6022 67.2933 94.9756 66.984ZM92.7036 62.216C92.1169 62.216 91.6422 62.392 91.2796 62.744C90.9276 63.0853 90.6982 63.5707 90.5916 64.2H94.7036C94.6609 63.5813 94.4689 63.096 94.1276 62.744C93.7862 62.392 93.3116 62.216 92.7036 62.216ZM101.14 60.872C102.207 60.872 103.028 61.1227 103.604 61.624C104.18 62.1147 104.468 62.7707 104.468 63.592V68.44C104.468 68.6107 104.42 68.7493 104.324 68.856C104.228 68.952 104.089 69 103.908 69H103.492C103.321 69 103.183 68.952 103.076 68.856C102.98 68.7493 102.932 68.6107 102.932 68.44V68.088C102.676 68.4613 102.324 68.7493 101.876 68.952C101.428 69.1547 100.905 69.256 100.308 69.256C99.4866 69.256 98.8093 69.0747 98.2759 68.712C97.7533 68.3387 97.4919 67.7787 97.4919 67.032C97.4919 66.2 97.8013 65.5867 98.4199 65.192C99.0493 64.7867 99.9186 64.4827 101.028 64.28L102.836 63.944V63.656C102.836 63.2187 102.681 62.8827 102.372 62.648C102.073 62.4027 101.673 62.28 101.172 62.28C100.745 62.28 100.372 62.3547 100.052 62.504C99.7426 62.6427 99.4066 62.8773 99.0439 63.208C98.9053 63.3253 98.7719 63.384 98.6439 63.384C98.5159 63.384 98.3826 63.3253 98.2439 63.208L97.9879 62.984C97.8493 62.856 97.7799 62.7173 97.7799 62.568C97.7799 62.4293 97.8439 62.296 97.9719 62.168C98.4306 61.7307 98.9159 61.4053 99.4279 61.192C99.9399 60.9787 100.511 60.872 101.14 60.872ZM100.548 67.896C101.188 67.896 101.727 67.7253 102.164 67.384C102.612 67.0427 102.836 66.552 102.836 65.912V65.176L101.444 65.464C100.665 65.624 100.089 65.8053 99.7159 66.008C99.3426 66.2107 99.1559 66.52 99.1559 66.936C99.1559 67.2347 99.2786 67.4693 99.5239 67.64C99.7693 67.8107 100.111 67.896 100.548 67.896ZM110.042 67.656C110.074 67.6453 110.122 67.64 110.186 67.64C110.452 67.64 110.612 67.7947 110.666 68.104L110.714 68.36C110.724 68.392 110.73 68.4453 110.73 68.52C110.73 68.7867 110.58 68.9573 110.282 69.032C109.855 69.128 109.466 69.176 109.114 69.176C108.356 69.176 107.807 69 107.466 68.648C107.135 68.296 106.97 67.768 106.97 67.064V62.408H106.09C105.919 62.408 105.78 62.36 105.674 62.264C105.578 62.1573 105.53 62.0187 105.53 61.848V61.672C105.53 61.4907 105.578 61.352 105.674 61.256C105.78 61.16 105.919 61.112 106.09 61.112H106.97V59.128C106.97 58.9467 107.018 58.808 107.114 58.712C107.22 58.616 107.359 58.568 107.53 58.568H108.106C108.287 58.568 108.426 58.616 108.522 58.712C108.618 58.808 108.666 58.9467 108.666 59.128V61.112H110.106C110.287 61.112 110.426 61.16 110.522 61.256C110.618 61.352 110.666 61.4907 110.666 61.672V61.848C110.666 62.0187 110.618 62.1573 110.522 62.264C110.426 62.36 110.287 62.408 110.106 62.408H108.666V66.856C108.666 67.1653 108.73 67.384 108.858 67.512C108.996 67.64 109.215 67.704 109.514 67.704C109.642 67.704 109.818 67.688 110.042 67.656ZM117.46 66.984C117.599 66.8667 117.732 66.808 117.86 66.808C117.988 66.808 118.121 66.8773 118.26 67.016L118.484 67.256C118.601 67.3947 118.66 67.528 118.66 67.656C118.66 67.7947 118.591 67.928 118.452 68.056C117.961 68.4827 117.471 68.7867 116.98 68.968C116.5 69.1493 115.967 69.24 115.38 69.24C114.559 69.24 113.844 69.0693 113.236 68.728C112.639 68.3867 112.175 67.9067 111.844 67.288C111.524 66.6587 111.364 65.9333 111.364 65.112C111.364 64.3013 111.519 63.576 111.828 62.936C112.148 62.2853 112.596 61.7787 113.172 61.416C113.759 61.0533 114.441 60.872 115.22 60.872C116.383 60.872 117.279 61.2187 117.908 61.912C118.537 62.5947 118.852 63.5387 118.852 64.744V64.888C118.841 65.0587 118.788 65.192 118.692 65.288C118.596 65.384 118.457 65.432 118.276 65.432H113.028C113.092 66.136 113.321 66.712 113.716 67.16C114.121 67.5973 114.687 67.816 115.412 67.816C115.807 67.816 116.153 67.7573 116.452 67.64C116.751 67.512 117.087 67.2933 117.46 66.984ZM115.188 62.216C114.601 62.216 114.127 62.392 113.764 62.744C113.412 63.0853 113.183 63.5707 113.076 64.2H117.188C117.145 63.5813 116.953 63.096 116.612 62.744C116.271 62.392 115.796 62.216 115.188 62.216ZM128.176 60.904C128.848 60.904 129.445 61.0747 129.968 61.416C130.501 61.7573 130.917 62.2427 131.216 62.872C131.514 63.5013 131.664 64.2267 131.664 65.048C131.664 65.88 131.514 66.6107 131.216 67.24C130.917 67.8693 130.501 68.3547 129.968 68.696C129.434 69.0373 128.837 69.208 128.176 69.208C127.066 69.208 126.234 68.824 125.68 68.056V71.272C125.68 71.4533 125.632 71.592 125.536 71.688C125.44 71.784 125.301 71.832 125.12 71.832H124.544C124.373 71.832 124.234 71.784 124.128 71.688C124.032 71.592 123.984 71.4533 123.984 71.272V61.672C123.984 61.4907 124.032 61.352 124.128 61.256C124.234 61.16 124.373 61.112 124.544 61.112H125.008C125.189 61.112 125.328 61.16 125.424 61.256C125.52 61.352 125.568 61.4907 125.568 61.672V62.264C126.133 61.3573 127.002 60.904 128.176 60.904ZM127.824 67.736C128.464 67.736 128.976 67.496 129.36 67.016C129.744 66.5253 129.936 65.8693 129.936 65.048C129.936 64.2373 129.744 63.5867 129.36 63.096C128.986 62.6053 128.48 62.36 127.84 62.36C127.189 62.36 126.656 62.6 126.24 63.08C125.824 63.56 125.616 64.216 125.616 65.048C125.616 65.88 125.824 66.536 126.24 67.016C126.656 67.496 127.184 67.736 127.824 67.736ZM138.211 61.672C138.211 61.4907 138.259 61.352 138.355 61.256C138.461 61.16 138.6 61.112 138.771 61.112H139.347C139.528 61.112 139.667 61.16 139.763 61.256C139.859 61.352 139.907 61.4907 139.907 61.672V68.44C139.907 68.6107 139.859 68.7493 139.763 68.856C139.667 68.952 139.528 69 139.347 69H138.915C138.744 69 138.605 68.952 138.499 68.856C138.403 68.7493 138.355 68.6107 138.355 68.44V68.072C138.141 68.4347 137.832 68.7227 137.427 68.936C137.021 69.1387 136.541 69.24 135.987 69.24C135.048 69.24 134.349 69.0107 133.891 68.552C133.432 68.0827 133.203 67.464 133.203 66.696V61.672C133.203 61.4907 133.251 61.352 133.347 61.256C133.453 61.16 133.592 61.112 133.763 61.112H134.339C134.52 61.112 134.659 61.16 134.755 61.256C134.851 61.352 134.899 61.4907 134.899 61.672V66.248C134.899 66.7387 135.021 67.1173 135.267 67.384C135.523 67.64 135.891 67.768 136.371 67.768C136.925 67.768 137.368 67.608 137.699 67.288C138.04 66.968 138.211 66.504 138.211 65.896V61.672ZM145.411 61.032C145.645 61.032 145.885 61.0587 146.131 61.112C146.419 61.176 146.563 61.3467 146.563 61.624C146.563 61.6987 146.557 61.752 146.547 61.784L146.467 62.168C146.403 62.4667 146.243 62.616 145.987 62.616L145.843 62.6C145.651 62.568 145.48 62.552 145.331 62.552C144.797 62.552 144.365 62.7653 144.035 63.192C143.715 63.608 143.555 64.1893 143.555 64.936V68.44C143.555 68.6107 143.507 68.7493 143.411 68.856C143.315 68.952 143.176 69 142.995 69H142.419C142.248 69 142.109 68.952 142.003 68.856C141.907 68.7493 141.859 68.6107 141.859 68.44V61.672C141.859 61.4907 141.907 61.352 142.003 61.256C142.109 61.16 142.248 61.112 142.419 61.112H142.883C143.064 61.112 143.203 61.16 143.299 61.256C143.395 61.352 143.443 61.4907 143.443 61.672V62.296C143.635 61.9013 143.896 61.592 144.227 61.368C144.557 61.144 144.952 61.032 145.411 61.032ZM150.893 69.24C150.115 69.24 149.427 69.0693 148.829 68.728C148.243 68.3867 147.784 67.9013 147.453 67.272C147.133 66.632 146.973 65.8907 146.973 65.048C146.973 64.2053 147.139 63.4693 147.469 62.84C147.8 62.2107 148.264 61.7253 148.861 61.384C149.459 61.0427 150.147 60.872 150.925 60.872C151.491 60.872 151.997 60.9573 152.445 61.128C152.904 61.288 153.341 61.5653 153.757 61.96C153.885 62.088 153.949 62.2213 153.949 62.36C153.949 62.488 153.88 62.6213 153.741 62.76L153.469 63.032C153.352 63.1493 153.224 63.208 153.085 63.208C152.947 63.208 152.803 63.144 152.653 63.016C152.344 62.7493 152.051 62.568 151.773 62.472C151.507 62.3653 151.219 62.312 150.909 62.312C150.205 62.312 149.661 62.5733 149.277 63.096C148.893 63.6187 148.701 64.2693 148.701 65.048C148.701 65.8267 148.893 66.4827 149.277 67.016C149.661 67.5387 150.205 67.8 150.909 67.8C151.251 67.8 151.565 67.736 151.853 67.608C152.141 67.4693 152.451 67.24 152.781 66.92C152.92 66.7813 153.064 66.712 153.213 66.712C153.341 66.712 153.464 66.7653 153.581 66.872L153.853 67.096C153.992 67.2133 154.061 67.3467 154.061 67.496C154.061 67.656 153.981 67.8267 153.821 68.008C153.384 68.456 152.931 68.776 152.461 68.968C152.003 69.1493 151.48 69.24 150.893 69.24ZM159.5 60.872C160.406 60.872 161.1 61.128 161.58 61.64C162.07 62.1413 162.316 62.792 162.316 63.592V68.44C162.316 68.6107 162.268 68.7493 162.172 68.856C162.076 68.952 161.937 69 161.756 69H161.18C161.009 69 160.87 68.952 160.764 68.856C160.668 68.7493 160.62 68.6107 160.62 68.44V64.12C160.62 63.544 160.476 63.1013 160.188 62.792C159.91 62.4827 159.51 62.328 158.988 62.328C158.476 62.328 158.044 62.504 157.692 62.856C157.35 63.208 157.18 63.6507 157.18 64.184V68.44C157.18 68.6107 157.132 68.7493 157.036 68.856C156.94 68.952 156.801 69 156.62 69H156.044C155.873 69 155.734 68.952 155.628 68.856C155.532 68.7493 155.484 68.6107 155.484 68.44V58.2C155.484 58.0187 155.532 57.88 155.628 57.784C155.734 57.688 155.873 57.64 156.044 57.64H156.62C156.801 57.64 156.94 57.688 157.036 57.784C157.132 57.88 157.18 58.0187 157.18 58.2V61.928C157.436 61.5867 157.761 61.3253 158.156 61.144C158.561 60.9627 159.009 60.872 159.5 60.872ZM167.593 60.872C168.66 60.872 169.481 61.1227 170.057 61.624C170.633 62.1147 170.921 62.7707 170.921 63.592V68.44C170.921 68.6107 170.873 68.7493 170.777 68.856C170.681 68.952 170.542 69 170.361 69H169.945C169.774 69 169.636 68.952 169.529 68.856C169.433 68.7493 169.385 68.6107 169.385 68.44V68.088C169.129 68.4613 168.777 68.7493 168.329 68.952C167.881 69.1547 167.358 69.256 166.761 69.256C165.94 69.256 165.262 69.0747 164.729 68.712C164.206 68.3387 163.945 67.7787 163.945 67.032C163.945 66.2 164.254 65.5867 164.873 65.192C165.502 64.7867 166.372 64.4827 167.481 64.28L169.289 63.944V63.656C169.289 63.2187 169.134 62.8827 168.825 62.648C168.526 62.4027 168.126 62.28 167.625 62.28C167.198 62.28 166.825 62.3547 166.505 62.504C166.196 62.6427 165.86 62.8773 165.497 63.208C165.358 63.3253 165.225 63.384 165.097 63.384C164.969 63.384 164.836 63.3253 164.697 63.208L164.441 62.984C164.302 62.856 164.233 62.7173 164.233 62.568C164.233 62.4293 164.297 62.296 164.425 62.168C164.884 61.7307 165.369 61.4053 165.881 61.192C166.393 60.9787 166.964 60.872 167.593 60.872ZM167.001 67.896C167.641 67.896 168.18 67.7253 168.617 67.384C169.065 67.0427 169.289 66.552 169.289 65.912V65.176L167.897 65.464C167.118 65.624 166.542 65.8053 166.169 66.008C165.796 66.2107 165.609 66.52 165.609 66.936C165.609 67.2347 165.732 67.4693 165.977 67.64C166.222 67.8107 166.564 67.896 167.001 67.896ZM175.899 69.24C175.248 69.24 174.667 69.16 174.155 69C173.653 68.8293 173.141 68.536 172.619 68.12C172.459 68.0027 172.379 67.8693 172.379 67.72C172.379 67.6027 172.437 67.4747 172.555 67.336L172.795 67.064C172.923 66.9147 173.061 66.84 173.211 66.84C173.328 66.84 173.456 66.8933 173.595 67C174.043 67.3307 174.437 67.56 174.779 67.688C175.12 67.8053 175.504 67.864 175.931 67.864C176.389 67.864 176.763 67.7733 177.051 67.592C177.349 67.4 177.499 67.144 177.499 66.824C177.499 66.5787 177.413 66.3867 177.243 66.248C177.083 66.0987 176.869 65.9867 176.603 65.912C176.336 65.8267 175.941 65.7307 175.419 65.624C174.683 65.464 174.107 65.2933 173.691 65.112C173.285 64.92 172.992 64.68 172.811 64.392C172.629 64.104 172.539 63.736 172.539 63.288C172.539 62.8293 172.667 62.4187 172.923 62.056C173.189 61.6933 173.557 61.4053 174.027 61.192C174.507 60.9787 175.067 60.872 175.707 60.872C176.283 60.872 176.795 60.936 177.243 61.064C177.701 61.192 178.149 61.4107 178.587 61.72C178.757 61.848 178.843 61.992 178.843 62.152C178.843 62.2587 178.789 62.3813 178.683 62.52L178.475 62.776C178.357 62.9253 178.213 63 178.043 63C177.915 63 177.792 62.9573 177.675 62.872C177.323 62.6373 176.997 62.4773 176.699 62.392C176.4 62.296 176.064 62.248 175.691 62.248C175.232 62.248 174.864 62.3387 174.587 62.52C174.309 62.7013 174.171 62.936 174.171 63.224C174.171 63.416 174.235 63.5707 174.363 63.688C174.501 63.7947 174.693 63.8907 174.939 63.976C175.195 64.0507 175.595 64.1467 176.139 64.264C176.875 64.424 177.456 64.6053 177.883 64.808C178.32 65 178.64 65.2507 178.843 65.56C179.056 65.8587 179.163 66.248 179.163 66.728C179.163 67.4747 178.864 68.0827 178.267 68.552C177.68 69.0107 176.891 69.24 175.899 69.24ZM186.272 66.984C186.411 66.8667 186.544 66.808 186.672 66.808C186.8 66.808 186.934 66.8773 187.072 67.016L187.296 67.256C187.414 67.3947 187.472 67.528 187.472 67.656C187.472 67.7947 187.403 67.928 187.264 68.056C186.774 68.4827 186.283 68.7867 185.792 68.968C185.312 69.1493 184.779 69.24 184.192 69.24C183.371 69.24 182.656 69.0693 182.048 68.728C181.451 68.3867 180.987 67.9067 180.656 67.288C180.336 66.6587 180.176 65.9333 180.176 65.112C180.176 64.3013 180.331 63.576 180.64 62.936C180.96 62.2853 181.408 61.7787 181.984 61.416C182.571 61.0533 183.254 60.872 184.032 60.872C185.195 60.872 186.091 61.2187 186.72 61.912C187.35 62.5947 187.664 63.5387 187.664 64.744V64.888C187.654 65.0587 187.6 65.192 187.504 65.288C187.408 65.384 187.27 65.432 187.088 65.432H181.84C181.904 66.136 182.134 66.712 182.528 67.16C182.934 67.5973 183.499 67.816 184.224 67.816C184.619 67.816 184.966 67.7573 185.264 67.64C185.563 67.512 185.899 67.2933 186.272 66.984ZM184 62.216C183.414 62.216 182.939 62.392 182.576 62.744C182.224 63.0853 181.995 63.5707 181.888 64.2H186C185.958 63.5813 185.766 63.096 185.424 62.744C185.083 62.392 184.608 62.216 184 62.216ZM196.124 60.872C197.191 60.872 198.012 61.1227 198.588 61.624C199.164 62.1147 199.452 62.7707 199.452 63.592V68.44C199.452 68.6107 199.404 68.7493 199.308 68.856C199.212 68.952 199.074 69 198.892 69H198.476C198.306 69 198.167 68.952 198.06 68.856C197.964 68.7493 197.916 68.6107 197.916 68.44V68.088C197.66 68.4613 197.308 68.7493 196.86 68.952C196.412 69.1547 195.89 69.256 195.292 69.256C194.471 69.256 193.794 69.0747 193.26 68.712C192.738 68.3387 192.476 67.7787 192.476 67.032C192.476 66.2 192.786 65.5867 193.404 65.192C194.034 64.7867 194.903 64.4827 196.012 64.28L197.82 63.944V63.656C197.82 63.2187 197.666 62.8827 197.356 62.648C197.058 62.4027 196.658 62.28 196.156 62.28C195.73 62.28 195.356 62.3547 195.036 62.504C194.727 62.6427 194.391 62.8773 194.028 63.208C193.89 63.3253 193.756 63.384 193.628 63.384C193.5 63.384 193.367 63.3253 193.228 63.208L192.972 62.984C192.834 62.856 192.764 62.7173 192.764 62.568C192.764 62.4293 192.828 62.296 192.956 62.168C193.415 61.7307 193.9 61.4053 194.412 61.192C194.924 60.9787 195.495 60.872 196.124 60.872ZM195.532 67.896C196.172 67.896 196.711 67.7253 197.148 67.384C197.596 67.0427 197.82 66.552 197.82 65.912V65.176L196.428 65.464C195.65 65.624 195.074 65.8053 194.7 66.008C194.327 66.2107 194.14 66.52 194.14 66.936C194.14 67.2347 194.263 67.4693 194.508 67.64C194.754 67.8107 195.095 67.896 195.532 67.896ZM206.942 61.624C206.942 61.464 206.99 61.3413 207.086 61.256C207.193 61.16 207.331 61.112 207.502 61.112H207.95C208.131 61.112 208.27 61.16 208.366 61.256C208.462 61.352 208.51 61.4907 208.51 61.672V68.712C208.51 69.768 208.169 70.5893 207.486 71.176C206.814 71.7627 205.918 72.056 204.798 72.056C203.678 72.056 202.622 71.768 201.63 71.192C201.427 71.0853 201.326 70.9413 201.326 70.76C201.326 70.664 201.369 70.5467 201.454 70.408L201.662 70.104C201.779 69.9227 201.923 69.832 202.094 69.832C202.211 69.832 202.329 69.8693 202.446 69.944C202.873 70.1893 203.267 70.3653 203.63 70.472C203.993 70.5893 204.377 70.648 204.782 70.648C205.401 70.648 205.897 70.4773 206.27 70.136C206.654 69.8053 206.846 69.2827 206.846 68.568V67.72C206.313 68.4773 205.513 68.856 204.446 68.856C203.785 68.856 203.187 68.6907 202.654 68.36C202.131 68.0187 201.721 67.5493 201.422 66.952C201.134 66.344 200.99 65.6507 200.99 64.872C200.99 64.0933 201.134 63.4053 201.422 62.808C201.721 62.2 202.131 61.7253 202.654 61.384C203.187 61.0427 203.785 60.872 204.446 60.872C205.577 60.872 206.409 61.2933 206.942 62.136V61.624ZM204.782 67.432C205.401 67.432 205.907 67.1973 206.302 66.728C206.697 66.248 206.894 65.6293 206.894 64.872C206.894 64.1253 206.697 63.5173 206.302 63.048C205.918 62.568 205.411 62.328 204.782 62.328C204.142 62.328 203.635 62.5627 203.262 63.032C202.889 63.5013 202.702 64.1147 202.702 64.872C202.702 65.64 202.889 66.2587 203.262 66.728C203.635 67.1973 204.142 67.432 204.782 67.432ZM214.02 61.032C214.255 61.032 214.495 61.0587 214.74 61.112C215.028 61.176 215.172 61.3467 215.172 61.624C215.172 61.6987 215.167 61.752 215.156 61.784L215.076 62.168C215.012 62.4667 214.852 62.616 214.596 62.616L214.452 62.6C214.26 62.568 214.09 62.552 213.94 62.552C213.407 62.552 212.975 62.7653 212.644 63.192C212.324 63.608 212.164 64.1893 212.164 64.936V68.44C212.164 68.6107 212.116 68.7493 212.02 68.856C211.924 68.952 211.786 69 211.604 69H211.028C210.858 69 210.719 68.952 210.612 68.856C210.516 68.7493 210.468 68.6107 210.468 68.44V61.672C210.468 61.4907 210.516 61.352 210.612 61.256C210.719 61.16 210.858 61.112 211.028 61.112H211.492C211.674 61.112 211.812 61.16 211.908 61.256C212.004 61.352 212.052 61.4907 212.052 61.672V62.296C212.244 61.9013 212.506 61.592 212.836 61.368C213.167 61.144 213.562 61.032 214.02 61.032ZM221.679 66.984C221.817 66.8667 221.951 66.808 222.079 66.808C222.207 66.808 222.34 66.8773 222.479 67.016L222.703 67.256C222.82 67.3947 222.879 67.528 222.879 67.656C222.879 67.7947 222.809 67.928 222.671 68.056C222.18 68.4827 221.689 68.7867 221.199 68.968C220.719 69.1493 220.185 69.24 219.599 69.24C218.777 69.24 218.063 69.0693 217.455 68.728C216.857 68.3867 216.393 67.9067 216.063 67.288C215.743 66.6587 215.583 65.9333 215.583 65.112C215.583 64.3013 215.737 63.576 216.047 62.936C216.367 62.2853 216.815 61.7787 217.391 61.416C217.977 61.0533 218.66 60.872 219.439 60.872C220.601 60.872 221.497 61.2187 222.127 61.912C222.756 62.5947 223.071 63.5387 223.071 64.744V64.888C223.06 65.0587 223.007 65.192 222.911 65.288C222.815 65.384 222.676 65.432 222.495 65.432H217.247C217.311 66.136 217.54 66.712 217.935 67.16C218.34 67.5973 218.905 67.816 219.631 67.816C220.025 67.816 220.372 67.7573 220.671 67.64C220.969 67.512 221.305 67.2933 221.679 66.984ZM219.407 62.216C218.82 62.216 218.345 62.392 217.983 62.744C217.631 63.0853 217.401 63.5707 217.295 64.2H221.407C221.364 63.5813 221.172 63.096 220.831 62.744C220.489 62.392 220.015 62.216 219.407 62.216ZM230.304 66.984C230.442 66.8667 230.576 66.808 230.704 66.808C230.832 66.808 230.965 66.8773 231.104 67.016L231.328 67.256C231.445 67.3947 231.504 67.528 231.504 67.656C231.504 67.7947 231.434 67.928 231.296 68.056C230.805 68.4827 230.314 68.7867 229.824 68.968C229.344 69.1493 228.81 69.24 228.224 69.24C227.402 69.24 226.688 69.0693 226.08 68.728C225.482 68.3867 225.018 67.9067 224.688 67.288C224.368 66.6587 224.208 65.9333 224.208 65.112C224.208 64.3013 224.362 63.576 224.672 62.936C224.992 62.2853 225.44 61.7787 226.016 61.416C226.602 61.0533 227.285 60.872 228.064 60.872C229.226 60.872 230.122 61.2187 230.752 61.912C231.381 62.5947 231.696 63.5387 231.696 64.744V64.888C231.685 65.0587 231.632 65.192 231.536 65.288C231.44 65.384 231.301 65.432 231.12 65.432H225.872C225.936 66.136 226.165 66.712 226.56 67.16C226.965 67.5973 227.53 67.816 228.256 67.816C228.65 67.816 228.997 67.7573 229.296 67.64C229.594 67.512 229.93 67.2933 230.304 66.984ZM228.032 62.216C227.445 62.216 226.97 62.392 226.608 62.744C226.256 63.0853 226.026 63.5707 225.92 64.2H230.032C229.989 63.5813 229.797 63.096 229.456 62.744C229.114 62.392 228.64 62.216 228.032 62.216ZM241.713 60.872C242.556 60.872 243.207 61.112 243.665 61.592C244.124 62.0613 244.353 62.696 244.353 63.496V68.44C244.353 68.6107 244.305 68.7493 244.209 68.856C244.113 68.952 243.975 69 243.793 69H243.217C243.047 69 242.908 68.952 242.801 68.856C242.705 68.7493 242.657 68.6107 242.657 68.44V64.008C242.657 63.4853 242.54 63.0747 242.305 62.776C242.071 62.4773 241.713 62.328 241.233 62.328C240.743 62.328 240.353 62.4933 240.065 62.824C239.788 63.1547 239.649 63.5813 239.649 64.104V68.44C239.649 68.6107 239.601 68.7493 239.505 68.856C239.409 68.952 239.271 69 239.089 69H238.513C238.343 69 238.204 68.952 238.097 68.856C238.001 68.7493 237.953 68.6107 237.953 68.44V64.008C237.953 63.4853 237.836 63.0747 237.601 62.776C237.377 62.4773 237.025 62.328 236.545 62.328C236.076 62.328 235.697 62.4827 235.409 62.792C235.121 63.1013 234.967 63.5013 234.945 63.992V68.44C234.945 68.6107 234.897 68.7493 234.801 68.856C234.705 68.952 234.567 69 234.385 69H233.809C233.639 69 233.5 68.952 233.393 68.856C233.297 68.7493 233.249 68.6107 233.249 68.44V61.672C233.249 61.4907 233.297 61.352 233.393 61.256C233.5 61.16 233.639 61.112 233.809 61.112H234.273C234.455 61.112 234.593 61.16 234.689 61.256C234.785 61.352 234.833 61.4907 234.833 61.672V62.024C235.324 61.256 236.081 60.872 237.105 60.872C237.617 60.872 238.065 60.9787 238.449 61.192C238.833 61.4053 239.127 61.704 239.329 62.088C239.873 61.2773 240.668 60.872 241.713 60.872ZM251.944 66.984C252.083 66.8667 252.216 66.808 252.344 66.808C252.472 66.808 252.606 66.8773 252.744 67.016L252.968 67.256C253.086 67.3947 253.144 67.528 253.144 67.656C253.144 67.7947 253.075 67.928 252.936 68.056C252.446 68.4827 251.955 68.7867 251.464 68.968C250.984 69.1493 250.451 69.24 249.864 69.24C249.043 69.24 248.328 69.0693 247.72 68.728C247.123 68.3867 246.659 67.9067 246.328 67.288C246.008 66.6587 245.848 65.9333 245.848 65.112C245.848 64.3013 246.003 63.576 246.312 62.936C246.632 62.2853 247.08 61.7787 247.656 61.416C248.243 61.0533 248.926 60.872 249.704 60.872C250.867 60.872 251.763 61.2187 252.392 61.912C253.022 62.5947 253.336 63.5387 253.336 64.744V64.888C253.326 65.0587 253.272 65.192 253.176 65.288C253.08 65.384 252.942 65.432 252.76 65.432H247.512C247.576 66.136 247.806 66.712 248.2 67.16C248.606 67.5973 249.171 67.816 249.896 67.816C250.291 67.816 250.638 67.7573 250.936 67.64C251.235 67.512 251.571 67.2933 251.944 66.984ZM249.672 62.216C249.086 62.216 248.611 62.392 248.248 62.744C247.896 63.0853 247.667 63.5707 247.56 64.2H251.672C251.63 63.5813 251.438 63.096 251.096 62.744C250.755 62.392 250.28 62.216 249.672 62.216ZM258.906 60.872C259.813 60.872 260.506 61.128 260.986 61.64C261.477 62.1413 261.722 62.792 261.722 63.592V68.44C261.722 68.6107 261.674 68.7493 261.578 68.856C261.482 68.952 261.343 69 261.162 69H260.586C260.415 69 260.277 68.952 260.17 68.856C260.074 68.7493 260.026 68.6107 260.026 68.44V64.12C260.026 63.544 259.882 63.1013 259.594 62.792C259.317 62.4827 258.917 62.328 258.394 62.328C257.882 62.328 257.45 62.504 257.098 62.856C256.757 63.208 256.586 63.6507 256.586 64.184V68.44C256.586 68.6107 256.538 68.7493 256.442 68.856C256.346 68.952 256.207 69 256.026 69H255.45C255.279 69 255.141 68.952 255.034 68.856C254.938 68.7493 254.89 68.6107 254.89 68.44V61.672C254.89 61.4907 254.938 61.352 255.034 61.256C255.141 61.16 255.279 61.112 255.45 61.112H255.914C256.095 61.112 256.234 61.16 256.33 61.256C256.426 61.352 256.474 61.4907 256.474 61.672V62.088C256.73 61.6933 257.066 61.3947 257.482 61.192C257.898 60.9787 258.373 60.872 258.906 60.872ZM267.307 67.656C267.339 67.6453 267.387 67.64 267.451 67.64C267.718 67.64 267.878 67.7947 267.931 68.104L267.979 68.36C267.99 68.392 267.995 68.4453 267.995 68.52C267.995 68.7867 267.846 68.9573 267.547 69.032C267.121 69.128 266.731 69.176 266.379 69.176C265.622 69.176 265.073 69 264.731 68.648C264.401 68.296 264.235 67.768 264.235 67.064V62.408H263.355C263.185 62.408 263.046 62.36 262.939 62.264C262.843 62.1573 262.795 62.0187 262.795 61.848V61.672C262.795 61.4907 262.843 61.352 262.939 61.256C263.046 61.16 263.185 61.112 263.355 61.112H264.235V59.128C264.235 58.9467 264.283 58.808 264.379 58.712C264.486 58.616 264.625 58.568 264.795 58.568H265.371C265.553 58.568 265.691 58.616 265.787 58.712C265.883 58.808 265.931 58.9467 265.931 59.128V61.112H267.371C267.553 61.112 267.691 61.16 267.787 61.256C267.883 61.352 267.931 61.4907 267.931 61.672V61.848C267.931 62.0187 267.883 62.1573 267.787 62.264C267.691 62.36 267.553 62.408 267.371 62.408H265.931V66.856C265.931 67.1653 265.995 67.384 266.123 67.512C266.262 67.64 266.481 67.704 266.779 67.704C266.907 67.704 267.083 67.688 267.307 67.656ZM146.612 91.24C145.833 91.24 145.145 91.0693 144.548 90.728C143.961 90.3867 143.503 89.9013 143.172 89.272C142.852 88.632 142.692 87.8907 142.692 87.048C142.692 86.2053 142.857 85.4693 143.188 84.84C143.519 84.2107 143.983 83.7253 144.58 83.384C145.177 83.0427 145.865 82.872 146.644 82.872C147.209 82.872 147.716 82.9573 148.164 83.128C148.623 83.288 149.06 83.5653 149.476 83.96C149.604 84.088 149.668 84.2213 149.668 84.36C149.668 84.488 149.599 84.6213 149.46 84.76L149.188 85.032C149.071 85.1493 148.943 85.208 148.804 85.208C148.665 85.208 148.521 85.144 148.372 85.016C148.063 84.7493 147.769 84.568 147.492 84.472C147.225 84.3653 146.937 84.312 146.628 84.312C145.924 84.312 145.38 84.5733 144.996 85.096C144.612 85.6187 144.42 86.2693 144.42 87.048C144.42 87.8267 144.612 88.4827 144.996 89.016C145.38 89.5387 145.924 89.8 146.628 89.8C146.969 89.8 147.284 89.736 147.572 89.608C147.86 89.4693 148.169 89.24 148.5 88.92C148.639 88.7813 148.783 88.712 148.932 88.712C149.06 88.712 149.183 88.7653 149.3 88.872L149.572 89.096C149.711 89.2133 149.78 89.3467 149.78 89.496C149.78 89.656 149.7 89.8267 149.54 90.008C149.103 90.456 148.649 90.776 148.18 90.968C147.721 91.1493 147.199 91.24 146.612 91.24ZM154.583 91.24C153.804 91.24 153.111 91.064 152.503 90.712C151.905 90.36 151.436 89.8693 151.095 89.24C150.753 88.6 150.583 87.8693 150.583 87.048C150.583 86.2267 150.753 85.5013 151.095 84.872C151.436 84.2427 151.905 83.752 152.503 83.4C153.111 83.048 153.804 82.872 154.583 82.872C155.351 82.872 156.039 83.048 156.647 83.4C157.255 83.752 157.729 84.248 158.071 84.888C158.412 85.5173 158.583 86.2373 158.583 87.048C158.583 87.8693 158.412 88.6 158.071 89.24C157.729 89.8693 157.255 90.36 156.647 90.712C156.039 91.064 155.351 91.24 154.583 91.24ZM154.583 89.816C155.265 89.816 155.815 89.5653 156.231 89.064C156.647 88.552 156.855 87.88 156.855 87.048C156.855 86.2267 156.647 85.5653 156.231 85.064C155.815 84.5627 155.265 84.312 154.583 84.312C153.9 84.312 153.351 84.5627 152.935 85.064C152.519 85.5653 152.311 86.2267 152.311 87.048C152.311 87.88 152.519 88.552 152.935 89.064C153.351 89.5653 153.9 89.816 154.583 89.816ZM164.094 82.872C165 82.872 165.694 83.128 166.174 83.64C166.664 84.1413 166.91 84.792 166.91 85.592V90.44C166.91 90.6107 166.862 90.7493 166.766 90.856C166.67 90.952 166.531 91 166.35 91H165.774C165.603 91 165.464 90.952 165.358 90.856C165.262 90.7493 165.214 90.6107 165.214 90.44V86.12C165.214 85.544 165.07 85.1013 164.782 84.792C164.504 84.4827 164.104 84.328 163.582 84.328C163.07 84.328 162.638 84.504 162.286 84.856C161.944 85.208 161.774 85.6507 161.774 86.184V90.44C161.774 90.6107 161.726 90.7493 161.63 90.856C161.534 90.952 161.395 91 161.214 91H160.638C160.467 91 160.328 90.952 160.222 90.856C160.126 90.7493 160.078 90.6107 160.078 90.44V83.672C160.078 83.4907 160.126 83.352 160.222 83.256C160.328 83.16 160.467 83.112 160.638 83.112H161.102C161.283 83.112 161.422 83.16 161.518 83.256C161.614 83.352 161.662 83.4907 161.662 83.672V84.088C161.918 83.6933 162.254 83.3947 162.67 83.192C163.086 82.9787 163.56 82.872 164.094 82.872ZM172.495 89.656C172.527 89.6453 172.575 89.64 172.639 89.64C172.906 89.64 173.066 89.7947 173.119 90.104L173.167 90.36C173.178 90.392 173.183 90.4453 173.183 90.52C173.183 90.7867 173.034 90.9573 172.735 91.032C172.308 91.128 171.919 91.176 171.567 91.176C170.81 91.176 170.26 91 169.919 90.648C169.588 90.296 169.423 89.768 169.423 89.064V84.408H168.543C168.372 84.408 168.234 84.36 168.127 84.264C168.031 84.1573 167.983 84.0187 167.983 83.848V83.672C167.983 83.4907 168.031 83.352 168.127 83.256C168.234 83.16 168.372 83.112 168.543 83.112H169.423V81.128C169.423 80.9467 169.471 80.808 169.567 80.712C169.674 80.616 169.812 80.568 169.983 80.568H170.559C170.74 80.568 170.879 80.616 170.975 80.712C171.071 80.808 171.119 80.9467 171.119 81.128V83.112H172.559C172.74 83.112 172.879 83.16 172.975 83.256C173.071 83.352 173.119 83.4907 173.119 83.672V83.848C173.119 84.0187 173.071 84.1573 172.975 84.264C172.879 84.36 172.74 84.408 172.559 84.408H171.119V88.856C171.119 89.1653 171.183 89.384 171.311 89.512C171.45 89.64 171.668 89.704 171.967 89.704C172.095 89.704 172.271 89.688 172.495 89.656ZM178.067 83.032C178.302 83.032 178.542 83.0587 178.787 83.112C179.075 83.176 179.219 83.3467 179.219 83.624C179.219 83.6987 179.214 83.752 179.203 83.784L179.123 84.168C179.059 84.4667 178.899 84.616 178.643 84.616L178.499 84.6C178.307 84.568 178.136 84.552 177.987 84.552C177.454 84.552 177.022 84.7653 176.691 85.192C176.371 85.608 176.211 86.1893 176.211 86.936V90.44C176.211 90.6107 176.163 90.7493 176.067 90.856C175.971 90.952 175.832 91 175.651 91H175.075C174.904 91 174.766 90.952 174.659 90.856C174.563 90.7493 174.515 90.6107 174.515 90.44V83.672C174.515 83.4907 174.563 83.352 174.659 83.256C174.766 83.16 174.904 83.112 175.075 83.112H175.539C175.72 83.112 175.859 83.16 175.955 83.256C176.051 83.352 176.099 83.4907 176.099 83.672V84.296C176.291 83.9013 176.552 83.592 176.883 83.368C177.214 83.144 177.608 83.032 178.067 83.032ZM183.609 82.872C184.675 82.872 185.497 83.1227 186.073 83.624C186.649 84.1147 186.937 84.7707 186.937 85.592V90.44C186.937 90.6107 186.889 90.7493 186.793 90.856C186.697 90.952 186.558 91 186.377 91H185.961C185.79 91 185.651 90.952 185.545 90.856C185.449 90.7493 185.401 90.6107 185.401 90.44V90.088C185.145 90.4613 184.793 90.7493 184.345 90.952C183.897 91.1547 183.374 91.256 182.777 91.256C181.955 91.256 181.278 91.0747 180.745 90.712C180.222 90.3387 179.961 89.7787 179.961 89.032C179.961 88.2 180.27 87.5867 180.889 87.192C181.518 86.7867 182.387 86.4827 183.497 86.28L185.305 85.944V85.656C185.305 85.2187 185.15 84.8827 184.841 84.648C184.542 84.4027 184.142 84.28 183.641 84.28C183.214 84.28 182.841 84.3547 182.521 84.504C182.211 84.6427 181.875 84.8773 181.513 85.208C181.374 85.3253 181.241 85.384 181.113 85.384C180.985 85.384 180.851 85.3253 180.713 85.208L180.457 84.984C180.318 84.856 180.249 84.7173 180.249 84.568C180.249 84.4293 180.313 84.296 180.441 84.168C180.899 83.7307 181.385 83.4053 181.897 83.192C182.409 82.9787 182.979 82.872 183.609 82.872ZM183.017 89.896C183.657 89.896 184.195 89.7253 184.633 89.384C185.081 89.0427 185.305 88.552 185.305 87.912V87.176L183.913 87.464C183.134 87.624 182.558 87.8053 182.185 88.008C181.811 88.2107 181.625 88.52 181.625 88.936C181.625 89.2347 181.747 89.4693 181.993 89.64C182.238 89.8107 182.579 89.896 183.017 89.896ZM192.346 91.24C191.568 91.24 190.88 91.0693 190.282 90.728C189.696 90.3867 189.237 89.9013 188.906 89.272C188.586 88.632 188.426 87.8907 188.426 87.048C188.426 86.2053 188.592 85.4693 188.922 84.84C189.253 84.2107 189.717 83.7253 190.314 83.384C190.912 83.0427 191.6 82.872 192.378 82.872C192.944 82.872 193.45 82.9573 193.898 83.128C194.357 83.288 194.794 83.5653 195.21 83.96C195.338 84.088 195.402 84.2213 195.402 84.36C195.402 84.488 195.333 84.6213 195.194 84.76L194.922 85.032C194.805 85.1493 194.677 85.208 194.538 85.208C194.4 85.208 194.256 85.144 194.106 85.016C193.797 84.7493 193.504 84.568 193.226 84.472C192.96 84.3653 192.672 84.312 192.362 84.312C191.658 84.312 191.114 84.5733 190.73 85.096C190.346 85.6187 190.154 86.2693 190.154 87.048C190.154 87.8267 190.346 88.4827 190.73 89.016C191.114 89.5387 191.658 89.8 192.362 89.8C192.704 89.8 193.018 89.736 193.306 89.608C193.594 89.4693 193.904 89.24 194.234 88.92C194.373 88.7813 194.517 88.712 194.666 88.712C194.794 88.712 194.917 88.7653 195.034 88.872L195.306 89.096C195.445 89.2133 195.514 89.3467 195.514 89.496C195.514 89.656 195.434 89.8267 195.274 90.008C194.837 90.456 194.384 90.776 193.914 90.968C193.456 91.1493 192.933 91.24 192.346 91.24ZM200.792 89.656C200.824 89.6453 200.872 89.64 200.936 89.64C201.202 89.64 201.362 89.7947 201.416 90.104L201.464 90.36C201.474 90.392 201.48 90.4453 201.48 90.52C201.48 90.7867 201.33 90.9573 201.032 91.032C200.605 91.128 200.216 91.176 199.864 91.176C199.106 91.176 198.557 91 198.216 90.648C197.885 90.296 197.72 89.768 197.72 89.064V84.408H196.84C196.669 84.408 196.53 84.36 196.424 84.264C196.328 84.1573 196.28 84.0187 196.28 83.848V83.672C196.28 83.4907 196.328 83.352 196.424 83.256C196.53 83.16 196.669 83.112 196.84 83.112H197.72V81.128C197.72 80.9467 197.768 80.808 197.864 80.712C197.97 80.616 198.109 80.568 198.28 80.568H198.856C199.037 80.568 199.176 80.616 199.272 80.712C199.368 80.808 199.416 80.9467 199.416 81.128V83.112H200.856C201.037 83.112 201.176 83.16 201.272 83.256C201.368 83.352 201.416 83.4907 201.416 83.672V83.848C201.416 84.0187 201.368 84.1573 201.272 84.264C201.176 84.36 201.037 84.408 200.856 84.408H199.416V88.856C199.416 89.1653 199.48 89.384 199.608 89.512C199.746 89.64 199.965 89.704 200.264 89.704C200.392 89.704 200.568 89.688 200.792 89.656Z" fill="white"/>
<path d="M48 42H296V38H48V42ZM302 48V102H306V48H302ZM296 108H48V112H296V108ZM42 102V48H38V102H42ZM48 108C44.6863 108 42 105.314 42 102H38C38 107.523 42.4771 112 48 112V108ZM302 102C302 105.314 299.314 108 296 108V112C301.523 112 306 107.523 306 102H302ZM296 42C299.314 42 302 44.6863 302 48H306C306 42.4772 301.523 38 296 38V42ZM48 38C42.4772 38 38 42.4772 38 48H42C42 44.6863 44.6863 42 48 42V38Z" fill="#0063FB"/>
<path d="M40 142C40 137.582 43.5817 134 48 134H296C300.418 134 304 137.582 304 142V196C304 200.418 300.418 204 296 204H48C43.5817 204 40 200.418 40 196V142Z" fill="white"/>
<path d="M83.3779 163C83.2073 163 83.0686 162.952 82.9619 162.856C82.8659 162.749 82.8179 162.611 82.8179 162.44V152.2C82.8179 152.019 82.8659 151.88 82.9619 151.784C83.0686 151.688 83.2073 151.64 83.3779 151.64H90.0179C90.1993 151.64 90.3379 151.688 90.4339 151.784C90.5299 151.88 90.5779 152.019 90.5779 152.2V152.616C90.5779 152.787 90.5299 152.925 90.4339 153.032C90.3379 153.128 90.1993 153.176 90.0179 153.176H84.6419V156.376H89.6179C89.7993 156.376 89.9379 156.424 90.0339 156.52C90.1299 156.616 90.1779 156.755 90.1779 156.936V157.352C90.1779 157.523 90.1299 157.661 90.0339 157.768C89.9379 157.864 89.7993 157.912 89.6179 157.912H84.6419V161.464H90.1779C90.3593 161.464 90.4979 161.512 90.5939 161.608C90.6899 161.704 90.7379 161.843 90.7379 162.024V162.44C90.7379 162.611 90.6899 162.749 90.5939 162.856C90.4979 162.952 90.3593 163 90.1779 163H83.3779ZM97.7389 152.184C97.7389 152.003 97.7869 151.864 97.8829 151.768C97.9896 151.672 98.1283 151.624 98.2989 151.624H98.8749C99.0563 151.624 99.1949 151.672 99.2909 151.768C99.3869 151.864 99.4349 152.003 99.4349 152.184V162.44C99.4349 162.611 99.3869 162.749 99.2909 162.856C99.1949 162.952 99.0563 163 98.8749 163H98.4109C98.2403 163 98.1016 162.952 97.9949 162.856C97.8989 162.749 97.8509 162.611 97.8509 162.44V161.88C97.2963 162.776 96.4269 163.224 95.2429 163.224C94.5816 163.224 93.9843 163.053 93.4509 162.712C92.9283 162.371 92.5176 161.885 92.2189 161.256C91.9203 160.627 91.7709 159.896 91.7709 159.064C91.7709 158.243 91.9203 157.517 92.2189 156.888C92.5283 156.259 92.9496 155.773 93.4829 155.432C94.0163 155.091 94.6136 154.92 95.2749 154.92C96.3629 154.92 97.1843 155.299 97.7389 156.056V152.184ZM95.5949 161.768C96.2456 161.768 96.7789 161.528 97.1949 161.048C97.6109 160.557 97.8189 159.896 97.8189 159.064C97.8189 158.232 97.6109 157.576 97.1949 157.096C96.7789 156.616 96.2456 156.376 95.5949 156.376C94.9656 156.376 94.4589 156.621 94.0749 157.112C93.6909 157.603 93.4989 158.253 93.4989 159.064C93.4989 159.885 93.6856 160.541 94.0589 161.032C94.4429 161.523 94.9549 161.768 95.5949 161.768ZM102.27 153.576C101.96 153.576 101.699 153.475 101.486 153.272C101.272 153.059 101.166 152.808 101.166 152.52C101.166 152.221 101.272 151.971 101.486 151.768C101.699 151.565 101.96 151.464 102.27 151.464C102.579 151.464 102.84 151.565 103.054 151.768C103.267 151.971 103.374 152.221 103.374 152.52C103.374 152.808 103.267 153.059 103.054 153.272C102.84 153.475 102.579 153.576 102.27 153.576ZM101.966 163C101.795 163 101.656 162.952 101.55 162.856C101.454 162.749 101.406 162.611 101.406 162.44V155.672C101.406 155.491 101.454 155.352 101.55 155.256C101.656 155.16 101.795 155.112 101.966 155.112H102.542C102.723 155.112 102.862 155.16 102.958 155.256C103.054 155.352 103.102 155.491 103.102 155.672V162.44C103.102 162.611 103.054 162.749 102.958 162.856C102.862 162.952 102.723 163 102.542 163H101.966ZM108.87 161.656C108.902 161.645 108.95 161.64 109.014 161.64C109.281 161.64 109.441 161.795 109.494 162.104L109.542 162.36C109.553 162.392 109.558 162.445 109.558 162.52C109.558 162.787 109.409 162.957 109.11 163.032C108.683 163.128 108.294 163.176 107.942 163.176C107.185 163.176 106.635 163 106.294 162.648C105.963 162.296 105.798 161.768 105.798 161.064V156.408H104.918C104.747 156.408 104.609 156.36 104.502 156.264C104.406 156.157 104.358 156.019 104.358 155.848V155.672C104.358 155.491 104.406 155.352 104.502 155.256C104.609 155.16 104.747 155.112 104.918 155.112H105.798V153.128C105.798 152.947 105.846 152.808 105.942 152.712C106.049 152.616 106.187 152.568 106.358 152.568H106.934C107.115 152.568 107.254 152.616 107.35 152.712C107.446 152.808 107.494 152.947 107.494 153.128V155.112H108.934C109.115 155.112 109.254 155.16 109.35 155.256C109.446 155.352 109.494 155.491 109.494 155.672V155.848C109.494 156.019 109.446 156.157 109.35 156.264C109.254 156.36 109.115 156.408 108.934 156.408H107.494V160.856C107.494 161.165 107.558 161.384 107.686 161.512C107.825 161.64 108.043 161.704 108.342 161.704C108.47 161.704 108.646 161.688 108.87 161.656ZM118.66 154.904C119.332 154.904 119.93 155.075 120.452 155.416C120.986 155.757 121.402 156.243 121.7 156.872C121.999 157.501 122.148 158.227 122.148 159.048C122.148 159.88 121.999 160.611 121.7 161.24C121.402 161.869 120.986 162.355 120.452 162.696C119.919 163.037 119.322 163.208 118.66 163.208C117.551 163.208 116.719 162.824 116.164 162.056V165.272C116.164 165.453 116.116 165.592 116.02 165.688C115.924 165.784 115.786 165.832 115.604 165.832H115.028C114.858 165.832 114.719 165.784 114.612 165.688C114.516 165.592 114.468 165.453 114.468 165.272V155.672C114.468 155.491 114.516 155.352 114.612 155.256C114.719 155.16 114.858 155.112 115.028 155.112H115.492C115.674 155.112 115.812 155.16 115.908 155.256C116.004 155.352 116.052 155.491 116.052 155.672V156.264C116.618 155.357 117.487 154.904 118.66 154.904ZM118.308 161.736C118.948 161.736 119.46 161.496 119.844 161.016C120.228 160.525 120.42 159.869 120.42 159.048C120.42 158.237 120.228 157.587 119.844 157.096C119.471 156.605 118.964 156.36 118.324 156.36C117.674 156.36 117.14 156.6 116.724 157.08C116.308 157.56 116.1 158.216 116.1 159.048C116.1 159.88 116.308 160.536 116.724 161.016C117.14 161.496 117.668 161.736 118.308 161.736ZM128.695 155.672C128.695 155.491 128.743 155.352 128.839 155.256C128.946 155.16 129.084 155.112 129.255 155.112H129.831C130.012 155.112 130.151 155.16 130.247 155.256C130.343 155.352 130.391 155.491 130.391 155.672V162.44C130.391 162.611 130.343 162.749 130.247 162.856C130.151 162.952 130.012 163 129.831 163H129.399C129.228 163 129.09 162.952 128.983 162.856C128.887 162.749 128.839 162.611 128.839 162.44V162.072C128.626 162.435 128.316 162.723 127.911 162.936C127.506 163.139 127.026 163.24 126.471 163.24C125.532 163.24 124.834 163.011 124.375 162.552C123.916 162.083 123.687 161.464 123.687 160.696V155.672C123.687 155.491 123.735 155.352 123.831 155.256C123.938 155.16 124.076 155.112 124.247 155.112H124.823C125.004 155.112 125.143 155.16 125.239 155.256C125.335 155.352 125.383 155.491 125.383 155.672V160.248C125.383 160.739 125.506 161.117 125.751 161.384C126.007 161.64 126.375 161.768 126.855 161.768C127.41 161.768 127.852 161.608 128.183 161.288C128.524 160.968 128.695 160.504 128.695 159.896V155.672ZM135.895 155.032C136.13 155.032 136.37 155.059 136.615 155.112C136.903 155.176 137.047 155.347 137.047 155.624C137.047 155.699 137.042 155.752 137.031 155.784L136.951 156.168C136.887 156.467 136.727 156.616 136.471 156.616L136.327 156.6C136.135 156.568 135.965 156.552 135.815 156.552C135.282 156.552 134.85 156.765 134.519 157.192C134.199 157.608 134.039 158.189 134.039 158.936V162.44C134.039 162.611 133.991 162.749 133.895 162.856C133.799 162.952 133.661 163 133.479 163H132.903C132.733 163 132.594 162.952 132.487 162.856C132.391 162.749 132.343 162.611 132.343 162.44V155.672C132.343 155.491 132.391 155.352 132.487 155.256C132.594 155.16 132.733 155.112 132.903 155.112H133.367C133.549 155.112 133.687 155.16 133.783 155.256C133.879 155.352 133.927 155.491 133.927 155.672V156.296C134.119 155.901 134.381 155.592 134.711 155.368C135.042 155.144 135.437 155.032 135.895 155.032ZM141.378 163.24C140.599 163.24 139.911 163.069 139.314 162.728C138.727 162.387 138.268 161.901 137.938 161.272C137.618 160.632 137.458 159.891 137.458 159.048C137.458 158.205 137.623 157.469 137.954 156.84C138.284 156.211 138.748 155.725 139.346 155.384C139.943 155.043 140.631 154.872 141.41 154.872C141.975 154.872 142.482 154.957 142.93 155.128C143.388 155.288 143.826 155.565 144.242 155.96C144.37 156.088 144.434 156.221 144.434 156.36C144.434 156.488 144.364 156.621 144.226 156.76L143.954 157.032C143.836 157.149 143.708 157.208 143.57 157.208C143.431 157.208 143.287 157.144 143.138 157.016C142.828 156.749 142.535 156.568 142.258 156.472C141.991 156.365 141.703 156.312 141.394 156.312C140.69 156.312 140.146 156.573 139.762 157.096C139.378 157.619 139.186 158.269 139.186 159.048C139.186 159.827 139.378 160.483 139.762 161.016C140.146 161.539 140.69 161.8 141.394 161.8C141.735 161.8 142.05 161.736 142.338 161.608C142.626 161.469 142.935 161.24 143.266 160.92C143.404 160.781 143.548 160.712 143.698 160.712C143.826 160.712 143.948 160.765 144.066 160.872L144.338 161.096C144.476 161.213 144.546 161.347 144.546 161.496C144.546 161.656 144.466 161.827 144.306 162.008C143.868 162.456 143.415 162.776 142.946 162.968C142.487 163.149 141.964 163.24 141.378 163.24ZM149.984 154.872C150.891 154.872 151.584 155.128 152.064 155.64C152.555 156.141 152.8 156.792 152.8 157.592V162.44C152.8 162.611 152.752 162.749 152.656 162.856C152.56 162.952 152.422 163 152.24 163H151.664C151.494 163 151.355 162.952 151.248 162.856C151.152 162.749 151.104 162.611 151.104 162.44V158.12C151.104 157.544 150.96 157.101 150.672 156.792C150.395 156.483 149.995 156.328 149.472 156.328C148.96 156.328 148.528 156.504 148.176 156.856C147.835 157.208 147.664 157.651 147.664 158.184V162.44C147.664 162.611 147.616 162.749 147.52 162.856C147.424 162.952 147.286 163 147.104 163H146.528C146.358 163 146.219 162.952 146.112 162.856C146.016 162.749 145.968 162.611 145.968 162.44V152.2C145.968 152.019 146.016 151.88 146.112 151.784C146.219 151.688 146.358 151.64 146.528 151.64H147.104C147.286 151.64 147.424 151.688 147.52 151.784C147.616 151.88 147.664 152.019 147.664 152.2V155.928C147.92 155.587 148.246 155.325 148.64 155.144C149.046 154.963 149.494 154.872 149.984 154.872ZM158.077 154.872C159.144 154.872 159.965 155.123 160.541 155.624C161.117 156.115 161.405 156.771 161.405 157.592V162.44C161.405 162.611 161.357 162.749 161.261 162.856C161.165 162.952 161.027 163 160.845 163H160.429C160.259 163 160.12 162.952 160.013 162.856C159.917 162.749 159.869 162.611 159.869 162.44V162.088C159.613 162.461 159.261 162.749 158.813 162.952C158.365 163.155 157.843 163.256 157.245 163.256C156.424 163.256 155.747 163.075 155.213 162.712C154.691 162.339 154.429 161.779 154.429 161.032C154.429 160.2 154.739 159.587 155.357 159.192C155.987 158.787 156.856 158.483 157.965 158.28L159.773 157.944V157.656C159.773 157.219 159.619 156.883 159.309 156.648C159.011 156.403 158.611 156.28 158.109 156.28C157.683 156.28 157.309 156.355 156.989 156.504C156.68 156.643 156.344 156.877 155.981 157.208C155.843 157.325 155.709 157.384 155.581 157.384C155.453 157.384 155.32 157.325 155.181 157.208L154.925 156.984C154.787 156.856 154.717 156.717 154.717 156.568C154.717 156.429 154.781 156.296 154.909 156.168C155.368 155.731 155.853 155.405 156.365 155.192C156.877 154.979 157.448 154.872 158.077 154.872ZM157.485 161.896C158.125 161.896 158.664 161.725 159.101 161.384C159.549 161.043 159.773 160.552 159.773 159.912V159.176L158.381 159.464C157.603 159.624 157.027 159.805 156.653 160.008C156.28 160.211 156.093 160.52 156.093 160.936C156.093 161.235 156.216 161.469 156.461 161.64C156.707 161.811 157.048 161.896 157.485 161.896ZM166.383 163.24C165.733 163.24 165.151 163.16 164.639 163C164.138 162.829 163.626 162.536 163.103 162.12C162.943 162.003 162.863 161.869 162.863 161.72C162.863 161.603 162.922 161.475 163.039 161.336L163.279 161.064C163.407 160.915 163.546 160.84 163.695 160.84C163.813 160.84 163.941 160.893 164.079 161C164.527 161.331 164.922 161.56 165.263 161.688C165.605 161.805 165.989 161.864 166.415 161.864C166.874 161.864 167.247 161.773 167.535 161.592C167.834 161.4 167.983 161.144 167.983 160.824C167.983 160.579 167.898 160.387 167.727 160.248C167.567 160.099 167.354 159.987 167.087 159.912C166.821 159.827 166.426 159.731 165.903 159.624C165.167 159.464 164.591 159.293 164.175 159.112C163.77 158.92 163.477 158.68 163.295 158.392C163.114 158.104 163.023 157.736 163.023 157.288C163.023 156.829 163.151 156.419 163.407 156.056C163.674 155.693 164.042 155.405 164.511 155.192C164.991 154.979 165.551 154.872 166.191 154.872C166.767 154.872 167.279 154.936 167.727 155.064C168.186 155.192 168.634 155.411 169.071 155.72C169.242 155.848 169.327 155.992 169.327 156.152C169.327 156.259 169.274 156.381 169.167 156.52L168.959 156.776C168.842 156.925 168.698 157 168.527 157C168.399 157 168.277 156.957 168.159 156.872C167.807 156.637 167.482 156.477 167.183 156.392C166.885 156.296 166.549 156.248 166.175 156.248C165.717 156.248 165.349 156.339 165.071 156.52C164.794 156.701 164.655 156.936 164.655 157.224C164.655 157.416 164.719 157.571 164.847 157.688C164.986 157.795 165.178 157.891 165.423 157.976C165.679 158.051 166.079 158.147 166.623 158.264C167.359 158.424 167.941 158.605 168.367 158.808C168.805 159 169.125 159.251 169.327 159.56C169.541 159.859 169.647 160.248 169.647 160.728C169.647 161.475 169.349 162.083 168.751 162.552C168.165 163.011 167.375 163.24 166.383 163.24ZM176.757 160.984C176.895 160.867 177.029 160.808 177.157 160.808C177.285 160.808 177.418 160.877 177.557 161.016L177.781 161.256C177.898 161.395 177.957 161.528 177.957 161.656C177.957 161.795 177.887 161.928 177.749 162.056C177.258 162.483 176.767 162.787 176.277 162.968C175.797 163.149 175.263 163.24 174.677 163.24C173.855 163.24 173.141 163.069 172.533 162.728C171.935 162.387 171.471 161.907 171.141 161.288C170.821 160.659 170.661 159.933 170.661 159.112C170.661 158.301 170.815 157.576 171.125 156.936C171.445 156.285 171.893 155.779 172.469 155.416C173.055 155.053 173.738 154.872 174.517 154.872C175.679 154.872 176.575 155.219 177.205 155.912C177.834 156.595 178.149 157.539 178.149 158.744V158.888C178.138 159.059 178.085 159.192 177.989 159.288C177.893 159.384 177.754 159.432 177.573 159.432H172.325C172.389 160.136 172.618 160.712 173.013 161.16C173.418 161.597 173.983 161.816 174.709 161.816C175.103 161.816 175.45 161.757 175.749 161.64C176.047 161.512 176.383 161.293 176.757 160.984ZM174.485 156.216C173.898 156.216 173.423 156.392 173.061 156.744C172.709 157.085 172.479 157.571 172.373 158.2H176.485C176.442 157.581 176.25 157.096 175.909 156.744C175.567 156.392 175.093 156.216 174.485 156.216ZM186.609 154.872C187.675 154.872 188.497 155.123 189.073 155.624C189.649 156.115 189.937 156.771 189.937 157.592V162.44C189.937 162.611 189.889 162.749 189.793 162.856C189.697 162.952 189.558 163 189.377 163H188.961C188.79 163 188.651 162.952 188.545 162.856C188.449 162.749 188.401 162.611 188.401 162.44V162.088C188.145 162.461 187.793 162.749 187.345 162.952C186.897 163.155 186.374 163.256 185.777 163.256C184.955 163.256 184.278 163.075 183.745 162.712C183.222 162.339 182.961 161.779 182.961 161.032C182.961 160.2 183.27 159.587 183.889 159.192C184.518 158.787 185.387 158.483 186.497 158.28L188.305 157.944V157.656C188.305 157.219 188.15 156.883 187.841 156.648C187.542 156.403 187.142 156.28 186.641 156.28C186.214 156.28 185.841 156.355 185.521 156.504C185.211 156.643 184.875 156.877 184.513 157.208C184.374 157.325 184.241 157.384 184.113 157.384C183.985 157.384 183.851 157.325 183.713 157.208L183.457 156.984C183.318 156.856 183.249 156.717 183.249 156.568C183.249 156.429 183.313 156.296 183.441 156.168C183.899 155.731 184.385 155.405 184.897 155.192C185.409 154.979 185.979 154.872 186.609 154.872ZM186.017 161.896C186.657 161.896 187.195 161.725 187.633 161.384C188.081 161.043 188.305 160.552 188.305 159.912V159.176L186.913 159.464C186.134 159.624 185.558 159.805 185.185 160.008C184.811 160.211 184.625 160.52 184.625 160.936C184.625 161.235 184.747 161.469 184.993 161.64C185.238 161.811 185.579 161.896 186.017 161.896ZM197.426 155.624C197.426 155.464 197.474 155.341 197.57 155.256C197.677 155.16 197.816 155.112 197.986 155.112H198.434C198.616 155.112 198.754 155.16 198.85 155.256C198.946 155.352 198.994 155.491 198.994 155.672V162.712C198.994 163.768 198.653 164.589 197.97 165.176C197.298 165.763 196.402 166.056 195.282 166.056C194.162 166.056 193.106 165.768 192.114 165.192C191.912 165.085 191.81 164.941 191.81 164.76C191.81 164.664 191.853 164.547 191.938 164.408L192.146 164.104C192.264 163.923 192.408 163.832 192.578 163.832C192.696 163.832 192.813 163.869 192.93 163.944C193.357 164.189 193.752 164.365 194.114 164.472C194.477 164.589 194.861 164.648 195.266 164.648C195.885 164.648 196.381 164.477 196.754 164.136C197.138 163.805 197.33 163.283 197.33 162.568V161.72C196.797 162.477 195.997 162.856 194.93 162.856C194.269 162.856 193.672 162.691 193.138 162.36C192.616 162.019 192.205 161.549 191.906 160.952C191.618 160.344 191.474 159.651 191.474 158.872C191.474 158.093 191.618 157.405 191.906 156.808C192.205 156.2 192.616 155.725 193.138 155.384C193.672 155.043 194.269 154.872 194.93 154.872C196.061 154.872 196.893 155.293 197.426 156.136V155.624ZM195.266 161.432C195.885 161.432 196.392 161.197 196.786 160.728C197.181 160.248 197.378 159.629 197.378 158.872C197.378 158.125 197.181 157.517 196.786 157.048C196.402 156.568 195.896 156.328 195.266 156.328C194.626 156.328 194.12 156.563 193.746 157.032C193.373 157.501 193.186 158.115 193.186 158.872C193.186 159.64 193.373 160.259 193.746 160.728C194.12 161.197 194.626 161.432 195.266 161.432ZM204.505 155.032C204.739 155.032 204.979 155.059 205.225 155.112C205.513 155.176 205.657 155.347 205.657 155.624C205.657 155.699 205.651 155.752 205.641 155.784L205.561 156.168C205.497 156.467 205.337 156.616 205.081 156.616L204.937 156.6C204.745 156.568 204.574 156.552 204.425 156.552C203.891 156.552 203.459 156.765 203.129 157.192C202.809 157.608 202.649 158.189 202.649 158.936V162.44C202.649 162.611 202.601 162.749 202.505 162.856C202.409 162.952 202.27 163 202.089 163H201.513C201.342 163 201.203 162.952 201.097 162.856C201.001 162.749 200.953 162.611 200.953 162.44V155.672C200.953 155.491 201.001 155.352 201.097 155.256C201.203 155.16 201.342 155.112 201.513 155.112H201.977C202.158 155.112 202.297 155.16 202.393 155.256C202.489 155.352 202.537 155.491 202.537 155.672V156.296C202.729 155.901 202.99 155.592 203.321 155.368C203.651 155.144 204.046 155.032 204.505 155.032ZM212.163 160.984C212.302 160.867 212.435 160.808 212.563 160.808C212.691 160.808 212.824 160.877 212.963 161.016L213.187 161.256C213.304 161.395 213.363 161.528 213.363 161.656C213.363 161.795 213.294 161.928 213.155 162.056C212.664 162.483 212.174 162.787 211.683 162.968C211.203 163.149 210.67 163.24 210.083 163.24C209.262 163.24 208.547 163.069 207.939 162.728C207.342 162.387 206.878 161.907 206.547 161.288C206.227 160.659 206.067 159.933 206.067 159.112C206.067 158.301 206.222 157.576 206.531 156.936C206.851 156.285 207.299 155.779 207.875 155.416C208.462 155.053 209.144 154.872 209.923 154.872C211.086 154.872 211.982 155.219 212.611 155.912C213.24 156.595 213.555 157.539 213.555 158.744V158.888C213.544 159.059 213.491 159.192 213.395 159.288C213.299 159.384 213.16 159.432 212.979 159.432H207.731C207.795 160.136 208.024 160.712 208.419 161.16C208.824 161.597 209.39 161.816 210.115 161.816C210.51 161.816 210.856 161.757 211.155 161.64C211.454 161.512 211.79 161.293 212.163 160.984ZM209.891 156.216C209.304 156.216 208.83 156.392 208.467 156.744C208.115 157.085 207.886 157.571 207.779 158.2H211.891C211.848 157.581 211.656 157.096 211.315 156.744C210.974 156.392 210.499 156.216 209.891 156.216ZM220.788 160.984C220.927 160.867 221.06 160.808 221.188 160.808C221.316 160.808 221.449 160.877 221.588 161.016L221.812 161.256C221.929 161.395 221.988 161.528 221.988 161.656C221.988 161.795 221.919 161.928 221.78 162.056C221.289 162.483 220.799 162.787 220.308 162.968C219.828 163.149 219.295 163.24 218.708 163.24C217.887 163.24 217.172 163.069 216.564 162.728C215.967 162.387 215.503 161.907 215.172 161.288C214.852 160.659 214.692 159.933 214.692 159.112C214.692 158.301 214.847 157.576 215.156 156.936C215.476 156.285 215.924 155.779 216.5 155.416C217.087 155.053 217.769 154.872 218.548 154.872C219.711 154.872 220.607 155.219 221.236 155.912C221.865 156.595 222.18 157.539 222.18 158.744V158.888C222.169 159.059 222.116 159.192 222.02 159.288C221.924 159.384 221.785 159.432 221.604 159.432H216.356C216.42 160.136 216.649 160.712 217.044 161.16C217.449 161.597 218.015 161.816 218.74 161.816C219.135 161.816 219.481 161.757 219.78 161.64C220.079 161.512 220.415 161.293 220.788 160.984ZM218.516 156.216C217.929 156.216 217.455 156.392 217.092 156.744C216.74 157.085 216.511 157.571 216.404 158.2H220.516C220.473 157.581 220.281 157.096 219.94 156.744C219.599 156.392 219.124 156.216 218.516 156.216ZM232.198 154.872C233.04 154.872 233.691 155.112 234.15 155.592C234.608 156.061 234.838 156.696 234.838 157.496V162.44C234.838 162.611 234.79 162.749 234.694 162.856C234.598 162.952 234.459 163 234.278 163H233.702C233.531 163 233.392 162.952 233.286 162.856C233.19 162.749 233.142 162.611 233.142 162.44V158.008C233.142 157.485 233.024 157.075 232.79 156.776C232.555 156.477 232.198 156.328 231.718 156.328C231.227 156.328 230.838 156.493 230.55 156.824C230.272 157.155 230.134 157.581 230.134 158.104V162.44C230.134 162.611 230.086 162.749 229.99 162.856C229.894 162.952 229.755 163 229.574 163H228.998C228.827 163 228.688 162.952 228.582 162.856C228.486 162.749 228.438 162.611 228.438 162.44V158.008C228.438 157.485 228.32 157.075 228.086 156.776C227.862 156.477 227.51 156.328 227.03 156.328C226.56 156.328 226.182 156.483 225.894 156.792C225.606 157.101 225.451 157.501 225.43 157.992V162.44C225.43 162.611 225.382 162.749 225.286 162.856C225.19 162.952 225.051 163 224.87 163H224.294C224.123 163 223.984 162.952 223.878 162.856C223.782 162.749 223.734 162.611 223.734 162.44V155.672C223.734 155.491 223.782 155.352 223.878 155.256C223.984 155.16 224.123 155.112 224.294 155.112H224.758C224.939 155.112 225.078 155.16 225.174 155.256C225.27 155.352 225.318 155.491 225.318 155.672V156.024C225.808 155.256 226.566 154.872 227.59 154.872C228.102 154.872 228.55 154.979 228.934 155.192C229.318 155.405 229.611 155.704 229.814 156.088C230.358 155.277 231.152 154.872 232.198 154.872ZM242.429 160.984C242.567 160.867 242.701 160.808 242.829 160.808C242.957 160.808 243.09 160.877 243.229 161.016L243.453 161.256C243.57 161.395 243.629 161.528 243.629 161.656C243.629 161.795 243.559 161.928 243.421 162.056C242.93 162.483 242.439 162.787 241.949 162.968C241.469 163.149 240.935 163.24 240.349 163.24C239.527 163.24 238.813 163.069 238.205 162.728C237.607 162.387 237.143 161.907 236.813 161.288C236.493 160.659 236.333 159.933 236.333 159.112C236.333 158.301 236.487 157.576 236.797 156.936C237.117 156.285 237.565 155.779 238.141 155.416C238.727 155.053 239.41 154.872 240.189 154.872C241.351 154.872 242.247 155.219 242.877 155.912C243.506 156.595 243.821 157.539 243.821 158.744V158.888C243.81 159.059 243.757 159.192 243.661 159.288C243.565 159.384 243.426 159.432 243.245 159.432H237.997C238.061 160.136 238.29 160.712 238.685 161.16C239.09 161.597 239.655 161.816 240.381 161.816C240.775 161.816 241.122 161.757 241.421 161.64C241.719 161.512 242.055 161.293 242.429 160.984ZM240.157 156.216C239.57 156.216 239.095 156.392 238.733 156.744C238.381 157.085 238.151 157.571 238.045 158.2H242.157C242.114 157.581 241.922 157.096 241.581 156.744C241.239 156.392 240.765 156.216 240.157 156.216ZM249.39 154.872C250.297 154.872 250.99 155.128 251.47 155.64C251.961 156.141 252.206 156.792 252.206 157.592V162.44C252.206 162.611 252.158 162.749 252.062 162.856C251.966 162.952 251.828 163 251.646 163H251.07C250.9 163 250.761 162.952 250.654 162.856C250.558 162.749 250.51 162.611 250.51 162.44V158.12C250.51 157.544 250.366 157.101 250.078 156.792C249.801 156.483 249.401 156.328 248.878 156.328C248.366 156.328 247.934 156.504 247.582 156.856C247.241 157.208 247.07 157.651 247.07 158.184V162.44C247.07 162.611 247.022 162.749 246.926 162.856C246.83 162.952 246.692 163 246.51 163H245.934C245.764 163 245.625 162.952 245.518 162.856C245.422 162.749 245.374 162.611 245.374 162.44V155.672C245.374 155.491 245.422 155.352 245.518 155.256C245.625 155.16 245.764 155.112 245.934 155.112H246.398C246.58 155.112 246.718 155.16 246.814 155.256C246.91 155.352 246.958 155.491 246.958 155.672V156.088C247.214 155.693 247.55 155.395 247.966 155.192C248.382 154.979 248.857 154.872 249.39 154.872ZM257.792 161.656C257.824 161.645 257.872 161.64 257.936 161.64C258.202 161.64 258.362 161.795 258.416 162.104L258.464 162.36C258.474 162.392 258.48 162.445 258.48 162.52C258.48 162.787 258.33 162.957 258.032 163.032C257.605 163.128 257.216 163.176 256.864 163.176C256.106 163.176 255.557 163 255.216 162.648C254.885 162.296 254.72 161.768 254.72 161.064V156.408H253.84C253.669 156.408 253.53 156.36 253.424 156.264C253.328 156.157 253.28 156.019 253.28 155.848V155.672C253.28 155.491 253.328 155.352 253.424 155.256C253.53 155.16 253.669 155.112 253.84 155.112H254.72V153.128C254.72 152.947 254.768 152.808 254.864 152.712C254.97 152.616 255.109 152.568 255.28 152.568H255.856C256.037 152.568 256.176 152.616 256.272 152.712C256.368 152.808 256.416 152.947 256.416 153.128V155.112H257.856C258.037 155.112 258.176 155.16 258.272 155.256C258.368 155.352 258.416 155.491 258.416 155.672V155.848C258.416 156.019 258.368 156.157 258.272 156.264C258.176 156.36 258.037 156.408 257.856 156.408H256.416V160.856C256.416 161.165 256.48 161.384 256.608 161.512C256.746 161.64 256.965 161.704 257.264 161.704C257.392 161.704 257.568 161.688 257.792 161.656ZM146.612 185.24C145.833 185.24 145.145 185.069 144.548 184.728C143.961 184.387 143.503 183.901 143.172 183.272C142.852 182.632 142.692 181.891 142.692 181.048C142.692 180.205 142.857 179.469 143.188 178.84C143.519 178.211 143.983 177.725 144.58 177.384C145.177 177.043 145.865 176.872 146.644 176.872C147.209 176.872 147.716 176.957 148.164 177.128C148.623 177.288 149.06 177.565 149.476 177.96C149.604 178.088 149.668 178.221 149.668 178.36C149.668 178.488 149.599 178.621 149.46 178.76L149.188 179.032C149.071 179.149 148.943 179.208 148.804 179.208C148.665 179.208 148.521 179.144 148.372 179.016C148.063 178.749 147.769 178.568 147.492 178.472C147.225 178.365 146.937 178.312 146.628 178.312C145.924 178.312 145.38 178.573 144.996 179.096C144.612 179.619 144.42 180.269 144.42 181.048C144.42 181.827 144.612 182.483 144.996 183.016C145.38 183.539 145.924 183.8 146.628 183.8C146.969 183.8 147.284 183.736 147.572 183.608C147.86 183.469 148.169 183.24 148.5 182.92C148.639 182.781 148.783 182.712 148.932 182.712C149.06 182.712 149.183 182.765 149.3 182.872L149.572 183.096C149.711 183.213 149.78 183.347 149.78 183.496C149.78 183.656 149.7 183.827 149.54 184.008C149.103 184.456 148.649 184.776 148.18 184.968C147.721 185.149 147.199 185.24 146.612 185.24ZM154.583 185.24C153.804 185.24 153.111 185.064 152.503 184.712C151.905 184.36 151.436 183.869 151.095 183.24C150.753 182.6 150.583 181.869 150.583 181.048C150.583 180.227 150.753 179.501 151.095 178.872C151.436 178.243 151.905 177.752 152.503 177.4C153.111 177.048 153.804 176.872 154.583 176.872C155.351 176.872 156.039 177.048 156.647 177.4C157.255 177.752 157.729 178.248 158.071 178.888C158.412 179.517 158.583 180.237 158.583 181.048C158.583 181.869 158.412 182.6 158.071 183.24C157.729 183.869 157.255 184.36 156.647 184.712C156.039 185.064 155.351 185.24 154.583 185.24ZM154.583 183.816C155.265 183.816 155.815 183.565 156.231 183.064C156.647 182.552 156.855 181.88 156.855 181.048C156.855 180.227 156.647 179.565 156.231 179.064C155.815 178.563 155.265 178.312 154.583 178.312C153.9 178.312 153.351 178.563 152.935 179.064C152.519 179.565 152.311 180.227 152.311 181.048C152.311 181.88 152.519 182.552 152.935 183.064C153.351 183.565 153.9 183.816 154.583 183.816ZM164.094 176.872C165 176.872 165.694 177.128 166.174 177.64C166.664 178.141 166.91 178.792 166.91 179.592V184.44C166.91 184.611 166.862 184.749 166.766 184.856C166.67 184.952 166.531 185 166.35 185H165.774C165.603 185 165.464 184.952 165.358 184.856C165.262 184.749 165.214 184.611 165.214 184.44V180.12C165.214 179.544 165.07 179.101 164.782 178.792C164.504 178.483 164.104 178.328 163.582 178.328C163.07 178.328 162.638 178.504 162.286 178.856C161.944 179.208 161.774 179.651 161.774 180.184V184.44C161.774 184.611 161.726 184.749 161.63 184.856C161.534 184.952 161.395 185 161.214 185H160.638C160.467 185 160.328 184.952 160.222 184.856C160.126 184.749 160.078 184.611 160.078 184.44V177.672C160.078 177.491 160.126 177.352 160.222 177.256C160.328 177.16 160.467 177.112 160.638 177.112H161.102C161.283 177.112 161.422 177.16 161.518 177.256C161.614 177.352 161.662 177.491 161.662 177.672V178.088C161.918 177.693 162.254 177.395 162.67 177.192C163.086 176.979 163.56 176.872 164.094 176.872ZM172.495 183.656C172.527 183.645 172.575 183.64 172.639 183.64C172.906 183.64 173.066 183.795 173.119 184.104L173.167 184.36C173.178 184.392 173.183 184.445 173.183 184.52C173.183 184.787 173.034 184.957 172.735 185.032C172.308 185.128 171.919 185.176 171.567 185.176C170.81 185.176 170.26 185 169.919 184.648C169.588 184.296 169.423 183.768 169.423 183.064V178.408H168.543C168.372 178.408 168.234 178.36 168.127 178.264C168.031 178.157 167.983 178.019 167.983 177.848V177.672C167.983 177.491 168.031 177.352 168.127 177.256C168.234 177.16 168.372 177.112 168.543 177.112H169.423V175.128C169.423 174.947 169.471 174.808 169.567 174.712C169.674 174.616 169.812 174.568 169.983 174.568H170.559C170.74 174.568 170.879 174.616 170.975 174.712C171.071 174.808 171.119 174.947 171.119 175.128V177.112H172.559C172.74 177.112 172.879 177.16 172.975 177.256C173.071 177.352 173.119 177.491 173.119 177.672V177.848C173.119 178.019 173.071 178.157 172.975 178.264C172.879 178.36 172.74 178.408 172.559 178.408H171.119V182.856C171.119 183.165 171.183 183.384 171.311 183.512C171.45 183.64 171.668 183.704 171.967 183.704C172.095 183.704 172.271 183.688 172.495 183.656ZM178.067 177.032C178.302 177.032 178.542 177.059 178.787 177.112C179.075 177.176 179.219 177.347 179.219 177.624C179.219 177.699 179.214 177.752 179.203 177.784L179.123 178.168C179.059 178.467 178.899 178.616 178.643 178.616L178.499 178.6C178.307 178.568 178.136 178.552 177.987 178.552C177.454 178.552 177.022 178.765 176.691 179.192C176.371 179.608 176.211 180.189 176.211 180.936V184.44C176.211 184.611 176.163 184.749 176.067 184.856C175.971 184.952 175.832 185 175.651 185H175.075C174.904 185 174.766 184.952 174.659 184.856C174.563 184.749 174.515 184.611 174.515 184.44V177.672C174.515 177.491 174.563 177.352 174.659 177.256C174.766 177.16 174.904 177.112 175.075 177.112H175.539C175.72 177.112 175.859 177.16 175.955 177.256C176.051 177.352 176.099 177.491 176.099 177.672V178.296C176.291 177.901 176.552 177.592 176.883 177.368C177.214 177.144 177.608 177.032 178.067 177.032ZM183.609 176.872C184.675 176.872 185.497 177.123 186.073 177.624C186.649 178.115 186.937 178.771 186.937 179.592V184.44C186.937 184.611 186.889 184.749 186.793 184.856C186.697 184.952 186.558 185 186.377 185H185.961C185.79 185 185.651 184.952 185.545 184.856C185.449 184.749 185.401 184.611 185.401 184.44V184.088C185.145 184.461 184.793 184.749 184.345 184.952C183.897 185.155 183.374 185.256 182.777 185.256C181.955 185.256 181.278 185.075 180.745 184.712C180.222 184.339 179.961 183.779 179.961 183.032C179.961 182.2 180.27 181.587 180.889 181.192C181.518 180.787 182.387 180.483 183.497 180.28L185.305 179.944V179.656C185.305 179.219 185.15 178.883 184.841 178.648C184.542 178.403 184.142 178.28 183.641 178.28C183.214 178.28 182.841 178.355 182.521 178.504C182.211 178.643 181.875 178.877 181.513 179.208C181.374 179.325 181.241 179.384 181.113 179.384C180.985 179.384 180.851 179.325 180.713 179.208L180.457 178.984C180.318 178.856 180.249 178.717 180.249 178.568C180.249 178.429 180.313 178.296 180.441 178.168C180.899 177.731 181.385 177.405 181.897 177.192C182.409 176.979 182.979 176.872 183.609 176.872ZM183.017 183.896C183.657 183.896 184.195 183.725 184.633 183.384C185.081 183.043 185.305 182.552 185.305 181.912V181.176L183.913 181.464C183.134 181.624 182.558 181.805 182.185 182.008C181.811 182.211 181.625 182.52 181.625 182.936C181.625 183.235 181.747 183.469 181.993 183.64C182.238 183.811 182.579 183.896 183.017 183.896ZM192.346 185.24C191.568 185.24 190.88 185.069 190.282 184.728C189.696 184.387 189.237 183.901 188.906 183.272C188.586 182.632 188.426 181.891 188.426 181.048C188.426 180.205 188.592 179.469 188.922 178.84C189.253 178.211 189.717 177.725 190.314 177.384C190.912 177.043 191.6 176.872 192.378 176.872C192.944 176.872 193.45 176.957 193.898 177.128C194.357 177.288 194.794 177.565 195.21 177.96C195.338 178.088 195.402 178.221 195.402 178.36C195.402 178.488 195.333 178.621 195.194 178.76L194.922 179.032C194.805 179.149 194.677 179.208 194.538 179.208C194.4 179.208 194.256 179.144 194.106 179.016C193.797 178.749 193.504 178.568 193.226 178.472C192.96 178.365 192.672 178.312 192.362 178.312C191.658 178.312 191.114 178.573 190.73 179.096C190.346 179.619 190.154 180.269 190.154 181.048C190.154 181.827 190.346 182.483 190.73 183.016C191.114 183.539 191.658 183.8 192.362 183.8C192.704 183.8 193.018 183.736 193.306 183.608C193.594 183.469 193.904 183.24 194.234 182.92C194.373 182.781 194.517 182.712 194.666 182.712C194.794 182.712 194.917 182.765 195.034 182.872L195.306 183.096C195.445 183.213 195.514 183.347 195.514 183.496C195.514 183.656 195.434 183.827 195.274 184.008C194.837 184.456 194.384 184.776 193.914 184.968C193.456 185.149 192.933 185.24 192.346 185.24ZM200.792 183.656C200.824 183.645 200.872 183.64 200.936 183.64C201.202 183.64 201.362 183.795 201.416 184.104L201.464 184.36C201.474 184.392 201.48 184.445 201.48 184.52C201.48 184.787 201.33 184.957 201.032 185.032C200.605 185.128 200.216 185.176 199.864 185.176C199.106 185.176 198.557 185 198.216 184.648C197.885 184.296 197.72 183.768 197.72 183.064V178.408H196.84C196.669 178.408 196.53 178.36 196.424 178.264C196.328 178.157 196.28 178.019 196.28 177.848V177.672C196.28 177.491 196.328 177.352 196.424 177.256C196.53 177.16 196.669 177.112 196.84 177.112H197.72V175.128C197.72 174.947 197.768 174.808 197.864 174.712C197.97 174.616 198.109 174.568 198.28 174.568H198.856C199.037 174.568 199.176 174.616 199.272 174.712C199.368 174.808 199.416 174.947 199.416 175.128V177.112H200.856C201.037 177.112 201.176 177.16 201.272 177.256C201.368 177.352 201.416 177.491 201.416 177.672V177.848C201.416 178.019 201.368 178.157 201.272 178.264C201.176 178.36 201.037 178.408 200.856 178.408H199.416V182.856C199.416 183.165 199.48 183.384 199.608 183.512C199.746 183.64 199.965 183.704 200.264 183.704C200.392 183.704 200.568 183.688 200.792 183.656Z" fill="#0063FB"/>
<path d="M48 136H296V132H48V136ZM302 142V196H306V142H302ZM296 202H48V206H296V202ZM42 196V142H38V196H42ZM48 202C44.6863 202 42 199.314 42 196H38C38 201.523 42.4771 206 48 206V202ZM302 196C302 199.314 299.314 202 296 202V206C301.523 206 306 201.523 306 196H302ZM296 136C299.314 136 302 138.686 302 142H306C306 136.477 301.523 132 296 132V136ZM48 132C42.4772 132 38 136.477 38 142H42C42 138.686 44.6863 136 48 136V132Z" fill="#C3CCD9"/>
</svg>
