<svg width="344" height="200" viewBox="0 0 344 200" fill="none" xmlns="http://www.w3.org/2000/svg">
<path d="M133 48C133 43.5817 136.582 40 141 40H219C223.418 40 227 43.5817 227 48V80C227 84.4183 223.418 88 219 88H141C136.582 88 133 84.4183 133 80V48Z" fill="#0063FB"/>
<path fill-rule="evenodd" clip-rule="evenodd" d="M161.444 63.7778C161.444 64.7556 162.244 65.5556 163.222 65.5556C163.694 65.5556 164.146 65.3683 164.479 65.0349C164.813 64.7015 165 64.2493 165 63.7778C165 63.3063 164.813 62.8541 164.479 62.5207C164.146 62.1873 163.694 62 163.222 62C162.751 62 162.299 62.1873 161.965 62.5207C161.632 62.8541 161.444 63.3063 161.444 63.7778ZM158.778 63.7778C158.778 63.3063 158.59 62.8541 158.257 62.5207C157.924 62.1873 157.471 62 157 62C156.529 62 156.076 62.1873 155.743 62.5207C155.41 62.8541 155.222 63.3063 155.222 63.7778C155.222 64.7556 156.022 65.5556 157 65.5556C157.471 65.5556 157.924 65.3683 158.257 65.0349C158.59 64.7015 158.778 64.2493 158.778 63.7778ZM152.556 63.7778C152.556 63.3063 152.368 62.8541 152.035 62.5207C151.701 62.1873 151.249 62 150.778 62C150.306 62 149.854 62.1873 149.521 62.5207C149.187 62.8541 149 63.3063 149 63.7778C149 64.7556 149.8 65.5556 150.778 65.5556C151.249 65.5556 151.701 65.3683 152.035 65.0349C152.368 64.7015 152.556 64.2493 152.556 63.7778Z" fill="white"/>
<path d="M182.936 58.104C183.032 57.7947 183.245 57.64 183.576 57.64H185.4C185.581 57.64 185.72 57.688 185.816 57.784C185.912 57.88 185.96 58.0187 185.96 58.2V68.44C185.96 68.6107 185.912 68.7493 185.816 68.856C185.72 68.952 185.581 69 185.4 69H184.744C184.573 69 184.435 68.952 184.328 68.856C184.232 68.7493 184.184 68.6107 184.184 68.44V63.288C184.184 62.648 184.195 61.688 184.216 60.408L184.232 59.016C184.104 59.4213 183.8 60.344 183.32 61.784L182.824 63.288L181.064 68.536C180.968 68.8453 180.755 69 180.424 69H179.8C179.469 69 179.256 68.8507 179.16 68.552L177.368 63.288C176.739 61.4747 176.264 60.0507 175.944 59.016C175.965 60.8933 175.976 62.3173 175.976 63.288V68.44C175.976 68.6107 175.928 68.7493 175.832 68.856C175.736 68.952 175.597 69 175.416 69H174.792C174.621 69 174.483 68.952 174.376 68.856C174.28 68.7493 174.232 68.6107 174.232 68.44V58.2C174.232 58.0187 174.28 57.88 174.376 57.784C174.483 57.688 174.621 57.64 174.792 57.64H176.648C176.979 57.64 177.192 57.7893 177.288 58.088L178.776 62.472C179.405 64.3493 179.853 65.7733 180.12 66.744C180.461 65.5493 180.909 64.1253 181.464 62.472L182.936 58.104ZM191.716 69.24C190.937 69.24 190.244 69.064 189.636 68.712C189.038 68.36 188.569 67.8693 188.228 67.24C187.886 66.6 187.715 65.8693 187.715 65.048C187.715 64.2267 187.886 63.5013 188.228 62.872C188.569 62.2427 189.038 61.752 189.636 61.4C190.244 61.048 190.937 60.872 191.716 60.872C192.484 60.872 193.172 61.048 193.78 61.4C194.388 61.752 194.862 62.248 195.204 62.888C195.545 63.5173 195.716 64.2373 195.716 65.048C195.716 65.8693 195.545 66.6 195.204 67.24C194.862 67.8693 194.388 68.36 193.78 68.712C193.172 69.064 192.484 69.24 191.716 69.24ZM191.716 67.816C192.398 67.816 192.948 67.5653 193.364 67.064C193.78 66.552 193.988 65.88 193.988 65.048C193.988 64.2267 193.78 63.5653 193.364 63.064C192.948 62.5627 192.398 62.312 191.716 62.312C191.033 62.312 190.484 62.5627 190.068 63.064C189.652 63.5653 189.444 64.2267 189.444 65.048C189.444 65.88 189.652 66.552 190.068 67.064C190.484 67.5653 191.033 67.816 191.716 67.816ZM200.762 61.032C200.997 61.032 201.237 61.0587 201.482 61.112C201.77 61.176 201.914 61.3467 201.914 61.624C201.914 61.6987 201.909 61.752 201.898 61.784L201.818 62.168C201.754 62.4667 201.594 62.616 201.338 62.616L201.194 62.6C201.002 62.568 200.832 62.552 200.682 62.552C200.149 62.552 199.717 62.7653 199.386 63.192C199.066 63.608 198.906 64.1893 198.906 64.936V68.44C198.906 68.6107 198.858 68.7493 198.762 68.856C198.666 68.952 198.528 69 198.346 69H197.77C197.6 69 197.461 68.952 197.354 68.856C197.258 68.7493 197.21 68.6107 197.21 68.44V61.672C197.21 61.4907 197.258 61.352 197.354 61.256C197.461 61.16 197.6 61.112 197.77 61.112H198.234C198.416 61.112 198.554 61.16 198.65 61.256C198.746 61.352 198.794 61.4907 198.794 61.672V62.296C198.986 61.9013 199.248 61.592 199.578 61.368C199.909 61.144 200.304 61.032 200.762 61.032ZM208.421 66.984C208.56 66.8667 208.693 66.808 208.821 66.808C208.949 66.808 209.082 66.8773 209.221 67.016L209.445 67.256C209.562 67.3947 209.621 67.528 209.621 67.656C209.621 67.7947 209.552 67.928 209.413 68.056C208.922 68.4827 208.432 68.7867 207.941 68.968C207.461 69.1493 206.928 69.24 206.341 69.24C205.52 69.24 204.805 69.0693 204.197 68.728C203.6 68.3867 203.136 67.9067 202.805 67.288C202.485 66.6587 202.325 65.9333 202.325 65.112C202.325 64.3013 202.48 63.576 202.789 62.936C203.109 62.2853 203.557 61.7787 204.133 61.416C204.72 61.0533 205.402 60.872 206.181 60.872C207.344 60.872 208.24 61.2187 208.869 61.912C209.498 62.5947 209.813 63.5387 209.813 64.744V64.888C209.802 65.0587 209.749 65.192 209.653 65.288C209.557 65.384 209.418 65.432 209.237 65.432H203.989C204.053 66.136 204.282 66.712 204.677 67.16C205.082 67.5973 205.648 67.816 206.373 67.816C206.768 67.816 207.114 67.7573 207.413 67.64C207.712 67.512 208.048 67.2933 208.421 66.984ZM206.149 62.216C205.562 62.216 205.088 62.392 204.725 62.744C204.373 63.0853 204.144 63.5707 204.037 64.2H208.149C208.106 63.5813 207.914 63.096 207.573 62.744C207.232 62.392 206.757 62.216 206.149 62.216Z" fill="white"/>
<path d="M141 42H219V38H141V42ZM225 48V80H229V48H225ZM219 86H141V90H219V86ZM135 80V48H131V80H135ZM141 86C137.686 86 135 83.3137 135 80H131C131 85.5228 135.477 90 141 90V86ZM225 80C225 83.3137 222.314 86 219 86V90C224.523 90 229 85.5228 229 80H225ZM219 42C222.314 42 225 44.6863 225 48H229C229 42.4772 224.523 38 219 38V42ZM141 38C135.477 38 131 42.4772 131 48H135C135 44.6863 137.686 42 141 42V38Z" fill="#0063FB"/>
<path d="M126 120C126 115.582 129.582 112 134 112H225C229.418 112 233 115.582 233 120V152C233 156.418 229.418 160 225 160H134C129.582 160 126 156.418 126 152V120Z" fill="#0063FB"/>
<path fill-rule="evenodd" clip-rule="evenodd" d="M155.007 132.447C155.312 132.727 155.333 133.201 155.053 133.507L149.553 139.507C149.415 139.658 149.221 139.745 149.016 139.75C148.812 139.754 148.614 139.675 148.47 139.53L145.47 136.53C145.177 136.237 145.177 135.763 145.47 135.47C145.763 135.177 146.237 135.177 146.53 135.47L148.976 137.916L153.947 132.493C154.227 132.188 154.701 132.167 155.007 132.447Z" fill="white"/>
<path d="M171.232 141.256C170.357 141.256 169.573 141.133 168.88 140.888C168.197 140.632 167.493 140.205 166.768 139.608C166.619 139.491 166.544 139.352 166.544 139.192C166.544 139.053 166.597 138.925 166.704 138.808L167.072 138.376C167.189 138.227 167.323 138.152 167.472 138.152C167.589 138.152 167.723 138.211 167.872 138.328C168.512 138.84 169.083 139.192 169.584 139.384C170.096 139.576 170.656 139.672 171.264 139.672C172 139.672 172.597 139.507 173.056 139.176C173.515 138.835 173.744 138.371 173.744 137.784C173.744 137.4 173.627 137.101 173.392 136.888C173.157 136.664 172.853 136.493 172.48 136.376C172.117 136.259 171.525 136.104 170.704 135.912C169.712 135.677 168.939 135.421 168.384 135.144C167.829 134.867 167.429 134.536 167.184 134.152C166.949 133.757 166.832 133.261 166.832 132.664C166.832 132.035 167.013 131.469 167.376 130.968C167.739 130.467 168.235 130.077 168.864 129.8C169.504 129.523 170.219 129.384 171.008 129.384C171.808 129.384 172.512 129.491 173.12 129.704C173.739 129.917 174.357 130.264 174.976 130.744C175.136 130.872 175.216 131.005 175.216 131.144C175.216 131.261 175.163 131.389 175.056 131.528L174.704 131.944C174.576 132.093 174.443 132.168 174.304 132.168C174.176 132.168 174.043 132.115 173.904 132.008C173.392 131.613 172.917 131.341 172.48 131.192C172.043 131.043 171.547 130.968 170.992 130.968C170.288 130.968 169.717 131.123 169.28 131.432C168.843 131.741 168.624 132.131 168.624 132.6C168.624 132.941 168.725 133.213 168.928 133.416C169.131 133.619 169.424 133.784 169.808 133.912C170.192 134.04 170.784 134.195 171.584 134.376C172.555 134.611 173.323 134.861 173.888 135.128C174.453 135.384 174.875 135.715 175.152 136.12C175.429 136.525 175.568 137.043 175.568 137.672C175.568 138.376 175.387 139 175.024 139.544C174.661 140.088 174.155 140.509 173.504 140.808C172.853 141.107 172.096 141.256 171.232 141.256ZM182.172 133.672C182.172 133.491 182.22 133.352 182.316 133.256C182.422 133.16 182.561 133.112 182.732 133.112H183.308C183.489 133.112 183.628 133.16 183.724 133.256C183.82 133.352 183.868 133.491 183.868 133.672V140.44C183.868 140.611 183.82 140.749 183.724 140.856C183.628 140.952 183.489 141 183.308 141H182.876C182.705 141 182.566 140.952 182.46 140.856C182.364 140.749 182.316 140.611 182.316 140.44V140.072C182.102 140.435 181.793 140.723 181.388 140.936C180.982 141.139 180.502 141.24 179.948 141.24C179.009 141.24 178.31 141.011 177.852 140.552C177.393 140.083 177.164 139.464 177.164 138.696V133.672C177.164 133.491 177.212 133.352 177.308 133.256C177.414 133.16 177.553 133.112 177.724 133.112H178.299C178.481 133.112 178.62 133.16 178.716 133.256C178.812 133.352 178.86 133.491 178.86 133.672V138.248C178.86 138.739 178.982 139.117 179.228 139.384C179.484 139.64 179.852 139.768 180.332 139.768C180.886 139.768 181.329 139.608 181.66 139.288C182.001 138.968 182.172 138.504 182.172 137.896V133.672ZM190.012 132.904C190.684 132.904 191.281 133.075 191.804 133.416C192.337 133.757 192.753 134.243 193.052 134.872C193.35 135.501 193.5 136.227 193.5 137.048C193.5 137.88 193.35 138.611 193.052 139.24C192.753 139.869 192.337 140.355 191.804 140.696C191.27 141.037 190.673 141.208 190.012 141.208C188.828 141.208 187.958 140.765 187.404 139.88V140.44C187.404 140.611 187.356 140.749 187.26 140.856C187.164 140.952 187.025 141 186.844 141H186.38C186.209 141 186.07 140.952 185.964 140.856C185.868 140.749 185.82 140.611 185.82 140.44V130.2C185.82 130.019 185.868 129.88 185.964 129.784C186.07 129.688 186.209 129.64 186.38 129.64H186.956C187.137 129.64 187.276 129.688 187.372 129.784C187.468 129.88 187.516 130.019 187.516 130.2V134.104C188.081 133.304 188.913 132.904 190.012 132.904ZM189.66 139.736C190.3 139.736 190.812 139.496 191.196 139.016C191.58 138.525 191.772 137.869 191.772 137.048C191.772 136.237 191.58 135.587 191.196 135.096C190.822 134.605 190.316 134.36 189.676 134.36C189.025 134.36 188.492 134.605 188.076 135.096C187.66 135.576 187.452 136.227 187.452 137.048C187.452 137.891 187.66 138.552 188.076 139.032C188.492 139.501 189.02 139.736 189.66 139.736ZM203.503 132.872C204.345 132.872 204.996 133.112 205.455 133.592C205.913 134.061 206.143 134.696 206.143 135.496V140.44C206.143 140.611 206.095 140.749 205.999 140.856C205.903 140.952 205.764 141 205.583 141H205.007C204.836 141 204.697 140.952 204.591 140.856C204.495 140.749 204.447 140.611 204.447 140.44V136.008C204.447 135.485 204.329 135.075 204.095 134.776C203.86 134.477 203.503 134.328 203.023 134.328C202.532 134.328 202.143 134.493 201.855 134.824C201.577 135.155 201.439 135.581 201.439 136.104V140.44C201.439 140.611 201.391 140.749 201.295 140.856C201.199 140.952 201.06 141 200.879 141H200.303C200.132 141 199.993 140.952 199.887 140.856C199.791 140.749 199.743 140.611 199.743 140.44V136.008C199.743 135.485 199.625 135.075 199.391 134.776C199.167 134.477 198.815 134.328 198.335 134.328C197.865 134.328 197.487 134.483 197.199 134.792C196.911 135.101 196.756 135.501 196.735 135.992V140.44C196.735 140.611 196.687 140.749 196.591 140.856C196.495 140.952 196.356 141 196.174 141H195.599C195.428 141 195.289 140.952 195.183 140.856C195.087 140.749 195.039 140.611 195.039 140.44V133.672C195.039 133.491 195.087 133.352 195.183 133.256C195.289 133.16 195.428 133.112 195.599 133.112H196.062C196.244 133.112 196.383 133.16 196.479 133.256C196.575 133.352 196.623 133.491 196.623 133.672V134.024C197.113 133.256 197.871 132.872 198.895 132.872C199.407 132.872 199.855 132.979 200.239 133.192C200.623 133.405 200.916 133.704 201.119 134.088C201.663 133.277 202.457 132.872 203.503 132.872ZM208.949 131.576C208.64 131.576 208.379 131.475 208.165 131.272C207.952 131.059 207.845 130.808 207.845 130.52C207.845 130.221 207.952 129.971 208.165 129.768C208.379 129.565 208.64 129.464 208.949 129.464C209.259 129.464 209.52 129.565 209.733 129.768C209.947 129.971 210.053 130.221 210.053 130.52C210.053 130.808 209.947 131.059 209.733 131.272C209.52 131.475 209.259 131.576 208.949 131.576ZM208.645 141C208.475 141 208.336 140.952 208.229 140.856C208.133 140.749 208.085 140.611 208.085 140.44V133.672C208.085 133.491 208.133 133.352 208.229 133.256C208.336 133.16 208.475 133.112 208.645 133.112H209.221C209.403 133.112 209.541 133.16 209.637 133.256C209.733 133.352 209.781 133.491 209.781 133.672V140.44C209.781 140.611 209.733 140.749 209.637 140.856C209.541 140.952 209.403 141 209.221 141H208.645ZM215.55 139.656C215.582 139.645 215.63 139.64 215.694 139.64C215.96 139.64 216.12 139.795 216.174 140.104L216.222 140.36C216.232 140.392 216.238 140.445 216.238 140.52C216.238 140.787 216.088 140.957 215.79 141.032C215.363 141.128 214.974 141.176 214.622 141.176C213.864 141.176 213.315 141 212.974 140.648C212.643 140.296 212.478 139.768 212.478 139.064V134.408H211.598C211.427 134.408 211.288 134.36 211.182 134.264C211.086 134.157 211.038 134.019 211.038 133.848V133.672C211.038 133.491 211.086 133.352 211.182 133.256C211.288 133.16 211.427 133.112 211.598 133.112H212.478V131.128C212.478 130.947 212.526 130.808 212.622 130.712C212.728 130.616 212.867 130.568 213.038 130.568H213.614C213.795 130.568 213.934 130.616 214.03 130.712C214.126 130.808 214.174 130.947 214.174 131.128V133.112H215.614C215.795 133.112 215.934 133.16 216.03 133.256C216.126 133.352 216.174 133.491 216.174 133.672V133.848C216.174 134.019 216.126 134.157 216.03 134.264C215.934 134.36 215.795 134.408 215.614 134.408H214.174V138.856C214.174 139.165 214.238 139.384 214.366 139.512C214.504 139.64 214.723 139.704 215.022 139.704C215.15 139.704 215.326 139.688 215.55 139.656Z" fill="white"/>
<path d="M134 114H225V110H134V114ZM231 120V152H235V120H231ZM225 158H134V162H225V158ZM128 152V120H124V152H128ZM134 158C130.686 158 128 155.314 128 152H124C124 157.523 128.477 162 134 162V158ZM231 152C231 155.314 228.314 158 225 158V162C230.523 162 235 157.523 235 152H231ZM225 114C228.314 114 231 116.686 231 120H235C235 114.477 230.523 110 225 110V114ZM134 110C128.477 110 124 114.477 124 120H128C128 116.686 130.686 114 134 114V110Z" fill="#0063FB"/>
</svg>
