<svg width="344" height="200" viewBox="0 0 344 200" fill="none" xmlns="http://www.w3.org/2000/svg">
<path d="M125 48C125 43.5817 128.582 40 133 40H211C215.418 40 219 43.5817 219 48V80C219 84.4183 215.418 88 211 88H133C128.582 88 125 84.4183 125 80V48Z" fill="#0063FB"/>
<path fill-rule="evenodd" clip-rule="evenodd" d="M153.444 63.7778C153.444 64.7556 154.244 65.5556 155.222 65.5556C155.694 65.5556 156.146 65.3683 156.479 65.0349C156.813 64.7015 157 64.2493 157 63.7778C157 63.3063 156.813 62.8541 156.479 62.5207C156.146 62.1873 155.694 62 155.222 62C154.751 62 154.299 62.1873 153.965 62.5207C153.632 62.8541 153.444 63.3063 153.444 63.7778ZM150.778 63.7778C150.778 63.3063 150.59 62.8541 150.257 62.5207C149.924 62.1873 149.471 62 149 62C148.529 62 148.076 62.1873 147.743 62.5207C147.41 62.8541 147.222 63.3063 147.222 63.7778C147.222 64.7556 148.022 65.5556 149 65.5556C149.471 65.5556 149.924 65.3683 150.257 65.0349C150.59 64.7015 150.778 64.2493 150.778 63.7778ZM144.556 63.7778C144.556 63.3063 144.368 62.8541 144.035 62.5207C143.701 62.1873 143.249 62 142.778 62C142.306 62 141.854 62.1873 141.521 62.5207C141.187 62.8541 141 63.3063 141 63.7778C141 64.7556 141.8 65.5556 142.778 65.5556C143.249 65.5556 143.701 65.3683 144.035 65.0349C144.368 64.7015 144.556 64.2493 144.556 63.7778Z" fill="white"/>
<path d="M174.936 58.104C175.032 57.7947 175.245 57.64 175.576 57.64H177.4C177.581 57.64 177.72 57.688 177.816 57.784C177.912 57.88 177.96 58.0187 177.96 58.2V68.44C177.96 68.6107 177.912 68.7493 177.816 68.856C177.72 68.952 177.581 69 177.4 69H176.744C176.573 69 176.435 68.952 176.328 68.856C176.232 68.7493 176.184 68.6107 176.184 68.44V63.288C176.184 62.648 176.195 61.688 176.216 60.408L176.232 59.016C176.104 59.4213 175.8 60.344 175.32 61.784L174.824 63.288L173.064 68.536C172.968 68.8453 172.755 69 172.424 69H171.8C171.469 69 171.256 68.8507 171.16 68.552L169.368 63.288C168.739 61.4747 168.264 60.0507 167.944 59.016C167.965 60.8933 167.976 62.3173 167.976 63.288V68.44C167.976 68.6107 167.928 68.7493 167.832 68.856C167.736 68.952 167.597 69 167.416 69H166.792C166.621 69 166.483 68.952 166.376 68.856C166.28 68.7493 166.232 68.6107 166.232 68.44V58.2C166.232 58.0187 166.28 57.88 166.376 57.784C166.483 57.688 166.621 57.64 166.792 57.64H168.648C168.979 57.64 169.192 57.7893 169.288 58.088L170.776 62.472C171.405 64.3493 171.853 65.7733 172.12 66.744C172.461 65.5493 172.909 64.1253 173.464 62.472L174.936 58.104ZM183.716 69.24C182.937 69.24 182.244 69.064 181.636 68.712C181.038 68.36 180.569 67.8693 180.228 67.24C179.886 66.6 179.715 65.8693 179.715 65.048C179.715 64.2267 179.886 63.5013 180.228 62.872C180.569 62.2427 181.038 61.752 181.636 61.4C182.244 61.048 182.937 60.872 183.716 60.872C184.484 60.872 185.172 61.048 185.78 61.4C186.388 61.752 186.862 62.248 187.204 62.888C187.545 63.5173 187.716 64.2373 187.716 65.048C187.716 65.8693 187.545 66.6 187.204 67.24C186.862 67.8693 186.388 68.36 185.78 68.712C185.172 69.064 184.484 69.24 183.716 69.24ZM183.716 67.816C184.398 67.816 184.948 67.5653 185.364 67.064C185.78 66.552 185.988 65.88 185.988 65.048C185.988 64.2267 185.78 63.5653 185.364 63.064C184.948 62.5627 184.398 62.312 183.716 62.312C183.033 62.312 182.484 62.5627 182.068 63.064C181.652 63.5653 181.444 64.2267 181.444 65.048C181.444 65.88 181.652 66.552 182.068 67.064C182.484 67.5653 183.033 67.816 183.716 67.816ZM192.762 61.032C192.997 61.032 193.237 61.0587 193.482 61.112C193.77 61.176 193.914 61.3467 193.914 61.624C193.914 61.6987 193.909 61.752 193.898 61.784L193.818 62.168C193.754 62.4667 193.594 62.616 193.338 62.616L193.194 62.6C193.002 62.568 192.832 62.552 192.682 62.552C192.149 62.552 191.717 62.7653 191.386 63.192C191.066 63.608 190.906 64.1893 190.906 64.936V68.44C190.906 68.6107 190.858 68.7493 190.762 68.856C190.666 68.952 190.528 69 190.346 69H189.77C189.6 69 189.461 68.952 189.354 68.856C189.258 68.7493 189.21 68.6107 189.21 68.44V61.672C189.21 61.4907 189.258 61.352 189.354 61.256C189.461 61.16 189.6 61.112 189.77 61.112H190.234C190.416 61.112 190.554 61.16 190.65 61.256C190.746 61.352 190.794 61.4907 190.794 61.672V62.296C190.986 61.9013 191.248 61.592 191.578 61.368C191.909 61.144 192.304 61.032 192.762 61.032ZM200.421 66.984C200.56 66.8667 200.693 66.808 200.821 66.808C200.949 66.808 201.082 66.8773 201.221 67.016L201.445 67.256C201.562 67.3947 201.621 67.528 201.621 67.656C201.621 67.7947 201.552 67.928 201.413 68.056C200.922 68.4827 200.432 68.7867 199.941 68.968C199.461 69.1493 198.928 69.24 198.341 69.24C197.52 69.24 196.805 69.0693 196.197 68.728C195.6 68.3867 195.136 67.9067 194.805 67.288C194.485 66.6587 194.325 65.9333 194.325 65.112C194.325 64.3013 194.48 63.576 194.789 62.936C195.109 62.2853 195.557 61.7787 196.133 61.416C196.72 61.0533 197.402 60.872 198.181 60.872C199.344 60.872 200.24 61.2187 200.869 61.912C201.498 62.5947 201.813 63.5387 201.813 64.744V64.888C201.802 65.0587 201.749 65.192 201.653 65.288C201.557 65.384 201.418 65.432 201.237 65.432H195.989C196.053 66.136 196.282 66.712 196.677 67.16C197.082 67.5973 197.648 67.816 198.373 67.816C198.768 67.816 199.114 67.7573 199.413 67.64C199.712 67.512 200.048 67.2933 200.421 66.984ZM198.149 62.216C197.562 62.216 197.088 62.392 196.725 62.744C196.373 63.0853 196.144 63.5707 196.037 64.2H200.149C200.106 63.5813 199.914 63.096 199.573 62.744C199.232 62.392 198.757 62.216 198.149 62.216Z" fill="white"/>
<path d="M133 42H211V38H133V42ZM217 48V80H221V48H217ZM211 86H133V90H211V86ZM127 80V48H123V80H127ZM133 86C129.686 86 127 83.3137 127 80H123C123 85.5228 127.477 90 133 90V86ZM217 80C217 83.3137 214.314 86 211 86V90C216.523 90 221 85.5228 221 80H217ZM211 42C214.314 42 217 44.6863 217 48H221C221 42.4772 216.523 38 211 38V42ZM133 38C127.477 38 123 42.4772 123 48H127C127 44.6863 129.686 42 133 42V38Z" fill="#0063FB"/>
<path d="M118 120C118 115.582 121.582 112 126 112H217C221.418 112 225 115.582 225 120V152C225 156.418 221.418 160 217 160H126C121.582 160 118 156.418 118 152V120Z" fill="#0063FB"/>
<path fill-rule="evenodd" clip-rule="evenodd" d="M147.007 132.447C147.312 132.727 147.333 133.201 147.053 133.507L141.553 139.507C141.415 139.658 141.221 139.745 141.016 139.75C140.812 139.754 140.614 139.675 140.47 139.53L137.47 136.53C137.177 136.237 137.177 135.763 137.47 135.47C137.763 135.177 138.237 135.177 138.53 135.47L140.976 137.916L145.947 132.493C146.227 132.188 146.701 132.167 147.007 132.447Z" fill="white"/>
<path d="M163.232 141.256C162.357 141.256 161.573 141.133 160.88 140.888C160.197 140.632 159.493 140.205 158.768 139.608C158.619 139.491 158.544 139.352 158.544 139.192C158.544 139.053 158.597 138.925 158.704 138.808L159.072 138.376C159.189 138.227 159.323 138.152 159.472 138.152C159.589 138.152 159.723 138.211 159.872 138.328C160.512 138.84 161.083 139.192 161.584 139.384C162.096 139.576 162.656 139.672 163.264 139.672C164 139.672 164.597 139.507 165.056 139.176C165.515 138.835 165.744 138.371 165.744 137.784C165.744 137.4 165.627 137.101 165.392 136.888C165.157 136.664 164.853 136.493 164.48 136.376C164.117 136.259 163.525 136.104 162.704 135.912C161.712 135.677 160.939 135.421 160.384 135.144C159.829 134.867 159.429 134.536 159.184 134.152C158.949 133.757 158.832 133.261 158.832 132.664C158.832 132.035 159.013 131.469 159.376 130.968C159.739 130.467 160.235 130.077 160.864 129.8C161.504 129.523 162.219 129.384 163.008 129.384C163.808 129.384 164.512 129.491 165.12 129.704C165.739 129.917 166.357 130.264 166.976 130.744C167.136 130.872 167.216 131.005 167.216 131.144C167.216 131.261 167.163 131.389 167.056 131.528L166.704 131.944C166.576 132.093 166.443 132.168 166.304 132.168C166.176 132.168 166.043 132.115 165.904 132.008C165.392 131.613 164.917 131.341 164.48 131.192C164.043 131.043 163.547 130.968 162.992 130.968C162.288 130.968 161.717 131.123 161.28 131.432C160.843 131.741 160.624 132.131 160.624 132.6C160.624 132.941 160.725 133.213 160.928 133.416C161.131 133.619 161.424 133.784 161.808 133.912C162.192 134.04 162.784 134.195 163.584 134.376C164.555 134.611 165.323 134.861 165.888 135.128C166.453 135.384 166.875 135.715 167.152 136.12C167.429 136.525 167.568 137.043 167.568 137.672C167.568 138.376 167.387 139 167.024 139.544C166.661 140.088 166.155 140.509 165.504 140.808C164.853 141.107 164.096 141.256 163.232 141.256ZM174.172 133.672C174.172 133.491 174.22 133.352 174.316 133.256C174.422 133.16 174.561 133.112 174.732 133.112H175.308C175.489 133.112 175.628 133.16 175.724 133.256C175.82 133.352 175.868 133.491 175.868 133.672V140.44C175.868 140.611 175.82 140.749 175.724 140.856C175.628 140.952 175.489 141 175.308 141H174.876C174.705 141 174.566 140.952 174.46 140.856C174.364 140.749 174.316 140.611 174.316 140.44V140.072C174.102 140.435 173.793 140.723 173.388 140.936C172.982 141.139 172.502 141.24 171.948 141.24C171.009 141.24 170.31 141.011 169.852 140.552C169.393 140.083 169.164 139.464 169.164 138.696V133.672C169.164 133.491 169.212 133.352 169.308 133.256C169.414 133.16 169.553 133.112 169.724 133.112H170.299C170.481 133.112 170.62 133.16 170.716 133.256C170.812 133.352 170.86 133.491 170.86 133.672V138.248C170.86 138.739 170.982 139.117 171.228 139.384C171.484 139.64 171.852 139.768 172.332 139.768C172.886 139.768 173.329 139.608 173.66 139.288C174.001 138.968 174.172 138.504 174.172 137.896V133.672ZM182.012 132.904C182.684 132.904 183.281 133.075 183.804 133.416C184.337 133.757 184.753 134.243 185.052 134.872C185.35 135.501 185.5 136.227 185.5 137.048C185.5 137.88 185.35 138.611 185.052 139.24C184.753 139.869 184.337 140.355 183.804 140.696C183.27 141.037 182.673 141.208 182.012 141.208C180.828 141.208 179.958 140.765 179.404 139.88V140.44C179.404 140.611 179.356 140.749 179.26 140.856C179.164 140.952 179.025 141 178.844 141H178.38C178.209 141 178.07 140.952 177.964 140.856C177.868 140.749 177.82 140.611 177.82 140.44V130.2C177.82 130.019 177.868 129.88 177.964 129.784C178.07 129.688 178.209 129.64 178.38 129.64H178.956C179.137 129.64 179.276 129.688 179.372 129.784C179.468 129.88 179.516 130.019 179.516 130.2V134.104C180.081 133.304 180.913 132.904 182.012 132.904ZM181.66 139.736C182.3 139.736 182.812 139.496 183.196 139.016C183.58 138.525 183.772 137.869 183.772 137.048C183.772 136.237 183.58 135.587 183.196 135.096C182.822 134.605 182.316 134.36 181.676 134.36C181.025 134.36 180.492 134.605 180.076 135.096C179.66 135.576 179.452 136.227 179.452 137.048C179.452 137.891 179.66 138.552 180.076 139.032C180.492 139.501 181.02 139.736 181.66 139.736ZM195.503 132.872C196.345 132.872 196.996 133.112 197.455 133.592C197.913 134.061 198.143 134.696 198.143 135.496V140.44C198.143 140.611 198.095 140.749 197.999 140.856C197.903 140.952 197.764 141 197.583 141H197.007C196.836 141 196.697 140.952 196.591 140.856C196.495 140.749 196.447 140.611 196.447 140.44V136.008C196.447 135.485 196.329 135.075 196.095 134.776C195.86 134.477 195.503 134.328 195.023 134.328C194.532 134.328 194.143 134.493 193.855 134.824C193.577 135.155 193.439 135.581 193.439 136.104V140.44C193.439 140.611 193.391 140.749 193.295 140.856C193.199 140.952 193.06 141 192.879 141H192.303C192.132 141 191.993 140.952 191.887 140.856C191.791 140.749 191.743 140.611 191.743 140.44V136.008C191.743 135.485 191.625 135.075 191.391 134.776C191.167 134.477 190.815 134.328 190.335 134.328C189.865 134.328 189.487 134.483 189.199 134.792C188.911 135.101 188.756 135.501 188.735 135.992V140.44C188.735 140.611 188.687 140.749 188.591 140.856C188.495 140.952 188.356 141 188.174 141H187.599C187.428 141 187.289 140.952 187.183 140.856C187.087 140.749 187.039 140.611 187.039 140.44V133.672C187.039 133.491 187.087 133.352 187.183 133.256C187.289 133.16 187.428 133.112 187.599 133.112H188.062C188.244 133.112 188.383 133.16 188.479 133.256C188.575 133.352 188.623 133.491 188.623 133.672V134.024C189.113 133.256 189.871 132.872 190.895 132.872C191.407 132.872 191.855 132.979 192.239 133.192C192.623 133.405 192.916 133.704 193.119 134.088C193.663 133.277 194.457 132.872 195.503 132.872ZM200.949 131.576C200.64 131.576 200.379 131.475 200.165 131.272C199.952 131.059 199.845 130.808 199.845 130.52C199.845 130.221 199.952 129.971 200.165 129.768C200.379 129.565 200.64 129.464 200.949 129.464C201.259 129.464 201.52 129.565 201.733 129.768C201.947 129.971 202.053 130.221 202.053 130.52C202.053 130.808 201.947 131.059 201.733 131.272C201.52 131.475 201.259 131.576 200.949 131.576ZM200.645 141C200.475 141 200.336 140.952 200.229 140.856C200.133 140.749 200.085 140.611 200.085 140.44V133.672C200.085 133.491 200.133 133.352 200.229 133.256C200.336 133.16 200.475 133.112 200.645 133.112H201.221C201.403 133.112 201.541 133.16 201.637 133.256C201.733 133.352 201.781 133.491 201.781 133.672V140.44C201.781 140.611 201.733 140.749 201.637 140.856C201.541 140.952 201.403 141 201.221 141H200.645ZM207.55 139.656C207.582 139.645 207.63 139.64 207.694 139.64C207.96 139.64 208.12 139.795 208.174 140.104L208.222 140.36C208.232 140.392 208.238 140.445 208.238 140.52C208.238 140.787 208.088 140.957 207.79 141.032C207.363 141.128 206.974 141.176 206.622 141.176C205.864 141.176 205.315 141 204.974 140.648C204.643 140.296 204.478 139.768 204.478 139.064V134.408H203.598C203.427 134.408 203.288 134.36 203.182 134.264C203.086 134.157 203.038 134.019 203.038 133.848V133.672C203.038 133.491 203.086 133.352 203.182 133.256C203.288 133.16 203.427 133.112 203.598 133.112H204.478V131.128C204.478 130.947 204.526 130.808 204.622 130.712C204.728 130.616 204.867 130.568 205.038 130.568H205.614C205.795 130.568 205.934 130.616 206.03 130.712C206.126 130.808 206.174 130.947 206.174 131.128V133.112H207.614C207.795 133.112 207.934 133.16 208.03 133.256C208.126 133.352 208.174 133.491 208.174 133.672V133.848C208.174 134.019 208.126 134.157 208.03 134.264C207.934 134.36 207.795 134.408 207.614 134.408H206.174V138.856C206.174 139.165 206.238 139.384 206.366 139.512C206.504 139.64 206.723 139.704 207.022 139.704C207.15 139.704 207.326 139.688 207.55 139.656Z" fill="white"/>
<path d="M126 114H217V110H126V114ZM223 120V152H227V120H223ZM217 158H126V162H217V158ZM120 152V120H116V152H120ZM126 158C122.686 158 120 155.314 120 152H116C116 157.523 120.477 162 126 162V158ZM223 152C223 155.314 220.314 158 217 158V162C222.523 162 227 157.523 227 152H223ZM217 114C220.314 114 223 116.686 223 120H227C227 114.477 222.523 110 217 110V114ZM126 110C120.477 110 116 114.477 116 120H120C120 116.686 122.686 114 126 114V110Z" fill="#0063FB"/>
</svg>
