<svg width="344" height="344" viewBox="0 0 344 344" fill="none" xmlns="http://www.w3.org/2000/svg">
<path d="M134 48C134 43.5817 137.582 40 142 40H201C205.418 40 209 43.5817 209 48V80C209 84.4183 205.418 88 201 88H142C137.582 88 134 84.4183 134 80V48Z" fill="#0063FB"/>
<path d="M159.392 69C159.072 69 158.859 68.8507 158.752 68.552L158 66.392H152.976L152.224 68.552C152.117 68.8507 151.904 69 151.584 69H150.912C150.752 69 150.624 68.968 150.528 68.904C150.443 68.8293 150.4 68.728 150.4 68.6C150.4 68.536 150.416 68.456 150.448 68.36L154.16 58.088C154.267 57.7893 154.48 57.64 154.8 57.64H156.224C156.544 57.64 156.757 57.7893 156.864 58.088L160.576 68.36C160.608 68.456 160.624 68.536 160.624 68.6C160.624 68.728 160.576 68.8293 160.48 68.904C160.395 68.968 160.272 69 160.112 69H159.392ZM157.488 64.872L156.992 63.464C156.981 63.4427 156.864 63.1067 156.64 62.456C156.075 60.856 155.691 59.7147 155.488 59.032C155.179 60.0133 154.768 61.2293 154.256 62.68L153.984 63.48L153.504 64.872H157.488ZM167.481 61.624C167.481 61.464 167.529 61.3413 167.625 61.256C167.732 61.16 167.87 61.112 168.041 61.112H168.489C168.67 61.112 168.809 61.16 168.905 61.256C169.001 61.352 169.049 61.4907 169.049 61.672V68.712C169.049 69.768 168.708 70.5893 168.025 71.176C167.353 71.7627 166.457 72.056 165.337 72.056C164.217 72.056 163.161 71.768 162.169 71.192C161.966 71.0853 161.865 70.9413 161.865 70.76C161.865 70.664 161.908 70.5467 161.993 70.408L162.201 70.104C162.318 69.9227 162.462 69.832 162.633 69.832C162.75 69.832 162.868 69.8693 162.985 69.944C163.412 70.1893 163.806 70.3653 164.169 70.472C164.532 70.5893 164.916 70.648 165.321 70.648C165.94 70.648 166.436 70.4773 166.809 70.136C167.193 69.8053 167.385 69.2827 167.385 68.568V67.72C166.852 68.4773 166.052 68.856 164.985 68.856C164.324 68.856 163.726 68.6907 163.193 68.36C162.67 68.0187 162.26 67.5493 161.961 66.952C161.673 66.344 161.529 65.6507 161.529 64.872C161.529 64.0933 161.673 63.4053 161.961 62.808C162.26 62.2 162.67 61.7253 163.193 61.384C163.726 61.0427 164.324 60.872 164.985 60.872C166.116 60.872 166.948 61.2933 167.481 62.136V61.624ZM165.321 67.432C165.94 67.432 166.446 67.1973 166.841 66.728C167.236 66.248 167.433 65.6293 167.433 64.872C167.433 64.1253 167.236 63.5173 166.841 63.048C166.457 62.568 165.95 62.328 165.321 62.328C164.681 62.328 164.174 62.5627 163.801 63.032C163.428 63.5013 163.241 64.1147 163.241 64.872C163.241 65.64 163.428 66.2587 163.801 66.728C164.174 67.1973 164.681 67.432 165.321 67.432ZM174.559 61.032C174.794 61.032 175.034 61.0587 175.279 61.112C175.567 61.176 175.711 61.3467 175.711 61.624C175.711 61.6987 175.706 61.752 175.695 61.784L175.615 62.168C175.551 62.4667 175.391 62.616 175.135 62.616L174.991 62.6C174.799 62.568 174.629 62.552 174.479 62.552C173.946 62.552 173.514 62.7653 173.183 63.192C172.863 63.608 172.703 64.1893 172.703 64.936V68.44C172.703 68.6107 172.655 68.7493 172.559 68.856C172.463 68.952 172.325 69 172.143 69H171.567C171.397 69 171.258 68.952 171.151 68.856C171.055 68.7493 171.007 68.6107 171.007 68.44V61.672C171.007 61.4907 171.055 61.352 171.151 61.256C171.258 61.16 171.397 61.112 171.567 61.112H172.031C172.213 61.112 172.351 61.16 172.447 61.256C172.543 61.352 172.591 61.4907 172.591 61.672V62.296C172.783 61.9013 173.045 61.592 173.375 61.368C173.706 61.144 174.101 61.032 174.559 61.032ZM182.218 66.984C182.356 66.8667 182.49 66.808 182.618 66.808C182.746 66.808 182.879 66.8773 183.018 67.016L183.242 67.256C183.359 67.3947 183.418 67.528 183.418 67.656C183.418 67.7947 183.348 67.928 183.21 68.056C182.719 68.4827 182.228 68.7867 181.738 68.968C181.258 69.1493 180.724 69.24 180.138 69.24C179.316 69.24 178.602 69.0693 177.994 68.728C177.396 68.3867 176.932 67.9067 176.602 67.288C176.282 66.6587 176.122 65.9333 176.122 65.112C176.122 64.3013 176.276 63.576 176.586 62.936C176.906 62.2853 177.354 61.7787 177.93 61.416C178.516 61.0533 179.199 60.872 179.978 60.872C181.14 60.872 182.036 61.2187 182.666 61.912C183.295 62.5947 183.61 63.5387 183.61 64.744V64.888C183.599 65.0587 183.546 65.192 183.45 65.288C183.354 65.384 183.215 65.432 183.034 65.432H177.786C177.85 66.136 178.079 66.712 178.474 67.16C178.879 67.5973 179.444 67.816 180.17 67.816C180.564 67.816 180.911 67.7573 181.21 67.64C181.508 67.512 181.844 67.2933 182.218 66.984ZM179.946 62.216C179.359 62.216 178.884 62.392 178.522 62.744C178.17 63.0853 177.94 63.5707 177.834 64.2H181.946C181.903 63.5813 181.711 63.096 181.37 62.744C181.028 62.392 180.554 62.216 179.946 62.216ZM190.843 66.984C190.981 66.8667 191.115 66.808 191.243 66.808C191.371 66.808 191.504 66.8773 191.643 67.016L191.867 67.256C191.984 67.3947 192.043 67.528 192.043 67.656C192.043 67.7947 191.973 67.928 191.835 68.056C191.344 68.4827 190.853 68.7867 190.363 68.968C189.883 69.1493 189.349 69.24 188.763 69.24C187.941 69.24 187.227 69.0693 186.619 68.728C186.021 68.3867 185.557 67.9067 185.227 67.288C184.907 66.6587 184.747 65.9333 184.747 65.112C184.747 64.3013 184.901 63.576 185.211 62.936C185.531 62.2853 185.979 61.7787 186.555 61.416C187.141 61.0533 187.824 60.872 188.603 60.872C189.765 60.872 190.661 61.2187 191.291 61.912C191.92 62.5947 192.235 63.5387 192.235 64.744V64.888C192.224 65.0587 192.171 65.192 192.075 65.288C191.979 65.384 191.84 65.432 191.659 65.432H186.411C186.475 66.136 186.704 66.712 187.099 67.16C187.504 67.5973 188.069 67.816 188.795 67.816C189.189 67.816 189.536 67.7573 189.835 67.64C190.133 67.512 190.469 67.2933 190.843 66.984ZM188.571 62.216C187.984 62.216 187.509 62.392 187.147 62.744C186.795 63.0853 186.565 63.5707 186.459 64.2H190.571C190.528 63.5813 190.336 63.096 189.995 62.744C189.653 62.392 189.179 62.216 188.571 62.216Z" fill="white"/>
<path d="M142 42H201V38H142V42ZM207 48V80H211V48H207ZM201 86H142V90H201V86ZM136 80V48H132V80H136ZM142 86C138.686 86 136 83.3137 136 80H132C132 85.5228 136.477 90 142 90V86ZM207 80C207 83.3137 204.314 86 201 86V90C206.523 90 211 85.5228 211 80H207ZM201 42C204.314 42 207 44.6863 207 48H211C211 42.4772 206.523 38 201 38V42ZM142 38C136.477 38 132 42.4772 132 48H136C136 44.6863 138.686 42 142 42V38Z" fill="#0063FB"/>
<path d="M121 120C121 115.582 124.582 112 129 112H215C219.418 112 223 115.582 223 120V152C223 156.418 219.418 160 215 160H129C124.582 160 121 156.418 121 152V120Z" fill="#0063FB"/>
<path d="M142.232 141.256C141.357 141.256 140.573 141.133 139.88 140.888C139.197 140.632 138.493 140.205 137.768 139.608C137.619 139.491 137.544 139.352 137.544 139.192C137.544 139.053 137.597 138.925 137.704 138.808L138.072 138.376C138.189 138.227 138.323 138.152 138.472 138.152C138.589 138.152 138.723 138.211 138.872 138.328C139.512 138.84 140.083 139.192 140.584 139.384C141.096 139.576 141.656 139.672 142.264 139.672C143 139.672 143.597 139.507 144.056 139.176C144.515 138.835 144.744 138.371 144.744 137.784C144.744 137.4 144.627 137.101 144.392 136.888C144.157 136.664 143.853 136.493 143.48 136.376C143.117 136.259 142.525 136.104 141.704 135.912C140.712 135.677 139.939 135.421 139.384 135.144C138.829 134.867 138.429 134.536 138.184 134.152C137.949 133.757 137.832 133.261 137.832 132.664C137.832 132.035 138.013 131.469 138.376 130.968C138.739 130.467 139.235 130.077 139.864 129.8C140.504 129.523 141.219 129.384 142.008 129.384C142.808 129.384 143.512 129.491 144.12 129.704C144.739 129.917 145.357 130.264 145.976 130.744C146.136 130.872 146.216 131.005 146.216 131.144C146.216 131.261 146.163 131.389 146.056 131.528L145.704 131.944C145.576 132.093 145.443 132.168 145.304 132.168C145.176 132.168 145.043 132.115 144.904 132.008C144.392 131.613 143.917 131.341 143.48 131.192C143.043 131.043 142.547 130.968 141.992 130.968C141.288 130.968 140.717 131.123 140.28 131.432C139.843 131.741 139.624 132.131 139.624 132.6C139.624 132.941 139.725 133.213 139.928 133.416C140.131 133.619 140.424 133.784 140.808 133.912C141.192 134.04 141.784 134.195 142.584 134.376C143.555 134.611 144.323 134.861 144.888 135.128C145.453 135.384 145.875 135.715 146.152 136.12C146.429 136.525 146.568 137.043 146.568 137.672C146.568 138.376 146.387 139 146.024 139.544C145.661 140.088 145.155 140.509 144.504 140.808C143.853 141.107 143.096 141.256 142.232 141.256ZM151.722 139.656C151.754 139.645 151.802 139.64 151.866 139.64C152.132 139.64 152.292 139.795 152.346 140.104L152.394 140.36C152.404 140.392 152.41 140.445 152.41 140.52C152.41 140.787 152.26 140.957 151.962 141.032C151.535 141.128 151.146 141.176 150.794 141.176C150.036 141.176 149.487 141 149.146 140.648C148.815 140.296 148.65 139.768 148.65 139.064V134.408H147.77C147.599 134.408 147.46 134.36 147.354 134.264C147.258 134.157 147.21 134.019 147.21 133.848V133.672C147.21 133.491 147.258 133.352 147.354 133.256C147.46 133.16 147.599 133.112 147.77 133.112H148.65V131.128C148.65 130.947 148.698 130.808 148.794 130.712C148.9 130.616 149.039 130.568 149.21 130.568H149.786C149.967 130.568 150.106 130.616 150.202 130.712C150.298 130.808 150.346 130.947 150.346 131.128V133.112H151.786C151.967 133.112 152.106 133.16 152.202 133.256C152.298 133.352 152.346 133.491 152.346 133.672V133.848C152.346 134.019 152.298 134.157 152.202 134.264C152.106 134.36 151.967 134.408 151.786 134.408H150.346V138.856C150.346 139.165 150.41 139.384 150.538 139.512C150.676 139.64 150.895 139.704 151.194 139.704C151.322 139.704 151.498 139.688 151.722 139.656ZM157.085 132.872C158.152 132.872 158.973 133.123 159.549 133.624C160.125 134.115 160.413 134.771 160.413 135.592V140.44C160.413 140.611 160.365 140.749 160.269 140.856C160.173 140.952 160.035 141 159.853 141H159.437C159.267 141 159.128 140.952 159.021 140.856C158.925 140.749 158.877 140.611 158.877 140.44V140.088C158.621 140.461 158.269 140.749 157.821 140.952C157.373 141.155 156.851 141.256 156.253 141.256C155.432 141.256 154.755 141.075 154.221 140.712C153.699 140.339 153.437 139.779 153.437 139.032C153.437 138.2 153.747 137.587 154.365 137.192C154.995 136.787 155.864 136.483 156.973 136.28L158.781 135.944V135.656C158.781 135.219 158.627 134.883 158.317 134.648C158.019 134.403 157.619 134.28 157.117 134.28C156.691 134.28 156.317 134.355 155.997 134.504C155.688 134.643 155.352 134.877 154.989 135.208C154.851 135.325 154.717 135.384 154.589 135.384C154.461 135.384 154.328 135.325 154.189 135.208L153.933 134.984C153.795 134.856 153.725 134.717 153.725 134.568C153.725 134.429 153.789 134.296 153.917 134.168C154.376 133.731 154.861 133.405 155.373 133.192C155.885 132.979 156.456 132.872 157.085 132.872ZM156.493 139.896C157.133 139.896 157.672 139.725 158.109 139.384C158.557 139.043 158.781 138.552 158.781 137.912V137.176L157.389 137.464C156.611 137.624 156.035 137.805 155.661 138.008C155.288 138.211 155.101 138.52 155.101 138.936C155.101 139.235 155.224 139.469 155.469 139.64C155.715 139.811 156.056 139.896 156.493 139.896ZM165.903 133.032C166.138 133.032 166.378 133.059 166.623 133.112C166.911 133.176 167.055 133.347 167.055 133.624C167.055 133.699 167.05 133.752 167.039 133.784L166.959 134.168C166.895 134.467 166.735 134.616 166.479 134.616L166.335 134.6C166.143 134.568 165.972 134.552 165.823 134.552C165.29 134.552 164.858 134.765 164.527 135.192C164.207 135.608 164.047 136.189 164.047 136.936V140.44C164.047 140.611 163.999 140.749 163.903 140.856C163.807 140.952 163.668 141 163.487 141H162.911C162.74 141 162.602 140.952 162.495 140.856C162.399 140.749 162.351 140.611 162.351 140.44V133.672C162.351 133.491 162.399 133.352 162.495 133.256C162.602 133.16 162.74 133.112 162.911 133.112H163.375C163.556 133.112 163.695 133.16 163.791 133.256C163.887 133.352 163.935 133.491 163.935 133.672V134.296C164.127 133.901 164.388 133.592 164.719 133.368C165.05 133.144 165.444 133.032 165.903 133.032ZM172.284 139.656C172.316 139.645 172.364 139.64 172.428 139.64C172.695 139.64 172.855 139.795 172.908 140.104L172.956 140.36C172.967 140.392 172.972 140.445 172.972 140.52C172.972 140.787 172.823 140.957 172.524 141.032C172.097 141.128 171.708 141.176 171.356 141.176C170.599 141.176 170.049 141 169.708 140.648C169.377 140.296 169.212 139.768 169.212 139.064V134.408H168.332C168.161 134.408 168.023 134.36 167.916 134.264C167.82 134.157 167.772 134.019 167.772 133.848V133.672C167.772 133.491 167.82 133.352 167.916 133.256C168.023 133.16 168.161 133.112 168.332 133.112H169.212V131.128C169.212 130.947 169.26 130.808 169.356 130.712C169.463 130.616 169.601 130.568 169.772 130.568H170.348C170.529 130.568 170.668 130.616 170.764 130.712C170.86 130.808 170.908 130.947 170.908 131.128V133.112H172.348C172.529 133.112 172.668 133.16 172.764 133.256C172.86 133.352 172.908 133.491 172.908 133.672V133.848C172.908 134.019 172.86 134.157 172.764 134.264C172.668 134.36 172.529 134.408 172.348 134.408H170.908V138.856C170.908 139.165 170.972 139.384 171.1 139.512C171.239 139.64 171.457 139.704 171.756 139.704C171.884 139.704 172.06 139.688 172.284 139.656ZM181.898 132.872C182.805 132.872 183.498 133.128 183.978 133.64C184.469 134.141 184.714 134.792 184.714 135.592V140.44C184.714 140.611 184.666 140.749 184.57 140.856C184.474 140.952 184.336 141 184.154 141H183.578C183.408 141 183.269 140.952 183.162 140.856C183.066 140.749 183.018 140.611 183.018 140.44V136.12C183.018 135.544 182.874 135.101 182.586 134.792C182.309 134.483 181.909 134.328 181.386 134.328C180.874 134.328 180.442 134.504 180.09 134.856C179.749 135.208 179.578 135.651 179.578 136.184V140.44C179.578 140.611 179.53 140.749 179.434 140.856C179.338 140.952 179.2 141 179.018 141H178.442C178.272 141 178.133 140.952 178.026 140.856C177.93 140.749 177.882 140.611 177.882 140.44V133.672C177.882 133.491 177.93 133.352 178.026 133.256C178.133 133.16 178.272 133.112 178.442 133.112H178.906C179.088 133.112 179.226 133.16 179.322 133.256C179.418 133.352 179.466 133.491 179.466 133.672V134.088C179.722 133.693 180.058 133.395 180.474 133.192C180.89 132.979 181.365 132.872 181.898 132.872ZM190.216 141.24C189.437 141.24 188.744 141.064 188.136 140.712C187.538 140.36 187.069 139.869 186.728 139.24C186.386 138.6 186.215 137.869 186.215 137.048C186.215 136.227 186.386 135.501 186.728 134.872C187.069 134.243 187.538 133.752 188.136 133.4C188.744 133.048 189.437 132.872 190.216 132.872C190.984 132.872 191.672 133.048 192.28 133.4C192.888 133.752 193.362 134.248 193.704 134.888C194.045 135.517 194.216 136.237 194.216 137.048C194.216 137.869 194.045 138.6 193.704 139.24C193.362 139.869 192.888 140.36 192.28 140.712C191.672 141.064 190.984 141.24 190.216 141.24ZM190.216 139.816C190.898 139.816 191.448 139.565 191.864 139.064C192.28 138.552 192.488 137.88 192.488 137.048C192.488 136.227 192.28 135.565 191.864 135.064C191.448 134.563 190.898 134.312 190.216 134.312C189.533 134.312 188.984 134.563 188.568 135.064C188.152 135.565 187.944 136.227 187.944 137.048C187.944 137.88 188.152 138.552 188.568 139.064C188.984 139.565 189.533 139.816 190.216 139.816ZM204.481 133.592C204.556 133.272 204.764 133.112 205.105 133.112H205.697C205.857 133.112 205.98 133.149 206.065 133.224C206.161 133.288 206.209 133.389 206.209 133.528C206.209 133.56 206.198 133.629 206.177 133.736L204.273 140.52C204.198 140.84 203.99 141 203.649 141H202.609C202.289 141 202.081 140.84 201.985 140.52L201.457 138.664C201.222 137.843 200.961 136.813 200.673 135.576L200.593 135.224C200.305 136.525 200.028 137.677 199.761 138.68L199.265 140.52C199.19 140.84 198.982 141 198.641 141H197.617C197.297 141 197.089 140.84 196.993 140.52L195.073 133.736C195.052 133.629 195.041 133.56 195.041 133.528C195.041 133.389 195.084 133.288 195.169 133.224C195.265 133.149 195.393 133.112 195.553 133.112H196.177C196.518 133.112 196.726 133.272 196.801 133.592L197.377 135.864C197.601 136.696 197.862 137.805 198.161 139.192L198.225 139.512C198.534 138.083 198.822 136.867 199.089 135.864L199.697 133.592C199.772 133.272 199.98 133.112 200.321 133.112H200.929C201.27 133.112 201.478 133.272 201.553 133.592L202.177 135.864C202.476 136.973 202.774 138.189 203.073 139.512C203.297 138.371 203.574 137.155 203.905 135.864L204.481 133.592Z" fill="white"/>
<path d="M129 114H215V110H129V114ZM221 120V152H225V120H221ZM215 158H129V162H215V158ZM123 152V120H119V152H123ZM129 158C125.686 158 123 155.314 123 152H119C119 157.523 123.477 162 129 162V158ZM221 152C221 155.314 218.314 158 215 158V162C220.523 162 225 157.523 225 152H221ZM215 114C218.314 114 221 116.686 221 120H225C225 114.477 220.523 110 215 110V114ZM129 110C123.477 110 119 114.477 119 120H123C123 116.686 125.686 114 129 114V110Z" fill="#0063FB"/>
<path d="M108 192C108 187.582 111.582 184 116 184H227C231.418 184 235 187.582 235 192V224C235 228.418 231.418 232 227 232H116C111.582 232 108 228.418 108 224V192Z" fill="#0063FB"/>
<path d="M129.232 213.256C128.357 213.256 127.573 213.133 126.88 212.888C126.197 212.632 125.493 212.205 124.768 211.608C124.619 211.491 124.544 211.352 124.544 211.192C124.544 211.053 124.597 210.925 124.704 210.808L125.072 210.376C125.189 210.227 125.323 210.152 125.472 210.152C125.589 210.152 125.723 210.211 125.872 210.328C126.512 210.84 127.083 211.192 127.584 211.384C128.096 211.576 128.656 211.672 129.264 211.672C130 211.672 130.597 211.507 131.056 211.176C131.515 210.835 131.744 210.371 131.744 209.784C131.744 209.4 131.627 209.101 131.392 208.888C131.157 208.664 130.853 208.493 130.48 208.376C130.117 208.259 129.525 208.104 128.704 207.912C127.712 207.677 126.939 207.421 126.384 207.144C125.829 206.867 125.429 206.536 125.184 206.152C124.949 205.757 124.832 205.261 124.832 204.664C124.832 204.035 125.013 203.469 125.376 202.968C125.739 202.467 126.235 202.077 126.864 201.8C127.504 201.523 128.219 201.384 129.008 201.384C129.808 201.384 130.512 201.491 131.12 201.704C131.739 201.917 132.357 202.264 132.976 202.744C133.136 202.872 133.216 203.005 133.216 203.144C133.216 203.261 133.163 203.389 133.056 203.528L132.704 203.944C132.576 204.093 132.443 204.168 132.304 204.168C132.176 204.168 132.043 204.115 131.904 204.008C131.392 203.613 130.917 203.341 130.48 203.192C130.043 203.043 129.547 202.968 128.992 202.968C128.288 202.968 127.717 203.123 127.28 203.432C126.843 203.741 126.624 204.131 126.624 204.6C126.624 204.941 126.725 205.213 126.928 205.416C127.131 205.619 127.424 205.784 127.808 205.912C128.192 206.04 128.784 206.195 129.584 206.376C130.555 206.611 131.323 206.861 131.888 207.128C132.453 207.384 132.875 207.715 133.152 208.12C133.429 208.525 133.568 209.043 133.568 209.672C133.568 210.376 133.387 211 133.024 211.544C132.661 212.088 132.155 212.509 131.504 212.808C130.853 213.107 130.096 213.256 129.232 213.256ZM138.57 204.872C139.636 204.872 140.458 205.123 141.034 205.624C141.61 206.115 141.898 206.771 141.898 207.592V212.44C141.898 212.611 141.85 212.749 141.754 212.856C141.658 212.952 141.519 213 141.338 213H140.922C140.751 213 140.612 212.952 140.506 212.856C140.41 212.749 140.362 212.611 140.362 212.44V212.088C140.106 212.461 139.754 212.749 139.306 212.952C138.858 213.155 138.335 213.256 137.738 213.256C136.916 213.256 136.239 213.075 135.706 212.712C135.183 212.339 134.922 211.779 134.922 211.032C134.922 210.2 135.231 209.587 135.85 209.192C136.479 208.787 137.348 208.483 138.458 208.28L140.266 207.944V207.656C140.266 207.219 140.111 206.883 139.802 206.648C139.503 206.403 139.103 206.28 138.602 206.28C138.175 206.28 137.802 206.355 137.482 206.504C137.172 206.643 136.836 206.877 136.474 207.208C136.335 207.325 136.202 207.384 136.074 207.384C135.946 207.384 135.812 207.325 135.674 207.208L135.418 206.984C135.279 206.856 135.21 206.717 135.21 206.568C135.21 206.429 135.274 206.296 135.402 206.168C135.86 205.731 136.346 205.405 136.858 205.192C137.37 204.979 137.94 204.872 138.57 204.872ZM137.978 211.896C138.618 211.896 139.156 211.725 139.594 211.384C140.042 211.043 140.266 210.552 140.266 209.912V209.176L138.874 209.464C138.095 209.624 137.519 209.805 137.146 210.008C136.772 210.211 136.586 210.52 136.586 210.936C136.586 211.235 136.708 211.469 136.954 211.64C137.199 211.811 137.54 211.896 137.978 211.896ZM148.448 205.576C148.544 205.267 148.752 205.112 149.072 205.112H149.664C149.995 205.112 150.16 205.245 150.16 205.512C150.16 205.587 150.144 205.667 150.112 205.752L147.792 212.552C147.696 212.851 147.483 213 147.152 213H146.016C145.686 213 145.472 212.851 145.376 212.552L143.056 205.752C143.024 205.667 143.008 205.587 143.008 205.512C143.008 205.245 143.174 205.112 143.504 205.112H144.144C144.464 205.112 144.672 205.267 144.768 205.576L145.504 207.864C145.984 209.4 146.352 210.648 146.608 211.608C146.95 210.339 147.318 209.091 147.712 207.864L148.448 205.576ZM157.046 210.984C157.185 210.867 157.318 210.808 157.446 210.808C157.574 210.808 157.707 210.877 157.846 211.016L158.07 211.256C158.187 211.395 158.246 211.528 158.246 211.656C158.246 211.795 158.177 211.928 158.038 212.056C157.547 212.483 157.057 212.787 156.566 212.968C156.086 213.149 155.553 213.24 154.966 213.24C154.145 213.24 153.43 213.069 152.822 212.728C152.225 212.387 151.761 211.907 151.43 211.288C151.11 210.659 150.95 209.933 150.95 209.112C150.95 208.301 151.105 207.576 151.414 206.936C151.734 206.285 152.182 205.779 152.758 205.416C153.345 205.053 154.027 204.872 154.806 204.872C155.969 204.872 156.865 205.219 157.494 205.912C158.123 206.595 158.438 207.539 158.438 208.744V208.888C158.427 209.059 158.374 209.192 158.278 209.288C158.182 209.384 158.043 209.432 157.862 209.432H152.614C152.678 210.136 152.907 210.712 153.302 211.16C153.707 211.597 154.273 211.816 154.998 211.816C155.393 211.816 155.739 211.757 156.038 211.64C156.337 211.512 156.673 211.293 157.046 210.984ZM154.774 206.216C154.187 206.216 153.713 206.392 153.35 206.744C152.998 207.085 152.769 207.571 152.662 208.2H156.774C156.731 207.581 156.539 207.096 156.198 206.744C155.857 206.392 155.382 206.216 154.774 206.216ZM167.042 202.824C166.668 202.824 166.396 202.915 166.226 203.096C166.055 203.277 165.97 203.587 165.97 204.024V205.112H167.266C167.447 205.112 167.586 205.16 167.682 205.256C167.778 205.352 167.826 205.491 167.826 205.672V205.848C167.826 206.019 167.778 206.157 167.682 206.264C167.586 206.36 167.447 206.408 167.266 206.408H165.97V212.44C165.97 212.611 165.922 212.749 165.826 212.856C165.73 212.952 165.591 213 165.41 213H164.834C164.663 213 164.524 212.952 164.418 212.856C164.322 212.749 164.274 212.611 164.274 212.44V206.408H163.426C163.255 206.408 163.116 206.36 163.01 206.264C162.914 206.157 162.866 206.019 162.866 205.848V205.672C162.866 205.491 162.914 205.352 163.01 205.256C163.116 205.16 163.255 205.112 163.426 205.112H164.274V203.912C164.274 203.091 164.482 202.472 164.898 202.056C165.324 201.629 165.938 201.416 166.738 201.416C167.1 201.416 167.468 201.453 167.842 201.528C168.119 201.603 168.258 201.773 168.258 202.04C168.258 202.115 168.252 202.173 168.242 202.216L168.194 202.44C168.13 202.717 167.922 202.856 167.57 202.856L167.378 202.84C167.303 202.829 167.191 202.824 167.042 202.824ZM172.341 213.24C171.562 213.24 170.869 213.064 170.261 212.712C169.663 212.36 169.194 211.869 168.853 211.24C168.511 210.6 168.34 209.869 168.34 209.048C168.34 208.227 168.511 207.501 168.853 206.872C169.194 206.243 169.663 205.752 170.261 205.4C170.869 205.048 171.562 204.872 172.341 204.872C173.109 204.872 173.797 205.048 174.405 205.4C175.013 205.752 175.487 206.248 175.829 206.888C176.17 207.517 176.341 208.237 176.341 209.048C176.341 209.869 176.17 210.6 175.829 211.24C175.487 211.869 175.013 212.36 174.405 212.712C173.797 213.064 173.109 213.24 172.341 213.24ZM172.341 211.816C173.023 211.816 173.573 211.565 173.989 211.064C174.405 210.552 174.613 209.88 174.613 209.048C174.613 208.227 174.405 207.565 173.989 207.064C173.573 206.563 173.023 206.312 172.341 206.312C171.658 206.312 171.109 206.563 170.693 207.064C170.277 207.565 170.069 208.227 170.069 209.048C170.069 209.88 170.277 210.552 170.693 211.064C171.109 211.565 171.658 211.816 172.341 211.816ZM181.387 205.032C181.622 205.032 181.862 205.059 182.107 205.112C182.395 205.176 182.539 205.347 182.539 205.624C182.539 205.699 182.534 205.752 182.523 205.784L182.443 206.168C182.379 206.467 182.219 206.616 181.963 206.616L181.819 206.6C181.627 206.568 181.457 206.552 181.307 206.552C180.774 206.552 180.342 206.765 180.011 207.192C179.691 207.608 179.531 208.189 179.531 208.936V212.44C179.531 212.611 179.483 212.749 179.387 212.856C179.291 212.952 179.153 213 178.971 213H178.395C178.225 213 178.086 212.952 177.979 212.856C177.883 212.749 177.835 212.611 177.835 212.44V205.672C177.835 205.491 177.883 205.352 177.979 205.256C178.086 205.16 178.225 205.112 178.395 205.112H178.859C179.041 205.112 179.179 205.16 179.275 205.256C179.371 205.352 179.419 205.491 179.419 205.672V206.296C179.611 205.901 179.873 205.592 180.203 205.368C180.534 205.144 180.929 205.032 181.387 205.032ZM187.975 213C187.804 213 187.666 212.952 187.559 212.856C187.463 212.749 187.415 212.611 187.415 212.44V202.2C187.415 202.019 187.463 201.88 187.559 201.784C187.666 201.688 187.804 201.64 187.975 201.64H188.551C188.732 201.64 188.871 201.688 188.967 201.784C189.063 201.88 189.111 202.019 189.111 202.2V212.44C189.111 212.611 189.063 212.749 188.967 212.856C188.871 212.952 188.732 213 188.551 213H187.975ZM194.46 204.872C195.527 204.872 196.348 205.123 196.924 205.624C197.5 206.115 197.788 206.771 197.788 207.592V212.44C197.788 212.611 197.74 212.749 197.644 212.856C197.548 212.952 197.41 213 197.228 213H196.812C196.642 213 196.503 212.952 196.396 212.856C196.3 212.749 196.252 212.611 196.252 212.44V212.088C195.996 212.461 195.644 212.749 195.196 212.952C194.748 213.155 194.226 213.256 193.628 213.256C192.807 213.256 192.13 213.075 191.596 212.712C191.074 212.339 190.812 211.779 190.812 211.032C190.812 210.2 191.122 209.587 191.74 209.192C192.37 208.787 193.239 208.483 194.348 208.28L196.156 207.944V207.656C196.156 207.219 196.002 206.883 195.692 206.648C195.394 206.403 194.994 206.28 194.492 206.28C194.066 206.28 193.692 206.355 193.372 206.504C193.063 206.643 192.727 206.877 192.364 207.208C192.226 207.325 192.092 207.384 191.964 207.384C191.836 207.384 191.703 207.325 191.564 207.208L191.308 206.984C191.17 206.856 191.1 206.717 191.1 206.568C191.1 206.429 191.164 206.296 191.292 206.168C191.751 205.731 192.236 205.405 192.748 205.192C193.26 204.979 193.831 204.872 194.46 204.872ZM193.868 211.896C194.508 211.896 195.047 211.725 195.484 211.384C195.932 211.043 196.156 210.552 196.156 209.912V209.176L194.764 209.464C193.986 209.624 193.41 209.805 193.036 210.008C192.663 210.211 192.476 210.52 192.476 210.936C192.476 211.235 192.599 211.469 192.844 211.64C193.09 211.811 193.431 211.896 193.868 211.896ZM203.362 211.656C203.394 211.645 203.442 211.64 203.506 211.64C203.773 211.64 203.933 211.795 203.986 212.104L204.034 212.36C204.045 212.392 204.05 212.445 204.05 212.52C204.05 212.787 203.901 212.957 203.602 213.032C203.175 213.128 202.786 213.176 202.434 213.176C201.677 213.176 201.127 213 200.786 212.648C200.455 212.296 200.29 211.768 200.29 211.064V206.408H199.41C199.239 206.408 199.101 206.36 198.994 206.264C198.898 206.157 198.85 206.019 198.85 205.848V205.672C198.85 205.491 198.898 205.352 198.994 205.256C199.101 205.16 199.239 205.112 199.41 205.112H200.29V203.128C200.29 202.947 200.338 202.808 200.434 202.712C200.541 202.616 200.679 202.568 200.85 202.568H201.426C201.607 202.568 201.746 202.616 201.842 202.712C201.938 202.808 201.986 202.947 201.986 203.128V205.112H203.426C203.607 205.112 203.746 205.16 203.842 205.256C203.938 205.352 203.986 205.491 203.986 205.672V205.848C203.986 206.019 203.938 206.157 203.842 206.264C203.746 206.36 203.607 206.408 203.426 206.408H201.986V210.856C201.986 211.165 202.05 211.384 202.178 211.512C202.317 211.64 202.535 211.704 202.834 211.704C202.962 211.704 203.138 211.688 203.362 211.656ZM210.78 210.984C210.919 210.867 211.052 210.808 211.18 210.808C211.308 210.808 211.442 210.877 211.58 211.016L211.804 211.256C211.922 211.395 211.98 211.528 211.98 211.656C211.98 211.795 211.911 211.928 211.772 212.056C211.282 212.483 210.791 212.787 210.3 212.968C209.82 213.149 209.287 213.24 208.7 213.24C207.879 213.24 207.164 213.069 206.556 212.728C205.959 212.387 205.495 211.907 205.164 211.288C204.844 210.659 204.684 209.933 204.684 209.112C204.684 208.301 204.839 207.576 205.148 206.936C205.468 206.285 205.916 205.779 206.492 205.416C207.079 205.053 207.762 204.872 208.54 204.872C209.703 204.872 210.599 205.219 211.228 205.912C211.858 206.595 212.172 207.539 212.172 208.744V208.888C212.162 209.059 212.108 209.192 212.012 209.288C211.916 209.384 211.778 209.432 211.596 209.432H206.348C206.412 210.136 206.642 210.712 207.036 211.16C207.442 211.597 208.007 211.816 208.732 211.816C209.127 211.816 209.474 211.757 209.772 211.64C210.071 211.512 210.407 211.293 210.78 210.984ZM208.508 206.216C207.922 206.216 207.447 206.392 207.084 206.744C206.732 207.085 206.503 207.571 206.396 208.2H210.508C210.466 207.581 210.274 207.096 209.932 206.744C209.591 206.392 209.116 206.216 208.508 206.216ZM217.278 205.032C217.513 205.032 217.753 205.059 217.998 205.112C218.286 205.176 218.43 205.347 218.43 205.624C218.43 205.699 218.425 205.752 218.414 205.784L218.334 206.168C218.27 206.467 218.11 206.616 217.854 206.616L217.71 206.6C217.518 206.568 217.347 206.552 217.198 206.552C216.665 206.552 216.233 206.765 215.902 207.192C215.582 207.608 215.422 208.189 215.422 208.936V212.44C215.422 212.611 215.374 212.749 215.278 212.856C215.182 212.952 215.043 213 214.862 213H214.286C214.115 213 213.977 212.952 213.87 212.856C213.774 212.749 213.726 212.611 213.726 212.44V205.672C213.726 205.491 213.774 205.352 213.87 205.256C213.977 205.16 214.115 205.112 214.286 205.112H214.75C214.931 205.112 215.07 205.16 215.166 205.256C215.262 205.352 215.31 205.491 215.31 205.672V206.296C215.502 205.901 215.763 205.592 216.094 205.368C216.425 205.144 216.819 205.032 217.278 205.032Z" fill="white"/>
<path d="M116 186H227V182H116V186ZM233 192V224H237V192H233ZM227 230H116V234H227V230ZM110 224V192H106V224H110ZM116 230C112.686 230 110 227.314 110 224H106C106 229.523 110.477 234 116 234V230ZM233 224C233 227.314 230.314 230 227 230V234C232.523 234 237 229.523 237 224H233ZM227 186C230.314 186 233 188.686 233 192H237C237 186.477 232.523 182 227 182V186ZM116 182C110.477 182 106 186.477 106 192H110C110 188.686 112.686 186 116 186V182Z" fill="#0063FB"/>
<path d="M16 264C16 259.582 19.5817 256 24 256H320C324.418 256 328 259.582 328 264V296C328 300.418 324.418 304 320 304H24C19.5817 304 16 300.418 16 296V264Z" fill="#0063FB"/>
<path d="M129.888 285.256C129.014 285.256 128.23 285.133 127.536 284.888C126.854 284.632 126.15 284.205 125.424 283.608C125.275 283.491 125.2 283.352 125.2 283.192C125.2 283.053 125.254 282.925 125.36 282.808L125.728 282.376C125.846 282.227 125.979 282.152 126.128 282.152C126.246 282.152 126.379 282.211 126.528 282.328C127.168 282.84 127.739 283.192 128.24 283.384C128.752 283.576 129.312 283.672 129.92 283.672C130.656 283.672 131.254 283.507 131.712 283.176C132.171 282.835 132.4 282.371 132.4 281.784C132.4 281.4 132.283 281.101 132.048 280.888C131.814 280.664 131.51 280.493 131.136 280.376C130.774 280.259 130.182 280.104 129.36 279.912C128.368 279.677 127.595 279.421 127.04 279.144C126.486 278.867 126.086 278.536 125.84 278.152C125.606 277.757 125.488 277.261 125.488 276.664C125.488 276.035 125.67 275.469 126.032 274.968C126.395 274.467 126.891 274.077 127.52 273.8C128.16 273.523 128.875 273.384 129.664 273.384C130.464 273.384 131.168 273.491 131.776 273.704C132.395 273.917 133.014 274.264 133.632 274.744C133.792 274.872 133.872 275.005 133.872 275.144C133.872 275.261 133.819 275.389 133.712 275.528L133.36 275.944C133.232 276.093 133.099 276.168 132.96 276.168C132.832 276.168 132.699 276.115 132.56 276.008C132.048 275.613 131.574 275.341 131.136 275.192C130.699 275.043 130.203 274.968 129.648 274.968C128.944 274.968 128.374 275.123 127.936 275.432C127.499 275.741 127.28 276.131 127.28 276.6C127.28 276.941 127.382 277.213 127.584 277.416C127.787 277.619 128.08 277.784 128.464 277.912C128.848 278.04 129.44 278.195 130.24 278.376C131.211 278.611 131.979 278.861 132.544 279.128C133.11 279.384 133.531 279.715 133.808 280.12C134.086 280.525 134.224 281.043 134.224 281.672C134.224 282.376 134.043 283 133.68 283.544C133.318 284.088 132.811 284.509 132.16 284.808C131.51 285.107 130.752 285.256 129.888 285.256ZM139.226 276.872C140.293 276.872 141.114 277.123 141.69 277.624C142.266 278.115 142.554 278.771 142.554 279.592V284.44C142.554 284.611 142.506 284.749 142.41 284.856C142.314 284.952 142.175 285 141.994 285H141.578C141.407 285 141.269 284.952 141.162 284.856C141.066 284.749 141.018 284.611 141.018 284.44V284.088C140.762 284.461 140.41 284.749 139.962 284.952C139.514 285.155 138.991 285.256 138.394 285.256C137.573 285.256 136.895 285.075 136.362 284.712C135.839 284.339 135.578 283.779 135.578 283.032C135.578 282.2 135.887 281.587 136.506 281.192C137.135 280.787 138.005 280.483 139.114 280.28L140.922 279.944V279.656C140.922 279.219 140.767 278.883 140.458 278.648C140.159 278.403 139.759 278.28 139.258 278.28C138.831 278.28 138.458 278.355 138.138 278.504C137.829 278.643 137.493 278.877 137.13 279.208C136.991 279.325 136.858 279.384 136.73 279.384C136.602 279.384 136.469 279.325 136.33 279.208L136.074 278.984C135.935 278.856 135.866 278.717 135.866 278.568C135.866 278.429 135.93 278.296 136.058 278.168C136.517 277.731 137.002 277.405 137.514 277.192C138.026 276.979 138.597 276.872 139.226 276.872ZM138.634 283.896C139.274 283.896 139.813 283.725 140.25 283.384C140.698 283.043 140.922 282.552 140.922 281.912V281.176L139.53 281.464C138.751 281.624 138.175 281.805 137.802 282.008C137.429 282.211 137.242 282.52 137.242 282.936C137.242 283.235 137.365 283.469 137.61 283.64C137.855 283.811 138.197 283.896 138.634 283.896ZM149.105 277.576C149.201 277.267 149.409 277.112 149.729 277.112H150.321C150.651 277.112 150.817 277.245 150.817 277.512C150.817 277.587 150.801 277.667 150.769 277.752L148.449 284.552C148.353 284.851 148.139 285 147.809 285H146.673C146.342 285 146.129 284.851 146.033 284.552L143.713 277.752C143.681 277.667 143.665 277.587 143.665 277.512C143.665 277.245 143.83 277.112 144.161 277.112H144.801C145.121 277.112 145.329 277.267 145.424 277.576L146.161 279.864C146.641 281.4 147.009 282.648 147.265 283.608C147.606 282.339 147.974 281.091 148.369 279.864L149.105 277.576ZM157.702 282.984C157.841 282.867 157.974 282.808 158.102 282.808C158.23 282.808 158.363 282.877 158.502 283.016L158.726 283.256C158.843 283.395 158.902 283.528 158.902 283.656C158.902 283.795 158.833 283.928 158.694 284.056C158.203 284.483 157.713 284.787 157.222 284.968C156.742 285.149 156.209 285.24 155.622 285.24C154.801 285.24 154.086 285.069 153.478 284.728C152.881 284.387 152.417 283.907 152.086 283.288C151.766 282.659 151.606 281.933 151.606 281.112C151.606 280.301 151.761 279.576 152.07 278.936C152.39 278.285 152.838 277.779 153.414 277.416C154.001 277.053 154.683 276.872 155.462 276.872C156.625 276.872 157.521 277.219 158.15 277.912C158.779 278.595 159.094 279.539 159.094 280.744V280.888C159.083 281.059 159.03 281.192 158.934 281.288C158.838 281.384 158.699 281.432 158.518 281.432H153.27C153.334 282.136 153.563 282.712 153.958 283.16C154.363 283.597 154.929 283.816 155.654 283.816C156.049 283.816 156.395 283.757 156.694 283.64C156.993 283.512 157.329 283.293 157.702 282.984ZM155.43 278.216C154.843 278.216 154.369 278.392 154.006 278.744C153.654 279.085 153.425 279.571 153.318 280.2H157.43C157.387 279.581 157.195 279.096 156.854 278.744C156.513 278.392 156.038 278.216 155.43 278.216ZM167.698 274.824C167.325 274.824 167.053 274.915 166.882 275.096C166.711 275.277 166.626 275.587 166.626 276.024V277.112H167.922C168.103 277.112 168.242 277.16 168.338 277.256C168.434 277.352 168.482 277.491 168.482 277.672V277.848C168.482 278.019 168.434 278.157 168.338 278.264C168.242 278.36 168.103 278.408 167.922 278.408H166.626V284.44C166.626 284.611 166.578 284.749 166.482 284.856C166.386 284.952 166.247 285 166.066 285H165.49C165.319 285 165.181 284.952 165.074 284.856C164.978 284.749 164.93 284.611 164.93 284.44V278.408H164.082C163.911 278.408 163.773 278.36 163.666 278.264C163.57 278.157 163.522 278.019 163.522 277.848V277.672C163.522 277.491 163.57 277.352 163.666 277.256C163.773 277.16 163.911 277.112 164.082 277.112H164.93V275.912C164.93 275.091 165.138 274.472 165.554 274.056C165.981 273.629 166.594 273.416 167.394 273.416C167.757 273.416 168.125 273.453 168.498 273.528C168.775 273.603 168.914 273.773 168.914 274.04C168.914 274.115 168.909 274.173 168.898 274.216L168.85 274.44C168.786 274.717 168.578 274.856 168.226 274.856L168.034 274.84C167.959 274.829 167.847 274.824 167.698 274.824ZM172.997 285.24C172.218 285.24 171.525 285.064 170.917 284.712C170.319 284.36 169.85 283.869 169.509 283.24C169.167 282.6 168.997 281.869 168.997 281.048C168.997 280.227 169.167 279.501 169.509 278.872C169.85 278.243 170.319 277.752 170.917 277.4C171.525 277.048 172.218 276.872 172.997 276.872C173.765 276.872 174.453 277.048 175.061 277.4C175.669 277.752 176.143 278.248 176.485 278.888C176.826 279.517 176.997 280.237 176.997 281.048C176.997 281.869 176.826 282.6 176.485 283.24C176.143 283.869 175.669 284.36 175.061 284.712C174.453 285.064 173.765 285.24 172.997 285.24ZM172.997 283.816C173.679 283.816 174.229 283.565 174.645 283.064C175.061 282.552 175.269 281.88 175.269 281.048C175.269 280.227 175.061 279.565 174.645 279.064C174.229 278.563 173.679 278.312 172.997 278.312C172.314 278.312 171.765 278.563 171.349 279.064C170.933 279.565 170.725 280.227 170.725 281.048C170.725 281.88 170.933 282.552 171.349 283.064C171.765 283.565 172.314 283.816 172.997 283.816ZM182.044 277.032C182.278 277.032 182.518 277.059 182.764 277.112C183.052 277.176 183.196 277.347 183.196 277.624C183.196 277.699 183.19 277.752 183.18 277.784L183.1 278.168C183.036 278.467 182.876 278.616 182.62 278.616L182.476 278.6C182.284 278.568 182.113 278.552 181.964 278.552C181.43 278.552 180.998 278.765 180.668 279.192C180.348 279.608 180.188 280.189 180.188 280.936V284.44C180.188 284.611 180.14 284.749 180.044 284.856C179.948 284.952 179.809 285 179.628 285H179.052C178.881 285 178.742 284.952 178.636 284.856C178.54 284.749 178.492 284.611 178.492 284.44V277.672C178.492 277.491 178.54 277.352 178.636 277.256C178.742 277.16 178.881 277.112 179.052 277.112H179.516C179.697 277.112 179.836 277.16 179.932 277.256C180.028 277.352 180.076 277.491 180.076 277.672V278.296C180.268 277.901 180.529 277.592 180.86 277.368C181.19 277.144 181.585 277.032 182.044 277.032ZM188.631 285C188.461 285 188.322 284.952 188.215 284.856C188.119 284.749 188.071 284.611 188.071 284.44V274.2C188.071 274.019 188.119 273.88 188.215 273.784C188.322 273.688 188.461 273.64 188.631 273.64H189.207C189.389 273.64 189.527 273.688 189.623 273.784C189.719 273.88 189.767 274.019 189.767 274.2V284.44C189.767 284.611 189.719 284.749 189.623 284.856C189.527 284.952 189.389 285 189.207 285H188.631ZM195.117 276.872C196.183 276.872 197.005 277.123 197.581 277.624C198.157 278.115 198.445 278.771 198.445 279.592V284.44C198.445 284.611 198.397 284.749 198.301 284.856C198.205 284.952 198.066 285 197.885 285H197.469C197.298 285 197.159 284.952 197.053 284.856C196.957 284.749 196.909 284.611 196.909 284.44V284.088C196.653 284.461 196.301 284.749 195.853 284.952C195.405 285.155 194.882 285.256 194.285 285.256C193.463 285.256 192.786 285.075 192.253 284.712C191.73 284.339 191.469 283.779 191.469 283.032C191.469 282.2 191.778 281.587 192.397 281.192C193.026 280.787 193.895 280.483 195.005 280.28L196.813 279.944V279.656C196.813 279.219 196.658 278.883 196.349 278.648C196.05 278.403 195.65 278.28 195.149 278.28C194.722 278.28 194.349 278.355 194.029 278.504C193.719 278.643 193.383 278.877 193.021 279.208C192.882 279.325 192.749 279.384 192.621 279.384C192.493 279.384 192.359 279.325 192.221 279.208L191.965 278.984C191.826 278.856 191.757 278.717 191.757 278.568C191.757 278.429 191.821 278.296 191.949 278.168C192.407 277.731 192.893 277.405 193.405 277.192C193.917 276.979 194.487 276.872 195.117 276.872ZM194.525 283.896C195.165 283.896 195.703 283.725 196.141 283.384C196.589 283.043 196.813 282.552 196.813 281.912V281.176L195.421 281.464C194.642 281.624 194.066 281.805 193.693 282.008C193.319 282.211 193.133 282.52 193.133 282.936C193.133 283.235 193.255 283.469 193.501 283.64C193.746 283.811 194.087 283.896 194.525 283.896ZM204.018 283.656C204.05 283.645 204.098 283.64 204.162 283.64C204.429 283.64 204.589 283.795 204.642 284.104L204.69 284.36C204.701 284.392 204.706 284.445 204.706 284.52C204.706 284.787 204.557 284.957 204.258 285.032C203.832 285.128 203.442 285.176 203.09 285.176C202.333 285.176 201.784 285 201.442 284.648C201.112 284.296 200.946 283.768 200.946 283.064V278.408H200.066C199.896 278.408 199.757 278.36 199.65 278.264C199.554 278.157 199.506 278.019 199.506 277.848V277.672C199.506 277.491 199.554 277.352 199.65 277.256C199.757 277.16 199.896 277.112 200.066 277.112H200.946V275.128C200.946 274.947 200.994 274.808 201.09 274.712C201.197 274.616 201.336 274.568 201.506 274.568H202.082C202.264 274.568 202.402 274.616 202.498 274.712C202.594 274.808 202.642 274.947 202.642 275.128V277.112H204.082C204.264 277.112 204.402 277.16 204.498 277.256C204.594 277.352 204.642 277.491 204.642 277.672V277.848C204.642 278.019 204.594 278.157 204.498 278.264C204.402 278.36 204.264 278.408 204.082 278.408H202.642V282.856C202.642 283.165 202.706 283.384 202.834 283.512C202.973 283.64 203.192 283.704 203.49 283.704C203.618 283.704 203.794 283.688 204.018 283.656ZM211.437 282.984C211.575 282.867 211.709 282.808 211.837 282.808C211.965 282.808 212.098 282.877 212.237 283.016L212.461 283.256C212.578 283.395 212.637 283.528 212.637 283.656C212.637 283.795 212.567 283.928 212.429 284.056C211.938 284.483 211.447 284.787 210.957 284.968C210.477 285.149 209.943 285.24 209.357 285.24C208.535 285.24 207.821 285.069 207.213 284.728C206.615 284.387 206.151 283.907 205.821 283.288C205.501 282.659 205.34 281.933 205.34 281.112C205.34 280.301 205.495 279.576 205.805 278.936C206.125 278.285 206.573 277.779 207.149 277.416C207.735 277.053 208.418 276.872 209.197 276.872C210.359 276.872 211.255 277.219 211.885 277.912C212.514 278.595 212.829 279.539 212.829 280.744V280.888C212.818 281.059 212.765 281.192 212.669 281.288C212.573 281.384 212.434 281.432 212.253 281.432H207.005C207.069 282.136 207.298 282.712 207.693 283.16C208.098 283.597 208.663 283.816 209.389 283.816C209.783 283.816 210.13 283.757 210.429 283.64C210.727 283.512 211.063 283.293 211.437 282.984ZM209.165 278.216C208.578 278.216 208.103 278.392 207.741 278.744C207.389 279.085 207.159 279.571 207.053 280.2H211.165C211.122 279.581 210.93 279.096 210.589 278.744C210.247 278.392 209.773 278.216 209.165 278.216ZM217.934 277.032C218.169 277.032 218.409 277.059 218.654 277.112C218.942 277.176 219.086 277.347 219.086 277.624C219.086 277.699 219.081 277.752 219.07 277.784L218.99 278.168C218.926 278.467 218.766 278.616 218.51 278.616L218.366 278.6C218.174 278.568 218.004 278.552 217.854 278.552C217.321 278.552 216.889 278.765 216.558 279.192C216.238 279.608 216.078 280.189 216.078 280.936V284.44C216.078 284.611 216.03 284.749 215.934 284.856C215.838 284.952 215.7 285 215.518 285H214.942C214.772 285 214.633 284.952 214.526 284.856C214.43 284.749 214.382 284.611 214.382 284.44V277.672C214.382 277.491 214.43 277.352 214.526 277.256C214.633 277.16 214.772 277.112 214.942 277.112H215.406C215.588 277.112 215.726 277.16 215.822 277.256C215.918 277.352 215.966 277.491 215.966 277.672V278.296C216.158 277.901 216.42 277.592 216.75 277.368C217.081 277.144 217.476 277.032 217.934 277.032Z" fill="white"/>
<path d="M24 258H320V254H24V258ZM326 264V296H330V264H326ZM320 302H24V306H320V302ZM18 296V264H14V296H18ZM24 302C20.6863 302 18 299.314 18 296H14C14 301.523 18.4772 306 24 306V302ZM326 296C326 299.314 323.314 302 320 302V306C325.523 306 330 301.523 330 296H326ZM320 258C323.314 258 326 260.686 326 264H330C330 258.477 325.523 254 320 254V258ZM24 254C18.4772 254 14 258.477 14 264H18C18 260.686 20.6863 258 24 258V254Z" fill="#0063FB"/>
</svg>
