<svg width="344" height="128" viewBox="0 0 344 128" fill="none" xmlns="http://www.w3.org/2000/svg">
<path d="M125 48C125 43.5817 128.582 40 133 40H210C214.418 40 218 43.5817 218 48V80C218 84.4183 214.418 88 210 88H133C128.582 88 125 84.4183 125 80V48Z" fill="#0063FB"/>
<path d="M149.016 63.016C149.699 63.2187 150.232 63.5547 150.616 64.024C151 64.4933 151.192 65.0853 151.192 65.8C151.192 66.792 150.872 67.576 150.232 68.152C149.603 68.7173 148.755 69 147.688 69H142.792C142.621 69 142.483 68.952 142.376 68.856C142.28 68.7493 142.232 68.6107 142.232 68.44V58.2C142.232 58.0187 142.28 57.88 142.376 57.784C142.483 57.688 142.621 57.64 142.792 57.64H147.432C148.424 57.64 149.229 57.896 149.848 58.408C150.477 58.9093 150.792 59.624 150.792 60.552C150.792 61.1707 150.632 61.6933 150.312 62.12C149.992 62.536 149.56 62.8347 149.016 63.016ZM144.056 62.344H147.016C147.656 62.344 148.147 62.2 148.488 61.912C148.84 61.6133 149.016 61.1973 149.016 60.664C149.016 60.1413 148.845 59.7467 148.504 59.48C148.163 59.2133 147.672 59.08 147.032 59.08H144.056V62.344ZM147.08 67.56C147.827 67.56 148.392 67.3947 148.776 67.064C149.171 66.7333 149.368 66.2747 149.368 65.688C149.368 65.112 149.165 64.6533 148.76 64.312C148.365 63.96 147.805 63.784 147.08 63.784H144.056V67.56H147.08ZM157.765 61.672C157.765 61.4907 157.813 61.352 157.909 61.256C158.016 61.16 158.155 61.112 158.325 61.112H158.901C159.083 61.112 159.221 61.16 159.317 61.256C159.413 61.352 159.461 61.4907 159.461 61.672V68.44C159.461 68.6107 159.413 68.7493 159.317 68.856C159.221 68.952 159.083 69 158.901 69H158.469C158.299 69 158.16 68.952 158.053 68.856C157.957 68.7493 157.909 68.6107 157.909 68.44V68.072C157.696 68.4347 157.387 68.7227 156.981 68.936C156.576 69.1387 156.096 69.24 155.541 69.24C154.603 69.24 153.904 69.0107 153.445 68.552C152.987 68.0827 152.757 67.464 152.757 66.696V61.672C152.757 61.4907 152.805 61.352 152.901 61.256C153.008 61.16 153.147 61.112 153.317 61.112H153.893C154.075 61.112 154.213 61.16 154.309 61.256C154.405 61.352 154.453 61.4907 154.453 61.672V66.248C154.453 66.7387 154.576 67.1173 154.821 67.384C155.077 67.64 155.445 67.768 155.925 67.768C156.48 67.768 156.923 67.608 157.253 67.288C157.595 66.968 157.765 66.504 157.765 65.896V61.672ZM166.246 61.576C166.342 61.2667 166.55 61.112 166.87 61.112H167.446C167.606 61.112 167.728 61.1493 167.814 61.224C167.899 61.2987 167.942 61.4 167.942 61.528C167.942 61.592 167.926 61.6667 167.894 61.752L165.03 69.976C164.774 70.7227 164.454 71.2507 164.07 71.56C163.696 71.88 163.163 72.04 162.47 72.04C162.15 72.04 161.878 72.0187 161.654 71.976C161.504 71.9653 161.392 71.912 161.318 71.816C161.243 71.7307 161.206 71.624 161.206 71.496C161.206 71.4213 161.211 71.3627 161.222 71.32L161.27 71.112C161.344 70.8133 161.504 70.664 161.75 70.664C161.846 70.664 161.936 70.6693 162.022 70.68C162.107 70.6907 162.192 70.696 162.278 70.696C162.587 70.696 162.843 70.616 163.046 70.456C163.259 70.296 163.435 70.0027 163.574 69.576L163.622 69.448L160.886 61.752C160.854 61.6667 160.838 61.5867 160.838 61.512C160.838 61.384 160.88 61.288 160.965 61.224C161.062 61.1493 161.19 61.112 161.35 61.112H161.958C162.288 61.112 162.502 61.2667 162.598 61.576L163.222 63.448C163.691 64.792 164.091 66.024 164.422 67.144L164.886 65.72C164.96 65.496 165.072 65.144 165.222 64.664C165.371 64.184 165.504 63.7733 165.622 63.432L166.246 61.576ZM176.758 60.872C177.664 60.872 178.358 61.128 178.838 61.64C179.328 62.1413 179.574 62.792 179.574 63.592V68.44C179.574 68.6107 179.526 68.7493 179.43 68.856C179.334 68.952 179.195 69 179.014 69H178.438C178.267 69 178.128 68.952 178.022 68.856C177.926 68.7493 177.878 68.6107 177.878 68.44V64.12C177.878 63.544 177.734 63.1013 177.446 62.792C177.168 62.4827 176.768 62.328 176.246 62.328C175.734 62.328 175.302 62.504 174.95 62.856C174.608 63.208 174.438 63.6507 174.438 64.184V68.44C174.438 68.6107 174.39 68.7493 174.294 68.856C174.198 68.952 174.059 69 173.878 69H173.302C173.131 69 172.992 68.952 172.886 68.856C172.79 68.7493 172.742 68.6107 172.742 68.44V61.672C172.742 61.4907 172.79 61.352 172.886 61.256C172.992 61.16 173.131 61.112 173.302 61.112H173.766C173.947 61.112 174.086 61.16 174.182 61.256C174.278 61.352 174.326 61.4907 174.326 61.672V62.088C174.582 61.6933 174.918 61.3947 175.334 61.192C175.75 60.9787 176.224 60.872 176.758 60.872ZM185.075 69.24C184.296 69.24 183.603 69.064 182.995 68.712C182.398 68.36 181.928 67.8693 181.587 67.24C181.246 66.6 181.075 65.8693 181.075 65.048C181.075 64.2267 181.246 63.5013 181.587 62.872C181.928 62.2427 182.398 61.752 182.995 61.4C183.603 61.048 184.296 60.872 185.075 60.872C185.843 60.872 186.531 61.048 187.139 61.4C187.747 61.752 188.222 62.248 188.563 62.888C188.904 63.5173 189.075 64.2373 189.075 65.048C189.075 65.8693 188.904 66.6 188.563 67.24C188.222 67.8693 187.747 68.36 187.139 68.712C186.531 69.064 185.843 69.24 185.075 69.24ZM185.075 67.816C185.758 67.816 186.307 67.5653 186.723 67.064C187.139 66.552 187.347 65.88 187.347 65.048C187.347 64.2267 187.139 63.5653 186.723 63.064C186.307 62.5627 185.758 62.312 185.075 62.312C184.392 62.312 183.843 62.5627 183.427 63.064C183.011 63.5653 182.803 64.2267 182.803 65.048C182.803 65.88 183.011 66.552 183.427 67.064C183.843 67.5653 184.392 67.816 185.075 67.816ZM199.34 61.592C199.415 61.272 199.623 61.112 199.964 61.112H200.556C200.716 61.112 200.839 61.1493 200.924 61.224C201.02 61.288 201.068 61.3893 201.068 61.528C201.068 61.56 201.058 61.6293 201.036 61.736L199.132 68.52C199.058 68.84 198.85 69 198.508 69H197.468C197.148 69 196.94 68.84 196.844 68.52L196.316 66.664C196.082 65.8427 195.82 64.8133 195.532 63.576L195.452 63.224C195.164 64.5253 194.887 65.6773 194.62 66.68L194.124 68.52C194.05 68.84 193.842 69 193.5 69H192.476C192.156 69 191.948 68.84 191.852 68.52L189.932 61.736C189.911 61.6293 189.9 61.56 189.9 61.528C189.9 61.3893 189.943 61.288 190.028 61.224C190.124 61.1493 190.252 61.112 190.412 61.112H191.036C191.378 61.112 191.586 61.272 191.66 61.592L192.236 63.864C192.46 64.696 192.722 65.8053 193.02 67.192L193.084 67.512C193.394 66.0827 193.682 64.8667 193.948 63.864L194.556 61.592C194.631 61.272 194.839 61.112 195.18 61.112H195.788C196.13 61.112 196.338 61.272 196.412 61.592L197.036 63.864C197.335 64.9733 197.634 66.1893 197.932 67.512C198.156 66.3707 198.434 65.1547 198.764 63.864L199.34 61.592Z" fill="white"/>
<path d="M133 42H210V38H133V42ZM216 48V80H220V48H216ZM210 86H133V90H210V86ZM127 80V48H123V80H127ZM133 86C129.686 86 127 83.3137 127 80H123C123 85.5228 127.477 90 133 90V86ZM216 80C216 83.3137 213.314 86 210 86V90C215.523 90 220 85.5228 220 80H216ZM210 42C213.314 42 216 44.6863 216 48H220C220 42.4772 215.523 38 210 38V42ZM133 38C127.477 38 123 42.4772 123 48H127C127 44.6863 129.686 42 133 42V38Z" fill="#0063FB"/>
</svg>
