<svg width="344" height="166" viewBox="0 0 344 166" fill="none" xmlns="http://www.w3.org/2000/svg">
<path d="M120 48C120 43.5817 123.582 40 128 40H216C220.418 40 224 43.5817 224 48V62C224 66.4183 220.418 70 216 70H128C123.582 70 120 66.4183 120 62V48Z" fill="white"/>
<path fill-rule="evenodd" clip-rule="evenodd" d="M143.25 55.75V60.5C143.25 60.9142 143.586 61.25 144 61.25C144.414 61.25 144.75 60.9142 144.75 60.5V55.75H149.5C149.914 55.75 150.25 55.4142 150.25 55C150.25 54.5858 149.914 54.25 149.5 54.25H144.75V49.5C144.75 49.0858 144.414 48.75 144 48.75C143.586 48.75 143.25 49.0858 143.25 49.5V54.25H138.5C138.086 54.25 137.75 54.5858 137.75 55C137.75 55.4142 138.086 55.75 138.5 55.75H143.25Z" fill="#0063FB"/>
<path d="M167.044 59C166.804 59 166.644 58.888 166.564 58.664L166 57.044H162.232L161.668 58.664C161.588 58.888 161.428 59 161.188 59H160.684C160.564 59 160.468 58.976 160.396 58.928C160.332 58.872 160.3 58.796 160.3 58.7C160.3 58.652 160.312 58.592 160.336 58.52L163.12 50.816C163.2 50.592 163.36 50.48 163.6 50.48H164.668C164.908 50.48 165.068 50.592 165.148 50.816L167.932 58.52C167.956 58.592 167.968 58.652 167.968 58.7C167.968 58.796 167.932 58.872 167.86 58.928C167.796 58.976 167.704 59 167.584 59H167.044ZM165.616 55.904L165.244 54.848C165.236 54.832 165.148 54.58 164.98 54.092C164.556 52.892 164.268 52.036 164.116 51.524C163.884 52.26 163.576 53.172 163.192 54.26L162.988 54.86L162.628 55.904H165.616ZM173.111 50.888C173.111 50.752 173.147 50.648 173.219 50.576C173.299 50.504 173.403 50.468 173.531 50.468H173.963C174.099 50.468 174.203 50.504 174.275 50.576C174.347 50.648 174.383 50.752 174.383 50.888V58.58C174.383 58.708 174.347 58.812 174.275 58.892C174.203 58.964 174.099 59 173.963 59H173.615C173.487 59 173.383 58.964 173.303 58.892C173.231 58.812 173.195 58.708 173.195 58.58V58.16C172.779 58.832 172.127 59.168 171.239 59.168C170.743 59.168 170.295 59.04 169.895 58.784C169.503 58.528 169.195 58.164 168.971 57.692C168.747 57.22 168.635 56.672 168.635 56.048C168.635 55.432 168.747 54.888 168.971 54.416C169.203 53.944 169.519 53.58 169.919 53.324C170.319 53.068 170.767 52.94 171.263 52.94C172.079 52.94 172.695 53.224 173.111 53.792V50.888ZM171.503 58.076C171.991 58.076 172.391 57.896 172.703 57.536C173.015 57.168 173.171 56.672 173.171 56.048C173.171 55.424 173.015 54.932 172.703 54.572C172.391 54.212 171.991 54.032 171.503 54.032C171.031 54.032 170.651 54.216 170.363 54.584C170.075 54.952 169.931 55.44 169.931 56.048C169.931 56.664 170.071 57.156 170.351 57.524C170.639 57.892 171.023 58.076 171.503 58.076ZM180.025 50.888C180.025 50.752 180.061 50.648 180.133 50.576C180.213 50.504 180.317 50.468 180.445 50.468H180.877C181.013 50.468 181.117 50.504 181.189 50.576C181.261 50.648 181.297 50.752 181.297 50.888V58.58C181.297 58.708 181.261 58.812 181.189 58.892C181.117 58.964 181.013 59 180.877 59H180.529C180.401 59 180.297 58.964 180.217 58.892C180.145 58.812 180.109 58.708 180.109 58.58V58.16C179.693 58.832 179.041 59.168 178.153 59.168C177.657 59.168 177.209 59.04 176.809 58.784C176.417 58.528 176.109 58.164 175.885 57.692C175.661 57.22 175.549 56.672 175.549 56.048C175.549 55.432 175.661 54.888 175.885 54.416C176.117 53.944 176.433 53.58 176.833 53.324C177.233 53.068 177.681 52.94 178.177 52.94C178.993 52.94 179.609 53.224 180.025 53.792V50.888ZM178.417 58.076C178.905 58.076 179.305 57.896 179.617 57.536C179.929 57.168 180.085 56.672 180.085 56.048C180.085 55.424 179.929 54.932 179.617 54.572C179.305 54.212 178.905 54.032 178.417 54.032C177.945 54.032 177.565 54.216 177.277 54.584C176.989 54.952 176.845 55.44 176.845 56.048C176.845 56.664 176.985 57.156 177.265 57.524C177.553 57.892 177.937 58.076 178.417 58.076ZM189.215 53.504C189.215 53.368 189.251 53.264 189.323 53.192C189.403 53.12 189.507 53.084 189.635 53.084H190.067C190.203 53.084 190.307 53.12 190.379 53.192C190.451 53.264 190.487 53.368 190.487 53.504V58.58C190.487 58.708 190.451 58.812 190.379 58.892C190.307 58.964 190.203 59 190.067 59H189.743C189.615 59 189.511 58.964 189.431 58.892C189.359 58.812 189.323 58.708 189.323 58.58V58.304C189.163 58.576 188.931 58.792 188.627 58.952C188.323 59.104 187.963 59.18 187.547 59.18C186.843 59.18 186.319 59.008 185.975 58.664C185.631 58.312 185.459 57.848 185.459 57.272V53.504C185.459 53.368 185.495 53.264 185.567 53.192C185.647 53.12 185.751 53.084 185.879 53.084H186.311C186.447 53.084 186.551 53.12 186.623 53.192C186.695 53.264 186.731 53.368 186.731 53.504V56.936C186.731 57.304 186.823 57.588 187.007 57.788C187.199 57.98 187.475 58.076 187.835 58.076C188.251 58.076 188.583 57.956 188.831 57.716C189.087 57.476 189.215 57.128 189.215 56.672V53.504ZM194.231 59.18C193.743 59.18 193.307 59.12 192.923 59C192.547 58.872 192.163 58.652 191.771 58.34C191.651 58.252 191.591 58.152 191.591 58.04C191.591 57.952 191.635 57.856 191.723 57.752L191.903 57.548C191.999 57.436 192.103 57.38 192.215 57.38C192.303 57.38 192.399 57.42 192.503 57.5C192.839 57.748 193.135 57.92 193.391 58.016C193.647 58.104 193.935 58.148 194.255 58.148C194.599 58.148 194.879 58.08 195.095 57.944C195.319 57.8 195.431 57.608 195.431 57.368C195.431 57.184 195.367 57.04 195.239 56.936C195.119 56.824 194.959 56.74 194.759 56.684C194.559 56.62 194.263 56.548 193.871 56.468C193.319 56.348 192.887 56.22 192.575 56.084C192.271 55.94 192.051 55.76 191.915 55.544C191.779 55.328 191.711 55.052 191.711 54.716C191.711 54.372 191.807 54.064 191.999 53.792C192.199 53.52 192.475 53.304 192.827 53.144C193.187 52.984 193.607 52.904 194.087 52.904C194.519 52.904 194.903 52.952 195.239 53.048C195.583 53.144 195.919 53.308 196.247 53.54C196.375 53.636 196.439 53.744 196.439 53.864C196.439 53.944 196.399 54.036 196.319 54.14L196.163 54.332C196.075 54.444 195.967 54.5 195.839 54.5C195.743 54.5 195.651 54.468 195.563 54.404C195.299 54.228 195.055 54.108 194.831 54.044C194.607 53.972 194.355 53.936 194.075 53.936C193.731 53.936 193.455 54.004 193.247 54.14C193.039 54.276 192.935 54.452 192.935 54.668C192.935 54.812 192.983 54.928 193.079 55.016C193.183 55.096 193.327 55.168 193.511 55.232C193.703 55.288 194.003 55.36 194.411 55.448C194.963 55.568 195.399 55.704 195.719 55.856C196.047 56 196.287 56.188 196.439 56.42C196.599 56.644 196.679 56.936 196.679 57.296C196.679 57.856 196.455 58.312 196.007 58.664C195.567 59.008 194.975 59.18 194.231 59.18ZM202.011 57.488C202.115 57.4 202.215 57.356 202.311 57.356C202.407 57.356 202.507 57.408 202.611 57.512L202.779 57.692C202.867 57.796 202.911 57.896 202.911 57.992C202.911 58.096 202.859 58.196 202.755 58.292C202.387 58.612 202.019 58.84 201.651 58.976C201.291 59.112 200.891 59.18 200.451 59.18C199.835 59.18 199.299 59.052 198.843 58.796C198.395 58.54 198.047 58.18 197.799 57.716C197.559 57.244 197.439 56.7 197.439 56.084C197.439 55.476 197.555 54.932 197.787 54.452C198.027 53.964 198.363 53.584 198.795 53.312C199.235 53.04 199.747 52.904 200.331 52.904C201.203 52.904 201.875 53.164 202.347 53.684C202.819 54.196 203.055 54.904 203.055 55.808V55.916C203.047 56.044 203.007 56.144 202.935 56.216C202.863 56.288 202.759 56.324 202.623 56.324H198.687C198.735 56.852 198.907 57.284 199.203 57.62C199.507 57.948 199.931 58.112 200.475 58.112C200.771 58.112 201.031 58.068 201.255 57.98C201.479 57.884 201.731 57.72 202.011 57.488ZM200.307 53.912C199.867 53.912 199.511 54.044 199.239 54.308C198.975 54.564 198.803 54.928 198.723 55.4H201.807C201.775 54.936 201.631 54.572 201.375 54.308C201.119 54.044 200.763 53.912 200.307 53.912ZM206.884 53.024C207.06 53.024 207.24 53.044 207.424 53.084C207.64 53.132 207.748 53.26 207.748 53.468C207.748 53.524 207.744 53.564 207.736 53.588L207.676 53.876C207.628 54.1 207.508 54.212 207.316 54.212L207.208 54.2C207.064 54.176 206.936 54.164 206.824 54.164C206.424 54.164 206.1 54.324 205.852 54.644C205.612 54.956 205.492 55.392 205.492 55.952V58.58C205.492 58.708 205.456 58.812 205.384 58.892C205.312 58.964 205.208 59 205.072 59H204.64C204.512 59 204.408 58.964 204.328 58.892C204.256 58.812 204.22 58.708 204.22 58.58V53.504C204.22 53.368 204.256 53.264 204.328 53.192C204.408 53.12 204.512 53.084 204.64 53.084H204.988C205.124 53.084 205.228 53.12 205.3 53.192C205.372 53.264 205.408 53.368 205.408 53.504V53.972C205.552 53.676 205.748 53.444 205.996 53.276C206.244 53.108 206.54 53.024 206.884 53.024Z" fill="#0063FB"/>
<path d="M128 41H216V39H128V41ZM223 48V62H225V48H223ZM216 69H128V71H216V69ZM121 62V48H119V62H121ZM128 69C124.134 69 121 65.866 121 62H119C119 66.9706 123.029 71 128 71V69ZM223 62C223 65.866 219.866 69 216 69V71C220.971 71 225 66.9706 225 62H223ZM216 41C219.866 41 223 44.134 223 48H225C225 43.0294 220.971 39 216 39V41ZM128 39C123.029 39 119 43.0294 119 48H121C121 44.134 124.134 41 128 41V39Z" fill="#C3CCD9"/>
<path fill-rule="evenodd" clip-rule="evenodd" d="M143.25 111.75V116.5C143.25 116.914 143.586 117.25 144 117.25C144.414 117.25 144.75 116.914 144.75 116.5V111.75H149.5C149.914 111.75 150.25 111.414 150.25 111C150.25 110.586 149.914 110.25 149.5 110.25H144.75V105.5C144.75 105.086 144.414 104.75 144 104.75C143.586 104.75 143.25 105.086 143.25 105.5V110.25H138.5C138.086 110.25 137.75 110.586 137.75 111C137.75 111.414 138.086 111.75 138.5 111.75H143.25Z" fill="#0063FB"/>
<path d="M167.044 115C166.804 115 166.644 114.888 166.564 114.664L166 113.044H162.232L161.668 114.664C161.588 114.888 161.428 115 161.188 115H160.684C160.564 115 160.468 114.976 160.396 114.928C160.332 114.872 160.3 114.796 160.3 114.7C160.3 114.652 160.312 114.592 160.336 114.52L163.12 106.816C163.2 106.592 163.36 106.48 163.6 106.48H164.668C164.908 106.48 165.068 106.592 165.148 106.816L167.932 114.52C167.956 114.592 167.968 114.652 167.968 114.7C167.968 114.796 167.932 114.872 167.86 114.928C167.796 114.976 167.704 115 167.584 115H167.044ZM165.616 111.904L165.244 110.848C165.236 110.832 165.148 110.58 164.98 110.092C164.556 108.892 164.268 108.036 164.116 107.524C163.884 108.26 163.576 109.172 163.192 110.26L162.988 110.86L162.628 111.904H165.616ZM173.111 106.888C173.111 106.752 173.147 106.648 173.219 106.576C173.299 106.504 173.403 106.468 173.531 106.468H173.963C174.099 106.468 174.203 106.504 174.275 106.576C174.347 106.648 174.383 106.752 174.383 106.888V114.58C174.383 114.708 174.347 114.812 174.275 114.892C174.203 114.964 174.099 115 173.963 115H173.615C173.487 115 173.383 114.964 173.303 114.892C173.231 114.812 173.195 114.708 173.195 114.58V114.16C172.779 114.832 172.127 115.168 171.239 115.168C170.743 115.168 170.295 115.04 169.895 114.784C169.503 114.528 169.195 114.164 168.971 113.692C168.747 113.22 168.635 112.672 168.635 112.048C168.635 111.432 168.747 110.888 168.971 110.416C169.203 109.944 169.519 109.58 169.919 109.324C170.319 109.068 170.767 108.94 171.263 108.94C172.079 108.94 172.695 109.224 173.111 109.792V106.888ZM171.503 114.076C171.991 114.076 172.391 113.896 172.703 113.536C173.015 113.168 173.171 112.672 173.171 112.048C173.171 111.424 173.015 110.932 172.703 110.572C172.391 110.212 171.991 110.032 171.503 110.032C171.031 110.032 170.651 110.216 170.363 110.584C170.075 110.952 169.931 111.44 169.931 112.048C169.931 112.664 170.071 113.156 170.351 113.524C170.639 113.892 171.023 114.076 171.503 114.076ZM180.025 106.888C180.025 106.752 180.061 106.648 180.133 106.576C180.213 106.504 180.317 106.468 180.445 106.468H180.877C181.013 106.468 181.117 106.504 181.189 106.576C181.261 106.648 181.297 106.752 181.297 106.888V114.58C181.297 114.708 181.261 114.812 181.189 114.892C181.117 114.964 181.013 115 180.877 115H180.529C180.401 115 180.297 114.964 180.217 114.892C180.145 114.812 180.109 114.708 180.109 114.58V114.16C179.693 114.832 179.041 115.168 178.153 115.168C177.657 115.168 177.209 115.04 176.809 114.784C176.417 114.528 176.109 114.164 175.885 113.692C175.661 113.22 175.549 112.672 175.549 112.048C175.549 111.432 175.661 110.888 175.885 110.416C176.117 109.944 176.433 109.58 176.833 109.324C177.233 109.068 177.681 108.94 178.177 108.94C178.993 108.94 179.609 109.224 180.025 109.792V106.888ZM178.417 114.076C178.905 114.076 179.305 113.896 179.617 113.536C179.929 113.168 180.085 112.672 180.085 112.048C180.085 111.424 179.929 110.932 179.617 110.572C179.305 110.212 178.905 110.032 178.417 110.032C177.945 110.032 177.565 110.216 177.277 110.584C176.989 110.952 176.845 111.44 176.845 112.048C176.845 112.664 176.985 113.156 177.265 113.524C177.553 113.892 177.937 114.076 178.417 114.076ZM189.215 109.504C189.215 109.368 189.251 109.264 189.323 109.192C189.403 109.12 189.507 109.084 189.635 109.084H190.067C190.203 109.084 190.307 109.12 190.379 109.192C190.451 109.264 190.487 109.368 190.487 109.504V114.58C190.487 114.708 190.451 114.812 190.379 114.892C190.307 114.964 190.203 115 190.067 115H189.743C189.615 115 189.511 114.964 189.431 114.892C189.359 114.812 189.323 114.708 189.323 114.58V114.304C189.163 114.576 188.931 114.792 188.627 114.952C188.323 115.104 187.963 115.18 187.547 115.18C186.843 115.18 186.319 115.008 185.975 114.664C185.631 114.312 185.459 113.848 185.459 113.272V109.504C185.459 109.368 185.495 109.264 185.567 109.192C185.647 109.12 185.751 109.084 185.879 109.084H186.311C186.447 109.084 186.551 109.12 186.623 109.192C186.695 109.264 186.731 109.368 186.731 109.504V112.936C186.731 113.304 186.823 113.588 187.007 113.788C187.199 113.98 187.475 114.076 187.835 114.076C188.251 114.076 188.583 113.956 188.831 113.716C189.087 113.476 189.215 113.128 189.215 112.672V109.504ZM194.231 115.18C193.743 115.18 193.307 115.12 192.923 115C192.547 114.872 192.163 114.652 191.771 114.34C191.651 114.252 191.591 114.152 191.591 114.04C191.591 113.952 191.635 113.856 191.723 113.752L191.903 113.548C191.999 113.436 192.103 113.38 192.215 113.38C192.303 113.38 192.399 113.42 192.503 113.5C192.839 113.748 193.135 113.92 193.391 114.016C193.647 114.104 193.935 114.148 194.255 114.148C194.599 114.148 194.879 114.08 195.095 113.944C195.319 113.8 195.431 113.608 195.431 113.368C195.431 113.184 195.367 113.04 195.239 112.936C195.119 112.824 194.959 112.74 194.759 112.684C194.559 112.62 194.263 112.548 193.871 112.468C193.319 112.348 192.887 112.22 192.575 112.084C192.271 111.94 192.051 111.76 191.915 111.544C191.779 111.328 191.711 111.052 191.711 110.716C191.711 110.372 191.807 110.064 191.999 109.792C192.199 109.52 192.475 109.304 192.827 109.144C193.187 108.984 193.607 108.904 194.087 108.904C194.519 108.904 194.903 108.952 195.239 109.048C195.583 109.144 195.919 109.308 196.247 109.54C196.375 109.636 196.439 109.744 196.439 109.864C196.439 109.944 196.399 110.036 196.319 110.14L196.163 110.332C196.075 110.444 195.967 110.5 195.839 110.5C195.743 110.5 195.651 110.468 195.563 110.404C195.299 110.228 195.055 110.108 194.831 110.044C194.607 109.972 194.355 109.936 194.075 109.936C193.731 109.936 193.455 110.004 193.247 110.14C193.039 110.276 192.935 110.452 192.935 110.668C192.935 110.812 192.983 110.928 193.079 111.016C193.183 111.096 193.327 111.168 193.511 111.232C193.703 111.288 194.003 111.36 194.411 111.448C194.963 111.568 195.399 111.704 195.719 111.856C196.047 112 196.287 112.188 196.439 112.42C196.599 112.644 196.679 112.936 196.679 113.296C196.679 113.856 196.455 114.312 196.007 114.664C195.567 115.008 194.975 115.18 194.231 115.18ZM202.011 113.488C202.115 113.4 202.215 113.356 202.311 113.356C202.407 113.356 202.507 113.408 202.611 113.512L202.779 113.692C202.867 113.796 202.911 113.896 202.911 113.992C202.911 114.096 202.859 114.196 202.755 114.292C202.387 114.612 202.019 114.84 201.651 114.976C201.291 115.112 200.891 115.18 200.451 115.18C199.835 115.18 199.299 115.052 198.843 114.796C198.395 114.54 198.047 114.18 197.799 113.716C197.559 113.244 197.439 112.7 197.439 112.084C197.439 111.476 197.555 110.932 197.787 110.452C198.027 109.964 198.363 109.584 198.795 109.312C199.235 109.04 199.747 108.904 200.331 108.904C201.203 108.904 201.875 109.164 202.347 109.684C202.819 110.196 203.055 110.904 203.055 111.808V111.916C203.047 112.044 203.007 112.144 202.935 112.216C202.863 112.288 202.759 112.324 202.623 112.324H198.687C198.735 112.852 198.907 113.284 199.203 113.62C199.507 113.948 199.931 114.112 200.475 114.112C200.771 114.112 201.031 114.068 201.255 113.98C201.479 113.884 201.731 113.72 202.011 113.488ZM200.307 109.912C199.867 109.912 199.511 110.044 199.239 110.308C198.975 110.564 198.803 110.928 198.723 111.4H201.807C201.775 110.936 201.631 110.572 201.375 110.308C201.119 110.044 200.763 109.912 200.307 109.912ZM206.884 109.024C207.06 109.024 207.24 109.044 207.424 109.084C207.64 109.132 207.748 109.26 207.748 109.468C207.748 109.524 207.744 109.564 207.736 109.588L207.676 109.876C207.628 110.1 207.508 110.212 207.316 110.212L207.208 110.2C207.064 110.176 206.936 110.164 206.824 110.164C206.424 110.164 206.1 110.324 205.852 110.644C205.612 110.956 205.492 111.392 205.492 111.952V114.58C205.492 114.708 205.456 114.812 205.384 114.892C205.312 114.964 205.208 115 205.072 115H204.64C204.512 115 204.408 114.964 204.328 114.892C204.256 114.812 204.22 114.708 204.22 114.58V109.504C204.22 109.368 204.256 109.264 204.328 109.192C204.408 109.12 204.512 109.084 204.64 109.084H204.988C205.124 109.084 205.228 109.12 205.3 109.192C205.372 109.264 205.408 109.368 205.408 109.504V109.972C205.552 109.676 205.748 109.444 205.996 109.276C206.244 109.108 206.54 109.024 206.884 109.024Z" fill="#0063FB"/>
</svg>
