<svg width="344" height="192" viewBox="0 0 344 192" fill="none" xmlns="http://www.w3.org/2000/svg">
<path d="M112 48C112 43.5817 115.582 40 120 40H208C212.418 40 216 43.5817 216 48V62C216 66.4183 212.418 70 208 70H120C115.582 70 112 66.4183 112 62V48Z" fill="white"/>
<path fill-rule="evenodd" clip-rule="evenodd" d="M135.25 55.75V60.5C135.25 60.9142 135.586 61.25 136 61.25C136.414 61.25 136.75 60.9142 136.75 60.5V55.75H141.5C141.914 55.75 142.25 55.4142 142.25 55C142.25 54.5858 141.914 54.25 141.5 54.25H136.75V49.5C136.75 49.0858 136.414 48.75 136 48.75C135.586 48.75 135.25 49.0858 135.25 49.5V54.25H130.5C130.086 54.25 129.75 54.5858 129.75 55C129.75 55.4142 130.086 55.75 130.5 55.75H135.25Z" fill="#0063FB"/>
<path d="M159.044 59C158.804 59 158.644 58.888 158.564 58.664L158 57.044H154.232L153.668 58.664C153.588 58.888 153.428 59 153.188 59H152.684C152.564 59 152.468 58.976 152.396 58.928C152.332 58.872 152.3 58.796 152.3 58.7C152.3 58.652 152.312 58.592 152.336 58.52L155.12 50.816C155.2 50.592 155.36 50.48 155.6 50.48H156.668C156.908 50.48 157.068 50.592 157.148 50.816L159.932 58.52C159.956 58.592 159.968 58.652 159.968 58.7C159.968 58.796 159.932 58.872 159.86 58.928C159.796 58.976 159.704 59 159.584 59H159.044ZM157.616 55.904L157.244 54.848C157.236 54.832 157.148 54.58 156.98 54.092C156.556 52.892 156.268 52.036 156.116 51.524C155.884 52.26 155.576 53.172 155.192 54.26L154.988 54.86L154.628 55.904H157.616ZM165.111 50.888C165.111 50.752 165.147 50.648 165.219 50.576C165.299 50.504 165.403 50.468 165.531 50.468H165.963C166.099 50.468 166.203 50.504 166.275 50.576C166.347 50.648 166.383 50.752 166.383 50.888V58.58C166.383 58.708 166.347 58.812 166.275 58.892C166.203 58.964 166.099 59 165.963 59H165.615C165.487 59 165.383 58.964 165.303 58.892C165.231 58.812 165.195 58.708 165.195 58.58V58.16C164.779 58.832 164.127 59.168 163.239 59.168C162.743 59.168 162.295 59.04 161.895 58.784C161.503 58.528 161.195 58.164 160.971 57.692C160.747 57.22 160.635 56.672 160.635 56.048C160.635 55.432 160.747 54.888 160.971 54.416C161.203 53.944 161.519 53.58 161.919 53.324C162.319 53.068 162.767 52.94 163.263 52.94C164.079 52.94 164.695 53.224 165.111 53.792V50.888ZM163.503 58.076C163.991 58.076 164.391 57.896 164.703 57.536C165.015 57.168 165.171 56.672 165.171 56.048C165.171 55.424 165.015 54.932 164.703 54.572C164.391 54.212 163.991 54.032 163.503 54.032C163.031 54.032 162.651 54.216 162.363 54.584C162.075 54.952 161.931 55.44 161.931 56.048C161.931 56.664 162.071 57.156 162.351 57.524C162.639 57.892 163.023 58.076 163.503 58.076ZM172.025 50.888C172.025 50.752 172.061 50.648 172.133 50.576C172.213 50.504 172.317 50.468 172.445 50.468H172.877C173.013 50.468 173.117 50.504 173.189 50.576C173.261 50.648 173.297 50.752 173.297 50.888V58.58C173.297 58.708 173.261 58.812 173.189 58.892C173.117 58.964 173.013 59 172.877 59H172.529C172.401 59 172.297 58.964 172.217 58.892C172.145 58.812 172.109 58.708 172.109 58.58V58.16C171.693 58.832 171.041 59.168 170.153 59.168C169.657 59.168 169.209 59.04 168.809 58.784C168.417 58.528 168.109 58.164 167.885 57.692C167.661 57.22 167.549 56.672 167.549 56.048C167.549 55.432 167.661 54.888 167.885 54.416C168.117 53.944 168.433 53.58 168.833 53.324C169.233 53.068 169.681 52.94 170.177 52.94C170.993 52.94 171.609 53.224 172.025 53.792V50.888ZM170.417 58.076C170.905 58.076 171.305 57.896 171.617 57.536C171.929 57.168 172.085 56.672 172.085 56.048C172.085 55.424 171.929 54.932 171.617 54.572C171.305 54.212 170.905 54.032 170.417 54.032C169.945 54.032 169.565 54.216 169.277 54.584C168.989 54.952 168.845 55.44 168.845 56.048C168.845 56.664 168.985 57.156 169.265 57.524C169.553 57.892 169.937 58.076 170.417 58.076ZM181.215 53.504C181.215 53.368 181.251 53.264 181.323 53.192C181.403 53.12 181.507 53.084 181.635 53.084H182.067C182.203 53.084 182.307 53.12 182.379 53.192C182.451 53.264 182.487 53.368 182.487 53.504V58.58C182.487 58.708 182.451 58.812 182.379 58.892C182.307 58.964 182.203 59 182.067 59H181.743C181.615 59 181.511 58.964 181.431 58.892C181.359 58.812 181.323 58.708 181.323 58.58V58.304C181.163 58.576 180.931 58.792 180.627 58.952C180.323 59.104 179.963 59.18 179.547 59.18C178.843 59.18 178.319 59.008 177.975 58.664C177.631 58.312 177.459 57.848 177.459 57.272V53.504C177.459 53.368 177.495 53.264 177.567 53.192C177.647 53.12 177.751 53.084 177.879 53.084H178.311C178.447 53.084 178.551 53.12 178.623 53.192C178.695 53.264 178.731 53.368 178.731 53.504V56.936C178.731 57.304 178.823 57.588 179.007 57.788C179.199 57.98 179.475 58.076 179.835 58.076C180.251 58.076 180.583 57.956 180.831 57.716C181.087 57.476 181.215 57.128 181.215 56.672V53.504ZM186.231 59.18C185.743 59.18 185.307 59.12 184.923 59C184.547 58.872 184.163 58.652 183.771 58.34C183.651 58.252 183.591 58.152 183.591 58.04C183.591 57.952 183.635 57.856 183.723 57.752L183.903 57.548C183.999 57.436 184.103 57.38 184.215 57.38C184.303 57.38 184.399 57.42 184.503 57.5C184.839 57.748 185.135 57.92 185.391 58.016C185.647 58.104 185.935 58.148 186.255 58.148C186.599 58.148 186.879 58.08 187.095 57.944C187.319 57.8 187.431 57.608 187.431 57.368C187.431 57.184 187.367 57.04 187.239 56.936C187.119 56.824 186.959 56.74 186.759 56.684C186.559 56.62 186.263 56.548 185.871 56.468C185.319 56.348 184.887 56.22 184.575 56.084C184.271 55.94 184.051 55.76 183.915 55.544C183.779 55.328 183.711 55.052 183.711 54.716C183.711 54.372 183.807 54.064 183.999 53.792C184.199 53.52 184.475 53.304 184.827 53.144C185.187 52.984 185.607 52.904 186.087 52.904C186.519 52.904 186.903 52.952 187.239 53.048C187.583 53.144 187.919 53.308 188.247 53.54C188.375 53.636 188.439 53.744 188.439 53.864C188.439 53.944 188.399 54.036 188.319 54.14L188.163 54.332C188.075 54.444 187.967 54.5 187.839 54.5C187.743 54.5 187.651 54.468 187.563 54.404C187.299 54.228 187.055 54.108 186.831 54.044C186.607 53.972 186.355 53.936 186.075 53.936C185.731 53.936 185.455 54.004 185.247 54.14C185.039 54.276 184.935 54.452 184.935 54.668C184.935 54.812 184.983 54.928 185.079 55.016C185.183 55.096 185.327 55.168 185.511 55.232C185.703 55.288 186.003 55.36 186.411 55.448C186.963 55.568 187.399 55.704 187.719 55.856C188.047 56 188.287 56.188 188.439 56.42C188.599 56.644 188.679 56.936 188.679 57.296C188.679 57.856 188.455 58.312 188.007 58.664C187.567 59.008 186.975 59.18 186.231 59.18ZM194.011 57.488C194.115 57.4 194.215 57.356 194.311 57.356C194.407 57.356 194.507 57.408 194.611 57.512L194.779 57.692C194.867 57.796 194.911 57.896 194.911 57.992C194.911 58.096 194.859 58.196 194.755 58.292C194.387 58.612 194.019 58.84 193.651 58.976C193.291 59.112 192.891 59.18 192.451 59.18C191.835 59.18 191.299 59.052 190.843 58.796C190.395 58.54 190.047 58.18 189.799 57.716C189.559 57.244 189.439 56.7 189.439 56.084C189.439 55.476 189.555 54.932 189.787 54.452C190.027 53.964 190.363 53.584 190.795 53.312C191.235 53.04 191.747 52.904 192.331 52.904C193.203 52.904 193.875 53.164 194.347 53.684C194.819 54.196 195.055 54.904 195.055 55.808V55.916C195.047 56.044 195.007 56.144 194.935 56.216C194.863 56.288 194.759 56.324 194.623 56.324H190.687C190.735 56.852 190.907 57.284 191.203 57.62C191.507 57.948 191.931 58.112 192.475 58.112C192.771 58.112 193.031 58.068 193.255 57.98C193.479 57.884 193.731 57.72 194.011 57.488ZM192.307 53.912C191.867 53.912 191.511 54.044 191.239 54.308C190.975 54.564 190.803 54.928 190.723 55.4H193.807C193.775 54.936 193.631 54.572 193.375 54.308C193.119 54.044 192.763 53.912 192.307 53.912ZM198.884 53.024C199.06 53.024 199.24 53.044 199.424 53.084C199.64 53.132 199.748 53.26 199.748 53.468C199.748 53.524 199.744 53.564 199.736 53.588L199.676 53.876C199.628 54.1 199.508 54.212 199.316 54.212L199.208 54.2C199.064 54.176 198.936 54.164 198.824 54.164C198.424 54.164 198.1 54.324 197.852 54.644C197.612 54.956 197.492 55.392 197.492 55.952V58.58C197.492 58.708 197.456 58.812 197.384 58.892C197.312 58.964 197.208 59 197.072 59H196.64C196.512 59 196.408 58.964 196.328 58.892C196.256 58.812 196.22 58.708 196.22 58.58V53.504C196.22 53.368 196.256 53.264 196.328 53.192C196.408 53.12 196.512 53.084 196.64 53.084H196.988C197.124 53.084 197.228 53.12 197.3 53.192C197.372 53.264 197.408 53.368 197.408 53.504V53.972C197.552 53.676 197.748 53.444 197.996 53.276C198.244 53.108 198.54 53.024 198.884 53.024Z" fill="#0063FB"/>
<path d="M120 41H208V39H120V41ZM215 48V62H217V48H215ZM208 69H120V71H208V69ZM113 62V48H111V62H113ZM120 69C116.134 69 113 65.866 113 62H111C111 66.9706 115.029 71 120 71V69ZM215 62C215 65.866 211.866 69 208 69V71C212.971 71 217 66.9706 217 62H215ZM208 41C211.866 41 215 44.134 215 48H217C217 43.0294 212.971 39 208 39V41ZM120 39C115.029 39 111 43.0294 111 48H113C113 44.134 116.134 41 120 41V39Z" fill="#C3CCD9"/>
<path fill-rule="evenodd" clip-rule="evenodd" d="M135.25 109.75V114.5C135.25 114.914 135.586 115.25 136 115.25C136.414 115.25 136.75 114.914 136.75 114.5V109.75H141.5C141.914 109.75 142.25 109.414 142.25 109C142.25 108.586 141.914 108.25 141.5 108.25H136.75V103.5C136.75 103.086 136.414 102.75 136 102.75C135.586 102.75 135.25 103.086 135.25 103.5V108.25H130.5C130.086 108.25 129.75 108.586 129.75 109C129.75 109.414 130.086 109.75 130.5 109.75H135.25Z" fill="#0063FB"/>
<path d="M159.044 113C158.804 113 158.644 112.888 158.564 112.664L158 111.044H154.232L153.668 112.664C153.588 112.888 153.428 113 153.188 113H152.684C152.564 113 152.468 112.976 152.396 112.928C152.332 112.872 152.3 112.796 152.3 112.7C152.3 112.652 152.312 112.592 152.336 112.52L155.12 104.816C155.2 104.592 155.36 104.48 155.6 104.48H156.668C156.908 104.48 157.068 104.592 157.148 104.816L159.932 112.52C159.956 112.592 159.968 112.652 159.968 112.7C159.968 112.796 159.932 112.872 159.86 112.928C159.796 112.976 159.704 113 159.584 113H159.044ZM157.616 109.904L157.244 108.848C157.236 108.832 157.148 108.58 156.98 108.092C156.556 106.892 156.268 106.036 156.116 105.524C155.884 106.26 155.576 107.172 155.192 108.26L154.988 108.86L154.628 109.904H157.616ZM165.111 104.888C165.111 104.752 165.147 104.648 165.219 104.576C165.299 104.504 165.403 104.468 165.531 104.468H165.963C166.099 104.468 166.203 104.504 166.275 104.576C166.347 104.648 166.383 104.752 166.383 104.888V112.58C166.383 112.708 166.347 112.812 166.275 112.892C166.203 112.964 166.099 113 165.963 113H165.615C165.487 113 165.383 112.964 165.303 112.892C165.231 112.812 165.195 112.708 165.195 112.58V112.16C164.779 112.832 164.127 113.168 163.239 113.168C162.743 113.168 162.295 113.04 161.895 112.784C161.503 112.528 161.195 112.164 160.971 111.692C160.747 111.22 160.635 110.672 160.635 110.048C160.635 109.432 160.747 108.888 160.971 108.416C161.203 107.944 161.519 107.58 161.919 107.324C162.319 107.068 162.767 106.94 163.263 106.94C164.079 106.94 164.695 107.224 165.111 107.792V104.888ZM163.503 112.076C163.991 112.076 164.391 111.896 164.703 111.536C165.015 111.168 165.171 110.672 165.171 110.048C165.171 109.424 165.015 108.932 164.703 108.572C164.391 108.212 163.991 108.032 163.503 108.032C163.031 108.032 162.651 108.216 162.363 108.584C162.075 108.952 161.931 109.44 161.931 110.048C161.931 110.664 162.071 111.156 162.351 111.524C162.639 111.892 163.023 112.076 163.503 112.076ZM172.025 104.888C172.025 104.752 172.061 104.648 172.133 104.576C172.213 104.504 172.317 104.468 172.445 104.468H172.877C173.013 104.468 173.117 104.504 173.189 104.576C173.261 104.648 173.297 104.752 173.297 104.888V112.58C173.297 112.708 173.261 112.812 173.189 112.892C173.117 112.964 173.013 113 172.877 113H172.529C172.401 113 172.297 112.964 172.217 112.892C172.145 112.812 172.109 112.708 172.109 112.58V112.16C171.693 112.832 171.041 113.168 170.153 113.168C169.657 113.168 169.209 113.04 168.809 112.784C168.417 112.528 168.109 112.164 167.885 111.692C167.661 111.22 167.549 110.672 167.549 110.048C167.549 109.432 167.661 108.888 167.885 108.416C168.117 107.944 168.433 107.58 168.833 107.324C169.233 107.068 169.681 106.94 170.177 106.94C170.993 106.94 171.609 107.224 172.025 107.792V104.888ZM170.417 112.076C170.905 112.076 171.305 111.896 171.617 111.536C171.929 111.168 172.085 110.672 172.085 110.048C172.085 109.424 171.929 108.932 171.617 108.572C171.305 108.212 170.905 108.032 170.417 108.032C169.945 108.032 169.565 108.216 169.277 108.584C168.989 108.952 168.845 109.44 168.845 110.048C168.845 110.664 168.985 111.156 169.265 111.524C169.553 111.892 169.937 112.076 170.417 112.076ZM181.215 107.504C181.215 107.368 181.251 107.264 181.323 107.192C181.403 107.12 181.507 107.084 181.635 107.084H182.067C182.203 107.084 182.307 107.12 182.379 107.192C182.451 107.264 182.487 107.368 182.487 107.504V112.58C182.487 112.708 182.451 112.812 182.379 112.892C182.307 112.964 182.203 113 182.067 113H181.743C181.615 113 181.511 112.964 181.431 112.892C181.359 112.812 181.323 112.708 181.323 112.58V112.304C181.163 112.576 180.931 112.792 180.627 112.952C180.323 113.104 179.963 113.18 179.547 113.18C178.843 113.18 178.319 113.008 177.975 112.664C177.631 112.312 177.459 111.848 177.459 111.272V107.504C177.459 107.368 177.495 107.264 177.567 107.192C177.647 107.12 177.751 107.084 177.879 107.084H178.311C178.447 107.084 178.551 107.12 178.623 107.192C178.695 107.264 178.731 107.368 178.731 107.504V110.936C178.731 111.304 178.823 111.588 179.007 111.788C179.199 111.98 179.475 112.076 179.835 112.076C180.251 112.076 180.583 111.956 180.831 111.716C181.087 111.476 181.215 111.128 181.215 110.672V107.504ZM186.231 113.18C185.743 113.18 185.307 113.12 184.923 113C184.547 112.872 184.163 112.652 183.771 112.34C183.651 112.252 183.591 112.152 183.591 112.04C183.591 111.952 183.635 111.856 183.723 111.752L183.903 111.548C183.999 111.436 184.103 111.38 184.215 111.38C184.303 111.38 184.399 111.42 184.503 111.5C184.839 111.748 185.135 111.92 185.391 112.016C185.647 112.104 185.935 112.148 186.255 112.148C186.599 112.148 186.879 112.08 187.095 111.944C187.319 111.8 187.431 111.608 187.431 111.368C187.431 111.184 187.367 111.04 187.239 110.936C187.119 110.824 186.959 110.74 186.759 110.684C186.559 110.62 186.263 110.548 185.871 110.468C185.319 110.348 184.887 110.22 184.575 110.084C184.271 109.94 184.051 109.76 183.915 109.544C183.779 109.328 183.711 109.052 183.711 108.716C183.711 108.372 183.807 108.064 183.999 107.792C184.199 107.52 184.475 107.304 184.827 107.144C185.187 106.984 185.607 106.904 186.087 106.904C186.519 106.904 186.903 106.952 187.239 107.048C187.583 107.144 187.919 107.308 188.247 107.54C188.375 107.636 188.439 107.744 188.439 107.864C188.439 107.944 188.399 108.036 188.319 108.14L188.163 108.332C188.075 108.444 187.967 108.5 187.839 108.5C187.743 108.5 187.651 108.468 187.563 108.404C187.299 108.228 187.055 108.108 186.831 108.044C186.607 107.972 186.355 107.936 186.075 107.936C185.731 107.936 185.455 108.004 185.247 108.14C185.039 108.276 184.935 108.452 184.935 108.668C184.935 108.812 184.983 108.928 185.079 109.016C185.183 109.096 185.327 109.168 185.511 109.232C185.703 109.288 186.003 109.36 186.411 109.448C186.963 109.568 187.399 109.704 187.719 109.856C188.047 110 188.287 110.188 188.439 110.42C188.599 110.644 188.679 110.936 188.679 111.296C188.679 111.856 188.455 112.312 188.007 112.664C187.567 113.008 186.975 113.18 186.231 113.18ZM194.011 111.488C194.115 111.4 194.215 111.356 194.311 111.356C194.407 111.356 194.507 111.408 194.611 111.512L194.779 111.692C194.867 111.796 194.911 111.896 194.911 111.992C194.911 112.096 194.859 112.196 194.755 112.292C194.387 112.612 194.019 112.84 193.651 112.976C193.291 113.112 192.891 113.18 192.451 113.18C191.835 113.18 191.299 113.052 190.843 112.796C190.395 112.54 190.047 112.18 189.799 111.716C189.559 111.244 189.439 110.7 189.439 110.084C189.439 109.476 189.555 108.932 189.787 108.452C190.027 107.964 190.363 107.584 190.795 107.312C191.235 107.04 191.747 106.904 192.331 106.904C193.203 106.904 193.875 107.164 194.347 107.684C194.819 108.196 195.055 108.904 195.055 109.808V109.916C195.047 110.044 195.007 110.144 194.935 110.216C194.863 110.288 194.759 110.324 194.623 110.324H190.687C190.735 110.852 190.907 111.284 191.203 111.62C191.507 111.948 191.931 112.112 192.475 112.112C192.771 112.112 193.031 112.068 193.255 111.98C193.479 111.884 193.731 111.72 194.011 111.488ZM192.307 107.912C191.867 107.912 191.511 108.044 191.239 108.308C190.975 108.564 190.803 108.928 190.723 109.4H193.807C193.775 108.936 193.631 108.572 193.375 108.308C193.119 108.044 192.763 107.912 192.307 107.912ZM198.884 107.024C199.06 107.024 199.24 107.044 199.424 107.084C199.64 107.132 199.748 107.26 199.748 107.468C199.748 107.524 199.744 107.564 199.736 107.588L199.676 107.876C199.628 108.1 199.508 108.212 199.316 108.212L199.208 108.2C199.064 108.176 198.936 108.164 198.824 108.164C198.424 108.164 198.1 108.324 197.852 108.644C197.612 108.956 197.492 109.392 197.492 109.952V112.58C197.492 112.708 197.456 112.812 197.384 112.892C197.312 112.964 197.208 113 197.072 113H196.64C196.512 113 196.408 112.964 196.328 112.892C196.256 112.812 196.22 112.708 196.22 112.58V107.504C196.22 107.368 196.256 107.264 196.328 107.192C196.408 107.12 196.512 107.084 196.64 107.084H196.988C197.124 107.084 197.228 107.12 197.3 107.192C197.372 107.264 197.408 107.368 197.408 107.504V107.972C197.552 107.676 197.748 107.444 197.996 107.276C198.244 107.108 198.54 107.024 198.884 107.024Z" fill="#0063FB"/>
</svg>
