<svg width="344" height="128" viewBox="0 0 344 128" fill="none" xmlns="http://www.w3.org/2000/svg">
<path d="M135 48C135 43.5817 138.582 40 143 40H202C206.418 40 210 43.5817 210 48V80C210 84.4183 206.418 88 202 88H143C138.582 88 135 84.4183 135 80V48Z" fill="#0063FB"/>
<path d="M160.392 69C160.072 69 159.859 68.8507 159.752 68.552L159 66.392H153.976L153.224 68.552C153.117 68.8507 152.904 69 152.584 69H151.912C151.752 69 151.624 68.968 151.528 68.904C151.443 68.8293 151.4 68.728 151.4 68.6C151.4 68.536 151.416 68.456 151.448 68.36L155.16 58.088C155.267 57.7893 155.48 57.64 155.8 57.64H157.224C157.544 57.64 157.757 57.7893 157.864 58.088L161.576 68.36C161.608 68.456 161.624 68.536 161.624 68.6C161.624 68.728 161.576 68.8293 161.48 68.904C161.395 68.968 161.272 69 161.112 69H160.392ZM158.488 64.872L157.992 63.464C157.981 63.4427 157.864 63.1067 157.64 62.456C157.075 60.856 156.691 59.7147 156.488 59.032C156.179 60.0133 155.768 61.2293 155.256 62.68L154.984 63.48L154.504 64.872H158.488ZM168.481 61.624C168.481 61.464 168.529 61.3413 168.625 61.256C168.732 61.16 168.87 61.112 169.041 61.112H169.489C169.67 61.112 169.809 61.16 169.905 61.256C170.001 61.352 170.049 61.4907 170.049 61.672V68.712C170.049 69.768 169.708 70.5893 169.025 71.176C168.353 71.7627 167.457 72.056 166.337 72.056C165.217 72.056 164.161 71.768 163.169 71.192C162.966 71.0853 162.865 70.9413 162.865 70.76C162.865 70.664 162.908 70.5467 162.993 70.408L163.201 70.104C163.318 69.9227 163.462 69.832 163.633 69.832C163.75 69.832 163.868 69.8693 163.985 69.944C164.412 70.1893 164.806 70.3653 165.169 70.472C165.532 70.5893 165.916 70.648 166.321 70.648C166.94 70.648 167.436 70.4773 167.809 70.136C168.193 69.8053 168.385 69.2827 168.385 68.568V67.72C167.852 68.4773 167.052 68.856 165.985 68.856C165.324 68.856 164.726 68.6907 164.193 68.36C163.67 68.0187 163.26 67.5493 162.961 66.952C162.673 66.344 162.529 65.6507 162.529 64.872C162.529 64.0933 162.673 63.4053 162.961 62.808C163.26 62.2 163.67 61.7253 164.193 61.384C164.726 61.0427 165.324 60.872 165.985 60.872C167.116 60.872 167.948 61.2933 168.481 62.136V61.624ZM166.321 67.432C166.94 67.432 167.446 67.1973 167.841 66.728C168.236 66.248 168.433 65.6293 168.433 64.872C168.433 64.1253 168.236 63.5173 167.841 63.048C167.457 62.568 166.95 62.328 166.321 62.328C165.681 62.328 165.174 62.5627 164.801 63.032C164.428 63.5013 164.241 64.1147 164.241 64.872C164.241 65.64 164.428 66.2587 164.801 66.728C165.174 67.1973 165.681 67.432 166.321 67.432ZM175.559 61.032C175.794 61.032 176.034 61.0587 176.279 61.112C176.567 61.176 176.711 61.3467 176.711 61.624C176.711 61.6987 176.706 61.752 176.695 61.784L176.615 62.168C176.551 62.4667 176.391 62.616 176.135 62.616L175.991 62.6C175.799 62.568 175.629 62.552 175.479 62.552C174.946 62.552 174.514 62.7653 174.183 63.192C173.863 63.608 173.703 64.1893 173.703 64.936V68.44C173.703 68.6107 173.655 68.7493 173.559 68.856C173.463 68.952 173.325 69 173.143 69H172.567C172.397 69 172.258 68.952 172.151 68.856C172.055 68.7493 172.007 68.6107 172.007 68.44V61.672C172.007 61.4907 172.055 61.352 172.151 61.256C172.258 61.16 172.397 61.112 172.567 61.112H173.031C173.213 61.112 173.351 61.16 173.447 61.256C173.543 61.352 173.591 61.4907 173.591 61.672V62.296C173.783 61.9013 174.045 61.592 174.375 61.368C174.706 61.144 175.101 61.032 175.559 61.032ZM183.218 66.984C183.356 66.8667 183.49 66.808 183.618 66.808C183.746 66.808 183.879 66.8773 184.018 67.016L184.242 67.256C184.359 67.3947 184.418 67.528 184.418 67.656C184.418 67.7947 184.348 67.928 184.21 68.056C183.719 68.4827 183.228 68.7867 182.738 68.968C182.258 69.1493 181.724 69.24 181.138 69.24C180.316 69.24 179.602 69.0693 178.994 68.728C178.396 68.3867 177.932 67.9067 177.602 67.288C177.282 66.6587 177.122 65.9333 177.122 65.112C177.122 64.3013 177.276 63.576 177.586 62.936C177.906 62.2853 178.354 61.7787 178.93 61.416C179.516 61.0533 180.199 60.872 180.978 60.872C182.14 60.872 183.036 61.2187 183.666 61.912C184.295 62.5947 184.61 63.5387 184.61 64.744V64.888C184.599 65.0587 184.546 65.192 184.45 65.288C184.354 65.384 184.215 65.432 184.034 65.432H178.786C178.85 66.136 179.079 66.712 179.474 67.16C179.879 67.5973 180.444 67.816 181.17 67.816C181.564 67.816 181.911 67.7573 182.21 67.64C182.508 67.512 182.844 67.2933 183.218 66.984ZM180.946 62.216C180.359 62.216 179.884 62.392 179.522 62.744C179.17 63.0853 178.94 63.5707 178.834 64.2H182.946C182.903 63.5813 182.711 63.096 182.37 62.744C182.028 62.392 181.554 62.216 180.946 62.216ZM191.843 66.984C191.981 66.8667 192.115 66.808 192.243 66.808C192.371 66.808 192.504 66.8773 192.643 67.016L192.867 67.256C192.984 67.3947 193.043 67.528 193.043 67.656C193.043 67.7947 192.973 67.928 192.835 68.056C192.344 68.4827 191.853 68.7867 191.363 68.968C190.883 69.1493 190.349 69.24 189.763 69.24C188.941 69.24 188.227 69.0693 187.619 68.728C187.021 68.3867 186.557 67.9067 186.227 67.288C185.907 66.6587 185.747 65.9333 185.747 65.112C185.747 64.3013 185.901 63.576 186.211 62.936C186.531 62.2853 186.979 61.7787 187.555 61.416C188.141 61.0533 188.824 60.872 189.603 60.872C190.765 60.872 191.661 61.2187 192.291 61.912C192.92 62.5947 193.235 63.5387 193.235 64.744V64.888C193.224 65.0587 193.171 65.192 193.075 65.288C192.979 65.384 192.84 65.432 192.659 65.432H187.411C187.475 66.136 187.704 66.712 188.099 67.16C188.504 67.5973 189.069 67.816 189.795 67.816C190.189 67.816 190.536 67.7573 190.835 67.64C191.133 67.512 191.469 67.2933 191.843 66.984ZM189.571 62.216C188.984 62.216 188.509 62.392 188.147 62.744C187.795 63.0853 187.565 63.5707 187.459 64.2H191.571C191.528 63.5813 191.336 63.096 190.995 62.744C190.653 62.392 190.179 62.216 189.571 62.216Z" fill="white"/>
<path d="M143 42H202V38H143V42ZM208 48V80H212V48H208ZM202 86H143V90H202V86ZM137 80V48H133V80H137ZM143 86C139.686 86 137 83.3137 137 80H133C133 85.5228 137.477 90 143 90V86ZM208 80C208 83.3137 205.314 86 202 86V90C207.523 90 212 85.5228 212 80H208ZM202 42C205.314 42 208 44.6863 208 48H212C212 42.4772 207.523 38 202 38V42ZM143 38C137.477 38 133 42.4772 133 48H137C137 44.6863 139.686 42 143 42V38Z" fill="#0063FB"/>
</svg>
