<svg width="344" height="128" viewBox="0 0 344 128" fill="none" xmlns="http://www.w3.org/2000/svg">
<path d="M125 48C125 43.5817 128.582 40 133 40H192C196.418 40 200 43.5817 200 48V80C200 84.4183 196.418 88 192 88H133C128.582 88 125 84.4183 125 80V48Z" fill="#0063FB"/>
<path d="M150.392 69C150.072 69 149.859 68.8507 149.752 68.552L149 66.392H143.976L143.224 68.552C143.117 68.8507 142.904 69 142.584 69H141.912C141.752 69 141.624 68.968 141.528 68.904C141.443 68.8293 141.4 68.728 141.4 68.6C141.4 68.536 141.416 68.456 141.448 68.36L145.16 58.088C145.267 57.7893 145.48 57.64 145.8 57.64H147.224C147.544 57.64 147.757 57.7893 147.864 58.088L151.576 68.36C151.608 68.456 151.624 68.536 151.624 68.6C151.624 68.728 151.576 68.8293 151.48 68.904C151.395 68.968 151.272 69 151.112 69H150.392ZM148.488 64.872L147.992 63.464C147.981 63.4427 147.864 63.1067 147.64 62.456C147.075 60.856 146.691 59.7147 146.488 59.032C146.179 60.0133 145.768 61.2293 145.256 62.68L144.984 63.48L144.504 64.872H148.488ZM158.481 61.624C158.481 61.464 158.529 61.3413 158.625 61.256C158.732 61.16 158.87 61.112 159.041 61.112H159.489C159.67 61.112 159.809 61.16 159.905 61.256C160.001 61.352 160.049 61.4907 160.049 61.672V68.712C160.049 69.768 159.708 70.5893 159.025 71.176C158.353 71.7627 157.457 72.056 156.337 72.056C155.217 72.056 154.161 71.768 153.169 71.192C152.966 71.0853 152.865 70.9413 152.865 70.76C152.865 70.664 152.908 70.5467 152.993 70.408L153.201 70.104C153.318 69.9227 153.462 69.832 153.633 69.832C153.75 69.832 153.868 69.8693 153.985 69.944C154.412 70.1893 154.806 70.3653 155.169 70.472C155.532 70.5893 155.916 70.648 156.321 70.648C156.94 70.648 157.436 70.4773 157.809 70.136C158.193 69.8053 158.385 69.2827 158.385 68.568V67.72C157.852 68.4773 157.052 68.856 155.985 68.856C155.324 68.856 154.726 68.6907 154.193 68.36C153.67 68.0187 153.26 67.5493 152.961 66.952C152.673 66.344 152.529 65.6507 152.529 64.872C152.529 64.0933 152.673 63.4053 152.961 62.808C153.26 62.2 153.67 61.7253 154.193 61.384C154.726 61.0427 155.324 60.872 155.985 60.872C157.116 60.872 157.948 61.2933 158.481 62.136V61.624ZM156.321 67.432C156.94 67.432 157.446 67.1973 157.841 66.728C158.236 66.248 158.433 65.6293 158.433 64.872C158.433 64.1253 158.236 63.5173 157.841 63.048C157.457 62.568 156.95 62.328 156.321 62.328C155.681 62.328 155.174 62.5627 154.801 63.032C154.428 63.5013 154.241 64.1147 154.241 64.872C154.241 65.64 154.428 66.2587 154.801 66.728C155.174 67.1973 155.681 67.432 156.321 67.432ZM165.559 61.032C165.794 61.032 166.034 61.0587 166.279 61.112C166.567 61.176 166.711 61.3467 166.711 61.624C166.711 61.6987 166.706 61.752 166.695 61.784L166.615 62.168C166.551 62.4667 166.391 62.616 166.135 62.616L165.991 62.6C165.799 62.568 165.629 62.552 165.479 62.552C164.946 62.552 164.514 62.7653 164.183 63.192C163.863 63.608 163.703 64.1893 163.703 64.936V68.44C163.703 68.6107 163.655 68.7493 163.559 68.856C163.463 68.952 163.325 69 163.143 69H162.567C162.397 69 162.258 68.952 162.151 68.856C162.055 68.7493 162.007 68.6107 162.007 68.44V61.672C162.007 61.4907 162.055 61.352 162.151 61.256C162.258 61.16 162.397 61.112 162.567 61.112H163.031C163.213 61.112 163.351 61.16 163.447 61.256C163.543 61.352 163.591 61.4907 163.591 61.672V62.296C163.783 61.9013 164.045 61.592 164.375 61.368C164.706 61.144 165.101 61.032 165.559 61.032ZM173.218 66.984C173.356 66.8667 173.49 66.808 173.618 66.808C173.746 66.808 173.879 66.8773 174.018 67.016L174.242 67.256C174.359 67.3947 174.418 67.528 174.418 67.656C174.418 67.7947 174.348 67.928 174.21 68.056C173.719 68.4827 173.228 68.7867 172.738 68.968C172.258 69.1493 171.724 69.24 171.138 69.24C170.316 69.24 169.602 69.0693 168.994 68.728C168.396 68.3867 167.932 67.9067 167.602 67.288C167.282 66.6587 167.122 65.9333 167.122 65.112C167.122 64.3013 167.276 63.576 167.586 62.936C167.906 62.2853 168.354 61.7787 168.93 61.416C169.516 61.0533 170.199 60.872 170.978 60.872C172.14 60.872 173.036 61.2187 173.666 61.912C174.295 62.5947 174.61 63.5387 174.61 64.744V64.888C174.599 65.0587 174.546 65.192 174.45 65.288C174.354 65.384 174.215 65.432 174.034 65.432H168.786C168.85 66.136 169.079 66.712 169.474 67.16C169.879 67.5973 170.444 67.816 171.17 67.816C171.564 67.816 171.911 67.7573 172.21 67.64C172.508 67.512 172.844 67.2933 173.218 66.984ZM170.946 62.216C170.359 62.216 169.884 62.392 169.522 62.744C169.17 63.0853 168.94 63.5707 168.834 64.2H172.946C172.903 63.5813 172.711 63.096 172.37 62.744C172.028 62.392 171.554 62.216 170.946 62.216ZM181.843 66.984C181.981 66.8667 182.115 66.808 182.243 66.808C182.371 66.808 182.504 66.8773 182.643 67.016L182.867 67.256C182.984 67.3947 183.043 67.528 183.043 67.656C183.043 67.7947 182.973 67.928 182.835 68.056C182.344 68.4827 181.853 68.7867 181.363 68.968C180.883 69.1493 180.349 69.24 179.763 69.24C178.941 69.24 178.227 69.0693 177.619 68.728C177.021 68.3867 176.557 67.9067 176.227 67.288C175.907 66.6587 175.747 65.9333 175.747 65.112C175.747 64.3013 175.901 63.576 176.211 62.936C176.531 62.2853 176.979 61.7787 177.555 61.416C178.141 61.0533 178.824 60.872 179.603 60.872C180.765 60.872 181.661 61.2187 182.291 61.912C182.92 62.5947 183.235 63.5387 183.235 64.744V64.888C183.224 65.0587 183.171 65.192 183.075 65.288C182.979 65.384 182.84 65.432 182.659 65.432H177.411C177.475 66.136 177.704 66.712 178.099 67.16C178.504 67.5973 179.069 67.816 179.795 67.816C180.189 67.816 180.536 67.7573 180.835 67.64C181.133 67.512 181.469 67.2933 181.843 66.984ZM179.571 62.216C178.984 62.216 178.509 62.392 178.147 62.744C177.795 63.0853 177.565 63.5707 177.459 64.2H181.571C181.528 63.5813 181.336 63.096 180.995 62.744C180.653 62.392 180.179 62.216 179.571 62.216Z" fill="white"/>
<path d="M133 42H192V38H133V42ZM198 48V80H202V48H198ZM192 86H133V90H192V86ZM127 80V48H123V80H127ZM133 86C129.686 86 127 83.3137 127 80H123C123 85.5228 127.477 90 133 90V86ZM198 80C198 83.3137 195.314 86 192 86V90C197.523 90 202 85.5228 202 80H198ZM192 42C195.314 42 198 44.6863 198 48H202C202 42.4772 197.523 38 192 38V42ZM133 38C127.477 38 123 42.4772 123 48H127C127 44.6863 129.686 42 133 42V38Z" fill="#0063FB"/>
</svg>
