<svg width="344" height="200" viewBox="0 0 344 200" fill="none" xmlns="http://www.w3.org/2000/svg">
<path d="M125 48C125 43.5817 128.582 40 133 40H210C214.418 40 218 43.5817 218 48V80C218 84.4183 214.418 88 210 88H133C128.582 88 125 84.4183 125 80V48Z" fill="#0063FB"/>
<path d="M149.016 63.016C149.699 63.2187 150.232 63.5547 150.616 64.024C151 64.4933 151.192 65.0853 151.192 65.8C151.192 66.792 150.872 67.576 150.232 68.152C149.603 68.7173 148.755 69 147.688 69H142.792C142.621 69 142.483 68.952 142.376 68.856C142.28 68.7493 142.232 68.6107 142.232 68.44V58.2C142.232 58.0187 142.28 57.88 142.376 57.784C142.483 57.688 142.621 57.64 142.792 57.64H147.432C148.424 57.64 149.229 57.896 149.848 58.408C150.477 58.9093 150.792 59.624 150.792 60.552C150.792 61.1707 150.632 61.6933 150.312 62.12C149.992 62.536 149.56 62.8347 149.016 63.016ZM144.056 62.344H147.016C147.656 62.344 148.147 62.2 148.488 61.912C148.84 61.6133 149.016 61.1973 149.016 60.664C149.016 60.1413 148.845 59.7467 148.504 59.48C148.163 59.2133 147.672 59.08 147.032 59.08H144.056V62.344ZM147.08 67.56C147.827 67.56 148.392 67.3947 148.776 67.064C149.171 66.7333 149.368 66.2747 149.368 65.688C149.368 65.112 149.165 64.6533 148.76 64.312C148.365 63.96 147.805 63.784 147.08 63.784H144.056V67.56H147.08ZM157.765 61.672C157.765 61.4907 157.813 61.352 157.909 61.256C158.016 61.16 158.155 61.112 158.325 61.112H158.901C159.083 61.112 159.221 61.16 159.317 61.256C159.413 61.352 159.461 61.4907 159.461 61.672V68.44C159.461 68.6107 159.413 68.7493 159.317 68.856C159.221 68.952 159.083 69 158.901 69H158.469C158.299 69 158.16 68.952 158.053 68.856C157.957 68.7493 157.909 68.6107 157.909 68.44V68.072C157.696 68.4347 157.387 68.7227 156.981 68.936C156.576 69.1387 156.096 69.24 155.541 69.24C154.603 69.24 153.904 69.0107 153.445 68.552C152.987 68.0827 152.757 67.464 152.757 66.696V61.672C152.757 61.4907 152.805 61.352 152.901 61.256C153.008 61.16 153.147 61.112 153.317 61.112H153.893C154.075 61.112 154.213 61.16 154.309 61.256C154.405 61.352 154.453 61.4907 154.453 61.672V66.248C154.453 66.7387 154.576 67.1173 154.821 67.384C155.077 67.64 155.445 67.768 155.925 67.768C156.48 67.768 156.923 67.608 157.253 67.288C157.595 66.968 157.765 66.504 157.765 65.896V61.672ZM166.246 61.576C166.342 61.2667 166.55 61.112 166.87 61.112H167.446C167.606 61.112 167.728 61.1493 167.814 61.224C167.899 61.2987 167.942 61.4 167.942 61.528C167.942 61.592 167.926 61.6667 167.894 61.752L165.03 69.976C164.774 70.7227 164.454 71.2507 164.07 71.56C163.696 71.88 163.163 72.04 162.47 72.04C162.15 72.04 161.878 72.0187 161.654 71.976C161.504 71.9653 161.392 71.912 161.318 71.816C161.243 71.7307 161.206 71.624 161.206 71.496C161.206 71.4213 161.211 71.3627 161.222 71.32L161.27 71.112C161.344 70.8133 161.504 70.664 161.75 70.664C161.846 70.664 161.936 70.6693 162.022 70.68C162.107 70.6907 162.192 70.696 162.278 70.696C162.587 70.696 162.843 70.616 163.046 70.456C163.259 70.296 163.435 70.0027 163.574 69.576L163.622 69.448L160.886 61.752C160.854 61.6667 160.838 61.5867 160.838 61.512C160.838 61.384 160.88 61.288 160.965 61.224C161.062 61.1493 161.19 61.112 161.35 61.112H161.958C162.288 61.112 162.502 61.2667 162.598 61.576L163.222 63.448C163.691 64.792 164.091 66.024 164.422 67.144L164.886 65.72C164.96 65.496 165.072 65.144 165.222 64.664C165.371 64.184 165.504 63.7733 165.622 63.432L166.246 61.576ZM176.758 60.872C177.664 60.872 178.358 61.128 178.838 61.64C179.328 62.1413 179.574 62.792 179.574 63.592V68.44C179.574 68.6107 179.526 68.7493 179.43 68.856C179.334 68.952 179.195 69 179.014 69H178.438C178.267 69 178.128 68.952 178.022 68.856C177.926 68.7493 177.878 68.6107 177.878 68.44V64.12C177.878 63.544 177.734 63.1013 177.446 62.792C177.168 62.4827 176.768 62.328 176.246 62.328C175.734 62.328 175.302 62.504 174.95 62.856C174.608 63.208 174.438 63.6507 174.438 64.184V68.44C174.438 68.6107 174.39 68.7493 174.294 68.856C174.198 68.952 174.059 69 173.878 69H173.302C173.131 69 172.992 68.952 172.886 68.856C172.79 68.7493 172.742 68.6107 172.742 68.44V61.672C172.742 61.4907 172.79 61.352 172.886 61.256C172.992 61.16 173.131 61.112 173.302 61.112H173.766C173.947 61.112 174.086 61.16 174.182 61.256C174.278 61.352 174.326 61.4907 174.326 61.672V62.088C174.582 61.6933 174.918 61.3947 175.334 61.192C175.75 60.9787 176.224 60.872 176.758 60.872ZM185.075 69.24C184.296 69.24 183.603 69.064 182.995 68.712C182.398 68.36 181.928 67.8693 181.587 67.24C181.246 66.6 181.075 65.8693 181.075 65.048C181.075 64.2267 181.246 63.5013 181.587 62.872C181.928 62.2427 182.398 61.752 182.995 61.4C183.603 61.048 184.296 60.872 185.075 60.872C185.843 60.872 186.531 61.048 187.139 61.4C187.747 61.752 188.222 62.248 188.563 62.888C188.904 63.5173 189.075 64.2373 189.075 65.048C189.075 65.8693 188.904 66.6 188.563 67.24C188.222 67.8693 187.747 68.36 187.139 68.712C186.531 69.064 185.843 69.24 185.075 69.24ZM185.075 67.816C185.758 67.816 186.307 67.5653 186.723 67.064C187.139 66.552 187.347 65.88 187.347 65.048C187.347 64.2267 187.139 63.5653 186.723 63.064C186.307 62.5627 185.758 62.312 185.075 62.312C184.392 62.312 183.843 62.5627 183.427 63.064C183.011 63.5653 182.803 64.2267 182.803 65.048C182.803 65.88 183.011 66.552 183.427 67.064C183.843 67.5653 184.392 67.816 185.075 67.816ZM199.34 61.592C199.415 61.272 199.623 61.112 199.964 61.112H200.556C200.716 61.112 200.839 61.1493 200.924 61.224C201.02 61.288 201.068 61.3893 201.068 61.528C201.068 61.56 201.058 61.6293 201.036 61.736L199.132 68.52C199.058 68.84 198.85 69 198.508 69H197.468C197.148 69 196.94 68.84 196.844 68.52L196.316 66.664C196.082 65.8427 195.82 64.8133 195.532 63.576L195.452 63.224C195.164 64.5253 194.887 65.6773 194.62 66.68L194.124 68.52C194.05 68.84 193.842 69 193.5 69H192.476C192.156 69 191.948 68.84 191.852 68.52L189.932 61.736C189.911 61.6293 189.9 61.56 189.9 61.528C189.9 61.3893 189.943 61.288 190.028 61.224C190.124 61.1493 190.252 61.112 190.412 61.112H191.036C191.378 61.112 191.586 61.272 191.66 61.592L192.236 63.864C192.46 64.696 192.722 65.8053 193.02 67.192L193.084 67.512C193.394 66.0827 193.682 64.8667 193.948 63.864L194.556 61.592C194.631 61.272 194.839 61.112 195.18 61.112H195.788C196.13 61.112 196.338 61.272 196.412 61.592L197.036 63.864C197.335 64.9733 197.634 66.1893 197.932 67.512C198.156 66.3707 198.434 65.1547 198.764 63.864L199.34 61.592Z" fill="white"/>
<path d="M133 42H210V38H133V42ZM216 48V80H220V48H216ZM210 86H133V90H210V86ZM127 80V48H123V80H127ZM133 86C129.686 86 127 83.3137 127 80H123C123 85.5228 127.477 90 133 90V86ZM216 80C216 83.3137 213.314 86 210 86V90C215.523 90 220 85.5228 220 80H216ZM210 42C213.314 42 216 44.6863 216 48H220C220 42.4772 215.523 38 210 38V42ZM133 38C127.477 38 123 42.4772 123 48H127C127 44.6863 129.686 42 133 42V38Z" fill="#0063FB"/>
<path d="M131 120C131 115.582 134.582 112 139 112H204C208.418 112 212 115.582 212 120V152C212 156.418 208.418 160 204 160H139C134.582 160 131 156.418 131 152V120Z" fill="white"/>
<path d="M153.112 141.256C151.981 141.256 151 141 150.168 140.488C149.347 139.976 148.712 139.272 148.264 138.376C147.827 137.469 147.608 136.445 147.608 135.304C147.608 134.163 147.827 133.149 148.264 132.264C148.701 131.368 149.336 130.664 150.168 130.152C151 129.64 151.997 129.384 153.16 129.384C153.864 129.384 154.504 129.485 155.08 129.688C155.656 129.88 156.237 130.205 156.824 130.664C156.984 130.792 157.064 130.936 157.064 131.096C157.064 131.203 157.011 131.325 156.904 131.464L156.552 131.88C156.424 132.029 156.291 132.104 156.152 132.104C156.045 132.104 155.912 132.051 155.752 131.944C155.272 131.571 154.829 131.315 154.424 131.176C154.029 131.037 153.603 130.968 153.144 130.968C152.397 130.968 151.747 131.149 151.192 131.512C150.637 131.875 150.211 132.387 149.912 133.048C149.613 133.699 149.464 134.451 149.464 135.304C149.464 136.157 149.613 136.915 149.912 137.576C150.211 138.237 150.632 138.755 151.176 139.128C151.72 139.491 152.355 139.672 153.08 139.672C153.624 139.672 154.109 139.576 154.536 139.384C154.963 139.192 155.427 138.883 155.928 138.456C156.067 138.339 156.2 138.28 156.328 138.28C156.467 138.28 156.6 138.355 156.728 138.504L157.08 138.904C157.187 139.021 157.24 139.144 157.24 139.272C157.24 139.453 157.155 139.613 156.984 139.752C156.365 140.285 155.752 140.669 155.144 140.904C154.547 141.139 153.869 141.256 153.112 141.256ZM162.195 132.872C163.261 132.872 164.083 133.123 164.659 133.624C165.235 134.115 165.523 134.771 165.523 135.592V140.44C165.523 140.611 165.475 140.749 165.379 140.856C165.283 140.952 165.144 141 164.963 141H164.547C164.376 141 164.237 140.952 164.131 140.856C164.035 140.749 163.987 140.611 163.987 140.44V140.088C163.731 140.461 163.379 140.749 162.931 140.952C162.483 141.155 161.96 141.256 161.363 141.256C160.541 141.256 159.864 141.075 159.331 140.712C158.808 140.339 158.547 139.779 158.547 139.032C158.547 138.2 158.856 137.587 159.475 137.192C160.104 136.787 160.973 136.483 162.083 136.28L163.891 135.944V135.656C163.891 135.219 163.736 134.883 163.427 134.648C163.128 134.403 162.728 134.28 162.227 134.28C161.8 134.28 161.427 134.355 161.107 134.504C160.797 134.643 160.461 134.877 160.099 135.208C159.96 135.325 159.827 135.384 159.699 135.384C159.571 135.384 159.437 135.325 159.299 135.208L159.043 134.984C158.904 134.856 158.835 134.717 158.835 134.568C158.835 134.429 158.899 134.296 159.027 134.168C159.485 133.731 159.971 133.405 160.483 133.192C160.995 132.979 161.565 132.872 162.195 132.872ZM161.603 139.896C162.243 139.896 162.781 139.725 163.219 139.384C163.667 139.043 163.891 138.552 163.891 137.912V137.176L162.499 137.464C161.72 137.624 161.144 137.805 160.771 138.008C160.397 138.211 160.211 138.52 160.211 138.936C160.211 139.235 160.333 139.469 160.579 139.64C160.824 139.811 161.165 139.896 161.603 139.896ZM171.476 132.872C172.383 132.872 173.076 133.128 173.556 133.64C174.047 134.141 174.292 134.792 174.292 135.592V140.44C174.292 140.611 174.244 140.749 174.148 140.856C174.052 140.952 173.914 141 173.732 141H173.156C172.986 141 172.847 140.952 172.74 140.856C172.644 140.749 172.596 140.611 172.596 140.44V136.12C172.596 135.544 172.452 135.101 172.164 134.792C171.887 134.483 171.487 134.328 170.964 134.328C170.452 134.328 170.02 134.504 169.668 134.856C169.327 135.208 169.156 135.651 169.156 136.184V140.44C169.156 140.611 169.108 140.749 169.012 140.856C168.916 140.952 168.778 141 168.596 141H168.02C167.85 141 167.711 140.952 167.604 140.856C167.508 140.749 167.46 140.611 167.46 140.44V133.672C167.46 133.491 167.508 133.352 167.604 133.256C167.711 133.16 167.85 133.112 168.02 133.112H168.484C168.666 133.112 168.804 133.16 168.9 133.256C168.996 133.352 169.044 133.491 169.044 133.672V134.088C169.3 133.693 169.636 133.395 170.052 133.192C170.468 132.979 170.943 132.872 171.476 132.872ZM179.714 141.24C178.935 141.24 178.247 141.069 177.65 140.728C177.063 140.387 176.604 139.901 176.274 139.272C175.954 138.632 175.794 137.891 175.794 137.048C175.794 136.205 175.959 135.469 176.29 134.84C176.62 134.211 177.084 133.725 177.682 133.384C178.279 133.043 178.967 132.872 179.746 132.872C180.311 132.872 180.818 132.957 181.266 133.128C181.724 133.288 182.162 133.565 182.578 133.96C182.706 134.088 182.77 134.221 182.77 134.36C182.77 134.488 182.7 134.621 182.562 134.76L182.29 135.032C182.172 135.149 182.044 135.208 181.906 135.208C181.767 135.208 181.623 135.144 181.474 135.016C181.164 134.749 180.871 134.568 180.594 134.472C180.327 134.365 180.039 134.312 179.73 134.312C179.026 134.312 178.482 134.573 178.098 135.096C177.714 135.619 177.522 136.269 177.522 137.048C177.522 137.827 177.714 138.483 178.098 139.016C178.482 139.539 179.026 139.8 179.73 139.8C180.071 139.8 180.386 139.736 180.674 139.608C180.962 139.469 181.271 139.24 181.602 138.92C181.74 138.781 181.884 138.712 182.034 138.712C182.162 138.712 182.284 138.765 182.402 138.872L182.674 139.096C182.812 139.213 182.882 139.347 182.882 139.496C182.882 139.656 182.802 139.827 182.642 140.008C182.204 140.456 181.751 140.776 181.282 140.968C180.823 141.149 180.3 141.24 179.714 141.24ZM189.78 138.984C189.919 138.867 190.052 138.808 190.18 138.808C190.308 138.808 190.442 138.877 190.58 139.016L190.804 139.256C190.922 139.395 190.98 139.528 190.98 139.656C190.98 139.795 190.911 139.928 190.772 140.056C190.282 140.483 189.791 140.787 189.3 140.968C188.82 141.149 188.287 141.24 187.7 141.24C186.879 141.24 186.164 141.069 185.556 140.728C184.959 140.387 184.495 139.907 184.164 139.288C183.844 138.659 183.684 137.933 183.684 137.112C183.684 136.301 183.839 135.576 184.148 134.936C184.468 134.285 184.916 133.779 185.492 133.416C186.079 133.053 186.762 132.872 187.54 132.872C188.703 132.872 189.599 133.219 190.228 133.912C190.858 134.595 191.172 135.539 191.172 136.744V136.888C191.162 137.059 191.108 137.192 191.012 137.288C190.916 137.384 190.778 137.432 190.596 137.432H185.348C185.412 138.136 185.642 138.712 186.036 139.16C186.442 139.597 187.007 139.816 187.732 139.816C188.127 139.816 188.474 139.757 188.772 139.64C189.071 139.512 189.407 139.293 189.78 138.984ZM187.508 134.216C186.922 134.216 186.447 134.392 186.084 134.744C185.732 135.085 185.503 135.571 185.396 136.2H189.508C189.466 135.581 189.274 135.096 188.932 134.744C188.591 134.392 188.116 134.216 187.508 134.216ZM193.35 141C193.179 141 193.041 140.952 192.934 140.856C192.838 140.749 192.79 140.611 192.79 140.44V130.2C192.79 130.019 192.838 129.88 192.934 129.784C193.041 129.688 193.179 129.64 193.35 129.64H193.926C194.107 129.64 194.246 129.688 194.342 129.784C194.438 129.88 194.486 130.019 194.486 130.2V140.44C194.486 140.611 194.438 140.749 194.342 140.856C194.246 140.952 194.107 141 193.926 141H193.35Z" fill="#0063FB"/>
<path d="M139 114H204V110H139V114ZM210 120V152H214V120H210ZM204 158H139V162H204V158ZM133 152V120H129V152H133ZM139 158C135.686 158 133 155.314 133 152H129C129 157.523 133.477 162 139 162V158ZM210 152C210 155.314 207.314 158 204 158V162C209.523 162 214 157.523 214 152H210ZM204 114C207.314 114 210 116.686 210 120H214C214 114.477 209.523 110 204 110V114ZM139 110C133.477 110 129 114.477 129 120H133C133 116.686 135.686 114 139 114V110Z" fill="#C3CCD9"/>
</svg>
