<svg width="344" height="128" viewBox="0 0 344 128" fill="none" xmlns="http://www.w3.org/2000/svg">
<path d="M125 48C125 43.5817 128.582 40 133 40H245C249.418 40 253 43.5817 253 48V80C253 84.4183 249.418 88 245 88H133C128.582 88 125 84.4183 125 80V48Z" fill="#0063FB"/>
<path fill-rule="evenodd" clip-rule="evenodd" d="M149.75 57C149.75 56.5858 149.414 56.25 149 56.25C148.586 56.25 148.25 56.5858 148.25 57V66.4395L146.969 65.4143C146.645 65.1556 146.173 65.208 145.914 65.5315C145.656 65.8549 145.708 66.3269 146.031 66.5857L148.531 68.5857C148.805 68.8048 149.195 68.8048 149.469 68.5857L151.969 66.5857C152.292 66.3269 152.344 65.8549 152.086 65.5315C151.827 65.208 151.355 65.1556 151.031 65.4143L149.75 66.4395V57ZM142 70.25C141.586 70.25 141.25 70.5858 141.25 71C141.25 71.4142 141.586 71.75 142 71.75H156C156.414 71.75 156.75 71.4142 156.75 71C156.75 70.5858 156.414 70.25 156 70.25H142Z" fill="white"/>
<path d="M166.792 69C166.621 69 166.483 68.952 166.376 68.856C166.28 68.7493 166.232 68.6107 166.232 68.44V58.2C166.232 58.0187 166.28 57.88 166.376 57.784C166.483 57.688 166.621 57.64 166.792 57.64H170.648C171.715 57.64 172.627 57.88 173.384 58.36C174.152 58.84 174.733 59.512 175.128 60.376C175.533 61.2293 175.736 62.2107 175.736 63.32C175.736 64.4293 175.533 65.416 175.128 66.28C174.733 67.1333 174.152 67.8 173.384 68.28C172.627 68.76 171.715 69 170.648 69H166.792ZM170.376 67.464C171.464 67.464 172.317 67.1067 172.936 66.392C173.565 65.6667 173.88 64.6427 173.88 63.32C173.88 61.9973 173.565 60.9787 172.936 60.264C172.317 59.5387 171.464 59.176 170.376 59.176H168.056V67.464H170.376ZM181.091 69.24C180.312 69.24 179.619 69.064 179.011 68.712C178.413 68.36 177.944 67.8693 177.603 67.24C177.261 66.6 177.09 65.8693 177.09 65.048C177.09 64.2267 177.261 63.5013 177.603 62.872C177.944 62.2427 178.413 61.752 179.011 61.4C179.619 61.048 180.312 60.872 181.091 60.872C181.859 60.872 182.547 61.048 183.155 61.4C183.763 61.752 184.237 62.248 184.579 62.888C184.92 63.5173 185.091 64.2373 185.091 65.048C185.091 65.8693 184.92 66.6 184.579 67.24C184.237 67.8693 183.763 68.36 183.155 68.712C182.547 69.064 181.859 69.24 181.091 69.24ZM181.091 67.816C181.773 67.816 182.323 67.5653 182.739 67.064C183.155 66.552 183.363 65.88 183.363 65.048C183.363 64.2267 183.155 63.5653 182.739 63.064C182.323 62.5627 181.773 62.312 181.091 62.312C180.408 62.312 179.859 62.5627 179.443 63.064C179.027 63.5653 178.819 64.2267 178.819 65.048C178.819 65.88 179.027 66.552 179.443 67.064C179.859 67.5653 180.408 67.816 181.091 67.816ZM195.356 61.592C195.431 61.272 195.639 61.112 195.98 61.112H196.572C196.732 61.112 196.855 61.1493 196.94 61.224C197.036 61.288 197.084 61.3893 197.084 61.528C197.084 61.56 197.073 61.6293 197.052 61.736L195.148 68.52C195.073 68.84 194.865 69 194.524 69H193.484C193.164 69 192.956 68.84 192.86 68.52L192.332 66.664C192.097 65.8427 191.836 64.8133 191.548 63.576L191.468 63.224C191.18 64.5253 190.903 65.6773 190.636 66.68L190.14 68.52C190.065 68.84 189.857 69 189.516 69H188.492C188.172 69 187.964 68.84 187.868 68.52L185.948 61.736C185.927 61.6293 185.916 61.56 185.916 61.528C185.916 61.3893 185.959 61.288 186.044 61.224C186.14 61.1493 186.268 61.112 186.428 61.112H187.052C187.393 61.112 187.601 61.272 187.676 61.592L188.252 63.864C188.476 64.696 188.737 65.8053 189.036 67.192L189.1 67.512C189.409 66.0827 189.697 64.8667 189.964 63.864L190.572 61.592C190.647 61.272 190.855 61.112 191.196 61.112H191.804C192.145 61.112 192.353 61.272 192.428 61.592L193.052 63.864C193.351 64.9733 193.649 66.1893 193.948 67.512C194.172 66.3707 194.449 65.1547 194.78 63.864L195.356 61.592ZM202.508 60.872C203.414 60.872 204.108 61.128 204.588 61.64C205.078 62.1413 205.324 62.792 205.324 63.592V68.44C205.324 68.6107 205.276 68.7493 205.18 68.856C205.084 68.952 204.945 69 204.764 69H204.188C204.017 69 203.878 68.952 203.772 68.856C203.676 68.7493 203.628 68.6107 203.628 68.44V64.12C203.628 63.544 203.484 63.1013 203.196 62.792C202.918 62.4827 202.518 62.328 201.996 62.328C201.484 62.328 201.052 62.504 200.7 62.856C200.358 63.208 200.188 63.6507 200.188 64.184V68.44C200.188 68.6107 200.14 68.7493 200.044 68.856C199.948 68.952 199.809 69 199.628 69H199.052C198.881 69 198.742 68.952 198.636 68.856C198.54 68.7493 198.492 68.6107 198.492 68.44V61.672C198.492 61.4907 198.54 61.352 198.636 61.256C198.742 61.16 198.881 61.112 199.052 61.112H199.516C199.697 61.112 199.836 61.16 199.932 61.256C200.028 61.352 200.076 61.4907 200.076 61.672V62.088C200.332 61.6933 200.668 61.3947 201.084 61.192C201.5 60.9787 201.974 60.872 202.508 60.872ZM207.897 69C207.726 69 207.588 68.952 207.481 68.856C207.385 68.7493 207.337 68.6107 207.337 68.44V58.2C207.337 58.0187 207.385 57.88 207.481 57.784C207.588 57.688 207.726 57.64 207.897 57.64H208.473C208.654 57.64 208.793 57.688 208.889 57.784C208.985 57.88 209.033 58.0187 209.033 58.2V68.44C209.033 68.6107 208.985 68.7493 208.889 68.856C208.793 68.952 208.654 69 208.473 69H207.897ZM214.606 69.24C213.827 69.24 213.134 69.064 212.526 68.712C211.929 68.36 211.459 67.8693 211.118 67.24C210.777 66.6 210.606 65.8693 210.606 65.048C210.606 64.2267 210.777 63.5013 211.118 62.872C211.459 62.2427 211.929 61.752 212.526 61.4C213.134 61.048 213.827 60.872 214.606 60.872C215.374 60.872 216.062 61.048 216.67 61.4C217.278 61.752 217.753 62.248 218.094 62.888C218.435 63.5173 218.606 64.2373 218.606 65.048C218.606 65.8693 218.435 66.6 218.094 67.24C217.753 67.8693 217.278 68.36 216.67 68.712C216.062 69.064 215.374 69.24 214.606 69.24ZM214.606 67.816C215.289 67.816 215.838 67.5653 216.254 67.064C216.67 66.552 216.878 65.88 216.878 65.048C216.878 64.2267 216.67 63.5653 216.254 63.064C215.838 62.5627 215.289 62.312 214.606 62.312C213.923 62.312 213.374 62.5627 212.958 63.064C212.542 63.5653 212.334 64.2267 212.334 65.048C212.334 65.88 212.542 66.552 212.958 67.064C213.374 67.5653 213.923 67.816 214.606 67.816ZM223.429 60.872C224.496 60.872 225.317 61.1227 225.893 61.624C226.469 62.1147 226.757 62.7707 226.757 63.592V68.44C226.757 68.6107 226.709 68.7493 226.613 68.856C226.517 68.952 226.378 69 226.197 69H225.781C225.61 69 225.472 68.952 225.365 68.856C225.269 68.7493 225.221 68.6107 225.221 68.44V68.088C224.965 68.4613 224.613 68.7493 224.165 68.952C223.717 69.1547 223.194 69.256 222.597 69.256C221.776 69.256 221.098 69.0747 220.565 68.712C220.042 68.3387 219.781 67.7787 219.781 67.032C219.781 66.2 220.09 65.5867 220.709 65.192C221.338 64.7867 222.208 64.4827 223.317 64.28L225.125 63.944V63.656C225.125 63.2187 224.97 62.8827 224.661 62.648C224.362 62.4027 223.962 62.28 223.461 62.28C223.034 62.28 222.661 62.3547 222.341 62.504C222.032 62.6427 221.696 62.8773 221.333 63.208C221.194 63.3253 221.061 63.384 220.933 63.384C220.805 63.384 220.672 63.3253 220.533 63.208L220.277 62.984C220.138 62.856 220.069 62.7173 220.069 62.568C220.069 62.4293 220.133 62.296 220.261 62.168C220.72 61.7307 221.205 61.4053 221.717 61.192C222.229 60.9787 222.8 60.872 223.429 60.872ZM222.837 67.896C223.477 67.896 224.016 67.7253 224.453 67.384C224.901 67.0427 225.125 66.552 225.125 65.912V65.176L223.733 65.464C222.954 65.624 222.378 65.8053 222.005 66.008C221.632 66.2107 221.445 66.52 221.445 66.936C221.445 67.2347 221.568 67.4693 221.813 67.64C222.058 67.8107 222.4 67.896 222.837 67.896ZM234.247 58.184C234.247 58.0027 234.295 57.864 234.391 57.768C234.497 57.672 234.636 57.624 234.807 57.624H235.383C235.564 57.624 235.703 57.672 235.799 57.768C235.895 57.864 235.943 58.0027 235.943 58.184V68.44C235.943 68.6107 235.895 68.7493 235.799 68.856C235.703 68.952 235.564 69 235.383 69H234.919C234.748 69 234.609 68.952 234.503 68.856C234.407 68.7493 234.359 68.6107 234.359 68.44V67.88C233.804 68.776 232.935 69.224 231.751 69.224C231.089 69.224 230.492 69.0533 229.959 68.712C229.436 68.3707 229.025 67.8853 228.727 67.256C228.428 66.6267 228.279 65.896 228.279 65.064C228.279 64.2427 228.428 63.5173 228.727 62.888C229.036 62.2587 229.457 61.7733 229.991 61.432C230.524 61.0907 231.121 60.92 231.783 60.92C232.871 60.92 233.692 61.2987 234.247 62.056V58.184ZM232.103 67.768C232.753 67.768 233.287 67.528 233.703 67.048C234.119 66.5573 234.327 65.896 234.327 65.064C234.327 64.232 234.119 63.576 233.703 63.096C233.287 62.616 232.753 62.376 232.103 62.376C231.473 62.376 230.967 62.6213 230.583 63.112C230.199 63.6027 230.007 64.2533 230.007 65.064C230.007 65.8853 230.193 66.5413 230.567 67.032C230.951 67.5227 231.463 67.768 232.103 67.768Z" fill="white"/>
<path d="M133 42H245V38H133V42ZM251 48V80H255V48H251ZM245 86H133V90H245V86ZM127 80V48H123V80H127ZM133 86C129.686 86 127 83.3137 127 80H123C123 85.5228 127.477 90 133 90V86ZM251 80C251 83.3137 248.314 86 245 86V90C250.523 90 255 85.5228 255 80H251ZM245 42C248.314 42 251 44.6863 251 48H255C255 42.4772 250.523 38 245 38V42ZM133 38C127.477 38 123 42.4772 123 48H127C127 44.6863 129.686 42 133 42V38Z" fill="#0063FB"/>
</svg>
