<svg width="344" height="128" viewBox="0 0 344 128" fill="none" xmlns="http://www.w3.org/2000/svg">
<path d="M138.232 69.256C137.357 69.256 136.573 69.1333 135.88 68.888C135.197 68.632 134.493 68.2053 133.768 67.608C133.619 67.4907 133.544 67.352 133.544 67.192C133.544 67.0533 133.597 66.9253 133.704 66.808L134.072 66.376C134.189 66.2267 134.323 66.152 134.472 66.152C134.589 66.152 134.723 66.2107 134.872 66.328C135.512 66.84 136.083 67.192 136.584 67.384C137.096 67.576 137.656 67.672 138.264 67.672C139 67.672 139.597 67.5067 140.056 67.176C140.515 66.8347 140.744 66.3707 140.744 65.784C140.744 65.4 140.627 65.1013 140.392 64.888C140.157 64.664 139.853 64.4933 139.48 64.376C139.117 64.2587 138.525 64.104 137.704 63.912C136.712 63.6773 135.939 63.4213 135.384 63.144C134.829 62.8667 134.429 62.536 134.184 62.152C133.949 61.7573 133.832 61.2613 133.832 60.664C133.832 60.0347 134.013 59.4693 134.376 58.968C134.739 58.4667 135.235 58.0773 135.864 57.8C136.504 57.5227 137.219 57.384 138.008 57.384C138.808 57.384 139.512 57.4907 140.12 57.704C140.739 57.9173 141.357 58.264 141.976 58.744C142.136 58.872 142.216 59.0053 142.216 59.144C142.216 59.2613 142.163 59.3893 142.056 59.528L141.704 59.944C141.576 60.0933 141.443 60.168 141.304 60.168C141.176 60.168 141.043 60.1147 140.904 60.008C140.392 59.6133 139.917 59.3413 139.48 59.192C139.043 59.0427 138.547 58.968 137.992 58.968C137.288 58.968 136.717 59.1227 136.28 59.432C135.843 59.7413 135.624 60.1307 135.624 60.6C135.624 60.9413 135.725 61.2133 135.928 61.416C136.131 61.6187 136.424 61.784 136.808 61.912C137.192 62.04 137.784 62.1947 138.584 62.376C139.555 62.6107 140.323 62.8613 140.888 63.128C141.453 63.384 141.875 63.7147 142.152 64.12C142.429 64.5253 142.568 65.0427 142.568 65.672C142.568 66.376 142.387 67 142.024 67.544C141.661 68.088 141.155 68.5093 140.504 68.808C139.853 69.1067 139.096 69.256 138.232 69.256ZM149.858 66.984C149.997 66.8667 150.13 66.808 150.258 66.808C150.386 66.808 150.52 66.8773 150.658 67.016L150.882 67.256C151 67.3947 151.058 67.528 151.058 67.656C151.058 67.7947 150.989 67.928 150.85 68.056C150.36 68.4827 149.869 68.7867 149.378 68.968C148.898 69.1493 148.365 69.24 147.778 69.24C146.957 69.24 146.242 69.0693 145.634 68.728C145.037 68.3867 144.573 67.9067 144.242 67.288C143.922 66.6587 143.762 65.9333 143.762 65.112C143.762 64.3013 143.917 63.576 144.226 62.936C144.546 62.2853 144.994 61.7787 145.57 61.416C146.157 61.0533 146.84 60.872 147.618 60.872C148.781 60.872 149.677 61.2187 150.306 61.912C150.936 62.5947 151.25 63.5387 151.25 64.744V64.888C151.24 65.0587 151.186 65.192 151.09 65.288C150.994 65.384 150.856 65.432 150.674 65.432H145.426C145.49 66.136 145.72 66.712 146.114 67.16C146.52 67.5973 147.085 67.816 147.81 67.816C148.205 67.816 148.552 67.7573 148.85 67.64C149.149 67.512 149.485 67.2933 149.858 66.984ZM147.586 62.216C147 62.216 146.525 62.392 146.162 62.744C145.81 63.0853 145.581 63.5707 145.474 64.2H149.586C149.544 63.5813 149.352 63.096 149.01 62.744C148.669 62.392 148.194 62.216 147.586 62.216ZM158.483 66.984C158.622 66.8667 158.755 66.808 158.883 66.808C159.011 66.808 159.145 66.8773 159.283 67.016L159.507 67.256C159.625 67.3947 159.683 67.528 159.683 67.656C159.683 67.7947 159.614 67.928 159.475 68.056C158.985 68.4827 158.494 68.7867 158.003 68.968C157.523 69.1493 156.99 69.24 156.403 69.24C155.582 69.24 154.867 69.0693 154.259 68.728C153.662 68.3867 153.198 67.9067 152.867 67.288C152.547 66.6587 152.387 65.9333 152.387 65.112C152.387 64.3013 152.542 63.576 152.851 62.936C153.171 62.2853 153.619 61.7787 154.195 61.416C154.782 61.0533 155.465 60.872 156.243 60.872C157.406 60.872 158.302 61.2187 158.931 61.912C159.561 62.5947 159.875 63.5387 159.875 64.744V64.888C159.865 65.0587 159.811 65.192 159.715 65.288C159.619 65.384 159.481 65.432 159.299 65.432H154.051C154.115 66.136 154.345 66.712 154.739 67.16C155.145 67.5973 155.71 67.816 156.435 67.816C156.83 67.816 157.177 67.7573 157.475 67.64C157.774 67.512 158.11 67.2933 158.483 66.984ZM156.211 62.216C155.625 62.216 155.15 62.392 154.787 62.744C154.435 63.0853 154.206 63.5707 154.099 64.2H158.211C158.169 63.5813 157.977 63.096 157.635 62.744C157.294 62.392 156.819 62.216 156.211 62.216ZM170.559 58.184C170.559 58.0027 170.607 57.864 170.703 57.768C170.81 57.672 170.949 57.624 171.119 57.624H171.695C171.877 57.624 172.015 57.672 172.111 57.768C172.207 57.864 172.255 58.0027 172.255 58.184V68.44C172.255 68.6107 172.207 68.7493 172.111 68.856C172.015 68.952 171.877 69 171.695 69H171.231C171.061 69 170.922 68.952 170.815 68.856C170.719 68.7493 170.671 68.6107 170.671 68.44V67.88C170.117 68.776 169.247 69.224 168.063 69.224C167.402 69.224 166.805 69.0533 166.271 68.712C165.749 68.3707 165.338 67.8853 165.039 67.256C164.741 66.6267 164.591 65.896 164.591 65.064C164.591 64.2427 164.741 63.5173 165.039 62.888C165.349 62.2587 165.77 61.7733 166.303 61.432C166.837 61.0907 167.434 60.92 168.095 60.92C169.183 60.92 170.005 61.2987 170.559 62.056V58.184ZM168.415 67.768C169.066 67.768 169.599 67.528 170.015 67.048C170.431 66.5573 170.639 65.896 170.639 65.064C170.639 64.232 170.431 63.576 170.015 63.096C169.599 62.616 169.066 62.376 168.415 62.376C167.786 62.376 167.279 62.6213 166.895 63.112C166.511 63.6027 166.319 64.2533 166.319 65.064C166.319 65.8853 166.506 66.5413 166.879 67.032C167.263 67.5227 167.775 67.768 168.415 67.768ZM179.874 66.984C180.013 66.8667 180.146 66.808 180.274 66.808C180.402 66.808 180.535 66.8773 180.674 67.016L180.898 67.256C181.015 67.3947 181.074 67.528 181.074 67.656C181.074 67.7947 181.005 67.928 180.866 68.056C180.375 68.4827 179.885 68.7867 179.394 68.968C178.914 69.1493 178.381 69.24 177.794 69.24C176.973 69.24 176.258 69.0693 175.65 68.728C175.053 68.3867 174.589 67.9067 174.258 67.288C173.938 66.6587 173.778 65.9333 173.778 65.112C173.778 64.3013 173.933 63.576 174.242 62.936C174.562 62.2853 175.01 61.7787 175.586 61.416C176.173 61.0533 176.855 60.872 177.634 60.872C178.797 60.872 179.693 61.2187 180.322 61.912C180.951 62.5947 181.266 63.5387 181.266 64.744V64.888C181.255 65.0587 181.202 65.192 181.106 65.288C181.01 65.384 180.871 65.432 180.69 65.432H175.442C175.506 66.136 175.735 66.712 176.13 67.16C176.535 67.5973 177.101 67.816 177.826 67.816C178.221 67.816 178.567 67.7573 178.866 67.64C179.165 67.512 179.501 67.2933 179.874 66.984ZM177.602 62.216C177.015 62.216 176.541 62.392 176.178 62.744C175.826 63.0853 175.597 63.5707 175.49 64.2H179.602C179.559 63.5813 179.367 63.096 179.026 62.744C178.685 62.392 178.21 62.216 177.602 62.216ZM186.534 67.656C186.566 67.6453 186.614 67.64 186.678 67.64C186.945 67.64 187.105 67.7947 187.158 68.104L187.206 68.36C187.217 68.392 187.222 68.4453 187.222 68.52C187.222 68.7867 187.073 68.9573 186.774 69.032C186.347 69.128 185.958 69.176 185.606 69.176C184.849 69.176 184.299 69 183.958 68.648C183.627 68.296 183.462 67.768 183.462 67.064V62.408H182.582C182.411 62.408 182.273 62.36 182.166 62.264C182.07 62.1573 182.022 62.0187 182.022 61.848V61.672C182.022 61.4907 182.07 61.352 182.166 61.256C182.273 61.16 182.411 61.112 182.582 61.112H183.462V59.128C183.462 58.9467 183.51 58.808 183.606 58.712C183.713 58.616 183.851 58.568 184.022 58.568H184.598C184.779 58.568 184.918 58.616 185.014 58.712C185.11 58.808 185.158 58.9467 185.158 59.128V61.112H186.598C186.779 61.112 186.918 61.16 187.014 61.256C187.11 61.352 187.158 61.4907 187.158 61.672V61.848C187.158 62.0187 187.11 62.1573 187.014 62.264C186.918 62.36 186.779 62.408 186.598 62.408H185.158V66.856C185.158 67.1653 185.222 67.384 185.35 67.512C185.489 67.64 185.707 67.704 186.006 67.704C186.134 67.704 186.31 67.688 186.534 67.656ZM191.898 60.872C192.964 60.872 193.786 61.1227 194.362 61.624C194.938 62.1147 195.226 62.7707 195.226 63.592V68.44C195.226 68.6107 195.178 68.7493 195.082 68.856C194.986 68.952 194.847 69 194.666 69H194.25C194.079 69 193.94 68.952 193.834 68.856C193.738 68.7493 193.69 68.6107 193.69 68.44V68.088C193.434 68.4613 193.082 68.7493 192.634 68.952C192.186 69.1547 191.663 69.256 191.066 69.256C190.244 69.256 189.567 69.0747 189.034 68.712C188.511 68.3387 188.25 67.7787 188.25 67.032C188.25 66.2 188.559 65.5867 189.178 65.192C189.807 64.7867 190.676 64.4827 191.786 64.28L193.594 63.944V63.656C193.594 63.2187 193.439 62.8827 193.13 62.648C192.831 62.4027 192.431 62.28 191.93 62.28C191.503 62.28 191.13 62.3547 190.81 62.504C190.5 62.6427 190.164 62.8773 189.802 63.208C189.663 63.3253 189.53 63.384 189.402 63.384C189.274 63.384 189.14 63.3253 189.002 63.208L188.746 62.984C188.607 62.856 188.538 62.7173 188.538 62.568C188.538 62.4293 188.602 62.296 188.73 62.168C189.188 61.7307 189.674 61.4053 190.186 61.192C190.698 60.9787 191.268 60.872 191.898 60.872ZM191.306 67.896C191.946 67.896 192.484 67.7253 192.922 67.384C193.37 67.0427 193.594 66.552 193.594 65.912V65.176L192.202 65.464C191.423 65.624 190.847 65.8053 190.474 66.008C190.1 66.2107 189.914 66.52 189.914 66.936C189.914 67.2347 190.036 67.4693 190.282 67.64C190.527 67.8107 190.868 67.896 191.306 67.896ZM198.028 59.576C197.718 59.576 197.457 59.4747 197.243 59.272C197.03 59.0587 196.924 58.808 196.924 58.52C196.924 58.2213 197.03 57.9707 197.243 57.768C197.457 57.5653 197.718 57.464 198.028 57.464C198.337 57.464 198.598 57.5653 198.812 57.768C199.025 57.9707 199.132 58.2213 199.132 58.52C199.132 58.808 199.025 59.0587 198.812 59.272C198.598 59.4747 198.337 59.576 198.028 59.576ZM197.724 69C197.553 69 197.414 68.952 197.308 68.856C197.212 68.7493 197.164 68.6107 197.164 68.44V61.672C197.164 61.4907 197.212 61.352 197.308 61.256C197.414 61.16 197.553 61.112 197.724 61.112H198.299C198.481 61.112 198.62 61.16 198.716 61.256C198.812 61.352 198.86 61.4907 198.86 61.672V68.44C198.86 68.6107 198.812 68.7493 198.716 68.856C198.62 68.952 198.481 69 198.299 69H197.724ZM201.444 69C201.273 69 201.134 68.952 201.028 68.856C200.932 68.7493 200.884 68.6107 200.884 68.44V58.2C200.884 58.0187 200.932 57.88 201.028 57.784C201.134 57.688 201.273 57.64 201.444 57.64H202.02C202.201 57.64 202.34 57.688 202.436 57.784C202.532 57.88 202.58 58.0187 202.58 58.2V68.44C202.58 68.6107 202.532 68.7493 202.436 68.856C202.34 68.952 202.201 69 202.02 69H201.444ZM207.641 69.24C206.99 69.24 206.409 69.16 205.897 69C205.396 68.8293 204.884 68.536 204.361 68.12C204.201 68.0027 204.121 67.8693 204.121 67.72C204.121 67.6027 204.18 67.4747 204.297 67.336L204.537 67.064C204.665 66.9147 204.804 66.84 204.953 66.84C205.07 66.84 205.198 66.8933 205.337 67C205.785 67.3307 206.18 67.56 206.521 67.688C206.862 67.8053 207.246 67.864 207.673 67.864C208.132 67.864 208.505 67.7733 208.793 67.592C209.092 67.4 209.241 67.144 209.241 66.824C209.241 66.5787 209.156 66.3867 208.985 66.248C208.825 66.0987 208.612 65.9867 208.345 65.912C208.078 65.8267 207.684 65.7307 207.161 65.624C206.425 65.464 205.849 65.2933 205.433 65.112C205.028 64.92 204.734 64.68 204.553 64.392C204.372 64.104 204.281 63.736 204.281 63.288C204.281 62.8293 204.409 62.4187 204.665 62.056C204.932 61.6933 205.3 61.4053 205.769 61.192C206.249 60.9787 206.809 60.872 207.449 60.872C208.025 60.872 208.537 60.936 208.985 61.064C209.444 61.192 209.892 61.4107 210.329 61.72C210.5 61.848 210.585 61.992 210.585 62.152C210.585 62.2587 210.532 62.3813 210.425 62.52L210.217 62.776C210.1 62.9253 209.956 63 209.785 63C209.657 63 209.534 62.9573 209.417 62.872C209.065 62.6373 208.74 62.4773 208.441 62.392C208.142 62.296 207.806 62.248 207.433 62.248C206.974 62.248 206.606 62.3387 206.329 62.52C206.052 62.7013 205.913 62.936 205.913 63.224C205.913 63.416 205.977 63.5707 206.105 63.688C206.244 63.7947 206.436 63.8907 206.681 63.976C206.937 64.0507 207.337 64.1467 207.881 64.264C208.617 64.424 209.198 64.6053 209.625 64.808C210.062 65 210.382 65.2507 210.585 65.56C210.798 65.8587 210.905 66.248 210.905 66.728C210.905 67.4747 210.606 68.0827 210.009 68.552C209.422 69.0107 208.633 69.24 207.641 69.24Z" fill="#0063FB"/>
</svg>
