<svg width="344" height="128" viewBox="0 0 344 128" fill="none" xmlns="http://www.w3.org/2000/svg">
<path d="M123 48C123 43.5817 126.582 40 131 40H213C217.418 40 221 43.5817 221 48V80C221 84.4183 217.418 88 213 88H131C126.582 88 123 84.4183 123 80V48Z" fill="#C3CCD9"/>
<path fill-rule="evenodd" clip-rule="evenodd" d="M154.576 60.4802C154.808 60.202 154.808 59.798 154.576 59.5199L152.076 56.5199C151.811 56.2017 151.338 56.1587 151.02 56.4239C150.702 56.689 150.659 57.1619 150.924 57.4802L152.399 59.25H149C147.481 59.25 146.25 60.4812 146.25 62L146.25 64.6667C146.25 65.0809 146.586 65.4167 147 65.4167C147.414 65.4167 147.75 65.0809 147.75 64.6667V62C147.75 61.3097 148.31 60.75 149 60.75L152.399 60.75L150.924 62.5199C150.659 62.8381 150.702 63.311 151.02 63.5762C151.338 63.8414 151.811 63.7984 152.076 63.4802L154.576 60.4802ZM140.75 59C140.75 58.3097 141.31 57.75 142 57.75H145C145.414 57.75 145.75 57.4142 145.75 57C145.75 56.5858 145.414 56.25 145 56.25H142C140.481 56.25 139.25 57.4812 139.25 59V69C139.25 70.5188 140.481 71.75 142 71.75H152C153.519 71.75 154.75 70.5188 154.75 69V65C154.75 64.5858 154.414 64.25 154 64.25C153.586 64.25 153.25 64.5858 153.25 65V69C153.25 69.6904 152.69 70.25 152 70.25H142C141.31 70.25 140.75 69.6904 140.75 69V59Z" fill="white"/>
<path d="M154.576 59.5199L154.96 59.1998L154.96 59.1998L154.576 59.5199ZM154.576 60.4802L154.96 60.8002L154.96 60.8002L154.576 60.4802ZM152.076 56.5199L151.692 56.84V56.84L152.076 56.5199ZM151.02 56.4239L151.34 56.808L151.02 56.4239ZM150.924 57.4802L150.54 57.8002V57.8002L150.924 57.4802ZM152.399 59.25V59.75C152.593 59.75 152.769 59.6378 152.852 59.4621C152.934 59.2864 152.907 59.079 152.783 58.9299L152.399 59.25ZM146.25 62H146.75H146.25ZM146.25 64.6667H145.75H146.25ZM147 65.4167L147 64.9167H147V65.4167ZM149 60.75V61.25V60.75ZM152.399 60.75L152.783 61.0701C152.907 60.9211 152.934 60.7136 152.852 60.5379C152.769 60.3622 152.593 60.25 152.399 60.25V60.75ZM150.924 62.5199L150.54 62.1998L150.924 62.5199ZM151.02 63.5762L150.7 63.9603V63.9603L151.02 63.5762ZM152.076 63.4802L151.692 63.1601L152.076 63.4802ZM154.192 59.84C154.269 59.9327 154.269 60.0674 154.192 60.1601L154.96 60.8002C155.347 60.3367 155.347 59.6633 154.96 59.1998L154.192 59.84ZM151.692 56.84L154.192 59.84L154.96 59.1998L152.46 56.1998L151.692 56.84ZM151.34 56.808C151.446 56.7196 151.604 56.7339 151.692 56.84L152.46 56.1998C152.018 55.6694 151.23 55.5978 150.7 56.0397L151.34 56.808ZM151.308 57.1601C151.22 57.054 151.234 56.8964 151.34 56.808L150.7 56.0397C150.169 56.4817 150.098 57.2699 150.54 57.8002L151.308 57.1601ZM152.783 58.9299L151.308 57.1601L150.54 57.8002L152.015 59.5701L152.783 58.9299ZM149 59.75H152.399V58.75H149V59.75ZM146.75 62C146.75 60.7574 147.757 59.75 149 59.75V58.75C147.205 58.75 145.75 60.2051 145.75 62H146.75ZM146.75 64.6667L146.75 62H145.75L145.75 64.6667H146.75ZM147 64.9167C146.862 64.9167 146.75 64.8048 146.75 64.6667H145.75C145.75 65.357 146.31 65.9167 147 65.9167V64.9167ZM147.25 64.6667C147.25 64.8048 147.138 64.9167 147 64.9167L147 65.9167C147.69 65.9167 148.25 65.357 148.25 64.6667H147.25ZM147.25 62V64.6667H148.25V62H147.25ZM149 60.25C148.034 60.25 147.25 61.0335 147.25 62H148.25C148.25 61.5858 148.586 61.25 149 61.25V60.25ZM152.399 60.25L149 60.25V61.25L152.399 61.25V60.25ZM151.308 62.84L152.783 61.0701L152.015 60.4299L150.54 62.1998L151.308 62.84ZM151.34 63.1921C151.234 63.1037 151.22 62.946 151.308 62.84L150.54 62.1998C150.098 62.7301 150.169 63.5183 150.7 63.9603L151.34 63.1921ZM151.692 63.1601C151.604 63.2661 151.446 63.2805 151.34 63.1921L150.7 63.9603C151.23 64.4023 152.018 64.3306 152.46 63.8002L151.692 63.1601ZM154.192 60.1601L151.692 63.1601L152.46 63.8002L154.96 60.8002L154.192 60.1601ZM142 57.25C141.034 57.25 140.25 58.0335 140.25 59H141.25C141.25 58.5858 141.586 58.25 142 58.25V57.25ZM145 57.25H142V58.25H145V57.25ZM145.25 57C145.25 57.1381 145.138 57.25 145 57.25V58.25C145.69 58.25 146.25 57.6904 146.25 57H145.25ZM145 56.75C145.138 56.75 145.25 56.8619 145.25 57H146.25C146.25 56.3097 145.69 55.75 145 55.75V56.75ZM142 56.75H145V55.75H142V56.75ZM139.75 59C139.75 57.7574 140.757 56.75 142 56.75V55.75C140.205 55.75 138.75 57.2051 138.75 59H139.75ZM139.75 69V59H138.75V69H139.75ZM142 71.25C140.757 71.25 139.75 70.2427 139.75 69H138.75C138.75 70.7949 140.205 72.25 142 72.25V71.25ZM152 71.25H142V72.25H152V71.25ZM154.25 69C154.25 70.2427 153.243 71.25 152 71.25V72.25C153.795 72.25 155.25 70.7949 155.25 69H154.25ZM154.25 65V69H155.25V65H154.25ZM154 64.75C154.138 64.75 154.25 64.8619 154.25 65H155.25C155.25 64.3097 154.69 63.75 154 63.75V64.75ZM153.75 65C153.75 64.8619 153.862 64.75 154 64.75V63.75C153.31 63.75 152.75 64.3097 152.75 65H153.75ZM153.75 69V65H152.75V69H153.75ZM152 70.75C152.966 70.75 153.75 69.9665 153.75 69H152.75C152.75 69.4142 152.414 69.75 152 69.75V70.75ZM142 70.75H152V69.75H142V70.75ZM140.25 69C140.25 69.9665 141.034 70.75 142 70.75V69.75C141.586 69.75 141.25 69.4142 141.25 69H140.25ZM140.25 59V69H141.25V59H140.25Z" fill="white"/>
<path d="M168.232 69.256C167.357 69.256 166.573 69.1333 165.88 68.888C165.197 68.632 164.493 68.2053 163.768 67.608C163.619 67.4907 163.544 67.352 163.544 67.192C163.544 67.0533 163.597 66.9253 163.704 66.808L164.072 66.376C164.189 66.2267 164.323 66.152 164.472 66.152C164.589 66.152 164.723 66.2107 164.872 66.328C165.512 66.84 166.083 67.192 166.584 67.384C167.096 67.576 167.656 67.672 168.264 67.672C169 67.672 169.597 67.5067 170.056 67.176C170.515 66.8347 170.744 66.3707 170.744 65.784C170.744 65.4 170.627 65.1013 170.392 64.888C170.157 64.664 169.853 64.4933 169.48 64.376C169.117 64.2587 168.525 64.104 167.704 63.912C166.712 63.6773 165.939 63.4213 165.384 63.144C164.829 62.8667 164.429 62.536 164.184 62.152C163.949 61.7573 163.832 61.2613 163.832 60.664C163.832 60.0347 164.013 59.4693 164.376 58.968C164.739 58.4667 165.235 58.0773 165.864 57.8C166.504 57.5227 167.219 57.384 168.008 57.384C168.808 57.384 169.512 57.4907 170.12 57.704C170.739 57.9173 171.357 58.264 171.976 58.744C172.136 58.872 172.216 59.0053 172.216 59.144C172.216 59.2613 172.163 59.3893 172.056 59.528L171.704 59.944C171.576 60.0933 171.443 60.168 171.304 60.168C171.176 60.168 171.043 60.1147 170.904 60.008C170.392 59.6133 169.917 59.3413 169.48 59.192C169.043 59.0427 168.547 58.968 167.992 58.968C167.288 58.968 166.717 59.1227 166.28 59.432C165.843 59.7413 165.624 60.1307 165.624 60.6C165.624 60.9413 165.725 61.2133 165.928 61.416C166.131 61.6187 166.424 61.784 166.808 61.912C167.192 62.04 167.784 62.1947 168.584 62.376C169.555 62.6107 170.323 62.8613 170.888 63.128C171.453 63.384 171.875 63.7147 172.152 64.12C172.429 64.5253 172.568 65.0427 172.568 65.672C172.568 66.376 172.387 67 172.024 67.544C171.661 68.088 171.155 68.5093 170.504 68.808C169.853 69.1067 169.096 69.256 168.232 69.256ZM178.164 60.872C179.071 60.872 179.764 61.128 180.244 61.64C180.735 62.1413 180.98 62.792 180.98 63.592V68.44C180.98 68.6107 180.932 68.7493 180.836 68.856C180.74 68.952 180.601 69 180.42 69H179.844C179.673 69 179.535 68.952 179.428 68.856C179.332 68.7493 179.284 68.6107 179.284 68.44V64.12C179.284 63.544 179.14 63.1013 178.852 62.792C178.575 62.4827 178.175 62.328 177.652 62.328C177.14 62.328 176.708 62.504 176.356 62.856C176.015 63.208 175.844 63.6507 175.844 64.184V68.44C175.844 68.6107 175.796 68.7493 175.7 68.856C175.604 68.952 175.465 69 175.284 69H174.708C174.537 69 174.399 68.952 174.292 68.856C174.196 68.7493 174.148 68.6107 174.148 68.44V58.2C174.148 58.0187 174.196 57.88 174.292 57.784C174.399 57.688 174.537 57.64 174.708 57.64H175.284C175.465 57.64 175.604 57.688 175.7 57.784C175.796 57.88 175.844 58.0187 175.844 58.2V61.928C176.1 61.5867 176.425 61.3253 176.82 61.144C177.225 60.9627 177.673 60.872 178.164 60.872ZM186.257 60.872C187.324 60.872 188.145 61.1227 188.721 61.624C189.297 62.1147 189.585 62.7707 189.585 63.592V68.44C189.585 68.6107 189.537 68.7493 189.441 68.856C189.345 68.952 189.206 69 189.025 69H188.609C188.438 69 188.3 68.952 188.193 68.856C188.097 68.7493 188.049 68.6107 188.049 68.44V68.088C187.793 68.4613 187.441 68.7493 186.993 68.952C186.545 69.1547 186.022 69.256 185.425 69.256C184.604 69.256 183.926 69.0747 183.393 68.712C182.87 68.3387 182.609 67.7787 182.609 67.032C182.609 66.2 182.918 65.5867 183.537 65.192C184.166 64.7867 185.036 64.4827 186.145 64.28L187.953 63.944V63.656C187.953 63.2187 187.798 62.8827 187.489 62.648C187.19 62.4027 186.79 62.28 186.289 62.28C185.862 62.28 185.489 62.3547 185.169 62.504C184.86 62.6427 184.524 62.8773 184.161 63.208C184.022 63.3253 183.889 63.384 183.761 63.384C183.633 63.384 183.5 63.3253 183.361 63.208L183.105 62.984C182.966 62.856 182.897 62.7173 182.897 62.568C182.897 62.4293 182.961 62.296 183.089 62.168C183.548 61.7307 184.033 61.4053 184.545 61.192C185.057 60.9787 185.628 60.872 186.257 60.872ZM185.665 67.896C186.305 67.896 186.844 67.7253 187.281 67.384C187.729 67.0427 187.953 66.552 187.953 65.912V65.176L186.561 65.464C185.782 65.624 185.206 65.8053 184.833 66.008C184.46 66.2107 184.273 66.52 184.273 66.936C184.273 67.2347 184.396 67.4693 184.641 67.64C184.886 67.8107 185.228 67.896 185.665 67.896ZM195.075 61.032C195.31 61.032 195.55 61.0587 195.795 61.112C196.083 61.176 196.227 61.3467 196.227 61.624C196.227 61.6987 196.222 61.752 196.211 61.784L196.131 62.168C196.067 62.4667 195.907 62.616 195.651 62.616L195.507 62.6C195.315 62.568 195.144 62.552 194.995 62.552C194.462 62.552 194.03 62.7653 193.699 63.192C193.379 63.608 193.219 64.1893 193.219 64.936V68.44C193.219 68.6107 193.171 68.7493 193.075 68.856C192.979 68.952 192.84 69 192.659 69H192.083C191.912 69 191.774 68.952 191.667 68.856C191.571 68.7493 191.523 68.6107 191.523 68.44V61.672C191.523 61.4907 191.571 61.352 191.667 61.256C191.774 61.16 191.912 61.112 192.083 61.112H192.547C192.728 61.112 192.867 61.16 192.963 61.256C193.059 61.352 193.107 61.4907 193.107 61.672V62.296C193.299 61.9013 193.56 61.592 193.891 61.368C194.222 61.144 194.616 61.032 195.075 61.032ZM202.733 66.984C202.872 66.8667 203.005 66.808 203.133 66.808C203.261 66.808 203.395 66.8773 203.533 67.016L203.757 67.256C203.875 67.3947 203.933 67.528 203.933 67.656C203.933 67.7947 203.864 67.928 203.725 68.056C203.235 68.4827 202.744 68.7867 202.253 68.968C201.773 69.1493 201.24 69.24 200.653 69.24C199.832 69.24 199.117 69.0693 198.509 68.728C197.912 68.3867 197.448 67.9067 197.117 67.288C196.797 66.6587 196.637 65.9333 196.637 65.112C196.637 64.3013 196.792 63.576 197.101 62.936C197.421 62.2853 197.869 61.7787 198.445 61.416C199.032 61.0533 199.715 60.872 200.493 60.872C201.656 60.872 202.552 61.2187 203.181 61.912C203.811 62.5947 204.125 63.5387 204.125 64.744V64.888C204.115 65.0587 204.061 65.192 203.965 65.288C203.869 65.384 203.731 65.432 203.549 65.432H198.301C198.365 66.136 198.595 66.712 198.989 67.16C199.395 67.5973 199.96 67.816 200.685 67.816C201.08 67.816 201.427 67.7573 201.725 67.64C202.024 67.512 202.36 67.2933 202.733 66.984ZM200.461 62.216C199.875 62.216 199.4 62.392 199.037 62.744C198.685 63.0853 198.456 63.5707 198.349 64.2H202.461C202.419 63.5813 202.227 63.096 201.885 62.744C201.544 62.392 201.069 62.216 200.461 62.216Z" fill="white"/>
<path d="M131 42H213V38H131V42ZM219 48V80H223V48H219ZM213 86H131V90H213V86ZM125 80V48H121V80H125ZM131 86C127.686 86 125 83.3137 125 80H121C121 85.5228 125.477 90 131 90V86ZM219 80C219 83.3137 216.314 86 213 86V90C218.523 90 223 85.5228 223 80H219ZM213 42C216.314 42 219 44.6863 219 48H223C223 42.4772 218.523 38 213 38V42ZM131 38C125.477 38 121 42.4772 121 48H125C125 44.6863 127.686 42 131 42V38Z" fill="#C3CCD9"/>
</svg>
