<svg width="344" height="344" viewBox="0 0 344 344" fill="none" xmlns="http://www.w3.org/2000/svg">
<rect width="344" height="344" fill="#F6F8FB"/>
<path d="M92 156C92 151.582 95.5817 148 100 148H244C248.418 148 252 151.582 252 156V188C252 192.418 248.418 196 244 196H100C95.5817 196 92 192.418 92 188V156Z" fill="white"/>
<path d="M113.232 177.256C112.357 177.256 111.573 177.133 110.88 176.888C110.197 176.632 109.493 176.205 108.768 175.608C108.619 175.491 108.544 175.352 108.544 175.192C108.544 175.053 108.597 174.925 108.704 174.808L109.072 174.376C109.189 174.227 109.323 174.152 109.472 174.152C109.589 174.152 109.723 174.211 109.872 174.328C110.512 174.84 111.083 175.192 111.584 175.384C112.096 175.576 112.656 175.672 113.264 175.672C114 175.672 114.597 175.507 115.056 175.176C115.515 174.835 115.744 174.371 115.744 173.784C115.744 173.4 115.627 173.101 115.392 172.888C115.157 172.664 114.853 172.493 114.48 172.376C114.117 172.259 113.525 172.104 112.704 171.912C111.712 171.677 110.939 171.421 110.384 171.144C109.829 170.867 109.429 170.536 109.184 170.152C108.949 169.757 108.832 169.261 108.832 168.664C108.832 168.035 109.013 167.469 109.376 166.968C109.739 166.467 110.235 166.077 110.864 165.8C111.504 165.523 112.219 165.384 113.008 165.384C113.808 165.384 114.512 165.491 115.12 165.704C115.739 165.917 116.357 166.264 116.976 166.744C117.136 166.872 117.216 167.005 117.216 167.144C117.216 167.261 117.163 167.389 117.056 167.528L116.704 167.944C116.576 168.093 116.443 168.168 116.304 168.168C116.176 168.168 116.043 168.115 115.904 168.008C115.392 167.613 114.917 167.341 114.48 167.192C114.043 167.043 113.547 166.968 112.992 166.968C112.288 166.968 111.717 167.123 111.28 167.432C110.843 167.741 110.624 168.131 110.624 168.6C110.624 168.941 110.725 169.213 110.928 169.416C111.131 169.619 111.424 169.784 111.808 169.912C112.192 170.04 112.784 170.195 113.584 170.376C114.555 170.611 115.323 170.861 115.888 171.128C116.453 171.384 116.875 171.715 117.152 172.12C117.429 172.525 117.568 173.043 117.568 173.672C117.568 174.376 117.387 175 117.024 175.544C116.661 176.088 116.155 176.509 115.504 176.808C114.853 177.107 114.096 177.256 113.232 177.256ZM124.858 174.984C124.997 174.867 125.13 174.808 125.258 174.808C125.386 174.808 125.52 174.877 125.658 175.016L125.882 175.256C126 175.395 126.058 175.528 126.058 175.656C126.058 175.795 125.989 175.928 125.85 176.056C125.36 176.483 124.869 176.787 124.378 176.968C123.898 177.149 123.365 177.24 122.778 177.24C121.957 177.24 121.242 177.069 120.634 176.728C120.037 176.387 119.573 175.907 119.242 175.288C118.922 174.659 118.762 173.933 118.762 173.112C118.762 172.301 118.917 171.576 119.226 170.936C119.546 170.285 119.994 169.779 120.57 169.416C121.157 169.053 121.84 168.872 122.618 168.872C123.781 168.872 124.677 169.219 125.306 169.912C125.936 170.595 126.25 171.539 126.25 172.744V172.888C126.24 173.059 126.186 173.192 126.09 173.288C125.994 173.384 125.856 173.432 125.674 173.432H120.426C120.49 174.136 120.72 174.712 121.114 175.16C121.52 175.597 122.085 175.816 122.81 175.816C123.205 175.816 123.552 175.757 123.85 175.64C124.149 175.512 124.485 175.293 124.858 174.984ZM122.586 170.216C122 170.216 121.525 170.392 121.162 170.744C120.81 171.085 120.581 171.571 120.474 172.2H124.586C124.544 171.581 124.352 171.096 124.01 170.744C123.669 170.392 123.194 170.216 122.586 170.216ZM131.307 177.24C130.529 177.24 129.841 177.069 129.243 176.728C128.657 176.387 128.198 175.901 127.867 175.272C127.547 174.632 127.387 173.891 127.387 173.048C127.387 172.205 127.553 171.469 127.883 170.84C128.214 170.211 128.678 169.725 129.275 169.384C129.873 169.043 130.561 168.872 131.339 168.872C131.905 168.872 132.411 168.957 132.859 169.128C133.318 169.288 133.755 169.565 134.171 169.96C134.299 170.088 134.363 170.221 134.363 170.36C134.363 170.488 134.294 170.621 134.155 170.76L133.883 171.032C133.766 171.149 133.638 171.208 133.499 171.208C133.361 171.208 133.217 171.144 133.067 171.016C132.758 170.749 132.465 170.568 132.187 170.472C131.921 170.365 131.633 170.312 131.323 170.312C130.619 170.312 130.075 170.573 129.691 171.096C129.307 171.619 129.115 172.269 129.115 173.048C129.115 173.827 129.307 174.483 129.691 175.016C130.075 175.539 130.619 175.8 131.323 175.8C131.665 175.8 131.979 175.736 132.267 175.608C132.555 175.469 132.865 175.24 133.195 174.92C133.334 174.781 133.478 174.712 133.627 174.712C133.755 174.712 133.878 174.765 133.995 174.872L134.267 175.096C134.406 175.213 134.475 175.347 134.475 175.496C134.475 175.656 134.395 175.827 134.235 176.008C133.798 176.456 133.345 176.776 132.875 176.968C132.417 177.149 131.894 177.24 131.307 177.24ZM139.278 177.24C138.499 177.24 137.806 177.064 137.198 176.712C136.601 176.36 136.131 175.869 135.79 175.24C135.449 174.6 135.278 173.869 135.278 173.048C135.278 172.227 135.449 171.501 135.79 170.872C136.131 170.243 136.601 169.752 137.198 169.4C137.806 169.048 138.499 168.872 139.278 168.872C140.046 168.872 140.734 169.048 141.342 169.4C141.95 169.752 142.425 170.248 142.766 170.888C143.107 171.517 143.278 172.237 143.278 173.048C143.278 173.869 143.107 174.6 142.766 175.24C142.425 175.869 141.95 176.36 141.342 176.712C140.734 177.064 140.046 177.24 139.278 177.24ZM139.278 175.816C139.961 175.816 140.51 175.565 140.926 175.064C141.342 174.552 141.55 173.88 141.55 173.048C141.55 172.227 141.342 171.565 140.926 171.064C140.51 170.563 139.961 170.312 139.278 170.312C138.595 170.312 138.046 170.563 137.63 171.064C137.214 171.565 137.006 172.227 137.006 173.048C137.006 173.88 137.214 174.552 137.63 175.064C138.046 175.565 138.595 175.816 139.278 175.816ZM148.789 168.872C149.696 168.872 150.389 169.128 150.869 169.64C151.36 170.141 151.605 170.792 151.605 171.592V176.44C151.605 176.611 151.557 176.749 151.461 176.856C151.365 176.952 151.226 177 151.045 177H150.469C150.298 177 150.16 176.952 150.053 176.856C149.957 176.749 149.909 176.611 149.909 176.44V172.12C149.909 171.544 149.765 171.101 149.477 170.792C149.2 170.483 148.8 170.328 148.277 170.328C147.765 170.328 147.333 170.504 146.981 170.856C146.64 171.208 146.469 171.651 146.469 172.184V176.44C146.469 176.611 146.421 176.749 146.325 176.856C146.229 176.952 146.09 177 145.909 177H145.333C145.162 177 145.024 176.952 144.917 176.856C144.821 176.749 144.773 176.611 144.773 176.44V169.672C144.773 169.491 144.821 169.352 144.917 169.256C145.024 169.16 145.162 169.112 145.333 169.112H145.797C145.978 169.112 146.117 169.16 146.213 169.256C146.309 169.352 146.357 169.491 146.357 169.672V170.088C146.613 169.693 146.949 169.395 147.365 169.192C147.781 168.979 148.256 168.872 148.789 168.872ZM159.106 166.184C159.106 166.003 159.154 165.864 159.25 165.768C159.357 165.672 159.495 165.624 159.666 165.624H160.242C160.423 165.624 160.562 165.672 160.658 165.768C160.754 165.864 160.802 166.003 160.802 166.184V176.44C160.802 176.611 160.754 176.749 160.658 176.856C160.562 176.952 160.423 177 160.242 177H159.778C159.607 177 159.469 176.952 159.362 176.856C159.266 176.749 159.218 176.611 159.218 176.44V175.88C158.663 176.776 157.794 177.224 156.61 177.224C155.949 177.224 155.351 177.053 154.818 176.712C154.295 176.371 153.885 175.885 153.586 175.256C153.287 174.627 153.138 173.896 153.138 173.064C153.138 172.243 153.287 171.517 153.586 170.888C153.895 170.259 154.317 169.773 154.85 169.432C155.383 169.091 155.981 168.92 156.642 168.92C157.73 168.92 158.551 169.299 159.106 170.056V166.184ZM156.962 175.768C157.613 175.768 158.146 175.528 158.562 175.048C158.978 174.557 159.186 173.896 159.186 173.064C159.186 172.232 158.978 171.576 158.562 171.096C158.146 170.616 157.613 170.376 156.962 170.376C156.333 170.376 155.826 170.621 155.442 171.112C155.058 171.603 154.866 172.253 154.866 173.064C154.866 173.885 155.053 174.541 155.426 175.032C155.81 175.523 156.322 175.768 156.962 175.768ZM166.101 168.872C167.168 168.872 167.989 169.123 168.565 169.624C169.141 170.115 169.429 170.771 169.429 171.592V176.44C169.429 176.611 169.381 176.749 169.285 176.856C169.189 176.952 169.05 177 168.869 177H168.453C168.282 177 168.144 176.952 168.037 176.856C167.941 176.749 167.893 176.611 167.893 176.44V176.088C167.637 176.461 167.285 176.749 166.837 176.952C166.389 177.155 165.866 177.256 165.269 177.256C164.448 177.256 163.77 177.075 163.237 176.712C162.714 176.339 162.453 175.779 162.453 175.032C162.453 174.2 162.762 173.587 163.381 173.192C164.01 172.787 164.88 172.483 165.989 172.28L167.797 171.944V171.656C167.797 171.219 167.642 170.883 167.333 170.648C167.034 170.403 166.634 170.28 166.133 170.28C165.706 170.28 165.333 170.355 165.013 170.504C164.704 170.643 164.368 170.877 164.005 171.208C163.866 171.325 163.733 171.384 163.605 171.384C163.477 171.384 163.344 171.325 163.205 171.208L162.949 170.984C162.81 170.856 162.741 170.717 162.741 170.568C162.741 170.429 162.805 170.296 162.933 170.168C163.392 169.731 163.877 169.405 164.389 169.192C164.901 168.979 165.472 168.872 166.101 168.872ZM165.509 175.896C166.149 175.896 166.688 175.725 167.125 175.384C167.573 175.043 167.797 174.552 167.797 173.912V173.176L166.405 173.464C165.626 173.624 165.05 173.805 164.677 174.008C164.304 174.211 164.117 174.52 164.117 174.936C164.117 175.235 164.24 175.469 164.485 175.64C164.73 175.811 165.072 175.896 165.509 175.896ZM174.919 169.032C175.153 169.032 175.393 169.059 175.639 169.112C175.927 169.176 176.071 169.347 176.071 169.624C176.071 169.699 176.065 169.752 176.055 169.784L175.975 170.168C175.911 170.467 175.751 170.616 175.495 170.616L175.351 170.6C175.159 170.568 174.988 170.552 174.839 170.552C174.305 170.552 173.873 170.765 173.543 171.192C173.223 171.608 173.063 172.189 173.063 172.936V176.44C173.063 176.611 173.015 176.749 172.919 176.856C172.823 176.952 172.684 177 172.503 177H171.927C171.756 177 171.617 176.952 171.511 176.856C171.415 176.749 171.367 176.611 171.367 176.44V169.672C171.367 169.491 171.415 169.352 171.511 169.256C171.617 169.16 171.756 169.112 171.927 169.112H172.391C172.572 169.112 172.711 169.16 172.807 169.256C172.903 169.352 172.951 169.491 172.951 169.672V170.296C173.143 169.901 173.404 169.592 173.735 169.368C174.065 169.144 174.46 169.032 174.919 169.032ZM182.449 169.576C182.545 169.267 182.753 169.112 183.073 169.112H183.649C183.809 169.112 183.931 169.149 184.017 169.224C184.102 169.299 184.145 169.4 184.145 169.528C184.145 169.592 184.129 169.667 184.097 169.752L181.233 177.976C180.977 178.723 180.657 179.251 180.273 179.56C179.899 179.88 179.366 180.04 178.673 180.04C178.353 180.04 178.081 180.019 177.857 179.976C177.707 179.965 177.595 179.912 177.521 179.816C177.446 179.731 177.409 179.624 177.409 179.496C177.409 179.421 177.414 179.363 177.425 179.32L177.473 179.112C177.547 178.813 177.707 178.664 177.953 178.664C178.049 178.664 178.139 178.669 178.225 178.68C178.31 178.691 178.395 178.696 178.481 178.696C178.79 178.696 179.046 178.616 179.249 178.456C179.462 178.296 179.638 178.003 179.777 177.576L179.825 177.448L177.089 169.752C177.057 169.667 177.041 169.587 177.041 169.512C177.041 169.384 177.083 169.288 177.169 169.224C177.265 169.149 177.393 169.112 177.553 169.112H178.161C178.491 169.112 178.705 169.267 178.801 169.576L179.425 171.448C179.894 172.792 180.294 174.024 180.625 175.144L181.089 173.72C181.163 173.496 181.275 173.144 181.425 172.664C181.574 172.184 181.707 171.773 181.825 171.432L182.449 169.576ZM193.137 168.904C193.809 168.904 194.406 169.075 194.929 169.416C195.462 169.757 195.878 170.243 196.177 170.872C196.475 171.501 196.625 172.227 196.625 173.048C196.625 173.88 196.475 174.611 196.177 175.24C195.878 175.869 195.462 176.355 194.929 176.696C194.395 177.037 193.798 177.208 193.137 177.208C191.953 177.208 191.083 176.765 190.529 175.88V176.44C190.529 176.611 190.481 176.749 190.385 176.856C190.289 176.952 190.15 177 189.969 177H189.505C189.334 177 189.195 176.952 189.089 176.856C188.993 176.749 188.945 176.611 188.945 176.44V166.2C188.945 166.019 188.993 165.88 189.089 165.784C189.195 165.688 189.334 165.64 189.505 165.64H190.081C190.262 165.64 190.401 165.688 190.497 165.784C190.593 165.88 190.641 166.019 190.641 166.2V170.104C191.206 169.304 192.038 168.904 193.137 168.904ZM192.785 175.736C193.425 175.736 193.937 175.496 194.321 175.016C194.705 174.525 194.897 173.869 194.897 173.048C194.897 172.237 194.705 171.587 194.321 171.096C193.947 170.605 193.441 170.36 192.801 170.36C192.15 170.36 191.617 170.605 191.201 171.096C190.785 171.576 190.577 172.227 190.577 173.048C190.577 173.891 190.785 174.552 191.201 175.032C191.617 175.501 192.145 175.736 192.785 175.736ZM203.172 169.672C203.172 169.491 203.22 169.352 203.316 169.256C203.422 169.16 203.561 169.112 203.732 169.112H204.308C204.489 169.112 204.628 169.16 204.724 169.256C204.82 169.352 204.868 169.491 204.868 169.672V176.44C204.868 176.611 204.82 176.749 204.724 176.856C204.628 176.952 204.489 177 204.308 177H203.876C203.705 177 203.566 176.952 203.46 176.856C203.364 176.749 203.316 176.611 203.316 176.44V176.072C203.102 176.435 202.793 176.723 202.388 176.936C201.982 177.139 201.502 177.24 200.948 177.24C200.009 177.24 199.31 177.011 198.852 176.552C198.393 176.083 198.164 175.464 198.164 174.696V169.672C198.164 169.491 198.212 169.352 198.308 169.256C198.414 169.16 198.553 169.112 198.724 169.112H199.299C199.481 169.112 199.62 169.16 199.716 169.256C199.812 169.352 199.86 169.491 199.86 169.672V174.248C199.86 174.739 199.982 175.117 200.228 175.384C200.484 175.64 200.852 175.768 201.332 175.768C201.886 175.768 202.329 175.608 202.66 175.288C203.001 174.968 203.172 174.504 203.172 173.896V169.672ZM210.628 175.656C210.66 175.645 210.708 175.64 210.772 175.64C211.038 175.64 211.198 175.795 211.252 176.104L211.3 176.36C211.31 176.392 211.316 176.445 211.316 176.52C211.316 176.787 211.166 176.957 210.868 177.032C210.441 177.128 210.052 177.176 209.7 177.176C208.942 177.176 208.393 177 208.052 176.648C207.721 176.296 207.556 175.768 207.556 175.064V170.408H206.676C206.505 170.408 206.366 170.36 206.26 170.264C206.164 170.157 206.116 170.019 206.116 169.848V169.672C206.116 169.491 206.164 169.352 206.26 169.256C206.366 169.16 206.505 169.112 206.676 169.112H207.556V167.128C207.556 166.947 207.604 166.808 207.7 166.712C207.806 166.616 207.945 166.568 208.116 166.568H208.692C208.873 166.568 209.012 166.616 209.108 166.712C209.204 166.808 209.252 166.947 209.252 167.128V169.112H210.692C210.873 169.112 211.012 169.16 211.108 169.256C211.204 169.352 211.252 169.491 211.252 169.672V169.848C211.252 170.019 211.204 170.157 211.108 170.264C211.012 170.36 210.873 170.408 210.692 170.408H209.252V174.856C209.252 175.165 209.316 175.384 209.444 175.512C209.582 175.64 209.801 175.704 210.1 175.704C210.228 175.704 210.404 175.688 210.628 175.656ZM216.487 175.656C216.519 175.645 216.567 175.64 216.631 175.64C216.898 175.64 217.058 175.795 217.111 176.104L217.159 176.36C217.17 176.392 217.175 176.445 217.175 176.52C217.175 176.787 217.026 176.957 216.727 177.032C216.3 177.128 215.911 177.176 215.559 177.176C214.802 177.176 214.252 177 213.911 176.648C213.58 176.296 213.415 175.768 213.415 175.064V170.408H212.535C212.364 170.408 212.226 170.36 212.119 170.264C212.023 170.157 211.975 170.019 211.975 169.848V169.672C211.975 169.491 212.023 169.352 212.119 169.256C212.226 169.16 212.364 169.112 212.535 169.112H213.415V167.128C213.415 166.947 213.463 166.808 213.559 166.712C213.666 166.616 213.804 166.568 213.975 166.568H214.551C214.732 166.568 214.871 166.616 214.967 166.712C215.063 166.808 215.111 166.947 215.111 167.128V169.112H216.551C216.732 169.112 216.871 169.16 216.967 169.256C217.063 169.352 217.111 169.491 217.111 169.672V169.848C217.111 170.019 217.063 170.157 216.967 170.264C216.871 170.36 216.732 170.408 216.551 170.408H215.111V174.856C215.111 175.165 215.175 175.384 215.303 175.512C215.442 175.64 215.66 175.704 215.959 175.704C216.087 175.704 216.263 175.688 216.487 175.656ZM221.809 177.24C221.031 177.24 220.337 177.064 219.729 176.712C219.132 176.36 218.663 175.869 218.321 175.24C217.98 174.6 217.809 173.869 217.809 173.048C217.809 172.227 217.98 171.501 218.321 170.872C218.663 170.243 219.132 169.752 219.729 169.4C220.337 169.048 221.031 168.872 221.809 168.872C222.577 168.872 223.265 169.048 223.873 169.4C224.481 169.752 224.956 170.248 225.297 170.888C225.639 171.517 225.809 172.237 225.809 173.048C225.809 173.869 225.639 174.6 225.297 175.24C224.956 175.869 224.481 176.36 223.873 176.712C223.265 177.064 222.577 177.24 221.809 177.24ZM221.809 175.816C222.492 175.816 223.041 175.565 223.457 175.064C223.873 174.552 224.081 173.88 224.081 173.048C224.081 172.227 223.873 171.565 223.457 171.064C223.041 170.563 222.492 170.312 221.809 170.312C221.127 170.312 220.577 170.563 220.161 171.064C219.745 171.565 219.537 172.227 219.537 173.048C219.537 173.88 219.745 174.552 220.161 175.064C220.577 175.565 221.127 175.816 221.809 175.816ZM231.32 168.872C232.227 168.872 232.92 169.128 233.4 169.64C233.891 170.141 234.136 170.792 234.136 171.592V176.44C234.136 176.611 234.088 176.749 233.992 176.856C233.896 176.952 233.757 177 233.576 177H233C232.829 177 232.691 176.952 232.584 176.856C232.488 176.749 232.44 176.611 232.44 176.44V172.12C232.44 171.544 232.296 171.101 232.008 170.792C231.731 170.483 231.331 170.328 230.808 170.328C230.296 170.328 229.864 170.504 229.512 170.856C229.171 171.208 229 171.651 229 172.184V176.44C229 176.611 228.952 176.749 228.856 176.856C228.76 176.952 228.621 177 228.44 177H227.864C227.693 177 227.555 176.952 227.448 176.856C227.352 176.749 227.304 176.611 227.304 176.44V169.672C227.304 169.491 227.352 169.352 227.448 169.256C227.555 169.16 227.693 169.112 227.864 169.112H228.328C228.509 169.112 228.648 169.16 228.744 169.256C228.84 169.352 228.888 169.491 228.888 169.672V170.088C229.144 169.693 229.48 169.395 229.896 169.192C230.312 168.979 230.787 168.872 231.32 168.872Z" fill="#0063FB"/>
<path d="M100 150H244V146H100V150ZM250 156V188H254V156H250ZM244 194H100V198H244V194ZM94 188V156H90V188H94ZM100 194C96.6863 194 94 191.314 94 188H90C90 193.523 94.4772 198 100 198V194ZM250 188C250 191.314 247.314 194 244 194V198C249.523 198 254 193.523 254 188H250ZM244 150C247.314 150 250 152.686 250 156H254C254 150.477 249.523 146 244 146V150ZM100 146C94.4772 146 90 150.477 90 156H94C94 152.686 96.6863 150 100 150V146Z" fill="#C3CCD9"/>
</svg>
