<svg width="344" height="344" viewBox="0 0 344 344" fill="none" xmlns="http://www.w3.org/2000/svg">
<rect width="344" height="344" fill="#F6F8FB"/>
<path d="M103 156C103 151.582 106.582 148 111 148H234C238.418 148 242 151.582 242 156V188C242 192.418 238.418 196 234 196H111C106.582 196 103 192.418 103 188V156Z" fill="#0063FB"/>
<path d="M120.792 177C120.621 177 120.483 176.952 120.376 176.856C120.28 176.749 120.232 176.611 120.232 176.44V166.2C120.232 166.019 120.28 165.88 120.376 165.784C120.483 165.688 120.621 165.64 120.792 165.64H125.384C126.515 165.64 127.416 165.955 128.088 166.584C128.76 167.203 129.096 168.051 129.096 169.128C129.096 170.205 128.76 171.053 128.088 171.672C127.416 172.291 126.515 172.6 125.384 172.6H122.056V176.44C122.056 176.611 122.008 176.749 121.912 176.856C121.816 176.952 121.677 177 121.496 177H120.792ZM125.096 171.08C125.779 171.08 126.312 170.915 126.696 170.584C127.091 170.243 127.288 169.757 127.288 169.128C127.288 168.488 127.091 168.003 126.696 167.672C126.312 167.331 125.779 167.16 125.096 167.16H122.056V171.08H125.096ZM134.153 169.032C134.388 169.032 134.628 169.059 134.873 169.112C135.161 169.176 135.305 169.347 135.305 169.624C135.305 169.699 135.3 169.752 135.289 169.784L135.209 170.168C135.145 170.467 134.985 170.616 134.729 170.616L134.585 170.6C134.393 170.568 134.222 170.552 134.073 170.552C133.54 170.552 133.108 170.765 132.777 171.192C132.457 171.608 132.297 172.189 132.297 172.936V176.44C132.297 176.611 132.249 176.749 132.153 176.856C132.057 176.952 131.918 177 131.737 177H131.161C130.99 177 130.852 176.952 130.745 176.856C130.649 176.749 130.601 176.611 130.601 176.44V169.672C130.601 169.491 130.649 169.352 130.745 169.256C130.852 169.16 130.99 169.112 131.161 169.112H131.625C131.806 169.112 131.945 169.16 132.041 169.256C132.137 169.352 132.185 169.491 132.185 169.672V170.296C132.377 169.901 132.638 169.592 132.969 169.368C133.3 169.144 133.694 169.032 134.153 169.032ZM137.403 167.576C137.093 167.576 136.832 167.475 136.618 167.272C136.405 167.059 136.299 166.808 136.299 166.52C136.299 166.221 136.405 165.971 136.618 165.768C136.832 165.565 137.093 165.464 137.403 165.464C137.712 165.464 137.973 165.565 138.187 165.768C138.4 165.971 138.507 166.221 138.507 166.52C138.507 166.808 138.4 167.059 138.187 167.272C137.973 167.475 137.712 167.576 137.403 167.576ZM137.099 177C136.928 177 136.789 176.952 136.683 176.856C136.587 176.749 136.539 176.611 136.539 176.44V169.672C136.539 169.491 136.587 169.352 136.683 169.256C136.789 169.16 136.928 169.112 137.099 169.112H137.674C137.856 169.112 137.995 169.16 138.091 169.256C138.187 169.352 138.235 169.491 138.235 169.672V176.44C138.235 176.611 138.187 176.749 138.091 176.856C137.995 176.952 137.856 177 137.674 177H137.099ZM148.659 168.872C149.501 168.872 150.152 169.112 150.611 169.592C151.069 170.061 151.299 170.696 151.299 171.496V176.44C151.299 176.611 151.251 176.749 151.155 176.856C151.059 176.952 150.92 177 150.739 177H150.163C149.992 177 149.853 176.952 149.747 176.856C149.651 176.749 149.603 176.611 149.603 176.44V172.008C149.603 171.485 149.485 171.075 149.251 170.776C149.016 170.477 148.659 170.328 148.179 170.328C147.688 170.328 147.299 170.493 147.011 170.824C146.733 171.155 146.595 171.581 146.595 172.104V176.44C146.595 176.611 146.547 176.749 146.451 176.856C146.355 176.952 146.216 177 146.035 177H145.459C145.288 177 145.149 176.952 145.043 176.856C144.947 176.749 144.899 176.611 144.899 176.44V172.008C144.899 171.485 144.781 171.075 144.547 170.776C144.323 170.477 143.971 170.328 143.491 170.328C143.021 170.328 142.643 170.483 142.355 170.792C142.067 171.101 141.912 171.501 141.891 171.992V176.44C141.891 176.611 141.843 176.749 141.747 176.856C141.651 176.952 141.512 177 141.331 177H140.755C140.584 177 140.445 176.952 140.339 176.856C140.243 176.749 140.195 176.611 140.195 176.44V169.672C140.195 169.491 140.243 169.352 140.339 169.256C140.445 169.16 140.584 169.112 140.755 169.112H141.219C141.4 169.112 141.539 169.16 141.635 169.256C141.731 169.352 141.779 169.491 141.779 169.672V170.024C142.269 169.256 143.027 168.872 144.051 168.872C144.563 168.872 145.011 168.979 145.395 169.192C145.779 169.405 146.072 169.704 146.275 170.088C146.819 169.277 147.613 168.872 148.659 168.872ZM156.57 168.872C157.636 168.872 158.458 169.123 159.034 169.624C159.61 170.115 159.898 170.771 159.898 171.592V176.44C159.898 176.611 159.85 176.749 159.754 176.856C159.658 176.952 159.519 177 159.338 177H158.922C158.751 177 158.612 176.952 158.506 176.856C158.41 176.749 158.362 176.611 158.362 176.44V176.088C158.106 176.461 157.754 176.749 157.306 176.952C156.858 177.155 156.335 177.256 155.738 177.256C154.916 177.256 154.239 177.075 153.706 176.712C153.183 176.339 152.922 175.779 152.922 175.032C152.922 174.2 153.231 173.587 153.85 173.192C154.479 172.787 155.348 172.483 156.458 172.28L158.266 171.944V171.656C158.266 171.219 158.111 170.883 157.802 170.648C157.503 170.403 157.103 170.28 156.602 170.28C156.175 170.28 155.802 170.355 155.482 170.504C155.172 170.643 154.836 170.877 154.474 171.208C154.335 171.325 154.202 171.384 154.074 171.384C153.946 171.384 153.812 171.325 153.674 171.208L153.418 170.984C153.279 170.856 153.21 170.717 153.21 170.568C153.21 170.429 153.274 170.296 153.402 170.168C153.86 169.731 154.346 169.405 154.858 169.192C155.37 168.979 155.94 168.872 156.57 168.872ZM155.978 175.896C156.618 175.896 157.156 175.725 157.594 175.384C158.042 175.043 158.266 174.552 158.266 173.912V173.176L156.874 173.464C156.095 173.624 155.519 173.805 155.146 174.008C154.772 174.211 154.586 174.52 154.586 174.936C154.586 175.235 154.708 175.469 154.954 175.64C155.199 175.811 155.54 175.896 155.978 175.896ZM165.387 169.032C165.622 169.032 165.862 169.059 166.107 169.112C166.395 169.176 166.539 169.347 166.539 169.624C166.539 169.699 166.534 169.752 166.523 169.784L166.443 170.168C166.379 170.467 166.219 170.616 165.963 170.616L165.819 170.6C165.627 170.568 165.457 170.552 165.307 170.552C164.774 170.552 164.342 170.765 164.011 171.192C163.691 171.608 163.531 172.189 163.531 172.936V176.44C163.531 176.611 163.483 176.749 163.387 176.856C163.291 176.952 163.153 177 162.971 177H162.395C162.225 177 162.086 176.952 161.979 176.856C161.883 176.749 161.835 176.611 161.835 176.44V169.672C161.835 169.491 161.883 169.352 161.979 169.256C162.086 169.16 162.225 169.112 162.395 169.112H162.859C163.041 169.112 163.179 169.16 163.275 169.256C163.371 169.352 163.419 169.491 163.419 169.672V170.296C163.611 169.901 163.873 169.592 164.203 169.368C164.534 169.144 164.929 169.032 165.387 169.032ZM172.917 169.576C173.013 169.267 173.221 169.112 173.541 169.112H174.117C174.277 169.112 174.4 169.149 174.485 169.224C174.571 169.299 174.613 169.4 174.613 169.528C174.613 169.592 174.597 169.667 174.565 169.752L171.701 177.976C171.445 178.723 171.125 179.251 170.741 179.56C170.368 179.88 169.835 180.04 169.141 180.04C168.821 180.04 168.549 180.019 168.325 179.976C168.176 179.965 168.064 179.912 167.989 179.816C167.915 179.731 167.877 179.624 167.877 179.496C167.877 179.421 167.883 179.363 167.893 179.32L167.941 179.112C168.016 178.813 168.176 178.664 168.421 178.664C168.517 178.664 168.608 178.669 168.693 178.68C168.779 178.691 168.864 178.696 168.949 178.696C169.259 178.696 169.515 178.616 169.717 178.456C169.931 178.296 170.107 178.003 170.245 177.576L170.293 177.448L167.557 169.752C167.525 169.667 167.509 169.587 167.509 169.512C167.509 169.384 167.552 169.288 167.637 169.224C167.733 169.149 167.861 169.112 168.021 169.112H168.629C168.96 169.112 169.173 169.267 169.269 169.576L169.893 171.448C170.363 172.792 170.763 174.024 171.093 175.144L171.557 173.72C171.632 173.496 171.744 173.144 171.893 172.664C172.043 172.184 172.176 171.773 172.293 171.432L172.917 169.576ZM183.606 168.904C184.278 168.904 184.875 169.075 185.398 169.416C185.931 169.757 186.347 170.243 186.646 170.872C186.944 171.501 187.094 172.227 187.094 173.048C187.094 173.88 186.944 174.611 186.646 175.24C186.347 175.869 185.931 176.355 185.398 176.696C184.864 177.037 184.267 177.208 183.606 177.208C182.422 177.208 181.552 176.765 180.998 175.88V176.44C180.998 176.611 180.95 176.749 180.854 176.856C180.758 176.952 180.619 177 180.438 177H179.974C179.803 177 179.664 176.952 179.558 176.856C179.462 176.749 179.414 176.611 179.414 176.44V166.2C179.414 166.019 179.462 165.88 179.558 165.784C179.664 165.688 179.803 165.64 179.974 165.64H180.549C180.731 165.64 180.87 165.688 180.966 165.784C181.062 165.88 181.11 166.019 181.11 166.2V170.104C181.675 169.304 182.507 168.904 183.606 168.904ZM183.254 175.736C183.894 175.736 184.406 175.496 184.79 175.016C185.174 174.525 185.366 173.869 185.366 173.048C185.366 172.237 185.174 171.587 184.79 171.096C184.416 170.605 183.91 170.36 183.27 170.36C182.619 170.36 182.086 170.605 181.67 171.096C181.254 171.576 181.046 172.227 181.046 173.048C181.046 173.891 181.254 174.552 181.67 175.032C182.086 175.501 182.614 175.736 183.254 175.736ZM193.64 169.672C193.64 169.491 193.688 169.352 193.784 169.256C193.891 169.16 194.03 169.112 194.2 169.112H194.776C194.958 169.112 195.096 169.16 195.192 169.256C195.288 169.352 195.336 169.491 195.336 169.672V176.44C195.336 176.611 195.288 176.749 195.192 176.856C195.096 176.952 194.958 177 194.776 177H194.344C194.174 177 194.035 176.952 193.928 176.856C193.832 176.749 193.784 176.611 193.784 176.44V176.072C193.571 176.435 193.262 176.723 192.856 176.936C192.451 177.139 191.971 177.24 191.416 177.24C190.478 177.24 189.779 177.011 189.32 176.552C188.862 176.083 188.632 175.464 188.632 174.696V169.672C188.632 169.491 188.68 169.352 188.776 169.256C188.883 169.16 189.022 169.112 189.192 169.112H189.768C189.95 169.112 190.088 169.16 190.184 169.256C190.28 169.352 190.328 169.491 190.328 169.672V174.248C190.328 174.739 190.451 175.117 190.696 175.384C190.952 175.64 191.32 175.768 191.8 175.768C192.355 175.768 192.798 175.608 193.128 175.288C193.47 174.968 193.64 174.504 193.64 173.896V169.672ZM201.097 175.656C201.129 175.645 201.177 175.64 201.241 175.64C201.507 175.64 201.667 175.795 201.721 176.104L201.769 176.36C201.779 176.392 201.785 176.445 201.785 176.52C201.785 176.787 201.635 176.957 201.337 177.032C200.91 177.128 200.521 177.176 200.169 177.176C199.411 177.176 198.862 177 198.521 176.648C198.19 176.296 198.025 175.768 198.025 175.064V170.408H197.145C196.974 170.408 196.835 170.36 196.729 170.264C196.633 170.157 196.585 170.019 196.585 169.848V169.672C196.585 169.491 196.633 169.352 196.729 169.256C196.835 169.16 196.974 169.112 197.145 169.112H198.025V167.128C198.025 166.947 198.073 166.808 198.169 166.712C198.275 166.616 198.414 166.568 198.585 166.568H199.161C199.342 166.568 199.481 166.616 199.577 166.712C199.673 166.808 199.721 166.947 199.721 167.128V169.112H201.161C201.342 169.112 201.481 169.16 201.577 169.256C201.673 169.352 201.721 169.491 201.721 169.672V169.848C201.721 170.019 201.673 170.157 201.577 170.264C201.481 170.36 201.342 170.408 201.161 170.408H199.721V174.856C199.721 175.165 199.785 175.384 199.913 175.512C200.051 175.64 200.27 175.704 200.569 175.704C200.697 175.704 200.873 175.688 201.097 175.656ZM206.956 175.656C206.988 175.645 207.036 175.64 207.1 175.64C207.367 175.64 207.527 175.795 207.58 176.104L207.628 176.36C207.639 176.392 207.644 176.445 207.644 176.52C207.644 176.787 207.495 176.957 207.196 177.032C206.769 177.128 206.38 177.176 206.028 177.176C205.271 177.176 204.721 177 204.38 176.648C204.049 176.296 203.884 175.768 203.884 175.064V170.408H203.004C202.833 170.408 202.695 170.36 202.588 170.264C202.492 170.157 202.444 170.019 202.444 169.848V169.672C202.444 169.491 202.492 169.352 202.588 169.256C202.695 169.16 202.833 169.112 203.004 169.112H203.884V167.128C203.884 166.947 203.932 166.808 204.028 166.712C204.135 166.616 204.273 166.568 204.444 166.568H205.02C205.201 166.568 205.34 166.616 205.436 166.712C205.532 166.808 205.58 166.947 205.58 167.128V169.112H207.02C207.201 169.112 207.34 169.16 207.436 169.256C207.532 169.352 207.58 169.491 207.58 169.672V169.848C207.58 170.019 207.532 170.157 207.436 170.264C207.34 170.36 207.201 170.408 207.02 170.408H205.58V174.856C205.58 175.165 205.644 175.384 205.772 175.512C205.911 175.64 206.129 175.704 206.428 175.704C206.556 175.704 206.732 175.688 206.956 175.656ZM212.278 177.24C211.499 177.24 210.806 177.064 210.198 176.712C209.601 176.36 209.131 175.869 208.79 175.24C208.449 174.6 208.278 173.869 208.278 173.048C208.278 172.227 208.449 171.501 208.79 170.872C209.131 170.243 209.601 169.752 210.198 169.4C210.806 169.048 211.499 168.872 212.278 168.872C213.046 168.872 213.734 169.048 214.342 169.4C214.95 169.752 215.425 170.248 215.766 170.888C216.107 171.517 216.278 172.237 216.278 173.048C216.278 173.869 216.107 174.6 215.766 175.24C215.425 175.869 214.95 176.36 214.342 176.712C213.734 177.064 213.046 177.24 212.278 177.24ZM212.278 175.816C212.961 175.816 213.51 175.565 213.926 175.064C214.342 174.552 214.55 173.88 214.55 173.048C214.55 172.227 214.342 171.565 213.926 171.064C213.51 170.563 212.961 170.312 212.278 170.312C211.595 170.312 211.046 170.563 210.63 171.064C210.214 171.565 210.006 172.227 210.006 173.048C210.006 173.88 210.214 174.552 210.63 175.064C211.046 175.565 211.595 175.816 212.278 175.816ZM221.789 168.872C222.696 168.872 223.389 169.128 223.869 169.64C224.36 170.141 224.605 170.792 224.605 171.592V176.44C224.605 176.611 224.557 176.749 224.461 176.856C224.365 176.952 224.226 177 224.045 177H223.469C223.298 177 223.16 176.952 223.053 176.856C222.957 176.749 222.909 176.611 222.909 176.44V172.12C222.909 171.544 222.765 171.101 222.477 170.792C222.2 170.483 221.8 170.328 221.277 170.328C220.765 170.328 220.333 170.504 219.981 170.856C219.64 171.208 219.469 171.651 219.469 172.184V176.44C219.469 176.611 219.421 176.749 219.325 176.856C219.229 176.952 219.09 177 218.909 177H218.333C218.162 177 218.024 176.952 217.917 176.856C217.821 176.749 217.773 176.611 217.773 176.44V169.672C217.773 169.491 217.821 169.352 217.917 169.256C218.024 169.16 218.162 169.112 218.333 169.112H218.797C218.978 169.112 219.117 169.16 219.213 169.256C219.309 169.352 219.357 169.491 219.357 169.672V170.088C219.613 169.693 219.949 169.395 220.365 169.192C220.781 168.979 221.256 168.872 221.789 168.872Z" fill="white"/>
<path d="M111 150H234V146H111V150ZM240 156V188H244V156H240ZM234 194H111V198H234V194ZM105 188V156H101V188H105ZM111 194C107.686 194 105 191.314 105 188H101C101 193.523 105.477 198 111 198V194ZM240 188C240 191.314 237.314 194 234 194V198C239.523 198 244 193.523 244 188H240ZM234 150C237.314 150 240 152.686 240 156H244C244 150.477 239.523 146 234 146V150ZM111 146C105.477 146 101 150.477 101 156H105C105 152.686 107.686 150 111 150V146Z" fill="#0063FB"/>
</svg>
