<svg width="261" height="32" viewBox="0 0 261 32" fill="none" xmlns="http://www.w3.org/2000/svg">
<path d="M2.48321 24.9678C1.80289 24.9678 1.21327 24.7297 0.714368 24.2535C0.238142 23.7546 2.84524e-05 23.1536 2.84524e-05 22.4506C2.84524e-05 21.793 0.238142 21.2261 0.714368 20.7498C1.21327 20.2509 1.80289 20.0015 2.48321 20.0015C3.16353 20.0015 3.74181 20.2509 4.21803 20.7498C4.71694 21.2261 4.96639 21.793 4.96639 22.4506C4.96639 23.1536 4.71694 23.7546 4.21803 24.2535C3.74181 24.7297 3.16353 24.9678 2.48321 24.9678ZM10.5238 24.6277C10.1609 24.6277 9.86614 24.5256 9.63936 24.3215C9.43527 24.0948 9.33322 23.8 9.33322 23.4371V1.66676C9.33322 1.28124 9.43527 0.986435 9.63936 0.782338C9.86614 0.578241 10.1609 0.476192 10.5238 0.476192H12.0205C12.406 0.476192 12.7008 0.578241 12.9049 0.782338C13.109 0.986435 13.2111 1.28124 13.2111 1.66676V23.4371C13.2111 23.8 13.109 24.0948 12.9049 24.3215C12.7008 24.5256 12.406 24.6277 12.0205 24.6277H10.5238ZM29.9547 8.94622C29.9547 8.60606 30.0568 8.34527 30.2609 8.16385C30.4876 7.95975 30.7825 7.8577 31.1453 7.8577H32.0977C32.4833 7.8577 32.7781 7.95975 32.9822 8.16385C33.1863 8.36795 33.2883 8.66275 33.2883 9.04827V24.0154C33.2883 26.2605 32.5626 28.0066 31.1113 29.2539C29.6826 30.5011 27.7777 31.1248 25.3966 31.1248C23.0154 31.1248 20.7704 30.5125 18.6614 29.2879C18.2305 29.0611 18.015 28.755 18.015 28.3695C18.015 28.1654 18.1058 27.9159 18.2872 27.6211L18.7294 26.9748C18.9788 26.5893 19.285 26.3965 19.6478 26.3965C19.8973 26.3965 20.1467 26.4759 20.3962 26.6346C21.3033 27.1562 22.1423 27.5304 22.9134 27.7572C23.6844 28.0066 24.5008 28.1313 25.3625 28.1313C26.6778 28.1313 27.7323 27.7685 28.526 27.0428C29.3424 26.3398 29.7506 25.2286 29.7506 23.7092V21.9064C28.6168 23.5165 26.9159 24.3215 24.6482 24.3215C23.2422 24.3215 21.9723 23.97 20.8384 23.267C19.7272 22.5414 18.8541 21.5435 18.2191 20.2736C17.6069 18.981 17.3007 17.507 17.3007 15.8515C17.3007 14.1961 17.6069 12.7334 18.2191 11.4634C18.8541 10.1708 19.7272 9.16166 20.8384 8.43598C21.9723 7.7103 23.2422 7.34746 24.6482 7.34746C27.052 7.34746 28.8209 8.24322 29.9547 10.0347V8.94622ZM25.3625 21.2941C26.6778 21.2941 27.755 20.7952 28.5941 19.7974C29.4331 18.7769 29.8527 17.4616 29.8527 15.8515C29.8527 14.2641 29.4331 12.9715 28.5941 11.9737C27.7777 10.9532 26.7005 10.4429 25.3625 10.4429C24.0019 10.4429 22.9247 10.9418 22.131 11.9396C21.3373 12.9375 20.9404 14.2414 20.9404 15.8515C20.9404 17.4843 21.3373 18.7996 22.131 19.7974C22.9247 20.7952 24.0019 21.2941 25.3625 21.2941ZM45.9894 7.34746C47.917 7.34746 49.391 7.89172 50.4115 8.98024C51.4546 10.0461 51.9762 11.4294 51.9762 13.1302V23.4371C51.9762 23.8 51.8742 24.0948 51.6701 24.3215C51.466 24.5256 51.1712 24.6277 50.7856 24.6277H49.5611C49.1982 24.6277 48.9034 24.5256 48.6766 24.3215C48.4725 24.0948 48.3705 23.8 48.3705 23.4371V14.2527C48.3705 13.0282 48.0644 12.087 47.4521 11.4294C46.8624 10.7718 46.012 10.4429 44.9008 10.4429C43.8123 10.4429 42.8939 10.8171 42.1455 11.5655C41.4199 12.3138 41.057 13.2549 41.057 14.3888V23.4371C41.057 23.8 40.955 24.0948 40.7509 24.3215C40.5468 24.5256 40.252 24.6277 39.8665 24.6277H38.6419C38.279 24.6277 37.9842 24.5256 37.7575 24.3215C37.5534 24.0948 37.4513 23.8 37.4513 23.4371V9.04827C37.4513 8.66275 37.5534 8.36795 37.7575 8.16385C37.9842 7.95975 38.279 7.8577 38.6419 7.8577H39.6283C40.0139 7.8577 40.3087 7.95975 40.5128 8.16385C40.7169 8.36795 40.8189 8.66275 40.8189 9.04827V9.93269C41.3632 9.09362 42.0775 8.45866 42.9619 8.02778C43.8463 7.57423 44.8555 7.34746 45.9894 7.34746ZM63.6719 25.1379C62.0165 25.1379 60.5424 24.7637 59.2498 24.0154C57.9799 23.267 56.9821 22.2239 56.2564 20.8859C55.5307 19.5253 55.1679 17.9718 55.1679 16.2257C55.1679 14.4795 55.5307 12.9375 56.2564 11.5995C56.9821 10.2615 57.9799 9.21835 59.2498 8.46999C60.5424 7.72164 62.0165 7.34746 63.6719 7.34746C65.3047 7.34746 66.7674 7.72164 68.06 8.46999C69.3526 9.21835 70.3618 10.2729 71.0875 11.6335C71.8131 12.9715 72.176 14.5022 72.176 16.2257C72.176 17.9718 71.8131 19.5253 71.0875 20.8859C70.3618 22.2239 69.3526 23.267 68.06 24.0154C66.7674 24.7637 65.3047 25.1379 63.6719 25.1379ZM63.6719 22.1105C65.1233 22.1105 66.2912 21.5776 67.1756 20.5117C68.06 19.4232 68.5022 17.9945 68.5022 16.2257C68.5022 14.4795 68.06 13.0735 67.1756 12.0077C66.2912 10.9418 65.1233 10.4089 63.6719 10.4089C62.2206 10.4089 61.0527 10.9418 60.1683 12.0077C59.2838 13.0735 58.8416 14.4795 58.8416 16.2257C58.8416 17.9945 59.2838 19.4232 60.1683 20.5117C61.0527 21.5776 62.2206 22.1105 63.6719 22.1105ZM82.9057 7.68762C83.4046 7.68762 83.9148 7.74432 84.4364 7.8577C85.0487 7.99377 85.3549 8.35661 85.3549 8.94622C85.3549 9.10496 85.3435 9.21835 85.3208 9.28638L85.1508 10.1028C85.0147 10.7377 84.6745 11.0552 84.1303 11.0552L83.8241 11.0212C83.4159 10.9532 83.0531 10.9192 82.7356 10.9192C81.6017 10.9192 80.6833 11.3727 79.9803 12.2798C79.3 13.1642 78.9598 14.4001 78.9598 15.9876V23.4371C78.9598 23.8 78.8578 24.0948 78.6537 24.3215C78.4496 24.5256 78.1548 24.6277 77.7692 24.6277H76.5447C76.1818 24.6277 75.887 24.5256 75.6602 24.3215C75.4561 24.0948 75.3541 23.8 75.3541 23.4371V9.04827C75.3541 8.66275 75.4561 8.36795 75.6602 8.16385C75.887 7.95975 76.1818 7.8577 76.5447 7.8577H77.5311C77.9166 7.8577 78.2115 7.95975 78.4156 8.16385C78.6196 8.36795 78.7217 8.66275 78.7217 9.04827V10.3749C79.1299 9.53583 79.6855 8.87819 80.3885 8.40196C81.0915 7.92573 81.9306 7.68762 82.9057 7.68762ZM99.1877 20.3416C99.4826 20.0922 99.766 19.9675 100.038 19.9675C100.31 19.9675 100.594 20.1149 100.889 20.4097L101.365 20.9199C101.614 21.2147 101.739 21.4982 101.739 21.7703C101.739 22.0651 101.592 22.3486 101.297 22.6207C100.254 23.5278 99.2104 24.1741 98.1673 24.5596C97.1468 24.9452 96.0129 25.1379 94.7656 25.1379C93.0195 25.1379 91.5001 24.7751 90.2075 24.0494C88.9375 23.3237 87.9511 22.3032 87.2481 20.9879C86.5677 19.65 86.2276 18.1079 86.2276 16.3617C86.2276 14.6383 86.5564 13.0962 87.214 11.7355C87.8944 10.3522 88.8468 9.27504 90.0714 8.50401C91.3187 7.73298 92.77 7.34746 94.4255 7.34746C96.8973 7.34746 98.8022 8.08448 100.14 9.55851C101.478 11.0099 102.147 13.0168 102.147 15.5794V15.8855C102.124 16.2484 102.011 16.5318 101.807 16.7359C101.603 16.94 101.308 17.0421 100.923 17.0421H89.7653C89.9013 18.5388 90.3889 19.7634 91.228 20.7158C92.0897 21.6456 93.2916 22.1105 94.8337 22.1105C95.6727 22.1105 96.4098 21.9858 97.0447 21.7363C97.6797 21.4642 98.394 20.9993 99.1877 20.3416ZM94.3574 10.2048C93.1102 10.2048 92.101 10.579 91.33 11.3274C90.5817 12.053 90.0941 13.0849 89.8673 14.4228H98.6095C98.5188 13.1075 98.1106 12.0757 97.3849 11.3274C96.6592 10.579 95.6501 10.2048 94.3574 10.2048ZM121.153 21.7703C121.221 21.7476 121.324 21.7363 121.46 21.7363C122.027 21.7363 122.367 22.0651 122.48 22.7228L122.582 23.267C122.605 23.3351 122.616 23.4485 122.616 23.6072C122.616 24.1741 122.299 24.537 121.664 24.6957C120.757 24.8998 119.929 25.0019 119.18 25.0019C117.57 25.0019 116.402 24.6277 115.677 23.8793C114.974 23.131 114.622 22.0084 114.622 20.5117V10.613H112.751C112.389 10.613 112.094 10.511 111.867 10.3069C111.663 10.0801 111.561 9.78529 111.561 9.42245V9.04827C111.561 8.66275 111.663 8.36795 111.867 8.16385C112.094 7.95975 112.389 7.8577 112.751 7.8577H114.622V3.6397C114.622 3.25418 114.724 2.95937 114.928 2.75528C115.155 2.55118 115.45 2.44913 115.813 2.44913H117.037C117.423 2.44913 117.718 2.55118 117.922 2.75528C118.126 2.95937 118.228 3.25418 118.228 3.6397V7.8577H121.289C121.675 7.8577 121.97 7.95975 122.174 8.16385C122.378 8.36795 122.48 8.66275 122.48 9.04827V9.42245C122.48 9.78529 122.378 10.0801 122.174 10.3069C121.97 10.511 121.675 10.613 121.289 10.613H118.228V20.0695C118.228 20.7272 118.364 21.192 118.636 21.4642C118.931 21.7363 119.396 21.8724 120.031 21.8724C120.303 21.8724 120.677 21.8384 121.153 21.7703ZM133.986 7.34746C135.914 7.34746 137.388 7.89172 138.408 8.98024C139.452 10.0461 139.973 11.4294 139.973 13.1302V23.4371C139.973 23.8 139.871 24.0948 139.667 24.3215C139.463 24.5256 139.168 24.6277 138.783 24.6277H137.558C137.195 24.6277 136.9 24.5256 136.674 24.3215C136.469 24.0948 136.367 23.8 136.367 23.4371V14.2527C136.367 13.0282 136.061 12.087 135.449 11.4294C134.859 10.7718 134.009 10.4429 132.898 10.4429C131.809 10.4429 130.891 10.8171 130.142 11.5655C129.417 12.3138 129.054 13.2549 129.054 14.3888V23.4371C129.054 23.8 128.952 24.0948 128.748 24.3215C128.544 24.5256 128.249 24.6277 127.863 24.6277H126.639C126.276 24.6277 125.981 24.5256 125.754 24.3215C125.55 24.0948 125.448 23.8 125.448 23.4371V1.66676C125.448 1.28124 125.55 0.986435 125.754 0.782338C125.981 0.578241 126.276 0.476192 126.639 0.476192H127.863C128.249 0.476192 128.544 0.578241 128.748 0.782338C128.952 0.986435 129.054 1.28124 129.054 1.66676V9.59253C129.598 8.86685 130.29 8.31125 131.129 7.92573C131.991 7.54022 132.943 7.34746 133.986 7.34746ZM145.954 4.59215C145.296 4.59215 144.741 4.37671 144.287 3.94584C143.834 3.49229 143.607 2.95937 143.607 2.34708C143.607 1.71211 143.834 1.17919 144.287 0.748322C144.741 0.31745 145.296 0.102015 145.954 0.102015C146.612 0.102015 147.167 0.31745 147.621 0.748322C148.074 1.17919 148.301 1.71211 148.301 2.34708C148.301 2.95937 148.074 3.49229 147.621 3.94584C147.167 4.37671 146.612 4.59215 145.954 4.59215ZM145.308 24.6277C144.945 24.6277 144.65 24.5256 144.423 24.3215C144.219 24.0948 144.117 23.8 144.117 23.4371V9.04827C144.117 8.66275 144.219 8.36795 144.423 8.16385C144.65 7.95975 144.945 7.8577 145.308 7.8577H146.532C146.918 7.8577 147.213 7.95975 147.417 8.16385C147.621 8.36795 147.723 8.66275 147.723 9.04827V23.4371C147.723 23.8 147.621 24.0948 147.417 24.3215C147.213 24.5256 146.918 24.6277 146.532 24.6277H145.308ZM158.354 25.1379C156.97 25.1379 155.734 24.9678 154.646 24.6277C153.58 24.2648 152.491 23.6412 151.38 22.7568C151.04 22.5073 150.87 22.2239 150.87 21.9064C150.87 21.6569 150.995 21.3848 151.244 21.09L151.754 20.5117C152.027 20.1942 152.321 20.0355 152.639 20.0355C152.888 20.0355 153.16 20.1489 153.455 20.3757C154.408 21.0787 155.247 21.5662 155.972 21.8384C156.698 22.0878 157.515 22.2125 158.422 22.2125C159.397 22.2125 160.19 22.0198 160.803 21.6343C161.438 21.2261 161.755 20.6818 161.755 20.0015C161.755 19.4799 161.574 19.0717 161.211 18.7769C160.871 18.4594 160.417 18.2213 159.85 18.0626C159.283 17.8811 158.444 17.677 157.333 17.4503C155.768 17.1101 154.544 16.7473 153.659 16.3617C152.798 15.9536 152.174 15.4433 151.788 14.831C151.403 14.2187 151.21 13.4364 151.21 12.4839C151.21 11.5088 151.482 10.6357 152.027 9.86466C152.593 9.09362 153.376 8.48133 154.374 8.02778C155.394 7.57423 156.585 7.34746 157.945 7.34746C159.17 7.34746 160.258 7.48352 161.211 7.75565C162.186 8.02778 163.139 8.49267 164.068 9.15032C164.431 9.42245 164.613 9.72859 164.613 10.0688C164.613 10.2955 164.499 10.5563 164.272 10.8511L163.83 11.3954C163.581 11.7129 163.275 11.8716 162.912 11.8716C162.64 11.8716 162.379 11.7809 162.129 11.5995C161.381 11.1006 160.689 10.7604 160.054 10.579C159.419 10.3749 158.705 10.2729 157.911 10.2729C156.936 10.2729 156.154 10.4656 155.564 10.8511C154.975 11.2366 154.68 11.7355 154.68 12.3478C154.68 12.756 154.816 13.0849 155.088 13.3343C155.383 13.5611 155.791 13.7652 156.313 13.9466C156.857 14.1053 157.707 14.3094 158.864 14.5589C160.429 14.8991 161.664 15.2846 162.572 15.7154C163.501 16.1236 164.182 16.6566 164.613 17.3142C165.066 17.9492 165.293 18.7769 165.293 19.7974C165.293 21.3848 164.658 22.6774 163.388 23.6752C162.141 24.6504 160.463 25.1379 158.354 25.1379ZM183.389 2.99339C182.595 2.99339 182.017 3.18615 181.654 3.57166C181.291 3.95718 181.11 4.61483 181.11 5.5446V7.8577H183.865C184.251 7.8577 184.545 7.95975 184.75 8.16385C184.954 8.36795 185.056 8.66275 185.056 9.04827V9.42245C185.056 9.78529 184.954 10.0801 184.75 10.3069C184.545 10.511 184.251 10.613 183.865 10.613H181.11V23.4371C181.11 23.8 181.008 24.0948 180.804 24.3215C180.6 24.5256 180.305 24.6277 179.919 24.6277H178.695C178.332 24.6277 178.037 24.5256 177.81 24.3215C177.606 24.0948 177.504 23.8 177.504 23.4371V10.613H175.701C175.338 10.613 175.044 10.511 174.817 10.3069C174.613 10.0801 174.511 9.78529 174.511 9.42245V9.04827C174.511 8.66275 174.613 8.36795 174.817 8.16385C175.044 7.95975 175.338 7.8577 175.701 7.8577H177.504V5.30649C177.504 3.56033 177.946 2.24503 178.831 1.36061C179.738 0.453515 181.042 -3.44679e-05 182.743 -3.44679e-05C183.514 -3.44679e-05 184.296 0.0793369 185.09 0.23808C185.679 0.396821 185.974 0.75966 185.974 1.3266C185.974 1.48534 185.963 1.61006 185.94 1.70077L185.838 2.177C185.702 2.76662 185.26 3.06142 184.511 3.06142L184.103 3.0274C183.945 3.00473 183.706 2.99339 183.389 2.99339ZM195.319 7.68762C195.817 7.68762 196.328 7.74432 196.849 7.8577C197.462 7.99377 197.768 8.35661 197.768 8.94622C197.768 9.10496 197.756 9.21835 197.734 9.28638L197.564 10.1028C197.428 10.7377 197.087 11.0552 196.543 11.0552L196.237 11.0212C195.829 10.9532 195.466 10.9192 195.148 10.9192C194.015 10.9192 193.096 11.3727 192.393 12.2798C191.713 13.1642 191.373 14.4001 191.373 15.9876V23.4371C191.373 23.8 191.271 24.0948 191.066 24.3215C190.862 24.5256 190.568 24.6277 190.182 24.6277H188.957C188.595 24.6277 188.3 24.5256 188.073 24.3215C187.869 24.0948 187.767 23.8 187.767 23.4371V9.04827C187.767 8.66275 187.869 8.36795 188.073 8.16385C188.3 7.95975 188.595 7.8577 188.957 7.8577H189.944C190.329 7.8577 190.624 7.95975 190.828 8.16385C191.032 8.36795 191.135 8.66275 191.135 9.04827V10.3749C191.543 9.53583 192.098 8.87819 192.801 8.40196C193.504 7.92573 194.343 7.68762 195.319 7.68762ZM207.1 7.34746C209.368 7.34746 211.114 7.88038 212.339 8.94622C213.563 9.98938 214.175 11.384 214.175 13.1302V23.4371C214.175 23.8 214.073 24.0948 213.869 24.3215C213.665 24.5256 213.37 24.6277 212.985 24.6277H212.1C211.738 24.6277 211.443 24.5256 211.216 24.3215C211.012 24.0948 210.91 23.8 210.91 23.4371V22.6888C210.366 23.4825 209.617 24.0948 208.665 24.5256C207.712 24.9565 206.601 25.1719 205.331 25.1719C203.585 25.1719 202.145 24.7864 201.011 24.0154C199.9 23.2217 199.344 22.0311 199.344 20.4437C199.344 18.6748 200.002 17.3709 201.317 16.5318C202.655 15.6701 204.504 15.0238 206.862 14.5929L210.706 13.8786V13.2663C210.706 12.3365 210.377 11.6222 209.719 11.1233C209.084 10.6017 208.234 10.3409 207.168 10.3409C206.261 10.3409 205.467 10.4996 204.787 10.8171C204.129 11.1119 203.415 11.6108 202.644 12.3138C202.349 12.5633 202.066 12.688 201.794 12.688C201.521 12.688 201.238 12.5633 200.943 12.3138L200.399 11.8376C200.104 11.5655 199.957 11.2707 199.957 10.9532C199.957 10.6584 200.093 10.3749 200.365 10.1028C201.34 9.17299 202.372 8.48133 203.46 8.02778C204.549 7.57423 205.762 7.34746 207.1 7.34746ZM205.841 22.2806C207.202 22.2806 208.347 21.9177 209.277 21.192C210.23 20.4664 210.706 19.4232 210.706 18.0626V16.4978L207.746 17.1101C206.091 17.4503 204.866 17.8358 204.073 18.2667C203.279 18.6975 202.882 19.3552 202.882 20.2396C202.882 20.8746 203.143 21.3735 203.664 21.7363C204.186 22.0991 204.912 22.2806 205.841 22.2806ZM236.29 7.34746C238.081 7.34746 239.465 7.8577 240.44 8.87819C241.415 9.876 241.902 11.2253 241.902 12.9261V23.4371C241.902 23.8 241.8 24.0948 241.596 24.3215C241.392 24.5256 241.097 24.6277 240.712 24.6277H239.487C239.124 24.6277 238.83 24.5256 238.603 24.3215C238.399 24.0948 238.297 23.8 238.297 23.4371V14.0146C238.297 12.9034 238.047 12.0304 237.548 11.3954C237.049 10.7604 236.29 10.4429 235.269 10.4429C234.226 10.4429 233.398 10.7944 232.786 11.4974C232.196 12.2004 231.902 13.1075 231.902 14.2187V23.4371C231.902 23.8 231.8 24.0948 231.595 24.3215C231.391 24.5256 231.097 24.6277 230.711 24.6277H229.486C229.124 24.6277 228.829 24.5256 228.602 24.3215C228.398 24.0948 228.296 23.8 228.296 23.4371V14.0146C228.296 12.9034 228.046 12.0304 227.548 11.3954C227.071 10.7604 226.323 10.4429 225.302 10.4429C224.305 10.4429 223.5 10.7718 222.887 11.4294C222.275 12.087 221.946 12.9375 221.901 13.9806V23.4371C221.901 23.8 221.799 24.0948 221.595 24.3215C221.391 24.5256 221.096 24.6277 220.71 24.6277H219.486C219.123 24.6277 218.828 24.5256 218.601 24.3215C218.397 24.0948 218.295 23.8 218.295 23.4371V9.04827C218.295 8.66275 218.397 8.36795 218.601 8.16385C218.828 7.95975 219.123 7.8577 219.486 7.8577H220.472C220.858 7.8577 221.152 7.95975 221.357 8.16385C221.561 8.36795 221.663 8.66275 221.663 9.04827V9.79662C222.706 8.16385 224.316 7.34746 226.493 7.34746C227.582 7.34746 228.534 7.57423 229.35 8.02778C230.167 8.48133 230.79 9.1163 231.221 9.93269C232.378 8.2092 234.067 7.34746 236.29 7.34746ZM258.041 20.3416C258.335 20.0922 258.619 19.9675 258.891 19.9675C259.163 19.9675 259.447 20.1149 259.741 20.4097L260.218 20.9199C260.467 21.2147 260.592 21.4982 260.592 21.7703C260.592 22.0651 260.444 22.3486 260.15 22.6207C259.106 23.5278 258.063 24.1741 257.02 24.5596C256 24.9452 254.866 25.1379 253.619 25.1379C251.872 25.1379 250.353 24.7751 249.06 24.0494C247.79 23.3237 246.804 22.3032 246.101 20.9879C245.421 19.65 245.08 18.1079 245.08 16.3617C245.08 14.6383 245.409 13.0962 246.067 11.7355C246.747 10.3522 247.7 9.27504 248.924 8.50401C250.172 7.73298 251.623 7.34746 253.278 7.34746C255.75 7.34746 257.655 8.08448 258.993 9.55851C260.331 11.0099 261 13.0168 261 15.5794V15.8855C260.977 16.2484 260.864 16.5318 260.66 16.7359C260.456 16.94 260.161 17.0421 259.775 17.0421H248.618C248.754 18.5388 249.242 19.7634 250.081 20.7158C250.943 21.6456 252.144 22.1105 253.687 22.1105C254.526 22.1105 255.263 21.9858 255.898 21.7363C256.533 21.4642 257.247 20.9993 258.041 20.3416ZM253.21 10.2048C251.963 10.2048 250.954 10.579 250.183 11.3274C249.435 12.053 248.947 13.0849 248.72 14.4228H257.462C257.372 13.1075 256.963 12.0757 256.238 11.3274C255.512 10.579 254.503 10.2048 253.21 10.2048Z" fill="#474445"/>
</svg>
