<svg width="264" height="32" viewBox="0 0 264 32" fill="none" xmlns="http://www.w3.org/2000/svg">
<path d="M1.19372 24.6933C0.829911 24.6933 0.53432 24.5909 0.306942 24.3863C0.102302 24.1589 -1.79076e-05 23.8633 -1.79076e-05 23.4995V1.67125C-1.79076e-05 1.28471 0.102302 0.98912 0.306942 0.78448C0.53432 0.57984 0.829911 0.47752 1.19372 0.47752H2.69441C3.08095 0.47752 3.37654 0.57984 3.58118 0.78448C3.78582 0.98912 3.88814 1.28471 3.88814 1.67125V23.4995C3.88814 23.8633 3.78582 24.1589 3.58118 24.3863C3.37654 24.5909 3.08095 24.6933 2.69441 24.6933H1.19372ZM26.8838 7.36707C28.68 7.36707 30.0671 7.87867 31.0448 8.90187C32.0225 9.90233 32.5114 11.2552 32.5114 12.9606V23.4995C32.5114 23.8633 32.409 24.1589 32.2044 24.3863C31.9998 24.5909 31.7042 24.6933 31.3176 24.6933H30.0898C29.726 24.6933 29.4304 24.5909 29.203 24.3863C28.9984 24.1589 28.8961 23.8633 28.8961 23.4995V14.052C28.8961 12.9378 28.6459 12.0624 28.1457 11.4258C27.6455 10.7891 26.8838 10.4708 25.8606 10.4708C24.8146 10.4708 23.9847 10.8232 23.3708 11.5281C22.7796 12.233 22.484 13.1425 22.484 14.2566V23.4995C22.484 23.8633 22.3817 24.1589 22.177 24.3863C21.9724 24.5909 21.6768 24.6933 21.2903 24.6933H20.0624C19.6986 24.6933 19.403 24.5909 19.1757 24.3863C18.971 24.1589 18.8687 23.8633 18.8687 23.4995V14.052C18.8687 12.9378 18.6186 12.0624 18.1183 11.4258C17.6409 10.7891 16.8905 10.4708 15.8673 10.4708C14.8668 10.4708 14.0597 10.8005 13.4457 11.4599C12.8318 12.1193 12.5021 12.9719 12.4566 14.0179V23.4995C12.4566 23.8633 12.3543 24.1589 12.1497 24.3863C11.945 24.5909 11.6495 24.6933 11.2629 24.6933H10.0351C9.67127 24.6933 9.37567 24.5909 9.1483 24.3863C8.94366 24.1589 8.84134 23.8633 8.84134 23.4995V9.0724C8.84134 8.68586 8.94366 8.39027 9.1483 8.18563C9.37567 7.98099 9.67127 7.87867 10.0351 7.87867H11.0242C11.4107 7.87867 11.7063 7.98099 11.9109 8.18563C12.1156 8.39027 12.2179 8.68586 12.2179 9.0724V9.82275C13.2638 8.18563 14.8782 7.36707 17.061 7.36707C18.1525 7.36707 19.1074 7.59445 19.926 8.0492C20.7446 8.50396 21.3699 9.14061 21.8019 9.95917C22.9615 8.2311 24.6555 7.36707 26.8838 7.36707ZM43.7471 7.36707C46.0209 7.36707 47.7717 7.90141 48.9995 8.97008C50.2274 10.016 50.8413 11.4144 50.8413 13.1652V23.4995C50.8413 23.8633 50.739 24.1589 50.5343 24.3863C50.3297 24.5909 50.0341 24.6933 49.6476 24.6933H48.7608C48.397 24.6933 48.1014 24.5909 47.874 24.3863C47.6694 24.1589 47.5671 23.8633 47.5671 23.4995V22.7492C47.0214 23.545 46.271 24.1589 45.316 24.5909C44.361 25.023 43.2469 25.239 41.9736 25.239C40.2228 25.239 38.7789 24.8524 37.642 24.0793C36.5279 23.2835 35.9708 22.0898 35.9708 20.4981C35.9708 18.7246 36.6302 17.4172 37.949 16.5759C39.2905 15.7118 41.1436 15.0638 43.5084 14.6318L47.3624 13.9155V13.3016C47.3624 12.3694 47.0327 11.6531 46.3733 11.1529C45.7367 10.6299 44.884 10.3685 43.8153 10.3685C42.9058 10.3685 42.11 10.5276 41.4279 10.8459C40.7685 11.1415 40.0522 11.6418 39.2791 12.3466C38.9835 12.5968 38.6993 12.7218 38.4265 12.7218C38.1536 12.7218 37.8694 12.5968 37.5738 12.3466L37.0281 11.8691C36.7325 11.5963 36.5847 11.3007 36.5847 10.9824C36.5847 10.6868 36.7211 10.4026 36.994 10.1297C37.9717 9.19746 39.0063 8.50396 40.0977 8.0492C41.1891 7.59445 42.4056 7.36707 43.7471 7.36707ZM42.4852 22.3399C43.8494 22.3399 44.9977 21.9761 45.9299 21.2485C46.8849 20.5209 47.3624 19.4749 47.3624 18.1107V16.5418L44.3951 17.1557C42.7353 17.4967 41.5074 17.8833 40.7116 18.3153C39.9158 18.7473 39.5179 19.4067 39.5179 20.2935C39.5179 20.9302 39.7794 21.4304 40.3023 21.7942C40.8253 22.158 41.5529 22.3399 42.4852 22.3399ZM66.807 8.97008C66.807 8.62901 66.9093 8.36753 67.1139 8.18563C67.3413 7.98099 67.6369 7.87867 68.0007 7.87867H68.9557C69.3422 7.87867 69.6378 7.98099 69.8424 8.18563C70.0471 8.39027 70.1494 8.68586 70.1494 9.0724V24.0793C70.1494 26.3304 69.4218 28.0812 67.9666 29.3318C66.5341 30.5823 64.6241 31.2076 62.2367 31.2076C59.8492 31.2076 57.5982 30.5937 55.4835 29.3659C55.0515 29.1385 54.8355 28.8315 54.8355 28.445C54.8355 28.2403 54.9265 27.9902 55.1084 27.6946L55.5517 27.0466C55.8019 26.6601 56.1088 26.4668 56.4726 26.4668C56.7227 26.4668 56.9729 26.5464 57.223 26.7055C58.1325 27.2285 58.9738 27.6037 59.7469 27.8311C60.52 28.0812 61.3385 28.2062 62.2026 28.2062C63.5213 28.2062 64.5786 27.8424 65.3745 27.1148C66.193 26.41 66.6023 25.2958 66.6023 23.7724V21.9647C65.4654 23.5791 63.7601 24.3863 61.4863 24.3863C60.0766 24.3863 58.8033 24.0339 57.6664 23.329C56.5522 22.6014 55.6768 21.6009 55.0401 20.3276C54.4262 19.0315 54.1193 17.5536 54.1193 15.8937C54.1193 14.2339 54.4262 12.7673 55.0401 11.494C55.6768 10.1979 56.5522 9.18609 57.6664 8.45848C58.8033 7.73087 60.0766 7.36707 61.4863 7.36707C63.8965 7.36707 65.6701 8.26521 66.807 10.0615V8.97008ZM62.2026 21.3508C63.5213 21.3508 64.6014 20.8506 65.4427 19.8501C66.284 18.8269 66.7046 17.5081 66.7046 15.8937C66.7046 14.3021 66.284 13.006 65.4427 12.0056C64.6241 10.9824 63.5441 10.4708 62.2026 10.4708C60.8383 10.4708 59.7582 10.971 58.9624 11.9715C58.1666 12.9719 57.7687 14.2794 57.7687 15.8937C57.7687 17.5309 58.1666 18.8496 58.9624 19.8501C59.7582 20.8506 60.8383 21.3508 62.2026 21.3508ZM86.3631 20.3958C86.6587 20.1457 86.9429 20.0206 87.2158 20.0206C87.4886 20.0206 87.7729 20.1684 88.0685 20.464L88.546 20.9756C88.7961 21.2712 88.9211 21.5554 88.9211 21.8283C88.9211 22.1239 88.7733 22.4081 88.4777 22.681C87.4318 23.5905 86.3859 24.2385 85.3399 24.625C84.3167 25.0116 83.1798 25.2049 81.9293 25.2049C80.1785 25.2049 78.655 24.8411 77.359 24.1134C76.0857 23.3858 75.0966 22.3626 74.3917 21.0438C73.7096 19.7023 73.3685 18.1561 73.3685 16.4053C73.3685 14.6773 73.6982 13.1311 74.3576 11.7668C75.0397 10.3798 75.9947 9.29978 77.2225 8.52669C78.4731 7.75361 79.9283 7.36707 81.5882 7.36707C84.0666 7.36707 85.9766 8.10605 87.3181 9.584C88.6596 11.0392 89.3304 13.0515 89.3304 15.6209V15.9278C89.3077 16.2916 89.194 16.5759 88.9893 16.7805C88.7847 16.9851 88.4891 17.0875 88.1026 17.0875H76.9156C77.052 18.5882 77.5409 19.816 78.3822 20.771C79.2462 21.7032 80.4513 22.1694 81.9975 22.1694C82.8388 22.1694 83.5777 22.0443 84.2144 21.7942C84.8511 21.5213 85.5673 21.0552 86.3631 20.3958ZM81.52 10.232C80.2694 10.232 79.2576 10.6072 78.4845 11.3575C77.7341 12.0852 77.2453 13.1197 77.0179 14.4613H85.7833C85.6924 13.1425 85.2831 12.1079 84.5555 11.3575C83.8279 10.6072 82.816 10.232 81.52 10.232ZM99.1894 25.2049C97.8024 25.2049 96.5632 25.0343 95.4717 24.6933C94.4031 24.3295 93.3117 23.7042 92.1975 22.8174C91.8564 22.5673 91.6859 22.2831 91.6859 21.9647C91.6859 21.7146 91.811 21.4418 92.0611 21.1462L92.5727 20.5663C92.8455 20.248 93.1411 20.0889 93.4594 20.0889C93.7096 20.0889 93.9824 20.2025 94.278 20.4299C95.233 21.1348 96.0743 21.6237 96.8019 21.8965C97.5295 22.1466 98.3481 22.2717 99.2576 22.2717C100.235 22.2717 101.031 22.0784 101.645 21.6919C102.282 21.2826 102.6 20.7369 102.6 20.0547C102.6 19.5318 102.418 19.1225 102.054 18.8269C101.713 18.5086 101.259 18.2698 100.69 18.1107C100.122 17.9288 99.2803 17.7241 98.1662 17.4967C96.5973 17.1557 95.3694 16.7919 94.4826 16.4053C93.6186 15.9961 92.9933 15.4845 92.6068 14.8705C92.2202 14.2566 92.027 13.4722 92.027 12.5172C92.027 11.5395 92.2998 10.664 92.8455 9.89096C93.414 9.11788 94.1984 8.50396 95.1989 8.0492C96.2221 7.59445 97.4158 7.36707 98.7801 7.36707C100.008 7.36707 101.099 7.50349 102.054 7.77635C103.032 8.0492 103.987 8.51533 104.919 9.17472C105.283 9.44757 105.465 9.75453 105.465 10.0956C105.465 10.323 105.351 10.5845 105.124 10.8801L104.681 11.4258C104.43 11.7441 104.123 11.9033 103.76 11.9033C103.487 11.9033 103.225 11.8123 102.975 11.6304C102.225 11.1302 101.531 10.7891 100.895 10.6072C100.258 10.4026 99.5418 10.3002 98.746 10.3002C97.7683 10.3002 96.9838 10.4935 96.3926 10.8801C95.8014 11.2666 95.5058 11.7668 95.5058 12.3807C95.5058 12.79 95.6423 13.1197 95.9151 13.3698C96.2107 13.5972 96.62 13.8019 97.143 13.9838C97.6887 14.1429 98.5413 14.3476 99.701 14.5977C101.27 14.9387 102.509 15.3253 103.419 15.7573C104.351 16.1666 105.033 16.7009 105.465 17.3603C105.92 17.997 106.147 18.8269 106.147 19.8501C106.147 21.4418 105.51 22.7378 104.237 23.7383C102.987 24.716 101.304 25.2049 99.1894 25.2049ZM124.291 3.00141C123.496 3.00141 122.916 3.19468 122.552 3.58123C122.188 3.96777 122.006 4.62716 122.006 5.55941V7.87867H124.769C125.155 7.87867 125.451 7.98099 125.656 8.18563C125.86 8.39027 125.963 8.68586 125.963 9.0724V9.44757C125.963 9.81138 125.86 10.107 125.656 10.3343C125.451 10.539 125.155 10.6413 124.769 10.6413H122.006V23.4995C122.006 23.8633 121.904 24.1589 121.699 24.3863C121.495 24.5909 121.199 24.6933 120.812 24.6933H119.585C119.221 24.6933 118.925 24.5909 118.698 24.3863C118.493 24.1589 118.391 23.8633 118.391 23.4995V10.6413H116.583C116.219 10.6413 115.924 10.539 115.696 10.3343C115.492 10.107 115.39 9.81138 115.39 9.44757V9.0724C115.39 8.68586 115.492 8.39027 115.696 8.18563C115.924 7.98099 116.219 7.87867 116.583 7.87867H118.391V5.32067C118.391 3.56986 118.834 2.25107 119.721 1.36429C120.631 0.454782 121.938 2.66671e-05 123.643 2.66671e-05C124.416 2.66671e-05 125.201 0.0796092 125.997 0.238774C126.588 0.397938 126.883 0.761742 126.883 1.33019C126.883 1.48935 126.872 1.61441 126.849 1.70536L126.747 2.18285C126.611 2.77404 126.167 3.06963 125.417 3.06963L125.008 3.03552C124.848 3.01278 124.61 3.00141 124.291 3.00141ZM135.587 25.2049C133.927 25.2049 132.449 24.8297 131.153 24.0793C129.879 23.329 128.879 22.2831 128.151 20.9415C127.424 19.5773 127.06 18.0197 127.06 16.2689C127.06 14.5181 127.424 12.9719 128.151 11.6304C128.879 10.2889 129.879 9.24293 131.153 8.49259C132.449 7.74224 133.927 7.36707 135.587 7.36707C137.224 7.36707 138.69 7.74224 139.986 8.49259C141.282 9.24293 142.294 10.3002 143.022 11.6645C143.749 13.006 144.113 14.5408 144.113 16.2689C144.113 18.0197 143.749 19.5773 143.022 20.9415C142.294 22.2831 141.282 23.329 139.986 24.0793C138.69 24.8297 137.224 25.2049 135.587 25.2049ZM135.587 22.1694C137.042 22.1694 138.213 21.635 139.099 20.5663C139.986 19.4749 140.43 18.0425 140.43 16.2689C140.43 14.5181 139.986 13.1084 139.099 12.0397C138.213 10.971 137.042 10.4367 135.587 10.4367C134.131 10.4367 132.96 10.971 132.074 12.0397C131.187 13.1084 130.743 14.5181 130.743 16.2689C130.743 18.0425 131.187 19.4749 132.074 20.5663C132.96 21.635 134.131 22.1694 135.587 22.1694ZM154.871 7.70813C155.372 7.70813 155.883 7.76498 156.406 7.87867C157.02 8.01509 157.327 8.3789 157.327 8.97008C157.327 9.12925 157.316 9.24293 157.293 9.31115L157.122 10.1297C156.986 10.7664 156.645 11.0847 156.099 11.0847L155.792 11.0506C155.383 10.9824 155.019 10.9483 154.701 10.9483C153.564 10.9483 152.643 11.403 151.938 12.3125C151.256 13.1993 150.915 14.4385 150.915 16.0302V23.4995C150.915 23.8633 150.813 24.1589 150.608 24.3863C150.403 24.5909 150.108 24.6933 149.721 24.6933H148.493C148.13 24.6933 147.834 24.5909 147.607 24.3863C147.402 24.1589 147.3 23.8633 147.3 23.4995V9.0724C147.3 8.68586 147.402 8.39027 147.607 8.18563C147.834 7.98099 148.13 7.87867 148.493 7.87867H149.483C149.869 7.87867 150.165 7.98099 150.369 8.18563C150.574 8.39027 150.676 8.68586 150.676 9.0724V10.4026C151.086 9.56126 151.643 8.90187 152.348 8.42437C153.052 7.94688 153.894 7.70813 154.871 7.70813ZM179.624 20.3958C179.919 20.1457 180.203 20.0206 180.476 20.0206C180.749 20.0206 181.033 20.1684 181.329 20.464L181.806 20.9756C182.056 21.2712 182.182 21.5554 182.182 21.8283C182.182 22.1239 182.034 22.4081 181.738 22.681C180.692 23.5905 179.646 24.2385 178.6 24.625C177.577 25.0116 176.44 25.2049 175.19 25.2049C173.439 25.2049 171.915 24.8411 170.619 24.1134C169.346 23.3858 168.357 22.3626 167.652 21.0438C166.97 19.7023 166.629 18.1561 166.629 16.4053C166.629 14.6773 166.959 13.1311 167.618 11.7668C168.3 10.3798 169.255 9.29978 170.483 8.52669C171.734 7.75361 173.189 7.36707 174.849 7.36707C177.327 7.36707 179.237 8.10605 180.579 9.584C181.92 11.0392 182.591 13.0515 182.591 15.6209V15.9278C182.568 16.2916 182.454 16.5759 182.25 16.7805C182.045 16.9851 181.75 17.0875 181.363 17.0875H170.176C170.312 18.5882 170.801 19.816 171.643 20.771C172.507 21.7032 173.712 22.1694 175.258 22.1694C176.099 22.1694 176.838 22.0443 177.475 21.7942C178.111 21.5213 178.828 21.0552 179.624 20.3958ZM174.78 10.232C173.53 10.232 172.518 10.6072 171.745 11.3575C170.995 12.0852 170.506 13.1197 170.278 14.4613H179.044C178.953 13.1425 178.544 12.1079 177.816 11.3575C177.088 10.6072 176.076 10.232 174.78 10.232ZM198.875 23.2608C199.057 23.5564 199.148 23.7951 199.148 23.977C199.148 24.2044 199.057 24.3863 198.875 24.5227C198.694 24.6364 198.443 24.6933 198.125 24.6933H196.795C196.158 24.6933 195.681 24.4318 195.362 23.9088L191.713 18.4176L188.064 23.9088C187.745 24.4318 187.268 24.6933 186.631 24.6933H185.403C185.062 24.6933 184.801 24.6364 184.619 24.5227C184.437 24.3863 184.346 24.2044 184.346 23.977C184.346 23.7951 184.437 23.5564 184.619 23.2608L189.701 15.8937L185.13 9.31115C184.949 9.01556 184.858 8.77681 184.858 8.59491C184.858 8.36753 184.949 8.197 185.13 8.08331C185.312 7.94688 185.574 7.87867 185.915 7.87867H187.177C187.791 7.87867 188.268 8.12878 188.609 8.62901L191.781 13.3357L194.885 8.66312C195.203 8.14015 195.681 7.87867 196.317 7.87867H197.511C197.829 7.87867 198.08 7.94688 198.262 8.08331C198.443 8.21973 198.534 8.40164 198.534 8.62901C198.534 8.81092 198.443 9.04966 198.262 9.34525L193.794 15.7573L198.875 23.2608ZM211.159 7.43528C212.592 7.43528 213.865 7.79908 214.979 8.52669C216.116 9.2543 217.003 10.2889 217.64 11.6304C218.276 12.9719 218.595 14.5181 218.595 16.2689C218.595 18.0425 218.276 19.6 217.64 20.9415C217.003 22.2831 216.116 23.3176 214.979 24.0452C213.842 24.7728 212.569 25.1366 211.159 25.1366C208.795 25.1366 207.021 24.3181 205.839 22.681V29.5364C205.839 29.9229 205.736 30.2185 205.532 30.4232C205.327 30.6278 205.032 30.7301 204.645 30.7301H203.417C203.053 30.7301 202.758 30.6278 202.53 30.4232C202.326 30.2185 202.223 29.9229 202.223 29.5364V9.0724C202.223 8.68586 202.326 8.39027 202.53 8.18563C202.758 7.98099 203.053 7.87867 203.417 7.87867H204.406C204.793 7.87867 205.088 7.98099 205.293 8.18563C205.498 8.39027 205.6 8.68586 205.6 9.0724V10.3343C206.805 8.40164 208.658 7.43528 211.159 7.43528ZM210.409 21.9988C211.773 21.9988 212.865 21.4872 213.683 20.464C214.502 19.4181 214.911 18.0197 214.911 16.2689C214.911 14.5408 214.502 13.1538 213.683 12.1079C212.887 11.062 211.807 10.539 210.443 10.539C209.056 10.539 207.919 11.0506 207.033 12.0738C206.146 13.097 205.702 14.4954 205.702 16.2689C205.702 18.0425 206.146 19.4408 207.033 20.464C207.919 21.4872 209.045 21.9988 210.409 21.9988ZM229.646 25.2049C227.986 25.2049 226.508 24.8297 225.212 24.0793C223.939 23.329 222.939 22.2831 222.211 20.9415C221.483 19.5773 221.12 18.0197 221.12 16.2689C221.12 14.5181 221.483 12.9719 222.211 11.6304C222.939 10.2889 223.939 9.24293 225.212 8.49259C226.508 7.74224 227.986 7.36707 229.646 7.36707C231.283 7.36707 232.75 7.74224 234.046 8.49259C235.342 9.24293 236.354 10.3002 237.082 11.6645C237.809 13.006 238.173 14.5408 238.173 16.2689C238.173 18.0197 237.809 19.5773 237.082 20.9415C236.354 22.2831 235.342 23.329 234.046 24.0793C232.75 24.8297 231.283 25.2049 229.646 25.2049ZM229.646 22.1694C231.102 22.1694 232.273 21.635 233.159 20.5663C234.046 19.4749 234.489 18.0425 234.489 16.2689C234.489 14.5181 234.046 13.1084 233.159 12.0397C232.273 10.971 231.102 10.4367 229.646 10.4367C228.191 10.4367 227.02 10.971 226.133 12.0397C225.247 13.1084 224.803 14.5181 224.803 16.2689C224.803 18.0425 225.247 19.4749 226.133 20.5663C227.02 21.635 228.191 22.1694 229.646 22.1694ZM248.931 7.70813C249.431 7.70813 249.943 7.76498 250.466 7.87867C251.08 8.01509 251.387 8.3789 251.387 8.97008C251.387 9.12925 251.376 9.24293 251.353 9.31115L251.182 10.1297C251.046 10.7664 250.705 11.0847 250.159 11.0847L249.852 11.0506C249.443 10.9824 249.079 10.9483 248.761 10.9483C247.624 10.9483 246.703 11.403 245.998 12.3125C245.316 13.1993 244.975 14.4385 244.975 16.0302V23.4995C244.975 23.8633 244.873 24.1589 244.668 24.3863C244.463 24.5909 244.168 24.6933 243.781 24.6933H242.553C242.189 24.6933 241.894 24.5909 241.667 24.3863C241.462 24.1589 241.36 23.8633 241.36 23.4995V9.0724C241.36 8.68586 241.462 8.39027 241.667 8.18563C241.894 7.98099 242.189 7.87867 242.553 7.87867H243.542C243.929 7.87867 244.225 7.98099 244.429 8.18563C244.634 8.39027 244.736 8.68586 244.736 9.0724V10.4026C245.145 9.56126 245.702 8.90187 246.407 8.42437C247.112 7.94688 247.954 7.70813 248.931 7.70813ZM262.533 21.8283C262.602 21.8056 262.704 21.7942 262.84 21.7942C263.409 21.7942 263.75 22.1239 263.864 22.7833L263.966 23.329C263.989 23.3972 264 23.5109 264 23.6701C264 24.2385 263.682 24.6023 263.045 24.7615C262.135 24.9661 261.306 25.0684 260.555 25.0684C258.941 25.0684 257.77 24.6933 257.042 23.9429C256.337 23.1926 255.985 22.067 255.985 20.5663V10.6413H254.109C253.745 10.6413 253.45 10.539 253.222 10.3343C253.018 10.107 252.915 9.81138 252.915 9.44757V9.0724C252.915 8.68586 253.018 8.39027 253.222 8.18563C253.45 7.98099 253.745 7.87867 254.109 7.87867H255.985V3.64944C255.985 3.2629 256.087 2.96731 256.292 2.76267C256.519 2.55803 256.815 2.45571 257.179 2.45571H258.406C258.793 2.45571 259.089 2.55803 259.293 2.76267C259.498 2.96731 259.6 3.2629 259.6 3.64944V7.87867H262.67C263.056 7.87867 263.352 7.98099 263.557 8.18563C263.761 8.39027 263.864 8.68586 263.864 9.0724V9.44757C263.864 9.81138 263.761 10.107 263.557 10.3343C263.352 10.539 263.056 10.6413 262.67 10.6413H259.6V20.123C259.6 20.7824 259.737 21.2485 260.009 21.5213C260.305 21.7942 260.771 21.9306 261.408 21.9306C261.681 21.9306 262.056 21.8965 262.533 21.8283Z" fill="#474445"/>
</svg>
