<svg width="264" height="32" viewBox="0 0 264 32" fill="none" xmlns="http://www.w3.org/2000/svg">
<path d="M1.19378 24.6932C0.829972 24.6932 0.534381 24.5909 0.307003 24.3863C0.102363 24.1589 4.3319e-05 23.8633 4.3319e-05 23.4995V1.67123C4.3319e-05 1.28469 0.102363 0.989097 0.307003 0.784457C0.534381 0.579817 0.829972 0.477497 1.19378 0.477497H2.69447C3.08101 0.477497 3.3766 0.579817 3.58124 0.784457C3.78588 0.989097 3.8882 1.28469 3.8882 1.67123V23.4995C3.8882 23.8633 3.78588 24.1589 3.58124 24.3863C3.3766 24.5909 3.08101 24.6932 2.69447 24.6932H1.19378ZM26.8838 7.36704C28.6801 7.36704 30.0671 7.87864 31.0448 8.90184C32.0226 9.90231 32.5114 11.2552 32.5114 12.9605V23.4995C32.5114 23.8633 32.4091 24.1589 32.2045 24.3863C31.9998 24.5909 31.7042 24.6932 31.3177 24.6932H30.0899C29.726 24.6932 29.4305 24.5909 29.2031 24.3863C28.9984 24.1589 28.8961 23.8633 28.8961 23.4995V14.052C28.8961 12.9378 28.646 12.0624 28.1458 11.4257C27.6455 10.7891 26.8838 10.4708 25.8606 10.4708C24.8147 10.4708 23.9848 10.8232 23.3708 11.5281C22.7797 12.2329 22.4841 13.1424 22.4841 14.2566V23.4995C22.4841 23.8633 22.3817 24.1589 22.1771 24.3863C21.9725 24.5909 21.6769 24.6932 21.2903 24.6932H20.0625C19.6987 24.6932 19.4031 24.5909 19.1757 24.3863C18.9711 24.1589 18.8688 23.8633 18.8688 23.4995V14.052C18.8688 12.9378 18.6186 12.0624 18.1184 11.4257C17.6409 10.7891 16.8906 10.4708 15.8674 10.4708C14.8669 10.4708 14.0597 10.8004 13.4458 11.4598C12.8319 12.1192 12.5022 12.9719 12.4567 14.0178V23.4995C12.4567 23.8633 12.3544 24.1589 12.1497 24.3863C11.9451 24.5909 11.6495 24.6932 11.263 24.6932H10.0351C9.67133 24.6932 9.37574 24.5909 9.14836 24.3863C8.94372 24.1589 8.8414 23.8633 8.8414 23.4995V9.07238C8.8414 8.68584 8.94372 8.39024 9.14836 8.1856C9.37574 7.98096 9.67133 7.87864 10.0351 7.87864H11.0242C11.4108 7.87864 11.7064 7.98096 11.911 8.1856C12.1156 8.39024 12.218 8.68584 12.218 9.07238V9.82272C13.2639 8.1856 14.8783 7.36704 17.0611 7.36704C18.1525 7.36704 19.1075 7.59442 19.9261 8.04918C20.7446 8.50393 21.3699 9.14059 21.8019 9.95915C22.9616 8.23108 24.6555 7.36704 26.8838 7.36704ZM43.7472 7.36704C46.021 7.36704 47.7718 7.90138 48.9996 8.97006C50.2274 10.016 50.8414 11.4144 50.8414 13.1652V23.4995C50.8414 23.8633 50.739 24.1589 50.5344 24.3863C50.3298 24.5909 50.0342 24.6932 49.6476 24.6932H48.7609C48.397 24.6932 48.1015 24.5909 47.8741 24.3863C47.6694 24.1589 47.5671 23.8633 47.5671 23.4995V22.7492C47.0214 23.545 46.2711 24.1589 45.3161 24.5909C44.3611 25.0229 43.2469 25.2389 41.9736 25.2389C40.2228 25.2389 38.779 24.8524 37.6421 24.0793C36.5279 23.2835 35.9709 22.0898 35.9709 20.4981C35.9709 18.7246 36.6302 17.4171 37.949 16.5758C39.2906 15.7118 41.1437 15.0638 43.5084 14.6318L47.3625 13.9155V13.3016C47.3625 12.3694 47.0328 11.6531 46.3734 11.1529C45.7367 10.6299 44.8841 10.3684 43.8154 10.3684C42.9059 10.3684 42.1101 10.5276 41.4279 10.8459C40.7685 11.1415 40.0523 11.6417 39.2792 12.3466C38.9836 12.5967 38.6994 12.7218 38.4265 12.7218C38.1537 12.7218 37.8695 12.5967 37.5739 12.3466L37.0282 11.8691C36.7326 11.5963 36.5848 11.3007 36.5848 10.9824C36.5848 10.6868 36.7212 10.4025 36.9941 10.1297C37.9718 9.19744 39.0063 8.50393 40.0978 8.04918C41.1892 7.59442 42.4056 7.36704 43.7472 7.36704ZM42.4852 22.3399C43.8495 22.3399 44.9978 21.9761 45.93 21.2485C46.885 20.5208 47.3625 19.4749 47.3625 18.1106V16.5417L44.3952 17.1557C42.7353 17.4967 41.5075 17.8833 40.7117 18.3153C39.9159 18.7473 39.5179 19.4067 39.5179 20.2935C39.5179 20.9301 39.7794 21.4304 40.3024 21.7942C40.8254 22.158 41.553 22.3399 42.4852 22.3399ZM66.807 8.97006C66.807 8.62899 66.9093 8.36751 67.114 8.1856C67.3413 7.98096 67.6369 7.87864 68.0007 7.87864H68.9557C69.3423 7.87864 69.6379 7.98096 69.8425 8.1856C70.0471 8.39024 70.1495 8.68584 70.1495 9.07238V24.0793C70.1495 26.3304 69.4219 28.0812 67.9666 29.3317C66.5342 30.5823 64.6242 31.2076 62.2367 31.2076C59.8493 31.2076 57.5982 30.5937 55.4836 29.3658C55.0516 29.1385 54.8356 28.8315 54.8356 28.445C54.8356 28.2403 54.9265 27.9902 55.1084 27.6946L55.5518 27.0466C55.8019 26.6601 56.1089 26.4668 56.4727 26.4668C56.7228 26.4668 56.9729 26.5464 57.223 26.7055C58.1325 27.2285 58.9738 27.6037 59.7469 27.831C60.52 28.0812 61.3386 28.2062 62.2026 28.2062C63.5214 28.2062 64.5787 27.8424 65.3745 27.1148C66.1931 26.4099 66.6024 25.2958 66.6024 23.7724V21.9647C65.4655 23.5791 63.7601 24.3863 61.4864 24.3863C60.0766 24.3863 58.8033 24.0338 57.6664 23.329C56.5523 22.6014 55.6769 21.6009 55.0402 20.3276C54.4263 19.0315 54.1193 17.5536 54.1193 15.8937C54.1193 14.2339 54.4263 12.7673 55.0402 11.494C55.6769 10.1979 56.5523 9.18607 57.6664 8.45846C58.8033 7.73085 60.0766 7.36704 61.4864 7.36704C63.8966 7.36704 65.6701 8.26519 66.807 10.0615V8.97006ZM62.2026 21.3508C63.5214 21.3508 64.6014 20.8505 65.4427 19.8501C66.284 18.8269 66.7047 17.5081 66.7047 15.8937C66.7047 14.3021 66.284 13.006 65.4427 12.0056C64.6242 10.9824 63.5441 10.4708 62.2026 10.4708C60.8383 10.4708 59.7583 10.971 58.9625 11.9714C58.1667 12.9719 57.7687 14.2793 57.7687 15.8937C57.7687 17.5308 58.1667 18.8496 58.9625 19.8501C59.7583 20.8505 60.8383 21.3508 62.2026 21.3508ZM86.3632 20.3958C86.6588 20.1457 86.943 20.0206 87.2159 20.0206C87.4887 20.0206 87.7729 20.1684 88.0685 20.464L88.546 20.9756C88.7961 21.2712 88.9212 21.5554 88.9212 21.8283C88.9212 22.1239 88.7734 22.4081 88.4778 22.6809C87.4319 23.5905 86.3859 24.2385 85.34 24.625C84.3168 25.0116 83.1799 25.2048 81.9293 25.2048C80.1785 25.2048 78.6551 24.841 77.359 24.1134C76.0857 23.3858 75.0966 22.3626 74.3917 21.0438C73.7096 19.7023 73.3685 18.1561 73.3685 16.4053C73.3685 14.6772 73.6982 13.1311 74.3576 11.7668C75.0398 10.3798 75.9948 9.29976 77.2226 8.52667C78.4732 7.75359 79.9284 7.36704 81.5883 7.36704C84.0667 7.36704 85.9766 8.10602 87.3182 9.58398C88.6597 11.0392 89.3305 13.0515 89.3305 15.6209V15.9278C89.3077 16.2916 89.194 16.5758 88.9894 16.7805C88.7848 16.9851 88.4892 17.0874 88.1026 17.0874H76.9156C77.0521 18.5881 77.5409 19.816 78.3822 20.771C79.2463 21.7032 80.4514 22.1693 81.9975 22.1693C82.8388 22.1693 83.5778 22.0443 84.2145 21.7942C84.8511 21.5213 85.5674 21.0552 86.3632 20.3958ZM81.52 10.232C80.2695 10.232 79.2576 10.6072 78.4845 11.3575C77.7342 12.0851 77.2453 13.1197 77.018 14.4612H85.7834C85.6924 13.1424 85.2831 12.1079 84.5555 11.3575C83.8279 10.6072 82.8161 10.232 81.52 10.232ZM99.1894 25.2048C97.8024 25.2048 96.5632 25.0343 95.4718 24.6932C94.4031 24.3294 93.3117 23.7041 92.1976 22.8174C91.8565 22.5673 91.686 22.283 91.686 21.9647C91.686 21.7146 91.811 21.4417 92.0611 21.1461L92.5727 20.5663C92.8456 20.248 93.1412 20.0888 93.4595 20.0888C93.7096 20.0888 93.9825 20.2025 94.2781 20.4299C95.2331 21.1348 96.0744 21.6236 96.802 21.8965C97.5296 22.1466 98.3481 22.2717 99.2576 22.2717C100.235 22.2717 101.031 22.0784 101.645 21.6918C102.282 21.2826 102.6 20.7369 102.6 20.0547C102.6 19.5318 102.418 19.1225 102.054 18.8269C101.713 18.5086 101.259 18.2698 100.69 18.1106C100.122 17.9287 99.2804 17.7241 98.1662 17.4967C96.5973 17.1557 95.3695 16.7919 94.4827 16.4053C93.6187 15.996 92.9934 15.4844 92.6068 14.8705C92.2203 14.2566 92.027 13.4721 92.027 12.5172C92.027 11.5394 92.2999 10.664 92.8456 9.89094C93.414 9.11785 94.1985 8.50393 95.1989 8.04918C96.2221 7.59442 97.4159 7.36704 98.7801 7.36704C100.008 7.36704 101.099 7.50347 102.054 7.77632C103.032 8.04918 103.987 8.5153 104.919 9.1747C105.283 9.44755 105.465 9.75451 105.465 10.0956C105.465 10.323 105.351 10.5844 105.124 10.88L104.681 11.4257C104.43 11.7441 104.124 11.9032 103.76 11.9032C103.487 11.9032 103.225 11.8123 102.975 11.6304C102.225 11.1301 101.531 10.7891 100.895 10.6072C100.258 10.4025 99.5419 10.3002 98.746 10.3002C97.7683 10.3002 96.9839 10.4935 96.3927 10.88C95.8015 11.2666 95.5059 11.7668 95.5059 12.3807C95.5059 12.79 95.6423 13.1197 95.9152 13.3698C96.2108 13.5972 96.6201 13.8018 97.143 13.9837C97.6887 14.1429 98.5414 14.3475 99.701 14.5977C101.27 14.9387 102.509 15.3253 103.419 15.7573C104.351 16.1666 105.033 16.7009 105.465 17.3603C105.92 17.997 106.147 18.8269 106.147 19.8501C106.147 21.4417 105.511 22.7378 104.237 23.7382C102.987 24.716 101.304 25.2048 99.1894 25.2048ZM124.291 3.00139C123.496 3.00139 122.916 3.19466 122.552 3.5812C122.188 3.96775 122.006 4.62714 122.006 5.55939V7.87864H124.769C125.155 7.87864 125.451 7.98096 125.656 8.1856C125.86 8.39024 125.963 8.68584 125.963 9.07238V9.44755C125.963 9.81136 125.86 10.1069 125.656 10.3343C125.451 10.539 125.155 10.6413 124.769 10.6413H122.006V23.4995C122.006 23.8633 121.904 24.1589 121.699 24.3863C121.495 24.5909 121.199 24.6932 120.813 24.6932H119.585C119.221 24.6932 118.925 24.5909 118.698 24.3863C118.493 24.1589 118.391 23.8633 118.391 23.4995V10.6413H116.583C116.219 10.6413 115.924 10.539 115.697 10.3343C115.492 10.1069 115.39 9.81136 115.39 9.44755V9.07238C115.39 8.68584 115.492 8.39024 115.697 8.1856C115.924 7.98096 116.219 7.87864 116.583 7.87864H118.391V5.32064C118.391 3.56984 118.834 2.25104 119.721 1.36427C120.631 0.45476 121.938 3.70708e-06 123.643 3.70708e-06C124.416 3.70708e-06 125.201 0.0795863 125.997 0.238751C126.588 0.397915 126.884 0.761719 126.884 1.33016C126.884 1.48933 126.872 1.61439 126.849 1.70534L126.747 2.18283C126.611 2.77401 126.167 3.0696 125.417 3.0696L125.008 3.0355C124.848 3.01276 124.61 3.00139 124.291 3.00139ZM135.587 25.2048C133.927 25.2048 132.449 24.8297 131.153 24.0793C129.879 23.329 128.879 22.283 128.151 20.9415C127.424 19.5772 127.06 18.0197 127.06 16.2689C127.06 14.5181 127.424 12.9719 128.151 11.6304C128.879 10.2888 129.879 9.24291 131.153 8.49256C132.449 7.74222 133.927 7.36704 135.587 7.36704C137.224 7.36704 138.69 7.74222 139.986 8.49256C141.282 9.24291 142.294 10.3002 143.022 11.6645C143.749 13.006 144.113 14.5408 144.113 16.2689C144.113 18.0197 143.749 19.5772 143.022 20.9415C142.294 22.283 141.282 23.329 139.986 24.0793C138.69 24.8297 137.224 25.2048 135.587 25.2048ZM135.587 22.1693C137.042 22.1693 138.213 21.635 139.1 20.5663C139.986 19.4749 140.43 18.0424 140.43 16.2689C140.43 14.5181 139.986 13.1083 139.1 12.0397C138.213 10.971 137.042 10.4366 135.587 10.4366C134.131 10.4366 132.96 10.971 132.074 12.0397C131.187 13.1083 130.743 14.5181 130.743 16.2689C130.743 18.0424 131.187 19.4749 132.074 20.5663C132.96 21.635 134.131 22.1693 135.587 22.1693ZM154.871 7.70811C155.372 7.70811 155.883 7.76496 156.406 7.87864C157.02 8.01507 157.327 8.37888 157.327 8.97006C157.327 9.12922 157.316 9.24291 157.293 9.31112L157.123 10.1297C156.986 10.7663 156.645 11.0847 156.099 11.0847L155.792 11.0506C155.383 10.9824 155.019 10.9482 154.701 10.9482C153.564 10.9482 152.643 11.403 151.938 12.3125C151.256 13.1993 150.915 14.4385 150.915 16.0301V23.4995C150.915 23.8633 150.813 24.1589 150.608 24.3863C150.404 24.5909 150.108 24.6932 149.721 24.6932H148.494C148.13 24.6932 147.834 24.5909 147.607 24.3863C147.402 24.1589 147.3 23.8633 147.3 23.4995V9.07238C147.3 8.68584 147.402 8.39024 147.607 8.1856C147.834 7.98096 148.13 7.87864 148.494 7.87864H149.483C149.869 7.87864 150.165 7.98096 150.369 8.1856C150.574 8.39024 150.676 8.68584 150.676 9.07238V10.4025C151.086 9.56124 151.643 8.90184 152.348 8.42435C153.052 7.94686 153.894 7.70811 154.871 7.70811ZM179.624 20.3958C179.919 20.1457 180.203 20.0206 180.476 20.0206C180.749 20.0206 181.033 20.1684 181.329 20.464L181.806 20.9756C182.057 21.2712 182.182 21.5554 182.182 21.8283C182.182 22.1239 182.034 22.4081 181.738 22.6809C180.692 23.5905 179.646 24.2385 178.6 24.625C177.577 25.0116 176.44 25.2048 175.19 25.2048C173.439 25.2048 171.916 24.841 170.619 24.1134C169.346 23.3858 168.357 22.3626 167.652 21.0438C166.97 19.7023 166.629 18.1561 166.629 16.4053C166.629 14.6772 166.959 13.1311 167.618 11.7668C168.3 10.3798 169.255 9.29976 170.483 8.52667C171.734 7.75359 173.189 7.36704 174.849 7.36704C177.327 7.36704 179.237 8.10602 180.579 9.58398C181.92 11.0392 182.591 13.0515 182.591 15.6209V15.9278C182.568 16.2916 182.454 16.5758 182.25 16.7805C182.045 16.9851 181.75 17.0874 181.363 17.0874H170.176C170.312 18.5881 170.801 19.816 171.643 20.771C172.507 21.7032 173.712 22.1693 175.258 22.1693C176.099 22.1693 176.838 22.0443 177.475 21.7942C178.112 21.5213 178.828 21.0552 179.624 20.3958ZM174.78 10.232C173.53 10.232 172.518 10.6072 171.745 11.3575C170.995 12.0851 170.506 13.1197 170.278 14.4612H179.044C178.953 13.1424 178.544 12.1079 177.816 11.3575C177.088 10.6072 176.077 10.232 174.78 10.232ZM198.875 23.2608C199.057 23.5563 199.148 23.7951 199.148 23.977C199.148 24.2044 199.057 24.3863 198.875 24.5227C198.694 24.6364 198.443 24.6932 198.125 24.6932H196.795C196.158 24.6932 195.681 24.4317 195.363 23.9088L191.713 18.4176L188.064 23.9088C187.745 24.4317 187.268 24.6932 186.631 24.6932H185.403C185.062 24.6932 184.801 24.6364 184.619 24.5227C184.437 24.3863 184.346 24.2044 184.346 23.977C184.346 23.7951 184.437 23.5563 184.619 23.2608L189.701 15.8937L185.131 9.31112C184.949 9.01553 184.858 8.77679 184.858 8.59488C184.858 8.36751 184.949 8.19697 185.131 8.08328C185.312 7.94686 185.574 7.87864 185.915 7.87864H187.177C187.791 7.87864 188.268 8.12876 188.609 8.62899L191.781 13.3357L194.885 8.6631C195.203 8.14013 195.681 7.87864 196.317 7.87864H197.511C197.83 7.87864 198.08 7.94686 198.262 8.08328C198.443 8.21971 198.534 8.40161 198.534 8.62899C198.534 8.81089 198.443 9.04964 198.262 9.34523L193.794 15.7573L198.875 23.2608ZM211.159 7.43526C212.592 7.43526 213.865 7.79906 214.979 8.52667C216.116 9.25428 217.003 10.2888 217.64 11.6304C218.276 12.9719 218.595 14.5181 218.595 16.2689C218.595 18.0424 218.276 19.6 217.64 20.9415C217.003 22.283 216.116 23.3176 214.979 24.0452C213.843 24.7728 212.569 25.1366 211.159 25.1366C208.795 25.1366 207.021 24.3181 205.839 22.6809V29.5364C205.839 29.9229 205.737 30.2185 205.532 30.4232C205.327 30.6278 205.032 30.7301 204.645 30.7301H203.417C203.053 30.7301 202.758 30.6278 202.53 30.4232C202.326 30.2185 202.224 29.9229 202.224 29.5364V9.07238C202.224 8.68584 202.326 8.39024 202.53 8.1856C202.758 7.98096 203.053 7.87864 203.417 7.87864H204.406C204.793 7.87864 205.088 7.98096 205.293 8.1856C205.498 8.39024 205.6 8.68584 205.6 9.07238V10.3343C206.805 8.40161 208.658 7.43526 211.159 7.43526ZM210.409 21.9988C211.773 21.9988 212.865 21.4872 213.683 20.464C214.502 19.4181 214.911 18.0197 214.911 16.2689C214.911 14.5408 214.502 13.1538 213.683 12.1079C212.888 11.0619 211.808 10.539 210.443 10.539C209.056 10.539 207.919 11.0506 207.033 12.0738C206.146 13.097 205.702 14.4953 205.702 16.2689C205.702 18.0424 206.146 19.4408 207.033 20.464C207.919 21.4872 209.045 21.9988 210.409 21.9988ZM229.646 25.2048C227.987 25.2048 226.509 24.8297 225.212 24.0793C223.939 23.329 222.939 22.283 222.211 20.9415C221.484 19.5772 221.12 18.0197 221.12 16.2689C221.12 14.5181 221.484 12.9719 222.211 11.6304C222.939 10.2888 223.939 9.24291 225.212 8.49256C226.509 7.74222 227.987 7.36704 229.646 7.36704C231.283 7.36704 232.75 7.74222 234.046 8.49256C235.342 9.24291 236.354 10.3002 237.082 11.6645C237.809 13.006 238.173 14.5408 238.173 16.2689C238.173 18.0197 237.809 19.5772 237.082 20.9415C236.354 22.283 235.342 23.329 234.046 24.0793C232.75 24.8297 231.283 25.2048 229.646 25.2048ZM229.646 22.1693C231.102 22.1693 232.273 21.635 233.159 20.5663C234.046 19.4749 234.49 18.0424 234.49 16.2689C234.49 14.5181 234.046 13.1083 233.159 12.0397C232.273 10.971 231.102 10.4366 229.646 10.4366C228.191 10.4366 227.02 10.971 226.133 12.0397C225.247 13.1083 224.803 14.5181 224.803 16.2689C224.803 18.0424 225.247 19.4749 226.133 20.5663C227.02 21.635 228.191 22.1693 229.646 22.1693ZM248.931 7.70811C249.432 7.70811 249.943 7.76496 250.466 7.87864C251.08 8.01507 251.387 8.37888 251.387 8.97006C251.387 9.12922 251.376 9.24291 251.353 9.31112L251.182 10.1297C251.046 10.7663 250.705 11.0847 250.159 11.0847L249.852 11.0506C249.443 10.9824 249.079 10.9482 248.761 10.9482C247.624 10.9482 246.703 11.403 245.998 12.3125C245.316 13.1993 244.975 14.4385 244.975 16.0301V23.4995C244.975 23.8633 244.873 24.1589 244.668 24.3863C244.463 24.5909 244.168 24.6932 243.781 24.6932H242.553C242.19 24.6932 241.894 24.5909 241.667 24.3863C241.462 24.1589 241.36 23.8633 241.36 23.4995V9.07238C241.36 8.68584 241.462 8.39024 241.667 8.1856C241.894 7.98096 242.19 7.87864 242.553 7.87864H243.542C243.929 7.87864 244.225 7.98096 244.429 8.1856C244.634 8.39024 244.736 8.68584 244.736 9.07238V10.4025C245.145 9.56124 245.703 8.90184 246.407 8.42435C247.112 7.94686 247.954 7.70811 248.931 7.70811ZM262.533 21.8283C262.602 21.8055 262.704 21.7942 262.84 21.7942C263.409 21.7942 263.75 22.1239 263.864 22.7833L263.966 23.329C263.989 23.3972 264 23.5109 264 23.67C264 24.2385 263.682 24.6023 263.045 24.7614C262.136 24.9661 261.306 25.0684 260.555 25.0684C258.941 25.0684 257.77 24.6932 257.042 23.9429C256.337 23.1925 255.985 22.067 255.985 20.5663V10.6413H254.109C253.745 10.6413 253.45 10.539 253.222 10.3343C253.018 10.1069 252.915 9.81136 252.915 9.44755V9.07238C252.915 8.68584 253.018 8.39024 253.222 8.1856C253.45 7.98096 253.745 7.87864 254.109 7.87864H255.985V3.64942C255.985 3.26288 256.087 2.96728 256.292 2.76264C256.519 2.558 256.815 2.45568 257.179 2.45568H258.407C258.793 2.45568 259.089 2.558 259.293 2.76264C259.498 2.96728 259.6 3.26288 259.6 3.64942V7.87864H262.67C263.056 7.87864 263.352 7.98096 263.557 8.1856C263.761 8.39024 263.864 8.68584 263.864 9.07238V9.44755C263.864 9.81136 263.761 10.1069 263.557 10.3343C263.352 10.539 263.056 10.6413 262.67 10.6413H259.6V20.1229C259.6 20.7823 259.737 21.2485 260.01 21.5213C260.305 21.7942 260.771 21.9306 261.408 21.9306C261.681 21.9306 262.056 21.8965 262.533 21.8283Z" fill="#474445"/>
</svg>

</svg>
