<svg width="344" height="150" viewBox="0 0 344 150" fill="none" xmlns="http://www.w3.org/2000/svg">
<path d="M72.568 54C72.4187 54 72.2973 53.958 72.204 53.874C72.12 53.7807 72.078 53.6593 72.078 53.51V44.55C72.078 44.3913 72.12 44.27 72.204 44.186C72.2973 44.102 72.4187 44.06 72.568 44.06H78.378C78.5367 44.06 78.658 44.102 78.742 44.186C78.826 44.27 78.868 44.3913 78.868 44.55V44.914C78.868 45.0633 78.826 45.1847 78.742 45.278C78.658 45.362 78.5367 45.404 78.378 45.404H73.674V48.204H78.028C78.1867 48.204 78.308 48.246 78.392 48.33C78.476 48.414 78.518 48.5353 78.518 48.694V49.058C78.518 49.2073 78.476 49.3287 78.392 49.422C78.308 49.506 78.1867 49.548 78.028 49.548H73.674V52.656H78.518C78.6767 52.656 78.798 52.698 78.882 52.782C78.966 52.866 79.008 52.9873 79.008 53.146V53.51C79.008 53.6593 78.966 53.7807 78.882 53.874C78.798 53.958 78.6767 54 78.518 54H72.568ZM87.9143 46.888C88.6516 46.888 89.221 47.098 89.6223 47.518C90.0236 47.9287 90.2243 48.484 90.2243 49.184V53.51C90.2243 53.6593 90.1823 53.7807 90.0983 53.874C90.0143 53.958 89.893 54 89.7343 54H89.2303C89.081 54 88.9596 53.958 88.8663 53.874C88.7823 53.7807 88.7403 53.6593 88.7403 53.51V49.632C88.7403 49.1747 88.6376 48.8153 88.4323 48.554C88.227 48.2927 87.9143 48.162 87.4943 48.162C87.065 48.162 86.7243 48.3067 86.4723 48.596C86.2296 48.8853 86.1083 49.2587 86.1083 49.716V53.51C86.1083 53.6593 86.0663 53.7807 85.9823 53.874C85.8983 53.958 85.777 54 85.6183 54H85.1143C84.965 54 84.8436 53.958 84.7503 53.874C84.6663 53.7807 84.6243 53.6593 84.6243 53.51V49.632C84.6243 49.1747 84.5216 48.8153 84.3163 48.554C84.1203 48.2927 83.8123 48.162 83.3923 48.162C82.9816 48.162 82.6503 48.2973 82.3983 48.568C82.1463 48.8387 82.011 49.1887 81.9923 49.618V53.51C81.9923 53.6593 81.9503 53.7807 81.8663 53.874C81.7823 53.958 81.661 54 81.5023 54H80.9983C80.849 54 80.7276 53.958 80.6343 53.874C80.5503 53.7807 80.5083 53.6593 80.5083 53.51V47.588C80.5083 47.4293 80.5503 47.308 80.6343 47.224C80.7276 47.14 80.849 47.098 80.9983 47.098H81.4043C81.563 47.098 81.6843 47.14 81.7683 47.224C81.8523 47.308 81.8943 47.4293 81.8943 47.588V47.896C82.3236 47.224 82.9863 46.888 83.8823 46.888C84.3303 46.888 84.7223 46.9813 85.0583 47.168C85.3943 47.3547 85.651 47.616 85.8283 47.952C86.3043 47.2427 86.9996 46.888 87.9143 46.888ZM94.8363 46.888C95.7696 46.888 96.4883 47.1073 96.9923 47.546C97.4963 47.9753 97.7483 48.5493 97.7483 49.268V53.51C97.7483 53.6593 97.7063 53.7807 97.6223 53.874C97.5383 53.958 97.417 54 97.2583 54H96.8943C96.745 54 96.6236 53.958 96.5303 53.874C96.4463 53.7807 96.4043 53.6593 96.4043 53.51V53.202C96.1803 53.5287 95.8723 53.7807 95.4803 53.958C95.0883 54.1353 94.631 54.224 94.1083 54.224C93.3896 54.224 92.797 54.0653 92.3303 53.748C91.873 53.4213 91.6443 52.9313 91.6443 52.278C91.6443 51.55 91.915 51.0133 92.4563 50.668C93.007 50.3133 93.7676 50.0473 94.7383 49.87L96.3203 49.576V49.324C96.3203 48.9413 96.185 48.6473 95.9143 48.442C95.653 48.2273 95.303 48.12 94.8643 48.12C94.491 48.12 94.1643 48.1853 93.8843 48.316C93.6136 48.4373 93.3196 48.6427 93.0023 48.932C92.881 49.0347 92.7643 49.086 92.6523 49.086C92.5403 49.086 92.4236 49.0347 92.3023 48.932L92.0783 48.736C91.957 48.624 91.8963 48.5027 91.8963 48.372C91.8963 48.2507 91.9523 48.134 92.0643 48.022C92.4656 47.6393 92.8903 47.3547 93.3383 47.168C93.7863 46.9813 94.2856 46.888 94.8363 46.888ZM94.3183 53.034C94.8783 53.034 95.3496 52.8847 95.7323 52.586C96.1243 52.2873 96.3203 51.858 96.3203 51.298V50.654L95.1023 50.906C94.421 51.046 93.917 51.2047 93.5903 51.382C93.2636 51.5593 93.1003 51.83 93.1003 52.194C93.1003 52.4553 93.2076 52.6607 93.4223 52.81C93.637 52.9593 93.9356 53.034 94.3183 53.034ZM100.2 45.754C99.9292 45.754 99.7005 45.6653 99.5138 45.488C99.3272 45.3013 99.2338 45.082 99.2338 44.83C99.2338 44.5687 99.3272 44.3493 99.5138 44.172C99.7005 43.9947 99.9292 43.906 100.2 43.906C100.471 43.906 100.699 43.9947 100.886 44.172C101.073 44.3493 101.166 44.5687 101.166 44.83C101.166 45.082 101.073 45.3013 100.886 45.488C100.699 45.6653 100.471 45.754 100.2 45.754ZM99.9338 54C99.7845 54 99.6632 53.958 99.5698 53.874C99.4858 53.7807 99.4438 53.6593 99.4438 53.51V47.588C99.4438 47.4293 99.4858 47.308 99.5698 47.224C99.6632 47.14 99.7845 47.098 99.9338 47.098H100.438C100.597 47.098 100.718 47.14 100.802 47.224C100.886 47.308 100.928 47.4293 100.928 47.588V53.51C100.928 53.6593 100.886 53.7807 100.802 53.874C100.718 53.958 100.597 54 100.438 54H99.9338ZM103.189 54C103.04 54 102.918 53.958 102.825 53.874C102.741 53.7807 102.699 53.6593 102.699 53.51V44.55C102.699 44.3913 102.741 44.27 102.825 44.186C102.918 44.102 103.04 44.06 103.189 44.06H103.693C103.852 44.06 103.973 44.102 104.057 44.186C104.141 44.27 104.183 44.3913 104.183 44.55V53.51C104.183 53.6593 104.141 53.7807 104.057 53.874C103.973 53.958 103.852 54 103.693 54H103.189ZM116.173 54C115.893 54 115.706 53.8693 115.613 53.608L114.955 51.718H110.559L109.901 53.608C109.808 53.8693 109.621 54 109.341 54H108.753C108.613 54 108.501 53.972 108.417 53.916C108.342 53.8507 108.305 53.762 108.305 53.65C108.305 53.594 108.319 53.524 108.347 53.44L111.595 44.452C111.688 44.1907 111.875 44.06 112.155 44.06H113.401C113.681 44.06 113.868 44.1907 113.961 44.452L117.209 53.44C117.237 53.524 117.251 53.594 117.251 53.65C117.251 53.762 117.209 53.8507 117.125 53.916C117.05 53.972 116.943 54 116.803 54H116.173ZM114.507 50.388L114.073 49.156C114.064 49.1373 113.961 48.8433 113.765 48.274C113.27 46.874 112.934 45.8753 112.757 45.278C112.486 46.1367 112.127 47.2007 111.679 48.47L111.441 49.17L111.021 50.388H114.507ZM123.251 44.536C123.251 44.3773 123.293 44.256 123.377 44.172C123.47 44.088 123.592 44.046 123.741 44.046H124.245C124.404 44.046 124.525 44.088 124.609 44.172C124.693 44.256 124.735 44.3773 124.735 44.536V53.51C124.735 53.6593 124.693 53.7807 124.609 53.874C124.525 53.958 124.404 54 124.245 54H123.839C123.69 54 123.568 53.958 123.475 53.874C123.391 53.7807 123.349 53.6593 123.349 53.51V53.02C122.864 53.804 122.103 54.196 121.067 54.196C120.488 54.196 119.966 54.0467 119.499 53.748C119.042 53.4493 118.682 53.0247 118.421 52.474C118.16 51.9233 118.029 51.284 118.029 50.556C118.029 49.8373 118.16 49.2027 118.421 48.652C118.692 48.1013 119.06 47.6767 119.527 47.378C119.994 47.0793 120.516 46.93 121.095 46.93C122.047 46.93 122.766 47.2613 123.251 47.924V44.536ZM121.375 52.922C121.944 52.922 122.411 52.712 122.775 52.292C123.139 51.8627 123.321 51.284 123.321 50.556C123.321 49.828 123.139 49.254 122.775 48.834C122.411 48.414 121.944 48.204 121.375 48.204C120.824 48.204 120.381 48.4187 120.045 48.848C119.709 49.2773 119.541 49.8467 119.541 50.556C119.541 51.2747 119.704 51.8487 120.031 52.278C120.367 52.7073 120.815 52.922 121.375 52.922ZM131.317 44.536C131.317 44.3773 131.359 44.256 131.443 44.172C131.537 44.088 131.658 44.046 131.807 44.046H132.311C132.47 44.046 132.591 44.088 132.675 44.172C132.759 44.256 132.801 44.3773 132.801 44.536V53.51C132.801 53.6593 132.759 53.7807 132.675 53.874C132.591 53.958 132.47 54 132.311 54H131.905C131.756 54 131.635 53.958 131.541 53.874C131.457 53.7807 131.415 53.6593 131.415 53.51V53.02C130.93 53.804 130.169 54.196 129.133 54.196C128.555 54.196 128.032 54.0467 127.565 53.748C127.108 53.4493 126.749 53.0247 126.487 52.474C126.226 51.9233 126.095 51.284 126.095 50.556C126.095 49.8373 126.226 49.2027 126.487 48.652C126.758 48.1013 127.127 47.6767 127.593 47.378C128.06 47.0793 128.583 46.93 129.161 46.93C130.113 46.93 130.832 47.2613 131.317 47.924V44.536ZM129.441 52.922C130.011 52.922 130.477 52.712 130.841 52.292C131.205 51.8627 131.387 51.284 131.387 50.556C131.387 49.828 131.205 49.254 130.841 48.834C130.477 48.414 130.011 48.204 129.441 48.204C128.891 48.204 128.447 48.4187 128.111 48.848C127.775 49.2773 127.607 49.8467 127.607 50.556C127.607 51.2747 127.771 51.8487 128.097 52.278C128.433 52.7073 128.881 52.922 129.441 52.922ZM137.634 47.028C137.839 47.028 138.049 47.0513 138.264 47.098C138.516 47.154 138.642 47.3033 138.642 47.546C138.642 47.6113 138.637 47.658 138.628 47.686L138.558 48.022C138.502 48.2833 138.362 48.414 138.138 48.414L138.012 48.4C137.844 48.372 137.695 48.358 137.564 48.358C137.097 48.358 136.719 48.5447 136.43 48.918C136.15 49.282 136.01 49.7907 136.01 50.444V53.51C136.01 53.6593 135.968 53.7807 135.884 53.874C135.8 53.958 135.679 54 135.52 54H135.016C134.867 54 134.745 53.958 134.652 53.874C134.568 53.7807 134.526 53.6593 134.526 53.51V47.588C134.526 47.4293 134.568 47.308 134.652 47.224C134.745 47.14 134.867 47.098 135.016 47.098H135.422C135.581 47.098 135.702 47.14 135.786 47.224C135.87 47.308 135.912 47.4293 135.912 47.588V48.134C136.08 47.7887 136.309 47.518 136.598 47.322C136.887 47.126 137.233 47.028 137.634 47.028ZM144.335 52.236C144.456 52.1333 144.573 52.082 144.685 52.082C144.797 52.082 144.914 52.1427 145.035 52.264L145.231 52.474C145.334 52.5953 145.385 52.712 145.385 52.824C145.385 52.9453 145.324 53.062 145.203 53.174C144.774 53.5473 144.344 53.8133 143.915 53.972C143.495 54.1307 143.028 54.21 142.515 54.21C141.796 54.21 141.171 54.0607 140.639 53.762C140.116 53.4633 139.71 53.0433 139.421 52.502C139.141 51.9513 139.001 51.3167 139.001 50.598C139.001 49.8887 139.136 49.254 139.407 48.694C139.687 48.1247 140.079 47.6813 140.583 47.364C141.096 47.0467 141.694 46.888 142.375 46.888C143.392 46.888 144.176 47.1913 144.727 47.798C145.278 48.3953 145.553 49.2213 145.553 50.276V50.402C145.544 50.5513 145.497 50.668 145.413 50.752C145.329 50.836 145.208 50.878 145.049 50.878H140.457C140.513 51.494 140.714 51.998 141.059 52.39C141.414 52.7727 141.908 52.964 142.543 52.964C142.888 52.964 143.192 52.9127 143.453 52.81C143.714 52.698 144.008 52.5067 144.335 52.236ZM142.347 48.064C141.834 48.064 141.418 48.218 141.101 48.526C140.793 48.8247 140.592 49.2493 140.499 49.8H144.097C144.06 49.2587 143.892 48.834 143.593 48.526C143.294 48.218 142.879 48.064 142.347 48.064ZM149.6 54.21C149.031 54.21 148.522 54.14 148.074 54C147.635 53.8507 147.187 53.594 146.73 53.23C146.59 53.1273 146.52 53.0107 146.52 52.88C146.52 52.7773 146.571 52.6653 146.674 52.544L146.884 52.306C146.996 52.1753 147.117 52.11 147.248 52.11C147.351 52.11 147.463 52.1567 147.584 52.25C147.976 52.5393 148.321 52.74 148.62 52.852C148.919 52.9547 149.255 53.006 149.628 53.006C150.029 53.006 150.356 52.9267 150.608 52.768C150.869 52.6 151 52.376 151 52.096C151 51.8813 150.925 51.7133 150.776 51.592C150.636 51.4613 150.449 51.3633 150.216 51.298C149.983 51.2233 149.637 51.1393 149.18 51.046C148.536 50.906 148.032 50.7567 147.668 50.598C147.313 50.43 147.057 50.22 146.898 49.968C146.739 49.716 146.66 49.394 146.66 49.002C146.66 48.6007 146.772 48.2413 146.996 47.924C147.229 47.6067 147.551 47.3547 147.962 47.168C148.382 46.9813 148.872 46.888 149.432 46.888C149.936 46.888 150.384 46.944 150.776 47.056C151.177 47.168 151.569 47.3593 151.952 47.63C152.101 47.742 152.176 47.868 152.176 48.008C152.176 48.1013 152.129 48.2087 152.036 48.33L151.854 48.554C151.751 48.6847 151.625 48.75 151.476 48.75C151.364 48.75 151.257 48.7127 151.154 48.638C150.846 48.4327 150.561 48.2927 150.3 48.218C150.039 48.134 149.745 48.092 149.418 48.092C149.017 48.092 148.695 48.1713 148.452 48.33C148.209 48.4887 148.088 48.694 148.088 48.946C148.088 49.114 148.144 49.2493 148.256 49.352C148.377 49.4453 148.545 49.5293 148.76 49.604C148.984 49.6693 149.334 49.7533 149.81 49.856C150.454 49.996 150.963 50.1547 151.336 50.332C151.719 50.5 151.999 50.7193 152.176 50.99C152.363 51.2513 152.456 51.592 152.456 52.012C152.456 52.6653 152.195 53.1973 151.672 53.608C151.159 54.0093 150.468 54.21 149.6 54.21ZM156.395 54.21C155.826 54.21 155.317 54.14 154.869 54C154.43 53.8507 153.982 53.594 153.525 53.23C153.385 53.1273 153.315 53.0107 153.315 52.88C153.315 52.7773 153.366 52.6653 153.469 52.544L153.679 52.306C153.791 52.1753 153.912 52.11 154.043 52.11C154.146 52.11 154.258 52.1567 154.379 52.25C154.771 52.5393 155.116 52.74 155.415 52.852C155.714 52.9547 156.05 53.006 156.423 53.006C156.824 53.006 157.151 52.9267 157.403 52.768C157.664 52.6 157.795 52.376 157.795 52.096C157.795 51.8813 157.72 51.7133 157.571 51.592C157.431 51.4613 157.244 51.3633 157.011 51.298C156.778 51.2233 156.432 51.1393 155.975 51.046C155.331 50.906 154.827 50.7567 154.463 50.598C154.108 50.43 153.852 50.22 153.693 49.968C153.534 49.716 153.455 49.394 153.455 49.002C153.455 48.6007 153.567 48.2413 153.791 47.924C154.024 47.6067 154.346 47.3547 154.757 47.168C155.177 46.9813 155.667 46.888 156.227 46.888C156.731 46.888 157.179 46.944 157.571 47.056C157.972 47.168 158.364 47.3593 158.747 47.63C158.896 47.742 158.971 47.868 158.971 48.008C158.971 48.1013 158.924 48.2087 158.831 48.33L158.649 48.554C158.546 48.6847 158.42 48.75 158.271 48.75C158.159 48.75 158.052 48.7127 157.949 48.638C157.641 48.4327 157.356 48.2927 157.095 48.218C156.834 48.134 156.54 48.092 156.213 48.092C155.812 48.092 155.49 48.1713 155.247 48.33C155.004 48.4887 154.883 48.694 154.883 48.946C154.883 49.114 154.939 49.2493 155.051 49.352C155.172 49.4453 155.34 49.5293 155.555 49.604C155.779 49.6693 156.129 49.7533 156.605 49.856C157.249 49.996 157.758 50.1547 158.131 50.332C158.514 50.5 158.794 50.7193 158.971 50.99C159.158 51.2513 159.251 51.592 159.251 52.012C159.251 52.6653 158.99 53.1973 158.467 53.608C157.954 54.0093 157.263 54.21 156.395 54.21Z" fill="#474445"/>
<path d="M71 66C71 63.7909 72.7909 62 75 62H270C272.209 62 274 63.7909 274 66V106C274 108.209 272.209 110 270 110H75C72.7909 110 71 108.209 71 106V66Z" fill="white"/>
<path d="M83.704 82.92C84.632 82.92 85.3307 83.176 85.8 83.688C86.28 84.2 86.52 84.84 86.52 85.608V90.68C86.52 90.8933 86.4133 91 86.2 91H85.784C85.5707 91 85.464 90.8933 85.464 90.68V85.96C85.464 85.256 85.2933 84.7227 84.952 84.36C84.6107 83.9973 84.12 83.816 83.48 83.816C83.0747 83.816 82.7013 83.9173 82.36 84.12C82.0187 84.312 81.7467 84.5787 81.544 84.92C81.3413 85.2613 81.24 85.6347 81.24 86.04V90.68C81.24 90.8933 81.1333 91 80.92 91H80.504C80.2907 91 80.184 90.8933 80.184 90.68V83.432C80.184 83.2187 80.2907 83.112 80.504 83.112H80.856C81.0693 83.112 81.176 83.2187 81.176 83.432V84.2C81.4427 83.7733 81.7947 83.4533 82.232 83.24C82.6693 83.0267 83.16 82.92 83.704 82.92ZM91.8959 82.92C92.8665 82.92 93.6239 83.1547 94.1679 83.624C94.7119 84.0827 94.9839 84.6907 94.9839 85.448V90.68C94.9839 90.8933 94.8772 91 94.6639 91H94.3439C94.1305 91 94.0239 90.8933 94.0239 90.68V89.96C93.7572 90.3867 93.3785 90.7067 92.8879 90.92C92.4079 91.1333 91.8692 91.24 91.2719 91.24C90.4399 91.24 89.7625 91.064 89.2399 90.712C88.7172 90.36 88.4559 89.816 88.4559 89.08C88.4559 88.4933 88.6212 88.024 88.9519 87.672C89.2825 87.3093 89.7145 87.0373 90.2479 86.856C90.7812 86.664 91.4479 86.4933 92.2479 86.344L93.9759 86.04V85.528C93.9759 84.984 93.7892 84.5627 93.4159 84.264C93.0425 83.9547 92.5519 83.8 91.9439 83.8C91.4852 83.8 91.0692 83.8853 90.6959 84.056C90.3225 84.2267 89.9225 84.52 89.4959 84.936C89.4212 85.0107 89.3412 85.048 89.2559 85.048C89.1812 85.048 89.1119 85.016 89.0479 84.952L88.8399 84.76C88.7652 84.6853 88.7279 84.6053 88.7279 84.52C88.7279 84.424 88.7652 84.3387 88.8399 84.264C89.2879 83.7947 89.7572 83.4533 90.2479 83.24C90.7492 83.0267 91.2985 82.92 91.8959 82.92ZM91.3199 90.36C92.0879 90.36 92.7225 90.1573 93.2239 89.752C93.7252 89.3467 93.9759 88.8293 93.9759 88.2V86.856L92.4879 87.144C91.7945 87.2827 91.2452 87.416 90.8399 87.544C90.4345 87.672 90.1092 87.8587 89.8639 88.104C89.6185 88.3493 89.4959 88.6693 89.4959 89.064C89.4959 89.4693 89.6559 89.7893 89.9759 90.024C90.3065 90.248 90.7545 90.36 91.3199 90.36ZM105.341 82.92C106.194 82.92 106.845 83.1653 107.293 83.656C107.751 84.136 107.981 84.7547 107.981 85.512V90.68C107.981 90.8933 107.874 91 107.661 91H107.245C107.031 91 106.925 90.8933 106.925 90.68V85.8C106.925 85.16 106.775 84.6693 106.477 84.328C106.189 83.9867 105.757 83.816 105.181 83.816C104.573 83.816 104.087 84.0187 103.725 84.424C103.362 84.8293 103.181 85.352 103.181 85.992V90.68C103.181 90.8933 103.074 91 102.861 91H102.445C102.231 91 102.125 90.8933 102.125 90.68V85.8C102.125 85.16 101.975 84.6693 101.677 84.328C101.389 83.9867 100.951 83.816 100.365 83.816C99.8206 83.816 99.3673 83.9867 99.0046 84.328C98.6526 84.6693 98.4446 85.1173 98.3806 85.672V90.68C98.3806 90.8933 98.274 91 98.0606 91H97.6446C97.4313 91 97.3246 90.8933 97.3246 90.68V83.432C97.3246 83.2187 97.4313 83.112 97.6446 83.112H97.9966C98.21 83.112 98.3166 83.2187 98.3166 83.432V84.088C98.7966 83.3093 99.5593 82.92 100.605 82.92C101.149 82.92 101.613 83.0427 101.997 83.288C102.391 83.5227 102.685 83.8427 102.877 84.248C103.442 83.3627 104.263 82.92 105.341 82.92ZM116.053 89.128C116.128 89.0533 116.208 89.016 116.293 89.016C116.368 89.016 116.437 89.048 116.501 89.112L116.709 89.304C116.784 89.3787 116.821 89.4587 116.821 89.544C116.821 89.608 116.789 89.6827 116.725 89.768C116.202 90.2907 115.696 90.664 115.205 90.888C114.714 91.1013 114.165 91.208 113.557 91.208C112.789 91.208 112.122 91.0373 111.557 90.696C110.992 90.3547 110.554 89.88 110.245 89.272C109.936 88.6533 109.781 87.9387 109.781 87.128C109.781 86.3067 109.93 85.5813 110.229 84.952C110.538 84.312 110.97 83.816 111.525 83.464C112.08 83.1013 112.72 82.92 113.445 82.92C114.522 82.92 115.37 83.256 115.989 83.928C116.608 84.6 116.917 85.5067 116.917 86.648V86.84C116.906 86.936 116.869 87.0107 116.805 87.064C116.752 87.1173 116.677 87.144 116.581 87.144H110.853C110.885 88.04 111.12 88.7973 111.557 89.416C112.005 90.024 112.672 90.328 113.557 90.328C114.037 90.328 114.458 90.2427 114.821 90.072C115.194 89.8907 115.605 89.576 116.053 89.128ZM113.445 83.8C112.741 83.8 112.16 84.0187 111.701 84.456C111.253 84.8827 110.981 85.512 110.885 86.344H115.861C115.84 85.5653 115.616 84.9467 115.189 84.488C114.762 84.0293 114.181 83.8 113.445 83.8ZM128.169 83.8C128.276 83.8 128.35 83.832 128.393 83.896C128.446 83.96 128.462 84.0453 128.441 84.152L127.641 87.976C127.566 88.296 127.529 88.5733 127.529 88.808C127.529 89.6293 127.934 90.04 128.745 90.04C129.14 90.04 129.502 89.9067 129.833 89.64C130.164 89.3627 130.425 88.968 130.617 88.456C130.809 87.944 130.905 87.3413 130.905 86.648C130.905 85.4533 130.649 84.44 130.137 83.608C129.625 82.7653 128.942 82.1307 128.089 81.704C127.246 81.2773 126.313 81.064 125.289 81.064C124.116 81.064 123.076 81.3413 122.169 81.896C121.262 82.44 120.558 83.192 120.057 84.152C119.556 85.1013 119.305 86.1627 119.305 87.336C119.305 88.4773 119.545 89.5013 120.025 90.408C120.505 91.304 121.214 92.008 122.153 92.52C123.092 93.0427 124.222 93.304 125.545 93.304H128.633C128.846 93.304 128.953 93.4107 128.953 93.624V93.72C128.953 93.9333 128.846 94.04 128.633 94.04H125.305C123.897 94.04 122.67 93.752 121.625 93.176C120.59 92.6107 119.796 91.8213 119.241 90.808C118.697 89.784 118.425 88.616 118.425 87.304C118.425 85.9707 118.702 84.776 119.257 83.72C119.812 82.6533 120.606 81.8213 121.641 81.224C122.676 80.616 123.876 80.312 125.241 80.312C126.51 80.312 127.641 80.5733 128.633 81.096C129.625 81.608 130.398 82.3387 130.953 83.288C131.508 84.2373 131.785 85.3413 131.785 86.6C131.785 87.4427 131.652 88.1787 131.385 88.808C131.118 89.4373 130.75 89.928 130.281 90.28C129.812 90.6213 129.278 90.792 128.681 90.792C127.998 90.792 127.502 90.6267 127.193 90.296C126.894 89.9547 126.729 89.5707 126.697 89.144C126.356 89.6773 125.961 90.088 125.513 90.376C125.065 90.6533 124.532 90.792 123.913 90.792C123.209 90.792 122.654 90.584 122.249 90.168C121.844 89.7413 121.641 89.1493 121.641 88.392C121.641 87.6453 121.796 86.9093 122.105 86.184C122.425 85.448 122.873 84.8453 123.449 84.376C124.025 83.9067 124.681 83.672 125.417 83.672C125.972 83.672 126.414 83.7947 126.745 84.04C127.086 84.2747 127.3 84.5947 127.385 85L127.561 84.088C127.593 83.896 127.71 83.8 127.913 83.8H128.169ZM124.041 89.976C124.67 89.976 125.198 89.7573 125.625 89.32C126.062 88.872 126.388 88.344 126.601 87.736C126.814 87.1173 126.921 86.568 126.921 86.088C126.921 85.544 126.809 85.1387 126.585 84.872C126.361 84.5947 125.982 84.456 125.449 84.456C124.905 84.456 124.414 84.648 123.977 85.032C123.55 85.416 123.214 85.9067 122.969 86.504C122.734 87.1013 122.617 87.6987 122.617 88.296C122.617 88.8613 122.74 89.2827 122.985 89.56C123.241 89.8373 123.593 89.976 124.041 89.976ZM141.778 82.92C142.631 82.92 143.282 83.1653 143.73 83.656C144.189 84.136 144.418 84.7547 144.418 85.512V90.68C144.418 90.8933 144.311 91 144.098 91H143.682C143.469 91 143.362 90.8933 143.362 90.68V85.8C143.362 85.16 143.213 84.6693 142.914 84.328C142.626 83.9867 142.194 83.816 141.618 83.816C141.01 83.816 140.525 84.0187 140.162 84.424C139.799 84.8293 139.618 85.352 139.618 85.992V90.68C139.618 90.8933 139.511 91 139.298 91H138.882C138.669 91 138.562 90.8933 138.562 90.68V85.8C138.562 85.16 138.413 84.6693 138.114 84.328C137.826 83.9867 137.389 83.816 136.802 83.816C136.258 83.816 135.805 83.9867 135.442 84.328C135.09 84.6693 134.882 85.1173 134.818 85.672V90.68C134.818 90.8933 134.711 91 134.498 91H134.082C133.869 91 133.762 90.8933 133.762 90.68V83.432C133.762 83.2187 133.869 83.112 134.082 83.112H134.434C134.647 83.112 134.754 83.2187 134.754 83.432V84.088C135.234 83.3093 135.997 82.92 137.042 82.92C137.586 82.92 138.05 83.0427 138.434 83.288C138.829 83.5227 139.122 83.8427 139.314 84.248C139.879 83.3627 140.701 82.92 141.778 82.92ZM149.786 82.92C150.757 82.92 151.515 83.1547 152.059 83.624C152.603 84.0827 152.875 84.6907 152.875 85.448V90.68C152.875 90.8933 152.768 91 152.555 91H152.235C152.021 91 151.915 90.8933 151.915 90.68V89.96C151.648 90.3867 151.269 90.7067 150.779 90.92C150.299 91.1333 149.76 91.24 149.163 91.24C148.331 91.24 147.653 91.064 147.131 90.712C146.608 90.36 146.347 89.816 146.347 89.08C146.347 88.4933 146.512 88.024 146.843 87.672C147.173 87.3093 147.605 87.0373 148.139 86.856C148.672 86.664 149.339 86.4933 150.139 86.344L151.867 86.04V85.528C151.867 84.984 151.68 84.5627 151.307 84.264C150.933 83.9547 150.443 83.8 149.835 83.8C149.376 83.8 148.96 83.8853 148.587 84.056C148.213 84.2267 147.813 84.52 147.387 84.936C147.312 85.0107 147.232 85.048 147.147 85.048C147.072 85.048 147.003 85.016 146.939 84.952L146.731 84.76C146.656 84.6853 146.618 84.6053 146.618 84.52C146.618 84.424 146.656 84.3387 146.731 84.264C147.179 83.7947 147.648 83.4533 148.139 83.24C148.64 83.0267 149.189 82.92 149.786 82.92ZM149.211 90.36C149.979 90.36 150.613 90.1573 151.115 89.752C151.616 89.3467 151.867 88.8293 151.867 88.2V86.856L150.379 87.144C149.685 87.2827 149.136 87.416 148.731 87.544C148.325 87.672 148 87.8587 147.755 88.104C147.509 88.3493 147.387 88.6693 147.387 89.064C147.387 89.4693 147.547 89.7893 147.867 90.024C148.197 90.248 148.645 90.36 149.211 90.36ZM155.743 81.112C155.53 81.112 155.349 81.0373 155.199 80.888C155.061 80.7387 154.991 80.5573 154.991 80.344C154.991 80.1307 155.061 79.9547 155.199 79.816C155.349 79.6773 155.53 79.608 155.743 79.608C155.967 79.608 156.149 79.6773 156.287 79.816C156.437 79.9547 156.511 80.1307 156.511 80.344C156.511 80.5573 156.437 80.7387 156.287 80.888C156.149 81.0373 155.967 81.112 155.743 81.112ZM155.535 91C155.322 91 155.215 90.8933 155.215 90.68V83.432C155.215 83.2187 155.322 83.112 155.535 83.112H155.951C156.165 83.112 156.271 83.2187 156.271 83.432V90.68C156.271 90.8933 156.165 91 155.951 91H155.535ZM158.958 91C158.744 91 158.638 90.8933 158.638 90.68V79.96C158.638 79.7467 158.744 79.64 158.958 79.64H159.374C159.587 79.64 159.694 79.7467 159.694 79.96V90.68C159.694 90.8933 159.587 91 159.374 91H158.958ZM162.507 91.112C162.283 91.112 162.091 91.032 161.931 90.872C161.771 90.712 161.691 90.52 161.691 90.296C161.691 90.072 161.771 89.88 161.931 89.72C162.091 89.56 162.283 89.48 162.507 89.48C162.731 89.48 162.923 89.56 163.083 89.72C163.243 89.88 163.323 90.072 163.323 90.296C163.323 90.52 163.243 90.712 163.083 90.872C162.923 91.032 162.731 91.112 162.507 91.112ZM168.353 91.208C167.595 91.208 166.934 91.0373 166.369 90.696C165.814 90.344 165.382 89.8587 165.073 89.24C164.774 88.6107 164.625 87.8853 164.625 87.064C164.625 86.2533 164.774 85.5333 165.073 84.904C165.382 84.2747 165.814 83.7893 166.369 83.448C166.934 83.096 167.585 82.92 168.321 82.92C168.918 82.92 169.441 83.0213 169.889 83.224C170.337 83.416 170.769 83.736 171.185 84.184C171.249 84.248 171.281 84.3173 171.281 84.392C171.281 84.488 171.238 84.568 171.153 84.632L170.929 84.84C170.865 84.904 170.79 84.936 170.705 84.936C170.63 84.936 170.55 84.8933 170.465 84.808C170.091 84.4347 169.734 84.1733 169.393 84.024C169.062 83.8747 168.694 83.8 168.289 83.8C167.734 83.8 167.259 83.9547 166.865 84.264C166.481 84.5733 166.193 84.9787 166.001 85.48C165.809 85.9707 165.713 86.4987 165.713 87.064C165.713 87.6293 165.809 88.1627 166.001 88.664C166.193 89.1547 166.486 89.5547 166.881 89.864C167.275 90.1627 167.761 90.312 168.337 90.312C168.763 90.312 169.137 90.2373 169.457 90.088C169.787 89.928 170.155 89.6293 170.561 89.192C170.646 89.1067 170.726 89.064 170.801 89.064C170.886 89.064 170.961 89.096 171.025 89.16L171.249 89.336C171.323 89.4 171.361 89.4747 171.361 89.56C171.361 89.6453 171.313 89.7467 171.217 89.864C170.769 90.3547 170.321 90.7013 169.873 90.904C169.425 91.1067 168.918 91.208 168.353 91.208ZM176.182 91.208C175.446 91.208 174.79 91.032 174.214 90.68C173.638 90.328 173.19 89.8427 172.87 89.224C172.55 88.5947 172.39 87.8747 172.39 87.064C172.39 86.2533 172.55 85.5387 172.87 84.92C173.19 84.2907 173.638 83.8 174.214 83.448C174.79 83.096 175.446 82.92 176.182 82.92C176.918 82.92 177.574 83.096 178.15 83.448C178.726 83.8 179.174 84.2907 179.494 84.92C179.814 85.5387 179.974 86.2533 179.974 87.064C179.974 87.8747 179.814 88.5947 179.494 89.224C179.174 89.8427 178.726 90.328 178.15 90.68C177.574 91.032 176.918 91.208 176.182 91.208ZM176.182 90.328C177.004 90.328 177.66 90.0293 178.15 89.432C178.641 88.824 178.886 88.0347 178.886 87.064C178.886 86.0933 178.641 85.3093 178.15 84.712C177.66 84.104 177.004 83.8 176.182 83.8C175.361 83.8 174.705 84.104 174.214 84.712C173.724 85.3093 173.478 86.0933 173.478 87.064C173.478 88.0347 173.724 88.824 174.214 89.432C174.705 90.0293 175.361 90.328 176.182 90.328ZM189.825 82.92C190.678 82.92 191.329 83.1653 191.777 83.656C192.236 84.136 192.465 84.7547 192.465 85.512V90.68C192.465 90.8933 192.358 91 192.145 91H191.729C191.516 91 191.409 90.8933 191.409 90.68V85.8C191.409 85.16 191.26 84.6693 190.961 84.328C190.673 83.9867 190.241 83.816 189.665 83.816C189.057 83.816 188.572 84.0187 188.209 84.424C187.846 84.8293 187.665 85.352 187.665 85.992V90.68C187.665 90.8933 187.558 91 187.345 91H186.929C186.716 91 186.609 90.8933 186.609 90.68V85.8C186.609 85.16 186.46 84.6693 186.161 84.328C185.873 83.9867 185.436 83.816 184.849 83.816C184.305 83.816 183.852 83.9867 183.489 84.328C183.137 84.6693 182.929 85.1173 182.865 85.672V90.68C182.865 90.8933 182.758 91 182.545 91H182.129C181.916 91 181.809 90.8933 181.809 90.68V83.432C181.809 83.2187 181.916 83.112 182.129 83.112H182.481C182.694 83.112 182.801 83.2187 182.801 83.432V84.088C183.281 83.3093 184.044 82.92 185.089 82.92C185.633 82.92 186.097 83.0427 186.481 83.288C186.876 83.5227 187.169 83.8427 187.361 84.248C187.926 83.3627 188.748 82.92 189.825 82.92Z" fill="#C3CCD9"/>
<path d="M75 63H270V61H75V63ZM273 66V106H275V66H273ZM270 109H75V111H270V109ZM72 106V66H70V106H72ZM75 109C73.3431 109 72 107.657 72 106H70C70 108.761 72.2386 111 75 111V109ZM273 106C273 107.657 271.657 109 270 109V111C272.761 111 275 108.761 275 106H273ZM270 63C271.657 63 273 64.3431 273 66H275C275 63.2386 272.761 61 270 61V63ZM75 61C72.2386 61 70 63.2386 70 66H72C72 64.3431 73.3431 63 75 63V61Z" fill="#C3CCD9"/>
</svg>
