<svg width="344" height="150" viewBox="0 0 344 150" fill="none" xmlns="http://www.w3.org/2000/svg">
<path d="M71.568 54C71.4187 54 71.2973 53.958 71.204 53.874C71.12 53.7807 71.078 53.6593 71.078 53.51V44.55C71.078 44.3913 71.12 44.27 71.204 44.186C71.2973 44.102 71.4187 44.06 71.568 44.06H77.378C77.5367 44.06 77.658 44.102 77.742 44.186C77.826 44.27 77.868 44.3913 77.868 44.55V44.914C77.868 45.0633 77.826 45.1847 77.742 45.278C77.658 45.362 77.5367 45.404 77.378 45.404H72.674V48.204H77.028C77.1867 48.204 77.308 48.246 77.392 48.33C77.476 48.414 77.518 48.5353 77.518 48.694V49.058C77.518 49.2073 77.476 49.3287 77.392 49.422C77.308 49.506 77.1867 49.548 77.028 49.548H72.674V52.656H77.518C77.6767 52.656 77.798 52.698 77.882 52.782C77.966 52.866 78.008 52.9873 78.008 53.146V53.51C78.008 53.6593 77.966 53.7807 77.882 53.874C77.798 53.958 77.6767 54 77.518 54H71.568ZM86.9143 46.888C87.6516 46.888 88.221 47.098 88.6223 47.518C89.0236 47.9287 89.2243 48.484 89.2243 49.184V53.51C89.2243 53.6593 89.1823 53.7807 89.0983 53.874C89.0143 53.958 88.893 54 88.7343 54H88.2303C88.081 54 87.9596 53.958 87.8663 53.874C87.7823 53.7807 87.7403 53.6593 87.7403 53.51V49.632C87.7403 49.1747 87.6376 48.8153 87.4323 48.554C87.227 48.2927 86.9143 48.162 86.4943 48.162C86.065 48.162 85.7243 48.3067 85.4723 48.596C85.2296 48.8853 85.1083 49.2587 85.1083 49.716V53.51C85.1083 53.6593 85.0663 53.7807 84.9823 53.874C84.8983 53.958 84.777 54 84.6183 54H84.1143C83.965 54 83.8436 53.958 83.7503 53.874C83.6663 53.7807 83.6243 53.6593 83.6243 53.51V49.632C83.6243 49.1747 83.5216 48.8153 83.3163 48.554C83.1203 48.2927 82.8123 48.162 82.3923 48.162C81.9816 48.162 81.6503 48.2973 81.3983 48.568C81.1463 48.8387 81.011 49.1887 80.9923 49.618V53.51C80.9923 53.6593 80.9503 53.7807 80.8663 53.874C80.7823 53.958 80.661 54 80.5023 54H79.9983C79.849 54 79.7276 53.958 79.6343 53.874C79.5503 53.7807 79.5083 53.6593 79.5083 53.51V47.588C79.5083 47.4293 79.5503 47.308 79.6343 47.224C79.7276 47.14 79.849 47.098 79.9983 47.098H80.4043C80.563 47.098 80.6843 47.14 80.7683 47.224C80.8523 47.308 80.8943 47.4293 80.8943 47.588V47.896C81.3236 47.224 81.9863 46.888 82.8823 46.888C83.3303 46.888 83.7223 46.9813 84.0583 47.168C84.3943 47.3547 84.651 47.616 84.8283 47.952C85.3043 47.2427 85.9996 46.888 86.9143 46.888ZM93.8363 46.888C94.7696 46.888 95.4883 47.1073 95.9923 47.546C96.4963 47.9753 96.7483 48.5493 96.7483 49.268V53.51C96.7483 53.6593 96.7063 53.7807 96.6223 53.874C96.5383 53.958 96.417 54 96.2583 54H95.8943C95.745 54 95.6236 53.958 95.5303 53.874C95.4463 53.7807 95.4043 53.6593 95.4043 53.51V53.202C95.1803 53.5287 94.8723 53.7807 94.4803 53.958C94.0883 54.1353 93.631 54.224 93.1083 54.224C92.3896 54.224 91.797 54.0653 91.3303 53.748C90.873 53.4213 90.6443 52.9313 90.6443 52.278C90.6443 51.55 90.915 51.0133 91.4563 50.668C92.007 50.3133 92.7676 50.0473 93.7383 49.87L95.3203 49.576V49.324C95.3203 48.9413 95.185 48.6473 94.9143 48.442C94.653 48.2273 94.303 48.12 93.8643 48.12C93.491 48.12 93.1643 48.1853 92.8843 48.316C92.6136 48.4373 92.3196 48.6427 92.0023 48.932C91.881 49.0347 91.7643 49.086 91.6523 49.086C91.5403 49.086 91.4236 49.0347 91.3023 48.932L91.0783 48.736C90.957 48.624 90.8963 48.5027 90.8963 48.372C90.8963 48.2507 90.9523 48.134 91.0643 48.022C91.4656 47.6393 91.8903 47.3547 92.3383 47.168C92.7863 46.9813 93.2856 46.888 93.8363 46.888ZM93.3183 53.034C93.8783 53.034 94.3496 52.8847 94.7323 52.586C95.1243 52.2873 95.3203 51.858 95.3203 51.298V50.654L94.1023 50.906C93.421 51.046 92.917 51.2047 92.5903 51.382C92.2636 51.5593 92.1003 51.83 92.1003 52.194C92.1003 52.4553 92.2076 52.6607 92.4223 52.81C92.637 52.9593 92.9356 53.034 93.3183 53.034ZM99.1998 45.754C98.9292 45.754 98.7005 45.6653 98.5138 45.488C98.3272 45.3013 98.2338 45.082 98.2338 44.83C98.2338 44.5687 98.3272 44.3493 98.5138 44.172C98.7005 43.9947 98.9292 43.906 99.1998 43.906C99.4705 43.906 99.6992 43.9947 99.8858 44.172C100.073 44.3493 100.166 44.5687 100.166 44.83C100.166 45.082 100.073 45.3013 99.8858 45.488C99.6992 45.6653 99.4705 45.754 99.1998 45.754ZM98.9338 54C98.7845 54 98.6632 53.958 98.5698 53.874C98.4858 53.7807 98.4438 53.6593 98.4438 53.51V47.588C98.4438 47.4293 98.4858 47.308 98.5698 47.224C98.6632 47.14 98.7845 47.098 98.9338 47.098H99.4378C99.5965 47.098 99.7178 47.14 99.8018 47.224C99.8858 47.308 99.9278 47.4293 99.9278 47.588V53.51C99.9278 53.6593 99.8858 53.7807 99.8018 53.874C99.7178 53.958 99.5965 54 99.4378 54H98.9338ZM102.189 54C102.04 54 101.918 53.958 101.825 53.874C101.741 53.7807 101.699 53.6593 101.699 53.51V44.55C101.699 44.3913 101.741 44.27 101.825 44.186C101.918 44.102 102.04 44.06 102.189 44.06H102.693C102.852 44.06 102.973 44.102 103.057 44.186C103.141 44.27 103.183 44.3913 103.183 44.55V53.51C103.183 53.6593 103.141 53.7807 103.057 53.874C102.973 53.958 102.852 54 102.693 54H102.189ZM110.995 46.888C111.928 46.888 112.647 47.1073 113.151 47.546C113.655 47.9753 113.907 48.5493 113.907 49.268V53.51C113.907 53.6593 113.865 53.7807 113.781 53.874C113.697 53.958 113.575 54 113.417 54H113.053C112.903 54 112.782 53.958 112.689 53.874C112.605 53.7807 112.563 53.6593 112.563 53.51V53.202C112.339 53.5287 112.031 53.7807 111.639 53.958C111.247 54.1353 110.789 54.224 110.267 54.224C109.548 54.224 108.955 54.0653 108.489 53.748C108.031 53.4213 107.803 52.9313 107.803 52.278C107.803 51.55 108.073 51.0133 108.615 50.668C109.165 50.3133 109.926 50.0473 110.897 49.87L112.479 49.576V49.324C112.479 48.9413 112.343 48.6473 112.073 48.442C111.811 48.2273 111.461 48.12 111.023 48.12C110.649 48.12 110.323 48.1853 110.043 48.316C109.772 48.4373 109.478 48.6427 109.161 48.932C109.039 49.0347 108.923 49.086 108.811 49.086C108.699 49.086 108.582 49.0347 108.461 48.932L108.237 48.736C108.115 48.624 108.055 48.5027 108.055 48.372C108.055 48.2507 108.111 48.134 108.223 48.022C108.624 47.6393 109.049 47.3547 109.497 47.168C109.945 46.9813 110.444 46.888 110.995 46.888ZM110.477 53.034C111.037 53.034 111.508 52.8847 111.891 52.586C112.283 52.2873 112.479 51.858 112.479 51.298V50.654L111.261 50.906C110.579 51.046 110.075 51.2047 109.749 51.382C109.422 51.5593 109.259 51.83 109.259 52.194C109.259 52.4553 109.366 52.6607 109.581 52.81C109.795 52.9593 110.094 53.034 110.477 53.034ZM120.46 44.536C120.46 44.3773 120.502 44.256 120.586 44.172C120.679 44.088 120.801 44.046 120.95 44.046H121.454C121.613 44.046 121.734 44.088 121.818 44.172C121.902 44.256 121.944 44.3773 121.944 44.536V53.51C121.944 53.6593 121.902 53.7807 121.818 53.874C121.734 53.958 121.613 54 121.454 54H121.048C120.899 54 120.777 53.958 120.684 53.874C120.6 53.7807 120.558 53.6593 120.558 53.51V53.02C120.073 53.804 119.312 54.196 118.276 54.196C117.697 54.196 117.175 54.0467 116.708 53.748C116.251 53.4493 115.891 53.0247 115.63 52.474C115.369 51.9233 115.238 51.284 115.238 50.556C115.238 49.8373 115.369 49.2027 115.63 48.652C115.901 48.1013 116.269 47.6767 116.736 47.378C117.203 47.0793 117.725 46.93 118.304 46.93C119.256 46.93 119.975 47.2613 120.46 47.924V44.536ZM118.584 52.922C119.153 52.922 119.62 52.712 119.984 52.292C120.348 51.8627 120.53 51.284 120.53 50.556C120.53 49.828 120.348 49.254 119.984 48.834C119.62 48.414 119.153 48.204 118.584 48.204C118.033 48.204 117.59 48.4187 117.254 48.848C116.918 49.2773 116.75 49.8467 116.75 50.556C116.75 51.2747 116.913 51.8487 117.24 52.278C117.576 52.7073 118.024 52.922 118.584 52.922ZM128.526 44.536C128.526 44.3773 128.568 44.256 128.652 44.172C128.746 44.088 128.867 44.046 129.016 44.046H129.52C129.679 44.046 129.8 44.088 129.884 44.172C129.968 44.256 130.01 44.3773 130.01 44.536V53.51C130.01 53.6593 129.968 53.7807 129.884 53.874C129.8 53.958 129.679 54 129.52 54H129.114C128.965 54 128.844 53.958 128.75 53.874C128.666 53.7807 128.624 53.6593 128.624 53.51V53.02C128.139 53.804 127.378 54.196 126.342 54.196C125.764 54.196 125.241 54.0467 124.774 53.748C124.317 53.4493 123.958 53.0247 123.696 52.474C123.435 51.9233 123.304 51.284 123.304 50.556C123.304 49.8373 123.435 49.2027 123.696 48.652C123.967 48.1013 124.336 47.6767 124.802 47.378C125.269 47.0793 125.792 46.93 126.37 46.93C127.322 46.93 128.041 47.2613 128.526 47.924V44.536ZM126.65 52.922C127.22 52.922 127.686 52.712 128.05 52.292C128.414 51.8627 128.596 51.284 128.596 50.556C128.596 49.828 128.414 49.254 128.05 48.834C127.686 48.414 127.22 48.204 126.65 48.204C126.1 48.204 125.656 48.4187 125.32 48.848C124.984 49.2773 124.816 49.8467 124.816 50.556C124.816 51.2747 124.98 51.8487 125.306 52.278C125.642 52.7073 126.09 52.922 126.65 52.922ZM134.843 47.028C135.048 47.028 135.258 47.0513 135.473 47.098C135.725 47.154 135.851 47.3033 135.851 47.546C135.851 47.6113 135.846 47.658 135.837 47.686L135.767 48.022C135.711 48.2833 135.571 48.414 135.347 48.414L135.221 48.4C135.053 48.372 134.904 48.358 134.773 48.358C134.306 48.358 133.928 48.5447 133.639 48.918C133.359 49.282 133.219 49.7907 133.219 50.444V53.51C133.219 53.6593 133.177 53.7807 133.093 53.874C133.009 53.958 132.888 54 132.729 54H132.225C132.076 54 131.954 53.958 131.861 53.874C131.777 53.7807 131.735 53.6593 131.735 53.51V47.588C131.735 47.4293 131.777 47.308 131.861 47.224C131.954 47.14 132.076 47.098 132.225 47.098H132.631C132.79 47.098 132.911 47.14 132.995 47.224C133.079 47.308 133.121 47.4293 133.121 47.588V48.134C133.289 47.7887 133.518 47.518 133.807 47.322C134.096 47.126 134.442 47.028 134.843 47.028ZM141.544 52.236C141.665 52.1333 141.782 52.082 141.894 52.082C142.006 52.082 142.123 52.1427 142.244 52.264L142.44 52.474C142.543 52.5953 142.594 52.712 142.594 52.824C142.594 52.9453 142.533 53.062 142.412 53.174C141.983 53.5473 141.553 53.8133 141.124 53.972C140.704 54.1307 140.237 54.21 139.724 54.21C139.005 54.21 138.38 54.0607 137.848 53.762C137.325 53.4633 136.919 53.0433 136.63 52.502C136.35 51.9513 136.21 51.3167 136.21 50.598C136.21 49.8887 136.345 49.254 136.616 48.694C136.896 48.1247 137.288 47.6813 137.792 47.364C138.305 47.0467 138.903 46.888 139.584 46.888C140.601 46.888 141.385 47.1913 141.936 47.798C142.487 48.3953 142.762 49.2213 142.762 50.276V50.402C142.753 50.5513 142.706 50.668 142.622 50.752C142.538 50.836 142.417 50.878 142.258 50.878H137.666C137.722 51.494 137.923 51.998 138.268 52.39C138.623 52.7727 139.117 52.964 139.752 52.964C140.097 52.964 140.401 52.9127 140.662 52.81C140.923 52.698 141.217 52.5067 141.544 52.236ZM139.556 48.064C139.043 48.064 138.627 48.218 138.31 48.526C138.002 48.8247 137.801 49.2493 137.708 49.8H141.306C141.269 49.2587 141.101 48.834 140.802 48.526C140.503 48.218 140.088 48.064 139.556 48.064ZM146.809 54.21C146.24 54.21 145.731 54.14 145.283 54C144.844 53.8507 144.396 53.594 143.939 53.23C143.799 53.1273 143.729 53.0107 143.729 52.88C143.729 52.7773 143.78 52.6653 143.883 52.544L144.093 52.306C144.205 52.1753 144.326 52.11 144.457 52.11C144.56 52.11 144.672 52.1567 144.793 52.25C145.185 52.5393 145.53 52.74 145.829 52.852C146.128 52.9547 146.464 53.006 146.837 53.006C147.238 53.006 147.565 52.9267 147.817 52.768C148.078 52.6 148.209 52.376 148.209 52.096C148.209 51.8813 148.134 51.7133 147.985 51.592C147.845 51.4613 147.658 51.3633 147.425 51.298C147.192 51.2233 146.846 51.1393 146.389 51.046C145.745 50.906 145.241 50.7567 144.877 50.598C144.522 50.43 144.266 50.22 144.107 49.968C143.948 49.716 143.869 49.394 143.869 49.002C143.869 48.6007 143.981 48.2413 144.205 47.924C144.438 47.6067 144.76 47.3547 145.171 47.168C145.591 46.9813 146.081 46.888 146.641 46.888C147.145 46.888 147.593 46.944 147.985 47.056C148.386 47.168 148.778 47.3593 149.161 47.63C149.31 47.742 149.385 47.868 149.385 48.008C149.385 48.1013 149.338 48.2087 149.245 48.33L149.063 48.554C148.96 48.6847 148.834 48.75 148.685 48.75C148.573 48.75 148.466 48.7127 148.363 48.638C148.055 48.4327 147.77 48.2927 147.509 48.218C147.248 48.134 146.954 48.092 146.627 48.092C146.226 48.092 145.904 48.1713 145.661 48.33C145.418 48.4887 145.297 48.694 145.297 48.946C145.297 49.114 145.353 49.2493 145.465 49.352C145.586 49.4453 145.754 49.5293 145.969 49.604C146.193 49.6693 146.543 49.7533 147.019 49.856C147.663 49.996 148.172 50.1547 148.545 50.332C148.928 50.5 149.208 50.7193 149.385 50.99C149.572 51.2513 149.665 51.592 149.665 52.012C149.665 52.6653 149.404 53.1973 148.881 53.608C148.368 54.0093 147.677 54.21 146.809 54.21ZM153.604 54.21C153.035 54.21 152.526 54.14 152.078 54C151.639 53.8507 151.191 53.594 150.734 53.23C150.594 53.1273 150.524 53.0107 150.524 52.88C150.524 52.7773 150.575 52.6653 150.678 52.544L150.888 52.306C151 52.1753 151.121 52.11 151.252 52.11C151.355 52.11 151.467 52.1567 151.588 52.25C151.98 52.5393 152.325 52.74 152.624 52.852C152.923 52.9547 153.259 53.006 153.632 53.006C154.033 53.006 154.36 52.9267 154.612 52.768C154.873 52.6 155.004 52.376 155.004 52.096C155.004 51.8813 154.929 51.7133 154.78 51.592C154.64 51.4613 154.453 51.3633 154.22 51.298C153.987 51.2233 153.641 51.1393 153.184 51.046C152.54 50.906 152.036 50.7567 151.672 50.598C151.317 50.43 151.061 50.22 150.902 49.968C150.743 49.716 150.664 49.394 150.664 49.002C150.664 48.6007 150.776 48.2413 151 47.924C151.233 47.6067 151.555 47.3547 151.966 47.168C152.386 46.9813 152.876 46.888 153.436 46.888C153.94 46.888 154.388 46.944 154.78 47.056C155.181 47.168 155.573 47.3593 155.956 47.63C156.105 47.742 156.18 47.868 156.18 48.008C156.18 48.1013 156.133 48.2087 156.04 48.33L155.858 48.554C155.755 48.6847 155.629 48.75 155.48 48.75C155.368 48.75 155.261 48.7127 155.158 48.638C154.85 48.4327 154.565 48.2927 154.304 48.218C154.043 48.134 153.749 48.092 153.422 48.092C153.021 48.092 152.699 48.1713 152.456 48.33C152.213 48.4887 152.092 48.694 152.092 48.946C152.092 49.114 152.148 49.2493 152.26 49.352C152.381 49.4453 152.549 49.5293 152.764 49.604C152.988 49.6693 153.338 49.7533 153.814 49.856C154.458 49.996 154.967 50.1547 155.34 50.332C155.723 50.5 156.003 50.7193 156.18 50.99C156.367 51.2513 156.46 51.592 156.46 52.012C156.46 52.6653 156.199 53.1973 155.676 53.608C155.163 54.0093 154.472 54.21 153.604 54.21Z" fill="#474445"/>
<path d="M70 66C70 63.7909 71.7909 62 74 62H269C271.209 62 273 63.7909 273 66V106C273 108.209 271.209 110 269 110H74C71.7909 110 70 108.209 70 106V66Z" fill="white"/>
<path d="M79.696 91C79.4827 91 79.376 90.8933 79.376 90.68V79.96C79.376 79.7467 79.4827 79.64 79.696 79.64H84C85.0987 79.64 85.984 79.928 86.656 80.504C87.328 81.08 87.664 81.896 87.664 82.952C87.664 84.008 87.328 84.8293 86.656 85.416C85.984 85.992 85.0987 86.28 84 86.28H80.512V90.68C80.512 90.8933 80.4053 91 80.192 91H79.696ZM83.856 85.336C84.688 85.336 85.344 85.1333 85.824 84.728C86.304 84.3227 86.544 83.7307 86.544 82.952C86.544 82.184 86.304 81.5973 85.824 81.192C85.344 80.7867 84.688 80.584 83.856 80.584H80.512V85.336H83.856ZM94.4915 83.432C94.4915 83.2187 94.5982 83.112 94.8115 83.112H95.2275C95.4408 83.112 95.5475 83.2187 95.5475 83.432V90.68C95.5475 90.8933 95.4408 91 95.2275 91H94.8915C94.6782 91 94.5715 90.8933 94.5715 90.68V89.96C94.3368 90.376 94.0008 90.6907 93.5635 90.904C93.1368 91.1067 92.6675 91.208 92.1555 91.208C91.1955 91.208 90.4862 90.968 90.0275 90.488C89.5688 89.9973 89.3395 89.368 89.3395 88.6V83.432C89.3395 83.2187 89.4462 83.112 89.6595 83.112H90.0755C90.2888 83.112 90.3955 83.2187 90.3955 83.432V88.376C90.3955 89.0053 90.5502 89.4853 90.8595 89.816C91.1795 90.136 91.6328 90.296 92.2195 90.296C92.8808 90.296 93.4248 90.0933 93.8515 89.688C94.2782 89.2827 94.4915 88.7067 94.4915 87.96V83.432ZM100.67 91.208C100.02 91.208 99.4437 91.1173 98.9424 90.936C98.4517 90.744 97.9344 90.424 97.3904 89.976C97.2944 89.912 97.2464 89.8373 97.2464 89.752C97.2464 89.6773 97.2837 89.6027 97.3584 89.528L97.5664 89.304C97.6304 89.2187 97.7104 89.176 97.8064 89.176C97.881 89.176 97.9504 89.208 98.0144 89.272C98.5264 89.6667 98.9797 89.944 99.3744 90.104C99.769 90.2533 100.201 90.328 100.67 90.328C101.257 90.328 101.737 90.2 102.11 89.944C102.484 89.6773 102.67 89.32 102.67 88.872C102.67 88.424 102.478 88.0933 102.094 87.88C101.71 87.6667 101.118 87.4747 100.318 87.304C99.6144 87.1547 99.0597 87 98.6544 86.84C98.2597 86.6693 97.9664 86.456 97.7744 86.2C97.5824 85.944 97.4864 85.608 97.4864 85.192C97.4864 84.5093 97.7637 83.96 98.3184 83.544C98.873 83.128 99.5717 82.92 100.414 82.92C100.99 82.92 101.502 82.9947 101.95 83.144C102.409 83.2827 102.868 83.5173 103.326 83.848C103.422 83.9227 103.47 84.0027 103.47 84.088C103.47 84.1413 103.444 84.2107 103.39 84.296L103.198 84.536C103.145 84.6213 103.07 84.664 102.974 84.664C102.889 84.664 102.814 84.6373 102.75 84.584C102.313 84.2747 101.924 84.0667 101.582 83.96C101.252 83.8533 100.873 83.8 100.446 83.8C99.8597 83.8 99.3904 83.928 99.0384 84.184C98.6864 84.44 98.5104 84.7653 98.5104 85.16C98.5104 85.4053 98.5904 85.6027 98.7504 85.752C98.9104 85.9013 99.1397 86.0293 99.4384 86.136C99.737 86.232 100.174 86.344 100.75 86.472C101.817 86.7067 102.574 86.9947 103.022 87.336C103.481 87.6773 103.71 88.1733 103.71 88.824C103.71 89.5387 103.428 90.1147 102.862 90.552C102.297 90.9893 101.566 91.208 100.67 91.208ZM111.241 89.128C111.315 89.0533 111.395 89.016 111.481 89.016C111.555 89.016 111.625 89.048 111.689 89.112L111.897 89.304C111.971 89.3787 112.009 89.4587 112.009 89.544C112.009 89.608 111.977 89.6827 111.913 89.768C111.39 90.2907 110.883 90.664 110.393 90.888C109.902 91.1013 109.353 91.208 108.745 91.208C107.977 91.208 107.31 91.0373 106.745 90.696C106.179 90.3547 105.742 89.88 105.433 89.272C105.123 88.6533 104.969 87.9387 104.969 87.128C104.969 86.3067 105.118 85.5813 105.417 84.952C105.726 84.312 106.158 83.816 106.713 83.464C107.267 83.1013 107.907 82.92 108.633 82.92C109.71 82.92 110.558 83.256 111.177 83.928C111.795 84.6 112.105 85.5067 112.105 86.648V86.84C112.094 86.936 112.057 87.0107 111.993 87.064C111.939 87.1173 111.865 87.144 111.769 87.144H106.041C106.073 88.04 106.307 88.7973 106.745 89.416C107.193 90.024 107.859 90.328 108.745 90.328C109.225 90.328 109.646 90.2427 110.009 90.072C110.382 89.8907 110.793 89.576 111.241 89.128ZM108.633 83.8C107.929 83.8 107.347 84.0187 106.889 84.456C106.441 84.8827 106.169 85.512 106.073 86.344H111.049C111.027 85.5653 110.803 84.9467 110.377 84.488C109.95 84.0293 109.369 83.8 108.633 83.8ZM116.989 80.328C116.509 80.328 116.168 80.456 115.965 80.712C115.762 80.9573 115.661 81.3733 115.661 81.96V83.112H117.421C117.634 83.112 117.741 83.2187 117.741 83.432V83.592C117.741 83.8053 117.634 83.912 117.421 83.912H115.661V90.68C115.661 90.8933 115.554 91 115.341 91H114.925C114.712 91 114.605 90.8933 114.605 90.68V83.912H113.421C113.208 83.912 113.101 83.8053 113.101 83.592V83.432C113.101 83.2187 113.208 83.112 113.421 83.112H114.605V81.784C114.605 81.048 114.797 80.472 115.181 80.056C115.576 79.64 116.136 79.432 116.861 79.432C117.266 79.432 117.682 79.4907 118.109 79.608C118.312 79.672 118.386 79.8053 118.333 80.008L118.269 80.232C118.216 80.3813 118.109 80.456 117.949 80.456C117.917 80.456 117.848 80.4453 117.741 80.424C117.506 80.36 117.256 80.328 116.989 80.328ZM119.821 81.112C119.608 81.112 119.427 81.0373 119.277 80.888C119.139 80.7387 119.069 80.5573 119.069 80.344C119.069 80.1307 119.139 79.9547 119.277 79.816C119.427 79.6773 119.608 79.608 119.821 79.608C120.045 79.608 120.227 79.6773 120.365 79.816C120.515 79.9547 120.589 80.1307 120.589 80.344C120.589 80.5573 120.515 80.7387 120.365 80.888C120.227 81.0373 120.045 81.112 119.821 81.112ZM119.613 91C119.4 91 119.293 90.8933 119.293 90.68V83.432C119.293 83.2187 119.4 83.112 119.613 83.112H120.029C120.243 83.112 120.349 83.2187 120.349 83.432V90.68C120.349 90.8933 120.243 91 120.029 91H119.613ZM126.22 82.92C127.148 82.92 127.846 83.176 128.316 83.688C128.796 84.2 129.036 84.84 129.036 85.608V90.68C129.036 90.8933 128.929 91 128.716 91H128.3C128.086 91 127.98 90.8933 127.98 90.68V85.96C127.98 85.256 127.809 84.7227 127.468 84.36C127.126 83.9973 126.636 83.816 125.996 83.816C125.59 83.816 125.217 83.9173 124.876 84.12C124.534 84.312 124.262 84.5787 124.06 84.92C123.857 85.2613 123.756 85.6347 123.756 86.04V90.68C123.756 90.8933 123.649 91 123.436 91H123.02C122.806 91 122.7 90.8933 122.7 90.68V83.432C122.7 83.2187 122.806 83.112 123.02 83.112H123.372C123.585 83.112 123.692 83.2187 123.692 83.432V84.2C123.958 83.7733 124.31 83.4533 124.748 83.24C125.185 83.0267 125.676 82.92 126.22 82.92ZM134.891 82.92C135.82 82.92 136.518 83.176 136.988 83.688C137.468 84.2 137.708 84.84 137.708 85.608V90.68C137.708 90.8933 137.601 91 137.388 91H136.972C136.758 91 136.652 90.8933 136.652 90.68V85.96C136.652 85.256 136.481 84.7227 136.14 84.36C135.798 83.9973 135.308 83.816 134.668 83.816C134.262 83.816 133.889 83.9173 133.548 84.12C133.206 84.312 132.934 84.5787 132.732 84.92C132.529 85.2613 132.428 85.6347 132.428 86.04V90.68C132.428 90.8933 132.321 91 132.108 91H131.692C131.478 91 131.372 90.8933 131.372 90.68V83.432C131.372 83.2187 131.478 83.112 131.692 83.112H132.044C132.257 83.112 132.364 83.2187 132.364 83.432V84.2C132.63 83.7733 132.982 83.4533 133.42 83.24C133.857 83.0267 134.348 82.92 134.891 82.92ZM149.403 83.8C149.51 83.8 149.585 83.832 149.627 83.896C149.681 83.96 149.697 84.0453 149.675 84.152L148.875 87.976C148.801 88.296 148.763 88.5733 148.763 88.808C148.763 89.6293 149.169 90.04 149.979 90.04C150.374 90.04 150.737 89.9067 151.067 89.64C151.398 89.3627 151.659 88.968 151.851 88.456C152.043 87.944 152.139 87.3413 152.139 86.648C152.139 85.4533 151.883 84.44 151.371 83.608C150.859 82.7653 150.177 82.1307 149.323 81.704C148.481 81.2773 147.547 81.064 146.523 81.064C145.35 81.064 144.31 81.3413 143.403 81.896C142.497 82.44 141.793 83.192 141.291 84.152C140.79 85.1013 140.539 86.1627 140.539 87.336C140.539 88.4773 140.779 89.5013 141.259 90.408C141.739 91.304 142.449 92.008 143.387 92.52C144.326 93.0427 145.457 93.304 146.779 93.304H149.867C150.081 93.304 150.187 93.4107 150.187 93.624V93.72C150.187 93.9333 150.081 94.04 149.867 94.04H146.539C145.131 94.04 143.905 93.752 142.859 93.176C141.825 92.6107 141.03 91.8213 140.475 90.808C139.931 89.784 139.659 88.616 139.659 87.304C139.659 85.9707 139.937 84.776 140.491 83.72C141.046 82.6533 141.841 81.8213 142.875 81.224C143.91 80.616 145.11 80.312 146.475 80.312C147.745 80.312 148.875 80.5733 149.867 81.096C150.859 81.608 151.633 82.3387 152.187 83.288C152.742 84.2373 153.019 85.3413 153.019 86.6C153.019 87.4427 152.886 88.1787 152.619 88.808C152.353 89.4373 151.985 89.928 151.515 90.28C151.046 90.6213 150.513 90.792 149.915 90.792C149.233 90.792 148.737 90.6267 148.427 90.296C148.129 89.9547 147.963 89.5707 147.931 89.144C147.59 89.6773 147.195 90.088 146.747 90.376C146.299 90.6533 145.766 90.792 145.147 90.792C144.443 90.792 143.889 90.584 143.483 90.168C143.078 89.7413 142.875 89.1493 142.875 88.392C142.875 87.6453 143.03 86.9093 143.339 86.184C143.659 85.448 144.107 84.8453 144.683 84.376C145.259 83.9067 145.915 83.672 146.651 83.672C147.206 83.672 147.649 83.7947 147.979 84.04C148.321 84.2747 148.534 84.5947 148.619 85L148.795 84.088C148.827 83.896 148.945 83.8 149.147 83.8H149.403ZM145.275 89.976C145.905 89.976 146.433 89.7573 146.859 89.32C147.297 88.872 147.622 88.344 147.835 87.736C148.049 87.1173 148.155 86.568 148.155 86.088C148.155 85.544 148.043 85.1387 147.819 84.872C147.595 84.5947 147.217 84.456 146.683 84.456C146.139 84.456 145.649 84.648 145.211 85.032C144.785 85.416 144.449 85.9067 144.203 86.504C143.969 87.1013 143.851 87.6987 143.851 88.296C143.851 88.8613 143.974 89.2827 144.219 89.56C144.475 89.8373 144.827 89.976 145.275 89.976ZM158.005 80.328C157.525 80.328 157.183 80.456 156.981 80.712C156.778 80.9573 156.677 81.3733 156.677 81.96V83.112H158.437C158.65 83.112 158.757 83.2187 158.757 83.432V83.592C158.757 83.8053 158.65 83.912 158.437 83.912H156.677V90.68C156.677 90.8933 156.57 91 156.357 91H155.941C155.727 91 155.621 90.8933 155.621 90.68V83.912H154.437C154.223 83.912 154.117 83.8053 154.117 83.592V83.432C154.117 83.2187 154.223 83.112 154.437 83.112H155.621V81.784C155.621 81.048 155.813 80.472 156.197 80.056C156.591 79.64 157.151 79.432 157.877 79.432C158.282 79.432 158.698 79.4907 159.125 79.608C159.327 79.672 159.402 79.8053 159.349 80.008L159.285 80.232C159.231 80.3813 159.125 80.456 158.965 80.456C158.933 80.456 158.863 80.4453 158.757 80.424C158.522 80.36 158.271 80.328 158.005 80.328ZM160.837 81.112C160.624 81.112 160.442 81.0373 160.293 80.888C160.154 80.7387 160.085 80.5573 160.085 80.344C160.085 80.1307 160.154 79.9547 160.293 79.816C160.442 79.6773 160.624 79.608 160.837 79.608C161.061 79.608 161.242 79.6773 161.381 79.816C161.53 79.9547 161.605 80.1307 161.605 80.344C161.605 80.5573 161.53 80.7387 161.381 80.888C161.242 81.0373 161.061 81.112 160.837 81.112ZM160.629 91C160.416 91 160.309 90.8933 160.309 90.68V83.432C160.309 83.2187 160.416 83.112 160.629 83.112H161.045C161.258 83.112 161.365 83.2187 161.365 83.432V90.68C161.365 90.8933 161.258 91 161.045 91H160.629ZM167.235 82.92C168.163 82.92 168.862 83.176 169.331 83.688C169.811 84.2 170.051 84.84 170.051 85.608V90.68C170.051 90.8933 169.945 91 169.731 91H169.315C169.102 91 168.995 90.8933 168.995 90.68V85.96C168.995 85.256 168.825 84.7227 168.483 84.36C168.142 83.9973 167.651 83.816 167.011 83.816C166.606 83.816 166.233 83.9173 165.891 84.12C165.55 84.312 165.278 84.5787 165.075 84.92C164.873 85.2613 164.771 85.6347 164.771 86.04V90.68C164.771 90.8933 164.665 91 164.451 91H164.035C163.822 91 163.715 90.8933 163.715 90.68V83.432C163.715 83.2187 163.822 83.112 164.035 83.112H164.387C164.601 83.112 164.707 83.2187 164.707 83.432V84.2C164.974 83.7733 165.326 83.4533 165.763 83.24C166.201 83.0267 166.691 82.92 167.235 82.92ZM175.907 82.92C176.835 82.92 177.534 83.176 178.003 83.688C178.483 84.2 178.723 84.84 178.723 85.608V90.68C178.723 90.8933 178.616 91 178.403 91H177.987C177.774 91 177.667 90.8933 177.667 90.68V85.96C177.667 85.256 177.496 84.7227 177.155 84.36C176.814 83.9973 176.323 83.816 175.683 83.816C175.278 83.816 174.904 83.9173 174.563 84.12C174.222 84.312 173.95 84.5787 173.747 84.92C173.544 85.2613 173.443 85.6347 173.443 86.04V90.68C173.443 90.8933 173.336 91 173.123 91H172.707C172.494 91 172.387 90.8933 172.387 90.68V83.432C172.387 83.2187 172.494 83.112 172.707 83.112H173.059C173.272 83.112 173.379 83.2187 173.379 83.432V84.2C173.646 83.7733 173.998 83.4533 174.435 83.24C174.872 83.0267 175.363 82.92 175.907 82.92ZM181.491 91.112C181.267 91.112 181.075 91.032 180.915 90.872C180.755 90.712 180.675 90.52 180.675 90.296C180.675 90.072 180.755 89.88 180.915 89.72C181.075 89.56 181.267 89.48 181.491 89.48C181.715 89.48 181.907 89.56 182.067 89.72C182.227 89.88 182.307 90.072 182.307 90.296C182.307 90.52 182.227 90.712 182.067 90.872C181.907 91.032 181.715 91.112 181.491 91.112ZM187.813 82.92C188.741 82.92 189.44 83.176 189.909 83.688C190.389 84.2 190.629 84.84 190.629 85.608V90.68C190.629 90.8933 190.523 91 190.309 91H189.893C189.68 91 189.573 90.8933 189.573 90.68V85.96C189.573 85.256 189.403 84.7227 189.061 84.36C188.72 83.9973 188.229 83.816 187.589 83.816C187.184 83.816 186.811 83.9173 186.469 84.12C186.128 84.312 185.856 84.5787 185.653 84.92C185.451 85.2613 185.349 85.6347 185.349 86.04V90.68C185.349 90.8933 185.243 91 185.029 91H184.613C184.4 91 184.293 90.8933 184.293 90.68V83.432C184.293 83.2187 184.4 83.112 184.613 83.112H184.965C185.179 83.112 185.285 83.2187 185.285 83.432V84.2C185.552 83.7733 185.904 83.4533 186.341 83.24C186.779 83.0267 187.269 82.92 187.813 82.92ZM196.229 91.208C195.493 91.208 194.837 91.032 194.261 90.68C193.685 90.328 193.237 89.8427 192.917 89.224C192.597 88.5947 192.437 87.8747 192.437 87.064C192.437 86.2533 192.597 85.5387 192.917 84.92C193.237 84.2907 193.685 83.8 194.261 83.448C194.837 83.096 195.493 82.92 196.229 82.92C196.965 82.92 197.621 83.096 198.197 83.448C198.773 83.8 199.221 84.2907 199.541 84.92C199.861 85.5387 200.021 86.2533 200.021 87.064C200.021 87.8747 199.861 88.5947 199.541 89.224C199.221 89.8427 198.773 90.328 198.197 90.68C197.621 91.032 196.965 91.208 196.229 91.208ZM196.229 90.328C197.051 90.328 197.707 90.0293 198.197 89.432C198.688 88.824 198.933 88.0347 198.933 87.064C198.933 86.0933 198.688 85.3093 198.197 84.712C197.707 84.104 197.051 83.8 196.229 83.8C195.408 83.8 194.752 84.104 194.261 84.712C193.771 85.3093 193.525 86.0933 193.525 87.064C193.525 88.0347 193.771 88.824 194.261 89.432C194.752 90.0293 195.408 90.328 196.229 90.328Z" fill="#474445"/>
<path d="M74 63H269V61H74V63ZM272 66V106H274V66H272ZM269 109H74V111H269V109ZM71 106V66H69V106H71ZM74 109C72.3431 109 71 107.657 71 106H69C69 108.761 71.2386 111 74 111V109ZM272 106C272 107.657 270.657 109 269 109V111C271.761 111 274 108.761 274 106H272ZM269 63C270.657 63 272 64.3431 272 66H274C274 63.2386 271.761 61 269 61V63ZM74 61C71.2386 61 69 63.2386 69 66H71C71 64.3431 72.3431 63 74 63V61Z" fill="#C3CCD9"/>
</svg>
