<svg width="344" height="150" viewBox="0 0 344 150" fill="none" xmlns="http://www.w3.org/2000/svg">
<path d="M72.568 54C72.4187 54 72.2973 53.958 72.204 53.874C72.12 53.7807 72.078 53.6593 72.078 53.51V44.55C72.078 44.3913 72.12 44.27 72.204 44.186C72.2973 44.102 72.4187 44.06 72.568 44.06H78.378C78.5367 44.06 78.658 44.102 78.742 44.186C78.826 44.27 78.868 44.3913 78.868 44.55V44.914C78.868 45.0633 78.826 45.1847 78.742 45.278C78.658 45.362 78.5367 45.404 78.378 45.404H73.674V48.204H78.028C78.1867 48.204 78.308 48.246 78.392 48.33C78.476 48.414 78.518 48.5353 78.518 48.694V49.058C78.518 49.2073 78.476 49.3287 78.392 49.422C78.308 49.506 78.1867 49.548 78.028 49.548H73.674V52.656H78.518C78.6767 52.656 78.798 52.698 78.882 52.782C78.966 52.866 79.008 52.9873 79.008 53.146V53.51C79.008 53.6593 78.966 53.7807 78.882 53.874C78.798 53.958 78.6767 54 78.518 54H72.568ZM87.9143 46.888C88.6516 46.888 89.221 47.098 89.6223 47.518C90.0236 47.9287 90.2243 48.484 90.2243 49.184V53.51C90.2243 53.6593 90.1823 53.7807 90.0983 53.874C90.0143 53.958 89.893 54 89.7343 54H89.2303C89.081 54 88.9596 53.958 88.8663 53.874C88.7823 53.7807 88.7403 53.6593 88.7403 53.51V49.632C88.7403 49.1747 88.6376 48.8153 88.4323 48.554C88.227 48.2927 87.9143 48.162 87.4943 48.162C87.065 48.162 86.7243 48.3067 86.4723 48.596C86.2296 48.8853 86.1083 49.2587 86.1083 49.716V53.51C86.1083 53.6593 86.0663 53.7807 85.9823 53.874C85.8983 53.958 85.777 54 85.6183 54H85.1143C84.965 54 84.8436 53.958 84.7503 53.874C84.6663 53.7807 84.6243 53.6593 84.6243 53.51V49.632C84.6243 49.1747 84.5216 48.8153 84.3163 48.554C84.1203 48.2927 83.8123 48.162 83.3923 48.162C82.9816 48.162 82.6503 48.2973 82.3983 48.568C82.1463 48.8387 82.011 49.1887 81.9923 49.618V53.51C81.9923 53.6593 81.9503 53.7807 81.8663 53.874C81.7823 53.958 81.661 54 81.5023 54H80.9983C80.849 54 80.7276 53.958 80.6343 53.874C80.5503 53.7807 80.5083 53.6593 80.5083 53.51V47.588C80.5083 47.4293 80.5503 47.308 80.6343 47.224C80.7276 47.14 80.849 47.098 80.9983 47.098H81.4043C81.563 47.098 81.6843 47.14 81.7683 47.224C81.8523 47.308 81.8943 47.4293 81.8943 47.588V47.896C82.3236 47.224 82.9863 46.888 83.8823 46.888C84.3303 46.888 84.7223 46.9813 85.0583 47.168C85.3943 47.3547 85.651 47.616 85.8283 47.952C86.3043 47.2427 86.9996 46.888 87.9143 46.888ZM94.8363 46.888C95.7696 46.888 96.4883 47.1073 96.9923 47.546C97.4963 47.9753 97.7483 48.5493 97.7483 49.268V53.51C97.7483 53.6593 97.7063 53.7807 97.6223 53.874C97.5383 53.958 97.417 54 97.2583 54H96.8943C96.745 54 96.6236 53.958 96.5303 53.874C96.4463 53.7807 96.4043 53.6593 96.4043 53.51V53.202C96.1803 53.5287 95.8723 53.7807 95.4803 53.958C95.0883 54.1353 94.631 54.224 94.1083 54.224C93.3896 54.224 92.797 54.0653 92.3303 53.748C91.873 53.4213 91.6443 52.9313 91.6443 52.278C91.6443 51.55 91.915 51.0133 92.4563 50.668C93.007 50.3133 93.7676 50.0473 94.7383 49.87L96.3203 49.576V49.324C96.3203 48.9413 96.185 48.6473 95.9143 48.442C95.653 48.2273 95.303 48.12 94.8643 48.12C94.491 48.12 94.1643 48.1853 93.8843 48.316C93.6136 48.4373 93.3196 48.6427 93.0023 48.932C92.881 49.0347 92.7643 49.086 92.6523 49.086C92.5403 49.086 92.4236 49.0347 92.3023 48.932L92.0783 48.736C91.957 48.624 91.8963 48.5027 91.8963 48.372C91.8963 48.2507 91.9523 48.134 92.0643 48.022C92.4656 47.6393 92.8903 47.3547 93.3383 47.168C93.7863 46.9813 94.2856 46.888 94.8363 46.888ZM94.3183 53.034C94.8783 53.034 95.3496 52.8847 95.7323 52.586C96.1243 52.2873 96.3203 51.858 96.3203 51.298V50.654L95.1023 50.906C94.421 51.046 93.917 51.2047 93.5903 51.382C93.2636 51.5593 93.1003 51.83 93.1003 52.194C93.1003 52.4553 93.2076 52.6607 93.4223 52.81C93.637 52.9593 93.9356 53.034 94.3183 53.034ZM100.2 45.754C99.9292 45.754 99.7005 45.6653 99.5138 45.488C99.3272 45.3013 99.2338 45.082 99.2338 44.83C99.2338 44.5687 99.3272 44.3493 99.5138 44.172C99.7005 43.9947 99.9292 43.906 100.2 43.906C100.471 43.906 100.699 43.9947 100.886 44.172C101.073 44.3493 101.166 44.5687 101.166 44.83C101.166 45.082 101.073 45.3013 100.886 45.488C100.699 45.6653 100.471 45.754 100.2 45.754ZM99.9338 54C99.7845 54 99.6632 53.958 99.5698 53.874C99.4858 53.7807 99.4438 53.6593 99.4438 53.51V47.588C99.4438 47.4293 99.4858 47.308 99.5698 47.224C99.6632 47.14 99.7845 47.098 99.9338 47.098H100.438C100.597 47.098 100.718 47.14 100.802 47.224C100.886 47.308 100.928 47.4293 100.928 47.588V53.51C100.928 53.6593 100.886 53.7807 100.802 53.874C100.718 53.958 100.597 54 100.438 54H99.9338ZM103.189 54C103.04 54 102.918 53.958 102.825 53.874C102.741 53.7807 102.699 53.6593 102.699 53.51V44.55C102.699 44.3913 102.741 44.27 102.825 44.186C102.918 44.102 103.04 44.06 103.189 44.06H103.693C103.852 44.06 103.973 44.102 104.057 44.186C104.141 44.27 104.183 44.3913 104.183 44.55V53.51C104.183 53.6593 104.141 53.7807 104.057 53.874C103.973 53.958 103.852 54 103.693 54H103.189ZM116.173 54C115.893 54 115.706 53.8693 115.613 53.608L114.955 51.718H110.559L109.901 53.608C109.808 53.8693 109.621 54 109.341 54H108.753C108.613 54 108.501 53.972 108.417 53.916C108.342 53.8507 108.305 53.762 108.305 53.65C108.305 53.594 108.319 53.524 108.347 53.44L111.595 44.452C111.688 44.1907 111.875 44.06 112.155 44.06H113.401C113.681 44.06 113.868 44.1907 113.961 44.452L117.209 53.44C117.237 53.524 117.251 53.594 117.251 53.65C117.251 53.762 117.209 53.8507 117.125 53.916C117.05 53.972 116.943 54 116.803 54H116.173ZM114.507 50.388L114.073 49.156C114.064 49.1373 113.961 48.8433 113.765 48.274C113.27 46.874 112.934 45.8753 112.757 45.278C112.486 46.1367 112.127 47.2007 111.679 48.47L111.441 49.17L111.021 50.388H114.507ZM123.251 44.536C123.251 44.3773 123.293 44.256 123.377 44.172C123.47 44.088 123.592 44.046 123.741 44.046H124.245C124.404 44.046 124.525 44.088 124.609 44.172C124.693 44.256 124.735 44.3773 124.735 44.536V53.51C124.735 53.6593 124.693 53.7807 124.609 53.874C124.525 53.958 124.404 54 124.245 54H123.839C123.69 54 123.568 53.958 123.475 53.874C123.391 53.7807 123.349 53.6593 123.349 53.51V53.02C122.864 53.804 122.103 54.196 121.067 54.196C120.488 54.196 119.966 54.0467 119.499 53.748C119.042 53.4493 118.682 53.0247 118.421 52.474C118.16 51.9233 118.029 51.284 118.029 50.556C118.029 49.8373 118.16 49.2027 118.421 48.652C118.692 48.1013 119.06 47.6767 119.527 47.378C119.994 47.0793 120.516 46.93 121.095 46.93C122.047 46.93 122.766 47.2613 123.251 47.924V44.536ZM121.375 52.922C121.944 52.922 122.411 52.712 122.775 52.292C123.139 51.8627 123.321 51.284 123.321 50.556C123.321 49.828 123.139 49.254 122.775 48.834C122.411 48.414 121.944 48.204 121.375 48.204C120.824 48.204 120.381 48.4187 120.045 48.848C119.709 49.2773 119.541 49.8467 119.541 50.556C119.541 51.2747 119.704 51.8487 120.031 52.278C120.367 52.7073 120.815 52.922 121.375 52.922ZM131.317 44.536C131.317 44.3773 131.359 44.256 131.443 44.172C131.537 44.088 131.658 44.046 131.807 44.046H132.311C132.47 44.046 132.591 44.088 132.675 44.172C132.759 44.256 132.801 44.3773 132.801 44.536V53.51C132.801 53.6593 132.759 53.7807 132.675 53.874C132.591 53.958 132.47 54 132.311 54H131.905C131.756 54 131.635 53.958 131.541 53.874C131.457 53.7807 131.415 53.6593 131.415 53.51V53.02C130.93 53.804 130.169 54.196 129.133 54.196C128.555 54.196 128.032 54.0467 127.565 53.748C127.108 53.4493 126.749 53.0247 126.487 52.474C126.226 51.9233 126.095 51.284 126.095 50.556C126.095 49.8373 126.226 49.2027 126.487 48.652C126.758 48.1013 127.127 47.6767 127.593 47.378C128.06 47.0793 128.583 46.93 129.161 46.93C130.113 46.93 130.832 47.2613 131.317 47.924V44.536ZM129.441 52.922C130.011 52.922 130.477 52.712 130.841 52.292C131.205 51.8627 131.387 51.284 131.387 50.556C131.387 49.828 131.205 49.254 130.841 48.834C130.477 48.414 130.011 48.204 129.441 48.204C128.891 48.204 128.447 48.4187 128.111 48.848C127.775 49.2773 127.607 49.8467 127.607 50.556C127.607 51.2747 127.771 51.8487 128.097 52.278C128.433 52.7073 128.881 52.922 129.441 52.922ZM137.634 47.028C137.839 47.028 138.049 47.0513 138.264 47.098C138.516 47.154 138.642 47.3033 138.642 47.546C138.642 47.6113 138.637 47.658 138.628 47.686L138.558 48.022C138.502 48.2833 138.362 48.414 138.138 48.414L138.012 48.4C137.844 48.372 137.695 48.358 137.564 48.358C137.097 48.358 136.719 48.5447 136.43 48.918C136.15 49.282 136.01 49.7907 136.01 50.444V53.51C136.01 53.6593 135.968 53.7807 135.884 53.874C135.8 53.958 135.679 54 135.52 54H135.016C134.867 54 134.745 53.958 134.652 53.874C134.568 53.7807 134.526 53.6593 134.526 53.51V47.588C134.526 47.4293 134.568 47.308 134.652 47.224C134.745 47.14 134.867 47.098 135.016 47.098H135.422C135.581 47.098 135.702 47.14 135.786 47.224C135.87 47.308 135.912 47.4293 135.912 47.588V48.134C136.08 47.7887 136.309 47.518 136.598 47.322C136.887 47.126 137.233 47.028 137.634 47.028ZM144.335 52.236C144.456 52.1333 144.573 52.082 144.685 52.082C144.797 52.082 144.914 52.1427 145.035 52.264L145.231 52.474C145.334 52.5953 145.385 52.712 145.385 52.824C145.385 52.9453 145.324 53.062 145.203 53.174C144.774 53.5473 144.344 53.8133 143.915 53.972C143.495 54.1307 143.028 54.21 142.515 54.21C141.796 54.21 141.171 54.0607 140.639 53.762C140.116 53.4633 139.71 53.0433 139.421 52.502C139.141 51.9513 139.001 51.3167 139.001 50.598C139.001 49.8887 139.136 49.254 139.407 48.694C139.687 48.1247 140.079 47.6813 140.583 47.364C141.096 47.0467 141.694 46.888 142.375 46.888C143.392 46.888 144.176 47.1913 144.727 47.798C145.278 48.3953 145.553 49.2213 145.553 50.276V50.402C145.544 50.5513 145.497 50.668 145.413 50.752C145.329 50.836 145.208 50.878 145.049 50.878H140.457C140.513 51.494 140.714 51.998 141.059 52.39C141.414 52.7727 141.908 52.964 142.543 52.964C142.888 52.964 143.192 52.9127 143.453 52.81C143.714 52.698 144.008 52.5067 144.335 52.236ZM142.347 48.064C141.834 48.064 141.418 48.218 141.101 48.526C140.793 48.8247 140.592 49.2493 140.499 49.8H144.097C144.06 49.2587 143.892 48.834 143.593 48.526C143.294 48.218 142.879 48.064 142.347 48.064ZM149.6 54.21C149.031 54.21 148.522 54.14 148.074 54C147.635 53.8507 147.187 53.594 146.73 53.23C146.59 53.1273 146.52 53.0107 146.52 52.88C146.52 52.7773 146.571 52.6653 146.674 52.544L146.884 52.306C146.996 52.1753 147.117 52.11 147.248 52.11C147.351 52.11 147.463 52.1567 147.584 52.25C147.976 52.5393 148.321 52.74 148.62 52.852C148.919 52.9547 149.255 53.006 149.628 53.006C150.029 53.006 150.356 52.9267 150.608 52.768C150.869 52.6 151 52.376 151 52.096C151 51.8813 150.925 51.7133 150.776 51.592C150.636 51.4613 150.449 51.3633 150.216 51.298C149.983 51.2233 149.637 51.1393 149.18 51.046C148.536 50.906 148.032 50.7567 147.668 50.598C147.313 50.43 147.057 50.22 146.898 49.968C146.739 49.716 146.66 49.394 146.66 49.002C146.66 48.6007 146.772 48.2413 146.996 47.924C147.229 47.6067 147.551 47.3547 147.962 47.168C148.382 46.9813 148.872 46.888 149.432 46.888C149.936 46.888 150.384 46.944 150.776 47.056C151.177 47.168 151.569 47.3593 151.952 47.63C152.101 47.742 152.176 47.868 152.176 48.008C152.176 48.1013 152.129 48.2087 152.036 48.33L151.854 48.554C151.751 48.6847 151.625 48.75 151.476 48.75C151.364 48.75 151.257 48.7127 151.154 48.638C150.846 48.4327 150.561 48.2927 150.3 48.218C150.039 48.134 149.745 48.092 149.418 48.092C149.017 48.092 148.695 48.1713 148.452 48.33C148.209 48.4887 148.088 48.694 148.088 48.946C148.088 49.114 148.144 49.2493 148.256 49.352C148.377 49.4453 148.545 49.5293 148.76 49.604C148.984 49.6693 149.334 49.7533 149.81 49.856C150.454 49.996 150.963 50.1547 151.336 50.332C151.719 50.5 151.999 50.7193 152.176 50.99C152.363 51.2513 152.456 51.592 152.456 52.012C152.456 52.6653 152.195 53.1973 151.672 53.608C151.159 54.0093 150.468 54.21 149.6 54.21ZM156.395 54.21C155.826 54.21 155.317 54.14 154.869 54C154.43 53.8507 153.982 53.594 153.525 53.23C153.385 53.1273 153.315 53.0107 153.315 52.88C153.315 52.7773 153.366 52.6653 153.469 52.544L153.679 52.306C153.791 52.1753 153.912 52.11 154.043 52.11C154.146 52.11 154.258 52.1567 154.379 52.25C154.771 52.5393 155.116 52.74 155.415 52.852C155.714 52.9547 156.05 53.006 156.423 53.006C156.824 53.006 157.151 52.9267 157.403 52.768C157.664 52.6 157.795 52.376 157.795 52.096C157.795 51.8813 157.72 51.7133 157.571 51.592C157.431 51.4613 157.244 51.3633 157.011 51.298C156.778 51.2233 156.432 51.1393 155.975 51.046C155.331 50.906 154.827 50.7567 154.463 50.598C154.108 50.43 153.852 50.22 153.693 49.968C153.534 49.716 153.455 49.394 153.455 49.002C153.455 48.6007 153.567 48.2413 153.791 47.924C154.024 47.6067 154.346 47.3547 154.757 47.168C155.177 46.9813 155.667 46.888 156.227 46.888C156.731 46.888 157.179 46.944 157.571 47.056C157.972 47.168 158.364 47.3593 158.747 47.63C158.896 47.742 158.971 47.868 158.971 48.008C158.971 48.1013 158.924 48.2087 158.831 48.33L158.649 48.554C158.546 48.6847 158.42 48.75 158.271 48.75C158.159 48.75 158.052 48.7127 157.949 48.638C157.641 48.4327 157.356 48.2927 157.095 48.218C156.834 48.134 156.54 48.092 156.213 48.092C155.812 48.092 155.49 48.1713 155.247 48.33C155.004 48.4887 154.883 48.694 154.883 48.946C154.883 49.114 154.939 49.2493 155.051 49.352C155.172 49.4453 155.34 49.5293 155.555 49.604C155.779 49.6693 156.129 49.7533 156.605 49.856C157.249 49.996 157.758 50.1547 158.131 50.332C158.514 50.5 158.794 50.7193 158.971 50.99C159.158 51.2513 159.251 51.592 159.251 52.012C159.251 52.6653 158.99 53.1973 158.467 53.608C157.954 54.0093 157.263 54.21 156.395 54.21Z" fill="#474445"/>
<path d="M71 66C71 63.7909 72.7909 62 75 62H270C272.209 62 274 63.7909 274 66V106C274 108.209 272.209 110 270 110H75C72.7909 110 71 108.209 71 106V66Z" fill="white"/>
<path d="M80.696 91C80.4827 91 80.376 90.8933 80.376 90.68V79.96C80.376 79.7467 80.4827 79.64 80.696 79.64H85C86.0987 79.64 86.984 79.928 87.656 80.504C88.328 81.08 88.664 81.896 88.664 82.952C88.664 84.008 88.328 84.8293 87.656 85.416C86.984 85.992 86.0987 86.28 85 86.28H81.512V90.68C81.512 90.8933 81.4053 91 81.192 91H80.696ZM84.856 85.336C85.688 85.336 86.344 85.1333 86.824 84.728C87.304 84.3227 87.544 83.7307 87.544 82.952C87.544 82.184 87.304 81.5973 86.824 81.192C86.344 80.7867 85.688 80.584 84.856 80.584H81.512V85.336H84.856ZM95.4915 83.432C95.4915 83.2187 95.5982 83.112 95.8115 83.112H96.2275C96.4408 83.112 96.5475 83.2187 96.5475 83.432V90.68C96.5475 90.8933 96.4408 91 96.2275 91H95.8915C95.6782 91 95.5715 90.8933 95.5715 90.68V89.96C95.3368 90.376 95.0008 90.6907 94.5635 90.904C94.1368 91.1067 93.6675 91.208 93.1555 91.208C92.1955 91.208 91.4862 90.968 91.0275 90.488C90.5688 89.9973 90.3395 89.368 90.3395 88.6V83.432C90.3395 83.2187 90.4462 83.112 90.6595 83.112H91.0755C91.2888 83.112 91.3955 83.2187 91.3955 83.432V88.376C91.3955 89.0053 91.5502 89.4853 91.8595 89.816C92.1795 90.136 92.6328 90.296 93.2195 90.296C93.8808 90.296 94.4248 90.0933 94.8515 89.688C95.2782 89.2827 95.4915 88.7067 95.4915 87.96V83.432ZM101.67 91.208C101.02 91.208 100.444 91.1173 99.9424 90.936C99.4517 90.744 98.9344 90.424 98.3904 89.976C98.2944 89.912 98.2464 89.8373 98.2464 89.752C98.2464 89.6773 98.2837 89.6027 98.3584 89.528L98.5664 89.304C98.6304 89.2187 98.7104 89.176 98.8064 89.176C98.881 89.176 98.9504 89.208 99.0144 89.272C99.5264 89.6667 99.9797 89.944 100.374 90.104C100.769 90.2533 101.201 90.328 101.67 90.328C102.257 90.328 102.737 90.2 103.11 89.944C103.484 89.6773 103.67 89.32 103.67 88.872C103.67 88.424 103.478 88.0933 103.094 87.88C102.71 87.6667 102.118 87.4747 101.318 87.304C100.614 87.1547 100.06 87 99.6544 86.84C99.2597 86.6693 98.9664 86.456 98.7744 86.2C98.5824 85.944 98.4864 85.608 98.4864 85.192C98.4864 84.5093 98.7637 83.96 99.3184 83.544C99.873 83.128 100.572 82.92 101.414 82.92C101.99 82.92 102.502 82.9947 102.95 83.144C103.409 83.2827 103.868 83.5173 104.326 83.848C104.422 83.9227 104.47 84.0027 104.47 84.088C104.47 84.1413 104.444 84.2107 104.39 84.296L104.198 84.536C104.145 84.6213 104.07 84.664 103.974 84.664C103.889 84.664 103.814 84.6373 103.75 84.584C103.313 84.2747 102.924 84.0667 102.582 83.96C102.252 83.8533 101.873 83.8 101.446 83.8C100.86 83.8 100.39 83.928 100.038 84.184C99.6864 84.44 99.5104 84.7653 99.5104 85.16C99.5104 85.4053 99.5904 85.6027 99.7504 85.752C99.9104 85.9013 100.14 86.0293 100.438 86.136C100.737 86.232 101.174 86.344 101.75 86.472C102.817 86.7067 103.574 86.9947 104.022 87.336C104.481 87.6773 104.71 88.1733 104.71 88.824C104.71 89.5387 104.428 90.1147 103.862 90.552C103.297 90.9893 102.566 91.208 101.67 91.208ZM112.241 89.128C112.315 89.0533 112.395 89.016 112.481 89.016C112.555 89.016 112.625 89.048 112.689 89.112L112.897 89.304C112.971 89.3787 113.009 89.4587 113.009 89.544C113.009 89.608 112.977 89.6827 112.913 89.768C112.39 90.2907 111.883 90.664 111.393 90.888C110.902 91.1013 110.353 91.208 109.745 91.208C108.977 91.208 108.31 91.0373 107.745 90.696C107.179 90.3547 106.742 89.88 106.433 89.272C106.123 88.6533 105.969 87.9387 105.969 87.128C105.969 86.3067 106.118 85.5813 106.417 84.952C106.726 84.312 107.158 83.816 107.713 83.464C108.267 83.1013 108.907 82.92 109.633 82.92C110.71 82.92 111.558 83.256 112.177 83.928C112.795 84.6 113.105 85.5067 113.105 86.648V86.84C113.094 86.936 113.057 87.0107 112.993 87.064C112.939 87.1173 112.865 87.144 112.769 87.144H107.041C107.073 88.04 107.307 88.7973 107.745 89.416C108.193 90.024 108.859 90.328 109.745 90.328C110.225 90.328 110.646 90.2427 111.009 90.072C111.382 89.8907 111.793 89.576 112.241 89.128ZM109.633 83.8C108.929 83.8 108.347 84.0187 107.889 84.456C107.441 84.8827 107.169 85.512 107.073 86.344H112.049C112.027 85.5653 111.803 84.9467 111.377 84.488C110.95 84.0293 110.369 83.8 109.633 83.8ZM117.989 80.328C117.509 80.328 117.168 80.456 116.965 80.712C116.762 80.9573 116.661 81.3733 116.661 81.96V83.112H118.421C118.634 83.112 118.741 83.2187 118.741 83.432V83.592C118.741 83.8053 118.634 83.912 118.421 83.912H116.661V90.68C116.661 90.8933 116.554 91 116.341 91H115.925C115.712 91 115.605 90.8933 115.605 90.68V83.912H114.421C114.208 83.912 114.101 83.8053 114.101 83.592V83.432C114.101 83.2187 114.208 83.112 114.421 83.112H115.605V81.784C115.605 81.048 115.797 80.472 116.181 80.056C116.576 79.64 117.136 79.432 117.861 79.432C118.266 79.432 118.682 79.4907 119.109 79.608C119.312 79.672 119.386 79.8053 119.333 80.008L119.269 80.232C119.216 80.3813 119.109 80.456 118.949 80.456C118.917 80.456 118.848 80.4453 118.741 80.424C118.506 80.36 118.256 80.328 117.989 80.328ZM120.821 81.112C120.608 81.112 120.427 81.0373 120.277 80.888C120.139 80.7387 120.069 80.5573 120.069 80.344C120.069 80.1307 120.139 79.9547 120.277 79.816C120.427 79.6773 120.608 79.608 120.821 79.608C121.045 79.608 121.227 79.6773 121.365 79.816C121.515 79.9547 121.589 80.1307 121.589 80.344C121.589 80.5573 121.515 80.7387 121.365 80.888C121.227 81.0373 121.045 81.112 120.821 81.112ZM120.613 91C120.4 91 120.293 90.8933 120.293 90.68V83.432C120.293 83.2187 120.4 83.112 120.613 83.112H121.029C121.243 83.112 121.349 83.2187 121.349 83.432V90.68C121.349 90.8933 121.243 91 121.029 91H120.613ZM127.22 82.92C128.148 82.92 128.846 83.176 129.316 83.688C129.796 84.2 130.036 84.84 130.036 85.608V90.68C130.036 90.8933 129.929 91 129.716 91H129.3C129.086 91 128.98 90.8933 128.98 90.68V85.96C128.98 85.256 128.809 84.7227 128.468 84.36C128.126 83.9973 127.636 83.816 126.996 83.816C126.59 83.816 126.217 83.9173 125.876 84.12C125.534 84.312 125.262 84.5787 125.06 84.92C124.857 85.2613 124.756 85.6347 124.756 86.04V90.68C124.756 90.8933 124.649 91 124.436 91H124.02C123.806 91 123.7 90.8933 123.7 90.68V83.432C123.7 83.2187 123.806 83.112 124.02 83.112H124.372C124.585 83.112 124.692 83.2187 124.692 83.432V84.2C124.958 83.7733 125.31 83.4533 125.748 83.24C126.185 83.0267 126.676 82.92 127.22 82.92ZM135.891 82.92C136.82 82.92 137.518 83.176 137.988 83.688C138.468 84.2 138.708 84.84 138.708 85.608V90.68C138.708 90.8933 138.601 91 138.388 91H137.972C137.758 91 137.652 90.8933 137.652 90.68V85.96C137.652 85.256 137.481 84.7227 137.14 84.36C136.798 83.9973 136.308 83.816 135.668 83.816C135.262 83.816 134.889 83.9173 134.548 84.12C134.206 84.312 133.934 84.5787 133.732 84.92C133.529 85.2613 133.428 85.6347 133.428 86.04V90.68C133.428 90.8933 133.321 91 133.108 91H132.692C132.478 91 132.372 90.8933 132.372 90.68V83.432C132.372 83.2187 132.478 83.112 132.692 83.112H133.044C133.257 83.112 133.364 83.2187 133.364 83.432V84.2C133.63 83.7733 133.982 83.4533 134.42 83.24C134.857 83.0267 135.348 82.92 135.891 82.92ZM150.403 83.8C150.51 83.8 150.585 83.832 150.627 83.896C150.681 83.96 150.697 84.0453 150.675 84.152L149.875 87.976C149.801 88.296 149.763 88.5733 149.763 88.808C149.763 89.6293 150.169 90.04 150.979 90.04C151.374 90.04 151.737 89.9067 152.067 89.64C152.398 89.3627 152.659 88.968 152.851 88.456C153.043 87.944 153.139 87.3413 153.139 86.648C153.139 85.4533 152.883 84.44 152.371 83.608C151.859 82.7653 151.177 82.1307 150.323 81.704C149.481 81.2773 148.547 81.064 147.523 81.064C146.35 81.064 145.31 81.3413 144.403 81.896C143.497 82.44 142.793 83.192 142.291 84.152C141.79 85.1013 141.539 86.1627 141.539 87.336C141.539 88.4773 141.779 89.5013 142.259 90.408C142.739 91.304 143.449 92.008 144.387 92.52C145.326 93.0427 146.457 93.304 147.779 93.304H150.867C151.081 93.304 151.187 93.4107 151.187 93.624V93.72C151.187 93.9333 151.081 94.04 150.867 94.04H147.539C146.131 94.04 144.905 93.752 143.859 93.176C142.825 92.6107 142.03 91.8213 141.475 90.808C140.931 89.784 140.659 88.616 140.659 87.304C140.659 85.9707 140.937 84.776 141.491 83.72C142.046 82.6533 142.841 81.8213 143.875 81.224C144.91 80.616 146.11 80.312 147.475 80.312C148.745 80.312 149.875 80.5733 150.867 81.096C151.859 81.608 152.633 82.3387 153.187 83.288C153.742 84.2373 154.019 85.3413 154.019 86.6C154.019 87.4427 153.886 88.1787 153.619 88.808C153.353 89.4373 152.985 89.928 152.515 90.28C152.046 90.6213 151.513 90.792 150.915 90.792C150.233 90.792 149.737 90.6267 149.427 90.296C149.129 89.9547 148.963 89.5707 148.931 89.144C148.59 89.6773 148.195 90.088 147.747 90.376C147.299 90.6533 146.766 90.792 146.147 90.792C145.443 90.792 144.889 90.584 144.483 90.168C144.078 89.7413 143.875 89.1493 143.875 88.392C143.875 87.6453 144.03 86.9093 144.339 86.184C144.659 85.448 145.107 84.8453 145.683 84.376C146.259 83.9067 146.915 83.672 147.651 83.672C148.206 83.672 148.649 83.7947 148.979 84.04C149.321 84.2747 149.534 84.5947 149.619 85L149.795 84.088C149.827 83.896 149.945 83.8 150.147 83.8H150.403ZM146.275 89.976C146.905 89.976 147.433 89.7573 147.859 89.32C148.297 88.872 148.622 88.344 148.835 87.736C149.049 87.1173 149.155 86.568 149.155 86.088C149.155 85.544 149.043 85.1387 148.819 84.872C148.595 84.5947 148.217 84.456 147.683 84.456C147.139 84.456 146.649 84.648 146.211 85.032C145.785 85.416 145.449 85.9067 145.203 86.504C144.969 87.1013 144.851 87.6987 144.851 88.296C144.851 88.8613 144.974 89.2827 145.219 89.56C145.475 89.8373 145.827 89.976 146.275 89.976ZM159.005 80.328C158.525 80.328 158.183 80.456 157.981 80.712C157.778 80.9573 157.677 81.3733 157.677 81.96V83.112H159.437C159.65 83.112 159.757 83.2187 159.757 83.432V83.592C159.757 83.8053 159.65 83.912 159.437 83.912H157.677V90.68C157.677 90.8933 157.57 91 157.357 91H156.941C156.727 91 156.621 90.8933 156.621 90.68V83.912H155.437C155.223 83.912 155.117 83.8053 155.117 83.592V83.432C155.117 83.2187 155.223 83.112 155.437 83.112H156.621V81.784C156.621 81.048 156.813 80.472 157.197 80.056C157.591 79.64 158.151 79.432 158.877 79.432C159.282 79.432 159.698 79.4907 160.125 79.608C160.327 79.672 160.402 79.8053 160.349 80.008L160.285 80.232C160.231 80.3813 160.125 80.456 159.965 80.456C159.933 80.456 159.863 80.4453 159.757 80.424C159.522 80.36 159.271 80.328 159.005 80.328ZM161.837 81.112C161.624 81.112 161.442 81.0373 161.293 80.888C161.154 80.7387 161.085 80.5573 161.085 80.344C161.085 80.1307 161.154 79.9547 161.293 79.816C161.442 79.6773 161.624 79.608 161.837 79.608C162.061 79.608 162.242 79.6773 162.381 79.816C162.53 79.9547 162.605 80.1307 162.605 80.344C162.605 80.5573 162.53 80.7387 162.381 80.888C162.242 81.0373 162.061 81.112 161.837 81.112ZM161.629 91C161.416 91 161.309 90.8933 161.309 90.68V83.432C161.309 83.2187 161.416 83.112 161.629 83.112H162.045C162.258 83.112 162.365 83.2187 162.365 83.432V90.68C162.365 90.8933 162.258 91 162.045 91H161.629ZM168.235 82.92C169.163 82.92 169.862 83.176 170.331 83.688C170.811 84.2 171.051 84.84 171.051 85.608V90.68C171.051 90.8933 170.945 91 170.731 91H170.315C170.102 91 169.995 90.8933 169.995 90.68V85.96C169.995 85.256 169.825 84.7227 169.483 84.36C169.142 83.9973 168.651 83.816 168.011 83.816C167.606 83.816 167.233 83.9173 166.891 84.12C166.55 84.312 166.278 84.5787 166.075 84.92C165.873 85.2613 165.771 85.6347 165.771 86.04V90.68C165.771 90.8933 165.665 91 165.451 91H165.035C164.822 91 164.715 90.8933 164.715 90.68V83.432C164.715 83.2187 164.822 83.112 165.035 83.112H165.387C165.601 83.112 165.707 83.2187 165.707 83.432V84.2C165.974 83.7733 166.326 83.4533 166.763 83.24C167.201 83.0267 167.691 82.92 168.235 82.92ZM176.907 82.92C177.835 82.92 178.534 83.176 179.003 83.688C179.483 84.2 179.723 84.84 179.723 85.608V90.68C179.723 90.8933 179.616 91 179.403 91H178.987C178.774 91 178.667 90.8933 178.667 90.68V85.96C178.667 85.256 178.496 84.7227 178.155 84.36C177.814 83.9973 177.323 83.816 176.683 83.816C176.278 83.816 175.904 83.9173 175.563 84.12C175.222 84.312 174.95 84.5787 174.747 84.92C174.544 85.2613 174.443 85.6347 174.443 86.04V90.68C174.443 90.8933 174.336 91 174.123 91H173.707C173.494 91 173.387 90.8933 173.387 90.68V83.432C173.387 83.2187 173.494 83.112 173.707 83.112H174.059C174.272 83.112 174.379 83.2187 174.379 83.432V84.2C174.646 83.7733 174.998 83.4533 175.435 83.24C175.872 83.0267 176.363 82.92 176.907 82.92ZM182.491 91.112C182.267 91.112 182.075 91.032 181.915 90.872C181.755 90.712 181.675 90.52 181.675 90.296C181.675 90.072 181.755 89.88 181.915 89.72C182.075 89.56 182.267 89.48 182.491 89.48C182.715 89.48 182.907 89.56 183.067 89.72C183.227 89.88 183.307 90.072 183.307 90.296C183.307 90.52 183.227 90.712 183.067 90.872C182.907 91.032 182.715 91.112 182.491 91.112ZM188.813 82.92C189.741 82.92 190.44 83.176 190.909 83.688C191.389 84.2 191.629 84.84 191.629 85.608V90.68C191.629 90.8933 191.523 91 191.309 91H190.893C190.68 91 190.573 90.8933 190.573 90.68V85.96C190.573 85.256 190.403 84.7227 190.061 84.36C189.72 83.9973 189.229 83.816 188.589 83.816C188.184 83.816 187.811 83.9173 187.469 84.12C187.128 84.312 186.856 84.5787 186.653 84.92C186.451 85.2613 186.349 85.6347 186.349 86.04V90.68C186.349 90.8933 186.243 91 186.029 91H185.613C185.4 91 185.293 90.8933 185.293 90.68V83.432C185.293 83.2187 185.4 83.112 185.613 83.112H185.965C186.179 83.112 186.285 83.2187 186.285 83.432V84.2C186.552 83.7733 186.904 83.4533 187.341 83.24C187.779 83.0267 188.269 82.92 188.813 82.92ZM197.229 91.208C196.493 91.208 195.837 91.032 195.261 90.68C194.685 90.328 194.237 89.8427 193.917 89.224C193.597 88.5947 193.437 87.8747 193.437 87.064C193.437 86.2533 193.597 85.5387 193.917 84.92C194.237 84.2907 194.685 83.8 195.261 83.448C195.837 83.096 196.493 82.92 197.229 82.92C197.965 82.92 198.621 83.096 199.197 83.448C199.773 83.8 200.221 84.2907 200.541 84.92C200.861 85.5387 201.021 86.2533 201.021 87.064C201.021 87.8747 200.861 88.5947 200.541 89.224C200.221 89.8427 199.773 90.328 199.197 90.68C198.621 91.032 197.965 91.208 197.229 91.208ZM197.229 90.328C198.051 90.328 198.707 90.0293 199.197 89.432C199.688 88.824 199.933 88.0347 199.933 87.064C199.933 86.0933 199.688 85.3093 199.197 84.712C198.707 84.104 198.051 83.8 197.229 83.8C196.408 83.8 195.752 84.104 195.261 84.712C194.771 85.3093 194.525 86.0933 194.525 87.064C194.525 88.0347 194.771 88.824 195.261 89.432C195.752 90.0293 196.408 90.328 197.229 90.328Z" fill="#474445"/>
<path d="M75 63H270V61H75V63ZM273 66V106H275V66H273ZM270 109H75V111H270V109ZM72 106V66H70V106H72ZM75 109C73.3431 109 72 107.657 72 106H70C70 108.761 72.2386 111 75 111V109ZM273 106C273 107.657 271.657 109 270 109V111C272.761 111 275 108.761 275 106H273ZM270 63C271.657 63 273 64.3431 273 66H275C275 63.2386 272.761 61 270 61V63ZM75 61C72.2386 61 70 63.2386 70 66H72C72 64.3431 73.3431 63 75 63V61Z" fill="#C3CCD9"/>
</svg>
