<svg width="344" height="150" viewBox="0 0 344 150" fill="none" xmlns="http://www.w3.org/2000/svg">
<path d="M71.568 54C71.4187 54 71.2973 53.958 71.204 53.874C71.12 53.7807 71.078 53.6593 71.078 53.51V44.55C71.078 44.3913 71.12 44.27 71.204 44.186C71.2973 44.102 71.4187 44.06 71.568 44.06H77.378C77.5367 44.06 77.658 44.102 77.742 44.186C77.826 44.27 77.868 44.3913 77.868 44.55V44.914C77.868 45.0633 77.826 45.1847 77.742 45.278C77.658 45.362 77.5367 45.404 77.378 45.404H72.674V48.204H77.028C77.1867 48.204 77.308 48.246 77.392 48.33C77.476 48.414 77.518 48.5353 77.518 48.694V49.058C77.518 49.2073 77.476 49.3287 77.392 49.422C77.308 49.506 77.1867 49.548 77.028 49.548H72.674V52.656H77.518C77.6767 52.656 77.798 52.698 77.882 52.782C77.966 52.866 78.008 52.9873 78.008 53.146V53.51C78.008 53.6593 77.966 53.7807 77.882 53.874C77.798 53.958 77.6767 54 77.518 54H71.568ZM86.9143 46.888C87.6516 46.888 88.221 47.098 88.6223 47.518C89.0236 47.9287 89.2243 48.484 89.2243 49.184V53.51C89.2243 53.6593 89.1823 53.7807 89.0983 53.874C89.0143 53.958 88.893 54 88.7343 54H88.2303C88.081 54 87.9596 53.958 87.8663 53.874C87.7823 53.7807 87.7403 53.6593 87.7403 53.51V49.632C87.7403 49.1747 87.6376 48.8153 87.4323 48.554C87.227 48.2927 86.9143 48.162 86.4943 48.162C86.065 48.162 85.7243 48.3067 85.4723 48.596C85.2296 48.8853 85.1083 49.2587 85.1083 49.716V53.51C85.1083 53.6593 85.0663 53.7807 84.9823 53.874C84.8983 53.958 84.777 54 84.6183 54H84.1143C83.965 54 83.8436 53.958 83.7503 53.874C83.6663 53.7807 83.6243 53.6593 83.6243 53.51V49.632C83.6243 49.1747 83.5216 48.8153 83.3163 48.554C83.1203 48.2927 82.8123 48.162 82.3923 48.162C81.9816 48.162 81.6503 48.2973 81.3983 48.568C81.1463 48.8387 81.011 49.1887 80.9923 49.618V53.51C80.9923 53.6593 80.9503 53.7807 80.8663 53.874C80.7823 53.958 80.661 54 80.5023 54H79.9983C79.849 54 79.7276 53.958 79.6343 53.874C79.5503 53.7807 79.5083 53.6593 79.5083 53.51V47.588C79.5083 47.4293 79.5503 47.308 79.6343 47.224C79.7276 47.14 79.849 47.098 79.9983 47.098H80.4043C80.563 47.098 80.6843 47.14 80.7683 47.224C80.8523 47.308 80.8943 47.4293 80.8943 47.588V47.896C81.3236 47.224 81.9863 46.888 82.8823 46.888C83.3303 46.888 83.7223 46.9813 84.0583 47.168C84.3943 47.3547 84.651 47.616 84.8283 47.952C85.3043 47.2427 85.9996 46.888 86.9143 46.888ZM93.8363 46.888C94.7696 46.888 95.4883 47.1073 95.9923 47.546C96.4963 47.9753 96.7483 48.5493 96.7483 49.268V53.51C96.7483 53.6593 96.7063 53.7807 96.6223 53.874C96.5383 53.958 96.417 54 96.2583 54H95.8943C95.745 54 95.6236 53.958 95.5303 53.874C95.4463 53.7807 95.4043 53.6593 95.4043 53.51V53.202C95.1803 53.5287 94.8723 53.7807 94.4803 53.958C94.0883 54.1353 93.631 54.224 93.1083 54.224C92.3896 54.224 91.797 54.0653 91.3303 53.748C90.873 53.4213 90.6443 52.9313 90.6443 52.278C90.6443 51.55 90.915 51.0133 91.4563 50.668C92.007 50.3133 92.7676 50.0473 93.7383 49.87L95.3203 49.576V49.324C95.3203 48.9413 95.185 48.6473 94.9143 48.442C94.653 48.2273 94.303 48.12 93.8643 48.12C93.491 48.12 93.1643 48.1853 92.8843 48.316C92.6136 48.4373 92.3196 48.6427 92.0023 48.932C91.881 49.0347 91.7643 49.086 91.6523 49.086C91.5403 49.086 91.4236 49.0347 91.3023 48.932L91.0783 48.736C90.957 48.624 90.8963 48.5027 90.8963 48.372C90.8963 48.2507 90.9523 48.134 91.0643 48.022C91.4656 47.6393 91.8903 47.3547 92.3383 47.168C92.7863 46.9813 93.2856 46.888 93.8363 46.888ZM93.3183 53.034C93.8783 53.034 94.3496 52.8847 94.7323 52.586C95.1243 52.2873 95.3203 51.858 95.3203 51.298V50.654L94.1023 50.906C93.421 51.046 92.917 51.2047 92.5903 51.382C92.2636 51.5593 92.1003 51.83 92.1003 52.194C92.1003 52.4553 92.2076 52.6607 92.4223 52.81C92.637 52.9593 92.9356 53.034 93.3183 53.034ZM99.1998 45.754C98.9292 45.754 98.7005 45.6653 98.5138 45.488C98.3272 45.3013 98.2338 45.082 98.2338 44.83C98.2338 44.5687 98.3272 44.3493 98.5138 44.172C98.7005 43.9947 98.9292 43.906 99.1998 43.906C99.4705 43.906 99.6992 43.9947 99.8858 44.172C100.073 44.3493 100.166 44.5687 100.166 44.83C100.166 45.082 100.073 45.3013 99.8858 45.488C99.6992 45.6653 99.4705 45.754 99.1998 45.754ZM98.9338 54C98.7845 54 98.6632 53.958 98.5698 53.874C98.4858 53.7807 98.4438 53.6593 98.4438 53.51V47.588C98.4438 47.4293 98.4858 47.308 98.5698 47.224C98.6632 47.14 98.7845 47.098 98.9338 47.098H99.4378C99.5965 47.098 99.7178 47.14 99.8018 47.224C99.8858 47.308 99.9278 47.4293 99.9278 47.588V53.51C99.9278 53.6593 99.8858 53.7807 99.8018 53.874C99.7178 53.958 99.5965 54 99.4378 54H98.9338ZM102.189 54C102.04 54 101.918 53.958 101.825 53.874C101.741 53.7807 101.699 53.6593 101.699 53.51V44.55C101.699 44.3913 101.741 44.27 101.825 44.186C101.918 44.102 102.04 44.06 102.189 44.06H102.693C102.852 44.06 102.973 44.102 103.057 44.186C103.141 44.27 103.183 44.3913 103.183 44.55V53.51C103.183 53.6593 103.141 53.7807 103.057 53.874C102.973 53.958 102.852 54 102.693 54H102.189ZM110.995 46.888C111.928 46.888 112.647 47.1073 113.151 47.546C113.655 47.9753 113.907 48.5493 113.907 49.268V53.51C113.907 53.6593 113.865 53.7807 113.781 53.874C113.697 53.958 113.575 54 113.417 54H113.053C112.903 54 112.782 53.958 112.689 53.874C112.605 53.7807 112.563 53.6593 112.563 53.51V53.202C112.339 53.5287 112.031 53.7807 111.639 53.958C111.247 54.1353 110.789 54.224 110.267 54.224C109.548 54.224 108.955 54.0653 108.489 53.748C108.031 53.4213 107.803 52.9313 107.803 52.278C107.803 51.55 108.073 51.0133 108.615 50.668C109.165 50.3133 109.926 50.0473 110.897 49.87L112.479 49.576V49.324C112.479 48.9413 112.343 48.6473 112.073 48.442C111.811 48.2273 111.461 48.12 111.023 48.12C110.649 48.12 110.323 48.1853 110.043 48.316C109.772 48.4373 109.478 48.6427 109.161 48.932C109.039 49.0347 108.923 49.086 108.811 49.086C108.699 49.086 108.582 49.0347 108.461 48.932L108.237 48.736C108.115 48.624 108.055 48.5027 108.055 48.372C108.055 48.2507 108.111 48.134 108.223 48.022C108.624 47.6393 109.049 47.3547 109.497 47.168C109.945 46.9813 110.444 46.888 110.995 46.888ZM110.477 53.034C111.037 53.034 111.508 52.8847 111.891 52.586C112.283 52.2873 112.479 51.858 112.479 51.298V50.654L111.261 50.906C110.579 51.046 110.075 51.2047 109.749 51.382C109.422 51.5593 109.259 51.83 109.259 52.194C109.259 52.4553 109.366 52.6607 109.581 52.81C109.795 52.9593 110.094 53.034 110.477 53.034ZM120.46 44.536C120.46 44.3773 120.502 44.256 120.586 44.172C120.679 44.088 120.801 44.046 120.95 44.046H121.454C121.613 44.046 121.734 44.088 121.818 44.172C121.902 44.256 121.944 44.3773 121.944 44.536V53.51C121.944 53.6593 121.902 53.7807 121.818 53.874C121.734 53.958 121.613 54 121.454 54H121.048C120.899 54 120.777 53.958 120.684 53.874C120.6 53.7807 120.558 53.6593 120.558 53.51V53.02C120.073 53.804 119.312 54.196 118.276 54.196C117.697 54.196 117.175 54.0467 116.708 53.748C116.251 53.4493 115.891 53.0247 115.63 52.474C115.369 51.9233 115.238 51.284 115.238 50.556C115.238 49.8373 115.369 49.2027 115.63 48.652C115.901 48.1013 116.269 47.6767 116.736 47.378C117.203 47.0793 117.725 46.93 118.304 46.93C119.256 46.93 119.975 47.2613 120.46 47.924V44.536ZM118.584 52.922C119.153 52.922 119.62 52.712 119.984 52.292C120.348 51.8627 120.53 51.284 120.53 50.556C120.53 49.828 120.348 49.254 119.984 48.834C119.62 48.414 119.153 48.204 118.584 48.204C118.033 48.204 117.59 48.4187 117.254 48.848C116.918 49.2773 116.75 49.8467 116.75 50.556C116.75 51.2747 116.913 51.8487 117.24 52.278C117.576 52.7073 118.024 52.922 118.584 52.922ZM128.526 44.536C128.526 44.3773 128.568 44.256 128.652 44.172C128.746 44.088 128.867 44.046 129.016 44.046H129.52C129.679 44.046 129.8 44.088 129.884 44.172C129.968 44.256 130.01 44.3773 130.01 44.536V53.51C130.01 53.6593 129.968 53.7807 129.884 53.874C129.8 53.958 129.679 54 129.52 54H129.114C128.965 54 128.844 53.958 128.75 53.874C128.666 53.7807 128.624 53.6593 128.624 53.51V53.02C128.139 53.804 127.378 54.196 126.342 54.196C125.764 54.196 125.241 54.0467 124.774 53.748C124.317 53.4493 123.958 53.0247 123.696 52.474C123.435 51.9233 123.304 51.284 123.304 50.556C123.304 49.8373 123.435 49.2027 123.696 48.652C123.967 48.1013 124.336 47.6767 124.802 47.378C125.269 47.0793 125.792 46.93 126.37 46.93C127.322 46.93 128.041 47.2613 128.526 47.924V44.536ZM126.65 52.922C127.22 52.922 127.686 52.712 128.05 52.292C128.414 51.8627 128.596 51.284 128.596 50.556C128.596 49.828 128.414 49.254 128.05 48.834C127.686 48.414 127.22 48.204 126.65 48.204C126.1 48.204 125.656 48.4187 125.32 48.848C124.984 49.2773 124.816 49.8467 124.816 50.556C124.816 51.2747 124.98 51.8487 125.306 52.278C125.642 52.7073 126.09 52.922 126.65 52.922ZM134.843 47.028C135.048 47.028 135.258 47.0513 135.473 47.098C135.725 47.154 135.851 47.3033 135.851 47.546C135.851 47.6113 135.846 47.658 135.837 47.686L135.767 48.022C135.711 48.2833 135.571 48.414 135.347 48.414L135.221 48.4C135.053 48.372 134.904 48.358 134.773 48.358C134.306 48.358 133.928 48.5447 133.639 48.918C133.359 49.282 133.219 49.7907 133.219 50.444V53.51C133.219 53.6593 133.177 53.7807 133.093 53.874C133.009 53.958 132.888 54 132.729 54H132.225C132.076 54 131.954 53.958 131.861 53.874C131.777 53.7807 131.735 53.6593 131.735 53.51V47.588C131.735 47.4293 131.777 47.308 131.861 47.224C131.954 47.14 132.076 47.098 132.225 47.098H132.631C132.79 47.098 132.911 47.14 132.995 47.224C133.079 47.308 133.121 47.4293 133.121 47.588V48.134C133.289 47.7887 133.518 47.518 133.807 47.322C134.096 47.126 134.442 47.028 134.843 47.028ZM141.544 52.236C141.665 52.1333 141.782 52.082 141.894 52.082C142.006 52.082 142.123 52.1427 142.244 52.264L142.44 52.474C142.543 52.5953 142.594 52.712 142.594 52.824C142.594 52.9453 142.533 53.062 142.412 53.174C141.983 53.5473 141.553 53.8133 141.124 53.972C140.704 54.1307 140.237 54.21 139.724 54.21C139.005 54.21 138.38 54.0607 137.848 53.762C137.325 53.4633 136.919 53.0433 136.63 52.502C136.35 51.9513 136.21 51.3167 136.21 50.598C136.21 49.8887 136.345 49.254 136.616 48.694C136.896 48.1247 137.288 47.6813 137.792 47.364C138.305 47.0467 138.903 46.888 139.584 46.888C140.601 46.888 141.385 47.1913 141.936 47.798C142.487 48.3953 142.762 49.2213 142.762 50.276V50.402C142.753 50.5513 142.706 50.668 142.622 50.752C142.538 50.836 142.417 50.878 142.258 50.878H137.666C137.722 51.494 137.923 51.998 138.268 52.39C138.623 52.7727 139.117 52.964 139.752 52.964C140.097 52.964 140.401 52.9127 140.662 52.81C140.923 52.698 141.217 52.5067 141.544 52.236ZM139.556 48.064C139.043 48.064 138.627 48.218 138.31 48.526C138.002 48.8247 137.801 49.2493 137.708 49.8H141.306C141.269 49.2587 141.101 48.834 140.802 48.526C140.503 48.218 140.088 48.064 139.556 48.064ZM146.809 54.21C146.24 54.21 145.731 54.14 145.283 54C144.844 53.8507 144.396 53.594 143.939 53.23C143.799 53.1273 143.729 53.0107 143.729 52.88C143.729 52.7773 143.78 52.6653 143.883 52.544L144.093 52.306C144.205 52.1753 144.326 52.11 144.457 52.11C144.56 52.11 144.672 52.1567 144.793 52.25C145.185 52.5393 145.53 52.74 145.829 52.852C146.128 52.9547 146.464 53.006 146.837 53.006C147.238 53.006 147.565 52.9267 147.817 52.768C148.078 52.6 148.209 52.376 148.209 52.096C148.209 51.8813 148.134 51.7133 147.985 51.592C147.845 51.4613 147.658 51.3633 147.425 51.298C147.192 51.2233 146.846 51.1393 146.389 51.046C145.745 50.906 145.241 50.7567 144.877 50.598C144.522 50.43 144.266 50.22 144.107 49.968C143.948 49.716 143.869 49.394 143.869 49.002C143.869 48.6007 143.981 48.2413 144.205 47.924C144.438 47.6067 144.76 47.3547 145.171 47.168C145.591 46.9813 146.081 46.888 146.641 46.888C147.145 46.888 147.593 46.944 147.985 47.056C148.386 47.168 148.778 47.3593 149.161 47.63C149.31 47.742 149.385 47.868 149.385 48.008C149.385 48.1013 149.338 48.2087 149.245 48.33L149.063 48.554C148.96 48.6847 148.834 48.75 148.685 48.75C148.573 48.75 148.466 48.7127 148.363 48.638C148.055 48.4327 147.77 48.2927 147.509 48.218C147.248 48.134 146.954 48.092 146.627 48.092C146.226 48.092 145.904 48.1713 145.661 48.33C145.418 48.4887 145.297 48.694 145.297 48.946C145.297 49.114 145.353 49.2493 145.465 49.352C145.586 49.4453 145.754 49.5293 145.969 49.604C146.193 49.6693 146.543 49.7533 147.019 49.856C147.663 49.996 148.172 50.1547 148.545 50.332C148.928 50.5 149.208 50.7193 149.385 50.99C149.572 51.2513 149.665 51.592 149.665 52.012C149.665 52.6653 149.404 53.1973 148.881 53.608C148.368 54.0093 147.677 54.21 146.809 54.21ZM153.604 54.21C153.035 54.21 152.526 54.14 152.078 54C151.639 53.8507 151.191 53.594 150.734 53.23C150.594 53.1273 150.524 53.0107 150.524 52.88C150.524 52.7773 150.575 52.6653 150.678 52.544L150.888 52.306C151 52.1753 151.121 52.11 151.252 52.11C151.355 52.11 151.467 52.1567 151.588 52.25C151.98 52.5393 152.325 52.74 152.624 52.852C152.923 52.9547 153.259 53.006 153.632 53.006C154.033 53.006 154.36 52.9267 154.612 52.768C154.873 52.6 155.004 52.376 155.004 52.096C155.004 51.8813 154.929 51.7133 154.78 51.592C154.64 51.4613 154.453 51.3633 154.22 51.298C153.987 51.2233 153.641 51.1393 153.184 51.046C152.54 50.906 152.036 50.7567 151.672 50.598C151.317 50.43 151.061 50.22 150.902 49.968C150.743 49.716 150.664 49.394 150.664 49.002C150.664 48.6007 150.776 48.2413 151 47.924C151.233 47.6067 151.555 47.3547 151.966 47.168C152.386 46.9813 152.876 46.888 153.436 46.888C153.94 46.888 154.388 46.944 154.78 47.056C155.181 47.168 155.573 47.3593 155.956 47.63C156.105 47.742 156.18 47.868 156.18 48.008C156.18 48.1013 156.133 48.2087 156.04 48.33L155.858 48.554C155.755 48.6847 155.629 48.75 155.48 48.75C155.368 48.75 155.261 48.7127 155.158 48.638C154.85 48.4327 154.565 48.2927 154.304 48.218C154.043 48.134 153.749 48.092 153.422 48.092C153.021 48.092 152.699 48.1713 152.456 48.33C152.213 48.4887 152.092 48.694 152.092 48.946C152.092 49.114 152.148 49.2493 152.26 49.352C152.381 49.4453 152.549 49.5293 152.764 49.604C152.988 49.6693 153.338 49.7533 153.814 49.856C154.458 49.996 154.967 50.1547 155.34 50.332C155.723 50.5 156.003 50.7193 156.18 50.99C156.367 51.2513 156.46 51.592 156.46 52.012C156.46 52.6653 156.199 53.1973 155.676 53.608C155.163 54.0093 154.472 54.21 153.604 54.21Z" fill="#474445"/>
<path d="M168.552 55.872C168.504 55.92 168.448 55.944 168.384 55.944C168.32 55.944 168.264 55.912 168.216 55.848C167.488 55.032 166.928 54.184 166.536 53.304C166.152 52.424 165.96 51.428 165.96 50.316C165.96 49.204 166.152 48.208 166.536 47.328C166.928 46.448 167.488 45.6 168.216 44.784C168.264 44.72 168.32 44.688 168.384 44.688C168.448 44.688 168.504 44.712 168.552 44.76L168.708 44.904C168.772 44.952 168.804 45.012 168.804 45.084C168.804 45.14 168.78 45.192 168.732 45.24C168.076 46.04 167.584 46.84 167.256 47.64C166.936 48.44 166.776 49.332 166.776 50.316C166.776 51.292 166.94 52.184 167.268 52.992C167.596 53.792 168.084 54.592 168.732 55.392C168.78 55.44 168.804 55.492 168.804 55.548C168.804 55.62 168.772 55.68 168.708 55.728L168.552 55.872ZM172.227 54.156C171.675 54.156 171.183 54.024 170.751 53.76C170.319 53.496 169.983 53.132 169.743 52.668C169.503 52.196 169.383 51.656 169.383 51.048C169.383 50.44 169.503 49.904 169.743 49.44C169.983 48.968 170.319 48.6 170.751 48.336C171.183 48.072 171.675 47.94 172.227 47.94C172.779 47.94 173.271 48.072 173.703 48.336C174.135 48.6 174.471 48.968 174.711 49.44C174.951 49.904 175.071 50.44 175.071 51.048C175.071 51.656 174.951 52.196 174.711 52.668C174.471 53.132 174.135 53.496 173.703 53.76C173.271 54.024 172.779 54.156 172.227 54.156ZM172.227 53.496C172.843 53.496 173.335 53.272 173.703 52.824C174.071 52.368 174.255 51.776 174.255 51.048C174.255 50.32 174.071 49.732 173.703 49.284C173.335 48.828 172.843 48.6 172.227 48.6C171.611 48.6 171.119 48.828 170.751 49.284C170.383 49.732 170.199 50.32 170.199 51.048C170.199 51.776 170.383 52.368 170.751 52.824C171.119 53.272 171.611 53.496 172.227 53.496ZM179.279 47.952C179.775 47.952 180.219 48.084 180.611 48.348C181.011 48.604 181.323 48.968 181.547 49.44C181.771 49.904 181.883 50.436 181.883 51.036C181.883 51.644 181.771 52.184 181.547 52.656C181.323 53.128 181.015 53.496 180.623 53.76C180.231 54.016 179.783 54.144 179.279 54.144C178.351 54.144 177.671 53.804 177.239 53.124V55.968C177.239 56.128 177.159 56.208 176.999 56.208H176.687C176.527 56.208 176.447 56.128 176.447 55.968V48.324C176.447 48.164 176.527 48.084 176.687 48.084H176.951C177.111 48.084 177.191 48.164 177.191 48.324V49.08C177.407 48.712 177.691 48.432 178.043 48.24C178.395 48.048 178.807 47.952 179.279 47.952ZM179.219 53.472C179.779 53.472 180.227 53.248 180.563 52.8C180.899 52.352 181.067 51.764 181.067 51.036C181.067 50.316 180.899 49.736 180.563 49.296C180.227 48.848 179.779 48.624 179.219 48.624C178.619 48.624 178.131 48.84 177.755 49.272C177.387 49.696 177.203 50.284 177.203 51.036C177.203 51.788 177.391 52.384 177.767 52.824C178.143 53.256 178.627 53.472 179.219 53.472ZM185.779 53.34C185.803 53.332 185.835 53.328 185.875 53.328C185.923 53.328 185.967 53.344 186.007 53.376C186.047 53.408 186.071 53.452 186.079 53.508L186.115 53.676C186.123 53.692 186.127 53.72 186.127 53.76C186.127 53.872 186.067 53.94 185.947 53.964C185.659 54.052 185.351 54.096 185.023 54.096C184.503 54.096 184.131 53.98 183.907 53.748C183.691 53.508 183.583 53.164 183.583 52.716V48.684H182.695C182.535 48.684 182.455 48.604 182.455 48.444V48.324C182.455 48.164 182.535 48.084 182.695 48.084H183.583V46.26C183.583 46.1 183.663 46.02 183.823 46.02H184.135C184.295 46.02 184.375 46.1 184.375 46.26V48.084H185.815C185.975 48.084 186.055 48.164 186.055 48.324V48.444C186.055 48.604 185.975 48.684 185.815 48.684H184.375V52.62C184.375 52.916 184.431 53.124 184.543 53.244C184.655 53.364 184.847 53.424 185.119 53.424C185.311 53.424 185.531 53.396 185.779 53.34ZM187.659 46.584C187.499 46.584 187.363 46.528 187.251 46.416C187.147 46.304 187.095 46.168 187.095 46.008C187.095 45.848 187.147 45.716 187.251 45.612C187.363 45.508 187.499 45.456 187.659 45.456C187.827 45.456 187.963 45.508 188.067 45.612C188.179 45.716 188.235 45.848 188.235 46.008C188.235 46.168 188.179 46.304 188.067 46.416C187.963 46.528 187.827 46.584 187.659 46.584ZM187.503 54C187.343 54 187.263 53.92 187.263 53.76V48.324C187.263 48.164 187.343 48.084 187.503 48.084H187.815C187.975 48.084 188.055 48.164 188.055 48.324V53.76C188.055 53.92 187.975 54 187.815 54H187.503ZM192.266 54.156C191.714 54.156 191.222 54.024 190.79 53.76C190.358 53.496 190.022 53.132 189.782 52.668C189.542 52.196 189.422 51.656 189.422 51.048C189.422 50.44 189.542 49.904 189.782 49.44C190.022 48.968 190.358 48.6 190.79 48.336C191.222 48.072 191.714 47.94 192.266 47.94C192.818 47.94 193.31 48.072 193.742 48.336C194.174 48.6 194.51 48.968 194.75 49.44C194.99 49.904 195.11 50.44 195.11 51.048C195.11 51.656 194.99 52.196 194.75 52.668C194.51 53.132 194.174 53.496 193.742 53.76C193.31 54.024 192.818 54.156 192.266 54.156ZM192.266 53.496C192.882 53.496 193.374 53.272 193.742 52.824C194.11 52.368 194.294 51.776 194.294 51.048C194.294 50.32 194.11 49.732 193.742 49.284C193.374 48.828 192.882 48.6 192.266 48.6C191.65 48.6 191.158 48.828 190.79 49.284C190.422 49.732 190.238 50.32 190.238 51.048C190.238 51.776 190.422 52.368 190.79 52.824C191.158 53.272 191.65 53.496 192.266 53.496ZM199.126 47.94C199.822 47.94 200.346 48.132 200.698 48.516C201.058 48.9 201.238 49.38 201.238 49.956V53.76C201.238 53.92 201.158 54 200.998 54H200.686C200.526 54 200.446 53.92 200.446 53.76V50.22C200.446 49.692 200.318 49.292 200.062 49.02C199.806 48.748 199.438 48.612 198.958 48.612C198.654 48.612 198.374 48.688 198.118 48.84C197.862 48.984 197.658 49.184 197.506 49.44C197.354 49.696 197.278 49.976 197.278 50.28V53.76C197.278 53.92 197.198 54 197.038 54H196.726C196.566 54 196.486 53.92 196.486 53.76V48.324C196.486 48.164 196.566 48.084 196.726 48.084H196.99C197.15 48.084 197.23 48.164 197.23 48.324V48.9C197.43 48.58 197.694 48.34 198.022 48.18C198.35 48.02 198.718 47.94 199.126 47.94ZM205.27 47.94C205.998 47.94 206.566 48.116 206.974 48.468C207.382 48.812 207.586 49.268 207.586 49.836V53.76C207.586 53.92 207.506 54 207.346 54H207.106C206.946 54 206.866 53.92 206.866 53.76V53.22C206.666 53.54 206.382 53.78 206.014 53.94C205.654 54.1 205.25 54.18 204.802 54.18C204.178 54.18 203.67 54.048 203.278 53.784C202.886 53.52 202.69 53.112 202.69 52.56C202.69 52.12 202.814 51.768 203.062 51.504C203.31 51.232 203.634 51.028 204.034 50.892C204.434 50.748 204.934 50.62 205.534 50.508L206.83 50.28V49.896C206.83 49.488 206.69 49.172 206.41 48.948C206.13 48.716 205.762 48.6 205.306 48.6C204.962 48.6 204.65 48.664 204.37 48.792C204.09 48.92 203.79 49.14 203.47 49.452C203.414 49.508 203.354 49.536 203.29 49.536C203.234 49.536 203.182 49.512 203.134 49.464L202.978 49.32C202.922 49.264 202.894 49.204 202.894 49.14C202.894 49.068 202.922 49.004 202.978 48.948C203.314 48.596 203.666 48.34 204.034 48.18C204.41 48.02 204.822 47.94 205.27 47.94ZM204.838 53.52C205.414 53.52 205.89 53.368 206.266 53.064C206.642 52.76 206.83 52.372 206.83 51.9V50.892L205.714 51.108C205.194 51.212 204.782 51.312 204.478 51.408C204.174 51.504 203.93 51.644 203.746 51.828C203.562 52.012 203.47 52.252 203.47 52.548C203.47 52.852 203.59 53.092 203.83 53.268C204.078 53.436 204.414 53.52 204.838 53.52ZM209.593 54C209.433 54 209.353 53.92 209.353 53.76V45.72C209.353 45.56 209.433 45.48 209.593 45.48H209.905C210.065 45.48 210.145 45.56 210.145 45.72V53.76C210.145 53.92 210.065 54 209.905 54H209.593ZM211.835 55.848C211.787 55.912 211.731 55.944 211.667 55.944C211.603 55.944 211.547 55.92 211.499 55.872L211.343 55.728C211.279 55.68 211.247 55.62 211.247 55.548C211.247 55.492 211.271 55.44 211.319 55.392C211.975 54.592 212.467 53.792 212.795 52.992C213.123 52.192 213.287 51.3 213.287 50.316C213.287 49.34 213.123 48.448 212.795 47.64C212.467 46.832 211.975 46.032 211.319 45.24C211.279 45.192 211.259 45.14 211.259 45.084C211.259 45.012 211.287 44.952 211.343 44.904L211.499 44.76C211.547 44.712 211.603 44.688 211.667 44.688C211.731 44.688 211.787 44.72 211.835 44.784C212.563 45.6 213.119 46.448 213.503 47.328C213.895 48.208 214.091 49.204 214.091 50.316C214.091 51.428 213.895 52.424 213.503 53.304C213.119 54.184 212.563 55.032 211.835 55.848Z" fill="#767676"/>
<path d="M70 66C70 63.7909 71.7909 62 74 62H269C271.209 62 273 63.7909 273 66V106C273 108.209 271.209 110 269 110H74C71.7909 110 70 108.209 70 106V66Z" fill="white"/>
<path d="M79.696 91C79.4827 91 79.376 90.8933 79.376 90.68V79.96C79.376 79.7467 79.4827 79.64 79.696 79.64H80.192C80.4053 79.64 80.512 79.7467 80.512 79.96V84.664H87.072V79.96C87.072 79.7467 87.1787 79.64 87.392 79.64H87.888C88.1013 79.64 88.208 79.7467 88.208 79.96V90.68C88.208 90.8933 88.1013 91 87.888 91H87.392C87.1787 91 87.072 90.8933 87.072 90.68V85.608H80.512V90.68C80.512 90.8933 80.4053 91 80.192 91H79.696ZM91.2901 81.112C91.0768 81.112 90.8955 81.0373 90.7461 80.888C90.6075 80.7387 90.5381 80.5573 90.5381 80.344C90.5381 80.1307 90.6075 79.9547 90.7461 79.816C90.8955 79.6773 91.0768 79.608 91.2901 79.608C91.5141 79.608 91.6955 79.6773 91.8341 79.816C91.9835 79.9547 92.0581 80.1307 92.0581 80.344C92.0581 80.5573 91.9835 80.7387 91.8341 80.888C91.6955 81.0373 91.5141 81.112 91.2901 81.112ZM91.0821 91C90.8688 91 90.7621 90.8933 90.7621 90.68V83.432C90.7621 83.2187 90.8688 83.112 91.0821 83.112H91.4981C91.7115 83.112 91.8181 83.2187 91.8181 83.432V90.68C91.8181 90.8933 91.7115 91 91.4981 91H91.0821ZM97.6884 82.92C98.6164 82.92 99.315 83.176 99.7844 83.688C100.264 84.2 100.504 84.84 100.504 85.608V90.68C100.504 90.8933 100.398 91 100.184 91H99.7684C99.555 91 99.4484 90.8933 99.4484 90.68V85.96C99.4484 85.256 99.2777 84.7227 98.9364 84.36C98.595 83.9973 98.1044 83.816 97.4644 83.816C97.059 83.816 96.6857 83.9173 96.3444 84.12C96.003 84.312 95.731 84.5787 95.5284 84.92C95.3257 85.2613 95.2244 85.6347 95.2244 86.04V90.68C95.2244 90.8933 95.1177 91 94.9044 91H94.4884C94.275 91 94.1684 90.8933 94.1684 90.68V83.432C94.1684 83.2187 94.275 83.112 94.4884 83.112H94.8404C95.0537 83.112 95.1604 83.2187 95.1604 83.432V84.2C95.427 83.7733 95.779 83.4533 96.2164 83.24C96.6537 83.0267 97.1444 82.92 97.6884 82.92ZM106.174 90.12C106.206 90.1093 106.248 90.104 106.302 90.104C106.366 90.104 106.424 90.1253 106.478 90.168C106.531 90.2107 106.563 90.2693 106.574 90.344L106.622 90.568C106.632 90.5893 106.638 90.6267 106.638 90.68C106.638 90.8293 106.558 90.92 106.398 90.952C106.014 91.0693 105.603 91.128 105.166 91.128C104.472 91.128 103.976 90.9733 103.678 90.664C103.39 90.344 103.246 89.8853 103.246 89.288V83.912H102.062C101.848 83.912 101.742 83.8053 101.742 83.592V83.432C101.742 83.2187 101.848 83.112 102.062 83.112H103.246V80.68C103.246 80.4667 103.352 80.36 103.566 80.36H103.982C104.195 80.36 104.302 80.4667 104.302 80.68V83.112H106.222C106.435 83.112 106.542 83.2187 106.542 83.432V83.592C106.542 83.8053 106.435 83.912 106.222 83.912H104.302V89.16C104.302 89.5547 104.376 89.832 104.526 89.992C104.675 90.152 104.931 90.232 105.294 90.232C105.55 90.232 105.843 90.1947 106.174 90.12ZM108.897 91.112C108.673 91.112 108.481 91.032 108.321 90.872C108.161 90.712 108.081 90.52 108.081 90.296C108.081 90.072 108.161 89.88 108.321 89.72C108.481 89.56 108.673 89.48 108.897 89.48C109.121 89.48 109.313 89.56 109.473 89.72C109.633 89.88 109.713 90.072 109.713 90.296C109.713 90.52 109.633 90.712 109.473 90.872C109.313 91.032 109.121 91.112 108.897 91.112ZM112.001 91.112C111.777 91.112 111.585 91.032 111.425 90.872C111.265 90.712 111.185 90.52 111.185 90.296C111.185 90.072 111.265 89.88 111.425 89.72C111.585 89.56 111.777 89.48 112.001 89.48C112.215 89.48 112.401 89.56 112.561 89.72C112.732 89.88 112.817 90.072 112.817 90.296C112.817 90.52 112.732 90.712 112.561 90.872C112.401 91.032 112.215 91.112 112.001 91.112ZM115.105 91.112C114.871 91.112 114.673 91.032 114.513 90.872C114.353 90.712 114.273 90.52 114.273 90.296C114.273 90.072 114.353 89.88 114.513 89.72C114.673 89.56 114.871 89.48 115.105 89.48C115.319 89.48 115.505 89.56 115.665 89.72C115.825 89.88 115.905 90.072 115.905 90.296C115.905 90.52 115.825 90.712 115.665 90.872C115.505 91.032 115.319 91.112 115.105 91.112Z" fill="#C3CCD9"/>
<path d="M74 63H269V61H74V63ZM272 66V106H274V66H272ZM269 109H74V111H269V109ZM71 106V66H69V106H71ZM74 109C72.3431 109 71 107.657 71 106H69C69 108.761 71.2386 111 74 111V109ZM272 106C272 107.657 270.657 109 269 109V111C271.761 111 274 108.761 274 106H272ZM269 63C270.657 63 272 64.3431 272 66H274C274 63.2386 271.761 61 269 61V63ZM74 61C71.2386 61 69 63.2386 69 66H71C71 64.3431 72.3431 63 74 63V61Z" fill="#C3CCD9"/>
</svg>
