<svg width="344" height="280" viewBox="0 0 344 280" fill="none" xmlns="http://www.w3.org/2000/svg">
<path d="M76.348 54.224C75.3587 54.224 74.5 54 73.772 53.552C73.0533 53.104 72.498 52.488 72.106 51.704C71.7233 50.9107 71.532 50.0147 71.532 49.016C71.532 48.0173 71.7233 47.1307 72.106 46.356C72.4887 45.572 73.044 44.956 73.772 44.508C74.5 44.06 75.3727 43.836 76.39 43.836C77.006 43.836 77.566 43.9247 78.07 44.102C78.574 44.27 79.0827 44.5547 79.596 44.956C79.736 45.068 79.806 45.194 79.806 45.334C79.806 45.4273 79.7593 45.5347 79.666 45.656L79.358 46.02C79.246 46.1507 79.1293 46.216 79.008 46.216C78.9147 46.216 78.798 46.1693 78.658 46.076C78.238 45.7493 77.8507 45.5253 77.496 45.404C77.1507 45.2827 76.7773 45.222 76.376 45.222C75.7227 45.222 75.1533 45.3807 74.668 45.698C74.1827 46.0153 73.8093 46.4633 73.548 47.042C73.2867 47.6113 73.156 48.2693 73.156 49.016C73.156 49.7627 73.2867 50.4253 73.548 51.004C73.8093 51.5827 74.178 52.0353 74.654 52.362C75.13 52.6793 75.6853 52.838 76.32 52.838C76.796 52.838 77.2207 52.754 77.594 52.586C77.9673 52.418 78.3733 52.1473 78.812 51.774C78.9333 51.6713 79.05 51.62 79.162 51.62C79.2833 51.62 79.4 51.6853 79.512 51.816L79.82 52.166C79.9133 52.2687 79.96 52.376 79.96 52.488C79.96 52.6467 79.8853 52.7867 79.736 52.908C79.1947 53.3747 78.658 53.7107 78.126 53.916C77.6033 54.1213 77.0107 54.224 76.348 54.224ZM84.3409 47.028C84.5462 47.028 84.7562 47.0513 84.9709 47.098C85.2229 47.154 85.3489 47.3033 85.3489 47.546C85.3489 47.6113 85.3442 47.658 85.3349 47.686L85.2649 48.022C85.2089 48.2833 85.0689 48.414 84.8449 48.414L84.7189 48.4C84.5509 48.372 84.4016 48.358 84.2709 48.358C83.8042 48.358 83.4262 48.5447 83.1369 48.918C82.8569 49.282 82.7169 49.7907 82.7169 50.444V53.51C82.7169 53.6593 82.6749 53.7807 82.5909 53.874C82.5069 53.958 82.3856 54 82.2269 54H81.7229C81.5736 54 81.4522 53.958 81.3589 53.874C81.2749 53.7807 81.2329 53.6593 81.2329 53.51V47.588C81.2329 47.4293 81.2749 47.308 81.3589 47.224C81.4522 47.14 81.5736 47.098 81.7229 47.098H82.1289C82.2876 47.098 82.4089 47.14 82.4929 47.224C82.5769 47.308 82.6189 47.4293 82.6189 47.588V48.134C82.7869 47.7887 83.0156 47.518 83.3049 47.322C83.5942 47.126 83.9396 47.028 84.3409 47.028ZM91.0421 52.236C91.1634 52.1333 91.2801 52.082 91.3921 52.082C91.5041 52.082 91.6208 52.1427 91.7421 52.264L91.9381 52.474C92.0408 52.5953 92.0921 52.712 92.0921 52.824C92.0921 52.9453 92.0314 53.062 91.9101 53.174C91.4808 53.5473 91.0514 53.8133 90.6221 53.972C90.2021 54.1307 89.7354 54.21 89.2221 54.21C88.5034 54.21 87.8781 54.0607 87.3461 53.762C86.8234 53.4633 86.4174 53.0433 86.1281 52.502C85.8481 51.9513 85.7081 51.3167 85.7081 50.598C85.7081 49.8887 85.8434 49.254 86.1141 48.694C86.3941 48.1247 86.7861 47.6813 87.2901 47.364C87.8034 47.0467 88.4008 46.888 89.0821 46.888C90.0994 46.888 90.8834 47.1913 91.4341 47.798C91.9848 48.3953 92.2601 49.2213 92.2601 50.276V50.402C92.2508 50.5513 92.2041 50.668 92.1201 50.752C92.0361 50.836 91.9148 50.878 91.7561 50.878H87.1641C87.2201 51.494 87.4208 51.998 87.7661 52.39C88.1208 52.7727 88.6154 52.964 89.2501 52.964C89.5954 52.964 89.8988 52.9127 90.1601 52.81C90.4214 52.698 90.7154 52.5067 91.0421 52.236ZM89.0541 48.064C88.5408 48.064 88.1254 48.218 87.8081 48.526C87.5001 48.8247 87.2994 49.2493 87.2061 49.8H90.8041C90.7668 49.2587 90.5988 48.834 90.3001 48.526C90.0014 48.218 89.5861 48.064 89.0541 48.064ZM98.505 44.536C98.505 44.3773 98.547 44.256 98.631 44.172C98.7243 44.088 98.8456 44.046 98.995 44.046H99.499C99.6576 44.046 99.779 44.088 99.863 44.172C99.947 44.256 99.989 44.3773 99.989 44.536V53.51C99.989 53.6593 99.947 53.7807 99.863 53.874C99.779 53.958 99.6576 54 99.499 54H99.093C98.9436 54 98.8223 53.958 98.729 53.874C98.645 53.7807 98.603 53.6593 98.603 53.51V53.02C98.1176 53.804 97.357 54.196 96.321 54.196C95.7423 54.196 95.2196 54.0467 94.753 53.748C94.2956 53.4493 93.9363 53.0247 93.675 52.474C93.4136 51.9233 93.283 51.284 93.283 50.556C93.283 49.8373 93.4136 49.2027 93.675 48.652C93.9456 48.1013 94.3143 47.6767 94.781 47.378C95.2476 47.0793 95.7703 46.93 96.349 46.93C97.301 46.93 98.0196 47.2613 98.505 47.924V44.536ZM96.629 52.922C97.1983 52.922 97.665 52.712 98.029 52.292C98.393 51.8627 98.575 51.284 98.575 50.556C98.575 49.828 98.393 49.254 98.029 48.834C97.665 48.414 97.1983 48.204 96.629 48.204C96.0783 48.204 95.635 48.4187 95.299 48.848C94.963 49.2773 94.795 49.8467 94.795 50.556C94.795 51.2747 94.9583 51.8487 95.285 52.278C95.621 52.7073 96.069 52.922 96.629 52.922ZM102.469 45.754C102.199 45.754 101.97 45.6653 101.783 45.488C101.597 45.3013 101.503 45.082 101.503 44.83C101.503 44.5687 101.597 44.3493 101.783 44.172C101.97 43.9947 102.199 43.906 102.469 43.906C102.74 43.906 102.969 43.9947 103.155 44.172C103.342 44.3493 103.435 44.5687 103.435 44.83C103.435 45.082 103.342 45.3013 103.155 45.488C102.969 45.6653 102.74 45.754 102.469 45.754ZM102.203 54C102.054 54 101.933 53.958 101.839 53.874C101.755 53.7807 101.713 53.6593 101.713 53.51V47.588C101.713 47.4293 101.755 47.308 101.839 47.224C101.933 47.14 102.054 47.098 102.203 47.098H102.707C102.866 47.098 102.987 47.14 103.071 47.224C103.155 47.308 103.197 47.4293 103.197 47.588V53.51C103.197 53.6593 103.155 53.7807 103.071 53.874C102.987 53.958 102.866 54 102.707 54H102.203ZM108.245 52.824C108.273 52.8147 108.315 52.81 108.371 52.81C108.604 52.81 108.744 52.9453 108.791 53.216L108.833 53.44C108.842 53.468 108.847 53.5147 108.847 53.58C108.847 53.8133 108.716 53.9627 108.455 54.028C108.081 54.112 107.741 54.154 107.433 54.154C106.77 54.154 106.289 54 105.991 53.692C105.701 53.384 105.557 52.922 105.557 52.306V48.232H104.787C104.637 48.232 104.516 48.19 104.423 48.106C104.339 48.0127 104.297 47.8913 104.297 47.742V47.588C104.297 47.4293 104.339 47.308 104.423 47.224C104.516 47.14 104.637 47.098 104.787 47.098H105.557V45.362C105.557 45.2033 105.599 45.082 105.683 44.998C105.776 44.914 105.897 44.872 106.047 44.872H106.551C106.709 44.872 106.831 44.914 106.915 44.998C106.999 45.082 107.041 45.2033 107.041 45.362V47.098H108.301C108.459 47.098 108.581 47.14 108.665 47.224C108.749 47.308 108.791 47.4293 108.791 47.588V47.742C108.791 47.8913 108.749 48.0127 108.665 48.106C108.581 48.19 108.459 48.232 108.301 48.232H107.041V52.124C107.041 52.3947 107.097 52.586 107.209 52.698C107.33 52.81 107.521 52.866 107.783 52.866C107.895 52.866 108.049 52.852 108.245 52.824ZM116.181 54.21C115.5 54.21 114.898 54.0607 114.375 53.762C113.862 53.4633 113.46 53.0387 113.171 52.488C112.891 51.928 112.751 51.2793 112.751 50.542C112.751 49.8047 112.896 49.1607 113.185 48.61C113.474 48.0593 113.88 47.6347 114.403 47.336C114.926 47.0373 115.528 46.888 116.209 46.888C116.704 46.888 117.147 46.9627 117.539 47.112C117.94 47.252 118.323 47.4947 118.687 47.84C118.799 47.952 118.855 48.0687 118.855 48.19C118.855 48.302 118.794 48.4187 118.673 48.54L118.435 48.778C118.332 48.8807 118.22 48.932 118.099 48.932C117.978 48.932 117.852 48.876 117.721 48.764C117.45 48.5307 117.194 48.372 116.951 48.288C116.718 48.1947 116.466 48.148 116.195 48.148C115.579 48.148 115.103 48.3767 114.767 48.834C114.431 49.2913 114.263 49.8607 114.263 50.542C114.263 51.2233 114.431 51.7973 114.767 52.264C115.103 52.7213 115.579 52.95 116.195 52.95C116.494 52.95 116.769 52.894 117.021 52.782C117.273 52.6607 117.544 52.46 117.833 52.18C117.954 52.0587 118.08 51.998 118.211 51.998C118.323 51.998 118.43 52.0447 118.533 52.138L118.771 52.334C118.892 52.4367 118.953 52.5533 118.953 52.684C118.953 52.824 118.883 52.9733 118.743 53.132C118.36 53.524 117.964 53.804 117.553 53.972C117.152 54.1307 116.694 54.21 116.181 54.21ZM123.219 46.888C124.152 46.888 124.871 47.1073 125.375 47.546C125.879 47.9753 126.131 48.5493 126.131 49.268V53.51C126.131 53.6593 126.089 53.7807 126.005 53.874C125.921 53.958 125.8 54 125.641 54H125.277C125.128 54 125.006 53.958 124.913 53.874C124.829 53.7807 124.787 53.6593 124.787 53.51V53.202C124.563 53.5287 124.255 53.7807 123.863 53.958C123.471 54.1353 123.014 54.224 122.491 54.224C121.772 54.224 121.18 54.0653 120.713 53.748C120.256 53.4213 120.027 52.9313 120.027 52.278C120.027 51.55 120.298 51.0133 120.839 50.668C121.39 50.3133 122.15 50.0473 123.121 49.87L124.703 49.576V49.324C124.703 48.9413 124.568 48.6473 124.297 48.442C124.036 48.2273 123.686 48.12 123.247 48.12C122.874 48.12 122.547 48.1853 122.267 48.316C121.996 48.4373 121.702 48.6427 121.385 48.932C121.264 49.0347 121.147 49.086 121.035 49.086C120.923 49.086 120.806 49.0347 120.685 48.932L120.461 48.736C120.34 48.624 120.279 48.5027 120.279 48.372C120.279 48.2507 120.335 48.134 120.447 48.022C120.848 47.6393 121.273 47.3547 121.721 47.168C122.169 46.9813 122.668 46.888 123.219 46.888ZM122.701 53.034C123.261 53.034 123.732 52.8847 124.115 52.586C124.507 52.2873 124.703 51.858 124.703 51.298V50.654L123.485 50.906C122.804 51.046 122.3 51.2047 121.973 51.382C121.646 51.5593 121.483 51.83 121.483 52.194C121.483 52.4553 121.59 52.6607 121.805 52.81C122.02 52.9593 122.318 53.034 122.701 53.034ZM130.935 47.028C131.14 47.028 131.35 47.0513 131.565 47.098C131.817 47.154 131.943 47.3033 131.943 47.546C131.943 47.6113 131.938 47.658 131.929 47.686L131.859 48.022C131.803 48.2833 131.663 48.414 131.439 48.414L131.313 48.4C131.145 48.372 130.995 48.358 130.865 48.358C130.398 48.358 130.02 48.5447 129.731 48.918C129.451 49.282 129.311 49.7907 129.311 50.444V53.51C129.311 53.6593 129.269 53.7807 129.185 53.874C129.101 53.958 128.979 54 128.821 54H128.317C128.167 54 128.046 53.958 127.953 53.874C127.869 53.7807 127.827 53.6593 127.827 53.51V47.588C127.827 47.4293 127.869 47.308 127.953 47.224C128.046 47.14 128.167 47.098 128.317 47.098H128.723C128.881 47.098 129.003 47.14 129.087 47.224C129.171 47.308 129.213 47.4293 129.213 47.588V48.134C129.381 47.7887 129.609 47.518 129.899 47.322C130.188 47.126 130.533 47.028 130.935 47.028ZM137.552 44.536C137.552 44.3773 137.594 44.256 137.678 44.172C137.771 44.088 137.893 44.046 138.042 44.046H138.546C138.705 44.046 138.826 44.088 138.91 44.172C138.994 44.256 139.036 44.3773 139.036 44.536V53.51C139.036 53.6593 138.994 53.7807 138.91 53.874C138.826 53.958 138.705 54 138.546 54H138.14C137.991 54 137.869 53.958 137.776 53.874C137.692 53.7807 137.65 53.6593 137.65 53.51V53.02C137.165 53.804 136.404 54.196 135.368 54.196C134.789 54.196 134.267 54.0467 133.8 53.748C133.343 53.4493 132.983 53.0247 132.722 52.474C132.461 51.9233 132.33 51.284 132.33 50.556C132.33 49.8373 132.461 49.2027 132.722 48.652C132.993 48.1013 133.361 47.6767 133.828 47.378C134.295 47.0793 134.817 46.93 135.396 46.93C136.348 46.93 137.067 47.2613 137.552 47.924V44.536ZM135.676 52.922C136.245 52.922 136.712 52.712 137.076 52.292C137.44 51.8627 137.622 51.284 137.622 50.556C137.622 49.828 137.44 49.254 137.076 48.834C136.712 48.414 136.245 48.204 135.676 48.204C135.125 48.204 134.682 48.4187 134.346 48.848C134.01 49.2773 133.842 49.8467 133.842 50.556C133.842 51.2747 134.005 51.8487 134.332 52.278C134.668 52.7073 135.116 52.922 135.676 52.922Z" fill="#D9270A"/>
<path d="M71 66C71 63.7909 72.7909 62 75 62H270C272.209 62 274 63.7909 274 66V106C274 108.209 272.209 110 270 110H75C72.7909 110 71 108.209 71 106V66Z" fill="white"/>
<path d="M75 63H270V61H75V63ZM273 66V106H275V66H273ZM270 109H75V111H270V109ZM72 106V66H70V106H72ZM75 109C73.3431 109 72 107.657 72 106H70C70 108.761 72.2386 111 75 111V109ZM273 106C273 107.657 271.657 109 270 109V111C272.761 111 275 108.761 275 106H273ZM270 63C271.657 63 273 64.3431 273 66H275C275 63.2386 272.761 61 270 61V63ZM75 61C72.2386 61 70 63.2386 70 66H72C72 64.3431 73.3431 63 75 63V61Z" fill="#D9270A"/>
<path d="M72.356 126C72.196 126 72.116 125.92 72.116 125.76V117.72C72.116 117.56 72.196 117.48 72.356 117.48H72.728C72.888 117.48 72.968 117.56 72.968 117.72V125.76C72.968 125.92 72.888 126 72.728 126H72.356ZM77.61 119.94C78.306 119.94 78.83 120.132 79.182 120.516C79.542 120.9 79.722 121.38 79.722 121.956V125.76C79.722 125.92 79.642 126 79.482 126H79.17C79.01 126 78.93 125.92 78.93 125.76V122.22C78.93 121.692 78.802 121.292 78.546 121.02C78.29 120.748 77.922 120.612 77.442 120.612C77.138 120.612 76.858 120.688 76.602 120.84C76.346 120.984 76.142 121.184 75.99 121.44C75.838 121.696 75.762 121.976 75.762 122.28V125.76C75.762 125.92 75.682 126 75.522 126H75.21C75.05 126 74.97 125.92 74.97 125.76V120.324C74.97 120.164 75.05 120.084 75.21 120.084H75.474C75.634 120.084 75.714 120.164 75.714 120.324V120.9C75.914 120.58 76.178 120.34 76.506 120.18C76.834 120.02 77.202 119.94 77.61 119.94ZM84.993 120.276C85.041 120.148 85.133 120.084 85.269 120.084H85.581C85.645 120.084 85.697 120.1 85.737 120.132C85.777 120.164 85.797 120.208 85.797 120.264L85.773 120.36L83.865 125.808C83.817 125.936 83.725 126 83.589 126H82.953C82.817 126 82.725 125.936 82.677 125.808L80.781 120.36L80.757 120.264C80.757 120.208 80.777 120.164 80.817 120.132C80.857 120.1 80.909 120.084 80.973 120.084H81.297C81.433 120.084 81.525 120.148 81.573 120.276L82.305 122.388C82.609 123.268 82.933 124.28 83.277 125.424C83.293 125.376 83.337 125.24 83.409 125.016C83.737 123.936 84.021 123.06 84.261 122.388L84.993 120.276ZM89.1914 119.94C89.9194 119.94 90.4874 120.116 90.8954 120.468C91.3034 120.812 91.5074 121.268 91.5074 121.836V125.76C91.5074 125.92 91.4274 126 91.2674 126H91.0274C90.8674 126 90.7874 125.92 90.7874 125.76V125.22C90.5874 125.54 90.3034 125.78 89.9354 125.94C89.5754 126.1 89.1714 126.18 88.7234 126.18C88.0994 126.18 87.5914 126.048 87.1994 125.784C86.8074 125.52 86.6114 125.112 86.6114 124.56C86.6114 124.12 86.7354 123.768 86.9834 123.504C87.2314 123.232 87.5554 123.028 87.9554 122.892C88.3554 122.748 88.8554 122.62 89.4554 122.508L90.7514 122.28V121.896C90.7514 121.488 90.6114 121.172 90.3314 120.948C90.0514 120.716 89.6834 120.6 89.2274 120.6C88.8834 120.6 88.5714 120.664 88.2914 120.792C88.0114 120.92 87.7114 121.14 87.3914 121.452C87.3354 121.508 87.2754 121.536 87.2114 121.536C87.1554 121.536 87.1034 121.512 87.0554 121.464L86.8994 121.32C86.8434 121.264 86.8154 121.204 86.8154 121.14C86.8154 121.068 86.8434 121.004 86.8994 120.948C87.2354 120.596 87.5874 120.34 87.9554 120.18C88.3314 120.02 88.7434 119.94 89.1914 119.94ZM88.7594 125.52C89.3354 125.52 89.8114 125.368 90.1874 125.064C90.5634 124.76 90.7514 124.372 90.7514 123.9V122.892L89.6354 123.108C89.1154 123.212 88.7034 123.312 88.3994 123.408C88.0954 123.504 87.8514 123.644 87.6674 123.828C87.4834 124.012 87.3914 124.252 87.3914 124.548C87.3914 124.852 87.5114 125.092 87.7514 125.268C87.9994 125.436 88.3354 125.52 88.7594 125.52ZM93.515 126C93.355 126 93.275 125.92 93.275 125.76V117.72C93.275 117.56 93.355 117.48 93.515 117.48H93.827C93.987 117.48 94.067 117.56 94.067 117.72V125.76C94.067 125.92 93.987 126 93.827 126H93.515ZM96.2488 118.584C96.0888 118.584 95.9528 118.528 95.8408 118.416C95.7368 118.304 95.6848 118.168 95.6848 118.008C95.6848 117.848 95.7368 117.716 95.8408 117.612C95.9528 117.508 96.0888 117.456 96.2488 117.456C96.4168 117.456 96.5528 117.508 96.6568 117.612C96.7688 117.716 96.8248 117.848 96.8248 118.008C96.8248 118.168 96.7688 118.304 96.6568 118.416C96.5528 118.528 96.4168 118.584 96.2488 118.584ZM96.0928 126C95.9328 126 95.8528 125.92 95.8528 125.76V120.324C95.8528 120.164 95.9328 120.084 96.0928 120.084H96.4048C96.5648 120.084 96.6448 120.164 96.6448 120.324V125.76C96.6448 125.92 96.5648 126 96.4048 126H96.0928ZM102.68 117.72C102.68 117.56 102.76 117.48 102.92 117.48H103.232C103.392 117.48 103.472 117.56 103.472 117.72V125.76C103.472 125.92 103.392 126 103.232 126H102.98C102.82 126 102.74 125.92 102.74 125.76V124.98C102.524 125.356 102.24 125.644 101.888 125.844C101.536 126.044 101.12 126.144 100.64 126.144C100.136 126.144 99.6875 126.016 99.2955 125.76C98.9035 125.496 98.5955 125.132 98.3715 124.668C98.1475 124.196 98.0355 123.656 98.0355 123.048C98.0355 122.44 98.1475 121.904 98.3715 121.44C98.6035 120.968 98.9195 120.604 99.3195 120.348C99.7195 120.084 100.168 119.952 100.664 119.952C101.576 119.952 102.248 120.292 102.68 120.972V117.72ZM100.7 125.472C101.3 125.472 101.784 125.26 102.152 124.836C102.528 124.404 102.716 123.808 102.716 123.048C102.716 122.296 102.528 121.704 102.152 121.272C101.784 120.84 101.3 120.624 100.7 120.624C100.148 120.624 99.6995 120.848 99.3555 121.296C99.0195 121.744 98.8515 122.328 98.8515 123.048C98.8515 123.776 99.0195 124.364 99.3555 124.812C99.6915 125.252 100.14 125.472 100.7 125.472ZM110.273 117.996C109.913 117.996 109.657 118.092 109.505 118.284C109.353 118.468 109.277 118.78 109.277 119.22V120.084H110.597C110.757 120.084 110.837 120.164 110.837 120.324V120.444C110.837 120.604 110.757 120.684 110.597 120.684H109.277V125.76C109.277 125.92 109.197 126 109.037 126H108.725C108.565 126 108.485 125.92 108.485 125.76V120.684H107.597C107.437 120.684 107.357 120.604 107.357 120.444V120.324C107.357 120.164 107.437 120.084 107.597 120.084H108.485V119.088C108.485 118.536 108.629 118.104 108.917 117.792C109.213 117.48 109.633 117.324 110.177 117.324C110.481 117.324 110.793 117.368 111.113 117.456C111.265 117.504 111.321 117.604 111.281 117.756L111.233 117.924C111.193 118.036 111.113 118.092 110.993 118.092C110.969 118.092 110.917 118.084 110.837 118.068C110.661 118.02 110.473 117.996 110.273 117.996ZM112.397 118.584C112.237 118.584 112.101 118.528 111.989 118.416C111.885 118.304 111.833 118.168 111.833 118.008C111.833 117.848 111.885 117.716 111.989 117.612C112.101 117.508 112.237 117.456 112.397 117.456C112.565 117.456 112.701 117.508 112.805 117.612C112.917 117.716 112.973 117.848 112.973 118.008C112.973 118.168 112.917 118.304 112.805 118.416C112.701 118.528 112.565 118.584 112.397 118.584ZM112.241 126C112.081 126 112.001 125.92 112.001 125.76V120.324C112.001 120.164 112.081 120.084 112.241 120.084H112.553C112.713 120.084 112.793 120.164 112.793 120.324V125.76C112.793 125.92 112.713 126 112.553 126H112.241ZM118.864 124.596C118.92 124.54 118.98 124.512 119.044 124.512C119.1 124.512 119.152 124.536 119.2 124.584L119.356 124.728C119.412 124.784 119.44 124.844 119.44 124.908C119.44 124.956 119.416 125.012 119.368 125.076C118.976 125.468 118.596 125.748 118.228 125.916C117.86 126.076 117.448 126.156 116.992 126.156C116.416 126.156 115.916 126.028 115.492 125.772C115.068 125.516 114.74 125.16 114.508 124.704C114.276 124.24 114.16 123.704 114.16 123.096C114.16 122.48 114.272 121.936 114.496 121.464C114.728 120.984 115.052 120.612 115.468 120.348C115.884 120.076 116.364 119.94 116.908 119.94C117.716 119.94 118.352 120.192 118.816 120.696C119.28 121.2 119.512 121.88 119.512 122.736V122.88C119.504 122.952 119.476 123.008 119.428 123.048C119.388 123.088 119.332 123.108 119.26 123.108H114.964C114.988 123.78 115.164 124.348 115.492 124.812C115.828 125.268 116.328 125.496 116.992 125.496C117.352 125.496 117.668 125.432 117.94 125.304C118.22 125.168 118.528 124.932 118.864 124.596ZM116.908 120.6C116.38 120.6 115.944 120.764 115.6 121.092C115.264 121.412 115.06 121.884 114.988 122.508H118.72C118.704 121.924 118.536 121.46 118.216 121.116C117.896 120.772 117.46 120.6 116.908 120.6ZM121.183 126C121.023 126 120.943 125.92 120.943 125.76V117.72C120.943 117.56 121.023 117.48 121.183 117.48H121.495C121.655 117.48 121.735 117.56 121.735 117.72V125.76C121.735 125.92 121.655 126 121.495 126H121.183ZM127.793 117.72C127.793 117.56 127.873 117.48 128.033 117.48H128.345C128.505 117.48 128.585 117.56 128.585 117.72V125.76C128.585 125.92 128.505 126 128.345 126H128.093C127.933 126 127.853 125.92 127.853 125.76V124.98C127.637 125.356 127.353 125.644 127.001 125.844C126.649 126.044 126.233 126.144 125.753 126.144C125.249 126.144 124.801 126.016 124.409 125.76C124.017 125.496 123.709 125.132 123.485 124.668C123.261 124.196 123.149 123.656 123.149 123.048C123.149 122.44 123.261 121.904 123.485 121.44C123.717 120.968 124.033 120.604 124.433 120.348C124.833 120.084 125.281 119.952 125.777 119.952C126.689 119.952 127.361 120.292 127.793 120.972V117.72ZM125.813 125.472C126.413 125.472 126.897 125.26 127.265 124.836C127.641 124.404 127.829 123.808 127.829 123.048C127.829 122.296 127.641 121.704 127.265 121.272C126.897 120.84 126.413 120.624 125.813 120.624C125.261 120.624 124.813 120.848 124.469 121.296C124.133 121.744 123.965 122.328 123.965 123.048C123.965 123.776 124.133 124.364 124.469 124.812C124.805 125.252 125.253 125.472 125.813 125.472Z" fill="#D9270A"/>
<path d="M72.568 164C72.4187 164 72.2973 163.958 72.204 163.874C72.12 163.781 72.078 163.659 72.078 163.51V154.55C72.078 154.391 72.12 154.27 72.204 154.186C72.2973 154.102 72.4187 154.06 72.568 154.06H76.586C77.5753 154.06 78.364 154.335 78.952 154.886C79.54 155.427 79.834 156.169 79.834 157.112C79.834 158.055 79.54 158.797 78.952 159.338C78.364 159.879 77.5753 160.15 76.586 160.15H73.674V163.51C73.674 163.659 73.632 163.781 73.548 163.874C73.464 163.958 73.3427 164 73.184 164H72.568ZM76.334 158.82C76.9313 158.82 77.398 158.675 77.734 158.386C78.0793 158.087 78.252 157.663 78.252 157.112C78.252 156.552 78.0793 156.127 77.734 155.838C77.398 155.539 76.9313 155.39 76.334 155.39H73.674V158.82H76.334ZM83.8851 156.888C84.8185 156.888 85.5371 157.107 86.0411 157.546C86.5451 157.975 86.7971 158.549 86.7971 159.268V163.51C86.7971 163.659 86.7551 163.781 86.6711 163.874C86.5871 163.958 86.4658 164 86.3071 164H85.9431C85.7938 164 85.6725 163.958 85.5791 163.874C85.4951 163.781 85.4531 163.659 85.4531 163.51V163.202C85.2291 163.529 84.9211 163.781 84.5291 163.958C84.1371 164.135 83.6798 164.224 83.1571 164.224C82.4385 164.224 81.8458 164.065 81.3791 163.748C80.9218 163.421 80.6931 162.931 80.6931 162.278C80.6931 161.55 80.9638 161.013 81.5051 160.668C82.0558 160.313 82.8165 160.047 83.7871 159.87L85.3691 159.576V159.324C85.3691 158.941 85.2338 158.647 84.9631 158.442C84.7018 158.227 84.3518 158.12 83.9131 158.12C83.5398 158.12 83.2131 158.185 82.9331 158.316C82.6625 158.437 82.3685 158.643 82.0511 158.932C81.9298 159.035 81.8131 159.086 81.7011 159.086C81.5891 159.086 81.4725 159.035 81.3511 158.932L81.1271 158.736C81.0058 158.624 80.9451 158.503 80.9451 158.372C80.9451 158.251 81.0011 158.134 81.1131 158.022C81.5145 157.639 81.9391 157.355 82.3871 157.168C82.8351 156.981 83.3345 156.888 83.8851 156.888ZM83.3671 163.034C83.9271 163.034 84.3985 162.885 84.7811 162.586C85.1731 162.287 85.3691 161.858 85.3691 161.298V160.654L84.1511 160.906C83.4698 161.046 82.9658 161.205 82.6391 161.382C82.3125 161.559 82.1491 161.83 82.1491 162.194C82.1491 162.455 82.2565 162.661 82.4711 162.81C82.6858 162.959 82.9845 163.034 83.3671 163.034ZM91.1527 164.21C90.5833 164.21 90.0747 164.14 89.6267 164C89.188 163.851 88.74 163.594 88.2827 163.23C88.1427 163.127 88.0727 163.011 88.0727 162.88C88.0727 162.777 88.124 162.665 88.2267 162.544L88.4367 162.306C88.5487 162.175 88.67 162.11 88.8007 162.11C88.9033 162.11 89.0153 162.157 89.1367 162.25C89.5287 162.539 89.874 162.74 90.1727 162.852C90.4713 162.955 90.8073 163.006 91.1807 163.006C91.582 163.006 91.9087 162.927 92.1607 162.768C92.422 162.6 92.5527 162.376 92.5527 162.096C92.5527 161.881 92.478 161.713 92.3287 161.592C92.1887 161.461 92.002 161.363 91.7687 161.298C91.5353 161.223 91.19 161.139 90.7327 161.046C90.0887 160.906 89.5847 160.757 89.2207 160.598C88.866 160.43 88.6093 160.22 88.4507 159.968C88.292 159.716 88.2127 159.394 88.2127 159.002C88.2127 158.601 88.3247 158.241 88.5487 157.924C88.782 157.607 89.104 157.355 89.5147 157.168C89.9347 156.981 90.4247 156.888 90.9847 156.888C91.4887 156.888 91.9367 156.944 92.3287 157.056C92.73 157.168 93.122 157.359 93.5047 157.63C93.654 157.742 93.7287 157.868 93.7287 158.008C93.7287 158.101 93.682 158.209 93.5887 158.33L93.4067 158.554C93.304 158.685 93.178 158.75 93.0287 158.75C92.9167 158.75 92.8093 158.713 92.7067 158.638C92.3987 158.433 92.114 158.293 91.8527 158.218C91.5913 158.134 91.2973 158.092 90.9707 158.092C90.5693 158.092 90.2473 158.171 90.0047 158.33C89.762 158.489 89.6407 158.694 89.6407 158.946C89.6407 159.114 89.6967 159.249 89.8087 159.352C89.93 159.445 90.098 159.529 90.3127 159.604C90.5367 159.669 90.8867 159.753 91.3627 159.856C92.0067 159.996 92.5153 160.155 92.8887 160.332C93.2713 160.5 93.5513 160.719 93.7287 160.99C93.9153 161.251 94.0087 161.592 94.0087 162.012C94.0087 162.665 93.7473 163.197 93.2247 163.608C92.7113 164.009 92.0207 164.21 91.1527 164.21ZM97.9476 164.21C97.3783 164.21 96.8696 164.14 96.4216 164C95.9829 163.851 95.5349 163.594 95.0776 163.23C94.9376 163.127 94.8676 163.011 94.8676 162.88C94.8676 162.777 94.9189 162.665 95.0216 162.544L95.2316 162.306C95.3436 162.175 95.4649 162.11 95.5956 162.11C95.6983 162.11 95.8103 162.157 95.9316 162.25C96.3236 162.539 96.6689 162.74 96.9676 162.852C97.2663 162.955 97.6023 163.006 97.9756 163.006C98.3769 163.006 98.7036 162.927 98.9556 162.768C99.2169 162.6 99.3476 162.376 99.3476 162.096C99.3476 161.881 99.2729 161.713 99.1236 161.592C98.9836 161.461 98.7969 161.363 98.5636 161.298C98.3303 161.223 97.9849 161.139 97.5276 161.046C96.8836 160.906 96.3796 160.757 96.0156 160.598C95.6609 160.43 95.4043 160.22 95.2456 159.968C95.0869 159.716 95.0076 159.394 95.0076 159.002C95.0076 158.601 95.1196 158.241 95.3436 157.924C95.5769 157.607 95.8989 157.355 96.3096 157.168C96.7296 156.981 97.2196 156.888 97.7796 156.888C98.2836 156.888 98.7316 156.944 99.1236 157.056C99.5249 157.168 99.9169 157.359 100.3 157.63C100.449 157.742 100.524 157.868 100.524 158.008C100.524 158.101 100.477 158.209 100.384 158.33L100.202 158.554C100.099 158.685 99.9729 158.75 99.8236 158.75C99.7116 158.75 99.6043 158.713 99.5016 158.638C99.1936 158.433 98.9089 158.293 98.6476 158.218C98.3863 158.134 98.0923 158.092 97.7656 158.092C97.3643 158.092 97.0423 158.171 96.7996 158.33C96.5569 158.489 96.4356 158.694 96.4356 158.946C96.4356 159.114 96.4916 159.249 96.6036 159.352C96.7249 159.445 96.8929 159.529 97.1076 159.604C97.3316 159.669 97.6816 159.753 98.1576 159.856C98.8016 159.996 99.3103 160.155 99.6836 160.332C100.066 160.5 100.346 160.719 100.524 160.99C100.71 161.251 100.804 161.592 100.804 162.012C100.804 162.665 100.542 163.197 100.02 163.608C99.5063 164.009 98.8156 164.21 97.9476 164.21ZM109.825 157.518C109.891 157.238 110.073 157.098 110.371 157.098H110.889C111.029 157.098 111.137 157.131 111.211 157.196C111.295 157.252 111.337 157.341 111.337 157.462C111.337 157.49 111.328 157.551 111.309 157.644L109.643 163.58C109.578 163.86 109.396 164 109.097 164H108.187C107.907 164 107.725 163.86 107.641 163.58L107.179 161.956C106.974 161.237 106.745 160.337 106.493 159.254L106.423 158.946C106.171 160.085 105.929 161.093 105.695 161.97L105.261 163.58C105.196 163.86 105.014 164 104.715 164H103.819C103.539 164 103.357 163.86 103.273 163.58L101.593 157.644C101.575 157.551 101.565 157.49 101.565 157.462C101.565 157.341 101.603 157.252 101.677 157.196C101.761 157.131 101.873 157.098 102.013 157.098H102.559C102.858 157.098 103.04 157.238 103.105 157.518L103.609 159.506C103.805 160.234 104.034 161.205 104.295 162.418L104.351 162.698C104.622 161.447 104.874 160.383 105.107 159.506L105.639 157.518C105.705 157.238 105.887 157.098 106.185 157.098H106.717C107.016 157.098 107.198 157.238 107.263 157.518L107.809 159.506C108.071 160.477 108.332 161.541 108.593 162.698C108.789 161.699 109.032 160.635 109.321 159.506L109.825 157.518ZM115.581 164.21C114.9 164.21 114.293 164.056 113.761 163.748C113.238 163.44 112.828 163.011 112.529 162.46C112.23 161.9 112.081 161.261 112.081 160.542C112.081 159.823 112.23 159.189 112.529 158.638C112.828 158.087 113.238 157.658 113.761 157.35C114.293 157.042 114.9 156.888 115.581 156.888C116.253 156.888 116.855 157.042 117.387 157.35C117.919 157.658 118.334 158.092 118.633 158.652C118.932 159.203 119.081 159.833 119.081 160.542C119.081 161.261 118.932 161.9 118.633 162.46C118.334 163.011 117.919 163.44 117.387 163.748C116.855 164.056 116.253 164.21 115.581 164.21ZM115.581 162.964C116.178 162.964 116.659 162.745 117.023 162.306C117.387 161.858 117.569 161.27 117.569 160.542C117.569 159.823 117.387 159.245 117.023 158.806C116.659 158.367 116.178 158.148 115.581 158.148C114.984 158.148 114.503 158.367 114.139 158.806C113.775 159.245 113.593 159.823 113.593 160.542C113.593 161.27 113.775 161.858 114.139 162.306C114.503 162.745 114.984 162.964 115.581 162.964ZM123.497 157.028C123.702 157.028 123.912 157.051 124.127 157.098C124.379 157.154 124.505 157.303 124.505 157.546C124.505 157.611 124.5 157.658 124.491 157.686L124.421 158.022C124.365 158.283 124.225 158.414 124.001 158.414L123.875 158.4C123.707 158.372 123.558 158.358 123.427 158.358C122.96 158.358 122.582 158.545 122.293 158.918C122.013 159.282 121.873 159.791 121.873 160.444V163.51C121.873 163.659 121.831 163.781 121.747 163.874C121.663 163.958 121.542 164 121.383 164H120.879C120.73 164 120.608 163.958 120.515 163.874C120.431 163.781 120.389 163.659 120.389 163.51V157.588C120.389 157.429 120.431 157.308 120.515 157.224C120.608 157.14 120.73 157.098 120.879 157.098H121.285C121.444 157.098 121.565 157.14 121.649 157.224C121.733 157.308 121.775 157.429 121.775 157.588V158.134C121.943 157.789 122.172 157.518 122.461 157.322C122.75 157.126 123.096 157.028 123.497 157.028ZM130.114 154.536C130.114 154.377 130.156 154.256 130.24 154.172C130.334 154.088 130.455 154.046 130.604 154.046H131.108C131.267 154.046 131.388 154.088 131.472 154.172C131.556 154.256 131.598 154.377 131.598 154.536V163.51C131.598 163.659 131.556 163.781 131.472 163.874C131.388 163.958 131.267 164 131.108 164H130.702C130.553 164 130.432 163.958 130.338 163.874C130.254 163.781 130.212 163.659 130.212 163.51V163.02C129.727 163.804 128.966 164.196 127.93 164.196C127.352 164.196 126.829 164.047 126.362 163.748C125.905 163.449 125.546 163.025 125.284 162.474C125.023 161.923 124.892 161.284 124.892 160.556C124.892 159.837 125.023 159.203 125.284 158.652C125.555 158.101 125.924 157.677 126.39 157.378C126.857 157.079 127.38 156.93 127.958 156.93C128.91 156.93 129.629 157.261 130.114 157.924V154.536ZM128.238 162.922C128.808 162.922 129.274 162.712 129.638 162.292C130.002 161.863 130.184 161.284 130.184 160.556C130.184 159.828 130.002 159.254 129.638 158.834C129.274 158.414 128.808 158.204 128.238 158.204C127.688 158.204 127.244 158.419 126.908 158.848C126.572 159.277 126.404 159.847 126.404 160.556C126.404 161.275 126.568 161.849 126.894 162.278C127.23 162.707 127.678 162.922 128.238 162.922Z" fill="#D9270A"/>
<path d="M71 176C71 173.791 72.7909 172 75 172H270C272.209 172 274 173.791 274 176V216C274 218.209 272.209 220 270 220H75C72.7909 220 71 218.209 71 216V176Z" fill="white"/>
<path d="M75 173H270V171H75V173ZM273 176V216H275V176H273ZM270 219H75V221H270V219ZM72 216V176H70V216H72ZM75 219C73.3431 219 72 217.657 72 216H70C70 218.761 72.2386 221 75 221V219ZM273 216C273 217.657 271.657 219 270 219V221C272.761 221 275 218.761 275 216H273ZM270 173C271.657 173 273 174.343 273 176H275C275 173.239 272.761 171 270 171V173ZM75 171C72.2386 171 70 173.239 70 176H72C72 174.343 73.3431 173 75 173V171Z" fill="#D9270A"/>
<path d="M72.272 236C72.112 236 72.032 235.92 72.032 235.76V227.72C72.032 227.56 72.112 227.48 72.272 227.48H75.5C76.324 227.48 76.988 227.696 77.492 228.128C77.996 228.56 78.248 229.172 78.248 229.964C78.248 230.756 77.996 231.372 77.492 231.812C76.988 232.244 76.324 232.46 75.5 232.46H72.884V235.76C72.884 235.92 72.804 236 72.644 236H72.272ZM75.392 231.752C76.016 231.752 76.508 231.6 76.868 231.296C77.228 230.992 77.408 230.548 77.408 229.964C77.408 229.388 77.228 228.948 76.868 228.644C76.508 228.34 76.016 228.188 75.392 228.188H72.884V231.752H75.392ZM81.5039 229.94C82.2319 229.94 82.7999 230.116 83.2079 230.468C83.6159 230.812 83.8199 231.268 83.8199 231.836V235.76C83.8199 235.92 83.7399 236 83.5799 236H83.3399C83.1799 236 83.0999 235.92 83.0999 235.76V235.22C82.8999 235.54 82.6159 235.78 82.2479 235.94C81.8879 236.1 81.4839 236.18 81.0359 236.18C80.4119 236.18 79.9039 236.048 79.5119 235.784C79.1199 235.52 78.9239 235.112 78.9239 234.56C78.9239 234.12 79.0479 233.768 79.2959 233.504C79.5439 233.232 79.8679 233.028 80.2679 232.892C80.6679 232.748 81.1679 232.62 81.7679 232.508L83.0639 232.28V231.896C83.0639 231.488 82.9239 231.172 82.6439 230.948C82.3639 230.716 81.9959 230.6 81.5399 230.6C81.1959 230.6 80.8839 230.664 80.6039 230.792C80.3239 230.92 80.0239 231.14 79.7039 231.452C79.6479 231.508 79.5879 231.536 79.5239 231.536C79.4679 231.536 79.4159 231.512 79.3679 231.464L79.2119 231.32C79.1559 231.264 79.1279 231.204 79.1279 231.14C79.1279 231.068 79.1559 231.004 79.2119 230.948C79.5479 230.596 79.8999 230.34 80.2679 230.18C80.6439 230.02 81.0559 229.94 81.5039 229.94ZM81.0719 235.52C81.6479 235.52 82.1239 235.368 82.4999 235.064C82.8759 234.76 83.0639 234.372 83.0639 233.9V232.892L81.9479 233.108C81.4279 233.212 81.0159 233.312 80.7119 233.408C80.4079 233.504 80.1639 233.644 79.9799 233.828C79.7959 234.012 79.7039 234.252 79.7039 234.548C79.7039 234.852 79.8239 235.092 80.0639 235.268C80.3119 235.436 80.6479 235.52 81.0719 235.52ZM87.6395 236.156C87.1515 236.156 86.7195 236.088 86.3435 235.952C85.9755 235.808 85.5875 235.568 85.1795 235.232C85.1075 235.184 85.0715 235.128 85.0715 235.064C85.0715 235.008 85.0995 234.952 85.1555 234.896L85.3115 234.728C85.3595 234.664 85.4195 234.632 85.4915 234.632C85.5475 234.632 85.5995 234.656 85.6475 234.704C86.0315 235 86.3715 235.208 86.6675 235.328C86.9635 235.44 87.2875 235.496 87.6395 235.496C88.0795 235.496 88.4395 235.4 88.7195 235.208C88.9995 235.008 89.1395 234.74 89.1395 234.404C89.1395 234.068 88.9955 233.82 88.7075 233.66C88.4195 233.5 87.9755 233.356 87.3755 233.228C86.8475 233.116 86.4315 233 86.1275 232.88C85.8315 232.752 85.6115 232.592 85.4675 232.4C85.3235 232.208 85.2515 231.956 85.2515 231.644C85.2515 231.132 85.4595 230.72 85.8755 230.408C86.2915 230.096 86.8155 229.94 87.4475 229.94C87.8795 229.94 88.2635 229.996 88.5995 230.108C88.9435 230.212 89.2875 230.388 89.6315 230.636C89.7035 230.692 89.7395 230.752 89.7395 230.816C89.7395 230.856 89.7195 230.908 89.6795 230.972L89.5355 231.152C89.4955 231.216 89.4395 231.248 89.3675 231.248C89.3035 231.248 89.2475 231.228 89.1995 231.188C88.8715 230.956 88.5795 230.8 88.3235 230.72C88.0755 230.64 87.7915 230.6 87.4715 230.6C87.0315 230.6 86.6795 230.696 86.4155 230.888C86.1515 231.08 86.0195 231.324 86.0195 231.62C86.0195 231.804 86.0795 231.952 86.1995 232.064C86.3195 232.176 86.4915 232.272 86.7155 232.352C86.9395 232.424 87.2675 232.508 87.6995 232.604C88.4995 232.78 89.0675 232.996 89.4035 233.252C89.7475 233.508 89.9195 233.88 89.9195 234.368C89.9195 234.904 89.7075 235.336 89.2835 235.664C88.8595 235.992 88.3115 236.156 87.6395 236.156ZM93.3231 236.156C92.8351 236.156 92.4031 236.088 92.0271 235.952C91.6591 235.808 91.2711 235.568 90.8631 235.232C90.7911 235.184 90.7551 235.128 90.7551 235.064C90.7551 235.008 90.7831 234.952 90.8391 234.896L90.9951 234.728C91.0431 234.664 91.1031 234.632 91.1751 234.632C91.2311 234.632 91.2831 234.656 91.3311 234.704C91.7151 235 92.0551 235.208 92.3511 235.328C92.6471 235.44 92.9711 235.496 93.3231 235.496C93.7631 235.496 94.1231 235.4 94.4031 235.208C94.6831 235.008 94.8231 234.74 94.8231 234.404C94.8231 234.068 94.6791 233.82 94.3911 233.66C94.1031 233.5 93.6591 233.356 93.0591 233.228C92.5311 233.116 92.1151 233 91.8111 232.88C91.5151 232.752 91.2951 232.592 91.1511 232.4C91.0071 232.208 90.9351 231.956 90.9351 231.644C90.9351 231.132 91.1431 230.72 91.5591 230.408C91.9751 230.096 92.4991 229.94 93.1311 229.94C93.5631 229.94 93.9471 229.996 94.2831 230.108C94.6271 230.212 94.9711 230.388 95.3151 230.636C95.3871 230.692 95.4231 230.752 95.4231 230.816C95.4231 230.856 95.4031 230.908 95.3631 230.972L95.2191 231.152C95.1791 231.216 95.1231 231.248 95.0511 231.248C94.9871 231.248 94.9311 231.228 94.8831 231.188C94.5551 230.956 94.2631 230.8 94.0071 230.72C93.7591 230.64 93.4751 230.6 93.1551 230.6C92.7151 230.6 92.3631 230.696 92.0991 230.888C91.8351 231.08 91.7031 231.324 91.7031 231.62C91.7031 231.804 91.7631 231.952 91.8831 232.064C92.0031 232.176 92.1751 232.272 92.3991 232.352C92.6231 232.424 92.9511 232.508 93.3831 232.604C94.1831 232.78 94.7511 232.996 95.0871 233.252C95.4311 233.508 95.6031 233.88 95.6031 234.368C95.6031 234.904 95.3911 235.336 94.9671 235.664C94.5431 235.992 93.9951 236.156 93.3231 236.156ZM103.496 230.288C103.528 230.152 103.62 230.084 103.772 230.084H104.096C104.184 230.084 104.244 230.108 104.276 230.156C104.316 230.204 104.324 230.268 104.3 230.348L102.752 235.796C102.72 235.932 102.628 236 102.476 236H101.936C101.8 236 101.712 235.932 101.672 235.796L101.12 233.96C100.832 233 100.564 232.016 100.316 231.008C100.076 231.984 99.8118 232.976 99.5238 233.984L98.9958 235.796C98.9638 235.932 98.8718 236 98.7198 236H98.2038C98.0518 236 97.9598 235.932 97.9278 235.796L96.3798 230.348C96.3718 230.332 96.3678 230.304 96.3678 230.264C96.3678 230.208 96.3878 230.164 96.4278 230.132C96.4678 230.1 96.5198 230.084 96.5838 230.084H96.9078C97.0598 230.084 97.1518 230.152 97.1838 230.288L97.7598 232.412C98.0238 233.38 98.2678 234.344 98.4918 235.304C98.6678 234.592 98.9278 233.628 99.2718 232.412L99.8838 230.288C99.9158 230.152 100.008 230.084 100.16 230.084H100.52C100.664 230.084 100.752 230.152 100.784 230.288L101.408 232.412C101.68 233.396 101.936 234.364 102.176 235.316C102.36 234.516 102.608 233.548 102.92 232.412L103.496 230.288ZM107.91 236.156C107.358 236.156 106.866 236.024 106.434 235.76C106.002 235.496 105.666 235.132 105.426 234.668C105.186 234.196 105.066 233.656 105.066 233.048C105.066 232.44 105.186 231.904 105.426 231.44C105.666 230.968 106.002 230.6 106.434 230.336C106.866 230.072 107.358 229.94 107.91 229.94C108.462 229.94 108.954 230.072 109.386 230.336C109.818 230.6 110.154 230.968 110.394 231.44C110.634 231.904 110.754 232.44 110.754 233.048C110.754 233.656 110.634 234.196 110.394 234.668C110.154 235.132 109.818 235.496 109.386 235.76C108.954 236.024 108.462 236.156 107.91 236.156ZM107.91 235.496C108.526 235.496 109.018 235.272 109.386 234.824C109.754 234.368 109.938 233.776 109.938 233.048C109.938 232.32 109.754 231.732 109.386 231.284C109.018 230.828 108.526 230.6 107.91 230.6C107.294 230.6 106.802 230.828 106.434 231.284C106.066 231.732 105.882 232.32 105.882 233.048C105.882 233.776 106.066 234.368 106.434 234.824C106.802 235.272 107.294 235.496 107.91 235.496ZM114.338 230.036C114.538 230.036 114.774 230.068 115.046 230.132C115.19 230.18 115.246 230.28 115.214 230.432L115.166 230.624C115.126 230.776 115.026 230.832 114.866 230.792C114.674 230.744 114.498 230.72 114.338 230.72C113.93 230.72 113.59 230.896 113.318 231.248C113.054 231.6 112.922 232.088 112.922 232.712V235.76C112.922 235.92 112.842 236 112.682 236H112.37C112.21 236 112.13 235.92 112.13 235.76V230.324C112.13 230.164 112.21 230.084 112.37 230.084H112.634C112.794 230.084 112.874 230.164 112.874 230.324V230.984C113.01 230.688 113.202 230.456 113.45 230.288C113.706 230.12 114.002 230.036 114.338 230.036ZM120.234 227.72C120.234 227.56 120.314 227.48 120.474 227.48H120.786C120.946 227.48 121.026 227.56 121.026 227.72V235.76C121.026 235.92 120.946 236 120.786 236H120.534C120.374 236 120.294 235.92 120.294 235.76V234.98C120.078 235.356 119.794 235.644 119.442 235.844C119.09 236.044 118.674 236.144 118.194 236.144C117.69 236.144 117.242 236.016 116.85 235.76C116.458 235.496 116.15 235.132 115.926 234.668C115.702 234.196 115.59 233.656 115.59 233.048C115.59 232.44 115.702 231.904 115.926 231.44C116.158 230.968 116.474 230.604 116.874 230.348C117.274 230.084 117.722 229.952 118.218 229.952C119.13 229.952 119.802 230.292 120.234 230.972V227.72ZM118.254 235.472C118.854 235.472 119.338 235.26 119.706 234.836C120.082 234.404 120.27 233.808 120.27 233.048C120.27 232.296 120.082 231.704 119.706 231.272C119.338 230.84 118.854 230.624 118.254 230.624C117.702 230.624 117.254 230.848 116.91 231.296C116.574 231.744 116.406 232.328 116.406 233.048C116.406 233.776 116.574 234.364 116.91 234.812C117.246 235.252 117.694 235.472 118.254 235.472ZM127.78 230.036C127.98 230.036 128.216 230.068 128.488 230.132C128.632 230.18 128.688 230.28 128.656 230.432L128.608 230.624C128.568 230.776 128.468 230.832 128.308 230.792C128.116 230.744 127.94 230.72 127.78 230.72C127.372 230.72 127.032 230.896 126.76 231.248C126.496 231.6 126.364 232.088 126.364 232.712V235.76C126.364 235.92 126.284 236 126.124 236H125.812C125.652 236 125.572 235.92 125.572 235.76V230.324C125.572 230.164 125.652 230.084 125.812 230.084H126.076C126.236 230.084 126.316 230.164 126.316 230.324V230.984C126.452 230.688 126.644 230.456 126.892 230.288C127.148 230.12 127.444 230.036 127.78 230.036ZM133.712 234.596C133.768 234.54 133.828 234.512 133.892 234.512C133.948 234.512 134 234.536 134.048 234.584L134.204 234.728C134.26 234.784 134.288 234.844 134.288 234.908C134.288 234.956 134.264 235.012 134.216 235.076C133.824 235.468 133.444 235.748 133.076 235.916C132.708 236.076 132.296 236.156 131.84 236.156C131.264 236.156 130.764 236.028 130.34 235.772C129.916 235.516 129.588 235.16 129.356 234.704C129.124 234.24 129.008 233.704 129.008 233.096C129.008 232.48 129.12 231.936 129.344 231.464C129.576 230.984 129.9 230.612 130.316 230.348C130.732 230.076 131.212 229.94 131.756 229.94C132.564 229.94 133.2 230.192 133.664 230.696C134.128 231.2 134.36 231.88 134.36 232.736V232.88C134.352 232.952 134.324 233.008 134.276 233.048C134.236 233.088 134.18 233.108 134.108 233.108H129.812C129.836 233.78 130.012 234.348 130.34 234.812C130.676 235.268 131.176 235.496 131.84 235.496C132.2 235.496 132.516 235.432 132.788 235.304C133.068 235.168 133.376 234.932 133.712 234.596ZM131.756 230.6C131.228 230.6 130.792 230.764 130.448 231.092C130.112 231.412 129.908 231.884 129.836 232.508H133.568C133.552 231.924 133.384 231.46 133.064 231.116C132.744 230.772 132.308 230.6 131.756 230.6ZM140.122 230.324C140.122 230.164 140.202 230.084 140.362 230.084H140.614C140.774 230.084 140.854 230.164 140.854 230.324V237.968C140.854 238.128 140.774 238.208 140.614 238.208H140.302C140.142 238.208 140.062 238.128 140.062 237.968V235.1C139.63 235.796 138.954 236.144 138.034 236.144C137.538 236.144 137.09 236.016 136.69 235.76C136.298 235.496 135.986 235.128 135.754 234.656C135.53 234.184 135.418 233.644 135.418 233.036C135.418 232.436 135.53 231.904 135.754 231.44C135.986 230.968 136.298 230.604 136.69 230.348C137.09 230.084 137.538 229.952 138.034 229.952C138.514 229.952 138.93 230.052 139.282 230.252C139.634 230.444 139.914 230.724 140.122 231.092V230.324ZM138.082 235.472C138.674 235.472 139.158 235.256 139.534 234.824C139.91 234.384 140.098 233.788 140.098 233.036C140.098 232.284 139.91 231.696 139.534 231.272C139.166 230.84 138.682 230.624 138.082 230.624C137.53 230.624 137.082 230.848 136.738 231.296C136.402 231.736 136.234 232.316 136.234 233.036C136.234 233.516 136.31 233.94 136.462 234.308C136.622 234.676 136.838 234.964 137.11 235.172C137.39 235.372 137.714 235.472 138.082 235.472ZM146.474 230.324C146.474 230.164 146.554 230.084 146.714 230.084H147.026C147.186 230.084 147.266 230.164 147.266 230.324V235.76C147.266 235.92 147.186 236 147.026 236H146.774C146.614 236 146.534 235.92 146.534 235.76V235.22C146.358 235.532 146.106 235.768 145.778 235.928C145.458 236.08 145.106 236.156 144.722 236.156C144.002 236.156 143.47 235.976 143.126 235.616C142.782 235.248 142.61 234.776 142.61 234.2V230.324C142.61 230.164 142.69 230.084 142.85 230.084H143.162C143.322 230.084 143.402 230.164 143.402 230.324V234.032C143.402 234.504 143.518 234.864 143.75 235.112C143.99 235.352 144.33 235.472 144.77 235.472C145.266 235.472 145.674 235.32 145.994 235.016C146.314 234.712 146.474 234.28 146.474 233.72V230.324ZM149.44 228.584C149.28 228.584 149.144 228.528 149.032 228.416C148.928 228.304 148.876 228.168 148.876 228.008C148.876 227.848 148.928 227.716 149.032 227.612C149.144 227.508 149.28 227.456 149.44 227.456C149.608 227.456 149.744 227.508 149.848 227.612C149.96 227.716 150.016 227.848 150.016 228.008C150.016 228.168 149.96 228.304 149.848 228.416C149.744 228.528 149.608 228.584 149.44 228.584ZM149.284 236C149.124 236 149.044 235.92 149.044 235.76V230.324C149.044 230.164 149.124 230.084 149.284 230.084H149.596C149.756 230.084 149.836 230.164 149.836 230.324V235.76C149.836 235.92 149.756 236 149.596 236H149.284ZM153.807 230.036C154.007 230.036 154.243 230.068 154.515 230.132C154.659 230.18 154.715 230.28 154.683 230.432L154.635 230.624C154.595 230.776 154.495 230.832 154.335 230.792C154.143 230.744 153.967 230.72 153.807 230.72C153.399 230.72 153.059 230.896 152.787 231.248C152.523 231.6 152.391 232.088 152.391 232.712V235.76C152.391 235.92 152.311 236 152.151 236H151.839C151.679 236 151.599 235.92 151.599 235.76V230.324C151.599 230.164 151.679 230.084 151.839 230.084H152.103C152.263 230.084 152.343 230.164 152.343 230.324V230.984C152.479 230.688 152.671 230.456 152.919 230.288C153.175 230.12 153.471 230.036 153.807 230.036ZM159.739 234.596C159.795 234.54 159.855 234.512 159.919 234.512C159.975 234.512 160.027 234.536 160.075 234.584L160.231 234.728C160.287 234.784 160.315 234.844 160.315 234.908C160.315 234.956 160.291 235.012 160.243 235.076C159.851 235.468 159.471 235.748 159.103 235.916C158.735 236.076 158.323 236.156 157.867 236.156C157.291 236.156 156.791 236.028 156.367 235.772C155.943 235.516 155.615 235.16 155.383 234.704C155.151 234.24 155.035 233.704 155.035 233.096C155.035 232.48 155.147 231.936 155.371 231.464C155.603 230.984 155.927 230.612 156.343 230.348C156.759 230.076 157.239 229.94 157.783 229.94C158.591 229.94 159.227 230.192 159.691 230.696C160.155 231.2 160.387 231.88 160.387 232.736V232.88C160.379 232.952 160.351 233.008 160.303 233.048C160.263 233.088 160.207 233.108 160.135 233.108H155.839C155.863 233.78 156.039 234.348 156.367 234.812C156.703 235.268 157.203 235.496 157.867 235.496C158.227 235.496 158.543 235.432 158.815 235.304C159.095 235.168 159.403 234.932 159.739 234.596ZM157.783 230.6C157.255 230.6 156.819 230.764 156.475 231.092C156.139 231.412 155.935 231.884 155.863 232.508H159.595C159.579 231.924 159.411 231.46 159.091 231.116C158.771 230.772 158.335 230.6 157.783 230.6ZM167.818 229.94C168.458 229.94 168.946 230.124 169.282 230.492C169.626 230.852 169.798 231.316 169.798 231.884V235.76C169.798 235.92 169.718 236 169.558 236H169.246C169.086 236 169.006 235.92 169.006 235.76V232.1C169.006 231.62 168.894 231.252 168.67 230.996C168.454 230.74 168.13 230.612 167.698 230.612C167.242 230.612 166.878 230.764 166.606 231.068C166.334 231.372 166.198 231.764 166.198 232.244V235.76C166.198 235.92 166.118 236 165.958 236H165.646C165.486 236 165.406 235.92 165.406 235.76V232.1C165.406 231.62 165.294 231.252 165.07 230.996C164.854 230.74 164.526 230.612 164.086 230.612C163.678 230.612 163.338 230.74 163.066 230.996C162.802 231.252 162.646 231.588 162.598 232.004V235.76C162.598 235.92 162.518 236 162.358 236H162.046C161.886 236 161.806 235.92 161.806 235.76V230.324C161.806 230.164 161.886 230.084 162.046 230.084H162.31C162.47 230.084 162.55 230.164 162.55 230.324V230.816C162.91 230.232 163.482 229.94 164.266 229.94C164.674 229.94 165.022 230.032 165.31 230.216C165.606 230.392 165.826 230.632 165.97 230.936C166.394 230.272 167.01 229.94 167.818 229.94ZM175.852 234.596C175.908 234.54 175.968 234.512 176.032 234.512C176.088 234.512 176.14 234.536 176.188 234.584L176.344 234.728C176.4 234.784 176.428 234.844 176.428 234.908C176.428 234.956 176.404 235.012 176.356 235.076C175.964 235.468 175.584 235.748 175.216 235.916C174.848 236.076 174.436 236.156 173.98 236.156C173.404 236.156 172.904 236.028 172.48 235.772C172.056 235.516 171.728 235.16 171.496 234.704C171.264 234.24 171.148 233.704 171.148 233.096C171.148 232.48 171.26 231.936 171.484 231.464C171.716 230.984 172.04 230.612 172.456 230.348C172.872 230.076 173.352 229.94 173.896 229.94C174.704 229.94 175.34 230.192 175.804 230.696C176.268 231.2 176.5 231.88 176.5 232.736V232.88C176.492 232.952 176.464 233.008 176.416 233.048C176.376 233.088 176.32 233.108 176.248 233.108H171.952C171.976 233.78 172.152 234.348 172.48 234.812C172.816 235.268 173.316 235.496 173.98 235.496C174.34 235.496 174.656 235.432 174.928 235.304C175.208 235.168 175.516 234.932 175.852 234.596ZM173.896 230.6C173.368 230.6 172.932 230.764 172.588 231.092C172.252 231.412 172.048 231.884 171.976 232.508H175.708C175.692 231.924 175.524 231.46 175.204 231.116C174.884 230.772 174.448 230.6 173.896 230.6ZM180.559 229.94C181.255 229.94 181.779 230.132 182.131 230.516C182.491 230.9 182.671 231.38 182.671 231.956V235.76C182.671 235.92 182.591 236 182.431 236H182.119C181.959 236 181.879 235.92 181.879 235.76V232.22C181.879 231.692 181.751 231.292 181.495 231.02C181.239 230.748 180.871 230.612 180.391 230.612C180.087 230.612 179.807 230.688 179.551 230.84C179.295 230.984 179.091 231.184 178.939 231.44C178.787 231.696 178.711 231.976 178.711 232.28V235.76C178.711 235.92 178.631 236 178.471 236H178.159C177.999 236 177.919 235.92 177.919 235.76V230.324C177.919 230.164 177.999 230.084 178.159 230.084H178.423C178.583 230.084 178.663 230.164 178.663 230.324V230.9C178.863 230.58 179.127 230.34 179.455 230.18C179.783 230.02 180.151 229.94 180.559 229.94ZM186.923 235.34C186.947 235.332 186.979 235.328 187.019 235.328C187.067 235.328 187.111 235.344 187.151 235.376C187.191 235.408 187.215 235.452 187.223 235.508L187.259 235.676C187.267 235.692 187.271 235.72 187.271 235.76C187.271 235.872 187.211 235.94 187.091 235.964C186.803 236.052 186.495 236.096 186.167 236.096C185.647 236.096 185.275 235.98 185.051 235.748C184.835 235.508 184.727 235.164 184.727 234.716V230.684H183.839C183.679 230.684 183.599 230.604 183.599 230.444V230.324C183.599 230.164 183.679 230.084 183.839 230.084H184.727V228.26C184.727 228.1 184.807 228.02 184.967 228.02H185.279C185.439 228.02 185.519 228.1 185.519 228.26V230.084H186.959C187.119 230.084 187.199 230.164 187.199 230.324V230.444C187.199 230.604 187.119 230.684 186.959 230.684H185.519V234.62C185.519 234.916 185.575 235.124 185.687 235.244C185.799 235.364 185.991 235.424 186.263 235.424C186.455 235.424 186.675 235.396 186.923 235.34ZM190.554 236.156C190.066 236.156 189.634 236.088 189.258 235.952C188.89 235.808 188.502 235.568 188.094 235.232C188.022 235.184 187.986 235.128 187.986 235.064C187.986 235.008 188.014 234.952 188.07 234.896L188.226 234.728C188.274 234.664 188.334 234.632 188.406 234.632C188.462 234.632 188.514 234.656 188.562 234.704C188.946 235 189.286 235.208 189.582 235.328C189.878 235.44 190.202 235.496 190.554 235.496C190.994 235.496 191.354 235.4 191.634 235.208C191.914 235.008 192.054 234.74 192.054 234.404C192.054 234.068 191.91 233.82 191.622 233.66C191.334 233.5 190.89 233.356 190.29 233.228C189.762 233.116 189.346 233 189.042 232.88C188.746 232.752 188.526 232.592 188.382 232.4C188.238 232.208 188.166 231.956 188.166 231.644C188.166 231.132 188.374 230.72 188.79 230.408C189.206 230.096 189.73 229.94 190.362 229.94C190.794 229.94 191.178 229.996 191.514 230.108C191.858 230.212 192.202 230.388 192.546 230.636C192.618 230.692 192.654 230.752 192.654 230.816C192.654 230.856 192.634 230.908 192.594 230.972L192.45 231.152C192.41 231.216 192.354 231.248 192.282 231.248C192.218 231.248 192.162 231.228 192.114 231.188C191.786 230.956 191.494 230.8 191.238 230.72C190.99 230.64 190.706 230.6 190.386 230.6C189.946 230.6 189.594 230.696 189.33 230.888C189.066 231.08 188.934 231.324 188.934 231.62C188.934 231.804 188.994 231.952 189.114 232.064C189.234 232.176 189.406 232.272 189.63 232.352C189.854 232.424 190.182 232.508 190.614 232.604C191.414 232.78 191.982 232.996 192.318 233.252C192.662 233.508 192.834 233.88 192.834 234.368C192.834 234.904 192.622 235.336 192.198 235.664C191.774 235.992 191.226 236.156 190.554 236.156ZM199.579 229.94C200.275 229.94 200.799 230.132 201.151 230.516C201.511 230.9 201.691 231.38 201.691 231.956V235.76C201.691 235.92 201.611 236 201.451 236H201.139C200.979 236 200.899 235.92 200.899 235.76V232.22C200.899 231.692 200.771 231.292 200.515 231.02C200.259 230.748 199.891 230.612 199.411 230.612C199.107 230.612 198.827 230.688 198.571 230.84C198.315 230.984 198.111 231.184 197.959 231.44C197.807 231.696 197.731 231.976 197.731 232.28V235.76C197.731 235.92 197.651 236 197.491 236H197.179C197.019 236 196.939 235.92 196.939 235.76V230.324C196.939 230.164 197.019 230.084 197.179 230.084H197.443C197.603 230.084 197.683 230.164 197.683 230.324V230.9C197.883 230.58 198.147 230.34 198.475 230.18C198.803 230.02 199.171 229.94 199.579 229.94ZM205.891 236.156C205.339 236.156 204.847 236.024 204.415 235.76C203.983 235.496 203.647 235.132 203.407 234.668C203.167 234.196 203.047 233.656 203.047 233.048C203.047 232.44 203.167 231.904 203.407 231.44C203.647 230.968 203.983 230.6 204.415 230.336C204.847 230.072 205.339 229.94 205.891 229.94C206.443 229.94 206.935 230.072 207.367 230.336C207.799 230.6 208.135 230.968 208.375 231.44C208.615 231.904 208.735 232.44 208.735 233.048C208.735 233.656 208.615 234.196 208.375 234.668C208.135 235.132 207.799 235.496 207.367 235.76C206.935 236.024 206.443 236.156 205.891 236.156ZM205.891 235.496C206.507 235.496 206.999 235.272 207.367 234.824C207.735 234.368 207.919 233.776 207.919 233.048C207.919 232.32 207.735 231.732 207.367 231.284C206.999 230.828 206.507 230.6 205.891 230.6C205.275 230.6 204.783 230.828 204.415 231.284C204.047 231.732 203.863 232.32 203.863 233.048C203.863 233.776 204.047 234.368 204.415 234.824C204.783 235.272 205.275 235.496 205.891 235.496ZM212.599 235.34C212.623 235.332 212.655 235.328 212.695 235.328C212.743 235.328 212.787 235.344 212.827 235.376C212.867 235.408 212.891 235.452 212.899 235.508L212.935 235.676C212.943 235.692 212.947 235.72 212.947 235.76C212.947 235.872 212.887 235.94 212.767 235.964C212.479 236.052 212.171 236.096 211.843 236.096C211.323 236.096 210.951 235.98 210.727 235.748C210.511 235.508 210.403 235.164 210.403 234.716V230.684H209.515C209.355 230.684 209.275 230.604 209.275 230.444V230.324C209.275 230.164 209.355 230.084 209.515 230.084H210.403V228.26C210.403 228.1 210.483 228.02 210.643 228.02H210.955C211.115 228.02 211.195 228.1 211.195 228.26V230.084H212.635C212.795 230.084 212.875 230.164 212.875 230.324V230.444C212.875 230.604 212.795 230.684 212.635 230.684H211.195V234.62C211.195 234.916 211.251 235.124 211.363 235.244C211.475 235.364 211.667 235.424 211.939 235.424C212.131 235.424 212.351 235.396 212.599 235.34ZM222.861 229.94C223.501 229.94 223.989 230.124 224.325 230.492C224.669 230.852 224.841 231.316 224.841 231.884V235.76C224.841 235.92 224.761 236 224.601 236H224.289C224.129 236 224.049 235.92 224.049 235.76V232.1C224.049 231.62 223.937 231.252 223.713 230.996C223.497 230.74 223.173 230.612 222.741 230.612C222.285 230.612 221.921 230.764 221.649 231.068C221.377 231.372 221.241 231.764 221.241 232.244V235.76C221.241 235.92 221.161 236 221.001 236H220.689C220.529 236 220.449 235.92 220.449 235.76V232.1C220.449 231.62 220.337 231.252 220.113 230.996C219.897 230.74 219.569 230.612 219.129 230.612C218.721 230.612 218.381 230.74 218.109 230.996C217.845 231.252 217.689 231.588 217.641 232.004V235.76C217.641 235.92 217.561 236 217.401 236H217.089C216.929 236 216.849 235.92 216.849 235.76V230.324C216.849 230.164 216.929 230.084 217.089 230.084H217.353C217.513 230.084 217.593 230.164 217.593 230.324V230.816C217.953 230.232 218.525 229.94 219.309 229.94C219.717 229.94 220.065 230.032 220.353 230.216C220.649 230.392 220.869 230.632 221.013 230.936C221.437 230.272 222.053 229.94 222.861 229.94ZM230.895 234.596C230.951 234.54 231.011 234.512 231.075 234.512C231.131 234.512 231.183 234.536 231.231 234.584L231.387 234.728C231.443 234.784 231.471 234.844 231.471 234.908C231.471 234.956 231.447 235.012 231.399 235.076C231.007 235.468 230.627 235.748 230.259 235.916C229.891 236.076 229.479 236.156 229.023 236.156C228.447 236.156 227.947 236.028 227.523 235.772C227.099 235.516 226.771 235.16 226.539 234.704C226.307 234.24 226.191 233.704 226.191 233.096C226.191 232.48 226.303 231.936 226.527 231.464C226.759 230.984 227.083 230.612 227.499 230.348C227.915 230.076 228.395 229.94 228.939 229.94C229.747 229.94 230.383 230.192 230.847 230.696C231.311 231.2 231.543 231.88 231.543 232.736V232.88C231.535 232.952 231.507 233.008 231.459 233.048C231.419 233.088 231.363 233.108 231.291 233.108H226.995C227.019 233.78 227.195 234.348 227.523 234.812C227.859 235.268 228.359 235.496 229.023 235.496C229.383 235.496 229.699 235.432 229.971 235.304C230.251 235.168 230.559 234.932 230.895 234.596ZM228.939 230.6C228.411 230.6 227.975 230.764 227.631 231.092C227.295 231.412 227.091 231.884 227.019 232.508H230.751C230.735 231.924 230.567 231.46 230.247 231.116C229.927 230.772 229.491 230.6 228.939 230.6ZM235.568 235.34C235.592 235.332 235.624 235.328 235.664 235.328C235.712 235.328 235.756 235.344 235.796 235.376C235.836 235.408 235.86 235.452 235.868 235.508L235.904 235.676C235.912 235.692 235.916 235.72 235.916 235.76C235.916 235.872 235.856 235.94 235.736 235.964C235.448 236.052 235.14 236.096 234.812 236.096C234.292 236.096 233.92 235.98 233.696 235.748C233.48 235.508 233.372 235.164 233.372 234.716V230.684H232.484C232.324 230.684 232.244 230.604 232.244 230.444V230.324C232.244 230.164 232.324 230.084 232.484 230.084H233.372V228.26C233.372 228.1 233.452 228.02 233.612 228.02H233.924C234.084 228.02 234.164 228.1 234.164 228.26V230.084H235.604C235.764 230.084 235.844 230.164 235.844 230.324V230.444C235.844 230.604 235.764 230.684 235.604 230.684H234.164V234.62C234.164 234.916 234.22 235.124 234.332 235.244C234.444 235.364 234.636 235.424 234.908 235.424C235.1 235.424 235.32 235.396 235.568 235.34ZM237.808 233.708C237.736 233.708 237.676 233.688 237.628 233.648C237.588 233.608 237.564 233.552 237.556 233.48L237.388 230.024V227.72C237.388 227.56 237.468 227.48 237.628 227.48H238C238.16 227.48 238.24 227.56 238.24 227.72V230.024L238.072 233.48C238.064 233.552 238.036 233.608 237.988 233.648C237.948 233.688 237.892 233.708 237.82 233.708H237.808ZM237.796 236.084C237.636 236.084 237.496 236.024 237.376 235.904C237.256 235.784 237.196 235.64 237.196 235.472C237.196 235.304 237.256 235.16 237.376 235.04C237.496 234.92 237.636 234.86 237.796 234.86C237.972 234.86 238.12 234.92 238.24 235.04C238.36 235.16 238.42 235.304 238.42 235.472C238.42 235.64 238.36 235.784 238.24 235.904C238.12 236.024 237.972 236.084 237.796 236.084Z" fill="#D9270A"/>
</svg>
