<svg width="344" height="260" viewBox="0 0 344 260" fill="none" xmlns="http://www.w3.org/2000/svg">
<path d="M71.568 54C71.4187 54 71.2973 53.958 71.204 53.874C71.12 53.7807 71.078 53.6593 71.078 53.51V44.55C71.078 44.3913 71.12 44.27 71.204 44.186C71.2973 44.102 71.4187 44.06 71.568 44.06H77.378C77.5367 44.06 77.658 44.102 77.742 44.186C77.826 44.27 77.868 44.3913 77.868 44.55V44.914C77.868 45.0633 77.826 45.1847 77.742 45.278C77.658 45.362 77.5367 45.404 77.378 45.404H72.674V48.204H77.028C77.1867 48.204 77.308 48.246 77.392 48.33C77.476 48.414 77.518 48.5353 77.518 48.694V49.058C77.518 49.2073 77.476 49.3287 77.392 49.422C77.308 49.506 77.1867 49.548 77.028 49.548H72.674V52.656H77.518C77.6767 52.656 77.798 52.698 77.882 52.782C77.966 52.866 78.008 52.9873 78.008 53.146V53.51C78.008 53.6593 77.966 53.7807 77.882 53.874C77.798 53.958 77.6767 54 77.518 54H71.568ZM86.9143 46.888C87.6516 46.888 88.221 47.098 88.6223 47.518C89.0236 47.9287 89.2243 48.484 89.2243 49.184V53.51C89.2243 53.6593 89.1823 53.7807 89.0983 53.874C89.0143 53.958 88.893 54 88.7343 54H88.2303C88.081 54 87.9596 53.958 87.8663 53.874C87.7823 53.7807 87.7403 53.6593 87.7403 53.51V49.632C87.7403 49.1747 87.6376 48.8153 87.4323 48.554C87.227 48.2927 86.9143 48.162 86.4943 48.162C86.065 48.162 85.7243 48.3067 85.4723 48.596C85.2296 48.8853 85.1083 49.2587 85.1083 49.716V53.51C85.1083 53.6593 85.0663 53.7807 84.9823 53.874C84.8983 53.958 84.777 54 84.6183 54H84.1143C83.965 54 83.8436 53.958 83.7503 53.874C83.6663 53.7807 83.6243 53.6593 83.6243 53.51V49.632C83.6243 49.1747 83.5216 48.8153 83.3163 48.554C83.1203 48.2927 82.8123 48.162 82.3923 48.162C81.9816 48.162 81.6503 48.2973 81.3983 48.568C81.1463 48.8387 81.011 49.1887 80.9923 49.618V53.51C80.9923 53.6593 80.9503 53.7807 80.8663 53.874C80.7823 53.958 80.661 54 80.5023 54H79.9983C79.849 54 79.7276 53.958 79.6343 53.874C79.5503 53.7807 79.5083 53.6593 79.5083 53.51V47.588C79.5083 47.4293 79.5503 47.308 79.6343 47.224C79.7276 47.14 79.849 47.098 79.9983 47.098H80.4043C80.563 47.098 80.6843 47.14 80.7683 47.224C80.8523 47.308 80.8943 47.4293 80.8943 47.588V47.896C81.3236 47.224 81.9863 46.888 82.8823 46.888C83.3303 46.888 83.7223 46.9813 84.0583 47.168C84.3943 47.3547 84.651 47.616 84.8283 47.952C85.3043 47.2427 85.9996 46.888 86.9143 46.888ZM93.8363 46.888C94.7696 46.888 95.4883 47.1073 95.9923 47.546C96.4963 47.9753 96.7483 48.5493 96.7483 49.268V53.51C96.7483 53.6593 96.7063 53.7807 96.6223 53.874C96.5383 53.958 96.417 54 96.2583 54H95.8943C95.745 54 95.6236 53.958 95.5303 53.874C95.4463 53.7807 95.4043 53.6593 95.4043 53.51V53.202C95.1803 53.5287 94.8723 53.7807 94.4803 53.958C94.0883 54.1353 93.631 54.224 93.1083 54.224C92.3896 54.224 91.797 54.0653 91.3303 53.748C90.873 53.4213 90.6443 52.9313 90.6443 52.278C90.6443 51.55 90.915 51.0133 91.4563 50.668C92.007 50.3133 92.7676 50.0473 93.7383 49.87L95.3203 49.576V49.324C95.3203 48.9413 95.185 48.6473 94.9143 48.442C94.653 48.2273 94.303 48.12 93.8643 48.12C93.491 48.12 93.1643 48.1853 92.8843 48.316C92.6136 48.4373 92.3196 48.6427 92.0023 48.932C91.881 49.0347 91.7643 49.086 91.6523 49.086C91.5403 49.086 91.4236 49.0347 91.3023 48.932L91.0783 48.736C90.957 48.624 90.8963 48.5027 90.8963 48.372C90.8963 48.2507 90.9523 48.134 91.0643 48.022C91.4656 47.6393 91.8903 47.3547 92.3383 47.168C92.7863 46.9813 93.2856 46.888 93.8363 46.888ZM93.3183 53.034C93.8783 53.034 94.3496 52.8847 94.7323 52.586C95.1243 52.2873 95.3203 51.858 95.3203 51.298V50.654L94.1023 50.906C93.421 51.046 92.917 51.2047 92.5903 51.382C92.2636 51.5593 92.1003 51.83 92.1003 52.194C92.1003 52.4553 92.2076 52.6607 92.4223 52.81C92.637 52.9593 92.9356 53.034 93.3183 53.034ZM99.1998 45.754C98.9292 45.754 98.7005 45.6653 98.5138 45.488C98.3272 45.3013 98.2338 45.082 98.2338 44.83C98.2338 44.5687 98.3272 44.3493 98.5138 44.172C98.7005 43.9947 98.9292 43.906 99.1998 43.906C99.4705 43.906 99.6992 43.9947 99.8858 44.172C100.073 44.3493 100.166 44.5687 100.166 44.83C100.166 45.082 100.073 45.3013 99.8858 45.488C99.6992 45.6653 99.4705 45.754 99.1998 45.754ZM98.9338 54C98.7845 54 98.6632 53.958 98.5698 53.874C98.4858 53.7807 98.4438 53.6593 98.4438 53.51V47.588C98.4438 47.4293 98.4858 47.308 98.5698 47.224C98.6632 47.14 98.7845 47.098 98.9338 47.098H99.4378C99.5965 47.098 99.7178 47.14 99.8018 47.224C99.8858 47.308 99.9278 47.4293 99.9278 47.588V53.51C99.9278 53.6593 99.8858 53.7807 99.8018 53.874C99.7178 53.958 99.5965 54 99.4378 54H98.9338ZM102.189 54C102.04 54 101.918 53.958 101.825 53.874C101.741 53.7807 101.699 53.6593 101.699 53.51V44.55C101.699 44.3913 101.741 44.27 101.825 44.186C101.918 44.102 102.04 44.06 102.189 44.06H102.693C102.852 44.06 102.973 44.102 103.057 44.186C103.141 44.27 103.183 44.3913 103.183 44.55V53.51C103.183 53.6593 103.141 53.7807 103.057 53.874C102.973 53.958 102.852 54 102.693 54H102.189ZM110.995 46.888C111.928 46.888 112.647 47.1073 113.151 47.546C113.655 47.9753 113.907 48.5493 113.907 49.268V53.51C113.907 53.6593 113.865 53.7807 113.781 53.874C113.697 53.958 113.575 54 113.417 54H113.053C112.903 54 112.782 53.958 112.689 53.874C112.605 53.7807 112.563 53.6593 112.563 53.51V53.202C112.339 53.5287 112.031 53.7807 111.639 53.958C111.247 54.1353 110.789 54.224 110.267 54.224C109.548 54.224 108.955 54.0653 108.489 53.748C108.031 53.4213 107.803 52.9313 107.803 52.278C107.803 51.55 108.073 51.0133 108.615 50.668C109.165 50.3133 109.926 50.0473 110.897 49.87L112.479 49.576V49.324C112.479 48.9413 112.343 48.6473 112.073 48.442C111.811 48.2273 111.461 48.12 111.023 48.12C110.649 48.12 110.323 48.1853 110.043 48.316C109.772 48.4373 109.478 48.6427 109.161 48.932C109.039 49.0347 108.923 49.086 108.811 49.086C108.699 49.086 108.582 49.0347 108.461 48.932L108.237 48.736C108.115 48.624 108.055 48.5027 108.055 48.372C108.055 48.2507 108.111 48.134 108.223 48.022C108.624 47.6393 109.049 47.3547 109.497 47.168C109.945 46.9813 110.444 46.888 110.995 46.888ZM110.477 53.034C111.037 53.034 111.508 52.8847 111.891 52.586C112.283 52.2873 112.479 51.858 112.479 51.298V50.654L111.261 50.906C110.579 51.046 110.075 51.2047 109.749 51.382C109.422 51.5593 109.259 51.83 109.259 52.194C109.259 52.4553 109.366 52.6607 109.581 52.81C109.795 52.9593 110.094 53.034 110.477 53.034ZM120.46 44.536C120.46 44.3773 120.502 44.256 120.586 44.172C120.679 44.088 120.801 44.046 120.95 44.046H121.454C121.613 44.046 121.734 44.088 121.818 44.172C121.902 44.256 121.944 44.3773 121.944 44.536V53.51C121.944 53.6593 121.902 53.7807 121.818 53.874C121.734 53.958 121.613 54 121.454 54H121.048C120.899 54 120.777 53.958 120.684 53.874C120.6 53.7807 120.558 53.6593 120.558 53.51V53.02C120.073 53.804 119.312 54.196 118.276 54.196C117.697 54.196 117.175 54.0467 116.708 53.748C116.251 53.4493 115.891 53.0247 115.63 52.474C115.369 51.9233 115.238 51.284 115.238 50.556C115.238 49.8373 115.369 49.2027 115.63 48.652C115.901 48.1013 116.269 47.6767 116.736 47.378C117.203 47.0793 117.725 46.93 118.304 46.93C119.256 46.93 119.975 47.2613 120.46 47.924V44.536ZM118.584 52.922C119.153 52.922 119.62 52.712 119.984 52.292C120.348 51.8627 120.53 51.284 120.53 50.556C120.53 49.828 120.348 49.254 119.984 48.834C119.62 48.414 119.153 48.204 118.584 48.204C118.033 48.204 117.59 48.4187 117.254 48.848C116.918 49.2773 116.75 49.8467 116.75 50.556C116.75 51.2747 116.913 51.8487 117.24 52.278C117.576 52.7073 118.024 52.922 118.584 52.922ZM128.526 44.536C128.526 44.3773 128.568 44.256 128.652 44.172C128.746 44.088 128.867 44.046 129.016 44.046H129.52C129.679 44.046 129.8 44.088 129.884 44.172C129.968 44.256 130.01 44.3773 130.01 44.536V53.51C130.01 53.6593 129.968 53.7807 129.884 53.874C129.8 53.958 129.679 54 129.52 54H129.114C128.965 54 128.844 53.958 128.75 53.874C128.666 53.7807 128.624 53.6593 128.624 53.51V53.02C128.139 53.804 127.378 54.196 126.342 54.196C125.764 54.196 125.241 54.0467 124.774 53.748C124.317 53.4493 123.958 53.0247 123.696 52.474C123.435 51.9233 123.304 51.284 123.304 50.556C123.304 49.8373 123.435 49.2027 123.696 48.652C123.967 48.1013 124.336 47.6767 124.802 47.378C125.269 47.0793 125.792 46.93 126.37 46.93C127.322 46.93 128.041 47.2613 128.526 47.924V44.536ZM126.65 52.922C127.22 52.922 127.686 52.712 128.05 52.292C128.414 51.8627 128.596 51.284 128.596 50.556C128.596 49.828 128.414 49.254 128.05 48.834C127.686 48.414 127.22 48.204 126.65 48.204C126.1 48.204 125.656 48.4187 125.32 48.848C124.984 49.2773 124.816 49.8467 124.816 50.556C124.816 51.2747 124.98 51.8487 125.306 52.278C125.642 52.7073 126.09 52.922 126.65 52.922ZM134.843 47.028C135.048 47.028 135.258 47.0513 135.473 47.098C135.725 47.154 135.851 47.3033 135.851 47.546C135.851 47.6113 135.846 47.658 135.837 47.686L135.767 48.022C135.711 48.2833 135.571 48.414 135.347 48.414L135.221 48.4C135.053 48.372 134.904 48.358 134.773 48.358C134.306 48.358 133.928 48.5447 133.639 48.918C133.359 49.282 133.219 49.7907 133.219 50.444V53.51C133.219 53.6593 133.177 53.7807 133.093 53.874C133.009 53.958 132.888 54 132.729 54H132.225C132.076 54 131.954 53.958 131.861 53.874C131.777 53.7807 131.735 53.6593 131.735 53.51V47.588C131.735 47.4293 131.777 47.308 131.861 47.224C131.954 47.14 132.076 47.098 132.225 47.098H132.631C132.79 47.098 132.911 47.14 132.995 47.224C133.079 47.308 133.121 47.4293 133.121 47.588V48.134C133.289 47.7887 133.518 47.518 133.807 47.322C134.096 47.126 134.442 47.028 134.843 47.028ZM141.544 52.236C141.665 52.1333 141.782 52.082 141.894 52.082C142.006 52.082 142.123 52.1427 142.244 52.264L142.44 52.474C142.543 52.5953 142.594 52.712 142.594 52.824C142.594 52.9453 142.533 53.062 142.412 53.174C141.983 53.5473 141.553 53.8133 141.124 53.972C140.704 54.1307 140.237 54.21 139.724 54.21C139.005 54.21 138.38 54.0607 137.848 53.762C137.325 53.4633 136.919 53.0433 136.63 52.502C136.35 51.9513 136.21 51.3167 136.21 50.598C136.21 49.8887 136.345 49.254 136.616 48.694C136.896 48.1247 137.288 47.6813 137.792 47.364C138.305 47.0467 138.903 46.888 139.584 46.888C140.601 46.888 141.385 47.1913 141.936 47.798C142.487 48.3953 142.762 49.2213 142.762 50.276V50.402C142.753 50.5513 142.706 50.668 142.622 50.752C142.538 50.836 142.417 50.878 142.258 50.878H137.666C137.722 51.494 137.923 51.998 138.268 52.39C138.623 52.7727 139.117 52.964 139.752 52.964C140.097 52.964 140.401 52.9127 140.662 52.81C140.923 52.698 141.217 52.5067 141.544 52.236ZM139.556 48.064C139.043 48.064 138.627 48.218 138.31 48.526C138.002 48.8247 137.801 49.2493 137.708 49.8H141.306C141.269 49.2587 141.101 48.834 140.802 48.526C140.503 48.218 140.088 48.064 139.556 48.064ZM146.809 54.21C146.24 54.21 145.731 54.14 145.283 54C144.844 53.8507 144.396 53.594 143.939 53.23C143.799 53.1273 143.729 53.0107 143.729 52.88C143.729 52.7773 143.78 52.6653 143.883 52.544L144.093 52.306C144.205 52.1753 144.326 52.11 144.457 52.11C144.56 52.11 144.672 52.1567 144.793 52.25C145.185 52.5393 145.53 52.74 145.829 52.852C146.128 52.9547 146.464 53.006 146.837 53.006C147.238 53.006 147.565 52.9267 147.817 52.768C148.078 52.6 148.209 52.376 148.209 52.096C148.209 51.8813 148.134 51.7133 147.985 51.592C147.845 51.4613 147.658 51.3633 147.425 51.298C147.192 51.2233 146.846 51.1393 146.389 51.046C145.745 50.906 145.241 50.7567 144.877 50.598C144.522 50.43 144.266 50.22 144.107 49.968C143.948 49.716 143.869 49.394 143.869 49.002C143.869 48.6007 143.981 48.2413 144.205 47.924C144.438 47.6067 144.76 47.3547 145.171 47.168C145.591 46.9813 146.081 46.888 146.641 46.888C147.145 46.888 147.593 46.944 147.985 47.056C148.386 47.168 148.778 47.3593 149.161 47.63C149.31 47.742 149.385 47.868 149.385 48.008C149.385 48.1013 149.338 48.2087 149.245 48.33L149.063 48.554C148.96 48.6847 148.834 48.75 148.685 48.75C148.573 48.75 148.466 48.7127 148.363 48.638C148.055 48.4327 147.77 48.2927 147.509 48.218C147.248 48.134 146.954 48.092 146.627 48.092C146.226 48.092 145.904 48.1713 145.661 48.33C145.418 48.4887 145.297 48.694 145.297 48.946C145.297 49.114 145.353 49.2493 145.465 49.352C145.586 49.4453 145.754 49.5293 145.969 49.604C146.193 49.6693 146.543 49.7533 147.019 49.856C147.663 49.996 148.172 50.1547 148.545 50.332C148.928 50.5 149.208 50.7193 149.385 50.99C149.572 51.2513 149.665 51.592 149.665 52.012C149.665 52.6653 149.404 53.1973 148.881 53.608C148.368 54.0093 147.677 54.21 146.809 54.21ZM153.604 54.21C153.035 54.21 152.526 54.14 152.078 54C151.639 53.8507 151.191 53.594 150.734 53.23C150.594 53.1273 150.524 53.0107 150.524 52.88C150.524 52.7773 150.575 52.6653 150.678 52.544L150.888 52.306C151 52.1753 151.121 52.11 151.252 52.11C151.355 52.11 151.467 52.1567 151.588 52.25C151.98 52.5393 152.325 52.74 152.624 52.852C152.923 52.9547 153.259 53.006 153.632 53.006C154.033 53.006 154.36 52.9267 154.612 52.768C154.873 52.6 155.004 52.376 155.004 52.096C155.004 51.8813 154.929 51.7133 154.78 51.592C154.64 51.4613 154.453 51.3633 154.22 51.298C153.987 51.2233 153.641 51.1393 153.184 51.046C152.54 50.906 152.036 50.7567 151.672 50.598C151.317 50.43 151.061 50.22 150.902 49.968C150.743 49.716 150.664 49.394 150.664 49.002C150.664 48.6007 150.776 48.2413 151 47.924C151.233 47.6067 151.555 47.3547 151.966 47.168C152.386 46.9813 152.876 46.888 153.436 46.888C153.94 46.888 154.388 46.944 154.78 47.056C155.181 47.168 155.573 47.3593 155.956 47.63C156.105 47.742 156.18 47.868 156.18 48.008C156.18 48.1013 156.133 48.2087 156.04 48.33L155.858 48.554C155.755 48.6847 155.629 48.75 155.48 48.75C155.368 48.75 155.261 48.7127 155.158 48.638C154.85 48.4327 154.565 48.2927 154.304 48.218C154.043 48.134 153.749 48.092 153.422 48.092C153.021 48.092 152.699 48.1713 152.456 48.33C152.213 48.4887 152.092 48.694 152.092 48.946C152.092 49.114 152.148 49.2493 152.26 49.352C152.381 49.4453 152.549 49.5293 152.764 49.604C152.988 49.6693 153.338 49.7533 153.814 49.856C154.458 49.996 154.967 50.1547 155.34 50.332C155.723 50.5 156.003 50.7193 156.18 50.99C156.367 51.2513 156.46 51.592 156.46 52.012C156.46 52.6653 156.199 53.1973 155.676 53.608C155.163 54.0093 154.472 54.21 153.604 54.21Z" fill="#474445"/>
<path d="M70 66C70 63.7909 71.7909 62 74 62H269C271.209 62 273 63.7909 273 66V106C273 108.209 271.209 110 269 110H74C71.7909 110 70 108.209 70 106V66Z" fill="white"/>
<path d="M82.96 82.936C83.6213 82.936 84.2133 83.112 84.736 83.464C85.2693 83.8053 85.6853 84.2907 85.984 84.92C86.2827 85.5387 86.432 86.248 86.432 87.048C86.432 87.8587 86.2827 88.5787 85.984 89.208C85.6853 89.8373 85.2747 90.328 84.752 90.68C84.2293 91.0213 83.632 91.192 82.96 91.192C81.7227 91.192 80.816 90.7387 80.24 89.832V93.624C80.24 93.8373 80.1333 93.944 79.92 93.944H79.504C79.2907 93.944 79.184 93.8373 79.184 93.624V83.432C79.184 83.2187 79.2907 83.112 79.504 83.112H79.856C80.0693 83.112 80.176 83.2187 80.176 83.432V84.44C80.464 83.9493 80.8427 83.576 81.312 83.32C81.7813 83.064 82.3307 82.936 82.96 82.936ZM82.88 90.296C83.6267 90.296 84.224 89.9973 84.672 89.4C85.12 88.8027 85.344 88.0187 85.344 87.048C85.344 86.088 85.12 85.3147 84.672 84.728C84.224 84.1307 83.6267 83.832 82.88 83.832C82.08 83.832 81.4293 84.12 80.928 84.696C80.4373 85.2613 80.192 86.0453 80.192 87.048C80.192 88.0507 80.4427 88.8453 80.944 89.432C81.4453 90.008 82.0907 90.296 82.88 90.296ZM93.429 83.432C93.429 83.2187 93.5357 83.112 93.749 83.112H94.165C94.3783 83.112 94.485 83.2187 94.485 83.432V90.68C94.485 90.8933 94.3783 91 94.165 91H93.829C93.6157 91 93.509 90.8933 93.509 90.68V89.96C93.2743 90.376 92.9383 90.6907 92.501 90.904C92.0743 91.1067 91.605 91.208 91.093 91.208C90.133 91.208 89.4237 90.968 88.965 90.488C88.5063 89.9973 88.277 89.368 88.277 88.6V83.432C88.277 83.2187 88.3837 83.112 88.597 83.112H89.013C89.2263 83.112 89.333 83.2187 89.333 83.432V88.376C89.333 89.0053 89.4877 89.4853 89.797 89.816C90.117 90.136 90.5703 90.296 91.157 90.296C91.8183 90.296 92.3623 90.0933 92.789 89.688C93.2157 89.2827 93.429 88.7067 93.429 87.96V83.432ZM99.6079 91.208C98.9572 91.208 98.3812 91.1173 97.8799 90.936C97.3892 90.744 96.8719 90.424 96.3279 89.976C96.2319 89.912 96.1839 89.8373 96.1839 89.752C96.1839 89.6773 96.2212 89.6027 96.2959 89.528L96.5039 89.304C96.5679 89.2187 96.6479 89.176 96.7439 89.176C96.8185 89.176 96.8879 89.208 96.9519 89.272C97.4639 89.6667 97.9172 89.944 98.3119 90.104C98.7065 90.2533 99.1385 90.328 99.6079 90.328C100.195 90.328 100.675 90.2 101.048 89.944C101.421 89.6773 101.608 89.32 101.608 88.872C101.608 88.424 101.416 88.0933 101.032 87.88C100.648 87.6667 100.056 87.4747 99.2559 87.304C98.5519 87.1547 97.9972 87 97.5919 86.84C97.1972 86.6693 96.9039 86.456 96.7119 86.2C96.5199 85.944 96.4239 85.608 96.4239 85.192C96.4239 84.5093 96.7012 83.96 97.2559 83.544C97.8105 83.128 98.5092 82.92 99.3519 82.92C99.9279 82.92 100.44 82.9947 100.888 83.144C101.347 83.2827 101.805 83.5173 102.264 83.848C102.36 83.9227 102.408 84.0027 102.408 84.088C102.408 84.1413 102.381 84.2107 102.328 84.296L102.136 84.536C102.083 84.6213 102.008 84.664 101.912 84.664C101.827 84.664 101.752 84.6373 101.688 84.584C101.251 84.2747 100.861 84.0667 100.52 83.96C100.189 83.8533 99.8105 83.8 99.3839 83.8C98.7972 83.8 98.3279 83.928 97.9759 84.184C97.6239 84.44 97.4479 84.7653 97.4479 85.16C97.4479 85.4053 97.5279 85.6027 97.6879 85.752C97.8479 85.9013 98.0772 86.0293 98.3759 86.136C98.6745 86.232 99.1119 86.344 99.6879 86.472C100.755 86.7067 101.512 86.9947 101.96 87.336C102.419 87.6773 102.648 88.1733 102.648 88.824C102.648 89.5387 102.365 90.1147 101.8 90.552C101.235 90.9893 100.504 91.208 99.6079 91.208ZM110.178 89.128C110.253 89.0533 110.333 89.016 110.418 89.016C110.493 89.016 110.562 89.048 110.626 89.112L110.834 89.304C110.909 89.3787 110.946 89.4587 110.946 89.544C110.946 89.608 110.914 89.6827 110.85 89.768C110.327 90.2907 109.821 90.664 109.33 90.888C108.839 91.1013 108.29 91.208 107.682 91.208C106.914 91.208 106.247 91.0373 105.682 90.696C105.117 90.3547 104.679 89.88 104.37 89.272C104.061 88.6533 103.906 87.9387 103.906 87.128C103.906 86.3067 104.055 85.5813 104.354 84.952C104.663 84.312 105.095 83.816 105.65 83.464C106.205 83.1013 106.845 82.92 107.57 82.92C108.647 82.92 109.495 83.256 110.114 83.928C110.733 84.6 111.042 85.5067 111.042 86.648V86.84C111.031 86.936 110.994 87.0107 110.93 87.064C110.877 87.1173 110.802 87.144 110.706 87.144H104.978C105.01 88.04 105.245 88.7973 105.682 89.416C106.13 90.024 106.797 90.328 107.682 90.328C108.162 90.328 108.583 90.2427 108.946 90.072C109.319 89.8907 109.73 89.576 110.178 89.128ZM107.57 83.8C106.866 83.8 106.285 84.0187 105.826 84.456C105.378 84.8827 105.106 85.512 105.01 86.344H109.986C109.965 85.5653 109.741 84.9467 109.314 84.488C108.887 84.0293 108.306 83.8 107.57 83.8ZM115.926 80.328C115.446 80.328 115.105 80.456 114.902 80.712C114.7 80.9573 114.598 81.3733 114.598 81.96V83.112H116.358C116.572 83.112 116.678 83.2187 116.678 83.432V83.592C116.678 83.8053 116.572 83.912 116.358 83.912H114.598V90.68C114.598 90.8933 114.492 91 114.278 91H113.862C113.649 91 113.542 90.8933 113.542 90.68V83.912H112.358C112.145 83.912 112.038 83.8053 112.038 83.592V83.432C112.038 83.2187 112.145 83.112 112.358 83.112H113.542V81.784C113.542 81.048 113.734 80.472 114.118 80.056C114.513 79.64 115.073 79.432 115.798 79.432C116.204 79.432 116.62 79.4907 117.046 79.608C117.249 79.672 117.324 79.8053 117.27 80.008L117.206 80.232C117.153 80.3813 117.046 80.456 116.886 80.456C116.854 80.456 116.785 80.4453 116.678 80.424C116.444 80.36 116.193 80.328 115.926 80.328ZM118.759 81.112C118.546 81.112 118.364 81.0373 118.215 80.888C118.076 80.7387 118.007 80.5573 118.007 80.344C118.007 80.1307 118.076 79.9547 118.215 79.816C118.364 79.6773 118.546 79.608 118.759 79.608C118.983 79.608 119.164 79.6773 119.303 79.816C119.452 79.9547 119.527 80.1307 119.527 80.344C119.527 80.5573 119.452 80.7387 119.303 80.888C119.164 81.0373 118.983 81.112 118.759 81.112ZM118.551 91C118.338 91 118.231 90.8933 118.231 90.68V83.432C118.231 83.2187 118.338 83.112 118.551 83.112H118.967C119.18 83.112 119.287 83.2187 119.287 83.432V90.68C119.287 90.8933 119.18 91 118.967 91H118.551ZM125.157 82.92C126.085 82.92 126.784 83.176 127.253 83.688C127.733 84.2 127.973 84.84 127.973 85.608V90.68C127.973 90.8933 127.866 91 127.653 91H127.237C127.024 91 126.917 90.8933 126.917 90.68V85.96C126.917 85.256 126.746 84.7227 126.405 84.36C126.064 83.9973 125.573 83.816 124.933 83.816C124.528 83.816 124.154 83.9173 123.813 84.12C123.472 84.312 123.2 84.5787 122.997 84.92C122.794 85.2613 122.693 85.6347 122.693 86.04V90.68C122.693 90.8933 122.586 91 122.373 91H121.957C121.744 91 121.637 90.8933 121.637 90.68V83.432C121.637 83.2187 121.744 83.112 121.957 83.112H122.309C122.522 83.112 122.629 83.2187 122.629 83.432V84.2C122.896 83.7733 123.248 83.4533 123.685 83.24C124.122 83.0267 124.613 82.92 125.157 82.92ZM133.829 82.92C134.757 82.92 135.456 83.176 135.925 83.688C136.405 84.2 136.645 84.84 136.645 85.608V90.68C136.645 90.8933 136.538 91 136.325 91H135.909C135.696 91 135.589 90.8933 135.589 90.68V85.96C135.589 85.256 135.418 84.7227 135.077 84.36C134.736 83.9973 134.245 83.816 133.605 83.816C133.2 83.816 132.826 83.9173 132.485 84.12C132.144 84.312 131.872 84.5787 131.669 84.92C131.466 85.2613 131.365 85.6347 131.365 86.04V90.68C131.365 90.8933 131.258 91 131.045 91H130.629C130.416 91 130.309 90.8933 130.309 90.68V83.432C130.309 83.2187 130.416 83.112 130.629 83.112H130.981C131.194 83.112 131.301 83.2187 131.301 83.432V84.2C131.568 83.7733 131.92 83.4533 132.357 83.24C132.794 83.0267 133.285 82.92 133.829 82.92ZM148.341 83.8C148.448 83.8 148.522 83.832 148.565 83.896C148.618 83.96 148.634 84.0453 148.613 84.152L147.813 87.976C147.738 88.296 147.701 88.5733 147.701 88.808C147.701 89.6293 148.106 90.04 148.917 90.04C149.312 90.04 149.674 89.9067 150.005 89.64C150.336 89.3627 150.597 88.968 150.789 88.456C150.981 87.944 151.077 87.3413 151.077 86.648C151.077 85.4533 150.821 84.44 150.309 83.608C149.797 82.7653 149.114 82.1307 148.261 81.704C147.418 81.2773 146.485 81.064 145.461 81.064C144.288 81.064 143.248 81.3413 142.341 81.896C141.434 82.44 140.73 83.192 140.229 84.152C139.728 85.1013 139.477 86.1627 139.477 87.336C139.477 88.4773 139.717 89.5013 140.197 90.408C140.677 91.304 141.386 92.008 142.325 92.52C143.264 93.0427 144.394 93.304 145.717 93.304H148.805C149.018 93.304 149.125 93.4107 149.125 93.624V93.72C149.125 93.9333 149.018 94.04 148.805 94.04H145.477C144.069 94.04 142.842 93.752 141.797 93.176C140.762 92.6107 139.968 91.8213 139.413 90.808C138.869 89.784 138.597 88.616 138.597 87.304C138.597 85.9707 138.874 84.776 139.429 83.72C139.984 82.6533 140.778 81.8213 141.813 81.224C142.848 80.616 144.048 80.312 145.413 80.312C146.682 80.312 147.813 80.5733 148.805 81.096C149.797 81.608 150.57 82.3387 151.125 83.288C151.68 84.2373 151.957 85.3413 151.957 86.6C151.957 87.4427 151.824 88.1787 151.557 88.808C151.29 89.4373 150.922 89.928 150.453 90.28C149.984 90.6213 149.45 90.792 148.853 90.792C148.17 90.792 147.674 90.6267 147.365 90.296C147.066 89.9547 146.901 89.5707 146.869 89.144C146.528 89.6773 146.133 90.088 145.685 90.376C145.237 90.6533 144.704 90.792 144.085 90.792C143.381 90.792 142.826 90.584 142.421 90.168C142.016 89.7413 141.813 89.1493 141.813 88.392C141.813 87.6453 141.968 86.9093 142.277 86.184C142.597 85.448 143.045 84.8453 143.621 84.376C144.197 83.9067 144.853 83.672 145.589 83.672C146.144 83.672 146.586 83.7947 146.917 84.04C147.258 84.2747 147.472 84.5947 147.557 85L147.733 84.088C147.765 83.896 147.882 83.8 148.085 83.8H148.341ZM144.213 89.976C144.842 89.976 145.37 89.7573 145.797 89.32C146.234 88.872 146.56 88.344 146.773 87.736C146.986 87.1173 147.093 86.568 147.093 86.088C147.093 85.544 146.981 85.1387 146.757 84.872C146.533 84.5947 146.154 84.456 145.621 84.456C145.077 84.456 144.586 84.648 144.149 85.032C143.722 85.416 143.386 85.9067 143.141 86.504C142.906 87.1013 142.789 87.6987 142.789 88.296C142.789 88.8613 142.912 89.2827 143.157 89.56C143.413 89.8373 143.765 89.976 144.213 89.976ZM156.942 80.328C156.462 80.328 156.121 80.456 155.918 80.712C155.715 80.9573 155.614 81.3733 155.614 81.96V83.112H157.374C157.587 83.112 157.694 83.2187 157.694 83.432V83.592C157.694 83.8053 157.587 83.912 157.374 83.912H155.614V90.68C155.614 90.8933 155.507 91 155.294 91H154.878C154.665 91 154.558 90.8933 154.558 90.68V83.912H153.374C153.161 83.912 153.054 83.8053 153.054 83.592V83.432C153.054 83.2187 153.161 83.112 153.374 83.112H154.558V81.784C154.558 81.048 154.75 80.472 155.134 80.056C155.529 79.64 156.089 79.432 156.814 79.432C157.219 79.432 157.635 79.4907 158.062 79.608C158.265 79.672 158.339 79.8053 158.286 80.008L158.222 80.232C158.169 80.3813 158.062 80.456 157.902 80.456C157.87 80.456 157.801 80.4453 157.694 80.424C157.459 80.36 157.209 80.328 156.942 80.328ZM159.775 81.112C159.561 81.112 159.38 81.0373 159.231 80.888C159.092 80.7387 159.023 80.5573 159.023 80.344C159.023 80.1307 159.092 79.9547 159.231 79.816C159.38 79.6773 159.561 79.608 159.775 79.608C159.999 79.608 160.18 79.6773 160.319 79.816C160.468 79.9547 160.543 80.1307 160.543 80.344C160.543 80.5573 160.468 80.7387 160.319 80.888C160.18 81.0373 159.999 81.112 159.775 81.112ZM159.567 91C159.353 91 159.247 90.8933 159.247 90.68V83.432C159.247 83.2187 159.353 83.112 159.567 83.112H159.983C160.196 83.112 160.303 83.2187 160.303 83.432V90.68C160.303 90.8933 160.196 91 159.983 91H159.567ZM166.173 82.92C167.101 82.92 167.799 83.176 168.269 83.688C168.749 84.2 168.989 84.84 168.989 85.608V90.68C168.989 90.8933 168.882 91 168.669 91H168.253C168.039 91 167.933 90.8933 167.933 90.68V85.96C167.933 85.256 167.762 84.7227 167.421 84.36C167.079 83.9973 166.589 83.816 165.949 83.816C165.543 83.816 165.17 83.9173 164.829 84.12C164.487 84.312 164.215 84.5787 164.013 84.92C163.81 85.2613 163.709 85.6347 163.709 86.04V90.68C163.709 90.8933 163.602 91 163.389 91H162.973C162.759 91 162.653 90.8933 162.653 90.68V83.432C162.653 83.2187 162.759 83.112 162.973 83.112H163.325C163.538 83.112 163.645 83.2187 163.645 83.432V84.2C163.911 83.7733 164.263 83.4533 164.701 83.24C165.138 83.0267 165.629 82.92 166.173 82.92ZM174.845 82.92C175.773 82.92 176.471 83.176 176.941 83.688C177.421 84.2 177.661 84.84 177.661 85.608V90.68C177.661 90.8933 177.554 91 177.341 91H176.925C176.711 91 176.605 90.8933 176.605 90.68V85.96C176.605 85.256 176.434 84.7227 176.093 84.36C175.751 83.9973 175.261 83.816 174.621 83.816C174.215 83.816 173.842 83.9173 173.501 84.12C173.159 84.312 172.887 84.5787 172.685 84.92C172.482 85.2613 172.381 85.6347 172.381 86.04V90.68C172.381 90.8933 172.274 91 172.061 91H171.645C171.431 91 171.325 90.8933 171.325 90.68V83.432C171.325 83.2187 171.431 83.112 171.645 83.112H171.997C172.21 83.112 172.317 83.2187 172.317 83.432V84.2C172.583 83.7733 172.935 83.4533 173.373 83.24C173.81 83.0267 174.301 82.92 174.845 82.92ZM180.429 91.112C180.205 91.112 180.013 91.032 179.853 90.872C179.693 90.712 179.613 90.52 179.613 90.296C179.613 90.072 179.693 89.88 179.853 89.72C180.013 89.56 180.205 89.48 180.429 89.48C180.653 89.48 180.845 89.56 181.005 89.72C181.165 89.88 181.245 90.072 181.245 90.296C181.245 90.52 181.165 90.712 181.005 90.872C180.845 91.032 180.653 91.112 180.429 91.112ZM186.751 82.92C187.679 82.92 188.378 83.176 188.847 83.688C189.327 84.2 189.567 84.84 189.567 85.608V90.68C189.567 90.8933 189.46 91 189.247 91H188.831C188.618 91 188.511 90.8933 188.511 90.68V85.96C188.511 85.256 188.34 84.7227 187.999 84.36C187.658 83.9973 187.167 83.816 186.527 83.816C186.122 83.816 185.748 83.9173 185.407 84.12C185.066 84.312 184.794 84.5787 184.591 84.92C184.388 85.2613 184.287 85.6347 184.287 86.04V90.68C184.287 90.8933 184.18 91 183.967 91H183.551C183.338 91 183.231 90.8933 183.231 90.68V83.432C183.231 83.2187 183.338 83.112 183.551 83.112H183.903C184.116 83.112 184.223 83.2187 184.223 83.432V84.2C184.49 83.7733 184.842 83.4533 185.279 83.24C185.716 83.0267 186.207 82.92 186.751 82.92ZM195.167 91.208C194.431 91.208 193.775 91.032 193.199 90.68C192.623 90.328 192.175 89.8427 191.855 89.224C191.535 88.5947 191.375 87.8747 191.375 87.064C191.375 86.2533 191.535 85.5387 191.855 84.92C192.175 84.2907 192.623 83.8 193.199 83.448C193.775 83.096 194.431 82.92 195.167 82.92C195.903 82.92 196.559 83.096 197.135 83.448C197.711 83.8 198.159 84.2907 198.479 84.92C198.799 85.5387 198.959 86.2533 198.959 87.064C198.959 87.8747 198.799 88.5947 198.479 89.224C198.159 89.8427 197.711 90.328 197.135 90.68C196.559 91.032 195.903 91.208 195.167 91.208ZM195.167 90.328C195.988 90.328 196.644 90.0293 197.135 89.432C197.625 88.824 197.871 88.0347 197.871 87.064C197.871 86.0933 197.625 85.3093 197.135 84.712C196.644 84.104 195.988 83.8 195.167 83.8C194.345 83.8 193.689 84.104 193.199 84.712C192.708 85.3093 192.463 86.0933 192.463 87.064C192.463 88.0347 192.708 88.824 193.199 89.432C193.689 90.0293 194.345 90.328 195.167 90.328Z" fill="#474445"/>
<path d="M74 63H269V61H74V63ZM272 66V106H274V66H272ZM269 109H74V111H269V109ZM71 106V66H69V106H71ZM74 109C72.3431 109 71 107.657 71 106H69C69 108.761 71.2386 111 74 111V109ZM272 106C272 107.657 270.657 109 269 109V111C271.761 111 274 108.761 274 106H272ZM269 63C270.657 63 272 64.3431 272 66H274C274 63.2386 271.761 61 269 61V63ZM74 61C71.2386 61 69 63.2386 69 66H71C71 64.3431 72.3431 63 74 63V61Z" fill="#C3CCD9"/>
<path d="M71.568 164C71.4187 164 71.2973 163.958 71.204 163.874C71.12 163.781 71.078 163.659 71.078 163.51V154.55C71.078 154.391 71.12 154.27 71.204 154.186C71.2973 154.102 71.4187 154.06 71.568 154.06H75.586C76.5753 154.06 77.364 154.335 77.952 154.886C78.54 155.427 78.834 156.169 78.834 157.112C78.834 158.055 78.54 158.797 77.952 159.338C77.364 159.879 76.5753 160.15 75.586 160.15H72.674V163.51C72.674 163.659 72.632 163.781 72.548 163.874C72.464 163.958 72.3427 164 72.184 164H71.568ZM75.334 158.82C75.9313 158.82 76.398 158.675 76.734 158.386C77.0793 158.087 77.252 157.663 77.252 157.112C77.252 156.552 77.0793 156.127 76.734 155.838C76.398 155.539 75.9313 155.39 75.334 155.39H72.674V158.82H75.334ZM82.8851 156.888C83.8185 156.888 84.5371 157.107 85.0411 157.546C85.5451 157.975 85.7971 158.549 85.7971 159.268V163.51C85.7971 163.659 85.7551 163.781 85.6711 163.874C85.5871 163.958 85.4658 164 85.3071 164H84.9431C84.7938 164 84.6725 163.958 84.5791 163.874C84.4951 163.781 84.4531 163.659 84.4531 163.51V163.202C84.2291 163.529 83.9211 163.781 83.5291 163.958C83.1371 164.135 82.6798 164.224 82.1571 164.224C81.4385 164.224 80.8458 164.065 80.3791 163.748C79.9218 163.421 79.6931 162.931 79.6931 162.278C79.6931 161.55 79.9638 161.013 80.5051 160.668C81.0558 160.313 81.8165 160.047 82.7871 159.87L84.3691 159.576V159.324C84.3691 158.941 84.2338 158.647 83.9631 158.442C83.7018 158.227 83.3518 158.12 82.9131 158.12C82.5398 158.12 82.2131 158.185 81.9331 158.316C81.6625 158.437 81.3685 158.643 81.0511 158.932C80.9298 159.035 80.8131 159.086 80.7011 159.086C80.5891 159.086 80.4725 159.035 80.3511 158.932L80.1271 158.736C80.0058 158.624 79.9451 158.503 79.9451 158.372C79.9451 158.251 80.0011 158.134 80.1131 158.022C80.5145 157.639 80.9391 157.355 81.3871 157.168C81.8351 156.981 82.3345 156.888 82.8851 156.888ZM82.3671 163.034C82.9271 163.034 83.3985 162.885 83.7811 162.586C84.1731 162.287 84.3691 161.858 84.3691 161.298V160.654L83.1511 160.906C82.4698 161.046 81.9658 161.205 81.6391 161.382C81.3125 161.559 81.1491 161.83 81.1491 162.194C81.1491 162.455 81.2565 162.661 81.4711 162.81C81.6858 162.959 81.9845 163.034 82.3671 163.034ZM90.1527 164.21C89.5833 164.21 89.0747 164.14 88.6267 164C88.188 163.851 87.74 163.594 87.2827 163.23C87.1427 163.127 87.0727 163.011 87.0727 162.88C87.0727 162.777 87.124 162.665 87.2267 162.544L87.4367 162.306C87.5487 162.175 87.67 162.11 87.8007 162.11C87.9033 162.11 88.0153 162.157 88.1367 162.25C88.5287 162.539 88.874 162.74 89.1727 162.852C89.4713 162.955 89.8073 163.006 90.1807 163.006C90.582 163.006 90.9087 162.927 91.1607 162.768C91.422 162.6 91.5527 162.376 91.5527 162.096C91.5527 161.881 91.478 161.713 91.3287 161.592C91.1887 161.461 91.002 161.363 90.7687 161.298C90.5353 161.223 90.19 161.139 89.7327 161.046C89.0887 160.906 88.5847 160.757 88.2207 160.598C87.866 160.43 87.6093 160.22 87.4507 159.968C87.292 159.716 87.2127 159.394 87.2127 159.002C87.2127 158.601 87.3247 158.241 87.5487 157.924C87.782 157.607 88.104 157.355 88.5147 157.168C88.9347 156.981 89.4247 156.888 89.9847 156.888C90.4887 156.888 90.9367 156.944 91.3287 157.056C91.73 157.168 92.122 157.359 92.5047 157.63C92.654 157.742 92.7287 157.868 92.7287 158.008C92.7287 158.101 92.682 158.209 92.5887 158.33L92.4067 158.554C92.304 158.685 92.178 158.75 92.0287 158.75C91.9167 158.75 91.8093 158.713 91.7067 158.638C91.3987 158.433 91.114 158.293 90.8527 158.218C90.5913 158.134 90.2973 158.092 89.9707 158.092C89.5693 158.092 89.2473 158.171 89.0047 158.33C88.762 158.489 88.6407 158.694 88.6407 158.946C88.6407 159.114 88.6967 159.249 88.8087 159.352C88.93 159.445 89.098 159.529 89.3127 159.604C89.5367 159.669 89.8867 159.753 90.3627 159.856C91.0067 159.996 91.5153 160.155 91.8887 160.332C92.2713 160.5 92.5513 160.719 92.7287 160.99C92.9153 161.251 93.0087 161.592 93.0087 162.012C93.0087 162.665 92.7473 163.197 92.2247 163.608C91.7113 164.009 91.0207 164.21 90.1527 164.21ZM96.9476 164.21C96.3783 164.21 95.8696 164.14 95.4216 164C94.9829 163.851 94.5349 163.594 94.0776 163.23C93.9376 163.127 93.8676 163.011 93.8676 162.88C93.8676 162.777 93.9189 162.665 94.0216 162.544L94.2316 162.306C94.3436 162.175 94.4649 162.11 94.5956 162.11C94.6983 162.11 94.8103 162.157 94.9316 162.25C95.3236 162.539 95.6689 162.74 95.9676 162.852C96.2663 162.955 96.6023 163.006 96.9756 163.006C97.3769 163.006 97.7036 162.927 97.9556 162.768C98.2169 162.6 98.3476 162.376 98.3476 162.096C98.3476 161.881 98.2729 161.713 98.1236 161.592C97.9836 161.461 97.7969 161.363 97.5636 161.298C97.3303 161.223 96.9849 161.139 96.5276 161.046C95.8836 160.906 95.3796 160.757 95.0156 160.598C94.6609 160.43 94.4043 160.22 94.2456 159.968C94.0869 159.716 94.0076 159.394 94.0076 159.002C94.0076 158.601 94.1196 158.241 94.3436 157.924C94.5769 157.607 94.8989 157.355 95.3096 157.168C95.7296 156.981 96.2196 156.888 96.7796 156.888C97.2836 156.888 97.7316 156.944 98.1236 157.056C98.5249 157.168 98.9169 157.359 99.2996 157.63C99.4489 157.742 99.5236 157.868 99.5236 158.008C99.5236 158.101 99.4769 158.209 99.3836 158.33L99.2016 158.554C99.0989 158.685 98.9729 158.75 98.8236 158.75C98.7116 158.75 98.6043 158.713 98.5016 158.638C98.1936 158.433 97.9089 158.293 97.6476 158.218C97.3863 158.134 97.0923 158.092 96.7656 158.092C96.3643 158.092 96.0423 158.171 95.7996 158.33C95.5569 158.489 95.4356 158.694 95.4356 158.946C95.4356 159.114 95.4916 159.249 95.6036 159.352C95.7249 159.445 95.8929 159.529 96.1076 159.604C96.3316 159.669 96.6816 159.753 97.1576 159.856C97.8016 159.996 98.3103 160.155 98.6836 160.332C99.0663 160.5 99.3463 160.719 99.5236 160.99C99.7103 161.251 99.8036 161.592 99.8036 162.012C99.8036 162.665 99.5423 163.197 99.0196 163.608C98.5063 164.009 97.8156 164.21 96.9476 164.21ZM108.825 157.518C108.891 157.238 109.073 157.098 109.371 157.098H109.889C110.029 157.098 110.137 157.131 110.211 157.196C110.295 157.252 110.337 157.341 110.337 157.462C110.337 157.49 110.328 157.551 110.309 157.644L108.643 163.58C108.578 163.86 108.396 164 108.097 164H107.187C106.907 164 106.725 163.86 106.641 163.58L106.179 161.956C105.974 161.237 105.745 160.337 105.493 159.254L105.423 158.946C105.171 160.085 104.929 161.093 104.695 161.97L104.261 163.58C104.196 163.86 104.014 164 103.715 164H102.819C102.539 164 102.357 163.86 102.273 163.58L100.593 157.644C100.575 157.551 100.565 157.49 100.565 157.462C100.565 157.341 100.603 157.252 100.677 157.196C100.761 157.131 100.873 157.098 101.013 157.098H101.559C101.858 157.098 102.04 157.238 102.105 157.518L102.609 159.506C102.805 160.234 103.034 161.205 103.295 162.418L103.351 162.698C103.622 161.447 103.874 160.383 104.107 159.506L104.639 157.518C104.705 157.238 104.887 157.098 105.185 157.098H105.717C106.016 157.098 106.198 157.238 106.263 157.518L106.809 159.506C107.071 160.477 107.332 161.541 107.593 162.698C107.789 161.699 108.032 160.635 108.321 159.506L108.825 157.518ZM114.581 164.21C113.9 164.21 113.293 164.056 112.761 163.748C112.238 163.44 111.828 163.011 111.529 162.46C111.23 161.9 111.081 161.261 111.081 160.542C111.081 159.823 111.23 159.189 111.529 158.638C111.828 158.087 112.238 157.658 112.761 157.35C113.293 157.042 113.9 156.888 114.581 156.888C115.253 156.888 115.855 157.042 116.387 157.35C116.919 157.658 117.334 158.092 117.633 158.652C117.932 159.203 118.081 159.833 118.081 160.542C118.081 161.261 117.932 161.9 117.633 162.46C117.334 163.011 116.919 163.44 116.387 163.748C115.855 164.056 115.253 164.21 114.581 164.21ZM114.581 162.964C115.178 162.964 115.659 162.745 116.023 162.306C116.387 161.858 116.569 161.27 116.569 160.542C116.569 159.823 116.387 159.245 116.023 158.806C115.659 158.367 115.178 158.148 114.581 158.148C113.984 158.148 113.503 158.367 113.139 158.806C112.775 159.245 112.593 159.823 112.593 160.542C112.593 161.27 112.775 161.858 113.139 162.306C113.503 162.745 113.984 162.964 114.581 162.964ZM122.497 157.028C122.702 157.028 122.912 157.051 123.127 157.098C123.379 157.154 123.505 157.303 123.505 157.546C123.505 157.611 123.5 157.658 123.491 157.686L123.421 158.022C123.365 158.283 123.225 158.414 123.001 158.414L122.875 158.4C122.707 158.372 122.558 158.358 122.427 158.358C121.96 158.358 121.582 158.545 121.293 158.918C121.013 159.282 120.873 159.791 120.873 160.444V163.51C120.873 163.659 120.831 163.781 120.747 163.874C120.663 163.958 120.542 164 120.383 164H119.879C119.73 164 119.608 163.958 119.515 163.874C119.431 163.781 119.389 163.659 119.389 163.51V157.588C119.389 157.429 119.431 157.308 119.515 157.224C119.608 157.14 119.73 157.098 119.879 157.098H120.285C120.444 157.098 120.565 157.14 120.649 157.224C120.733 157.308 120.775 157.429 120.775 157.588V158.134C120.943 157.789 121.172 157.518 121.461 157.322C121.75 157.126 122.096 157.028 122.497 157.028ZM129.114 154.536C129.114 154.377 129.156 154.256 129.24 154.172C129.334 154.088 129.455 154.046 129.604 154.046H130.108C130.267 154.046 130.388 154.088 130.472 154.172C130.556 154.256 130.598 154.377 130.598 154.536V163.51C130.598 163.659 130.556 163.781 130.472 163.874C130.388 163.958 130.267 164 130.108 164H129.702C129.553 164 129.432 163.958 129.338 163.874C129.254 163.781 129.212 163.659 129.212 163.51V163.02C128.727 163.804 127.966 164.196 126.93 164.196C126.352 164.196 125.829 164.047 125.362 163.748C124.905 163.449 124.546 163.025 124.284 162.474C124.023 161.923 123.892 161.284 123.892 160.556C123.892 159.837 124.023 159.203 124.284 158.652C124.555 158.101 124.924 157.677 125.39 157.378C125.857 157.079 126.38 156.93 126.958 156.93C127.91 156.93 128.629 157.261 129.114 157.924V154.536ZM127.238 162.922C127.808 162.922 128.274 162.712 128.638 162.292C129.002 161.863 129.184 161.284 129.184 160.556C129.184 159.828 129.002 159.254 128.638 158.834C128.274 158.414 127.808 158.204 127.238 158.204C126.688 158.204 126.244 158.419 125.908 158.848C125.572 159.277 125.404 159.847 125.404 160.556C125.404 161.275 125.568 161.849 125.894 162.278C126.23 162.707 126.678 162.922 127.238 162.922Z" fill="#474445"/>
<path d="M70 176C70 173.791 71.7909 172 74 172H269C271.209 172 273 173.791 273 176V216C273 218.209 271.209 220 269 220H74C71.7909 220 70 218.209 70 216V176Z" fill="white"/>
<path d="M81.92 198.888C81.4293 198.888 80.976 198.765 80.56 198.52C80.1547 198.275 79.8293 197.944 79.584 197.528C79.3493 197.112 79.232 196.664 79.232 196.184C79.232 195.693 79.3493 195.245 79.584 194.84C79.8293 194.424 80.1547 194.099 80.56 193.864C80.976 193.619 81.4293 193.496 81.92 193.496C82.4 193.496 82.848 193.619 83.264 193.864C83.68 194.099 84.0107 194.424 84.256 194.84C84.5013 195.245 84.624 195.693 84.624 196.184C84.624 196.664 84.5013 197.112 84.256 197.528C84.0107 197.944 83.68 198.275 83.264 198.52C82.848 198.765 82.4 198.888 81.92 198.888ZM89.7794 198.888C89.2887 198.888 88.8354 198.765 88.4194 198.52C88.014 198.275 87.6887 197.944 87.4434 197.528C87.2087 197.112 87.0914 196.664 87.0914 196.184C87.0914 195.693 87.2087 195.245 87.4434 194.84C87.6887 194.424 88.014 194.099 88.4194 193.864C88.8354 193.619 89.2887 193.496 89.7794 193.496C90.2594 193.496 90.7074 193.619 91.1234 193.864C91.5394 194.099 91.87 194.424 92.1154 194.84C92.3607 195.245 92.4834 195.693 92.4834 196.184C92.4834 196.664 92.3607 197.112 92.1154 197.528C91.87 197.944 91.5394 198.275 91.1234 198.52C90.7074 198.765 90.2594 198.888 89.7794 198.888ZM97.6388 198.888C97.1481 198.888 96.6948 198.765 96.2788 198.52C95.8734 198.275 95.5481 197.944 95.3028 197.528C95.0681 197.112 94.9508 196.664 94.9508 196.184C94.9508 195.693 95.0681 195.245 95.3028 194.84C95.5481 194.424 95.8734 194.099 96.2788 193.864C96.6948 193.619 97.1481 193.496 97.6388 193.496C98.1188 193.496 98.5668 193.619 98.9828 193.864C99.3988 194.099 99.7294 194.424 99.9748 194.84C100.22 195.245 100.343 195.693 100.343 196.184C100.343 196.664 100.22 197.112 99.9748 197.528C99.7294 197.944 99.3988 198.275 98.9828 198.52C98.5668 198.765 98.1188 198.888 97.6388 198.888ZM105.498 198.888C105.007 198.888 104.554 198.765 104.138 198.52C103.733 198.275 103.407 197.944 103.162 197.528C102.927 197.112 102.81 196.664 102.81 196.184C102.81 195.693 102.927 195.245 103.162 194.84C103.407 194.424 103.733 194.099 104.138 193.864C104.554 193.619 105.007 193.496 105.498 193.496C105.978 193.496 106.426 193.619 106.842 193.864C107.258 194.099 107.589 194.424 107.834 194.84C108.079 195.245 108.202 195.693 108.202 196.184C108.202 196.664 108.079 197.112 107.834 197.528C107.589 197.944 107.258 198.275 106.842 198.52C106.426 198.765 105.978 198.888 105.498 198.888ZM113.358 198.888C112.867 198.888 112.414 198.765 111.998 198.52C111.592 198.275 111.267 197.944 111.022 197.528C110.787 197.112 110.67 196.664 110.67 196.184C110.67 195.693 110.787 195.245 111.022 194.84C111.267 194.424 111.592 194.099 111.998 193.864C112.414 193.619 112.867 193.496 113.358 193.496C113.838 193.496 114.286 193.619 114.702 193.864C115.118 194.099 115.448 194.424 115.694 194.84C115.939 195.245 116.062 195.693 116.062 196.184C116.062 196.664 115.939 197.112 115.694 197.528C115.448 197.944 115.118 198.275 114.702 198.52C114.286 198.765 113.838 198.888 113.358 198.888ZM121.217 198.888C120.726 198.888 120.273 198.765 119.857 198.52C119.452 198.275 119.126 197.944 118.881 197.528C118.646 197.112 118.529 196.664 118.529 196.184C118.529 195.693 118.646 195.245 118.881 194.84C119.126 194.424 119.452 194.099 119.857 193.864C120.273 193.619 120.726 193.496 121.217 193.496C121.697 193.496 122.145 193.619 122.561 193.864C122.977 194.099 123.308 194.424 123.553 194.84C123.798 195.245 123.921 195.693 123.921 196.184C123.921 196.664 123.798 197.112 123.553 197.528C123.308 197.944 122.977 198.275 122.561 198.52C122.145 198.765 121.697 198.888 121.217 198.888ZM129.076 198.888C128.586 198.888 128.132 198.765 127.716 198.52C127.311 198.275 126.986 197.944 126.74 197.528C126.506 197.112 126.388 196.664 126.388 196.184C126.388 195.693 126.506 195.245 126.74 194.84C126.986 194.424 127.311 194.099 127.716 193.864C128.132 193.619 128.586 193.496 129.076 193.496C129.556 193.496 130.004 193.619 130.42 193.864C130.836 194.099 131.167 194.424 131.412 194.84C131.658 195.245 131.78 195.693 131.78 196.184C131.78 196.664 131.658 197.112 131.412 197.528C131.167 197.944 130.836 198.275 130.42 198.52C130.004 198.765 129.556 198.888 129.076 198.888ZM136.936 198.888C136.445 198.888 135.992 198.765 135.576 198.52C135.17 198.275 134.845 197.944 134.6 197.528C134.365 197.112 134.248 196.664 134.248 196.184C134.248 195.693 134.365 195.245 134.6 194.84C134.845 194.424 135.17 194.099 135.576 193.864C135.992 193.619 136.445 193.496 136.936 193.496C137.416 193.496 137.864 193.619 138.28 193.864C138.696 194.099 139.026 194.424 139.272 194.84C139.517 195.245 139.64 195.693 139.64 196.184C139.64 196.664 139.517 197.112 139.272 197.528C139.026 197.944 138.696 198.275 138.28 198.52C137.864 198.765 137.416 198.888 136.936 198.888ZM144.795 198.888C144.304 198.888 143.851 198.765 143.435 198.52C143.03 198.275 142.704 197.944 142.459 197.528C142.224 197.112 142.107 196.664 142.107 196.184C142.107 195.693 142.224 195.245 142.459 194.84C142.704 194.424 143.03 194.099 143.435 193.864C143.851 193.619 144.304 193.496 144.795 193.496C145.275 193.496 145.723 193.619 146.139 193.864C146.555 194.099 146.886 194.424 147.131 194.84C147.376 195.245 147.499 195.693 147.499 196.184C147.499 196.664 147.376 197.112 147.131 197.528C146.886 197.944 146.555 198.275 146.139 198.52C145.723 198.765 145.275 198.888 144.795 198.888ZM152.654 198.888C152.164 198.888 151.71 198.765 151.294 198.52C150.889 198.275 150.564 197.944 150.318 197.528C150.084 197.112 149.966 196.664 149.966 196.184C149.966 195.693 150.084 195.245 150.318 194.84C150.564 194.424 150.889 194.099 151.294 193.864C151.71 193.619 152.164 193.496 152.654 193.496C153.134 193.496 153.582 193.619 153.998 193.864C154.414 194.099 154.745 194.424 154.99 194.84C155.236 195.245 155.358 195.693 155.358 196.184C155.358 196.664 155.236 197.112 154.99 197.528C154.745 197.944 154.414 198.275 153.998 198.52C153.582 198.765 153.134 198.888 152.654 198.888ZM160.514 198.888C160.023 198.888 159.57 198.765 159.154 198.52C158.748 198.275 158.423 197.944 158.178 197.528C157.943 197.112 157.826 196.664 157.826 196.184C157.826 195.693 157.943 195.245 158.178 194.84C158.423 194.424 158.748 194.099 159.154 193.864C159.57 193.619 160.023 193.496 160.514 193.496C160.994 193.496 161.442 193.619 161.858 193.864C162.274 194.099 162.604 194.424 162.85 194.84C163.095 195.245 163.218 195.693 163.218 196.184C163.218 196.664 163.095 197.112 162.85 197.528C162.604 197.944 162.274 198.275 161.858 198.52C161.442 198.765 160.994 198.888 160.514 198.888ZM168.373 198.888C167.882 198.888 167.429 198.765 167.013 198.52C166.608 198.275 166.282 197.944 166.037 197.528C165.802 197.112 165.685 196.664 165.685 196.184C165.685 195.693 165.802 195.245 166.037 194.84C166.282 194.424 166.608 194.099 167.013 193.864C167.429 193.619 167.882 193.496 168.373 193.496C168.853 193.496 169.301 193.619 169.717 193.864C170.133 194.099 170.464 194.424 170.709 194.84C170.954 195.245 171.077 195.693 171.077 196.184C171.077 196.664 170.954 197.112 170.709 197.528C170.464 197.944 170.133 198.275 169.717 198.52C169.301 198.765 168.853 198.888 168.373 198.888Z" fill="#474445"/>
<path d="M74 173H269V171H74V173ZM272 176V216H274V176H272ZM269 219H74V221H269V219ZM71 216V176H69V216H71ZM74 219C72.3431 219 71 217.657 71 216H69C69 218.761 71.2386 221 74 221V219ZM272 216C272 217.657 270.657 219 269 219V221C271.761 221 274 218.761 274 216H272ZM269 173C270.657 173 272 174.343 272 176H274C274 173.239 271.761 171 269 171V173ZM74 171C71.2386 171 69 173.239 69 176H71C71 174.343 72.3431 173 74 173V171Z" fill="#C3CCD9"/>
</svg>
