<svg width="344" height="168" viewBox="0 0 344 168" fill="none" xmlns="http://www.w3.org/2000/svg">
<path d="M71.568 54C71.4187 54 71.2973 53.958 71.204 53.874C71.12 53.7807 71.078 53.6593 71.078 53.51V44.55C71.078 44.3913 71.12 44.27 71.204 44.186C71.2973 44.102 71.4187 44.06 71.568 44.06H77.378C77.5367 44.06 77.658 44.102 77.742 44.186C77.826 44.27 77.868 44.3913 77.868 44.55V44.914C77.868 45.0633 77.826 45.1847 77.742 45.278C77.658 45.362 77.5367 45.404 77.378 45.404H72.674V48.204H77.028C77.1867 48.204 77.308 48.246 77.392 48.33C77.476 48.414 77.518 48.5353 77.518 48.694V49.058C77.518 49.2073 77.476 49.3287 77.392 49.422C77.308 49.506 77.1867 49.548 77.028 49.548H72.674V52.656H77.518C77.6767 52.656 77.798 52.698 77.882 52.782C77.966 52.866 78.008 52.9873 78.008 53.146V53.51C78.008 53.6593 77.966 53.7807 77.882 53.874C77.798 53.958 77.6767 54 77.518 54H71.568ZM83.0223 46.888C83.8156 46.888 84.4223 47.112 84.8423 47.56C85.2716 47.9987 85.4863 48.568 85.4863 49.268V53.51C85.4863 53.6593 85.4443 53.7807 85.3603 53.874C85.2763 53.958 85.155 54 84.9963 54H84.4923C84.343 54 84.2216 53.958 84.1283 53.874C84.0443 53.7807 84.0023 53.6593 84.0023 53.51V49.73C84.0023 49.226 83.8763 48.8387 83.6243 48.568C83.3816 48.2973 83.0316 48.162 82.5743 48.162C82.1263 48.162 81.7483 48.316 81.4403 48.624C81.1416 48.932 80.9923 49.3193 80.9923 49.786V53.51C80.9923 53.6593 80.9503 53.7807 80.8663 53.874C80.7823 53.958 80.661 54 80.5023 54H79.9983C79.849 54 79.7276 53.958 79.6343 53.874C79.5503 53.7807 79.5083 53.6593 79.5083 53.51V47.588C79.5083 47.4293 79.5503 47.308 79.6343 47.224C79.7276 47.14 79.849 47.098 79.9983 47.098H80.4043C80.563 47.098 80.6843 47.14 80.7683 47.224C80.8523 47.308 80.8943 47.4293 80.8943 47.588V47.952C81.1183 47.6067 81.4123 47.3453 81.7763 47.168C82.1403 46.9813 82.5556 46.888 83.0223 46.888ZM90.3735 52.824C90.4015 52.8147 90.4435 52.81 90.4995 52.81C90.7328 52.81 90.8728 52.9453 90.9195 53.216L90.9615 53.44C90.9708 53.468 90.9755 53.5147 90.9755 53.58C90.9755 53.8133 90.8448 53.9627 90.5835 54.028C90.2102 54.112 89.8695 54.154 89.5615 54.154C88.8988 54.154 88.4182 54 88.1195 53.692C87.8302 53.384 87.6855 52.922 87.6855 52.306V48.232H86.9155C86.7662 48.232 86.6448 48.19 86.5515 48.106C86.4675 48.0127 86.4255 47.8913 86.4255 47.742V47.588C86.4255 47.4293 86.4675 47.308 86.5515 47.224C86.6448 47.14 86.7662 47.098 86.9155 47.098H87.6855V45.362C87.6855 45.2033 87.7275 45.082 87.8115 44.998C87.9048 44.914 88.0262 44.872 88.1755 44.872H88.6795C88.8382 44.872 88.9595 44.914 89.0435 44.998C89.1275 45.082 89.1695 45.2033 89.1695 45.362V47.098H90.4295C90.5882 47.098 90.7095 47.14 90.7935 47.224C90.8775 47.308 90.9195 47.4293 90.9195 47.588V47.742C90.9195 47.8913 90.8775 48.0127 90.7935 48.106C90.7095 48.19 90.5882 48.232 90.4295 48.232H89.1695V52.124C89.1695 52.3947 89.2255 52.586 89.3375 52.698C89.4588 52.81 89.6502 52.866 89.9115 52.866C90.0235 52.866 90.1775 52.852 90.3735 52.824ZM96.8644 52.236C96.9857 52.1333 97.1024 52.082 97.2144 52.082C97.3264 52.082 97.443 52.1427 97.5644 52.264L97.7604 52.474C97.863 52.5953 97.9144 52.712 97.9144 52.824C97.9144 52.9453 97.8537 53.062 97.7324 53.174C97.303 53.5473 96.8737 53.8133 96.4444 53.972C96.0244 54.1307 95.5577 54.21 95.0444 54.21C94.3257 54.21 93.7004 54.0607 93.1684 53.762C92.6457 53.4633 92.2397 53.0433 91.9504 52.502C91.6704 51.9513 91.5304 51.3167 91.5304 50.598C91.5304 49.8887 91.6657 49.254 91.9364 48.694C92.2164 48.1247 92.6084 47.6813 93.1124 47.364C93.6257 47.0467 94.223 46.888 94.9044 46.888C95.9217 46.888 96.7057 47.1913 97.2564 47.798C97.807 48.3953 98.0824 49.2213 98.0824 50.276V50.402C98.073 50.5513 98.0264 50.668 97.9424 50.752C97.8584 50.836 97.737 50.878 97.5784 50.878H92.9864C93.0424 51.494 93.243 51.998 93.5884 52.39C93.943 52.7727 94.4377 52.964 95.0724 52.964C95.4177 52.964 95.721 52.9127 95.9824 52.81C96.2437 52.698 96.5377 52.5067 96.8644 52.236ZM94.8764 48.064C94.363 48.064 93.9477 48.218 93.6304 48.526C93.3224 48.8247 93.1217 49.2493 93.0284 49.8H96.6264C96.589 49.2587 96.421 48.834 96.1224 48.526C95.8237 48.218 95.4084 48.064 94.8764 48.064ZM102.55 47.028C102.755 47.028 102.965 47.0513 103.18 47.098C103.432 47.154 103.558 47.3033 103.558 47.546C103.558 47.6113 103.553 47.658 103.544 47.686L103.474 48.022C103.418 48.2833 103.278 48.414 103.054 48.414L102.928 48.4C102.76 48.372 102.611 48.358 102.48 48.358C102.013 48.358 101.635 48.5447 101.346 48.918C101.066 49.282 100.926 49.7907 100.926 50.444V53.51C100.926 53.6593 100.884 53.7807 100.8 53.874C100.716 53.958 100.595 54 100.436 54H99.9319C99.7826 54 99.6612 53.958 99.5679 53.874C99.4839 53.7807 99.4419 53.6593 99.4419 53.51V47.588C99.4419 47.4293 99.4839 47.308 99.5679 47.224C99.6612 47.14 99.7826 47.098 99.9319 47.098H100.338C100.497 47.098 100.618 47.14 100.702 47.224C100.786 47.308 100.828 47.4293 100.828 47.588V48.134C100.996 47.7887 101.225 47.518 101.514 47.322C101.803 47.126 102.149 47.028 102.55 47.028ZM111.859 47.504C111.943 47.2333 112.125 47.098 112.405 47.098H112.909C113.049 47.098 113.157 47.1307 113.231 47.196C113.306 47.2613 113.343 47.35 113.343 47.462C113.343 47.518 113.329 47.5833 113.301 47.658L110.795 54.854C110.571 55.5073 110.291 55.9693 109.955 56.24C109.629 56.52 109.162 56.66 108.555 56.66C108.275 56.66 108.037 56.6413 107.841 56.604C107.711 56.5947 107.613 56.548 107.547 56.464C107.482 56.3893 107.449 56.296 107.449 56.184C107.449 56.1187 107.454 56.0673 107.463 56.03L107.505 55.848C107.571 55.5867 107.711 55.456 107.925 55.456C108.009 55.456 108.089 55.4607 108.163 55.47C108.238 55.4793 108.313 55.484 108.387 55.484C108.658 55.484 108.882 55.414 109.059 55.274C109.246 55.134 109.4 54.8773 109.521 54.504L109.563 54.392L107.169 47.658C107.141 47.5833 107.127 47.5133 107.127 47.448C107.127 47.336 107.165 47.252 107.239 47.196C107.323 47.1307 107.435 47.098 107.575 47.098H108.107C108.397 47.098 108.583 47.2333 108.667 47.504L109.213 49.142C109.624 50.318 109.974 51.396 110.263 52.376L110.669 51.13C110.735 50.934 110.833 50.626 110.963 50.206C111.094 49.786 111.211 49.4267 111.313 49.128L111.859 47.504ZM117.562 54.21C116.88 54.21 116.274 54.056 115.742 53.748C115.219 53.44 114.808 53.0107 114.51 52.46C114.211 51.9 114.062 51.2607 114.062 50.542C114.062 49.8233 114.211 49.1887 114.51 48.638C114.808 48.0873 115.219 47.658 115.742 47.35C116.274 47.042 116.88 46.888 117.562 46.888C118.234 46.888 118.836 47.042 119.368 47.35C119.9 47.658 120.315 48.092 120.614 48.652C120.912 49.2027 121.062 49.8327 121.062 50.542C121.062 51.2607 120.912 51.9 120.614 52.46C120.315 53.0107 119.9 53.44 119.368 53.748C118.836 54.056 118.234 54.21 117.562 54.21ZM117.562 52.964C118.159 52.964 118.64 52.7447 119.004 52.306C119.368 51.858 119.55 51.27 119.55 50.542C119.55 49.8233 119.368 49.2447 119.004 48.806C118.64 48.3673 118.159 48.148 117.562 48.148C116.964 48.148 116.484 48.3673 116.12 48.806C115.756 49.2447 115.574 49.8233 115.574 50.542C115.574 51.27 115.756 51.858 116.12 52.306C116.484 52.7447 116.964 52.964 117.562 52.964ZM126.752 47.588C126.752 47.4293 126.794 47.308 126.878 47.224C126.971 47.14 127.092 47.098 127.242 47.098H127.746C127.904 47.098 128.026 47.14 128.11 47.224C128.194 47.308 128.236 47.4293 128.236 47.588V53.51C128.236 53.6593 128.194 53.7807 128.11 53.874C128.026 53.958 127.904 54 127.746 54H127.368C127.218 54 127.097 53.958 127.004 53.874C126.92 53.7807 126.878 53.6593 126.878 53.51V53.188C126.691 53.5053 126.42 53.7573 126.066 53.944C125.711 54.1213 125.291 54.21 124.806 54.21C123.984 54.21 123.373 54.0093 122.972 53.608C122.57 53.1973 122.37 52.656 122.37 51.984V47.588C122.37 47.4293 122.412 47.308 122.496 47.224C122.589 47.14 122.71 47.098 122.86 47.098H123.364C123.522 47.098 123.644 47.14 123.728 47.224C123.812 47.308 123.854 47.4293 123.854 47.588V51.592C123.854 52.0213 123.961 52.3527 124.176 52.586C124.4 52.81 124.722 52.922 125.142 52.922C125.627 52.922 126.014 52.782 126.304 52.502C126.602 52.222 126.752 51.816 126.752 51.284V47.588ZM133.052 47.028C133.257 47.028 133.467 47.0513 133.682 47.098C133.934 47.154 134.06 47.3033 134.06 47.546C134.06 47.6113 134.055 47.658 134.046 47.686L133.976 48.022C133.92 48.2833 133.78 48.414 133.556 48.414L133.43 48.4C133.262 48.372 133.113 48.358 132.982 48.358C132.515 48.358 132.137 48.5447 131.848 48.918C131.568 49.282 131.428 49.7907 131.428 50.444V53.51C131.428 53.6593 131.386 53.7807 131.302 53.874C131.218 53.958 131.097 54 130.938 54H130.434C130.285 54 130.163 53.958 130.07 53.874C129.986 53.7807 129.944 53.6593 129.944 53.51V47.588C129.944 47.4293 129.986 47.308 130.07 47.224C130.163 47.14 130.285 47.098 130.434 47.098H130.84C130.999 47.098 131.12 47.14 131.204 47.224C131.288 47.308 131.33 47.4293 131.33 47.588V48.134C131.498 47.7887 131.727 47.518 132.016 47.322C132.305 47.126 132.651 47.028 133.052 47.028ZM141.938 46.916C142.526 46.916 143.049 47.0653 143.506 47.364C143.973 47.6627 144.337 48.0873 144.598 48.638C144.859 49.1887 144.99 49.8233 144.99 50.542C144.99 51.27 144.859 51.9093 144.598 52.46C144.337 53.0107 143.973 53.4353 143.506 53.734C143.039 54.0327 142.517 54.182 141.938 54.182C140.967 54.182 140.239 53.846 139.754 53.174V55.988C139.754 56.1467 139.712 56.268 139.628 56.352C139.544 56.436 139.423 56.478 139.264 56.478H138.76C138.611 56.478 138.489 56.436 138.396 56.352C138.312 56.268 138.27 56.1467 138.27 55.988V47.588C138.27 47.4293 138.312 47.308 138.396 47.224C138.489 47.14 138.611 47.098 138.76 47.098H139.166C139.325 47.098 139.446 47.14 139.53 47.224C139.614 47.308 139.656 47.4293 139.656 47.588V48.106C140.151 47.3127 140.911 46.916 141.938 46.916ZM141.63 52.894C142.19 52.894 142.638 52.684 142.974 52.264C143.31 51.8347 143.478 51.2607 143.478 50.542C143.478 49.8327 143.31 49.2633 142.974 48.834C142.647 48.4047 142.204 48.19 141.644 48.19C141.075 48.19 140.608 48.4 140.244 48.82C139.88 49.24 139.698 49.814 139.698 50.542C139.698 51.27 139.88 51.844 140.244 52.264C140.608 52.684 141.07 52.894 141.63 52.894ZM151.36 52.236C151.482 52.1333 151.598 52.082 151.71 52.082C151.822 52.082 151.939 52.1427 152.06 52.264L152.256 52.474C152.359 52.5953 152.41 52.712 152.41 52.824C152.41 52.9453 152.35 53.062 152.228 53.174C151.799 53.5473 151.37 53.8133 150.94 53.972C150.52 54.1307 150.054 54.21 149.54 54.21C148.822 54.21 148.196 54.0607 147.664 53.762C147.142 53.4633 146.736 53.0433 146.446 52.502C146.166 51.9513 146.026 51.3167 146.026 50.598C146.026 49.8887 146.162 49.254 146.432 48.694C146.712 48.1247 147.104 47.6813 147.608 47.364C148.122 47.0467 148.719 46.888 149.4 46.888C150.418 46.888 151.202 47.1913 151.752 47.798C152.303 48.3953 152.578 49.2213 152.578 50.276V50.402C152.569 50.5513 152.522 50.668 152.438 50.752C152.354 50.836 152.233 50.878 152.074 50.878H147.482C147.538 51.494 147.739 51.998 148.084 52.39C148.439 52.7727 148.934 52.964 149.568 52.964C149.914 52.964 150.217 52.9127 150.478 52.81C150.74 52.698 151.034 52.5067 151.36 52.236ZM149.372 48.064C148.859 48.064 148.444 48.218 148.126 48.526C147.818 48.8247 147.618 49.2493 147.524 49.8H151.122C151.085 49.2587 150.917 48.834 150.618 48.526C150.32 48.218 149.904 48.064 149.372 48.064ZM157.046 47.028C157.251 47.028 157.461 47.0513 157.676 47.098C157.928 47.154 158.054 47.3033 158.054 47.546C158.054 47.6113 158.049 47.658 158.04 47.686L157.97 48.022C157.914 48.2833 157.774 48.414 157.55 48.414L157.424 48.4C157.256 48.372 157.107 48.358 156.976 48.358C156.509 48.358 156.131 48.5447 155.842 48.918C155.562 49.282 155.422 49.7907 155.422 50.444V53.51C155.422 53.6593 155.38 53.7807 155.296 53.874C155.212 53.958 155.091 54 154.932 54H154.428C154.279 54 154.157 53.958 154.064 53.874C153.98 53.7807 153.938 53.6593 153.938 53.51V47.588C153.938 47.4293 153.98 47.308 154.064 47.224C154.157 47.14 154.279 47.098 154.428 47.098H154.834C154.993 47.098 155.114 47.14 155.198 47.224C155.282 47.308 155.324 47.4293 155.324 47.588V48.134C155.492 47.7887 155.721 47.518 156.01 47.322C156.299 47.126 156.645 47.028 157.046 47.028ZM162.241 47.028C162.447 47.028 162.657 47.0513 162.871 47.098C163.123 47.154 163.249 47.3033 163.249 47.546C163.249 47.6113 163.245 47.658 163.235 47.686L163.165 48.022C163.109 48.2833 162.969 48.414 162.745 48.414L162.619 48.4C162.451 48.372 162.302 48.358 162.171 48.358C161.705 48.358 161.327 48.5447 161.037 48.918C160.757 49.282 160.617 49.7907 160.617 50.444V53.51C160.617 53.6593 160.575 53.7807 160.491 53.874C160.407 53.958 160.286 54 160.127 54H159.623C159.474 54 159.353 53.958 159.259 53.874C159.175 53.7807 159.133 53.6593 159.133 53.51V47.588C159.133 47.4293 159.175 47.308 159.259 47.224C159.353 47.14 159.474 47.098 159.623 47.098H160.029C160.188 47.098 160.309 47.14 160.393 47.224C160.477 47.308 160.519 47.4293 160.519 47.588V48.134C160.687 47.7887 160.916 47.518 161.205 47.322C161.495 47.126 161.84 47.028 162.241 47.028ZM166.797 54.21C166.228 54.21 165.719 54.14 165.271 54C164.833 53.8507 164.385 53.594 163.927 53.23C163.787 53.1273 163.717 53.0107 163.717 52.88C163.717 52.7773 163.769 52.6653 163.871 52.544L164.081 52.306C164.193 52.1753 164.315 52.11 164.445 52.11C164.548 52.11 164.66 52.1567 164.781 52.25C165.173 52.5393 165.519 52.74 165.817 52.852C166.116 52.9547 166.452 53.006 166.825 53.006C167.227 53.006 167.553 52.9267 167.805 52.768C168.067 52.6 168.197 52.376 168.197 52.096C168.197 51.8813 168.123 51.7133 167.973 51.592C167.833 51.4613 167.647 51.3633 167.413 51.298C167.18 51.2233 166.835 51.1393 166.377 51.046C165.733 50.906 165.229 50.7567 164.865 50.598C164.511 50.43 164.254 50.22 164.095 49.968C163.937 49.716 163.857 49.394 163.857 49.002C163.857 48.6007 163.969 48.2413 164.193 47.924C164.427 47.6067 164.749 47.3547 165.159 47.168C165.579 46.9813 166.069 46.888 166.629 46.888C167.133 46.888 167.581 46.944 167.973 47.056C168.375 47.168 168.767 47.3593 169.149 47.63C169.299 47.742 169.373 47.868 169.373 48.008C169.373 48.1013 169.327 48.2087 169.233 48.33L169.051 48.554C168.949 48.6847 168.823 48.75 168.673 48.75C168.561 48.75 168.454 48.7127 168.351 48.638C168.043 48.4327 167.759 48.2927 167.497 48.218C167.236 48.134 166.942 48.092 166.615 48.092C166.214 48.092 165.892 48.1713 165.649 48.33C165.407 48.4887 165.285 48.694 165.285 48.946C165.285 49.114 165.341 49.2493 165.453 49.352C165.575 49.4453 165.743 49.5293 165.957 49.604C166.181 49.6693 166.531 49.7533 167.007 49.856C167.651 49.996 168.16 50.1547 168.533 50.332C168.916 50.5 169.196 50.7193 169.373 50.99C169.56 51.2513 169.653 51.592 169.653 52.012C169.653 52.6653 169.392 53.1973 168.869 53.608C168.356 54.0093 167.665 54.21 166.797 54.21ZM174.04 54.21C173.359 54.21 172.752 54.056 172.22 53.748C171.697 53.44 171.287 53.0107 170.988 52.46C170.689 51.9 170.54 51.2607 170.54 50.542C170.54 49.8233 170.689 49.1887 170.988 48.638C171.287 48.0873 171.697 47.658 172.22 47.35C172.752 47.042 173.359 46.888 174.04 46.888C174.712 46.888 175.314 47.042 175.846 47.35C176.378 47.658 176.793 48.092 177.092 48.652C177.391 49.2027 177.54 49.8327 177.54 50.542C177.54 51.2607 177.391 51.9 177.092 52.46C176.793 53.0107 176.378 53.44 175.846 53.748C175.314 54.056 174.712 54.21 174.04 54.21ZM174.04 52.964C174.637 52.964 175.118 52.7447 175.482 52.306C175.846 51.858 176.028 51.27 176.028 50.542C176.028 49.8233 175.846 49.2447 175.482 48.806C175.118 48.3673 174.637 48.148 174.04 48.148C173.443 48.148 172.962 48.3673 172.598 48.806C172.234 49.2447 172.052 49.8233 172.052 50.542C172.052 51.27 172.234 51.858 172.598 52.306C172.962 52.7447 173.443 52.964 174.04 52.964ZM182.362 46.888C183.155 46.888 183.762 47.112 184.182 47.56C184.611 47.9987 184.826 48.568 184.826 49.268V53.51C184.826 53.6593 184.784 53.7807 184.7 53.874C184.616 53.958 184.495 54 184.336 54H183.832C183.683 54 183.561 53.958 183.468 53.874C183.384 53.7807 183.342 53.6593 183.342 53.51V49.73C183.342 49.226 183.216 48.8387 182.964 48.568C182.721 48.2973 182.371 48.162 181.914 48.162C181.466 48.162 181.088 48.316 180.78 48.624C180.481 48.932 180.332 49.3193 180.332 49.786V53.51C180.332 53.6593 180.29 53.7807 180.206 53.874C180.122 53.958 180.001 54 179.842 54H179.338C179.189 54 179.067 53.958 178.974 53.874C178.89 53.7807 178.848 53.6593 178.848 53.51V47.588C178.848 47.4293 178.89 47.308 178.974 47.224C179.067 47.14 179.189 47.098 179.338 47.098H179.744C179.903 47.098 180.024 47.14 180.108 47.224C180.192 47.308 180.234 47.4293 180.234 47.588V47.952C180.458 47.6067 180.752 47.3453 181.116 47.168C181.48 46.9813 181.895 46.888 182.362 46.888ZM189.444 46.888C190.377 46.888 191.096 47.1073 191.6 47.546C192.104 47.9753 192.356 48.5493 192.356 49.268V53.51C192.356 53.6593 192.314 53.7807 192.23 53.874C192.146 53.958 192.024 54 191.866 54H191.502C191.352 54 191.231 53.958 191.138 53.874C191.054 53.7807 191.012 53.6593 191.012 53.51V53.202C190.788 53.5287 190.48 53.7807 190.088 53.958C189.696 54.1353 189.238 54.224 188.716 54.224C187.997 54.224 187.404 54.0653 186.938 53.748C186.48 53.4213 186.252 52.9313 186.252 52.278C186.252 51.55 186.522 51.0133 187.064 50.668C187.614 50.3133 188.375 50.0473 189.346 49.87L190.928 49.576V49.324C190.928 48.9413 190.792 48.6473 190.522 48.442C190.26 48.2273 189.91 48.12 189.472 48.12C189.098 48.12 188.772 48.1853 188.492 48.316C188.221 48.4373 187.927 48.6427 187.61 48.932C187.488 49.0347 187.372 49.086 187.26 49.086C187.148 49.086 187.031 49.0347 186.91 48.932L186.686 48.736C186.564 48.624 186.504 48.5027 186.504 48.372C186.504 48.2507 186.56 48.134 186.672 48.022C187.073 47.6393 187.498 47.3547 187.946 47.168C188.394 46.9813 188.893 46.888 189.444 46.888ZM188.926 53.034C189.486 53.034 189.957 52.8847 190.34 52.586C190.732 52.2873 190.928 51.858 190.928 51.298V50.654L189.71 50.906C189.028 51.046 188.524 51.2047 188.198 51.382C187.871 51.5593 187.708 51.83 187.708 52.194C187.708 52.4553 187.815 52.6607 188.03 52.81C188.244 52.9593 188.543 53.034 188.926 53.034ZM194.597 54C194.448 54 194.327 53.958 194.233 53.874C194.149 53.7807 194.107 53.6593 194.107 53.51V44.55C194.107 44.3913 194.149 44.27 194.233 44.186C194.327 44.102 194.448 44.06 194.597 44.06H195.101C195.26 44.06 195.381 44.102 195.465 44.186C195.549 44.27 195.591 44.3913 195.591 44.55V53.51C195.591 53.6593 195.549 53.7807 195.465 53.874C195.381 53.958 195.26 54 195.101 54H194.597ZM205.433 52.236C205.554 52.1333 205.671 52.082 205.783 52.082C205.895 52.082 206.011 52.1427 206.133 52.264L206.329 52.474C206.431 52.5953 206.483 52.712 206.483 52.824C206.483 52.9453 206.422 53.062 206.301 53.174C205.871 53.5473 205.442 53.8133 205.013 53.972C204.593 54.1307 204.126 54.21 203.613 54.21C202.894 54.21 202.269 54.0607 201.737 53.762C201.214 53.4633 200.808 53.0433 200.519 52.502C200.239 51.9513 200.099 51.3167 200.099 50.598C200.099 49.8887 200.234 49.254 200.505 48.694C200.785 48.1247 201.177 47.6813 201.681 47.364C202.194 47.0467 202.791 46.888 203.473 46.888C204.49 46.888 205.274 47.1913 205.825 47.798C206.375 48.3953 206.651 49.2213 206.651 50.276V50.402C206.641 50.5513 206.595 50.668 206.511 50.752C206.427 50.836 206.305 50.878 206.147 50.878H201.555C201.611 51.494 201.811 51.998 202.157 52.39C202.511 52.7727 203.006 52.964 203.641 52.964C203.986 52.964 204.289 52.9127 204.551 52.81C204.812 52.698 205.106 52.5067 205.433 52.236ZM203.445 48.064C202.931 48.064 202.516 48.218 202.199 48.526C201.891 48.8247 201.69 49.2493 201.597 49.8H205.195C205.157 49.2587 204.989 48.834 204.691 48.526C204.392 48.218 203.977 48.064 203.445 48.064ZM215.416 46.888C216.154 46.888 216.723 47.098 217.124 47.518C217.526 47.9287 217.726 48.484 217.726 49.184V53.51C217.726 53.6593 217.684 53.7807 217.6 53.874C217.516 53.958 217.395 54 217.236 54H216.732C216.583 54 216.462 53.958 216.368 53.874C216.284 53.7807 216.242 53.6593 216.242 53.51V49.632C216.242 49.1747 216.14 48.8153 215.934 48.554C215.729 48.2927 215.416 48.162 214.996 48.162C214.567 48.162 214.226 48.3067 213.974 48.596C213.732 48.8853 213.61 49.2587 213.61 49.716V53.51C213.61 53.6593 213.568 53.7807 213.484 53.874C213.4 53.958 213.279 54 213.12 54H212.616C212.467 54 212.346 53.958 212.252 53.874C212.168 53.7807 212.126 53.6593 212.126 53.51V49.632C212.126 49.1747 212.024 48.8153 211.818 48.554C211.622 48.2927 211.314 48.162 210.894 48.162C210.484 48.162 210.152 48.2973 209.9 48.568C209.648 48.8387 209.513 49.1887 209.494 49.618V53.51C209.494 53.6593 209.452 53.7807 209.368 53.874C209.284 53.958 209.163 54 209.004 54H208.5C208.351 54 208.23 53.958 208.136 53.874C208.052 53.7807 208.01 53.6593 208.01 53.51V47.588C208.01 47.4293 208.052 47.308 208.136 47.224C208.23 47.14 208.351 47.098 208.5 47.098H208.906C209.065 47.098 209.186 47.14 209.27 47.224C209.354 47.308 209.396 47.4293 209.396 47.588V47.896C209.826 47.224 210.488 46.888 211.384 46.888C211.832 46.888 212.224 46.9813 212.56 47.168C212.896 47.3547 213.153 47.616 213.33 47.952C213.806 47.2427 214.502 46.888 215.416 46.888ZM222.338 46.888C223.272 46.888 223.99 47.1073 224.494 47.546C224.998 47.9753 225.25 48.5493 225.25 49.268V53.51C225.25 53.6593 225.208 53.7807 225.124 53.874C225.04 53.958 224.919 54 224.76 54H224.396C224.247 54 224.126 53.958 224.032 53.874C223.948 53.7807 223.906 53.6593 223.906 53.51V53.202C223.682 53.5287 223.374 53.7807 222.982 53.958C222.59 54.1353 222.133 54.224 221.61 54.224C220.892 54.224 220.299 54.0653 219.832 53.748C219.375 53.4213 219.146 52.9313 219.146 52.278C219.146 51.55 219.417 51.0133 219.958 50.668C220.509 50.3133 221.27 50.0473 222.24 49.87L223.822 49.576V49.324C223.822 48.9413 223.687 48.6473 223.416 48.442C223.155 48.2273 222.805 48.12 222.366 48.12C221.993 48.12 221.666 48.1853 221.386 48.316C221.116 48.4373 220.822 48.6427 220.504 48.932C220.383 49.0347 220.266 49.086 220.154 49.086C220.042 49.086 219.926 49.0347 219.804 48.932L219.58 48.736C219.459 48.624 219.398 48.5027 219.398 48.372C219.398 48.2507 219.454 48.134 219.566 48.022C219.968 47.6393 220.392 47.3547 220.84 47.168C221.288 46.9813 221.788 46.888 222.338 46.888ZM221.82 53.034C222.38 53.034 222.852 52.8847 223.234 52.586C223.626 52.2873 223.822 51.858 223.822 51.298V50.654L222.604 50.906C221.923 51.046 221.419 51.2047 221.092 51.382C220.766 51.5593 220.602 51.83 220.602 52.194C220.602 52.4553 220.71 52.6607 220.924 52.81C221.139 52.9593 221.438 53.034 221.82 53.034ZM227.702 45.754C227.431 45.754 227.202 45.6653 227.016 45.488C226.829 45.3013 226.736 45.082 226.736 44.83C226.736 44.5687 226.829 44.3493 227.016 44.172C227.202 43.9947 227.431 43.906 227.702 43.906C227.972 43.906 228.201 43.9947 228.388 44.172C228.574 44.3493 228.668 44.5687 228.668 44.83C228.668 45.082 228.574 45.3013 228.388 45.488C228.201 45.6653 227.972 45.754 227.702 45.754ZM227.436 54C227.286 54 227.165 53.958 227.072 53.874C226.988 53.7807 226.946 53.6593 226.946 53.51V47.588C226.946 47.4293 226.988 47.308 227.072 47.224C227.165 47.14 227.286 47.098 227.436 47.098H227.94C228.098 47.098 228.22 47.14 228.304 47.224C228.388 47.308 228.43 47.4293 228.43 47.588V53.51C228.43 53.6593 228.388 53.7807 228.304 53.874C228.22 53.958 228.098 54 227.94 54H227.436ZM230.691 54C230.542 54 230.42 53.958 230.327 53.874C230.243 53.7807 230.201 53.6593 230.201 53.51V44.55C230.201 44.3913 230.243 44.27 230.327 44.186C230.42 44.102 230.542 44.06 230.691 44.06H231.195C231.354 44.06 231.475 44.102 231.559 44.186C231.643 44.27 231.685 44.3913 231.685 44.55V53.51C231.685 53.6593 231.643 53.7807 231.559 53.874C231.475 53.958 231.354 54 231.195 54H230.691ZM73.766 64.888C74.6993 64.888 75.418 65.1073 75.922 65.546C76.426 65.9753 76.678 66.5493 76.678 67.268V71.51C76.678 71.6593 76.636 71.7807 76.552 71.874C76.468 71.958 76.3467 72 76.188 72H75.824C75.6747 72 75.5533 71.958 75.46 71.874C75.376 71.7807 75.334 71.6593 75.334 71.51V71.202C75.11 71.5287 74.802 71.7807 74.41 71.958C74.018 72.1353 73.5607 72.224 73.038 72.224C72.3193 72.224 71.7267 72.0653 71.26 71.748C70.8027 71.4213 70.574 70.9313 70.574 70.278C70.574 69.55 70.8447 69.0133 71.386 68.668C71.9367 68.3133 72.6973 68.0473 73.668 67.87L75.25 67.576V67.324C75.25 66.9413 75.1147 66.6473 74.844 66.442C74.5827 66.2273 74.2327 66.12 73.794 66.12C73.4207 66.12 73.094 66.1853 72.814 66.316C72.5433 66.4373 72.2493 66.6427 71.932 66.932C71.8107 67.0347 71.694 67.086 71.582 67.086C71.47 67.086 71.3533 67.0347 71.232 66.932L71.008 66.736C70.8867 66.624 70.826 66.5027 70.826 66.372C70.826 66.2507 70.882 66.134 70.994 66.022C71.3953 65.6393 71.82 65.3547 72.268 65.168C72.716 64.9813 73.2153 64.888 73.766 64.888ZM73.248 71.034C73.808 71.034 74.2793 70.8847 74.662 70.586C75.054 70.2873 75.25 69.858 75.25 69.298V68.654L74.032 68.906C73.3507 69.046 72.8467 69.2047 72.52 69.382C72.1933 69.5593 72.03 69.83 72.03 70.194C72.03 70.4553 72.1373 70.6607 72.352 70.81C72.5667 70.9593 72.8653 71.034 73.248 71.034ZM83.2315 62.536C83.2315 62.3773 83.2735 62.256 83.3575 62.172C83.4509 62.088 83.5722 62.046 83.7215 62.046H84.2255C84.3842 62.046 84.5055 62.088 84.5895 62.172C84.6735 62.256 84.7155 62.3773 84.7155 62.536V71.51C84.7155 71.6593 84.6735 71.7807 84.5895 71.874C84.5055 71.958 84.3842 72 84.2255 72H83.8195C83.6702 72 83.5489 71.958 83.4555 71.874C83.3715 71.7807 83.3295 71.6593 83.3295 71.51V71.02C82.8442 71.804 82.0835 72.196 81.0475 72.196C80.4689 72.196 79.9462 72.0467 79.4795 71.748C79.0222 71.4493 78.6629 71.0247 78.4015 70.474C78.1402 69.9233 78.0095 69.284 78.0095 68.556C78.0095 67.8373 78.1402 67.2027 78.4015 66.652C78.6722 66.1013 79.0409 65.6767 79.5075 65.378C79.9742 65.0793 80.4969 64.93 81.0755 64.93C82.0275 64.93 82.7462 65.2613 83.2315 65.924V62.536ZM81.3555 70.922C81.9249 70.922 82.3915 70.712 82.7555 70.292C83.1195 69.8627 83.3015 69.284 83.3015 68.556C83.3015 67.828 83.1195 67.254 82.7555 66.834C82.3915 66.414 81.9249 66.204 81.3555 66.204C80.8049 66.204 80.3615 66.4187 80.0255 66.848C79.6895 67.2773 79.5215 67.8467 79.5215 68.556C79.5215 69.2747 79.6849 69.8487 80.0115 70.278C80.3475 70.7073 80.7955 70.922 81.3555 70.922ZM91.2979 62.536C91.2979 62.3773 91.3399 62.256 91.4239 62.172C91.5173 62.088 91.6386 62.046 91.7879 62.046H92.2919C92.4506 62.046 92.5719 62.088 92.6559 62.172C92.7399 62.256 92.7819 62.3773 92.7819 62.536V71.51C92.7819 71.6593 92.7399 71.7807 92.6559 71.874C92.5719 71.958 92.4506 72 92.2919 72H91.8859C91.7366 72 91.6153 71.958 91.5219 71.874C91.4379 71.7807 91.3959 71.6593 91.3959 71.51V71.02C90.9106 71.804 90.1499 72.196 89.1139 72.196C88.5353 72.196 88.0126 72.0467 87.5459 71.748C87.0886 71.4493 86.7293 71.0247 86.4679 70.474C86.2066 69.9233 86.0759 69.284 86.0759 68.556C86.0759 67.8373 86.2066 67.2027 86.4679 66.652C86.7386 66.1013 87.1073 65.6767 87.5739 65.378C88.0406 65.0793 88.5633 64.93 89.1419 64.93C90.0939 64.93 90.8126 65.2613 91.2979 65.924V62.536ZM89.4219 70.922C89.9913 70.922 90.4579 70.712 90.8219 70.292C91.1859 69.8627 91.3679 69.284 91.3679 68.556C91.3679 67.828 91.1859 67.254 90.8219 66.834C90.4579 66.414 89.9913 66.204 89.4219 66.204C88.8713 66.204 88.4279 66.4187 88.0919 66.848C87.7559 67.2773 87.5879 67.8467 87.5879 68.556C87.5879 69.2747 87.7513 69.8487 88.0779 70.278C88.4139 70.7073 88.8619 70.922 89.4219 70.922ZM97.6143 65.028C97.8197 65.028 98.0297 65.0513 98.2443 65.098C98.4963 65.154 98.6223 65.3033 98.6223 65.546C98.6223 65.6113 98.6177 65.658 98.6083 65.686L98.5383 66.022C98.4823 66.2833 98.3423 66.414 98.1183 66.414L97.9923 66.4C97.8243 66.372 97.675 66.358 97.5443 66.358C97.0777 66.358 96.6997 66.5447 96.4103 66.918C96.1303 67.282 95.9903 67.7907 95.9903 68.444V71.51C95.9903 71.6593 95.9483 71.7807 95.8643 71.874C95.7803 71.958 95.659 72 95.5003 72H94.9963C94.847 72 94.7257 71.958 94.6323 71.874C94.5483 71.7807 94.5063 71.6593 94.5063 71.51V65.588C94.5063 65.4293 94.5483 65.308 94.6323 65.224C94.7257 65.14 94.847 65.098 94.9963 65.098H95.4023C95.561 65.098 95.6823 65.14 95.7663 65.224C95.8503 65.308 95.8923 65.4293 95.8923 65.588V66.134C96.0603 65.7887 96.289 65.518 96.5783 65.322C96.8677 65.126 97.213 65.028 97.6143 65.028ZM104.316 70.236C104.437 70.1333 104.554 70.082 104.666 70.082C104.778 70.082 104.894 70.1427 105.016 70.264L105.212 70.474C105.314 70.5953 105.366 70.712 105.366 70.824C105.366 70.9453 105.305 71.062 105.184 71.174C104.754 71.5473 104.325 71.8133 103.896 71.972C103.476 72.1307 103.009 72.21 102.496 72.21C101.777 72.21 101.152 72.0607 100.62 71.762C100.097 71.4633 99.6909 71.0433 99.4015 70.502C99.1215 69.9513 98.9815 69.3167 98.9815 68.598C98.9815 67.8887 99.1169 67.254 99.3875 66.694C99.6675 66.1247 100.06 65.6813 100.564 65.364C101.077 65.0467 101.674 64.888 102.356 64.888C103.373 64.888 104.157 65.1913 104.708 65.798C105.258 66.3953 105.534 67.2213 105.534 68.276V68.402C105.524 68.5513 105.478 68.668 105.394 68.752C105.31 68.836 105.188 68.878 105.03 68.878H100.438C100.494 69.494 100.694 69.998 101.04 70.39C101.394 70.7727 101.889 70.964 102.524 70.964C102.869 70.964 103.172 70.9127 103.434 70.81C103.695 70.698 103.989 70.5067 104.316 70.236ZM102.328 66.064C101.814 66.064 101.399 66.218 101.082 66.526C100.774 66.8247 100.573 67.2493 100.48 67.8H104.078C104.04 67.2587 103.872 66.834 103.574 66.526C103.275 66.218 102.86 66.064 102.328 66.064ZM109.58 72.21C109.011 72.21 108.502 72.14 108.054 72C107.616 71.8507 107.168 71.594 106.71 71.23C106.57 71.1273 106.5 71.0107 106.5 70.88C106.5 70.7773 106.552 70.6653 106.654 70.544L106.864 70.306C106.976 70.1753 107.098 70.11 107.228 70.11C107.331 70.11 107.443 70.1567 107.564 70.25C107.956 70.5393 108.302 70.74 108.6 70.852C108.899 70.9547 109.235 71.006 109.608 71.006C110.01 71.006 110.336 70.9267 110.588 70.768C110.85 70.6 110.98 70.376 110.98 70.096C110.98 69.8813 110.906 69.7133 110.756 69.592C110.616 69.4613 110.43 69.3633 110.196 69.298C109.963 69.2233 109.618 69.1393 109.16 69.046C108.516 68.906 108.012 68.7567 107.648 68.598C107.294 68.43 107.037 68.22 106.878 67.968C106.72 67.716 106.64 67.394 106.64 67.002C106.64 66.6007 106.752 66.2413 106.976 65.924C107.21 65.6067 107.532 65.3547 107.942 65.168C108.362 64.9813 108.852 64.888 109.412 64.888C109.916 64.888 110.364 64.944 110.756 65.056C111.158 65.168 111.55 65.3593 111.932 65.63C112.082 65.742 112.156 65.868 112.156 66.008C112.156 66.1013 112.11 66.2087 112.016 66.33L111.834 66.554C111.732 66.6847 111.606 66.75 111.456 66.75C111.344 66.75 111.237 66.7127 111.134 66.638C110.826 66.4327 110.542 66.2927 110.28 66.218C110.019 66.134 109.725 66.092 109.398 66.092C108.997 66.092 108.675 66.1713 108.432 66.33C108.19 66.4887 108.068 66.694 108.068 66.946C108.068 67.114 108.124 67.2493 108.236 67.352C108.358 67.4453 108.526 67.5293 108.74 67.604C108.964 67.6693 109.314 67.7533 109.79 67.856C110.434 67.996 110.943 68.1547 111.316 68.332C111.699 68.5 111.979 68.7193 112.156 68.99C112.343 69.2513 112.436 69.592 112.436 70.012C112.436 70.6653 112.175 71.1973 111.652 71.608C111.139 72.0093 110.448 72.21 109.58 72.21ZM116.375 72.21C115.806 72.21 115.297 72.14 114.849 72C114.411 71.8507 113.963 71.594 113.505 71.23C113.365 71.1273 113.295 71.0107 113.295 70.88C113.295 70.7773 113.347 70.6653 113.449 70.544L113.659 70.306C113.771 70.1753 113.893 70.11 114.023 70.11C114.126 70.11 114.238 70.1567 114.359 70.25C114.751 70.5393 115.097 70.74 115.395 70.852C115.694 70.9547 116.03 71.006 116.403 71.006C116.805 71.006 117.131 70.9267 117.383 70.768C117.645 70.6 117.775 70.376 117.775 70.096C117.775 69.8813 117.701 69.7133 117.551 69.592C117.411 69.4613 117.225 69.3633 116.991 69.298C116.758 69.2233 116.413 69.1393 115.955 69.046C115.311 68.906 114.807 68.7567 114.443 68.598C114.089 68.43 113.832 68.22 113.673 67.968C113.515 67.716 113.435 67.394 113.435 67.002C113.435 66.6007 113.547 66.2413 113.771 65.924C114.005 65.6067 114.327 65.3547 114.737 65.168C115.157 64.9813 115.647 64.888 116.207 64.888C116.711 64.888 117.159 64.944 117.551 65.056C117.953 65.168 118.345 65.3593 118.727 65.63C118.877 65.742 118.951 65.868 118.951 66.008C118.951 66.1013 118.905 66.2087 118.811 66.33L118.629 66.554C118.527 66.6847 118.401 66.75 118.251 66.75C118.139 66.75 118.032 66.7127 117.929 66.638C117.621 66.4327 117.337 66.2927 117.075 66.218C116.814 66.134 116.52 66.092 116.193 66.092C115.792 66.092 115.47 66.1713 115.227 66.33C114.985 66.4887 114.863 66.694 114.863 66.946C114.863 67.114 114.919 67.2493 115.031 67.352C115.153 67.4453 115.321 67.5293 115.535 67.604C115.759 67.6693 116.109 67.7533 116.585 67.856C117.229 67.996 117.738 68.1547 118.111 68.332C118.494 68.5 118.774 68.7193 118.951 68.99C119.138 69.2513 119.231 69.592 119.231 70.012C119.231 70.6653 118.97 71.1973 118.447 71.608C117.934 72.0093 117.243 72.21 116.375 72.21Z" fill="#474445"/>
<path d="M70 84C70 81.7909 71.7909 80 74 80H269C271.209 80 273 81.7909 273 84V124C273 126.209 271.209 128 269 128H74C71.7909 128 70 126.209 70 124V84Z" fill="white"/>
<path d="M82.96 100.936C83.6213 100.936 84.2133 101.112 84.736 101.464C85.2693 101.805 85.6853 102.291 85.984 102.92C86.2827 103.539 86.432 104.248 86.432 105.048C86.432 105.859 86.2827 106.579 85.984 107.208C85.6853 107.837 85.2747 108.328 84.752 108.68C84.2293 109.021 83.632 109.192 82.96 109.192C81.7227 109.192 80.816 108.739 80.24 107.832V111.624C80.24 111.837 80.1333 111.944 79.92 111.944H79.504C79.2907 111.944 79.184 111.837 79.184 111.624V101.432C79.184 101.219 79.2907 101.112 79.504 101.112H79.856C80.0693 101.112 80.176 101.219 80.176 101.432V102.44C80.464 101.949 80.8427 101.576 81.312 101.32C81.7813 101.064 82.3307 100.936 82.96 100.936ZM82.88 108.296C83.6267 108.296 84.224 107.997 84.672 107.4C85.12 106.803 85.344 106.019 85.344 105.048C85.344 104.088 85.12 103.315 84.672 102.728C84.224 102.131 83.6267 101.832 82.88 101.832C82.08 101.832 81.4293 102.12 80.928 102.696C80.4373 103.261 80.192 104.045 80.192 105.048C80.192 106.051 80.4427 106.845 80.944 107.432C81.4453 108.008 82.0907 108.296 82.88 108.296ZM93.429 101.432C93.429 101.219 93.5357 101.112 93.749 101.112H94.165C94.3783 101.112 94.485 101.219 94.485 101.432V108.68C94.485 108.893 94.3783 109 94.165 109H93.829C93.6157 109 93.509 108.893 93.509 108.68V107.96C93.2743 108.376 92.9383 108.691 92.501 108.904C92.0743 109.107 91.605 109.208 91.093 109.208C90.133 109.208 89.4237 108.968 88.965 108.488C88.5063 107.997 88.277 107.368 88.277 106.6V101.432C88.277 101.219 88.3837 101.112 88.597 101.112H89.013C89.2263 101.112 89.333 101.219 89.333 101.432V106.376C89.333 107.005 89.4877 107.485 89.797 107.816C90.117 108.136 90.5703 108.296 91.157 108.296C91.8183 108.296 92.3623 108.093 92.789 107.688C93.2157 107.283 93.429 106.707 93.429 105.96V101.432ZM99.6079 109.208C98.9572 109.208 98.3812 109.117 97.8799 108.936C97.3892 108.744 96.8719 108.424 96.3279 107.976C96.2319 107.912 96.1839 107.837 96.1839 107.752C96.1839 107.677 96.2212 107.603 96.2959 107.528L96.5039 107.304C96.5679 107.219 96.6479 107.176 96.7439 107.176C96.8185 107.176 96.8879 107.208 96.9519 107.272C97.4639 107.667 97.9172 107.944 98.3119 108.104C98.7065 108.253 99.1385 108.328 99.6079 108.328C100.195 108.328 100.675 108.2 101.048 107.944C101.421 107.677 101.608 107.32 101.608 106.872C101.608 106.424 101.416 106.093 101.032 105.88C100.648 105.667 100.056 105.475 99.2559 105.304C98.5519 105.155 97.9972 105 97.5919 104.84C97.1972 104.669 96.9039 104.456 96.7119 104.2C96.5199 103.944 96.4239 103.608 96.4239 103.192C96.4239 102.509 96.7012 101.96 97.2559 101.544C97.8105 101.128 98.5092 100.92 99.3519 100.92C99.9279 100.92 100.44 100.995 100.888 101.144C101.347 101.283 101.805 101.517 102.264 101.848C102.36 101.923 102.408 102.003 102.408 102.088C102.408 102.141 102.381 102.211 102.328 102.296L102.136 102.536C102.083 102.621 102.008 102.664 101.912 102.664C101.827 102.664 101.752 102.637 101.688 102.584C101.251 102.275 100.861 102.067 100.52 101.96C100.189 101.853 99.8105 101.8 99.3839 101.8C98.7972 101.8 98.3279 101.928 97.9759 102.184C97.6239 102.44 97.4479 102.765 97.4479 103.16C97.4479 103.405 97.5279 103.603 97.6879 103.752C97.8479 103.901 98.0772 104.029 98.3759 104.136C98.6745 104.232 99.1119 104.344 99.6879 104.472C100.755 104.707 101.512 104.995 101.96 105.336C102.419 105.677 102.648 106.173 102.648 106.824C102.648 107.539 102.365 108.115 101.8 108.552C101.235 108.989 100.504 109.208 99.6079 109.208ZM110.178 107.128C110.253 107.053 110.333 107.016 110.418 107.016C110.493 107.016 110.562 107.048 110.626 107.112L110.834 107.304C110.909 107.379 110.946 107.459 110.946 107.544C110.946 107.608 110.914 107.683 110.85 107.768C110.327 108.291 109.821 108.664 109.33 108.888C108.839 109.101 108.29 109.208 107.682 109.208C106.914 109.208 106.247 109.037 105.682 108.696C105.117 108.355 104.679 107.88 104.37 107.272C104.061 106.653 103.906 105.939 103.906 105.128C103.906 104.307 104.055 103.581 104.354 102.952C104.663 102.312 105.095 101.816 105.65 101.464C106.205 101.101 106.845 100.92 107.57 100.92C108.647 100.92 109.495 101.256 110.114 101.928C110.733 102.6 111.042 103.507 111.042 104.648V104.84C111.031 104.936 110.994 105.011 110.93 105.064C110.877 105.117 110.802 105.144 110.706 105.144H104.978C105.01 106.04 105.245 106.797 105.682 107.416C106.13 108.024 106.797 108.328 107.682 108.328C108.162 108.328 108.583 108.243 108.946 108.072C109.319 107.891 109.73 107.576 110.178 107.128ZM107.57 101.8C106.866 101.8 106.285 102.019 105.826 102.456C105.378 102.883 105.106 103.512 105.01 104.344H109.986C109.965 103.565 109.741 102.947 109.314 102.488C108.887 102.029 108.306 101.8 107.57 101.8ZM115.926 98.328C115.446 98.328 115.105 98.456 114.902 98.712C114.7 98.9573 114.598 99.3733 114.598 99.96V101.112H116.358C116.572 101.112 116.678 101.219 116.678 101.432V101.592C116.678 101.805 116.572 101.912 116.358 101.912H114.598V108.68C114.598 108.893 114.492 109 114.278 109H113.862C113.649 109 113.542 108.893 113.542 108.68V101.912H112.358C112.145 101.912 112.038 101.805 112.038 101.592V101.432C112.038 101.219 112.145 101.112 112.358 101.112H113.542V99.784C113.542 99.048 113.734 98.472 114.118 98.056C114.513 97.64 115.073 97.432 115.798 97.432C116.204 97.432 116.62 97.4907 117.046 97.608C117.249 97.672 117.324 97.8053 117.27 98.008L117.206 98.232C117.153 98.3813 117.046 98.456 116.886 98.456C116.854 98.456 116.785 98.4453 116.678 98.424C116.444 98.36 116.193 98.328 115.926 98.328ZM118.759 99.112C118.546 99.112 118.364 99.0373 118.215 98.888C118.076 98.7387 118.007 98.5573 118.007 98.344C118.007 98.1307 118.076 97.9547 118.215 97.816C118.364 97.6773 118.546 97.608 118.759 97.608C118.983 97.608 119.164 97.6773 119.303 97.816C119.452 97.9547 119.527 98.1307 119.527 98.344C119.527 98.5573 119.452 98.7387 119.303 98.888C119.164 99.0373 118.983 99.112 118.759 99.112ZM118.551 109C118.338 109 118.231 108.893 118.231 108.68V101.432C118.231 101.219 118.338 101.112 118.551 101.112H118.967C119.18 101.112 119.287 101.219 119.287 101.432V108.68C119.287 108.893 119.18 109 118.967 109H118.551ZM125.157 100.92C126.085 100.92 126.784 101.176 127.253 101.688C127.733 102.2 127.973 102.84 127.973 103.608V108.68C127.973 108.893 127.866 109 127.653 109H127.237C127.024 109 126.917 108.893 126.917 108.68V103.96C126.917 103.256 126.746 102.723 126.405 102.36C126.064 101.997 125.573 101.816 124.933 101.816C124.528 101.816 124.154 101.917 123.813 102.12C123.472 102.312 123.2 102.579 122.997 102.92C122.794 103.261 122.693 103.635 122.693 104.04V108.68C122.693 108.893 122.586 109 122.373 109H121.957C121.744 109 121.637 108.893 121.637 108.68V101.432C121.637 101.219 121.744 101.112 121.957 101.112H122.309C122.522 101.112 122.629 101.219 122.629 101.432V102.2C122.896 101.773 123.248 101.453 123.685 101.24C124.122 101.027 124.613 100.92 125.157 100.92ZM133.829 100.92C134.757 100.92 135.456 101.176 135.925 101.688C136.405 102.2 136.645 102.84 136.645 103.608V108.68C136.645 108.893 136.538 109 136.325 109H135.909C135.696 109 135.589 108.893 135.589 108.68V103.96C135.589 103.256 135.418 102.723 135.077 102.36C134.736 101.997 134.245 101.816 133.605 101.816C133.2 101.816 132.826 101.917 132.485 102.12C132.144 102.312 131.872 102.579 131.669 102.92C131.466 103.261 131.365 103.635 131.365 104.04V108.68C131.365 108.893 131.258 109 131.045 109H130.629C130.416 109 130.309 108.893 130.309 108.68V101.432C130.309 101.219 130.416 101.112 130.629 101.112H130.981C131.194 101.112 131.301 101.219 131.301 101.432V102.2C131.568 101.773 131.92 101.453 132.357 101.24C132.794 101.027 133.285 100.92 133.829 100.92ZM141.765 97.768C141.882 97.6827 142.016 97.64 142.165 97.64H142.421C142.634 97.64 142.741 97.7467 142.741 97.96V108.68C142.741 108.893 142.634 109 142.421 109H141.989C141.776 109 141.669 108.893 141.669 108.68V99.016L139.253 100.744C139.178 100.797 139.109 100.824 139.045 100.824C138.949 100.824 138.869 100.776 138.805 100.68L138.645 100.44C138.602 100.387 138.581 100.323 138.581 100.248C138.581 100.152 138.629 100.067 138.725 99.992L141.765 97.768ZM155.841 101.8C155.948 101.8 156.022 101.832 156.065 101.896C156.118 101.96 156.134 102.045 156.113 102.152L155.313 105.976C155.238 106.296 155.201 106.573 155.201 106.808C155.201 107.629 155.606 108.04 156.417 108.04C156.812 108.04 157.174 107.907 157.505 107.64C157.836 107.363 158.097 106.968 158.289 106.456C158.481 105.944 158.577 105.341 158.577 104.648C158.577 103.453 158.321 102.44 157.809 101.608C157.297 100.765 156.614 100.131 155.761 99.704C154.918 99.2773 153.985 99.064 152.961 99.064C151.788 99.064 150.748 99.3413 149.841 99.896C148.934 100.44 148.23 101.192 147.729 102.152C147.228 103.101 146.977 104.163 146.977 105.336C146.977 106.477 147.217 107.501 147.697 108.408C148.177 109.304 148.886 110.008 149.825 110.52C150.764 111.043 151.894 111.304 153.217 111.304H156.305C156.518 111.304 156.625 111.411 156.625 111.624V111.72C156.625 111.933 156.518 112.04 156.305 112.04H152.977C151.569 112.04 150.342 111.752 149.297 111.176C148.262 110.611 147.468 109.821 146.913 108.808C146.369 107.784 146.097 106.616 146.097 105.304C146.097 103.971 146.374 102.776 146.929 101.72C147.484 100.653 148.278 99.8213 149.313 99.224C150.348 98.616 151.548 98.312 152.913 98.312C154.182 98.312 155.313 98.5733 156.305 99.096C157.297 99.608 158.07 100.339 158.625 101.288C159.18 102.237 159.457 103.341 159.457 104.6C159.457 105.443 159.324 106.179 159.057 106.808C158.79 107.437 158.422 107.928 157.953 108.28C157.484 108.621 156.95 108.792 156.353 108.792C155.67 108.792 155.174 108.627 154.865 108.296C154.566 107.955 154.401 107.571 154.369 107.144C154.028 107.677 153.633 108.088 153.185 108.376C152.737 108.653 152.204 108.792 151.585 108.792C150.881 108.792 150.326 108.584 149.921 108.168C149.516 107.741 149.313 107.149 149.313 106.392C149.313 105.645 149.468 104.909 149.777 104.184C150.097 103.448 150.545 102.845 151.121 102.376C151.697 101.907 152.353 101.672 153.089 101.672C153.644 101.672 154.086 101.795 154.417 102.04C154.758 102.275 154.972 102.595 155.057 103L155.233 102.088C155.265 101.896 155.382 101.8 155.585 101.8H155.841ZM151.713 107.976C152.342 107.976 152.87 107.757 153.297 107.32C153.734 106.872 154.06 106.344 154.273 105.736C154.486 105.117 154.593 104.568 154.593 104.088C154.593 103.544 154.481 103.139 154.257 102.872C154.033 102.595 153.654 102.456 153.121 102.456C152.577 102.456 152.086 102.648 151.649 103.032C151.222 103.416 150.886 103.907 150.641 104.504C150.406 105.101 150.289 105.699 150.289 106.296C150.289 106.861 150.412 107.283 150.657 107.56C150.913 107.837 151.265 107.976 151.713 107.976ZM167.098 101.432C167.098 101.219 167.205 101.112 167.418 101.112H167.754C167.967 101.112 168.074 101.219 168.074 101.432V108.92C168.074 109.912 167.775 110.691 167.178 111.256C166.581 111.832 165.743 112.12 164.666 112.12C163.503 112.12 162.431 111.789 161.45 111.128C161.343 111.064 161.29 110.984 161.29 110.888C161.29 110.813 161.311 110.749 161.354 110.696L161.546 110.424C161.61 110.317 161.695 110.264 161.802 110.264C161.845 110.264 161.909 110.285 161.994 110.328C162.463 110.627 162.901 110.851 163.306 111C163.722 111.149 164.175 111.224 164.666 111.224C165.37 111.224 165.941 111.027 166.378 110.632C166.815 110.248 167.034 109.651 167.034 108.84V107.56C166.458 108.488 165.583 108.952 164.41 108.952C163.727 108.952 163.125 108.781 162.602 108.44C162.079 108.088 161.674 107.608 161.386 107C161.109 106.392 160.97 105.704 160.97 104.936C160.97 104.168 161.109 103.48 161.386 102.872C161.674 102.264 162.079 101.789 162.602 101.448C163.125 101.096 163.727 100.92 164.41 100.92C165.029 100.92 165.562 101.053 166.01 101.32C166.469 101.576 166.831 101.944 167.098 102.424V101.432ZM164.522 108.056C165.29 108.056 165.903 107.768 166.362 107.192C166.821 106.605 167.05 105.853 167.05 104.936C167.05 104.019 166.821 103.272 166.362 102.696C165.903 102.109 165.29 101.816 164.522 101.816C163.743 101.816 163.135 102.104 162.698 102.68C162.271 103.256 162.058 104.008 162.058 104.936C162.058 105.864 162.271 106.616 162.698 107.192C163.135 107.768 163.743 108.056 164.522 108.056ZM178.466 100.92C179.319 100.92 179.97 101.165 180.418 101.656C180.876 102.136 181.106 102.755 181.106 103.512V108.68C181.106 108.893 180.999 109 180.786 109H180.37C180.156 109 180.05 108.893 180.05 108.68V103.8C180.05 103.16 179.9 102.669 179.602 102.328C179.314 101.987 178.882 101.816 178.306 101.816C177.698 101.816 177.212 102.019 176.85 102.424C176.487 102.829 176.306 103.352 176.306 103.992V108.68C176.306 108.893 176.199 109 175.986 109H175.57C175.356 109 175.25 108.893 175.25 108.68V103.8C175.25 103.16 175.1 102.669 174.802 102.328C174.514 101.987 174.076 101.816 173.49 101.816C172.946 101.816 172.492 101.987 172.13 102.328C171.778 102.669 171.57 103.117 171.506 103.672V108.68C171.506 108.893 171.399 109 171.186 109H170.77C170.556 109 170.45 108.893 170.45 108.68V101.432C170.45 101.219 170.556 101.112 170.77 101.112H171.122C171.335 101.112 171.442 101.219 171.442 101.432V102.088C171.922 101.309 172.684 100.92 173.73 100.92C174.274 100.92 174.738 101.043 175.122 101.288C175.516 101.523 175.81 101.843 176.002 102.248C176.567 101.363 177.388 100.92 178.466 100.92ZM186.474 100.92C187.445 100.92 188.202 101.155 188.746 101.624C189.29 102.083 189.562 102.691 189.562 103.448V108.68C189.562 108.893 189.455 109 189.242 109H188.922C188.709 109 188.602 108.893 188.602 108.68V107.96C188.335 108.387 187.957 108.707 187.466 108.92C186.986 109.133 186.447 109.24 185.85 109.24C185.018 109.24 184.341 109.064 183.818 108.712C183.295 108.36 183.034 107.816 183.034 107.08C183.034 106.493 183.199 106.024 183.53 105.672C183.861 105.309 184.293 105.037 184.826 104.856C185.359 104.664 186.026 104.493 186.826 104.344L188.554 104.04V103.528C188.554 102.984 188.367 102.563 187.994 102.264C187.621 101.955 187.13 101.8 186.522 101.8C186.063 101.8 185.647 101.885 185.274 102.056C184.901 102.227 184.501 102.52 184.074 102.936C183.999 103.011 183.919 103.048 183.834 103.048C183.759 103.048 183.69 103.016 183.626 102.952L183.418 102.76C183.343 102.685 183.306 102.605 183.306 102.52C183.306 102.424 183.343 102.339 183.418 102.264C183.866 101.795 184.335 101.453 184.826 101.24C185.327 101.027 185.877 100.92 186.474 100.92ZM185.898 108.36C186.666 108.36 187.301 108.157 187.802 107.752C188.303 107.347 188.554 106.829 188.554 106.2V104.856L187.066 105.144C186.373 105.283 185.823 105.416 185.418 105.544C185.013 105.672 184.687 105.859 184.442 106.104C184.197 106.349 184.074 106.669 184.074 107.064C184.074 107.469 184.234 107.789 184.554 108.024C184.885 108.248 185.333 108.36 185.898 108.36ZM192.431 99.112C192.217 99.112 192.036 99.0373 191.887 98.888C191.748 98.7387 191.679 98.5573 191.679 98.344C191.679 98.1307 191.748 97.9547 191.887 97.816C192.036 97.6773 192.217 97.608 192.431 97.608C192.655 97.608 192.836 97.6773 192.975 97.816C193.124 97.9547 193.199 98.1307 193.199 98.344C193.199 98.5573 193.124 98.7387 192.975 98.888C192.836 99.0373 192.655 99.112 192.431 99.112ZM192.223 109C192.009 109 191.903 108.893 191.903 108.68V101.432C191.903 101.219 192.009 101.112 192.223 101.112H192.639C192.852 101.112 192.959 101.219 192.959 101.432V108.68C192.959 108.893 192.852 109 192.639 109H192.223ZM195.645 109C195.432 109 195.325 108.893 195.325 108.68V97.96C195.325 97.7467 195.432 97.64 195.645 97.64H196.061C196.274 97.64 196.381 97.7467 196.381 97.96V108.68C196.381 108.893 196.274 109 196.061 109H195.645ZM199.194 109.112C198.97 109.112 198.778 109.032 198.618 108.872C198.458 108.712 198.378 108.52 198.378 108.296C198.378 108.072 198.458 107.88 198.618 107.72C198.778 107.56 198.97 107.48 199.194 107.48C199.418 107.48 199.61 107.56 199.77 107.72C199.93 107.88 200.01 108.072 200.01 108.296C200.01 108.52 199.93 108.712 199.77 108.872C199.61 109.032 199.418 109.112 199.194 109.112ZM205.04 109.208C204.283 109.208 203.622 109.037 203.056 108.696C202.502 108.344 202.07 107.859 201.76 107.24C201.462 106.611 201.312 105.885 201.312 105.064C201.312 104.253 201.462 103.533 201.76 102.904C202.07 102.275 202.502 101.789 203.056 101.448C203.622 101.096 204.272 100.92 205.008 100.92C205.606 100.92 206.128 101.021 206.576 101.224C207.024 101.416 207.456 101.736 207.872 102.184C207.936 102.248 207.968 102.317 207.968 102.392C207.968 102.488 207.926 102.568 207.84 102.632L207.616 102.84C207.552 102.904 207.478 102.936 207.392 102.936C207.318 102.936 207.238 102.893 207.152 102.808C206.779 102.435 206.422 102.173 206.08 102.024C205.75 101.875 205.382 101.8 204.976 101.8C204.422 101.8 203.947 101.955 203.552 102.264C203.168 102.573 202.88 102.979 202.688 103.48C202.496 103.971 202.4 104.499 202.4 105.064C202.4 105.629 202.496 106.163 202.688 106.664C202.88 107.155 203.174 107.555 203.568 107.864C203.963 108.163 204.448 108.312 205.024 108.312C205.451 108.312 205.824 108.237 206.144 108.088C206.475 107.928 206.843 107.629 207.248 107.192C207.334 107.107 207.414 107.064 207.488 107.064C207.574 107.064 207.648 107.096 207.712 107.16L207.936 107.336C208.011 107.4 208.048 107.475 208.048 107.56C208.048 107.645 208 107.747 207.904 107.864C207.456 108.355 207.008 108.701 206.56 108.904C206.112 109.107 205.606 109.208 205.04 109.208ZM212.87 109.208C212.134 109.208 211.478 109.032 210.902 108.68C210.326 108.328 209.878 107.843 209.558 107.224C209.238 106.595 209.078 105.875 209.078 105.064C209.078 104.253 209.238 103.539 209.558 102.92C209.878 102.291 210.326 101.8 210.902 101.448C211.478 101.096 212.134 100.92 212.87 100.92C213.606 100.92 214.262 101.096 214.838 101.448C215.414 101.8 215.862 102.291 216.182 102.92C216.502 103.539 216.662 104.253 216.662 105.064C216.662 105.875 216.502 106.595 216.182 107.224C215.862 107.843 215.414 108.328 214.838 108.68C214.262 109.032 213.606 109.208 212.87 109.208ZM212.87 108.328C213.691 108.328 214.347 108.029 214.838 107.432C215.329 106.824 215.574 106.035 215.574 105.064C215.574 104.093 215.329 103.309 214.838 102.712C214.347 102.104 213.691 101.8 212.87 101.8C212.049 101.8 211.393 102.104 210.902 102.712C210.411 103.309 210.166 104.093 210.166 105.064C210.166 106.035 210.411 106.824 210.902 107.432C211.393 108.029 212.049 108.328 212.87 108.328ZM226.513 100.92C227.366 100.92 228.017 101.165 228.465 101.656C228.923 102.136 229.153 102.755 229.153 103.512V108.68C229.153 108.893 229.046 109 228.833 109H228.417C228.203 109 228.097 108.893 228.097 108.68V103.8C228.097 103.16 227.947 102.669 227.649 102.328C227.361 101.987 226.929 101.816 226.352 101.816C225.745 101.816 225.259 102.019 224.897 102.424C224.534 102.829 224.353 103.352 224.353 103.992V108.68C224.353 108.893 224.246 109 224.033 109H223.617C223.403 109 223.297 108.893 223.297 108.68V103.8C223.297 103.16 223.147 102.669 222.849 102.328C222.561 101.987 222.123 101.816 221.536 101.816C220.993 101.816 220.539 101.987 220.177 102.328C219.825 102.669 219.617 103.117 219.553 103.672V108.68C219.553 108.893 219.446 109 219.233 109H218.817C218.603 109 218.497 108.893 218.497 108.68V101.432C218.497 101.219 218.603 101.112 218.817 101.112H219.169C219.382 101.112 219.489 101.219 219.489 101.432V102.088C219.969 101.309 220.731 100.92 221.777 100.92C222.321 100.92 222.785 101.043 223.169 101.288C223.563 101.523 223.857 101.843 224.049 102.248C224.614 101.363 225.435 100.92 226.513 100.92Z" fill="#C3CCD9"/>
<path d="M74 81H269V79H74V81ZM272 84V124H274V84H272ZM269 127H74V129H269V127ZM71 124V84H69V124H71ZM74 127C72.3431 127 71 125.657 71 124H69C69 126.761 71.2386 129 74 129V127ZM272 124C272 125.657 270.657 127 269 127V129C271.761 129 274 126.761 274 124H272ZM269 81C270.657 81 272 82.3431 272 84H274C274 81.2386 271.761 79 269 79V81ZM74 79C71.2386 79 69 81.2386 69 84H71C71 82.3431 72.3431 81 74 81V79Z" fill="#C3CCD9"/>
</svg>
