<svg width="344" height="320" viewBox="0 0 344 320" fill="none" xmlns="http://www.w3.org/2000/svg">
<path d="M72.568 84C72.4187 84 72.2973 83.958 72.204 83.874C72.12 83.7807 72.078 83.6593 72.078 83.51V74.55C72.078 74.3913 72.12 74.27 72.204 74.186C72.2973 74.102 72.4187 74.06 72.568 74.06H78.378C78.5367 74.06 78.658 74.102 78.742 74.186C78.826 74.27 78.868 74.3913 78.868 74.55V74.914C78.868 75.0633 78.826 75.1847 78.742 75.278C78.658 75.362 78.5367 75.404 78.378 75.404H73.674V78.204H78.028C78.1867 78.204 78.308 78.246 78.392 78.33C78.476 78.414 78.518 78.5353 78.518 78.694V79.058C78.518 79.2073 78.476 79.3287 78.392 79.422C78.308 79.506 78.1867 79.548 78.028 79.548H73.674V82.656H78.518C78.6767 82.656 78.798 82.698 78.882 82.782C78.966 82.866 79.008 82.9873 79.008 83.146V83.51C79.008 83.6593 78.966 83.7807 78.882 83.874C78.798 83.958 78.6767 84 78.518 84H72.568ZM87.9143 76.888C88.6516 76.888 89.221 77.098 89.6223 77.518C90.0236 77.9287 90.2243 78.484 90.2243 79.184V83.51C90.2243 83.6593 90.1823 83.7807 90.0983 83.874C90.0143 83.958 89.893 84 89.7343 84H89.2303C89.081 84 88.9596 83.958 88.8663 83.874C88.7823 83.7807 88.7403 83.6593 88.7403 83.51V79.632C88.7403 79.1747 88.6376 78.8153 88.4323 78.554C88.227 78.2927 87.9143 78.162 87.4943 78.162C87.065 78.162 86.7243 78.3067 86.4723 78.596C86.2296 78.8853 86.1083 79.2587 86.1083 79.716V83.51C86.1083 83.6593 86.0663 83.7807 85.9823 83.874C85.8983 83.958 85.777 84 85.6183 84H85.1143C84.965 84 84.8436 83.958 84.7503 83.874C84.6663 83.7807 84.6243 83.6593 84.6243 83.51V79.632C84.6243 79.1747 84.5216 78.8153 84.3163 78.554C84.1203 78.2927 83.8123 78.162 83.3923 78.162C82.9816 78.162 82.6503 78.2973 82.3983 78.568C82.1463 78.8387 82.011 79.1887 81.9923 79.618V83.51C81.9923 83.6593 81.9503 83.7807 81.8663 83.874C81.7823 83.958 81.661 84 81.5023 84H80.9983C80.849 84 80.7276 83.958 80.6343 83.874C80.5503 83.7807 80.5083 83.6593 80.5083 83.51V77.588C80.5083 77.4293 80.5503 77.308 80.6343 77.224C80.7276 77.14 80.849 77.098 80.9983 77.098H81.4043C81.563 77.098 81.6843 77.14 81.7683 77.224C81.8523 77.308 81.8943 77.4293 81.8943 77.588V77.896C82.3236 77.224 82.9863 76.888 83.8823 76.888C84.3303 76.888 84.7223 76.9813 85.0583 77.168C85.3943 77.3547 85.651 77.616 85.8283 77.952C86.3043 77.2427 86.9996 76.888 87.9143 76.888ZM94.8363 76.888C95.7696 76.888 96.4883 77.1073 96.9923 77.546C97.4963 77.9753 97.7483 78.5493 97.7483 79.268V83.51C97.7483 83.6593 97.7063 83.7807 97.6223 83.874C97.5383 83.958 97.417 84 97.2583 84H96.8943C96.745 84 96.6236 83.958 96.5303 83.874C96.4463 83.7807 96.4043 83.6593 96.4043 83.51V83.202C96.1803 83.5287 95.8723 83.7807 95.4803 83.958C95.0883 84.1353 94.631 84.224 94.1083 84.224C93.3896 84.224 92.797 84.0653 92.3303 83.748C91.873 83.4213 91.6443 82.9313 91.6443 82.278C91.6443 81.55 91.915 81.0133 92.4563 80.668C93.007 80.3133 93.7676 80.0473 94.7383 79.87L96.3203 79.576V79.324C96.3203 78.9413 96.185 78.6473 95.9143 78.442C95.653 78.2273 95.303 78.12 94.8643 78.12C94.491 78.12 94.1643 78.1853 93.8843 78.316C93.6136 78.4373 93.3196 78.6427 93.0023 78.932C92.881 79.0347 92.7643 79.086 92.6523 79.086C92.5403 79.086 92.4236 79.0347 92.3023 78.932L92.0783 78.736C91.957 78.624 91.8963 78.5027 91.8963 78.372C91.8963 78.2507 91.9523 78.134 92.0643 78.022C92.4656 77.6393 92.8903 77.3547 93.3383 77.168C93.7863 76.9813 94.2856 76.888 94.8363 76.888ZM94.3183 83.034C94.8783 83.034 95.3496 82.8847 95.7323 82.586C96.1243 82.2873 96.3203 81.858 96.3203 81.298V80.654L95.1023 80.906C94.421 81.046 93.917 81.2047 93.5903 81.382C93.2636 81.5593 93.1003 81.83 93.1003 82.194C93.1003 82.4553 93.2076 82.6607 93.4223 82.81C93.637 82.9593 93.9356 83.034 94.3183 83.034ZM100.2 75.754C99.9292 75.754 99.7005 75.6653 99.5138 75.488C99.3272 75.3013 99.2338 75.082 99.2338 74.83C99.2338 74.5687 99.3272 74.3493 99.5138 74.172C99.7005 73.9947 99.9292 73.906 100.2 73.906C100.471 73.906 100.699 73.9947 100.886 74.172C101.073 74.3493 101.166 74.5687 101.166 74.83C101.166 75.082 101.073 75.3013 100.886 75.488C100.699 75.6653 100.471 75.754 100.2 75.754ZM99.9338 84C99.7845 84 99.6632 83.958 99.5698 83.874C99.4858 83.7807 99.4438 83.6593 99.4438 83.51V77.588C99.4438 77.4293 99.4858 77.308 99.5698 77.224C99.6632 77.14 99.7845 77.098 99.9338 77.098H100.438C100.597 77.098 100.718 77.14 100.802 77.224C100.886 77.308 100.928 77.4293 100.928 77.588V83.51C100.928 83.6593 100.886 83.7807 100.802 83.874C100.718 83.958 100.597 84 100.438 84H99.9338ZM103.189 84C103.04 84 102.918 83.958 102.825 83.874C102.741 83.7807 102.699 83.6593 102.699 83.51V74.55C102.699 74.3913 102.741 74.27 102.825 74.186C102.918 74.102 103.04 74.06 103.189 74.06H103.693C103.852 74.06 103.973 74.102 104.057 74.186C104.141 74.27 104.183 74.3913 104.183 74.55V83.51C104.183 83.6593 104.141 83.7807 104.057 83.874C103.973 83.958 103.852 84 103.693 84H103.189ZM111.995 76.888C112.928 76.888 113.647 77.1073 114.151 77.546C114.655 77.9753 114.907 78.5493 114.907 79.268V83.51C114.907 83.6593 114.865 83.7807 114.781 83.874C114.697 83.958 114.575 84 114.417 84H114.053C113.903 84 113.782 83.958 113.689 83.874C113.605 83.7807 113.563 83.6593 113.563 83.51V83.202C113.339 83.5287 113.031 83.7807 112.639 83.958C112.247 84.1353 111.789 84.224 111.267 84.224C110.548 84.224 109.955 84.0653 109.489 83.748C109.031 83.4213 108.803 82.9313 108.803 82.278C108.803 81.55 109.073 81.0133 109.615 80.668C110.165 80.3133 110.926 80.0473 111.897 79.87L113.479 79.576V79.324C113.479 78.9413 113.343 78.6473 113.073 78.442C112.811 78.2273 112.461 78.12 112.023 78.12C111.649 78.12 111.323 78.1853 111.043 78.316C110.772 78.4373 110.478 78.6427 110.161 78.932C110.039 79.0347 109.923 79.086 109.811 79.086C109.699 79.086 109.582 79.0347 109.461 78.932L109.237 78.736C109.115 78.624 109.055 78.5027 109.055 78.372C109.055 78.2507 109.111 78.134 109.223 78.022C109.624 77.6393 110.049 77.3547 110.497 77.168C110.945 76.9813 111.444 76.888 111.995 76.888ZM111.477 83.034C112.037 83.034 112.508 82.8847 112.891 82.586C113.283 82.2873 113.479 81.858 113.479 81.298V80.654L112.261 80.906C111.579 81.046 111.075 81.2047 110.749 81.382C110.422 81.5593 110.259 81.83 110.259 82.194C110.259 82.4553 110.366 82.6607 110.581 82.81C110.795 82.9593 111.094 83.034 111.477 83.034ZM121.46 74.536C121.46 74.3773 121.502 74.256 121.586 74.172C121.679 74.088 121.801 74.046 121.95 74.046H122.454C122.613 74.046 122.734 74.088 122.818 74.172C122.902 74.256 122.944 74.3773 122.944 74.536V83.51C122.944 83.6593 122.902 83.7807 122.818 83.874C122.734 83.958 122.613 84 122.454 84H122.048C121.899 84 121.777 83.958 121.684 83.874C121.6 83.7807 121.558 83.6593 121.558 83.51V83.02C121.073 83.804 120.312 84.196 119.276 84.196C118.697 84.196 118.175 84.0467 117.708 83.748C117.251 83.4493 116.891 83.0247 116.63 82.474C116.369 81.9233 116.238 81.284 116.238 80.556C116.238 79.8373 116.369 79.2027 116.63 78.652C116.901 78.1013 117.269 77.6767 117.736 77.378C118.203 77.0793 118.725 76.93 119.304 76.93C120.256 76.93 120.975 77.2613 121.46 77.924V74.536ZM119.584 82.922C120.153 82.922 120.62 82.712 120.984 82.292C121.348 81.8627 121.53 81.284 121.53 80.556C121.53 79.828 121.348 79.254 120.984 78.834C120.62 78.414 120.153 78.204 119.584 78.204C119.033 78.204 118.59 78.4187 118.254 78.848C117.918 79.2773 117.75 79.8467 117.75 80.556C117.75 81.2747 117.913 81.8487 118.24 82.278C118.576 82.7073 119.024 82.922 119.584 82.922ZM129.526 74.536C129.526 74.3773 129.568 74.256 129.652 74.172C129.746 74.088 129.867 74.046 130.016 74.046H130.52C130.679 74.046 130.8 74.088 130.884 74.172C130.968 74.256 131.01 74.3773 131.01 74.536V83.51C131.01 83.6593 130.968 83.7807 130.884 83.874C130.8 83.958 130.679 84 130.52 84H130.114C129.965 84 129.844 83.958 129.75 83.874C129.666 83.7807 129.624 83.6593 129.624 83.51V83.02C129.139 83.804 128.378 84.196 127.342 84.196C126.764 84.196 126.241 84.0467 125.774 83.748C125.317 83.4493 124.958 83.0247 124.696 82.474C124.435 81.9233 124.304 81.284 124.304 80.556C124.304 79.8373 124.435 79.2027 124.696 78.652C124.967 78.1013 125.336 77.6767 125.802 77.378C126.269 77.0793 126.792 76.93 127.37 76.93C128.322 76.93 129.041 77.2613 129.526 77.924V74.536ZM127.65 82.922C128.22 82.922 128.686 82.712 129.05 82.292C129.414 81.8627 129.596 81.284 129.596 80.556C129.596 79.828 129.414 79.254 129.05 78.834C128.686 78.414 128.22 78.204 127.65 78.204C127.1 78.204 126.656 78.4187 126.32 78.848C125.984 79.2773 125.816 79.8467 125.816 80.556C125.816 81.2747 125.98 81.8487 126.306 82.278C126.642 82.7073 127.09 82.922 127.65 82.922ZM135.843 77.028C136.048 77.028 136.258 77.0513 136.473 77.098C136.725 77.154 136.851 77.3033 136.851 77.546C136.851 77.6113 136.846 77.658 136.837 77.686L136.767 78.022C136.711 78.2833 136.571 78.414 136.347 78.414L136.221 78.4C136.053 78.372 135.904 78.358 135.773 78.358C135.306 78.358 134.928 78.5447 134.639 78.918C134.359 79.282 134.219 79.7907 134.219 80.444V83.51C134.219 83.6593 134.177 83.7807 134.093 83.874C134.009 83.958 133.888 84 133.729 84H133.225C133.076 84 132.954 83.958 132.861 83.874C132.777 83.7807 132.735 83.6593 132.735 83.51V77.588C132.735 77.4293 132.777 77.308 132.861 77.224C132.954 77.14 133.076 77.098 133.225 77.098H133.631C133.79 77.098 133.911 77.14 133.995 77.224C134.079 77.308 134.121 77.4293 134.121 77.588V78.134C134.289 77.7887 134.518 77.518 134.807 77.322C135.096 77.126 135.442 77.028 135.843 77.028ZM142.544 82.236C142.665 82.1333 142.782 82.082 142.894 82.082C143.006 82.082 143.123 82.1427 143.244 82.264L143.44 82.474C143.543 82.5953 143.594 82.712 143.594 82.824C143.594 82.9453 143.533 83.062 143.412 83.174C142.983 83.5473 142.553 83.8133 142.124 83.972C141.704 84.1307 141.237 84.21 140.724 84.21C140.005 84.21 139.38 84.0607 138.848 83.762C138.325 83.4633 137.919 83.0433 137.63 82.502C137.35 81.9513 137.21 81.3167 137.21 80.598C137.21 79.8887 137.345 79.254 137.616 78.694C137.896 78.1247 138.288 77.6813 138.792 77.364C139.305 77.0467 139.903 76.888 140.584 76.888C141.601 76.888 142.385 77.1913 142.936 77.798C143.487 78.3953 143.762 79.2213 143.762 80.276V80.402C143.753 80.5513 143.706 80.668 143.622 80.752C143.538 80.836 143.417 80.878 143.258 80.878H138.666C138.722 81.494 138.923 81.998 139.268 82.39C139.623 82.7727 140.117 82.964 140.752 82.964C141.097 82.964 141.401 82.9127 141.662 82.81C141.923 82.698 142.217 82.5067 142.544 82.236ZM140.556 78.064C140.043 78.064 139.627 78.218 139.31 78.526C139.002 78.8247 138.801 79.2493 138.708 79.8H142.306C142.269 79.2587 142.101 78.834 141.802 78.526C141.503 78.218 141.088 78.064 140.556 78.064ZM147.809 84.21C147.24 84.21 146.731 84.14 146.283 84C145.844 83.8507 145.396 83.594 144.939 83.23C144.799 83.1273 144.729 83.0107 144.729 82.88C144.729 82.7773 144.78 82.6653 144.883 82.544L145.093 82.306C145.205 82.1753 145.326 82.11 145.457 82.11C145.56 82.11 145.672 82.1567 145.793 82.25C146.185 82.5393 146.53 82.74 146.829 82.852C147.128 82.9547 147.464 83.006 147.837 83.006C148.238 83.006 148.565 82.9267 148.817 82.768C149.078 82.6 149.209 82.376 149.209 82.096C149.209 81.8813 149.134 81.7133 148.985 81.592C148.845 81.4613 148.658 81.3633 148.425 81.298C148.192 81.2233 147.846 81.1393 147.389 81.046C146.745 80.906 146.241 80.7567 145.877 80.598C145.522 80.43 145.266 80.22 145.107 79.968C144.948 79.716 144.869 79.394 144.869 79.002C144.869 78.6007 144.981 78.2413 145.205 77.924C145.438 77.6067 145.76 77.3547 146.171 77.168C146.591 76.9813 147.081 76.888 147.641 76.888C148.145 76.888 148.593 76.944 148.985 77.056C149.386 77.168 149.778 77.3593 150.161 77.63C150.31 77.742 150.385 77.868 150.385 78.008C150.385 78.1013 150.338 78.2087 150.245 78.33L150.063 78.554C149.96 78.6847 149.834 78.75 149.685 78.75C149.573 78.75 149.466 78.7127 149.363 78.638C149.055 78.4327 148.77 78.2927 148.509 78.218C148.248 78.134 147.954 78.092 147.627 78.092C147.226 78.092 146.904 78.1713 146.661 78.33C146.418 78.4887 146.297 78.694 146.297 78.946C146.297 79.114 146.353 79.2493 146.465 79.352C146.586 79.4453 146.754 79.5293 146.969 79.604C147.193 79.6693 147.543 79.7533 148.019 79.856C148.663 79.996 149.172 80.1547 149.545 80.332C149.928 80.5 150.208 80.7193 150.385 80.99C150.572 81.2513 150.665 81.592 150.665 82.012C150.665 82.6653 150.404 83.1973 149.881 83.608C149.368 84.0093 148.677 84.21 147.809 84.21ZM154.604 84.21C154.035 84.21 153.526 84.14 153.078 84C152.639 83.8507 152.191 83.594 151.734 83.23C151.594 83.1273 151.524 83.0107 151.524 82.88C151.524 82.7773 151.575 82.6653 151.678 82.544L151.888 82.306C152 82.1753 152.121 82.11 152.252 82.11C152.355 82.11 152.467 82.1567 152.588 82.25C152.98 82.5393 153.325 82.74 153.624 82.852C153.923 82.9547 154.259 83.006 154.632 83.006C155.033 83.006 155.36 82.9267 155.612 82.768C155.873 82.6 156.004 82.376 156.004 82.096C156.004 81.8813 155.929 81.7133 155.78 81.592C155.64 81.4613 155.453 81.3633 155.22 81.298C154.987 81.2233 154.641 81.1393 154.184 81.046C153.54 80.906 153.036 80.7567 152.672 80.598C152.317 80.43 152.061 80.22 151.902 79.968C151.743 79.716 151.664 79.394 151.664 79.002C151.664 78.6007 151.776 78.2413 152 77.924C152.233 77.6067 152.555 77.3547 152.966 77.168C153.386 76.9813 153.876 76.888 154.436 76.888C154.94 76.888 155.388 76.944 155.78 77.056C156.181 77.168 156.573 77.3593 156.956 77.63C157.105 77.742 157.18 77.868 157.18 78.008C157.18 78.1013 157.133 78.2087 157.04 78.33L156.858 78.554C156.755 78.6847 156.629 78.75 156.48 78.75C156.368 78.75 156.261 78.7127 156.158 78.638C155.85 78.4327 155.565 78.2927 155.304 78.218C155.043 78.134 154.749 78.092 154.422 78.092C154.021 78.092 153.699 78.1713 153.456 78.33C153.213 78.4887 153.092 78.694 153.092 78.946C153.092 79.114 153.148 79.2493 153.26 79.352C153.381 79.4453 153.549 79.5293 153.764 79.604C153.988 79.6693 154.338 79.7533 154.814 79.856C155.458 79.996 155.967 80.1547 156.34 80.332C156.723 80.5 157.003 80.7193 157.18 80.99C157.367 81.2513 157.46 81.592 157.46 82.012C157.46 82.6653 157.199 83.1973 156.676 83.608C156.163 84.0093 155.472 84.21 154.604 84.21Z" fill="#474445"/>
<path d="M71 96C71 93.7909 72.7909 92 75 92H270C272.209 92 274 93.7909 274 96V136C274 138.209 272.209 140 270 140H75C72.7909 140 71 138.209 71 136V96Z" fill="white"/>
<path d="M83.192 110.328C82.712 110.328 82.3707 110.456 82.168 110.712C81.9653 110.957 81.864 111.373 81.864 111.96V113.112H83.624C83.8373 113.112 83.944 113.219 83.944 113.432V113.592C83.944 113.805 83.8373 113.912 83.624 113.912H81.864V120.68C81.864 120.893 81.7573 121 81.544 121H81.128C80.9147 121 80.808 120.893 80.808 120.68V113.912H79.624C79.4107 113.912 79.304 113.805 79.304 113.592V113.432C79.304 113.219 79.4107 113.112 79.624 113.112H80.808V111.784C80.808 111.048 81 110.472 81.384 110.056C81.7787 109.64 82.3387 109.432 83.064 109.432C83.4693 109.432 83.8853 109.491 84.312 109.608C84.5147 109.672 84.5893 109.805 84.536 110.008L84.472 110.232C84.4187 110.381 84.312 110.456 84.152 110.456C84.12 110.456 84.0507 110.445 83.944 110.424C83.7093 110.36 83.4587 110.328 83.192 110.328ZM88.224 112.92C89.1947 112.92 89.952 113.155 90.496 113.624C91.04 114.083 91.312 114.691 91.312 115.448V120.68C91.312 120.893 91.2053 121 90.992 121H90.672C90.4587 121 90.352 120.893 90.352 120.68V119.96C90.0853 120.387 89.7067 120.707 89.216 120.92C88.736 121.133 88.1973 121.24 87.6 121.24C86.768 121.24 86.0907 121.064 85.568 120.712C85.0453 120.36 84.784 119.816 84.784 119.08C84.784 118.493 84.9493 118.024 85.28 117.672C85.6107 117.309 86.0427 117.037 86.576 116.856C87.1093 116.664 87.776 116.493 88.576 116.344L90.304 116.04V115.528C90.304 114.984 90.1173 114.563 89.744 114.264C89.3707 113.955 88.88 113.8 88.272 113.8C87.8133 113.8 87.3973 113.885 87.024 114.056C86.6507 114.227 86.2507 114.52 85.824 114.936C85.7493 115.011 85.6693 115.048 85.584 115.048C85.5093 115.048 85.44 115.016 85.376 114.952L85.168 114.76C85.0933 114.685 85.056 114.605 85.056 114.52C85.056 114.424 85.0933 114.339 85.168 114.264C85.616 113.795 86.0853 113.453 86.576 113.24C87.0773 113.027 87.6267 112.92 88.224 112.92ZM87.648 120.36C88.416 120.36 89.0507 120.157 89.552 119.752C90.0533 119.347 90.304 118.829 90.304 118.2V116.856L88.816 117.144C88.1227 117.283 87.5733 117.416 87.168 117.544C86.7627 117.672 86.4373 117.859 86.192 118.104C85.9467 118.349 85.824 118.669 85.824 119.064C85.824 119.469 85.984 119.789 86.304 120.024C86.6347 120.248 87.0827 120.36 87.648 120.36ZM97.4288 112.936C98.1008 112.936 98.6981 113.112 99.2208 113.464C99.7541 113.805 100.165 114.291 100.453 114.92C100.751 115.539 100.901 116.253 100.901 117.064C100.901 117.875 100.751 118.595 100.453 119.224C100.154 119.843 99.7381 120.328 99.2048 120.68C98.6821 121.021 98.0901 121.192 97.4288 121.192C96.1594 121.192 95.2314 120.701 94.6448 119.72V120.68C94.6448 120.893 94.5381 121 94.3248 121H93.9728C93.7594 121 93.6528 120.893 93.6528 120.68V109.944C93.6528 109.731 93.7594 109.624 93.9728 109.624H94.3888C94.6021 109.624 94.7088 109.731 94.7088 109.944V114.36C95.2954 113.411 96.2021 112.936 97.4288 112.936ZM97.3488 120.296C98.0848 120.296 98.6768 119.997 99.1248 119.4C99.5834 118.803 99.8128 118.024 99.8128 117.064C99.8128 116.104 99.5834 115.325 99.1248 114.728C98.6768 114.131 98.0848 113.832 97.3488 113.832C96.5594 113.832 95.9141 114.12 95.4128 114.696C94.9114 115.272 94.6608 116.061 94.6608 117.064C94.6608 118.077 94.9061 118.872 95.3968 119.448C95.8981 120.013 96.5488 120.296 97.3488 120.296ZM105.722 113.048C105.988 113.048 106.303 113.091 106.666 113.176C106.858 113.24 106.932 113.373 106.89 113.576L106.826 113.832C106.772 114.035 106.639 114.109 106.426 114.056C106.17 113.992 105.935 113.96 105.722 113.96C105.178 113.96 104.724 114.195 104.362 114.664C104.01 115.133 103.834 115.784 103.834 116.616V120.68C103.834 120.893 103.727 121 103.514 121H103.098C102.884 121 102.778 120.893 102.778 120.68V113.432C102.778 113.219 102.884 113.112 103.098 113.112H103.45C103.663 113.112 103.77 113.219 103.77 113.432V114.312C103.951 113.917 104.207 113.608 104.538 113.384C104.879 113.16 105.274 113.048 105.722 113.048ZM108.853 111.112C108.639 111.112 108.458 111.037 108.309 110.888C108.17 110.739 108.101 110.557 108.101 110.344C108.101 110.131 108.17 109.955 108.309 109.816C108.458 109.677 108.639 109.608 108.853 109.608C109.077 109.608 109.258 109.677 109.397 109.816C109.546 109.955 109.621 110.131 109.621 110.344C109.621 110.557 109.546 110.739 109.397 110.888C109.258 111.037 109.077 111.112 108.853 111.112ZM108.645 121C108.431 121 108.325 120.893 108.325 120.68V113.432C108.325 113.219 108.431 113.112 108.645 113.112H109.061C109.274 113.112 109.381 113.219 109.381 113.432V120.68C109.381 120.893 109.274 121 109.061 121H108.645ZM114.931 121.208C114.174 121.208 113.512 121.037 112.947 120.696C112.392 120.344 111.96 119.859 111.651 119.24C111.352 118.611 111.203 117.885 111.203 117.064C111.203 116.253 111.352 115.533 111.651 114.904C111.96 114.275 112.392 113.789 112.947 113.448C113.512 113.096 114.163 112.92 114.899 112.92C115.496 112.92 116.019 113.021 116.467 113.224C116.915 113.416 117.347 113.736 117.763 114.184C117.827 114.248 117.859 114.317 117.859 114.392C117.859 114.488 117.816 114.568 117.731 114.632L117.507 114.84C117.443 114.904 117.368 114.936 117.283 114.936C117.208 114.936 117.128 114.893 117.043 114.808C116.67 114.435 116.312 114.173 115.971 114.024C115.64 113.875 115.272 113.8 114.867 113.8C114.312 113.8 113.838 113.955 113.443 114.264C113.059 114.573 112.771 114.979 112.579 115.48C112.387 115.971 112.291 116.499 112.291 117.064C112.291 117.629 112.387 118.163 112.579 118.664C112.771 119.155 113.064 119.555 113.459 119.864C113.854 120.163 114.339 120.312 114.915 120.312C115.342 120.312 115.715 120.237 116.035 120.088C116.366 119.928 116.734 119.629 117.139 119.192C117.224 119.107 117.304 119.064 117.379 119.064C117.464 119.064 117.539 119.096 117.603 119.16L117.827 119.336C117.902 119.4 117.939 119.475 117.939 119.56C117.939 119.645 117.891 119.747 117.795 119.864C117.347 120.355 116.899 120.701 116.451 120.904C116.003 121.107 115.496 121.208 114.931 121.208ZM129.013 113.8C129.119 113.8 129.194 113.832 129.237 113.896C129.29 113.96 129.306 114.045 129.285 114.152L128.485 117.976C128.41 118.296 128.373 118.573 128.373 118.808C128.373 119.629 128.778 120.04 129.589 120.04C129.983 120.04 130.346 119.907 130.677 119.64C131.007 119.363 131.269 118.968 131.461 118.456C131.653 117.944 131.749 117.341 131.749 116.648C131.749 115.453 131.493 114.44 130.981 113.608C130.469 112.765 129.786 112.131 128.933 111.704C128.09 111.277 127.157 111.064 126.133 111.064C124.959 111.064 123.919 111.341 123.013 111.896C122.106 112.44 121.402 113.192 120.901 114.152C120.399 115.101 120.149 116.163 120.149 117.336C120.149 118.477 120.389 119.501 120.869 120.408C121.349 121.304 122.058 122.008 122.997 122.52C123.935 123.043 125.066 123.304 126.389 123.304H129.477C129.69 123.304 129.797 123.411 129.797 123.624V123.72C129.797 123.933 129.69 124.04 129.477 124.04H126.149C124.741 124.04 123.514 123.752 122.469 123.176C121.434 122.611 120.639 121.821 120.085 120.808C119.541 119.784 119.269 118.616 119.269 117.304C119.269 115.971 119.546 114.776 120.101 113.72C120.655 112.653 121.45 111.821 122.485 111.224C123.519 110.616 124.719 110.312 126.085 110.312C127.354 110.312 128.485 110.573 129.477 111.096C130.469 111.608 131.242 112.339 131.797 113.288C132.351 114.237 132.629 115.341 132.629 116.6C132.629 117.443 132.495 118.179 132.229 118.808C131.962 119.437 131.594 119.928 131.125 120.28C130.655 120.621 130.122 120.792 129.525 120.792C128.842 120.792 128.346 120.627 128.037 120.296C127.738 119.955 127.573 119.571 127.541 119.144C127.199 119.677 126.805 120.088 126.357 120.376C125.909 120.653 125.375 120.792 124.757 120.792C124.053 120.792 123.498 120.584 123.093 120.168C122.687 119.741 122.485 119.149 122.485 118.392C122.485 117.645 122.639 116.909 122.949 116.184C123.269 115.448 123.717 114.845 124.293 114.376C124.869 113.907 125.525 113.672 126.261 113.672C126.815 113.672 127.258 113.795 127.589 114.04C127.93 114.275 128.143 114.595 128.229 115L128.405 114.088C128.437 113.896 128.554 113.8 128.757 113.8H129.013ZM124.885 119.976C125.514 119.976 126.042 119.757 126.469 119.32C126.906 118.872 127.231 118.344 127.445 117.736C127.658 117.117 127.765 116.568 127.765 116.088C127.765 115.544 127.653 115.139 127.429 114.872C127.205 114.595 126.826 114.456 126.293 114.456C125.749 114.456 125.258 114.648 124.821 115.032C124.394 115.416 124.058 115.907 123.813 116.504C123.578 117.101 123.461 117.699 123.461 118.296C123.461 118.861 123.583 119.283 123.829 119.56C124.085 119.837 124.437 119.976 124.885 119.976ZM137.614 110.328C137.134 110.328 136.793 110.456 136.59 110.712C136.387 110.957 136.286 111.373 136.286 111.96V113.112H138.046C138.259 113.112 138.366 113.219 138.366 113.432V113.592C138.366 113.805 138.259 113.912 138.046 113.912H136.286V120.68C136.286 120.893 136.179 121 135.966 121H135.55C135.337 121 135.23 120.893 135.23 120.68V113.912H134.046C133.833 113.912 133.726 113.805 133.726 113.592V113.432C133.726 113.219 133.833 113.112 134.046 113.112H135.23V111.784C135.23 111.048 135.422 110.472 135.806 110.056C136.201 109.64 136.761 109.432 137.486 109.432C137.891 109.432 138.307 109.491 138.734 109.608C138.937 109.672 139.011 109.805 138.958 110.008L138.894 110.232C138.841 110.381 138.734 110.456 138.574 110.456C138.542 110.456 138.473 110.445 138.366 110.424C138.131 110.36 137.881 110.328 137.614 110.328ZM140.446 111.112C140.233 111.112 140.052 111.037 139.902 110.888C139.764 110.739 139.694 110.557 139.694 110.344C139.694 110.131 139.764 109.955 139.902 109.816C140.052 109.677 140.233 109.608 140.446 109.608C140.67 109.608 140.852 109.677 140.99 109.816C141.14 109.955 141.214 110.131 141.214 110.344C141.214 110.557 141.14 110.739 140.99 110.888C140.852 111.037 140.67 111.112 140.446 111.112ZM140.238 121C140.025 121 139.918 120.893 139.918 120.68V113.432C139.918 113.219 140.025 113.112 140.238 113.112H140.654C140.868 113.112 140.974 113.219 140.974 113.432V120.68C140.974 120.893 140.868 121 140.654 121H140.238ZM146.845 112.92C147.773 112.92 148.471 113.176 148.941 113.688C149.421 114.2 149.661 114.84 149.661 115.608V120.68C149.661 120.893 149.554 121 149.341 121H148.925C148.711 121 148.605 120.893 148.605 120.68V115.96C148.605 115.256 148.434 114.723 148.093 114.36C147.751 113.997 147.261 113.816 146.621 113.816C146.215 113.816 145.842 113.917 145.501 114.12C145.159 114.312 144.887 114.579 144.685 114.92C144.482 115.261 144.381 115.635 144.381 116.04V120.68C144.381 120.893 144.274 121 144.061 121H143.645C143.431 121 143.325 120.893 143.325 120.68V113.432C143.325 113.219 143.431 113.112 143.645 113.112H143.997C144.21 113.112 144.317 113.219 144.317 113.432V114.2C144.583 113.773 144.935 113.453 145.373 113.24C145.81 113.027 146.301 112.92 146.845 112.92ZM155.516 112.92C156.445 112.92 157.143 113.176 157.613 113.688C158.093 114.2 158.333 114.84 158.333 115.608V120.68C158.333 120.893 158.226 121 158.013 121H157.597C157.383 121 157.277 120.893 157.277 120.68V115.96C157.277 115.256 157.106 114.723 156.765 114.36C156.423 113.997 155.933 113.816 155.293 113.816C154.887 113.816 154.514 113.917 154.173 114.12C153.831 114.312 153.559 114.579 153.357 114.92C153.154 115.261 153.053 115.635 153.053 116.04V120.68C153.053 120.893 152.946 121 152.733 121H152.317C152.103 121 151.997 120.893 151.997 120.68V113.432C151.997 113.219 152.103 113.112 152.317 113.112H152.669C152.882 113.112 152.989 113.219 152.989 113.432V114.2C153.255 113.773 153.607 113.453 154.045 113.24C154.482 113.027 154.973 112.92 155.516 112.92ZM161.1 121.112C160.876 121.112 160.684 121.032 160.524 120.872C160.364 120.712 160.284 120.52 160.284 120.296C160.284 120.072 160.364 119.88 160.524 119.72C160.684 119.56 160.876 119.48 161.1 119.48C161.324 119.48 161.516 119.56 161.676 119.72C161.836 119.88 161.916 120.072 161.916 120.296C161.916 120.52 161.836 120.712 161.676 120.872C161.516 121.032 161.324 121.112 161.1 121.112ZM167.423 112.92C168.351 112.92 169.049 113.176 169.519 113.688C169.999 114.2 170.239 114.84 170.239 115.608V120.68C170.239 120.893 170.132 121 169.919 121H169.503C169.289 121 169.183 120.893 169.183 120.68V115.96C169.183 115.256 169.012 114.723 168.671 114.36C168.329 113.997 167.839 113.816 167.199 113.816C166.793 113.816 166.42 113.917 166.079 114.12C165.737 114.312 165.465 114.579 165.263 114.92C165.06 115.261 164.959 115.635 164.959 116.04V120.68C164.959 120.893 164.852 121 164.639 121H164.223C164.009 121 163.903 120.893 163.903 120.68V113.432C163.903 113.219 164.009 113.112 164.223 113.112H164.575C164.788 113.112 164.895 113.219 164.895 113.432V114.2C165.161 113.773 165.513 113.453 165.951 113.24C166.388 113.027 166.879 112.92 167.423 112.92ZM175.839 121.208C175.103 121.208 174.447 121.032 173.871 120.68C173.295 120.328 172.847 119.843 172.527 119.224C172.207 118.595 172.047 117.875 172.047 117.064C172.047 116.253 172.207 115.539 172.527 114.92C172.847 114.291 173.295 113.8 173.871 113.448C174.447 113.096 175.103 112.92 175.839 112.92C176.575 112.92 177.231 113.096 177.807 113.448C178.383 113.8 178.831 114.291 179.151 114.92C179.471 115.539 179.631 116.253 179.631 117.064C179.631 117.875 179.471 118.595 179.151 119.224C178.831 119.843 178.383 120.328 177.807 120.68C177.231 121.032 176.575 121.208 175.839 121.208ZM175.839 120.328C176.66 120.328 177.316 120.029 177.807 119.432C178.297 118.824 178.543 118.035 178.543 117.064C178.543 116.093 178.297 115.309 177.807 114.712C177.316 114.104 176.66 113.8 175.839 113.8C175.017 113.8 174.361 114.104 173.871 114.712C173.38 115.309 173.135 116.093 173.135 117.064C173.135 118.035 173.38 118.824 173.871 119.432C174.361 120.029 175.017 120.328 175.839 120.328Z" fill="#474445"/>
<path d="M75 93H270V91H75V93ZM273 96V136H275V96H273ZM270 139H75V141H270V139ZM72 136V96H70V136H72ZM75 139C73.3431 139 72 137.657 72 136H70C70 138.761 72.2386 141 75 141V139ZM273 136C273 137.657 271.657 139 270 139V141C272.761 141 275 138.761 275 136H273ZM270 93C271.657 93 273 94.3431 273 96H275C275 93.2386 272.761 91 270 91V93ZM75 91C72.2386 91 70 93.2386 70 96H72C72 94.3431 73.3431 93 75 93V91Z" fill="#C3CCD9"/>
<path d="M72.568 194C72.4187 194 72.2973 193.958 72.204 193.874C72.12 193.781 72.078 193.659 72.078 193.51V184.55C72.078 184.391 72.12 184.27 72.204 184.186C72.2973 184.102 72.4187 184.06 72.568 184.06H76.586C77.5753 184.06 78.364 184.335 78.952 184.886C79.54 185.427 79.834 186.169 79.834 187.112C79.834 188.055 79.54 188.797 78.952 189.338C78.364 189.879 77.5753 190.15 76.586 190.15H73.674V193.51C73.674 193.659 73.632 193.781 73.548 193.874C73.464 193.958 73.3427 194 73.184 194H72.568ZM76.334 188.82C76.9313 188.82 77.398 188.675 77.734 188.386C78.0793 188.087 78.252 187.663 78.252 187.112C78.252 186.552 78.0793 186.127 77.734 185.838C77.398 185.539 76.9313 185.39 76.334 185.39H73.674V188.82H76.334ZM83.8851 186.888C84.8185 186.888 85.5371 187.107 86.0411 187.546C86.5451 187.975 86.7971 188.549 86.7971 189.268V193.51C86.7971 193.659 86.7551 193.781 86.6711 193.874C86.5871 193.958 86.4658 194 86.3071 194H85.9431C85.7938 194 85.6725 193.958 85.5791 193.874C85.4951 193.781 85.4531 193.659 85.4531 193.51V193.202C85.2291 193.529 84.9211 193.781 84.5291 193.958C84.1371 194.135 83.6798 194.224 83.1571 194.224C82.4385 194.224 81.8458 194.065 81.3791 193.748C80.9218 193.421 80.6931 192.931 80.6931 192.278C80.6931 191.55 80.9638 191.013 81.5051 190.668C82.0558 190.313 82.8165 190.047 83.7871 189.87L85.3691 189.576V189.324C85.3691 188.941 85.2338 188.647 84.9631 188.442C84.7018 188.227 84.3518 188.12 83.9131 188.12C83.5398 188.12 83.2131 188.185 82.9331 188.316C82.6625 188.437 82.3685 188.643 82.0511 188.932C81.9298 189.035 81.8131 189.086 81.7011 189.086C81.5891 189.086 81.4725 189.035 81.3511 188.932L81.1271 188.736C81.0058 188.624 80.9451 188.503 80.9451 188.372C80.9451 188.251 81.0011 188.134 81.1131 188.022C81.5145 187.639 81.9391 187.355 82.3871 187.168C82.8351 186.981 83.3345 186.888 83.8851 186.888ZM83.3671 193.034C83.9271 193.034 84.3985 192.885 84.7811 192.586C85.1731 192.287 85.3691 191.858 85.3691 191.298V190.654L84.1511 190.906C83.4698 191.046 82.9658 191.205 82.6391 191.382C82.3125 191.559 82.1491 191.83 82.1491 192.194C82.1491 192.455 82.2565 192.661 82.4711 192.81C82.6858 192.959 82.9845 193.034 83.3671 193.034ZM91.1527 194.21C90.5833 194.21 90.0747 194.14 89.6267 194C89.188 193.851 88.74 193.594 88.2827 193.23C88.1427 193.127 88.0727 193.011 88.0727 192.88C88.0727 192.777 88.124 192.665 88.2267 192.544L88.4367 192.306C88.5487 192.175 88.67 192.11 88.8007 192.11C88.9033 192.11 89.0153 192.157 89.1367 192.25C89.5287 192.539 89.874 192.74 90.1727 192.852C90.4713 192.955 90.8073 193.006 91.1807 193.006C91.582 193.006 91.9087 192.927 92.1607 192.768C92.422 192.6 92.5527 192.376 92.5527 192.096C92.5527 191.881 92.478 191.713 92.3287 191.592C92.1887 191.461 92.002 191.363 91.7687 191.298C91.5353 191.223 91.19 191.139 90.7327 191.046C90.0887 190.906 89.5847 190.757 89.2207 190.598C88.866 190.43 88.6093 190.22 88.4507 189.968C88.292 189.716 88.2127 189.394 88.2127 189.002C88.2127 188.601 88.3247 188.241 88.5487 187.924C88.782 187.607 89.104 187.355 89.5147 187.168C89.9347 186.981 90.4247 186.888 90.9847 186.888C91.4887 186.888 91.9367 186.944 92.3287 187.056C92.73 187.168 93.122 187.359 93.5047 187.63C93.654 187.742 93.7287 187.868 93.7287 188.008C93.7287 188.101 93.682 188.209 93.5887 188.33L93.4067 188.554C93.304 188.685 93.178 188.75 93.0287 188.75C92.9167 188.75 92.8093 188.713 92.7067 188.638C92.3987 188.433 92.114 188.293 91.8527 188.218C91.5913 188.134 91.2973 188.092 90.9707 188.092C90.5693 188.092 90.2473 188.171 90.0047 188.33C89.762 188.489 89.6407 188.694 89.6407 188.946C89.6407 189.114 89.6967 189.249 89.8087 189.352C89.93 189.445 90.098 189.529 90.3127 189.604C90.5367 189.669 90.8867 189.753 91.3627 189.856C92.0067 189.996 92.5153 190.155 92.8887 190.332C93.2713 190.5 93.5513 190.719 93.7287 190.99C93.9153 191.251 94.0087 191.592 94.0087 192.012C94.0087 192.665 93.7473 193.197 93.2247 193.608C92.7113 194.009 92.0207 194.21 91.1527 194.21ZM97.9476 194.21C97.3783 194.21 96.8696 194.14 96.4216 194C95.9829 193.851 95.5349 193.594 95.0776 193.23C94.9376 193.127 94.8676 193.011 94.8676 192.88C94.8676 192.777 94.9189 192.665 95.0216 192.544L95.2316 192.306C95.3436 192.175 95.4649 192.11 95.5956 192.11C95.6983 192.11 95.8103 192.157 95.9316 192.25C96.3236 192.539 96.6689 192.74 96.9676 192.852C97.2663 192.955 97.6023 193.006 97.9756 193.006C98.3769 193.006 98.7036 192.927 98.9556 192.768C99.2169 192.6 99.3476 192.376 99.3476 192.096C99.3476 191.881 99.2729 191.713 99.1236 191.592C98.9836 191.461 98.7969 191.363 98.5636 191.298C98.3303 191.223 97.9849 191.139 97.5276 191.046C96.8836 190.906 96.3796 190.757 96.0156 190.598C95.6609 190.43 95.4043 190.22 95.2456 189.968C95.0869 189.716 95.0076 189.394 95.0076 189.002C95.0076 188.601 95.1196 188.241 95.3436 187.924C95.5769 187.607 95.8989 187.355 96.3096 187.168C96.7296 186.981 97.2196 186.888 97.7796 186.888C98.2836 186.888 98.7316 186.944 99.1236 187.056C99.5249 187.168 99.9169 187.359 100.3 187.63C100.449 187.742 100.524 187.868 100.524 188.008C100.524 188.101 100.477 188.209 100.384 188.33L100.202 188.554C100.099 188.685 99.9729 188.75 99.8236 188.75C99.7116 188.75 99.6043 188.713 99.5016 188.638C99.1936 188.433 98.9089 188.293 98.6476 188.218C98.3863 188.134 98.0923 188.092 97.7656 188.092C97.3643 188.092 97.0423 188.171 96.7996 188.33C96.5569 188.489 96.4356 188.694 96.4356 188.946C96.4356 189.114 96.4916 189.249 96.6036 189.352C96.7249 189.445 96.8929 189.529 97.1076 189.604C97.3316 189.669 97.6816 189.753 98.1576 189.856C98.8016 189.996 99.3103 190.155 99.6836 190.332C100.066 190.5 100.346 190.719 100.524 190.99C100.71 191.251 100.804 191.592 100.804 192.012C100.804 192.665 100.542 193.197 100.02 193.608C99.5063 194.009 98.8156 194.21 97.9476 194.21ZM109.825 187.518C109.891 187.238 110.073 187.098 110.371 187.098H110.889C111.029 187.098 111.137 187.131 111.211 187.196C111.295 187.252 111.337 187.341 111.337 187.462C111.337 187.49 111.328 187.551 111.309 187.644L109.643 193.58C109.578 193.86 109.396 194 109.097 194H108.187C107.907 194 107.725 193.86 107.641 193.58L107.179 191.956C106.974 191.237 106.745 190.337 106.493 189.254L106.423 188.946C106.171 190.085 105.929 191.093 105.695 191.97L105.261 193.58C105.196 193.86 105.014 194 104.715 194H103.819C103.539 194 103.357 193.86 103.273 193.58L101.593 187.644C101.575 187.551 101.565 187.49 101.565 187.462C101.565 187.341 101.603 187.252 101.677 187.196C101.761 187.131 101.873 187.098 102.013 187.098H102.559C102.858 187.098 103.04 187.238 103.105 187.518L103.609 189.506C103.805 190.234 104.034 191.205 104.295 192.418L104.351 192.698C104.622 191.447 104.874 190.383 105.107 189.506L105.639 187.518C105.705 187.238 105.887 187.098 106.185 187.098H106.717C107.016 187.098 107.198 187.238 107.263 187.518L107.809 189.506C108.071 190.477 108.332 191.541 108.593 192.698C108.789 191.699 109.032 190.635 109.321 189.506L109.825 187.518ZM115.581 194.21C114.9 194.21 114.293 194.056 113.761 193.748C113.238 193.44 112.828 193.011 112.529 192.46C112.23 191.9 112.081 191.261 112.081 190.542C112.081 189.823 112.23 189.189 112.529 188.638C112.828 188.087 113.238 187.658 113.761 187.35C114.293 187.042 114.9 186.888 115.581 186.888C116.253 186.888 116.855 187.042 117.387 187.35C117.919 187.658 118.334 188.092 118.633 188.652C118.932 189.203 119.081 189.833 119.081 190.542C119.081 191.261 118.932 191.9 118.633 192.46C118.334 193.011 117.919 193.44 117.387 193.748C116.855 194.056 116.253 194.21 115.581 194.21ZM115.581 192.964C116.178 192.964 116.659 192.745 117.023 192.306C117.387 191.858 117.569 191.27 117.569 190.542C117.569 189.823 117.387 189.245 117.023 188.806C116.659 188.367 116.178 188.148 115.581 188.148C114.984 188.148 114.503 188.367 114.139 188.806C113.775 189.245 113.593 189.823 113.593 190.542C113.593 191.27 113.775 191.858 114.139 192.306C114.503 192.745 114.984 192.964 115.581 192.964ZM123.497 187.028C123.702 187.028 123.912 187.051 124.127 187.098C124.379 187.154 124.505 187.303 124.505 187.546C124.505 187.611 124.5 187.658 124.491 187.686L124.421 188.022C124.365 188.283 124.225 188.414 124.001 188.414L123.875 188.4C123.707 188.372 123.558 188.358 123.427 188.358C122.96 188.358 122.582 188.545 122.293 188.918C122.013 189.282 121.873 189.791 121.873 190.444V193.51C121.873 193.659 121.831 193.781 121.747 193.874C121.663 193.958 121.542 194 121.383 194H120.879C120.73 194 120.608 193.958 120.515 193.874C120.431 193.781 120.389 193.659 120.389 193.51V187.588C120.389 187.429 120.431 187.308 120.515 187.224C120.608 187.14 120.73 187.098 120.879 187.098H121.285C121.444 187.098 121.565 187.14 121.649 187.224C121.733 187.308 121.775 187.429 121.775 187.588V188.134C121.943 187.789 122.172 187.518 122.461 187.322C122.75 187.126 123.096 187.028 123.497 187.028ZM130.114 184.536C130.114 184.377 130.156 184.256 130.24 184.172C130.334 184.088 130.455 184.046 130.604 184.046H131.108C131.267 184.046 131.388 184.088 131.472 184.172C131.556 184.256 131.598 184.377 131.598 184.536V193.51C131.598 193.659 131.556 193.781 131.472 193.874C131.388 193.958 131.267 194 131.108 194H130.702C130.553 194 130.432 193.958 130.338 193.874C130.254 193.781 130.212 193.659 130.212 193.51V193.02C129.727 193.804 128.966 194.196 127.93 194.196C127.352 194.196 126.829 194.047 126.362 193.748C125.905 193.449 125.546 193.025 125.284 192.474C125.023 191.923 124.892 191.284 124.892 190.556C124.892 189.837 125.023 189.203 125.284 188.652C125.555 188.101 125.924 187.677 126.39 187.378C126.857 187.079 127.38 186.93 127.958 186.93C128.91 186.93 129.629 187.261 130.114 187.924V184.536ZM128.238 192.922C128.808 192.922 129.274 192.712 129.638 192.292C130.002 191.863 130.184 191.284 130.184 190.556C130.184 189.828 130.002 189.254 129.638 188.834C129.274 188.414 128.808 188.204 128.238 188.204C127.688 188.204 127.244 188.419 126.908 188.848C126.572 189.277 126.404 189.847 126.404 190.556C126.404 191.275 126.568 191.849 126.894 192.278C127.23 192.707 127.678 192.922 128.238 192.922Z" fill="#474445"/>
<path d="M71 206C71 203.791 72.7909 202 75 202H270C272.209 202 274 203.791 274 206V246C274 248.209 272.209 250 270 250H75C72.7909 250 71 248.209 71 246V206Z" fill="white"/>
<path d="M82.92 228.888C82.4293 228.888 81.976 228.765 81.56 228.52C81.1547 228.275 80.8293 227.944 80.584 227.528C80.3493 227.112 80.232 226.664 80.232 226.184C80.232 225.693 80.3493 225.245 80.584 224.84C80.8293 224.424 81.1547 224.099 81.56 223.864C81.976 223.619 82.4293 223.496 82.92 223.496C83.4 223.496 83.848 223.619 84.264 223.864C84.68 224.099 85.0107 224.424 85.256 224.84C85.5013 225.245 85.624 225.693 85.624 226.184C85.624 226.664 85.5013 227.112 85.256 227.528C85.0107 227.944 84.68 228.275 84.264 228.52C83.848 228.765 83.4 228.888 82.92 228.888ZM90.7794 228.888C90.2887 228.888 89.8354 228.765 89.4194 228.52C89.014 228.275 88.6887 227.944 88.4434 227.528C88.2087 227.112 88.0914 226.664 88.0914 226.184C88.0914 225.693 88.2087 225.245 88.4434 224.84C88.6887 224.424 89.014 224.099 89.4194 223.864C89.8354 223.619 90.2887 223.496 90.7794 223.496C91.2594 223.496 91.7074 223.619 92.1234 223.864C92.5394 224.099 92.87 224.424 93.1154 224.84C93.3607 225.245 93.4834 225.693 93.4834 226.184C93.4834 226.664 93.3607 227.112 93.1154 227.528C92.87 227.944 92.5394 228.275 92.1234 228.52C91.7074 228.765 91.2594 228.888 90.7794 228.888ZM98.6388 228.888C98.1481 228.888 97.6948 228.765 97.2788 228.52C96.8734 228.275 96.5481 227.944 96.3028 227.528C96.0681 227.112 95.9508 226.664 95.9508 226.184C95.9508 225.693 96.0681 225.245 96.3028 224.84C96.5481 224.424 96.8734 224.099 97.2788 223.864C97.6948 223.619 98.1481 223.496 98.6388 223.496C99.1188 223.496 99.5668 223.619 99.9828 223.864C100.399 224.099 100.729 224.424 100.975 224.84C101.22 225.245 101.343 225.693 101.343 226.184C101.343 226.664 101.22 227.112 100.975 227.528C100.729 227.944 100.399 228.275 99.9828 228.52C99.5668 228.765 99.1188 228.888 98.6388 228.888ZM106.498 228.888C106.007 228.888 105.554 228.765 105.138 228.52C104.733 228.275 104.407 227.944 104.162 227.528C103.927 227.112 103.81 226.664 103.81 226.184C103.81 225.693 103.927 225.245 104.162 224.84C104.407 224.424 104.733 224.099 105.138 223.864C105.554 223.619 106.007 223.496 106.498 223.496C106.978 223.496 107.426 223.619 107.842 223.864C108.258 224.099 108.589 224.424 108.834 224.84C109.079 225.245 109.202 225.693 109.202 226.184C109.202 226.664 109.079 227.112 108.834 227.528C108.589 227.944 108.258 228.275 107.842 228.52C107.426 228.765 106.978 228.888 106.498 228.888ZM114.358 228.888C113.867 228.888 113.414 228.765 112.998 228.52C112.592 228.275 112.267 227.944 112.022 227.528C111.787 227.112 111.67 226.664 111.67 226.184C111.67 225.693 111.787 225.245 112.022 224.84C112.267 224.424 112.592 224.099 112.998 223.864C113.414 223.619 113.867 223.496 114.358 223.496C114.838 223.496 115.286 223.619 115.702 223.864C116.118 224.099 116.448 224.424 116.694 224.84C116.939 225.245 117.062 225.693 117.062 226.184C117.062 226.664 116.939 227.112 116.694 227.528C116.448 227.944 116.118 228.275 115.702 228.52C115.286 228.765 114.838 228.888 114.358 228.888ZM122.217 228.888C121.726 228.888 121.273 228.765 120.857 228.52C120.452 228.275 120.126 227.944 119.881 227.528C119.646 227.112 119.529 226.664 119.529 226.184C119.529 225.693 119.646 225.245 119.881 224.84C120.126 224.424 120.452 224.099 120.857 223.864C121.273 223.619 121.726 223.496 122.217 223.496C122.697 223.496 123.145 223.619 123.561 223.864C123.977 224.099 124.308 224.424 124.553 224.84C124.798 225.245 124.921 225.693 124.921 226.184C124.921 226.664 124.798 227.112 124.553 227.528C124.308 227.944 123.977 228.275 123.561 228.52C123.145 228.765 122.697 228.888 122.217 228.888ZM130.076 228.888C129.586 228.888 129.132 228.765 128.716 228.52C128.311 228.275 127.986 227.944 127.74 227.528C127.506 227.112 127.388 226.664 127.388 226.184C127.388 225.693 127.506 225.245 127.74 224.84C127.986 224.424 128.311 224.099 128.716 223.864C129.132 223.619 129.586 223.496 130.076 223.496C130.556 223.496 131.004 223.619 131.42 223.864C131.836 224.099 132.167 224.424 132.412 224.84C132.658 225.245 132.78 225.693 132.78 226.184C132.78 226.664 132.658 227.112 132.412 227.528C132.167 227.944 131.836 228.275 131.42 228.52C131.004 228.765 130.556 228.888 130.076 228.888ZM137.936 228.888C137.445 228.888 136.992 228.765 136.576 228.52C136.17 228.275 135.845 227.944 135.6 227.528C135.365 227.112 135.248 226.664 135.248 226.184C135.248 225.693 135.365 225.245 135.6 224.84C135.845 224.424 136.17 224.099 136.576 223.864C136.992 223.619 137.445 223.496 137.936 223.496C138.416 223.496 138.864 223.619 139.28 223.864C139.696 224.099 140.026 224.424 140.272 224.84C140.517 225.245 140.64 225.693 140.64 226.184C140.64 226.664 140.517 227.112 140.272 227.528C140.026 227.944 139.696 228.275 139.28 228.52C138.864 228.765 138.416 228.888 137.936 228.888ZM145.795 228.888C145.304 228.888 144.851 228.765 144.435 228.52C144.03 228.275 143.704 227.944 143.459 227.528C143.224 227.112 143.107 226.664 143.107 226.184C143.107 225.693 143.224 225.245 143.459 224.84C143.704 224.424 144.03 224.099 144.435 223.864C144.851 223.619 145.304 223.496 145.795 223.496C146.275 223.496 146.723 223.619 147.139 223.864C147.555 224.099 147.886 224.424 148.131 224.84C148.376 225.245 148.499 225.693 148.499 226.184C148.499 226.664 148.376 227.112 148.131 227.528C147.886 227.944 147.555 228.275 147.139 228.52C146.723 228.765 146.275 228.888 145.795 228.888ZM153.654 228.888C153.164 228.888 152.71 228.765 152.294 228.52C151.889 228.275 151.564 227.944 151.318 227.528C151.084 227.112 150.966 226.664 150.966 226.184C150.966 225.693 151.084 225.245 151.318 224.84C151.564 224.424 151.889 224.099 152.294 223.864C152.71 223.619 153.164 223.496 153.654 223.496C154.134 223.496 154.582 223.619 154.998 223.864C155.414 224.099 155.745 224.424 155.99 224.84C156.236 225.245 156.358 225.693 156.358 226.184C156.358 226.664 156.236 227.112 155.99 227.528C155.745 227.944 155.414 228.275 154.998 228.52C154.582 228.765 154.134 228.888 153.654 228.888ZM161.514 228.888C161.023 228.888 160.57 228.765 160.154 228.52C159.748 228.275 159.423 227.944 159.178 227.528C158.943 227.112 158.826 226.664 158.826 226.184C158.826 225.693 158.943 225.245 159.178 224.84C159.423 224.424 159.748 224.099 160.154 223.864C160.57 223.619 161.023 223.496 161.514 223.496C161.994 223.496 162.442 223.619 162.858 223.864C163.274 224.099 163.604 224.424 163.85 224.84C164.095 225.245 164.218 225.693 164.218 226.184C164.218 226.664 164.095 227.112 163.85 227.528C163.604 227.944 163.274 228.275 162.858 228.52C162.442 228.765 161.994 228.888 161.514 228.888ZM169.373 228.888C168.882 228.888 168.429 228.765 168.013 228.52C167.608 228.275 167.282 227.944 167.037 227.528C166.802 227.112 166.685 226.664 166.685 226.184C166.685 225.693 166.802 225.245 167.037 224.84C167.282 224.424 167.608 224.099 168.013 223.864C168.429 223.619 168.882 223.496 169.373 223.496C169.853 223.496 170.301 223.619 170.717 223.864C171.133 224.099 171.464 224.424 171.709 224.84C171.954 225.245 172.077 225.693 172.077 226.184C172.077 226.664 171.954 227.112 171.709 227.528C171.464 227.944 171.133 228.275 170.717 228.52C170.301 228.765 169.853 228.888 169.373 228.888Z" fill="#474445"/>
<path d="M75 203H270V201H75V203ZM273 206V246H275V206H273ZM270 249H75V251H270V249ZM72 246V206H70V246H72ZM75 249C73.3431 249 72 247.657 72 246H70C70 248.761 72.2386 251 75 251V249ZM273 246C273 247.657 271.657 249 270 249V251C272.761 251 275 248.761 275 246H273ZM270 203C271.657 203 273 204.343 273 206H275C275 203.239 272.761 201 270 201V203ZM75 201C72.2386 201 70 203.239 70 206H72C72 204.343 73.3431 203 75 203V201Z" fill="#C3CCD9"/>
</svg>
