<svg width="344" height="260" viewBox="0 0 344 260" fill="none" xmlns="http://www.w3.org/2000/svg">
<path d="M71.568 54C71.4187 54 71.2973 53.958 71.204 53.874C71.12 53.7807 71.078 53.6593 71.078 53.51V44.55C71.078 44.3913 71.12 44.27 71.204 44.186C71.2973 44.102 71.4187 44.06 71.568 44.06H77.378C77.5367 44.06 77.658 44.102 77.742 44.186C77.826 44.27 77.868 44.3913 77.868 44.55V44.914C77.868 45.0633 77.826 45.1847 77.742 45.278C77.658 45.362 77.5367 45.404 77.378 45.404H72.674V48.204H77.028C77.1867 48.204 77.308 48.246 77.392 48.33C77.476 48.414 77.518 48.5353 77.518 48.694V49.058C77.518 49.2073 77.476 49.3287 77.392 49.422C77.308 49.506 77.1867 49.548 77.028 49.548H72.674V52.656H77.518C77.6767 52.656 77.798 52.698 77.882 52.782C77.966 52.866 78.008 52.9873 78.008 53.146V53.51C78.008 53.6593 77.966 53.7807 77.882 53.874C77.798 53.958 77.6767 54 77.518 54H71.568ZM86.9143 46.888C87.6516 46.888 88.221 47.098 88.6223 47.518C89.0236 47.9287 89.2243 48.484 89.2243 49.184V53.51C89.2243 53.6593 89.1823 53.7807 89.0983 53.874C89.0143 53.958 88.893 54 88.7343 54H88.2303C88.081 54 87.9596 53.958 87.8663 53.874C87.7823 53.7807 87.7403 53.6593 87.7403 53.51V49.632C87.7403 49.1747 87.6376 48.8153 87.4323 48.554C87.227 48.2927 86.9143 48.162 86.4943 48.162C86.065 48.162 85.7243 48.3067 85.4723 48.596C85.2296 48.8853 85.1083 49.2587 85.1083 49.716V53.51C85.1083 53.6593 85.0663 53.7807 84.9823 53.874C84.8983 53.958 84.777 54 84.6183 54H84.1143C83.965 54 83.8436 53.958 83.7503 53.874C83.6663 53.7807 83.6243 53.6593 83.6243 53.51V49.632C83.6243 49.1747 83.5216 48.8153 83.3163 48.554C83.1203 48.2927 82.8123 48.162 82.3923 48.162C81.9816 48.162 81.6503 48.2973 81.3983 48.568C81.1463 48.8387 81.011 49.1887 80.9923 49.618V53.51C80.9923 53.6593 80.9503 53.7807 80.8663 53.874C80.7823 53.958 80.661 54 80.5023 54H79.9983C79.849 54 79.7276 53.958 79.6343 53.874C79.5503 53.7807 79.5083 53.6593 79.5083 53.51V47.588C79.5083 47.4293 79.5503 47.308 79.6343 47.224C79.7276 47.14 79.849 47.098 79.9983 47.098H80.4043C80.563 47.098 80.6843 47.14 80.7683 47.224C80.8523 47.308 80.8943 47.4293 80.8943 47.588V47.896C81.3236 47.224 81.9863 46.888 82.8823 46.888C83.3303 46.888 83.7223 46.9813 84.0583 47.168C84.3943 47.3547 84.651 47.616 84.8283 47.952C85.3043 47.2427 85.9996 46.888 86.9143 46.888ZM93.8363 46.888C94.7696 46.888 95.4883 47.1073 95.9923 47.546C96.4963 47.9753 96.7483 48.5493 96.7483 49.268V53.51C96.7483 53.6593 96.7063 53.7807 96.6223 53.874C96.5383 53.958 96.417 54 96.2583 54H95.8943C95.745 54 95.6236 53.958 95.5303 53.874C95.4463 53.7807 95.4043 53.6593 95.4043 53.51V53.202C95.1803 53.5287 94.8723 53.7807 94.4803 53.958C94.0883 54.1353 93.631 54.224 93.1083 54.224C92.3896 54.224 91.797 54.0653 91.3303 53.748C90.873 53.4213 90.6443 52.9313 90.6443 52.278C90.6443 51.55 90.915 51.0133 91.4563 50.668C92.007 50.3133 92.7676 50.0473 93.7383 49.87L95.3203 49.576V49.324C95.3203 48.9413 95.185 48.6473 94.9143 48.442C94.653 48.2273 94.303 48.12 93.8643 48.12C93.491 48.12 93.1643 48.1853 92.8843 48.316C92.6136 48.4373 92.3196 48.6427 92.0023 48.932C91.881 49.0347 91.7643 49.086 91.6523 49.086C91.5403 49.086 91.4236 49.0347 91.3023 48.932L91.0783 48.736C90.957 48.624 90.8963 48.5027 90.8963 48.372C90.8963 48.2507 90.9523 48.134 91.0643 48.022C91.4656 47.6393 91.8903 47.3547 92.3383 47.168C92.7863 46.9813 93.2856 46.888 93.8363 46.888ZM93.3183 53.034C93.8783 53.034 94.3496 52.8847 94.7323 52.586C95.1243 52.2873 95.3203 51.858 95.3203 51.298V50.654L94.1023 50.906C93.421 51.046 92.917 51.2047 92.5903 51.382C92.2636 51.5593 92.1003 51.83 92.1003 52.194C92.1003 52.4553 92.2076 52.6607 92.4223 52.81C92.637 52.9593 92.9356 53.034 93.3183 53.034ZM99.1998 45.754C98.9292 45.754 98.7005 45.6653 98.5138 45.488C98.3272 45.3013 98.2338 45.082 98.2338 44.83C98.2338 44.5687 98.3272 44.3493 98.5138 44.172C98.7005 43.9947 98.9292 43.906 99.1998 43.906C99.4705 43.906 99.6992 43.9947 99.8858 44.172C100.073 44.3493 100.166 44.5687 100.166 44.83C100.166 45.082 100.073 45.3013 99.8858 45.488C99.6992 45.6653 99.4705 45.754 99.1998 45.754ZM98.9338 54C98.7845 54 98.6632 53.958 98.5698 53.874C98.4858 53.7807 98.4438 53.6593 98.4438 53.51V47.588C98.4438 47.4293 98.4858 47.308 98.5698 47.224C98.6632 47.14 98.7845 47.098 98.9338 47.098H99.4378C99.5965 47.098 99.7178 47.14 99.8018 47.224C99.8858 47.308 99.9278 47.4293 99.9278 47.588V53.51C99.9278 53.6593 99.8858 53.7807 99.8018 53.874C99.7178 53.958 99.5965 54 99.4378 54H98.9338ZM102.189 54C102.04 54 101.918 53.958 101.825 53.874C101.741 53.7807 101.699 53.6593 101.699 53.51V44.55C101.699 44.3913 101.741 44.27 101.825 44.186C101.918 44.102 102.04 44.06 102.189 44.06H102.693C102.852 44.06 102.973 44.102 103.057 44.186C103.141 44.27 103.183 44.3913 103.183 44.55V53.51C103.183 53.6593 103.141 53.7807 103.057 53.874C102.973 53.958 102.852 54 102.693 54H102.189ZM110.995 46.888C111.928 46.888 112.647 47.1073 113.151 47.546C113.655 47.9753 113.907 48.5493 113.907 49.268V53.51C113.907 53.6593 113.865 53.7807 113.781 53.874C113.697 53.958 113.575 54 113.417 54H113.053C112.903 54 112.782 53.958 112.689 53.874C112.605 53.7807 112.563 53.6593 112.563 53.51V53.202C112.339 53.5287 112.031 53.7807 111.639 53.958C111.247 54.1353 110.789 54.224 110.267 54.224C109.548 54.224 108.955 54.0653 108.489 53.748C108.031 53.4213 107.803 52.9313 107.803 52.278C107.803 51.55 108.073 51.0133 108.615 50.668C109.165 50.3133 109.926 50.0473 110.897 49.87L112.479 49.576V49.324C112.479 48.9413 112.343 48.6473 112.073 48.442C111.811 48.2273 111.461 48.12 111.023 48.12C110.649 48.12 110.323 48.1853 110.043 48.316C109.772 48.4373 109.478 48.6427 109.161 48.932C109.039 49.0347 108.923 49.086 108.811 49.086C108.699 49.086 108.582 49.0347 108.461 48.932L108.237 48.736C108.115 48.624 108.055 48.5027 108.055 48.372C108.055 48.2507 108.111 48.134 108.223 48.022C108.624 47.6393 109.049 47.3547 109.497 47.168C109.945 46.9813 110.444 46.888 110.995 46.888ZM110.477 53.034C111.037 53.034 111.508 52.8847 111.891 52.586C112.283 52.2873 112.479 51.858 112.479 51.298V50.654L111.261 50.906C110.579 51.046 110.075 51.2047 109.749 51.382C109.422 51.5593 109.259 51.83 109.259 52.194C109.259 52.4553 109.366 52.6607 109.581 52.81C109.795 52.9593 110.094 53.034 110.477 53.034ZM120.46 44.536C120.46 44.3773 120.502 44.256 120.586 44.172C120.679 44.088 120.801 44.046 120.95 44.046H121.454C121.613 44.046 121.734 44.088 121.818 44.172C121.902 44.256 121.944 44.3773 121.944 44.536V53.51C121.944 53.6593 121.902 53.7807 121.818 53.874C121.734 53.958 121.613 54 121.454 54H121.048C120.899 54 120.777 53.958 120.684 53.874C120.6 53.7807 120.558 53.6593 120.558 53.51V53.02C120.073 53.804 119.312 54.196 118.276 54.196C117.697 54.196 117.175 54.0467 116.708 53.748C116.251 53.4493 115.891 53.0247 115.63 52.474C115.369 51.9233 115.238 51.284 115.238 50.556C115.238 49.8373 115.369 49.2027 115.63 48.652C115.901 48.1013 116.269 47.6767 116.736 47.378C117.203 47.0793 117.725 46.93 118.304 46.93C119.256 46.93 119.975 47.2613 120.46 47.924V44.536ZM118.584 52.922C119.153 52.922 119.62 52.712 119.984 52.292C120.348 51.8627 120.53 51.284 120.53 50.556C120.53 49.828 120.348 49.254 119.984 48.834C119.62 48.414 119.153 48.204 118.584 48.204C118.033 48.204 117.59 48.4187 117.254 48.848C116.918 49.2773 116.75 49.8467 116.75 50.556C116.75 51.2747 116.913 51.8487 117.24 52.278C117.576 52.7073 118.024 52.922 118.584 52.922ZM128.526 44.536C128.526 44.3773 128.568 44.256 128.652 44.172C128.746 44.088 128.867 44.046 129.016 44.046H129.52C129.679 44.046 129.8 44.088 129.884 44.172C129.968 44.256 130.01 44.3773 130.01 44.536V53.51C130.01 53.6593 129.968 53.7807 129.884 53.874C129.8 53.958 129.679 54 129.52 54H129.114C128.965 54 128.844 53.958 128.75 53.874C128.666 53.7807 128.624 53.6593 128.624 53.51V53.02C128.139 53.804 127.378 54.196 126.342 54.196C125.764 54.196 125.241 54.0467 124.774 53.748C124.317 53.4493 123.958 53.0247 123.696 52.474C123.435 51.9233 123.304 51.284 123.304 50.556C123.304 49.8373 123.435 49.2027 123.696 48.652C123.967 48.1013 124.336 47.6767 124.802 47.378C125.269 47.0793 125.792 46.93 126.37 46.93C127.322 46.93 128.041 47.2613 128.526 47.924V44.536ZM126.65 52.922C127.22 52.922 127.686 52.712 128.05 52.292C128.414 51.8627 128.596 51.284 128.596 50.556C128.596 49.828 128.414 49.254 128.05 48.834C127.686 48.414 127.22 48.204 126.65 48.204C126.1 48.204 125.656 48.4187 125.32 48.848C124.984 49.2773 124.816 49.8467 124.816 50.556C124.816 51.2747 124.98 51.8487 125.306 52.278C125.642 52.7073 126.09 52.922 126.65 52.922ZM134.843 47.028C135.048 47.028 135.258 47.0513 135.473 47.098C135.725 47.154 135.851 47.3033 135.851 47.546C135.851 47.6113 135.846 47.658 135.837 47.686L135.767 48.022C135.711 48.2833 135.571 48.414 135.347 48.414L135.221 48.4C135.053 48.372 134.904 48.358 134.773 48.358C134.306 48.358 133.928 48.5447 133.639 48.918C133.359 49.282 133.219 49.7907 133.219 50.444V53.51C133.219 53.6593 133.177 53.7807 133.093 53.874C133.009 53.958 132.888 54 132.729 54H132.225C132.076 54 131.954 53.958 131.861 53.874C131.777 53.7807 131.735 53.6593 131.735 53.51V47.588C131.735 47.4293 131.777 47.308 131.861 47.224C131.954 47.14 132.076 47.098 132.225 47.098H132.631C132.79 47.098 132.911 47.14 132.995 47.224C133.079 47.308 133.121 47.4293 133.121 47.588V48.134C133.289 47.7887 133.518 47.518 133.807 47.322C134.096 47.126 134.442 47.028 134.843 47.028ZM141.544 52.236C141.665 52.1333 141.782 52.082 141.894 52.082C142.006 52.082 142.123 52.1427 142.244 52.264L142.44 52.474C142.543 52.5953 142.594 52.712 142.594 52.824C142.594 52.9453 142.533 53.062 142.412 53.174C141.983 53.5473 141.553 53.8133 141.124 53.972C140.704 54.1307 140.237 54.21 139.724 54.21C139.005 54.21 138.38 54.0607 137.848 53.762C137.325 53.4633 136.919 53.0433 136.63 52.502C136.35 51.9513 136.21 51.3167 136.21 50.598C136.21 49.8887 136.345 49.254 136.616 48.694C136.896 48.1247 137.288 47.6813 137.792 47.364C138.305 47.0467 138.903 46.888 139.584 46.888C140.601 46.888 141.385 47.1913 141.936 47.798C142.487 48.3953 142.762 49.2213 142.762 50.276V50.402C142.753 50.5513 142.706 50.668 142.622 50.752C142.538 50.836 142.417 50.878 142.258 50.878H137.666C137.722 51.494 137.923 51.998 138.268 52.39C138.623 52.7727 139.117 52.964 139.752 52.964C140.097 52.964 140.401 52.9127 140.662 52.81C140.923 52.698 141.217 52.5067 141.544 52.236ZM139.556 48.064C139.043 48.064 138.627 48.218 138.31 48.526C138.002 48.8247 137.801 49.2493 137.708 49.8H141.306C141.269 49.2587 141.101 48.834 140.802 48.526C140.503 48.218 140.088 48.064 139.556 48.064ZM146.809 54.21C146.24 54.21 145.731 54.14 145.283 54C144.844 53.8507 144.396 53.594 143.939 53.23C143.799 53.1273 143.729 53.0107 143.729 52.88C143.729 52.7773 143.78 52.6653 143.883 52.544L144.093 52.306C144.205 52.1753 144.326 52.11 144.457 52.11C144.56 52.11 144.672 52.1567 144.793 52.25C145.185 52.5393 145.53 52.74 145.829 52.852C146.128 52.9547 146.464 53.006 146.837 53.006C147.238 53.006 147.565 52.9267 147.817 52.768C148.078 52.6 148.209 52.376 148.209 52.096C148.209 51.8813 148.134 51.7133 147.985 51.592C147.845 51.4613 147.658 51.3633 147.425 51.298C147.192 51.2233 146.846 51.1393 146.389 51.046C145.745 50.906 145.241 50.7567 144.877 50.598C144.522 50.43 144.266 50.22 144.107 49.968C143.948 49.716 143.869 49.394 143.869 49.002C143.869 48.6007 143.981 48.2413 144.205 47.924C144.438 47.6067 144.76 47.3547 145.171 47.168C145.591 46.9813 146.081 46.888 146.641 46.888C147.145 46.888 147.593 46.944 147.985 47.056C148.386 47.168 148.778 47.3593 149.161 47.63C149.31 47.742 149.385 47.868 149.385 48.008C149.385 48.1013 149.338 48.2087 149.245 48.33L149.063 48.554C148.96 48.6847 148.834 48.75 148.685 48.75C148.573 48.75 148.466 48.7127 148.363 48.638C148.055 48.4327 147.77 48.2927 147.509 48.218C147.248 48.134 146.954 48.092 146.627 48.092C146.226 48.092 145.904 48.1713 145.661 48.33C145.418 48.4887 145.297 48.694 145.297 48.946C145.297 49.114 145.353 49.2493 145.465 49.352C145.586 49.4453 145.754 49.5293 145.969 49.604C146.193 49.6693 146.543 49.7533 147.019 49.856C147.663 49.996 148.172 50.1547 148.545 50.332C148.928 50.5 149.208 50.7193 149.385 50.99C149.572 51.2513 149.665 51.592 149.665 52.012C149.665 52.6653 149.404 53.1973 148.881 53.608C148.368 54.0093 147.677 54.21 146.809 54.21ZM153.604 54.21C153.035 54.21 152.526 54.14 152.078 54C151.639 53.8507 151.191 53.594 150.734 53.23C150.594 53.1273 150.524 53.0107 150.524 52.88C150.524 52.7773 150.575 52.6653 150.678 52.544L150.888 52.306C151 52.1753 151.121 52.11 151.252 52.11C151.355 52.11 151.467 52.1567 151.588 52.25C151.98 52.5393 152.325 52.74 152.624 52.852C152.923 52.9547 153.259 53.006 153.632 53.006C154.033 53.006 154.36 52.9267 154.612 52.768C154.873 52.6 155.004 52.376 155.004 52.096C155.004 51.8813 154.929 51.7133 154.78 51.592C154.64 51.4613 154.453 51.3633 154.22 51.298C153.987 51.2233 153.641 51.1393 153.184 51.046C152.54 50.906 152.036 50.7567 151.672 50.598C151.317 50.43 151.061 50.22 150.902 49.968C150.743 49.716 150.664 49.394 150.664 49.002C150.664 48.6007 150.776 48.2413 151 47.924C151.233 47.6067 151.555 47.3547 151.966 47.168C152.386 46.9813 152.876 46.888 153.436 46.888C153.94 46.888 154.388 46.944 154.78 47.056C155.181 47.168 155.573 47.3593 155.956 47.63C156.105 47.742 156.18 47.868 156.18 48.008C156.18 48.1013 156.133 48.2087 156.04 48.33L155.858 48.554C155.755 48.6847 155.629 48.75 155.48 48.75C155.368 48.75 155.261 48.7127 155.158 48.638C154.85 48.4327 154.565 48.2927 154.304 48.218C154.043 48.134 153.749 48.092 153.422 48.092C153.021 48.092 152.699 48.1713 152.456 48.33C152.213 48.4887 152.092 48.694 152.092 48.946C152.092 49.114 152.148 49.2493 152.26 49.352C152.381 49.4453 152.549 49.5293 152.764 49.604C152.988 49.6693 153.338 49.7533 153.814 49.856C154.458 49.996 154.967 50.1547 155.34 50.332C155.723 50.5 156.003 50.7193 156.18 50.99C156.367 51.2513 156.46 51.592 156.46 52.012C156.46 52.6653 156.199 53.1973 155.676 53.608C155.163 54.0093 154.472 54.21 153.604 54.21Z" fill="#474445"/>
<path d="M70 66C70 63.7909 71.7909 62 74 62H269C271.209 62 273 63.7909 273 66V106C273 108.209 271.209 110 269 110H74C71.7909 110 70 108.209 70 106V66Z" fill="white"/>
<path d="M82.96 82.936C83.6213 82.936 84.2133 83.112 84.736 83.464C85.2693 83.8053 85.6853 84.2907 85.984 84.92C86.2827 85.5387 86.432 86.248 86.432 87.048C86.432 87.8587 86.2827 88.5787 85.984 89.208C85.6853 89.8373 85.2747 90.328 84.752 90.68C84.2293 91.0213 83.632 91.192 82.96 91.192C81.7227 91.192 80.816 90.7387 80.24 89.832V93.624C80.24 93.8373 80.1333 93.944 79.92 93.944H79.504C79.2907 93.944 79.184 93.8373 79.184 93.624V83.432C79.184 83.2187 79.2907 83.112 79.504 83.112H79.856C80.0693 83.112 80.176 83.2187 80.176 83.432V84.44C80.464 83.9493 80.8427 83.576 81.312 83.32C81.7813 83.064 82.3307 82.936 82.96 82.936ZM82.88 90.296C83.6267 90.296 84.224 89.9973 84.672 89.4C85.12 88.8027 85.344 88.0187 85.344 87.048C85.344 86.088 85.12 85.3147 84.672 84.728C84.224 84.1307 83.6267 83.832 82.88 83.832C82.08 83.832 81.4293 84.12 80.928 84.696C80.4373 85.2613 80.192 86.0453 80.192 87.048C80.192 88.0507 80.4427 88.8453 80.944 89.432C81.4453 90.008 82.0907 90.296 82.88 90.296ZM93.429 83.432C93.429 83.2187 93.5357 83.112 93.749 83.112H94.165C94.3783 83.112 94.485 83.2187 94.485 83.432V90.68C94.485 90.8933 94.3783 91 94.165 91H93.829C93.6157 91 93.509 90.8933 93.509 90.68V89.96C93.2743 90.376 92.9383 90.6907 92.501 90.904C92.0743 91.1067 91.605 91.208 91.093 91.208C90.133 91.208 89.4237 90.968 88.965 90.488C88.5063 89.9973 88.277 89.368 88.277 88.6V83.432C88.277 83.2187 88.3837 83.112 88.597 83.112H89.013C89.2263 83.112 89.333 83.2187 89.333 83.432V88.376C89.333 89.0053 89.4877 89.4853 89.797 89.816C90.117 90.136 90.5703 90.296 91.157 90.296C91.8183 90.296 92.3623 90.0933 92.789 89.688C93.2157 89.2827 93.429 88.7067 93.429 87.96V83.432ZM99.6079 91.208C98.9572 91.208 98.3812 91.1173 97.8799 90.936C97.3892 90.744 96.8719 90.424 96.3279 89.976C96.2319 89.912 96.1839 89.8373 96.1839 89.752C96.1839 89.6773 96.2212 89.6027 96.2959 89.528L96.5039 89.304C96.5679 89.2187 96.6479 89.176 96.7439 89.176C96.8185 89.176 96.8879 89.208 96.9519 89.272C97.4639 89.6667 97.9172 89.944 98.3119 90.104C98.7065 90.2533 99.1385 90.328 99.6079 90.328C100.195 90.328 100.675 90.2 101.048 89.944C101.421 89.6773 101.608 89.32 101.608 88.872C101.608 88.424 101.416 88.0933 101.032 87.88C100.648 87.6667 100.056 87.4747 99.2559 87.304C98.5519 87.1547 97.9972 87 97.5919 86.84C97.1972 86.6693 96.9039 86.456 96.7119 86.2C96.5199 85.944 96.4239 85.608 96.4239 85.192C96.4239 84.5093 96.7012 83.96 97.2559 83.544C97.8105 83.128 98.5092 82.92 99.3519 82.92C99.9279 82.92 100.44 82.9947 100.888 83.144C101.347 83.2827 101.805 83.5173 102.264 83.848C102.36 83.9227 102.408 84.0027 102.408 84.088C102.408 84.1413 102.381 84.2107 102.328 84.296L102.136 84.536C102.083 84.6213 102.008 84.664 101.912 84.664C101.827 84.664 101.752 84.6373 101.688 84.584C101.251 84.2747 100.861 84.0667 100.52 83.96C100.189 83.8533 99.8105 83.8 99.3839 83.8C98.7972 83.8 98.3279 83.928 97.9759 84.184C97.6239 84.44 97.4479 84.7653 97.4479 85.16C97.4479 85.4053 97.5279 85.6027 97.6879 85.752C97.8479 85.9013 98.0772 86.0293 98.3759 86.136C98.6745 86.232 99.1119 86.344 99.6879 86.472C100.755 86.7067 101.512 86.9947 101.96 87.336C102.419 87.6773 102.648 88.1733 102.648 88.824C102.648 89.5387 102.365 90.1147 101.8 90.552C101.235 90.9893 100.504 91.208 99.6079 91.208ZM110.178 89.128C110.253 89.0533 110.333 89.016 110.418 89.016C110.493 89.016 110.562 89.048 110.626 89.112L110.834 89.304C110.909 89.3787 110.946 89.4587 110.946 89.544C110.946 89.608 110.914 89.6827 110.85 89.768C110.327 90.2907 109.821 90.664 109.33 90.888C108.839 91.1013 108.29 91.208 107.682 91.208C106.914 91.208 106.247 91.0373 105.682 90.696C105.117 90.3547 104.679 89.88 104.37 89.272C104.061 88.6533 103.906 87.9387 103.906 87.128C103.906 86.3067 104.055 85.5813 104.354 84.952C104.663 84.312 105.095 83.816 105.65 83.464C106.205 83.1013 106.845 82.92 107.57 82.92C108.647 82.92 109.495 83.256 110.114 83.928C110.733 84.6 111.042 85.5067 111.042 86.648V86.84C111.031 86.936 110.994 87.0107 110.93 87.064C110.877 87.1173 110.802 87.144 110.706 87.144H104.978C105.01 88.04 105.245 88.7973 105.682 89.416C106.13 90.024 106.797 90.328 107.682 90.328C108.162 90.328 108.583 90.2427 108.946 90.072C109.319 89.8907 109.73 89.576 110.178 89.128ZM107.57 83.8C106.866 83.8 106.285 84.0187 105.826 84.456C105.378 84.8827 105.106 85.512 105.01 86.344H109.986C109.965 85.5653 109.741 84.9467 109.314 84.488C108.887 84.0293 108.306 83.8 107.57 83.8ZM115.926 80.328C115.446 80.328 115.105 80.456 114.902 80.712C114.7 80.9573 114.598 81.3733 114.598 81.96V83.112H116.358C116.572 83.112 116.678 83.2187 116.678 83.432V83.592C116.678 83.8053 116.572 83.912 116.358 83.912H114.598V90.68C114.598 90.8933 114.492 91 114.278 91H113.862C113.649 91 113.542 90.8933 113.542 90.68V83.912H112.358C112.145 83.912 112.038 83.8053 112.038 83.592V83.432C112.038 83.2187 112.145 83.112 112.358 83.112H113.542V81.784C113.542 81.048 113.734 80.472 114.118 80.056C114.513 79.64 115.073 79.432 115.798 79.432C116.204 79.432 116.62 79.4907 117.046 79.608C117.249 79.672 117.324 79.8053 117.27 80.008L117.206 80.232C117.153 80.3813 117.046 80.456 116.886 80.456C116.854 80.456 116.785 80.4453 116.678 80.424C116.444 80.36 116.193 80.328 115.926 80.328ZM118.759 81.112C118.546 81.112 118.364 81.0373 118.215 80.888C118.076 80.7387 118.007 80.5573 118.007 80.344C118.007 80.1307 118.076 79.9547 118.215 79.816C118.364 79.6773 118.546 79.608 118.759 79.608C118.983 79.608 119.164 79.6773 119.303 79.816C119.452 79.9547 119.527 80.1307 119.527 80.344C119.527 80.5573 119.452 80.7387 119.303 80.888C119.164 81.0373 118.983 81.112 118.759 81.112ZM118.551 91C118.338 91 118.231 90.8933 118.231 90.68V83.432C118.231 83.2187 118.338 83.112 118.551 83.112H118.967C119.18 83.112 119.287 83.2187 119.287 83.432V90.68C119.287 90.8933 119.18 91 118.967 91H118.551ZM125.157 82.92C126.085 82.92 126.784 83.176 127.253 83.688C127.733 84.2 127.973 84.84 127.973 85.608V90.68C127.973 90.8933 127.866 91 127.653 91H127.237C127.024 91 126.917 90.8933 126.917 90.68V85.96C126.917 85.256 126.746 84.7227 126.405 84.36C126.064 83.9973 125.573 83.816 124.933 83.816C124.528 83.816 124.154 83.9173 123.813 84.12C123.472 84.312 123.2 84.5787 122.997 84.92C122.794 85.2613 122.693 85.6347 122.693 86.04V90.68C122.693 90.8933 122.586 91 122.373 91H121.957C121.744 91 121.637 90.8933 121.637 90.68V83.432C121.637 83.2187 121.744 83.112 121.957 83.112H122.309C122.522 83.112 122.629 83.2187 122.629 83.432V84.2C122.896 83.7733 123.248 83.4533 123.685 83.24C124.122 83.0267 124.613 82.92 125.157 82.92ZM133.829 82.92C134.757 82.92 135.456 83.176 135.925 83.688C136.405 84.2 136.645 84.84 136.645 85.608V90.68C136.645 90.8933 136.538 91 136.325 91H135.909C135.696 91 135.589 90.8933 135.589 90.68V85.96C135.589 85.256 135.418 84.7227 135.077 84.36C134.736 83.9973 134.245 83.816 133.605 83.816C133.2 83.816 132.826 83.9173 132.485 84.12C132.144 84.312 131.872 84.5787 131.669 84.92C131.466 85.2613 131.365 85.6347 131.365 86.04V90.68C131.365 90.8933 131.258 91 131.045 91H130.629C130.416 91 130.309 90.8933 130.309 90.68V83.432C130.309 83.2187 130.416 83.112 130.629 83.112H130.981C131.194 83.112 131.301 83.2187 131.301 83.432V84.2C131.568 83.7733 131.92 83.4533 132.357 83.24C132.794 83.0267 133.285 82.92 133.829 82.92ZM148.341 83.8C148.448 83.8 148.522 83.832 148.565 83.896C148.618 83.96 148.634 84.0453 148.613 84.152L147.813 87.976C147.738 88.296 147.701 88.5733 147.701 88.808C147.701 89.6293 148.106 90.04 148.917 90.04C149.312 90.04 149.674 89.9067 150.005 89.64C150.336 89.3627 150.597 88.968 150.789 88.456C150.981 87.944 151.077 87.3413 151.077 86.648C151.077 85.4533 150.821 84.44 150.309 83.608C149.797 82.7653 149.114 82.1307 148.261 81.704C147.418 81.2773 146.485 81.064 145.461 81.064C144.288 81.064 143.248 81.3413 142.341 81.896C141.434 82.44 140.73 83.192 140.229 84.152C139.728 85.1013 139.477 86.1627 139.477 87.336C139.477 88.4773 139.717 89.5013 140.197 90.408C140.677 91.304 141.386 92.008 142.325 92.52C143.264 93.0427 144.394 93.304 145.717 93.304H148.805C149.018 93.304 149.125 93.4107 149.125 93.624V93.72C149.125 93.9333 149.018 94.04 148.805 94.04H145.477C144.069 94.04 142.842 93.752 141.797 93.176C140.762 92.6107 139.968 91.8213 139.413 90.808C138.869 89.784 138.597 88.616 138.597 87.304C138.597 85.9707 138.874 84.776 139.429 83.72C139.984 82.6533 140.778 81.8213 141.813 81.224C142.848 80.616 144.048 80.312 145.413 80.312C146.682 80.312 147.813 80.5733 148.805 81.096C149.797 81.608 150.57 82.3387 151.125 83.288C151.68 84.2373 151.957 85.3413 151.957 86.6C151.957 87.4427 151.824 88.1787 151.557 88.808C151.29 89.4373 150.922 89.928 150.453 90.28C149.984 90.6213 149.45 90.792 148.853 90.792C148.17 90.792 147.674 90.6267 147.365 90.296C147.066 89.9547 146.901 89.5707 146.869 89.144C146.528 89.6773 146.133 90.088 145.685 90.376C145.237 90.6533 144.704 90.792 144.085 90.792C143.381 90.792 142.826 90.584 142.421 90.168C142.016 89.7413 141.813 89.1493 141.813 88.392C141.813 87.6453 141.968 86.9093 142.277 86.184C142.597 85.448 143.045 84.8453 143.621 84.376C144.197 83.9067 144.853 83.672 145.589 83.672C146.144 83.672 146.586 83.7947 146.917 84.04C147.258 84.2747 147.472 84.5947 147.557 85L147.733 84.088C147.765 83.896 147.882 83.8 148.085 83.8H148.341ZM144.213 89.976C144.842 89.976 145.37 89.7573 145.797 89.32C146.234 88.872 146.56 88.344 146.773 87.736C146.986 87.1173 147.093 86.568 147.093 86.088C147.093 85.544 146.981 85.1387 146.757 84.872C146.533 84.5947 146.154 84.456 145.621 84.456C145.077 84.456 144.586 84.648 144.149 85.032C143.722 85.416 143.386 85.9067 143.141 86.504C142.906 87.1013 142.789 87.6987 142.789 88.296C142.789 88.8613 142.912 89.2827 143.157 89.56C143.413 89.8373 143.765 89.976 144.213 89.976ZM156.942 80.328C156.462 80.328 156.121 80.456 155.918 80.712C155.715 80.9573 155.614 81.3733 155.614 81.96V83.112H157.374C157.587 83.112 157.694 83.2187 157.694 83.432V83.592C157.694 83.8053 157.587 83.912 157.374 83.912H155.614V90.68C155.614 90.8933 155.507 91 155.294 91H154.878C154.665 91 154.558 90.8933 154.558 90.68V83.912H153.374C153.161 83.912 153.054 83.8053 153.054 83.592V83.432C153.054 83.2187 153.161 83.112 153.374 83.112H154.558V81.784C154.558 81.048 154.75 80.472 155.134 80.056C155.529 79.64 156.089 79.432 156.814 79.432C157.219 79.432 157.635 79.4907 158.062 79.608C158.265 79.672 158.339 79.8053 158.286 80.008L158.222 80.232C158.169 80.3813 158.062 80.456 157.902 80.456C157.87 80.456 157.801 80.4453 157.694 80.424C157.459 80.36 157.209 80.328 156.942 80.328ZM159.775 81.112C159.561 81.112 159.38 81.0373 159.231 80.888C159.092 80.7387 159.023 80.5573 159.023 80.344C159.023 80.1307 159.092 79.9547 159.231 79.816C159.38 79.6773 159.561 79.608 159.775 79.608C159.999 79.608 160.18 79.6773 160.319 79.816C160.468 79.9547 160.543 80.1307 160.543 80.344C160.543 80.5573 160.468 80.7387 160.319 80.888C160.18 81.0373 159.999 81.112 159.775 81.112ZM159.567 91C159.353 91 159.247 90.8933 159.247 90.68V83.432C159.247 83.2187 159.353 83.112 159.567 83.112H159.983C160.196 83.112 160.303 83.2187 160.303 83.432V90.68C160.303 90.8933 160.196 91 159.983 91H159.567ZM166.173 82.92C167.101 82.92 167.799 83.176 168.269 83.688C168.749 84.2 168.989 84.84 168.989 85.608V90.68C168.989 90.8933 168.882 91 168.669 91H168.253C168.039 91 167.933 90.8933 167.933 90.68V85.96C167.933 85.256 167.762 84.7227 167.421 84.36C167.079 83.9973 166.589 83.816 165.949 83.816C165.543 83.816 165.17 83.9173 164.829 84.12C164.487 84.312 164.215 84.5787 164.013 84.92C163.81 85.2613 163.709 85.6347 163.709 86.04V90.68C163.709 90.8933 163.602 91 163.389 91H162.973C162.759 91 162.653 90.8933 162.653 90.68V83.432C162.653 83.2187 162.759 83.112 162.973 83.112H163.325C163.538 83.112 163.645 83.2187 163.645 83.432V84.2C163.911 83.7733 164.263 83.4533 164.701 83.24C165.138 83.0267 165.629 82.92 166.173 82.92ZM174.845 82.92C175.773 82.92 176.471 83.176 176.941 83.688C177.421 84.2 177.661 84.84 177.661 85.608V90.68C177.661 90.8933 177.554 91 177.341 91H176.925C176.711 91 176.605 90.8933 176.605 90.68V85.96C176.605 85.256 176.434 84.7227 176.093 84.36C175.751 83.9973 175.261 83.816 174.621 83.816C174.215 83.816 173.842 83.9173 173.501 84.12C173.159 84.312 172.887 84.5787 172.685 84.92C172.482 85.2613 172.381 85.6347 172.381 86.04V90.68C172.381 90.8933 172.274 91 172.061 91H171.645C171.431 91 171.325 90.8933 171.325 90.68V83.432C171.325 83.2187 171.431 83.112 171.645 83.112H171.997C172.21 83.112 172.317 83.2187 172.317 83.432V84.2C172.583 83.7733 172.935 83.4533 173.373 83.24C173.81 83.0267 174.301 82.92 174.845 82.92ZM180.429 91.112C180.205 91.112 180.013 91.032 179.853 90.872C179.693 90.712 179.613 90.52 179.613 90.296C179.613 90.072 179.693 89.88 179.853 89.72C180.013 89.56 180.205 89.48 180.429 89.48C180.653 89.48 180.845 89.56 181.005 89.72C181.165 89.88 181.245 90.072 181.245 90.296C181.245 90.52 181.165 90.712 181.005 90.872C180.845 91.032 180.653 91.112 180.429 91.112ZM186.751 82.92C187.679 82.92 188.378 83.176 188.847 83.688C189.327 84.2 189.567 84.84 189.567 85.608V90.68C189.567 90.8933 189.46 91 189.247 91H188.831C188.618 91 188.511 90.8933 188.511 90.68V85.96C188.511 85.256 188.34 84.7227 187.999 84.36C187.658 83.9973 187.167 83.816 186.527 83.816C186.122 83.816 185.748 83.9173 185.407 84.12C185.066 84.312 184.794 84.5787 184.591 84.92C184.388 85.2613 184.287 85.6347 184.287 86.04V90.68C184.287 90.8933 184.18 91 183.967 91H183.551C183.338 91 183.231 90.8933 183.231 90.68V83.432C183.231 83.2187 183.338 83.112 183.551 83.112H183.903C184.116 83.112 184.223 83.2187 184.223 83.432V84.2C184.49 83.7733 184.842 83.4533 185.279 83.24C185.716 83.0267 186.207 82.92 186.751 82.92ZM195.167 91.208C194.431 91.208 193.775 91.032 193.199 90.68C192.623 90.328 192.175 89.8427 191.855 89.224C191.535 88.5947 191.375 87.8747 191.375 87.064C191.375 86.2533 191.535 85.5387 191.855 84.92C192.175 84.2907 192.623 83.8 193.199 83.448C193.775 83.096 194.431 82.92 195.167 82.92C195.903 82.92 196.559 83.096 197.135 83.448C197.711 83.8 198.159 84.2907 198.479 84.92C198.799 85.5387 198.959 86.2533 198.959 87.064C198.959 87.8747 198.799 88.5947 198.479 89.224C198.159 89.8427 197.711 90.328 197.135 90.68C196.559 91.032 195.903 91.208 195.167 91.208ZM195.167 90.328C195.988 90.328 196.644 90.0293 197.135 89.432C197.625 88.824 197.871 88.0347 197.871 87.064C197.871 86.0933 197.625 85.3093 197.135 84.712C196.644 84.104 195.988 83.8 195.167 83.8C194.345 83.8 193.689 84.104 193.199 84.712C192.708 85.3093 192.463 86.0933 192.463 87.064C192.463 88.0347 192.708 88.824 193.199 89.432C193.689 90.0293 194.345 90.328 195.167 90.328Z" fill="#474445"/>
<path d="M74 63H269V61H74V63ZM272 66V106H274V66H272ZM269 109H74V111H269V109ZM71 106V66H69V106H71ZM74 109C72.3431 109 71 107.657 71 106H69C69 108.761 71.2386 111 74 111V109ZM272 106C272 107.657 270.657 109 269 109V111C271.761 111 274 108.761 274 106H272ZM269 63C270.657 63 272 64.3431 272 66H274C274 63.2386 271.761 61 269 61V63ZM74 61C71.2386 61 69 63.2386 69 66H71C71 64.3431 72.3431 63 74 63V61Z" fill="#C3CCD9"/>
<path d="M73.92 164C73.7707 164 73.6493 163.958 73.556 163.874C73.472 163.781 73.43 163.659 73.43 163.51V155.418H70.882C70.7327 155.418 70.6113 155.376 70.518 155.292C70.434 155.199 70.392 155.077 70.392 154.928V154.55C70.392 154.391 70.434 154.27 70.518 154.186C70.6113 154.102 70.7327 154.06 70.882 154.06H77.56C77.7187 154.06 77.84 154.102 77.924 154.186C78.008 154.27 78.05 154.391 78.05 154.55V154.928C78.05 155.077 78.008 155.199 77.924 155.292C77.84 155.376 77.7187 155.418 77.56 155.418H75.026V163.51C75.026 163.659 74.984 163.781 74.9 163.874C74.816 163.958 74.6947 164 74.536 164H73.92ZM82.6046 162.236C82.7259 162.133 82.8426 162.082 82.9546 162.082C83.0666 162.082 83.1833 162.143 83.3046 162.264L83.5006 162.474C83.6033 162.595 83.6546 162.712 83.6546 162.824C83.6546 162.945 83.5939 163.062 83.4726 163.174C83.0433 163.547 82.6139 163.813 82.1846 163.972C81.7646 164.131 81.2979 164.21 80.7846 164.21C80.0659 164.21 79.4406 164.061 78.9086 163.762C78.3859 163.463 77.9799 163.043 77.6906 162.502C77.4106 161.951 77.2706 161.317 77.2706 160.598C77.2706 159.889 77.4059 159.254 77.6766 158.694C77.9566 158.125 78.3486 157.681 78.8526 157.364C79.3659 157.047 79.9633 156.888 80.6446 156.888C81.6619 156.888 82.4459 157.191 82.9966 157.798C83.5473 158.395 83.8226 159.221 83.8226 160.276V160.402C83.8133 160.551 83.7666 160.668 83.6826 160.752C83.5986 160.836 83.4773 160.878 83.3186 160.878H78.7266C78.7826 161.494 78.9833 161.998 79.3286 162.39C79.6833 162.773 80.1779 162.964 80.8126 162.964C81.1579 162.964 81.4613 162.913 81.7226 162.81C81.9839 162.698 82.2779 162.507 82.6046 162.236ZM80.6166 158.064C80.1033 158.064 79.6879 158.218 79.3706 158.526C79.0626 158.825 78.8619 159.249 78.7686 159.8H82.3666C82.3293 159.259 82.1613 158.834 81.8626 158.526C81.5639 158.218 81.1486 158.064 80.6166 158.064ZM85.7281 164C85.5788 164 85.4575 163.958 85.3641 163.874C85.2801 163.781 85.2381 163.659 85.2381 163.51V154.55C85.2381 154.391 85.2801 154.27 85.3641 154.186C85.4575 154.102 85.5788 154.06 85.7281 154.06H86.2321C86.3908 154.06 86.5121 154.102 86.5961 154.186C86.6801 154.27 86.7221 154.391 86.7221 154.55V163.51C86.7221 163.659 86.6801 163.781 86.5961 163.874C86.5121 163.958 86.3908 164 86.2321 164H85.7281ZM93.4327 162.236C93.5541 162.133 93.6707 162.082 93.7827 162.082C93.8947 162.082 94.0114 162.143 94.1327 162.264L94.3287 162.474C94.4314 162.595 94.4827 162.712 94.4827 162.824C94.4827 162.945 94.4221 163.062 94.3007 163.174C93.8714 163.547 93.4421 163.813 93.0127 163.972C92.5927 164.131 92.1261 164.21 91.6127 164.21C90.8941 164.21 90.2687 164.061 89.7367 163.762C89.2141 163.463 88.8081 163.043 88.5187 162.502C88.2387 161.951 88.0987 161.317 88.0987 160.598C88.0987 159.889 88.2341 159.254 88.5047 158.694C88.7847 158.125 89.1767 157.681 89.6807 157.364C90.1941 157.047 90.7914 156.888 91.4727 156.888C92.4901 156.888 93.2741 157.191 93.8247 157.798C94.3754 158.395 94.6507 159.221 94.6507 160.276V160.402C94.6414 160.551 94.5947 160.668 94.5107 160.752C94.4267 160.836 94.3054 160.878 94.1467 160.878H89.5547C89.6107 161.494 89.8114 161.998 90.1567 162.39C90.5114 162.773 91.0061 162.964 91.6407 162.964C91.9861 162.964 92.2894 162.913 92.5507 162.81C92.8121 162.698 93.1061 162.507 93.4327 162.236ZM91.4447 158.064C90.9314 158.064 90.5161 158.218 90.1987 158.526C89.8907 158.825 89.6901 159.249 89.5967 159.8H93.1947C93.1574 159.259 92.9894 158.834 92.6907 158.526C92.3921 158.218 91.9767 158.064 91.4447 158.064ZM99.6783 156.916C100.266 156.916 100.789 157.065 101.246 157.364C101.713 157.663 102.077 158.087 102.338 158.638C102.6 159.189 102.73 159.823 102.73 160.542C102.73 161.27 102.6 161.909 102.338 162.46C102.077 163.011 101.713 163.435 101.246 163.734C100.78 164.033 100.257 164.182 99.6783 164.182C98.7076 164.182 97.9796 163.846 97.4943 163.174V165.988C97.4943 166.147 97.4523 166.268 97.3683 166.352C97.2843 166.436 97.1629 166.478 97.0042 166.478H96.5003C96.3509 166.478 96.2296 166.436 96.1363 166.352C96.0523 166.268 96.0103 166.147 96.0103 165.988V157.588C96.0103 157.429 96.0523 157.308 96.1363 157.224C96.2296 157.14 96.3509 157.098 96.5003 157.098H96.9062C97.0649 157.098 97.1863 157.14 97.2703 157.224C97.3543 157.308 97.3963 157.429 97.3963 157.588V158.106C97.8909 157.313 98.6516 156.916 99.6783 156.916ZM99.3703 162.894C99.9303 162.894 100.378 162.684 100.714 162.264C101.05 161.835 101.218 161.261 101.218 160.542C101.218 159.833 101.05 159.263 100.714 158.834C100.388 158.405 99.9443 158.19 99.3843 158.19C98.8149 158.19 98.3483 158.4 97.9843 158.82C97.6203 159.24 97.4383 159.814 97.4383 160.542C97.4383 161.27 97.6203 161.844 97.9843 162.264C98.3483 162.684 98.8103 162.894 99.3703 162.894ZM107.591 156.888C108.384 156.888 108.991 157.112 109.411 157.56C109.84 157.999 110.055 158.568 110.055 159.268V163.51C110.055 163.659 110.013 163.781 109.929 163.874C109.845 163.958 109.723 164 109.565 164H109.061C108.911 164 108.79 163.958 108.697 163.874C108.613 163.781 108.571 163.659 108.571 163.51V159.73C108.571 159.226 108.445 158.839 108.193 158.568C107.95 158.297 107.6 158.162 107.143 158.162C106.695 158.162 106.317 158.316 106.009 158.624C105.71 158.932 105.561 159.319 105.561 159.786V163.51C105.561 163.659 105.519 163.781 105.435 163.874C105.351 163.958 105.229 164 105.071 164H104.567C104.417 164 104.296 163.958 104.203 163.874C104.119 163.781 104.077 163.659 104.077 163.51V154.55C104.077 154.391 104.119 154.27 104.203 154.186C104.296 154.102 104.417 154.06 104.567 154.06H105.071C105.229 154.06 105.351 154.102 105.435 154.186C105.519 154.27 105.561 154.391 105.561 154.55V157.812C105.785 157.513 106.069 157.285 106.415 157.126C106.769 156.967 107.161 156.888 107.591 156.888ZM114.868 164.21C114.187 164.21 113.58 164.056 113.048 163.748C112.526 163.44 112.115 163.011 111.816 162.46C111.518 161.9 111.368 161.261 111.368 160.542C111.368 159.823 111.518 159.189 111.816 158.638C112.115 158.087 112.526 157.658 113.048 157.35C113.58 157.042 114.187 156.888 114.868 156.888C115.54 156.888 116.142 157.042 116.674 157.35C117.206 157.658 117.622 158.092 117.92 158.652C118.219 159.203 118.368 159.833 118.368 160.542C118.368 161.261 118.219 161.9 117.92 162.46C117.622 163.011 117.206 163.44 116.674 163.748C116.142 164.056 115.54 164.21 114.868 164.21ZM114.868 162.964C115.466 162.964 115.946 162.745 116.31 162.306C116.674 161.858 116.856 161.27 116.856 160.542C116.856 159.823 116.674 159.245 116.31 158.806C115.946 158.367 115.466 158.148 114.868 158.148C114.271 158.148 113.79 158.367 113.426 158.806C113.062 159.245 112.88 159.823 112.88 160.542C112.88 161.27 113.062 161.858 113.426 162.306C113.79 162.745 114.271 162.964 114.868 162.964ZM123.19 156.888C123.984 156.888 124.59 157.112 125.01 157.56C125.44 157.999 125.654 158.568 125.654 159.268V163.51C125.654 163.659 125.612 163.781 125.528 163.874C125.444 163.958 125.323 164 125.164 164H124.66C124.511 164 124.39 163.958 124.296 163.874C124.212 163.781 124.17 163.659 124.17 163.51V159.73C124.17 159.226 124.044 158.839 123.792 158.568C123.55 158.297 123.2 158.162 122.742 158.162C122.294 158.162 121.916 158.316 121.608 158.624C121.31 158.932 121.16 159.319 121.16 159.786V163.51C121.16 163.659 121.118 163.781 121.034 163.874C120.95 163.958 120.829 164 120.67 164H120.166C120.017 164 119.896 163.958 119.802 163.874C119.718 163.781 119.676 163.659 119.676 163.51V157.588C119.676 157.429 119.718 157.308 119.802 157.224C119.896 157.14 120.017 157.098 120.166 157.098H120.572C120.731 157.098 120.852 157.14 120.936 157.224C121.02 157.308 121.062 157.429 121.062 157.588V157.952C121.286 157.607 121.58 157.345 121.944 157.168C122.308 156.981 122.724 156.888 123.19 156.888ZM132.302 162.236C132.423 162.133 132.54 162.082 132.652 162.082C132.764 162.082 132.881 162.143 133.002 162.264L133.198 162.474C133.301 162.595 133.352 162.712 133.352 162.824C133.352 162.945 133.291 163.062 133.17 163.174C132.741 163.547 132.311 163.813 131.882 163.972C131.462 164.131 130.995 164.21 130.482 164.21C129.763 164.21 129.138 164.061 128.606 163.762C128.083 163.463 127.677 163.043 127.388 162.502C127.108 161.951 126.968 161.317 126.968 160.598C126.968 159.889 127.103 159.254 127.374 158.694C127.654 158.125 128.046 157.681 128.55 157.364C129.063 157.047 129.661 156.888 130.342 156.888C131.359 156.888 132.143 157.191 132.694 157.798C133.245 158.395 133.52 159.221 133.52 160.276V160.402C133.511 160.551 133.464 160.668 133.38 160.752C133.296 160.836 133.175 160.878 133.016 160.878H128.424C128.48 161.494 128.681 161.998 129.026 162.39C129.381 162.773 129.875 162.964 130.51 162.964C130.855 162.964 131.159 162.913 131.42 162.81C131.681 162.698 131.975 162.507 132.302 162.236ZM130.314 158.064C129.801 158.064 129.385 158.218 129.068 158.526C128.76 158.825 128.559 159.249 128.466 159.8H132.064C132.027 159.259 131.859 158.834 131.56 158.526C131.261 158.218 130.846 158.064 130.314 158.064ZM141.524 156.888C142.318 156.888 142.924 157.112 143.344 157.56C143.774 157.999 143.988 158.568 143.988 159.268V163.51C143.988 163.659 143.946 163.781 143.862 163.874C143.778 163.958 143.657 164 143.498 164H142.994C142.845 164 142.724 163.958 142.63 163.874C142.546 163.781 142.504 163.659 142.504 163.51V159.73C142.504 159.226 142.378 158.839 142.126 158.568C141.884 158.297 141.534 158.162 141.076 158.162C140.628 158.162 140.25 158.316 139.942 158.624C139.644 158.932 139.494 159.319 139.494 159.786V163.51C139.494 163.659 139.452 163.781 139.368 163.874C139.284 163.958 139.163 164 139.004 164H138.5C138.351 164 138.23 163.958 138.136 163.874C138.052 163.781 138.01 163.659 138.01 163.51V157.588C138.01 157.429 138.052 157.308 138.136 157.224C138.23 157.14 138.351 157.098 138.5 157.098H138.906C139.065 157.098 139.186 157.14 139.27 157.224C139.354 157.308 139.396 157.429 139.396 157.588V157.952C139.62 157.607 139.914 157.345 140.278 157.168C140.642 156.981 141.058 156.888 141.524 156.888ZM150.049 157.588C150.049 157.429 150.091 157.308 150.175 157.224C150.268 157.14 150.389 157.098 150.539 157.098H151.043C151.201 157.098 151.323 157.14 151.407 157.224C151.491 157.308 151.533 157.429 151.533 157.588V163.51C151.533 163.659 151.491 163.781 151.407 163.874C151.323 163.958 151.201 164 151.043 164H150.665C150.515 164 150.394 163.958 150.301 163.874C150.217 163.781 150.175 163.659 150.175 163.51V163.188C149.988 163.505 149.717 163.757 149.363 163.944C149.008 164.121 148.588 164.21 148.103 164.21C147.281 164.21 146.67 164.009 146.269 163.608C145.867 163.197 145.667 162.656 145.667 161.984V157.588C145.667 157.429 145.709 157.308 145.793 157.224C145.886 157.14 146.007 157.098 146.157 157.098H146.66C146.819 157.098 146.941 157.14 147.025 157.224C147.109 157.308 147.151 157.429 147.151 157.588V161.592C147.151 162.021 147.258 162.353 147.473 162.586C147.697 162.81 148.019 162.922 148.439 162.922C148.924 162.922 149.311 162.782 149.601 162.502C149.899 162.222 150.049 161.816 150.049 161.284V157.588ZM160.647 156.888C161.384 156.888 161.953 157.098 162.355 157.518C162.756 157.929 162.957 158.484 162.957 159.184V163.51C162.957 163.659 162.915 163.781 162.831 163.874C162.747 163.958 162.625 164 162.467 164H161.963C161.813 164 161.692 163.958 161.599 163.874C161.515 163.781 161.473 163.659 161.473 163.51V159.632C161.473 159.175 161.37 158.815 161.165 158.554C160.959 158.293 160.647 158.162 160.227 158.162C159.797 158.162 159.457 158.307 159.205 158.596C158.962 158.885 158.841 159.259 158.841 159.716V163.51C158.841 163.659 158.799 163.781 158.715 163.874C158.631 163.958 158.509 164 158.351 164H157.847C157.697 164 157.576 163.958 157.483 163.874C157.399 163.781 157.357 163.659 157.357 163.51V159.632C157.357 159.175 157.254 158.815 157.049 158.554C156.853 158.293 156.545 158.162 156.125 158.162C155.714 158.162 155.383 158.297 155.131 158.568C154.879 158.839 154.743 159.189 154.725 159.618V163.51C154.725 163.659 154.683 163.781 154.599 163.874C154.515 163.958 154.393 164 154.235 164H153.731C153.581 164 153.46 163.958 153.367 163.874C153.283 163.781 153.241 163.659 153.241 163.51V157.588C153.241 157.429 153.283 157.308 153.367 157.224C153.46 157.14 153.581 157.098 153.731 157.098H154.137C154.295 157.098 154.417 157.14 154.501 157.224C154.585 157.308 154.627 157.429 154.627 157.588V157.896C155.056 157.224 155.719 156.888 156.615 156.888C157.063 156.888 157.455 156.981 157.791 157.168C158.127 157.355 158.383 157.616 158.561 157.952C159.037 157.243 159.732 156.888 160.647 156.888ZM168.325 156.916C168.913 156.916 169.435 157.065 169.893 157.364C170.359 157.663 170.723 158.087 170.985 158.638C171.246 159.189 171.377 159.823 171.377 160.542C171.377 161.27 171.246 161.909 170.985 162.46C170.723 163.011 170.359 163.435 169.893 163.734C169.426 164.033 168.903 164.182 168.325 164.182C167.289 164.182 166.528 163.795 166.043 163.02V163.51C166.043 163.659 166.001 163.781 165.917 163.874C165.833 163.958 165.711 164 165.553 164H165.147C164.997 164 164.876 163.958 164.783 163.874C164.699 163.781 164.657 163.659 164.657 163.51V154.55C164.657 154.391 164.699 154.27 164.783 154.186C164.876 154.102 164.997 154.06 165.147 154.06H165.651C165.809 154.06 165.931 154.102 166.015 154.186C166.099 154.27 166.141 154.391 166.141 154.55V157.966C166.635 157.266 167.363 156.916 168.325 156.916ZM168.017 162.894C168.577 162.894 169.025 162.684 169.361 162.264C169.697 161.835 169.865 161.261 169.865 160.542C169.865 159.833 169.697 159.263 169.361 158.834C169.034 158.405 168.591 158.19 168.031 158.19C167.461 158.19 166.995 158.405 166.631 158.834C166.267 159.254 166.085 159.823 166.085 160.542C166.085 161.279 166.267 161.858 166.631 162.278C166.995 162.689 167.457 162.894 168.017 162.894ZM177.747 162.236C177.869 162.133 177.985 162.082 178.097 162.082C178.209 162.082 178.326 162.143 178.447 162.264L178.643 162.474C178.746 162.595 178.797 162.712 178.797 162.824C178.797 162.945 178.737 163.062 178.615 163.174C178.186 163.547 177.757 163.813 177.327 163.972C176.907 164.131 176.441 164.21 175.927 164.21C175.209 164.21 174.583 164.061 174.051 163.762C173.529 163.463 173.123 163.043 172.833 162.502C172.553 161.951 172.413 161.317 172.413 160.598C172.413 159.889 172.549 159.254 172.819 158.694C173.099 158.125 173.491 157.681 173.995 157.364C174.509 157.047 175.106 156.888 175.787 156.888C176.805 156.888 177.589 157.191 178.139 157.798C178.69 158.395 178.965 159.221 178.965 160.276V160.402C178.956 160.551 178.909 160.668 178.825 160.752C178.741 160.836 178.62 160.878 178.461 160.878H173.869C173.925 161.494 174.126 161.998 174.471 162.39C174.826 162.773 175.321 162.964 175.955 162.964C176.301 162.964 176.604 162.913 176.865 162.81C177.127 162.698 177.421 162.507 177.747 162.236ZM175.759 158.064C175.246 158.064 174.831 158.218 174.513 158.526C174.205 158.825 174.005 159.249 173.911 159.8H177.509C177.472 159.259 177.304 158.834 177.005 158.526C176.707 158.218 176.291 158.064 175.759 158.064ZM183.433 157.028C183.638 157.028 183.848 157.051 184.063 157.098C184.315 157.154 184.441 157.303 184.441 157.546C184.441 157.611 184.436 157.658 184.427 157.686L184.357 158.022C184.301 158.283 184.161 158.414 183.937 158.414L183.811 158.4C183.643 158.372 183.493 158.358 183.363 158.358C182.896 158.358 182.518 158.545 182.229 158.918C181.949 159.282 181.809 159.791 181.809 160.444V163.51C181.809 163.659 181.767 163.781 181.683 163.874C181.599 163.958 181.477 164 181.319 164H180.815C180.665 164 180.544 163.958 180.451 163.874C180.367 163.781 180.325 163.659 180.325 163.51V157.588C180.325 157.429 180.367 157.308 180.451 157.224C180.544 157.14 180.665 157.098 180.815 157.098H181.221C181.379 157.098 181.501 157.14 181.585 157.224C181.669 157.308 181.711 157.429 181.711 157.588V158.134C181.879 157.789 182.107 157.518 182.397 157.322C182.686 157.126 183.031 157.028 183.433 157.028Z" fill="#474445"/>
<path d="M70 176C70 173.791 71.7909 172 74 172H179C181.209 172 183 173.791 183 176V216C183 218.209 181.209 220 179 220H74C71.7909 220 70 218.209 70 216V176Z" fill="white"/>
<path d="M82.64 189.4C83.4933 189.4 84.224 189.592 84.832 189.976C85.44 190.349 85.8987 190.861 86.208 191.512C86.5173 192.163 86.672 192.893 86.672 193.704C86.672 194.557 86.5227 195.352 86.224 196.088C85.9253 196.824 85.5253 197.507 85.024 198.136C84.5333 198.765 83.9147 199.437 83.168 200.152L82.448 200.84C82.3413 200.947 82.2133 201 82.064 201H81.424C81.2427 201 81.152 200.941 81.152 200.824C81.152 200.76 81.1947 200.685 81.28 200.6L82.288 199.672C83.9093 198.189 84.944 196.851 85.392 195.656C85.0827 196.083 84.6773 196.424 84.176 196.68C83.6747 196.925 83.104 197.048 82.464 197.048C81.6853 197.048 81.008 196.877 80.432 196.536C79.856 196.184 79.4133 195.72 79.104 195.144C78.8053 194.557 78.656 193.923 78.656 193.24C78.656 192.557 78.816 191.923 79.136 191.336C79.456 190.749 79.9147 190.28 80.512 189.928C81.12 189.576 81.8293 189.4 82.64 189.4ZM82.544 196.12C83.152 196.12 83.68 195.992 84.128 195.736C84.5867 195.48 84.9333 195.133 85.168 194.696C85.4133 194.259 85.536 193.768 85.536 193.224C85.536 192.68 85.4187 192.189 85.184 191.752C84.9493 191.304 84.6133 190.957 84.176 190.712C83.7387 190.456 83.2267 190.328 82.64 190.328C81.7547 190.328 81.0507 190.6 80.528 191.144C80.016 191.688 79.76 192.381 79.76 193.224C79.76 194.067 80.0053 194.76 80.496 195.304C80.9867 195.848 81.6693 196.12 82.544 196.12ZM94.14 194.856C94.8653 195.112 95.4253 195.512 95.82 196.056C96.2147 196.589 96.412 197.213 96.412 197.928C96.412 198.557 96.2467 199.128 95.916 199.64C95.5853 200.141 95.1107 200.536 94.492 200.824C93.8733 201.112 93.1427 201.256 92.3 201.256C91.4573 201.256 90.7267 201.112 90.108 200.824C89.4893 200.536 89.0147 200.141 88.684 199.64C88.3533 199.128 88.188 198.557 88.188 197.928C88.188 197.213 88.3853 196.589 88.78 196.056C89.1747 195.512 89.7347 195.112 90.46 194.856C89.9373 194.621 89.5267 194.296 89.228 193.88C88.9293 193.453 88.78 192.952 88.78 192.376C88.78 191.8 88.9293 191.288 89.228 190.84C89.5267 190.392 89.9427 190.045 90.476 189.8C91.0093 189.544 91.6173 189.416 92.3 189.416C92.9827 189.416 93.5907 189.544 94.124 189.8C94.6573 190.045 95.0733 190.392 95.372 190.84C95.6707 191.288 95.82 191.8 95.82 192.376C95.82 192.952 95.6707 193.453 95.372 193.88C95.0733 194.296 94.6627 194.621 94.14 194.856ZM89.836 192.344C89.836 192.984 90.06 193.496 90.508 193.88C90.9667 194.264 91.564 194.456 92.3 194.456C93.036 194.456 93.628 194.264 94.076 193.88C94.5347 193.496 94.764 192.984 94.764 192.344C94.764 191.747 94.54 191.261 94.092 190.888C93.6547 190.504 93.0573 190.312 92.3 190.312C91.5427 190.312 90.94 190.504 90.492 190.888C90.0547 191.261 89.836 191.747 89.836 192.344ZM92.3 200.312C93.228 200.312 93.9587 200.088 94.492 199.64C95.036 199.181 95.308 198.6 95.308 197.896C95.308 197.139 95.036 196.525 94.492 196.056C93.948 195.587 93.2173 195.352 92.3 195.352C91.3827 195.352 90.652 195.587 90.108 196.056C89.564 196.525 89.292 197.139 89.292 197.896C89.292 198.6 89.5587 199.181 90.092 199.64C90.636 200.088 91.372 200.312 92.3 200.312ZM101.102 189.96C101.102 189.747 101.208 189.64 101.422 189.64H108.686C108.899 189.64 109.006 189.747 109.006 189.96V190.184C109.006 190.344 108.958 190.477 108.862 190.584C107.795 191.928 106.84 193.507 105.998 195.32C105.166 197.123 104.611 198.92 104.334 200.712C104.302 200.904 104.184 201 103.982 201H103.486C103.379 201 103.299 200.973 103.246 200.92C103.192 200.856 103.171 200.771 103.182 200.664C103.48 198.925 104.062 197.139 104.926 195.304C105.79 193.469 106.744 191.885 107.79 190.552H101.422C101.208 190.552 101.102 190.445 101.102 190.232V189.96ZM114.073 193.576C114.852 193.576 115.529 193.752 116.105 194.104C116.681 194.445 117.118 194.909 117.417 195.496C117.726 196.072 117.881 196.707 117.881 197.4C117.881 198.083 117.721 198.717 117.401 199.304C117.081 199.891 116.617 200.36 116.009 200.712C115.412 201.064 114.708 201.24 113.897 201.24C113.044 201.24 112.313 201.048 111.705 200.664C111.097 200.28 110.638 199.763 110.329 199.112C110.02 198.461 109.865 197.731 109.865 196.92C109.865 195.683 110.164 194.573 110.761 193.592C111.369 192.6 112.238 191.56 113.369 190.472L114.089 189.8C114.196 189.693 114.324 189.64 114.473 189.64H115.113C115.294 189.64 115.385 189.699 115.385 189.816C115.385 189.88 115.342 189.955 115.257 190.04L114.249 190.968C112.638 192.461 111.604 193.789 111.145 194.952C111.454 194.525 111.86 194.189 112.361 193.944C112.862 193.699 113.433 193.576 114.073 193.576ZM113.897 200.312C114.484 200.312 114.996 200.184 115.433 199.928C115.87 199.672 116.201 199.325 116.425 198.888C116.66 198.451 116.777 197.96 116.777 197.416C116.777 196.573 116.532 195.88 116.041 195.336C115.55 194.792 114.868 194.52 113.993 194.52C113.374 194.52 112.841 194.648 112.393 194.904C111.945 195.149 111.598 195.496 111.353 195.944C111.118 196.381 111.001 196.872 111.001 197.416C111.001 197.96 111.118 198.451 111.353 198.888C111.588 199.325 111.924 199.672 112.361 199.928C112.798 200.184 113.31 200.312 113.897 200.312ZM127.211 193.672C127.947 193.672 128.592 193.827 129.147 194.136C129.712 194.435 130.149 194.861 130.459 195.416C130.768 195.971 130.923 196.611 130.923 197.336C130.923 197.987 130.768 198.611 130.459 199.208C130.149 199.805 129.701 200.291 129.115 200.664C128.528 201.037 127.84 201.224 127.051 201.224C126.283 201.224 125.616 201.128 125.051 200.936C124.496 200.744 123.867 200.413 123.163 199.944C123.056 199.88 123.003 199.795 123.003 199.688C123.003 199.613 123.024 199.549 123.067 199.496L123.275 199.208C123.339 199.112 123.413 199.064 123.499 199.064C123.563 199.064 123.637 199.091 123.723 199.144C124.373 199.581 124.928 199.885 125.387 200.056C125.856 200.227 126.373 200.312 126.939 200.312C127.536 200.312 128.053 200.179 128.491 199.912C128.928 199.635 129.259 199.272 129.483 198.824C129.717 198.365 129.835 197.869 129.835 197.336C129.835 196.483 129.595 195.816 129.115 195.336C128.645 194.856 127.968 194.616 127.083 194.616C126.133 194.616 125.339 194.904 124.699 195.48C124.581 195.587 124.443 195.629 124.283 195.608L123.931 195.56C123.835 195.549 123.76 195.512 123.707 195.448C123.653 195.384 123.632 195.304 123.643 195.208L124.075 189.944C124.085 189.848 124.117 189.773 124.171 189.72C124.235 189.667 124.315 189.64 124.411 189.64H130.107C130.32 189.64 130.427 189.747 130.427 189.96V190.248C130.427 190.461 130.32 190.568 130.107 190.568H125.019L124.683 194.504C124.981 194.259 125.344 194.061 125.771 193.912C126.208 193.752 126.688 193.672 127.211 193.672ZM140.69 197.336C140.904 197.336 141.01 197.443 141.01 197.656V197.928C141.01 198.141 140.904 198.248 140.69 198.248H139.266V200.68C139.266 200.893 139.16 201 138.946 201H138.53C138.317 201 138.21 200.893 138.21 200.68V198.248H132.706C132.493 198.248 132.386 198.141 132.386 197.928V197.512C132.386 197.395 132.424 197.267 132.498 197.128L137.074 189.848C137.16 189.709 137.288 189.64 137.458 189.64H137.97C138.056 189.64 138.125 189.661 138.178 189.704C138.232 189.736 138.258 189.784 138.258 189.848C138.258 189.88 138.237 189.939 138.194 190.024L133.57 197.336H138.21V194.92C138.21 194.707 138.317 194.6 138.53 194.6H138.946C139.16 194.6 139.266 194.707 139.266 194.92V197.336H140.69ZM146.03 194.248C147.161 194.248 148.078 194.536 148.782 195.112C149.486 195.688 149.838 196.509 149.838 197.576C149.838 198.173 149.689 198.755 149.39 199.32C149.102 199.885 148.67 200.349 148.094 200.712C147.518 201.064 146.825 201.24 146.014 201.24C145.342 201.24 144.697 201.144 144.078 200.952C143.47 200.749 142.846 200.445 142.206 200.04C142.099 199.976 142.046 199.891 142.046 199.784C142.046 199.709 142.067 199.645 142.11 199.592L142.318 199.304C142.382 199.208 142.462 199.16 142.558 199.16C142.643 199.16 142.713 199.181 142.766 199.224C143.395 199.619 143.95 199.901 144.43 200.072C144.921 200.232 145.438 200.312 145.982 200.312C146.537 200.312 147.022 200.195 147.438 199.96C147.854 199.715 148.174 199.389 148.398 198.984C148.633 198.568 148.75 198.104 148.75 197.592C148.75 196.824 148.505 196.221 148.014 195.784C147.523 195.347 146.793 195.128 145.822 195.128C145.417 195.128 145.059 195.171 144.75 195.256C144.718 195.267 144.675 195.272 144.622 195.272C144.505 195.272 144.409 195.219 144.334 195.112L144.158 194.872C144.105 194.787 144.078 194.712 144.078 194.648C144.078 194.563 144.115 194.488 144.19 194.424L148.222 190.568H142.814C142.601 190.568 142.494 190.461 142.494 190.248V189.96C142.494 189.747 142.601 189.64 142.814 189.64H149.246C149.459 189.64 149.566 189.747 149.566 189.96V190.312C149.566 190.461 149.507 190.595 149.39 190.712L145.646 194.264L146.03 194.248ZM158.832 200.072C159.045 200.072 159.152 200.179 159.152 200.392V200.68C159.152 200.893 159.045 201 158.832 201H151.728C151.514 201 151.408 200.893 151.408 200.68V200.616C151.408 199.837 151.541 199.181 151.808 198.648C152.085 198.104 152.442 197.645 152.88 197.272C153.328 196.899 153.941 196.472 154.72 195.992C154.794 195.939 155.072 195.773 155.552 195.496C156.117 195.176 156.56 194.899 156.88 194.664C157.2 194.429 157.466 194.141 157.68 193.8C157.893 193.448 158 193.037 158 192.568C158 191.853 157.76 191.304 157.28 190.92C156.8 190.536 156.218 190.344 155.536 190.344C154.874 190.344 154.325 190.483 153.888 190.76C153.45 191.037 152.944 191.517 152.368 192.2C152.293 192.296 152.202 192.344 152.096 192.344C152.042 192.344 151.978 192.317 151.904 192.264L151.632 192.056C151.536 191.971 151.488 191.885 151.488 191.8C151.488 191.747 151.514 191.683 151.568 191.608C152.133 190.893 152.72 190.349 153.328 189.976C153.946 189.603 154.672 189.416 155.504 189.416C156.197 189.416 156.816 189.549 157.36 189.816C157.904 190.072 158.325 190.44 158.624 190.92C158.933 191.389 159.088 191.923 159.088 192.52C159.088 193.149 158.954 193.693 158.688 194.152C158.432 194.6 158.106 194.973 157.712 195.272C157.317 195.56 156.784 195.901 156.112 196.296L155.312 196.776C154.64 197.192 154.128 197.533 153.776 197.8C153.424 198.056 153.13 198.371 152.896 198.744C152.661 199.107 152.522 199.549 152.48 200.072H158.832Z" fill="#474445"/>
<path d="M74 173H179V171H74V173ZM182 176V216H184V176H182ZM179 219H74V221H179V219ZM71 216V176H69V216H71ZM74 219C72.3431 219 71 217.657 71 216H69C69 218.761 71.2386 221 74 221V219ZM182 216C182 217.657 180.657 219 179 219V221C181.761 221 184 218.761 184 216H182ZM179 173C180.657 173 182 174.343 182 176H184C184 173.239 181.761 171 179 171V173ZM74 171C71.2386 171 69 173.239 69 176H71C71 174.343 72.3431 173 74 173V171Z" fill="#C3CCD9"/>
</svg>
