<svg width="344" height="170" viewBox="0 0 344 170" fill="none" xmlns="http://www.w3.org/2000/svg">
<path d="M72.568 54C72.4187 54 72.2973 53.958 72.204 53.874C72.12 53.7807 72.078 53.6593 72.078 53.51V44.55C72.078 44.3913 72.12 44.27 72.204 44.186C72.2973 44.102 72.4187 44.06 72.568 44.06H78.378C78.5367 44.06 78.658 44.102 78.742 44.186C78.826 44.27 78.868 44.3913 78.868 44.55V44.914C78.868 45.0633 78.826 45.1847 78.742 45.278C78.658 45.362 78.5367 45.404 78.378 45.404H73.674V48.204H78.028C78.1867 48.204 78.308 48.246 78.392 48.33C78.476 48.414 78.518 48.5353 78.518 48.694V49.058C78.518 49.2073 78.476 49.3287 78.392 49.422C78.308 49.506 78.1867 49.548 78.028 49.548H73.674V52.656H78.518C78.6767 52.656 78.798 52.698 78.882 52.782C78.966 52.866 79.008 52.9873 79.008 53.146V53.51C79.008 53.6593 78.966 53.7807 78.882 53.874C78.798 53.958 78.6767 54 78.518 54H72.568ZM87.9143 46.888C88.6516 46.888 89.221 47.098 89.6223 47.518C90.0236 47.9287 90.2243 48.484 90.2243 49.184V53.51C90.2243 53.6593 90.1823 53.7807 90.0983 53.874C90.0143 53.958 89.893 54 89.7343 54H89.2303C89.081 54 88.9596 53.958 88.8663 53.874C88.7823 53.7807 88.7403 53.6593 88.7403 53.51V49.632C88.7403 49.1747 88.6376 48.8153 88.4323 48.554C88.227 48.2927 87.9143 48.162 87.4943 48.162C87.065 48.162 86.7243 48.3067 86.4723 48.596C86.2296 48.8853 86.1083 49.2587 86.1083 49.716V53.51C86.1083 53.6593 86.0663 53.7807 85.9823 53.874C85.8983 53.958 85.777 54 85.6183 54H85.1143C84.965 54 84.8436 53.958 84.7503 53.874C84.6663 53.7807 84.6243 53.6593 84.6243 53.51V49.632C84.6243 49.1747 84.5216 48.8153 84.3163 48.554C84.1203 48.2927 83.8123 48.162 83.3923 48.162C82.9816 48.162 82.6503 48.2973 82.3983 48.568C82.1463 48.8387 82.011 49.1887 81.9923 49.618V53.51C81.9923 53.6593 81.9503 53.7807 81.8663 53.874C81.7823 53.958 81.661 54 81.5023 54H80.9983C80.849 54 80.7276 53.958 80.6343 53.874C80.5503 53.7807 80.5083 53.6593 80.5083 53.51V47.588C80.5083 47.4293 80.5503 47.308 80.6343 47.224C80.7276 47.14 80.849 47.098 80.9983 47.098H81.4043C81.563 47.098 81.6843 47.14 81.7683 47.224C81.8523 47.308 81.8943 47.4293 81.8943 47.588V47.896C82.3236 47.224 82.9863 46.888 83.8823 46.888C84.3303 46.888 84.7223 46.9813 85.0583 47.168C85.3943 47.3547 85.651 47.616 85.8283 47.952C86.3043 47.2427 86.9996 46.888 87.9143 46.888ZM94.8363 46.888C95.7696 46.888 96.4883 47.1073 96.9923 47.546C97.4963 47.9753 97.7483 48.5493 97.7483 49.268V53.51C97.7483 53.6593 97.7063 53.7807 97.6223 53.874C97.5383 53.958 97.417 54 97.2583 54H96.8943C96.745 54 96.6236 53.958 96.5303 53.874C96.4463 53.7807 96.4043 53.6593 96.4043 53.51V53.202C96.1803 53.5287 95.8723 53.7807 95.4803 53.958C95.0883 54.1353 94.631 54.224 94.1083 54.224C93.3896 54.224 92.797 54.0653 92.3303 53.748C91.873 53.4213 91.6443 52.9313 91.6443 52.278C91.6443 51.55 91.915 51.0133 92.4563 50.668C93.007 50.3133 93.7676 50.0473 94.7383 49.87L96.3203 49.576V49.324C96.3203 48.9413 96.185 48.6473 95.9143 48.442C95.653 48.2273 95.303 48.12 94.8643 48.12C94.491 48.12 94.1643 48.1853 93.8843 48.316C93.6136 48.4373 93.3196 48.6427 93.0023 48.932C92.881 49.0347 92.7643 49.086 92.6523 49.086C92.5403 49.086 92.4236 49.0347 92.3023 48.932L92.0783 48.736C91.957 48.624 91.8963 48.5027 91.8963 48.372C91.8963 48.2507 91.9523 48.134 92.0643 48.022C92.4656 47.6393 92.8903 47.3547 93.3383 47.168C93.7863 46.9813 94.2856 46.888 94.8363 46.888ZM94.3183 53.034C94.8783 53.034 95.3496 52.8847 95.7323 52.586C96.1243 52.2873 96.3203 51.858 96.3203 51.298V50.654L95.1023 50.906C94.421 51.046 93.917 51.2047 93.5903 51.382C93.2636 51.5593 93.1003 51.83 93.1003 52.194C93.1003 52.4553 93.2076 52.6607 93.4223 52.81C93.637 52.9593 93.9356 53.034 94.3183 53.034ZM100.2 45.754C99.9292 45.754 99.7005 45.6653 99.5138 45.488C99.3272 45.3013 99.2338 45.082 99.2338 44.83C99.2338 44.5687 99.3272 44.3493 99.5138 44.172C99.7005 43.9947 99.9292 43.906 100.2 43.906C100.471 43.906 100.699 43.9947 100.886 44.172C101.073 44.3493 101.166 44.5687 101.166 44.83C101.166 45.082 101.073 45.3013 100.886 45.488C100.699 45.6653 100.471 45.754 100.2 45.754ZM99.9338 54C99.7845 54 99.6632 53.958 99.5698 53.874C99.4858 53.7807 99.4438 53.6593 99.4438 53.51V47.588C99.4438 47.4293 99.4858 47.308 99.5698 47.224C99.6632 47.14 99.7845 47.098 99.9338 47.098H100.438C100.597 47.098 100.718 47.14 100.802 47.224C100.886 47.308 100.928 47.4293 100.928 47.588V53.51C100.928 53.6593 100.886 53.7807 100.802 53.874C100.718 53.958 100.597 54 100.438 54H99.9338ZM103.189 54C103.04 54 102.918 53.958 102.825 53.874C102.741 53.7807 102.699 53.6593 102.699 53.51V44.55C102.699 44.3913 102.741 44.27 102.825 44.186C102.918 44.102 103.04 44.06 103.189 44.06H103.693C103.852 44.06 103.973 44.102 104.057 44.186C104.141 44.27 104.183 44.3913 104.183 44.55V53.51C104.183 53.6593 104.141 53.7807 104.057 53.874C103.973 53.958 103.852 54 103.693 54H103.189ZM116.173 54C115.893 54 115.706 53.8693 115.613 53.608L114.955 51.718H110.559L109.901 53.608C109.808 53.8693 109.621 54 109.341 54H108.753C108.613 54 108.501 53.972 108.417 53.916C108.342 53.8507 108.305 53.762 108.305 53.65C108.305 53.594 108.319 53.524 108.347 53.44L111.595 44.452C111.688 44.1907 111.875 44.06 112.155 44.06H113.401C113.681 44.06 113.868 44.1907 113.961 44.452L117.209 53.44C117.237 53.524 117.251 53.594 117.251 53.65C117.251 53.762 117.209 53.8507 117.125 53.916C117.05 53.972 116.943 54 116.803 54H116.173ZM114.507 50.388L114.073 49.156C114.064 49.1373 113.961 48.8433 113.765 48.274C113.27 46.874 112.934 45.8753 112.757 45.278C112.486 46.1367 112.127 47.2007 111.679 48.47L111.441 49.17L111.021 50.388H114.507ZM123.251 44.536C123.251 44.3773 123.293 44.256 123.377 44.172C123.47 44.088 123.592 44.046 123.741 44.046H124.245C124.404 44.046 124.525 44.088 124.609 44.172C124.693 44.256 124.735 44.3773 124.735 44.536V53.51C124.735 53.6593 124.693 53.7807 124.609 53.874C124.525 53.958 124.404 54 124.245 54H123.839C123.69 54 123.568 53.958 123.475 53.874C123.391 53.7807 123.349 53.6593 123.349 53.51V53.02C122.864 53.804 122.103 54.196 121.067 54.196C120.488 54.196 119.966 54.0467 119.499 53.748C119.042 53.4493 118.682 53.0247 118.421 52.474C118.16 51.9233 118.029 51.284 118.029 50.556C118.029 49.8373 118.16 49.2027 118.421 48.652C118.692 48.1013 119.06 47.6767 119.527 47.378C119.994 47.0793 120.516 46.93 121.095 46.93C122.047 46.93 122.766 47.2613 123.251 47.924V44.536ZM121.375 52.922C121.944 52.922 122.411 52.712 122.775 52.292C123.139 51.8627 123.321 51.284 123.321 50.556C123.321 49.828 123.139 49.254 122.775 48.834C122.411 48.414 121.944 48.204 121.375 48.204C120.824 48.204 120.381 48.4187 120.045 48.848C119.709 49.2773 119.541 49.8467 119.541 50.556C119.541 51.2747 119.704 51.8487 120.031 52.278C120.367 52.7073 120.815 52.922 121.375 52.922ZM131.317 44.536C131.317 44.3773 131.359 44.256 131.443 44.172C131.537 44.088 131.658 44.046 131.807 44.046H132.311C132.47 44.046 132.591 44.088 132.675 44.172C132.759 44.256 132.801 44.3773 132.801 44.536V53.51C132.801 53.6593 132.759 53.7807 132.675 53.874C132.591 53.958 132.47 54 132.311 54H131.905C131.756 54 131.635 53.958 131.541 53.874C131.457 53.7807 131.415 53.6593 131.415 53.51V53.02C130.93 53.804 130.169 54.196 129.133 54.196C128.555 54.196 128.032 54.0467 127.565 53.748C127.108 53.4493 126.749 53.0247 126.487 52.474C126.226 51.9233 126.095 51.284 126.095 50.556C126.095 49.8373 126.226 49.2027 126.487 48.652C126.758 48.1013 127.127 47.6767 127.593 47.378C128.06 47.0793 128.583 46.93 129.161 46.93C130.113 46.93 130.832 47.2613 131.317 47.924V44.536ZM129.441 52.922C130.011 52.922 130.477 52.712 130.841 52.292C131.205 51.8627 131.387 51.284 131.387 50.556C131.387 49.828 131.205 49.254 130.841 48.834C130.477 48.414 130.011 48.204 129.441 48.204C128.891 48.204 128.447 48.4187 128.111 48.848C127.775 49.2773 127.607 49.8467 127.607 50.556C127.607 51.2747 127.771 51.8487 128.097 52.278C128.433 52.7073 128.881 52.922 129.441 52.922ZM137.634 47.028C137.839 47.028 138.049 47.0513 138.264 47.098C138.516 47.154 138.642 47.3033 138.642 47.546C138.642 47.6113 138.637 47.658 138.628 47.686L138.558 48.022C138.502 48.2833 138.362 48.414 138.138 48.414L138.012 48.4C137.844 48.372 137.695 48.358 137.564 48.358C137.097 48.358 136.719 48.5447 136.43 48.918C136.15 49.282 136.01 49.7907 136.01 50.444V53.51C136.01 53.6593 135.968 53.7807 135.884 53.874C135.8 53.958 135.679 54 135.52 54H135.016C134.867 54 134.745 53.958 134.652 53.874C134.568 53.7807 134.526 53.6593 134.526 53.51V47.588C134.526 47.4293 134.568 47.308 134.652 47.224C134.745 47.14 134.867 47.098 135.016 47.098H135.422C135.581 47.098 135.702 47.14 135.786 47.224C135.87 47.308 135.912 47.4293 135.912 47.588V48.134C136.08 47.7887 136.309 47.518 136.598 47.322C136.887 47.126 137.233 47.028 137.634 47.028ZM144.335 52.236C144.456 52.1333 144.573 52.082 144.685 52.082C144.797 52.082 144.914 52.1427 145.035 52.264L145.231 52.474C145.334 52.5953 145.385 52.712 145.385 52.824C145.385 52.9453 145.324 53.062 145.203 53.174C144.774 53.5473 144.344 53.8133 143.915 53.972C143.495 54.1307 143.028 54.21 142.515 54.21C141.796 54.21 141.171 54.0607 140.639 53.762C140.116 53.4633 139.71 53.0433 139.421 52.502C139.141 51.9513 139.001 51.3167 139.001 50.598C139.001 49.8887 139.136 49.254 139.407 48.694C139.687 48.1247 140.079 47.6813 140.583 47.364C141.096 47.0467 141.694 46.888 142.375 46.888C143.392 46.888 144.176 47.1913 144.727 47.798C145.278 48.3953 145.553 49.2213 145.553 50.276V50.402C145.544 50.5513 145.497 50.668 145.413 50.752C145.329 50.836 145.208 50.878 145.049 50.878H140.457C140.513 51.494 140.714 51.998 141.059 52.39C141.414 52.7727 141.908 52.964 142.543 52.964C142.888 52.964 143.192 52.9127 143.453 52.81C143.714 52.698 144.008 52.5067 144.335 52.236ZM142.347 48.064C141.834 48.064 141.418 48.218 141.101 48.526C140.793 48.8247 140.592 49.2493 140.499 49.8H144.097C144.06 49.2587 143.892 48.834 143.593 48.526C143.294 48.218 142.879 48.064 142.347 48.064ZM149.6 54.21C149.031 54.21 148.522 54.14 148.074 54C147.635 53.8507 147.187 53.594 146.73 53.23C146.59 53.1273 146.52 53.0107 146.52 52.88C146.52 52.7773 146.571 52.6653 146.674 52.544L146.884 52.306C146.996 52.1753 147.117 52.11 147.248 52.11C147.351 52.11 147.463 52.1567 147.584 52.25C147.976 52.5393 148.321 52.74 148.62 52.852C148.919 52.9547 149.255 53.006 149.628 53.006C150.029 53.006 150.356 52.9267 150.608 52.768C150.869 52.6 151 52.376 151 52.096C151 51.8813 150.925 51.7133 150.776 51.592C150.636 51.4613 150.449 51.3633 150.216 51.298C149.983 51.2233 149.637 51.1393 149.18 51.046C148.536 50.906 148.032 50.7567 147.668 50.598C147.313 50.43 147.057 50.22 146.898 49.968C146.739 49.716 146.66 49.394 146.66 49.002C146.66 48.6007 146.772 48.2413 146.996 47.924C147.229 47.6067 147.551 47.3547 147.962 47.168C148.382 46.9813 148.872 46.888 149.432 46.888C149.936 46.888 150.384 46.944 150.776 47.056C151.177 47.168 151.569 47.3593 151.952 47.63C152.101 47.742 152.176 47.868 152.176 48.008C152.176 48.1013 152.129 48.2087 152.036 48.33L151.854 48.554C151.751 48.6847 151.625 48.75 151.476 48.75C151.364 48.75 151.257 48.7127 151.154 48.638C150.846 48.4327 150.561 48.2927 150.3 48.218C150.039 48.134 149.745 48.092 149.418 48.092C149.017 48.092 148.695 48.1713 148.452 48.33C148.209 48.4887 148.088 48.694 148.088 48.946C148.088 49.114 148.144 49.2493 148.256 49.352C148.377 49.4453 148.545 49.5293 148.76 49.604C148.984 49.6693 149.334 49.7533 149.81 49.856C150.454 49.996 150.963 50.1547 151.336 50.332C151.719 50.5 151.999 50.7193 152.176 50.99C152.363 51.2513 152.456 51.592 152.456 52.012C152.456 52.6653 152.195 53.1973 151.672 53.608C151.159 54.0093 150.468 54.21 149.6 54.21ZM156.395 54.21C155.826 54.21 155.317 54.14 154.869 54C154.43 53.8507 153.982 53.594 153.525 53.23C153.385 53.1273 153.315 53.0107 153.315 52.88C153.315 52.7773 153.366 52.6653 153.469 52.544L153.679 52.306C153.791 52.1753 153.912 52.11 154.043 52.11C154.146 52.11 154.258 52.1567 154.379 52.25C154.771 52.5393 155.116 52.74 155.415 52.852C155.714 52.9547 156.05 53.006 156.423 53.006C156.824 53.006 157.151 52.9267 157.403 52.768C157.664 52.6 157.795 52.376 157.795 52.096C157.795 51.8813 157.72 51.7133 157.571 51.592C157.431 51.4613 157.244 51.3633 157.011 51.298C156.778 51.2233 156.432 51.1393 155.975 51.046C155.331 50.906 154.827 50.7567 154.463 50.598C154.108 50.43 153.852 50.22 153.693 49.968C153.534 49.716 153.455 49.394 153.455 49.002C153.455 48.6007 153.567 48.2413 153.791 47.924C154.024 47.6067 154.346 47.3547 154.757 47.168C155.177 46.9813 155.667 46.888 156.227 46.888C156.731 46.888 157.179 46.944 157.571 47.056C157.972 47.168 158.364 47.3593 158.747 47.63C158.896 47.742 158.971 47.868 158.971 48.008C158.971 48.1013 158.924 48.2087 158.831 48.33L158.649 48.554C158.546 48.6847 158.42 48.75 158.271 48.75C158.159 48.75 158.052 48.7127 157.949 48.638C157.641 48.4327 157.356 48.2927 157.095 48.218C156.834 48.134 156.54 48.092 156.213 48.092C155.812 48.092 155.49 48.1713 155.247 48.33C155.004 48.4887 154.883 48.694 154.883 48.946C154.883 49.114 154.939 49.2493 155.051 49.352C155.172 49.4453 155.34 49.5293 155.555 49.604C155.779 49.6693 156.129 49.7533 156.605 49.856C157.249 49.996 157.758 50.1547 158.131 50.332C158.514 50.5 158.794 50.7193 158.971 50.99C159.158 51.2513 159.251 51.592 159.251 52.012C159.251 52.6653 158.99 53.1973 158.467 53.608C157.954 54.0093 157.263 54.21 156.395 54.21Z" fill="#474445"/>
<path d="M71 66C71 63.7909 72.7909 62 75 62H270C272.209 62 274 63.7909 274 66V106C274 108.209 272.209 110 270 110H75C72.7909 110 71 108.209 71 106V66Z" fill="white"/>
<path d="M75 63H270V61H75V63ZM273 66V106H275V66H273ZM270 109H75V111H270V109ZM72 106V66H70V106H72ZM75 109C73.3431 109 72 107.657 72 106H70C70 108.761 72.2386 111 75 111V109ZM273 106C273 107.657 271.657 109 270 109V111C272.761 111 275 108.761 275 106H273ZM270 63C271.657 63 273 64.3431 273 66H275C275 63.2386 272.761 61 270 61V63ZM75 61C72.2386 61 70 63.2386 70 66H72C72 64.3431 73.3431 63 75 63V61Z" fill="#C3CCD9"/>
<path d="M72.272 126C72.112 126 72.032 125.92 72.032 125.76V117.72C72.032 117.56 72.112 117.48 72.272 117.48H77.312C77.472 117.48 77.552 117.56 77.552 117.72V117.948C77.552 118.108 77.472 118.188 77.312 118.188H72.884V121.272H76.976C77.136 121.272 77.216 121.352 77.216 121.512V121.728C77.216 121.888 77.136 121.968 76.976 121.968H72.884V125.292H77.408C77.568 125.292 77.648 125.372 77.648 125.532V125.76C77.648 125.92 77.568 126 77.408 126H72.272ZM81.7233 119.94C82.4193 119.94 82.9433 120.132 83.2953 120.516C83.6553 120.9 83.8353 121.38 83.8353 121.956V125.76C83.8353 125.92 83.7553 126 83.5953 126H83.2833C83.1233 126 83.0433 125.92 83.0433 125.76V122.22C83.0433 121.692 82.9153 121.292 82.6593 121.02C82.4033 120.748 82.0353 120.612 81.5553 120.612C81.2513 120.612 80.9713 120.688 80.7153 120.84C80.4593 120.984 80.2553 121.184 80.1033 121.44C79.9513 121.696 79.8753 121.976 79.8753 122.28V125.76C79.8753 125.92 79.7953 126 79.6353 126H79.3233C79.1633 126 79.0833 125.92 79.0833 125.76V120.324C79.0833 120.164 79.1633 120.084 79.3233 120.084H79.5873C79.7473 120.084 79.8273 120.164 79.8273 120.324V120.9C80.0273 120.58 80.2913 120.34 80.6193 120.18C80.9473 120.02 81.3153 119.94 81.7233 119.94ZM88.0872 125.34C88.1112 125.332 88.1432 125.328 88.1832 125.328C88.2312 125.328 88.2752 125.344 88.3152 125.376C88.3552 125.408 88.3792 125.452 88.3872 125.508L88.4232 125.676C88.4312 125.692 88.4352 125.72 88.4352 125.76C88.4352 125.872 88.3752 125.94 88.2552 125.964C87.9672 126.052 87.6592 126.096 87.3312 126.096C86.8112 126.096 86.4392 125.98 86.2152 125.748C85.9992 125.508 85.8912 125.164 85.8912 124.716V120.684H85.0032C84.8432 120.684 84.7632 120.604 84.7632 120.444V120.324C84.7632 120.164 84.8432 120.084 85.0032 120.084H85.8912V118.26C85.8912 118.1 85.9712 118.02 86.1312 118.02H86.4432C86.6032 118.02 86.6832 118.1 86.6832 118.26V120.084H88.1232C88.2832 120.084 88.3632 120.164 88.3632 120.324V120.444C88.3632 120.604 88.2832 120.684 88.1232 120.684H86.6832V124.62C86.6832 124.916 86.7392 125.124 86.8512 125.244C86.9632 125.364 87.1552 125.424 87.4272 125.424C87.6192 125.424 87.8392 125.396 88.0872 125.34ZM93.6569 124.596C93.7129 124.54 93.7729 124.512 93.8369 124.512C93.8929 124.512 93.9449 124.536 93.9929 124.584L94.1489 124.728C94.2049 124.784 94.2329 124.844 94.2329 124.908C94.2329 124.956 94.2089 125.012 94.1609 125.076C93.7689 125.468 93.3889 125.748 93.0209 125.916C92.6529 126.076 92.2409 126.156 91.7849 126.156C91.2089 126.156 90.7089 126.028 90.2849 125.772C89.8609 125.516 89.5329 125.16 89.3009 124.704C89.0689 124.24 88.9529 123.704 88.9529 123.096C88.9529 122.48 89.0649 121.936 89.2889 121.464C89.5209 120.984 89.8449 120.612 90.2609 120.348C90.6769 120.076 91.1569 119.94 91.7009 119.94C92.5089 119.94 93.1449 120.192 93.6089 120.696C94.0729 121.2 94.3049 121.88 94.3049 122.736V122.88C94.2969 122.952 94.2689 123.008 94.2209 123.048C94.1809 123.088 94.1249 123.108 94.0529 123.108H89.7569C89.7809 123.78 89.9569 124.348 90.2849 124.812C90.6209 125.268 91.1209 125.496 91.7849 125.496C92.1449 125.496 92.4609 125.432 92.7329 125.304C93.0129 125.168 93.3209 124.932 93.6569 124.596ZM91.7009 120.6C91.1729 120.6 90.7369 120.764 90.3929 121.092C90.0569 121.412 89.8529 121.884 89.7809 122.508H93.5129C93.4969 121.924 93.3289 121.46 93.0089 121.116C92.6889 120.772 92.2529 120.6 91.7009 120.6ZM97.9319 120.036C98.1319 120.036 98.3679 120.068 98.6399 120.132C98.7839 120.18 98.8399 120.28 98.8079 120.432L98.7599 120.624C98.7199 120.776 98.6199 120.832 98.4599 120.792C98.2679 120.744 98.0919 120.72 97.9319 120.72C97.5239 120.72 97.1839 120.896 96.9119 121.248C96.6479 121.6 96.5159 122.088 96.5159 122.712V125.76C96.5159 125.92 96.4359 126 96.2759 126H95.9639C95.8039 126 95.7239 125.92 95.7239 125.76V120.324C95.7239 120.164 95.8039 120.084 95.9639 120.084H96.2279C96.3879 120.084 96.4679 120.164 96.4679 120.324V120.984C96.6039 120.688 96.7959 120.456 97.0439 120.288C97.2999 120.12 97.5959 120.036 97.9319 120.036ZM106.205 120.276C106.253 120.148 106.345 120.084 106.481 120.084H106.805C106.869 120.084 106.921 120.1 106.961 120.132C107.001 120.164 107.021 120.208 107.021 120.264L106.997 120.36L104.681 126.9C104.553 127.26 104.429 127.54 104.309 127.74C104.189 127.94 104.025 128.092 103.817 128.196C103.617 128.3 103.353 128.352 103.025 128.352C102.817 128.352 102.633 128.336 102.473 128.304C102.393 128.296 102.337 128.264 102.305 128.208C102.281 128.152 102.277 128.088 102.293 128.016L102.329 127.86C102.361 127.716 102.453 127.652 102.605 127.668C102.749 127.692 102.873 127.704 102.977 127.704C103.233 127.704 103.433 127.632 103.577 127.488C103.729 127.344 103.873 127.072 104.009 126.672L104.117 126.336L102.005 120.36L101.981 120.264C101.981 120.208 102.001 120.164 102.041 120.132C102.081 120.1 102.133 120.084 102.197 120.084H102.545C102.673 120.084 102.761 120.148 102.809 120.276L103.481 122.256C103.545 122.456 103.705 122.932 103.961 123.684L104.501 125.304C104.765 124.56 105.113 123.536 105.545 122.232L106.205 120.276ZM110.57 126.156C110.018 126.156 109.526 126.024 109.094 125.76C108.662 125.496 108.326 125.132 108.086 124.668C107.846 124.196 107.726 123.656 107.726 123.048C107.726 122.44 107.846 121.904 108.086 121.44C108.326 120.968 108.662 120.6 109.094 120.336C109.526 120.072 110.018 119.94 110.57 119.94C111.122 119.94 111.614 120.072 112.046 120.336C112.478 120.6 112.814 120.968 113.054 121.44C113.294 121.904 113.414 122.44 113.414 123.048C113.414 123.656 113.294 124.196 113.054 124.668C112.814 125.132 112.478 125.496 112.046 125.76C111.614 126.024 111.122 126.156 110.57 126.156ZM110.57 125.496C111.186 125.496 111.678 125.272 112.046 124.824C112.414 124.368 112.598 123.776 112.598 123.048C112.598 122.32 112.414 121.732 112.046 121.284C111.678 120.828 111.186 120.6 110.57 120.6C109.954 120.6 109.462 120.828 109.094 121.284C108.726 121.732 108.542 122.32 108.542 123.048C108.542 123.776 108.726 124.368 109.094 124.824C109.462 125.272 109.954 125.496 110.57 125.496ZM118.63 120.324C118.63 120.164 118.71 120.084 118.87 120.084H119.182C119.342 120.084 119.422 120.164 119.422 120.324V125.76C119.422 125.92 119.342 126 119.182 126H118.93C118.77 126 118.69 125.92 118.69 125.76V125.22C118.514 125.532 118.262 125.768 117.934 125.928C117.614 126.08 117.262 126.156 116.878 126.156C116.158 126.156 115.626 125.976 115.282 125.616C114.938 125.248 114.766 124.776 114.766 124.2V120.324C114.766 120.164 114.846 120.084 115.006 120.084H115.318C115.478 120.084 115.558 120.164 115.558 120.324V124.032C115.558 124.504 115.674 124.864 115.906 125.112C116.146 125.352 116.486 125.472 116.926 125.472C117.422 125.472 117.83 125.32 118.15 125.016C118.47 124.712 118.63 124.28 118.63 123.72V120.324ZM123.409 120.036C123.609 120.036 123.845 120.068 124.117 120.132C124.261 120.18 124.317 120.28 124.285 120.432L124.237 120.624C124.197 120.776 124.097 120.832 123.937 120.792C123.745 120.744 123.569 120.72 123.409 120.72C123.001 120.72 122.661 120.896 122.389 121.248C122.125 121.6 121.993 122.088 121.993 122.712V125.76C121.993 125.92 121.913 126 121.753 126H121.441C121.281 126 121.201 125.92 121.201 125.76V120.324C121.201 120.164 121.281 120.084 121.441 120.084H121.705C121.865 120.084 121.945 120.164 121.945 120.324V120.984C122.081 120.688 122.273 120.456 122.521 120.288C122.777 120.12 123.073 120.036 123.409 120.036ZM132.434 124.596C132.49 124.54 132.55 124.512 132.614 124.512C132.67 124.512 132.722 124.536 132.77 124.584L132.926 124.728C132.982 124.784 133.01 124.844 133.01 124.908C133.01 124.956 132.986 125.012 132.938 125.076C132.546 125.468 132.166 125.748 131.798 125.916C131.43 126.076 131.018 126.156 130.562 126.156C129.986 126.156 129.486 126.028 129.062 125.772C128.638 125.516 128.31 125.16 128.078 124.704C127.846 124.24 127.73 123.704 127.73 123.096C127.73 122.48 127.842 121.936 128.066 121.464C128.298 120.984 128.622 120.612 129.038 120.348C129.454 120.076 129.934 119.94 130.478 119.94C131.286 119.94 131.922 120.192 132.386 120.696C132.85 121.2 133.082 121.88 133.082 122.736V122.88C133.074 122.952 133.046 123.008 132.998 123.048C132.958 123.088 132.902 123.108 132.83 123.108H128.534C128.558 123.78 128.734 124.348 129.062 124.812C129.398 125.268 129.898 125.496 130.562 125.496C130.922 125.496 131.238 125.432 131.51 125.304C131.79 125.168 132.098 124.932 132.434 124.596ZM130.478 120.6C129.95 120.6 129.514 120.764 129.17 121.092C128.834 121.412 128.63 121.884 128.558 122.508H132.29C132.274 121.924 132.106 121.46 131.786 121.116C131.466 120.772 131.03 120.6 130.478 120.6ZM140.513 119.94C141.153 119.94 141.641 120.124 141.977 120.492C142.321 120.852 142.493 121.316 142.493 121.884V125.76C142.493 125.92 142.413 126 142.253 126H141.941C141.781 126 141.701 125.92 141.701 125.76V122.1C141.701 121.62 141.589 121.252 141.365 120.996C141.149 120.74 140.825 120.612 140.393 120.612C139.937 120.612 139.573 120.764 139.301 121.068C139.029 121.372 138.893 121.764 138.893 122.244V125.76C138.893 125.92 138.813 126 138.653 126H138.341C138.181 126 138.101 125.92 138.101 125.76V122.1C138.101 121.62 137.989 121.252 137.765 120.996C137.549 120.74 137.221 120.612 136.781 120.612C136.373 120.612 136.033 120.74 135.761 120.996C135.497 121.252 135.341 121.588 135.293 122.004V125.76C135.293 125.92 135.213 126 135.053 126H134.741C134.581 126 134.501 125.92 134.501 125.76V120.324C134.501 120.164 134.581 120.084 134.741 120.084H135.005C135.165 120.084 135.245 120.164 135.245 120.324V120.816C135.605 120.232 136.177 119.94 136.961 119.94C137.369 119.94 137.717 120.032 138.005 120.216C138.301 120.392 138.521 120.632 138.665 120.936C139.089 120.272 139.705 119.94 140.513 119.94ZM146.52 119.94C147.248 119.94 147.816 120.116 148.224 120.468C148.632 120.812 148.836 121.268 148.836 121.836V125.76C148.836 125.92 148.756 126 148.596 126H148.356C148.196 126 148.116 125.92 148.116 125.76V125.22C147.916 125.54 147.632 125.78 147.264 125.94C146.904 126.1 146.5 126.18 146.052 126.18C145.428 126.18 144.92 126.048 144.528 125.784C144.136 125.52 143.94 125.112 143.94 124.56C143.94 124.12 144.064 123.768 144.312 123.504C144.56 123.232 144.884 123.028 145.284 122.892C145.684 122.748 146.184 122.62 146.784 122.508L148.08 122.28V121.896C148.08 121.488 147.94 121.172 147.66 120.948C147.38 120.716 147.012 120.6 146.556 120.6C146.212 120.6 145.9 120.664 145.62 120.792C145.34 120.92 145.04 121.14 144.72 121.452C144.664 121.508 144.604 121.536 144.54 121.536C144.484 121.536 144.432 121.512 144.384 121.464L144.228 121.32C144.172 121.264 144.144 121.204 144.144 121.14C144.144 121.068 144.172 121.004 144.228 120.948C144.564 120.596 144.916 120.34 145.284 120.18C145.66 120.02 146.072 119.94 146.52 119.94ZM146.088 125.52C146.664 125.52 147.14 125.368 147.516 125.064C147.892 124.76 148.08 124.372 148.08 123.9V122.892L146.964 123.108C146.444 123.212 146.032 123.312 145.728 123.408C145.424 123.504 145.18 123.644 144.996 123.828C144.812 124.012 144.72 124.252 144.72 124.548C144.72 124.852 144.84 125.092 145.08 125.268C145.328 125.436 145.664 125.52 146.088 125.52ZM150.987 118.584C150.827 118.584 150.691 118.528 150.579 118.416C150.475 118.304 150.423 118.168 150.423 118.008C150.423 117.848 150.475 117.716 150.579 117.612C150.691 117.508 150.827 117.456 150.987 117.456C151.155 117.456 151.291 117.508 151.395 117.612C151.507 117.716 151.563 117.848 151.563 118.008C151.563 118.168 151.507 118.304 151.395 118.416C151.291 118.528 151.155 118.584 150.987 118.584ZM150.831 126C150.671 126 150.591 125.92 150.591 125.76V120.324C150.591 120.164 150.671 120.084 150.831 120.084H151.143C151.303 120.084 151.383 120.164 151.383 120.324V125.76C151.383 125.92 151.303 126 151.143 126H150.831ZM153.398 126C153.238 126 153.158 125.92 153.158 125.76V117.72C153.158 117.56 153.238 117.48 153.398 117.48H153.71C153.87 117.48 153.95 117.56 153.95 117.72V125.76C153.95 125.92 153.87 126 153.71 126H153.398ZM160.781 119.94C161.509 119.94 162.077 120.116 162.485 120.468C162.893 120.812 163.097 121.268 163.097 121.836V125.76C163.097 125.92 163.017 126 162.857 126H162.617C162.457 126 162.377 125.92 162.377 125.76V125.22C162.177 125.54 161.893 125.78 161.525 125.94C161.165 126.1 160.761 126.18 160.313 126.18C159.689 126.18 159.181 126.048 158.789 125.784C158.397 125.52 158.201 125.112 158.201 124.56C158.201 124.12 158.325 123.768 158.573 123.504C158.821 123.232 159.145 123.028 159.545 122.892C159.945 122.748 160.445 122.62 161.045 122.508L162.341 122.28V121.896C162.341 121.488 162.201 121.172 161.921 120.948C161.641 120.716 161.273 120.6 160.817 120.6C160.473 120.6 160.161 120.664 159.881 120.792C159.601 120.92 159.301 121.14 158.981 121.452C158.925 121.508 158.865 121.536 158.801 121.536C158.745 121.536 158.693 121.512 158.645 121.464L158.489 121.32C158.433 121.264 158.405 121.204 158.405 121.14C158.405 121.068 158.433 121.004 158.489 120.948C158.825 120.596 159.177 120.34 159.545 120.18C159.921 120.02 160.333 119.94 160.781 119.94ZM160.349 125.52C160.925 125.52 161.401 125.368 161.777 125.064C162.153 124.76 162.341 124.372 162.341 123.9V122.892L161.225 123.108C160.705 123.212 160.293 123.312 159.989 123.408C159.685 123.504 159.441 123.644 159.257 123.828C159.073 124.012 158.981 124.252 158.981 124.548C158.981 124.852 159.101 125.092 159.341 125.268C159.589 125.436 159.925 125.52 160.349 125.52ZM169.125 117.72C169.125 117.56 169.205 117.48 169.365 117.48H169.677C169.837 117.48 169.917 117.56 169.917 117.72V125.76C169.917 125.92 169.837 126 169.677 126H169.425C169.265 126 169.185 125.92 169.185 125.76V124.98C168.969 125.356 168.685 125.644 168.333 125.844C167.981 126.044 167.565 126.144 167.085 126.144C166.581 126.144 166.133 126.016 165.741 125.76C165.349 125.496 165.041 125.132 164.817 124.668C164.593 124.196 164.481 123.656 164.481 123.048C164.481 122.44 164.593 121.904 164.817 121.44C165.049 120.968 165.365 120.604 165.765 120.348C166.165 120.084 166.613 119.952 167.109 119.952C168.021 119.952 168.693 120.292 169.125 120.972V117.72ZM167.145 125.472C167.745 125.472 168.229 125.26 168.597 124.836C168.973 124.404 169.161 123.808 169.161 123.048C169.161 122.296 168.973 121.704 168.597 121.272C168.229 120.84 167.745 120.624 167.145 120.624C166.593 120.624 166.145 120.848 165.801 121.296C165.465 121.744 165.297 122.328 165.297 123.048C165.297 123.776 165.465 124.364 165.801 124.812C166.137 125.252 166.585 125.472 167.145 125.472ZM175.969 117.72C175.969 117.56 176.049 117.48 176.209 117.48H176.521C176.681 117.48 176.761 117.56 176.761 117.72V125.76C176.761 125.92 176.681 126 176.521 126H176.269C176.109 126 176.029 125.92 176.029 125.76V124.98C175.813 125.356 175.529 125.644 175.177 125.844C174.825 126.044 174.409 126.144 173.929 126.144C173.425 126.144 172.977 126.016 172.585 125.76C172.193 125.496 171.885 125.132 171.661 124.668C171.437 124.196 171.325 123.656 171.325 123.048C171.325 122.44 171.437 121.904 171.661 121.44C171.893 120.968 172.209 120.604 172.609 120.348C173.009 120.084 173.457 119.952 173.953 119.952C174.865 119.952 175.537 120.292 175.969 120.972V117.72ZM173.989 125.472C174.589 125.472 175.073 125.26 175.441 124.836C175.817 124.404 176.005 123.808 176.005 123.048C176.005 122.296 175.817 121.704 175.441 121.272C175.073 120.84 174.589 120.624 173.989 120.624C173.437 120.624 172.989 120.848 172.645 121.296C172.309 121.744 172.141 122.328 172.141 123.048C172.141 123.776 172.309 124.364 172.645 124.812C172.981 125.252 173.429 125.472 173.989 125.472ZM180.748 120.036C180.948 120.036 181.184 120.068 181.456 120.132C181.6 120.18 181.656 120.28 181.624 120.432L181.576 120.624C181.536 120.776 181.436 120.832 181.276 120.792C181.084 120.744 180.908 120.72 180.748 120.72C180.34 120.72 180 120.896 179.728 121.248C179.464 121.6 179.332 122.088 179.332 122.712V125.76C179.332 125.92 179.252 126 179.092 126H178.78C178.62 126 178.54 125.92 178.54 125.76V120.324C178.54 120.164 178.62 120.084 178.78 120.084H179.044C179.204 120.084 179.284 120.164 179.284 120.324V120.984C179.42 120.688 179.612 120.456 179.86 120.288C180.116 120.12 180.412 120.036 180.748 120.036ZM186.68 124.596C186.736 124.54 186.796 124.512 186.86 124.512C186.916 124.512 186.968 124.536 187.016 124.584L187.172 124.728C187.228 124.784 187.256 124.844 187.256 124.908C187.256 124.956 187.232 125.012 187.184 125.076C186.792 125.468 186.412 125.748 186.044 125.916C185.676 126.076 185.264 126.156 184.808 126.156C184.232 126.156 183.732 126.028 183.308 125.772C182.884 125.516 182.556 125.16 182.324 124.704C182.092 124.24 181.976 123.704 181.976 123.096C181.976 122.48 182.088 121.936 182.312 121.464C182.544 120.984 182.868 120.612 183.284 120.348C183.7 120.076 184.18 119.94 184.724 119.94C185.532 119.94 186.168 120.192 186.632 120.696C187.096 121.2 187.328 121.88 187.328 122.736V122.88C187.32 122.952 187.292 123.008 187.244 123.048C187.204 123.088 187.148 123.108 187.076 123.108H182.78C182.804 123.78 182.98 124.348 183.308 124.812C183.644 125.268 184.144 125.496 184.808 125.496C185.168 125.496 185.484 125.432 185.756 125.304C186.036 125.168 186.344 124.932 186.68 124.596ZM184.724 120.6C184.196 120.6 183.76 120.764 183.416 121.092C183.08 121.412 182.876 121.884 182.804 122.508H186.536C186.52 121.924 186.352 121.46 186.032 121.116C185.712 120.772 185.276 120.6 184.724 120.6ZM190.858 126.156C190.37 126.156 189.938 126.088 189.562 125.952C189.194 125.808 188.806 125.568 188.398 125.232C188.326 125.184 188.29 125.128 188.29 125.064C188.29 125.008 188.318 124.952 188.374 124.896L188.53 124.728C188.578 124.664 188.638 124.632 188.71 124.632C188.766 124.632 188.818 124.656 188.866 124.704C189.25 125 189.59 125.208 189.886 125.328C190.182 125.44 190.506 125.496 190.858 125.496C191.298 125.496 191.658 125.4 191.938 125.208C192.218 125.008 192.358 124.74 192.358 124.404C192.358 124.068 192.214 123.82 191.926 123.66C191.638 123.5 191.194 123.356 190.594 123.228C190.066 123.116 189.65 123 189.346 122.88C189.05 122.752 188.83 122.592 188.686 122.4C188.542 122.208 188.47 121.956 188.47 121.644C188.47 121.132 188.678 120.72 189.094 120.408C189.51 120.096 190.034 119.94 190.666 119.94C191.098 119.94 191.482 119.996 191.818 120.108C192.162 120.212 192.506 120.388 192.85 120.636C192.922 120.692 192.958 120.752 192.958 120.816C192.958 120.856 192.938 120.908 192.898 120.972L192.754 121.152C192.714 121.216 192.658 121.248 192.586 121.248C192.522 121.248 192.466 121.228 192.418 121.188C192.09 120.956 191.798 120.8 191.542 120.72C191.294 120.64 191.01 120.6 190.69 120.6C190.25 120.6 189.898 120.696 189.634 120.888C189.37 121.08 189.238 121.324 189.238 121.62C189.238 121.804 189.298 121.952 189.418 122.064C189.538 122.176 189.71 122.272 189.934 122.352C190.158 122.424 190.486 122.508 190.918 122.604C191.718 122.78 192.286 122.996 192.622 123.252C192.966 123.508 193.138 123.88 193.138 124.368C193.138 124.904 192.926 125.336 192.502 125.664C192.078 125.992 191.53 126.156 190.858 126.156ZM196.542 126.156C196.054 126.156 195.622 126.088 195.246 125.952C194.878 125.808 194.49 125.568 194.082 125.232C194.01 125.184 193.974 125.128 193.974 125.064C193.974 125.008 194.002 124.952 194.058 124.896L194.214 124.728C194.262 124.664 194.322 124.632 194.394 124.632C194.45 124.632 194.502 124.656 194.55 124.704C194.934 125 195.274 125.208 195.57 125.328C195.866 125.44 196.19 125.496 196.542 125.496C196.982 125.496 197.342 125.4 197.622 125.208C197.902 125.008 198.042 124.74 198.042 124.404C198.042 124.068 197.898 123.82 197.61 123.66C197.322 123.5 196.878 123.356 196.278 123.228C195.75 123.116 195.334 123 195.03 122.88C194.734 122.752 194.514 122.592 194.37 122.4C194.226 122.208 194.154 121.956 194.154 121.644C194.154 121.132 194.362 120.72 194.778 120.408C195.194 120.096 195.718 119.94 196.35 119.94C196.782 119.94 197.166 119.996 197.502 120.108C197.846 120.212 198.19 120.388 198.534 120.636C198.606 120.692 198.642 120.752 198.642 120.816C198.642 120.856 198.622 120.908 198.582 120.972L198.438 121.152C198.398 121.216 198.342 121.248 198.27 121.248C198.206 121.248 198.15 121.228 198.102 121.188C197.774 120.956 197.482 120.8 197.226 120.72C196.978 120.64 196.694 120.6 196.374 120.6C195.934 120.6 195.582 120.696 195.318 120.888C195.054 121.08 194.922 121.324 194.922 121.62C194.922 121.804 194.982 121.952 195.102 122.064C195.222 122.176 195.394 122.272 195.618 122.352C195.842 122.424 196.17 122.508 196.602 122.604C197.402 122.78 197.97 122.996 198.306 123.252C198.65 123.508 198.822 123.88 198.822 124.368C198.822 124.904 198.61 125.336 198.186 125.664C197.762 125.992 197.214 126.156 196.542 126.156Z" fill="#474445"/>
</svg>
