<svg width="344" height="150" viewBox="0 0 344 150" fill="none" xmlns="http://www.w3.org/2000/svg">
<path d="M77.686 44.55C77.686 44.3913 77.728 44.27 77.812 44.186C77.9053 44.102 78.0267 44.06 78.176 44.06H78.75C78.9087 44.06 79.03 44.102 79.114 44.186C79.198 44.27 79.24 44.3913 79.24 44.55V53.51C79.24 53.6593 79.198 53.7807 79.114 53.874C79.03 53.958 78.9087 54 78.75 54H77.882C77.6207 54 77.4247 53.8927 77.294 53.678L74.746 49.702C73.7753 48.19 73.0473 46.9953 72.562 46.118C72.6087 47.1167 72.632 48.4093 72.632 49.996V53.51C72.632 53.6593 72.59 53.7807 72.506 53.874C72.422 53.958 72.3007 54 72.142 54H71.568C71.4187 54 71.2973 53.958 71.204 53.874C71.12 53.7807 71.078 53.6593 71.078 53.51V44.55C71.078 44.3913 71.12 44.27 71.204 44.186C71.2973 44.102 71.4187 44.06 71.568 44.06H72.464C72.7253 44.06 72.9213 44.1673 73.052 44.382L75.684 48.512C76.6173 49.968 77.3033 51.088 77.742 51.872C77.7047 50.8733 77.686 49.6413 77.686 48.176V44.55ZM84.0883 46.888C85.0216 46.888 85.7403 47.1073 86.2443 47.546C86.7483 47.9753 87.0003 48.5493 87.0003 49.268V53.51C87.0003 53.6593 86.9583 53.7807 86.8743 53.874C86.7903 53.958 86.6689 54 86.5103 54H86.1463C85.9969 54 85.8756 53.958 85.7823 53.874C85.6983 53.7807 85.6563 53.6593 85.6563 53.51V53.202C85.4323 53.5287 85.1243 53.7807 84.7323 53.958C84.3403 54.1353 83.8829 54.224 83.3603 54.224C82.6416 54.224 82.0489 54.0653 81.5823 53.748C81.1249 53.4213 80.8963 52.9313 80.8963 52.278C80.8963 51.55 81.1669 51.0133 81.7083 50.668C82.2589 50.3133 83.0196 50.0473 83.9903 49.87L85.5723 49.576V49.324C85.5723 48.9413 85.4369 48.6473 85.1663 48.442C84.9049 48.2273 84.5549 48.12 84.1163 48.12C83.7429 48.12 83.4163 48.1853 83.1363 48.316C82.8656 48.4373 82.5716 48.6427 82.2543 48.932C82.1329 49.0347 82.0163 49.086 81.9043 49.086C81.7923 49.086 81.6756 49.0347 81.5543 48.932L81.3303 48.736C81.2089 48.624 81.1483 48.5027 81.1483 48.372C81.1483 48.2507 81.2043 48.134 81.3163 48.022C81.7176 47.6393 82.1423 47.3547 82.5903 47.168C83.0383 46.9813 83.5376 46.888 84.0883 46.888ZM83.5703 53.034C84.1303 53.034 84.6016 52.8847 84.9843 52.586C85.3763 52.2873 85.5723 51.858 85.5723 51.298V50.654L84.3543 50.906C83.6729 51.046 83.1689 51.2047 82.8423 51.382C82.5156 51.5593 82.3523 51.83 82.3523 52.194C82.3523 52.4553 82.4596 52.6607 82.6743 52.81C82.8889 52.9593 83.1876 53.034 83.5703 53.034ZM96.1018 46.888C96.8391 46.888 97.4085 47.098 97.8098 47.518C98.2111 47.9287 98.4118 48.484 98.4118 49.184V53.51C98.4118 53.6593 98.3698 53.7807 98.2858 53.874C98.2018 53.958 98.0805 54 97.9218 54H97.4178C97.2685 54 97.1471 53.958 97.0538 53.874C96.9698 53.7807 96.9278 53.6593 96.9278 53.51V49.632C96.9278 49.1747 96.8251 48.8153 96.6198 48.554C96.4145 48.2927 96.1018 48.162 95.6818 48.162C95.2525 48.162 94.9118 48.3067 94.6598 48.596C94.4171 48.8853 94.2958 49.2587 94.2958 49.716V53.51C94.2958 53.6593 94.2538 53.7807 94.1698 53.874C94.0858 53.958 93.9645 54 93.8058 54H93.3018C93.1525 54 93.0311 53.958 92.9378 53.874C92.8538 53.7807 92.8118 53.6593 92.8118 53.51V49.632C92.8118 49.1747 92.7091 48.8153 92.5038 48.554C92.3078 48.2927 91.9998 48.162 91.5798 48.162C91.1691 48.162 90.8378 48.2973 90.5858 48.568C90.3338 48.8387 90.1985 49.1887 90.1798 49.618V53.51C90.1798 53.6593 90.1378 53.7807 90.0538 53.874C89.9698 53.958 89.8485 54 89.6898 54H89.1858C89.0365 54 88.9151 53.958 88.8218 53.874C88.7378 53.7807 88.6958 53.6593 88.6958 53.51V47.588C88.6958 47.4293 88.7378 47.308 88.8218 47.224C88.9151 47.14 89.0365 47.098 89.1858 47.098H89.5918C89.7505 47.098 89.8718 47.14 89.9558 47.224C90.0398 47.308 90.0818 47.4293 90.0818 47.588V47.896C90.5111 47.224 91.1738 46.888 92.0698 46.888C92.5178 46.888 92.9098 46.9813 93.2458 47.168C93.5818 47.3547 93.8385 47.616 94.0158 47.952C94.4918 47.2427 95.1871 46.888 96.1018 46.888ZM105.054 52.236C105.175 52.1333 105.292 52.082 105.404 52.082C105.516 52.082 105.632 52.1427 105.754 52.264L105.95 52.474C106.052 52.5953 106.104 52.712 106.104 52.824C106.104 52.9453 106.043 53.062 105.922 53.174C105.492 53.5473 105.063 53.8133 104.634 53.972C104.214 54.1307 103.747 54.21 103.234 54.21C102.515 54.21 101.89 54.0607 101.358 53.762C100.835 53.4633 100.429 53.0433 100.14 52.502C99.8598 51.9513 99.7198 51.3167 99.7198 50.598C99.7198 49.8887 99.8551 49.254 100.126 48.694C100.406 48.1247 100.798 47.6813 101.302 47.364C101.815 47.0467 102.412 46.888 103.094 46.888C104.111 46.888 104.895 47.1913 105.446 47.798C105.996 48.3953 106.272 49.2213 106.272 50.276V50.402C106.262 50.5513 106.216 50.668 106.132 50.752C106.048 50.836 105.926 50.878 105.768 50.878H101.176C101.232 51.494 101.432 51.998 101.778 52.39C102.132 52.7727 102.627 52.964 103.262 52.964C103.607 52.964 103.91 52.9127 104.172 52.81C104.433 52.698 104.727 52.5067 105.054 52.236ZM103.066 48.064C102.552 48.064 102.137 48.218 101.82 48.526C101.512 48.8247 101.311 49.2493 101.218 49.8H104.816C104.778 49.2587 104.61 48.834 104.312 48.526C104.013 48.218 103.598 48.064 103.066 48.064Z" fill="#474445"/>
<path d="M70 66C70 63.7909 71.7909 62 74 62H269C271.209 62 273 63.7909 273 66V106C273 108.209 271.209 110 269 110H74C71.7909 110 70 108.209 70 106V66Z" fill="white"/>
<path d="M79.696 91C79.4827 91 79.376 90.8933 79.376 90.68V79.96C79.376 79.7467 79.4827 79.64 79.696 79.64H84C85.0987 79.64 85.984 79.928 86.656 80.504C87.328 81.08 87.664 81.896 87.664 82.952C87.664 84.008 87.328 84.8293 86.656 85.416C85.984 85.992 85.0987 86.28 84 86.28H80.512V90.68C80.512 90.8933 80.4053 91 80.192 91H79.696ZM83.856 85.336C84.688 85.336 85.344 85.1333 85.824 84.728C86.304 84.3227 86.544 83.7307 86.544 82.952C86.544 82.184 86.304 81.5973 85.824 81.192C85.344 80.7867 84.688 80.584 83.856 80.584H80.512V85.336H83.856ZM94.4915 83.432C94.4915 83.2187 94.5982 83.112 94.8115 83.112H95.2275C95.4408 83.112 95.5475 83.2187 95.5475 83.432V90.68C95.5475 90.8933 95.4408 91 95.2275 91H94.8915C94.6782 91 94.5715 90.8933 94.5715 90.68V89.96C94.3368 90.376 94.0008 90.6907 93.5635 90.904C93.1368 91.1067 92.6675 91.208 92.1555 91.208C91.1955 91.208 90.4862 90.968 90.0275 90.488C89.5688 89.9973 89.3395 89.368 89.3395 88.6V83.432C89.3395 83.2187 89.4462 83.112 89.6595 83.112H90.0755C90.2888 83.112 90.3955 83.2187 90.3955 83.432V88.376C90.3955 89.0053 90.5502 89.4853 90.8595 89.816C91.1795 90.136 91.6328 90.296 92.2195 90.296C92.8808 90.296 93.4248 90.0933 93.8515 89.688C94.2782 89.2827 94.4915 88.7067 94.4915 87.96V83.432ZM100.67 91.208C100.02 91.208 99.4437 91.1173 98.9424 90.936C98.4517 90.744 97.9344 90.424 97.3904 89.976C97.2944 89.912 97.2464 89.8373 97.2464 89.752C97.2464 89.6773 97.2837 89.6027 97.3584 89.528L97.5664 89.304C97.6304 89.2187 97.7104 89.176 97.8064 89.176C97.881 89.176 97.9504 89.208 98.0144 89.272C98.5264 89.6667 98.9797 89.944 99.3744 90.104C99.769 90.2533 100.201 90.328 100.67 90.328C101.257 90.328 101.737 90.2 102.11 89.944C102.484 89.6773 102.67 89.32 102.67 88.872C102.67 88.424 102.478 88.0933 102.094 87.88C101.71 87.6667 101.118 87.4747 100.318 87.304C99.6144 87.1547 99.0597 87 98.6544 86.84C98.2597 86.6693 97.9664 86.456 97.7744 86.2C97.5824 85.944 97.4864 85.608 97.4864 85.192C97.4864 84.5093 97.7637 83.96 98.3184 83.544C98.873 83.128 99.5717 82.92 100.414 82.92C100.99 82.92 101.502 82.9947 101.95 83.144C102.409 83.2827 102.868 83.5173 103.326 83.848C103.422 83.9227 103.47 84.0027 103.47 84.088C103.47 84.1413 103.444 84.2107 103.39 84.296L103.198 84.536C103.145 84.6213 103.07 84.664 102.974 84.664C102.889 84.664 102.814 84.6373 102.75 84.584C102.313 84.2747 101.924 84.0667 101.582 83.96C101.252 83.8533 100.873 83.8 100.446 83.8C99.8597 83.8 99.3904 83.928 99.0384 84.184C98.6864 84.44 98.5104 84.7653 98.5104 85.16C98.5104 85.4053 98.5904 85.6027 98.7504 85.752C98.9104 85.9013 99.1397 86.0293 99.4384 86.136C99.737 86.232 100.174 86.344 100.75 86.472C101.817 86.7067 102.574 86.9947 103.022 87.336C103.481 87.6773 103.71 88.1733 103.71 88.824C103.71 89.5387 103.428 90.1147 102.862 90.552C102.297 90.9893 101.566 91.208 100.67 91.208ZM111.241 89.128C111.315 89.0533 111.395 89.016 111.481 89.016C111.555 89.016 111.625 89.048 111.689 89.112L111.897 89.304C111.971 89.3787 112.009 89.4587 112.009 89.544C112.009 89.608 111.977 89.6827 111.913 89.768C111.39 90.2907 110.883 90.664 110.393 90.888C109.902 91.1013 109.353 91.208 108.745 91.208C107.977 91.208 107.31 91.0373 106.745 90.696C106.179 90.3547 105.742 89.88 105.433 89.272C105.123 88.6533 104.969 87.9387 104.969 87.128C104.969 86.3067 105.118 85.5813 105.417 84.952C105.726 84.312 106.158 83.816 106.713 83.464C107.267 83.1013 107.907 82.92 108.633 82.92C109.71 82.92 110.558 83.256 111.177 83.928C111.795 84.6 112.105 85.5067 112.105 86.648V86.84C112.094 86.936 112.057 87.0107 111.993 87.064C111.939 87.1173 111.865 87.144 111.769 87.144H106.041C106.073 88.04 106.307 88.7973 106.745 89.416C107.193 90.024 107.859 90.328 108.745 90.328C109.225 90.328 109.646 90.2427 110.009 90.072C110.382 89.8907 110.793 89.576 111.241 89.128ZM108.633 83.8C107.929 83.8 107.347 84.0187 106.889 84.456C106.441 84.8827 106.169 85.512 106.073 86.344H111.049C111.027 85.5653 110.803 84.9467 110.377 84.488C109.95 84.0293 109.369 83.8 108.633 83.8ZM116.989 80.328C116.509 80.328 116.168 80.456 115.965 80.712C115.762 80.9573 115.661 81.3733 115.661 81.96V83.112H117.421C117.634 83.112 117.741 83.2187 117.741 83.432V83.592C117.741 83.8053 117.634 83.912 117.421 83.912H115.661V90.68C115.661 90.8933 115.554 91 115.341 91H114.925C114.712 91 114.605 90.8933 114.605 90.68V83.912H113.421C113.208 83.912 113.101 83.8053 113.101 83.592V83.432C113.101 83.2187 113.208 83.112 113.421 83.112H114.605V81.784C114.605 81.048 114.797 80.472 115.181 80.056C115.576 79.64 116.136 79.432 116.861 79.432C117.266 79.432 117.682 79.4907 118.109 79.608C118.312 79.672 118.386 79.8053 118.333 80.008L118.269 80.232C118.216 80.3813 118.109 80.456 117.949 80.456C117.917 80.456 117.848 80.4453 117.741 80.424C117.506 80.36 117.256 80.328 116.989 80.328ZM119.821 81.112C119.608 81.112 119.427 81.0373 119.277 80.888C119.139 80.7387 119.069 80.5573 119.069 80.344C119.069 80.1307 119.139 79.9547 119.277 79.816C119.427 79.6773 119.608 79.608 119.821 79.608C120.045 79.608 120.227 79.6773 120.365 79.816C120.515 79.9547 120.589 80.1307 120.589 80.344C120.589 80.5573 120.515 80.7387 120.365 80.888C120.227 81.0373 120.045 81.112 119.821 81.112ZM119.613 91C119.4 91 119.293 90.8933 119.293 90.68V83.432C119.293 83.2187 119.4 83.112 119.613 83.112H120.029C120.243 83.112 120.349 83.2187 120.349 83.432V90.68C120.349 90.8933 120.243 91 120.029 91H119.613ZM126.22 82.92C127.148 82.92 127.846 83.176 128.316 83.688C128.796 84.2 129.036 84.84 129.036 85.608V90.68C129.036 90.8933 128.929 91 128.716 91H128.3C128.086 91 127.98 90.8933 127.98 90.68V85.96C127.98 85.256 127.809 84.7227 127.468 84.36C127.126 83.9973 126.636 83.816 125.996 83.816C125.59 83.816 125.217 83.9173 124.876 84.12C124.534 84.312 124.262 84.5787 124.06 84.92C123.857 85.2613 123.756 85.6347 123.756 86.04V90.68C123.756 90.8933 123.649 91 123.436 91H123.02C122.806 91 122.7 90.8933 122.7 90.68V83.432C122.7 83.2187 122.806 83.112 123.02 83.112H123.372C123.585 83.112 123.692 83.2187 123.692 83.432V84.2C123.958 83.7733 124.31 83.4533 124.748 83.24C125.185 83.0267 125.676 82.92 126.22 82.92ZM134.891 82.92C135.82 82.92 136.518 83.176 136.988 83.688C137.468 84.2 137.708 84.84 137.708 85.608V90.68C137.708 90.8933 137.601 91 137.388 91H136.972C136.758 91 136.652 90.8933 136.652 90.68V85.96C136.652 85.256 136.481 84.7227 136.14 84.36C135.798 83.9973 135.308 83.816 134.668 83.816C134.262 83.816 133.889 83.9173 133.548 84.12C133.206 84.312 132.934 84.5787 132.732 84.92C132.529 85.2613 132.428 85.6347 132.428 86.04V90.68C132.428 90.8933 132.321 91 132.108 91H131.692C131.478 91 131.372 90.8933 131.372 90.68V83.432C131.372 83.2187 131.478 83.112 131.692 83.112H132.044C132.257 83.112 132.364 83.2187 132.364 83.432V84.2C132.63 83.7733 132.982 83.4533 133.42 83.24C133.857 83.0267 134.348 82.92 134.891 82.92Z" fill="#474445"/>
<path d="M74 63H269V61H74V63ZM272 66V106H274V66H272ZM269 109H74V111H269V109ZM71 106V66H69V106H71ZM74 109C72.3431 109 71 107.657 71 106H69C69 108.761 71.2386 111 74 111V109ZM272 106C272 107.657 270.657 109 269 109V111C271.761 111 274 108.761 274 106H272ZM269 63C270.657 63 272 64.3431 272 66H274C274 63.2386 271.761 61 269 61V63ZM74 61C71.2386 61 69 63.2386 69 66H71C71 64.3431 72.3431 63 74 63V61Z" fill="#C3CCD9"/>
</svg>
