<svg width="344" height="370" viewBox="0 0 344 370" fill="none" xmlns="http://www.w3.org/2000/svg">
<path d="M71.568 54C71.4187 54 71.2973 53.958 71.204 53.874C71.12 53.7807 71.078 53.6593 71.078 53.51V44.55C71.078 44.3913 71.12 44.27 71.204 44.186C71.2973 44.102 71.4187 44.06 71.568 44.06H77.378C77.5367 44.06 77.658 44.102 77.742 44.186C77.826 44.27 77.868 44.3913 77.868 44.55V44.914C77.868 45.0633 77.826 45.1847 77.742 45.278C77.658 45.362 77.5367 45.404 77.378 45.404H72.674V48.442H77C77.1587 48.442 77.28 48.484 77.364 48.568C77.448 48.652 77.49 48.7733 77.49 48.932V49.282C77.49 49.4313 77.448 49.5527 77.364 49.646C77.28 49.73 77.1587 49.772 77 49.772H72.674V53.51C72.674 53.6593 72.632 53.7807 72.548 53.874C72.464 53.958 72.3427 54 72.184 54H71.568ZM80.0045 45.754C79.7339 45.754 79.5052 45.6653 79.3185 45.488C79.1319 45.3013 79.0385 45.082 79.0385 44.83C79.0385 44.5687 79.1319 44.3493 79.3185 44.172C79.5052 43.9947 79.7339 43.906 80.0045 43.906C80.2752 43.906 80.5039 43.9947 80.6905 44.172C80.8772 44.3493 80.9705 44.5687 80.9705 44.83C80.9705 45.082 80.8772 45.3013 80.6905 45.488C80.5039 45.6653 80.2752 45.754 80.0045 45.754ZM79.7385 54C79.5892 54 79.4679 53.958 79.3745 53.874C79.2905 53.7807 79.2485 53.6593 79.2485 53.51V47.588C79.2485 47.4293 79.2905 47.308 79.3745 47.224C79.4679 47.14 79.5892 47.098 79.7385 47.098H80.2425C80.4012 47.098 80.5225 47.14 80.6065 47.224C80.6905 47.308 80.7325 47.4293 80.7325 47.588V53.51C80.7325 53.6593 80.6905 53.7807 80.6065 53.874C80.5225 53.958 80.4012 54 80.2425 54H79.7385ZM85.5558 47.028C85.7611 47.028 85.9711 47.0513 86.1858 47.098C86.4378 47.154 86.5638 47.3033 86.5638 47.546C86.5638 47.6113 86.5591 47.658 86.5498 47.686L86.4798 48.022C86.4238 48.2833 86.2838 48.414 86.0598 48.414L85.9338 48.4C85.7658 48.372 85.6164 48.358 85.4858 48.358C85.0191 48.358 84.6411 48.5447 84.3518 48.918C84.0718 49.282 83.9318 49.7907 83.9318 50.444V53.51C83.9318 53.6593 83.8898 53.7807 83.8058 53.874C83.7218 53.958 83.6004 54 83.4417 54H82.9378C82.7884 54 82.6671 53.958 82.5738 53.874C82.4898 53.7807 82.4478 53.6593 82.4478 53.51V47.588C82.4478 47.4293 82.4898 47.308 82.5738 47.224C82.6671 47.14 82.7884 47.098 82.9378 47.098H83.3438C83.5024 47.098 83.6238 47.14 83.7078 47.224C83.7918 47.308 83.8338 47.4293 83.8338 47.588V48.134C84.0018 47.7887 84.2304 47.518 84.5198 47.322C84.8091 47.126 85.1544 47.028 85.5558 47.028ZM90.1117 54.21C89.5423 54.21 89.0337 54.14 88.5857 54C88.147 53.8507 87.699 53.594 87.2417 53.23C87.1017 53.1273 87.0317 53.0107 87.0317 52.88C87.0317 52.7773 87.083 52.6653 87.1857 52.544L87.3957 52.306C87.5077 52.1753 87.629 52.11 87.7597 52.11C87.8623 52.11 87.9743 52.1567 88.0957 52.25C88.4877 52.5393 88.833 52.74 89.1317 52.852C89.4303 52.9547 89.7663 53.006 90.1397 53.006C90.541 53.006 90.8677 52.9267 91.1197 52.768C91.381 52.6 91.5117 52.376 91.5117 52.096C91.5117 51.8813 91.437 51.7133 91.2877 51.592C91.1477 51.4613 90.961 51.3633 90.7277 51.298C90.4943 51.2233 90.149 51.1393 89.6917 51.046C89.0477 50.906 88.5437 50.7567 88.1797 50.598C87.825 50.43 87.5683 50.22 87.4097 49.968C87.251 49.716 87.1717 49.394 87.1717 49.002C87.1717 48.6007 87.2837 48.2413 87.5077 47.924C87.741 47.6067 88.063 47.3547 88.4737 47.168C88.8937 46.9813 89.3837 46.888 89.9437 46.888C90.4477 46.888 90.8957 46.944 91.2877 47.056C91.689 47.168 92.081 47.3593 92.4637 47.63C92.613 47.742 92.6877 47.868 92.6877 48.008C92.6877 48.1013 92.641 48.2087 92.5477 48.33L92.3657 48.554C92.263 48.6847 92.137 48.75 91.9877 48.75C91.8757 48.75 91.7683 48.7127 91.6657 48.638C91.3577 48.4327 91.073 48.2927 90.8117 48.218C90.5503 48.134 90.2563 48.092 89.9297 48.092C89.5283 48.092 89.2063 48.1713 88.9637 48.33C88.721 48.4887 88.5997 48.694 88.5997 48.946C88.5997 49.114 88.6557 49.2493 88.7677 49.352C88.889 49.4453 89.057 49.5293 89.2717 49.604C89.4957 49.6693 89.8457 49.7533 90.3217 49.856C90.9657 49.996 91.4743 50.1547 91.8477 50.332C92.2303 50.5 92.5103 50.7193 92.6877 50.99C92.8743 51.2513 92.9677 51.592 92.9677 52.012C92.9677 52.6653 92.7063 53.1973 92.1837 53.608C91.6703 54.0093 90.9797 54.21 90.1117 54.21ZM97.5512 52.824C97.5792 52.8147 97.6212 52.81 97.6772 52.81C97.9106 52.81 98.0506 52.9453 98.0972 53.216L98.1392 53.44C98.1486 53.468 98.1532 53.5147 98.1532 53.58C98.1532 53.8133 98.0226 53.9627 97.7612 54.028C97.3879 54.112 97.0472 54.154 96.7392 54.154C96.0766 54.154 95.5959 54 95.2972 53.692C95.0079 53.384 94.8632 52.922 94.8632 52.306V48.232H94.0932C93.9439 48.232 93.8226 48.19 93.7292 48.106C93.6452 48.0127 93.6032 47.8913 93.6032 47.742V47.588C93.6032 47.4293 93.6452 47.308 93.7292 47.224C93.8226 47.14 93.9439 47.098 94.0932 47.098H94.8632V45.362C94.8632 45.2033 94.9052 45.082 94.9892 44.998C95.0826 44.914 95.2039 44.872 95.3532 44.872H95.8572C96.0159 44.872 96.1372 44.914 96.2212 44.998C96.3052 45.082 96.3472 45.2033 96.3472 45.362V47.098H97.6072C97.7659 47.098 97.8872 47.14 97.9712 47.224C98.0552 47.308 98.0972 47.4293 98.0972 47.588V47.742C98.0972 47.8913 98.0552 48.0127 97.9712 48.106C97.8872 48.19 97.7659 48.232 97.6072 48.232H96.3472V52.124C96.3472 52.3947 96.4032 52.586 96.5152 52.698C96.6366 52.81 96.8279 52.866 97.0892 52.866C97.2012 52.866 97.3552 52.852 97.5512 52.824ZM105.964 46.888C106.757 46.888 107.364 47.112 107.784 47.56C108.213 47.9987 108.428 48.568 108.428 49.268V53.51C108.428 53.6593 108.386 53.7807 108.302 53.874C108.218 53.958 108.096 54 107.938 54H107.434C107.284 54 107.163 53.958 107.07 53.874C106.986 53.7807 106.944 53.6593 106.944 53.51V49.73C106.944 49.226 106.818 48.8387 106.566 48.568C106.323 48.2973 105.973 48.162 105.516 48.162C105.068 48.162 104.69 48.316 104.382 48.624C104.083 48.932 103.934 49.3193 103.934 49.786V53.51C103.934 53.6593 103.892 53.7807 103.808 53.874C103.724 53.958 103.602 54 103.444 54H102.94C102.79 54 102.669 53.958 102.576 53.874C102.492 53.7807 102.45 53.6593 102.45 53.51V47.588C102.45 47.4293 102.492 47.308 102.576 47.224C102.669 47.14 102.79 47.098 102.94 47.098H103.346C103.504 47.098 103.626 47.14 103.71 47.224C103.794 47.308 103.836 47.4293 103.836 47.588V47.952C104.06 47.6067 104.354 47.3453 104.718 47.168C105.082 46.9813 105.497 46.888 105.964 46.888ZM113.045 46.888C113.979 46.888 114.697 47.1073 115.201 47.546C115.705 47.9753 115.957 48.5493 115.957 49.268V53.51C115.957 53.6593 115.915 53.7807 115.831 53.874C115.747 53.958 115.626 54 115.467 54H115.103C114.954 54 114.833 53.958 114.739 53.874C114.655 53.7807 114.613 53.6593 114.613 53.51V53.202C114.389 53.5287 114.081 53.7807 113.689 53.958C113.297 54.1353 112.84 54.224 112.317 54.224C111.599 54.224 111.006 54.0653 110.539 53.748C110.082 53.4213 109.853 52.9313 109.853 52.278C109.853 51.55 110.124 51.0133 110.665 50.668C111.216 50.3133 111.977 50.0473 112.947 49.87L114.529 49.576V49.324C114.529 48.9413 114.394 48.6473 114.123 48.442C113.862 48.2273 113.512 48.12 113.073 48.12C112.7 48.12 112.373 48.1853 112.093 48.316C111.823 48.4373 111.529 48.6427 111.211 48.932C111.09 49.0347 110.973 49.086 110.861 49.086C110.749 49.086 110.633 49.0347 110.511 48.932L110.287 48.736C110.166 48.624 110.105 48.5027 110.105 48.372C110.105 48.2507 110.161 48.134 110.273 48.022C110.675 47.6393 111.099 47.3547 111.547 47.168C111.995 46.9813 112.495 46.888 113.045 46.888ZM112.527 53.034C113.087 53.034 113.559 52.8847 113.941 52.586C114.333 52.2873 114.529 51.858 114.529 51.298V50.654L113.311 50.906C112.63 51.046 112.126 51.2047 111.799 51.382C111.473 51.5593 111.309 51.83 111.309 52.194C111.309 52.4553 111.417 52.6607 111.631 52.81C111.846 52.9593 112.145 53.034 112.527 53.034ZM125.059 46.888C125.796 46.888 126.365 47.098 126.767 47.518C127.168 47.9287 127.369 48.484 127.369 49.184V53.51C127.369 53.6593 127.327 53.7807 127.243 53.874C127.159 53.958 127.037 54 126.879 54H126.375C126.225 54 126.104 53.958 126.011 53.874C125.927 53.7807 125.885 53.6593 125.885 53.51V49.632C125.885 49.1747 125.782 48.8153 125.577 48.554C125.371 48.2927 125.059 48.162 124.639 48.162C124.209 48.162 123.869 48.3067 123.617 48.596C123.374 48.8853 123.253 49.2587 123.253 49.716V53.51C123.253 53.6593 123.211 53.7807 123.127 53.874C123.043 53.958 122.921 54 122.763 54H122.259C122.109 54 121.988 53.958 121.895 53.874C121.811 53.7807 121.769 53.6593 121.769 53.51V49.632C121.769 49.1747 121.666 48.8153 121.461 48.554C121.265 48.2927 120.957 48.162 120.537 48.162C120.126 48.162 119.795 48.2973 119.543 48.568C119.291 48.8387 119.155 49.1887 119.137 49.618V53.51C119.137 53.6593 119.095 53.7807 119.011 53.874C118.927 53.958 118.805 54 118.647 54H118.143C117.993 54 117.872 53.958 117.779 53.874C117.695 53.7807 117.653 53.6593 117.653 53.51V47.588C117.653 47.4293 117.695 47.308 117.779 47.224C117.872 47.14 117.993 47.098 118.143 47.098H118.549C118.707 47.098 118.829 47.14 118.913 47.224C118.997 47.308 119.039 47.4293 119.039 47.588V47.896C119.468 47.224 120.131 46.888 121.027 46.888C121.475 46.888 121.867 46.9813 122.203 47.168C122.539 47.3547 122.795 47.616 122.973 47.952C123.449 47.2427 124.144 46.888 125.059 46.888ZM134.011 52.236C134.132 52.1333 134.249 52.082 134.361 52.082C134.473 52.082 134.59 52.1427 134.711 52.264L134.907 52.474C135.01 52.5953 135.061 52.712 135.061 52.824C135.061 52.9453 135 53.062 134.879 53.174C134.45 53.5473 134.02 53.8133 133.591 53.972C133.171 54.1307 132.704 54.21 132.191 54.21C131.472 54.21 130.847 54.0607 130.315 53.762C129.792 53.4633 129.386 53.0433 129.097 52.502C128.817 51.9513 128.677 51.3167 128.677 50.598C128.677 49.8887 128.812 49.254 129.083 48.694C129.363 48.1247 129.755 47.6813 130.259 47.364C130.772 47.0467 131.37 46.888 132.051 46.888C133.068 46.888 133.852 47.1913 134.403 47.798C134.954 48.3953 135.229 49.2213 135.229 50.276V50.402C135.22 50.5513 135.173 50.668 135.089 50.752C135.005 50.836 134.884 50.878 134.725 50.878H130.133C130.189 51.494 130.39 51.998 130.735 52.39C131.09 52.7727 131.584 52.964 132.219 52.964C132.564 52.964 132.868 52.9127 133.129 52.81C133.39 52.698 133.684 52.5067 134.011 52.236ZM132.023 48.064C131.51 48.064 131.094 48.218 130.777 48.526C130.469 48.8247 130.268 49.2493 130.175 49.8H133.773C133.736 49.2587 133.568 48.834 133.269 48.526C132.97 48.218 132.555 48.064 132.023 48.064Z" fill="#474445"/>
<path d="M70 66C70 63.7909 71.7909 62 74 62H269C271.209 62 273 63.7909 273 66V106C273 108.209 271.209 110 269 110H74C71.7909 110 70 108.209 70 106V66Z" fill="white"/>
<path d="M79.696 91C79.4827 91 79.376 90.8933 79.376 90.68V79.96C79.376 79.7467 79.4827 79.64 79.696 79.64H84C85.0987 79.64 85.984 79.928 86.656 80.504C87.328 81.08 87.664 81.896 87.664 82.952C87.664 84.008 87.328 84.8293 86.656 85.416C85.984 85.992 85.0987 86.28 84 86.28H80.512V90.68C80.512 90.8933 80.4053 91 80.192 91H79.696ZM83.856 85.336C84.688 85.336 85.344 85.1333 85.824 84.728C86.304 84.3227 86.544 83.7307 86.544 82.952C86.544 82.184 86.304 81.5973 85.824 81.192C85.344 80.7867 84.688 80.584 83.856 80.584H80.512V85.336H83.856ZM94.4915 83.432C94.4915 83.2187 94.5982 83.112 94.8115 83.112H95.2275C95.4408 83.112 95.5475 83.2187 95.5475 83.432V90.68C95.5475 90.8933 95.4408 91 95.2275 91H94.8915C94.6782 91 94.5715 90.8933 94.5715 90.68V89.96C94.3368 90.376 94.0008 90.6907 93.5635 90.904C93.1368 91.1067 92.6675 91.208 92.1555 91.208C91.1955 91.208 90.4862 90.968 90.0275 90.488C89.5688 89.9973 89.3395 89.368 89.3395 88.6V83.432C89.3395 83.2187 89.4462 83.112 89.6595 83.112H90.0755C90.2888 83.112 90.3955 83.2187 90.3955 83.432V88.376C90.3955 89.0053 90.5502 89.4853 90.8595 89.816C91.1795 90.136 91.6328 90.296 92.2195 90.296C92.8808 90.296 93.4248 90.0933 93.8515 89.688C94.2782 89.2827 94.4915 88.7067 94.4915 87.96V83.432ZM100.67 91.208C100.02 91.208 99.4437 91.1173 98.9424 90.936C98.4517 90.744 97.9344 90.424 97.3904 89.976C97.2944 89.912 97.2464 89.8373 97.2464 89.752C97.2464 89.6773 97.2837 89.6027 97.3584 89.528L97.5664 89.304C97.6304 89.2187 97.7104 89.176 97.8064 89.176C97.881 89.176 97.9504 89.208 98.0144 89.272C98.5264 89.6667 98.9797 89.944 99.3744 90.104C99.769 90.2533 100.201 90.328 100.67 90.328C101.257 90.328 101.737 90.2 102.11 89.944C102.484 89.6773 102.67 89.32 102.67 88.872C102.67 88.424 102.478 88.0933 102.094 87.88C101.71 87.6667 101.118 87.4747 100.318 87.304C99.6144 87.1547 99.0597 87 98.6544 86.84C98.2597 86.6693 97.9664 86.456 97.7744 86.2C97.5824 85.944 97.4864 85.608 97.4864 85.192C97.4864 84.5093 97.7637 83.96 98.3184 83.544C98.873 83.128 99.5717 82.92 100.414 82.92C100.99 82.92 101.502 82.9947 101.95 83.144C102.409 83.2827 102.868 83.5173 103.326 83.848C103.422 83.9227 103.47 84.0027 103.47 84.088C103.47 84.1413 103.444 84.2107 103.39 84.296L103.198 84.536C103.145 84.6213 103.07 84.664 102.974 84.664C102.889 84.664 102.814 84.6373 102.75 84.584C102.313 84.2747 101.924 84.0667 101.582 83.96C101.252 83.8533 100.873 83.8 100.446 83.8C99.8597 83.8 99.3904 83.928 99.0384 84.184C98.6864 84.44 98.5104 84.7653 98.5104 85.16C98.5104 85.4053 98.5904 85.6027 98.7504 85.752C98.9104 85.9013 99.1397 86.0293 99.4384 86.136C99.737 86.232 100.174 86.344 100.75 86.472C101.817 86.7067 102.574 86.9947 103.022 87.336C103.481 87.6773 103.71 88.1733 103.71 88.824C103.71 89.5387 103.428 90.1147 102.862 90.552C102.297 90.9893 101.566 91.208 100.67 91.208ZM111.241 89.128C111.315 89.0533 111.395 89.016 111.481 89.016C111.555 89.016 111.625 89.048 111.689 89.112L111.897 89.304C111.971 89.3787 112.009 89.4587 112.009 89.544C112.009 89.608 111.977 89.6827 111.913 89.768C111.39 90.2907 110.883 90.664 110.393 90.888C109.902 91.1013 109.353 91.208 108.745 91.208C107.977 91.208 107.31 91.0373 106.745 90.696C106.179 90.3547 105.742 89.88 105.433 89.272C105.123 88.6533 104.969 87.9387 104.969 87.128C104.969 86.3067 105.118 85.5813 105.417 84.952C105.726 84.312 106.158 83.816 106.713 83.464C107.267 83.1013 107.907 82.92 108.633 82.92C109.71 82.92 110.558 83.256 111.177 83.928C111.795 84.6 112.105 85.5067 112.105 86.648V86.84C112.094 86.936 112.057 87.0107 111.993 87.064C111.939 87.1173 111.865 87.144 111.769 87.144H106.041C106.073 88.04 106.307 88.7973 106.745 89.416C107.193 90.024 107.859 90.328 108.745 90.328C109.225 90.328 109.646 90.2427 110.009 90.072C110.382 89.8907 110.793 89.576 111.241 89.128ZM108.633 83.8C107.929 83.8 107.347 84.0187 106.889 84.456C106.441 84.8827 106.169 85.512 106.073 86.344H111.049C111.027 85.5653 110.803 84.9467 110.377 84.488C109.95 84.0293 109.369 83.8 108.633 83.8ZM116.989 80.328C116.509 80.328 116.168 80.456 115.965 80.712C115.762 80.9573 115.661 81.3733 115.661 81.96V83.112H117.421C117.634 83.112 117.741 83.2187 117.741 83.432V83.592C117.741 83.8053 117.634 83.912 117.421 83.912H115.661V90.68C115.661 90.8933 115.554 91 115.341 91H114.925C114.712 91 114.605 90.8933 114.605 90.68V83.912H113.421C113.208 83.912 113.101 83.8053 113.101 83.592V83.432C113.101 83.2187 113.208 83.112 113.421 83.112H114.605V81.784C114.605 81.048 114.797 80.472 115.181 80.056C115.576 79.64 116.136 79.432 116.861 79.432C117.266 79.432 117.682 79.4907 118.109 79.608C118.312 79.672 118.386 79.8053 118.333 80.008L118.269 80.232C118.216 80.3813 118.109 80.456 117.949 80.456C117.917 80.456 117.848 80.4453 117.741 80.424C117.506 80.36 117.256 80.328 116.989 80.328ZM119.821 81.112C119.608 81.112 119.427 81.0373 119.277 80.888C119.139 80.7387 119.069 80.5573 119.069 80.344C119.069 80.1307 119.139 79.9547 119.277 79.816C119.427 79.6773 119.608 79.608 119.821 79.608C120.045 79.608 120.227 79.6773 120.365 79.816C120.515 79.9547 120.589 80.1307 120.589 80.344C120.589 80.5573 120.515 80.7387 120.365 80.888C120.227 81.0373 120.045 81.112 119.821 81.112ZM119.613 91C119.4 91 119.293 90.8933 119.293 90.68V83.432C119.293 83.2187 119.4 83.112 119.613 83.112H120.029C120.243 83.112 120.349 83.2187 120.349 83.432V90.68C120.349 90.8933 120.243 91 120.029 91H119.613ZM126.22 82.92C127.148 82.92 127.846 83.176 128.316 83.688C128.796 84.2 129.036 84.84 129.036 85.608V90.68C129.036 90.8933 128.929 91 128.716 91H128.3C128.086 91 127.98 90.8933 127.98 90.68V85.96C127.98 85.256 127.809 84.7227 127.468 84.36C127.126 83.9973 126.636 83.816 125.996 83.816C125.59 83.816 125.217 83.9173 124.876 84.12C124.534 84.312 124.262 84.5787 124.06 84.92C123.857 85.2613 123.756 85.6347 123.756 86.04V90.68C123.756 90.8933 123.649 91 123.436 91H123.02C122.806 91 122.7 90.8933 122.7 90.68V83.432C122.7 83.2187 122.806 83.112 123.02 83.112H123.372C123.585 83.112 123.692 83.2187 123.692 83.432V84.2C123.958 83.7733 124.31 83.4533 124.748 83.24C125.185 83.0267 125.676 82.92 126.22 82.92ZM134.891 82.92C135.82 82.92 136.518 83.176 136.988 83.688C137.468 84.2 137.708 84.84 137.708 85.608V90.68C137.708 90.8933 137.601 91 137.388 91H136.972C136.758 91 136.652 90.8933 136.652 90.68V85.96C136.652 85.256 136.481 84.7227 136.14 84.36C135.798 83.9973 135.308 83.816 134.668 83.816C134.262 83.816 133.889 83.9173 133.548 84.12C133.206 84.312 132.934 84.5787 132.732 84.92C132.529 85.2613 132.428 85.6347 132.428 86.04V90.68C132.428 90.8933 132.321 91 132.108 91H131.692C131.478 91 131.372 90.8933 131.372 90.68V83.432C131.372 83.2187 131.478 83.112 131.692 83.112H132.044C132.257 83.112 132.364 83.2187 132.364 83.432V84.2C132.63 83.7733 132.982 83.4533 133.42 83.24C133.857 83.0267 134.348 82.92 134.891 82.92Z" fill="#474445"/>
<path d="M74 63H269V61H74V63ZM272 66V106H274V66H272ZM269 109H74V111H269V109ZM71 106V66H69V106H71ZM74 109C72.3431 109 71 107.657 71 106H69C69 108.761 71.2386 111 74 111V109ZM272 106C272 107.657 270.657 109 269 109V111C271.761 111 274 108.761 274 106H272ZM269 63C270.657 63 272 64.3431 272 66H274C274 63.2386 271.761 61 269 61V63ZM74 61C71.2386 61 69 63.2386 69 66H71C71 64.3431 72.3431 63 74 63V61Z" fill="#C3CCD9"/>
<path d="M71.568 164C71.4187 164 71.2973 163.958 71.204 163.874C71.12 163.781 71.078 163.659 71.078 163.51V154.55C71.078 154.391 71.12 154.27 71.204 154.186C71.2973 154.102 71.4187 154.06 71.568 154.06H72.184C72.3427 154.06 72.464 154.102 72.548 154.186C72.632 154.27 72.674 154.391 72.674 154.55V162.642H76.72C76.8787 162.642 77 162.684 77.084 162.768C77.168 162.852 77.21 162.973 77.21 163.132V163.51C77.21 163.659 77.168 163.781 77.084 163.874C77 163.958 76.8787 164 76.72 164H71.568ZM81.5043 156.888C82.4376 156.888 83.1563 157.107 83.6603 157.546C84.1643 157.975 84.4163 158.549 84.4163 159.268V163.51C84.4163 163.659 84.3743 163.781 84.2903 163.874C84.2063 163.958 84.0849 164 83.9263 164H83.5623C83.4129 164 83.2916 163.958 83.1983 163.874C83.1143 163.781 83.0723 163.659 83.0723 163.51V163.202C82.8483 163.529 82.5403 163.781 82.1483 163.958C81.7563 164.135 81.2989 164.224 80.7763 164.224C80.0576 164.224 79.4649 164.065 78.9983 163.748C78.5409 163.421 78.3123 162.931 78.3123 162.278C78.3123 161.55 78.5829 161.013 79.1243 160.668C79.6749 160.313 80.4356 160.047 81.4063 159.87L82.9883 159.576V159.324C82.9883 158.941 82.8529 158.647 82.5823 158.442C82.3209 158.227 81.9709 158.12 81.5323 158.12C81.1589 158.12 80.8323 158.185 80.5523 158.316C80.2816 158.437 79.9876 158.643 79.6703 158.932C79.5489 159.035 79.4323 159.086 79.3203 159.086C79.2083 159.086 79.0916 159.035 78.9703 158.932L78.7463 158.736C78.6249 158.624 78.5643 158.503 78.5643 158.372C78.5643 158.251 78.6203 158.134 78.7323 158.022C79.1336 157.639 79.5583 157.355 80.0063 157.168C80.4543 156.981 80.9536 156.888 81.5043 156.888ZM80.9863 163.034C81.5463 163.034 82.0176 162.885 82.4003 162.586C82.7923 162.287 82.9883 161.858 82.9883 161.298V160.654L81.7703 160.906C81.0889 161.046 80.5849 161.205 80.2583 161.382C79.9316 161.559 79.7683 161.83 79.7683 162.194C79.7683 162.455 79.8756 162.661 80.0903 162.81C80.3049 162.959 80.6036 163.034 80.9863 163.034ZM88.7718 164.21C88.2025 164.21 87.6938 164.14 87.2458 164C86.8071 163.851 86.3591 163.594 85.9018 163.23C85.7618 163.127 85.6918 163.011 85.6918 162.88C85.6918 162.777 85.7431 162.665 85.8458 162.544L86.0558 162.306C86.1678 162.175 86.2891 162.11 86.4198 162.11C86.5225 162.11 86.6345 162.157 86.7558 162.25C87.1478 162.539 87.4931 162.74 87.7918 162.852C88.0905 162.955 88.4265 163.006 88.7998 163.006C89.2011 163.006 89.5278 162.927 89.7798 162.768C90.0411 162.6 90.1718 162.376 90.1718 162.096C90.1718 161.881 90.0971 161.713 89.9478 161.592C89.8078 161.461 89.6211 161.363 89.3878 161.298C89.1545 161.223 88.8091 161.139 88.3518 161.046C87.7078 160.906 87.2038 160.757 86.8398 160.598C86.4851 160.43 86.2285 160.22 86.0698 159.968C85.9111 159.716 85.8318 159.394 85.8318 159.002C85.8318 158.601 85.9438 158.241 86.1678 157.924C86.4011 157.607 86.7231 157.355 87.1338 157.168C87.5538 156.981 88.0438 156.888 88.6038 156.888C89.1078 156.888 89.5558 156.944 89.9478 157.056C90.3491 157.168 90.7411 157.359 91.1238 157.63C91.2731 157.742 91.3478 157.868 91.3478 158.008C91.3478 158.101 91.3011 158.209 91.2078 158.33L91.0258 158.554C90.9231 158.685 90.7971 158.75 90.6478 158.75C90.5358 158.75 90.4285 158.713 90.3258 158.638C90.0178 158.433 89.7331 158.293 89.4718 158.218C89.2105 158.134 88.9165 158.092 88.5898 158.092C88.1885 158.092 87.8665 158.171 87.6238 158.33C87.3811 158.489 87.2598 158.694 87.2598 158.946C87.2598 159.114 87.3158 159.249 87.4278 159.352C87.5491 159.445 87.7171 159.529 87.9318 159.604C88.1558 159.669 88.5058 159.753 88.9818 159.856C89.6258 159.996 90.1345 160.155 90.5078 160.332C90.8905 160.5 91.1705 160.719 91.3478 160.99C91.5345 161.251 91.6278 161.592 91.6278 162.012C91.6278 162.665 91.3665 163.197 90.8438 163.608C90.3305 164.009 89.6398 164.21 88.7718 164.21ZM96.2114 162.824C96.2394 162.815 96.2814 162.81 96.3374 162.81C96.5707 162.81 96.7107 162.945 96.7574 163.216L96.7994 163.44C96.8087 163.468 96.8134 163.515 96.8134 163.58C96.8134 163.813 96.6827 163.963 96.4214 164.028C96.0481 164.112 95.7074 164.154 95.3994 164.154C94.7367 164.154 94.2561 164 93.9574 163.692C93.6681 163.384 93.5234 162.922 93.5234 162.306V158.232H92.7534C92.6041 158.232 92.4827 158.19 92.3894 158.106C92.3054 158.013 92.2634 157.891 92.2634 157.742V157.588C92.2634 157.429 92.3054 157.308 92.3894 157.224C92.4827 157.14 92.6041 157.098 92.7534 157.098H93.5234V155.362C93.5234 155.203 93.5654 155.082 93.6494 154.998C93.7427 154.914 93.8641 154.872 94.0134 154.872H94.5174C94.6761 154.872 94.7974 154.914 94.8814 154.998C94.9654 155.082 95.0074 155.203 95.0074 155.362V157.098H96.2674C96.4261 157.098 96.5474 157.14 96.6314 157.224C96.7154 157.308 96.7574 157.429 96.7574 157.588V157.742C96.7574 157.891 96.7154 158.013 96.6314 158.106C96.5474 158.19 96.4261 158.232 96.2674 158.232H95.0074V162.124C95.0074 162.395 95.0634 162.586 95.1754 162.698C95.2967 162.81 95.4881 162.866 95.7494 162.866C95.8614 162.866 96.0154 162.852 96.2114 162.824ZM104.624 156.888C105.417 156.888 106.024 157.112 106.444 157.56C106.873 157.999 107.088 158.568 107.088 159.268V163.51C107.088 163.659 107.046 163.781 106.962 163.874C106.878 163.958 106.757 164 106.598 164H106.094C105.945 164 105.823 163.958 105.73 163.874C105.646 163.781 105.604 163.659 105.604 163.51V159.73C105.604 159.226 105.478 158.839 105.226 158.568C104.983 158.297 104.633 158.162 104.176 158.162C103.728 158.162 103.35 158.316 103.042 158.624C102.743 158.932 102.594 159.319 102.594 159.786V163.51C102.594 163.659 102.552 163.781 102.468 163.874C102.384 163.958 102.263 164 102.104 164H101.6C101.451 164 101.329 163.958 101.236 163.874C101.152 163.781 101.11 163.659 101.11 163.51V157.588C101.11 157.429 101.152 157.308 101.236 157.224C101.329 157.14 101.451 157.098 101.6 157.098H102.006C102.165 157.098 102.286 157.14 102.37 157.224C102.454 157.308 102.496 157.429 102.496 157.588V157.952C102.72 157.607 103.014 157.345 103.378 157.168C103.742 156.981 104.157 156.888 104.624 156.888ZM111.705 156.888C112.639 156.888 113.357 157.107 113.861 157.546C114.365 157.975 114.617 158.549 114.617 159.268V163.51C114.617 163.659 114.575 163.781 114.491 163.874C114.407 163.958 114.286 164 114.127 164H113.763C113.614 164 113.493 163.958 113.399 163.874C113.315 163.781 113.273 163.659 113.273 163.51V163.202C113.049 163.529 112.741 163.781 112.349 163.958C111.957 164.135 111.5 164.224 110.977 164.224C110.259 164.224 109.666 164.065 109.199 163.748C108.742 163.421 108.513 162.931 108.513 162.278C108.513 161.55 108.784 161.013 109.325 160.668C109.876 160.313 110.637 160.047 111.607 159.87L113.189 159.576V159.324C113.189 158.941 113.054 158.647 112.783 158.442C112.522 158.227 112.172 158.12 111.733 158.12C111.36 158.12 111.033 158.185 110.753 158.316C110.483 158.437 110.189 158.643 109.871 158.932C109.75 159.035 109.633 159.086 109.521 159.086C109.409 159.086 109.293 159.035 109.171 158.932L108.947 158.736C108.826 158.624 108.765 158.503 108.765 158.372C108.765 158.251 108.821 158.134 108.933 158.022C109.335 157.639 109.759 157.355 110.207 157.168C110.655 156.981 111.155 156.888 111.705 156.888ZM111.187 163.034C111.747 163.034 112.219 162.885 112.601 162.586C112.993 162.287 113.189 161.858 113.189 161.298V160.654L111.971 160.906C111.29 161.046 110.786 161.205 110.459 161.382C110.133 161.559 109.969 161.83 109.969 162.194C109.969 162.455 110.077 162.661 110.291 162.81C110.506 162.959 110.805 163.034 111.187 163.034ZM123.719 156.888C124.456 156.888 125.026 157.098 125.427 157.518C125.828 157.929 126.029 158.484 126.029 159.184V163.51C126.029 163.659 125.987 163.781 125.903 163.874C125.819 163.958 125.698 164 125.539 164H125.035C124.886 164 124.764 163.958 124.671 163.874C124.587 163.781 124.545 163.659 124.545 163.51V159.632C124.545 159.175 124.442 158.815 124.237 158.554C124.032 158.293 123.719 158.162 123.299 158.162C122.87 158.162 122.529 158.307 122.277 158.596C122.034 158.885 121.913 159.259 121.913 159.716V163.51C121.913 163.659 121.871 163.781 121.787 163.874C121.703 163.958 121.582 164 121.423 164H120.919C120.77 164 120.648 163.958 120.555 163.874C120.471 163.781 120.429 163.659 120.429 163.51V159.632C120.429 159.175 120.326 158.815 120.121 158.554C119.925 158.293 119.617 158.162 119.197 158.162C118.786 158.162 118.455 158.297 118.203 158.568C117.951 158.839 117.816 159.189 117.797 159.618V163.51C117.797 163.659 117.755 163.781 117.671 163.874C117.587 163.958 117.466 164 117.307 164H116.803C116.654 164 116.532 163.958 116.439 163.874C116.355 163.781 116.313 163.659 116.313 163.51V157.588C116.313 157.429 116.355 157.308 116.439 157.224C116.532 157.14 116.654 157.098 116.803 157.098H117.209C117.368 157.098 117.489 157.14 117.573 157.224C117.657 157.308 117.699 157.429 117.699 157.588V157.896C118.128 157.224 118.791 156.888 119.687 156.888C120.135 156.888 120.527 156.981 120.863 157.168C121.199 157.355 121.456 157.616 121.633 157.952C122.109 157.243 122.804 156.888 123.719 156.888ZM132.671 162.236C132.792 162.133 132.909 162.082 133.021 162.082C133.133 162.082 133.25 162.143 133.371 162.264L133.567 162.474C133.67 162.595 133.721 162.712 133.721 162.824C133.721 162.945 133.66 163.062 133.539 163.174C133.11 163.547 132.68 163.813 132.251 163.972C131.831 164.131 131.364 164.21 130.851 164.21C130.132 164.21 129.507 164.061 128.975 163.762C128.452 163.463 128.046 163.043 127.757 162.502C127.477 161.951 127.337 161.317 127.337 160.598C127.337 159.889 127.472 159.254 127.743 158.694C128.023 158.125 128.415 157.681 128.919 157.364C129.432 157.047 130.03 156.888 130.711 156.888C131.728 156.888 132.512 157.191 133.063 157.798C133.614 158.395 133.889 159.221 133.889 160.276V160.402C133.88 160.551 133.833 160.668 133.749 160.752C133.665 160.836 133.544 160.878 133.385 160.878H128.793C128.849 161.494 129.05 161.998 129.395 162.39C129.75 162.773 130.244 162.964 130.879 162.964C131.224 162.964 131.528 162.913 131.789 162.81C132.05 162.698 132.344 162.507 132.671 162.236ZM130.683 158.064C130.17 158.064 129.754 158.218 129.437 158.526C129.129 158.825 128.928 159.249 128.835 159.8H132.433C132.396 159.259 132.228 158.834 131.929 158.526C131.63 158.218 131.215 158.064 130.683 158.064Z" fill="#474445"/>
<path d="M70 176C70 173.791 71.7909 172 74 172H269C271.209 172 273 173.791 273 176V216C273 218.209 271.209 220 269 220H74C71.7909 220 70 218.209 70 216V176Z" fill="white"/>
<path d="M79.696 201C79.4827 201 79.376 200.893 79.376 200.68V189.96C79.376 189.747 79.4827 189.64 79.696 189.64H86.416C86.6293 189.64 86.736 189.747 86.736 189.96V190.264C86.736 190.477 86.6293 190.584 86.416 190.584H80.512V194.904H85.92C86.1333 194.904 86.24 195.011 86.24 195.224V195.528C86.24 195.741 86.1333 195.848 85.92 195.848H80.512V200.68C80.512 200.893 80.4053 201 80.192 201H79.696ZM89.1026 191.112C88.8893 191.112 88.708 191.037 88.5586 190.888C88.42 190.739 88.3506 190.557 88.3506 190.344C88.3506 190.131 88.42 189.955 88.5586 189.816C88.708 189.677 88.8893 189.608 89.1026 189.608C89.3266 189.608 89.508 189.677 89.6466 189.816C89.796 189.955 89.8706 190.131 89.8706 190.344C89.8706 190.557 89.796 190.739 89.6466 190.888C89.508 191.037 89.3266 191.112 89.1026 191.112ZM88.8946 201C88.6813 201 88.5746 200.893 88.5746 200.68V193.432C88.5746 193.219 88.6813 193.112 88.8946 193.112H89.3106C89.524 193.112 89.6306 193.219 89.6306 193.432V200.68C89.6306 200.893 89.524 201 89.3106 201H88.8946ZM95.5009 192.92C96.4289 192.92 97.1275 193.176 97.5969 193.688C98.0769 194.2 98.3169 194.84 98.3169 195.608V200.68C98.3169 200.893 98.2102 201 97.9969 201H97.5809C97.3675 201 97.2609 200.893 97.2609 200.68V195.96C97.2609 195.256 97.0902 194.723 96.7489 194.36C96.4075 193.997 95.9169 193.816 95.2769 193.816C94.8715 193.816 94.4982 193.917 94.1569 194.12C93.8155 194.312 93.5435 194.579 93.3409 194.92C93.1382 195.261 93.0369 195.635 93.0369 196.04V200.68C93.0369 200.893 92.9302 201 92.7169 201H92.3009C92.0875 201 91.9809 200.893 91.9809 200.68V193.432C91.9809 193.219 92.0875 193.112 92.3009 193.112H92.6529C92.8662 193.112 92.9729 193.219 92.9729 193.432V194.2C93.2395 193.773 93.5915 193.453 94.0289 193.24C94.4662 193.027 94.9569 192.92 95.5009 192.92ZM104.173 192.92C105.101 192.92 105.799 193.176 106.269 193.688C106.749 194.2 106.989 194.84 106.989 195.608V200.68C106.989 200.893 106.882 201 106.669 201H106.253C106.039 201 105.933 200.893 105.933 200.68V195.96C105.933 195.256 105.762 194.723 105.421 194.36C105.079 193.997 104.589 193.816 103.949 193.816C103.543 193.816 103.17 193.917 102.829 194.12C102.487 194.312 102.215 194.579 102.013 194.92C101.81 195.261 101.709 195.635 101.709 196.04V200.68C101.709 200.893 101.602 201 101.389 201H100.973C100.759 201 100.653 200.893 100.653 200.68V193.432C100.653 193.219 100.759 193.112 100.973 193.112H101.325C101.538 193.112 101.645 193.219 101.645 193.432V194.2C101.911 193.773 102.263 193.453 102.701 193.24C103.138 193.027 103.629 192.92 104.173 192.92ZM115.021 189.96C115.021 189.747 115.127 189.64 115.341 189.64H115.757C115.97 189.64 116.077 189.747 116.077 189.96V200.68C116.077 200.893 115.97 201 115.757 201H115.421C115.207 201 115.101 200.893 115.101 200.68V199.64C114.813 200.141 114.434 200.525 113.965 200.792C113.495 201.059 112.941 201.192 112.301 201.192C111.629 201.192 111.031 201.021 110.509 200.68C109.986 200.328 109.575 199.843 109.277 199.224C108.978 198.595 108.829 197.875 108.829 197.064C108.829 196.253 108.978 195.539 109.277 194.92C109.586 194.291 110.007 193.805 110.541 193.464C111.074 193.112 111.671 192.936 112.333 192.936C113.549 192.936 114.445 193.389 115.021 194.296V189.96ZM112.381 200.296C113.181 200.296 113.826 200.013 114.317 199.448C114.818 198.872 115.069 198.077 115.069 197.064C115.069 196.061 114.818 195.272 114.317 194.696C113.826 194.12 113.181 193.832 112.381 193.832C111.645 193.832 111.047 194.131 110.589 194.728C110.141 195.325 109.917 196.104 109.917 197.064C109.917 198.035 110.141 198.819 110.589 199.416C111.037 200.003 111.634 200.296 112.381 200.296ZM124.194 199.128C124.268 199.053 124.348 199.016 124.434 199.016C124.508 199.016 124.578 199.048 124.642 199.112L124.85 199.304C124.924 199.379 124.962 199.459 124.962 199.544C124.962 199.608 124.93 199.683 124.866 199.768C124.343 200.291 123.836 200.664 123.346 200.888C122.855 201.101 122.306 201.208 121.698 201.208C120.93 201.208 120.263 201.037 119.698 200.696C119.132 200.355 118.695 199.88 118.386 199.272C118.076 198.653 117.922 197.939 117.922 197.128C117.922 196.307 118.071 195.581 118.37 194.952C118.679 194.312 119.111 193.816 119.666 193.464C120.22 193.101 120.86 192.92 121.586 192.92C122.663 192.92 123.511 193.256 124.13 193.928C124.748 194.6 125.058 195.507 125.058 196.648V196.84C125.047 196.936 125.01 197.011 124.946 197.064C124.892 197.117 124.818 197.144 124.722 197.144H118.994C119.026 198.04 119.26 198.797 119.698 199.416C120.146 200.024 120.812 200.328 121.698 200.328C122.178 200.328 122.599 200.243 122.962 200.072C123.335 199.891 123.746 199.576 124.194 199.128ZM121.586 193.8C120.882 193.8 120.3 194.019 119.842 194.456C119.394 194.883 119.122 195.512 119.026 196.344H124.002C123.98 195.565 123.756 194.947 123.33 194.488C122.903 194.029 122.322 193.8 121.586 193.8ZM129.894 193.048C130.16 193.048 130.475 193.091 130.838 193.176C131.03 193.24 131.104 193.373 131.062 193.576L130.998 193.832C130.944 194.035 130.811 194.109 130.598 194.056C130.342 193.992 130.107 193.96 129.894 193.96C129.35 193.96 128.896 194.195 128.534 194.664C128.182 195.133 128.006 195.784 128.006 196.616V200.68C128.006 200.893 127.899 201 127.686 201H127.27C127.056 201 126.95 200.893 126.95 200.68V193.432C126.95 193.219 127.056 193.112 127.27 193.112H127.622C127.835 193.112 127.942 193.219 127.942 193.432V194.312C128.123 193.917 128.379 193.608 128.71 193.384C129.051 193.16 129.446 193.048 129.894 193.048ZM135.014 201.208C134.363 201.208 133.787 201.117 133.286 200.936C132.795 200.744 132.278 200.424 131.734 199.976C131.638 199.912 131.59 199.837 131.59 199.752C131.59 199.677 131.627 199.603 131.702 199.528L131.91 199.304C131.974 199.219 132.054 199.176 132.15 199.176C132.225 199.176 132.294 199.208 132.358 199.272C132.87 199.667 133.323 199.944 133.718 200.104C134.113 200.253 134.545 200.328 135.014 200.328C135.601 200.328 136.081 200.2 136.454 199.944C136.827 199.677 137.014 199.32 137.014 198.872C137.014 198.424 136.822 198.093 136.438 197.88C136.054 197.667 135.462 197.475 134.662 197.304C133.958 197.155 133.403 197 132.998 196.84C132.603 196.669 132.31 196.456 132.118 196.2C131.926 195.944 131.83 195.608 131.83 195.192C131.83 194.509 132.107 193.96 132.662 193.544C133.217 193.128 133.915 192.92 134.758 192.92C135.334 192.92 135.846 192.995 136.294 193.144C136.753 193.283 137.211 193.517 137.67 193.848C137.766 193.923 137.814 194.003 137.814 194.088C137.814 194.141 137.787 194.211 137.734 194.296L137.542 194.536C137.489 194.621 137.414 194.664 137.318 194.664C137.233 194.664 137.158 194.637 137.094 194.584C136.657 194.275 136.267 194.067 135.926 193.96C135.595 193.853 135.217 193.8 134.79 193.8C134.203 193.8 133.734 193.928 133.382 194.184C133.03 194.44 132.854 194.765 132.854 195.16C132.854 195.405 132.934 195.603 133.094 195.752C133.254 195.901 133.483 196.029 133.782 196.136C134.081 196.232 134.518 196.344 135.094 196.472C136.161 196.707 136.918 196.995 137.366 197.336C137.825 197.677 138.054 198.173 138.054 198.824C138.054 199.539 137.771 200.115 137.206 200.552C136.641 200.989 135.91 201.208 135.014 201.208ZM143.104 201.208C142.368 201.208 141.712 201.032 141.136 200.68C140.56 200.328 140.112 199.843 139.792 199.224C139.472 198.595 139.312 197.875 139.312 197.064C139.312 196.253 139.472 195.539 139.792 194.92C140.112 194.291 140.56 193.8 141.136 193.448C141.712 193.096 142.368 192.92 143.104 192.92C143.84 192.92 144.496 193.096 145.072 193.448C145.648 193.8 146.096 194.291 146.416 194.92C146.736 195.539 146.896 196.253 146.896 197.064C146.896 197.875 146.736 198.595 146.416 199.224C146.096 199.843 145.648 200.328 145.072 200.68C144.496 201.032 143.84 201.208 143.104 201.208ZM143.104 200.328C143.926 200.328 144.582 200.029 145.072 199.432C145.563 198.824 145.808 198.035 145.808 197.064C145.808 196.093 145.563 195.309 145.072 194.712C144.582 194.104 143.926 193.8 143.104 193.8C142.283 193.8 141.627 194.104 141.136 194.712C140.646 195.309 140.4 196.093 140.4 197.064C140.4 198.035 140.646 198.824 141.136 199.432C141.627 200.029 142.283 200.328 143.104 200.328ZM152.251 192.92C153.179 192.92 153.878 193.176 154.347 193.688C154.827 194.2 155.067 194.84 155.067 195.608V200.68C155.067 200.893 154.96 201 154.747 201H154.331C154.118 201 154.011 200.893 154.011 200.68V195.96C154.011 195.256 153.84 194.723 153.499 194.36C153.158 193.997 152.667 193.816 152.027 193.816C151.622 193.816 151.248 193.917 150.907 194.12C150.566 194.312 150.294 194.579 150.091 194.92C149.888 195.261 149.787 195.635 149.787 196.04V200.68C149.787 200.893 149.68 201 149.467 201H149.051C148.838 201 148.731 200.893 148.731 200.68V193.432C148.731 193.219 148.838 193.112 149.051 193.112H149.403C149.616 193.112 149.723 193.219 149.723 193.432V194.2C149.99 193.773 150.342 193.453 150.779 193.24C151.216 193.027 151.707 192.92 152.251 192.92Z" fill="#474445"/>
<path d="M74 173H269V171H74V173ZM272 176V216H274V176H272ZM269 219H74V221H269V219ZM71 216V176H69V216H71ZM74 219C72.3431 219 71 217.657 71 216H69C69 218.761 71.2386 221 74 221V219ZM272 216C272 217.657 270.657 219 269 219V221C271.761 221 274 218.761 274 216H272ZM269 173C270.657 173 272 174.343 272 176H274C274 173.239 271.761 171 269 171V173ZM74 171C71.2386 171 69 173.239 69 176H71C71 174.343 72.3431 173 74 173V171Z" fill="#C3CCD9"/>
<path d="M71.568 274C71.4187 274 71.2973 273.958 71.204 273.874C71.12 273.781 71.078 273.659 71.078 273.51V264.55C71.078 264.391 71.12 264.27 71.204 264.186C71.2973 264.102 71.4187 264.06 71.568 264.06H77.378C77.5367 264.06 77.658 264.102 77.742 264.186C77.826 264.27 77.868 264.391 77.868 264.55V264.914C77.868 265.063 77.826 265.185 77.742 265.278C77.658 265.362 77.5367 265.404 77.378 265.404H72.674V268.204H77.028C77.1867 268.204 77.308 268.246 77.392 268.33C77.476 268.414 77.518 268.535 77.518 268.694V269.058C77.518 269.207 77.476 269.329 77.392 269.422C77.308 269.506 77.1867 269.548 77.028 269.548H72.674V272.656H77.518C77.6767 272.656 77.798 272.698 77.882 272.782C77.966 272.866 78.008 272.987 78.008 273.146V273.51C78.008 273.659 77.966 273.781 77.882 273.874C77.798 273.958 77.6767 274 77.518 274H71.568ZM86.9143 266.888C87.6516 266.888 88.221 267.098 88.6223 267.518C89.0236 267.929 89.2243 268.484 89.2243 269.184V273.51C89.2243 273.659 89.1823 273.781 89.0983 273.874C89.0143 273.958 88.893 274 88.7343 274H88.2303C88.081 274 87.9596 273.958 87.8663 273.874C87.7823 273.781 87.7403 273.659 87.7403 273.51V269.632C87.7403 269.175 87.6376 268.815 87.4323 268.554C87.227 268.293 86.9143 268.162 86.4943 268.162C86.065 268.162 85.7243 268.307 85.4723 268.596C85.2296 268.885 85.1083 269.259 85.1083 269.716V273.51C85.1083 273.659 85.0663 273.781 84.9823 273.874C84.8983 273.958 84.777 274 84.6183 274H84.1143C83.965 274 83.8436 273.958 83.7503 273.874C83.6663 273.781 83.6243 273.659 83.6243 273.51V269.632C83.6243 269.175 83.5216 268.815 83.3163 268.554C83.1203 268.293 82.8123 268.162 82.3923 268.162C81.9816 268.162 81.6503 268.297 81.3983 268.568C81.1463 268.839 81.011 269.189 80.9923 269.618V273.51C80.9923 273.659 80.9503 273.781 80.8663 273.874C80.7823 273.958 80.661 274 80.5023 274H79.9983C79.849 274 79.7276 273.958 79.6343 273.874C79.5503 273.781 79.5083 273.659 79.5083 273.51V267.588C79.5083 267.429 79.5503 267.308 79.6343 267.224C79.7276 267.14 79.849 267.098 79.9983 267.098H80.4043C80.563 267.098 80.6843 267.14 80.7683 267.224C80.8523 267.308 80.8943 267.429 80.8943 267.588V267.896C81.3236 267.224 81.9863 266.888 82.8823 266.888C83.3303 266.888 83.7223 266.981 84.0583 267.168C84.3943 267.355 84.651 267.616 84.8283 267.952C85.3043 267.243 85.9996 266.888 86.9143 266.888ZM93.8363 266.888C94.7696 266.888 95.4883 267.107 95.9923 267.546C96.4963 267.975 96.7483 268.549 96.7483 269.268V273.51C96.7483 273.659 96.7063 273.781 96.6223 273.874C96.5383 273.958 96.417 274 96.2583 274H95.8943C95.745 274 95.6236 273.958 95.5303 273.874C95.4463 273.781 95.4043 273.659 95.4043 273.51V273.202C95.1803 273.529 94.8723 273.781 94.4803 273.958C94.0883 274.135 93.631 274.224 93.1083 274.224C92.3896 274.224 91.797 274.065 91.3303 273.748C90.873 273.421 90.6443 272.931 90.6443 272.278C90.6443 271.55 90.915 271.013 91.4563 270.668C92.007 270.313 92.7676 270.047 93.7383 269.87L95.3203 269.576V269.324C95.3203 268.941 95.185 268.647 94.9143 268.442C94.653 268.227 94.303 268.12 93.8643 268.12C93.491 268.12 93.1643 268.185 92.8843 268.316C92.6136 268.437 92.3196 268.643 92.0023 268.932C91.881 269.035 91.7643 269.086 91.6523 269.086C91.5403 269.086 91.4236 269.035 91.3023 268.932L91.0783 268.736C90.957 268.624 90.8963 268.503 90.8963 268.372C90.8963 268.251 90.9523 268.134 91.0643 268.022C91.4656 267.639 91.8903 267.355 92.3383 267.168C92.7863 266.981 93.2856 266.888 93.8363 266.888ZM93.3183 273.034C93.8783 273.034 94.3496 272.885 94.7323 272.586C95.1243 272.287 95.3203 271.858 95.3203 271.298V270.654L94.1023 270.906C93.421 271.046 92.917 271.205 92.5903 271.382C92.2636 271.559 92.1003 271.83 92.1003 272.194C92.1003 272.455 92.2076 272.661 92.4223 272.81C92.637 272.959 92.9356 273.034 93.3183 273.034ZM99.1998 265.754C98.9292 265.754 98.7005 265.665 98.5138 265.488C98.3272 265.301 98.2338 265.082 98.2338 264.83C98.2338 264.569 98.3272 264.349 98.5138 264.172C98.7005 263.995 98.9292 263.906 99.1998 263.906C99.4705 263.906 99.6992 263.995 99.8858 264.172C100.073 264.349 100.166 264.569 100.166 264.83C100.166 265.082 100.073 265.301 99.8858 265.488C99.6992 265.665 99.4705 265.754 99.1998 265.754ZM98.9338 274C98.7845 274 98.6632 273.958 98.5698 273.874C98.4858 273.781 98.4438 273.659 98.4438 273.51V267.588C98.4438 267.429 98.4858 267.308 98.5698 267.224C98.6632 267.14 98.7845 267.098 98.9338 267.098H99.4378C99.5965 267.098 99.7178 267.14 99.8018 267.224C99.8858 267.308 99.9278 267.429 99.9278 267.588V273.51C99.9278 273.659 99.8858 273.781 99.8018 273.874C99.7178 273.958 99.5965 274 99.4378 274H98.9338ZM102.189 274C102.04 274 101.918 273.958 101.825 273.874C101.741 273.781 101.699 273.659 101.699 273.51V264.55C101.699 264.391 101.741 264.27 101.825 264.186C101.918 264.102 102.04 264.06 102.189 264.06H102.693C102.852 264.06 102.973 264.102 103.057 264.186C103.141 264.27 103.183 264.391 103.183 264.55V273.51C103.183 273.659 103.141 273.781 103.057 273.874C102.973 273.958 102.852 274 102.693 274H102.189ZM110.995 266.888C111.928 266.888 112.647 267.107 113.151 267.546C113.655 267.975 113.907 268.549 113.907 269.268V273.51C113.907 273.659 113.865 273.781 113.781 273.874C113.697 273.958 113.575 274 113.417 274H113.053C112.903 274 112.782 273.958 112.689 273.874C112.605 273.781 112.563 273.659 112.563 273.51V273.202C112.339 273.529 112.031 273.781 111.639 273.958C111.247 274.135 110.789 274.224 110.267 274.224C109.548 274.224 108.955 274.065 108.489 273.748C108.031 273.421 107.803 272.931 107.803 272.278C107.803 271.55 108.073 271.013 108.615 270.668C109.165 270.313 109.926 270.047 110.897 269.87L112.479 269.576V269.324C112.479 268.941 112.343 268.647 112.073 268.442C111.811 268.227 111.461 268.12 111.023 268.12C110.649 268.12 110.323 268.185 110.043 268.316C109.772 268.437 109.478 268.643 109.161 268.932C109.039 269.035 108.923 269.086 108.811 269.086C108.699 269.086 108.582 269.035 108.461 268.932L108.237 268.736C108.115 268.624 108.055 268.503 108.055 268.372C108.055 268.251 108.111 268.134 108.223 268.022C108.624 267.639 109.049 267.355 109.497 267.168C109.945 266.981 110.444 266.888 110.995 266.888ZM110.477 273.034C111.037 273.034 111.508 272.885 111.891 272.586C112.283 272.287 112.479 271.858 112.479 271.298V270.654L111.261 270.906C110.579 271.046 110.075 271.205 109.749 271.382C109.422 271.559 109.259 271.83 109.259 272.194C109.259 272.455 109.366 272.661 109.581 272.81C109.795 272.959 110.094 273.034 110.477 273.034ZM120.46 264.536C120.46 264.377 120.502 264.256 120.586 264.172C120.679 264.088 120.801 264.046 120.95 264.046H121.454C121.613 264.046 121.734 264.088 121.818 264.172C121.902 264.256 121.944 264.377 121.944 264.536V273.51C121.944 273.659 121.902 273.781 121.818 273.874C121.734 273.958 121.613 274 121.454 274H121.048C120.899 274 120.777 273.958 120.684 273.874C120.6 273.781 120.558 273.659 120.558 273.51V273.02C120.073 273.804 119.312 274.196 118.276 274.196C117.697 274.196 117.175 274.047 116.708 273.748C116.251 273.449 115.891 273.025 115.63 272.474C115.369 271.923 115.238 271.284 115.238 270.556C115.238 269.837 115.369 269.203 115.63 268.652C115.901 268.101 116.269 267.677 116.736 267.378C117.203 267.079 117.725 266.93 118.304 266.93C119.256 266.93 119.975 267.261 120.46 267.924V264.536ZM118.584 272.922C119.153 272.922 119.62 272.712 119.984 272.292C120.348 271.863 120.53 271.284 120.53 270.556C120.53 269.828 120.348 269.254 119.984 268.834C119.62 268.414 119.153 268.204 118.584 268.204C118.033 268.204 117.59 268.419 117.254 268.848C116.918 269.277 116.75 269.847 116.75 270.556C116.75 271.275 116.913 271.849 117.24 272.278C117.576 272.707 118.024 272.922 118.584 272.922ZM128.526 264.536C128.526 264.377 128.568 264.256 128.652 264.172C128.746 264.088 128.867 264.046 129.016 264.046H129.52C129.679 264.046 129.8 264.088 129.884 264.172C129.968 264.256 130.01 264.377 130.01 264.536V273.51C130.01 273.659 129.968 273.781 129.884 273.874C129.8 273.958 129.679 274 129.52 274H129.114C128.965 274 128.844 273.958 128.75 273.874C128.666 273.781 128.624 273.659 128.624 273.51V273.02C128.139 273.804 127.378 274.196 126.342 274.196C125.764 274.196 125.241 274.047 124.774 273.748C124.317 273.449 123.958 273.025 123.696 272.474C123.435 271.923 123.304 271.284 123.304 270.556C123.304 269.837 123.435 269.203 123.696 268.652C123.967 268.101 124.336 267.677 124.802 267.378C125.269 267.079 125.792 266.93 126.37 266.93C127.322 266.93 128.041 267.261 128.526 267.924V264.536ZM126.65 272.922C127.22 272.922 127.686 272.712 128.05 272.292C128.414 271.863 128.596 271.284 128.596 270.556C128.596 269.828 128.414 269.254 128.05 268.834C127.686 268.414 127.22 268.204 126.65 268.204C126.1 268.204 125.656 268.419 125.32 268.848C124.984 269.277 124.816 269.847 124.816 270.556C124.816 271.275 124.98 271.849 125.306 272.278C125.642 272.707 126.09 272.922 126.65 272.922ZM134.843 267.028C135.048 267.028 135.258 267.051 135.473 267.098C135.725 267.154 135.851 267.303 135.851 267.546C135.851 267.611 135.846 267.658 135.837 267.686L135.767 268.022C135.711 268.283 135.571 268.414 135.347 268.414L135.221 268.4C135.053 268.372 134.904 268.358 134.773 268.358C134.306 268.358 133.928 268.545 133.639 268.918C133.359 269.282 133.219 269.791 133.219 270.444V273.51C133.219 273.659 133.177 273.781 133.093 273.874C133.009 273.958 132.888 274 132.729 274H132.225C132.076 274 131.954 273.958 131.861 273.874C131.777 273.781 131.735 273.659 131.735 273.51V267.588C131.735 267.429 131.777 267.308 131.861 267.224C131.954 267.14 132.076 267.098 132.225 267.098H132.631C132.79 267.098 132.911 267.14 132.995 267.224C133.079 267.308 133.121 267.429 133.121 267.588V268.134C133.289 267.789 133.518 267.518 133.807 267.322C134.096 267.126 134.442 267.028 134.843 267.028ZM141.544 272.236C141.665 272.133 141.782 272.082 141.894 272.082C142.006 272.082 142.123 272.143 142.244 272.264L142.44 272.474C142.543 272.595 142.594 272.712 142.594 272.824C142.594 272.945 142.533 273.062 142.412 273.174C141.983 273.547 141.553 273.813 141.124 273.972C140.704 274.131 140.237 274.21 139.724 274.21C139.005 274.21 138.38 274.061 137.848 273.762C137.325 273.463 136.919 273.043 136.63 272.502C136.35 271.951 136.21 271.317 136.21 270.598C136.21 269.889 136.345 269.254 136.616 268.694C136.896 268.125 137.288 267.681 137.792 267.364C138.305 267.047 138.903 266.888 139.584 266.888C140.601 266.888 141.385 267.191 141.936 267.798C142.487 268.395 142.762 269.221 142.762 270.276V270.402C142.753 270.551 142.706 270.668 142.622 270.752C142.538 270.836 142.417 270.878 142.258 270.878H137.666C137.722 271.494 137.923 271.998 138.268 272.39C138.623 272.773 139.117 272.964 139.752 272.964C140.097 272.964 140.401 272.913 140.662 272.81C140.923 272.698 141.217 272.507 141.544 272.236ZM139.556 268.064C139.043 268.064 138.627 268.218 138.31 268.526C138.002 268.825 137.801 269.249 137.708 269.8H141.306C141.269 269.259 141.101 268.834 140.802 268.526C140.503 268.218 140.088 268.064 139.556 268.064ZM146.809 274.21C146.24 274.21 145.731 274.14 145.283 274C144.844 273.851 144.396 273.594 143.939 273.23C143.799 273.127 143.729 273.011 143.729 272.88C143.729 272.777 143.78 272.665 143.883 272.544L144.093 272.306C144.205 272.175 144.326 272.11 144.457 272.11C144.56 272.11 144.672 272.157 144.793 272.25C145.185 272.539 145.53 272.74 145.829 272.852C146.128 272.955 146.464 273.006 146.837 273.006C147.238 273.006 147.565 272.927 147.817 272.768C148.078 272.6 148.209 272.376 148.209 272.096C148.209 271.881 148.134 271.713 147.985 271.592C147.845 271.461 147.658 271.363 147.425 271.298C147.192 271.223 146.846 271.139 146.389 271.046C145.745 270.906 145.241 270.757 144.877 270.598C144.522 270.43 144.266 270.22 144.107 269.968C143.948 269.716 143.869 269.394 143.869 269.002C143.869 268.601 143.981 268.241 144.205 267.924C144.438 267.607 144.76 267.355 145.171 267.168C145.591 266.981 146.081 266.888 146.641 266.888C147.145 266.888 147.593 266.944 147.985 267.056C148.386 267.168 148.778 267.359 149.161 267.63C149.31 267.742 149.385 267.868 149.385 268.008C149.385 268.101 149.338 268.209 149.245 268.33L149.063 268.554C148.96 268.685 148.834 268.75 148.685 268.75C148.573 268.75 148.466 268.713 148.363 268.638C148.055 268.433 147.77 268.293 147.509 268.218C147.248 268.134 146.954 268.092 146.627 268.092C146.226 268.092 145.904 268.171 145.661 268.33C145.418 268.489 145.297 268.694 145.297 268.946C145.297 269.114 145.353 269.249 145.465 269.352C145.586 269.445 145.754 269.529 145.969 269.604C146.193 269.669 146.543 269.753 147.019 269.856C147.663 269.996 148.172 270.155 148.545 270.332C148.928 270.5 149.208 270.719 149.385 270.99C149.572 271.251 149.665 271.592 149.665 272.012C149.665 272.665 149.404 273.197 148.881 273.608C148.368 274.009 147.677 274.21 146.809 274.21ZM153.604 274.21C153.035 274.21 152.526 274.14 152.078 274C151.639 273.851 151.191 273.594 150.734 273.23C150.594 273.127 150.524 273.011 150.524 272.88C150.524 272.777 150.575 272.665 150.678 272.544L150.888 272.306C151 272.175 151.121 272.11 151.252 272.11C151.355 272.11 151.467 272.157 151.588 272.25C151.98 272.539 152.325 272.74 152.624 272.852C152.923 272.955 153.259 273.006 153.632 273.006C154.033 273.006 154.36 272.927 154.612 272.768C154.873 272.6 155.004 272.376 155.004 272.096C155.004 271.881 154.929 271.713 154.78 271.592C154.64 271.461 154.453 271.363 154.22 271.298C153.987 271.223 153.641 271.139 153.184 271.046C152.54 270.906 152.036 270.757 151.672 270.598C151.317 270.43 151.061 270.22 150.902 269.968C150.743 269.716 150.664 269.394 150.664 269.002C150.664 268.601 150.776 268.241 151 267.924C151.233 267.607 151.555 267.355 151.966 267.168C152.386 266.981 152.876 266.888 153.436 266.888C153.94 266.888 154.388 266.944 154.78 267.056C155.181 267.168 155.573 267.359 155.956 267.63C156.105 267.742 156.18 267.868 156.18 268.008C156.18 268.101 156.133 268.209 156.04 268.33L155.858 268.554C155.755 268.685 155.629 268.75 155.48 268.75C155.368 268.75 155.261 268.713 155.158 268.638C154.85 268.433 154.565 268.293 154.304 268.218C154.043 268.134 153.749 268.092 153.422 268.092C153.021 268.092 152.699 268.171 152.456 268.33C152.213 268.489 152.092 268.694 152.092 268.946C152.092 269.114 152.148 269.249 152.26 269.352C152.381 269.445 152.549 269.529 152.764 269.604C152.988 269.669 153.338 269.753 153.814 269.856C154.458 269.996 154.967 270.155 155.34 270.332C155.723 270.5 156.003 270.719 156.18 270.99C156.367 271.251 156.46 271.592 156.46 272.012C156.46 272.665 156.199 273.197 155.676 273.608C155.163 274.009 154.472 274.21 153.604 274.21Z" fill="#474445"/>
<path d="M168.552 275.872C168.504 275.92 168.448 275.944 168.384 275.944C168.32 275.944 168.264 275.912 168.216 275.848C167.488 275.032 166.928 274.184 166.536 273.304C166.152 272.424 165.96 271.428 165.96 270.316C165.96 269.204 166.152 268.208 166.536 267.328C166.928 266.448 167.488 265.6 168.216 264.784C168.264 264.72 168.32 264.688 168.384 264.688C168.448 264.688 168.504 264.712 168.552 264.76L168.708 264.904C168.772 264.952 168.804 265.012 168.804 265.084C168.804 265.14 168.78 265.192 168.732 265.24C168.076 266.04 167.584 266.84 167.256 267.64C166.936 268.44 166.776 269.332 166.776 270.316C166.776 271.292 166.94 272.184 167.268 272.992C167.596 273.792 168.084 274.592 168.732 275.392C168.78 275.44 168.804 275.492 168.804 275.548C168.804 275.62 168.772 275.68 168.708 275.728L168.552 275.872ZM172.227 274.156C171.675 274.156 171.183 274.024 170.751 273.76C170.319 273.496 169.983 273.132 169.743 272.668C169.503 272.196 169.383 271.656 169.383 271.048C169.383 270.44 169.503 269.904 169.743 269.44C169.983 268.968 170.319 268.6 170.751 268.336C171.183 268.072 171.675 267.94 172.227 267.94C172.779 267.94 173.271 268.072 173.703 268.336C174.135 268.6 174.471 268.968 174.711 269.44C174.951 269.904 175.071 270.44 175.071 271.048C175.071 271.656 174.951 272.196 174.711 272.668C174.471 273.132 174.135 273.496 173.703 273.76C173.271 274.024 172.779 274.156 172.227 274.156ZM172.227 273.496C172.843 273.496 173.335 273.272 173.703 272.824C174.071 272.368 174.255 271.776 174.255 271.048C174.255 270.32 174.071 269.732 173.703 269.284C173.335 268.828 172.843 268.6 172.227 268.6C171.611 268.6 171.119 268.828 170.751 269.284C170.383 269.732 170.199 270.32 170.199 271.048C170.199 271.776 170.383 272.368 170.751 272.824C171.119 273.272 171.611 273.496 172.227 273.496ZM179.279 267.952C179.775 267.952 180.219 268.084 180.611 268.348C181.011 268.604 181.323 268.968 181.547 269.44C181.771 269.904 181.883 270.436 181.883 271.036C181.883 271.644 181.771 272.184 181.547 272.656C181.323 273.128 181.015 273.496 180.623 273.76C180.231 274.016 179.783 274.144 179.279 274.144C178.351 274.144 177.671 273.804 177.239 273.124V275.968C177.239 276.128 177.159 276.208 176.999 276.208H176.687C176.527 276.208 176.447 276.128 176.447 275.968V268.324C176.447 268.164 176.527 268.084 176.687 268.084H176.951C177.111 268.084 177.191 268.164 177.191 268.324V269.08C177.407 268.712 177.691 268.432 178.043 268.24C178.395 268.048 178.807 267.952 179.279 267.952ZM179.219 273.472C179.779 273.472 180.227 273.248 180.563 272.8C180.899 272.352 181.067 271.764 181.067 271.036C181.067 270.316 180.899 269.736 180.563 269.296C180.227 268.848 179.779 268.624 179.219 268.624C178.619 268.624 178.131 268.84 177.755 269.272C177.387 269.696 177.203 270.284 177.203 271.036C177.203 271.788 177.391 272.384 177.767 272.824C178.143 273.256 178.627 273.472 179.219 273.472ZM185.779 273.34C185.803 273.332 185.835 273.328 185.875 273.328C185.923 273.328 185.967 273.344 186.007 273.376C186.047 273.408 186.071 273.452 186.079 273.508L186.115 273.676C186.123 273.692 186.127 273.72 186.127 273.76C186.127 273.872 186.067 273.94 185.947 273.964C185.659 274.052 185.351 274.096 185.023 274.096C184.503 274.096 184.131 273.98 183.907 273.748C183.691 273.508 183.583 273.164 183.583 272.716V268.684H182.695C182.535 268.684 182.455 268.604 182.455 268.444V268.324C182.455 268.164 182.535 268.084 182.695 268.084H183.583V266.26C183.583 266.1 183.663 266.02 183.823 266.02H184.135C184.295 266.02 184.375 266.1 184.375 266.26V268.084H185.815C185.975 268.084 186.055 268.164 186.055 268.324V268.444C186.055 268.604 185.975 268.684 185.815 268.684H184.375V272.62C184.375 272.916 184.431 273.124 184.543 273.244C184.655 273.364 184.847 273.424 185.119 273.424C185.311 273.424 185.531 273.396 185.779 273.34ZM187.659 266.584C187.499 266.584 187.363 266.528 187.251 266.416C187.147 266.304 187.095 266.168 187.095 266.008C187.095 265.848 187.147 265.716 187.251 265.612C187.363 265.508 187.499 265.456 187.659 265.456C187.827 265.456 187.963 265.508 188.067 265.612C188.179 265.716 188.235 265.848 188.235 266.008C188.235 266.168 188.179 266.304 188.067 266.416C187.963 266.528 187.827 266.584 187.659 266.584ZM187.503 274C187.343 274 187.263 273.92 187.263 273.76V268.324C187.263 268.164 187.343 268.084 187.503 268.084H187.815C187.975 268.084 188.055 268.164 188.055 268.324V273.76C188.055 273.92 187.975 274 187.815 274H187.503ZM192.266 274.156C191.714 274.156 191.222 274.024 190.79 273.76C190.358 273.496 190.022 273.132 189.782 272.668C189.542 272.196 189.422 271.656 189.422 271.048C189.422 270.44 189.542 269.904 189.782 269.44C190.022 268.968 190.358 268.6 190.79 268.336C191.222 268.072 191.714 267.94 192.266 267.94C192.818 267.94 193.31 268.072 193.742 268.336C194.174 268.6 194.51 268.968 194.75 269.44C194.99 269.904 195.11 270.44 195.11 271.048C195.11 271.656 194.99 272.196 194.75 272.668C194.51 273.132 194.174 273.496 193.742 273.76C193.31 274.024 192.818 274.156 192.266 274.156ZM192.266 273.496C192.882 273.496 193.374 273.272 193.742 272.824C194.11 272.368 194.294 271.776 194.294 271.048C194.294 270.32 194.11 269.732 193.742 269.284C193.374 268.828 192.882 268.6 192.266 268.6C191.65 268.6 191.158 268.828 190.79 269.284C190.422 269.732 190.238 270.32 190.238 271.048C190.238 271.776 190.422 272.368 190.79 272.824C191.158 273.272 191.65 273.496 192.266 273.496ZM199.126 267.94C199.822 267.94 200.346 268.132 200.698 268.516C201.058 268.9 201.238 269.38 201.238 269.956V273.76C201.238 273.92 201.158 274 200.998 274H200.686C200.526 274 200.446 273.92 200.446 273.76V270.22C200.446 269.692 200.318 269.292 200.062 269.02C199.806 268.748 199.438 268.612 198.958 268.612C198.654 268.612 198.374 268.688 198.118 268.84C197.862 268.984 197.658 269.184 197.506 269.44C197.354 269.696 197.278 269.976 197.278 270.28V273.76C197.278 273.92 197.198 274 197.038 274H196.726C196.566 274 196.486 273.92 196.486 273.76V268.324C196.486 268.164 196.566 268.084 196.726 268.084H196.99C197.15 268.084 197.23 268.164 197.23 268.324V268.9C197.43 268.58 197.694 268.34 198.022 268.18C198.35 268.02 198.718 267.94 199.126 267.94ZM205.27 267.94C205.998 267.94 206.566 268.116 206.974 268.468C207.382 268.812 207.586 269.268 207.586 269.836V273.76C207.586 273.92 207.506 274 207.346 274H207.106C206.946 274 206.866 273.92 206.866 273.76V273.22C206.666 273.54 206.382 273.78 206.014 273.94C205.654 274.1 205.25 274.18 204.802 274.18C204.178 274.18 203.67 274.048 203.278 273.784C202.886 273.52 202.69 273.112 202.69 272.56C202.69 272.12 202.814 271.768 203.062 271.504C203.31 271.232 203.634 271.028 204.034 270.892C204.434 270.748 204.934 270.62 205.534 270.508L206.83 270.28V269.896C206.83 269.488 206.69 269.172 206.41 268.948C206.13 268.716 205.762 268.6 205.306 268.6C204.962 268.6 204.65 268.664 204.37 268.792C204.09 268.92 203.79 269.14 203.47 269.452C203.414 269.508 203.354 269.536 203.29 269.536C203.234 269.536 203.182 269.512 203.134 269.464L202.978 269.32C202.922 269.264 202.894 269.204 202.894 269.14C202.894 269.068 202.922 269.004 202.978 268.948C203.314 268.596 203.666 268.34 204.034 268.18C204.41 268.02 204.822 267.94 205.27 267.94ZM204.838 273.52C205.414 273.52 205.89 273.368 206.266 273.064C206.642 272.76 206.83 272.372 206.83 271.9V270.892L205.714 271.108C205.194 271.212 204.782 271.312 204.478 271.408C204.174 271.504 203.93 271.644 203.746 271.828C203.562 272.012 203.47 272.252 203.47 272.548C203.47 272.852 203.59 273.092 203.83 273.268C204.078 273.436 204.414 273.52 204.838 273.52ZM209.593 274C209.433 274 209.353 273.92 209.353 273.76V265.72C209.353 265.56 209.433 265.48 209.593 265.48H209.905C210.065 265.48 210.145 265.56 210.145 265.72V273.76C210.145 273.92 210.065 274 209.905 274H209.593ZM211.835 275.848C211.787 275.912 211.731 275.944 211.667 275.944C211.603 275.944 211.547 275.92 211.499 275.872L211.343 275.728C211.279 275.68 211.247 275.62 211.247 275.548C211.247 275.492 211.271 275.44 211.319 275.392C211.975 274.592 212.467 273.792 212.795 272.992C213.123 272.192 213.287 271.3 213.287 270.316C213.287 269.34 213.123 268.448 212.795 267.64C212.467 266.832 211.975 266.032 211.319 265.24C211.279 265.192 211.259 265.14 211.259 265.084C211.259 265.012 211.287 264.952 211.343 264.904L211.499 264.76C211.547 264.712 211.603 264.688 211.667 264.688C211.731 264.688 211.787 264.72 211.835 264.784C212.563 265.6 213.119 266.448 213.503 267.328C213.895 268.208 214.091 269.204 214.091 270.316C214.091 271.428 213.895 272.424 213.503 273.304C213.119 274.184 212.563 275.032 211.835 275.848Z" fill="#767676"/>
<path d="M70 286C70 283.791 71.7909 282 74 282H269C271.209 282 273 283.791 273 286V326C273 328.209 271.209 330 269 330H74C71.7909 330 70 328.209 70 326V286Z" fill="white"/>
<path d="M79.696 311C79.4827 311 79.376 310.893 79.376 310.68V299.96C79.376 299.747 79.4827 299.64 79.696 299.64H84C85.0987 299.64 85.984 299.928 86.656 300.504C87.328 301.08 87.664 301.896 87.664 302.952C87.664 304.008 87.328 304.829 86.656 305.416C85.984 305.992 85.0987 306.28 84 306.28H80.512V310.68C80.512 310.893 80.4053 311 80.192 311H79.696ZM83.856 305.336C84.688 305.336 85.344 305.133 85.824 304.728C86.304 304.323 86.544 303.731 86.544 302.952C86.544 302.184 86.304 301.597 85.824 301.192C85.344 300.787 84.688 300.584 83.856 300.584H80.512V305.336H83.856ZM94.4915 303.432C94.4915 303.219 94.5982 303.112 94.8115 303.112H95.2275C95.4408 303.112 95.5475 303.219 95.5475 303.432V310.68C95.5475 310.893 95.4408 311 95.2275 311H94.8915C94.6782 311 94.5715 310.893 94.5715 310.68V309.96C94.3368 310.376 94.0008 310.691 93.5635 310.904C93.1368 311.107 92.6675 311.208 92.1555 311.208C91.1955 311.208 90.4862 310.968 90.0275 310.488C89.5688 309.997 89.3395 309.368 89.3395 308.6V303.432C89.3395 303.219 89.4462 303.112 89.6595 303.112H90.0755C90.2888 303.112 90.3955 303.219 90.3955 303.432V308.376C90.3955 309.005 90.5502 309.485 90.8595 309.816C91.1795 310.136 91.6328 310.296 92.2195 310.296C92.8808 310.296 93.4248 310.093 93.8515 309.688C94.2782 309.283 94.4915 308.707 94.4915 307.96V303.432ZM100.67 311.208C100.02 311.208 99.4437 311.117 98.9424 310.936C98.4517 310.744 97.9344 310.424 97.3904 309.976C97.2944 309.912 97.2464 309.837 97.2464 309.752C97.2464 309.677 97.2837 309.603 97.3584 309.528L97.5664 309.304C97.6304 309.219 97.7104 309.176 97.8064 309.176C97.881 309.176 97.9504 309.208 98.0144 309.272C98.5264 309.667 98.9797 309.944 99.3744 310.104C99.769 310.253 100.201 310.328 100.67 310.328C101.257 310.328 101.737 310.2 102.11 309.944C102.484 309.677 102.67 309.32 102.67 308.872C102.67 308.424 102.478 308.093 102.094 307.88C101.71 307.667 101.118 307.475 100.318 307.304C99.6144 307.155 99.0597 307 98.6544 306.84C98.2597 306.669 97.9664 306.456 97.7744 306.2C97.5824 305.944 97.4864 305.608 97.4864 305.192C97.4864 304.509 97.7637 303.96 98.3184 303.544C98.873 303.128 99.5717 302.92 100.414 302.92C100.99 302.92 101.502 302.995 101.95 303.144C102.409 303.283 102.868 303.517 103.326 303.848C103.422 303.923 103.47 304.003 103.47 304.088C103.47 304.141 103.444 304.211 103.39 304.296L103.198 304.536C103.145 304.621 103.07 304.664 102.974 304.664C102.889 304.664 102.814 304.637 102.75 304.584C102.313 304.275 101.924 304.067 101.582 303.96C101.252 303.853 100.873 303.8 100.446 303.8C99.8597 303.8 99.3904 303.928 99.0384 304.184C98.6864 304.44 98.5104 304.765 98.5104 305.16C98.5104 305.405 98.5904 305.603 98.7504 305.752C98.9104 305.901 99.1397 306.029 99.4384 306.136C99.737 306.232 100.174 306.344 100.75 306.472C101.817 306.707 102.574 306.995 103.022 307.336C103.481 307.677 103.71 308.173 103.71 308.824C103.71 309.539 103.428 310.115 102.862 310.552C102.297 310.989 101.566 311.208 100.67 311.208ZM111.241 309.128C111.315 309.053 111.395 309.016 111.481 309.016C111.555 309.016 111.625 309.048 111.689 309.112L111.897 309.304C111.971 309.379 112.009 309.459 112.009 309.544C112.009 309.608 111.977 309.683 111.913 309.768C111.39 310.291 110.883 310.664 110.393 310.888C109.902 311.101 109.353 311.208 108.745 311.208C107.977 311.208 107.31 311.037 106.745 310.696C106.179 310.355 105.742 309.88 105.433 309.272C105.123 308.653 104.969 307.939 104.969 307.128C104.969 306.307 105.118 305.581 105.417 304.952C105.726 304.312 106.158 303.816 106.713 303.464C107.267 303.101 107.907 302.92 108.633 302.92C109.71 302.92 110.558 303.256 111.177 303.928C111.795 304.6 112.105 305.507 112.105 306.648V306.84C112.094 306.936 112.057 307.011 111.993 307.064C111.939 307.117 111.865 307.144 111.769 307.144H106.041C106.073 308.04 106.307 308.797 106.745 309.416C107.193 310.024 107.859 310.328 108.745 310.328C109.225 310.328 109.646 310.243 110.009 310.072C110.382 309.891 110.793 309.576 111.241 309.128ZM108.633 303.8C107.929 303.8 107.347 304.019 106.889 304.456C106.441 304.883 106.169 305.512 106.073 306.344H111.049C111.027 305.565 110.803 304.947 110.377 304.488C109.95 304.029 109.369 303.8 108.633 303.8ZM116.989 300.328C116.509 300.328 116.168 300.456 115.965 300.712C115.762 300.957 115.661 301.373 115.661 301.96V303.112H117.421C117.634 303.112 117.741 303.219 117.741 303.432V303.592C117.741 303.805 117.634 303.912 117.421 303.912H115.661V310.68C115.661 310.893 115.554 311 115.341 311H114.925C114.712 311 114.605 310.893 114.605 310.68V303.912H113.421C113.208 303.912 113.101 303.805 113.101 303.592V303.432C113.101 303.219 113.208 303.112 113.421 303.112H114.605V301.784C114.605 301.048 114.797 300.472 115.181 300.056C115.576 299.64 116.136 299.432 116.861 299.432C117.266 299.432 117.682 299.491 118.109 299.608C118.312 299.672 118.386 299.805 118.333 300.008L118.269 300.232C118.216 300.381 118.109 300.456 117.949 300.456C117.917 300.456 117.848 300.445 117.741 300.424C117.506 300.36 117.256 300.328 116.989 300.328ZM119.821 301.112C119.608 301.112 119.427 301.037 119.277 300.888C119.139 300.739 119.069 300.557 119.069 300.344C119.069 300.131 119.139 299.955 119.277 299.816C119.427 299.677 119.608 299.608 119.821 299.608C120.045 299.608 120.227 299.677 120.365 299.816C120.515 299.955 120.589 300.131 120.589 300.344C120.589 300.557 120.515 300.739 120.365 300.888C120.227 301.037 120.045 301.112 119.821 301.112ZM119.613 311C119.4 311 119.293 310.893 119.293 310.68V303.432C119.293 303.219 119.4 303.112 119.613 303.112H120.029C120.243 303.112 120.349 303.219 120.349 303.432V310.68C120.349 310.893 120.243 311 120.029 311H119.613ZM126.22 302.92C127.148 302.92 127.846 303.176 128.316 303.688C128.796 304.2 129.036 304.84 129.036 305.608V310.68C129.036 310.893 128.929 311 128.716 311H128.3C128.086 311 127.98 310.893 127.98 310.68V305.96C127.98 305.256 127.809 304.723 127.468 304.36C127.126 303.997 126.636 303.816 125.996 303.816C125.59 303.816 125.217 303.917 124.876 304.12C124.534 304.312 124.262 304.579 124.06 304.92C123.857 305.261 123.756 305.635 123.756 306.04V310.68C123.756 310.893 123.649 311 123.436 311H123.02C122.806 311 122.7 310.893 122.7 310.68V303.432C122.7 303.219 122.806 303.112 123.02 303.112H123.372C123.585 303.112 123.692 303.219 123.692 303.432V304.2C123.958 303.773 124.31 303.453 124.748 303.24C125.185 303.027 125.676 302.92 126.22 302.92ZM134.891 302.92C135.82 302.92 136.518 303.176 136.988 303.688C137.468 304.2 137.708 304.84 137.708 305.608V310.68C137.708 310.893 137.601 311 137.388 311H136.972C136.758 311 136.652 310.893 136.652 310.68V305.96C136.652 305.256 136.481 304.723 136.14 304.36C135.798 303.997 135.308 303.816 134.668 303.816C134.262 303.816 133.889 303.917 133.548 304.12C133.206 304.312 132.934 304.579 132.732 304.92C132.529 305.261 132.428 305.635 132.428 306.04V310.68C132.428 310.893 132.321 311 132.108 311H131.692C131.478 311 131.372 310.893 131.372 310.68V303.432C131.372 303.219 131.478 303.112 131.692 303.112H132.044C132.257 303.112 132.364 303.219 132.364 303.432V304.2C132.63 303.773 132.982 303.453 133.42 303.24C133.857 303.027 134.348 302.92 134.891 302.92ZM149.403 303.8C149.51 303.8 149.585 303.832 149.627 303.896C149.681 303.96 149.697 304.045 149.675 304.152L148.875 307.976C148.801 308.296 148.763 308.573 148.763 308.808C148.763 309.629 149.169 310.04 149.979 310.04C150.374 310.04 150.737 309.907 151.067 309.64C151.398 309.363 151.659 308.968 151.851 308.456C152.043 307.944 152.139 307.341 152.139 306.648C152.139 305.453 151.883 304.44 151.371 303.608C150.859 302.765 150.177 302.131 149.323 301.704C148.481 301.277 147.547 301.064 146.523 301.064C145.35 301.064 144.31 301.341 143.403 301.896C142.497 302.44 141.793 303.192 141.291 304.152C140.79 305.101 140.539 306.163 140.539 307.336C140.539 308.477 140.779 309.501 141.259 310.408C141.739 311.304 142.449 312.008 143.387 312.52C144.326 313.043 145.457 313.304 146.779 313.304H149.867C150.081 313.304 150.187 313.411 150.187 313.624V313.72C150.187 313.933 150.081 314.04 149.867 314.04H146.539C145.131 314.04 143.905 313.752 142.859 313.176C141.825 312.611 141.03 311.821 140.475 310.808C139.931 309.784 139.659 308.616 139.659 307.304C139.659 305.971 139.937 304.776 140.491 303.72C141.046 302.653 141.841 301.821 142.875 301.224C143.91 300.616 145.11 300.312 146.475 300.312C147.745 300.312 148.875 300.573 149.867 301.096C150.859 301.608 151.633 302.339 152.187 303.288C152.742 304.237 153.019 305.341 153.019 306.6C153.019 307.443 152.886 308.179 152.619 308.808C152.353 309.437 151.985 309.928 151.515 310.28C151.046 310.621 150.513 310.792 149.915 310.792C149.233 310.792 148.737 310.627 148.427 310.296C148.129 309.955 147.963 309.571 147.931 309.144C147.59 309.677 147.195 310.088 146.747 310.376C146.299 310.653 145.766 310.792 145.147 310.792C144.443 310.792 143.889 310.584 143.483 310.168C143.078 309.741 142.875 309.149 142.875 308.392C142.875 307.645 143.03 306.909 143.339 306.184C143.659 305.448 144.107 304.845 144.683 304.376C145.259 303.907 145.915 303.672 146.651 303.672C147.206 303.672 147.649 303.795 147.979 304.04C148.321 304.275 148.534 304.595 148.619 305L148.795 304.088C148.827 303.896 148.945 303.8 149.147 303.8H149.403ZM145.275 309.976C145.905 309.976 146.433 309.757 146.859 309.32C147.297 308.872 147.622 308.344 147.835 307.736C148.049 307.117 148.155 306.568 148.155 306.088C148.155 305.544 148.043 305.139 147.819 304.872C147.595 304.595 147.217 304.456 146.683 304.456C146.139 304.456 145.649 304.648 145.211 305.032C144.785 305.416 144.449 305.907 144.203 306.504C143.969 307.101 143.851 307.699 143.851 308.296C143.851 308.861 143.974 309.283 144.219 309.56C144.475 309.837 144.827 309.976 145.275 309.976ZM158.005 300.328C157.525 300.328 157.183 300.456 156.981 300.712C156.778 300.957 156.677 301.373 156.677 301.96V303.112H158.437C158.65 303.112 158.757 303.219 158.757 303.432V303.592C158.757 303.805 158.65 303.912 158.437 303.912H156.677V310.68C156.677 310.893 156.57 311 156.357 311H155.941C155.727 311 155.621 310.893 155.621 310.68V303.912H154.437C154.223 303.912 154.117 303.805 154.117 303.592V303.432C154.117 303.219 154.223 303.112 154.437 303.112H155.621V301.784C155.621 301.048 155.813 300.472 156.197 300.056C156.591 299.64 157.151 299.432 157.877 299.432C158.282 299.432 158.698 299.491 159.125 299.608C159.327 299.672 159.402 299.805 159.349 300.008L159.285 300.232C159.231 300.381 159.125 300.456 158.965 300.456C158.933 300.456 158.863 300.445 158.757 300.424C158.522 300.36 158.271 300.328 158.005 300.328ZM160.837 301.112C160.624 301.112 160.442 301.037 160.293 300.888C160.154 300.739 160.085 300.557 160.085 300.344C160.085 300.131 160.154 299.955 160.293 299.816C160.442 299.677 160.624 299.608 160.837 299.608C161.061 299.608 161.242 299.677 161.381 299.816C161.53 299.955 161.605 300.131 161.605 300.344C161.605 300.557 161.53 300.739 161.381 300.888C161.242 301.037 161.061 301.112 160.837 301.112ZM160.629 311C160.416 311 160.309 310.893 160.309 310.68V303.432C160.309 303.219 160.416 303.112 160.629 303.112H161.045C161.258 303.112 161.365 303.219 161.365 303.432V310.68C161.365 310.893 161.258 311 161.045 311H160.629ZM167.235 302.92C168.163 302.92 168.862 303.176 169.331 303.688C169.811 304.2 170.051 304.84 170.051 305.608V310.68C170.051 310.893 169.945 311 169.731 311H169.315C169.102 311 168.995 310.893 168.995 310.68V305.96C168.995 305.256 168.825 304.723 168.483 304.36C168.142 303.997 167.651 303.816 167.011 303.816C166.606 303.816 166.233 303.917 165.891 304.12C165.55 304.312 165.278 304.579 165.075 304.92C164.873 305.261 164.771 305.635 164.771 306.04V310.68C164.771 310.893 164.665 311 164.451 311H164.035C163.822 311 163.715 310.893 163.715 310.68V303.432C163.715 303.219 163.822 303.112 164.035 303.112H164.387C164.601 303.112 164.707 303.219 164.707 303.432V304.2C164.974 303.773 165.326 303.453 165.763 303.24C166.201 303.027 166.691 302.92 167.235 302.92ZM175.907 302.92C176.835 302.92 177.534 303.176 178.003 303.688C178.483 304.2 178.723 304.84 178.723 305.608V310.68C178.723 310.893 178.616 311 178.403 311H177.987C177.774 311 177.667 310.893 177.667 310.68V305.96C177.667 305.256 177.496 304.723 177.155 304.36C176.814 303.997 176.323 303.816 175.683 303.816C175.278 303.816 174.904 303.917 174.563 304.12C174.222 304.312 173.95 304.579 173.747 304.92C173.544 305.261 173.443 305.635 173.443 306.04V310.68C173.443 310.893 173.336 311 173.123 311H172.707C172.494 311 172.387 310.893 172.387 310.68V303.432C172.387 303.219 172.494 303.112 172.707 303.112H173.059C173.272 303.112 173.379 303.219 173.379 303.432V304.2C173.646 303.773 173.998 303.453 174.435 303.24C174.872 303.027 175.363 302.92 175.907 302.92ZM181.491 311.112C181.267 311.112 181.075 311.032 180.915 310.872C180.755 310.712 180.675 310.52 180.675 310.296C180.675 310.072 180.755 309.88 180.915 309.72C181.075 309.56 181.267 309.48 181.491 309.48C181.715 309.48 181.907 309.56 182.067 309.72C182.227 309.88 182.307 310.072 182.307 310.296C182.307 310.52 182.227 310.712 182.067 310.872C181.907 311.032 181.715 311.112 181.491 311.112ZM187.813 302.92C188.741 302.92 189.44 303.176 189.909 303.688C190.389 304.2 190.629 304.84 190.629 305.608V310.68C190.629 310.893 190.523 311 190.309 311H189.893C189.68 311 189.573 310.893 189.573 310.68V305.96C189.573 305.256 189.403 304.723 189.061 304.36C188.72 303.997 188.229 303.816 187.589 303.816C187.184 303.816 186.811 303.917 186.469 304.12C186.128 304.312 185.856 304.579 185.653 304.92C185.451 305.261 185.349 305.635 185.349 306.04V310.68C185.349 310.893 185.243 311 185.029 311H184.613C184.4 311 184.293 310.893 184.293 310.68V303.432C184.293 303.219 184.4 303.112 184.613 303.112H184.965C185.179 303.112 185.285 303.219 185.285 303.432V304.2C185.552 303.773 185.904 303.453 186.341 303.24C186.779 303.027 187.269 302.92 187.813 302.92ZM196.229 311.208C195.493 311.208 194.837 311.032 194.261 310.68C193.685 310.328 193.237 309.843 192.917 309.224C192.597 308.595 192.437 307.875 192.437 307.064C192.437 306.253 192.597 305.539 192.917 304.92C193.237 304.291 193.685 303.8 194.261 303.448C194.837 303.096 195.493 302.92 196.229 302.92C196.965 302.92 197.621 303.096 198.197 303.448C198.773 303.8 199.221 304.291 199.541 304.92C199.861 305.539 200.021 306.253 200.021 307.064C200.021 307.875 199.861 308.595 199.541 309.224C199.221 309.843 198.773 310.328 198.197 310.68C197.621 311.032 196.965 311.208 196.229 311.208ZM196.229 310.328C197.051 310.328 197.707 310.029 198.197 309.432C198.688 308.824 198.933 308.035 198.933 307.064C198.933 306.093 198.688 305.309 198.197 304.712C197.707 304.104 197.051 303.8 196.229 303.8C195.408 303.8 194.752 304.104 194.261 304.712C193.771 305.309 193.525 306.093 193.525 307.064C193.525 308.035 193.771 308.824 194.261 309.432C194.752 310.029 195.408 310.328 196.229 310.328Z" fill="#474445"/>
<path d="M74 283H269V281H74V283ZM272 286V326H274V286H272ZM269 329H74V331H269V329ZM71 326V286H69V326H71ZM74 329C72.3431 329 71 327.657 71 326H69C69 328.761 71.2386 331 74 331V329ZM272 326C272 327.657 270.657 329 269 329V331C271.761 331 274 328.761 274 326H272ZM269 283C270.657 283 272 284.343 272 286H274C274 283.239 271.761 281 269 281V283ZM74 281C71.2386 281 69 283.239 69 286H71C71 284.343 72.3431 283 74 283V281Z" fill="#C3CCD9"/>
</svg>
