<svg width="344" height="170" viewBox="0 0 344 170" fill="none" xmlns="http://www.w3.org/2000/svg">
<path d="M71.568 54C71.4187 54 71.2973 53.958 71.204 53.874C71.12 53.7807 71.078 53.6593 71.078 53.51V44.55C71.078 44.3913 71.12 44.27 71.204 44.186C71.2973 44.102 71.4187 44.06 71.568 44.06H77.378C77.5367 44.06 77.658 44.102 77.742 44.186C77.826 44.27 77.868 44.3913 77.868 44.55V44.914C77.868 45.0633 77.826 45.1847 77.742 45.278C77.658 45.362 77.5367 45.404 77.378 45.404H72.674V48.204H77.028C77.1867 48.204 77.308 48.246 77.392 48.33C77.476 48.414 77.518 48.5353 77.518 48.694V49.058C77.518 49.2073 77.476 49.3287 77.392 49.422C77.308 49.506 77.1867 49.548 77.028 49.548H72.674V52.656H77.518C77.6767 52.656 77.798 52.698 77.882 52.782C77.966 52.866 78.008 52.9873 78.008 53.146V53.51C78.008 53.6593 77.966 53.7807 77.882 53.874C77.798 53.958 77.6767 54 77.518 54H71.568ZM86.9143 46.888C87.6516 46.888 88.221 47.098 88.6223 47.518C89.0236 47.9287 89.2243 48.484 89.2243 49.184V53.51C89.2243 53.6593 89.1823 53.7807 89.0983 53.874C89.0143 53.958 88.893 54 88.7343 54H88.2303C88.081 54 87.9596 53.958 87.8663 53.874C87.7823 53.7807 87.7403 53.6593 87.7403 53.51V49.632C87.7403 49.1747 87.6376 48.8153 87.4323 48.554C87.227 48.2927 86.9143 48.162 86.4943 48.162C86.065 48.162 85.7243 48.3067 85.4723 48.596C85.2296 48.8853 85.1083 49.2587 85.1083 49.716V53.51C85.1083 53.6593 85.0663 53.7807 84.9823 53.874C84.8983 53.958 84.777 54 84.6183 54H84.1143C83.965 54 83.8436 53.958 83.7503 53.874C83.6663 53.7807 83.6243 53.6593 83.6243 53.51V49.632C83.6243 49.1747 83.5216 48.8153 83.3163 48.554C83.1203 48.2927 82.8123 48.162 82.3923 48.162C81.9816 48.162 81.6503 48.2973 81.3983 48.568C81.1463 48.8387 81.011 49.1887 80.9923 49.618V53.51C80.9923 53.6593 80.9503 53.7807 80.8663 53.874C80.7823 53.958 80.661 54 80.5023 54H79.9983C79.849 54 79.7276 53.958 79.6343 53.874C79.5503 53.7807 79.5083 53.6593 79.5083 53.51V47.588C79.5083 47.4293 79.5503 47.308 79.6343 47.224C79.7276 47.14 79.849 47.098 79.9983 47.098H80.4043C80.563 47.098 80.6843 47.14 80.7683 47.224C80.8523 47.308 80.8943 47.4293 80.8943 47.588V47.896C81.3236 47.224 81.9863 46.888 82.8823 46.888C83.3303 46.888 83.7223 46.9813 84.0583 47.168C84.3943 47.3547 84.651 47.616 84.8283 47.952C85.3043 47.2427 85.9996 46.888 86.9143 46.888ZM93.8363 46.888C94.7696 46.888 95.4883 47.1073 95.9923 47.546C96.4963 47.9753 96.7483 48.5493 96.7483 49.268V53.51C96.7483 53.6593 96.7063 53.7807 96.6223 53.874C96.5383 53.958 96.417 54 96.2583 54H95.8943C95.745 54 95.6236 53.958 95.5303 53.874C95.4463 53.7807 95.4043 53.6593 95.4043 53.51V53.202C95.1803 53.5287 94.8723 53.7807 94.4803 53.958C94.0883 54.1353 93.631 54.224 93.1083 54.224C92.3896 54.224 91.797 54.0653 91.3303 53.748C90.873 53.4213 90.6443 52.9313 90.6443 52.278C90.6443 51.55 90.915 51.0133 91.4563 50.668C92.007 50.3133 92.7676 50.0473 93.7383 49.87L95.3203 49.576V49.324C95.3203 48.9413 95.185 48.6473 94.9143 48.442C94.653 48.2273 94.303 48.12 93.8643 48.12C93.491 48.12 93.1643 48.1853 92.8843 48.316C92.6136 48.4373 92.3196 48.6427 92.0023 48.932C91.881 49.0347 91.7643 49.086 91.6523 49.086C91.5403 49.086 91.4236 49.0347 91.3023 48.932L91.0783 48.736C90.957 48.624 90.8963 48.5027 90.8963 48.372C90.8963 48.2507 90.9523 48.134 91.0643 48.022C91.4656 47.6393 91.8903 47.3547 92.3383 47.168C92.7863 46.9813 93.2856 46.888 93.8363 46.888ZM93.3183 53.034C93.8783 53.034 94.3496 52.8847 94.7323 52.586C95.1243 52.2873 95.3203 51.858 95.3203 51.298V50.654L94.1023 50.906C93.421 51.046 92.917 51.2047 92.5903 51.382C92.2636 51.5593 92.1003 51.83 92.1003 52.194C92.1003 52.4553 92.2076 52.6607 92.4223 52.81C92.637 52.9593 92.9356 53.034 93.3183 53.034ZM99.1998 45.754C98.9292 45.754 98.7005 45.6653 98.5138 45.488C98.3272 45.3013 98.2338 45.082 98.2338 44.83C98.2338 44.5687 98.3272 44.3493 98.5138 44.172C98.7005 43.9947 98.9292 43.906 99.1998 43.906C99.4705 43.906 99.6992 43.9947 99.8858 44.172C100.073 44.3493 100.166 44.5687 100.166 44.83C100.166 45.082 100.073 45.3013 99.8858 45.488C99.6992 45.6653 99.4705 45.754 99.1998 45.754ZM98.9338 54C98.7845 54 98.6632 53.958 98.5698 53.874C98.4858 53.7807 98.4438 53.6593 98.4438 53.51V47.588C98.4438 47.4293 98.4858 47.308 98.5698 47.224C98.6632 47.14 98.7845 47.098 98.9338 47.098H99.4378C99.5965 47.098 99.7178 47.14 99.8018 47.224C99.8858 47.308 99.9278 47.4293 99.9278 47.588V53.51C99.9278 53.6593 99.8858 53.7807 99.8018 53.874C99.7178 53.958 99.5965 54 99.4378 54H98.9338ZM102.189 54C102.04 54 101.918 53.958 101.825 53.874C101.741 53.7807 101.699 53.6593 101.699 53.51V44.55C101.699 44.3913 101.741 44.27 101.825 44.186C101.918 44.102 102.04 44.06 102.189 44.06H102.693C102.852 44.06 102.973 44.102 103.057 44.186C103.141 44.27 103.183 44.3913 103.183 44.55V53.51C103.183 53.6593 103.141 53.7807 103.057 53.874C102.973 53.958 102.852 54 102.693 54H102.189ZM110.995 46.888C111.928 46.888 112.647 47.1073 113.151 47.546C113.655 47.9753 113.907 48.5493 113.907 49.268V53.51C113.907 53.6593 113.865 53.7807 113.781 53.874C113.697 53.958 113.575 54 113.417 54H113.053C112.903 54 112.782 53.958 112.689 53.874C112.605 53.7807 112.563 53.6593 112.563 53.51V53.202C112.339 53.5287 112.031 53.7807 111.639 53.958C111.247 54.1353 110.789 54.224 110.267 54.224C109.548 54.224 108.955 54.0653 108.489 53.748C108.031 53.4213 107.803 52.9313 107.803 52.278C107.803 51.55 108.073 51.0133 108.615 50.668C109.165 50.3133 109.926 50.0473 110.897 49.87L112.479 49.576V49.324C112.479 48.9413 112.343 48.6473 112.073 48.442C111.811 48.2273 111.461 48.12 111.023 48.12C110.649 48.12 110.323 48.1853 110.043 48.316C109.772 48.4373 109.478 48.6427 109.161 48.932C109.039 49.0347 108.923 49.086 108.811 49.086C108.699 49.086 108.582 49.0347 108.461 48.932L108.237 48.736C108.115 48.624 108.055 48.5027 108.055 48.372C108.055 48.2507 108.111 48.134 108.223 48.022C108.624 47.6393 109.049 47.3547 109.497 47.168C109.945 46.9813 110.444 46.888 110.995 46.888ZM110.477 53.034C111.037 53.034 111.508 52.8847 111.891 52.586C112.283 52.2873 112.479 51.858 112.479 51.298V50.654L111.261 50.906C110.579 51.046 110.075 51.2047 109.749 51.382C109.422 51.5593 109.259 51.83 109.259 52.194C109.259 52.4553 109.366 52.6607 109.581 52.81C109.795 52.9593 110.094 53.034 110.477 53.034ZM120.46 44.536C120.46 44.3773 120.502 44.256 120.586 44.172C120.679 44.088 120.801 44.046 120.95 44.046H121.454C121.613 44.046 121.734 44.088 121.818 44.172C121.902 44.256 121.944 44.3773 121.944 44.536V53.51C121.944 53.6593 121.902 53.7807 121.818 53.874C121.734 53.958 121.613 54 121.454 54H121.048C120.899 54 120.777 53.958 120.684 53.874C120.6 53.7807 120.558 53.6593 120.558 53.51V53.02C120.073 53.804 119.312 54.196 118.276 54.196C117.697 54.196 117.175 54.0467 116.708 53.748C116.251 53.4493 115.891 53.0247 115.63 52.474C115.369 51.9233 115.238 51.284 115.238 50.556C115.238 49.8373 115.369 49.2027 115.63 48.652C115.901 48.1013 116.269 47.6767 116.736 47.378C117.203 47.0793 117.725 46.93 118.304 46.93C119.256 46.93 119.975 47.2613 120.46 47.924V44.536ZM118.584 52.922C119.153 52.922 119.62 52.712 119.984 52.292C120.348 51.8627 120.53 51.284 120.53 50.556C120.53 49.828 120.348 49.254 119.984 48.834C119.62 48.414 119.153 48.204 118.584 48.204C118.033 48.204 117.59 48.4187 117.254 48.848C116.918 49.2773 116.75 49.8467 116.75 50.556C116.75 51.2747 116.913 51.8487 117.24 52.278C117.576 52.7073 118.024 52.922 118.584 52.922ZM128.526 44.536C128.526 44.3773 128.568 44.256 128.652 44.172C128.746 44.088 128.867 44.046 129.016 44.046H129.52C129.679 44.046 129.8 44.088 129.884 44.172C129.968 44.256 130.01 44.3773 130.01 44.536V53.51C130.01 53.6593 129.968 53.7807 129.884 53.874C129.8 53.958 129.679 54 129.52 54H129.114C128.965 54 128.844 53.958 128.75 53.874C128.666 53.7807 128.624 53.6593 128.624 53.51V53.02C128.139 53.804 127.378 54.196 126.342 54.196C125.764 54.196 125.241 54.0467 124.774 53.748C124.317 53.4493 123.958 53.0247 123.696 52.474C123.435 51.9233 123.304 51.284 123.304 50.556C123.304 49.8373 123.435 49.2027 123.696 48.652C123.967 48.1013 124.336 47.6767 124.802 47.378C125.269 47.0793 125.792 46.93 126.37 46.93C127.322 46.93 128.041 47.2613 128.526 47.924V44.536ZM126.65 52.922C127.22 52.922 127.686 52.712 128.05 52.292C128.414 51.8627 128.596 51.284 128.596 50.556C128.596 49.828 128.414 49.254 128.05 48.834C127.686 48.414 127.22 48.204 126.65 48.204C126.1 48.204 125.656 48.4187 125.32 48.848C124.984 49.2773 124.816 49.8467 124.816 50.556C124.816 51.2747 124.98 51.8487 125.306 52.278C125.642 52.7073 126.09 52.922 126.65 52.922ZM134.843 47.028C135.048 47.028 135.258 47.0513 135.473 47.098C135.725 47.154 135.851 47.3033 135.851 47.546C135.851 47.6113 135.846 47.658 135.837 47.686L135.767 48.022C135.711 48.2833 135.571 48.414 135.347 48.414L135.221 48.4C135.053 48.372 134.904 48.358 134.773 48.358C134.306 48.358 133.928 48.5447 133.639 48.918C133.359 49.282 133.219 49.7907 133.219 50.444V53.51C133.219 53.6593 133.177 53.7807 133.093 53.874C133.009 53.958 132.888 54 132.729 54H132.225C132.076 54 131.954 53.958 131.861 53.874C131.777 53.7807 131.735 53.6593 131.735 53.51V47.588C131.735 47.4293 131.777 47.308 131.861 47.224C131.954 47.14 132.076 47.098 132.225 47.098H132.631C132.79 47.098 132.911 47.14 132.995 47.224C133.079 47.308 133.121 47.4293 133.121 47.588V48.134C133.289 47.7887 133.518 47.518 133.807 47.322C134.096 47.126 134.442 47.028 134.843 47.028ZM141.544 52.236C141.665 52.1333 141.782 52.082 141.894 52.082C142.006 52.082 142.123 52.1427 142.244 52.264L142.44 52.474C142.543 52.5953 142.594 52.712 142.594 52.824C142.594 52.9453 142.533 53.062 142.412 53.174C141.983 53.5473 141.553 53.8133 141.124 53.972C140.704 54.1307 140.237 54.21 139.724 54.21C139.005 54.21 138.38 54.0607 137.848 53.762C137.325 53.4633 136.919 53.0433 136.63 52.502C136.35 51.9513 136.21 51.3167 136.21 50.598C136.21 49.8887 136.345 49.254 136.616 48.694C136.896 48.1247 137.288 47.6813 137.792 47.364C138.305 47.0467 138.903 46.888 139.584 46.888C140.601 46.888 141.385 47.1913 141.936 47.798C142.487 48.3953 142.762 49.2213 142.762 50.276V50.402C142.753 50.5513 142.706 50.668 142.622 50.752C142.538 50.836 142.417 50.878 142.258 50.878H137.666C137.722 51.494 137.923 51.998 138.268 52.39C138.623 52.7727 139.117 52.964 139.752 52.964C140.097 52.964 140.401 52.9127 140.662 52.81C140.923 52.698 141.217 52.5067 141.544 52.236ZM139.556 48.064C139.043 48.064 138.627 48.218 138.31 48.526C138.002 48.8247 137.801 49.2493 137.708 49.8H141.306C141.269 49.2587 141.101 48.834 140.802 48.526C140.503 48.218 140.088 48.064 139.556 48.064ZM146.809 54.21C146.24 54.21 145.731 54.14 145.283 54C144.844 53.8507 144.396 53.594 143.939 53.23C143.799 53.1273 143.729 53.0107 143.729 52.88C143.729 52.7773 143.78 52.6653 143.883 52.544L144.093 52.306C144.205 52.1753 144.326 52.11 144.457 52.11C144.56 52.11 144.672 52.1567 144.793 52.25C145.185 52.5393 145.53 52.74 145.829 52.852C146.128 52.9547 146.464 53.006 146.837 53.006C147.238 53.006 147.565 52.9267 147.817 52.768C148.078 52.6 148.209 52.376 148.209 52.096C148.209 51.8813 148.134 51.7133 147.985 51.592C147.845 51.4613 147.658 51.3633 147.425 51.298C147.192 51.2233 146.846 51.1393 146.389 51.046C145.745 50.906 145.241 50.7567 144.877 50.598C144.522 50.43 144.266 50.22 144.107 49.968C143.948 49.716 143.869 49.394 143.869 49.002C143.869 48.6007 143.981 48.2413 144.205 47.924C144.438 47.6067 144.76 47.3547 145.171 47.168C145.591 46.9813 146.081 46.888 146.641 46.888C147.145 46.888 147.593 46.944 147.985 47.056C148.386 47.168 148.778 47.3593 149.161 47.63C149.31 47.742 149.385 47.868 149.385 48.008C149.385 48.1013 149.338 48.2087 149.245 48.33L149.063 48.554C148.96 48.6847 148.834 48.75 148.685 48.75C148.573 48.75 148.466 48.7127 148.363 48.638C148.055 48.4327 147.77 48.2927 147.509 48.218C147.248 48.134 146.954 48.092 146.627 48.092C146.226 48.092 145.904 48.1713 145.661 48.33C145.418 48.4887 145.297 48.694 145.297 48.946C145.297 49.114 145.353 49.2493 145.465 49.352C145.586 49.4453 145.754 49.5293 145.969 49.604C146.193 49.6693 146.543 49.7533 147.019 49.856C147.663 49.996 148.172 50.1547 148.545 50.332C148.928 50.5 149.208 50.7193 149.385 50.99C149.572 51.2513 149.665 51.592 149.665 52.012C149.665 52.6653 149.404 53.1973 148.881 53.608C148.368 54.0093 147.677 54.21 146.809 54.21ZM153.604 54.21C153.035 54.21 152.526 54.14 152.078 54C151.639 53.8507 151.191 53.594 150.734 53.23C150.594 53.1273 150.524 53.0107 150.524 52.88C150.524 52.7773 150.575 52.6653 150.678 52.544L150.888 52.306C151 52.1753 151.121 52.11 151.252 52.11C151.355 52.11 151.467 52.1567 151.588 52.25C151.98 52.5393 152.325 52.74 152.624 52.852C152.923 52.9547 153.259 53.006 153.632 53.006C154.033 53.006 154.36 52.9267 154.612 52.768C154.873 52.6 155.004 52.376 155.004 52.096C155.004 51.8813 154.929 51.7133 154.78 51.592C154.64 51.4613 154.453 51.3633 154.22 51.298C153.987 51.2233 153.641 51.1393 153.184 51.046C152.54 50.906 152.036 50.7567 151.672 50.598C151.317 50.43 151.061 50.22 150.902 49.968C150.743 49.716 150.664 49.394 150.664 49.002C150.664 48.6007 150.776 48.2413 151 47.924C151.233 47.6067 151.555 47.3547 151.966 47.168C152.386 46.9813 152.876 46.888 153.436 46.888C153.94 46.888 154.388 46.944 154.78 47.056C155.181 47.168 155.573 47.3593 155.956 47.63C156.105 47.742 156.18 47.868 156.18 48.008C156.18 48.1013 156.133 48.2087 156.04 48.33L155.858 48.554C155.755 48.6847 155.629 48.75 155.48 48.75C155.368 48.75 155.261 48.7127 155.158 48.638C154.85 48.4327 154.565 48.2927 154.304 48.218C154.043 48.134 153.749 48.092 153.422 48.092C153.021 48.092 152.699 48.1713 152.456 48.33C152.213 48.4887 152.092 48.694 152.092 48.946C152.092 49.114 152.148 49.2493 152.26 49.352C152.381 49.4453 152.549 49.5293 152.764 49.604C152.988 49.6693 153.338 49.7533 153.814 49.856C154.458 49.996 154.967 50.1547 155.34 50.332C155.723 50.5 156.003 50.7193 156.18 50.99C156.367 51.2513 156.46 51.592 156.46 52.012C156.46 52.6653 156.199 53.1973 155.676 53.608C155.163 54.0093 154.472 54.21 153.604 54.21Z" fill="#474445"/>
<path d="M70 66C70 63.7909 71.7909 62 74 62H269C271.209 62 273 63.7909 273 66V106C273 108.209 271.209 110 269 110H74C71.7909 110 70 108.209 70 106V66Z" fill="white"/>
<path d="M74 63H269V61H74V63ZM272 66V106H274V66H272ZM269 109H74V111H269V109ZM71 106V66H69V106H71ZM74 109C72.3431 109 71 107.657 71 106H69C69 108.761 71.2386 111 74 111V109ZM272 106C272 107.657 270.657 109 269 109V111C271.761 111 274 108.761 274 106H272ZM269 63C270.657 63 272 64.3431 272 66H274C274 63.2386 271.761 61 269 61V63ZM74 61C71.2386 61 69 63.2386 69 66H71C71 64.3431 72.3431 63 74 63V61Z" fill="#C3CCD9"/>
<path d="M75.196 124.596C75.252 124.54 75.312 124.512 75.376 124.512C75.432 124.512 75.484 124.536 75.532 124.584L75.688 124.728C75.744 124.784 75.772 124.844 75.772 124.908C75.772 124.956 75.748 125.012 75.7 125.076C75.308 125.468 74.928 125.748 74.56 125.916C74.192 126.076 73.78 126.156 73.324 126.156C72.748 126.156 72.248 126.028 71.824 125.772C71.4 125.516 71.072 125.16 70.84 124.704C70.608 124.24 70.492 123.704 70.492 123.096C70.492 122.48 70.604 121.936 70.828 121.464C71.06 120.984 71.384 120.612 71.8 120.348C72.216 120.076 72.696 119.94 73.24 119.94C74.048 119.94 74.684 120.192 75.148 120.696C75.612 121.2 75.844 121.88 75.844 122.736V122.88C75.836 122.952 75.808 123.008 75.76 123.048C75.72 123.088 75.664 123.108 75.592 123.108H71.296C71.32 123.78 71.496 124.348 71.824 124.812C72.16 125.268 72.66 125.496 73.324 125.496C73.684 125.496 74 125.432 74.272 125.304C74.552 125.168 74.86 124.932 75.196 124.596ZM73.24 120.6C72.712 120.6 72.276 120.764 71.932 121.092C71.596 121.412 71.392 121.884 71.32 122.508H75.052C75.036 121.924 74.868 121.46 74.548 121.116C74.228 120.772 73.792 120.6 73.24 120.6ZM77.587 126.084C77.419 126.084 77.275 126.024 77.155 125.904C77.035 125.784 76.975 125.64 76.975 125.472C76.975 125.304 77.035 125.16 77.155 125.04C77.275 124.92 77.419 124.86 77.587 124.86C77.755 124.86 77.899 124.92 78.019 125.04C78.139 125.16 78.199 125.304 78.199 125.472C78.199 125.64 78.139 125.784 78.019 125.904C77.899 126.024 77.755 126.084 77.587 126.084ZM83.8196 120.324C83.8196 120.164 83.8996 120.084 84.0596 120.084H84.3116C84.4716 120.084 84.5516 120.164 84.5516 120.324V125.94C84.5516 126.684 84.3276 127.268 83.8796 127.692C83.4316 128.124 82.8036 128.34 81.9956 128.34C81.1236 128.34 80.3196 128.092 79.5836 127.596C79.5036 127.548 79.4636 127.488 79.4636 127.416C79.4636 127.36 79.4796 127.312 79.5116 127.272L79.6556 127.068C79.7036 126.988 79.7676 126.948 79.8476 126.948C79.8796 126.948 79.9276 126.964 79.9916 126.996C80.3436 127.22 80.6716 127.388 80.9756 127.5C81.2876 127.612 81.6276 127.668 81.9956 127.668C82.5236 127.668 82.9516 127.52 83.2796 127.224C83.6076 126.936 83.7716 126.488 83.7716 125.88V124.92C83.3396 125.616 82.6836 125.964 81.8036 125.964C81.2916 125.964 80.8396 125.836 80.4476 125.58C80.0556 125.316 79.7516 124.956 79.5356 124.5C79.3276 124.044 79.2236 123.528 79.2236 122.952C79.2236 122.376 79.3276 121.86 79.5356 121.404C79.7516 120.948 80.0556 120.592 80.4476 120.336C80.8396 120.072 81.2916 119.94 81.8036 119.94C82.2676 119.94 82.6676 120.04 83.0036 120.24C83.3476 120.432 83.6196 120.708 83.8196 121.068V120.324ZM81.8876 125.292C82.4636 125.292 82.9236 125.076 83.2676 124.644C83.6116 124.204 83.7836 123.64 83.7836 122.952C83.7836 122.264 83.6116 121.704 83.2676 121.272C82.9236 120.832 82.4636 120.612 81.8876 120.612C81.3036 120.612 80.8476 120.828 80.5196 121.26C80.1996 121.692 80.0396 122.256 80.0396 122.952C80.0396 123.648 80.1996 124.212 80.5196 124.644C80.8476 125.076 81.3036 125.292 81.8876 125.292ZM86.6573 126.084C86.4893 126.084 86.3453 126.024 86.2253 125.904C86.1053 125.784 86.0453 125.64 86.0453 125.472C86.0453 125.304 86.1053 125.16 86.2253 125.04C86.3453 124.92 86.4893 124.86 86.6573 124.86C86.8253 124.86 86.9693 124.92 87.0893 125.04C87.2093 125.16 87.2693 125.304 87.2693 125.472C87.2693 125.64 87.2093 125.784 87.0893 125.904C86.9693 126.024 86.8253 126.084 86.6573 126.084ZM94.0475 119.94C94.7435 119.94 95.2675 120.132 95.6195 120.516C95.9795 120.9 96.1595 121.38 96.1595 121.956V125.76C96.1595 125.92 96.0795 126 95.9195 126H95.6075C95.4475 126 95.3675 125.92 95.3675 125.76V122.22C95.3675 121.692 95.2395 121.292 94.9835 121.02C94.7275 120.748 94.3595 120.612 93.8795 120.612C93.5755 120.612 93.2955 120.688 93.0395 120.84C92.7835 120.984 92.5795 121.184 92.4275 121.44C92.2755 121.696 92.1995 121.976 92.1995 122.28V125.76C92.1995 125.92 92.1195 126 91.9595 126H91.6475C91.4875 126 91.4075 125.92 91.4075 125.76V120.324C91.4075 120.164 91.4875 120.084 91.6475 120.084H91.9115C92.0715 120.084 92.1515 120.164 92.1515 120.324V120.9C92.3515 120.58 92.6155 120.34 92.9435 120.18C93.2715 120.02 93.6395 119.94 94.0475 119.94ZM100.191 119.94C100.919 119.94 101.487 120.116 101.895 120.468C102.303 120.812 102.507 121.268 102.507 121.836V125.76C102.507 125.92 102.427 126 102.267 126H102.027C101.867 126 101.787 125.92 101.787 125.76V125.22C101.587 125.54 101.303 125.78 100.935 125.94C100.575 126.1 100.171 126.18 99.7234 126.18C99.0994 126.18 98.5914 126.048 98.1994 125.784C97.8074 125.52 97.6114 125.112 97.6114 124.56C97.6114 124.12 97.7354 123.768 97.9834 123.504C98.2314 123.232 98.5554 123.028 98.9554 122.892C99.3554 122.748 99.8554 122.62 100.455 122.508L101.751 122.28V121.896C101.751 121.488 101.611 121.172 101.331 120.948C101.051 120.716 100.683 120.6 100.227 120.6C99.8834 120.6 99.5714 120.664 99.2914 120.792C99.0114 120.92 98.7114 121.14 98.3914 121.452C98.3354 121.508 98.2754 121.536 98.2114 121.536C98.1554 121.536 98.1034 121.512 98.0554 121.464L97.8994 121.32C97.8434 121.264 97.8154 121.204 97.8154 121.14C97.8154 121.068 97.8434 121.004 97.8994 120.948C98.2354 120.596 98.5874 120.34 98.9554 120.18C99.3314 120.02 99.7434 119.94 100.191 119.94ZM99.7594 125.52C100.335 125.52 100.811 125.368 101.187 125.064C101.563 124.76 101.751 124.372 101.751 123.9V122.892L100.635 123.108C100.115 123.212 99.7034 123.312 99.3994 123.408C99.0954 123.504 98.8514 123.644 98.6674 123.828C98.4834 124.012 98.3914 124.252 98.3914 124.548C98.3914 124.852 98.5114 125.092 98.7514 125.268C98.9994 125.436 99.3354 125.52 99.7594 125.52ZM110.275 119.94C110.915 119.94 111.403 120.124 111.739 120.492C112.083 120.852 112.255 121.316 112.255 121.884V125.76C112.255 125.92 112.175 126 112.015 126H111.703C111.543 126 111.463 125.92 111.463 125.76V122.1C111.463 121.62 111.351 121.252 111.127 120.996C110.911 120.74 110.587 120.612 110.155 120.612C109.699 120.612 109.335 120.764 109.063 121.068C108.791 121.372 108.655 121.764 108.655 122.244V125.76C108.655 125.92 108.575 126 108.415 126H108.103C107.943 126 107.863 125.92 107.863 125.76V122.1C107.863 121.62 107.751 121.252 107.527 120.996C107.311 120.74 106.983 120.612 106.543 120.612C106.135 120.612 105.795 120.74 105.523 120.996C105.259 121.252 105.103 121.588 105.055 122.004V125.76C105.055 125.92 104.975 126 104.815 126H104.503C104.343 126 104.263 125.92 104.263 125.76V120.324C104.263 120.164 104.343 120.084 104.503 120.084H104.767C104.927 120.084 105.007 120.164 105.007 120.324V120.816C105.367 120.232 105.939 119.94 106.723 119.94C107.131 119.94 107.479 120.032 107.767 120.216C108.063 120.392 108.283 120.632 108.427 120.936C108.851 120.272 109.467 119.94 110.275 119.94ZM118.309 124.596C118.365 124.54 118.425 124.512 118.489 124.512C118.545 124.512 118.597 124.536 118.645 124.584L118.801 124.728C118.857 124.784 118.885 124.844 118.885 124.908C118.885 124.956 118.861 125.012 118.813 125.076C118.421 125.468 118.041 125.748 117.673 125.916C117.305 126.076 116.893 126.156 116.437 126.156C115.861 126.156 115.361 126.028 114.937 125.772C114.513 125.516 114.185 125.16 113.953 124.704C113.721 124.24 113.605 123.704 113.605 123.096C113.605 122.48 113.717 121.936 113.941 121.464C114.173 120.984 114.497 120.612 114.913 120.348C115.329 120.076 115.809 119.94 116.353 119.94C117.161 119.94 117.797 120.192 118.261 120.696C118.725 121.2 118.957 121.88 118.957 122.736V122.88C118.949 122.952 118.921 123.008 118.873 123.048C118.833 123.088 118.777 123.108 118.705 123.108H114.409C114.433 123.78 114.609 124.348 114.937 124.812C115.273 125.268 115.773 125.496 116.437 125.496C116.797 125.496 117.113 125.432 117.385 125.304C117.665 125.168 117.973 124.932 118.309 124.596ZM116.353 120.6C115.825 120.6 115.389 120.764 115.045 121.092C114.709 121.412 114.505 121.884 114.433 122.508H118.165C118.149 121.924 117.981 121.46 117.661 121.116C117.341 120.772 116.905 120.6 116.353 120.6ZM127.396 120.6C127.476 120.6 127.532 120.624 127.564 120.672C127.604 120.72 127.616 120.784 127.6 120.864L127 123.732C126.944 123.972 126.916 124.18 126.916 124.356C126.916 124.972 127.22 125.28 127.828 125.28C128.124 125.28 128.396 125.18 128.644 124.98C128.892 124.772 129.088 124.476 129.232 124.092C129.376 123.708 129.448 123.256 129.448 122.736C129.448 121.84 129.256 121.08 128.872 120.456C128.488 119.824 127.976 119.348 127.336 119.028C126.704 118.708 126.004 118.548 125.236 118.548C124.356 118.548 123.576 118.756 122.896 119.172C122.216 119.58 121.688 120.144 121.312 120.864C120.936 121.576 120.748 122.372 120.748 123.252C120.748 124.108 120.928 124.876 121.288 125.556C121.648 126.228 122.18 126.756 122.884 127.14C123.588 127.532 124.436 127.728 125.428 127.728H127.744C127.904 127.728 127.984 127.808 127.984 127.968V128.04C127.984 128.2 127.904 128.28 127.744 128.28H125.248C124.192 128.28 123.272 128.064 122.488 127.632C121.712 127.208 121.116 126.616 120.7 125.856C120.292 125.088 120.088 124.212 120.088 123.228C120.088 122.228 120.296 121.332 120.712 120.54C121.128 119.74 121.724 119.116 122.5 118.668C123.276 118.212 124.176 117.984 125.2 117.984C126.152 117.984 127 118.18 127.744 118.572C128.488 118.956 129.068 119.504 129.484 120.216C129.9 120.928 130.108 121.756 130.108 122.7C130.108 123.332 130.008 123.884 129.808 124.356C129.608 124.828 129.332 125.196 128.98 125.46C128.628 125.716 128.228 125.844 127.78 125.844C127.268 125.844 126.896 125.72 126.664 125.472C126.44 125.216 126.316 124.928 126.292 124.608C126.036 125.008 125.74 125.316 125.404 125.532C125.068 125.74 124.668 125.844 124.204 125.844C123.676 125.844 123.26 125.688 122.956 125.376C122.652 125.056 122.5 124.612 122.5 124.044C122.5 123.484 122.616 122.932 122.848 122.388C123.088 121.836 123.424 121.384 123.856 121.032C124.288 120.68 124.78 120.504 125.332 120.504C125.748 120.504 126.08 120.596 126.328 120.78C126.584 120.956 126.744 121.196 126.808 121.5L126.94 120.816C126.964 120.672 127.052 120.6 127.204 120.6H127.396ZM124.3 125.232C124.772 125.232 125.168 125.068 125.488 124.74C125.816 124.404 126.06 124.008 126.22 123.552C126.38 123.088 126.46 122.676 126.46 122.316C126.46 121.908 126.376 121.604 126.208 121.404C126.04 121.196 125.756 121.092 125.356 121.092C124.948 121.092 124.58 121.236 124.252 121.524C123.932 121.812 123.68 122.18 123.496 122.628C123.32 123.076 123.232 123.524 123.232 123.972C123.232 124.396 123.324 124.712 123.508 124.92C123.7 125.128 123.964 125.232 124.3 125.232ZM137.603 119.94C138.243 119.94 138.731 120.124 139.067 120.492C139.411 120.852 139.583 121.316 139.583 121.884V125.76C139.583 125.92 139.503 126 139.343 126H139.031C138.871 126 138.791 125.92 138.791 125.76V122.1C138.791 121.62 138.679 121.252 138.455 120.996C138.239 120.74 137.915 120.612 137.483 120.612C137.027 120.612 136.663 120.764 136.391 121.068C136.119 121.372 135.983 121.764 135.983 122.244V125.76C135.983 125.92 135.903 126 135.743 126H135.431C135.271 126 135.191 125.92 135.191 125.76V122.1C135.191 121.62 135.079 121.252 134.855 120.996C134.639 120.74 134.311 120.612 133.871 120.612C133.463 120.612 133.123 120.74 132.851 120.996C132.587 121.252 132.431 121.588 132.383 122.004V125.76C132.383 125.92 132.303 126 132.143 126H131.831C131.671 126 131.591 125.92 131.591 125.76V120.324C131.591 120.164 131.671 120.084 131.831 120.084H132.095C132.255 120.084 132.335 120.164 132.335 120.324V120.816C132.695 120.232 133.267 119.94 134.051 119.94C134.459 119.94 134.807 120.032 135.095 120.216C135.391 120.392 135.611 120.632 135.755 120.936C136.179 120.272 136.795 119.94 137.603 119.94ZM143.609 119.94C144.337 119.94 144.905 120.116 145.313 120.468C145.721 120.812 145.925 121.268 145.925 121.836V125.76C145.925 125.92 145.845 126 145.685 126H145.445C145.285 126 145.205 125.92 145.205 125.76V125.22C145.005 125.54 144.721 125.78 144.353 125.94C143.993 126.1 143.589 126.18 143.141 126.18C142.517 126.18 142.009 126.048 141.617 125.784C141.225 125.52 141.029 125.112 141.029 124.56C141.029 124.12 141.153 123.768 141.401 123.504C141.649 123.232 141.973 123.028 142.373 122.892C142.773 122.748 143.273 122.62 143.873 122.508L145.169 122.28V121.896C145.169 121.488 145.029 121.172 144.749 120.948C144.469 120.716 144.101 120.6 143.645 120.6C143.301 120.6 142.989 120.664 142.709 120.792C142.429 120.92 142.129 121.14 141.809 121.452C141.753 121.508 141.693 121.536 141.629 121.536C141.573 121.536 141.521 121.512 141.473 121.464L141.317 121.32C141.261 121.264 141.233 121.204 141.233 121.14C141.233 121.068 141.261 121.004 141.317 120.948C141.653 120.596 142.005 120.34 142.373 120.18C142.749 120.02 143.161 119.94 143.609 119.94ZM143.177 125.52C143.753 125.52 144.229 125.368 144.605 125.064C144.981 124.76 145.169 124.372 145.169 123.9V122.892L144.053 123.108C143.533 123.212 143.121 123.312 142.817 123.408C142.513 123.504 142.269 123.644 142.085 123.828C141.901 124.012 141.809 124.252 141.809 124.548C141.809 124.852 141.929 125.092 142.169 125.268C142.417 125.436 142.753 125.52 143.177 125.52ZM148.077 118.584C147.917 118.584 147.781 118.528 147.669 118.416C147.565 118.304 147.513 118.168 147.513 118.008C147.513 117.848 147.565 117.716 147.669 117.612C147.781 117.508 147.917 117.456 148.077 117.456C148.245 117.456 148.381 117.508 148.485 117.612C148.597 117.716 148.653 117.848 148.653 118.008C148.653 118.168 148.597 118.304 148.485 118.416C148.381 118.528 148.245 118.584 148.077 118.584ZM147.921 126C147.761 126 147.681 125.92 147.681 125.76V120.324C147.681 120.164 147.761 120.084 147.921 120.084H148.233C148.393 120.084 148.473 120.164 148.473 120.324V125.76C148.473 125.92 148.393 126 148.233 126H147.921ZM150.488 126C150.328 126 150.248 125.92 150.248 125.76V117.72C150.248 117.56 150.328 117.48 150.488 117.48H150.8C150.96 117.48 151.04 117.56 151.04 117.72V125.76C151.04 125.92 150.96 126 150.8 126H150.488ZM153.15 126.084C152.982 126.084 152.838 126.024 152.718 125.904C152.598 125.784 152.538 125.64 152.538 125.472C152.538 125.304 152.598 125.16 152.718 125.04C152.838 124.92 152.982 124.86 153.15 124.86C153.318 124.86 153.462 124.92 153.582 125.04C153.702 125.16 153.762 125.304 153.762 125.472C153.762 125.64 153.702 125.784 153.582 125.904C153.462 126.024 153.318 126.084 153.15 126.084ZM157.534 126.156C156.966 126.156 156.47 126.028 156.046 125.772C155.63 125.508 155.306 125.144 155.074 124.68C154.85 124.208 154.738 123.664 154.738 123.048C154.738 122.44 154.85 121.9 155.074 121.428C155.306 120.956 155.63 120.592 156.046 120.336C156.47 120.072 156.958 119.94 157.51 119.94C157.958 119.94 158.35 120.016 158.686 120.168C159.022 120.312 159.346 120.552 159.658 120.888C159.706 120.936 159.73 120.988 159.73 121.044C159.73 121.116 159.698 121.176 159.634 121.224L159.466 121.38C159.418 121.428 159.362 121.452 159.298 121.452C159.242 121.452 159.182 121.42 159.118 121.356C158.838 121.076 158.57 120.88 158.314 120.768C158.066 120.656 157.79 120.6 157.486 120.6C157.07 120.6 156.714 120.716 156.418 120.948C156.13 121.18 155.914 121.484 155.77 121.86C155.626 122.228 155.554 122.624 155.554 123.048C155.554 123.472 155.626 123.872 155.77 124.248C155.914 124.616 156.134 124.916 156.43 125.148C156.726 125.372 157.09 125.484 157.522 125.484C157.842 125.484 158.122 125.428 158.362 125.316C158.61 125.196 158.886 124.972 159.19 124.644C159.254 124.58 159.314 124.548 159.37 124.548C159.434 124.548 159.49 124.572 159.538 124.62L159.706 124.752C159.762 124.8 159.79 124.856 159.79 124.92C159.79 124.984 159.754 125.06 159.682 125.148C159.346 125.516 159.01 125.776 158.674 125.928C158.338 126.08 157.958 126.156 157.534 126.156ZM163.406 126.156C162.854 126.156 162.362 126.024 161.93 125.76C161.498 125.496 161.162 125.132 160.922 124.668C160.682 124.196 160.562 123.656 160.562 123.048C160.562 122.44 160.682 121.904 160.922 121.44C161.162 120.968 161.498 120.6 161.93 120.336C162.362 120.072 162.854 119.94 163.406 119.94C163.958 119.94 164.45 120.072 164.882 120.336C165.314 120.6 165.65 120.968 165.89 121.44C166.13 121.904 166.25 122.44 166.25 123.048C166.25 123.656 166.13 124.196 165.89 124.668C165.65 125.132 165.314 125.496 164.882 125.76C164.45 126.024 163.958 126.156 163.406 126.156ZM163.406 125.496C164.022 125.496 164.514 125.272 164.882 124.824C165.25 124.368 165.434 123.776 165.434 123.048C165.434 122.32 165.25 121.732 164.882 121.284C164.514 120.828 164.022 120.6 163.406 120.6C162.79 120.6 162.298 120.828 161.93 121.284C161.562 121.732 161.378 122.32 161.378 123.048C161.378 123.776 161.562 124.368 161.93 124.824C162.298 125.272 162.79 125.496 163.406 125.496ZM173.638 119.94C174.278 119.94 174.766 120.124 175.102 120.492C175.446 120.852 175.618 121.316 175.618 121.884V125.76C175.618 125.92 175.538 126 175.378 126H175.066C174.906 126 174.826 125.92 174.826 125.76V122.1C174.826 121.62 174.714 121.252 174.49 120.996C174.274 120.74 173.95 120.612 173.518 120.612C173.062 120.612 172.698 120.764 172.426 121.068C172.154 121.372 172.018 121.764 172.018 122.244V125.76C172.018 125.92 171.938 126 171.778 126H171.466C171.306 126 171.226 125.92 171.226 125.76V122.1C171.226 121.62 171.114 121.252 170.89 120.996C170.674 120.74 170.346 120.612 169.906 120.612C169.498 120.612 169.158 120.74 168.886 120.996C168.622 121.252 168.466 121.588 168.418 122.004V125.76C168.418 125.92 168.338 126 168.178 126H167.866C167.706 126 167.626 125.92 167.626 125.76V120.324C167.626 120.164 167.706 120.084 167.866 120.084H168.13C168.29 120.084 168.37 120.164 168.37 120.324V120.816C168.73 120.232 169.302 119.94 170.086 119.94C170.494 119.94 170.842 120.032 171.13 120.216C171.426 120.392 171.646 120.632 171.79 120.936C172.214 120.272 172.83 119.94 173.638 119.94Z" fill="#474445"/>
</svg>
