<svg width="344" height="150" viewBox="0 0 344 150" fill="none" xmlns="http://www.w3.org/2000/svg">
<path d="M70 55C70 52.7909 71.7909 51 74 51H269C271.209 51 273 52.7909 273 55V95C273 97.2091 271.209 99 269 99H74C71.7909 99 70 97.2091 70 95V55Z" fill="white"/>
<path d="M79.696 80C79.4827 80 79.376 79.8933 79.376 79.68V68.96C79.376 68.7467 79.4827 68.64 79.696 68.64H84C85.0987 68.64 85.984 68.928 86.656 69.504C87.328 70.08 87.664 70.896 87.664 71.952C87.664 73.008 87.328 73.8293 86.656 74.416C85.984 74.992 85.0987 75.28 84 75.28H80.512V79.68C80.512 79.8933 80.4053 80 80.192 80H79.696ZM83.856 74.336C84.688 74.336 85.344 74.1333 85.824 73.728C86.304 73.3227 86.544 72.7307 86.544 71.952C86.544 71.184 86.304 70.5973 85.824 70.192C85.344 69.7867 84.688 69.584 83.856 69.584H80.512V74.336H83.856ZM94.4915 72.432C94.4915 72.2187 94.5982 72.112 94.8115 72.112H95.2275C95.4408 72.112 95.5475 72.2187 95.5475 72.432V79.68C95.5475 79.8933 95.4408 80 95.2275 80H94.8915C94.6782 80 94.5715 79.8933 94.5715 79.68V78.96C94.3368 79.376 94.0008 79.6907 93.5635 79.904C93.1368 80.1067 92.6675 80.208 92.1555 80.208C91.1955 80.208 90.4862 79.968 90.0275 79.488C89.5688 78.9973 89.3395 78.368 89.3395 77.6V72.432C89.3395 72.2187 89.4462 72.112 89.6595 72.112H90.0755C90.2888 72.112 90.3955 72.2187 90.3955 72.432V77.376C90.3955 78.0053 90.5502 78.4853 90.8595 78.816C91.1795 79.136 91.6328 79.296 92.2195 79.296C92.8808 79.296 93.4248 79.0933 93.8515 78.688C94.2782 78.2827 94.4915 77.7067 94.4915 76.96V72.432ZM100.67 80.208C100.02 80.208 99.4437 80.1173 98.9424 79.936C98.4517 79.744 97.9344 79.424 97.3904 78.976C97.2944 78.912 97.2464 78.8373 97.2464 78.752C97.2464 78.6773 97.2837 78.6027 97.3584 78.528L97.5664 78.304C97.6304 78.2187 97.7104 78.176 97.8064 78.176C97.881 78.176 97.9504 78.208 98.0144 78.272C98.5264 78.6667 98.9797 78.944 99.3744 79.104C99.769 79.2533 100.201 79.328 100.67 79.328C101.257 79.328 101.737 79.2 102.11 78.944C102.484 78.6773 102.67 78.32 102.67 77.872C102.67 77.424 102.478 77.0933 102.094 76.88C101.71 76.6667 101.118 76.4747 100.318 76.304C99.6144 76.1547 99.0597 76 98.6544 75.84C98.2597 75.6693 97.9664 75.456 97.7744 75.2C97.5824 74.944 97.4864 74.608 97.4864 74.192C97.4864 73.5093 97.7637 72.96 98.3184 72.544C98.873 72.128 99.5717 71.92 100.414 71.92C100.99 71.92 101.502 71.9947 101.95 72.144C102.409 72.2827 102.868 72.5173 103.326 72.848C103.422 72.9227 103.47 73.0027 103.47 73.088C103.47 73.1413 103.444 73.2107 103.39 73.296L103.198 73.536C103.145 73.6213 103.07 73.664 102.974 73.664C102.889 73.664 102.814 73.6373 102.75 73.584C102.313 73.2747 101.924 73.0667 101.582 72.96C101.252 72.8533 100.873 72.8 100.446 72.8C99.8597 72.8 99.3904 72.928 99.0384 73.184C98.6864 73.44 98.5104 73.7653 98.5104 74.16C98.5104 74.4053 98.5904 74.6027 98.7504 74.752C98.9104 74.9013 99.1397 75.0293 99.4384 75.136C99.737 75.232 100.174 75.344 100.75 75.472C101.817 75.7067 102.574 75.9947 103.022 76.336C103.481 76.6773 103.71 77.1733 103.71 77.824C103.71 78.5387 103.428 79.1147 102.862 79.552C102.297 79.9893 101.566 80.208 100.67 80.208ZM111.241 78.128C111.315 78.0533 111.395 78.016 111.481 78.016C111.555 78.016 111.625 78.048 111.689 78.112L111.897 78.304C111.971 78.3787 112.009 78.4587 112.009 78.544C112.009 78.608 111.977 78.6827 111.913 78.768C111.39 79.2907 110.883 79.664 110.393 79.888C109.902 80.1013 109.353 80.208 108.745 80.208C107.977 80.208 107.31 80.0373 106.745 79.696C106.179 79.3547 105.742 78.88 105.433 78.272C105.123 77.6533 104.969 76.9387 104.969 76.128C104.969 75.3067 105.118 74.5813 105.417 73.952C105.726 73.312 106.158 72.816 106.713 72.464C107.267 72.1013 107.907 71.92 108.633 71.92C109.71 71.92 110.558 72.256 111.177 72.928C111.795 73.6 112.105 74.5067 112.105 75.648V75.84C112.094 75.936 112.057 76.0107 111.993 76.064C111.939 76.1173 111.865 76.144 111.769 76.144H106.041C106.073 77.04 106.307 77.7973 106.745 78.416C107.193 79.024 107.859 79.328 108.745 79.328C109.225 79.328 109.646 79.2427 110.009 79.072C110.382 78.8907 110.793 78.576 111.241 78.128ZM108.633 72.8C107.929 72.8 107.347 73.0187 106.889 73.456C106.441 73.8827 106.169 74.512 106.073 75.344H111.049C111.027 74.5653 110.803 73.9467 110.377 73.488C109.95 73.0293 109.369 72.8 108.633 72.8ZM116.989 69.328C116.509 69.328 116.168 69.456 115.965 69.712C115.762 69.9573 115.661 70.3733 115.661 70.96V72.112H117.421C117.634 72.112 117.741 72.2187 117.741 72.432V72.592C117.741 72.8053 117.634 72.912 117.421 72.912H115.661V79.68C115.661 79.8933 115.554 80 115.341 80H114.925C114.712 80 114.605 79.8933 114.605 79.68V72.912H113.421C113.208 72.912 113.101 72.8053 113.101 72.592V72.432C113.101 72.2187 113.208 72.112 113.421 72.112H114.605V70.784C114.605 70.048 114.797 69.472 115.181 69.056C115.576 68.64 116.136 68.432 116.861 68.432C117.266 68.432 117.682 68.4907 118.109 68.608C118.312 68.672 118.386 68.8053 118.333 69.008L118.269 69.232C118.216 69.3813 118.109 69.456 117.949 69.456C117.917 69.456 117.848 69.4453 117.741 69.424C117.506 69.36 117.256 69.328 116.989 69.328ZM119.821 70.112C119.608 70.112 119.427 70.0373 119.277 69.888C119.139 69.7387 119.069 69.5573 119.069 69.344C119.069 69.1307 119.139 68.9547 119.277 68.816C119.427 68.6773 119.608 68.608 119.821 68.608C120.045 68.608 120.227 68.6773 120.365 68.816C120.515 68.9547 120.589 69.1307 120.589 69.344C120.589 69.5573 120.515 69.7387 120.365 69.888C120.227 70.0373 120.045 70.112 119.821 70.112ZM119.613 80C119.4 80 119.293 79.8933 119.293 79.68V72.432C119.293 72.2187 119.4 72.112 119.613 72.112H120.029C120.243 72.112 120.349 72.2187 120.349 72.432V79.68C120.349 79.8933 120.243 80 120.029 80H119.613ZM126.22 71.92C127.148 71.92 127.846 72.176 128.316 72.688C128.796 73.2 129.036 73.84 129.036 74.608V79.68C129.036 79.8933 128.929 80 128.716 80H128.3C128.086 80 127.98 79.8933 127.98 79.68V74.96C127.98 74.256 127.809 73.7227 127.468 73.36C127.126 72.9973 126.636 72.816 125.996 72.816C125.59 72.816 125.217 72.9173 124.876 73.12C124.534 73.312 124.262 73.5787 124.06 73.92C123.857 74.2613 123.756 74.6347 123.756 75.04V79.68C123.756 79.8933 123.649 80 123.436 80H123.02C122.806 80 122.7 79.8933 122.7 79.68V72.432C122.7 72.2187 122.806 72.112 123.02 72.112H123.372C123.585 72.112 123.692 72.2187 123.692 72.432V73.2C123.958 72.7733 124.31 72.4533 124.748 72.24C125.185 72.0267 125.676 71.92 126.22 71.92ZM134.891 71.92C135.82 71.92 136.518 72.176 136.988 72.688C137.468 73.2 137.708 73.84 137.708 74.608V79.68C137.708 79.8933 137.601 80 137.388 80H136.972C136.758 80 136.652 79.8933 136.652 79.68V74.96C136.652 74.256 136.481 73.7227 136.14 73.36C135.798 72.9973 135.308 72.816 134.668 72.816C134.262 72.816 133.889 72.9173 133.548 73.12C133.206 73.312 132.934 73.5787 132.732 73.92C132.529 74.2613 132.428 74.6347 132.428 75.04V79.68C132.428 79.8933 132.321 80 132.108 80H131.692C131.478 80 131.372 79.8933 131.372 79.68V72.432C131.372 72.2187 131.478 72.112 131.692 72.112H132.044C132.257 72.112 132.364 72.2187 132.364 72.432V73.2C132.63 72.7733 132.982 72.4533 133.42 72.24C133.857 72.0267 134.348 71.92 134.891 71.92Z" fill="#474445"/>
<path d="M74 52H269V50H74V52ZM272 55V95H274V55H272ZM269 98H74V100H269V98ZM71 95V55H69V95H71ZM74 98C72.3431 98 71 96.6569 71 95H69C69 97.7614 71.2386 100 74 100V98ZM272 95C272 96.6569 270.657 98 269 98V100C271.761 100 274 97.7614 274 95H272ZM269 52C270.657 52 272 53.3431 272 55H274C274 52.2386 271.761 50 269 50V52ZM74 50C71.2386 50 69 52.2386 69 55H71C71 53.3431 72.3431 52 74 52V50Z" fill="#C3CCD9"/>
</svg>
