<svg width="344" height="300" viewBox="0 0 344 300" fill="none" xmlns="http://www.w3.org/2000/svg">
<path d="M75.348 54.224C74.3587 54.224 73.5 54 72.772 53.552C72.0533 53.104 71.498 52.488 71.106 51.704C70.7233 50.9107 70.532 50.0147 70.532 49.016C70.532 48.0173 70.7233 47.1307 71.106 46.356C71.4887 45.572 72.044 44.956 72.772 44.508C73.5 44.06 74.3727 43.836 75.39 43.836C76.006 43.836 76.566 43.9247 77.07 44.102C77.574 44.27 78.0827 44.5547 78.596 44.956C78.736 45.068 78.806 45.194 78.806 45.334C78.806 45.4273 78.7593 45.5347 78.666 45.656L78.358 46.02C78.246 46.1507 78.1293 46.216 78.008 46.216C77.9147 46.216 77.798 46.1693 77.658 46.076C77.238 45.7493 76.8507 45.5253 76.496 45.404C76.1507 45.2827 75.7773 45.222 75.376 45.222C74.7227 45.222 74.1533 45.3807 73.668 45.698C73.1827 46.0153 72.8093 46.4633 72.548 47.042C72.2867 47.6113 72.156 48.2693 72.156 49.016C72.156 49.7627 72.2867 50.4253 72.548 51.004C72.8093 51.5827 73.178 52.0353 73.654 52.362C74.13 52.6793 74.6853 52.838 75.32 52.838C75.796 52.838 76.2207 52.754 76.594 52.586C76.9673 52.418 77.3733 52.1473 77.812 51.774C77.9333 51.6713 78.05 51.62 78.162 51.62C78.2833 51.62 78.4 51.6853 78.512 51.816L78.82 52.166C78.9133 52.2687 78.96 52.376 78.96 52.488C78.96 52.6467 78.8853 52.7867 78.736 52.908C78.1947 53.3747 77.658 53.7107 77.126 53.916C76.6033 54.1213 76.0107 54.224 75.348 54.224ZM83.3409 47.028C83.5462 47.028 83.7562 47.0513 83.9709 47.098C84.2229 47.154 84.3489 47.3033 84.3489 47.546C84.3489 47.6113 84.3442 47.658 84.3349 47.686L84.2649 48.022C84.2089 48.2833 84.0689 48.414 83.8449 48.414L83.7189 48.4C83.5509 48.372 83.4016 48.358 83.2709 48.358C82.8042 48.358 82.4262 48.5447 82.1369 48.918C81.8569 49.282 81.7169 49.7907 81.7169 50.444V53.51C81.7169 53.6593 81.6749 53.7807 81.5909 53.874C81.5069 53.958 81.3856 54 81.2269 54H80.7229C80.5736 54 80.4522 53.958 80.3589 53.874C80.2749 53.7807 80.2329 53.6593 80.2329 53.51V47.588C80.2329 47.4293 80.2749 47.308 80.3589 47.224C80.4522 47.14 80.5736 47.098 80.7229 47.098H81.1289C81.2876 47.098 81.4089 47.14 81.4929 47.224C81.5769 47.308 81.6189 47.4293 81.6189 47.588V48.134C81.7869 47.7887 82.0156 47.518 82.3049 47.322C82.5942 47.126 82.9396 47.028 83.3409 47.028ZM90.0421 52.236C90.1634 52.1333 90.2801 52.082 90.3921 52.082C90.5041 52.082 90.6208 52.1427 90.7421 52.264L90.9381 52.474C91.0408 52.5953 91.0921 52.712 91.0921 52.824C91.0921 52.9453 91.0314 53.062 90.9101 53.174C90.4808 53.5473 90.0514 53.8133 89.6221 53.972C89.2021 54.1307 88.7354 54.21 88.2221 54.21C87.5034 54.21 86.8781 54.0607 86.3461 53.762C85.8234 53.4633 85.4174 53.0433 85.1281 52.502C84.8481 51.9513 84.7081 51.3167 84.7081 50.598C84.7081 49.8887 84.8434 49.254 85.1141 48.694C85.3941 48.1247 85.7861 47.6813 86.2901 47.364C86.8034 47.0467 87.4008 46.888 88.0821 46.888C89.0994 46.888 89.8834 47.1913 90.4341 47.798C90.9848 48.3953 91.2601 49.2213 91.2601 50.276V50.402C91.2508 50.5513 91.2041 50.668 91.1201 50.752C91.0361 50.836 90.9148 50.878 90.7561 50.878H86.1641C86.2201 51.494 86.4208 51.998 86.7661 52.39C87.1208 52.7727 87.6154 52.964 88.2501 52.964C88.5954 52.964 88.8988 52.9127 89.1601 52.81C89.4214 52.698 89.7154 52.5067 90.0421 52.236ZM88.0541 48.064C87.5408 48.064 87.1254 48.218 86.8081 48.526C86.5001 48.8247 86.2994 49.2493 86.2061 49.8H89.8041C89.7668 49.2587 89.5988 48.834 89.3001 48.526C89.0014 48.218 88.5861 48.064 88.0541 48.064ZM97.505 44.536C97.505 44.3773 97.547 44.256 97.631 44.172C97.7243 44.088 97.8456 44.046 97.995 44.046H98.499C98.6576 44.046 98.779 44.088 98.863 44.172C98.947 44.256 98.989 44.3773 98.989 44.536V53.51C98.989 53.6593 98.947 53.7807 98.863 53.874C98.779 53.958 98.6576 54 98.499 54H98.093C97.9436 54 97.8223 53.958 97.729 53.874C97.645 53.7807 97.603 53.6593 97.603 53.51V53.02C97.1176 53.804 96.357 54.196 95.321 54.196C94.7423 54.196 94.2196 54.0467 93.753 53.748C93.2956 53.4493 92.9363 53.0247 92.675 52.474C92.4136 51.9233 92.283 51.284 92.283 50.556C92.283 49.8373 92.4136 49.2027 92.675 48.652C92.9456 48.1013 93.3143 47.6767 93.781 47.378C94.2476 47.0793 94.7703 46.93 95.349 46.93C96.301 46.93 97.0196 47.2613 97.505 47.924V44.536ZM95.629 52.922C96.1983 52.922 96.665 52.712 97.029 52.292C97.393 51.8627 97.575 51.284 97.575 50.556C97.575 49.828 97.393 49.254 97.029 48.834C96.665 48.414 96.1983 48.204 95.629 48.204C95.0783 48.204 94.635 48.4187 94.299 48.848C93.963 49.2773 93.795 49.8467 93.795 50.556C93.795 51.2747 93.9583 51.8487 94.285 52.278C94.621 52.7073 95.069 52.922 95.629 52.922ZM101.469 45.754C101.199 45.754 100.97 45.6653 100.783 45.488C100.597 45.3013 100.503 45.082 100.503 44.83C100.503 44.5687 100.597 44.3493 100.783 44.172C100.97 43.9947 101.199 43.906 101.469 43.906C101.74 43.906 101.969 43.9947 102.155 44.172C102.342 44.3493 102.435 44.5687 102.435 44.83C102.435 45.082 102.342 45.3013 102.155 45.488C101.969 45.6653 101.74 45.754 101.469 45.754ZM101.203 54C101.054 54 100.933 53.958 100.839 53.874C100.755 53.7807 100.713 53.6593 100.713 53.51V47.588C100.713 47.4293 100.755 47.308 100.839 47.224C100.933 47.14 101.054 47.098 101.203 47.098H101.707C101.866 47.098 101.987 47.14 102.071 47.224C102.155 47.308 102.197 47.4293 102.197 47.588V53.51C102.197 53.6593 102.155 53.7807 102.071 53.874C101.987 53.958 101.866 54 101.707 54H101.203ZM107.245 52.824C107.273 52.8147 107.315 52.81 107.371 52.81C107.604 52.81 107.744 52.9453 107.791 53.216L107.833 53.44C107.842 53.468 107.847 53.5147 107.847 53.58C107.847 53.8133 107.716 53.9627 107.455 54.028C107.081 54.112 106.741 54.154 106.433 54.154C105.77 54.154 105.289 54 104.991 53.692C104.701 53.384 104.557 52.922 104.557 52.306V48.232H103.787C103.637 48.232 103.516 48.19 103.423 48.106C103.339 48.0127 103.297 47.8913 103.297 47.742V47.588C103.297 47.4293 103.339 47.308 103.423 47.224C103.516 47.14 103.637 47.098 103.787 47.098H104.557V45.362C104.557 45.2033 104.599 45.082 104.683 44.998C104.776 44.914 104.897 44.872 105.047 44.872H105.551C105.709 44.872 105.831 44.914 105.915 44.998C105.999 45.082 106.041 45.2033 106.041 45.362V47.098H107.301C107.459 47.098 107.581 47.14 107.665 47.224C107.749 47.308 107.791 47.4293 107.791 47.588V47.742C107.791 47.8913 107.749 48.0127 107.665 48.106C107.581 48.19 107.459 48.232 107.301 48.232H106.041V52.124C106.041 52.3947 106.097 52.586 106.209 52.698C106.33 52.81 106.521 52.866 106.783 52.866C106.895 52.866 107.049 52.852 107.245 52.824ZM115.181 54.21C114.5 54.21 113.898 54.0607 113.375 53.762C112.862 53.4633 112.46 53.0387 112.171 52.488C111.891 51.928 111.751 51.2793 111.751 50.542C111.751 49.8047 111.896 49.1607 112.185 48.61C112.474 48.0593 112.88 47.6347 113.403 47.336C113.926 47.0373 114.528 46.888 115.209 46.888C115.704 46.888 116.147 46.9627 116.539 47.112C116.94 47.252 117.323 47.4947 117.687 47.84C117.799 47.952 117.855 48.0687 117.855 48.19C117.855 48.302 117.794 48.4187 117.673 48.54L117.435 48.778C117.332 48.8807 117.22 48.932 117.099 48.932C116.978 48.932 116.852 48.876 116.721 48.764C116.45 48.5307 116.194 48.372 115.951 48.288C115.718 48.1947 115.466 48.148 115.195 48.148C114.579 48.148 114.103 48.3767 113.767 48.834C113.431 49.2913 113.263 49.8607 113.263 50.542C113.263 51.2233 113.431 51.7973 113.767 52.264C114.103 52.7213 114.579 52.95 115.195 52.95C115.494 52.95 115.769 52.894 116.021 52.782C116.273 52.6607 116.544 52.46 116.833 52.18C116.954 52.0587 117.08 51.998 117.211 51.998C117.323 51.998 117.43 52.0447 117.533 52.138L117.771 52.334C117.892 52.4367 117.953 52.5533 117.953 52.684C117.953 52.824 117.883 52.9733 117.743 53.132C117.36 53.524 116.964 53.804 116.553 53.972C116.152 54.1307 115.694 54.21 115.181 54.21ZM122.219 46.888C123.152 46.888 123.871 47.1073 124.375 47.546C124.879 47.9753 125.131 48.5493 125.131 49.268V53.51C125.131 53.6593 125.089 53.7807 125.005 53.874C124.921 53.958 124.8 54 124.641 54H124.277C124.128 54 124.006 53.958 123.913 53.874C123.829 53.7807 123.787 53.6593 123.787 53.51V53.202C123.563 53.5287 123.255 53.7807 122.863 53.958C122.471 54.1353 122.014 54.224 121.491 54.224C120.772 54.224 120.18 54.0653 119.713 53.748C119.256 53.4213 119.027 52.9313 119.027 52.278C119.027 51.55 119.298 51.0133 119.839 50.668C120.39 50.3133 121.15 50.0473 122.121 49.87L123.703 49.576V49.324C123.703 48.9413 123.568 48.6473 123.297 48.442C123.036 48.2273 122.686 48.12 122.247 48.12C121.874 48.12 121.547 48.1853 121.267 48.316C120.996 48.4373 120.702 48.6427 120.385 48.932C120.264 49.0347 120.147 49.086 120.035 49.086C119.923 49.086 119.806 49.0347 119.685 48.932L119.461 48.736C119.34 48.624 119.279 48.5027 119.279 48.372C119.279 48.2507 119.335 48.134 119.447 48.022C119.848 47.6393 120.273 47.3547 120.721 47.168C121.169 46.9813 121.668 46.888 122.219 46.888ZM121.701 53.034C122.261 53.034 122.732 52.8847 123.115 52.586C123.507 52.2873 123.703 51.858 123.703 51.298V50.654L122.485 50.906C121.804 51.046 121.3 51.2047 120.973 51.382C120.646 51.5593 120.483 51.83 120.483 52.194C120.483 52.4553 120.59 52.6607 120.805 52.81C121.02 52.9593 121.318 53.034 121.701 53.034ZM129.935 47.028C130.14 47.028 130.35 47.0513 130.565 47.098C130.817 47.154 130.943 47.3033 130.943 47.546C130.943 47.6113 130.938 47.658 130.929 47.686L130.859 48.022C130.803 48.2833 130.663 48.414 130.439 48.414L130.313 48.4C130.145 48.372 129.995 48.358 129.865 48.358C129.398 48.358 129.02 48.5447 128.731 48.918C128.451 49.282 128.311 49.7907 128.311 50.444V53.51C128.311 53.6593 128.269 53.7807 128.185 53.874C128.101 53.958 127.979 54 127.821 54H127.317C127.167 54 127.046 53.958 126.953 53.874C126.869 53.7807 126.827 53.6593 126.827 53.51V47.588C126.827 47.4293 126.869 47.308 126.953 47.224C127.046 47.14 127.167 47.098 127.317 47.098H127.723C127.881 47.098 128.003 47.14 128.087 47.224C128.171 47.308 128.213 47.4293 128.213 47.588V48.134C128.381 47.7887 128.609 47.518 128.899 47.322C129.188 47.126 129.533 47.028 129.935 47.028ZM136.552 44.536C136.552 44.3773 136.594 44.256 136.678 44.172C136.771 44.088 136.893 44.046 137.042 44.046H137.546C137.705 44.046 137.826 44.088 137.91 44.172C137.994 44.256 138.036 44.3773 138.036 44.536V53.51C138.036 53.6593 137.994 53.7807 137.91 53.874C137.826 53.958 137.705 54 137.546 54H137.14C136.991 54 136.869 53.958 136.776 53.874C136.692 53.7807 136.65 53.6593 136.65 53.51V53.02C136.165 53.804 135.404 54.196 134.368 54.196C133.789 54.196 133.267 54.0467 132.8 53.748C132.343 53.4493 131.983 53.0247 131.722 52.474C131.461 51.9233 131.33 51.284 131.33 50.556C131.33 49.8373 131.461 49.2027 131.722 48.652C131.993 48.1013 132.361 47.6767 132.828 47.378C133.295 47.0793 133.817 46.93 134.396 46.93C135.348 46.93 136.067 47.2613 136.552 47.924V44.536ZM134.676 52.922C135.245 52.922 135.712 52.712 136.076 52.292C136.44 51.8627 136.622 51.284 136.622 50.556C136.622 49.828 136.44 49.254 136.076 48.834C135.712 48.414 135.245 48.204 134.676 48.204C134.125 48.204 133.682 48.4187 133.346 48.848C133.01 49.2773 132.842 49.8467 132.842 50.556C132.842 51.2747 133.005 51.8487 133.332 52.278C133.668 52.7073 134.116 52.922 134.676 52.922Z" fill="#D9270A"/>
<path d="M70 66C70 63.7909 71.7909 62 74 62H269C271.209 62 273 63.7909 273 66V106C273 108.209 271.209 110 269 110H74C71.7909 110 70 108.209 70 106V66Z" fill="white"/>
<path d="M74 63H269V61H74V63ZM272 66V106H274V66H272ZM269 109H74V111H269V109ZM71 106V66H69V106H71ZM74 109C72.3431 109 71 107.657 71 106H69C69 108.761 71.2386 111 74 111V109ZM272 106C272 107.657 270.657 109 269 109V111C271.761 111 274 108.761 274 106H272ZM269 63C270.657 63 272 64.3431 272 66H274C274 63.2386 271.761 61 269 61V63ZM74 61C71.2386 61 69 63.2386 69 66H71C71 64.3431 72.3431 63 74 63V61Z" fill="#D9270A"/>
<path d="M71.272 126C71.112 126 71.032 125.92 71.032 125.76V117.72C71.032 117.56 71.112 117.48 71.272 117.48H76.312C76.472 117.48 76.552 117.56 76.552 117.72V117.948C76.552 118.108 76.472 118.188 76.312 118.188H71.884V121.272H75.976C76.136 121.272 76.216 121.352 76.216 121.512V121.728C76.216 121.888 76.136 121.968 75.976 121.968H71.884V125.292H76.408C76.568 125.292 76.648 125.372 76.648 125.532V125.76C76.648 125.92 76.568 126 76.408 126H71.272ZM80.7233 119.94C81.4193 119.94 81.9433 120.132 82.2953 120.516C82.6553 120.9 82.8353 121.38 82.8353 121.956V125.76C82.8353 125.92 82.7553 126 82.5953 126H82.2833C82.1233 126 82.0433 125.92 82.0433 125.76V122.22C82.0433 121.692 81.9153 121.292 81.6593 121.02C81.4033 120.748 81.0353 120.612 80.5553 120.612C80.2513 120.612 79.9713 120.688 79.7153 120.84C79.4593 120.984 79.2553 121.184 79.1033 121.44C78.9513 121.696 78.8753 121.976 78.8753 122.28V125.76C78.8753 125.92 78.7953 126 78.6353 126H78.3233C78.1633 126 78.0833 125.92 78.0833 125.76V120.324C78.0833 120.164 78.1633 120.084 78.3233 120.084H78.5873C78.7473 120.084 78.8273 120.164 78.8273 120.324V120.9C79.0273 120.58 79.2913 120.34 79.6193 120.18C79.9473 120.02 80.3153 119.94 80.7233 119.94ZM87.0872 125.34C87.1112 125.332 87.1432 125.328 87.1832 125.328C87.2312 125.328 87.2752 125.344 87.3152 125.376C87.3552 125.408 87.3792 125.452 87.3872 125.508L87.4232 125.676C87.4312 125.692 87.4352 125.72 87.4352 125.76C87.4352 125.872 87.3752 125.94 87.2552 125.964C86.9672 126.052 86.6592 126.096 86.3312 126.096C85.8112 126.096 85.4392 125.98 85.2152 125.748C84.9992 125.508 84.8912 125.164 84.8912 124.716V120.684H84.0032C83.8432 120.684 83.7632 120.604 83.7632 120.444V120.324C83.7632 120.164 83.8432 120.084 84.0032 120.084H84.8912V118.26C84.8912 118.1 84.9712 118.02 85.1312 118.02H85.4432C85.6032 118.02 85.6832 118.1 85.6832 118.26V120.084H87.1232C87.2832 120.084 87.3632 120.164 87.3632 120.324V120.444C87.3632 120.604 87.2832 120.684 87.1232 120.684H85.6832V124.62C85.6832 124.916 85.7392 125.124 85.8512 125.244C85.9632 125.364 86.1552 125.424 86.4272 125.424C86.6192 125.424 86.8392 125.396 87.0872 125.34ZM92.6569 124.596C92.7129 124.54 92.7729 124.512 92.8369 124.512C92.8929 124.512 92.9449 124.536 92.9929 124.584L93.1489 124.728C93.2049 124.784 93.2329 124.844 93.2329 124.908C93.2329 124.956 93.2089 125.012 93.1609 125.076C92.7689 125.468 92.3889 125.748 92.0209 125.916C91.6529 126.076 91.2409 126.156 90.7849 126.156C90.2089 126.156 89.7089 126.028 89.2849 125.772C88.8609 125.516 88.5329 125.16 88.3009 124.704C88.0689 124.24 87.9529 123.704 87.9529 123.096C87.9529 122.48 88.0649 121.936 88.2889 121.464C88.5209 120.984 88.8449 120.612 89.2609 120.348C89.6769 120.076 90.1569 119.94 90.7009 119.94C91.5089 119.94 92.1449 120.192 92.6089 120.696C93.0729 121.2 93.3049 121.88 93.3049 122.736V122.88C93.2969 122.952 93.2689 123.008 93.2209 123.048C93.1809 123.088 93.1249 123.108 93.0529 123.108H88.7569C88.7809 123.78 88.9569 124.348 89.2849 124.812C89.6209 125.268 90.1209 125.496 90.7849 125.496C91.1449 125.496 91.4609 125.432 91.7329 125.304C92.0129 125.168 92.3209 124.932 92.6569 124.596ZM90.7009 120.6C90.1729 120.6 89.7369 120.764 89.3929 121.092C89.0569 121.412 88.8529 121.884 88.7809 122.508H92.5129C92.4969 121.924 92.3289 121.46 92.0089 121.116C91.6889 120.772 91.2529 120.6 90.7009 120.6ZM96.9319 120.036C97.1319 120.036 97.3679 120.068 97.6399 120.132C97.7839 120.18 97.8399 120.28 97.8079 120.432L97.7599 120.624C97.7199 120.776 97.6199 120.832 97.4599 120.792C97.2679 120.744 97.0919 120.72 96.9319 120.72C96.5239 120.72 96.1839 120.896 95.9119 121.248C95.6479 121.6 95.5159 122.088 95.5159 122.712V125.76C95.5159 125.92 95.4359 126 95.2759 126H94.9639C94.8039 126 94.7239 125.92 94.7239 125.76V120.324C94.7239 120.164 94.8039 120.084 94.9639 120.084H95.2279C95.3879 120.084 95.4679 120.164 95.4679 120.324V120.984C95.6039 120.688 95.7959 120.456 96.0439 120.288C96.2999 120.12 96.5959 120.036 96.9319 120.036ZM105.205 120.276C105.253 120.148 105.345 120.084 105.481 120.084H105.805C105.869 120.084 105.921 120.1 105.961 120.132C106.001 120.164 106.021 120.208 106.021 120.264L105.997 120.36L103.681 126.9C103.553 127.26 103.429 127.54 103.309 127.74C103.189 127.94 103.025 128.092 102.817 128.196C102.617 128.3 102.353 128.352 102.025 128.352C101.817 128.352 101.633 128.336 101.473 128.304C101.393 128.296 101.337 128.264 101.305 128.208C101.281 128.152 101.277 128.088 101.293 128.016L101.329 127.86C101.361 127.716 101.453 127.652 101.605 127.668C101.749 127.692 101.873 127.704 101.977 127.704C102.233 127.704 102.433 127.632 102.577 127.488C102.729 127.344 102.873 127.072 103.009 126.672L103.117 126.336L101.005 120.36L100.981 120.264C100.981 120.208 101.001 120.164 101.041 120.132C101.081 120.1 101.133 120.084 101.197 120.084H101.545C101.673 120.084 101.761 120.148 101.809 120.276L102.481 122.256C102.545 122.456 102.705 122.932 102.961 123.684L103.501 125.304C103.765 124.56 104.113 123.536 104.545 122.232L105.205 120.276ZM109.57 126.156C109.018 126.156 108.526 126.024 108.094 125.76C107.662 125.496 107.326 125.132 107.086 124.668C106.846 124.196 106.726 123.656 106.726 123.048C106.726 122.44 106.846 121.904 107.086 121.44C107.326 120.968 107.662 120.6 108.094 120.336C108.526 120.072 109.018 119.94 109.57 119.94C110.122 119.94 110.614 120.072 111.046 120.336C111.478 120.6 111.814 120.968 112.054 121.44C112.294 121.904 112.414 122.44 112.414 123.048C112.414 123.656 112.294 124.196 112.054 124.668C111.814 125.132 111.478 125.496 111.046 125.76C110.614 126.024 110.122 126.156 109.57 126.156ZM109.57 125.496C110.186 125.496 110.678 125.272 111.046 124.824C111.414 124.368 111.598 123.776 111.598 123.048C111.598 122.32 111.414 121.732 111.046 121.284C110.678 120.828 110.186 120.6 109.57 120.6C108.954 120.6 108.462 120.828 108.094 121.284C107.726 121.732 107.542 122.32 107.542 123.048C107.542 123.776 107.726 124.368 108.094 124.824C108.462 125.272 108.954 125.496 109.57 125.496ZM117.63 120.324C117.63 120.164 117.71 120.084 117.87 120.084H118.182C118.342 120.084 118.422 120.164 118.422 120.324V125.76C118.422 125.92 118.342 126 118.182 126H117.93C117.77 126 117.69 125.92 117.69 125.76V125.22C117.514 125.532 117.262 125.768 116.934 125.928C116.614 126.08 116.262 126.156 115.878 126.156C115.158 126.156 114.626 125.976 114.282 125.616C113.938 125.248 113.766 124.776 113.766 124.2V120.324C113.766 120.164 113.846 120.084 114.006 120.084H114.318C114.478 120.084 114.558 120.164 114.558 120.324V124.032C114.558 124.504 114.674 124.864 114.906 125.112C115.146 125.352 115.486 125.472 115.926 125.472C116.422 125.472 116.83 125.32 117.15 125.016C117.47 124.712 117.63 124.28 117.63 123.72V120.324ZM122.409 120.036C122.609 120.036 122.845 120.068 123.117 120.132C123.261 120.18 123.317 120.28 123.285 120.432L123.237 120.624C123.197 120.776 123.097 120.832 122.937 120.792C122.745 120.744 122.569 120.72 122.409 120.72C122.001 120.72 121.661 120.896 121.389 121.248C121.125 121.6 120.993 122.088 120.993 122.712V125.76C120.993 125.92 120.913 126 120.753 126H120.441C120.281 126 120.201 125.92 120.201 125.76V120.324C120.201 120.164 120.281 120.084 120.441 120.084H120.705C120.865 120.084 120.945 120.164 120.945 120.324V120.984C121.081 120.688 121.273 120.456 121.521 120.288C121.777 120.12 122.073 120.036 122.409 120.036ZM129.526 126.156C128.958 126.156 128.462 126.028 128.038 125.772C127.622 125.508 127.298 125.144 127.066 124.68C126.842 124.208 126.73 123.664 126.73 123.048C126.73 122.44 126.842 121.9 127.066 121.428C127.298 120.956 127.622 120.592 128.038 120.336C128.462 120.072 128.95 119.94 129.502 119.94C129.95 119.94 130.342 120.016 130.678 120.168C131.014 120.312 131.338 120.552 131.65 120.888C131.698 120.936 131.722 120.988 131.722 121.044C131.722 121.116 131.69 121.176 131.626 121.224L131.458 121.38C131.41 121.428 131.354 121.452 131.29 121.452C131.234 121.452 131.174 121.42 131.11 121.356C130.83 121.076 130.562 120.88 130.306 120.768C130.058 120.656 129.782 120.6 129.478 120.6C129.062 120.6 128.706 120.716 128.41 120.948C128.122 121.18 127.906 121.484 127.762 121.86C127.618 122.228 127.546 122.624 127.546 123.048C127.546 123.472 127.618 123.872 127.762 124.248C127.906 124.616 128.126 124.916 128.422 125.148C128.718 125.372 129.082 125.484 129.514 125.484C129.834 125.484 130.114 125.428 130.354 125.316C130.602 125.196 130.878 124.972 131.182 124.644C131.246 124.58 131.306 124.548 131.362 124.548C131.426 124.548 131.482 124.572 131.53 124.62L131.698 124.752C131.754 124.8 131.782 124.856 131.782 124.92C131.782 124.984 131.746 125.06 131.674 125.148C131.338 125.516 131.002 125.776 130.666 125.928C130.33 126.08 129.95 126.156 129.526 126.156ZM135.276 120.036C135.476 120.036 135.712 120.068 135.984 120.132C136.128 120.18 136.184 120.28 136.152 120.432L136.104 120.624C136.064 120.776 135.964 120.832 135.804 120.792C135.612 120.744 135.436 120.72 135.276 120.72C134.868 120.72 134.528 120.896 134.256 121.248C133.992 121.6 133.86 122.088 133.86 122.712V125.76C133.86 125.92 133.78 126 133.62 126H133.308C133.148 126 133.068 125.92 133.068 125.76V120.324C133.068 120.164 133.148 120.084 133.308 120.084H133.572C133.732 120.084 133.812 120.164 133.812 120.324V120.984C133.948 120.688 134.14 120.456 134.388 120.288C134.644 120.12 134.94 120.036 135.276 120.036ZM141.208 124.596C141.264 124.54 141.324 124.512 141.388 124.512C141.444 124.512 141.496 124.536 141.544 124.584L141.7 124.728C141.756 124.784 141.784 124.844 141.784 124.908C141.784 124.956 141.76 125.012 141.712 125.076C141.32 125.468 140.94 125.748 140.572 125.916C140.204 126.076 139.792 126.156 139.336 126.156C138.76 126.156 138.26 126.028 137.836 125.772C137.412 125.516 137.084 125.16 136.852 124.704C136.62 124.24 136.504 123.704 136.504 123.096C136.504 122.48 136.616 121.936 136.84 121.464C137.072 120.984 137.396 120.612 137.812 120.348C138.228 120.076 138.708 119.94 139.252 119.94C140.06 119.94 140.696 120.192 141.16 120.696C141.624 121.2 141.856 121.88 141.856 122.736V122.88C141.848 122.952 141.82 123.008 141.772 123.048C141.732 123.088 141.676 123.108 141.604 123.108H137.308C137.332 123.78 137.508 124.348 137.836 124.812C138.172 125.268 138.672 125.496 139.336 125.496C139.696 125.496 140.012 125.432 140.284 125.304C140.564 125.168 140.872 124.932 141.208 124.596ZM139.252 120.6C138.724 120.6 138.288 120.764 137.944 121.092C137.608 121.412 137.404 121.884 137.332 122.508H141.064C141.048 121.924 140.88 121.46 140.56 121.116C140.24 120.772 139.804 120.6 139.252 120.6ZM147.558 117.72C147.558 117.56 147.638 117.48 147.798 117.48H148.11C148.27 117.48 148.35 117.56 148.35 117.72V125.76C148.35 125.92 148.27 126 148.11 126H147.858C147.698 126 147.618 125.92 147.618 125.76V124.98C147.402 125.356 147.118 125.644 146.766 125.844C146.414 126.044 145.998 126.144 145.518 126.144C145.014 126.144 144.566 126.016 144.174 125.76C143.782 125.496 143.474 125.132 143.25 124.668C143.026 124.196 142.914 123.656 142.914 123.048C142.914 122.44 143.026 121.904 143.25 121.44C143.482 120.968 143.798 120.604 144.198 120.348C144.598 120.084 145.046 119.952 145.542 119.952C146.454 119.952 147.126 120.292 147.558 120.972V117.72ZM145.578 125.472C146.178 125.472 146.662 125.26 147.03 124.836C147.406 124.404 147.594 123.808 147.594 123.048C147.594 122.296 147.406 121.704 147.03 121.272C146.662 120.84 146.178 120.624 145.578 120.624C145.026 120.624 144.578 120.848 144.234 121.296C143.898 121.744 143.73 122.328 143.73 123.048C143.73 123.776 143.898 124.364 144.234 124.812C144.57 125.252 145.018 125.472 145.578 125.472ZM150.526 118.584C150.366 118.584 150.23 118.528 150.118 118.416C150.014 118.304 149.962 118.168 149.962 118.008C149.962 117.848 150.014 117.716 150.118 117.612C150.23 117.508 150.366 117.456 150.526 117.456C150.694 117.456 150.83 117.508 150.934 117.612C151.046 117.716 151.102 117.848 151.102 118.008C151.102 118.168 151.046 118.304 150.934 118.416C150.83 118.528 150.694 118.584 150.526 118.584ZM150.37 126C150.21 126 150.13 125.92 150.13 125.76V120.324C150.13 120.164 150.21 120.084 150.37 120.084H150.682C150.842 120.084 150.922 120.164 150.922 120.324V125.76C150.922 125.92 150.842 126 150.682 126H150.37ZM155.349 125.34C155.373 125.332 155.405 125.328 155.445 125.328C155.493 125.328 155.537 125.344 155.577 125.376C155.617 125.408 155.641 125.452 155.649 125.508L155.685 125.676C155.693 125.692 155.697 125.72 155.697 125.76C155.697 125.872 155.637 125.94 155.517 125.964C155.229 126.052 154.921 126.096 154.593 126.096C154.073 126.096 153.701 125.98 153.477 125.748C153.261 125.508 153.153 125.164 153.153 124.716V120.684H152.265C152.105 120.684 152.025 120.604 152.025 120.444V120.324C152.025 120.164 152.105 120.084 152.265 120.084H153.153V118.26C153.153 118.1 153.233 118.02 153.393 118.02H153.705C153.865 118.02 153.945 118.1 153.945 118.26V120.084H155.385C155.545 120.084 155.625 120.164 155.625 120.324V120.444C155.625 120.604 155.545 120.684 155.385 120.684H153.945V124.62C153.945 124.916 154.001 125.124 154.113 125.244C154.225 125.364 154.417 125.424 154.689 125.424C154.881 125.424 155.101 125.396 155.349 125.34ZM161.999 126.156C161.431 126.156 160.935 126.028 160.511 125.772C160.095 125.508 159.771 125.144 159.539 124.68C159.315 124.208 159.203 123.664 159.203 123.048C159.203 122.44 159.315 121.9 159.539 121.428C159.771 120.956 160.095 120.592 160.511 120.336C160.935 120.072 161.423 119.94 161.975 119.94C162.423 119.94 162.815 120.016 163.151 120.168C163.487 120.312 163.811 120.552 164.123 120.888C164.171 120.936 164.195 120.988 164.195 121.044C164.195 121.116 164.163 121.176 164.099 121.224L163.931 121.38C163.883 121.428 163.827 121.452 163.763 121.452C163.707 121.452 163.647 121.42 163.583 121.356C163.303 121.076 163.035 120.88 162.779 120.768C162.531 120.656 162.255 120.6 161.951 120.6C161.535 120.6 161.179 120.716 160.883 120.948C160.595 121.18 160.379 121.484 160.235 121.86C160.091 122.228 160.019 122.624 160.019 123.048C160.019 123.472 160.091 123.872 160.235 124.248C160.379 124.616 160.599 124.916 160.895 125.148C161.191 125.372 161.555 125.484 161.987 125.484C162.307 125.484 162.587 125.428 162.827 125.316C163.075 125.196 163.351 124.972 163.655 124.644C163.719 124.58 163.779 124.548 163.835 124.548C163.899 124.548 163.955 124.572 164.003 124.62L164.171 124.752C164.227 124.8 164.255 124.856 164.255 124.92C164.255 124.984 164.219 125.06 164.147 125.148C163.811 125.516 163.475 125.776 163.139 125.928C162.803 126.08 162.423 126.156 161.999 126.156ZM167.926 119.94C168.654 119.94 169.222 120.116 169.63 120.468C170.038 120.812 170.242 121.268 170.242 121.836V125.76C170.242 125.92 170.162 126 170.002 126H169.762C169.602 126 169.522 125.92 169.522 125.76V125.22C169.322 125.54 169.038 125.78 168.67 125.94C168.31 126.1 167.906 126.18 167.458 126.18C166.834 126.18 166.326 126.048 165.934 125.784C165.542 125.52 165.346 125.112 165.346 124.56C165.346 124.12 165.47 123.768 165.718 123.504C165.966 123.232 166.29 123.028 166.69 122.892C167.09 122.748 167.59 122.62 168.19 122.508L169.486 122.28V121.896C169.486 121.488 169.346 121.172 169.066 120.948C168.786 120.716 168.418 120.6 167.962 120.6C167.618 120.6 167.306 120.664 167.026 120.792C166.746 120.92 166.446 121.14 166.126 121.452C166.07 121.508 166.01 121.536 165.946 121.536C165.89 121.536 165.838 121.512 165.79 121.464L165.634 121.32C165.578 121.264 165.55 121.204 165.55 121.14C165.55 121.068 165.578 121.004 165.634 120.948C165.97 120.596 166.322 120.34 166.69 120.18C167.066 120.02 167.478 119.94 167.926 119.94ZM167.494 125.52C168.07 125.52 168.546 125.368 168.922 125.064C169.298 124.76 169.486 124.372 169.486 123.9V122.892L168.37 123.108C167.85 123.212 167.438 123.312 167.134 123.408C166.83 123.504 166.586 123.644 166.402 123.828C166.218 124.012 166.126 124.252 166.126 124.548C166.126 124.852 166.246 125.092 166.486 125.268C166.734 125.436 167.07 125.52 167.494 125.52ZM174.205 120.036C174.405 120.036 174.641 120.068 174.913 120.132C175.057 120.18 175.113 120.28 175.081 120.432L175.033 120.624C174.993 120.776 174.893 120.832 174.733 120.792C174.541 120.744 174.365 120.72 174.205 120.72C173.797 120.72 173.457 120.896 173.185 121.248C172.921 121.6 172.789 122.088 172.789 122.712V125.76C172.789 125.92 172.709 126 172.549 126H172.237C172.077 126 171.997 125.92 171.997 125.76V120.324C171.997 120.164 172.077 120.084 172.237 120.084H172.501C172.661 120.084 172.741 120.164 172.741 120.324V120.984C172.877 120.688 173.069 120.456 173.317 120.288C173.573 120.12 173.869 120.036 174.205 120.036ZM180.101 117.72C180.101 117.56 180.181 117.48 180.341 117.48H180.653C180.813 117.48 180.893 117.56 180.893 117.72V125.76C180.893 125.92 180.813 126 180.653 126H180.401C180.241 126 180.161 125.92 180.161 125.76V124.98C179.945 125.356 179.661 125.644 179.309 125.844C178.957 126.044 178.541 126.144 178.061 126.144C177.557 126.144 177.109 126.016 176.717 125.76C176.325 125.496 176.017 125.132 175.793 124.668C175.569 124.196 175.457 123.656 175.457 123.048C175.457 122.44 175.569 121.904 175.793 121.44C176.025 120.968 176.341 120.604 176.741 120.348C177.141 120.084 177.589 119.952 178.085 119.952C178.997 119.952 179.669 120.292 180.101 120.972V117.72ZM178.121 125.472C178.721 125.472 179.205 125.26 179.573 124.836C179.949 124.404 180.137 123.808 180.137 123.048C180.137 122.296 179.949 121.704 179.573 121.272C179.205 120.84 178.721 120.624 178.121 120.624C177.569 120.624 177.121 120.848 176.777 121.296C176.441 121.744 176.273 122.328 176.273 123.048C176.273 123.776 176.441 124.364 176.777 124.812C177.113 125.252 177.561 125.472 178.121 125.472ZM188.079 119.94C188.775 119.94 189.299 120.132 189.651 120.516C190.011 120.9 190.191 121.38 190.191 121.956V125.76C190.191 125.92 190.111 126 189.951 126H189.639C189.479 126 189.399 125.92 189.399 125.76V122.22C189.399 121.692 189.271 121.292 189.015 121.02C188.759 120.748 188.391 120.612 187.911 120.612C187.607 120.612 187.327 120.688 187.071 120.84C186.815 120.984 186.611 121.184 186.459 121.44C186.307 121.696 186.231 121.976 186.231 122.28V125.76C186.231 125.92 186.151 126 185.991 126H185.679C185.519 126 185.439 125.92 185.439 125.76V120.324C185.439 120.164 185.519 120.084 185.679 120.084H185.943C186.103 120.084 186.183 120.164 186.183 120.324V120.9C186.383 120.58 186.647 120.34 186.975 120.18C187.303 120.02 187.671 119.94 188.079 119.94ZM195.748 120.324C195.748 120.164 195.828 120.084 195.988 120.084H196.3C196.46 120.084 196.54 120.164 196.54 120.324V125.76C196.54 125.92 196.46 126 196.3 126H196.048C195.888 126 195.808 125.92 195.808 125.76V125.22C195.632 125.532 195.38 125.768 195.052 125.928C194.732 126.08 194.38 126.156 193.996 126.156C193.276 126.156 192.744 125.976 192.4 125.616C192.056 125.248 191.884 124.776 191.884 124.2V120.324C191.884 120.164 191.964 120.084 192.124 120.084H192.436C192.596 120.084 192.676 120.164 192.676 120.324V124.032C192.676 124.504 192.792 124.864 193.024 125.112C193.264 125.352 193.604 125.472 194.044 125.472C194.54 125.472 194.948 125.32 195.268 125.016C195.588 124.712 195.748 124.28 195.748 123.72V120.324ZM204.33 119.94C204.97 119.94 205.458 120.124 205.794 120.492C206.138 120.852 206.31 121.316 206.31 121.884V125.76C206.31 125.92 206.23 126 206.07 126H205.758C205.598 126 205.518 125.92 205.518 125.76V122.1C205.518 121.62 205.406 121.252 205.182 120.996C204.966 120.74 204.642 120.612 204.21 120.612C203.754 120.612 203.39 120.764 203.118 121.068C202.846 121.372 202.71 121.764 202.71 122.244V125.76C202.71 125.92 202.63 126 202.47 126H202.158C201.998 126 201.918 125.92 201.918 125.76V122.1C201.918 121.62 201.806 121.252 201.582 120.996C201.366 120.74 201.038 120.612 200.598 120.612C200.19 120.612 199.85 120.74 199.578 120.996C199.314 121.252 199.158 121.588 199.11 122.004V125.76C199.11 125.92 199.03 126 198.87 126H198.558C198.398 126 198.318 125.92 198.318 125.76V120.324C198.318 120.164 198.398 120.084 198.558 120.084H198.822C198.982 120.084 199.062 120.164 199.062 120.324V120.816C199.422 120.232 199.994 119.94 200.778 119.94C201.186 119.94 201.534 120.032 201.822 120.216C202.118 120.392 202.338 120.632 202.482 120.936C202.906 120.272 203.522 119.94 204.33 119.94ZM210.888 119.952C211.392 119.952 211.84 120.084 212.232 120.348C212.632 120.604 212.94 120.968 213.156 121.44C213.38 121.904 213.492 122.44 213.492 123.048C213.492 123.656 213.38 124.196 213.156 124.668C212.932 125.132 212.62 125.496 212.22 125.76C211.828 126.016 211.384 126.144 210.888 126.144C209.936 126.144 209.24 125.776 208.8 125.04V125.76C208.8 125.92 208.72 126 208.56 126H208.296C208.136 126 208.056 125.92 208.056 125.76V117.708C208.056 117.548 208.136 117.468 208.296 117.468H208.608C208.768 117.468 208.848 117.548 208.848 117.708V121.02C209.288 120.308 209.968 119.952 210.888 119.952ZM210.828 125.472C211.38 125.472 211.824 125.248 212.16 124.8C212.504 124.352 212.676 123.768 212.676 123.048C212.676 122.328 212.504 121.744 212.16 121.296C211.824 120.848 211.38 120.624 210.828 120.624C210.236 120.624 209.752 120.84 209.376 121.272C209 121.704 208.812 122.296 208.812 123.048C208.812 123.808 208.996 124.404 209.364 124.836C209.74 125.26 210.228 125.472 210.828 125.472ZM219.278 124.596C219.334 124.54 219.394 124.512 219.458 124.512C219.514 124.512 219.566 124.536 219.614 124.584L219.77 124.728C219.826 124.784 219.854 124.844 219.854 124.908C219.854 124.956 219.83 125.012 219.782 125.076C219.39 125.468 219.01 125.748 218.642 125.916C218.274 126.076 217.862 126.156 217.406 126.156C216.83 126.156 216.33 126.028 215.906 125.772C215.482 125.516 215.154 125.16 214.922 124.704C214.69 124.24 214.574 123.704 214.574 123.096C214.574 122.48 214.686 121.936 214.91 121.464C215.142 120.984 215.466 120.612 215.882 120.348C216.298 120.076 216.778 119.94 217.322 119.94C218.13 119.94 218.766 120.192 219.23 120.696C219.694 121.2 219.926 121.88 219.926 122.736V122.88C219.918 122.952 219.89 123.008 219.842 123.048C219.802 123.088 219.746 123.108 219.674 123.108H215.378C215.402 123.78 215.578 124.348 215.906 124.812C216.242 125.268 216.742 125.496 217.406 125.496C217.766 125.496 218.082 125.432 218.354 125.304C218.634 125.168 218.942 124.932 219.278 124.596ZM217.322 120.6C216.794 120.6 216.358 120.764 216.014 121.092C215.678 121.412 215.474 121.884 215.402 122.508H219.134C219.118 121.924 218.95 121.46 218.63 121.116C218.31 120.772 217.874 120.6 217.322 120.6ZM223.553 120.036C223.753 120.036 223.989 120.068 224.261 120.132C224.405 120.18 224.461 120.28 224.429 120.432L224.381 120.624C224.341 120.776 224.241 120.832 224.081 120.792C223.889 120.744 223.713 120.72 223.553 120.72C223.145 120.72 222.805 120.896 222.533 121.248C222.269 121.6 222.137 122.088 222.137 122.712V125.76C222.137 125.92 222.057 126 221.897 126H221.585C221.425 126 221.345 125.92 221.345 125.76V120.324C221.345 120.164 221.425 120.084 221.585 120.084H221.849C222.009 120.084 222.089 120.164 222.089 120.324V120.984C222.225 120.688 222.417 120.456 222.665 120.288C222.921 120.12 223.217 120.036 223.553 120.036ZM224.985 126.084C224.817 126.084 224.673 126.024 224.553 125.904C224.433 125.784 224.373 125.64 224.373 125.472C224.373 125.304 224.433 125.16 224.553 125.04C224.673 124.92 224.817 124.86 224.985 124.86C225.153 124.86 225.297 124.92 225.417 125.04C225.537 125.16 225.597 125.304 225.597 125.472C225.597 125.64 225.537 125.784 225.417 125.904C225.297 126.024 225.153 126.084 224.985 126.084Z" fill="#D9270A"/>
<path d="M71.568 184C71.4187 184 71.2973 183.958 71.204 183.874C71.12 183.781 71.078 183.659 71.078 183.51V174.55C71.078 174.391 71.12 174.27 71.204 174.186C71.2973 174.102 71.4187 174.06 71.568 174.06H75.586C76.5753 174.06 77.364 174.335 77.952 174.886C78.54 175.427 78.834 176.169 78.834 177.112C78.834 178.055 78.54 178.797 77.952 179.338C77.364 179.879 76.5753 180.15 75.586 180.15H72.674V183.51C72.674 183.659 72.632 183.781 72.548 183.874C72.464 183.958 72.3427 184 72.184 184H71.568ZM75.334 178.82C75.9313 178.82 76.398 178.675 76.734 178.386C77.0793 178.087 77.252 177.663 77.252 177.112C77.252 176.552 77.0793 176.127 76.734 175.838C76.398 175.539 75.9313 175.39 75.334 175.39H72.674V178.82H75.334ZM82.8851 176.888C83.8185 176.888 84.5371 177.107 85.0411 177.546C85.5451 177.975 85.7971 178.549 85.7971 179.268V183.51C85.7971 183.659 85.7551 183.781 85.6711 183.874C85.5871 183.958 85.4658 184 85.3071 184H84.9431C84.7938 184 84.6725 183.958 84.5791 183.874C84.4951 183.781 84.4531 183.659 84.4531 183.51V183.202C84.2291 183.529 83.9211 183.781 83.5291 183.958C83.1371 184.135 82.6798 184.224 82.1571 184.224C81.4385 184.224 80.8458 184.065 80.3791 183.748C79.9218 183.421 79.6931 182.931 79.6931 182.278C79.6931 181.55 79.9638 181.013 80.5051 180.668C81.0558 180.313 81.8165 180.047 82.7871 179.87L84.3691 179.576V179.324C84.3691 178.941 84.2338 178.647 83.9631 178.442C83.7018 178.227 83.3518 178.12 82.9131 178.12C82.5398 178.12 82.2131 178.185 81.9331 178.316C81.6625 178.437 81.3685 178.643 81.0511 178.932C80.9298 179.035 80.8131 179.086 80.7011 179.086C80.5891 179.086 80.4725 179.035 80.3511 178.932L80.1271 178.736C80.0058 178.624 79.9451 178.503 79.9451 178.372C79.9451 178.251 80.0011 178.134 80.1131 178.022C80.5145 177.639 80.9391 177.355 81.3871 177.168C81.8351 176.981 82.3345 176.888 82.8851 176.888ZM82.3671 183.034C82.9271 183.034 83.3985 182.885 83.7811 182.586C84.1731 182.287 84.3691 181.858 84.3691 181.298V180.654L83.1511 180.906C82.4698 181.046 81.9658 181.205 81.6391 181.382C81.3125 181.559 81.1491 181.83 81.1491 182.194C81.1491 182.455 81.2565 182.661 81.4711 182.81C81.6858 182.959 81.9845 183.034 82.3671 183.034ZM90.1527 184.21C89.5833 184.21 89.0747 184.14 88.6267 184C88.188 183.851 87.74 183.594 87.2827 183.23C87.1427 183.127 87.0727 183.011 87.0727 182.88C87.0727 182.777 87.124 182.665 87.2267 182.544L87.4367 182.306C87.5487 182.175 87.67 182.11 87.8007 182.11C87.9033 182.11 88.0153 182.157 88.1367 182.25C88.5287 182.539 88.874 182.74 89.1727 182.852C89.4713 182.955 89.8073 183.006 90.1807 183.006C90.582 183.006 90.9087 182.927 91.1607 182.768C91.422 182.6 91.5527 182.376 91.5527 182.096C91.5527 181.881 91.478 181.713 91.3287 181.592C91.1887 181.461 91.002 181.363 90.7687 181.298C90.5353 181.223 90.19 181.139 89.7327 181.046C89.0887 180.906 88.5847 180.757 88.2207 180.598C87.866 180.43 87.6093 180.22 87.4507 179.968C87.292 179.716 87.2127 179.394 87.2127 179.002C87.2127 178.601 87.3247 178.241 87.5487 177.924C87.782 177.607 88.104 177.355 88.5147 177.168C88.9347 176.981 89.4247 176.888 89.9847 176.888C90.4887 176.888 90.9367 176.944 91.3287 177.056C91.73 177.168 92.122 177.359 92.5047 177.63C92.654 177.742 92.7287 177.868 92.7287 178.008C92.7287 178.101 92.682 178.209 92.5887 178.33L92.4067 178.554C92.304 178.685 92.178 178.75 92.0287 178.75C91.9167 178.75 91.8093 178.713 91.7067 178.638C91.3987 178.433 91.114 178.293 90.8527 178.218C90.5913 178.134 90.2973 178.092 89.9707 178.092C89.5693 178.092 89.2473 178.171 89.0047 178.33C88.762 178.489 88.6407 178.694 88.6407 178.946C88.6407 179.114 88.6967 179.249 88.8087 179.352C88.93 179.445 89.098 179.529 89.3127 179.604C89.5367 179.669 89.8867 179.753 90.3627 179.856C91.0067 179.996 91.5153 180.155 91.8887 180.332C92.2713 180.5 92.5513 180.719 92.7287 180.99C92.9153 181.251 93.0087 181.592 93.0087 182.012C93.0087 182.665 92.7473 183.197 92.2247 183.608C91.7113 184.009 91.0207 184.21 90.1527 184.21ZM96.9476 184.21C96.3783 184.21 95.8696 184.14 95.4216 184C94.9829 183.851 94.5349 183.594 94.0776 183.23C93.9376 183.127 93.8676 183.011 93.8676 182.88C93.8676 182.777 93.9189 182.665 94.0216 182.544L94.2316 182.306C94.3436 182.175 94.4649 182.11 94.5956 182.11C94.6983 182.11 94.8103 182.157 94.9316 182.25C95.3236 182.539 95.6689 182.74 95.9676 182.852C96.2663 182.955 96.6023 183.006 96.9756 183.006C97.3769 183.006 97.7036 182.927 97.9556 182.768C98.2169 182.6 98.3476 182.376 98.3476 182.096C98.3476 181.881 98.2729 181.713 98.1236 181.592C97.9836 181.461 97.7969 181.363 97.5636 181.298C97.3303 181.223 96.9849 181.139 96.5276 181.046C95.8836 180.906 95.3796 180.757 95.0156 180.598C94.6609 180.43 94.4043 180.22 94.2456 179.968C94.0869 179.716 94.0076 179.394 94.0076 179.002C94.0076 178.601 94.1196 178.241 94.3436 177.924C94.5769 177.607 94.8989 177.355 95.3096 177.168C95.7296 176.981 96.2196 176.888 96.7796 176.888C97.2836 176.888 97.7316 176.944 98.1236 177.056C98.5249 177.168 98.9169 177.359 99.2996 177.63C99.4489 177.742 99.5236 177.868 99.5236 178.008C99.5236 178.101 99.4769 178.209 99.3836 178.33L99.2016 178.554C99.0989 178.685 98.9729 178.75 98.8236 178.75C98.7116 178.75 98.6043 178.713 98.5016 178.638C98.1936 178.433 97.9089 178.293 97.6476 178.218C97.3863 178.134 97.0923 178.092 96.7656 178.092C96.3643 178.092 96.0423 178.171 95.7996 178.33C95.5569 178.489 95.4356 178.694 95.4356 178.946C95.4356 179.114 95.4916 179.249 95.6036 179.352C95.7249 179.445 95.8929 179.529 96.1076 179.604C96.3316 179.669 96.6816 179.753 97.1576 179.856C97.8016 179.996 98.3103 180.155 98.6836 180.332C99.0663 180.5 99.3463 180.719 99.5236 180.99C99.7103 181.251 99.8036 181.592 99.8036 182.012C99.8036 182.665 99.5423 183.197 99.0196 183.608C98.5063 184.009 97.8156 184.21 96.9476 184.21ZM108.825 177.518C108.891 177.238 109.073 177.098 109.371 177.098H109.889C110.029 177.098 110.137 177.131 110.211 177.196C110.295 177.252 110.337 177.341 110.337 177.462C110.337 177.49 110.328 177.551 110.309 177.644L108.643 183.58C108.578 183.86 108.396 184 108.097 184H107.187C106.907 184 106.725 183.86 106.641 183.58L106.179 181.956C105.974 181.237 105.745 180.337 105.493 179.254L105.423 178.946C105.171 180.085 104.929 181.093 104.695 181.97L104.261 183.58C104.196 183.86 104.014 184 103.715 184H102.819C102.539 184 102.357 183.86 102.273 183.58L100.593 177.644C100.575 177.551 100.565 177.49 100.565 177.462C100.565 177.341 100.603 177.252 100.677 177.196C100.761 177.131 100.873 177.098 101.013 177.098H101.559C101.858 177.098 102.04 177.238 102.105 177.518L102.609 179.506C102.805 180.234 103.034 181.205 103.295 182.418L103.351 182.698C103.622 181.447 103.874 180.383 104.107 179.506L104.639 177.518C104.705 177.238 104.887 177.098 105.185 177.098H105.717C106.016 177.098 106.198 177.238 106.263 177.518L106.809 179.506C107.071 180.477 107.332 181.541 107.593 182.698C107.789 181.699 108.032 180.635 108.321 179.506L108.825 177.518ZM114.581 184.21C113.9 184.21 113.293 184.056 112.761 183.748C112.238 183.44 111.828 183.011 111.529 182.46C111.23 181.9 111.081 181.261 111.081 180.542C111.081 179.823 111.23 179.189 111.529 178.638C111.828 178.087 112.238 177.658 112.761 177.35C113.293 177.042 113.9 176.888 114.581 176.888C115.253 176.888 115.855 177.042 116.387 177.35C116.919 177.658 117.334 178.092 117.633 178.652C117.932 179.203 118.081 179.833 118.081 180.542C118.081 181.261 117.932 181.9 117.633 182.46C117.334 183.011 116.919 183.44 116.387 183.748C115.855 184.056 115.253 184.21 114.581 184.21ZM114.581 182.964C115.178 182.964 115.659 182.745 116.023 182.306C116.387 181.858 116.569 181.27 116.569 180.542C116.569 179.823 116.387 179.245 116.023 178.806C115.659 178.367 115.178 178.148 114.581 178.148C113.984 178.148 113.503 178.367 113.139 178.806C112.775 179.245 112.593 179.823 112.593 180.542C112.593 181.27 112.775 181.858 113.139 182.306C113.503 182.745 113.984 182.964 114.581 182.964ZM122.497 177.028C122.702 177.028 122.912 177.051 123.127 177.098C123.379 177.154 123.505 177.303 123.505 177.546C123.505 177.611 123.5 177.658 123.491 177.686L123.421 178.022C123.365 178.283 123.225 178.414 123.001 178.414L122.875 178.4C122.707 178.372 122.558 178.358 122.427 178.358C121.96 178.358 121.582 178.545 121.293 178.918C121.013 179.282 120.873 179.791 120.873 180.444V183.51C120.873 183.659 120.831 183.781 120.747 183.874C120.663 183.958 120.542 184 120.383 184H119.879C119.73 184 119.608 183.958 119.515 183.874C119.431 183.781 119.389 183.659 119.389 183.51V177.588C119.389 177.429 119.431 177.308 119.515 177.224C119.608 177.14 119.73 177.098 119.879 177.098H120.285C120.444 177.098 120.565 177.14 120.649 177.224C120.733 177.308 120.775 177.429 120.775 177.588V178.134C120.943 177.789 121.172 177.518 121.461 177.322C121.75 177.126 122.096 177.028 122.497 177.028ZM129.114 174.536C129.114 174.377 129.156 174.256 129.24 174.172C129.334 174.088 129.455 174.046 129.604 174.046H130.108C130.267 174.046 130.388 174.088 130.472 174.172C130.556 174.256 130.598 174.377 130.598 174.536V183.51C130.598 183.659 130.556 183.781 130.472 183.874C130.388 183.958 130.267 184 130.108 184H129.702C129.553 184 129.432 183.958 129.338 183.874C129.254 183.781 129.212 183.659 129.212 183.51V183.02C128.727 183.804 127.966 184.196 126.93 184.196C126.352 184.196 125.829 184.047 125.362 183.748C124.905 183.449 124.546 183.025 124.284 182.474C124.023 181.923 123.892 181.284 123.892 180.556C123.892 179.837 124.023 179.203 124.284 178.652C124.555 178.101 124.924 177.677 125.39 177.378C125.857 177.079 126.38 176.93 126.958 176.93C127.91 176.93 128.629 177.261 129.114 177.924V174.536ZM127.238 182.922C127.808 182.922 128.274 182.712 128.638 182.292C129.002 181.863 129.184 181.284 129.184 180.556C129.184 179.828 129.002 179.254 128.638 178.834C128.274 178.414 127.808 178.204 127.238 178.204C126.688 178.204 126.244 178.419 125.908 178.848C125.572 179.277 125.404 179.847 125.404 180.556C125.404 181.275 125.568 181.849 125.894 182.278C126.23 182.707 126.678 182.922 127.238 182.922Z" fill="#D9270A"/>
<path d="M70 196C70 193.791 71.7909 192 74 192H269C271.209 192 273 193.791 273 196V236C273 238.209 271.209 240 269 240H74C71.7909 240 70 238.209 70 236V196Z" fill="white"/>
<path d="M74 193H269V191H74V193ZM272 196V236H274V196H272ZM269 239H74V241H269V239ZM71 236V196H69V236H71ZM74 239C72.3431 239 71 237.657 71 236H69C69 238.761 71.2386 241 74 241V239ZM272 236C272 237.657 270.657 239 269 239V241C271.761 241 274 238.761 274 236H272ZM269 193C270.657 193 272 194.343 272 196H274C274 193.239 271.761 191 269 191V193ZM74 191C71.2386 191 69 193.239 69 196H71C71 194.343 72.3431 193 74 193V191Z" fill="#D9270A"/>
<path d="M74.476 256.18C73.66 256.18 72.956 255.992 72.364 255.616C71.772 255.232 71.32 254.704 71.008 254.032C70.696 253.36 70.54 252.596 70.54 251.74C70.54 250.876 70.696 250.108 71.008 249.436C71.32 248.764 71.776 248.24 72.376 247.864C72.984 247.488 73.712 247.3 74.56 247.3C75.048 247.3 75.504 247.38 75.928 247.54C76.352 247.692 76.804 247.956 77.284 248.332C77.356 248.38 77.392 248.436 77.392 248.5C77.392 248.548 77.368 248.604 77.32 248.668L77.152 248.884C77.104 248.948 77.048 248.98 76.984 248.98C76.92 248.98 76.86 248.956 76.804 248.908C76.372 248.572 75.98 248.344 75.628 248.224C75.284 248.096 74.928 248.032 74.56 248.032C73.912 248.032 73.348 248.192 72.868 248.512C72.396 248.824 72.032 249.26 71.776 249.82C71.52 250.38 71.392 251.02 71.392 251.74C71.392 252.452 71.52 253.092 71.776 253.66C72.032 254.22 72.392 254.66 72.856 254.98C73.32 255.292 73.856 255.448 74.464 255.448C74.944 255.448 75.368 255.356 75.736 255.172C76.112 254.98 76.512 254.684 76.936 254.284C77 254.236 77.056 254.212 77.104 254.212C77.168 254.212 77.228 254.24 77.284 254.296L77.476 254.512C77.524 254.56 77.548 254.612 77.548 254.668C77.548 254.74 77.508 254.812 77.428 254.884C76.932 255.356 76.46 255.692 76.012 255.892C75.564 256.084 75.052 256.18 74.476 256.18ZM81.0296 250.036C81.2296 250.036 81.4656 250.068 81.7376 250.132C81.8816 250.18 81.9376 250.28 81.9056 250.432L81.8576 250.624C81.8176 250.776 81.7176 250.832 81.5576 250.792C81.3656 250.744 81.1896 250.72 81.0296 250.72C80.6216 250.72 80.2816 250.896 80.0096 251.248C79.7456 251.6 79.6136 252.088 79.6136 252.712V255.76C79.6136 255.92 79.5336 256 79.3736 256H79.0616C78.9016 256 78.8216 255.92 78.8216 255.76V250.324C78.8216 250.164 78.9016 250.084 79.0616 250.084H79.3256C79.4856 250.084 79.5656 250.164 79.5656 250.324V250.984C79.7016 250.688 79.8936 250.456 80.1416 250.288C80.3976 250.12 80.6936 250.036 81.0296 250.036ZM86.9616 254.596C87.0176 254.54 87.0776 254.512 87.1416 254.512C87.1976 254.512 87.2496 254.536 87.2976 254.584L87.4536 254.728C87.5096 254.784 87.5376 254.844 87.5376 254.908C87.5376 254.956 87.5136 255.012 87.4656 255.076C87.0736 255.468 86.6936 255.748 86.3256 255.916C85.9576 256.076 85.5456 256.156 85.0896 256.156C84.5136 256.156 84.0136 256.028 83.5896 255.772C83.1656 255.516 82.8376 255.16 82.6056 254.704C82.3736 254.24 82.2576 253.704 82.2576 253.096C82.2576 252.48 82.3696 251.936 82.5936 251.464C82.8256 250.984 83.1496 250.612 83.5656 250.348C83.9816 250.076 84.4616 249.94 85.0056 249.94C85.8136 249.94 86.4496 250.192 86.9136 250.696C87.3776 251.2 87.6096 251.88 87.6096 252.736V252.88C87.6016 252.952 87.5736 253.008 87.5256 253.048C87.4856 253.088 87.4296 253.108 87.3576 253.108H83.0616C83.0856 253.78 83.2616 254.348 83.5896 254.812C83.9256 255.268 84.4256 255.496 85.0896 255.496C85.4496 255.496 85.7656 255.432 86.0376 255.304C86.3176 255.168 86.6256 254.932 86.9616 254.596ZM85.0056 250.6C84.4776 250.6 84.0416 250.764 83.6976 251.092C83.3616 251.412 83.1576 251.884 83.0856 252.508H86.8176C86.8016 251.924 86.6336 251.46 86.3136 251.116C85.9936 250.772 85.5576 250.6 85.0056 250.6ZM91.2032 249.94C91.9312 249.94 92.4992 250.116 92.9072 250.468C93.3152 250.812 93.5192 251.268 93.5192 251.836V255.76C93.5192 255.92 93.4392 256 93.2792 256H93.0392C92.8792 256 92.7992 255.92 92.7992 255.76V255.22C92.5992 255.54 92.3152 255.78 91.9472 255.94C91.5872 256.1 91.1832 256.18 90.7352 256.18C90.1112 256.18 89.6032 256.048 89.2112 255.784C88.8192 255.52 88.6232 255.112 88.6232 254.56C88.6232 254.12 88.7472 253.768 88.9952 253.504C89.2432 253.232 89.5672 253.028 89.9672 252.892C90.3672 252.748 90.8672 252.62 91.4672 252.508L92.7632 252.28V251.896C92.7632 251.488 92.6232 251.172 92.3432 250.948C92.0632 250.716 91.6952 250.6 91.2392 250.6C90.8952 250.6 90.5832 250.664 90.3032 250.792C90.0232 250.92 89.7232 251.14 89.4032 251.452C89.3472 251.508 89.2872 251.536 89.2232 251.536C89.1672 251.536 89.1152 251.512 89.0672 251.464L88.9112 251.32C88.8552 251.264 88.8272 251.204 88.8272 251.14C88.8272 251.068 88.8552 251.004 88.9112 250.948C89.2472 250.596 89.5992 250.34 89.9672 250.18C90.3432 250.02 90.7552 249.94 91.2032 249.94ZM90.7712 255.52C91.3472 255.52 91.8232 255.368 92.1992 255.064C92.5752 254.76 92.7632 254.372 92.7632 253.9V252.892L91.6472 253.108C91.1272 253.212 90.7152 253.312 90.4112 253.408C90.1072 253.504 89.8632 253.644 89.6792 253.828C89.4952 254.012 89.4032 254.252 89.4032 254.548C89.4032 254.852 89.5232 255.092 89.7632 255.268C90.0112 255.436 90.3472 255.52 90.7712 255.52ZM97.7747 255.34C97.7987 255.332 97.8307 255.328 97.8707 255.328C97.9187 255.328 97.9627 255.344 98.0027 255.376C98.0427 255.408 98.0667 255.452 98.0747 255.508L98.1107 255.676C98.1187 255.692 98.1227 255.72 98.1227 255.76C98.1227 255.872 98.0627 255.94 97.9427 255.964C97.6547 256.052 97.3467 256.096 97.0187 256.096C96.4987 256.096 96.1267 255.98 95.9027 255.748C95.6867 255.508 95.5787 255.164 95.5787 254.716V250.684H94.6907C94.5307 250.684 94.4507 250.604 94.4507 250.444V250.324C94.4507 250.164 94.5307 250.084 94.6907 250.084H95.5787V248.26C95.5787 248.1 95.6587 248.02 95.8187 248.02H96.1307C96.2907 248.02 96.3707 248.1 96.3707 248.26V250.084H97.8107C97.9707 250.084 98.0507 250.164 98.0507 250.324V250.444C98.0507 250.604 97.9707 250.684 97.8107 250.684H96.3707V254.62C96.3707 254.916 96.4267 255.124 96.5387 255.244C96.6507 255.364 96.8427 255.424 97.1147 255.424C97.3067 255.424 97.5267 255.396 97.7747 255.34ZM103.344 254.596C103.4 254.54 103.46 254.512 103.524 254.512C103.58 254.512 103.632 254.536 103.68 254.584L103.836 254.728C103.892 254.784 103.92 254.844 103.92 254.908C103.92 254.956 103.896 255.012 103.848 255.076C103.456 255.468 103.076 255.748 102.708 255.916C102.34 256.076 101.928 256.156 101.472 256.156C100.896 256.156 100.396 256.028 99.9724 255.772C99.5484 255.516 99.2204 255.16 98.9884 254.704C98.7564 254.24 98.6404 253.704 98.6404 253.096C98.6404 252.48 98.7524 251.936 98.9764 251.464C99.2084 250.984 99.5324 250.612 99.9484 250.348C100.364 250.076 100.844 249.94 101.388 249.94C102.196 249.94 102.832 250.192 103.296 250.696C103.76 251.2 103.992 251.88 103.992 252.736V252.88C103.984 252.952 103.956 253.008 103.908 253.048C103.868 253.088 103.812 253.108 103.74 253.108H99.4444C99.4684 253.78 99.6444 254.348 99.9724 254.812C100.308 255.268 100.808 255.496 101.472 255.496C101.832 255.496 102.148 255.432 102.42 255.304C102.7 255.168 103.008 254.932 103.344 254.596ZM101.388 250.6C100.86 250.6 100.424 250.764 100.08 251.092C99.7444 251.412 99.5404 251.884 99.4684 252.508H103.2C103.184 251.924 103.016 251.46 102.696 251.116C102.376 250.772 101.94 250.6 101.388 250.6ZM110.457 249.94C111.185 249.94 111.753 250.116 112.161 250.468C112.569 250.812 112.773 251.268 112.773 251.836V255.76C112.773 255.92 112.693 256 112.533 256H112.293C112.133 256 112.053 255.92 112.053 255.76V255.22C111.853 255.54 111.569 255.78 111.201 255.94C110.841 256.1 110.437 256.18 109.989 256.18C109.365 256.18 108.857 256.048 108.465 255.784C108.073 255.52 107.877 255.112 107.877 254.56C107.877 254.12 108.001 253.768 108.249 253.504C108.497 253.232 108.821 253.028 109.221 252.892C109.621 252.748 110.121 252.62 110.721 252.508L112.017 252.28V251.896C112.017 251.488 111.877 251.172 111.597 250.948C111.317 250.716 110.949 250.6 110.493 250.6C110.149 250.6 109.837 250.664 109.557 250.792C109.277 250.92 108.977 251.14 108.657 251.452C108.601 251.508 108.541 251.536 108.477 251.536C108.421 251.536 108.369 251.512 108.321 251.464L108.165 251.32C108.109 251.264 108.081 251.204 108.081 251.14C108.081 251.068 108.109 251.004 108.165 250.948C108.501 250.596 108.853 250.34 109.221 250.18C109.597 250.02 110.009 249.94 110.457 249.94ZM110.025 255.52C110.601 255.52 111.077 255.368 111.453 255.064C111.829 254.76 112.017 254.372 112.017 253.9V252.892L110.901 253.108C110.381 253.212 109.969 253.312 109.665 253.408C109.361 253.504 109.117 253.644 108.933 253.828C108.749 254.012 108.657 254.252 108.657 254.548C108.657 254.852 108.777 255.092 109.017 255.268C109.265 255.436 109.601 255.52 110.025 255.52ZM120.126 249.952C120.622 249.952 121.066 250.084 121.458 250.348C121.858 250.604 122.17 250.968 122.394 251.44C122.618 251.904 122.73 252.436 122.73 253.036C122.73 253.644 122.618 254.184 122.394 254.656C122.17 255.128 121.862 255.496 121.47 255.76C121.078 256.016 120.63 256.144 120.126 256.144C119.198 256.144 118.518 255.804 118.086 255.124V257.968C118.086 258.128 118.006 258.208 117.846 258.208H117.534C117.374 258.208 117.294 258.128 117.294 257.968V250.324C117.294 250.164 117.374 250.084 117.534 250.084H117.798C117.958 250.084 118.038 250.164 118.038 250.324V251.08C118.254 250.712 118.538 250.432 118.89 250.24C119.242 250.048 119.654 249.952 120.126 249.952ZM120.066 255.472C120.626 255.472 121.074 255.248 121.41 254.8C121.746 254.352 121.914 253.764 121.914 253.036C121.914 252.316 121.746 251.736 121.41 251.296C121.074 250.848 120.626 250.624 120.066 250.624C119.466 250.624 118.978 250.84 118.602 251.272C118.234 251.696 118.05 252.284 118.05 253.036C118.05 253.788 118.238 254.384 118.614 254.824C118.99 255.256 119.474 255.472 120.066 255.472ZM126.418 249.94C127.146 249.94 127.714 250.116 128.122 250.468C128.53 250.812 128.734 251.268 128.734 251.836V255.76C128.734 255.92 128.654 256 128.494 256H128.254C128.094 256 128.014 255.92 128.014 255.76V255.22C127.814 255.54 127.53 255.78 127.162 255.94C126.802 256.1 126.398 256.18 125.95 256.18C125.326 256.18 124.818 256.048 124.426 255.784C124.034 255.52 123.838 255.112 123.838 254.56C123.838 254.12 123.962 253.768 124.21 253.504C124.458 253.232 124.782 253.028 125.182 252.892C125.582 252.748 126.082 252.62 126.682 252.508L127.978 252.28V251.896C127.978 251.488 127.838 251.172 127.558 250.948C127.278 250.716 126.91 250.6 126.454 250.6C126.11 250.6 125.798 250.664 125.518 250.792C125.238 250.92 124.938 251.14 124.618 251.452C124.562 251.508 124.502 251.536 124.438 251.536C124.382 251.536 124.33 251.512 124.282 251.464L124.126 251.32C124.07 251.264 124.042 251.204 124.042 251.14C124.042 251.068 124.07 251.004 124.126 250.948C124.462 250.596 124.814 250.34 125.182 250.18C125.558 250.02 125.97 249.94 126.418 249.94ZM125.986 255.52C126.562 255.52 127.038 255.368 127.414 255.064C127.79 254.76 127.978 254.372 127.978 253.9V252.892L126.862 253.108C126.342 253.212 125.93 253.312 125.626 253.408C125.322 253.504 125.078 253.644 124.894 253.828C124.71 254.012 124.618 254.252 124.618 254.548C124.618 254.852 124.738 255.092 124.978 255.268C125.226 255.436 125.562 255.52 125.986 255.52ZM132.554 256.156C132.066 256.156 131.634 256.088 131.258 255.952C130.89 255.808 130.502 255.568 130.094 255.232C130.022 255.184 129.986 255.128 129.986 255.064C129.986 255.008 130.014 254.952 130.07 254.896L130.226 254.728C130.274 254.664 130.334 254.632 130.406 254.632C130.462 254.632 130.514 254.656 130.562 254.704C130.946 255 131.286 255.208 131.582 255.328C131.878 255.44 132.202 255.496 132.554 255.496C132.994 255.496 133.354 255.4 133.634 255.208C133.914 255.008 134.054 254.74 134.054 254.404C134.054 254.068 133.91 253.82 133.622 253.66C133.334 253.5 132.89 253.356 132.29 253.228C131.762 253.116 131.346 253 131.042 252.88C130.746 252.752 130.526 252.592 130.382 252.4C130.238 252.208 130.166 251.956 130.166 251.644C130.166 251.132 130.374 250.72 130.79 250.408C131.206 250.096 131.73 249.94 132.362 249.94C132.794 249.94 133.178 249.996 133.514 250.108C133.858 250.212 134.202 250.388 134.546 250.636C134.618 250.692 134.654 250.752 134.654 250.816C134.654 250.856 134.634 250.908 134.594 250.972L134.45 251.152C134.41 251.216 134.354 251.248 134.282 251.248C134.218 251.248 134.162 251.228 134.114 251.188C133.786 250.956 133.494 250.8 133.238 250.72C132.99 250.64 132.706 250.6 132.386 250.6C131.946 250.6 131.594 250.696 131.33 250.888C131.066 251.08 130.934 251.324 130.934 251.62C130.934 251.804 130.994 251.952 131.114 252.064C131.234 252.176 131.406 252.272 131.63 252.352C131.854 252.424 132.182 252.508 132.614 252.604C133.414 252.78 133.982 252.996 134.318 253.252C134.662 253.508 134.834 253.88 134.834 254.368C134.834 254.904 134.622 255.336 134.198 255.664C133.774 255.992 133.226 256.156 132.554 256.156ZM138.237 256.156C137.749 256.156 137.317 256.088 136.941 255.952C136.573 255.808 136.185 255.568 135.777 255.232C135.705 255.184 135.669 255.128 135.669 255.064C135.669 255.008 135.697 254.952 135.753 254.896L135.909 254.728C135.957 254.664 136.017 254.632 136.089 254.632C136.145 254.632 136.197 254.656 136.245 254.704C136.629 255 136.969 255.208 137.265 255.328C137.561 255.44 137.885 255.496 138.237 255.496C138.677 255.496 139.037 255.4 139.317 255.208C139.597 255.008 139.737 254.74 139.737 254.404C139.737 254.068 139.593 253.82 139.305 253.66C139.017 253.5 138.573 253.356 137.973 253.228C137.445 253.116 137.029 253 136.725 252.88C136.429 252.752 136.209 252.592 136.065 252.4C135.921 252.208 135.849 251.956 135.849 251.644C135.849 251.132 136.057 250.72 136.473 250.408C136.889 250.096 137.413 249.94 138.045 249.94C138.477 249.94 138.861 249.996 139.197 250.108C139.541 250.212 139.885 250.388 140.229 250.636C140.301 250.692 140.337 250.752 140.337 250.816C140.337 250.856 140.317 250.908 140.277 250.972L140.133 251.152C140.093 251.216 140.037 251.248 139.965 251.248C139.901 251.248 139.845 251.228 139.797 251.188C139.469 250.956 139.177 250.8 138.921 250.72C138.673 250.64 138.389 250.6 138.069 250.6C137.629 250.6 137.277 250.696 137.013 250.888C136.749 251.08 136.617 251.324 136.617 251.62C136.617 251.804 136.677 251.952 136.797 252.064C136.917 252.176 137.089 252.272 137.313 252.352C137.537 252.424 137.865 252.508 138.297 252.604C139.097 252.78 139.665 252.996 140.001 253.252C140.345 253.508 140.517 253.88 140.517 254.368C140.517 254.904 140.305 255.336 139.881 255.664C139.457 255.992 138.909 256.156 138.237 256.156ZM148.41 250.288C148.442 250.152 148.534 250.084 148.686 250.084H149.01C149.098 250.084 149.158 250.108 149.19 250.156C149.23 250.204 149.238 250.268 149.214 250.348L147.666 255.796C147.634 255.932 147.542 256 147.39 256H146.85C146.714 256 146.626 255.932 146.586 255.796L146.034 253.96C145.746 253 145.478 252.016 145.23 251.008C144.99 251.984 144.726 252.976 144.438 253.984L143.91 255.796C143.878 255.932 143.786 256 143.634 256H143.118C142.966 256 142.874 255.932 142.842 255.796L141.294 250.348C141.286 250.332 141.282 250.304 141.282 250.264C141.282 250.208 141.302 250.164 141.342 250.132C141.382 250.1 141.434 250.084 141.498 250.084H141.822C141.974 250.084 142.066 250.152 142.098 250.288L142.674 252.412C142.938 253.38 143.182 254.344 143.406 255.304C143.582 254.592 143.842 253.628 144.186 252.412L144.798 250.288C144.83 250.152 144.922 250.084 145.074 250.084H145.434C145.578 250.084 145.666 250.152 145.698 250.288L146.322 252.412C146.594 253.396 146.85 254.364 147.09 255.316C147.274 254.516 147.522 253.548 147.834 252.412L148.41 250.288ZM152.824 256.156C152.272 256.156 151.78 256.024 151.348 255.76C150.916 255.496 150.58 255.132 150.34 254.668C150.1 254.196 149.98 253.656 149.98 253.048C149.98 252.44 150.1 251.904 150.34 251.44C150.58 250.968 150.916 250.6 151.348 250.336C151.78 250.072 152.272 249.94 152.824 249.94C153.376 249.94 153.868 250.072 154.3 250.336C154.732 250.6 155.068 250.968 155.308 251.44C155.548 251.904 155.668 252.44 155.668 253.048C155.668 253.656 155.548 254.196 155.308 254.668C155.068 255.132 154.732 255.496 154.3 255.76C153.868 256.024 153.376 256.156 152.824 256.156ZM152.824 255.496C153.44 255.496 153.932 255.272 154.3 254.824C154.668 254.368 154.852 253.776 154.852 253.048C154.852 252.32 154.668 251.732 154.3 251.284C153.932 250.828 153.44 250.6 152.824 250.6C152.208 250.6 151.716 250.828 151.348 251.284C150.98 251.732 150.796 252.32 150.796 253.048C150.796 253.776 150.98 254.368 151.348 254.824C151.716 255.272 152.208 255.496 152.824 255.496ZM159.252 250.036C159.452 250.036 159.688 250.068 159.96 250.132C160.104 250.18 160.16 250.28 160.128 250.432L160.08 250.624C160.04 250.776 159.94 250.832 159.78 250.792C159.588 250.744 159.412 250.72 159.252 250.72C158.844 250.72 158.504 250.896 158.232 251.248C157.968 251.6 157.836 252.088 157.836 252.712V255.76C157.836 255.92 157.756 256 157.596 256H157.284C157.124 256 157.044 255.92 157.044 255.76V250.324C157.044 250.164 157.124 250.084 157.284 250.084H157.548C157.708 250.084 157.788 250.164 157.788 250.324V250.984C157.924 250.688 158.116 250.456 158.364 250.288C158.62 250.12 158.916 250.036 159.252 250.036ZM165.148 247.72C165.148 247.56 165.228 247.48 165.388 247.48H165.7C165.86 247.48 165.94 247.56 165.94 247.72V255.76C165.94 255.92 165.86 256 165.7 256H165.448C165.288 256 165.208 255.92 165.208 255.76V254.98C164.992 255.356 164.708 255.644 164.356 255.844C164.004 256.044 163.588 256.144 163.108 256.144C162.604 256.144 162.156 256.016 161.764 255.76C161.372 255.496 161.064 255.132 160.84 254.668C160.616 254.196 160.504 253.656 160.504 253.048C160.504 252.44 160.616 251.904 160.84 251.44C161.072 250.968 161.388 250.604 161.788 250.348C162.188 250.084 162.636 249.952 163.132 249.952C164.044 249.952 164.716 250.292 165.148 250.972V247.72ZM163.168 255.472C163.768 255.472 164.252 255.26 164.62 254.836C164.996 254.404 165.184 253.808 165.184 253.048C165.184 252.296 164.996 251.704 164.62 251.272C164.252 250.84 163.768 250.624 163.168 250.624C162.616 250.624 162.168 250.848 161.824 251.296C161.488 251.744 161.32 252.328 161.32 253.048C161.32 253.776 161.488 254.364 161.824 254.812C162.16 255.252 162.608 255.472 163.168 255.472ZM177.086 250.288C177.118 250.152 177.21 250.084 177.362 250.084H177.686C177.774 250.084 177.834 250.108 177.866 250.156C177.906 250.204 177.914 250.268 177.89 250.348L176.342 255.796C176.31 255.932 176.218 256 176.066 256H175.526C175.39 256 175.302 255.932 175.262 255.796L174.71 253.96C174.422 253 174.154 252.016 173.906 251.008C173.666 251.984 173.402 252.976 173.114 253.984L172.586 255.796C172.554 255.932 172.462 256 172.31 256H171.794C171.642 256 171.55 255.932 171.518 255.796L169.97 250.348C169.962 250.332 169.958 250.304 169.958 250.264C169.958 250.208 169.978 250.164 170.018 250.132C170.058 250.1 170.11 250.084 170.174 250.084H170.498C170.65 250.084 170.742 250.152 170.774 250.288L171.35 252.412C171.614 253.38 171.858 254.344 172.082 255.304C172.258 254.592 172.518 253.628 172.862 252.412L173.474 250.288C173.506 250.152 173.598 250.084 173.75 250.084H174.11C174.254 250.084 174.342 250.152 174.374 250.288L174.998 252.412C175.27 253.396 175.526 254.364 175.766 255.316C175.95 254.516 176.198 253.548 176.51 252.412L177.086 250.288ZM179.542 248.584C179.382 248.584 179.246 248.528 179.134 248.416C179.03 248.304 178.978 248.168 178.978 248.008C178.978 247.848 179.03 247.716 179.134 247.612C179.246 247.508 179.382 247.456 179.542 247.456C179.71 247.456 179.846 247.508 179.95 247.612C180.062 247.716 180.118 247.848 180.118 248.008C180.118 248.168 180.062 248.304 179.95 248.416C179.846 248.528 179.71 248.584 179.542 248.584ZM179.386 256C179.226 256 179.146 255.92 179.146 255.76V250.324C179.146 250.164 179.226 250.084 179.386 250.084H179.698C179.858 250.084 179.938 250.164 179.938 250.324V255.76C179.938 255.92 179.858 256 179.698 256H179.386ZM184.365 255.34C184.389 255.332 184.421 255.328 184.461 255.328C184.509 255.328 184.553 255.344 184.593 255.376C184.633 255.408 184.657 255.452 184.665 255.508L184.701 255.676C184.709 255.692 184.713 255.72 184.713 255.76C184.713 255.872 184.653 255.94 184.533 255.964C184.245 256.052 183.937 256.096 183.609 256.096C183.089 256.096 182.717 255.98 182.493 255.748C182.277 255.508 182.169 255.164 182.169 254.716V250.684H181.281C181.121 250.684 181.041 250.604 181.041 250.444V250.324C181.041 250.164 181.121 250.084 181.281 250.084H182.169V248.26C182.169 248.1 182.249 248.02 182.409 248.02H182.721C182.881 248.02 182.961 248.1 182.961 248.26V250.084H184.401C184.561 250.084 184.641 250.164 184.641 250.324V250.444C184.641 250.604 184.561 250.684 184.401 250.684H182.961V254.62C182.961 254.916 183.017 255.124 183.129 255.244C183.241 255.364 183.433 255.424 183.705 255.424C183.897 255.424 184.117 255.396 184.365 255.34ZM188.489 249.94C189.177 249.94 189.701 250.136 190.061 250.528C190.421 250.912 190.601 251.388 190.601 251.956V255.76C190.601 255.92 190.521 256 190.361 256H190.049C189.889 256 189.809 255.92 189.809 255.76V252.22C189.809 251.692 189.681 251.292 189.425 251.02C189.169 250.748 188.801 250.612 188.321 250.612C188.017 250.612 187.737 250.688 187.481 250.84C187.225 250.984 187.021 251.184 186.869 251.44C186.717 251.696 186.641 251.976 186.641 252.28V255.76C186.641 255.92 186.561 256 186.401 256H186.089C185.929 256 185.849 255.92 185.849 255.76V247.72C185.849 247.56 185.929 247.48 186.089 247.48H186.401C186.561 247.48 186.641 247.56 186.641 247.72V250.852C186.833 250.548 187.089 250.32 187.409 250.168C187.737 250.016 188.097 249.94 188.489 249.94ZM197.398 249.94C198.126 249.94 198.694 250.116 199.102 250.468C199.51 250.812 199.714 251.268 199.714 251.836V255.76C199.714 255.92 199.634 256 199.474 256H199.234C199.074 256 198.994 255.92 198.994 255.76V255.22C198.794 255.54 198.51 255.78 198.142 255.94C197.782 256.1 197.378 256.18 196.93 256.18C196.306 256.18 195.798 256.048 195.406 255.784C195.014 255.52 194.818 255.112 194.818 254.56C194.818 254.12 194.942 253.768 195.19 253.504C195.438 253.232 195.762 253.028 196.162 252.892C196.562 252.748 197.062 252.62 197.662 252.508L198.958 252.28V251.896C198.958 251.488 198.818 251.172 198.538 250.948C198.258 250.716 197.89 250.6 197.434 250.6C197.09 250.6 196.778 250.664 196.498 250.792C196.218 250.92 195.918 251.14 195.598 251.452C195.542 251.508 195.482 251.536 195.418 251.536C195.362 251.536 195.31 251.512 195.262 251.464L195.106 251.32C195.05 251.264 195.022 251.204 195.022 251.14C195.022 251.068 195.05 251.004 195.106 250.948C195.442 250.596 195.794 250.34 196.162 250.18C196.538 250.02 196.95 249.94 197.398 249.94ZM196.966 255.52C197.542 255.52 198.018 255.368 198.394 255.064C198.77 254.76 198.958 254.372 198.958 253.9V252.892L197.842 253.108C197.322 253.212 196.91 253.312 196.606 253.408C196.302 253.504 196.058 253.644 195.874 253.828C195.69 254.012 195.598 254.252 195.598 254.548C195.598 254.852 195.718 255.092 195.958 255.268C196.206 255.436 196.542 255.52 196.966 255.52ZM203.97 255.34C203.994 255.332 204.026 255.328 204.066 255.328C204.114 255.328 204.158 255.344 204.198 255.376C204.238 255.408 204.262 255.452 204.27 255.508L204.306 255.676C204.314 255.692 204.318 255.72 204.318 255.76C204.318 255.872 204.258 255.94 204.138 255.964C203.85 256.052 203.542 256.096 203.214 256.096C202.694 256.096 202.322 255.98 202.098 255.748C201.882 255.508 201.774 255.164 201.774 254.716V250.684H200.886C200.726 250.684 200.646 250.604 200.646 250.444V250.324C200.646 250.164 200.726 250.084 200.886 250.084H201.774V248.26C201.774 248.1 201.854 248.02 202.014 248.02H202.326C202.486 248.02 202.566 248.1 202.566 248.26V250.084H204.006C204.166 250.084 204.246 250.164 204.246 250.324V250.444C204.246 250.604 204.166 250.684 204.006 250.684H202.566V254.62C202.566 254.916 202.622 255.124 202.734 255.244C202.846 255.364 203.038 255.424 203.31 255.424C203.502 255.424 203.722 255.396 203.97 255.34ZM208.472 256C208.312 256 208.232 255.92 208.232 255.76V247.72C208.232 247.56 208.312 247.48 208.472 247.48H208.784C208.944 247.48 209.024 247.56 209.024 247.72V255.76C209.024 255.92 208.944 256 208.784 256H208.472ZM215.118 254.596C215.174 254.54 215.234 254.512 215.298 254.512C215.354 254.512 215.406 254.536 215.454 254.584L215.61 254.728C215.666 254.784 215.694 254.844 215.694 254.908C215.694 254.956 215.67 255.012 215.622 255.076C215.23 255.468 214.85 255.748 214.482 255.916C214.114 256.076 213.702 256.156 213.246 256.156C212.67 256.156 212.17 256.028 211.746 255.772C211.322 255.516 210.994 255.16 210.762 254.704C210.53 254.24 210.414 253.704 210.414 253.096C210.414 252.48 210.526 251.936 210.75 251.464C210.982 250.984 211.306 250.612 211.722 250.348C212.138 250.076 212.618 249.94 213.162 249.94C213.97 249.94 214.606 250.192 215.07 250.696C215.534 251.2 215.766 251.88 215.766 252.736V252.88C215.758 252.952 215.73 253.008 215.682 253.048C215.642 253.088 215.586 253.108 215.514 253.108H211.218C211.242 253.78 211.418 254.348 211.746 254.812C212.082 255.268 212.582 255.496 213.246 255.496C213.606 255.496 213.922 255.432 214.194 255.304C214.474 255.168 214.782 254.932 215.118 254.596ZM213.162 250.6C212.634 250.6 212.198 250.764 211.854 251.092C211.518 251.412 211.314 251.884 211.242 252.508H214.974C214.958 251.924 214.79 251.46 214.47 251.116C214.15 250.772 213.714 250.6 213.162 250.6ZM219.359 249.94C220.087 249.94 220.655 250.116 221.063 250.468C221.471 250.812 221.675 251.268 221.675 251.836V255.76C221.675 255.92 221.595 256 221.435 256H221.195C221.035 256 220.955 255.92 220.955 255.76V255.22C220.755 255.54 220.471 255.78 220.103 255.94C219.743 256.1 219.339 256.18 218.891 256.18C218.267 256.18 217.759 256.048 217.367 255.784C216.975 255.52 216.779 255.112 216.779 254.56C216.779 254.12 216.903 253.768 217.151 253.504C217.399 253.232 217.723 253.028 218.123 252.892C218.523 252.748 219.023 252.62 219.623 252.508L220.919 252.28V251.896C220.919 251.488 220.779 251.172 220.499 250.948C220.219 250.716 219.851 250.6 219.395 250.6C219.051 250.6 218.739 250.664 218.459 250.792C218.179 250.92 217.879 251.14 217.559 251.452C217.503 251.508 217.443 251.536 217.379 251.536C217.323 251.536 217.271 251.512 217.223 251.464L217.067 251.32C217.011 251.264 216.983 251.204 216.983 251.14C216.983 251.068 217.011 251.004 217.067 250.948C217.403 250.596 217.755 250.34 218.123 250.18C218.499 250.02 218.911 249.94 219.359 249.94ZM218.927 255.52C219.503 255.52 219.979 255.368 220.355 255.064C220.731 254.76 220.919 254.372 220.919 253.9V252.892L219.803 253.108C219.283 253.212 218.871 253.312 218.567 253.408C218.263 253.504 218.019 253.644 217.835 253.828C217.651 254.012 217.559 254.252 217.559 254.548C217.559 254.852 217.679 255.092 217.919 255.268C218.167 255.436 218.503 255.52 218.927 255.52ZM225.495 256.156C225.007 256.156 224.575 256.088 224.199 255.952C223.831 255.808 223.443 255.568 223.035 255.232C222.963 255.184 222.927 255.128 222.927 255.064C222.927 255.008 222.955 254.952 223.011 254.896L223.167 254.728C223.215 254.664 223.275 254.632 223.347 254.632C223.403 254.632 223.455 254.656 223.503 254.704C223.887 255 224.227 255.208 224.523 255.328C224.819 255.44 225.143 255.496 225.495 255.496C225.935 255.496 226.295 255.4 226.575 255.208C226.855 255.008 226.995 254.74 226.995 254.404C226.995 254.068 226.851 253.82 226.563 253.66C226.275 253.5 225.831 253.356 225.231 253.228C224.703 253.116 224.287 253 223.983 252.88C223.687 252.752 223.467 252.592 223.323 252.4C223.179 252.208 223.107 251.956 223.107 251.644C223.107 251.132 223.315 250.72 223.731 250.408C224.147 250.096 224.671 249.94 225.303 249.94C225.735 249.94 226.119 249.996 226.455 250.108C226.799 250.212 227.143 250.388 227.487 250.636C227.559 250.692 227.595 250.752 227.595 250.816C227.595 250.856 227.575 250.908 227.535 250.972L227.391 251.152C227.351 251.216 227.295 251.248 227.223 251.248C227.159 251.248 227.103 251.228 227.055 251.188C226.727 250.956 226.435 250.8 226.179 250.72C225.931 250.64 225.647 250.6 225.327 250.6C224.887 250.6 224.535 250.696 224.271 250.888C224.007 251.08 223.875 251.324 223.875 251.62C223.875 251.804 223.935 251.952 224.055 252.064C224.175 252.176 224.347 252.272 224.571 252.352C224.795 252.424 225.123 252.508 225.555 252.604C226.355 252.78 226.923 252.996 227.259 253.252C227.603 253.508 227.775 253.88 227.775 254.368C227.775 254.904 227.563 255.336 227.139 255.664C226.715 255.992 226.167 256.156 225.495 256.156ZM231.755 255.34C231.779 255.332 231.811 255.328 231.851 255.328C231.899 255.328 231.943 255.344 231.983 255.376C232.023 255.408 232.047 255.452 232.055 255.508L232.091 255.676C232.099 255.692 232.103 255.72 232.103 255.76C232.103 255.872 232.043 255.94 231.923 255.964C231.635 256.052 231.327 256.096 230.999 256.096C230.479 256.096 230.107 255.98 229.883 255.748C229.667 255.508 229.559 255.164 229.559 254.716V250.684H228.671C228.511 250.684 228.431 250.604 228.431 250.444V250.324C228.431 250.164 228.511 250.084 228.671 250.084H229.559V248.26C229.559 248.1 229.639 248.02 229.799 248.02H230.111C230.271 248.02 230.351 248.1 230.351 248.26V250.084H231.791C231.951 250.084 232.031 250.164 232.031 250.324V250.444C232.031 250.604 231.951 250.684 231.791 250.684H230.351V254.62C230.351 254.916 230.407 255.124 230.519 255.244C230.631 255.364 230.823 255.424 231.095 255.424C231.287 255.424 231.507 255.396 231.755 255.34ZM240.097 251.392C240.641 251.584 241.061 251.884 241.357 252.292C241.653 252.692 241.801 253.16 241.801 253.696C241.801 254.168 241.677 254.596 241.429 254.98C241.181 255.356 240.825 255.652 240.361 255.868C239.897 256.084 239.349 256.192 238.717 256.192C238.085 256.192 237.537 256.084 237.073 255.868C236.609 255.652 236.253 255.356 236.005 254.98C235.757 254.596 235.633 254.168 235.633 253.696C235.633 253.16 235.781 252.692 236.077 252.292C236.373 251.884 236.793 251.584 237.337 251.392C236.945 251.216 236.637 250.972 236.413 250.66C236.189 250.34 236.077 249.964 236.077 249.532C236.077 249.1 236.189 248.716 236.413 248.38C236.637 248.044 236.949 247.784 237.349 247.6C237.749 247.408 238.205 247.312 238.717 247.312C239.229 247.312 239.685 247.408 240.085 247.6C240.485 247.784 240.797 248.044 241.021 248.38C241.245 248.716 241.357 249.1 241.357 249.532C241.357 249.964 241.245 250.34 241.021 250.66C240.797 250.972 240.489 251.216 240.097 251.392ZM236.869 249.508C236.869 249.988 237.037 250.372 237.373 250.66C237.717 250.948 238.165 251.092 238.717 251.092C239.269 251.092 239.713 250.948 240.049 250.66C240.393 250.372 240.565 249.988 240.565 249.508C240.565 249.06 240.397 248.696 240.061 248.416C239.733 248.128 239.285 247.984 238.717 247.984C238.149 247.984 237.697 248.128 237.361 248.416C237.033 248.696 236.869 249.06 236.869 249.508ZM238.717 255.484C239.413 255.484 239.961 255.316 240.361 254.98C240.769 254.636 240.973 254.2 240.973 253.672C240.973 253.104 240.769 252.644 240.361 252.292C239.953 251.94 239.405 251.764 238.717 251.764C238.029 251.764 237.481 251.94 237.073 252.292C236.665 252.644 236.461 253.104 236.461 253.672C236.461 254.2 236.661 254.636 237.061 254.98C237.469 255.316 238.021 255.484 238.717 255.484ZM248.354 256.156C247.786 256.156 247.29 256.028 246.866 255.772C246.45 255.508 246.126 255.144 245.894 254.68C245.67 254.208 245.558 253.664 245.558 253.048C245.558 252.44 245.67 251.9 245.894 251.428C246.126 250.956 246.45 250.592 246.866 250.336C247.29 250.072 247.778 249.94 248.33 249.94C248.778 249.94 249.17 250.016 249.506 250.168C249.842 250.312 250.166 250.552 250.478 250.888C250.526 250.936 250.55 250.988 250.55 251.044C250.55 251.116 250.518 251.176 250.454 251.224L250.286 251.38C250.238 251.428 250.182 251.452 250.118 251.452C250.062 251.452 250.002 251.42 249.938 251.356C249.658 251.076 249.39 250.88 249.134 250.768C248.886 250.656 248.61 250.6 248.306 250.6C247.89 250.6 247.534 250.716 247.238 250.948C246.95 251.18 246.734 251.484 246.59 251.86C246.446 252.228 246.374 252.624 246.374 253.048C246.374 253.472 246.446 253.872 246.59 254.248C246.734 254.616 246.954 254.916 247.25 255.148C247.546 255.372 247.91 255.484 248.342 255.484C248.662 255.484 248.942 255.428 249.182 255.316C249.43 255.196 249.706 254.972 250.01 254.644C250.074 254.58 250.134 254.548 250.19 254.548C250.254 254.548 250.31 254.572 250.358 254.62L250.526 254.752C250.582 254.8 250.61 254.856 250.61 254.92C250.61 254.984 250.574 255.06 250.502 255.148C250.166 255.516 249.83 255.776 249.494 255.928C249.158 256.08 248.778 256.156 248.354 256.156ZM254.536 249.94C255.224 249.94 255.748 250.136 256.108 250.528C256.468 250.912 256.648 251.388 256.648 251.956V255.76C256.648 255.92 256.568 256 256.408 256H256.096C255.936 256 255.856 255.92 255.856 255.76V252.22C255.856 251.692 255.728 251.292 255.472 251.02C255.216 250.748 254.848 250.612 254.368 250.612C254.064 250.612 253.784 250.688 253.528 250.84C253.272 250.984 253.068 251.184 252.916 251.44C252.764 251.696 252.688 251.976 252.688 252.28V255.76C252.688 255.92 252.608 256 252.448 256H252.136C251.976 256 251.896 255.92 251.896 255.76V247.72C251.896 247.56 251.976 247.48 252.136 247.48H252.448C252.608 247.48 252.688 247.56 252.688 247.72V250.852C252.88 250.548 253.136 250.32 253.456 250.168C253.784 250.016 254.144 249.94 254.536 249.94ZM260.68 249.94C261.408 249.94 261.976 250.116 262.384 250.468C262.792 250.812 262.996 251.268 262.996 251.836V255.76C262.996 255.92 262.916 256 262.756 256H262.516C262.356 256 262.276 255.92 262.276 255.76V255.22C262.076 255.54 261.792 255.78 261.424 255.94C261.064 256.1 260.66 256.18 260.212 256.18C259.588 256.18 259.08 256.048 258.688 255.784C258.296 255.52 258.1 255.112 258.1 254.56C258.1 254.12 258.224 253.768 258.472 253.504C258.72 253.232 259.044 253.028 259.444 252.892C259.844 252.748 260.344 252.62 260.944 252.508L262.24 252.28V251.896C262.24 251.488 262.1 251.172 261.82 250.948C261.54 250.716 261.172 250.6 260.716 250.6C260.372 250.6 260.06 250.664 259.78 250.792C259.5 250.92 259.2 251.14 258.88 251.452C258.824 251.508 258.764 251.536 258.7 251.536C258.644 251.536 258.592 251.512 258.544 251.464L258.388 251.32C258.332 251.264 258.304 251.204 258.304 251.14C258.304 251.068 258.332 251.004 258.388 250.948C258.724 250.596 259.076 250.34 259.444 250.18C259.82 250.02 260.232 249.94 260.68 249.94ZM260.248 255.52C260.824 255.52 261.3 255.368 261.676 255.064C262.052 254.76 262.24 254.372 262.24 253.9V252.892L261.124 253.108C260.604 253.212 260.192 253.312 259.888 253.408C259.584 253.504 259.34 253.644 259.156 253.828C258.972 254.012 258.88 254.252 258.88 254.548C258.88 254.852 259 255.092 259.24 255.268C259.488 255.436 259.824 255.52 260.248 255.52ZM266.959 250.036C267.159 250.036 267.395 250.068 267.667 250.132C267.811 250.18 267.867 250.28 267.835 250.432L267.787 250.624C267.747 250.776 267.647 250.832 267.487 250.792C267.295 250.744 267.119 250.72 266.959 250.72C266.551 250.72 266.211 250.896 265.939 251.248C265.675 251.6 265.543 252.088 265.543 252.712V255.76C265.543 255.92 265.463 256 265.303 256H264.991C264.831 256 264.751 255.92 264.751 255.76V250.324C264.751 250.164 264.831 250.084 264.991 250.084H265.255C265.415 250.084 265.495 250.164 265.495 250.324V250.984C265.631 250.688 265.823 250.456 266.071 250.288C266.327 250.12 266.623 250.036 266.959 250.036ZM271.039 249.94C271.767 249.94 272.335 250.116 272.743 250.468C273.151 250.812 273.355 251.268 273.355 251.836V255.76C273.355 255.92 273.275 256 273.115 256H272.875C272.715 256 272.635 255.92 272.635 255.76V255.22C272.435 255.54 272.151 255.78 271.783 255.94C271.423 256.1 271.019 256.18 270.571 256.18C269.947 256.18 269.439 256.048 269.047 255.784C268.655 255.52 268.459 255.112 268.459 254.56C268.459 254.12 268.583 253.768 268.831 253.504C269.079 253.232 269.403 253.028 269.803 252.892C270.203 252.748 270.703 252.62 271.303 252.508L272.599 252.28V251.896C272.599 251.488 272.459 251.172 272.179 250.948C271.899 250.716 271.531 250.6 271.075 250.6C270.731 250.6 270.419 250.664 270.139 250.792C269.859 250.92 269.559 251.14 269.239 251.452C269.183 251.508 269.123 251.536 269.059 251.536C269.003 251.536 268.951 251.512 268.903 251.464L268.747 251.32C268.691 251.264 268.663 251.204 268.663 251.14C268.663 251.068 268.691 251.004 268.747 250.948C269.083 250.596 269.435 250.34 269.803 250.18C270.179 250.02 270.591 249.94 271.039 249.94ZM270.607 255.52C271.183 255.52 271.659 255.368 272.035 255.064C272.411 254.76 272.599 254.372 272.599 253.9V252.892L271.483 253.108C270.963 253.212 270.551 253.312 270.247 253.408C269.943 253.504 269.699 253.644 269.515 253.828C269.331 254.012 269.239 254.252 269.239 254.548C269.239 254.852 269.359 255.092 269.599 255.268C269.847 255.436 270.183 255.52 270.607 255.52ZM277.511 256.156C276.943 256.156 276.447 256.028 276.023 255.772C275.607 255.508 275.283 255.144 275.051 254.68C274.827 254.208 274.715 253.664 274.715 253.048C274.715 252.44 274.827 251.9 275.051 251.428C275.283 250.956 275.607 250.592 276.023 250.336C276.447 250.072 276.935 249.94 277.487 249.94C277.935 249.94 278.327 250.016 278.663 250.168C278.999 250.312 279.323 250.552 279.635 250.888C279.683 250.936 279.707 250.988 279.707 251.044C279.707 251.116 279.675 251.176 279.611 251.224L279.443 251.38C279.395 251.428 279.339 251.452 279.275 251.452C279.219 251.452 279.159 251.42 279.095 251.356C278.815 251.076 278.547 250.88 278.291 250.768C278.043 250.656 277.767 250.6 277.463 250.6C277.047 250.6 276.691 250.716 276.395 250.948C276.107 251.18 275.891 251.484 275.747 251.86C275.603 252.228 275.531 252.624 275.531 253.048C275.531 253.472 275.603 253.872 275.747 254.248C275.891 254.616 276.111 254.916 276.407 255.148C276.703 255.372 277.067 255.484 277.499 255.484C277.819 255.484 278.099 255.428 278.339 255.316C278.587 255.196 278.863 254.972 279.167 254.644C279.231 254.58 279.291 254.548 279.347 254.548C279.411 254.548 279.467 254.572 279.515 254.62L279.683 254.752C279.739 254.8 279.767 254.856 279.767 254.92C279.767 254.984 279.731 255.06 279.659 255.148C279.323 255.516 278.987 255.776 278.651 255.928C278.315 256.08 277.935 256.156 277.511 256.156ZM283.751 255.34C283.775 255.332 283.807 255.328 283.847 255.328C283.895 255.328 283.939 255.344 283.979 255.376C284.019 255.408 284.043 255.452 284.051 255.508L284.087 255.676C284.095 255.692 284.099 255.72 284.099 255.76C284.099 255.872 284.039 255.94 283.919 255.964C283.631 256.052 283.323 256.096 282.995 256.096C282.475 256.096 282.103 255.98 281.879 255.748C281.663 255.508 281.555 255.164 281.555 254.716V250.684H280.667C280.507 250.684 280.427 250.604 280.427 250.444V250.324C280.427 250.164 280.507 250.084 280.667 250.084H281.555V248.26C281.555 248.1 281.635 248.02 281.795 248.02H282.107C282.267 248.02 282.347 248.1 282.347 248.26V250.084H283.787C283.947 250.084 284.027 250.164 284.027 250.324V250.444C284.027 250.604 283.947 250.684 283.787 250.684H282.347V254.62C282.347 254.916 282.403 255.124 282.515 255.244C282.627 255.364 282.819 255.424 283.091 255.424C283.283 255.424 283.503 255.396 283.751 255.34ZM289.321 254.596C289.377 254.54 289.437 254.512 289.501 254.512C289.557 254.512 289.609 254.536 289.657 254.584L289.813 254.728C289.869 254.784 289.897 254.844 289.897 254.908C289.897 254.956 289.873 255.012 289.825 255.076C289.433 255.468 289.053 255.748 288.685 255.916C288.317 256.076 287.905 256.156 287.449 256.156C286.873 256.156 286.373 256.028 285.949 255.772C285.525 255.516 285.197 255.16 284.965 254.704C284.733 254.24 284.617 253.704 284.617 253.096C284.617 252.48 284.729 251.936 284.953 251.464C285.185 250.984 285.509 250.612 285.925 250.348C286.341 250.076 286.821 249.94 287.365 249.94C288.173 249.94 288.809 250.192 289.273 250.696C289.737 251.2 289.969 251.88 289.969 252.736V252.88C289.961 252.952 289.933 253.008 289.885 253.048C289.845 253.088 289.789 253.108 289.717 253.108H285.421C285.445 253.78 285.621 254.348 285.949 254.812C286.285 255.268 286.785 255.496 287.449 255.496C287.809 255.496 288.125 255.432 288.397 255.304C288.677 255.168 288.985 254.932 289.321 254.596ZM287.365 250.6C286.837 250.6 286.401 250.764 286.057 251.092C285.721 251.412 285.517 251.884 285.445 252.508H289.177C289.161 251.924 288.993 251.46 288.673 251.116C288.353 250.772 287.917 250.6 287.365 250.6ZM293.596 250.036C293.796 250.036 294.032 250.068 294.304 250.132C294.448 250.18 294.504 250.28 294.472 250.432L294.424 250.624C294.384 250.776 294.284 250.832 294.124 250.792C293.932 250.744 293.756 250.72 293.596 250.72C293.188 250.72 292.848 250.896 292.576 251.248C292.312 251.6 292.18 252.088 292.18 252.712V255.76C292.18 255.92 292.1 256 291.94 256H291.628C291.468 256 291.388 255.92 291.388 255.76V250.324C291.388 250.164 291.468 250.084 291.628 250.084H291.892C292.052 250.084 292.132 250.164 292.132 250.324V250.984C292.268 250.688 292.46 250.456 292.708 250.288C292.964 250.12 293.26 250.036 293.596 250.036ZM297.436 256.156C296.948 256.156 296.516 256.088 296.14 255.952C295.772 255.808 295.384 255.568 294.976 255.232C294.904 255.184 294.868 255.128 294.868 255.064C294.868 255.008 294.896 254.952 294.952 254.896L295.108 254.728C295.156 254.664 295.216 254.632 295.288 254.632C295.344 254.632 295.396 254.656 295.444 254.704C295.828 255 296.168 255.208 296.464 255.328C296.76 255.44 297.084 255.496 297.436 255.496C297.876 255.496 298.236 255.4 298.516 255.208C298.796 255.008 298.936 254.74 298.936 254.404C298.936 254.068 298.792 253.82 298.504 253.66C298.216 253.5 297.772 253.356 297.172 253.228C296.644 253.116 296.228 253 295.924 252.88C295.628 252.752 295.408 252.592 295.264 252.4C295.12 252.208 295.048 251.956 295.048 251.644C295.048 251.132 295.256 250.72 295.672 250.408C296.088 250.096 296.612 249.94 297.244 249.94C297.676 249.94 298.06 249.996 298.396 250.108C298.74 250.212 299.084 250.388 299.428 250.636C299.5 250.692 299.536 250.752 299.536 250.816C299.536 250.856 299.516 250.908 299.476 250.972L299.332 251.152C299.292 251.216 299.236 251.248 299.164 251.248C299.1 251.248 299.044 251.228 298.996 251.188C298.668 250.956 298.376 250.8 298.12 250.72C297.872 250.64 297.588 250.6 297.268 250.6C296.828 250.6 296.476 250.696 296.212 250.888C295.948 251.08 295.816 251.324 295.816 251.62C295.816 251.804 295.876 251.952 295.996 252.064C296.116 252.176 296.288 252.272 296.512 252.352C296.736 252.424 297.064 252.508 297.496 252.604C298.296 252.78 298.864 252.996 299.2 253.252C299.544 253.508 299.716 253.88 299.716 254.368C299.716 254.904 299.504 255.336 299.08 255.664C298.656 255.992 298.108 256.156 297.436 256.156ZM301.38 256.084C301.212 256.084 301.068 256.024 300.948 255.904C300.828 255.784 300.768 255.64 300.768 255.472C300.768 255.304 300.828 255.16 300.948 255.04C301.068 254.92 301.212 254.86 301.38 254.86C301.548 254.86 301.692 254.92 301.812 255.04C301.932 255.16 301.992 255.304 301.992 255.472C301.992 255.64 301.932 255.784 301.812 255.904C301.692 256.024 301.548 256.084 301.38 256.084Z" fill="#D9270A"/>
</svg>
