<svg width="351" height="32" viewBox="0 0 351 32" fill="none" xmlns="http://www.w3.org/2000/svg">
<path d="M18.5137 1.46343C18.7179 0.805464 19.1716 0.476483 19.875 0.476483H23.7547C24.1404 0.476483 24.4353 0.57858 24.6395 0.782776C24.8437 0.986971 24.9458 1.28192 24.9458 1.66762V23.4485C24.9458 23.8115 24.8437 24.1064 24.6395 24.3333C24.4353 24.5375 24.1404 24.6396 23.7547 24.6396H22.3594C21.9963 24.6396 21.7014 24.5375 21.4745 24.3333C21.2703 24.1064 21.1682 23.8115 21.1682 23.4485V12.49C21.1682 11.1287 21.1909 9.08672 21.2363 6.36412L21.2703 3.40328C20.9981 4.26544 20.3514 6.22799 19.3305 9.29092L18.2754 12.49L14.5319 23.6527C14.3277 24.3106 13.8739 24.6396 13.1706 24.6396H11.8433C11.14 24.6396 10.6862 24.322 10.482 23.6867L6.67034 12.49C5.33173 8.63296 4.3221 5.60406 3.64144 3.40328C3.68682 7.39644 3.70951 10.4253 3.70951 12.49V23.4485C3.70951 23.8115 3.60741 24.1064 3.40322 24.3333C3.19902 24.5375 2.90407 24.6396 2.51837 24.6396H1.1911C0.828084 24.6396 0.533135 24.5375 0.306251 24.3333C0.102056 24.1064 -4.17931e-05 23.8115 -4.17931e-05 23.4485V1.66762C-4.17931e-05 1.28192 0.102056 0.986971 0.306251 0.782776C0.533135 0.57858 0.828084 0.476483 1.1911 0.476483H5.13888C5.84222 0.476483 6.29598 0.79412 6.50018 1.42939L9.66521 10.7543C11.0038 14.7475 11.9567 17.7764 12.5239 19.841C13.25 17.2999 14.2029 14.271 15.3827 10.7543L18.5137 1.46343ZM37.188 25.1501C35.5317 25.1501 34.057 24.7757 32.7638 24.027C31.4932 23.2783 30.4949 22.2346 29.7689 20.896C29.0429 19.5347 28.6798 17.9806 28.6798 16.2336C28.6798 14.4866 29.0429 12.9437 29.7689 11.6051C30.4949 10.2665 31.4932 9.22285 32.7638 8.47414C34.057 7.72542 35.5317 7.35106 37.188 7.35106C38.8216 7.35106 40.285 7.72542 41.5782 8.47414C42.8714 9.22285 43.8811 10.2779 44.6071 11.6392C45.3331 12.9778 45.6961 14.5092 45.6961 16.2336C45.6961 17.9806 45.3331 19.5347 44.6071 20.896C43.8811 22.2346 42.8714 23.2783 41.5782 24.027C40.285 24.7757 38.8216 25.1501 37.188 25.1501ZM37.188 22.1212C38.64 22.1212 39.8085 21.588 40.6933 20.5217C41.5782 19.4326 42.0206 18.0033 42.0206 16.2336C42.0206 14.4866 41.5782 13.0799 40.6933 12.0135C39.8085 10.9472 38.64 10.414 37.188 10.414C35.7359 10.414 34.5675 10.9472 33.6826 12.0135C32.7978 13.0799 32.3554 14.4866 32.3554 16.2336C32.3554 18.0033 32.7978 19.4326 33.6826 20.5217C34.5675 21.588 35.7359 22.1212 37.188 22.1212ZM56.4603 25.1501C54.804 25.1501 53.3406 24.7871 52.0701 24.0611C50.8222 23.335 49.8466 22.3027 49.1433 20.9641C48.4626 19.6028 48.1223 18.0259 48.1223 16.2336C48.1223 14.4412 48.474 12.8757 49.1773 11.5371C49.8806 10.1985 50.8676 9.16613 52.1381 8.44011C53.4087 7.71408 54.8721 7.35106 56.5283 7.35106C57.7308 7.35106 58.8085 7.53257 59.7614 7.89558C60.737 8.23591 61.6672 8.82581 62.5521 9.66528C62.8244 9.93754 62.9605 10.2211 62.9605 10.5161C62.9605 10.7884 62.813 11.072 62.5181 11.3669L61.9395 11.9455C61.6899 12.195 61.4177 12.3198 61.1227 12.3198C60.8278 12.3198 60.5215 12.1837 60.2038 11.9114C59.5459 11.3442 58.922 10.9585 58.3321 10.7543C57.7648 10.5274 57.1523 10.414 56.4943 10.414C54.9969 10.414 53.8398 10.9699 53.023 12.0816C52.2062 13.1933 51.7978 14.5773 51.7978 16.2336C51.7978 17.8898 52.2062 19.2852 53.023 20.4196C53.8398 21.5313 54.9969 22.0872 56.4943 22.0872C57.2203 22.0872 57.8896 21.951 58.5022 21.6788C59.1148 21.3838 59.7728 20.896 60.4761 20.2154C60.7711 19.9204 61.0773 19.773 61.395 19.773C61.6672 19.773 61.9282 19.8864 62.1777 20.1133L62.7563 20.5897C63.0512 20.8393 63.1987 21.1229 63.1987 21.4405C63.1987 21.7809 63.0285 22.1439 62.6882 22.5296C61.758 23.4825 60.7937 24.1632 59.7955 24.5715C58.8199 24.9572 57.7081 25.1501 56.4603 25.1501ZM78.6463 24.6396C78.011 24.6396 77.5346 24.3787 77.2169 23.8569L72.5204 16.5739L69.8319 19.2965V23.4485C69.8319 23.8115 69.7298 24.1064 69.5256 24.3333C69.3214 24.5375 69.0264 24.6396 68.6407 24.6396H67.4156C67.0525 24.6396 66.7576 24.5375 66.5307 24.3333C66.3265 24.1064 66.2244 23.8115 66.2244 23.4485V1.66762C66.2244 1.28192 66.3265 0.986971 66.5307 0.782776C66.7576 0.57858 67.0525 0.476483 67.4156 0.476483H68.6407C69.0264 0.476483 69.3214 0.57858 69.5256 0.782776C69.7298 0.986971 69.8319 1.28192 69.8319 1.66762V15.3147L76.264 8.50817C76.6724 8.07709 77.1716 7.86155 77.7615 7.86155H79.0547C79.395 7.86155 79.6446 7.92962 79.8034 8.06575C79.9849 8.17919 80.0757 8.33801 80.0757 8.5422C80.0757 8.81446 79.9509 9.07538 79.7013 9.32495L75.0048 14.2256L80.7904 23.2102C80.9492 23.4598 81.0286 23.6867 81.0286 23.8909C81.0286 24.1178 80.9378 24.2993 80.7563 24.4354C80.5748 24.5715 80.3252 24.6396 80.0076 24.6396H78.6463ZM94.3582 9.05269C94.3582 8.66699 94.4603 8.37204 94.6645 8.16784C94.8914 7.96365 95.1863 7.86155 95.5493 7.86155H96.7745C97.1602 7.86155 97.4552 7.96365 97.6593 8.16784C97.8635 8.37204 97.9656 8.66699 97.9656 9.05269V23.4485C97.9656 23.8115 97.8635 24.1064 97.6593 24.3333C97.4552 24.5375 97.1602 24.6396 96.7745 24.6396H95.8556C95.4926 24.6396 95.1977 24.5375 94.9708 24.3333C94.7666 24.1064 94.6645 23.8115 94.6645 23.4485V22.6657C94.2107 23.4371 93.5528 24.0497 92.6906 24.5035C91.8284 24.9346 90.8075 25.1501 89.6277 25.1501C87.6311 25.1501 86.145 24.6623 85.1694 23.6867C84.1938 22.6884 83.706 21.3725 83.706 19.7389V9.05269C83.706 8.66699 83.8081 8.37204 84.0123 8.16784C84.2392 7.96365 84.5341 7.86155 84.8971 7.86155H86.1223C86.508 7.86155 86.803 7.96365 87.0072 8.16784C87.2113 8.37204 87.3134 8.66699 87.3134 9.05269V18.786C87.3134 19.8297 87.5744 20.6351 88.0962 21.2023C88.6407 21.7468 89.4235 22.0191 90.4444 22.0191C91.6242 22.0191 92.5658 21.6788 93.2691 20.9981C93.9952 20.3175 94.3582 19.3305 94.3582 18.0373V9.05269ZM111.035 7.41913C112.464 7.41913 113.735 7.78214 114.846 8.50817C115.981 9.2342 116.866 10.2665 117.501 11.6051C118.136 12.9437 118.454 14.4866 118.454 16.2336C118.454 18.0033 118.136 19.5574 117.501 20.896C116.866 22.2346 115.981 23.267 114.846 23.993C113.712 24.719 112.441 25.082 111.035 25.082C108.675 25.082 106.905 24.2653 105.726 22.6317V29.4722C105.726 29.8579 105.624 30.1529 105.419 30.3571C105.215 30.5613 104.92 30.6634 104.534 30.6634H103.309C102.946 30.6634 102.651 30.5613 102.424 30.3571C102.22 30.1529 102.118 29.8579 102.118 29.4722V9.05269C102.118 8.66699 102.22 8.37204 102.424 8.16784C102.651 7.96365 102.946 7.86155 103.309 7.86155H104.296C104.682 7.86155 104.977 7.96365 105.181 8.16784C105.385 8.37204 105.487 8.66699 105.487 9.05269V10.3119C106.69 8.38338 108.539 7.41913 111.035 7.41913ZM110.286 21.951C111.647 21.951 112.736 21.4405 113.553 20.4196C114.37 19.3759 114.778 17.9806 114.778 16.2336C114.778 14.5092 114.37 13.1253 113.553 12.0816C112.759 11.0379 111.681 10.5161 110.32 10.5161C108.936 10.5161 107.802 11.0266 106.917 12.0476C106.032 13.0685 105.589 14.4639 105.589 16.2336C105.589 18.0033 106.032 19.3986 106.917 20.4196C107.802 21.4405 108.925 21.951 110.286 21.951ZM136.893 25.1501C135.237 25.1501 133.762 24.7757 132.469 24.027C131.198 23.2783 130.2 22.2346 129.474 20.896C128.748 19.5347 128.385 17.9806 128.385 16.2336C128.385 14.4866 128.748 12.9437 129.474 11.6051C130.2 10.2665 131.198 9.22285 132.469 8.47414C133.762 7.72542 135.237 7.35106 136.893 7.35106C138.526 7.35106 139.99 7.72542 141.283 8.47414C142.576 9.22285 143.586 10.2779 144.312 11.6392C145.038 12.9778 145.401 14.5092 145.401 16.2336C145.401 17.9806 145.038 19.5347 144.312 20.896C143.586 22.2346 142.576 23.2783 141.283 24.027C139.99 24.7757 138.526 25.1501 136.893 25.1501ZM136.893 22.1212C138.345 22.1212 139.513 21.588 140.398 20.5217C141.283 19.4326 141.725 18.0033 141.725 16.2336C141.725 14.4866 141.283 13.0799 140.398 12.0135C139.513 10.9472 138.345 10.414 136.893 10.414C135.441 10.414 134.272 10.9472 133.387 12.0135C132.503 13.0799 132.06 14.4866 132.06 16.2336C132.06 18.0033 132.503 19.4326 133.387 20.5217C134.272 21.588 135.441 22.1212 136.893 22.1212ZM155.633 2.99489C154.839 2.99489 154.261 3.18774 153.898 3.57345C153.535 3.95915 153.353 4.61711 153.353 5.54734V7.86155H156.11C156.495 7.86155 156.79 7.96365 156.995 8.16784C157.199 8.37204 157.301 8.66699 157.301 9.05269V9.42705C157.301 9.79006 157.199 10.085 156.995 10.3119C156.79 10.5161 156.495 10.6182 156.11 10.6182H153.353V23.4485C153.353 23.8115 153.251 24.1064 153.047 24.3333C152.843 24.5375 152.548 24.6396 152.162 24.6396H150.937C150.574 24.6396 150.279 24.5375 150.052 24.3333C149.848 24.1064 149.746 23.8115 149.746 23.4485V10.6182H147.942C147.579 10.6182 147.284 10.5161 147.057 10.3119C146.853 10.085 146.751 9.79006 146.751 9.42705V9.05269C146.751 8.66699 146.853 8.37204 147.057 8.16784C147.284 7.96365 147.579 7.86155 147.942 7.86155H149.746V5.30911C149.746 3.5621 150.188 2.24618 151.073 1.36133C151.98 0.453794 153.285 2.66091e-05 154.987 2.66091e-05C155.758 2.66091e-05 156.541 0.0794363 157.335 0.238256C157.925 0.397074 158.22 0.760087 158.22 1.3273C158.22 1.48612 158.208 1.6109 158.186 1.70166L158.084 2.17811C157.948 2.76801 157.505 3.06296 156.756 3.06296L156.348 3.02893C156.189 3.00624 155.951 2.99489 155.633 2.99489ZM182.599 11.9114C184.051 12.3425 185.185 13.0572 186.002 14.0555C186.819 15.0538 187.227 16.313 187.227 17.8331C187.227 19.9431 186.546 21.6107 185.185 22.8359C183.846 24.0384 182.043 24.6396 179.774 24.6396H169.36C168.997 24.6396 168.702 24.5375 168.475 24.3333C168.271 24.1064 168.169 23.8115 168.169 23.4485V1.66762C168.169 1.28192 168.271 0.986971 168.475 0.782776C168.702 0.57858 168.997 0.476483 169.36 0.476483H179.229C181.339 0.476483 183.052 1.021 184.368 2.11005C185.707 3.1764 186.376 4.69652 186.376 6.67041C186.376 7.98634 186.036 9.09807 185.355 10.0056C184.675 10.8905 183.756 11.5257 182.599 11.9114ZM172.048 10.4821H178.344C179.706 10.4821 180.749 10.1758 181.475 9.56318C182.224 8.92791 182.599 8.04306 182.599 6.90864C182.599 5.79691 182.236 4.95744 181.509 4.39023C180.783 3.82302 179.74 3.53942 178.378 3.53942H172.048V10.4821ZM178.481 21.5767C180.069 21.5767 181.271 21.225 182.088 20.5217C182.928 19.8183 183.347 18.8427 183.347 17.5949C183.347 16.3697 182.916 15.3941 182.054 14.6681C181.215 13.9193 180.023 13.545 178.481 13.545H172.048V21.5767H178.481ZM201.209 9.05269C201.209 8.66699 201.311 8.37204 201.515 8.16784C201.742 7.96365 202.037 7.86155 202.4 7.86155H203.625C204.011 7.86155 204.305 7.96365 204.51 8.16784C204.714 8.37204 204.816 8.66699 204.816 9.05269V23.4485C204.816 23.8115 204.714 24.1064 204.51 24.3333C204.305 24.5375 204.011 24.6396 203.625 24.6396H202.706C202.343 24.6396 202.048 24.5375 201.821 24.3333C201.617 24.1064 201.515 23.8115 201.515 23.4485V22.6657C201.061 23.4371 200.403 24.0497 199.541 24.5035C198.679 24.9346 197.658 25.1501 196.478 25.1501C194.481 25.1501 192.995 24.6623 192.02 23.6867C191.044 22.6884 190.556 21.3725 190.556 19.7389V9.05269C190.556 8.66699 190.658 8.37204 190.863 8.16784C191.089 7.96365 191.384 7.86155 191.747 7.86155H192.973C193.358 7.86155 193.653 7.96365 193.857 8.16784C194.062 8.37204 194.164 8.66699 194.164 9.05269V18.786C194.164 19.8297 194.425 20.6351 194.947 21.2023C195.491 21.7468 196.274 22.0191 197.295 22.0191C198.475 22.0191 199.416 21.6788 200.119 20.9981C200.845 20.3175 201.209 19.3305 201.209 18.0373V9.05269ZM217.068 21.7809C217.136 21.7582 217.238 21.7468 217.375 21.7468C217.942 21.7468 218.282 22.0758 218.395 22.7338L218.498 23.2783C218.52 23.3464 218.532 23.4598 218.532 23.6186C218.532 24.1858 218.214 24.5489 217.579 24.7077C216.671 24.9119 215.843 25.014 215.094 25.014C213.483 25.014 212.315 24.6396 211.589 23.8909C210.886 23.1422 210.534 22.0191 210.534 20.5217V10.6182H208.662C208.299 10.6182 208.004 10.5161 207.777 10.3119C207.573 10.085 207.471 9.79006 207.471 9.42705V9.05269C207.471 8.66699 207.573 8.37204 207.777 8.16784C208.004 7.96365 208.299 7.86155 208.662 7.86155H210.534V3.64151C210.534 3.25581 210.636 2.96086 210.84 2.75667C211.067 2.55247 211.362 2.45037 211.725 2.45037H212.95C213.336 2.45037 213.631 2.55247 213.835 2.75667C214.039 2.96086 214.141 3.25581 214.141 3.64151V7.86155H217.204C217.59 7.86155 217.885 7.96365 218.089 8.16784C218.293 8.37204 218.395 8.66699 218.395 9.05269V9.42705C218.395 9.79006 218.293 10.085 218.089 10.3119C217.885 10.5161 217.59 10.6182 217.204 10.6182H214.141V20.0792C214.141 20.7372 214.278 21.2023 214.55 21.4746C214.845 21.7468 215.31 21.883 215.945 21.883C216.217 21.883 216.592 21.8489 217.068 21.7809ZM229.531 21.7809C229.599 21.7582 229.701 21.7468 229.838 21.7468C230.405 21.7468 230.745 22.0758 230.859 22.7338L230.961 23.2783C230.983 23.3464 230.995 23.4598 230.995 23.6186C230.995 24.1858 230.677 24.5489 230.042 24.7077C229.134 24.9119 228.306 25.014 227.557 25.014C225.947 25.014 224.778 24.6396 224.052 23.8909C223.349 23.1422 222.997 22.0191 222.997 20.5217V10.6182H221.125C220.762 10.6182 220.467 10.5161 220.24 10.3119C220.036 10.085 219.934 9.79006 219.934 9.42705V9.05269C219.934 8.66699 220.036 8.37204 220.24 8.16784C220.467 7.96365 220.762 7.86155 221.125 7.86155H222.997V3.64151C222.997 3.25581 223.099 2.96086 223.303 2.75667C223.53 2.55247 223.825 2.45037 224.188 2.45037H225.413C225.799 2.45037 226.094 2.55247 226.298 2.75667C226.502 2.96086 226.605 3.25581 226.605 3.64151V7.86155H229.667C230.053 7.86155 230.348 7.96365 230.552 8.16784C230.756 8.37204 230.859 8.66699 230.859 9.05269V9.42705C230.859 9.79006 230.756 10.085 230.552 10.3119C230.348 10.5161 230.053 10.6182 229.667 10.6182H226.605V20.0792C226.605 20.7372 226.741 21.2023 227.013 21.4746C227.308 21.7468 227.773 21.883 228.408 21.883C228.68 21.883 229.055 21.8489 229.531 21.7809ZM240.852 25.1501C239.195 25.1501 237.721 24.7757 236.427 24.027C235.157 23.2783 234.159 22.2346 233.433 20.896C232.707 19.5347 232.344 17.9806 232.344 16.2336C232.344 14.4866 232.707 12.9437 233.433 11.6051C234.159 10.2665 235.157 9.22285 236.427 8.47414C237.721 7.72542 239.195 7.35106 240.852 7.35106C242.485 7.35106 243.949 7.72542 245.242 8.47414C246.535 9.22285 247.545 10.2779 248.271 11.6392C248.997 12.9778 249.36 14.5092 249.36 16.2336C249.36 17.9806 248.997 19.5347 248.271 20.896C247.545 22.2346 246.535 23.2783 245.242 24.027C243.949 24.7757 242.485 25.1501 240.852 25.1501ZM240.852 22.1212C242.304 22.1212 243.472 21.588 244.357 20.5217C245.242 19.4326 245.684 18.0033 245.684 16.2336C245.684 14.4866 245.242 13.0799 244.357 12.0135C243.472 10.9472 242.304 10.414 240.852 10.414C239.4 10.414 238.231 10.9472 237.346 12.0135C236.461 13.0799 236.019 14.4866 236.019 16.2336C236.019 18.0033 236.461 19.4326 237.346 20.5217C238.231 21.588 239.4 22.1212 240.852 22.1212ZM261.082 7.35106C263.01 7.35106 264.485 7.89558 265.506 8.98463C266.55 10.051 267.071 11.435 267.071 13.1366V23.4485C267.071 23.8115 266.969 24.1064 266.765 24.3333C266.561 24.5375 266.266 24.6396 265.88 24.6396H264.655C264.292 24.6396 263.997 24.5375 263.77 24.3333C263.566 24.1064 263.464 23.8115 263.464 23.4485V14.2597C263.464 13.0345 263.158 12.0929 262.545 11.435C261.955 10.777 261.104 10.448 259.993 10.448C258.904 10.448 257.985 10.8224 257.236 11.5711C256.51 12.3198 256.147 13.2614 256.147 14.3958V23.4485C256.147 23.8115 256.045 24.1064 255.841 24.3333C255.636 24.5375 255.341 24.6396 254.956 24.6396H253.731C253.368 24.6396 253.073 24.5375 252.846 24.3333C252.642 24.1064 252.539 23.8115 252.539 23.4485V9.05269C252.539 8.66699 252.642 8.37204 252.846 8.16784C253.073 7.96365 253.368 7.86155 253.731 7.86155H254.718C255.103 7.86155 255.398 7.96365 255.602 8.16784C255.807 8.37204 255.909 8.66699 255.909 9.05269V9.93754C256.453 9.09807 257.168 8.46279 258.053 8.03171C258.938 7.57795 259.947 7.35106 261.082 7.35106ZM287.745 7.41913C289.174 7.41913 290.445 7.78214 291.556 8.50817C292.691 9.2342 293.576 10.2665 294.211 11.6051C294.846 12.9437 295.164 14.4866 295.164 16.2336C295.164 18.0033 294.846 19.5574 294.211 20.896C293.576 22.2346 292.691 23.267 291.556 23.993C290.422 24.719 289.152 25.082 287.745 25.082C285.385 25.082 283.616 24.2653 282.436 22.6317V29.4722C282.436 29.8579 282.334 30.1529 282.129 30.3571C281.925 30.5613 281.63 30.6634 281.245 30.6634H280.019C279.656 30.6634 279.361 30.5613 279.135 30.3571C278.93 30.1529 278.828 29.8579 278.828 29.4722V9.05269C278.828 8.66699 278.93 8.37204 279.135 8.16784C279.361 7.96365 279.656 7.86155 280.019 7.86155H281.006C281.392 7.86155 281.687 7.96365 281.891 8.16784C282.095 8.37204 282.198 8.66699 282.198 9.05269V10.3119C283.4 8.38338 285.249 7.41913 287.745 7.41913ZM286.996 21.951C288.357 21.951 289.446 21.4405 290.263 20.4196C291.08 19.3759 291.488 17.9806 291.488 16.2336C291.488 14.5092 291.08 13.1253 290.263 12.0816C289.469 11.0379 288.391 10.5161 287.03 10.5161C285.646 10.5161 284.512 11.0266 283.627 12.0476C282.742 13.0685 282.3 14.4639 282.3 16.2336C282.3 18.0033 282.742 19.3986 283.627 20.4196C284.512 21.4405 285.635 21.951 286.996 21.951ZM305.516 7.35106C307.785 7.35106 309.532 7.88424 310.757 8.95059C311.982 9.99426 312.594 11.3896 312.594 13.1366V23.4485C312.594 23.8115 312.492 24.1064 312.288 24.3333C312.084 24.5375 311.789 24.6396 311.403 24.6396H310.518C310.155 24.6396 309.861 24.5375 309.634 24.3333C309.429 24.1064 309.327 23.8115 309.327 23.4485V22.6998C308.783 23.4938 308.034 24.1064 307.081 24.5375C306.128 24.9686 305.017 25.1841 303.746 25.1841C301.999 25.1841 300.558 24.7984 299.424 24.027C298.312 23.2329 297.756 22.0418 297.756 20.4536C297.756 18.6839 298.414 17.3793 299.73 16.5399C301.069 15.6777 302.918 15.0311 305.277 14.6L309.123 13.8853V13.2727C309.123 12.3425 308.794 11.6278 308.136 11.1287C307.501 10.6068 306.65 10.3459 305.584 10.3459C304.676 10.3459 303.882 10.5047 303.201 10.8224C302.543 11.1173 301.829 11.6165 301.057 12.3198C300.762 12.5694 300.479 12.6942 300.207 12.6942C299.934 12.6942 299.651 12.5694 299.356 12.3198L298.811 11.8434C298.516 11.5711 298.369 11.2762 298.369 10.9585C298.369 10.6636 298.505 10.38 298.777 10.1077C299.753 9.17748 300.785 8.48548 301.874 8.03171C302.963 7.57795 304.177 7.35106 305.516 7.35106ZM304.256 22.2914C305.618 22.2914 306.764 21.9283 307.694 21.2023C308.647 20.4763 309.123 19.4326 309.123 18.0713V16.5058L306.162 17.1184C304.506 17.4587 303.281 17.8444 302.487 18.2755C301.693 18.7066 301.296 19.3646 301.296 20.2494C301.296 20.8847 301.557 21.3838 302.078 21.7468C302.6 22.1099 303.326 22.2914 304.256 22.2914ZM328.525 8.95059C328.525 8.61027 328.628 8.34935 328.832 8.16784C329.059 7.96365 329.354 7.86155 329.717 7.86155H330.669C331.055 7.86155 331.35 7.96365 331.554 8.16784C331.759 8.37204 331.861 8.66699 331.861 9.05269V24.027C331.861 26.2732 331.135 28.0202 329.683 29.268C328.253 30.5159 326.347 31.1398 323.965 31.1398C321.583 31.1398 319.337 30.5272 317.227 29.3021C316.796 29.0752 316.58 28.7689 316.58 28.3832C316.58 28.179 316.671 27.9294 316.852 27.6345L317.295 26.9879C317.544 26.6022 317.851 26.4093 318.214 26.4093C318.463 26.4093 318.713 26.4887 318.962 26.6475C319.87 27.1694 320.709 27.5437 321.481 27.7706C322.252 28.0202 323.069 28.145 323.931 28.145C325.247 28.145 326.302 27.782 327.096 27.0559C327.913 26.3526 328.321 25.2409 328.321 23.7207V21.917C327.187 23.5279 325.485 24.3333 323.216 24.3333C321.81 24.3333 320.539 23.9816 319.405 23.2783C318.293 22.5523 317.419 21.554 316.784 20.2834C316.172 18.9902 315.865 17.5155 315.865 15.8592C315.865 14.203 316.172 12.7396 316.784 11.469C317.419 10.1758 318.293 9.16613 319.405 8.44011C320.539 7.71408 321.81 7.35106 323.216 7.35106C325.621 7.35106 327.391 8.24725 328.525 10.0396V8.95059ZM323.931 21.3044C325.247 21.3044 326.325 20.8053 327.164 19.807C328.004 18.786 328.423 17.4701 328.423 15.8592C328.423 14.271 328.004 12.9778 327.164 11.9795C326.347 10.9585 325.27 10.448 323.931 10.448C322.57 10.448 321.492 10.9472 320.698 11.9455C319.904 12.9437 319.507 14.2483 319.507 15.8592C319.507 17.4928 319.904 18.8087 320.698 19.807C321.492 20.8053 322.57 21.3044 323.931 21.3044ZM348.039 20.3515C348.334 20.1019 348.618 19.9771 348.89 19.9771C349.162 19.9771 349.446 20.1246 349.741 20.4196L350.217 20.9301C350.467 21.225 350.592 21.5086 350.592 21.7809C350.592 22.0758 350.444 22.3594 350.149 22.6317C349.105 23.5392 348.062 24.1858 347.018 24.5715C345.997 24.9572 344.863 25.1501 343.615 25.1501C341.868 25.1501 340.348 24.7871 339.055 24.0611C337.784 23.335 336.797 22.3141 336.094 20.9981C335.413 19.6595 335.073 18.1167 335.073 16.3697C335.073 14.6454 335.402 13.1026 336.06 11.7413C336.74 10.3573 337.693 9.27957 338.918 8.50817C340.166 7.73677 341.618 7.35106 343.275 7.35106C345.748 7.35106 347.653 8.08844 348.992 9.56318C350.331 11.0152 351 13.0232 351 15.5869V15.8932C350.977 16.2563 350.864 16.5399 350.66 16.7441C350.455 16.9482 350.16 17.0503 349.775 17.0503H338.612C338.748 18.5478 339.236 19.773 340.075 20.7259C340.938 21.6561 342.14 22.1212 343.683 22.1212C344.522 22.1212 345.26 21.9964 345.895 21.7468C346.53 21.4746 347.245 21.0095 348.039 20.3515ZM343.206 10.2098C341.959 10.2098 340.949 10.5842 340.178 11.3329C339.429 12.0589 338.941 13.0912 338.714 14.4298H347.461C347.37 13.1139 346.961 12.0816 346.235 11.3329C345.509 10.5842 344.5 10.2098 343.206 10.2098Z" fill="#474445"/>
</svg>
