<svg width="465" height="32" viewBox="0 0 465 32" fill="none" xmlns="http://www.w3.org/2000/svg">
<path d="M1.19222 24.7309C0.828864 24.7309 0.533637 24.6287 0.30654 24.4243C0.102152 24.1972 -4.18324e-05 23.902 -4.18324e-05 23.5386V1.73726C-4.18324e-05 1.35119 0.102152 1.05596 0.30654 0.851575C0.533637 0.647187 0.828864 0.544993 1.19222 0.544993H10.9688C13.376 0.544993 15.295 1.21493 16.7257 2.55481C18.1564 3.87197 18.8718 5.6774 18.8718 7.97109C18.8718 10.2648 18.1564 12.0702 16.7257 13.3874C15.295 14.7045 13.376 15.3631 10.9688 15.3631H3.88333V23.5386C3.88333 23.902 3.78113 24.1972 3.57675 24.4243C3.37236 24.6287 3.07713 24.7309 2.69107 24.7309H1.19222ZM10.3556 12.127C11.809 12.127 12.9445 11.775 13.7621 11.071C14.6023 10.3443 15.0225 9.31096 15.0225 7.97109C15.0225 6.6085 14.6023 5.57521 13.7621 4.8712C12.9445 4.14449 11.809 3.78114 10.3556 3.78114H3.88333V12.127H10.3556ZM28.729 7.42605C30.9999 7.42605 32.7486 7.95973 33.9749 9.02709C35.2012 10.0717 35.8144 11.4684 35.8144 13.217V23.5386C35.8144 23.902 35.7122 24.1972 35.5078 24.4243C35.3034 24.6287 35.0082 24.7309 34.6221 24.7309H33.7365C33.3731 24.7309 33.0779 24.6287 32.8508 24.4243C32.6464 24.1972 32.5442 23.902 32.5442 23.5386V22.7892C31.9992 23.5841 31.2497 24.1972 30.2959 24.6287C29.3421 25.0602 28.2293 25.2759 26.9576 25.2759C25.209 25.2759 23.7669 24.8899 22.6314 24.1177C21.5186 23.3229 20.9622 22.1306 20.9622 20.5409C20.9622 18.7696 21.6208 17.4638 22.938 16.6235C24.2779 15.7605 26.1287 15.1133 28.4905 14.6818L32.3398 13.9665V13.3533C32.3398 12.4222 32.0105 11.7068 31.3519 11.2072C30.7161 10.6849 29.8645 10.4237 28.7971 10.4237C27.8887 10.4237 27.0939 10.5827 26.4126 10.9006C25.754 11.1959 25.0386 11.6955 24.2665 12.3995C23.9713 12.6493 23.6874 12.7742 23.4149 12.7742C23.1424 12.7742 22.8585 12.6493 22.5633 12.3995L22.0182 11.9226C21.723 11.6501 21.5754 11.3548 21.5754 11.0369C21.5754 10.7417 21.7116 10.4578 21.9842 10.1853C22.9607 9.25419 23.994 8.56154 25.084 8.10734C26.1741 7.65315 27.3891 7.42605 28.729 7.42605ZM27.4686 22.3804C28.8312 22.3804 29.978 22.0171 30.9091 21.2904C31.8629 20.5637 32.3398 19.519 32.3398 18.1564V16.5894L29.3762 17.2026C27.7184 17.5433 26.4921 17.9293 25.6972 18.3608C24.9024 18.7923 24.5049 19.4509 24.5049 20.3366C24.5049 20.9724 24.7661 21.472 25.2884 21.8354C25.8108 22.1988 26.5375 22.3804 27.4686 22.3804ZM51.7604 9.02709C51.7604 8.68644 51.8626 8.42528 52.067 8.2436C52.2941 8.03922 52.5893 7.93702 52.9527 7.93702H53.9065C54.2925 7.93702 54.5878 8.03922 54.7921 8.2436C54.9965 8.44799 55.0987 8.74322 55.0987 9.12928V24.1177C55.0987 26.366 54.372 28.1146 52.9186 29.3637C51.4879 30.6127 49.5803 31.2372 47.1957 31.2372C44.8112 31.2372 42.5629 30.6241 40.4509 29.3978C40.0194 29.1707 39.8037 28.8641 39.8037 28.478C39.8037 28.2736 39.8945 28.0238 40.0762 27.7286L40.5191 27.0814C40.7689 26.6953 41.0754 26.5023 41.4388 26.5023C41.6886 26.5023 41.9384 26.5817 42.1882 26.7407C43.0966 27.263 43.9369 27.6377 44.709 27.8648C45.4811 28.1146 46.2987 28.2396 47.1617 28.2396C48.4788 28.2396 49.5348 27.8762 50.3297 27.1495C51.1472 26.4455 51.556 25.3327 51.556 23.8111V22.0057C50.4205 23.6181 48.7173 24.4243 46.4463 24.4243C45.0383 24.4243 43.7666 24.0723 42.6311 23.3683C41.5183 22.6416 40.644 21.6424 40.0081 20.3706C39.3949 19.0762 39.0883 17.6 39.0883 15.9422C39.0883 14.2844 39.3949 12.8196 40.0081 11.5479C40.644 10.2534 41.5183 9.24283 42.6311 8.51612C43.7666 7.78941 45.0383 7.42605 46.4463 7.42605C48.8535 7.42605 50.6249 8.32309 51.7604 10.1172V9.02709ZM47.1617 21.3926C48.4788 21.3926 49.5575 20.8929 50.3978 19.8937C51.2381 18.8718 51.6582 17.5546 51.6582 15.9422C51.6582 14.3525 51.2381 13.0581 50.3978 12.0588C49.5803 11.0369 48.5015 10.5259 47.1617 10.5259C45.7991 10.5259 44.7204 11.0256 43.9255 12.0248C43.1307 13.024 42.7333 14.3298 42.7333 15.9422C42.7333 17.5773 43.1307 18.8945 43.9255 19.8937C44.7204 20.8929 45.7991 21.3926 47.1617 21.3926ZM71.2925 20.4387C71.5877 20.1889 71.8716 20.064 72.1441 20.064C72.4166 20.064 72.7005 20.2117 72.9957 20.5069L73.4726 21.0178C73.7224 21.3131 73.8473 21.5969 73.8473 21.8695C73.8473 22.1647 73.6997 22.4486 73.4045 22.7211C72.3598 23.6295 71.3152 24.2767 70.2705 24.6628C69.2486 25.0488 68.1131 25.2419 66.8641 25.2419C65.1154 25.2419 63.5939 24.8785 62.2994 24.1518C61.0277 23.4251 60.0398 22.4031 59.3358 21.086C58.6545 19.7461 58.3138 18.2018 58.3138 16.4532C58.3138 14.7272 58.6431 13.183 59.3017 11.8204C59.983 10.4351 60.9368 9.35638 62.1632 8.58425C63.4122 7.81212 64.8656 7.42605 66.5234 7.42605C68.9988 7.42605 70.9064 8.16412 72.2463 9.64025C73.5862 11.0937 74.2561 13.1035 74.2561 15.6697V15.9763C74.2334 16.3396 74.1198 16.6235 73.9155 16.8279C73.7111 17.0323 73.4158 17.1345 73.0298 17.1345H61.8566C61.9928 18.6333 62.4811 19.8596 63.3213 20.8135C64.1843 21.7446 65.3879 22.2101 66.9322 22.2101C67.7725 22.2101 68.5105 22.0852 69.1464 21.8354C69.7823 21.5629 70.4976 21.0973 71.2925 20.4387ZM66.4553 10.2875C65.2063 10.2875 64.1957 10.6622 63.4235 11.4116C62.6741 12.1383 62.1859 13.1716 61.9588 14.5115H70.7134C70.6225 13.1943 70.2138 12.161 69.4871 11.4116C68.7603 10.6622 67.7498 10.2875 66.4553 10.2875ZM77.6663 24.7309C77.3256 24.7309 77.0645 24.6514 76.8828 24.4924C76.7011 24.3335 76.6103 24.1291 76.6103 23.8793C76.6103 23.7884 76.6557 23.6068 76.7465 23.3342L86.2846 1.46474C86.5345 0.851575 87 0.544993 87.6813 0.544993H88.7032C89.0439 0.544993 89.305 0.624477 89.4867 0.783446C89.6684 0.942414 89.7592 1.1468 89.7592 1.39661C89.7592 1.48745 89.7138 1.66913 89.623 1.94164L80.0849 23.8111C79.8351 24.4243 79.3695 24.7309 78.6882 24.7309H77.6663ZM101.695 25.2759C99.8327 25.2759 98.1635 25.0148 96.6874 24.4924C95.234 23.9474 93.7351 23.039 92.1909 21.7673C91.8729 21.5175 91.714 21.2222 91.714 20.8816C91.714 20.5864 91.8275 20.3138 92.0546 20.064L92.8381 19.1443C93.0879 18.8264 93.3718 18.6674 93.6897 18.6674C93.9395 18.6674 94.2234 18.7923 94.5413 19.0421C95.9039 20.1322 97.1189 20.8816 98.1862 21.2904C99.2763 21.6991 100.469 21.9035 101.763 21.9035C103.33 21.9035 104.602 21.5515 105.578 20.8475C106.555 20.1208 107.043 19.1329 107.043 17.8839C107.043 17.0663 106.793 16.4305 106.294 15.9763C105.794 15.4994 105.147 15.136 104.352 14.8862C103.58 14.6364 102.319 14.3071 100.571 13.8983C98.4588 13.3987 96.8123 12.8537 95.6314 12.2632C94.4505 11.6728 93.5989 10.9688 93.0766 10.1512C92.5769 9.31096 92.3271 8.25496 92.3271 6.98321C92.3271 5.64334 92.7132 4.43972 93.4853 3.37236C94.2575 2.305 95.3135 1.47609 96.6533 0.885639C98.0159 0.295186 99.5375 -4.04888e-05 101.218 -4.04888e-05C102.921 -4.04888e-05 104.42 0.227057 105.715 0.681252C107.032 1.13545 108.349 1.87351 109.666 2.89545C110.007 3.16797 110.177 3.45184 110.177 3.74707C110.177 3.99688 110.063 4.2694 109.836 4.56462L109.087 5.4503C108.814 5.76824 108.531 5.92721 108.235 5.92721C107.963 5.92721 107.679 5.81366 107.384 5.58656C106.294 4.7463 105.283 4.1672 104.352 3.84926C103.421 3.53133 102.365 3.37236 101.184 3.37236C99.6851 3.37236 98.4701 3.70165 97.539 4.36023C96.6079 5.01882 96.1424 5.84772 96.1424 6.84695C96.1424 7.57367 96.3581 8.15276 96.7896 8.58425C97.2211 9.01574 97.8456 9.36774 98.6632 9.64025C99.4807 9.91277 100.741 10.2421 102.444 10.6281C104.511 11.1277 106.146 11.6614 107.35 12.2292C108.553 12.7742 109.45 13.4782 110.041 14.3412C110.631 15.2041 110.926 16.3056 110.926 17.6454C110.926 19.1443 110.54 20.4728 109.768 21.631C108.996 22.7892 107.917 23.6862 106.532 24.3221C105.147 24.958 103.534 25.2759 101.695 25.2759ZM126.448 20.4387C126.743 20.1889 127.027 20.064 127.3 20.064C127.572 20.064 127.856 20.2117 128.151 20.5069L128.628 21.0178C128.878 21.3131 129.003 21.5969 129.003 21.8695C129.003 22.1647 128.855 22.4486 128.56 22.7211C127.515 23.6295 126.471 24.2767 125.426 24.6628C124.404 25.0488 123.269 25.2419 122.02 25.2419C120.271 25.2419 118.749 24.8785 117.455 24.1518C116.183 23.4251 115.195 22.4031 114.491 21.086C113.81 19.7461 113.469 18.2018 113.469 16.4532C113.469 14.7272 113.799 13.183 114.457 11.8204C115.138 10.4351 116.092 9.35638 117.319 8.58425C118.568 7.81212 120.021 7.42605 121.679 7.42605C124.154 7.42605 126.062 8.16412 127.402 9.64025C128.742 11.0937 129.412 13.1035 129.412 15.6697V15.9763C129.389 16.3396 129.275 16.6235 129.071 16.8279C128.867 17.0323 128.571 17.1345 128.185 17.1345H117.012C117.148 18.6333 117.637 19.8596 118.477 20.8135C119.34 21.7446 120.543 22.2101 122.088 22.2101C122.928 22.2101 123.666 22.0852 124.302 21.8354C124.938 21.5629 125.653 21.0973 126.448 20.4387ZM121.611 10.2875C120.362 10.2875 119.351 10.6622 118.579 11.4116C117.83 12.1383 117.341 13.1716 117.114 14.5115H125.869C125.778 13.1943 125.369 12.161 124.643 11.4116C123.916 10.6622 122.905 10.2875 121.611 10.2875ZM140.178 25.2419C138.52 25.2419 137.056 24.8785 135.784 24.1518C134.535 23.4251 133.558 22.3918 132.854 21.0519C132.173 19.6893 131.832 18.111 131.832 16.3169C131.832 14.5229 132.184 12.9559 132.888 11.616C133.592 10.2761 134.58 9.24283 135.852 8.51612C137.124 7.78941 138.588 7.42605 140.246 7.42605C141.45 7.42605 142.529 7.60773 143.482 7.97109C144.459 8.31173 145.39 8.90219 146.276 9.74245C146.548 10.015 146.684 10.2988 146.684 10.5941C146.684 10.8666 146.537 11.1505 146.242 11.4457L145.663 12.0248C145.413 12.2746 145.14 12.3995 144.845 12.3995C144.55 12.3995 144.243 12.2632 143.925 11.9907C143.267 11.423 142.642 11.0369 142.052 10.8325C141.484 10.6054 140.871 10.4919 140.212 10.4919C138.713 10.4919 137.555 11.0483 136.738 12.161C135.92 13.2738 135.511 14.6591 135.511 16.3169C135.511 17.9747 135.92 19.3714 136.738 20.5069C137.555 21.6197 138.713 22.176 140.212 22.176C140.939 22.176 141.609 22.0398 142.222 21.7673C142.835 21.472 143.494 20.9838 144.198 20.3025C144.493 20.0073 144.8 19.8596 145.117 19.8596C145.39 19.8596 145.651 19.9732 145.901 20.2003L146.48 20.6772C146.775 20.927 146.923 21.2109 146.923 21.5288C146.923 21.8695 146.753 22.2328 146.412 22.6189C145.481 23.5727 144.516 24.254 143.516 24.6628C142.54 25.0488 141.427 25.2419 140.178 25.2419ZM158.159 21.8695C158.227 21.8468 158.329 21.8354 158.465 21.8354C159.033 21.8354 159.374 22.1647 159.487 22.8233L159.589 23.3683C159.612 23.4364 159.623 23.55 159.623 23.709C159.623 24.2767 159.306 24.6401 158.67 24.799C157.761 25.0034 156.932 25.1056 156.183 25.1056C154.571 25.1056 153.401 24.7309 152.674 23.9815C151.97 23.232 151.618 22.1079 151.618 20.6091V10.6963H149.745C149.381 10.6963 149.086 10.5941 148.859 10.3897C148.655 10.1626 148.552 9.86735 148.552 9.504V9.12928C148.552 8.74322 148.655 8.44799 148.859 8.2436C149.086 8.03922 149.381 7.93702 149.745 7.93702H151.618V3.71301C151.618 3.32694 151.72 3.03171 151.925 2.82733C152.152 2.62294 152.447 2.52074 152.811 2.52074H154.037C154.423 2.52074 154.718 2.62294 154.923 2.82733C155.127 3.03171 155.229 3.32694 155.229 3.71301V7.93702H158.295C158.681 7.93702 158.976 8.03922 159.181 8.2436C159.385 8.44799 159.487 8.74322 159.487 9.12928V9.504C159.487 9.86735 159.385 10.1626 159.181 10.3897C158.976 10.5941 158.681 10.6963 158.295 10.6963H155.229V20.1662C155.229 20.8248 155.365 21.2904 155.638 21.5629C155.933 21.8354 156.399 21.9717 157.035 21.9717C157.307 21.9717 157.682 21.9376 158.159 21.8695ZM164.299 4.66682C163.64 4.66682 163.084 4.45107 162.63 4.01959C162.176 3.56539 161.949 3.03171 161.949 2.41855C161.949 1.78268 162.176 1.249 162.63 0.817511C163.084 0.386025 163.64 0.170283 164.299 0.170283C164.958 0.170283 165.514 0.386025 165.968 0.817511C166.422 1.249 166.65 1.78268 166.65 2.41855C166.65 3.03171 166.422 3.56539 165.968 4.01959C165.514 4.45107 164.958 4.66682 164.299 4.66682ZM163.652 24.7309C163.288 24.7309 162.993 24.6287 162.766 24.4243C162.562 24.1972 162.46 23.902 162.46 23.5386V9.12928C162.46 8.74322 162.562 8.44799 162.766 8.2436C162.993 8.03922 163.288 7.93702 163.652 7.93702H164.878C165.264 7.93702 165.559 8.03922 165.764 8.2436C165.968 8.44799 166.07 8.74322 166.07 9.12928V23.5386C166.07 23.902 165.968 24.1972 165.764 24.4243C165.559 24.6287 165.264 24.7309 164.878 24.7309H163.652ZM177.806 25.2419C176.148 25.2419 174.672 24.8672 173.378 24.1177C172.106 23.3683 171.107 22.3237 170.38 20.9838C169.653 19.6212 169.29 18.0656 169.29 16.3169C169.29 14.5683 169.653 13.024 170.38 11.6841C171.107 10.3443 172.106 9.29961 173.378 8.55019C174.672 7.80076 176.148 7.42605 177.806 7.42605C179.441 7.42605 180.906 7.80076 182.201 8.55019C183.495 9.29961 184.506 10.3556 185.232 11.7182C185.959 13.0581 186.322 14.591 186.322 16.3169C186.322 18.0656 185.959 19.6212 185.232 20.9838C184.506 22.3237 183.495 23.3683 182.201 24.1177C180.906 24.8672 179.441 25.2419 177.806 25.2419ZM177.806 22.2101C179.26 22.2101 180.429 21.6764 181.315 20.6091C182.201 19.519 182.643 18.0883 182.643 16.3169C182.643 14.5683 182.201 13.1603 181.315 12.0929C180.429 11.0256 179.26 10.4919 177.806 10.4919C176.353 10.4919 175.183 11.0256 174.298 12.0929C173.412 13.1603 172.969 14.5683 172.969 16.3169C172.969 18.0883 173.412 19.519 174.298 20.6091C175.183 21.6764 176.353 22.2101 177.806 22.2101ZM198.055 7.42605C199.986 7.42605 201.462 7.97109 202.484 9.06116C203.528 10.1285 204.051 11.5138 204.051 13.217V23.5386C204.051 23.902 203.948 24.1972 203.744 24.4243C203.54 24.6287 203.244 24.7309 202.858 24.7309H201.632C201.269 24.7309 200.973 24.6287 200.746 24.4243C200.542 24.1972 200.44 23.902 200.44 23.5386V14.3412C200.44 13.1148 200.133 12.1724 199.52 11.5138C198.93 10.8552 198.078 10.5259 196.965 10.5259C195.875 10.5259 194.955 10.9006 194.206 11.6501C193.479 12.3995 193.116 13.3419 193.116 14.4774V23.5386C193.116 23.902 193.014 24.1972 192.809 24.4243C192.605 24.6287 192.31 24.7309 191.924 24.7309H190.697C190.334 24.7309 190.039 24.6287 189.812 24.4243C189.607 24.1972 189.505 23.902 189.505 23.5386V9.12928C189.505 8.74322 189.607 8.44799 189.812 8.2436C190.039 8.03922 190.334 7.93702 190.697 7.93702H191.685C192.071 7.93702 192.366 8.03922 192.571 8.2436C192.775 8.44799 192.877 8.74322 192.877 9.12928V10.015C193.422 9.1747 194.138 8.53883 195.024 8.10734C195.909 7.65315 196.92 7.42605 198.055 7.42605ZM208.303 24.7309C207.962 24.7309 207.701 24.6514 207.519 24.4924C207.338 24.3335 207.247 24.1291 207.247 23.8793C207.247 23.7884 207.292 23.6068 207.383 23.3342L216.921 1.46474C217.171 0.851575 217.637 0.544993 218.318 0.544993H219.34C219.68 0.544993 219.942 0.624477 220.123 0.783446C220.305 0.942414 220.396 1.1468 220.396 1.39661C220.396 1.48745 220.35 1.66913 220.26 1.94164L210.721 23.8111C210.472 24.4243 210.006 24.7309 209.325 24.7309H208.303ZM231.881 30.1131H224.25V0.408734H231.881V2.86139H227.18V27.6605H231.881V30.1131ZM236.551 24.7309C236.188 24.7309 235.892 24.6287 235.665 24.4243C235.461 24.1972 235.359 23.902 235.359 23.5386V1.73726C235.359 1.35119 235.461 1.05596 235.665 0.851575C235.892 0.647187 236.188 0.544993 236.551 0.544993H238.05C238.436 0.544993 238.731 0.647187 238.936 0.851575C239.14 1.05596 239.242 1.35119 239.242 1.73726V10.4919H251.233V1.73726C251.233 1.35119 251.335 1.05596 251.539 0.851575C251.767 0.647187 252.062 0.544993 252.425 0.544993H253.958C254.344 0.544993 254.639 0.647187 254.844 0.851575C255.048 1.05596 255.15 1.35119 255.15 1.73726V23.5386C255.15 23.902 255.048 24.1972 254.844 24.4243C254.639 24.6287 254.344 24.7309 253.958 24.7309H252.425C252.062 24.7309 251.767 24.6287 251.539 24.4243C251.335 24.1972 251.233 23.902 251.233 23.5386V13.7621H239.242V23.5386C239.242 23.902 239.14 24.1972 238.936 24.4243C238.731 24.6287 238.436 24.7309 238.05 24.7309H236.551ZM271.888 20.4387C272.183 20.1889 272.467 20.064 272.74 20.064C273.012 20.064 273.296 20.2117 273.591 20.5069L274.068 21.0178C274.318 21.3131 274.443 21.5969 274.443 21.8695C274.443 22.1647 274.295 22.4486 274 22.7211C272.955 23.6295 271.911 24.2767 270.866 24.6628C269.844 25.0488 268.709 25.2419 267.46 25.2419C265.711 25.2419 264.189 24.8785 262.895 24.1518C261.623 23.4251 260.635 22.4031 259.931 21.086C259.25 19.7461 258.909 18.2018 258.909 16.4532C258.909 14.7272 259.239 13.183 259.897 11.8204C260.579 10.4351 261.532 9.35638 262.759 8.58425C264.008 7.81212 265.461 7.42605 267.119 7.42605C269.594 7.42605 271.502 8.16412 272.842 9.64025C274.182 11.0937 274.852 13.1035 274.852 15.6697V15.9763C274.829 16.3396 274.715 16.6235 274.511 16.8279C274.307 17.0323 274.011 17.1345 273.625 17.1345H262.452C262.588 18.6333 263.077 19.8596 263.917 20.8135C264.78 21.7446 265.983 22.2101 267.528 22.2101C268.368 22.2101 269.106 22.0852 269.742 21.8354C270.378 21.5629 271.093 21.0973 271.888 20.4387ZM267.051 10.2875C265.802 10.2875 264.791 10.6622 264.019 11.4116C263.27 12.1383 262.781 13.1716 262.554 14.5115H271.309C271.218 13.1943 270.809 12.161 270.083 11.4116C269.356 10.6622 268.345 10.2875 267.051 10.2875ZM285.012 7.42605C287.283 7.42605 289.032 7.95973 290.258 9.02709C291.484 10.0717 292.098 11.4684 292.098 13.217V23.5386C292.098 23.902 291.995 24.1972 291.791 24.4243C291.587 24.6287 291.291 24.7309 290.905 24.7309H290.02C289.656 24.7309 289.361 24.6287 289.134 24.4243C288.93 24.1972 288.827 23.902 288.827 23.5386V22.7892C288.282 23.5841 287.533 24.1972 286.579 24.6287C285.625 25.0602 284.513 25.2759 283.241 25.2759C281.492 25.2759 280.05 24.8899 278.915 24.1177C277.802 23.3229 277.245 22.1306 277.245 20.5409C277.245 18.7696 277.904 17.4638 279.221 16.6235C280.561 15.7605 282.412 15.1133 284.774 14.6818L288.623 13.9665V13.3533C288.623 12.4222 288.294 11.7068 287.635 11.2072C286.999 10.6849 286.148 10.4237 285.08 10.4237C284.172 10.4237 283.377 10.5827 282.696 10.9006C282.037 11.1959 281.322 11.6955 280.55 12.3995C280.255 12.6493 279.971 12.7742 279.698 12.7742C279.426 12.7742 279.142 12.6493 278.847 12.3995L278.301 11.9226C278.006 11.6501 277.859 11.3548 277.859 11.0369C277.859 10.7417 277.995 10.4578 278.267 10.1853C279.244 9.25419 280.277 8.56154 281.367 8.10734C282.457 7.65315 283.672 7.42605 285.012 7.42605ZM283.752 22.3804C285.114 22.3804 286.261 22.0171 287.192 21.2904C288.146 20.5637 288.623 19.519 288.623 18.1564V16.5894L285.659 17.2026C284.002 17.5433 282.775 17.9293 281.98 18.3608C281.186 18.7923 280.788 19.4509 280.788 20.3366C280.788 20.9724 281.049 21.472 281.572 21.8354C282.094 22.1988 282.821 22.3804 283.752 22.3804ZM308.044 1.70319C308.044 1.31713 308.146 1.0219 308.35 0.817511C308.577 0.613123 308.873 0.510929 309.236 0.510929H310.462C310.848 0.510929 311.144 0.613123 311.348 0.817511C311.552 1.0219 311.654 1.31713 311.654 1.70319V23.5386C311.654 23.902 311.552 24.1972 311.348 24.4243C311.144 24.6287 310.848 24.7309 310.462 24.7309H309.474C309.111 24.7309 308.816 24.6287 308.589 24.4243C308.384 24.1972 308.282 23.902 308.282 23.5386V22.3464C307.101 24.254 305.25 25.2078 302.73 25.2078C301.322 25.2078 300.05 24.8444 298.914 24.1177C297.802 23.391 296.927 22.3577 296.291 21.0178C295.655 19.678 295.338 18.1224 295.338 16.351C295.338 14.6023 295.655 13.0581 296.291 11.7182C296.95 10.3783 297.847 9.34503 298.982 8.61832C300.118 7.8916 301.39 7.52825 302.798 7.52825C305.114 7.52825 306.863 8.33444 308.044 9.94684V1.70319ZM303.479 22.1079C304.864 22.1079 306 21.5969 306.885 20.575C307.771 19.5304 308.214 18.1224 308.214 16.351C308.214 14.5796 307.771 13.183 306.885 12.161C306 11.1391 304.864 10.6281 303.479 10.6281C302.139 10.6281 301.06 11.1505 300.243 12.1951C299.425 13.2398 299.017 14.625 299.017 16.351C299.017 18.0996 299.414 19.4963 300.209 20.5409C301.026 21.5856 302.116 22.1079 303.479 22.1079ZM317.69 4.66682C317.031 4.66682 316.475 4.45107 316.021 4.01959C315.566 3.56539 315.339 3.03171 315.339 2.41855C315.339 1.78268 315.566 1.249 316.021 0.817511C316.475 0.386025 317.031 0.170283 317.69 0.170283C318.348 0.170283 318.905 0.386025 319.359 0.817511C319.813 1.249 320.04 1.78268 320.04 2.41855C320.04 3.03171 319.813 3.56539 319.359 4.01959C318.905 4.45107 318.348 4.66682 317.69 4.66682ZM317.043 24.7309C316.679 24.7309 316.384 24.6287 316.157 24.4243C315.952 24.1972 315.85 23.902 315.85 23.5386V9.12928C315.85 8.74322 315.952 8.44799 316.157 8.2436C316.384 8.03922 316.679 7.93702 317.043 7.93702H318.269C318.655 7.93702 318.95 8.03922 319.155 8.2436C319.359 8.44799 319.461 8.74322 319.461 9.12928V23.5386C319.461 23.902 319.359 24.1972 319.155 24.4243C318.95 24.6287 318.655 24.7309 318.269 24.7309H317.043ZM332.185 7.42605C334.115 7.42605 335.591 7.97109 336.613 9.06116C337.658 10.1285 338.18 11.5138 338.18 13.217V23.5386C338.18 23.902 338.078 24.1972 337.874 24.4243C337.669 24.6287 337.374 24.7309 336.988 24.7309H335.762C335.398 24.7309 335.103 24.6287 334.876 24.4243C334.672 24.1972 334.569 23.902 334.569 23.5386V14.3412C334.569 13.1148 334.263 12.1724 333.65 11.5138C333.059 10.8552 332.208 10.5259 331.095 10.5259C330.005 10.5259 329.085 10.9006 328.336 11.6501C327.609 12.3995 327.245 13.3419 327.245 14.4774V23.5386C327.245 23.902 327.143 24.1972 326.939 24.4243C326.734 24.6287 326.439 24.7309 326.053 24.7309H324.827C324.464 24.7309 324.168 24.6287 323.941 24.4243C323.737 24.1972 323.635 23.902 323.635 23.5386V9.12928C323.635 8.74322 323.737 8.44799 323.941 8.2436C324.168 8.03922 324.464 7.93702 324.827 7.93702H325.815C326.201 7.93702 326.496 8.03922 326.7 8.2436C326.905 8.44799 327.007 8.74322 327.007 9.12928V10.015C327.552 9.1747 328.267 8.53883 329.153 8.10734C330.039 7.65315 331.049 7.42605 332.185 7.42605ZM354.151 9.02709C354.151 8.68644 354.253 8.42528 354.457 8.2436C354.684 8.03922 354.98 7.93702 355.343 7.93702H356.297C356.683 7.93702 356.978 8.03922 357.182 8.2436C357.387 8.44799 357.489 8.74322 357.489 9.12928V24.1177C357.489 26.366 356.762 28.1146 355.309 29.3637C353.878 30.6127 351.971 31.2372 349.586 31.2372C347.201 31.2372 344.953 30.6241 342.841 29.3978C342.41 29.1707 342.194 28.8641 342.194 28.478C342.194 28.2736 342.285 28.0238 342.467 27.7286L342.909 27.0814C343.159 26.6953 343.466 26.5023 343.829 26.5023C344.079 26.5023 344.329 26.5817 344.579 26.7407C345.487 27.263 346.327 27.6377 347.099 27.8648C347.871 28.1146 348.689 28.2396 349.552 28.2396C350.869 28.2396 351.925 27.8762 352.72 27.1495C353.538 26.4455 353.946 25.3327 353.946 23.8111V22.0057C352.811 23.6181 351.108 24.4243 348.837 24.4243C347.429 24.4243 346.157 24.0723 345.021 23.3683C343.909 22.6416 343.034 21.6424 342.398 20.3706C341.785 19.0762 341.479 17.6 341.479 15.9422C341.479 14.2844 341.785 12.8196 342.398 11.5479C343.034 10.2534 343.909 9.24283 345.021 8.51612C346.157 7.78941 347.429 7.42605 348.837 7.42605C351.244 7.42605 353.015 8.32309 354.151 10.1172V9.02709ZM349.552 21.3926C350.869 21.3926 351.948 20.8929 352.788 19.8937C353.628 18.8718 354.048 17.5546 354.048 15.9422C354.048 14.3525 353.628 13.0581 352.788 12.0588C351.971 11.0369 350.892 10.5259 349.552 10.5259C348.189 10.5259 347.111 11.0256 346.316 12.0248C345.521 13.024 345.124 14.3298 345.124 15.9422C345.124 17.5773 345.521 18.8945 346.316 19.8937C347.111 20.8929 348.189 21.3926 349.552 21.3926ZM362.612 16.5213C362.248 16.5213 361.953 16.4191 361.726 16.2147C361.522 15.9876 361.419 15.6924 361.419 15.3291V14.4774C361.419 14.0914 361.522 13.7961 361.726 13.5918C361.953 13.3874 362.248 13.2852 362.612 13.2852H370.413C370.799 13.2852 371.094 13.3874 371.298 13.5918C371.503 13.7961 371.605 14.0914 371.605 14.4774V15.3291C371.605 15.6924 371.503 15.9876 371.298 16.2147C371.094 16.4191 370.799 16.5213 370.413 16.5213H362.612ZM384.08 7.42605C386.011 7.42605 387.487 7.97109 388.509 9.06116C389.553 10.1285 390.076 11.5138 390.076 13.217V23.5386C390.076 23.902 389.973 24.1972 389.769 24.4243C389.565 24.6287 389.269 24.7309 388.883 24.7309H387.657C387.294 24.7309 386.998 24.6287 386.771 24.4243C386.567 24.1972 386.465 23.902 386.465 23.5386V14.3412C386.465 13.1148 386.158 12.1724 385.545 11.5138C384.955 10.8552 384.103 10.5259 382.99 10.5259C381.9 10.5259 380.98 10.9006 380.231 11.6501C379.504 12.3995 379.141 13.3419 379.141 14.4774V23.5386C379.141 23.902 379.039 24.1972 378.834 24.4243C378.63 24.6287 378.335 24.7309 377.949 24.7309H376.722C376.359 24.7309 376.064 24.6287 375.837 24.4243C375.632 24.1972 375.53 23.902 375.53 23.5386V9.12928C375.53 8.74322 375.632 8.44799 375.837 8.2436C376.064 8.03922 376.359 7.93702 376.722 7.93702H377.71C378.096 7.93702 378.391 8.03922 378.596 8.2436C378.8 8.44799 378.902 8.74322 378.902 9.12928V10.015C379.447 9.1747 380.163 8.53883 381.048 8.10734C381.934 7.65315 382.945 7.42605 384.08 7.42605ZM401.311 7.42605C403.582 7.42605 405.331 7.95973 406.557 9.02709C407.783 10.0717 408.396 11.4684 408.396 13.217V23.5386C408.396 23.902 408.294 24.1972 408.09 24.4243C407.886 24.6287 407.59 24.7309 407.204 24.7309H406.319C405.955 24.7309 405.66 24.6287 405.433 24.4243C405.228 24.1972 405.126 23.902 405.126 23.5386V22.7892C404.581 23.5841 403.832 24.1972 402.878 24.6287C401.924 25.0602 400.811 25.2759 399.54 25.2759C397.791 25.2759 396.349 24.8899 395.213 24.1177C394.101 23.3229 393.544 22.1306 393.544 20.5409C393.544 18.7696 394.203 17.4638 395.52 16.6235C396.86 15.7605 398.711 15.1133 401.073 14.6818L404.922 13.9665V13.3533C404.922 12.4222 404.593 11.7068 403.934 11.2072C403.298 10.6849 402.447 10.4237 401.379 10.4237C400.471 10.4237 399.676 10.5827 398.995 10.9006C398.336 11.1959 397.621 11.6955 396.849 12.3995C396.553 12.6493 396.269 12.7742 395.997 12.7742C395.724 12.7742 395.441 12.6493 395.145 12.3995L394.6 11.9226C394.305 11.6501 394.157 11.3548 394.157 11.0369C394.157 10.7417 394.294 10.4578 394.566 10.1853C395.543 9.25419 396.576 8.56154 397.666 8.10734C398.756 7.65315 399.971 7.42605 401.311 7.42605ZM400.051 22.3804C401.413 22.3804 402.56 22.0171 403.491 21.2904C404.445 20.5637 404.922 19.519 404.922 18.1564V16.5894L401.958 17.2026C400.3 17.5433 399.074 17.9293 398.279 18.3608C397.484 18.7923 397.087 19.4509 397.087 20.3366C397.087 20.9724 397.348 21.472 397.871 21.8354C398.393 22.1988 399.12 22.3804 400.051 22.3804ZM430.542 7.42605C432.336 7.42605 433.722 7.93702 434.698 8.95896C435.675 9.95819 436.163 11.3094 436.163 13.0127V23.5386C436.163 23.902 436.061 24.1972 435.856 24.4243C435.652 24.6287 435.357 24.7309 434.971 24.7309H433.744C433.381 24.7309 433.086 24.6287 432.859 24.4243C432.654 24.1972 432.552 23.902 432.552 23.5386V14.1027C432.552 12.9899 432.302 12.1156 431.803 11.4797C431.303 10.8439 430.542 10.5259 429.52 10.5259C428.476 10.5259 427.647 10.8779 427.034 11.5819C426.443 12.2859 426.148 13.1943 426.148 14.3071V23.5386C426.148 23.902 426.046 24.1972 425.841 24.4243C425.637 24.6287 425.342 24.7309 424.956 24.7309H423.729C423.366 24.7309 423.071 24.6287 422.844 24.4243C422.639 24.1972 422.537 23.902 422.537 23.5386V14.1027C422.537 12.9899 422.287 12.1156 421.788 11.4797C421.311 10.8439 420.561 10.5259 419.539 10.5259C418.54 10.5259 417.734 10.8552 417.121 11.5138C416.508 12.1724 416.178 13.024 416.133 14.0687V23.5386C416.133 23.902 416.031 24.1972 415.826 24.4243C415.622 24.6287 415.327 24.7309 414.941 24.7309H413.714C413.351 24.7309 413.056 24.6287 412.829 24.4243C412.624 24.1972 412.522 23.902 412.522 23.5386V9.12928C412.522 8.74322 412.624 8.44799 412.829 8.2436C413.056 8.03922 413.351 7.93702 413.714 7.93702H414.702C415.088 7.93702 415.383 8.03922 415.588 8.2436C415.792 8.44799 415.894 8.74322 415.894 9.12928V9.87871C416.939 8.2436 418.551 7.42605 420.732 7.42605C421.822 7.42605 422.776 7.65315 423.593 8.10734C424.411 8.56154 425.035 9.19741 425.467 10.015C426.625 8.28902 428.317 7.42605 430.542 7.42605ZM452.324 20.4387C452.619 20.1889 452.903 20.064 453.176 20.064C453.448 20.064 453.732 20.2117 454.027 20.5069L454.504 21.0178C454.754 21.3131 454.879 21.5969 454.879 21.8695C454.879 22.1647 454.731 22.4486 454.436 22.7211C453.392 23.6295 452.347 24.2767 451.302 24.6628C450.28 25.0488 449.145 25.2419 447.896 25.2419C446.147 25.2419 444.626 24.8785 443.331 24.1518C442.059 23.4251 441.072 22.4031 440.367 21.086C439.686 19.7461 439.346 18.2018 439.346 16.4532C439.346 14.7272 439.675 13.183 440.333 11.8204C441.015 10.4351 441.969 9.35638 443.195 8.58425C444.444 7.81212 445.897 7.42605 447.555 7.42605C450.031 7.42605 451.938 8.16412 453.278 9.64025C454.618 11.0937 455.288 13.1035 455.288 15.6697V15.9763C455.265 16.3396 455.152 16.6235 454.947 16.8279C454.743 17.0323 454.448 17.1345 454.061 17.1345H442.888C443.025 18.6333 443.513 19.8596 444.353 20.8135C445.216 21.7446 446.42 22.2101 447.964 22.2101C448.804 22.2101 449.542 22.0852 450.178 21.8354C450.814 21.5629 451.529 21.0973 452.324 20.4387ZM447.487 10.2875C446.238 10.2875 445.227 10.6622 444.455 11.4116C443.706 12.1383 443.218 13.1716 442.99 14.5115H451.745C451.654 13.1943 451.245 12.161 450.519 11.4116C449.792 10.6622 448.781 10.2875 447.487 10.2875ZM457.369 27.6605H462.07V2.86139H457.369V0.408734H465V30.1131H457.369V27.6605Z" fill="#474445"/>
</svg>
